v -0.045029 -0.030003 -0.462946
v -0.038320 -0.004937 -0.369825
v -0.027150 -0.000485 -0.345234
v -0.025170 0.001911 -0.329460
v -0.004838 -0.038074 -0.467876
v 0.005816 -0.041189 -0.470669
v 0.032831 -0.043485 -0.465489
v -0.024193 0.001868 -0.330241
v 0.011652 0.004741 -0.326443
v 0.014735 0.003061 -0.325543
v 0.025832 0.001772 -0.268189
v 0.032882 0.003570 -0.171657
v 0.021183 0.020569 0.022998
v 0.020367 0.020475 0.063059
v -0.022268 0.009645 -0.243340
v -0.002346 0.010647 -0.243007
v 0.023754 0.005571 -0.240831
v -0.021028 0.010320 -0.188862
v 0.000833 0.011694 -0.189478
v 0.030122 0.005809 -0.188828
v -0.020853 0.015069 -0.127684
v 0.029914 0.009393 -0.120940
v 0.023257 -0.006832 -0.285333
v 0.016084 -0.016312 -0.287842
v 0.004142 -0.018937 -0.289443
v -0.009381 -0.013916 -0.288556
v -0.024135 -0.001688 -0.283499
v 0.028370 0.002151 -0.121665
v 0.011607 -0.009954 -0.123655
v -0.004175 -0.012613 -0.124774
v -0.016225 -0.007041 -0.124960
v -0.024249 0.008404 -0.123965
v 0.023621 0.009482 -0.008219
v 0.004288 -0.003888 -0.015561
v -0.014676 -0.006437 -0.019593
v -0.028219 0.001422 -0.020155
v -0.028972 0.019409 -0.015552
v -0.039980 -0.044505 -0.458814
v -0.011777 -0.049393 -0.473092
v -0.005105 -0.047822 -0.464753
v 0.001187 -0.050040 -0.469683
v -0.024598 -0.000479 -0.328269
v -0.016234 -0.007973 -0.332380
v -0.005494 -0.012145 -0.330715
v 0.008472 -0.011550 -0.327791
v 0.017320 -0.004176 -0.328336
v 0.021313 0.028793 0.056887
v -0.032487 0.036523 0.060408
v -0.063280 0.040595 0.066246
v -0.083444 0.042136 0.075865
v -0.099856 0.042028 0.093510
v -0.103872 0.040617 0.106298
v -0.101809 0.040185 0.120316
v -0.064808 0.036659 0.184105
v -0.062933 0.037374 0.198230
v -0.065282 0.041012 0.220482
v 0.056437 0.018911 0.207741
v 0.094708 0.005368 0.156026
v 0.108320 0.004978 0.133086
v 0.108189 0.008002 0.106225
v 0.094795 0.012977 0.073402
v 0.004868 0.032649 0.206610
v 0.049579 0.022225 0.180480
v 0.092077 0.012826 0.164600
v 0.008499 0.029344 0.241105
v 0.046429 0.019164 0.206551
v 0.081744 0.010745 0.187493
v -0.053587 0.035919 0.344056
v -0.038954 0.033483 0.314861
v -0.021662 0.031205 0.291304
v -0.018395 0.029932 0.291182
v -0.018064 0.025718 0.312955
v 0.012771 0.020699 0.274695
v 0.045024 0.014825 0.247369
v 0.019136 -0.022110 0.053727
v -0.029577 -0.016498 0.050085
v -0.060395 -0.011740 0.054061
v -0.091696 -0.005379 0.071302
v -0.107456 -0.002553 0.090019
v -0.111918 -0.003557 0.104806
v -0.110822 -0.006680 0.120162
v -0.091023 -0.019246 0.168774
v -0.087113 -0.019817 0.181146
v -0.086809 -0.018025 0.195710
v -0.096559 -0.016677 0.213330
v -0.150030 -0.016528 0.269505
v -0.166661 -0.014033 0.299080
v -0.172495 -0.013704 0.318978
v -0.172896 -0.015036 0.331002
v -0.162516 -0.023839 0.370234
v -0.138224 -0.029678 0.411418
v -0.119297 -0.032374 0.431325
v -0.098664 -0.035648 0.446129
v -0.057040 -0.040058 0.459800
v 0.001785 -0.043289 0.465272
v 0.051488 -0.046235 0.459098
v 0.087220 -0.048057 0.441518
v 0.109211 -0.050039 0.422091
v 0.124833 -0.050351 0.402858
v 0.144781 -0.047822 0.363116
v -0.053771 0.035861 0.345344
v -0.030203 0.030710 0.318411
v -0.027165 0.021249 0.341997
v -0.023975 0.019053 0.344107
v 0.013716 0.018766 0.284580
v 0.043906 0.014935 0.246201
v -0.015158 0.033070 0.057257
v -0.011803 0.008721 -0.208517
v -0.014442 0.003049 -0.328594
v -0.005751 0.008399 -0.328906
v -0.027919 -0.012819 -0.391342
v -0.041180 -0.017702 -0.429088
v 0.009880 0.031617 0.056495
v 0.010216 0.031708 0.027072
v 0.010378 0.019168 -0.060344
v 0.013418 0.007735 -0.190483
v 0.008373 0.001332 -0.323560
v -0.036653 0.010306 0.449582
v 0.001121 0.000276 0.458351
v 0.031134 -0.004313 0.458574
v -0.026449 0.000823 0.455139
v -0.033763 -0.011160 0.457993
v -0.047111 -0.033326 0.455030
v 0.118058 -0.022711 0.425172
v 0.101202 -0.048553 0.433835
v 0.146438 -0.008300 0.288460
v 0.142064 -0.043510 0.312652
v 0.089701 0.004769 0.165593
v 0.073143 -0.037395 0.180341
v -0.094325 0.040695 0.081502
v -0.080234 -0.003741 0.068894
v -0.100747 0.024123 0.222695
v -0.087039 -0.015096 0.198630
v -0.067720 0.037567 0.174722
v -0.054908 0.036329 0.133775
v -0.036092 0.035971 0.099674
v -0.014563 0.034571 0.077322
v 0.016201 0.029402 0.060369
v 0.080525 0.002749 0.393899
v 0.090447 -0.004609 0.410309
v 0.107283 -0.012323 0.429790
v -0.153898 0.031698 0.296040
v -0.132811 0.036221 0.302282
v -0.118752 0.043537 0.306938
v -0.043835 -0.031164 -0.463748
v -0.013531 -0.039184 -0.469169
v -0.004984 -0.037795 -0.467875
v 0.031064 -0.040967 -0.465901
v 0.030850 -0.040564 -0.450305
v 0.032438 -0.019240 -0.366780
v -0.026445 0.001552 -0.329159
v -0.022097 0.011255 -0.164198
v -0.027265 0.023608 0.016338
v -0.025893 0.025835 0.061956
v -0.020664 0.007994 -0.237859
v 0.025452 0.006652 -0.230346
v -0.024145 0.014740 -0.137669
v 0.003897 0.013034 -0.135713
v 0.031879 0.007331 -0.132657
v -0.027623 0.019016 -0.073117
v 0.031071 0.011293 -0.068358
v -0.024413 0.021330 -0.003723
v -0.004837 0.021105 -0.003018
v 0.022721 0.015339 -0.002257
v 0.028040 -0.000571 -0.224625
v 0.017596 -0.009892 -0.227632
v 0.003279 -0.013147 -0.229153
v -0.011563 -0.009724 -0.228837
v -0.021873 -0.000386 -0.225833
v 0.024701 0.009783 -0.059092
v 0.007682 -0.004699 -0.062807
v -0.006787 -0.008814 -0.064910
v -0.019562 -0.004693 -0.065972
v -0.024320 0.009422 -0.065031
v 0.021424 0.015577 0.053344
v 0.003637 0.000662 0.050141
v -0.016169 -0.003298 0.046919
v -0.025694 0.002989 0.045931
v -0.028609 0.021219 0.051427
v -0.010899 -0.050321 -0.473329
v -0.006523 -0.047226 -0.463459
v 0.033311 -0.024888 -0.357146
v 0.016730 -0.018597 -0.343237
v 0.007533 -0.015771 -0.327949
v 0.034051 -0.026002 -0.358135
v 0.033759 -0.052267 -0.462825
v 0.023056 -0.004143 0.459967
v 0.080274 -0.012073 0.445747
v 0.104104 -0.016048 0.432652
v 0.133309 -0.019426 0.397660
v 0.143705 -0.018932 0.376476
v 0.150341 -0.017035 0.353431
v 0.153245 -0.011970 0.313405
v 0.146725 -0.007101 0.280833
v 0.130428 -0.001914 0.253263
v 0.077927 0.009710 0.201159
v 0.074526 0.010949 0.188273
v 0.079825 0.014150 0.169441
v 0.095626 0.015246 0.072976
v 0.088774 0.015223 0.078903
v 0.067563 0.017460 0.113630
v 0.057919 0.020756 0.119081
v 0.046206 0.022211 0.119694
v 0.032726 0.021285 0.112173
v 0.024182 0.020601 0.098287
v 0.022164 0.027186 0.058427
v -0.063722 0.037083 0.189434
v -0.046582 0.035773 0.196223
v -0.022792 0.033989 0.211589
v 0.004313 0.030556 0.242274
v -0.077182 0.037256 0.186009
v -0.064867 0.035542 0.216117
v -0.063315 0.035766 0.230781
v -0.075571 0.039522 0.251435
v -0.107126 0.041813 0.290709
v -0.115808 0.039818 0.308235
v -0.118153 0.037774 0.324596
v -0.114387 0.035796 0.347083
v -0.104631 0.034003 0.368844
v -0.090317 0.030380 0.389118
v -0.072653 0.024165 0.405396
v 0.073314 -0.041323 0.203929
v 0.071495 -0.037861 0.193743
v 0.074383 -0.036645 0.173246
v 0.101323 -0.040040 0.117085
v 0.101965 -0.038646 0.096232
v 0.094676 -0.036045 0.084124
v 0.086047 -0.035103 0.081468
v 0.058759 -0.034196 0.114061
v 0.047355 -0.031823 0.118761
v 0.037264 -0.029614 0.116635
v 0.027246 -0.024962 0.108137
v 0.021574 -0.020272 0.094197
v 0.020344 -0.018620 0.078537
v 0.023409 -0.020094 0.056482
v 0.108979 -0.037168 0.240738
v 0.084133 -0.035342 0.218773
v 0.073261 -0.035317 0.204381
v 0.068881 -0.035643 0.187941
v 0.070833 -0.037827 0.164472
v -0.016377 -0.004297 0.046840
v -0.018721 -0.015818 0.050888
v -0.007647 0.032236 0.056287
v -0.007829 0.029187 -0.021527
v -0.003305 0.009903 -0.164658
v -0.006975 0.002394 -0.292922
v -0.005740 0.005423 -0.329240
v 0.003126 0.032938 0.056927
v 0.002554 0.013820 -0.108840
v 0.003924 0.012493 -0.203063
v -0.000308 0.004910 -0.283690
v 0.000889 0.003630 -0.327436
v 0.008642 0.003047 -0.328337
v 0.019545 -0.011575 -0.362019
v 0.032139 -0.021103 -0.391357
v -0.158557 0.027651 0.336434
v -0.169452 -0.008586 0.320430
v -0.041049 -0.000574 0.455216
v -0.070955 -0.039843 0.449440
v 0.141476 -0.005138 0.265671
v 0.137699 -0.036896 0.290036
v 0.096249 0.002822 0.154865
v 0.075618 -0.030562 0.168912
v 0.040668 0.018653 0.118050
v 0.061222 -0.031824 0.115266
v -0.084419 0.036043 0.071509
v -0.062867 -0.005964 0.061597
v -0.026147 0.034570 0.060385
v -0.048364 0.042152 0.081702
v -0.060031 0.044249 0.100155
v -0.071399 0.042886 0.132868
v -0.074220 0.040105 0.165877
v 0.070441 0.010285 0.256733
v 0.086049 0.005984 0.250151
v 0.110447 0.004564 0.238035
v -0.143077 0.024957 0.382634
v -0.123676 0.029386 0.375307
v -0.104969 0.038305 0.365038
v -0.024515 0.018202 -0.064402
v 0.026166 0.015554 -0.056861
v -0.025582 0.004782 -0.289384
v 0.019671 0.005297 -0.286825
v -0.023279 0.005561 -0.282339
v -0.007659 0.007972 -0.281488
v 0.020724 0.003908 -0.280676
v -0.041537 -0.043992 -0.458841
v -0.047303 -0.039301 -0.432751
v -0.044611 -0.026882 -0.392698
v -0.038123 -0.018479 -0.366099
v -0.019460 -0.010559 -0.331061
v 0.078035 0.015421 0.178365
v 0.059096 0.018250 0.211355
v 0.055495 0.015410 0.232385
v 0.063011 0.010983 0.248799
v 0.103552 0.000033 0.296200
v 0.108087 -0.000435 0.312058
v 0.107567 0.001594 0.336352
v 0.099052 0.003637 0.364597
v 0.081686 0.002412 0.392641
v 0.061606 -0.000202 0.411782
v 0.033810 0.001683 0.427732
v -0.160405 0.025605 0.321149
v -0.169032 -0.009974 0.300083
v -0.026367 0.024423 -0.010671
v 0.023776 0.019722 -0.008490
v -0.012825 0.007628 -0.329853
v -0.039186 -0.009631 -0.388695
v -0.107146 0.025821 0.230954
v -0.102124 0.002969 0.221774
v -0.092892 -0.014957 0.214951
v -0.068268 0.040080 0.173091
v -0.021925 0.030825 0.188501
v 0.004442 0.030382 0.207724
v 0.001433 0.007706 -0.329601
v 0.013565 -0.010626 -0.387280
v 0.028440 -0.035012 -0.447720
v -0.020208 0.010958 -0.180260
v -0.002047 0.011899 -0.180429
v 0.025856 0.005263 -0.182519
v 0.002131 -0.050646 -0.471389
v 0.011712 -0.050852 -0.465660
v 0.029528 -0.052965 -0.461037
v -0.077381 0.040666 0.158554
v -0.080483 0.034266 0.186886
v -0.090172 0.029636 0.212252
v -0.104314 0.028692 0.231325
v -0.141790 0.031191 0.273768
v -0.152905 0.030327 0.292576
v -0.158141 0.027545 0.320143
v -0.155051 0.026322 0.354267
v -0.147974 0.024598 0.376972
v -0.137712 0.021019 0.396713
v -0.127211 0.017824 0.409774
v -0.110294 0.014050 0.423528
v -0.065957 0.006639 0.445844
v -0.041560 0.003488 0.450393
v -0.013794 0.002044 0.451181
v 0.121592 -0.067139 0.397071
v 0.132000 -0.062181 0.381157
v 0.139501 -0.057235 0.361369
v 0.142679 -0.047109 0.313553
v 0.139020 -0.042964 0.292389
v 0.131388 -0.039395 0.272186
v 0.120105 -0.036228 0.255119
v 0.107200 -0.035285 0.242441
v 0.107015 -0.017631 0.433667
v 0.084125 -0.048836 0.441659
v 0.035909 -0.019065 -0.365906
v 0.020236 -0.005297 -0.344129
v 0.013836 0.005336 -0.325208
v 0.030522 0.000683 -0.178947
v 0.019316 -0.008977 -0.181068
v 0.004230 -0.012511 -0.182615
v -0.010232 -0.009278 -0.181991
v -0.024621 0.001076 -0.178788
v -0.107522 0.032142 0.240317
v -0.091090 0.036872 0.249177
v -0.078188 0.044154 0.253700
v 0.031279 0.017472 0.108573
v 0.045419 -0.027079 0.117460
v 0.108470 0.000527 0.320523
v 0.153057 -0.011911 0.331335
l 1 2 3 4
l 5 6 7
l 8 9
l 10 11 12 13 14
l 15 16 17
l 18 19 20
l 21 22
l 23 24 25 26 27
l 28 29 30 31 32
l 33 34 35 36 37
l 38 39
l 40 41
l 42 43 44 45 46
l 47 48 49 50 51 52 53 54 55 56
l 57 58 59 60 61
l 62 63 64
l 65 66 67
l 68 69 70 71 72 73 74
l 75 76 77 78 79 80 81 82 83 84 85 86 87 88 89 90 91 92 93 94 95 96 97 98 99 100
l 101 102 103 104 105 106
l 107 108 109
l 110 111 112
l 113 114 115 116 117
l 118 119 120
l 121 122 123
l 124 125
l 126 127
l 128 129
l 130 131
l 132 133
l 134 135 136 137 138
l 139 140 141
l 142 143 144
l 145 146 147
l 148 149 150
l 151 152 153 154
l 155 156
l 157 158 159
l 160 161
l 162 163 164
l 165 166 167 168 169
l 170 171 172 173 174
l 175 176 177 178 179
l 180 181
l 182 183 184
l 185 186
l 187 188 189 190 191 192 193 194 195 196 197 198
l 199 200 201 202 203 204 205 206
l 207 208 209 210
l 211 212 213 214 215 216 217 218 219 220 221
l 222 223 224 225 226 227 228 229 230 231 232 233 234 235
l 236 237 238 239 240
l 241 242
l 243 244 245 246 247
l 248 249 250 251 252
l 253 254 255
l 256 257
l 258 259
l 260 261
l 262 263
l 264 265
l 266 267
l 268 269 270 271 272
l 273 274 275
l 276 277 278
l 279 280
l 281 282
l 283 284 285
l 286 287 288 289 290
l 291 292 293 294 295 296 297 298 299 300 301
l 302 303
l 304 305
l 306 307
l 308 309 310
l 311 312 313
l 314 315 316
l 317 318 319
l 320 321 322
l 323 324 325 326 327 328 329 330 331 332 333 334 335 336 337
l 338 339 340 341 342 343 344 345
l 346 347
l 348 349 350
l 351 352 353 354 355
l 356 357 358
l 359 360
l 361 362
