v 0.001385 -0.007776 -0.205662
v -0.162859 -0.015111 -0.198085
v -0.177763 -0.015399 -0.195649
v -0.183513 -0.014472 -0.190683
v -0.187143 -0.009936 -0.172794
v -0.187205 0.000951 -0.125784
v -0.186489 0.002012 -0.078388
v -0.185560 -0.009729 -0.027661
v -0.186369 -0.036764 0.047738
v -0.190803 -0.046426 0.091456
v -0.186467 -0.045858 0.104058
v -0.164406 -0.045402 0.109777
v -0.000000 -0.047729 0.109807
v -0.001385 -0.007776 -0.205662
v 0.162859 -0.015111 -0.198085
v 0.177763 -0.015399 -0.195649
v 0.183513 -0.014472 -0.190683
v 0.187143 -0.009936 -0.172794
v 0.187205 0.000951 -0.125784
v 0.186489 0.002012 -0.078388
v 0.185560 -0.009729 -0.027661
v 0.186369 -0.036764 0.047738
v 0.190803 -0.046426 0.091456
v 0.186467 -0.045858 0.104058
v 0.164406 -0.045402 0.109777
v -0.093961 -0.046548 0.111744
v -0.119540 -0.061320 0.115671
v -0.140434 -0.079364 0.119092
v -0.157359 -0.100440 0.122151
v -0.172382 -0.127129 0.125300
v -0.192442 -0.182832 0.130917
v -0.235859 -0.349834 0.150814
v 0.093961 -0.046548 0.111744
v 0.119540 -0.061320 0.115671
v 0.140434 -0.079364 0.119092
v 0.157359 -0.100440 0.122151
v 0.172382 -0.127129 0.125300
v 0.192442 -0.182832 0.130917
v 0.235859 -0.349834 0.150814
v -0.187012 0.002656 -0.110448
v -0.177160 -0.016893 -0.145114
v -0.169585 -0.042583 -0.167036
v -0.167575 -0.079918 -0.182077
v -0.173847 -0.132402 -0.193757
v 0.187012 0.002656 -0.110448
v 0.177160 -0.016893 -0.145114
v 0.169585 -0.042583 -0.167036
v 0.167575 -0.079918 -0.182077
v 0.173847 -0.132402 -0.193757
v -0.102041 -0.012447 -0.201354
v -0.120886 -0.031194 -0.195831
v -0.136904 -0.052602 -0.192483
v -0.163821 -0.105649 -0.191708
v -0.196445 -0.203594 -0.203590
v -0.241175 -0.332553 -0.229196
v 0.102041 -0.012447 -0.201354
v 0.120886 -0.031194 -0.195831
v 0.136904 -0.052602 -0.192483
v 0.163821 -0.105649 -0.191708
v 0.196445 -0.203594 -0.203590
v 0.241175 -0.332553 -0.229196
v -0.187677 -0.041459 0.062849
v -0.176741 -0.079294 0.095774
v -0.170185 -0.122594 0.124801
v 0.187677 -0.041459 0.062849
v 0.176741 -0.079294 0.095774
v 0.170185 -0.122594 0.124801
v -0.080816 -0.046245 0.111579
v -0.084998 0.024521 0.119880
v -0.089759 0.091731 0.138794
v -0.093379 0.148440 0.167261
v -0.093540 0.178826 0.188866
v -0.090447 0.200657 0.206200
v -0.082012 0.217194 0.218438
v -0.066588 0.227305 0.225144
v -0.042382 0.232350 0.228276
v 0.000000 0.233640 0.230042
v 0.080816 -0.046245 0.111579
v 0.084998 0.024521 0.119880
v 0.089759 0.091731 0.138794
v 0.093379 0.148440 0.167261
v 0.093540 0.178826 0.188866
v 0.090447 0.200657 0.206200
v 0.082012 0.217194 0.218438
v 0.066588 0.227305 0.225144
v 0.042382 0.232350 0.228276
v 0.000000 -0.020338 -0.320778
v -0.125118 -0.025169 -0.306041
v -0.169786 -0.025988 -0.297041
v -0.218377 -0.025368 -0.281931
v -0.249094 -0.022682 -0.265346
v -0.266679 -0.018103 -0.247801
v -0.277562 -0.009411 -0.223767
v -0.279493 0.001047 -0.199594
v -0.275443 0.011487 -0.175617
v -0.266390 0.021773 -0.146420
v -0.259294 0.025785 -0.124043
v -0.252366 0.025413 -0.097241
v -0.246443 0.016073 -0.056064
v -0.242954 -0.011798 0.019669
v -0.232066 -0.020939 0.049884
v -0.215427 -0.026481 0.072888
v -0.186148 -0.030843 0.093562
v -0.153493 -0.032761 0.101994
v 0.000000 -0.033485 0.103052
v 0.125118 -0.025169 -0.306041
v 0.169786 -0.025988 -0.297041
v 0.218377 -0.025368 -0.281931
v 0.249094 -0.022682 -0.265346
v 0.266679 -0.018103 -0.247801
v 0.277562 -0.009411 -0.223767
v 0.279493 0.001047 -0.199594
v 0.275443 0.011487 -0.175617
v 0.266390 0.021773 -0.146420
v 0.259294 0.025785 -0.124043
v 0.252366 0.025413 -0.097241
v 0.246443 0.016073 -0.056064
v 0.242954 -0.011798 0.019669
v 0.232066 -0.020939 0.049884
v 0.215427 -0.026481 0.072888
v 0.186148 -0.030843 0.093562
v 0.153493 -0.032761 0.101994
v -0.170248 -0.015489 -0.293783
v -0.152992 0.016732 -0.213751
v -0.148309 0.023526 -0.181680
v -0.145197 0.025295 -0.151014
v -0.139664 0.016663 -0.095553
v -0.128917 -0.012984 0.002511
v -0.126606 -0.024949 0.048153
v 0.170248 -0.015489 -0.293783
v 0.152992 0.016732 -0.213751
v 0.148309 0.023526 -0.181680
v 0.145197 0.025295 -0.151014
v 0.139664 0.016663 -0.095553
v 0.128917 -0.012984 0.002511
v 0.126606 -0.024949 0.048153
v -0.046832 -0.006570 -0.303718
v -0.043193 0.013556 -0.230043
v -0.042561 0.017027 -0.166535
v -0.039564 0.003387 -0.080251
v -0.037810 -0.026856 0.024655
v 0.046832 -0.006570 -0.303718
v 0.043193 0.013556 -0.230043
v 0.042561 0.017027 -0.166535
v 0.039564 0.003387 -0.080251
v 0.037810 -0.026856 0.024655
v -0.103861 -0.026690 0.107012
v -0.103382 0.019551 0.115746
v -0.111402 0.046049 0.120979
v -0.119879 0.055539 0.122986
v -0.129747 0.060447 0.124131
v -0.173471 0.069249 0.125881
v -0.180448 0.076013 0.127088
v -0.183882 0.085316 0.129233
v -0.183453 0.120694 0.141479
v -0.183415 0.151469 0.158856
v -0.185385 0.195239 0.197999
v -0.179784 0.225998 0.228045
v -0.173484 0.235753 0.234968
v -0.166046 0.241978 0.238036
v -0.141297 0.251651 0.239225
v -0.089032 0.258439 0.234370
v 0.000000 0.261045 0.229025
v 0.103861 -0.026690 0.107012
v 0.103382 0.019551 0.115746
v 0.111402 0.046049 0.120979
v 0.119879 0.055539 0.122986
v 0.129747 0.060447 0.124131
v 0.173471 0.069249 0.125881
v 0.180448 0.076013 0.127088
v 0.183882 0.085316 0.129233
v 0.183453 0.120694 0.141479
v 0.183415 0.151469 0.158856
v 0.185385 0.195239 0.197999
v 0.179784 0.225998 0.228045
v 0.173484 0.235753 0.234968
v 0.166046 0.241978 0.238036
v 0.141297 0.251651 0.239225
v 0.089032 0.258439 0.234370
v 0.000000 0.185777 0.184344
v -0.044463 0.183298 0.185489
v -0.052160 0.179944 0.182828
v -0.054279 0.173431 0.177684
v -0.050534 0.158478 0.167156
v -0.042300 0.147876 0.159558
v 0.000000 0.144890 0.153867
v 0.044463 0.183298 0.185489
v 0.052160 0.179944 0.182828
v 0.054279 0.173431 0.177684
v 0.050534 0.158478 0.167156
v 0.042300 0.147876 0.159558
l 1 2 3 4 5 6 7 8 9 10 11 12 13
l 14 15 16 17 18 19 20 21 22 23 24 25 13
l 26 27 28 29 30 31 32
l 33 34 35 36 37 38 39
l 40 41 42 43 44
l 45 46 47 48 49
l 50 51 52 53 54 55
l 56 57 58 59 60 61
l 62 63 64
l 65 66 67
l 68 69 70 71 72 73 74 75 76 77
l 78 79 80 81 82 83 84 85 86 77
l 87 88 89 90 91 92 93 94 95 96 97 98 99 100 101 102 103 104 105
l 87 106 107 108 109 110 111 112 113 114 115 116 117 118 119 120 121 122 105
l 123 124 125 126 127 128 129
l 130 131 132 133 134 135 136
l 137 138 139 140 141
l 142 143 144 145 146
l 147 148 149 150 151 152 153 154 155 156 157 158 159 160 161 162 163
l 164 165 166 167 168 169 170 171 172 173 174 175 176 177 178 179 163
l 180 181 182 183 184 185 186
l 180 187 188 189 190 191 186
