v -0.022714 0.180715 -0.209099
v -0.072916 0.219089 -0.191274
v -0.122322 0.247050 -0.181624
v 0.022714 0.180715 -0.209099
v 0.072916 0.219089 -0.191274
v 0.122322 0.247050 -0.181624
v -0.119198 0.248531 -0.184086
v -0.133551 0.205265 -0.182059
v -0.145450 0.156941 -0.174787
v -0.148059 0.124721 -0.170992
v -0.145409 0.093410 -0.171021
v 0.119198 0.248531 -0.184086
v 0.133551 0.205265 -0.182059
v 0.145450 0.156941 -0.174787
v 0.148059 0.124721 -0.170992
v 0.145409 0.093410 -0.171021
v -0.126490 0.240915 -0.184559
v -0.121587 0.219057 -0.163478
v -0.113913 0.178616 -0.136797
v -0.110424 0.144605 -0.118799
v -0.112106 0.114976 -0.106226
v 0.126490 0.240915 -0.184559
v 0.121587 0.219057 -0.163478
v 0.113913 0.178616 -0.136797
v 0.110424 0.144605 -0.118799
v 0.112106 0.114976 -0.106226
v -0.122024 0.236676 -0.187831
v -0.130722 0.161413 -0.211741
v -0.133648 0.088247 -0.226899
v 0.122024 0.236676 -0.187831
v 0.130722 0.161413 -0.211741
v 0.133648 0.088247 -0.226899
v -0.044246 0.098146 -0.306647
v -0.057676 0.126116 -0.289245
v -0.074053 0.149361 -0.265750
v -0.085214 0.158160 -0.253356
v -0.098190 0.159960 -0.247098
v 0.044246 0.098146 -0.306647
v 0.057676 0.126116 -0.289245
v 0.074053 0.149361 -0.265750
v 0.085214 0.158160 -0.253356
v 0.098190 0.159960 -0.247098
v -0.095392 0.160881 -0.246647
v -0.109502 0.143087 -0.244370
v -0.120619 0.118700 -0.246237
v -0.124519 0.096007 -0.250112
v -0.123672 0.065191 -0.257367
v 0.095392 0.160881 -0.246647
v 0.109502 0.143087 -0.244370
v 0.120619 0.118700 -0.246237
v 0.124519 0.096007 -0.250112
v 0.123672 0.065191 -0.257367
v -0.043739 0.097823 -0.309440
v -0.060878 0.080505 -0.297187
v -0.086036 0.066756 -0.283021
v -0.104102 0.063864 -0.270068
v -0.123442 0.067786 -0.252303
v 0.043739 0.097823 -0.309440
v 0.060878 0.080505 -0.297187
v 0.086036 0.066756 -0.283021
v 0.104102 0.063864 -0.270068
v 0.123442 0.067786 -0.252303
v -0.102417 0.146042 -0.254945
v -0.088404 0.132888 -0.270671
v -0.080601 0.111556 -0.284654
v -0.080098 0.093993 -0.287624
v -0.089361 0.068323 -0.285765
v 0.102417 0.146042 -0.254945
v 0.088404 0.132888 -0.270671
v 0.080601 0.111556 -0.284654
v 0.080098 0.093993 -0.287624
v 0.089361 0.068323 -0.285765
v -0.105341 0.119867 -0.267496
v -0.101894 0.104666 -0.273819
v -0.105813 0.090164 -0.274936
v -0.109415 0.087749 -0.272354
v -0.112873 0.089603 -0.267767
v -0.116038 0.102790 -0.260004
v -0.112867 0.116034 -0.259807
v -0.107442 0.117049 -0.266483
v -0.105741 0.103811 -0.272089
v -0.117140 0.097014 -0.276298
v 0.105341 0.119867 -0.267496
v 0.101894 0.104666 -0.273819
v 0.105813 0.090164 -0.274936
v 0.109415 0.087749 -0.272354
v 0.112873 0.089603 -0.267767
v 0.116038 0.102790 -0.260004
v 0.112867 0.116034 -0.259807
v 0.107442 0.117049 -0.266483
v 0.105741 0.103811 -0.272089
v 0.117140 0.097014 -0.276298
v -0.063705 0.166294 -0.254943
v -0.046556 0.151433 -0.276222
v -0.034814 0.131847 -0.293724
v 0.063705 0.166294 -0.254943
v 0.046556 0.151433 -0.276222
v 0.034814 0.131847 -0.293724
v -0.006732 0.073308 -0.342554
v -0.020435 0.131654 -0.298960
v -0.024551 0.164040 -0.267830
v -0.027460 0.181391 -0.236296
v -0.034934 0.186786 -0.199586
v 0.006732 0.073308 -0.342554
v 0.020435 0.131654 -0.298960
v 0.024551 0.164040 -0.267830
v 0.027460 0.181391 -0.236296
v 0.034934 0.186786 -0.199586
v 0.000000 0.015747 -0.356537
v -0.024371 0.016097 -0.347041
v -0.048868 0.016326 -0.331706
v -0.078889 0.017307 -0.305924
v -0.104143 0.019855 -0.279607
v -0.120566 0.024007 -0.257163
v -0.132573 0.031244 -0.235266
v -0.136609 0.039307 -0.226897
v -0.137229 0.052232 -0.225167
v 0.024371 0.016097 -0.347041
v 0.048868 0.016326 -0.331706
v 0.078889 0.017307 -0.305924
v 0.104143 0.019855 -0.279607
v 0.120566 0.024007 -0.257163
v 0.132573 0.031244 -0.235266
v 0.136609 0.039307 -0.226897
v 0.137229 0.052232 -0.225167
v 0.000000 -0.026566 -0.325216
v -0.009117 -0.025284 -0.318202
v -0.049327 -0.020957 -0.299728
v -0.076572 -0.013410 -0.285179
v -0.097060 -0.000023 -0.272441
v -0.109517 0.018970 -0.264407
v 0.009117 -0.025284 -0.318202
v 0.049327 -0.020957 -0.299728
v 0.076572 -0.013410 -0.285179
v 0.097060 -0.000023 -0.272441
v 0.109517 0.018970 -0.264407
v -0.080215 0.013857 -0.308251
v -0.085418 0.004991 -0.297355
v -0.094912 0.016742 -0.295322
v 0.080215 0.013857 -0.308251
v 0.085418 0.004991 -0.297355
v 0.094912 0.016742 -0.295322
v 0.001197 -0.054577 -0.300270
v -0.085516 -0.039879 -0.251456
v -0.106482 -0.031872 -0.235671
v -0.126529 -0.021358 -0.214485
v -0.137789 -0.010623 -0.197589
v -0.145039 0.005023 -0.181555
v -0.147710 0.024548 -0.165030
v -0.145233 0.053150 -0.141669
v -0.001197 -0.054577 -0.300270
v 0.085516 -0.039879 -0.251456
v 0.106482 -0.031872 -0.235671
v 0.126529 -0.021358 -0.214485
v 0.137789 -0.010623 -0.197589
v 0.145039 0.005023 -0.181555
v 0.147710 0.024548 -0.165030
v 0.145233 0.053150 -0.141669
v -0.009159 -0.058086 -0.280569
v -0.010248 -0.060808 -0.211751
v -0.013062 -0.058099 -0.175742
v -0.017297 -0.045365 -0.138696
v -0.014661 -0.017907 -0.083806
v 0.009159 -0.058086 -0.280569
v 0.010248 -0.060808 -0.211751
v 0.013062 -0.058099 -0.175742
v 0.017297 -0.045365 -0.138696
v 0.014661 -0.017907 -0.083806
v -0.116633 0.062731 -0.259070
v -0.109721 0.048138 -0.269083
v -0.108485 0.037596 -0.273540
v -0.123740 0.059440 -0.252226
v -0.122580 0.040856 -0.255084
v -0.129696 0.061690 -0.238093
v -0.134812 0.068973 -0.229035
v -0.138611 0.067890 -0.221460
v -0.140702 0.060364 -0.215884
v 0.116633 0.062731 -0.259070
v 0.109721 0.048138 -0.269083
v 0.108485 0.037596 -0.273540
v 0.123740 0.059440 -0.252226
v 0.122580 0.040856 -0.255084
v 0.129696 0.061690 -0.238093
v 0.134812 0.068973 -0.229035
v 0.138611 0.067890 -0.221460
v 0.140702 0.060364 -0.215884
v -0.018525 0.041756 -0.353332
v -0.033499 0.047720 -0.342617
v 0.018525 0.041756 -0.353332
v 0.033499 0.047720 -0.342617
v -0.099744 -0.039246 -0.104144
v -0.099333 -0.073328 -0.112482
v -0.106539 -0.120286 -0.118693
v -0.112876 -0.154234 -0.115759
v -0.120012 -0.192703 -0.104858
v 0.099744 -0.039246 -0.104144
v 0.099333 -0.073328 -0.112482
v 0.106539 -0.120286 -0.118693
v 0.112876 -0.154234 -0.115759
v 0.120012 -0.192703 -0.104858
v -0.125974 -0.033927 0.029768
v -0.125556 -0.095249 0.002314
v -0.122937 -0.205883 -0.057715
v 0.125974 -0.033927 0.029768
v 0.125556 -0.095249 0.002314
v 0.122937 -0.205883 -0.057715
v -0.138422 -0.099048 -0.063511
v -0.137059 -0.112924 -0.086663
v -0.126973 -0.124204 -0.108450
v 0.138422 -0.099048 -0.063511
v 0.137059 -0.112924 -0.086663
v 0.126973 -0.124204 -0.108450
v -0.124783 -0.121708 -0.109575
v -0.128544 -0.142532 -0.103688
v -0.132810 -0.157694 -0.093293
v -0.137882 -0.159721 -0.082168
v -0.143777 -0.153370 -0.063555
v -0.144847 -0.145867 -0.056828
v -0.143902 -0.133328 -0.053960
v -0.132495 -0.091074 -0.055166
v 0.124783 -0.121708 -0.109575
v 0.128544 -0.142532 -0.103688
v 0.132810 -0.157694 -0.093293
v 0.137882 -0.159721 -0.082168
v 0.143777 -0.153370 -0.063555
v 0.144847 -0.145867 -0.056828
v 0.143902 -0.133328 -0.053960
v 0.132495 -0.091074 -0.055166
v -0.120581 -0.189045 -0.105069
v -0.134059 -0.195849 -0.082394
v -0.131919 -0.199663 -0.066195
v -0.123319 -0.202843 -0.055444
v -0.110532 -0.205736 -0.046824
v -0.099493 -0.206628 -0.043560
v -0.090200 -0.205234 -0.045571
v -0.084587 -0.202218 -0.053637
v -0.081390 -0.199253 -0.067741
v -0.082172 -0.197679 -0.081143
v -0.086883 -0.196080 -0.092690
v -0.105215 -0.191978 -0.105838
v -0.114767 -0.191840 -0.105818
v -0.128015 -0.193522 -0.100970
v 0.120581 -0.189045 -0.105069
v 0.134059 -0.195849 -0.082394
v 0.131919 -0.199663 -0.066195
v 0.123319 -0.202843 -0.055444
v 0.110532 -0.205736 -0.046824
v 0.099493 -0.206628 -0.043560
v 0.090200 -0.205234 -0.045571
v 0.084587 -0.202218 -0.053637
v 0.081390 -0.199253 -0.067741
v 0.082172 -0.197679 -0.081143
v 0.086883 -0.196080 -0.092690
v 0.105215 -0.191978 -0.105838
v 0.114767 -0.191840 -0.105818
v 0.128015 -0.193522 -0.100970
v -0.122906 -0.190643 -0.109739
v -0.127535 -0.196974 -0.112227
v -0.132438 -0.199389 -0.110189
v -0.133904 -0.193260 -0.090285
v 0.122906 -0.190643 -0.109739
v 0.127535 -0.196974 -0.112227
v 0.132438 -0.199389 -0.110189
v 0.133904 -0.193260 -0.090285
v -0.102627 -0.191368 -0.111236
v -0.106741 -0.194420 -0.116611
v -0.114316 -0.194131 -0.118004
v -0.126117 -0.189901 -0.105161
v 0.102627 -0.191368 -0.111236
v 0.106741 -0.194420 -0.116611
v 0.114316 -0.194131 -0.118004
v 0.126117 -0.189901 -0.105161
v -0.135342 -0.192349 -0.091461
v -0.140471 -0.199147 -0.088455
v -0.144166 -0.201761 -0.082760
v -0.131519 -0.198303 -0.069459
v 0.135342 -0.192349 -0.091461
v 0.140471 -0.199147 -0.088455
v 0.144166 -0.201761 -0.082760
v 0.131519 -0.198303 -0.069459
v -0.133686 -0.197046 -0.111835
v -0.133285 -0.188754 -0.106069
v -0.126673 -0.193613 -0.097697
v 0.133686 -0.197046 -0.111835
v 0.133285 -0.188754 -0.106069
v 0.126673 -0.193613 -0.097697
v -0.115103 -0.191434 -0.119688
v -0.113467 -0.187075 -0.112811
v -0.113236 -0.191818 -0.104612
v 0.115103 -0.191434 -0.119688
v 0.113467 -0.187075 -0.112811
v 0.113236 -0.191818 -0.104612
v -0.136113 -0.194977 -0.080885
v -0.144336 -0.195634 -0.082415
v -0.145217 -0.204504 -0.084897
v 0.136113 -0.194977 -0.080885
v 0.144336 -0.195634 -0.082415
v 0.145217 -0.204504 -0.084897
v -0.070326 -0.069072 -0.108675
v -0.071377 -0.088054 -0.111799
v -0.076489 -0.103190 -0.114740
v 0.070326 -0.069072 -0.108675
v 0.071377 -0.088054 -0.111799
v 0.076489 -0.103190 -0.114740
v -0.120682 -0.061410 -0.076199
v -0.120004 -0.076053 -0.094143
v -0.125256 -0.088102 -0.093918
v -0.128639 -0.091729 -0.089556
v -0.132336 -0.091515 -0.081187
v -0.132538 -0.084015 -0.063161
v -0.130070 -0.078362 -0.062730
v -0.121267 -0.059557 -0.075103
v 0.120682 -0.061410 -0.076199
v 0.120004 -0.076053 -0.094143
v 0.125256 -0.088102 -0.093918
v 0.128639 -0.091729 -0.089556
v 0.132336 -0.091515 -0.081187
v 0.132538 -0.084015 -0.063161
v 0.130070 -0.078362 -0.062730
v 0.121267 -0.059557 -0.075103
v -0.123758 -0.054214 0.160760
v -0.135154 -0.093010 0.134936
v -0.138194 -0.116999 0.124644
v -0.139681 -0.153698 0.119421
v -0.143712 -0.183263 0.125715
v -0.146819 -0.195968 0.133827
v -0.152694 -0.200923 0.149015
v -0.171837 -0.197970 0.220903
v 0.123758 -0.054214 0.160760
v 0.135154 -0.093010 0.134936
v 0.138194 -0.116999 0.124644
v 0.139681 -0.153698 0.119421
v 0.143712 -0.183263 0.125715
v 0.146819 -0.195968 0.133827
v 0.152694 -0.200923 0.149015
v 0.171837 -0.197970 0.220903
v -0.175199 -0.077695 0.184056
v -0.174662 -0.103482 0.158035
v -0.167273 -0.120159 0.129794
v 0.175199 -0.077695 0.184056
v 0.174662 -0.103482 0.158035
v 0.167273 -0.120159 0.129794
v -0.162947 -0.122977 0.129600
v -0.166442 -0.136417 0.131073
v -0.168471 -0.151438 0.137521
v -0.173858 -0.172592 0.161106
v 0.162947 -0.122977 0.129600
v 0.166442 -0.136417 0.131073
v 0.168471 -0.151438 0.137521
v 0.173858 -0.172592 0.161106
v -0.173087 -0.172701 0.161316
v -0.185025 -0.157518 0.180386
v 0.173087 -0.172701 0.161316
v 0.185025 -0.157518 0.180386
v -0.175015 -0.079046 0.182934
v -0.184847 -0.115311 0.182221
v -0.185764 -0.156669 0.188031
v 0.175015 -0.079046 0.182934
v 0.184847 -0.115311 0.182221
v 0.185764 -0.156669 0.188031
v -0.170343 -0.201866 0.204354
v -0.168076 -0.173261 0.230821
v -0.162545 -0.154046 0.241901
v -0.156488 -0.135118 0.248264
v -0.143933 -0.089798 0.248934
v -0.122518 -0.038131 0.238805
v 0.170343 -0.201866 0.204354
v 0.168076 -0.173261 0.230821
v 0.162545 -0.154046 0.241901
v 0.156488 -0.135118 0.248264
v 0.143933 -0.089798 0.248934
v 0.122518 -0.038131 0.238805
v -0.112384 -0.073893 0.011271
v -0.104557 -0.092221 0.042017
v -0.101347 -0.102674 0.070374
v -0.102448 -0.104755 0.101654
v -0.111824 -0.103685 0.124574
v 0.112384 -0.073893 0.011271
v 0.104557 -0.092221 0.042017
v 0.101347 -0.102674 0.070374
v 0.102448 -0.104755 0.101654
v 0.111824 -0.103685 0.124574
v -0.110864 0.060428 0.045699
v -0.115131 0.036911 0.029565
v -0.120561 0.003494 -0.004676
v 0.110864 0.060428 0.045699
v 0.115131 0.036911 0.029565
v 0.120561 0.003494 -0.004676
v -0.124564 0.005401 -0.002561
v -0.133322 -0.006154 0.024860
v -0.138783 -0.022120 0.055247
v -0.139611 -0.034022 0.081104
v -0.138372 -0.041233 0.106001
v 0.124564 0.005401 -0.002561
v 0.133322 -0.006154 0.024860
v 0.138783 -0.022120 0.055247
v 0.139611 -0.034022 0.081104
v 0.138372 -0.041233 0.106001
v -0.110114 0.060656 0.044598
v -0.109889 0.059518 0.096813
v -0.108119 0.053201 0.129990
v 0.110114 0.060656 0.044598
v 0.109889 0.059518 0.096813
v 0.108119 0.053201 0.129990
v -0.112202 0.055889 0.137076
v -0.123022 0.029341 0.144838
v -0.135362 0.000843 0.140887
v -0.139831 -0.020408 0.130203
v -0.134409 -0.044686 0.112430
v 0.112202 0.055889 0.137076
v 0.123022 0.029341 0.144838
v 0.135362 0.000843 0.140887
v 0.139831 -0.020408 0.130203
v 0.134409 -0.044686 0.112430
v -0.118161 -0.051086 0.158491
v -0.129256 -0.047529 0.167106
v -0.137569 -0.043744 0.179470
v -0.139786 -0.041088 0.190945
v -0.137414 -0.038874 0.204077
v -0.124518 -0.038659 0.221833
v -0.091769 -0.046891 0.239153
v 0.118161 -0.051086 0.158491
v 0.129256 -0.047529 0.167106
v 0.137569 -0.043744 0.179470
v 0.139786 -0.041088 0.190945
v 0.137414 -0.038874 0.204077
v 0.124518 -0.038659 0.221833
v 0.091769 -0.046891 0.239153
v -0.024208 -0.021291 -0.094783
v -0.053919 -0.018159 -0.092449
v -0.072321 -0.011403 -0.087738
v -0.088797 0.003776 -0.077135
v -0.098946 0.024014 -0.067543
v -0.101010 0.045183 -0.063339
v -0.095518 0.065267 -0.059350
v -0.082783 0.082583 -0.053526
v -0.061601 0.100457 -0.044796
v 0.024208 -0.021291 -0.094783
v 0.053919 -0.018159 -0.092449
v 0.072321 -0.011403 -0.087738
v 0.088797 0.003776 -0.077135
v 0.098946 0.024014 -0.067543
v 0.101010 0.045183 -0.063339
v 0.095518 0.065267 -0.059350
v 0.082783 0.082583 -0.053526
v 0.061601 0.100457 -0.044796
v -0.057935 -0.079936 -0.054228
v -0.067281 -0.151807 -0.062887
v -0.080802 -0.205488 -0.065622
v 0.057935 -0.079936 -0.054228
v 0.067281 -0.151807 -0.062887
v 0.080802 -0.205488 -0.065622
v -0.075094 -0.173011 -0.080900
v -0.078305 -0.185073 -0.078375
v -0.080290 -0.196223 -0.081931
v 0.075094 -0.173011 -0.080900
v 0.078305 -0.185073 -0.078375
v 0.080290 -0.196223 -0.081931
v -0.118077 -0.039190 0.020664
v -0.095782 -0.047933 0.013860
v -0.079325 -0.053199 0.004938
v -0.066079 -0.056218 -0.006975
v -0.056941 -0.056458 -0.022024
v -0.052076 -0.052294 -0.042013
v -0.052765 -0.044700 -0.061409
v -0.058502 -0.037051 -0.074231
v -0.071806 -0.027003 -0.084601
v -0.086420 -0.019371 -0.087922
v -0.101273 -0.014572 -0.084731
v -0.114605 -0.013259 -0.075120
v -0.126986 -0.015440 -0.057775
v -0.132701 -0.019077 -0.042174
v -0.133766 -0.023428 -0.026475
v -0.130129 -0.029350 -0.006333
v -0.120331 -0.037108 0.019714
v 0.118077 -0.039190 0.020664
v 0.095782 -0.047933 0.013860
v 0.079325 -0.053199 0.004938
v 0.066079 -0.056218 -0.006975
v 0.056941 -0.056458 -0.022024
v 0.052076 -0.052294 -0.042013
v 0.052765 -0.044700 -0.061409
v 0.058502 -0.037051 -0.074231
v 0.071806 -0.027003 -0.084601
v 0.086420 -0.019371 -0.087922
v 0.101273 -0.014572 -0.084731
v 0.114605 -0.013259 -0.075120
v 0.126986 -0.015440 -0.057775
v 0.132701 -0.019077 -0.042174
v 0.133766 -0.023428 -0.026475
v 0.130129 -0.029350 -0.006333
v 0.120331 -0.037108 0.019714
v -0.164049 -0.199040 0.206778
v -0.143627 -0.197188 0.188447
v -0.134490 -0.195889 0.170164
v -0.134607 -0.198370 0.147602
v -0.139014 -0.199068 0.140717
v -0.145762 -0.198721 0.137641
v -0.157918 -0.197840 0.138228
v -0.168308 -0.197705 0.142800
v -0.175339 -0.198415 0.150845
v -0.178968 -0.199368 0.163740
v -0.179069 -0.200094 0.183905
v -0.175247 -0.200067 0.198483
v -0.165298 -0.200058 0.208203
v -0.154950 -0.199341 0.208617
v 0.164049 -0.199040 0.206778
v 0.143627 -0.197188 0.188447
v 0.134490 -0.195889 0.170164
v 0.134607 -0.198370 0.147602
v 0.139014 -0.199068 0.140717
v 0.145762 -0.198721 0.137641
v 0.157918 -0.197840 0.138228
v 0.168308 -0.197705 0.142800
v 0.175339 -0.198415 0.150845
v 0.178968 -0.199368 0.163740
v 0.179069 -0.200094 0.183905
v 0.175247 -0.200067 0.198483
v 0.165298 -0.200058 0.208203
v 0.154950 -0.199341 0.208617
v -0.153662 -0.197752 0.130048
v -0.163076 -0.202161 0.126793
v -0.168536 -0.196261 0.140716
v 0.153662 -0.197752 0.130048
v 0.163076 -0.202161 0.126793
v 0.168536 -0.196261 0.140716
v -0.168855 -0.197230 0.138598
v -0.178308 -0.201937 0.138707
v -0.184272 -0.202536 0.142284
v -0.184476 -0.200833 0.148691
v -0.178262 -0.197002 0.157839
v 0.168855 -0.197230 0.138598
v 0.178308 -0.201937 0.138707
v 0.184272 -0.202536 0.142284
v 0.184476 -0.200833 0.148691
v 0.178262 -0.197002 0.157839
v -0.137805 -0.199214 0.135720
v -0.144603 -0.203538 0.123807
v -0.150722 -0.200514 0.126835
v -0.156668 -0.196294 0.136544
v 0.137805 -0.199214 0.135720
v 0.144603 -0.203538 0.123807
v 0.150722 -0.200514 0.126835
v 0.156668 -0.196294 0.136544
v -0.175346 -0.196406 0.147693
v -0.181860 -0.195482 0.141851
v -0.185256 -0.203085 0.141640
v 0.175346 -0.196406 0.147693
v 0.181860 -0.195482 0.141851
v 0.185256 -0.203085 0.141640
v -0.161872 -0.200921 0.125202
v -0.160823 -0.194581 0.130560
v -0.160110 -0.197955 0.139261
v 0.161872 -0.200921 0.125202
v 0.160823 -0.194581 0.130560
v 0.160110 -0.197955 0.139261
v -0.143796 -0.203185 0.121497
v -0.145107 -0.196768 0.129803
v -0.148349 -0.198384 0.137421
v 0.143796 -0.203185 0.121497
v 0.145107 -0.196768 0.129803
v 0.148349 -0.198384 0.137421
v -0.019240 -0.077858 -0.048562
v -0.012194 -0.120134 0.010743
v -0.011356 -0.138898 0.049682
v -0.012388 -0.147275 0.100785
v -0.014824 -0.144716 0.157879
v -0.016586 -0.132783 0.195744
v -0.022286 -0.110276 0.231099
v -0.035597 -0.087626 0.245873
v -0.070666 -0.037950 0.264588
v 0.019240 -0.077858 -0.048562
v 0.012194 -0.120134 0.010743
v 0.011356 -0.138898 0.049682
v 0.012388 -0.147275 0.100785
v 0.014824 -0.144716 0.157879
v 0.016586 -0.132783 0.195744
v 0.022286 -0.110276 0.231099
v 0.035597 -0.087626 0.245873
v 0.070666 -0.037950 0.264588
v -0.099930 -0.045801 0.234425
v -0.049171 -0.030882 0.289607
v -0.000158 -0.011248 0.330470
v 0.099930 -0.045801 0.234425
v 0.049171 -0.030882 0.289607
v 0.000158 -0.011248 0.330470
v -0.000000 -0.015504 0.338527
v -0.000000 0.046310 0.274669
v -0.000000 0.092638 0.208696
v -0.033259 0.189403 -0.198680
v -0.040815 0.179495 -0.166069
v -0.052103 0.167285 -0.141487
v -0.070195 0.148372 -0.116226
v -0.088476 0.133092 -0.105461
v -0.106754 0.121895 -0.107255
v -0.123392 0.113200 -0.118633
v -0.135517 0.104925 -0.139399
v -0.149039 0.096642 -0.175674
v 0.033259 0.189403 -0.198680
v 0.040815 0.179495 -0.166069
v 0.052103 0.167285 -0.141487
v 0.070195 0.148372 -0.116226
v 0.088476 0.133092 -0.105461
v 0.106754 0.121895 -0.107255
v 0.123392 0.113200 -0.118633
v 0.135517 0.104925 -0.139399
v 0.149039 0.096642 -0.175674
v -0.023896 0.166176 -0.137140
v -0.038453 0.145809 -0.099147
v -0.044040 0.129840 -0.081443
v -0.052874 0.113045 -0.066323
v 0.023896 0.166176 -0.137140
v 0.038453 0.145809 -0.099147
v 0.044040 0.129840 -0.081443
v 0.052874 0.113045 -0.066323
v -0.001272 0.117604 -0.048032
v -0.039533 0.108340 -0.046625
v -0.064759 0.095770 -0.047495
v 0.001272 0.117604 -0.048032
v 0.039533 0.108340 -0.046625
v 0.064759 0.095770 -0.047495
v -0.056472 0.083791 0.154219
v -0.051199 0.085498 0.179770
v -0.037905 0.093187 0.196895
v -0.018637 0.101082 0.201821
v 0.007284 0.107855 0.195801
v 0.056472 0.083791 0.154219
v 0.051199 0.085498 0.179770
v 0.037905 0.093187 0.196895
v 0.018637 0.101082 0.201821
v -0.007284 0.107855 0.195801
v -0.000352 0.104104 -0.004254
v -0.015288 0.102343 -0.014229
v -0.028990 0.100119 -0.018740
v -0.041602 0.097648 -0.017306
v -0.054161 0.095202 -0.010477
v -0.065990 0.092824 0.002481
v -0.072039 0.090922 0.016098
v -0.072253 0.088673 0.032215
v -0.067273 0.086138 0.049369
v 0.000352 0.104104 -0.004254
v 0.015288 0.102343 -0.014229
v 0.028990 0.100119 -0.018740
v 0.041602 0.097648 -0.017306
v 0.054161 0.095202 -0.010477
v 0.065990 0.092824 0.002481
v 0.072039 0.090922 0.016098
v 0.072253 0.088673 0.032215
v 0.067273 0.086138 0.049369
v -0.062495 0.088510 0.050257
v -0.089755 0.082321 0.076003
v -0.095782 0.079620 0.089479
v -0.097779 0.077457 0.105688
v -0.095688 0.077288 0.122654
v -0.088660 0.079664 0.139621
v -0.078750 0.082765 0.151272
v -0.064904 0.086151 0.159836
v 0.062495 0.088510 0.050257
v 0.089755 0.082321 0.076003
v 0.095782 0.079620 0.089479
v 0.097779 0.077457 0.105688
v 0.095688 0.077288 0.122654
v 0.088660 0.079664 0.139621
v 0.078750 0.082765 0.151272
v 0.064904 0.086151 0.159836
v -0.000000 0.103034 -0.005668
v -0.000000 0.129526 -0.021041
v -0.000001 0.152002 -0.029860
v -0.000001 0.174227 -0.033662
v -0.000001 0.195922 -0.032062
v -0.000001 0.215196 -0.026367
v -0.000001 0.237505 -0.014926
v -0.000000 0.316966 0.042822
v -0.000000 0.339277 0.055075
v -0.000000 0.368451 0.060316
v 0.000000 0.407979 0.053360
v 0.000001 0.152002 -0.029860
v 0.000001 0.174227 -0.033662
v 0.000001 0.195922 -0.032062
v 0.000001 0.215196 -0.026367
v 0.000001 0.237505 -0.014926
v -0.046068 0.084234 0.057553
v -0.078646 0.101372 0.042611
v -0.094495 0.115420 0.036852
v -0.103201 0.139453 0.033738
v -0.104307 0.169876 0.032102
v -0.099805 0.198283 0.034891
v -0.090614 0.225370 0.041625
v -0.050205 0.288425 0.064930
v -0.040266 0.314027 0.072362
v -0.034006 0.355977 0.080632
v -0.039654 0.397371 0.082952
v 0.046068 0.084234 0.057553
v 0.078646 0.101372 0.042611
v 0.094495 0.115420 0.036852
v 0.103201 0.139453 0.033738
v 0.104307 0.169876 0.032102
v 0.099805 0.198283 0.034891
v 0.090614 0.225370 0.041625
v 0.050205 0.288425 0.064930
v 0.040266 0.314027 0.072362
v 0.034006 0.355977 0.080632
v 0.039654 0.397371 0.082952
v -0.023412 0.341311 0.045143
v -0.030054 0.320986 0.035057
v -0.041908 0.290200 0.013832
v -0.074972 0.223782 -0.044309
v -0.080708 0.208175 -0.052437
v -0.086733 0.189812 -0.056935
v -0.092225 0.162268 -0.055021
v -0.091271 0.138357 -0.044764
v -0.082340 0.115763 -0.024403
v -0.065816 0.094972 0.005175
v 0.023412 0.341311 0.045143
v 0.030054 0.320986 0.035057
v 0.041908 0.290200 0.013832
v 0.074972 0.223782 -0.044309
v 0.080708 0.208175 -0.052437
v 0.086733 0.189812 -0.056935
v 0.092225 0.162268 -0.055021
v 0.091271 0.138357 -0.044764
v 0.082340 0.115763 -0.024403
v 0.065816 0.094972 0.005175
v -0.048803 0.083276 0.148628
v -0.070352 0.111245 0.158429
v -0.087925 0.142101 0.159905
v -0.098637 0.170595 0.154664
v -0.099478 0.199512 0.147200
v -0.092308 0.222883 0.137199
v -0.076849 0.245439 0.121795
v -0.050285 0.274827 0.103334
v -0.021859 0.310707 0.092314
v -0.004752 0.350853 0.087949
v -0.000000 0.393753 0.088154
v 0.048803 0.083276 0.148628
v 0.070352 0.111245 0.158429
v 0.087925 0.142101 0.159905
v 0.098637 0.170595 0.154664
v 0.099478 0.199512 0.147200
v 0.092308 0.222883 0.137199
v 0.076849 0.245439 0.121795
v 0.050285 0.274827 0.103334
v 0.021859 0.310707 0.092314
v 0.004752 0.350853 0.087949
v -0.034213 0.305773 0.077830
v -0.074409 0.279621 0.087091
v -0.131758 0.246482 0.086094
v -0.149596 0.226855 0.084786
v -0.161952 0.197756 0.084995
v -0.165489 0.165703 0.086355
v -0.156493 0.137738 0.087479
v -0.133625 0.109436 0.089494
v -0.096634 0.080893 0.086970
v 0.034213 0.305773 0.077830
v 0.074409 0.279621 0.087091
v 0.131758 0.246482 0.086094
v 0.149596 0.226855 0.084786
v 0.161952 0.197756 0.084995
v 0.165489 0.165703 0.086355
v 0.156493 0.137738 0.087479
v 0.133625 0.109436 0.089494
v 0.096634 0.080893 0.086970
v -0.000000 0.348375 0.091635
v 0.000000 0.296711 0.103551
v 0.000000 0.269180 0.114655
v 0.000000 0.248789 0.129949
v 0.000000 0.208605 0.172561
v 0.000000 0.180215 0.190459
v 0.000000 0.142771 0.199028
v 0.000000 0.102207 0.195253
v -0.040334 0.090587 0.193316
v -0.060072 0.113679 0.213648
v -0.072778 0.139654 0.228107
v -0.078591 0.164108 0.231268
v -0.078454 0.189883 0.226346
v -0.075856 0.201384 0.220588
v -0.070990 0.212977 0.210222
v -0.038795 0.263325 0.140948
v -0.019315 0.306988 0.104304
v 0.040334 0.090587 0.193316
v 0.060072 0.113679 0.213648
v 0.072778 0.139654 0.228107
v 0.078591 0.164108 0.231268
v 0.078454 0.189883 0.226346
v 0.075856 0.201384 0.220588
v 0.070990 0.212977 0.210222
v 0.038795 0.263325 0.140948
v 0.019315 0.306988 0.104304
v -0.043268 0.303310 0.048169
v -0.081840 0.253174 0.015563
v -0.100965 0.212385 -0.000399
v 0.043268 0.303310 0.048169
v 0.081840 0.253174 0.015563
v 0.100965 0.212385 -0.000399
v -0.024470 0.281432 0.003464
v -0.031404 0.255424 -0.021632
v -0.034143 0.231594 -0.037852
v -0.036187 0.202417 -0.048188
v -0.041073 0.172191 -0.051252
v 0.024470 0.281432 0.003464
v 0.031404 0.255424 -0.021632
v 0.034143 0.231594 -0.037852
v 0.036187 0.202417 -0.048188
v 0.041073 0.172191 -0.051252
v -0.116220 0.236830 0.061463
v -0.130530 0.204379 0.053669
v -0.135160 0.186329 0.050236
v -0.132819 0.169445 0.049286
v -0.123041 0.136125 0.051464
v 0.116220 0.236830 0.061463
v 0.130530 0.204379 0.053669
v 0.135160 0.186329 0.050236
v 0.132819 0.169445 0.049286
v 0.123041 0.136125 0.051464
v -0.077068 0.272697 0.096642
v -0.109128 0.240284 0.102675
v -0.122761 0.203603 0.112054
v 0.077068 0.272697 0.096642
v 0.109128 0.240284 0.102675
v 0.122761 0.203603 0.112054
v -0.091263 0.199739 0.184410
v -0.091428 0.187274 0.192548
v -0.089448 0.168613 0.198105
v -0.080556 0.121359 0.193490
v 0.091263 0.199739 0.184410
v 0.091428 0.187274 0.192548
v 0.089448 0.168613 0.198105
v 0.080556 0.121359 0.193490
v -0.013945 0.276507 0.127642
v -0.029670 0.215869 0.188059
v -0.031258 0.198807 0.198003
v -0.031864 0.168898 0.209176
v 0.013945 0.276507 0.127642
v 0.029670 0.215869 0.188059
v 0.031258 0.198807 0.198003
v 0.031864 0.168898 0.209176
v -0.060376 0.033547 0.240910
v -0.068772 0.011824 0.247908
v -0.075253 -0.018120 0.258362
v 0.060376 0.033547 0.240910
v 0.068772 0.011824 0.247908
v 0.075253 -0.018120 0.258362
v -0.061362 0.032995 0.241735
v -0.024117 0.044196 0.265308
v 0.061362 0.032995 0.241735
v 0.024117 0.044196 0.265308
v -0.021748 0.046114 0.271361
v -0.051866 0.011794 0.270603
v -0.077093 -0.021164 0.263533
v 0.021748 0.046114 0.271361
v 0.051866 0.011794 0.270603
v 0.077093 -0.021164 0.263533
v -0.135164 -0.193427 0.177452
v -0.115284 -0.161471 0.188409
v -0.105390 -0.140039 0.192098
v -0.095817 -0.101982 0.191825
v -0.093249 -0.069754 0.186455
v 0.135164 -0.193427 0.177452
v 0.115284 -0.161471 0.188409
v 0.105390 -0.140039 0.192098
v 0.095817 -0.101982 0.191825
v 0.093249 -0.069754 0.186455
v -0.116902 -0.058912 0.156794
v -0.107086 -0.062261 0.163297
v -0.098920 -0.067153 0.174835
v -0.093008 -0.069629 0.186982
v -0.088127 -0.068198 0.199460
v -0.084910 -0.057488 0.221707
v -0.093828 -0.041886 0.235750
v 0.116902 -0.058912 0.156794
v 0.107086 -0.062261 0.163297
v 0.098920 -0.067153 0.174835
v 0.093008 -0.069629 0.186982
v 0.088127 -0.068198 0.199460
v 0.084910 -0.057488 0.221707
v 0.093828 -0.041886 0.235750
v -0.147803 -0.172885 0.211278
v -0.152274 -0.199914 0.198220
v 0.147803 -0.172885 0.211278
v 0.152274 -0.199914 0.198220
v -0.139924 -0.181058 0.199538
v -0.144576 -0.197294 0.191193
v 0.139924 -0.181058 0.199538
v 0.144576 -0.197294 0.191193
l 1 2 3
l 4 5 6
l 7 8 9 10 11
l 12 13 14 15 16
l 17 18 19 20 21
l 22 23 24 25 26
l 27 28 29
l 30 31 32
l 33 34 35 36 37
l 38 39 40 41 42
l 43 44 45 46 47
l 48 49 50 51 52
l 53 54 55 56 57
l 58 59 60 61 62
l 63 64 65 66 67
l 68 69 70 71 72
l 73 74 75 76 77 78 79 80 81 82
l 83 84 85 86 87 88 89 90 91 92
l 93 94 95
l 96 97 98
l 99 100 101 102 103
l 104 105 106 107 108
l 109 110 111 112 113 114 115 116 117
l 109 118 119 120 121 122 123 124 125
l 126 127 128 129 130 131
l 126 132 133 134 135 136
l 137 138 139
l 140 141 142
l 143 144 145 146 147 148 149 150
l 151 152 153 154 155 156 157 158
l 159 160 161 162 163
l 164 165 166 167 168
l 169 170 171 172 173 174 175 176 177
l 178 179 180 181 182 183 184 185 186
l 187 188
l 189 190
l 191 192 193 194 195
l 196 197 198 199 200
l 201 202 203
l 204 205 206
l 207 208 209
l 210 211 212
l 213 214 215 216 217 218 219 220
l 221 222 223 224 225 226 227 228
l 229 230 231 232 233 234 235 236 237 238 239 240 241 242
l 243 244 245 246 247 248 249 250 251 252 253 254 255 256
l 257 258 259 260
l 261 262 263 264
l 265 266 267 268
l 269 270 271 272
l 273 274 275 276
l 277 278 279 280
l 281 282 283
l 284 285 286
l 287 288 289
l 290 291 292
l 293 294 295
l 296 297 298
l 299 300 301
l 302 303 304
l 305 306 307 308 309 310 311 312
l 313 314 315 316 317 318 319 320
l 321 322 323 324 325 326 327 328
l 329 330 331 332 333 334 335 336
l 337 338 339
l 340 341 342
l 343 344 345 346
l 347 348 349 350
l 351 352
l 353 354
l 355 356 357
l 358 359 360
l 361 362 363 364 365 366
l 367 368 369 370 371 372
l 373 374 375 376 377
l 378 379 380 381 382
l 383 384 385
l 386 387 388
l 389 390 391 392 393
l 394 395 396 397 398
l 399 400 401
l 402 403 404
l 405 406 407 408 409
l 410 411 412 413 414
l 415 416 417 418 419 420 421
l 422 423 424 425 426 427 428
l 429 430 431 432 433 434 435 436 437
l 438 439 440 441 442 443 444 445 446
l 447 448 449
l 450 451 452
l 453 454 455
l 456 457 458
l 459 460 461 462 463 464 465 466 467 468 469 470 471 472 473 474 475
l 476 477 478 479 480 481 482 483 484 485 486 487 488 489 490 491 492
l 493 494 495 496 497 498 499 500 501 502 503 504 505 506
l 507 508 509 510 511 512 513 514 515 516 517 518 519 520
l 521 522 523
l 524 525 526
l 527 528 529 530 531
l 532 533 534 535 536
l 537 538 539 540
l 541 542 543 544
l 545 546 547
l 548 549 550
l 551 552 553
l 554 555 556
l 557 558 559
l 560 561 562
l 563 564 565 566 567 568 569 570 571
l 572 573 574 575 576 577 578 579 580
l 581 582 583
l 584 585 586
l 587 588 589
l 590 591 592 593 594 595 596 597 598
l 599 600 601 602 603 604 605 606 607
l 608 609 610 611
l 612 613 614 615
l 616 617 618
l 619 620 621
l 622 623 624 625 626
l 627 628 629 630 631
l 632 633 634 635 636 637 638 639 640
l 641 642 643 644 645 646 647 648 649
l 650 651 652 653 654 655 656 657
l 658 659 660 661 662 663 664 665
l 666 667 668 669 670 671 672 673 674 675 676
l 666 667 677 678 679 680 681 673 674 675 676
l 682 683 684 685 686 687 688 689 690 691 692
l 693 694 695 696 697 698 699 700 701 702 703
l 704 705 706 707 708 709 710 711 712 713
l 714 715 716 717 718 719 720 721 722 723
l 724 725 726 727 728 729 730 731 732 733 734
l 735 736 737 738 739 740 741 742 743 744 734
l 745 746 747 748 749 750 751 752 753
l 754 755 756 757 758 759 760 761 762
l 763 764 765 766 767 768 769 770
l 771 772 773 774 775 776 777 778 779
l 780 781 782 783 784 785 786 787 788
l 789 790 791
l 792 793 794
l 795 796 797 798 799
l 800 801 802 803 804
l 805 806 807 808 809
l 810 811 812 813 814
l 815 816 817
l 818 819 820
l 821 822 823 824
l 825 826 827 828
l 829 830 831 832
l 833 834 835 836
l 837 838 839
l 840 841 842
l 843 844
l 845 846
l 847 848 849
l 850 851 852
l 853 854 855 856 857
l 858 859 860 861 862
l 863 864 865 866 867 868 869
l 870 871 872 873 874 875 876
l 877 878
l 879 880
l 881 882
l 883 884
