v -0.194472 -0.176371 0.286921
v -0.052744 -0.188477 0.279301
v 0.014863 -0.192151 0.278332
v 0.097042 -0.192208 0.279481
v 0.188737 -0.187276 0.286488
v -0.186636 -0.095829 0.286012
v -0.163056 -0.087299 0.286291
v -0.130868 -0.082632 0.286632
v -0.101381 -0.083651 0.287162
v -0.066798 -0.089949 0.288460
v 0.041091 -0.189988 0.279244
v 0.045192 -0.140499 0.284003
v 0.046771 -0.097021 0.284471
v 0.265774 -0.273006 0.301002
v 0.267413 -0.141946 0.294791
v 0.268165 0.009731 0.296052
v 0.193171 0.006520 0.296547
v 0.182828 0.008389 0.212366
v 0.180314 0.010612 0.103401
v 0.201031 0.019866 -0.220173
v 0.205928 0.024083 -0.279730
v 0.265380 0.007598 0.002372
v 0.266359 0.010282 -0.266000
v 0.253750 -0.270579 -0.293027
v 0.177624 -0.265957 -0.283860
v 0.095954 -0.262284 -0.280528
v -0.252048 -0.261002 -0.286301
v -0.199032 0.047454 -0.264132
v -0.195449 0.042077 -0.217281
v -0.192696 0.027862 -0.015096
v -0.193138 0.020956 0.127982
v -0.197463 0.014878 0.264233
v -0.268005 -0.264072 0.290971
v -0.269389 -0.101782 0.276719
v -0.272151 0.016047 0.271364
v -0.063799 -0.042548 -0.016534
v -0.036791 -0.035234 -0.013129
v -0.002077 -0.033955 -0.014784
v 0.036202 -0.041414 -0.018619
v 0.062700 -0.053938 -0.023536
v 0.055259 -0.091713 0.283430
v 0.050090 -0.078322 0.261398
v 0.045158 -0.071087 0.232730
v 0.044290 -0.071731 0.204262
v 0.046700 -0.078572 0.173577
v 0.051334 -0.072742 0.052684
v 0.052194 -0.058867 0.020918
v 0.057299 -0.046511 -0.019959
v -0.064864 -0.071214 0.048283
v -0.064878 -0.054160 0.022112
v -0.060527 -0.042053 -0.016966
v -0.071611 -0.078416 0.162931
v -0.041700 -0.069557 0.158566
v -0.010188 -0.068495 0.156632
v 0.019638 -0.076485 0.158008
v 0.038862 -0.090818 0.161596
v -0.060716 -0.065650 0.054251
v -0.023254 -0.053764 0.051798
v 0.006707 -0.050922 0.050427
v 0.035265 -0.058522 0.050594
v 0.054054 -0.074462 0.050287
v 0.179767 -0.082811 -0.016439
v 0.180439 -0.028888 -0.020832
v 0.179978 0.017273 -0.028301
v 0.181873 0.102733 -0.055444
v 0.183193 0.149724 -0.076241
v 0.183991 0.191270 -0.099350
v 0.182600 0.234987 -0.129691
v 0.182632 0.265047 -0.155696
v 0.200233 0.221901 -0.219937
v 0.112697 0.245913 -0.229502
v 0.024657 0.253122 -0.231399
v -0.029466 0.251941 -0.231936
v -0.082323 0.246593 -0.233012
v -0.132445 0.237527 -0.234276
v -0.179594 0.224562 -0.234874
v -0.180661 -0.058663 -0.012427
v -0.168204 0.054898 -0.033464
v -0.165686 0.128390 -0.054983
v -0.168071 0.188644 -0.084391
v -0.173473 0.252592 -0.133057
v 0.066717 0.098330 -0.209615
v 0.070950 0.135346 -0.227527
v 0.075102 0.179885 -0.241347
v 0.077565 0.213481 -0.244277
v 0.080124 0.253098 -0.239970
v -0.169375 0.223315 -0.232139
v -0.177369 0.257916 -0.173923
v -0.179320 0.268159 -0.150448
v -0.065122 0.067338 -0.041487
v -0.037904 0.074266 -0.033332
v -0.001386 0.078875 -0.031496
v 0.027165 0.077221 -0.035368
v 0.053378 0.069987 -0.044847
v -0.065342 0.188791 -0.080893
v -0.033642 0.198684 -0.072274
v 0.003773 0.203540 -0.068040
v 0.033018 0.199689 -0.070625
v 0.069291 0.188473 -0.079519
v 0.054196 0.072021 -0.044991
v 0.052750 0.103779 -0.044274
v 0.052093 0.134978 -0.050275
v 0.053501 0.158672 -0.062212
v 0.057785 0.183375 -0.082743
v -0.061906 0.074397 -0.037504
v -0.063009 0.104528 -0.036235
v -0.065967 0.139005 -0.043230
v -0.067425 0.162743 -0.056165
v -0.067399 0.189546 -0.079557
v 0.258750 -0.262141 -0.291897
v 0.271528 -0.007744 -0.276154
v -0.183564 -0.251574 -0.287936
v -0.179895 -0.099783 -0.281596
v -0.196978 0.112304 -0.277433
v -0.188716 0.121771 -0.225849
v -0.193740 0.117369 -0.284220
v -0.067945 -0.092312 0.288311
v -0.041284 -0.086737 0.290549
v -0.012298 -0.085373 0.289945
v 0.011809 -0.089817 0.286941
v 0.040581 -0.100297 0.281796
v 0.188851 -0.266778 0.300418
v 0.190605 -0.135322 0.290198
v 0.188545 -0.010840 0.293835
v 0.273462 0.006776 -0.262893
v 0.233740 0.021725 -0.267577
v 0.195499 0.028703 -0.272599
v -0.247062 -0.265288 -0.277345
v -0.248539 -0.263848 -0.069359
v -0.260805 -0.262212 0.137364
v -0.270701 -0.265364 0.294254
v -0.185121 0.047751 -0.261305
v -0.234013 0.033125 -0.256386
v -0.264792 0.017248 -0.255020
v -0.273583 0.009761 0.272085
v -0.238085 0.016685 0.269475
v -0.190339 0.012966 0.265683
v 0.057433 -0.050122 -0.016802
v 0.061281 -0.042924 -0.009976
v 0.069958 -0.037770 -0.003627
v 0.080121 -0.035434 -0.000040
v 0.093842 -0.035897 0.001305
v 0.146305 -0.049928 -0.000559
v 0.165451 -0.059362 -0.002913
v 0.178743 -0.069704 -0.006687
v -0.066115 -0.083145 0.287001
v -0.073401 -0.069811 0.260406
v -0.079565 -0.064411 0.227500
v -0.079548 -0.066929 0.195018
v -0.071000 -0.074712 0.157355
v -0.171369 -0.069496 0.170099
v -0.148533 -0.064667 0.164230
v -0.117402 -0.063527 0.160870
v -0.093553 -0.066931 0.160637
v -0.074370 -0.075467 0.161243
v 0.044901 -0.084332 0.164423
v 0.073459 -0.073489 0.160361
v 0.098051 -0.070837 0.157812
v 0.135178 -0.076294 0.158659
v 0.168543 -0.086390 0.165517
v 0.058322 -0.064757 0.053622
v 0.089634 -0.057261 0.049967
v 0.115991 -0.056406 0.047765
v 0.145056 -0.063981 0.048036
v 0.171582 -0.076063 0.052361
v 0.186891 0.258841 -0.157106
v 0.146741 0.275116 -0.160200
v 0.100738 0.287973 -0.161042
v 0.050660 0.296031 -0.159272
v -0.005855 0.299623 -0.156104
v -0.052108 0.297720 -0.153240
v -0.102668 0.290245 -0.150881
v -0.141075 0.279390 -0.147975
v -0.182783 0.262743 -0.142847
v -0.058847 0.094718 -0.207418
v -0.052882 0.130310 -0.226610
v -0.048772 0.166986 -0.238663
v -0.046488 0.208171 -0.240724
v -0.045452 0.249910 -0.234631
v -0.164871 0.070581 -0.021876
v -0.137274 0.074937 -0.019947
v -0.110151 0.076810 -0.023523
v -0.088180 0.075050 -0.031501
v -0.057662 0.068276 -0.047518
v 0.056874 0.066329 -0.037877
v 0.084475 0.073949 -0.033522
v 0.121852 0.076267 -0.032165
v 0.154995 0.072801 -0.034831
v 0.185547 0.063420 -0.039814
v 0.061638 0.188503 -0.077081
v 0.091786 0.193980 -0.075900
v 0.131069 0.195415 -0.081476
v 0.159191 0.189899 -0.087854
v 0.186500 0.177141 -0.095185
v -0.063866 0.191028 -0.078212
v -0.069298 0.220551 -0.091053
v -0.070640 0.255803 -0.111952
v -0.068666 0.278789 -0.131748
v -0.063920 0.293393 -0.152787
v 0.202991 0.115429 -0.280297
v -0.034355 0.115777 -0.261799
v -0.120769 0.115385 -0.264786
v -0.190568 0.115788 -0.274812
v -0.267331 -0.267580 0.287820
v -0.150901 -0.267019 0.281143
v 0.071196 -0.273304 0.286800
v 0.165907 -0.271401 0.292994
v 0.262303 -0.263018 0.305433
v 0.049666 -0.100916 0.287376
v 0.082799 -0.090437 0.284643
v 0.114684 -0.087753 0.282867
v 0.154153 -0.093812 0.281091
v 0.190757 -0.106991 0.282266
v 0.269696 0.004756 0.279808
v 0.267285 0.006415 0.110059
v 0.265597 0.002368 -0.016041
v 0.264386 -0.264164 0.289511
v 0.251113 -0.263734 0.027293
v 0.252647 -0.264284 -0.121200
v 0.257757 -0.268193 -0.304757
v -0.263167 0.023913 -0.250464
v -0.262279 0.020489 -0.073032
v -0.269078 0.011699 0.274842
v -0.174780 -0.065084 -0.008541
v -0.154632 -0.047332 -0.002976
v -0.125291 -0.036044 -0.002945
v -0.094520 -0.032219 -0.007706
v -0.058175 -0.038552 -0.016411
v 0.048213 -0.083055 0.160060
v 0.044571 -0.071502 0.142363
v 0.042534 -0.065364 0.113693
v 0.044120 -0.066104 0.080943
v 0.050903 -0.071946 0.048823
v -0.069561 -0.076626 0.159566
v -0.074808 -0.067294 0.126184
v -0.076329 -0.062944 0.096074
v -0.073702 -0.064872 0.072843
v -0.066752 -0.072317 0.046324
v -0.171844 -0.057085 0.064969
v -0.151002 -0.044403 0.063422
v -0.122833 -0.038897 0.060253
v -0.092939 -0.043872 0.056619
v -0.064900 -0.056894 0.056377
v 0.207632 0.018005 -0.164085
v 0.206334 0.078656 -0.194357
v 0.207090 0.130443 -0.211589
v 0.207076 0.183393 -0.220289
v 0.199721 0.235031 -0.219886
v 0.207524 0.106121 -0.206546
v 0.082605 0.093740 -0.199418
v -0.023936 0.090922 -0.200890
v -0.120860 0.102054 -0.207679
v -0.162705 0.112299 -0.212791
v -0.203677 0.126404 -0.220031
v 0.202826 0.221623 -0.227797
v 0.182519 0.265483 -0.163841
v -0.168213 0.184320 -0.078788
v -0.146920 0.194491 -0.075797
v -0.117246 0.199972 -0.074933
v -0.090127 0.198787 -0.075776
v -0.060774 0.190857 -0.076373
v -0.059002 -0.034036 -0.015566
v -0.060865 -0.009062 -0.008901
v -0.063496 0.022903 -0.009463
v -0.062902 0.043508 -0.016791
v -0.058979 0.065397 -0.032342
v 0.189763 -0.265864 -0.285101
v 0.201538 -0.024947 -0.279297
v 0.204640 0.118909 -0.282211
v 0.205657 0.119779 -0.212954
v 0.202982 0.116998 -0.281815
v -0.074680 -0.184232 0.287478
v -0.071933 -0.148292 0.289486
v -0.063522 -0.087829 0.286070
v 0.187538 0.001864 0.300573
v 0.208552 0.006979 0.299987
v 0.232946 0.008383 0.298407
v 0.253918 0.005726 0.296308
v 0.273583 -0.001007 0.294774
v -0.252135 -0.261507 -0.284796
v -0.260134 0.029193 -0.253177
v -0.191322 -0.256442 0.284005
v -0.195850 -0.141476 0.278014
v -0.196771 0.013279 0.273107
v -0.187476 -0.095342 0.277673
v -0.182530 -0.069998 0.187142
v -0.179010 -0.056944 0.123116
v -0.177482 -0.053376 0.069952
v -0.171160 -0.055495 0.000036
v 0.179238 -0.101145 0.274301
v 0.172815 -0.078119 0.198036
v 0.170334 -0.068525 0.130012
v 0.173313 -0.068737 0.058479
v 0.180645 -0.078736 -0.006038
v -0.202362 0.038248 -0.185995
v -0.192385 0.090740 -0.210911
v -0.185456 0.130625 -0.224702
v -0.175270 0.182781 -0.232287
v -0.170445 0.223481 -0.232903
v 0.047434 -0.049109 -0.023081
v 0.046980 -0.029423 -0.014645
v 0.044287 0.001116 -0.015217
v 0.046044 0.026536 -0.024694
v 0.052788 0.060564 -0.043854
v 0.063346 0.194714 -0.080357
v 0.063148 0.232707 -0.093336
v 0.065835 0.265969 -0.109951
v 0.068210 0.285736 -0.127305
v 0.069081 0.298520 -0.149312
l 1 2 3 4 5
l 6 7 8 9 10
l 11 12 13
l 14 15 16
l 17 18 19 20 21
l 22 23
l 24 25 26 27
l 28 29 30 31 32
l 33 34 35
l 36 37 38 39 40
l 41 42 43 44 45
l 46 47 48
l 49 50 51
l 52 53 54 55 56
l 57 58 59 60 61
l 62 63 64 65 66 67 68 69
l 70 71 72 73 74 75 76
l 77 78 79 80 81
l 82 83 84 85 86
l 87 88 89
l 90 91 92 93 94
l 95 96 97 98 99
l 100 101 102 103 104
l 105 106 107 108 109
l 110 111
l 112 113 114
l 115 116
l 117 118 119 120 121
l 122 123 124
l 125 126 127
l 128 129 130 131
l 132 133 134
l 135 136 137
l 138 139 140 141 142 143 144 145
l 146 147 148 149 150
l 151 152 153 154 155
l 156 157 158 159 160
l 161 162 163 164 165
l 166 167 168 169 170 171 172 173 174
l 175 176 177 178 179
l 180 181 182 183 184
l 185 186 187 188 189
l 190 191 192 193 194
l 195 196 197 198 199
l 200 201 202 203
l 204 205 206 207 208
l 209 210 211 212 213
l 214 215 216
l 217 218 219 220
l 221 222 223
l 224 225 226 227 228
l 229 230 231 232 233
l 234 235 236 237 238
l 239 240 241 242 243
l 244 245 246 247 248
l 249 250 251 252 253 254
l 255 256
l 257 258 259 260 261
l 262 263 264 265 266
l 267 268 269
l 270 271
l 272 273 274
l 275 276 277 278 279
l 280 281
l 282 283 284
l 285 286 287 288 289
l 290 291 292 293 294
l 295 296 297 298 299
l 300 301 302 303 304
l 305 306 307 308 309
