v 0.308505 0.244233 0.000000
v 0.302206 0.244233 0.062087
v 0.284081 0.244233 0.119931
v 0.255545 0.244233 0.172377
v 0.217753 0.244233 0.218010
v 0.171991 0.244233 0.255802
v 0.119674 0.244233 0.284210
v 0.061829 0.244233 0.302206
v -0.000000 0.244233 0.308505
v -0.061958 0.244233 0.302206
v -0.119803 0.244233 0.284210
v -0.172120 0.244233 0.255673
v -0.217881 0.244233 0.217881
v -0.255673 0.244233 0.172120
v -0.284210 0.244233 0.119803
v -0.302206 0.244233 0.061958
v -0.308505 0.244233 -0.000000
v -0.302206 0.244233 -0.061958
v -0.284210 0.244233 -0.119803
v -0.255673 0.244233 -0.172120
v -0.217881 0.244233 -0.217881
v -0.172120 0.244233 -0.255673
v -0.119803 0.244233 -0.284210
v -0.061958 0.244233 -0.302206
v -0.000000 0.244233 -0.308505
v 0.061829 0.244233 -0.302206
v 0.119674 0.244233 -0.284210
v 0.171991 0.244233 -0.255802
v 0.217753 0.244233 -0.218010
v 0.255545 0.244233 -0.172377
v 0.284081 0.244233 -0.119931
v 0.302206 0.244233 -0.062087
v 0.154252 -0.167107 0.000000
v 0.146283 -0.167107 0.048847
v 0.133043 -0.167107 0.078026
v 0.114275 -0.167107 0.103478
v 0.090880 -0.167107 0.124559
v 0.063372 -0.167107 0.140498
v 0.032907 -0.167107 0.150653
v 0.000000 -0.167107 0.154252
v -0.033036 -0.167107 0.150653
v -0.063629 -0.167107 0.140498
v -0.091009 -0.167107 0.124430
v -0.114404 -0.167107 0.103221
v -0.133171 -0.167107 0.077769
v -0.146411 -0.167107 0.048589
v -0.154252 -0.167107 0.000000
v -0.150653 -0.167107 -0.033036
v -0.140498 -0.167107 -0.063629
v -0.124430 -0.167107 -0.091009
v -0.103221 -0.167107 -0.114404
v -0.077769 -0.167107 -0.133171
v -0.048718 -0.167107 -0.146411
v 0.000000 -0.167107 -0.154252
v 0.032907 -0.167107 -0.150653
v 0.063372 -0.167107 -0.140498
v 0.090880 -0.167107 -0.124559
v 0.114275 -0.167107 -0.103478
v 0.133043 -0.167107 -0.078026
v 0.146283 -0.167107 -0.048847
v 0.154252 -0.244233 0.000000
v 0.146283 -0.244233 0.048847
v 0.133043 -0.244233 0.078026
v 0.114275 -0.244233 0.103478
v 0.090880 -0.244233 0.124559
v 0.063372 -0.244233 0.140498
v 0.032907 -0.244233 0.150653
v 0.000000 -0.244233 0.154252
v -0.033036 -0.244233 0.150653
v -0.063629 -0.244233 0.140498
v -0.091009 -0.244233 0.124430
v -0.114404 -0.244233 0.103221
v -0.133171 -0.244233 0.077769
v -0.146411 -0.244233 0.048589
v -0.154252 -0.244233 0.000000
v -0.150653 -0.244233 -0.033036
v -0.140498 -0.244233 -0.063629
v -0.124430 -0.244233 -0.091009
v -0.103221 -0.244233 -0.114404
v -0.077769 -0.244233 -0.133171
v -0.048718 -0.244233 -0.146411
v 0.000000 -0.244233 -0.154252
v 0.032907 -0.244233 -0.150653
v 0.063372 -0.244233 -0.140498
v 0.090880 -0.244233 -0.124559
v 0.114275 -0.244233 -0.103478
v 0.133043 -0.244233 -0.078026
v 0.146283 -0.244233 -0.048847
v 0.305677 0.188573 0.000000
v 0.299892 0.147697 0.000000
v 0.287809 0.094608 0.000000
v 0.271227 0.042934 0.000000
v 0.245004 -0.019153 0.000000
v 0.220067 -0.066971 0.000000
v 0.000000 0.188573 0.305677
v 0.000000 0.147697 0.299892
v 0.000000 0.094608 0.287809
v 0.000000 0.042934 0.271227
v 0.000000 -0.019153 0.245004
v 0.000000 -0.066971 0.220067
v -0.305677 0.188573 0.000000
v -0.299892 0.147697 0.000000
v -0.287809 0.094608 0.000000
v -0.271227 0.042934 0.000000
v -0.245004 -0.019153 0.000000
v -0.220067 -0.066971 0.000000
v 0.000000 0.188573 -0.305677
v 0.000000 0.147697 -0.299892
v 0.000000 0.094608 -0.287809
v 0.000000 0.042934 -0.271227
v 0.000000 -0.019153 -0.245004
v 0.000000 -0.066971 -0.220067
v 0.000000 -0.205670 0.154252
v 0.154252 -0.205670 0.000000
v 0.000000 -0.205670 -0.154252
v -0.154252 -0.205670 0.000000
l 1 2 3 4 5 6 7 8 9
l 9 10 11 12 13 14 15 16 17
l 17 18 19 20 21 22 23 24 25
l 25 26 27 28 29 30 31 32 1
l 33 34 35 36 37 38 39 40
l 40 41 42 43 44 45 46 47
l 47 48 49 50 51 52 53 54
l 54 55 56 57 58 59 60 33
l 61 62 63 64 65 66 67 68
l 68 69 70 71 72 73 74 75
l 75 76 77 78 79 80 81 82
l 82 83 84 85 86 87 88 61
l 1 89 90 91 92 93 94 33
l 9 95 96 97 98 99 100 40
l 17 101 102 103 104 105 106 47
l 25 107 108 109 110 111 112 54
l 75 116 47
l 82 115 54
l 61 114 33
l 68 113 40
