v 0.000015 0.235817 -0.153761
v -0.000066 -0.183437 -0.151222
v 0.000248 -0.384948 -0.147248
v 0.000414 -0.388570 -0.063811
v 0.000511 -0.392558 0.030246
v 0.000402 -0.398768 0.156835
v 0.000424 -0.367493 0.160020
v 0.000451 -0.324190 0.161458
v 0.000461 -0.188642 0.158190
v 0.000421 -0.131246 0.155947
v 0.000402 -0.105410 0.153331
v 0.000368 -0.058516 0.145633
v 0.000321 0.002690 0.129495
v 0.000238 0.110822 0.091066
v 0.000210 0.148146 0.079508
v 0.000182 0.188617 0.069974
v 0.000153 0.233736 0.063302
v 0.000146 0.299714 0.059136
v 0.000148 0.327937 0.054958
v 0.000139 0.353557 0.046209
v 0.000120 0.370246 0.035314
v 0.000101 0.380911 0.023038
v 0.000087 0.390981 0.003378
v 0.000091 0.397663 -0.018063
v 0.000133 0.401560 -0.041601
v 0.000193 0.402138 -0.067565
v 0.000215 0.399630 -0.093072
v 0.000212 0.394189 -0.114871
v 0.000199 0.385978 -0.129715
v 0.000185 0.375931 -0.138031
v 0.000169 0.363592 -0.144307
v 0.000130 0.333799 -0.151826
v 0.000087 0.300187 -0.154454
v -0.073735 0.400571 -0.041905
v -0.133237 0.395724 -0.042313
v -0.165401 0.388927 -0.042671
v -0.179340 0.384137 -0.042882
v -0.203112 0.371243 -0.043377
v -0.213016 0.362924 -0.043665
v -0.221647 0.353215 -0.043984
v -0.229041 0.342008 -0.044335
v -0.240260 0.314675 -0.045141
v -0.246961 0.280070 -0.046101
v -0.249432 0.237338 -0.047231
v -0.248399 0.087514 -0.051131
v -0.241247 -0.187783 -0.057760
v -0.236990 -0.392461 -0.062557
v -0.066415 0.384724 -0.129759
v -0.120145 0.379325 -0.129876
v -0.149234 0.372400 -0.130013
v -0.161854 0.367712 -0.130105
v -0.183405 0.355501 -0.130341
v -0.200249 0.338999 -0.130658
v -0.212643 0.317593 -0.131067
v -0.220840 0.290672 -0.131580
v -0.223445 0.274952 -0.131880
v -0.225825 0.238609 -0.132572
v -0.226948 0.030637 -0.136480
v -0.224951 -0.186463 -0.140715
v -0.219912 -0.389706 -0.145679
v -0.030082 -0.188670 0.156646
v -0.056823 -0.188707 0.152315
v -0.079627 -0.188743 0.145874
v -0.103674 -0.188773 0.135177
v -0.123064 -0.188754 0.120675
v -0.141480 -0.188576 0.095313
v -0.162383 -0.188493 0.074602
v -0.182296 -0.188525 0.062008
v -0.224783 -0.188783 0.044410
v -0.231771 -0.188805 0.038644
v -0.236856 -0.188780 0.030484
v -0.240785 -0.188680 0.015524
v -0.242538 -0.188525 -0.002964
v -0.235471 -0.187028 -0.105066
v -0.230663 -0.186762 -0.125379
v -0.220780 -0.186288 -0.146234
v -0.206185 -0.185913 -0.154415
v -0.184831 -0.185515 -0.159289
v -0.158608 -0.185111 -0.161458
v -0.099117 -0.184349 -0.160089
v -0.083103 0.236852 -0.150493
v -0.161775 0.237898 -0.145063
v -0.210143 0.238493 -0.138656
v -0.223135 0.238611 -0.134726
v -0.234340 0.238422 -0.115493
v -0.242267 0.238156 -0.093207
v -0.247247 0.237833 -0.071217
v -0.248962 0.236713 -0.018491
v -0.246701 0.236292 0.004603
v -0.242820 0.236013 0.021356
v -0.236435 0.235817 0.034220
v -0.233209 0.235766 0.037459
v -0.224341 0.235667 0.041824
v -0.206205 0.235527 0.043991
v -0.176349 0.235354 0.041226
v -0.116353 0.235041 0.030717
v -0.089000 0.234828 0.030635
v -0.076438 0.234671 0.033088
v -0.066497 0.234506 0.036804
v -0.031710 0.233855 0.058010
v -0.014925 0.233751 0.062363
v -0.232170 -0.391316 -0.098530
v -0.238026 -0.394030 -0.008723
v -0.235472 -0.394566 0.010119
v -0.229986 -0.395089 0.028962
v -0.224785 -0.395366 0.038807
v -0.213849 -0.395710 0.050213
v -0.177803 -0.396446 0.073785
v -0.159744 -0.396853 0.088452
v -0.141261 -0.397386 0.109379
v -0.126726 -0.397918 0.131330
v -0.115473 -0.398142 0.139827
v -0.099015 -0.398336 0.146317
v -0.071245 -0.398544 0.152244
v -0.039671 -0.398688 0.155552
v -0.148152 0.369919 0.035515
v -0.178294 0.366722 0.035544
v -0.200693 0.360093 0.035528
v -0.209345 0.355137 0.035499
v -0.216490 0.348899 0.035452
v -0.222268 0.341236 0.035386
v -0.230296 0.321071 0.035188
v -0.234571 0.293508 0.034890
v -0.240302 -0.280954 0.029772
v -0.240445 -0.335802 0.029373
v -0.236677 -0.378968 0.029068
v -0.232652 -0.391710 0.028982
v -0.225421 -0.397433 0.028959
v -0.209730 -0.400611 0.029009
v -0.159288 -0.402124 0.029277
v -0.097124 -0.399477 0.029660
v 0.236935 -0.392482 -0.062547
v 0.241210 -0.187804 -0.057749
v 0.248386 0.087491 -0.051120
v 0.249432 0.237316 -0.047220
v 0.246972 0.280048 -0.046090
v 0.240293 0.314653 -0.045131
v 0.229104 0.341987 -0.044324
v 0.221729 0.353197 -0.043974
v 0.213116 0.362905 -0.043656
v 0.203231 0.371227 -0.043368
v 0.179499 0.384124 -0.042874
v 0.165578 0.388910 -0.042663
v 0.133449 0.395712 -0.042307
v 0.073987 0.400563 -0.041902
v 0.066791 0.384718 -0.129756
v 0.120462 0.379312 -0.129870
v 0.149498 0.372389 -0.130007
v 0.162089 0.367696 -0.130097
v 0.183582 0.355484 -0.130333
v 0.200370 0.338980 -0.130648
v 0.212713 0.317573 -0.131057
v 0.220871 0.290651 -0.131570
v 0.223463 0.274932 -0.131870
v 0.225829 0.238589 -0.132563
v 0.226934 0.030617 -0.136470
v 0.224918 -0.186483 -0.140706
v 0.219861 -0.389725 -0.145669
v 0.030945 -0.188673 0.156647
v 0.057536 -0.188712 0.152317
v 0.080137 -0.188750 0.145878
v 0.103901 -0.188783 0.135182
v 0.123046 -0.188764 0.120681
v 0.141437 -0.188588 0.095319
v 0.162340 -0.188507 0.074610
v 0.182254 -0.188541 0.062017
v 0.224741 -0.188803 0.044420
v 0.231730 -0.188826 0.038654
v 0.236815 -0.188801 0.030495
v 0.240745 -0.188702 0.015535
v 0.242499 -0.188547 -0.002953
v 0.235436 -0.187049 -0.105056
v 0.230629 -0.186782 -0.125369
v 0.220746 -0.186308 -0.146225
v 0.206146 -0.185931 -0.154406
v 0.184783 -0.185532 -0.159281
v 0.158547 -0.185126 -0.161451
v 0.099027 -0.184358 -0.160085
v 0.015222 0.233750 0.062363
v 0.031967 0.233853 0.058012
v 0.066561 0.234500 0.036806
v 0.076467 0.234665 0.033092
v 0.089005 0.234820 0.030638
v 0.116350 0.235031 0.030722
v 0.176345 0.235338 0.041233
v 0.206201 0.235509 0.044000
v 0.224338 0.235648 0.041833
v 0.233205 0.235745 0.037469
v 0.236432 0.235796 0.034230
v 0.242817 0.235992 0.021366
v 0.246699 0.236270 0.004614
v 0.248961 0.236691 -0.018480
v 0.247248 0.237811 -0.071206
v 0.242270 0.238135 -0.093197
v 0.234343 0.238401 -0.115482
v 0.223139 0.238591 -0.134716
v 0.210148 0.238474 -0.138647
v 0.161787 0.237883 -0.145056
v 0.083124 0.236845 -0.150490
v 0.232116 -0.391337 -0.098520
v 0.237969 -0.394051 -0.008713
v 0.235414 -0.394587 0.010129
v 0.229927 -0.395109 0.028972
v 0.224726 -0.395385 0.038816
v 0.213789 -0.395729 0.050222
v 0.177742 -0.396462 0.073793
v 0.159682 -0.396867 0.088459
v 0.141198 -0.397399 0.109385
v 0.126668 -0.397929 0.131335
v 0.115499 -0.398152 0.139832
v 0.099196 -0.398345 0.146321
v 0.071679 -0.398551 0.152247
v 0.040338 -0.398692 0.155554
v 0.148342 0.369905 0.035521
v 0.178452 0.366707 0.035551
v 0.200816 0.360074 0.035537
v 0.209451 0.355119 0.035508
v 0.216577 0.348879 0.035462
v 0.222338 0.341215 0.035396
v 0.230336 0.321050 0.035198
v 0.234586 0.293487 0.034900
v 0.240253 -0.280975 0.029783
v 0.240391 -0.335823 0.029383
v 0.236619 -0.378989 0.029078
v 0.232593 -0.391730 0.028993
v 0.225370 -0.397453 0.028968
v 0.209736 -0.400629 0.029017
v 0.159533 -0.402138 0.029284
v 0.097685 -0.399486 0.029664
v -0.109832 -0.387327 -0.146464
v 0.236623 0.023498 0.032362
v -0.000026 0.026190 -0.152492
v 0.000091 -0.284193 -0.149235
v -0.239118 -0.290122 -0.060159
v -0.236645 0.023518 0.032352
v 0.000462 -0.390564 -0.016783
v -0.222431 -0.288084 -0.143197
v -0.118288 -0.390515 -0.063184
v 0.000331 -0.386759 -0.105530
v 0.222389 -0.288104 -0.143187
v 0.000456 -0.395663 0.093540
v 0.110055 -0.387337 -0.146459
v 0.239073 -0.290143 -0.060148
v 0.118675 -0.390526 -0.063179
l 1 232 2
l 2 233 3
l 3 239 4
l 4 236 5
l 5 241 6
l 6 7 8 9
l 9 10 11 12 13 14 15 16 17
l 17 18 19 20 21
l 21 22 23 24 25
l 25 26 27 28 29
l 29 30 31 32 33 1
l 25 34 35 36 37 38 39 40 41 42 43 44
l 44 45 46
l 46 234 47
l 47 238 4
l 29 48 49 50 51 52 53 54 55 56 57
l 57 58 59
l 59 237 60
l 60 230 3
l 9 61 62 63 64 65 66 67 68 69 70 71
l 71 72 73 46
l 46 74 75 59
l 59 76 77 78 79 80 2
l 1 81 82 83 84 57
l 57 85 86 87 44
l 44 88 89 90 91
l 91 92 93 94 95 96 97 98 99 100 101 17
l 60 102 47
l 47 103 104 105
l 105 106 107 108 109 110 111 112 113 114 115 6
l 21 116 117 118 119 120 121 122 123 91
l 91 235 71
l 71 124 125 126 127 105
l 105 128 129 130 131 5
l 4 244 132
l 132 243 133
l 133 134 135
l 135 136 137 138 139 140 141 142 143 144 145 25
l 29 146 147 148 149 150 151 152 153 154 155
l 155 156 157
l 157 240 158
l 158 242 3
l 9 159 160 161 162 163 164 165 166 167 168 169
l 169 170 171 133
l 133 172 173 157
l 157 174 175 176 177 178 2
l 17 179 180 181 182 183 184 185 186 187 188 189
l 189 190 191 192 135
l 135 193 194 195 155
l 155 196 197 198 199 1
l 158 200 132
l 132 201 202 203
l 203 204 205 206 207 208 209 210 211 212 213 6
l 21 214 215 216 217 218 219 220 221 189
l 189 231 169
l 169 222 223 224 225 203
l 203 226 227 228 229 5
