v -0.110212 0.043073 0.000168
v -0.072976 0.068013 0.000164
v -0.040110 0.087586 0.000159
v -0.007742 0.103742 0.000152
v 0.016427 0.112749 0.000144
v 0.059436 0.123833 0.000127
v 0.084787 0.128179 0.000118
v 0.108366 0.130181 0.000109
v 0.130931 0.129921 0.000102
v 0.153239 0.127476 0.000095
v 0.187877 0.119888 0.000086
v 0.226202 0.107834 0.000077
v 0.270773 0.091581 0.000068
v 0.295925 0.083129 0.000063
v 0.328903 0.074645 0.000059
v 0.439145 0.053484 0.000090
v 0.438558 0.036237 0.000091
v 0.435129 -0.014294 0.000067
v 0.426191 -0.096741 0.000085
v 0.275007 -0.107200 0.000159
v 0.035964 -0.121680 0.000242
v -0.153027 -0.129196 0.000283
v -0.302006 -0.130181 0.000303
v -0.372742 -0.128235 0.000308
v -0.439513 -0.124291 0.000308
v -0.436107 -0.090754 0.000307
v -0.430457 -0.056071 0.000305
v -0.422239 -0.019887 0.000304
v -0.411126 0.018155 0.000302
v -0.386612 0.027057 0.000305
v -0.359490 0.034066 0.000309
v -0.330274 0.039359 0.000310
v -0.283643 0.044463 0.000307
v -0.202723 0.046870 0.000275
v 0.270837 0.093619 0.080391
v 0.270844 0.092175 0.100142
v 0.270841 0.089420 0.111369
v 0.270929 0.083215 0.120853
v 0.271132 0.073028 0.130697
v 0.271345 0.061639 0.138518
v 0.271457 0.051825 0.141935
v 0.271321 0.042851 0.197541
v 0.272451 0.002162 0.199703
v 0.273497 -0.034851 0.197107
v 0.274506 -0.069106 0.190265
v 0.275524 -0.101516 0.179691
v 0.275280 -0.106371 0.100579
v -0.435990 -0.124141 0.044976
v -0.430428 -0.123944 0.069151
v -0.425245 -0.123770 0.084103
v -0.415216 -0.123445 0.104702
v -0.407001 -0.123186 0.117166
v -0.392341 -0.122739 0.133876
v -0.380983 -0.122401 0.143643
v -0.357016 -0.121685 0.158371
v -0.328834 -0.120828 0.169714
v -0.297288 -0.119857 0.178070
v -0.263228 -0.118799 0.183837
v -0.227503 -0.117681 0.187412
v -0.172653 -0.115954 0.189534
v -0.053653 -0.112161 0.186322
v 0.098492 -0.107275 0.181182
v 0.302694 -0.100623 0.177756
v 0.315389 -0.100207 0.175372
v 0.338927 -0.099441 0.167817
v 0.349742 -0.099092 0.162665
v 0.369399 -0.098460 0.149662
v 0.386328 -0.097922 0.133123
v 0.400420 -0.097481 0.113125
v 0.406367 -0.097298 0.101853
v 0.415995 -0.097007 0.076811
v 0.422507 -0.096820 0.048503
v 0.424560 -0.096767 0.033148
v -0.109181 0.042795 0.020079
v -0.106326 0.041960 0.037008
v -0.101874 0.040627 0.051339
v -0.096056 0.038850 0.063457
v -0.089101 0.036685 0.073748
v -0.077043 0.032834 0.086598
v -0.045332 0.021999 0.111248
v -0.048564 0.001116 0.173146
v -0.050139 -0.002040 0.179291
v -0.052258 -0.009643 0.186969
v -0.053485 -0.016369 0.191044
v -0.055012 -0.028500 0.195565
v -0.056588 -0.052705 0.198753
v -0.056750 -0.079505 0.196354
v -0.380559 -0.106677 0.143865
v -0.378370 -0.092351 0.144447
v -0.374546 -0.079355 0.145335
v -0.366029 -0.062211 0.147120
v -0.358688 -0.052251 0.148533
v -0.345506 -0.039352 0.150850
v -0.330114 -0.028702 0.153238
v -0.312949 -0.020079 0.155514
v -0.290451 -0.011957 0.158031
v -0.265548 -0.005602 0.160469
v -0.238814 -0.000851 0.162796
v -0.196535 0.003623 0.166004
v -0.125034 0.005357 0.170318
v 0.046461 0.003792 0.166445
v 0.078812 0.006058 0.166184
v 0.118587 0.011003 0.171674
v 0.178931 0.020170 0.185686
v 0.439506 0.034905 0.044230
v 0.438623 0.032239 0.075663
v 0.435104 0.028979 0.100594
v 0.427731 0.024643 0.125223
v 0.419708 0.029842 0.140496
v 0.407175 0.033303 0.160360
v 0.393161 0.036145 0.175316
v 0.378029 0.038420 0.186025
v 0.362142 0.040180 0.193148
v 0.345863 0.041477 0.197344
v 0.329557 0.042364 0.199273
v 0.305839 0.043039 0.199364
v 0.246595 0.041443 0.195661
v 0.217858 0.036802 0.190949
v 0.195428 0.029290 0.187201
v 0.165769 0.010529 0.185280
v 0.146967 -0.007001 0.184774
v 0.135416 -0.022304 0.184670
v 0.120723 -0.046762 0.185658
v 0.110911 -0.056181 0.186740
v 0.103931 -0.060247 0.187428
v 0.083735 -0.067173 0.189091
v 0.052445 -0.072603 0.191135
v 0.006729 -0.076669 0.193557
v 0.432610 0.037149 0.111631
v 0.435572 0.044648 0.095968
v 0.437612 0.049805 0.073099
v 0.438785 0.052718 0.041610
v -0.393633 0.011314 0.080781
v -0.362454 0.016737 0.085878
v -0.313738 0.022932 0.092746
v -0.228111 0.028308 0.101985
v -0.138170 0.027857 0.108238
v -0.014990 0.023530 0.111252
v 0.032413 0.027826 0.114335
v 0.195252 0.047390 0.135673
v 0.241854 0.050962 0.140406
v 0.294347 0.049073 0.140169
v 0.342545 0.038266 0.134641
v 0.376895 0.031403 0.133016
v 0.400398 0.028773 0.134821
v 0.372936 0.065503 0.111618
v 0.339672 0.078406 0.111565
v 0.302034 0.087251 0.111471
v 0.146899 0.098428 0.111236
v 0.101115 0.096984 0.111199
v 0.070934 0.091686 0.111163
v 0.019075 0.111729 0.033470
v 0.022247 0.110505 0.047141
v 0.029071 0.107869 0.064636
v 0.034875 0.105626 0.074668
v 0.045247 0.101617 0.087920
v -0.409988 0.017709 0.017279
v -0.406641 0.016398 0.037116
v -0.401163 0.014255 0.058667
v -0.386097 0.008374 0.098107
v -0.377102 0.004870 0.114324
v -0.366551 0.000762 0.128757
v -0.358603 -0.002331 0.137056
v -0.345237 -0.007529 0.147017
v -0.335322 -0.011384 0.151708
v -0.324569 -0.015563 0.154607
v 0.275294 -0.106373 -0.100466
v 0.275549 -0.101520 -0.179688
v 0.274532 -0.069110 -0.190263
v 0.273524 -0.034856 -0.197106
v 0.272479 0.002158 -0.199703
v 0.271348 0.042847 -0.197542
v 0.271477 0.051822 -0.141936
v 0.271364 0.061636 -0.138519
v 0.271151 0.073025 -0.130698
v 0.270945 0.083212 -0.120855
v 0.270856 0.089417 -0.111372
v 0.270858 0.092172 -0.100136
v 0.270848 0.093618 -0.080355
v -0.435984 -0.124142 -0.044471
v -0.430418 -0.123946 -0.068784
v -0.425233 -0.123772 -0.083841
v -0.415201 -0.123447 -0.104594
v -0.406984 -0.123189 -0.117146
v -0.392322 -0.122741 -0.133945
v -0.380963 -0.122404 -0.143731
v -0.356994 -0.121689 -0.158455
v -0.328811 -0.120832 -0.169794
v -0.297264 -0.119861 -0.178146
v -0.263202 -0.118803 -0.183909
v -0.227477 -0.117685 -0.187479
v -0.172627 -0.115958 -0.189594
v -0.053627 -0.112165 -0.186365
v 0.098517 -0.107279 -0.181204
v 0.302719 -0.100626 -0.177746
v 0.315413 -0.100211 -0.175355
v 0.338950 -0.099445 -0.167783
v 0.349765 -0.099095 -0.162620
v 0.369419 -0.098463 -0.149594
v 0.386347 -0.097925 -0.133032
v 0.400436 -0.097484 -0.113010
v 0.406381 -0.097300 -0.101727
v 0.416005 -0.097009 -0.076666
v 0.422513 -0.096821 -0.048343
v 0.424565 -0.096767 -0.032983
v -0.109179 0.042794 -0.019754
v -0.106320 0.041960 -0.036712
v -0.101866 0.040626 -0.051086
v -0.096047 0.038849 -0.063257
v -0.089091 0.036684 -0.073604
v -0.077030 0.032832 -0.086537
v -0.045317 0.021997 -0.111293
v -0.048540 0.001113 -0.173190
v -0.050114 -0.002044 -0.179335
v -0.052232 -0.009647 -0.187013
v -0.053459 -0.016373 -0.191089
v -0.054984 -0.028504 -0.195610
v -0.056561 -0.052709 -0.198798
v -0.056723 -0.079509 -0.196397
v 0.178957 0.020167 -0.185699
v 0.118610 0.010999 -0.171696
v 0.078835 0.006055 -0.166211
v 0.046484 0.003788 -0.166477
v -0.125011 0.005353 -0.170374
v -0.196511 0.003619 -0.166069
v -0.238792 -0.000854 -0.162867
v -0.265526 -0.005606 -0.160543
v -0.290429 -0.011961 -0.158108
v -0.312928 -0.020082 -0.155595
v -0.330092 -0.028705 -0.153321
v -0.345486 -0.039355 -0.150935
v -0.358667 -0.052254 -0.148620
v -0.366008 -0.062214 -0.147208
v -0.374525 -0.079358 -0.145423
v -0.378350 -0.092354 -0.144535
v -0.380539 -0.106681 -0.143953
v 0.006756 -0.076674 -0.193593
v 0.052472 -0.072607 -0.191164
v 0.083761 -0.067178 -0.189115
v 0.103957 -0.060251 -0.187450
v 0.110938 -0.056186 -0.186762
v 0.120748 -0.046766 -0.185678
v 0.135441 -0.022308 -0.184688
v 0.146993 -0.007005 -0.184790
v 0.165795 0.010525 -0.185295
v 0.195454 0.029286 -0.187212
v 0.217885 0.036798 -0.190957
v 0.246622 0.041439 -0.195665
v 0.305867 0.043035 -0.199360
v 0.329584 0.042360 -0.199266
v 0.345891 0.041473 -0.197334
v 0.362168 0.040176 -0.193136
v 0.378055 0.038416 -0.186012
v 0.393186 0.036141 -0.175300
v 0.407198 0.033300 -0.160342
v 0.419727 0.029840 -0.140476
v 0.427748 0.024641 -0.125202
v 0.435118 0.028977 -0.100556
v 0.438633 0.032238 -0.075584
v 0.439513 0.034904 -0.044093
v 0.438791 0.052717 -0.041455
v 0.437623 0.049803 -0.072998
v 0.435586 0.044646 -0.095922
v 0.432626 0.037146 -0.111609
v 0.400417 0.028771 -0.134804
v 0.376913 0.031400 -0.133003
v 0.342563 0.038263 -0.134632
v 0.294367 0.049070 -0.140167
v 0.241874 0.050960 -0.140411
v 0.195270 0.047387 -0.135684
v 0.032429 0.027824 -0.114369
v -0.014975 0.023527 -0.111293
v -0.138154 0.027855 -0.108296
v -0.228096 0.028305 -0.102055
v -0.313725 0.022930 -0.092828
v -0.362442 0.016735 -0.085966
v -0.393622 0.011312 -0.080873
v 0.070949 0.091683 -0.111192
v 0.101130 0.096981 -0.111225
v 0.146915 0.098425 -0.111255
v 0.302049 0.087248 -0.111469
v 0.339687 0.078403 -0.111557
v 0.372951 0.065501 -0.111606
v 0.019080 0.111729 -0.033216
v 0.022253 0.110504 -0.046923
v 0.029080 0.107867 -0.064484
v 0.034885 0.105624 -0.074565
v 0.045259 0.101615 -0.087884
v -0.409986 0.017709 -0.016783
v -0.406636 0.016397 -0.036861
v -0.401155 0.014254 -0.058651
v -0.386083 0.008372 -0.098199
v -0.377086 0.004867 -0.114414
v -0.366533 0.000759 -0.128846
v -0.358584 -0.002334 -0.137143
v -0.345217 -0.007533 -0.147102
v -0.335301 -0.011388 -0.151792
v -0.324547 -0.015567 -0.154690
v 0.012816 0.056840 -0.111242
v -0.055175 -0.095837 -0.191381
v 0.423738 0.027240 -0.132839
v 0.430171 0.030896 0.118427
v 0.350599 -0.101971 0.000122
v 0.438851 0.044860 0.000091
v -0.046948 0.011558 0.142197
v -0.046929 0.011555 -0.142241
v 0.012801 0.056842 0.111206
v 0.430187 0.030894 -0.118406
v 0.271389 0.047338 0.169738
v -0.055202 -0.095833 0.191338
v 0.423719 0.027243 0.132860
v 0.271412 0.047334 -0.169739
l 1 2 3 4 5
l 5 6 7 8 9 10 11 12 13
l 13 14 15 16
l 16 304 17
l 17 18 19
l 19 303 20
l 20 21 22 23 24 25
l 25 26 27 28 29
l 29 30 31 32 33 34 1
l 13 35 36 37
l 37 38 39 40 41
l 41 309 42
l 42 43 44 45 46
l 46 47 20
l 25 48 49 50 51 52 53 54
l 54 55 56 57 58 59 60 61
l 61 62 46
l 46 63 64 65 66 67 68 69 70 71 72 73 19
l 1 74 75 76 77 78 79 80
l 80 305 81
l 81 82 83 84 85 86 87
l 87 310 61
l 54 88 89 90 91 92 93 94 95
l 95 96 97 98 99 100 81
l 81 101 102 103 104
l 17 105 106 107 108
l 108 311 109
l 109 110 111 112 113 114 115 116 42
l 42 117 118 119 104
l 104 120 121 122 123 124 125 126 127 128 87
l 108 302 129
l 129 130 131 132 16
l 133 134 135 136 137 80
l 80 138 139 140 141 41
l 41 142 143 144 145 109
l 129 146 147 148 37
l 37 149 150 151
l 151 307 80
l 5 152 153 154 155 156 151
l 29 157 158 159 133
l 133 160 161 162 163 164 165 166 95
l 20 167 168
l 168 169 170 171 172
l 172 312 173
l 173 174 175 176 177
l 177 178 179 13
l 25 180 181 182 183 184 185 186
l 186 187 188 189 190 191 192 193
l 193 194 168
l 168 195 196 197 198 199 200 201 202 203 204 205 19
l 1 206 207 208 209 210 211 212
l 212 306 213
l 213 214 215 216 217 218 219
l 219 300 193
l 220 221 222 223 213
l 213 224 225 226 227 228 229
l 229 230 231 232 233 234 235 236 186
l 219 237 238 239 240 241 242 243 244 245 220
l 220 246 247 248 172
l 172 249 250 251 252 253 254 255 256
l 256 301 257
l 257 258 259 260 17
l 16 261 262 263 264
l 264 308 257
l 256 265 266 267 268 173
l 173 269 270 271 272 212
l 212 273 274 275 276 277
l 212 299 278
l 278 279 280 177
l 177 281 282 283 264
l 5 284 285 286 287 288 278
l 29 289 290 291 277
l 277 292 293 294 295 296 297 298 229
