v -0.007007 -0.135334 -0.203555
v 0.034518 -0.135796 -0.140747
v 0.083971 -0.136027 -0.083971
v 0.140747 -0.135796 -0.034518
v 0.203480 -0.135333 0.006819
v -0.089207 -0.135554 -0.232946
v -0.166698 -0.135766 -0.254313
v -0.238624 -0.135931 -0.267173
v -0.290535 -0.136027 -0.269598
v -0.326118 -0.136030 -0.174202
v -0.348481 -0.136030 -0.072976
v -0.313389 -0.136030 0.003987
v -0.275766 -0.136030 0.071040
v -0.231659 -0.136030 0.134001
v -0.185793 -0.136030 0.185793
v -0.134001 -0.136030 0.231659
v -0.071040 -0.136030 0.275766
v -0.003987 -0.136030 0.313389
v 0.072976 -0.136030 0.348481
v 0.174202 -0.136030 0.326118
v 0.269598 -0.136027 0.290535
v 0.267173 -0.135931 0.238624
v 0.254313 -0.135766 0.166698
v 0.232946 -0.135554 0.089207
v -0.006384 -0.116088 -0.206023
v -0.002341 -0.098890 -0.214149
v 0.004180 -0.085109 -0.226281
v 0.012403 -0.075444 -0.241095
v 0.206023 -0.116088 0.006384
v 0.214149 -0.098890 0.002341
v 0.226281 -0.085109 -0.004180
v 0.241095 -0.075444 -0.012403
v 0.054252 -0.074762 -0.182533
v 0.004241 -0.049379 -0.227265
v -0.046610 -0.075556 -0.263339
v -0.113738 -0.075653 -0.283437
v -0.182033 -0.075771 -0.299136
v -0.258044 -0.075984 -0.311971
v 0.227265 -0.049379 -0.004241
v 0.263339 -0.075556 0.046610
v 0.283437 -0.075653 0.113738
v 0.299136 -0.075771 0.182033
v 0.311971 -0.075984 0.258044
v 0.182532 -0.074740 -0.054297
v 0.099352 -0.076076 -0.203205
v 0.137657 -0.078109 -0.216248
v 0.111834 -0.075392 -0.111834
v 0.038720 -0.025273 -0.154900
v 0.019383 0.026852 -0.120545
v -0.002244 0.076079 -0.083383
v -0.028974 0.127183 -0.040422
v -0.025717 0.036194 -0.175069
v -0.057587 0.110102 -0.118489
v -0.092714 -0.040710 -0.256360
v -0.190356 -0.033396 -0.278293
v -0.264670 -0.030261 -0.292010
v -0.272324 0.013214 -0.268483
v -0.283103 -0.075812 -0.255455
v -0.306609 -0.075788 -0.190909
v -0.343733 -0.076506 -0.051554
v 0.175069 0.036194 0.025717
v 0.118489 0.110102 0.057587
v 0.256360 -0.040710 0.092714
v 0.278293 -0.033396 0.190356
v 0.292010 -0.030261 0.264670
v 0.268483 0.013214 0.272324
v 0.255455 -0.075812 0.283103
v 0.190909 -0.075788 0.306609
v 0.051554 -0.076506 0.343733
v 0.203205 -0.076076 -0.099352
v 0.216248 -0.078109 -0.137657
v 0.154900 -0.025273 -0.038720
v 0.120545 0.026852 -0.019383
v 0.083383 0.076079 0.002244
v 0.040422 0.127189 0.028961
v 0.103557 0.126868 0.065991
v 0.206194 0.073391 0.210897
v 0.258351 0.014025 0.231566
v 0.234669 0.063775 0.283339
v 0.196557 0.110337 0.295953
v -0.053139 -0.075818 0.283124
v -0.150748 -0.075554 0.208919
v 0.055948 -0.020061 0.342298
v 0.063618 0.026424 0.339725
v 0.075111 0.067104 0.335800
v 0.092078 0.105556 0.329937
v 0.012158 0.135741 0.117175
v -0.088913 0.131915 0.174398
v 0.159689 0.116441 0.197245
v -0.112624 0.083991 0.187725
v -0.130462 0.032822 0.197760
v -0.142984 -0.020402 0.204813
v -0.051672 0.129010 0.213676
v -0.007413 0.123757 0.254156
v 0.039119 0.116319 0.291641
v -0.136327 0.132593 0.136327
v -0.174398 0.131915 0.088913
v 0.144429 0.110042 0.313651
v 0.002271 0.127325 -0.002271
v 0.074885 0.126540 -0.037337
v -0.208919 -0.075554 0.150748
v -0.187725 0.083991 0.112624
v -0.197760 0.032822 0.130462
v -0.204813 -0.020402 0.142984
v -0.117175 0.135741 -0.012158
v -0.065991 0.126868 -0.103557
v -0.213676 0.129010 0.051672
v -0.254156 0.123757 0.007413
v -0.291641 0.116319 -0.039119
v -0.329937 0.105556 -0.092078
v -0.283124 -0.075818 0.053139
v -0.342298 -0.020061 -0.055948
v -0.339725 0.026424 -0.063618
v -0.335800 0.067104 -0.075111
v 0.163364 -0.075987 -0.203685
v 0.185793 -0.075645 -0.185793
v 0.203685 -0.075987 -0.163364
v 0.116139 -0.021659 -0.186492
v 0.092155 0.031474 -0.152777
v 0.065845 0.080974 -0.115460
v 0.037594 0.126557 -0.074849
v 0.186492 -0.021659 -0.116139
v 0.152777 0.031474 -0.092155
v 0.115460 0.080974 -0.065845
v 0.067598 0.127300 -0.067598
v -0.210897 0.073391 -0.206194
v -0.231566 0.014025 -0.258351
v -0.283339 0.063775 -0.234669
v -0.295953 0.110337 -0.196557
v -0.197245 0.116441 -0.159689
v -0.313651 0.110042 -0.144429
v -0.210961 -0.009686 -0.268322
v 0.268322 -0.009686 0.210961
v -0.251946 0.013619 -0.263418
v -0.179834 -0.075554 0.179834
v -0.253426 0.091864 -0.201376
v -0.134243 0.091747 -0.162342
v 0.295132 -0.054690 0.224200
v 0.162342 0.091747 0.134243
v 0.234180 -0.062411 -0.008322
v 0.201376 0.091864 0.253426
v -0.224200 -0.054690 -0.295132
v 0.111023 0.118485 0.061790
v 0.071990 0.127028 0.047476
v 0.211813 -0.075092 -0.033349
v 0.008322 -0.062411 -0.234180
v 0.057653 0.126864 -0.004189
v -0.047483 0.127026 -0.071990
v -0.061790 0.118485 -0.111023
v 0.004310 0.126870 -0.057636
v -0.221232 0.043708 -0.232273
v 0.033327 -0.075103 -0.211814
v 0.263418 0.013619 0.251946
v 0.232273 0.043708 0.221232
l 1 2 3 4 5
l 1 6 7 8 9 10 11 12 13 14 15 16 17 18 19 20 21 22 23 24 5
l 1 25 26 27 28
l 5 29 30 31 32
l 28 152 33
l 28 146 34
l 28 35 36 37 38
l 32 140 39
l 32 40 41 42 43
l 32 145 44
l 33 45 46
l 33 47 44
l 33 48 49 50 51
l 34 52 53
l 34 54 55
l 38 56 57
l 38 58 59 60
l 38 142 55
l 39 61 62
l 39 63 64
l 43 65 66
l 43 67 68 69
l 43 138 64
l 44 70 71
l 44 72 73 74 75
l 62 143 76
l 62 139 77
l 64 133 78
l 66 79 80
l 66 153 78
l 69 81 82
l 69 83 84 85 86
l 76 87 88
l 76 89 80
l 76 144 75
l 88 90 91 92 82
l 88 93 94 95 86
l 88 96 97
l 80 98 86
l 80 141 77
l 75 99 51
l 75 147 100
l 82 135 101
l 97 102 103 104 101
l 97 105 106
l 97 107 108 109 110
l 77 154 78
l 101 111 60
l 60 112 113 114 110
l 46 115 116 117 71
l 46 118 119 120 121
l 51 148 106
l 51 150 121
l 71 122 123 124 100
l 121 125 100
l 53 149 106
l 53 137 126
l 55 132 127
l 57 128 129
l 57 134 127
l 106 130 129
l 129 131 110
l 129 136 126
l 126 151 127
