v 0.218144 -0.189972 0.255996
v 0.221974 -0.217172 0.244738
v 0.223885 -0.242114 0.228228
v 0.223686 -0.263356 0.207285
v 0.221585 -0.276204 0.187340
v 0.217668 -0.284345 0.165290
v 0.210820 -0.288510 0.136501
v 0.202693 -0.288207 0.107759
v 0.190053 -0.284104 0.067978
v 0.244686 -0.182256 0.245170
v 0.268448 -0.173611 0.229075
v 0.288020 -0.164458 0.208508
v 0.299138 -0.156984 0.188815
v 0.305242 -0.149722 0.166955
v 0.306597 -0.141274 0.138323
v 0.303351 -0.133468 0.109674
v 0.294926 -0.122885 0.069974
v 0.022833 0.294165 -0.024431
v 0.051187 0.297276 -0.032778
v 0.079483 0.294642 -0.042407
v 0.106145 0.286239 -0.052773
v 0.125019 0.274494 -0.061326
v 0.140529 0.258440 -0.069673
v 0.155081 0.234197 -0.079348
v 0.165685 0.207679 -0.088101
v 0.177114 0.168903 -0.099272
v -0.122233 -0.292045 -0.104184
v -0.114869 -0.295005 -0.078320
v -0.109070 -0.292360 -0.052132
v -0.105032 -0.284852 -0.026614
v -0.102842 -0.273364 -0.002363
v -0.102517 -0.255207 0.024359
v -0.104027 -0.236299 0.043479
v -0.107209 -0.214250 0.058210
v -0.110675 -0.194314 0.066100
v 0.213856 -0.274399 0.062522
v 0.235156 -0.260002 0.058789
v 0.253802 -0.241800 0.056711
v 0.269495 -0.220904 0.056245
v 0.282227 -0.198101 0.057252
v 0.291283 -0.173717 0.059857
v 0.295767 -0.148481 0.064081
v 0.090971 0.115657 0.069933
v 0.110759 0.120724 0.062308
v 0.132467 0.127040 0.047823
v 0.150626 0.133687 0.028887
v 0.167409 0.141850 0.002321
v 0.177233 0.148968 -0.021862
v 0.182597 0.156179 -0.047381
v 0.182697 0.162986 -0.073535
v 0.141417 -0.257540 -0.076833
v 0.126164 -0.247106 -0.122973
v 0.111928 -0.236021 -0.162193
v 0.100505 -0.224369 -0.191527
v 0.090715 -0.211412 -0.213785
v 0.082829 -0.197747 -0.229352
v 0.075333 -0.181022 -0.241740
v 0.066867 -0.156854 -0.252189
v 0.059409 -0.130734 -0.257916
v 0.052802 -0.104064 -0.259866
v 0.045589 -0.071365 -0.257756
v 0.034978 -0.011816 -0.245022
v 0.008808 0.164799 -0.192403
v 0.004820 0.198335 -0.179708
v 0.001808 0.230259 -0.163521
v 0.000390 0.254904 -0.146424
v 0.000909 0.275645 -0.124930
v 0.003357 0.287524 -0.104364
v 0.008759 0.295753 -0.076075
v 0.014485 0.297435 -0.052837
v 0.031845 0.286044 0.002201
v 0.039591 0.275301 0.021380
v 0.047606 0.260508 0.037547
v 0.055472 0.242267 0.049832
v 0.062884 0.221760 0.058380
v 0.071315 0.194570 0.064862
v 0.078886 0.166512 0.067995
v 0.101799 0.073197 0.073754
v 0.108130 0.053066 0.079595
v 0.113752 0.038176 0.086817
v 0.121250 0.021434 0.098655
v 0.129028 0.006602 0.112828
v 0.146179 -0.020649 0.148911
v 0.174367 -0.059916 0.214502
v 0.182464 -0.074209 0.231054
v 0.190423 -0.091589 0.244390
v 0.197906 -0.111699 0.253549
v 0.206275 -0.139091 0.259327
v 0.213499 -0.167402 0.259866
v 0.250783 -0.085368 -0.080425
v 0.221916 -0.066980 -0.159984
v 0.207007 -0.060740 -0.189414
v 0.191455 -0.056647 -0.211804
v 0.175941 -0.054699 -0.227531
v 0.157752 -0.054402 -0.240141
v 0.132340 -0.056270 -0.250930
v 0.105492 -0.059937 -0.257034
v 0.078442 -0.064671 -0.259378
v -0.013290 -0.086017 -0.245940
v -0.185932 -0.134578 -0.196109
v -0.218353 -0.144736 -0.183950
v -0.248943 -0.155199 -0.168283
v -0.272242 -0.164189 -0.151598
v -0.291241 -0.173444 -0.130466
v -0.301324 -0.180852 -0.110133
v -0.306381 -0.187920 -0.087806
v -0.306597 -0.195969 -0.058871
v -0.301019 -0.202876 -0.030388
v -0.289855 -0.208190 -0.003844
v -0.276870 -0.211190 0.015344
v -0.260287 -0.212806 0.031672
v -0.240589 -0.212826 0.044196
v -0.218931 -0.211440 0.053017
v -0.190725 -0.208243 0.059876
v -0.162042 -0.203850 0.063411
v -0.067515 -0.187085 0.070534
v -0.046613 -0.184817 0.076652
v -0.030807 -0.184048 0.084068
v -0.012597 -0.184323 0.096109
v 0.003954 -0.185670 0.110449
v 0.035408 -0.190933 0.146804
v 0.081986 -0.201930 0.212745
v 0.098146 -0.203827 0.229450
v 0.117109 -0.204293 0.242996
v 0.138421 -0.203144 0.252417
v 0.166785 -0.199797 0.258576
v 0.195587 -0.194939 0.259525
v 0.208673 0.022131 -0.137738
v 0.216845 -0.025231 -0.150303
v 0.222791 -0.099876 -0.166740
v 0.219806 -0.126953 -0.171071
v 0.213611 -0.148134 -0.173395
v 0.203454 -0.167786 -0.174440
v 0.185903 -0.189194 -0.173897
v 0.164802 -0.207154 -0.171718
v 0.141786 -0.221931 -0.168215
v 0.054304 -0.253769 -0.148676
v -0.162772 -0.297005 -0.094181
v -0.191547 -0.297435 -0.085857
v -0.219823 -0.294077 -0.076300
v -0.246275 -0.284864 -0.065872
v -0.264505 -0.272090 -0.057244
v -0.279239 -0.255178 -0.048817
v -0.292774 -0.230222 -0.039015
v -0.303428 -0.174549 -0.023341
v -0.300867 -0.151706 -0.019131
v -0.293849 -0.129604 -0.016552
v -0.282344 -0.109301 -0.015811
v -0.267394 -0.091276 -0.016636
v -0.245729 -0.071850 -0.019185
v -0.222003 -0.055143 -0.022787
v -0.177502 -0.028621 -0.030065
v -0.141220 -0.004359 -0.035398
v -0.125573 0.010883 -0.036792
v -0.115106 0.024864 -0.037042
v -0.104766 0.044065 -0.036298
v -0.097013 0.064509 -0.034598
v -0.086596 0.111305 -0.028431
v -0.076626 0.191077 -0.015113
v -0.070216 0.213341 -0.012409
v -0.059855 0.234194 -0.011214
v -0.045495 0.252572 -0.011782
v -0.023406 0.271469 -0.014656
v 0.001432 0.286233 -0.019328
v -0.132308 -0.282044 -0.133297
v -0.141146 -0.269437 -0.155680
v -0.150237 -0.252816 -0.175193
v -0.157505 -0.236511 -0.187544
v -0.164493 -0.217818 -0.196077
v -0.172456 -0.192372 -0.201296
v -0.180595 -0.160806 -0.201082
v -0.190805 -0.103381 -0.184909
v -0.193546 -0.078718 -0.171787
v -0.194778 -0.056862 -0.154274
v -0.194633 -0.042623 -0.136957
v -0.193416 -0.032372 -0.117090
v -0.190272 -0.025494 -0.090098
v -0.185407 -0.024340 -0.062523
v -0.168001 -0.035970 -0.004239
v -0.154547 -0.050589 0.024125
v -0.143129 -0.067715 0.044321
v -0.134758 -0.084943 0.057093
v -0.127792 -0.104967 0.066074
v -0.121061 -0.132374 0.071801
v -0.115842 -0.160842 0.072106
v 0.158337 -0.290038 0.076749
v 0.131496 -0.290251 0.085246
v 0.105655 -0.285370 0.094963
v 0.086734 -0.277177 0.103723
v 0.070505 -0.264948 0.113138
v 0.054671 -0.245025 0.124925
v 0.043464 -0.221754 0.135840
v 0.031988 -0.157310 0.153869
v 0.033860 -0.128757 0.157590
v 0.041176 -0.100965 0.159588
v 0.051627 -0.080465 0.160194
v 0.066135 -0.062595 0.160063
v 0.088595 -0.044614 0.158632
v 0.113979 -0.031268 0.155429
v 0.177741 -0.015335 0.138394
v 0.203679 -0.015961 0.127759
v 0.228442 -0.022156 0.116142
v 0.246306 -0.031872 0.106758
v 0.261565 -0.045695 0.097928
v 0.276613 -0.067169 0.088007
v 0.287394 -0.091642 0.079205
v 0.058226 0.106718 0.075417
v 0.030121 0.099964 0.074683
v 0.002425 0.095108 0.068576
v -0.018588 0.093510 0.059346
v -0.037593 0.094393 0.046400
v -0.057657 0.098228 0.026095
v -0.073345 0.103832 0.002536
v -0.093447 0.117371 -0.060842
v -0.093860 0.122745 -0.088338
v -0.088514 0.128871 -0.115152
v -0.079410 0.134482 -0.134806
v -0.066254 0.140683 -0.151857
v -0.045585 0.148713 -0.168988
v -0.021785 0.156425 -0.181702
v 0.034880 0.170611 -0.196972
v 0.066863 0.175947 -0.196765
v 0.093170 0.178895 -0.191304
v 0.112934 0.179956 -0.182660
v 0.130637 0.179749 -0.170286
v 0.149308 0.177894 -0.150810
v 0.164205 0.174586 -0.128481
l 1 2 3 4 5 6 7 8 9
l 1 10 11 12 13 14 15 16 17
l 18 19 20 21 22 23 24 25 26
l 27 28 29 30 31 32 33 34 35
l 9 36 37 38 39 40 41 42 17
l 43 44 45 46 47 48 49 50 26
l 9 51 52 53
l 53 54 55 56 57 58 59 60 61
l 61 62 63
l 63 64 65 66 67 68 69 70 18
l 18 71 72 73 74 75 76 77 43
l 43 78 79 80 81 82 83
l 83 84 85 86 87 88 89 1
l 17 90 91
l 91 92 93 94 95 96 97 98 61
l 61 99 100
l 100 101 102 103 104 105 106 107 108
l 108 109 110 111 112 113 114 115 35
l 35 116 117 118 119 120 121
l 121 122 123 124 125 126 127 1
l 26 128 129 91
l 91 130 131 132 133 134 135 136 53
l 53 137 27
l 27 138 139 140 141 142 143 144 108
l 108 145 146 147 148 149 150 151 152
l 152 153 154 155 156 157 158
l 158 159 160 161 162 163 164 18
l 27 165 166 167 168 169 170 171 100
l 100 172 173 174 175 176 177 178 152
l 152 179 180 181 182 183 184 185 35
l 9 186 187 188 189 190 191 192 121
l 121 193 194 195 196 197 198 199 83
l 83 200 201 202 203 204 205 206 17
l 43 207 208 209 210 211 212 213 158
l 158 214 215 216 217 218 219 220 63
l 63 221 222 223 224 225 226 227 26
