v -0.327142 0.337800 0.023924
v -0.324676 0.341104 0.023855
v -0.316951 0.343288 0.023504
v -0.287602 0.344463 0.022049
v -0.222460 0.340387 0.018712
v -0.159491 0.331286 0.015401
v -0.100122 0.317303 0.012190
v -0.045778 0.298581 0.009151
v 0.008441 0.273036 0.006005
v 0.030613 0.260081 0.004674
v 0.048335 0.247738 0.003573
v 0.066630 0.230922 0.002367
v 0.069463 0.226685 0.002156
v 0.073020 0.215311 0.001788
v 0.074123 0.192590 0.001350
v 0.063714 0.102281 0.000335
v 0.063203 0.087893 0.000116
v 0.064513 0.076711 -0.000138
v 0.069167 0.065412 -0.000557
v 0.080908 0.045107 -0.001473
v 0.124514 -0.019434 -0.004750
v 0.128652 -0.033994 -0.005170
v 0.131649 -0.079568 -0.006004
v 0.129332 -0.157811 -0.007365
v 0.168326 -0.200154 -0.009984
v 0.182148 -0.217165 -0.010942
v 0.192383 -0.233456 -0.011711
v 0.196407 -0.247405 -0.012135
v 0.277029 -0.287511 -0.016855
v 0.298245 -0.301442 -0.018178
v 0.311201 -0.313620 -0.019057
v 0.317978 -0.326319 -0.019641
v 0.317764 -0.336854 -0.019838
v 0.275044 -0.332624 -0.017653
v 0.058674 -0.311628 -0.006441
v 0.047701 -0.308689 -0.005832
v 0.036788 -0.302196 -0.005162
v 0.027076 -0.292534 -0.004496
v 0.021832 -0.284524 -0.004086
v 0.016657 -0.270442 -0.003569
v 0.015493 -0.259843 -0.003318
v 0.016553 -0.248409 -0.003162
v 0.020175 -0.236255 -0.003122
v 0.012148 -0.221989 -0.002483
v -0.006160 -0.201646 -0.001223
v -0.026269 -0.178173 0.000185
v -0.050728 -0.140920 0.002045
v -0.063308 -0.114730 0.003120
v -0.076723 -0.073421 0.004495
v -0.082109 -0.044538 0.005256
v -0.084982 0.000791 0.006169
v -0.083507 0.032342 0.006629
v -0.076341 0.081656 0.007105
v -0.067243 0.115403 0.007219
v -0.041382 0.189005 0.007166
v -0.035689 0.216765 0.007348
v -0.035960 0.233525 0.007643
v -0.040544 0.248660 0.008125
v -0.050348 0.261975 0.008837
v -0.057492 0.267889 0.009292
v -0.088380 0.285719 0.011132
v -0.119204 0.296331 0.012846
v -0.151087 0.302219 0.014535
v -0.235913 0.311579 0.018926
v -0.295217 0.323652 0.022091
v -0.318465 0.331331 0.023382
v -0.324801 0.334786 0.023756
v -0.004660 -0.201944 0.006485
v 0.001534 -0.202942 0.020144
v 0.020443 -0.205467 0.046167
v 0.046956 -0.208080 0.072470
v 0.077461 -0.209637 0.094681
v 0.096551 -0.208973 0.103035
v 0.104378 -0.207323 0.102624
v 0.109095 -0.204809 0.098301
v 0.111860 -0.199601 0.086120
v 0.110343 -0.182231 0.044199
v 0.111921 -0.173241 0.026526
v 0.116041 -0.167445 0.017220
v 0.126451 -0.159724 0.003393
v 0.128669 -0.158366 -0.001614
v 0.061345 -0.291702 0.112575
v 0.079061 -0.261969 0.087346
v 0.085455 -0.248488 0.078666
v 0.087536 -0.241529 0.076128
v 0.086309 -0.233315 0.078923
v 0.072630 -0.197340 0.103189
v 0.059914 -0.172637 0.122927
v 0.046334 -0.147966 0.139219
v 0.038650 -0.133652 0.146156
v 0.030486 -0.117853 0.151620
v 0.017534 -0.091098 0.155960
v 0.009457 -0.073002 0.155855
v -0.000158 -0.048097 0.153825
v -0.011832 -0.007001 0.147450
v -0.016046 0.017093 0.142599
v -0.018033 0.040528 0.137555
v -0.016098 0.077599 0.130002
v -0.007723 0.120370 0.120620
v 0.004055 0.170092 0.105271
v 0.008765 0.202318 0.092579
v 0.007977 0.221566 0.083962
v 0.002824 0.239136 0.075475
v -0.007740 0.255121 0.067334
v -0.024764 0.269617 0.059757
v -0.049296 0.282718 0.052960
v -0.086192 0.296153 0.046379
v -0.119389 0.303612 0.043286
v -0.140636 0.306369 0.042537
v -0.233773 0.314037 0.041939
v -0.262608 0.318429 0.040517
v -0.295069 0.325137 0.037837
v -0.310044 0.329178 0.035798
v -0.321017 0.333396 0.032666
v -0.325825 0.336366 0.028971
v 0.022042 -0.236551 0.008407
v 0.026113 -0.236966 0.019173
v 0.039186 -0.238054 0.038356
v 0.060429 -0.239630 0.057790
v 0.097863 -0.242220 0.080186
v 0.106407 -0.242751 0.078703
v 0.117091 -0.243345 0.068909
v 0.133828 -0.244167 0.043141
v 0.146275 -0.244804 0.029103
v 0.156728 -0.245382 0.023022
v 0.162809 -0.245734 0.021449
v 0.177026 -0.246591 0.022041
v 0.189955 -0.247368 0.022362
v 0.196284 -0.247703 0.017235
v 0.198086 -0.247730 0.008532
v 0.141687 -0.191311 0.024786
v 0.161657 -0.209859 0.023487
v 0.170262 -0.221891 0.022846
v 0.174216 -0.230104 0.022498
v 0.077300 -0.288063 0.111865
v 0.098334 -0.286943 0.110860
v 0.150044 -0.290514 0.108267
v 0.218338 -0.301384 0.104708
v 0.281625 -0.316355 0.101235
v 0.316542 -0.331573 0.099057
v 0.325520 -0.338152 0.098456
v 0.327142 -0.341010 0.098318
v 0.325848 -0.342832 0.098354
v 0.312012 -0.344463 0.099009
v 0.280236 -0.343434 0.100572
v 0.124941 -0.331804 0.108427
v 0.080591 -0.326852 0.110754
v 0.064182 -0.323492 0.111689
v 0.055179 -0.315636 0.112368
v 0.051506 -0.306297 0.112762
v 0.053752 -0.297153 0.112841
v 0.066913 0.227541 0.016271
v 0.066423 0.218610 0.028222
v 0.065359 0.205201 0.038340
v 0.063923 0.188386 0.046745
v 0.062317 0.169234 0.053554
v 0.060025 0.138467 0.061036
v 0.058481 0.108466 0.065597
v 0.058756 0.075902 0.067830
v 0.061349 0.063486 0.066999
v 0.070247 0.043829 0.062348
v 0.083009 0.024362 0.054075
v 0.097227 0.006694 0.042704
v 0.110491 -0.007567 0.028760
v 0.117613 -0.014387 0.018294
v 0.122525 -0.018501 0.007072
v 0.048196 0.243717 0.022841
v 0.046183 0.233245 0.042081
v 0.042732 0.217650 0.060820
v 0.038282 0.198257 0.078582
v 0.030687 0.164949 0.102355
v 0.023303 0.130559 0.121259
v 0.017604 0.099564 0.133691
v 0.015065 0.076443 0.138049
v 0.015704 0.068339 0.137281
v 0.017926 0.060230 0.135238
v 0.026422 0.044178 0.127727
v 0.039148 0.028658 0.116321
v 0.063094 0.007185 0.093664
v 0.088656 -0.011009 0.066757
v 0.111090 -0.024675 0.038309
v 0.121967 -0.030652 0.019825
v 0.125655 -0.032562 0.011029
v 0.063923 0.076203 0.034994
v 0.049677 0.075818 0.098340
v 0.039505 0.075922 0.119126
v 0.026913 0.076164 0.133198
v 0.000136 0.076942 0.136907
v -0.025180 0.077972 0.123017
v -0.038154 0.078616 0.108529
v -0.056935 0.079792 0.076887
v -0.070359 0.080886 0.041078
v 0.278022 -0.289565 0.005029
v 0.278907 -0.294087 0.026895
v 0.281018 -0.330043 0.102605
v 0.059998 -0.313494 0.021118
v 0.062680 -0.321408 0.080900
v -0.045331 0.296747 0.029180
v -0.045912 0.293148 0.042797
v -0.047408 0.287917 0.051301
v -0.051910 0.276596 0.048372
v -0.054270 0.271858 0.039070
v -0.056337 0.268633 0.024634
v -0.288070 0.342827 0.029092
v -0.290302 0.337745 0.035623
v -0.293544 0.330131 0.039210
v -0.295077 0.323630 0.033620
v -0.005436 -0.201686 -0.009040
v -0.000635 -0.202221 -0.023238
v 0.015586 -0.203854 -0.050990
v 0.039344 -0.205553 -0.079783
v 0.067481 -0.206324 -0.104921
v 0.085644 -0.205351 -0.115110
v 0.093476 -0.203704 -0.115427
v 0.098605 -0.201326 -0.111515
v 0.102579 -0.196520 -0.099505
v 0.105279 -0.180550 -0.057090
v 0.108626 -0.172147 -0.039374
v 0.113660 -0.166654 -0.030412
v 0.125395 -0.159373 -0.017737
v 0.128100 -0.158177 -0.013007
v -0.326338 0.336537 0.018724
v -0.321926 0.333698 0.014469
v -0.311327 0.329604 0.010118
v -0.296638 0.325657 0.006462
v -0.264617 0.319096 0.000338
v -0.236075 0.314801 -0.004097
v -0.143474 0.307312 -0.014233
v -0.122412 0.304616 -0.017188
v -0.089702 0.297319 -0.023821
v -0.053668 0.284170 -0.034490
v -0.029958 0.271342 -0.044129
v -0.013798 0.257133 -0.053842
v -0.004125 0.241443 -0.063520
v 0.000126 0.224172 -0.073056
v 0.000020 0.205221 -0.082341
v -0.005986 0.173426 -0.095560
v -0.019318 0.124220 -0.111296
v -0.028657 0.081770 -0.121206
v -0.031398 0.044966 -0.129752
v -0.029962 0.021714 -0.135742
v -0.026293 -0.002200 -0.141785
v -0.015381 -0.043042 -0.150649
v -0.006057 -0.067851 -0.154451
v 0.001939 -0.085920 -0.155960
v 0.015215 -0.112783 -0.153822
v 0.023857 -0.128740 -0.149725
v 0.032171 -0.143263 -0.144067
v 0.047267 -0.168437 -0.130036
v 0.061846 -0.193760 -0.112492
v 0.077818 -0.230496 -0.090916
v 0.079304 -0.238795 -0.088532
v 0.076968 -0.245670 -0.091077
v 0.069718 -0.258867 -0.099519
v 0.049525 -0.287778 -0.123826
v 0.196023 -0.247045 -0.032750
v 0.193366 -0.246734 -0.041128
v 0.186562 -0.246242 -0.045502
v 0.173732 -0.245497 -0.043835
v 0.159647 -0.244684 -0.041799
v 0.153440 -0.244290 -0.042746
v 0.142434 -0.243528 -0.047731
v 0.128651 -0.242447 -0.060430
v 0.109428 -0.240801 -0.084359
v 0.097821 -0.239900 -0.093014
v 0.089173 -0.239335 -0.093620
v 0.054159 -0.237548 -0.067612
v 0.034957 -0.236650 -0.046222
v 0.023861 -0.236219 -0.025879
v 0.020883 -0.236166 -0.014775
v 0.138387 -0.190215 -0.041211
v 0.158356 -0.208763 -0.042524
v 0.166963 -0.220796 -0.043143
v 0.170918 -0.229009 -0.043463
v 0.065478 -0.284138 -0.124590
v 0.086510 -0.283017 -0.125651
v 0.138214 -0.286587 -0.128347
v 0.206504 -0.297454 -0.131978
v 0.269798 -0.312427 -0.135331
v 0.304732 -0.327652 -0.137150
v 0.313714 -0.334232 -0.137666
v 0.315337 -0.337090 -0.137785
v 0.314043 -0.338912 -0.137751
v 0.300208 -0.340544 -0.137078
v 0.268436 -0.339517 -0.135429
v 0.113151 -0.327890 -0.127370
v 0.068799 -0.322936 -0.125097
v 0.052385 -0.319575 -0.124280
v 0.043371 -0.311716 -0.123797
v 0.039693 -0.302374 -0.123514
v 0.041935 -0.293229 -0.123513
v 0.121358 -0.018114 -0.016268
v 0.115359 -0.013639 -0.026778
v 0.107242 -0.006488 -0.036215
v 0.092681 0.008204 -0.048221
v 0.077433 0.026214 -0.057456
v 0.063944 0.045921 -0.063704
v 0.054662 0.065706 -0.066752
v 0.052020 0.078139 -0.066899
v 0.052022 0.110611 -0.063593
v 0.054062 0.140447 -0.058249
v 0.057136 0.170954 -0.050058
v 0.059444 0.189873 -0.042839
v 0.061738 0.206404 -0.034092
v 0.063826 0.219472 -0.023712
v 0.065520 0.228003 -0.011594
v 0.046269 0.244357 -0.015702
v 0.042331 0.234524 -0.034970
v 0.037004 0.219552 -0.053760
v 0.030773 0.200750 -0.071601
v 0.020793 0.168234 -0.095553
v 0.011504 0.134476 -0.114722
v 0.004544 0.103901 -0.127519
v 0.001546 0.080932 -0.132355
v 0.002244 0.072808 -0.131925
v 0.004646 0.064639 -0.130388
v 0.013820 0.048362 -0.124318
v 0.027593 0.032494 -0.114787
v 0.053641 0.010323 -0.095408
v 0.081725 -0.008708 -0.071859
v 0.106859 -0.023270 -0.046309
v 0.119514 -0.029838 -0.029235
v 0.124057 -0.032032 -0.020927
v -0.073777 0.082021 -0.027296
v -0.063992 0.082135 -0.064265
v -0.048461 0.082038 -0.097627
v -0.036997 0.081895 -0.113344
v -0.013194 0.081368 -0.129714
v 0.013818 0.080512 -0.128721
v 0.027750 0.079825 -0.115991
v 0.039943 0.079049 -0.096338
v 0.060429 0.077364 -0.034892
v 0.275833 -0.288838 -0.038762
v 0.274528 -0.292633 -0.060687
v 0.270617 -0.309761 -0.121706
v 0.269034 -0.326064 -0.137086
v 0.053961 -0.318513 -0.093502
v 0.057245 -0.312579 -0.033951
v -0.057871 0.269142 -0.006058
v -0.057249 0.272847 -0.020523
v -0.055821 0.277895 -0.029863
v -0.051616 0.289314 -0.032866
v -0.049272 0.294263 -0.024418
v -0.047332 0.297412 -0.010850
v -0.288772 0.343060 0.015039
v -0.291653 0.338194 0.008601
v -0.295249 0.330697 0.005109
v -0.296227 0.324012 0.010608
v 0.057483 0.239330 0.002970
v 0.236718 -0.267458 -0.014495
v 0.296404 -0.334739 -0.018746
v 0.277640 -0.338029 0.041459
v 0.321806 -0.339843 0.039258
v 0.166859 -0.322126 -0.012047
v 0.271740 -0.336070 -0.076541
v 0.315903 -0.337883 -0.078795
v 0.126583 -0.026714 -0.004960
l 1 2 3 4
l 4 5 6 7 8
l 8 9 10 11
l 11 349 12
l 12 13 14 15 16 17 18
l 18 19 20 21
l 21 357 22
l 22 23 24
l 24 25 26 27 28
l 28 350 29
l 29 30 31 32 33
l 33 351 34
l 34 354 35
l 35 36 37 38 39 40 41 42 43
l 43 44 45
l 45 46 47 48 49 50 51 52 53
l 53 54 55 56 57 58 59 60
l 60 61 62 63 64 65
l 65 66 67 1
l 45 68 69 70 71 72
l 72 73 74 75 76 77 78
l 78 79 80 81 24
l 82 83 84 85
l 85 86 72
l 72 87 88 89 90 91 92 93 94 95 96 97 98
l 98 99 100 101 102 103 104 105 106
l 106 107 108 109 110 111 112
l 112 113 114 115 1
l 43 116 117 118 119 85
l 85 120 121 122 123 124 125 126 127
l 127 128 129 130 28
l 78 131 132 133 134 127
l 82 135 136 137 138 139
l 139 140 141 142 143
l 143 144 145
l 145 146 147 148
l 148 149 150 151 82
l 33 353 143
l 12 152 153 154 155 156 157 158 159
l 159 160 161 162 163 164 165 166 21
l 11 167 168 169 170 171 172 173 174
l 174 175 176 177 178 179 180 181 182 183 22
l 18 184 159
l 159 185 186 187 174
l 174 188 98
l 98 189 190 191 192 53
l 29 193 194 139
l 139 195 145
l 145 352 34
l 35 196 197 148
l 8 198 199 200 106
l 106 201 202 203 60
l 4 204 205 206 112
l 112 207 65
l 45 208 209 210 211 212
l 212 213 214 215 216 217 218
l 218 219 220 221 24
l 1 222 223 224 225
l 225 226 227 228 229 230 231
l 231 232 233 234 235 236 237 238 239
l 239 240 241 242 243 244 245 246 247 248 249 250 212
l 212 251 252
l 252 253 254 255
l 28 256 257 258 259
l 259 260 261 262 263 264 265 266 252
l 252 267 268 269 270 43
l 218 271 272 273 274 259
l 255 275 276 277 278 279
l 279 280 281 282 283
l 283 284 285
l 285 286 287 288
l 288 289 290 291 255
l 283 356 33
l 21 292 293 294 295 296 297 298 299
l 299 300 301 302 303 304 305 306 12
l 11 307 308 309 310 311 312 313 314
l 314 315 316 317 318 319 320 321 322 323 22
l 53 324 325 326 327 239
l 239 328 314
l 314 329 330 331 299
l 299 332 18
l 29 333 334 335 279
l 279 336 285
l 285 355 34
l 288 337 338 35
l 60 339 340 341 231
l 231 342 343 344 8
l 4 345 346 347 225
l 225 348 65
