v 0.061514 -0.292301 -0.089420
v 0.045428 -0.297039 -0.110212
v 0.028608 -0.291893 -0.126361
v 0.030449 -0.243408 -0.134870
v 0.031762 -0.208053 -0.134348
v 0.000824 -0.210437 -0.148996
v -0.031967 -0.209507 -0.156104
v -0.032674 -0.171130 -0.149359
v -0.032025 -0.095200 -0.113858
v -0.033380 -0.054733 -0.099463
v -0.034434 0.001700 -0.105916
v -0.036883 0.093037 -0.140648
v -0.002833 0.093871 -0.137841
v 0.022312 0.092530 -0.132317
v 0.018596 0.055812 -0.125715
v -0.004464 -0.018495 -0.104715
v -0.009385 -0.054370 -0.094728
v 0.016947 -0.053384 -0.072659
v 0.058242 -0.161044 -0.085588
v 0.063702 -0.184978 -0.088181
v 0.065794 -0.220496 -0.091130
v 0.064685 -0.261208 -0.088468
v 0.070508 -0.301167 -0.068437
v 0.076220 -0.299562 -0.040223
v 0.077449 -0.295395 -0.027949
v 0.077015 -0.263696 -0.025936
v 0.075935 -0.208156 -0.028703
v 0.073551 -0.208634 -0.052358
v 0.064455 -0.206592 -0.090951
v 0.048781 -0.208067 -0.116550
v 0.031746 -0.206140 -0.134360
v 0.024442 -0.164307 -0.129329
v -0.001815 -0.089756 -0.104877
v -0.054782 -0.055985 -0.097498
v -0.083575 -0.055877 -0.080660
v -0.089794 -0.033801 -0.082787
v -0.099112 -0.015711 -0.084049
v -0.151740 0.043761 -0.086555
v -0.164759 0.069372 -0.088608
v -0.165631 0.090598 -0.090917
v -0.158017 0.117449 -0.091848
v -0.148693 0.130527 -0.092306
v -0.110364 0.167710 -0.095967
v -0.102409 0.185270 -0.095501
v -0.090457 0.233122 -0.094292
v -0.081954 0.246766 -0.094426
v -0.069895 0.257367 -0.094896
v -0.039516 0.267381 -0.095386
v -0.005525 0.253715 -0.089652
v 0.012181 0.238381 -0.086757
v 0.032283 0.214602 -0.085659
v 0.044470 0.195633 -0.085314
v 0.052335 0.175660 -0.085282
v 0.058893 0.135466 -0.087322
v 0.057864 0.101168 -0.087313
v 0.050557 0.060194 -0.084389
v 0.024317 -0.017691 -0.074660
v 0.032924 -0.057601 -0.031748
v 0.066867 -0.152739 -0.030534
v 0.075824 -0.197927 -0.031186
v 0.074976 -0.203510 -0.011162
v -0.129102 -0.291913 -0.090034
v -0.111767 -0.295362 -0.114467
v -0.085961 -0.293017 -0.134041
v -0.089157 -0.249561 -0.139698
v -0.091065 -0.226037 -0.139393
v -0.092806 -0.208265 -0.135605
v -0.114458 -0.210772 -0.113429
v -0.131228 -0.208771 -0.087421
v -0.130614 -0.185701 -0.087023
v -0.126025 -0.164737 -0.086308
v -0.094834 -0.091680 -0.082847
v -0.106544 -0.057629 -0.029740
v -0.107452 -0.057644 -0.012587
v -0.107399 -0.054061 0.001665
v -0.107886 0.009364 0.002075
v -0.129461 0.101179 -0.001574
v -0.148276 0.101378 -0.020394
v -0.160655 0.101086 -0.035196
v -0.167843 0.100596 -0.051910
v -0.158932 0.071469 -0.047021
v -0.117065 0.005306 -0.044716
v -0.107377 -0.029041 -0.037786
v -0.138842 -0.149193 -0.018554
v -0.144843 -0.177541 -0.017855
v -0.146141 -0.206179 -0.020378
v -0.132518 -0.237726 -0.088248
v -0.135145 -0.294938 -0.074306
v -0.141079 -0.295012 -0.049223
v -0.143616 -0.291774 -0.031415
v -0.144576 -0.294291 -0.017091
v -0.141940 -0.293561 -0.001275
v -0.069829 -0.295723 0.004924
v -0.036870 -0.294349 0.009549
v 0.002374 -0.297977 0.007762
v 0.069991 -0.297983 0.011484
v 0.074931 -0.291931 0.036391
v 0.072617 -0.298434 0.057767
v 0.067122 -0.298157 0.083975
v 0.062804 -0.294410 0.097859
v 0.051671 -0.299347 0.117234
v 0.037433 -0.297151 0.133017
v 0.026148 -0.292039 0.141084
v 0.011938 -0.296158 0.149548
v -0.004864 -0.296632 0.156611
v -0.022884 -0.296274 0.159094
v -0.040604 -0.295468 0.155207
v -0.036713 -0.293085 0.027777
v -0.029806 -0.294583 -0.070367
v -0.030878 -0.295638 -0.115476
v -0.028852 -0.294573 -0.137900
v -0.027594 -0.293672 -0.143146
v -0.028046 -0.283216 -0.148986
v -0.031338 -0.252223 -0.156862
v -0.032754 -0.230848 -0.158295
v -0.063294 -0.211004 -0.148917
v -0.088661 -0.177399 -0.131714
v -0.061614 -0.097882 -0.108894
v -0.071696 -0.017606 -0.106203
v -0.121971 0.050659 -0.119543
v -0.128350 0.072845 -0.124112
v -0.126659 0.095478 -0.126420
v -0.147422 0.097352 -0.112821
v -0.162519 0.099848 -0.093547
v -0.167604 0.099827 -0.073869
v -0.168091 0.108925 -0.050637
v -0.164762 0.126661 -0.048166
v -0.157296 0.143288 -0.048229
v -0.110519 0.209035 -0.059523
v -0.098132 0.232667 -0.056687
v -0.084034 0.272825 -0.050864
v -0.070764 0.293470 -0.051684
v -0.056555 0.304179 -0.055443
v -0.036895 0.310829 -0.060803
v -0.014710 0.307419 -0.053160
v 0.003788 0.297395 -0.045295
v 0.023223 0.274446 -0.037765
v 0.039290 0.239477 -0.034690
v 0.060343 0.178560 -0.033931
v 0.065360 0.125222 -0.036718
v 0.061929 0.089191 -0.041196
v 0.064703 0.089829 0.001803
v 0.042640 0.023501 0.004278
v 0.035548 -0.021076 0.004111
v 0.034097 -0.054771 0.002261
v 0.035769 -0.009435 -0.033685
v 0.054062 0.088866 -0.089185
v 0.039481 0.092465 -0.115191
v 0.025527 0.140414 -0.139958
v 0.021411 0.171266 -0.141240
v 0.014403 0.196057 -0.141777
v 0.003912 0.217198 -0.142678
v -0.008533 0.233337 -0.142759
v -0.022288 0.243546 -0.142452
v -0.039016 0.249264 -0.142596
v -0.037494 0.248651 -0.169900
v -0.019195 0.245658 -0.173599
v -0.003327 0.234928 -0.173085
v 0.006211 0.217148 -0.171799
v 0.005780 0.196977 -0.171391
v -0.004911 0.179826 -0.171670
v -0.028737 0.162982 -0.171078
v -0.088969 0.096457 -0.133596
v -0.116735 0.115819 -0.129320
v -0.086564 0.157346 -0.132104
v -0.082710 0.172855 -0.133838
v -0.080625 0.207976 -0.138139
v -0.074926 0.223964 -0.140342
v -0.060431 0.239492 -0.142202
v -0.038184 0.286915 -0.076999
v -0.037837 0.326457 -0.057111
v -0.039248 0.337935 -0.050486
v -0.028854 0.345309 -0.051037
v -0.018011 0.351325 -0.047696
v 0.000120 0.357672 -0.031056
v 0.010417 0.353774 -0.010551
v 0.013112 0.347265 -0.004046
v 0.015149 0.337363 -0.000585
v 0.030073 0.258316 0.003001
v 0.055975 0.199606 0.006401
v 0.065552 0.158895 0.003774
v 0.069400 0.122575 0.003522
v 0.064352 0.091322 0.038307
v 0.062221 0.077752 0.041235
v 0.035722 -0.008226 0.039388
v 0.033700 -0.031733 0.038756
v 0.032512 -0.059017 0.032882
v 0.023006 -0.057566 0.061394
v 0.011747 -0.055665 0.082428
v 0.019363 -0.079048 0.084678
v 0.051470 -0.142090 0.088773
v 0.062333 -0.208841 0.088221
v 0.051542 -0.208774 0.107996
v 0.031854 -0.207522 0.131804
v 0.000341 -0.209979 0.150029
v -0.031750 -0.209860 0.157814
v -0.063246 -0.209567 0.151168
v -0.094031 -0.208483 0.136387
v -0.090132 -0.172952 0.129284
v -0.068220 -0.100248 0.105656
v -0.060744 -0.058118 0.092670
v -0.087873 -0.059034 0.073611
v -0.106037 -0.058981 0.034885
v -0.105254 -0.027172 0.037865
v -0.110140 -0.004197 0.039905
v -0.156466 0.075023 0.050026
v -0.163169 0.099619 0.052334
v -0.155644 0.100744 0.035065
v -0.118377 0.161369 -0.000474
v -0.088195 0.248579 -0.001337
v -0.083507 0.279376 -0.000757
v -0.081208 0.316750 -0.003599
v -0.077651 0.323655 -0.017436
v -0.068049 0.329378 -0.033159
v -0.055772 0.333870 -0.044236
v -0.042378 0.337395 -0.049932
v -0.035719 0.345384 -0.003985
v -0.033489 0.341161 0.042937
v -0.018276 0.348324 0.043445
v -0.004463 0.353402 0.037054
v 0.076707 -0.230591 0.033407
v 0.071597 -0.175025 0.031297
v 0.043945 -0.093777 0.034424
v 0.034085 -0.054350 0.003413
v 0.006650 -0.296803 -0.136321
v -0.018152 -0.295703 -0.142869
v -0.056643 -0.297423 -0.142607
v -0.060429 0.180648 -0.175233
v -0.068624 0.191862 -0.175729
v -0.072005 0.204241 -0.175911
v -0.070449 0.219116 -0.176023
v -0.062847 0.233219 -0.175919
v -0.051533 0.242921 -0.174539
v 0.033671 -0.231723 0.136301
v 0.029204 -0.180853 0.131686
v 0.023572 -0.158255 0.127853
v 0.018117 -0.130636 0.117299
v -0.002387 -0.088661 0.105351
v -0.010124 -0.056427 0.095443
v 0.019836 -0.019300 0.086618
v 0.034874 0.023260 0.087333
v 0.054063 0.064098 0.087894
v 0.060449 0.091652 0.085117
v 0.071551 0.153210 0.039114
v 0.065386 0.207543 0.041143
v 0.054059 0.243015 0.045365
v 0.029092 0.282999 0.047328
v 0.009679 0.300471 0.051830
v -0.022681 0.307193 0.060384
v -0.025060 0.324022 0.057984
v -0.028108 0.334330 0.053270
v -0.066616 0.328127 0.019048
v -0.076226 0.322678 0.007345
v -0.080908 0.317954 -0.003987
v -0.028731 0.374518 -0.002858
v -0.027439 0.446510 -0.001505
v -0.026942 0.520680 -0.001126
v -0.030302 0.560302 -0.001238
v -0.030842 0.600009 -0.006284
v -0.145444 -0.292889 0.013280
v -0.145626 -0.289324 0.029021
v -0.140909 -0.293748 0.060383
v -0.133006 -0.289173 0.093762
v -0.134773 -0.246065 0.093400
v -0.135527 -0.208381 0.083845
v -0.116804 -0.209220 0.113692
v -0.090635 -0.284882 0.143700
v -0.088231 -0.286421 0.145088
v -0.066117 -0.295721 0.154038
v -0.033866 -0.284726 0.160843
v -0.029833 -0.270534 0.163513
v -0.028832 -0.241616 0.164017
v -0.031831 -0.171505 0.154541
v -0.037259 -0.055107 0.097937
v -0.061111 -0.040351 0.096848
v -0.065116 -0.026165 0.099587
v -0.113062 0.042740 0.110823
v -0.127221 0.076882 0.117585
v -0.128706 0.093697 0.119237
v -0.126062 0.099317 0.119750
v -0.033639 0.096147 0.130823
v -0.039059 0.041834 0.116148
v -0.038917 0.001557 0.101295
v -0.007994 -0.023182 0.103247
v 0.023042 0.061296 0.118334
v 0.027208 0.092835 0.123838
v 0.047013 0.093691 0.108182
v 0.063385 0.113970 0.085678
v 0.057524 0.173802 0.085369
v 0.034511 0.224567 0.085987
v 0.024184 0.238082 0.088251
v 0.008595 0.250961 0.090899
v -0.029343 0.268574 0.096915
v -0.022533 0.290022 0.073132
v -0.038295 0.309621 0.057957
v -0.147442 -0.244360 0.032180
v -0.146125 -0.206398 0.029784
v -0.132575 -0.182798 0.083916
v -0.123934 -0.148514 0.081272
v -0.093035 -0.036551 0.075387
v -0.102531 -0.016188 0.077153
v -0.144095 0.036970 0.081245
v -0.157035 0.060419 0.082384
v -0.162070 0.086603 0.083665
v -0.155991 0.115462 0.085635
v -0.145248 0.131359 0.087002
v -0.114401 0.156391 0.087712
v -0.101083 0.171719 0.089333
v -0.093066 0.188050 0.090511
v -0.081505 0.226070 0.090879
v -0.069411 0.246195 0.092871
v -0.050694 0.261991 0.095013
v -0.027014 0.249864 0.141651
v -0.047225 0.244573 0.164678
v -0.057202 0.239414 0.172933
v -0.065375 0.232005 0.176862
v -0.070259 0.222557 0.176444
v -0.071616 0.210021 0.174035
v -0.068409 0.196547 0.173003
v -0.060377 0.185228 0.173226
v -0.028953 0.167752 0.167971
v -0.032948 0.139390 0.154626
v 0.035147 0.137679 0.131435
v 0.028474 0.185754 0.140324
v 0.019702 0.210690 0.144489
v 0.008910 0.225298 0.146037
v -0.003757 0.238242 0.143921
v -0.015001 0.246094 0.141516
v -0.052041 0.237838 0.144036
v -0.065437 0.225837 0.141854
v -0.071534 0.211395 0.138528
v -0.076072 0.177572 0.134436
v -0.081509 0.161502 0.131884
v -0.093870 0.142961 0.128656
v -0.122088 0.113803 0.124648
v -0.142768 0.101479 0.110200
v -0.153883 0.102150 0.095851
v -0.161683 0.101218 0.076996
v -0.163202 0.100689 0.052435
v -0.162811 0.121015 0.052889
v -0.156254 0.140285 0.052676
v -0.108902 0.202500 0.052913
v -0.086230 0.256918 0.051869
v -0.071117 0.286033 0.053177
v -0.146459 -0.190334 0.031083
v -0.138778 -0.145012 0.034351
v -0.007370 0.180678 0.173306
v 0.004902 0.197724 0.176769
v 0.007100 0.217765 0.178133
v -0.000459 0.240666 0.179106
v 0.074580 -0.207051 0.033142
v 0.065318 -0.235412 0.090317
v 0.063266 -0.271029 0.098120
v -0.103968 -0.290884 0.134720
v -0.115958 -0.293676 0.122784
v -0.126128 -0.293346 0.107667
v 0.076403 -0.299419 -0.008098
l 1 2 3 4 5 6 7 8 9 10 11 12 13 14 15 16 17 18 19 20 21 22 1 23 24 25 26 27 28 29 30 31 32 33 17 10 34 35 36 37 38 39 40 41 42 43 44 45 46 47 48 49 50 51 52 53 54 55 56 57 18 58 59 60 27 61
l 62 63 64 65 66 67 68 69 70 71 72 35 73 74 75 76 77 78 79 80 81 82 83 73 84 85 86 69 87 62 88 89 90 91 92 93 94 95 96 97 98 99 100 101 102 103 104 105 106 107 108 109 110 111 112 113 114 115 7 116 67 117 118 34 119 120 121 122 123 124 125 80 126 127 128 129 130 131 132 133 134 135 136 137 138 139 140 141 142 143 144 145 58 146 141 147 148 14 149 150 151 152 153 154 155 156 157 158 159 160 161 162 12 163 122 164 165 166 167 168 169 155 48 170 134 171 172 173 174 175 176 177 178 179 180 181 182 142 183 184 185 186 187 188 189 190 191 192 193 194 195 196 197 198 199 200 201 202 203 204 205 206 207 208 77 209 210 211 212 213 214 215 216 172 217 218 219 220
l 97 221 222 223 187 224
l 3 225 226 112 227 64
l 162 228 229 230 231 232 233 156
l 103 234 194 235 236 237 238 239 189 240 241 242 243 183 244 245 246 247 248 249 250 251 218 252 253 254
l 217 255 256 257 258 259
l 92 260 261 262 263 264 265 266 198 267 268 269 107 270 271 272 196 273 274 201 275 276 277 278 279 280 281 282 283 274 239 284 285 286 287 243 288 289 290 291 292 293 294 249 295
l 261 296 297 265 298 299 202 300 301 302 303 304 305 306 307 308 309 310 311 312 293 313 314 315 316 317 318 319 320 321 322 281 286 323 324 325 326 327 328 313 329 330 331 332 333 334 335 280 336 337 338 339 340 341 342 343 344
l 90 86 297 345 346 203 75
l 321 347 348 349 350
l 27 351 192 352 353 100
l 267 354 355 356 263
l 25 357 96
