v -0.173387 0.052318 -0.100702
v -0.156237 0.098741 -0.039510
v -0.136123 0.133372 0.016302
v -0.128979 0.144581 0.044036
v -0.126287 0.148862 0.075397
v -0.126405 0.148643 0.131207
v -0.130432 0.144731 0.191440
v -0.133955 0.138157 0.236309
v -0.138151 0.122809 0.297584
v -0.147703 0.095905 0.378586
v -0.151349 0.090395 0.381264
v -0.155809 0.084062 0.379360
v -0.163663 0.074603 0.367599
v -0.171187 0.067898 0.327714
v -0.179900 0.060764 0.208778
v -0.178475 0.044941 -0.118136
v 0.187863 -0.082727 -0.311858
v 0.189151 -0.058278 -0.310760
v 0.173860 -0.058681 -0.359320
v 0.166538 -0.058962 -0.371784
v 0.157486 -0.059031 -0.378646
v 0.130003 -0.059720 -0.389884
v 0.093725 -0.059954 -0.398221
v -0.000001 -0.060784 -0.404679
v -0.158599 -0.015507 -0.353217
v -0.153972 0.010132 -0.340871
v 0.174843 -0.037023 -0.356958
v 0.168077 -0.037519 -0.371026
v 0.160206 -0.037843 -0.377835
v 0.113354 -0.039419 -0.395014
v 0.110267 -0.047873 -0.396825
v 0.113561 -0.050730 -0.396456
v 0.134605 -0.051185 -0.389903
v 0.163454 -0.050651 -0.376855
v 0.175127 -0.048758 -0.356258
v 0.176082 -0.040486 -0.354030
v -0.190690 -0.052012 -0.303833
v -0.176397 -0.053773 -0.361011
v -0.168898 -0.054260 -0.374589
v -0.160404 -0.054617 -0.381419
v -0.133003 -0.055276 -0.393863
v -0.099049 -0.055453 -0.402464
v -0.054261 -0.055972 -0.407850
v 0.000001 -0.056326 -0.409821
v 0.134827 0.142151 0.187234
v 0.158296 0.107172 0.180469
v 0.176569 0.064394 0.171776
v -0.127361 -0.075802 -0.367928
v -0.150279 -0.074827 -0.361230
v -0.154775 -0.062253 -0.360151
v -0.126331 -0.060884 -0.369388
v -0.125025 -0.073831 -0.368890
v 0.194802 -0.017134 -0.165375
v 0.189495 -0.017942 -0.164884
v 0.188247 -0.028087 -0.157897
v 0.190464 -0.023402 -0.293433
v 0.192059 -0.010463 -0.281172
v 0.192783 0.000018 -0.265590
v 0.193393 0.008180 -0.232302
v 0.194313 0.003278 -0.196236
v 0.194809 -0.017205 -0.165240
v -0.156900 -0.059722 -0.376383
v -0.173240 -0.059392 -0.355876
v -0.189056 -0.059283 -0.309859
v 0.076807 -0.011383 -0.377841
v 0.089261 0.007199 -0.365298
v 0.152193 0.008468 -0.344903
v 0.161457 0.008119 -0.336686
v 0.175622 0.005357 -0.312905
v 0.180529 -0.009497 -0.315861
v 0.180513 -0.013065 -0.319523
v 0.171346 -0.014541 -0.338904
v 0.155870 -0.014057 -0.355159
v 0.122809 -0.014181 -0.369206
v 0.084475 -0.014565 -0.377728
v -0.131958 0.140881 0.182700
v -0.155276 0.106059 0.176070
v -0.173549 0.063281 0.167376
v 0.191731 -0.031919 -0.296996
v 0.176954 -0.034136 -0.359016
v 0.170107 -0.034519 -0.372219
v 0.161873 -0.034992 -0.379323
v 0.133264 -0.036196 -0.391489
v 0.099051 -0.037343 -0.399967
v 0.054261 -0.038308 -0.405352
v -0.000001 -0.038715 -0.407323
v -0.186952 -0.024245 -0.292660
v -0.191245 -0.023715 -0.293625
v -0.193438 -0.027579 -0.295349
v -0.191833 -0.031778 -0.296929
v -0.186492 -0.032209 -0.296780
v 0.191264 -0.019749 -0.293939
v 0.192296 -0.005987 -0.279941
v 0.192857 0.004112 -0.263639
v 0.193465 0.011281 -0.227718
v 0.193826 0.009680 -0.208001
v 0.194659 0.003743 -0.189094
v 0.195447 -0.005719 -0.173224
v 0.193729 -0.017838 -0.160008
v 0.194211 -0.020146 -0.163085
v 0.197206 -0.017128 0.043541
v 0.194854 -0.012889 0.246999
v -0.176581 -0.035778 -0.356888
v -0.168982 -0.036266 -0.372651
v -0.162552 -0.036540 -0.378824
v -0.112173 -0.038471 -0.397320
v -0.109310 -0.048380 -0.399088
v -0.111492 -0.051654 -0.399183
v -0.117402 -0.052430 -0.397547
v -0.149082 -0.052106 -0.386780
v -0.165335 -0.051624 -0.377817
v -0.177099 -0.050115 -0.356577
v -0.178156 -0.039751 -0.353841
v 0.190716 -0.023416 -0.293354
v 0.176531 -0.025479 -0.353941
v 0.169628 -0.026013 -0.368632
v 0.161797 -0.026278 -0.376202
v 0.131370 -0.027108 -0.389166
v 0.097220 -0.027438 -0.397780
v -0.000001 -0.028374 -0.405012
v -0.191139 -0.031987 -0.296866
v -0.190572 -0.054426 -0.304075
v -0.188413 -0.083159 -0.307922
v 0.186660 -0.023990 -0.292683
v 0.187379 -0.011389 -0.282173
v 0.188097 -0.000603 -0.266758
v 0.188431 0.005404 -0.251689
v 0.188742 0.008180 -0.232302
v 0.189662 0.003278 -0.196235
v 0.190158 -0.017205 -0.165240
v -0.000000 0.053679 -0.161344
v -0.059002 0.052957 -0.157455
v -0.094999 0.051681 -0.150957
v -0.142275 0.049606 -0.133586
v -0.164711 0.048033 -0.117505
v 0.128525 0.056289 -0.150745
v 0.100664 0.038182 -0.282024
v 0.089426 0.028220 -0.322920
v 0.075571 0.015791 -0.360503
v -0.000000 0.059863 -0.172351
v 0.059001 0.059141 -0.168462
v 0.094998 0.057865 -0.161964
v 0.142274 0.055790 -0.144594
v 0.164709 0.054217 -0.128512
v -0.153794 0.010408 -0.340666
v -0.154664 0.016639 -0.328470
v -0.159757 0.033013 -0.265888
v -0.165112 0.053998 -0.128668
v 0.179974 -0.014284 -0.320715
v 0.185327 -0.024248 -0.320429
v -0.133566 0.141569 0.200572
v -0.157200 0.108946 0.195636
v -0.177080 0.064209 0.189455
v 0.193077 -0.053442 -0.146166
v 0.190748 -0.048801 0.233401
v -0.192489 -0.027980 -0.158040
v -0.194199 -0.055835 -0.146341
v -0.189487 -0.083405 -0.141622
v -0.167537 -0.089044 -0.141359
v 0.194275 -0.055814 -0.146406
v 0.191700 -0.051342 0.232961
v -0.000000 -0.061366 -0.401582
v 0.088116 -0.060176 -0.396215
v 0.093573 -0.061115 -0.394987
v 0.094798 -0.064814 -0.393979
v 0.092228 -0.078439 -0.392874
v 0.087546 -0.082175 -0.393102
v -0.000000 -0.083030 -0.399186
v -0.188515 -0.049096 0.386668
v -0.178064 -0.048407 0.440032
v -0.172509 -0.048480 0.448003
v -0.163811 -0.048591 0.452501
v -0.117010 -0.048029 0.458822
v -0.045919 -0.047186 0.460869
v -0.039707 -0.025575 0.452486
v -0.000000 -0.025017 0.452073
v 0.193548 -0.013731 0.371576
v 0.183190 -0.014082 0.442859
v 0.178324 -0.014045 0.452817
v 0.168679 -0.013981 0.460243
v 0.150621 -0.013823 0.465284
v 0.117922 -0.013547 0.468175
v -0.000000 -0.013041 0.470729
v -0.187508 -0.085821 -0.141208
v -0.187024 -0.082891 0.230749
v 0.125328 -0.075144 -0.368584
v 0.115146 -0.078751 -0.380053
v 0.099247 -0.082411 -0.391225
v -0.191157 -0.021971 0.241923
v -0.189495 -0.042626 0.234512
v -0.185825 -0.079027 0.230728
v -0.181597 -0.082492 0.230477
v -0.162108 -0.085264 0.231124
v 0.193582 -0.010642 0.248210
v 0.195534 -0.018225 0.243804
v 0.193473 -0.021419 0.242117
v 0.167952 -0.061296 0.450097
v 0.114404 -0.060932 0.458169
v -0.000001 -0.060253 0.460108
v -0.191275 -0.022177 0.241552
v -0.191219 -0.009629 0.249682
v -0.191656 -0.001274 0.259840
v -0.191097 0.011051 0.293177
v -0.190587 0.009323 0.330711
v -0.188610 -0.006027 0.365564
v 0.194316 -0.010829 0.248124
v 0.194978 0.005616 0.273432
v 0.194400 0.011783 0.301939
v 0.193761 0.008261 0.334822
v 0.192012 -0.005797 0.365171
v -0.175517 -0.074149 0.389790
v -0.167394 -0.073600 0.436506
v -0.159228 -0.073688 0.446028
v -0.101612 -0.073246 0.451918
v 0.000001 -0.072843 0.453603
v 0.191470 -0.004428 0.370574
v 0.180126 -0.004703 0.441063
v 0.175496 -0.004781 0.450739
v 0.167297 -0.004593 0.457001
v 0.124219 -0.004590 0.463519
v -0.000000 -0.003920 0.466340
v -0.188642 -0.006016 0.365429
v -0.188138 -0.024157 0.377560
v -0.185980 -0.042568 0.385076
v -0.182291 -0.066930 0.389730
v -0.174709 -0.071496 0.389946
v 0.178470 0.014605 0.404601
v 0.186669 -0.006775 0.404049
v 0.121264 0.142814 0.019529
v 0.117020 0.150229 0.046940
v 0.114862 0.153334 0.083603
v 0.118472 0.151320 0.179967
v 0.121483 0.140228 0.247151
v 0.128762 0.110382 0.369667
v 0.121223 0.099692 0.435894
v -0.016550 0.048216 0.434961
v 0.000000 0.045563 0.433492
v -0.000001 0.048379 0.436713
v 0.160347 0.047727 0.430868
v 0.165365 0.047137 0.423451
v 0.171330 0.042314 0.402988
v 0.174912 0.031273 0.398213
v 0.178873 0.016526 0.397476
v 0.178395 0.013994 0.405135
v 0.173980 0.014025 0.428192
v 0.170090 0.014250 0.435743
v 0.163808 0.014369 0.438984
v 0.086095 0.014330 0.444601
v -0.000001 0.014533 0.446527
v -0.193331 -0.025640 -0.294900
v -0.178557 -0.027530 -0.358481
v -0.171714 -0.028183 -0.372189
v -0.163003 -0.028691 -0.380579
v -0.133175 -0.029657 -0.393893
v -0.099050 -0.030764 -0.402464
v -0.054261 -0.031733 -0.407850
v 0.000000 -0.032184 -0.409821
v 0.120808 0.099434 0.435844
v 0.119110 0.048414 0.433729
v -0.152496 0.047520 0.433051
v -0.156768 0.016111 0.437850
v 0.125613 -0.062037 -0.369496
v 0.112546 -0.061978 -0.385432
v 0.097475 -0.062190 -0.393598
v -0.053888 -0.083001 -0.389590
v -0.053807 -0.053627 -0.393202
v 0.073121 -0.082482 -0.388379
v 0.073255 -0.053015 -0.391133
v -0.117104 0.146264 0.212989
v -0.126592 0.111542 0.366205
v -0.123761 0.103058 0.407761
v 0.000000 0.105728 0.413460
v 0.169034 0.051275 -0.118183
v 0.146877 0.105929 -0.039657
v 0.124524 0.140572 0.017027
v 0.115776 0.143061 0.017023
v 0.053399 0.145665 0.004118
v -0.000000 0.146447 0.000110
v -0.069314 0.042784 0.440201
v -0.065956 0.040910 0.440748
v -0.066162 0.023568 0.443128
v -0.078428 0.022189 0.442270
v -0.078986 0.041894 0.439497
v -0.121264 0.142814 0.019529
v -0.117020 0.150229 0.046940
v -0.114862 0.153334 0.083603
v -0.118472 0.151320 0.179967
v -0.121483 0.140228 0.247151
v -0.128762 0.110382 0.369667
v -0.121223 0.099692 0.435894
v -0.088116 -0.060176 -0.396215
v -0.093574 -0.061115 -0.394987
v -0.094799 -0.064814 -0.393979
v -0.092229 -0.078439 -0.392874
v -0.087546 -0.082175 -0.393101
v -0.167952 -0.061296 0.450097
v -0.114404 -0.060932 0.458169
v 0.000001 -0.060253 0.460108
v -0.194212 -0.020146 -0.163085
v -0.197206 -0.017128 0.043541
v -0.194854 -0.012889 0.246999
v -0.059001 0.059141 -0.168462
v -0.094998 0.057865 -0.161964
v -0.142274 0.055790 -0.144593
v -0.164710 0.054217 -0.128512
v -0.190464 -0.023402 -0.293433
v -0.192059 -0.010463 -0.281172
v -0.192783 0.000018 -0.265590
v -0.193393 0.008180 -0.232302
v -0.194313 0.003278 -0.196235
v -0.194809 -0.017205 -0.165240
v 0.127361 -0.075802 -0.367928
v 0.150279 -0.074827 -0.361231
v 0.154775 -0.062253 -0.360151
v 0.126330 -0.060884 -0.369389
v 0.125025 -0.073831 -0.368890
v -0.187989 -0.093248 -0.307928
v -0.170651 -0.094464 -0.362075
v -0.163568 -0.094659 -0.372384
v -0.152582 -0.095138 -0.379264
v -0.125327 -0.095774 -0.389861
v -0.090618 -0.095874 -0.397435
v 0.000000 -0.096206 -0.404022
v -0.127448 -0.060587 -0.368933
v -0.113662 -0.059967 -0.384955
v -0.099737 -0.060458 -0.393069
v -0.173868 -0.043343 -0.360169
v -0.174589 -0.042256 -0.358335
v -0.044154 -0.046508 0.460609
v -0.039076 -0.047262 0.457794
v -0.000217 -0.047620 0.456940
v 0.059001 0.052957 -0.157455
v 0.094999 0.051681 -0.150957
v 0.142275 0.049606 -0.133586
v 0.164711 0.048033 -0.117505
v -0.000000 -0.052877 -0.408997
v 0.050476 -0.053041 -0.407782
v 0.090550 -0.051781 -0.403358
v 0.095843 -0.050073 -0.402441
v 0.097623 -0.043532 -0.401032
v 0.096512 -0.039703 -0.400446
v 0.090562 -0.038639 -0.401227
v -0.000000 -0.040008 -0.405833
v 0.162150 0.047592 0.429945
v 0.142908 0.081750 0.433019
v 0.132856 0.092989 0.434842
v 0.123203 0.098603 0.435817
v -0.000001 0.102824 0.439831
v 0.191158 -0.021971 0.241923
v 0.189495 -0.042626 0.234512
v 0.185825 -0.079027 0.230728
v 0.181598 -0.082492 0.230477
v 0.162108 -0.085264 0.231124
v 0.152497 0.047520 0.433051
v 0.156769 0.016111 0.437850
v 0.183232 -0.013608 -0.315998
v 0.191154 -0.016759 -0.292408
v 0.184991 -0.019570 -0.320177
v 0.130580 0.145237 0.183805
v 0.134601 0.142272 0.186127
v 0.134925 0.141643 0.193787
v 0.131443 0.144141 0.194470
v -0.188885 -0.083043 -0.308358
v -0.169078 -0.084075 -0.360781
v -0.162416 -0.084433 -0.369303
v -0.150143 -0.085000 -0.376409
v -0.122611 -0.085542 -0.386573
v -0.090619 -0.085629 -0.393368
v 0.000000 -0.085961 -0.399955
v -0.075686 -0.007351 -0.373777
v -0.061788 -0.007654 -0.378596
v 0.000001 -0.007656 -0.381511
v 0.186952 -0.024245 -0.292660
v 0.191245 -0.023715 -0.293625
v 0.193438 -0.027579 -0.295349
v 0.191833 -0.031778 -0.296929
v 0.186492 -0.032209 -0.296780
v -0.134012 0.141535 0.196290
v -0.157039 0.108691 0.191157
v -0.176420 0.064726 0.185245
v 0.096969 -0.070643 -0.386349
v -0.000001 -0.071166 -0.393171
v -0.073122 -0.082482 -0.388379
v -0.073255 -0.053015 -0.391133
v 0.188642 -0.006016 0.365429
v 0.188138 -0.024157 0.377560
v 0.185980 -0.042568 0.385076
v 0.182291 -0.066930 0.389730
v 0.174709 -0.071496 0.389946
v -0.080014 0.048118 0.435189
v -0.080165 0.040751 0.439411
v -0.080066 0.016053 0.441908
v -0.193548 -0.013731 0.371576
v -0.183190 -0.014082 0.442859
v -0.178324 -0.014045 0.452817
v -0.168678 -0.013981 0.460243
v -0.150621 -0.013823 0.465284
v -0.117921 -0.013547 0.468175
v 0.000001 -0.013041 0.470729
v -0.189899 -0.043562 0.385485
v -0.181203 -0.043099 0.440802
v -0.175798 -0.043217 0.449553
v -0.167380 -0.043213 0.455032
v -0.130686 -0.042884 0.461500
v -0.046445 -0.041981 0.464029
v -0.042213 -0.020145 0.466974
v 0.000001 -0.019348 0.467430
v -0.194285 -0.009708 0.368263
v -0.183613 -0.010377 0.441311
v -0.179029 -0.010377 0.451932
v -0.169931 -0.010322 0.459614
v -0.152659 -0.010174 0.464961
v -0.121295 -0.009900 0.467964
v -0.000000 -0.009371 0.470729
v -0.179974 -0.014284 -0.320715
v -0.185327 -0.024248 -0.320429
v 0.190689 -0.052012 -0.303833
v 0.176397 -0.053773 -0.361011
v 0.168898 -0.054260 -0.374589
v 0.160404 -0.054617 -0.381419
v 0.133003 -0.055276 -0.393863
v 0.099048 -0.055453 -0.402464
v 0.054261 -0.055972 -0.407850
v -0.000001 -0.056326 -0.409821
v 0.187508 -0.085821 -0.141208
v 0.187024 -0.082891 0.230749
v 0.044936 -0.041621 0.464050
v 0.043237 -0.051661 0.458648
v -0.125328 -0.075144 -0.368584
v -0.115146 -0.078751 -0.380053
v -0.099247 -0.082411 -0.391225
v 0.184511 -0.069055 0.390150
v 0.176121 -0.067969 0.438073
v 0.170264 -0.068169 0.448569
v 0.161847 -0.068261 0.454419
v 0.107110 -0.067868 0.460873
v 0.000000 -0.067431 0.462826
v -0.194316 -0.010829 0.248125
v -0.194978 0.005616 0.273432
v -0.194400 0.011783 0.301939
v -0.193761 0.008261 0.334822
v -0.192012 -0.005797 0.365171
v -0.000001 0.043634 0.440802
v 0.109708 0.043232 0.437272
v 0.161337 0.042685 0.432139
v 0.166745 0.042413 0.426847
v 0.172038 0.038950 0.405858
v 0.176689 0.021419 0.402668
v 0.171367 0.020351 0.429524
v 0.165173 0.020605 0.435420
v 0.096430 0.021130 0.441812
v -0.000001 0.021386 0.444244
v -0.191470 -0.004428 0.370574
v -0.180126 -0.004703 0.441063
v -0.175496 -0.004781 0.450739
v -0.167297 -0.004593 0.457001
v -0.124219 -0.004590 0.463519
v 0.000001 -0.003920 0.466340
v 0.000001 0.048379 0.436713
v -0.160347 0.047727 0.430868
v -0.165364 0.047137 0.423451
v -0.171329 0.042314 0.402989
v -0.174912 0.031273 0.398213
v -0.178873 0.016526 0.397476
v -0.178395 0.013994 0.405135
v -0.173980 0.014025 0.428192
v -0.170090 0.014250 0.435743
v -0.163808 0.014369 0.438984
v -0.086095 0.014330 0.444601
v 0.000001 0.014533 0.446527
v -0.000000 0.055976 0.435395
v 0.154392 0.054905 0.430947
v -0.120808 0.099434 0.435844
v -0.119110 0.048414 0.433729
v 0.132079 0.141622 0.201057
v 0.136164 0.132208 0.256596
v 0.142517 0.111355 0.333301
v 0.147736 0.095865 0.375754
v 0.149725 0.092542 0.379272
v 0.153121 0.087449 0.378763
v 0.160823 0.077944 0.367367
v 0.166177 0.072648 0.338261
v 0.172545 0.067951 0.263543
v 0.175854 0.063178 0.168553
v -0.169034 0.051275 -0.118183
v -0.146877 0.105929 -0.039657
v -0.124524 0.140572 0.017027
v -0.115776 0.143061 0.017023
v -0.053399 0.145665 0.004118
v -0.000000 -0.039071 -0.403111
v -0.000000 -0.036965 -0.409810
v -0.000000 -0.032010 -0.410059
v -0.000000 -0.016930 -0.386981
v -0.000000 0.013054 -0.369020
v -0.000000 0.018335 -0.360948
v -0.000000 0.030976 -0.328029
v -0.000000 0.040751 -0.289344
v -0.000000 0.060376 -0.173337
v -0.186675 -0.023863 -0.292221
v -0.185478 -0.056017 -0.304456
v -0.182121 -0.094771 -0.307126
v 0.131958 0.140881 0.182700
v 0.155276 0.106059 0.176070
v 0.173549 0.063281 0.167376
v -0.117883 0.147409 0.213211
v -0.000002 0.153354 0.214710
v 0.191139 -0.031987 -0.296866
v 0.190572 -0.054426 -0.304075
v 0.188413 -0.083159 -0.307922
v -0.190188 -0.082968 -0.141034
v -0.188982 -0.078642 0.231092
v -0.131198 0.143829 0.196537
v -0.133876 0.141557 0.196245
v -0.134211 0.141018 0.199609
v -0.131270 0.143472 0.201137
v 0.133566 0.141569 0.200572
v 0.157200 0.108946 0.195636
v 0.177080 0.064209 0.189455
v -0.167012 -0.089387 -0.140362
v -0.162566 -0.087766 0.231379
v 0.192489 -0.027980 -0.158040
v 0.194199 -0.055835 -0.146341
v 0.189487 -0.083405 -0.141623
v 0.167537 -0.089044 -0.141360
v -0.074146 -0.012997 -0.377401
v -0.083445 0.004911 -0.366462
v -0.092014 0.009069 -0.362620
v -0.132586 0.009004 -0.350997
v -0.160089 0.009341 -0.337163
v -0.175255 0.006143 -0.311803
v -0.180278 -0.008042 -0.314303
v -0.181291 -0.013253 -0.317440
v -0.178459 -0.014956 -0.326004
v -0.167320 -0.015805 -0.345367
v -0.158244 -0.015945 -0.353377
v -0.110373 -0.016461 -0.371669
v -0.082344 -0.016369 -0.377650
v 0.119412 0.142941 0.019476
v 0.114278 0.150578 0.049198
v 0.112027 0.153736 0.094223
v 0.113916 0.153345 0.148282
v 0.116547 0.147855 0.204043
v 0.158598 -0.015507 -0.353217
v 0.153972 0.010132 -0.340872
v 0.156899 -0.059722 -0.376383
v 0.173240 -0.059392 -0.355876
v 0.189055 -0.059283 -0.309860
v 0.176581 -0.035778 -0.356888
v 0.168982 -0.036266 -0.372651
v 0.162552 -0.036540 -0.378824
v 0.112173 -0.038471 -0.397320
v 0.109309 -0.048380 -0.399088
v 0.111491 -0.051654 -0.399183
v 0.117402 -0.052430 -0.397547
v 0.149082 -0.052106 -0.386780
v 0.165335 -0.051624 -0.377817
v 0.177098 -0.050115 -0.356577
v 0.178156 -0.039751 -0.353841
v 0.018492 0.048552 0.436674
v 0.014941 0.044152 0.439882
v 0.000000 0.044339 0.440309
v 0.153794 0.010408 -0.340666
v 0.154663 0.016639 -0.328470
v 0.159757 0.033013 -0.265888
v 0.165112 0.053998 -0.128668
v 0.000000 0.053600 -0.161357
v 0.000000 0.109950 -0.071387
v 0.000000 0.140886 -0.012329
v 0.000000 0.153923 0.024831
v 0.000000 0.159369 0.065942
v 0.000000 0.160315 0.136277
v 0.000000 0.153435 0.213640
v -0.000023 0.112893 0.371262
v -0.000008 0.103064 0.439763
v 0.170460 0.016619 0.433133
v 0.162599 0.047528 0.428906
v -0.125614 -0.062037 -0.369496
v -0.112547 -0.061978 -0.385432
v -0.097475 -0.062190 -0.393598
v -0.134099 0.142364 0.183599
v -0.157541 0.107951 0.176566
v -0.176233 0.064394 0.167723
v -0.134630 0.141929 0.194143
v -0.157514 0.107938 0.189211
v -0.176420 0.064726 0.183428
v 0.173387 0.052318 -0.100703
v 0.156237 0.098741 -0.039510
v 0.136123 0.133372 0.016301
v 0.128979 0.144581 0.044036
v 0.126287 0.148862 0.075397
v 0.126405 0.148643 0.131207
v 0.130432 0.144731 0.191440
v 0.133956 0.138157 0.236309
v 0.138151 0.122809 0.297584
v 0.147703 0.095905 0.378586
v 0.151350 0.090395 0.381264
v 0.155809 0.084062 0.379360
v 0.163663 0.074603 0.367599
v 0.171188 0.067898 0.327714
v 0.179900 0.060764 0.208777
v 0.178475 0.044941 -0.118137
v 0.187989 -0.093248 -0.307928
v 0.170651 -0.094464 -0.362075
v 0.163568 -0.094659 -0.372384
v 0.152582 -0.095138 -0.379264
v 0.125327 -0.095774 -0.389861
v 0.090618 -0.095874 -0.397435
v -0.000001 -0.096206 -0.404022
v -0.181988 -0.095172 -0.307174
v -0.165359 -0.097178 -0.357184
v -0.158285 -0.097391 -0.365417
v -0.144739 -0.097993 -0.372938
v -0.118542 -0.098480 -0.382466
v -0.086549 -0.098566 -0.389261
v 0.004070 -0.098898 -0.395848
v -0.191238 -0.020121 -0.294243
v -0.176289 -0.023111 -0.355105
v -0.169430 -0.023855 -0.368334
v -0.161297 -0.024323 -0.375747
v -0.133472 -0.025087 -0.388145
v -0.100649 -0.025753 -0.396625
v -0.057968 -0.026517 -0.401886
v -0.000000 -0.026875 -0.404349
v 0.134012 0.141535 0.196290
v 0.157039 0.108691 0.191157
v 0.176420 0.064726 0.185245
v -0.118323 0.144960 0.215462
v -0.000002 0.150763 0.217163
v 0.127448 -0.060587 -0.368933
v 0.113662 -0.059967 -0.384955
v 0.099736 -0.060458 -0.393069
v -0.178466 0.044915 -0.118544
v -0.173788 0.032140 -0.247495
v -0.166916 0.019254 -0.311018
v -0.160327 0.014103 -0.331757
v -0.141771 0.012779 -0.344137
v -0.101775 0.014227 -0.357306
v -0.056448 0.015265 -0.363987
v 0.000000 0.015772 -0.366481
v -0.190906 -0.078035 -0.112873
v -0.187801 -0.074571 0.167572
v -0.189118 -0.059727 0.176385
v -0.192393 -0.051946 0.178068
v -0.192415 -0.022469 0.183239
v -0.195456 -0.021125 0.183127
v -0.195904 -0.014862 0.183271
v -0.191663 -0.011714 0.183358
v -0.187390 0.038885 0.185551
v -0.181011 0.058812 0.185412
v -0.176083 0.065228 0.184362
v 0.074145 -0.012997 -0.377401
v 0.083445 0.004911 -0.366462
v 0.092014 0.009069 -0.362620
v 0.132586 0.009004 -0.350997
v 0.160089 0.009341 -0.337164
v 0.175255 0.006143 -0.311803
v 0.180277 -0.008042 -0.314303
v 0.181291 -0.013253 -0.317440
v 0.178458 -0.014956 -0.326004
v 0.167319 -0.015805 -0.345367
v 0.158243 -0.015945 -0.353377
v 0.110372 -0.016461 -0.371669
v 0.082344 -0.016369 -0.377650
v -0.194350 -0.027061 -0.158503
v -0.196918 -0.024546 0.038353
v -0.195601 -0.019933 0.242836
v 0.188516 -0.049096 0.386668
v 0.178065 -0.048407 0.440032
v 0.172510 -0.048480 0.448003
v 0.163812 -0.048591 0.452501
v 0.117011 -0.048029 0.458821
v 0.045920 -0.047186 0.460869
v 0.039707 -0.025575 0.452486
v -0.174798 -0.037869 -0.357560
v -0.169205 -0.038450 -0.370394
v -0.162612 -0.038648 -0.376594
v -0.114230 -0.040124 -0.395179
v -0.111442 -0.047458 -0.396627
v -0.114375 -0.049790 -0.396388
v -0.137887 -0.049978 -0.388896
v -0.163593 -0.049532 -0.376910
v -0.174844 -0.047826 -0.357081
v -0.175791 -0.040673 -0.354873
v -0.183657 -0.012304 -0.312840
v -0.182579 0.004140 -0.292491
v -0.182208 0.016977 -0.268547
v -0.182678 0.023263 -0.244734
v -0.184246 0.024953 -0.220000
v -0.187419 0.021580 -0.193530
v -0.191097 0.012479 -0.169461
v -0.192860 0.000460 -0.153035
v -0.192636 -0.017454 -0.138519
v 0.173868 -0.043343 -0.360169
v 0.174589 -0.042256 -0.358335
v -0.193315 -0.021971 0.241923
v -0.191449 -0.043701 0.234298
v -0.187982 -0.080858 0.230728
v -0.183755 -0.084323 0.230477
v -0.162286 -0.087404 0.230660
v 0.191275 -0.022177 0.241552
v 0.191219 -0.009629 0.249682
v 0.191656 -0.001274 0.259840
v 0.191097 0.011051 0.293177
v 0.190587 0.009323 0.330711
v 0.188610 -0.006027 0.365564
v -0.168115 0.045751 0.414792
v -0.172011 0.039628 0.401600
v -0.177624 0.018014 0.398580
v -0.173478 0.015656 0.426962
v -0.167185 0.015818 0.435524
v -0.101057 0.015762 0.441568
v 0.000002 0.016074 0.444229
v 0.175517 -0.074149 0.389790
v 0.167394 -0.073600 0.436506
v 0.159229 -0.073688 0.446027
v 0.101612 -0.073246 0.451918
v -0.000000 -0.072843 0.453603
v -0.173265 -0.059921 0.445811
v -0.171458 -0.063809 0.448159
v -0.165722 -0.065179 0.452959
v -0.140862 -0.065178 0.458150
v 0.000001 -0.063759 0.463151
v 0.080014 0.048118 0.435189
v 0.080165 0.040751 0.439411
v 0.080066 0.016053 0.441908
v -0.191896 -0.006110 0.365394
v -0.194388 -0.012117 0.370522
v -0.188850 -0.046319 0.386093
v -0.184390 -0.069263 0.389907
v -0.175001 -0.073891 0.389992
v 0.016550 0.048216 0.434961
v 0.000001 0.054561 0.436713
v -0.154391 0.053491 0.432265
v 0.193331 -0.025640 -0.294900
v 0.178557 -0.027530 -0.358482
v 0.171714 -0.028183 -0.372189
v 0.163003 -0.028691 -0.380579
v 0.133175 -0.029657 -0.393893
v 0.099050 -0.030764 -0.402464
v 0.054261 -0.031733 -0.407850
v -0.000001 -0.032184 -0.409821
v -0.000000 -0.052141 -0.404943
v -0.000000 -0.053156 -0.409761
v -0.000000 -0.060256 -0.405959
v -0.000000 -0.061350 -0.389942
v -0.000000 -0.079733 -0.390547
v -0.000000 -0.082834 -0.398980
v -0.000000 -0.090902 -0.404236
v -0.000000 -0.096568 -0.404078
v -0.000000 -0.099201 -0.396254
v 0.044154 -0.046508 0.460609
v 0.039076 -0.047262 0.457794
v 0.000218 -0.047620 0.456940
v -0.013632 -0.081400 -0.391769
v -0.013966 -0.051898 -0.394088
v 0.053888 -0.083001 -0.389590
v 0.053806 -0.053627 -0.393202
v -0.096969 -0.045492 -0.394788
v 0.000001 -0.046015 -0.401611
v 0.117104 0.146264 0.212988
v 0.126592 0.111542 0.366205
v 0.123761 0.103058 0.407760
v -0.171522 0.051054 -0.100417
v -0.174580 0.056112 -0.017796
v -0.173880 0.064796 0.168761
v 0.069314 0.042784 0.440201
v 0.065956 0.040910 0.440748
v 0.066163 0.023568 0.443128
v 0.078428 0.022189 0.442270
v 0.078987 0.041894 0.439497
v 0.188885 -0.083043 -0.308358
v 0.169078 -0.084075 -0.360781
v 0.162415 -0.084433 -0.369303
v 0.150143 -0.085000 -0.376409
v 0.122611 -0.085542 -0.386574
v 0.090618 -0.085629 -0.393368
v -0.000001 -0.085961 -0.399955
v 0.075685 -0.007351 -0.373777
v 0.061788 -0.007654 -0.378596
v -0.000001 -0.007656 -0.381511
v 0.190188 -0.082968 -0.141034
v 0.188983 -0.078642 0.231092
v 0.167012 -0.089387 -0.140362
v 0.162566 -0.087766 0.231379
v 0.189899 -0.043562 0.385484
v 0.181203 -0.043099 0.440802
v 0.175798 -0.043217 0.449553
v 0.167380 -0.043213 0.455032
v 0.130686 -0.042884 0.461500
v 0.046445 -0.041981 0.464029
v 0.042213 -0.020145 0.466974
v -0.000001 -0.019348 0.467430
v 0.194285 -0.009708 0.368262
v 0.183613 -0.010377 0.441311
v 0.179029 -0.010377 0.451931
v 0.169931 -0.010322 0.459614
v 0.152660 -0.010174 0.464961
v 0.121296 -0.009900 0.467964
v 0.000001 -0.009371 0.470729
v -0.099427 -0.082447 -0.391117
v -0.152702 -0.080621 -0.374376
v -0.157504 -0.074010 -0.372273
v -0.160358 -0.061358 -0.373197
v -0.134091 -0.059852 -0.386446
v -0.089495 -0.059847 -0.396015
v 0.171522 0.051054 -0.100417
v 0.174580 0.056112 -0.017796
v 0.173880 0.064796 0.168761
v -0.117879 0.148340 0.203967
v 0.000001 0.154285 0.205466
v -0.173839 -0.043540 -0.360670
v -0.174893 -0.041903 -0.358101
v 0.186675 -0.023863 -0.292221
v 0.185478 -0.056017 -0.304456
v 0.182121 -0.094771 -0.307126
v -0.183145 -0.082344 -0.306639
v -0.188601 -0.083031 -0.307870
v -0.188807 -0.086984 -0.308113
v -0.187558 -0.093729 -0.307966
v -0.182077 -0.094898 -0.307132
v -0.191775 -0.004456 0.368968
v -0.186066 0.002614 0.380013
v -0.176535 0.003743 0.428380
v -0.167722 0.004171 0.439735
v -0.105888 0.004226 0.445831
v 0.000002 0.004460 0.448624
v 0.000000 0.102456 0.440770
v 0.000000 0.056442 0.435234
v 0.000000 0.048491 0.436907
v 0.000000 0.045696 0.433146
v 0.000000 0.042718 0.441212
v 0.000000 0.005707 0.447531
v 0.000000 -0.003566 0.465852
v 0.000000 -0.009876 0.471019
v 0.000073 -0.019491 0.467612
v 0.000000 -0.025662 0.451331
v 0.000000 -0.060107 0.460137
v 0.000005 -0.064654 0.463705
v 0.000000 -0.073330 0.453973
v -0.115393 0.143952 0.018009
v -0.109676 0.150816 0.046503
v -0.107036 0.154102 0.091487
v -0.108443 0.154102 0.140934
v -0.112007 0.149108 0.204337
v 0.168115 0.045751 0.414792
v 0.172011 0.039628 0.401600
v 0.177624 0.018014 0.398580
v 0.173478 0.015656 0.426962
v 0.167185 0.015818 0.435524
v 0.101057 0.015762 0.441568
v -0.000002 0.016074 0.444229
v 0.000024 0.112893 0.371262
v 0.000008 0.103064 0.439763
v 0.174797 -0.037869 -0.357561
v 0.169205 -0.038450 -0.370394
v 0.162612 -0.038648 -0.376594
v 0.114230 -0.040124 -0.395180
v 0.111442 -0.047458 -0.396627
v 0.114375 -0.049790 -0.396388
v 0.137887 -0.049978 -0.388896
v 0.163593 -0.049532 -0.376910
v 0.174843 -0.047826 -0.357081
v 0.175790 -0.040673 -0.354873
v 0.134099 0.142364 0.183599
v 0.157541 0.107951 0.176566
v 0.176233 0.064394 0.167723
v -0.188864 -0.087800 -0.308519
v -0.170122 -0.088697 -0.363133
v -0.163568 -0.088871 -0.372384
v -0.152582 -0.089350 -0.379264
v -0.125327 -0.089986 -0.389861
v -0.090619 -0.090085 -0.397434
v 0.000000 -0.090418 -0.404021
v 0.134630 0.141929 0.194143
v 0.157514 0.107938 0.189211
v 0.176420 0.064726 0.183428
v -0.193274 -0.030096 -0.296272
v -0.178115 -0.032206 -0.359793
v -0.171315 -0.032721 -0.373199
v -0.163290 -0.033038 -0.380860
v -0.133222 -0.034242 -0.393940
v -0.099051 -0.035406 -0.402465
v -0.054261 -0.036372 -0.407850
v 0.000001 -0.036779 -0.409821
v 0.117883 0.147409 0.213211
v 0.000002 0.153354 0.214710
v 0.178466 0.044915 -0.118544
v 0.173788 0.032140 -0.247495
v 0.166916 0.019254 -0.311018
v 0.160327 0.014103 -0.331757
v 0.141771 0.012779 -0.344137
v 0.101775 0.014227 -0.357306
v 0.056448 0.015265 -0.363987
v -0.190470 -0.072185 -0.143340
v -0.188136 -0.067757 0.185577
v -0.189748 -0.075992 0.226612
v 0.131198 0.143829 0.196536
v 0.133877 0.141557 0.196245
v 0.134211 0.141018 0.199609
v 0.131270 0.143472 0.201137
v -0.194527 -0.017070 -0.165117
v -0.193912 -0.026932 -0.158544
v -0.188387 -0.028132 -0.157865
v -0.191993 -0.006391 0.364839
v -0.181115 -0.007142 0.439419
v -0.176824 -0.007297 0.449965
v -0.169046 -0.007141 0.456600
v -0.152370 -0.006816 0.461371
v -0.121260 -0.006572 0.464158
v 0.000001 -0.006054 0.466895
v 0.194349 -0.027061 -0.158503
v 0.196918 -0.024546 0.038353
v 0.195601 -0.019933 0.242836
v -0.186199 -0.094736 -0.307696
v -0.168475 -0.096534 -0.360504
v -0.162354 -0.096712 -0.368800
v -0.151400 -0.097204 -0.375252
v -0.125327 -0.097787 -0.385255
v -0.090619 -0.097886 -0.392828
v 0.000001 -0.098219 -0.399415
v -0.000142 -0.017030 -0.387407
v -0.066552 -0.016758 -0.384004
v -0.171355 0.052404 -0.112968
v -0.178877 0.043923 -0.118421
v -0.184056 0.030731 -0.120385
v -0.189098 0.008384 -0.121267
v -0.190762 -0.015875 -0.120201
v -0.194996 -0.020887 -0.119593
v -0.192362 -0.028027 -0.119681
v -0.193928 -0.055658 -0.116364
v -0.189749 -0.083361 -0.112044
v -0.167564 -0.088512 -0.111308
v 0.181988 -0.095172 -0.307174
v 0.165359 -0.097178 -0.357184
v 0.158285 -0.097391 -0.365417
v 0.144739 -0.097993 -0.372938
v 0.118542 -0.098480 -0.382466
v 0.086549 -0.098566 -0.389261
v -0.004070 -0.098898 -0.395848
v 0.191238 -0.020121 -0.294243
v 0.176289 -0.023111 -0.355105
v 0.169429 -0.023855 -0.368334
v 0.161297 -0.024323 -0.375747
v 0.133471 -0.025087 -0.388145
v 0.100649 -0.025753 -0.396625
v 0.057967 -0.026517 -0.401886
v -0.192968 -0.031434 -0.154988
v -0.195648 -0.028717 0.043163
v -0.193480 -0.024620 0.240553
v -0.068004 -0.013494 -0.381496
v -0.080366 0.007040 -0.367179
v -0.091129 0.011661 -0.362966
v -0.122553 0.011425 -0.353937
v -0.156406 0.010930 -0.339360
v -0.165744 0.010674 -0.329509
v -0.174313 0.008742 -0.312689
v -0.177482 0.003967 -0.309748
v -0.182436 -0.010387 -0.314043
v -0.183073 -0.014625 -0.317697
v -0.178305 -0.016342 -0.332554
v -0.170907 -0.016871 -0.348447
v -0.161880 -0.016915 -0.356187
v -0.134157 -0.017347 -0.369530
v -0.110102 -0.017375 -0.376880
v -0.077871 -0.017077 -0.382569
v 0.099427 -0.082447 -0.391117
v 0.152702 -0.080621 -0.374376
v 0.157503 -0.074010 -0.372273
v 0.160357 -0.061358 -0.373197
v 0.134091 -0.059852 -0.386446
v 0.089495 -0.059847 -0.396015
v 0.183145 -0.082344 -0.306639
v 0.188601 -0.083031 -0.307870
v 0.188807 -0.086984 -0.308113
v 0.187558 -0.093729 -0.307966
v 0.182077 -0.094898 -0.307132
v -0.185459 -0.023893 -0.320604
v -0.190039 -0.023263 -0.293179
v 0.117880 0.148340 0.203966
v -0.000001 0.154285 0.205466
v -0.164745 0.054401 -0.129040
v -0.131750 0.053150 -0.161241
v -0.103505 0.034811 -0.289762
v -0.093224 0.026982 -0.323529
v -0.078808 0.016572 -0.358259
v 0.118324 0.144960 0.215462
v 0.000002 0.150763 0.217163
v 0.194527 -0.017070 -0.165117
v 0.193912 -0.026932 -0.158544
v 0.188387 -0.028132 -0.157865
v -0.175588 0.064422 0.168193
v -0.176338 0.065301 0.183288
v 0.190906 -0.078035 -0.112873
v 0.187801 -0.074571 0.167572
v 0.189119 -0.059727 0.176384
v 0.192393 -0.051946 0.178068
v 0.192415 -0.022469 0.183239
v 0.195456 -0.021125 0.183127
v 0.195904 -0.014862 0.183271
v 0.191663 -0.011714 0.183358
v 0.187390 0.038885 0.185550
v 0.181011 0.058812 0.185412
v 0.176083 0.065228 0.184362
v -0.192695 -0.028008 -0.158023
v -0.193700 -0.021671 0.241983
v 0.173839 -0.043540 -0.360670
v 0.174893 -0.041903 -0.358101
v -0.194506 -0.011266 0.243723
v -0.195012 0.007988 0.270316
v -0.194470 0.015142 0.300429
v -0.193679 0.011332 0.336209
v -0.191469 -0.004428 0.370574
v 0.183657 -0.012304 -0.312841
v 0.182578 0.004140 -0.292491
v 0.182208 0.016977 -0.268547
v 0.182677 0.023263 -0.244734
v 0.184246 0.024953 -0.220000
v 0.187419 0.021580 -0.193531
v 0.191097 0.012479 -0.169461
v 0.192859 0.000460 -0.153035
v 0.192635 -0.017454 -0.138519
v 0.000000 -0.061327 -0.391529
v -0.086058 -0.061452 -0.387025
v -0.091037 -0.062540 -0.386018
v -0.092206 -0.066910 -0.385274
v -0.089700 -0.076832 -0.385612
v -0.085283 -0.079145 -0.385880
v 0.001680 -0.080042 -0.390778
v 0.193315 -0.021971 0.241923
v 0.191449 -0.043701 0.234298
v 0.187982 -0.080858 0.230727
v 0.183755 -0.084323 0.230477
v 0.162286 -0.087404 0.230660
v -0.192501 -0.016501 0.372794
v -0.181571 -0.016939 0.441788
v -0.177537 -0.016846 0.450722
v -0.169563 -0.016849 0.457278
v -0.152618 -0.016810 0.462133
v -0.117922 -0.016527 0.465282
v 0.000002 -0.016022 0.467834
v 0.191775 -0.004456 0.368968
v 0.186066 0.002614 0.380013
v 0.176535 0.003743 0.428380
v 0.167722 0.004171 0.439735
v 0.105888 0.004226 0.445831
v -0.000001 0.004460 0.448624
v -0.018492 0.048552 0.436674
v -0.014941 0.044152 0.439882
v 0.173265 -0.059921 0.445811
v 0.171458 -0.063809 0.448158
v 0.165722 -0.065179 0.452959
v 0.140862 -0.065178 0.458150
v -0.000001 -0.063759 0.463151
v -0.012703 0.045725 0.434311
v -0.015466 0.044453 0.439576
v 0.191896 -0.006110 0.365394
v 0.194388 -0.012117 0.370522
v 0.188850 -0.046319 0.386093
v 0.184391 -0.069263 0.389907
v 0.175001 -0.073891 0.389992
v -0.156238 0.048048 0.432027
v -0.140774 0.077449 0.434170
v -0.122145 0.095188 0.435393
v 0.000000 0.098909 0.439333
v -0.000001 0.054561 0.436713
v 0.154392 0.053491 0.432265
v -0.000072 -0.019491 0.467612
v -0.000005 -0.064654 0.463705
v -0.170460 0.016619 0.433133
v -0.162598 0.047528 0.428906
v 0.013632 -0.081400 -0.391769
v 0.013966 -0.051898 -0.394088
v -0.035227 -0.084116 -0.390546
v -0.035208 -0.054835 -0.394846
v 0.096969 -0.045492 -0.394788
v -0.000001 -0.046015 -0.401611
v -0.119412 0.142941 0.019476
v -0.114278 0.150578 0.049198
v -0.112027 0.153736 0.094223
v -0.113916 0.153345 0.148282
v -0.116547 0.147855 0.204043
v -0.172123 0.051061 -0.099646
v -0.164720 0.073709 -0.070873
v -0.148117 0.108838 -0.020240
v -0.135017 0.130991 0.016475
v -0.129053 0.140171 0.038010
v -0.126746 0.144943 0.061720
v -0.125896 0.146603 0.091841
v -0.129233 0.142403 0.183178
v 0.172123 0.051061 -0.099646
v 0.164720 0.073709 -0.070873
v 0.148117 0.108838 -0.020240
v 0.135017 0.130991 0.016475
v 0.129053 0.140171 0.038010
v 0.126746 0.144943 0.061720
v 0.125896 0.146603 0.091841
v 0.129233 0.142403 0.183178
v -0.131144 0.144055 0.195494
v -0.155067 0.112290 0.190731
v -0.176490 0.064541 0.184304
v -0.188511 -0.027980 -0.158040
v -0.190221 -0.055836 -0.146341
v -0.185862 -0.081252 -0.141810
v -0.167208 -0.086844 -0.140747
v -0.131224 0.141569 0.201403
v -0.154645 0.108702 0.196495
v -0.174079 0.064726 0.190588
v -0.165426 0.054161 -0.127924
v -0.172977 0.052396 -0.108894
v -0.175455 0.051621 -0.070910
v -0.176730 0.064388 0.204998
v -0.165466 0.073271 0.351167
v -0.158739 0.080043 0.373985
v -0.150274 0.092283 0.381143
v 0.115394 0.143952 0.018009
v 0.109676 0.150816 0.046503
v 0.107036 0.154102 0.091487
v 0.108444 0.154102 0.140934
v 0.112007 0.149108 0.204337
v 0.000001 0.043634 0.440802
v -0.109708 0.043232 0.437272
v -0.161337 0.042685 0.432139
v -0.166744 0.042413 0.426847
v -0.172038 0.038950 0.405858
v -0.176689 0.021419 0.402668
v -0.171367 0.020351 0.429524
v -0.165172 0.020605 0.435420
v -0.096430 0.021130 0.441812
v 0.000001 0.021386 0.444244
v -0.132079 0.141622 0.201057
v -0.136164 0.132208 0.256596
v -0.142517 0.111355 0.333301
v -0.147736 0.095865 0.375754
v -0.149725 0.092542 0.379272
v -0.153120 0.087449 0.378763
v -0.160822 0.077944 0.367368
v -0.166177 0.072648 0.338261
v -0.172545 0.067951 0.263543
v -0.175854 0.063178 0.168553
v 0.193273 -0.030096 -0.296272
v 0.178115 -0.032206 -0.359793
v 0.171315 -0.032721 -0.373199
v 0.163290 -0.033038 -0.380860
v 0.133222 -0.034242 -0.393940
v 0.099050 -0.035406 -0.402465
v 0.054261 -0.036372 -0.407850
v -0.000001 -0.036779 -0.409821
v -0.190649 -0.055425 -0.304753
v -0.174278 -0.056458 -0.361077
v -0.166538 -0.056944 -0.374471
v -0.157022 -0.057064 -0.381583
v -0.128189 -0.057757 -0.393136
v -0.094938 -0.057965 -0.400711
v 0.000001 -0.058805 -0.407366
v -0.193854 -0.018077 -0.164466
v -0.191632 -0.011267 0.212298
v -0.194615 -0.011236 0.247760
v 0.188864 -0.087800 -0.308519
v 0.170122 -0.088697 -0.363133
v 0.163568 -0.088871 -0.372384
v 0.152582 -0.089350 -0.379264
v 0.125327 -0.089986 -0.389861
v 0.090618 -0.090085 -0.397435
v -0.000001 -0.090418 -0.404021
v 0.192501 -0.016501 0.372794
v 0.181572 -0.016939 0.441788
v 0.177538 -0.016846 0.450722
v 0.169564 -0.016849 0.457278
v 0.152619 -0.016810 0.462133
v 0.117922 -0.016527 0.465282
v -0.000001 -0.016022 0.467834
v 0.156238 0.048048 0.432027
v 0.140774 0.077449 0.434170
v 0.122146 0.095188 0.435393
v 0.000001 0.055976 0.435395
v -0.154392 0.054905 0.430947
v 0.186198 -0.094736 -0.307696
v 0.168475 -0.096534 -0.360504
v 0.162354 -0.096712 -0.368800
v 0.151399 -0.097204 -0.375253
v 0.125327 -0.097787 -0.385255
v 0.090618 -0.097886 -0.392828
v -0.000001 -0.098219 -0.399415
v 0.000141 -0.017030 -0.387407
v 0.066552 -0.016758 -0.384004
v -0.184511 -0.069055 0.390150
v -0.176121 -0.067969 0.438073
v -0.170264 -0.068169 0.448569
v -0.161846 -0.068261 0.454419
v -0.107109 -0.067868 0.460873
v 0.086058 -0.061452 -0.387025
v 0.091036 -0.062540 -0.386018
v 0.092206 -0.066910 -0.385274
v 0.089700 -0.076832 -0.385612
v 0.085283 -0.079145 -0.385880
v -0.001680 -0.080042 -0.390778
v -0.194802 -0.017134 -0.165375
v -0.189495 -0.017942 -0.164884
v -0.188247 -0.028087 -0.157896
v -0.191264 -0.019749 -0.293939
v -0.192296 -0.005987 -0.279941
v -0.192858 0.004112 -0.263638
v -0.193465 0.011281 -0.227718
v -0.193826 0.009680 -0.208001
v -0.194659 0.003743 -0.189094
v -0.195447 -0.005719 -0.173223
v -0.193729 -0.017838 -0.160008
v 0.192968 -0.031434 -0.154988
v 0.195648 -0.028717 0.043163
v 0.193480 -0.024620 0.240553
v -0.183232 -0.013608 -0.315998
v -0.191155 -0.016759 -0.292408
v -0.184991 -0.019570 -0.320176
v -0.128525 0.056289 -0.150745
v -0.100664 0.038182 -0.282024
v -0.089427 0.028220 -0.322920
v -0.075572 0.015791 -0.360503
v 0.171354 0.052404 -0.112968
v 0.178877 0.043923 -0.118421
v 0.184056 0.030731 -0.120385
v 0.189098 0.008384 -0.121267
v 0.190892 -0.016519 -0.120152
v 0.194996 -0.020887 -0.119593
v 0.192362 -0.028027 -0.119681
v 0.193928 -0.055658 -0.116365
v 0.189748 -0.083361 -0.112044
v 0.167564 -0.088512 -0.111308
v -0.130580 0.145237 0.183805
v -0.134600 0.142272 0.186127
v -0.134925 0.141643 0.193787
v -0.131443 0.144141 0.194470
v 0.190470 -0.072185 -0.143340
v 0.188136 -0.067757 0.185577
v 0.189748 -0.075992 0.226612
v 0.192695 -0.028008 -0.158023
v 0.193700 -0.021671 0.241983
v -0.050476 -0.053041 -0.407782
v -0.090550 -0.051781 -0.403358
v -0.095844 -0.050073 -0.402440
v -0.097623 -0.043532 -0.401031
v -0.096512 -0.039703 -0.400446
v -0.090562 -0.038639 -0.401227
v 0.191993 -0.006391 0.364839
v 0.181115 -0.007142 0.439419
v 0.176824 -0.007297 0.449965
v 0.169046 -0.007141 0.456600
v 0.152370 -0.006816 0.461371
v 0.121260 -0.006572 0.464158
v -0.000001 -0.006054 0.466895
v -0.044936 -0.041621 0.464050
v -0.043236 -0.051661 0.458648
v -0.194275 -0.055814 -0.146406
v -0.191699 -0.051342 0.232961
v 0.068004 -0.013494 -0.381496
v 0.080365 0.007040 -0.367180
v 0.091129 0.011661 -0.362966
v 0.122553 0.011425 -0.353937
v 0.156406 0.010930 -0.339360
v 0.165744 0.010674 -0.329509
v 0.174313 0.008742 -0.312689
v 0.177481 0.003967 -0.309748
v 0.182435 -0.010387 -0.314044
v 0.183073 -0.014625 -0.317697
v 0.178305 -0.016342 -0.332554
v 0.170907 -0.016871 -0.348447
v 0.161879 -0.016915 -0.356187
v 0.134157 -0.017347 -0.369530
v 0.110102 -0.017375 -0.376880
v 0.077871 -0.017077 -0.382569
v 0.164745 0.054401 -0.129040
v 0.131749 0.053150 -0.161241
v 0.103505 0.034811 -0.289762
v 0.093224 0.026982 -0.323529
v 0.078808 0.016572 -0.358260
v -0.134827 0.142151 0.187234
v -0.158295 0.107172 0.180469
v -0.176569 0.064394 0.171776
v -0.191732 -0.031919 -0.296996
v -0.176954 -0.034136 -0.359016
v -0.170107 -0.034519 -0.372219
v -0.161873 -0.034992 -0.379323
v -0.133264 -0.036196 -0.391489
v -0.099051 -0.037343 -0.399967
v -0.054261 -0.038308 -0.405352
v 0.000001 -0.038715 -0.407323
v 0.185459 -0.023893 -0.320605
v 0.190039 -0.023263 -0.293179
v 0.131144 0.144055 0.195494
v 0.155067 0.112290 0.190731
v 0.176490 0.064541 0.184304
v 0.188511 -0.027980 -0.158040
v 0.190221 -0.055836 -0.146341
v 0.185861 -0.081252 -0.141810
v 0.167207 -0.086844 -0.140747
v -0.174843 -0.037023 -0.356958
v -0.168077 -0.037519 -0.371026
v -0.160206 -0.037843 -0.377835
v -0.113354 -0.039419 -0.395014
v -0.110267 -0.047873 -0.396825
v -0.113561 -0.050730 -0.396456
v -0.134605 -0.051185 -0.389903
v -0.163454 -0.050651 -0.376855
v -0.175127 -0.048758 -0.356257
v -0.176082 -0.040486 -0.354030
v -0.076807 -0.011383 -0.377841
v -0.089262 0.007199 -0.365298
v -0.152194 0.008468 -0.344903
v -0.161457 0.008119 -0.336686
v -0.175622 0.005357 -0.312905
v -0.180529 -0.009497 -0.315861
v -0.180514 -0.013065 -0.319522
v -0.171346 -0.014541 -0.338904
v -0.155870 -0.014057 -0.355159
v -0.122810 -0.014181 -0.369206
v -0.084476 -0.014565 -0.377728
v -0.190716 -0.023416 -0.293354
v -0.176531 -0.025479 -0.353941
v -0.169628 -0.026013 -0.368632
v -0.161797 -0.026278 -0.376202
v -0.131370 -0.027108 -0.389166
v -0.097220 -0.027438 -0.397780
v 0.000000 -0.028374 -0.405012
v 0.131224 0.141569 0.201403
v 0.154645 0.108702 0.196495
v 0.174079 0.064726 0.190588
v -0.186660 -0.023990 -0.292683
v -0.187379 -0.011389 -0.282173
v -0.188097 -0.000603 -0.266758
v -0.188432 0.005404 -0.251689
v -0.188742 0.008180 -0.232301
v -0.189662 0.003278 -0.196235
v -0.190158 -0.017205 -0.165239
v 0.165426 0.054161 -0.127925
v 0.172977 0.052396 -0.108894
v 0.175455 0.051621 -0.070910
v 0.176730 0.064388 0.204997
v 0.165467 0.073271 0.351167
v 0.158739 0.080043 0.373984
v 0.150275 0.092283 0.381143
v -0.193077 -0.053442 -0.146166
v -0.190747 -0.048801 0.233401
v 0.175588 0.064422 0.168193
v 0.176338 0.065301 0.183288
v 0.194506 -0.011266 0.243723
v 0.195013 0.007988 0.270316
v 0.194471 0.015142 0.300429
v 0.193679 0.011332 0.336209
v -0.193582 -0.010642 0.248210
v -0.195535 -0.018067 0.243898
v -0.193473 -0.021419 0.242117
v -0.178470 0.014605 0.404601
v -0.186669 -0.006775 0.404049
v 0.012704 0.045725 0.434311
v 0.015466 0.044453 0.439576
v -0.162150 0.047592 0.429945
v -0.142908 0.081750 0.433019
v -0.132856 0.092989 0.434842
v -0.123203 0.098603 0.435817
v 0.000001 0.102824 0.439831
v -0.096969 -0.070643 -0.386349
v 0.000001 -0.071166 -0.393171
v 0.035227 -0.084116 -0.390546
v 0.035208 -0.054835 -0.394846
v 0.190649 -0.055425 -0.304753
v 0.174278 -0.056458 -0.361077
v 0.166538 -0.056944 -0.374471
v 0.157021 -0.057064 -0.381583
v 0.128189 -0.057757 -0.393136
v 0.094937 -0.057965 -0.400711
v -0.000001 -0.058805 -0.407366
v 0.193854 -0.018077 -0.164467
v 0.191632 -0.011267 0.212298
v 0.194616 -0.011236 0.247759
v -0.187863 -0.082727 -0.311857
v -0.189151 -0.058278 -0.310759
v -0.173860 -0.058681 -0.359320
v -0.166538 -0.058962 -0.371784
v -0.157486 -0.059031 -0.378646
v -0.130004 -0.059720 -0.389884
v -0.093725 -0.059954 -0.398221
v 0.000001 -0.060784 -0.404679
l 1 2 3 4 5 6 7 8 9 10 11 12 13 14 15 16
l 17 18 19 20 21 22 23 24
l 25 26
l 27 28 29 30 31 32 33 34 35 36 27
l 37 38 39 40 41 42 43 44
l 45 46 47
l 48 49 50 51 52 48
l 53 54 55
l 56 57 58 59 60 61
l 62 63 64
l 65 66 67 68 69 70 71 72 73 74 75 65
l 76 77 78
l 79 80 81 82 83 84 85 86
l 87 88 89 90 91
l 92 93 94 95 96 97 98 99
l 100 101 102
l 103 104 105 106 107 108 109 110 111 112 113 103
l 114 115 116 117 118 119 120
l 121 122 123
l 124 125 126 127 128 129 130
l 131 132 133 134 135
l 136 137 138 139
l 140 141 142 143 144
l 145 146 147 148
l 149 150
l 151 152 153
l 154 155
l 156 157 158 159
l 160 161
l 162 163 164 165 166 167 168
l 169 170 171 172 173 174 175 176
l 177 178 179 180 181 182 183
l 184 185
l 186 187 188
l 189 190 191 192 193
l 194 195 196
l 197 198 199
l 200 201 202 203 204 205
l 206 207 208 209 210
l 211 212 213 214 215
l 216 217 218 219 220 221
l 222 223 224 225 226
l 227 228
l 229 230 231 232 233 234 235
l 236 237
l 238 239 240 241 242 243 244 245 246 247 248 249
l 250 251 252 253 254 255 256 257
l 258 259
l 260 261
l 262 263 264
l 265 266
l 267 268
l 269 270 271 272
l 273 274 275 276 277 278
l 279 280 281 282 283 279
l 284 285 286 287 288 289 290
l 162 291 292 293 294 295 168
l 296 297 298
l 299 300 301
l 140 302 303 304 305
l 306 307 308 309 310 311
l 312 313 314 315 316 312
l 317 318 319 320 321 322 323
l 324 325 326
l 327 328 327
l 329 330 331
l 131 332 333 334 335
l 336 337 338 339 340 341 342 343
l 344 345 346 347 348
l 349 350 351 352 353
l 354 355
l 356 357 358
l 359 360 361 362
l 363 364 365 366 367 368 369
l 370 371 372
l 373 374 375 376 377
l 378 379 380
l 381 382
l 383 384
l 385 386 387 388 389
l 390 391 392
l 393 394 395 396 397 398 399
l 400 401 402 403 404 405 406 407
l 408 409 410 411 412 413 414
l 415 416
l 417 418 419 420 421 422 423 424
l 425 426
l 427 428
l 429 430 431
l 432 433 434 435 436 437
l 438 439 440 441 442
l 443 444 445 446 447 448 449 450 451 452
l 453 454 455 456 457 458
l 459 460 461 462 463 464 465 466 467 468 469 470
l 471 472
l 473 474
l 475 476 477 478 479 480 481 482 483 484
l 485 486 487 488 489 278
l 490 491 492 493 494 495 496 497 498
l 499 500 501
l 502 503 504
l 505 506
l 507 508 509
l 510 511
l 512 513 514 515
l 516 517 518
l 519 520
l 521 522 523 524
l 525 526 527 528 529 530 531 532 533 534 535 536 537 525
l 538 539 540 541 542
l 543 544
l 545 546 547
l 548 549 550 551 552 553 554 555 556 557 558 548
l 559 560 561
l 562 563 564 565
l 566 567 568 569 570 571 572 573 574
l 575 576
l 577 578 579
l 580 581 582
l 583 584 585
l 586 587 588 589 590 591 592 593 594 595 596 597 598 599 600 601
l 602 603 604 605 606 607 608
l 609 610 611 612 613 614 615
l 616 617 618 619 620 621 622 623
l 624 625 626
l 627 628
l 629 630 631
l 632 633 634 635 636 637 638 639
l 640 641 642 643 644 645 646 647 648 649 650
l 651 652 653 654 655 656 657 658 659 660 661 662 663 651
l 664 665 666
l 667 668 669 670 671 672 673 176
l 674 675 676 677 678 679 680 681 682 683 674
l 684 685 686 687 688 689 690 691 692
l 693 694 693
l 695 696 697 698 699
l 700 701 702 703 704 705
l 706 707 708 709 710 711 712
l 713 714 715 716 717
l 718 719 720 721 722
l 723 724 725
l 726 727 728 729 730
l 731 237
l 732 733
l 734 735 736 737 738 739 740 741
l 742 743 744 745
l 746 747 748 749 750
l 751 752 753
l 754 755
l 756 757
l 758 759
l 760 761 762 272
l 763 764 765
l 766 767 768 769 770 766
l 771 772 773 774 775 776 777
l 778 779 780
l 781 782
l 783 784
l 785 786 787 788 789 790 791 792
l 793 794 795 796 797 798 799
l 800 801 802 803 804 805
l 806 807 808
l 809 810
l 811 812 811
l 813 814 815
l 816 817 818 819 820
l 821 822 823 824 825 826
l 827 828 829 830 831 832 833 834 835 836 837 838 839
l 840 841 842 843 844
l 845 846 847 848 849 850 851
l 566 567 568 569 570 571 572 852 853
l 854 855 856 857 858 859 860 861 862 863 854
l 864 865 866
l 867 868 869 870 871 872 873
l 874 875 876
l 877 878 879 880 881 882 883 884
l 885 886
l 887 888 889 890 891 892 893 639
l 894 895 896
l 897 898 899 900
l 901 902 903
l 904 905 906 907 908 909 910
l 911 912 913
l 914 915 916 917 918 919 920
l 921 922
l 923 924 925 926 927 928 929 930 931 932
l 933 934 935 936 937 938 939
l 940 941 942 943 944 945 946 623
l 947 948 949
l 950 951 952 953 954 955 956 957 958 959 960 961 962 963 964 965 950
l 966 967 968 969 970 971
l 972 973 974 975 976
l 977 978
l 979 980
l 981 982 983 984 985
l 986 987
l 988 989 990
l 991 992
l 993 994 995 996 997 998 999 1000 1001 1002 1003
l 1004 1005
l 1006 1007 1006
l 1008 1009 1010 1011 1012
l 1013 1014 1015 1016 1017 1018 1019 1020 1021
l 1022 1023 1024 1025 1026 1027 1028
l 1029 1030 1031 1032 1033
l 1034 1035 1036 1037 1038 1039 1040
l 1041 1042 1043 1044 1045 1046
l 1047 1048 561
l 1049 1050 1051 1052 1053
l 1054 1055
l 1056 1057 1058 1059 1060
l 1061 1062 1063 1064
l 1065 1066
l 827 828 829 830 831 832 833 834 1067 836 837 1068 839
l 1069 1070
l 1071 1072
l 1073 1074
l 1075 1076
l 1077 1078 1079 1080 1081
l 1082 1083 1084 1085 1086 1087 1088 1089
l 1090 1091 1092 1093 1094 1095 1096 1097
l 1098 1099 1100
l 1101 1102 1103 1104
l 1105 1106 1107
l 1108 1109 1110 1111 1112 1113 1114
l 1115 1116 1117 1118 1119
l 1120 1121 1122 1123 1124 1125 1126 1127 1128 1129
l 1130 1131 1132 1133 1134 1135 1136 1137 1138 1139
l 1140 1141 1142 1143 1144 1145 1146 1147
l 1148 1149 1150 1151 1152 1153 1154
l 1155 1156 1157
l 1158 1159 1160 1161 1162 1163 1164
l 1165 1166 1167 1168 1169 1170 1171
l 1172 1173 1174 1064
l 1175 1176
l 1177 1178 1179 1180 1181 1182 1183
l 1184 1185
l 1186 1187 1188 1189 1190 437
l 1022 1191 1192 1193 1194 1195 1196
l 1197 1198 1199
l 1200 1201 1202 1203 1204 1205 1206 1207
l 1208 1209 1210
l 1211 1212 1213
l 1214 1215 1216 1217
l 1218 1219 1220 1221 1222 1223 1224 1225 1226 1227
l 1228 1229 1230 1231
l 1232 1233 1234
l 1235 1236
l 336 1237 1238 1239 1240 1241 1242 343
l 1243 1244 1245 1246 1247 1248 1249
l 1250 1251
l 1252 1253
l 1254 1255 1256 1257 1258 1259 1260 1261 1262 1263 1264 1265 1266 1267 1268 1269 1254
l 1270 1271 1272 1273 1274
l 1275 1276 1277
l 1278 1279 1280 1281 1282 1283 1284 1285
l 1286 1287
l 1288 1289 1290
l 1291 1292 1293 1294
l 1295 1296 1297 1298 1299 1300 1301 1302 1303 1304 1295
l 1305 1306 1307 1308 1309 1310 1311 1312 1313 1314 1315 1305
l 1316 1317 1318 1319 1320 1321 1322
l 1323 1324 1325
l 1326 1327 1328 1329 1330 1331 1332
l 1333 1334 1335 1336 1337 1338 1339
l 1340 1341
l 1342 1343
l 1344 1345 1346 1347 216
l 1348 1349 1350
l 1351 1352
l 1353 1354
l 1355 1356 1357 1358 1359
l 1360 1361
l 1362 1363
l 1364 1365 1366 1367 1368 1369 1370
l 1371 1372 1373
l 1374 1375 1376 1377 1378 1379 1380 1381
