v -0.016883 0.047746 -0.056275
v -0.024028 0.053669 -0.043898
v 0.023246 0.106255 -0.064724
v 0.031424 0.073275 -0.076840
v 0.031454 0.053501 -0.077673
v -0.000555 -0.068057 -0.157111
v -0.018749 -0.063445 -0.154107
v -0.025549 -0.058422 -0.151012
v -0.028738 -0.028332 -0.145815
v -0.031838 -0.007061 -0.128596
v -0.018266 0.044715 -0.120232
v -0.019918 0.066693 -0.108345
v -0.014573 0.070771 -0.108759
v -0.000533 0.070650 -0.113519
v 0.000112 -0.030443 -0.158976
v 0.014559 -0.030410 -0.155216
v 0.028456 -0.029432 -0.146239
v -0.000000 0.074097 -0.105910
v -0.000000 0.103506 -0.105334
v -0.000000 0.126443 -0.099102
v -0.000000 0.135784 -0.091197
v -0.000000 0.149509 -0.070619
v 0.000052 0.108796 -0.104413
v 0.015739 0.108504 -0.098586
v 0.026611 0.107744 -0.085126
v -0.030220 -0.029854 -0.146682
v -0.036892 -0.040324 -0.135945
v -0.040011 -0.038465 -0.130078
v -0.040956 -0.038261 -0.134416
v 0.024012 0.030618 -0.122641
v 0.033614 0.031921 -0.109231
v 0.038280 0.031552 -0.091995
v 0.020899 0.072517 -0.102324
v 0.025586 0.064285 -0.103392
v 0.023502 0.045202 -0.113034
v -0.007969 0.035799 -0.134099
v -0.016712 0.043389 -0.123923
v 0.009350 0.013179 -0.136644
v 0.019784 0.021842 -0.129319
v -0.001790 -0.005408 -0.146565
v -0.031873 -0.006793 -0.129466
v 0.068210 -0.055910 -0.068479
v 0.072830 -0.064690 -0.069292
v 0.081850 -0.061566 -0.067538
v 0.087030 -0.044438 -0.066182
v 0.061138 -0.034497 -0.066747
v 0.054935 -0.042903 -0.070670
v -0.063951 -0.080904 -0.121432
v -0.072628 -0.065793 -0.068790
v 0.035661 -0.057406 -0.134774
v 0.039743 -0.056892 -0.133669
v 0.048663 -0.066931 -0.127568
v 0.025783 -0.063732 -0.133115
v 0.052553 0.005294 -0.095075
v 0.038059 -0.006451 -0.054018
v -0.018627 -0.065115 -0.136658
v -0.023078 -0.053512 -0.100820
v -0.024937 -0.038279 -0.083904
v -0.028677 -0.036586 -0.041093
v 0.000212 -0.067905 -0.155317
v -0.000004 -0.064813 -0.103709
v -0.000138 -0.044092 -0.072920
v -0.000000 -0.049928 0.030968
v -0.000519 -0.079196 -0.008032
v -0.024238 -0.076201 -0.009111
v -0.035894 -0.067355 -0.009828
v -0.038042 -0.061929 -0.010275
v -0.034192 -0.049307 -0.011272
v -0.000520 -0.046836 -0.012071
v 0.058777 -0.030694 -0.034475
v 0.053741 -0.042786 -0.034345
v 0.063588 -0.050146 -0.034500
v -0.056396 -0.066177 -0.122551
v -0.061642 -0.076304 -0.120677
v -0.068901 -0.073168 -0.112660
v -0.072071 -0.053983 -0.105999
v -0.046804 -0.041913 -0.123560
v -0.044163 -0.052278 -0.130990
v 0.058245 -0.062689 -0.108695
v 0.055762 -0.064841 -0.122638
v 0.053950 -0.051438 -0.108914
v 0.046766 -0.042221 -0.123543
v -0.207357 0.023483 0.073817
v -0.217401 0.025938 0.074335
v -0.221230 0.031254 0.075304
v -0.239600 0.112791 0.090741
v -0.248094 0.118177 0.093049
v -0.267562 0.121930 0.097282
v 0.046625 -0.042123 -0.123505
v 0.047120 -0.039323 -0.127772
v -0.044088 -0.051052 -0.130884
v -0.044123 -0.051561 -0.135987
v 0.061548 -0.076247 -0.120974
v 0.064086 -0.080174 -0.123082
v -0.061533 -0.076338 -0.120904
v -0.064085 -0.080264 -0.122997
v 0.038712 -0.054814 -0.138796
v 0.038557 -0.056412 -0.134765
v 0.070513 -0.071365 -0.111553
v 0.073672 -0.075020 -0.113273
v -0.125062 0.030173 -0.039540
v -0.134891 0.014390 0.095291
v 0.193499 0.029604 -0.017077
v 0.194131 0.023134 -0.010638
v 0.195794 0.019980 0.005165
v 0.201583 0.022407 0.074525
v -0.105812 0.013445 -0.055184
v -0.113383 -0.003294 0.085489
v 0.076421 -0.052671 -0.106515
v 0.087080 -0.043891 -0.066855
v -0.211249 0.030624 -0.010964
v -0.219756 0.032216 -0.009055
v -0.223737 0.036517 -0.006431
v -0.239406 0.104939 0.029332
v -0.247016 0.121392 0.038421
v -0.273735 0.126472 0.057579
v -0.267598 0.122072 0.096690
v 0.035415 0.024740 -0.065316
v 0.045179 0.000377 -0.074825
v 0.042457 -0.022549 -0.086717
v 0.054110 -0.035561 -0.090403
v 0.079903 -0.049166 -0.091752
v 0.078261 -0.068818 -0.093674
v 0.242069 0.111956 0.032097
v 0.246061 0.109442 0.039107
v 0.246626 0.106733 0.057986
v 0.243133 0.105262 0.078125
v 0.237414 0.104860 0.089076
v -0.054268 0.017962 -0.021879
v -0.069904 0.012739 -0.020093
v -0.106746 0.007996 -0.014279
v 0.212107 0.031386 -0.010828
v 0.211542 0.025382 -0.003772
v 0.212204 0.021852 0.018605
v 0.213256 0.020646 0.057205
v 0.213250 0.023962 0.074622
v -0.041331 0.026355 -0.084309
v -0.032314 0.018934 -0.042090
v -0.034844 0.009076 -0.002627
v -0.033140 -0.005087 0.054543
v 0.000468 -0.086663 -0.014022
v 0.032626 -0.081723 -0.013063
v 0.045885 -0.070265 -0.014075
v 0.042966 -0.052753 -0.015514
v 0.052696 -0.049370 -0.013643
v -0.005826 0.153855 -0.073556
v -0.008656 0.245150 -0.050550
v -0.012050 0.334884 -0.018807
v -0.011889 0.369305 0.058496
v -0.014318 0.439942 0.096858
v -0.014357 0.454768 0.112517
v -0.010865 0.463130 0.156105
v -0.000075 0.467458 0.260890
v 0.045721 -0.070294 -0.014189
v 0.045230 -0.060750 0.056618
v 0.024473 -0.050152 0.093854
v -0.000000 -0.075463 0.040463
v -0.000000 -0.079132 -0.007802
v -0.262912 0.125635 0.048825
v -0.263373 0.121339 0.054767
v -0.262526 0.118274 0.069951
v -0.258155 0.120845 0.095697
v -0.000000 0.468070 0.260416
v -0.000000 0.280205 0.261575
v -0.000000 0.267142 0.250601
v -0.000000 0.219794 0.181688
v -0.000000 0.200534 0.161350
v -0.000000 0.183193 0.156926
v -0.000000 0.098276 0.157791
v -0.272964 0.127512 0.056178
v -0.269922 0.129024 0.074112
v -0.266916 0.123200 0.096748
v 0.019039 -0.159423 0.038778
v 0.027496 -0.155601 0.057541
v 0.031948 -0.127121 0.077271
v 0.038927 -0.115585 0.119790
v 0.038566 -0.109072 0.138409
v 0.034926 -0.083556 0.139417
v 0.034252 -0.074956 0.136856
v 0.026573 -0.068871 0.100283
v 0.030952 -0.079270 0.064644
v -0.066539 -0.024117 0.089254
v -0.028043 -0.068367 0.102150
v 0.034913 0.118056 -0.058261
v 0.043822 0.127124 0.032521
v 0.043180 0.137488 0.135840
v 0.000507 -0.095895 0.028002
v 0.010149 -0.097135 0.028924
v 0.014364 -0.101338 0.029964
v 0.020455 -0.149325 0.037488
v 0.017441 -0.159743 0.038579
v 0.000482 -0.161144 0.037539
v -0.036254 0.116865 -0.059243
v -0.067245 0.120932 -0.030640
v -0.074469 0.114937 -0.027732
v -0.080658 0.103803 -0.028153
v -0.074874 0.097103 -0.035422
v -0.039704 0.082474 -0.066095
v -0.038286 0.068310 -0.069795
v 0.047719 0.011915 0.090994
v 0.050990 0.003990 0.148876
v 0.052307 0.025597 0.171845
v 0.052156 0.032204 0.170365
v 0.052992 0.035822 0.138885
v 0.052485 0.042571 0.134948
v 0.048973 0.073647 0.133761
v 0.053764 0.090627 0.162616
v 0.052531 0.120522 0.172703
v 0.048477 0.131702 0.169468
v 0.036390 0.154374 0.149671
v -0.035538 0.153909 0.149345
v -0.044833 0.159074 0.127339
v -0.053371 0.161049 0.120432
v -0.139978 0.168316 0.103984
v -0.157086 0.168236 0.100310
v -0.162809 0.165098 0.098798
v -0.164405 0.149712 0.099455
v -0.160113 0.144334 0.100322
v -0.124968 0.143047 0.105984
v -0.106222 0.153317 0.108767
v -0.071376 0.152274 0.118093
v -0.048404 0.148991 0.124690
v -0.042524 0.136712 0.132009
v 0.041104 0.048089 -0.072345
v 0.046025 0.050084 -0.039543
v 0.047086 0.049893 -0.002408
v 0.037125 0.043780 0.081761
v -0.042114 -0.024709 0.060717
v -0.068746 -0.025414 0.086489
v -0.059415 -0.016563 0.114785
v -0.051581 -0.031567 0.122134
v -0.032508 -0.074125 0.134172
v 0.056917 -0.016915 0.114596
v 0.025169 0.001930 0.167957
v 0.020219 0.021219 0.176706
v 0.020458 0.032938 0.175645
v 0.035053 0.037123 0.147820
v 0.036493 0.043961 0.144288
v 0.034666 0.075166 0.142744
v 0.026815 0.091394 0.171360
v 0.022081 0.121116 0.180910
v 0.020143 0.133467 0.176370
v 0.018531 0.163047 0.152536
v -0.056465 0.165203 -0.012856
v -0.060207 0.162228 0.118826
v -0.033552 -0.064666 0.122896
v -0.041551 -0.113156 0.133647
v 0.015780 -0.098896 0.032324
v 0.031647 -0.124715 0.078172
v -0.018991 -0.194609 0.040285
v -0.033103 -0.207491 0.087239
v 0.033079 -0.064439 0.120729
v 0.040681 -0.112221 0.131078
v -0.072242 0.023153 -0.068385
v -0.106874 0.015990 -0.056744
v -0.119469 0.023967 -0.047305
v -0.123293 0.029825 -0.043356
v -0.107882 0.049106 -0.045844
v -0.069733 0.046598 -0.061189
v -0.062244 0.044249 -0.065043
v -0.055621 0.034679 -0.071650
v -0.063256 0.026094 -0.071146
v -0.000262 0.083446 0.147381
v -0.018319 0.074301 0.147034
v -0.021094 0.054722 0.145298
v -0.012072 0.054194 0.147336
v -0.009391 0.060233 0.149437
v -0.000290 0.061247 0.149442
v -0.000253 -0.054334 0.136806
v -0.023966 -0.055330 0.133859
v -0.044786 -0.024629 0.123295
v -0.030001 -0.017581 0.129362
v -0.022530 -0.024871 0.135469
v -0.013282 -0.016503 0.157162
v -0.000531 -0.015735 0.157791
v -0.000193 -0.198550 0.118546
v -0.014147 -0.196924 0.117983
v -0.008695 -0.183201 0.123374
v -0.000194 -0.182866 0.124006
v 0.000253 -0.177215 0.123654
v 0.009829 -0.176258 0.122067
v 0.007536 -0.167225 0.110441
v 0.000253 -0.166807 0.110157
v -0.062174 -0.042723 -0.103805
v -0.059167 -0.041218 -0.103808
v -0.059970 -0.040642 -0.100767
v -0.070247 -0.045163 -0.100141
v -0.069533 -0.045666 -0.102440
v 0.031845 0.010478 -0.118938
v 0.031528 0.013700 -0.118027
v 0.033520 0.012756 -0.115711
v 0.035322 0.001983 -0.118385
v 0.033710 0.002739 -0.120081
v -0.078954 0.042950 -0.039320
v -0.070332 0.042327 -0.040433
v -0.068232 0.043282 -0.035897
v -0.070369 0.044242 -0.032372
v -0.094134 0.047879 -0.025351
v -0.098805 0.047674 -0.027018
v -0.098631 0.045933 -0.033145
v 0.081818 0.038424 0.008483
v 0.076561 0.037876 0.008146
v 0.076836 0.039344 0.012953
v 0.094209 0.042050 0.015033
v 0.093917 0.040760 0.011395
v -0.115385 0.029328 0.095957
v -0.107389 0.031788 0.096099
v -0.084720 0.027915 0.093137
v -0.061544 0.022103 0.089420
v -0.056734 0.016514 0.087757
v -0.125971 0.019498 0.093708
v -0.089222 0.107275 0.131135
v -0.088702 0.103333 0.131307
v -0.085871 0.101574 0.134142
v -0.061714 0.097207 0.159239
v -0.058602 0.120784 0.167268
v -0.064858 0.124194 0.160062
v -0.086250 0.126720 0.136439
v 0.028132 0.278879 -0.000306
v 0.025616 0.270737 -0.023747
v 0.025528 0.271699 -0.028336
v 0.031234 0.319123 0.022973
v 0.029020 0.286080 0.008748
v -0.022694 -0.100182 0.141578
v -0.025855 -0.109779 0.143125
v -0.022345 -0.115729 0.143859
v -0.016615 -0.112060 0.144178
v -0.015987 -0.100981 0.141993
v -0.018931 -0.096025 0.141133
v -0.000955 -0.123522 0.039584
v 0.005188 -0.122772 0.039525
v 0.006079 -0.118711 0.038763
v 0.004628 -0.110506 0.037030
v -0.001142 -0.109207 0.036865
v -0.049760 0.128568 0.172179
v -0.021119 0.126925 0.180514
v 0.053481 0.093228 0.164975
v 0.028237 0.093590 0.173010
v -0.049722 0.075565 0.135467
v -0.034445 0.076169 0.144319
v -0.053045 0.089769 0.162323
v -0.027806 0.090497 0.170349
v -0.000507 -0.095895 0.028002
v -0.010149 -0.097135 0.028924
v -0.014364 -0.101338 0.029964
v -0.020455 -0.149325 0.037488
v -0.017441 -0.159743 0.038579
v -0.000482 -0.161144 0.037539
v 0.056465 0.165203 -0.012856
v 0.060207 0.162228 0.118826
v 0.000253 -0.054334 0.136806
v 0.023966 -0.055330 0.133859
v 0.044786 -0.024629 0.123295
v 0.030001 -0.017581 0.129362
v 0.022530 -0.024871 0.135469
v 0.013282 -0.016503 0.157162
v 0.000531 -0.015735 0.157791
v -0.070513 -0.071365 -0.111553
v -0.073672 -0.075020 -0.113273
v -0.242069 0.111956 0.032097
v -0.246061 0.109442 0.039107
v -0.246626 0.106733 0.057986
v -0.243133 0.105262 0.078125
v -0.237414 0.104860 0.089076
v 0.051499 0.028639 0.172372
v 0.020715 0.028246 0.178055
v -0.052553 0.005294 -0.095075
v -0.038059 -0.006451 -0.054018
v -0.053950 -0.051438 -0.108914
v -0.046766 -0.042221 -0.123543
v -0.020899 0.072517 -0.102324
v -0.025586 0.064285 -0.103392
v -0.023502 0.045202 -0.113034
v 0.030220 -0.029854 -0.146682
v 0.036892 -0.040324 -0.135945
v 0.040011 -0.038465 -0.130078
v 0.040956 -0.038261 -0.134416
v -0.025089 -0.059713 -0.151496
v -0.042946 -0.044582 -0.133954
v -0.052344 0.005444 -0.095287
v -0.033263 0.047548 -0.083887
v -0.034927 0.082117 -0.073183
v -0.023225 0.139934 -0.072113
v -0.013816 0.150953 -0.072692
v 0.001824 0.153776 -0.074740
v -0.061747 -0.067986 -0.108108
v -0.061257 -0.076120 -0.120556
v -0.063539 0.043903 -0.062832
v -0.060569 0.026822 0.091756
v 0.036456 -0.222816 0.039773
v 0.034581 -0.231714 0.073241
v 0.028691 -0.211451 0.095177
v 0.030572 -0.205055 0.088123
v -0.043445 0.136403 0.132126
v -0.085167 0.131964 0.130918
v -0.090502 0.127246 0.130045
v -0.093240 0.117345 0.128653
v -0.090497 0.100763 0.124924
v -0.047137 0.065845 0.093552
v -0.038531 0.055701 0.086645
v -0.037012 0.039984 0.082727
v -0.060779 0.026444 0.090446
v 0.077675 0.107808 0.132367
v 0.076272 0.103885 0.135084
v 0.064427 0.100784 0.155774
v 0.062167 0.117047 0.160855
v 0.075336 0.121140 0.135746
v 0.115385 0.029328 0.095957
v 0.107389 0.031788 0.096099
v 0.084720 0.027915 0.093137
v 0.061544 0.022103 0.089420
v 0.056734 0.016514 0.087757
v 0.125971 0.019498 0.093708
v 0.056396 -0.066177 -0.122551
v 0.061642 -0.076304 -0.120677
v 0.068901 -0.073168 -0.112660
v 0.072071 -0.053983 -0.105999
v 0.046804 -0.041913 -0.123560
v 0.044163 -0.052278 -0.130990
v 0.072148 -0.053866 -0.106045
v 0.076579 -0.053749 -0.106759
v 0.019534 0.228904 -0.048356
v 0.027701 0.236133 -0.019240
v 0.033483 0.245161 0.018241
v 0.035057 0.265361 0.104774
v 0.023335 0.284974 0.191560
v 0.000414 0.300672 0.263520
v 0.211249 0.030624 -0.010964
v 0.219756 0.032216 -0.009055
v 0.223737 0.036517 -0.006431
v 0.239406 0.104939 0.029332
v 0.247016 0.121392 0.038421
v 0.273735 0.126472 0.057579
v 0.267598 0.122072 0.096690
v 0.066539 -0.024117 0.089254
v 0.028043 -0.068367 0.102150
v 0.024771 -0.060005 -0.150687
v 0.028190 -0.059529 -0.139883
v 0.068945 -0.057182 -0.068608
v 0.056451 -0.055952 -0.026029
v 0.046321 -0.069560 -0.014094
v -0.000042 0.136798 -0.089840
v -0.009472 0.136888 -0.086702
v -0.016533 0.137359 -0.079953
v -0.058692 -0.063220 -0.108443
v -0.061783 -0.067954 -0.107718
v -0.066561 -0.065673 -0.106039
v -0.068658 -0.055762 -0.105683
v -0.053329 -0.051542 -0.109282
v -0.050996 -0.057288 -0.110952
v 0.063951 -0.080904 -0.121432
v 0.072628 -0.065793 -0.068790
v -0.034830 -0.056020 -0.139626
v -0.041020 -0.055282 -0.137766
v -0.054211 -0.070662 -0.127933
v -0.019586 -0.065507 -0.137447
v 0.013989 -0.213552 -0.000004
v 0.035622 -0.221655 0.037684
v -0.047719 0.011915 0.090994
v -0.050990 0.003990 0.148876
v -0.052307 0.025597 0.171845
v -0.052156 0.032204 0.170365
v -0.052992 0.035822 0.138885
v -0.052485 0.042571 0.134948
v -0.048973 0.073647 0.133761
v -0.053764 0.090627 0.162616
v -0.052531 0.120522 0.172703
v -0.048477 0.131702 0.169468
v -0.036390 0.154374 0.149671
v -0.015780 -0.098896 0.032324
v -0.031647 -0.124715 0.078172
v 0.005826 0.153855 -0.073556
v 0.008656 0.245150 -0.050550
v 0.012050 0.334884 -0.018807
v 0.011889 0.369305 0.058496
v 0.014318 0.439942 0.096858
v 0.014357 0.454768 0.112517
v 0.010865 0.463130 0.156105
v 0.000075 0.467458 0.260890
v -0.000000 -0.086329 -0.013986
v -0.000000 -0.086447 0.017353
v -0.000000 -0.095836 0.027910
v -0.000000 -0.088076 0.049811
v -0.109425 0.028265 0.092653
v -0.103616 0.030041 0.092596
v -0.087193 0.027094 0.090372
v -0.070411 0.022714 0.087664
v -0.066942 0.018595 0.086609
v -0.117141 0.021075 0.091467
v -0.052290 0.031939 0.170880
v -0.021525 0.032055 0.176673
v 0.049722 0.075565 0.135467
v 0.034445 0.076169 0.144319
v -0.193499 0.029604 -0.017077
v -0.194131 0.023134 -0.010638
v -0.195794 0.019980 0.005165
v -0.201583 0.022407 0.074525
v 0.078954 0.042950 -0.039320
v 0.070332 0.042327 -0.040433
v 0.068232 0.043282 -0.035897
v 0.070369 0.044242 -0.032372
v 0.094134 0.047879 -0.025351
v 0.098805 0.047674 -0.027018
v 0.098631 0.045933 -0.033145
v 0.049760 0.128568 0.172179
v 0.021119 0.126925 0.180514
v -0.046011 -0.035885 -0.123353
v -0.038395 -0.008836 -0.056268
v -0.031145 0.018382 -0.043236
v -0.035643 0.024947 -0.039964
v -0.059480 0.039749 -0.028875
v -0.263006 0.124972 0.048658
v -0.261268 0.128023 0.055111
v -0.258782 0.127977 0.070423
v -0.257410 0.120155 0.095434
v -0.046625 -0.042123 -0.123505
v -0.047120 -0.039323 -0.127772
v 0.056671 -0.244931 0.028769
v 0.000318 -0.250734 0.034795
v -0.081247 0.034226 0.053603
v -0.075979 0.033694 0.053528
v -0.076503 0.035093 0.058336
v -0.093967 0.037734 0.059561
v -0.093486 0.036496 0.055924
v 0.105812 0.013445 -0.055184
v 0.113383 -0.003294 0.085489
v -0.033079 -0.064439 0.120729
v -0.040681 -0.112221 0.131078
v 0.228405 0.054232 0.003594
v 0.232682 0.051978 0.010814
v 0.232606 0.047475 0.031591
v 0.228655 0.040684 0.062682
v 0.223249 0.037322 0.076691
v -0.076421 -0.052671 -0.106515
v -0.087080 -0.043891 -0.066855
v 0.059713 0.039219 -0.028465
v 0.074374 0.043020 -0.021652
v 0.109005 0.044318 -0.006981
v -0.212107 0.031386 -0.010828
v -0.211542 0.025382 -0.003772
v -0.212204 0.021852 0.018605
v -0.213256 0.020646 0.057205
v -0.213250 0.023962 0.074622
v 0.028645 -0.083843 -0.012309
v 0.030947 -0.081401 0.058213
v 0.021707 -0.061371 0.096730
v -0.000468 -0.086663 -0.014022
v -0.032626 -0.081723 -0.013063
v -0.045885 -0.070265 -0.014075
v -0.042966 -0.052753 -0.015514
v -0.052696 -0.049370 -0.013643
v 0.041372 0.031001 -0.085617
v 0.045790 0.027110 -0.067479
v 0.072859 0.031199 -0.061800
v 0.211224 0.030532 -0.010681
v -0.019039 -0.159423 0.038778
v -0.027496 -0.155601 0.057541
v -0.031948 -0.127121 0.077271
v -0.038927 -0.115585 0.119790
v -0.038566 -0.109072 0.138409
v -0.034926 -0.083556 0.139417
v -0.034252 -0.074956 0.136856
v -0.026573 -0.068871 0.100283
v -0.030952 -0.079270 0.064644
v 0.032543 0.132587 -0.058501
v 0.058840 0.165493 -0.012729
v 0.098447 0.167366 0.022998
v 0.125954 0.143096 0.042266
v 0.132962 0.141203 0.048547
v 0.162735 0.145464 0.079319
v 0.163314 0.166004 0.098359
v -0.041104 0.048089 -0.072345
v -0.046025 0.050084 -0.039543
v -0.047086 0.049893 -0.002408
v -0.037125 0.043780 0.081761
v 0.000392 0.028152 -0.140216
v -0.014536 0.029209 -0.134416
v -0.023434 0.030456 -0.122731
v -0.006255 0.037567 -0.134080
v -0.014937 0.045330 -0.123983
v 0.001790 -0.005408 -0.146565
v 0.031873 -0.006793 -0.129466
v -0.000394 -0.067623 -0.156207
v -0.018555 -0.064416 -0.138345
v 0.000519 -0.079196 -0.008032
v 0.024238 -0.076201 -0.009111
v 0.035894 -0.067355 -0.009828
v 0.038042 -0.061929 -0.010275
v 0.034192 -0.049307 -0.011272
v 0.000520 -0.046836 -0.012071
v -0.068414 -0.071870 -0.091106
v -0.060048 -0.060864 -0.092467
v -0.023931 -0.053086 -0.100502
v -0.071992 -0.053750 -0.106231
v -0.068591 -0.055529 -0.105940
v 0.044088 -0.051052 -0.130884
v 0.044123 -0.051561 -0.135987
v -0.051212 -0.057075 -0.111471
v -0.044373 -0.051299 -0.130797
v 0.061533 -0.076338 -0.120904
v 0.064085 -0.080264 -0.122997
v -0.048827 -0.066805 -0.127962
v -0.053555 -0.070304 -0.128505
v 0.062174 -0.042723 -0.103805
v 0.059167 -0.041218 -0.103808
v 0.059970 -0.040642 -0.100767
v 0.070247 -0.045163 -0.100141
v 0.069533 -0.045666 -0.102440
v 0.022694 -0.100182 0.141578
v 0.025855 -0.109779 0.143125
v 0.022345 -0.115729 0.143859
v 0.016615 -0.112060 0.144178
v 0.015987 -0.100981 0.141993
v 0.018931 -0.096025 0.141133
v -0.000016 -0.153108 0.044561
v -0.010496 -0.152025 0.044414
v -0.012132 -0.145089 0.043407
v -0.009904 -0.130961 0.041099
v -0.000123 -0.128555 0.041014
v 0.037966 0.079305 -0.062364
v 0.039427 0.057543 0.087927
v 0.074887 0.023050 -0.059652
v 0.103126 0.017527 -0.050849
v 0.115927 0.028076 -0.038889
v 0.102802 0.043228 -0.039278
v 0.072055 0.041177 -0.051884
v 0.066081 0.039354 -0.055192
v 0.061056 0.031999 -0.061325
v 0.067522 0.025331 -0.061636
v 0.000555 -0.068057 -0.157111
v 0.018749 -0.063445 -0.154107
v 0.025549 -0.058422 -0.151012
v 0.028738 -0.028332 -0.145815
v 0.031838 -0.007061 -0.128596
v 0.018266 0.044715 -0.120232
v 0.019918 0.066693 -0.108345
v 0.014573 0.070771 -0.108759
v 0.000533 0.070650 -0.113519
v 0.007969 0.035799 -0.134099
v 0.016712 0.043389 -0.123923
v 0.018627 -0.065115 -0.136658
v 0.023078 -0.053512 -0.100820
v 0.024937 -0.038279 -0.083904
v 0.028677 -0.036586 -0.041093
v -0.000056 -0.079344 -0.008026
v -0.000053 -0.086258 -0.013810
v 0.207357 0.023483 0.073817
v 0.217401 0.025938 0.074335
v 0.221230 0.031254 0.075304
v 0.239600 0.112791 0.090741
v 0.248094 0.118177 0.093049
v 0.267562 0.121930 0.097282
v -0.078821 0.034977 0.050743
v -0.070155 0.034046 0.050749
v -0.068629 0.034893 0.055529
v -0.071170 0.035907 0.058758
v -0.095501 0.040365 0.062684
v -0.099920 0.040342 0.060424
v -0.099015 0.038637 0.054351
v 0.000262 0.083446 0.147381
v 0.018319 0.074301 0.147034
v 0.021094 0.054722 0.145298
v 0.012072 0.054194 0.147336
v 0.009391 0.060233 0.149437
v 0.000290 0.061247 0.149442
v -0.035498 0.053883 -0.074314
v -0.029941 0.092300 -0.069680
v -0.022195 0.112141 -0.062333
v 0.000193 -0.198550 0.118546
v 0.014147 -0.196924 0.117983
v 0.008695 -0.183201 0.123374
v 0.000194 -0.182866 0.124006
v 0.053045 0.089769 0.162323
v 0.027806 0.090497 0.170349
v 0.035927 0.091486 -0.068413
v 0.079012 0.103579 -0.029408
v 0.089523 0.106099 -0.009872
v 0.094763 0.107184 0.039592
v 0.091173 0.105485 0.125981
v -0.034913 0.118056 -0.058261
v -0.043822 0.127124 0.032521
v -0.043180 0.137488 0.135840
v -0.056917 -0.016915 0.114596
v -0.025169 0.001930 0.167957
v -0.020219 0.021219 0.176706
v -0.020458 0.032938 0.175645
v -0.035053 0.037123 0.147820
v -0.036493 0.043961 0.144288
v -0.034666 0.075166 0.142744
v -0.026815 0.091394 0.171360
v -0.022081 0.121116 0.180910
v -0.020143 0.133467 0.176370
v -0.018531 0.163047 0.152536
v -0.067804 -0.040328 -0.079332
v -0.064776 -0.038886 -0.079081
v -0.065791 -0.038357 -0.076095
v -0.076171 -0.042675 -0.076328
v -0.075298 -0.043145 -0.078578
v -0.047290 -0.039425 -0.127187
v -0.060841 -0.033787 -0.067816
v 0.089222 0.107275 0.131135
v 0.088702 0.103333 0.131307
v 0.085871 0.101574 0.134142
v 0.061714 0.097207 0.159239
v 0.058602 0.120784 0.167268
v 0.064858 0.124194 0.160062
v 0.086250 0.126720 0.136439
v -0.031969 0.327231 -0.000691
v -0.032872 0.335792 0.022718
v -0.033013 0.334857 0.027321
v -0.026173 0.286934 -0.023373
v -0.030845 0.319943 -0.009648
v 0.016883 0.047746 -0.056275
v 0.024028 0.053669 -0.043898
v -0.033332 -0.232073 0.072971
v -0.008821 -0.224874 0.081282
v -0.000247 -0.233159 0.088794
v -0.118421 0.002662 0.088830
v -0.110874 -0.000610 0.087299
v -0.087789 0.000979 0.085798
v -0.063879 0.004461 0.084859
v -0.058324 0.009564 0.085352
v -0.127385 0.013580 0.092596
v 0.029906 -0.204347 0.087805
v 0.024300 -0.200241 0.116340
v 0.016347 -0.183451 0.124524
v 0.014709 -0.178278 0.123914
v 0.012193 -0.164302 0.108659
v 0.005664 -0.123576 0.114456
v 0.025089 -0.059713 -0.151496
v 0.042946 -0.044582 -0.133954
v 0.052344 0.005444 -0.095287
v 0.033263 0.047548 -0.083887
v 0.034927 0.082117 -0.073183
v 0.023225 0.139934 -0.072113
v 0.013816 0.150953 -0.072692
v -0.001824 0.153776 -0.074740
v -0.036456 -0.222816 0.039773
v -0.034581 -0.231714 0.073241
v -0.028691 -0.211451 0.095177
v -0.030572 -0.205055 0.088123
v 0.000032 -0.048893 0.134798
v 0.018377 -0.049419 0.133708
v 0.030261 -0.032954 0.128412
v 0.022087 -0.028816 0.131467
v 0.017825 -0.032755 0.134638
v 0.012391 -0.028154 0.146331
v 0.000178 -0.027685 0.145981
v -0.000481 0.089671 0.147286
v -0.025992 0.076844 0.147388
v -0.029265 0.045217 0.145460
v -0.012850 0.040836 0.147917
v -0.009673 0.051544 0.152454
v -0.010763 0.045899 0.166487
v -0.011159 0.032277 0.174916
v -0.000529 0.030417 0.174772
v -0.000523 -0.202159 0.104568
v -0.019237 -0.205973 0.101511
v -0.024605 -0.217088 0.090511
v -0.018191 -0.218597 0.091456
v -0.014792 -0.215485 0.094147
v -0.007981 -0.214754 0.095044
v -0.004911 -0.219827 0.092697
v -0.000527 -0.220224 0.092846
v 0.000197 -0.200981 0.118728
v 0.018257 -0.199043 0.118689
v 0.010656 -0.181175 0.125402
v 0.000131 -0.180914 0.126339
v 0.061100 -0.041498 -0.105606
v 0.056136 -0.039051 -0.105530
v 0.057390 -0.038392 -0.100462
v 0.074335 -0.045788 -0.099655
v 0.073211 -0.046398 -0.103494
v -0.031845 0.010478 -0.118938
v -0.031528 0.013700 -0.118027
v -0.033520 0.012756 -0.115711
v -0.035322 0.001983 -0.118385
v -0.033710 0.002739 -0.120081
v 0.080960 0.042147 -0.036164
v 0.075730 0.041800 -0.036919
v 0.075678 0.043234 -0.032094
v 0.092922 0.045269 -0.028629
v 0.092870 0.044007 -0.032290
v -0.081818 0.038424 0.008483
v -0.076561 0.037876 0.008146
v -0.076836 0.039344 0.012953
v -0.094209 0.042050 0.015033
v -0.093917 0.040760 0.011395
v 0.113015 0.003383 0.085964
v 0.107535 0.001010 0.084857
v 0.090770 0.002152 0.083850
v 0.073407 0.004664 0.083266
v 0.069371 0.008360 0.083671
v 0.119526 0.011295 0.088734
v -0.077675 0.107808 0.132367
v -0.076272 0.103885 0.135084
v -0.064427 0.100784 0.155774
v -0.062167 0.117047 0.160855
v -0.075336 0.121140 0.135746
v 0.030331 0.459883 0.181591
v 0.021610 0.363423 0.177724
v 0.019402 0.341519 0.179482
v 0.016131 0.333210 0.195155
v 0.000058 0.314945 0.263143
v 0.034271 0.358151 0.087751
v 0.036692 0.244037 0.082476
v 0.041065 0.199781 0.078603
v 0.046686 0.177252 0.076286
v 0.052739 0.165485 0.075117
v 0.058669 0.162358 0.074685
v 0.107990 0.165236 0.071936
v 0.000955 -0.123522 0.039584
v -0.005188 -0.122772 0.039525
v -0.006079 -0.118711 0.038763
v -0.004628 -0.110506 0.037030
v 0.001142 -0.109207 0.036865
v 0.049359 0.004499 0.149958
v 0.025873 0.002815 0.170590
v -0.053481 0.093228 0.164975
v -0.028237 0.093590 0.173010
v 0.052146 0.041132 0.136445
v 0.037142 0.041021 0.145772
v -0.051499 0.028639 0.172372
v -0.020715 0.028246 0.178055
v 0.052175 0.124852 0.173759
v 0.023411 0.123038 0.181624
v -0.032116 -0.029487 -0.145033
v -0.030725 -0.037220 -0.159361
v -0.031251 -0.042127 -0.158670
v -0.038690 -0.038632 -0.133215
v -0.040358 -0.035992 -0.128820
v -0.042425 -0.035357 -0.130830
v -0.074363 -0.075190 -0.112226
v -0.082912 -0.060359 -0.067666
v 0.034830 -0.056020 -0.139626
v 0.041020 -0.055282 -0.137766
v 0.054211 -0.070662 -0.127933
v 0.019586 -0.065507 -0.137447
v -0.054231 -0.070490 -0.127606
v -0.066973 -0.054624 -0.068864
v 0.061747 -0.067986 -0.108108
v 0.061257 -0.076120 -0.120556
v -0.046531 -0.042144 -0.123569
v -0.047030 -0.039361 -0.127847
v -0.020269 -0.064463 -0.137909
v -0.025910 -0.063396 -0.133446
v 0.048827 -0.066805 -0.127962
v 0.053555 -0.070304 -0.128505
v -0.061611 -0.076333 -0.120839
v -0.064119 -0.080275 -0.122955
v 0.125062 0.030173 -0.039540
v 0.134891 0.014390 0.095291
v -0.109137 0.046291 -0.044204
v -0.115555 0.035569 0.095730
v -0.192775 0.027697 -0.014457
v -0.192428 0.032714 -0.007585
v -0.193651 0.033329 0.010990
v -0.197371 0.028731 0.052355
v -0.201727 0.023208 0.077140
v 0.063539 0.043903 -0.062832
v 0.060569 0.026822 0.091756
v -0.048543 0.022115 -0.017237
v -0.033945 0.014313 -0.021840
v -0.033656 0.008275 -0.023693
v -0.039697 -0.012146 -0.029143
v -0.059631 -0.030752 -0.034593
v 0.054268 0.017962 -0.021879
v 0.069904 0.012739 -0.020093
v 0.106746 0.007996 -0.014279
v -0.212053 0.031419 -0.010897
v -0.211521 0.025428 -0.003827
v -0.212190 0.021955 0.018559
v -0.213227 0.020848 0.057162
v -0.213189 0.024205 0.074571
v 0.041331 0.026355 -0.084309
v 0.032314 0.018934 -0.042090
v 0.034844 0.009076 -0.002627
v 0.033140 -0.005087 0.054543
v -0.025964 0.134247 -0.069901
v -0.016878 0.163927 -0.067596
v -0.016342 0.186915 -0.062305
v -0.024652 0.285770 -0.033311
v -0.028898 0.315413 -0.022182
v -0.032097 0.329893 -0.012439
v -0.036142 0.362313 0.059140
v -0.042617 0.439454 0.104848
v -0.042709 0.448667 0.114053
v -0.039663 0.454200 0.137067
v -0.028449 0.461226 0.192554
v -0.000313 0.469083 0.259957
v -0.240702 0.111387 0.032581
v -0.235564 0.111782 0.039276
v -0.232188 0.109629 0.057932
v -0.232773 0.106246 0.078135
v -0.236896 0.104287 0.089622
v 0.262912 0.125635 0.048825
v 0.263373 0.121339 0.054767
v 0.262526 0.118274 0.069951
v 0.258155 0.120845 0.095697
v -0.108548 0.043955 -0.006239
v -0.130100 0.028137 -0.001494
v -0.188982 0.033256 0.016177
v -0.213257 0.038392 0.023392
v -0.218499 0.047289 0.027926
v -0.234807 0.116462 0.063400
v -0.259468 0.128119 0.072642
v -0.268689 0.130001 0.075591
v -0.272001 0.126929 0.075326
v 0.272964 0.127512 0.056178
v 0.269922 0.129024 0.074112
v 0.266916 0.123200 0.096748
v -0.066648 -0.023752 0.086619
v -0.028526 -0.067135 0.098991
v -0.000242 -0.239126 -0.018594
v -0.014141 -0.238144 -0.018120
v -0.016302 -0.235181 -0.016051
v -0.011681 -0.215926 -0.003665
v -0.010881 -0.208934 0.005713
v -0.000242 -0.207212 0.007926
v 0.043445 0.136403 0.132126
v 0.085167 0.131964 0.130918
v 0.090502 0.127246 0.130045
v 0.093240 0.117345 0.128653
v 0.090497 0.100763 0.124924
v 0.047137 0.065845 0.093552
v 0.038531 0.055701 0.086645
v 0.037012 0.039984 0.082727
v 0.060779 0.026444 0.090446
v -0.000000 -0.239157 -0.020183
v -0.000000 -0.211378 -0.000289
v -0.000000 -0.192828 0.035408
v -0.000000 -0.161427 0.037302
v 0.036254 0.116865 -0.059243
v 0.067245 0.120932 -0.030640
v 0.074469 0.114937 -0.027732
v 0.080658 0.103803 -0.028153
v 0.074874 0.097103 -0.035422
v 0.039704 0.082474 -0.066095
v 0.038286 0.068310 -0.069795
v -0.038760 0.063735 -0.070730
v -0.042746 0.046329 -0.073444
v -0.054055 0.042794 -0.067937
v 0.035538 0.153909 0.149345
v 0.044833 0.159074 0.127339
v 0.053371 0.161049 0.120432
v 0.139978 0.168316 0.103984
v 0.157086 0.168236 0.100310
v 0.162809 0.165098 0.098798
v 0.164405 0.149712 0.099455
v 0.160113 0.144334 0.100322
v 0.124968 0.143047 0.105984
v 0.106222 0.153317 0.108767
v 0.071376 0.152274 0.118093
v 0.048404 0.148991 0.124690
v 0.042524 0.136712 0.132009
v -0.038380 0.135146 0.019093
v -0.044321 0.124310 0.019789
v -0.079717 0.123999 0.038682
v -0.087047 0.116071 0.040323
v -0.093703 0.103556 0.039569
v -0.085994 0.094005 0.031331
v -0.041140 0.071777 -0.002470
v -0.040820 0.065742 -0.005147
v -0.047550 0.049452 -0.007790
v 0.042114 -0.024709 0.060717
v 0.068746 -0.025414 0.086489
v 0.059415 -0.016563 0.114785
v 0.051581 -0.031567 0.122134
v 0.032508 -0.074125 0.134172
v 0.100028 0.167787 0.024310
v 0.111512 0.166926 0.108987
v -0.003105 0.264532 0.247131
v -0.022709 0.234906 0.201448
v -0.030459 0.207836 0.163636
v -0.031704 0.200976 0.159315
v -0.036391 0.177755 0.155448
v -0.038611 0.170025 0.151402
v -0.045268 0.161735 0.124549
v 0.033552 -0.064666 0.122896
v 0.041551 -0.113156 0.133647
v -0.019007 -0.196423 0.038958
v -0.032701 -0.209402 0.085107
v 0.018991 -0.194609 0.040285
v 0.033103 -0.207491 0.087239
v -0.022869 -0.080029 0.135075
v -0.031011 -0.104358 0.139112
v -0.022208 -0.119606 0.140353
v -0.007508 -0.110477 0.140549
v -0.005823 -0.082282 0.135255
v -0.006856 -0.076350 0.134284
v -0.013239 -0.069574 0.133593
v -0.019999 -0.073860 0.134117
v 0.072242 0.023153 -0.068385
v 0.106874 0.015990 -0.056744
v 0.119469 0.023967 -0.047305
v 0.123293 0.029825 -0.043356
v 0.107882 0.049106 -0.045844
v 0.069733 0.046598 -0.061189
v 0.062244 0.044249 -0.065043
v 0.055621 0.034679 -0.071650
v 0.063256 0.026094 -0.071146
v 0.000042 0.136798 -0.089840
v 0.009472 0.136888 -0.086702
v 0.016533 0.137359 -0.079953
v 0.058692 -0.063220 -0.108443
v 0.061783 -0.067954 -0.107718
v 0.066561 -0.065673 -0.106039
v 0.068658 -0.055762 -0.105683
v 0.053329 -0.051542 -0.109282
v 0.050996 -0.057288 -0.110952
v -0.000253 -0.177215 0.123654
v -0.009829 -0.176258 0.122067
v -0.007536 -0.167225 0.110441
v -0.000253 -0.166807 0.110157
v -0.028132 0.278879 -0.000306
v -0.025616 0.270737 -0.023747
v -0.025528 0.271699 -0.028336
v -0.031234 0.319123 0.022973
v -0.029020 0.286080 0.008748
v 0.068414 -0.071870 -0.091106
v 0.060048 -0.060864 -0.092467
v 0.023931 -0.053086 -0.100502
v 0.051212 -0.057075 -0.111471
v 0.044373 -0.051299 -0.130797
v 0.046011 -0.035885 -0.123353
v 0.038395 -0.008836 -0.056268
v 0.031145 0.018382 -0.043236
v 0.035643 0.024947 -0.039964
v 0.059480 0.039749 -0.028875
v 0.263006 0.124972 0.048658
v 0.261268 0.128023 0.055111
v 0.258782 0.127977 0.070423
v 0.257410 0.120155 0.095434
v -0.000032 -0.048893 0.134798
v -0.018377 -0.049419 0.133708
v -0.030261 -0.032954 0.128412
v -0.022087 -0.028816 0.131467
v -0.017825 -0.032755 0.134638
v -0.012391 -0.028154 0.146331
v -0.000178 -0.027685 0.145981
v -0.127202 0.141451 0.044875
v -0.126078 0.167122 0.106082
v -0.034271 0.358151 0.087751
v -0.036692 0.244037 0.082476
v -0.041065 0.199781 0.078603
v -0.046686 0.177252 0.076286
v -0.052739 0.165485 0.075117
v -0.058669 0.162358 0.074685
v -0.107990 0.165236 0.071936
v -0.000566 0.073974 -0.106321
v -0.018305 0.078206 -0.101183
v -0.027950 0.095704 -0.086478
v -0.021694 0.124531 -0.081610
v -0.015087 0.140181 -0.078707
v -0.010350 0.148056 -0.071942
v -0.000566 0.149709 -0.070875
v -0.100028 0.167787 0.024310
v -0.111512 0.166926 0.108987
v 0.038380 0.135146 0.019093
v 0.044321 0.124310 0.019789
v 0.079717 0.123999 0.038682
v 0.087047 0.116071 0.040323
v 0.093703 0.103556 0.039569
v 0.085994 0.094005 0.031331
v 0.041140 0.071777 -0.002470
v 0.040820 0.065742 -0.005147
v 0.047550 0.049452 -0.007790
v 0.000523 -0.202159 0.104568
v 0.019237 -0.205973 0.101511
v 0.024605 -0.217088 0.090511
v 0.018191 -0.218597 0.091456
v 0.014792 -0.215485 0.094147
v 0.007981 -0.214754 0.095044
v 0.004911 -0.219827 0.092697
v 0.000527 -0.220224 0.092846
v -0.066783 -0.054549 -0.067895
v -0.066359 -0.050394 -0.038533
v -0.053000 -0.049503 -0.014017
v -0.021882 -0.102250 0.140060
v -0.024052 -0.109152 0.141213
v -0.021495 -0.113412 0.141529
v -0.017391 -0.110769 0.141543
v -0.017063 -0.102806 0.140057
v -0.019219 -0.099256 0.139618
v 0.066648 -0.023752 0.086619
v 0.028526 -0.067135 0.098991
v -0.000392 0.028152 -0.140216
v 0.014536 0.029209 -0.134416
v 0.023434 0.030456 -0.122731
v 0.006255 0.037567 -0.134080
v 0.014937 0.045330 -0.123983
v -0.001093 -0.002363 -0.145874
v -0.030846 -0.003943 -0.128223
v -0.048612 -0.032881 -0.101646
v -0.049690 -0.021814 -0.027008
v -0.032911 -0.013914 0.057121
v -0.013568 -0.162235 0.039329
v -0.017306 -0.186657 0.041363
v -0.018171 -0.196457 0.039022
v -0.013743 -0.213164 -0.000544
v -0.021172 -0.237143 -0.017029
v -0.031924 -0.240909 -0.006858
v -0.058574 -0.243494 0.028277
v -0.051486 -0.231590 0.046384
v -0.040259 -0.228126 0.033523
v -0.035824 -0.222616 0.038578
v -0.032820 -0.208678 0.086264
v -0.015958 -0.144353 0.088988
v -0.020128 -0.132796 0.100994
v -0.036030 -0.114240 0.136023
v -0.000000 -0.067714 -0.156711
v 0.000004 -0.049056 -0.160582
v 0.000090 -0.028659 -0.158823
v 0.000005 -0.005046 -0.143594
v -0.000000 0.033679 -0.138083
v -0.000000 0.070825 -0.113677
v 0.212053 0.031419 -0.010897
v 0.211521 0.025428 -0.003827
v 0.212190 0.021955 0.018559
v 0.213227 0.020848 0.057162
v 0.213189 0.024205 0.074571
v 0.035498 0.053883 -0.074314
v 0.029941 0.092300 -0.069680
v 0.022195 0.112141 -0.062333
v 0.109137 0.046291 -0.044204
v 0.115555 0.035569 0.095730
v 0.067804 -0.040328 -0.079332
v 0.064776 -0.038886 -0.079081
v 0.065791 -0.038357 -0.076095
v 0.076171 -0.042675 -0.076328
v 0.075298 -0.043145 -0.078578
v -0.066576 -0.039089 -0.081022
v -0.061585 -0.036747 -0.080526
v -0.063199 -0.036167 -0.075551
v -0.080295 -0.043226 -0.076158
v -0.078902 -0.043780 -0.079916
v 0.047290 -0.039425 -0.127187
v 0.060841 -0.033787 -0.067816
v -0.006003 -0.067616 -0.146287
v -0.011190 -0.066210 -0.122909
v -0.013013 -0.061949 -0.103053
v -0.013468 -0.044858 -0.083347
v -0.014438 -0.041853 -0.071993
v 0.000394 -0.067623 -0.156207
v 0.018555 -0.064416 -0.138345
v 0.046531 -0.042144 -0.123569
v 0.047030 -0.039361 -0.127847
v -0.061016 -0.033790 -0.067638
v -0.058191 -0.028969 -0.013659
v -0.039413 -0.024447 0.059806
v 0.071992 -0.053750 -0.106231
v 0.068591 -0.055529 -0.105940
v -0.070718 0.000513 0.085873
v -0.113555 -0.003389 0.086552
v -0.129739 0.007886 0.091713
v -0.134633 0.015366 0.094212
v -0.114635 0.035851 0.095667
v -0.067775 0.027952 0.092928
v -0.058495 0.024182 0.091607
v -0.050033 0.011912 0.087490
v -0.059568 0.002796 0.085900
v -0.024973 -0.074064 0.139914
v -0.034663 -0.104403 0.144195
v -0.023465 -0.122925 0.147102
v -0.005729 -0.111098 0.149114
v -0.003952 -0.076229 0.142387
v -0.005303 -0.068941 0.140967
v -0.013301 -0.060801 0.139183
v -0.021534 -0.066342 0.139014
v 0.061611 -0.076333 -0.120839
v 0.064119 -0.080275 -0.122955
v -0.023094 0.046554 -0.038164
v -0.016259 0.046987 -0.052616
v -0.014108 0.049967 -0.076174
v -0.000000 0.071096 -0.113304
v -0.000000 0.073811 -0.106658
v -0.067508 -0.065307 -0.106342
v -0.070173 -0.071149 -0.111358
v 0.032116 -0.029487 -0.145033
v 0.030725 -0.037220 -0.159361
v 0.031251 -0.042127 -0.158670
v 0.038690 -0.038632 -0.133215
v 0.040358 -0.035992 -0.128820
v 0.042425 -0.035357 -0.130830
v 0.074363 -0.075190 -0.112226
v 0.082912 -0.060359 -0.067666
v -0.000045 -0.066847 -0.124827
v -0.011825 -0.066183 -0.124450
v -0.019932 -0.061006 -0.124567
v -0.031576 -0.029402 -0.146539
v -0.035793 -0.038894 -0.133219
v -0.039801 -0.035580 -0.123987
v -0.041275 -0.035599 -0.127219
v 0.000566 0.073974 -0.106321
v 0.018305 0.078206 -0.101183
v 0.027950 0.095704 -0.086478
v 0.021694 0.124531 -0.081610
v 0.015087 0.140181 -0.078707
v 0.010350 0.148056 -0.071942
v 0.000566 0.149709 -0.070875
v 0.001093 -0.002363 -0.145874
v 0.030846 -0.003943 -0.128223
v -0.057892 -0.068406 -0.125920
v -0.063797 -0.080553 -0.123452
v -0.072590 -0.076852 -0.114076
v -0.077055 -0.054000 -0.106728
v -0.047308 -0.039307 -0.127725
v -0.043762 -0.051729 -0.136236
v 0.066783 -0.054549 -0.067895
v 0.066359 -0.050394 -0.038533
v 0.053000 -0.049503 -0.014017
v -0.035381 0.003530 0.129568
v -0.040980 0.009305 0.101712
v -0.045445 0.011590 0.091625
v -0.050455 0.012356 0.088674
v -0.206935 0.023055 0.074401
v 0.054231 -0.070490 -0.127606
v 0.066973 -0.054624 -0.068864
v 0.070718 0.000513 0.085873
v 0.113555 -0.003389 0.086552
v 0.129739 0.007886 0.091713
v 0.134633 0.015366 0.094212
v 0.114635 0.035851 0.095667
v 0.067775 0.027952 0.092928
v 0.058495 0.024182 0.091607
v 0.050033 0.011912 0.087490
v 0.059568 0.002796 0.085900
v -0.121764 0.031963 -0.042239
v -0.133523 0.017498 0.093665
v 0.020269 -0.064463 -0.137909
v 0.025910 -0.063396 -0.133446
v -0.035900 -0.068637 -0.132446
v -0.035888 -0.065886 -0.130393
v 0.021882 -0.102250 0.140060
v 0.024052 -0.109152 0.141213
v 0.021495 -0.113412 0.141529
v 0.017391 -0.110769 0.141543
v 0.017063 -0.102806 0.140057
v 0.019219 -0.099256 0.139618
v -0.211053 0.030369 -0.010964
v -0.210310 0.035328 -0.003153
v -0.210174 0.035649 0.019507
v -0.211461 0.031613 0.057906
v -0.213635 0.026288 0.074676
v 0.192775 0.027697 -0.014457
v 0.192428 0.032714 -0.007585
v 0.193651 0.033329 0.010990
v 0.197371 0.028731 0.052355
v 0.201727 0.023208 0.077140
v -0.063113 0.024214 -0.070517
v -0.050081 0.011349 0.088679
v 0.048543 0.022115 -0.017237
v 0.033945 0.014313 -0.021840
v 0.033656 0.008275 -0.023693
v 0.039697 -0.012146 -0.029143
v 0.059631 -0.030752 -0.034593
v -0.228800 0.053266 0.002920
v -0.224147 0.054376 0.010175
v -0.221062 0.050421 0.030833
v -0.219893 0.042828 0.061968
v -0.222721 0.038035 0.076314
v 0.048612 -0.032881 -0.101646
v 0.049690 -0.021814 -0.027008
v 0.032911 -0.013914 0.057121
v 0.000056 -0.079344 -0.008026
v 0.000053 -0.086258 -0.013810
v 0.025964 0.134247 -0.069901
v 0.016878 0.163927 -0.067596
v 0.016342 0.186915 -0.062305
v 0.024652 0.285770 -0.033311
v 0.028898 0.315413 -0.022182
v 0.032097 0.329893 -0.012439
v 0.036142 0.362313 0.059140
v 0.042617 0.439454 0.104848
v 0.042709 0.448667 0.114053
v 0.039663 0.454200 0.137067
v 0.028449 0.461226 0.192554
v 0.000313 0.469083 0.259957
v -0.210997 0.030376 -0.010890
v -0.210280 0.035358 -0.003091
v -0.210135 0.035737 0.019568
v -0.211377 0.031790 0.057978
v -0.213511 0.026494 0.074762
v 0.240702 0.111387 0.032581
v 0.235564 0.111782 0.039276
v 0.232188 0.109629 0.057932
v 0.232773 0.106246 0.078135
v 0.236896 0.104287 0.089622
v -0.107388 0.008183 -0.013440
v -0.129014 0.015954 -0.002926
v -0.226754 0.024711 0.026218
v -0.246905 0.107912 0.059511
v -0.273550 0.125145 0.069314
v 0.108548 0.043955 -0.006239
v 0.130100 0.028137 -0.001494
v 0.188982 0.033256 0.016177
v 0.213257 0.038392 0.023392
v 0.218499 0.047289 0.027926
v 0.234807 0.116462 0.063400
v 0.259468 0.128119 0.072642
v 0.268689 0.130001 0.075591
v 0.272001 0.126929 0.075326
v 0.013568 -0.162235 0.039329
v 0.017306 -0.186657 0.041363
v 0.018171 -0.196457 0.039022
v 0.013743 -0.213164 -0.000544
v 0.021172 -0.237143 -0.017029
v 0.031924 -0.240909 -0.006858
v 0.058574 -0.243494 0.028277
v 0.051486 -0.231590 0.046384
v 0.040259 -0.228126 0.033523
v 0.035824 -0.222616 0.038578
v 0.032820 -0.208678 0.086264
v 0.015958 -0.144353 0.088988
v 0.020128 -0.132796 0.100994
v 0.036030 -0.114240 0.136023
v -0.035927 0.091486 -0.068413
v -0.079012 0.103579 -0.029408
v -0.089523 0.106099 -0.009872
v -0.094763 0.107184 0.039592
v -0.091173 0.105485 0.125981
v 0.000242 -0.239126 -0.018594
v 0.014141 -0.238144 -0.018120
v 0.016302 -0.235181 -0.016051
v 0.011681 -0.215926 -0.003665
v 0.010881 -0.208934 0.005713
v 0.000242 -0.207212 0.007926
v -0.000538 -0.103139 0.035821
v -0.007868 -0.104371 0.036317
v -0.010759 -0.108008 0.037108
v -0.016711 -0.148139 0.043753
v -0.013942 -0.155008 0.044546
v -0.000538 -0.156275 0.044114
v -0.021503 -0.237532 -0.017167
v -0.039778 -0.227718 0.033540
v 0.038760 0.063735 -0.070730
v 0.042746 0.046329 -0.073444
v 0.054055 0.042794 -0.067937
v -0.037966 0.079305 -0.062364
v -0.039427 0.057543 0.087927
v 0.127202 0.141451 0.044875
v 0.126078 0.167122 0.106082
v -0.029906 -0.204347 0.087805
v -0.024300 -0.200241 0.116340
v -0.016347 -0.183451 0.124524
v -0.014709 -0.178278 0.123914
v -0.012193 -0.164302 0.108659
v -0.005664 -0.123576 0.114456
v 0.003105 0.264532 0.247131
v 0.022709 0.234906 0.201448
v 0.030459 0.207836 0.163636
v 0.031704 0.200976 0.159315
v 0.036391 0.177755 0.155448
v 0.038611 0.170025 0.151402
v 0.045268 0.161735 0.124549
v -0.000000 -0.241804 -0.019245
v -0.000000 -0.249770 0.004115
v -0.000000 -0.250840 0.022736
v -0.000000 -0.233554 0.089275
v 0.019007 -0.196423 0.038958
v 0.032701 -0.209402 0.085107
v -0.015192 -0.100529 0.030616
v -0.030520 -0.126194 0.075649
v -0.074887 0.023050 -0.059652
v -0.103126 0.017527 -0.050849
v -0.115927 0.028076 -0.038889
v -0.102802 0.043228 -0.039278
v -0.072055 0.041177 -0.051884
v -0.066081 0.039354 -0.055192
v -0.061056 0.031999 -0.061325
v -0.067522 0.025331 -0.061636
v 0.017165 -0.081031 0.136641
v 0.019314 -0.088729 0.137734
v 0.016344 -0.093325 0.138063
v 0.011931 -0.090262 0.138222
v 0.011842 -0.081460 0.136740
v 0.014340 -0.077627 0.136270
v 0.000481 0.089671 0.147286
v 0.025992 0.076844 0.147388
v 0.029265 0.045217 0.145460
v 0.012850 0.040836 0.147917
v 0.009673 0.051544 0.152454
v 0.010763 0.045899 0.166487
v 0.011159 0.032277 0.174916
v 0.000529 0.030417 0.174772
v 0.033332 -0.232073 0.072971
v 0.008821 -0.224874 0.081282
v 0.000247 -0.233159 0.088794
v -0.000197 -0.200981 0.118728
v -0.018257 -0.199043 0.118689
v -0.010656 -0.181175 0.125402
v -0.000131 -0.180914 0.126339
v 0.078821 0.034977 0.050743
v 0.070155 0.034046 0.050749
v 0.068629 0.034893 0.055529
v 0.071170 0.035907 0.058758
v 0.095501 0.040365 0.062684
v 0.099920 0.040342 0.060424
v 0.099015 0.038637 0.054351
v -0.031594 0.012432 -0.120359
v -0.031072 0.017710 -0.118774
v -0.034115 0.016024 -0.114826
v -0.037047 -0.001655 -0.119449
v -0.034568 -0.000310 -0.122351
v -0.080960 0.042147 -0.036164
v -0.075730 0.041800 -0.036919
v -0.075678 0.043234 -0.032094
v -0.092922 0.045269 -0.028629
v -0.092870 0.044007 -0.032290
v 0.079540 0.039128 0.005492
v 0.070887 0.038174 0.005068
v 0.069116 0.039084 0.009750
v 0.071486 0.040150 0.013091
v 0.095576 0.044728 0.018193
v 0.100105 0.044686 0.016163
v 0.099515 0.042895 0.010077
v -0.113015 0.003383 0.085964
v -0.107535 0.001010 0.084857
v -0.090770 0.002152 0.083850
v -0.073407 0.004664 0.083266
v -0.069371 0.008360 0.083671
v -0.119526 0.011295 0.088734
v 0.118421 0.002662 0.088830
v 0.110874 -0.000610 0.087299
v 0.087789 0.000979 0.085798
v 0.063879 0.004461 0.084859
v 0.058324 0.009564 0.085352
v 0.127385 0.013580 0.092596
v -0.030331 0.459883 0.181591
v -0.021610 0.363423 0.177724
v -0.019402 0.341519 0.179482
v -0.016131 0.333210 0.195155
v -0.000058 0.314945 0.263143
v 0.031969 0.327231 -0.000691
v 0.032872 0.335792 0.022718
v 0.033013 0.334857 0.027321
v 0.026173 0.286934 -0.023373
v 0.030845 0.319943 -0.009648
v -0.017869 -0.079187 0.138213
v -0.020926 -0.088851 0.139533
v -0.017355 -0.094786 0.140067
v -0.011655 -0.091075 0.140422
v -0.011150 -0.079935 0.138532
v -0.014148 -0.074986 0.137839
v -0.049359 0.004499 0.149958
v -0.025873 0.002815 0.170590
v 0.049427 0.073302 0.133692
v 0.034425 0.074042 0.142994
v -0.052146 0.041132 0.136445
v -0.037142 0.041021 0.145772
v 0.052371 0.037678 0.137278
v 0.037544 0.038549 0.146844
v -0.052175 0.124852 0.173759
v -0.023411 0.123038 0.181624
v -0.045804 0.045253 -0.071798
v -0.050821 0.047316 -0.039014
v -0.052003 0.047179 -0.001883
v -0.042346 0.041125 0.082326
v 0.045804 0.045253 -0.071798
v 0.050821 0.047316 -0.039014
v 0.052003 0.047179 -0.001883
v 0.042346 0.041125 0.082326
v 0.015192 -0.100529 0.030616
v 0.030520 -0.126194 0.075649
v -0.027960 -0.047314 -0.148825
v -0.040947 -0.042517 -0.134100
v -0.050346 0.006073 -0.098849
v -0.030834 0.048077 -0.087814
v -0.032720 0.081917 -0.076463
v -0.020007 0.139553 -0.073979
v -0.011216 0.148407 -0.073760
v -0.000564 0.150719 -0.073685
v -0.010955 0.011311 -0.136589
v -0.021453 0.019814 -0.129166
v -0.000050 -0.063738 -0.103075
v -0.013015 -0.061313 -0.103052
v -0.022362 -0.055055 -0.105391
v -0.044171 -0.050975 -0.130858
v -0.044198 -0.051465 -0.135962
v 0.031594 0.012432 -0.120359
v 0.031072 0.017710 -0.118774
v 0.034115 0.016024 -0.114826
v 0.037047 -0.001655 -0.119449
v 0.034568 -0.000310 -0.122351
v 0.017869 -0.079187 0.138213
v 0.020926 -0.088851 0.139533
v 0.017355 -0.094786 0.140067
v 0.011655 -0.091075 0.140422
v 0.011150 -0.079935 0.138532
v 0.014148 -0.074986 0.137839
v -0.000004 -0.049056 -0.160582
v -0.000090 -0.028659 -0.158823
v -0.000005 -0.005046 -0.143594
v -0.028645 -0.083843 -0.012309
v -0.030947 -0.081401 0.058213
v -0.021707 -0.061371 0.096730
v 0.022869 -0.080029 0.135075
v 0.031011 -0.104358 0.139112
v 0.022208 -0.119606 0.140353
v 0.007508 -0.110477 0.140549
v 0.005823 -0.082282 0.135255
v 0.006856 -0.076350 0.134284
v 0.013239 -0.069574 0.133593
v 0.019999 -0.073860 0.134117
v -0.032543 0.132587 -0.058501
v -0.058840 0.165493 -0.012729
v -0.098447 0.167366 0.022998
v -0.125954 0.143096 0.042266
v -0.132962 0.141203 0.048547
v -0.162735 0.145464 0.079319
v -0.163314 0.166004 0.098359
v 0.000016 -0.153108 0.044561
v 0.010496 -0.152025 0.044414
v 0.012132 -0.145089 0.043407
v 0.009904 -0.130961 0.041099
v 0.000123 -0.128555 0.041014
v 0.006003 -0.067616 -0.146287
v 0.011190 -0.066210 -0.122909
v 0.013013 -0.061949 -0.103053
v 0.013468 -0.044858 -0.083347
v 0.014438 -0.041853 -0.071993
v -0.049427 0.073302 0.133692
v -0.034425 0.074042 0.142994
v -0.061100 -0.041498 -0.105606
v -0.056136 -0.039051 -0.105530
v -0.057390 -0.038392 -0.100462
v -0.074335 -0.045788 -0.099655
v -0.073211 -0.046398 -0.103494
v -0.017165 -0.081031 0.136641
v -0.019314 -0.088729 0.137734
v -0.016344 -0.093325 0.138063
v -0.011931 -0.090262 0.138222
v -0.011842 -0.081460 0.136740
v -0.014340 -0.077627 0.136270
v -0.081004 0.132503 0.130738
v -0.062910 0.134481 0.130598
v -0.000038 0.141788 -0.083617
v -0.009706 0.139758 -0.083904
v -0.014213 0.135171 -0.085290
v -0.021606 0.102153 -0.094947
v -0.018020 0.082791 -0.101033
v -0.012058 0.077476 -0.104584
v -0.002771 0.075345 -0.106580
v 0.066576 -0.039089 -0.081022
v 0.061585 -0.036747 -0.080526
v 0.063199 -0.036167 -0.075551
v 0.080295 -0.043226 -0.076158
v 0.078902 -0.043780 -0.079916
v 0.228800 0.053266 0.002920
v 0.224147 0.054376 0.010175
v 0.221062 0.050421 0.030833
v 0.219893 0.042828 0.061968
v 0.222721 0.038035 0.076314
v 0.107388 0.008183 -0.013440
v 0.129014 0.015954 -0.002926
v 0.226754 0.024711 0.026218
v 0.246905 0.107912 0.059511
v 0.273550 0.125145 0.069314
v -0.041372 0.031001 -0.085617
v -0.045790 0.027110 -0.067479
v -0.072859 0.031199 -0.061800
v -0.211224 0.030532 -0.010681
v 0.023094 0.046554 -0.038164
v 0.016259 0.046987 -0.052616
v 0.014108 0.049967 -0.076174
v -0.059713 0.039219 -0.028465
v -0.074374 0.043020 -0.021652
v -0.109005 0.044318 -0.006981
v 0.063113 0.024214 -0.070517
v 0.050081 0.011349 0.088679
v -0.024012 0.030618 -0.122641
v -0.033614 0.031921 -0.109231
v -0.038280 0.031552 -0.091995
v -0.035661 -0.057406 -0.134774
v -0.039743 -0.056892 -0.133669
v -0.048663 -0.066931 -0.127568
v -0.025783 -0.063732 -0.133115
v 0.000045 -0.066847 -0.124827
v 0.011825 -0.066183 -0.124450
v 0.019932 -0.061006 -0.124567
v -0.024771 -0.060005 -0.150687
v -0.028190 -0.059529 -0.139883
v -0.058245 -0.062689 -0.108695
v -0.055762 -0.064841 -0.122638
v 0.067508 -0.065307 -0.106342
v 0.070173 -0.071149 -0.111358
v -0.068945 -0.057182 -0.068608
v -0.056451 -0.055952 -0.026029
v -0.046321 -0.069560 -0.014094
v 0.061016 -0.033790 -0.067638
v 0.058191 -0.028969 -0.013659
v 0.039413 -0.024447 0.059806
v 0.035900 -0.068637 -0.132446
v 0.035888 -0.065886 -0.130393
v -0.072148 -0.053866 -0.106045
v -0.076579 -0.053749 -0.106759
v 0.024973 -0.074064 0.139914
v 0.034663 -0.104403 0.144195
v 0.023465 -0.122925 0.147102
v 0.005729 -0.111098 0.149114
v 0.003952 -0.076229 0.142387
v 0.005303 -0.068941 0.140967
v 0.013301 -0.060801 0.139183
v 0.021534 -0.066342 0.139014
v -0.228405 0.054232 0.003594
v -0.232682 0.051978 0.010814
v -0.232606 0.047475 0.031591
v -0.228655 0.040684 0.062682
v -0.223249 0.037322 0.076691
v -0.038712 -0.054814 -0.138796
v -0.038557 -0.056412 -0.134765
v 0.031576 -0.029402 -0.146539
v 0.035793 -0.038894 -0.133219
v 0.039801 -0.035580 -0.123987
v 0.041275 -0.035599 -0.127219
v 0.035381 0.003530 0.129568
v 0.040980 0.009305 0.101712
v 0.045445 0.011590 0.091625
v 0.050455 0.012356 0.088674
v 0.206935 0.023055 0.074401
v -0.000052 0.108796 -0.104413
v -0.015739 0.108504 -0.098586
v -0.026611 0.107744 -0.085126
v -0.068210 -0.055910 -0.068479
v -0.072830 -0.064690 -0.069292
v -0.081850 -0.061566 -0.067538
v -0.087030 -0.044438 -0.066182
v -0.061138 -0.034497 -0.066747
v -0.054935 -0.042903 -0.070670
v 0.057892 -0.068406 -0.125920
v 0.063797 -0.080553 -0.123452
v 0.072590 -0.076852 -0.114076
v 0.077055 -0.054000 -0.106728
v 0.047308 -0.039307 -0.127725
v 0.043762 -0.051729 -0.136236
v 0.027960 -0.047314 -0.148825
v 0.040947 -0.042517 -0.134100
v 0.050346 0.006073 -0.098849
v 0.030834 0.048077 -0.087814
v 0.032720 0.081917 -0.076463
v 0.020007 0.139553 -0.073979
v 0.011216 0.148407 -0.073760
v 0.000564 0.150719 -0.073685
v 0.010955 0.011311 -0.136589
v 0.021453 0.019814 -0.129166
v -0.000112 -0.030443 -0.158976
v -0.014559 -0.030410 -0.155216
v -0.028456 -0.029432 -0.146239
v 0.109425 0.028265 0.092653
v 0.103616 0.030041 0.092596
v 0.087193 0.027094 0.090372
v 0.070411 0.022714 0.087664
v 0.066942 0.018595 0.086609
v 0.117141 0.021075 0.091467
v 0.052290 0.031939 0.170880
v 0.021525 0.032055 0.176673
v -0.052371 0.037678 0.137278
v -0.037544 0.038549 0.146844
v -0.009350 0.013179 -0.136644
v -0.019784 0.021842 -0.129319
v -0.000212 -0.067905 -0.155317
v 0.000004 -0.064813 -0.103709
v 0.000138 -0.044092 -0.072920
v 0.000050 -0.063738 -0.103075
v 0.013015 -0.061313 -0.103052
v 0.022362 -0.055055 -0.105391
v -0.058777 -0.030694 -0.034475
v -0.053741 -0.042786 -0.034345
v -0.063588 -0.050146 -0.034500
v 0.044171 -0.050975 -0.130858
v 0.044198 -0.051465 -0.135962
v -0.061548 -0.076247 -0.120974
v -0.064086 -0.080174 -0.123082
v 0.121764 0.031963 -0.042239
v 0.133523 0.017498 0.093665
v 0.211053 0.030369 -0.010964
v 0.210310 0.035328 -0.003153
v 0.210174 0.035649 0.019507
v 0.211461 0.031613 0.057906
v 0.213635 0.026288 0.074676
v -0.035415 0.024740 -0.065316
v -0.045179 0.000377 -0.074825
v -0.042457 -0.022549 -0.086717
v -0.054110 -0.035561 -0.090403
v -0.079903 -0.049166 -0.091752
v -0.078261 -0.068818 -0.093674
v -0.045721 -0.070294 -0.014189
v -0.045230 -0.060750 0.056618
v -0.024473 -0.050152 0.093854
v 0.210997 0.030376 -0.010890
v 0.210280 0.035358 -0.003091
v 0.210135 0.035737 0.019568
v 0.211377 0.031790 0.057978
v 0.213511 0.026494 0.074762
v -0.019534 0.228904 -0.048356
v -0.027701 0.236133 -0.019240
v -0.033483 0.245161 0.018241
v -0.035057 0.265361 0.104774
v -0.023335 0.284974 0.191560
v -0.000414 0.300672 0.263520
v 0.000538 -0.103139 0.035821
v 0.007868 -0.104371 0.036317
v 0.010759 -0.108008 0.037108
v 0.016711 -0.148139 0.043753
v 0.013942 -0.155008 0.044546
v 0.000538 -0.156275 0.044114
v -0.013989 -0.213552 -0.000004
v -0.035622 -0.221655 0.037684
v 0.021503 -0.237532 -0.017167
v 0.039778 -0.227718 0.033540
v 0.081004 0.132503 0.130738
v 0.062910 0.134481 0.130598
v 0.000038 0.141788 -0.083617
v 0.009706 0.139758 -0.083904
v 0.014213 0.135171 -0.085290
v 0.021606 0.102153 -0.094947
v 0.018020 0.082791 -0.101033
v 0.012058 0.077476 -0.104584
v 0.002771 0.075345 -0.106580
v -0.079540 0.039128 0.005492
v -0.070887 0.038174 0.005068
v -0.069116 0.039084 0.009750
v -0.071486 0.040150 0.013091
v -0.095576 0.044728 0.018193
v -0.100105 0.044686 0.016163
v -0.099515 0.042895 0.010077
v -0.023246 0.106255 -0.064724
v -0.031424 0.073275 -0.076840
v -0.031454 0.053501 -0.077673
v -0.056671 -0.244931 0.028769
v -0.000318 -0.250734 0.034795
v 0.081247 0.034226 0.053603
v 0.075979 0.033694 0.053528
v 0.076503 0.035093 0.058336
v 0.093967 0.037734 0.059561
v 0.093486 0.036496 0.055924
l 1 2
l 3 4 5
l 6 7 8 9 10 11 12 13 14
l 15 16 17
l 18 19 20 21 22
l 23 24 25
l 26 27 28 29
l 30 31 32
l 33 34 35
l 36 37
l 38 39
l 40 41
l 42 43 44 45 46 47 42
l 48 49
l 50 51 52 53 50
l 54 55
l 56 57 58 59
l 60 61 62 63
l 64 65 66 67 68 69
l 70 71 72
l 73 74 75 76 77 78 73
l 79 80
l 81 82
l 83 84 85 86 87 88
l 89 90
l 91 92
l 93 94
l 95 96
l 97 98
l 99 100
l 101 102
l 103 104 105 106
l 107 108
l 109 110
l 111 112 113 114 115 116 117
l 118 119 120 121 122 123
l 124 125 126 127 128
l 129 130 131
l 132 133 134 135 136
l 137 138 139 140
l 141 142 143 144 145
l 146 147 148 149 150 151 152 153
l 154 155 156
l 157 158
l 159 160 161 162
l 163 164 165 166 167 168 169
l 170 171 172
l 173 174 175 176 177 178 179 180 181
l 182 183
l 184 185 186
l 187 188 189 190 191 192
l 193 194 195 196 197 198 199
l 200 201 202 203 204 205 206 207 208 209 210
l 211 212 213 214 215 216 217 218 219 220 221 222 223
l 224 225 226 227
l 228 229 230 231 232
l 233 234 235 236 237 238 239 240 241 242 243
l 244 245
l 246 247
l 248 249
l 250 251
l 252 253
l 254 255 256 257 258 259 260 261 262 254
l 263 264 265 266 267 268
l 269 270 271 272 273 274 275
l 276 277 278 279
l 280 281 282 283
l 284 285 286 287 288 284
l 289 290 291 292 293 289
l 294 295 296 297 298 299 300 294
l 301 302 303 304 305 301
l 306 307 308 309 310 311 306
l 312 313 314 315 316 317 318 312
l 319 320 321 322 323 319
l 324 325 326 327 328 329 324
l 330 331 332 333 334
l 335 336
l 337 338
l 339 340
l 341 342
l 343 344 345 346 347 348
l 349 350
l 351 352 353 354 355 356 357
l 358 359
l 360 361 362 363 364
l 365 366
l 367 368
l 369 370
l 371 372 373
l 374 375 376 377
l 378 379 380 381 382 383 384 385
l 386 387
l 388 389
l 390 391 392 393
l 394 395 396 397 398 399 400 401 402
l 403 404 405 406 407 403
l 408 409 410 411 412 413 408
l 414 415 416 417 418 419 414
l 420 421
l 422 423 424 425 426 427
l 428 429 430 431 432 433 434
l 435 436
l 437 438
l 439 440 441
l 442 443 444
l 445 446 447 448 449 450 445
l 451 452
l 453 454 455 456 453
l 457 458
l 459 460 461 462 463 464 465 466 467 468 469
l 470 471
l 472 473 474 475 476 477 478 479
l 480 481 482 483
l 484 485 486 487 488 489 484
l 490 491
l 492 493
l 494 495 496 497
l 498 499 500 501 502 503 504 498
l 505 506
l 507 508 509 510 511
l 512 513 514 515
l 516 517
l 518 519
l 520 521 522 523 524 520
l 525 526
l 527 528
l 529 530 531 532 533
l 534 535
l 536 537 538
l 539 540 541 542 543
l 544 545 546
l 547 548 549 550 551
l 552 553 554 555
l 556 557 558 559 560 561 562 563 564
l 565 566 567 568 569 570 571
l 572 573 574 575
l 576 577 578
l 579 580
l 581 582
l 583 584
l 585 586 587 588 589 590
l 591 592 593
l 594 595
l 596 597
l 598 599
l 600 601
l 602 603
l 604 605 606 607 608 604
l 609 610 611 612 613 614 609
l 615 616 617 618 619
l 620 621
l 622 623 624 625 626 627 628 629 622
l 630 631 632 633 634 635 636 637 638
l 639 640
l 641 642 643 644
l 645 646
l 647 648 649 650 651 652
l 653 654 655 656 657 658 659 653
l 660 661 662 663 664 665
l 666 667 668
l 669 670 671 672
l 673 674
l 675 676 677 678 679
l 680 681 682
l 683 684 685 686 687 688 689 690 691 692 693
l 694 695 696 697 698 694
l 699 700
l 701 702 703 704 705 706 707 701
l 708 709 710 711 712 708
l 713 714
l 715 716 717
l 718 719 720 721 722 723 718
l 724 725 726 727 728 729
l 730 731 732 733 734 735 736 737
l 738 739 740 741
l 742 743 744 745 746 747 748
l 749 750 751 752 753 754 755 756
l 757 758 759 760 761 762 763 764
l 765 766 767 768
l 769 770 771 772 773 769
l 774 775 776 777 778 774
l 779 780 781 782 783 779
l 784 785 786 787 788 784
l 789 790 791 792 793 794 789
l 795 796 797 798 799 795
l 800 801 802 803 804
l 805 806 807 808 809 810 811
l 812 813 814 815 816
l 817 818
l 819 820
l 821 822
l 823 824
l 825 826
l 827 828 829 830 831 832
l 833 834
l 835 836 837 838 835
l 839 840
l 841 842
l 843 844
l 845 846
l 847 848
l 849 850
l 851 852
l 853 854
l 855 856 857 858 859
l 860 861
l 862 863 864 865 866
l 867 868 869
l 870 871 872 873 874
l 875 876 877 878
l 879 880 881 882 883 884 885 886 887 888 889 890
l 891 892 893 894 895
l 896 897 898 899
l 900 901 902 903 904 905 906 907 908
l 909 910 911
l 912 913
l 914 915 916 917 918 919
l 920 921 922 923 924 925 926 927 928
l 929 930 931 932
l 933 934 935 936 937 938 939
l 940 941 942
l 943 944 945 946 947 948 949 950 951 952 953 954 955
l 956 957 958 959 960 961 962 963 964
l 965 966 967 968 969
l 970 971
l 972 973 974 975 976 977 978
l 979 980
l 981 982
l 983 984
l 985 986 987 988 989 990 991 992 985
l 993 994 995 996 997 998 999 1000 1001 993
l 1002 1003 1004
l 1005 1006 1007 1008 1009 1010 1005
l 1011 1012 1013 1014
l 1015 1016 1017 1018 1019 1015
l 1020 1021 1022
l 1023 1024
l 1025 1026 1027 1028 1029
l 1030 1031 1032 1033
l 1034 1035 1036 1037 1038 1039 1040
l 1041 1042
l 1043 1044 1045 1046 1047 1048 1049
l 1050 1051 1052 1053 1054 1055 1056
l 1057 1058
l 1059 1060 1061 1062 1063 1064 1065 1066 1067
l 1068 1069 1070 1071 1072 1073 1074 1075
l 1076 1077 1078
l 1079 1080 1081 1082 1083 1084 1079
l 1085 1086
l 1087 1088 1089
l 1090 1091
l 1092 1093
l 1094 1095 1096
l 1097 1098 1099 1100 1101 1102 1103 1104 1105 1106 1107 1108 1109 1110
l 1111 1112 1113 1114 1115 1116
l 1117 1118 1119 1120 1121
l 1122 1123 1124
l 1125 1126
l 1127 1128 1129 1130 1131 1127
l 1132 1133 1134 1135 1136 1132
l 1137 1138
l 1139 1140 1141 1142 1143
l 1144 1145
l 1146 1147
l 1148 1149 1150
l 1151 1152
l 1153 1154 1155 1156 1157 1158 1159 1160 1161 1153
l 1162 1163 1164 1165 1166 1167 1168 1169 1162
l 1170 1171
l 1172 1173 1174
l 1175 1176
l 1177 1178
l 1179 1180 1181 1182 1183 1184
l 1185 1186
l 1187 1188 1189
l 1190 1191 1192 1193
l 1194 1195 1196 1197 1198 1199 1200
l 1201 1202
l 1203 1204 1205 1206 1207 1208 1203
l 1209 1210 1211
l 1212 1213 1214 1215 1216
l 1217 1218
l 1219 1220 1221 1222 1223 1224 1225 1226 1227 1219
l 1228 1229
l 1230 1231
l 1232 1233
l 1234 1235 1236 1237 1238 1239 1234
l 1240 1241 1242 1243 1244
l 1245 1246 1247 1248 1249
l 1250 1251
l 1252 1253 1254 1255 1256
l 1257 1258 1259 1260 1261
l 1262 1263 1264
l 1265 1266
l 1267 1268 1269 1270 1271 1272 1273 1274 1275 1276 1277 1278
l 1279 1280 1281 1282 1283
l 1284 1285 1286 1287 1288
l 1289 1290 1291 1292 1293
l 1294 1295 1296 1297 1298 1299 1300 1301 1302
l 1303 1304 1305 1306 1307 1308 1309 1310 1311 1312 1313 1314 1315 1316
l 1317 1318 1319 1320 1321
l 1322 1323 1324 1325 1326 1327
l 1328 1329 1330 1331 1332 1333
l 1334 1335
l 1336 1337 1338
l 1339 1340
l 1341 1342
l 1343 1344 1345 1346 1347 1348
l 1349 1350 1351 1352 1353 1354 1355
l 1356 1357 1358 1359
l 1360 1361
l 1362 1363
l 1364 1365 1366 1367 1368 1369 1370 1371 1364
l 1372 1373 1374 1375 1376 1377 1372
l 1378 1379 1380 1381 1382 1383 1384 1385
l 1386 1387 1388
l 1389 1390 1391 1392
l 1393 1394 1395 1396 1397 1398 1399 1393
l 1400 1401 1402 1403 1404 1400
l 1405 1406 1407 1408 1409 1405
l 1410 1411 1412 1413 1414 1415 1416 1410
l 1417 1418 1419 1420 1421 1422 1417
l 1423 1424 1425 1426 1427 1428 1423
l 1429 1430 1431 1432 1433
l 1434 1435 1436 1437 1438 1434
l 1439 1440 1441 1442 1443 1444 1439
l 1445 1446
l 1447 1448
l 1449 1450
l 1451 1452
l 1453 1454
l 1455 1456 1457 1458
l 1459 1460 1461 1462
l 1463 1464
l 1465 1466 1467 1468 1469 1470 1471 1472
l 1473 1474
l 1475 1476 1477
l 1478 1479
l 1480 1481 1482 1483 1484 1480
l 1485 1486 1487 1488 1489 1490 1485
l 1111 1491 1492 1493 1115 1116
l 1494 1495 1496
l 1497 1498 1499 1500 1501 1502 1503 1504 1497
l 1505 1506 1507 1508 1509 1510 1511
l 1512 1513 1514 1515 1516
l 1517 1518 1519 1520 1521
l 1522 1523
l 1524 1525 1526 1527 1528 1524
l 1529 1530 1531 1532 1533 1534 1529
l 1535 1536
l 1537 1538 1539 1540 1541 1542 1543
l 1544 1545 1546 1547 1548 1544
l 1549 1550 1551 1552 1553
l 1554 1555 1556 1557 1558
l 1559 1560 1561 1562
l 1563 1564 1565
l 1566 1567 1568
l 1569 1570
l 1571 1572 1573
l 1574 1575 1576 1577 1574
l 1578 1579 1580
l 1581 1582
l 1583 1584
l 1585 1586
l 1587 1588 1589
l 1590 1591 1592
l 1593 1594
l 1595 1596
l 1597 1598 1599 1600 1601 1602 1603 1604 1597
l 1605 1606 1607 1608 1609
l 1610 1611
l 1612 1613 1614 1615
l 1616 1617 1618 1619 1620
l 1621 1622 1623
l 1624 1625 1626 1627 1628 1629 1624
l 1630 1631 1632 1633 1634 1635 1630
l 1636 1637 1638 1639 1640 1641 1642 1643
l 1644 1645
l 1646 1647 1648
l 1649 1650 1651 1652 1653 1654 1649
l 1655 1656
l 1657 1658
l 1659 1660
l 1661 1662 1663 63
l 1664 1665 1666
l 1667 1668 1669
l 1670 1671
l 1672 1673
l 1674 1675
l 1676 1677 1678 1679 1680
l 1681 1682 1683 1684 1685 1686
l 1687 1688 1689
l 1690 1691 1692 1693 1694
l 1695 1696 1697 1698 1699 1700
l 1701 1702 1703 1704 1705 1706
l 1707 1708
l 1709 1710
l 1711 1712
l 1713 1714 1715 1716 1717 1718 1719
l 1720 1721 1722 1723 1724 1725 1726 1720
l 1727 1728 1729
l 1730 1731
l 1732 1733 1734 1735 1736 1732
