v -0.193849 -0.083582 0.212342
v -0.192328 -0.075869 0.208149
v -0.186563 -0.068840 0.204026
v -0.148896 -0.043166 0.187831
v 0.195344 -0.083582 0.212342
v 0.193823 -0.075869 0.208149
v 0.188058 -0.068840 0.204026
v 0.150391 -0.043166 0.187831
v -0.173410 -0.092106 -0.318116
v -0.166810 -0.080793 -0.329029
v -0.133737 -0.060867 -0.348042
v 0.174905 -0.092106 -0.318116
v 0.168305 -0.080793 -0.329029
v 0.135232 -0.060867 -0.348042
v -0.195471 -0.090281 0.139103
v -0.191200 -0.093614 0.054919
v -0.186278 -0.097628 -0.183396
v -0.176653 -0.096940 -0.334071
v -0.182083 -0.047194 0.008487
v -0.182190 -0.049693 0.029730
v -0.182866 -0.060056 0.038026
v -0.185064 -0.080341 0.034705
v -0.185691 -0.087827 0.019052
v -0.183723 -0.092478 -0.144332
v -0.173767 -0.094657 -0.325901
v 0.161924 0.032520 0.025086
v 0.152111 0.056066 0.083301
v 0.145590 0.066726 0.130540
v 0.140324 0.068727 0.186217
v 0.139655 0.064405 0.273076
v 0.000748 0.028235 -0.184220
v 0.000748 0.071572 -0.126645
v 0.000748 0.096750 -0.082846
v 0.000748 0.115968 -0.030027
v 0.000748 0.125477 0.023796
v 0.000747 0.127386 0.092320
v 0.000748 0.120953 0.168902
v 0.000747 0.106005 0.237057
v 0.000747 0.077065 0.332676
v 0.173950 -0.088708 -0.320994
v 0.176542 -0.078219 -0.179208
v 0.165827 -0.070846 -0.023300
v 0.169616 -0.070269 -0.001178
v 0.183300 -0.070235 0.029178
v 0.130298 0.045673 -0.092742
v 0.113849 0.044518 -0.125973
v 0.086660 0.044073 -0.149130
v 0.050313 0.043973 -0.161686
v -0.001296 0.043816 -0.166190
v 0.000780 -0.010053 -0.465963
v -0.037448 -0.013755 -0.460625
v 0.000748 0.057559 -0.157852
v 0.000748 0.049789 -0.277407
v 0.000748 0.039024 -0.352492
v 0.000748 0.017487 -0.429205
v 0.000748 0.005684 -0.455408
v 0.000748 -0.006226 -0.471966
v 0.001117 0.037973 -0.360362
v 0.047558 0.036698 -0.362584
v 0.078973 0.030593 -0.364684
v 0.145751 0.038379 -0.369498
v 0.107892 0.024028 -0.367112
v 0.084100 0.029834 -0.365185
v -0.028334 -0.011374 -0.463524
v -0.036544 -0.014446 -0.462480
v -0.034948 -0.022732 -0.465063
v 0.087696 -0.002214 -0.449726
v 0.107334 0.022691 -0.374868
v 0.116598 0.033661 -0.323838
v 0.128431 0.043425 -0.218271
v 0.139647 0.046557 -0.092047
v 0.042480 -0.008301 -0.469757
v 0.048266 -0.012082 -0.468372
v 0.056347 -0.012102 -0.466160
v 0.138308 0.006531 -0.440232
v 0.144240 0.000380 -0.442180
v 0.149040 -0.011872 -0.447292
v 0.152391 -0.045298 -0.458188
v -0.060580 -0.010646 -0.456215
v -0.052294 -0.030924 -0.462806
v -0.054330 -0.034234 -0.463568
v -0.094385 -0.026090 -0.457022
v -0.142419 -0.015479 -0.444289
v -0.132228 -0.029796 -0.442650
v -0.078279 -0.046232 -0.459064
v -0.073559 -0.049167 -0.460576
v -0.074281 -0.052087 -0.461272
v -0.125727 -0.079142 -0.460358
v -0.140314 -0.072346 -0.447403
v -0.156229 -0.059994 -0.423216
v 0.125849 -0.069628 -0.488094
v 0.130593 -0.041464 -0.475720
v 0.134722 -0.015144 -0.459219
v 0.138324 0.007594 -0.439645
v 0.141102 0.021904 -0.420947
v 0.042421 -0.063935 -0.477871
v 0.051224 -0.058594 -0.475001
v 0.059996 -0.060691 -0.473556
v 0.064950 -0.068285 -0.473992
v 0.062837 -0.078120 -0.476250
v 0.055685 -0.082386 -0.478477
v 0.046065 -0.080497 -0.479970
v 0.041111 -0.073033 -0.479604
v -0.045858 -0.014061 -0.469777
v -0.035690 -0.036254 -0.478809
v -0.019635 -0.067502 -0.486238
v -0.008754 -0.082582 -0.487770
v 0.000712 -0.086954 -0.488545
v 0.039792 -0.015234 -0.462545
v 0.031215 -0.035037 -0.469756
v 0.014634 -0.068975 -0.476596
v 0.006697 -0.081017 -0.478020
v -0.000314 -0.084497 -0.478339
v 0.031857 -0.006463 -0.471502
v 0.040562 -0.009606 -0.470705
v 0.038923 -0.018277 -0.473594
v 0.000343 -0.005420 -0.473254
v -0.040060 -0.008916 -0.468761
v -0.040921 -0.010417 -0.470841
v -0.031967 -0.031181 -0.478709
v -0.014793 -0.066933 -0.486342
v -0.006568 -0.079674 -0.487940
v 0.000769 -0.083424 -0.488178
v 0.125671 -0.071338 -0.488679
v 0.138888 -0.098025 -0.469037
v 0.172957 -0.099638 -0.408867
v 0.147273 -0.102464 -0.483316
v 0.138298 -0.103036 -0.501367
v 0.130514 -0.103568 -0.510002
v 0.119676 -0.103621 -0.509828
v 0.062454 -0.100793 -0.489860
v 0.001221 -0.102201 -0.503974
v -0.136131 -0.021798 -0.449616
v -0.067894 -0.042101 -0.471099
v -0.061901 -0.045773 -0.473045
v -0.062783 -0.049495 -0.473854
v -0.127462 -0.084515 -0.471178
v -0.145788 -0.075877 -0.454635
v -0.165670 -0.060003 -0.423961
v 0.063641 -0.046410 -0.473629
v 0.076318 -0.049995 -0.461447
v 0.129698 -0.024315 -0.453348
v 0.129895 -0.030577 -0.445386
v -0.135668 0.043600 -0.076245
v -0.119755 0.050791 -0.123862
v -0.109454 0.052735 -0.139365
v -0.096087 0.054080 -0.151703
v -0.078324 0.055161 -0.162050
v -0.057091 0.055938 -0.169309
v 0.000201 0.056760 -0.176114
v -0.055784 -0.014057 -0.464294
v -0.048938 -0.034025 -0.473108
v -0.051179 -0.037161 -0.474019
v -0.090313 -0.027831 -0.464267
v -0.136909 -0.016235 -0.447644
v 0.162599 0.018938 -0.303498
v 0.156416 0.034527 -0.291321
v 0.164387 0.016214 -0.276720
v 0.165171 0.013456 -0.304547
v 0.039718 -0.061101 -0.482561
v 0.052111 -0.053895 -0.479363
v 0.064195 -0.056946 -0.477897
v 0.070792 -0.067509 -0.478596
v 0.067518 -0.081030 -0.481263
v 0.057459 -0.086780 -0.483718
v 0.044203 -0.083997 -0.485188
v 0.037599 -0.073614 -0.484581
v -0.163515 -0.006350 -0.228519
v -0.166211 0.013921 -0.103719
v -0.163582 0.032228 0.018473
v 0.164031 -0.012602 -0.249660
v 0.169128 -0.007023 -0.261119
v 0.166450 0.008758 -0.208539
v 0.166422 0.032839 -0.022616
v -0.181812 -0.050373 -0.137455
v -0.172130 -0.057144 -0.135654
v -0.171672 -0.071096 -0.135126
v -0.173539 -0.084873 -0.134852
v -0.182658 -0.093665 -0.135188
v -0.112111 0.103964 0.003333
v -0.112027 0.110364 0.081061
v -0.103514 0.104425 0.170922
v 0.134497 0.041262 -0.095472
v 0.128437 0.066315 -0.068480
v 0.122669 0.087018 -0.036362
v 0.118315 0.098897 -0.006737
v 0.114555 0.106669 0.030233
v 0.184650 -0.059039 0.043130
v 0.183597 -0.055798 0.068790
v 0.192350 -0.053066 0.111318
v 0.000328 0.098370 -0.077807
v -0.045623 0.098996 -0.070026
v -0.075170 0.099581 -0.055589
v -0.097027 0.102026 -0.030416
v -0.113032 0.107206 0.007016
v 0.090949 0.004629 0.354592
v 0.067386 0.020343 0.359488
v 0.001217 0.022047 0.368072
v 0.169195 0.014518 -0.139262
v 0.168368 0.004758 -0.139000
v 0.174938 -0.020521 -0.138210
v 0.173458 -0.041373 -0.135923
v 0.182750 -0.048937 -0.137524
v -0.169888 0.008472 -0.366934
v -0.149607 0.029985 -0.367587
v -0.144918 0.039011 -0.368200
v -0.166538 -0.023977 -0.226499
v -0.174082 -0.019556 -0.118290
v -0.178128 -0.017967 0.026081
v -0.183857 -0.019193 0.111831
v 0.160484 -0.003403 -0.423953
v 0.158921 0.015563 -0.399877
v 0.161846 0.027332 -0.370206
v 0.162518 0.027300 -0.345449
v 0.163863 0.017846 -0.315922
v 0.091503 0.076090 0.306370
v 0.051088 0.075710 0.323868
v 0.001548 0.076632 0.333336
v -0.168654 -0.039416 -0.230679
v -0.177530 -0.041379 -0.096500
v -0.181300 -0.040788 0.018900
v 0.151096 0.043195 0.312806
v 0.144207 0.038396 0.307309
v 0.130445 0.028878 0.312578
v 0.123088 0.027601 0.324821
v -0.168482 -0.045749 -0.418271
v -0.166929 -0.022134 -0.413565
v -0.166227 -0.005312 -0.401696
v -0.166311 0.005941 -0.383816
v -0.167167 0.009984 -0.362835
v -0.168724 0.005843 -0.341947
v -0.170843 -0.005523 -0.324253
v -0.173287 -0.022525 -0.312491
v -0.175474 -0.042707 -0.307942
v -0.176988 -0.066621 -0.312526
v -0.177455 -0.084057 -0.324135
v -0.177309 -0.095822 -0.341402
v -0.176408 -0.100498 -0.361773
v -0.174662 -0.097256 -0.382389
v -0.172515 -0.086592 -0.400259
v -0.170495 -0.069668 -0.412612
v -0.181809 -0.048134 -0.137951
v -0.182971 -0.049857 -0.137825
v -0.165292 -0.021802 -0.253066
v -0.164650 -0.013309 -0.247520
v -0.165104 -0.011484 -0.238003
v -0.166390 -0.016651 -0.229901
v -0.167846 -0.025797 -0.227823
v -0.168434 -0.034516 -0.233320
v -0.167973 -0.036656 -0.242607
v -0.166648 -0.031860 -0.250754
v -0.125748 0.063088 0.308292
v -0.099931 0.066253 0.335003
v -0.080504 0.070147 0.346975
v -0.044890 0.073921 0.357717
v -0.000615 0.075642 0.361435
v 0.157898 0.051592 0.293889
v 0.150194 0.053612 0.302559
v 0.145404 0.052783 0.312099
v -0.082045 0.103573 0.211323
v -0.074878 0.099664 0.234188
v -0.057081 0.096940 0.254424
v -0.030451 0.095203 0.269014
v 0.000066 0.094006 0.275499
v -0.149306 0.047789 0.313166
v -0.134619 0.052639 0.317760
v -0.122168 0.045268 0.323039
v -0.118337 0.030716 0.326278
v -0.125275 0.017350 0.325766
v -0.140086 0.012174 0.321025
v -0.152559 0.018928 0.315708
v -0.156767 0.033072 0.312249
v 0.092937 0.054729 0.340999
v 0.051280 0.052419 0.355108
v 0.001136 0.051689 0.360561
v 0.113135 0.051720 0.331963
v 0.107002 0.041146 0.328633
v 0.112513 0.014063 0.332657
v 0.117585 0.009457 0.334496
v 0.132384 0.007123 0.339069
v -0.149946 0.022496 0.317681
v -0.141510 0.027251 0.308489
v -0.134588 0.041690 0.308801
v -0.131987 0.050337 0.315502
v 0.140250 0.067908 0.186418
v 0.119919 0.076521 0.184565
v -0.124962 0.044691 0.322205
v -0.120853 0.031568 0.325244
v -0.126904 0.019580 0.324613
v -0.139009 0.014941 0.321092
v -0.150258 0.020244 0.316812
v -0.154587 0.033484 0.313557
v -0.149013 0.045467 0.313932
v -0.137199 0.050448 0.317191
v -0.134385 -0.006907 0.337987
v -0.128216 0.007439 0.337887
v 0.108769 0.043501 0.330463
v 0.061611 0.042476 0.348216
v 0.002102 0.042967 0.356056
v 0.114394 0.111585 0.060301
v 0.128907 0.088894 0.063347
v 0.142065 0.057828 0.066961
v -0.088605 0.057942 0.340016
v -0.041739 0.061010 0.353616
v 0.000729 0.061747 0.356945
v -0.112743 0.111766 0.060396
v -0.095725 0.118683 0.058315
v -0.073315 0.123202 0.057538
v 0.000421 0.127981 0.057038
v 0.159868 0.029122 0.311763
v 0.163351 0.033835 0.291375
v 0.000747 0.076315 0.333195
v 0.000747 0.072519 0.349613
v 0.000747 0.075873 0.363025
v -0.181585 0.010680 0.085080
v -0.178900 0.043960 0.128789
v -0.176217 0.056484 0.163823
v -0.175548 0.057882 0.189563
v -0.176196 0.054993 0.211243
v -0.177717 0.047020 0.232805
v -0.179692 0.034871 0.252186
v 0.188109 0.039377 0.188351
v 0.170051 0.062778 0.186513
v 0.165369 0.077386 0.185947
v 0.163247 0.077128 0.186609
v 0.141917 0.069254 0.186764
v -0.196839 -0.072870 0.247982
v -0.189527 -0.059146 0.264113
v -0.173545 -0.054667 0.298176
v -0.155812 -0.050790 0.325641
v 0.000747 0.021207 0.367998
v 0.000747 0.013225 0.355657
v 0.000747 0.005258 0.352116
v 0.000747 -0.028587 0.355480
v 0.000747 -0.041363 0.367987
v 0.113389 0.083795 0.199531
v 0.101631 0.085738 0.244691
v 0.084840 0.085635 0.278640
v -0.090399 0.007674 0.354629
v -0.068476 0.023465 0.359684
v 0.001375 0.024334 0.367590
v -0.145778 -0.054301 0.331591
v -0.133260 -0.035796 0.337450
v -0.111352 -0.029525 0.343026
v -0.104012 -0.030686 0.344507
v -0.080247 -0.045700 0.348619
v 0.169206 -0.058723 0.319574
v 0.158428 -0.053531 0.333494
v 0.141532 -0.027353 0.343211
v 0.135283 -0.022846 0.345267
v 0.109848 -0.020440 0.352165
v 0.083082 -0.040203 0.356037
v 0.114933 -0.009672 0.348863
v 0.146286 -0.004544 0.330322
v 0.169005 0.007857 0.296739
v 0.175421 0.021636 0.280311
v 0.172259 0.041424 0.275998
v -0.069028 -0.028647 0.353536
v 0.024091 -0.026728 0.359558
v 0.000747 -0.038354 0.372447
v 0.000747 -0.052042 0.375773
v -0.010407 -0.051636 0.376620
v 0.051214 -0.051748 0.372178
v 0.091454 -0.049242 0.346472
v 0.005993 -0.038012 0.373524
v -0.055708 -0.038135 0.370390
v -0.096485 -0.035568 0.345550
v -0.197216 -0.077190 0.238638
v -0.168609 -0.072888 0.313175
v -0.156635 -0.071050 0.333700
v -0.128132 -0.064635 0.345224
v -0.073883 -0.050863 0.355006
v 0.106649 -0.042620 0.350569
v 0.113869 -0.046882 0.348812
v 0.117938 -0.039720 0.347516
v 0.110802 -0.035203 0.349168
v 0.125623 -0.025571 0.348318
v 0.122624 -0.030181 0.340755
v -0.122801 -0.045575 0.345999
v -0.124610 -0.050843 0.345616
v -0.129294 -0.053036 0.344334
v -0.136375 -0.046627 0.342300
v -0.134603 -0.041249 0.342620
v -0.130064 -0.038920 0.343823
v -0.125234 -0.040469 0.345152
v -0.103567 -0.042293 0.349598
v -0.106426 -0.047059 0.349073
v -0.111465 -0.048196 0.347758
v -0.117068 -0.040402 0.345964
v -0.114221 -0.035519 0.346431
v -0.109298 -0.034217 0.347671
v -0.104891 -0.036771 0.348920
v 0.147009 -0.054216 0.332555
v 0.137094 -0.057174 0.334693
v 0.098219 -0.049364 0.342875
v 0.092900 -0.047204 0.345231
v 0.091427 -0.039256 0.348101
v -0.132274 0.043035 -0.097924
v -0.125993 0.067688 -0.070616
v -0.120036 0.087929 -0.038239
v -0.115568 0.099390 -0.008467
v -0.111722 0.106655 0.028597
v -0.111584 0.106014 0.004102
v -0.111454 0.112060 0.081859
v -0.103055 0.105605 0.171695
v 0.133635 0.044959 -0.089636
v 0.142197 0.044691 -0.057924
v 0.143913 0.051303 0.016628
v 0.139086 0.060121 0.101580
v 0.129145 0.068037 0.157621
v 0.116782 0.078339 0.189161
v 0.111307 0.085021 0.194866
v 0.106756 0.092193 0.195015
v 0.103916 0.098649 0.190096
v 0.103384 0.103376 0.180474
v 0.106609 0.109705 0.138781
v 0.043014 -0.007958 -0.468683
v 0.053950 0.007765 -0.448459
v 0.064086 0.018781 -0.423114
v 0.076898 0.029263 -0.382079
v 0.090799 0.038679 -0.328205
v 0.109625 0.046913 -0.238858
v 0.132559 0.047637 -0.094512
v 0.131915 0.039022 0.310200
v 0.129796 0.032908 0.311350
v 0.132565 0.027278 0.311245
v 0.138316 0.025056 0.310108
v 0.143761 0.027482 0.308644
v 0.145993 0.033652 0.307404
v 0.143457 0.039277 0.307411
v 0.137854 0.041659 0.308442
v 0.166222 -0.061550 0.322236
v 0.156039 -0.056445 0.335209
v 0.140081 -0.031685 0.343849
v 0.134190 -0.027421 0.345688
v 0.110246 -0.025080 0.352066
v 0.085091 -0.043642 0.355979
v 0.087752 0.050949 0.347286
v 0.120568 0.051918 0.327576
v 0.152080 0.056866 0.295285
v 0.160454 0.050357 0.289232
v 0.166387 0.035701 0.289025
v 0.165914 0.028021 0.293055
v 0.161752 0.021588 0.301628
v 0.141978 0.010909 0.331338
v 0.121890 0.008915 0.345388
v 0.091925 0.007809 0.354522
v -0.163557 0.033184 0.022277
v -0.167632 0.020960 -0.090665
v -0.167692 0.002669 -0.246364
v -0.167990 -0.005926 -0.263650
v -0.169579 -0.023441 -0.270301
v -0.171454 -0.034751 -0.267540
v -0.173089 -0.042177 -0.261891
v -0.175774 -0.049422 -0.240174
v -0.183428 -0.046974 -0.113035
v -0.182061 -0.044341 0.022386
v -0.171781 -0.093752 -0.411370
v -0.150059 -0.096848 -0.470790
v -0.136523 -0.098394 -0.496367
v -0.127062 -0.099223 -0.506693
v -0.116895 -0.099213 -0.506175
v -0.059656 -0.095932 -0.486326
v 0.001564 -0.097482 -0.500484
v -0.179485 -0.051372 -0.241779
v -0.183596 -0.049371 -0.108103
v -0.182680 -0.046692 0.010144
v 0.000747 0.050770 0.359878
v 0.000747 0.042394 0.354538
v 0.000747 0.031768 0.355359
v 0.000747 0.024205 0.366558
v -0.181938 -0.044814 0.003845
v -0.181710 -0.045575 0.029178
v -0.181663 -0.050015 0.036987
v -0.182065 -0.056444 0.040725
v -0.183244 -0.068893 0.042118
v -0.184615 -0.080686 0.038880
v -0.185668 -0.087938 0.031504
v -0.186239 -0.091050 0.020571
v -0.184540 -0.094660 -0.162848
v -0.174070 -0.096365 -0.327917
v 0.075341 0.021935 0.356328
v 0.075923 0.025089 0.349132
v 0.075396 0.032302 0.344800
v -0.062146 -0.046410 -0.473629
v -0.074823 -0.049995 -0.461447
v -0.089454 0.004629 0.354592
v -0.065891 0.020343 0.359488
v 0.000278 0.022047 0.368072
v -0.086201 -0.002214 -0.449726
v -0.105839 0.022691 -0.374868
v -0.115103 0.033661 -0.323838
v -0.126936 0.043425 -0.218271
v -0.138152 0.046557 -0.092047
v -0.038297 -0.015234 -0.462545
v -0.029720 -0.035037 -0.469756
v -0.013139 -0.068975 -0.476596
v -0.005202 -0.081017 -0.478020
v 0.001809 -0.084497 -0.478339
v 0.183578 -0.047194 0.008487
v 0.183685 -0.049693 0.029730
v 0.184361 -0.060056 0.038026
v 0.186559 -0.080341 0.034705
v 0.187186 -0.087827 0.019052
v 0.185218 -0.092478 -0.144332
v 0.175262 -0.094657 -0.325901
v 0.000747 0.057559 -0.157852
v 0.000747 0.049789 -0.277407
v 0.000747 0.039024 -0.352492
v 0.000747 0.017487 -0.429205
v 0.000747 0.005684 -0.455408
v 0.000747 -0.006226 -0.471966
v -0.125253 0.045592 -0.108392
v -0.117020 0.077016 -0.070246
v -0.110408 0.097399 -0.031990
v -0.103626 0.112411 0.020656
v -0.097700 0.120087 0.082084
v -0.093283 0.119520 0.133013
v -0.086310 0.111344 0.189985
v -0.078939 0.095282 0.250552
v -0.071549 0.069289 0.325966
v -0.149601 0.043195 0.312806
v -0.142712 0.038396 0.307309
v -0.185366 -0.079650 0.041535
v -0.196670 -0.088305 0.133590
v 0.114238 0.111766 0.060396
v 0.097220 0.118683 0.058315
v 0.074810 0.123202 0.057538
v 0.001074 0.127981 0.057038
v -0.132140 0.044959 -0.089636
v -0.140702 0.044691 -0.057924
v -0.142418 0.051303 0.016628
v -0.137591 0.060121 0.101580
v -0.127650 0.068037 0.157621
v -0.115287 0.078339 0.189161
v -0.109812 0.085021 0.194866
v -0.105261 0.092193 0.195015
v -0.102421 0.098649 0.190096
v -0.101889 0.103376 0.180474
v -0.105114 0.109705 0.138781
v 0.057279 -0.014057 -0.464294
v 0.050433 -0.034025 -0.473108
v 0.052674 -0.037161 -0.474019
v 0.091808 -0.027831 -0.464267
v 0.138404 -0.016235 -0.447644
v 0.113606 0.103964 0.003333
v 0.113522 0.110364 0.081061
v 0.105009 0.104425 0.170922
v -0.091442 0.054729 0.340999
v -0.049785 0.052419 0.355108
v 0.000359 0.051689 0.360561
v -0.105154 -0.042620 0.350569
v -0.112374 -0.046882 0.348812
v -0.116443 -0.039720 0.347516
v -0.109307 -0.035203 0.349168
v -0.135632 -0.006836 0.339006
v -0.148722 -0.031315 0.335846
v -0.157383 -0.041828 0.330043
v -0.164594 -0.046497 0.316871
v -0.181968 -0.051547 0.279636
v 0.124515 -0.078161 -0.462196
v 0.125080 -0.082367 -0.472573
v -0.162536 -0.012602 -0.249660
v -0.167633 -0.007023 -0.261119
v 0.168188 -0.033187 -0.255723
v 0.173672 -0.037825 -0.264851
v 0.146830 0.047429 -0.134831
v 0.169047 0.014943 -0.139416
v 0.164335 0.031316 0.019238
v 0.165142 0.063315 0.096105
v 0.165395 0.076300 0.153655
v 0.163474 0.075520 0.211476
v 0.159523 0.057861 0.289920
v -0.187788 -0.002974 0.124230
v -0.185397 0.019404 0.140293
v -0.184057 0.031315 0.160631
v -0.183678 0.034580 0.184615
v -0.184316 0.028867 0.208437
v -0.185952 0.014673 0.228300
v -0.188439 -0.005536 0.241420
v -0.191502 -0.028806 0.245687
v -0.194429 -0.051980 0.240919
v -0.196781 -0.074728 0.224839
v -0.197864 -0.087406 0.204478
v -0.198176 -0.091497 0.180889
v -0.197493 -0.086734 0.157403
v -0.195659 -0.073610 0.137395
v -0.193159 -0.054051 0.123758
v -0.190591 -0.030575 0.118845
v -0.133112 -0.013386 -0.456515
v -0.136592 0.008687 -0.437829
v -0.140109 0.025132 -0.412779
v -0.143294 0.035356 -0.383552
v -0.146857 0.042608 -0.341181
v -0.150269 0.047652 -0.280558
v -0.151371 0.049212 -0.213867
v -0.147214 0.044573 -0.003886
v 0.000389 -0.089711 -0.481661
v -0.038198 -0.083768 -0.473542
v -0.079441 -0.078180 -0.460011
v -0.117431 -0.092109 -0.464767
v -0.127916 -0.094575 -0.463617
v -0.142975 -0.094444 -0.453073
v -0.171205 -0.089761 -0.422963
v 0.133723 -0.029796 -0.442650
v 0.079774 -0.046232 -0.459064
v 0.075054 -0.049167 -0.460576
v 0.075776 -0.052087 -0.461272
v 0.127222 -0.079142 -0.460358
v 0.141809 -0.072346 -0.447403
v 0.157724 -0.059994 -0.423216
v -0.048069 -0.011558 -0.467260
v -0.059106 0.004629 -0.446239
v -0.068966 0.015939 -0.420520
v -0.092843 0.035516 -0.330960
v -0.110321 0.044938 -0.242688
v -0.130641 0.047665 -0.096021
v 0.042416 -0.010417 -0.470841
v 0.033462 -0.031181 -0.478709
v 0.016288 -0.066933 -0.486342
v 0.008063 -0.079674 -0.487940
v 0.000726 -0.083424 -0.488178
v -0.124500 -0.069660 -0.488465
v -0.150112 -0.065658 -0.458158
v -0.174533 -0.059942 -0.414469
v -0.175683 0.016161 0.272202
v -0.179360 -0.014710 0.276673
v -0.186115 -0.046279 0.274948
v 0.000725 0.009967 0.353825
v -0.065917 0.009722 0.354360
v -0.088462 -0.004477 0.352742
v -0.123862 -0.045747 0.346458
v -0.129597 -0.051953 0.345053
v -0.135501 -0.046301 0.343396
v -0.129916 -0.039882 0.344682
v 0.105062 -0.042293 0.349598
v 0.107921 -0.047059 0.349073
v 0.112960 -0.048196 0.347758
v 0.118563 -0.040402 0.345964
v 0.115716 -0.035519 0.346431
v 0.110793 -0.034217 0.347671
v 0.106386 -0.036771 0.348920
v 0.084760 0.051582 0.348355
v 0.119759 0.052649 0.327463
v 0.153411 0.058014 0.293192
v 0.161662 0.052044 0.287057
v 0.168193 0.037665 0.286021
v 0.168563 0.028923 0.289412
v 0.164952 0.021924 0.297287
v 0.144187 0.009316 0.329402
v 0.125530 0.006937 0.344158
v 0.093049 0.005379 0.354273
v 0.130897 0.070294 0.199741
v 0.127315 0.070996 0.257907
v 0.123322 0.071290 0.277276
v 0.111627 0.071429 0.297809
v 0.090230 0.071491 0.317836
v -0.133002 0.041262 -0.095472
v -0.126942 0.066315 -0.068480
v -0.121174 0.087018 -0.036362
v -0.116820 0.098897 -0.006737
v -0.113060 0.106669 0.030233
v 0.135880 -0.006907 0.337987
v 0.129711 0.007439 0.337887
v 0.147273 -0.054301 0.331591
v 0.134755 -0.035796 0.337450
v 0.112847 -0.029525 0.343026
v 0.105507 -0.030686 0.344507
v 0.081742 -0.045700 0.348619
v 0.196242 -0.091127 0.216404
v 0.194722 -0.083414 0.212211
v 0.188956 -0.076385 0.208088
v 0.151289 -0.050712 0.191893
v -0.158989 -0.003403 -0.423953
v -0.157426 0.015563 -0.399877
v -0.160351 0.027332 -0.370206
v -0.161023 0.027300 -0.345449
v -0.162368 0.017846 -0.315922
v 0.000747 0.028235 -0.184220
v 0.000747 0.071572 -0.126645
v 0.000747 0.096750 -0.082846
v 0.000747 0.115968 -0.030027
v 0.000747 0.125477 0.023796
v 0.000747 0.120953 0.168902
v 0.029829 -0.011374 -0.463524
v 0.038039 -0.014446 -0.462480
v 0.036443 -0.022732 -0.465063
v 0.183080 0.010680 0.085080
v 0.180395 0.043960 0.128789
v 0.177712 0.056484 0.163823
v 0.177043 0.057882 0.189563
v 0.177691 0.054993 0.211243
v 0.179212 0.047020 0.232805
v 0.181187 0.034871 0.252186
v 0.000747 0.051871 0.360531
v 0.000747 0.065595 0.356561
v 0.000747 0.074298 0.361241
v -0.156403 0.051592 0.293889
v -0.148699 0.053612 0.302559
v -0.143909 0.052783 0.312099
v -0.073846 0.021935 0.356328
v -0.074428 0.025089 0.349132
v -0.073901 0.032302 0.344800
v -0.138755 0.067908 0.186418
v -0.118424 0.076521 0.184565
v 0.126457 0.044691 0.322205
v 0.122348 0.031568 0.325244
v 0.128399 0.019580 0.324613
v 0.140504 0.014941 0.321092
v 0.151753 0.020244 0.316812
v 0.156082 0.033484 0.313557
v 0.150508 0.045467 0.313932
v 0.138694 0.050448 0.317191
v -0.107274 0.043501 0.330463
v -0.060116 0.042476 0.348216
v -0.000607 0.042967 0.356056
v 0.137126 -0.006836 0.339006
v 0.150217 -0.031315 0.335846
v 0.158878 -0.041828 0.330043
v 0.166089 -0.046497 0.316871
v 0.183463 -0.051547 0.279636
v -0.158373 0.029122 0.311763
v -0.161856 0.033835 0.291375
v -0.186614 0.039377 0.188351
v -0.168556 0.062778 0.186513
v -0.163874 0.077386 0.185947
v 0.177178 0.016161 0.272202
v 0.180855 -0.014710 0.276673
v 0.187610 -0.046279 0.274948
v -0.111894 0.083795 0.199531
v -0.100136 0.085738 0.244691
v -0.083345 0.085635 0.278640
v 0.091894 0.007674 0.354629
v 0.069971 0.023465 0.359684
v 0.000120 0.024334 0.367590
v -0.167711 -0.058723 0.319574
v -0.156933 -0.053531 0.333494
v -0.140037 -0.027353 0.343211
v -0.133788 -0.022846 0.345267
v -0.108353 -0.020440 0.352165
v -0.081587 -0.040203 0.356037
v 0.000770 0.009967 0.353825
v 0.067412 0.009722 0.354360
v 0.089957 -0.004477 0.352742
v 0.011902 -0.051636 0.376620
v -0.049719 -0.051748 0.372178
v -0.089959 -0.049242 0.346472
v -0.004498 -0.038012 0.373524
v 0.057203 -0.038135 0.370390
v 0.097980 -0.035568 0.345550
v 0.125357 -0.045747 0.346458
v 0.131092 -0.051953 0.345053
v 0.136996 -0.046301 0.343396
v 0.131411 -0.039882 0.344682
v -0.145514 -0.054216 0.332555
v -0.135599 -0.057174 0.334693
v -0.096724 -0.049364 0.342875
v -0.091405 -0.047204 0.345231
v -0.089932 -0.039256 0.348101
v 0.133769 0.043035 -0.097924
v 0.127488 0.067688 -0.070616
v 0.121531 0.087929 -0.038239
v 0.117063 0.099390 -0.008467
v 0.113217 0.106655 0.028597
v -0.041519 -0.007958 -0.468683
v -0.052455 0.007765 -0.448459
v -0.062591 0.018781 -0.423114
v -0.075403 0.029263 -0.382079
v -0.089304 0.038679 -0.328205
v -0.108130 0.046913 -0.238858
v -0.131064 0.047637 -0.094512
v -0.144256 0.038379 -0.369498
v -0.106397 0.024028 -0.367112
v -0.082605 0.029834 -0.365185
v -0.040926 -0.063935 -0.477871
v -0.049729 -0.058594 -0.475001
v -0.058501 -0.060691 -0.473556
v -0.063455 -0.068285 -0.473992
v -0.061342 -0.078120 -0.476250
v -0.054190 -0.082386 -0.478477
v -0.044570 -0.080497 -0.479970
v -0.039616 -0.073033 -0.479604
v 0.047353 -0.014061 -0.469777
v 0.037185 -0.036254 -0.478809
v 0.021130 -0.067502 -0.486238
v 0.010249 -0.082582 -0.487770
v 0.000783 -0.086954 -0.488545
v -0.171462 -0.099638 -0.408867
v -0.145778 -0.102464 -0.483316
v -0.136803 -0.103036 -0.501367
v -0.129019 -0.103568 -0.510002
v -0.118181 -0.103621 -0.509828
v -0.060959 -0.100793 -0.489860
v 0.000274 -0.102201 -0.503974
v 0.137626 -0.021798 -0.449616
v 0.069389 -0.042101 -0.471099
v 0.063396 -0.045773 -0.473045
v 0.064278 -0.049495 -0.473854
v 0.128957 -0.084515 -0.471178
v 0.147283 -0.075877 -0.454635
v 0.167165 -0.060003 -0.423961
v -0.123020 -0.078161 -0.462196
v -0.123585 -0.082367 -0.472573
v -0.038223 -0.061101 -0.482561
v -0.050616 -0.053895 -0.479363
v -0.062700 -0.056946 -0.477897
v -0.069297 -0.067509 -0.478596
v -0.066023 -0.081030 -0.481263
v -0.055964 -0.086780 -0.483718
v -0.042708 -0.083997 -0.485188
v -0.036104 -0.073614 -0.484581
v 0.165010 -0.006350 -0.228519
v 0.167706 0.013921 -0.103719
v 0.165077 0.032228 0.018473
v -0.166693 -0.033187 -0.255723
v -0.172177 -0.037825 -0.264851
v -0.183155 -0.059039 0.043130
v -0.182102 -0.055798 0.068790
v -0.190855 -0.053066 0.111318
v 0.001167 0.098370 -0.077807
v 0.047118 0.098996 -0.070026
v 0.076665 0.099581 -0.055589
v 0.098522 0.102026 -0.030416
v 0.114527 0.107206 0.007016
v -0.145335 0.047429 -0.134831
v -0.167552 0.014943 -0.139416
v 0.168033 -0.023977 -0.226499
v 0.175577 -0.019556 -0.118290
v 0.179623 -0.017967 0.026081
v 0.185352 -0.019193 0.111831
v -0.090008 0.076090 0.306370
v -0.049593 0.075710 0.323868
v -0.000053 0.076632 0.333336
v 0.170149 -0.039416 -0.230679
v 0.179025 -0.041379 -0.096500
v 0.182795 -0.040788 0.018900
v -0.162840 0.031316 0.019238
v -0.163647 0.063315 0.096105
v -0.163900 0.076300 0.153655
v -0.161979 0.075520 0.211476
v -0.158028 0.057861 0.289920
v -0.129402 0.070294 0.199741
v -0.125820 0.070996 0.257907
v -0.121827 0.071290 0.277276
v -0.110132 0.071429 0.297809
v -0.088735 0.071491 0.317836
v 0.127243 0.063088 0.308292
v 0.101426 0.066253 0.335003
v 0.081999 0.070147 0.346975
v 0.046385 0.073921 0.357717
v 0.002110 0.075642 0.361435
v 0.150801 0.047789 0.313166
v 0.136114 0.052639 0.317760
v 0.123663 0.045268 0.323039
v 0.119832 0.030716 0.326278
v 0.126770 0.017350 0.325766
v 0.141581 0.012174 0.321025
v 0.154054 0.018928 0.315708
v 0.158262 0.033072 0.312249
v -0.083265 0.051582 0.348355
v -0.118264 0.052649 0.327463
v -0.151916 0.058014 0.293192
v -0.160167 0.052044 0.287057
v -0.166698 0.037665 0.286021
v -0.167068 0.028923 0.289412
v -0.163457 0.021924 0.297287
v -0.142692 0.009316 0.329402
v -0.124035 0.006937 0.344158
v -0.091554 0.005379 0.354273
v 0.136083 0.041690 0.308801
v 0.133482 0.050337 0.315502
v 0.196966 -0.090281 0.139103
v 0.192695 -0.093614 0.054919
v 0.187773 -0.097628 -0.183396
v 0.178148 -0.096940 -0.334071
v 0.166787 -0.021802 -0.253066
v 0.166145 -0.013309 -0.247520
v 0.166599 -0.011484 -0.238003
v 0.167885 -0.016651 -0.229901
v 0.169341 -0.025797 -0.227823
v 0.169929 -0.034516 -0.233320
v 0.169468 -0.036656 -0.242607
v 0.168143 -0.031860 -0.250754
v 0.062075 -0.010646 -0.456215
v 0.053789 -0.030924 -0.462806
v 0.055825 -0.034234 -0.463568
v 0.095880 -0.026090 -0.457022
v 0.143914 -0.015479 -0.444289
v 0.137163 0.043600 -0.076245
v 0.121250 0.050791 -0.123862
v 0.110949 0.052735 -0.139365
v 0.097582 0.054080 -0.151703
v 0.079819 0.055161 -0.162050
v 0.058586 0.055938 -0.169309
v 0.001294 0.056760 -0.176114
v -0.113438 -0.009672 0.348863
v -0.144791 -0.004544 0.330322
v -0.167510 0.007857 0.296739
v -0.173926 0.021636 0.280311
v -0.170764 0.041424 0.275998
v -0.124128 -0.025571 0.348318
v -0.121129 -0.030181 0.340755
v 0.000715 -0.010053 -0.465963
v 0.038943 -0.013755 -0.460625
v 0.183307 -0.050373 -0.137455
v 0.173625 -0.057144 -0.135654
v 0.173167 -0.071096 -0.135126
v 0.175034 -0.084873 -0.134852
v 0.184153 -0.093665 -0.135188
v 0.171383 0.008472 -0.366934
v 0.151102 0.029985 -0.367587
v 0.146413 0.039011 -0.368200
v 0.174249 -0.086559 -0.323492
v 0.167985 -0.075510 -0.334152
v 0.134577 -0.055321 -0.353418
v 0.124296 -0.045575 0.345999
v 0.126105 -0.050843 0.345616
v 0.130789 -0.053036 0.344334
v 0.137870 -0.046627 0.342300
v 0.136098 -0.041249 0.342620
v 0.131559 -0.038920 0.343823
v 0.126729 -0.040469 0.345152
v -0.128803 0.045673 -0.092742
v -0.112354 0.044518 -0.125973
v -0.085165 0.044073 -0.149130
v -0.048818 0.043973 -0.161686
v 0.002791 0.043816 -0.166190
v -0.040985 -0.008301 -0.469757
v -0.046771 -0.012082 -0.468372
v -0.054852 -0.012102 -0.466160
v -0.136813 0.006531 -0.440232
v -0.142745 0.000380 -0.442180
v -0.147545 -0.011872 -0.447292
v -0.150896 -0.045298 -0.458188
v -0.030362 -0.006463 -0.471502
v -0.039067 -0.009606 -0.470705
v -0.037428 -0.018277 -0.473594
v 0.001152 -0.005420 -0.473254
v 0.041555 -0.008916 -0.468761
v -0.128203 -0.024315 -0.453348
v -0.128400 -0.030577 -0.445386
v -0.194747 -0.091127 0.216404
v -0.193227 -0.083414 0.212211
v -0.187461 -0.076385 0.208088
v -0.149794 -0.050712 0.191893
v 0.165052 0.033184 0.022277
v 0.169127 0.020960 -0.090665
v 0.169187 0.002669 -0.246364
v 0.169485 -0.005926 -0.263650
v 0.171074 -0.023441 -0.270301
v 0.172949 -0.034751 -0.267540
v 0.174584 -0.042177 -0.261891
v 0.177269 -0.049422 -0.240174
v 0.184923 -0.046974 -0.113035
v 0.183556 -0.044341 0.022386
v 0.173276 -0.093752 -0.411370
v 0.151554 -0.096848 -0.470790
v 0.138018 -0.098394 -0.496367
v 0.128557 -0.099223 -0.506693
v 0.118390 -0.099213 -0.506175
v 0.061151 -0.095932 -0.486326
v -0.000069 -0.097482 -0.500484
v 0.126748 0.045592 -0.108392
v 0.118515 0.077016 -0.070246
v 0.111903 0.097399 -0.031990
v 0.105121 0.112411 0.020656
v 0.099195 0.120087 0.082084
v 0.094778 0.119520 0.133013
v 0.087805 0.111344 0.189985
v 0.080434 0.095282 0.250552
v 0.073044 0.069289 0.325966
v -0.160429 0.032520 0.025086
v -0.150616 0.056066 0.083301
v -0.144095 0.066726 0.130540
v -0.138829 0.068727 0.186217
v -0.138160 0.064405 0.273076
v 0.000378 0.037973 -0.360362
v -0.046063 0.036698 -0.362584
v -0.077478 0.030593 -0.364684
v -0.124354 -0.069628 -0.488094
v -0.129098 -0.041464 -0.475720
v -0.133227 -0.015144 -0.459219
v -0.136829 0.007594 -0.439645
v -0.139607 0.021904 -0.420947
v -0.124176 -0.071338 -0.488679
v -0.137393 -0.098025 -0.469037
v 0.125995 -0.069660 -0.488465
v 0.151607 -0.065658 -0.458158
v 0.176028 -0.059942 -0.414469
v -0.161104 0.018938 -0.303498
v -0.154921 0.034527 -0.291321
v -0.162892 0.016214 -0.276720
v -0.163676 0.013456 -0.304547
v 0.180980 -0.051372 -0.241779
v 0.185091 -0.049371 -0.108103
v 0.184175 -0.046692 0.010144
v -0.164955 0.008758 -0.208539
v -0.164927 0.032839 -0.022616
v 0.186861 -0.079650 0.041535
v 0.198165 -0.088305 0.133590
v -0.167700 0.014518 -0.139262
v -0.166873 0.004758 -0.139000
v -0.173443 -0.020521 -0.138210
v -0.171963 -0.041373 -0.135923
v -0.181255 -0.048937 -0.137524
v 0.183433 -0.044814 0.003845
v 0.183205 -0.045575 0.029178
v 0.183158 -0.050015 0.036987
v 0.183560 -0.056444 0.040725
v 0.184739 -0.068893 0.042118
v 0.186110 -0.080686 0.038880
v 0.187163 -0.087938 0.031504
v 0.187734 -0.091050 0.020571
v 0.186035 -0.094660 -0.162848
v 0.175565 -0.096365 -0.327917
v -0.128950 0.028878 0.312578
v -0.121593 0.027601 0.324821
v 0.169977 -0.045749 -0.418271
v 0.168424 -0.022134 -0.413565
v 0.167722 -0.005312 -0.401696
v 0.167806 0.005941 -0.383816
v 0.168662 0.009984 -0.362835
v 0.170219 0.005843 -0.341947
v 0.172338 -0.005523 -0.324253
v 0.174782 -0.022525 -0.312491
v 0.176969 -0.042707 -0.307942
v 0.178483 -0.066621 -0.312526
v 0.178950 -0.084057 -0.324135
v 0.178804 -0.095822 -0.341402
v 0.177903 -0.100498 -0.361773
v 0.176157 -0.097256 -0.382389
v 0.174010 -0.086592 -0.400259
v 0.171990 -0.069668 -0.412612
v 0.083540 0.103573 0.211323
v 0.076373 0.099664 0.234188
v 0.058576 0.096940 0.254424
v 0.031946 0.095203 0.269014
v 0.001429 0.094006 0.275499
v -0.111640 0.051720 0.331963
v -0.105507 0.041146 0.328633
v -0.111018 0.014063 0.332657
v -0.116090 0.009457 0.334496
v -0.130889 0.007123 0.339069
v 0.151441 0.022496 0.317681
v 0.143005 0.027251 0.308489
v -0.112899 0.111585 0.060301
v -0.127412 0.088894 0.063347
v -0.140570 0.057828 0.066961
v 0.090100 0.057942 0.340016
v 0.043234 0.061010 0.353616
v 0.000766 0.061747 0.356945
v -0.161752 0.077128 0.186609
v -0.140422 0.069254 0.186764
v 0.198334 -0.072870 0.247982
v 0.191022 -0.059146 0.264113
v 0.175040 -0.054667 0.298176
v 0.157307 -0.050790 0.325641
v -0.086257 0.050949 0.347286
v -0.119073 0.051918 0.327576
v -0.150585 0.056866 0.295285
v -0.158959 0.050357 0.289232
v -0.164892 0.035701 0.289025
v -0.164419 0.028021 0.293055
v -0.160257 0.021588 0.301628
v -0.140483 0.010909 0.331338
v -0.120395 0.008915 0.345388
v -0.090430 0.007809 0.354522
v 0.070523 -0.028647 0.353536
v -0.022596 -0.026728 0.359558
v -0.130420 0.039022 0.310200
v -0.128301 0.032908 0.311350
v -0.131070 0.027278 0.311245
v -0.136821 0.025056 0.310108
v -0.142266 0.027482 0.308644
v -0.144498 0.033652 0.307404
v -0.141962 0.039277 0.307411
v -0.136359 0.041659 0.308442
v 0.198711 -0.077190 0.238638
v 0.170104 -0.072888 0.313175
v 0.158130 -0.071050 0.333700
v 0.129627 -0.064635 0.345224
v 0.075378 -0.050863 0.355006
v -0.164727 -0.061550 0.322236
v -0.154544 -0.056445 0.335209
v -0.138586 -0.031685 0.343849
v -0.132695 -0.027421 0.345688
v -0.108751 -0.025080 0.352066
v -0.083596 -0.043642 0.355979
v 0.113079 0.106014 0.004102
v 0.112949 0.112060 0.081859
v 0.104550 0.105605 0.171695
v 0.189283 -0.002974 0.124230
v 0.186892 0.019404 0.140293
v 0.185552 0.031315 0.160631
v 0.185173 0.034580 0.184615
v 0.185811 0.028867 0.208437
v 0.187447 0.014673 0.228300
v 0.189934 -0.005536 0.241420
v 0.192997 -0.028806 0.245687
v 0.195924 -0.051980 0.240919
v 0.198276 -0.074728 0.224839
v 0.199359 -0.087406 0.204478
v 0.199671 -0.091497 0.180889
v 0.198988 -0.086734 0.157403
v 0.197154 -0.073610 0.137395
v 0.194654 -0.054051 0.123758
v 0.192086 -0.030575 0.118845
v 0.134607 -0.013386 -0.456515
v 0.138087 0.008687 -0.437829
v 0.141604 0.025132 -0.412779
v 0.144789 0.035356 -0.383552
v 0.148352 0.042608 -0.341181
v 0.151764 0.047652 -0.280558
v 0.152866 0.049212 -0.213867
v 0.148709 0.044573 -0.003886
v 0.001106 -0.089711 -0.481661
v 0.039693 -0.083768 -0.473542
v 0.080936 -0.078180 -0.460011
v 0.118926 -0.092109 -0.464767
v 0.129411 -0.094575 -0.463617
v 0.144470 -0.094444 -0.453073
v 0.172700 -0.089761 -0.422963
v 0.049564 -0.011558 -0.467260
v 0.060601 0.004629 -0.446239
v 0.070461 0.015939 -0.420520
v 0.094338 0.035516 -0.330960
v 0.111816 0.044938 -0.242688
v 0.132136 0.047665 -0.096021
v -0.172754 -0.086559 -0.323492
v -0.166490 -0.075510 -0.334152
v -0.133082 -0.055321 -0.353418
v -0.172455 -0.088708 -0.320994
v -0.175047 -0.078219 -0.179208
v -0.164332 -0.070846 -0.023300
v -0.168121 -0.070269 -0.001178
v -0.181805 -0.070235 0.029178
l 1 2 3 4
l 5 6 7 8
l 9 10 11
l 12 13 14
l 15 16 17 18
l 19 20 21 22 23 24 25
l 26 27 28 29 30
l 31 32 33 34 35 36 37 38 39
l 40 41 42 43 44
l 45 46 47 48 49
l 50 51
l 52 53 54 55 56 57
l 58 59 60
l 61 62 63
l 64 65 66
l 67 68 69 70 71
l 72 73 74 75 76 77 78
l 79 80 81 82 83
l 84 85 86 87 88 89 90
l 91 92 93 94 95
l 96 97 98 99 100 101 102 103 96
l 104 105 106 107 108
l 109 110 111 112 113
l 114 115 116
l 117 118
l 119 120 121 122 123
l 124 125
l 126 127 128 129 130 131 132
l 133 134 135 136 137 138 139
l 140 141
l 142 143
l 144 145 146 147 148 149 150
l 151 152 153 154 155
l 156 157 158 159 156
l 160 161 162 163 164 165 166 167 160
l 168 169 170
l 171 172
l 173 174
l 175 176 177 178 179
l 180 181 182
l 183 184 185 186 187
l 188 189 190
l 191 192 193 194 195
l 196 197 198
l 199 200 201 202 203
l 204 205 206
l 207 208 209 210
l 211 212 213 214 215
l 216 217 218
l 219 220 221
l 222 223
l 224 225
l 226 227 228 229 230 231 232 233 234 235 236 237 238 239 240 241 226
l 242 243
l 244 245 246 247 248 249 250 251 244
l 252 253 254 255 256
l 257 258 259
l 260 261 262 263 264
l 265 266 267 268 269 270 271 272 265
l 273 274 275
l 276 277 278 279 280
l 281 282
l 283 284
l 285 286
l 287 288 289 290 291 292 293 294 287
l 295 296
l 297 298 299
l 300 301 302
l 303 304 305
l 306 307 308 309
l 310 311
l 312 313 314
l 315 316 317 318 319 320 321
l 322 323 324
l 325 326
l 327 328 329 330
l 331 332 333 334 335
l 336 337 338
l 339 340 341
l 342 343 344 345 346
l 347 348 349 350 351 352
l 353 354 355 356 357
l 358 359
l 360 361
l 362 363 364
l 365 366 367
l 368 369 370 371 372
l 373 374 375 376 373
l 377 378
l 379 380 381 382 383 384 385 379
l 386 387 388 389 390 391 392 386
l 393 394 395 396 397
l 398 399 400 401 402
l 403 404 405
l 406 407 408 409 410 411 412 413 414 415 416
l 417 418 419 420 421 422 423
l 424 425 426 427 428 429 430 431 424
l 432 433 434 435 436 437
l 438 439 440 441 442 443 444 445 446 447
l 448 449 450 451 452 453 454 455 456 457
l 458 459 460 461 462 463 464
l 465 466 467
l 468 469 470 471
l 472 473 474 475 476 477 478 479 480 481
l 482 483 484
l 485 486
l 487 488 489
l 490 491 492 493 494
l 495 496 497 498 499
l 500 501 502 503 504 505 506
l 507 508 509 510 511 512
l 513 514 515 516 517 518 519 520 521
l 522 523
l 524 525
l 526 527 528 529
l 530 531 532 533 534 535 536 537 538 539 540
l 541 542 543 544 545
l 546 547 548
l 549 550 551
l 552 553 554 555 552
l 556 557 558 559 560
l 561 562
l 563 564
l 565 566
l 567 568
l 569 570 571 572 573
l 574 575 576 577 578 579 580 581 582 583 584 585 586 587 588 589 574
l 590 591 592 593 594 595 596 597
l 598 599 600 601 602 603 604
l 605 606 607 608 609 610 611
l 612 613 614 615 616 617
l 618 619 620 621 622
l 623 624 625
l 626 627 628
l 629 630 631
l 632 633 634 635 632
l 636 637 638 639 640 641 642 636
l 643 644 645 646 647 648 649 650 651 652
l 653 654 655 656 657
l 658 659 660 661 662
l 663 664
l 665 666 667 668 669
l 670 671 672 673
l 674 675 676 677 678
l 679 680 681 682 683 36 684 38 39
l 685 686 687
l 688 689 690 691 692 693 694
l 695 696 697
l 698 699 700
l 701 702 703
l 704 705
l 706 707 708 709 710 711 712 713 706
l 714 715 716
l 717 718 719 720 721
l 722 723
l 724 725 726
l 727 728 729
l 730 731 732
l 733 734 735
l 736 737 738 739 740 741
l 742 743 744
l 745 746 747
l 748 749 750
l 751 752 753 754 751
l 755 756 757 758 759
l 760 761 762 763 764
l 765 766 767 768 769 770 771
l 772 773 774
l 775 776 777 778 779 780 781 782 775
l 783 784 785 786 787
l 788 789 790 791 792 793 794
l 795 796 797 798 799 800 801
l 802 803
l 804 805 806 807 808 809 810 811 804
l 812 813 814
l 815 816
l 817 818 819
l 820 821 822 823 824
l 825 826
l 827 828 829 830
l 831 832 833
l 834 835 836
l 837 838 839 840 841
l 842 843 844 845 846
l 847 848 849 850 851
l 852 853 854 855 856 857 858 859 852
l 860 861 862 863 864 865 866 867 868 869
l 870 871
l 872 873 874 875
l 876 877 878 879 880 881 882 883 876
l 884 885 886 887 888
l 889 890 891 892 893 894 895
l 896 897 898 899 900
l 901 902
l 903 904
l 905 906 907 908 909
l 910 911 912
l 913 914 915
l 916 917 918 919 920 921 922 916
l 923 924 925 926 927
l 928 929 930 931 932 933 934
l 935 936 937
l 938 939
l 940 941
l 942 943 944 945
l 946 947 948 949 950 951 952 953 954 955
l 956 957 958 959 960 961 962
l 963 964 965 966 967 968 969 970 971
l 972 973 974 975 976
l 977 978 979
l 980 981 982 983 984
l 985 986
l 987 988 989
l 990 991 992 993 990
l 994 995 996
l 997 998
l 999 1000
l 1001 1002 1003 1004 1005
l 1006 1007 1008 1009 1010 1011 1012 1013 1014 1015
l 1016 1017
l 1018 1019 1020 1021 1022 1023 1024 1025 1026 1027 1028 1029 1030 1031 1032 1033 1018
l 1034 1035 1036 1037 1038
l 1039 1040 1041 1042 1043
l 1044 1045
l 1046 1047 1048
l 1049 1050 1051
l 1052 1053
l 1054 1055 1056 1057
l 1058 1059 1060 1061 1062 1063 1064 1065 1066 1067
l 1068 1069
l 1070 1071 1072 1073 1074 1075 1076 1077 1070
l 1078 1079 1080 1081 1082
l 1083 1084 1085 1086 1087 1088
l 1089 1090 1091
l 1092 1093 1094 1095 1096 1097 1098 1099 1100 1101 1102 1103 1104 1105 1106 1107 1092
l 1108 1109 1110 1111 1112 1113 1114 1115
l 1116 1117 1118 1119 1120 1121 1122
l 1123 1124 1125 1126 1127 1128
l 1129 1130 1131
l 1132 1133 1134 1135 1136
