# https://github.com/mikedh/trimesh
v -0.16605099 -0.14239441 0.04070381
v -0.17407800 -0.14796580 0.00000000
v -0.16257865 -0.16736420 0.06287319
v -0.06755900 -0.43519400 0.16031700
v 0.15420653 -0.08471623 -0.09456479
v 0.14537042 -0.09863429 -0.12482843
v 0.15171222 -0.06935981 -0.10487415
v 0.00000000 0.04351900 0.17407800
v 0.03000800 0.04351900 0.17142500
v -0.05105775 0.17737685 0.12818928
v -0.05155039 0.16881859 0.13156063
v -0.04688381 0.17371269 0.13055132
v 0.16993300 0.08737000 0.00000000
v 0.17142500 0.04351900 0.03017300
v 0.12284900 0.04351900 0.12309800
v 0.14260200 0.00125442 0.10750939
v 0.14680500 0.04351900 0.09325600
v -0.12289050 0.20897600 0.00000000
v -0.10496475 0.24955250 0.00000000
v 0.06747600 -0.43519400 0.16040000
v 0.09309000 -0.43519400 0.14697100
v 0.12252818 -0.18965683 -0.15079805
v 0.07496985 -0.15431406 -0.15987385
v 0.13751791 -0.12560353 -0.14022546
v -0.08300135 0.16032121 -0.12832360
v -0.08814992 0.16517973 -0.12462940
v -0.08281701 0.16832284 -0.12490004
v 0.16031700 0.04351900 0.06772400
v -0.03418998 -0.46315152 0.03243804
v 0.01721800 -0.46708690 -0.01124821
v 0.02235127 -0.46213184 0.04626577
v -0.11991094 0.17407634 -0.08538656
v -0.09657729 0.17246494 -0.10996369
v -0.12332592 0.13241159 -0.10875309
v -0.09224706 0.15700653 -0.12427990
v 0.12284900 -0.43519400 -0.12309800
v 0.10944463 -0.44557604 -0.07991160
v 0.07730713 -0.44648724 -0.09340532
v -0.06507200 0.29012900 -0.05777700
v -0.08115300 0.29012900 -0.03141700
v -0.14688800 0.04351900 -0.09317300
v -0.16174682 -0.00945855 -0.07271560
v -0.16031700 0.04351900 -0.06755900
v 0.00000000 -0.24370840 0.17407800
v -0.06065189 -0.26688954 0.16363074
v 0.00000000 -0.29157979 0.17407800
v 0.15460817 -0.25446997 -0.10244824
v 0.14724392 -0.25617546 -0.13250658
v 0.15495385 -0.22573812 -0.10331251
v 0.14984851 -0.23309294 -0.12366061
v 0.15215739 -0.27694975 0.11994925
v 0.15389814 -0.33306083 0.10386367
v 0.15249741 -0.27204039 0.11754359
v 0.15561032 -0.30281465 0.09200635
v -0.08763104 -0.44469053 -0.08160082
v -0.09265622 -0.44639164 -0.06236534
v -0.10320754 -0.44341028 -0.07667984
v -0.09702000 -0.45047323 0.03114543
v -0.16031700 -0.43519400 0.06755900
v -0.17142500 -0.43519400 0.03009100
v -0.09317300 -0.43519400 -0.14688800
v -0.05560886 -0.44789126 -0.10428645
v -0.16582866 -0.36546080 0.07225540
v -0.14688800 -0.43519400 0.09317300
v 0.03133400 0.29012900 -0.08123600
v -0.17407800 -0.19583700 0.00000000
v -0.16199270 -0.18373705 0.06636595
v -0.06519112 -0.36819111 -0.16488153
v -0.06602736 -0.36931001 -0.16448859
v -0.06667772 -0.36781923 -0.16425620
v 0.03000800 -0.43519400 0.17142500
v 0.00000000 -0.43519400 0.17407800
v 0.15290094 -0.20537044 -0.11499147
v 0.12904679 -0.19802685 -0.14451042
v 0.00000000 0.24955250 -0.10496475
v 0.14680500 -0.43519400 -0.09325600
v 0.11484191 -0.44585757 -0.06186640
v 0.16031700 -0.43519400 -0.06772400
v 0.17142500 -0.43519400 -0.03017300
v -0.17407800 -0.05222340 0.00000000
v -0.06755900 -0.43519400 -0.16031700
v -0.16524233 -0.33457324 0.06480092
v -0.16714801 -0.31760678 0.04966950
v -0.16779957 -0.32840527 0.04847744
v 0.00000000 0.04351900 -0.17407800
v -0.09714517 0.20092865 -0.08909653
v -0.08552243 0.17404130 -0.12079092
v -0.07094876 0.22273461 -0.10189544
v -0.10103510 0.23440320 -0.05524288
v -0.10432616 0.22530595 -0.06060872
v 0.00000000 0.32639550 -0.08703900
v 0.04407968 0.35264546 -0.07657518
v -0.16031700 -0.43519400 -0.06755900
v -0.15385791 -0.38928961 -0.09821447
v -0.14688800 -0.43519400 -0.09317300
v -0.16201092 -0.01032245 -0.07203339
v -0.17407800 -0.00435220 0.00000000
v -0.04272815 -0.46191530 0.02655000
v -0.05182780 -0.45898267 -0.03734970
v -0.03570248 -0.46290171 0.02841651
v -0.02421767 -0.46244077 -0.04555673
v -0.16993300 0.08737000 0.00000000
v -0.15210303 0.10677880 0.06262961
v -0.15874200 0.12782300 0.00000000
v -0.08630253 0.19952951 0.10439665
v -0.07040284 0.22494069 0.09917512
v -0.09754937 0.23157550 0.05942048
v 0.11897568 -0.12205420 0.15212747
v 0.11924003 -0.12125610 0.15206513
v 0.10275270 -0.11743619 0.15508108
v 0.05768809 -0.21495737 -0.16290511
v 0.10155957 -0.20053370 -0.15466544
v 0.09576094 -0.23575983 -0.15650126
v 0.17142500 -0.43519400 0.03017300
v 0.17407800 -0.38732260 0.00000000
v -0.09317300 -0.43519400 0.14688800
v -0.08217251 -0.37987067 0.15967190
v -0.09633197 -0.37795224 0.15457948
v 0.08115300 0.29012900 -0.03150000
v 0.08710333 0.25607158 -0.06199269
v 0.09539185 0.25824072 -0.04842015
v 0.00000000 -0.33945120 0.17407800
v -0.03141700 0.43519400 -0.08115300
v 0.06844260 -0.44519145 0.09993191
v 0.05809364 -0.44488851 0.11132876
v 0.05274292 -0.44683161 0.10064434
v -0.08533066 -0.17682321 -0.15777343
v -0.08688828 -0.18480405 -0.15759164
v -0.08821383 -0.17651447 -0.15657639
v 0.07866610 0.13934503 -0.13864209
v 0.10058890 0.14581410 -0.12523755
v 0.09678706 0.12352566 -0.13390926
v 0.15679390 -0.12739790 0.09151347
v 0.14969130 -0.06407437 0.10903053
v 0.11965830 -0.12156844 0.15180632
v 0.13376877 -0.09308048 0.13185084
v 0.10041051 0.00201685 0.14678052
v 0.09309000 0.04351900 0.14697100
v -0.10270954 -0.44348799 0.07681017
v -0.10304070 -0.44401314 0.07001306
v -0.09953785 -0.44409052 0.07426881
v 0.15956628 -0.13870621 -0.07830396
v 0.16162228 -0.12520560 -0.06278210
v 0.16223747 -0.18074659 -0.06421148
v 0.16411831 -0.17089307 -0.05026661
v 0.07137200 0.29012900 -0.04981900
v 0.00000000 -0.00435220 0.17407800
v -0.07690111 0.36409883 -0.05194433
v -0.07692900 0.33389616 -0.04867446
v -0.08703900 0.36266200 0.00000000
v 0.00000000 -0.38732260 -0.17407800
v -0.06430912 -0.36851891 -0.16507151
v 0.00000000 -0.33945120 -0.17407800
v 0.08703900 0.32639550 0.00000000
v 0.08703900 0.29012900 0.00000000
v 0.00000000 -0.10009461 -0.17407800
v 0.00000000 -0.05222340 -0.17407800
v 0.14081625 0.16839950 0.00000000
v 0.11856375 0.19892886 -0.05472618
v 0.12289050 0.20897600 0.00000000
v 0.09204808 -0.32744161 -0.15873556
v 0.11294391 -0.33972575 -0.14710789
v 0.07437303 -0.35898709 -0.16351775
v 0.00000000 0.29012900 -0.08703900
v 0.04775981 -0.24929672 0.16496654
v 0.05113764 -0.27001659 0.16512252
v 0.10392533 -0.01374266 0.14670388
v 0.11099030 -0.05278122 0.14704895
v 0.12406559 -0.02646074 0.13124436
v -0.06507200 0.43519400 -0.05777700
v -0.04965400 0.43519400 -0.07137200
v -0.15369168 -0.06874713 0.10533165
v -0.13929972 -0.11845666 0.14161165
v -0.12444458 -0.06340750 0.13820374
v -0.08703900 0.43519400 0.00000000
v -0.08703900 0.39892800 0.00000000
v -0.08115300 0.43519400 0.03141700
v 0.00000000 0.08737000 -0.16993300
v 0.06480101 0.08281943 -0.15633654
v 0.03000800 0.04351900 -0.17142500
v -0.06483675 -0.00167290 0.16163681
v -0.09317300 0.04351900 0.14688800
v -0.10641061 0.00575675 0.14352008
v 0.16670054 -0.29045729 -0.04088076
v 0.17407800 -0.29157979 0.00000000
v 0.17407800 -0.33945120 0.00000000
v -0.09940485 0.23927054 -0.05328186
v 0.15451555 0.08798213 0.06548951
v 0.05810782 -0.37873877 0.16640729
v 0.00000000 -0.38732260 0.17407800
v 0.00000000 -0.29157979 -0.17407800
v 0.00000000 -0.19583700 -0.17407800
v 0.05026796 -0.21893868 -0.16409516
v 0.00000000 -0.24370840 -0.17407800
v -0.17215915 -0.38743277 0.04672760
v -0.03009100 0.04351900 0.17142500
v -0.04724098 -0.00702473 0.16751218
v -0.05531796 -0.00487113 0.16609426
v 0.12144754 0.18819046 0.06302362
v 0.14068377 0.14843596 0.05519575
v 0.00000000 0.24955250 0.10496475
v 0.00000000 0.20897600 0.12289050
v -0.12387041 -0.44483547 -0.02224284
v -0.12864763 -0.44447969 -0.01434402
v 0.01568230 -0.46687079 -0.01384533
v 0.16753411 -0.00327408 -0.04397542
v 0.16644869 -0.03206673 -0.04574938
v 0.15527440 -0.02263122 -0.08800863
v -0.16156618 -0.01032556 -0.07323910
v -0.16162416 -0.01196552 -0.07351933
v -0.16188938 -0.01101294 -0.07258161
v 0.14596241 -0.27572597 0.12730941
v 0.15139111 -0.27250137 0.12289637
v 0.15025850 -0.27105745 0.12457700
v 0.07479976 0.37573007 0.05609659
v 0.08115300 0.43519400 0.03150000
v 0.06490600 0.43519400 0.05786000
v 0.16031700 -0.43519400 0.06772400
v 0.12576564 -0.44558492 0.03205460
v 0.12458624 -0.44397215 0.05438770
v -0.15173696 -0.32686688 -0.11326957
v -0.15799873 -0.33575344 -0.09073488
v -0.15814210 -0.28736201 -0.08893680
v -0.15034631 -0.20982243 -0.12608507
v -0.15945613 -0.20647068 -0.07621791
v -0.15117479 -0.17809952 -0.11633144
v 0.06972785 0.24538887 -0.08713333
v 0.08764122 0.21070137 -0.09698238
v 0.06599528 0.23542027 -0.09574572
v -0.15404362 -0.13345461 -0.10877444
v -0.15428166 -0.12955366 -0.10734752
v -0.15172694 -0.12864308 -0.11299496
v -0.16396595 -0.39666025 -0.06166865
v -0.16857428 -0.38546856 -0.04066222
v -0.16393137 -0.36094438 -0.06753463
v -0.16770994 -0.35250955 -0.05019224
v -0.13536458 0.10087717 0.09307790
v -0.12435489 0.09089447 0.11498901
v -0.12307961 0.09744897 0.11539873
v -0.15088712 -0.35300156 -0.11273257
v 0.00000000 -0.00435220 -0.17407800
v -0.00000000 0.43519400 -0.08703900
v 0.00000000 0.39892800 -0.08703900
v 0.04776219 -0.30954768 0.16606645
v 0.06243037 -0.32421753 0.16363167
v 0.05376132 -0.30204355 0.16540452
v -0.15655144 -0.01041182 -0.08125263
v -0.12641349 -0.00675624 -0.12891173
v -0.12777567 -0.01325407 -0.12863028
v 0.12922907 -0.30604141 -0.14356712
v 0.07917519 -0.28044222 -0.16020796
v 0.10115357 -0.25118825 -0.15582150
v -0.05091071 0.38731527 -0.07675040
v -0.00000000 0.36266200 -0.08703900
v -0.06271479 -0.09618349 0.16344094
v -0.04532875 -0.05300719 0.16683664
v -0.07885498 -0.04984302 0.15941849
v 0.03133400 0.29012900 0.08123600
v 0.00000000 0.29012900 0.08703900
v -0.10615948 -0.30968378 -0.15483821
v -0.10824235 -0.30231187 -0.15365174
v -0.10359654 -0.29446753 -0.15563359
v 0.00000000 0.16839950 0.14081625
v 0.04373241 0.19209218 0.12445131
v 0.05808084 0.16653357 0.13241144
v -0.17407800 -0.43519400 0.00000000
v -0.12893681 -0.44375324 -0.01088488
v 0.09309000 0.04351900 -0.14697100
v 0.07947271 0.10286825 -0.14716997
v 0.12284900 0.04351900 -0.12309800
v 0.05330694 -0.01874799 -0.16531056
v 0.05631889 -0.05140009 -0.16418449
v 0.05290177 -0.14512195 -0.16337136
v 0.08091336 -0.11783330 -0.15888517
v 0.05725212 -0.11707754 -0.16264609
v 0.17407800 -0.19583700 0.00000000
v 0.16338478 -0.19986648 -0.05627885
v 0.16472603 -0.23195068 -0.04764333
v -0.05728656 0.34560369 -0.07514413
v -0.05265606 0.32277708 -0.07864429
v 0.00000000 0.39892800 0.08703900
v 0.16011182 0.09186026 -0.04544999
v 0.15874200 0.12782300 -0.00000000
v 0.02147954 -0.46665538 -0.01048620
v 0.02413285 -0.46201007 0.04583619
v -0.11595224 0.15778060 0.10655761
v -0.10815450 0.15916608 0.11299788
v -0.11188316 0.16459339 0.10864110
v 0.15899891 -0.31122030 -0.09365668
v 0.13251123 -0.30694789 -0.14249974
v 0.14322082 -0.30990393 -0.12235436
v 0.16858447 -0.38061014 0.06039043
v -0.14773169 -0.14205785 -0.11867578
v 0.06656528 -0.28731081 -0.16265493
v 0.03836694 -0.33071425 -0.16762816
v 0.16773605 -0.31783795 0.04609646
v 0.16789274 -0.32105103 0.04562146
v 0.13246698 -0.30756796 -0.14243305
v 0.13169077 -0.30786823 -0.14286103
v -0.04181427 -0.20883856 -0.16544826
v -0.04129402 -0.25866457 -0.16561666
v -0.08406891 -0.24189821 -0.15855663
v 0.14334507 -0.33725889 0.12423595
v 0.14841926 -0.36938276 0.10927013
v 0.09064359 -0.45067777 -0.05369822
v 0.06661120 -0.45616441 -0.04481939
v 0.07618052 -0.45657921 -0.02858673
v 0.02836033 -0.46514028 -0.01707560
v 0.08703900 0.43519400 0.00000000
v 0.08703900 0.39892800 0.00000000
v 0.08115300 0.43519400 -0.03150000
v -0.16561824 -0.06673703 0.05104374
v -0.16590143 -0.06224854 0.05002391
v 0.09309000 -0.43519400 -0.14697100
v 0.08358632 -0.37913795 -0.15680515
v 0.12446081 -0.39398696 -0.13540944
v -0.12293200 -0.43519400 0.12293200
v -0.10186391 -0.37954974 -0.15138839
v -0.11980766 -0.39385952 -0.13712019
v 0.16399177 -0.26458034 0.05805686
v 0.05376765 0.23811345 -0.09976036
v 0.00000000 0.20897600 -0.12289050
v 0.17407800 -0.43519400 0.00000000
v -0.12055437 0.18741931 0.05823765
v -0.13263997 0.16894699 0.04979176
v -0.11806096 0.16399547 0.09432733
v -0.05571040 0.17073183 0.12944308
v -0.05738855 0.17432934 0.12689321
v -0.00000000 -0.43519400 -0.17407800
v -0.03009100 -0.43519400 -0.17142500
v 0.06747600 -0.43519400 -0.16040000
v 0.03000800 -0.43519400 -0.17142500
v -0.08703900 0.32639550 0.00000000
v -0.06624357 0.37293838 -0.07047266
v -0.06741099 0.40007246 -0.06727907
v 0.16477189 -0.25589445 -0.05077781
v 0.17407800 -0.24370840 0.00000000
v 0.03133400 0.43519400 -0.08123600
v -0.06689025 -0.29466476 0.16377310
v -0.06427113 -0.21281882 0.16261789
v -0.04442413 -0.15837545 0.16554141
v -0.07941527 -0.16819901 0.16006136
v -0.17407800 -0.10009461 0.00000000
v 0.17407800 0.04351900 0.00000000
v 0.17142500 0.04351900 -0.03017300
v -0.09811788 0.23598406 -0.05910741
v -0.12259244 -0.26568333 -0.14653103
v -0.09431701 -0.24842057 -0.15712675
v 0.16341071 -0.35693659 0.08197581
v 0.16784539 -0.32444964 0.04727303
v 0.16668667 -0.32223593 0.05032929
v -0.13966068 -0.39061441 -0.12217453
v 0.17407800 -0.05222340 0.00000000
v 0.17407800 -0.00435220 0.00000000
v 0.00000000 -0.10009461 0.17407800
v 0.10212053 0.24097815 0.05259526
v 0.08115300 0.29012900 0.03150000
v 0.06490600 0.29012900 0.05786000
v 0.00000000 0.12782300 0.15874200
v 0.13224840 0.12107587 -0.09774420
v 0.10137680 0.18881027 -0.10124598
v 0.13590266 0.12840600 -0.08844086
v 0.10390584 0.19509704 -0.09410438
v -0.16133774 -0.24061628 -0.07170460
v -0.16187027 -0.26584833 -0.06990173
v -0.17407800 -0.24370840 0.00000000
v -0.04965400 0.29012900 -0.07137200
v -0.03141700 0.29012900 -0.08115300
v -0.15931235 0.08896241 -0.05180509
v -0.15098151 0.11590208 -0.05670126
v -0.03009100 0.04351900 -0.17142500
v -0.15771649 -0.35496520 0.09254736
v -0.14361459 -0.36111731 0.11915072
v 0.07026712 0.35918365 -0.06001127
v 0.06318953 0.37756160 -0.06549463
v 0.07612964 0.38461548 -0.05215491
v 0.16116856 -0.23457900 -0.07052879
v 0.09137806 -0.06814336 0.15621924
v 0.05542227 -0.02733594 0.16512202
v 0.05335918 -0.10387302 0.16411788
v 0.05522237 -0.02973422 0.16512110
v 0.07781031 0.33264357 -0.04058574
v 0.06891977 0.32829527 -0.06510145
v 0.11104915 -0.38585943 0.14274458
v -0.16210671 -0.00921089 -0.07142208
v 0.00000000 -0.19583700 0.17407800
v 0.06407212 -0.18261714 0.16233587
v 0.03496276 -0.20607020 0.16688632
v -0.05101552 -0.13992396 -0.16408357
v -0.05141457 -0.13868679 -0.16404037
v -0.14080701 -0.27436356 -0.13839850
v 0.15844886 0.08224716 -0.05707430
v -0.16093927 -0.00251710 0.07409310
v -0.14688800 0.04351900 0.09317300
v -0.16031700 0.04351900 0.06755900
v 0.07466446 0.12174623 0.14400151
v 0.08828882 0.14082943 0.13078014
v 0.06956043 0.12540879 0.14520789
v -0.13615207 -0.32668773 0.13424681
v -0.14837882 -0.34341301 0.11660344
v 0.10496475 0.24955250 0.00000000
v -0.13190816 -0.00886524 0.12325924
v -0.14380293 -0.03576434 0.11457872
v -0.11442232 -0.03328235 0.13883459
v -0.05143623 -0.44095969 0.11728935
v 0.15972265 -0.31288168 -0.09045772
v -0.07495872 -0.18301537 -0.15960160
v 0.05809810 -0.20110974 -0.16279273
v -0.13325350 0.13460144 0.08491556
v -0.08115300 0.43519400 -0.03141700
v -0.06755900 0.04351900 0.16031700
v 0.06346914 0.21146486 0.10815033
v 0.04643713 0.23627802 0.10250512
v 0.05133296 -0.21131820 -0.16382552
v -0.03009100 -0.43519400 0.17142500
v 0.06458037 0.25677453 0.08834124
v 0.08088729 0.24673091 0.07118723
v 0.16683647 -0.24580033 0.03617828
v -0.06261925 -0.10689654 0.16311803
v -0.06450468 0.23028980 0.10007261
v -0.11461786 -0.07747497 0.15075411
v -0.10284609 -0.05217751 0.15357957
v 0.15486930 -0.17567007 -0.10941885
v 0.15418982 -0.38928371 0.09521346
v 0.14680500 -0.43519400 0.09325600
v -0.06755900 0.04351900 -0.16031700
v -0.11432191 -0.36581716 0.14090976
v -0.17372505 -0.38995648 0.02860032
v -0.17407800 -0.38732260 0.00000000
v 0.09600060 0.20396846 0.08786190
v 0.08471384 0.20847449 0.10274130
v 0.11117587 0.16740474 0.10415650
v 0.10611006 0.16878061 0.11160416
v 0.15123760 -0.17082707 0.12606529
v 0.12850149 -0.13555845 0.14457642
v 0.14972116 -0.17038871 0.12677251
v 0.05761100 0.43519400 -0.06515500
v -0.03824778 0.26215943 0.09599943
v -0.04408709 -0.44632288 0.11072847
v -0.05454527 -0.44625594 0.10721704
v -0.04295390 -0.45709655 0.06055097
v 0.07148181 -0.35937838 0.16344278
v 0.09063243 -0.35302589 0.15757761
v 0.09940027 -0.32671978 0.15649710
v -0.17407800 -0.33945120 0.00000000
v -0.08325310 0.36863569 0.03282917
v 0.07055855 0.35173402 0.05944723
v 0.08703900 0.36266200 0.00000000
v 0.05761100 0.29012900 -0.06515500
v -0.16436136 -0.07946307 0.05747652
v -0.16197613 -0.12882910 0.06673157
v -0.08632422 -0.17401241 -0.15751163
v 0.16792064 -0.32270940 0.04566291
v 0.16287408 -0.16825372 0.05900622
v 0.16416598 -0.18071758 0.05068091
v 0.16486352 -0.17156141 0.04680037
v -0.17142500 0.04351900 -0.03009100
v 0.00000000 -0.14796580 0.17407800
v 0.15392242 -0.02625711 -0.09329916
v 0.15333906 -0.02443062 -0.09404428
v 0.15401439 -0.02398209 -0.09263319
v -0.09774300 -0.36284617 0.15566505
v 0.14385189 0.14290860 0.05234408
v -0.03045628 -0.46112959 0.04599111
v -0.03482642 -0.46266663 0.03700567
v 0.04091967 -0.44642578 0.10896411
v 0.05097030 -0.10648805 0.16445900
v -0.06457054 -0.36725739 -0.16497589
v -0.16289604 -0.21641286 -0.05964819
v -0.16197535 -0.20236910 -0.06539811
v -0.16179989 -0.21217153 -0.06665984
v 0.13136174 0.17279057 -0.04703521
v -0.15883861 -0.10955628 0.08480637
v -0.16099087 -0.11730095 0.07326304
v -0.15971526 -0.12462913 0.08102145
v -0.16590434 -0.26267905 0.04659627
v -0.16352540 -0.25192170 0.06016542
v -0.16632595 -0.25913044 0.04382179
v 0.07137200 0.43519400 -0.04981900
v 0.08447048 0.40083191 -0.03213711
v 0.17407800 -0.14796580 0.00000000
v 0.12692954 -0.19128382 -0.14650001
v 0.14262339 -0.12943892 -0.13512602
v 0.07512973 0.11576334 0.14546150
v 0.12539228 0.10527143 0.11272773
v 0.12180076 0.09554028 0.11820613
v -0.09317300 0.04351900 -0.14688800
v -0.07009749 -0.01624426 -0.16176858
v -0.11129668 -0.01213498 -0.13734357
v 0.15857018 -0.10594705 0.08309585
v 0.16539873 -0.06899917 0.04662125
v 0.15048134 -0.06284321 0.10553803
v 0.14481701 -0.26904207 0.12728946
v 0.00601458 -0.44993615 0.11129435
v -0.10530078 -0.12321146 -0.15439336
v -0.10740624 -0.07034044 -0.15113525
v -0.09349570 -0.11161184 -0.15704303
v -0.10491295 -0.06883924 -0.15174298
v 0.06046842 0.24424451 -0.09672490
v 0.06142742 0.23639711 -0.09839725
v -0.07698568 0.11877948 0.14321679
v -0.11660546 0.10078559 0.12020068
v 0.10927561 0.16172714 0.11268041
v 0.09973380 0.16465828 0.11579983
v 0.04957100 0.43519400 0.07153800
v 0.09205510 0.22375739 0.07961305
v 0.10953062 0.21958782 0.05790472
v 0.15351103 -0.06908490 -0.09651327
v 0.06747600 0.04351900 -0.16040000
v -0.14081625 0.16839950 0.00000000
v -0.17142500 0.04351900 0.03009100
v 0.01910897 -0.46668016 -0.01527244
v 0.03187696 -0.45959491 -0.05633077
v 0.05169612 0.18188981 -0.12651798
v 0.05699367 0.22071101 -0.10644871
v -0.06507200 0.29012900 0.05777700
v -0.04965400 0.29012900 0.07137200
v -0.07662598 -0.31101398 0.16129993
v -0.06072445 -0.31765846 0.16532498
v -0.05916926 0.32211985 0.07104829
v -0.06589647 0.32884039 0.06279033
v -0.11698294 -0.44697284 0.00176502
v 0.16061012 -0.01206860 0.06804248
v 0.15063566 -0.05849042 0.10571384
v 0.16320156 -0.02118916 0.06363899
v 0.00000000 0.16839950 -0.14081625
v -0.17407800 0.04351900 0.00000000
v -0.11179625 0.15232320 0.11203119
v -0.11971753 0.09377101 0.11963396
v -0.08295406 -0.36320775 0.15943627
v -0.14834540 0.11731838 0.06280703
v 0.10055273 0.24940778 -0.03448259
v -0.03691914 -0.37646448 0.17011763
v -0.13830556 -0.12254115 0.14366182
v 0.03133400 0.43519400 0.08123600
v -0.07232290 -0.35766269 -0.16319373
v -0.05843545 -0.29901602 -0.16410350
v -0.09036589 0.24316509 -0.06322422
v 0.04547685 0.44824750 -0.00378509
v 0.11090422 -0.38361195 0.14312663
v 0.05484664 -0.44969433 -0.09695593
v 0.10380347 -0.30543968 0.15574719
v -0.08564723 -0.44408707 0.08726639
v -0.03410340 -0.26742983 -0.16682986
v -0.17407800 -0.29157979 0.00000000
v -0.16758215 -0.27894006 -0.03476934
v -0.16647254 -0.29790325 -0.04661245
v 0.09496824 -0.44886472 0.06991598
v 0.10799562 -0.44264696 0.08993565
v 0.15949232 -0.31213340 -0.09180514
v -0.11237553 0.17098246 0.10267674
v -0.13848440 -0.12550442 0.14367539
v -0.12301829 -0.11902758 0.14765470
v -0.07620081 0.39948888 0.04482858
v -0.05908536 0.39422886 0.07322555
v 0.00000000 0.12782300 -0.15874200
v 0.14924873 -0.06286768 0.11026285
v 0.15176184 -0.17232256 0.12407775
v 0.15064296 -0.17782975 0.12696770
v -0.12293200 -0.43519400 -0.12293200
v -0.03676012 -0.45681361 -0.07490262
v 0.16724941 -0.13663080 -0.02898688
v 0.07486417 -0.28879382 -0.16128374
v 0.09926937 -0.30716823 -0.15678156
v 0.00000000 0.32639550 0.08703900
v -0.03141700 0.29012900 0.08115300
v -0.08099073 -0.09391258 0.15898500
v -0.14000818 -0.28982254 -0.13933051
v -0.15254352 -0.27366817 -0.10205114
v -0.05805917 -0.29947157 -0.16416692
v -0.16011331 -0.26769986 -0.08066749
v -0.12829609 -0.30848783 0.14621915
v -0.06507200 0.43519400 0.05777700
v -0.04965400 0.43519400 0.07137200
v 0.06397644 -0.45407300 0.06251234
v 0.09427587 -0.45168540 0.03776799
v 0.14369357 0.11116765 -0.08220380
v -0.14267755 -0.12253333 0.13106761
v 0.14957368 -0.06232709 0.10934803
v 0.16484324 -0.18909885 0.04702450
v -0.12764409 0.09324138 -0.10786423
v -0.15379177 0.08935422 -0.06672461
v -0.16562238 -0.32732569 -0.05748444
v 0.14971742 -0.17192412 0.12690149
v -0.13128265 -0.18413031 -0.14595362
v -0.11213523 -0.13974313 -0.15039245
v -0.05206443 -0.13982836 -0.16387651
v -0.01410525 0.44651135 -0.05491726
v -0.00898928 0.45083426 -0.02028903
v 0.01599815 0.44558209 -0.04633171
v -0.14914964 0.10972699 0.06787651
v 0.16449174 -0.00573645 0.05734498
v -0.05838782 -0.07746562 -0.16352236
v 0.15154456 -0.17019145 0.12512116
v -0.12293200 0.04351900 0.12293200
v 0.04979682 -0.07297866 -0.16448465
v 0.06605134 -0.08597776 -0.16160405
v 0.04821835 -0.08825274 -0.16460074
v -0.11855727 0.09678804 -0.12314886
v -0.12293200 0.04351900 -0.12293200
v -0.14013503 -0.34171222 -0.12129570
v -0.10484720 -0.31618783 -0.15510453
v 0.00000000 -0.05222340 0.17407800
v 0.16762946 -0.32094127 0.04726226
v -0.03787164 -0.46278220 0.03357157
v -0.09393212 -0.45105237 0.02581119
v -0.09329426 -0.45107839 0.03047010
v -0.16283388 -0.16278616 -0.05846335
v -0.16320599 -0.13796791 -0.05505742
v -0.13182806 0.16408333 -0.06523911
v -0.13935882 0.13184538 -0.07197587
v 0.14287219 0.14110442 0.05773582
v 0.00000000 0.08737000 0.16993300
v 0.14831809 -0.06192209 0.11093250
v -0.17142500 -0.43519400 -0.03009100
v 0.11915108 -0.12021442 0.15204569
v -0.15924703 -0.02008137 0.08236157
v -0.15520947 -0.00924538 0.08683306
v -0.16000637 -0.01054663 0.07810445
v -0.13195799 -0.37084832 -0.13251159
v -0.14978017 -0.23098516 -0.12650706
v -0.15916610 -0.21840958 -0.07629389
v 0.06747600 0.04351900 0.16040000
v 0.14680500 0.04351900 -0.09325600
v 0.16031700 0.04351900 -0.06772400
v 0.06783021 -0.27770942 -0.16215728
v 0.10092258 0.20525680 -0.08841757
v 0.10404559 0.23375233 -0.04536110
v 0.17407800 -0.10009461 0.00000000
v -0.05956889 -0.44395178 0.11052134
v 0.09745521 -0.45098778 -0.02994133
v 0.12932189 -0.44557414 -0.02609679
v 0.12260591 -0.44713574 0.00184525
v -0.06487417 0.26092885 -0.08708658
v -0.05312362 0.26019912 -0.09158038
v -0.04960181 0.22815416 -0.10499011
v -0.06385626 0.24579729 -0.09348734
v -0.15491966 -0.14937727 0.10877591
v -0.15000984 -0.16613286 0.12896512
v 0.06260740 -0.06844776 -0.16238937
v 0.08112256 -0.07072345 -0.15664032
v 0.00000000 0.36266200 0.08703900
v -0.06153435 0.33735027 0.07025162
v 0.00000000 0.43519400 0.08703900
v 0.00000000 -0.14796580 -0.17407800
v -0.08115300 0.29012900 0.03141700
v -0.05860608 -0.30017112 -0.16411582
v -0.16449520 -0.06620454 0.05591438
v -0.00449778 -0.46130971 -0.05401656
v 0.15459464 -0.02640987 -0.09018245
v 0.05530873 -0.02730648 0.16514749
v 0.16485644 -0.06630656 -0.04852624
v -0.05153302 -0.14083451 -0.16400643
v 0.14226786 -0.44440406 -0.00891731
v 0.14187236 -0.44333670 0.02353906
v 0.12284900 -0.43519400 0.12309800
v -0.04732166 0.18410424 -0.12633690
v -0.04277021 0.19858977 -0.12112229
v -0.03141700 0.43519400 0.08115300
v -0.16342816 -0.10079134 -0.05683332
v 0.16103379 -0.22929407 0.07188485
v 0.15804588 -0.22359814 0.09034560
v 0.16000056 -0.24520744 0.08131135
v -0.16201965 -0.01272753 -0.07178765
v -0.07607208 -0.12858284 0.16093265
v -0.10442284 -0.16888494 0.15480502
v -0.15785764 -0.25401753 -0.09276798
v 0.15011730 -0.26359816 0.12569780
v 0.04554162 0.39423755 0.07926541
v 0.07416470 -0.32298254 -0.16168001
v -0.11259309 0.19313111 -0.08143113
v -0.11991812 0.18878503 -0.07115949
v 0.11452445 0.14152959 0.11271450
v 0.16303856 -0.18577941 0.05817807
v 0.15194028 -0.17103008 0.12282152
v 0.06449165 -0.38437950 -0.16460661
v 0.05473818 -0.36660152 -0.16695549
v -0.10724070 -0.06735282 -0.15096691
v -0.10188202 -0.06175732 -0.15271817
v -0.03370001 0.44632918 -0.04141231
v -0.16340759 -0.35482588 0.07921831
v 0.15389967 -0.02226864 -0.09266149
v 0.05269052 -0.10610770 0.16420604
v 0.05502910 -0.11554000 0.16383508
v 0.06239234 0.16327605 -0.13198920
v -0.14490527 0.13991280 -0.05368683
v -0.16549883 -0.06605394 -0.04817854
v -0.08703900 0.29012900 0.00000000
v -0.09128112 -0.23288133 -0.15736169
v -0.04741241 -0.20511075 -0.16452491
v 0.05429878 -0.22167826 -0.16355955
v 0.10234378 -0.00797060 -0.14695171
v 0.12761772 -0.01638254 -0.12043552
v 0.10256656 -0.01223573 -0.14754262
v -0.15467754 -0.32536343 0.10220247
v -0.16362081 -0.31208589 0.06967870
v -0.05693922 0.09318729 0.15607921
v 0.13209852 -0.02935802 -0.12540703
v 0.15200697 -0.02222565 -0.09549424
v 0.14720845 -0.05478926 -0.10907135
v -0.16647626 -0.26234508 0.04316521
v -0.07482668 -0.45665699 -0.02256769
v -0.04878603 0.13571151 -0.14666149
v 0.15945398 -0.19802968 -0.07726829
v -0.12282639 0.18967155 -0.05639034
v 0.16191101 -0.28313597 0.07330622
v 0.16453042 -0.01631649 0.05689525
v 0.14920959 -0.06076189 0.10981684
v 0.13941255 -0.11515878 -0.13905894
v 0.09260102 -0.08434661 -0.15325580
v 0.11802470 -0.06058938 -0.14491344
v 0.04957100 0.29012900 0.07153800
v 0.15921828 -0.31330960 -0.09272674
v 0.14137359 -0.12184686 -0.13784661
v -0.06606516 -0.22207600 0.16236264
v -0.09295657 -0.25478904 0.15815388
v -0.09753540 -0.44340895 -0.08413132
v 0.15949152 -0.31365204 -0.09199831
v 0.07730108 0.23315448 0.09474504
v 0.15174461 -0.26841625 0.12108943
v 0.05029657 -0.23357884 0.16452698
v 0.13320298 -0.00145552 -0.11934885
v 0.12428091 -0.19518934 -0.15032730
v -0.06666334 -0.30168976 -0.16260785
v 0.10088572 0.19541399 -0.09787417
v -0.16653119 -0.27321766 0.04525415
v 0.16953856 -0.38484817 -0.05030389
v -0.06900791 0.11893979 -0.14564965
v -0.05891855 0.19769755 0.11640569
v -0.06327615 0.22578228 0.10186539
v -0.16156362 -0.27365104 -0.07377246
v -0.12651671 -0.44546646 -0.01373842
v -0.13131664 -0.02410469 -0.12678440
v 0.11380203 -0.23969819 -0.14978676
v 0.11044249 -0.24424391 -0.15343146
v 0.10915978 -0.24191882 -0.15414342
v -0.15508995 -0.13262046 -0.10256809
v 0.01935387 0.44469773 0.05098467
v 0.01312282 0.44607185 0.04820083
v -0.04240721 0.44709897 0.02802231
v 0.01234885 0.44371113 0.05171646
v -0.04216200 0.44264057 0.03523165
v 0.04786469 0.36887089 0.07741878
v -0.15003528 -0.07499477 -0.11313386
v -0.15620077 -0.07939488 -0.08711304
v 0.02996611 -0.13022290 -0.16709052
v 0.12300614 -0.31791831 0.14283823
v 0.14923966 -0.31312716 0.12032896
v -0.10989958 -0.06881895 -0.14891673
v -0.14125750 -0.09358853 -0.13055955
v 0.07296901 0.19783790 0.11177397
v 0.16711126 -0.07011118 0.03573859
v 0.16710914 -0.06107756 0.03811455
v -0.09854656 0.15695804 0.11725355
v -0.06097819 0.11939244 0.14818681
v -0.15527583 -0.23463691 0.10623429
v -0.15666509 -0.22703455 0.09931307
v -0.15715205 -0.23292481 0.09680965
v -0.15476018 -0.17057381 0.10958802
v -0.16007921 -0.16920768 0.07866225
v 0.05907659 -0.44505972 -0.11042136
v -0.15506872 -0.12547361 -0.10328030
v 0.05988897 0.12425599 -0.14784141
v -0.11475262 0.08972204 0.12378154
v 0.11368372 -0.38283851 0.14148950
v -0.06702735 0.23659032 0.09489753
v -0.05252800 0.26414380 0.08672974
v 0.12798624 0.15179091 0.08049243
v 0.05100314 -0.10363064 0.16451115
v -0.05923595 -0.29947915 -0.16399057
v -0.16425134 -0.21611300 0.05047004
v 0.04994566 0.25980203 0.09493100
v -0.10080443 0.23321092 0.05473660
v -0.10176763 0.23210212 0.05401167
v 0.14556269 0.13504403 0.05539999
v 0.07485907 0.31684963 0.05532985
v -0.09680564 -0.17907643 0.15720504
v -0.10884740 -0.19460874 0.15379790
v 0.15968696 -0.21708531 0.07937530
v 0.02240938 -0.46149219 0.05040972
v 0.02246903 -0.46197645 0.04775300
v 0.02386203 -0.46185261 0.04797178
v 0.13240791 0.09751731 0.10237579
v 0.15197677 -0.16810624 0.12278739
v -0.06428954 -0.21736635 0.16257797
v -0.06719659 -0.21677351 0.16214011
v -0.15724763 -0.25006633 0.09846383
v -0.15831263 -0.29640835 0.09628770
v -0.07832425 0.08790529 0.14880637
v -0.16138604 -0.01159385 0.07181566
v -0.16398270 -0.04827849 0.05918885
v 0.04473885 0.33838101 0.07802827
v 0.09969696 -0.00924893 -0.14847248
v 0.09642927 -0.01756235 -0.14965100
v 0.03336336 0.37472799 -0.08459061
v -0.05039861 -0.14081603 -0.16414194
v -0.07002885 0.26450996 0.07962085
v -0.05199412 -0.01595021 0.16668346
v -0.08296992 0.34290953 0.03485017
v 0.15044723 -0.22719887 0.11716795
v -0.01324895 -0.45766283 -0.07651744
v 0.05529085 -0.02721751 0.16515233
v 0.15907946 -0.12063655 -0.07614597
v 0.10063348 -0.00702943 -0.14805285
v -0.05010432 -0.14730557 -0.16423067
v 0.14930920 -0.06213739 0.10993532
v -0.12578267 -0.23432332 -0.13966618
v -0.11205894 -0.24732451 -0.15165762
v -0.13992884 -0.25123784 -0.13951158
v 0.03395385 -0.44677064 -0.11376953
v -0.08623300 -0.03314224 0.15795056
v 0.13850372 0.11591994 -0.09289786
v 0.03820641 0.44653546 -0.03186835
v 0.16079963 -0.38386831 -0.07872937
v 0.16809481 -0.36832658 -0.05642730
v -0.12718247 -0.44527033 -0.01265298
v 0.07304611 -0.17495747 0.16085796
v -0.15260676 -0.26394460 0.11942111
v -0.15763030 -0.22739931 0.09321409
v -0.05217528 -0.02046081 -0.16594055
v -0.05890234 -0.03256706 -0.16461015
v -0.02321105 -0.44768794 -0.11557943
v -0.01416504 -0.44594498 -0.13115210
v 0.11240136 -0.38642296 0.14182898
v 0.14377524 -0.39686482 0.10650760
v 0.15970016 -0.31439304 -0.09103589
v 0.14747579 -0.38494509 -0.10852348
v 0.01404650 0.45170712 -0.00606314
v 0.02054838 0.44582373 0.04289169
v 0.11344935 -0.20248930 0.15352330
v 0.08194793 -0.18199692 0.15917558
v 0.14131194 -0.17144823 0.13026372
v -0.10173647 0.23302044 0.05342707
v 0.04819398 0.08335526 0.16067879
v 0.14023995 -0.22076005 0.13841363
v 0.15103140 -0.16791482 0.12591061
v -0.11607503 -0.21040906 -0.15204369
v -0.10172572 -0.23788052 -0.15555956
v 0.15930148 -0.31605269 -0.09215378
v -0.04012165 -0.20083704 -0.16569755
v 0.06621308 -0.20488547 0.16202387
v 0.11940139 -0.12281016 0.15204725
v -0.16025855 -0.17947515 0.07738087
v 0.10183957 -0.22825637 0.15582344
v 0.10571693 -0.25258261 0.15380228
v 0.14215573 -0.23616298 0.13737948
v 0.07353720 -0.24453290 0.16086438
v 0.08287201 -0.44217306 0.11523238
v -0.07084995 -0.10723214 0.16184922
v -0.11651505 -0.10620050 -0.14414221
v -0.14289624 -0.12865685 -0.11915560
v -0.13427531 -0.30027850 0.13783818
v -0.15399343 -0.30499138 0.10162630
v -0.16605055 -0.31050914 0.05545930
v -0.09846829 -0.02494479 0.15155156
v -0.12576689 -0.29120475 0.14832452
v 0.14327434 -0.06647751 -0.11475517
v 0.13240908 -0.30869087 -0.14242719
v -0.09216606 -0.26685324 0.15777184
v -0.08832684 -0.28936316 0.15954043
v 0.13149057 -0.36753206 -0.13503474
v -0.10351690 0.09405891 -0.13172116
v -0.11493788 0.09368494 -0.12614445
v -0.03671138 0.20931665 -0.11708278
v -0.16660264 -0.26029929 0.04072318
v 0.15858213 -0.31462398 -0.09337239
v 0.09199510 -0.26172876 0.15820728
v -0.11196586 -0.25740916 0.15450394
v -0.03954574 -0.46222752 0.03746463
v 0.06807214 0.11497515 0.14878392
v -0.16811156 -0.02718520 0.04011060
v -0.14884321 -0.17951880 0.13039529
v -0.07251974 -0.21805535 0.16088728
v -0.11416436 -0.35457209 -0.14698277
v 0.11501482 -0.29137818 0.15197814
v -0.12257796 -0.37578967 -0.13581102
v -0.00486356 -0.44847632 -0.11632011
v 0.06239417 -0.46069731 0.00346717
v 0.03504721 0.09926205 -0.16121194
v -0.06518809 0.37649484 0.06292289
v -0.04741796 0.20629585 -0.11525370
v 0.06106334 -0.45751150 0.03088865
v 0.09496566 -0.45496116 0.01039605
v -0.10209854 0.23212035 0.05279686
v -0.14058829 -0.20827659 0.14368870
v -0.15415877 -0.22424604 0.10840502
v -0.14522298 -0.23762438 0.13356970
v -0.15436212 -0.20287722 0.11246485
v -0.11754637 -0.23324788 0.15228944
v 0.05750048 -0.24926012 0.16363591
v -0.04059096 -0.35336268 0.16919286
v -0.05459830 -0.00667490 -0.16581690
v -0.01329084 0.45385572 0.00179754
v -0.10973255 0.10190349 -0.12660968
v 0.02304084 -0.46205302 0.04702140
v 0.05535287 -0.02726298 0.16513821
v 0.05555004 -0.02710739 0.16505927
v 0.06241190 0.32399488 0.07291152
v -0.13709854 -0.26019029 0.13757917
v -0.06111611 0.09440267 -0.15521756
v 0.09192814 -0.00163080 0.15137719
v 0.16481425 -0.18138435 -0.04610383
v 0.16104207 -0.12426989 0.06865275
v 0.01506356 -0.45535588 -0.08384096
v 0.00148961 -0.44654813 -0.12767222
v -0.13077650 -0.19986435 -0.14635533
v 0.14137528 0.15354416 -0.04191165
v -0.11616105 0.16123459 0.10314691
v 0.15007538 -0.06566611 -0.10721524
v -0.10255740 0.23065738 0.05348534
v -0.07904389 0.38933417 -0.04590965
v -0.04494213 0.44896260 -0.01931947
v -0.16071180 -0.26284334 -0.07690892
v -0.09463188 -0.45066164 0.03305665
v 0.15366339 0.11146700 -0.04489387
v 0.16663804 -0.07919578 0.03934054
v 0.16720828 -0.12563056 0.03047508
v 0.13854950 0.12095904 -0.08998040
v 0.16174400 -0.10252677 -0.06391950
v 0.11331367 0.00152899 0.13438487
v -0.07232353 -0.22453540 0.16121353
v -0.15376340 -0.12547881 -0.10901683
v -0.06065207 -0.11751117 0.16340823
v -0.17142407 -0.36871016 0.04234315
v -0.15861394 -0.17161953 -0.08376925
v -0.04581357 0.11240020 -0.15441740
v -0.04447635 0.08665286 -0.16146363
f 1 2 3
f 5 6 7
f 10 11 12
f 15 16 17
f 22 23 24
f 25 26 27
f 29 30 31
f 32 33 34
f 33 35 34
f 37 38 36
f 41 42 43
f 44 45 46
f 47 48 49
f 48 50 49
f 51 52 53
f 52 54 53
f 55 56 57
f 58 59 60
f 61 62 55
f 63 59 64
f 66 67 3
f 68 69 70
f 26 35 33
f 73 50 74
f 77 37 76
f 82 83 84
f 33 86 87
f 86 88 87
f 89 90 18
f 65 91 92
f 93 94 95
f 96 80 97
f 98 99 100
f 99 101 100
f 102 103 104
f 105 106 107
f 108 109 110
f 111 112 113
f 116 117 118
f 119 121 120
f 124 125 126
f 127 128 129
f 130 131 132
f 133 134 135
f 134 136 135
f 137 15 138
f 139 140 141
f 142 143 144
f 143 145 144
f 119 120 146
f 9 8 147
f 148 149 150
f 151 152 153
f 154 155 119
f 158 159 160
f 161 162 163
f 46 166 165
f 167 168 169
f 172 173 174
f 175 176 177
f 178 179 180
f 181 182 183
f 184 185 186
f 19 187 18
f 14 188 28
f 71 189 190
f 192 193 194
f 195 60 59
f 196 198 197
f 199 200 158
f 93 203 204
f 100 205 29
f 205 30 29
f 206 207 208
f 209 210 211
f 212 213 214
f 215 216 217
f 218 220 219
f 221 222 223
f 224 225 226
f 227 228 229
f 190 189 122
f 230 231 232
f 233 234 235
f 234 236 235
f 237 238 239
f 240 94 222
f 94 235 222
f 85 180 241
f 242 243 123
f 244 245 246
f 247 248 249
f 250 251 252
f 253 243 254
f 255 256 257
f 260 261 262
f 263 265 264
f 266 267 60
f 268 269 270
f 271 272 157
f 23 273 274
f 273 275 274
f 276 278 277
f 164 65 75
f 279 254 280
f 282 283 13
f 30 284 31
f 284 285 31
f 286 287 288
f 48 289 290
f 289 291 290
f 115 292 114
f 232 293 230
f 294 295 191
f 185 296 297
f 290 298 299
f 300 301 302
f 303 304 52
f 20 189 71
f 305 38 37
f 306 307 308
f 309 310 311
f 80 312 313
f 315 316 314
f 318 61 319
f 320 296 185
f 321 322 75
f 41 209 42
f 324 325 326
f 327 10 328
f 151 329 330
f 40 333 149
f 334 335 253
f 240 222 221
f 184 336 337
f 115 186 292
f 243 242 338
f 46 45 339
f 340 341 342
f 95 57 93
f 13 344 345
f 62 61 81
f 89 346 90
f 262 347 348
f 346 88 90
f 88 86 90
f 349 350 52
f 350 351 52
f 240 352 94
f 356 357 358
f 360 361 362
f 361 363 362
f 364 365 366
f 108 135 109
f 367 280 368
f 104 370 369
f 371 178 85
f 64 373 372
f 374 375 376
f 377 278 336
f 378 379 380
f 379 381 380
f 374 382 383
f 373 64 317
f 21 384 20
f 384 189 20
f 385 96 97
f 190 72 71
f 386 388 387
f 389 390 156
f 347 262 391
f 262 261 391
f 94 233 235
f 345 392 282
f 393 394 395
f 396 397 398
f 399 400 373
f 356 160 401
f 402 403 404
f 116 405 4
f 336 184 406
f 127 407 128
f 273 23 408
f 409 237 286
f 237 239 286
f 4 117 116
f 409 286 326
f 412 413 202
f 414 193 192
f 4 405 415
f 416 417 358
f 215 310 216
f 418 337 276
f 355 255 419
f 201 420 202
f 241 271 157
f 174 421 422
f 142 144 423
f 218 424 425
f 427 373 317
f 428 429 60
f 430 431 432
f 431 433 432
f 434 435 436
f 438 420 201
f 116 118 317
f 439 440 441
f 442 443 444
f 59 58 140
f 91 65 164
f 111 408 112
f 405 440 439
f 446 176 150
f 447 154 448
f 180 271 241
f 449 120 227
f 450 343 451
f 448 382 374
f 382 448 154
f 382 154 119
f 382 119 146
f 127 129 452
f 186 297 453
f 454 455 456
f 254 92 91
f 102 369 457
f 429 266 60
f 459 460 461
f 418 185 337
f 118 462 427
f 200 463 158
f 464 441 465
f 466 125 71
f 146 120 449
f 458 467 355
f 101 205 100
f 237 103 394
f 152 468 153
f 469 470 471
f 472 362 363
f 473 474 475
f 476 477 478
f 479 480 376
f 481 456 455
f 423 482 483
f 396 484 485
f 484 486 485
f 488 489 487
f 220 218 425
f 490 491 134
f 491 492 134
f 212 214 493
f 394 238 237
f 39 40 149
f 439 494 415
f 495 496 497
f 496 498 497
f 321 75 65
f 499 321 65
f 500 321 499
f 501 287 502
f 503 433 504
f 346 89 187
f 89 18 187
f 349 52 424
f 52 304 424
f 448 215 447
f 415 494 72
f 430 199 506
f 199 507 506
f 5 7 508
f 503 432 433
f 509 271 180
f 510 325 18
f 512 513 308
f 513 306 308
f 514 322 515
f 414 111 193
f 171 253 335
f 518 519 339
f 520 521 516
f 60 522 58
f 523 524 525
f 41 247 209
f 233 94 93
f 511 527 97
f 528 286 529
f 286 239 529
f 530 118 117
f 103 531 104
f 532 119 401
f 532 121 119
f 395 103 511
f 511 103 102
f 394 103 395
f 122 533 190
f 534 421 173
f 421 174 173
f 218 292 424
f 415 405 439
f 68 536 468
f 74 482 73
f 482 423 73
f 349 292 350
f 301 537 302
f 187 538 346
f 33 27 26
f 142 423 483
f 309 539 216
f 189 384 442
f 384 540 442
f 26 25 35
f 306 513 541
f 118 530 462
f 96 385 43
f 172 174 403
f 542 246 444
f 246 245 444
f 139 543 317
f 194 544 301
f 154 357 155
f 546 547 545
f 479 376 437
f 267 522 60
f 548 549 124
f 406 550 336
f 550 377 336
f 517 520 516
f 68 70 536
f 27 33 87
f 481 455 276
f 13 188 14
f 551 288 105
f 552 553 534
f 445 236 429
f 61 69 81
f 554 555 177
f 136 134 557
f 305 37 77
f 558 434 559
f 560 352 319
f 560 319 61
f 95 352 560
f 95 94 352
f 39 280 367
f 149 280 39
f 448 374 376
f 99 56 561
f 56 55 561
f 145 562 481
f 161 563 564
f 563 251 564
f 68 152 69
f 565 566 259
f 311 480 479
f 528 287 286
f 132 360 270
f 257 422 255
f 422 567 255
f 221 223 568
f 223 569 568
f 570 537 544
f 537 301 544
f 223 571 569
f 111 414 408
f 572 462 518
f 427 462 399
f 462 572 399
f 575 576 548
f 392 577 282
f 172 473 173
f 473 578 173
f 579 557 134
f 258 565 259
f 22 24 482
f 24 483 482
f 418 276 580
f 41 582 581
f 583 236 445
f 398 265 263
f 584 434 436
f 129 585 586
f 497 390 495
f 390 587 495
f 462 530 518
f 530 519 518
f 588 589 590
f 591 237 409
f 28 523 592
f 593 157 156
f 434 558 594
f 28 188 17
f 596 597 598
f 41 599 600
f 221 260 601
f 260 602 601
f 603 256 255
f 398 263 359
f 351 350 604
f 98 605 606
f 605 607 606
f 608 2 609
f 397 503 504
f 93 234 233
f 429 236 234
f 32 34 610
f 34 611 610
f 200 612 463
f 554 176 446
f 9 613 8
f 136 557 614
f 429 234 615
f 615 234 93
f 51 53 213
f 263 12 11
f 356 358 417
f 110 616 380
f 616 378 380
f 617 618 619
f 14 344 13
f 240 620 352
f 469 366 66
f 224 621 225
f 621 622 225
f 138 486 484
f 16 523 17
f 626 294 191
f 457 97 527
f 500 499 227
f 499 449 227
f 627 628 363
f 628 159 363
f 23 22 408
f 22 112 408
f 560 57 95
f 630 405 116
f 630 440 405
f 631 632 633
f 47 550 48
f 550 289 48
f 43 385 457
f 634 39 367
f 373 400 372
f 635 636 637
f 52 351 54
f 578 638 552
f 638 639 552
f 640 272 641
f 642 643 520
f 192 408 414
f 516 521 646
f 576 219 548
f 219 220 548
f 42 209 96
f 330 152 151
f 68 468 152
f 146 383 382
f 449 383 146
f 647 570 191
f 325 531 326
f 531 409 326
f 312 450 648
f 649 512 101
f 512 205 101
f 650 508 459
f 508 7 459
f 651 603 381
f 115 114 323
f 652 353 629
f 514 526 322
f 354 206 345
f 653 587 389
f 391 261 568
f 261 260 568
f 442 122 189
f 633 654 219
f 654 655 219
f 393 618 394
f 11 10 327
f 657 658 526
f 659 555 281
f 343 660 609
f 159 628 160
f 661 662 663
f 122 244 46
f 664 211 210
f 342 665 666
f 115 323 79
f 427 317 118
f 225 622 471
f 471 622 364
f 667 364 621
f 364 622 621
f 168 378 616
f 540 443 442
f 213 668 214
f 217 669 215
f 99 561 101
f 161 163 670
f 90 671 672
f 398 397 265
f 397 504 265
f 396 485 397
f 485 673 397
f 674 455 558
f 455 675 558
f 163 676 677
f 249 489 678
f 489 679 678
f 202 264 412
f 161 299 162
f 680 171 170
f 681 63 372
f 453 604 350
f 306 305 307
f 215 448 310
f 201 258 259
f 46 519 122
f 91 280 254
f 625 682 624
f 2 451 343
f 47 49 377
f 110 683 684
f 685 361 131
f 686 370 104
f 140 64 59
f 687 660 343
f 19 688 40
f 128 407 689
f 407 690 689
f 111 113 691
f 29 465 605
f 692 693 694
f 372 695 82
f 695 696 82
f 343 609 2
f 359 697 613
f 418 661 320
f 661 663 320
f 383 92 374
f 444 443 540
f 134 492 579
f 56 203 57
f 354 345 344
f 698 699 700
f 377 277 278
f 64 372 63
f 476 478 701
f 164 75 368
f 98 606 702
f 135 136 616
f 556 703 526
f 640 641 597
f 73 704 49
f 18 90 705
f 706 53 54
f 254 279 253
f 707 353 354
f 32 610 672
f 169 614 16
f 614 708 16
f 709 710 711
f 667 621 569
f 621 391 569
f 221 568 260
f 667 569 571
f 65 383 449
f 416 358 712
f 416 712 258
f 713 289 550
f 714 483 24
f 680 170 410
f 45 715 716
f 457 369 43
f 717 57 560
f 713 550 718
f 191 544 194
f 184 186 406
f 719 506 416
f 506 417 416
f 213 720 668
f 161 670 563
f 670 294 563
f 721 44 165
f 722 624 699
f 144 277 704
f 93 204 615
f 41 581 599
f 22 482 723
f 251 563 294
f 173 578 534
f 569 391 568
f 553 567 534
f 567 421 534
f 536 724 468
f 724 647 468
f 514 725 685
f 725 361 685
f 263 264 202
f 63 195 59
f 83 726 545
f 86 671 90
f 473 475 578
f 727 79 78
f 728 25 703
f 106 729 730
f 547 731 583
f 732 204 203
f 727 115 79
f 438 201 566
f 720 53 662
f 53 663 662
f 458 341 386
f 249 733 247
f 734 735 736
f 606 607 58
f 53 720 213
f 647 191 153
f 538 40 39
f 609 737 608
f 109 616 110
f 37 36 76
f 306 541 305
f 541 38 305
f 217 216 738
f 669 217 505
f 515 228 514
f 228 725 514
f 669 505 535
f 669 535 281
f 739 740 741
f 740 742 741
f 669 281 642
f 743 669 642
f 368 280 91
f 288 287 328
f 287 327 328
f 744 745 210
f 745 664 210
f 746 645 156
f 490 134 133
f 499 65 449
f 747 303 748
f 749 750 744
f 265 504 751
f 250 252 290
f 252 735 290
f 157 596 156
f 157 272 596
f 66 3 2
f 491 752 753
f 376 480 448
f 748 303 52
f 201 202 413
f 639 666 552
f 161 564 299
f 17 523 28
f 314 676 315
f 339 519 46
f 754 287 755
f 287 501 755
f 709 6 714
f 752 629 353
f 441 464 439
f 464 494 439
f 719 416 412
f 416 413 412
f 741 644 281
f 223 731 571
f 756 757 758
f 714 24 709
f 715 45 44
f 308 284 512
f 649 513 512
f 638 475 759
f 475 760 759
f 703 657 526
f 114 292 218
f 222 583 223
f 583 731 223
f 236 222 235
f 219 114 218
f 541 761 38
f 160 507 199
f 603 255 355
f 545 701 366
f 428 195 429
f 611 686 610
f 611 370 686
f 610 686 510
f 510 686 104
f 737 762 231
f 763 685 130
f 488 487 426
f 236 583 222
f 276 455 580
f 182 764 595
f 737 609 762
f 609 660 762
f 81 152 330
f 81 69 152
f 48 735 50
f 735 734 50
f 765 304 303
f 120 628 627
f 766 420 767
f 420 438 767
f 698 711 694
f 127 452 653
f 452 587 653
f 591 531 103
f 552 534 578
f 432 503 768
f 659 741 742
f 264 265 412
f 265 751 412
f 228 627 363
f 80 687 343
f 769 381 603
f 664 687 80
f 745 660 687
f 262 348 724
f 348 770 724
f 771 67 66
f 274 275 597
f 772 258 201
f 34 599 611
f 281 555 642
f 107 773 774
f 28 592 14
f 612 775 463
f 154 776 357
f 772 416 258
f 777 666 778
f 745 687 664
f 779 662 661
f 455 779 580
f 779 661 580
f 780 781 782
f 29 31 465
f 31 781 465
f 783 775 485
f 775 612 485
f 3 760 451
f 760 475 451
f 659 742 574
f 74 50 734
f 383 65 92
f 706 54 604
f 54 351 604
f 746 156 598
f 594 558 784
f 474 451 475
f 1 451 2
f 785 340 786
f 73 423 704
f 423 144 704
f 775 188 13
f 463 775 283
f 555 643 642
f 274 597 710
f 588 242 123
f 787 477 788
f 477 476 788
f 551 326 288
f 438 566 767
f 411 789 182
f 321 500 515
f 321 515 322
f 363 725 228
f 790 791 617
f 258 792 565
f 365 731 546
f 731 547 546
f 246 166 46
f 652 207 353
f 186 453 350
f 793 271 509
f 794 272 793
f 272 271 793
f 694 794 793
f 613 697 196
f 283 775 13
f 158 463 283
f 498 496 749
f 795 375 92
f 375 374 92
f 668 493 214
f 761 332 331
f 98 100 605
f 653 389 796
f 251 626 252
f 337 278 276
f 107 766 773
f 766 797 773
f 96 664 80
f 606 58 522
f 363 361 725
f 564 251 299
f 251 250 299
f 713 718 291
f 500 227 229
f 198 798 197
f 491 753 525
f 753 707 525
f 635 368 75
f 785 44 386
f 388 44 721
f 422 404 174
f 404 403 174
f 200 768 612
f 432 768 199
f 768 200 199
f 430 432 199
f 647 153 468
f 49 50 73
f 248 41 600
f 130 685 131
f 131 360 132
f 418 320 185
f 646 521 799
f 559 800 558
f 800 662 558
f 784 133 435
f 133 135 435
f 649 101 801
f 802 9 147
f 143 142 803
f 268 692 804
f 529 238 595
f 77 632 305
f 632 631 305
f 77 76 78
f 805 653 796
f 96 209 211
f 96 211 664
f 624 682 699
f 557 579 806
f 614 557 806
f 248 600 487
f 772 201 413
f 772 413 416
f 470 225 471
f 600 599 487
f 688 646 333
f 807 808 621
f 808 809 621
f 88 346 637
f 346 538 637
f 469 471 364
f 469 364 366
f 133 784 454
f 764 502 529
f 43 582 41
f 541 810 761
f 761 331 314
f 811 422 257
f 704 277 49
f 277 377 49
f 464 465 780
f 465 781 780
f 708 524 16
f 524 523 16
f 360 812 270
f 437 813 479
f 171 335 170
f 577 624 812
f 814 815 727
f 297 296 604
f 793 804 692
f 503 397 673
f 273 192 645
f 645 746 273
f 720 662 668
f 662 800 668
f 615 204 266
f 267 816 522
f 196 697 411
f 581 370 599
f 370 611 599
f 180 85 178
f 139 317 64
f 108 110 817
f 110 684 817
f 570 544 191
f 787 758 477
f 818 756 788
f 756 787 788
f 646 688 19
f 228 227 627
f 227 120 627
f 266 204 267
f 644 741 659
f 758 757 819
f 93 57 203
f 448 480 310
f 157 821 820
f 676 314 331
f 332 761 810
f 36 38 314
f 163 315 676
f 330 823 822
f 823 330 329
f 62 561 55
f 62 822 561
f 822 81 330
f 81 822 62
f 755 697 359
f 824 825 765
f 825 304 765
f 406 826 718
f 199 158 160
f 316 827 36
f 759 639 638
f 185 297 186
f 103 237 591
f 336 278 337
f 805 407 653
f 407 127 653
f 579 492 524
f 505 738 535
f 828 829 539
f 217 738 505
f 829 738 216
f 216 539 829
f 142 483 803
f 483 714 803
f 714 6 803
f 6 5 803
f 300 194 301
f 780 494 464
f 512 30 205
f 157 820 241
f 486 15 17
f 766 767 797
f 692 694 793
f 372 400 695
f 333 150 149
f 821 488 820
f 182 789 764
f 830 584 831
f 584 832 831
f 249 248 489
f 487 489 248
f 248 247 41
f 400 399 695
f 735 48 290
f 105 288 729
f 288 328 729
f 25 27 657
f 27 658 657
f 758 819 477
f 833 773 516
f 55 717 61
f 724 260 262
f 795 243 338
f 580 661 418
f 663 53 706
f 623 834 9
f 196 8 613
f 595 238 394
f 529 239 238
f 139 141 543
f 273 408 192
f 574 555 659
f 830 835 584
f 835 559 584
f 784 558 675
f 674 558 662
f 454 784 455
f 784 675 455
f 674 662 455
f 662 779 455
f 836 435 434
f 836 434 594
f 435 836 784
f 836 594 784
f 748 213 747
f 213 212 747
f 542 444 747
f 765 303 747
f 90 672 705
f 790 617 619
f 190 533 415
f 722 270 624
f 270 722 692
f 807 837 838
f 427 399 373
f 839 814 827
f 676 331 332
f 676 332 151
f 302 689 300
f 689 690 300
f 300 192 194
f 805 840 407
f 680 123 171
f 730 202 420
f 420 106 730
f 797 517 516
f 184 337 185
f 841 831 387
f 798 257 256
f 592 707 354
f 691 113 626
f 113 252 626
f 435 842 832
f 842 831 832
f 353 753 752
f 643 521 520
f 472 363 159
f 252 113 736
f 800 559 835
f 467 684 683
f 817 684 458
f 458 386 387
f 684 467 458
f 777 342 666
f 310 480 311
f 350 292 186
f 270 812 624
f 688 333 40
f 774 773 833
f 67 843 3
f 123 243 253
f 510 104 325
f 442 245 122
f 393 395 511
f 573 555 574
f 665 553 666
f 553 552 666
f 32 672 671
f 805 796 645
f 844 845 835
f 845 846 835
f 847 845 844
f 135 842 435
f 588 123 680
f 747 444 765
f 444 540 765
f 410 176 175
f 124 549 125
f 549 848 125
f 682 461 699
f 506 356 417
f 156 390 593
f 547 583 445
f 665 849 553
f 817 387 831
f 672 610 705
f 18 705 510
f 705 610 510
f 750 850 232
f 850 851 232
f 393 790 619
f 618 393 619
f 131 361 360
f 852 788 572
f 788 853 572
f 788 695 853
f 572 853 399
f 853 695 399
f 251 294 626
f 270 269 132
f 503 673 768
f 17 188 783
f 783 188 775
f 485 612 673
f 612 768 673
f 83 854 726
f 30 512 284
f 402 183 595
f 595 183 182
f 811 855 422
f 404 422 855
f 404 855 402
f 855 183 402
f 852 572 856
f 349 424 292
f 802 147 603
f 420 766 106
f 698 700 711
f 700 857 711
f 388 386 44
f 743 792 447
f 291 858 298
f 754 11 287
f 11 327 287
f 105 729 106
f 396 398 484
f 67 819 843
f 819 757 843
f 706 604 320
f 604 296 320
f 584 436 832
f 859 860 45
f 860 339 45
f 538 634 637
f 102 457 527
f 486 783 485
f 486 138 15
f 56 99 702
f 162 299 861
f 299 858 861
f 338 813 437
f 827 814 76
f 567 553 849
f 419 255 849
f 567 849 255
f 699 461 460
f 550 406 718
f 862 863 599
f 128 689 837
f 597 275 598
f 275 746 598
f 208 682 625
f 345 206 625
f 206 208 625
f 202 730 729
f 328 10 729
f 749 850 750
f 864 322 658
f 478 865 701
f 760 3 843
f 579 524 708
f 866 718 839
f 98 702 99
f 156 596 598
f 718 826 839
f 472 159 158
f 845 847 867
f 656 825 824
f 545 726 701
f 856 860 868
f 78 814 727
f 743 447 669
f 447 215 669
f 633 632 654
f 43 369 582
f 488 821 679
f 253 171 123
f 441 543 869
f 543 141 869
f 11 359 263
f 359 11 755
f 729 10 202
f 754 755 11
f 711 710 641
f 710 597 641
f 701 726 476
f 841 847 831
f 847 844 831
f 453 297 604
f 870 623 138
f 313 791 871
f 791 790 871
f 155 357 401
f 838 348 808
f 138 484 870
f 56 702 203
f 702 732 203
f 621 809 391
f 494 780 466
f 719 412 431
f 23 274 24
f 272 597 596
f 826 406 186
f 268 179 269
f 403 402 618
f 172 403 617
f 403 618 617
f 785 786 715
f 785 715 44
f 777 786 342
f 786 340 342
f 797 767 517
f 701 865 366
f 516 646 833
f 447 776 154
f 359 870 398
f 603 651 802
f 778 666 872
f 666 639 872
f 873 715 786
f 838 837 689
f 852 818 788
f 194 193 691
f 691 626 194
f 442 444 245
f 260 724 602
f 536 70 602
f 70 874 602
f 542 875 867
f 875 845 867
f 876 352 874
f 352 620 874
f 561 822 801
f 822 877 801
f 758 787 756
f 212 493 875
f 493 845 875
f 668 846 493
f 846 845 493
f 348 302 770
f 302 537 770
f 506 507 356
f 160 356 507
f 659 281 644
f 67 771 819
f 821 593 679
f 593 498 679
f 308 307 284
f 307 878 284
f 38 761 314
f 763 879 556
f 880 521 555
f 521 643 555
f 300 840 192
f 767 566 517
f 452 495 587
f 635 367 368
f 500 229 228
f 593 821 157
f 566 520 517
f 642 520 565
f 565 520 566
f 760 843 759
f 509 179 268
f 252 736 735
f 87 881 27
f 881 658 27
f 97 457 385
f 240 221 601
f 500 228 515
f 575 782 882
f 782 285 882
f 576 882 883
f 882 878 883
f 576 575 882
f 177 555 573
f 554 446 555
f 446 880 555
f 554 177 176
f 884 19 18
f 591 409 531
f 140 139 64
f 822 823 877
f 885 886 887
f 886 756 887
f 886 885 888
f 885 872 888
f 778 872 885
f 885 889 778
f 777 778 786
f 778 873 786
f 86 33 671
f 162 861 163
f 861 315 163
f 721 165 890
f 561 801 101
f 43 42 96
f 489 488 679
f 679 498 678
f 808 347 809
f 347 391 809
f 807 838 808
f 32 671 33
f 751 431 412
f 79 632 78
f 452 129 495
f 129 586 495
f 850 749 495
f 749 496 495
f 656 848 549
f 866 291 718
f 298 858 299
f 291 298 290
f 289 713 291
f 180 179 509
f 299 250 290
f 356 401 357
f 117 533 530
f 533 891 530
f 122 891 533
f 122 519 891
f 530 891 519
f 415 533 4
f 533 117 4
f 549 425 656
f 788 696 695
f 426 892 488
f 577 392 624
f 893 740 739
f 181 183 855
f 370 581 582
f 34 35 599
f 599 863 487
f 599 35 894
f 35 25 894
f 728 894 25
f 886 757 756
f 329 877 823
f 757 886 888
f 782 781 895
f 126 125 466
f 843 757 759
f 757 888 759
f 97 871 790
f 172 648 473
f 648 450 473
f 755 789 697
f 896 379 897
f 358 898 712
f 723 112 22
f 756 899 887
f 862 599 894
f 781 31 895
f 818 899 756
f 899 818 856
f 818 852 856
f 710 709 274
f 709 24 274
f 741 281 738
f 281 644 535
f 281 535 738
f 76 814 78
f 862 894 900
f 894 728 900
f 124 126 548
f 126 575 548
f 479 813 311
f 302 348 689
f 344 14 354
f 565 792 642
f 795 92 254
f 795 254 243
f 795 338 437
f 437 376 375
f 375 795 437
f 884 774 833
f 576 883 219
f 61 717 560
f 83 445 84
f 590 813 338
f 828 539 813
f 202 12 263
f 870 834 623
f 9 834 613
f 167 137 901
f 587 390 389
f 645 796 389
f 172 617 648
f 617 791 648
f 1 3 451
f 810 877 332
f 902 481 276
f 133 903 490
f 649 801 513
f 801 904 513
f 513 904 541
f 801 877 904
f 541 904 810
f 904 877 810
f 905 329 332
f 802 623 9
f 623 802 897
f 896 897 802
f 224 585 621
f 585 906 621
f 678 498 749
f 733 249 749
f 249 678 749
f 474 473 450
f 450 451 474
f 634 367 635
f 487 862 900
f 896 802 651
f 866 839 861
f 839 827 861
f 491 525 492
f 525 524 492
f 295 294 670
f 851 850 495
f 739 738 829
f 181 411 182
f 531 325 104
f 224 226 585
f 112 723 113
f 723 736 113
f 186 815 826
f 815 814 826
f 814 839 826
f 647 724 770
f 111 691 193
f 776 898 358
f 567 422 421
f 740 175 177
f 556 879 178
f 231 230 737
f 618 595 394
f 595 618 402
f 393 511 97
f 790 393 97
f 130 132 269
f 838 689 348
f 625 392 345
f 481 562 629
f 907 472 158
f 398 870 484
f 486 17 783
f 897 167 901
f 830 831 844
f 830 844 835
f 846 668 800
f 846 800 835
f 542 867 246
f 682 208 461
f 650 461 208
f 650 459 461
f 447 792 898
f 851 495 586
f 181 198 411
f 595 764 529
f 646 799 333
f 429 615 266
f 273 746 275
f 536 602 724
f 683 110 380
f 104 369 102
f 482 74 723
f 734 736 74
f 736 723 74
f 366 865 478
f 286 288 908
f 326 908 288
f 326 286 908
f 355 467 769
f 807 621 837
f 621 906 837
f 837 906 585
f 128 837 129
f 837 585 129
f 651 381 379
f 431 751 433
f 751 504 433
f 641 794 711
f 794 694 711
f 889 873 778
f 857 700 909
f 459 7 460
f 7 909 460
f 909 700 460
f 700 699 460
f 326 910 324
f 551 774 326
f 774 910 326
f 866 861 291
f 861 858 291
f 335 911 410
f 108 817 842
f 817 831 842
f 55 57 717
f 114 655 323
f 543 441 440
f 782 895 285
f 323 655 654
f 125 20 71
f 883 878 307
f 551 105 774
f 105 107 774
f 102 527 511
f 435 832 436
f 501 789 755
f 411 697 789
f 764 789 502
f 789 501 502
f 153 191 295
f 79 654 632
f 21 125 656
f 246 46 244
f 440 630 543
f 543 116 317
f 116 543 630
f 447 898 776
f 693 692 699
f 692 722 699
f 145 143 562
f 629 562 143
f 333 799 150
f 150 799 446
f 75 636 635
f 370 582 369
f 88 881 87
f 859 45 868
f 45 716 868
f 887 889 885
f 341 340 386
f 739 741 738
f 175 740 912
f 31 285 895
f 39 634 538
f 334 279 148
f 253 279 334
f 148 911 335
f 149 148 280
f 148 279 280
f 150 911 148
f 911 150 176
f 911 176 410
f 667 913 364
f 667 571 913
f 365 364 913
f 690 407 840
f 719 431 506
f 430 506 431
f 871 97 80
f 681 372 82
f 212 875 747
f 542 747 875
f 692 268 270
f 475 638 578
f 585 293 586
f 293 851 586
f 640 597 272
f 547 445 545
f 526 658 322
f 570 647 770
f 197 147 196
f 329 151 332
f 528 529 287
f 529 502 287
f 841 721 847
f 890 847 721
f 743 642 792
f 147 8 196
f 379 378 168
f 896 651 379
f 168 167 379
f 167 897 379
f 109 135 616
f 616 136 168
f 136 614 168
f 272 794 641
f 763 130 269
f 763 269 879
f 269 179 879
f 763 556 685
f 685 556 526
f 83 696 854
f 631 307 305
f 307 631 883
f 631 633 883
f 633 219 883
f 663 706 320
f 155 401 119
f 625 624 392
f 605 465 869
f 441 869 465
f 869 141 914
f 58 914 140
f 914 141 140
f 605 869 607
f 869 914 607
f 58 607 914
f 892 241 820
f 371 892 426
f 593 497 498
f 593 390 497
f 165 166 890
f 246 867 166
f 867 847 166
f 890 166 847
f 323 654 79
f 571 731 913
f 365 913 731
f 861 827 316
f 314 316 36
f 871 80 313
f 282 577 915
f 602 874 601
f 240 601 620
f 601 874 620
f 69 318 70
f 318 874 70
f 318 69 61
f 876 318 352
f 318 319 352
f 876 874 318
f 878 882 285
f 878 285 284
f 488 892 820
f 892 371 241
f 163 677 670
f 677 295 670
f 153 295 677
f 677 151 153
f 151 677 676
f 637 634 635
f 108 842 135
f 282 915 283
f 282 13 345
f 683 380 467
f 467 380 769
f 355 769 603
f 226 230 585
f 230 293 585
f 77 78 632
f 133 454 903
f 769 380 381
f 267 204 816
f 36 827 76
f 804 793 509
f 804 509 268
f 584 559 434
f 491 490 916
f 490 903 916
f 491 916 752
f 629 752 916
f 917 456 481
f 917 481 629
f 454 456 903
f 456 917 903
f 917 916 903
f 629 916 917
f 712 792 258
f 712 898 792
f 771 478 819
f 478 477 819
f 357 776 358
f 10 12 202
f 207 354 353
f 106 766 107
f 579 708 806
f 614 806 708
f 219 655 114
f 75 322 864
f 864 658 881
f 206 354 207
f 650 652 508
f 650 208 652
f 208 207 652
f 481 902 145
f 210 247 744
f 247 733 744
f 799 521 880
f 446 799 880
f 862 487 863
f 47 377 550
f 918 812 360
f 812 918 577
f 918 360 362
f 472 907 362
f 907 918 362
f 907 915 918
f 915 577 918
f 283 915 907
f 907 158 283
f 919 5 652
f 5 508 652
f 919 652 629
f 5 919 803
f 143 803 919
f 629 143 919
f 897 901 623
f 623 901 138
f 138 901 137
f 244 122 245
f 309 216 310
f 707 592 523
f 178 879 179
f 516 773 797
f 884 910 774
f 18 910 884
f 325 324 910
f 910 18 325
f 198 196 411
f 15 920 16
f 169 16 167
f 16 920 167
f 137 167 920
f 137 920 15
f 410 170 335
f 192 840 645
f 805 645 840
f 300 690 840
f 389 156 645
f 546 545 366
f 546 366 365
f 921 873 868
f 873 889 868
f 716 715 868
f 715 921 868
f 572 518 856
f 518 860 856
f 715 873 921
f 868 889 899
f 889 887 899
f 856 868 899
f 353 707 753
f 707 523 525
f 592 354 14
f 681 82 63
f 232 851 293
f 750 232 744
f 232 922 744
f 232 231 922
f 762 660 745
f 745 744 762
f 744 922 762
f 922 231 762
f 749 744 733
f 368 91 164
f 644 281 535
f 732 522 816
f 732 816 204
f 606 522 702
f 522 732 702
f 315 861 316
f 788 476 696
f 476 726 696
f 854 696 726
f 366 771 66
f 366 478 771
f 312 80 343
f 450 312 343
f 387 388 841
f 388 721 841
f 458 387 817
f 347 808 348
f 570 770 537
f 905 332 877
f 88 637 881
f 637 636 881
f 824 384 21
f 419 849 923
f 665 923 849
f 419 923 355
f 355 923 458
f 665 342 923
f 342 341 923
f 923 341 458
f 824 21 656
f 825 425 424
f 825 656 425
f 538 187 40
f 864 636 75
f 864 881 636
f 19 40 187
f 648 313 312
f 648 791 313
f 195 63 924
f 588 680 589
f 828 813 589
f 813 590 589
f 588 590 242
f 590 338 242
f 309 311 539
f 813 539 311
f 25 657 703
f 872 639 759
f 872 759 888
f 66 2 608
f 66 608 470
f 469 66 470
f 225 470 226
f 470 925 226
f 226 925 230
f 470 608 925
f 608 737 925
f 737 230 925
f 425 549 220
f 548 220 549
f 384 824 540
f 824 765 540
f 424 304 825
f 115 727 815
f 740 177 573
f 893 739 828
f 739 829 828
f 828 589 893
f 912 740 893
f 893 589 912
f 589 680 912
f 912 410 175
f 410 912 680
f 573 574 742
f 573 742 740
f 100 29 605
f 83 545 445
f 82 696 83
f 63 82 924
f 82 84 924
f 195 924 429
f 429 924 445
f 84 445 924
f 160 628 532
f 120 532 628
f 160 532 401
f 121 532 120
f 811 198 855
f 198 181 855
f 811 257 198
f 257 798 198
f 197 603 147
f 197 798 603
f 798 256 603
f 125 848 656
f 613 834 359
f 359 834 870
f 466 780 126
f 780 782 126
f 575 126 782
f 125 21 20
f 72 494 71
f 466 71 494
f 415 72 190
f 46 165 44
f 428 60 195
f 698 694 699
f 694 693 699
f 926 556 178
f 614 169 168
f 194 626 191
f 860 518 339
f 859 868 860
f 728 703 900
f 703 926 900
f 900 426 487
f 926 703 556
f 900 927 426
f 884 833 19
f 19 833 646
f 709 711 6
f 711 857 6
f 7 857 909
f 7 6 857
f 902 277 144
f 276 277 902
f 145 902 144
f 927 926 178
f 900 926 927
f 927 178 371
f 927 371 426
f 210 209 247
f 685 526 514
f 785 386 340
f 259 566 201
f 115 815 186
f 905 877 329
f 334 148 335
f 51 213 52
f 213 748 52
f 85 241 371

