# https://github.com/mikedh/trimesh
v -0.14933500 0.08523200 0.01406800
v -0.14876800 0.10499500 0.02256100
v -0.15025900 0.08376300 0.00000000
v -0.02129750 0.36250800 -0.05550450
v -0.01124944 -0.44721691 -0.00045477
v 0.00280600 -0.44918200 0.00000000
v -0.03116600 -0.45052900 0.00000000
v 0.02688900 0.03978400 0.07848600
v 0.01367543 0.01319717 0.08199647
v 0.01793515 0.00562215 0.08217613
v -0.14839600 0.15812400 0.01141600
v -0.14918900 0.15788500 0.00000000
v -0.14818550 0.13167900 0.02269650
v 0.03222474 -0.27486712 0.08179674
v 0.03371794 -0.27669113 0.08184360
v 0.03415460 -0.27336115 0.08173240
v 0.03061363 -0.27707731 0.08172800
v -0.01175200 -0.29331700 0.07757600
v 0.03090861 -0.27337170 0.08172973
v 0.00279800 -0.44975900 -0.01723100
v 0.00280200 -0.44947000 -0.00861600
v 0.11326600 -0.33401100 0.07526000
v 0.11109200 -0.32527100 0.07562500
v -0.14065200 0.09741600 -0.05327100
v -0.11170400 0.06589900 -0.04633600
v -0.11861371 -0.14560013 0.02832171
v -0.01930200 0.06986050 -0.07711800
v -0.01973100 0.04073300 -0.07708400
v -0.04702500 0.03293300 -0.07321300
v -0.09305400 0.35649800 0.00000000
v -0.11715300 0.32064800 -0.02256200
v -0.12087600 0.32010600 0.00000000
v 0.12212167 -0.01042067 0.00000000
v 0.11600800 0.03562100 0.01787800
v 0.11842433 -0.01115667 0.03522200
v -0.00956200 -0.32757300 -0.07772300
v -0.11861329 -0.19353986 0.02828329
v 0.12285800 -0.46672700 -0.02743300
v 0.13495400 -0.46790600 -0.03068800
v 0.14388600 0.07651000 0.04612100
v 0.14913600 0.08453600 0.02322600
v 0.14422700 0.08686900 0.04560000
v 0.01731700 0.23372700 -0.05980400
v -0.07416200 -0.46909100 0.08298100
v -0.03703800 -0.46909100 0.08439200
v 0.11259800 -0.46908400 0.07525800
v 0.09087200 -0.46908900 0.08078100
v -0.10018600 0.36060500 0.01055100
v -0.07347350 0.38482050 0.00000000
v 0.00279800 -0.45033100 0.03448000
v 0.00279900 -0.45090300 0.05172900
v -0.04004500 0.32589200 -0.06497200
v -0.03965000 0.32570800 -0.07107400
v -0.06778436 0.31844823 0.07248105
v -0.03965000 0.32570800 0.07107400
v -0.05849800 0.33656300 0.06746900
v 0.14354600 0.06615000 -0.04664300
v 0.12887200 0.05014100 -0.04119900
v 0.13502700 0.06436600 -0.06079900
v 0.14913600 0.08453600 -0.02322700
v 0.15023600 0.08825900 0.00000000
v 0.15025900 0.08386000 0.00000000
v 0.12546900 -0.24058967 -0.03471700
v 0.06448947 -0.23595367 -0.08145081
v 0.08189500 -0.21841000 -0.07955400
v 0.07848800 -0.25429950 -0.07969850
v 0.12736200 -0.46709200 0.00000000
v 0.12170200 -0.46063300 0.00000000
v 0.12511000 -0.46690900 -0.01371600
v 0.14827200 0.09166600 -0.02856800
v 0.15021300 0.09265600 0.00000000
v -0.13881000 -0.46809300 0.00000000
v -0.12547300 -0.46698800 -0.01657600
v -0.12736200 -0.46709200 0.00000000
v 0.12511000 -0.46690900 0.01371600
v 0.11051741 0.01013605 0.05827538
v 0.10763067 -0.01441900 0.07606833
v 0.02828450 -0.45141350 0.05195700
v 0.03957800 -0.45115500 0.01745000
v 0.05377000 -0.45192400 0.05218500
v 0.07920700 -0.45275800 -0.03242200
v 0.09896800 -0.45351700 -0.01692100
v 0.07635800 -0.45255200 -0.01767100
v 0.14870700 -0.35496000 -0.01742200
v 0.15025900 -0.35461200 0.00000000
v 0.15025900 -0.38323300 0.00000000
v 0.10763067 -0.01441900 -0.07606833
v 0.12265167 -0.05644434 -0.03468967
v 0.11164633 -0.06206000 -0.07504667
v -0.12358500 -0.46688500 -0.03315100
v -0.11825300 -0.46058900 -0.03134000
v 0.08205700 -0.45296400 0.04717300
v 0.06378200 -0.46722500 0.06293000
v 0.13018900 -0.23720900 0.00000000
v 0.12546900 -0.24058966 0.03471600
v -0.15025900 -0.46909400 0.00000000
v -0.14798700 -0.46908700 -0.01973900
v -0.00329200 0.30469500 0.05733300
v 0.00294375 0.27610339 0.05027975
v 0.01032100 0.29683300 0.04160000
v -0.07609900 -0.24391450 0.06873150
v 0.03140600 0.14375900 -0.08366000
v 0.06290850 0.13062850 -0.08147900
v 0.05742400 0.12026900 -0.07896750
v 0.02249900 0.13222400 -0.07921500
v 0.12785000 0.09416000 0.06758100
v 0.12181400 0.05975700 0.07084100
v -0.07085400 -0.45254200 -0.04896900
v -0.03402800 -0.45172300 -0.05035000
v -0.06819900 -0.45229500 -0.03355300
v 0.09896800 -0.45351700 0.01692100
v 0.07638600 -0.45245700 0.00883500
v 0.09622800 -0.45326900 0.00000000
v 0.11562900 -0.22465600 -0.07402900
v 0.11564000 -0.18633767 -0.07402767
v 0.11259800 -0.46908400 -0.07525800
v 0.08861300 -0.46807600 -0.07027900
v 0.09087200 -0.46908900 -0.08078200
v -0.09275588 0.18539251 0.08832540
v -0.08947000 0.15038200 0.08034000
v -0.06890900 0.15985500 0.08226800
v -0.03570800 -0.46707500 -0.06154300
v -0.07339500 -0.46807900 -0.07156700
v -0.03703800 -0.46909100 -0.08439300
v -0.08821400 -0.45305000 -0.01896300
v -0.09061400 -0.45302700 0.00000000
v 0.02348521 0.39333097 -0.04144482
v 0.01326600 0.42523300 -0.04404500
v 0.03524292 0.41681532 -0.03391764
v 0.12285800 -0.46672700 0.02743200
v 0.11008100 -0.46658500 0.04649500
v 0.11644100 -0.46032100 0.02455300
v -0.13158600 0.27649200 0.02278300
v -0.11911900 0.14684700 0.07144700
v -0.11170400 0.06589900 0.04633500
v -0.11780900 0.03906000 0.03140200
v 0.07508100 -0.29018900 -0.07984300
v 0.11227400 -0.27059300 -0.07501000
v -0.13221600 -0.35982100 0.03387200
v -0.11861200 -0.33735900 0.02816800
v -0.12012500 -0.33753400 0.01408400
v -0.10983000 0.10305400 -0.06549400
v -0.07560600 0.34643700 -0.05757900
v 0.11604200 -0.45417500 0.00000000
v 0.11303400 -0.45404600 0.01083800
v -0.10637800 -0.33611800 -0.05302000
v -0.13221600 -0.35982100 -0.03387200
v -0.11861200 -0.33735900 -0.02816800
v 0.13054900 -0.14939100 0.00000000
v 0.13072900 -0.10548200 0.00000000
v -0.04702500 0.03293300 0.07321200
v -0.07518000 0.06065400 0.06910700
v -0.14972400 0.12082400 0.00000000
v -0.12163800 -0.28931875 0.00000000
v -0.11861243 -0.28941928 0.02820643
v -0.11861286 -0.24147957 0.02824486
v 0.05906700 0.18116300 0.07815000
v 0.07641400 -0.45236200 0.00000000
v -0.11078600 -0.46670800 -0.05088900
v -0.06890900 0.15985500 -0.08226900
v -0.07508301 0.19681184 -0.09141964
v -0.04638500 0.16295300 -0.08330600
v 0.07351000 0.03883500 0.07988800
v 0.07121800 0.00444500 0.08000300
v 0.08856200 0.03602800 0.07848900
v -0.00956200 -0.32757300 0.07772200
v 0.03292400 -0.32371500 0.07877300
v 0.01180900 0.29595400 -0.02497800
v 0.01980300 0.29135400 -0.01362700
v 0.01728000 0.29282600 -0.02725400
v -0.08346300 0.07713600 0.06649400
v -0.09367200 0.09020100 0.06209600
v -0.12163800 -0.24092850 0.00000000
v -0.10772000 -0.45401900 0.03780700
v -0.09908100 -0.45386400 0.04382200
v -0.11078600 -0.46670800 0.05088900
v 0.03961000 -0.45077200 0.00000000
v -0.00329200 0.30469500 -0.05733400
v -0.02766595 0.29791924 -0.07031977
v -0.00170658 0.27733547 -0.05496834
v 0.07635800 -0.45255200 0.01767000
v 0.05849400 0.22261700 0.00000000
v 0.03607700 0.24615600 0.00000000
v 0.03382900 0.24503000 0.01407200
v -0.13359400 0.07063900 0.02803500
v -0.14841100 0.08670100 0.02813600
v -0.09694309 0.33393083 0.05307777
v -0.08940952 0.32408165 0.06209982
v -0.07560600 0.34643700 0.05757800
v 0.09906700 0.17649050 -0.02882950
v 0.07657200 0.19896200 -0.02860100
v 0.08091100 0.19907800 0.00000000
v -0.11911900 0.14684700 -0.07144800
v -0.11077462 0.18414253 -0.08252811
v -0.08947000 0.15038200 -0.08034000
v -0.01129025 -0.24903600 -0.07761425
v -0.03402800 -0.45172300 0.05034900
v -0.01204275 -0.44895369 0.03768469
v -0.02591700 0.31773600 -0.05676000
v -0.14640000 0.19197350 0.00000000
v 0.03171800 0.35072100 -0.02107600
v -0.11863500 -0.46671300 0.04367100
v 0.14388600 0.07651000 -0.04612200
v 0.03957800 -0.45115500 -0.01745100
v 0.03191553 -0.24867432 -0.08261442
v 0.03283676 -0.24257231 -0.08252520
v -0.10638885 0.04771518 -0.05090200
v -0.07431900 0.02513300 -0.06934200
v -0.11780900 0.03906000 -0.03140300
v -0.11863500 -0.46671300 -0.04367100
v -0.10772000 -0.45401900 -0.03780700
v 0.07920700 -0.45275800 0.03242200
v 0.14690200 0.06785000 -0.02332100
v 0.13403900 0.05333000 0.00000000
v 0.11461400 -0.31616700 0.05539200
v 0.12188900 -0.33052000 0.05042600
v 0.11600800 0.03562100 -0.01787800
v 0.11859012 0.01818177 -0.02231919
v 0.11419700 0.03413100 -0.03575500
v 0.14865400 -0.46909000 -0.01697100
v 0.14705000 -0.46908400 -0.03394200
v -0.07262800 -0.46706700 0.06015400
v -0.03570800 -0.46707500 0.06154300
v -0.07339500 -0.46807900 0.07156700
v 0.13679600 0.13496000 -0.05379900
v 0.14399300 0.13062000 -0.03891400
v 0.07121800 0.00444500 -0.08000400
v -0.12163800 -0.19253825 0.00000000
v -0.12163800 -0.14414800 0.00000000
v -0.14457050 0.19231450 0.02281950
v -0.14760300 0.15836300 0.02283200
v -0.08821400 -0.45305000 0.01896300
v -0.02084400 0.31483000 0.06749400
v 0.07848800 -0.25429950 0.07969800
v 0.08189500 -0.21841000 0.07955400
v 0.11342500 0.10022800 0.07458500
v 0.11441608 0.08765911 0.07353543
v 0.07508100 -0.29018900 0.07984200
v 0.07541000 -0.31985700 0.07982500
v 0.00065000 -0.46808700 -0.07436800
v 0.00121300 -0.46708300 -0.06293200
v -0.03137300 -0.45090300 -0.01768400
v 0.08292900 0.07357500 0.07930300
v -0.09908100 -0.45386400 -0.04382200
v -0.09500400 0.35762400 0.00000000
v -0.09695500 0.35875100 0.00000000
v -0.10018600 0.36060500 -0.01055100
v -0.13594800 0.06658800 0.00000000
v -0.12163800 0.04941200 0.00000000
v -0.12308000 -0.46907600 -0.07040600
v -0.10185500 -0.46908700 -0.07843500
v 0.11342500 0.10022800 -0.07458500
v 0.08292900 0.07357500 -0.07930400
v 0.09234900 0.10831400 -0.07872000
v 0.12288900 -0.27819633 0.03475500
v 0.11227400 -0.27059300 0.07501000
v 0.11564000 -0.18633767 0.07402767
v 0.05407650 0.22143350 0.02837250
v 0.03158100 0.24390500 0.02814400
v -0.00751300 -0.34263600 0.08177000
v -0.14218900 0.15854000 0.04503400
v -0.06819900 -0.45229500 0.03355200
v -0.07085400 -0.45254200 0.04896800
v -0.07174100 -0.45980500 0.05456100
v 0.08191800 -0.17292150 -0.07952900
v 0.03078252 -0.08715833 -0.08339811
v -0.01276200 -0.08155833 -0.07754167
v 0.01395484 -0.05745316 -0.08297753
v 0.12887200 0.05014100 0.04119900
v 0.11419700 0.03413100 0.03575500
v -0.02503436 0.42582061 -0.03434411
v -0.03243883 0.42107997 -0.03080020
v -0.02017932 0.43422690 -0.03020730
v 0.08861300 -0.46807600 0.07027800
v 0.14190200 -0.46908100 -0.05007600
v 0.11008100 -0.46658500 -0.04649500
v 0.03292400 -0.32371500 -0.07877400
v 0.03721600 -0.35018800 -0.08411800
v -0.00751300 -0.34263600 -0.08177100
v -0.12358500 -0.46688500 0.03315000
v 0.13206800 -0.46906100 -0.06406200
v 0.14707650 -0.44064000 -0.03416750
v 0.14710300 -0.41219600 -0.03439300
v 0.00008600 -0.46909100 -0.08580400
v 0.14715600 -0.35530900 -0.03484400
v 0.14712950 -0.38375250 -0.03461850
v 0.14155100 -0.35510100 -0.05161200
v -0.11315464 0.27206371 0.06971054
v -0.10115054 0.29039124 0.07297813
v -0.11695826 0.28519733 0.05569496
v -0.11825300 -0.46058900 0.03134000
v 0.10060400 -0.45362000 0.03521700
v -0.14218900 0.15854000 -0.04503500
v -0.14193069 0.12752348 -0.05449194
v -0.14818550 0.13167900 -0.02269650
v 0.14410000 0.11177500 0.04185700
v 0.14656500 0.12902900 0.01945700
v -0.11861286 -0.24147957 -0.02824486
v 0.00008600 -0.46909100 0.08580300
v -0.14876800 0.10499500 -0.02256100
v -0.14841100 0.08670100 -0.02813700
v 0.11562900 -0.22465600 0.07402900
v -0.01887300 0.09898800 0.07715200
v -0.02314000 0.13353400 0.07679100
v -0.11861329 -0.19353986 -0.02828329
v -0.02983537 -0.40036046 0.09006567
v -0.03621639 -0.39642309 0.08944587
v -0.07525400 -0.40488200 0.08296400
v -0.05351720 0.20860288 0.08896850
v -0.06934635 0.19519105 0.09169360
v -0.04638500 0.16295300 0.08330600
v -0.04312700 -0.33058500 0.07312500
v -0.04229400 -0.36418900 0.08418800
v 0.03382900 0.24503000 -0.01407200
v 0.05407650 0.22143350 -0.02837250
v 0.15025900 0.06955000 0.00000000
v -0.01847600 -0.01228900 0.07716600
v -0.04678799 -0.04467332 0.07606345
v -0.05039071 -0.01342184 0.07511625
v 0.04436435 0.01211216 -0.08216955
v 0.07351000 0.03883500 -0.07988900
v -0.07639550 -0.28875575 0.06862975
v -0.10637800 -0.33611800 0.05301900
v -0.11877800 0.05457600 -0.02793400
v -0.07845200 0.10632600 -0.06815700
v -0.08346300 0.07713600 -0.06649500
v 0.12687900 -0.10173200 -0.03415700
v -0.13388700 0.15446100 0.06056000
v -0.14402028 0.12954790 0.05127019
v -0.12598900 0.11590800 0.06889200
v 0.13277800 0.14232000 -0.03398600
v 0.14155100 -0.35510100 0.05161200
v 0.11781800 0.03711000 0.00000000
v -0.01561900 -0.04692366 -0.07735433
v -0.07262800 -0.46706700 -0.06015400
v -0.06534100 -0.45196200 -0.00906900
v -0.06513900 -0.45187600 0.00000000
v -0.07520925 -0.10939075 0.06903650
v -0.11861414 -0.09766042 -0.02836014
v -0.02314000 0.13353400 -0.07679200
v -0.01887300 0.09898800 -0.07715200
v -0.06060700 0.11997800 -0.07234400
v 0.03886380 -0.02753158 0.08274802
v 0.07479233 -0.03951433 0.07983633
v 0.12696850 -0.27717300 0.00000000
v -0.05389300 0.41314300 0.00000000
v -0.02788200 0.44111900 0.00000000
v 0.06212882 -0.44804320 -0.01922406
v 0.12307800 -0.32389000 -0.03522500
v 0.12030900 -0.31580300 -0.03479500
v 0.11303400 -0.45404600 -0.01083800
v -0.14576800 -0.42568100 0.03952600
v -0.15025900 -0.42616400 0.00000000
v -0.14933500 0.08523200 -0.01406800
v 0.03783126 -0.22743488 0.08300087
v 0.03710701 -0.22644319 0.08305202
v 0.03601005 -0.22783940 0.08298838
v -0.03137300 -0.45090300 0.01768300
v 0.00279800 -0.44975900 0.01723000
v -0.04312700 -0.33058500 -0.07312500
v 0.00121300 -0.46708300 0.06293200
v -0.00951004 -0.45554268 0.05537312
v 0.05406416 -0.27694363 -0.08216928
v 0.05001322 -0.30089525 -0.08262874
v 0.03806389 -0.27761980 -0.08214770
v 0.04714000 0.44079800 0.00000000
v 0.04546900 0.44183300 0.00945100
v 0.06043300 0.43319300 0.00686100
v 0.07989600 -0.34267600 -0.08241800
v 0.08616900 -0.37084500 -0.08164800
v -0.11450600 -0.45423600 -0.01476500
v -0.11292200 -0.45429300 -0.02952900
v -0.13451591 0.18967429 0.05732448
v 0.08420500 -0.46001300 0.05347400
v 0.08635300 -0.46706200 0.05977500
v 0.04547900 -0.46909000 0.08329200
v -0.08762324 0.20387856 0.08737965
v -0.14760300 0.15836300 -0.02283200
v -0.14839600 0.15812400 -0.01141600
v 0.11566200 -0.10970100 0.07402500
v 0.12687900 -0.10173200 0.03415600
v 0.01811700 0.27929700 0.00000000
v 0.01844900 0.26805200 0.00000000
v 0.14967500 0.11004800 0.00000000
v 0.14737658 0.10361451 -0.02635027
v 0.14656500 0.12902900 -0.01945700
v -0.05434432 0.07829382 0.07430295
v 0.14410000 0.11177500 -0.04185800
v -0.11877800 0.05457600 0.02793400
v -0.12020800 0.05199400 0.01396700
v 0.03585171 -0.22480882 0.08301318
v 0.03776670 -0.22503501 0.08302226
v 0.02324377 -0.18323787 0.08339880
v 0.03941733 -0.19066848 0.08341415
v -0.01036675 -0.16047400 0.07769000
v -0.07790800 -0.35213700 -0.07554300
v -0.07669200 -0.33359700 -0.06852800
v 0.03562243 -0.22650007 0.08298249
v 0.02194391 -0.19909326 0.08312826
v 0.13495400 -0.46790600 0.03068700
v 0.12668134 -0.40766672 0.07330109
v 0.13496440 -0.40583953 0.06233689
v 0.13370239 -0.39302345 0.06674518
v -0.07609900 -0.24391450 -0.06873150
v 0.11023700 0.10953900 -0.07568700
v 0.12854100 0.10001500 -0.06648700
v 0.00990737 -0.00252019 -0.08175015
v 0.00538214 -0.00890720 -0.08146713
v -0.01847600 -0.01228900 -0.07716700
v 0.11326600 -0.33401100 -0.07526000
v 0.12021100 -0.34364000 -0.07237300
v -0.04067683 -0.08290997 -0.07689404
v 0.14710300 -0.41219600 0.03439200
v 0.14707650 -0.44064000 0.03416650
v 0.15025900 -0.44047450 0.00000000
v -0.07554268 0.20030347 -0.09134879
v -0.07676594 0.19772955 -0.09044397
v 0.13277800 0.14232000 0.03398600
v 0.12365400 0.15301000 0.01452900
v 0.00200600 -0.45899300 0.05733100
v 0.12765900 -0.16923267 -0.03450433
v 0.12726900 -0.13548233 -0.03433067
v 0.02454737 0.09198954 -0.08197809
v 0.09906700 0.17649050 0.02882950
v 0.07657200 0.19896200 0.02860100
v 0.01475400 0.26353800 -0.02887800
v 0.09441100 0.11749800 -0.07929800
v 0.09010400 -0.41178500 0.08098200
v -0.10019666 -0.00639679 -0.05623910
v -0.11861500 -0.00178100 -0.02843700
v -0.10132819 0.00048866 -0.05391508
v 0.06378200 -0.46722500 -0.06293000
v 0.04547900 -0.46909000 -0.08329300
v 0.12015914 -0.37400537 0.07622392
v 0.11978802 -0.39402067 0.07728476
v 0.12542727 -0.38737180 0.07510696
v 0.01475400 0.26353800 0.02887800
v 0.01614000 0.29345400 0.00000000
v 0.02232700 0.28988200 0.00000000
v 0.02242250 0.32273350 0.00000000
v -0.11861457 -0.04972071 0.02839857
v 0.14422700 0.08686900 -0.04560100
v -0.14153800 0.22626600 -0.02280700
v -0.13401520 0.20110184 -0.05524166
v -0.14457050 0.19231450 -0.02281950
v 0.10891900 -0.31653000 0.07599100
v 0.14827200 0.09166600 0.02856800
v 0.02840182 0.01341497 0.08170701
v -0.01910350 0.01422200 -0.07712550
v -0.03959407 0.40617508 -0.03594325
v -0.04912027 0.39254024 -0.03528402
v 0.01268900 0.27612100 -0.02752700
v 0.01268900 0.27612100 0.02752700
v 0.01980300 0.29135400 0.01362600
v -0.07174100 -0.45980500 -0.05456200
v -0.07416200 -0.46909100 -0.08298100
v 0.02730260 0.45058558 0.00044894
v 0.03257000 0.44921000 0.00000000
v 0.01534900 0.45915300 0.00000000
v 0.07638600 -0.45245700 -0.00883600
v -0.04517905 -0.30029739 -0.07582748
v -0.07639550 -0.28875575 -0.06862975
v 0.09048800 -0.44043700 0.08088150
v -0.12163800 -0.04736800 0.00000000
v 0.06346010 -0.11029424 0.08182512
v 0.07836667 -0.08347367 0.07966967
v 0.05157967 -0.10638578 0.08268387
v 0.12329227 -0.36249244 -0.07340164
v 0.01731700 0.23372700 0.05980400
v -0.03201300 0.24851000 0.07789900
v 0.00226800 0.21901200 0.07904200
v 0.10332800 0.17553950 0.00000000
v 0.10760800 0.03179600 0.06590100
v 0.11461400 -0.31616700 -0.05539300
v 0.12288900 -0.27819634 -0.03475600
v 0.08328700 0.16650600 -0.07515750
v 0.11046800 0.15772800 -0.05242700
v 0.10750700 0.15184900 -0.07216500
v -0.14361100 0.22606200 0.00000000
v -0.11861500 -0.00178100 0.02843700
v 0.14715600 -0.35530900 0.03484300
v 0.13650100 -0.34364300 0.03524900
v -0.09864449 0.05432717 0.05870191
v -0.00374122 0.44851059 0.02703008
v 0.01326600 0.42523300 0.04404400
v 0.01907300 0.45712600 0.03405500
v 0.12726900 -0.13548233 0.03432967
v -0.12163800 0.00102200 0.00000000
v -0.01082850 -0.20475500 0.07765200
v 0.13502700 0.06436600 0.06079900
v 0.08328700 0.16650600 0.07515700
v 0.11842433 -0.01115667 -0.03522233
v -0.07461575 -0.01970825 0.06923950
v -0.07431900 0.02513300 0.06934100
v -0.02084400 0.31483000 -0.06749400
v 0.14909405 0.09150375 0.00986828
v 0.13036900 -0.19330000 0.00000000
v -0.07456545 0.31596871 -0.07515727
v -0.05063000 0.29408900 -0.07440700
v -0.08227024 0.31339296 -0.07360915
v 0.03249750 -0.46715400 0.06293100
v 0.00065000 -0.46808700 0.07436800
v -0.13361181 0.19095929 0.05821715
v -0.00546400 -0.35770000 -0.08581800
v 0.05906700 0.18116300 -0.07815000
v -0.00034600 -0.39753000 -0.08586000
v 0.12804900 -0.20298300 -0.03467800
v -0.07518000 0.06065400 -0.06910800
v 0.03721600 -0.35018800 0.08411800
v 0.13744100 0.13972000 0.00000000
v 0.14399300 0.13062000 0.03891400
v 0.08562802 0.18092438 0.05142641
v -0.12738200 -0.37904800 -0.06777300
v 0.05339575 -0.37773208 0.08962771
v 0.05376933 -0.37904758 0.08969447
v 0.07989600 -0.34267600 0.08241800
v 0.01208559 -0.23380936 0.08208712
v 0.12202900 -0.31647000 0.01739700
v -0.07491250 -0.06454950 -0.06913850
v -0.10324314 -0.03912116 -0.05534346
v -0.07461575 -0.01970825 -0.06924025
v 0.01728000 0.29282600 0.02725300
v 0.02688900 0.03978400 -0.07848700
v 0.01997425 -0.00205024 -0.08185723
v -0.00220300 0.39891500 -0.05183200
v -0.03201300 0.24851000 -0.07789900
v -0.13656200 0.25137900 -0.02279550
v -0.07912400 -0.37067800 -0.08255800
v -0.10701700 -0.37552400 -0.07731900
v 0.11566200 -0.10970100 -0.07402500
v 0.04729200 0.44082600 -0.03044700
v 0.02873500 0.45155100 -0.03625800
v 0.03025900 0.45060800 -0.02072000
v -0.12547300 -0.46698800 0.01657500
v -0.11450600 -0.45423600 0.01476500
v -0.10340319 0.19526864 0.08531590
v -0.14798700 -0.46908700 0.01973900
v 0.00734214 0.26484401 0.04886900
v -0.10715200 0.13602300 -0.07668800
v 0.04729200 0.44082600 0.03044700
v 0.02873500 0.45155100 0.03625700
v 0.03158100 0.24390500 -0.02814400
v 0.12584700 -0.33197800 -0.03565500
v 0.02769273 -0.24516707 -0.08267190
v 0.02953544 -0.24277638 -0.08282312
v -0.01930200 0.06986050 0.07711750
v 0.09338000 0.11290600 -0.07900900
v 0.07836667 -0.08347367 -0.07967067
v 0.05151430 -0.05594678 -0.08259661
v 0.07479233 -0.03951433 -0.07983733
v -0.10715200 0.13602300 0.07668700
v -0.08962800 0.35451700 -0.04149400
v 0.13208400 -0.35200700 -0.06421900
v 0.12188900 -0.33052000 -0.05042600
v -0.07845200 0.10632600 0.06815700
v 0.04111800 0.37594700 -0.01897650
v 0.05051800 0.40117300 -0.01687700
v 0.04834250 0.39038950 0.00000000
v 0.14865400 -0.46909000 0.01697100
v -0.13907900 -0.38105300 -0.05532900
v -0.05995300 0.33740400 -0.05538500
v -0.05849800 0.33656300 -0.06746900
v -0.06554300 -0.45204800 0.01813600
v -0.13388700 0.15446100 -0.06056000
v -0.12598900 0.11590800 -0.06889200
v 0.04661967 0.08396821 0.08187160
v 0.04780158 0.06800946 0.08211820
v 0.12785000 0.09416000 -0.06758200
v 0.13968300 0.09497000 -0.05491500
v 0.13939000 0.08912700 -0.05568800
v -0.13624600 -0.46907000 -0.05926800
v 0.10750700 0.15184900 0.07216400
v 0.11046800 0.15772800 0.05242600
v -0.00049056 0.27690270 -0.05374870
v 0.01032100 0.29683300 -0.04160100
v -0.14777820 0.17547318 -0.00933567
v -0.05212304 0.08747796 -0.07469287
v 0.00724200 0.46395400 -0.02513100
v 0.00176600 0.46710500 -0.01612800
v 0.00811901 0.28152452 0.03850548
v 0.03064579 -0.06033885 -0.08279812
v 0.03975404 -0.08859395 -0.08329908
v -0.07609227 0.19546569 -0.09102592
v -0.08195678 0.19524616 -0.08960269
v -0.01175200 -0.29331700 -0.07757600
v 0.12642533 -0.05795134 0.00000000
v 0.12265167 -0.05644434 0.03468900
v -0.12816350 0.29552200 0.00000000
v -0.11715300 0.32064800 0.02256100
v -0.02367100 0.16054100 0.08375700
v -0.01827200 0.19305200 0.08152300
v 0.05377000 -0.45192400 -0.05218500
v 0.13206800 -0.46906100 0.06406200
v 0.14190200 -0.46908100 0.05007600
v 0.04014342 -0.16658567 0.08350278
v 0.00386750 0.15215000 -0.08370900
v -0.02340500 0.14703700 -0.08027500
v 0.01877400 0.32506700 -0.02179900
v -0.00031366 0.33173174 -0.04339311
v 0.10964800 0.04899000 0.07545900
v 0.06043300 0.43319300 -0.00686100
v 0.06171000 0.43238600 0.00000000
v 0.05467496 0.42260356 -0.00204250
v -0.00546400 -0.35770000 0.08581800
v -0.10160400 0.36143500 0.00000000
v -0.09927900 0.36009300 0.00000000
v -0.05216366 -0.22490018 0.07452372
v -0.04778065 -0.22905161 0.07521419
v -0.04668199 -0.22437409 0.07539908
v -0.09367200 0.09020000 -0.06209600
v -0.10324216 -0.03180755 0.05434939
v 0.12156200 0.15401900 0.02905800
v 0.14913700 0.12743900 0.00000000
v 0.11565100 -0.14801933 0.07402633
v 0.12307800 -0.32389000 0.03522400
v 0.12030900 -0.31580300 0.03479400
v 0.12707700 -0.33143100 0.00000000
v -0.14576800 -0.42568100 -0.03952700
v -0.14571600 -0.46907900 -0.03947700
v 0.15025900 0.07670500 0.00000000
v -0.07558921 0.31648214 0.07403596
v -0.08660110 0.30964008 0.07171464
v 0.11565100 -0.14801933 -0.07402633
v -0.13683025 0.18953465 -0.05183721
v -0.12075941 0.19079058 -0.07142431
v 0.15025900 -0.41185400 0.00000000
v 0.05029824 -0.42878413 0.08947909
v 0.14420700 0.09293100 -0.04480200
v 0.14421700 0.08990000 -0.04520200
v -0.04336519 -0.27101003 0.07570134
v -0.04629554 -0.24078490 0.07516062
v 0.12202900 -0.31647000 -0.01739700
v 0.12374800 -0.31713700 0.00000000
v 0.05915500 0.43400100 -0.01372200
v 0.13575971 -0.44082295 -0.05490922
v -0.04039200 0.32610100 -0.05917700
v 0.02306002 0.08470296 -0.08152990
v -0.10080648 0.33050314 0.04967081
v -0.10366914 0.32497852 0.04769009
v -0.01129025 -0.24903600 0.07761400
v 0.01555987 -0.24638164 0.08213649
v 0.05051800 0.40117300 0.01687700
v 0.04111800 0.37594700 0.01897650
v 0.12848890 0.12218273 -0.06328143
v 0.01314052 -0.01457719 -0.08194715
v 0.03066750 0.20008750 -0.07859650
v 0.11002500 -0.45391600 0.02167500
v -0.10298766 -0.17515228 0.05561269
v 0.11164633 -0.06206000 0.07504667
v -0.14065200 0.09741600 0.05327100
v -0.00013000 -0.43331050 0.08583150
v 0.14705000 -0.46908400 0.03394100
v -0.06534100 -0.45196200 0.00906800
v -0.10391703 -0.27611948 0.05357852
v -0.10512023 -0.28896797 0.05176688
v -0.07790800 -0.35213700 0.07554300
v 0.12804900 -0.20298300 0.03467700
v -0.10185500 -0.46908700 0.07843500
v -0.10085102 -0.44086275 0.07726695
v -0.11814923 -0.44093392 0.07241349
v -0.13594800 -0.36047100 0.00000000
v -0.01973100 0.04073300 0.07708300
v 0.14354600 0.06615000 0.04664300
v 0.14690200 0.06785000 0.02332100
v 0.12021100 -0.34364000 0.07237300
v 0.13208400 -0.35200700 0.06421900
v -0.10983000 0.10305400 0.06549400
v -0.05915944 -0.45776226 0.05909099
v 0.08191800 -0.17292150 0.07952850
v 0.08194100 -0.12743300 0.07950300
v -0.10390423 -0.13113439 -0.05512436
v -0.07520925 -0.10939075 -0.06903675
v -0.07550600 -0.15423200 -0.06893500
v -0.11723764 -0.41636159 -0.08074411
v -0.12163800 -0.33770900 0.00000000
v -0.01082850 -0.20475500 -0.07765250
v 0.03897334 -0.21042006 -0.08343156
v 0.03876727 -0.21135312 -0.08341091
v -0.11657000 0.12596500 0.07278900
v 0.10361500 0.03322200 0.07709000
v -0.01276200 -0.08155834 0.07754067
v 0.01815153 -0.07487777 0.08282673
v -0.01561900 -0.04692367 0.07735333
v -0.07580250 -0.19907325 0.06883325
v -0.06554300 -0.45204800 -0.01813700
v -0.02243629 0.41609426 -0.04084572
v -0.00220300 0.39891500 0.05183100
v 0.12365400 0.15301000 -0.01452900
v 0.12574500 0.15200100 0.00000000
v 0.12765900 -0.16923267 0.03450333
v 0.12984900 0.13885400 0.06094800
v 0.10095900 0.13467300 0.07573000
v 0.11023700 0.10953900 0.07568700
v -0.00990500 -0.11619300 -0.07772900
v -0.10211230 0.29967929 -0.07203962
v -0.09789947 0.32038820 -0.06465810
v -0.07491250 -0.06454950 0.06913800
v -0.07248078 0.19834034 -0.09100802
v -0.04000632 0.21298964 -0.08781981
v -0.04406924 0.19783147 -0.08805717
v -0.12379762 -0.42268766 -0.07468814
v 0.12156200 0.15401900 -0.02905800
v 0.07541000 -0.31985700 -0.07982500
v -0.12172600 -0.46063500 0.00000000
v 0.03960237 -0.21147806 -0.08345626
v 0.11109200 -0.32527100 -0.07562500
v 0.13320512 -0.40763506 -0.06846063
v 0.13545262 -0.39755625 -0.06549219
v -0.11861414 -0.09766042 0.02836014
v 0.09622160 0.10255264 0.07881499
v 0.09234900 0.10831400 0.07871900
v -0.11861371 -0.14560013 -0.02832171
v -0.04764000 0.27219800 0.07616900
v 0.05267293 -0.12704661 0.08273357
v 0.04417394 -0.14642126 0.08384095
v -0.10498778 -0.21735583 -0.05222490
v -0.07580250 -0.19907325 -0.06883325
v -0.11592596 0.29894952 0.04803610
v 0.04220086 -0.15864445 -0.08363756
v 0.04645606 -0.16399235 -0.08368025
v 0.04039157 -0.16861858 -0.08346673
v -0.11861457 -0.04972071 -0.02839857
v 0.08856200 0.03602800 -0.07849000
v 0.10361500 0.03322200 -0.07709000
v 0.01907300 0.45712600 -0.03405500
v -0.14153800 0.22626600 0.02280700
v 0.03497500 0.34839300 0.00000000
v -0.12909071 0.23672640 0.05237906
v -0.11711409 0.25715223 0.07013231
v -0.12263675 0.26982221 0.05314329
v -0.05063000 0.29408900 0.07440700
v -0.10466893 -0.19522210 0.05350282
v -0.09758298 0.26780019 0.07795843
v -0.08582403 0.27789589 0.08228285
v -0.04213255 -0.22023232 -0.07602853
v -0.04164160 -0.22257391 -0.07610093
v -0.00013000 -0.43331050 -0.08583200
v -0.03246866 -0.40162043 -0.09048864
v 0.13679600 0.13496000 0.05379900
v -0.11465391 0.24174058 0.07578590
v -0.12629264 0.22441941 0.05827474
v -0.10017814 0.22854072 0.08838226
v -0.13066431 0.23083549 0.05084679
v 0.03892491 -0.02201838 0.08273483
v -0.01910350 0.01422200 0.07712450
v 0.05368581 -0.33001779 -0.08447395
v 0.07765300 -0.33126600 -0.08112200
v 0.03178300 0.44966500 0.00518100
v 0.02063158 0.45385741 0.00448295
v -0.04246757 -0.28115736 -0.07570775
v -0.11861243 -0.28941928 -0.02820643
v -0.10520294 -0.26319206 -0.05139029
v -0.10514674 -0.26379474 -0.05154757
v -0.11614834 0.08797296 0.05600568
v 0.03171800 0.35072100 0.02107600
v -0.12308000 -0.46907600 0.07040500
v -0.03954036 -0.17248031 0.07715367
v -0.04557206 -0.13569383 0.07705728
v -0.07550600 -0.15423200 0.06893500
v -0.12020800 0.05199400 -0.01396700
v -0.13359400 0.07063900 -0.02803500
v 0.03066750 0.20008750 0.07859600
v 0.03140600 0.14375900 0.08365900
v 0.02146758 -0.27283711 -0.08222900
v -0.13035263 0.22341107 -0.05577506
v -0.09876900 0.35977600 0.02110200
v -0.08962800 0.35451700 0.04149400
v -0.08628800 0.35259200 0.02992800
v -0.13158600 0.27649200 -0.02278400
v -0.07669200 -0.33359700 0.06852800
v -0.11469265 -0.44777683 -0.07302671
v -0.02129750 0.36250800 0.05550350
v 0.05245073 -0.15045850 0.08330092
v 0.10891900 -0.31653000 -0.07599100
v 0.14428712 0.08853492 0.04282738
v 0.14421700 0.08990000 0.04520100
v -0.09747339 0.32946035 0.05489340
v -0.06667975 0.21772438 0.08901342
v -0.09459609 0.23639860 0.08958651
v 0.00386750 0.15215000 0.08370800
v -0.02340500 0.14703700 0.08027400
v 0.04048744 -0.09960647 -0.08348060
v 0.04719352 0.02529447 0.08239678
v 0.05255217 -0.37952338 0.08976606
v -0.00034600 -0.39753000 0.08586000
v 0.03966138 -0.41497942 0.09228314
v 0.04506659 -0.39796701 -0.09190973
v 0.03672064 -0.38673212 -0.09181779
v 0.05207554 -0.39368857 -0.09159892
v 0.03541413 -0.41501341 -0.09049373
v 0.03234805 -0.42662487 -0.09047691
v -0.11547750 0.20977485 0.07929621
v 0.13650100 -0.34364300 -0.03525000
v -0.11657000 0.12596500 -0.07279000
v 0.05588478 0.20500827 -0.05557343
v 0.03438449 -0.09731626 -0.08384332
v -0.04797492 -0.08287455 -0.07610128
v -0.04282895 -0.08705878 -0.07674534
v -0.11006484 0.29791747 0.06245795
v -0.10374145 -0.19913392 -0.05381109
v 0.13939000 0.08912700 0.05568800
v -0.10130569 0.23953249 0.08474319
v 0.03249750 -0.46715400 -0.06293100
v -0.04927929 -0.00730489 -0.07541023
v -0.04772940 -0.02654094 -0.07562700
v -0.04601904 -0.00419678 0.07562865
v -0.04411596 -0.07682886 -0.07652098
v -0.04470016 -0.04243945 -0.07654405
v -0.04931291 0.21013055 0.08854974
v -0.07912400 -0.37067800 0.08255800
v -0.10701700 -0.37552400 0.07731900
v 0.13881000 -0.46809400 0.00000000
v 0.15025900 -0.46909500 0.00000000
v -0.14571600 -0.46907900 0.03947700
v 0.03625518 -0.02553854 0.08290760
v -0.02617610 -0.39447285 -0.09063160
v -0.04229400 -0.36418900 -0.08418800
v -0.10222991 -0.04884317 0.05587826
v 0.12646200 -0.33170400 -0.01782800
v -0.12163800 -0.09575800 0.00000000
v -0.10352823 -0.13742636 0.05518853
v -0.10296003 -0.13262824 0.05575140
v -0.04226158 -0.09333567 0.07677378
v -0.04231568 -0.08396386 0.07662242
v -0.03812840 -0.27702266 0.07631978
v 0.14712950 -0.38375250 0.03461750
v -0.06060700 0.11997800 0.07234400
v 0.08616900 -0.37084500 0.08164800
v 0.10060400 -0.45362000 -0.03521700
v 0.08420500 -0.46001300 -0.05347400
v 0.03761406 -0.21750402 -0.08330322
v 0.12984900 0.13885400 -0.06094800
v 0.03604415 -0.03156730 0.08291048
v -0.04764000 0.27219800 -0.07617000
v -0.07797251 0.25480388 -0.08883335
v -0.07770518 0.27926020 -0.08469868
v 0.01495581 0.37716670 -0.04413841
v -0.04050990 -0.05511788 0.07727638
v -0.10880559 0.25369083 0.07599873
v -0.10784240 0.18753329 -0.08372742
v -0.04913928 0.39174022 0.03647740
v -0.01036675 -0.16047400 -0.07769075
v -0.05499871 -0.18080212 -0.07513246
v -0.00187100 0.46909500 0.00000000
v -0.05487236 0.37867964 0.03649680
v -0.12010051 0.29728474 -0.04352695
v 0.14431396 0.08932974 -0.04200691
v -0.11745574 0.21712840 -0.07941086
v -0.12025933 0.24342716 -0.06874643
v -0.10227768 0.22693024 -0.08661944
v -0.11292200 -0.45429300 0.02952900
v -0.08425710 0.23282512 -0.09211145
v -0.07260769 0.23812591 -0.09086736
v -0.07525400 -0.40488200 -0.08296400
v -0.13656200 0.25137900 0.02279500
v 0.09010400 -0.41178500 -0.08098200
v -0.10374606 0.01073101 -0.04733666
v -0.09772300 0.35919500 0.00000000
v -0.10829231 -0.41598809 -0.08272401
v -0.02367100 0.16054100 -0.08375800
v 0.11644100 -0.46032100 -0.02455400
v 0.06773882 0.09445858 -0.08110435
v 0.12584700 -0.33197800 0.03565500
v 0.05210029 -0.37861577 0.08971073
v 0.02657936 -0.37292396 0.09134638
v -0.14803900 -0.38275800 0.01978800
v -0.07683800 0.34715000 0.04298300
v -0.04652036 -0.42824779 0.08874540
v -0.07470800 -0.43698650 0.08297250
v 0.00942885 0.25641743 -0.04997699
v 0.02568769 -0.13597181 -0.08414566
v 0.08194100 -0.12743300 -0.07950400
v 0.11000657 -0.44286840 -0.07402182
v 0.09048800 -0.44043700 -0.08088200
v 0.09216400 -0.31819400 0.07790800
v 0.12541300 -0.32428400 0.00000000
v -0.10353941 -0.12634633 -0.05542130
v -0.10290681 -0.08230888 -0.05608527
v 0.06290850 0.13062850 0.08147800
v -0.11609000 -0.45417900 0.00000000
v 0.02353574 -0.05091518 0.08331023
v 0.10095900 0.13467300 -0.07573100
v -0.11265700 0.30373351 -0.05187752
v -0.12012500 -0.33753400 -0.01408400
v -0.01115340 0.42778973 -0.03771889
v 0.00374516 0.06008151 -0.08133418
v -0.07683800 0.34715000 -0.04298300
v 0.12646200 -0.33170400 0.01782800
v 0.03374561 -0.42079505 0.09184454
v -0.04214113 -0.26018744 -0.07601933
v -0.04169068 -0.22389778 -0.07605198
v 0.00226800 0.21901200 -0.07904300
v -0.03921271 -0.17851277 0.07714138
v 0.10760800 0.03179600 -0.06590200
v 0.10964800 0.04899000 -0.07545900
v 0.05003388 -0.16094273 -0.08331652
v 0.12967551 -0.44123982 0.06209237
v 0.11539900 -0.44085358 0.07240205
v -0.04480503 -0.27796120 0.07535145
v -0.04039200 0.32610100 0.05917600
v -0.04004500 0.32589200 0.06497200
v 0.00447901 0.11966169 0.08211090
v 0.09216400 -0.31819400 -0.07790800
v 0.00200600 -0.45899300 -0.05733100
v -0.05359949 0.31963936 -0.07329527
v 0.08635300 -0.46706200 -0.05977600
v -0.10066852 0.32561145 0.05381663
v 0.01139392 0.18033441 0.08429451
v 0.13239891 0.11689882 0.05991578
v -0.11307255 0.19773343 -0.08257567
v 0.14870700 -0.35496000 0.01742200
v -0.01827200 0.19305200 -0.08152300
v -0.00990500 -0.11619300 0.07772800
v 0.00279800 -0.45033100 -0.03448100
v 0.00279900 -0.45090300 -0.05173000
v 0.11760194 -0.08866674 0.06205333
v -0.05010366 0.22176115 -0.08837035
v -0.10929866 -0.21414157 -0.04493702
v 0.01577132 0.35511949 0.03330158
v 0.02032574 0.37183054 0.03734560
v -0.04323654 -0.11390519 -0.07635472
v 0.03437484 0.44638805 -0.00157669
v 0.03474138 0.44625248 0.00244899
v -0.07975940 0.29567162 0.07859126
v -0.09249526 0.24716427 -0.09001216
v 0.04546900 0.44183300 -0.00945200
v -0.12738200 -0.37904800 0.06777300
v 0.11365434 -0.03404370 0.05992082
v 0.07765300 -0.33126600 0.08112200
v -0.08000360 0.36954702 0.03340911
v -0.10031436 0.28505632 -0.07891627
v -0.11249189 0.29350845 -0.05470150
v -0.04230411 -0.22287569 -0.07591665
v 0.14420700 0.09293100 0.04480100
v 0.13968300 0.09497000 0.05491400
v 0.08205700 -0.45296400 -0.04717300
v 0.02249900 0.13222400 0.07921400
v 0.03401084 -0.10634954 -0.08377171
v 0.13866800 -0.34302200 0.00000000
v 0.01877400 0.32506700 0.02179850
v -0.13907900 -0.38105300 0.05532800
v -0.02591700 0.31773600 0.05675900
v 0.04123209 0.42838689 -0.02885226
v 0.01586103 -0.09174894 0.08291591
v -0.10329673 0.33732070 -0.04133472
v -0.09876900 0.35977600 -0.02110300
v 0.11598132 -0.25142162 -0.06288741
v -0.03969656 -0.43591516 0.08818146
v -0.03540681 -0.41385564 0.08936226
v -0.12537302 0.24991730 -0.05848832
v -0.12314020 0.25311368 -0.06254806
v -0.04679051 -0.17567975 -0.07618803
v -0.01304000 0.31030800 0.04921900
v -0.00190600 0.30388100 0.03733800
v -0.10352095 -0.14448310 0.05526010
v 0.04119874 -0.07299223 0.08279654
v 0.05063452 -0.08015145 0.08246294
v 0.04171021 -0.06481458 0.08275385
v -0.13465000 -0.46798200 -0.03631400
v 0.03025900 0.45060800 0.02071900
v 0.10227456 -0.46257624 -0.06153314
v -0.09029746 0.25448087 0.08633201
v 0.00428505 0.35138902 -0.04082813
v 0.04423246 0.10219483 0.08248945
v 0.05742400 0.12026900 0.07896650
v 0.09658100 -0.33834300 0.07883900
v -0.10080816 -0.21637430 0.05657216
v 0.03724127 0.40543301 0.03153818
v -0.14582000 -0.38228200 -0.03957600
v -0.09998035 -0.10677557 0.05849482
v 0.09658100 -0.33834300 -0.07883900
v -0.05363460 0.35733160 0.05415266
v -0.13683178 -0.43089338 0.05793822
v -0.13105969 -0.43975074 0.06267411
v -0.13111996 -0.42652351 0.06720338
v 0.00280200 -0.44947000 0.00861500
v -0.00483031 0.13349798 0.08318768
v -0.05622365 0.08635609 0.07375409
v -0.07917488 0.30520466 -0.07823774
v 0.05915500 0.43400100 0.01372200
v -0.09757645 0.01173982 0.05817212
v -0.09741245 0.01072916 0.05830109
v -0.03292387 0.42060372 0.03293878
v 0.00724200 0.46395400 0.02513000
v 0.00176600 0.46710500 0.01612800
v 0.03655343 -0.43279920 -0.08933448
v 0.04688225 -0.43354386 -0.08853200
v -0.09583493 0.26559673 -0.08686825
v -0.07595291 0.27797120 0.08273531
v -0.07470800 -0.43698650 -0.08297250
v -0.11226423 -0.42660324 -0.08105775
v -0.00951829 0.45217905 0.01774967
v -0.00267787 0.45370679 0.02232864
v 0.05319178 -0.38007559 0.08972533
v 0.04572666 -0.41822319 0.09182434
v 0.00775726 0.06171477 0.08164088
v 0.11156490 0.01197578 -0.05609784
v 0.00330409 0.44696283 -0.02949564
v -0.00938472 0.44907263 -0.02370319
v 0.05175364 0.41857798 0.01285841
v -0.03962236 -0.09546471 0.07710016
v -0.04228018 -0.10194694 0.07669407
v -0.01784580 0.28649603 0.06649148
v -0.14582000 -0.38228200 0.03957500
v 0.13252509 -0.33473204 0.00997663
v 0.02128884 -0.13057308 0.08279727
v 0.01786682 -0.12750278 0.08266290
v 0.01797680 -0.13367620 0.08275274
v 0.05286695 -0.06601184 0.08201700
v 0.04900630 -0.05970105 0.08235534
v -0.05995300 0.33740400 0.05538500
v 0.13975724 -0.43904627 0.04874085
v 0.12181400 0.05975700 -0.07084200
v -0.04351300 -0.42700159 -0.08946558
v 0.00949062 0.10144502 0.08119646
v 0.05470048 0.42482854 0.00468261
v -0.10114115 -0.17430978 -0.05775674
v -0.05617468 0.37764115 -0.03584903
v -0.04421058 -0.14447225 -0.07614372
v 0.01920698 -0.44811999 0.07932416
v 0.07170558 -0.44620902 0.08003957
v 0.02630565 -0.24206496 -0.08257023
v 0.02819684 0.09049618 -0.08195540
v 0.03276682 0.08283331 -0.08176955
v -0.01613965 0.44137675 0.02667926
v -0.09614641 -0.44547443 -0.07713953
v -0.13624600 -0.46907000 0.05926700
v -0.05294905 0.35705822 -0.05101301
v -0.11402403 -0.42263869 0.08198645
v 0.06704680 0.09390057 -0.08115153
v 0.09338000 0.11290600 0.07900800
v 0.00644769 0.08229069 0.08131487
v -0.06814917 0.24576030 0.08807833
v -0.07643993 0.26903575 0.08378826
v -0.10196748 -0.39886036 0.08498491
v -0.10159947 -0.41177711 0.08576046
v -0.09018720 -0.03918186 0.06371996
v -0.09717984 -0.23146518 0.05981591
v -0.08783752 -0.22125426 0.06497117
v 0.09441100 0.11749800 0.07929700
v -0.05080573 0.20833613 0.08883693
v 0.03618200 -0.03348469 -0.08245312
v 0.03605343 -0.02723090 -0.08245555
v 0.04141470 -0.01976431 -0.08242000
v 0.02205204 -0.06182516 0.08336279
v 0.12377309 -0.39687881 -0.07598782
v 0.12864346 -0.38604700 -0.07329780
v -0.03971552 -0.13327718 -0.07694158
v -0.04842651 -0.43730649 0.08745382
v 0.02828450 -0.45141350 -0.05195750
v 0.02610334 0.45140576 -0.00357836
v 0.02323102 0.45297422 -0.01108498
v 0.02119145 0.45399340 -0.00426616
v -0.05624803 -0.19018036 -0.07466276
v -0.04410625 -0.18425278 -0.07642305
v -0.15025900 -0.38323400 0.00000000
v -0.14803900 -0.38275800 -0.01978800
v -0.06052102 0.31848001 -0.07339488
v 0.05605166 -0.19789857 0.08203595
v 0.13184800 -0.39898168 -0.07172345
v -0.09747204 0.00854071 0.05831082
v 0.02900596 0.09575364 0.08140270
v -0.03904081 -0.09035212 0.07709928
v 0.04366954 -0.03137226 -0.08237473
v -0.07713129 0.36835372 -0.02648612
v 0.02434836 -0.13626574 0.08280614
v 0.04030388 -0.21174195 -0.08341502
v -0.04402042 -0.20533024 0.07578992
v 0.06423179 0.10439867 0.08201145
v 0.06692888 0.09275889 -0.08114116
v 0.06765496 0.09366622 -0.08111466
v -0.00053771 0.27530135 -0.05454960
v -0.00062911 0.27615035 -0.05420171
v -0.00113553 0.27633292 -0.05473094
v -0.09926295 0.33345896 -0.05104446
v -0.11005007 0.31749225 -0.04493014
v 0.04841253 -0.16751429 -0.08352439
v -0.13221476 0.22580930 0.04860312
v -0.13462082 0.19046391 0.05681689
v -0.10267313 -0.06983184 -0.05602685
v 0.01585821 -0.03894326 -0.08293107
v 0.02483293 0.10917866 0.08239727
v 0.03640021 -0.42905884 0.09019136
v -0.05463428 -0.30352563 0.07515758
v 0.12339066 -0.43998891 -0.06619071
v -0.15025711 -0.40065419 -0.01926310
v -0.13263313 -0.42871429 -0.06385165
v -0.12820743 -0.44354591 -0.06545416
v -0.12207450 0.27003422 -0.05550517
v -0.11849184 0.26290339 -0.06569066
v 0.04934593 -0.38263159 -0.09167821
v 0.04448698 -0.02525904 -0.08235071
v -0.10360998 -0.09170347 0.05453397
v 0.06852588 0.09438734 -0.08101828
v -0.04077271 -0.22273994 -0.07619100
v 0.03010435 0.06791912 0.08191849
v 0.01731291 -0.18514639 -0.08363647
v -0.12299123 0.25671371 -0.06155061
v -0.12480795 0.25731077 -0.05630158
v 0.02475101 -0.37874025 -0.09109463
v 0.03217600 0.44943700 -0.00259100
v -0.12274176 -0.45275462 -0.06750781
v -0.07074824 0.36496907 -0.04702852
v -0.02570106 0.28500579 -0.07122965
v 0.03386349 0.44659812 -0.00409401
v -0.04282864 -0.13059206 -0.07648438
v -0.13465000 -0.46798200 0.03631400
v -0.10341765 -0.13552916 -0.05559838
v 0.11002500 -0.45391600 -0.02167500
v -0.04235796 -0.13365367 -0.07657000
v 0.12565985 -0.41035568 -0.07424486
v -0.10791888 -0.07195387 0.05002572
v -0.12061671 -0.40480253 0.07940402
v 0.03217600 0.44943700 0.00259000
v -0.11469713 0.18742434 -0.08039827
v 0.02651998 0.39287644 0.03772765
v 0.00517891 0.33371965 0.04089815
v 0.00419962 0.24870366 -0.06120493
v 0.01549893 -0.45105798 -0.07926238
v -0.05152433 -0.44174304 -0.08211243
v -0.03054976 -0.43841403 -0.08350141
v -0.13545100 0.27093800 0.00000000
v 0.03025920 -0.09957431 0.08353102
v 0.04575779 0.21591651 0.05255669
v 0.04977083 0.20985990 0.05491368
v -0.01304000 0.31030800 -0.04921900
v -0.00190600 0.30388100 -0.03733800
v -0.13963933 -0.44804200 -0.01989697
v 0.02674333 -0.29385066 -0.08116368
v -0.14112042 -0.45160943 0.02162324
v -0.13260604 -0.44484395 -0.05396970
v -0.00084851 0.27683738 -0.05436794
v -0.08628800 0.35259200 -0.02992800
v 0.03178300 0.44966500 -0.00518200
v 0.04080072 -0.42739382 -0.09032945
v 0.04582617 -0.42304120 -0.09019137
v 0.07260580 -0.44871302 -0.07879766
v -0.10395554 -0.30621511 -0.05174432
v 0.12854100 0.10001500 0.06648600
v 0.00003663 0.32384139 -0.03892238
v 0.05126573 0.06085357 -0.08261736
v -0.11567892 0.25531092 -0.06981276
v 0.04001309 -0.21081886 -0.08343871
v -0.00601860 0.45627639 -0.01439770
v -0.13489464 -0.44323283 0.05544191
v 0.01811957 0.45424521 -0.01163316
v -0.00020180 0.32434477 0.04168471
v -0.10500818 -0.26325748 -0.05169223
v 0.01574261 -0.29456010 -0.08101069
v -0.10499965 -0.26262349 -0.05172289
v -0.05327789 0.21439445 0.08853724
v -0.09732879 -0.30919173 -0.05855126
v 0.01544762 -0.30148047 -0.08125645
v -0.10470694 -0.26317540 -0.05190155
v -0.09975284 -0.25362922 0.05790223
v 0.01785911 -0.13853195 0.08271228
v -0.06214333 -0.45179540 0.07695482
f 1 2 3
f 5 6 7
f 8 9 10
f 11 12 13
f 14 15 16
f 14 17 15
f 18 17 19
f 27 28 29
f 30 31 32
f 33 34 35
f 40 41 42
f 48 49 30
f 52 53 4
f 54 55 56
f 57 58 59
f 60 61 62
f 64 65 66
f 67 68 69
f 70 71 60
f 72 73 74
f 68 67 75
f 76 77 35
f 78 79 80
f 81 82 83
f 84 85 86
f 87 88 89
f 90 91 73
f 80 92 93
f 72 96 97
f 98 99 100
f 102 103 104
f 108 109 110
f 111 112 113
f 114 65 115
f 116 117 118
f 119 120 121
f 122 123 124
f 127 128 129
f 130 131 132
f 139 140 141
f 113 144 145
f 146 147 148
f 154 155 156
f 97 73 72
f 112 158 113
f 160 161 162
f 61 60 71
f 163 164 165
f 18 166 167
f 168 169 170
f 173 154 156
f 174 175 176
f 178 180 179
f 171 135 152
f 181 112 111
f 182 183 184
f 187 188 189
f 190 191 192
f 193 194 195
f 197 198 51
f 199 52 4
f 200 12 11
f 176 202 174
f 205 206 66
f 207 208 209
f 210 211 91
f 111 212 181
f 58 213 214
f 215 23 216
f 217 218 219
f 222 223 224
f 228 26 229
f 230 11 231
f 236 237 106
f 238 167 239
f 122 240 241
f 125 211 244
f 245 246 247
f 250 251 159
f 30 245 247
f 252 253 254
f 255 256 215
f 258 184 259
f 260 167 166
f 261 230 231
f 262 263 264
f 48 30 245
f 265 115 65
f 266 267 268
f 269 270 34
f 271 272 273
f 274 46 47
f 275 39 276
f 277 278 279
f 38 276 39
f 275 276 281
f 284 240 124
f 285 286 287
f 288 289 290
f 291 174 202
f 111 292 212
f 293 294 295
f 300 24 301
f 302 256 95
f 306 307 308
f 121 309 310
f 309 121 311
f 314 182 315
f 182 192 191
f 213 316 214
f 317 319 318
f 320 321 227
f 328 329 330
f 331 226 225
f 333 34 33
f 126 336 337
f 214 269 34
f 13 231 11
f 340 341 342
f 164 343 344
f 69 39 220
f 272 346 347
f 348 81 83
f 68 144 351
f 145 111 113
f 354 248 3
f 355 356 357
f 358 359 50
f 36 279 360
f 159 244 211
f 305 173 228
f 361 223 362
f 363 364 365
f 366 367 368
f 2 13 153
f 369 370 278
f 125 371 372
f 134 373 328
f 377 310 309
f 378 295 379
f 141 140 155
f 90 210 91
f 384 385 386
f 387 152 151
f 385 388 386
f 136 389 390
f 391 392 393
f 392 394 393
f 51 50 78
f 312 313 260
f 396 146 397
f 398 391 399
f 391 393 399
f 75 400 130
f 7 242 5
f 401 402 403
f 218 217 33
f 407 408 409
f 92 374 93
f 267 412 334
f 413 414 415
f 416 161 417
f 58 214 217
f 418 297 419
f 149 421 422
f 235 392 355
f 314 383 183
f 423 341 105
f 424 192 425
f 211 372 91
f 200 11 230
f 426 383 314
f 429 430 431
f 211 125 372
f 432 433 118
f 371 91 372
f 434 435 436
f 184 437 259
f 384 71 70
f 438 439 440
f 167 17 18
f 442 60 203
f 443 444 445
f 15 17 167
f 446 23 215
f 384 447 71
f 10 448 8
f 346 450 451
f 452 382 383
f 453 382 454
f 335 122 455
f 457 458 459
f 248 249 390
f 83 82 460
f 461 360 462
f 465 466 467
f 411 468 370
f 469 470 471
f 248 390 185
f 212 80 79
f 35 270 473
f 474 475 350
f 476 477 478
f 464 441 480
f 481 482 332
f 483 152 135
f 135 185 389
f 484 485 486
f 182 184 258
f 149 150 487
f 399 489 398
f 491 425 157
f 88 87 492
f 104 105 102
f 52 495 53
f 496 71 447
f 498 499 500
f 159 211 210
f 376 299 501
f 361 502 223
f 73 91 371
f 177 21 204
f 335 455 244
f 503 373 134
f 279 278 504
f 221 39 275
f 475 474 138
f 1 185 186
f 45 223 502
f 510 419 297
f 398 392 391
f 379 295 12
f 122 124 240
f 297 418 511
f 512 425 491
f 1 248 185
f 514 515 516
f 181 212 79
f 517 398 489
f 345 255 518
f 519 520 521
f 145 144 68
f 100 453 522
f 221 220 39
f 523 320 524
f 282 220 221
f 93 501 80
f 396 528 529
f 69 38 39
f 89 327 530
f 531 532 533
f 214 34 333
f 534 535 291
f 119 536 120
f 26 228 37
f 99 538 453
f 195 539 193
f 485 540 541
f 489 393 395
f 544 545 205
f 13 261 231
f 387 151 546
f 427 547 104
f 103 427 104
f 548 549 550
f 153 3 2
f 420 78 501
f 553 411 554
f 430 429 520
f 390 389 185
f 454 522 453
f 51 78 420
f 556 557 558
f 542 314 315
f 150 422 327
f 219 58 217
f 212 92 80
f 143 561 562
f 294 564 565
f 24 294 565
f 34 270 35
f 566 567 243
f 568 569 570
f 250 159 571
f 210 571 159
f 572 573 491
f 574 575 452
f 445 378 576
f 238 15 167
f 126 125 336
f 577 342 341
f 318 319 493
f 173 305 298
f 207 508 208
f 580 99 453
f 424 491 573
f 399 393 489
f 345 94 95
f 131 375 374
f 581 549 582
f 583 584 161
f 381 586 587
f 32 588 589
f 68 351 69
f 204 592 348
f 593 131 594
f 132 145 75
f 508 29 208
f 131 374 292
f 393 394 595
f 437 469 259
f 596 340 597
f 598 599 201
f 601 602 603
f 292 374 92
f 92 212 292
f 390 249 136
f 135 389 136
f 507 63 114
f 605 606 247
f 607 608 609
f 223 45 224
f 326 25 610
f 142 25 24
f 424 472 192
f 277 279 36
f 441 611 480
f 377 536 310
f 536 119 310
f 418 419 612
f 213 58 57
f 384 386 613
f 615 616 216
f 293 564 294
f 255 345 95
f 461 585 360
f 234 16 238
f 50 79 78
f 351 144 113
f 345 475 63
f 420 501 361
f 60 62 620
f 351 113 82
f 621 188 622
f 115 623 421
f 624 625 564
f 626 283 286
f 68 75 145
f 626 415 283
f 428 627 463
f 569 628 629
f 630 631 101
f 557 634 603
f 635 282 275
f 561 4 636
f 621 189 188
f 232 563 262
f 341 423 637
f 398 356 392
f 120 536 134
f 589 639 638
f 78 80 501
f 640 641 517
f 388 644 225
f 346 272 450
f 645 334 409
f 43 315 646
f 472 424 419
f 111 145 647
f 145 132 647
f 198 197 358
f 610 25 142
f 405 252 254
f 648 26 37
f 314 183 182
f 483 494 152
f 214 333 217
f 217 333 33
f 256 446 215
f 548 550 89
f 650 186 185
f 650 185 135
f 158 460 113
f 651 45 299
f 1 186 2
f 652 414 594
f 563 232 653
f 548 582 549
f 322 654 655
f 656 313 312
f 101 654 322
f 383 437 184
f 453 383 382
f 383 453 437
f 95 94 657
f 183 383 184
f 382 439 454
f 658 659 660
f 141 661 139
f 154 141 155
f 456 124 123
f 243 600 107
f 295 153 12
f 663 269 664
f 45 44 224
f 216 665 666
f 464 480 488
f 330 650 667
f 263 197 668
f 669 235 257
f 302 257 235
f 671 672 673
f 400 594 131
f 473 270 269
f 422 150 149
f 529 674 513
f 147 513 560
f 141 675 661
f 141 154 675
f 132 131 292
f 513 146 529
f 677 678 676
f 551 134 679
f 77 473 680
f 681 682 683
f 328 261 329
f 13 650 329
f 555 172 171
f 14 19 17
f 94 345 63
f 126 653 232
f 355 16 234
f 235 355 234
f 125 685 336
f 214 664 269
f 123 122 335
f 272 686 450
f 665 216 22
f 688 472 689
f 398 357 356
f 497 149 690
f 585 36 360
f 462 360 397
f 691 692 693
f 450 686 525
f 82 113 460
f 695 696 500
f 697 318 493
f 451 525 4
f 698 699 700
f 513 674 701
f 190 688 702
f 483 135 494
f 452 169 382
f 452 383 426
f 439 382 169
f 74 73 704
f 677 705 678
f 429 431 521
f 105 596 102
f 317 318 683
f 421 497 507
f 474 554 706
f 707 708 283
f 633 345 518
f 710 236 711
f 671 712 339
f 467 714 670
f 670 714 715
f 716 717 404
f 133 718 589
f 16 15 238
f 719 720 721
f 520 429 521
f 430 520 722
f 723 724 227
f 214 316 664
f 322 655 323
f 230 726 479
f 727 558 643
f 728 729 730
f 320 523 321
f 732 648 37
f 288 733 289
f 733 734 289
f 735 676 736
f 216 23 22
f 280 291 202
f 203 213 57
f 737 738 506
f 556 558 727
f 418 691 739
f 356 355 392
f 740 741 742
f 728 726 743
f 164 744 343
f 137 363 66
f 138 137 66
f 381 487 150
f 472 688 190
f 584 417 161
f 10 9 745
f 704 73 371
f 746 703 747
f 748 457 749
f 498 143 562
f 585 461 750
f 752 753 751
f 632 350 475
f 172 667 754
f 475 345 632
f 166 312 260
f 419 424 612
f 47 46 463
f 614 380 670
f 757 758 759
f 760 761 324
f 126 337 653
f 762 763 157
f 365 764 205
f 764 544 205
f 765 444 443
f 766 767 768
f 400 131 130
f 322 323 770
f 513 147 146
f 771 251 250
f 773 669 670
f 413 403 402
f 297 384 613
f 554 410 706
f 706 774 474
f 554 411 410
f 774 138 474
f 775 776 42
f 641 640 19
f 777 188 187
f 742 778 779
f 304 780 781
f 436 435 403
f 782 582 548
f 216 616 215
f 377 742 536
f 163 783 164
f 784 785 786
f 418 573 691
f 612 573 418
f 358 653 7
f 424 573 612
f 787 788 789
f 222 264 668
f 790 791 506
f 792 742 741
f 14 16 19
f 553 468 411
f 794 565 193
f 795 191 505
f 795 505 646
f 795 646 315
f 795 315 191
f 262 197 263
f 400 652 594
f 782 796 582
f 134 551 120
f 663 490 269
f 797 798 672
f 286 708 287
f 799 289 622
f 305 800 716
f 716 800 717
f 130 132 75
f 322 630 101
f 657 257 302
f 802 742 779
f 240 803 241
f 155 654 156
f 655 654 155
f 416 417 584
f 521 804 805
f 806 319 317
f 334 807 808
f 643 558 642
f 471 809 591
f 508 25 326
f 308 810 811
f 67 69 812
f 220 415 813
f 683 815 317
f 509 260 604
f 167 260 509
f 691 572 692
f 568 406 569
f 192 472 190
f 486 485 541
f 816 817 504
f 441 818 611
f 820 464 722
f 618 571 619
f 255 215 616
f 689 472 419
f 821 822 26
f 823 824 697
f 421 149 497
f 409 408 645
f 766 768 49
f 630 825 640
f 826 403 413
f 428 435 828
f 626 413 415
f 377 309 742
f 309 778 742
f 257 657 690
f 276 829 830
f 728 743 741
f 335 159 251
f 415 220 282
f 545 831 206
f 644 832 225
f 191 315 182
f 89 88 327
f 683 833 815
f 834 835 836
f 641 19 357
f 317 10 745
f 837 4 525
f 19 16 357
f 16 355 357
f 95 657 302
f 332 403 826
f 323 655 155
f 833 343 815
f 838 681 683
f 230 479 200
f 739 296 511
f 511 296 297
f 431 208 521
f 802 779 729
f 779 839 729
f 350 349 554
f 631 609 608
f 195 194 840
f 841 772 687
f 8 783 163
f 63 507 94
f 25 761 24
f 301 24 761
f 843 717 673
f 462 750 461
f 811 810 656
f 663 40 490
f 624 444 625
f 49 845 841
f 702 477 190
f 31 846 769
f 847 70 442
f 848 849 850
f 278 746 747
f 76 35 473
f 269 490 107
f 107 600 473
f 680 473 600
f 276 116 281
f 291 535 851
f 535 232 851
f 291 280 534
f 232 174 851
f 174 291 851
f 174 232 175
f 416 852 853
f 817 738 854
f 507 115 421
f 728 855 726
f 827 311 121
f 311 304 781
f 827 304 311
f 430 857 431
f 208 431 857
f 857 430 209
f 857 209 208
f 517 489 640
f 717 735 736
f 529 859 674
f 740 729 741
f 729 728 741
f 597 162 860
f 69 861 38
f 254 862 104
f 251 456 123
f 313 604 260
f 173 298 154
f 863 615 216
f 409 804 449
f 251 123 335
f 785 864 865
f 866 353 352
f 48 766 49
f 767 867 768
f 867 767 189
f 29 28 449
f 561 636 562
f 52 562 636
f 53 562 52
f 53 52 4
f 347 273 272
f 398 517 357
f 517 641 357
f 475 138 63
f 519 797 672
f 638 766 589
f 638 767 766
f 868 308 869
f 43 870 542
f 871 842 694
f 271 686 272
f 686 128 525
f 216 482 863
f 216 666 332
f 482 216 332
f 705 831 678
f 607 684 101
f 254 547 405
f 872 782 548
f 257 690 614
f 686 271 273
f 873 874 856
f 238 239 875
f 427 405 547
f 18 19 640
f 339 878 877
f 879 491 157
f 667 172 555
f 441 464 820
f 880 704 371
f 126 880 371
f 126 371 125
f 5 21 6
f 683 881 833
f 427 882 405
f 695 883 696
f 644 406 405
f 751 148 884
f 885 686 273
f 234 302 235
f 577 508 326
f 886 523 28
f 645 408 407
f 396 360 817
f 887 561 143
f 205 545 206
f 482 888 863
f 722 464 430
f 488 430 464
f 704 534 74
f 534 704 535
f 126 535 880
f 535 126 232
f 880 535 704
f 651 889 785
f 404 891 890
f 488 480 136
f 52 636 4
f 396 397 360
f 395 757 893
f 509 865 864
f 51 420 362
f 620 41 664
f 163 165 243
f 265 896 872
f 698 162 161
f 624 564 293
f 579 844 459
f 293 295 378
f 536 742 792
f 388 406 644
f 585 890 196
f 617 819 876
f 570 629 442
f 883 846 31
f 897 401 898
f 593 897 898
f 593 898 46
f 46 898 463
f 898 401 428
f 463 898 428
f 613 386 510
f 495 499 53
f 899 630 322
f 900 901 772
f 803 284 433
f 240 284 803
f 902 304 303
f 137 774 903
f 111 647 292
f 292 647 132
f 103 882 427
f 109 122 904
f 75 67 812
f 583 161 160
f 584 195 840
f 905 562 53
f 276 830 906
f 324 209 760
f 315 43 542
f 907 638 639
f 624 293 445
f 624 445 444
f 762 471 908
f 909 739 691
f 910 584 840
f 719 896 720
f 754 650 135
f 524 645 407
f 523 407 449
f 375 274 93
f 577 341 27
f 854 859 529
f 237 236 243
f 596 912 646
f 317 815 10
f 433 432 803
f 667 679 330
f 339 877 671
f 311 781 590
f 242 109 914
f 122 241 904
f 914 915 904
f 139 323 140
f 584 583 195
f 916 380 381
f 308 307 313
f 860 596 597
f 698 917 699
f 298 918 716
f 504 817 279
f 637 886 27
f 772 919 920
f 813 559 812
f 813 812 220
f 812 559 75
f 559 400 75
f 190 477 476
f 335 244 159
f 110 125 244
f 108 455 109
f 108 110 244
f 108 244 455
f 110 685 125
f 908 780 763
f 886 28 27
f 542 426 314
f 449 407 409
f 524 407 523
f 513 701 560
f 298 751 154
f 921 798 694
f 89 550 87
f 922 458 923
f 138 66 114
f 66 65 114
f 780 591 590
f 523 449 28
f 699 917 526
f 289 734 622
f 734 924 622
f 560 701 618
f 852 850 925
f 839 733 729
f 267 798 412
f 500 696 143
f 196 891 736
f 807 797 519
f 600 165 680
f 926 634 531
f 572 491 692
f 825 630 899
f 234 238 256
f 328 373 261
f 912 700 699
f 523 886 637
f 653 337 7
f 358 563 653
f 563 358 262
f 262 358 197
f 928 587 35
f 96 537 353
f 150 327 586
f 323 811 656
f 117 432 118
f 929 239 167
f 638 907 777
f 498 500 143
f 405 406 252
f 70 847 628
f 845 930 867
f 930 768 867
f 49 930 845
f 930 49 768
f 339 820 722
f 745 9 8
f 837 556 201
f 695 931 883
f 931 932 883
f 872 896 719
f 414 652 559
f 600 243 165
f 510 689 419
f 510 386 688
f 773 670 715
f 933 404 717
f 652 400 559
f 934 935 776
f 672 671 877
f 207 25 508
f 907 799 188
f 799 622 188
f 149 487 690
f 724 723 895
f 526 853 834
f 834 853 835
f 536 792 503
f 203 570 442
f 826 413 626
f 936 830 829
f 81 829 82
f 936 829 81
f 570 569 629
f 133 589 588
f 938 694 796
f 497 94 507
f 836 499 834
f 724 87 227
f 321 723 227
f 269 107 473
f 470 809 471
f 577 326 325
f 577 325 342
f 508 577 27
f 164 344 77
f 680 164 77
f 234 256 302
f 454 940 522
f 170 452 575
f 848 444 765
f 723 253 895
f 942 772 233
f 943 531 557
f 754 667 650
f 684 648 732
f 338 822 759
f 698 700 162
f 940 454 440
f 173 37 228
f 944 681 913
f 684 759 648
f 591 908 471
f 780 908 591
f 908 763 762
f 30 247 245
f 406 568 252
f 416 850 852
f 239 929 875
f 666 436 403
f 666 403 332
f 676 678 831
f 428 401 435
f 516 929 509
f 929 167 509
f 81 348 592
f 945 946 552
f 947 138 114
f 948 949 868
f 849 950 951
f 261 373 230
f 442 70 60
f 673 952 843
f 207 209 25
f 953 98 954
f 648 955 26
f 521 808 519
f 638 187 767
f 806 493 319
f 806 317 745
f 806 745 151
f 806 494 493
f 806 151 494
f 956 957 958
f 55 901 56
f 959 210 90
f 282 283 415
f 25 324 761
f 25 209 324
f 820 339 229
f 660 756 658
f 637 27 341
f 961 116 276
f 286 86 626
f 66 363 205
f 365 205 363
f 805 804 409
f 839 779 733
f 779 962 733
f 154 751 884
f 837 963 4
f 964 965 937
f 218 33 492
f 588 32 31
f 172 135 171
f 22 966 665
f 321 253 723
f 967 37 156
f 305 918 298
f 716 918 305
f 947 114 63
f 362 223 197
f 968 540 485
f 416 853 698
f 853 917 698
f 401 403 435
f 970 822 338
f 410 411 971
f 845 972 772
f 973 974 975
f 142 24 565
f 466 670 380
f 6 976 7
f 694 798 267
f 977 937 780
f 978 171 152
f 669 614 670
f 257 614 669
f 256 255 95
f 792 741 503
f 931 979 836
f 367 540 980
f 981 982 494
f 933 717 736
f 933 736 891
f 983 347 346
f 907 188 777
f 364 137 277
f 746 277 703
f 827 121 120
f 137 703 277
f 937 965 763
f 278 747 369
f 277 746 278
f 127 525 128
f 193 539 794
f 134 536 503
f 348 83 204
f 378 445 293
f 190 476 191
f 191 476 505
f 18 640 825
f 305 228 712
f 228 229 712
f 890 891 196
f 346 841 983
f 841 346 49
f 242 336 685
f 3 248 1
f 119 121 310
f 888 518 615
f 708 286 283
f 334 412 807
f 933 891 404
f 986 987 433
f 341 340 105
f 496 447 41
f 580 453 100
f 835 925 836
f 925 988 836
f 980 368 367
f 386 331 688
f 848 765 849
f 765 950 849
f 761 354 301
f 761 760 248
f 248 354 761
f 760 209 249
f 249 248 760
f 805 808 521
f 29 804 208
f 208 804 521
f 449 804 29
f 334 808 409
f 409 808 805
f 325 195 342
f 128 943 129
f 989 924 734
f 672 878 519
f 990 991 854
f 448 783 8
f 744 164 448
f 662 745 8
f 164 783 448
f 966 516 828
f 722 878 339
f 556 837 127
f 837 201 963
f 992 484 993
f 428 994 995
f 750 890 585
f 462 890 750
f 133 290 718
f 614 690 487
f 349 350 632
f 8 996 662
f 366 601 926
f 538 470 469
f 88 492 33
f 219 997 894
f 538 99 470
f 775 42 447
f 93 47 376
f 434 828 435
f 894 997 87
f 773 715 595
f 773 595 669
f 998 999 578
f 917 853 526
f 1000 980 642
f 432 117 906
f 1001 823 1002
f 139 927 323
f 288 729 733
f 731 1003 233
f 713 1003 731
f 569 388 628
f 776 935 801
f 532 531 128
f 308 313 810
f 1003 99 98
f 470 1003 713
f 233 1003 98
f 492 219 218
f 591 311 590
f 127 837 525
f 168 598 169
f 911 939 1005
f 404 890 462
f 1006 1007 1008
f 364 363 137
f 224 658 222
f 763 780 937
f 381 150 586
f 969 147 560
f 1009 344 1010
f 884 148 147
f 161 416 698
f 709 822 970
f 267 796 694
f 807 519 808
f 354 3 300
f 1011 189 56
f 1011 56 900
f 772 901 55
f 848 850 910
f 672 798 921
f 947 63 138
f 369 747 971
f 413 1012 414
f 253 252 1013
f 20 204 21
f 42 776 801
f 854 738 1014
f 902 303 1015
f 983 841 687
f 176 222 658
f 1000 642 1016
f 1017 717 800
f 204 83 460
f 928 35 77
f 4 1018 451
f 842 952 1019
f 1020 299 376
f 441 820 709
f 767 187 189
f 303 304 827
f 799 718 290
f 288 290 729
f 290 730 729
f 799 290 289
f 799 907 718
f 907 639 718
f 588 31 769
f 894 58 219
f 1021 627 376
f 926 601 634
f 1022 831 545
f 657 497 690
f 638 777 187
f 637 1023 1024
f 515 994 428
f 485 484 1025
f 263 668 264
f 718 639 589
f 290 133 730
f 728 730 855
f 855 730 133
f 576 379 12
f 84 819 939
f 938 796 782
f 1026 251 771
f 587 33 35
f 44 869 658
f 938 782 872
f 368 602 366
f 1028 4 561
f 48 589 766
f 1029 975 660
f 975 974 660
f 1030 104 862
f 1031 879 965
f 44 658 224
f 176 658 756
f 996 1032 546
f 699 526 892
f 699 892 912
f 539 195 325
f 772 841 845
f 779 1033 962
f 1033 1034 962
f 1035 1029 1036
f 209 488 249
f 928 649 587
f 818 1037 611
f 1038 101 1039
f 605 32 48
f 731 54 621
f 1005 617 888
f 470 99 1003
f 445 576 200
f 548 530 872
f 170 575 598
f 440 439 169
f 598 440 169
f 621 56 189
f 195 583 160
f 311 1041 309
f 978 555 171
f 764 585 196
f 196 544 764
f 1037 818 697
f 560 618 969
f 142 565 794
f 510 688 689
f 38 861 276
f 581 268 1042
f 1043 645 1044
f 645 524 1044
f 1045 683 682
f 950 443 527
f 573 572 691
f 370 1046 856
f 1047 1046 370
f 1048 694 842
f 327 88 586
f 129 943 557
f 948 1049 45
f 904 1050 915
f 275 282 221
f 97 959 73
f 33 586 88
f 1008 913 395
f 505 102 646
f 1051 1052 1053
f 105 340 596
f 762 469 471
f 990 1026 991
f 843 1054 717
f 56 901 900
f 299 45 502
f 592 803 432
f 73 959 90
f 676 1055 842
f 580 100 99
f 437 453 538
f 140 323 155
f 135 136 981
f 562 1058 498
f 54 731 55
f 285 84 286
f 1031 711 693
f 1059 394 392
f 20 21 242
f 21 5 242
f 576 12 200
f 667 551 679
f 551 667 555
f 1022 196 676
f 879 157 763
f 42 801 40
f 934 296 935
f 618 619 97
f 96 353 97
f 990 456 251
f 945 31 946
f 1060 1047 708
f 268 267 334
f 901 55 233
f 127 557 556
f 127 129 557
f 1059 235 669
f 480 611 1061
f 734 962 1034
f 912 860 162
f 895 894 724
f 797 807 412
f 798 797 412
f 266 582 796
f 266 796 267
f 266 268 582
f 268 581 582
f 592 204 1050
f 300 301 354
f 251 1026 990
f 104 1030 1023
f 635 275 281
f 939 819 617
f 1009 466 344
f 493 1037 697
f 1062 1015 1032
f 30 32 245
f 681 1063 823
f 313 307 306
f 84 793 819
f 349 632 819
f 819 793 543
f 87 997 492
f 492 997 219
f 968 642 540
f 1064 550 549
f 1065 30 49
f 94 497 657
f 1022 676 831
f 1061 611 493
f 530 548 89
f 61 71 41
f 1066 715 714
f 349 819 543
f 64 1067 65
f 913 1007 944
f 1018 49 451
f 347 983 1025
f 861 829 276
f 989 713 731
f 103 505 476
f 162 700 912
f 413 402 1012
f 402 401 1012
f 401 897 1012
f 1012 897 593
f 414 1012 594
f 594 1012 593
f 543 554 349
f 554 287 553
f 684 1068 893
f 758 1002 338
f 172 754 135
f 196 1022 544
f 1013 252 568
f 491 879 692
f 494 982 493
f 977 780 304
f 868 949 308
f 826 626 86
f 379 576 378
f 900 772 1011
f 867 972 845
f 1011 867 189
f 1011 972 867
f 566 1069 964
f 784 994 515
f 493 982 1061
f 480 982 136
f 816 506 738
f 592 1050 803
f 186 650 2
f 358 7 976
f 858 48 246
f 245 246 48
f 48 858 605
f 858 606 605
f 147 661 884
f 366 602 601
f 253 1070 1071
f 812 69 220
f 1072 1073 426
f 426 1073 452
f 1074 1072 526
f 1074 1073 1072
f 836 979 499
f 979 500 499
f 694 938 871
f 998 725 128
f 905 53 499
f 1058 905 499
f 793 287 554
f 793 554 543
f 696 883 1075
f 883 1076 1075
f 452 170 169
f 264 222 175
f 370 369 971
f 370 971 411
f 574 452 1073
f 928 77 649
f 581 1042 549
f 1042 1064 549
f 931 836 988
f 102 596 646
f 932 846 883
f 702 688 331
f 331 386 226
f 1043 1064 1042
f 720 896 1077
f 803 1050 904
f 1078 741 743
f 1078 743 726
f 1079 726 230
f 1079 230 373
f 1079 373 503
f 741 1078 503
f 1078 1079 503
f 726 1079 1078
f 1059 392 235
f 905 1058 562
f 893 1068 489
f 659 658 869
f 722 520 1080
f 334 645 1081
f 1032 1015 303
f 297 296 447
f 279 817 360
f 937 1015 1082
f 103 102 505
f 863 888 615
f 616 615 518
f 481 911 482
f 518 255 616
f 1028 561 887
f 962 734 733
f 1020 376 1083
f 1032 303 546
f 835 853 925
f 312 1084 322
f 484 486 984
f 537 72 534
f 785 784 864
f 396 817 528
f 281 1085 635
f 978 303 827
f 555 827 120
f 969 1086 1057
f 816 738 817
f 695 500 931
f 500 979 931
f 1087 1088 618
f 571 210 959
f 1089 932 1090
f 932 931 1090
f 721 720 1077
f 493 611 1037
f 3 153 300
f 153 295 300
f 136 249 488
f 370 789 1091
f 842 871 719
f 871 938 872
f 872 719 871
f 18 1084 312
f 1064 1043 1092
f 338 1093 970
f 866 661 1056
f 416 584 850
f 584 910 850
f 914 1050 204
f 241 803 904
f 29 508 27
f 4 963 599
f 142 794 539
f 158 177 460
f 247 858 246
f 58 894 1013
f 1094 862 254
f 322 1084 899
f 550 227 87
f 731 924 989
f 924 731 621
f 622 924 621
f 515 428 828
f 1080 520 519
f 56 621 54
f 684 732 967
f 1095 736 676
f 1081 1043 268
f 1043 1042 268
f 112 181 79
f 566 1096 567
f 136 982 981
f 1069 711 965
f 676 1097 677
f 1098 950 1099
f 882 478 832
f 361 362 420
f 350 554 474
f 59 203 57
f 1100 506 504
f 697 1093 338
f 824 823 1063
f 674 991 701
f 550 1092 227
f 958 682 956
f 682 944 956
f 250 571 1102
f 1087 701 1088
f 1088 701 771
f 701 991 771
f 1026 771 991
f 4 1028 1018
f 1018 1103 1065
f 1104 179 1074
f 179 180 1074
f 852 925 853
f 629 628 847
f 847 442 629
f 50 51 198
f 693 1040 1031
f 438 454 439
f 2 650 13
f 913 1002 758
f 247 606 605
f 30 247 31
f 247 946 31
f 606 32 605
f 7 336 242
f 242 685 110
f 337 336 7
f 109 242 110
f 109 455 122
f 649 77 344
f 1006 1008 1066
f 1018 1028 1103
f 331 225 832
f 569 406 388
f 177 204 460
f 899 1084 18
f 1075 552 143
f 936 432 830
f 1059 669 394
f 366 926 1105
f 672 1106 673
f 512 424 425
f 739 511 418
f 490 40 801
f 887 1103 1028
f 1027 1107 202
f 86 911 826
f 673 1108 671
f 1017 673 717
f 823 1001 681
f 861 69 351
f 1109 829 861
f 1109 82 829
f 1109 351 82
f 1109 861 351
f 1053 1052 459
f 1100 788 506
f 943 128 531
f 1019 952 673
f 672 921 1106
f 1106 921 694
f 842 1019 1110
f 1110 1019 673
f 673 1106 1110
f 915 1050 914
f 904 915 914
f 914 204 20
f 59 568 570
f 748 960 367
f 873 116 874
f 430 488 209
f 105 1023 423
f 873 856 1111
f 1112 441 709
f 152 387 978
f 546 978 387
f 1035 811 1113
f 1013 894 895
f 1043 1081 645
f 877 878 672
f 748 923 1114
f 552 887 143
f 1058 499 498
f 151 662 546
f 635 1085 707
f 1085 1111 707
f 352 941 1004
f 489 1068 609
f 784 515 864
f 989 1034 713
f 625 910 1115
f 727 201 556
f 247 30 946
f 396 529 146
f 1116 920 643
f 395 893 489
f 893 757 759
f 323 927 811
f 325 610 142
f 142 539 325
f 755 1117 940
f 526 1118 892
f 903 774 706
f 1112 1093 697
f 1013 59 58
f 944 682 681
f 1005 939 617
f 978 546 303
f 978 827 555
f 320 1044 524
f 227 1044 320
f 999 579 578
f 285 793 84
f 995 627 428
f 423 1023 637
f 546 662 996
f 1119 433 284
f 609 1068 684
f 85 939 911
f 425 192 182
f 1009 1010 958
f 1009 958 957
f 675 154 884
f 661 675 884
f 1120 1014 1121
f 680 165 164
f 313 306 785
f 588 769 1122
f 710 711 243
f 545 544 1022
f 956 944 1123
f 1119 284 737
f 1124 1125 258
f 1020 651 299
f 604 313 785
f 40 663 664
f 1057 1056 661
f 332 826 481
f 826 911 481
f 599 963 201
f 178 1126 1127
f 26 822 709
f 759 822 821
f 656 810 313
f 604 785 865
f 242 914 20
f 915 109 904
f 911 1005 888
f 1095 196 736
f 1029 660 659
f 982 480 1061
f 649 344 466
f 1128 97 353
f 227 1092 1044
f 1064 1092 550
f 76 473 77
f 1047 370 468
f 707 1111 1060
f 1060 708 707
f 635 283 282
f 635 707 283
f 1047 468 553
f 1047 553 287
f 287 708 1047
f 985 993 984
f 665 434 666
f 992 993 985
f 528 854 529
f 854 991 859
f 674 859 991
f 1043 1044 1092
f 651 948 45
f 786 889 995
f 312 166 18
f 565 564 193
f 364 1129 365
f 786 995 784
f 995 994 784
f 361 501 502
f 1128 353 618
f 1130 353 537
f 926 531 533
f 72 537 96
f 620 62 41
f 287 793 285
f 860 912 596
f 643 642 1116
f 1131 571 618
f 571 1131 1088
f 618 1088 1131
f 854 1014 990
f 1074 180 1132
f 1132 1073 1074
f 619 571 959
f 97 619 959
f 109 915 914
f 147 1057 661
f 477 702 331
f 1113 811 927
f 946 1133 552
f 902 1015 937
f 964 1062 566
f 687 485 983
f 1025 983 485
f 1025 992 347
f 992 985 844
f 992 844 347
f 1025 484 992
f 138 774 137
f 926 533 1134
f 589 48 32
f 30 1133 946
f 1135 1136 987
f 1137 118 433
f 1138 148 751
f 964 1082 1062
f 1082 1015 1062
f 1069 243 711
f 1139 693 236
f 51 362 197
f 501 299 502
f 338 1002 823
f 1038 1039 967
f 1140 599 598
f 433 1119 986
f 737 986 1119
f 532 128 725
f 870 1118 1072
f 966 828 665
f 1031 1040 879
f 1120 124 456
f 325 326 610
f 1126 178 495
f 1126 495 199
f 1085 873 1111
f 1014 738 737
f 284 124 737
f 551 555 120
f 1001 913 681
f 823 697 338
f 1126 599 1140
f 1075 143 696
f 552 1075 945
f 1082 964 937
f 1021 376 47
f 179 834 499
f 726 855 479
f 1035 1113 1029
f 922 366 458
f 889 786 785
f 201 727 598
f 479 443 445
f 791 986 737
f 8 567 1096
f 13 12 153
f 834 1104 526
f 179 499 495
f 168 170 598
f 1138 146 148
f 1024 1141 523
f 601 603 634
f 840 1115 910
f 770 312 322
f 850 849 925
f 849 1142 925
f 705 677 1143
f 684 607 609
f 489 609 640
f 617 876 888
f 518 888 876
f 911 888 482
f 633 518 876
f 465 467 670
f 776 447 934
f 1021 463 627
f 1097 721 677
f 163 243 567
f 1095 676 196
f 693 711 236
f 1091 788 278
f 649 466 380
f 828 434 665
f 434 436 666
f 280 202 1107
f 258 425 182
f 1139 236 106
f 1100 278 788
f 41 40 664
f 973 975 352
f 711 1031 965
f 595 394 669
f 1094 254 253
f 104 547 254
f 177 112 79
f 875 966 23
f 862 1071 1030
f 984 993 484
f 709 1093 1112
f 970 1093 709
f 824 1063 681
f 316 620 664
f 22 23 966
f 1013 895 253
f 633 876 632
f 819 632 876
f 74 534 72
f 1040 693 692
f 347 1144 999
f 1089 1099 769
f 789 1136 787
f 1136 1135 787
f 670 466 465
f 676 735 1055
f 564 625 1115
f 1048 1106 694
f 656 770 323
f 139 941 927
f 26 955 821
f 1075 1076 945
f 856 1046 1111
f 885 273 128
f 869 1029 659
f 780 590 781
f 660 974 756
f 974 1027 756
f 286 84 86
f 721 1077 677
f 1077 1143 677
f 265 1143 1077
f 65 1143 265
f 157 1125 762
f 258 1125 425
f 246 32 606
f 1145 352 814
f 41 62 61
f 1105 1101 458
f 346 451 49
f 115 507 114
f 194 1115 840
f 679 134 330
f 1137 433 987
f 530 422 623
f 457 748 1114
f 984 459 985
f 459 844 985
f 1051 1134 1052
f 533 1052 1134
f 710 243 236
f 527 1122 769
f 527 1099 950
f 931 988 1090
f 988 1142 1090
f 623 872 530
f 971 747 903
f 703 903 747
f 998 578 725
f 999 998 128
f 1146 1052 578
f 1120 1121 124
f 459 1051 1053
f 759 955 648
f 821 955 759
f 1097 676 842
f 1133 1103 887
f 1018 1065 49
f 950 765 443
f 1089 769 846
f 1099 527 769
f 903 706 971
f 137 903 703
f 410 971 706
f 1020 1083 651
f 466 957 467
f 1051 458 1101
f 476 882 103
f 1142 988 925
f 512 491 424
f 870 1072 426
f 870 43 1118
f 1035 1036 308
f 478 882 476
f 879 763 965
f 940 1147 954
f 59 1013 568
f 85 84 939
f 506 788 790
f 631 640 609
f 101 631 608
f 608 607 101
f 631 630 640
f 1001 1002 913
f 749 960 748
f 881 958 833
f 775 447 776
f 892 43 646
f 1023 105 104
f 178 1132 180
f 245 32 246
f 447 42 41
f 198 358 50
f 1130 352 353
f 46 131 593
f 86 85 911
f 866 352 1004
f 986 1135 987
f 844 1144 347
f 725 1052 533
f 519 878 1080
f 1080 878 722
f 327 422 530
f 995 889 1083
f 731 233 55
f 961 276 906
f 846 932 1089
f 342 195 160
f 759 758 338
f 873 281 116
f 873 1085 281
f 923 367 366
f 1112 818 441
f 374 375 93
f 359 358 976
f 642 968 1116
f 1148 753 752
f 1010 343 958
f 343 833 958
f 133 588 1122
f 855 133 1122
f 881 1045 958
f 344 343 1010
f 1029 1113 975
f 352 975 941
f 927 975 1113
f 941 975 927
f 725 578 1052
f 961 906 117
f 961 117 116
f 1091 278 370
f 936 81 592
f 432 936 592
f 762 1124 469
f 940 100 522
f 816 504 506
f 340 342 162
f 342 160 162
f 162 597 340
f 830 432 906
f 1077 896 265
f 627 995 1083
f 225 226 388
f 1120 990 1014
f 1124 259 469
f 755 920 919
f 920 755 643
f 365 1129 764
f 1129 1149 764
f 684 893 759
f 579 459 1146
f 1088 1102 571
f 265 623 115
f 623 265 872
f 980 1016 368
f 996 1096 1032
f 620 316 213
f 748 367 923
f 1016 558 602
f 909 691 1139
f 496 41 71
f 13 329 261
f 330 329 650
f 467 1006 714
f 1006 1066 714
f 308 1036 869
f 1150 752 298
f 751 753 1138
f 118 874 116
f 934 447 296
f 727 643 755
f 467 957 1123
f 957 956 1123
f 651 949 948
f 949 306 308
f 309 1151 778
f 1033 779 1151
f 779 778 1151
f 1033 1151 470
f 147 969 1057
f 923 458 1114
f 838 683 318
f 838 824 681
f 838 318 697
f 697 824 838
f 874 1137 987
f 1152 462 397
f 1152 397 146
f 395 758 757
f 1017 305 712
f 1045 881 683
f 755 940 727
f 727 940 440
f 705 1143 1067
f 1017 800 305
f 673 1017 1108
f 213 203 60
f 376 627 1083
f 1083 889 651
f 1107 537 534
f 1087 618 701
f 787 1135 788
f 1135 790 788
f 984 749 459
f 1112 697 818
f 999 128 273
f 199 495 52
f 848 910 444
f 910 625 444
f 950 1098 951
f 1090 1142 1098
f 1089 1098 1099
f 951 1142 849
f 1098 1142 951
f 1047 1060 1046
f 467 1123 1006
f 980 540 642
f 1048 1110 1106
f 404 1150 716
f 752 751 298
f 668 197 223
f 587 586 33
f 1105 1134 1101
f 277 1153 1129
f 1129 364 277
f 856 987 1136
f 909 1139 296
f 902 937 304
f 713 1034 1033
f 179 495 178
f 523 637 1024
f 1098 1089 1090
f 1040 692 879
f 233 98 953
f 814 537 1107
f 1051 459 458
f 651 785 306
f 651 306 949
f 1120 456 990
f 1137 874 118
f 1127 575 178
f 575 1127 598
f 1126 1140 1127
f 1127 1140 598
f 4 599 199
f 199 599 1126
f 37 967 732
f 1141 253 321
f 1108 1017 712
f 59 570 203
f 721 1097 842
f 721 842 719
f 309 1041 809
f 591 809 1041
f 817 854 528
f 135 981 494
f 770 656 312
f 479 855 1122
f 388 70 628
f 385 70 388
f 386 388 226
f 875 23 446
f 479 1122 527
f 443 479 527
f 1073 1132 574
f 1069 965 964
f 892 1118 43
f 526 1072 1118
f 967 1039 684
f 1039 101 684
f 47 93 274
f 1045 682 958
f 1148 752 1150
f 1148 1154 462
f 1150 1154 1148
f 744 448 815
f 448 10 815
f 585 1153 36
f 36 1153 277
f 237 243 107
f 832 477 331
f 1008 1007 913
f 557 531 634
f 603 558 557
f 175 222 176
f 100 940 954
f 98 100 954
f 954 1147 953
f 233 953 942
f 1030 1071 1070
f 712 671 1108
f 1115 194 193
f 564 1115 193
f 869 1049 868
f 384 70 385
f 940 1117 1147
f 772 1117 919
f 919 1117 755
f 901 233 772
f 901 772 55
f 953 1147 942
f 942 1147 772
f 328 330 134
f 1141 321 523
f 1146 459 1052
f 856 874 987
f 916 649 380
f 79 359 976
f 976 177 79
f 1152 1138 462
f 146 1138 1152
f 156 1038 967
f 101 1038 1155
f 1155 654 101
f 1155 1038 156
f 156 654 1155
f 1004 941 139
f 238 875 446
f 885 128 686
f 856 1136 789
f 789 788 1091
f 913 758 395
f 1124 258 259
f 566 1062 1096
f 1062 1032 1096
f 163 567 8
f 8 1096 996
f 825 899 18
f 1056 353 866
f 920 687 772
f 384 297 447
f 579 1146 578
f 999 273 347
f 380 487 381
f 614 487 380
f 1009 957 466
f 1006 1123 1007
f 1123 944 1007
f 368 1016 602
f 603 602 558
f 976 6 177
f 24 295 294
f 300 295 24
f 298 716 1150
f 93 376 501
f 514 864 515
f 106 935 1139
f 490 801 106
f 801 935 106
f 490 106 107
f 151 745 662
f 1069 566 243
f 1105 926 1134
f 366 1105 458
f 922 923 366
f 832 478 477
f 762 1125 1124
f 538 469 437
f 606 247 246
f 843 1055 1054
f 1055 952 842
f 843 952 1055
f 1086 1056 1057
f 1067 1143 65
f 705 1067 831
f 64 66 206
f 916 381 587
f 916 587 649
f 713 1033 470
f 542 870 426
f 815 343 744
f 485 1116 968
f 604 865 509
f 864 514 509
f 1048 842 1110
f 1086 618 353
f 297 613 510
f 274 375 46
f 131 46 375
f 425 1125 157
f 352 1145 974
f 661 866 139
f 866 1004 139
f 791 790 1135
f 506 791 737
f 986 791 1135
f 724 894 87
f 1081 268 334
f 1100 504 278
f 789 370 856
f 591 1041 311
f 764 1149 585
f 585 1149 1153
f 1153 1149 1129
f 598 727 440
f 107 106 237
f 892 646 912
f 1021 47 463
f 1076 883 31
f 945 1076 31
f 1102 771 250
f 687 920 1116
f 1116 485 687
f 999 1144 579
f 579 1144 844
f 644 405 832
f 232 262 175
f 262 263 175
f 263 264 175
f 264 263 262
f 64 206 1067
f 206 831 1067
f 929 966 875
f 238 446 256
f 966 929 516
f 1134 1051 1101
f 457 1114 458
f 1145 814 1027
f 1027 974 1145
f 156 37 173
f 158 112 177
f 415 414 559
f 415 559 813
f 421 623 422
f 973 352 974
f 693 1139 691
f 909 296 739
f 296 1139 935
f 1060 1111 1046
f 1128 618 97
f 222 668 223
f 79 50 359
f 1066 595 715
f 1156 395 393
f 1156 1008 395
f 393 595 1156
f 595 1066 1156
f 1066 1008 1156
f 1000 1016 980
f 1065 1133 30
f 869 1036 1029
f 737 1121 1014
f 124 1121 737
f 526 1104 1074
f 1104 834 179
f 1024 1023 1070
f 1023 1030 1070
f 1141 1070 253
f 1024 1070 1141
f 1035 308 811
f 820 229 709
f 339 712 229
f 229 26 709
f 984 960 749
f 367 960 540
f 960 486 541
f 960 541 540
f 532 725 533
f 802 729 742
f 729 740 742
f 1094 253 1071
f 862 1094 1071
f 1130 537 814
f 1130 814 352
f 451 450 525
f 405 882 832
f 1054 735 717
f 735 1054 1055
f 404 1154 1150
f 1154 404 462
f 462 1138 753
f 462 753 1148
f 494 151 152
f 1133 1065 1103
f 887 552 1133
f 60 620 213
f 1147 1117 772
f 948 868 1049
f 44 1157 869
f 45 1157 44
f 869 1157 1049
f 1049 1157 45
f 200 479 445
f 516 515 828
f 514 516 509
f 1086 353 1056
f 969 618 1086
f 606 858 247
f 309 809 1151
f 1151 809 470
f 989 734 1034
f 575 574 1132
f 1132 178 575
f 633 632 345
f 814 1107 1027
f 280 1107 534
f 176 1027 202
f 176 756 1027
f 1088 771 1102
f 772 972 1011
f 245 247 246
f 438 440 454
f 977 304 937
f 6 21 177
f 1016 642 558
f 459 749 457
f 486 960 984

