# OBJ export from PMP
v -0.1270356923 0.0795550346 -0.1863892525
v 0.0001820000 0.1886170059 0.0699739978
v 0.0002100000 0.1481460035 0.0795079991
v 0.0371305943 0.3341982365 0.0546206608
v 0.0001480000 0.3279370070 0.0549580008
v -0.1879556477 -0.0830103308 0.0838192478
v -0.0370094664 0.0967673734 -0.1801397651
v -0.2380259931 -0.3940300047 -0.0087230001
v 0.2423046678 -0.2695113719 -0.0243441015
v -0.2490876615 0.1873966604 -0.0485309996
v 0.1392588764 0.3126248419 -0.1684371233
v -0.2457178980 0.2029864341 -0.0035924246
v 0.1784520000 0.3667069972 0.0355510004
v 0.1723501384 0.3831543624 -0.0035700065
v 0.2376476675 -0.3583689928 -0.0617473349
v 0.2383603305 -0.3242560029 -0.0609476678
v 0.1367890984 0.1504803598 0.0852070749
v 0.0283302087 0.0202512946 0.1307790428
v -0.0372232907 -0.1465124041 0.1599218100
v 0.1765257567 -0.1050812900 0.0951429382
v 0.0289418604 0.0022768097 -0.1738747656
v -0.2367715985 -0.1038607955 0.0312312003
v -0.0427938849 0.1396458745 0.0912008286
v -0.1726192087 -0.1144371554 0.0975875109
v -0.1849435270 -0.0458841547 0.0868478492
v 0.0338231362 -0.1119206846 -0.1689630896
v 0.2332050055 0.2357449979 0.0374689996
v 0.2364320010 0.2357960045 0.0342300013
v 0.1445485502 0.0447180681 -0.1803220958
v 0.1655779928 0.3889099956 -0.0426630005
v 0.1334490031 0.3957119882 -0.0423070006
v 0.1924992800 0.2774991989 0.0557687283
v 0.1907261014 0.2699485123 -0.1515985429
v 0.2101480067 0.2384739965 -0.1386470050
v 0.2408919483 0.1951507181 -0.0958148986
v 0.2260500044 0.1969946027 -0.1333443969
v 0.2343430072 0.2384009957 -0.1154820025
v -0.1305685490 -0.3413219154 -0.1583177745
v -0.1782940030 0.3667219877 0.0355440006
v -0.1481519938 0.3699190021 0.0355149992
v -0.2483990043 0.0875139982 -0.0511309989
v -0.1182880029 -0.3905149996 -0.0631840006
v 0.0352364071 0.0858850405 -0.1794874817
v 0.2006789446 0.0582414940 0.0604428910
v 0.1932590306 -0.2878803611 0.0998129472
v 0.0001850000 0.3759309947 -0.1380310059
v -0.0000340000 -0.0157353971 -0.1522379965
v 0.0001690000 0.3635919988 -0.1443070024
v 0.2016950548 -0.1193154752 0.0675703734
v 0.2447556108 0.0974394158 -0.0090615060
v 0.2483859956 0.0874909982 -0.0511200018
v -0.1830588579 -0.2707743943 -0.1588706672
v 0.2150304019 -0.2788955569 0.0682557896
v -0.1330404282 0.3134884834 -0.1662081629
v 0.0003310000 -0.3867590129 -0.1055300012
v 0.0004140000 -0.3885700107 -0.0638109967
v 0.0370600000 0.4010615051 -0.0417515002
v 0.0001930000 0.4021379948 -0.0675650015
v 0.0001330000 0.4015600085 -0.0416009985
v -0.2243410051 0.2356670052 0.0418240018
v -0.2062049955 0.2355269939 0.0439909995
v 0.0936264992 0.3820149899 -0.1298130006
v 0.0708056018 0.3411727250 -0.1603666991
v 0.2443118840 0.2792387605 -0.0047039012
v -0.1845089942 -0.4013674855 0.0291430000
v -0.1592880040 -0.4021239877 0.0292770006
v -0.1778029948 -0.3964459896 0.0737849995
v 0.2436019927 -0.0960389972 -0.0555393323
v -0.1834049970 0.3555009961 -0.1303409934
v -0.2002490014 0.3389990032 -0.1306580007
v -0.2261492014 -0.0562030002 -0.1381739974
v 0.2427670807 -0.0759741738 -0.0122610824
v -0.2358337194 -0.0312311817 -0.0956392288
v 0.0004560000 -0.3956629932 0.0935399979
v -0.0737349987 0.4005709887 -0.0419050008
v -0.0436786562 0.4026889205 -0.0882588476
v 0.2405209690 -0.3661415279 -0.0078144325
v 0.0315580331 -0.0756965056 -0.1729518473
v -0.1032212153 -0.2629396915 -0.1704663336
v 0.1590413153 0.1690198183 -0.1689175814
v -0.1895529628 0.2688201964 -0.1506343037
v -0.2208400071 0.2906720042 -0.1315799952
v 0.1724350452 0.1358729899 0.0732120350
v 0.2223889977 -0.2881039977 -0.1431870013
v 0.0990270004 -0.1843580008 -0.1600849926
v 0.2258516550 0.2435325831 0.0389121398
v 0.2402929962 0.3146530092 -0.0451310016
v 0.2469719946 0.2800480127 -0.0460899994
v -0.1374252141 -0.2944931090 -0.1682648808
v -0.1793400049 0.3841370046 -0.0428819992
v -0.1654009968 0.3889270127 -0.0426709987
v -0.1589927375 -0.0268086549 0.1157224700
v -0.2434043884 0.0503790155 -0.0085889008
v 0.0695899427 0.0535596125 -0.1872882843
v 0.0330472775 -0.3147179484 0.1639932394
v -0.2131092995 -0.3575730920 0.0593378022
v -0.1639975905 -0.2516587079 0.1193728596
v -0.1785314530 0.0441097654 0.0850831419
v 0.0359234363 -0.0118910018 0.1394776404
v -0.0405665897 -0.1263268441 -0.1693424731
v 0.0707912222 -0.0939912125 -0.1801121980
v 0.2049397975 -0.3204783797 0.0805132762
v 0.1064413190 0.1232065037 -0.1872916520
v -0.2445275038 0.1242340133 -0.0078957221
v -0.2207800001 -0.1862879992 -0.1462340057
v -0.0889015794 -0.3885198534 -0.1037406400
v -0.0787206665 -0.3898666799 -0.0633929968
v -0.1109893844 -0.3323937953 0.1504958868
v -0.2009964138 0.0854075775 0.0587684959
v -0.1273334026 -0.0118108802 0.1358821839
v 0.1832589954 -0.3889290094 -0.1459323317
v -0.2006929964 0.3600929976 0.0355280004
v 0.1038875654 0.1294902414 0.0963509306
v -0.1661447436 -0.1570013314 0.0947019458
v -0.1188485026 0.1637183130 -0.1790950894
v -0.2362513542 -0.1554340124 -0.0959040150
v -0.0801125616 -0.3972631097 0.0655004904
v -0.2467010021 0.2362920046 0.0046029999
v -0.1801263541 -0.3962197304 -0.0247765873
v -0.2428199947 0.2360129952 0.0213559996
v 0.1443560570 -0.2671222091 -0.1690904945
v -0.2364770025 0.1933571994 0.0338464007
v 0.2490833402 0.1873743385 -0.0485199988
v 0.2448892742 0.1677526534 -0.0071857721
v 0.2487346679 0.1374326646 -0.0498199984
v -0.1176829711 -0.3965717852 -0.0160884224
v -0.1516969949 -0.3986732662 -0.0046903938
v -0.1578553319 -0.3911636770 -0.0629749969
v -0.2126429975 0.3175930083 -0.1310669929
v 0.1763450056 0.2353380024 0.0412329994
v -0.0586748831 -0.1080079004 0.1585209370
v 0.1587424874 0.2076010108 0.0612595379
v 0.2261275947 -0.0562230013 -0.1381644011
v 0.2265308052 -0.0128030004 -0.1373171955
v -0.1301551014 -0.2611176670 0.1487171650
v -0.0546771325 -0.2818144858 0.1650974005
v 0.1962763965 0.0235776622 0.0685213059
v -0.0353985950 -0.3612328172 0.1586428881
v 0.0312088821 0.0427152552 -0.1759456396
v -0.0000178000 0.0681153983 -0.1527457982
v 0.1033428833 -0.2592832744 0.1590755731
v 0.1338577420 -0.2432034612 0.1392466724
v 0.1551924646 0.1089420989 -0.1728880256
v 0.2424989939 -0.1885470003 -0.0029529999
v 0.2407449931 -0.1887020022 0.0155349998
v 0.2385340035 -0.2348880023 0.0301389992
v 0.1341492087 0.1824500561 0.0721830279
v -0.2101429999 0.2384929955 -0.1386560053
v 0.1862646490 -0.1166324094 -0.1617137343
v 0.0368503332 -0.3857443333 -0.1469849944
v -0.0401209630 0.1757942736 0.0791321397
v -0.1667526662 -0.2183842957 0.1017915085
v -0.2340850681 -0.2518675327 -0.1015483364
v 0.1978558451 0.3214676976 0.0469346792
v -0.0783821121 0.2751652002 -0.1697354466
v 0.2325929999 -0.3917300105 0.0289929993
v 0.2306289971 -0.1867820024 -0.1253689975
v 0.2299270034 -0.3951089978 0.0289719999
v -0.1517328620 0.2734117210 -0.1616307646
v -0.1780316234 0.3074091971 -0.1524665952
v -0.0331079997 0.3853510022 -0.1297370046
v -0.0535590425 0.3521723747 -0.1546542495
v -0.0664149970 0.3847239912 -0.1297589988
v 0.2365847975 0.0659575984 0.0327356011
v 0.2365466058 0.1084171981 0.0331091993
v 0.1951118708 0.1002102196 0.0621252060
v 0.0890050009 0.2348199934 0.0306380000
v 0.1163500026 0.2350309938 0.0307219997
v 0.0518983863 -0.3557800949 0.1583305299
v -0.0698011443 -0.0002726246 -0.1885833591
v 0.1485001892 -0.1261048913 0.1182944104
v 0.2346059680 -0.0312847830 -0.0953753516
v 0.1936917454 -0.3961306810 -0.0149905030
v 0.1477646381 -0.3968090117 -0.0173947532
v -0.1469585150 -0.2548361123 -0.1694020778
v -0.1272189468 -0.2201353014 -0.1698471308
v 0.1085127965 0.0219586622 -0.1912452281
v 0.0704003945 -0.1325050145 -0.1732471138
v 0.1391105056 -0.3516394496 0.1249679103
v -0.0772673413 0.0900318250 0.1109654754
v 0.0001433333 -0.3177779913 -0.1485726684
v -0.2494319975 0.2373380065 -0.0472309999
v -0.2489620000 0.2367130071 -0.0184909999
v -0.2424390018 -0.1419001669 -0.0566551648
v 0.2249179929 -0.1864829957 -0.1407060027
v 0.2207459956 -0.1863079965 -0.1462250054
v -0.1111944765 -0.3668251634 0.1392475069
v 0.0721718669 -0.0293590445 0.1452831626
v 0.1095320210 -0.0151954470 0.1408469975
v -0.2375079989 -0.3932454884 -0.0356400013
v 0.0918014348 0.1682741493 0.0800007060
v -0.2412358820 0.1179194897 -0.0835539922
v 0.1145326793 -0.3481924832 -0.1561199576
v 0.0636289641 0.3025704920 0.0619407296
v 0.0002480000 -0.3849479854 -0.1472479999
v 0.1488832682 -0.3417814076 -0.1569801867
v -0.0000136667 -0.2170223296 -0.1505596638
v 0.0000386667 -0.2506076694 -0.1498973370
v -0.2269479930 0.0306369998 -0.1364800036
v 0.2421359867 -0.1564521790 -0.0103499852
v 0.0996946171 0.1677223891 -0.1796469986
v 0.1566948444 0.3207013607 0.0571268536
v -0.1822323203 -0.3940135837 -0.1056257710
v -0.0390417986 -0.3191625476 0.1637993157
v -0.2267234027 0.0722313970 -0.1356983930
v -0.2356232703 0.0879717991 -0.1010793820
v -0.2264987975 0.1138257980 -0.1349167973
v -0.2365189940 0.1508973986 0.0334727988
v 0.1072554514 0.0590955652 -0.1899978071
v -0.0825266615 0.0863562822 -0.1893310696
v 0.0804895610 0.0920443758 -0.1878629178
v -0.0921159834 -0.0735125169 0.1507400125
v -0.1553094089 -0.0852370337 -0.1755971611
v 0.0801369995 -0.1887499988 0.1458780020
v -0.1163529977 0.2350410074 0.0307170004
v -0.1051153168 0.2695961893 0.0574883036
v -0.1463509947 0.2351974994 0.0359715000
v -0.0731386691 -0.3865340054 -0.1467253268
v 0.2303359956 0.3210499883 0.0351979993
v -0.2365610003 0.1084375978 0.0330992006
v 0.1483139694 -0.1623027921 0.1091077775
v 0.1902610660 -0.1550966352 -0.1598124206
v 0.0364789218 -0.0478729829 0.1483753175
v 0.0433933325 -0.3168532252 -0.1601509303
v 0.0565167069 -0.2291209400 0.1632075906
v 0.2364701927 0.1933363974 0.0338563994
v -0.0911711380 0.4006293416 -0.0904057249
v -0.1936427504 -0.2511342764 0.0906562880
v 0.2112409025 -0.1541116536 0.0572900400
v 0.1033471599 -0.2851760685 -0.1702275872
v -0.2403009236 0.2709585428 -0.0942918211
v -0.0757659897 -0.3943519294 -0.0183666386
v -0.0908583254 0.1290281862 0.0962532088
v 0.1045498773 -0.3902940750 -0.0976503193
v 0.1581636220 -0.2261589915 0.1133837774
v -0.2376993299 -0.3583480120 -0.0617576651
v -0.2321700007 -0.3913159966 -0.0985300019
v -0.2369900048 -0.3924610019 -0.0625569969
v 0.2428169996 0.2359919995 0.0213660002
v -0.2265485972 -0.0127830002 -0.1373270005
v -0.2199119925 -0.3897059858 -0.1456789970
v -0.1189146116 0.1220543534 -0.1832080930
v 0.1477139890 -0.0851613507 0.1259994656
v 0.1764335334 -0.0656096786 0.0976883695
v 0.1617870033 0.2378830016 -0.1450559944
v 0.0355226733 -0.3526595831 -0.1534558684
v 0.2247409970 -0.1888030022 0.0444200002
v 0.0485520139 0.2863125801 -0.1680238098
v 0.1148872301 0.2107709646 0.0584108345
v 0.1036373824 -0.0232049171 -0.1916799843
v -0.2290409952 0.3420079947 -0.0443350002
v -0.1778237373 -0.3114487827 -0.1576181501
v 0.0364724360 0.0524832681 0.1204921678
v 0.0002656667 0.0747780055 0.1038756669
v 0.0002933333 0.0387340002 0.1166853309
v -0.2093449980 0.3551369905 0.0354989991
v 0.0000910000 -0.2841930091 -0.1492349952
v -0.2102382928 -0.3933093548 -0.0085583711
v -0.1497954875 0.0048376592 -0.1772846729
v -0.0440997854 -0.3955172002 0.0981189907
v 0.1463485658 0.0013229899 -0.1797331423
v 0.2403836697 0.1493106931 -0.0919196457
v 0.0309449993 -0.1886730045 0.1566469967
v 0.0575359985 -0.1887120008 0.1523170024
v 0.0409766436 0.0900676250 0.1079929024
v 0.0002380000 0.1108219996 0.0910660028
v 0.2165769935 0.3488790095 0.0354619995
v -0.1534126699 -0.0402348228 -0.1759960651
v -0.1887821555 -0.0132621471 -0.1550898850
v -0.2077603936 0.0087314639 0.0579385497
v -0.2107958496 0.0462692119 0.0532928668
v -0.2362714261 -0.1167633310 -0.0974675044
v -0.0779342726 -0.0492480211 -0.1872270554
v 0.0791352838 0.3383176923 0.0505728871
v -0.2180951238 -0.1776669174 -0.1458373666
v -0.2253503948 -0.1430429965 -0.1398680061
v -0.2061849982 -0.1859129965 -0.1544149965
v 0.2267130017 0.0722113997 -0.1356886029
v 0.2369350046 -0.3924820125 -0.0625469983
v 0.1975149959 -0.3918299973 -0.0627576634
v 0.2366998047 -0.0614215955 0.0316152014
v -0.0434430353 0.2108632326 0.0686563253
v -0.0317099988 0.2338549942 0.0580100007
v -0.0000500000 -0.0995861962 -0.1517300010
v -0.0391533338 -0.3892183304 -0.0636020005
v -0.1563084126 -0.1254478693 -0.1738403887
v -0.0399028212 0.1012693793 0.1036655903
v 0.2243379951 0.2356480062 0.0418329984
v -0.1822959930 -0.1885250062 0.0620080009
v -0.2003939152 -0.1526397914 0.0651130155
v 0.1823067367 -0.0149944294 -0.1584797055
v 0.1727005690 0.0734637007 -0.1631599367
v -0.2430332303 -0.2254665196 -0.0196422674
v -0.1561336070 0.3891945183 -0.0020533826
v 0.2215463370 -0.3219776750 -0.1440143287
v 0.2207036614 -0.3558513224 -0.1448416710
v -0.2302960008 0.3210709989 0.0351880006
v -0.2222680002 0.3412359953 0.0353859998
v -0.1990689337 0.3256123960 0.0448921882
v 0.1028192416 -0.1527175158 -0.1720162183
v 0.2429524809 -0.0314285271 -0.0115671773
v 0.2208710015 0.2906509936 -0.1315699965
v 0.0427343957 0.1868067980 -0.1712775826
v -0.1433623284 0.1998827606 -0.1678912491
v -0.2107003778 -0.0730439574 0.0571971536
v -0.2216469944 0.3532150090 -0.0439839996
v -0.1503293961 0.3420432210 -0.1477897465
v -0.0408052914 -0.3239147961 -0.1590659022
v 0.2062010020 0.2355089933 0.0439999998
v 0.0665609986 0.2345000058 0.0368059985
v 0.1118254364 0.3084771037 0.0618344545
v 0.1615075469 0.0761903226 0.0943961442
v -0.1636749357 -0.2859994769 0.1297107190
v -0.0422878116 0.3101962209 -0.1678069681
v -0.2329567969 -0.3477829397 -0.0966176093
v 0.2234629989 0.2749319971 -0.1318700016
v -0.2259797454 0.3493646681 -0.0034210186
v -0.1928759366 0.0920700803 -0.1515810639
v -0.1974226683 -0.3918123245 -0.0627660006
v 0.2379689962 -0.3940509856 -0.0087130005
v 0.2034323215 0.1428220421 0.0545483790
v 0.0004543333 -0.2790073454 0.1603686661
v -0.0459513068 -0.2362937033 0.1641997844
v 0.2494319975 0.2373159975 -0.0472199991
v 0.2489610016 0.2366909981 -0.0184799992
v 0.0818405598 0.3913636208 0.0013537244
v -0.1223292872 -0.1501505971 -0.1724610031
v 0.1037179977 0.3981375098 -0.0421045013
v -0.0805869401 -0.0969626680 -0.1806385815
v 0.2381567657 0.0582084581 -0.0935547650
v 0.1186750010 -0.3905259967 -0.0631790012
v 0.1580950022 -0.3911780119 -0.0629683360
v 0.0000870000 0.3909809887 0.0033780001
v 0.0001010000 0.3809109926 0.0230379999
v -0.2343399972 0.2384220064 -0.1154929996
v -0.2436310053 -0.0960173383 -0.0555503331
v -0.1414799988 -0.1885759979 0.0953129977
v 0.1749718338 0.0418762192 0.0882414132
v -0.2385790050 -0.2348670065 0.0301280003
v -0.0824138746 -0.1431951821 -0.1720885932
v -0.0991170034 -0.1843490005 -0.1600890011
v 0.2253700048 -0.3974530101 0.0289680008
v -0.2354635745 0.3090926111 -0.0905619264
v 0.1102787480 0.0269427616 0.1301839948
v 0.0948295370 -0.2505500317 -0.1711288542
v 0.0739869997 0.4005630016 -0.0419019982
v 0.1414369941 -0.1885879934 0.0953190029
v 0.1415773034 0.2046837509 -0.1636447608
v 0.2122976482 -0.3584182858 0.0617594719
v -0.0890000015 0.2348279953 0.0306349993
v -0.0814888775 0.2071937174 0.0638098940
v 0.0880469978 0.2084142119 -0.1695322543
v 0.2247260064 -0.3953849971 0.0388160013
v -0.2398276627 -0.2560090125 -0.0593593344
v 0.1452898979 -0.0429058522 0.1280558109
v -0.0465858281 -0.3894616365 -0.1108068377
v 0.1956870407 -0.0118646966 0.0722511411
v -0.2366770059 -0.3789680004 0.0290680006
v 0.2414603084 0.2798734307 -0.0903039500
v -0.2428124696 -0.2605932355 -0.0071229432
v 0.2427465022 -0.2314519137 -0.0155765405
v 0.2418545038 -0.1881754994 -0.0303509999
v -0.2332089990 0.2357659936 0.0374590009
v -0.2364349961 0.2358170003 0.0342199989
v -0.2138489932 -0.3957099915 0.0502130017
v 0.2357247174 0.0135778720 -0.0944092646
v 0.0764669999 0.2346650064 0.0330919996
v 0.0000910000 0.3976629972 -0.0180629995
v 0.0398712642 0.3942470551 -0.0021729472
v -0.0812400728 0.1682055146 0.0802824795
v 0.1826188266 0.0327359177 -0.1580542922
v 0.0495273359 0.3701323271 0.0353830010
v -0.2224310040 -0.2880840003 -0.1431970000
v -0.0526752062 0.1915636063 -0.1698691398
v 0.1700896174 0.1698755026 0.0682838485
v -0.0493040010 0.3701370060 0.0353810005
v -0.0987280011 0.3700279891 0.0354479998
v -0.2487433404 0.1374553293 -0.0498309992
v 0.2412099987 -0.1878039986 -0.0577489994
v 0.2424059957 -0.1419215053 -0.0566441678
v 0.2223380059 0.3412150145 0.0353959985
v -0.0441609137 -0.0810186639 -0.1771284938
v -0.0149250003 0.2337509990 0.0623629987
v -0.0483064987 -0.3960174918 0.0299529992
v -0.0971240029 -0.3994770050 0.0296599995
v -0.1282059997 -0.4008004963 0.0294684991
v -0.1174082085 -0.0666628256 -0.1877607554
v -0.2354709953 -0.1870280057 -0.1050660014
v 0.0983591974 -0.2197196931 0.1518969238
v 0.2044654042 -0.0464052372 0.0644174889
v 0.1506210417 0.1144449562 0.0898281932
v -0.1390548348 -0.3093804121 0.1398156434
v -0.1366663873 -0.1635056734 0.1208826452
v 0.1916804016 0.1879201084 -0.1532629579
v 0.1088302135 -0.1144772172 -0.1809005737
v 0.2262710035 0.1554002017 -0.1341257989
v 0.2057103962 -0.0830952078 0.0635039955
v 0.2367382050 -0.1038813964 0.0312418006
v 0.2420465648 -0.1180298552 -0.0128842490
v -0.0764380023 0.2346709967 0.0330879986
v -0.2366871983 -0.0189415980 0.0319783986
v -0.1888916641 -0.1488091946 -0.1603485346
v -0.1456329823 -0.3522431254 0.1185607985
v -0.0664969981 0.2345059961 0.0368040018
v -0.2358701825 -0.0745845214 -0.0965622514
v 0.0991960019 -0.3983449936 0.1463209987
v 0.1154989973 -0.3981519938 0.1398320049
v 0.1463474929 0.2351845056 0.0359775014
v 0.2139023691 0.3567855954 0.0000683911
v 0.1451343447 -0.3972927332 0.0599863827
v 0.1595329940 -0.4021379948 0.0292840004
v -0.2299859971 -0.3950890005 0.0289619993
v -0.1204034239 0.2025258094 0.0650234669
v -0.1887018681 -0.0656280816 -0.1569089592
v -0.1610613912 0.1845665425 0.0684882104
v 0.0303651374 0.3379775882 -0.1575180888
v -0.1361849010 -0.2199655324 0.1309970319
v -0.0868622065 0.3154131174 -0.1685043275
v -0.1037517115 -0.2928260863 0.1600295752
v 0.0608185790 -0.2813227773 -0.1667206734
v -0.2412584722 -0.3487846553 -0.0143132145
v -0.0289431401 0.0061767823 -0.1760722548
v -0.0568230003 -0.1887069941 0.1523150057
v 0.1279147863 0.3978436291 -0.0914417356
v 0.2008160055 0.3600740135 0.0355370007
v 0.2258290052 0.2385890037 -0.1325629950
v 0.0339467004 -0.3957936764 0.1036449596
v -0.1154730022 -0.3981420100 0.1398269981
v -0.2412469983 -0.1877830029 -0.0577600002
v -0.2405373305 -0.2218960077 -0.0585596673
v 0.2472479939 0.2378109992 -0.0712060034
v 0.2422699928 0.2381349951 -0.0931970030
v 0.2397853285 -0.2560299933 -0.0593483336
v 0.2390729934 -0.2901430130 -0.0601480007
v 0.0766421407 0.0573678352 0.1216937080
v 0.2257243991 -0.0996430069 -0.1390116066
v 0.0690192282 0.0146561600 0.1344410032
v 0.0840272233 -0.0963692516 0.1546075940
v -0.1917326152 0.1369913816 -0.1529300064
v 0.1115875021 0.3420022726 -0.1578760147
v -0.1021147147 0.0349721648 -0.1935086250
v -0.2101245672 -0.0320012867 0.0591876544
v 0.0780744404 -0.1392423362 0.1559755653
v 0.1939893812 0.2165390998 -0.1510906219
v 0.1733528823 -0.0271821730 0.1006779224
v -0.0000660000 -0.1834370047 -0.1512220055
v -0.0744729638 0.3937399983 -0.0005052714
v 0.0152220000 0.2337500006 0.0623629987
v -0.2249509990 -0.1864629984 -0.1407150030
v 0.2131160051 0.3629049957 -0.0436559990
v 0.2032310069 0.3712269962 -0.0433680005
v -0.1056833789 0.3479841948 -0.1530300975
v -0.1201450005 0.3793250024 -0.1298760027
v -0.0328174159 0.1400136799 -0.1733709425
v -0.0769874677 -0.3163434565 0.1628684998
v 0.1077517867 -0.3982152641 0.0835571513
v -0.1248875633 0.3397319317 0.0494565405
v 0.2336730808 -0.2357696891 -0.1024617702
v 0.2310489863 0.3233219385 -0.0932839811
v 0.2231390029 0.2385910004 -0.1347160041
v 0.2354709804 -0.1246441007 -0.0988147259
v -0.1211206764 -0.3990783095 0.0633933768
v -0.2418925017 -0.1881539971 -0.0303620007
v -0.1358892322 0.3025766909 0.0630594641
v 0.1102263033 -0.0624742508 0.1477552652
v -0.2368137985 -0.1463204026 0.0308576003
v -0.2031120062 0.3712430000 -0.0433770008
v 0.1393600106 0.1413479745 -0.1787571609
v -0.0370044485 0.2695006430 -0.1653131694
v 0.2097218186 0.3598678410 -0.0879630446
v 0.0477888398 -0.2417437285 -0.1646351814
v -0.0176129378 0.1703611463 -0.1714153439
v 0.0734526664 -0.3865406811 -0.1467220038
v 0.0587641150 -0.0203098319 -0.1855415702
v 0.0414683111 -0.0951275229 0.1573293656
v 0.1016653702 -0.3446499109 0.1499030441
v -0.2234449983 0.2749519944 -0.1318800002
v 0.1794990003 0.3841240108 -0.0428740010
v 0.0695647150 -0.2734773457 0.1647595614
v 0.0994003564 -0.2995842695 0.1615367979
v -0.1628425121 -0.0679119751 0.1128835008
v -0.2436859161 0.0086001903 -0.0100283753
v -0.2472070009 0.0416311659 -0.0522358343
v -0.2460149974 -0.0042516696 -0.0533406660
v -0.2231349945 0.2386109978 -0.1347260028
v -0.2258249968 0.2386090010 -0.1325719953
v 0.0001460000 0.2997139990 0.0591359995
v 0.2453188449 0.2045822144 -0.0006727165
v 0.2094510049 0.3551189899 0.0355079994
v -0.0980371311 0.1983728558 -0.1711248755
v 0.0377884023 0.2087161392 0.0702979788
v -0.2241110057 -0.2203366607 -0.1415423304
v -0.2232709974 -0.2542103231 -0.1423696727
v -0.1795469224 -0.3552958071 0.0889145806
v -0.1343468577 -0.3912488818 -0.1042302772
v -0.1288625002 -0.1847299933 -0.1607735008
v -0.1586080045 -0.1851110011 -0.1614580005
v 0.1620890051 0.3676959872 -0.1300970018
v -0.0000014000 0.1519661993 -0.1532534063
v -0.0000096000 0.1100407913 -0.1529995948
v -0.1465114951 0.1333265305 0.0885261148
v 0.2388065159 0.1032986119 -0.0922218338
v -0.2403735071 -0.3083780110 0.0295724999
v -0.2152451575 -0.2833272815 0.0676154718
v -0.1416477412 -0.1293827891 0.1250146925
v 0.1788017750 -0.2148279101 0.0866852477
v -0.1190874130 -0.1107351333 -0.1813746691
v 0.1785757840 -0.3918798864 -0.1018922776
v 0.1719543338 0.0094351601 0.0967585370
v 0.1005304977 0.2877761722 -0.1719796956
v 0.2240750045 -0.2203566730 -0.1415330023
v 0.2061460018 -0.1859309971 -0.1544059962
v 0.0891628265 0.4003546536 -0.0817226470
v 0.1387837976 -0.3916748166 -0.1030100584
v -0.2429634035 -0.0352014601 -0.0109685678
v 0.2345860004 0.2934870124 0.0348999985
v -0.1881407499 0.1903078258 -0.1544060111
v -0.2430006415 -0.0809841454 -0.0115904491
v -0.1056245118 0.0201509185 0.1331043094
v -0.2425627857 -0.1323329955 -0.0127227493
v -0.1935682893 -0.2180274129 0.0781276971
v -0.0745545328 -0.3524318933 0.1559740454
v -0.1332370043 0.3957239985 -0.0423129983
v 0.0325889960 -0.2583418489 0.1632638574
v 0.0417286232 -0.2873986661 0.1648567766
v -0.2215913385 -0.3219580054 -0.1440243274
v 0.0995778441 0.2730819285 0.0612416938
v 0.2349419594 -0.0768243074 -0.0967938527
v -0.2207516730 -0.3558320105 -0.1448516697
v -0.1623830050 -0.1884929985 0.0746020004
v 0.1383707821 -0.3002918661 0.1467586309
v -0.2024788857 0.1871881187 0.0541581623
v -0.1848309934 -0.1855150014 -0.1592890024
v 0.0004410000 -0.1599439979 0.1570685059
v 0.0490288995 0.2641441822 0.0662669316
v -0.1819623560 -0.2259274572 -0.1619419605
v -0.1465253383 -0.3881199956 -0.1462023407
v -0.1832186729 -0.3889130056 -0.1459406614
v 0.0703090057 -0.3953234851 0.1136167571
v -0.1230639964 -0.1887540072 0.1206749976
v -0.1036740020 -0.1887730062 0.1351770014
v 0.1039009988 -0.1887830049 0.1351819932
v 0.2015019953 0.1932974905 0.0543719307
v 0.0004610000 -0.1886419952 0.1581899971
v -0.1915420294 0.3808430731 -0.0083692558
v -0.1889901906 -0.2866138220 0.1009768695
v -0.1779291183 -0.3515388370 -0.1540042311
v -0.2169358283 -0.2149620950 0.0536523536
v -0.2395917475 0.1980498731 -0.0964764059
v 0.1945260465 0.1065381616 -0.1514593512
v 0.0497185625 0.1342648715 -0.1790715754
v 0.1777420044 -0.3964619935 0.0737930015
v 0.2137890011 -0.3957290053 0.0502219982
v -0.1450680494 0.0449762605 -0.1784309745
v -0.1736776382 -0.3210738897 0.1128484607
v -0.2044820935 -0.3206898570 0.0786090568
v -0.1853685528 0.0405229256 -0.1555574834
v -0.1597439945 -0.3968529999 0.0884519964
v 0.2317299992 -0.1888259947 0.0386539996
v -0.0796269998 -0.1887429953 0.1458739936
v 0.2253212035 -0.1430630088 -0.1398587972
v 0.2354360074 -0.1870490015 -0.1050560027
v 0.2368150055 -0.1888010055 0.0304949991
v 0.0667909980 0.3847180009 -0.1297560036
v 0.0686041117 -0.0655663311 0.1528449655
v -0.2355030030 0.2646625042 0.0345549993
v -0.2345709950 0.2935079932 0.0348899998
v -0.2332923263 -0.3060583770 -0.1033105701
v 0.0432565883 0.1733667254 0.0808434188
v -0.2422669977 0.2381560057 -0.0932070017
v 0.0682806373 -0.3161014020 0.1634001732
v -0.2472469956 0.2378329933 -0.0712170005
v -0.0807995051 -0.3497174084 -0.1548130959
v 0.0377800912 -0.1432038397 -0.1650243849
v -0.0939622447 -0.2228659689 0.1532869190
v -0.1176508367 0.3916011155 0.0012242281
v -0.2443822324 0.2913653851 -0.0031731757
v 0.0403379984 -0.3986920118 0.1555539966
v -0.2368559986 -0.1887799948 0.0304840002
v -0.2407850027 -0.1886799932 0.0155239999
v 0.1466470808 -0.0952507704 -0.1791660339
v 0.0000068000 0.1938915998 -0.1535072029
v 0.2291039973 0.3419870138 -0.0443239994
v 0.2441183627 0.0165934116 -0.0093763350
v 0.0821008831 -0.2157743275 -0.1677757204
v 0.0494805016 -0.1838974953 -0.1556535065
v -0.1763489991 0.2353540063 0.0412259996
v 0.1411979944 -0.3973990083 0.1093849987
v 0.1596820056 -0.3968670070 0.0884590000
v 0.2354139984 -0.3945870101 0.0101290001
v -0.2326519936 -0.3917100132 0.0289820004
v 0.2366189957 -0.3789890110 0.0290779993
v 0.0754464567 0.2055889517 0.0656935498
v 0.2459940016 -0.0042739944 -0.0533296652
v 0.0000870000 0.3001869917 -0.1544539928
v 0.0001300000 0.3337990046 -0.1518259943
v 0.0000510000 0.2680020034 -0.1541074961
v -0.2384086698 -0.3242349923 -0.0609583333
v -0.2354719937 -0.3945659995 0.0101190004
v -0.0451412797 -0.0656136349 0.1528647691
v 0.0355233699 -0.1428302377 0.1595168561
v 0.2321159989 -0.3913370073 -0.0985200033
v -0.0712449998 -0.3985440135 0.1522440016
v -0.0990149975 -0.3983359933 0.1463170052
v 0.2217289954 0.3531970084 -0.0439740010
v -0.1360065937 -0.0904746205 0.1351230145
v 0.1740189195 -0.3571752906 0.0941851139
v 0.1488566399 0.3437636495 -0.1487637609
v 0.2264920026 0.1138057932 -0.1349072009
v 0.0004576667 -0.2338246703 0.1592793316
v -0.0300820004 -0.1886699945 0.1566459984
v -0.1591022909 0.1116478518 -0.1709524244
v 0.2351308763 0.3197049797 -0.0043445113
v -0.1627065837 0.0738954619 -0.1686825007
v -0.0349835567 -0.3932118416 -0.0080810720
v 0.0004620000 -0.3905639946 -0.0167830009
v 0.2367766052 -0.1463412046 0.0308683999
v 0.0617567711 -0.3971746266 0.0700548738
v 0.0001530000 0.2337359935 0.0633020028
v 0.2403219938 -0.3083989918 0.0295829996
v 0.2403910011 -0.3358229995 0.0293830000
v -0.0511392280 -0.2725852430 -0.1642267704
v -0.0899483562 -0.3071877658 -0.1652313620
v 0.0001990000 0.3859780133 -0.1297149956
v 0.0004835000 -0.3941105008 0.0618930012
v 0.2298389077 -0.3398967087 -0.1021986529
v -0.1617749929 0.2378980070 -0.1450629979
v 0.0001200000 0.3702459931 0.0353140011
v 0.1898386180 -0.2508769035 0.0934858993
v 0.1294980049 -0.2216435820 -0.1694187373
v -0.0827965885 -0.0252071079 0.1443590373
v -0.1394014210 0.0566588342 0.1159653664
v 0.1224555001 0.2373639941 -0.1477729976
v -0.0787165985 -0.1503767967 0.1566795111
v 0.0846201554 0.2475129813 0.0530204661
v -0.1128419712 -0.1494100243 0.1400769651
v -0.2183500528 -0.2484087944 0.0592079014
v -0.0187377557 -0.0570138246 -0.1726659834
v -0.2356168330 0.0116757853 -0.0948206782
v -0.1778275073 0.3799118102 -0.0906915218
v -0.2370154858 0.0523434430 -0.0947063342
v -0.1156168953 0.2811108828 -0.1704779118
v 0.1266680062 -0.3979290128 0.1313350052
v 0.1245872900 0.3898794651 0.0014165401
v -0.1038788855 -0.1145414189 0.1498905271
v -0.2366449982 0.0235179998 0.0323520005
v -0.0376001373 -0.2298583537 -0.1592511833
v 0.0792546719 -0.3898740113 -0.0633896664
v 0.0395137705 -0.3927379549 -0.0169773605
v -0.0377588421 0.3258663416 0.0583153069
v 0.0490979999 -0.3960219920 0.0299549997
v -0.1267260015 -0.3979179859 0.1313299984
v 0.0002120000 0.3941890001 -0.1148710027
v -0.2403019965 -0.2809540033 0.0297720004
v -0.2432020456 -0.2999508977 -0.0184587203
v -0.1625826806 0.3321221769 0.0521257631
v -0.2428324074 0.0872733742 -0.0005629600
v -0.1923801601 0.2877777219 0.0537389331
v 0.2402530015 -0.2809750140 0.0297829993
v 0.2431423664 -0.3013029099 -0.0180009436
v -0.2130160034 0.3629240096 -0.0436649993
v 0.0000150000 0.2358170003 -0.1537609994
v -0.0790175349 -0.2250199765 -0.1664438546
v 0.0240138620 -0.2144100070 -0.1589760333
v 0.2198610008 -0.3897249997 -0.1456689984
v -0.1283815503 -0.0495862551 0.1394365132
v 0.1290760338 -0.3114724159 -0.1673989445
v 0.1439213455 0.2707260549 0.0605360009
v -0.2409262955 0.1555717885 -0.0901723504
v -0.1129910126 -0.0189823899 -0.1931080073
v 0.2232320011 -0.2542303205 -0.1423600018
v 0.1808527261 -0.2291382849 -0.1619499028
v -0.2391179949 -0.2901220024 -0.0601590015
v -0.1369561553 0.3954314590 -0.0868572220
v 0.0761270747 -0.3500949144 -0.1558355689
v -0.0852191448 0.3216457367 0.0582359582
v 0.0469713397 0.4021552205 -0.0872049257
v -0.1204572469 0.0949901864 0.1061674505
v 0.2420475930 -0.3338559568 -0.0167846251
v 0.1655641496 -0.2707195282 0.1223805100
v 0.1100549996 -0.3873369992 -0.1464589983
v 0.1466570050 -0.3881329894 -0.1461956650
v -0.0449277274 0.0478731506 -0.1831228435
v -0.0000260000 0.0261899997 -0.1524920017
v -0.0364453346 -0.3857409954 -0.1469866633
v 0.2471899986 0.0416084938 -0.0522248335
v 0.0001956667 -0.3513630033 -0.1479103267
v -0.1034860015 0.3981474936 -0.0421090014
v 0.1791220307 0.3114525974 -0.1531786919
v 0.0334950015 0.3853479922 -0.1297354996
v 0.2404976636 -0.2219170034 -0.0585486665
v -0.1224389970 0.2373750061 -0.1477780044
v 0.0003445000 -0.0279130004 0.1375640035
v 0.0003210000 0.0026900000 0.1294949949
v 0.2009509802 -0.0492679179 -0.1493266523
v 0.2424629480 0.1324065626 0.0002192268
v 0.2365083992 0.1508768052 0.0334828012
v -0.1560226530 0.1549832970 -0.1689491272
v 0.1822540015 -0.1885409951 0.0620170012
v -0.0961582065 -0.3958930969 0.1034009978
v 0.1623400003 -0.1885070056 0.0746100023
v 0.1481481045 0.0379212424 0.1152479574
v 0.1444676220 -0.0013485273 0.1237705946
v 0.2127130032 0.3175730109 -0.1310569942
v -0.2154935896 0.3522746563 -0.0875889659
v -0.0897925049 0.0566579774 0.1229989603
v 0.2269340008 0.0306170005 -0.1364700049
v -0.1574691683 0.2660697401 0.0557579100
v 0.0989346728 0.3700186610 0.0354520008
v 0.2366230041 0.0234980006 0.0323619992
v 0.0001495000 0.2667250037 0.0612189993
v -0.1618539989 0.3677119911 -0.1301050037
v 0.2355089933 0.2646414936 0.0345650017
v -0.1492339969 0.3723999858 -0.1300130039
v 0.2131123841 -0.2306189537 0.0632081404
v 0.1483419985 0.3699049950 0.0355210006
v -0.0765907913 0.1422785223 -0.1827479899
v 0.0319669992 0.2338529974 0.0580120012
v -0.1207620874 0.1637724936 0.0807537884
v 0.0835928470 0.0964826122 0.1090580598
v 0.1181064621 -0.1111234277 0.1446642727
v -0.1565630585 -0.1594837010 -0.1691746563
v 0.1585469991 -0.1851260066 -0.1614509970
v 0.1473229229 -0.1425891370 -0.1733095646
v 0.1287869960 -0.1847420037 -0.1607680023
v -0.1522718519 0.0156981610 0.1163200215
v 0.0398343354 -0.3892219961 -0.0636003315
v -0.1819260716 -0.0040590363 0.0880404860
v 0.0731362626 -0.3945245147 -0.0148428185
v 0.2366614044 -0.0189617984 0.0319885984
v -0.0495915003 -0.1838929951 -0.1556555033
v 0.2325627059 -0.2884440720 -0.1020632386
v 0.1847829968 -0.1855320036 -0.1592810005
v 0.0005110000 -0.3925580084 0.0302460007
v -0.0355220623 -0.0239483826 0.1431712210
v 0.0003680000 -0.0585159995 0.1456329972
v -0.2367293984 -0.0614011958 0.0316048004
v 0.1457786709 -0.0453826711 -0.1803990602
v 0.1230460033 -0.1887640059 0.1206810027
v -0.2425380051 -0.1885250062 -0.0029640000
v -0.2306630015 -0.1867620051 -0.1253789961
v -0.2247830033 -0.1887830049 0.0444100015
v -0.2317710072 -0.1888049990 0.0386440009
v 0.0831239969 0.2368450016 -0.1504900008
v 0.0415695012 0.2363310009 -0.1521254927
v 0.2307376415 0.2299356014 0.0363465101
v 0.1757663637 0.1355468333 -0.1618762463
v -0.2164900005 0.3488990068 0.0354520008
v 0.2097360045 -0.4006290138 0.0290169995
v 0.1286090016 -0.4008120000 0.0294739995
v 0.1771169007 -0.0733730942 -0.1636202484
v 0.1846345067 -0.4013834894 0.0291505009
v -0.2081647068 -0.1129590273 0.0609620996
v -0.0368009992 0.4010654986 -0.0417530015
v -0.0329484604 0.3932930231 0.0019419905
v 0.1701863408 -0.3170181811 0.1152328849
v 0.0004020000 -0.1054100022 0.1533309966
v 0.0004210000 -0.1312460005 0.1559469998
v 0.1497742385 0.2734778523 -0.1652407050
v 0.1200339273 0.3416408002 0.0481214635
v 0.1300404519 0.0848813653 -0.1854779124
v 0.0002150000 0.3996300101 -0.0930719972
v 0.1881554574 -0.2750046253 -0.1556490511
v -0.2097299993 -0.4006110132 0.0290089995
v -0.2254209965 -0.3974330127 0.0289590005
v 0.0001390000 0.3535569906 0.0462090001
v -0.2247850001 -0.3953660131 0.0388070010
v 0.1086346582 -0.0708936453 -0.1868759841
v -0.2402600050 0.3146750033 -0.0451410003
v -0.2469609976 0.2800700068 -0.0461010002
v 0.0679742470 -0.0554893576 -0.1848482192
v -0.0831030011 0.2368520051 -0.1504929960
v -0.0415440015 0.2363345027 -0.1521269977
v 0.0976850018 -0.3994860053 0.0296640005
v 0.1091559380 -0.3957079351 -0.0177250039
v 0.1714436859 0.3851229250 -0.0863311216
v -0.2404450029 -0.3358019888 0.0293729994
v -0.0396710001 -0.3986879885 0.1555519998
v 0.0004240000 -0.3674930036 0.1600199938
v 0.0004510000 -0.3241899908 0.1614580005
v 0.1702609062 -0.3105010688 -0.1594277322
v 0.1834424734 -0.3498775959 -0.1530904472
v 0.2446501851 0.0604775921 -0.0170507189
v -0.2262742072 0.1554201990 -0.1341352016
v -0.0000580000 -0.1415116042 -0.1514759958
v -0.2260496020 0.1970146000 -0.1333536059
v 0.2447980046 -0.0501565002 -0.0544345006
v -0.2452085763 0.1646599323 -0.0082057538
v 0.1783849597 -0.1484348178 0.0858353376
v -0.1653930247 0.0916837752 0.0893915147
v 0.0518889353 0.1317788661 0.0938355178
v 0.0869066417 -0.3159985542 -0.1642288119
v 0.1167328283 -0.1530652344 0.1377968639
v -0.0530428477 0.2761043012 0.0660165399
v 0.1835819930 0.3554840088 -0.1303330064
v 0.1494980007 0.3723889887 -0.1300069988
v 0.2003699988 0.3389799893 -0.1306480020
v 0.1204620004 0.3793120086 -0.1298699975
v -0.0424332097 0.0621853098 0.1176066324
v 0.2374520004 -0.3932664990 -0.0356299989
v -0.0519050136 0.0189316999 0.1324497014
v -0.1098320037 -0.3873269856 -0.1464640051
v -0.2448229939 -0.0501344986 -0.0544455014
v -0.0406187326 -0.0308177974 -0.1807792187
v -0.0000420000 -0.0576607957 -0.1519840062
v 0.0262107998 -0.0378426984 -0.1777033508
v -0.1927289367 0.1355540305 0.0622605383
v 0.0433169119 -0.3878363669 -0.1010260880
v 0.1177534238 0.0648617744 0.1176145747
v 0.1240436807 0.0981079116 0.1072210148
v 0.0748119205 -0.3867680132 -0.1140932217
v 0.0004290000 -0.3972154856 0.1251875013
v 0.0004020000 -0.3987680078 0.1568350047
v -0.0862639248 -0.2585267723 0.1627561599
v -0.1412609965 -0.3973860145 0.1093790010
v 0.0670792237 0.0143554071 -0.1877247244
v 0.2166705579 0.0043121702 0.0508848242
v 0.2466990054 0.2362699956 0.0046140002
v -0.2366030067 0.0659777969 0.0327255987
v -0.1906699687 -0.1096341163 -0.1588405520
v -0.2257498056 -0.0996230021 -0.1390209943
v 0.0716790035 -0.3985509872 0.1522469968
v -0.0932800025 0.3820244968 -0.1298175007
f 569//569 2//2 3//3
f 4//4 5//5 487//487
f 402//402 276//276 820//820
f 9//9 434//434 433//433
f 746//746 28//28 27//27
f 13//13 14//14 716//716
f 31//31 644//644 14//14
f 6//6 481//481 25//25
f 120//120 566//566 118//118
f 122//122 61//61 60//60
f 14//14 30//30 31//31
f 79//79 623//623 89//89
f 35//35 36//36 37//37
f 294//294 39//39 40//40
f 400//400 794//794 216//216
f 46//46 416//416 48//48
f 118//118 566//566 577//577
f 570//570 335//335 549//549
f 55//55 727//727 56//56
f 57//57 58//58 59//59
f 62//62 440//440 63//63
f 65//65 66//66 67//67
f 705//705 69//69 70//70
f 477//477 81//81 148//148
f 75//75 76//76 227//227
f 103//103 551//551 201//201
f 81//81 82//82 160//160
f 359//359 87//87 88//88
f 640//640 90//90 91//91
f 364//364 566//566 120//120
f 499//499 551//551 500//500
f 480//480 531//531 141//141
f 658//658 708//708 464//464
f 351//351 282//282 400//400
f 400//400 282//282 404//404
f 42//42 106//106 107//107
f 400//400 216//216 350//350
f 19//19 757//757 131//131
f 19//19 758//758 757//757
f 131//131 634//634 19//19
f 120//120 12//12 122//122
f 123//123 124//124 125//125
f 126//126 127//127 128//128
f 634//634 560//560 423//423
f 634//634 423//423 19//19
f 19//19 534//534 758//758
f 204//204 455//455 522//522
f 144//144 145//145 146//146
f 241//241 203//203 237//237
f 804//804 638//638 382//382
f 660//660 679//679 16//16
f 503//503 655//655 421//421
f 354//354 293//293 430//430
f 161//161 162//162 163//163
f 164//164 165//165 166//166
f 42//42 126//126 128//128
f 735//735 600//600 736//736
f 172//172 528//528 133//133
f 680//680 235//235 142//142
f 739//739 142//142 235//235
f 127//127 66//66 65//65
f 739//739 235//235 347//347
f 222//222 185//185 186//186
f 629//629 506//506 235//235
f 680//680 629//629 235//235
f 274//274 194//194 311//311
f 98//98 270//270 728//728
f 98//98 271//271 270//270
f 109//109 220//220 819//819
f 109//109 819//819 271//271
f 205//205 206//206 207//207
f 322//322 204//204 780//780
f 780//780 204//204 138//138
f 215//215 216//216 217//217
f 218//218 106//106 802//802
f 389//389 141//141 142//142
f 739//739 389//389 142//142
f 702//702 509//509 338//338
f 468//468 103//103 201//201
f 245//245 348//348 633//633
f 107//107 232//232 42//42
f 348//348 352//352 633//633
f 236//236 237//237 238//238
f 703//703 509//509 702//702
f 445//445 509//509 703//703
f 255//255 799//799 801//801
f 801//801 694//694 255//255
f 190//190 319//319 258//258
f 253//253 254//254 255//255
f 258//258 8//8 190//190
f 789//789 49//49 20//20
f 262//262 123//123 125//125
f 254//254 265//265 266//266
f 789//789 171//171 221//221
f 191//191 569//569 791//791
f 486//486 549//549 335//335
f 507//507 286//286 213//213
f 275//275 276//276 277//277
f 609//609 502//502 278//278
f 67//67 66//66 558//558
f 602//602 279//279 280//280
f 479//479 480//480 141//141
f 285//285 232//232 107//107
f 543//543 226//226 288//288
f 225//225 610//610 524//524
f 225//225 524//524 479//479
f 131//131 212//212 645//645
f 682//682 196//196 782//782
f 682//682 193//193 196//196
f 781//781 782//782 196//196
f 193//193 682//682 681//681
f 257//257 308//308 622//622
f 481//481 6//6 24//24
f 224//224 246//246 181//181
f 402//402 820//820 286//286
f 128//128 119//119 319//319
f 697//697 321//321 165//165
f 322//322 323//323 136//136
f 324//324 325//325 123//123
f 402//402 722//722 533//533
f 286//286 722//722 402//402
f 502//502 330//330 278//278
f 705//705 70//70 129//129
f 402//402 533//533 277//277
f 129//129 160//160 82//82
f 533//533 722//722 497//497
f 522//522 603//603 138//138
f 41//41 657//657 104//104
f 104//104 220//220 208//208
f 110//110 92//92 666//666
f 666//666 631//631 110//110
f 193//193 675//675 792//792
f 356//356 106//106 218//218
f 286//286 507//507 327//327
f 286//286 327//327 722//722
f 144//144 361//361 362//362
f 71//71 73//73 240//240
f 365//365 67//67 96//96
f 146//146 361//361 144//144
f 368//368 333//333 369//369
f 507//507 329//329 340//340
f 422//422 804//804 170//170
f 210//210 717//717 7//7
f 369//369 333//333 334//334
f 386//386 127//127 126//126
f 386//386 126//126 385//385
f 683//683 210//210 7//7
f 702//702 344//344 703//703
f 337//337 417//417 540//540
f 337//337 152//152 417//417
f 289//289 521//521 530//530
f 228//228 546//546 97//97
f 369//369 334//334 372//372
f 402//402 277//277 276//276
f 385//385 462//462 386//386
f 117//117 385//385 384//384
f 410//410 411//411 552//552
f 385//385 117//117 462//462
f 178//178 26//26 101//101
f 299//299 112//112 256//256
f 499//499 454//454 472//472
f 95//95 322//322 780//780
f 42//42 232//232 126//126
f 95//95 780//780 169//169
f 409//409 425//425 489//489
f 717//717 115//115 490//490
f 601//601 475//475 757//757
f 758//758 601//601 757//757
f 592//592 156//156 590//590
f 666//666 212//212 631//631
f 631//631 600//600 735//735
f 383//383 282//282 2//2
f 700//700 117//117 260//260
f 80//80 394//394 396//396
f 396//396 550//550 747//747
f 396//396 747//747 80//80
f 603//603 522//522 187//187
f 364//364 122//122 363//363
f 136//136 455//455 204//204
f 31//31 30//30 776//776
f 8//8 258//258 599//599
f 66//66 386//386 462//462
f 119//119 258//258 319//319
f 796//796 608//608 798//798
f 224//224 181//181 257//257
f 257//257 420//420 224//224
f 390//390 357//357 445//445
f 281//281 390//390 397//397
f 482//482 483//483 484//484
f 488//488 28//28 226//226
f 244//244 397//397 390//390
f 153//153 492//492 493//493
f 494//494 67//67 558//558
f 722//722 496//496 497//497
f 454//454 499//499 500//500
f 20//20 171//171 789//789
f 243//243 171//171 20//20
f 503//503 504//504 654//654
f 66//66 127//127 386//386
f 397//397 20//20 49//49
f 30//30 14//14 478//478
f 675//675 224//224 792//792
f 511//511 512//512 186//186
f 513//513 677//677 346//346
f 515//515 518//518 737//737
f 662//662 745//745 303//303
f 292//292 761//761 143//143
f 524//524 322//322 525//525
f 633//633 759//759 245//245
f 375//375 132//132 147//147
f 130//130 668//668 408//408
f 189//189 465//465 355//355
f 189//189 188//188 465//465
f 510//510 248//248 63//63
f 194//194 535//535 527//527
f 248//248 416//416 63//63
f 469//469 662//662 773//773
f 370//370 233//233 23//23
f 291//291 751//751 738//738
f 799//799 287//287 180//180
f 287//287 23//23 233//233
f 351//351 413//413 370//370
f 180//180 706//706 799//799
f 223//223 565//565 188//188
f 66//66 462//462 558//558
f 475//475 223//223 736//736
f 645//645 634//634 131//131
f 126//126 232//232 385//385
f 561//561 562//562 157//157
f 505//505 114//114 393//393
f 606//606 505//505 645//645
f 636//636 645//645 505//505
f 365//365 65//65 67//67
f 505//505 393//393 636//636
f 570//570 549//549 572//572
f 568//568 598//598 673//673
f 716//716 760//760 202//202
f 210//210 1//1 242//242
f 499//499 472//472 582//582
f 210//210 441//441 1//1
f 1//1 441//441 554//554
f 614//614 1//1 554//554
f 85//85 585//585 586//586
f 274//274 4//4 194//194
f 1//1 614//614 612//612
f 1//1 612//612 242//242
f 798//798 440//440 62//62
f 595//595 469//469 314//314
f 626//626 602//602 296//296
f 183//183 12//12 118//118
f 476//476 169//169 406//406
f 795//795 608//608 498//498
f 323//323 610//610 611//611
f 169//169 822//822 406//406
f 615//615 285//285 616//616
f 626//626 15//15 602//602
f 169//169 578//578 822//822
f 569//569 491//491 2//2
f 619//619 383//383 2//2
f 79//79 622//622 623//623
f 539//539 406//406 822//822
f 539//539 456//456 406//406
f 376//376 628//628 334//334
f 116//116 276//276 741//741
f 766//766 628//628 376//376
f 421//421 598//598 236//236
f 678//678 632//632 706//706
f 501//501 790//790 678//678
f 233//233 501//501 678//678
f 700//700 428//428 652//652
f 761//761 292//292 29//29
f 348//348 444//444 394//394
f 394//394 80//80 348//348
f 14//14 644//644 716//716
f 453//453 714//714 674//674
f 197//197 198//198 647//647
f 421//421 190//190 8//8
f 608//608 440//440 798//798
f 650//650 487//487 5//5
f 7//7 500//500 140//140
f 653//653 161//161 76//76
f 7//7 454//454 500//500
f 7//7 140//140 683//683
f 10//10 12//12 183//183
f 659//659 660//660 9//9
f 350//350 216//216 215//215
f 706//706 180//180 678//678
f 665//665 296//296 602//602
f 387//387 213//213 268//268
f 268//268 213//213 414//414
f 259//259 269//269 557//557
f 631//631 801//801 519//519
f 50//50 51//51 125//125
f 110//110 631//631 519//519
f 683//683 170//170 441//441
f 602//602 15//15 279//279
f 683//683 140//140 684//684
f 795//795 689//689 608//608
f 689//689 11//11 608//608
f 691//691 361//361 433//433
f 414//414 213//213 820//820
f 240//240 269//269 71//71
f 53//53 45//45 102//102
f 696//696 697//697 165//165
f 53//53 715//715 629//629
f 706//706 801//801 799//799
f 553//553 349//349 552//552
f 626//626 296//296 295//295
f 621//621 620//620 349//349
f 53//53 620//620 659//659
f 543//543 130//130 132//132
f 663//663 647//647 622//622
f 278//278 330//330 707//707
f 253//253 265//265 254//254
f 48//48 162//162 161//161
f 253//253 435//435 265//265
f 283//283 383//383 711//711
f 712//712 674//674 714//714
f 783//783 50//50 164//164
f 437//437 435//435 253//253
f 55//55 195//195 150//150
f 318//318 439//439 612//612
f 99//99 18//18 694//694
f 99//99 437//437 18//18
f 711//711 383//383 619//619
f 18//18 253//253 255//255
f 18//18 255//255 694//694
f 731//731 446//446 197//197
f 210//210 242//242 717//717
f 608//608 11//11 440//440
f 389//389 739//739 542//542
f 96//96 777//777 358//358
f 51//51 502//502 125//125
f 615//615 232//232 285//285
f 480//480 571//571 476//476
f 191//191 113//113 17//17
f 147//147 191//191 17//17
f 17//17 391//391 83//83
f 113//113 391//391 17//17
f 411//411 410//410 750//750
f 164//164 50//50 165//165
f 147//147 17//17 375//375
f 440//440 11//11 510//510
f 607//607 588//588 589//589
f 588//588 607//607 179//179
f 100//100 382//382 284//284
f 289//289 290//290 742//742
f 176//176 341//341 663//663
f 763//763 121//121 672//672
f 302//302 689//689 704//704
f 372//372 628//628 766//766
f 33//33 689//689 302//302
f 363//363 60//60 566//566
f 157//157 185//185 561//561
f 544//544 611//611 610//610
f 374//374 772//772 773//773
f 759//759 689//689 33//33
f 777//777 421//421 358//358
f 395//395 581//581 724//724
f 724//724 300//300 395//395
f 517//517 148//148 627//627
f 33//33 316//316 426//426
f 33//33 460//460 34//34
f 186//186 185//185 511//511
f 33//33 34//34 245//245
f 253//253 18//18 437//437
f 701//701 789//789 221//221
f 230//230 792//792 420//420
f 795//795 470//470 797//797
f 52//52 252//252 373//373
f 109//109 807//807 220//220
f 421//421 236//236 190//190
f 177//177 209//209 29//29
f 29//29 371//371 261//261
f 433//433 361//361 9//9
f 177//177 29//29 261//261
f 809//809 810//810 720//720
f 543//543 132//132 375//375
f 812//812 578//578 813//813
f 187//187 815//815 652//652
f 548//548 339//339 637//637
f 484//484 73//73 803//803
f 759//759 33//33 245//245
f 545//545 467//467 317//317
f 545//545 90//90 467//467
f 121//121 630//630 672//672
f 585//585 630//630 345//345
f 552//552 411//411 752//752
f 359//359 316//316 302//302
f 410//410 552//552 589//589
f 726//726 110//110 519//519
f 49//49 789//789 229//229
f 441//441 210//210 683//683
f 573//573 308//308 685//685
f 218//218 573//573 685//685
f 162//162 48//48 596//596
f 77//77 320//320 800//800
f 72//72 399//399 68//68
f 319//319 203//203 128//128
f 33//33 426//426 460//460
f 823//823 227//227 163//163
f 654//654 637//637 339//339
f 576//576 447//447 688//688
f 376//376 447//447 377//377
f 258//258 119//119 65//65
f 520//520 336//336 184//184
f 621//621 77//77 679//679
f 162//162 823//823 163//163
f 697//697 124//124 226//226
f 159//159 54//54 642//642
f 94//94 139//139 43//43
f 140//140 139//139 684//684
f 684//684 139//139 21//21
f 821//821 820//820 276//276
f 328//328 644//644 31//31
f 140//140 43//43 139//139
f 713//713 239//239 818//818
f 268//268 670//670 387//387
f 382//382 273//273 804//804
f 390//390 445//445 244//244
f 715//715 247//247 699//699
f 650//650 676//676 794//794
f 487//487 650//650 794//794
f 814//814 136//136 323//323
f 658//658 567//567 566//566
f 811//811 648//648 808//808
f 419//419 455//455 136//136
f 666//666 92//92 481//481
f 433//433 458//458 691//691
f 664//664 471//471 198//198
f 582//582 374//374 773//773
f 254//254 799//799 255//255
f 463//463 429//429 430//430
f 777//777 503//503 421//421
f 306//306 317//317 661//661
f 542//542 739//739 793//793
f 87//87 64//64 88//88
f 490//490 374//374 717//717
f 532//532 587//587 61//61
f 266//266 791//791 3//3
f 118//118 577//577 183//183
f 183//183 577//577 770//770
f 567//567 577//577 566//566
f 788//788 12//12 10//10
f 317//317 769//769 577//577
f 121//121 345//345 630//630
f 51//51 783//783 686//686
f 778//778 812//812 813//813
f 525//525 479//479 524//524
f 229//229 789//789 699//699
f 382//382 329//329 273//273
f 595//595 248//248 597//597
f 317//317 298//298 748//748
f 251//251 705//705 769//769
f 767//767 765//765 764//764
f 793//793 214//214 542//542
f 295//295 763//763 84//84
f 179//179 476//476 407//407
f 451//451 470//470 776//776
f 708//708 61//61 587//587
f 547//547 38//38 537//537
f 38//38 802//802 537//537
f 694//694 735//735 693//693
f 801//801 631//631 735//735
f 274//274 760//760 709//709
f 40//40 457//457 377//377
f 162//162 314//314 418//418
f 15//15 800//800 279//279
f 328//328 326//326 644//644
f 24//24 753//753 290//290
f 222//222 561//561 185//185
f 274//274 311//311 760//760
f 411//411 173//173 752//752
f 752//752 749//749 553//553
f 379//379 380//380 362//362
f 298//298 299//299 748//748
f 223//223 99//99 693//693
f 817//817 730//730 710//710
f 39//39 545//545 317//317
f 369//369 346//346 57//57
f 572//572 549//549 10//10
f 326//326 328//328 346//346
f 720//720 113//113 791//791
f 369//369 326//326 346//346
f 239//239 488//488 818//818
f 746//746 288//288 226//226
f 326//326 372//372 709//709
f 372//372 326//326 369//369
f 298//298 317//317 297//297
f 352//352 745//745 744//744
f 330//330 502//502 51//51
f 794//794 283//283 711//711
f 520//520 740//740 466//466
f 520//520 466//466 22//22
f 520//520 463//463 740//740
f 520//520 184//184 463//463
f 22//22 518//518 520//520
f 734//734 615//615 616//616
f 659//659 361//361 146//146
f 746//746 226//226 28//28
f 324//324 123//123 431//431
f 396//396 35//35 262//262
f 555//555 403//403 392//392
f 224//224 675//675 246//246
f 648//648 729//729 727//727
f 725//725 724//724 723//723
f 590//590 173//173 320//320
f 235//235 506//506 347//347
f 558//558 815//815 403//403
f 114//114 505//505 24//24
f 623//623 38//38 89//89
f 690//690 46//46 624//624
f 63//63 440//440 510//510
f 65//65 365//365 764//764
f 769//769 317//317 251//251
f 535//535 718//718 310//310
f 755//755 334//334 333//333
f 48//48 416//416 596//596
f 444//444 460//460 426//426
f 748//748 299//299 256//256
f 232//232 384//384 385//385
f 509//509 445//445 357//357
f 803//803 515//515 484//484
f 285//285 56//56 616//616
f 491//491 310//310 718//718
f 155//155 418//418 314//314
f 147//147 249//249 191//191
f 372//372 274//274 709//709
f 424//424 31//31 776//776
f 498//498 776//776 795//795
f 798//798 424//424 796//796
f 473//473 675//675 681//681
f 443//443 264//264 214//214
f 506//506 629//629 715//715
f 327//327 507//507 340//340
f 19//19 611//611 534//534
f 788//788 10//10 378//378
f 89//89 252//252 52//52
f 175//175 89//89 52//52
f 141//141 225//225 479//479
f 446//446 731//731 785//785
f 610//610 323//323 322//322
f 789//789 701//701 699//699
f 731//731 100//100 785//785
f 731//731 340//340 100//100
f 556//556 96//96 494//494
f 663//663 622//622 79//79
f 793//793 221//221 171//171
f 378//378 104//104 788//788
f 686//686 366//366 330//330
f 320//320 173//173 800//800
f 466//466 740//740 580//580
f 556//556 504//504 503//503
f 689//689 795//795 797//797
f 788//788 208//208 122//122
f 784//784 517//517 439//439
f 222//222 186//186 512//512
f 688//688 674//674 523//523
f 515//515 737//737 401//401
f 373//373 153//153 493//493
f 153//153 568//568 673//673
f 687//687 195//195 685//685
f 430//430 153//153 354//354
f 160//160 54//54 159//159
f 238//238 237//237 319//319
f 352//352 201//201 303//303
f 551//551 303//303 201//201
f 679//679 15//15 16//16
f 708//708 587//587 217//217
f 201//201 348//348 80//80
f 279//279 800//800 280//280
f 354//354 153//153 673//673
f 231//231 477//477 335//335
f 801//801 735//735 694//694
f 57//57 677//677 58//58
f 806//806 47//47 21//21
f 550//550 292//292 143//143
f 327//327 340//340 341//341
f 327//327 341//341 496//496
f 388//388 429//429 116//116
f 786//786 517//517 784//784
f 101//101 78//78 771//771
f 291//291 695//695 751//751
f 756//756 531//531 179//179
f 607//607 756//756 179//179
f 504//504 546//546 228//228
f 358//358 599//599 591//591
f 424//424 776//776 796//796
f 134//134 133//133 695//695
f 547//547 529//529 526//526
f 643//643 456//456 588//588
f 241//241 529//529 538//538
f 23//23 287//287 266//266
f 293//293 339//339 740//740
f 664//664 446//446 586//586
f 662//662 597//597 745//745
f 151//151 23//23 3//3
f 266//266 287//287 254//254
f 151//151 370//370 23//23
f 657//657 41//41 93//93
f 453//453 307//307 714//714
f 660//660 659//659 620//620
f 307//307 452//452 54//54
f 10//10 182//182 572//572
f 453//453 452//452 307//307
f 347//347 221//221 739//739
f 739//739 221//221 793//793
f 655//655 503//503 654//654
f 492//492 388//388 741//741
f 651//651 649//649 729//729
f 409//409 583//583 605//605
f 491//491 569//569 593//593
f 280//280 173//173 332//332
f 368//368 59//59 754//754
f 657//657 93//93 819//819
f 792//792 667//667 193//193
f 387//387 329//329 507//507
f 630//630 585//585 85//85
f 246//246 687//687 181//181
f 260//260 778//778 603//603
f 244//244 243//243 20//20
f 20//20 397//397 244//244
f 800//800 173//173 280//280
f 401//401 270//270 646//646
f 70//70 160//160 129//129
f 552//552 752//752 553//553
f 554//554 441//441 259//259
f 114//114 290//290 289//289
f 264//264 225//225 389//389
f 782//782 111//111 682//682
f 389//389 214//214 264//264
f 670//670 259//259 441//441
f 107//107 106//106 285//285
f 672//672 723//723 733//733
f 639//639 240//240 73//73
f 357//357 137//137 509//509
f 725//725 300//300 724//724
f 153//153 388//388 492//492
f 343//343 770//770 769//769
f 636//636 541//541 634//634
f 744//744 510//510 633//633
f 676//676 457//457 464//464
f 608//608 796//796 498//498
f 29//29 209//209 761//761
f 443//443 721//721 438//438
f 148//148 81//81 627//627
f 471//471 257//257 198//198
f 725//725 630//630 85//85
f 559//559 247//247 715//715
f 24//24 606//606 481//481
f 398//398 49//49 229//229
f 191//191 249//249 593//593
f 593//593 367//367 310//310
f 593//593 569//569 191//191
f 92//92 110//110 726//726
f 153//153 430//430 388//388
f 336//336 405//405 272//272
f 311//311 668//668 202//202
f 311//311 527//527 668//668
f 784//784 549//549 786//786
f 452//452 162//162 418//418
f 343//343 769//769 705//705
f 295//295 782//782 781//781
f 427//427 74//74 625//625
f 317//317 748//748 256//256
f 618//618 651//651 774//774
f 638//638 47//47 805//805
f 516//516 613//613 219//219
f 722//722 327//327 496//496
f 689//689 759//759 11//11
f 552//552 607//607 589//589
f 232//232 615//615 384//384
f 273//273 329//329 387//387
f 324//324 431//431 88//88
f 671//671 732//732 84//84
f 387//387 670//670 273//273
f 409//409 13//13 425//425
f 626//626 16//16 15//15
f 469//469 597//597 662//662
f 359//359 431//431 432//432
f 33//33 302//302 316//316
f 786//786 549//549 486//486
f 258//258 65//65 764//764
f 281//281 397//397 398//398
f 492//492 105//105 277//277
f 358//358 421//421 599//599
f 599//599 421//421 8//8
f 252//252 89//89 38//38
f 216//216 708//708 217//217
f 672//672 511//511 671//671
f 72//72 68//68 787//787
f 639//639 199//199 240//240
f 547//547 252//252 38//38
f 443//443 214//214 793//793
f 46//46 690//690 416//416
f 251//251 317//317 306//306
f 527//527 635//635 168//168
f 46//46 48//48 161//161
f 785//785 100//100 284//284
f 410//410 589//589 456//456
f 710//710 584//584 164//164
f 145//145 144//144 200//200
f 663//663 79//79 176//176
f 399//399 617//617 200//200
f 175//175 176//176 79//79
f 664//664 198//198 197//197
f 605//605 583//583 470//470
f 717//717 374//374 454//454
f 600//600 212//212 131//131
f 728//728 726//726 98//98
f 270//270 442//442 728//728
f 527//527 535//535 635//635
f 337//337 530//530 152//152
f 10//10 669//669 378//378
f 10//10 549//549 669//669
f 517//517 304//304 698//698
f 802//802 573//573 218//218
f 252//252 547//547 526//526
f 686//686 783//783 584//584
f 27//27 28//28 713//713
f 297//297 577//577 567//567
f 776//776 30//30 478//478
f 116//116 272//272 276//276
f 510//510 744//744 248//248
f 301//301 584//584 730//730
f 368//368 57//57 59//59
f 576//576 688//688 523//523
f 541//541 417//417 575//575
f 576//576 40//40 377//377
f 732//732 434//434 16//16
f 434//434 732//732 433//433
f 730//730 584//584 710//710
f 379//379 562//562 380//380
f 785//785 574//574 586//586
f 188//188 189//189 437//437
f 99//99 188//188 437//437
f 117//117 700//700 462//462
f 393//393 114//114 337//337
f 528//528 461//461 436//436
f 202//202 760//760 311//311
f 138//138 779//779 780//780
f 26//26 574//574 785//785
f 782//782 295//295 296//296
f 732//732 295//295 84//84
f 782//782 296//296 111//111
f 178//178 574//574 26//26
f 486//486 335//335 477//477
f 652//652 428//428 187//187
f 491//491 593//593 310//310
f 742//742 548//548 289//289
f 260//260 625//625 74//74
f 260//260 117//117 384//384
f 625//625 260//260 384//384
f 249//249 167//167 593//593
f 307//307 70//70 69//69
f 307//307 160//160 70//70
f 359//359 88//88 431//431
f 307//307 54//54 160//160
f 4//4 274//274 372//372
f 487//487 194//194 4//4
f 671//671 763//763 672//672
f 731//731 663//663 341//341
f 666//666 606//606 212//212
f 713//713 32//32 309//309
f 362//362 361//361 691//691
f 288//288 86//86 309//309
f 146//146 563//563 559//559
f 61//61 708//708 658//658
f 52//52 493//493 536//536
f 658//658 566//566 61//61
f 76//76 58//58 762//762
f 163//163 227//227 76//76
f 811//811 234//234 648//648
f 772//772 490//490 692//692
f 151//151 282//282 351//351
f 670//670 441//441 170//170
f 278//278 550//550 609//609
f 813//813 578//578 779//779
f 483//483 93//93 41//41
f 784//784 669//669 549//549
f 24//24 505//505 606//606
f 565//565 475//475 438//438
f 623//623 573//573 38//38
f 571//571 525//525 95//95
f 538//538 547//547 537//537
f 806//806 805//805 47//47
f 546//546 504//504 556//556
f 399//399 200//200 380//380
f 368//368 755//755 333//333
f 754//754 755//755 368//368
f 451//451 776//776 478//478
f 484//484 639//639 73//73
f 497//497 536//536 533//533
f 759//759 633//633 510//510
f 669//669 192//192 378//378
f 77//77 592//592 590//590
f 228//228 152//152 521//521
f 41//41 378//378 192//192
f 565//565 223//223 475//475
f 586//586 471//471 664//664
f 220//220 807//807 208//208
f 530//530 114//114 289//289
f 109//109 790//790 807//807
f 154//154 219//219 381//381
f 511//511 458//458 671//671
f 671//671 84//84 763//763
f 198//198 622//622 647//647
f 54//54 418//418 642//642
f 116//116 184//184 272//272
f 263//263 534//534 544//544
f 788//788 104//104 208//208
f 86//86 27//27 713//713
f 334//334 628//628 372//372
f 309//309 86//86 713//713
f 241//241 237//237 529//529
f 804//804 422//422 47//47
f 36//36 35//35 396//396
f 420//420 471//471 345//345
f 516//516 64//64 613//613
f 366//366 707//707 330//330
f 366//366 686//686 594//594
f 613//613 409//409 219//219
f 46//46 161//161 624//624
f 626//626 732//732 16//16
f 143//143 747//747 550//550
f 695//695 436//436 751//751
f 442//442 270//270 401//401
f 414//414 269//269 268//268
f 351//351 370//370 151//151
f 278//278 292//292 550//550
f 534//534 611//611 544//544
f 816//816 250//250 474//474
f 816//816 474//474 21//21
f 408//408 668//668 168//168
f 168//168 668//668 527//527
f 21//21 474//474 806//806
f 647//647 731//731 197//197
f 771//771 78//78 806//806
f 284//284 638//638 805//805
f 77//77 621//621 592//592
f 355//355 703//703 189//189
f 812//812 427//427 578//578
f 411//411 174//174 173//173
f 174//174 775//775 331//331
f 173//173 174//174 332//332
f 332//332 174//174 331//331
f 229//229 247//247 559//559
f 63//63 564//564 62//62
f 750//750 174//174 411//411
f 641//641 639//639 483//483
f 772//772 155//155 469//469
f 527//527 311//311 194//194
f 701//701 506//506 699//699
f 124//124 696//696 125//125
f 696//696 50//50 125//125
f 697//697 696//696 124//124
f 315//315 568//568 529//529
f 315//315 237//237 236//236
f 598//598 315//315 236//236
f 598//598 568//568 315//315
f 395//395 101//101 768//768
f 151//151 2//2 282//282
f 695//695 133//133 436//436
f 108//108 187//187 522//522
f 508//508 514//514 682//682
f 116//116 741//741 388//388
f 212//212 606//606 645//645
f 463//463 184//184 429//429
f 295//295 732//732 626//626
f 409//409 450//450 14//14
f 336//336 518//518 803//803
f 794//794 711//711 487//487
f 774//774 729//729 775//775
f 651//651 729//729 774//774
f 39//39 656//656 40//40
f 450//450 409//409 605//605
f 409//409 613//613 583//583
f 479//479 525//525 571//571
f 212//212 600//600 631//631
f 123//123 488//488 124//124
f 325//325 488//488 123//123
f 738//738 250//250 261//261
f 818//818 488//488 325//325
f 226//226 124//124 488//488
f 488//488 239//239 28//28
f 143//143 103//103 468//468
f 225//225 263//263 610//610
f 339//339 579//579 580//580
f 71//71 414//414 821//821
f 591//591 96//96 358//358
f 96//96 412//412 767//767
f 412//412 765//765 767//767
f 454//454 374//374 472//472
f 727//727 649//649 616//616
f 616//616 649//649 651//651
f 616//616 651//651 734//734
f 339//339 580//580 740//740
f 759//759 510//510 11//11
f 175//175 52//52 536//536
f 459//459 359//359 302//302
f 559//559 715//715 146//146
f 115//115 717//717 242//242
f 494//494 96//96 67//67
f 698//698 115//115 242//242
f 600//600 131//131 757//757
f 69//69 705//705 640//640
f 482//482 401//401 646//646
f 702//702 312//312 809//809
f 501//501 719//719 415//415
f 482//482 484//484 515//515
f 348//348 201//201 352//352
f 586//586 574//574 178//178
f 178//178 300//300 586//586
f 329//329 382//382 100//100
f 791//791 113//113 191//191
f 716//716 202//202 13//13
f 76//76 754//754 58//58
f 276//276 272//272 821//821
f 601//601 263//263 264//264
f 217//217 587//587 415//415
f 413//413 415//415 719//719
f 248//248 744//744 745//745
f 238//238 319//319 190//190
f 751//751 581//581 738//738
f 565//565 465//465 188//188
f 75//75 447//447 754//754
f 173//173 590//590 342//342
f 590//590 158//158 342//342
f 25//25 305//305 6//6
f 517//517 786//786 148//148
f 157//157 458//458 511//511
f 250//250 177//177 261//261
f 696//696 165//165 50//50
f 480//480 479//479 571//571
f 464//464 656//656 658//658
f 291//291 707//707 134//134
f 670//670 170//170 273//273
f 145//145 617//617 563//563
f 94//94 209//209 177//177
f 771//771 806//806 474//474
f 39//39 317//317 112//112
f 638//638 804//804 47//47
f 715//715 53//53 659//659
f 731//731 341//341 340//340
f 774//774 775//775 750//750
f 805//805 806//806 78//78
f 101//101 395//395 178//178
f 78//78 101//101 26//26
f 284//284 26//26 785//785
f 78//78 26//26 284//284
f 337//337 114//114 530//530
f 299//299 656//656 39//39
f 200//200 362//362 380//380
f 636//636 634//634 645//645
f 396//396 262//262 609//609
f 262//262 502//502 609//609
f 95//95 169//169 571//571
f 125//125 502//502 262//262
f 355//355 445//445 703//703
f 290//290 753//753 466//466
f 308//308 573//573 623//623
f 380//380 461//461 68//68
f 359//359 459//459 87//87
f 564//564 63//63 690//690
f 164//164 44//44 710//710
f 166//166 44//44 164//164
f 331//331 514//514 332//332
f 231//231 572//572 770//770
f 264//264 443//443 601//601
f 438//438 465//465 565//565
f 726//726 728//728 92//92
f 291//291 371//371 707//707
f 4//4 372//372 766//766
f 4//4 766//766 5//5
f 371//371 291//291 261//261
f 400//400 350//350 351//351
f 395//395 768//768 581//581
f 443//443 475//475 601//601
f 328//328 424//424 513//513
f 456//456 589//589 588//588
f 143//143 468//468 747//747
f 516//516 32//32 713//713
f 42//42 495//495 106//106
f 106//106 495//495 802//802
f 32//32 668//668 130//130
f 266//266 3//3 23//23
f 202//202 668//668 32//32
f 154//154 32//32 516//516
f 154//154 202//202 32//32
f 309//309 32//32 130//130
f 38//38 573//573 802//802
f 718//718 535//535 711//711
f 382//382 638//638 284//284
f 228//228 637//637 504//504
f 456//456 774//774 750//750
f 227//227 823//823 453//453
f 93//93 646//646 819//819
f 823//823 452//452 453//453
f 476//476 531//531 480//480
f 162//162 452//452 823//823
f 653//653 76//76 762//762
f 627//627 159//159 692//692
f 350//350 215//215 351//351
f 398//398 229//229 617//617
f 586//586 446//446 785//785
f 664//664 197//197 446//446
f 693//693 735//735 736//736
f 87//87 459//459 583//583
f 177//177 250//250 816//816
f 246//246 195//195 687//687
f 464//464 708//708 216//216
f 285//285 356//356 55//55
f 246//246 150//150 195//195
f 246//246 473//473 150//150
f 686//686 584//584 594//594
f 276//276 449//449 741//741
f 729//729 649//649 727//727
f 545//545 294//294 91//91
f 398//398 399//399 72//72
f 166//166 321//321 83//83
f 491//491 718//718 448//448
f 39//39 294//294 545//545
f 541//541 575//575 560//560
f 376//376 755//755 447//447
f 111//111 296//296 665//665
f 714//714 307//307 712//712
f 69//69 640//640 712//712
f 108//108 419//419 392//392
f 742//742 290//290 466//466
f 108//108 392//392 403//403
f 814//814 135//135 419//419
f 248//248 745//745 597//597
f 397//397 49//49 398//398
f 180//180 233//233 678//678
f 77//77 800//800 15//15
f 184//184 116//116 429//429
f 83//83 375//375 17//17
f 379//379 362//362 691//691
f 172//172 594//594 787//787
f 179//179 407//407 643//643
f 486//486 485//485 786//786
f 409//409 14//14 13//13
f 677//677 513//513 62//62
f 564//564 677//677 62//62
f 289//289 548//548 521//521
f 346//346 677//677 57//57
f 690//690 677//677 564//564
f 762//762 690//690 653//653
f 815//815 700//700 652//652
f 199//199 641//641 205//205
f 603//603 700//700 260//260
f 775//775 729//729 648//648
f 424//424 62//62 513//513
f 641//641 206//206 205//205
f 420//420 345//345 230//230
f 562//562 461//461 380//380
f 814//814 575//575 135//135
f 716//716 644//644 709//709
f 719//719 370//370 413//413
f 276//276 275//275 449//449
f 331//331 775//775 648//648
f 233//233 180//180 287//287
f 741//741 449//449 492//492
f 426//426 37//37 36//36
f 465//465 721//721 243//243
f 76//76 75//75 754//754
f 629//629 680//680 45//45
f 528//528 436//436 133//133
f 97//97 417//417 152//152
f 710//710 44//44 137//137
f 458//458 732//732 671//671
f 244//244 355//355 243//243
f 650//650 766//766 376//376
f 369//369 57//57 368//368
f 418//418 155//155 642//642
f 562//562 561//561 461//461
f 349//349 102//102 607//607
f 434//434 9//9 660//660
f 500//500 43//43 140//140
f 211//211 94//94 43//43
f 551//551 211//211 43//43
f 711//711 448//448 718//718
f 404//404 283//283 794//794
f 310//310 635//635 535//535
f 436//436 461//461 561//561
f 755//755 376//376 334//334
f 395//395 300//300 178//178
f 135//135 313//313 392//392
f 813//813 138//138 778//778
f 813//813 779//779 138//138
f 472//472 374//374 582//582
f 294//294 523//523 91//91
f 44//44 166//166 312//312
f 277//277 536//536 492//492
f 444//444 426//426 36//36
f 613//613 64//64 87//87
f 40//40 576//576 294//294
f 551//551 43//43 500//500
f 733//733 222//222 512//512
f 455//455 419//419 108//108
f 736//736 223//223 693//693
f 137//137 44//44 338//338
f 304//304 490//490 115//115
f 698//698 304//304 115//115
f 250//250 738//738 768//768
f 215//215 413//413 351//351
f 295//295 781//781 763//763
f 52//52 373//373 493//493
f 439//439 698//698 612//612
f 112//112 299//299 39//39
f 721//721 465//465 438//438
f 230//230 121//121 667//667
f 685//685 195//195 55//55
f 624//624 161//161 653//653
f 657//657 819//819 220//220
f 53//53 102//102 620//620
f 672//672 733//733 512//512
f 672//672 512//512 511//511
f 580//580 579//579 466//466
f 539//539 427//427 618//618
f 700//700 558//558 462//462
f 345//345 471//471 585//585
f 98//98 790//790 109//109
f 109//109 271//271 98//98
f 756//756 607//607 102//102
f 41//41 641//641 483//483
f 199//199 639//639 641//641
f 312//312 166//166 391//391
f 141//141 389//389 225//225
f 97//97 546//546 313//313
f 578//578 169//169 779//779
f 338//338 509//509 137//137
f 413//413 215//215 217//217
f 555//555 313//313 546//546
f 736//736 600//600 757//757
f 483//483 482//482 93//93
f 229//229 563//563 617//617
f 364//364 363//363 566//566
f 661//661 705//705 306//306
f 705//705 90//90 640//640
f 467//467 705//705 661//661
f 231//231 82//82 477//477
f 269//269 414//414 71//71
f 258//258 765//765 412//412
f 231//231 343//343 82//82
f 231//231 770//770 343//343
f 430//430 429//429 388//388
f 249//249 147//147 132//132
f 622//622 308//308 623//623
f 349//349 353//353 156//156
f 786//786 485//485 148//148
f 363//363 122//122 60//60
f 405//405 71//71 821//821
f 470//470 583//583 459//459
f 185//185 157//157 511//511
f 112//112 317//317 256//256
f 404//404 794//794 400//400
f 457//457 676//676 377//377
f 730//730 817//817 357//357
f 72//72 281//281 398//398
f 815//815 187//187 403//403
f 310//310 367//367 635//635
f 640//640 674//674 712//712
f 349//349 607//607 552//552
f 661//661 317//317 467//467
f 36//36 396//396 394//394
f 619//619 448//448 711//711
f 312//312 391//391 810//810
f 809//809 312//312 810//810
f 810//810 391//391 113//113
f 720//720 810//810 113//113
f 764//764 365//365 767//767
f 693//693 99//99 694//694
f 403//403 494//494 558//558
f 304//304 517//517 627//627
f 367//367 167//167 635//635
f 523//523 294//294 576//576
f 3//3 791//791 569//569
f 88//88 64//64 325//325
f 713//713 64//64 516//516
f 325//325 64//64 818//818
f 818//818 64//64 713//713
f 471//471 586//586 585//585
f 404//404 282//282 283//283
f 812//812 260//260 74//74
f 170//170 683//683 422//422
f 717//717 454//454 7//7
f 752//752 173//173 749//749
f 243//243 721//721 171//171
f 81//81 159//159 627//627
f 391//391 166//166 83//83
f 685//685 356//356 218//218
f 675//675 473//473 246//246
f 747//747 468//468 80//80
f 524//524 610//610 322//322
f 776//776 470//470 795//795
f 560//560 634//634 541//541
f 743//743 466//466 579//579
f 381//381 267//267 154//154
f 192//192 206//206 41//41
f 581//581 751//751 149//149
f 149//149 751//751 436//436
f 120//120 118//118 12//12
f 283//283 282//282 383//383
f 182//182 183//183 770//770
f 175//175 536//536 176//176
f 538//538 537//537 203//203
f 541//541 393//393 540//540
f 637//637 228//228 521//521
f 138//138 603//603 778//778
f 796//796 776//776 498//498
f 209//209 94//94 211//211
f 15//15 679//679 77//77
f 104//104 378//378 41//41
f 97//97 152//152 228//228
f 805//805 78//78 284//284
f 742//742 466//466 743//743
f 484//484 483//483 639//639
f 81//81 160//160 159//159
f 80//80 468//468 201//201
f 123//123 262//262 35//35
f 35//35 432//432 431//431
f 35//35 431//431 123//123
f 35//35 37//37 432//432
f 568//568 373//373 526//526
f 275//275 277//277 105//105
f 734//734 384//384 615//615
f 83//83 321//321 375//375
f 618//618 427//427 625//625
f 416//416 690//690 63//63
f 644//644 326//326 709//709
f 555//555 556//556 494//494
f 54//54 452//452 418//418
f 469//469 773//773 772//772
f 705//705 467//467 90//90
f 807//807 532//532 208//208
f 111//111 508//508 682//682
f 168//168 249//249 408//408
f 415//415 807//807 501//501
f 410//410 456//456 750//750
f 357//357 390//390 730//730
f 797//797 470//470 459//459
f 285//285 106//106 356//356
f 749//749 342//342 353//353
f 704//704 459//459 302//302
f 698//698 439//439 517//517
f 556//556 555//555 546//546
f 271//271 646//646 270//270
f 492//492 536//536 493//493
f 568//568 153//153 373//373
f 371//371 292//292 278//278
f 794//794 676//676 216//216
f 442//442 401//401 737//737
f 646//646 93//93 482//482
f 583//583 613//613 87//87
f 701//701 221//221 347//347
f 325//325 324//324 88//88
f 86//86 288//288 27//27
f 162//162 596//596 314//314
f 213//213 387//387 507//507
f 258//258 764//764 765//765
f 168//168 635//635 167//167
f 205//205 557//557 199//199
f 275//275 105//105 449//449
f 692//692 490//490 304//304
f 330//330 51//51 686//686
f 77//77 590//590 320//320
f 239//239 713//713 28//28
f 175//175 79//79 89//89
f 304//304 627//627 692//692
f 532//532 415//415 587//587
f 707//707 366//366 134//134
f 187//187 604//604 603//603
f 605//605 470//470 450//450
f 522//522 138//138 204//204
f 102//102 349//349 620//620
f 317//317 577//577 297//297
f 225//225 264//264 263//263
f 158//158 590//590 156//156
f 292//292 371//371 29//29
f 629//629 45//45 53//53
f 95//95 525//525 322//322
f 135//135 417//417 97//97
f 92//92 728//728 25//25
f 728//728 442//442 25//25
f 287//287 799//799 254//254
f 403//403 187//187 108//108
f 360//360 339//339 293//293
f 646//646 271//271 819//819
f 341//341 176//176 496//496
f 478//478 14//14 451//451
f 496//496 176//176 497//497
f 188//188 99//99 223//223
f 688//688 447//447 75//75
f 342//342 158//158 353//353
f 199//199 269//269 240//240
f 787//787 301//301 72//72
f 360//360 654//654 339//339
f 655//655 673//673 598//598
f 360//360 293//293 354//354
f 654//654 360//360 655//655
f 281//281 72//72 301//301
f 447//447 755//755 754//754
f 541//541 636//636 393//393
f 485//485 486//486 477//477
f 715//715 659//659 146//146
f 301//301 730//730 281//281
f 421//421 655//655 598//598
f 803//803 405//405 336//336
f 660//660 16//16 434//434
f 625//625 651//651 618//618
f 374//374 490//490 772//772
f 337//337 540//540 393//393
f 100//100 340//340 329//329
f 771//771 768//768 101//101
f 249//249 168//168 167//167
f 459//459 704//704 797//797
f 706//706 632//632 519//519
f 699//699 506//506 715//715
f 695//695 291//291 134//134
f 65//65 119//119 127//127
f 313//313 135//135 97//97
f 738//738 261//261 291//291
f 495//495 203//203 537//537
f 227//227 688//688 75//75
f 802//802 495//495 537//537
f 632//632 790//790 98//98
f 417//417 541//541 540//540
f 128//128 203//203 495//495
f 405//405 73//73 71//71
f 202//202 154//154 13//13
f 102//102 45//45 756//756
f 438//438 475//475 443//443
f 744//744 633//633 352//352
f 242//242 612//612 698//698
f 407//407 456//456 643//643
f 233//233 370//370 719//719
f 59//59 58//58 754//754
f 428//428 700//700 604//604
f 538//538 529//529 547//547
f 518//518 515//515 803//803
f 464//464 457//457 656//656
f 624//624 653//653 690//690
f 790//790 501//501 807//807
f 172//172 366//366 594//594
f 460//460 444//444 34//34
f 344//344 437//437 189//189
f 482//482 515//515 401//401
f 343//343 705//705 129//129
f 301//301 787//787 594//594
f 723//723 672//672 630//630
f 723//723 222//222 733//733
f 762//762 677//677 690//690
f 681//681 234//234 811//811
f 489//489 267//267 409//409
f 82//82 81//81 477//477
f 312//312 338//338 44//44
f 154//154 516//516 219//219
f 531//531 680//680 142//142
f 756//756 45//45 680//680
f 531//531 756//756 680//680
f 96//96 591//591 412//412
f 249//249 132//132 408//408
f 257//257 471//471 420//420
f 104//104 657//657 220//220
f 684//684 422//422 683//683
f 339//339 548//548 579//579
f 682//682 514//514 681//681
f 58//58 677//677 762//762
f 491//491 448//448 619//619
f 491//491 619//619 2//2
f 290//290 114//114 24//24
f 61//61 122//122 532//532
f 205//205 318//318 557//557
f 449//449 105//105 492//492
f 108//108 522//522 455//455
f 56//56 285//285 55//55
f 637//637 654//654 504//504
f 74//74 427//427 812//812
f 821//821 414//414 820//820
f 420//420 792//792 224//224
f 658//658 299//299 567//567
f 343//343 129//129 82//82
f 584//584 783//783 164//164
f 234//234 514//514 331//331
f 237//237 203//203 319//319
f 575//575 417//417 135//135
f 25//25 481//481 92//92
f 596//596 416//416 595//595
f 315//315 529//529 237//237
f 543//543 321//321 697//697
f 143//143 761//761 103//103
f 318//318 614//614 557//557
f 599//599 412//412 591//591
f 528//528 68//68 461//461
f 230//230 345//345 121//121
f 543//543 309//309 130//130
f 206//206 192//192 207//207
f 227//227 453//453 674//674
f 567//567 299//299 297//297
f 336//336 520//520 518//518
f 187//187 428//428 604//604
f 476//476 406//406 407//407
f 25//25 442//442 305//305
f 737//737 305//305 442//442
f 22//22 305//305 737//737
f 658//658 656//656 299//299
f 691//691 458//458 562//562
f 621//621 349//349 592//592
f 727//727 616//616 56//56
f 684//684 21//21 47//47
f 55//55 356//356 685//685
f 712//712 307//307 69//69
f 146//146 145//145 563//563
f 349//349 156//156 592//592
f 21//21 139//139 816//816
f 300//300 85//85 586//586
f 408//408 132//132 130//130
f 499//499 303//303 551//551
f 347//347 506//506 701//701
f 521//521 548//548 637//637
f 760//760 716//716 709//709
f 692//692 159//159 642//642
f 561//561 222//222 149//149
f 142//142 141//141 531//531
f 609//609 550//550 396//396
f 316//316 37//37 426//426
f 41//41 206//206 641//641
f 781//781 121//121 763//763
f 687//687 308//308 181//181
f 685//685 308//308 687//687
f 280//280 508//508 602//602
f 602//602 508//508 111//111
f 681//681 514//514 234//234
f 771//771 474//474 250//250
f 265//265 791//791 266//266
f 791//791 265//265 720//720
f 458//458 433//433 732//732
f 793//793 171//171 721//721
f 128//128 495//495 42//42
f 803//803 73//73 405//405
f 314//314 469//469 155//155
f 594//594 584//584 301//301
f 778//778 260//260 812//812
f 557//557 554//554 259//259
f 678//678 790//790 632//632
f 60//60 61//61 566//566
f 617//617 399//399 398//398
f 68//68 399//399 380//380
f 354//354 655//655 360//360
f 673//673 655//655 354//354
f 568//568 526//526 529//529
f 558//558 700//700 815//815
f 258//258 412//412 599//599
f 22//22 753//753 305//305
f 6//6 305//305 753//753
f 464//464 216//216 676//676
f 724//724 581//581 149//149
f 222//222 724//724 149//149
f 699//699 247//247 229//229
f 415//415 532//532 807//807
f 314//314 596//596 595//595
f 543//543 288//288 309//309
f 375//375 321//321 543//543
f 367//367 593//593 167//167
f 207//207 318//318 205//205
f 207//207 439//439 318//318
f 207//207 784//784 439//439
f 787//787 528//528 172//172
f 539//539 822//822 578//578
f 766//766 650//650 5//5
f 392//392 419//419 135//135
f 392//392 313//313 555//555
f 561//561 149//149 436//436
f 155//155 772//772 692//692
f 625//625 734//734 651//651
f 2//2 151//151 3//3
f 172//172 133//133 134//134
f 731//731 647//647 663//663
f 31//31 424//424 328//328
f 562//562 458//458 157//157
f 749//749 353//353 553//553
f 528//528 787//787 68//68
f 723//723 724//724 222//222
f 352//352 303//303 745//745
f 231//231 570//570 572//572
f 770//770 572//572 182//182
f 614//614 554//554 557//557
f 299//299 298//298 297//297
f 34//34 444//444 245//245
f 172//172 134//134 366//366
f 263//263 544//544 610//610
f 272//272 184//184 336//336
f 384//384 734//734 625//625
f 489//489 154//154 267//267
f 413//413 217//217 415//415
f 662//662 303//303 582//582
f 711//711 535//535 487//487
f 40//40 656//656 457//457
f 136//136 814//814 419//419
f 519//519 632//632 726//726
f 681//681 675//675 193//193
f 381//381 409//409 267//267
f 768//768 771//771 250//250
f 773//773 662//662 582//582
f 723//723 630//630 725//725
f 152//152 530//530 521//521
f 551//551 103//103 211//211
f 211//211 761//761 209//209
f 103//103 761//761 211//211
f 497//497 176//176 536//536
f 348//348 245//245 444//444
f 229//229 559//559 563//563
f 154//154 489//489 425//425
f 128//128 127//127 119//119
f 753//753 24//24 6//6
f 390//390 281//281 730//730
f 409//409 381//381 219//219
f 737//737 518//518 22//22
f 233//233 719//719 501//501
f 268//268 269//269 259//259
f 487//487 535//535 194//194
f 169//169 476//476 571//571
f 342//342 749//749 173//173
f 300//300 725//725 85//85
f 51//51 50//50 783//783
f 394//394 444//444 36//36
f 743//743 579//579 548//548
f 543//543 697//697 226//226
f 777//777 96//96 503//503
f 503//503 96//96 556//556
f 373//373 252//252 526//526
f 376//376 676//676 650//650
f 642//642 155//155 692//692
f 667//667 792//792 230//230
f 560//560 575//575 423//423
f 548//548 742//742 743//743
f 601//601 758//758 534//534
f 601//601 534//534 263//263
f 62//62 424//424 798//798
f 816//816 139//139 94//94
f 513//513 346//346 328//328
f 612//612 614//614 318//318
f 158//158 156//156 353//353
f 770//770 577//577 769//769
f 674//674 640//640 91//91
f 814//814 323//323 575//575
f 475//475 736//736 757//757
f 165//165 321//321 166//166
f 96//96 767//767 365//365
f 332//332 514//514 508//508
f 665//665 602//602 111//111
f 332//332 508//508 280//280
f 809//809 720//720 435//435
f 338//338 312//312 702//702
f 720//720 265//265 435//435
f 344//344 435//435 437//437
f 55//55 808//808 727//727
f 377//377 676//676 376//376
f 750//750 775//775 174//174
f 13//13 154//154 425//425
f 539//539 578//578 427//427
f 177//177 816//816 94//94
f 259//259 670//670 268//268
f 481//481 606//606 666//666
f 377//377 447//447 576//576
f 710//710 137//137 817//817
f 581//581 768//768 738//738
f 231//231 335//335 570//570
f 700//700 603//603 604//604
f 788//788 122//122 12//12
f 451//451 14//14 450//450
f 538//538 203//203 241//241
f 145//145 200//200 617//617
f 667//667 121//121 781//781
f 667//667 781//781 196//196
f 702//702 809//809 344//344
f 809//809 435//435 344//344
f 531//531 476//476 179//179
f 244//244 445//445 355//355
f 189//189 703//703 344//344
f 450//450 470//470 451//451
f 181//181 308//308 257//257
f 620//620 679//679 660//660
f 679//679 620//620 621//621
f 199//199 557//557 269//269
f 494//494 403//403 555//555
f 76//76 161//161 163//163
f 632//632 98//98 726//726
f 669//669 784//784 207//207
f 669//669 207//207 192//192
f 562//562 379//379 691//691
f 196//196 193//193 667//667
f 227//227 674//674 688//688
f 689//689 797//797 704//704
f 469//469 595//595 597//597
f 684//684 47//47 422//422
f 618//618 456//456 539//539
f 169//169 780//780 779//779
f 618//618 774//774 456//456
f 200//200 144//144 362//362
f 820//820 213//213 286//286
f 821//821 272//272 405//405
f 466//466 753//753 22//22
f 182//182 10//10 183//183
f 545//545 91//91 90//90
f 170//170 804//804 273//273
f 364//364 120//120 122//122
f 179//179 643//643 588//588
f 243//243 355//355 465//465
f 659//659 9//9 361//361
f 523//523 674//674 91//91
f 136//136 204//204 322//322
f 793//793 721//721 443//443
f 303//303 499//499 582//582
f 150//150 808//808 55//55
f 353//353 349//349 553//553
f 707//707 371//371 278//278
f 389//389 542//542 214//214
f 406//406 456//456 407//407
f 190//190 236//236 238//238
f 423//423 575//575 323//323
f 423//423 323//323 611//611
f 416//416 248//248 595//595
f 137//137 357//357 817//817
f 463//463 293//293 740//740
f 148//148 485//485 477//477
f 19//19 423//423 611//611
f 746//746 27//27 288//288
f 727//727 808//808 648//648
f 622//622 198//198 257//257
f 359//359 432//432 37//37
f 359//359 37//37 316//316
f 533//533 536//536 277//277
f 473//473 811//811 150//150
f 430//430 293//293 463//463
f 208//208 532//532 122//122
f 681//681 811//811 473//473
f 234//234 331//331 648//648
f 706//706 519//519 801//801
f 306//306 705//705 251//251
f 150//150 811//811 808//808
