# https://github.com/mikedh/trimesh
v 0.30204900 0.08724800 -0.11146900
v 0.27453200 -0.06911000 -0.19026300
v 0.27554900 -0.10152000 -0.17968800
v 0.23129100 -0.10295975 -0.18006700
v 0.40719800 0.03330000 -0.16034200
v 0.36828238 -0.03822742 0.21182340
v 0.40706259 -0.04748570 0.17645282
v 0.36571387 -0.03466246 0.21357172
v 0.39440334 -0.00581014 0.18021591
v -0.18312500 0.02808000 -0.10517550
v -0.17462985 0.01713112 -0.13820769
v -0.20046783 0.01932709 -0.13100264
v 0.04648400 0.00378800 -0.16647700
v 0.07010683 0.12077054 0.03481823
v 0.08133447 0.10963307 0.07337885
v 0.10915840 0.12145197 0.04215922
v 0.11161986 0.11683614 0.05760532
v -0.00102800 0.00245050 -0.16983350
v -0.02553780 -0.03024011 -0.18760083
v -0.03798119 -0.01350723 -0.17970198
v 0.37790627 -0.10944344 0.08784751
v 0.33485564 -0.11303374 0.06346458
v 0.38277382 -0.10743899 0.05913367
v -0.38661200 0.02705700 0.00030500
v -0.40998600 0.01770900 -0.01678300
v -0.41112600 0.01815500 0.00030200
v 0.08553452 -0.03033494 0.18338996
v 0.13541600 -0.02230400 0.18467000
v 0.11858700 0.01100300 0.17167400
v 0.17895700 0.02016700 -0.18569900
v 0.16908884 0.03288741 -0.15827709
v 0.19527000 0.04738700 -0.13568400
v 0.14699300 -0.00700500 -0.18479000
v 0.17750530 -0.02346014 -0.18691309
v 0.16083769 -0.04747062 -0.18905033
v 0.41599500 -0.09700700 0.07681100
v 0.42250700 -0.09682000 0.04850300
v -0.37708600 0.00486700 -0.11441400
v -0.39201857 -0.02899721 -0.13170975
v -0.38608300 0.00837200 -0.09819900
v -0.25234634 -0.12985267 0.00029633
v -0.20268667 -0.12952433 0.00028967
v -0.04692900 0.01155500 -0.14224100
v -0.07323256 0.01523522 -0.13218943
v -0.04531700 0.02199700 -0.11129300
v 0.27085600 0.08941700 -0.11137200
v 0.27085800 0.09217200 -0.10013600
v 0.43557200 0.04464800 0.09596800
v 0.43761200 0.04980500 0.07309900
v 0.40277300 0.05132600 0.11162450
v 0.00675600 -0.07667400 -0.19359300
v 0.01731043 -0.03264660 -0.18577907
v -0.02204502 -0.03342810 -0.18894010
v -0.15302700 -0.12919600 0.00028300
v -0.11801648 -0.14275403 -0.04509002
v -0.10577925 -0.12731700 0.00027275
v -0.40073131 -0.03427080 0.12165354
v -0.39294996 -0.05990171 0.13154115
v -0.38849322 -0.03336067 0.12928208
v 0.32890300 0.07464500 0.00005900
v -0.05668091 0.05852600 0.06260728
v -0.04533200 0.02199900 0.11124800
v -0.01626550 0.03942050 0.11122700
v -0.05011400 -0.00204400 -0.17933500
v -0.04854000 0.00111300 -0.17319000
v 0.41584742 -0.00423729 0.15011589
v 0.42805337 -0.00477500 0.12595965
v 0.41566103 0.00485684 0.14801196
v 0.42656865 -0.00109384 0.12791393
v -0.44076669 -0.03540521 -0.04116999
v -0.44144428 -0.03731940 -0.05716788
v -0.44457467 -0.06150274 -0.05166185
v 0.36056928 0.01483151 -0.15870008
v 0.37805500 0.03841600 -0.18601200
v 0.37691300 0.03140000 -0.13300300
v 0.41020765 -0.07165785 0.17116299
v 0.40864884 -0.06728368 0.17965237
v 0.40528465 -0.07261370 0.17725246
v -0.42223900 -0.01988700 0.00030400
v -0.41812999 -0.08912421 0.11486220
v -0.42471150 -0.09110820 0.10582806
v -0.41521600 -0.12344500 0.10470200
v -0.19651100 0.00361900 -0.16606900
v -0.23879200 -0.00085400 -0.16286700
v -0.10187400 0.04062700 0.05133900
v -0.08545272 0.05446115 0.03919782
v -0.10632600 0.04196000 0.03700800
v 0.33838954 -0.10811521 -0.08482246
v 0.36073875 -0.10398014 -0.09137792
v 0.34033205 -0.10883826 -0.06363258
v 0.43261000 0.03714900 0.11163100
v -0.24318300 0.04566650 0.00029100
v -0.28148599 0.04142232 -0.04733283
v -0.24648073 0.04158491 -0.05800827
v 0.23557512 0.10342710 0.03193301
v 0.27080500 0.09260000 0.04022950
v 0.27077300 0.09158100 0.00006800
v -0.39271787 -0.02436318 0.12277896
v -0.31374451 0.00694235 -0.13622126
v -0.31372500 0.02293000 -0.09282800
v -0.27091050 0.02561750 -0.09744150
v 0.22306235 -0.00608044 0.19559558
v 0.22638954 0.01364813 0.19256141
v 0.20327180 0.00015811 0.19115699
v -0.05517500 -0.09583700 -0.19138100
v -0.09005116 -0.07667809 -0.19874300
v -0.05672300 -0.07950900 -0.19639700
v 0.22620200 0.10783400 0.00007700
v 0.20133666 0.11330214 -0.03069132
v 0.18787700 0.11988800 0.00008600
v -0.34881137 -0.12791279 0.13369913
v -0.32883400 -0.12082800 0.16971400
v -0.35701600 -0.12168500 0.15837100
v 0.13544100 -0.02230800 -0.18468800
v 0.27245100 0.00216200 0.19970300
v 0.27132100 0.04285100 0.19754100
v 0.24659500 0.04144300 0.19566100
v 0.15454225 0.04249900 0.13033850
v 0.11383250 0.03760800 0.12500400
v -0.06244698 0.06353582 -0.04072811
v -0.07297600 0.06801300 0.00016400
v -0.04463330 0.07194521 -0.04267197
v 0.43914500 0.05348400 0.00009000
v 0.43885100 0.04486000 0.00009100
v -0.20272300 0.04687000 0.00027500
v -0.20930189 0.04450230 0.05187514
v -0.21373289 0.04454081 0.05100232
v -0.38609700 0.00837400 0.09810700
v -0.37710200 0.00487000 0.11432400
v 0.42956306 -0.00910727 0.12286008
v 0.43904537 -0.04229698 0.10114169
v 0.42889525 -0.00417463 0.12158776
v 0.43621766 -0.01911460 0.09327508
v -0.44351405 -0.06961453 -0.06946235
v -0.43786802 -0.04267201 -0.09568936
v -0.43317375 -0.06076180 -0.10430606
v -0.23785784 0.04210606 -0.05831387
v 0.17690178 0.10618640 0.07709664
v 0.14689900 0.09842800 0.11123600
v 0.18821300 0.09542533 0.11128033
v 0.19424027 0.11359529 0.03509833
v 0.21129846 0.10727623 0.05064700
v 0.23389346 0.10379768 0.03301027
v -0.42827690 -0.02597862 -0.08432826
v -0.42220529 -0.03022785 -0.10342435
v 0.19525200 0.04739000 0.13567300
v 0.21785800 0.03680200 0.19094900
v 0.24185400 0.05096200 0.14040600
v 0.27247900 0.00215800 -0.19970300
v 0.27352400 -0.03485600 -0.19710600
v 0.43894773 -0.03066574 0.07239798
v 0.43458730 -0.05940540 0.08465006
v 0.43631395 -0.04571048 0.04626741
v 0.43378249 -0.06234066 0.05258747
v 0.39316100 0.03614500 0.17531600
v 0.34619214 0.02834319 0.17337836
v 0.37802900 0.03842000 0.18602500
v 0.40042000 -0.09748100 0.11312500
v 0.41863725 -0.07922004 0.12096368
v 0.38632800 -0.09792200 0.13312300
v -0.07704300 0.03283400 0.08659800
v 0.14275000 -0.10583525 0.18080925
v 0.16592331 -0.11697657 0.13625274
v 0.18700800 -0.10439550 0.18043650
v -0.01625050 0.03941850 -0.11126750
v -0.02799047 0.05366729 -0.08690896
v 0.01281600 0.05684000 -0.11124200
v 0.00672900 -0.07666900 0.19355700
v -0.02501050 -0.07808700 0.19495550
v -0.01561675 -0.11093950 0.18503700
v -0.22809600 0.02830500 -0.10205500
v -0.24323238 -0.07166577 0.18987850
v -0.24434372 -0.04719566 0.18240637
v -0.28651735 -0.05536883 0.17422056
v -0.28648235 -0.05262030 0.17342140
v -0.13521237 0.04271962 0.03520759
v -0.13553643 0.04259803 0.03587979
v 0.27141200 0.04733400 -0.16973900
v 0.31537292 0.03970820 -0.16560846
v 0.30586700 0.04303500 -0.19936000
v 0.40641105 0.00488128 -0.13365815
v 0.41418865 0.00520946 -0.12911828
v 0.41386013 0.00427218 -0.12880369
v -0.00105150 0.00245400 0.16979550
v 0.27115100 0.07302500 -0.13069800
v 0.27094500 0.08321200 -0.12085500
v 0.08279411 -0.02668516 -0.18040568
v 0.07883500 0.00605500 -0.16621100
v -0.08679900 0.00323650 0.17173200
v -0.09175100 0.02492800 0.10974300
v -0.12503400 0.00535700 0.17031800
v -0.11187024 0.03580837 -0.07994114
v -0.09173550 0.02492600 -0.10979450
v -0.13815400 0.02785500 -0.10829600
v -0.05501200 -0.02850000 0.19556500
v 0.40041700 0.02877100 -0.13480400
v 0.39318600 0.03614100 -0.17530000
v -0.41011883 -0.13216272 -0.07041144
v -0.43041800 -0.12394600 -0.06878400
v -0.42523300 -0.12377200 -0.08384100
v -0.05520200 -0.09583300 0.19133800
v -0.05365300 -0.11216100 0.18632200
v 0.14691500 0.09842500 -0.11125500
v 0.17305552 0.11505089 -0.05795376
v 0.18822866 0.09542233 -0.11129400
v -0.29042900 -0.01196100 -0.15810800
v -0.28522367 -0.05882048 -0.17486458
v -0.25517052 -0.03815546 -0.17689408
v -0.15165281 -0.02635840 0.19101065
v -0.12122287 -0.03005411 0.19556150
v 0.30583900 0.04303900 0.19936400
v 0.34568865 0.02854591 0.17334340
v 0.29434700 0.04907300 0.14016900
v -0.18314050 0.02808250 0.10511150
v -0.22811100 0.02830800 0.10198500
v -0.05658800 -0.05270500 0.19875300
v -0.01327403 -0.03307576 0.18918693
v -0.02811942 -0.02661157 0.18916947
v -0.41476434 -0.03075100 0.10257212
v -0.41384376 -0.06465305 0.12001733
v -0.42561987 -0.04257893 0.09480919
v -0.26552600 -0.00560600 -0.16054300
v 0.03241300 0.02782600 0.11433500
v -0.01499000 0.02353000 0.11125200
v -0.36245400 0.01673700 0.08587800
v -0.16538997 -0.05640863 0.20469941
v -0.16452229 -0.05786904 0.20516197
v -0.16362333 -0.05702434 0.20519885
v -0.26463407 -0.14163198 0.09692506
v -0.28290408 -0.14289950 0.09059041
v -0.25972022 -0.14246899 0.09382346
v 0.36565033 0.06759133 0.00006933
v 0.36214200 0.04018000 0.19314800
v 0.36348397 0.00469010 0.19373446
v -0.11177237 -0.14343884 -0.05067285
v -0.12128746 -0.14309085 -0.05079499
v -0.35949000 0.03406600 0.00030900
v -0.34839301 0.02985277 -0.04362235
v -0.34878104 0.02979343 -0.04340108
v -0.26322800 -0.11879900 0.18383700
v -0.29728800 -0.11985700 0.17807000
v 0.09849200 -0.10727500 0.18118200
v 0.32170824 -0.11447594 0.05779668
v 0.32408206 -0.11452014 0.06178823
v 0.27518900 -0.10664733 0.06710567
v 0.19545400 0.02928600 -0.18721200
v 0.43512900 -0.01429400 0.00006700
v 0.43555496 -0.04384015 0.03468962
v -0.44744283 -0.08120651 -0.05462851
v -0.43598400 -0.12414200 -0.04447100
v -0.43610700 -0.09075400 0.00030700
v -0.43416480 -0.02587527 -0.05307240
v -0.43590781 -0.02674378 -0.04311727
v -0.40663600 0.01639700 -0.03686100
v -0.15402175 -0.13937915 -0.10504154
v -0.17012116 -0.13736585 -0.11690978
v -0.14939034 -0.13731561 -0.11847931
v 0.42251300 -0.09682100 -0.04834300
v 0.27081050 0.09259950 -0.04014350
v 0.14750722 -0.12434180 -0.09570171
v 0.17800124 -0.12084850 -0.09535953
v 0.15686494 -0.12499629 -0.06975122
v -0.28364300 0.04446300 0.00030700
v -0.31655167 -0.14212303 -0.04285521
v -0.30200600 -0.13018100 0.00030300
v -0.33737400 -0.12920800 0.00030550
v 0.07708304 0.10866578 0.07387125
v 0.08181872 0.10614321 0.07798438
v 0.14696700 -0.00700100 0.18477400
v 0.16576900 0.01052900 0.18528000
v 0.14875900 0.01558650 0.17868000
v 0.34656512 -0.02548859 -0.16423702
v 0.34333647 -0.00968930 -0.17190427
v 0.36575300 -0.04476894 -0.15172028
v 0.36339264 -0.03688606 -0.15570109
v -0.29045100 -0.01195700 0.15803100
v -0.31294900 -0.02007900 0.15551400
v 0.22954233 0.09241967 -0.11133300
v 0.15455975 0.04249625 -0.13035525
v -0.44530536 -0.08433662 -0.06267739
v 0.19542800 0.02929000 0.18720100
v 0.17893100 0.02017000 0.18568600
v -0.29207210 -0.05734372 -0.17233646
v -0.42697466 -0.04832447 -0.11294358
v -0.01497500 0.02352700 -0.11129300
v 0.03242900 0.02782400 -0.11436900
v 0.34256300 0.03826300 -0.13463200
v 0.43855800 0.03623700 0.00009100
v 0.00055142 -0.12523497 0.13571435
v 0.00099630 -0.12513186 0.13585736
v 0.00099589 -0.12507623 0.13608330
v 0.16579500 0.01052500 -0.18529500
v 0.40717500 0.03330300 0.16036000
v -0.29544740 0.04063644 -0.03989169
v -0.33027400 0.03935900 0.00031000
v 0.24187400 0.05096000 -0.14041100
v 0.16592222 -0.12359102 -0.04062350
v 0.19149072 -0.12073766 -0.05190349
v 0.17792676 -0.12216584 -0.03342341
v -0.03543381 -0.00196354 -0.16238829
v 0.04188250 0.07426150 -0.11121700
v -0.27420436 -0.14236409 0.04916751
v -0.26420528 -0.14197380 0.04335366
v -0.26743876 -0.14238157 0.05094113
v 0.11861000 0.01099900 -0.17169600
v -0.31292800 -0.02008200 -0.15559500
v -0.33009200 -0.02870500 -0.15332100
v -0.11021200 0.04307300 0.00016800
v -0.13521598 0.04274462 0.03503273
v -0.10918100 0.04279500 0.02007900
v 0.38839500 -0.09935600 0.00010350
v 0.42456000 -0.09676700 0.03314800
v 0.20181704 -0.01825143 -0.18907533
v 0.21316198 -0.03147760 -0.19248218
v 0.17136061 -0.04278530 -0.18912465
v 0.33009979 0.03767870 -0.16734472
v 0.39749190 -0.04245315 -0.12702874
v 0.39348254 -0.02796158 -0.13315726
v 0.37567616 -0.01473824 -0.14996603
v 0.01280100 0.05684200 0.11120600
v -0.36108866 -0.12846208 0.12769881
v 0.29436700 0.04907000 -0.14016700
v 0.33968700 0.07840300 -0.11155700
v -0.01559100 -0.11094350 -0.18507475
v 0.02244500 -0.10972200 -0.18378450
v -0.10186600 0.04062600 -0.05108600
v -0.10632000 0.04196000 -0.03671200
v 0.37449221 0.00034677 -0.15237755
v 0.06048100 -0.10850050 -0.18249425
v 0.03760316 -0.11990995 -0.14558904
v -0.16927615 0.04272214 0.04926045
v -0.17656644 0.04545533 0.02606564
v -0.20456342 0.04380846 0.05631262
v -0.25708856 0.02032439 0.12890365
v -0.23881400 -0.00085100 0.16279600
v -0.38055900 -0.10667700 0.14386500
v -0.39520684 -0.07819500 0.13392753
v -0.39234100 -0.12273900 0.13387600
v -0.15891185 0.01733225 -0.13703692
v -0.14527601 0.01667073 -0.13885294
v 0.28996634 0.07375234 -0.12902222
v 0.27528000 -0.10637100 0.10057900
v 0.40652853 0.06546433 -0.03020756
v 0.40239767 0.06053767 0.00007967
v 0.43879100 0.05271700 -0.04145500
v -0.27144029 0.01386225 -0.13382128
v 0.01642700 0.11274900 0.00014400
v 0.30986803 -0.06352523 -0.17956583
v 0.30271900 -0.10062600 -0.17774600
v 0.40636700 -0.09729800 0.10185300
v 0.14878350 0.01558300 -0.17869750
v 0.43910582 -0.01298593 0.05540429
v 0.43805078 -0.00360006 0.03357877
v 0.27134500 0.06163900 0.13851800
v 0.25818350 0.06765001 0.13117222
v 0.20968701 0.11046970 -0.04092734
v 0.21083073 0.10489522 -0.07401507
v 0.18119084 0.11496069 -0.05027095
v 0.17871199 0.11403193 -0.05926875
v 0.27552400 -0.10151600 0.17969100
v 0.27540200 -0.10394350 0.14013500
v -0.07703000 0.03283200 -0.08653700
v 0.27529400 -0.10637300 -0.10046600
v 0.27542150 -0.10394650 -0.14007700
v -0.38098300 -0.12240100 0.14364300
v -0.04694800 0.01155800 0.14219700
v -0.04856400 0.00111600 0.17314600
v 0.43066000 -0.05551750 0.00007600
v 0.43490834 -0.05771410 0.03904018
v 0.32485900 -0.11410203 0.05548016
v 0.27509800 -0.10692367 0.03363233
v 0.31280300 -0.10458550 0.00014050
v -0.40612750 -0.12626300 0.00030800
v -0.37274200 -0.12823500 0.00030800
v -0.08910100 0.03668500 0.07374800
v -0.19952716 0.04415262 -0.05054331
v -0.01871185 -0.02755461 0.18665804
v -0.40700100 -0.12318600 0.11716600
v -0.25647512 -0.13604417 -0.10854497
v -0.27526299 -0.13996854 -0.09722890
v -0.25082149 -0.12832514 -0.13932996
v -0.27136605 -0.13069313 -0.13501014
v -0.43045700 -0.05607100 0.00030500
v 0.27138900 0.04733800 0.16973800
v -0.37837000 -0.09235100 0.14444700
v -0.40998800 0.01770900 0.01727900
v -0.39917262 -0.13222570 0.04192219
v -0.35761530 -0.13899110 0.05435603
v 0.42835425 -0.02084903 0.14219812
v 0.43625008 -0.04011586 0.12222881
v -0.06508325 -0.01705187 0.19008743
v -0.07146297 -0.01651330 0.18898603
v -0.09605600 0.03885000 0.06345700
v 0.29592500 0.08312900 0.00006300
v 0.42000959 -0.05997688 0.16805094
v -0.42543208 -0.01372314 -0.06801829
v -0.40115500 0.01425400 -0.05865100
v -0.39362200 0.01131200 -0.08087300
v 0.43684350 0.01097150 0.00007900
v 0.11595335 -0.07285239 -0.18532648
v 0.11822653 -0.07594119 -0.18457307
v 0.09851700 -0.10727900 -0.18120400
v 0.23312022 -0.11574203 -0.07868040
v 0.21119361 -0.11851294 -0.07100620
v 0.23352044 -0.11504918 -0.09126827
v 0.32955700 0.04236400 0.19927300
v 0.18703300 -0.10439950 -0.18044600
v 0.06045575 -0.10849650 0.18246700
v 0.02241950 -0.10971800 0.18375200
v 0.22719840 -0.11009600 0.00017560
v 0.27510267 -0.10692433 -0.03338267
v 0.27500700 -0.10720000 0.00015900
v -0.35699400 -0.12168900 -0.15845500
v -0.37195945 -0.12925870 -0.12260713
v -0.38096300 -0.12240400 -0.14373100
v -0.05362700 -0.11216500 -0.18636500
v -0.42524500 -0.12377000 0.08410300
v -0.43848491 -0.09913177 0.08124087
v 0.37293600 0.06550300 0.11161800
v -0.14077353 -0.03292998 -0.19357345
v -0.12223913 -0.06195352 -0.20328703
v -0.15811477 -0.06565134 -0.20329463
v -0.40116061 -0.03149371 -0.12577329
v -0.17262700 -0.11595800 -0.18959400
v -0.20005200 -0.11682150 -0.18853650
v -0.21716573 -0.04326793 0.18979570
v -0.21636299 -0.07234777 0.19498137
v -0.20309143 -0.04860541 0.19222837
v -0.19701739 -0.07967363 0.19832328
v -0.17265300 -0.11595400 0.18953400
v -0.16320207 -0.05759781 0.20530647
v 0.30534641 -0.03135161 -0.18484708
v 0.30953566 -0.06164584 -0.18034558
v 0.07550057 -0.13257114 0.08388900
v 0.07368920 -0.13452651 0.07035940
v 0.08289665 -0.13386398 0.07105009
v -0.16076100 0.00448600 -0.16822150
v -0.15803807 0.01236923 -0.14646309
v 0.34254500 0.03826600 0.13464100
v 0.34591257 0.02858387 0.17320724
v 0.37689500 0.03140300 0.13301600
v 0.37851487 0.00140149 0.18544647
v 0.24520543 -0.07882441 0.19061321
v 0.27450600 -0.06910600 0.19026500
v -0.05656100 -0.05270900 -0.19879800
v 0.36540515 0.07782963 -0.01649678
v 0.35408304 0.08407240 -0.04116509
v 0.02908000 0.10786700 -0.06448400
v -0.39280789 -0.13463345 -0.04002851
v -0.15646750 0.04497150 0.00022150
v -0.26320200 -0.11880300 -0.18390900
v -0.28946896 -0.06803889 -0.17320204
v -0.24034631 0.04477370 0.04705989
v -0.25679650 0.04526367 0.04132391
v -0.25838264 0.04478016 0.04344531
v 0.31129436 -0.11303340 0.12965184
v 0.32122009 -0.11326930 0.12497513
v 0.31627529 -0.11199384 0.13308621
v 0.14277500 -0.10583925 -0.18082500
v 0.07312275 0.03271700 0.11966950
v 0.07881200 0.00605800 0.16618400
v -0.39232200 -0.12274100 -0.13394500
v -0.26554800 -0.00560200 0.16046900
v -0.08268879 0.05768981 -0.02671609
v 0.35238285 0.08553494 -0.06449174
v 0.37814093 0.07683483 -0.07921578
v 0.37295100 0.06550100 -0.11160600
v -0.43596236 -0.09129066 -0.09331151
v 0.03694145 0.11205529 0.04030036
v 0.01907500 0.11172900 0.03347000
v 0.02224700 0.11050500 0.04714100
v -0.21150627 0.04348857 0.05829560
v -0.21232190 0.04429598 0.05506096
v 0.32958400 0.04236000 -0.19926600
v 0.34589100 0.04147300 -0.19733400
v -0.42872526 -0.07380056 0.09853366
v -0.44158007 -0.07581800 0.08070939
v -0.40116300 0.01425500 0.05866700
v -0.42180001 -0.01289111 0.06415569
v -0.40930701 -0.00406793 0.08009497
v -0.11351725 -0.05842705 0.20223966
v -0.16226495 -0.05682798 0.20522225
v -0.12528775 -0.07752851 0.20361414
v 0.24764756 -0.11303111 0.03064374
v 0.24663619 -0.11313380 0.03198495
v 0.34245030 -0.06803743 -0.16477510
v 0.34551927 -0.06721036 -0.16295292
v 0.34301769 -0.07009379 -0.16421478
v 0.32970066 -0.00747421 -0.17676906
v 0.32378548 -0.02244611 -0.17646752
v 0.08071343 -0.11292984 -0.15386783
v 0.07663199 -0.12271863 -0.13076174
v 0.05932957 -0.11767223 -0.14957008
v -0.05636725 0.05888164 0.06209265
v -0.05701480 0.05871620 0.06197942
v -0.08909100 0.03668400 -0.07360400
v 0.19913726 0.10098519 -0.08362878
v -0.23701045 -0.06260427 -0.19190266
v -0.21069303 -0.04580988 -0.19301216
v -0.21540425 -0.07781842 -0.19525119
v -0.16415880 -0.13427378 0.13069651
v -0.18820631 -0.12755450 0.15264095
v -0.18015186 -0.13926792 0.11480790
v -0.19829396 -0.13768274 0.12014021
v -0.13817000 0.02785700 0.10823800
v -0.44432248 -0.08315561 0.04556090
v -0.43042800 -0.12394400 0.06915100
v 0.40039800 0.02877300 0.13482100
v 0.27084800 0.09361800 -0.08035500
v -0.20456882 -0.03644878 0.19077838
v -0.18437144 -0.14189029 -0.09599409
v -0.16405411 -0.14413982 -0.08246753
v -0.37623927 -0.13203952 0.11326546
v 0.33020599 0.02625561 -0.17398945
v -0.36655100 0.00076200 0.12875700
v -0.37985937 -0.02373299 0.13154907
v 0.22952700 0.09242267 0.11132467
v 0.10111500 0.09698400 0.11119900
v 0.43950600 0.03490500 0.04423000
v 0.12386426 -0.11473837 0.14703308
v 0.13686743 -0.11497447 0.14858582
v -0.09329366 -0.11342933 -0.18744133
v -0.29692784 -0.13030073 -0.13369141
v -0.31328698 -0.13060201 -0.12805677
v -0.30676998 -0.13465537 -0.11209166
v -0.33011400 -0.02870200 0.15323800
v -0.33380591 -0.06129572 0.15919515
v -0.32547188 -0.06037716 0.16188753
v 0.40930842 -0.00441453 0.16256418
v -0.08677550 0.00323300 -0.17178200
v -0.32454700 -0.01556700 -0.15469000
v -0.19655384 -0.14165856 0.10181542
v -0.19912934 -0.14065169 0.10932741
v -0.20800329 -0.14004659 0.11113995
v 0.40635233 -0.07808351 0.16579972
v 0.40010401 -0.07844981 0.17318567
v -0.05646567 0.05900881 0.06145850
v -0.07851798 0.05845354 0.03126256
v -0.30515914 0.00768203 -0.13714126
v 0.39430517 0.06626940 0.05959120
v -0.05675000 -0.07950500 0.19635400
v 0.31541300 -0.10021100 -0.17535500
v 0.31283681 -0.10006244 -0.15075499
v 0.33300407 -0.09760147 -0.14975392
v -0.23836241 0.04132889 -0.06125435
v -0.19653500 0.00362300 0.16600400
v 0.22575091 -0.03185283 0.19761900
v 0.27349700 -0.03485100 0.19710700
v -0.02498350 -0.07809150 -0.19499500
v 0.36939900 -0.09846000 0.14966200
v 0.33985332 -0.11094022 0.13124975
v 0.33500148 -0.10786755 0.14861107
v -0.23759450 -0.14234681 -0.04727906
v 0.33281214 -0.03103840 -0.17237828
v -0.35654362 -0.08720333 0.15442081
v -0.35491079 -0.08572653 0.15482934
v 0.06679758 -0.03048795 -0.18106863
v 0.03375756 -0.03011371 -0.18439191
v 0.43951300 0.03490400 -0.04409300
v 0.12074800 -0.04676600 -0.18567800
v -0.05545558 0.05901391 0.06257137
v -0.02237907 0.06439189 0.07800273
v 0.11091100 -0.05618100 0.18674000
v -0.42569161 -0.09928361 -0.10468430
v -0.42184740 -0.09999361 -0.11167121
v -0.22750300 -0.11768100 0.18741200
v -0.20007800 -0.11681750 0.18847300
v 0.05247200 -0.07260700 -0.19116400
v -0.14293576 -0.14287941 -0.04114935
v -0.15092166 -0.14382391 -0.05745056
v -0.00212960 0.09604158 -0.03782381
v 0.01908000 0.11172900 -0.03321600
v 0.02225300 0.11050400 -0.04692300
v 0.27083700 0.09361900 0.08039100
v 0.27084400 0.09217500 0.10014200
v -0.00729323 0.06547104 0.08364693
v 0.03979831 -0.13607119 0.05373400
v 0.04740238 -0.13682662 0.06220702
v 0.03305358 -0.13813151 0.06740852
v -0.07926883 -0.08551307 0.20029526
v -0.09331966 -0.11342533 0.18739267
v 0.31712465 -0.10458814 -0.12623695
v 0.30337158 -0.10119059 -0.15064335
v 0.32504593 -0.10221267 -0.13331222
v 0.33919631 0.08789945 -0.04738644
v -0.19971921 0.04397163 -0.05122816
v -0.19880105 0.04410011 -0.05081347
v 0.34389798 -0.11514608 0.11210546
v 0.03059267 -0.13294906 0.10918686
v 0.00145717 -0.12521048 0.13553475
v 0.01926732 -0.13724187 0.09559256
v -0.00774200 0.10374200 0.00015200
v -0.27750406 -0.14170999 0.03484723
v -0.27220192 -0.14229981 0.04277339
v -0.44261238 -0.06043273 0.05324940
v -0.43118684 -0.04208423 0.08673258
v -0.43994751 -0.05128792 0.05317096
v -0.42807958 -0.03199437 0.08757024
v 0.27084100 0.08942000 0.11136900
v 0.30203400 0.08725100 0.11147100
v -0.13298633 -0.11468967 0.18846333
v 0.15393863 -0.12311416 0.11161880
v 0.13913110 -0.12049359 0.12473417
v -0.43131722 -0.02532229 0.04147687
v -0.43383184 -0.03253966 0.04267265
v -0.43036325 -0.02677972 0.05233826
v 0.41338054 -0.01691653 0.16663629
v 0.07936005 0.06501954 0.11393979
v 0.43862300 0.03223900 0.07566300
v 0.38143441 0.00488990 -0.14832267
v -0.43951300 -0.12429100 0.00030800
v -0.37744421 -0.04441273 0.13957237
v -0.37204085 -0.03091958 0.13856266
v -0.43792080 -0.10396921 -0.08156046
v 0.10609078 -0.12732849 0.10745064
v 0.10472537 -0.12745356 0.10746867
v 0.10532106 -0.12755759 0.10521321
v 0.30841390 0.08699329 0.05722227
v 0.23820054 -0.04887290 0.19842389
v 0.24032636 0.09902078 0.07725497
v 0.21788500 0.03679800 -0.19095700
v -0.39815524 -0.02400511 0.11651318
v 0.36216800 0.04017600 -0.19313600
v 0.19385354 -0.12106455 0.09753847
v 0.19224272 -0.12139132 0.09521392
v 0.19515508 -0.12108820 0.09516013
v 0.41376703 0.00766120 -0.13075387
v 0.43762300 0.04980300 -0.07299800
v 0.23543771 0.10269396 0.04199319
v -0.32456900 -0.01556300 0.15460700
v -0.00351707 -0.12952347 -0.12428211
v 0.01563938 -0.13293363 -0.10960367
v -0.02856534 -0.14157359 -0.09340610
v 0.00434495 -0.13844631 -0.09544127
v 0.43562248 -0.01834067 -0.04196958
v 0.19489451 -0.11642579 -0.11439784
v 0.19201564 -0.11927658 -0.09689495
v 0.16717103 -0.11454994 -0.13005259
v 0.08377260 -0.11878400 0.00022540
v 0.05178396 -0.13378454 -0.04217579
v 0.06277510 -0.13292546 -0.04648182
v -0.13296033 -0.11469367 -0.18851767
v -0.13389758 0.03857468 0.07100243
v 0.40028253 -0.04186841 -0.12428787
v 0.39915928 -0.04219658 -0.12583180
v 0.41453656 0.00420752 -0.12772978
v -0.06709830 -0.13696354 0.12450522
v -0.02938289 -0.13736046 0.11347096
v -0.06773115 -0.13099986 0.13932028
v -0.03457122 -0.13093430 0.13063685
v 0.05244500 -0.07260300 0.19113500
v 0.08373500 -0.06717300 0.18909100
v 0.24039700 -0.10789115 -0.13690571
v -0.01414076 0.01056280 0.13769281
v 0.42619100 -0.09674100 0.00008500
v 0.05192956 -0.12222883 -0.13458953
v 0.06988400 -0.12692613 -0.11692150
v 0.02910813 -0.13229283 -0.10877078
v 0.03711007 -0.13386557 -0.10246435
v 0.32942523 -0.10468841 -0.11773510
v 0.31903863 -0.10620552 -0.11751651
v 0.32277087 -0.10399612 -0.12227547
v 0.17938980 -0.11299200 0.00019220
v 0.19120026 -0.00888275 0.19034537
v -0.23131634 -0.14473363 0.06821021
v -0.23333330 -0.14340037 0.04949199
v -0.21256210 -0.14410760 0.05312067
v -0.08100533 -0.13703989 0.12723706
v 0.04186750 0.07426400 0.11118450
v -0.27587771 -0.06104288 -0.17881556
v -0.23474174 -0.08099924 -0.19181797
v -0.05013900 -0.00204000 0.17929100
v -0.05225800 -0.00964300 0.18696900
v -0.36244200 0.01673500 -0.08596600
v -0.34841576 0.02977432 -0.04392777
v 0.43511800 0.02897700 -0.10055600
v 0.43558600 0.04464600 -0.09592200
v 0.43863300 0.03223800 -0.07558400
v 0.43262600 0.03714600 -0.11160900
v -0.00813649 0.08070906 -0.06313547
v -0.01467088 0.06757923 -0.07695928
v -0.03602475 0.07160541 -0.05310504
v -0.06442228 0.05126551 -0.06819060
v 0.33524960 0.02547361 -0.17218719
v 0.05943600 0.12383300 0.00012700
v -0.14835993 -0.12696998 0.15587058
v -0.16339864 -0.12615874 0.15686623
v -0.15547512 -0.13600938 0.12604786
v -0.09503175 -0.08118048 -0.19752625
v 0.41141985 -0.07624259 0.15401095
v 0.17792069 -0.02986212 0.19148464
v 0.04646100 0.00379200 0.16644500
v 0.39015528 0.07471569 -0.03213677
v -0.25810552 -0.13317605 0.13323764
v -0.27511184 -0.13124931 0.14079969
v -0.26034405 -0.14097189 0.09991397
v -0.16078450 0.00449000 0.16816100
v -0.13636389 -0.14436687 -0.08453856
v 0.04524700 0.10161700 0.08792000
v -0.10732925 -0.14262627 0.04389571
v -0.10751239 -0.14259873 0.04827126
v -0.11145814 -0.14262507 0.04551354
v -0.10930295 -0.14551557 -0.08711045
v -0.07281356 -0.12714571 -0.14886729
v -0.07464713 -0.12710283 -0.14934041
v -0.07408201 -0.12669497 -0.15063999
v 0.07093400 0.09168600 0.11116300
v -0.21893040 -0.12623180 0.15308158
v 0.41970800 0.02984200 0.14049600
v 0.41972700 0.02984000 -0.14047600
v 0.42373800 0.02724000 -0.13283900
v 0.36787769 -0.04873744 -0.14916073
v 0.38634700 -0.09792500 -0.13303200
v 0.36941900 -0.09846300 -0.14959400
v 0.20430778 -0.01888303 0.19415113
v 0.20197327 -0.05074620 0.19516223
v -0.21483608 -0.03226709 0.18581984
v 0.23126600 -0.10295575 0.18006375
v -0.11717666 0.03793578 0.07501101
v -0.07477289 -0.02446253 0.19445452
v -0.09931021 -0.03491126 0.19991981
v 0.43017100 0.03089600 0.11842700
v 0.42371900 0.02724300 0.13286000
v 0.42773100 0.02464300 0.12522300
v 0.34198194 -0.07234422 -0.16368040
v 0.34174648 -0.07048018 -0.16465952
v -0.31882427 -0.14267412 0.04479141
v -0.30599850 0.04247705 0.02548699
v -0.29876980 0.04163796 0.03894058
v 0.27136400 0.06163600 -0.13851900
v -0.12938748 -0.14247026 -0.09801826
v 0.20303103 -0.11437698 0.13115172
v 0.19094885 -0.12122843 0.09738382
v -0.32785084 -0.06736107 0.16179333
v 0.25517752 0.07286010 -0.13017386
v -0.04011000 0.08758600 0.00015900
v 0.14550767 -0.06847451 -0.18739670
v -0.16371089 0.01526447 0.14233708
v -0.38582064 -0.13520047 -0.05192577
v -0.38387604 -0.13539845 -0.03971637
v -0.05853150 -0.12543800 0.00026250
v -0.34592882 -0.13912385 0.07482818
v -0.30717192 -0.14185160 0.09270231
v -0.33410267 -0.13835789 0.10232701
v -0.17107979 -0.14341947 0.08584508
v -0.29207350 0.01474420 0.13410769
v -0.28481690 0.03818721 -0.05872034
v -0.29516189 0.03840753 -0.05345226
v -0.27092450 0.02562000 0.09736550
v -0.25134398 0.03741115 0.07627745
v 0.35918501 -0.11229284 0.10402283
v 0.00061758 -0.12505526 0.13630190
v -0.04799721 -0.12391546 0.16015546
v 0.42212343 -0.02691578 0.15703368
v 0.31159361 -0.05960902 -0.17949418
v 0.32166350 -0.10973884 -0.05859656
v 0.32579721 -0.11007603 -0.04329475
v 0.12754497 0.12153781 0.04652813
v 0.11093800 -0.05618600 -0.18676200
v 0.10395700 -0.06025100 -0.18745000
v -0.17436020 -0.02377955 0.18552835
v -0.20233334 -0.02995947 0.18660179
v -0.26106555 -0.14284560 0.08994471
v -0.29321802 -0.14278793 0.07991899
v -0.29803009 -0.14208510 0.09335174
v -0.29531100 -0.13270159 0.13379051
v -0.01164850 -0.14024630 -0.05682462
v -0.04093840 -0.14230813 -0.05782279
v -0.03241906 -0.14281004 -0.08436845
v -0.25563817 -0.08974009 0.18648923
v 0.19041091 -0.12155275 0.09513835
v 0.15936537 -0.12488250 0.05163839
v 0.16674232 -0.12424037 0.05137375
v -0.28946780 -0.05343073 0.17297165
v -0.29043104 -0.05508832 0.17281905
v -0.18327232 -0.14378113 0.06449023
v -0.15949663 -0.14458676 0.06975718
v -0.15288787 -0.14498058 0.07198456
v -0.15773159 -0.14515138 0.07540196
v -0.12844710 0.03825186 -0.06716314
v -0.12948019 0.03919289 -0.06373607
v 0.33967200 0.07840600 0.11156500
v -0.28822639 -0.05402061 0.17337490
v -0.32902367 0.03799598 0.03813743
v -0.43069574 -0.02386801 0.03968588
v -0.43160083 -0.02604304 0.03951908
v 0.25495385 0.08303610 0.11538624
v 0.25918678 0.07363573 0.12443383
v 0.27092900 0.08321500 0.12085300
v -0.27165073 -0.14328624 -0.08514280
v -0.26176474 -0.14312464 -0.08678531
v 0.41600500 -0.09700900 -0.07666600
v -0.10349244 -0.07520876 0.20417171
v 0.03553009 -0.13498908 0.09806854
v -0.09604700 0.03884900 -0.06325700
v -0.10680866 -0.05056725 -0.20045574
v -0.09732464 -0.07391906 -0.19963604
v 0.16104622 -0.10980051 -0.13966581
v 0.15741458 -0.11276319 -0.13849249
v 0.41977412 0.03726609 -0.12432649
v 0.43018700 0.03089400 -0.11840600
v 0.35059900 -0.10197100 0.00012200
v -0.00439797 -0.03261971 0.18869129
v 0.14913180 -0.12503348 0.09963771
v 0.36754505 0.08201675 -0.04728158
v 0.39762529 0.07274247 -0.05017884
v 0.40774319 0.06644188 -0.07768774
v 0.40278850 0.05132350 -0.11160750
v 0.06860174 -0.13453787 -0.08011134
v 0.06982596 -0.13167283 -0.09447643
v 0.07478509 -0.13399735 -0.08382876
v -0.00906135 0.07773669 0.06596340
v 0.01011515 0.08447650 0.07509379
v 0.12687350 0.12025707 -0.05344025
v 0.10702663 0.11639372 -0.06105882
v 0.10383150 0.12281944 -0.04034050
v -0.34495818 0.03324247 0.04778035
v -0.31373800 0.02293200 0.09274600
v -0.05345900 -0.01637300 -0.19108900
v 0.07313925 0.03271475 -0.11969775
v 0.07094900 0.09168300 -0.11119200
v 0.11384950 0.03760550 -0.12502650
v -0.34482203 -0.13901530 -0.09104424
v -0.34659858 -0.13852784 -0.09183474
v -0.34074352 -0.13701999 -0.09843851
v 0.23525305 0.10492659 -0.02164512
v 0.31020724 -0.11164013 0.13671625
v -0.35557268 -0.13498862 -0.10257132
v -0.24023732 -0.12742317 0.14906293
v -0.22990541 -0.12512518 0.15677369
v 0.12072300 -0.04676200 0.18565800
v -0.37388608 -0.12965535 -0.11712492
v -0.37115831 -0.13060277 -0.11192847
v -0.43007074 -0.02319924 0.04156923
v 0.42456500 -0.09676700 -0.03298300
v -0.44395346 -0.08371308 0.03662358
v 0.13655317 -0.07689718 -0.18341195
v 0.05559254 -0.13399121 -0.05758234
v 0.06107769 -0.13505769 -0.08396250
v 0.41460667 0.00614534 -0.12888630
v 0.41509806 0.00575289 -0.12769213
v 0.24331801 0.09527915 0.08642316
v -0.09232048 -0.13022655 0.14221086
v 0.10113000 0.09698100 -0.11122500
v -0.03792482 -0.01243714 0.18038370
v -0.01979619 0.08552059 -0.04215292
v -0.00761114 0.09388031 -0.03466786
v -0.00473622 0.09269089 -0.04317775
v 0.00273640 -0.12821601 -0.12696576
v 0.19360552 -0.12118389 0.09106251
v 0.17716168 -0.12288088 0.04628710
v 0.20144399 -0.12132452 0.05259057
v 0.33966851 -0.10897189 -0.04244571
v 0.06794891 -0.02951794 0.18354316
v 0.39803091 -0.04369417 -0.12632791
v -0.44217148 -0.04561991 -0.03699771
v 0.27134800 0.04284700 -0.19754200
v -0.22747700 -0.11768500 -0.18747900
v 0.18670613 -0.00793840 -0.18550946
v 0.36501050 -0.03605162 0.21430082
v 0.35671483 -0.04505090 -0.15721478
v -0.07665554 -0.01767681 -0.18871874
v -0.05498400 -0.02850400 -0.19561000
v 0.23629754 0.10317929 0.03383638
v -0.36927410 -0.12974740 -0.11903829
v 0.23849908 -0.06699478 0.19361185
v 0.43599924 0.04266646 0.01977259
v -0.31008226 -0.14334079 -0.08663848
v -0.31634170 -0.14273988 -0.05170775
v -0.12501100 0.00535300 -0.17037400
v -0.11860133 -0.03023967 -0.19370379
v -0.10183630 -0.13896818 -0.11512001
v -0.38331196 -0.13616540 -0.07963138
v -0.39187481 -0.13258837 -0.09936096
v 0.33892700 -0.09944100 0.16781700
v 0.32029550 -0.06554817 0.20241935
v 0.31044133 -0.05657952 0.20317594
v 0.30960107 -0.06641539 0.20123170
v 0.12088426 -0.12942305 0.05590725
v 0.09015334 -0.12989853 0.03744918
v 0.13158119 -0.11588800 0.00020880
v -0.37835000 -0.09235400 -0.14453500
v -0.37452500 -0.07935800 -0.14542300
v 0.10028535 -0.13097277 -0.09091804
v 0.12112364 -0.12689728 -0.09845204
v 0.10733798 -0.13053479 -0.06031154
v 0.12516610 -0.12674239 -0.07752215
v -0.24541732 -0.02860430 0.17401186
v 0.03488500 0.10562400 -0.07456500
v 0.01573074 0.08693056 -0.07734822
v 0.38266435 0.00184485 -0.14810416
v -0.36571625 0.02911396 0.04032293
v -0.41520100 -0.12344700 -0.10459400
v -0.43599000 -0.12414100 0.04497600
v 0.24308337 -0.11364289 0.03400282
v -0.21027309 -0.14455825 0.07264385
v -0.18572146 -0.14329604 0.04348721
v 0.12913928 0.06825024 0.12113602
v -0.30786186 0.01036162 0.13634990
v -0.33261628 0.00932261 0.12811790
v 0.12615085 -0.08407242 0.18640701
v 0.42569855 -0.07255295 0.10375200
v -0.36602900 -0.06221100 0.14712000
v -0.38951131 -0.07336913 0.13681717
v -0.18163377 -0.14075413 -0.01409521
v -0.10958670 -0.14226997 0.04247705
v -0.15392728 -0.13881394 0.11954952
v -0.10917900 0.04279400 -0.01975400
v 0.11990659 -0.12998296 0.06336153
v 0.12543458 -0.12940698 0.06462727
v 0.20693925 -0.11995211 0.04078948
v 0.43624066 -0.00866420 -0.04200653
v -0.23341904 -0.12638027 -0.14653172
v -0.29726400 -0.11986100 -0.17814600
v -0.31706551 -0.08288096 -0.16693703
v -0.05067645 0.06748306 -0.04811107
v -0.35868800 -0.05225100 0.14853300
v -0.34550600 -0.03935200 0.15085000
v 0.10370785 -0.12751832 0.10752187
v 0.06808449 -0.13161984 0.10495095
v -0.31796360 0.00081093 0.14279159
v -0.33532200 -0.01138400 0.15170800
v 0.43510400 0.02897900 0.10059400
v 0.13045587 0.12109223 0.04776381
v 0.12889976 0.12051147 0.04957470
v 0.16458929 0.10750144 0.07640552
v 0.15165025 0.10788554 0.07792748
v -0.15379229 0.03908532 0.06694448
v -0.14904581 0.03635898 0.07716708
v 0.34974200 -0.09909200 0.16266500
v 0.35367435 -0.08557164 0.18335354
v -0.03979293 -0.13328690 -0.12489562
v -0.00913473 -0.12538021 -0.13690373
v -0.02392231 -0.13243870 -0.11883403
v -0.28244615 -0.14209604 0.04443182
v 0.38833115 -0.10325370 -0.04205567
v -0.40664100 0.01639800 0.03711600
v 0.16473158 0.11667932 -0.05526372
v 0.15323900 0.12747600 0.00009500
v -0.23958690 -0.14232788 -0.04702153
v -0.23862162 -0.14251904 -0.04961401
v 0.16087934 -0.12467760 0.04535329
v -0.24792439 -0.04251492 -0.18096934
v -0.21296292 -0.03091379 -0.18452638
v -0.24987076 -0.03263029 -0.17521659
v -0.20925895 -0.08597590 0.19525730
v -0.36653300 0.00075900 -0.12884600
v -0.02461387 -0.03283965 -0.18907893
v 0.22938752 -0.11414763 0.11317448
v 0.23774293 -0.11723490 0.08329503
v 0.01119639 0.08796991 0.07114452
v 0.01747144 0.08919698 0.07553503
v 0.03626990 0.11325614 0.02998069
v 0.12569115 -0.12936977 0.05883745
v 0.03596400 -0.12168000 0.00024200
v 0.09231478 -0.03864336 -0.18240012
v 0.08376100 -0.06717800 -0.18911500
v 0.15938872 -0.04328595 0.19032749
v 0.03487500 0.10562600 0.07466800
v 0.17007120 0.10998653 0.06519733
v -0.34800501 -0.14038928 0.05495845
v 0.07581210 -0.13110403 0.03514501
v 0.10836600 0.13018100 0.00010900
v 0.08478700 0.12817900 0.00011800
v 0.04525900 0.10161500 -0.08788400
v 0.12121573 -0.07299537 -0.18597196
v 0.12036120 -0.07363724 0.18739534
v -0.11039090 -0.14003439 0.11903351
v -0.11304543 -0.14540057 0.09305073
v -0.04337201 0.06327274 -0.05958918
v 0.35002497 0.08738070 -0.05333686
v 0.33842159 0.08873738 -0.06143628
v 0.30796499 0.09125694 -0.04587559
v 0.30711490 0.09251327 -0.06758113
v 0.19866805 -0.12031888 -0.06582589
v 0.20233579 -0.12014641 -0.05685377
v 0.42939447 -0.05947661 0.11467868
v -0.30058494 -0.14300145 0.08654568
v 0.31941199 -0.11436377 0.05656705
v -0.35222825 -0.13997116 0.05284007
v -0.05842649 -0.14592073 0.08437797
v -0.07445806 -0.14589881 0.08799621
v -0.26276582 0.04462749 0.04288302
v -0.25910739 0.04526290 0.04116444
v -0.23456966 0.04187843 -0.05949083
v 0.40638100 -0.09730000 -0.10172700
v 0.40432525 -0.06630685 -0.10904041
v -0.23335341 -0.14245936 -0.04923177
v -0.00640865 -0.13838230 -0.03985876
v 0.00739929 -0.13855465 -0.05133551
v 0.01071581 -0.13743542 -0.03883843
v 0.03287994 -0.03148100 0.18517954
v -0.35866700 -0.05225400 -0.14862000
v -0.34838169 -0.06657165 -0.15475824
v -0.36600800 -0.06221400 -0.14720800
v 0.24662200 0.04143900 -0.19566500
v -0.29894018 -0.14320291 0.08958405
v -0.25792297 -0.14285486 0.09086384
v -0.26101388 -0.14274598 0.09212005
v 0.18923198 -0.12119393 -0.06805186
v -0.38954100 -0.07929157 0.13732192
v -0.37454600 -0.07935500 0.14533500
v 0.07016213 0.12111944 0.03143497
v -0.35698989 -0.08741884 0.15424610
v -0.32425862 0.00498158 0.13792170
v 0.21450570 0.11007146 -0.03095503
v 0.07954680 -0.13200211 0.05457059
v 0.06183608 -0.13367377 0.05014528
v 0.04746004 -0.13398097 -0.04191997
v 0.05150047 -0.13398950 -0.04612046
v 0.10623817 -0.13109873 0.06466233
v 0.23613034 0.10312655 -0.06135172
v -0.32881100 -0.12083200 -0.16979400
v -0.13801231 -0.13263926 0.13425516
v -0.44168538 -0.05387896 0.04636824
v -0.44331575 -0.07666365 0.03688894
v 0.10438290 -0.12736862 0.10771162
v 0.10435810 -0.12750514 0.10731549
v 0.08297891 0.10739592 -0.07672260
v -0.27492843 -0.14206399 -0.05978098
v -0.01128375 -0.12355900 0.00025225
v -0.02284796 -0.14069041 0.05724655
v -0.03886267 -0.14209671 0.06223215
v -0.03017052 -0.14027927 0.04575897
v 0.43878500 0.05271800 0.04161000
v -0.14422316 0.04165158 -0.04278210
v 0.42888316 -0.06729634 -0.03626344
v 0.12074905 -0.06985205 0.18757777
v 0.11803101 -0.07172260 0.18752169
v -0.33530100 -0.01138800 -0.15179200
v 0.06231367 0.11889723 0.03618048
v 0.06602567 0.11888696 0.03807122
v 0.42774800 0.02464100 -0.12520200
v 0.37847436 -0.10138257 -0.08663184
v 0.40043600 -0.09748400 -0.11301000
v -0.12669908 -0.12600581 0.15494266
v -0.32668380 0.00696998 -0.13052549
v 0.22922319 -0.10822446 -0.14298550
v 0.20232276 -0.11060109 -0.14090621
v -0.08745231 -0.04817399 0.20150069
v -0.09111508 -0.02047581 0.19017568
v -0.05479894 0.07243066 0.02055000
v -0.02409608 0.08417358 0.03813568
v 0.02060602 -0.13648435 -0.09925342
v 0.02630519 -0.13621206 -0.09776929
v 0.36151822 -0.03793861 0.21346473
v 0.23405299 0.00293430 -0.19175712
v 0.21710136 0.00959251 -0.18907308
v -0.08632400 0.05523426 0.03129068
v 0.42957571 -0.00004344 -0.09672022
v 0.27145700 0.05182500 0.14193500
v 0.38446479 -0.10656771 0.09544192
v 0.30269400 -0.10062300 0.17775600
v 0.31450672 -0.07700810 0.19569052
v 0.09924466 -0.04164232 0.18468302
v 0.16513830 -0.12398925 0.04013759
v 0.17324946 0.11576520 -0.05534672
v 0.10474862 -0.12722590 0.10804048
v 0.23471124 -0.11597405 -0.05394552
v 0.27519833 -0.10664867 -0.06692434
v 0.24012177 0.10292381 -0.05123917
v -0.08120265 -0.14172060 -0.03682274
v -0.32050597 -0.07587616 -0.16595492
v -0.01513867 -0.13925382 0.04453002
v 0.01681527 -0.13609915 0.03631751
v 0.00700163 -0.13957230 0.06056575
v -0.09664706 -0.03235179 -0.19636270
v 0.16185998 -0.11358388 -0.13526570
v 0.16680276 -0.11318134 -0.13678068
v -0.08022680 -0.01944729 -0.18971915
v 0.01568860 0.08662142 -0.07773251
v -0.23506956 -0.14196697 0.02974252
v 0.02907100 0.10786900 0.06463600
v 0.19295512 0.11113649 0.05163816
v 0.20120790 0.10547049 0.07015096
v 0.43530239 -0.01055007 -0.05299660
v -0.40698400 -0.12318900 -0.11714600
v -0.16473537 -0.06881775 -0.20259812
v -0.16302268 -0.06146074 -0.20083593
v 0.13499268 -0.07295247 0.18839227
v -0.18889191 -0.14328812 -0.07012442
v 0.42804266 0.05317150 0.01737384
v 0.35124134 -0.08509042 0.18438936
v 0.35415406 -0.08458310 0.18421862
v 0.35318997 -0.08362536 0.18505548
v -0.25688797 -0.14262721 0.08482180
v 0.31538900 -0.10020700 0.17537200
v 0.41778747 0.01599735 0.13515627
v 0.42846440 0.00531260 -0.10622092
v -0.21718729 0.04309225 0.05883782
v 0.40597445 0.06407750 0.04713321
v -0.40957323 -0.13082615 -0.08051844
v 0.15420221 -0.07176391 0.18938198
v 0.17833178 -0.05249365 0.19335556
v 0.15906894 -0.07375380 0.19016134
v -0.00997228 0.08916674 0.04524959
v 0.00719715 0.09029697 0.06188865
v 0.43335962 -0.06578854 0.04101785
v 0.05449492 -0.13454016 0.07642893
v 0.04837744 -0.13241883 0.10727823
v 0.13259634 0.12132517 0.04588472
v 0.22953399 0.10124779 0.07430850
v 0.15753074 -0.11573377 -0.12979635
v 0.11464611 -0.11508895 -0.13907912
v 0.12034897 -0.12045401 -0.12242553
v 0.10393100 -0.06024700 0.18742800
v -0.11932499 -0.12708841 -0.14762474
v -0.08000213 -0.12746580 -0.14820106
v 0.10293836 -0.04722017 -0.18402260
v 0.21700925 -0.11803842 -0.05783355
v 0.13093100 0.12992100 0.00010200
v -0.36299623 -0.13908195 -0.05753411
v -0.35252669 -0.14066997 -0.04171216
v 0.39521345 0.06868469 0.03575016
v 0.38109667 0.07181654 0.04444477
v -0.30998105 0.00468545 -0.13983156
v -0.31309789 0.00157374 -0.14165425
v -0.15579267 -0.02484341 -0.18788429
v 0.33895000 -0.09944500 -0.16778300
v 0.34976500 -0.09909500 -0.16262000
v 0.01522140 0.08638558 -0.07769470
v 0.01537508 0.08672388 -0.07732384
v -0.32299430 0.00285212 -0.13873718
v 0.20352969 -0.06461255 -0.18785619
v 0.18601288 -0.06656550 -0.18797436
v 0.20336711 -0.07663629 -0.17940409
v 0.15915802 -0.07157071 -0.18644627
v 0.37987807 -0.09827849 -0.10173487
v 0.36334226 -0.10063732 -0.11710701
v -0.02241613 -0.12181903 -0.14713108
v 0.06533868 0.12017687 0.03218840
v 0.43092199 0.00824169 0.10288134
v 0.43616047 -0.00001003 0.07748567
v -0.09740326 0.01729257 -0.13164024
v -0.11987914 0.01778706 -0.13302694
v 0.17938149 0.11658003 0.03675949
v 0.30942568 -0.10952057 -0.07679319
v -0.11089541 -0.12542934 0.15809824
v 0.21119727 -0.12019047 0.04872264
v -0.12353896 -0.14519152 0.08080586
v 0.43155061 -0.04698960 0.15680051
v 0.21846155 -0.11870165 0.06040037
v -0.34548600 -0.03935500 -0.15093500
v -0.34521700 -0.00753300 -0.14710200
v -0.06650981 -0.14358663 0.06379061
v 0.27113200 0.07302800 0.13069700
v -0.39511446 -0.13407049 -0.04926166
v -0.39823417 -0.13361257 -0.07233532
v -0.35215460 -0.14022716 0.05860329
v -0.15444537 -0.14462267 0.07826121
v -0.10187860 -0.14206062 0.04307923
v -0.11115689 -0.14258864 -0.04417205
v 0.00129356 -0.12502773 0.13620090
v -0.40353385 -0.13150638 -0.08919448
v -0.39886598 -0.06825942 -0.13487701
v -0.42169194 -0.08911237 -0.11399961
v -0.42401092 -0.09445835 -0.11068339
v -0.41796376 -0.09539751 -0.11647578
v 0.30764150 -0.10789773 0.15541096
v 0.36804855 -0.10598559 -0.03728976
v 0.42774518 -0.05925542 0.14317268
v -0.19987136 -0.12823842 -0.14241219
v -0.20871807 -0.12462858 -0.15555664
v -0.18971137 -0.12457535 -0.15563940
v -0.08098726 -0.14401583 -0.06549529
v -0.20409535 0.01827337 0.13663949
v 0.20673735 0.09885221 0.08707172
v 0.35760248 -0.09938201 -0.12297831
v 0.34731746 -0.09897886 -0.13586418
v 0.38823604 -0.10592798 0.04409580
v -0.38053900 -0.10668100 -0.14395300
v -0.05976775 -0.14116163 0.03898369
v -0.40138199 -0.09942076 -0.13195308
v 0.15314208 -0.12512032 0.04353528
v -0.18049423 0.01702637 0.13929599
v -0.19021225 -0.08386001 -0.19647746
v -0.13163261 0.03858368 -0.06532740
v -0.11413726 -0.12957789 0.14265705
v -0.34807832 0.02987024 -0.04383673
v -0.13979417 -0.14368604 0.04044239
v 0.27147700 0.05182200 -0.14193600
v -0.39363300 0.01131400 0.08078100
v -0.33186024 -0.07364073 -0.16172662
v -0.15480233 -0.12995566 -0.13647816
v -0.12718004 -0.13288522 -0.13302786
v -0.13444267 -0.12738085 -0.14602003
v 0.32211059 -0.00599327 0.20822328
v 0.32631823 -0.00615360 0.20724348
v -0.03075182 -0.14464036 0.08452796
v -0.34815244 0.02991604 -0.04348030
v -0.19482302 -0.03468369 -0.19030235
v -0.33579178 -0.13677094 0.10972608
v -0.34618704 -0.13572765 0.10949253
v -0.22735366 -0.14262622 -0.09043922
v 0.15060689 -0.07540944 0.18904443
v 0.15515957 -0.07573592 0.18728183
v 0.42715615 -0.00423504 -0.10302185
v 0.00141268 0.09511085 -0.04573985
v -0.29691988 -0.14210105 -0.04431962
v -0.28115414 -0.14182376 -0.03413864
v 0.43066907 -0.05665226 -0.03543898
v -0.07162827 -0.14090868 0.02873392
v -0.10112304 -0.13889016 -0.11544380
v -0.10085370 -0.13911968 -0.11457587
v -0.32718608 -0.13687632 0.11028627
v 0.32326850 -0.00796113 0.20853454
v -0.21109240 -0.14129893 -0.09818000
v -0.21081997 -0.14238275 -0.07927726
v 0.37988608 -0.10759123 0.04277233
v 0.25683972 0.08120606 -0.12041008
v 0.40555087 -0.06111207 0.18245621
v 0.39929081 -0.07052089 0.18266689
v -0.39612518 -0.06891806 -0.13642513
v -0.39416754 -0.07091256 -0.13744094
v -0.39743689 -0.07266184 -0.13563412
v -0.14712757 -0.12339297 -0.16035991
v 0.31556389 -0.11692643 0.09773335
v 0.30980569 -0.11316746 0.12523140
v 0.24705333 -0.11320158 0.03628380
v -0.35858400 -0.00233400 -0.13714300
v -0.16151418 -0.14242442 0.03368882
v 0.38259575 -0.10279727 -0.06841140
v -0.32413206 -0.13141390 -0.12397260
v -0.07435232 -0.12776107 -0.14719996
v -0.36657789 -0.02324806 -0.14207424
v -0.37473172 -0.03870278 -0.14290103
v 0.12957056 0.12165400 0.04592719
v 0.04570689 0.11061769 0.05746451
v 0.12670157 -0.10850297 0.15900438
v 0.36057281 -0.10538753 -0.06685381
v 0.31157562 0.08640101 0.05627755
v 0.31045178 0.08663007 0.05361569
v -0.41506794 -0.01808584 0.09057018
v -0.05348500 -0.01636900 0.19104400
v -0.00373817 -0.14183089 0.08132359
v 0.01873906 -0.13669658 -0.08561315
v -0.34523700 -0.00752900 0.14701700
v -0.34765858 0.00740678 -0.12040466
v -0.34155727 0.00113456 -0.13312888
v 0.32128663 -0.01502928 0.20755948
v -0.34502296 0.01150391 0.11982339
v 0.17280134 0.11612215 -0.05289824
v 0.08850628 0.12365213 -0.02706106
v -0.16227969 -0.14190528 -0.03405067
v -0.12481016 -0.14441070 0.09543575
v -0.32236705 -0.08099341 -0.16547937
v -0.35396933 -0.09031385 -0.15525501
v -0.35227558 -0.08088020 -0.15520336
v -0.34300972 -0.06257705 -0.15579993
v 0.05524726 0.11220369 -0.05855077
v 0.05351670 0.11168307 -0.05907478
v 0.05383001 0.11222241 -0.05690602
v 0.32044707 -0.10812830 0.15163653
v 0.13130009 -0.10840068 -0.15959921
v 0.08546203 -0.12869802 -0.10344868
v 0.09814857 -0.12142761 -0.12607879
v 0.04715478 0.11027947 0.05939601
v 0.19590022 0.00067276 -0.18652063
v -0.22919869 0.01909607 0.13427723
v -0.06526061 -0.01070660 -0.18408154
v -0.33722532 -0.00510907 -0.14039718
v -0.35860300 -0.00233100 0.13705600
v -0.35697148 -0.08677038 0.15418684
v 0.10518157 -0.12963646 -0.04430374
v -0.03841334 -0.00842613 -0.17411673
v -0.36238014 -0.01927418 -0.14254443
v 0.20341053 -0.06004337 0.19603536
v 0.22316593 -0.11338748 0.13143714
v -0.40658577 -0.12921176 0.03835608
v -0.04151307 -0.01860459 0.18698401
v 0.14023694 -0.12352170 -0.10709736
v -0.38463980 -0.13417472 0.09194189
v -0.01067982 -0.13717061 0.10409464
v 0.24828259 -0.11305635 0.03291270
v 0.12539065 0.10885147 0.07727121
v 0.42905753 0.01270328 0.10950325
v -0.22259923 -0.13030475 -0.13235133
v -0.19695251 -0.13660976 -0.11911334
v -0.22900030 -0.13630483 -0.10946898
v -0.08270635 -0.14576210 -0.07869573
v -0.19815317 0.04403122 -0.05096003
v -0.14750302 0.04230996 -0.03822782
v -0.16244879 0.03739578 -0.07243271
v 0.21292960 -0.11678533 -0.09668775
v 0.35508206 -0.08388387 0.18455758
v 0.36055031 -0.05625380 0.20167474
v -0.36598109 -0.01879188 -0.14072377
v -0.33374190 -0.12934420 0.13112226
v 0.24268488 -0.10269570 -0.14902358
v 0.31557207 0.08561772 0.05504317
v -0.17600062 -0.14306734 -0.04924398
v 0.11144432 -0.11779509 -0.13130884
v 0.10907529 -0.12088450 -0.12487525
v -0.06118781 -0.00842333 -0.18241795
v -0.05223200 -0.00964700 -0.18701300
v -0.07917031 0.05279512 -0.04943812
v -0.06475028 0.05811277 -0.05546287
v -0.07789978 0.05001155 -0.06431435
v 0.36321840 0.07363263 0.06676073
v -0.35175714 -0.13670590 0.09844604
v 0.41629269 0.02185093 -0.13422732
v -0.09424093 -0.13884168 -0.11520097
v -0.10064622 -0.13897564 -0.11526024
v -0.09384773 -0.13578430 -0.12425514
v -0.13562712 0.04272502 0.03507284
v 0.29359819 0.09179822 -0.08917145
v 0.03846238 -0.13483678 -0.07071698
v 0.22072625 -0.11208748 -0.12671165
v 0.23634401 -0.11271331 -0.10091940
v -0.11887689 -0.13096708 -0.14015151
v -0.03506094 -0.13996401 -0.03594851
v 0.12867459 -0.12789058 -0.04953773
v -0.39545643 -0.05459908 -0.13419117
v 0.01175377 0.08152034 0.08010139
v 0.39462797 0.07220278 -0.07990382
v 0.32084577 -0.04064501 -0.17782017
v -0.44223015 -0.05993096 0.04608620
v 0.21102940 -0.05611421 0.19662225
v 0.08466048 0.12166776 -0.03740083
v 0.22060130 -0.01954495 -0.19212805
v -0.28421376 0.00551772 -0.14137422
v -0.37778076 -0.02344569 -0.13679885
v 0.35193133 0.07826396 0.05463659
v -0.14694858 0.04235758 -0.03809690
v -0.28265688 -0.14304424 -0.08792829
v -0.22760748 -0.12960721 0.14104679
v -0.23715059 -0.13745828 0.11791440
v -0.34999395 -0.13835229 -0.09131535
v -0.05500001 0.05979482 0.06155977
v -0.24022812 -0.08900191 0.18907159
v 0.07409294 0.12109692 -0.02912321
v 0.05151743 0.11653336 -0.03007277
v 0.01906732 -0.11599932 -0.15367799
v -0.01198301 -0.11982698 -0.14954635
v -0.27647286 -0.14244223 -0.04269402
v 0.42518460 -0.05112161 -0.07760242
v 0.40521455 -0.06569965 -0.10765196
v 0.10075492 -0.12678731 0.11038352
v 0.17503503 0.11562511 -0.05456475
v 0.31390825 -0.06728630 -0.17629609
v 0.42811643 -0.00109213 0.12354150
v 0.42728414 -0.02097354 -0.09164730
v 0.40462344 -0.06565827 -0.10890318
v 0.39932458 -0.04406861 -0.12468174
v 0.23407396 0.09776579 0.08277426
v 0.08222331 0.11307735 -0.06283809
v -0.33178722 -0.14141027 -0.04552982
v -0.34653264 -0.14019971 -0.03254036
v -0.27670437 -0.12541029 -0.14829733
v -0.29707994 -0.12680615 -0.14279045
v -0.24710865 -0.14226688 -0.04699496
v 0.33852419 -0.06276527 0.20522571
v -0.36891924 -0.02625263 0.13907494
v 0.18745706 0.11129612 0.05382849
v -0.36649732 -0.12941752 -0.12120973
v 0.04449840 -0.13461489 -0.04729614
v -0.35643405 -0.08620138 0.15431679
v -0.35783437 -0.13897617 0.06280339
v -0.09327921 -0.06528696 -0.19790393
v -0.05290022 -0.13831529 -0.11493753
v 0.04862613 0.11096276 0.05848322
v -0.04893591 -0.13715975 -0.11798614
v -0.06486681 -0.12649299 -0.14827723
v 0.09756372 -0.13140231 -0.05534931
v -0.13538380 0.04269970 0.03523057
v 0.15960890 -0.12406004 0.03563862
v -0.14155754 0.03795374 -0.06844611
v 0.00953880 0.00678608 0.14244403
v -0.27245176 -0.14246746 -0.04680613
v -0.34866141 0.02976496 -0.04375245
v -0.39331630 -0.06611049 -0.13733929
v -0.05887296 -0.14150909 -0.04215858
v -0.04766964 -0.13815553 -0.11429026
v -0.18048105 -0.14198994 0.02221952
v 0.05517199 0.11155999 -0.06008576
v 0.30773098 -0.11302273 0.12830208
v 0.07060957 -0.12764890 0.12125937
v 0.01167154 -0.14060883 0.07591310
v 0.43138265 -0.02994419 -0.05905182
v 0.42744501 -0.05863567 -0.05574763
v 0.10425952 -0.11673039 -0.13563627
v 0.00999942 -0.12547768 -0.13403284
v 0.35513619 -0.08502107 0.18322224
v 0.34122239 0.07931578 0.06951135
v 0.35316277 0.07533709 0.07031291
v 0.42411072 0.05409949 0.02471307
v -0.19632425 -0.04775263 -0.19359962
v 0.09015302 -0.13187627 -0.08501055
v 0.00653384 0.00846127 -0.13826882
v -0.19725456 -0.14358966 -0.05372324
v 0.22351368 -0.03763416 -0.19229052
v 0.21856558 -0.06867101 -0.18818156
v 0.01803762 0.00676527 0.14289779
v -0.17709864 -0.12984506 -0.13785769
v -0.14636685 -0.09106901 0.19853391
v -0.36644329 -0.01962536 0.13845663
v 0.40393261 -0.06620642 -0.10953414
v -0.01757441 -0.14146572 -0.07931277
v 0.35197173 0.04186356 -0.16014888
v -0.14731630 0.04236739 -0.03774403
v -0.34811813 -0.05701928 0.15304034
v 0.23503461 -0.11556039 -0.06045684
v 0.31149362 0.08611144 0.05947463
v -0.30104936 -0.14300711 0.08924892
v -0.14779801 0.04235541 -0.03806808
v -0.06127603 -0.00786699 -0.18172774
v -0.19058855 -0.14237655 -0.03682638
v 0.40245444 -0.04388514 -0.11919858
v -0.31956253 -0.13324373 -0.11602321
v 0.01664642 0.00363867 0.14620846
v -0.31929060 0.03790186 0.04821654
v -0.29626662 0.03907540 0.05908865
v 0.14250040 -0.12434751 0.10894813
v 0.02274300 -0.13690439 0.05069514
v -0.01334757 -0.13989583 0.05343386
v -0.16145278 0.03636618 -0.07570020
v -0.16519371 0.03760262 -0.07221292
v -0.04885457 -0.13894907 -0.10866742
v -0.04989757 -0.14357379 -0.08420136
v -0.06425620 -0.14362379 -0.06658338
v -0.01251368 0.00706804 -0.14022932
v -0.38399622 -0.13423379 0.07226197
v 0.24420085 0.10202535 -0.06106692
v -0.34903355 -0.14091219 -0.05065692
v -0.34719355 -0.13894555 -0.08473941
v -0.35728721 -0.09167681 -0.15448254
v -0.03359070 0.08232600 -0.02395669
v 0.24929620 -0.11293778 0.03129507
v -0.25545330 -0.14211594 0.09572508
v -0.16315886 -0.12435780 -0.15513690
v 0.08663289 0.10879804 0.07572250
v -0.22804713 -0.14138639 0.09270966
v 0.23683255 -0.11561457 -0.04796963
v 0.09505473 0.10825830 -0.07746711
v -0.17200002 0.04096425 0.06271614
v -0.02537478 -0.14229200 -0.08830934
v -0.28885935 -0.05673717 0.17240813
v 0.05891230 -0.11982426 0.14273360
v 0.05620636 -0.12244248 0.13419834
v 0.06274046 -0.12107409 0.13660777
v 0.06357576 -0.12005928 0.14095928
v -0.05690907 -0.13990790 -0.10534926
v 0.24558831 -0.05906053 -0.19003031
v 0.07584434 -0.11889823 0.14273585
v 0.15282666 -0.12473510 -0.03034833
v -0.12874494 -0.13878175 0.12137057
f 2 3 4
f 6 7 8
f 7 9 8
f 10 11 12
f 14 15 16
f 15 17 16
f 19 20 18
f 21 22 23
f 24 25 26
f 27 28 29
f 30 31 32
f 33 34 35
f 38 39 40
f 43 44 45
f 46 47 1
f 48 49 50
f 51 53 52
f 54 55 56
f 57 58 59
f 61 62 63
f 66 67 68
f 67 69 68
f 70 71 72
f 73 74 75
f 76 77 78
f 80 81 82
f 12 83 84
f 85 86 87
f 88 89 90
f 92 94 93
f 95 96 97
f 57 59 98
f 99 100 101
f 102 103 104
f 105 106 107
f 108 109 110
f 111 112 113
f 35 114 33
f 115 116 117
f 118 119 29
f 120 121 122
f 125 127 126
f 128 98 129
f 130 131 132
f 131 133 132
f 134 135 136
f 92 137 94
f 138 139 140
f 141 142 143
f 135 144 145
f 146 147 148
f 151 152 153
f 152 154 153
f 155 156 157
f 158 159 160
f 61 161 62
f 162 163 164
f 165 166 167
f 168 169 170
f 172 173 174
f 173 175 174
f 85 176 177
f 178 179 180
f 181 182 183
f 185 186 1
f 187 13 188
f 189 190 191
f 192 193 194
f 181 75 196
f 5 75 197
f 198 199 200
f 201 202 170
f 203 204 205
f 206 208 207
f 191 209 210
f 211 212 213
f 216 217 218
f 57 219 220
f 219 221 220
f 223 63 224
f 226 227 228
f 229 230 231
f 62 224 63
f 233 234 157
f 235 55 236
f 238 239 237
f 240 174 241
f 243 244 245
f 75 74 197
f 153 248 247
f 249 250 251
f 252 253 254
f 255 256 257
f 260 261 262
f 62 161 190
f 264 265 266
f 15 267 268
f 269 270 271
f 272 273 274
f 273 275 274
f 127 125 92
f 32 31 279
f 72 280 249
f 207 283 206
f 135 145 284
f 285 167 286
f 73 75 287
f 289 290 291
f 263 294 295
f 297 298 299
f 300 65 43
f 193 45 44
f 301 286 167
f 302 303 304
f 306 283 307
f 308 309 310
f 12 84 171
f 313 314 34
f 314 315 34
f 179 316 180
f 317 274 318
f 274 319 318
f 320 63 223
f 113 321 111
f 287 322 323
f 287 328 73
f 329 330 325
f 331 332 333
f 332 126 333
f 285 165 167
f 215 334 335
f 336 337 338
f 194 340 339
f 341 322 185
f 343 344 345
f 171 346 101
f 114 305 33
f 143 95 108
f 201 170 169
f 348 349 2
f 350 159 158
f 247 353 352
f 354 355 148
f 356 357 358
f 357 359 358
f 253 70 79
f 203 205 279
f 336 365 113
f 184 366 367
f 62 366 224
f 368 248 369
f 370 371 372
f 161 375 190
f 376 92 125
f 377 217 184
f 378 80 82
f 379 380 381
f 380 382 381
f 385 337 336
f 386 26 79
f 254 253 79
f 374 388 387
f 389 390 67
f 390 130 67
f 391 392 195
f 97 394 259
f 76 395 77
f 171 84 346
f 396 397 398
f 5 196 75
f 79 25 254
f 399 353 247
f 400 401 402
f 403 404 405
f 300 18 65
f 187 188 305
f 29 28 269
f 61 375 161
f 410 411 412
f 413 414 415
f 81 418 417
f 420 421 422
f 39 423 40
f 426 427 428
f 427 429 428
f 227 430 431
f 432 433 150
f 434 435 436
f 11 438 437
f 439 440 441
f 9 155 442
f 443 360 444
f 250 249 280
f 446 447 232
f 449 373 250
f 451 452 207
f 238 237 295
f 453 454 455
f 456 457 458
f 204 359 205
f 402 401 459
f 271 118 29
f 120 464 121
f 465 466 467
f 346 84 222
f 134 136 280
f 136 468 280
f 469 470 471
f 472 333 473
f 474 316 475
f 476 477 80
f 477 81 80
f 479 480 478
f 481 482 483
f 482 431 483
f 352 151 153
f 79 70 383
f 484 485 410
f 486 487 488
f 351 292 33
f 489 490 149
f 121 308 310
f 118 271 282
f 491 492 493
f 61 494 495
f 140 118 146
f 496 362 193
f 389 67 66
f 359 357 497
f 498 499 500
f 501 502 503
f 502 504 503
f 505 191 190
f 351 33 305
f 441 156 155
f 418 506 507
f 50 441 508
f 226 510 428
f 511 256 512
f 256 255 512
f 513 321 338
f 115 211 116
f 514 149 180
f 98 516 515
f 228 431 482
f 519 399 288
f 40 145 398
f 520 521 162
f 149 432 150
f 40 423 145
f 315 35 34
f 169 217 216
f 523 380 524
f 380 525 524
f 352 353 519
f 279 205 32
f 441 155 157
f 526 527 528
f 529 293 155
f 44 43 530
f 278 296 32
f 532 533 534
f 535 76 536
f 213 212 439
f 269 271 29
f 537 538 495
f 538 86 495
f 539 99 101
f 280 199 250
f 49 540 50
f 169 541 201
f 542 544 543
f 101 545 171
f 30 32 246
f 495 494 537
f 153 369 248
f 31 351 279
f 135 134 71
f 134 72 71
f 339 10 194
f 547 548 102
f 549 51 324
f 274 275 319
f 147 103 117
f 449 374 373
f 550 552 551
f 553 42 41
f 272 554 273
f 112 556 555
f 130 390 131
f 557 558 13
f 345 124 559
f 440 156 441
f 26 25 79
f 35 560 114
f 561 63 562
f 345 344 123
f 206 283 306
f 564 565 200
f 55 569 236
f 569 570 236
f 571 572 573
f 126 332 125
f 333 126 473
f 576 63 320
f 577 578 579
f 580 581 201
f 582 583 584
f 583 543 584
f 366 190 189
f 60 447 585
f 180 316 474
f 586 587 171
f 280 72 134
f 550 588 160
f 589 590 591
f 571 592 572
f 281 104 147
f 593 41 594
f 595 596 597
f 596 598 597
f 599 600 575
f 168 217 169
f 163 521 602
f 521 603 602
f 472 215 214
f 201 581 202
f 604 605 606
f 125 332 450
f 127 453 473
f 92 453 127
f 126 127 473
f 607 529 7
f 119 608 460
f 417 418 507
f 610 328 287
f 373 611 250
f 612 613 59
f 280 468 614
f 615 616 617
f 3 583 364
f 232 447 60
f 92 454 453
f 115 102 548
f 618 96 574
f 547 619 548
f 96 620 574
f 57 622 219
f 475 316 623
f 624 625 626
f 587 125 450
f 95 97 108
f 196 627 181
f 609 519 49
f 96 629 620
f 631 632 633
f 632 634 633
f 368 635 247
f 439 212 440
f 406 212 211
f 636 637 638
f 640 641 639
f 177 643 85
f 325 51 568
f 644 645 646
f 645 183 646
f 647 648 649
f 648 650 649
f 27 651 652
f 12 171 10
f 363 653 364
f 245 244 342
f 654 366 184
f 57 98 622
f 622 98 128
f 490 489 554
f 368 312 655
f 656 657 658
f 657 659 658
f 660 661 662
f 298 410 663
f 270 664 282
f 665 666 667
f 647 649 668
f 320 223 669
f 287 316 322
f 670 671 451
f 674 675 100
f 156 234 233
f 676 677 678
f 676 679 677
f 680 681 682
f 683 166 362
f 166 45 362
f 73 684 74
f 328 273 73
f 273 684 73
f 572 347 685
f 677 628 678
f 220 80 337
f 686 687 688
f 687 501 688
f 584 543 544
f 482 210 228
f 210 209 228
f 689 106 522
f 74 684 623
f 160 159 690
f 269 691 664
f 460 692 461
f 344 693 232
f 654 224 366
f 694 695 696
f 281 147 146
f 205 497 357
f 359 497 205
f 352 519 609
f 698 236 570
f 11 437 83
f 339 11 10
f 117 103 115
f 124 345 123
f 139 118 140
f 700 701 702
f 235 236 703
f 236 698 703
f 704 705 706
f 707 608 518
f 708 502 567
f 196 710 711
f 712 713 714
f 697 209 191
f 57 220 58
f 220 337 58
f 268 267 699
f 715 664 716
f 335 717 546
f 443 718 360
f 505 719 643
f 720 721 216
f 661 582 662
f 722 723 724
f 488 725 726
f 727 266 265
f 205 278 32
f 326 327 464
f 263 728 729
f 730 185 322
f 703 698 731
f 474 514 180
f 732 163 733
f 93 263 92
f 515 129 98
f 241 734 112
f 185 735 186
f 535 690 76
f 212 156 440
f 580 201 541
f 580 541 216
f 459 737 407
f 505 738 191
f 449 739 740
f 449 740 374
f 742 743 744
f 503 532 745
f 329 325 568
f 349 3 2
f 746 276 463
f 348 542 349
f 266 388 374
f 28 691 269
f 747 748 93
f 749 750 455
f 244 22 588
f 22 751 588
f 61 495 375
f 375 495 393
f 752 170 753
f 157 156 233
f 351 30 292
f 341 185 1
f 66 529 754
f 755 486 348
f 486 726 348
f 756 757 411
f 118 282 146
f 146 282 281
f 758 16 17
f 98 59 516
f 254 25 24
f 519 353 399
f 228 761 226
f 761 762 226
f 209 761 228
f 302 763 764
f 763 230 764
f 230 229 765
f 229 766 765
f 767 768 769
f 172 174 770
f 771 772 625
f 772 773 625
f 363 582 661
f 528 734 774
f 734 775 774
f 349 542 583
f 27 461 692
f 598 221 219
f 27 29 461
f 559 124 288
f 776 777 532
f 777 745 532
f 621 32 296
f 778 779 777
f 101 346 539
f 780 781 326
f 782 439 419
f 50 540 419
f 88 661 89
f 661 660 89
f 783 774 775
f 528 277 526
f 277 774 276
f 518 268 707
f 784 728 295
f 79 786 785
f 707 268 699
f 477 596 595
f 787 788 789
f 790 380 791
f 246 32 621
f 186 278 46
f 646 183 182
f 481 483 793
f 794 591 578
f 591 579 578
f 780 326 795
f 421 796 797
f 642 421 797
f 459 798 799
f 800 801 711
f 522 105 416
f 53 51 549
f 369 312 368
f 297 299 663
f 24 26 386
f 460 223 692
f 669 223 460
f 803 217 168
f 803 184 217
f 269 664 270
f 102 104 715
f 104 664 715
f 771 804 772
f 805 447 693
f 447 446 693
f 805 693 806
f 807 677 808
f 809 810 811
f 328 319 273
f 319 275 273
f 812 576 813
f 814 815 816
f 817 225 818
f 496 192 795
f 508 441 293
f 746 334 749
f 820 821 822
f 823 824 825
f 97 259 826
f 456 458 827
f 642 422 421
f 825 824 828
f 829 830 240
f 247 248 368
f 418 81 477
f 247 352 153
f 832 828 833
f 82 81 417
f 604 834 786
f 282 271 270
f 836 383 251
f 837 737 459
f 809 838 839
f 182 840 841
f 620 842 574
f 575 842 517
f 649 843 668
f 282 664 281
f 199 614 200
f 280 614 199
f 279 822 203
f 70 253 252
f 184 845 377
f 846 847 848
f 849 632 631
f 360 718 361
f 850 851 852
f 143 108 110
f 90 853 756
f 27 692 854
f 651 27 854
f 203 822 844
f 281 664 104
f 317 645 855
f 383 70 856
f 817 295 237
f 557 187 568
f 51 52 568
f 13 558 18
f 749 334 215
f 562 812 561
f 63 561 61
f 494 61 561
f 858 500 425
f 349 583 3
f 691 716 664
f 30 859 292
f 8 860 6
f 529 9 7
f 861 274 487
f 445 862 863
f 95 864 96
f 143 864 95
f 865 832 414
f 444 619 866
f 567 502 430
f 867 288 124
f 823 868 869
f 870 871 420
f 796 421 871
f 421 420 871
f 147 104 103
f 731 257 872
f 833 873 832
f 873 874 832
f 746 463 334
f 335 334 463
f 876 877 878
f 879 880 881
f 522 106 105
f 426 428 510
f 157 234 442
f 397 252 254
f 546 761 697
f 35 737 560
f 884 885 886
f 885 887 886
f 175 173 888
f 889 890 448
f 712 855 713
f 317 855 274
f 855 712 274
f 8 442 234
f 576 812 562
f 393 719 375
f 318 319 891
f 318 891 181
f 75 181 891
f 892 225 817
f 200 565 893
f 85 719 393
f 611 894 251
f 83 12 11
f 514 489 149
f 514 684 489
f 684 273 489
f 386 785 834
f 410 485 895
f 896 667 776
f 667 897 776
f 850 625 851
f 625 773 851
f 107 106 445
f 65 530 43
f 898 118 139
f 898 119 118
f 898 139 518
f 898 518 119
f 818 900 899
f 367 366 189
f 137 545 94
f 94 545 101
f 376 137 92
f 901 242 162
f 902 159 350
f 904 612 58
f 612 59 58
f 904 903 612
f 337 80 378
f 338 337 378
f 42 905 54
f 700 906 56
f 688 501 907
f 707 669 460
f 909 910 617
f 56 906 54
f 836 894 506
f 546 717 762
f 146 517 140
f 308 121 908
f 609 49 48
f 851 911 852
f 257 731 255
f 731 698 255
f 761 209 697
f 762 761 546
f 326 781 327
f 247 912 399
f 610 287 75
f 913 381 451
f 858 913 451
f 733 625 624
f 914 915 452
f 383 786 79
f 916 120 122
f 475 623 684
f 919 920 434
f 318 181 645
f 181 183 645
f 507 506 894
f 418 477 506
f 899 921 276
f 13 187 557
f 276 746 899
f 746 818 899
f 746 749 818
f 921 277 276
f 921 630 277
f 921 922 630
f 48 91 923
f 609 48 923
f 924 925 926
f 925 927 926
f 214 929 928
f 181 627 182
f 710 196 5
f 930 931 875
f 932 933 934
f 594 302 935
f 593 265 41
f 935 593 594
f 265 593 935
f 442 8 9
f 936 258 835
f 937 834 478
f 386 834 937
f 79 785 386
f 583 582 364
f 584 662 582
f 938 814 939
f 553 940 941
f 239 254 24
f 239 24 237
f 772 942 773
f 498 943 499
f 944 499 945
f 499 943 945
f 429 427 946
f 445 948 549
f 342 949 950
f 812 813 951
f 813 952 951
f 587 10 171
f 347 953 685
f 373 894 611
f 954 942 910
f 942 772 910
f 157 442 155
f 441 419 439
f 735 296 278
f 187 956 957
f 958 691 28
f 586 171 545
f 125 587 376
f 401 837 459
f 475 514 474
f 265 935 727
f 785 786 834
f 926 138 960
f 115 103 102
f 727 961 266
f 962 955 639
f 735 185 296
f 674 40 398
f 789 600 599
f 401 400 966
f 901 162 967
f 460 608 707
f 668 968 969
f 122 682 970
f 942 851 773
f 585 971 972
f 585 972 973
f 972 974 973
f 975 976 298
f 896 665 667
f 944 84 83
f 131 977 152
f 977 902 152
f 743 742 978
f 742 961 978
f 93 294 263
f 379 791 380
f 881 297 663
f 979 245 371
f 202 753 170
f 979 371 370
f 980 961 388
f 980 388 266
f 441 50 419
f 647 668 981
f 668 982 981
f 151 131 152
f 107 445 549
f 263 983 984
f 355 788 517
f 985 545 137
f 986 987 792
f 988 553 941
f 464 327 908
f 464 908 121
f 734 556 112
f 989 990 991
f 651 168 409
f 854 992 651
f 993 994 995
f 651 992 168
f 241 775 734
f 230 997 764
f 763 998 999
f 975 298 1000
f 441 155 293
f 1001 385 1002
f 999 998 231
f 1003 685 14
f 1004 385 336
f 521 163 162
f 899 900 1005
f 674 38 40
f 520 603 521
f 588 751 160
f 109 1006 356
f 97 826 108
f 396 252 397
f 144 135 252
f 135 71 252
f 640 639 955
f 962 1007 1008
f 678 628 559
f 640 1009 1010
f 452 451 914
f 779 745 777
f 909 617 1011
f 518 608 119
f 357 356 1012
f 363 364 582
f 276 774 175
f 400 957 760
f 105 107 549
f 643 719 85
f 366 62 190
f 70 72 856
f 604 606 834
f 411 757 372
f 688 907 1014
f 50 722 91
f 560 737 966
f 966 737 401
f 737 837 401
f 398 145 144
f 396 144 252
f 383 1016 1015
f 217 377 218
f 92 984 454
f 375 719 190
f 190 719 505
f 1017 1018 616
f 51 325 324
f 560 966 400
f 1019 844 821
f 790 791 1020
f 989 991 1021
f 1022 1023 1024
f 287 467 75
f 327 781 1026
f 692 992 854
f 168 992 803
f 1027 835 258
f 909 879 910
f 563 1029 1028
f 345 807 806
f 554 489 273
f 803 992 184
f 317 318 645
f 997 978 764
f 935 302 764
f 935 764 727
f 764 978 727
f 961 727 978
f 1031 1032 14
f 302 304 763
f 304 998 763
f 986 1034 1035
f 278 205 357
f 649 753 202
f 649 650 753
f 698 570 512
f 896 776 532
f 686 1036 601
f 175 783 174
f 99 1037 100
f 684 514 475
f 1038 1039 4
f 559 628 345
f 602 733 163
f 191 210 721
f 210 481 721
f 216 1040 580
f 721 1040 216
f 191 721 1041
f 191 1041 189
f 1042 1043 736
f 1004 1002 385
f 410 895 911
f 1044 632 1045
f 1044 634 632
f 242 1029 652
f 1046 877 876
f 1047 1048 621
f 1049 121 310
f 240 830 566
f 1050 676 678
f 400 760 759
f 867 123 1025
f 213 354 1051
f 350 1052 36
f 1053 1054 444
f 910 804 617
f 804 615 617
f 831 1055 563
f 851 1056 663
f 851 942 1056
f 157 155 441
f 52 53 18
f 984 92 263
f 571 847 592
f 680 682 848
f 682 846 848
f 531 307 1030
f 204 938 1057
f 733 602 771
f 602 804 771
f 615 1058 616
f 411 1059 1060
f 1012 1061 259
f 1062 741 56
f 283 207 452
f 33 859 34
f 307 283 1063
f 529 68 293
f 230 999 231
f 1003 14 964
f 505 643 929
f 1064 1065 1066
f 796 871 1067
f 505 929 214
f 638 1068 1069
f 530 1070 1067
f 1071 301 167
f 792 1034 986
f 1072 41 42
f 1041 392 189
f 1074 1075 142
f 324 105 549
f 324 416 105
f 723 722 50
f 912 1076 678
f 422 1078 1079
f 479 834 598
f 834 606 598
f 1028 967 1080
f 1081 511 512
f 215 750 749
f 1082 123 344
f 476 221 477
f 221 596 477
f 598 596 221
f 80 220 221
f 1083 1084 1085
f 733 771 625
f 666 1086 303
f 1087 1054 1053
f 551 588 550
f 590 290 289
f 1088 293 68
f 841 1033 1089
f 957 402 329
f 473 453 1090
f 1091 540 49
f 1092 200 893
f 958 1093 1094
f 1093 1095 1094
f 576 562 63
f 1096 951 1097
f 951 952 1097
f 54 569 55
f 747 101 748
f 1098 154 37
f 575 600 574
f 1099 920 1100
f 926 960 924
f 960 1101 924
f 139 138 926
f 142 1075 1102
f 110 109 358
f 799 1103 1104
f 1103 1105 1104
f 305 188 822
f 911 663 410
f 1107 522 1108
f 479 598 480
f 1109 759 760
f 723 50 508
f 192 496 193
f 410 976 1110
f 739 1112 740
f 1112 1113 740
f 232 1115 1114
f 681 167 166
f 850 626 625
f 99 1116 1117
f 420 422 1118
f 422 1079 1118
f 45 166 165
f 1119 725 1120
f 1071 1121 1122
f 1030 1123 531
f 910 772 804
f 315 314 1124
f 1125 1124 1126
f 315 1124 35
f 1124 1125 35
f 1125 407 1127
f 1128 1129 1035
f 324 1130 416
f 187 957 568
f 685 1131 14
f 1035 987 986
f 609 1132 1133
f 529 66 68
f 1134 1135 193
f 1120 725 714
f 141 1136 142
f 1136 1074 142
f 192 194 780
f 203 814 938
f 1137 756 1060
f 642 689 522
f 936 835 311
f 293 709 508
f 1138 581 601
f 1139 911 895
f 530 1135 1134
f 635 1076 912
f 1140 778 702
f 389 1141 390
f 850 1142 626
f 1142 950 626
f 621 1048 246
f 1143 1144 1030
f 1145 1023 981
f 705 1108 522
f 1088 709 293
f 378 513 338
f 739 1147 1148
f 1147 198 1148
f 780 795 192
f 119 461 29
f 742 1149 961
f 928 929 643
f 747 93 101
f 1150 745 779
f 996 621 296
f 1151 700 56
f 131 151 133
f 1152 55 235
f 1000 298 262
f 298 297 262
f 167 1121 1071
f 611 251 250
f 1071 965 301
f 766 241 112
f 1030 307 1143
f 720 216 195
f 113 112 555
f 1153 409 170
f 187 114 956
f 874 1154 893
f 416 706 522
f 416 704 706
f 200 1092 198
f 307 531 306
f 1155 1156 284
f 1157 1158 565
f 1159 1087 1053
f 630 922 526
f 142 1102 143
f 1102 629 143
f 45 165 285
f 802 1160 311
f 453 455 1090
f 455 750 1090
f 1090 750 215
f 472 473 1090
f 472 1090 215
f 1161 395 159
f 395 690 159
f 1161 159 977
f 390 1141 977
f 1141 1161 977
f 1162 1163 1164
f 1062 1152 1165
f 462 832 1077
f 800 679 801
f 1121 167 681
f 1166 335 546
f 1167 1075 140
f 1168 1169 714
f 787 789 599
f 1170 311 312
f 184 992 692
f 751 22 21
f 1065 1021 955
f 1151 1172 1145
f 1173 462 1077
f 1106 1029 563
f 695 766 696
f 766 229 696
f 954 879 942
f 879 1174 942
f 152 902 36
f 368 655 835
f 1166 1175 214
f 425 1164 1163
f 1176 424 425
f 1 186 46
f 323 322 1
f 781 1177 1026
f 581 1138 843
f 1138 1178 843
f 581 843 649
f 787 517 788
f 937 24 386
f 100 675 1179
f 778 1180 702
f 322 1181 730
f 187 305 114
f 383 856 72
f 41 1072 666
f 400 402 957
f 400 759 560
f 128 225 1182
f 478 1182 225
f 227 431 228
f 430 227 429
f 1183 307 1063
f 1184 257 256
f 1185 257 1186
f 257 1184 1186
f 372 412 411
f 1187 1188 212
f 1188 156 212
f 1189 981 1022
f 981 1023 1022
f 53 549 948
f 295 1190 238
f 294 1190 295
f 944 83 1191
f 1192 1193 744
f 322 178 1181
f 965 821 301
f 27 1055 28
f 558 568 52
f 656 658 330
f 1068 799 798
f 941 791 1194
f 1195 1196 1093
f 668 843 968
f 843 1178 968
f 581 649 202
f 646 841 1197
f 841 1089 1197
f 848 1198 1122
f 1198 890 1122
f 873 1154 874
f 426 717 173
f 717 888 173
f 508 709 723
f 91 48 50
f 1199 1200 265
f 528 774 277
f 1201 635 368
f 1202 1172 1151
f 979 370 243
f 872 1203 1204
f 638 261 1103
f 261 260 1103
f 1058 615 520
f 615 603 520
f 1106 1055 652
f 743 1205 744
f 1189 648 981
f 647 981 648
f 360 1053 444
f 47 509 1
f 860 8 1206
f 8 1188 1206
f 1207 511 1208
f 511 1081 1208
f 399 912 559
f 1209 802 311
f 1210 735 278
f 188 13 820
f 77 1211 1212
f 964 14 963
f 14 16 963
f 963 16 758
f 1213 1214 1215
f 605 1015 597
f 1216 424 642
f 543 583 542
f 1214 883 882
f 76 690 395
f 607 1141 529
f 1141 754 529
f 607 7 1141
f 7 395 1141
f 389 66 1141
f 66 754 1141
f 342 244 1217
f 244 588 1217
f 1217 588 1218
f 588 457 1218
f 950 1219 245
f 462 1171 415
f 279 305 822
f 628 807 345
f 783 175 774
f 1118 437 870
f 1088 68 69
f 906 702 54
f 1221 54 1180
f 668 969 982
f 701 982 969
f 555 1004 113
f 1045 658 659
f 1071 1122 890
f 258 936 1222
f 1004 336 113
f 383 249 251
f 383 72 249
f 1013 1223 413
f 705 704 1224
f 1158 1157 1156
f 93 748 294
f 283 452 1063
f 452 915 1063
f 498 671 670
f 892 237 24
f 1225 993 1226
f 758 1227 963
f 487 712 714
f 471 1073 1228
f 577 1065 955
f 162 1229 520
f 520 1229 242
f 242 1229 162
f 1152 56 55
f 1160 853 1222
f 853 1230 1222
f 211 213 384
f 304 303 998
f 303 1086 998
f 698 512 255
f 618 1231 1232
f 1145 1172 1023
f 1172 1024 1023
f 1045 659 839
f 659 810 839
f 1193 321 513
f 1192 111 1193
f 111 321 1193
f 1233 598 622
f 598 219 622
f 1100 794 1099
f 794 578 1099
f 391 195 1234
f 350 36 902
f 559 912 678
f 1235 1189 1022
f 967 1029 242
f 423 284 145
f 788 1146 789
f 486 488 726
f 779 778 1150
f 973 974 259
f 1028 1029 967
f 634 1044 1236
f 922 918 526
f 1237 918 922
f 584 544 1169
f 1037 1123 1238
f 1123 1239 1238
f 446 232 693
f 548 1240 1187
f 1240 877 1046
f 1241 225 129
f 840 711 1033
f 328 891 319
f 75 891 610
f 1057 938 1242
f 816 1243 963
f 1244 569 54
f 1065 1064 1021
f 9 529 155
f 548 877 1240
f 410 298 976
f 867 124 123
f 6 1211 7
f 429 567 430
f 919 434 1018
f 434 436 1018
f 1242 938 939
f 799 1068 1103
f 907 1150 1245
f 1246 1247 1183
f 1247 1248 1183
f 1183 1063 1246
f 307 1183 1249
f 1249 1143 307
f 1010 838 641
f 1250 1251 1252
f 827 1253 1159
f 797 106 689
f 1254 459 799
f 939 814 1111
f 938 204 203
f 70 252 71
f 973 60 585
f 1255 657 1256
f 447 971 585
f 1257 1228 1073
f 136 284 1157
f 284 1156 1157
f 1258 859 30
f 1166 214 215
f 1259 215 335
f 1259 1166 215
f 335 1166 1259
f 566 830 708
f 1260 862 530
f 141 110 1136
f 663 911 851
f 1261 1144 1239
f 1263 903 1002
f 739 1148 873
f 1264 639 641
f 1265 65 18
f 198 1092 1148
f 1092 1154 1148
f 1154 873 1148
f 1003 964 685
f 1208 1194 1207
f 1261 1239 1123
f 54 702 1180
f 1220 1144 1266
f 1267 164 718
f 845 367 672
f 250 1147 449
f 1071 890 889
f 530 862 1070
f 530 1067 870
f 733 624 732
f 624 1268 732
f 597 598 605
f 598 606 605
f 99 1117 1123
f 1269 387 507
f 1270 672 673
f 355 517 148
f 1096 1097 471
f 1271 885 1105
f 358 109 356
f 1272 513 378
f 1235 1273 1189
f 1273 648 1189
f 680 848 1122
f 680 1122 681
f 1122 1121 681
f 169 216 541
f 480 128 1182
f 478 480 1182
f 87 86 1049
f 245 1274 371
f 258 1222 792
f 522 706 705
f 925 1275 927
f 923 1132 609
f 948 19 53
f 6 1212 1211
f 699 1257 959
f 97 96 394
f 599 575 517
f 724 1276 923
f 1277 1278 1279
f 1278 1207 1279
f 100 748 101
f 100 1179 748
f 1192 744 1205
f 652 1029 1106
f 135 284 136
f 235 1280 1152
f 1280 1165 1152
f 1281 1282 1283
f 1022 1024 1064
f 1021 1024 741
f 1021 1064 1024
f 673 391 1234
f 160 751 1052
f 637 1284 975
f 1284 404 975
f 636 1284 637
f 310 176 87
f 392 720 195
f 365 321 113
f 338 321 365
f 1285 1286 1085
f 954 910 879
f 1278 256 511
f 1287 947 1220
f 372 757 853
f 1176 1078 424
f 170 409 168
f 563 1055 1106
f 136 1157 468
f 642 1107 1186
f 112 1288 766
f 1030 1261 1123
f 426 173 172
f 1289 3 364
f 1232 1290 60
f 85 87 176
f 77 1212 78
f 179 322 316
f 512 570 1081
f 570 1291 1081
f 218 195 216
f 563 1028 831
f 969 1245 1140
f 1278 511 1207
f 1292 1104 1105
f 1292 1105 1293
f 1294 1295 819
f 963 1227 1111
f 893 1077 874
f 1296 1297 1298
f 826 1006 108
f 540 1299 419
f 744 1193 1300
f 180 149 857
f 1301 627 196
f 524 1223 1013
f 1083 875 931
f 1254 1104 402
f 1302 1303 1304
f 1103 1271 1105
f 67 130 132
f 659 657 810
f 870 420 1118
f 331 1305 332
f 1078 422 642
f 944 945 84
f 1087 1253 875
f 1159 360 361
f 1159 361 827
f 368 1027 1201
f 1027 368 835
f 533 532 503
f 1271 260 885
f 509 974 1306
f 916 1297 120
f 1067 1070 445
f 702 906 700
f 701 969 702
f 969 1140 702
f 1077 1158 1173
f 292 859 33
f 444 877 548
f 444 878 877
f 1045 839 1307
f 839 838 1307
f 1284 1308 1309
f 1308 653 1309
f 1309 653 363
f 636 1308 1284
f 99 539 1116
f 1128 1034 1129
f 682 122 846
f 1108 1310 1107
f 1099 578 434
f 578 435 434
f 1109 956 114
f 78 536 76
f 1251 889 448
f 1251 965 889
f 1021 1311 989
f 1011 436 1007
f 260 262 887
f 262 1312 887
f 809 839 810
f 618 1232 96
f 213 1051 384
f 884 811 1255
f 811 810 1255
f 1213 1155 1313
f 1289 364 653
f 813 576 952
f 576 1314 952
f 363 405 1309
f 1284 405 404
f 1309 405 1284
f 1315 806 807
f 554 755 1316
f 755 433 1316
f 1317 836 595
f 836 506 595
f 1318 1267 718
f 471 952 1073
f 816 1319 1243
f 1047 150 1320
f 222 1321 346
f 346 1321 539
f 1321 1116 539
f 206 1321 222
f 206 1116 1321
f 354 1146 355
f 314 313 1320
f 1070 862 445
f 1226 39 1225
f 39 1322 1225
f 164 1095 1196
f 741 1172 1202
f 575 574 842
f 426 172 427
f 1290 1323 60
f 60 1323 232
f 232 1323 1115
f 540 1115 1299
f 1115 1323 1299
f 327 1026 1324
f 790 1020 1325
f 534 1326 1327
f 895 1274 1219
f 1295 20 819
f 96 864 629
f 392 673 672
f 947 1287 1322
f 945 222 84
f 1088 723 709
f 639 1264 881
f 920 1099 434
f 326 464 1296
f 424 1164 425
f 873 833 1328
f 833 828 1328
f 889 965 1071
f 31 30 351
f 1221 1180 777
f 1180 778 777
f 146 148 517
f 1101 960 1136
f 1209 370 802
f 1135 530 870
f 1161 1141 395
f 448 890 573
f 573 890 1198
f 573 1198 571
f 848 571 1198
f 1285 1085 1084
f 1170 312 37
f 955 1008 577
f 1008 578 577
f 901 967 242
f 1100 589 794
f 1033 711 801
f 1139 1142 852
f 1179 1190 748
f 1190 294 748
f 1207 1194 1279
f 1329 561 1096
f 561 812 1096
f 370 372 802
f 849 631 933
f 1220 1239 1144
f 289 1273 590
f 1273 591 590
f 238 1190 1179
f 895 485 1274
f 1268 949 342
f 798 1069 1068
f 226 428 227
f 428 429 227
f 946 1330 566
f 1050 1089 676
f 548 1187 115
f 285 43 45
f 755 554 486
f 1243 1319 1331
f 734 528 527
f 121 538 1042
f 433 755 348
f 1240 1046 1206
f 1046 860 1206
f 89 1129 1034
f 537 1042 538
f 1331 1319 1252
f 1319 1250 1252
f 1331 1332 685
f 685 1332 572
f 1332 1252 573
f 572 1332 573
f 448 573 1251
f 1252 1251 573
f 415 414 462
f 313 34 859
f 1333 1334 325
f 657 1255 810
f 377 845 218
f 845 1270 218
f 540 1114 1115
f 1335 1200 1199
f 963 1243 964
f 881 1174 879
f 564 1157 565
f 1336 792 1337
f 893 1154 1092
f 1334 1130 324
f 42 897 667
f 797 689 642
f 23 1209 1170
f 238 1179 675
f 1006 826 1061
f 149 996 857
f 1017 616 1058
f 1017 1338 919
f 263 729 983
f 102 715 547
f 204 1339 359
f 637 261 638
f 637 975 261
f 975 1000 261
f 1340 542 348
f 758 17 925
f 638 1103 1068
f 110 1242 939
f 381 1277 1279
f 1270 673 1234
f 301 821 820
f 658 1045 632
f 535 536 690
f 1341 132 1276
f 132 1132 1276
f 1231 1290 1232
f 454 984 455
f 1318 619 547
f 429 946 567
f 291 1153 170
f 1166 546 1175
f 1050 1342 1197
f 792 1222 1034
f 946 427 1330
f 427 172 1330
f 713 987 1035
f 644 1343 1344
f 1343 987 1344
f 188 820 822
f 96 1232 394
f 23 22 1209
f 22 370 1209
f 1167 1345 1075
f 1345 1102 1075
f 1143 994 993
f 886 887 1312
f 564 614 1157
f 614 468 1157
f 246 1048 1258
f 1269 894 373
f 1101 1227 924
f 840 627 711
f 503 504 533
f 640 1010 641
f 1250 1319 1346
f 542 725 1119
f 274 712 487
f 1340 348 725
f 348 726 725
f 714 725 488
f 488 487 714
f 392 672 189
f 836 251 894
f 296 730 1181
f 1296 464 1297
f 464 120 1297
f 392 391 673
f 1347 1348 1113
f 369 153 154
f 36 154 152
f 977 159 902
f 502 708 504
f 503 745 907
f 745 1150 907
f 595 597 1015
f 703 1280 235
f 1343 1337 987
f 1054 878 444
f 1241 1237 900
f 1349 1350 914
f 412 372 371
f 870 1067 871
f 1196 1095 1093
f 1351 941 940
f 1312 1264 886
f 881 1264 1312
f 626 950 949
f 876 1054 1085
f 1054 1083 1085
f 1158 1156 1215
f 1156 1155 1215
f 1046 876 860
f 876 1352 860
f 955 962 1008
f 410 1110 1059
f 1353 612 917
f 1289 4 3
f 330 493 656
f 924 1227 925
f 1024 1172 741
f 450 332 1305
f 472 214 333
f 691 1094 716
f 1094 1267 716
f 1354 1136 138
f 1136 960 138
f 1223 1355 413
f 1173 1215 882
f 822 821 844
f 305 279 351
f 916 970 1297
f 1061 826 259
f 1088 69 724
f 1010 1009 1356
f 484 1274 485
f 1294 1260 530
f 985 137 587
f 137 376 587
f 1192 1205 111
f 1205 1288 111
f 111 1288 112
f 915 1246 1063
f 433 2 150
f 1038 653 1308
f 916 122 970
f 1263 555 1357
f 245 1219 1274
f 327 1324 908
f 433 348 2
f 1010 1356 838
f 1307 838 1356
f 1109 560 759
f 703 1204 1280
f 388 1149 1358
f 1277 381 913
f 1113 374 740
f 399 559 288
f 993 1225 1143
f 781 780 1177
f 888 335 463
f 876 878 1054
f 1031 1131 469
f 1131 953 469
f 309 176 310
f 1269 507 894
f 975 404 1110
f 928 643 177
f 686 601 687
f 714 544 1120
f 382 523 1349
f 523 1350 1349
f 133 1132 132
f 1158 1215 1173
f 109 108 1006
f 835 655 311
f 311 655 312
f 1187 1240 1206
f 605 786 383
f 1354 1075 1136
f 1075 1074 1136
f 1136 110 939
f 1136 939 1101
f 796 1067 797
f 1067 1359 797
f 797 1359 106
f 445 106 1359
f 1224 1360 1304
f 1360 1302 1304
f 820 286 301
f 15 14 1361
f 704 1362 1224
f 1362 1360 1224
f 1034 1222 1230
f 90 89 1230
f 89 1034 1230
f 1230 853 90
f 1035 1129 713
f 178 996 296
f 414 832 462
f 581 793 483
f 7 1211 395
f 819 1260 1294
f 1260 819 863
f 1260 863 862
f 91 722 923
f 724 69 1341
f 67 132 1341
f 724 923 722
f 683 1297 166
f 1297 970 166
f 1103 260 1271
f 932 1363 1130
f 1170 37 36
f 838 809 641
f 809 1364 641
f 790 1325 380
f 1325 1020 869
f 1020 1199 869
f 1365 1305 177
f 335 888 717
f 194 1135 340
f 1135 194 193
f 470 347 592
f 663 1366 881
f 1335 1351 41
f 265 264 1199
f 383 1015 605
f 1009 991 1356
f 991 990 1356
f 1326 830 829
f 1224 1108 705
f 567 946 566
f 780 1367 1177
f 18 53 19
f 247 635 912
f 496 1298 362
f 795 1298 496
f 1322 39 38
f 1265 18 20
f 224 654 1368
f 943 208 945
f 1369 1351 1335
f 239 1370 254
f 394 1232 60
f 842 1345 517
f 1117 1116 206
f 1107 642 522
f 995 1371 1313
f 551 457 588
f 1372 1311 741
f 989 767 990
f 633 1373 934
f 1373 932 934
f 805 806 465
f 806 466 465
f 460 461 119
f 93 94 101
f 1221 897 1374
f 210 482 481
f 580 1040 793
f 793 1040 481
f 1040 721 481
f 580 793 581
f 581 483 601
f 1296 1298 326
f 326 1298 795
f 683 1298 1297
f 591 1273 1235
f 1330 770 566
f 552 550 930
f 552 930 875
f 175 888 463
f 329 491 493
f 242 652 408
f 1250 1346 1375
f 1346 1019 1375
f 1160 1222 936
f 657 656 492
f 656 493 492
f 973 394 60
f 586 545 587
f 545 985 587
f 932 1130 933
f 630 526 277
f 88 90 1137
f 90 756 1137
f 164 1196 162
f 342 1376 361
f 1163 858 425
f 477 595 506
f 330 329 493
f 160 1052 158
f 944 1191 499
f 1311 1021 741
f 741 1062 1372
f 1187 1206 1188
f 1188 8 234
f 657 492 1256
f 1311 1372 768
f 1270 1234 195
f 266 1347 264
f 28 1055 831
f 652 1055 27
f 1083 931 1084
f 1333 325 330
f 140 1075 138
f 517 1345 1167
f 629 864 143
f 919 1377 920
f 579 591 1378
f 635 1201 1379
f 1201 1380 1379
f 1249 1183 994
f 214 738 505
f 1042 736 121
f 291 290 590
f 1185 872 257
f 408 652 651
f 884 1293 885
f 1293 1105 885
f 884 1255 1293
f 1255 1256 1293
f 1104 1381 402
f 1381 491 402
f 818 1241 900
f 952 1314 320
f 1031 14 1131
f 670 451 207
f 1205 766 1288
f 1215 1214 882
f 1306 1 509
f 450 308 908
f 78 1212 536
f 1163 913 858
f 555 556 1357
f 1361 14 1257
f 14 1032 1257
f 1032 1031 1257
f 1031 1228 1257
f 1257 267 1361
f 267 15 1361
f 237 892 817
f 892 478 225
f 478 892 937
f 892 24 937
f 498 500 671
f 671 500 858
f 498 670 943
f 451 671 858
f 568 957 329
f 632 1382 658
f 1382 330 658
f 510 226 762
f 1119 544 542
f 1383 550 536
f 1383 930 550
f 1130 1363 416
f 933 1334 1382
f 1334 1333 1382
f 849 933 1382
f 693 343 806
f 232 1114 344
f 1383 1084 931
f 1323 1384 1385
f 1210 278 186
f 1050 678 1076
f 344 1091 1386
f 115 1187 211
f 211 1187 406
f 921 899 1005
f 1292 1381 1104
f 1292 1293 1256
f 1292 1256 1381
f 1243 1331 685
f 260 887 885
f 297 1312 262
f 716 1267 1318
f 1094 1095 1267
f 1387 1078 1176
f 1336 1379 1380
f 1218 1376 342
f 1283 1282 1367
f 1282 1026 1367
f 1109 114 560
f 1301 196 711
f 947 1238 1220
f 517 1167 140
f 685 964 1243
f 1294 64 1295
f 1241 129 515
f 697 738 546
f 589 591 794
f 35 1127 737
f 77 395 1211
f 254 1370 397
f 312 1098 37
f 948 863 19
f 1277 913 1162
f 913 1163 1162
f 1277 1162 1278
f 323 465 467
f 801 679 676
f 1364 886 1264
f 1388 1364 809
f 884 886 1388
f 886 1364 1388
f 884 1388 811
f 1388 809 811
f 1389 285 286
f 519 1025 49
f 455 984 983
f 1139 895 1142
f 21 1052 751
f 988 1390 42
f 988 941 1208
f 941 1194 1208
f 1088 724 723
f 426 510 717
f 717 510 762
f 314 1391 1124
f 1391 1392 1124
f 1393 1368 184
f 13 286 820
f 948 445 863
f 730 296 185
f 677 679 808
f 5 196 710
f 266 1348 1347
f 1278 1162 256
f 1162 1394 256
f 256 1394 1184
f 525 380 1325
f 601 1395 430
f 1067 445 1359
f 516 1396 515
f 1396 1262 515
f 156 1188 234
f 1187 212 406
f 776 897 777
f 777 897 1221
f 752 753 289
f 753 650 289
f 1109 957 956
f 1109 760 957
f 1078 642 424
f 37 154 36
f 1349 381 382
f 1363 704 416
f 669 952 320
f 646 182 841
f 855 1344 1397
f 1344 987 1397
f 621 996 1047
f 238 675 1370
f 1037 99 1123
f 100 1037 1238
f 300 43 18
f 1150 778 1245
f 778 1140 1245
f 291 752 289
f 1358 742 1272
f 742 1300 1272
f 763 999 230
f 1009 955 991
f 1249 994 1143
f 816 963 1111
f 824 1328 828
f 874 1077 832
f 1383 536 1285
f 536 1212 1285
f 699 267 1257
f 959 1257 1073
f 1310 1185 1186
f 1310 1186 1107
f 148 1051 354
f 634 1236 1398
f 1236 990 1398
f 178 322 179
f 1233 480 598
f 208 206 222
f 42 667 666
f 100 1238 674
f 430 687 601
f 197 74 75
f 74 1399 75
f 623 316 1399
f 1324 1400 908
f 908 1400 450
f 791 941 1020
f 941 1351 1020
f 1401 917 903
f 54 905 1244
f 450 1400 1282
f 403 405 1059
f 405 1402 1059
f 67 1341 69
f 973 259 394
f 1125 1126 407
f 311 1170 1209
f 1213 1215 1155
f 402 459 1254
f 80 221 476
f 54 1221 1374
f 158 1052 350
f 170 752 291
f 736 1096 592
f 903 904 1002
f 904 1001 1002
f 904 58 337
f 904 337 1001
f 1001 337 385
f 1191 83 437
f 244 243 370
f 244 370 22
f 979 243 245
f 604 786 605
f 909 1011 879
f 782 1384 1403
f 798 459 407
f 798 407 1069
f 1253 552 875
f 457 551 458
f 551 552 458
f 1341 1276 724
f 1276 1132 923
f 728 263 295
f 362 45 193
f 363 1137 1060
f 531 1117 306
f 1404 997 743
f 1216 642 1186
f 343 693 344
f 1241 818 225
f 1335 1199 1020
f 438 340 437
f 363 661 1137
f 770 174 240
f 1322 1287 1225
f 787 599 517
f 1226 995 39
f 1231 1403 1290
f 313 859 1258
f 1405 1282 587
f 1282 1281 587
f 635 1379 1076
f 857 178 180
f 1395 431 430
f 816 1111 814
f 365 336 338
f 295 817 784
f 1120 544 1119
f 662 1168 660
f 1168 1129 660
f 1267 1095 164
f 341 1 322
f 323 972 465
f 1282 1400 1324
f 1404 978 997
f 388 961 1149
f 893 565 1077
f 1077 565 1158
f 1102 1345 620
f 620 1345 842
f 620 629 1102
f 41 1200 1335
f 1200 41 265
f 1369 1020 1351
f 1369 1335 1020
f 175 463 276
f 1349 451 381
f 1406 65 64
f 757 756 853
f 64 20 1295
f 65 20 64
f 676 1033 801
f 1072 42 666
f 531 1123 1117
f 306 1117 206
f 369 1098 312
f 369 154 1098
f 133 1133 1132
f 352 1133 151
f 1133 133 151
f 609 1133 352
f 600 213 782
f 1383 1285 1084
f 6 1286 1212
f 1286 1285 1212
f 41 940 553
f 959 952 699
f 342 1217 1218
f 456 1218 457
f 849 1382 632
f 311 1160 936
f 1397 713 855
f 555 1263 1004
f 1401 918 917
f 1268 361 718
f 314 1320 1391
f 150 1391 1320
f 1197 1089 1050
f 1057 1242 1339
f 806 1315 466
f 1334 933 1130
f 1039 1069 407
f 407 4 1039
f 636 638 1039
f 638 1069 1039
f 636 1039 1308
f 1039 1038 1308
f 1126 4 407
f 4 1289 1038
f 653 1038 1289
f 4 1126 1392
f 1124 1392 1126
f 686 688 1036
f 688 1014 1036
f 469 1228 1031
f 863 20 19
f 819 20 863
f 54 1374 42
f 1374 897 42
f 1291 1244 1407
f 1244 905 1407
f 683 362 1298
f 413 415 1171
f 149 490 432
f 379 1279 791
f 1279 1194 791
f 1397 987 713
f 782 1385 1384
f 423 1313 284
f 1313 1155 284
f 379 381 1279
f 1324 1026 1282
f 980 266 961
f 1367 780 194
f 1311 768 989
f 768 767 989
f 681 166 682
f 166 970 682
f 1404 743 978
f 41 1351 940
f 997 230 765
f 347 470 953
f 1203 1303 1204
f 1304 1303 1203
f 1185 1310 872
f 1310 1203 872
f 1108 1304 1310
f 1304 1203 1310
f 1224 1304 1108
f 1204 703 872
f 703 731 872
f 184 1368 654
f 52 18 558
f 225 128 129
f 624 626 1268
f 626 949 1268
f 827 458 1253
f 458 552 1253
f 915 914 1013
f 915 1013 1246
f 469 471 1228
f 160 536 550
f 403 1059 404
f 1059 1110 404
f 405 363 1060
f 1059 1402 1060
f 950 245 342
f 499 1387 500
f 1387 1176 500
f 1176 425 500
f 669 707 699
f 490 554 432
f 554 1316 432
f 1007 962 880
f 1011 1007 879
f 1007 880 879
f 639 880 962
f 881 880 639
f 355 1146 788
f 141 143 110
f 1331 1252 1332
f 1299 1385 419
f 419 1385 782
f 1299 1323 1385
f 1405 587 450
f 1405 450 1282
f 41 303 594
f 601 483 1395
f 431 1395 483
f 218 1270 195
f 860 1286 6
f 699 952 669
f 42 553 988
f 988 1208 1390
f 1291 1390 1081
f 933 631 934
f 631 633 934
f 704 1363 1362
f 1363 932 1362
f 467 466 1315
f 644 1408 1343
f 1408 1337 1343
f 486 554 487
f 554 861 487
f 1159 1053 360
f 1347 869 264
f 396 398 144
f 1081 1390 1208
f 825 1223 1409
f 825 828 1223
f 828 1355 1223
f 828 865 1355
f 865 414 1355
f 1355 414 413
f 926 927 139
f 644 1344 645
f 855 645 1344
f 1237 1005 900
f 1409 1223 524
f 1268 342 361
f 1268 718 164
f 732 164 163
f 732 1268 164
f 1381 1256 491
f 1256 492 491
f 329 402 491
f 1263 1357 903
f 1263 1002 1004
f 417 1272 82
f 1300 1193 1272
f 1193 513 1272
f 1383 931 930
f 955 1009 640
f 478 834 479
f 692 1410 184
f 184 1410 1393
f 1393 1410 692
f 995 994 1248
f 953 1131 685
f 536 160 690
f 641 1364 1264
f 1014 1178 1036
f 691 958 1094
f 148 384 1051
f 525 1409 524
f 914 451 1349
f 914 1350 1013
f 524 1013 1350
f 524 1350 523
f 21 23 1052
f 23 36 1052
f 23 1170 36
f 1307 1356 1236
f 1356 990 1236
f 1398 990 769
f 990 767 769
f 1320 1048 1047
f 818 1411 817
f 817 1411 784
f 784 1411 728
f 1411 729 728
f 983 729 1412
f 867 1025 519
f 739 449 1147
f 602 603 1413
f 556 527 1357
f 527 1401 1357
f 860 1352 1286
f 1352 1085 1286
f 1201 1027 1380
f 792 987 1337
f 1352 876 1085
f 601 1036 1138
f 456 827 1376
f 1376 827 361
f 782 1403 600
f 1305 176 309
f 450 1305 309
f 308 450 309
f 372 853 802
f 1370 675 674
f 566 708 567
f 672 367 189
f 509 259 974
f 974 323 1
f 974 972 323
f 229 231 696
f 627 1301 711
f 1342 1408 1197
f 1408 644 1197
f 1336 1337 1408
f 1336 1380 792
f 345 806 343
f 1143 1225 1266
f 995 1226 993
f 1287 1266 1225
f 718 866 1318
f 239 238 1370
f 397 1370 674
f 591 1235 1378
f 1065 577 1414
f 577 579 1414
f 579 1378 1414
f 1065 1414 1066
f 1414 1378 1066
f 1064 1066 1415
f 1066 1378 1415
f 1022 1415 1235
f 1415 1378 1235
f 1022 1064 1415
f 1367 1416 1283
f 1177 1367 1026
f 1281 1283 587
f 1283 1417 587
f 1283 1416 10
f 972 971 465
f 805 465 971
f 805 971 447
f 1373 1418 1360
f 633 769 1373
f 769 1418 1373
f 1280 1419 1420
f 768 1420 769
f 1420 1419 769
f 1372 1420 768
f 1372 1062 1420
f 1062 1165 1420
f 1420 1165 1280
f 246 1258 30
f 617 1018 1011
f 1018 436 1011
f 1389 13 18
f 1389 286 13
f 1389 1421 285
f 18 1421 1389
f 1421 18 43
f 1421 43 285
f 1422 1272 417
f 116 211 384
f 742 1358 1149
f 744 1300 742
f 259 1423 1012
f 1012 1423 509
f 509 1423 259
f 278 1012 509
f 278 357 1012
f 564 200 614
f 1113 1348 374
f 1348 266 374
f 1424 1347 1113
f 1424 1113 1112
f 1425 823 1347
f 823 869 1347
f 853 1160 802
f 1368 223 224
f 1368 1393 223
f 1393 692 223
f 765 743 997
f 975 1110 976
f 674 398 397
f 299 298 663
f 241 766 695
f 743 765 1205
f 765 766 1205
f 530 1134 44
f 193 44 1134
f 1135 870 340
f 437 340 870
f 374 387 373
f 387 1269 373
f 1015 1016 1317
f 1016 836 1317
f 1016 383 836
f 1015 1317 595
f 456 1376 1218
f 883 1426 882
f 883 1248 1426
f 1049 310 87
f 1049 538 121
f 86 393 495
f 86 85 393
f 86 538 1049
f 1365 177 176
f 592 847 736
f 1427 847 122
f 847 846 122
f 571 848 847
f 1093 958 28
f 162 1080 967
f 1028 1080 831
f 1080 1093 831
f 28 831 1093
f 1195 162 1196
f 1195 1080 162
f 1195 1093 1080
f 1062 56 1152
f 494 561 1329
f 470 1096 471
f 484 1428 1274
f 484 410 412
f 484 412 1428
f 371 1428 412
f 371 1274 1428
f 438 339 340
f 792 1380 258
f 258 1380 1027
f 651 409 408
f 272 274 554
f 274 861 554
f 1241 515 1262
f 191 738 697
f 302 594 303
f 665 998 666
f 998 1086 666
f 1021 991 955
f 1073 952 959
f 437 1118 1191
f 1169 544 714
f 662 584 1168
f 584 1169 1168
f 1168 714 1129
f 1128 1035 1034
f 713 1129 714
f 1183 1248 994
f 320 1314 576
f 758 925 1227
f 501 503 907
f 527 556 734
f 995 1248 883
f 296 1181 178
f 1354 138 1075
f 1384 1323 1403
f 1323 1290 1403
f 1327 1429 534
f 694 696 1327
f 696 1429 1327
f 504 534 533
f 694 1327 829
f 1327 1326 829
f 998 1429 231
f 504 708 534
f 708 1326 534
f 557 568 558
f 1396 917 918
f 1396 918 1237
f 1396 1237 1262
f 1353 1396 612
f 1396 613 612
f 59 613 516
f 613 1396 516
f 1353 917 1396
f 1041 721 392
f 721 720 392
f 590 1153 291
f 1394 1162 1164
f 1184 1394 1430
f 1394 1164 1430
f 1430 1164 424
f 1216 1430 424
f 1186 1184 1430
f 1017 919 1018
f 388 1422 387
f 82 1272 378
f 600 1146 213
f 354 213 1146
f 439 782 213
f 1006 1061 356
f 1061 1012 356
f 358 1242 110
f 674 1238 38
f 38 1238 947
f 1231 618 1403
f 1313 39 995
f 39 1313 423
f 850 852 1142
f 895 1219 1142
f 1219 950 1142
f 1139 852 911
f 1431 17 15
f 89 660 1129
f 696 231 1429
f 1171 462 1173
f 1210 186 735
f 117 148 147
f 117 384 148
f 832 865 828
f 1340 725 542
f 800 808 679
f 800 196 808
f 845 672 1270
f 845 184 367
f 1251 1250 1375
f 1251 1375 965
f 945 208 222
f 546 738 1175
f 1175 738 214
f 1406 1294 530
f 1241 1262 1237
f 921 1005 922
f 922 1005 1237
f 1018 617 616
f 1333 330 1382
f 650 648 289
f 1273 289 648
f 88 1137 661
f 1060 756 411
f 1082 344 1386
f 1083 1054 1087
f 1083 1087 875
f 807 628 677
f 499 1191 1387
f 1118 1079 1191
f 1079 1078 1191
f 1078 1387 1191
f 1326 708 830
f 534 1429 1432
f 896 532 1432
f 532 534 1432
f 896 1432 665
f 665 1432 998
f 1432 1429 998
f 264 869 1199
f 1346 1319 815
f 1319 816 815
f 996 178 857
f 407 737 1127
f 1125 1127 35
f 1401 903 1357
f 1358 1272 388
f 1272 1422 388
f 736 122 121
f 1427 736 847
f 736 1427 122
f 1178 1138 1036
f 739 873 1112
f 1328 1425 873
f 1425 1112 873
f 824 1425 1328
f 1339 204 1057
f 1 1306 974
f 405 1060 1402
f 411 1433 1059
f 1059 1433 410
f 410 1433 411
f 1242 358 1339
f 430 502 687
f 501 687 502
f 523 382 380
f 1019 821 965
f 1019 965 1375
f 815 1019 1346
f 844 1019 1434
f 1434 815 844
f 815 814 203
f 815 203 844
f 331 333 1435
f 214 928 1435
f 214 1435 333
f 1435 928 331
f 1266 1287 1220
f 1266 1144 1143
f 800 711 710
f 800 710 196
f 566 770 240
f 1330 172 770
f 1254 799 1104
f 715 716 547
f 716 1318 547
f 866 619 1318
f 718 443 866
f 619 444 548
f 866 443 444
f 634 1398 1436
f 634 1436 633
f 633 1436 769
f 1398 769 1436
f 1145 981 982
f 1202 56 741
f 1202 1151 56
f 700 1151 701
f 701 1151 982
f 1151 1145 982
f 1334 324 325
f 587 1417 10
f 10 1417 1283
f 194 1416 1367
f 10 1416 194
f 1246 1013 1247
f 1171 1426 413
f 882 1426 1171
f 1247 1013 1426
f 413 1426 1013
f 1431 15 268
f 75 1399 287
f 623 1399 74
f 467 287 323
f 1399 316 287
f 197 75 5
f 1406 530 65
f 1406 64 1294
f 467 808 75
f 75 196 5
f 808 196 75
f 240 695 829
f 694 829 695
f 695 240 241
f 1437 174 783
f 1437 783 775
f 1437 241 174
f 1437 775 241
f 1220 1238 1239
f 812 951 1096
f 1097 952 471
f 494 1329 537
f 592 1096 470
f 1045 1307 1236
f 1236 1044 1045
f 1407 905 42
f 42 1390 1407
f 1291 1407 1390
f 1365 176 1305
f 578 1008 435
f 1008 1007 435
f 1007 436 435
f 417 507 387
f 1431 268 518
f 17 1431 925
f 1431 1275 925
f 518 1275 1431
f 139 927 1275
f 1275 518 139
f 1329 1043 537
f 1043 1042 537
f 736 1043 1096
f 1096 1043 1329
f 303 41 666
f 1424 1425 1347
f 953 470 469
f 1216 1186 1430
f 1438 408 409
f 1100 920 1439
f 920 1440 1439
f 1439 1440 1441
f 1438 1153 1439
f 1153 590 1439
f 182 627 840
f 359 1339 358
f 1362 932 1373
f 1362 1373 1360
f 1419 1442 769
f 1442 1418 769
f 1360 1418 1442
f 1442 1419 1280
f 1302 1204 1303
f 1442 1302 1360
f 1280 1204 1442
f 1204 1302 1442
f 1214 1213 1371
f 1213 1313 1371
f 995 1214 1371
f 883 1214 995
f 198 1147 250
f 198 250 199
f 328 610 891
f 150 1443 1391
f 2 1443 150
f 1424 1112 1425
f 1265 20 65
f 1315 807 467
f 467 807 808
f 527 526 918
f 1087 1159 1253
f 1392 1391 1443
f 1392 1443 4
f 4 1443 2
f 509 47 278
f 278 47 46
f 1030 1144 1261
f 116 384 117
f 1050 1076 1342
f 1076 1379 1342
f 313 1258 1320
f 1258 1048 1320
f 1305 331 177
f 331 928 177
f 644 646 1197
f 841 840 1033
f 1089 1033 676
f 1379 1336 1342
f 1401 527 918
f 615 1413 603
f 615 804 1413
f 1413 804 602
f 387 1422 417
f 600 1403 574
f 574 1403 618
f 1025 1091 49
f 438 11 339
f 1173 882 1171
f 589 1439 590
f 408 1438 1441
f 1441 1438 1439
f 409 1153 1438
f 1377 1441 920
f 1441 1440 920
f 1441 242 408
f 1100 1439 589
f 1247 1426 1248
f 1017 1058 1338
f 919 1338 1377
f 1338 1441 1377
f 1058 520 1338
f 520 1444 1338
f 1444 520 242
f 1441 1444 242
f 1338 1444 1441
f 149 1047 996
f 612 903 917
f 1409 868 825
f 868 823 825
f 525 1325 1409
f 1325 868 1409
f 869 868 1325
f 663 1056 1366
f 942 1174 1366
f 1366 1174 881
f 942 1366 1056
f 881 1312 1445
f 1445 297 881
f 297 1445 1312
f 749 455 983
f 983 1412 749
f 1412 818 749
f 818 1412 1411
f 1412 729 1411
f 1227 1101 939
f 1111 1227 939
f 1446 1178 907
f 1178 1014 907
f 968 1178 1446
f 1245 1446 907
f 969 968 1245
f 968 1446 1245
f 789 1146 600
f 1025 1386 1091
f 344 1114 1091
f 1082 1386 1025
f 540 1091 1114
f 867 519 288
f 1425 824 823
f 1233 128 480
f 815 1434 1019
f 433 432 1316
f 947 1322 38
f 1342 1336 1408
f 670 207 943
f 207 208 943
f 1082 1025 123
f 1047 149 150
f 1233 622 128
f 569 1244 1291
f 977 131 390
f 347 572 592
f 1000 262 261
f 570 569 1291

