# https://github.com/mikedh/trimesh
v -0.29110225 -0.11190400 -0.24407425
v -0.22256522 -0.11289139 -0.21751889
v -0.22228238 -0.11270150 -0.25671319
v 0.30865450 0.00882200 -0.31214750
v 0.30034030 -0.04152070 -0.26627389
v 0.31058600 -0.02249200 -0.31962000
v 0.07119800 0.06715100 0.18082700
v 0.07680400 0.08384000 0.15988300
v 0.05320200 0.11824700 0.11384100
v 0.00000000 0.07325100 0.08300600
v 0.05790160 0.02634149 0.14202365
v 0.07795306 0.04478409 0.15113370
v 0.06682971 0.04167609 0.11936751
v 0.29791788 -0.04020550 -0.25345612
v 0.28653083 -0.02897313 -0.20143027
v 0.29813106 -0.05326419 -0.25671664
v 0.28609022 -0.05838635 -0.20472894
v 0.27461000 -0.11190400 -0.33227100
v 0.26755482 -0.05856742 -0.33433160
v 0.31221300 -0.06719800 -0.32594550
v -0.08875186 -0.02775306 0.29076630
v -0.06377348 -0.02499318 0.29099440
v -0.05933549 -0.00642370 0.26878691
v -0.00000000 0.10320000 0.08402300
v -0.04758295 0.07025132 0.09352360
v -0.21152013 -0.11190400 0.06461425
v -0.22288900 -0.11190400 0.02051600
v -0.22636750 0.18158750 0.00701550
v 0.21161800 0.14958350 0.06423350
v 0.25831187 -0.02416359 -0.32751524
v -0.11811517 -0.11420615 0.12744509
v -0.09974019 -0.11539532 0.09217435
v -0.07292752 -0.11608486 0.12622097
v -0.21735003 0.15760701 -0.25030931
v -0.21818862 0.10182740 -0.28858349
v -0.22334468 0.15941939 -0.24815391
v -0.24518068 0.09872679 -0.28663109
v 0.26836450 -0.11190400 -0.15587750
v 0.23156864 -0.11847761 -0.17336943
v 0.23703265 -0.11879685 -0.17722764
v -0.12427093 -0.11391699 0.15642209
v -0.13855826 -0.11393015 0.15866425
v -0.13893187 -0.11378491 0.13909795
v 0.00000000 -0.11190400 0.15281075
v -0.08990856 -0.09005260 -0.32181817
v -0.11769000 -0.11190400 -0.33227100
v -0.12873902 -0.04846067 -0.32561304
v -0.03018100 0.12712200 0.10146600
v -0.05302800 0.11856700 0.11387000
v -0.18732367 0.08438667 0.15847400
v -0.20006158 0.05666580 0.11657867
v -0.19690718 0.03229411 0.13151822
v 0.02630300 0.12786200 0.10011600
v -0.11750600 -0.11718861 0.20551900
v -0.12278799 -0.11706339 0.19769518
v -0.11420132 -0.11713442 0.19738855
v -0.14824900 -0.05032100 0.31003450
v -0.07783121 -0.04266619 0.30720259
v -0.07186600 0.06850200 0.17973700
v -0.05480000 0.05146500 0.20027500
v 0.23257862 -0.05730707 -0.33320202
v 0.22797130 -0.00254157 -0.32324398
v 0.20819348 -0.02648684 -0.32733839
v -0.00000000 0.13053500 0.09631000
v 0.00000000 0.15468900 0.05533000
v -0.17741350 -0.11190400 0.19690900
v -0.25822600 0.21572000 -0.11652800
v -0.19040293 0.21352173 -0.13885364
v -0.19042143 0.21337645 -0.12341804
v -0.26836450 -0.11190400 -0.15587750
v -0.11817676 -0.11290329 0.09858582
v 0.24632395 0.03996497 -0.30789819
v 0.30672300 0.04013600 -0.30467500
v -0.17211950 0.03662850 0.21744250
v -0.16456000 0.01126200 0.24676700
v -0.09926457 -0.11443040 0.28376256
v -0.07655880 -0.11450218 0.31337969
v -0.14330688 -0.11190400 0.32920375
v -0.28140688 -0.07024454 -0.19593288
v -0.27973338 -0.11190400 -0.19997587
v 0.21339253 0.00149447 0.07535331
v 0.20814864 0.06586882 0.08748243
v 0.21330809 0.00136370 0.07566205
v 0.20114373 0.04648318 0.11392472
v 0.29110225 -0.11190400 -0.24407425
v 0.27973338 -0.11190400 -0.19997587
v -0.16238627 0.21057915 -0.05594987
v -0.12844990 0.20727562 -0.04348613
v -0.12350242 0.21655595 -0.09453217
v -0.19615000 -0.11190400 -0.33227100
v -0.23538000 -0.11190400 -0.33227100
v 0.00000000 -0.02520800 0.28575000
v -0.05234590 -0.00386872 0.26582722
v 0.10051317 -0.11377802 0.07911134
v 0.11672298 -0.11362989 0.04691713
v 0.14692191 -0.11338860 0.09200307
v 0.09474206 -0.11717025 0.11645991
v 0.07458774 -0.11515129 0.09409952
v 0.10707265 -0.11496506 -0.01022584
v 0.12030550 -0.11518915 -0.01495584
v 0.09689512 -0.11477530 0.00854184
v -0.11652245 -0.11756247 0.07548121
v 0.07846000 -0.11190400 -0.33227100
v 0.07600127 -0.04757267 -0.32528912
v 0.05717907 -0.04449954 -0.32451525
v 0.07952455 0.05479294 0.12957935
v 0.07106700 0.10282300 0.13503200
v -0.06911293 -0.11509480 -0.24189412
v -0.05440238 -0.11488860 -0.24309722
v -0.05589652 -0.11501037 -0.23165715
v -0.15705117 0.17538187 -0.23797014
v -0.15328488 0.17146920 -0.24133347
v -0.15723493 0.17518815 -0.23811348
v -0.23386900 0.19525500 -0.02209100
v -0.24044850 0.20297450 -0.04760300
v -0.16095882 0.17473143 -0.23837631
v -0.18692442 0.11868370 -0.28139213
v -0.20998287 0.09306596 0.06945755
v -0.19496833 0.10677833 0.12883000
v -0.20261300 0.12917000 0.09918600
v -0.09895350 -0.11190400 0.37330200
v 0.00000000 -0.11190400 0.24100725
v 0.18026000 0.06269200 0.18583800
v 0.17262050 0.03721650 0.21549650
v 0.29318042 0.09175098 -0.21952917
v 0.29726171 0.06397106 -0.22901868
v 0.30140700 0.09650500 -0.28405000
v -0.10611933 0.19510682 -0.01713491
v -0.09604061 0.20829696 -0.05194581
v -0.28944173 -0.05566147 -0.21045290
v -0.00000000 0.02333200 0.11408800
v -0.06193635 0.02213842 0.12970223
v -0.00000000 0.01181400 0.13816900
v -0.15640450 -0.01952950 0.27840075
v 0.00000000 0.17884300 0.01435000
v 0.00000000 -0.01314600 -0.31660650
v 0.05104386 -0.03745797 -0.32372073
v 0.00000000 -0.03945700 -0.32219100
v 0.04461026 -0.11487488 0.10766239
v 0.00000000 -0.11190400 0.10871250
v 0.00000000 -0.11190400 0.06461425
v 0.05303224 -0.11581079 0.11859010
v -0.25699563 -0.11190400 -0.11177913
v -0.27075699 -0.04547059 -0.14494099
v -0.17971334 0.06053108 -0.30883461
v -0.21512966 0.07200948 -0.30119506
v -0.17916919 0.09985780 -0.29257365
v 0.25058486 -0.03131953 -0.06439541
v 0.25968601 0.00773359 -0.08596030
v 0.24746952 0.00903756 -0.04218293
v -0.30621400 0.03954100 -0.30268500
v -0.29444485 0.04051773 -0.23964730
v -0.30206100 0.08389800 -0.28659200
v 0.30406500 0.06832050 -0.29436250
v 0.24576762 0.05680036 -0.30261790
v -0.07613187 -0.11646271 -0.15412727
v -0.08667893 -0.11658733 -0.18931987
v -0.05726081 -0.11624440 -0.17918336
v 0.25933000 0.21701200 -0.12082700
v 0.21974417 0.21819274 -0.11597942
v 0.24811800 0.21197200 -0.07735600
v -0.10168648 0.18724062 -0.22208921
v -0.06590726 0.19924994 -0.19849762
v -0.06188545 0.17503550 -0.23496713
v 0.06197691 0.01402853 0.24485227
v 0.00000000 0.00562650 0.25171250
v -0.04714763 0.17414678 -0.23527252
v -0.04298781 0.20357753 -0.19030602
v 0.15692000 -0.11190400 -0.33227100
v 0.26179718 -0.00073428 -0.31790823
v 0.06162050 0.15670210 0.06182229
v 0.15592535 -0.11545546 -0.22348562
v 0.14946289 -0.11553110 -0.20887998
v 0.11695289 -0.11529827 -0.23304830
v -0.06587312 -0.11635347 0.14742570
v -0.24144076 0.13596665 -0.03581538
v 0.21337267 0.00115132 0.07545615
v 0.21333208 0.00067643 0.07556526
v 0.22173525 -0.05066522 0.04516518
v 0.21152013 -0.11190400 0.06461425
v 0.22288900 -0.11190400 0.02051600
v 0.21456037 0.11237570 0.04193155
v 0.20342600 0.13012800 0.09602000
v 0.13923314 0.21361472 -0.16514264
v 0.12376410 0.21876130 -0.14287370
v 0.15432476 0.21927172 -0.12243898
v -0.24090036 -0.04035443 -0.02253810
v -0.23425788 -0.11190400 -0.02358238
v -0.23427122 -0.06573540 0.00462133
v -0.07680400 0.08427500 0.15998500
v -0.19446932 -0.06374235 0.14106865
v -0.20015125 -0.11190400 0.10871250
v -0.18878238 -0.11190400 0.15281075
v -0.30247113 -0.11190400 -0.28817262
v 0.21340029 0.00119958 0.07535865
v 0.21344900 0.00122755 0.07518782
v 0.23332989 0.04372709 0.00464715
v 0.23331196 0.04416142 0.00479038
v 0.22226954 0.02036053 0.04392110
v -0.03923000 -0.11190400 -0.33227100
v -0.00000000 -0.11190400 -0.33227100
v 0.00000000 -0.11190400 -0.28817262
v -0.05519223 -0.11623079 0.13969181
v 0.10512422 0.20737752 -0.04554757
v 0.10559840 0.20089296 -0.02742534
v 0.13593751 0.20674111 -0.04441050
v -0.15714751 0.17552978 -0.23778953
v 0.21435778 0.10512291 -0.28573484
v 0.22947714 0.05716009 -0.30419546
v 0.17552365 0.07746826 -0.30329993
v 0.00000000 -0.11190400 -0.24407425
v 0.05188566 -0.11601834 -0.21993727
v 0.00000000 -0.11190400 -0.19997587
v -0.16604463 -0.11190400 0.24100725
v 0.16900713 0.21595086 -0.09794995
v 0.18203679 0.21013232 -0.06047492
v 0.18107969 0.21911385 -0.11723741
v 0.20623363 0.21566054 -0.09400998
v 0.25809278 0.14849085 -0.10196400
v 0.25890162 0.09741552 -0.08534392
v 0.26197338 0.15250068 -0.11736152
v 0.26391995 0.09503390 -0.10236526
v -0.28798700 0.16935800 -0.23199600
v -0.27787800 0.19840700 -0.19276600
v -0.07946524 0.21617323 -0.09924502
v -0.06905595 0.21822383 -0.12866463
v -0.12025973 0.21662767 -0.09521244
v -0.11933540 0.21681091 -0.09783994
v -0.08575205 -0.11641894 -0.30054002
v -0.06932846 -0.11647963 -0.29053200
v -0.09476131 -0.11652835 -0.27761446
v -0.27481022 -0.04691009 -0.16141010
v 0.21981000 0.16903900 0.03244700
v 0.15701047 0.17860869 0.01407208
v 0.14658453 0.17410103 0.02803273
v -0.10629658 -0.00076784 0.25844298
v -0.12201928 0.21677750 -0.09652228
v -0.12326985 0.21339720 -0.15239757
v -0.13575224 0.21611199 -0.10489557
v -0.07855441 0.19978040 -0.02660990
v -0.05567368 0.20232928 -0.03599326
v -0.06440566 0.21259150 -0.06731259
v -0.00000000 0.01002700 0.17137200
v -0.06231905 -0.03872731 -0.32352252
v -0.07846000 -0.11190400 -0.33227100
v 0.16976350 0.11032907 -0.28743990
v 0.15629451 0.09023624 -0.29912043
v 0.13122054 0.12681015 -0.27953432
v 0.09609465 -0.12045737 0.24163121
v 0.07294157 -0.12082866 0.26641495
v 0.06348254 -0.11908398 0.21934950
v 0.04421445 -0.11934427 0.23850582
v -0.21151666 -0.11266564 -0.23726174
v 0.16604463 -0.11190400 0.24100725
v 0.24562675 -0.11190400 -0.06768075
v 0.20266726 -0.11910507 -0.10764357
v 0.19103653 -0.11964994 -0.07372842
v -0.29535000 0.13383200 -0.26052100
v -0.29870550 0.10886500 -0.27355650
v 0.23919068 0.09164185 -0.02044221
v 0.22905762 0.10128318 0.00969831
v 0.23349354 0.04525580 0.00405909
v 0.08786347 -0.11578239 -0.07935300
v 0.06790400 -0.11538638 -0.06353796
v 0.06340086 -0.11537466 -0.06931132
v -0.30824750 0.00835000 -0.31057150
v -0.31028100 -0.02284100 -0.31845800
v -0.06596900 -0.11190400 0.37330200
v -0.05014297 0.16391770 -0.24428681
v 0.25029453 0.12385211 -0.06082060
v 0.24264094 0.10062232 -0.03356018
v -0.22100384 0.16405587 -0.24530956
v -0.22320414 0.16066747 -0.24443445
v 0.10053656 0.02369109 -0.31801946
v 0.09937503 0.02254701 -0.31834340
v 0.09876410 0.02364838 -0.31792325
v -0.12379541 0.21659663 -0.09636047
v 0.05889026 0.21616479 -0.08183916
v 0.05849441 0.21414139 -0.07402352
v 0.06947986 0.21366373 -0.07194598
v -0.29195737 0.06251161 -0.23018578
v -0.26967100 0.21062200 -0.16092800
v 0.06079899 0.17083771 0.03781451
v 0.05544264 0.18915310 0.00192781
v 0.26158621 0.07193600 -0.08978460
v 0.26351258 0.08417396 -0.09786865
v 0.00000000 -0.05410666 0.31493400
v -0.12206053 0.21243353 -0.16663321
v -0.12349987 0.21239677 -0.16662228
v -0.12353705 0.21254375 -0.16629308
v 0.15133726 -0.11330100 0.09861834
v 0.14799243 -0.11385623 0.09785247
v 0.15127567 -0.11286481 0.09496346
v -0.19819196 -0.11318752 -0.24724403
v 0.00000000 -0.11190400 -0.06768075
v 0.00000000 -0.11190400 -0.11177913
v 0.02973100 0.04031000 0.21308500
v 0.00000000 0.03646100 0.21767500
v -0.21073950 0.14854500 0.06765400
v -0.13193800 -0.11190400 0.37330200
v -0.23096431 0.04673081 0.01993595
v -0.23228524 0.05985950 0.01438656
v -0.23511123 0.03709868 0.00846614
v -0.05441014 0.07710066 -0.29799718
v -0.00000000 0.09859600 -0.28163900
v 0.00000000 0.05588050 -0.29633050
v 0.17837347 -0.11802485 -0.00638883
v 0.23425788 -0.11190400 -0.02358238
v 0.05884521 -0.03687700 -0.32363520
v -0.19827245 0.21200927 -0.08763736
v -0.18789512 0.21219342 -0.07442034
v 0.26298204 0.15915757 -0.12360050
v 0.26043534 0.15835739 -0.11399374
v 0.16024514 -0.11552280 -0.26595780
v 0.14483951 -0.11521250 -0.28108526
v 0.16640868 -0.11526435 -0.28206820
v 0.23491500 0.19647500 -0.02612900
v 0.10234101 -0.11542949 -0.23365697
v 0.09931007 -0.11555181 -0.24422197
v 0.04942053 -0.11630232 -0.25269614
v -0.15467575 -0.11190400 0.28510550
v 0.27892300 0.19962700 -0.19684700
v -0.12653729 0.01153786 -0.32003972
v -0.12565995 0.01512649 -0.31895358
v -0.12117759 0.01189011 -0.31969641
v -0.16476366 0.17980979 0.01313617
v -0.17047741 0.20281626 -0.03128155
v 0.09149293 0.18569545 -0.22194688
v 0.06471426 0.19982157 -0.20177436
v 0.07980115 0.20280884 -0.19706075
v 0.19615000 -0.11190400 -0.33227100
v 0.23538000 -0.11190400 -0.33227100
v -0.14963788 -0.11770076 0.08159829
v -0.15630914 -0.11177154 0.11193755
v 0.22736250 0.18275700 0.00315900
v 0.24761874 0.15991821 -0.06067881
v 0.24431312 0.15867232 -0.04883509
v 0.24713947 0.14724949 -0.05582035
v 0.19353176 0.02723623 0.14009589
v 0.28256036 0.14786718 -0.17919368
v 0.27866056 0.16393648 -0.16755255
v -0.05745553 0.19424967 -0.01077166
v 0.00000000 0.04238700 0.09541000
v -0.14009350 -0.08111250 0.34166825
v 0.07789896 -0.00860326 0.27569034
v 0.13869755 0.07998713 -0.30259711
v 0.12513957 0.12828690 -0.27856765
v 0.10364783 0.08430390 -0.29906424
v -0.19696818 0.02220592 0.13316963
v -0.20026856 -0.00003868 0.12141400
v -0.19356970 0.01216512 0.14544705
v 0.15672025 -0.01917025 0.27719175
v 0.16498100 0.01174100 0.24515500
v -0.28033233 0.03897353 -0.16096613
v -0.27962326 0.03824759 -0.15798732
v -0.27784913 0.09218371 -0.15693281
v -0.27406232 0.09137662 -0.14137662
v 0.09895350 -0.11190400 0.37330200
v 0.13193800 -0.11190400 0.37330200
v 0.26619891 0.07977231 -0.10734669
v 0.14492789 -0.11560242 -0.00166692
v 0.11915872 -0.11494639 0.00880582
v -0.20112808 -0.11702455 -0.13262403
v -0.19193360 -0.11486844 -0.11778296
v -0.21271646 -0.10858632 -0.11139458
v -0.27461000 -0.11190400 -0.33227100
v 0.11769000 -0.11190400 -0.33227100
v 0.10897567 -0.11361006 -0.28983199
v -0.18974898 0.21004490 -0.15330675
v -0.18660076 0.21326301 -0.14087131
v -0.07102400 0.10318600 0.13516300
v 0.18878238 -0.11190400 0.15281075
v 0.11999303 0.06332557 0.18275293
v -0.27218769 -0.03507841 -0.14849933
v -0.27630187 -0.02987540 -0.16353782
v -0.11406691 -0.11705846 0.22264280
v -0.10516488 0.02292193 0.23106174
v 0.24151650 0.20422350 -0.05174250
v 0.21946407 -0.11853630 -0.28639538
v 0.22277460 -0.11737656 -0.25171140
v 0.19695410 -0.11586860 -0.25176835
v 0.06115891 0.01454962 0.24425337
v 0.21098175 0.01210165 -0.32054450
v 0.24085749 0.05095496 -0.30506378
v 0.22361260 -0.11346126 -0.23770600
v 0.12991940 0.13690902 -0.27166275
v 0.12930488 0.18004767 -0.23436751
v 0.16766808 0.17380802 -0.24081217
v -0.11068857 0.13163013 0.09133127
v -0.27221773 0.15019544 -0.16810492
v 0.06596900 -0.11190400 0.37330200
v -0.21778980 0.16322037 -0.24629547
v -0.19796883 0.19792743 -0.19668749
v -0.15434187 -0.11724670 0.03793260
v 0.00000000 0.13657700 -0.26065200
v 0.00000000 -0.08300533 0.34411800
v 0.00000000 -0.11190400 0.37330200
v 0.22857260 -0.03513940 0.01468482
v 0.23149119 -0.01513492 0.00522414
v 0.22364944 -0.03567973 0.03945529
v -0.18404151 -0.11453630 -0.07158055
v -0.14589385 -0.11504887 -0.09243067
v 0.00000000 -0.07568050 -0.32723100
v 0.00000000 0.19800000 -0.19671600
v -0.12381141 0.21255095 -0.16624310
v -0.05536359 -0.00061680 0.26196098
v 0.15560220 -0.11844795 -0.05458351
v 0.15198232 -0.11815973 -0.02770288
v 0.12868686 -0.11580856 -0.04635773
v 0.06563708 -0.11535701 -0.05981824
v 0.06460355 -0.11524942 -0.04835603
v 0.07685338 0.18413436 0.01308733
v 0.13456841 0.18215205 0.01316177
v 0.10932400 0.17226036 0.03235616
v -0.02839500 0.04006300 0.21359300
v 0.28894500 0.17046200 -0.23568500
v 0.21343282 0.00102170 0.07523250
v 0.21336985 -0.05416131 0.07362845
v -0.12526531 0.21228496 -0.16684561
v -0.21886600 0.16792000 0.03612200
v 0.05359400 0.05053500 0.20095700
v 0.20094134 0.20133833 -0.19979620
v 0.27076100 0.21190000 -0.16515500
v -0.27932622 0.03579810 -0.15610739
v -0.27370563 0.07135132 -0.13591187
v 0.15600754 0.19048865 -0.00865827
v -0.15666482 -0.11751542 -0.14976527
v -0.15270900 -0.11543167 -0.13396486
v 0.24483283 0.15996588 -0.24198712
v 0.23151045 0.16850132 -0.24153056
v 0.24620868 0.16968597 -0.22150377
v 0.23346892 -0.11859558 -0.18150698
v 0.08120513 0.20198739 -0.02921964
v -0.19256518 0.01930821 -0.32054455
v -0.19527996 0.04458215 -0.31418606
v -0.17803879 0.03761418 -0.31682019
v -0.28348867 0.03738297 -0.17892353
v -0.28031138 0.03514168 -0.16091277
v 0.29949187 0.01086996 -0.25648328
v -0.04966794 0.20970590 -0.17227612
v -0.22503742 -0.00634767 -0.32677066
v -0.19984988 -0.03357438 -0.33161309
v -0.25262387 -0.03921281 -0.33022387
v -0.22651091 -0.05820776 -0.33395454
v 0.00000000 -0.11190400 0.32920375
v -0.03298450 -0.11190400 0.37330200
v -0.08531035 -0.06815346 0.33204758
v 0.23341246 0.04419544 0.00446587
v 0.23865627 -0.01481964 -0.01924293
v -0.16178255 0.13083113 0.08962931
v -0.14267231 0.10119867 0.13031455
v -0.11265945 -0.11356264 0.26512323
v -0.24562675 -0.11190400 -0.06768075
v 0.29617800 0.13480500 -0.26374600
v 0.20502590 -0.05647617 0.09894193
v 0.04659929 0.16104290 0.05542323
v 0.22864402 -0.11783412 -0.20132646
v -0.20937301 0.04966252 0.08577795
v -0.21363158 0.07319417 0.06839306
v -0.21668391 0.03976728 0.06294423
v -0.00000000 0.20896600 -0.17096500
v 0.00000000 0.21582100 -0.13558400
v 0.00000000 0.21544400 -0.10184400
v 0.05690110 0.21650210 -0.08884940
v 0.14330688 -0.11190400 0.32920375
v 0.14019875 -0.08099275 0.34126525
v 0.05168808 0.05979271 0.10264886
v -0.25652413 -0.07400562 -0.08170963
v -0.00000000 0.01890200 0.19654200
v 0.11860199 -0.11635212 0.15584656
v 0.12101226 -0.11310840 0.18633131
v 0.06732489 -0.11679743 0.17226250
v 0.03923000 -0.11190400 -0.33227100
v 0.00000000 -0.11190400 0.28510550
v -0.11781523 -0.11641739 -0.15986478
v -0.15265608 -0.11619681 -0.17319273
v -0.13752842 -0.11627127 -0.19983312
v -0.06367919 0.15786371 0.05575043
v -0.22263316 0.09432130 0.03895305
v -0.27997750 0.03600030 -0.15917137
v 0.23958496 -0.11917715 -0.28454925
v 0.24720570 -0.11889769 -0.26713913
v 0.04914830 0.20046053 -0.02468650
v 0.17287176 0.16780421 -0.24702549
v 0.12935763 0.13068632 -0.27747608
v 0.00000000 0.01316500 -0.31102200
v 0.05234224 -0.02920718 -0.32221689
v -0.20304539 -0.05037244 0.11362773
v 0.21190619 -0.11540915 -0.23737981
v -0.17907104 -0.04562548 0.21734107
v -0.17053148 -0.05234044 0.23295095
v -0.23427079 0.03490031 0.01141925
v 0.18798200 0.08517067 0.15589867
v -0.25071930 -0.06713520 -0.05611041
v 0.20015125 -0.11190400 0.10871250
v -0.06029563 -0.11562177 -0.06057588
v 0.00000000 -0.11190400 -0.02358238
v -0.12383368 0.21259871 -0.16586500
v -0.18432786 0.21389638 -0.13666864
v -0.05690253 -0.11967536 0.24858566
v -0.05563250 -0.11972090 0.25188785
v -0.05840723 -0.11973399 0.25165945
v 0.07492620 -0.11541565 -0.05732866
v -0.21709167 -0.01630744 0.06702425
v -0.21953503 -0.00322463 0.05906122
v -0.22316705 -0.01186966 0.04599605
v 0.23979927 -0.11862247 -0.18175983
v 0.23414788 -0.06620119 -0.03461246
v -0.06936187 0.05195217 -0.30668954
v -0.08825578 0.08452386 -0.29828223
v -0.25143407 0.17361657 -0.08470579
v -0.24586059 0.14411105 -0.05381086
v -0.07782442 0.02227814 -0.31653738
v -0.06189115 -0.03318901 -0.32351466
v 0.24476749 0.07997027 -0.03700058
v 0.24075587 0.08898220 -0.02514039
v 0.27630955 -0.04602629 -0.16175224
v 0.20555475 -0.06250045 -0.33018102
v 0.18348071 -0.01094908 -0.32536428
v 0.17044306 -0.04201359 -0.32750501
v 0.00000000 -0.11190400 0.02051600
v -0.20247651 0.20042894 -0.18685219
v 0.04020011 -0.11292338 0.11579241
v 0.04143549 -0.11511692 0.12310535
v 0.12242504 -0.11289962 0.20724399
v 0.17741350 -0.11190400 0.19690900
v 0.25413524 0.03934086 -0.06156414
v -0.05594576 -0.11679798 0.15788939
v 0.19570400 0.10764933 0.12595933
v 0.13780275 0.10364296 0.13120764
v -0.23975366 0.07775403 -0.01176572
v -0.23552715 0.04271987 0.00610744
v -0.23484575 0.10079462 0.00383046
v 0.22713601 0.17819868 -0.22849876
v -0.04682323 0.13459612 -0.26918532
v -0.24553846 0.09908617 -0.04007480
v -0.24591126 0.12415285 -0.04821042
v -0.25095943 0.05542605 -0.04473241
v -0.25530844 0.07761006 -0.06439821
v 0.00000000 0.20992400 -0.06890300
v -0.10463513 -0.11745202 0.20367744
v -0.09125723 0.04038949 -0.31204297
v -0.26291745 -0.03827620 -0.10175007
v -0.26753059 -0.03336721 -0.12591537
v -0.12560326 0.00960486 -0.32012447
v -0.12804851 0.00157162 -0.32080421
v -0.00000000 0.16481200 -0.23872000
v -0.23395605 0.11854612 -0.00398990
v -0.20762919 -0.04471334 0.09634512
v -0.15307799 -0.03137539 -0.32468173
v -0.00000000 0.19839200 -0.03082000
v 0.10274720 -0.11657686 -0.18125986
v 0.09691819 -0.11656857 -0.17311758
v 0.09179520 -0.11642328 -0.18495516
v 0.09597487 0.01803144 -0.31872822
v 0.07447159 0.11082466 -0.28537638
v -0.03556805 -0.05457076 0.32269827
v -0.05563788 0.02928562 -0.31328104
v -0.12304096 0.21264574 -0.16560925
v 0.03912943 -0.04872066 0.30954765
v 0.06363718 -0.05921305 0.32977221
v 0.00000000 -0.11190400 -0.15587750
v -0.06824105 -0.11664988 -0.12184688
v 0.23335697 0.04430806 0.00463234
v 0.23325683 0.04443270 0.00487420
v 0.17732605 0.16970308 -0.24515492
v 0.19458208 0.14948675 -0.25815475
v -0.11381765 -0.01336795 0.27179495
v 0.25699563 -0.11190400 -0.11177913
v -0.11150234 0.11185096 0.11830628
v 0.20172704 0.00047941 -0.32410882
v 0.00000000 -0.11190400 0.19690900
v -0.14433913 -0.11604260 -0.08178396
v -0.13116473 -0.11581079 -0.08326465
v -0.14037211 -0.11448448 -0.05913225
v 0.26495118 0.00692680 -0.10511550
v 0.27329536 -0.03929197 -0.14798526
v 0.26720157 0.01772111 -0.11142235
v 0.27258615 -0.00687546 -0.13790526
v -0.15684032 0.17555418 -0.23776837
v 0.10585459 -0.06780461 -0.32494813
v 0.11626678 -0.05820512 -0.32905829
v -0.13901406 0.09957112 0.13296872
v 0.15652207 0.00463001 -0.32275093
v 0.10078389 0.02245477 -0.31842315
v 0.15900513 0.03229883 -0.31840094
v -0.21955081 -0.02380451 0.05705733
v 0.05277066 0.21829274 -0.13562234
v 0.05905951 0.21837758 -0.13401412
v 0.06237162 0.21647916 -0.08505505
v 0.25546289 -0.05453104 -0.08693583
v 0.25185063 -0.05107015 -0.07283943
v -0.17022291 0.16505817 0.02946833
v -0.15692000 -0.11190400 -0.33227100
v -0.27868090 0.02379430 -0.15769271
v -0.26303555 0.11945163 -0.10607107
v -0.26333550 0.12081095 -0.10766308
v -0.26349096 0.11819967 -0.10769988
v -0.18754957 -0.01332103 0.16891293
v -0.17967900 0.06199500 0.18811800
v -0.24702800 0.21069400 -0.07311500
v -0.29795023 0.00812595 -0.25535053
v -0.26303924 0.12203476 -0.10713353
v 0.17666344 0.21661954 -0.13571000
v 0.16454362 0.21059770 -0.18026248
v -0.08541607 -0.01134460 0.27266329
v -0.06646416 -0.00324635 0.26444949
v -0.19340381 0.21229174 -0.14393351
v 0.00000000 0.18410000 -0.21786300
v 0.28414648 0.08360895 -0.18241280
v 0.28137905 0.10077400 -0.17315799
v 0.27941163 0.08430003 -0.16096478
v -0.03830574 0.21817126 -0.12539713
v 0.12313569 -0.11948805 0.24871314
v 0.10575121 -0.12103954 0.28014074
v 0.10973909 0.20747998 -0.18563646
v 0.09243618 0.21009964 -0.17311108
v -0.22700080 0.10992404 0.02625013
v -0.08141862 -0.11549181 0.00195750
v -0.11239868 -0.11783368 0.03206145
v -0.12300297 -0.11394523 -0.00031343
v -0.18884195 -0.11607462 -0.05001546
v 0.08324347 -0.10071576 0.31995013
v -0.04572743 -0.03024470 0.29526755
v 0.29786483 -0.05151910 -0.27188781
v 0.30247113 -0.11190400 -0.28817262
v -0.05724336 0.10746313 -0.28418493
v -0.11835460 0.07363734 -0.30410807
v -0.10894316 0.18893106 -0.00115667
v -0.09276363 0.18848344 0.00080667
v -0.13787197 -0.11653636 -0.14700706
v 0.17339123 -0.11758663 -0.17552672
v 0.20636008 -0.11837844 -0.13640852
v 0.15791804 -0.11686545 -0.16851325
v 0.17703749 -0.11722018 -0.13824503
v -0.23593427 0.03436718 0.00570631
v -0.23472466 0.02775604 0.00934209
v 0.14435502 -0.11774910 -0.10685799
v 0.06185947 0.01489203 0.24380208
v -0.22201566 -0.11484853 -0.19061953
v 0.13824151 -0.11685154 -0.12491293
v 0.05528129 0.20621384 -0.18673777
v 0.06440127 -0.10306562 0.32747867
v 0.03298450 -0.11190400 0.37330200
v -0.19648030 -0.06226839 -0.33473775
v -0.28731040 0.00432870 -0.19732708
v 0.14845950 -0.05008150 0.30922850
v 0.08355335 -0.07175927 0.34186060
v 0.06161378 -0.11536872 -0.06206675
v -0.25579907 -0.06346845 -0.32982356
v -0.15589122 -0.11628983 -0.19545068
v -0.16270775 -0.11616183 -0.21385554
v -0.24219514 0.12013562 -0.03446536
v -0.14622296 0.16009103 0.04634062
v -0.11000708 0.15026325 0.06312495
v -0.13928390 0.17743259 0.01897902
v -0.10532068 0.18265973 0.01174615
v -0.23385539 0.20095064 -0.17760560
v -0.14114912 0.08680582 -0.29912489
v -0.15996594 0.05201495 -0.31207114
v 0.15879029 0.15416456 0.06241105
v 0.14320163 0.14100210 0.07972771
v 0.12953463 0.19336571 -0.21615660
v -0.11884740 0.13467229 -0.27312677
v -0.11626266 0.13745630 -0.27039549
v -0.11640468 0.04435972 0.20943707
v -0.17635225 -0.10859852 0.02509907
v -0.09421918 -0.11664786 -0.13389320
v -0.31384000 -0.11190400 -0.33227100
v -0.13735119 -0.11497261 -0.23918674
v -0.15575542 -0.11822628 -0.26218687
v -0.10728506 -0.11512418 -0.25352551
v -0.12186725 -0.11761579 -0.27092913
v -0.16925891 -0.11381147 -0.02714323
v -0.15673523 -0.11423260 0.01128369
v -0.26338595 0.12221029 -0.10838100
v 0.16694319 0.13809387 -0.27240622
v 0.21550031 0.12118208 -0.27760187
v 0.11146847 -0.11667535 -0.17354361
v -0.24405029 0.01056441 -0.02537243
v 0.21230923 -0.11363791 -0.25124456
v -0.29286807 0.03303107 -0.23109130
v 0.18022362 0.20410518 -0.04125575
v -0.28744498 0.09738841 -0.22377926
v -0.28806363 0.10025622 -0.21178349
v -0.29898718 -0.01074128 -0.26819249
v 0.12252131 -0.11673313 -0.11704825
v 0.07227473 -0.11633572 -0.12410471
v -0.13240113 -0.11598176 -0.10046274
v 0.09854331 0.02245764 -0.31831069
v 0.09915740 0.02212709 -0.31841228
v -0.21481702 0.00668229 0.07334484
v 0.06539786 -0.07574364 0.34571642
v -0.11719997 0.13398679 -0.27361445
v -0.26054868 0.04716105 -0.07731772
v 0.31384000 -0.11190400 -0.33227100
v -0.16058786 0.17132720 0.02800580
v -0.20409556 -0.11450056 -0.19830031
v 0.08226653 0.15145859 0.06784381
v 0.04914174 -0.11608883 -0.13286414
v 0.08814221 -0.11647563 -0.17505399
v 0.14356183 -0.03216150 -0.32810924
v -0.13203554 0.01386338 -0.31966987
v 0.15467575 -0.11190400 0.28510550
v -0.11475458 -0.11601138 -0.09445834
v 0.24931847 0.05037548 -0.30481730
v 0.06467271 -0.11693262 0.17406317
v 0.06407002 -0.11689636 0.17235759
v 0.05924267 -0.11481544 0.05179675
v 0.19613260 -0.04592168 0.13299888
v 0.13658777 0.21535245 -0.08018053
v 0.12154743 0.21831564 -0.10129328
v -0.26819977 0.03578680 -0.10710673
v -0.06398333 -0.11936406 0.25318950
v 0.12952681 0.07695574 0.16691973
v -0.15678053 -0.06662544 0.27618667
v 0.29523918 0.00979061 -0.23432693
v 0.28980795 -0.00052690 -0.20970166
v 0.26816695 0.05369045 -0.11402748
v 0.04086989 0.02765793 -0.31420091
v 0.05273468 0.05942315 -0.30437421
v -0.12355414 0.21258579 -0.16607285
v 0.21833064 0.10439914 0.04118540
v -0.03833251 0.04815106 -0.30648210
v 0.27621502 0.10225638 -0.15305982
v 0.10684510 -0.11487338 -0.24484901
v 0.12021316 -0.11532763 -0.24638023
v 0.10833048 -0.11520299 -0.23735258
v -0.20014866 0.02927514 0.12089378
v -0.20443988 0.01264325 0.10849396
v -0.31206050 -0.06737250 -0.32536450
v -0.14242491 -0.11361783 -0.01681318
v -0.15767988 0.17593105 -0.23704585
v 0.13550881 0.11477255 0.11634711
v 0.06079762 0.21785415 -0.13989320
v 0.27540982 0.14976754 -0.15135949
v -0.25057290 -0.01361696 -0.05122562
v -0.23619561 -0.02081913 -0.00206726
v -0.22874228 -0.11264080 -0.19854705
v -0.27402285 0.10815722 -0.14731721
v -0.26177728 0.12183261 -0.10254018
v 0.09969424 0.02134044 -0.31856597
v -0.08620735 0.02791682 0.21674849
v 0.12650388 0.13111801 -0.27696323
v 0.05440521 0.15269053 -0.25722482
v 0.10404560 0.16603201 -0.24862365
v 0.07420168 0.13003690 -0.27379236
v -0.06097705 -0.11566891 -0.06256300
v -0.04860345 -0.11149449 -0.28042341
v -0.24755591 0.04697460 -0.31191929
v -0.26389399 0.04805759 -0.31038994
v -0.25059605 0.06883223 -0.30185298
v -0.12916388 0.06945938 0.17988135
v 0.05043915 0.15256973 -0.25702576
v -0.11300693 0.13399711 -0.27331183
v -0.11775122 0.13152760 -0.27491280
v -0.13717675 0.10424301 0.12672416
v 0.11591964 0.21700225 -0.08601853
v 0.27289572 0.02775105 -0.13113369
v 0.28394571 0.02448127 -0.17766484
v 0.27547117 0.05339328 -0.14353185
v 0.28333155 0.04747887 -0.17642061
v 0.28448734 0.02767978 -0.18294317
v -0.06911995 0.18847505 0.00004992
v 0.20015814 -0.06370297 0.11403481
v -0.06782277 -0.11433463 0.04404962
v -0.05020336 -0.11643660 0.14760122
v -0.27350794 0.15440954 -0.16004199
v 0.25386095 -0.04008882 -0.07810003
v 0.24531806 -0.05220745 -0.05050245
v 0.19433651 -0.03348691 0.13938003
v 0.19185477 -0.03598258 0.14906475
v 0.19424442 -0.04192363 0.13996434
v 0.05109207 0.21580930 -0.14763306
v -0.13848572 -0.04018204 -0.32490923
v -0.17845159 -0.05084133 -0.33304261
v -0.13011350 -0.03658833 -0.32429276
v 0.17169542 -0.11524255 -0.19528001
v 0.21949064 -0.11823197 -0.18183169
v 0.22828260 0.13567355 -0.26522480
v 0.05525360 0.14762084 -0.26039764
v -0.12672567 0.18982342 -0.00415619
v -0.17182309 -0.11603655 -0.19825622
v 0.28817389 -0.06443406 -0.26790369
v -0.21011295 -0.05205681 0.08631450
v 0.07808833 0.20781242 -0.18153945
v -0.05153852 -0.11489981 -0.22411787
v -0.15000008 -0.04683188 -0.32618519
v 0.09931614 -0.11617016 -0.18737669
v 0.11186037 -0.11614574 -0.18944047
v -0.29178337 -0.02134023 -0.21257871
v -0.25230899 -0.00506042 -0.05563564
v -0.18206922 -0.02935142 0.19244376
v 0.14282474 0.20021726 -0.20051044
v 0.16683553 0.19320422 -0.21521134
v -0.25718176 0.03383945 -0.31469479
v 0.22966995 -0.05499545 0.01042189
v 0.23017771 -0.06706303 -0.01727721
v 0.23497136 -0.04620435 -0.01311998
v 0.17823637 0.17367520 -0.23955307
v -0.05307832 -0.12409870 0.20457725
v 0.27080137 -0.05169584 -0.14117883
v 0.27376234 -0.05527838 -0.15251820
v -0.20718033 -0.03754642 0.09820688
v -0.20275289 -0.03606770 0.11411525
v -0.24693543 0.05550710 -0.03121413
v -0.10549917 -0.11520314 -0.21865240
v 0.17301615 -0.06139691 0.24073135
v 0.17977324 -0.06940036 0.21942096
v -0.22667586 -0.07260780 0.03177245
v 0.26204567 0.01895114 -0.09275003
v 0.10713588 0.13942677 0.08356793
v 0.22801456 0.11918910 -0.27775938
v -0.25266220 -0.01261437 -0.05735272
v -0.25264597 -0.01926570 -0.05831327
v 0.15339206 -0.11384854 0.09042794
v 0.06429998 -0.02706934 0.29574560
v 0.08853632 -0.01921294 0.28660893
v -0.21914887 0.09477614 0.05289979
v -0.22103691 0.10847148 0.03733308
v -0.18226959 -0.11580692 -0.16278736
v 0.28952775 0.12293773 -0.20823186
v 0.23779142 0.10788486 -0.01901905
v 0.13121119 -0.11646820 -0.10394646
v -0.06619994 0.00417634 0.25586304
v -0.26441803 -0.02778811 -0.10605245
v -0.26581788 -0.01383469 -0.10988444
v 0.06045701 -0.11524689 -0.05620415
v 0.10813314 0.04303644 0.20876918
v -0.06215039 -0.03597767 -0.32387478
v -0.06930218 -0.03643193 -0.32392289
v -0.27681618 0.14069882 -0.16838754
v -0.09802930 0.17434480 -0.23703144
v -0.15682419 0.17538765 -0.23796246
v 0.06227727 -0.11672512 0.16778771
v 0.04640956 -0.11152786 0.31154537
v 0.17914918 -0.04295645 0.22127490
v 0.18305714 -0.02237898 0.19732914
v -0.25820819 -0.00153986 -0.32442953
v 0.19350863 -0.04535592 0.14276109
v 0.05540886 0.15938829 -0.24900045
v 0.17521274 -0.11659864 0.02070279
v 0.08141095 -0.11358320 -0.28732894
v 0.05560126 -0.11616041 -0.28202487
v -0.09207470 -0.11552659 -0.01547723
v -0.29290093 0.04290207 -0.23225005
v 0.04926795 0.03307590 0.11819466
v 0.06944732 0.21812437 -0.13929964
v -0.05384866 0.21718835 -0.10387252
v -0.02636191 0.21705021 -0.09885944
v -0.06216271 -0.11564648 -0.06121010
v 0.03329570 -0.11433666 0.27236891
v 0.22871431 0.11247616 -0.28113584
v 0.28594576 0.01806875 -0.18827391
v 0.04187688 -0.11893845 0.21710150
v -0.04177230 0.21403842 -0.07596258
v 0.16858828 -0.00173762 0.19993183
v 0.13638766 -0.11357763 0.15508743
v -0.18962543 -0.03222328 0.16207642
v -0.18753975 0.20181518 -0.19021385
v 0.11603751 0.14822519 0.07207113
v 0.15874988 -0.11595359 -0.19588575
v 0.08769206 -0.11349935 0.04385286
v 0.22004631 0.11451155 0.03485747
v 0.17422389 0.05031263 -0.31194390
v 0.17150498 0.01957339 -0.32095491
v 0.18597981 -0.06114544 0.19521077
v -0.25436926 -0.00625023 -0.06335506
v -0.20665411 0.07731786 0.09161209
v -0.16548585 0.16212266 0.04091434
v -0.06159144 -0.11561618 -0.05900035
v 0.18486627 -0.11922351 -0.03768090
v -0.13959296 0.09641383 0.13792022
v 0.06548181 0.21598435 -0.08084243
v -0.18409000 -0.06239501 0.19792920
v 0.21392862 0.07006750 0.06012746
v 0.26264176 0.00611487 -0.09668674
v 0.26989879 -0.03917304 -0.13525702
v 0.18294929 -0.00647384 0.17988496
v 0.07824606 0.21662449 -0.08440006
v 0.29987078 0.03101968 -0.24527380
v 0.19825895 0.21257820 -0.16998772
v 0.20551641 0.21713393 -0.13612616
v 0.05618721 -0.11441787 0.02183313
v -0.13868297 0.13501328 0.08592592
v -0.14664498 0.12400254 0.10073126
v 0.06453394 0.01552808 0.24300296
v -0.06484933 -0.11512540 -0.22611922
v -0.06093274 -0.03646096 -0.32377154
v -0.06542880 0.15304114 0.06108326
v -0.12177424 -0.11621710 -0.04664813
v -0.23798564 0.04041377 -0.00125935
v 0.03855003 -0.11600185 -0.15886043
v 0.20059958 -0.07314123 0.08100920
v 0.19782663 -0.11586518 -0.23216322
v -0.12270697 0.13229089 -0.27456106
v -0.30029961 -0.05559309 -0.25597526
v -0.18910848 -0.05771116 0.18001536
v -0.19069888 -0.06929145 0.17321750
v 0.12552004 0.01108729 0.25082603
v 0.18651479 0.01026886 0.16786933
v -0.18686926 -0.07694883 0.18892787
v 0.07811123 0.21802309 -0.11983972
v 0.24047068 0.14781130 -0.03427495
v 0.23164082 0.13756409 -0.00645374
v 0.19673064 0.03441440 -0.31477339
v 0.28002953 -0.00482227 -0.16825924
v 0.06467405 0.08012960 -0.29793037
v 0.09920887 -0.01043751 0.27670778
v 0.06366209 0.01381456 0.24503023
v 0.09540281 0.01310626 0.24786924
v 0.11067387 0.03065540 0.22666752
v 0.17839830 -0.11628734 0.04666330
v 0.15597217 -0.11619790 0.04223842
v -0.07735468 -0.11464062 0.07458721
v -0.14421856 0.09722471 0.13340592
v 0.10768844 -0.11361460 0.20455008
v -0.06170838 0.17187777 0.02940659
v -0.08314991 0.16869530 0.03586669
v 0.08393869 -0.06068613 0.33063900
v 0.04433109 -0.11578369 -0.18803628
v -0.23081570 -0.04029490 0.02000985
v -0.05160749 -0.11410358 0.05844168
v -0.05168344 -0.11431527 0.07568777
v 0.14215278 0.19055668 -0.22148526
v 0.23772456 -0.11843562 -0.18584569
v -0.08257956 0.14951360 0.06656062
v -0.05971260 -0.11542996 -0.01340615
v 0.18642828 0.19214443 -0.01971116
v -0.11673994 0.14146646 0.07658480
v -0.06093477 -0.11567108 -0.06135940
v 0.13293476 -0.11640976 -0.11501023
v 0.06310430 -0.11690943 0.17363449
v -0.21701720 -0.00796875 0.06772856
v 0.12493990 0.16200837 -0.25304407
v -0.15110388 -0.11839546 -0.28686166
v 0.06498386 -0.11684943 0.17057421
v -0.26669837 -0.05049538 -0.12910843
v -0.18959025 0.02684793 0.14143973
v 0.14028661 0.05267822 -0.31128212
v -0.05882056 -0.11956920 0.25692467
v -0.29395151 0.04707484 -0.23832304
v -0.04117041 -0.05807341 0.32566140
v -0.23736420 0.02651509 -0.31732240
v -0.04641855 -0.11632294 -0.10798562
v -0.29988495 -0.01385580 -0.26179297
v -0.24824032 -0.11201327 -0.28015906
v 0.04030049 -0.11431372 0.00161068
v -0.30160288 -0.06622040 -0.27550904
v 0.15060122 -0.08089840 0.26931530
v -0.06022687 -0.03517396 -0.32375400
v 0.07111625 -0.11569106 0.30685957
v -0.29355737 0.00021427 -0.27259372
v -0.30025363 -0.01644496 -0.26744976
v 0.28810042 0.02979017 -0.19249269
v 0.21578297 0.10099268 0.05314824
v 0.15514771 0.10117533 0.11790115
v 0.22190838 0.11417053 -0.28082899
f 1 3 2
f 4 5 6
f 11 12 13
f 14 15 16
f 15 17 16
f 18 19 20
f 21 22 23
f 10 24 25
f 19 30 6
f 31 32 33
f 34 35 36
f 35 37 36
f 39 40 38
f 41 42 43
f 45 46 47
f 25 48 49
f 51 52 50
f 54 55 56
f 21 57 58
f 30 61 62
f 61 63 62
f 64 65 48
f 42 55 66
f 67 69 68
f 71 32 31
f 4 72 73
f 76 77 78
f 79 80 70
f 81 82 83
f 82 84 83
f 85 17 86
f 87 88 89
f 90 3 91
f 92 93 23
f 94 95 96
f 97 98 94
f 99 100 101
f 71 102 32
f 103 105 104
f 13 106 107
f 108 109 110
f 111 112 113
f 34 116 117
f 116 113 117
f 118 119 120
f 77 121 78
f 125 126 127
f 128 129 88
f 80 130 1
f 131 132 133
f 136 137 138
f 139 140 141
f 97 142 98
f 142 139 98
f 143 144 70
f 145 146 147
f 146 35 147
f 148 149 150
f 151 152 153
f 154 155 127
f 156 157 158
f 159 160 161
f 162 163 164
f 165 166 92
f 164 163 167
f 163 168 167
f 170 4 6
f 171 65 53
f 132 59 60
f 172 173 174
f 175 41 33
f 41 31 33
f 115 176 114
f 177 83 178
f 179 180 181
f 182 29 183
f 184 185 186
f 187 188 189
f 191 192 193
f 81 195 196
f 197 198 199
f 200 201 202
f 33 203 175
f 204 205 206
f 111 116 207
f 208 209 210
f 211 212 213
f 215 216 217
f 216 218 217
f 219 220 221
f 220 222 221
f 225 226 227
f 226 228 227
f 229 230 231
f 144 232 70
f 233 234 235
f 134 236 75
f 237 238 239
f 240 241 129
f 241 242 129
f 243 133 132
f 45 244 245
f 246 247 248
f 243 132 60
f 249 250 251
f 250 252 251
f 253 2 3
f 255 257 256
f 258 37 259
f 260 261 262
f 263 264 265
f 269 164 167
f 270 271 220
f 272 36 273
f 274 275 276
f 277 239 89
f 278 279 280
f 128 240 129
f 1 2 80
f 153 281 259
f 107 106 8
f 135 283 284
f 220 285 286
f 288 289 290
f 291 292 293
f 294 3 90
f 297 298 166
f 126 154 127
f 301 302 303
f 304 305 306
f 181 307 308
f 106 13 12
f 309 105 137
f 69 310 311
f 312 313 221
f 314 315 316
f 318 212 319
f 212 320 319
f 121 77 268
f 321 76 78
f 323 324 325
f 326 327 28
f 328 329 330
f 333 102 334
f 102 71 334
f 234 233 335
f 336 337 338
f 83 84 339
f 7 12 11
f 322 341 340
f 240 342 241
f 344 78 300
f 92 345 165
f 248 346 347
f 346 348 347
f 349 350 351
f 177 195 83
f 253 3 294
f 170 6 30
f 333 192 26
f 354 355 356
f 355 357 356
f 286 360 222
f 100 361 362
f 363 364 365
f 367 368 103
f 369 68 370
f 123 373 124
f 232 374 375
f 54 376 214
f 75 377 74
f 161 216 378
f 31 41 43
f 379 380 316
f 380 381 316
f 165 382 166
f 62 383 72
f 383 384 72
f 380 85 385
f 386 387 388
f 49 389 371
f 223 390 224
f 272 273 223
f 116 34 392
f 393 272 224
f 333 26 394
f 41 175 56
f 277 237 239
f 398 399 179
f 399 400 179
f 401 364 402
f 403 201 200
f 405 290 289
f 406 93 166
f 407 408 409
f 99 101 410
f 101 411 410
f 412 283 413
f 283 414 413
f 298 415 166
f 417 178 179
f 178 418 179
f 369 370 419
f 370 405 419
f 71 31 334
f 31 43 334
f 54 214 66
f 322 422 423
f 110 109 211
f 355 424 357
f 424 425 357
f 426 206 413
f 206 205 413
f 86 385 85
f 363 427 364
f 427 428 364
f 429 430 431
f 432 40 39
f 205 204 433
f 170 72 4
f 434 435 436
f 354 437 438
f 73 439 4
f 163 288 440
f 441 442 443
f 442 444 443
f 77 445 446
f 447 344 121
f 77 446 268
f 150 448 449
f 448 197 449
f 119 451 450
f 214 452 321
f 35 34 117
f 125 127 454
f 455 418 178
f 65 456 283
f 457 385 86
f 458 459 460
f 278 464 463
f 359 465 466
f 467 13 107
f 42 66 193
f 331 316 169
f 453 468 143
f 421 243 297
f 59 132 190
f 60 415 243
f 297 243 469
f 343 25 131
f 243 415 469
f 469 298 297
f 190 25 371
f 132 25 190
f 469 415 298
f 10 9 24
f 10 25 343
f 9 53 24
f 25 24 48
f 371 25 49
f 64 24 53
f 24 64 48
f 470 471 472
f 403 473 201
f 445 77 474
f 7 8 12
f 243 11 133
f 7 11 421
f 421 11 243
f 161 218 216
f 475 476 157
f 476 477 157
f 135 478 65
f 23 93 406
f 302 301 479
f 301 459 479
f 354 480 355
f 85 482 481
f 205 433 412
f 433 284 412
f 483 135 284
f 205 412 413
f 484 485 388
f 485 386 388
f 486 487 136
f 192 191 488
f 309 137 487
f 380 385 489
f 490 491 134
f 301 303 492
f 494 453 188
f 333 394 102
f 496 295 497
f 20 19 6
f 220 286 222
f 498 405 499
f 405 370 499
f 500 501 502
f 99 410 100
f 410 503 100
f 504 505 506
f 507 86 38
f 255 508 308
f 66 55 54
f 509 510 304
f 511 512 115
f 325 513 514
f 515 516 262
f 42 41 55
f 41 56 55
f 288 163 289
f 163 162 289
f 399 449 197
f 61 30 19
f 228 237 227
f 517 38 86
f 63 518 519
f 518 520 519
f 68 499 370
f 224 522 393
f 523 139 524
f 140 524 44
f 525 526 254
f 494 468 453
f 285 515 527
f 175 203 528
f 529 530 493
f 531 532 533
f 431 534 322
f 234 426 413
f 93 92 166
f 395 535 269
f 536 537 538
f 537 539 538
f 540 279 278
f 54 541 376
f 509 513 542
f 406 166 415
f 229 245 230
f 143 543 544
f 129 227 88
f 227 89 88
f 260 516 271
f 253 294 2
f 545 546 323
f 217 186 215
f 269 167 547
f 145 435 146
f 176 548 28
f 515 285 271
f 285 220 271
f 192 488 549
f 434 550 442
f 354 438 480
f 406 415 60
f 551 342 135
f 552 553 554
f 555 487 486
f 556 347 348
f 557 474 287
f 282 369 522
f 232 144 374
f 514 558 486
f 288 290 559
f 434 442 441
f 560 287 561
f 562 563 156
f 564 565 198
f 193 43 42
f 332 19 18
f 332 61 19
f 467 9 10
f 484 566 567
f 57 568 134
f 255 256 569
f 389 570 371
f 63 571 62
f 171 283 456
f 63 519 571
f 573 574 575
f 576 577 578
f 577 579 578
f 207 580 111
f 89 227 237
f 581 582 367
f 371 570 583
f 584 585 586
f 203 140 44
f 587 504 506
f 588 464 589
f 464 590 589
f 413 235 234
f 591 592 255
f 420 593 28
f 285 360 286
f 115 512 176
f 595 375 374
f 260 262 516
f 596 597 598
f 351 599 600
f 602 152 151
f 603 511 67
f 604 605 186
f 605 184 186
f 606 23 236
f 23 607 236
f 282 608 369
f 7 373 8
f 547 167 609
f 136 487 137
f 610 611 612
f 440 168 163
f 226 559 228
f 559 238 228
f 440 288 226
f 288 559 226
f 237 228 238
f 440 613 462
f 238 498 239
f 498 499 239
f 56 175 541
f 175 528 541
f 54 56 541
f 249 614 615
f 334 193 192
f 184 616 185
f 616 617 185
f 28 618 420
f 609 168 404
f 525 471 526
f 249 615 250
f 259 37 153
f 619 620 621
f 532 303 302
f 177 178 195
f 402 573 401
f 573 622 401
f 25 132 131
f 440 462 461
f 404 168 461
f 440 461 168
f 465 623 615
f 23 624 92
f 21 58 22
f 20 625 626
f 272 34 36
f 304 627 305
f 509 542 510
f 542 628 510
f 171 456 65
f 629 630 128
f 428 427 631
f 523 524 140
f 632 633 634
f 633 635 634
f 590 464 278
f 303 636 637
f 296 563 562
f 68 282 67
f 638 256 257
f 239 499 69
f 297 382 639
f 70 363 143
f 70 640 363
f 638 641 256
f 641 635 256
f 461 642 404
f 396 643 644
f 90 645 594
f 515 271 516
f 622 188 453
f 572 528 44
f 595 438 375
f 438 646 375
f 647 648 466
f 604 186 217
f 23 406 607
f 467 107 9
f 265 410 649
f 650 91 366
f 467 10 343
f 651 652 477
f 548 176 653
f 654 655 656
f 655 657 656
f 290 405 498
f 658 282 522
f 145 659 660
f 659 628 660
f 263 503 264
f 170 62 72
f 170 30 62
f 183 661 662
f 328 330 387
f 330 663 387
f 664 112 665
f 666 600 74
f 26 667 394
f 490 134 75
f 668 631 156
f 631 475 156
f 670 671 672
f 671 673 672
f 674 675 27
f 597 603 676
f 484 567 677
f 567 678 677
f 214 376 452
f 321 452 76
f 460 459 492
f 459 301 492
f 634 641 679
f 680 637 636
f 100 408 361
f 408 307 361
f 225 227 242
f 489 681 380
f 16 17 85
f 287 445 396
f 446 397 396
f 437 682 438
f 682 646 438
f 378 216 683
f 258 684 685
f 269 547 395
f 266 686 151
f 263 265 687
f 265 688 687
f 518 63 61
f 689 574 402
f 374 144 544
f 365 143 363
f 555 690 691
f 458 460 692
f 460 505 692
f 68 69 499
f 561 693 648
f 392 272 116
f 128 630 240
f 630 342 240
f 308 257 255
f 483 551 135
f 109 202 211
f 694 664 665
f 695 538 539
f 410 265 264
f 638 257 407
f 476 475 631
f 272 392 34
f 272 223 224
f 326 28 697
f 2 294 698
f 294 652 698
f 479 618 302
f 283 135 65
f 283 171 699
f 675 621 394
f 621 620 394
f 569 256 633
f 39 569 633
f 309 487 555
f 475 157 156
f 625 5 16
f 688 700 553
f 700 701 553
f 519 520 702
f 169 702 520
f 518 61 332
f 518 332 331
f 660 703 436
f 434 436 703
f 304 510 627
f 465 615 704
f 16 5 14
f 689 705 574
f 706 155 154
f 472 707 708
f 98 139 709
f 372 495 710
f 711 215 712
f 215 186 712
f 598 425 713
f 541 500 376
f 500 714 376
f 493 715 123
f 8 373 715
f 715 373 123
f 57 716 321
f 36 37 258
f 15 717 718
f 606 236 21
f 236 568 21
f 285 719 360
f 720 486 721
f 489 381 681
f 518 331 169
f 169 520 518
f 333 334 192
f 530 715 493
f 323 546 703
f 542 325 628
f 325 324 628
f 238 559 498
f 722 559 290
f 709 139 141
f 723 565 261
f 565 262 261
f 558 724 486
f 197 448 198
f 312 159 313
f 222 360 725
f 360 612 725
f 221 222 725
f 611 725 612
f 8 530 107
f 726 727 728
f 689 402 631
f 402 428 631
f 6 625 20
f 6 5 625
f 458 692 729
f 692 730 729
f 730 349 729
f 635 633 256
f 674 575 732
f 289 580 419
f 580 733 419
f 107 530 734
f 100 409 408
f 410 264 503
f 735 588 589
f 341 736 340
f 223 273 258
f 176 28 114
f 703 324 323
f 680 737 637
f 737 738 637
f 739 70 80
f 740 356 357
f 597 676 357
f 676 740 357
f 139 142 524
f 687 553 641
f 553 679 641
f 492 505 460
f 629 656 657
f 176 537 653
f 596 741 597
f 691 742 555
f 273 36 258
f 564 262 565
f 533 653 531
f 449 148 150
f 743 377 60
f 8 715 530
f 744 745 746
f 747 745 744
f 295 748 296
f 749 202 109
f 660 628 703
f 628 324 703
f 434 703 550
f 703 546 550
f 265 649 295
f 750 751 752
f 739 640 70
f 747 744 556
f 744 347 556
f 486 690 555
f 753 59 190
f 600 666 753
f 753 666 59
f 754 395 547
f 694 755 756
f 704 614 254
f 178 710 455
f 364 428 402
f 634 635 641
f 22 557 23
f 557 624 23
f 757 583 389
f 583 570 389
f 156 563 668
f 206 711 204
f 711 758 204
f 484 677 485
f 414 235 413
f 313 219 221
f 331 481 379
f 759 760 761
f 760 762 761
f 484 388 566
f 763 762 760
f 227 129 242
f 687 688 553
f 700 296 562
f 196 400 399
f 480 424 355
f 629 657 630
f 630 657 342
f 657 764 342
f 337 336 378
f 297 639 421
f 165 639 382
f 166 382 297
f 761 612 719
f 612 360 719
f 188 622 674
f 377 743 666
f 666 60 59
f 60 666 743
f 601 67 511
f 67 676 603
f 511 115 601
f 603 741 511
f 741 512 511
f 495 765 710
f 619 766 620
f 458 729 51
f 729 52 51
f 336 313 161
f 317 683 335
f 704 615 614
f 203 767 528
f 116 272 733
f 272 393 733
f 207 116 733
f 580 207 733
f 145 147 659
f 740 676 768
f 573 402 574
f 714 500 502
f 466 648 358
f 596 695 539
f 769 770 592
f 596 598 695
f 598 713 695
f 425 424 713
f 771 772 773
f 79 232 130
f 597 357 598
f 357 425 598
f 588 735 774
f 550 775 442
f 775 776 442
f 777 47 775
f 545 323 325
f 778 779 632
f 457 432 779
f 433 204 280
f 454 780 429
f 747 556 745
f 556 781 745
f 50 119 51
f 114 327 115
f 629 128 782
f 39 38 569
f 454 429 416
f 759 761 719
f 698 652 783
f 16 784 625
f 85 784 16
f 625 784 626
f 626 784 85
f 549 504 785
f 504 587 785
f 786 330 642
f 349 730 350
f 549 26 192
f 644 643 391
f 211 213 787
f 284 433 483
f 309 555 104
f 594 645 788
f 588 462 463
f 611 340 725
f 340 736 725
f 728 174 789
f 174 790 789
f 534 422 322
f 375 791 232
f 791 130 232
f 653 537 536
f 588 774 462
f 629 782 656
f 737 680 792
f 74 599 793
f 646 682 791
f 605 422 794
f 422 795 794
f 151 751 796
f 224 768 282
f 160 217 218
f 797 798 799
f 800 422 534
f 541 801 500
f 201 473 202
f 706 154 73
f 199 196 197
f 196 399 197
f 685 684 281
f 38 803 802
f 804 805 350
f 58 57 447
f 660 436 145
f 435 145 436
f 536 806 653
f 806 531 653
f 807 157 477
f 254 809 808
f 515 262 527
f 262 448 527
f 27 810 189
f 391 643 358
f 476 651 477
f 719 578 759
f 285 811 719
f 811 578 719
f 12 8 106
f 734 812 107
f 702 742 584
f 742 585 584
f 813 780 454
f 246 210 247
f 567 780 678
f 741 603 597
f 722 498 559
f 562 156 158
f 737 814 815
f 432 39 779
f 816 180 495
f 345 817 818
f 819 118 618
f 118 820 618
f 775 47 46
f 783 821 698
f 783 476 821
f 416 340 822
f 783 652 651
f 476 631 427
f 640 698 363
f 698 821 363
f 363 821 427
f 821 476 427
f 260 823 261
f 263 824 503
f 824 409 503
f 100 362 101
f 489 457 778
f 457 779 778
f 278 463 540
f 406 825 607
f 826 827 544
f 410 828 649
f 447 57 344
f 169 315 367
f 683 711 206
f 358 643 465
f 421 829 7
f 830 831 514
f 717 14 439
f 14 5 439
f 64 53 65
f 347 744 485
f 356 740 832
f 740 768 832
f 833 834 162
f 834 580 162
f 835 44 524
f 417 196 195
f 474 836 445
f 153 752 751
f 837 838 353
f 441 443 839
f 587 810 785
f 146 435 752
f 435 750 752
f 417 179 196
f 179 400 196
f 21 568 57
f 365 453 143
f 595 424 438
f 480 438 424
f 549 785 26
f 247 346 248
f 199 198 565
f 643 623 465
f 773 840 710
f 329 642 330
f 347 485 248
f 309 104 105
f 463 464 588
f 656 782 326
f 782 327 326
f 652 671 670
f 274 585 275
f 786 617 330
f 616 330 617
f 512 741 537
f 829 373 7
f 328 841 329
f 609 329 841
f 305 781 556
f 782 128 327
f 128 88 327
f 28 327 114
f 87 327 88
f 720 721 690
f 361 307 842
f 255 770 508
f 737 792 814
f 187 494 188
f 453 365 364
f 453 364 401
f 453 401 622
f 354 685 437
f 685 281 437
f 326 697 656
f 726 319 843
f 319 844 843
f 701 554 553
f 103 104 581
f 367 582 169
f 621 732 619
f 732 845 619
f 495 293 816
f 606 21 23
f 378 683 317
f 206 426 683
f 74 793 75
f 318 728 554
f 728 789 554
f 552 679 553
f 554 789 552
f 437 281 846
f 68 369 608
f 13 467 847
f 236 377 75
f 799 798 508
f 161 378 336
f 219 338 220
f 786 735 617
f 735 848 617
f 417 195 178
f 849 850 226
f 850 613 226
f 705 748 574
f 748 851 574
f 409 100 503
f 780 813 678
f 252 852 122
f 354 356 685
f 155 853 127
f 38 517 803
f 717 854 718
f 122 855 252
f 551 856 241
f 306 724 304
f 564 198 448
f 656 697 654
f 340 416 322
f 241 342 551
f 857 124 353
f 312 221 341
f 221 736 341
f 209 208 155
f 208 853 155
f 473 105 103
f 403 105 473
f 802 591 569
f 526 858 372
f 235 661 29
f 391 648 693
f 804 488 805
f 859 599 488
f 599 805 488
f 414 283 699
f 9 699 53
f 275 691 690
f 690 276 275
f 396 561 287
f 419 733 860
f 693 561 396
f 638 407 824
f 407 409 824
f 550 546 775
f 861 699 812
f 172 862 173
f 101 362 863
f 362 95 863
f 182 723 864
f 644 445 396
f 53 699 171
f 345 92 817
f 756 664 694
f 244 200 245
f 586 865 866
f 508 770 799
f 17 15 517
f 838 867 772
f 867 840 772
f 44 835 708
f 765 455 710
f 826 814 827
f 814 868 827
f 458 51 459
f 51 869 459
f 697 870 654
f 517 802 803
f 266 839 267
f 839 443 267
f 560 92 287
f 797 181 798
f 848 185 617
f 246 677 678
f 496 497 871
f 605 794 184
f 277 89 237
f 736 221 725
f 407 257 408
f 257 872 408
f 872 257 308
f 260 271 823
f 152 682 846
f 583 873 190
f 610 126 125
f 616 184 794
f 278 280 874
f 875 66 214
f 44 767 203
f 134 568 236
f 181 797 179
f 449 799 148
f 799 770 148
f 837 809 867
f 567 566 780
f 566 430 780
f 800 534 566
f 534 430 566
f 68 608 282
f 210 246 208
f 246 678 208
f 377 236 825
f 236 607 825
f 572 855 122
f 79 130 80
f 183 29 661
f 565 876 199
f 876 81 199
f 81 196 199
f 731 366 669
f 82 81 876
f 486 136 514
f 576 877 577
f 877 878 577
f 772 879 838
f 801 528 572
f 705 563 748
f 669 366 194
f 689 631 668
f 689 668 705
f 668 563 705
f 560 817 92
f 560 561 817
f 352 837 353
f 780 430 429
f 712 880 758
f 801 541 528
f 572 500 801
f 717 439 881
f 437 846 682
f 508 798 308
f 158 787 213
f 792 868 814
f 792 695 868
f 695 713 868
f 605 882 422
f 605 604 882
f 604 217 882
f 217 883 882
f 217 160 883
f 423 422 882
f 141 884 709
f 882 883 423
f 883 160 159
f 423 883 159
f 819 618 459
f 618 479 459
f 519 584 571
f 584 866 571
f 757 885 583
f 885 886 583
f 777 775 546
f 259 684 258
f 258 685 223
f 421 639 887
f 108 110 888
f 790 552 789
f 878 877 769
f 889 244 830
f 49 48 890
f 609 167 168
f 807 670 672
f 44 528 767
f 574 851 891
f 850 856 463
f 640 739 698
f 675 732 621
f 871 619 845
f 102 394 620
f 339 493 123
f 662 734 183
f 532 892 303
f 777 831 47
f 285 527 811
f 562 893 700
f 225 242 849
f 242 856 849
f 702 582 742
f 169 582 702
f 544 543 826
f 675 674 732
f 351 350 599
f 350 805 599
f 894 180 418
f 176 512 537
f 596 539 741
f 539 537 741
f 278 874 880
f 578 811 877
f 834 111 580
f 812 699 9
f 489 778 895
f 778 862 895
f 410 411 828
f 442 776 645
f 594 788 775
f 164 269 665
f 269 755 665
f 896 112 664
f 896 664 756
f 1 130 897
f 875 898 899
f 186 185 712
f 665 755 694
f 896 117 112
f 117 113 112
f 18 481 332
f 127 853 813
f 900 352 353
f 91 444 645
f 399 799 449
f 116 111 113
f 35 117 147
f 775 788 776
f 788 645 776
f 879 772 901
f 754 305 395
f 894 418 455
f 191 899 859
f 812 662 861
f 662 661 861
f 235 861 661
f 9 107 812
f 734 662 812
f 134 491 716
f 270 220 338
f 616 794 330
f 794 663 330
f 701 700 893
f 834 112 111
f 358 648 391
f 474 122 852
f 158 157 787
f 157 888 787
f 881 439 73
f 454 822 125
f 611 822 340
f 263 687 824
f 902 193 66
f 308 307 872
f 408 872 307
f 81 83 195
f 311 310 115
f 115 327 311
f 337 378 317
f 862 790 174
f 489 895 381
f 174 727 172
f 727 314 172
f 903 880 712
f 579 759 578
f 110 787 888
f 78 57 321
f 91 645 90
f 442 645 444
f 279 540 551
f 618 820 299
f 461 774 642
f 404 642 609
f 696 626 18
f 101 863 884
f 673 231 672
f 337 904 338
f 233 905 335
f 864 261 905
f 261 823 905
f 103 581 367
f 104 582 581
f 383 906 384
f 906 209 384
f 886 450 583
f 450 451 583
f 579 577 907
f 658 522 224
f 564 448 262
f 600 873 50
f 671 294 90
f 295 828 497
f 690 721 276
f 721 908 276
f 590 278 880
f 345 909 165
f 909 910 165
f 119 869 51
f 118 120 299
f 450 299 120
f 911 912 887
f 180 179 418
f 104 555 582
f 555 742 582
f 913 816 914
f 495 291 293
f 674 27 188
f 32 102 915
f 916 119 50
f 916 583 451
f 172 314 895
f 314 381 895
f 917 707 471
f 707 472 471
f 842 307 181
f 787 110 211
f 251 252 855
f 526 809 254
f 87 89 311
f 875 902 66
f 193 899 191
f 595 374 544
f 918 764 919
f 764 657 919
f 450 886 885
f 450 120 119
f 527 448 150
f 561 648 920
f 562 213 921
f 554 701 921
f 701 893 921
f 893 562 921
f 769 877 148
f 877 149 148
f 562 158 213
f 644 693 396
f 810 922 189
f 336 338 313
f 338 219 313
f 863 95 94
f 94 98 863
f 98 709 863
f 856 540 463
f 185 848 712
f 848 903 712
f 923 521 141
f 923 924 915
f 141 924 923
f 924 141 140
f 32 915 33
f 924 203 915
f 203 33 915
f 140 203 924
f 876 565 723
f 613 850 462
f 147 117 896
f 755 627 756
f 627 510 756
f 659 756 628
f 628 756 510
f 387 925 388
f 289 162 580
f 576 578 877
f 589 848 735
f 391 693 644
f 46 231 673
f 822 454 416
f 613 440 226
f 361 842 362
f 842 914 362
f 180 816 913
f 894 455 495
f 713 827 868
f 143 468 543
f 595 544 424
f 544 827 424
f 519 702 584
f 586 866 584
f 159 312 423
f 543 815 826
f 815 814 826
f 424 827 713
f 850 849 856
f 29 233 235
f 865 209 906
f 891 851 845
f 851 871 845
f 845 732 891
f 574 891 575
f 891 732 575
f 102 620 915
f 620 766 915
f 923 915 766
f 521 923 766
f 704 647 465
f 884 141 521
f 506 505 637
f 505 492 637
f 857 353 838
f 308 798 181
f 398 179 799
f 179 797 799
f 122 501 500
f 76 452 714
f 500 572 122
f 165 887 639
f 569 591 255
f 507 432 926
f 466 465 647
f 134 716 57
f 270 338 271
f 271 338 823
f 338 904 823
f 905 823 904
f 904 317 335
f 904 335 905
f 294 671 652
f 927 890 919
f 928 871 497
f 871 928 619
f 521 928 497
f 521 619 928
f 618 533 302
f 533 532 302
f 335 929 234
f 426 234 683
f 234 929 683
f 683 929 335
f 720 690 486
f 593 697 28
f 299 593 420
f 930 655 654
f 930 654 885
f 299 870 593
f 697 593 870
f 885 654 450
f 654 870 450
f 450 870 299
f 414 699 235
f 699 861 235
f 124 373 829
f 306 486 724
f 509 304 558
f 304 724 558
f 212 921 213
f 554 921 212
f 318 554 212
f 295 649 828
f 46 229 231
f 859 488 191
f 739 80 2
f 127 813 454
f 571 866 906
f 866 865 906
f 594 775 46
f 501 122 474
f 931 851 748
f 299 820 118
f 72 384 706
f 666 74 377
f 490 214 491
f 927 49 890
f 490 875 214
f 295 296 265
f 857 879 124
f 545 325 546
f 486 306 721
f 847 343 131
f 847 11 13
f 249 917 614
f 917 525 614
f 862 174 173
f 306 908 721
f 230 109 231
f 109 108 231
f 303 892 636
f 542 513 325
f 769 148 770
f 398 799 399
f 521 766 619
f 318 319 728
f 638 932 641
f 352 900 909
f 856 551 540
f 15 14 717
f 439 5 4
f 126 881 154
f 154 881 73
f 738 922 506
f 419 860 369
f 393 860 733
f 522 860 393
f 369 860 522
f 707 933 708
f 592 770 255
f 730 692 934
f 935 387 485
f 387 386 485
f 164 665 833
f 833 665 834
f 665 112 834
f 162 164 833
f 936 671 90
f 919 657 927
f 657 655 927
f 62 571 383
f 527 150 811
f 150 149 811
f 877 811 149
f 341 423 312
f 918 135 342
f 650 444 91
f 937 472 708
f 494 815 468
f 938 144 143
f 544 938 143
f 341 322 423
f 712 758 711
f 708 835 937
f 894 495 180
f 74 600 599
f 939 349 351
f 190 873 753
f 492 303 637
f 738 506 637
f 840 526 372
f 895 862 172
f 844 320 202
f 700 265 296
f 857 838 879
f 587 506 810
f 506 922 810
f 691 275 585
f 115 310 601
f 87 311 327
f 754 547 609
f 754 841 745
f 754 781 305
f 874 280 880
f 204 758 280
f 758 880 280
f 892 806 538
f 210 865 346
f 865 940 346
f 865 586 940
f 193 902 899
f 490 793 875
f 875 793 898
f 793 599 898
f 898 599 899
f 599 859 899
f 89 239 311
f 239 69 311
f 310 69 67
f 310 67 601
f 757 389 885
f 612 761 762
f 279 551 483
f 433 280 483
f 280 279 483
f 830 514 889
f 471 858 526
f 837 867 838
f 890 48 65
f 478 918 919
f 919 890 478
f 930 927 655
f 478 890 65
f 927 389 49
f 135 918 478
f 342 764 918
f 930 885 389
f 930 389 927
f 73 72 706
f 878 802 577
f 753 873 600
f 773 710 771
f 844 473 103
f 316 315 169
f 376 714 452
f 77 76 941
f 76 714 941
f 941 474 77
f 941 501 474
f 783 651 476
f 282 768 67
f 67 768 676
f 356 832 685
f 223 685 832
f 768 390 832
f 832 390 223
f 804 350 934
f 350 730 934
f 377 825 60
f 626 481 18
f 332 481 331
f 470 97 292
f 800 388 422
f 388 795 422
f 800 566 388
f 663 925 387
f 794 925 663
f 795 925 794
f 388 925 795
f 328 746 841
f 746 745 841
f 315 314 727
f 152 846 942
f 281 942 846
f 942 281 153
f 153 152 942
f 939 351 600
f 557 943 474
f 683 216 711
f 711 216 215
f 818 817 920
f 817 561 920
f 345 818 909
f 313 159 161
f 174 728 727
f 420 618 299
f 229 46 245
f 182 183 723
f 864 723 261
f 182 864 29
f 901 123 124
f 137 105 403
f 517 577 802
f 769 592 591
f 38 802 569
f 878 769 802
f 769 591 802
f 225 849 226
f 709 884 863
f 754 745 781
f 844 103 843
f 319 320 844
f 632 779 633
f 779 39 633
f 884 411 101
f 638 824 932
f 556 908 305
f 305 908 306
f 79 70 232
f 525 254 614
f 371 583 190
f 52 729 349
f 320 211 202
f 405 289 419
f 344 300 121
f 536 538 806
f 514 513 558
f 835 524 142
f 441 839 944
f 839 796 944
f 796 751 750
f 692 505 934
f 504 934 505
f 274 276 346
f 276 348 346
f 276 908 348
f 210 209 865
f 875 899 902
f 532 531 892
f 531 806 892
f 465 359 358
f 804 934 549
f 934 504 549
f 945 563 296
f 2 698 739
f 247 210 346
f 819 459 118
f 731 669 194
f 590 880 589
f 880 903 589
f 589 903 848
f 269 535 755
f 585 742 691
f 796 839 266
f 796 266 151
f 944 796 750
f 642 329 609
f 397 446 445
f 137 403 138
f 700 688 265
f 58 447 943
f 586 585 940
f 274 346 585
f 346 940 585
f 556 348 908
f 644 396 397
f 931 871 851
f 871 931 496
f 295 496 931
f 931 748 295
f 189 188 27
f 533 618 653
f 618 548 653
f 28 548 618
f 17 517 86
f 901 124 879
f 946 791 602
f 791 682 602
f 380 681 381
f 650 443 444
f 947 366 91
f 947 194 366
f 411 884 828
f 884 948 828
f 828 948 497
f 521 948 884
f 497 948 521
f 40 507 38
f 432 507 40
f 457 489 385
f 523 140 139
f 153 751 151
f 752 153 37
f 752 37 35
f 752 35 146
f 434 944 435
f 944 750 435
f 434 441 944
f 466 358 359
f 947 1 194
f 947 91 3
f 947 3 1
f 949 1 897
f 949 194 1
f 949 731 194
f 650 366 731
f 949 267 731
f 650 731 267
f 650 267 443
f 837 808 809
f 808 837 352
f 704 950 647
f 352 950 808
f 647 950 352
f 808 950 254
f 254 950 704
f 337 317 904
f 816 293 96
f 658 224 282
f 321 716 214
f 716 491 214
f 538 792 892
f 792 680 892
f 680 636 892
f 695 792 538
f 144 938 544
f 815 543 468
f 250 852 252
f 121 300 78
f 121 268 447
f 943 447 268
f 446 943 268
f 287 474 445
f 474 943 445
f 445 943 446
f 446 396 445
f 92 557 287
f 92 624 557
f 462 774 461
f 786 642 735
f 642 774 735
f 246 248 677
f 248 485 677
f 493 339 84
f 372 291 495
f 804 549 488
f 334 43 193
f 726 728 319
f 844 202 473
f 320 212 211
f 251 855 707
f 855 933 707
f 97 470 937
f 470 472 937
f 97 937 142
f 937 835 142
f 933 855 572
f 933 572 44
f 708 933 44
f 831 830 244
f 230 245 200
f 244 889 200
f 749 109 230
f 749 230 202
f 432 457 926
f 602 682 152
f 920 648 647
f 818 920 647
f 352 818 647
f 352 909 818
f 123 901 339
f 772 840 773
f 82 183 529
f 529 84 82
f 130 946 897
f 267 686 266
f 130 791 946
f 946 602 686
f 659 147 756
f 147 896 756
f 507 926 86
f 86 926 457
f 380 482 85
f 380 481 482
f 85 481 626
f 573 575 622
f 575 674 622
f 864 905 233
f 29 864 233
f 328 387 746
f 200 889 403
f 403 889 138
f 777 546 831
f 831 546 514
f 546 325 514
f 889 951 138
f 138 951 136
f 136 951 514
f 514 951 889
f 160 218 161
f 368 843 103
f 726 843 368
f 367 315 368
f 726 368 727
f 368 315 727
f 696 18 20
f 305 535 395
f 627 755 535
f 305 627 535
f 936 90 594
f 46 936 594
f 673 671 936
f 673 936 46
f 610 125 611
f 125 822 611
f 534 431 430
f 322 416 431
f 429 431 416
f 379 316 331
f 209 155 384
f 634 679 862
f 679 790 862
f 155 706 384
f 513 509 558
f 22 58 557
f 58 943 557
f 911 887 909
f 887 910 909
f 945 748 563
f 945 296 748
f 771 339 772
f 339 901 772
f 840 867 526
f 526 867 809
f 339 771 83
f 83 771 178
f 771 710 178
f 397 445 644
f 552 790 679
f 778 632 862
f 632 634 862
f 501 941 502
f 941 714 502
f 738 187 922
f 187 189 922
f 738 737 187
f 187 737 494
f 737 815 494
f 26 785 810
f 810 27 26
f 667 26 27
f 27 675 667
f 675 394 667
f 343 847 467
f 847 131 133
f 847 133 11
f 421 912 829
f 887 912 421
f 829 912 124
f 165 910 887
f 900 353 912
f 124 912 353
f 445 836 396
f 396 836 643
f 474 852 836
f 643 836 952
f 952 615 643
f 615 623 643
f 836 852 952
f 852 250 952
f 615 952 250
f 571 906 383
f 151 953 602
f 602 953 686
f 686 953 151
f 949 954 267
f 267 954 686
f 897 946 949
f 946 954 949
f 686 954 946
f 45 47 244
f 47 831 244
f 230 200 202
f 20 626 696
f 78 344 57
f 375 646 791
f 381 314 316
f 380 379 481
f 281 684 259
f 52 939 600
f 916 451 119
f 459 869 118
f 119 118 869
f 50 52 600
f 349 939 52
f 916 50 873
f 916 873 583
f 463 462 850
f 242 241 856
f 722 290 498
f 97 94 292
f 94 96 292
f 96 293 292
f 372 858 291
f 470 292 858
f 292 291 858
f 854 717 955
f 717 881 955
f 610 612 762
f 763 760 854
f 15 718 854
f 126 955 881
f 955 763 854
f 907 517 854
f 517 15 854
f 517 907 577
f 579 907 759
f 907 760 759
f 854 760 907
f 610 762 126
f 762 955 126
f 762 763 955
f 84 529 493
f 82 956 183
f 768 224 390
f 249 251 917
f 917 471 525
f 471 470 858
f 251 707 917
f 876 723 82
f 723 956 82
f 956 723 183
f 957 734 530
f 957 530 529
f 957 183 734
f 957 529 183
f 208 958 853
f 853 958 813
f 678 813 958
f 208 678 958
f 652 670 477
f 670 807 477
f 935 485 746
f 485 744 746
f 754 609 841
f 412 284 283
f 793 490 75
f 455 765 495
f 95 914 96
f 914 816 96
f 362 914 95
f 181 913 842
f 913 181 180
f 842 913 914
f 108 888 672
f 888 807 672
f 807 888 157
f 108 672 231
f 687 932 824
f 687 641 932
f 911 909 912
f 909 900 912
f 935 746 387
f 710 840 372
f 406 60 825
f 45 245 46

