# https://github.com/mikedh/trimesh
v -0.10796100 -0.36853300 -0.01240100
v -0.09930054 -0.39861331 0.01323662
v -0.09130471 -0.40141546 -0.01431295
v 0.00000000 -0.19667600 0.05899500
v 0.02304200 -0.20078200 0.03672800
v -0.05211000 0.44931900 0.05492400
v -0.07144500 0.42831900 0.11573200
v -0.04256300 0.44208200 0.11823100
v -0.07062450 0.24511600 -0.05993550
v -0.06416550 0.27255550 -0.09557950
v 0.12743400 0.30837900 0.09394600
v 0.13120300 0.33509600 0.06171200
v 0.12887000 0.32977100 0.09783300
v 0.00001600 0.25117300 -0.12042100
v 0.03031500 0.25440700 -0.12048000
v -0.12445500 -0.37007200 0.06678500
v -0.10370824 -0.39777183 0.02584494
v -0.11600800 -0.38980900 0.07259700
v 0.07862200 0.42505300 -0.00219600
v 0.09781554 0.39702542 -0.00799679
v 0.09142355 0.39999897 -0.01840955
v -0.06405700 -0.05512500 -0.12202800
v -0.05546015 -0.02862987 -0.06751904
v -0.06440000 -0.01065800 -0.12346500
v 0.08332700 -0.22557300 0.07318700
v 0.07062450 0.24563250 -0.05992800
v 0.06367900 0.24625700 -0.10011900
v 0.06416550 0.27364450 -0.09551900
v 0.01995970 0.38865224 -0.08572519
v -0.00000100 0.39996700 -0.07586600
v 0.03629679 0.39493988 -0.08182052
v -0.07684700 0.39683100 0.13579800
v -0.08402600 0.40563400 0.13282200
v 0.10381300 0.39935500 0.11047100
v 0.10825375 0.39750089 0.08761435
v 0.09051300 0.42269000 0.08612300
v 0.04388800 -0.21262400 0.07932100
v 0.06523900 -0.22180600 0.08238100
v -0.08675100 0.23450500 0.08052900
v -0.07681500 0.22743200 0.03776200
v -0.05945900 0.21643200 0.07724700
v 0.06955300 -0.25120450 -0.06407600
v 0.00000000 -0.29258500 0.11029000
v -0.05363241 -0.29261110 0.10641706
v -0.03502250 -0.32552650 0.11773550
v -0.13079800 -0.31657300 0.05271500
v -0.12971500 -0.34474300 0.05954800
v -0.05529984 -0.02911623 -0.06648691
v -0.05477714 -0.02825259 -0.06611416
v -0.05537190 -0.02822659 -0.06669736
v -0.00000100 0.20194800 0.07637000
v -0.02764300 0.20520000 0.07520700
v -0.06435467 0.08867733 -0.11863633
v 0.11208700 0.34581500 -0.01251800
v 0.10796100 -0.36853300 -0.01240100
v 0.09309556 -0.40785110 -0.00284449
v 0.08937350 -0.37723850 -0.03872900
v 0.07939200 0.29562200 0.10586900
v 0.11367618 0.30956282 0.10686472
v 0.10834300 0.32689900 0.11847100
v -0.04288800 0.35721100 -0.09143800
v -0.04216782 0.31861435 -0.10586024
v -0.06513850 0.32805700 -0.08633850
v 0.12910700 0.33824600 0.04010900
v 0.12575900 0.30511400 0.03812100
v 0.12059700 0.34203050 0.01379550
v 0.00000000 -0.32451400 0.12086500
v 0.08574800 0.33826100 0.11830100
v 0.07870500 0.35895900 0.12433600
v -0.03426200 0.33028600 0.09501800
v -0.04507513 0.28979453 0.09688623
v -0.03771488 0.29801833 0.09656282
v -0.12743400 0.30837900 0.09394600
v -0.13120300 0.33509600 0.06171200
v -0.12575900 0.30511400 0.03797400
v 0.04263610 0.08888847 -0.15052731
v 0.04195706 0.08940185 -0.15046392
v 0.04282086 0.08976148 -0.15031875
v -0.08627500 0.24926400 0.09913300
v 0.09254700 0.24646100 0.09227400
v 0.09876544 0.26663888 0.09355479
v 0.08627500 0.25175200 0.09878700
v 0.06513850 0.32842000 -0.08631850
v -0.07473800 -0.24402900 -0.03003200
v -0.10834300 0.32689900 0.11847100
v 0.00000000 -0.44346900 -0.00187950
v 0.00000000 -0.45645000 0.04088200
v 0.11541100 0.39201000 0.04509300
v 0.07306502 0.24203078 0.09194004
v 0.04915900 0.21174100 0.07639400
v 0.07839500 0.22801600 0.07935000
v 0.11950300 0.37223400 0.10554500
v 0.07004500 -0.32653900 0.11460600
v 0.04691365 -0.29018446 0.10633803
v 0.03502250 -0.32552650 0.11773550
v 0.05974100 -0.40676600 0.14403800
v -0.00000100 0.13500900 -0.05359200
v -0.04277590 0.11493951 -0.05722953
v -0.00000075 0.09064325 -0.05395925
v -0.03861200 0.39566200 0.13503800
v 0.06408500 0.38741800 -0.07217200
v 0.12368700 -0.32831000 0.10925100
v 0.12721500 -0.33119300 0.10053000
v 0.00000000 -0.22046300 -0.12789000
v -0.12338000 -0.35523300 0.02782600
v 0.04535400 -0.20650300 0.03692400
v 0.02266300 -0.20739200 0.07757600
v 0.08892500 0.41534800 0.11337600
v 0.08402600 0.40563400 0.13282200
v 0.10372700 0.41087900 0.04747400
v 0.03329020 0.20030569 -0.13719924
v 0.00000800 0.19634200 -0.12964500
v 0.00001200 0.22375750 -0.12503300
v -0.05195700 -0.44554800 0.09115400
v -0.07436440 -0.42232967 0.12269821
v -0.08899200 -0.42329700 0.08326600
v 0.12445500 -0.37007200 0.06678500
v -0.12887000 0.32977100 0.09783300
v -0.09051300 0.42269000 0.08612300
v -0.07085000 0.44040100 0.05268500
v -0.08861000 0.42727200 0.05021400
v -0.02663600 0.24844200 -0.11906500
v 0.00001200 0.27767850 -0.11314650
v 0.00000000 -0.08311566 -0.05359733
v 0.04050335 -0.08990406 -0.05971715
v 0.04027083 -0.10475786 -0.05826262
v 0.06465200 0.30103200 -0.09091900
v -0.07528331 -0.43601937 0.05391898
v -0.07784801 -0.42874875 0.01375967
v 0.02195600 0.45728900 0.05819700
v -0.00000100 0.45795600 0.09081800
v 0.11600800 -0.38980900 0.07259700
v 0.10424100 -0.40788800 0.07821200
v -0.10376600 -0.36204400 0.12913100
v -0.07004500 -0.32653900 0.11460600
v -0.11533700 -0.32573500 0.11702700
v 0.04266143 -0.28489780 0.10504608
v -0.06147598 0.00707059 -0.08607022
v 0.00000000 -0.35433750 0.12764300
v 0.02436400 0.24857300 0.09215100
v 0.10376600 -0.36204400 0.12913100
v -0.08461200 0.24524900 0.00817850
v -0.04670782 -0.35554199 -0.10186120
v -0.05440500 -0.39065600 -0.07930700
v -0.06980500 -0.34289300 -0.07892200
v 0.06056291 -0.29052265 0.10533569
v 0.06562500 0.35580800 -0.08171800
v 0.08066150 0.35286200 -0.06131700
v -0.04122000 -0.16499500 -0.05324300
v -0.05924300 -0.16501400 -0.06304300
v 0.11302101 0.34675456 0.11403677
v 0.08510700 -0.22967700 0.03805600
v 0.06634600 -0.21631200 0.03738700
v -0.10792900 -0.25494900 0.04036700
v -0.03681352 -0.44138196 -0.00621755
v -0.04673011 -0.42956774 -0.02708371
v 0.06371400 -0.09959200 -0.12059100
v 0.05781142 -0.10335033 -0.07210736
v 0.05699888 -0.08932708 -0.07634547
v -0.02997276 0.27299560 0.09255971
v -0.02973064 0.27250524 0.09250056
v -0.00000100 0.28948700 0.08392700
v 0.00000350 0.33068950 -0.09859750
v 0.00000800 0.30418400 -0.10587200
v -0.12368700 -0.32831000 0.10925100
v -0.11691900 -0.30031500 0.10855300
v 0.10997452 0.39055699 0.01749578
v 0.08361600 0.42616400 0.02390100
v -0.08552800 0.32731000 0.11510900
v 0.03439045 0.18808992 -0.13939765
v 0.03151300 0.14123500 -0.13818900
v 0.00000350 0.16892650 -0.13425650
v -0.10372700 0.41087500 0.04771900
v -0.00000100 0.06415000 -0.14592000
v 0.03539253 0.04137576 -0.15815949
v 0.02564616 -0.15683641 -0.14627642
v 0.03211700 -0.17686000 -0.13518800
v 0.00000000 -0.13884050 -0.14033800
v 0.01817731 0.21421558 0.08541893
v -0.00000100 0.22519000 0.09581000
v -0.06408500 0.38741800 -0.07217200
v -0.06562500 0.35580800 -0.08171800
v -0.08066150 0.35286200 -0.06131700
v 0.00000000 -0.18520300 -0.04261600
v 0.00000000 -0.16443900 -0.05067000
v -0.12055050 -0.31915159 0.00520620
v 0.12349800 -0.28457900 0.04548300
v 0.10792900 -0.25494900 0.04036700
v 0.11230100 -0.27626400 0.10053500
v 0.04098651 0.18438114 -0.13606647
v 0.03690648 0.19330509 -0.13782047
v -0.02195600 0.45729000 0.05805200
v 0.03324330 0.23252074 -0.13009368
v -0.09834976 -0.29989897 -0.03784470
v -0.09954339 -0.30266053 -0.03721647
v -0.09973201 -0.29775777 -0.03200407
v -0.00000100 0.26721700 0.08581800
v -0.00000100 0.24608100 0.09173800
v 0.03645532 0.42193129 -0.05267846
v 0.04231574 0.41311697 -0.06253445
v 0.03639373 0.41583760 -0.06257359
v -0.05107400 0.13618800 -0.05798700
v -0.04875361 0.10959330 -0.05943488
v -0.04065700 0.13624900 -0.05553700
v -0.10408027 -0.39652824 0.02385050
v 0.06203800 0.40432100 -0.05951100
v 0.03737408 0.41085791 -0.06747251
v -0.06416900 0.16496000 -0.11221650
v -0.06105400 0.13958500 -0.12658500
v -0.06433200 0.13834500 -0.11622200
v 0.05924300 -0.16501400 -0.06304300
v 0.05095563 -0.13722596 -0.05966400
v 0.04122000 -0.16499500 -0.05324300
v -0.04176284 -0.10589299 -0.15309330
v -0.03224625 -0.12758789 -0.15079793
v -0.04253530 -0.12778461 -0.14903011
v -0.07273779 -0.43219807 0.01106050
v -0.06974701 -0.42888170 -0.00165250
v -0.12721500 -0.33119300 0.10053000
v -0.05993400 0.13585500 -0.06432600
v -0.06760700 0.13521000 -0.08414900
v 0.04256300 0.44208200 0.11823100
v -0.00000100 0.44843700 0.11938500
v 0.11866300 0.27838000 0.08849800
v 0.11887900 0.28296100 0.03721700
v -0.03065041 -0.43614003 -0.02406319
v 0.00000000 -0.43048800 -0.04464100
v 0.04249994 -0.22252832 -0.13214973
v 0.05324100 -0.17606400 -0.13141300
v -0.06708650 -0.30063650 -0.08852100
v -0.06098300 -0.26078400 -0.10859000
v -0.05326500 -0.26256600 -0.11601900
v 0.05328800 0.25186200 -0.11796900
v 0.05976400 0.24793700 -0.11076400
v -0.01197683 0.42680245 0.13933776
v -0.00000100 0.42566800 0.14422400
v -0.00000100 0.43625400 0.14192300
v -0.06238568 0.01255132 -0.08899930
v -0.02975205 0.01054544 -0.05689482
v -0.04014377 0.03870940 -0.05753954
v 0.02666100 0.20439000 0.04023700
v 0.04011268 0.20377053 0.00256191
v 0.04762600 0.21065300 0.03874700
v 0.02667625 -0.41633566 -0.06367405
v 0.02720250 -0.39099300 -0.08032650
v 0.02913089 -0.41657753 -0.06333716
v 0.02984690 0.19243509 -0.13869633
v -0.12013756 -0.37139778 0.10074412
v 0.04088300 -0.41428700 0.14654600
v 0.03608459 -0.37033002 0.13132849
v 0.00000000 -0.38416100 0.13442100
v 0.06435467 0.08867734 -0.11863633
v 0.05460317 -0.42513193 0.13333514
v 0.05642511 -0.42046382 0.13305963
v 0.09322200 -0.24586200 0.09040000
v -0.10003370 -0.30551835 -0.03662378
v -0.09840679 -0.30607312 -0.03938906
v 0.04227435 0.27112682 -0.11784188
v -0.06289488 0.10315071 -0.09158015
v -0.06194472 0.10656422 -0.08617717
v 0.00000000 -0.19922100 0.03689400
v -0.04656049 0.28693686 0.09692793
v -0.07939200 0.29562200 0.10586900
v -0.06158600 0.27286700 0.09923400
v -0.12759703 -0.30895641 0.08279058
v -0.11230100 -0.27626400 0.10053500
v -0.12349800 -0.28457900 0.04548300
v -0.09322200 -0.24586200 0.09040000
v -0.08332700 -0.22557300 0.07318700
v -0.10381300 0.39935500 0.11047100
v -0.11950300 0.37223400 0.10554500
v -0.00000100 0.10283050 -0.14239400
v -0.00000100 0.14151100 -0.13886800
v -0.05519646 -0.02656866 -0.06630928
v 0.00000000 -0.39133000 -0.08134600
v 0.00000000 -0.41211200 -0.07221000
v -0.05559174 -0.18862125 -0.12763629
v -0.03211700 -0.17686000 -0.13518800
v -0.04018103 -0.21626535 -0.13419656
v 0.04072502 0.30286966 -0.11017324
v 0.04289364 0.31050209 -0.10638490
v -0.05307524 -0.02616512 -0.06553696
v 0.00000000 -0.04245400 -0.05506100
v -0.00000025 0.00191175 -0.05469375
v 0.03286833 0.03455428 -0.15889118
v 0.03674496 0.02081487 -0.15940244
v -0.00000050 0.02015350 -0.14740450
v -0.05594600 0.35685100 -0.08894800
v -0.11866300 0.27838000 0.08849800
v -0.11887900 0.28296800 0.03689900
v -0.05256475 0.21020075 0.00296054
v -0.05794600 0.21558500 0.04047400
v -0.06465200 0.30030600 -0.09095900
v -0.12548476 0.35669255 0.07534279
v -0.03319369 -0.41693532 -0.06117345
v -0.07078600 -0.38594400 -0.06505700
v 0.03522242 -0.45438073 0.05428422
v 0.03213328 -0.45133812 0.02379393
v -0.11097766 -0.32899592 -0.02038223
v -0.10645698 -0.33953259 -0.03101948
v -0.09165400 0.24507100 0.03602800
v -0.10044300 0.25184400 0.03612200
v 0.00000000 -0.17696000 -0.13569200
v 0.05165266 -0.28233689 0.10314521
v 0.03497763 -0.13287047 -0.05568176
v 0.00000000 -0.12377733 -0.05213367
v 0.07807900 -0.39415800 0.13983600
v -0.00000100 0.33084100 0.09210800
v -0.06955300 -0.25120450 -0.06407600
v 0.11843900 0.32749900 0.11432100
v 0.10526650 0.26198550 0.03712300
v 0.06219203 -0.42119871 -0.03689391
v 0.07078600 -0.38594400 -0.06505700
v -0.11998824 -0.31494154 0.00333962
v 0.06384250 0.21927900 -0.10414450
v 0.06400600 0.19230100 -0.10817000
v 0.08058590 -0.41493550 -0.00908834
v 0.04297265 0.08929162 -0.15028077
v 0.08861000 0.42727500 0.04999800
v 0.07085000 0.44040500 0.05253800
v 0.04449718 -0.43296921 -0.02499283
v -0.03741067 -0.30657346 -0.11757355
v 0.06760700 0.13521000 -0.08414900
v -0.03151300 0.14123500 -0.13818900
v -0.10424100 -0.40788800 0.07821200
v 0.06094018 0.15822182 -0.06785667
v 0.06416900 0.16532300 -0.11219600
v 0.00546003 -0.20154786 0.06766252
v 0.00000000 -0.19848200 0.07020200
v 0.00246200 -0.20601700 0.07711800
v -0.06379800 -0.17286600 -0.11338900
v -0.06239457 0.01283942 -0.08895052
v -0.06437733 0.03900966 -0.12105067
v -0.05165215 -0.20970992 -0.00907903
v -0.07992250 -0.23685300 0.00401200
v 0.02944746 -0.23489511 0.08680196
v 0.00000000 -0.23928600 0.08601100
v 0.03489387 -0.24383752 0.09001698
v -0.06628400 0.41904000 -0.03215000
v -0.03868843 0.42524440 -0.04600485
v -0.06179100 0.41001500 -0.05130400
v -0.09269900 -0.37938400 0.13491000
v 0.06440000 -0.01065800 -0.12346500
v 0.05147860 -0.10883756 -0.06101223
v 0.03041198 -0.41733457 -0.06127530
v 0.10734950 -0.32312207 -0.02606393
v 0.09306696 -0.29604502 -0.04522532
v 0.10458554 -0.28406065 -0.01199219
v 0.03426200 0.33028600 0.09501800
v 0.11468433 0.30516018 0.00530390
v 0.11199417 0.31119257 -0.00310674
v 0.04069184 0.03373823 -0.15246500
v 0.06437733 0.03900967 -0.12105067
v 0.08055572 0.27670663 -0.05789350
v -0.03724435 0.42880799 -0.04122572
v 0.00000000 -0.10072100 -0.14498400
v 0.00000000 -0.06228200 -0.14693650
v 0.07473800 -0.24402900 -0.03003200
v 0.04677206 -0.20575845 -0.00651688
v 0.07992250 -0.23685300 0.00401200
v 0.09165400 0.24101000 0.03702900
v 0.09591400 0.24066700 0.06203900
v 0.06766400 0.22073800 0.03760600
v 0.01014216 -0.20313443 0.06980189
v 0.06375600 -0.13622900 -0.11699000
v 0.05979258 -0.12893755 -0.07515614
v 0.06672400 -0.16717700 -0.08189300
v 0.05594600 0.35685100 -0.08894800
v 0.04288800 0.35721100 -0.09143800
v 0.02751806 0.03869648 -0.15835892
v 0.12338000 -0.35523300 0.02782600
v 0.09569800 0.34991600 -0.04091600
v -0.00000050 0.04627750 -0.05432650
v -0.08510700 -0.22967700 0.03805600
v -0.06249600 0.38068000 0.13067000
v 0.09261645 0.39207579 -0.02598680
v 0.10004484 0.38503424 -0.01648659
v -0.03160192 -0.45565154 0.06396594
v -0.02040600 -0.45403300 0.09485000
v 0.06379800 -0.17286600 -0.11338900
v 0.07144500 0.42831900 0.11573200
v 0.09920287 -0.27689372 -0.01937446
v 0.08537786 -0.28726202 -0.05669935
v 0.00468078 -0.21335161 0.08058656
v 0.00000000 -0.21599800 0.08415000
v 0.06058538 -0.00964389 -0.07385686
v 0.06060741 -0.00798882 -0.07539151
v -0.09591400 0.24530700 0.06185100
v -0.05989500 0.32879800 0.10506350
v 0.13079800 -0.31657300 0.05271500
v 0.11691900 -0.30031500 0.10855300
v -0.06371400 -0.09959200 -0.12059100
v -0.02720250 -0.39099300 -0.08032650
v -0.06240368 0.01237232 -0.08902756
v -0.03089928 -0.00176301 -0.05874863
v -0.06973634 0.24220271 0.09655645
v -0.06945385 0.24204565 0.09656597
v -0.03188917 0.20396264 0.00382894
v -0.00000100 0.20388900 0.00075800
v -0.03738500 0.20668200 0.04293100
v 0.05195700 -0.44554800 0.09115400
v -0.04388800 -0.21262400 0.07932100
v -0.11843900 0.32749900 0.11432100
v 0.07623800 -0.23013300 0.08515800
v 0.06087614 -0.44593647 0.05491835
v 0.06099198 -0.44558599 0.05258107
v -0.08671567 -0.27549437 -0.04694430
v -0.05974100 -0.40676600 0.14403800
v 0.04081846 0.19820069 -0.13372107
v 0.04003976 0.19145786 -0.13447735
v 0.00000000 -0.26593550 0.09815050
v -0.04568479 0.20617284 0.00604783
v 0.06424371 0.21824227 -0.07418487
v 0.00000000 -0.35455800 -0.09372050
v 0.00000000 -0.31778600 -0.10609500
v -0.03683833 0.43936481 -0.00800545
v 0.03952655 -0.24657105 0.09031755
v 0.06293802 -0.44520991 0.05336326
v -0.10495034 -0.30611277 -0.02624159
v -0.10479246 -0.27783090 -0.00256505
v -0.07862200 0.42505300 -0.00219600
v -0.08555465 0.38830535 -0.04122304
v -0.08798179 0.38808023 -0.03717283
v -0.10450031 0.30922076 0.11227125
v -0.03696879 0.03491871 -0.15829351
v -0.03675370 0.04225630 -0.15816058
v -0.00033000 0.45893100 0.06004200
v 0.06433200 0.13834500 -0.11622200
v 0.00005900 0.20172700 0.05943300
v -0.02768373 -0.19364094 -0.03334845
v -0.04009566 -0.20601530 -0.00346178
v 0.00000000 -0.20561700 -0.01696400
v -0.06659080 -0.24542381 0.08522453
v -0.04536575 -0.25047752 0.09176358
v 0.11533700 -0.32573500 0.11702700
v -0.12413200 0.34137400 0.01823400
v 0.06628400 0.41904000 -0.03215000
v -0.05602372 0.09585677 -0.06599186
v -0.05760308 0.07278698 -0.06992035
v -0.06303532 0.09687065 -0.08924011
v 0.02251767 0.42482566 0.13972512
v 0.02364169 0.42485387 0.13957299
v -0.02245612 0.00342208 -0.16080879
v 0.00000000 -0.02384300 -0.14888900
v -0.10799067 0.37781569 -0.00779104
v -0.09569800 0.34991600 -0.04091600
v -0.11208700 0.34581500 -0.01251800
v -0.07430377 -0.43667139 0.05333302
v -0.10310869 -0.26875453 0.00464797
v -0.10059361 -0.41128279 0.05004599
v 0.03747390 0.29272945 0.09461841
v 0.05440500 -0.39065600 -0.07930700
v 0.06980500 -0.34289300 -0.07892200
v -0.04307753 0.41327395 -0.06242053
v 0.06099438 0.08613648 -0.08090087
v 0.06150734 0.07263109 -0.08733648
v -0.02436400 0.24857300 0.09215100
v 0.00000000 -0.29087550 -0.11309100
v 0.05030329 0.02722379 -0.06301861
v 0.07684700 0.39683100 0.13579800
v 0.04674869 -0.09669480 -0.06050268
v 0.05449112 -0.09151470 -0.06501024
v 0.00000000 -0.20538200 0.07937800
v -0.05618055 0.15316855 -0.06192194
v 0.08899200 -0.42329700 0.08326600
v 0.04315207 0.08941642 -0.15000869
v 0.00000000 -0.26396500 -0.12008700
v -0.02663250 -0.26326550 -0.11805300
v -0.00000100 0.44927800 0.01282200
v -0.05587530 -0.03198077 -0.06827737
v -0.04017747 0.09238744 -0.05832230
v -0.03940963 0.06579499 -0.06152131
v 0.02663250 -0.26326550 -0.11805300
v -0.05817432 0.11200928 -0.06931884
v 0.05807208 -0.00048550 -0.06991111
v 0.10981992 -0.39210581 0.03567155
v 0.02764300 0.20520000 0.07520700
v -0.06950759 0.24257903 0.09671199
v -0.06961200 0.24230474 0.09666345
v -0.00000100 0.35719500 -0.09132300
v -0.05976400 0.24497400 -0.11081300
v -0.05087926 0.22516821 -0.11930062
v -0.06384250 0.21819000 -0.10420550
v 0.03839672 0.31277512 -0.10808686
v -0.03083484 -0.42471033 -0.04392149
v 0.02664358 -0.12057913 -0.15384124
v 0.05642338 -0.00824762 -0.07072502
v 0.05930381 -0.00734869 -0.07127001
v 0.12429475 -0.31300436 0.01509436
v 0.11071049 -0.38976551 0.03587453
v 0.12626100 0.36080200 0.04193500
v 0.12494856 0.35837456 0.07922300
v -0.06436800 -0.25838000 -0.09812000
v -0.05549800 0.26491400 0.09691500
v -0.03471400 0.25264900 0.09333900
v -0.03027908 0.27256767 0.09258205
v -0.04088279 0.31466073 -0.10717214
v -0.03301957 0.17437819 -0.04616680
v -0.03238898 0.17356061 -0.04626680
v -0.00000100 0.19330500 -0.02969800
v -0.04615194 -0.12629958 -0.14505051
v -0.11541100 0.39200500 0.04533000
v -0.11333022 0.39514281 0.07636665
v -0.00246200 -0.20601700 0.07711800
v -0.01854069 0.42485013 -0.05795018
v -0.02986686 0.41926618 -0.05988573
v -0.02415280 0.42629140 -0.05187088
v 0.03709623 0.06881346 -0.05719032
v 0.07686340 0.38625278 -0.05281258
v 0.07576410 0.39095184 -0.05071261
v 0.07862978 0.38808253 -0.04934519
v -0.00000100 0.40490300 0.13773300
v 0.01696700 0.40309900 0.13720700
v -0.04088300 -0.41428700 0.14654600
v -0.09254700 0.24669700 0.09249100
v -0.09545200 0.24600500 0.08178100
v 0.06049000 -0.17470300 -0.12377200
v 0.05954837 -0.15789286 -0.12109812
v 0.11030711 -0.38855249 0.10774475
v 0.10604256 -0.39564329 0.11078295
v -0.05334100 0.14055400 -0.13418500
v 0.03775153 -0.30252867 -0.11850099
v -0.07757000 0.24542700 -0.01967100
v 0.03861200 0.39566200 0.13503800
v 0.06405700 -0.05512500 -0.12202800
v 0.07003000 0.26393000 0.10181600
v 0.04065345 -0.24248776 0.08872197
v 0.04558100 0.25813400 0.09493900
v -0.00000100 0.40878600 -0.06870500
v 0.01299758 0.42025272 -0.06359331
v 0.02423393 0.40670292 -0.07767180
v 0.12971500 -0.34474300 0.05954800
v -0.10815800 0.25914100 0.08500400
v -0.05890410 0.17966289 -0.06968590
v -0.06131522 0.18846481 -0.06538570
v -0.06151756 0.18086143 -0.07773218
v -0.11122956 0.37923311 0.00060372
v -0.05566443 0.21072916 -0.01638905
v -0.06437831 0.21425388 -0.03698235
v -0.06255064 0.20797873 -0.04593804
v 0.10478842 -0.27759765 -0.00521677
v 0.11000606 -0.29035328 -0.00158491
v 0.03911365 0.07494512 -0.05719773
v 0.03073221 -0.04078050 -0.15988539
v -0.06203800 0.40432100 -0.05951100
v 0.03980583 -0.06373010 -0.06441610
v 0.02040600 -0.45403300 0.09485000
v -0.06367900 0.24480500 -0.10020000
v 0.08688477 0.29763366 -0.04966239
v 0.03965011 0.03881699 -0.15463292
v -0.02992040 0.43135088 -0.03948774
v -0.02882967 0.42933798 -0.04331030
v 0.06150964 0.19992601 -0.06620145
v 0.06162860 0.19323261 -0.07469767
v 0.05906143 0.17683970 -0.06632556
v -0.04007853 -0.21874446 -0.13366450
v 0.09051770 0.31607732 -0.04766154
v 0.10278576 -0.32917223 -0.03631529
v 0.10286664 -0.34270901 -0.03559040
v -0.12626100 0.36079400 0.04208900
v 0.04753186 -0.15143099 -0.14209893
v -0.04240452 0.20310001 -0.00311062
v -0.04746660 -0.03635753 -0.15304772
v -0.04770046 -0.03496673 -0.15287583
v -0.04741199 -0.03505859 -0.15301162
v -0.09853906 -0.30309605 -0.03931149
v 0.00000000 -0.45893100 0.07383400
v 0.10959089 -0.39176011 0.03312507
v -0.05403781 -0.42561565 -0.03324789
v -0.05499955 -0.42811341 -0.02589840
v -0.05725941 0.12058878 -0.12636501
v -0.05090198 0.11854076 -0.13773053
v 0.10157081 -0.27507442 -0.01108757
v 0.10053849 -0.27073588 -0.00598998
v -0.06370178 -0.41995385 -0.03480043
v -0.08937350 -0.37723850 -0.03872900
v 0.03810101 0.06091498 -0.05744898
v 0.06015047 0.05280470 -0.08326941
v 0.04212013 -0.22701991 -0.13166376
v 0.04071608 0.43858931 -0.00554466
v 0.03519813 0.42899670 -0.04134529
v 0.11729710 0.37451677 0.02183581
v -0.08574800 0.33826100 0.11830100
v -0.07573604 -0.42984460 0.00916247
v -0.10304577 -0.39782700 0.02367639
v 0.06105400 0.13958500 -0.12658500
v -0.05777851 -0.20920326 -0.03101577
v 0.06179100 0.41001500 -0.05130400
v 0.05477763 -0.19988002 -0.04710190
v 0.02574152 -0.19204423 -0.03726550
v 0.05326500 -0.26256600 -0.11601900
v -0.05619223 -0.43144954 0.12194549
v -0.00000100 0.20656100 0.08639500
v -0.01675432 0.21672124 0.08937431
v 0.05993400 0.13585500 -0.06432600
v -0.03798484 0.35796956 0.11367683
v -0.07870500 0.35895900 0.12433600
v -0.06672400 -0.16717700 -0.08189300
v 0.06408300 -0.21562300 -0.10575500
v 0.00112135 -0.43096133 0.14947801
v 0.00043625 -0.43020080 0.14866143
v -0.00033071 -0.43136854 0.15037659
v 0.00000618 -0.43017832 0.14874124
v 0.03851377 -0.10466128 -0.15473985
v 0.03558181 -0.11829624 -0.15435861
v -0.06400600 0.19157500 -0.10821100
v 0.05667078 0.15604021 -0.06379684
v 0.03349193 0.16161516 -0.05069751
v 0.04065700 0.13624900 -0.05553700
v 0.00722557 -0.44049291 0.13041820
v 0.00000000 -0.44366400 0.12783500
v 0.08552800 0.32731000 0.11510900
v 0.06436800 -0.25838000 -0.09812000
v -0.03602894 0.44207693 0.00117831
v -0.02727809 0.45416244 0.03387886
v 0.03276072 0.42192769 0.13820491
v 0.11409961 -0.32464093 -0.00968937
v 0.00011800 0.20150600 0.04249600
v 0.03071111 -0.13116348 -0.15145380
v 0.04094776 -0.12454231 -0.15052955
v 0.00010702 0.43856305 -0.04093275
v -0.00151899 0.43478987 -0.04784527
v -0.00268171 0.43845097 -0.04141234
v -0.00885721 0.43668133 -0.04519604
v -0.05801293 0.16473129 -0.06633969
v 0.03944482 -0.33959272 -0.10847123
v 0.03329468 -0.36817256 -0.10013517
v 0.06166238 -0.06166664 -0.08671644
v 0.05989500 0.32879800 0.10506350
v 0.00630000 -0.42967216 0.14210685
v 0.00572488 -0.42712164 0.14320639
v 0.00441540 -0.43292196 0.14760459
v 0.00359589 -0.42934792 0.14918120
v 0.03188594 -0.43955313 0.12456494
v -0.00474150 -0.44271838 0.12628354
v 0.04271429 -0.11463134 -0.14861143
v -0.05269872 0.17625141 -0.12478507
v -0.05419731 0.16038708 -0.12707938
v 0.08425818 -0.41827925 0.11473283
v 0.04398782 0.11091969 -0.05708460
v 0.12322603 -0.35446173 0.10022962
v 0.00000000 -0.20778500 0.00467700
v 0.00000000 -0.42025300 -0.06454300
v -0.05017632 0.26820870 -0.11294415
v 0.05107400 0.13618800 -0.05798700
v 0.00000000 -0.40924300 0.14822600
v 0.00000000 -0.42131600 0.14888900
v 0.05989937 0.15497140 -0.06656883
v -0.07462593 -0.43661439 0.05429249
v -0.06049000 -0.17470300 -0.12377200
v -0.05324100 -0.17606400 -0.13141300
v 0.06070845 -0.42239822 0.13213403
v 0.04058880 0.44600043 0.01627599
v 0.05211000 0.44932200 0.05487600
v 0.01193330 -0.21429722 0.07930874
v -0.04062285 -0.25632441 0.09411642
v -0.03517979 -0.24607331 0.09080909
v 0.11219286 0.37587957 0.00570330
v 0.02599661 0.43092174 -0.04703674
v 0.01494028 0.42649873 -0.05658832
v 0.01520686 0.43245870 -0.04930533
v -0.05414204 -0.02950512 -0.06589707
v 0.06050350 -0.00750032 -0.07329564
v 0.06055795 -0.00567789 -0.07393128
v -0.07807900 -0.39415800 0.13983600
v -0.01696700 0.40309900 0.13720700
v 0.07505299 -0.37043990 0.12716992
v 0.09269900 -0.37938400 0.13491000
v 0.07507833 -0.36340914 0.12663353
v 0.00783952 0.43271272 -0.04930604
v 0.00762380 0.43701668 -0.04514022
v -0.07623800 -0.23013300 0.08515800
v 0.07757000 0.24500800 -0.01973700
v 0.08904464 0.27908947 -0.03760789
v 0.08160235 0.27026186 -0.04946824
v 0.03508641 0.42711191 -0.04534407
v -0.03054471 0.43913587 -0.01418916
v 0.09948488 0.29017949 -0.02016571
v 0.09711469 0.27634574 -0.01306900
v 0.11334611 0.29583901 0.00850402
v 0.06158600 0.27008600 0.09842400
v 0.08461200 0.24300900 0.00864600
v -0.06408300 -0.21562300 -0.10575500
v 0.06380806 -0.19844642 -0.08438350
v 0.09576226 -0.31236873 0.10803876
v 0.05763658 -0.01344012 -0.07010714
v 0.04364205 0.09102701 -0.14936913
v 0.04936947 0.22799953 -0.12264583
v 0.05796995 -0.42447542 0.13191439
v -0.02557319 -0.19301017 -0.03426260
v -0.07977400 0.25360700 0.10196900
v -0.06308762 0.10909178 -0.08914435
v 0.08417848 0.39702555 -0.03325672
v 0.06148134 -0.20398473 -0.06501358
v -0.10019219 -0.26714018 -0.00293752
v -0.08652965 0.29689329 -0.05478615
v -0.08662958 0.28969165 -0.04814010
v -0.09232666 0.28729450 -0.03234685
v 0.01453038 0.43468629 -0.04626766
v -0.05127504 0.21988102 -0.12017142
v -0.02975522 0.21547763 -0.13213071
v -0.03954568 0.18691337 -0.13609814
v -0.03538323 0.07834323 -0.15505980
v -0.00524061 -0.43384840 0.14065380
v -0.00627987 -0.43100774 0.14662725
v -0.00518162 -0.42931164 0.14527536
v 0.01587524 0.44633687 -0.02904294
v -0.00000100 0.43256700 -0.02967800
v -0.02614897 -0.43903976 0.12877416
v -0.06092983 -0.27387638 0.09913526
v -0.06751064 -0.29050479 0.10443046
v -0.09743848 0.27392199 -0.01223734
v -0.05076525 -0.11970035 -0.06186440
v -0.06234056 -0.11786145 -0.08764381
v -0.06375600 -0.13622900 -0.11699000
v 0.04691619 0.18898463 -0.04166501
v -0.05760537 -0.28354468 0.10275849
v 0.04491327 -0.04127938 -0.06027623
v 0.02762669 -0.02082815 -0.05846954
v 0.04040602 -0.29588469 -0.11806812
v 0.05712022 -0.27989132 -0.10922562
v -0.01723224 0.22714118 0.09375837
v -0.03444603 0.22504196 0.09074272
v -0.03969783 0.23451606 0.09413539
v 0.04715483 0.16734022 -0.05495885
v -0.00000100 0.38401150 0.12134100
v 0.06234107 -0.44448503 0.04793987
v -0.04188465 0.16883898 -0.13804358
v -0.00316246 0.43376851 -0.04975189
v -0.00034164 0.43226142 -0.05072470
v -0.01168506 0.42769191 -0.05641646
v 0.04379485 0.11507701 -0.05652664
v 0.04549906 -0.23161542 -0.12789148
v -0.06523900 -0.22180600 0.08238100
v 0.00000000 -0.19384500 -0.03562900
v 0.02534663 -0.19308127 -0.03174393
v 0.03744449 -0.20445815 0.00348379
v -0.02168644 -0.22428269 0.08201125
v -0.02266300 -0.20739200 0.07757600
v -0.04082265 0.04027420 -0.05801418
v -0.03906670 -0.45106373 0.02631878
v 0.04308531 0.08894057 -0.15014509
v -0.04779624 -0.03498538 -0.15268205
v -0.04783780 -0.03488930 -0.15255927
v 0.05820386 0.02373399 -0.08222258
v -0.00369288 -0.42812576 0.14614568
v -0.00415166 -0.42933905 0.14793592
v -0.03482303 0.44126030 -0.00500381
v 0.05150562 0.16199633 -0.13202502
v -0.01862597 0.40885285 -0.07583682
v -0.01488350 0.42345402 -0.06037789
v -0.06231599 0.01248181 -0.08926467
v -0.00000100 0.17749800 -0.04502500
v -0.03138672 -0.45526618 0.05821787
v 0.03099280 -0.45585347 0.06811810
v -0.01040816 0.43660545 -0.04545903
v -0.01309115 0.43405159 -0.04835461
v 0.04670333 0.38563167 -0.08208106
v -0.01238100 0.44759194 -0.02730620
v -0.01209570 0.43702620 -0.04448429
v -0.08422896 0.38891106 -0.04229936
v -0.00000100 0.42163500 -0.04985300
v 0.02349790 -0.19158461 -0.03555150
v 0.02336904 -0.19106540 -0.03616166
v 0.06249600 0.38068000 0.13067000
v -0.03651299 -0.31613577 -0.11650962
v 0.06414700 0.24640207 0.09486526
v 0.08716649 -0.29829347 -0.05691410
v -0.06634600 -0.21631200 0.03738700
v -0.05233033 -0.21003184 0.00498440
v -0.08630497 -0.40424581 -0.01976547
v -0.08872396 -0.40411502 -0.01179918
v 0.06708650 -0.30063650 -0.08852100
v 0.05334100 0.14055400 -0.13418500
v -0.05453932 -0.24301410 -0.11945473
v 0.11519900 -0.30502673 -0.00694810
v -0.01083288 0.43697354 -0.04451114
v -0.01171674 0.43656792 -0.04545318
v -0.03897333 -0.14198695 -0.14786831
v -0.04535400 -0.20650300 0.03692400
v 0.05912631 0.37477900 -0.07929220
v -0.00917640 0.22374014 0.09332334
v 0.06117017 -0.04846936 -0.08119564
v 0.04981750 -0.05090373 -0.06472973
v 0.02352715 -0.19051789 -0.03638957
v 0.08934799 -0.29724989 0.10405176
v -0.01234142 0.44769664 -0.02720703
v -0.02996323 -0.19434698 -0.03455351
v -0.05585483 -0.20230290 -0.04374951
v 0.09396284 0.31374010 -0.04131804
v 0.10739756 0.29309348 -0.00459441
v 0.00464304 -0.42737910 0.14984429
v 0.06152231 0.15596296 -0.07159768
v -0.02304200 -0.20078200 0.03672800
v -0.05422991 -0.15816757 -0.13273393
v -0.04899223 -0.13725223 -0.14121622
v -0.04779335 0.00818455 -0.14731106
v -0.04779213 -0.03449350 -0.15272654
v -0.03487089 -0.31137017 -0.11851056
v 0.10183515 0.31029497 -0.02327660
v -0.06482717 0.21817211 -0.07699624
v 0.04863338 0.44688887 0.09237443
v 0.05196849 0.44838958 0.08463507
v -0.06153353 -0.20460290 -0.05638504
v 0.06501078 0.21833460 -0.04533357
v 0.05167078 0.20370926 -0.03074217
v 0.06106508 -0.20747424 -0.05346477
v -0.04807894 -0.42278596 -0.04237904
v -0.05375988 -0.02846658 -0.06591648
v -0.02696709 -0.04914781 -0.05652083
v 0.05841590 -0.06399798 -0.07181493
v 0.04854337 -0.07304931 -0.06111214
v -0.00000100 0.16754300 -0.04969100
v 0.02670618 0.44355987 -0.01769292
v 0.02114157 0.44147046 -0.03343020
v -0.09274496 0.30470267 -0.04456615
v -0.10816586 0.30760095 -0.01354470
v -0.10416042 0.28476613 -0.00495966
v -0.00692344 -0.42199598 0.14146201
v -0.00833736 -0.42331112 0.14069608
v 0.03934083 0.44006105 -0.00247275
v -0.00000100 0.21467000 0.09292100
v -0.04415336 -0.37574855 0.13276150
v -0.04962000 0.27103291 -0.11261263
v -0.02825228 -0.45633997 0.06179166
v 0.05446800 0.44037674 0.01951724
v -0.12416852 -0.31123197 0.09438315
v -0.11552970 0.30922378 0.00340249
v 0.05496868 0.44545299 0.08994669
v -0.03627891 0.17447854 -0.05001466
v -0.09008898 0.26932296 0.10252412
v -0.00958563 0.44574459 -0.03009024
v 0.00246073 0.44009930 -0.03855385
v 0.06631306 -0.43587335 0.01147098
v 0.05645849 -0.44102455 0.00873612
v 0.05868432 -0.43634583 -0.00258265
v 0.03519065 -0.00479243 -0.16281275
v -0.10903319 -0.39383438 0.10984765
v -0.03364907 0.17658216 -0.04200153
v 0.08904231 -0.41667535 0.01177856
v 0.10698339 -0.39581181 0.03470403
v 0.08801793 -0.42580013 0.04314203
v 0.06531389 -0.36616316 0.12927834
v 0.06265936 0.41296794 0.13263374
v -0.04038596 0.43963190 -0.00296470
v 0.04177543 0.43897146 -0.00219950
v 0.03742272 -0.01792287 -0.15978514
v 0.04727060 -0.04240975 -0.14708134
v -0.08139649 -0.41763232 -0.00089992
v -0.01224643 0.44749932 -0.02745064
v 0.00000000 -0.45557100 0.09606200
v 0.04590614 0.31579954 -0.10301767
v 0.03832102 0.03550563 -0.15708755
v 0.05596478 0.09735587 -0.06699200
v -0.10769495 0.38914068 0.00104999
v -0.08361600 0.42616250 0.02400900
v -0.06286217 -0.12788900 -0.08623383
v 0.06029282 0.41421900 0.13311736
v -0.02113102 -0.41501430 -0.06590274
v -0.00533290 -0.43455944 0.14029387
v -0.00505859 -0.43578253 0.13916523
v 0.00000000 -0.43831000 0.13783800
v -0.10463865 0.38809321 -0.00816334
v -0.09294267 -0.33559156 -0.05273529
v -0.12209431 0.37214125 0.07404744
v 0.11592273 -0.35325378 0.11044907
v -0.04952342 -0.11022468 -0.06155910
v -0.09557721 -0.30249183 0.10404408
v 0.00488988 0.43705667 -0.04542847
v -0.05328800 0.24571100 -0.11770900
v 0.02167417 0.41927460 -0.06182009
v 0.01394024 0.44455520 -0.03187871
v -0.03312947 -0.06269170 -0.05657628
v 0.01466808 -0.43864158 0.13162752
v 0.03897348 -0.06741912 -0.15685269
v -0.12910700 0.33824000 0.04016700
v 0.00847564 -0.43331280 0.13875544
v 0.06635926 0.22181427 -0.01540316
v -0.04674030 0.23136422 0.09260055
v -0.04831368 -0.12617279 -0.13974568
v -0.03308119 0.17249729 -0.04677402
v 0.04793042 -0.20762379 0.00472032
v 0.11428321 -0.37955129 0.10749381
v -0.03813562 0.41034440 -0.06721318
v 0.06098300 -0.26078400 -0.10859000
v 0.00626897 -0.43453756 0.14668859
v 0.01679655 0.43354921 -0.04825450
v -0.03483180 0.39566492 -0.07878052
v -0.00000100 0.36312000 0.10494900
v -0.03170961 0.35444212 0.11135813
v -0.08892500 0.41534800 0.11337600
v 0.00000000 -0.43023000 0.14711500
v 0.00000000 -0.43131100 0.14675800
v -0.03355597 -0.19557687 -0.03823850
v -0.02411728 0.39941127 -0.08157728
v -0.06210484 0.10856286 -0.09774093
v 0.05956178 0.41157058 0.13360418
v 0.03404366 0.20044439 -0.00261866
v 0.03720478 0.19553915 -0.01521210
v -0.02883329 0.40404115 -0.07750199
v -0.12394381 -0.34852709 0.10169742
v -0.12333050 -0.35257861 0.10175346
v 0.00533915 -0.43505063 0.14716955
v -0.04714935 -0.03450357 -0.15305491
v 0.06254897 -0.44530409 0.05490478
v -0.09869657 0.27106004 -0.00040564
v 0.03995362 -0.32660047 -0.11182047
v 0.11059187 -0.33682194 -0.02106138
v 0.10699572 -0.33640182 -0.02946297
v -0.04764905 -0.03476628 -0.15291884
v -0.00414452 -0.43495391 0.14039996
v -0.00038585 -0.43879510 0.14669196
v -0.01921792 -0.43989106 0.12881076
v 0.04234364 -0.33472593 -0.10827520
v 0.04051510 -0.33569001 -0.10967236
v -0.11482350 0.29789503 0.00833073
v -0.05650041 -0.07084422 -0.08087320
v -0.06185633 -0.08194799 -0.08674536
v -0.04671116 -0.09691010 -0.06009711
v 0.04360294 -0.12081211 -0.14555702
v 0.00563197 0.43803634 -0.04405817
v -0.10327004 0.31624358 -0.02788868
v 0.05181597 -0.08898389 -0.14155677
v -0.06126208 0.06238105 -0.08683279
v -0.00051491 -0.42964580 0.14783486
v -0.03175841 -0.45347380 0.03327317
v 0.04006307 -0.08135159 -0.15603450
v -0.09803349 0.25846153 0.01960710
v 0.06244655 -0.24818666 -0.10428215
v 0.05896239 -0.24736662 -0.11198734
v -0.06191058 0.18937763 -0.07805936
v -0.08490755 0.30492934 -0.05820708
v -0.08711310 0.30983337 -0.05450812
v 0.03673491 0.36564090 0.11548604
v 0.04105755 0.31852501 -0.10538060
v -0.05934743 -0.07559801 -0.09496362
v -0.00026890 -0.43012236 0.14847515
v 0.04218714 -0.33702731 -0.10799643
v -0.08879553 -0.32150145 -0.05624684
v -0.02682541 0.40895232 -0.07378622
v 0.03047887 0.18697367 -0.03205445
v 0.04009578 0.19043340 -0.03059515
v 0.06808523 0.22355514 -0.02725353
v -0.04008754 -0.08150826 -0.15646943
v -0.04983311 0.06202774 -0.14024132
v 0.09545200 0.24317900 0.08174500
v 0.08432327 -0.29554722 -0.06216637
v 0.05487616 0.12394100 -0.13341366
v -0.00746294 -0.41910850 0.14076884
v 0.03787208 -0.33579806 -0.11020516
v -0.00313933 -0.43371831 0.15080919
v 0.00120094 -0.43336329 0.15072984
v -0.01748261 -0.43338856 0.13497595
v -0.00870634 -0.43621537 0.14636754
v 0.02418081 0.16357750 -0.04863451
v 0.00030895 0.43907103 -0.04014849
v -0.00266630 -0.43182577 0.14942846
v -0.00315634 -0.43043621 0.14895356
v -0.00426907 -0.43127837 0.14826278
v 0.06381950 -0.44446626 0.05426458
v -0.12160225 -0.31523127 0.00810549
v -0.10679235 -0.27578815 0.00606210
v -0.02517169 -0.07562018 -0.05525923
v 0.00218351 -0.43195266 0.14951261
v -0.03033367 0.22864786 -0.12915726
v -0.03648094 -0.38045609 0.13421233
v 0.03428235 0.35978456 0.11393144
v 0.08259506 -0.36034474 0.12394246
v 0.07680469 -0.43514431 0.03404934
v -0.03057128 0.36237044 0.11509834
v -0.04779723 -0.03515855 -0.15268187
v 0.00841160 0.44019154 -0.04018326
v 0.04027762 0.36123459 0.11404846
v -0.02376897 -0.09645677 -0.05669575
v -0.02251437 -0.43587755 0.13188829
v 0.03460370 -0.25016662 0.09221909
v -0.00063330 -0.43040483 0.14877379
v -0.08833196 -0.26628983 -0.03561813
v 0.04035525 0.18119682 -0.03692945
v -0.03818030 0.09060735 -0.15179666
v -0.03414332 0.11915317 -0.14576064
v -0.10875870 -0.39410115 0.10996667
v 0.00770767 0.42522348 -0.05897185
v -0.01928582 -0.43565503 0.13310360
v 0.00843038 0.42079004 -0.06316356
v -0.00163085 -0.43117950 0.14946121
v -0.00744245 -0.43166995 0.14719367
f 1 3 2
f 6 7 8
f 11 12 13
f 16 17 18
f 20 21 19
f 22 23 24
f 26 27 28
f 29 30 31
f 34 35 36
f 7 33 32
f 39 40 41
f 43 44 45
f 48 49 50
f 55 56 57
f 58 59 60
f 61 62 63
f 64 65 66
f 71 72 70
f 73 74 75
f 76 77 78
f 80 81 82
f 89 90 91
f 92 35 34
f 93 94 95
f 88 35 92
f 97 98 99
f 106 107 37
f 34 108 109
f 110 35 88
f 111 112 113
f 114 115 116
f 118 74 73
f 119 120 121
f 65 12 11
f 124 126 125
f 100 7 32
f 128 17 129
f 134 135 136
f 94 137 95
f 23 138 24
f 14 15 113
f 143 144 145
f 93 146 94
f 83 147 148
f 69 151 92
f 48 50 23
f 25 152 153
f 155 156 86
f 157 159 158
f 160 161 162
f 165 136 166
f 167 168 110
f 170 171 172
f 174 76 175
f 176 177 178
f 179 140 180
f 181 182 183
f 105 186 1
f 187 188 189
f 190 170 191
f 15 193 113
f 194 195 196
f 139 95 67
f 140 197 198
f 199 200 201
f 202 203 204
f 36 35 110
f 105 205 17
f 200 206 207
f 208 209 210
f 211 212 213
f 214 215 216
f 217 218 155
f 218 156 155
f 46 47 219
f 174 77 76
f 224 225 65
f 226 227 86
f 228 177 229
f 230 231 232
f 233 28 234
f 235 236 237
f 238 239 240
f 241 242 243
f 244 245 246
f 112 247 172
f 18 248 16
f 8 7 100
f 106 5 107
f 249 250 251
f 249 253 254
f 25 255 188
f 256 195 257
f 60 151 68
f 6 8 192
f 258 28 233
f 259 260 53
f 5 261 4
f 262 263 264
f 265 266 267
f 274 138 50
f 275 245 276
f 277 278 279
f 280 281 127
f 152 25 188
f 282 283 284
f 285 286 287
f 181 61 288
f 40 291 292
f 188 255 189
f 294 118 271
f 295 296 144
f 87 298 297
f 1 299 300
f 262 71 263
f 301 302 142
f 304 146 255
f 305 126 306
f 63 183 182
f 14 123 15
f 142 291 40
f 57 312 313
f 314 1 186
f 57 317 312
f 76 78 318
f 319 320 36
f 227 321 86
f 322 230 232
f 273 171 272
f 139 250 95
f 18 17 325
f 326 327 316
f 328 329 330
f 65 11 224
f 289 75 290
f 306 126 124
f 332 333 238
f 289 73 75
f 334 84 335
f 96 250 249
f 336 337 338
f 251 250 139
f 339 340 341
f 134 342 135
f 305 212 126
f 212 344 126
f 213 306 185
f 345 321 227
f 346 347 348
f 308 162 349
f 67 45 139
f 350 351 66
f 343 352 353
f 354 28 127
f 339 355 340
f 185 306 149
f 50 138 23
f 358 359 360
f 123 14 122
f 361 362 363
f 5 4 364
f 365 366 367
f 367 366 211
f 368 83 369
f 175 370 174
f 288 182 181
f 37 153 106
f 153 37 38
f 57 56 317
f 376 377 372
f 114 378 379
f 366 158 212
f 158 344 212
f 367 380 365
f 36 381 108
f 358 382 383
f 92 151 13
f 384 330 385
f 343 387 386
f 63 182 288
f 343 286 352
f 103 390 391
f 143 393 144
f 138 282 394
f 282 395 394
f 39 397 396
f 398 399 400
f 354 26 28
f 118 73 403
f 297 298 405
f 298 406 405
f 407 84 309
f 70 72 162
f 222 131 223
f 263 71 389
f 162 308 70
f 191 409 410
f 411 338 337
f 412 292 291
f 413 27 26
f 416 355 339
f 255 417 304
f 418 405 406
f 419 314 196
f 314 420 196
f 421 422 423
f 85 424 169
f 287 425 426
f 427 131 130
f 323 252 428
f 105 17 16
f 400 429 52
f 170 247 191
f 172 247 170
f 430 431 432
f 433 268 434
f 47 46 105
f 86 298 87
f 68 151 69
f 21 437 19
f 438 260 439
f 260 440 439
f 441 442 223
f 443 287 444
f 445 446 447
f 129 217 128
f 217 448 128
f 154 449 267
f 111 113 193
f 1 205 105
f 450 325 17
f 451 349 162
f 313 452 453
f 341 340 454
f 252 455 456
f 457 180 198
f 459 373 284
f 461 158 462
f 385 330 463
f 204 464 202
f 327 323 428
f 78 466 318
f 469 427 130
f 470 23 22
f 108 34 36
f 471 472 99
f 458 467 473
f 438 203 474
f 284 475 459
f 476 132 133
f 429 477 51
f 478 479 397
f 480 163 61
f 481 482 483
f 197 161 457
f 484 281 280
f 485 295 227
f 486 178 356
f 475 487 488
f 275 393 414
f 390 489 187
f 61 63 288
f 490 117 476
f 289 424 73
f 21 376 437
f 491 88 492
f 243 242 363
f 494 495 496
f 497 163 164
f 498 499 500
f 197 457 198
f 211 366 212
f 227 246 345
f 214 216 501
f 502 503 173
f 505 506 507
f 373 508 99
f 509 510 511
f 236 512 513
f 119 503 270
f 515 516 39
f 356 215 214
f 380 517 518
f 274 50 49
f 519 520 132
f 72 160 162
f 522 415 458
f 301 40 388
f 258 233 15
f 407 230 194
f 513 524 442
f 316 410 409
f 154 269 374
f 527 37 338
f 413 315 27
f 140 528 197
f 529 530 531
f 407 309 230
f 523 291 142
f 117 371 532
f 452 246 245
f 121 173 119
f 388 533 290
f 534 535 536
f 436 537 447
f 154 374 335
f 51 52 429
f 408 115 514
f 213 212 305
f 438 474 260
f 538 539 540
f 263 424 289
f 187 542 541
f 508 543 99
f 544 357 444
f 369 480 31
f 124 546 283
f 521 209 208
f 9 10 548
f 127 549 354
f 143 414 393
f 353 352 550
f 238 394 239
f 394 395 239
f 202 464 220
f 355 551 552
f 315 413 316
f 413 553 554
f 553 555 554
f 554 555 316
f 316 413 554
f 468 556 104
f 549 127 557
f 255 146 189
f 274 49 282
f 558 559 453
f 560 537 436
f 518 561 365
f 399 562 500
f 380 518 365
f 563 564 565
f 215 356 178
f 566 194 230
f 270 503 271
f 533 388 516
f 568 371 476
f 274 282 138
f 518 229 561
f 569 156 570
f 521 572 571
f 161 496 495
f 39 516 388
f 541 573 574
f 158 461 344
f 296 575 576
f 577 578 508
f 578 456 508
f 459 577 373
f 373 577 508
f 13 151 310
f 31 531 207
f 532 371 390
f 579 473 104
f 580 437 581
f 8 131 192
f 88 582 167
f 173 503 119
f 239 395 284
f 377 54 372
f 85 583 271
f 45 67 43
f 129 17 584
f 17 585 584
f 220 464 221
f 77 174 272
f 334 587 84
f 48 23 470
f 208 210 221
f 403 424 85
f 589 213 590
f 169 424 263
f 73 424 403
f 394 24 138
f 542 187 489
f 341 454 545
f 115 592 514
f 114 592 115
f 593 594 52
f 326 595 323
f 52 51 593
f 70 389 71
f 596 375 597
f 589 359 358
f 125 546 124
f 484 163 369
f 262 264 494
f 502 537 560
f 600 601 602
f 601 603 602
f 604 605 356
f 222 442 524
f 92 492 88
f 111 247 112
f 192 131 427
f 607 608 609
f 573 382 358
f 610 611 547
f 68 612 60
f 6 615 614
f 616 222 524
f 55 617 371
f 371 489 390
f 368 147 83
f 268 154 266
f 326 316 555
f 619 605 620
f 621 622 623
f 622 624 623
f 467 458 468
f 221 464 625
f 32 375 100
f 626 453 627
f 163 62 61
f 399 242 241
f 20 376 21
f 167 20 19
f 20 377 376
f 314 299 1
f 419 256 314
f 256 299 314
f 628 157 525
f 441 236 513
f 58 612 629
f 226 156 227
f 226 86 156
f 630 631 632
f 631 633 632
f 300 299 256
f 214 501 392
f 634 547 401
f 268 269 154
f 635 379 611
f 636 605 604
f 637 638 208
f 38 404 25
f 520 639 465
f 99 543 640
f 102 641 103
f 400 618 429
f 309 493 230
f 287 443 425
f 295 643 227
f 10 644 548
f 326 648 595
f 116 649 114
f 307 96 652
f 29 31 480
f 653 130 654
f 336 107 655
f 310 151 60
f 568 55 371
f 273 272 324
f 656 657 434
f 476 117 132
f 658 66 54
f 54 377 658
f 167 110 88
f 659 660 661
f 69 34 460
f 160 72 71
f 48 662 49
f 663 386 664
f 491 582 88
f 532 103 641
f 666 512 236
f 516 515 533
f 667 668 669
f 670 671 661
f 433 434 672
f 673 675 674
f 266 154 267
f 451 629 349
f 199 676 588
f 252 456 353
f 520 668 307
f 638 521 208
f 416 677 355
f 677 551 355
f 678 679 674
f 473 467 104
f 213 305 306
f 65 680 350
f 451 528 681
f 679 682 673
f 673 674 679
f 303 178 177
f 684 380 367
f 685 93 435
f 686 386 488
f 466 78 687
f 234 688 233
f 652 254 689
f 432 690 430
f 691 479 478
f 160 496 161
f 692 260 221
f 162 161 197
f 376 693 437
f 396 479 79
f 398 400 562
f 419 195 256
f 120 119 6
f 6 119 7
f 25 404 255
f 211 694 367
f 180 140 198
f 695 196 420
f 696 697 698
f 699 661 671
f 700 701 702
f 335 449 154
f 337 657 411
f 217 584 218
f 28 27 234
f 174 426 703
f 412 562 400
f 704 705 706
f 707 708 469
f 709 114 379
f 557 83 148
f 336 655 337
f 303 177 104
f 60 612 58
f 130 653 469
f 278 303 104
f 710 268 711
f 266 711 268
f 142 712 523
f 596 100 375
f 658 582 66
f 66 582 491
f 658 377 167
f 377 20 167
f 658 167 582
f 253 401 689
f 401 253 634
f 634 253 249
f 713 149 306
f 617 489 371
f 714 392 715
f 716 555 553
f 717 710 711
f 319 36 110
f 718 719 283
f 591 721 720
f 45 711 135
f 45 44 711
f 585 17 205
f 594 722 723
f 722 724 723
f 30 531 31
f 555 725 326
f 725 607 326
f 319 110 168
f 512 726 513
f 222 223 442
f 418 406 727
f 324 638 728
f 729 730 731
f 71 262 160
f 262 496 160
f 457 161 495
f 566 257 195
f 640 732 99
f 609 732 645
f 645 732 595
f 733 591 473
f 441 223 237
f 734 434 402
f 461 126 344
f 710 434 268
f 736 432 737
f 223 8 237
f 254 253 689
f 738 739 402
f 238 240 332
f 240 740 332
f 472 373 99
f 373 740 240
f 741 155 86
f 429 241 477
f 618 241 429
f 76 318 742
f 665 115 408
f 22 744 743
f 386 387 664
f 663 488 386
f 343 664 387
f 459 745 353
f 459 475 745
f 475 664 745
f 664 343 353
f 746 706 747
f 706 705 747
f 469 748 614
f 419 196 195
f 397 479 396
f 93 141 435
f 749 190 327
f 750 751 529
f 25 153 38
f 640 323 595
f 99 732 97
f 97 732 609
f 238 752 394
f 330 329 463
f 629 612 68
f 448 754 649
f 754 378 649
f 69 92 34
f 755 547 567
f 315 688 234
f 490 371 117
f 490 476 371
f 729 731 756
f 731 757 756
f 541 188 187
f 495 724 457
f 163 480 369
f 325 128 116
f 158 159 462
f 472 439 740
f 240 239 284
f 373 240 284
f 31 758 369
f 655 385 337
f 44 717 711
f 656 717 43
f 717 44 43
f 411 656 43
f 430 690 149
f 551 759 760
f 184 690 735
f 354 674 675
f 354 675 26
f 26 675 673
f 441 513 442
f 545 454 181
f 761 183 422
f 483 9 548
f 227 643 244
f 263 389 169
f 762 731 730
f 437 676 581
f 763 590 764
f 322 232 468
f 414 766 415
f 414 143 766
f 766 143 145
f 230 766 145
f 175 76 550
f 76 742 550
f 466 742 318
f 550 742 353
f 252 742 466
f 353 742 252
f 672 434 734
f 280 127 28
f 683 493 309
f 628 159 157
f 596 389 70
f 767 526 528
f 724 722 457
f 768 383 347
f 769 770 335
f 771 772 3
f 497 164 123
f 319 168 320
f 478 494 691
f 42 773 613
f 636 620 605
f 194 566 195
f 231 775 232
f 346 348 776
f 63 62 293
f 666 8 100
f 777 778 760
f 321 345 312
f 313 312 345
f 345 246 313
f 313 246 452
f 365 561 620
f 16 47 105
f 216 215 779
f 278 779 178
f 178 779 215
f 278 178 303
f 780 770 769
f 104 467 468
f 507 552 551
f 368 781 147
f 722 782 180
f 457 722 180
f 446 422 183
f 783 628 525
f 784 628 783
f 433 672 268
f 764 785 184
f 786 189 146
f 350 66 65
f 469 787 748
f 614 615 469
f 469 615 192
f 192 615 6
f 427 469 192
f 451 197 528
f 334 788 789
f 557 372 790
f 479 691 79
f 323 455 252
f 455 543 456
f 543 508 456
f 304 137 94
f 336 37 107
f 350 680 791
f 791 225 311
f 791 680 225
f 680 65 225
f 335 770 334
f 59 11 310
f 631 792 633
f 323 793 326
f 326 793 327
f 327 793 323
f 453 559 57
f 421 339 422
f 795 715 796
f 754 448 741
f 776 489 346
f 489 617 346
f 797 798 24
f 111 193 409
f 193 688 409
f 316 688 315
f 316 409 688
f 193 233 688
f 193 15 233
f 460 34 109
f 230 322 799
f 799 766 230
f 791 351 350
f 351 791 800
f 351 54 66
f 678 791 679
f 682 679 791
f 791 311 682
f 720 458 473
f 483 801 9
f 257 566 230
f 802 803 130
f 383 42 358
f 783 386 784
f 386 686 784
f 786 391 189
f 292 41 40
f 598 804 150
f 553 805 716
f 805 806 716
f 24 394 752
f 217 741 448
f 752 333 24
f 356 605 486
f 807 589 358
f 423 422 446
f 597 32 270
f 295 808 296
f 752 238 333
f 270 271 597
f 809 810 283
f 159 628 462
f 628 811 462
f 784 811 628
f 812 462 784
f 462 811 784
f 343 386 783
f 783 525 343
f 309 804 683
f 753 499 813
f 148 147 101
f 131 8 223
f 580 581 814
f 581 815 814
f 736 359 590
f 359 589 590
f 129 584 217
f 795 278 651
f 816 698 817
f 698 818 817
f 819 514 820
f 216 796 501
f 576 771 3
f 821 814 469
f 384 107 330
f 822 594 593
f 663 664 488
f 638 324 521
f 283 784 718
f 823 139 45
f 374 769 335
f 824 123 644
f 451 681 58
f 451 162 197
f 451 58 629
f 825 87 567
f 149 690 185
f 168 19 826
f 202 220 203
f 471 438 472
f 438 439 472
f 471 99 203
f 219 827 265
f 828 75 436
f 84 804 309
f 821 469 653
f 534 536 625
f 505 507 757
f 381 829 222
f 534 625 830
f 763 764 735
f 589 211 213
f 691 831 79
f 708 833 832
f 259 440 260
f 799 415 766
f 799 458 415
f 468 458 322
f 760 778 757
f 249 254 96
f 834 835 836
f 837 444 287
f 287 286 837
f 18 838 248
f 500 562 839
f 343 837 286
f 569 575 808
f 569 808 156
f 808 575 296
f 725 608 607
f 416 748 677
f 823 665 408
f 311 361 682
f 840 841 842
f 667 669 843
f 844 109 381
f 794 780 739
f 614 748 845
f 59 310 60
f 19 580 846
f 82 89 80
f 343 848 847
f 828 436 447
f 295 144 393
f 727 406 835
f 406 298 835
f 849 772 771
f 832 623 850
f 623 777 850
f 412 291 562
f 852 369 83
f 286 285 853
f 852 281 484
f 686 718 784
f 426 174 287
f 578 353 456
f 577 459 578
f 854 323 640
f 307 639 520
f 336 338 37
f 2 3 772
f 95 250 843
f 421 855 856
f 657 656 411
f 761 181 183
f 83 281 852
f 461 125 126
f 619 486 605
f 486 619 178
f 595 648 607
f 802 829 803
f 802 131 222
f 803 829 654
f 478 397 495
f 857 714 715
f 683 804 598
f 858 381 222
f 802 130 131
f 485 227 156
f 228 229 599
f 286 853 352
f 520 465 133
f 218 570 156
f 543 455 854
f 276 859 393
f 719 487 284
f 334 789 587
f 789 804 587
f 453 452 627
f 30 750 529
f 835 298 86
f 207 201 200
f 403 271 118
f 191 247 111
f 670 661 660
f 860 861 862
f 327 190 316
f 190 410 316
f 586 327 428
f 445 863 423
f 477 90 140
f 576 864 145
f 141 669 668
f 294 865 560
f 866 435 141
f 306 867 713
f 358 574 573
f 868 166 135
f 621 869 622
f 683 556 775
f 201 207 871
f 872 833 708
f 873 124 283
f 533 831 289
f 645 607 609
f 249 874 634
f 259 53 440
f 728 172 324
f 450 128 325
f 357 544 875
f 848 343 525
f 343 847 837
f 500 499 753
f 560 436 876
f 877 874 249
f 477 593 51
f 773 522 720
f 702 701 112
f 834 727 835
f 291 538 562
f 432 642 737
f 218 575 570
f 569 570 575
f 749 171 190
f 329 504 463
f 497 293 62
f 200 588 206
f 326 607 648
f 878 363 242
f 830 499 498
f 156 808 485
f 808 295 485
f 201 871 199
f 587 804 84
f 847 848 544
f 414 627 245
f 879 724 495
f 289 831 263
f 529 751 731
f 674 354 549
f 500 839 498
f 234 27 315
f 695 449 335
f 496 262 494
f 400 52 41
f 764 590 213
f 258 280 28
f 501 880 392
f 830 625 881
f 625 464 881
f 153 152 360
f 360 882 153
f 360 359 882
f 271 583 597
f 283 810 873
f 281 83 127
f 132 641 883
f 756 777 624
f 416 845 748
f 64 66 491
f 133 841 476
f 38 527 404
f 527 38 37
f 417 527 338
f 404 527 417
f 884 181 454
f 659 581 676
f 497 62 163
f 2 772 849
f 630 632 886
f 515 831 533
f 676 199 659
f 437 588 676
f 432 431 642
f 524 513 726
f 881 499 830
f 117 641 132
f 6 614 845
f 884 506 750
f 506 751 750
f 763 735 432
f 764 184 735
f 887 661 699
f 526 89 82
f 150 857 598
f 823 45 135
f 519 883 141
f 128 649 116
f 755 87 297
f 265 827 166
f 90 528 140
f 631 647 792
f 497 824 293
f 881 464 204
f 74 294 560
f 682 878 673
f 512 666 726
f 333 426 425
f 655 384 385
f 481 644 870
f 474 203 220
f 97 204 98
f 279 556 683
f 720 721 773
f 48 470 662
f 481 870 482
f 888 61 181
f 9 523 698
f 13 310 11
f 889 70 308
f 70 890 596
f 596 890 889
f 889 890 70
f 204 97 813
f 883 641 141
f 175 853 285
f 33 891 270
f 537 863 445
f 601 892 893
f 789 788 804
f 788 894 804
f 74 876 75
f 568 476 841
f 720 473 591
f 895 750 30
f 191 410 190
f 434 657 402
f 172 171 273
f 692 221 896
f 583 389 597
f 844 897 460
f 812 125 462
f 271 503 865
f 870 644 122
f 447 537 445
f 691 494 264
f 328 4 329
f 242 898 899
f 637 606 702
f 894 788 149
f 761 422 339
f 483 548 481
f 275 276 393
f 895 900 750
f 813 881 204
f 813 499 881
f 52 723 41
f 696 698 816
f 901 902 134
f 510 588 437
f 862 886 903
f 64 491 12
f 444 904 443
f 787 708 759
f 171 77 272
f 838 902 248
f 401 405 905
f 662 873 809
f 873 810 809
f 108 381 109
f 168 167 19
f 460 897 765
f 2 205 1
f 898 242 399
f 221 474 220
f 52 594 723
f 901 134 136
f 290 818 906
f 649 378 114
f 519 132 883
f 294 74 118
f 506 505 751
f 415 522 907
f 889 308 349
f 558 768 346
f 768 347 346
f 385 739 738
f 713 857 150
f 866 141 641
f 891 33 7
f 55 909 908
f 271 865 294
f 562 538 839
f 901 165 219
f 228 104 177
f 524 765 897
f 3 1 576
f 755 297 405
f 910 798 904
f 825 379 378
f 529 531 30
f 911 862 912
f 205 2 585
f 29 480 30
f 548 10 481
f 484 280 164
f 280 123 164
f 484 164 163
f 685 435 391
f 434 710 656
f 710 717 656
f 683 775 493
f 468 232 775
f 49 662 809
f 713 150 149
f 875 848 525
f 393 859 295
f 843 669 93
f 388 40 39
f 171 78 77
f 379 913 709
f 907 914 915
f 447 817 828
f 221 260 474
f 916 290 75
f 339 845 416
f 917 918 919
f 918 867 919
f 169 389 583
f 365 920 157
f 671 869 921
f 759 850 760
f 850 777 760
f 369 758 781
f 364 4 328
f 258 123 280
f 258 15 123
f 896 53 260
f 896 210 53
f 283 282 809
f 382 348 383
f 348 347 383
f 683 598 331
f 493 231 230
f 510 101 206
f 101 147 781
f 10 548 481
f 681 528 526
f 458 799 322
f 561 229 177
f 176 178 619
f 54 790 372
f 816 817 922
f 321 312 836
f 836 835 86
f 448 649 128
f 329 4 739
f 86 321 836
f 172 273 324
f 695 420 449
f 695 335 84
f 165 166 827
f 504 329 739
f 157 636 923
f 895 30 480
f 895 480 61
f 317 836 312
f 509 148 101
f 265 166 266
f 745 664 353
f 684 599 380
f 589 807 694
f 899 898 399
f 786 146 93
f 786 93 685
f 786 685 391
f 439 440 924
f 771 576 575
f 635 913 379
f 925 892 647
f 9 697 696
f 174 370 287
f 374 269 769
f 269 734 769
f 355 552 340
f 825 926 87
f 249 631 630
f 580 821 846
f 620 561 619
f 561 176 619
f 177 176 561
f 360 574 358
f 86 87 741
f 441 237 236
f 235 237 8
f 523 539 538
f 445 423 446
f 864 300 257
f 300 256 257
f 104 228 579
f 599 579 228
f 707 814 815
f 927 923 604
f 923 636 604
f 849 584 2
f 584 585 2
f 917 470 22
f 755 401 547
f 9 539 523
f 334 431 788
f 431 430 788
f 842 841 133
f 284 487 475
f 331 650 277
f 340 507 454
f 507 506 454
f 376 511 693
f 511 510 693
f 290 928 302
f 352 853 550
f 175 550 853
f 583 85 169
f 470 917 662
f 917 873 662
f 823 342 665
f 626 627 414
f 218 584 849
f 79 831 515
f 388 290 302
f 388 302 301
f 293 824 10
f 541 574 188
f 188 574 360
f 263 831 264
f 264 831 691
f 540 539 9
f 106 737 5
f 218 849 575
f 849 771 575
f 217 155 741
f 767 89 526
f 749 774 171
f 478 495 494
f 250 96 843
f 897 616 524
f 677 759 551
f 179 822 593
f 865 503 502
f 560 865 502
f 763 432 736
f 359 737 882
f 754 741 825
f 741 926 825
f 825 378 754
f 707 469 814
f 788 430 149
f 694 684 367
f 761 545 181
f 565 564 904
f 929 613 930
f 221 536 208
f 221 625 536
f 606 931 483
f 606 536 931
f 885 721 591
f 458 720 522
f 932 933 446
f 862 630 886
f 31 207 206
f 543 854 640
f 854 455 323
f 846 826 19
f 524 934 765
f 769 734 402
f 763 736 590
f 598 857 715
f 437 580 19
f 852 484 935
f 852 935 369
f 369 935 484
f 473 579 733
f 54 800 790
f 704 706 820
f 759 677 787
f 677 748 787
f 634 874 547
f 547 611 851
f 493 775 231
f 936 22 392
f 558 346 909
f 514 646 251
f 892 925 937
f 362 361 311
f 362 311 224
f 525 927 875
f 895 888 181
f 152 188 360
f 659 199 660
f 199 871 660
f 828 916 75
f 383 773 42
f 847 544 444
f 489 776 542
f 776 348 542
f 541 542 348
f 909 346 908
f 325 838 18
f 453 626 938
f 548 644 481
f 245 627 452
f 142 40 301
f 244 643 276
f 755 405 401
f 755 567 87
f 102 391 435
f 270 32 33
f 222 616 858
f 534 830 535
f 179 593 477
f 702 112 172
f 385 504 739
f 317 840 836
f 840 834 836
f 81 58 82
f 227 244 246
f 726 666 100
f 95 843 93
f 581 659 815
f 304 94 146
f 887 699 659
f 515 39 79
f 698 697 9
f 795 796 278
f 844 858 897
f 678 674 790
f 674 549 790
f 707 815 872
f 446 816 922
f 64 12 65
f 526 82 58
f 929 930 599
f 123 824 497
f 257 939 864
f 230 939 257
f 864 939 145
f 145 939 230
f 172 728 702
f 637 702 638
f 702 728 638
f 31 206 101
f 357 875 927
f 694 807 358
f 599 684 694
f 42 694 358
f 901 136 165
f 642 794 261
f 5 737 642
f 878 682 363
f 723 879 41
f 471 203 438
f 296 145 144
f 652 639 307
f 395 282 284
f 463 504 385
f 49 809 282
f 940 750 900
f 559 909 55
f 855 537 502
f 856 855 173
f 931 536 535
f 208 536 606
f 173 855 502
f 708 787 469
f 802 222 829
f 5 364 107
f 36 829 381
f 320 829 36
f 654 829 320
f 179 180 822
f 179 477 140
f 295 859 643
f 643 859 276
f 242 899 878
f 899 806 878
f 899 941 942
f 942 806 899
f 454 506 884
f 731 762 529
f 200 199 588
f 891 7 119
f 673 943 26
f 10 824 644
f 845 339 421
f 927 356 357
f 944 392 22
f 204 203 98
f 703 945 53
f 945 333 53
f 311 225 224
f 362 224 946
f 418 905 405
f 744 22 24
f 844 460 109
f 768 453 773
f 453 768 558
f 773 947 768
f 947 383 768
f 773 383 947
f 580 814 821
f 774 948 171
f 1 300 864
f 472 740 373
f 949 647 646
f 128 450 17
f 365 158 366
f 58 681 526
f 950 414 415
f 211 589 694
f 81 224 58
f 951 912 952
f 538 291 523
f 80 224 81
f 595 607 645
f 701 113 112
f 265 267 46
f 696 932 293
f 932 63 293
f 696 293 10
f 696 10 9
f 932 183 63
f 425 443 797
f 866 641 102
f 102 435 866
f 1 864 576
f 4 794 739
f 576 145 296
f 331 598 715
f 719 284 283
f 686 487 718
f 487 719 718
f 47 16 901
f 248 902 16
f 739 780 402
f 69 629 68
f 553 413 805
f 805 413 26
f 444 837 847
f 544 848 875
f 6 856 120
f 880 501 796
f 98 203 99
f 915 950 907
f 907 950 415
f 950 626 414
f 773 907 522
f 773 914 907
f 111 409 191
f 953 820 514
f 761 339 341
f 761 341 545
f 954 860 912
f 860 911 912
f 168 826 320
f 320 826 654
f 813 955 753
f 97 955 813
f 609 608 955
f 609 955 97
f 507 551 757
f 551 760 757
f 397 39 41
f 113 122 14
f 461 462 125
f 686 488 487
f 565 904 444
f 101 758 31
f 781 758 101
f 261 794 4
f 931 535 801
f 535 540 801
f 621 623 956
f 170 190 171
f 275 414 245
f 700 702 606
f 700 606 483
f 67 95 43
f 369 781 368
f 397 41 879
f 397 879 495
f 510 437 693
f 510 206 588
f 332 924 333
f 924 440 53
f 333 924 53
f 439 924 740
f 332 740 924
f 957 958 959
f 782 722 594
f 724 879 723
f 180 594 822
f 180 782 594
f 401 905 465
f 905 960 465
f 267 962 961
f 856 173 121
f 500 899 399
f 243 363 90
f 521 571 209
f 572 53 571
f 166 136 135
f 165 827 219
f 389 596 597
f 453 57 313
f 57 559 55
f 22 936 917
f 918 917 936
f 392 918 936
f 279 278 104
f 279 104 556
f 683 277 279
f 517 380 599
f 769 402 780
f 359 736 737
f 186 961 314
f 961 46 267
f 961 186 105
f 873 963 124
f 803 654 130
f 867 714 713
f 714 857 713
f 635 611 913
f 87 926 741
f 863 855 421
f 703 272 174
f 426 945 703
f 333 945 426
f 600 602 964
f 602 952 964
f 488 664 475
f 821 653 846
f 653 826 846
f 826 653 654
f 537 855 863
f 421 423 863
f 283 546 784
f 915 626 950
f 915 914 938
f 938 626 915
f 914 773 453
f 216 779 796
f 796 779 278
f 331 715 650
f 880 715 392
f 880 796 715
f 365 157 158
f 916 818 290
f 946 224 80
f 729 622 730
f 632 903 886
f 586 948 774
f 244 276 245
f 364 328 330
f 858 844 381
f 39 396 79
f 897 858 616
f 872 708 707
f 910 904 564
f 682 361 363
f 103 391 102
f 189 391 390
f 845 856 6
f 599 733 579
f 340 552 507
f 599 694 42
f 564 743 798
f 443 904 797
f 904 798 797
f 910 564 798
f 540 498 538
f 498 839 538
f 535 830 540
f 830 498 540
f 9 801 540
f 931 801 483
f 573 541 348
f 382 573 348
f 908 346 617
f 908 617 55
f 916 828 817
f 916 817 818
f 122 482 870
f 122 965 482
f 47 901 219
f 408 966 823
f 966 408 514
f 966 514 251
f 823 966 139
f 966 251 139
f 823 135 342
f 623 624 777
f 491 492 12
f 867 918 714
f 349 967 889
f 375 32 597
f 392 714 918
f 307 843 96
f 141 968 669
f 669 968 93
f 93 968 141
f 390 187 189
f 923 525 157
f 532 641 117
f 390 103 532
f 775 556 468
f 292 400 41
f 840 317 56
f 56 55 568
f 56 568 840
f 568 841 840
f 969 834 840
f 840 842 969
f 418 727 969
f 727 834 969
f 418 969 960
f 969 842 960
f 842 465 960
f 842 133 465
f 586 774 327
f 362 946 91
f 923 927 525
f 356 927 604
f 596 970 100
f 100 970 726
f 889 970 596
f 726 970 889
f 938 914 453
f 171 948 687
f 171 687 78
f 944 357 356
f 392 944 214
f 356 214 944
f 425 797 333
f 333 797 24
f 362 91 363
f 500 941 899
f 943 673 878
f 26 943 805
f 943 878 806
f 806 805 943
f 642 431 794
f 334 770 431
f 794 431 780
f 431 770 780
f 774 749 327
f 646 249 251
f 812 784 125
f 784 546 125
f 149 150 804
f 149 804 894
f 403 85 271
f 888 895 61
f 785 213 185
f 289 290 533
f 567 547 851
f 399 618 400
f 398 562 399
f 743 971 22
f 22 971 563
f 971 564 563
f 743 564 971
f 563 565 357
f 565 444 357
f 22 563 944
f 357 944 563
f 418 960 905
f 219 265 46
f 868 135 711
f 868 266 166
f 868 711 266
f 929 599 613
f 885 930 613
f 591 930 885
f 599 930 733
f 733 930 591
f 856 121 120
f 412 400 292
f 90 477 243
f 243 477 241
f 91 90 363
f 518 517 229
f 277 650 651
f 331 277 683
f 795 651 650
f 795 650 715
f 610 547 874
f 672 734 269
f 509 101 510
f 557 790 549
f 465 639 652
f 972 872 671
f 872 699 671
f 825 567 379
f 620 636 920
f 620 920 365
f 792 892 633
f 517 599 229
f 12 492 13
f 13 492 92
f 856 845 421
f 687 948 252
f 466 687 252
f 252 948 428
f 428 948 586
f 185 690 184
f 965 701 482
f 701 700 482
f 700 483 482
f 965 113 701
f 965 122 113
f 637 208 606
f 874 877 610
f 773 721 613
f 613 721 885
f 80 89 91
f 667 843 307
f 667 307 668
f 652 96 254
f 465 652 401
f 652 689 401
f 520 141 668
f 520 133 132
f 519 141 520
f 767 90 89
f 80 91 946
f 241 618 399
f 558 909 559
f 765 69 460
f 270 891 119
f 884 940 900
f 884 900 181
f 181 900 895
f 920 636 157
f 436 75 876
f 560 876 74
f 967 934 889
f 765 934 973
f 889 934 726
f 726 934 524
f 629 973 349
f 973 967 349
f 973 934 967
f 765 973 69
f 69 973 629
f 735 690 432
f 919 963 873
f 919 873 917
f 124 963 974
f 867 974 919
f 974 963 919
f 306 974 867
f 124 974 306
f 709 592 114
f 709 514 592
f 709 975 514
f 372 511 376
f 511 372 148
f 928 142 302
f 906 818 712
f 142 906 712
f 928 906 142
f 290 906 928
f 712 698 523
f 712 818 698
f 660 871 530
f 364 330 107
f 557 148 372
f 351 800 54
f 678 790 791
f 790 800 791
f 901 16 902
f 42 613 599
f 175 285 370
f 235 666 236
f 235 8 666
f 95 137 43
f 43 137 411
f 304 417 137
f 417 976 137
f 417 338 976
f 137 976 411
f 976 338 411
f 922 817 447
f 446 922 447
f 933 816 446
f 446 183 932
f 932 696 816
f 933 932 816
f 370 285 287
f 925 746 977
f 746 958 977
f 877 630 862
f 978 695 84
f 194 196 978
f 196 695 978
f 194 978 407
f 84 407 978
f 732 640 595
f 24 798 744
f 743 744 798
f 851 379 567
f 385 738 337
f 738 402 657
f 738 657 337
f 555 716 725
f 716 979 725
f 942 941 979
f 716 806 942
f 942 979 716
f 941 500 753
f 941 753 955
f 979 608 725
f 608 979 955
f 979 941 955
f 59 58 224
f 59 224 11
f 505 731 751
f 692 896 260
f 896 221 210
f 571 53 210
f 571 210 209
f 53 572 980
f 981 521 324
f 980 981 272
f 981 324 272
f 53 980 703
f 272 703 980
f 572 981 980
f 521 981 572
f 277 651 278
f 5 642 261
f 106 153 882
f 882 737 106
f 884 750 940
f 213 785 764
f 185 184 785
f 314 961 420
f 961 962 420
f 961 105 46
f 962 449 420
f 672 269 268
f 83 557 127
f 962 267 449
f 134 838 342
f 342 838 982
f 982 838 325
f 116 982 325
f 838 134 902
f 342 982 665
f 116 115 982
f 982 115 665
f 833 872 972
f 249 630 877
f 937 925 977
f 699 872 659
f 872 815 659
f 122 644 123
f 975 709 913
f 578 459 353
f 832 956 623
f 621 956 869
f 956 921 869
f 379 851 611
f 862 861 611
f 972 671 921
f 531 530 207
f 530 871 207
f 660 530 983
f 600 964 633
f 984 913 860
f 913 861 860
f 659 661 887
f 611 861 913
f 975 913 984
f 937 977 892
f 925 647 746
f 647 631 249
f 833 972 956
f 972 921 956
f 862 610 877
f 850 708 832
f 708 850 759
f 983 529 762
f 530 985 983
f 529 985 530
f 983 985 529
f 983 730 660
f 730 670 660
f 762 730 983
f 646 647 249
f 958 986 977
f 862 611 610
f 792 647 892
f 730 622 869
f 903 912 862
f 603 601 893
f 957 951 986
f 951 602 986
f 600 633 601
f 964 632 633
f 892 601 633
f 903 632 952
f 632 964 952
f 952 912 903
f 953 975 984
f 778 777 756
f 729 756 622
f 756 624 622
f 949 646 514
f 977 893 892
f 746 747 958
f 893 977 603
f 986 602 977
f 602 603 977
f 602 951 952
f 954 987 860
f 987 704 860
f 747 705 958
f 705 959 958
f 953 514 975
f 767 528 90
f 833 956 832
f 704 820 953
f 655 107 384
f 911 860 862
f 951 957 987
f 957 959 987
f 954 912 951
f 987 705 704
f 819 820 746
f 820 706 746
f 959 705 987
f 778 756 757
f 671 670 869
f 670 730 869
f 731 505 757
f 949 514 647
f 404 417 255
f 819 647 514
f 819 746 647
f 953 984 704
f 984 860 704
f 954 951 987
f 986 958 957
f 509 511 148

