# OBJ export from PMP
v -0.0660680830 -0.2097476870 -0.1825581491
v -0.0651800036 0.2900500000 -0.2741770148
v 0.0996749103 0.0816812739 -0.1524756253
v 0.1248497218 0.2435700446 0.0204288717
v 0.1274671555 0.2377160788 0.0993196592
v 0.1912070066 -0.2198520005 -0.1732960045
v 0.1899719983 -0.2627820075 -0.1949680001
v 0.1922975034 -0.2210765034 -0.2007209957
v -0.0481698960 -0.2026738673 -0.2052468956
v 0.1014479175 0.1052562073 -0.1337983161
v 0.1348644346 0.1903205663 0.0949803069
v 0.1256459206 0.2303045094 -0.0129849985
v 0.1089550033 0.0950210020 -0.0077720000
v -0.1559129953 -0.2593606710 0.0690183342
v -0.1550650001 -0.2174769938 0.0709920004
v -0.1635230035 -0.2189110070 0.0284550004
v 0.0105050001 -0.1988459975 0.3416329920
v -0.0462444499 -0.1781904846 0.3476394713
v -0.0462127030 -0.2152659446 0.3464574218
v -0.0614960007 -0.2352409959 -0.3420189917
v -0.0411454998 -0.2668715119 -0.3434644938
v -0.0824939981 -0.2664510012 -0.3426960111
v 0.0999742150 0.0902278274 -0.1359091997
v 0.1065800786 0.2058127075 -0.1960360557
v -0.1141897738 0.2208650559 0.0060933717
v 0.0928838924 0.2074874192 -0.2397348434
v 0.0792630985 0.0327516831 -0.2464745045
v 0.0830892324 -0.2165939212 -0.0265528187
v 0.0860010013 0.2286719978 0.2578299940
v 0.1131960005 0.0936940014 0.0165390000
v 0.1073364690 0.2411210835 -0.1349876672
v 0.1163841859 0.1810085177 -0.1194239929
v 0.1044148952 0.2540596128 -0.1761123836
v 0.1166508645 0.2068900466 -0.1530763656
v -0.0569642968 -0.3090252876 0.1412597895
v -0.0822256505 0.1720702499 0.3322719634
v 0.0638438836 -0.3288625777 -0.1124342233
v -0.1008580029 -0.1051520035 0.3204270005
v -0.1878139973 -0.3028540015 -0.2554860115
v -0.1912360042 -0.2636129856 -0.2499630004
v 0.1777970046 -0.2178229988 -0.0156150004
v 0.1748369932 -0.2603160143 -0.0102209998
v -0.0697911233 -0.3273639083 -0.0550454520
v 0.0530421026 -0.3270452917 -0.1667278856
v 0.0903751925 0.2820520997 -0.0885601342
v -0.0796910226 -0.1980440021 -0.1975006312
v 0.1485790014 -0.1948210001 0.1569740027
v 0.1461499929 -0.1870830059 0.1698430032
v 0.0993089974 0.0852899998 -0.0552639998
v 0.1043289974 0.0923380032 -0.0318140015
v -0.0745156109 -0.3179919422 0.0510613546
v -0.0690788850 -0.3213513494 0.0221019518
v 0.0060235714 -0.3022944331 0.0433685668
v -0.1140977219 -0.2021944821 -0.2023027092
v 0.1190134063 0.2536770105 -0.0908654556
v -0.0931480899 -0.2095812857 -0.0667718649
v 0.0991946608 0.0815652311 -0.1391198784
v -0.1187686920 -0.3111579716 -0.2968588769
v -0.0452579372 0.0721351877 0.0405363739
v -0.0886220783 0.1047803462 -0.2337181568
v -0.0994155705 0.2545024157 0.0376430973
v -0.1249959990 -0.1404229999 0.2095800042
v 0.1315013766 -0.3225411177 -0.0962040350
v 0.0820702165 0.0757621154 0.0499217026
v 0.1060918495 -0.0021341445 0.3316957057
v 0.0992660373 -0.1966870874 0.3296689689
v 0.1003138125 -0.2392114997 0.3256374300
v 0.1066806987 0.2705794871 0.0245071687
v 0.1097086594 -0.3230950832 -0.2515321970
v 0.1383529603 0.1034261659 0.1762835681
v 0.1404079944 0.1367399991 0.2127122432
v 0.1393693388 0.0776523799 0.2018563747
v 0.1288398206 0.2108480036 0.1160932481
v -0.1125116348 0.2431916147 -0.0646643490
v 0.1389980018 0.2099660039 0.2568840086
v 0.1319720000 0.2193560004 0.2571150064
v 0.1185825616 0.2110081464 0.2814821005
v 0.1295990050 0.1408080012 0.0843190029
v 0.1249892488 0.1423594952 0.0411299989
v -0.1169809997 -0.2813520133 0.2615259886
v -0.1162049994 -0.3055869937 0.2614249885
v 0.0308525003 -0.2358755022 -0.3437604904
v 0.1365920007 -0.0621559992 0.2027180046
v 0.1824419945 -0.2613300085 -0.0870459974
v 0.1844519973 -0.2176924944 -0.0841900036
v 0.1817740053 -0.2173590064 -0.0542340018
v 0.0918655396 0.0575259477 -0.2174422890
v 0.0702650025 0.0523080006 -0.2822470069
v -0.0954834968 -0.2335194945 -0.3399240077
v -0.1113329977 -0.2659940124 -0.3407360017
v -0.1933880001 -0.2248339951 -0.2693879902
v 0.0883645192 -0.3139094114 0.1357546002
v 0.0073201428 -0.3021418452 0.1296831369
v 0.0485073812 -0.3082695901 0.1097463593
v 0.0807807744 0.0142426845 -0.2310198098
v 0.1036457419 -0.2126438171 -0.0167335905
v -0.1077661514 0.2585276067 0.0034189250
v -0.0989567861 0.2797170281 -0.0246435273
v -0.1756226718 -0.3035979867 -0.1208676696
v 0.1699600071 -0.3025319874 -0.3374699950
v 0.1789560020 -0.3024980128 -0.3342770040
v 0.0818929970 -0.2664520144 -0.3451510072
v 0.1223981231 -0.3134380281 -0.2798685133
v 0.0655043721 0.0352524817 0.3473831415
v -0.0830551609 -0.3122999072 0.1407884061
v 0.0761855096 -0.2144482881 -0.2737264633
v -0.1294710040 -0.2317979932 -0.3378289938
v -0.1697800010 -0.2290630043 -0.3321790099
v -0.1285099983 0.1353860050 0.2595799863
v -0.1264243275 0.0865333304 0.2595990002
v -0.1277009994 0.1347880065 0.2866730094
v 0.1041138023 -0.2132690698 -0.2565111816
v 0.1052177027 -0.0408934094 0.3281638920
v 0.1249652803 0.2338215411 0.1397784352
v -0.1121881381 0.2160534263 0.1082685068
v -0.0789560005 0.2657069862 -0.2743709981
v -0.1306480020 -0.1778919995 0.1854960024
v -0.0750903040 0.2806085944 0.0220649168
v 0.1690933257 -0.3042379916 -0.0101059973
v -0.0220794994 -0.3057165146 0.3352209926
v 0.0040788571 -0.3025232852 -0.0861032829
v -0.0443028472 -0.3219047785 -0.0833850205
v -0.0312144049 -0.3171451390 -0.1131072342
v 0.0379553400 0.2986304164 -0.2134546191
v -0.0563005768 0.2837916613 0.0667491481
v 0.0020490000 0.3057309985 -0.2252359986
v 0.0737430006 -0.2566519976 0.3352729976
v -0.0849899799 0.2580348253 0.0778386146
v 0.0897129998 -0.2566629946 0.3314270079
v 0.0757979974 0.1546549946 -0.2863779962
v 0.0993103385 -0.3297683597 -0.0953217521
v 0.0034230000 0.0251090005 -0.1319559962
v 0.0036460001 0.0454530008 -0.1169079989
v -0.1125819981 0.1439124942 0.0014205000
v 0.0493750013 -0.0246169996 -0.2832149863
v 0.0848380849 -0.1757247895 0.1547947377
v -0.0764269978 0.1546559930 -0.2841039896
v -0.0710550025 0.1550080031 -0.2894029915
v -0.0588934682 0.1373672336 -0.2911615074
v 0.1594489962 -0.2136559933 0.0973709971
v 0.1649170071 -0.2174790055 0.0662129968
v -0.1093805954 0.0479434840 0.3154978752
v 0.0882741511 -0.3351386786 -0.1503554136
v 0.0890519768 -0.3203422129 -0.2803578079
v 0.0009450000 0.2080630064 -0.2990249991
v 0.0009235000 0.1825309992 -0.3004409969
v 0.0919368342 0.2729052901 -0.1226162761
v -0.1090603098 0.2657180429 -0.0924336836
v -0.0626602992 -0.1536024809 0.1768629551
v 0.0780260712 0.2786738276 0.0368059948
v 0.0704635531 0.2853643298 0.0056789424
v -0.1055739596 0.2438801527 -0.1562892050
v -0.0867583826 0.1289718151 -0.2413776219
v -0.0932499990 0.1515350044 -0.2063460052
v -0.0866459981 0.1532229930 -0.2501460016
v 0.0965527967 -0.1389696002 0.3295713663
v 0.0723708943 0.2405607104 0.2212833613
v -0.0759127662 0.0290092938 0.3412833810
v -0.0835236534 -0.2131260633 -0.1004805118
v -0.0386256911 -0.3259905577 -0.1474538147
v 0.0034307144 -0.3025995791 -0.1292605698
v 0.0333676413 -0.3043681383 -0.3146217167
v 0.0382670015 -0.3029364944 -0.3450795114
v 0.0550683439 -0.3120221794 -0.2984661162
v 0.1095311567 -0.2064097375 0.0842237920
v 0.1270514876 -0.2152379900 0.2786899507
v 0.1566530019 -0.2105250061 0.1129880026
v -0.1219473481 0.2004674077 0.1595628858
v -0.0398574620 0.2924020588 0.0010562729
v 0.1286260039 -0.1052969992 0.3001329899
v 0.0391037129 0.2482204586 0.1915661097
v 0.1318404824 0.1014959365 0.3037904799
v -0.0469598994 0.2916231453 -0.2582588494
v 0.0582933947 -0.3233133256 -0.2581127286
v 0.0817130208 -0.3355062902 -0.2255035043
v -0.1508789957 -0.3046480119 0.0707853287
v -0.1538790017 -0.3143496811 -0.1525196582
v -0.0779369995 -0.1050420031 0.3341439962
v -0.0908410028 -0.1050869972 0.3283880055
v -0.0363129340 0.2216655165 0.2978777885
v 0.0576245748 0.2973493934 -0.1231732666
v 0.0342855304 -0.3209434748 -0.2268762141
v 0.0773309171 0.0823312774 0.0175795630
v -0.1249342188 0.1809857637 0.1076152474
v 0.0824529901 -0.3036909997 0.2961991429
v 0.1228301972 0.1809304357 -0.0176031478
v -0.1033488512 -0.2816778123 0.2995339632
v -0.1070519984 -0.2568809986 0.2947770059
v 0.0064409999 0.0746219978 0.0713749975
v 0.0068150000 0.0638260022 0.0965169966
v -0.0526852272 0.0644079596 0.0648028851
v 0.1678840071 -0.2290650010 -0.3372229934
v 0.1773809940 -0.2283640057 -0.3346349895
v -0.0364398174 -0.1600368470 0.1742619276
v 0.0886350647 0.2633310556 -0.2150656283
v 0.0998386145 0.2548049688 0.1559600830
v 0.1203777865 -0.1530351639 0.3091950417
v -0.0881109983 -0.3057259917 0.3232209980
v -0.0792670026 -0.3057299852 0.3295750022
v 0.1332020015 0.1394519955 0.1271167547
v -0.1226100028 0.2099689990 0.2607919872
v 0.1205630004 0.0804260001 0.0646589994
v 0.1237090006 0.0691939965 0.0878179967
v -0.0410879925 0.2960011065 -0.0791569501
v 0.0575608872 0.2931066155 -0.1843780279
v 0.0026275001 0.3045699894 -0.1865365058
v 0.0104909996 -0.0170700010 0.3409090042
v 0.0039130002 0.0617350005 -0.0989039987
v -0.1703830063 -0.2178210020 -0.0104149999
v -0.1755120009 -0.2173569947 -0.0488980003
v -0.1118293479 -0.1818234175 0.1756561995
v -0.0880269557 0.2840897441 -0.0647389218
v -0.0423464738 -0.3241979480 -0.2234898061
v -0.1251122952 -0.3246002197 -0.1692890972
v -0.0775918141 -0.3163523972 -0.2926581800
v -0.0683130026 -0.3057279885 0.3334240019
v -0.0545599982 -0.3057230115 0.3353349864
v -0.0767525211 -0.3279432356 -0.2497235388
v -0.1014364138 0.2436746508 0.1620809436
v -0.0525740013 0.2974970043 -0.2742919922
v 0.1157697514 0.1454624981 -0.0452480018
v 0.1111600026 0.1470140070 -0.0884369984
v 0.1538629979 -0.2583175004 0.1485680044
v 0.1611389965 -0.2588860095 0.1014320031
v 0.0731120035 -0.1066989973 0.2137580067
v 0.0408550017 -0.1070505008 0.2153349966
v 0.1562909931 -0.3048450053 0.1027883366
v 0.1518570036 -0.3050400019 0.1394460052
v -0.0392338187 -0.2198929191 -0.0739268661
v -0.0500456505 0.1661551148 0.3460272253
v -0.1283880025 -0.1671320051 0.1954170018
v -0.0522979982 -0.1050029993 0.3392759860
v 0.1362695843 -0.1695419699 0.2253710181
v -0.1159482002 0.2180938572 -0.1136830226
v -0.0918818340 0.2021511197 -0.2366704196
v 0.0763439983 -0.3028919995 -0.3451119959
v 0.0724408627 0.0045744176 -0.2533437312
v 0.0492086597 0.2908189893 -0.0270456169
v 0.0076430002 -0.2028529942 0.1534010023
v 0.0984881073 0.0846955925 -0.1116072759
v -0.1012689993 0.1330209970 0.3371939957
v 0.1269803941 -0.1316869110 0.2956780195
v 0.1118164659 0.2602548301 0.0811272040
v 0.1512733400 -0.3045333922 -0.3013318777
v -0.1113360003 -0.1052950025 0.3037180007
v 0.1246813014 0.2558766901 0.0508621782
v -0.1030408591 -0.0814734250 0.3124819994
v 0.0048436667 -0.2300186604 -0.0338220000
v 0.0041180002 -0.2338840067 -0.0823739991
v 0.0441062190 -0.0436907373 0.1858674586
v 0.1298929304 -0.3178132474 -0.0675802901
v 0.1179570034 -0.3204309940 -0.0333556011
v 0.0008965000 0.1285935044 -0.3021644950
v 0.0460698679 0.1280568689 -0.2959953547
v 0.0008910000 0.1001880020 -0.3024719954
v -0.0844176933 -0.3326696157 -0.1603359133
v 0.1145545989 0.2247766852 0.2314819247
v -0.1043541506 0.1947319955 0.2991029918
v -0.1344414949 -0.2105590999 -0.1263898611
v -0.1367706060 -0.3148653805 -0.0973998159
v 0.1101195067 -0.1684501767 0.1793548912
v 0.0079684285 -0.3020655811 0.1728404313
v 0.0640487969 -0.3104714155 0.1770501882
v 0.0729954392 -0.3090708852 0.2194319069
v 0.1122420132 -0.0752703398 0.3213257194
v 0.0376853272 -0.3195288181 -0.1363809258
v 0.0553632118 -0.3278304636 -0.1986177564
v 0.1408691108 -0.3213725388 -0.1707597226
v 0.0957554355 -0.3327424526 -0.1898102015
v -0.0153367985 -0.1373047233 0.1949117482
v 0.0085870000 -0.1237720028 0.2162750065
v 0.0085479999 -0.1384720057 0.2137620002
v 0.1411000043 0.1342239976 0.3035160005
v 0.0104909996 0.0268890001 0.3409090042
v -0.0708590001 0.0523100011 -0.2801389992
v -0.0917397812 0.0716511905 -0.2149796933
v -0.0749519691 0.0250867549 -0.2409268320
v -0.1453520060 -0.3048430085 0.1072946638
v -0.1398250014 -0.3050380051 0.1438039988
v 0.1103740036 -0.2567189932 0.3187719882
v -0.1153686494 0.1915289164 -0.0710061565
v -0.1090927422 0.2195158899 -0.0320008360
v 0.0669369996 0.2900500000 -0.2761499882
v 0.0547100008 0.2974959910 -0.2758939862
v 0.1238435954 -0.2358369380 0.2882540226
v 0.0021344286 -0.3027521372 -0.2155751437
v 0.1127307713 -0.1411462873 0.1968485862
v -0.1256418526 -0.2258206755 0.2204507142
v -0.1025850177 0.2201534510 -0.1953549981
v -0.1852370054 -0.2646720111 -0.3250119984
v -0.1853529960 -0.2835829854 -0.3249509931
v 0.1533229798 -0.2188075334 -0.2098984271
v -0.0810149536 0.2198095173 0.2917252481
v -0.0515519269 -0.2126285434 0.0823122114
v -0.1398422420 -0.2073892057 -0.1736092567
v -0.0784709975 0.1262464970 -0.2782604992
v -0.1923149973 -0.2222979963 -0.2223850042
v -0.1399430633 -0.2148953527 -0.2652660012
v 0.1344459951 -0.0187560003 0.1815759987
v 0.1332556754 0.0043340758 0.2041843832
v 0.1377560049 -0.0111739999 0.2557530105
v 0.0011360000 0.2768320143 -0.2862820029
v -0.0531480461 -0.1405627131 0.3438853323
v 0.1719527841 -0.2464861423 -0.3326077759
v 0.0949219987 -0.2335204929 -0.3427680135
v -0.0978977606 -0.3259295225 -0.0824586526
v 0.1203795001 0.1439110041 -0.0020590001
v 0.0078019998 0.0157910008 0.1630730033
v 0.0075019998 0.0342600010 0.1428250074
v 0.0733579919 -0.1399445236 0.1859203279
v -0.0309508033 0.2434433252 0.2167634070
v 0.1037865803 -0.3104169071 -0.3124645352
v 0.1237894669 0.1137462556 0.0611593872
v -0.0665119514 -0.3038111925 0.2964443564
v -0.0244200006 -0.1070500016 0.2163099945
v -0.0867436752 -0.1566310525 0.3339748383
v -0.0122120045 -0.1732432693 0.1675636321
v 0.1267260164 0.0198699161 0.2975139022
v 0.0481994711 -0.0616958402 0.3477314711
v 0.1203740016 0.1330190003 0.3338829875
v 0.1243681014 0.1528481245 0.3205756545
v -0.0783226117 -0.3308555484 -0.1175612807
v -0.1073168144 0.1935808063 -0.1589934677
v -0.1214583963 0.0173712857 0.2199001759
v -0.1211600006 -0.0187539998 0.1853940040
v -0.1222530007 -0.0111720003 0.2596369982
v -0.1261869967 0.1367417574 0.2166937441
v 0.0097195003 0.2193374932 0.2885794938
v 0.0101619996 0.2109819949 0.3182570040
v -0.1166530550 0.2141743004 0.1855472177
v 0.1344169974 -0.1814029962 0.2573989928
v 0.0376038961 0.2949883938 -0.0641237125
v 0.0667610317 0.0240116604 0.1296828240
v 0.1317600012 -0.3055889904 0.2577219903
v 0.1390450001 -0.3054560125 0.2238889933
v -0.1238640025 0.1380974948 0.1738075018
v -0.0884279981 0.2278469950 0.2604629993
v -0.0679150000 0.2286729962 0.2601290047
v -0.0705284029 0.2502671778 0.1909022033
v -0.0782070607 0.2375558168 0.2263383865
v 0.0711689964 0.1320610046 0.3433330059
v 0.1170620024 0.0887110010 0.0407910012
v 0.1061379984 0.2278459966 0.2575579882
v 0.0904679969 0.1323119998 0.3422560096
v 0.1245607361 -0.0179469697 0.3021452129
v -0.0804298744 -0.0288606063 0.1823300570
v -0.0458734408 -0.0400756970 0.1840231270
v 0.1404302418 0.0581364818 0.2311610579
v 0.1419260055 0.0865313336 0.2555910051
v 0.1398410052 0.0376786627 0.2556720078
v 0.0104400003 0.2017599940 0.3369379938
v -0.0562589988 0.1557209939 -0.2965550125
v 0.1657049954 -0.2593626678 0.0642143339
v 0.1651590019 -0.3044550121 0.0294729993
v 0.1702709943 -0.2598393261 0.0269966684
v 0.1643374115 -0.2850118279 -0.3343025148
v -0.0444458351 -0.0098999301 0.1699560136
v 0.0901463777 0.2068295032 0.3126522005
v -0.1107740030 0.0804269984 0.0681139976
v -0.1148621961 0.1084084585 0.0759960487
v -0.1079870015 0.0887119994 0.0441519991
v 0.1355160028 -0.1056869999 0.2569229901
v 0.1365710050 -0.1058420017 0.2337639928
v 0.1366360039 -0.0584305003 0.2563380003
v -0.0293189995 0.2281830013 0.2595154941
v 0.0088745002 0.2355504930 0.2319045067
v 0.0084720002 0.2434079945 0.2049070001
v -0.0409222096 0.1127063036 -0.2943075001
v 0.0604681894 -0.1638502628 0.3470233679
v 0.0452868789 0.2705214322 -0.2789804935
v -0.1221542731 -0.3142461479 -0.0458753221
v -0.0946135744 -0.3200729489 -0.0303615201
v -0.1615206599 -0.3042359948 -0.0051676678
v 0.0104010003 -0.3057099879 0.3351069987
v 0.0104360003 -0.2811770141 0.3372789919
v -0.0424180515 -0.3044100106 -0.3095069826
v 0.1349664927 -0.1435450017 0.2571609914
v 0.1209298521 -0.2113121152 -0.1763051450
v -0.1830540001 -0.2647300065 -0.3277440071
v 0.1175682023 -0.2074044496 -0.1291520894
v 0.1284341216 -0.2282814085 -0.0201061778
v -0.0831560493 -0.1229517385 0.3339913785
v 0.0864875242 -0.0418923423 0.1858437508
v 0.0746940002 -0.3057239950 0.3334049881
v 0.1368396431 0.1829328835 0.2167966962
v 0.0515184551 0.2195710242 0.2957834601
v 0.1368049979 0.1380960047 0.1699144989
v -0.0828505084 -0.2813789546 0.3254348040
v -0.0683808923 -0.2070630342 -0.0379760973
v -0.0823320001 -0.2566840053 0.3287500143
v -0.0698210001 -0.2566620111 0.3338100016
v 0.1386059970 -0.2655389905 -0.3429400027
v -0.0749951079 -0.3151060641 0.0777705982
v 0.0066718571 -0.3022181392 0.0865258500
v 0.0938860029 0.0735220015 -0.0777949989
v 0.0078290002 -0.1970939934 0.1657920033
v 0.1286994666 0.1811010987 0.1365943253
v -0.1843266636 -0.2622956634 -0.1534409970
v -0.1794953346 -0.3033939898 -0.1576803327
v 0.1350221932 0.1689878255 0.1075682268
v 0.0092650000 -0.3019129932 0.2591550052
v 0.1329320073 0.0018910000 0.1668480039
v 0.1311099976 0.0213639997 0.1497830003
v 0.0026320000 -0.0275740009 -0.1852049977
v 0.0021279999 -0.0267830007 -0.2190639973
v -0.1718640029 -0.3025299907 -0.3323639929
v -0.1726178527 -0.2798766196 -0.3281967044
v -0.1591050029 -0.2652019858 -0.3360140026
v 0.1440110058 0.1353839934 0.2555100024
v -0.1401720047 -0.2655369937 -0.3387759924
v 0.1193860024 -0.2568010092 0.3040519953
v 0.1786395013 -0.2608230114 -0.0486335009
v -0.1151460037 0.2193569988 0.2608059943
v 0.1439310014 -0.1778939962 0.1813949943
v 0.1372448802 0.0331914164 0.2111637741
v 0.0060569998 0.0825589970 0.0455200002
v -0.1165680587 0.0850972235 0.3015277684
v -0.1170210019 0.1337070018 0.3227809966
v -0.1124980003 0.1334650069 0.3286249936
v 0.1356620044 -0.0402229987 0.1936420053
v -0.0996507704 0.1049871743 0.3313032985
v 0.0993748009 -0.0734488890 0.1983800977
v -0.0376147516 0.2977902293 -0.1200696230
v 0.0819590017 0.2482330054 -0.2771550119
v 0.0822250023 0.2268410027 -0.2776930034
v 0.0678065047 0.0043241596 0.1496791095
v 0.0524091423 -0.3184288144 0.0573187508
v 0.1403090060 -0.1546850055 0.1995439976
v 0.0880480036 0.0566800013 -0.0990820006
v 0.0083950004 -0.1632529944 0.2035710067
v 0.1395099610 -0.2109307647 0.2122079134
v 0.0563520007 -0.0253860001 -0.2415194958
v 0.0016240000 -0.0259924997 -0.2529230118
v 0.0052850000 0.0892570019 -0.0064960001
v -0.0455574803 0.0768993571 -0.0226344503
v 0.1015220061 0.1704743505 0.3312171996
v 0.0539714918 0.0788008198 -0.0136303669
v -0.1876900047 -0.3025349975 -0.3156580031
v 0.1053695008 -0.1063480005 0.2121814936
v 0.0512170009 -0.1049930006 0.3395670056
v -0.1849408448 -0.2811125517 -0.3110785484
v -0.1477619261 -0.2181402892 -0.2158521116
v 0.1454509944 -0.3052479923 0.1816675067
v 0.0879779980 -0.3057290018 0.3310900033
v -0.0654678643 0.2864859700 -0.2131617367
v -0.1361564845 -0.2188787907 -0.0840606987
v -0.0614649989 -0.0261540003 -0.1979600042
v 0.0528736077 -0.0752882063 0.1976061910
v 0.0424767025 0.0552522689 -0.0915105045
v -0.1328770071 -0.2577469945 0.1998769939
v -0.0643392578 -0.3136481345 0.1013752446
v -0.0960354730 -0.2054253966 0.3162662387
v 0.0049100001 0.0877169967 -0.0317390002
v 0.0103259999 0.2067919970 0.3293110132
v -0.1905999929 -0.2642639875 -0.2966389954
v 0.1067716256 -0.1697213054 0.3246615529
v 0.1833640039 -0.2835859954 -0.3304570019
v 0.0386293158 -0.1633177251 0.1723203510
v 0.1419679970 -0.1671340019 0.1913789958
v -0.0213678181 0.1765620410 0.3450787365
v -0.0200095009 0.1319230050 0.3442584872
v 0.0105539998 0.1642400026 0.3447700143
v 0.0013030000 0.3046390116 -0.2750760019
v -0.0284320340 0.0866608620 0.3534202874
v -0.0955076292 0.0982075110 -0.1376580745
v -0.1885560006 -0.2645030022 -0.3133839965
v -0.1895730048 -0.2631964982 -0.2196435034
v -0.1879100055 -0.2627800107 -0.1893240064
v 0.1380909979 -0.1242349967 0.2094080001
v 0.1390009969 -0.1404249966 0.2056369931
v 0.0983690023 -0.3057309985 0.3269219995
v 0.0996732712 -0.2813343406 0.3243245780
v -0.1035306901 -0.3168181181 0.0016157628
v -0.1564060003 -0.3044529855 0.0342760012
v -0.1234740019 -0.1059949994 0.2145040035
v -0.1239740029 -0.1242339984 0.2133229971
v -0.0357992463 -0.3174447119 0.0057983361
v -0.0552743077 -0.3253499866 -0.0248199161
v 0.0085560000 -0.0791520029 0.2139939964
v 0.0445381179 -0.1877271831 0.1364062130
v -0.0575701743 -0.3087047637 0.2177920341
v -0.1321610063 -0.3052459955 0.1858150065
v -0.0629164651 -0.3124759197 0.1757563055
v -0.0765030012 -0.3024640083 0.2606959939
v 0.0014390000 -0.2364515066 -0.2616179883
v 0.0513073057 -0.2173206508 -0.2442470491
v 0.0450739115 -0.2215997875 -0.2928345799
v 0.0339529999 0.1564970016 -0.3016679883
v -0.1615889966 -0.2598373294 0.0319536664
v 0.0408499986 0.1319224983 0.3433494866
v 0.0625762716 -0.2155158669 0.3421444893
v -0.0807224810 0.0202573128 -0.1947391629
v -0.0693846047 -0.2162089348 -0.1352539808
v -0.0860266313 -0.2086769938 -0.1722610742
v -0.1013339981 0.0950229988 -0.0046299999
v -0.1048469990 0.0936949998 0.0197960008
v -0.0180222169 -0.3122394085 -0.0146041755
v 0.0080650002 -0.0049350001 0.1807730049
v -0.1486690044 -0.2136539966 0.1019729972
v 0.0082820002 -0.0277679991 0.1954659969
v 0.1333190054 -0.2571179867 0.2578760087
v 0.1325390041 -0.2813540101 0.2577989995
v 0.1399530023 -0.2574335039 0.2267899960
v 0.0423752479 0.0736178458 0.0361399241
v 0.0610036552 0.1709121615 0.3441087008
v -0.1244969964 -0.3054539859 0.2278259993
v 0.1607249975 -0.3046500087 0.0661306679
v 0.1874980032 -0.3026149869 -0.3062210083
v 0.1208792254 -0.2109940797 0.0487610437
v -0.0774950013 0.0344099998 -0.1164200008
v -0.1159000024 0.1423607469 0.0447277501
v 0.1350609958 0.1337050050 0.3190160096
v -0.0600140020 0.2017814964 0.3261089921
v -0.1200850010 0.0018930000 0.1706269979
v 0.1907290071 -0.2631990016 -0.2253234982
v -0.0813223571 0.0676201507 0.0809729993
v 0.0510804988 -0.3021894991 0.2586604953
v 0.0086167138 -0.3019892871 0.2159977108
v 0.0355469994 -0.0281000007 -0.1517850012
v -0.1188689992 -0.1814009994 0.2611829937
v -0.1089747921 -0.1590952426 0.2943491042
v -0.1325220019 -0.3026989996 -0.3388800025
v 0.0928959996 -0.3024660051 0.2581659853
v -0.1360239983 -0.1948190033 0.1612250060
v -0.1332110018 -0.1870809942 0.1740159988
v 0.0376349986 0.3021749854 -0.2756159902
v 0.0020520000 -0.2364222556 -0.2205944955
v 0.0026650000 -0.2363930047 -0.1795710027
v 0.0572256520 -0.2213649005 -0.2017032504
v -0.0204696096 0.2055005580 0.3306075037
v 0.0425036810 0.2025008202 -0.2943902910
v -0.0381829999 -0.3029364944 -0.3439374864
v -0.0917290002 -0.2567169964 0.3217909932
v -0.1726193726 -0.2534292340 -0.3255771995
v 0.0456761867 0.2045972496 0.3300655186
v 0.1859779954 -0.3025380075 -0.3212380111
v 0.1834809929 -0.3024959862 -0.3303990066
v 0.1720999926 -0.2189130038 0.0234420002
v 0.0056150001 0.2850669920 0.0134500004
v 0.1440940052 0.1347859949 0.2826139927
v 0.1226177886 0.2156520933 -0.0522282459
v -0.1024830937 0.1517980248 0.3272932768
v 0.1225006953 0.2125219256 -0.0956916809
v 0.0528660007 -0.2566469908 0.3377630115
v -0.0800829977 0.1543249935 -0.2774460018
v 0.0104980003 -0.1519169956 0.3412710130
v 0.0732315630 0.0067591132 0.3485580981
v -0.0679737031 0.0813866109 0.0077799200
v -0.0867238045 -0.1662416160 0.1792880297
v 0.1187077537 0.2648838162 -0.0510962643
v -0.1235446334 -0.1821186692 0.2275936007
v -0.0871699974 0.1326349974 0.3422710001
v -0.1487393081 -0.3101445138 -0.2639206350
v -0.1110426560 -0.3184946775 -0.2665867507
v -0.1855755001 -0.2189365029 -0.1381244957
v -0.1194244996 -0.1435430050 0.2609609962
v 0.0781329349 0.2859207392 -0.0548257604
v 0.0489673465 0.2958931327 -0.0911754593
v -0.0939443335 -0.3336778581 -0.2042459399
v -0.1330752820 -0.3209279180 -0.2336421013
v 0.0425475016 -0.3057169914 0.3342559934
v -0.1183134988 -0.2192589939 0.2614045143
v -0.1177579984 -0.2571170032 0.2616260052
v 0.0027825716 -0.3026758432 -0.1724178493
v 0.1572500020 -0.2652040124 -0.3407390118
v 0.1313689947 -0.3027009964 -0.3428210020
v 0.0879634395 0.0624164715 0.0822622105
v -0.1790834963 -0.2176904976 -0.0787609965
v 0.0795670003 0.1543239951 -0.2798300087
v 0.1068810001 0.1326339990 0.3393729925
v -0.0810754970 0.1961849928 -0.2761979997
v 0.0975138694 0.2701377571 0.0559116676
v -0.0820680037 0.2380450070 -0.2749499977
v -0.1033902168 -0.1335405260 0.3116363287
v -0.1229466870 0.0874314755 0.1605026722
v -0.0702480003 0.1323129982 0.3446570039
v -0.0505499989 0.1320620030 0.3451510072
v 0.0008260000 -0.2364807427 -0.3026415110
v -0.0440927260 0.2934788764 -0.0380138420
v -0.0533670001 -0.2566510141 0.3371709883
v -0.0633939877 -0.2404246926 0.3361828923
v -0.0713369995 0.0063570002 -0.1344349980
v -0.0916288868 0.0591663234 -0.1625957936
v -0.0557365008 -0.0253855009 -0.2398454994
v 0.0010240000 0.2467309982 -0.2937310040
v 0.0331162326 0.2403803617 -0.2907558978
v 0.0104909996 -0.1049880013 0.3409090042
v 0.0252470002 -0.0249099992 -0.2849979997
v 0.1453719884 -0.2284953296 0.1737066656
v -0.0957963094 -0.2333265096 0.3132649362
v 0.0092770001 0.2276930064 0.2589020133
v -0.1264860034 -0.1546829939 0.2035280019
v -0.0774419382 0.0364132896 0.1257575154
v -0.0491460375 -0.2133958191 -0.0010965358
v -0.0294527113 0.0416172929 0.1188700646
v -0.0467515066 0.0515918843 0.0972147435
v -0.0775620118 -0.2056623846 0.0431337506
v 0.1828210056 -0.2463520020 -0.3310239911
v 0.1869120002 -0.2645049989 -0.3189910054
v 0.1832460016 -0.2646749914 -0.3305149972
v -0.1169506386 0.1012759134 0.1136010140
v -0.1269810051 0.1960009933 0.2606390119
v -0.1215410009 0.1394532472 0.1309212446
v -0.0666520223 -0.1781671643 0.1518088281
v 0.0105309999 0.1317840070 0.3433659971
v -0.0805959553 -0.3142319024 0.1167421862
v -0.1722124964 -0.2608205080 -0.0433930010
v -0.0968457982 -0.1771133989 0.3177293241
v 0.0779310018 0.1262454987 -0.2805959880
v 0.0762950033 0.0981670022 -0.2813619971
v -0.1666353345 -0.3040190041 -0.0446113348
v -0.1717499942 -0.3038020134 -0.0840549991
v -0.0442025103 -0.3235345185 -0.1860416234
v -0.0974820033 0.1500286609 -0.1659619957
v 0.1487811953 -0.2185008526 -0.2569727004
v 0.1930570006 -0.2248370051 -0.2751600146
v 0.0036020000 0.3013615012 -0.1213380024
v 0.0032060000 0.3034090102 -0.1478369981
v 0.1163470000 -0.3057020009 0.3045389950
v 0.1221989989 -0.3056690097 0.2892580032
v -0.1017140001 0.1485223323 -0.1255780011
v -0.1059459969 0.1470160037 -0.0851939991
v 0.1297271401 0.0618619509 0.2994793952
v 0.1002879962 0.1500273347 -0.1689163297
v 0.0948520005 0.1515340060 -0.2091560066
v 0.1338679940 -0.2192604989 0.2576375008
v 0.1849520057 -0.2618139982 -0.1230200008
v 0.1891684979 -0.2189390063 -0.1437209994
v 0.0001900000 -0.3029809892 -0.3450469971
v 0.0008381429 -0.3029047251 -0.3018897176
v 0.0454880297 0.0599881783 0.0757172555
v 0.1034649536 -0.2187557667 -0.3029397130
v 0.1102494970 -0.2659955025 -0.3440454900
v -0.1219258159 0.1885031909 0.0518517792
v 0.0105100004 0.1949650049 0.3417010009
v 0.0464981869 -0.3064427078 0.2976061106
v 0.1511709988 -0.2012279928 0.1430419981
v 0.1065770015 -0.3057270050 0.3203130066
v -0.1738130003 -0.2649239898 -0.3323790133
v 0.0010030000 0.0076230001 -0.2947100103
v 0.0476390012 0.2281824946 0.2583659887
v -0.1116351709 -0.0544498712 0.2942227423
v -0.1041050255 -0.0270780902 0.3129966259
v 0.1074197143 0.2574888170 0.1226308197
v -0.1231539994 -0.0841969997 0.2123699933
v 0.1730276644 -0.3040210009 -0.0496849976
v -0.1833679974 -0.3031899929 -0.1944929957
v 0.0854984671 -0.2063274235 -0.0930149704
v 0.0946439728 -0.2163879722 -0.0559825785
v 0.1359964609 -0.2148177624 -0.0906844512
v 0.0679569989 -0.0278360005 -0.1522230059
v 0.0750939995 0.0063560000 -0.1366219968
v 0.1831671298 -0.2832839787 -0.3160000443
v 0.0920220539 -0.2125660330 0.0158062298
v -0.1484542191 -0.2470785379 -0.3328388333
v -0.1229592189 0.1985192448 0.2132372856
v 0.0084480001 -0.0525569990 0.2066929936
v -0.1132259965 0.0691960007 0.0913570002
v -0.1233961359 0.1961153895 0.2374062687
v 0.0750579983 0.2795490026 -0.2764210105
v 0.1852499992 -0.2278040051 -0.3264949918
v 0.1894550025 -0.2642669976 -0.3023149967
v 0.1914860010 -0.2636159956 -0.2556790113
v 0.1192379966 -0.1051530018 0.3171400130
v 0.1099070013 -0.1050880030 0.3253889978
v -0.1011736467 -0.1958914548 0.1389766484
v -0.1871190071 -0.2278009951 -0.3209350109
v 0.0308075286 -0.0198343992 0.1799911857
v 0.0817869976 0.0344090015 -0.1187990010
v 0.1289730072 0.0393089987 0.1307049990
v 0.1000835970 0.0363547392 0.1243704855
v 0.1265089959 0.0553710014 0.1099419966
v 0.1324310005 -0.1054280028 0.2852680087
v -0.1039619967 0.2250290066 0.2606930137
v 0.1350467354 0.0693043396 0.1538428515
v 0.1346107125 0.1022551879 0.1371420920
v -0.0500079989 -0.0246169996 -0.2817310095
v -0.0610660017 0.0084060002 -0.2810469866
v -0.0244440008 -0.0249090008 -0.2842560112
v 0.0639336556 -0.0287045687 0.3505737484
v -0.0974280015 0.0923400000 -0.0287999995
v -0.0931100026 0.0852909982 -0.0523900017
v -0.0412532277 0.2456194013 -0.2883072793
v 0.0105459997 0.1854899973 0.3441619873
v -0.0646699965 -0.0278350003 -0.1502420008
v -0.1153649986 0.0553719997 0.1135549992
v -0.0450621322 -0.2330978811 -0.3001966774
v -0.0306414999 -0.2358755022 -0.3428420126
v 0.1810050011 -0.2647329867 -0.3331820071
v -0.0304400008 -0.1049920022 0.3407860100
v -0.0356587805 0.2988151312 -0.1932295710
v 0.1780601591 -0.2683764398 -0.3298437297
v -0.0412900038 0.2978399098 -0.1585114896
v -0.1158680022 -0.1054259986 0.2889769971
v -0.1809789985 -0.3024959862 -0.3289020061
v -0.1854690015 -0.3024939895 -0.3248899877
v -0.0326028354 -0.3058796823 0.3034794331
v -0.0383824781 0.1947008818 -0.2937462628
v 0.0098989997 -0.3026410043 0.3015559912
v -0.1307735443 -0.2241282612 0.1789149493
v 0.1111788079 -0.2174688727 0.3161357045
v -0.1909960061 -0.2269220054 -0.3051170111
v 0.0985622108 0.0870279595 -0.1962174028
v 0.0999961942 0.0804340839 -0.1653015316
v -0.0336190015 -0.3021884859 0.2599255145
v -0.0649095401 -0.0183269847 0.3476849496
v -0.1548582017 -0.3042039573 -0.3011093438
v -0.0837155357 0.2751522660 -0.1829376072
v -0.1390299946 -0.2012249976 0.1473760009
v 0.0104909996 -0.0610290021 0.3409090042
v 0.0727349967 -0.1050039977 0.3374089897
v 0.0105176670 0.0968189985 0.3425469995
v 0.0370596386 0.0815530568 0.3464547098
v 0.1895990074 -0.2269250005 -0.3108009994
v -0.1275773644 -0.2117867470 -0.0413448960
v 0.1123486906 -0.3190554976 0.0070245229
v 0.1116291434 -0.3166649044 0.0514279716
v -0.0352099985 0.3021770120 -0.2745279968
v -0.0362217017 0.0504789650 0.3520975113
v -0.0774162710 0.0696140304 0.3400804400
v -0.0327666439 0.0130280936 0.3461584747
v 0.0002030000 -0.2672919929 -0.3442330062
v 0.0410480015 -0.2668719888 -0.3446919918
v 0.0001960000 -0.2851360142 -0.3446399868
v 0.0072320001 -0.2118169963 0.1259009987
v 0.0516802929 -0.1996725798 0.0957822278
v 0.0067779999 -0.2180339992 0.0955509990
v 0.0011200000 -0.0252020005 -0.2867819965
v -0.0800446421 -0.0660110787 0.2000230849
v -0.0574380010 -0.1066979989 0.2157080024
v -0.0904560015 -0.1063465029 0.2151059955
v 0.1769620031 -0.3038040102 -0.0892639980
v -0.0871354491 0.2483047545 0.1208076701
v -0.1168915853 0.2172460705 0.1362445951
v -0.1021426320 0.2246664166 0.2456874549
v -0.1415569931 -0.2583155036 0.1529799998
v 0.1793986708 -0.2331328690 -0.3245410919
v 0.1823959947 -0.2280289978 -0.3315320015
v 0.0806401372 0.2636083663 -0.2504649460
v 0.0493729897 0.0701801777 -0.0567446314
v -0.1005908698 -0.2089636475 0.0947040617
v -0.1250634193 0.0640334263 0.2070324421
v -0.1187750027 0.0213660002 0.1535149962
v -0.0635236800 0.1048085168 0.3489045501
v -0.0785581246 0.0785424411 0.0412514992
v -0.1502369940 -0.2588840127 0.1060829982
v 0.1445959955 0.1765899956 0.2562530041
v 0.0878310204 -0.3168434501 0.0875173360
v -0.1672649980 -0.2603139877 -0.0051110000
v 0.0081510004 -0.1825309992 0.1872700006
v 0.0808959976 0.1905824989 -0.2787615061
v 0.0082830004 -0.1735309958 0.1961259991
v 0.1057239994 0.1485206634 -0.1286766678
v 0.1309120059 0.1334629953 0.3249889910
v -0.0236769523 0.2680566311 0.1274328381
v 0.0849387571 -0.0680807605 0.3412547112
v -0.0587040856 0.2650587857 0.1513210833
v 0.0056699999 0.0874880031 0.0194099993
v -0.1244723424 0.1717199385 0.1374452412
v -0.1245376766 0.1949328631 0.0813652426
v 0.1874620020 -0.2622979879 -0.1589940041
v 0.1212389991 0.2250259966 0.2573289871
v 0.1360730678 0.2050564438 0.2394755483
v 0.0060230000 0.2806249857 0.0407579988
v 0.0348122083 0.2874755859 0.0052698357
v 0.0066370000 0.2722809911 0.0818824992
v 0.0798180029 0.2657069862 -0.2767429948
v -0.1217269972 -0.1058399975 0.2376219928
v -0.1243386641 0.0376806632 0.2596180141
v -0.1075695828 0.0104161222 0.3098528087
v -0.1199800000 -0.1056850031 0.2607389987
v -0.0274122115 0.0792552084 0.0134709291
v -0.0666399226 -0.2096472979 -0.2670437694
v -0.1794140041 -0.2283619940 -0.3293049932
v -0.1238423362 -0.3227870762 -0.1338038296
v -0.1748398095 -0.2315183580 -0.3164244294
v -0.1844159961 -0.2280260026 -0.3260540068
v 0.0078614997 0.2536725104 0.1639569998
v 0.0072510000 0.2639369965 0.1230069995
v 0.0661122203 0.2517504990 0.1800391972
v -0.0646253005 -0.1953079700 0.1177588031
v -0.0317729115 -0.1892608106 0.1407409310
v 0.0601274334 0.1756758094 -0.2906609774
v -0.1226740032 -0.0621539988 0.2065909952
v -0.0304791983 -0.0703703389 0.1986064315
v 0.0047269999 -0.3024469912 -0.0429459997
v -0.0424161404 0.0286604054 0.1322017610
v -0.0571829639 0.0120307598 0.1490822583
v 0.0949501619 -0.3114279211 0.1764569134
v -0.0765559971 -0.3028919995 -0.3428280056
v -0.1220159978 -0.0402220003 0.1974900067
v 0.0031359999 -0.0283649992 -0.1513459980
v 0.0032510001 0.0005530000 -0.1435880065
v -0.0307669993 -0.0281000007 -0.1507939994
v -0.1848260015 -0.2463490069 -0.3255330026
v 0.1136123538 0.1214125603 -0.0214982349
v 0.1865880042 -0.3030250072 -0.2305485010
v -0.0846758634 -0.0584534332 0.3326767385
v 0.1502993554 -0.3127479553 -0.2556339204
v 0.1370568871 -0.3204453290 -0.2152891755
v 0.0014862858 -0.3028284311 -0.2587324381
v -0.1826550066 -0.2180240005 -0.1086239964
v -0.1192179993 0.1408089995 0.0880350024
v 0.0869420022 0.1532219946 -0.2527390122
v 0.0053752856 -0.3023707271 0.0002112831
v 0.0562940836 -0.3183124065 -0.0264709070
v 0.0574763790 -0.3171557188 0.0173086748
v -0.1211164966 -0.0584284998 0.2601880133
v -0.0906811506 0.2496462464 -0.2259762287
v 0.1878989935 -0.3028570116 -0.2610979974
v 0.0631022453 0.1026728526 0.3468984663
v -0.1814433783 -0.2620472014 -0.3246064782
v -0.1018050015 -0.2567999959 0.3073559999
v 0.0436084047 0.2955056131 -0.2444082797
v -0.1253174990 -0.2574320138 0.2307514995
v -0.1031677350 0.2623034418 -0.1222613603
v -0.0810608119 0.2864350080 -0.1452986747
v 0.1067487597 0.0411658064 0.3381175697
v -0.0329790004 0.1564980000 -0.3006690145
v 0.0655746087 -0.0211942364 0.1701778769
v -0.1807433367 -0.2618113458 -0.1175579950
v 0.0002130000 -0.2365099937 -0.3436650038
v 0.0002080000 -0.2519010007 -0.3439489901
v 0.0625652745 0.0656241700 0.3463377357
v -0.0321389996 -0.2566460073 0.3390330076
v 0.1797336638 -0.3036003411 -0.1261756718
v 0.0104879998 -0.2277455032 0.3405419886
v -0.1493986398 -0.2262288332 -0.3013010323
v 0.0104710003 -0.2566449940 0.3394509852
v 0.1933880001 -0.2223010063 -0.2281460017
v -0.0966276079 -0.2238956094 -0.3026416600
v -0.0751734152 -0.1970539689 -0.2292746156
v -0.1124660224 -0.2044066340 -0.2374332547
v -0.0367037430 0.0414253101 -0.1005518064
v -0.1079376712 -0.2111934572 -0.0015764000
v 0.0085979998 -0.1074019969 0.2169120014
v -0.0787417889 0.2888891697 -0.1026584208
v -0.1393126249 -0.2376767695 0.1354943961
v -0.0883620009 0.0735229999 -0.0750729963
v 0.0033915001 -0.2351385057 -0.1309725046
v 0.0590881035 -0.2224749476 -0.1597951949
v 0.0533005074 -0.2221973389 -0.1202693656
v -0.1454080045 -0.2105229944 0.1174990013
v 0.1871300042 -0.2180259973 -0.1141460016
v -0.0729803294 0.2768177092 -0.2445769608
v 0.1264713705 -0.3309229910 -0.1303366274
v 0.0614919998 -0.2352409959 -0.3438560069
v 0.0055693332 -0.2261533290 0.0147300027
v -0.1055250019 -0.3056670129 0.2926599979
v 0.0105043333 0.0618539974 0.3417280018
v 0.0580736510 0.0438294858 0.1036850959
v 0.1852770001 -0.3031930029 -0.1999990046
v 0.1825053394 -0.3033966720 -0.1630873382
v 0.0617330894 -0.2086647600 0.0530297719
v -0.1011148691 -0.1386758685 0.2048219293
v -0.1045389995 -0.3027954996 -0.3408539891
v 0.1429869980 0.1960009933 0.2566080093
v 0.0052069998 0.2895089984 -0.0138579998
v 0.1530781239 -0.2261107117 -0.3033505678
v 0.1283520013 -0.2318000048 -0.3416799903
v -0.1092640013 0.1454642564 -0.0418867506
v 0.1372430027 -0.0841979980 0.2084809989
v 0.1376270056 -0.1059970036 0.2106049955
v -0.0737399980 0.2795509994 -0.2741990089
v 0.0009020000 0.1569990069 -0.3018569946
v 0.1717830002 -0.2649269998 -0.3375400007
v -0.1887599975 -0.3026120067 -0.3006010056
v 0.0764699727 -0.3256253898 -0.0689802095
v -0.1056068242 0.1216392741 -0.0181145314
v -0.1049069986 -0.1051929966 0.3155300021
v 0.1229289994 -0.1051950008 0.3121269941
v -0.0768589973 0.0981680006 -0.2790749967
v 0.0562440008 0.1557209939 -0.2982360125
v -0.1146546975 0.2270434946 0.0803104118
v -0.0534632690 0.2759313285 0.1052078083
v -0.1186482310 0.2229709029 0.0393261500
v -0.0310952235 0.2860785425 0.0378580131
v 0.0045520002 0.0827170014 -0.0558610000
v -0.1505765021 -0.2147941440 0.0927334577
v 0.1061194092 -0.2127883881 -0.2178812772
v 0.0079979999 -0.1903530061 0.1771200001
v -0.0308239479 -0.2109886706 -0.2335827947
v -0.1238550022 0.1342259943 0.3074730039
v 0.0009200000 0.0527249984 -0.3003929853
v 0.1267527491 -0.0560487881 0.2934827507
v -0.1172079965 0.0393109992 0.1343819946
v 0.0633289963 -0.0261550006 -0.1998240054
v 0.1047388166 0.2741844952 -0.0138694607
v 0.1324492693 0.1749761850 0.2940547764
v 0.0042170002 0.0741060004 -0.0784019977
v -0.0989329964 -0.3057000041 0.3077549934
v -0.0433013812 0.0633619204 -0.0632762089
v -0.1884959936 -0.2198490053 -0.1676249951
v -0.1904055029 -0.2210734934 -0.1950049996
v 0.0046024998 0.2944115102 -0.0543484986
v 0.0062950002 -0.2222879976 0.0632819980
v 0.0039980002 0.2993139923 -0.0948389992
v 0.1465869993 -0.2577489913 0.1957039982
v 0.0741627216 0.2858310044 -0.1533303708
v 0.0316028185 -0.1357749701 0.1916207522
v 0.1038564965 -0.3027965128 -0.3439665139
v 0.0084840003 -0.1516000032 0.2094890028
v 0.0604490004 0.0084050000 -0.2828629911
v 0.1016369984 -0.2566849887 0.3260020018
v 0.1049024388 0.0881250054 0.3357231915
v 0.1283267587 0.1042420492 0.0993183777
v -0.1288899928 0.1765909940 0.2603369951
v -0.0410919413 -0.0605499893 0.3481917083
v 0.0970726460 -0.1949031353 0.1198345795
v 0.0976229981 -0.1050430015 0.3315219879
v 0.1253041476 0.2161343247 0.1639143974
v -0.1164041907 0.1652323008 0.3029032648
v 0.1197309047 0.2266456485 0.1961963028
v 0.0705000013 0.1550070047 -0.2915169895
v -0.0831639990 0.0566809997 -0.0965249985
v 0.0071709999 0.0503219999 0.1204859987
v -0.1855909973 -0.3030219972 -0.2249895036
v -0.1771599948 -0.2613269985 -0.0816750005
f 683//683 864//864 2//2
f 494//494 1//1 46//46
f 6//6 7//7 8//8
f 46//46 1//1 9//9
f 3//3 23//23 57//57
f 14//14 15//15 16//16
f 18//18 19//19 17//17
f 20//20 21//21 22//22
f 23//23 3//3 10//10
f 26//26 739//739 195//195
f 358//358 77//77 29//29
f 246//246 4//4 68//68
f 31//31 33//33 899//899
f 4//4 12//12 888//888
f 11//11 5//5 73//73
f 5//5 243//243 644//644
f 51//51 52//52 53//53
f 45//45 147//147 181//181
f 528//528 9//9 1//1
f 753//753 10//10 3//3
f 79//79 12//12 4//4
f 5//5 11//11 79//79
f 240//240 57//57 23//23
f 400//400 11//11 73//73
f 70//70 71//71 72//72
f 23//23 10//10 240//240
f 75//75 76//76 77//77
f 84//84 85//85 86//86
f 610//610 87//87 88//88
f 92//92 93//93 94//94
f 753//753 240//240 10//10
f 11//11 400//400 79//79
f 9//9 882//882 832//832
f 828//828 107//107 108//108
f 109//109 110//110 111//111
f 3//3 57//57 429//429
f 25//25 61//61 97//97
f 117//117 551//551 231//231
f 122//122 123//123 121//121
f 61//61 25//25 876//876
f 127//127 472//472 129//129
f 834//834 132//132 133//133
f 136//136 47//47 637//637
f 137//137 138//138 139//139
f 12//12 186//186 541//541
f 237//237 27//27 95//95
f 95//95 27//27 87//87
f 28//28 96//96 381//381
f 153//153 154//154 155//155
f 96//96 28//28 654//654
f 606//606 35//35 105//105
f 123//123 160//160 161//161
f 162//162 163//163 164//164
f 105//105 35//35 483//483
f 98//98 97//97 118//118
f 868//868 37//37 131//131
f 174//174 164//164 144//144
f 174//174 144//144 69//69
f 382//382 178//178 179//179
f 37//37 266//266 143//143
f 43//43 372//372 371//371
f 372//372 43//43 478//478
f 187//187 188//188 80//80
f 304//304 192//192 193//193
f 266//266 44//44 143//143
f 44//44 267//267 269//269
f 874//874 634//634 760//760
f 263//263 789//789 264//264
f 234//234 281//281 74//74
f 48//48 261//261 414//414
f 148//148 837//837 816//816
f 167//167 223//223 224//224
f 92//92 227//227 228//228
f 557//557 45//45 558//558
f 55//55 31//31 147//147
f 571//571 235//235 573//573
f 644//644 73//73 5//5
f 1//1 494//494 528//528
f 494//494 46//46 54//54
f 832//832 54//54 46//46
f 158//158 142//142 770//770
f 253//253 254//254 255//255
f 68//68 888//888 151//151
f 494//494 54//54 295//295
f 263//263 264//264 262//262
f 295//295 54//54 442//442
f 720//720 421//421 417//417
f 143//143 269//269 268//268
f 270//270 271//271 272//272
f 275//275 277//277 276//276
f 543//543 32//32 34//34
f 285//285 501//501 626//626
f 98//98 579//579 212//212
f 441//441 290//290 291//291
f 65//65 345//345 318//318
f 229//229 56//56 389//389
f 909//909 637//637 167//167
f 91//91 297//297 298//298
f 299//299 300//300 301//301
f 715//715 56//56 446//446
f 446//446 56//56 159//159
f 33//33 195//195 205//205
f 429//429 57//57 240//240
f 856//856 58//58 707//707
f 58//58 554//554 553//553
f 73//73 114//114 397//397
f 324//324 325//325 326//326
f 109//109 327//327 110//110
f 745//745 59//59 191//191
f 191//191 59//59 189//189
f 337//337 293//293 338//338
f 706//706 643//643 798//798
f 339//339 219//219 330//330
f 154//154 60//60 276//276
f 276//276 60//60 872//872
f 61//61 876//876 128//128
f 348//348 349//349 350//350
f 353//353 354//354 355//355
f 134//134 876//876 25//25
f 77//77 358//358 889//889
f 732//732 63//63 846//846
f 359//359 360//360 361//361
f 362//362 363//363 364//364
f 846//846 63//63 131//131
f 251//251 131//131 63//63
f 371//371 372//372 373//373
f 362//362 242//242 377//377
f 547//547 65//65 818//818
f 4//4 246//246 79//79
f 888//888 68//68 4//4
f 69//69 175//175 174//174
f 175//175 69//69 800//800
f 175//175 800//800 269//269
f 392//392 860//860 565//565
f 393//393 394//394 93//93
f 79//79 243//243 5//5
f 196//196 780//780 913//913
f 398//398 399//399 99//99
f 212//212 837//837 148//148
f 406//406 407//407 408//408
f 280//280 411//411 67//67
f 41//41 412//412 86//86
f 74//74 282//282 98//98
f 348//348 350//350 415//415
f 417//417 111//111 110//110
f 554//554 218//218 560//560
f 27//27 237//237 88//88
f 237//237 95//95 887//887
f 28//28 649//649 248//248
f 432//432 405//405 433//433
f 434//434 772//772 435//435
f 381//381 649//649 28//28
f 282//282 97//97 98//98
f 443//443 92//92 228//228
f 169//169 98//98 118//118
f 405//405 404//404 447//447
f 118//118 877//877 169//169
f 451//451 393//393 93//93
f 378//378 880//880 529//529
f 455//455 40//40 91//91
f 66//66 369//369 491//491
f 103//103 799//799 69//69
f 460//460 461//461 462//462
f 799//799 103//103 244//244
f 141//141 224//224 353//353
f 274//274 104//104 824//824
f 473//473 474//474 373//373
f 473//473 477//477 52//52
f 824//824 104//104 818//818
f 35//35 606//606 93//93
f 233//233 377//377 331//331
f 481//481 482//482 483//483
f 606//606 105//105 279//279
f 487//487 106//106 632//632
f 486//486 487//487 485//485
f 488//488 254//254 253//253
f 489//489 373//373 474//474
f 490//490 505//505 462//462
f 632//632 106//106 112//112
f 495//495 496//496 134//134
f 615//615 112//112 880//880
f 498//498 668//668 500//500
f 501//501 502//502 503//503
f 509//509 165//165 141//141
f 507//507 354//354 353//353
f 880//880 112//112 486//486
f 525//525 117//117 211//211
f 397//397 114//114 911//911
f 196//196 114//114 644//644
f 264//264 517//517 518//518
f 519//519 792//792 404//404
f 874//874 115//115 733//733
f 264//264 523//523 517//517
f 489//489 14//14 16//16
f 527//527 528//528 529//529
f 733//733 115//115 734//734
f 22//22 21//21 790//790
f 98//98 212//212 74//74
f 365//365 180//180 328//328
f 118//118 97//97 61//61
f 139//139 296//296 545//545
f 766//766 125//125 875//875
f 875//875 125//125 128//128
f 125//125 877//877 118//118
f 128//128 874//874 733//733
f 846//846 131//131 37//37
f 121//121 266//266 37//37
f 770//770 142//142 769//769
f 564//564 267//267 44//44
f 565//565 566//566 392//392
f 43//43 122//122 786//786
f 122//122 43//43 306//306
f 846//846 143//143 268//268
f 269//269 143//143 44//44
f 582//582 510//510 583//583
f 585//585 586//586 145//145
f 903//903 135//135 588//588
f 44//44 266//266 564//564
f 103//103 144//144 312//312
f 353//353 355//355 538//538
f 312//312 144//144 164//164
f 593//593 596//596 595//595
f 577//577 744//744 461//461
f 598//598 599//599 600//600
f 735//735 602//602 201//201
f 31//31 34//34 33//33
f 147//147 45//45 55//55
f 34//34 31//31 543//543
f 564//564 160//160 613//613
f 171//171 157//157 780//780
f 411//411 619//619 620//620
f 172//172 623//623 349//349
f 501//501 503//503 626//626
f 627//627 628//628 844//844
f 629//629 163//163 630//630
f 760//760 115//115 874//874
f 184//184 511//511 803//803
f 511//511 184//184 760//760
f 683//683 2//2 220//220
f 328//328 386//386 641//641
f 326//326 642//642 643//643
f 115//115 760//760 184//184
f 634//634 511//511 760//760
f 468//468 647//647 399//399
f 648//648 649//649 650//650
f 759//759 184//184 803//803
f 250//250 657//657 500//500
f 393//393 53//53 394//394
f 531//531 146//146 145//145
f 759//759 803//803 603//603
f 733//733 734//734 219//219
f 170//170 242//242 673//673
f 489//489 474//474 14//14
f 260//260 775//775 322//322
f 670//670 671//671 672//672
f 188//188 562//562 563//563
f 322//322 306//306 260//260
f 675//675 672//672 676//676
f 677//677 678//678 679//679
f 207//207 680//680 274//274
f 743//743 593//593 788//788
f 687//687 688//688 20//20
f 570//570 905//905 320//320
f 225//225 422//422 439//439
f 83//83 422//422 420//420
f 655//655 408//408 108//108
f 687//687 578//578 688//688
f 540//540 889//889 273//273
f 403//403 415//415 402//402
f 145//145 698//698 683//683
f 905//905 623//623 172//172
f 623//623 905//905 818//818
f 703//703 704//704 87//87
f 439//439 422//422 862//862
f 759//759 336//336 168//168
f 88//88 255//255 610//610
f 734//734 759//759 168//168
f 309//309 595//595 916//916
f 712//712 850//850 713//713
f 619//619 472//472 638//638
f 593//593 743//743 886//886
f 709//709 666//666 843//843
f 257//257 763//763 385//385
f 719//719 720//720 158//158
f 524//524 700//700 525//525
f 722//722 723//723 724//724
f 679//679 433//433 584//584
f 725//725 726//726 727//727
f 729//729 730//730 731//731
f 586//586 531//531 145//145
f 789//789 263//263 92//92
f 775//775 99//99 177//177
f 393//393 176//176 474//474
f 411//411 472//472 619//619
f 737//737 598//598 738//738
f 696//696 707//707 438//438
f 695//695 707//707 696//696
f 552//552 744//744 576//576
f 361//361 745//745 359//359
f 746//746 278//278 279//279
f 796//796 221//221 307//307
f 67//67 411//411 285//285
f 382//382 179//179 38//38
f 753//753 222//222 395//395
f 913//913 911//911 196//196
f 913//913 780//780 157//157
f 735//735 338//338 340//340
f 828//828 776//776 702//702
f 247//247 179//179 798//798
f 889//889 436//436 321//321
f 389//389 248//248 229//229
f 860//860 192//192 565//565
f 381//381 654//654 41//41
f 304//304 598//598 866//866
f 791//791 326//326 325//325
f 30//30 13//13 307//307
f 324//324 326//326 769//769
f 645//645 475//475 768//768
f 166//166 285//285 626//626
f 66//66 456//456 369//369
f 323//323 289//289 154//154
f 809//809 235//235 289//289
f 289//289 152//152 708//708
f 817//817 152//152 816//816
f 621//621 622//622 281//281
f 569//569 130//130 783//783
f 621//621 281//281 234//234
f 787//787 309//309 788//788
f 789//789 92//92 443//443
f 435//435 548//548 681//681
f 234//234 148//148 816//816
f 580//580 217//217 825//825
f 596//596 686//686 658//658
f 792//792 793//793 794//794
f 234//234 152//152 323//323
f 816//816 152//152 234//234
f 707//707 406//406 522//522
f 511//511 360//360 803//803
f 569//569 804//804 609//609
f 805//805 806//806 807//807
f 645//645 768//768 808//808
f 152//152 817//817 708//708
f 662//662 810//810 508//508
f 714//714 599//599 598//598
f 663//663 810//810 662//662
f 485//485 527//527 486//486
f 692//692 866//866 689//689
f 71//71 409//409 349//349
f 123//123 161//161 121//121
f 564//564 161//161 160//160
f 402//402 383//383 820//820
f 822//822 823//823 688//688
f 850//850 274//274 824//824
f 336//336 330//330 168//168
f 627//627 826//826 761//761
f 535//535 635//635 684//684
f 148//148 74//74 212//212
f 74//74 148//148 234//234
f 195//195 33//33 24//24
f 587//587 546//546 440//440
f 833//833 442//442 54//54
f 833//833 832//832 773//773
f 596//596 593//593 686//686
f 834//834 133//133 208//208
f 34//34 32//32 624//624
f 899//899 147//147 31//31
f 147//147 899//899 181//181
f 621//621 839//839 622//622
f 840//840 842//842 841//841
f 24//24 624//624 625//625
f 24//24 26//26 195//195
f 587//587 690//690 546//546
f 850//850 719//719 274//274
f 672//672 671//671 851//851
f 268//268 852//852 853//853
f 356//356 866//866 457//457
f 238//238 895//895 858//858
f 530//530 635//635 351//351
f 530//530 460//460 684//684
f 162//162 164//164 630//630
f 476//476 855//855 62//62
f 742//742 110//110 327//327
f 635//635 530//530 684//684
f 22//22 90//90 89//89
f 37//37 868//868 121//121
f 50//50 49//49 221//221
f 495//495 869//869 681//681
f 265//265 664//664 871//871
f 684//684 460//460 462//462
f 876//876 874//874 128//128
f 61//61 125//125 118//118
f 834//834 510//510 582//582
f 39//39 455//455 867//867
f 529//529 841//841 378//378
f 882//882 528//528 527//527
f 522//522 408//408 410//410
f 134//134 869//869 495//495
f 31//31 55//55 543//543
f 550//550 541//541 55//55
f 887//887 651//651 519//519
f 257//257 762//762 763//763
f 617//617 423//423 897//897
f 298//298 828//828 91//91
f 890//890 892//892 834//834
f 468//468 893//893 894//894
f 726//726 896//896 727//727
f 339//339 330//330 656//656
f 659//659 735//735 340//340
f 6//6 761//761 7//7
f 903//903 432//432 135//135
f 826//826 268//268 853//853
f 665//665 265//265 910//910
f 19//19 825//825 827//827
f 618//618 423//423 617//617
f 414//414 261//261 459//459
f 233//233 470//470 377//377
f 247//247 642//642 694//694
f 331//331 431//431 233//233
f 265//265 665//665 664//664
f 29//29 157//157 641//641
f 917//917 467//467 40//40
f 641//641 157//157 367//367
f 29//29 257//257 157//157
f 838//838 843//843 746//746
f 918//918 210//210 568//568
f 561//561 375//375 374//374
f 171//171 780//780 778//778
f 535//535 505//505 358//358
f 632//632 615//615 859//859
f 244//244 508//508 810//810
f 539//539 169//169 877//877
f 868//868 806//806 121//121
f 628//628 627//627 761//761
f 754//754 321//321 320//320
f 181//181 558//558 45//45
f 540//540 349//349 409//409
f 898//898 335//335 443//443
f 332//332 897//897 895//895
f 524//524 211//211 709//709
f 313//313 30//30 79//79
f 877//877 766//766 764//764
f 125//125 766//766 877//877
f 871//871 170//170 265//265
f 45//45 557//557 550//550
f 550//550 55//55 45//45
f 550//550 557//557 888//888
f 604//604 549//549 149//149
f 226//226 448//448 225//225
f 149//149 549//549 730//730
f 194//194 317//317 782//782
f 149//149 194//194 604//604
f 526//526 463//463 814//814
f 730//730 194//194 149//149
f 17//17 369//369 546//546
f 729//729 791//791 325//325
f 867//867 707//707 39//39
f 534//534 639//639 379//379
f 89//89 831//831 20//20
f 773//773 687//687 831//831
f 90//90 856//856 522//522
f 441//441 466//466 290//290
f 896//896 854//854 848//848
f 404//404 405//405 887//887
f 474//474 473//473 52//52
f 86//86 649//649 41//41
f 143//143 846//846 37//37
f 439//439 310//310 225//225
f 438//438 441//441 291//291
f 885//885 364//364 301//301
f 867//867 441//441 438//438
f 837//837 423//423 817//817
f 836//836 226//226 271//271
f 751//751 425//425 26//26
f 835//835 715//715 209//209
f 739//739 425//425 424//424
f 765//765 151//151 238//238
f 900//900 272//272 271//271
f 757//757 219//219 339//339
f 829//829 827//827 825//825
f 398//398 99//99 821//821
f 124//124 814//814 126//126
f 851//851 567//567 672//672
f 512//512 321//321 754//754
f 445//445 126//126 845//845
f 670//670 675//675 403//403
f 445//445 845//845 809//809
f 693//693 423//423 618//618
f 812//812 291//291 290//290
f 838//838 736//736 700//700
f 838//838 746//746 736//736
f 319//319 710//710 440//440
f 856//856 707//707 522//522
f 428//428 233//233 459//459
f 207//207 706//706 908//908
f 721//721 207//207 274//274
f 783//783 914//914 873//873
f 800//800 799//799 797//797
f 796//796 307//307 13//13
f 812//812 379//379 291//291
f 233//233 431//431 459//459
f 785//785 500//500 657//657
f 784//784 808//808 791//791
f 782//782 781//781 604//604
f 780//780 779//779 778//778
f 721//721 274//274 719//719
f 428//428 287//287 470//470
f 67//67 904//904 280//280
f 701//701 67//67 285//285
f 285//285 411//411 501//501
f 478//478 473//473 372//372
f 777//777 776//776 774//774
f 178//178 798//798 179//179
f 340//340 365//365 311//311
f 528//528 493//493 840//840
f 905//905 811//811 824//824
f 483//483 482//482 279//279
f 766//766 765//765 764//764
f 824//824 818//818 905//905
f 41//41 42//42 412//412
f 680//680 113//113 65//65
f 551//551 562//562 520//520
f 93//93 262//262 483//483
f 757//757 778//778 755//755
f 752//752 750//750 317//317
f 209//209 749//749 16//16
f 94//94 748//748 92//92
f 102//102 305//305 633//633
f 360//360 601//601 803//803
f 890//890 740//740 878//878
f 65//65 547//547 680//680
f 195//195 739//739 814//814
f 122//122 121//121 786//786
f 786//786 478//478 43//43
f 339//339 311//311 778//778
f 778//778 757//757 339//339
f 72//72 71//71 349//349
f 754//754 320//320 172//172
f 279//279 736//736 746//746
f 734//734 115//115 184//184
f 236//236 102//102 901//901
f 146//146 531//531 488//488
f 352//352 819//819 139//139
f 718//718 302//302 683//683
f 354//354 717//717 716//716
f 350//350 623//623 318//318
f 249//249 248//248 649//649
f 714//714 859//859 616//616
f 437//437 504//504 758//758
f 762//762 77//77 76//76
f 434//434 437//437 758//758
f 207//207 908//908 710//710
f 713//713 824//824 811//811
f 67//67 491//491 127//127
f 207//207 721//721 706//706
f 765//765 238//238 858//858
f 705//705 699//699 697//697
f 225//225 448//448 422//422
f 107//107 89//89 90//90
f 455//455 702//702 466//466
f 387//387 71//71 70//70
f 861//861 681//681 869//869
f 324//324 742//742 514//514
f 468//468 399//399 398//398
f 142//142 158//158 720//720
f 485//485 773//773 882//882
f 692//692 689//689 600//600
f 34//34 24//24 33//33
f 340//340 311//311 339//339
f 673//673 362//362 364//364
f 421//421 744//744 552//552
f 34//34 624//624 24//24
f 408//408 534//534 108//108
f 563//563 562//562 815//815
f 349//349 540//540 172//172
f 362//362 377//377 363//363
f 616//616 662//662 714//714
f 714//714 662//662 599//599
f 725//725 480//480 726//726
f 906//906 672//672 203//203
f 916//916 631//631 851//851
f 663//663 662//662 616//616
f 319//319 440//440 711//711
f 916//916 851//851 309//309
f 631//631 916//916 190//190
f 145//145 146//146 698//698
f 805//805 53//53 477//477
f 303//303 690//690 232//232
f 491//491 17//17 827//827
f 655//655 108//108 107//107
f 654//654 538//538 41//41
f 317//317 750//750 881//881
f 457//457 653//653 536//536
f 633//633 305//305 860//860
f 545//545 155//155 571//571
f 876//876 134//134 634//634
f 631//631 504//504 64//64
f 40//40 297//297 91//91
f 287//287 261//261 310//310
f 809//809 573//573 235//235
f 757//757 875//875 733//733
f 749//749 489//489 16//16
f 703//703 87//87 625//625
f 107//107 90//90 410//410
f 561//561 185//185 384//384
f 839//839 892//892 682//682
f 379//379 639//639 291//291
f 519//519 793//793 792//792
f 561//561 636//636 185//185
f 588//588 728//728 640//640
f 917//917 560//560 647//647
f 737//737 738//738 661//661
f 644//644 114//114 73//73
f 511//511 634//634 134//134
f 73//73 397//397 400//400
f 901//901 633//633 566//566
f 641//641 367//367 366//366
f 831//831 828//828 298//298
f 298//298 773//773 831//831
f 293//293 201//201 258//258
f 200//200 676//676 906//906
f 486//486 112//112 106//106
f 112//112 615//615 632//632
f 276//276 583//583 614//614
f 672//672 906//906 676//676
f 910//910 265//265 756//756
f 317//317 881//881 396//396
f 317//317 396//396 239//239
f 576//576 744//744 577//577
f 483//483 279//279 105//105
f 383//383 422//422 448//448
f 250//250 448//448 657//657
f 564//564 266//266 161//161
f 420//420 422//422 299//299
f 739//739 660//660 283//283
f 768//768 476//476 556//556
f 848//848 594//594 597//597
f 166//166 331//331 701//701
f 340//340 338//338 365//365
f 258//258 912//912 36//36
f 591//591 365//365 328//328
f 908//908 798//798 178//178
f 374//374 120//120 699//699
f 892//892 453//453 435//435
f 308//308 668//668 498//498
f 820//820 668//668 308//308
f 813//813 590//590 188//188
f 637//637 589//589 223//223
f 772//772 758//758 416//416
f 236//236 312//312 164//164
f 895//895 204//204 579//579
f 336//336 575//575 327//327
f 164//164 163//163 236//236
f 312//312 236//236 901//901
f 533//533 581//581 590//590
f 639//639 408//408 407//407
f 907//907 258//258 602//602
f 602//602 258//258 201//201
f 321//321 570//570 320//320
f 870//870 38//38 247//247
f 907//907 912//912 258//258
f 693//693 817//817 423//423
f 690//690 587//587 710//710
f 710//710 587//587 440//440
f 799//799 244//244 810//810
f 579//579 98//98 169//169
f 561//561 374//374 699//699
f 576//576 577//577 36//36
f 699//699 636//636 561//561
f 516//516 191//191 596//596
f 555//555 893//893 398//398
f 519//519 404//404 887//887
f 76//76 763//763 762//762
f 553//553 707//707 58//58
f 845//845 173//173 2//2
f 610//610 609//609 804//804
f 712//712 490//490 605//605
f 718//718 173//173 126//126
f 137//137 571//571 138//138
f 126//126 173//173 845//845
f 484//484 705//705 314//314
f 569//569 783//783 751//751
f 553//553 917//917 39//39
f 697//697 314//314 705//705
f 702//702 776//776 667//667
f 746//746 15//15 14//14
f 393//393 278//278 176//176
f 502//502 335//335 503//503
f 217//217 697//697 120//120
f 752//752 458//458 750//750
f 849//849 314//314 891//891
f 484//484 314//314 849//849
f 198//198 314//314 199//199
f 199//199 314//314 216//216
f 217//217 314//314 697//697
f 772//772 548//548 435//435
f 310//310 439//439 287//287
f 139//139 368//368 296//296
f 368//368 139//139 819//819
f 755//755 778//778 779//779
f 296//296 368//368 872//872
f 166//166 701//701 285//285
f 547//547 818//818 104//104
f 488//488 865//865 146//146
f 543//543 541//541 221//221
f 522//522 406//406 408//408
f 678//678 677//677 584//584
f 859//859 860//860 632//632
f 761//761 6//6 628//628
f 546//546 18//18 17//17
f 675//675 670//670 672//672
f 627//627 732//732 826//826
f 408//408 639//639 534//534
f 601//601 603//603 803//803
f 51//51 53//53 393//393
f 917//917 40//40 39//39
f 732//732 627//627 84//84
f 625//625 26//26 24//24
f 447//447 685//685 582//582
f 653//653 662//662 508//508
f 521//521 556//556 520//520
f 807//807 53//53 805//805
f 233//233 428//428 470//470
f 325//325 346//346 729//729
f 169//169 539//539 858//858
f 915//915 892//892 839//839
f 700//700 288//288 551//551
f 516//516 658//658 359//359
f 463//463 526//526 302//302
f 8//8 515//515 830//830
f 551//551 117//117 700//700
f 150//150 151//151 766//766
f 647//647 467//467 917//917
f 572//572 150//150 766//766
f 150//150 572//572 68//68
f 151//151 765//765 766//766
f 68//68 151//151 150//150
f 398//398 821//821 555//555
f 151//151 888//888 238//238
f 375//375 825//825 120//120
f 840//840 249//249 842//842
f 217//217 388//388 216//216
f 278//278 746//746 176//176
f 499//499 15//15 746//746
f 671//671 670//670 403//403
f 597//597 835//835 16//16
f 164//164 174//174 801//801
f 497//497 786//786 805//805
f 503//503 335//335 898//898
f 297//297 467//467 894//894
f 584//584 677//677 679//679
f 277//277 492//492 276//276
f 497//497 477//477 478//478
f 504//504 189//189 416//416
f 219//219 757//757 733//733
f 448//448 479//479 657//657
f 349//349 623//623 350//350
f 334//334 523//523 335//335
f 321//321 512//512 273//273
f 48//48 431//431 47//47
f 878//878 892//892 890//890
f 702//702 455//455 91//91
f 731//731 855//855 476//476
f 252//252 868//868 251//251
f 327//327 575//575 742//742
f 659//659 602//602 735//735
f 735//735 413//413 674//674
f 682//682 892//892 435//435
f 808//808 326//326 791//791
f 352//352 138//138 571//571
f 683//683 220//220 718//718
f 735//735 201//201 413//413
f 465//465 614//614 583//583
f 56//56 229//229 159//159
f 461//461 464//464 712//712
f 750//750 458//458 881//881
f 447//447 404//404 794//794
f 825//825 581//581 580//580
f 806//806 716//716 807//807
f 716//716 717//717 807//807
f 470//470 287//287 469//469
f 892//892 878//878 453//453
f 449//449 669//669 429//429
f 882//882 527//527 485//485
f 603//603 336//336 759//759
f 423//423 204//204 897//897
f 225//225 310//310 226//226
f 556//556 551//551 520//520
f 592//592 855//855 211//211
f 64//64 567//567 631//631
f 691//691 126//126 445//445
f 728//728 433//433 679//679
f 486//486 527//527 529//529
f 442//442 297//297 894//894
f 466//466 441//441 455//455
f 906//906 203//203 202//202
f 861//861 869//869 134//134
f 822//822 578//578 82//82
f 478//478 477//477 473//473
f 50//50 437//437 49//49
f 329//329 386//386 328//328
f 303//303 18//18 546//546
f 633//633 901//901 102//102
f 502//502 334//334 335//335
f 376//376 532//532 630//630
f 376//376 801//801 215//215
f 376//376 790//790 532//532
f 598//598 689//689 866//866
f 575//575 686//686 886//886
f 376//376 215//215 790//790
f 458//458 752//752 430//430
f 397//397 911//911 387//387
f 158//158 770//770 706//706
f 710//710 319//319 207//207
f 873//873 254//254 488//488
f 53//53 427//427 394//394
f 600//600 689//689 598//598
f 22//22 790//790 856//856
f 610//610 254//254 609//609
f 694//694 245//245 247//247
f 308//308 309//309 426//426
f 679//679 678//678 640//640
f 611//611 607//607 918//918
f 319//319 680//680 207//207
f 755//755 779//779 766//766
f 528//528 882//882 9//9
f 430//430 902//902 900//900
f 761//761 853//853 7//7
f 494//494 493//493 528//528
f 893//893 295//295 894//894
f 295//295 493//493 494//494
f 36//36 513//513 258//258
f 668//668 250//250 500//500
f 894//894 295//295 442//442
f 826//826 846//846 268//268
f 259//259 893//893 555//555
f 159//159 493//493 259//259
f 446//446 159//159 259//259
f 811//811 344//344 341//341
f 820//820 250//250 668//668
f 599//599 662//662 653//653
f 336//336 656//656 330//330
f 907//907 602//602 659//659
f 625//625 87//87 610//610
f 731//731 476//476 475//475
f 659//659 327//327 907//907
f 167//167 637//637 223//223
f 228//228 227//227 224//224
f 224//224 507//507 353//353
f 401//401 699//699 705//705
f 652//652 669//669 132//132
f 742//742 769//769 110//110
f 866//866 356//356 565//565
f 317//317 270//270 430//430
f 430//430 270//270 902//902
f 576//576 542//542 552//552
f 400//400 397//397 200//200
f 211//211 524//524 525//525
f 534//534 379//379 290//290
f 902//902 270//270 272//272
f 464//464 719//719 850//850
f 259//259 802//802 446//446
f 20//20 22//22 89//89
f 521//521 574//574 556//556
f 165//165 854//854 726//726
f 480//480 396//396 881//881
f 484//484 506//506 481//481
f 594//594 389//389 835//835
f 461//461 744//744 464//464
f 77//77 857//857 75//75
f 521//521 520//520 608//608
f 458//458 310//310 136//136
f 395//395 222//222 49//49
f 388//388 390//390 533//533
f 226//226 310//310 900//900
f 900//900 310//310 458//458
f 678//678 584//584 277//277
f 310//310 261//261 136//136
f 18//18 316//316 608//608
f 141//141 140//140 224//224
f 447//447 582//582 492//492
f 468//468 398//398 893//893
f 302//302 586//586 585//585
f 594//594 848//848 248//248
f 387//387 385//385 71//71
f 861//861 682//682 681//681
f 675//675 70//70 72//72
f 299//299 422//422 383//383
f 224//224 223//223 228//228
f 200//200 397//397 387//387
f 643//643 706//706 770//770
f 551//551 592//592 231//231
f 782//782 604//604 194//194
f 218//218 215//215 801//801
f 915//915 465//465 583//583
f 801//801 213//213 218//218
f 58//58 856//856 215//215
f 381//381 41//41 649//649
f 878//878 740//740 453//453
f 841//841 380//380 378//378
f 545//545 296//296 155//155
f 376//376 630//630 801//801
f 123//123 122//122 322//322
f 523//523 185//185 517//517
f 735//735 674//674 337//337
f 412//412 646//646 84//84
f 47//47 431//431 589//589
f 681//681 682//682 435//435
f 758//758 772//772 434//434
f 370//370 767//767 424//424
f 799//799 810//810 797//797
f 436//436 505//505 344//344
f 505//505 341//341 344//344
f 400//400 200//200 78//78
f 505//505 490//490 341//341
f 253//253 368//368 819//819
f 244//244 536//536 508//508
f 882//882 773//773 832//832
f 853//853 761//761 826//826
f 542//542 883//883 418//418
f 116//116 845//845 864//864
f 129//129 472//472 904//904
f 465//465 621//621 614//614
f 29//29 641//641 386//386
f 572//572 243//243 246//246
f 79//79 186//186 12//12
f 608//608 452//452 18//18
f 514//514 788//788 357//357
f 429//429 704//704 3//3
f 347//347 729//729 346//346
f 753//753 704//704 624//624
f 240//240 753//753 395//395
f 887//887 87//87 652//652
f 529//529 528//528 841//841
f 88//88 87//87 27//27
f 726//726 480//480 909//909
f 793//793 519//519 652//652
f 669//669 704//704 429//429
f 394//394 94//94 93//93
f 481//481 483//483 262//262
f 223//223 898//898 443//443
f 652//652 704//704 669//669
f 652//652 87//87 704//704
f 703//703 625//625 704//704
f 135//135 432//432 588//588
f 887//887 405//405 432//432
f 433//433 728//728 588//588
f 469//469 439//439 863//863
f 298//298 442//442 833//833
f 86//86 412//412 84//84
f 481//481 518//518 705//705
f 522//522 410//410 90//90
f 593//593 787//787 788//788
f 771//771 556//556 694//694
f 890//890 834//834 208//208
f 536//536 653//653 508//508
f 800//800 852//852 268//268
f 344//344 570//570 436//436
f 595//595 596//596 916//916
f 242//242 197//197 331//331
f 362//362 673//673 242//242
f 211//211 231//231 592//592
f 535//535 351//351 635//635
f 814//814 463//463 126//126
f 380//380 628//628 378//378
f 206//206 124//124 126//126
f 303//303 382//382 574//574
f 358//358 386//386 535//535
f 343//343 77//77 762//762
f 382//382 232//232 178//178
f 770//770 769//769 326//326
f 232//232 382//382 303//303
f 157//157 171//171 367//367
f 883//883 421//421 418//418
f 21//21 688//688 823//823
f 531//531 783//783 488//488
f 751//751 783//783 531//531
f 751//751 531//531 425//425
f 481//481 705//705 484//484
f 352//352 571//571 698//698
f 347//347 346//346 357//357
f 573//573 683//683 571//571
f 417//417 883//883 111//111
f 518//518 517//517 401//401
f 488//488 783//783 873//873
f 373//373 372//372 473//473
f 318//318 301//301 350//350
f 280//280 904//904 472//472
f 666//666 211//211 549//549
f 70//70 676//676 387//387
f 426//426 333//333 403//403
f 666//666 709//709 211//211
f 221//221 541//541 186//186
f 101//101 244//244 100//100
f 313//313 342//342 30//30
f 775//775 260//260 99//99
f 297//297 442//442 298//298
f 509//509 538//538 654//654
f 265//265 113//113 756//756
f 66//66 701//701 331//331
f 908//908 706//706 798//798
f 130//130 569//569 254//254
f 491//491 827//827 544//544
f 656//656 659//659 340//340
f 238//238 888//888 557//557
f 898//898 431//431 503//503
f 678//678 884//884 640//640
f 275//275 884//884 678//678
f 323//323 614//614 621//621
f 356//356 566//566 565//565
f 366//366 591//591 641//641
f 822//822 82//82 823//823
f 730//730 855//855 731//731
f 399//399 177//177 99//99
f 647//647 177//177 399//399
f 855//855 592//592 62//62
f 811//811 341//341 490//490
f 708//708 809//809 289//289
f 814//814 284//284 526//526
f 370//370 302//302 526//526
f 370//370 586//586 302//302
f 370//370 526//526 284//284
f 774//774 776//776 108//108
f 912//912 542//542 36//36
f 513//513 293//293 258//258
f 746//746 14//14 176//176
f 468//468 467//467 647//647
f 230//230 513//513 36//36
f 823//823 723//723 722//722
f 877//877 764//764 539//539
f 97//97 282//282 25//25
f 739//739 26//26 425//425
f 796//796 13//13 50//50
f 109//109 907//907 327//327
f 819//819 698//698 146//146
f 64//64 342//342 202//202
f 751//751 26//26 804//804
f 174//174 175//175 182//182
f 175//175 269//269 267//267
f 267//267 182//182 175//175
f 49//49 437//437 740//740
f 811//811 905//905 344//344
f 264//264 518//518 262//262
f 449//449 429//429 740//740
f 333//333 426//426 309//309
f 568//568 446//446 802//802
f 581//581 391//391 580//580
f 624//624 32//32 753//753
f 706//706 721//721 158//158
f 623//623 818//818 318//318
f 78//78 79//79 400//400
f 316//316 574//574 521//521
f 851//851 333//333 309//309
f 205//205 618//618 899//899
f 463//463 302//302 718//718
f 205//205 899//899 33//33
f 140//140 165//165 167//167
f 628//628 380//380 844//844
f 209//209 715//715 210//210
f 787//787 595//595 309//309
f 663//663 616//616 830//830
f 852//852 515//515 7//7
f 315//315 479//479 836//836
f 515//515 663//663 830//830
f 320//320 905//905 172//172
f 450//450 700//700 736//736
f 540//540 273//273 172//172
f 578//578 822//822 688//688
f 788//788 309//309 308//308
f 356//356 100//100 566//566
f 607//607 749//749 209//209
f 893//893 259//259 295//295
f 16//16 835//835 209//209
f 729//729 731//731 645//645
f 582//582 685//685 794//794
f 52//52 477//477 53//53
f 747//747 71//71 385//385
f 38//38 179//179 247//247
f 847//847 632//632 305//305
f 559//559 613//613 256//256
f 560//560 559//559 647//647
f 214//214 647//647 559//559
f 364//364 420//420 301//301
f 420//420 299//299 301//301
f 145//145 683//683 585//585
f 300//300 415//415 301//301
f 300//300 299//299 402//402
f 409//409 71//71 747//747
f 167//167 165//165 909//909
f 451//451 606//606 393//393
f 596//596 189//189 190//190
f 809//809 845//845 573//573
f 775//775 256//256 322//322
f 357//357 788//788 308//308
f 371//371 306//306 43//43
f 449//449 740//740 890//890
f 367//367 311//311 366//366
f 188//188 590//590 562//562
f 492//492 583//583 276//276
f 206//206 205//205 124//124
f 306//306 322//322 122//122
f 467//467 468//468 894//894
f 852//852 797//797 515//515
f 843//843 741//741 499//499
f 567//567 202//202 203//203
f 312//312 244//244 103//103
f 831//831 89//89 107//107
f 163//163 723//723 236//236
f 137//137 545//545 571//571
f 20//20 831//831 687//687
f 789//789 443//443 264//264
f 624//624 704//704 625//625
f 667//667 776//776 777//777
f 583//583 492//492 582//582
f 300//300 402//402 415//415
f 276//276 872//872 275//275
f 304//304 866//866 565//565
f 566//566 244//244 312//312
f 281//281 861//861 134//134
f 887//887 652//652 651//651
f 402//402 426//426 403//403
f 592//592 551//551 62//62
f 476//476 551//551 556//556
f 571//571 683//683 698//698
f 451//451 93//93 606//606
f 393//393 279//279 278//278
f 855//855 549//549 211//211
f 60//60 154//154 153//153
f 255//255 275//275 368//368
f 700//700 709//709 843//843
f 485//485 487//487 578//578
f 153//153 155//155 872//872
f 487//487 632//632 847//847
f 474//474 51//51 393//393
f 896//896 597//597 294//294
f 503//503 431//431 626//626
f 880//880 378//378 292//292
f 597//597 16//16 15//15
f 502//502 411//411 620//620
f 638//638 472//472 471//471
f 452//452 520//520 562//562
f 154//154 289//289 235//235
f 2//2 173//173 220//220
f 84//84 646//646 732//732
f 574//574 245//245 694//694
f 472//472 411//411 280//280
f 302//302 585//585 683//683
f 884//884 275//275 255//255
f 81//81 484//484 849//849
f 860//860 859//859 192//192
f 288//288 450//450 815//815
f 607//607 611//611 373//373
f 482//482 481//481 506//506
f 469//469 287//287 439//439
f 843//843 499//499 746//746
f 726//726 909//909 165//165
f 607//607 373//373 749//749
f 238//238 557//557 332//332
f 796//796 50//50 221//221
f 613//613 286//286 564//564
f 873//873 914//914 254//254
f 732//732 846//846 826//826
f 437//437 434//434 453//453
f 658//658 360//360 359//359
f 352//352 698//698 819//819
f 574//574 382//382 245//245
f 64//64 504//504 183//183
f 413//413 293//293 674//674
f 29//29 386//386 358//358
f 64//64 183//183 30//30
f 374//374 375//375 120//120
f 829//829 375//375 544//544
f 364//364 885//885 673//673
f 676//676 200//200 387//387
f 270//270 730//730 315//315
f 768//768 556//556 771//771
f 593//593 886//886 686//686
f 126//126 691//691 206//206
f 388//388 199//199 216//216
f 438//438 707//707 867//867
f 599//599 653//653 457//457
f 532//532 790//790 21//21
f 906//906 78//78 200//200
f 406//406 707//707 695//695
f 476//476 62//62 551//551
f 562//562 551//551 288//288
f 241//241 421//421 552//552
f 282//282 281//281 134//134
f 291//291 696//696 438//438
f 49//49 740//740 395//395
f 800//800 797//797 852//852
f 695//695 696//696 291//291
f 15//15 499//499 879//879
f 111//111 907//907 109//109
f 93//93 92//92 262//262
f 230//230 577//577 461//461
f 264//264 443//443 335//335
f 264//264 335//335 523//523
f 230//230 461//461 460//460
f 612//612 260//260 611//611
f 202//202 567//567 64//64
f 452//452 608//608 520//520
f 693//693 708//708 817//817
f 723//723 823//823 82//82
f 546//546 369//369 440//440
f 667//667 777//777 795//795
f 108//108 795//795 774//774
f 836//836 479//479 226//226
f 553//553 554//554 560//560
f 293//293 413//413 201//201
f 741//741 879//879 499//499
f 642//642 808//808 694//694
f 210//210 446//446 568//568
f 162//162 630//630 163//163
f 550//550 888//888 12//12
f 99//99 260//260 612//612
f 505//505 535//535 684//684
f 343//343 257//257 29//29
f 67//67 129//129 904//904
f 313//313 202//202 342//342
f 914//914 783//783 130//130
f 472//472 444//444 471//471
f 533//533 590//590 813//813
f 317//317 430//430 752//752
f 832//832 46//46 9//9
f 18//18 303//303 316//316
f 61//61 128//128 125//125
f 795//795 466//466 702//702
f 361//361 511//511 496//496
f 243//243 766//766 779//779
f 795//795 702//702 667//667
f 459//459 431//431 414//414
f 650//650 649//649 86//86
f 85//85 650//650 86//86
f 39//39 707//707 553//553
f 695//695 291//291 406//406
f 288//288 815//815 562//562
f 452//452 590//590 19//19
f 450//450 288//288 700//700
f 513//513 230//230 460//460
f 530//530 513//513 460//460
f 289//289 323//323 152//152
f 542//542 418//418 419//419
f 611//611 918//918 612//612
f 395//395 740//740 429//429
f 403//403 675//675 72//72
f 210//210 607//607 209//209
f 786//786 497//497 478//478
f 92//92 263//263 262//262
f 47//47 589//589 637//637
f 713//713 850//850 824//824
f 626//626 431//431 331//331
f 853//853 852//852 7//7
f 671//671 403//403 333//333
f 851//851 631//631 567//567
f 459//459 287//287 428//428
f 631//631 190//190 189//189
f 206//206 693//693 618//618
f 481//481 262//262 518//518
f 434//434 435//435 453//453
f 189//189 504//504 631//631
f 142//142 417//417 769//769
f 757//757 755//755 875//875
f 730//730 729//729 785//785
f 252//252 251//251 646//646
f 841//841 842//842 380//380
f 844//844 380//380 650//650
f 79//79 246//246 243//243
f 918//918 607//607 210//210
f 654//654 248//248 848//848
f 673//673 885//885 170//170
f 509//509 141//141 538//538
f 654//654 381//381 96//96
f 865//865 253//253 819//819
f 281//281 622//622 861//861
f 270//270 315//315 271//271
f 257//257 343//343 762//762
f 611//611 260//260 306//306
f 315//315 836//836 271//271
f 156//156 242//242 910//910
f 711//711 156//156 910//910
f 249//249 648//648 842//842
f 369//369 156//156 711//711
f 566//566 633//633 392//392
f 371//371 373//373 611//611
f 772//772 416//416 189//189
f 821//821 802//802 555//555
f 136//136 909//909 480//480
f 136//136 480//480 458//458
f 402//402 299//299 383//383
f 456//456 197//197 156//156
f 369//369 456//456 156//156
f 223//223 443//443 228//228
f 618//618 181//181 899//899
f 596//596 190//190 916//916
f 197//197 242//242 156//156
f 573//573 845//845 116//116
f 133//133 669//669 449//449
f 715//715 835//835 389//389
f 870//870 247//247 245//245
f 712//712 713//713 811//811
f 781//781 666//666 604//604
f 584//584 405//405 447//447
f 366//366 311//311 365//365
f 21//21 823//823 722//722
f 831//831 107//107 828//828
f 432//432 433//433 588//588
f 672//672 567//567 203//203
f 318//318 345//345 301//301
f 613//613 559//559 213//213
f 240//240 395//395 429//429
f 538//538 141//141 353//353
f 461//461 712//712 605//605
f 444//444 472//472 384//384
f 544//544 827//827 829//829
f 739//739 424//424 767//767
f 313//313 906//906 202//202
f 417//417 110//110 769//769
f 286//286 182//182 564//564
f 182//182 267//267 564//564
f 370//370 284//284 283//283
f 523//523 334//334 620//620
f 717//717 427//427 807//807
f 807//807 427//427 53//53
f 717//717 227//227 748//748
f 864//864 683//683 116//116
f 227//227 92//92 748//748
f 433//433 405//405 584//584
f 666//666 741//741 843//843
f 348//348 415//415 72//72
f 94//94 394//394 748//748
f 394//394 427//427 748//748
f 244//244 566//566 100//100
f 324//324 769//769 742//742
f 15//15 741//741 597//597
f 348//348 72//72 349//349
f 87//87 887//887 95//95
f 294//294 597//597 741//741
f 889//889 857//857 77//77
f 741//741 666//666 781//781
f 294//294 741//741 781//781
f 248//248 654//654 28//28
f 85//85 84//84 844//844
f 742//742 743//743 514//514
f 863//863 862//862 363//363
f 364//364 83//83 420//420
f 688//688 21//21 20//20
f 459//459 261//261 287//287
f 437//437 183//183 504//504
f 813//813 187//187 388//388
f 388//388 187//187 891//891
f 679//679 640//640 728//728
f 798//798 642//642 247//247
f 187//187 813//813 188//188
f 793//793 652//652 132//132
f 449//449 890//890 208//208
f 388//388 533//533 813//813
f 731//731 475//475 645//645
f 808//808 784//784 645//645
f 621//621 234//234 323//323
f 187//187 849//849 891//891
f 861//861 622//622 682//682
f 549//549 855//855 730//730
f 671//671 333//333 851//851
f 42//42 538//538 355//355
f 615//615 292//292 830//830
f 42//42 355//355 119//119
f 354//354 119//119 355//355
f 412//412 42//42 119//119
f 646//646 412//412 119//119
f 42//42 41//41 538//538
f 616//616 615//615 830//830
f 609//609 254//254 569//569
f 409//409 889//889 540//540
f 154//154 614//614 323//323
f 230//230 36//36 577//577
f 181//181 617//617 558//558
f 421//421 241//241 419//419
f 249//249 229//229 248//248
f 908//908 178//178 232//232
f 317//317 239//239 725//725
f 140//140 167//167 224//224
f 491//491 67//67 701//701
f 275//275 678//678 277//277
f 259//259 555//555 802//802
f 492//492 277//277 584//584
f 584//584 447//447 492//492
f 491//491 701//701 66//66
f 820//820 308//308 426//426
f 720//720 417//417 142//142
f 322//322 256//256 160//160
f 160//160 123//123 322//322
f 575//575 603//603 601//601
f 336//336 603//603 575//575
f 781//781 782//782 727//727
f 575//575 601//601 686//686
f 218//218 554//554 215//215
f 133//133 449//449 208//208
f 504//504 416//416 758//758
f 304//304 738//738 598//598
f 859//859 738//738 193//193
f 777//777 774//774 795//795
f 859//859 661//661 738//738
f 157//157 257//257 913//913
f 579//579 858//858 895//895
f 121//121 161//161 266//266
f 409//409 747//747 889//889
f 756//756 113//113 680//680
f 642//642 326//326 808//808
f 531//531 586//586 424//424
f 531//531 424//424 425//425
f 559//559 256//256 214//214
f 304//304 193//193 738//738
f 613//613 213//213 286//286
f 19//19 827//827 17//17
f 829//829 825//825 375//375
f 331//331 456//456 66//66
f 618//618 205//205 206//206
f 559//559 218//218 213//213
f 281//281 282//282 74//74
f 68//68 572//572 246//246
f 648//648 650//650 380//380
f 380//380 842//842 648//648
f 897//897 332//332 558//558
f 54//54 832//832 833//833
f 204//204 423//423 837//837
f 518//518 401//401 705//705
f 255//255 254//254 610//610
f 785//785 479//479 315//315
f 785//785 657//657 479//479
f 617//617 897//897 558//558
f 101//101 100//100 356//356
f 88//88 903//903 884//884
f 64//64 30//30 342//342
f 854//854 509//509 654//654
f 139//139 545//545 137//137
f 158//158 721//721 719//719
f 621//621 465//465 915//915
f 534//534 795//795 108//108
f 621//621 915//915 839//839
f 690//690 908//908 232//232
f 241//241 542//542 419//419
f 298//298 833//833 773//773
f 312//312 901//901 566//566
f 817//817 816//816 837//837
f 736//736 279//279 482//482
f 164//164 801//801 630//630
f 388//388 217//217 580//580
f 737//737 661//661 714//714
f 388//388 391//391 390//390
f 265//265 170//170 885//885
f 720//720 719//719 464//464
f 891//891 314//314 198//198
f 906//906 313//313 78//78
f 543//543 55//55 541//541
f 543//543 221//221 32//32
f 617//617 181//181 618//618
f 593//593 595//595 787//787
f 154//154 235//235 155//155
f 779//779 644//644 243//243
f 862//862 83//83 364//364
f 141//141 165//165 140//140
f 385//385 913//913 257//257
f 606//606 279//279 393//393
f 568//568 802//802 918//918
f 612//612 918//918 821//821
f 821//821 918//918 802//802
f 612//612 821//821 99//99
f 849//849 80//80 81//81
f 872//872 368//368 275//275
f 461//461 605//605 462//462
f 792//792 794//794 404//404
f 636//636 699//699 517//517
f 80//80 188//188 563//563
f 590//590 581//581 19//19
f 496//496 511//511 134//134
f 172//172 512//512 754//754
f 512//512 172//172 273//273
f 819//819 146//146 865//865
f 390//390 581//581 533//533
f 534//534 290//290 795//795
f 464//464 744//744 720//720
f 857//857 889//889 747//747
f 108//108 776//776 828//828
f 17//17 491//491 369//369
f 830//830 292//292 8//8
f 331//331 197//197 456//456
f 139//139 138//138 352//352
f 845//845 2//2 864//864
f 574//574 316//316 303//303
f 448//448 250//250 383//383
f 204//204 212//212 579//579
f 36//36 542//542 576//576
f 597//597 594//594 835//835
f 255//255 368//368 253//253
f 462//462 505//505 684//684
f 779//779 196//196 644//644
f 67//67 127//127 129//129
f 780//780 196//196 779//779
f 79//79 30//30 307//307
f 475//475 476//476 768//768
f 189//189 596//596 191//191
f 775//775 177//177 214//214
f 370//370 660//660 767//767
f 216//216 314//314 217//217
f 117//117 231//231 211//211
f 542//542 241//241 552//552
f 370//370 424//424 586//586
f 292//292 378//378 6//6
f 222//222 221//221 49//49
f 747//747 763//763 857//857
f 382//382 870//870 245//245
f 294//294 727//727 896//896
f 253//253 865//865 488//488
f 78//78 313//313 79//79
f 12//12 541//541 550//550
f 229//229 840//840 159//159
f 806//806 786//786 121//121
f 252//252 646//646 119//119
f 806//806 805//805 786//786
f 345//345 65//65 113//113
f 834//834 915//915 510//510
f 56//56 715//715 389//389
f 321//321 436//436 570//570
f 154//154 276//276 614//614
f 296//296 872//872 155//155
f 186//186 79//79 307//307
f 229//229 249//249 840//840
f 863//863 439//439 862//862
f 248//248 389//389 594//594
f 493//493 159//159 840//840
f 126//126 463//463 718//718
f 797//797 810//810 663//663
f 625//625 804//804 26//26
f 574//574 694//694 556//556
f 885//885 345//345 113//113
f 741//741 15//15 879//879
f 805//805 477//477 497//497
f 274//274 680//680 547//547
f 462//462 605//605 490//490
f 166//166 626//626 331//331
f 14//14 474//474 176//176
f 101//101 356//356 457//457
f 692//692 457//457 866//866
f 252//252 806//806 868//868
f 366//366 365//365 591//591
f 127//127 544//544 384//384
f 294//294 781//781 727//727
f 613//613 160//160 256//256
f 800//800 268//268 269//269
f 360//360 658//658 601//601
f 184//184 759//759 734//734
f 881//881 458//458 480//480
f 377//377 242//242 331//331
f 799//799 800//800 69//69
f 493//493 295//295 259//259
f 93//93 483//483 35//35
f 665//665 242//242 664//664
f 22//22 856//856 90//90
f 771//771 808//808 768//768
f 82//82 847//847 723//723
f 844//844 650//650 85//85
f 723//723 847//847 102//102
f 236//236 723//723 102//102
f 629//629 724//724 163//163
f 204//204 895//895 897//897
f 40//40 467//467 297//297
f 717//717 507//507 227//227
f 717//717 354//354 507//507
f 694//694 808//808 771//771
f 744//744 421//421 720//720
f 127//127 491//491 544//544
f 3//3 704//704 753//753
f 19//19 581//581 825//825
f 70//70 675//675 676//676
f 30//30 183//183 13//13
f 710//710 908//908 690//690
f 553//553 560//560 917//917
f 436//436 889//889 358//358
f 766//766 243//243 572//572
f 505//505 436//436 358//358
f 902//902 272//272 900//900
f 729//729 784//784 791//791
f 347//347 785//785 729//729
f 385//385 763//763 747//747
f 857//857 763//763 75//75
f 357//357 308//308 498//498
f 729//729 645//645 784//784
f 736//736 482//482 450//450
f 304//304 565//565 192//192
f 611//611 306//306 371//371
f 887//887 432//432 237//237
f 455//455 39//39 40//40
f 76//76 75//75 763//763
f 591//591 328//328 641//641
f 484//484 81//81 506//506
f 521//521 608//608 316//316
f 525//525 700//700 117//117
f 198//198 199//199 388//388
f 182//182 286//286 801//801
f 601//601 658//658 686//686
f 767//767 660//660 739//739
f 742//742 575//575 743//743
f 743//743 575//575 886//886
f 51//51 474//474 52//52
f 318//318 818//818 65//65
f 305//305 632//632 860//860
f 251//251 732//732 646//646
f 391//391 388//388 580//580
f 131//131 251//251 868//868
f 63//63 732//732 251//251
f 440//440 369//369 711//711
f 132//132 669//669 133//133
f 910//910 756//756 711//711
f 687//687 485//485 578//578
f 25//25 282//282 134//134
f 811//811 490//490 712//712
f 32//32 221//221 222//222
f 29//29 77//77 343//343
f 562//562 590//590 452//452
f 457//457 536//536 537//537
f 790//790 215//215 856//856
f 700//700 524//524 709//709
f 72//72 415//415 403//403
f 219//219 734//734 168//168
f 510//510 915//915 583//583
f 837//837 212//212 204//204
f 723//723 163//163 724//724
f 841//841 528//528 840//840
f 794//794 685//685 447//447
f 235//235 571//571 155//155
f 219//219 168//168 330//330
f 186//186 307//307 221//221
f 656//656 340//340 339//339
f 479//479 448//448 226//226
f 293//293 513//513 180//180
f 914//914 130//130 254//254
f 793//793 132//132 582//582
f 549//549 604//604 666//666
f 910//910 242//242 665//665
f 674//674 293//293 337//337
f 498//498 347//347 357//357
f 455//455 441//441 867//867
f 165//165 509//509 854//854
f 651//651 652//652 519//519
f 387//387 913//913 385//385
f 153//153 872//872 60//60
f 377//377 469//469 363//363
f 384//384 472//472 127//127
f 896//896 726//726 854//854
f 809//809 708//708 445//445
f 470//470 469//469 377//377
f 329//329 535//535 386//386
f 384//384 185//185 444//444
f 506//506 450//450 482//482
f 619//619 185//185 620//620
f 620//620 185//185 523//523
f 638//638 185//185 619//619
f 444//444 185//185 471//471
f 471//471 185//185 638//638
f 739//739 283//283 284//284
f 692//692 600//600 457//457
f 430//430 900//900 458//458
f 321//321 273//273 889//889
f 782//782 725//725 727//727
f 32//32 222//222 753//753
f 859//859 193//193 192//192
f 859//859 714//714 661//661
f 195//195 124//124 205//205
f 724//724 532//532 21//21
f 486//486 529//529 880//880
f 111//111 912//912 907//907
f 828//828 702//702 91//91
f 559//559 560//560 218//218
f 875//875 755//755 766//766
f 454//454 530//530 351//351
f 691//691 445//445 708//708
f 708//708 693//693 691//691
f 388//388 891//891 198//198
f 120//120 697//697 699//699
f 169//169 858//858 579//579
f 862//862 364//364 363//363
f 324//324 514//514 325//325
f 715//715 446//446 210//210
f 437//437 453//453 740//740
f 627//627 844//844 84//84
f 8//8 7//7 515//515
f 749//749 373//373 489//489
f 407//407 291//291 639//639
f 286//286 213//213 801//801
f 327//327 656//656 336//336
f 301//301 345//345 885//885
f 599//599 457//457 600//600
f 223//223 589//589 898//898
f 375//375 561//561 544//544
f 838//838 700//700 843//843
f 735//735 337//337 338//338
f 911//911 114//114 196//196
f 582//582 794//794 793//793
f 834//834 892//892 915//915
f 104//104 274//274 547//547
f 417//417 421//421 883//883
f 561//561 384//384 544//544
f 329//329 530//530 454//454
f 480//480 239//239 396//396
f 876//876 634//634 874//874
f 69//69 144//144 103//103
f 756//756 319//319 711//711
f 633//633 860//860 392//392
f 382//382 38//38 870//870
f 215//215 554//554 58//58
f 317//317 725//725 782//782
f 820//820 426//426 402//402
f 346//346 325//325 514//514
f 765//765 858//858 539//539
f 659//659 656//656 327//327
f 820//820 383//383 250//250
f 622//622 839//839 682//682
f 778//778 367//367 171//171
f 812//812 290//290 379//379
f 466//466 795//795 290//290
f 411//411 502//502 501//501
f 270//270 317//317 194//194
f 214//214 177//177 647//647
f 292//292 6//6 8//8
f 515//515 797//797 663//663
f 655//655 107//107 410//410
f 655//655 410//410 408//408
f 712//712 464//464 850//850
f 102//102 847//847 305//305
f 187//187 80//80 849//849
f 303//303 546//546 690//690
f 724//724 629//629 532//532
f 120//120 825//825 217//217
f 880//880 292//292 615//615
f 862//862 422//422 83//83
f 733//733 875//875 128//128
f 834//834 582//582 132//132
f 885//885 113//113 265//265
f 214//214 256//256 775//775
f 239//239 480//480 725//725
f 680//680 319//319 756//756
f 407//407 406//406 291//291
f 737//737 714//714 598//598
f 558//558 332//332 557//557
f 6//6 378//378 628//628
f 182//182 801//801 174//174
f 238//238 332//332 895//895
f 220//220 173//173 718//718
f 687//687 773//773 485//485
f 658//658 516//516 596//596
f 506//506 81//81 80//80
f 351//351 535//535 454//454
f 814//814 124//124 195//195
f 506//506 80//80 815//815
f 450//450 506//506 815//815
f 739//739 284//284 814//814
f 80//80 563//563 815//815
f 19//19 18//18 452//452
f 334//334 502//502 620//620
f 224//224 227//227 507//507
f 854//854 654//654 848//848
f 848//848 597//597 896//896
f 237//237 432//432 903//903
f 664//664 242//242 871//871
f 764//764 765//765 539//539
f 548//548 495//495 681//681
f 913//913 387//387 911//911
f 589//589 431//431 898//898
f 136//136 261//261 47//47
f 47//47 261//261 48//48
f 629//629 630//630 532//532
f 798//798 643//643 642//642
f 206//206 691//691 693//693
f 785//785 498//498 500//500
f 498//498 785//785 347//347
f 785//785 315//315 730//730
f 427//427 717//717 748//748
f 625//625 610//610 804//804
f 88//88 884//884 255//255
f 301//301 415//415 350//350
f 359//359 191//191 516//516
f 359//359 745//745 191//191
f 59//59 745//745 548//548
f 370//370 283//283 660//660
f 912//912 883//883 542//542
f 912//912 111//111 883//883
f 548//548 496//496 495//495
f 548//548 772//772 59//59
f 548//548 745//745 496//496
f 772//772 189//189 59//59
f 649//649 648//648 249//249
f 513//513 530//530 180//180
f 745//745 361//361 496//496
f 360//360 511//511 361//361
f 338//338 180//180 365//365
f 338//338 293//293 180//180
f 328//328 180//180 329//329
f 637//637 909//909 136//136
f 180//180 530//530 329//329
f 588//588 640//640 903//903
f 884//884 903//903 640//640
f 414//414 431//431 48//48
f 469//469 863//863 363//363
f 457//457 537//537 101//101
f 346//346 514//514 357//357
f 871//871 242//242 170//170
f 743//743 788//788 514//514
f 806//806 252//252 716//716
f 119//119 354//354 716//716
f 119//119 716//716 252//252
f 859//859 615//615 616//616
f 418//418 421//421 419//419
f 722//722 724//724 21//21
f 905//905 570//570 344//344
f 536//536 244//244 537//537
f 106//106 487//487 486//486
f 237//237 903//903 88//88
f 578//578 487//487 847//847
f 537//537 244//244 101//101
f 578//578 847//847 82//82
f 636//636 517//517 185//185
f 517//517 699//699 401//401
f 13//13 437//437 50//50
f 454//454 535//535 329//329
f 226//226 900//900 271//271
f 326//326 643//643 770//770
f 116//116 683//683 573//573
f 367//367 778//778 311//311
f 13//13 183//183 437//437
f 270//270 194//194 730//730
f 804//804 569//569 751//751
f 581//581 390//390 391//391
