# https://github.com/mikedh/trimesh
v 0.00885667 -0.16405600 0.12339233
v 0.01986900 -0.20971700 0.09174700
v 0.03146650 -0.16711100 0.10092450
v 0.14770433 0.18741233 -0.04648933
v 0.17147500 0.15970600 -0.06241100
v 0.16625000 0.19043850 -0.07550000
v 0.00780700 -0.32067600 0.04370800
v -0.00332600 -0.29492800 0.07339100
v -0.25189500 -0.10690900 -0.13603000
v 0.16746300 0.09067600 -0.07474000
v 0.21394000 0.07343500 -0.07607600
v 0.16281000 0.04533800 -0.07506600
v 0.01732900 -0.08448000 0.12702600
v -0.00704400 -0.11041000 0.12982567
v 0.02873200 -0.39834650 -0.05312250
v 0.01933200 -0.39363200 -0.03026100
v -0.23208800 0.04758700 0.03282200
v -0.24891052 -0.16515167 -0.00344477
v -0.24676186 -0.15199763 0.02664834
v -0.24726416 -0.15027546 0.02464829
v -0.21619638 -0.22776960 0.06089270
v -0.20679742 -0.23811316 0.07675176
v -0.20920566 -0.23110096 0.07518359
v -0.12999535 0.09504507 -0.17576099
v -0.10931564 0.11264878 -0.18643768
v -0.13056333 0.06782456 -0.17844371
v -0.21785537 0.14785718 0.08426735
v -0.21495601 0.10569406 0.09279623
v -0.18762900 0.11455400 0.12901000
v 0.17925000 0.16171000 -0.07544400
v 0.16296100 0.15704900 -0.08510900
v -0.18629300 0.14451400 0.12638350
v -0.18618900 0.06044700 0.13191500
v -0.18690900 0.08750050 0.13046250
v -0.19928400 0.05677550 0.10795300
v -0.03680500 -0.32159300 0.09186400
v 0.10560800 -0.14197700 0.03619400
v 0.04708866 0.19533637 -0.16491512
v 0.04779765 0.19005449 -0.16571033
v 0.04293556 0.19402317 -0.16638119
v 0.04265211 -0.26639552 0.03603514
v 0.07067905 -0.25930429 0.00582945
v 0.04952513 -0.22749516 0.05077563
v -0.20961550 -0.25839750 -0.13603000
v 0.06195300 0.29770000 -0.13576600
v 0.09324313 0.28862766 -0.09836192
v 0.08179600 0.26274850 -0.13566000
v 0.12223618 -0.18972123 -0.01438191
v 0.14770433 -0.18741233 -0.04648933
v 0.14433533 -0.15246033 -0.02085467
v -0.23900900 -0.04565350 0.00621000
v -0.24468442 -0.00025639 0.01285487
v -0.25209914 -0.00513624 -0.01113910
v 0.01733400 0.08447500 0.12702800
v -0.03742407 0.06316568 0.13591984
v 0.00810400 0.04906100 0.12718900
v -0.21155708 -0.08413559 -0.13063481
v -0.25856100 -0.06905500 -0.13603000
v 0.15218650 0.08641400 -0.05000650
v -0.00884967 -0.20822300 0.11991667
v 0.03813200 0.40306100 -0.07598400
v 0.02873200 0.39834650 -0.05312250
v 0.05737400 -0.06054700 0.07607900
v 0.06281525 -0.09618730 0.08340021
v 0.07815900 -0.06603950 0.05146550
v 0.00809500 -0.04907100 0.12718300
v 0.00321100 -0.00000000 0.12732500
v 0.16279450 -0.04535400 -0.07507700
v 0.20974898 -0.00935806 -0.07013106
v 0.21394000 -0.07343500 -0.07607600
v 0.10385550 -0.03071300 0.10376550
v 0.09559800 -0.00000000 0.12730000
v 0.07950900 -0.02634300 0.12655700
v -0.12610343 -0.04668089 -0.18263110
v -0.11753833 -0.08710559 -0.18443443
v -0.14128748 -0.05206479 -0.17375726
v -0.21721067 -0.00458874 0.08857976
v -0.22223350 -0.05034550 0.05840650
v -0.21237900 -0.05310400 0.08399100
v -0.23807823 0.09655836 0.04555616
v -0.22223350 0.05034550 0.05840650
v -0.23538089 0.09585792 0.05170925
v 0.04056000 -0.33890400 -0.00968600
v 0.06218100 -0.33138500 -0.03339600
v -0.25012650 0.04242650 -0.04797800
v -0.25250440 0.09857007 -0.01554948
v -0.24880667 0.08163000 -0.07564200
v -0.14392500 0.31116050 0.10779900
v -0.16187472 0.31942524 0.07858271
v -0.16819200 0.29841000 0.10555600
v 0.01986900 0.20971700 0.09174700
v -0.00884967 0.20822300 0.11991667
v -0.11965800 -0.32391100 0.11004200
v -0.09497100 -0.33608400 0.11018950
v -0.25432300 0.04113300 -0.07555400
v -0.25432300 0.00000000 -0.07555400
v 0.08002567 -0.30320100 -0.03583400
v 0.08280400 -0.34023800 -0.07577100
v 0.12393100 -0.07511500 -0.13579600
v 0.12134200 -0.03755750 -0.13591150
v 0.04107000 -0.32767600 -0.13584850
v -0.07654900 -0.36787800 -0.13602900
v -0.10742100 -0.35378000 -0.13603000
v -0.22582914 0.00313246 0.06962092
v -0.21237900 0.05310400 0.08399100
v 0.14977100 -0.15308200 -0.09889000
v 0.16296100 -0.15704900 -0.08510900
v 0.12030950 -0.18834350 -0.13544400
v -0.00271600 -0.38240900 0.01321400
v 0.00830800 -0.38802050 -0.00852350
v 0.00811200 -0.36441700 0.01361900
v 0.10163900 -0.22779700 -0.13555400
v 0.15325000 -0.21916700 -0.07555600
v 0.13662250 -0.25000600 -0.07560450
v -0.00704400 0.11041000 0.12982567
v -0.04065100 0.10093100 0.13278333
v -0.25432300 -0.04113300 -0.07555400
v -0.18949250 0.03022350 0.13225400
v -0.20592795 -0.02314356 0.11222420
v -0.19279600 -0.00000000 0.13259300
v 0.21399300 0.04974700 -0.02165900
v -0.25012650 -0.04242650 -0.04797800
v -0.24593000 -0.04372000 -0.02040200
v -0.23159229 -0.23369071 -0.03636516
v -0.23459292 -0.22605898 -0.02451033
v -0.23681049 -0.21662809 -0.03361980
v -0.22052183 -0.24958548 0.01523278
v -0.19523700 -0.28520600 0.02642400
v -0.22034008 -0.24958835 0.01581973
v -0.04171982 -0.38241033 -0.01140319
v -0.04603978 -0.38141156 -0.00658460
v -0.04899072 -0.38228730 -0.01570837
v 0.17335600 0.12619300 -0.07509200
v -0.07004134 -0.28708141 -0.15219226
v -0.06553311 -0.28079102 -0.15732739
v -0.06114258 -0.28546061 -0.15553547
v -0.03680500 0.32159300 0.09186400
v -0.05570800 0.31630133 0.11237167
v -0.22738333 0.20158600 -0.07604733
v -0.23482400 0.18177150 -0.13603000
v -0.23777400 0.16262400 -0.07581800
v 0.08002567 0.30320100 -0.03583400
v 0.08016157 0.25858901 -0.00447298
v 0.09787033 0.27501700 -0.03827200
v 0.10163900 0.22779700 -0.13555400
v -0.11679689 -0.22505947 -0.16134350
v -0.11702778 -0.23016857 -0.15968384
v -0.11878504 -0.22553971 -0.16050945
v -0.18175850 -0.20417800 0.12003800
v -0.17856000 -0.23388200 0.11631900
v 0.16625000 -0.19043850 -0.07550000
v 0.14794398 -0.17919460 -0.09954894
v 0.07102743 0.24970808 0.01241245
v 0.09108991 0.24145140 -0.00631700
v 0.17925000 -0.16171000 -0.07544400
v 0.06046800 -0.37164950 -0.07587750
v 0.12134200 0.03755750 -0.13591150
v 0.12393100 0.07511500 -0.13579600
v -0.14106853 0.00631979 0.13913312
v -0.06016156 -0.09445063 -0.20832505
v -0.07432159 -0.04949477 -0.20905807
v -0.03202941 -0.08278690 -0.20458933
v -0.04319605 -0.05176572 -0.20526741
v -0.24822935 -0.09852571 0.01879568
v -0.23208800 -0.04758700 0.03282200
v -0.23572827 0.10061412 0.05095959
v -0.10556820 -0.34874439 0.07429957
v -0.00160863 -0.25259077 -0.16423056
v -0.04594576 -0.21482841 -0.18426111
v -0.00842363 -0.22686552 -0.17297842
v -0.23900900 0.04565350 0.00621000
v 0.05015600 0.36722300 -0.05469000
v 0.06046800 0.37164950 -0.07587750
v -0.04317900 0.24884227 -0.17327816
v -0.02008256 0.23895452 -0.17205959
v -0.03730696 0.21793965 -0.18284918
v -0.02655600 -0.25239000 0.11644100
v -0.24593000 0.04372000 -0.02040200
v -0.04567700 0.38197600 -0.13602800
v -0.13834352 -0.00536606 0.13899148
v -0.24522900 0.14476300 -0.13603000
v -0.09949150 0.36567248 -0.03877731
v -0.08181200 0.35179800 -0.07578800
v -0.12340867 0.32770200 -0.07602733
v 0.12497167 -0.14721867 0.00766967
v -0.05332447 -0.15529811 -0.20195655
v -0.05341410 -0.18602737 -0.19375751
v -0.05794055 -0.15496573 -0.20030201
v -0.04567700 -0.38197600 -0.13602800
v 0.00269100 -0.37686300 -0.13597900
v -0.01480500 -0.39607400 -0.13602700
v -0.18690900 -0.08750050 0.13046250
v -0.18762900 -0.11455400 0.12901000
v -0.14887867 -0.07078200 0.13319033
v 0.00311769 0.10695568 -0.19353540
v -0.00669284 0.14752997 -0.19277186
v 0.01477037 0.10347935 -0.18974618
v 0.01330985 0.15795604 -0.18454577
v 0.21399300 -0.04974700 -0.02165900
v 0.05015600 -0.36722300 -0.05469000
v 0.25954300 -0.02851100 -0.07598700
v 0.23212100 -0.05265950 -0.04988400
v 0.25024900 -0.05557200 -0.07810900
v -0.03891327 -0.38441015 -0.01583774
v -0.19928400 -0.05677550 0.10795300
v -0.18949250 -0.03022350 0.13225400
v -0.11156833 -0.08111700 0.13446567
v -0.23777400 -0.16262400 -0.07581800
v -0.23482400 -0.18177150 -0.13603000
v -0.22738333 -0.20158600 -0.07604733
v 0.04306400 0.12450500 0.11010200
v 0.07433600 0.13324100 0.07314800
v 0.03146650 0.16711100 0.10092450
v -0.05197051 -0.15525427 -0.20190856
v -0.05552815 -0.10704889 -0.20816549
v -0.10925154 -0.10939861 -0.18727303
v -0.10723511 -0.10189350 -0.18919367
v -0.17643774 -0.11493170 -0.14912647
v -0.20487590 -0.11781854 -0.12897398
v -0.04155521 0.04937377 0.13662842
v -0.04218129 0.00553780 0.13728405
v -0.01955000 0.38081800 -0.07581200
v -0.24880667 -0.08163000 -0.07564200
v 0.07897349 0.12399926 -0.16548659
v 0.07791921 0.10502726 -0.16514396
v 0.07140887 0.12710982 -0.16803003
v -0.02035524 -0.00570867 -0.20310101
v -0.01621586 0.00132230 -0.20156082
v -0.01853196 -0.00829305 -0.20244327
v 0.02018700 -0.35765200 -0.13593100
v -0.20248000 0.28160200 -0.02006100
v -0.04113200 -0.28434566 0.11440633
v -0.05570800 -0.31630133 0.11237167
v 0.11571500 -0.24683300 -0.04071000
v 0.11999500 -0.28084500 -0.07565300
v -0.05068100 0.36630800 -0.07580000
v -0.17598153 -0.00362793 -0.15336986
v -0.17607799 -0.01039497 -0.15317117
v -0.18161875 -0.01121002 -0.15094438
v 0.04306400 -0.12450500 0.11010200
v 0.07433600 -0.13324100 0.07314800
v 0.05674114 0.13826887 -0.17172967
v 0.06783095 0.12971063 -0.16911699
v 0.04606934 0.11591702 -0.17772401
v 0.00827150 -0.25232250 0.08256900
v 0.13170967 -0.21712267 -0.04359967
v -0.16568167 -0.31660333 -0.13603000
v -0.13720250 -0.27906670 -0.13420867
v -0.15588921 -0.26649457 -0.13043347
v 0.04107000 0.32767600 -0.13584850
v 0.08280400 0.34023800 -0.07577100
v -0.24603837 -0.18925429 -0.05115092
v -0.24936197 -0.16889706 -0.01155115
v 0.25024900 0.05557200 -0.07810900
v 0.17147500 -0.15970600 -0.06241100
v 0.16369900 -0.15770200 -0.04937900
v 0.02656300 -0.11988900 0.12686800
v 0.23212100 0.05265950 -0.04988400
v -0.00336264 -0.20486212 -0.17725587
v -0.00310488 -0.22099372 -0.17333345
v -0.18618900 -0.06044700 0.13191500
v -0.04113200 0.28434566 0.11440633
v -0.16929049 0.09902590 -0.15364917
v -0.15072206 0.07260034 -0.16679929
v -0.02317761 0.06256441 -0.20328473
v -0.02226876 0.03548782 -0.20286753
v -0.05362805 0.08156285 -0.20904959
v -0.05839852 0.05261841 -0.20965756
v -0.04357858 -0.04282676 0.13791829
v 0.06195300 -0.29770000 -0.13576600
v 0.09894400 0.07153200 0.02685200
v 0.07815900 0.06603950 0.05146550
v 0.12820200 0.03508300 0.08097400
v -0.00307920 -0.26143507 -0.16167985
v -0.05402456 -0.21425296 -0.18590316
v -0.20204950 -0.15128463 -0.12727011
v -0.18629300 -0.14451400 0.12638350
v -0.14798712 -0.13040725 0.13686205
v -0.25232347 0.10144156 -0.01583677
v -0.25223960 0.10157742 -0.01408012
v 0.16369900 0.15770200 -0.04937900
v 0.09078828 -0.20772731 0.01580567
v 0.08503463 -0.19776693 0.02749773
v 0.05591855 -0.22298745 0.04621623
v -0.21364530 0.00173361 -0.12876712
v -0.26275100 -0.00000000 -0.13603000
v -0.26065600 0.03452750 -0.13603000
v -0.18792397 0.10402689 -0.13684283
v -0.20031912 0.13419031 -0.13195014
v -0.17364299 0.11555820 -0.14729038
v -0.19039055 0.14365300 -0.13936386
v -0.08056468 0.03113663 0.13994058
v -0.09028132 0.04127192 0.14068072
v -0.04296879 0.05839351 0.13669246
v -0.25441690 -0.09460079 -0.02542869
v -0.25399708 -0.09406089 -0.02304435
v 0.04592222 0.20378201 -0.16325655
v 0.04470903 0.24488520 -0.15496680
v -0.10260244 -0.36008447 0.03763850
v -0.12380988 -0.35516831 0.03216294
v -0.11144479 -0.36110291 0.02148762
v 0.10139950 -0.31054150 -0.07571200
v -0.16568167 0.31660333 -0.13603000
v -0.13655133 0.33519167 -0.13603000
v 0.08657452 -0.22815047 0.00724140
v -0.14392500 -0.31116050 0.10779900
v -0.16819200 -0.29841000 0.10555600
v -0.15717592 -0.32476087 0.05952121
v -0.04501877 0.38444725 -0.02901795
v -0.20714037 -0.24333932 0.07086671
v -0.02783868 0.33798647 -0.13972326
v -0.07654900 0.36787800 -0.13602900
v -0.00271600 0.38240900 0.01321400
v -0.04617184 0.37964374 0.00472126
v -0.01856550 0.37434800 0.03849450
v -0.21228562 0.08883835 0.09835553
v 0.00830800 0.38802050 -0.00852350
v -0.20540983 -0.23203313 0.08222736
v -0.24630351 -0.14762591 0.02759778
v -0.23754693 -0.09668985 0.04872107
v 0.10560800 0.14197700 0.03619400
v 0.09753635 -0.20383984 0.00943636
v -0.05234950 0.35727200 0.08705600
v -0.07028400 0.34825700 0.11033700
v 0.03813200 -0.40306100 -0.07598400
v -0.22441900 -0.21878000 -0.13603000
v -0.13655133 -0.33519167 -0.13603000
v -0.10389775 -0.29633683 -0.13752556
v 0.14567990 0.04040095 -0.10135358
v 0.15815700 0.00000000 -0.07539200
v -0.21702506 -0.11228584 0.08861186
v -0.16538492 -0.10108427 -0.15382545
v -0.20456902 -0.06980971 -0.13334047
v -0.14887867 0.07078200 0.13319033
v -0.09531706 0.28338370 0.12422332
v -0.04395330 -0.10775558 -0.20717242
v -0.04065100 -0.10093100 0.13278333
v -0.07425800 -0.09145200 0.13574100
v 0.00929100 -0.39193950 -0.07589800
v -0.01955000 -0.38081800 -0.07581200
v -0.07349950 0.37683789 -0.03661096
v 0.01275630 0.09627947 -0.19118796
v 0.01073019 0.08176120 -0.19189604
v -0.03731355 0.08632453 -0.20796713
v -0.21699267 -0.24054800 -0.07627667
v 0.05425140 0.19359264 -0.16268202
v -0.11965800 0.32391100 0.11004200
v -0.13368423 0.01114420 0.13945335
v 0.02882282 -0.12690727 -0.18313925
v -0.01077408 -0.11713343 -0.19800369
v 0.02511587 -0.11848583 -0.18472226
v -0.01062964 -0.07936380 -0.19891368
v 0.04975663 -0.22547718 0.05166683
v 0.06300413 -0.18663586 0.05746034
v 0.17334100 -0.12620900 -0.07510300
v -0.11325358 -0.35125516 0.05847812
v -0.25189500 0.10690900 -0.13603000
v -0.24329033 0.12212700 -0.07573000
v 0.13149550 0.11190950 -0.13556450
v 0.00269100 0.37686300 -0.13597900
v -0.01480500 0.39607400 -0.13602700
v 0.02187559 0.23097959 -0.16478879
v -0.21699267 0.24054800 -0.07627667
v -0.19481200 -0.29801500 -0.13603000
v -0.05068100 -0.36630800 -0.07580000
v 0.02018700 0.35765200 -0.13593100
v -0.14998691 0.26024630 -0.13437940
v -0.20961550 0.25839750 -0.13603000
v -0.19481200 0.29801500 -0.13603000
v 0.04335327 -0.31182057 0.00430813
v -0.04791837 -0.15524406 -0.20083655
v -0.00682674 -0.15289186 -0.19107542
v -0.00562283 -0.16841430 -0.18773997
v -0.18495700 0.17447400 0.12375700
v -0.12804058 0.18996081 0.13620865
v -0.18175850 0.20417800 0.12003800
v 0.14116600 0.15019500 -0.11608800
v 0.13906000 0.14870400 -0.13533300
v 0.12034950 0.18825050 -0.13544350
v 0.14977100 0.15308200 -0.09889000
v -0.20248000 -0.28160200 -0.02006100
v -0.20454100 -0.28055600 -0.04828350
v -0.12574110 0.28652941 -0.13643968
v -0.11112863 0.30160753 -0.13365172
v -0.10659710 0.28047169 -0.14591684
v -0.10473505 -0.23918567 -0.16006813
v -0.07073084 -0.28076335 -0.15536929
v -0.16500534 -0.30360600 -0.07626667
v -0.20660200 -0.27951000 -0.07650600
v -0.09497100 0.33608400 0.11018950
v -0.11324601 -0.28097403 0.12573986
v -0.02736499 0.34042269 0.07002918
v -0.03441500 0.36628700 0.06377500
v 0.00929100 0.39193950 -0.07589800
v -0.24585097 -0.15100141 0.02889843
v -0.23231368 -0.13305853 0.05685360
v 0.04380200 -0.03770700 0.12687000
v -0.19523700 0.28520600 0.02642400
v -0.17186036 0.31870621 0.00504620
v -0.05320508 -0.21244779 -0.18657100
v -0.05462940 -0.21280170 -0.18639308
v 0.10377750 0.03081650 0.10375700
v -0.25860076 -0.00025438 -0.04666272
v -0.11182950 -0.28036319 -0.14378072
v -0.09505863 0.17566484 0.13491065
v -0.10813820 0.20192131 0.13465379
v -0.12379299 0.16083146 0.13717390
v -0.25186204 0.10143511 -0.01184552
v -0.25181597 0.10474805 -0.01187202
v -0.21163279 0.20002013 0.08667619
v -0.21671680 0.15779939 0.08578176
v -0.05263278 -0.14913348 -0.20293895
v -0.06395106 -0.14562886 -0.19913931
v -0.10370179 -0.35155969 0.06780770
v -0.25077326 -0.11983490 -0.00208406
v -0.22441900 0.21878000 -0.13603000
v 0.00638561 0.23349769 -0.16877191
v -0.00032647 0.22418538 -0.17301247
v 0.11875300 0.00000000 -0.13602700
v 0.10139950 0.31054150 -0.07571200
v 0.01894000 -0.34642400 0.01402500
v -0.16243551 -0.18873887 -0.14251771
v -0.18331555 -0.16886260 -0.13356969
v -0.14913219 -0.16469888 -0.15663721
v -0.12039439 0.22651106 -0.15973624
v -0.15725461 0.24759516 -0.13386998
v -0.03771327 0.11000542 -0.20643572
v -0.02719204 0.13376094 -0.20201914
v 0.03481300 -0.12219700 0.11848500
v 0.09070775 0.06247738 -0.16015644
v 0.08971904 0.05703696 -0.16029266
v -0.01987168 0.38952006 -0.02037331
v -0.08402624 0.27716632 0.12318154
v -0.09085134 0.35777233 0.06287731
v -0.09685966 0.18696824 -0.18022450
v -0.12699319 0.17261970 -0.16759666
v -0.11883049 0.22494269 -0.16098109
v -0.11967511 0.22516551 -0.16049764
v -0.01619976 -0.32834820 -0.13960404
v -0.07933524 0.17801758 -0.19092551
v -0.09228166 0.13241288 -0.19331799
v -0.10853035 0.13608060 -0.18430936
v 0.01933200 0.39363200 -0.03026100
v 0.10475543 0.22611958 -0.01370480
v 0.10905346 0.20540803 -0.00576935
v 0.13170967 0.21712267 -0.04359967
v 0.00051341 0.03745594 -0.19640531
v 0.01546584 0.02256896 -0.19098140
v 0.02431007 -0.18363892 -0.17427606
v -0.13064021 -0.10936429 -0.17407004
v -0.05229752 -0.15409998 -0.20225607
v -0.05365943 -0.15344029 -0.20219989
v -0.11953361 0.22573319 -0.16041573
v 0.11999500 0.28084500 -0.07565300
v 0.05194451 0.29737387 0.00448608
v 0.04834679 0.30190779 0.00583695
v 0.04537346 0.29661201 0.01291845
v -0.08377729 -0.21854220 -0.17460259
v -0.09519074 0.00298573 -0.20118143
v -0.09247769 0.01026117 -0.20284850
v -0.08310125 -0.00727138 -0.20651771
v 0.09787033 -0.27501700 -0.03827200
v 0.07930740 -0.26370646 -0.00811072
v -0.07028400 -0.34825700 0.11033700
v -0.10212166 0.35346676 0.05853974
v -0.10742100 0.35378000 -0.13603000
v -0.13126938 -0.31019026 -0.12276194
v -0.20660200 0.27951000 -0.07650600
v -0.23990754 0.20728201 -0.02094885
v -0.24289557 0.18950683 -0.01995285
v -0.12988918 -0.13446396 0.13744919
v -0.11837640 0.22733276 -0.16019890
v -0.11908092 0.22577587 -0.16054369
v 0.17319300 -0.04286600 0.03147400
v 0.15069750 -0.03897450 0.05622400
v -0.16835239 0.31880410 0.03458370
v -0.18433500 0.29055800 0.06710400
v -0.14509675 0.33448151 0.06012757
v 0.00780700 0.32067600 0.04370800
v 0.13553193 0.20338483 -0.10021772
v 0.15325000 0.21916700 -0.07555600
v -0.17519132 0.31551445 0.02144216
v -0.17699067 -0.01779556 -0.15258370
v -0.17228475 -0.05585987 -0.15390805
v 0.03981466 -0.20072475 -0.16561938
v 0.04525880 -0.24561436 -0.15168495
v 0.00894456 -0.22572157 -0.16862484
v -0.20454100 0.28055600 -0.04828350
v -0.24522900 -0.14476300 -0.13603000
v 0.08179600 -0.26274850 -0.13566000
v 0.10461987 -0.26501657 -0.09618869
v -0.09288922 -0.37209716 -0.04141005
v -0.08181200 -0.35179800 -0.07578800
v -0.25417835 -0.09724371 -0.02388983
v -0.25395467 -0.10018299 -0.02505075
v -0.25364741 -0.09734070 -0.02067360
v -0.04823094 -0.01658080 0.13836601
v -0.00555309 0.27204659 -0.16062144
v 0.01129056 0.29494277 -0.14923838
v 0.00422793 0.26557654 -0.15960206
v 0.02565759 0.27678835 -0.15018790
v 0.04495565 0.23685882 0.05111564
v 0.06663478 0.19660424 0.04984763
v -0.01533545 0.18050089 -0.18734070
v 0.08237577 -0.19866356 -0.15395986
v 0.06926032 -0.21901619 -0.15287767
v 0.04286193 -0.19229280 -0.16674886
v -0.09808184 -0.15469690 -0.18689353
v -0.09937115 -0.16773132 -0.18303329
v -0.14795982 0.33460571 -0.03530958
v -0.16500534 0.30360600 -0.07626667
v -0.14903655 0.33381268 -0.03429002
v -0.13348024 0.05526257 -0.17766162
v -0.13743607 0.06045464 -0.17508821
v 0.12090609 0.19350588 -0.01427217
v 0.12427073 0.18291593 -0.01166115
v 0.14116600 -0.15019500 -0.11608800
v -0.23770768 0.20192662 0.00151198
v -0.21961275 -0.24884284 0.01894691
v -0.22055301 -0.24920104 0.01565278
v -0.24579470 -0.15443725 0.02792325
v 0.03273450 -0.05480900 0.10163100
v -0.09866793 -0.06479884 -0.19693115
v -0.18029385 -0.31199412 -0.00618033
v -0.17438061 -0.31569138 -0.04964806
v -0.15071244 -0.33645439 -0.02224747
v 0.25954300 0.02851100 -0.07598700
v 0.22072582 -0.00048201 -0.04658765
v 0.26275100 0.00000000 -0.07564500
v 0.03760919 0.18412958 -0.17023555
v -0.09656511 0.36833154 -0.01148503
v -0.06287925 0.37534670 -0.00099603
v 0.11571500 0.24683300 -0.04071000
v -0.06420490 0.37081906 0.03084389
v -0.08686266 0.35957515 0.05893673
v 0.07750907 0.18495918 0.04399049
v 0.07094483 0.18523131 0.05085370
v -0.09929504 -0.14536557 0.13923412
v -0.09490223 -0.13557221 0.13950935
v -0.14852357 0.13121349 -0.16136710
v -0.25190349 0.10490738 -0.01621787
v -0.07425800 0.09145200 0.13574100
v -0.11156833 0.08111700 0.13446567
v -0.01810742 0.26758788 -0.16406201
v -0.04074708 0.25874634 -0.16888904
v -0.06305251 0.26570023 -0.16204884
v -0.19892202 -0.16592669 -0.12403513
v 0.01894000 0.34642400 0.01402500
v 0.04056000 0.33890400 -0.00968600
v -0.17856000 0.23388200 0.11631900
v 0.00658288 0.21540187 -0.17310626
v -0.24865984 -0.17057122 -0.00834431
v -0.24944605 -0.16867289 -0.01033472
v -0.04221410 0.19800943 -0.18872933
v -0.03097326 0.20056401 -0.18748881
v -0.04446123 0.18539634 -0.19187443
v -0.08042009 0.19719342 -0.18576992
v 0.14785870 0.11823329 -0.10384270
v -0.22915329 0.24508604 -0.03593709
v -0.13887027 -0.34716202 -0.01654604
v -0.13068310 -0.35070491 -0.02125332
v -0.13347311 -0.34901339 0.00128429
v 0.13898000 -0.14889000 -0.13533400
v -0.15934001 0.13250958 0.13539305
v -0.13333028 0.13520603 0.13763510
v 0.15069750 0.03897450 0.05622400
v -0.14958881 0.33265353 0.05007718
v 0.02656300 0.11988900 0.12686800
v -0.09818261 -0.04223822 -0.19677363
v 0.07506868 -0.15029341 -0.16442581
v 0.08800455 -0.12512189 -0.16136842
v 0.09322995 -0.15321260 -0.15636904
v 0.10577201 -0.13016655 -0.15327100
v -0.04805128 0.14073615 -0.20216499
v -0.17337600 -0.26614600 0.11093750
v -0.07780432 -0.21285233 0.13292957
v -0.07967884 -0.21420664 0.13276781
v -0.07687676 -0.21451267 0.13252509
v -0.06090354 -0.30189773 -0.14882927
v 0.19359300 0.04630650 0.00490750
v 0.13691000 0.08215200 -0.02527300
v -0.24918958 -0.16963631 -0.01076327
v 0.13662250 0.25000600 -0.07560450
v 0.13759221 -0.00235451 0.07236968
v 0.14433533 0.15246033 -0.02085467
v 0.03068794 -0.19431022 -0.16987747
v 0.13145550 -0.11200250 -0.13556500
v -0.22030781 -0.11279352 0.08248244
v -0.24953227 -0.16834107 -0.01083222
v -0.18185776 -0.31364961 -0.02972655
v -0.18433500 -0.29055800 0.06710400
v -0.11354230 -0.10664865 -0.18525422
v -0.22399674 0.23265924 0.03055892
v -0.23424884 0.20173360 0.03873202
v -0.14248381 -0.14366320 0.13655005
v -0.18495700 -0.17447400 0.12375700
v 0.00100462 -0.06556710 -0.19543167
v -0.01511983 -0.06331478 -0.20102863
v -0.00653913 -0.05701724 -0.19823861
v 0.01504664 0.04308073 -0.19108373
v 0.04688912 0.06015112 -0.17877748
v 0.03750220 0.04126711 -0.18296276
v -0.03435663 0.19140362 -0.19055729
v -0.02079753 -0.31091179 -0.14938754
v -0.00195266 -0.26415080 -0.16069211
v -0.11986782 0.22562434 -0.16024556
v -0.01856550 -0.37434800 0.03849450
v -0.23333416 -0.21185412 0.03488067
v -0.10863040 0.26759945 0.12592395
v -0.17337600 0.26614600 0.11093750
v -0.13745166 0.24824909 0.12813519
v -0.05234950 -0.35727200 0.08705600
v -0.02660853 -0.05091683 0.13591250
v -0.13409054 0.20681830 0.13322261
v 0.05273919 0.30165436 0.00036319
v -0.18265107 0.22092075 -0.12051711
v -0.17368361 0.18597520 -0.13920201
v -0.05154100 0.12664544 -0.20140051
v -0.12391650 0.00596762 0.13963582
v -0.11057082 0.02461024 0.13975781
v -0.09846040 0.08240053 -0.19422582
v -0.07314911 0.10686469 -0.19910999
v 0.07935300 0.02655000 0.12654000
v 0.04372900 0.03780500 0.12686400
v -0.11761940 -0.22389784 -0.16132709
v -0.08998447 0.26518490 0.12615862
v -0.19463653 0.04806389 -0.14102328
v -0.20464100 0.05259787 -0.13486984
v -0.19657280 0.06768765 -0.13888487
v -0.17693325 -0.01338199 -0.15264206
v 0.05737400 0.06054700 0.07607900
v -0.24960969 -0.16754842 -0.01143336
v 0.15217100 -0.08643000 -0.05001750
v -0.05723559 0.37486579 0.01446582
v -0.21278888 -0.18914213 0.08630274
v 0.00900636 0.18833024 -0.17830661
v -0.24970055 0.15383879 -0.03044430
v -0.12833752 -0.22174395 0.13317143
v -0.12688996 -0.20109630 0.13445253
v -0.04395184 0.33435743 -0.13650175
v -0.08676392 0.32114387 -0.13040421
v 0.08745434 -0.10151477 0.05593937
v -0.11599902 -0.21826631 -0.16337998
v -0.07850356 0.36400455 0.04487387
v -0.09276248 0.35980388 0.04815685
v -0.12095872 -0.22368807 -0.16003295
v -0.16409441 -0.25071430 -0.13129303
v -0.02235541 -0.00848922 -0.20320857
v 0.09985736 -0.11086055 -0.15734755
v -0.21317521 -0.05635010 -0.13041803
v -0.22067420 -0.02359021 -0.12202783
v -0.04166070 0.06219611 0.13652673
v 0.01491032 0.31041734 -0.14459953
v 0.00155790 0.30382629 -0.14831443
v -0.00391723 0.32135601 -0.14497107
v -0.25674638 -0.13605705 -0.03671928
v -0.24329033 -0.12212700 -0.07573000
v -0.22100791 -0.24853729 0.01369535
v -0.13627762 0.02198584 -0.17704664
v -0.11534641 0.00400953 -0.18980419
v -0.13701525 -0.00247714 -0.17774683
v -0.22142871 0.16627674 0.07350220
v -0.22202804 0.20280614 0.06341367
v -0.02569579 0.19539729 -0.18719344
v 0.08357186 -0.25260405 -0.00574322
v -0.19880688 0.25641645 0.08164791
v -0.20486908 0.23453583 0.07805894
v -0.22080810 0.24441778 0.02823632
v -0.21384234 0.24603302 0.04425497
v -0.08519642 0.00943977 -0.20542340
v 0.01617190 0.09865732 -0.18985010
v -0.21621952 -0.18830770 0.07993314
v -0.21360750 -0.17966644 0.08667906
v -0.21823417 -0.18076058 0.07825258
v -0.03769661 0.05798584 0.13594766
v -0.25856100 0.06905500 -0.13603000
v 0.04451607 0.25048875 0.04417325
v 0.00827150 0.25232250 0.08256900
v 0.09165822 -0.05224701 -0.16016346
v 0.08090862 -0.00464828 -0.16404636
v -0.22116498 -0.19450395 0.06568508
v -0.14563892 0.05012783 -0.17100771
v 0.19883244 0.00311685 -0.00423572
v 0.20900532 0.00211568 -0.01466330
v 0.08704373 0.25494592 -0.01083573
v 0.07770160 0.19386285 -0.15480272
v 0.08409884 0.18339112 -0.15467157
v -0.15944498 -0.11718181 -0.15552924
v -0.09415478 -0.37086557 -0.00549009
v -0.10472012 0.23162968 0.13119508
v -0.07881219 0.22456496 0.13206740
v -0.03792372 -0.33583581 -0.13736556
v -0.04451618 -0.19046792 0.12950259
v -0.03683294 -0.15984326 0.13153796
v -0.08358587 0.26926797 -0.15639190
v -0.07431957 0.24280472 -0.16961321
v -0.07175439 -0.03548852 -0.21064199
v 0.05238737 -0.09476189 0.09540723
v -0.02655600 0.25239000 0.11644100
v 0.04928058 -0.22413058 0.05286162
v 0.05715295 -0.17712790 0.06854236
v 0.03154843 -0.12556312 -0.18219166
v 0.03610339 -0.07444786 -0.18300270
v -0.03441500 -0.36628700 0.06377500
v 0.03696718 -0.04098655 -0.18229896
v 0.03336816 -0.03156247 -0.18365843
v -0.08721370 -0.36796397 0.02105156
v -0.07597221 -0.21170186 0.13270614
v 0.21213298 0.00555194 -0.06943643
v 0.00885667 0.16405600 0.12339233
v 0.03481300 0.12219700 0.11848500
v 0.06986004 -0.16699541 0.06066590
v -0.01818521 -0.02052781 -0.20209735
v 0.03670377 0.00873662 -0.18332993
v 0.06874002 0.00415027 -0.16852796
v 0.03860317 -0.02258673 -0.18186549
v -0.15295751 0.13995436 -0.15653924
v -0.17266961 0.18311251 -0.14072307
v -0.26065600 -0.03452750 -0.13603000
v -0.24168831 0.15859820 0.03790261
v -0.23738357 0.18375378 0.03956592
v -0.24394281 0.16621159 0.01599095
v 0.07047546 0.13418341 -0.16774623
v -0.24898918 0.15654073 -0.00445463
v -0.16281542 -0.00855791 -0.16140052
v -0.09363704 0.31428356 -0.13129005
v -0.16209482 -0.13547824 -0.15239475
v -0.07504274 0.27997087 -0.15442780
v -0.08565567 0.27922340 -0.15175023
v -0.08289247 0.31343650 -0.13483133
v 0.07383815 0.14448924 -0.16459776
v 0.07634732 0.13123213 -0.16634597
v -0.12340867 -0.32770200 -0.07602733
v 0.05041854 0.28665606 0.01333155
v -0.23370864 -0.21944843 0.00095419
v 0.06218100 0.33138500 -0.03339600
v 0.08096165 -0.17444706 -0.15841163
v -0.09755758 0.11995219 -0.19220596
v -0.16700721 0.03279882 -0.15875233
v -0.03220533 0.14604023 -0.20105029
v -0.12093499 -0.22046234 -0.16029913
v -0.11224489 -0.15927806 -0.17741838
v -0.05347402 0.13770112 0.13580234
v -0.15810139 -0.32497906 0.05215195
v -0.20845576 -0.08687359 0.10493343
v -0.05769991 0.15954985 0.13519519
v -0.07681836 0.19948583 0.13480787
v -0.24954591 -0.16802484 -0.01044029
v -0.07974202 -0.35847409 0.06434674
v -0.07245777 -0.36639896 0.04738076
v 0.08241872 0.00577107 -0.16401248
v 0.03612922 -0.19091724 -0.16903888
v 0.04661445 -0.18251757 -0.16726263
v 0.02150121 0.09206258 -0.18763881
v -0.12309112 0.05677733 -0.18336949
v -0.09629410 0.01500583 -0.20058073
v -0.09080169 0.01905745 -0.20342118
v -0.14407906 0.14450471 -0.16198399
v -0.12848486 0.13130214 -0.17329018
v -0.08870119 -0.03681327 0.14009819
v -0.09860112 -0.03995311 0.14063600
v -0.15993263 0.32848244 0.01683263
v -0.13707716 0.34354556 0.04426114
v -0.13315684 0.35186437 0.00571053
v -0.24700361 0.10021219 0.00730180
v -0.15278876 -0.32081469 -0.09185150
v -0.07923101 0.08755522 -0.20411143
v -0.08017624 0.06662610 -0.20530261
v 0.06986857 0.01612593 -0.16800717
v 0.19359300 -0.04630650 0.00490750
v -0.13776639 0.27642464 -0.13573398
v -0.03723857 0.15603945 0.13220281
v 0.00811200 0.36441700 0.01361900
v -0.00872612 0.26838181 -0.16241611
v 0.13691000 -0.08215200 -0.02527300
v -0.04155197 0.18058734 0.13008207
v -0.22359125 0.15101658 0.07332457
v 0.03993562 0.09970570 0.10874824
v 0.03273900 0.05480400 0.10163400
v -0.00109095 -0.26105762 -0.16177047
v -0.11643046 -0.11793344 -0.18147292
v 0.04427907 -0.09406218 0.10480209
v -0.20675923 0.04104043 -0.13528513
v -0.21864848 -0.11553385 0.08596792
v -0.21949534 -0.11940812 0.08398034
v -0.00484699 -0.01389851 -0.19724116
v -0.01564844 -0.00469127 -0.20124391
v 0.14812550 -0.08039516 -0.09935897
v 0.12820200 -0.03508300 0.08097400
v 0.17319300 0.04286600 0.03147400
v 0.12497167 0.14721867 0.00766967
v -0.20579437 0.24480957 0.07130907
v -0.09163326 0.35839543 0.05819642
v 0.11055539 0.08889937 -0.15551622
v 0.19670099 -0.00379155 0.00009804
v -0.13930962 -0.17887711 0.13494075
v -0.12685522 -0.16948133 0.13721872
v -0.17469125 0.18341135 -0.13906272
v -0.17299143 0.18390556 -0.14039156
v -0.08475303 -0.13719751 0.13907352
v -0.09365493 -0.26834016 0.12668638
v 0.09412127 0.22299070 0.00235767
v 0.05791084 0.23459474 0.03836660
v 0.07536518 0.19461956 0.04150869
v 0.09479319 -0.19936218 0.01572952
v -0.23695701 -0.16141935 0.04389110
v -0.22304234 0.24131657 0.02130134
v 0.11677309 -0.18126536 -0.00212736
v 0.11792700 -0.07684200 0.00078950
v -0.14950834 0.31326979 -0.10636268
v -0.01016391 0.27553092 -0.16042939
v -0.14882841 -0.33208774 0.05181107
v -0.13269118 -0.34925585 0.03093982
v 0.04881091 -0.22650831 0.05212787
v -0.17262350 0.18462759 -0.14049465
v 0.16743200 -0.09070800 -0.07476200
v -0.01654854 0.27674883 -0.15977070
v -0.10888816 0.36411407 0.00727028
v -0.08488681 0.36847486 0.01108959
v -0.19214661 -0.18173035 -0.12819437
v 0.05790401 0.07688814 -0.17495261
v -0.06496530 0.00525665 0.13995991
v -0.10870271 -0.03571579 0.14026261
v -0.10680298 0.12375373 -0.18676997
v 0.03234989 -0.14268927 -0.17896533
v 0.03365491 -0.12812966 -0.18123751
v -0.05720688 0.21450129 0.12964444
v -0.25188552 0.09844686 -0.01201540
v -0.21726853 -0.11870986 0.08805833
v -0.14772483 -0.32269135 -0.10440477
v -0.13729890 -0.33163228 -0.09990820
v 0.13894295 -0.19732453 -0.09787500
v -0.09738071 -0.03101835 0.14076415
v -0.09575099 -0.00569029 0.14050332
v -0.11806728 0.12803178 0.13931387
v -0.13150143 -0.00559943 -0.18032475
v -0.10012482 0.12701511 0.13853748
v -0.23833187 0.10624902 0.04593436
v -0.13482092 -0.01848066 -0.17830687
v -0.14186443 0.00168974 -0.17413800
v 0.00175901 -0.26149690 -0.16064457
v -0.08737650 -0.15238776 0.13858959
v 0.06564103 -0.09931256 -0.17017722
v 0.06614702 -0.09680293 -0.17010256
v 0.06737594 -0.10006734 -0.16945663
v -0.12549544 -0.18342049 0.13634189
v -0.11054397 -0.17451444 0.13673429
v 0.09336117 0.18801350 0.02334836
v 0.07976871 0.05937503 -0.16470781
v -0.06730946 -0.17795423 0.13468121
v -0.13705667 -0.14950975 -0.16455121
v -0.00332600 0.29492800 0.07339100
v 0.02793527 0.27486103 0.04828471
v -0.15100931 -0.24386373 0.12735620
v -0.14038237 0.29894868 -0.12271597
v -0.24556188 0.14685472 0.02683431
v 0.09894400 -0.07153200 0.02685200
v -0.07873524 -0.20600485 0.13342230
v -0.12978509 -0.26400290 0.12537413
v -0.13574979 -0.04511861 -0.17710804
v -0.20118411 0.15391190 -0.12778264
v 0.17534732 -0.06984044 -0.03692053
v -0.11309781 -0.34755137 0.07092363
v -0.15923360 0.30885374 -0.10476743
v -0.05022558 -0.15224359 -0.20190611
v -0.01143855 0.28827501 -0.15711459
v -0.04184646 -0.00136985 -0.20313029
v 0.08835628 0.05330999 -0.16115247
v 0.14890516 -0.00246830 0.06313260
v -0.07112099 -0.24758311 0.12714012
v 0.11792700 0.07684200 0.00078950
v 0.06859325 -0.09757811 -0.16906608
v -0.07804482 0.01704687 -0.20594450
v -0.17084716 -0.21093699 -0.13665429
v -0.08551413 0.20970789 -0.17935482
v -0.05952855 0.22494478 -0.17876605
v 0.03132454 -0.12785392 -0.18216699
v -0.05110932 -0.15012327 0.13390317
v -0.03514648 -0.15143806 0.13205588
v 0.08336593 0.02982283 -0.16253348
v -0.25434915 -0.09754771 -0.02728971
v 0.00683603 -0.15867295 -0.18567396
v -0.14661899 -0.33997011 -0.00825890
v -0.16106511 -0.32960740 0.02309341
v -0.04575214 0.03046783 -0.21086358
v 0.02974964 -0.26653017 -0.15103910
v 0.06820628 -0.27381112 -0.00083381
v -0.14081662 -0.34516936 -0.02060331
v -0.04254959 0.32229217 -0.14214267
v -0.20462599 0.25184737 0.06857565
v 0.11748156 0.18259898 -0.00247959
v 0.10760633 -0.26227610 -0.09480175
v -0.11994575 -0.21412946 0.13415420
v -0.10688876 0.14274649 0.13828656
v -0.17378562 -0.31755480 0.01246994
v -0.05236281 -0.34357843 -0.13146953
v 0.14774444 -0.10316749 -0.09824979
v 0.15052218 -0.12330564 -0.10043788
v -0.10136633 -0.03629166 0.14074886
v 0.06881829 -0.09415846 -0.16878046
v 0.05098065 -0.03684224 -0.17755170
v 0.06250506 -0.08669506 -0.17159414
v -0.20089504 0.26474533 0.06853470
v -0.17162257 0.18375314 -0.14135789
v 0.09976013 -0.11548594 0.04177426
v 0.04134805 -0.29070233 0.02132795
v -0.22930634 0.20763021 0.04810937
v 0.03958657 0.10051186 0.10911986
v -0.17171830 0.18877182 -0.14000469
v -0.11911561 -0.23711551 0.13110649
v -0.08983970 -0.08607787 -0.20028166
v -0.02987357 -0.15600169 0.13015590
v -0.02579937 -0.14995731 0.13031487
v 0.15942063 0.00134722 0.04388717
v 0.17151358 -0.00716763 0.03047651
v -0.08197582 -0.21005754 0.13307209
v -0.07930852 -0.21753396 0.13236413
v -0.15361734 0.33492564 -0.01008869
v -0.14754025 0.33500502 -0.03339708
v -0.14518099 0.33614904 -0.03487902
f 1 2 3
f 4 5 6
f 10 11 12
f 18 19 20
f 21 22 23
f 24 25 26
f 27 28 29
f 30 31 6
f 33 34 35
f 8 36 7
f 38 39 40
f 41 42 43
f 45 46 47
f 48 49 50
f 51 52 53
f 54 55 56
f 57 9 58
f 10 59 11
f 63 64 65
f 68 69 70
f 71 72 73
f 74 75 76
f 77 78 79
f 80 81 82
f 85 86 87
f 88 89 90
f 97 84 98
f 81 104 105
f 109 110 111
f 112 113 114
f 105 77 118
f 119 120 77
f 53 122 123
f 124 125 126
f 127 128 129
f 130 131 132
f 134 135 136
f 139 140 141
f 142 143 144
f 146 147 148
f 107 151 152
f 143 153 154
f 101 98 156
f 120 159 118
f 160 161 162
f 161 163 162
f 51 164 165
f 28 27 166
f 167 94 93
f 168 169 170
f 52 17 171
f 174 175 176
f 178 86 85
f 180 159 120
f 140 181 141
f 182 183 184
f 186 187 188
f 189 190 191
f 192 193 194
f 195 196 197
f 196 198 197
f 85 87 95
f 199 68 70
f 200 83 16
f 201 202 203
f 110 204 16
f 119 205 206
f 208 209 210
f 60 2 1
f 211 212 213
f 187 186 214
f 215 216 160
f 216 217 160
f 57 218 219
f 220 221 67
f 122 117 223
f 224 225 226
f 227 228 229
f 234 235 114
f 237 238 239
f 242 243 244
f 8 245 177
f 247 249 248
f 250 173 251
f 252 253 208
f 255 256 49
f 121 258 11
f 169 259 260
f 206 261 194
f 262 137 138
f 24 26 263
f 26 264 263
f 265 266 267
f 266 268 267
f 269 66 67
f 271 272 273
f 274 135 275
f 52 51 165
f 276 219 218
f 277 278 193
f 279 86 280
f 82 81 105
f 282 283 284
f 285 286 287
f 288 289 290
f 289 291 290
f 57 219 9
f 292 220 293
f 220 294 293
f 295 296 223
f 71 73 63
f 297 298 145
f 59 121 11
f 111 110 83
f 32 27 29
f 299 300 301
f 282 284 305
f 306 307 308
f 236 309 222
f 77 104 78
f 41 245 8
f 21 310 22
f 123 296 51
f 179 311 312
f 86 279 87
f 313 314 315
f 36 8 232
f 316 105 35
f 150 318 22
f 319 320 164
f 321 212 271
f 192 194 261
f 322 234 246
f 325 200 15
f 200 16 15
f 209 326 210
f 327 328 103
f 194 278 207
f 329 12 330
f 192 331 193
f 179 236 222
f 83 200 84
f 325 156 200
f 52 104 17
f 332 218 333
f 218 57 333
f 138 335 262
f 336 160 162
f 339 16 340
f 50 49 256
f 183 182 341
f 342 343 344
f 343 265 344
f 326 345 210
f 346 297 145
f 345 326 44
f 88 335 347
f 118 159 348
f 349 350 351
f 350 352 351
f 284 283 353
f 283 354 353
f 355 255 155
f 300 299 356
f 41 8 7
f 357 358 181
f 360 179 361
f 298 297 362
f 38 40 297
f 302 97 98
f 249 247 364
f 340 204 365
f 334 33 118
f 360 311 179
f 366 311 360
f 367 368 369
f 84 97 370
f 371 372 373
f 374 375 376
f 361 179 222
f 377 378 379
f 380 6 31
f 380 377 379
f 357 87 358
f 70 69 202
f 203 70 202
f 383 384 385
f 386 135 387
f 388 389 364
f 200 98 84
f 177 232 8
f 347 335 390
f 93 94 391
f 119 206 120
f 147 248 148
f 248 249 148
f 392 393 137
f 62 61 394
f 319 395 396
f 397 67 66
f 398 399 231
f 400 275 401
f 400 187 373
f 187 371 373
f 72 71 402
f 403 53 178
f 387 134 404
f 134 328 404
f 77 105 104
f 180 206 194
f 405 406 407
f 118 348 334
f 17 104 81
f 280 408 409
f 118 35 105
f 52 165 104
f 78 104 165
f 388 382 389
f 410 411 374
f 215 412 216
f 412 413 216
f 356 414 167
f 390 335 138
f 20 415 18
f 284 353 43
f 165 320 78
f 417 362 418
f 420 251 142
f 282 305 322
f 251 173 172
f 145 298 47
f 47 298 45
f 245 41 43
f 257 13 14
f 83 110 16
f 421 111 83
f 234 322 305
f 1 257 14
f 85 95 96
f 422 423 424
f 367 425 426
f 30 6 5
f 195 427 428
f 430 157 431
f 317 432 313
f 222 309 432
f 366 360 61
f 118 33 35
f 262 335 433
f 323 434 324
f 48 246 49
f 435 436 437
f 436 438 437
f 306 308 93
f 439 101 230
f 305 284 42
f 284 43 42
f 30 5 133
f 120 118 77
f 440 441 435
f 441 442 435
f 444 445 446
f 228 447 448
f 367 426 368
f 259 373 449
f 450 332 75
f 332 76 75
f 412 451 452
f 453 437 438
f 454 420 144
f 455 456 457
f 458 386 146
f 249 364 44
f 459 460 461
f 462 463 97
f 167 464 94
f 434 465 390
f 328 467 248
f 468 369 368
f 139 469 363
f 141 470 139
f 471 207 278
f 14 13 337
f 472 473 453
f 246 48 322
f 48 50 185
f 158 10 12
f 476 477 478
f 151 49 113
f 400 169 275
f 6 480 481
f 482 399 398
f 333 483 484
f 485 486 487
f 363 488 468
f 490 491 270
f 365 492 493
f 453 425 472
f 494 495 496
f 16 204 340
f 341 236 183
f 67 221 497
f 498 499 500
f 499 501 500
f 172 61 62
f 30 133 31
f 91 503 502
f 255 49 151
f 198 196 504
f 316 29 28
f 166 82 28
f 82 316 28
f 316 35 34
f 316 34 29
f 505 506 507
f 506 485 507
f 508 188 509
f 101 270 98
f 510 511 512
f 26 513 514
f 415 319 496
f 319 164 496
f 115 116 54
f 286 96 287
f 515 516 4
f 79 331 205
f 361 222 394
f 139 470 469
f 469 470 518
f 51 296 496
f 129 519 520
f 19 521 395
f 63 397 522
f 74 523 75
f 523 217 75
f 524 525 526
f 410 374 376
f 411 27 32
f 411 32 374
f 527 528 529
f 366 61 173
f 378 377 359
f 193 278 194
f 39 530 40
f 531 532 341
f 534 535 393
f 536 537 321
f 471 538 539
f 24 263 540
f 280 409 541
f 344 265 267
f 544 545 546
f 173 61 172
f 547 423 209
f 548 456 549
f 40 551 297
f 551 362 297
f 298 362 500
f 477 89 478
f 552 18 553
f 554 176 555
f 556 440 554
f 440 557 554
f 535 323 393
f 158 558 10
f 400 401 187
f 362 551 418
f 363 469 559
f 488 559 231
f 363 559 488
f 560 561 562
f 155 151 107
f 564 565 32
f 90 89 477
f 329 158 12
f 478 88 347
f 271 273 566
f 476 478 482
f 478 567 482
f 394 360 361
f 84 370 83
f 459 461 74
f 461 569 74
f 22 318 23
f 570 571 572
f 571 573 572
f 428 427 574
f 255 151 155
f 306 391 575
f 93 391 306
f 576 577 578
f 575 307 306
f 233 391 94
f 205 192 261
f 394 222 443
f 222 432 443
f 443 432 317
f 394 443 62
f 527 254 258
f 9 219 489
f 171 53 52
f 53 171 178
f 53 123 51
f 256 255 355
f 341 182 531
f 309 314 432
f 313 432 314
f 400 373 169
f 373 259 169
f 484 483 76
f 360 394 61
f 142 455 143
f 103 134 579
f 146 386 147
f 580 59 581
f 98 270 302
f 341 309 236
f 309 341 314
f 341 532 314
f 114 113 246
f 582 552 553
f 168 170 260
f 487 168 260
f 402 584 273
f 333 484 332
f 59 281 585
f 170 169 260
f 259 449 260
f 449 586 260
f 215 160 336
f 517 563 587
f 333 57 58
f 133 558 380
f 517 108 563
f 317 549 443
f 78 588 79
f 589 253 553
f 525 590 381
f 38 297 346
f 232 233 36
f 175 418 176
f 418 555 176
f 22 310 591
f 206 180 120
f 159 180 348
f 450 75 592
f 75 217 592
f 216 592 217
f 59 133 281
f 216 413 508
f 413 188 508
f 593 518 594
f 595 277 596
f 453 473 437
f 597 598 599
f 344 267 427
f 600 601 602
f 582 553 253
f 556 554 603
f 604 136 605
f 606 425 453
f 453 438 606
f 607 130 109
f 19 18 521
f 552 608 18
f 608 521 18
f 609 610 611
f 269 613 66
f 614 550 376
f 614 611 550
f 455 615 456
f 607 111 7
f 616 617 416
f 342 344 195
f 344 427 195
f 618 574 427
f 109 204 110
f 109 130 204
f 348 619 620
f 287 96 95
f 26 25 621
f 427 267 622
f 397 623 624
f 146 148 625
f 335 626 433
f 627 628 629
f 247 248 467
f 547 276 423
f 239 238 630
f 440 574 441
f 624 623 631
f 589 632 253
f 256 633 50
f 634 393 315
f 269 338 337
f 389 44 364
f 44 389 345
f 149 635 318
f 484 76 332
f 40 530 551
f 530 636 551
f 637 470 141
f 149 638 639
f 436 435 442
f 435 557 440
f 640 641 312
f 241 642 64
f 643 509 458
f 509 401 458
f 1 429 257
f 535 644 645
f 534 634 535
f 634 644 535
f 465 347 390
f 347 465 478
f 323 535 434
f 434 390 324
f 5 281 133
f 133 59 10
f 148 249 646
f 249 647 646
f 648 227 229
f 587 573 649
f 239 650 651
f 652 55 116
f 653 654 655
f 656 495 657
f 4 6 481
f 5 4 281
f 658 127 520
f 63 73 397
f 659 660 661
f 215 336 412
f 662 411 663
f 411 410 663
f 664 551 504
f 551 636 504
f 305 665 234
f 638 149 150
f 666 667 550
f 668 669 398
f 460 670 461
f 486 485 506
f 13 522 397
f 292 221 220
f 56 220 67
f 197 671 342
f 672 673 674
f 675 220 56
f 502 677 678
f 100 679 680
f 419 157 330
f 419 330 100
f 68 100 330
f 608 21 681
f 264 26 514
f 682 264 514
f 683 684 121
f 13 397 66
f 66 337 13
f 258 528 527
f 335 609 626
f 142 615 455
f 156 98 200
f 685 154 144
f 686 346 145
f 686 145 379
f 686 687 346
f 686 379 687
f 112 108 113
f 688 332 450
f 154 533 144
f 562 561 301
f 561 689 301
f 690 406 691
f 129 128 519
f 692 190 189
f 509 188 401
f 188 187 401
f 60 694 693
f 343 447 265
f 492 132 689
f 546 174 695
f 174 696 695
f 491 235 302
f 263 629 288
f 461 697 569
f 523 74 161
f 74 569 161
f 198 504 636
f 198 636 530
f 698 522 13
f 67 497 269
f 699 92 678
f 212 272 271
f 477 610 90
f 2 700 701
f 702 351 703
f 351 597 703
f 3 429 1
f 685 144 143
f 652 116 542
f 652 542 294
f 9 657 223
f 664 555 551
f 555 418 551
f 688 218 332
f 597 599 705
f 599 706 705
f 505 108 112
f 707 301 689
f 576 578 708
f 12 709 330
f 318 150 149
f 489 219 276
f 213 710 711
f 439 692 604
f 241 712 37
f 92 710 91
f 91 710 213
f 534 393 634
f 202 199 70
f 648 229 713
f 580 121 59
f 714 715 716
f 717 291 718
f 124 345 382
f 124 126 210
f 583 533 446
f 117 122 96
f 650 58 719
f 501 45 298
f 720 721 722
f 121 580 683
f 294 220 675
f 54 116 55
f 263 264 629
f 591 307 575
f 39 723 530
f 723 242 530
f 470 724 722
f 42 463 665
f 685 143 154
f 238 237 725
f 466 726 304
f 688 727 218
f 218 727 276
f 727 423 276
f 209 489 276
f 121 528 258
f 145 47 454
f 629 264 627
f 264 682 627
f 728 729 730
f 729 726 730
f 657 495 223
f 358 141 181
f 662 663 721
f 594 518 721
f 329 157 158
f 691 699 626
f 731 732 723
f 481 583 446
f 413 412 452
f 526 525 733
f 211 213 711
f 223 58 9
f 690 611 406
f 611 614 406
f 455 734 143
f 734 153 143
f 375 406 614
f 125 124 381
f 197 342 195
f 202 528 199
f 735 552 125
f 552 582 125
f 172 443 549
f 392 137 479
f 505 737 108
f 529 528 201
f 4 446 515
f 676 95 87
f 618 738 574
f 738 441 574
f 329 330 157
f 676 357 629
f 357 288 629
f 682 739 627
f 479 456 548
f 650 333 58
f 239 483 650
f 483 333 650
f 556 603 574
f 603 740 574
f 428 574 740
f 664 603 555
f 554 555 603
f 428 740 196
f 603 504 740
f 504 196 740
f 664 504 603
f 643 741 742
f 741 424 742
f 525 388 733
f 371 214 451
f 116 743 542
f 201 528 202
f 437 557 435
f 505 112 506
f 744 308 591
f 22 591 575
f 22 575 150
f 657 489 208
f 745 205 331
f 736 615 142
f 310 128 591
f 320 588 78
f 588 331 79
f 405 746 406
f 746 747 406
f 591 308 307
f 711 710 568
f 553 18 748
f 612 749 750
f 736 251 172
f 496 164 51
f 751 157 419
f 614 376 375
f 507 752 753
f 655 311 366
f 334 34 33
f 310 21 519
f 69 330 709
f 754 342 671
f 342 754 343
f 513 755 756
f 755 757 756
f 436 442 758
f 442 759 758
f 359 224 732
f 262 626 699
f 262 433 626
f 643 742 509
f 266 447 228
f 235 462 302
f 462 97 302
f 651 285 239
f 758 759 540
f 24 540 25
f 540 759 25
f 760 761 338
f 762 763 764
f 765 409 408
f 482 398 477
f 766 733 388
f 621 767 768
f 714 602 715
f 602 769 715
f 616 416 368
f 314 532 634
f 54 56 624
f 189 340 365
f 385 472 771
f 472 425 771
f 482 567 762
f 567 763 762
f 710 772 115
f 568 710 115
f 115 772 116
f 746 743 772
f 772 743 116
f 544 774 175
f 774 418 175
f 585 581 59
f 770 474 775
f 501 499 45
f 755 768 757
f 746 772 776
f 424 423 727
f 662 721 777
f 721 720 777
f 585 281 4
f 449 752 586
f 684 528 121
f 313 773 317
f 242 198 530
f 747 691 406
f 778 779 631
f 479 773 315
f 7 111 421
f 780 605 274
f 210 126 252
f 343 754 600
f 754 601 600
f 781 450 592
f 216 508 781
f 508 742 781
f 424 741 422
f 275 169 274
f 169 168 274
f 458 401 275
f 719 651 650
f 745 331 192
f 782 698 13
f 301 707 299
f 707 750 299
f 667 376 550
f 667 663 410
f 667 410 376
f 55 675 56
f 588 320 396
f 320 319 396
f 183 466 184
f 184 466 304
f 354 283 712
f 37 712 283
f 240 3 241
f 628 287 676
f 628 783 287
f 627 783 628
f 239 285 783
f 627 237 783
f 237 239 783
f 784 588 785
f 407 375 374
f 786 787 228
f 622 267 738
f 267 767 738
f 25 738 621
f 738 767 621
f 109 111 607
f 99 100 788
f 380 31 133
f 178 85 403
f 96 403 85
f 53 403 122
f 122 403 96
f 631 623 402
f 303 771 369
f 386 387 147
f 387 404 147
f 508 509 742
f 792 667 666
f 434 535 793
f 26 621 755
f 621 768 755
f 465 434 793
f 570 737 753
f 794 359 158
f 258 254 11
f 415 495 18
f 495 632 18
f 772 710 92
f 395 20 19
f 199 795 770
f 595 796 797
f 718 798 799
f 349 351 702
f 312 183 236
f 357 676 87
f 371 187 214
f 338 800 337
f 3 240 429
f 801 391 233
f 582 253 125
f 253 126 125
f 252 208 210
f 135 386 275
f 386 458 275
f 780 274 168
f 639 796 149
f 802 803 804
f 597 705 703
f 631 402 272
f 805 185 37
f 681 674 806
f 328 248 404
f 469 807 559
f 805 808 185
f 805 322 808
f 322 48 808
f 713 599 598
f 775 809 185
f 810 184 304
f 811 498 544
f 499 250 45
f 300 812 813
f 188 413 452
f 43 353 814
f 43 814 245
f 245 814 2
f 2 814 353
f 119 79 205
f 119 77 79
f 205 261 206
f 778 54 779
f 778 212 211
f 798 617 815
f 2 60 245
f 177 245 60
f 816 68 633
f 811 544 817
f 531 818 819
f 209 820 326
f 142 144 420
f 525 382 388
f 590 524 381
f 736 142 251
f 239 630 483
f 145 454 583
f 684 199 528
f 732 224 226
f 754 244 821
f 244 226 821
f 7 704 607
f 359 794 224
f 292 822 221
f 823 194 207
f 165 164 320
f 797 538 595
f 538 471 595
f 612 36 464
f 442 824 759
f 449 825 752
f 825 826 753
f 826 570 753
f 300 562 301
f 699 827 92
f 145 583 480
f 593 668 807
f 282 322 805
f 171 765 828
f 321 537 212
f 784 785 829
f 784 829 331
f 193 829 277
f 193 331 829
f 665 463 462
f 830 831 766
f 208 253 632
f 339 325 15
f 152 108 517
f 152 517 106
f 832 108 152
f 152 151 113
f 107 152 106
f 185 809 37
f 662 777 411
f 494 496 296
f 822 292 833
f 292 834 833
f 101 439 604
f 161 569 697
f 407 565 835
f 836 661 660
f 837 835 542
f 765 80 838
f 779 624 631
f 113 49 246
f 101 604 605
f 459 74 660
f 74 839 660
f 725 661 839
f 237 739 725
f 739 840 725
f 725 840 661
f 661 840 659
f 682 659 739
f 659 840 739
f 839 76 725
f 76 483 725
f 459 660 460
f 656 632 495
f 486 506 490
f 185 808 48
f 784 331 588
f 253 252 126
f 641 726 466
f 312 641 466
f 312 311 640
f 691 747 827
f 416 617 798
f 723 243 242
f 101 605 841
f 822 497 221
f 549 615 736
f 549 456 615
f 800 539 842
f 691 827 699
f 656 657 208
f 843 844 845
f 830 327 831
f 54 624 779
f 846 639 847
f 60 693 708
f 127 129 520
f 536 321 848
f 299 750 356
f 750 414 356
f 524 128 381
f 430 431 849
f 430 158 157
f 4 516 585
f 723 732 226
f 682 514 513
f 26 755 513
f 729 695 385
f 174 545 544
f 174 544 175
f 174 546 545
f 354 701 353
f 701 700 353
f 25 824 738
f 167 612 464
f 62 443 172
f 693 850 708
f 596 796 595
f 417 498 362
f 498 500 362
f 542 835 543
f 688 851 727
f 851 424 727
f 688 450 851
f 450 781 851
f 781 742 851
f 742 424 851
f 454 46 420
f 513 756 659
f 756 660 659
f 267 768 767
f 751 419 100
f 819 645 634
f 645 644 634
f 852 853 479
f 750 704 612
f 446 4 481
f 388 247 830
f 575 854 150
f 472 385 695
f 383 855 384
f 409 856 724
f 550 610 666
f 477 666 610
f 454 144 533
f 571 649 573
f 780 168 841
f 858 576 708
f 698 240 241
f 282 805 283
f 37 283 805
f 575 391 859
f 482 477 476
f 74 76 860
f 597 352 598
f 470 722 518
f 722 721 518
f 774 544 498
f 732 731 379
f 232 801 233
f 380 379 480
f 291 289 861
f 389 382 345
f 862 199 770
f 816 633 355
f 70 68 816
f 93 308 863
f 366 173 250
f 571 570 845
f 355 633 256
f 234 114 246
f 751 680 715
f 680 751 100
f 300 813 562
f 583 454 533
f 672 674 681
f 864 303 369
f 372 371 350
f 371 865 350
f 491 490 112
f 138 324 390
f 655 866 311
f 212 631 272
f 227 648 867
f 697 163 161
f 836 839 661
f 836 660 839
f 868 849 431
f 357 289 288
f 475 869 789
f 549 736 172
f 507 753 505
f 753 737 505
f 867 648 461
f 648 697 461
f 713 163 648
f 163 697 648
f 652 294 675
f 652 675 55
f 658 381 127
f 474 809 775
f 694 850 693
f 870 801 232
f 616 368 426
f 369 771 367
f 634 532 819
f 532 531 819
f 336 350 412
f 350 865 412
f 803 502 804
f 502 503 804
f 321 871 791
f 207 539 338
f 589 553 748
f 589 748 632
f 872 649 845
f 649 571 845
f 80 17 81
f 873 757 268
f 757 768 268
f 503 91 537
f 212 537 213
f 213 537 91
f 430 849 225
f 796 596 149
f 809 475 857
f 201 69 529
f 820 874 326
f 372 350 349
f 472 695 473
f 695 696 473
f 557 875 876
f 875 437 696
f 437 473 696
f 876 875 174
f 875 696 174
f 557 437 875
f 557 876 554
f 876 176 554
f 826 877 845
f 877 843 845
f 731 687 379
f 74 860 839
f 850 694 842
f 694 878 842
f 337 800 878
f 878 879 337
f 682 513 659
f 137 393 323
f 880 769 849
f 769 601 849
f 881 494 223
f 632 748 18
f 415 496 495
f 449 882 825
f 882 877 825
f 501 298 500
f 417 418 498
f 418 774 498
f 287 783 285
f 689 561 492
f 690 609 611
f 547 209 276
f 596 635 149
f 797 796 639
f 865 451 412
f 597 351 352
f 224 794 225
f 794 430 225
f 2 701 3
f 140 798 861
f 179 312 236
f 656 208 632
f 402 273 272
f 367 771 425
f 750 607 704
f 131 750 707
f 131 130 607
f 607 750 131
f 770 795 474
f 186 188 452
f 765 408 828
f 420 46 45
f 705 706 716
f 93 863 167
f 595 278 277
f 13 257 429
f 334 620 543
f 429 240 698
f 756 460 660
f 756 757 460
f 337 613 269
f 613 337 66
f 810 304 303
f 527 709 258
f 620 834 292
f 883 562 884
f 562 813 884
f 336 162 350
f 162 352 350
f 885 266 227
f 266 228 227
f 529 709 527
f 334 348 620
f 761 207 338
f 338 269 760
f 552 735 608
f 608 520 21
f 520 519 21
f 787 229 228
f 541 637 358
f 846 797 639
f 790 795 580
f 327 103 831
f 841 886 270
f 162 598 352
f 56 67 624
f 166 838 80
f 778 631 212
f 841 270 101
f 243 723 226
f 506 112 490
f 97 463 887
f 363 416 139
f 698 63 522
f 80 171 17
f 502 678 91
f 832 113 108
f 69 68 330
f 258 254 527
f 497 760 269
f 760 833 761
f 643 458 625
f 146 625 458
f 643 625 741
f 620 292 293
f 751 880 157
f 305 42 665
f 766 831 733
f 385 771 383
f 304 726 384
f 384 726 385
f 726 729 385
f 451 865 371
f 538 842 539
f 280 828 408
f 868 431 157
f 802 154 803
f 154 153 803
f 451 214 186
f 45 251 420
f 773 313 315
f 76 839 860
f 483 630 725
f 238 725 630
f 536 804 537
f 561 560 888
f 645 465 793
f 167 414 749
f 414 750 749
f 478 465 763
f 732 378 359
f 348 180 619
f 29 34 334
f 619 833 620
f 833 834 620
f 499 653 250
f 167 749 612
f 855 771 303
f 579 136 692
f 136 604 692
f 244 197 242
f 197 198 242
f 92 827 776
f 311 889 640
f 32 565 374
f 128 127 381
f 497 822 760
f 822 833 760
f 42 887 463
f 44 647 249
f 535 645 793
f 792 890 669
f 563 573 587
f 207 761 823
f 775 185 50
f 775 50 633
f 310 519 128
f 746 776 747
f 776 827 747
f 466 183 312
f 462 235 234
f 67 397 624
f 882 449 373
f 678 853 852
f 692 230 190
f 868 880 849
f 726 641 730
f 499 498 654
f 498 811 654
f 526 888 883
f 594 721 663
f 137 323 324
f 280 86 828
f 781 592 216
f 745 192 205
f 134 136 579
f 234 665 462
f 772 92 776
f 474 475 809
f 162 163 598
f 713 598 163
f 153 734 677
f 802 445 444
f 153 677 803
f 702 703 844
f 602 714 600
f 714 448 600
f 377 558 359
f 359 558 158
f 881 223 495
f 295 494 296
f 295 223 494
f 122 296 123
f 223 296 122
f 516 891 791
f 585 516 791
f 445 891 516
f 334 565 29
f 374 565 407
f 564 32 29
f 885 227 873
f 227 867 873
f 114 491 892
f 892 491 112
f 655 366 250
f 47 46 454
f 773 549 317
f 773 548 549
f 862 775 633
f 136 135 605
f 135 274 605
f 158 430 794
f 108 737 572
f 572 737 570
f 572 573 563
f 108 572 563
f 103 102 493
f 733 831 103
f 733 103 493
f 560 562 883
f 884 813 744
f 813 812 744
f 94 464 233
f 416 140 139
f 826 845 570
f 229 786 713
f 716 786 448
f 786 228 448
f 716 706 786
f 499 654 653
f 699 678 852
f 202 201 203
f 91 678 92
f 812 300 356
f 3 701 241
f 701 712 241
f 353 700 2
f 893 639 638
f 823 180 194
f 543 293 542
f 38 346 39
f 90 610 88
f 732 379 378
f 80 765 171
f 507 485 752
f 830 766 388
f 620 293 543
f 375 407 406
f 837 542 743
f 405 407 746
f 407 894 746
f 746 894 743
f 894 837 743
f 741 625 646
f 148 646 625
f 835 565 334
f 202 70 203
f 416 798 140
f 478 89 88
f 585 791 581
f 451 186 452
f 354 712 701
f 448 447 600
f 343 600 447
f 548 773 479
f 653 655 250
f 789 857 475
f 884 895 883
f 855 303 304
f 25 759 824
f 679 100 99
f 868 157 880
f 895 744 128
f 491 114 235
f 892 112 114
f 832 152 113
f 878 694 879
f 692 896 579
f 106 355 107
f 132 131 689
f 131 707 689
f 690 691 609
f 691 626 609
f 550 611 610
f 140 861 181
f 44 874 647
f 647 874 646
f 806 395 521
f 318 635 23
f 635 672 23
f 21 23 681
f 23 672 681
f 209 423 820
f 849 821 225
f 821 226 225
f 602 601 769
f 769 751 715
f 821 601 754
f 812 308 744
f 895 524 883
f 524 526 883
f 884 744 895
f 128 524 895
f 802 804 445
f 804 848 445
f 536 848 804
f 791 848 321
f 791 891 848
f 445 848 891
f 810 511 184
f 39 346 723
f 346 731 723
f 731 346 687
f 671 197 244
f 671 244 754
f 782 13 429
f 150 854 638
f 634 315 314
f 645 819 818
f 147 404 248
f 896 692 189
f 65 64 642
f 20 319 415
f 539 800 338
f 609 335 88
f 610 609 88
f 897 816 898
f 788 587 99
f 512 488 231
f 64 63 698
f 65 857 789
f 180 823 619
f 823 833 619
f 899 833 823
f 823 761 899
f 761 833 899
f 302 270 491
f 807 668 231
f 792 669 667
f 231 668 398
f 99 900 679
f 679 900 901
f 900 902 901
f 326 874 44
f 874 422 646
f 422 741 646
f 903 669 890
f 445 515 446
f 714 716 448
f 368 416 363
f 363 468 368
f 380 558 377
f 10 558 133
f 365 204 132
f 130 132 204
f 493 492 733
f 492 561 733
f 396 785 588
f 293 294 542
f 817 544 728
f 544 546 728
f 730 641 889
f 641 640 889
f 811 866 654
f 866 655 654
f 316 82 105
f 608 681 521
f 681 806 521
f 806 396 395
f 396 806 785
f 806 674 785
f 635 673 672
f 596 673 635
f 785 674 829
f 674 673 829
f 673 596 277
f 673 277 829
f 798 718 861
f 718 291 861
f 758 717 904
f 717 718 904
f 290 291 717
f 263 288 290
f 263 290 540
f 290 717 540
f 718 799 815
f 815 904 718
f 717 758 540
f 782 429 698
f 564 29 565
f 457 456 479
f 853 677 457
f 677 734 457
f 678 677 853
f 455 457 734
f 438 436 904
f 788 68 816
f 739 237 627
f 870 232 177
f 704 7 36
f 244 243 226
f 556 574 440
f 838 720 856
f 445 516 515
f 825 753 752
f 676 287 95
f 58 117 719
f 905 37 857
f 800 842 878
f 887 370 97
f 7 906 41
f 41 906 42
f 906 887 42
f 906 370 887
f 83 370 421
f 421 370 7
f 7 370 906
f 278 595 471
f 907 663 593
f 398 903 477
f 903 666 477
f 792 666 890
f 713 786 599
f 786 706 599
f 809 857 37
f 409 724 541
f 724 637 541
f 358 637 141
f 728 730 889
f 211 908 778
f 489 209 208
f 751 769 880
f 881 495 494
f 231 559 807
f 807 469 593
f 469 518 593
f 812 356 308
f 356 863 308
f 524 590 525
f 853 457 479
f 702 844 877
f 844 843 877
f 503 537 804
f 816 68 70
f 68 788 100
f 724 470 637
f 428 196 195
f 202 69 201
f 1 694 60
f 593 669 668
f 663 667 593
f 667 669 593
f 467 328 327
f 907 593 594
f 488 511 468
f 478 763 567
f 903 398 669
f 705 716 901
f 716 715 901
f 715 680 901
f 680 679 901
f 436 758 904
f 855 304 384
f 65 642 857
f 780 841 605
f 581 791 871
f 321 271 871
f 778 908 54
f 908 211 711
f 387 135 134
f 72 623 73
f 623 397 73
f 724 856 722
f 856 720 722
f 166 27 838
f 27 777 838
f 765 838 409
f 838 856 409
f 777 720 838
f 815 617 909
f 425 909 426
f 426 909 616
f 909 617 616
f 438 904 606
f 904 815 606
f 425 606 909
f 606 815 909
f 799 798 815
f 910 859 391
f 560 883 888
f 651 286 285
f 279 541 87
f 181 289 357
f 160 217 911
f 821 849 601
f 820 423 874
f 423 422 874
f 482 762 399
f 181 861 289
f 705 901 902
f 844 902 900
f 703 705 844
f 705 902 844
f 844 900 872
f 844 872 845
f 872 900 99
f 649 99 587
f 649 872 99
f 580 581 790
f 651 719 286
f 467 327 247
f 828 86 178
f 171 828 178
f 502 803 677
f 561 888 733
f 103 328 134
f 337 879 14
f 879 694 912
f 912 694 1
f 1 913 912
f 14 913 1
f 14 879 913
f 913 879 912
f 339 15 16
f 683 580 795
f 474 915 914
f 474 795 915
f 684 795 199
f 914 915 790
f 915 795 790
f 492 365 132
f 189 365 102
f 189 191 340
f 125 658 735
f 124 210 345
f 382 381 124
f 608 735 520
f 735 658 520
f 381 658 125
f 862 68 199
f 862 770 775
f 858 916 576
f 882 373 372
f 372 349 882
f 349 877 882
f 877 826 825
f 54 568 115
f 339 191 190
f 852 137 262
f 852 262 699
f 102 365 493
f 744 591 128
f 9 489 657
f 247 388 364
f 381 382 525
f 177 578 870
f 910 638 859
f 638 854 859
f 859 854 575
f 189 102 896
f 846 847 797
f 538 797 842
f 797 847 842
f 471 539 207
f 612 704 36
f 566 869 790
f 790 869 914
f 914 869 474
f 325 230 156
f 230 101 156
f 862 633 68
f 546 695 728
f 729 728 695
f 87 541 358
f 279 280 541
f 349 702 877
f 442 441 824
f 441 738 824
f 577 917 578
f 889 311 817
f 311 866 817
f 811 817 866
f 334 543 835
f 837 894 835
f 894 407 835
f 117 58 223
f 863 356 167
f 890 666 903
f 708 578 60
f 402 623 72
f 529 69 709
f 11 254 258
f 11 258 12
f 258 709 12
f 392 479 393
f 138 137 324
f 315 393 479
f 852 479 137
f 586 752 485
f 168 487 841
f 487 486 841
f 886 841 486
f 886 486 270
f 270 486 490
f 27 411 777
f 80 82 166
f 618 427 738
f 427 622 738
f 905 857 642
f 71 63 65
f 876 174 176
f 873 268 885
f 267 268 768
f 265 447 266
f 763 465 818
f 465 645 818
f 762 764 399
f 764 918 399
f 818 764 763
f 787 786 229
f 908 711 568
f 383 771 855
f 325 339 230
f 339 190 230
f 340 191 339
f 790 871 566
f 790 581 871
f 871 271 566
f 20 395 319
f 511 369 468
f 474 869 475
f 273 869 566
f 789 584 71
f 273 584 869
f 869 584 789
f 402 71 584
f 464 36 233
f 355 898 816
f 106 898 355
f 587 898 517
f 517 898 106
f 107 355 155
f 908 568 54
f 801 870 917
f 870 578 917
f 71 65 789
f 905 642 37
f 37 642 241
f 910 917 638
f 917 577 638
f 801 910 391
f 801 917 910
f 60 578 177
f 708 850 858
f 850 842 858
f 893 638 576
f 638 577 576
f 893 576 639
f 576 916 639
f 639 916 847
f 160 911 161
f 217 523 911
f 523 161 911
f 802 444 154
f 444 446 533
f 444 533 154
f 230 692 439
f 896 102 103
f 579 896 103
f 885 268 266
f 670 873 461
f 867 461 873
f 460 757 873
f 460 873 670
f 303 864 810
f 810 864 511
f 864 369 511
f 45 250 251
f 719 117 96
f 719 96 286
f 733 888 526
f 145 480 379
f 629 628 676
f 481 480 583
f 918 764 512
f 764 919 512
f 231 399 512
f 399 918 512
f 510 184 511
f 897 898 587
f 788 897 587
f 816 897 788
f 764 818 919
f 184 920 182
f 184 510 920
f 512 511 488
f 531 182 920
f 531 920 818
f 920 919 818
f 512 919 510
f 510 919 920
f 487 260 485
f 260 586 485
f 858 842 916
f 842 847 916
f 683 795 684
f 380 480 6
f 64 698 241
f 907 594 663
f 830 247 327
f 817 728 889

