# https://github.com/mikedh/trimesh
v 0.11605700 0.38438300 -0.04807200
v 0.07008319 0.38850664 -0.04904646
v 0.09421450 0.38438300 0.00000000
v 0.08882600 0.38438300 -0.08882600
v 0.20889600 -0.07174800 0.00000000
v 0.02450700 0.38438300 -0.12320500
v 0.04807200 0.38438300 -0.11605700
v -0.03140500 0.38438300 0.00000000
v -0.06281000 0.38438300 0.00000000
v 0.11836290 0.33728124 -0.06105726
v 0.08820713 0.33636955 -0.09192360
v -0.22176300 -0.15827500 0.04411200
v -0.22176300 -0.20238700 0.00000000
v -0.08882600 0.38438300 0.08882600
v -0.10444800 0.38438300 0.06979000
v -0.12320500 0.38438300 -0.02450700
v -0.12561900 0.34005100 0.00000000
v -0.12561900 0.38438300 0.00000000
v 0.22610800 -0.15827500 -0.00000000
v 0.22176300 -0.15827500 -0.04411200
v 0.22176300 -0.11416400 -0.00000000
v -0.08678778 0.32546523 0.10732844
v -0.10665945 0.33821190 0.07273967
v -0.11494031 0.28024910 0.06703900
v -0.12561900 0.29571900 0.00000000
v 0.16262569 -0.03554192 0.09144539
v 0.14169370 -0.02845432 0.12143089
v 0.16886419 -0.06808943 0.11759721
v 0.14245000 -0.04246144 0.13620103
v 0.00000000 0.20705500 -0.12561900
v 0.05049071 0.17606907 -0.11638121
v 0.00000000 0.16272275 -0.12561900
v 0.08652800 -0.15827500 0.20889600
v 0.07911424 -0.22590873 0.20207969
v 0.10600411 -0.19153687 0.19341608
v -0.00000000 -0.28389500 -0.18800100
v 0.12561900 -0.34627700 -0.00000000
v 0.15505445 -0.31699632 -0.06553296
v 0.15988300 -0.31815800 -0.00000000
v -0.04404764 0.27827985 -0.12204663
v -0.04661402 0.27678033 -0.12127399
v -0.04560271 0.28248724 -0.12159925
v 0.00000000 -0.03265600 -0.18800100
v 0.06964782 -0.05377388 -0.18481016
v 0.06882695 -0.05141939 -0.18362771
v -0.13667616 0.02281688 0.08076353
v -0.13216180 0.01539692 0.09364616
v -0.10444800 0.02972600 0.06979000
v 0.05258568 0.38653456 0.05580079
v 0.06979000 0.38438300 0.10444800
v 0.08882600 0.38438300 0.08882600
v -0.00000000 0.38438300 -0.12561900
v 0.00000000 -0.31815800 -0.15988300
v 0.00000000 -0.34627700 -0.12561900
v -0.09051189 0.18778298 0.10135980
v -0.11040990 0.18414588 0.07369519
v -0.09130812 0.16348838 0.09874003
v 0.04807200 0.02972600 -0.11605700
v 0.02450700 0.02972600 -0.12320500
v 0.00000000 0.07405825 -0.12561900
v -0.13745291 -0.09474978 -0.16149188
v -0.13282106 -0.03889039 -0.14233043
v -0.13455995 -0.09576445 -0.16480562
v -0.12829629 -0.03876678 -0.14678524
v -0.10344841 0.22789783 0.10125903
v -0.10132869 0.22661913 0.10269076
v -0.10162869 0.23021734 0.10285294
v -0.13649660 -0.32670369 0.10633866
v -0.15674058 -0.29116312 0.14313736
v -0.16896356 -0.29942981 0.08278222
v 0.22176300 -0.20238700 0.00000000
v -0.15988300 0.00160700 0.00000000
v -0.10474948 0.22238434 0.09648703
v -0.12561900 0.07405825 0.00000000
v -0.12320500 0.02972600 -0.02450700
v -0.12561900 0.02972600 0.00000000
v 0.18800100 -0.15827500 -0.12561900
v -0.11605700 0.02972600 0.04807200
v -0.02450700 0.38438300 0.12320500
v 0.18800100 -0.03265600 0.00000000
v 0.15988300 0.00160700 0.00000000
v -0.04807200 0.02972600 -0.11605700
v -0.02450700 0.02972600 -0.12320500
v 0.00000000 0.34005100 -0.12561900
v -0.05439359 0.34215655 -0.12048143
v -0.02450700 0.38438300 -0.12320500
v 0.04807200 0.38438300 0.11605700
v -0.12561900 -0.34627700 0.00000000
v -0.08652800 -0.36717200 0.00000000
v 0.12320500 0.38438300 0.02450700
v 0.12561900 0.38438300 0.00000000
v -0.00000000 -0.36717200 -0.08652800
v -0.04411200 -0.15827500 -0.22176300
v 0.03140500 0.38438300 0.00000000
v 0.00000000 0.38438300 0.03140500
v 0.13486956 -0.31977742 0.13153182
v 0.14968421 -0.28016111 0.15614336
v 0.12797858 -0.31914322 0.13911486
v 0.14782379 -0.27957061 0.15860923
v -0.12561900 -0.15827500 -0.18800100
v -0.11230617 -0.33778124 -0.11001688
v -0.10374235 -0.31901604 -0.14507603
v -0.09888949 -0.34493986 -0.10495380
v -0.08579649 -0.32564926 -0.14313146
v -0.12561900 0.11839050 0.00000000
v 0.00000000 0.38438300 0.12561900
v 0.05410600 -0.26111595 -0.19539037
v 0.06118108 -0.29262459 -0.17424508
v 0.00000000 0.38438300 -0.03140500
v 0.00000000 0.38438300 0.00000000
v -0.19207542 -0.25469800 -0.08341276
v -0.19401683 -0.21791585 -0.10292570
v -0.18506802 -0.27162398 -0.09174208
v -0.18536390 -0.24599023 -0.10833342
v 0.13640037 -0.11778883 -0.16835835
v 0.15988200 -0.15827500 -0.15988300
v 0.12561800 -0.15827500 -0.18800200
v -0.02450700 0.02972600 0.12320500
v -0.06798405 -0.00144072 0.15093932
v 0.00000000 0.00160700 0.15988300
v -0.12469125 0.32762586 -0.03435572
v -0.12112403 0.29115176 -0.05325468
v 0.06979000 0.38438300 -0.10444800
v 0.06281000 0.38438300 0.00000000
v 0.10444800 0.38438300 -0.06979000
v 0.00000000 -0.36717200 0.08652800
v -0.07213832 0.38718956 0.04013989
v 0.14584926 -0.01774840 -0.10381917
v 0.13572704 -0.02245415 -0.12534274
v 0.13388218 0.00534831 -0.11173231
v -0.08652800 -0.15827500 0.20889600
v 0.11558107 0.07152663 -0.07036267
v 0.07420661 0.08096537 -0.09892625
v 0.10246791 0.10008133 -0.07709372
v 0.00000000 0.29571900 0.12561900
v -0.06550063 0.32682420 0.11697603
v -0.05667157 0.28566638 0.12159298
v -0.05686540 0.11424030 0.11311675
v -0.06957145 0.14345758 0.10972636
v -0.09594968 0.12387818 0.08760679
v 0.11502584 0.13016910 -0.04460036
v 0.12561900 0.16272275 0.00000000
v 0.12561900 0.11839050 0.00000000
v -0.05159516 0.38543169 -0.05962290
v -0.04807200 0.38438300 -0.11605700
v -0.06979000 0.38438300 -0.10444800
v 0.02450700 0.38438300 0.12320500
v 0.00000000 0.38438300 0.09421450
v 0.10527748 0.27207074 0.09047386
v 0.12210199 0.29621678 0.03904189
v 0.10468018 0.28914415 0.09382913
v 0.12148753 0.30796419 0.04199742
v 0.06495940 0.38644455 0.06019452
v 0.10501843 -0.35268392 -0.06607422
v 0.11282340 -0.33857265 -0.11225109
v 0.14148300 -0.32531820 -0.08355206
v 0.17103506 -0.27406330 -0.11583002
v 0.15913705 -0.28917172 -0.13793613
v 0.17252272 -0.26010896 -0.13432612
v 0.10564486 0.31420174 -0.09150315
v 0.07162419 0.33064533 -0.11290809
v 0.00000000 0.38438300 -0.09421450
v -0.06979000 0.38438300 0.10444800
v -0.13683678 -0.09878165 -0.16388278
v -0.16725730 -0.08562321 -0.12398317
v -0.16477434 -0.11902992 -0.14083098
v 0.11792704 0.07822508 0.04374244
v 0.12320500 0.02972600 0.02450700
v 0.12561900 0.07405825 0.00000000
v -0.05004925 0.38739766 0.06043950
v -0.02858189 0.38735363 0.07842955
v -0.12561900 0.20705500 0.00000000
v -0.11688176 0.19330379 0.05547087
v -0.11758063 0.18251473 0.04924921
v -0.11605700 0.38438300 0.04807200
v -0.15556993 -0.00604777 0.06792960
v 0.00000000 0.38438300 0.06281000
v -0.04807200 0.02972600 0.11605700
v -0.06979000 0.02972600 0.10444800
v 0.17726664 -0.03477971 -0.05174754
v 0.17254825 -0.02677356 -0.05035171
v 0.14170438 0.00062445 -0.08341093
v 0.16198394 -0.04774532 -0.10885545
v -0.12320500 0.38438300 0.02450700
v -0.14525141 -0.28420755 0.15707322
v -0.15242238 -0.29089464 0.15066628
v -0.14605119 -0.29362508 0.15088965
v -0.07164342 0.00231691 0.14680124
v -0.06112033 0.08015143 -0.11455549
v -0.06575381 0.09760120 -0.11271759
v 0.00000000 0.11839050 -0.12561900
v -0.08882600 0.38438300 -0.08882600
v 0.11605700 0.38438300 0.04807200
v -0.00000000 -0.24480300 -0.20889600
v -0.08882600 0.02972600 0.08882600
v -0.00000000 -0.20238700 -0.22176300
v 0.00000000 0.38438300 -0.06281000
v -0.12114826 0.34484448 -0.05154741
v 0.00000000 0.02972600 0.12561900
v 0.00000000 0.07405825 0.12561900
v -0.21084727 -0.21968148 -0.03899947
v -0.21393607 -0.19677341 -0.04670721
v -0.07768738 -0.31116777 0.15933876
v -0.06759546 -0.31121173 0.15978540
v -0.07113048 -0.30310233 0.16646121
v -0.04164262 0.09683370 0.11512739
v 0.00000000 0.11839050 0.12561900
v -0.22176300 -0.15827500 -0.04411200
v 0.20198633 -0.24446550 0.05687226
v 0.19898105 -0.25248590 0.06006444
v 0.20889600 -0.24480300 0.00000000
v 0.12309188 0.30404124 0.03443012
v 0.12561900 0.29571900 0.00000000
v 0.12561900 0.34005100 0.00000000
v -0.12320500 0.02972600 0.02450700
v -0.12561900 0.16272275 0.00000000
v -0.06788892 -0.09747192 -0.20258877
v -0.08652800 -0.15827500 -0.20889600
v -0.11807387 0.21580216 -0.05008388
v -0.12091352 0.21864406 -0.04197302
v -0.11956660 0.22406965 -0.04598806
v -0.00000000 -0.11416400 -0.22176300
v -0.05976747 -0.08876304 -0.20169465
v -0.00000000 -0.07174800 -0.20889600
v 0.05571777 -0.30993393 -0.16117898
v 0.05541480 -0.30381438 -0.16719832
v 0.06876018 -0.31144443 -0.15875884
v 0.06067353 -0.21317513 -0.20944468
v 0.06001097 -0.20899559 -0.21015593
v 0.06374253 -0.21021375 -0.20927419
v -0.22610800 -0.15827500 0.00000000
v -0.05703197 0.16028207 0.11305964
v 0.20889600 -0.15827500 -0.08652800
v 0.21247820 -0.20577185 -0.04857684
v 0.20995693 -0.21628994 -0.05487940
v -0.11352697 0.34211209 0.05739192
v -0.05123526 0.22763794 -0.11969191
v 0.00000000 0.25138700 -0.12561900
v 0.00000000 -0.34627700 0.12561900
v 0.05775049 -0.09795603 0.20572471
v 0.04411200 -0.15827500 0.22176300
v 0.00000000 -0.28389500 0.18800100
v 0.00000000 -0.31815800 0.15988300
v 0.10801036 0.13989917 0.07202731
v 0.10741700 0.14192192 0.07286020
v 0.06029220 0.10474317 0.10550769
v 0.05870144 0.27596815 -0.11883387
v -0.09421450 0.38438300 0.00000000
v -0.18130226 -0.10651181 0.11617280
v -0.18800100 -0.15827500 0.12561900
v -0.15988300 -0.15827500 0.15988300
v -0.08746342 0.28808567 0.10757305
v -0.11684797 0.27142429 0.06450123
v 0.05407144 0.38833965 -0.06360400
v -0.16315550 -0.01906341 0.06519938
v -0.17809507 -0.06068294 0.09702228
v -0.16051344 -0.01917386 0.07178806
v -0.15657252 -0.04388919 0.12176163
v 0.12287608 0.31076859 0.03623729
v -0.17029560 -0.22515652 0.14031655
v -0.18218002 -0.25767472 0.11426005
v -0.15642969 -0.28424116 0.14947472
v -0.04573360 -0.26841196 0.19245479
v -0.04243339 -0.26451065 0.19479793
v 0.02450700 0.02972600 0.12320500
v 0.10444800 0.38438300 0.06979000
v 0.11512539 0.33241039 0.06829137
v -0.15988300 -0.15827500 -0.15988300
v -0.06520777 0.00346260 0.14836797
v -0.07248607 -0.24872777 -0.19643129
v -0.07198920 -0.27071935 -0.18914319
v 0.11334567 0.09334139 -0.04842762
v 0.12527532 -0.32608517 0.13195823
v 0.12450783 -0.33526573 0.08908511
v 0.14615230 -0.32113384 0.08763693
v 0.20513033 -0.09190862 0.05279979
v 0.22176300 -0.15827500 0.04411100
v -0.18800100 -0.03265600 0.00000000
v -0.20889600 -0.24480300 0.00000000
v -0.18800100 -0.28389500 0.00000000
v 0.19892282 -0.24131621 0.07092227
v 0.17825616 -0.03426331 -0.04616093
v 0.17906549 -0.03518308 -0.04409096
v 0.17980054 -0.03771970 -0.04825047
v 0.17630862 -0.23922550 -0.13053757
v 0.16257899 -0.23407734 -0.14893230
v 0.06628631 -0.34551724 -0.11376694
v 0.18800100 -0.28389500 0.00000000
v 0.05122389 -0.34926692 -0.11224533
v 0.00000000 0.25138700 0.12561900
v -0.04922063 0.22056099 0.11967727
v 0.00000000 0.20705500 0.12561900
v -0.22176300 -0.11416400 0.00000000
v -0.20889600 -0.07174800 0.00000000
v -0.16998113 -0.24990321 -0.13772593
v -0.17100790 -0.24883433 -0.13693592
v -0.16684943 -0.24890212 -0.14117351
v -0.05857640 -0.21231367 -0.20949796
v -0.08773859 -0.31005630 0.15952272
v -0.06440916 -0.33102136 0.13665984
v -0.04652184 -0.31987554 -0.15321761
v -0.06122695 -0.29319676 -0.17377000
v -0.08513156 -0.29908813 -0.16562573
v -0.15988300 -0.31815800 0.00000000
v -0.00000000 0.00160700 -0.15988300
v 0.06369634 -0.22013736 -0.20689910
v -0.06979000 0.02972600 -0.10444800
v -0.11750927 0.00742894 -0.11848214
v -0.08966645 0.01063456 -0.12959384
v -0.20889600 -0.15827500 -0.08652800
v -0.18800100 -0.15827500 -0.12561900
v 0.07773522 -0.22740378 0.20251963
v 0.07554736 -0.22608422 0.20325800
v 0.07365376 -0.23263685 0.20118867
v -0.03450243 0.38657118 0.03646894
v -0.02307054 0.38692197 0.05653351
v 0.12356064 0.33443759 -0.04718883
v -0.15458684 -0.29253557 0.14701085
v -0.13051458 -0.33131015 0.11452844
v 0.10128009 0.27837291 0.10225529
v 0.09602043 0.28918783 0.10499389
v 0.09523105 0.27818321 0.10612483
v 0.20410082 -0.10574942 -0.06780598
v 0.12375185 0.34370243 -0.04905650
v 0.12417004 0.34217072 -0.04351736
v 0.12320500 0.38438300 -0.02450700
v -0.17250471 -0.29902609 -0.03771175
v -0.18696371 -0.27550368 -0.06588430
v -0.09135639 0.14573741 -0.10051956
v -0.06215765 0.15121009 -0.11039810
v -0.14924288 -0.08465963 0.14582909
v -0.18219954 -0.10332202 0.11372758
v -0.14654922 -0.09714087 0.15440419
v 0.09980892 0.27426111 -0.10277769
v 0.09061179 0.24250914 -0.11133305
v 0.05691889 0.26857235 -0.12068382
v -0.18486958 -0.25573741 0.11057656
v -0.18432160 -0.26057670 0.11028721
v 0.16214411 -0.08329150 -0.13491375
v 0.16382071 -0.09802659 -0.13655761
v 0.13387036 -0.07287630 -0.15837662
v 0.04807200 0.02972600 0.11605700
v 0.04859078 0.09578083 0.11375009
v -0.06578084 0.01384344 -0.14256309
v -0.06928621 0.00735803 -0.14656066
v 0.11862511 0.27828889 -0.06561668
v 0.11129607 0.25466455 -0.07297572
v 0.00000000 0.16272275 0.12561900
v -0.05296846 0.19303976 0.11786736
v 0.06879785 0.33940643 -0.10883077
v -0.15114065 -0.27246184 0.15531275
v -0.15129463 -0.22076759 0.15869828
v 0.10571062 0.35418681 0.08174365
v 0.09227873 0.33815746 0.09617754
v 0.06457077 0.38633179 0.04951367
v 0.07887095 -0.22907740 0.20172835
v -0.15780569 -0.28767678 0.14660118
v 0.04554494 0.24141028 0.12024216
v 0.04920841 0.09683994 0.11345154
v 0.17537503 -0.27243906 0.11853454
v 0.18559131 -0.23856724 0.11492828
v 0.17511632 -0.25354952 0.12902545
v 0.15359178 -0.00590309 0.06765297
v 0.15518027 -0.01508914 0.08401452
v 0.17744689 -0.04286180 0.06751805
v 0.14275124 0.01544592 0.06996099
v 0.14076370 0.00286317 0.09729537
v 0.17132624 -0.07156984 -0.11590314
v 0.15587685 -0.06767146 -0.13517063
v -0.05217618 -0.03858206 -0.17990902
v 0.16163745 -0.30795321 -0.08072116
v 0.15077319 -0.31989208 -0.07792915
v -0.00000000 -0.15827500 -0.22610800
v -0.16171476 -0.01497279 0.06231368
v -0.16290756 -0.01711730 0.06171073
v -0.19285128 -0.10490582 -0.09214852
v -0.08435498 -0.26917181 -0.18827652
v -0.11026034 -0.22722731 -0.18573767
v 0.00000000 -0.20238700 0.22176300
v 0.00000000 -0.15827500 0.22610800
v 0.04577855 0.14967990 -0.11686792
v 0.20098356 -0.10182653 -0.07457384
v 0.17225846 -0.09255447 -0.12276258
v 0.18898085 -0.08150794 -0.08801255
v -0.12561900 0.25138700 0.00000000
v 0.18800200 -0.15827500 0.12561800
v -0.07451557 0.27025016 0.11733264
v -0.07870689 -0.00900461 0.15148226
v -0.11165965 -0.03907698 0.16035191
v -0.10734437 -0.05494068 0.17052335
v 0.08620654 -0.29960555 0.16914733
v 0.08388286 -0.29537825 0.17206548
v 0.07906847 -0.30053383 0.16874067
v 0.04411200 -0.38003800 0.00000000
v 0.07234219 0.00194049 0.14685945
v 0.04643300 -0.03340495 0.17734393
v -0.20747080 -0.21539009 -0.06344126
v 0.04828627 0.09615190 0.11365506
v 0.10833910 -0.35093694 -0.06280957
v 0.07501921 -0.00197720 -0.14881958
v 0.06979000 0.02972600 -0.10444800
v 0.00000000 -0.38003800 -0.04411200
v 0.10817326 -0.00667330 -0.13546969
v 0.13319256 -0.02948188 0.13453870
v 0.12308546 0.01245124 0.11501455
v -0.12561800 -0.15827500 0.18800200
v 0.08882600 0.02972600 -0.08882600
v -0.00000000 0.02972600 -0.12561900
v -0.11038627 0.01463584 0.12773295
v 0.16857931 -0.29845285 0.10212694
v 0.11368176 -0.34893204 0.04849479
v 0.11460011 -0.34826087 0.04884041
v 0.11351814 -0.34868678 0.05021026
v 0.05729226 -0.35924404 0.08664183
v 0.05314988 -0.36758098 0.06621210
v 0.05874562 -0.36682848 0.06397431
v 0.05127982 -0.36617159 0.07323238
v 0.12561900 0.02972600 0.00000000
v 0.12561900 -0.15827500 0.18800100
v -0.16266927 -0.30093737 -0.09213808
v -0.14584270 -0.32444287 -0.07556426
v -0.16535165 -0.30434098 -0.06401930
v 0.10814251 0.02522405 -0.12151672
v 0.05542113 0.33571849 0.11782116
v -0.10457249 -0.24527851 0.18920201
v -0.07819285 -0.22334785 0.20025998
v -0.10257969 -0.20997739 0.19532886
v -0.19999001 -0.09323032 -0.07061914
v -0.20242876 -0.10000936 -0.07028480
v 0.12073869 0.25090238 0.05249844
v -0.12667063 -0.00072489 0.12068800
v 0.07824969 -0.26348694 -0.19061307
v 0.12574281 -0.26204299 -0.17729013
v 0.10592462 -0.28464010 -0.17482710
v -0.11447832 0.07787594 -0.05498651
v -0.11196088 0.09146662 -0.05768714
v -0.04411200 -0.38003800 0.00000000
v 0.15913459 -0.25711860 -0.15068472
v 0.12828498 -0.26198160 -0.17535326
v 0.13489632 -0.21649498 0.17452140
v 0.13491964 -0.21662099 0.17449892
v 0.15988300 -0.15827500 0.15988200
v 0.13479547 -0.21649303 0.17460150
v -0.06125443 -0.09874781 -0.20410465
v -0.11829223 0.27907534 -0.06127431
v -0.10109516 0.26265456 -0.10702254
v -0.16692602 -0.05808983 -0.11639296
v 0.00000000 0.34005100 0.12561900
v 0.00000000 -0.38003800 0.04411200
v -0.04505628 -0.37240356 0.04484466
v -0.06899184 -0.36443890 0.06927199
v 0.12633846 -0.26239777 -0.17683302
v 0.12598195 -0.26381445 -0.17601698
v -0.11712917 0.33465973 0.05886410
v -0.12026575 0.27219610 0.06057846
v 0.13882335 -0.32929339 0.07291811
v -0.03860864 -0.31143185 -0.16184131
v -0.08860413 -0.29004512 0.17182775
v 0.10504909 -0.32870606 -0.13758679
v 0.06335634 -0.34074878 -0.12570374
v -0.03039184 -0.05760697 -0.19348073
v -0.12010671 0.26980245 0.06060156
v 0.20383441 -0.21142166 -0.07313046
v -0.13711177 -0.02177345 0.12347145
v -0.13896348 -0.04400816 0.13911866
v 0.07770209 0.00235747 0.14370770
v 0.08882600 0.02972600 0.08882600
v 0.00000000 -0.11416400 0.22176300
v -0.04411100 -0.15827500 0.22176300
v 0.20437666 -0.09012805 0.05247321
v 0.20495371 -0.09125389 0.05236436
v 0.10871270 0.13964625 0.06999463
v 0.11882188 0.09445155 0.03319468
v -0.04807200 0.38438300 0.11605700
v -0.10100385 0.23310510 -0.10513912
v -0.10710301 0.20178962 -0.08883316
v -0.09427479 -0.00140114 -0.14582859
v -0.08812854 -0.01856641 -0.15662407
v 0.16427430 -0.00936496 0.03887911
v 0.18482767 -0.05035002 0.05881785
v -0.11605700 0.38438300 -0.04807200
v 0.11605700 0.02972600 -0.04807200
v 0.14937960 0.00540602 -0.05588273
v 0.10444800 0.02972600 -0.06979000
v 0.03995924 -0.31645866 0.15680154
v 0.04167675 -0.28370639 0.18212692
v -0.12216995 -0.20776865 -0.18419928
v -0.13293190 -0.20808907 -0.17462088
v 0.12782891 0.04813911 0.05792072
v 0.10444800 0.02972600 0.06979000
v 0.11605700 0.02972600 0.04807200
v -0.20889600 -0.15827500 0.08652800
v -0.05679177 -0.34072834 0.12588145
v -0.06043280 -0.34092394 0.12507461
v -0.05349401 -0.34291138 0.12285196
v 0.20521363 -0.10114461 -0.06054085
v -0.05295919 0.25829434 0.12117985
v 0.00000000 -0.38438300 0.00000000
v -0.10053495 -0.35520018 -0.04700333
v 0.09553386 -0.05712378 0.17748963
v 0.13173998 -0.03916132 0.14345728
v 0.10578271 -0.04003662 0.16452161
v 0.00000000 -0.24480300 0.20889600
v 0.03970753 -0.27056777 0.19155285
v 0.03986487 -0.25961462 0.19598541
v 0.00000000 -0.03265600 0.18800100
v -0.05626201 -0.07251104 0.19596385
v 0.00000000 -0.07174800 0.20889600
v 0.17766483 -0.04357703 -0.06392046
v 0.20066323 -0.09094720 -0.06672343
v -0.08362943 0.00046648 0.14113227
v 0.05453837 0.33619887 0.11819526
v -0.07554380 -0.20500934 -0.20481786
v -0.11637471 -0.20768057 -0.18754789
v -0.12031628 0.21349948 -0.04134681
v 0.12561900 0.25138700 0.00000000
v -0.11733857 -0.33805503 0.11028963
v -0.07862911 -0.33939926 0.12110151
v -0.12012772 -0.33518563 0.11543515
v -0.06904932 -0.36439839 0.06935744
v -0.06914705 -0.36437870 0.06924236
v 0.11899238 -0.06424391 0.16510153
v 0.10535995 -0.09376780 0.18287227
v 0.13285242 -0.09456712 0.16618907
v 0.11357202 -0.11351714 0.18408261
v -0.06983887 -0.09106384 -0.20056090
v -0.06522974 -0.07456563 -0.19389179
v -0.10376717 -0.10307158 0.18767428
v -0.07827847 -0.09400785 0.19596697
v -0.07811532 -0.27937696 -0.18334400
v 0.08652700 -0.15827500 -0.20889600
v 0.06800332 -0.21234399 -0.20765827
v 0.07938163 0.20421670 0.10756459
v 0.05480327 0.18068433 0.11491106
v 0.08892132 0.18597837 0.10441900
v 0.07193386 0.15155564 0.10930139
v 0.06701805 0.33454071 -0.11482281
v 0.00000000 0.29571900 -0.12561900
v 0.12155613 -0.20660275 -0.18437148
v 0.10975520 -0.30211660 -0.16138033
v 0.14406508 -0.31358196 -0.13543529
v -0.15594155 -0.28941527 0.14926470
v -0.15408051 -0.28697407 0.15145743
v -0.08636444 -0.04717079 0.17426590
v -0.07714231 -0.07547731 0.19186498
v -0.05214286 -0.03562216 0.17741880
v -0.10852996 0.07385525 -0.07727716
v -0.09159136 0.08046038 -0.08118745
v -0.08882600 0.02972600 -0.08882600
v 0.19460624 -0.25857866 0.06997580
v 0.16624448 -0.30641114 0.04122308
v 0.17008508 -0.30052043 0.04672551
v 0.16326068 -0.30869115 0.04820048
v -0.11413716 -0.34173802 -0.09235030
v -0.12703835 -0.33918678 -0.05978659
v 0.16927614 -0.19760873 -0.14107903
v 0.18977978 -0.20156608 -0.11371575
v 0.12106429 0.26092114 -0.05292328
v 0.10844294 0.20905310 -0.06763521
v 0.11997763 0.21066938 -0.04248044
v -0.13851627 -0.23044640 0.17057152
v 0.06979000 0.02972600 0.10444800
v -0.11216489 0.08233818 -0.06027772
v -0.11016852 0.08355805 -0.06610256
v -0.17137934 -0.24824089 -0.13641987
v 0.09866624 0.20256550 0.10214324
v -0.17233518 -0.02926117 -0.05922376
v -0.06020021 0.08465285 0.10943845
v -0.15292991 -0.31908608 -0.05047432
v -0.17736267 -0.03984646 0.05871985
v -0.19668359 -0.07100897 0.05557454
v 0.08893871 0.12600542 -0.09456618
v 0.06511338 0.14916744 -0.11231623
v 0.09156724 0.17492218 -0.10215334
v 0.04411100 -0.15827500 -0.22176300
v -0.12205549 -0.21329026 -0.18415228
v 0.05892562 -0.36826742 -0.05483047
v 0.12561900 0.20705500 -0.00000000
v 0.04949095 -0.09973327 -0.20696535
v -0.06726598 -0.02745701 -0.16800911
v -0.09742036 0.10959169 0.08592348
v -0.10378204 0.11966166 0.07354338
v -0.10444800 0.38438300 -0.06979000
v 0.09816077 0.18988832 -0.10198162
v 0.05884511 0.21032481 -0.11829561
v 0.07552216 0.22507077 -0.11638016
v -0.10436648 0.33234192 -0.08432365
v -0.08765063 0.33568130 -0.10331265
v -0.18090530 -0.04330794 -0.05486742
v 0.21290688 -0.11667333 -0.03929963
v -0.10082741 -0.07274913 0.18140835
v -0.21219537 -0.12076343 0.04799889
v -0.07155701 -0.36470523 -0.05609801
v 0.15410197 -0.31258863 -0.10653343
v 0.08936443 -0.29188266 0.17218955
v 0.07203486 -0.04959219 -0.18168348
v 0.07123401 -0.05398362 -0.18439133
v 0.10986863 0.07291574 0.07971204
v -0.03851327 0.17338077 -0.11905063
v -0.07641177 0.18634471 -0.10927786
v 0.06508990 -0.36308250 0.07546042
v -0.19882388 -0.24548430 -0.04968148
v -0.11527797 0.13237441 0.03692246
v 0.12320500 0.02972600 -0.02450700
v 0.09976886 0.22504240 -0.10145698
v -0.13355219 -0.09455850 0.16403930
v -0.13298204 -0.07622689 0.15832387
v -0.10984064 -0.07771625 0.17497789
v 0.08652800 -0.36717200 0.00000000
v 0.13153141 -0.28464580 0.16135586
v 0.10514250 0.08484257 0.08741303
v 0.05032977 0.09576276 0.11291204
v 0.10230099 -0.35426851 -0.06141711
v 0.09680698 -0.35639196 -0.05868685
v -0.12444221 -0.03472962 -0.14586696
v 0.05463141 0.27400309 -0.12137318
v -0.17108131 -0.24851423 -0.13686775
v -0.17084586 -0.24813746 -0.13714526
v 0.05373473 0.27973785 -0.12090211
v -0.17143363 -0.24901881 -0.13578246
v -0.16214292 -0.01651434 0.06410996
v -0.06460148 0.21838305 -0.11469712
v -0.09668055 0.20341083 -0.10573528
v -0.06902456 -0.36444013 0.06919827
v 0.08049581 -0.30690486 0.16112841
v 0.10371596 -0.30895876 0.15534136
v -0.06178907 -0.09473345 0.20316143
v -0.04887452 0.22104818 -0.11928190
v -0.11605700 0.02972600 -0.04807200
v -0.19877745 -0.09451796 -0.07821436
v -0.19981805 -0.25390099 0.04168921
v -0.19329907 -0.26452476 0.04170618
v 0.09722230 -0.11601553 0.19263673
v 0.14926557 -0.27838643 0.15776944
v 0.05973860 -0.09539131 0.20412020
v 0.06063064 -0.09797269 0.20436123
v 0.10799092 0.22158365 0.08132135
v 0.10856332 0.14145987 0.07093673
v -0.11357951 0.06811431 0.05519425
v -0.11210494 0.06692993 0.06436552
v -0.10942371 0.08088528 0.06427685
v 0.12240202 0.32136431 -0.05341565
v -0.11593665 0.11118127 0.04285379
v -0.11287333 0.12648832 0.04847076
v -0.18669095 -0.10763935 0.10591735
v -0.20586413 -0.11639285 0.06592617
v 0.09656296 -0.01644876 -0.15352973
v 0.12645888 -0.04133194 -0.14905918
v 0.12563370 -0.06806593 -0.16358472
v 0.12847789 -0.07338513 -0.16379463
v 0.15743675 -0.11702123 -0.14841074
v 0.06195574 0.09757174 -0.11337302
v 0.04959789 -0.27099528 0.19051272
v -0.11084293 -0.26428481 0.18249383
v 0.07380665 -0.34201296 0.12054999
v 0.17149350 -0.11379810 0.13074813
v 0.14644039 -0.11621981 0.15819688
v 0.06198866 0.08274034 -0.11293193
v 0.09259066 0.10809453 -0.09140877
v 0.07810071 -0.00575584 0.15015069
v 0.04978406 -0.03620801 0.17817456
v -0.06950246 -0.36418419 0.06965062
v 0.04966517 -0.34192874 -0.12509726
v 0.13482399 -0.21672510 0.17455172
v 0.11415259 -0.26341376 0.18111307
v 0.17532882 -0.06293320 -0.10391253
v -0.09550791 -0.26649231 0.18595212
v -0.06086335 -0.26496523 0.19215286
v 0.07967648 -0.24564986 0.19423072
v 0.09778692 0.06886513 0.09247375
v 0.05760942 -0.36586610 0.07221181
v 0.10053520 0.26799936 0.10416887
v -0.17090884 -0.25030811 -0.13607805
v -0.16893547 -0.29320806 -0.11252752
v 0.04533924 -0.34626801 -0.11889427
v -0.11573138 -0.00813355 0.13246878
v -0.13622881 -0.32536572 -0.10979641
v -0.05531170 0.33859100 0.11871227
v 0.10463126 -0.35368551 -0.05683179
v 0.04927995 0.20703436 0.11813212
v -0.17182281 -0.29697171 0.06617762
v -0.15412215 -0.31635084 0.05825547
v -0.18230229 -0.26516050 0.10787923
v -0.11837299 0.06661565 -0.06884080
v -0.10444800 0.02972600 -0.06979000
v -0.07731222 -0.08686828 -0.19606876
v -0.12374743 -0.09690613 -0.17131978
v -0.10611200 -0.05747959 -0.17302787
v 0.19722548 -0.20528778 0.09846747
v -0.07175078 -0.20781240 0.20499641
v -0.05156307 -0.22139309 0.20862598
v -0.04401898 -0.20440250 0.21316009
v 0.10084098 0.21607407 0.10198502
v -0.19752541 -0.07055676 0.05231226
v -0.13860436 -0.32947661 0.06880083
v -0.14903587 -0.32241402 0.04419845
v -0.14329838 -0.32795998 0.04705127
v 0.18544138 -0.25691294 -0.10324502
v 0.19234838 -0.24520165 -0.09182697
v 0.10730517 -0.35084250 0.05111328
v 0.12110052 0.34401685 -0.05498130
v 0.12278571 0.33798658 -0.05238370
v 0.20479149 -0.09123555 0.05331348
v 0.18582858 -0.05397782 0.06438221
v 0.04623438 -0.03517382 0.17868656
v 0.11919744 0.07187778 -0.04714738
v -0.05870096 0.23459825 -0.11744862
v 0.10238971 0.18164382 -0.09278318
v -0.15948827 -0.30155685 -0.12096664
v -0.11677016 -0.32605908 0.12929440
v -0.08149008 0.34784462 0.10882072
v 0.16693833 -0.21776967 0.14415099
v -0.15299731 -0.00376088 -0.06030087
v -0.13494080 0.00160299 -0.09448032
v -0.07504794 -0.09805133 -0.19976904
v 0.09839022 -0.34764618 0.09998667
v 0.19915910 -0.24098814 -0.07526943
v 0.20611178 -0.23127261 -0.04496877
v 0.18974725 -0.26421440 -0.07274696
v 0.18898674 -0.27402226 -0.03826548
v -0.06990081 -0.04271928 -0.17713456
v 0.05426580 -0.33522165 0.13270510
v -0.06002570 0.38568191 -0.06161207
v -0.05619781 0.38543248 -0.05090006
v 0.10245255 0.16999169 -0.08935252
v 0.10170400 0.11953477 -0.07940779
v 0.08659910 -0.05852555 -0.17863509
v -0.19840395 -0.07235316 0.05214450
v 0.03643163 -0.21328935 0.21276098
v -0.09915810 0.31096666 -0.09895206
v -0.07799589 0.28322493 -0.11444389
v 0.11847795 0.19234527 -0.04493527
v -0.13194427 -0.25366590 -0.17083929
v -0.06888346 -0.36441457 0.06937493
v 0.04866091 0.09639926 0.11357762
v -0.10030441 -0.35589169 0.04036131
v -0.10128375 -0.35501231 0.04407921
v -0.09966694 -0.35624828 0.03992466
v 0.11992146 0.17913429 0.03279423
v 0.11865691 0.15148321 0.02702327
v -0.17979107 -0.20716408 -0.12710658
v -0.12891032 -0.22088286 0.17791095
v -0.09756409 -0.03491006 -0.16460380
v 0.07845911 -0.29962018 -0.16823288
v -0.14046952 -0.25057891 -0.16808519
v -0.14440132 -0.24418145 -0.16463277
v -0.09861964 -0.35111598 -0.08484917
v 0.18116533 -0.05626773 0.07573742
v 0.05761897 -0.09649810 0.20526481
v -0.20604305 -0.20918139 0.07485747
v -0.19359444 -0.20926732 0.10037963
v 0.10615082 0.20439276 0.08608056
v -0.06841351 -0.33980768 -0.12242760
v -0.04371388 -0.33763624 -0.12657281
v -0.04753018 -0.35389989 -0.10388338
v 0.18004280 -0.21054271 0.12551580
v 0.12177759 0.27514640 -0.04803809
v 0.20454735 -0.09187926 0.05437649
v -0.12891208 0.02005660 -0.09762636
v -0.12976519 -0.00016524 -0.11036830
v -0.12458819 -0.33718732 0.10166105
v -0.10245112 0.06924623 0.09533402
v -0.07105508 0.33785722 0.11546902
v -0.11577711 0.15298552 -0.04774574
v -0.12814321 -0.02742361 -0.13682958
v 0.08253300 -0.10863887 -0.19787411
v 0.07496470 0.22703861 0.10964128
v 0.08268289 0.27176039 0.10929728
v -0.12159987 0.27968570 -0.05349132
v -0.04688020 -0.25902968 0.19645341
v -0.17051361 -0.29548435 -0.09448103
v -0.17728820 -0.29253335 0.03181630
v 0.04461536 0.26275458 0.12223757
v -0.19910035 -0.25355508 0.05190819
v -0.20400433 -0.24208799 0.03927419
v 0.20889600 -0.15827500 0.08652800
v 0.13896061 -0.20269640 -0.17198932
v -0.19992190 -0.07756722 0.05239998
v -0.11651973 0.02291530 -0.11434422
v -0.10271652 0.14284568 -0.07147247
v -0.16372721 -0.02857293 -0.08382989
v 0.12599489 -0.19342812 -0.18239078
v -0.04404511 0.27580951 -0.12205106
v 0.16711659 -0.30430419 0.05699523
v -0.11144110 -0.28112538 -0.17469621
v -0.10069981 0.18370161 -0.10124767
v 0.05491341 0.33481224 0.11809172
v -0.15780792 -0.30869950 -0.10083206
v -0.13606336 -0.31879513 -0.13373999
v -0.13691258 0.02532484 -0.07868973
v 0.15995312 -0.09125117 0.13796400
v 0.18043523 -0.08302316 0.10756408
v -0.11848848 0.05704393 0.06256197
v -0.19154680 -0.08975041 -0.08961428
v -0.19937916 -0.10380196 -0.08136146
v -0.10900486 0.17671193 -0.07703692
v 0.12643149 -0.25792147 -0.17731616
v -0.17373060 -0.20015135 -0.13732219
v 0.13813598 -0.03641772 0.13749853
v -0.06665523 0.31888245 -0.11758744
v -0.17891847 -0.21507121 0.12942949
v 0.06900504 -0.05619840 -0.18584199
v -0.09842844 0.11796431 -0.09352117
v -0.13764098 -0.29288954 -0.15922724
v -0.17714947 -0.28659445 0.07787088
v -0.18594406 -0.25959999 0.10532319
v -0.17115246 -0.24811456 -0.13678926
v 0.12796262 -0.06195634 -0.15694837
v -0.17412385 -0.04651825 -0.07850411
v -0.17967127 -0.04518929 -0.06369760
v -0.17542525 -0.05903045 -0.09935380
v -0.14053917 -0.25419750 -0.16651328
v 0.11585238 0.16731170 -0.04628431
v 0.10782972 0.14749013 0.07426458
v -0.20330917 -0.23280090 0.05643711
v -0.18338813 -0.10807774 0.11386058
v 0.19193694 -0.25592470 -0.08836574
v -0.21011909 -0.19829547 0.06355949
v -0.11930539 0.25572441 0.06036557
v -0.20189561 -0.10561972 -0.07645199
v 0.05187288 -0.36318852 -0.07977920
v -0.05199132 -0.36044865 -0.08552260
v 0.08004231 0.06865867 0.10458400
v 0.04919035 0.09612073 0.11352806
v 0.14936378 -0.07068993 0.14321843
v 0.04639066 0.00101701 -0.15311631
v -0.12918056 -0.03591922 -0.14394640
v 0.05343033 0.33632867 0.11840748
v -0.12037000 0.21880045 0.04895719
v -0.18958882 -0.24772048 0.10224649
v 0.18605972 -0.06073967 0.06941588
v 0.17792738 -0.27906843 -0.08460247
v 0.11998078 -0.08019854 -0.17094877
v 0.18029029 -0.28630337 -0.05770710
v 0.11324449 0.09302753 0.04871360
v 0.11386204 -0.25226405 -0.18344870
v -0.15840525 -0.03770987 -0.11438315
v -0.11580721 0.17957062 0.05850008
v -0.10604889 0.14421568 0.07543037
v -0.13451130 -0.09862258 -0.16559421
v 0.11268150 -0.34788023 -0.05727884
v 0.05397512 0.33523458 0.11829973
v -0.16506196 -0.20406937 -0.14714617
v 0.07115906 -0.05597489 -0.18497208
v 0.09636996 -0.11023556 -0.19327130
v -0.16611323 -0.20397851 0.14585143
v 0.17276569 -0.29674591 -0.03858551
v -0.12128701 0.22206445 -0.04142323
v 0.10908815 0.14502334 0.06995263
v 0.18999913 -0.10614522 0.10050942
v -0.07965421 -0.35087739 -0.09950936
v 0.05409619 0.33241666 0.11825295
v 0.11733190 0.19571059 0.04926607
v 0.09491514 -0.35459752 -0.06690040
v -0.09949035 -0.35623036 0.04037046
v 0.10460873 -0.11200806 -0.18820359
v 0.11947377 0.21720357 0.04382986
f 1 2 3
f 10 11 4
f 16 17 18
f 19 20 21
f 22 23 24
f 26 27 28
f 27 29 28
f 30 31 32
f 34 35 33
f 37 38 39
f 40 41 42
f 43 45 44
f 46 47 48
f 49 50 51
f 55 56 57
f 58 59 60
f 61 62 63
f 62 64 63
f 65 66 67
f 68 69 70
f 55 66 56
f 66 73 56
f 74 75 76
f 82 60 83
f 84 85 86
f 49 87 50
f 49 94 95
f 96 97 98
f 97 99 98
f 101 102 103
f 102 104 103
f 36 107 108
f 109 8 110
f 111 112 113
f 112 114 113
f 115 116 117
f 118 119 120
f 121 122 25
f 49 124 94
f 10 4 125
f 127 15 14
f 128 129 130
f 132 133 134
f 135 136 137
f 138 139 140
f 141 142 143
f 144 145 146
f 147 87 148
f 149 150 151
f 150 152 151
f 153 49 51
f 154 155 156
f 157 158 159
f 160 161 10
f 161 11 10
f 144 162 145
f 61 164 165
f 164 166 165
f 167 168 169
f 163 171 170
f 172 174 173
f 127 175 15
f 46 176 47
f 49 95 177
f 180 128 181
f 128 182 181
f 183 129 128
f 185 186 187
f 188 119 178
f 189 190 191
f 144 146 192
f 162 86 145
f 121 198 122
f 118 199 200
f 201 13 202
f 17 198 121
f 203 204 205
f 206 207 138
f 209 210 211
f 212 213 214
f 217 93 218
f 219 220 221
f 222 223 224
f 225 226 227
f 144 109 197
f 228 229 230
f 208 13 231
f 144 197 162
f 49 177 148
f 49 148 87
f 120 199 118
f 232 57 139
f 234 235 233
f 17 236 184
f 106 147 148
f 30 237 238
f 107 36 194
f 150 212 152
f 240 241 33
f 244 245 246
f 160 247 161
f 18 248 16
f 184 248 18
f 249 250 251
f 252 22 253
f 22 24 253
f 109 254 197
f 248 184 175
f 255 256 257
f 256 258 257
f 259 214 193
f 260 261 262
f 242 264 263
f 120 265 199
f 266 267 193
f 269 119 118
f 194 271 270
f 272 132 134
f 273 274 96
f 274 275 96
f 276 277 21
f 209 281 210
f 79 106 148
f 243 205 204
f 282 283 284
f 199 265 200
f 285 159 286
f 154 287 155
f 54 289 92
f 290 291 292
f 295 296 297
f 270 298 194
f 203 299 300
f 301 104 302
f 104 303 302
f 74 76 215
f 76 75 72
f 76 72 215
f 194 228 306
f 307 309 308
f 312 313 314
f 315 127 316
f 127 170 316
f 213 317 214
f 226 225 53
f 318 69 319
f 69 68 319
f 320 321 322
f 233 323 20
f 324 325 317
f 1 3 326
f 280 328 327
f 190 329 330
f 78 46 48
f 331 332 333
f 332 249 333
f 334 335 247
f 335 336 247
f 36 226 53
f 337 338 261
f 315 8 127
f 339 340 341
f 196 298 93
f 326 324 1
f 342 343 265
f 344 305 345
f 269 178 119
f 334 346 335
f 346 347 335
f 348 349 232
f 350 123 4
f 262 351 260
f 351 352 260
f 193 214 90
f 267 353 354
f 127 8 9
f 49 355 124
f 175 236 15
f 312 314 356
f 160 334 247
f 318 357 69
f 19 71 20
f 193 355 266
f 358 290 292
f 207 359 348
f 360 361 362
f 363 364 365
f 363 366 367
f 183 368 129
f 368 369 129
f 43 370 305
f 371 38 372
f 72 375 374
f 278 375 72
f 194 298 196
f 376 165 166
f 270 377 378
f 379 241 380
f 381 191 32
f 326 3 91
f 125 2 1
f 382 383 384
f 383 368 384
f 207 232 138
f 48 47 195
f 252 67 387
f 388 389 390
f 194 306 107
f 391 392 393
f 120 396 395
f 111 397 112
f 127 9 248
f 127 248 175
f 292 349 348
f 348 232 207
f 343 398 207
f 154 156 399
f 156 372 399
f 400 58 401
f 130 129 403
f 27 367 404
f 367 405 404
f 407 403 401
f 59 305 408
f 315 316 95
f 17 184 18
f 409 179 195
f 206 200 207
f 360 97 410
f 3 355 193
f 411 412 413
f 252 387 137
f 350 4 11
f 414 239 126
f 381 32 31
f 415 416 417
f 168 418 169
f 209 211 71
f 145 86 85
f 420 421 422
f 423 403 407
f 424 50 87
f 121 25 17
f 425 426 427
f 424 51 50
f 428 429 294
f 430 150 149
f 355 153 266
f 188 178 179
f 277 71 19
f 189 82 307
f 51 353 266
f 78 176 46
f 215 176 78
f 215 72 374
f 374 176 215
f 315 95 8
f 47 431 409
f 432 433 434
f 108 226 36
f 435 105 436
f 438 158 439
f 440 441 442
f 441 440 443
f 231 13 12
f 93 444 222
f 350 11 161
f 445 446 221
f 267 151 152
f 61 165 447
f 66 349 291
f 195 47 409
f 124 3 2
f 448 136 135
f 449 451 450
f 452 439 453
f 25 455 454
f 211 210 288
f 456 275 274
f 236 17 454
f 457 36 53
f 458 185 299
f 185 187 299
f 155 287 459
f 287 460 459
f 461 370 43
f 96 275 410
f 65 67 462
f 67 253 462
f 235 463 233
f 464 258 465
f 466 405 467
f 380 468 469
f 257 258 464
f 5 470 471
f 472 473 143
f 116 340 77
f 180 282 284
f 191 330 32
f 171 79 148
f 170 14 163
f 14 170 127
f 219 475 476
f 178 118 200
f 477 345 478
f 241 468 380
f 270 271 377
f 479 363 480
f 363 365 480
f 33 313 34
f 128 130 182
f 191 190 330
f 481 198 16
f 145 85 146
f 482 483 484
f 485 393 486
f 382 233 77
f 487 488 268
f 184 236 175
f 369 339 341
f 34 443 35
f 320 149 151
f 236 23 15
f 489 490 491
f 15 23 14
f 80 480 5
f 493 494 495
f 323 496 20
f 135 137 497
f 498 394 449
f 52 6 84
f 259 193 152
f 382 323 233
f 88 499 89
f 282 181 81
f 90 3 193
f 124 355 3
f 91 3 90
f 500 501 502
f 21 496 5
f 504 505 503
f 506 507 508
f 119 188 388
f 384 509 510
f 509 284 510
f 409 511 179
f 438 286 159
f 87 512 424
f 270 378 513
f 378 514 513
f 7 254 123
f 123 254 4
f 4 254 125
f 67 252 253
f 220 219 515
f 93 217 444
f 517 518 519
f 451 520 521
f 511 188 179
f 128 180 183
f 180 509 183
f 328 280 279
f 522 523 524
f 523 525 524
f 526 527 223
f 177 171 148
f 474 171 163
f 171 474 79
f 528 131 529
f 530 377 271
f 532 230 531
f 533 534 535
f 534 536 535
f 506 396 120
f 537 538 84
f 539 531 117
f 459 540 541
f 124 254 94
f 197 254 162
f 94 254 109
f 162 254 7
f 243 204 300
f 262 542 543
f 544 545 546
f 545 507 546
f 547 548 549
f 550 210 281
f 551 552 553
f 361 360 281
f 360 550 281
f 2 254 124
f 6 162 7
f 532 306 228
f 421 554 555
f 467 405 490
f 490 405 367
f 95 316 177
f 556 77 557
f 347 558 559
f 558 560 559
f 86 52 84
f 561 352 351
f 562 395 466
f 563 564 435
f 114 112 565
f 533 535 566
f 325 326 214
f 567 278 72
f 138 568 206
f 259 212 214
f 555 569 421
f 255 570 256
f 570 571 256
f 572 573 574
f 381 573 191
f 373 222 575
f 514 378 576
f 402 577 394
f 560 516 578
f 373 93 222
f 222 579 575
f 478 345 580
f 581 140 582
f 61 63 164
f 584 585 586
f 203 300 204
f 189 307 549
f 189 549 548
f 17 16 198
f 198 481 583
f 587 192 588
f 213 150 516
f 66 55 349
f 343 207 200
f 57 232 55
f 232 349 55
f 415 449 416
f 209 277 281
f 209 71 277
f 589 294 278
f 318 187 186
f 590 21 20
f 151 321 320
f 591 528 545
f 528 529 545
f 592 12 492
f 89 593 437
f 371 594 157
f 594 158 157
f 140 139 57
f 293 208 231
f 531 230 575
f 574 31 584
f 31 585 584
f 595 392 391
f 359 536 348
f 596 597 44
f 598 490 489
f 31 30 585
f 599 330 600
f 317 325 214
f 455 25 385
f 417 601 414
f 449 417 126
f 126 417 414
f 560 558 516
f 602 397 328
f 397 111 328
f 105 603 216
f 196 228 194
f 605 347 559
f 363 367 364
f 189 548 190
f 606 528 607
f 528 608 607
f 575 229 196
f 595 391 610
f 394 416 449
f 449 450 437
f 282 81 80
f 36 271 194
f 256 571 332
f 244 246 611
f 246 612 611
f 574 573 31
f 154 613 614
f 585 336 586
f 477 478 615
f 616 238 538
f 617 618 296
f 161 247 537
f 247 619 537
f 552 551 288
f 620 113 565
f 113 114 565
f 267 354 151
f 354 321 151
f 344 82 83
f 276 21 5
f 389 465 390
f 544 546 119
f 406 427 131
f 621 375 570
f 622 600 623
f 624 437 451
f 379 380 469
f 625 626 391
f 627 529 131
f 590 496 21
f 301 457 53
f 30 599 628
f 240 468 241
f 616 538 619
f 357 262 338
f 262 261 338
f 91 214 326
f 90 214 91
f 235 234 71
f 630 429 428
f 515 172 220
f 624 89 437
f 491 366 363
f 280 632 631
f 633 240 33
f 81 181 483
f 81 483 604
f 604 483 482
f 111 113 328
f 318 186 542
f 599 600 628
f 600 622 628
f 621 570 255
f 362 634 360
f 634 97 360
f 515 216 172
f 635 636 523
f 636 525 523
f 149 637 430
f 300 518 494
f 102 303 104
f 244 638 245
f 189 60 82
f 189 191 60
f 639 640 641
f 346 642 213
f 160 346 334
f 160 10 346
f 10 642 346
f 643 582 644
f 150 430 516
f 96 410 97
f 645 646 492
f 385 220 172
f 647 648 649
f 603 643 644
f 341 340 650
f 340 651 650
f 573 652 191
f 609 416 394
f 443 442 419
f 653 486 392
f 486 393 392
f 185 654 351
f 654 561 351
f 232 139 138
f 625 655 626
f 655 273 626
f 656 657 442
f 546 120 119
f 191 652 658
f 504 653 505
f 5 480 470
f 573 572 652
f 191 658 60
f 58 658 401
f 60 658 58
f 659 658 572
f 658 652 572
f 660 395 661
f 395 396 661
f 662 518 517
f 196 373 575
f 213 642 317
f 663 53 225
f 32 599 30
f 99 664 665
f 546 507 506
f 509 666 183
f 550 360 410
f 425 667 668
f 669 392 595
f 611 612 670
f 54 301 53
f 354 424 321
f 300 494 493
f 343 342 562
f 343 200 265
f 671 417 416
f 497 291 290
f 149 320 672
f 620 673 113
f 673 674 113
f 612 246 359
f 348 536 534
f 635 500 661
f 663 675 54
f 389 676 465
f 676 464 465
f 487 268 100
f 677 554 421
f 678 448 474
f 544 119 390
f 119 388 390
f 609 679 37
f 348 534 680
f 504 503 242
f 70 681 682
f 265 395 342
f 357 338 69
f 338 683 69
f 484 130 407
f 628 237 30
f 229 228 196
f 602 201 397
f 629 684 685
f 405 466 404
f 240 508 468
f 686 687 688
f 687 63 688
f 689 281 277
f 690 691 692
f 637 149 693
f 149 672 693
f 278 694 570
f 255 257 621
f 682 695 70
f 695 68 70
f 131 528 406
f 390 607 608
f 411 609 37
f 626 610 391
f 138 140 568
f 140 581 568
f 682 696 697
f 225 227 663
f 227 460 663
f 282 180 181
f 285 557 698
f 557 699 698
f 411 413 700
f 587 583 192
f 664 356 665
f 382 496 323
f 291 349 292
f 5 471 276
f 10 701 702
f 703 470 704
f 470 480 704
f 705 661 396
f 200 206 568
f 544 390 545
f 404 466 501
f 466 660 501
f 493 243 300
f 201 279 13
f 208 202 13
f 602 279 201
f 706 604 482
f 622 707 237
f 537 84 6
f 320 322 672
f 574 584 708
f 709 674 673
f 300 299 518
f 299 710 518
f 685 684 549
f 476 475 623
f 14 711 163
f 112 397 310
f 532 228 230
f 230 229 575
f 567 589 278
f 407 130 423
f 164 100 268
f 634 712 441
f 511 388 188
f 689 361 281
f 312 356 34
f 567 713 714
f 498 449 437
f 88 697 304
f 417 671 601
f 325 324 326
f 100 715 218
f 609 577 614
f 625 391 393
f 502 501 660
f 601 700 716
f 700 413 716
f 686 715 687
f 100 687 715
f 490 366 491
f 99 610 98
f 610 626 98
f 483 182 484
f 242 486 504
f 717 718 719
f 718 720 719
f 507 627 508
f 686 527 526
f 394 577 609
f 252 137 22
f 137 136 22
f 328 422 327
f 527 721 370
f 318 542 357
f 655 722 414
f 414 601 655
f 601 716 655
f 723 724 144
f 247 616 619
f 706 169 604
f 574 725 572
f 725 726 572
f 596 727 597
f 570 375 278
f 294 728 278
f 505 729 503
f 533 680 534
f 455 385 462
f 730 731 446
f 342 395 562
f 708 584 732
f 584 559 732
f 377 733 378
f 331 333 607
f 505 314 729
f 314 313 729
f 734 449 126
f 182 130 484
f 181 182 483
f 207 398 735
f 697 736 695
f 736 737 695
f 738 736 88
f 521 662 736
f 662 737 736
f 659 572 726
f 568 179 178
f 736 697 88
f 739 740 142
f 741 565 112
f 438 159 158
f 591 390 528
f 390 608 528
f 173 385 172
f 548 547 564
f 545 627 507
f 305 370 580
f 408 60 59
f 490 367 366
f 251 742 406
f 460 227 459
f 663 54 53
f 607 390 465
f 688 743 721
f 688 64 743
f 288 720 211
f 540 744 434
f 576 745 488
f 745 746 488
f 593 499 747
f 5 496 510
f 697 696 304
f 26 28 365
f 28 748 365
f 635 661 749
f 661 705 749
f 705 396 506
f 302 271 36
f 750 751 492
f 637 693 752
f 753 754 755
f 712 756 442
f 79 448 106
f 742 427 406
f 516 558 757
f 703 758 276
f 304 327 569
f 509 180 284
f 343 735 398
f 683 70 69
f 448 79 474
f 714 759 760
f 319 68 761
f 568 762 179
f 469 627 131
f 368 183 666
f 666 384 368
f 384 666 509
f 763 22 136
f 749 240 635
f 531 539 532
f 425 427 742
f 211 720 718
f 581 762 568
f 216 515 764
f 400 401 403
f 541 158 594
f 528 606 406
f 489 491 167
f 308 765 760
f 397 201 202
f 508 240 749
f 705 506 508
f 749 705 508
f 218 715 217
f 336 335 586
f 766 575 579
f 607 465 331
f 465 258 331
f 288 210 552
f 358 767 768
f 769 122 445
f 333 249 251
f 662 761 737
f 530 302 303
f 353 267 266
f 514 576 487
f 109 110 94
f 71 234 20
f 770 264 503
f 44 224 43
f 555 554 499
f 554 747 499
f 771 422 328
f 738 88 89
f 304 772 280
f 374 621 176
f 358 773 290
f 80 479 480
f 81 479 80
f 170 171 316
f 19 21 277
f 226 744 227
f 432 434 108
f 434 744 108
f 763 678 474
f 752 693 566
f 312 34 313
f 631 774 775
f 276 776 277
f 368 339 369
f 450 451 437
f 777 117 116
f 778 294 293
f 408 83 60
f 556 777 116
f 537 619 538
f 549 779 759
f 631 279 280
f 764 105 216
f 764 780 436
f 781 567 714
f 477 308 345
f 308 309 345
f 307 779 549
f 657 525 419
f 263 243 242
f 562 466 467
f 640 762 641
f 762 581 641
f 777 782 117
f 632 772 681
f 51 424 354
f 155 459 541
f 238 237 783
f 691 503 379
f 784 553 552
f 458 205 668
f 205 263 668
f 290 773 135
f 324 702 701
f 403 647 400
f 771 328 674
f 328 113 674
f 419 442 657
f 530 785 377
f 488 487 576
f 741 112 310
f 741 310 311
f 623 600 786
f 335 584 586
f 347 605 335
f 335 605 584
f 238 336 585
f 585 30 238
f 297 746 745
f 383 340 368
f 424 787 321
f 787 322 321
f 132 482 484
f 211 718 71
f 677 788 789
f 788 709 789
f 788 674 709
f 677 421 788
f 629 685 790
f 28 791 792
f 791 656 792
f 202 310 397
f 656 791 657
f 386 656 442
f 409 676 511
f 550 410 784
f 640 793 48
f 596 400 647
f 473 167 169
f 354 353 51
f 794 376 795
f 780 764 796
f 305 83 408
f 371 372 594
f 174 172 216
f 794 795 630
f 632 280 772
f 784 275 553
f 275 456 553
f 411 700 609
f 789 102 101
f 345 309 344
f 213 212 150
f 539 777 797
f 311 798 741
f 473 169 143
f 624 738 89
f 799 27 404
f 783 237 41
f 237 707 41
f 707 446 41
f 731 41 446
f 800 85 42
f 731 800 41
f 800 42 41
f 610 99 595
f 99 665 595
f 580 370 721
f 686 688 527
f 688 721 527
f 764 436 105
f 370 461 527
f 461 223 527
f 331 258 332
f 256 332 258
f 464 47 257
f 47 176 257
f 47 464 431
f 799 404 501
f 801 337 260
f 337 261 260
f 533 767 680
f 767 358 680
f 130 403 423
f 766 579 802
f 8 724 9
f 9 724 248
f 144 724 109
f 109 724 8
f 248 724 481
f 16 248 481
f 481 724 583
f 202 208 310
f 425 668 426
f 668 770 426
f 264 242 503
f 355 49 153
f 132 407 133
f 545 529 627
f 468 627 469
f 508 627 468
f 663 289 675
f 486 242 243
f 623 475 622
f 796 764 219
f 764 515 219
f 677 789 554
f 789 101 554
f 103 747 554
f 554 101 103
f 435 564 684
f 803 190 564
f 190 548 564
f 324 317 702
f 442 443 440
f 386 689 776
f 235 718 717
f 757 346 213
f 74 435 75
f 75 435 629
f 563 435 436
f 105 435 74
f 455 462 253
f 789 709 804
f 774 805 806
f 670 598 611
f 33 35 419
f 617 807 618
f 533 566 693
f 649 808 341
f 540 459 744
f 459 227 744
f 809 447 810
f 447 811 810
f 789 804 102
f 530 303 785
f 785 303 804
f 303 102 804
f 26 365 364
f 416 700 601
f 812 804 297
f 804 295 297
f 316 171 177
f 564 436 803
f 436 780 803
f 757 213 516
f 1 701 125
f 411 37 412
f 669 595 356
f 595 665 356
f 651 340 116
f 346 558 347
f 686 526 715
f 217 715 526
f 374 375 621
f 809 567 447
f 567 781 447
f 141 813 142
f 813 732 142
f 799 29 27
f 132 484 407
f 814 752 566
f 535 814 566
f 535 536 814
f 536 245 814
f 161 537 350
f 631 632 774
f 774 815 775
f 808 129 341
f 129 369 341
f 442 441 712
f 604 169 418
f 332 816 249
f 117 782 539
f 351 262 543
f 717 719 817
f 14 23 711
f 805 774 681
f 774 632 681
f 696 772 304
f 778 571 728
f 142 740 143
f 461 43 224
f 670 562 467
f 589 810 428
f 810 630 428
f 142 732 578
f 67 66 497
f 66 291 497
f 67 497 387
f 387 497 137
f 514 100 218
f 382 77 383
f 120 395 265
f 500 502 660
f 661 500 660
f 338 337 806
f 70 683 805
f 683 806 805
f 683 338 806
f 818 750 492
f 819 173 73
f 108 744 226
f 568 178 200
f 479 81 363
f 426 770 691
f 310 820 795
f 712 362 756
f 362 361 756
f 352 561 742
f 421 420 788
f 420 674 788
f 713 75 629
f 713 72 75
f 72 713 567
f 455 253 24
f 454 23 236
f 23 454 24
f 454 455 24
f 762 195 179
f 78 48 793
f 505 653 314
f 301 302 457
f 275 784 410
f 821 577 402
f 631 775 279
f 503 691 770
f 346 757 558
f 40 238 783
f 419 35 443
f 672 322 768
f 549 759 685
f 42 85 538
f 167 491 168
f 822 92 402
f 377 785 733
f 562 823 824
f 65 462 73
f 462 819 73
f 662 520 518
f 520 494 518
f 612 824 670
f 824 823 670
f 612 359 824
f 231 12 293
f 80 283 282
f 329 786 330
f 786 600 330
f 761 695 737
f 361 689 756
f 584 605 559
f 522 524 825
f 402 394 498
f 295 673 296
f 43 826 45
f 599 32 330
f 704 480 365
f 780 796 329
f 796 786 329
f 827 765 615
f 61 447 62
f 477 615 308
f 615 765 308
f 307 308 779
f 793 639 78
f 582 641 581
f 92 822 755
f 555 499 88
f 643 603 105
f 263 205 243
f 263 770 668
f 780 329 803
f 190 803 329
f 273 98 626
f 615 64 827
f 670 823 562
f 776 276 758
f 471 703 276
f 471 470 703
f 444 223 222
f 442 756 386
f 767 693 768
f 693 672 768
f 68 695 761
f 359 246 536
f 246 245 536
f 639 74 215
f 639 215 78
f 311 166 268
f 700 416 609
f 546 506 120
f 793 640 639
f 379 692 691
f 617 565 807
f 99 97 634
f 664 443 356
f 443 34 356
f 448 828 147
f 491 363 168
f 168 363 81
f 630 795 820
f 777 539 782
f 609 614 679
f 613 679 614
f 681 772 682
f 772 696 682
f 458 668 667
f 474 163 711
f 818 492 12
f 269 118 178
f 669 314 392
f 314 653 392
f 367 27 364
f 26 364 27
f 157 159 698
f 383 77 340
f 368 340 339
f 155 541 156
f 541 594 156
f 606 607 333
f 115 651 116
f 650 651 115
f 40 538 238
f 795 311 310
f 776 689 277
f 386 756 689
f 8 95 110
f 273 655 716
f 40 783 41
f 829 462 385
f 707 622 446
f 622 475 446
f 221 446 219
f 446 475 219
f 492 751 250
f 250 751 801
f 830 806 337
f 830 337 751
f 337 801 751
f 453 540 433
f 540 434 433
f 453 541 540
f 633 525 240
f 525 636 240
f 662 517 761
f 695 682 697
f 441 443 664
f 233 20 234
f 792 758 831
f 28 792 748
f 792 831 748
f 703 704 758
f 704 831 758
f 748 831 704
f 365 748 704
f 235 717 463
f 832 698 817
f 59 826 305
f 185 351 543
f 549 684 547
f 308 760 759
f 755 54 92
f 39 553 412
f 786 476 623
f 796 219 476
f 476 786 796
f 237 628 622
f 602 328 279
f 518 710 519
f 482 132 706
f 272 143 169
f 706 132 272
f 706 272 169
f 659 134 658
f 134 133 658
f 658 133 407
f 658 407 401
f 499 593 89
f 74 643 105
f 74 639 643
f 643 639 582
f 639 641 582
f 195 762 640
f 640 48 195
f 224 579 222
f 44 802 224
f 224 802 579
f 815 774 830
f 774 806 830
f 280 327 304
f 327 422 569
f 422 421 569
f 318 319 187
f 319 710 187
f 203 205 299
f 457 302 36
f 135 497 290
f 580 345 305
f 344 83 305
f 156 594 372
f 176 621 257
f 556 557 286
f 557 285 286
f 70 805 681
f 271 302 530
f 727 649 833
f 71 718 235
f 592 646 778
f 293 592 778
f 571 778 332
f 778 645 332
f 592 293 12
f 332 645 816
f 778 646 645
f 39 412 37
f 795 376 311
f 447 165 794
f 165 376 794
f 22 711 23
f 834 719 720
f 371 157 832
f 157 698 832
f 371 832 834
f 832 719 834
f 832 817 719
f 565 741 807
f 741 798 807
f 447 794 811
f 794 630 811
f 635 523 500
f 244 611 835
f 835 611 167
f 611 598 167
f 598 489 167
f 495 239 243
f 451 734 520
f 126 495 734
f 723 583 724
f 263 264 770
f 154 399 679
f 154 679 613
f 388 511 389
f 511 676 389
f 660 466 395
f 458 299 205
f 358 768 773
f 452 453 433
f 432 306 433
f 306 836 433
f 452 433 439
f 729 241 379
f 267 152 193
f 412 456 413
f 456 274 413
f 781 837 447
f 781 714 837
f 714 760 837
f 429 630 820
f 28 29 825
f 829 173 462
f 173 819 462
f 173 56 73
f 65 73 66
f 670 490 598
f 196 93 373
f 173 174 838
f 838 56 173
f 174 216 603
f 644 838 603
f 838 174 603
f 839 56 838
f 140 57 839
f 57 56 839
f 644 582 838
f 582 839 838
f 839 582 140
f 403 129 647
f 129 648 647
f 425 742 654
f 742 561 654
f 425 654 667
f 25 454 17
f 416 601 671
f 732 560 578
f 559 560 732
f 153 51 266
f 259 152 212
f 286 439 777
f 439 797 777
f 433 797 439
f 314 669 356
f 840 687 100
f 100 164 840
f 63 840 164
f 687 840 63
f 557 233 463
f 841 38 37
f 135 842 448
f 424 842 787
f 319 519 710
f 488 746 843
f 745 576 733
f 576 378 733
f 812 745 733
f 143 740 638
f 688 63 64
f 273 716 274
f 635 240 636
f 510 284 5
f 54 675 289
f 207 735 359
f 802 844 766
f 844 845 766
f 778 728 294
f 766 531 575
f 10 702 642
f 596 647 727
f 647 649 727
f 129 808 648
f 808 649 648
f 463 717 557
f 717 699 557
f 28 825 791
f 524 657 825
f 657 791 825
f 825 29 522
f 29 501 522
f 500 522 501
f 424 512 842
f 556 116 77
f 308 759 779
f 319 761 519
f 761 517 519
f 711 763 474
f 285 698 159
f 438 439 286
f 241 729 313
f 729 379 503
f 495 494 734
f 494 520 734
f 289 663 460
f 92 821 402
f 98 273 96
f 441 664 634
f 664 99 634
f 596 44 45
f 699 717 817
f 533 693 767
f 513 218 93
f 513 514 218
f 812 733 804
f 733 785 804
f 313 33 241
f 846 352 251
f 352 846 260
f 801 260 846
f 801 846 250
f 250 846 251
f 495 126 239
f 488 843 268
f 678 763 136
f 22 763 711
f 841 399 38
f 399 372 38
f 37 679 841
f 399 841 679
f 371 834 38
f 834 847 38
f 38 847 39
f 39 847 288
f 834 720 847
f 847 720 288
f 633 33 525
f 769 385 25
f 769 25 122
f 848 220 385
f 769 848 385
f 848 221 220
f 445 221 769
f 221 848 769
f 168 81 418
f 604 418 81
f 238 616 336
f 247 336 616
f 812 297 745
f 297 618 746
f 618 843 746
f 268 166 164
f 44 597 844
f 597 727 844
f 307 344 309
f 344 307 82
f 638 740 849
f 740 739 849
f 836 797 433
f 306 532 836
f 532 539 836
f 539 797 836
f 88 569 555
f 123 350 537
f 537 7 123
f 537 6 7
f 620 296 673
f 618 297 296
f 409 431 676
f 431 464 676
f 699 817 698
f 557 77 233
f 146 588 192
f 629 435 684
f 759 790 685
f 790 759 713
f 759 714 713
f 815 830 750
f 751 750 830
f 775 13 279
f 775 815 13
f 333 251 406
f 333 406 606
f 680 358 292
f 818 12 13
f 750 818 815
f 13 815 818
f 758 792 850
f 659 726 134
f 642 702 317
f 526 223 217
f 448 842 828
f 593 747 822
f 747 851 822
f 620 565 296
f 851 747 103
f 39 551 553
f 305 826 43
f 596 45 400
f 45 826 400
f 727 833 844
f 833 845 844
f 670 467 490
f 829 385 173
f 680 292 348
f 5 284 80
f 376 166 311
f 294 589 428
f 429 208 293
f 429 293 294
f 520 662 521
f 563 436 564
f 288 551 39
f 341 650 649
f 617 296 565
f 590 20 496
f 787 842 852
f 768 322 852
f 322 787 852
f 773 768 852
f 135 773 852
f 852 842 135
f 485 486 243
f 426 691 427
f 691 690 427
f 692 379 469
f 547 684 564
f 853 739 578
f 381 31 573
f 473 835 167
f 143 638 472
f 591 545 390
f 657 524 525
f 419 525 33
f 500 523 522
f 162 6 52
f 162 52 86
f 799 501 29
f 562 824 343
f 816 492 250
f 250 249 816
f 743 64 478
f 64 615 478
f 478 580 743
f 580 721 743
f 274 716 413
f 400 826 58
f 58 826 59
f 208 820 310
f 429 820 208
f 1 324 701
f 251 352 742
f 382 384 510
f 382 510 496
f 92 289 821
f 690 692 131
f 690 131 427
f 692 469 131
f 739 142 578
f 849 739 853
f 125 701 10
f 44 844 802
f 210 550 552
f 550 784 552
f 456 412 553
f 447 837 62
f 62 837 765
f 837 760 765
f 62 765 827
f 827 64 62
f 268 798 311
f 854 614 821
f 614 577 821
f 821 289 854
f 460 287 289
f 154 614 854
f 154 854 287
f 854 289 287
f 304 569 88
f 571 570 694
f 694 728 571
f 694 278 728
f 147 828 87
f 448 147 106
f 828 512 87
f 512 828 842
f 542 262 357
f 185 543 186
f 650 833 649
f 243 493 495
f 734 451 449
f 186 543 542
f 709 673 804
f 673 295 804
f 158 541 439
f 541 453 439
f 845 117 531
f 766 845 531
f 587 198 583
f 730 445 587
f 445 122 587
f 198 587 122
f 800 588 85
f 146 85 588
f 730 588 731
f 588 800 731
f 730 587 588
f 445 730 446
f 712 634 362
f 798 843 807
f 843 618 807
f 268 843 798
f 141 272 726
f 272 134 726
f 143 272 141
f 655 625 722
f 625 393 722
f 393 485 722
f 485 243 239
f 722 485 239
f 239 414 722
f 402 498 437
f 451 521 855
f 521 736 855
f 451 855 624
f 855 738 624
f 855 736 738
f 458 667 654
f 458 654 185
f 80 284 283
f 771 674 422
f 674 420 422
f 856 845 833
f 117 845 856
f 117 856 115
f 833 650 856
f 650 115 856
f 40 42 538
f 298 270 513
f 514 487 100
f 513 93 298
f 244 835 472
f 835 473 472
f 244 472 638
f 593 822 402
f 593 402 437
f 822 851 755
f 755 754 54
f 754 301 54
f 104 753 103
f 753 851 103
f 755 851 753
f 753 104 754
f 104 301 754
f 574 708 725
f 725 141 726
f 444 217 223
f 556 286 777
f 192 723 144
f 583 723 192
f 638 849 245
f 814 245 849
f 814 849 752
f 849 853 752
f 857 853 578
f 857 430 637
f 637 752 857
f 752 853 857
f 857 578 516
f 857 516 430
f 592 492 646
f 492 816 645
f 735 824 359
f 735 343 824
f 110 95 94
f 2 125 254
f 708 732 725
f 732 813 725
f 725 813 141
f 589 567 810
f 811 630 810
f 809 810 567
f 792 656 850
f 758 850 776
f 850 656 386
f 776 850 386
f 84 538 85
f 790 713 629
f 653 504 486
f 678 136 448
f 187 710 299
f 224 223 461
f 415 417 449
f 432 107 306
f 432 108 107

