# https://github.com/mikedh/trimesh
v -0.08986200 -0.36299200 -0.11457100
v -0.14110238 -0.11465255 -0.01185575
v -0.14171766 -0.09181723 -0.00390159
v -0.13765506 -0.09649159 -0.02379755
v -0.02923094 -0.22619239 0.14518322
v -0.00704141 -0.22865206 0.14921148
v -0.01507062 -0.20347948 0.14794801
v 0.11046700 -0.31265900 -0.09563700
v -0.06981100 -0.36272000 -0.13174100
v -0.04123471 0.38834993 -0.05072241
v -0.01630434 0.39559431 -0.02995139
v -0.01093991 0.36370995 -0.03660550
v 0.14697615 -0.13123621 0.00875875
v 0.14731427 -0.14245219 0.01031204
v 0.14188837 -0.14139948 -0.00473538
v 0.04837389 0.23719979 0.10901843
v 0.01863774 0.22790047 0.09860449
v 0.04757687 0.20410373 0.11311875
v -0.12707200 -0.45230700 0.05224600
v -0.11273400 -0.45247600 0.08301400
v 0.07148241 -0.13623509 0.13463362
v 0.06000058 -0.14005268 0.14503848
v 0.09005325 -0.16671416 0.12103508
v 0.08754913 -0.16855857 0.12339349
v 0.14214100 -0.36074800 -0.03682800
v 0.14478300 -0.36085400 -0.01817700
v 0.12356300 -0.33984600 -0.08724400
v -0.01166342 -0.06204996 0.12530604
v -0.02089091 -0.09924691 0.12662536
v 0.01906938 -0.08966653 0.14806581
v -0.13198633 0.08024267 -0.07368633
v -0.13009058 0.10862571 -0.03796514
v -0.13323514 0.07947831 -0.03250834
v 0.10289725 0.45240400 0.08015475
v 0.04195067 0.08579783 -0.05200250
v 0.07234800 0.04453000 -0.04147900
v 0.04660200 0.04469200 -0.05887200
v -0.12945800 -0.36293200 0.05773700
v -0.13865245 -0.31588259 0.04625669
v -0.13658800 -0.36310600 0.03662600
v -0.12685400 0.04224300 0.00280100
v -0.13560900 0.04213600 -0.01719400
v -0.11427900 0.04241400 0.02100200
v -0.12600834 0.08374476 -0.00312470
v -0.00786116 0.30229967 -0.05293344
v 0.01346575 0.33150325 -0.00988650
v 0.01869400 0.29132700 -0.01765500
v -0.13904100 0.04211800 -0.03874600
v -0.11739368 0.09043502 0.01407808
v -0.12848642 0.11672006 -0.03957067
v -0.06325400 -0.15062850 0.10850250
v -0.02691896 -0.14245607 0.13164191
v -0.05941400 -0.11184600 0.10249200
v 0.12875150 -0.03438550 0.09253050
v 0.13777203 0.00069952 0.05772174
v 0.12933275 0.00427875 0.09320225
v 0.05839700 -0.44887500 -0.12916800
v 0.06582350 -0.44929300 -0.08412900
v 0.13258800 0.17947134 0.09671600
v 0.11918271 0.20833355 0.05785825
v 0.12025235 0.17963428 0.04968851
v -0.07970308 -0.31873741 -0.12929113
v -0.06034925 -0.32274615 -0.14263158
v -0.12998525 0.00388000 -0.07339225
v -0.13550003 -0.40877950 0.05139574
v -0.13361600 -0.45213900 0.02985400
v -0.11492523 0.27963809 -0.03761035
v -0.13984850 0.30316800 -0.07595600
v -0.08987212 0.29467876 -0.07622420
v -0.00056312 0.10560213 -0.08545313
v 0.03729933 0.12690367 -0.04513300
v 0.06355800 -0.35364900 -0.08242100
v 0.07940300 -0.36118800 -0.07554600
v 0.06654700 -0.36487700 -0.08674900
v -0.12615174 -0.23568826 0.07043556
v -0.12933300 -0.26657300 0.05563600
v -0.11454500 -0.26679600 0.08471100
v -0.08099426 -0.05731315 0.08019148
v -0.05557400 -0.07306350 0.09648150
v -0.05173400 -0.03428100 0.09047100
v -0.11416900 -0.36265300 0.08602000
v -0.10815283 -0.41289783 0.09917004
v -0.09514600 -0.36239600 0.10940400
v 0.14407600 -0.36115200 0.02615400
v 0.02689700 -0.35019600 -0.15120100
v 0.03155300 -0.33674900 -0.14799700
v -0.09581400 -0.26693400 0.10877600
v 0.06810600 -0.14830300 -0.09065950
v 0.07240700 -0.18690200 -0.09701700
v -0.06809960 -0.45582260 0.03163904
v 0.11727833 -0.02348967 -0.02726093
v 0.12063348 -0.02410459 -0.02442284
v 0.11997848 -0.02882978 -0.02634422
v 0.08963800 -0.29211500 -0.10922100
v 0.08225900 -0.27746300 -0.11149600
v -0.11921323 0.28017266 -0.02745803
v -0.11353686 0.27792839 -0.01818462
v -0.11551798 0.28538313 -0.02140904
v 0.10041487 0.34055082 0.03226723
v 0.09080964 0.33543430 0.00997666
v 0.09056781 0.37313186 0.02831866
v 0.08885335 0.37251042 0.02448579
v 0.06475500 -0.29619600 -0.12569700
v 0.07501600 -0.31505800 -0.10016700
v -0.05250283 -0.00824737 -0.12217817
v -0.05605088 0.00104691 -0.11956718
v -0.04260498 -0.00033979 -0.11869454
v 0.08764200 -0.36176300 0.12729100
v 0.00574000 -0.36173000 -0.15500300
v 0.00970107 -0.33181713 -0.15202028
v -0.04727600 -0.26697200 0.14050700
v -0.03822368 -0.32350206 0.14785734
v -0.01614200 -0.26696700 0.14897100
v 0.00473300 -0.45112300 0.00845800
v -0.01490400 -0.45145250 0.03808600
v -0.01058580 0.37028240 0.02642500
v -0.09123431 0.00197838 0.06171575
v -0.12338448 -0.00442574 0.03283668
v -0.09473412 -0.03190554 0.06610854
v -0.12233800 -0.31427500 -0.07273300
v -0.14202825 -0.30859632 -0.02406553
v -0.13371600 -0.26550500 -0.04863900
v -0.00836300 -0.26405500 -0.14205000
v 0.02588600 -0.26399700 -0.13659300
v -0.03051900 -0.36218500 -0.15097300
v -0.05501998 -0.40166591 -0.14023070
v -0.05494300 -0.36251500 -0.14104400
v 0.12162200 -0.45000300 0.08486300
v 0.13300900 -0.44973700 0.06281200
v 0.02509650 -0.45051300 -0.02240450
v -0.02623450 -0.45109300 -0.01169350
v 0.00823750 0.37167950 -0.00211800
v 0.13639256 -0.15597520 0.04970180
v 0.13563388 -0.16690935 0.05225818
v 0.13829841 -0.16918931 0.04543377
v 0.00655754 -0.45540298 -0.08441583
v 0.04546000 -0.44990300 -0.05326700
v 0.09520500 0.04428300 -0.02285900
v 0.00020800 -0.45172800 0.14941300
v -0.01544704 -0.45643568 0.11115668
v 0.03272100 -0.45134200 0.14586900
v 0.14524000 -0.26559800 0.01625600
v 0.14275300 -0.26531300 -0.00714500
v 0.13985200 0.04326300 0.06007500
v 0.13529200 0.04304400 0.08238200
v 0.13738336 0.01026498 0.05955634
v -0.07438700 -0.36221200 0.12694800
v -0.07410100 -0.40732700 0.12695900
v 0.04526980 -0.18327881 0.15352427
v 0.07756772 -0.17419357 0.13031766
v 0.04804512 -0.16744798 0.15214444
v -0.13291100 -0.36340600 -0.04708200
v -0.13937100 -0.36339100 -0.02201400
v -0.11970714 0.27241151 -0.02930472
v -0.11811103 0.27558398 -0.02411711
v -0.13305267 0.11816434 -0.07389767
v 0.13963200 -0.44949000 0.03948700
v -0.00947000 0.04311400 0.09761700
v -0.00977365 0.10214393 0.09617514
v -0.03987040 0.08415880 0.07194680
v -0.00844855 -0.45749217 -0.04919279
v -0.02276391 -0.09826484 0.12525852
v -0.01109627 -0.30405767 -0.15133549
v -0.03083200 -0.26414400 -0.14093800
v -0.13586900 -0.45156600 -0.02831600
v 0.12700775 -0.15037825 0.09051550
v 0.09119109 -0.17051347 0.12006678
v 0.12642650 -0.18904250 0.08984400
v 0.14663914 -0.31677400 -0.00700952
v 0.14557800 -0.36103000 0.00889100
v 0.14708489 -0.32340805 -0.01453534
v -0.11055986 -0.22312855 0.08890587
v 0.00107197 -0.18775685 0.15186931
v 0.01498383 -0.22833391 0.15412173
v 0.02404027 -0.18042639 0.15220495
v 0.03385101 -0.20680959 0.15369178
v -0.13933600 -0.26578500 -0.02437900
v -0.11833200 0.04256600 -0.09166700
v -0.09963788 0.07046256 -0.09552499
v -0.10256200 0.04284300 -0.10276900
v 0.03946829 0.12417445 0.11960228
v 0.04075778 0.12409754 0.11929369
v 0.08447668 0.16576984 0.10860837
v 0.08962292 0.14154038 0.10749724
v -0.08372296 0.10091204 -0.09692288
v -0.07334690 0.10224447 -0.09984981
v -0.09025766 0.09129314 -0.09568633
v 0.13487500 -0.36061900 -0.06541900
v 0.13381975 -0.32320283 -0.05619381
v -0.03150320 0.16590840 0.05894040
v 0.12412300 -0.31396500 0.08743600
v 0.14444906 -0.30821982 0.03809324
v 0.13720000 -0.26613800 0.06451700
v 0.01624800 -0.36193100 0.15500300
v 0.14203200 -0.44926600 0.01553800
v 0.02975398 -0.36444971 -0.14634127
v 0.04047300 -0.37576400 -0.14257600
v 0.02964800 -0.37067600 -0.14961700
v -0.02242316 -0.09984164 0.12576368
v -0.14218430 -0.30967283 -0.02361134
v -0.14242571 -0.30968104 -0.02197267
v -0.07989580 0.07973118 0.05454117
v -0.06867900 0.04303800 0.06247200
v 0.12817025 -0.07304975 0.09185875
v 0.08901483 -0.08670824 0.11805422
v 0.09234113 -0.05528112 0.11714760
v -0.00001112 -0.17637895 0.15101640
v -0.01498953 -0.18279285 0.14490795
v -0.12531100 -0.18832500 -0.07297850
v 0.09582400 -0.29579100 -0.10516400
v 0.09239950 -0.45028300 0.06576200
v -0.00149657 -0.00213229 0.11670117
v -0.00622016 -0.00294407 0.11460285
v 0.00288234 -0.01416086 0.12159408
v -0.04789400 0.00450150 0.08446050
v -0.07397891 -0.40456070 -0.12811250
v 0.05437096 -0.32197033 -0.11317442
v 0.05633500 -0.30211400 -0.13131200
v 0.07227082 0.15035549 -0.02652879
v 0.07146435 0.15145359 -0.02695759
v 0.11092479 0.15760752 0.00228499
v 0.09865414 0.18114320 -0.00329743
v 0.02533900 -0.36150800 -0.15234300
v 0.03362500 -0.36151200 -0.12573100
v 0.01689763 -0.45604546 0.06286548
v 0.03395500 -0.45084300 0.02755950
v 0.03476951 -0.45424301 0.09099035
v 0.05090275 0.00609300 -0.06522950
v 0.03943175 0.12406686 0.11962399
v 0.03936181 0.12414305 0.11962042
v 0.05252700 -0.36142900 -0.09197700
v 0.06652400 -0.33929000 -0.08707400
v 0.11769400 -0.26453300 -0.06917200
v 0.11719506 -0.29335765 -0.07677133
v 0.10233865 -0.28668572 -0.09384268
v 0.13691604 -0.40467961 -0.05242605
v 0.13552718 -0.40177814 -0.05800255
v -0.08816900 -0.45103300 -0.05199700
v -0.12984700 -0.45129300 -0.05088300
v -0.11913600 -0.45100300 -0.07214900
v 0.02689200 -0.44912300 -0.13750200
v -0.13564700 0.04221900 -0.06161800
v -0.13092000 0.04232100 -0.07347500
v -0.12344100 -0.26520700 -0.07281300
v 0.11375177 0.20957176 0.02380091
v 0.11390783 0.20956229 0.02475845
v 0.11402609 0.20879601 0.02508321
v -0.12811575 -0.07300200 -0.07322675
v -0.12718100 -0.11144300 -0.07314400
v -0.05899306 0.31391482 0.02718232
v -0.05909074 0.29267464 0.03067520
v -0.05584746 0.29199070 0.03293054
v 0.03594932 -0.45410713 0.09394233
v 0.06364600 -0.45093400 0.13513500
v -0.14120700 -0.36331200 0.00227300
v 0.14210734 -0.31351823 -0.03128104
v 0.14649378 -0.30941154 -0.01643204
v 0.14660920 -0.31702614 -0.01949448
v 0.13739900 0.04349600 0.03888000
v 0.13207129 0.06636832 0.05434985
v 0.13088684 0.06988311 0.04720718
v 0.13890500 -0.44898200 -0.02013400
v -0.06551570 0.12123029 0.05527282
v -0.03568680 0.12503360 0.06544360
v -0.06693317 0.12522737 0.05351392
v 0.14847735 -0.40157850 -0.01605757
v 0.11387190 0.20868438 0.02409039
v 0.14746933 -0.09871700 -0.00812088
v 0.14296746 -0.08777735 0.01462944
v 0.13286300 -0.26489900 -0.04010300
v -0.10706200 -0.36320500 -0.09451100
v -0.12123500 -0.36334300 -0.07265200
v 0.02174425 -0.13155239 0.15314185
v 0.01100995 -0.16349636 0.15335274
v 0.03976168 -0.13628664 0.15382273
v -0.09023698 0.09009704 0.04473836
v -0.09154600 0.04273100 0.04442200
v -0.10038918 -0.21413020 0.09874728
v 0.01958300 0.04296700 0.11026400
v -0.00772655 0.08324459 0.10100898
v 0.01377720 0.08992267 0.11128348
v -0.10424862 0.10813214 0.03136837
v -0.11753229 0.12088181 0.01094554
v -0.11224543 0.13702728 0.01703013
v -0.14232094 -0.30757815 -0.02253629
v -0.14078500 -0.26604300 -0.00042000
v 0.13793600 0.45252800 0.10240000
v 0.13704467 0.40701856 0.10145267
v -0.09431564 -0.08338458 0.07638693
v 0.06785850 0.45228000 0.05790950
v 0.09714840 0.40396030 0.06111989
v 0.07681678 0.40943818 0.03357619
v -0.05720200 -0.45106300 -0.03184500
v -0.06337207 -0.45524233 -0.01145271
v -0.14175833 0.35219534 -0.07657167
v -0.10947001 0.33116620 -0.05362165
v -0.08233515 0.19435128 0.03516488
v -0.08354947 0.20427457 0.03293996
v -0.08721917 0.19812544 0.03142231
v 0.04931781 -0.33423309 -0.11284063
v -0.00214232 0.00371190 0.11539745
v -0.08368407 0.14507799 -0.08942558
v -0.00944915 -0.32041876 -0.15322164
v -0.02918893 -0.31332734 -0.15238145
v 0.01360567 -0.45310769 -0.08937976
v -0.12905050 -0.03456100 -0.07330950
v -0.09390441 -0.01817203 -0.10550539
v -0.10020158 -0.03855750 -0.09791631
v 0.14652772 -0.22761283 -0.00238219
v 0.14583181 -0.22596627 -0.00505216
v 0.14661414 -0.22573057 -0.00214955
v 0.09171300 0.04275700 0.12107600
v 0.12943000 0.04373400 0.01905300
v 0.12266482 0.08235517 0.01451948
v -0.01188585 -0.31057417 0.15355819
v 0.00562757 -0.31027194 0.15627361
v -0.00097196 -0.29692373 0.15582126
v -0.13769100 -0.45181800 -0.00504700
v 0.10428178 0.38012505 0.06579554
v 0.13615333 0.36150912 0.10050533
v 0.03729200 -0.36189400 0.15221100
v 0.13749885 -0.08471083 0.03981459
v 0.13862584 -0.10900007 0.03560195
v 0.01686000 -0.26694200 0.15100300
v -0.10020914 -0.13131619 -0.09470848
v -0.12624600 -0.14988400 -0.07306125
v 0.00682434 -0.45138125 -0.09505503
v 0.03935832 0.12429761 0.11961931
v 0.03928194 0.12412533 0.11959061
v -0.13602883 0.20511333 -0.07472467
v 0.12774900 -0.36056100 -0.08471400
v -0.05599057 0.29096753 0.03296799
v -0.05471883 0.29062122 0.03398280
v -0.09443300 -0.45252800 0.10859800
v -0.07381500 -0.45244100 0.12697000
v 0.07987491 -0.45457932 -0.03288977
v 0.13312400 -0.44883400 -0.04280000
v -0.06453000 0.04344400 -0.10778500
v -0.04379300 0.04374200 -0.10374300
v -0.14038692 -0.04077632 -0.01357985
v -0.13815168 -0.04102655 -0.02836294
v -0.13757829 -0.04982778 -0.02848188
v -0.13795022 0.00041165 -0.03171387
v 0.09961800 -0.26425400 -0.09287500
v -0.13964614 -0.13642008 -0.01731421
v -0.14556301 -0.13369631 0.00540945
v 0.12282243 -0.02706327 -0.02240831
v -0.06336924 0.24472628 0.03807027
v -0.06744080 0.24815219 0.03438971
v -0.07478539 0.22801948 0.03309837
v 0.08605399 0.20994244 0.09875875
v 0.07383264 0.21300591 0.10425812
v 0.08495413 0.17947234 0.10680649
v -0.10898329 -0.31553223 0.09851624
v -0.10794869 -0.31456230 0.09958140
v -0.08833117 0.37545790 -0.07708557
v -0.09883934 0.41442417 -0.07591721
v -0.06705925 0.37817814 -0.06838372
v -0.08486929 0.40704814 -0.07144505
v 0.01387749 -0.04834097 0.13579146
v -0.09119683 0.27446503 0.01724440
v -0.09346052 0.26073345 0.01733539
v 0.03902600 -0.26690500 0.14832900
v 0.08931457 0.37876726 0.02827813
v -0.08090469 0.15842250 0.04176203
v -0.04548454 0.37920736 -0.05828719
v -0.00953472 0.35038160 -0.04135178
v 0.07620676 -0.00946997 0.12714552
v 0.09193065 0.00218668 0.12146195
v 0.04671976 0.00131894 0.13141634
v 0.06666928 0.00857836 0.12567856
v 0.08267700 -0.45065900 0.12422500
v -0.04278345 0.40079403 0.00352695
v -0.06273859 0.35123171 0.01693357
v -0.14499977 -0.40505124 -0.00102733
v -0.06198682 -0.29384106 -0.13877556
v -0.14142834 -0.40344995 -0.02632686
v -0.00767175 0.00242136 0.11292582
v 0.05111600 0.04283600 0.11961500
v -0.05287672 -0.29207499 -0.14173838
v -0.09076258 0.16329867 0.03464112
v -0.10638266 0.14664732 0.02100051
v -0.00841121 -0.45627748 0.10192413
v -0.03454100 -0.45178200 0.06771400
v -0.14276058 -0.23088253 0.02923287
v -0.14279176 -0.23084874 0.02897376
v 0.03357251 -0.45425619 0.09315160
v 0.10875133 0.32533485 0.06635428
v 0.10928364 0.33634162 0.07388875
v 0.13526200 0.31599967 0.09955800
v 0.14687945 -0.31395779 0.02963354
v 0.13890900 -0.36132800 0.05057800
v 0.09174657 -0.17431011 0.11984089
v -0.13411900 0.15608600 -0.07410900
v -0.04866322 0.28579585 -0.07920760
v -0.07193365 0.30877740 -0.07749159
v -0.04712899 0.32730380 -0.07241360
v -0.04268370 0.33484185 -0.07032777
v -0.03248800 0.33083413 -0.06539463
v 0.02770220 -0.22926832 0.15299811
v 0.08618700 -0.44868300 -0.11499100
v 0.10401000 -0.44862800 -0.09829600
v 0.10570060 -0.44975954 0.00736468
v 0.09706187 -0.45412369 0.00596313
v 0.10934800 0.04278400 0.11482200
v 0.06468504 0.41485143 0.02797198
v -0.04447967 0.35898899 -0.06464888
v -0.04859224 0.33889095 -0.07054942
v -0.08692527 0.36567188 -0.07817248
v 0.10938600 -0.26655600 0.10927300
v -0.09484784 -0.09231954 -0.10054337
v 0.07452213 0.24277464 -0.01268389
v 0.02799667 0.20911534 -0.03139400
v 0.02334533 0.25022116 -0.02452450
v -0.14007759 -0.18861435 -0.02217151
v -0.14315180 -0.20335622 -0.00805163
v -0.14487117 -0.18456597 0.01049970
v -0.01289600 -0.36195800 -0.15443900
v -0.06834729 -0.12334657 -0.12346690
v -0.04435768 -0.08876973 -0.14070747
v -0.03720113 -0.12398069 -0.14525983
v -0.05200662 -0.45542834 0.03096192
v -0.02236929 -0.10134276 0.12605387
v -0.14088887 -0.05283486 -0.01348172
v 0.13437067 0.27049023 0.09861067
v 0.13347933 0.22498078 0.09766333
v -0.13891465 -0.06690899 -0.02225830
v 0.09493960 -0.11039499 0.11363442
v 0.12758900 -0.11171400 0.09118700
v 0.01007750 -0.20895233 -0.13792792
v 0.00775936 -0.22189198 -0.14066491
v -0.00010029 -0.21303440 -0.14182764
v 0.10778800 -0.45025700 0.10258900
v 0.03338382 -0.31935292 0.15515418
v -0.03299657 0.13893689 -0.09610941
v -0.03559518 0.14102087 -0.09721780
v 0.00409110 0.14625991 -0.07270371
v 0.00190210 0.14972532 -0.07328740
v -0.13619600 -0.26638300 0.03411300
v 0.04323300 -0.36148500 -0.10430600
v -0.00662400 -0.44942600 -0.13907300
v -0.05932137 -0.17193651 -0.13463884
v -0.06137885 -0.21356469 -0.13025175
v -0.06110976 -0.16888927 -0.13381309
v -0.08348026 -0.20579736 -0.11777049
v -0.04586500 -0.36207600 0.14276400
v -0.01604679 -0.39966349 0.15406382
v -0.01529700 -0.36199000 0.15246100
v 0.08912266 -0.17225755 0.12228486
v -0.06805831 0.27393268 -0.07783140
v 0.12584525 -0.22770675 0.08917250
v -0.12641983 -0.19171622 0.06984034
v -0.12833395 -0.18048334 0.06688402
v -0.13551813 -0.18717104 0.05150869
v -0.05253100 -0.26427500 -0.13585300
v -0.05978559 -0.28616205 -0.13897990
v -0.06296400 -0.26435500 -0.13177400
v 0.07200000 0.04277800 0.12233800
v 0.10813064 -0.21718706 0.10615762
v 0.03264800 0.16800950 -0.03826350
v 0.00929553 0.15162947 -0.06844975
v 0.00630728 0.16047279 -0.06876508
v 0.11196486 -0.39394295 -0.08598740
v 0.10265100 -0.37666200 -0.10157200
v 0.11723000 -0.37279000 -0.09185200
v 0.12526400 -0.26637100 0.08850100
v 0.09711700 -0.28350962 -0.09956621
v 0.12805941 0.00458969 -0.00207551
v 0.11744400 0.04396600 0.00084800
v -0.14085831 -0.03480615 0.00767542
v -0.14201120 -0.05876827 0.01247047
v 0.14362400 -0.26587700 0.04029000
v -0.01268000 0.04415000 -0.09236300
v -0.03445999 0.42484816 0.00097154
v -0.00640240 0.41115720 0.01992200
v -0.08437400 0.04314100 -0.10780100
v 0.14654888 -0.22406770 0.00097272
v 0.08184166 -0.31569129 0.13466626
v 0.08609931 -0.31506416 0.13083004
v 0.08309610 -0.31150486 0.13371055
v -0.03805875 0.45158650 -0.00938650
v -0.04482892 0.42353673 -0.00507004
v -0.14448766 -0.17235754 -0.00371885
v 0.09819948 -0.00011929 -0.03602939
v 0.03197900 -0.17010197 -0.12192271
v 0.02211677 -0.21683462 -0.13339902
v 0.03870735 -0.18689982 -0.12120115
v 0.14177762 -0.21361063 0.04111538
v 0.14069122 -0.04824289 0.03465018
v -0.00221900 0.45203200 0.01341900
v 0.03281975 0.45215600 0.03566425
v 0.00300925 0.41185575 0.00565050
v -0.11770899 0.22215959 -0.03483586
v -0.10763273 0.23272204 -0.05269248
v -0.06738109 0.11874768 0.05448273
v 0.06808800 -0.36182700 0.14052600
v 0.14324720 -0.13748620 0.02420846
v 0.11098354 0.25614084 0.02851487
v 0.11144225 0.25238793 0.02944164
v -0.06231500 -0.45005200 -0.12417400
v 0.09657342 0.07792229 0.11218308
v -0.06032397 -0.16825309 -0.13425366
v -0.05116331 -0.16732037 -0.13614418
v 0.14745348 -0.15102111 0.01238746
v 0.14660753 -0.19562168 0.02098683
v 0.14785197 -0.17409221 -0.00763538
v -0.03731606 0.33719793 -0.06711710
v -0.02366858 0.34267129 -0.05471507
v -0.09757280 -0.30839255 -0.11098591
v 0.01336672 -0.37573716 -0.15361699
v 0.02251361 -0.37684404 -0.15098195
v 0.01088542 -0.38176286 -0.15335074
v -0.07751461 0.09045110 -0.10089905
v 0.11370277 -0.22183390 -0.07220549
v 0.07670800 -0.22550100 -0.10337450
v -0.08305900 -0.45034500 -0.11128800
v 0.06317700 -0.45056300 0.04666100
v -0.12341680 -0.14800116 0.06692454
v -0.13832934 -0.13659380 0.05140920
v -0.02214893 -0.21762525 -0.14113927
v -0.01037243 -0.17608485 -0.14349975
v 0.10709355 0.34387447 0.06461974
v -0.14481895 -0.31656194 0.01480434
v 0.09119300 -0.26669900 0.12554400
v 0.07121100 -0.26680400 0.13758900
v 0.05956100 -0.26402900 -0.12303000
v 0.07384900 -0.29228100 -0.11965400
v -0.05790697 0.42181634 -0.05242691
v -0.07389850 0.45114100 -0.03219200
v 0.10057505 0.12800411 -0.01109887
v 0.10271841 0.15150042 -0.00629696
v 0.13169667 0.13396189 0.09576867
v -0.09469785 -0.04716032 0.06960129
v -0.10098959 -0.04392505 0.06339540
v -0.09754724 -0.06129972 0.07000929
v -0.01895260 0.28853280 0.03943100
v -0.05321410 0.29283955 0.03477231
v 0.13007593 0.07913718 0.05258557
v 0.12074685 0.09626295 0.01868540
v 0.10922764 0.25683331 0.02304890
v 0.10134971 0.25451233 0.01574206
v 0.10823528 0.26201726 0.02217889
v -0.04101919 0.34080608 -0.06819262
v -0.09888542 0.33999410 -0.00421012
v -0.10948565 0.34141159 -0.02242746
v -0.09814805 0.30491657 0.00588112
v -0.10900098 0.32155092 -0.01660068
v -0.02924100 -0.44965800 -0.13591100
v -0.00557334 -0.45590524 -0.08819065
v -0.03466536 -0.45757530 -0.09338427
v -0.12578060 -0.42252117 0.07204128
v -0.10976279 -0.41400758 0.09688836
v 0.11653727 -0.40390338 -0.08180238
v 0.12026600 -0.44868200 -0.07350100
v 0.12230200 -0.40578100 0.08561700
v 0.14011085 -0.38489341 0.05084687
v 0.13040900 -0.36147900 0.07288100
v 0.12978710 -0.15171074 -0.04447121
v 0.14002689 -0.15531225 -0.02672653
v 0.13662090 -0.18333165 -0.03877146
v 0.14648733 -0.17847439 -0.01992302
v 0.14011545 -0.32003160 0.04855671
v 0.11344096 0.06611894 0.10185014
v 0.01266373 -0.08520975 -0.11715420
v 0.00959628 -0.10969015 -0.12451673
v -0.00541915 -0.10702700 -0.13273421
v 0.08536700 -0.41341400 -0.11429500
v 0.09351835 0.31002873 0.00708057
v -0.02164400 -0.45196400 0.14753800
v -0.02574681 -0.45605168 0.11427133
v -0.06503631 0.34640163 0.01823318
v 0.01103270 -0.40379501 0.15458496
v -0.06923066 -0.00349841 -0.11519149
v -0.06408343 -0.02481484 -0.11882710
v 0.07525613 -0.31453564 0.13751791
v 0.04753003 0.40892999 0.05583950
v 0.05790442 0.40459669 0.08123745
v -0.10216700 -0.45066200 -0.09403800
v -0.14705716 -0.18143048 0.02844092
v -0.14604621 -0.20389840 0.01442732
v -0.11755041 0.33486646 -0.03576541
v -0.11833258 0.34750605 -0.03715591
v -0.07093400 -0.22819350 0.12052350
v -0.07477400 -0.26697600 0.12653400
v 0.02177690 -0.23603938 0.15405975
v 0.08733621 0.37586583 0.02504281
v 0.08920301 0.37521567 0.02641770
v -0.01146676 -0.16387807 0.14304510
v -0.13793867 0.25414067 -0.07534033
v -0.10061311 -0.19997806 0.09566357
v -0.10504504 -0.16729066 0.08554575
v -0.11931028 -0.18971381 0.07599817
v 0.08724612 0.40883599 0.09643341
v 0.12432535 -0.02857100 -0.01864564
v 0.13256722 -0.00247368 0.00452017
v 0.13108493 0.00114209 0.00096601
v -0.10565105 0.37454486 -0.05923252
v 0.01992445 -0.31299105 -0.14638860
v 0.13737833 -0.18449138 0.05137527
v 0.08454700 -0.37814500 -0.11359800
v 0.12744958 -0.30270870 -0.06339443
v 0.01615400 0.04447200 -0.07766700
v 0.04860578 -0.05721865 0.14369926
v 0.05050125 -0.05429367 0.14316104
v 0.04834956 -0.05279843 0.14243329
v 0.03902958 0.12425815 0.11944092
v 0.03767554 0.12343766 0.11880082
v 0.03930048 0.12400224 0.11960368
v -0.08681720 0.23221466 -0.08615295
v 0.00982815 0.08206061 -0.08178512
v 0.13026299 0.00697894 0.00206310
v -0.12018600 -0.40717300 -0.07240100
v -0.04405400 0.04328400 0.07845000
v -0.09029321 0.25135390 -0.08312495
v 0.02047461 -0.06952728 -0.10867217
v 0.02958208 -0.07729379 -0.10413590
v 0.02327543 -0.39281684 0.15534042
v -0.02638735 -0.39944696 -0.14938765
v -0.01487423 -0.40052021 -0.15319992
v 0.13095772 0.06571574 0.06319125
v 0.13069646 0.07332034 0.05851217
v 0.13080533 0.08845244 0.09482133
v -0.14158819 -0.01155106 -0.00705145
v 0.03527268 -0.15739651 -0.11702153
v 0.03109830 -0.12588312 -0.11367563
v -0.07603048 -0.13078406 -0.11845109
v -0.07729826 -0.12506780 -0.11659833
v -0.07611843 -0.11809433 -0.11796916
v 0.12599262 0.05870558 0.09397830
v 0.12399500 0.04287300 0.10256600
v 0.12991400 0.04294300 0.09387400
v 0.01146227 0.38519586 0.05689071
v 0.01220864 0.38568808 0.05712508
v 0.01121241 0.38573401 0.05649904
v 0.01321992 0.22082085 0.09819978
v 0.03708622 0.19263290 0.11188649
v 0.13586492 -0.21145158 0.05875831
v 0.06594639 0.40430415 0.02147612
v 0.05424287 0.38683850 0.00769161
v 0.05370092 0.41310502 0.01864854
v 0.05520350 -0.03250600 -0.07158700
v 0.01089872 -0.01282062 -0.10165070
v -0.06716152 0.14769493 -0.09152588
v -0.04826122 0.16851430 -0.09465851
v -0.03790602 0.14318153 -0.09731660
v -0.03777565 -0.18645480 0.13446996
v -0.02988888 -0.15439764 0.13224895
v 0.13077866 -0.08058671 0.06256648
v 0.13237688 -0.09913916 0.05844479
v 0.08014526 0.25638260 0.09945114
v -0.12897241 -0.19947308 0.06531180
v -0.14243845 -0.22996803 0.02998343
v 0.01264745 0.22970145 0.09691709
v -0.02313600 0.24765800 0.04593400
v -0.02731960 0.20678320 0.05243720
v 0.00619909 0.41416778 0.03641778
v 0.14669572 -0.30500953 0.01722189
v -0.12624856 -0.00360204 0.02765995
v 0.05861896 0.35653676 -0.00083198
v 0.06294297 0.31779229 -0.00837413
v -0.14567627 -0.14833177 0.00373415
v -0.09323089 -0.31851357 -0.11697866
v 0.13811386 -0.12695485 -0.02742620
v 0.12747170 -0.13224902 -0.04403092
v 0.07985866 0.25224353 0.09992500
v 0.07540844 0.25545176 0.10082991
v -0.09040827 -0.19545416 -0.10989047
v -0.06200609 -0.16828327 -0.13289151
v -0.11828499 0.18617462 -0.01371571
v -0.11834539 0.18979211 -0.01601102
v -0.12507261 0.15099881 -0.02928544
v -0.12617920 0.16461781 -0.04244364
v 0.08032012 0.37370373 0.01975602
v -0.10138763 -0.40862886 -0.10261163
v 0.11438046 0.08204815 -0.00093544
v -0.04327093 -0.21790899 -0.14134388
v 0.03723271 0.38840202 0.00484479
v 0.02815797 0.41514762 0.01424505
v -0.09001011 -0.04226558 0.07133950
v 0.00504264 0.15193795 -0.07121564
v -0.00006810 0.15614931 -0.07385258
v -0.07458000 -0.31459400 0.12674100
v 0.00166600 -0.01568710 -0.10736186
v 0.00684849 -0.02015915 -0.10622793
v 0.00191420 -0.02438232 -0.10984679
v 0.11213678 0.13821097 0.00146007
v -0.08388484 -0.01967950 0.07095610
v 0.07099952 -0.41052080 0.13915652
v 0.03252891 -0.40174343 0.15428657
v 0.13898192 -0.07040561 -0.01958992
v 0.14523803 -0.19771646 0.00342405
v -0.03848811 0.13931741 -0.09781734
v 0.05897900 -0.37815200 -0.13045400
v 0.06448414 -0.10360407 0.13955367
v 0.06399020 -0.10276624 0.13995380
v -0.07917224 0.32365645 -0.07551192
v -0.10929683 0.38563566 -0.03390738
v -0.10593405 0.41216909 -0.06814415
v 0.06340256 -0.10427752 0.14050803
v 0.14023708 -0.04355884 0.03688686
v 0.02962000 -0.10616824 0.14908421
v 0.01747487 -0.10340450 0.14869306
v 0.06220902 -0.10401997 0.14048376
v 0.02650700 -0.36667500 -0.15163200
v -0.11449821 0.41925282 -0.04151760
v -0.11039235 0.42035620 -0.05793320
v 0.08882952 0.17145823 0.10638346
v 0.13998386 -0.04569633 0.03735527
v 0.07056695 0.25868527 -0.01132422
v 0.05668285 0.29676621 -0.01345414
v 0.07905446 0.28615291 -0.00256399
v 0.08576991 -0.41011505 0.13036070
v -0.13873175 -0.40603530 0.03598064
v -0.08878238 0.20946833 0.02812772
v 0.02894529 0.41045582 0.05231060
v 0.07597176 0.39021397 0.09995456
v -0.00855208 -0.02109897 0.11709331
v -0.14366817 0.40122266 -0.07718733
v 0.05127435 -0.05389883 0.14322951
v 0.11732927 0.09819652 0.00459254
v -0.06099117 -0.16793301 -0.13382597
v -0.05995114 -0.16683633 -0.13448121
v 0.12556100 -0.36696700 -0.08624900
v -0.09428264 0.00471063 -0.10594992
v 0.05160134 -0.05488917 0.14330598
v 0.05899831 0.08762468 0.12076880
v 0.03969348 0.08613446 0.11810864
v 0.06377533 0.21241496 -0.02256725
v 0.13581538 -0.40642967 -0.05545472
v -0.11677897 0.14168875 0.00497771
v -0.12313475 0.12726716 -0.01865236
v 0.14078239 -0.20608312 -0.03246367
v 0.06567930 0.36342541 0.10270305
v 0.05015321 0.34811938 0.10064306
v 0.08862232 0.37010115 0.09887208
v 0.07297792 0.35174818 0.09553269
v -0.11124364 0.42591211 -0.04379478
v 0.11627030 -0.14751885 -0.05623845
v 0.11964405 -0.17390972 -0.05351574
v 0.09940297 -0.16417980 -0.07327661
v 0.08174587 -0.22503206 0.13174970
v -0.05417800 -0.45211150 0.09734200
v -0.09465256 -0.11246043 -0.10065241
v -0.09315448 -0.14452333 -0.10304991
v 0.14654395 -0.15590662 0.00229266
v -0.05363200 -0.45227300 0.13801000
v 0.12482803 0.11943247 0.05504217
v 0.12291137 0.14570424 0.05409584
v 0.00017466 0.21252785 -0.06507678
v 0.01031678 0.19705217 -0.06169548
v -0.00141066 0.19548577 -0.06894874
v -0.14662190 -0.09224178 0.02902713
v -0.14566367 -0.07814111 0.01553915
v -0.12437600 -0.22676600 -0.07289575
v -0.14663095 -0.16688499 0.01179094
v -0.14478213 -0.14599539 0.02165354
v -0.14514979 -0.15808606 0.03512790
v 0.03866097 -0.45401725 0.09297279
v -0.10891600 -0.26491100 -0.09527500
v -0.10174126 -0.23529995 -0.10173398
v -0.10072500 -0.26478000 -0.10478400
v -0.07547135 -0.05419633 -0.11771861
v -0.06309802 -0.05490017 -0.12176987
v -0.07975120 -0.06809732 -0.11496219
v -0.12002310 0.28196750 -0.02989306
v -0.11919262 0.33025117 -0.03972028
v -0.10797362 -0.31660768 0.09956804
v 0.01812737 0.35027682 0.07970074
v 0.01636913 0.35201503 0.07834473
v 0.01571369 0.35036025 0.07839837
v -0.09332896 -0.16734296 -0.10434116
v -0.03051311 -0.45789913 -0.06982656
v 0.09518940 -0.12652643 0.11388679
v -0.11579520 0.24114758 -0.03445563
v -0.10973825 0.45069550 -0.05499750
v -0.08206020 -0.45622012 0.00501548
v -0.11730933 0.23288843 -0.02576777
v -0.06142779 0.41954710 -0.05564938
v -0.05933207 0.42064280 -0.05431834
v -0.05698888 0.41261187 -0.05575880
v -0.08610663 0.39888971 -0.01740756
v -0.09931628 0.36236298 -0.01293146
v 0.09586685 -0.04713750 0.11374117
v 0.01428969 -0.03730029 0.13355504
v -0.08129334 0.12843591 0.04172102
v 0.10598602 0.09496680 -0.00734758
v 0.08100900 -0.26410000 -0.10973200
v -0.05728770 0.19466891 -0.09154579
v -0.05696103 0.19852330 -0.09068288
v -0.01351318 0.22117383 -0.07367310
v -0.01272311 0.22986695 -0.07171157
v 0.09546965 0.33767133 0.08901731
v 0.05948488 -0.45565891 -0.00593067
v 0.10421266 0.01248661 0.11263161
v -0.06709400 -0.18941100 0.11451300
v 0.11419995 0.20674011 0.02512055
v 0.07851813 -0.22327960 0.13479030
v 0.06790499 -0.21333232 0.14094611
v -0.14170611 -0.31048575 -0.02491860
v -0.08451342 -0.04833089 -0.11155996
v -0.09844494 -0.05769188 -0.09879726
v -0.03024120 0.40845675 -0.02997246
v -0.06432186 0.34815405 0.01792020
v -0.09396042 0.35115177 -0.00591892
v 0.07819390 0.25772002 0.09999791
v -0.01586597 -0.16783833 -0.14405051
v -0.10552105 -0.29111742 -0.10094860
v 0.08821210 -0.04265192 0.11864694
v 0.05564377 -0.05378268 0.14062807
v 0.05297851 -0.05235276 0.14245177
v -0.10817312 0.23986538 0.00285159
v -0.07611206 0.25432378 0.02816820
v -0.07857715 0.24494276 0.02455646
v 0.07967871 0.08702900 0.11468589
v -0.12058538 -0.19723417 0.07632593
v -0.12459542 -0.20502162 0.07279681
v -0.11642097 0.33021840 -0.03256191
v -0.01409552 -0.16441901 -0.14411420
v -0.14557800 0.45025000 -0.07780300
v 0.12298200 -0.36155900 0.08637100
v -0.12557144 -0.00770084 0.03165400
v -0.13364265 -0.04975446 0.03832796
v -0.02320009 0.30107462 -0.06033401
v -0.03607799 0.27437814 -0.07722869
v -0.01295512 0.29592561 -0.05711695
v -0.02285797 0.42250813 -0.01371641
v -0.06203372 -0.16376134 -0.13266423
v -0.11758321 0.19067936 -0.01247041
v -0.11628469 0.19750937 -0.01060176
v -0.11809820 0.19788689 -0.01686535
v -0.03504595 0.14584961 -0.09639440
v -0.02600811 0.18679156 -0.08739157
v -0.13469756 -0.12240304 -0.03462595
v -0.10389905 -0.18262656 -0.09327548
v -0.08585906 -0.45559172 -0.01762369
v -0.01284861 -0.41325068 0.15387165
v -0.14406012 -0.12026577 0.04009813
v -0.12967612 -0.11067952 0.05389976
v -0.02258389 -0.02389322 -0.12295224
v -0.02162954 -0.04838493 -0.12981342
v 0.10604500 -0.36167600 0.10934100
v 0.11604293 0.13525406 0.01719933
v 0.11663101 0.15256432 0.02561679
v 0.05885392 -0.08352820 0.14141489
v 0.04520400 -0.31375700 -0.13876900
v -0.05586941 0.38535371 -0.05794029
v -0.03848167 -0.20138819 0.13748390
v 0.11126045 -0.20198925 -0.06981012
v 0.12074478 -0.21051658 -0.06247174
v 0.07666484 0.33729432 0.09344662
v 0.06597403 0.32195137 0.10003313
v 0.04640926 0.32459303 0.10382556
v -0.02024062 -0.05709426 0.11895893
v -0.03074359 0.43290249 -0.00048915
v -0.00373651 -0.16477590 -0.13871302
v -0.01011218 -0.15872609 -0.14098533
v -0.03606371 0.08046463 -0.10088059
v -0.03619103 0.08030742 -0.10095753
v -0.03634580 0.08047430 -0.10096896
v 0.08350800 -0.29082600 -0.11326000
v 0.04523033 0.26909962 0.10761069
v 0.04942077 0.29716617 0.10491850
v 0.07120371 0.15044230 -0.02732433
v 0.02675047 -0.16075636 -0.12304272
v -0.06603785 0.35024359 0.01605429
v -0.13908443 -0.21988069 -0.03003418
v 0.10680048 -0.45140412 0.01717342
v 0.01271399 0.23945876 0.09504784
v 0.01112887 0.27260467 0.09129266
v 0.00502913 0.25843062 0.08786913
v -0.00585735 -0.13157946 -0.13672722
v 0.01666996 -0.12940928 -0.12345918
v -0.10944438 0.19357597 -0.00133028
v -0.09988159 0.17111179 0.02311255
v -0.07086200 0.23277275 -0.08822464
v -0.06401478 0.20257435 -0.09113924
v -0.03459184 0.22922864 -0.08366829
v -0.04270718 0.26119280 -0.08156491
v 0.07135771 0.14962724 -0.02733813
v -0.05749677 -0.45522758 0.01758708
v 0.13425451 -0.12785988 0.05147480
v -0.00727392 0.32248663 -0.04675439
v -0.10115339 0.41711627 -0.07558674
v -0.09889163 0.41833926 -0.07407627
v 0.03220910 0.25517497 0.10081215
v 0.08483612 0.10248461 -0.02783666
v -0.07032912 0.11991684 0.05210110
v 0.12443355 -0.22313813 -0.05690456
v -0.13396104 -0.14561902 -0.03755989
v 0.02057160 -0.03086016 0.13299774
v 0.04349330 0.39646583 0.07678306
v 0.05105369 -0.05079072 0.14253120
v 0.00429287 0.18585095 0.09762368
v -0.11908602 0.28232129 -0.02756332
v -0.11025584 -0.08717801 0.06585466
v -0.10031584 -0.10193077 0.07585292
v -0.12169997 -0.12837227 0.06277070
v -0.04822833 -0.22732354 -0.13929361
v -0.12764182 -0.01345362 0.02167891
v -0.02366588 0.43098938 -0.00896255
v 0.10329447 0.31135207 0.03625718
v -0.01051043 0.10482220 0.09533296
v -0.00405321 0.13845382 0.09645085
v -0.13646688 -0.08632369 -0.02818096
v 0.02379343 0.00187976 -0.08963057
v 0.01166330 0.38501664 0.05715121
v 0.03481509 0.37200884 0.08770269
v 0.13879238 -0.23331831 -0.03316702
v 0.12071879 -0.22948370 -0.06392543
v 0.13893742 0.00861743 0.04706430
v 0.14040179 -0.04039557 0.03532339
v 0.09462047 0.22413899 0.09437909
v -0.09158494 0.27050605 -0.07618639
v 0.12580734 0.10968119 0.06777030
v -0.13012259 -0.08558079 0.04611424
v -0.14699156 -0.10225362 0.01915519
v 0.11763557 -0.11343343 -0.04806900
v 0.10743169 -0.12464825 -0.05791943
v 0.10247679 -0.09214518 -0.05499703
v 0.09276297 -0.10987502 -0.06580665
v -0.04079950 -0.03925224 -0.12959383
v -0.06456472 0.41935267 -0.04551821
v -0.00601541 0.28992168 0.07363533
v -0.01205346 0.26848871 0.07290415
v 0.06366156 -0.10344040 0.14026019
v 0.09950698 -0.05372433 -0.04844310
v 0.09943960 -0.06435846 -0.05071218
v 0.09160731 -0.05030453 -0.05342752
v -0.09081289 0.10446568 -0.09318928
v 0.00016631 0.31001399 0.07557585
v 0.02455201 0.29731346 0.09868616
v 0.13989106 -0.05114255 0.01924636
v -0.14281872 -0.23049111 0.02910475
v -0.08165424 0.15318855 -0.08816280
v -0.08321844 0.15126307 -0.08841855
v -0.08406621 0.15313722 -0.08803830
v 0.06380500 -0.10970400 -0.08430200
v 0.03700564 -0.45417793 0.09177137
v -0.08274200 -0.26454700 -0.12045100
v 0.05950425 -0.07110500 -0.07794450
v 0.03111116 -0.10916874 -0.11003340
v -0.01607822 0.30974906 0.06179114
v -0.01476920 0.32940760 0.03292800
v -0.13961808 0.00910495 -0.01039197
v -0.02892153 0.42898608 -0.01303900
v 0.00744379 -0.02552999 -0.10701399
v -0.01930668 -0.10241341 0.12786908
v -0.01097959 -0.13625630 0.13880542
v 0.10699595 0.40250767 0.07581229
v 0.09215954 -0.05971177 -0.05532753
v 0.11077800 -0.36080100 -0.07657200
v -0.05609356 -0.45561440 0.04367476
v 0.05209480 -0.05424643 0.14290646
v -0.08843842 0.42158300 -0.03117008
v -0.07044795 -0.23897274 -0.12884305
v -0.07367765 -0.23711204 -0.12568385
v -0.06947768 -0.23565851 -0.12942635
v -0.06256405 -0.23393042 -0.13270578
v -0.06085541 0.19547607 -0.09140744
v 0.08821865 0.16695862 0.10681810
v 0.13371589 -0.40471909 -0.05963879
v 0.01102865 0.38481796 0.05681001
v 0.09884505 -0.45353381 0.01278834
v 0.01435454 0.35156951 0.07716138
v 0.00826148 0.14069768 0.10134797
v -0.06256707 0.40244927 -0.00933866
v -0.06029241 0.42445453 -0.05251858
v 0.12024312 0.16467429 0.04628378
v -0.10069835 -0.13646093 0.08235877
v 0.03949870 0.15429563 0.11761629
v 0.04530779 0.18376279 0.11550231
v 0.02707079 0.17241319 0.11153526
v -0.13031935 -0.31516899 0.06610847
v 0.02086365 0.01715357 -0.08737639
v 0.02149668 -0.29507090 -0.14365279
v -0.09577913 0.35674625 -0.07756167
v -0.09701166 0.37134986 -0.07771271
v -0.14422768 -0.13063865 0.03218846
v -0.05857380 0.28957505 0.03172553
v 0.00327575 0.26038895 -0.05244200
v -0.00458582 0.28419851 -0.05303280
v 0.02361034 -0.37705585 -0.15044787
v 0.03304645 -0.39799918 -0.14179158
v -0.09308820 -0.21541117 -0.10906022
v 0.01080537 -0.00002466 0.11969282
v 0.07183299 0.17834006 0.11067430
v 0.07584371 0.16781359 0.11027885
v -0.09286468 0.21947954 -0.08478707
v 0.11363238 0.20734560 0.02281871
v 0.11479016 -0.02834576 -0.03009716
v 0.13225331 0.00490572 0.00817531
v 0.14061598 -0.04377806 0.03420838
v 0.10069201 -0.40680843 0.11797273
v -0.10244286 0.41305026 -0.07616302
v -0.04796391 -0.45749449 -0.08871276
v 0.09109981 0.39091735 0.09860562
v 0.04550007 -0.21849950 -0.12381989
v 0.01230630 -0.02270384 -0.10316795
v -0.10304450 0.41678739 -0.07586611
v 0.08930109 0.00110947 -0.04370554
v -0.06110268 0.42260094 -0.05403906
v 0.08279764 -0.45141363 -0.04531395
v 0.11239959 0.27750227 0.06769502
v 0.11123767 0.29087822 0.06310932
v 0.10868710 0.25138144 0.02107470
v 0.11308576 0.20918977 0.02242964
v 0.09262673 0.22123981 -0.00484378
v 0.08525008 0.16998333 0.10784752
v -0.08950707 -0.21233656 0.10679937
v 0.02411010 0.31573208 0.09524929
v 0.07924620 -0.22775391 0.13445075
v 0.07457675 -0.22584383 0.13702558
v 0.14677019 -0.21963576 -0.00364792
v -0.14277609 -0.23036400 0.02859961
v 0.05489523 0.37302401 0.09627118
v -0.06992085 -0.45500365 0.05379138
v 0.00700655 0.14825100 -0.07049028
v 0.09238242 0.20194235 -0.00783405
v -0.12221239 -0.07125050 0.05288072
v -0.08507858 0.43257738 -0.05357939
v -0.04197799 -0.01367540 -0.12241726
v -0.01536435 -0.16072206 -0.14417638
v 0.02335856 -0.37612488 -0.15069574
v 0.12361852 -0.38629826 -0.07879955
v 0.08016434 0.25961790 0.09939458
v 0.06858522 0.30397438 0.09972530
v -0.06813206 -0.23955817 -0.13052311
v 0.04785113 0.31249620 -0.01460933
v -0.01547354 0.26577166 -0.06385778
v -0.02129282 0.24610481 -0.07304814
v 0.11048499 0.25606197 0.02540503
v 0.11022769 0.25866873 0.02547583
v 0.11070108 0.26076350 0.02862286
v 0.08672681 -0.01456781 -0.04871756
v 0.00741232 -0.38915644 -0.15342795
v -0.00062509 -0.38809168 -0.15324218
v 0.06314473 -0.10296292 0.14028603
v 0.01330283 0.34799001 0.07690499
v 0.08772676 0.11702613 0.10892499
v 0.08802771 0.12458698 0.10781938
v 0.02018800 -0.38965015 -0.14929917
v 0.09251290 0.11473975 0.10817691
v 0.04209072 -0.29004298 -0.13470793
v 0.05086605 -0.28284135 -0.12984120
v -0.08903358 -0.20517430 -0.11215158
v -0.11420706 0.14310565 0.01334385
v 0.00046063 0.29511526 -0.04841504
v -0.05203456 -0.08381674 -0.13527516
v -0.03595738 0.08028609 -0.10084134
v -0.03637394 0.08029025 -0.10098466
v -0.09098376 0.31594296 -0.07496599
v -0.01283158 -0.05236019 0.12253260
v -0.13547111 -0.16526032 -0.03399525
v 0.00546784 -0.12531798 0.14576176
v 0.02572353 -0.40200760 -0.14582414
v -0.00756809 -0.08179977 -0.12948035
v -0.00780810 -0.05513892 -0.12379590
v 0.09876248 -0.34569580 -0.08194708
v -0.13876538 -0.22958082 -0.03208289
v -0.13588183 -0.22351525 -0.03861715
v 0.11802661 -0.08444875 -0.03928418
v -0.07958819 0.24020781 -0.08682234
v -0.11383876 0.18706180 -0.00641643
v -0.11479391 0.14879016 0.01016896
v 0.11925300 0.22797394 0.06610141
v -0.14003967 -0.07349745 0.03423107
v 0.09673741 0.16771023 0.09017043
v -0.06513536 -0.28769959 -0.13598039
v 0.09561374 -0.03024420 0.11665553
v -0.04338693 -0.07496533 -0.13833388
v -0.02782922 -0.41144376 0.14944130
v 0.09490017 0.32346114 0.08970918
v 0.09557977 0.29226471 0.08941520
v -0.04921732 0.27094274 -0.07962179
v -0.04724465 -0.45776568 -0.07026041
v -0.08423589 0.15020702 -0.08798711
v 0.05269905 -0.05518365 0.14245335
v 0.09482100 -0.36101000 -0.07344900
v -0.06352848 0.34688077 0.01854110
v 0.13776978 -0.22462929 0.05603372
v 0.09432764 0.12208283 0.10463930
v 0.00242771 0.15467245 0.09858449
v -0.08628642 0.15183470 -0.08590022
v 0.05228429 0.27727781 -0.01938262
v 0.06892845 0.19646441 -0.02199128
v 0.08727304 -0.33795930 -0.08154066
v 0.08393235 -0.31897227 0.13306779
v 0.04176867 -0.16908329 -0.11550511
v 0.13515616 -0.40659478 -0.05716016
v 0.13675698 -0.08247651 -0.02478146
v 0.07101382 0.15067561 -0.02743212
v 0.11827995 0.24075681 0.06668504
v -0.00217522 0.25085441 -0.05900950
v -0.14140236 -0.15596951 -0.01150024
v -0.12851416 0.12617905 -0.04000749
v -0.09787838 0.18949690 -0.08100135
v -0.08903159 -0.41332292 -0.11507839
v -0.05877429 0.25310249 0.03962491
v -0.00231828 0.12497533 0.09922055
v 0.07686662 0.22669599 -0.01362566
v -0.02591240 0.42673543 0.00744087
v -0.11986987 0.27979454 -0.02945983
v -0.00461334 0.34388180 -0.03908473
v 0.12938905 -0.04614501 -0.02236339
v 0.13815853 -0.06520353 -0.01888370
v 0.04597871 0.36791424 -0.00117523
v 0.14055093 -0.04500976 0.03548005
v 0.08541821 0.18141985 -0.01489171
v 0.13175062 -0.37538057 -0.07079418
v -0.08808903 -0.45036437 0.06796397
v 0.14397172 -0.40511349 0.03852236
v 0.14180111 -0.41883187 0.03682175
v 0.14684588 -0.40946235 0.02355008
v 0.12472427 -0.06439273 -0.03010028
v -0.08707060 -0.30136436 -0.12243522
v -0.09405406 -0.28556965 -0.11357883
v -0.01319627 0.10312612 0.09374082
v 0.02974091 -0.06334664 -0.10115849
v 0.01015937 -0.31481985 -0.14975767
v 0.13567318 -0.40520943 -0.05652260
f 2 3 4
f 5 6 7
f 10 11 12
f 13 14 15
f 16 17 18
f 21 22 23
f 22 24 23
f 28 29 30
f 31 33 32
f 35 36 37
f 38 39 40
f 43 44 41
f 45 46 47
f 42 33 48
f 43 49 44
f 32 50 31
f 51 52 53
f 54 55 56
f 59 61 60
f 9 62 63
f 19 65 66
f 67 68 69
f 70 71 35
f 72 73 74
f 75 76 77
f 78 79 80
f 81 82 83
f 90 19 66
f 48 33 31
f 40 65 38
f 91 92 93
f 96 97 98
f 99 100 101
f 100 102 101
f 105 106 107
f 109 110 85
f 111 112 113
f 117 118 119
f 120 121 122
f 125 126 127
f 130 114 131
f 33 44 32
f 114 115 131
f 127 126 9
f 133 134 135
f 136 137 130
f 139 140 141
f 144 145 146
f 147 83 148
f 149 150 151
f 154 155 96
f 158 159 160
f 38 65 81
f 161 136 130
f 162 79 53
f 123 163 164
f 166 167 168
f 169 170 171
f 75 77 172
f 173 174 175
f 174 176 175
f 122 121 177
f 178 179 180
f 181 182 183
f 182 184 183
f 185 186 187
f 188 189 25
f 191 192 193
f 196 197 198
f 31 179 178
f 199 162 53
f 200 201 121
f 202 203 160
f 204 206 205
f 173 207 208
f 157 129 211
f 212 213 214
f 9 216 1
f 103 217 218
f 219 220 221
f 220 222 221
f 196 223 224
f 225 226 227
f 36 228 37
f 229 181 230
f 72 231 232
f 9 63 127
f 234 235 233
f 236 237 25
f 127 63 125
f 238 239 240
f 242 31 243
f 244 120 122
f 245 246 247
f 4 248 249
f 250 251 252
f 141 253 254
f 44 33 42
f 256 257 258
f 259 261 260
f 263 264 265
f 170 266 26
f 245 247 267
f 268 269 13
f 270 257 256
f 120 271 272
f 161 130 131
f 273 274 275
f 276 43 277
f 87 278 172
f 279 281 280
f 49 282 283
f 282 284 283
f 41 44 42
f 177 285 286
f 79 289 53
f 290 291 292
f 293 131 294
f 295 296 68
f 297 298 299
f 86 300 224
f 212 301 213
f 185 302 186
f 303 125 304
f 305 57 58
f 307 308 306
f 309 310 311
f 313 314 261
f 315 316 317
f 319 288 320
f 1 62 9
f 166 134 133
f 277 117 203
f 269 322 323
f 324 317 316
f 249 325 326
f 305 327 241
f 328 329 230
f 252 332 333
f 334 335 148
f 306 308 248
f 262 336 337
f 340 341 342
f 306 341 343
f 2 345 346
f 92 347 93
f 348 349 350
f 351 352 353
f 354 355 87
f 356 357 358
f 357 359 358
f 30 360 28
f 361 97 362
f 319 101 291
f 101 364 291
f 190 297 365
f 366 10 367
f 10 12 367
f 368 369 370
f 369 371 370
f 373 374 116
f 375 255 153
f 376 63 62
f 165 375 377
f 215 378 158
f 236 266 262
f 279 370 379
f 63 376 304
f 376 380 304
f 381 382 365
f 383 384 227
f 286 385 386
f 387 253 141
f 388 389 390
f 391 392 84
f 156 187 31
f 226 115 114
f 168 167 393
f 187 179 31
f 395 396 397
f 398 399 397
f 174 400 176
f 58 401 402
f 128 211 129
f 262 403 404
f 316 363 324
f 126 216 9
f 290 292 406
f 407 408 358
f 408 409 358
f 248 411 249
f 412 413 414
f 415 416 417
f 419 420 421
f 115 422 131
f 199 423 29
f 342 341 306
f 203 117 215
f 424 340 342
f 313 261 259
f 427 342 248
f 428 429 204
f 430 431 432
f 211 433 372
f 434 316 194
f 435 436 437
f 436 438 437
f 256 258 25
f 217 104 232
f 231 440 232
f 441 241 327
f 442 443 444
f 443 445 444
f 446 447 448
f 449 393 167
f 69 396 450
f 396 395 450
f 317 324 113
f 113 315 317
f 452 453 454
f 455 456 457
f 459 451 168
f 461 462 460
f 356 358 409
f 381 365 299
f 365 297 299
f 463 464 465
f 451 410 466
f 189 188 27
f 256 25 189
f 95 467 94
f 468 138 469
f 470 340 471
f 340 424 471
f 391 142 472
f 473 107 339
f 474 373 475
f 262 266 195
f 180 179 476
f 476 179 187
f 477 309 311
f 375 318 66
f 478 479 480
f 194 321 434
f 481 482 474
f 415 417 483
f 305 58 137
f 34 291 290
f 448 112 446
f 25 171 26
f 484 138 468
f 430 485 486
f 485 487 486
f 477 488 472
f 489 322 269
f 490 491 492
f 493 494 330
f 202 160 495
f 13 269 497
f 269 323 497
f 246 498 247
f 498 499 247
f 500 216 126
f 11 492 132
f 132 12 11
f 405 501 312
f 442 502 503
f 203 202 277
f 504 505 506
f 125 63 304
f 236 25 266
f 188 25 237
f 398 507 399
f 399 507 508
f 151 275 175
f 275 274 175
f 120 509 271
f 52 423 53
f 510 511 512
f 187 186 513
f 514 515 89
f 453 518 519
f 520 521 432
f 169 171 257
f 320 522 319
f 439 286 523
f 103 526 527
f 40 523 255
f 528 529 481
f 530 219 531
f 181 328 230
f 259 260 144
f 533 534 535
f 537 333 536
f 538 261 539
f 261 314 539
f 99 101 522
f 305 241 57
f 137 136 305
f 327 305 136
f 70 435 437
f 540 541 542
f 407 543 408
f 175 176 149
f 544 545 546
f 545 547 546
f 549 550 548
f 20 552 551
f 553 554 463
f 555 556 557
f 558 559 560
f 559 561 560
f 392 562 191
f 563 501 405
f 564 565 566
f 99 568 100
f 569 570 140
f 571 544 546
f 141 572 139
f 573 105 574
f 496 478 575
f 576 577 290
f 579 417 580
f 417 416 580
f 114 130 226
f 581 582 295
f 583 87 584
f 585 324 363
f 586 587 102
f 276 49 43
f 274 588 207
f 469 314 313
f 330 494 589
f 590 591 592
f 514 233 344
f 514 344 515
f 152 120 272
f 593 34 290
f 594 347 595
f 347 596 595
f 597 295 582
f 418 110 109
f 439 385 286
f 213 378 215
f 255 201 153
f 153 201 200
f 598 86 110
f 168 599 134
f 567 600 464
f 270 256 601
f 602 35 37
f 128 433 211
f 449 24 150
f 26 171 170
f 603 604 605
f 606 607 608
f 149 151 175
f 562 391 192
f 476 106 573
f 476 513 338
f 476 187 513
f 377 375 153
f 520 123 164
f 520 432 123
f 609 330 589
f 364 587 586
f 35 610 70
f 469 611 468
f 128 129 555
f 165 377 612
f 201 255 523
f 158 613 215
f 589 614 609
f 564 615 616
f 617 194 572
f 548 618 619
f 307 306 64
f 620 621 622
f 623 343 340
f 343 341 340
f 173 175 207
f 387 141 140
f 88 624 625
f 169 391 170
f 170 391 84
f 626 627 628
f 629 630 631
f 632 633 634
f 635 636 17
f 636 18 17
f 398 408 543
f 637 488 599
f 638 639 640
f 641 642 228
f 638 406 292
f 638 640 406
f 85 110 86
f 643 644 645
f 585 400 174
f 646 647 51
f 375 165 318
f 322 648 649
f 425 650 426
f 651 454 652
f 653 654 655
f 168 134 166
f 105 573 106
f 338 106 476
f 475 634 656
f 142 657 257
f 43 658 118
f 659 660 46
f 418 303 110
f 125 303 418
f 346 345 661
f 662 62 1
f 271 662 1
f 663 559 664
f 665 666 352
f 666 16 352
f 364 292 291
f 258 257 171
f 391 657 142
f 445 667 444
f 667 668 444
f 669 670 671
f 670 672 671
f 638 586 639
f 586 673 639
f 674 578 612
f 138 675 469
f 164 676 520
f 290 491 576
f 406 640 491
f 677 678 639
f 678 640 639
f 534 533 679
f 316 448 194
f 448 316 315
f 462 680 681
f 480 479 524
f 87 682 584
f 130 137 336
f 683 684 685
f 108 478 496
f 509 662 271
f 638 292 586
f 292 364 586
f 446 682 147
f 531 221 686
f 117 119 687
f 119 679 687
f 496 689 688
f 169 257 391
f 257 657 391
f 143 257 270
f 268 690 269
f 505 691 506
f 691 561 506
f 262 404 336
f 435 692 436
f 142 257 143
f 693 224 440
f 651 452 454
f 398 397 408
f 363 400 585
f 677 132 492
f 677 492 678
f 428 205 694
f 205 695 694
f 22 151 24
f 151 150 24
f 408 397 696
f 397 396 696
f 697 698 597
f 275 151 22
f 275 22 699
f 700 55 54
f 701 699 702
f 699 703 702
f 697 705 698
f 705 706 698
f 605 360 603
f 360 30 603
f 353 707 59
f 665 650 666
f 322 489 648
f 489 708 648
f 709 710 711
f 689 496 321
f 496 688 712
f 602 610 35
f 713 375 66
f 255 375 713
f 713 65 40
f 713 40 255
f 713 66 65
f 377 152 612
f 377 153 152
f 239 165 612
f 276 277 202
f 299 298 714
f 715 576 491
f 716 593 577
f 446 112 682
f 717 214 213
f 101 587 364
f 659 673 100
f 673 102 100
f 102 587 101
f 586 102 673
f 597 582 697
f 718 597 698
f 597 718 295
f 603 719 604
f 539 314 720
f 502 721 722
f 188 723 331
f 307 64 724
f 473 610 602
f 603 725 719
f 726 229 727
f 229 608 727
f 412 728 413
f 729 236 337
f 142 309 477
f 476 724 180
f 730 731 283
f 560 561 732
f 300 217 232
f 733 734 735
f 734 736 735
f 112 111 682
f 319 522 101
f 705 737 706
f 327 136 549
f 738 739 740
f 459 393 741
f 140 742 384
f 743 628 325
f 628 627 325
f 325 627 744
f 627 626 744
f 326 325 744
f 348 655 654
f 504 135 505
f 497 133 504
f 133 135 504
f 663 15 559
f 745 561 15
f 561 559 15
f 745 15 504
f 324 585 174
f 409 408 696
f 682 111 584
f 747 748 532
f 234 233 601
f 558 664 559
f 665 426 650
f 701 702 275
f 702 273 275
f 123 431 124
f 123 432 431
f 380 164 304
f 315 112 448
f 749 750 751
f 752 753 3
f 621 261 538
f 334 552 20
f 402 463 554
f 754 244 122
f 312 501 458
f 452 592 453
f 549 548 441
f 500 126 548
f 140 139 569
f 92 468 347
f 468 596 347
f 472 192 391
f 193 192 472
f 604 719 605
f 755 579 756
f 579 757 756
f 463 402 567
f 372 758 211
f 254 758 372
f 755 661 483
f 417 579 483
f 579 755 483
f 575 434 321
f 759 760 761
f 762 763 764
f 765 766 68
f 478 480 575
f 767 682 354
f 186 302 692
f 302 643 692
f 339 106 338
f 57 567 401
f 768 769 770
f 326 771 209
f 43 118 277
f 549 136 772
f 136 161 772
f 429 428 773
f 774 589 494
f 392 557 556
f 724 573 307
f 573 724 476
f 733 735 716
f 549 441 327
f 776 66 318
f 66 776 90
f 777 154 774
f 463 567 464
f 778 779 780
f 781 697 782
f 783 206 204
f 360 605 784
f 382 284 785
f 301 378 213
f 717 213 80
f 786 675 138
f 344 787 515
f 629 405 630
f 788 789 790
f 789 791 790
f 736 792 735
f 130 793 226
f 369 794 312
f 51 591 795
f 593 290 577
f 588 647 208
f 647 646 208
f 61 796 60
f 796 247 60
f 449 150 797
f 150 798 797
f 14 13 497
f 152 799 120
f 799 121 120
f 200 799 153
f 200 121 799
f 153 799 152
f 308 800 801
f 11 10 802
f 571 803 544
f 803 804 544
f 650 805 666
f 806 521 676
f 521 520 676
f 807 244 759
f 808 368 809
f 368 810 809
f 809 206 808
f 362 811 812
f 811 813 812
f 814 726 458
f 815 592 816
f 525 575 480
f 113 112 315
f 545 817 547
f 521 806 818
f 557 820 555
f 678 491 640
f 248 308 801
f 306 343 64
f 248 342 306
f 534 821 822
f 807 120 244
f 470 471 822
f 32 731 50
f 399 45 397
f 45 823 397
f 395 823 824
f 823 825 824
f 492 11 826
f 496 575 321
f 626 419 827
f 828 829 830
f 644 788 831
f 788 832 831
f 249 833 4
f 470 822 821
f 771 834 209
f 742 334 148
f 294 776 835
f 293 835 238
f 318 835 776
f 238 165 239
f 238 835 165
f 165 835 318
f 242 64 48
f 782 697 545
f 697 582 545
f 588 208 207
f 424 342 427
f 139 572 836
f 139 836 569
f 307 800 308
f 837 519 838
f 839 683 840
f 683 685 840
f 21 23 773
f 773 23 166
f 23 167 166
f 429 773 166
f 191 479 841
f 34 288 287
f 34 593 288
f 842 686 843
f 695 206 844
f 206 809 844
f 113 5 111
f 407 358 846
f 646 795 847
f 514 848 849
f 792 850 851
f 850 852 851
f 28 853 29
f 853 162 29
f 316 434 363
f 363 575 525
f 481 474 854
f 855 818 856
f 572 689 617
f 551 65 19
f 256 189 601
f 857 858 859
f 254 689 141
f 689 572 141
f 861 666 862
f 666 805 862
f 460 863 71
f 485 864 624
f 865 781 782
f 692 645 436
f 416 415 866
f 783 808 206
f 783 204 54
f 390 389 320
f 75 172 816
f 278 815 172
f 815 816 172
f 436 831 438
f 831 681 438
f 59 60 426
f 103 104 217
f 867 195 157
f 682 355 354
f 118 117 277
f 868 869 870
f 566 565 871
f 565 872 871
f 855 864 485
f 745 504 561
f 504 506 561
f 14 504 15
f 310 309 143
f 299 873 874
f 89 848 514
f 609 875 876
f 309 142 143
f 118 658 821
f 877 875 878
f 466 191 193
f 217 845 218
f 262 195 403
f 879 71 863
f 293 161 131
f 849 848 560
f 848 739 560
f 90 880 422
f 225 227 384
f 133 497 881
f 285 201 286
f 687 679 80
f 45 882 46
f 352 16 18
f 357 883 884
f 630 56 631
f 885 869 868
f 886 35 71
f 785 284 887
f 284 282 887
f 646 51 795
f 174 6 113
f 116 475 373
f 263 265 887
f 849 560 888
f 560 732 888
f 345 833 889
f 715 656 633
f 656 634 633
f 784 605 890
f 891 577 576
f 810 892 719
f 719 892 605
f 742 552 334
f 10 780 802
f 780 528 802
f 655 893 635
f 817 894 547
f 894 98 547
f 706 737 775
f 895 838 896
f 838 897 896
f 164 455 898
f 205 206 695
f 623 340 658
f 340 899 658
f 658 899 821
f 470 821 340
f 821 899 340
f 41 658 43
f 172 77 87
f 490 900 481
f 99 901 568
f 902 903 264
f 297 190 655
f 2 4 345
f 4 833 345
f 904 4 427
f 107 106 339
f 642 905 228
f 807 509 120
f 430 432 521
f 906 769 907
f 71 879 886
f 140 570 742
f 452 816 592
f 572 447 836
f 270 908 310
f 81 65 552
f 65 551 552
f 514 909 233
f 55 700 910
f 700 911 910
f 666 885 16
f 665 352 912
f 735 792 320
f 320 389 522
f 14 497 504
f 320 792 390
f 913 69 450
f 98 97 546
f 97 361 546
f 892 810 370
f 810 368 370
f 886 36 35
f 914 621 747
f 621 538 747
f 782 545 804
f 410 479 191
f 683 839 107
f 895 915 838
f 514 888 909
f 514 849 888
f 233 888 270
f 233 909 888
f 281 159 280
f 852 734 768
f 71 70 437
f 626 827 771
f 827 668 771
f 754 866 209
f 381 299 382
f 299 874 382
f 2 346 3
f 346 916 3
f 917 918 919
f 918 920 919
f 699 21 694
f 21 773 694
f 921 763 105
f 763 574 105
f 524 410 741
f 787 344 95
f 922 482 529
f 17 16 868
f 16 885 868
f 923 924 869
f 694 925 699
f 926 927 928
f 185 187 929
f 929 187 156
f 156 302 929
f 185 929 302
f 930 923 931
f 923 869 931
f 828 873 829
f 873 299 714
f 842 539 686
f 539 720 686
f 786 720 675
f 741 393 797
f 393 449 797
f 269 690 489
f 690 932 489
f 454 579 652
f 579 933 652
f 796 267 247
f 199 53 423
f 83 147 682
f 934 935 936
f 59 351 353
f 676 443 442
f 503 806 442
f 806 676 442
f 625 937 88
f 938 758 253
f 629 563 405
f 940 927 919
f 692 643 645
f 780 779 528
f 238 240 578
f 94 104 860
f 307 573 800
f 573 574 800
f 800 574 763
f 908 888 732
f 793 517 226
f 793 404 517
f 383 140 384
f 645 831 436
f 330 830 493
f 233 467 344
f 629 631 622
f 625 941 937
f 777 830 811
f 830 829 811
f 186 692 859
f 767 354 81
f 942 943 536
f 612 152 272
f 48 944 42
f 419 626 628
f 862 852 931
f 78 80 679
f 20 551 19
f 11 802 826
f 802 945 826
f 854 490 481
f 196 198 704
f 684 946 685
f 423 52 947
f 52 948 947
f 319 291 949
f 949 291 34
f 288 949 34
f 814 458 501
f 530 531 686
f 314 675 720
f 530 686 786
f 686 720 786
f 558 560 738
f 560 739 738
f 294 880 776
f 880 90 776
f 746 570 569
f 886 138 36
f 138 886 786
f 879 863 219
f 530 886 219
f 886 879 219
f 530 786 886
f 940 950 927
f 331 951 27
f 952 422 115
f 810 719 953
f 13 15 268
f 15 663 268
f 567 402 401
f 781 922 954
f 817 545 581
f 545 582 581
f 525 480 524
f 923 536 924
f 370 890 892
f 890 605 892
f 675 314 469
f 955 956 957
f 898 958 676
f 841 479 108
f 387 227 253
f 67 913 589
f 876 789 959
f 777 811 154
f 811 155 154
f 811 362 155
f 362 97 155
f 335 742 746
f 25 258 171
f 183 184 960
f 553 463 961
f 721 444 668
f 832 681 831
f 116 962 634
f 963 211 517
f 70 857 435
f 348 350 655
f 625 624 872
f 624 864 872
f 942 923 930
f 365 382 265
f 382 785 265
f 801 800 411
f 800 764 411
f 937 920 88
f 937 616 940
f 943 964 116
f 193 451 466
f 758 254 253
f 79 162 853
f 965 903 606
f 537 536 943
f 302 935 643
f 914 622 621
f 373 474 966
f 474 482 966
f 519 756 757
f 528 967 529
f 968 61 59
f 518 591 969
f 555 820 841
f 938 253 227
f 54 708 700
f 970 971 972
f 971 636 972
f 439 39 76
f 76 39 973
f 973 39 38
f 279 280 158
f 521 818 855
f 905 974 228
f 100 568 660
f 659 100 660
f 330 670 830
f 468 611 596
f 454 453 757
f 453 519 757
f 453 592 518
f 592 591 518
f 56 145 631
f 385 933 386
f 427 4 3
f 351 912 352
f 447 194 448
f 523 40 39
f 523 39 439
f 201 523 286
f 975 123 124
f 635 893 636
f 295 977 976
f 589 774 154
f 742 570 746
f 742 335 334
f 519 978 756
f 811 829 714
f 829 873 714
f 894 96 98
f 699 22 21
f 365 265 190
f 938 517 758
f 121 201 285
f 908 270 888
f 908 732 310
f 979 332 252
f 980 981 47
f 197 983 982
f 90 422 952
f 300 440 224
f 762 764 800
f 173 7 174
f 7 6 174
f 287 288 34
f 319 949 288
f 209 667 984
f 934 788 643
f 788 644 643
f 985 301 212
f 212 214 985
f 279 985 370
f 985 214 370
f 214 890 370
f 986 636 971
f 352 18 353
f 18 986 353
f 986 18 636
f 181 183 328
f 183 987 328
f 987 970 328
f 631 145 622
f 49 276 282
f 609 988 330
f 609 876 988
f 563 622 501
f 532 914 747
f 843 221 796
f 221 989 796
f 430 486 431
f 350 349 812
f 858 473 339
f 796 61 968
f 796 968 843
f 93 926 990
f 926 928 990
f 595 991 992
f 991 911 992
f 462 750 460
f 512 418 109
f 726 727 379
f 712 108 496
f 254 712 688
f 993 372 433
f 462 461 680
f 461 460 71
f 428 694 773
f 852 850 734
f 994 883 357
f 164 456 455
f 550 549 995
f 996 735 320
f 248 801 411
f 526 997 515
f 124 431 486
f 998 642 641
f 426 912 351
f 225 384 115
f 265 785 887
f 999 883 994
f 166 881 429
f 56 146 145
f 531 219 221
f 111 5 583
f 788 959 789
f 867 157 211
f 81 552 82
f 337 236 262
f 177 121 285
f 53 896 969
f 721 827 722
f 1000 228 36
f 823 395 397
f 374 373 966
f 1001 779 778
f 357 884 778
f 884 1001 778
f 337 336 1002
f 667 834 771
f 579 580 933
f 694 695 925
f 958 898 455
f 298 655 350
f 8 104 210
f 1003 1004 425
f 1000 36 138
f 1005 1006 1007
f 960 1008 183
f 350 714 298
f 583 278 87
f 80 213 215
f 630 405 56
f 646 847 208
f 1009 795 590
f 547 98 546
f 721 502 444
f 444 502 442
f 759 761 807
f 742 82 552
f 148 82 742
f 83 82 148
f 770 1010 768
f 1010 852 768
f 1011 525 524
f 1011 1012 525
f 797 1012 1011
f 798 1012 797
f 798 176 1012
f 176 400 1012
f 150 149 798
f 149 176 798
f 459 168 393
f 459 741 451
f 1011 741 797
f 1012 363 525
f 363 1012 400
f 741 410 451
f 558 738 664
f 505 477 691
f 691 477 561
f 477 1013 561
f 311 1013 477
f 716 996 593
f 416 1014 580
f 1014 933 580
f 651 652 816
f 651 816 452
f 75 385 76
f 76 385 439
f 816 652 75
f 652 385 75
f 652 933 385
f 386 933 1014
f 72 74 231
f 733 716 734
f 716 1015 734
f 792 736 850
f 736 734 850
f 633 576 715
f 906 907 633
f 907 891 633
f 576 633 891
f 209 866 415
f 166 133 881
f 323 881 497
f 1016 952 384
f 437 1017 71
f 881 323 649
f 323 322 649
f 493 777 494
f 1007 1006 1018
f 460 750 413
f 1019 915 895
f 524 479 410
f 390 1004 388
f 522 389 388
f 329 328 606
f 1008 353 986
f 725 953 719
f 1020 884 775
f 767 83 682
f 927 950 928
f 941 625 565
f 813 350 812
f 811 714 813
f 714 350 813
f 229 230 608
f 7 208 5
f 208 847 5
f 553 961 554
f 848 740 739
f 738 740 88
f 89 740 848
f 88 740 89
f 226 517 227
f 938 227 517
f 517 211 758
f 921 105 840
f 105 1021 840
f 105 107 1021
f 1021 107 840
f 107 839 840
f 625 872 565
f 987 1008 986
f 71 1017 461
f 942 536 923
f 771 668 667
f 680 1017 437
f 855 485 521
f 485 430 521
f 818 806 503
f 818 503 1022
f 941 565 616
f 565 564 616
f 708 54 204
f 708 204 648
f 595 992 594
f 173 208 7
f 109 1023 511
f 987 986 970
f 986 971 970
f 465 1024 463
f 805 1025 862
f 1025 1026 862
f 1027 455 457
f 934 643 935
f 47 1028 710
f 824 1029 1030
f 190 893 655
f 388 1004 901
f 1031 1032 1033
f 762 800 763
f 99 522 901
f 522 388 901
f 425 1004 390
f 1004 1033 901
f 977 409 976
f 1034 990 928
f 1035 619 512
f 619 1036 512
f 260 261 621
f 239 612 240
f 925 695 1037
f 281 727 608
f 97 96 155
f 958 1027 957
f 462 751 750
f 53 969 51
f 86 845 300
f 64 242 243
f 508 507 543
f 407 508 543
f 359 780 358
f 38 81 354
f 957 445 958
f 445 443 958
f 790 832 788
f 751 790 749
f 790 791 749
f 1027 457 939
f 458 371 369
f 426 665 912
f 777 493 830
f 1010 770 930
f 770 1038 930
f 369 54 56
f 687 80 215
f 380 376 456
f 398 543 507
f 828 830 670
f 687 215 117
f 679 119 534
f 827 721 668
f 182 1039 1040
f 30 702 1037
f 702 703 1037
f 1041 511 983
f 511 982 983
f 344 467 95
f 481 900 945
f 434 575 363
f 501 1042 814
f 1042 1039 814
f 224 223 85
f 784 890 214
f 825 45 981
f 684 642 998
f 562 192 191
f 975 124 1043
f 716 735 996
f 896 897 969
f 518 969 519
f 969 897 519
f 202 495 276
f 495 887 276
f 1005 541 540
f 1022 566 871
f 563 629 622
f 590 592 278
f 592 815 278
f 77 354 87
f 931 869 861
f 869 885 861
f 263 887 495
f 366 367 407
f 367 508 407
f 529 482 481
f 802 528 945
f 856 872 855
f 872 864 855
f 142 477 472
f 103 1044 526
f 859 692 857
f 692 435 857
f 440 600 693
f 414 980 47
f 234 601 8
f 174 113 324
f 445 1045 667
f 382 1046 284
f 925 1037 699
f 245 1031 246
f 1031 498 246
f 712 254 372
f 58 1002 137
f 812 361 362
f 45 1047 981
f 515 997 89
f 997 487 89
f 124 997 526
f 124 486 997
f 623 944 343
f 931 852 1010
f 754 760 759
f 561 1013 732
f 1013 310 732
f 311 310 1013
f 628 764 1048
f 858 1049 473
f 857 1049 858
f 70 610 857
f 610 1049 857
f 1049 610 473
f 186 859 513
f 859 1050 513
f 1050 338 513
f 1050 339 338
f 1050 858 339
f 859 858 1050
f 222 989 221
f 837 752 978
f 752 916 978
f 1045 984 667
f 326 744 771
f 396 1051 696
f 461 1017 680
f 437 438 680
f 360 784 28
f 784 1052 28
f 1053 889 326
f 1054 702 947
f 1035 512 1055
f 512 1041 1055
f 707 353 1008
f 1040 184 182
f 535 895 289
f 984 760 754
f 1056 840 1057
f 356 409 977
f 3 916 752
f 27 951 1058
f 686 221 843
f 717 1052 214
f 1052 784 214
f 820 191 841
f 824 825 1029
f 825 981 1029
f 279 727 281
f 177 1059 122
f 122 1059 754
f 416 866 1014
f 286 1059 177
f 1060 866 754
f 1060 754 1059
f 286 386 1059
f 1059 386 866
f 386 1014 866
f 1061 919 927
f 684 998 946
f 697 781 705
f 698 706 718
f 751 462 832
f 462 681 832
f 609 614 1062
f 842 843 747
f 843 748 747
f 993 712 372
f 696 1051 409
f 1051 976 409
f 1063 873 828
f 1063 828 382
f 828 1064 382
f 1064 828 730
f 828 669 730
f 730 1046 1064
f 1064 1046 382
f 283 44 49
f 44 283 32
f 283 731 32
f 1065 426 60
f 753 424 3
f 424 427 3
f 471 424 753
f 471 753 822
f 753 1066 822
f 752 1066 753
f 875 877 876
f 877 789 876
f 1067 968 59
f 369 312 458
f 867 403 195
f 384 952 115
f 910 991 313
f 910 911 991
f 457 456 1068
f 369 1069 54
f 56 794 369
f 368 808 369
f 808 1069 369
f 794 56 405
f 794 405 312
f 371 458 379
f 371 379 370
f 54 1069 783
f 808 783 1069
f 45 825 823
f 158 280 159
f 997 486 487
f 796 989 267
f 999 819 883
f 379 458 726
f 505 488 477
f 399 508 45
f 508 882 45
f 993 555 841
f 571 546 250
f 546 251 250
f 955 1027 939
f 42 944 41
f 928 950 940
f 749 413 750
f 930 931 1010
f 294 835 293
f 410 191 466
f 768 734 769
f 734 907 769
f 90 952 1016
f 1037 695 844
f 218 1044 103
f 648 429 649
f 711 542 709
f 542 541 709
f 1056 566 1070
f 566 420 1070
f 746 1071 148
f 446 147 148
f 492 900 490
f 529 1001 1020
f 995 549 772
f 680 438 681
f 644 831 645
f 527 860 104
f 1022 856 818
f 53 289 896
f 85 223 109
f 781 865 966
f 865 374 966
f 481 945 528
f 780 359 778
f 359 357 778
f 296 976 1051
f 1051 69 68
f 1048 764 1070
f 764 763 1070
f 1072 1026 1073
f 963 517 404
f 346 978 916
f 755 756 661
f 395 1074 450
f 529 954 922
f 674 612 271
f 775 884 883
f 846 358 780
f 846 780 10
f 293 1075 772
f 300 845 217
f 17 868 653
f 1009 278 583
f 529 967 1001
f 1076 302 156
f 792 851 1072
f 851 1026 1072
f 259 910 313
f 1077 844 809
f 699 701 275
f 1078 1058 951
f 1039 726 814
f 158 160 613
f 746 148 335
f 295 976 296
f 58 57 401
f 196 224 197
f 403 963 404
f 867 211 963
f 922 966 482
f 633 632 906
f 209 834 667
f 250 1079 571
f 250 943 1079
f 361 812 979
f 252 251 979
f 361 979 546
f 979 251 546
f 767 81 83
f 709 541 412
f 1080 193 472
f 1080 637 451
f 748 843 968
f 59 960 532
f 184 1081 532
f 1040 1081 184
f 1005 1007 541
f 1007 412 541
f 87 355 682
f 116 634 475
f 238 995 1075
f 241 983 57
f 302 1076 935
f 568 901 542
f 901 1033 542
f 56 55 146
f 330 672 670
f 669 828 670
f 1048 1070 420
f 568 711 660
f 711 710 660
f 354 973 38
f 606 328 1082
f 328 972 1082
f 473 642 683
f 602 37 228
f 684 683 642
f 1061 917 919
f 775 883 819
f 884 1020 1001
f 250 537 943
f 252 537 250
f 1073 1026 1025
f 274 273 588
f 273 948 588
f 974 473 602
f 602 228 974
f 985 279 301
f 821 534 118
f 534 119 118
f 743 249 411
f 743 325 249
f 628 411 764
f 628 743 411
f 529 775 737
f 331 723 951
f 488 1080 472
f 505 135 488
f 135 599 488
f 313 611 469
f 394 936 1083
f 1084 414 47
f 47 710 1084
f 414 709 412
f 1084 710 709
f 414 1084 709
f 898 676 164
f 941 616 937
f 59 426 351
f 1041 983 1055
f 628 1048 419
f 1048 420 419
f 465 464 951
f 951 723 465
f 1056 1070 840
f 455 1027 958
f 947 948 1054
f 111 583 584
f 300 232 440
f 245 267 1006
f 51 969 591
f 897 838 519
f 921 840 1070
f 921 1070 763
f 47 1047 45
f 993 433 555
f 626 771 744
f 242 48 31
f 1001 967 528
f 779 1001 528
f 761 760 939
f 609 1062 875
f 1062 614 1074
f 614 450 1074
f 878 1074 824
f 395 824 1074
f 1074 878 1062
f 878 875 1062
f 730 283 284
f 1046 730 284
f 1085 413 728
f 922 781 966
f 765 894 766
f 894 817 766
f 68 766 295
f 817 581 766
f 766 581 295
f 1086 73 232
f 108 1087 478
f 29 947 30
f 947 702 30
f 1054 948 273
f 995 772 1075
f 861 885 666
f 487 485 1088
f 328 970 972
f 676 958 443
f 197 1023 198
f 536 333 654
f 191 557 392
f 108 712 993
f 78 289 79
f 535 679 533
f 535 289 679
f 289 78 679
f 421 1022 722
f 1022 503 722
f 488 637 1080
f 1089 729 337
f 554 1089 337
f 554 961 1089
f 856 1022 872
f 1022 871 872
f 1009 590 278
f 749 791 413
f 603 844 725
f 663 664 1090
f 1002 336 137
f 288 996 320
f 288 593 996
f 913 450 614
f 822 1066 1019
f 1066 915 1019
f 23 24 449
f 276 887 282
f 934 936 788
f 936 959 788
f 209 984 754
f 754 759 244
f 1080 451 193
f 637 599 168
f 94 860 95
f 534 822 1019
f 913 614 589
f 210 467 8
f 846 10 366
f 1091 863 460
f 301 158 378
f 90 1016 19
f 865 782 803
f 782 804 803
f 1045 445 984
f 445 957 984
f 957 956 984
f 984 956 760
f 955 957 1027
f 671 672 394
f 394 672 330
f 1092 425 426
f 844 603 1037
f 603 30 1037
f 380 456 164
f 975 163 123
f 1006 989 1018
f 989 222 1018
f 598 975 845
f 532 960 184
f 1039 182 726
f 182 229 726
f 267 989 1006
f 637 168 451
f 135 134 599
f 143 270 310
f 403 867 963
f 1008 960 707
f 190 265 264
f 1093 791 1029
f 791 1030 1029
f 907 734 1015
f 379 727 279
f 329 608 230
f 329 606 608
f 992 489 932
f 917 1090 664
f 690 268 1090
f 268 663 1090
f 826 945 900
f 826 900 492
f 948 52 588
f 623 658 944
f 590 795 591
f 454 757 579
f 346 661 978
f 661 756 978
f 978 519 837
f 596 611 991
f 993 841 108
f 144 910 259
f 67 589 68
f 774 494 777
f 226 225 115
f 1053 1094 889
f 345 889 661
f 889 1094 661
f 1053 326 209
f 503 502 722
f 457 1068 939
f 394 1095 671
f 931 861 862
f 878 824 1030
f 1020 775 529
f 191 820 557
f 936 1096 959
f 876 959 988
f 959 1096 988
f 1096 330 988
f 394 1096 936
f 1096 394 330
f 1009 583 795
f 148 1071 446
f 1071 447 446
f 836 447 1071
f 569 1071 746
f 569 836 1071
f 742 1016 384
f 578 674 1097
f 1031 1033 498
f 566 421 420
f 421 722 419
f 722 827 419
f 566 1022 421
f 620 145 144
f 562 392 391
f 1024 465 723
f 396 69 1051
f 159 281 607
f 281 608 607
f 601 233 270
f 601 27 8
f 27 601 189
f 1008 987 183
f 654 1098 348
f 606 903 1099
f 264 903 190
f 190 903 1082
f 1082 893 190
f 972 893 1082
f 893 972 636
f 660 710 1028
f 23 449 167
f 512 511 1041
f 1055 983 241
f 441 1055 241
f 895 535 1019
f 535 534 1019
f 837 838 752
f 838 915 752
f 1066 752 915
f 289 895 896
f 1003 1092 498
f 500 995 516
f 293 772 161
f 238 1075 293
f 349 348 1098
f 1005 1031 1006
f 1031 245 1006
f 1003 425 1092
f 1003 498 1004
f 498 1033 1004
f 1005 540 1031
f 540 542 1031
f 1033 1032 542
f 542 1032 1031
f 297 655 298
f 357 356 994
f 356 977 994
f 994 977 718
f 290 406 491
f 159 1099 902
f 1099 903 902
f 88 920 918
f 412 1100 728
f 1100 1085 728
f 647 52 51
f 647 588 52
f 851 852 1026
f 718 977 295
f 68 296 1051
f 447 572 194
f 210 104 94
f 1077 809 953
f 965 606 1082
f 271 612 272
f 917 664 918
f 918 738 88
f 664 738 918
f 878 1030 877
f 1030 791 877
f 475 1101 474
f 418 619 125
f 1060 1059 866
f 951 464 1078
f 700 992 911
f 91 990 1000
f 990 1034 1000
f 1056 1057 564
f 1057 615 564
f 617 321 194
f 321 617 689
f 854 474 1101
f 632 634 962
f 891 1015 577
f 1015 716 577
f 891 907 1015
f 473 974 642
f 803 374 865
f 544 804 545
f 803 571 1079
f 407 846 366
f 999 994 718
f 159 902 264
f 607 606 159
f 606 1099 159
f 537 252 333
f 905 642 974
f 331 27 188
f 632 962 906
f 1038 770 964
f 1038 964 943
f 962 116 964
f 770 769 964
f 964 769 962
f 769 906 962
f 156 31 50
f 5 113 6
f 641 928 940
f 91 93 990
f 550 995 548
f 881 649 429
f 154 96 1102
f 1063 382 873
f 382 874 873
f 154 1102 589
f 648 204 429
f 852 862 1026
f 781 954 705
f 954 737 705
f 973 77 76
f 973 354 77
f 1035 1055 619
f 86 224 85
f 47 981 1047
f 1029 981 980
f 243 178 64
f 178 243 31
f 803 116 374
f 1103 508 367
f 803 1079 943
f 803 943 116
f 367 12 132
f 367 132 46
f 313 991 611
f 1104 932 1105
f 491 678 492
f 677 639 1106
f 620 144 621
f 1057 840 946
f 840 685 946
f 1057 946 615
f 659 1106 673
f 741 1011 524
f 67 69 913
f 789 877 791
f 751 832 790
f 568 542 711
f 635 17 653
f 26 266 25
f 103 527 104
f 947 29 423
f 765 96 894
f 765 1102 96
f 1102 765 68
f 589 1102 68
f 94 467 210
f 337 1002 554
f 404 793 336
f 554 58 402
f 708 489 1107
f 489 992 1107
f 700 708 1107
f 992 700 1107
f 659 46 1106
f 548 995 500
f 810 953 809
f 965 1082 903
f 578 240 612
f 1106 639 673
f 229 182 181
f 961 463 1024
f 235 467 233
f 235 234 8
f 737 954 529
f 205 428 204
f 595 596 991
f 655 635 653
f 653 868 654
f 904 427 248
f 220 219 863
f 1108 222 220
f 1108 220 1085
f 1106 46 132
f 1109 188 237
f 1109 723 188
f 961 1024 237
f 1024 1109 237
f 723 1109 1024
f 555 433 128
f 1065 60 247
f 1065 247 499
f 498 1092 499
f 1092 1065 499
f 426 1065 1092
f 1034 641 228
f 516 995 238
f 880 294 131
f 254 688 689
f 108 479 1087
f 478 1087 479
f 919 920 940
f 854 1101 490
f 490 1101 475
f 656 715 491
f 475 656 490
f 490 656 491
f 199 29 162
f 853 80 79
f 28 1052 853
f 1000 1034 228
f 1034 928 641
f 333 332 1098
f 332 349 1098
f 654 333 1098
f 812 349 979
f 349 332 979
f 654 924 536
f 197 224 693
f 196 704 223
f 158 301 279
f 1110 1016 742
f 1111 1112 1113
f 195 1112 157
f 516 238 578
f 1037 703 699
f 674 271 1
f 1097 1 216
f 1097 516 578
f 1097 674 1
f 1097 216 500
f 1097 500 516
f 999 718 819
f 842 747 539
f 538 539 747
f 914 532 622
f 748 968 1067
f 748 1067 59
f 748 59 532
f 669 671 730
f 1095 731 671
f 731 730 671
f 731 1095 50
f 156 50 1095
f 1095 394 156
f 1076 1083 935
f 935 1083 936
f 1083 156 394
f 156 1083 1076
f 1042 501 622
f 1042 1081 1039
f 1039 1081 1040
f 960 59 707
f 622 1081 1042
f 532 1081 622
f 304 163 303
f 1054 273 702
f 554 1002 58
f 510 512 109
f 263 495 160
f 263 160 264
f 390 1073 425
f 390 792 1072
f 1072 1073 390
f 650 1025 805
f 425 1073 1025
f 1025 650 425
f 80 853 717
f 717 853 1052
f 904 248 4
f 847 795 583
f 847 583 5
f 1086 232 104
f 464 600 74
f 231 600 440
f 72 232 73
f 73 464 74
f 73 1078 464
f 600 231 74
f 27 1086 8
f 1086 104 8
f 1086 1078 73
f 1058 1078 1086
f 336 793 130
f 93 1104 926
f 1104 1114 926
f 927 926 1114
f 1061 927 690
f 927 1114 690
f 690 1114 1104
f 1061 690 917
f 690 1090 917
f 1105 932 690
f 1104 594 932
f 594 992 932
f 1104 1105 690
f 594 1104 347
f 347 1104 93
f 677 1106 132
f 510 109 511
f 940 920 937
f 868 870 654
f 869 924 870
f 870 924 654
f 1038 942 930
f 943 942 1038
f 1028 46 660
f 1028 47 46
f 515 787 526
f 564 566 1056
f 725 844 953
f 1077 953 844
f 845 1043 218
f 218 1043 1044
f 1044 1043 124
f 526 1044 124
f 1016 1110 19
f 129 1112 555
f 1111 1113 84
f 1111 555 1112
f 209 415 1053
f 487 1088 89
f 89 1088 88
f 88 1088 624
f 485 624 1088
f 376 1068 456
f 939 1068 1115
f 62 1115 376
f 1115 1068 376
f 1116 807 761
f 761 939 1116
f 509 807 1115
f 807 1116 1115
f 1115 1116 939
f 662 509 1115
f 62 662 1115
f 157 1112 129
f 555 1111 556
f 556 1111 392
f 392 1111 84
f 84 1113 170
f 1113 266 170
f 1113 1112 195
f 195 266 1113
f 693 600 567
f 175 274 207
f 414 413 791
f 860 527 95
f 527 526 95
f 787 95 526
f 20 19 1110
f 334 20 1110
f 334 1110 742
f 1117 160 159
f 1117 159 264
f 1117 264 160
f 223 704 109
f 1103 882 508
f 1103 367 46
f 235 8 467
f 940 1118 641
f 1118 998 641
f 1118 615 998
f 615 946 998
f 616 615 1118
f 940 616 1118
f 944 658 41
f 64 343 48
f 48 343 944
f 198 1023 704
f 1023 982 511
f 160 203 613
f 215 613 203
f 718 706 819
f 819 706 775
f 55 910 146
f 146 910 144
f 724 64 180
f 1023 109 704
f 178 180 64
f 1103 46 882
f 619 618 125
f 618 126 125
f 512 1036 418
f 418 1036 619
f 441 619 1055
f 548 619 441
f 548 126 618
f 414 1093 980
f 980 1093 1029
f 693 983 197
f 57 983 567
f 567 983 693
f 197 982 1023
f 975 1043 845
f 304 164 163
f 303 163 110
f 163 1119 110
f 975 1119 163
f 598 110 975
f 110 1119 975
f 598 845 86
f 415 483 1053
f 483 1094 1053
f 1094 483 661
f 889 249 326
f 249 889 833
f 91 1000 92
f 1000 484 92
f 138 484 1000
f 484 468 92
f 107 473 683
f 145 620 622
f 131 422 880
f 1007 1018 412
f 1018 1100 412
f 1100 1018 1085
f 1085 460 413
f 1085 220 460
f 863 1091 220
f 460 220 1091
f 1085 1018 1108
f 1018 222 1108
f 729 1089 1120
f 961 1120 1089
f 236 729 1120
f 961 237 1120
f 236 1120 237
f 939 760 956
f 260 621 144
f 955 939 956
f 383 227 140
f 227 387 140
f 1058 1086 27
f 791 1093 414

