# https://github.com/mikedh/trimesh
v -0.08286918 -0.02368702 -0.11047230
v -0.08170610 -0.02427199 -0.11146417
v -0.09592736 -0.06625322 -0.09556332
v -0.08112106 -0.06926152 -0.10853088
v -0.08863600 -0.45084550 -0.04994600
v -0.09040638 -0.45280052 0.00394635
v -0.13593800 -0.45141400 -0.02228800
v -0.07040000 -0.31449100 0.12834600
v -0.07020200 -0.36209300 0.12853800
v -0.04506200 -0.36197400 0.14199100
v -0.13388600 -0.26629000 0.03894300
v -0.13915200 -0.26601900 0.01154900
v -0.13003900 -0.03450850 -0.07009000
v -0.10825778 0.01279491 -0.09269829
v -0.08441149 -0.02055786 -0.10954453
v -0.12723100 -0.14979300 -0.06994000
v -0.12816700 -0.11136500 -0.06999000
v -0.09205400 -0.36228000 0.11087700
v -0.05716500 -0.45088000 -0.03061400
v -0.12406000 -0.26652500 0.06504400
v 0.06302400 -0.45085600 0.13544700
v 0.02999909 -0.39820944 0.15524930
v 0.05797194 -0.40422059 0.14616418
v -0.05659607 0.24672555 0.04737796
v -0.07660076 0.21307207 0.04124940
v -0.02510000 0.20672480 0.05297500
v -0.12442300 -0.26507700 -0.06979000
v -0.12535900 -0.22664900 -0.06984000
v -0.10863800 -0.26474700 -0.09485700
v 0.01449650 0.04442900 -0.07670100
v -0.00336970 0.09726545 -0.08711879
v -0.01288370 0.08559779 -0.09319639
v 0.07066250 -0.18679550 -0.09905950
v 0.03189323 -0.16477812 -0.11954725
v 0.06653075 -0.14821075 -0.09258625
v 0.04775900 0.04284600 0.11649900
v 0.08115175 -0.00130289 0.12471845
v 0.07167800 0.04276900 0.12001400
v 0.12628500 -0.36039900 -0.08824400
v 0.14062700 -0.36056600 -0.04629600
v 0.06441550 -0.44910050 -0.08606550
v 0.04486900 -0.44971700 -0.05469400
v 0.00051800 -0.44912600 -0.13957200
v 0.01317936 -0.41373276 -0.14636442
v 0.02952600 -0.44887500 -0.13751800
v -0.08509989 -0.40911348 -0.11475843
v -0.06465436 -0.40278420 -0.13123534
v -0.08111300 -0.45008600 -0.11222600
v -0.13627400 -0.36300900 0.03386500
v -0.14242118 -0.32129414 0.02422345
v -0.13978800 -0.36313700 0.01161100
v -0.05602400 -0.44973800 -0.12691700
v -0.04114800 0.04327600 0.07937100
v -0.03713600 0.08413820 0.07277200
v -0.06691400 0.04298050 0.06160400
v -0.03981100 -0.26403500 -0.13900900
v 0.03695600 -0.45120200 0.14467500
v 0.13997400 -0.44883800 -0.01951700
v 0.14302300 -0.44906300 0.00777200
v 0.13430200 -0.44960700 0.06165500
v -0.12221600 -0.36318100 -0.06970700
v -0.10678950 -0.36299600 -0.09125200
v -0.12116200 -0.40699600 -0.06949300
v 0.09995928 -0.01819010 -0.04320974
v 0.10524132 -0.06604426 -0.04964168
v 0.05413500 -0.03245650 -0.07316600
v -0.10170864 -0.05596309 0.06102364
v -0.08816497 -0.06138934 0.07432240
v -0.08828573 -0.05175416 0.07188356
v -0.01814413 -0.40486630 -0.14858580
v 0.01985157 -0.39643009 -0.14831240
v -0.00030849 -0.39243513 -0.14952617
v 0.11944300 -0.44849500 -0.07615400
v -0.14070687 -0.40199025 0.02307769
v 0.14153600 -0.36116300 0.04262900
v 0.14689600 -0.30887706 0.01856954
v 0.14543365 -0.30469933 0.03800526
v -0.13643200 -0.45171200 0.00544800
v -0.13667492 -0.12838111 -0.01100064
v -0.13653750 -0.12929403 -0.01168548
v -0.13690099 -0.12944212 -0.00982453
v -0.03458427 -0.06243531 -0.13201542
v -0.03325606 -0.05199904 -0.12891619
v 0.01413360 -0.06002575 -0.10768343
v 0.00666044 -0.04939140 -0.10883124
v 0.01417300 0.33022125 -0.01055500
v -0.09268000 0.04268500 0.04383700
v -0.09506635 -0.01320176 0.05959890
v -0.13940200 -0.26571700 -0.01635500
v -0.14051441 -0.30803239 -0.01880565
v -0.06974685 -0.21936571 -0.12493547
v -0.06778300 -0.26423400 -0.12905700
v -0.08774400 -0.26444200 -0.11618900
v -0.07384700 0.45101850 -0.03033200
v -0.08341234 0.42460982 -0.06350354
v -0.11025650 0.45057825 -0.05218900
v -0.09095500 0.04309700 -0.10473500
v -0.09647319 0.06180009 -0.09566832
v -0.10660174 0.05855997 -0.09126731
v 0.01923800 -0.26385900 -0.13826200
v 0.04194900 -0.31400600 -0.14038100
v -0.02253235 -0.01418113 -0.11534745
v -0.00955933 -0.00757879 -0.10708138
v -0.04572000 0.04377200 -0.10268300
v 0.13011100 -0.15032500 0.08693150
v 0.13071000 -0.11167400 0.08759600
v -0.07911428 -0.30679545 -0.12768757
v -0.00854376 0.31466700 -0.05938651
v -0.01230027 0.32341421 -0.06284066
v 0.13860100 0.31589267 0.09585300
v 0.13951700 0.36138645 0.09678633
v -0.13097500 0.00391975 -0.07014000
v -0.12093400 0.04257300 -0.08706700
v 0.13585300 0.17941134 0.09305300
v 0.09813130 0.14868137 0.10132534
v 0.07742027 0.19375286 0.10643278
v 0.11150200 -0.26648100 0.10762600
v 0.12831400 -0.26627800 0.08493800
v 0.12527600 -0.40564000 0.08210400
v 0.04054480 0.09370280 -0.05188200
v 0.13402100 0.08842378 0.09118633
v 0.12122700 0.04281000 0.10539300
v -0.07881588 0.07899820 -0.10179183
v -0.09557625 0.07373490 -0.09449599
v -0.02838900 -0.44941500 -0.13608200
v -0.02169370 -0.45599749 -0.10257290
v -0.05955450 -0.15057750 0.10986000
v -0.09990614 -0.18057771 0.08970806
v -0.06323600 -0.18934800 0.11595800
v -0.14054009 -0.31229557 -0.02485128
v -0.06991700 -0.40719300 0.12853200
v -0.02186680 -0.40769975 0.15167304
v -0.04851050 -0.03426550 0.09156650
v -0.06673712 -0.03559167 -0.11798647
v -0.07397378 -0.45584912 0.02572199
v -0.12315000 -0.45216800 0.05914900
v -0.13191800 -0.45196600 0.03283000
v 0.05000300 0.00612825 -0.06669250
v 0.11653135 0.32905542 0.05058550
v 0.11317603 0.34235503 0.04198671
v 0.11655885 0.35510003 0.05220066
v 0.09703000 0.04427200 -0.02400600
v 0.09634217 0.00018327 -0.04232947
v 0.11411956 -0.00882962 -0.02822773
v 0.03521860 0.14269260 -0.04354500
v -0.14010822 0.26889801 -0.07233222
v -0.09589735 -0.15146436 0.08687640
v -0.03101000 -0.36197300 -0.15099600
v -0.08179281 -0.31115396 -0.12525431
v -0.14338711 0.35951801 -0.07318911
v -0.09079172 0.34532338 -0.07376018
v -0.14174767 0.31420801 -0.07276067
v -0.10733327 -0.40775650 0.10090852
v -0.11031800 -0.36251500 0.08957200
v 0.02597100 -0.34179200 -0.15060200
v 0.13872700 0.04350600 0.03415000
v -0.01059250 0.04312100 0.09383500
v 0.01996300 0.04296600 0.10829900
v 0.12404973 0.00695132 -0.00858924
v 0.12613622 -0.02019206 -0.01842716
v 0.13059742 0.00380666 -0.00185235
v 0.11125400 -0.36061700 -0.08031400
v 0.12328300 -0.36843700 -0.09022900
v 0.11692400 -0.37254100 -0.09426600
v 0.12714500 -0.31385500 0.08389300
v -0.01506870 0.15572889 -0.08953930
v 0.00874276 0.17095035 -0.07053489
v 0.06267700 -0.36117300 -0.08493700
v 0.07832700 -0.36102600 -0.07780600
v 0.07251800 -0.36957200 -0.10046200
v 0.14503652 -0.40028576 0.03648244
v 0.02667100 -0.37098100 -0.15048700
v 0.02218400 -0.36133100 -0.15316000
v 0.03567200 -0.37560300 -0.14496600
v 0.05017500 -0.36126800 -0.09478900
v 0.10575475 0.45225525 0.07733525
v 0.14134900 0.45237400 0.09865300
v 0.10482952 -0.12776245 -0.06302909
v 0.11236901 -0.12811883 -0.05588413
v 0.10648157 -0.13983308 -0.06393406
v -0.05561700 -0.36231000 -0.14103000
v 0.10952400 -0.31359800 -0.09821300
v -0.09136300 -0.36281100 -0.11279700
v 0.10936200 0.04275800 0.11350500
v 0.11493267 0.02053457 0.10501395
v -0.12967800 -0.45108700 -0.04912700
v -0.01319754 0.31330020 -0.06239500
v -0.01023100 -0.26391000 -0.14189100
v -0.02055066 -0.21495210 -0.14178341
v 0.00032174 -0.22112524 -0.13941443
v -0.13368000 -0.36325400 -0.04282200
v -0.12332000 -0.31412900 -0.06974900
v -0.12827036 -0.32331075 0.06916723
v -0.11520225 -0.31687010 0.08924919
v -0.02569400 -0.45091450 -0.01128250
v -0.04993876 -0.45555781 0.03869831
v 0.02532300 -0.45033300 -0.02332250
v 0.00577700 -0.45094900 0.00804900
v 0.09983900 -0.26414400 -0.09370200
v 0.11684900 -0.26441200 -0.07203300
v 0.11273558 -0.29538357 -0.08184384
v -0.01306400 0.32931180 0.03317840
v -0.00905200 0.37017420 0.02657960
v 0.14374219 -0.15392331 0.02635446
v 0.14374067 -0.15162949 0.02700466
v 0.14350570 -0.15440768 0.02909088
v 0.07073600 -0.26674100 0.13769900
v 0.09030200 -0.26664400 0.12637700
v 0.13223066 -0.21907897 -0.04852397
v 0.13288400 -0.26478900 -0.04289700
v -0.07587549 0.25781277 0.03368712
v -0.06928604 0.26666344 0.03610555
v -0.08079351 0.26719972 0.02927989
v 0.03872800 -0.36178800 0.15160400
v 0.01038700 -0.36183700 0.15442400
v -0.09820736 -0.06976277 0.06736686
v 0.14629871 -0.16200608 -0.02620643
v 0.14630400 -0.16298342 -0.02657485
v 0.14570336 -0.15744595 -0.02728578
v -0.05219175 -0.07303625 0.09766425
v 0.14136200 -0.44932200 0.03516700
v 0.09487600 -0.45012300 0.06303150
v -0.10953255 -0.30704001 0.09656373
v -0.09233500 -0.26684100 0.11069300
v -0.11011900 -0.26671400 0.08921600
v -0.13355044 0.08765800 -0.07061844
v 0.02025246 -0.40269169 0.15391799
v 0.00961200 -0.45153000 0.14879000
v 0.02456620 0.24067220 -0.02687100
v 0.08027214 0.27142274 -0.01310424
v 0.08055622 0.27108959 -0.01309599
v 0.09594800 -0.29692300 -0.10653700
v 0.08012900 -0.27732200 -0.11380500
v 0.04587100 0.04471300 -0.06021900
v -0.03312400 0.12500040 0.06617300
v -0.12950769 -0.22704885 0.05871692
v -0.12827771 -0.22927796 0.06234434
v 0.02989240 0.19168241 -0.03520800
v 0.12891300 -0.22762700 0.08560250
v 0.14364173 -0.21924998 0.03900617
v 0.12951200 -0.18897600 0.08626700
v 0.13983400 -0.26602900 0.05973000
v 0.10640745 -0.08235332 -0.05201544
v 0.06239900 -0.10962600 -0.08611300
v 0.10592261 -0.07002219 -0.04996311
v 0.11805513 -0.08307853 -0.04264396
v 0.14642302 -0.16630910 -0.02541731
v 0.14622177 -0.16323977 -0.02576654
v 0.14427988 -0.16234941 0.02336908
v 0.07145050 0.04449250 -0.04211250
v 0.03547650 -0.45067350 0.02637650
v 0.07479425 -0.22538025 -0.10553275
v -0.13496274 0.00926461 -0.04005238
v -0.13777200 0.04220100 -0.05168300
v 0.12597500 -0.36143300 0.08284800
v 0.10911100 -0.36156200 0.10721900
v 0.05826700 -0.07104125 -0.07963950
v 0.01646710 -0.06208464 -0.10700512
v -0.07080000 0.04341100 -0.10644400
v -0.11442492 0.25221482 -0.01528242
v -0.11968608 0.27673004 -0.03132944
v -0.02108800 0.24758700 0.04637600
v -0.09003487 -0.12164254 0.08524785
v 0.14621800 -0.26547000 0.01061600
v 0.13906003 -0.21344185 -0.03600389
v 0.14559049 -0.16688790 -0.02783774
v 0.14882610 -0.20274783 -0.00861629
v -0.14113646 -0.31409204 -0.00131942
v -0.13903700 -0.36323100 -0.01667000
v -0.10770500 -0.45233000 0.08863700
v -0.10275300 -0.45044800 -0.09256900
v -0.07059900 -0.26688900 0.12815400
v -0.06691750 -0.22811850 0.12205600
v 0.04399200 -0.26682300 0.14684200
v 0.05026832 -0.22810403 0.14808007
v 0.08505900 -0.36167000 0.12971600
v 0.14075350 -0.20988652 -0.02512788
v 0.14795410 -0.21831384 -0.01108268
v 0.13774953 -0.23103800 -0.03970222
v 0.14317941 -0.16104013 -0.02967213
v 0.08688100 -0.45050800 0.12148300
v 0.10771200 -0.45016700 0.10325600
v -0.06662647 -0.45218587 -0.07816025
v 0.14500100 -0.26579600 0.03824900
v -0.04482925 0.00450525 0.08546875
v 0.07016050 0.45213650 0.05601750
v 0.14192300 -0.26512800 -0.01672800
v 0.05075339 -0.21675318 0.14766582
v 0.07828117 -0.22592603 0.13105950
v -0.01790300 -0.36189500 0.15091600
v 0.10860552 -0.06138840 -0.04551290
v 0.12018944 -0.06120325 -0.03359229
v 0.13425938 -0.04219937 -0.01495792
v -0.09637774 0.12852975 -0.09028232
v -0.09150476 0.09147217 -0.09331661
v -0.10975631 0.33969917 -0.03916304
v -0.12910300 -0.07293675 -0.07004000
v 0.14666600 -0.36083700 -0.00259700
v -0.13280223 0.06949119 -0.04355240
v 0.09841609 -0.05208172 0.11223233
v 0.13190750 -0.03437200 0.08892450
v 0.08791615 -0.01102372 0.12253818
v -0.10500299 0.37874204 -0.01592806
v 0.01924000 0.28966200 -0.01853400
v -0.09074900 -0.45237400 0.11063800
v -0.12010700 -0.45081100 -0.06927800
v 0.07324450 -0.31448400 -0.10240200
v 0.08133200 -0.29068000 -0.11560300
v 0.08795891 -0.00297848 0.12270145
v 0.14776659 -0.21371358 0.00612562
v -0.04481800 -0.45208900 0.14071800
v 0.10422400 -0.44843300 -0.09892400
v -0.02510411 0.16535230 -0.09293787
v -0.05314766 0.19807437 -0.09609017
v -0.01633195 0.21082520 -0.07831911
v 0.06041900 -0.36174300 0.14447000
v -0.00020106 0.25821894 0.07606108
v 0.11733900 0.04398700 -0.00335700
v -0.00494174 0.36405818 -0.05079462
v -0.01394351 0.39701531 -0.03557049
v 0.00910600 0.37078050 -0.00257600
v -0.13499100 0.04215100 -0.01383200
v -0.13159617 0.07737811 -0.03100641
v -0.13877000 0.04213600 -0.03262800
v -0.00102800 0.45189900 0.01338200
v -0.03743750 0.45145875 -0.00847500
v -0.13287019 -0.15376047 -0.03162311
v 0.14000300 0.04309500 0.07221000
v 0.14190500 0.04329000 0.05307800
v -0.10933689 0.09791522 0.02326616
v -0.08156857 0.09698111 0.05193894
v 0.08069925 0.27016305 -0.01311916
v 0.10835612 0.23455302 0.01751805
v 0.11381779 0.24804626 0.02858933
v -0.01307500 -0.45128500 0.03816800
v -0.01798900 -0.45182900 0.14747600
v 0.12108210 0.23022697 0.04056129
v 0.11176333 0.24866410 0.05356537
v 0.13676900 0.22490511 0.09398633
v 0.05901600 -0.37678700 -0.13047650
v 0.01362198 -0.11051129 -0.11935775
v 0.01422216 -0.06906010 -0.10977606
v 0.02975541 -0.08939499 -0.10592385
v 0.13310500 0.04293000 0.09025300
v 0.13250625 0.00427900 0.08958875
v -0.14502656 0.40482800 -0.07361756
v -0.10946200 0.04278500 -0.09697800
v -0.08916469 0.18698786 0.03400988
v -0.09134574 0.20581354 0.03093658
v -0.10272759 0.19971182 0.02433024
v 0.14043300 0.40688022 0.09771967
v 0.04512798 0.40215707 0.07483428
v 0.02616921 0.40889089 0.06073031
v -0.06583612 0.27728429 -0.08414493
v -0.06831499 0.27593328 -0.08514778
v -0.04427078 0.31688736 -0.07265421
v -0.06454360 0.31928883 -0.07951985
v 0.06759426 -0.31520085 0.14406905
v 0.00166733 0.34859955 0.06708399
v 0.12457600 -0.44984800 0.08135900
v 0.04008757 -0.40901051 -0.13697177
v 0.05998700 -0.29735300 -0.12897900
v -0.13449800 -0.26540100 -0.04364200
v -0.01687800 0.04414500 -0.09318300
v -0.00814619 0.08103981 0.09771427
v -0.13191100 0.04234800 -0.07019000
v -0.01367500 -0.36175000 -0.15442400
v -0.14060877 -0.40264526 0.02334902
v 0.13595340 0.07637112 0.04802873
v 0.13130875 -0.07302300 0.08826025
v 0.01092911 0.00332596 0.11983380
v 0.09273683 -0.22872625 0.12318464
v 0.12063825 -0.30752215 -0.07228514
v 0.12182300 -0.33872600 -0.09078100
v -0.12504173 -0.11553330 0.05546984
v -0.13879777 -0.11342836 0.02865370
v -0.12736109 -0.13879016 0.05436993
v -0.14170165 -0.14431205 0.02753245
v -0.04519900 -0.26688900 0.14049600
v -0.03640686 0.38969498 -0.05649151
v -0.02709969 0.36579828 -0.06605886
v -0.04485084 0.37277793 -0.06934652
v 0.11280961 -0.20441652 -0.07111469
v -0.03639364 -0.40144063 -0.14487965
v -0.13518989 0.13296800 -0.07104689
v -0.09527965 0.15306249 -0.08870491
v -0.02925759 -0.30793424 -0.14781150
v -0.07130096 -0.30917080 -0.13223836
v -0.05871976 0.33532916 0.03356056
v -0.06320259 0.35335923 0.02573819
v -0.06817655 0.34394139 0.02727895
v -0.05249015 -0.39748194 -0.13982851
v 0.01702521 -0.13290659 -0.12184091
v -0.00174610 -0.11301769 -0.12794538
v -0.09318726 -0.14683429 -0.09906470
v 0.04765500 -0.26387100 -0.12905000
v -0.13680604 -0.12725040 -0.00929990
v -0.13722185 -0.08536020 0.03055868
v 0.09478900 -0.36083600 -0.07632000
v 0.10874797 -0.37015508 -0.08849485
v -0.12068666 -0.40020874 0.08183949
v 0.08744856 -0.45395510 -0.00380573
v -0.12629500 -0.18822100 -0.06989000
v -0.02486306 -0.03620746 0.10981671
v -0.05369668 -0.16684487 -0.13485404
v -0.05773708 -0.16209851 -0.13333376
v -0.05460970 -0.16222076 -0.13455204
v 0.07591221 -0.41505963 0.13407405
v 0.04976277 -0.31954756 0.15042049
v 0.01759225 -0.32776977 0.15795349
v 0.08396200 -0.44848400 -0.11743700
v 0.05791500 -0.44865600 -0.13016300
v 0.08316100 -0.41322800 -0.11671200
v -0.09083369 -0.09882967 0.07874056
v -0.12617262 -0.08998817 0.04950933
v 0.08616104 0.00108175 0.12362624
v 0.01185600 -0.29889590 -0.14389732
v 0.04180401 -0.22255187 0.15110470
v 0.01594900 -0.26686800 0.15046600
v 0.03782293 -0.21078416 -0.12503795
v 0.13112800 0.04372500 0.01644300
v -0.12971272 -0.04285797 0.03398640
v -0.11279539 -0.02974859 0.04709148
v -0.13184377 -0.01868933 0.02013279
v 0.11584471 0.17649394 0.01411688
v 0.12313747 0.19825202 0.03692426
v 0.12197480 0.15349526 0.03583890
v 0.12587371 0.17129909 0.04765108
v 0.08745372 0.24882746 0.10042888
v 0.07768547 0.19636952 0.10627593
v 0.09536722 0.23342248 0.09894095
v -0.02154721 0.41121115 -0.03369134
v 0.00403900 0.41133975 0.00540300
v 0.14320009 -0.15814235 0.03091160
v -0.11347538 -0.12897303 0.06812739
v -0.13533647 -0.05956532 0.02732912
v -0.13487234 -0.03716462 -0.01217750
v -0.05026215 -0.40754078 -0.13920263
v 0.09051488 0.09730636 -0.02833275
v 0.01597365 -0.45295441 -0.10390732
v 0.10489997 -0.18553086 -0.07538023
v -0.05593473 -0.15632992 -0.13430982
v 0.08025953 0.27262000 -0.01284592
v -0.07702894 0.10757633 -0.09890805
v -0.08233275 0.13740261 -0.09589046
v 0.07866330 0.19493246 0.10488997
v -0.02911200 0.16586260 0.05957400
v 0.01698228 0.18538070 0.10260154
v -0.02769695 -0.32078038 0.15094919
v -0.01699809 0.38141689 -0.05196014
v -0.06082807 -0.15698125 -0.13026026
v -0.06278885 -0.16217151 -0.12861151
v -0.08576846 -0.12484219 -0.10520497
v 0.13202044 0.09023670 0.03226920
v 0.13372689 0.09068265 0.05263707
v -0.01849506 0.14966778 -0.09260536
v -0.01491247 0.14898329 -0.09070847
v -0.01568760 0.13445379 -0.09223716
v 0.13958994 -0.04842728 -0.01087201
v 0.03719105 0.07631015 0.11735040
v -0.13652951 0.01903557 -0.02694012
v -0.11376526 0.02048384 -0.08849357
v 0.14010577 -0.05596467 -0.01242840
v 0.14199224 -0.11360633 -0.02892757
v -0.11686692 0.09929600 0.01579855
v -0.11643230 0.11227157 0.01557234
v 0.07091988 0.23137125 -0.02648055
v -0.04475850 0.38678992 0.01983845
v -0.12080250 0.09368116 0.00461851
v -0.11843012 0.09441117 0.01400476
v -0.12458000 0.04226800 0.00786900
v -0.11796772 0.19614839 -0.01700351
v -0.11877355 0.19278491 -0.02063365
v -0.11701962 0.18683201 -0.01091368
v 0.01025062 0.31370908 0.07903945
v 0.14949836 -0.40567284 0.01750275
v -0.03829969 0.10794206 -0.09999572
v -0.02670199 0.09707062 -0.09680322
v -0.05091260 0.09699030 -0.10149208
v -0.08540178 0.12521679 0.04601731
v 0.08025324 -0.19000562 0.13181856
v 0.09403467 -0.21939573 0.12218366
v 0.09332896 -0.18622201 0.11994642
v 0.09884980 0.25082218 0.09718513
v -0.13664075 -0.20770672 -0.02522869
v -0.13648455 -0.22513735 -0.02761733
v -0.13714188 -0.13446755 -0.00843105
v -0.14151068 -0.18093336 0.02186385
v -0.13319409 -0.09642199 -0.02575189
v 0.03938435 -0.41087403 -0.13691137
v 0.02029096 -0.00751156 -0.09268698
v 0.10843303 -0.06879774 -0.04753570
v -0.13561385 -0.03274011 -0.02344192
v -0.13544203 -0.04853439 -0.02387896
v -0.13643858 -0.08049701 0.00072019
v -0.13478869 -0.08486707 -0.01775943
v 0.14841440 -0.40432345 -0.00853653
v 0.09641864 -0.45336943 0.00892966
v -0.10524822 0.38485584 -0.01780115
v -0.10464810 0.38813440 -0.01673060
v 0.14304938 -0.15223115 0.03045181
v 0.13768500 0.27039890 0.09491967
v 0.05456360 0.35195813 0.09010594
v 0.04379616 0.36068229 0.08959668
v 0.04469948 0.35169273 0.09191149
v 0.06003036 0.07758169 0.11706351
v 0.07892600 -0.26396500 -0.11200600
v -0.13395836 -0.03684013 -0.03069426
v 0.08215190 0.40607354 0.08341672
v 0.09971109 0.40092929 0.08649355
v 0.09051014 0.00001518 0.12109989
v -0.08853072 -0.09042646 -0.10227647
v -0.08175375 0.36175200 -0.07389089
v -0.07911744 0.40297883 -0.07364759
v -0.06989602 0.41501428 -0.06272696
v -0.03147647 0.41520884 -0.03617419
v 0.00395013 0.07508201 0.10243446
v -0.10321628 0.41245071 -0.04908516
v 0.08410970 0.08202670 0.11558491
v -0.02983622 0.14945030 -0.09312267
v -0.02038566 0.15450679 -0.09219635
v 0.14721271 -0.30990925 -0.01528640
v 0.03744307 0.09422873 0.11745662
v 0.01782968 0.12523622 0.10805451
v 0.00410380 0.08999244 0.10249769
v 0.09982479 -0.44497840 -0.05165795
v 0.09217161 -0.45157519 -0.03716249
v 0.09131107 -0.44777745 -0.05541506
v 0.00478711 0.30720778 0.07661945
v -0.01707600 0.28844940 0.03977720
v 0.11763423 0.27369851 0.04332490
v 0.11402136 0.25756751 0.03546644
v -0.06843270 0.31690293 -0.07906750
v -0.06851247 0.31956781 -0.07892661
v 0.09823319 -0.10735055 0.11175632
v -0.13948976 -0.18377458 0.00411247
v 0.09102100 0.04274000 0.11922700
v -0.00235787 -0.45612444 -0.05778523
v 0.01336412 -0.45405619 -0.08741544
v 0.08390742 0.30722068 0.09621212
v 0.09782033 0.35010248 0.08133092
v 0.06113996 0.10764844 0.11556964
v -0.07838909 -0.31402413 -0.12862891
v 0.05563215 0.13801177 0.11696242
v 0.00907193 0.30108385 0.08093192
v 0.12526044 0.20287282 0.05275977
v 0.12544091 0.21401444 0.05575398
v 0.00004958 -0.18385675 0.14800715
v 0.00512615 -0.19317525 0.15146549
v 0.00796130 -0.17539835 0.15061177
v -0.05077950 -0.45195650 0.09840650
v -0.06939123 -0.45579096 0.04934338
v -0.03192700 -0.45162100 0.06828700
v 0.09704660 0.38100252 0.08832997
v 0.02524885 -0.45296537 -0.10021654
v 0.06517600 -0.45039800 0.04470400
v -0.11875419 0.09978152 0.01088564
v 0.03958496 0.00147342 0.12756575
v -0.10552859 -0.21447532 0.09082879
v 0.13741852 -0.40992641 -0.05822346
v 0.13285400 -0.44865500 -0.04603100
v -0.00730495 0.25953339 0.07141590
v -0.00198012 0.26231131 0.07483364
v 0.00937971 0.11454270 -0.07783231
v -0.13665539 -0.13019041 -0.01126379
v 0.08313169 0.29641676 0.09924233
v 0.06180747 0.16939941 -0.03511251
v 0.13493700 0.13391756 0.09211967
v 0.02145162 0.18606082 0.10291218
v 0.07638343 0.19519021 0.10632572
v 0.01715122 0.18551440 0.10265965
v 0.04300430 0.22488209 0.10733207
v -0.06164734 -0.22385979 -0.13145627
v 0.12430610 0.14719311 0.05004533
v -0.13599158 -0.02191585 -0.02827186
v -0.13874270 -0.31881434 0.03755009
v -0.13435878 -0.17063954 -0.02702293
v 0.14548456 -0.16356623 -0.02791761
v 0.11952718 -0.16882906 -0.05889979
v -0.00504000 0.41103660 0.01998080
v 0.00959908 0.39635270 0.06016625
v -0.11265909 0.23748484 -0.04423021
v 0.07247219 0.14987584 -0.02965953
v 0.08764601 0.12131921 -0.02703766
v -0.13337887 0.00352955 -0.00218697
v -0.10749672 0.18401367 0.02027636
v -0.10640343 0.15305665 0.02386411
v 0.09373696 -0.14361149 0.11666787
v 0.09021387 -0.17283623 0.12224515
v -0.06963200 -0.45229200 0.12852600
v -0.03627851 -0.45670977 -0.09313783
v -0.13880645 -0.40583764 -0.02650271
v 0.00640052 -0.14063706 0.14533499
v 0.00410882 -0.15218984 0.14609042
v 0.01671522 -0.14628277 0.14998018
v 0.01698644 0.18548144 0.10259228
v 0.01704677 0.18541474 0.10263821
v -0.09226866 0.40098498 -0.07242808
v 0.00253507 0.20115603 -0.07010883
v 0.00326792 0.21337653 -0.06817916
v -0.07709146 0.27128044 0.03166216
v 0.03598384 -0.21109343 -0.12591064
v 0.13110392 -0.31061647 -0.04939550
v 0.09262577 -0.07104197 0.11674098
v -0.08972697 0.23203371 -0.08269433
v -0.06856190 0.27540905 -0.08516742
v -0.05793883 0.21414671 -0.09253451
v -0.11808858 0.20370812 -0.01923718
v -0.11868126 0.19576159 -0.02089219
v -0.04436295 0.21760060 -0.09370827
v 0.01573211 -0.05734109 -0.10627955
v 0.06839343 0.36027803 0.00362470
v 0.06607188 0.36801485 0.00532352
v 0.07191306 0.36350111 0.00730884
v -0.08229969 -0.02267891 -0.11105131
v -0.07723763 -0.01121895 -0.11152062
v -0.08150624 -0.02185338 -0.11134643
v -0.01135251 -0.08289303 0.12648422
v -0.05587300 -0.11180700 0.10376200
v -0.01155125 -0.10211925 0.13025958
v -0.06842353 0.27565096 -0.08517895
v -0.06771739 0.27555436 -0.08498376
v -0.06825718 0.27531028 -0.08521154
v -0.06244514 -0.16929379 -0.12982478
v -0.09582104 -0.20445875 -0.10306015
v -0.10628230 -0.22030790 0.09094596
v 0.08055681 0.27143677 -0.01285704
v -0.12473544 0.12757426 -0.02732941
v 0.05068398 0.26306346 0.10402921
v 0.08053133 0.17086847 -0.02215495
v -0.12716100 -0.36280000 0.06039200
v -0.13009593 0.00170101 0.01533305
v -0.13207785 -0.00625984 0.01244199
v -0.12235698 0.13546756 -0.02039720
v -0.13682933 0.17827800 -0.07147533
v 0.03705423 -0.09600587 0.14274579
v -0.00328299 -0.09277795 0.13307639
v 0.03975635 -0.11290972 0.14786499
v 0.01373106 -0.13614070 0.14840917
v -0.14171780 -0.19662719 0.01843044
v -0.13839870 -0.22310566 -0.01536877
v -0.14212763 -0.31227959 0.01793025
v 0.07947122 0.30482395 0.09759826
v 0.09967224 0.10994108 0.10493397
v -0.02175908 -0.45716723 -0.08113703
v 0.10149199 0.17126358 -0.00766322
v 0.09268910 0.19787574 -0.01530258
v -0.05539599 0.11539968 -0.09955404
v -0.13846878 0.22358800 -0.07190378
v 0.04949697 -0.09124449 0.14586676
v 0.05010246 -0.09832887 0.14747697
v 0.05497310 -0.09336251 0.14624599
v -0.00880048 -0.31452509 -0.15100288
v 0.11303885 0.14988978 0.00074186
v -0.12103590 0.29016362 -0.03916445
v -0.11874462 0.30190395 -0.03248153
v 0.08375896 -0.00751778 0.12543285
v 0.08535018 -0.00341239 0.12435214
v -0.10127929 0.38615300 -0.01238104
v -0.09276827 0.38490367 -0.00636228
v -0.10022981 0.39048374 -0.01425461
v -0.09849639 -0.17827419 -0.09728120
v -0.04633444 0.41529051 -0.02026166
v -0.09013027 0.41515721 -0.03576694
v 0.10215849 0.41106113 0.04903711
v 0.07706956 0.19455473 0.10642788
v 0.07648241 0.19396971 0.10654203
v -0.02833499 0.42264200 -0.02917072
v -0.02010349 0.41733492 -0.02824003
v 0.02999995 0.32753065 0.08798776
v 0.00884583 0.37193042 0.06670618
v -0.06824614 -0.10470233 -0.11864627
v -0.05857342 -0.16499198 -0.13290014
v 0.09363924 0.10890099 0.10793401
v 0.09833124 0.10117119 0.10726266
v 0.10537169 0.09201980 -0.01050994
v 0.10215499 0.10618762 -0.01714694
v 0.12050539 0.10638626 0.01171414
v 0.11142753 0.13169455 -0.00538586
v -0.00288081 -0.19282977 0.14812422
v -0.02881079 -0.18251414 0.13574133
v -0.02004944 -0.15855676 0.13582064
v 0.09086418 -0.45124719 -0.04963535
v -0.02084464 -0.13838719 0.13226321
v 0.04490883 -0.02292704 0.13532016
v 0.02000669 -0.01663919 0.12737246
v -0.14186784 -0.31074276 0.02666214
v 0.09774938 0.08929288 -0.02354251
v -0.06994781 0.20474386 0.04483625
v -0.01750523 -0.44993837 0.11502062
v 0.00608192 -0.45496821 0.10260699
v -0.02176470 -0.11514578 -0.13037821
v -0.04769590 -0.10476822 -0.13594090
v -0.02488243 -0.10028948 -0.13354542
v 0.13698045 -0.39242981 -0.06286066
v 0.12199900 -0.39891844 -0.08069206
v 0.12031884 -0.37787449 -0.07887523
v 0.11645621 -0.38879408 -0.08509360
v -0.02707322 -0.00057783 -0.11356405
v -0.01080069 -0.02626401 0.11474490
v 0.03197206 -0.04436115 0.13860548
v 0.00874201 -0.07348886 0.13386097
v 0.10535676 0.36207883 0.03403974
v 0.10466175 0.39357057 0.04057602
v 0.11589758 0.39210060 0.06015604
v -0.10380011 0.38489100 -0.01434864
v 0.11261483 0.40672519 0.05863619
v -0.12732002 -0.22519088 0.06285555
v -0.08149822 0.33754304 0.01271111
v 0.04393775 0.26802277 0.10380708
v 0.02870131 0.28528206 0.09359852
v 0.01767662 0.26311359 0.08715744
v 0.01411975 0.14629505 0.10461436
v 0.05532476 0.14369220 0.11622479
v -0.07012312 0.15983754 -0.09705785
v 0.03703932 -0.21045666 -0.12537234
v 0.03694576 -0.20826583 -0.12497032
v -0.02224978 -0.04785681 0.11312357
v 0.03456625 0.45201775 0.03469975
v 0.02421143 -0.38567256 -0.14852965
v 0.01573604 -0.38456254 -0.15125009
v -0.14057032 -0.40268219 0.01953553
v -0.14065340 -0.40254618 0.02285081
v 0.09437065 -0.30902929 0.12559243
v -0.08082071 -0.02285944 -0.11164906
v 0.07490344 0.36637105 0.01071774
v 0.06244014 0.37953965 0.01180281
v 0.04546103 0.40706218 0.02638310
v -0.09670367 0.35777993 -0.07252497
v -0.03522694 0.34976398 -0.07292778
v -0.06598056 0.28351816 0.03631257
v -0.07535312 0.27562083 0.03227178
v -0.07018584 0.33693673 0.02716648
v 0.06219801 -0.09141117 0.14115905
v 0.05676647 -0.09913005 0.14537723
v -0.10646362 0.24928161 0.00766501
v -0.10678044 0.27939560 0.00228390
v -0.07542119 0.15802792 0.04707953
v 0.07155106 0.30956155 -0.00938646
v 0.05626962 0.31222902 -0.01807485
v -0.10815265 0.31698692 -0.01856713
v -0.05335286 -0.45498718 -0.08333650
v -0.03910753 -0.06413054 -0.12947811
v 0.14444774 -0.40509817 -0.03397940
v 0.00515867 0.23077349 0.08953558
v 0.04978429 -0.05145966 0.13987058
v -0.05853768 -0.08315517 -0.12677666
v -0.01617066 -0.31845679 0.15279567
v 0.03007259 -0.31060741 0.15616906
v 0.13929191 0.00972877 0.05189298
v -0.07232284 0.13522085 0.05186383
v -0.14666600 0.45013800 -0.07404600
v 0.06506083 -0.10160905 0.13871508
v 0.14608035 -0.16368234 -0.02712480
v 0.12538168 -0.19647166 -0.05801663
v 0.11207488 -0.37748823 -0.08926688
v 0.08236000 -0.37797100 -0.11598700
v -0.01321728 -0.14934689 -0.13719296
v -0.00511295 -0.14943626 -0.13456829
v -0.03799359 -0.16218874 -0.13533251
v 0.08838235 0.30024383 0.09054981
v 0.08139576 0.30218403 0.09872548
v -0.00264788 -0.16354611 -0.13547245
v -0.01020262 0.30784801 -0.06425911
v 0.01707627 0.18536680 0.10264878
v 0.01759174 0.18480075 0.10282300
v -0.07868215 0.18928798 0.04226592
v 0.01119402 -0.06430223 -0.10967043
v 0.14299800 -0.14409283 0.01405863
v 0.07147093 -0.13941675 0.13627670
v 0.09649317 -0.12315015 0.11397395
v 0.10450013 0.20240639 0.00266398
v -0.07081390 0.01448800 -0.11052189
v -0.12399641 0.13204122 -0.02605772
v -0.12422169 0.13176157 -0.02884487
v 0.04101012 -0.41061235 -0.13627728
v 0.11793492 0.29293965 0.05083781
v 0.10713994 0.33046326 0.02528590
v 0.11224426 0.29802520 0.03592365
v -0.12649780 -0.05922233 0.04150500
v -0.13617512 -0.18592162 0.04503569
v -0.06684348 0.32353158 -0.07888275
v -0.14049802 -0.40197973 0.02401076
v 0.10283861 -0.06822862 -0.05190373
v -0.02971308 -0.07066664 -0.13158546
v 0.04121471 0.26294862 0.10408688
v 0.06613317 0.19584079 -0.02931305
v 0.07821031 0.21894998 -0.02256861
v 0.05704495 -0.10906670 0.14603507
v -0.12405935 0.13394712 -0.02772058
v 0.11703950 -0.39754951 -0.08588402
v 0.00186542 0.26124032 0.07703056
v -0.13898356 -0.40982276 -0.02117041
v -0.08227568 0.32693710 0.01828651
v -0.07482708 0.34020974 0.02324919
v 0.09755842 -0.22863610 0.11928660
v -0.01077832 0.26953305 -0.07354383
v 0.06793363 0.32236166 -0.00886838
v -0.11943249 -0.16006541 0.06646600
v 0.13156863 0.01204020 0.00586190
v 0.02262047 -0.45481592 0.05363604
v 0.08432897 0.31506051 0.00176459
v 0.08188298 0.27207150 -0.01076457
v 0.13949882 0.00959487 0.02629092
v -0.06428631 0.20396344 -0.09096480
v 0.00949962 -0.19762562 0.15152822
v 0.01404160 -0.18956370 0.15188900
v -0.01227000 -0.26688500 0.14886200
v 0.00232346 -0.04177461 0.12340801
v 0.14274928 -0.15454522 0.03156369
v -0.06862967 0.27562946 -0.08512756
v 0.14639330 -0.23385190 0.02914220
v 0.09526513 0.15141308 -0.01158280
v -0.02878776 -0.21070690 0.14068425
v -0.01484615 -0.23442472 0.14963138
v 0.00069029 -0.20304805 0.15103033
v -0.05788316 0.40235584 0.00221542
v -0.09756717 0.22267870 -0.08066288
v -0.10193300 0.23160897 -0.07822943
v 0.07138605 0.13009395 0.11323355
v 0.05418115 0.36117835 0.09222368
v 0.01700843 0.18527072 0.10262766
v 0.01849802 -0.45548126 0.09595156
v 0.01187152 -0.45475127 0.04878209
v -0.07177001 0.34738775 0.02265374
v 0.02408373 -0.22569383 0.15049297
v 0.09995967 -0.41250577 0.11593377
v 0.11873990 0.28340416 0.05384333
v 0.01476091 0.30015873 0.08417858
v 0.01330756 0.30527475 0.08269272
v -0.07667070 -0.31015204 -0.12968778
v -0.03494646 -0.06631123 -0.13268085
v 0.14112778 -0.08733889 0.03163288
v 0.07093582 -0.05454644 0.12701599
v -0.04968429 0.25422043 0.04951278
v 0.07675034 0.35469989 0.00845052
v -0.08758591 -0.09728284 0.08119666
v -0.08822062 -0.10129644 0.08145724
v -0.00880017 -0.17506914 -0.13842247
v 0.12914878 0.12544450 0.04562582
v -0.07384004 0.19452978 -0.08882163
v -0.10681109 0.20270079 0.01628252
v 0.01911954 -0.45469245 0.07532674
v 0.03167017 -0.45500136 0.09145169
v 0.09380496 0.06951063 0.11368723
v -0.10235874 0.38167315 -0.01143656
v 0.05651871 0.30329676 0.09272257
v -0.05518645 -0.21844192 -0.13326047
v 0.05363576 -0.09850449 0.14736834
v -0.10270153 0.29764574 0.00309535
v -0.11370023 0.29270209 -0.01708817
v -0.08368528 0.27629050 0.02497198
v -0.09114854 0.41561274 -0.07083172
v 0.07278936 -0.15992915 0.13679338
v 0.09675968 0.21665179 -0.01010395
v -0.13230029 -0.16768198 0.05348342
v 0.14156170 -0.07011682 0.03240154
v 0.14176484 -0.08404195 0.02866893
v 0.14076165 -0.06968275 0.01100613
v 0.09178448 0.08480101 -0.02908989
v -0.10357018 0.21208879 0.02230685
v -0.10111709 0.20985852 -0.08037872
v -0.09502585 0.17526657 -0.08249141
v 0.01703116 0.18536917 0.10263346
v 0.02768202 0.39204002 0.07208299
v 0.06515459 0.40927970 0.02960998
v -0.10832650 0.21681026 0.00807945
v -0.06873501 0.27545616 -0.08509753
v 0.05902212 -0.14593433 0.14539844
v -0.03237566 -0.01215713 -0.11718565
v -0.13354951 -0.19020964 0.04897383
v -0.12318949 -0.17994230 0.06742963
v -0.13833168 -0.23066664 -0.02112728
v 0.12166322 0.14016489 0.03476636
v -0.06590876 0.01454183 -0.11167805
v -0.05943686 0.00910180 -0.11274240
v 0.14128594 -0.01871721 0.03896774
v 0.01870382 0.30470059 0.08493121
v 0.04187867 -0.20678169 0.15167891
v 0.03897756 -0.17280628 0.15339213
v -0.02729873 -0.31274558 0.15091622
v -0.13614279 -0.19278028 0.04408703
v 0.06011033 0.14194998 0.11575052
v 0.14227376 -0.08797049 0.02612397
v 0.14163613 -0.09540270 0.00797072
v -0.13238573 -0.39327178 0.06127915
v 0.09791391 0.11814921 0.10528447
v -0.06386820 -0.21825501 -0.12972260
v -0.06819784 0.01298410 -0.11143325
v 0.06515700 -0.33828800 -0.08920100
v 0.14113773 -0.08384888 0.03173283
v 0.14089835 -0.03176064 0.03208764
v 0.13900786 -0.03035769 0.04455528
v 0.02983723 -0.20287987 -0.12732895
v -0.06668399 0.16979665 0.05003497
v 0.06775392 0.23377680 0.10644659
v -0.00214816 0.22589081 -0.07056233
v -0.03064113 0.24968078 -0.08623270
v 0.05975970 -0.18079037 0.14166384
v 0.06953511 -0.44761641 0.09016764
v -0.04441971 0.40017815 0.01178273
v -0.10335154 -0.00505894 0.05020450
v 0.04004000 -0.36132200 -0.10774300
v -0.00841198 -0.15925604 -0.13749490
v -0.00955137 -0.16333395 -0.13769835
f 1 2 3
f 2 4 3
f 5 6 7
f 8 9 10
f 13 14 15
f 19 6 5
f 21 23 22
f 24 25 26
f 27 28 29
f 30 32 31
f 33 34 35
f 36 37 38
f 43 44 45
f 46 47 48
f 49 50 51
f 48 47 52
f 53 54 55
f 22 57 21
f 61 62 63
f 64 65 66
f 67 68 69
f 44 70 71
f 70 72 71
f 51 74 49
f 75 76 77
f 79 80 81
f 82 83 84
f 83 85 84
f 87 88 55
f 89 90 12
f 91 92 93
f 94 95 96
f 97 99 98
f 102 103 85
f 107 93 92
f 86 108 109
f 7 6 78
f 114 116 115
f 123 98 124
f 98 99 124
f 125 43 126
f 127 128 129
f 130 90 89
f 131 132 10
f 69 68 133
f 134 83 82
f 135 136 137
f 139 140 141
f 142 144 143
f 127 147 128
f 93 107 149
f 150 151 152
f 153 18 154
f 144 159 160
f 159 161 160
f 162 163 164
f 75 77 165
f 166 167 145
f 168 169 170
f 119 171 75
f 172 173 174
f 175 168 170
f 178 179 180
f 133 88 69
f 184 185 122
f 187 109 108
f 189 190 188
f 191 130 192
f 193 154 194
f 196 135 195
f 83 102 85
f 197 198 195
f 199 200 201
f 204 205 206
f 200 209 210
f 211 212 213
f 22 214 215
f 67 216 68
f 217 218 219
f 221 60 222
f 223 224 225
f 165 118 117
f 22 227 228
f 229 230 231
f 221 119 60
f 199 232 233
f 30 120 234
f 211 25 212
f 25 24 212
f 236 11 237
f 239 240 241
f 240 239 242
f 243 178 244
f 243 245 246
f 247 248 249
f 248 206 249
f 143 138 250
f 251 198 197
f 112 253 254
f 22 215 227
f 255 256 119
f 22 228 57
f 257 258 66
f 146 260 261
f 24 26 262
f 263 147 127
f 76 264 77
f 165 77 242
f 265 266 267
f 266 247 267
f 268 130 269
f 153 136 270
f 224 272 273
f 274 207 275
f 149 62 192
f 277 278 209
f 278 279 209
f 149 183 62
f 280 180 179
f 255 119 75
f 271 283 5
f 240 242 284
f 287 279 278
f 207 289 288
f 291 144 292
f 144 293 292
f 294 295 226
f 152 296 150
f 226 254 299
f 300 301 302
f 150 296 303
f 153 270 305
f 306 63 271
f 221 171 119
f 307 308 232
f 301 309 302
f 287 310 264
f 313 314 315
f 22 316 214
f 317 262 26
f 319 320 321
f 27 29 192
f 322 323 324
f 149 192 29
f 149 29 93
f 133 68 220
f 143 64 138
f 16 327 80
f 112 14 13
f 330 87 331
f 332 231 333
f 231 334 333
f 195 335 196
f 228 132 336
f 337 338 339
f 341 342 343
f 342 258 343
f 344 122 345
f 97 14 347
f 348 349 350
f 351 176 177
f 336 132 311
f 247 218 248
f 352 286 353
f 180 35 244
f 354 355 356
f 355 357 356
f 291 65 144
f 65 64 144
f 276 358 316
f 18 9 8
f 10 132 290
f 359 203 202
f 269 130 191
f 361 174 340
f 30 234 138
f 362 308 307
f 223 8 224
f 364 32 30
f 365 235 54
f 331 87 55
f 137 368 78
f 209 279 210
f 328 369 121
f 122 185 345
f 6 135 137
f 6 137 78
f 135 6 19
f 135 19 195
f 60 119 360
f 158 371 36
f 208 372 207
f 373 40 374
f 180 244 178
f 375 376 377
f 376 378 377
f 245 243 244
f 272 379 273
f 380 381 382
f 33 383 252
f 384 181 148
f 386 294 385
f 56 387 388
f 389 390 391
f 285 88 133
f 200 199 383
f 341 343 244
f 181 384 392
f 341 393 394
f 178 243 179
f 17 395 16
f 388 387 181
f 101 100 396
f 397 81 398
f 81 376 398
f 399 162 400
f 401 153 154
f 197 42 402
f 285 133 404
f 405 406 407
f 108 86 304
f 22 23 316
f 408 23 21
f 252 383 199
f 409 410 214
f 411 412 413
f 375 414 415
f 143 144 64
f 277 267 278
f 290 132 215
f 278 310 287
f 37 416 38
f 417 100 101
f 274 418 419
f 252 420 33
f 422 423 424
f 425 426 427
f 426 428 427
f 429 430 431
f 432 433 321
f 240 310 434
f 310 249 434
f 375 377 435
f 80 17 16
f 92 388 107
f 436 424 437
f 438 384 52
f 384 148 70
f 384 70 125
f 439 120 145
f 285 371 157
f 157 371 158
f 45 440 43
f 324 254 253
f 5 306 271
f 372 289 207
f 441 383 33
f 181 387 148
f 188 387 56
f 442 407 406
f 304 443 230
f 295 294 444
f 294 445 444
f 153 305 131
f 446 114 339
f 447 448 26
f 449 8 10
f 449 10 290
f 450 432 319
f 432 320 319
f 451 452 453
f 452 395 453
f 454 455 369
f 200 383 209
f 244 258 257
f 55 88 285
f 456 457 458
f 153 131 18
f 293 144 459
f 144 160 459
f 460 158 36
f 339 430 446
f 461 324 253
f 14 462 347
f 113 347 462
f 56 388 92
f 306 5 186
f 463 464 292
f 464 246 292
f 210 279 287
f 465 330 466
f 231 467 229
f 203 468 390
f 469 323 322
f 422 424 436
f 87 470 471
f 472 473 474
f 311 132 131
f 228 227 132
f 132 227 215
f 202 475 359
f 476 298 75
f 477 478 479
f 111 139 141
f 480 330 331
f 481 482 483
f 8 379 272
f 339 484 431
f 242 77 284
f 485 403 486
f 487 488 81
f 488 378 81
f 138 64 66
f 230 229 304
f 265 209 266
f 174 155 340
f 489 297 17
f 44 71 490
f 275 418 274
f 491 30 138
f 292 492 65
f 493 494 437
f 495 494 496
f 462 14 112
f 476 59 497
f 59 498 402
f 499 500 346
f 435 147 263
f 205 501 206
f 503 504 505
f 38 506 36
f 507 396 252
f 508 297 494
f 509 510 176
f 345 511 301
f 4 512 3
f 382 513 514
f 280 179 219
f 179 464 219
f 515 516 380
f 460 517 158
f 518 500 96
f 519 506 38
f 179 243 464
f 243 246 464
f 30 31 120
f 456 520 521
f 241 483 482
f 40 522 298
f 523 524 525
f 437 494 436
f 494 495 436
f 526 527 528
f 529 202 530
f 274 358 207
f 531 338 532
f 511 309 301
f 136 368 137
f 533 152 534
f 370 535 106
f 488 487 536
f 416 511 537
f 42 538 539
f 503 540 541
f 542 523 519
f 523 506 519
f 543 388 181
f 149 543 183
f 183 543 181
f 542 544 523
f 545 529 530
f 546 547 339
f 548 549 550
f 551 552 553
f 510 554 351
f 454 421 318
f 41 555 412
f 402 556 251
f 69 88 67
f 88 423 67
f 465 466 557
f 558 36 371
f 293 459 292
f 129 559 273
f 560 561 73
f 562 563 530
f 530 212 262
f 564 31 457
f 31 458 457
f 118 165 242
f 81 80 565
f 484 566 429
f 502 484 339
f 567 145 238
f 463 292 459
f 94 516 515
f 115 568 114
f 569 570 571
f 570 572 571
f 300 370 301
f 91 573 92
f 76 298 522
f 568 574 114
f 112 575 253
f 13 575 112
f 456 458 477
f 458 478 477
f 576 20 11
f 327 577 80
f 577 565 80
f 70 44 43
f 280 578 180
f 578 579 180
f 580 581 353
f 146 582 260
f 512 453 17
f 109 319 86
f 150 499 346
f 583 584 145
f 322 585 471
f 586 474 587
f 564 145 120
f 588 589 105
f 287 522 210
f 551 590 305
f 221 476 171
f 52 125 591
f 313 166 521
f 125 70 43
f 145 567 583
f 396 362 101
f 592 269 191
f 573 56 92
f 131 9 18
f 593 594 595
f 156 369 329
f 123 444 479
f 202 389 530
f 585 461 575
f 596 448 597
f 339 338 502
f 346 598 150
f 238 599 600
f 212 601 213
f 602 396 100
f 603 522 40
f 259 123 104
f 375 398 376
f 32 478 31
f 268 12 90
f 233 232 308
f 233 507 199
f 199 507 252
f 367 70 148
f 384 125 52
f 339 431 430
f 300 604 370
f 605 606 607
f 298 76 75
f 284 77 264
f 472 608 609
f 315 314 610
f 363 486 28
f 85 103 611
f 103 491 611
f 612 613 614
f 264 522 287
f 615 616 617
f 618 619 620
f 429 431 484
f 245 492 246
f 98 123 97
f 621 622 623
f 392 47 181
f 624 91 625
f 273 559 626
f 627 532 231
f 532 334 231
f 81 378 376
f 97 123 259
f 323 469 628
f 329 369 328
f 173 155 174
f 429 566 629
f 567 630 583
f 526 73 561
f 450 319 381
f 150 303 499
f 631 193 576
f 632 585 633
f 117 118 239
f 86 319 321
f 634 466 587
f 275 288 418
f 275 207 288
f 509 176 286
f 238 167 599
f 110 139 111
f 491 103 364
f 636 637 638
f 637 639 638
f 627 231 230
f 58 59 402
f 469 322 471
f 3 13 1
f 162 39 40
f 402 527 58
f 640 641 12
f 642 268 50
f 503 505 540
f 505 643 540
f 145 167 238
f 644 121 568
f 491 364 30
f 183 47 46
f 645 538 19
f 355 622 621
f 646 630 647
f 232 199 201
f 313 315 166
f 315 599 166
f 393 341 244
f 155 101 340
f 536 487 577
f 487 565 577
f 444 445 479
f 445 648 479
f 245 65 492
f 650 651 652
f 367 653 155
f 155 653 101
f 646 425 654
f 655 656 152
f 37 657 658
f 489 496 297
f 489 80 496
f 80 79 496
f 17 80 489
f 659 660 661
f 411 41 412
f 412 555 45
f 662 395 452
f 232 201 182
f 487 81 565
f 403 577 16
f 16 577 327
f 663 664 661
f 665 286 176
f 162 374 39
f 666 570 667
f 516 668 669
f 432 669 433
f 251 197 402
f 402 498 556
f 670 505 475
f 505 359 475
f 671 581 203
f 672 451 453
f 576 49 631
f 393 244 35
f 166 599 167
f 416 658 309
f 3 512 297
f 496 494 297
f 491 138 66
f 5 283 19
f 51 50 268
f 382 514 380
f 514 515 380
f 339 547 337
f 510 509 554
f 295 444 123
f 456 521 166
f 373 603 40
f 405 673 406
f 644 674 675
f 676 677 678
f 677 679 678
f 680 548 681
f 548 682 681
f 458 31 478
f 3 297 13
f 42 197 538
f 480 587 330
f 587 466 330
f 603 373 210
f 210 522 603
f 264 76 522
f 190 100 188
f 683 527 42
f 498 59 221
f 498 221 222
f 498 222 556
f 619 684 620
f 338 337 334
f 426 337 546
f 337 547 546
f 666 446 430
f 546 339 114
f 685 558 686
f 558 371 686
f 576 687 50
f 688 318 142
f 26 25 689
f 129 128 559
f 690 551 691
f 692 693 394
f 693 694 394
f 695 696 697
f 696 698 697
f 103 102 699
f 700 371 285
f 611 491 66
f 181 47 183
f 11 687 576
f 268 90 130
f 650 701 636
f 701 702 636
f 687 11 12
f 268 642 12
f 642 687 12
f 703 704 141
f 704 705 141
f 659 661 706
f 336 311 551
f 585 575 633
f 575 493 633
f 703 141 140
f 705 707 351
f 237 626 708
f 626 559 708
f 296 709 303
f 653 387 188
f 698 164 163
f 710 711 712
f 193 631 154
f 62 46 63
f 309 658 302
f 683 42 528
f 524 544 713
f 544 714 713
f 321 320 432
f 196 552 135
f 445 715 520
f 716 602 717
f 718 133 220
f 109 381 319
f 58 527 561
f 720 721 172
f 667 116 666
f 650 636 651
f 611 84 85
f 267 249 310
f 74 722 723
f 582 146 649
f 724 358 276
f 617 616 725
f 396 233 362
f 446 666 116
f 446 116 114
f 256 724 276
f 726 613 727
f 433 728 321
f 729 151 150
f 104 123 479
f 382 381 730
f 203 581 580
f 439 145 584
f 344 328 121
f 530 389 731
f 732 731 733
f 731 389 733
f 732 212 731
f 731 212 530
f 734 652 735
f 736 737 260
f 611 258 84
f 611 66 258
f 162 39 163
f 518 96 346
f 237 225 626
f 480 738 587
f 739 443 740
f 479 478 104
f 311 590 551
f 741 709 296
f 591 645 742
f 52 47 438
f 271 46 48
f 384 438 47
f 392 384 47
f 63 46 271
f 62 183 46
f 330 465 470
f 471 470 469
f 409 274 419
f 134 82 743
f 134 743 2
f 743 4 2
f 512 17 297
f 58 744 497
f 237 20 225
f 315 600 599
f 576 50 49
f 283 742 19
f 450 380 432
f 380 516 432
f 596 745 26
f 37 685 657
f 685 746 657
f 668 516 326
f 177 176 351
f 693 672 747
f 656 296 152
f 748 410 419
f 302 658 657
f 518 346 500
f 288 289 481
f 289 482 481
f 749 410 409
f 625 28 403
f 580 468 203
f 202 529 475
f 687 642 50
f 750 328 345
f 751 738 331
f 738 480 331
f 351 554 111
f 345 185 511
f 537 511 184
f 416 309 511
f 74 723 368
f 526 528 73
f 292 246 492
f 367 155 173
f 100 653 188
f 148 653 367
f 148 387 653
f 96 752 346
f 326 516 94
f 441 33 35
f 634 587 474
f 453 395 17
f 442 406 451
f 452 451 406
f 732 601 212
f 734 735 753
f 201 373 182
f 267 247 249
f 249 206 434
f 434 241 240
f 218 754 578
f 383 441 755
f 441 579 755
f 578 266 755
f 266 209 755
f 383 755 209
f 440 126 43
f 126 591 125
f 52 742 48
f 756 757 164
f 758 759 760
f 261 655 146
f 433 719 580
f 761 762 566
f 598 729 150
f 706 661 500
f 759 393 763
f 393 34 763
f 187 108 764
f 410 215 214
f 111 554 541
f 733 389 391
f 633 493 424
f 493 437 424
f 374 182 373
f 638 639 595
f 655 152 146
f 478 32 364
f 104 478 364
f 578 247 266
f 765 766 569
f 390 468 660
f 233 396 507
f 308 362 233
f 461 322 324
f 363 27 192
f 767 689 349
f 112 254 366
f 701 685 686
f 701 746 685
f 748 290 215
f 373 201 200
f 265 267 209
f 267 277 209
f 411 413 312
f 768 258 342
f 514 513 598
f 513 729 598
f 217 219 205
f 219 769 205
f 769 219 464
f 501 106 105
f 770 588 771
f 656 741 296
f 523 544 524
f 295 123 124
f 118 242 239
f 600 229 238
f 700 404 718
f 536 577 485
f 772 425 647
f 425 646 647
f 632 471 585
f 459 160 161
f 773 14 97
f 485 577 403
f 774 775 628
f 490 776 412
f 273 626 224
f 224 626 225
f 640 536 641
f 536 485 641
f 508 494 493
f 427 428 574
f 363 28 27
f 139 777 778
f 777 779 778
f 495 398 436
f 247 754 218
f 78 368 723
f 697 40 695
f 780 436 415
f 436 398 415
f 378 488 781
f 513 782 151
f 782 534 151
f 20 576 193
f 194 225 20
f 20 193 194
f 49 783 631
f 61 192 62
f 648 477 479
f 225 194 223
f 194 154 18
f 8 223 194
f 194 18 8
f 285 404 700
f 245 784 65
f 291 292 65
f 48 283 271
f 282 360 119
f 310 278 267
f 785 342 394
f 342 341 394
f 86 740 304
f 683 528 527
f 15 1 13
f 710 786 629
f 238 787 567
f 630 567 787
f 618 220 619
f 109 356 730
f 356 357 730
f 346 752 96
f 403 662 625
f 630 787 647
f 787 788 647
f 176 351 707
f 735 789 753
f 370 604 535
f 790 635 385
f 7 186 5
f 511 185 184
f 765 571 597
f 203 359 671
f 791 413 698
f 791 698 696
f 563 317 792
f 135 552 136
f 219 218 578
f 280 219 578
f 755 579 578
f 441 180 579
f 793 592 63
f 794 733 795
f 796 239 241
f 796 208 117
f 473 472 609
f 706 500 499
f 303 706 499
f 797 304 229
f 517 365 157
f 1 15 615
f 433 325 719
f 48 742 283
f 131 10 9
f 461 253 575
f 203 390 202
f 200 210 373
f 513 151 729
f 454 369 156
f 798 739 740
f 435 799 147
f 800 159 318
f 8 272 224
f 520 648 445
f 456 477 520
f 477 648 520
f 294 226 385
f 556 801 251
f 411 312 41
f 58 497 59
f 778 779 802
f 627 803 532
f 803 531 532
f 156 800 421
f 156 804 800
f 421 800 318
f 204 206 218
f 206 248 218
f 606 623 607
f 623 610 607
f 805 607 314
f 314 607 610
f 549 806 807
f 540 643 762
f 469 470 557
f 666 430 570
f 686 809 701
f 765 569 571
f 578 754 247
f 380 450 381
f 434 810 241
f 355 811 357
f 811 533 357
f 671 359 504
f 359 505 504
f 264 812 284
f 269 722 51
f 490 45 44
f 74 368 783
f 646 654 630
f 654 813 630
f 814 815 680
f 815 816 680
f 661 660 817
f 660 468 817
f 53 285 157
f 715 445 386
f 313 520 314
f 520 715 314
f 313 521 520
f 605 818 819
f 94 515 95
f 710 712 786
f 699 104 364
f 636 638 651
f 542 674 544
f 674 820 544
f 113 99 347
f 717 34 33
f 226 295 124
f 591 742 52
f 537 38 416
f 679 813 654
f 796 372 208
f 793 722 269
f 331 55 54
f 509 821 554
f 765 822 766
f 317 712 792
f 156 421 454
f 688 439 677
f 228 691 823
f 138 234 250
f 335 251 824
f 800 161 159
f 159 144 142
f 318 159 142
f 659 825 660
f 825 390 660
f 627 230 443
f 257 66 65
f 526 561 527
f 528 312 73
f 41 528 42
f 528 41 312
f 756 698 757
f 768 84 258
f 750 329 328
f 560 696 695
f 808 815 379
f 419 815 808
f 419 418 826
f 826 418 816
f 418 806 816
f 379 815 273
f 816 815 826
f 826 815 419
f 285 53 55
f 96 500 661
f 400 170 399
f 649 819 818
f 676 688 677
f 584 679 439
f 679 677 439
f 782 357 534
f 382 782 513
f 534 152 151
f 187 356 109
f 382 730 782
f 730 357 782
f 353 719 580
f 119 827 282
f 304 740 443
f 798 740 86
f 117 724 165
f 165 724 256
f 254 324 323
f 106 771 105
f 502 828 777
f 417 101 653
f 618 620 637
f 545 829 830
f 751 331 235
f 42 555 41
f 42 539 555
f 649 608 582
f 608 260 582
f 805 818 607
f 818 605 607
f 531 502 338
f 107 388 831
f 796 117 239
f 240 812 310
f 329 750 156
f 82 84 832
f 84 768 832
f 106 501 833
f 834 734 604
f 835 212 24
f 835 24 262
f 835 262 212
f 836 614 726
f 154 631 401
f 672 512 747
f 512 4 747
f 12 641 89
f 619 837 838
f 615 725 2
f 517 157 158
f 286 728 719
f 580 728 433
f 405 760 189
f 760 839 189
f 682 594 684
f 594 593 684
f 568 840 574
f 121 369 455
f 121 455 568
f 589 483 241
f 785 832 342
f 832 768 342
f 442 451 693
f 451 672 693
f 832 694 693
f 453 512 672
f 323 299 254
f 254 226 366
f 299 323 226
f 715 386 314
f 386 841 314
f 693 747 832
f 388 543 831
f 756 164 698
f 447 822 448
f 472 474 842
f 474 586 842
f 529 545 830
f 475 529 830
f 105 810 501
f 434 206 810
f 241 810 105
f 510 351 176
f 705 111 141
f 705 351 111
f 665 705 704
f 707 705 665
f 707 665 176
f 237 708 236
f 556 844 843
f 28 486 403
f 354 764 622
f 764 797 622
f 121 675 845
f 303 846 706
f 846 303 795
f 303 709 795
f 627 443 803
f 710 762 711
f 762 847 711
f 629 566 710
f 566 762 710
f 73 791 696
f 273 814 129
f 680 681 814
f 409 358 274
f 264 310 812
f 777 139 110
f 777 828 531
f 189 188 56
f 405 189 848
f 447 738 235
f 564 457 145
f 456 166 457
f 748 419 808
f 139 778 140
f 652 651 849
f 149 107 831
f 649 609 608
f 195 538 197
f 226 99 113
f 345 328 344
f 621 811 355
f 390 389 202
f 850 741 851
f 741 656 851
f 473 790 474
f 790 634 474
f 761 110 540
f 82 832 743
f 785 394 832
f 394 694 832
f 747 4 832
f 4 743 832
f 850 737 852
f 514 598 853
f 539 538 645
f 19 742 645
f 481 589 854
f 549 816 806
f 206 501 810
f 49 74 783
f 443 802 803
f 802 779 803
f 583 630 813
f 584 583 679
f 583 813 679
f 676 678 454
f 676 454 318
f 353 286 719
f 523 525 460
f 525 517 460
f 776 340 413
f 207 724 208
f 109 730 381
f 397 79 81
f 505 670 643
f 670 847 643
f 643 847 762
f 332 333 855
f 647 855 772
f 415 216 780
f 216 67 780
f 60 360 222
f 78 722 793
f 340 757 413
f 786 745 572
f 591 126 645
f 645 126 539
f 126 440 539
f 555 539 440
f 618 718 220
f 170 400 757
f 853 598 346
f 635 790 473
f 385 775 790
f 628 775 385
f 435 377 799
f 377 856 799
f 65 784 257
f 558 37 36
f 728 727 321
f 443 739 802
f 635 386 385
f 594 682 550
f 682 548 550
f 595 594 550
f 256 827 119
f 761 540 762
f 1 615 2
f 575 13 508
f 628 385 226
f 628 226 323
f 691 551 553
f 257 784 245
f 290 748 449
f 222 360 282
f 326 669 668
f 857 858 859
f 142 860 688
f 350 349 861
f 777 110 502
f 739 798 802
f 852 737 213
f 737 736 213
f 524 713 235
f 823 21 57
f 823 57 228
f 664 94 96
f 664 96 661
f 663 94 664
f 661 817 663
f 663 326 94
f 131 590 311
f 758 760 693
f 760 442 693
f 216 415 414
f 685 37 558
f 371 700 686
f 700 809 686
f 650 652 701
f 652 746 701
f 862 841 863
f 465 557 470
f 624 625 452
f 625 662 452
f 531 828 502
f 776 413 412
f 615 15 616
f 294 386 445
f 634 790 774
f 466 634 557
f 634 774 557
f 366 226 113
f 864 822 765
f 352 509 286
f 353 865 352
f 366 113 112
f 569 667 570
f 569 766 667
f 766 714 667
f 822 713 766
f 713 714 766
f 412 45 490
f 519 845 674
f 845 675 674
f 257 245 244
f 149 831 543
f 665 866 286
f 812 240 284
f 372 796 482
f 241 482 796
f 587 738 586
f 738 348 586
f 767 349 738
f 349 348 738
f 608 867 260
f 867 608 842
f 608 472 842
f 211 349 25
f 842 861 867
f 861 736 867
f 736 260 867
f 213 736 861
f 211 213 349
f 213 861 349
f 771 588 105
f 146 819 649
f 606 605 868
f 605 819 868
f 868 819 146
f 482 289 372
f 789 638 869
f 638 595 869
f 720 172 174
f 71 721 720
f 761 502 110
f 761 566 502
f 347 99 97
f 476 221 59
f 869 770 789
f 651 638 789
f 725 870 134
f 870 83 134
f 625 29 28
f 207 358 724
f 241 105 589
f 460 506 523
f 208 724 117
f 215 410 748
f 449 379 8
f 409 214 316
f 409 316 358
f 751 235 738
f 503 541 821
f 541 554 821
f 503 821 504
f 504 865 671
f 504 821 352
f 821 509 352
f 352 865 504
f 596 597 571
f 871 872 781
f 872 856 781
f 486 363 89
f 641 485 486
f 486 873 641
f 641 873 89
f 393 759 394
f 317 26 745
f 833 370 106
f 20 237 11
f 124 99 226
f 678 874 454
f 874 840 454
f 355 354 622
f 397 495 79
f 495 496 79
f 875 104 876
f 364 103 699
f 549 548 680
f 644 675 121
f 804 877 800
f 535 771 106
f 606 621 623
f 606 811 621
f 133 718 404
f 829 711 878
f 568 455 840
f 684 127 682
f 807 879 880
f 652 849 735
f 703 726 704
f 881 808 379
f 588 770 589
f 770 854 589
f 640 236 882
f 814 681 129
f 681 682 127
f 670 878 847
f 541 540 110
f 111 541 110
f 544 820 883
f 544 883 714
f 120 860 250
f 517 525 365
f 549 807 550
f 585 322 461
f 460 36 506
f 414 838 837
f 61 191 192
f 63 191 61
f 884 885 859
f 783 368 136
f 153 401 136
f 886 401 631
f 631 783 886
f 136 401 886
f 886 783 136
f 186 793 63
f 592 793 269
f 78 793 7
f 63 592 191
f 7 793 186
f 350 861 842
f 612 614 836
f 659 706 846
f 659 846 825
f 846 795 825
f 391 795 733
f 825 795 390
f 713 822 447
f 887 820 674
f 531 803 779
f 777 531 779
f 836 778 802
f 703 140 778
f 250 860 142
f 490 71 361
f 71 720 361
f 174 361 720
f 282 827 281
f 121 845 122
f 776 361 340
f 490 361 776
f 869 854 770
f 700 718 809
f 393 35 34
f 39 374 40
f 613 726 614
f 413 791 312
f 122 845 184
f 184 845 537
f 637 620 639
f 620 593 639
f 684 619 127
f 593 595 639
f 684 593 620
f 601 852 213
f 261 260 851
f 260 737 851
f 881 379 449
f 204 218 205
f 218 217 205
f 749 419 410
f 391 390 795
f 442 760 407
f 758 693 759
f 693 692 759
f 774 790 775
f 573 91 888
f 172 721 173
f 102 870 699
f 53 157 54
f 525 524 235
f 365 525 235
f 157 365 54
f 83 870 102
f 134 2 725
f 616 773 889
f 481 483 589
f 842 586 350
f 326 580 325
f 325 580 719
f 128 872 559
f 304 764 108
f 873 486 89
f 689 447 26
f 449 748 808
f 397 398 495
f 89 363 130
f 856 377 378
f 408 276 316
f 542 519 674
f 647 788 855
f 182 890 307
f 422 780 423
f 423 780 67
f 734 834 652
f 834 746 652
f 508 13 297
f 575 508 493
f 719 728 580
f 375 415 398
f 11 236 12
f 115 887 568
f 129 681 127
f 549 680 816
f 273 815 814
f 72 721 71
f 367 721 72
f 72 70 367
f 195 198 335
f 162 40 697
f 484 502 566
f 888 673 848
f 673 405 848
f 823 843 844
f 463 859 464
f 859 885 464
f 370 833 891
f 463 459 859
f 464 885 769
f 847 878 711
f 321 613 612
f 612 86 321
f 86 612 798
f 691 228 336
f 690 691 336
f 690 336 551
f 405 407 760
f 448 596 26
f 100 190 602
f 696 560 73
f 73 312 791
f 305 270 551
f 624 452 673
f 556 843 801
f 750 877 804
f 884 205 885
f 205 769 885
f 833 501 884
f 501 205 884
f 884 858 833
f 859 858 884
f 833 858 891
f 887 644 568
f 674 644 887
f 866 728 286
f 866 727 728
f 709 794 795
f 56 848 189
f 56 573 848
f 75 165 255
f 692 394 759
f 136 552 270
f 270 552 551
f 321 727 613
f 665 704 866
f 704 726 866
f 726 727 866
f 564 120 31
f 829 792 711
f 792 712 711
f 792 829 563
f 829 545 563
f 562 530 262
f 562 317 563
f 262 317 562
f 530 563 545
f 416 37 658
f 330 470 87
f 425 427 654
f 574 840 874
f 874 427 574
f 25 349 689
f 892 893 857
f 894 839 763
f 552 196 553
f 335 553 196
f 335 198 251
f 340 170 757
f 537 845 38
f 38 845 519
f 473 609 635
f 635 609 649
f 624 673 91
f 673 888 91
f 469 557 628
f 557 774 628
f 45 555 440
f 331 54 235
f 713 447 235
f 116 883 115
f 714 883 667
f 883 116 667
f 767 738 689
f 738 895 689
f 895 738 447
f 689 895 447
f 439 688 860
f 851 737 850
f 307 232 182
f 851 655 261
f 655 851 656
f 850 794 741
f 794 709 741
f 244 343 258
f 809 702 701
f 430 429 896
f 429 629 896
f 430 896 570
f 896 572 570
f 896 629 572
f 629 786 572
f 786 712 745
f 712 317 745
f 596 571 745
f 571 572 745
f 612 836 798
f 836 802 798
f 441 35 180
f 12 236 640
f 883 820 115
f 820 887 115
f 63 306 186
f 618 702 718
f 702 809 718
f 315 897 600
f 852 794 850
f 725 616 870
f 616 876 870
f 259 773 97
f 888 848 573
f 302 657 834
f 657 746 834
f 302 834 300
f 604 300 834
f 452 406 673
f 697 698 163
f 163 39 162
f 163 162 697
f 164 757 400
f 757 698 413
f 870 876 699
f 305 590 131
f 702 618 637
f 702 637 636
f 231 332 467
f 332 788 467
f 425 772 426
f 855 788 332
f 788 787 238
f 462 112 113
f 732 733 852
f 733 794 852
f 732 852 601
f 805 841 818
f 841 862 818
f 805 314 841
f 801 824 251
f 864 765 597
f 864 448 822
f 142 143 250
f 454 840 455
f 574 428 114
f 678 679 874
f 874 679 427
f 679 654 427
f 114 428 546
f 426 546 428
f 882 236 871
f 236 708 871
f 871 781 882
f 396 420 252
f 33 420 717
f 716 717 420
f 602 716 420
f 602 420 396
f 354 356 764
f 229 600 897
f 145 457 166
f 78 723 722
f 722 74 51
f 534 357 533
f 533 811 152
f 606 868 811
f 152 811 146
f 811 868 146
f 527 402 42
f 304 797 764
f 622 797 623
f 797 898 623
f 187 764 356
f 897 898 797
f 898 610 623
f 315 610 897
f 610 898 897
f 897 797 229
f 880 595 807
f 595 550 807
f 879 899 880
f 788 238 229
f 788 229 467
f 334 337 333
f 772 855 333
f 333 337 772
f 337 426 772
f 651 789 849
f 735 849 789
f 744 40 298
f 497 744 298
f 75 171 476
f 476 497 298
f 560 744 561
f 561 744 58
f 560 695 744
f 744 695 40
f 122 344 121
f 195 19 538
f 799 856 872
f 872 128 799
f 128 147 799
f 856 378 781
f 640 488 536
f 640 882 488
f 882 781 488
f 559 872 871
f 559 871 708
f 586 348 350
f 433 669 326
f 325 433 326
f 432 516 669
f 130 363 192
f 256 255 165
f 841 386 863
f 863 386 635
f 818 862 649
f 649 862 635
f 862 863 635
f 625 93 29
f 93 625 91
f 662 403 16
f 662 16 395
f 220 837 619
f 23 408 316
f 615 617 725
f 418 288 879
f 807 806 879
f 806 418 879
f 899 854 880
f 854 869 880
f 595 880 869
f 288 481 879
f 481 899 879
f 481 854 899
f 222 282 281
f 222 900 556
f 281 900 222
f 823 844 21
f 21 844 281
f 281 844 900
f 900 844 556
f 326 817 901
f 468 901 817
f 326 901 580
f 901 468 580
f 632 87 471
f 632 633 424
f 88 902 423
f 902 88 87
f 424 423 632
f 423 902 632
f 87 632 902
f 890 399 169
f 169 399 170
f 168 890 169
f 340 903 170
f 164 400 162
f 399 890 182
f 182 374 399
f 399 374 162
f 175 890 168
f 890 175 903
f 903 175 170
f 340 101 903
f 101 890 903
f 101 307 890
f 362 307 101
f 753 789 771
f 789 770 771
f 535 604 753
f 604 734 753
f 753 771 535
f 865 353 581
f 671 865 581
f 15 14 616
f 14 773 616
f 234 120 250
f 439 860 120
f 51 268 269
f 750 804 156
f 459 892 859
f 892 857 859
f 459 161 892
f 892 161 877
f 161 800 877
f 877 750 345
f 301 877 345
f 891 857 370
f 370 857 893
f 301 893 877
f 893 892 877
f 370 893 301
f 864 597 448
f 367 173 721
f 763 904 759
f 759 904 760
f 190 189 839
f 763 839 905
f 905 839 760
f 894 602 839
f 602 190 839
f 717 602 894
f 34 717 763
f 717 894 763
f 760 904 905
f 905 904 763
f 335 843 553
f 823 553 843
f 823 691 553
f 801 843 824
f 824 843 335
f 837 68 414
f 68 216 414
f 220 68 837
f 829 878 830
f 830 670 475
f 670 830 878
f 375 435 414
f 435 838 414
f 435 263 838
f 838 263 127
f 619 838 127
f 281 827 408
f 281 408 21
f 276 827 256
f 276 408 827
f 889 876 616
f 875 773 259
f 889 875 876
f 889 773 875
f 96 853 346
f 96 95 853
f 514 853 515
f 515 853 95
f 663 817 326
f 875 259 104
f 104 699 876
f 836 726 778
f 726 703 778
f 422 436 780
f 417 653 100
f 749 409 419
f 858 857 891
f 676 318 688
f 881 449 808
f 338 334 532

