# https://github.com/mikedh/trimesh
v 0.11480900 0.00000000 0.09422100
v 0.09900300 -0.03789100 0.12063500
v 0.09422100 0.00000000 0.11480900
v -0.13299800 0.09147800 -0.16205800
v -0.19134800 0.09901500 -0.15703600
v -0.24278000 -0.09901500 0.04829200
v -0.18206173 -0.08798325 0.06844500
v -0.22869400 -0.09901500 0.09472800
v 0.26659800 0.00000000 -0.21879150
v -0.20239249 -0.08806249 -0.01175993
v -0.19950953 -0.08922309 0.03579719
v -0.12349200 0.00000000 0.08251400
v -0.13721700 0.00000000 0.05683700
v 0.09472800 0.09901500 -0.22869400
v -0.23687800 0.09901500 -0.07185600
v -0.31101417 0.07946027 -0.09275922
v -0.30013104 0.08414699 -0.05540139
v -0.08543857 0.08081328 -0.31024786
v -0.02252653 0.07964531 -0.32461365
v -0.05571768 0.04542422 -0.33275980
v 0.21830800 -0.09901500 0.11668800
v 0.16579932 -0.08590204 0.10004438
v 0.16838869 -0.08674825 0.09665976
v 0.13752400 0.09901500 -0.20582000
v 0.07001300 0.00000000 0.13098500
v -0.11035000 -0.03789100 0.11035000
v -0.09422100 0.00000000 -0.11480900
v -0.09900300 0.03789100 -0.12063500
v 0.13098500 0.00000000 0.07001300
v 0.15288506 0.06945498 0.28939446
v 0.16651889 0.05825635 0.28842863
v 0.15821389 0.07396126 0.27711177
v -0.12552800 -0.07001400 0.12552800
v -0.07029235 -0.06364547 0.15081264
v -0.06866906 -0.06011280 0.14599592
v -0.17503500 0.09901500 0.17503500
v -0.07185600 -0.09901500 -0.23687800
v 0.22869400 0.09901500 -0.09472800
v 0.24278000 0.09901500 -0.04829200
v 0.02598553 -0.07018858 0.17160801
v 0.02267883 -0.06291960 0.16241449
v 0.02909734 -0.06563032 0.16312947
v -0.08906335 -0.04137808 -0.32714080
v -0.10011450 0.00000000 -0.33003250
v -0.06760900 0.00000000 -0.33989300
v 0.17252887 -0.07788406 0.03075924
v 0.24634500 -0.09901500 0.02426300
v 0.23687800 -0.09901500 0.07185600
v 0.14278448 -0.04218250 0.06209733
v 0.14212700 0.00000000 0.04311400
v 0.11675018 0.09226466 -0.27378092
v 0.09396425 0.09066195 -0.28826186
v 0.04829200 0.09901500 -0.24278000
v -0.06765918 0.05803745 -0.14494979
v -0.07001300 0.00000000 -0.13098500
v -0.06456303 0.05889303 -0.14709057
v -0.04311400 0.00000000 -0.14212700
v -0.01455800 0.00000000 -0.14780700
v -0.09900300 -0.03789100 -0.12063500
v -0.07299315 -0.09328067 -0.28124036
v -0.02426300 -0.09901500 -0.24634500
v 0.11035000 0.03789100 -0.11035000
v 0.14124619 0.04629449 -0.06457781
v 0.12552800 0.07001400 -0.12552800
v 0.19134800 -0.09901500 0.15703600
v 0.06760900 0.00000000 0.33989300
v 0.03380450 0.00000000 0.34322250
v 0.13299800 -0.09147800 0.16205800
v 0.11261900 -0.07001400 0.13722700
v -0.33989300 0.00000000 -0.06760900
v -0.32654689 -0.06763021 -0.05788916
v -0.31891335 -0.05727819 -0.09858095
v 0.24565554 -0.06848780 0.21390670
v 0.18107400 -0.09147800 0.22063900
v -0.20581900 -0.09901500 0.13752400
v -0.14824200 -0.09147800 0.14824200
v -0.17503500 -0.09901500 0.17503500
v -0.33989300 0.00000000 0.06760900
v -0.34322250 0.00000000 0.03380450
v -0.15703600 0.09901500 -0.19134800
v -0.00807015 -0.08565652 0.19142934
v -0.01819102 -0.08118692 0.18582715
v -0.14780700 0.00000000 -0.01455800
v -0.04823767 -0.07076195 0.16447592
v -0.06535850 -0.06153700 0.14891340
v -0.06357467 -0.05729991 0.14732789
v 0.12349200 0.00000000 -0.08251400
v 0.10502100 0.00000000 -0.10502100
v -0.30415950 0.00000000 0.16257650
v -0.28282233 0.07110186 0.16386969
v -0.27870834 0.05449813 0.18081227
v -0.14774523 0.06089592 -0.06504072
v -0.14212700 0.00000000 -0.04311400
v -0.13098500 0.00000000 -0.07001300
v 0.04311400 0.00000000 0.14212700
v 0.01455800 0.00000000 0.14780700
v -0.34322250 0.00000000 -0.03380450
v 0.13752400 -0.09901500 -0.20582000
v 0.14857540 -0.07520366 -0.28282934
v 0.17394815 -0.07972961 -0.25780703
v 0.27140444 -0.07671229 0.17552558
v 0.09900300 0.03789100 0.12063500
v 0.05826228 0.04019305 0.14401004
v 0.06257570 0.05087828 0.14477507
v -0.03380450 0.00000000 -0.34322250
v 0.24504900 0.00000000 -0.24504900
v 0.16257700 0.00000000 0.30415950
v 0.13262000 0.00000000 0.32017200
v -0.32685064 0.04922479 0.07232852
v -0.33501397 0.04860466 0.03267010
v 0.10180425 -0.03849100 -0.32251082
v 0.08860075 -0.08464120 -0.30375023
v 0.07424358 -0.05090147 -0.32471512
v 0.08603103 -0.08442014 -0.30463506
v -0.09472800 -0.09901500 0.22869400
v -0.24278000 0.09901500 0.04829200
v -0.24753700 0.09901500 -0.00000000
v 0.21879150 0.00000000 -0.26659800
v 0.23971900 -0.03789100 -0.23971900
v 0.02426300 -0.09901500 0.24634500
v 0.07185600 -0.09901500 0.23687800
v 0.33467062 -0.04600892 -0.04755101
v 0.33802886 -0.04211903 -0.02995139
v 0.33160856 -0.06747361 -0.02386392
v 0.32017200 0.00000000 0.13262000
v 0.31516682 -0.04995994 0.11734670
v 0.33003250 0.00000000 0.10011450
v 0.24634500 0.09901500 0.02426300
v 0.20311409 0.08931930 0.02775633
v 0.23687800 0.09901500 0.07185600
v -0.07185600 0.09901500 -0.23687800
v -0.02426300 0.09901500 -0.24634500
v -0.03010417 0.09459727 -0.27084095
v -0.11261900 -0.07001400 -0.13722700
v 0.21830800 0.09901500 0.11668800
v 0.15255053 0.08559171 0.11531576
v 0.19134800 0.09901500 0.15703600
v 0.17831568 0.08047626 -0.01405932
v 0.24753700 0.09901500 0.00000000
v 0.14908034 -0.05405418 0.07219616
v -0.02861127 0.08582156 0.19253144
v 0.00000000 0.09901500 0.24753700
v -0.01781730 0.08540020 0.19202026
v 0.32017200 0.00000000 -0.13262000
v 0.30415950 0.00000000 -0.16257700
v 0.17161655 0.08187723 -0.08004144
v 0.17284826 0.07737544 -0.02377150
v -0.04240944 0.06657107 0.16829818
v -0.05321352 0.05348678 0.15012304
v -0.06399859 0.05993171 0.15200326
v 0.30415950 0.00000000 0.16257700
v 0.14239819 -0.04302069 0.06317405
v -0.04829200 0.09901500 0.24278000
v -0.13713195 -0.07185754 0.29970911
v -0.13856301 -0.06342132 0.30139105
v -0.14065737 -0.07565945 0.29584490
v 0.20145200 -0.07001400 0.24547000
v -0.29790099 -0.08967331 0.03822261
v -0.24753700 -0.09901500 0.00000000
v 0.32035211 -0.07944784 -0.04962686
v 0.30366011 -0.08500956 -0.06527776
v 0.31289352 -0.08165236 -0.07720877
v 0.09472800 -0.09901500 -0.22869400
v -0.15985001 0.08480420 -0.10656264
v -0.05683700 0.00000000 0.13721700
v -0.01455800 0.00000000 0.14780700
v -0.32017200 0.00000000 0.13261900
v 0.21506800 0.03789100 0.26206200
v 0.19253400 0.00000000 0.28814700
v 0.02111775 -0.06299118 0.33366008
v 0.01145675 -0.06109859 0.33427535
v 0.01509869 -0.06866253 0.33217497
v -0.04144188 0.08906460 0.29440151
v -0.09142553 0.08137177 0.31245464
v -0.03694557 0.08272599 0.31792426
v 0.00758524 0.06758728 -0.16649079
v 0.01455800 0.00000000 -0.14780700
v 0.03593082 -0.08993282 0.19980701
v 0.17424285 0.06226230 0.28035320
v 0.20145200 0.07001400 0.24547000
v 0.19890341 -0.08923189 0.00170980
v 0.00000000 0.09901500 -0.24753700
v -0.00993765 0.08957350 -0.20387070
v 0.01832174 0.08712495 -0.20307574
v 0.06791232 -0.04846435 0.14489107
v 0.07560149 -0.07350971 0.15128201
v 0.08635608 0.09093156 0.28700368
v 0.07185600 0.09901500 0.23687800
v 0.02426300 0.09901500 0.24634500
v -0.04154553 0.08804338 -0.28850442
v -0.26964465 -0.06002585 0.18957844
v -0.29045565 -0.05258000 0.16125265
v -0.27751231 -0.07389166 0.16740881
v 0.32012787 -0.06543643 -0.07416364
v 0.33003250 0.00000000 -0.10011450
v 0.33989300 0.00000000 -0.06760900
v 0.06922505 0.05981764 0.32730638
v 0.06256119 0.06066170 0.32812471
v -0.16197731 0.05087408 -0.29522409
v -0.11566294 0.04567093 -0.32011239
v -0.13262000 0.00000000 -0.32017200
v 0.24278000 -0.09901500 -0.04829200
v 0.29662213 -0.08799052 -0.04009984
v -0.13752400 -0.09901500 0.20581900
v -0.14780700 0.00000000 0.01455800
v -0.16453361 0.04951720 -0.29433826
v -0.16257700 0.00000000 -0.30415950
v -0.03380450 0.00000000 0.34322250
v 0.00000000 0.00000000 0.34655200
v -0.24634500 0.09901500 -0.02426300
v 0.13016710 -0.04625305 -0.08219988
v 0.11035000 -0.03789100 -0.11035000
v 0.12552800 -0.07001400 -0.12552800
v 0.02642031 0.09120780 -0.29232599
v 0.00666412 0.09444142 -0.27601686
v -0.16077501 -0.08675897 0.25136303
v -0.13756520 -0.08138692 0.28300474
v 0.16257700 0.00000000 -0.30415950
v 0.17067022 0.05411285 -0.28725899
v 0.19253400 0.00000000 -0.28814700
v -0.19861086 0.08615461 -0.01633961
v 0.17203431 0.09035511 -0.09671794
v 0.16246701 0.08662155 0.10034434
v -0.04829200 -0.09901500 0.24278000
v 0.25402936 0.07638531 0.19816751
v 0.18107400 0.09147800 0.22063900
v -0.12552800 0.07001400 0.12552800
v -0.11035000 0.03789100 0.11035000
v 0.08251400 0.00000000 -0.12349200
v -0.16466453 0.07010667 -0.03094188
v -0.15415867 0.04363537 -0.02665418
v -0.14992251 0.06697087 -0.06665189
v -0.24981207 -0.08604941 0.16871821
v -0.22454200 -0.07001400 0.22454200
v 0.28773562 0.03518649 0.18275713
v 0.28814700 0.00000000 0.19253400
v -0.27694539 -0.09304123 0.08015232
v -0.28948176 -0.09228171 0.06072271
v 0.04829200 -0.09901500 -0.24278000
v 0.00102701 -0.08749051 -0.30645353
v 0.03931511 -0.08142716 -0.30744627
v -0.01970992 0.08177043 -0.31852880
v -0.33003250 0.00000000 0.10011400
v -0.31675454 -0.05249531 0.11650284
v -0.21830800 0.09901500 -0.11668800
v -0.15181950 0.07042093 -0.07594708
v 0.30313341 0.06644643 -0.13758007
v -0.18107400 0.09147800 -0.22063900
v 0.01762292 -0.08995040 0.20577037
v 0.00000000 -0.09901500 0.24753700
v -0.08707130 0.04517771 -0.32757104
v 0.03380450 0.00000000 -0.34322250
v -0.28405048 -0.09440008 -0.01908294
v -0.28881461 -0.09333452 -0.01468152
v -0.20182800 0.09147800 0.20182800
v 0.17503500 0.09901500 -0.17503500
v 0.20582000 0.09901500 -0.13752400
v 0.20182800 0.09147800 -0.20182800
v 0.14780700 0.00000000 -0.01455800
v 0.13721700 0.00000000 -0.05683700
v 0.05923999 -0.08835425 0.29317622
v 0.11518268 -0.08683349 0.28433666
v -0.10502100 0.00000000 0.10502100
v -0.08251400 0.00000000 0.12349200
v -0.09472800 0.09901500 0.22869400
v -0.16016015 -0.06677937 -0.04261754
v -0.13841943 -0.05336737 -0.07794450
v -0.13542974 -0.04619972 0.07395429
v 0.07673620 0.07831348 -0.16340659
v 0.10011450 0.00000000 -0.33003250
v 0.13262000 0.00000000 -0.32017200
v -0.14689694 -0.04979112 0.05898146
v -0.18184670 -0.08166349 0.25453030
v -0.20182800 -0.09147800 0.20182800
v 0.11427114 0.06125556 -0.31287760
v 0.14327266 0.06248071 -0.29802656
v 0.11668800 -0.09901500 0.21830800
v 0.11750105 -0.08846143 0.28173552
v 0.33416031 0.05096161 -0.02013537
v 0.34322250 0.00000000 -0.03380450
v 0.33332682 0.05036774 -0.04481365
v -0.06801286 -0.05467691 0.14469738
v -0.21506800 0.03789100 -0.26206200
v -0.16738425 0.05051315 -0.29251373
v -0.19253400 0.00000000 -0.28814700
v -0.04418501 0.05798754 0.33045890
v -0.06760900 0.00000000 0.33989300
v -0.09891389 0.07805519 -0.30932765
v 0.00000000 -0.09901500 -0.24753700
v -0.01136157 -0.09119469 -0.29818199
v 0.24753700 -0.09901500 0.00000000
v 0.20782224 -0.08997018 -0.01182434
v 0.19617162 -0.08858851 -0.01761754
v 0.23971900 0.03789100 -0.23971900
v 0.22869400 -0.09901500 -0.09472800
v 0.29703782 0.04845270 0.16164654
v 0.27178685 0.06023840 0.18663805
v 0.01631599 0.09246304 0.29291857
v -0.06042782 0.04817540 0.14246648
v -0.11261900 0.07001400 -0.13722700
v -0.33322291 0.06079510 -0.02345148
v -0.34655200 0.00000000 -0.00000000
v 0.03872412 -0.06706169 0.16147247
v -0.20581900 0.09901500 0.13752400
v -0.15939974 -0.05760861 -0.00542257
v -0.15647183 -0.05254565 0.00345708
v -0.16043284 -0.05837852 0.01232951
v 0.08200348 0.06448052 -0.32397657
v 0.07016686 0.07799780 -0.31381072
v 0.09257732 0.08324926 -0.29608224
v -0.20432609 -0.08821731 -0.02097764
v -0.20675029 -0.08850493 -0.01712236
v -0.24634500 -0.09901500 -0.02426300
v 0.04390018 -0.09298087 0.28628419
v -0.18107400 -0.09147800 -0.22063900
v 0.28884239 -0.08381912 0.11291807
v -0.21830800 -0.09901500 -0.11668800
v 0.13299800 0.09147800 0.16205800
v 0.30202861 0.08555355 -0.06947417
v 0.29248638 0.08796571 -0.09535155
v 0.26775400 0.04466703 0.20321067
v 0.24895534 0.05439869 0.22075599
v 0.26788800 0.00000000 0.21985000
v 0.12464702 0.04043843 0.31645800
v 0.15130545 0.05441082 0.29716609
v 0.09012006 0.08558323 0.29117415
v -0.01237744 -0.03558170 0.15339932
v 0.30985866 -0.08870469 0.04193316
v 0.29618496 0.06252834 -0.15649107
v -0.23687800 -0.09901500 -0.07185600
v 0.18449905 0.06627313 -0.27263769
v 0.22454200 0.07001400 -0.22454200
v -0.03492432 0.08796110 -0.19295897
v -0.28814700 0.00000000 -0.19253400
v -0.25985801 -0.06030658 -0.20768346
v -0.29107581 -0.04102656 -0.17728253
v -0.05816863 -0.05255905 -0.14591885
v -0.33035378 -0.05234369 0.06080808
v -0.33683390 -0.05516225 0.00735925
v 0.28814700 0.00000000 -0.19253400
v -0.01531547 -0.08940989 -0.30316294
v 0.15794469 -0.06940480 -0.08733437
v 0.17521320 -0.08978697 -0.09720196
v 0.16746282 -0.07920318 -0.06650702
v -0.11668800 0.09901500 -0.21830800
v 0.34322250 0.00000000 0.03380450
v 0.33683245 0.04661812 0.03229505
v 0.33989300 0.00000000 0.06760900
v 0.06760900 0.00000000 -0.33989300
v 0.04813151 -0.05700794 -0.32969478
v -0.16777649 0.07444067 -0.05153608
v 0.18856551 0.08569390 0.03883696
v 0.17147100 0.08144578 0.06137420
v 0.08257454 0.09087836 0.28826056
v 0.32142667 0.05829325 -0.09193224
v 0.14824200 0.09147800 -0.14824200
v -0.14168611 -0.05855975 -0.09257254
v -0.13073053 -0.05192177 -0.08949074
v -0.33003250 0.00000000 -0.10011450
v 0.20182800 -0.09147800 -0.20182800
v 0.22454200 -0.07001400 -0.22454200
v -0.05848323 0.08258931 -0.18111652
v -0.14788919 0.06054482 -0.29629692
v -0.16489728 0.05290035 -0.29319941
v -0.13164883 -0.08006043 0.29105408
v 0.01723232 -0.07150527 0.32510356
v 0.00880554 -0.07680048 0.31578724
v 0.03133292 -0.07762026 0.31487843
v -0.20145200 0.07001400 -0.24547000
v 0.08462530 -0.07887653 -0.15939998
v 0.14824200 -0.09147800 -0.14824200
v 0.11261900 0.07001400 0.13722700
v 0.16313437 0.05774134 0.01148401
v 0.18431570 0.08260103 0.00020503
v -0.07810167 -0.05022065 -0.32506951
v -0.14824200 0.09147800 0.14824200
v -0.16721253 0.08414768 0.08821068
v 0.05604923 -0.07640717 -0.16467439
v 0.06908069 0.06515266 -0.32822269
v 0.06349365 0.05784432 -0.33094311
v 0.05865107 0.07160615 -0.32840425
v 0.00989662 0.04221937 -0.33984562
v 0.04023620 0.05636958 -0.33354155
v -0.13262000 0.00000000 0.32017200
v 0.22546818 0.08978572 0.18527330
v -0.18240431 -0.08719021 -0.07872935
v -0.19730392 -0.08781623 -0.03537482
v -0.16257700 0.00000000 0.30415950
v -0.18665184 -0.05555573 0.27724599
v -0.15096814 -0.06668433 0.29401137
v -0.07573170 -0.08458590 0.30959192
v -0.21506800 -0.03789100 -0.26206200
v 0.16325626 -0.07394435 -0.05170219
v 0.19383010 -0.08378440 -0.01020151
v 0.15334868 -0.04016436 -0.01664267
v -0.26659800 0.00000000 0.21879150
v -0.28814700 0.00000000 0.19253400
v -0.00514996 -0.07132383 -0.16862407
v 0.00068658 -0.07485013 -0.17158917
v 0.00075812 -0.07038997 -0.16963971
v 0.14780700 0.00000000 0.01455800
v 0.15423229 0.04196144 0.02464169
v -0.20024483 -0.08652185 -0.02053404
v 0.04127770 -0.07548536 -0.32438028
v -0.30406538 -0.06016858 0.13415908
v -0.27172583 -0.08639821 0.13467911
v -0.05518240 -0.07940466 -0.31617837
v -0.07385824 -0.09272764 -0.28284416
v -0.04999289 0.04445867 0.14750717
v 0.06022687 0.05794149 0.15525129
v 0.06700288 0.08411929 0.17509093
v 0.28884155 -0.04033505 -0.17674031
v 0.30452819 0.05839577 0.14029264
v 0.32541047 0.05261611 0.08845669
v 0.28700908 0.08956917 0.09929565
v 0.30697763 -0.08534181 0.07697745
v 0.30920887 -0.07668484 0.11218020
v -0.26908779 0.06360465 0.19009727
v -0.07308817 -0.05280986 0.32377634
v -0.03878534 -0.05749441 0.32792265
v 0.21985000 0.00000000 0.26788800
v 0.21506800 -0.03789100 0.26206200
v 0.00745143 -0.07576363 -0.17129493
v 0.00295608 -0.07641530 -0.17519627
v 0.04058809 -0.07991508 -0.18394987
v -0.21985000 0.00000000 -0.26788800
v -0.11668800 -0.09901500 -0.21830800
v -0.15703600 -0.09901500 -0.19134800
v -0.25269328 -0.08780249 0.15104001
v -0.11480900 0.00000000 -0.09422100
v -0.13184257 -0.04280670 -0.08418462
v 0.24386900 0.00000000 0.24386900
v -0.14888234 0.06748641 -0.07077799
v 0.03352524 0.09109468 0.20660752
v -0.33624894 0.04960733 0.01029663
v 0.28859101 -0.09210059 0.00795001
v -0.14595976 -0.07898011 0.28547182
v -0.14313915 0.06936406 0.08673003
v -0.15711561 0.05545233 0.02921186
v -0.15520617 0.05455693 0.02981381
v -0.22869400 0.09901500 0.09472800
v 0.01173026 0.05818099 0.16234923
v 0.15703600 -0.09901500 0.19134800
v -0.29970411 0.08623078 -0.03250987
v 0.27237064 -0.09254070 -0.09184583
v 0.29530158 -0.08651597 -0.07551925
v 0.02915287 -0.04843106 -0.15492289
v 0.16331199 -0.05561438 -0.29201195
v 0.14831989 -0.04287306 -0.30387822
v -0.23972000 -0.03789100 0.23971900
v -0.23972000 0.03789100 0.23971900
v 0.28382407 -0.08353927 -0.13983479
v 0.28364298 -0.08363742 -0.13994345
v 0.28382486 -0.08317258 -0.14021953
v 0.13508131 0.08676932 -0.27206815
v 0.32528192 0.05286568 0.08672544
v 0.32616370 0.05181580 0.08714827
v 0.33656950 0.04692019 0.03225692
v -0.01116896 0.07450333 -0.17655386
v 0.02118755 -0.07013870 0.32972427
v 0.03960599 -0.06106381 0.33128090
v 0.04683360 0.08810961 0.19262590
v 0.03205361 0.07520403 0.18293623
v 0.00728728 0.08777271 0.19605500
v -0.30415950 0.00000000 -0.16257700
v -0.26250882 0.07250333 -0.19640374
v -0.26206013 0.07037210 -0.19785560
v 0.31633374 -0.04093272 -0.12089012
v 0.31421827 -0.06261604 -0.09783429
v -0.31020514 0.07946529 -0.09654435
v -0.05665068 -0.06958043 -0.16950624
v -0.03864961 -0.04963379 -0.15165479
v 0.11668800 0.09901500 0.21830800
v -0.33374289 0.05865995 -0.04606617
v -0.22454200 0.07001400 0.22454200
v 0.19552236 -0.05025375 -0.27210140
v -0.29203188 -0.05878766 -0.16751038
v -0.30867863 -0.05345487 -0.13273271
v -0.30028006 -0.03962807 -0.15926333
v -0.26404455 -0.04490965 0.21043308
v 0.14320107 -0.04347898 0.06256760
v 0.14691453 -0.04783248 0.05800377
v -0.13691989 -0.07450567 -0.29459714
v -0.24504900 0.00000000 0.24504900
v 0.14323902 -0.06132989 -0.30248425
v -0.19674879 -0.06850545 0.26084997
v 0.16953004 -0.07389339 0.02995211
v -0.27858539 -0.09208573 0.09464468
v -0.26788800 0.00000000 -0.21985000
v -0.13752400 0.09901500 0.20581900
v 0.33238910 -0.05000322 0.02295920
v 0.33804469 -0.04419303 -0.00462922
v 0.34655200 0.00000000 0.00000000
v -0.19134800 -0.09901500 -0.15703600
v -0.06711961 -0.08741099 -0.18398922
v -0.13299800 -0.09147800 -0.16205800
v -0.19253400 0.00000000 0.28814700
v 0.12078118 -0.08700216 0.28195339
v 0.15408708 -0.04571408 0.29947985
v 0.16221431 -0.04664484 0.29550589
v -0.19471162 0.07332106 0.25641924
v -0.14799805 0.08305492 0.28228175
v -0.15428307 0.05145917 0.02967226
v -0.13658840 0.03641742 0.07407523
v 0.16735416 0.07309851 -0.27972440
v 0.00350654 0.07766080 -0.32566609
v 0.05022537 0.07883952 -0.31244496
v -0.29562139 0.08924998 0.09761855
v -0.27967847 0.09129379 0.10157649
v -0.31068561 0.08497523 0.06312568
v -0.28751251 -0.08985053 -0.05920272
v -0.28931924 -0.09303455 -0.02579603
v -0.12437255 -0.07937066 0.29975822
v -0.28882081 -0.09215595 -0.02014856
v 0.33677433 0.04687528 0.03191561
v -0.24386900 0.00000000 -0.24386900
v 0.07335618 -0.08514880 0.17719556
v -0.13653450 -0.07439524 -0.29480925
v 0.28462441 0.09324728 0.08054322
v -0.29944409 0.06914900 -0.14887255
v -0.29470793 0.07260993 -0.14422028
v -0.29605987 0.07077710 -0.15121547
v -0.24219689 0.03874736 -0.23692543
v -0.24280993 0.06290296 -0.22385990
v 0.08744586 -0.05170272 0.32619629
v 0.10011450 0.00000000 0.33003250
v 0.32648174 0.05710768 -0.07791365
v -0.33819291 -0.05317273 0.00374569
v -0.13134426 0.08163333 -0.27916091
v -0.16019615 0.06050713 -0.28682996
v -0.14090049 0.08942931 -0.26661495
v -0.04955786 -0.08150234 0.31889854
v 0.00228783 -0.07055750 0.32998802
v 0.31181474 0.08836893 -0.02697587
v -0.09913363 -0.07794266 0.30929030
v -0.09865761 -0.03928749 0.32617180
v -0.20938391 0.08998808 -0.01093575
v -0.25395930 -0.06116652 -0.21418278
v -0.21879150 0.00000000 0.26659800
v -0.16996766 -0.08627523 0.08847386
v 0.00968651 0.05295414 0.33739104
v -0.00589013 0.05781697 0.33439931
v 0.25443988 0.08366776 -0.16953709
v 0.27828410 -0.08061649 0.16243634
v 0.28807494 -0.04797707 0.17776942
v 0.29799230 -0.03752435 0.16307654
v -0.20145200 -0.07001400 -0.24547000
v -0.32240954 0.07640035 -0.06589324
v -0.32200969 0.07811094 -0.04727964
v 0.15703600 0.09901500 0.19134800
v -0.15364317 0.06904138 -0.07000718
v 0.07073371 -0.04312701 -0.32978149
v -0.33626599 -0.05569314 -0.00181097
v -0.16470808 -0.07548302 -0.07126732
v -0.22771321 0.08004301 -0.20430449
v -0.31359709 0.07758368 -0.09781057
v 0.00000000 0.00000000 -0.34655200
v -0.15673350 0.05467413 0.02695137
v -0.17493255 -0.08811706 -0.09417295
v 0.01691582 -0.05735434 -0.33278878
v -0.00589497 -0.04489647 -0.33827316
v 0.05683700 0.00000000 -0.13721700
v 0.18866385 0.04883572 -0.27674880
v 0.12833755 -0.04897102 -0.31090790
v 0.16376442 -0.07546785 -0.05456947
v 0.16897212 0.08181124 -0.25671672
v -0.32017200 0.00000000 -0.13262000
v -0.14277084 0.08339507 0.28499872
v -0.21183512 0.09132303 0.03545491
v 0.28126507 -0.08053024 0.15708596
v 0.13725061 -0.04831650 -0.07275296
v -0.28901109 -0.08709337 -0.10662168
v -0.28305233 -0.08811670 -0.11895354
v 0.14351440 -0.04240165 0.05702429
v 0.30064951 0.09131903 0.03559879
v 0.09232839 -0.08385449 -0.30319916
v 0.12985100 -0.07472198 -0.29321724
v 0.28011405 -0.07816180 0.16042832
v 0.07663246 -0.05382075 -0.14099239
v 0.26031239 -0.05722573 0.20835862
v -0.18585717 0.04228954 0.28065722
v -0.16509512 0.06572571 0.28116304
v -0.18970352 0.05006096 0.27392759
v 0.24872940 -0.05654223 0.22318346
v 0.26218228 0.08753135 -0.14959566
v 0.06868837 0.06323084 0.32616265
v -0.29781889 0.06690258 -0.15313531
v -0.26139835 0.07535877 -0.19472765
v -0.28413127 -0.08031572 -0.13399516
v -0.27116681 -0.07218599 -0.17072039
v -0.30417419 -0.06772661 0.10702477
v 0.18312624 -0.09033566 -0.09165581
v 0.05092577 0.04982881 0.14916329
v 0.16981033 -0.07495593 0.02432784
v -0.25226019 0.08028984 0.17503905
v 0.30241668 -0.07847330 -0.01401999
v 0.27545834 -0.09484711 -0.00794737
v 0.03150657 -0.07143824 -0.16448192
v 0.05156724 -0.05725333 -0.15018743
v -0.20351060 0.08892183 0.00094195
v -0.14501711 0.06286234 -0.07106281
v -0.02148810 -0.09108622 0.29315652
v 0.25242466 -0.06219634 0.21621571
v 0.29692022 0.09294053 0.04056936
v -0.29838747 0.07157969 0.14011006
v 0.32972601 -0.04679846 0.07263585
v 0.33048887 -0.04684543 0.06688573
v 0.06732418 0.06213561 -0.14821082
v -0.12536866 -0.06346563 0.30628325
v 0.01284769 0.07620541 0.31164043
v 0.17503500 -0.09901500 -0.17503500
v 0.25402140 0.08941125 0.16155346
v -0.30258434 0.08978080 0.02096569
v 0.27905239 -0.04749707 -0.18788568
v -0.10011450 0.00000000 0.33003250
v -0.00915955 -0.08777953 -0.30435586
v 0.33135185 -0.04454310 0.06942339
v -0.00125022 -0.07615183 -0.17427656
v 0.14201421 0.05298542 0.07168117
v 0.15173492 0.04450034 0.03329625
v -0.31439646 0.07831262 -0.09333657
v 0.20582000 -0.09901500 -0.13752400
v -0.30653635 0.06674333 0.10141105
v -0.15635387 0.05445777 0.02526238
v -0.16257101 0.05853390 0.02213735
v 0.18453753 -0.09145318 -0.09839865
v -0.01796718 0.06629643 -0.16313910
v -0.00020406 -0.09367064 0.28373870
v 0.00157574 -0.07348701 -0.17049300
v 0.28369512 -0.08371419 -0.13938286
v 0.28370719 -0.08368451 -0.13966787
v -0.25962414 0.07370061 -0.19893786
v -0.25565986 0.07667674 -0.19618527
v 0.08516012 0.08985698 0.29061242
v 0.06646109 0.06429053 0.32386242
v 0.02340376 0.08917627 0.30065122
v 0.08924633 0.08965329 0.28927570
v 0.07226575 0.06292005 0.32513797
v 0.31222731 0.08847499 -0.01706733
v 0.25470226 -0.08137196 -0.18345156
v 0.00294003 0.08965180 0.30100296
v 0.00489667 0.09259586 0.29087027
v -0.09180282 0.08137041 0.31234264
v -0.28135312 0.08688968 -0.10936860
v -0.02021655 -0.08504143 0.19084049
v 0.26795346 0.05627959 -0.19923441
v 0.30915217 -0.03879498 -0.14000680
v 0.30125305 -0.05681222 0.14474365
v -0.15564666 0.05316168 0.02699403
v -0.29911796 0.07284982 0.11505110
v -0.29421532 0.08242395 0.12214433
v -0.00642858 -0.07634925 -0.17263284
v -0.05844552 -0.08891245 -0.19315561
v -0.29988916 0.06425027 -0.15053936
v 0.30628382 -0.05292229 -0.12574847
v 0.32447783 -0.07928366 -0.00270107
v 0.03671003 0.06730920 -0.15820949
v 0.07648749 0.04594828 -0.13650158
v -0.30091188 -0.08622347 -0.07095874
v 0.26985009 0.07173985 0.16049771
v 0.26605867 0.08870908 0.14216038
v -0.25931524 0.06938741 -0.20150090
v 0.20613704 0.08990334 0.01550372
v 0.09143760 0.09044392 0.28633216
v 0.08947939 -0.08507790 -0.30307514
v 0.03975988 0.06069640 -0.15559716
v 0.26854658 0.09043958 -0.11309007
v -0.07529167 -0.09329904 -0.28130205
v 0.15462354 -0.04387349 -0.02441404
v 0.00708085 -0.07142998 -0.16792278
v -0.03889249 0.05111014 0.15050276
v -0.30522064 0.08920686 -0.00270116
v -0.05855071 0.06210976 -0.15267511
v -0.15561992 0.05257907 0.02526864
v -0.31621164 -0.05368075 -0.11303285
v -0.19089332 0.04233087 0.27734788
v -0.33149390 -0.04898401 0.06737465
v -0.32102536 -0.05907890 0.07032739
v 0.28390252 -0.08364232 -0.13955985
v 0.28385670 -0.08359464 -0.13973982
v -0.04855989 -0.09132801 0.28713173
v 0.15932638 0.05242489 0.03179431
v -0.28036992 0.09057795 0.11164350
v 0.28194182 0.04083872 -0.18970080
v 0.16136170 -0.07474765 -0.05775594
v 0.28403849 -0.08330647 -0.13967199
v -0.32982535 0.04880372 -0.07491219
v -0.18895116 0.08840149 0.05365437
v -0.19002471 0.08477240 0.03011562
v 0.13009386 0.05021358 0.08677962
v -0.02303742 -0.08190313 0.18523887
v 0.25392919 -0.05109421 0.21909995
v -0.13658713 -0.07458917 -0.29459263
v -0.31493422 0.07493027 -0.09583109
v 0.07027788 0.06146992 0.32671978
v -0.01667867 0.08021795 -0.32502849
v -0.16476049 -0.04568038 -0.29369854
v -0.16617330 0.05471709 -0.29073661
v 0.05433099 0.08125754 -0.18168922
v 0.08374489 0.06925553 -0.14163084
v 0.07335060 0.05974438 0.32620417
v -0.09480766 0.08204737 0.15514787
v -0.22513407 -0.09467217 0.15436204
v -0.01168126 0.04439317 -0.33694951
v -0.30177829 0.06489495 -0.14510539
v -0.24580633 -0.08292851 -0.18590208
v -0.31428957 0.07702389 -0.09643171
v -0.27071554 0.09045193 0.12827940
v -0.25839751 0.07613636 -0.19372704
v -0.29264236 0.07174239 -0.14907804
v 0.15526761 0.04516347 0.02376198
v 0.15482450 -0.08160001 0.26889887
v -0.31299329 0.07874844 -0.09571808
v 0.24549233 -0.06300785 0.22173264
v -0.07519829 -0.09201751 -0.28270432
v -0.02320138 -0.05298402 -0.33214374
v -0.29311774 -0.08907186 0.08346072
v 0.16639571 -0.08713791 0.10421736
f 1 2 3
f 6 7 8
f 10 11 6
f 15 16 17
f 18 19 20
f 21 22 23
f 25 3 2
f 30 31 32
f 33 35 34
f 40 41 42
f 43 44 45
f 46 47 48
f 49 29 50
f 51 52 53
f 54 55 56
f 56 57 58
f 60 61 37
f 62 63 64
f 70 72 71
f 73 74 65
f 75 76 77
f 4 80 5
f 81 82 40
f 82 41 40
f 84 85 86
f 89 91 90
f 92 93 94
f 95 42 96
f 98 99 100
f 65 101 73
f 103 104 102
f 109 110 78
f 111 112 113
f 112 114 113
f 34 84 115
f 122 123 124
f 125 126 127
f 128 129 130
f 131 132 133
f 135 136 137
f 138 139 39
f 23 22 140
f 141 142 143
f 14 51 53
f 146 147 39
f 148 149 150
f 152 2 1
f 141 153 142
f 154 155 156
f 6 158 159
f 160 161 162
f 164 4 5
f 168 31 169
f 170 171 172
f 173 174 175
f 176 58 177
f 39 147 138
f 178 121 120
f 179 168 180
f 56 55 57
f 46 181 47
f 182 183 184
f 185 69 186
f 187 188 189
f 131 133 190
f 191 192 193
f 194 195 196
f 197 198 67
f 199 200 201
f 55 27 59
f 202 161 203
f 206 199 207
f 208 171 209
f 45 20 105
f 211 87 212
f 214 215 182
f 216 204 217
f 218 219 220
f 210 221 15
f 222 64 146
f 223 136 135
f 34 35 85
f 225 226 180
f 204 77 76
f 19 18 190
f 62 229 88
f 230 231 232
f 231 92 232
f 233 234 193
f 151 235 236
f 237 238 6
f 169 31 107
f 240 241 239
f 182 242 133
f 243 244 167
f 245 246 164
f 145 247 144
f 80 248 5
f 249 120 250
f 200 251 44
f 85 84 34
f 102 1 3
f 253 159 254
f 93 92 231
f 34 115 204
f 256 257 258
f 259 63 260
f 121 262 261
f 141 265 153
f 93 266 267
f 33 268 26
f 269 14 53
f 199 201 207
f 13 272 205
f 273 234 274
f 271 275 276
f 277 278 121
f 279 280 281
f 271 219 218
f 165 282 264
f 283 284 285
f 208 286 287
f 288 251 200
f 289 290 240
f 73 157 74
f 47 181 291
f 202 292 293
f 131 190 18
f 296 297 235
f 298 189 142
f 268 272 13
f 12 268 13
f 26 268 12
f 227 299 228
f 164 300 4
f 301 97 302
f 271 276 219
f 185 303 95
f 305 306 307
f 308 309 310
f 118 106 119
f 311 312 313
f 261 314 121
f 316 21 48
f 96 42 41
f 164 5 245
f 39 319 320
f 99 98 163
f 23 46 48
f 21 23 48
f 54 28 55
f 35 33 26
f 321 322 323
f 324 325 326
f 327 166 41
f 185 186 303
f 48 47 328
f 259 138 147
f 249 250 81
f 145 329 247
f 294 331 332
f 333 183 132
f 335 336 334
f 55 337 57
f 59 337 55
f 147 146 63
f 240 239 289
f 158 338 339
f 249 178 120
f 40 249 81
f 290 61 341
f 342 343 344
f 34 204 76
f 34 76 33
f 131 18 288
f 346 347 348
f 270 275 271
f 55 28 27
f 349 350 252
f 351 15 221
f 130 352 353
f 354 187 189
f 355 195 144
f 222 257 356
f 357 358 267
f 359 72 70
f 308 275 270
f 362 345 56
f 363 199 364
f 206 364 199
f 182 133 132
f 115 365 217
f 147 63 259
f 296 151 125
f 366 367 368
f 213 370 371
f 102 104 372
f 75 77 274
f 373 374 138
f 105 375 45
f 376 377 304
f 378 163 370
f 264 282 26
f 379 380 381
f 71 97 70
f 252 382 383
f 26 282 35
f 139 138 374
f 226 385 137
f 290 289 61
f 386 387 330
f 93 231 83
f 388 389 390
f 225 385 226
f 391 115 224
f 246 245 15
f 393 394 395
f 205 272 307
f 300 164 246
f 398 399 400
f 201 200 44
f 83 306 305
f 18 20 288
f 20 251 288
f 216 273 274
f 45 251 20
f 401 50 402
f 39 320 38
f 266 305 403
f 404 114 241
f 193 405 406
f 407 408 375
f 260 63 87
f 288 200 363
f 200 199 363
f 409 166 165
f 143 148 141
f 265 141 148
f 410 411 372
f 87 63 62
f 264 26 263
f 26 12 263
f 145 412 340
f 44 251 45
f 413 414 415
f 416 417 316
f 56 4 300
f 418 91 397
f 419 420 287
f 423 424 378
f 424 425 378
f 392 426 285
f 427 428 315
f 429 406 8
f 230 232 221
f 232 351 221
f 222 356 64
f 94 431 430
f 430 431 59
f 267 431 93
f 93 431 94
f 59 27 430
f 307 306 205
f 284 364 206
f 421 422 432
f 308 381 309
f 246 232 433
f 434 189 188
f 301 302 435
f 152 69 2
f 119 106 9
f 47 436 328
f 144 247 355
f 437 390 273
f 390 389 273
f 267 358 431
f 239 112 163
f 377 438 439
f 438 440 439
f 304 377 441
f 274 77 204
f 166 442 96
f 56 345 4
f 205 306 83
f 83 305 93
f 93 305 266
f 253 313 159
f 140 22 69
f 74 443 65
f 17 444 210
f 445 446 202
f 400 447 177
f 448 449 218
f 220 448 218
f 311 330 403
f 59 358 134
f 162 194 160
f 452 453 454
f 455 276 51
f 276 275 51
f 456 457 458
f 457 347 458
f 59 431 358
f 333 459 183
f 170 460 461
f 462 463 464
f 402 259 401
f 466 467 334
f 388 155 384
f 66 197 67
f 420 208 287
f 468 195 469
f 15 470 16
f 167 405 89
f 432 322 168
f 291 436 47
f 337 471 472
f 159 10 6
f 69 152 140
f 474 97 301
f 475 418 451
f 476 448 220
f 310 309 51
f 309 52 51
f 477 478 479
f 234 480 191
f 240 404 241
f 481 49 482
f 64 63 146
f 483 207 201
f 396 450 484
f 99 485 448
f 273 486 234
f 445 202 295
f 275 308 51
f 308 310 51
f 167 244 405
f 414 413 125
f 127 414 125
f 366 368 460
f 276 455 219
f 455 51 14
f 487 46 482
f 487 482 401
f 237 488 238
f 222 146 38
f 222 38 257
f 334 467 489
f 490 376 36
f 481 152 49
f 481 482 140
f 491 492 493
f 403 305 10
f 305 307 10
f 372 411 318
f 495 496 427
f 149 299 150
f 262 498 499
f 498 500 499
f 501 502 490
f 79 435 302
f 79 110 435
f 78 110 79
f 462 434 188
f 503 440 504
f 440 438 504
f 505 219 455
f 24 455 14
f 381 506 507
f 508 509 116
f 110 109 510
f 307 272 7
f 307 11 10
f 313 512 511
f 474 70 97
f 391 513 115
f 513 365 115
f 514 253 254
f 515 347 346
f 227 377 376
f 235 321 323
f 517 186 69
f 201 43 518
f 415 519 130
f 179 31 168
f 520 521 522
f 239 114 112
f 235 323 236
f 523 524 283
f 66 525 526
f 248 80 345
f 319 527 320
f 527 355 320
f 302 528 339
f 529 530 531
f 100 361 360
f 414 457 456
f 532 533 420
f 533 171 420
f 39 534 319
f 457 127 348
f 234 486 389
f 391 419 535
f 419 536 535
f 392 516 426
f 472 398 58
f 472 58 57
f 472 57 337
f 537 210 117
f 517 69 68
f 90 91 418
f 170 172 460
f 494 538 315
f 425 239 163
f 100 360 98
f 8 7 540
f 541 542 208
f 97 528 302
f 533 172 171
f 257 543 258
f 537 221 210
f 544 101 65
f 151 545 546
f 315 538 547
f 548 549 17
f 549 444 17
f 204 115 217
f 437 273 217
f 273 216 217
f 274 204 216
f 248 530 369
f 355 247 320
f 381 380 383
f 232 246 551
f 552 111 350
f 111 113 350
f 553 512 528
f 512 514 528
f 266 554 267
f 476 220 118
f 100 476 361
f 99 448 100
f 448 476 100
f 476 118 119
f 476 119 361
f 369 555 248
f 189 434 142
f 535 513 391
f 556 470 520
f 470 521 520
f 558 439 440
f 386 559 554
f 371 370 98
f 98 370 163
f 560 561 557
f 54 56 300
f 124 160 122
f 160 194 122
f 220 563 118
f 219 331 563
f 257 256 356
f 218 564 271
f 243 109 78
f 202 293 565
f 86 327 84
f 327 82 84
f 411 473 318
f 414 127 457
f 516 523 283
f 332 566 258
f 278 498 262
f 490 502 568
f 490 568 265
f 569 116 441
f 351 232 551
f 35 282 86
f 540 268 33
f 25 102 3
f 43 45 375
f 21 570 544
f 260 571 565
f 572 573 330
f 482 49 574
f 547 538 392
f 128 575 139
f 180 322 225
f 576 577 99
f 578 546 544
f 546 545 544
f 229 579 212
f 562 579 229
f 323 580 236
f 581 582 583
f 422 584 432
f 38 585 257
f 585 247 543
f 247 329 543
f 487 401 46
f 234 191 193
f 198 197 586
f 484 539 451
f 587 522 466
f 522 588 466
f 185 95 25
f 388 497 389
f 143 464 442
f 464 463 442
f 589 590 317
f 285 426 283
f 285 284 207
f 284 206 207
f 473 32 226
f 591 405 244
f 73 101 580
f 344 343 592
f 226 32 180
f 383 380 252
f 448 485 449
f 593 410 104
f 397 91 89
f 195 355 527
f 142 434 464
f 46 594 181
f 594 394 181
f 398 472 471
f 90 418 595
f 334 587 466
f 116 509 441
f 71 553 97
f 302 339 79
f 168 322 180
f 323 322 432
f 579 370 213
f 191 480 397
f 58 176 459
f 596 597 203
f 118 563 294
f 598 399 378
f 399 423 378
f 370 579 378
f 579 599 378
f 212 579 213
f 117 600 537
f 309 53 52
f 379 381 308
f 28 601 430
f 505 331 219
f 250 602 224
f 424 239 425
f 73 580 603
f 269 24 14
f 596 203 124
f 203 160 124
f 519 456 604
f 411 462 473
f 462 188 473
f 8 540 75
f 89 90 605
f 606 416 607
f 416 328 607
f 608 62 64
f 483 315 547
f 384 155 609
f 198 610 541
f 220 219 563
f 562 599 579
f 149 409 299
f 464 434 462
f 550 473 226
f 357 267 559
f 267 554 559
f 421 169 422
f 211 260 87
f 260 211 571
f 385 225 612
f 371 98 611
f 550 226 137
f 388 390 155
f 110 510 613
f 351 551 15
f 21 544 65
f 363 364 530
f 416 606 417
f 614 340 412
f 287 615 536
f 15 551 246
f 158 339 254
f 71 512 553
f 553 528 97
f 531 248 345
f 341 616 290
f 127 606 617
f 618 424 399
f 309 507 53
f 539 484 450
f 259 395 401
f 619 620 29
f 593 463 410
f 463 462 410
f 470 621 16
f 259 373 138
f 564 576 111
f 576 112 111
f 86 282 165
f 622 611 360
f 85 35 86
f 109 623 510
f 623 508 510
f 75 540 76
f 221 537 600
f 230 221 624
f 221 625 624
f 127 126 606
f 592 343 626
f 397 480 396
f 23 140 46
f 140 482 46
f 371 611 622
f 627 56 58
f 346 617 607
f 180 32 179
f 32 31 179
f 464 143 142
f 404 350 114
f 189 298 354
f 290 616 240
f 483 427 315
f 628 250 120
f 629 400 399
f 88 87 62
f 295 631 630
f 545 151 236
f 632 633 369
f 354 634 187
f 635 298 586
f 298 636 586
f 634 586 637
f 586 638 637
f 639 575 515
f 451 418 396
f 396 418 397
f 566 455 24
f 7 272 540
f 272 268 540
f 545 236 580
f 609 536 384
f 361 640 360
f 552 350 349
f 620 402 50
f 619 223 353
f 542 541 610
f 533 367 172
f 633 555 369
f 330 573 317
f 529 531 345
f 641 642 175
f 642 173 175
f 5 633 245
f 228 299 264
f 296 125 413
f 559 317 494
f 559 494 496
f 643 174 153
f 485 577 576
f 288 529 131
f 137 136 318
f 470 644 521
f 312 159 313
f 600 117 116
f 250 645 81
f 332 646 294
f 144 647 145
f 248 555 5
f 5 555 633
f 29 152 1
f 166 86 165
f 648 570 417
f 387 403 330
f 649 440 503
f 327 41 82
f 467 466 632
f 318 473 550
f 623 650 651
f 618 652 653
f 652 495 653
f 520 587 654
f 468 655 195
f 40 178 249
f 592 626 295
f 656 124 491
f 124 492 491
f 269 64 356
f 269 356 24
f 657 608 269
f 608 658 62
f 658 229 62
f 301 549 474
f 549 548 474
f 71 72 659
f 532 602 533
f 602 367 533
f 489 523 516
f 108 500 107
f 420 171 208
f 612 660 661
f 343 371 622
f 366 172 367
f 534 281 527
f 203 161 160
f 507 214 53
f 277 68 443
f 489 467 662
f 468 469 655
f 374 663 139
f 348 617 346
f 30 32 637
f 32 664 637
f 664 187 637
f 664 32 473
f 473 187 664
f 187 473 188
f 76 540 33
f 6 11 7
f 665 163 112
f 330 559 386
f 506 381 383
f 559 330 317
f 266 403 554
f 403 387 554
f 541 208 209
f 294 646 9
f 578 544 570
f 58 398 400
f 234 389 450
f 450 389 539
f 539 389 497
f 666 176 177
f 247 585 667
f 171 170 67
f 209 171 67
f 336 465 334
f 554 387 386
f 427 496 428
f 37 668 60
f 449 485 564
f 86 166 327
f 411 410 462
f 68 65 443
f 416 316 48
f 669 565 395
f 565 393 395
f 159 158 254
f 618 399 652
f 599 670 598
f 670 399 598
f 398 652 399
f 80 4 345
f 316 570 21
f 671 148 442
f 148 143 442
f 671 166 409
f 671 442 166
f 149 148 671
f 671 409 149
f 421 168 169
f 252 380 349
f 270 380 308
f 349 380 270
f 71 659 511
f 499 500 108
f 139 129 128
f 74 277 443
f 622 631 295
f 494 428 496
f 428 494 315
f 419 532 420
f 366 460 172
f 557 382 252
f 210 444 672
f 627 459 56
f 459 673 56
f 108 324 526
f 560 252 350
f 29 620 50
f 230 624 231
f 624 674 231
f 567 478 675
f 54 300 28
f 639 279 534
f 279 281 534
f 139 575 639
f 359 567 675
f 357 559 134
f 357 134 358
f 559 496 134
f 526 525 108
f 648 125 151
f 277 498 278
f 508 116 510
f 617 606 607
f 541 209 67
f 541 67 198
f 520 522 587
f 674 649 205
f 453 631 622
f 676 583 451
f 229 212 88
f 106 294 9
f 595 418 475
f 567 654 465
f 442 463 593
f 676 539 497
f 58 400 177
f 648 126 125
f 126 648 417
f 154 156 513
f 244 243 677
f 244 677 591
f 677 678 591
f 13 503 504
f 48 328 416
f 495 427 37
f 426 516 283
f 427 668 37
f 359 675 72
f 381 507 309
f 546 648 151
f 131 529 345
f 514 254 528
f 254 339 528
f 461 368 525
f 368 261 525
f 615 174 643
f 252 560 557
f 262 525 261
f 279 493 280
f 194 162 469
f 423 399 424
f 589 317 573
f 13 504 12
f 169 500 422
f 525 499 108
f 679 631 680
f 328 656 491
f 485 576 564
f 581 497 388
f 582 502 583
f 502 501 583
f 146 39 38
f 425 163 378
f 532 681 602
f 400 670 447
f 670 599 447
f 629 670 400
f 177 447 599
f 177 599 562
f 634 637 187
f 398 471 652
f 471 495 652
f 304 595 255
f 12 504 228
f 352 682 353
f 129 374 352
f 374 129 663
f 499 525 262
f 422 500 157
f 107 500 169
f 343 213 371
f 130 135 415
f 683 508 651
f 202 565 344
f 343 342 213
f 174 173 153
f 117 613 116
f 613 510 116
f 513 535 609
f 535 536 609
f 329 684 646
f 287 536 419
f 128 604 575
f 685 565 211
f 565 571 211
f 685 211 344
f 211 342 344
f 592 295 202
f 344 592 202
f 211 213 342
f 211 212 213
f 655 686 647
f 424 289 239
f 61 289 618
f 424 618 289
f 271 564 270
f 260 395 259
f 594 46 401
f 288 363 529
f 363 530 529
f 474 687 70
f 69 185 2
f 590 589 477
f 576 99 163
f 295 626 622
f 173 642 153
f 221 600 625
f 191 397 192
f 651 508 623
f 185 25 2
f 303 42 95
f 157 584 422
f 167 650 623
f 651 650 167
f 623 109 243
f 623 243 167
f 87 88 212
f 465 654 587
f 465 587 334
f 688 441 377
f 689 569 688
f 569 441 688
f 600 569 689
f 116 569 600
f 478 477 589
f 29 690 619
f 102 690 1
f 1 690 29
f 372 690 102
f 258 543 332
f 225 322 297
f 322 321 297
f 412 647 454
f 647 686 454
f 614 412 454
f 145 647 412
f 329 646 543
f 84 691 645
f 356 256 24
f 413 661 296
f 661 660 296
f 303 186 517
f 508 683 509
f 588 633 632
f 393 565 394
f 565 293 394
f 66 461 525
f 255 595 475
f 441 509 683
f 542 610 175
f 610 641 175
f 27 28 430
f 134 495 471
f 653 495 37
f 336 335 477
f 238 158 6
f 176 184 459
f 184 183 459
f 676 451 539
f 450 480 234
f 598 378 599
f 404 560 350
f 384 536 615
f 532 419 391
f 332 331 566
f 323 692 580
f 679 680 686
f 611 98 360
f 122 196 280
f 396 480 450
f 81 645 82
f 82 691 84
f 693 668 427
f 488 6 8
f 548 17 621
f 17 16 621
f 687 694 359
f 197 695 586
f 250 224 645
f 336 479 465
f 19 242 696
f 406 405 488
f 405 591 488
f 517 277 121
f 42 303 40
f 517 178 303
f 178 40 303
f 121 178 517
f 517 68 277
f 679 630 631
f 483 697 207
f 207 697 285
f 285 697 392
f 547 697 483
f 253 514 512
f 253 512 313
f 312 403 10
f 312 10 159
f 693 483 518
f 427 483 693
f 338 677 78
f 304 36 376
f 656 436 124
f 436 596 124
f 205 649 503
f 449 564 218
f 516 538 489
f 377 439 688
f 558 689 439
f 689 688 439
f 625 600 558
f 600 689 558
f 546 578 648
f 578 570 648
f 635 354 298
f 280 123 122
f 196 122 194
f 597 291 202
f 684 329 145
f 340 684 145
f 627 58 459
f 333 131 362
f 333 132 131
f 56 673 362
f 673 333 362
f 459 333 673
f 368 461 460
f 67 461 66
f 67 170 461
f 408 60 668
f 71 511 512
f 292 291 181
f 240 616 560
f 616 561 560
f 318 550 137
f 698 364 284
f 224 602 681
f 527 196 195
f 527 281 196
f 281 280 196
f 534 39 139
f 534 139 639
f 247 667 320
f 38 320 667
f 687 359 70
f 130 129 352
f 504 438 228
f 452 680 453
f 296 235 151
f 531 530 248
f 136 690 372
f 89 192 397
f 89 405 192
f 193 192 405
f 563 331 294
f 311 403 312
f 532 391 681
f 681 391 224
f 679 162 630
f 162 446 630
f 202 446 161
f 162 161 446
f 445 630 446
f 585 543 257
f 294 106 118
f 127 617 348
f 245 521 644
f 182 215 242
f 201 518 483
f 413 415 661
f 594 401 395
f 182 184 53
f 645 224 115
f 622 626 343
f 372 104 410
f 103 593 104
f 394 594 395
f 678 677 338
f 558 440 649
f 438 377 227
f 228 438 227
f 286 175 174
f 666 608 176
f 608 657 176
f 132 183 182
f 184 699 53
f 53 699 269
f 176 657 184
f 657 699 184
f 657 269 699
f 362 131 345
f 60 408 61
f 332 543 646
f 392 697 547
f 667 585 38
f 223 619 136
f 619 690 136
f 293 292 394
f 313 511 330
f 311 313 330
f 679 686 162
f 686 469 162
f 53 214 182
f 685 344 565
f 64 700 608
f 197 701 695
f 325 324 108
f 148 150 265
f 376 702 227
f 702 150 227
f 242 215 696
f 215 214 696
f 506 696 507
f 696 214 507
f 493 279 515
f 359 694 567
f 703 429 75
f 369 530 698
f 318 136 372
f 482 574 401
f 269 608 700
f 269 700 64
f 505 455 566
f 158 238 338
f 238 678 338
f 658 562 229
f 625 558 624
f 674 205 83
f 674 83 231
f 258 566 24
f 704 105 20
f 658 608 562
f 662 523 489
f 467 632 662
f 662 632 523
f 632 524 523
f 605 167 89
f 90 651 605
f 556 520 694
f 520 705 694
f 520 654 705
f 694 705 567
f 705 654 567
f 621 694 548
f 694 687 548
f 548 687 474
f 194 469 195
f 505 566 331
f 706 538 494
f 153 642 142
f 142 642 298
f 379 308 380
f 154 609 155
f 437 156 390
f 707 694 621
f 304 255 36
f 683 651 708
f 304 708 595
f 90 595 651
f 595 708 651
f 683 708 441
f 441 708 304
f 506 383 696
f 383 382 696
f 139 663 129
f 633 588 709
f 710 245 709
f 709 588 710
f 588 522 710
f 521 710 522
f 245 633 709
f 501 490 255
f 655 469 686
f 274 233 429
f 609 154 513
f 674 624 649
f 665 112 576
f 385 612 137
f 137 612 135
f 24 256 258
f 490 36 255
f 481 140 152
f 582 581 388
f 300 601 28
f 430 601 94
f 94 601 92
f 232 601 433
f 232 92 601
f 246 601 300
f 246 433 601
f 710 521 245
f 265 568 643
f 643 153 265
f 643 568 384
f 615 643 384
f 287 174 615
f 287 286 174
f 402 620 711
f 364 698 530
f 702 490 265
f 490 702 376
f 702 265 150
f 210 672 117
f 99 577 485
f 479 336 477
f 456 458 604
f 157 712 74
f 157 500 712
f 498 712 500
f 277 712 498
f 74 712 277
f 488 8 406
f 644 470 15
f 644 15 245
f 227 150 299
f 445 295 630
f 672 613 117
f 672 435 613
f 435 110 613
f 263 228 264
f 264 299 165
f 165 299 409
f 103 102 25
f 103 25 95
f 95 96 593
f 593 103 95
f 593 96 442
f 181 394 292
f 597 596 436
f 292 202 291
f 335 334 489
f 444 549 672
f 435 672 301
f 301 672 549
f 15 17 210
f 270 564 111
f 590 477 335
f 392 538 516
f 584 692 323
f 432 584 323
f 603 580 584
f 580 692 584
f 706 590 538
f 590 335 538
f 584 73 603
f 604 458 575
f 458 515 575
f 493 515 346
f 278 262 121
f 225 297 612
f 297 660 612
f 297 296 660
f 661 415 135
f 29 49 152
f 19 696 704
f 696 382 704
f 704 382 557
f 704 20 19
f 105 704 557
f 556 621 713
f 556 713 470
f 470 713 621
f 703 274 429
f 8 75 429
f 233 193 429
f 316 417 570
f 193 406 429
f 335 489 538
f 478 567 479
f 479 567 465
f 706 494 590
f 590 494 317
f 573 675 589
f 675 478 589
f 675 573 72
f 573 572 72
f 542 175 286
f 542 286 208
f 610 298 641
f 298 642 641
f 495 134 496
f 471 337 134
f 59 134 337
f 653 61 618
f 653 37 61
f 399 670 629
f 239 241 114
f 584 714 73
f 545 580 544
f 580 101 544
f 167 605 651
f 324 326 701
f 233 274 234
f 511 572 330
f 572 511 659
f 572 659 72
f 297 321 235
f 680 631 453
f 360 640 622
f 640 453 622
f 639 515 279
f 347 457 348
f 458 347 515
f 273 389 486
f 526 324 701
f 638 695 701
f 107 31 325
f 30 637 325
f 637 326 325
f 638 701 637
f 701 326 637
f 30 325 31
f 666 177 608
f 205 503 13
f 451 396 484
f 421 432 168
f 614 454 640
f 454 453 640
f 452 454 680
f 680 454 686
f 614 640 361
f 119 614 361
f 9 614 119
f 614 9 340
f 107 325 108
f 475 583 501
f 582 568 502
f 475 501 255
f 437 217 156
f 314 261 368
f 120 121 314
f 628 367 602
f 41 166 96
f 407 341 408
f 408 341 61
f 375 408 43
f 408 715 43
f 408 668 715
f 518 715 693
f 715 668 693
f 43 715 518
f 624 558 649
f 588 632 466
f 369 524 632
f 283 524 369
f 73 714 157
f 714 584 157
f 404 240 560
f 414 456 415
f 456 519 415
f 346 491 493
f 124 123 492
f 407 716 341
f 341 716 616
f 716 561 616
f 407 375 716
f 105 561 716
f 557 561 105
f 716 375 105
f 656 328 436
f 177 562 608
f 390 156 155
f 78 677 243
f 79 338 78
f 79 339 338
f 691 82 645
f 346 607 491
f 328 491 607
f 655 647 195
f 144 195 647
f 707 556 694
f 369 698 283
f 698 284 283
f 228 263 12
f 402 711 259
f 259 711 373
f 612 661 135
f 197 526 701
f 197 66 526
f 628 602 250
f 314 628 120
f 368 367 314
f 367 628 314
f 298 610 636
f 635 586 354
f 586 634 354
f 198 586 610
f 586 636 610
f 638 586 695
f 115 84 645
f 126 417 606
f 123 280 493
f 123 493 492
f 717 678 238
f 591 678 717
f 237 6 488
f 238 488 717
f 488 591 717
f 597 436 291
f 202 203 597
f 374 373 352
f 373 682 352
f 353 223 135
f 130 353 135
f 682 620 353
f 620 619 353
f 373 711 682
f 620 682 711
f 646 684 340
f 9 646 340
f 130 604 128
f 130 519 604
f 365 156 217
f 365 513 156
f 707 621 556
f 133 242 190
f 242 19 190
f 401 49 50
f 401 574 49
f 669 395 260
f 669 260 565
f 497 581 676
f 581 583 676
f 568 388 384
f 568 582 388
f 583 475 451
f 44 43 201
f 349 270 111
f 552 349 111
f 350 113 114
f 718 65 68
f 718 22 21
f 718 21 65
f 718 69 22
f 718 68 69
f 307 7 11
f 703 75 274
f 665 576 163
f 319 534 527

