# https://github.com/mikedh/trimesh
v 0.28802000 -0.16445800 0.20850800
v 0.29177388 -0.20664757 0.18670892
v 0.26484527 -0.20854562 0.21603107
v -0.19463300 -0.04262300 -0.13695700
v -0.15157591 -0.01046673 -0.15288634
v -0.19477800 -0.05686200 -0.15427400
v 0.14373387 -0.19752441 -0.21181001
v 0.16480200 -0.20715400 -0.17171800
v 0.14178600 -0.22193100 -0.16821500
v 0.13708828 0.18862267 0.04179788
v 0.16557340 0.18969709 0.00760643
v 0.15292719 0.23543253 0.01353289
v -0.14648487 -0.05891098 -0.19346663
v -0.13791258 -0.05876930 -0.19729041
v -0.14730473 -0.06489362 -0.19544119
v -0.20019999 -0.24239016 0.04431940
v -0.19513691 -0.26365522 0.03315683
v -0.19805110 -0.24287364 0.04441536
v 0.17436700 -0.05991600 0.21450200
v 0.21131175 -0.05026023 0.19843937
v 0.16027300 -0.04028250 0.18170650
v 0.06605178 -0.23495101 -0.18816890
v 0.09071500 -0.21141200 -0.21378500
v 0.10050500 -0.22436900 -0.19152700
v 0.25380200 -0.24180000 0.05671100
v -0.01672449 -0.15401290 -0.24849610
v -0.00223587 -0.15260813 -0.25187916
v -0.00737452 -0.16622570 -0.25053008
v 0.14842389 0.24317632 -0.00108343
v 0.11586457 0.25282378 0.02313398
v 0.27661300 -0.06716900 0.08800700
v 0.28739400 -0.09164200 0.07920500
v 0.16573500 -0.27082200 -0.00442750
v 0.23634950 -0.07617400 -0.12020450
v 0.25078300 -0.08536800 -0.08042500
v 0.13063700 0.17974900 -0.17028600
v 0.13668369 0.13910870 -0.18979527
v 0.12926771 0.14229483 -0.19605073
v 0.18500375 0.13221000 -0.10888850
v 0.19289350 0.09551700 -0.11850500
v -0.04119718 -0.21631906 -0.23205844
v -0.02842906 -0.20193925 -0.23952046
v -0.01299243 -0.22309896 -0.22398189
v -0.12106100 -0.13237400 0.07180100
v -0.15229473 -0.16062976 0.07377285
v -0.11584200 -0.16084200 0.07210600
v 0.03229957 -0.27628234 0.03393555
v 0.02810784 -0.27586845 0.03254002
v 0.03051476 -0.27700979 0.03080374
v 0.02189300 0.07649150 -0.21871250
v 0.01535050 0.12064525 -0.20555775
v 0.13246700 0.12704000 0.04782300
v 0.11075900 0.12072400 0.06230800
v 0.07492399 0.06558880 -0.23235193
v 0.07628467 0.06355604 -0.23307423
v 0.02843550 0.03233775 -0.23186725
v 0.28222700 -0.19810100 0.05725200
v 0.26949500 -0.22090400 0.05624500
v 0.11782479 -0.17557404 -0.24422750
v 0.11783994 -0.17558419 -0.24421137
v 0.03184500 0.28604400 0.00220100
v 0.00143200 0.28623300 -0.01932800
v 0.04028350 -0.04159050 -0.25138900
v 0.03497800 -0.01181600 -0.24502200
v 0.20269300 -0.28820700 0.10775900
v 0.24438593 -0.27157676 0.11040965
v 0.23877877 -0.27195045 0.09542692
v -0.29046309 -0.23109569 -0.07137989
v -0.27923900 -0.25517800 -0.04881700
v -0.29277400 -0.23022200 -0.03901500
v -0.28985500 -0.20819000 -0.00384400
v -0.12085864 -0.03666082 0.03837273
v -0.12542208 -0.03047924 0.03024975
v -0.14312900 -0.06771500 0.04432100
v -0.28234400 -0.10930100 -0.01581100
v -0.26739400 -0.09127600 -0.01663600
v 0.20345400 -0.16778600 -0.17444000
v 0.21361100 -0.14813400 -0.17339500
v -0.11067500 -0.19431400 0.06610000
v -0.06751500 -0.18708500 0.07053400
v 0.11293400 0.17995600 -0.18266000
v -0.06612041 -0.00642002 -0.20998073
v -0.09742480 -0.03602674 -0.20660325
v -0.10104842 0.00280906 -0.18941741
v -0.30638100 -0.18792000 -0.08780600
v -0.30659700 -0.19596900 -0.05887100
v -0.22940927 -0.04669822 -0.05904474
v -0.22200300 -0.05514300 -0.02278700
v -0.19975250 -0.04188200 -0.02642600
v 0.07533300 -0.18102200 -0.24174000
v 0.08282900 -0.19774700 -0.22935200
v 0.20504965 0.07251808 0.00156675
v 0.21016558 0.06381155 0.00112934
v 0.21065010 0.06885932 -0.00632712
v -0.07912392 0.10406771 -0.15858111
v -0.07941000 0.13448200 -0.13480600
v -0.08546635 0.09685542 -0.14935707
v 0.21411431 -0.23821437 -0.05316154
v 0.19003564 -0.25371369 -0.03517163
v 0.17995540 -0.24414062 -0.07598973
v -0.02340600 0.27146900 -0.01465600
v 0.01235624 0.27422701 0.00545935
v -0.30132400 -0.18085200 -0.11013300
v 0.00458419 -0.27865045 0.00595103
v -0.00800136 -0.27035702 0.02229792
v 0.00674119 -0.28577736 -0.01598545
v -0.00115160 -0.27999586 -0.00378718
v -0.15174130 -0.28951058 0.00627052
v -0.17728423 -0.29504492 0.00527825
v -0.17570302 -0.29479125 -0.01529100
v -0.19719554 -0.29947852 -0.02320505
v 0.05430400 -0.25376900 -0.14867600
v 0.01016975 -0.26333800 -0.13755300
v -0.30101900 -0.20287600 -0.03038800
v -0.10357996 0.04468578 -0.15018693
v -0.10001626 0.04786893 -0.15719161
v -0.10381159 0.04099028 -0.15745627
v -0.15454700 -0.05058900 0.02412500
v -0.19732529 -0.07481008 0.03993301
v 0.24630600 -0.03187200 0.10675800
v 0.05747594 -0.28297282 -0.02782025
v 0.08368821 -0.27905892 -0.03360498
v 0.06422701 -0.28432714 -0.01902406
v 0.09168497 -0.28316541 -0.01229042
v 0.07947161 0.29169114 -0.09413934
v 0.07948300 0.29464200 -0.04240700
v 0.10614500 0.28623900 -0.05277300
v 0.07723468 -0.25687575 0.15779726
v 0.07091859 -0.23019738 0.17681411
v 0.06171853 -0.22816890 0.16471290
v 0.12826913 -0.05550052 0.19760894
v 0.10221080 -0.06155642 0.19512874
v 0.12903775 -0.05933074 0.20255520
v 0.10770914 -0.07265336 0.21069461
v -0.01259700 -0.18432300 0.09610900
v 0.24449381 -0.12579701 0.24079822
v 0.24468600 -0.18225600 0.24517000
v 0.26844800 -0.17361100 0.22907500
v 0.16420500 0.17458600 -0.12848100
v 0.16628402 0.13458560 -0.15803121
v 0.14930800 0.17789400 -0.15081000
v 0.25042362 -0.16498898 -0.09409617
v 0.23956868 -0.20336985 -0.09183825
v 0.24201950 -0.15697296 -0.11398691
v 0.23231197 -0.19345615 -0.11072926
v -0.09723124 0.09158815 -0.13000583
v -0.08851400 0.12887100 -0.11515200
v 0.10165404 0.28335434 -0.08268020
v 0.11788000 0.27159482 -0.09425675
v -0.10503200 -0.28485200 -0.02661400
v -0.06640502 -0.29167675 -0.04180729
v -0.05925692 -0.27951757 -0.00350993
v -0.26748568 -0.06863480 -0.07085259
v -0.25719106 -0.06128632 -0.08479771
v -0.26963903 -0.07379220 -0.09856438
v 0.22235211 0.00477096 -0.10356304
v 0.21712817 0.02699703 -0.10176385
v 0.23217613 -0.00123235 -0.07037924
v 0.03488000 0.17061100 -0.19697200
v 0.04957744 0.21279947 -0.18468619
v 0.06686300 0.17594700 -0.19676500
v -0.18443673 -0.28244032 -0.13750620
v -0.14114600 -0.26943700 -0.15568000
v -0.18330735 -0.28336762 -0.13595123
v 0.10428726 0.25924756 0.02457982
v 0.10082152 0.26051965 0.02475606
v 0.10225728 0.25800428 0.02712265
v -0.10476600 0.04406500 -0.03629800
v -0.09701300 0.06450900 -0.03459800
v -0.10897423 0.04792348 -0.06334171
v -0.19247652 -0.09355420 0.05496552
v -0.21788133 -0.09205555 0.04843386
v -0.19127589 -0.11028701 0.06780791
v -0.22209316 -0.10944385 0.06061794
v -0.28167528 -0.09123575 -0.07660667
v 0.09120729 -0.27125148 -0.06107243
v -0.26028700 -0.21280600 0.03167200
v -0.24058900 -0.21282600 0.04419600
v -0.00172908 0.15783087 0.07571294
v 0.01398829 0.13712917 0.07868157
v 0.02659640 0.16083133 0.07673640
v 0.17998396 -0.26044558 0.22388857
v 0.22368600 -0.26335600 0.20728500
v 0.22388500 -0.24211400 0.22822800
v 0.05162700 -0.08046500 0.16019400
v 0.09097100 0.11565700 0.06993300
v 0.10179900 0.07319700 0.07375400
v 0.23515600 -0.26000200 0.05878900
v 0.07978508 -0.26518099 0.15093924
v 0.05467100 -0.24502500 0.12492500
v 0.07050500 -0.26494800 0.11313800
v 0.17789400 -0.27746300 0.03177525
v 0.19005300 -0.28410400 0.06797800
v 0.15833700 -0.29003800 0.07674900
v 0.11397900 -0.03126800 0.15542900
v 0.14617900 -0.02064900 0.14891100
v 0.22191600 -0.06698000 -0.15998400
v 0.22279100 -0.09987600 -0.16674000
v 0.22197400 -0.21717200 0.24473800
v -0.28208897 -0.09245186 -0.05331384
v 0.28689217 -0.23897488 0.10217257
v 0.28735586 -0.23759285 0.10230461
v 0.28696940 -0.23912710 0.10264102
v 0.21111082 -0.03234019 0.17100942
v 0.00396076 -0.03680490 0.10902025
v -0.00798748 -0.02792041 0.09704460
v -0.00473753 -0.04938266 0.10810098
v 0.05118700 0.29727600 -0.03277800
v -0.09344700 0.11737100 -0.06084200
v -0.08659600 0.11130500 -0.02843100
v 0.29035096 -0.08313984 0.12487936
v 0.09471422 -0.28501310 -0.00135353
v 0.10959460 -0.27927200 -0.01701809
v -0.09386000 0.12274500 -0.08833800
v -0.04646401 -0.22805749 0.05413802
v -0.04661300 -0.18481700 0.07665200
v 0.04117600 -0.10096500 0.15958800
v 0.20700700 -0.06074000 -0.18941400
v 0.10997254 0.02472723 -0.24615786
v 0.14177894 0.04917949 -0.23415434
v 0.11007731 0.02419960 -0.24626118
v 0.14240307 0.04823491 -0.23425338
v 0.27841499 -0.18762875 0.00911764
v 0.27779105 -0.18842372 0.00852210
v 0.12609068 -0.29350482 0.13535025
v 0.12758996 -0.29378422 0.14455035
v 0.11867447 -0.29294888 0.13625875
v 0.19767151 0.11783367 -0.07509484
v -0.13635850 -0.19908200 0.06475550
v -0.16204200 -0.20385000 0.06341100
v 0.15775200 -0.05440200 -0.24014100
v -0.22880604 -0.04441832 -0.11045998
v -0.23015480 -0.05292951 -0.12641143
v -0.25439703 -0.06591671 -0.11813436
v -0.26110297 -0.07563974 -0.12876271
v 0.07492876 -0.28735267 0.01116400
v 0.07534342 -0.28808853 0.01547511
v 0.22350532 -0.00657009 -0.11088328
v 0.21684500 -0.02523100 -0.15030300
v 0.20867300 0.02213100 -0.13773800
v 0.23753717 -0.27634857 0.13157743
v 0.25840653 -0.26577157 0.15469503
v -0.07180719 0.10204582 -0.16691639
v -0.04920187 0.08844125 -0.19197152
v -0.07523797 0.06134094 -0.18258043
v -0.07302023 0.04533462 -0.19171631
v 0.06403680 0.29109894 -0.10428830
v 0.05211009 0.29539234 -0.09239734
v 0.00180800 0.23025900 -0.16352100
v 0.00482000 0.19833500 -0.17970800
v 0.14715299 -0.19539694 -0.21204026
v 0.14432875 -0.19503494 -0.21452291
v -0.17881299 -0.09106163 0.05648117
v 0.03959100 0.27530100 0.02138000
v -0.11821610 0.02662005 -0.14215356
v -0.14197511 -0.00269310 -0.15573409
v 0.09317000 0.17889500 -0.19130400
v 0.10565500 -0.28537000 0.09496300
v -0.01847829 -0.16772734 -0.24849674
v -0.00881927 -0.17618801 -0.24801125
v -0.04332978 -0.19333827 -0.23928685
v 0.08859500 -0.04461400 0.15863200
v 0.06949022 0.03999158 0.09006456
v 0.10813000 0.05306600 0.07959500
v 0.06495578 0.06528245 0.08244272
v 0.15508100 0.23419700 -0.07934800
v 0.13208575 0.24732403 -0.12328813
v 0.14640513 0.21963279 -0.12568858
v 0.18291738 -0.15821778 -0.21997424
v -0.25740093 -0.06129452 -0.07340881
v -0.10907000 -0.29236000 -0.05213200
v 0.21814400 -0.18997200 0.25599600
v -0.02388180 0.11305278 -0.19589923
v -0.02216071 0.07158722 -0.20747238
v -0.12148418 -0.20393290 -0.21623572
v -0.10148116 -0.19087127 -0.22578872
v -0.09033139 -0.20285560 -0.22611873
v -0.15750500 -0.23651100 -0.18754400
v -0.05932012 -0.27627257 0.00349085
v -0.05676557 -0.24559045 0.04165819
v -0.10251700 -0.25520700 0.02435900
v 0.10906671 -0.13584389 0.24856264
v 0.08683421 -0.15880284 0.23022070
v 0.11670374 -0.13391684 0.25441628
v 0.10273317 -0.16949220 0.24130436
v -0.17669942 -0.10654264 0.06843219
v -0.13475800 -0.08494300 0.05709300
v -0.24513949 -0.16633458 0.05286035
v -0.23886879 -0.16895769 0.05651084
v -0.13230800 -0.28204400 -0.13329700
v -0.16277200 -0.29700500 -0.09418100
v -0.08037899 0.04209021 0.01119087
v -0.07756454 0.01330222 0.03521444
v -0.06348109 0.04372501 0.03734203
v 0.23452931 0.02297835 -0.01885032
v 0.23192870 0.02356382 -0.00910025
v 0.23976537 0.01247036 -0.00904795
v 0.08492850 0.14108450 0.06896400
v 0.01064322 -0.28714391 -0.02367020
v 0.03284525 -0.28561318 -0.02384749
v 0.18102708 0.08909925 -0.15745690
v 0.18687488 0.05155507 -0.17082931
v 0.16803148 0.08105391 -0.19000039
v -0.11486900 -0.29500500 -0.07832000
v -0.07496134 -0.29334513 -0.06439240
v 0.07348293 0.02085924 -0.24375994
v 0.07019098 0.02519233 -0.24211817
v -0.19004683 -0.28405982 0.02247030
v -0.16310405 -0.25972002 0.04066551
v 0.07582000 0.05235443 -0.23587814
v 0.11393832 0.15831951 0.05838314
v -0.10246426 0.08378489 -0.09755152
v -0.27010271 -0.07676914 -0.12140151
v -0.27924184 -0.08558331 -0.11978825
v 0.27866056 -0.09437088 0.20777380
v 0.27387891 -0.06303502 0.18471572
v 0.24409326 -0.07783762 0.21659497
v 0.26655165 -0.06306872 0.18954274
v 0.03084881 -0.17318801 -0.24891599
v 0.03129220 -0.17840738 -0.24548495
v 0.01934465 -0.17075066 -0.24960543
v 0.00462118 -0.04071343 -0.24227198
v 0.26239274 -0.26357895 0.15640478
v 0.26110783 -0.26373447 0.15975582
v 0.26022217 -0.26473118 0.15788388
v 0.18246400 -0.07420900 0.23105400
v -0.28239937 -0.24220662 -0.10630940
v -0.27548527 -0.22706536 -0.14194753
v -0.26125602 -0.25869159 -0.13366281
v 0.15357600 -0.26418100 -0.04063025
v 0.14025529 0.05417724 0.06828933
v 0.12125000 0.02143400 0.09865500
v 0.11375200 0.03817600 0.08681700
v 0.06894676 -0.01907953 0.13191235
v 0.06880718 -0.02061756 0.13287046
v 0.06978400 -0.01972490 0.13280389
v 0.12902800 0.00660200 0.11282800
v -0.27687000 -0.21119000 0.01534400
v -0.04789655 0.16573151 0.04606186
v -0.04202248 0.16729654 0.05458355
v -0.05062238 0.20948940 0.02539664
v -0.04610350 0.20874291 0.03268501
v -0.19438118 -0.05103795 0.00382979
v -0.00778004 -0.25079909 -0.17574826
v -0.00636796 -0.25554815 -0.16491345
v -0.04132273 -0.25551933 -0.17447219
v -0.04500687 -0.26366899 -0.15753806
v -0.02178500 0.15642500 -0.18170200
v 0.00880800 0.16479900 -0.19240300
v 0.23236609 -0.06562791 0.21228663
v 0.23056419 -0.07395340 0.22228126
v 0.16335907 0.07638757 -0.20259493
v 0.14452675 0.05117726 -0.23119646
v 0.13846032 0.09352018 -0.21546644
v 0.25473600 -0.02375222 0.06152486
v 0.26156500 -0.04569500 0.09792800
v 0.22844200 -0.02215600 0.11614200
v 0.26196574 -0.04840797 0.14774168
v 0.23455287 -0.03522680 0.16687717
v -0.12211684 -0.22667291 -0.20144123
v -0.13266157 -0.21024754 -0.21094540
v 0.08673400 -0.27717700 0.10372300
v 0.21013015 0.08805119 -0.05374272
v -0.06763587 -0.15435369 -0.23541879
v -0.03219477 -0.12497186 -0.24446964
v -0.06812816 -0.15417217 -0.23529201
v -0.04558500 0.14871300 -0.16898800
v -0.07698189 0.18149452 -0.13222269
v -0.04836319 0.19065752 -0.15706809
v 0.28389025 -0.11350575 0.03237425
v 0.27506587 -0.06515330 0.03929892
v -0.19341600 -0.03237200 -0.11709000
v -0.19027200 -0.02549400 -0.09009800
v 0.13631475 0.18666578 0.04289554
v 0.15062600 0.13368700 0.02888700
v 0.04760600 0.26050800 0.03754700
v -0.10558837 0.00815422 -0.00117597
v -0.11226599 -0.00191558 0.00603938
v -0.09585803 0.00409326 0.01469603
v 0.09264221 0.27797582 -0.13464831
v 0.10728314 0.27113093 -0.12985606
v 0.10085961 0.27306114 -0.14210991
v -0.15190693 -0.27435031 0.02238448
v -0.18783320 -0.28464564 0.02126500
v -0.00685232 -0.12952751 -0.24969639
v -0.01329000 -0.08601700 -0.24594000
v 0.02183032 -0.12675434 -0.25639409
v 0.19042300 -0.09158900 0.24439000
v 0.19790600 -0.11169900 0.25354900
v -0.12779200 -0.10496700 0.06607400
v -0.07809875 -0.28247600 -0.11530700
v 0.23247763 -0.04279191 0.18522541
v 0.22720917 -0.00916853 -0.09907606
v -0.06079886 -0.27828362 0.00076034
v 0.26820585 -0.04892602 0.13681227
v -0.18540700 -0.02434000 -0.06252300
v -0.04716101 0.21379352 0.02782251
v -0.14122000 -0.00435900 -0.03539800
v 0.27563673 -0.06589731 0.18245877
v 0.27470092 -0.06208334 0.18173487
v 0.01448500 0.29743500 -0.05283700
v -0.06685477 0.22329059 -0.12589058
v -0.05571710 0.21128369 -0.14230612
v -0.07917454 0.18265736 -0.12947531
v -0.06322945 -0.13355388 0.08524123
v -0.00267244 0.25261724 0.03395797
v -0.16449300 -0.21781800 -0.19607700
v -0.03080700 -0.18404800 0.08406800
v -0.04914265 -0.24343055 -0.20135147
v -0.05646399 -0.24735139 -0.19460096
v -0.05849981 -0.26333956 -0.16152194
v 0.06396578 0.20703564 -0.18776190
v -0.00247995 0.25107557 0.03549647
v 0.02316725 0.21226955 0.06427923
v -0.00219323 0.25156681 0.03518753
v 0.02326475 0.21241172 0.06419114
v -0.21893100 -0.21144000 0.05301700
v -0.06836301 -0.00245515 0.04771324
v -0.05656195 0.02886929 0.04767794
v 0.23334189 -0.22180250 -0.06353276
v 0.23208827 -0.23449038 -0.03734929
v 0.02283300 0.29416500 -0.02443100
v 0.20367900 -0.01596100 0.12775900
v 0.13578653 0.18827776 0.04283722
v 0.14247177 0.22784117 0.02364772
v 0.10493227 0.21605972 0.04833203
v 0.16192105 -0.09800844 -0.24991199
v 0.16848520 -0.09273578 -0.24403830
v 0.21489052 -0.26011421 0.01311463
v -0.03333730 -0.25779422 0.02905065
v -0.05464299 -0.27703564 0.00304070
v 0.25936077 -0.21024805 -0.02905070
v 0.24950994 -0.23132820 -0.00915985
v 0.18590300 -0.18919400 -0.17389700
v -0.02580867 -0.16094120 0.09385330
v -0.11021469 -0.14500117 -0.22325106
v -0.13080477 -0.16056881 -0.21778111
v -0.14277150 -0.12243775 -0.20856675
v -0.10416312 0.06988824 -0.12784187
v -0.11716555 0.03659799 -0.12389785
v -0.10992332 0.05910793 -0.09998958
v 0.10131237 0.25208284 0.03063564
v 0.09109878 -0.26732427 -0.07592134
v 0.14141700 -0.25754000 -0.07683300
v -0.17245600 -0.19237200 -0.20129600
v 0.08778526 -0.10742178 -0.26358529
v 0.05280200 -0.10406400 -0.25986600
v 0.07844200 -0.06467100 -0.25937800
v 0.14044436 0.25598418 -0.03106047
v 0.14052900 0.25844000 -0.06967300
v 0.12501900 0.27449400 -0.06132600
v -0.13142416 0.01989516 -0.12533401
v -0.06226103 0.25114154 -0.05528882
v -0.05985500 0.23419400 -0.01121400
v -0.04549500 0.25257200 -0.01178200
v 0.12508499 -0.28898086 0.03603117
v 0.13149600 -0.29025100 0.08524600
v -0.23732041 -0.21897538 -0.17589341
v -0.25031668 -0.21410372 -0.16626182
v -0.23545867 -0.21156944 -0.17867917
v 0.17774100 -0.01533500 0.13839400
v 0.29492600 -0.12288500 0.06997400
v -0.29124100 -0.17344400 -0.13046600
v -0.12557300 0.01088300 -0.03679200
v 0.10862921 -0.27506629 -0.03446016
v -0.27377219 -0.21754708 -0.14618620
v -0.27224200 -0.16418900 -0.15159800
v -0.26450500 -0.27209000 -0.05724400
v 0.17270912 -0.24435084 -0.08339928
v 0.17820259 -0.24248663 -0.08269301
v 0.03433260 0.29520505 -0.08190460
v -0.14359969 -0.16766340 -0.21395692
v -0.11940779 -0.18028330 -0.22076688
v 0.27710146 -0.13348349 -0.00355134
v 0.27285450 -0.10412650 -0.00522550
v 0.20693436 -0.22345832 -0.09988508
v 0.20901045 -0.22199550 -0.10025571
v 0.05940900 -0.13073400 -0.25791600
v 0.05869700 -0.19643150 0.17977450
v 0.08198600 -0.20193000 0.21274500
v -0.24643766 -0.27113825 -0.12720423
v -0.26507341 -0.26162696 -0.10219563
v -0.25257950 -0.27170378 -0.09900189
v 0.25482086 -0.14374658 -0.08221221
v 0.25677521 -0.13283424 -0.07419760
v 0.30687452 -0.17428926 0.14105204
v 0.30674299 -0.19495532 0.13643155
v 0.30618547 -0.17105146 0.12685739
v -0.02121776 0.28096818 -0.06538779
v 0.04416673 -0.26914110 -0.09900388
v 0.04414894 -0.26962190 -0.09701859
v 0.04316684 -0.26940076 -0.09856392
v 0.29936043 -0.19189813 0.09118729
v -0.01858800 0.09351000 0.05934600
v -0.03759300 0.09439300 0.04640000
v 0.20703472 -0.05951648 0.20998047
v -0.10720900 -0.21425000 0.05821000
v 0.19145500 -0.05664700 -0.21180400
v -0.10402700 -0.23629900 0.04347900
v -0.28649027 -0.23802379 -0.09222203
v -0.03396450 -0.27290700 -0.12643000
v -0.07021600 0.21334100 -0.01240900
v -0.14766118 -0.00599851 -0.14953810
v -0.15725401 0.00047656 -0.10397950
v -0.16207034 -0.00369837 -0.10401868
v -0.19181524 -0.17443998 0.06788602
v -0.23338840 -0.16748497 0.05931122
v -0.01971699 -0.27058867 0.01824503
v -0.05645050 -0.09815725 -0.23348225
v 0.20514608 -0.22324082 -0.10259000
v 0.20743577 -0.22250414 -0.10166146
v 0.17357655 -0.24017041 -0.09426330
v 0.18265630 -0.23843490 -0.08688149
v -0.24572900 -0.07185000 -0.01918500
v -0.21438162 -0.24455235 -0.17634638
v -0.23595897 -0.25673093 -0.16603360
v -0.23332163 -0.24850283 -0.16935625
v 0.15767160 0.14071449 -0.16707521
v 0.16373345 0.12866393 -0.16729659
v -0.21835300 -0.14473600 -0.18395000
v -0.19080500 -0.10338100 -0.18490900
v -0.18593200 -0.13457800 -0.19610900
v -0.02205577 0.13007502 0.06554708
v -0.02104580 0.13056645 0.06605051
v -0.02326304 0.13210291 0.06492286
v 0.03341257 -0.27721493 0.03141065
v 0.03472300 -0.27714981 0.03350757
v 0.25349796 -0.12976904 0.23372726
v 0.24990378 -0.11702897 0.23561050
v 0.25124591 -0.20234188 -0.07311519
v 0.25606677 -0.18560916 -0.07238301
v 0.25933141 -0.20065190 -0.05114571
v -0.09894900 -0.04746876 0.05966537
v -0.08675799 -0.07246214 0.07272667
v -0.08416228 -0.04228135 0.06381350
v -0.07768004 0.09960156 -0.16285434
v -0.07509937 0.10708635 -0.16246954
v -0.10346981 0.07992612 -0.08265375
v -0.10552422 0.07391316 -0.09404840
v 0.08311600 -0.24489500 -0.15543450
v 0.11192800 -0.23602100 -0.16219300
v 0.12616400 -0.24710600 -0.12297300
v -0.19154700 -0.29743500 -0.08585700
v 0.05535714 -0.15386300 0.19255611
v 0.05535271 -0.15406071 0.19249916
v 0.07631750 -0.14579029 0.22293012
v 0.07876343 -0.15594030 0.22361573
v -0.06625400 0.14068300 -0.15185700
v 0.16669135 -0.10447932 -0.24790153
v -0.08424613 -0.26909724 -0.15545228
v 0.18517562 0.04823153 0.04628642
v 0.18204277 0.04664681 0.04928411
v 0.18664118 0.04418760 0.04979904
v 0.27236817 -0.14108950 -0.02262511
v 0.26290325 -0.13412131 -0.05326105
v 0.26181875 -0.09474725 -0.04282525
v -0.14951624 -0.04021250 -0.17649814
v -0.15318315 -0.05986131 -0.18887754
v 0.21349900 -0.16740200 0.25986600
v 0.20627500 -0.13909100 0.25932700
v 0.09625141 0.26294238 0.02199598
v -0.24894300 -0.15519900 -0.16828300
v 0.11834745 -0.12785289 0.25378330
v 0.12492360 -0.13450228 0.25624579
v 0.10435749 -0.25285842 0.20501577
v 0.09814600 -0.20382700 0.22945000
v -0.19076982 -0.28478368 0.02179494
v -0.09963585 0.08369441 -0.12765008
v -0.14714415 -0.01082532 -0.15773303
v -0.13087263 -0.02522685 -0.18623654
v -0.20969950 -0.03391516 -0.06604529
v 0.00039000 0.25490400 -0.14642400
v -0.04292263 0.25989657 -0.10793812
v 0.00090900 0.27564500 -0.12493000
v -0.05210471 -0.28863512 -0.07621737
v -0.02402388 -0.07475204 0.10073275
v -0.03195947 -0.04607005 0.08953358
v -0.03585622 -0.02066614 -0.22469778
v -0.05253446 -0.04945013 -0.22550013
v -0.05751811 -0.00660591 -0.21307624
v -0.03381590 -0.09847060 0.09834393
v -0.03494477 -0.08876813 0.09725046
v -0.05078842 -0.13192671 0.08782203
v -0.05100216 -0.12344432 0.08739567
v 0.23544609 -0.00717231 -0.06357480
v 0.23683870 -0.00683321 -0.05649928
v 0.24727834 -0.02733132 -0.03779616
v 0.24894073 -0.02435605 -0.02551896
v -0.00271627 0.25197964 0.03479780
v -0.22690256 -0.27814569 0.00988597
v -0.04768229 0.25566573 -0.10807154
v -0.07793428 0.23304984 -0.10621199
v 0.28325566 -0.14954905 0.01333423
v 0.27854677 -0.18662671 0.00920022
v 0.17437937 -0.01350561 -0.21780176
v 0.19478411 -0.00876055 -0.19375299
v -0.24627500 -0.28486400 -0.06587200
v 0.14215991 0.08069483 0.05753715
v 0.07131500 0.19457000 0.06486200
v 0.02335877 0.21139440 0.06452006
v 0.02333731 0.21212935 0.06432065
v -0.11510600 0.02486400 -0.03704200
v -0.09565287 0.02692178 -0.00077346
v -0.24946140 -0.06095031 -0.05523611
v 0.23757403 -0.09872317 0.23177148
v 0.15067953 -0.24128001 -0.11506534
v 0.16113037 -0.23262361 -0.12903338
v -0.10272518 -0.17630238 -0.22518600
v 0.12694316 0.26541366 -0.02630993
v -0.09961100 -0.11029750 -0.22102450
v -0.06837354 -0.15419660 -0.23522407
v -0.16800100 -0.03597000 -0.00423900
v 0.26110495 -0.03819707 0.05350181
v 0.07805985 -0.02031330 -0.25343593
v 0.13150131 -0.05604473 0.19900607
v 0.09673321 0.27417426 -0.14509421
v 0.07573899 -0.16216131 0.21773517
v 0.25457104 -0.02325241 0.04868538
v 0.24255259 -0.00688839 0.05472473
v 0.25084396 -0.01727209 0.05829746
v 0.16741166 0.18744687 0.00224748
v 0.16636842 0.18474715 0.00809254
v -0.01467973 -0.09284417 0.11393213
v 0.26046805 -0.20731149 0.22139887
v 0.00141626 -0.25335301 -0.16783315
v 0.25880985 -0.14737322 -0.06834143
v 0.05454051 0.13568106 -0.21101314
v 0.05690008 0.14765764 -0.20752967
v 0.07478874 0.13565621 -0.21209950
v -0.12223300 -0.29204500 -0.10418400
v -0.29384900 -0.12960400 -0.01655200
v -0.15023700 -0.25281600 -0.17519300
v 0.27331530 -0.05937663 0.17551958
v 0.27528946 -0.05870394 0.13800925
v 0.08300956 -0.28805782 0.01829143
v 0.09663118 -0.28696572 0.05733632
v -0.02244387 0.02576836 0.07420735
v -0.01858335 0.01701038 0.07753838
v -0.00027307 0.05189252 0.07680867
v 0.01488117 0.04492728 0.08395528
v -0.09206586 -0.03350771 0.05376949
v -0.10248319 -0.04314498 0.05380947
v 0.21385600 -0.27439900 0.06252200
v 0.00335700 0.28752400 -0.10436400
v 0.18259700 0.15617900 -0.04738100
v 0.16678500 -0.19979700 0.25857600
v -0.19640882 -0.13839894 0.07310279
v -0.17729349 -0.12635148 0.07245248
v 0.05034709 -0.21859466 -0.21370062
v 0.04639784 -0.20445680 -0.23169738
v 0.12986921 0.13816171 -0.19790476
v 0.17723300 0.14896800 -0.02186200
v 0.19331199 0.11469125 -0.01418111
v 0.19406526 0.11572123 -0.02080314
v -0.23073900 -0.07967316 -0.15216882
v -0.11052219 -0.03540102 -0.19977730
v -0.10401274 -0.05306301 -0.20827533
v 0.11815935 -0.26506309 0.20710151
v 0.10821931 -0.27025325 0.19044206
v 0.13918520 -0.27718669 0.20422558
v 0.14096222 -0.29091319 0.18302635
v 0.01201755 -0.18700841 -0.24085563
v 0.29576700 -0.14848100 0.06408100
v 0.29128300 -0.17371700 0.05985700
v 0.11710900 -0.20429300 0.24299600
v 0.05547200 0.24226700 0.04983200
v 0.06288400 0.22176000 0.05838000
v -0.12714088 0.02082789 -0.08137190
v -0.02476700 0.27903623 -0.06881803
v -0.12873884 0.01885318 -0.07440271
v -0.24253414 -0.24234960 0.02561423
v -0.26000642 -0.24766812 0.00160477
v -0.23201407 -0.26987229 0.01352725
v 0.08709146 -0.12022710 0.23251538
v 0.08935451 -0.10791070 0.23451899
v 0.08338453 -0.10847742 0.22690967
v 0.21173651 0.08342097 -0.05137921
v 0.19540466 0.11084754 -0.01575728
v -0.17750200 -0.02862100 -0.03006500
v -0.01840562 -0.02973983 -0.23232737
v 0.23454582 -0.00727405 -0.06736532
v 0.19018839 -0.13496652 -0.22167657
v 0.23076483 0.01319704 0.02831154
v 0.25531455 -0.01944889 0.00972205
v 0.10549200 -0.05993700 -0.25703400
v 0.25871363 -0.13939937 -0.06903113
v 0.15451477 0.23823627 -0.03662436
v -0.07622126 -0.09381190 0.08287830
v -0.07585553 -0.09026352 0.08275626
v 0.17711400 0.16890300 -0.09927200
v -0.23711670 -0.23656171 0.03166721
v -0.20053237 -0.24128649 0.04465373
v -0.30031413 -0.11553810 -0.09199432
v -0.29977696 -0.12040199 -0.06987632
v -0.26809958 -0.24428667 -0.00641632
v -0.26574322 -0.24901031 -0.00706530
v 0.02041721 0.05385520 0.08446525
v 0.03012100 0.09996400 0.07468300
v 0.00242500 0.09510800 0.06857600
v 0.09501309 -0.25083774 0.19662971
v 0.21153979 0.08317451 -0.05382559
v 0.11048519 0.02361663 -0.24621693
v 0.14272907 0.04642442 -0.23438076
v -0.10036769 0.00504940 -0.18900075
v -0.07522343 0.04062674 -0.19199359
v -0.06472291 -0.00318188 -0.20958507
v -0.19144809 -0.22420452 -0.19013753
v -0.01543263 -0.28604528 -0.01869842
v -0.02411182 -0.27710162 0.00050802
v -0.05765700 0.09822800 0.02609500
v -0.19061766 -0.17645017 0.06760436
v -0.18950409 -0.17466778 0.06828167
v -0.21643794 -0.18297577 -0.18850589
v -0.18059500 -0.16080600 -0.20108200
v -0.20765246 -0.18750745 -0.19182812
v 0.08146352 -0.26489362 0.15594170
v 0.10978877 0.02394699 -0.24634794
v 0.10954966 0.02431492 -0.24624682
v -0.03541701 -0.28747860 -0.06368088
v -0.02396238 -0.28940682 -0.03991549
v -0.05017441 -0.29033836 -0.03431626
v 0.19788498 0.12425446 -0.05509352
v 0.27697229 -0.14266324 0.21647954
v 0.29913800 -0.15698400 0.18881500
v 0.28055303 -0.12375900 0.20910664
v -0.05857900 -0.27775525 0.00156750
v 0.05822600 0.10671800 0.07541700
v 0.09686454 -0.27664900 0.14854173
v 0.16740900 0.14185000 0.00232100
v -0.08161100 0.15119100 -0.02177200
v -0.07334500 0.10383200 0.00253600
v 0.25918869 -0.13367411 -0.06611007
v 0.22431177 -0.18052151 -0.13347466
v 0.22880589 -0.15757141 -0.14162329
v 0.27802011 -0.06872905 0.17688272
v -0.12490984 0.02695490 -0.07800572
v -0.10794631 0.06095413 -0.08176945
v -0.01493559 -0.01600485 0.08759105
v -0.01929399 0.00765616 0.07915674
v -0.02833569 -0.02419257 0.08264038
v 0.06613500 -0.06259500 0.16006300
v 0.17079006 0.11941134 -0.15865512
v 0.08710916 -0.06319957 0.18826750
v 0.08635130 -0.07403384 0.19944923
v 0.16349146 0.10326925 -0.18468267
v 0.12828843 0.12262275 -0.20807472
v 0.12374920 -0.27354573 -0.03052145
v 0.05471115 -0.27583016 -0.06485315
v 0.04534754 -0.26901831 -0.09870177
v -0.20535444 -0.24838872 0.03822178
v 0.14273716 0.04927364 -0.23379597
v 0.12780765 0.09809184 -0.22294176
v 0.06220884 -0.11836065 0.20353677
v 0.06561298 -0.09941243 0.19858314
v 0.12458081 0.10186623 -0.22230398
v 0.12746750 0.10226076 -0.22058909
v 0.03386000 -0.12875700 0.15759000
v 0.07043456 -0.01959884 0.13295468
v 0.06996091 -0.01923657 0.13244629
v 0.17654899 -0.10760819 -0.23704596
v 0.16086759 -0.12386196 -0.25036481
v 0.16562910 -0.15064771 -0.24342733
v -0.06802294 -0.15455266 -0.23529139
v -0.06819767 -0.15427371 -0.23527614
v -0.27728614 -0.25091249 -0.09183527
v -0.21977479 -0.21819445 -0.18179046
v -0.00501063 -0.13819749 0.11742409
v -0.00093393 -0.14546139 0.12058126
v -0.02325795 -0.01251845 -0.22703438
v -0.19981142 -0.24164816 0.04475469
v -0.19916638 -0.24129548 0.04500614
v -0.19964423 -0.24080194 0.04510236
v -0.04863595 0.21602585 0.02302191
v -0.02343714 -0.21582043 0.06934553
v 0.12792824 -0.08490347 0.23441647
v 0.15184076 -0.10405245 0.24907920
v 0.04114513 0.27673941 -0.13627562
v 0.27134548 -0.05907369 0.18106769
v 0.05469308 -0.23326637 -0.19583919
v 0.02383518 -0.24589089 -0.17705996
v 0.08648866 0.27362280 -0.14436298
v 0.13731671 0.18705304 0.04198018
v 0.17272687 -0.29501784 0.13325816
v 0.29009732 -0.10896020 0.18808920
v -0.14984538 -0.06303246 -0.19352785
v -0.10553868 -0.27491492 -0.14790550
v 0.12039247 -0.29122099 0.05531179
v 0.29815633 -0.19825067 0.17487353
v 0.29734529 -0.22486990 0.16734828
v 0.30335187 -0.20680332 0.14710448
v -0.06049104 0.00105603 -0.21016596
v -0.07116721 0.04130609 -0.19355600
v 0.10355886 0.26213925 0.01757003
v 0.20157794 -0.10117367 -0.21023930
v 0.17655094 0.19222338 -0.04430788
v 0.18269700 0.16298600 -0.07353500
v 0.16568500 0.20767900 -0.08810100
v -0.30342800 -0.17454900 -0.02334100
v -0.30086700 -0.15170600 -0.01913100
v -0.30458288 -0.13450061 -0.06835035
v 0.00529151 -0.24736975 -0.17885486
v 0.06975753 -0.08043196 0.18979619
v 0.07087529 -0.06821564 0.17745311
v -0.03880901 -0.22819350 -0.22087957
v -0.00854657 -0.22997859 -0.21731200
v 0.03376242 -0.27589773 0.03716708
v 0.04930606 -0.27177148 0.07298754
v 0.03936129 -0.26163529 0.07683915
v 0.21980600 -0.12695300 -0.17107100
v 0.19558700 -0.19493900 0.25952500
v 0.14692960 0.04784798 0.07025450
v 0.16927565 0.04934425 0.05465295
v 0.14734577 0.05771199 0.06359734
v -0.19043773 -0.17125451 0.06885854
v 0.22158500 -0.27620400 0.18734000
v -0.05417256 -0.27843211 0.00011124
v -0.19000236 -0.28041424 -0.13975114
v -0.18655162 -0.28307354 -0.13527395
v -0.05347231 -0.14027953 0.08586349
v 0.30335100 -0.13346800 0.10967400
v 0.23378330 -0.00075229 -0.06230395
v 0.14984948 -0.19075172 -0.21484530
v 0.18369050 0.05499088 0.04328035
v 0.01636443 -0.02005142 0.10573622
v 0.02279828 0.00832141 0.09535136
v -0.00911579 -0.00805273 0.08688408
v 0.04558900 -0.07136500 -0.25775600
v 0.17594100 -0.05469900 -0.22753100
v 0.16138895 -0.12566709 0.25623142
v -0.06823402 -0.15416388 -0.23526129
v -0.23532942 -0.20485229 -0.17880875
v -0.22651902 -0.19853653 -0.18334647
v 0.20078325 0.05882400 -0.12812150
v 0.21536944 0.04592616 -0.08664022
v 0.09065942 -0.09928628 0.22695524
v -0.00306099 0.25135521 0.03530882
v 0.00875900 0.29575300 -0.07607500
v -0.16143710 -0.10187594 -0.19943205
v 0.07045651 -0.01935623 0.13265035
v 0.07536131 0.01307983 -0.24570577
v -0.08122840 -0.08971111 0.08135284
v 0.18455356 -0.00142813 0.11689015
v -0.23471377 -0.04963621 -0.08129353
v 0.09730785 0.27136876 -0.14873250
v 0.23642585 -0.11773587 -0.13417812
v -0.07662600 0.19107700 -0.01511300
v -0.19942421 -0.24198864 0.04469263
v 0.16051595 -0.10709540 0.25116599
v 0.03203405 -0.23046486 -0.20790199
v 0.03375233 -0.21222467 -0.22728511
v 0.19499279 -0.02448196 0.15884047
v -0.06845224 -0.15449016 -0.23519937
v 0.26862636 -0.06296971 0.01336130
v 0.26425165 -0.03902273 0.02445622
v 0.26080541 -0.04639712 -0.00034558
v -0.19522743 -0.25269465 -0.17653595
v -0.22180315 -0.25738322 -0.16796352
v -0.02860755 -0.24321866 0.04935312
v -0.05473459 -0.06132299 -0.22747813
v -0.16112659 -0.11363612 0.07239946
v 0.15191054 0.08454087 0.05146161
v 0.07888600 0.16651200 0.06799500
v 0.03540800 -0.19093300 0.14680400
v 0.03198800 -0.15731000 0.15386900
v -0.01770435 0.19528720 0.06852679
v -0.01302054 0.18931148 0.07163703
v -0.00915169 0.19548278 0.07141046
v 0.04346400 -0.22175400 0.13584000
v 0.01614950 -0.07869100 -0.25184800
v -0.08608016 0.05105092 -0.00156638
v 0.25879040 -0.21079045 0.22085007
v 0.26093249 -0.24134216 0.19731148
v 0.25746380 -0.20714807 0.22384732
v -0.24349038 -0.26238480 -0.15101635
v 0.15894394 0.08449399 -0.20237936
v -0.02112407 0.13463010 0.06614976
v 0.03549273 0.17063186 0.07502787
v 0.07003643 -0.02029750 0.13347921
v 0.09830304 0.25796539 0.02800250
v 0.03239530 -0.16841950 -0.25026555
v 0.06686700 -0.15685400 -0.25218900
v 0.03688743 -0.17386847 -0.24803166
v 0.03430242 -0.00417961 0.10566386
v 0.05844969 0.01744054 0.09581710
v -0.00228704 -0.27917108 -0.08840454
v 0.13234000 -0.05627000 -0.25093000
v 0.21310170 0.05854556 -0.08172421
v 0.11374757 -0.29029534 0.14279403
v -0.00029282 -0.22752915 -0.21983769
v -0.00600285 -0.20974347 -0.22924866
v 0.09079505 -0.25839633 -0.10832519
v -0.01266513 -0.28472340 -0.06688012
v -0.02553173 -0.28385171 -0.08366885
v 0.17061941 -0.14877269 0.26152886
v 0.19914489 -0.01843738 -0.18926007
v 0.04467854 -0.26900041 -0.09921029
v 0.27291881 -0.06089277 0.18362448
v 0.01108312 -0.21437508 0.09898569
v 0.01232912 -0.22394294 0.09017319
v 0.29593906 -0.09996571 0.14576170
v -0.22361022 -0.04116374 -0.09911307
v 0.21339576 0.06115653 -0.00708901
v 0.17433657 0.05851350 0.04859713
v 0.22830742 -0.24799285 -0.00156829
v -0.10631355 -0.01908111 0.03455856
v 0.00395400 -0.18567000 0.11044900
v 0.02315215 0.03523736 0.08887263
v -0.24073149 -0.20541070 -0.17502722
v 0.11533618 0.06473658 -0.23565297
v 0.07373270 0.21823579 -0.18189467
v 0.11526932 0.22022428 -0.16723343
v 0.10550995 0.26835535 -0.14281252
v 0.10048315 0.27255190 -0.14572962
v -0.05988966 -0.06155874 -0.22585035
v -0.06284568 -0.05753828 -0.22385699
v -0.05661442 -0.20833396 -0.23329761
v -0.23100461 -0.10286373 -0.16601434
v -0.19354600 -0.07871800 -0.17178700
v -0.05844053 -0.27831824 0.00037106
v 0.08031805 0.02475916 0.09529713
v -0.15007744 -0.07055010 -0.19575520
v -0.14535282 -0.06874604 -0.19706351
v 0.26105548 -0.26114243 0.16401652
v 0.25880541 -0.26494765 0.15969762
v -0.04584838 -0.28569920 -0.08977078
v 0.12576287 0.26218554 -0.10044244
v 0.19409991 0.13405884 -0.06872403
v 0.27942693 -0.22504771 0.18916571
v 0.10930140 0.02340278 -0.24643050
v 0.10928948 0.02404396 -0.24628309
v 0.25009350 -0.01855815 0.06709725
v 0.18166530 0.09362720 0.02282156
v -0.18364581 -0.17195935 0.06924650
v 0.11216819 -0.12557636 -0.26290148
v -0.05963897 0.05256740 0.04031941
v 0.03143815 0.29355406 -0.09275080
v -0.06122510 0.18409755 0.01818848
v -0.10401599 -0.07651566 -0.21429123
v -0.14358261 -0.06524042 -0.19686847
v 0.28539048 -0.24022901 0.10223717
v 0.00378859 -0.28768790 -0.02795407
v -0.05220042 0.15871370 0.04032290
v -0.06650814 0.16540166 0.01368324
v -0.06402539 0.14742285 0.02055823
v -0.03979096 0.02712953 -0.21178151
v -0.03151965 0.05114409 -0.20896632
v -0.00800103 0.02042780 -0.22408533
v 0.10023841 0.19987616 0.05517881
v 0.11239696 0.17718605 0.05558094
v -0.10539717 -0.25952435 -0.17359591
v -0.08546522 -0.25677680 -0.17552974
v -0.10462066 -0.24751051 -0.19240909
v -0.09793955 -0.21395008 -0.21568192
v -0.07913447 0.17911671 -0.13091225
v -0.15688805 -0.14609532 0.07253494
v 0.11782507 -0.17556180 -0.24423310
v 0.11782376 -0.17557198 -0.24422879
v 0.15779158 -0.10512087 -0.25249143
v -0.10040821 -0.25378937 -0.18387478
v -0.14460169 -0.23961518 0.05022658
v -0.14414005 -0.23555017 0.05202289
v 0.21886256 0.02873457 0.03231568
v 0.15855745 -0.14707083 0.26186061
v 0.28270428 -0.24318782 0.11144614
v -0.13646746 -0.20018353 -0.21136902
v -0.24054719 -0.09207950 -0.15591929
v -0.24505999 -0.10472965 -0.15663486
v 0.12424870 0.09480791 -0.22523198
v 0.26131227 -0.14248522 -0.06048578
v -0.25291127 -0.24232788 -0.15581887
v 0.30659700 -0.14127400 0.13832300
v 0.07061799 -0.01889708 0.13221475
v 0.05524739 -0.15399056 0.19238882
v -0.14056783 -0.23730899 0.05123181
v -0.14211507 -0.23354975 0.05284046
v 0.12089663 0.22029627 -0.16315353
v 0.13034945 0.21764630 -0.15112838
v 0.12279232 0.21655175 -0.16314930
v 0.17058378 0.13161200 -0.14978075
v -0.01593046 0.20060613 0.06598939
v -0.23459439 -0.14113099 0.05810444
v -0.22419764 -0.15753224 0.06352247
v -0.02146619 0.12997444 0.06590299
v 0.11755103 -0.13633612 -0.26176044
v 0.23868899 -0.12971846 0.24369539
v 0.23922609 -0.12110683 0.24206798
v -0.16023833 -0.30181144 -0.05015212
v -0.16290906 -0.30188962 -0.04745220
v 0.29828926 -0.10994999 0.15113103
v 0.17782280 -0.26233434 0.22179432
v 0.17845738 -0.25945607 0.22475504
v 0.13199723 -0.26348799 0.21765535
v 0.30524200 -0.14972200 0.16695500
v -0.08807567 0.21223718 -0.09111587
v -0.09428048 0.15869799 -0.06859271
v -0.19072500 -0.20824300 0.05987600
v -0.15956315 -0.30224665 -0.04658845
v 0.22861094 0.02783128 -0.04824193
v -0.07683767 -0.21738198 -0.22412938
v -0.08672337 -0.23665366 -0.20765780
v 0.15659952 -0.01251802 -0.23542836
v 0.11928886 -0.01611285 -0.24962761
v -0.13478274 -0.27855912 0.01468477
v -0.19577277 -0.23377678 -0.18624361
v 0.10676355 -0.26451725 0.19893420
v 0.09939378 -0.25926556 0.19608515
v -0.05159897 -0.01671095 0.06627154
v 0.12310967 0.24976376 -0.13523457
v 0.12114098 0.22487072 -0.15859682
v 0.24436668 -0.05286076 -0.07638194
v -0.06212256 0.25128999 -0.05625798
v -0.02640330 0.27756575 -0.06310551
v 0.27099515 -0.05993856 0.18327922
v 0.05956576 0.23903410 -0.17355968
v -0.03750489 0.16097932 0.05760411
v -0.04280971 0.15649703 0.05427895
v 0.00451303 0.18567639 0.07288707
v 0.16205278 -0.01846605 -0.23326863
v -0.01372830 -0.12610417 0.11085267
v -0.00143592 -0.09917792 0.12534636
v -0.09004800 0.07306113 -0.15838728
v 0.21082000 -0.28851000 0.13650100
v 0.21766800 -0.28434500 0.16529000
v -0.21982300 -0.29407700 -0.07630000
v -0.27175163 -0.09135961 -0.13040904
v -0.28167415 -0.13807084 -0.13506454
v -0.27975276 -0.09872953 -0.12224304
v -0.28364705 -0.13869090 -0.13257995
v 0.21373582 -0.24755851 -0.01896121
v 0.20283322 -0.26040886 0.00032631
v 0.21384488 0.06083005 -0.07007304
v 0.03713095 0.28640801 -0.11232950
v -0.11002305 -0.25357557 -0.18456249
v -0.03379750 -0.00802102 -0.22227517
v 0.02995146 -0.27405410 0.03560164
v 0.00126366 -0.25518147 0.04502197
v 0.01201274 -0.24746199 0.06768155
v -0.00599106 -0.23402698 0.06238821
v 0.16644438 0.04350159 -0.21381760
v 0.16963564 0.02731236 -0.21684178
v 0.16659370 0.02758240 -0.22098543
v -0.23227427 -0.24919589 0.02826533
v -0.27218610 -0.13432447 0.02401237
v -0.27852980 -0.14834804 0.01830065
v -0.25303870 -0.15066309 0.04393540
v 0.12868978 -0.17232881 0.25285548
v -0.02608281 -0.14063398 0.10318550
v -0.12807657 0.01996728 -0.07694017
v -0.13693798 0.01393340 -0.08305092
v 0.07128027 0.02327954 0.09571672
v -0.19935552 -0.29949648 -0.03312688
v 0.00682184 -0.28085277 -0.07506783
v -0.28784714 -0.16246173 0.00380090
v 0.08770741 -0.26249477 0.17022649
v 0.23230475 -0.24636903 0.00651575
v 0.14317946 0.04822234 -0.23383834
v 0.08113868 0.25990062 -0.15792340
v 0.25559141 -0.04556224 -0.02288587
v 0.17646824 -0.29396011 0.13931424
v 0.16692177 -0.28909284 0.18299163
v 0.23222952 -0.20461488 -0.10081499
v 0.16382317 -0.01291181 -0.23034271
v 0.07746749 0.06577717 -0.23247481
v 0.09130323 0.07528647 -0.22990962
v 0.07821337 0.06398326 -0.23307810
v 0.11945004 -0.29247217 0.14988753
v -0.03254811 0.22807070 -0.14680952
v -0.23887587 -0.16011456 0.05933942
v -0.02401028 0.11374807 -0.19566037
v 0.23017987 -0.03994180 -0.11544431
v -0.04764731 0.15288424 0.04925531
v -0.10284200 -0.27336400 -0.00236300
v -0.03248516 0.22795209 -0.14693832
v -0.06285925 0.25057172 -0.05667010
v -0.08609589 -0.00517998 0.03689141
v -0.03112803 0.06700696 -0.20518634
v -0.16160352 -0.30227571 -0.04489300
v -0.15692564 -0.30141910 -0.04178744
v -0.17023034 -0.30174824 -0.04118704
v 0.23287298 -0.00832432 0.07601843
v -0.08118345 -0.09698490 0.08182871
v 0.09494567 -0.10613040 0.23615096
v 0.22864166 -0.02645222 -0.10889967
v 0.12275546 0.14019793 -0.19920995
v 0.09440090 0.14278386 -0.20901835
v -0.16105127 -0.30127044 -0.03876103
v 0.16064812 0.08848763 0.04221635
v 0.11955594 0.21813363 -0.16591443
v 0.11859666 0.22253621 -0.16440810
v -0.09784574 0.08052089 -0.13614689
v -0.10099044 0.05007133 -0.15215938
v -0.26853461 -0.08342730 -0.13027384
v -0.02397411 -0.24331763 -0.19729804
v 0.05532314 -0.15417998 0.19242485
v 0.05521893 -0.15412531 0.19230872
v 0.13842100 -0.20314400 0.25241700
v 0.08404920 -0.28702533 0.06035414
v 0.07378847 -0.28811571 0.01991831
v -0.16352372 -0.00393235 -0.09746927
v 0.17535166 -0.29461556 0.13276112
v 0.06122842 0.10082832 -0.22122360
v 0.06336526 0.10362809 -0.22053739
v 0.06249912 0.10106678 -0.22124331
v 0.09337795 -0.25346421 -0.12296311
v 0.08258815 -0.25708664 -0.11863096
v -0.02123589 0.06057924 -0.21054042
v 0.16257109 0.22438019 -0.03895545
v 0.15904496 0.23164905 -0.03394300
v 0.01665332 -0.28551816 -0.03052392
v 0.05523173 -0.15365889 0.19235880
v -0.14225920 -0.23640238 0.05180796
v -0.22109050 -0.07689984 0.02205400
v -0.00801357 0.02020592 -0.22413464
v 0.29445096 -0.10307138 0.16103833
v -0.02370861 0.11375660 -0.19578278
v -0.07140621 -0.24660392 -0.19637985
v -0.24573302 -0.09264436 0.01665171
v -0.28427135 -0.16995095 0.01154646
v 0.07526389 0.28308722 -0.00953002
v 0.10426906 0.27760980 -0.02141972
v -0.02386521 0.11394400 -0.19566880
v -0.09334722 -0.12440496 0.08128302
v 0.15241669 -0.16057299 0.25965025
v -0.09343306 0.04108054 -0.01035803
v 0.26210501 -0.06674647 -0.01871582
v 0.09291583 -0.28764214 0.06587687
v -0.02734882 0.01369427 0.07251246
v -0.02186332 0.01483725 0.07615767
v 0.19296973 0.11118368 -0.01111410
v 0.02065354 -0.28642905 -0.01173863
v 0.07601126 0.02436981 -0.24321410
v 0.27366858 -0.06078786 0.18264578
v 0.10477052 0.03008998 -0.24430637
v 0.26898318 -0.25736591 0.15925663
v -0.29802416 -0.13436032 -0.03705351
v 0.23542328 -0.12462204 -0.13465330
v -0.01022230 0.01428140 0.08109027
v -0.06292478 0.25015472 -0.05552278
v -0.06975137 0.05258146 0.02372437
v 0.23578334 -0.11989034 -0.13546206
v -0.06706766 -0.06391940 -0.22386400
v 0.02834767 -0.06177172 0.14045429
v 0.00102672 -0.07403618 0.12051976
v -0.03242234 0.22814212 -0.14684452
v -0.22745849 -0.26352831 -0.16086642
v -0.00062796 -0.21357997 0.08701798
v 0.04275038 0.05489928 0.08440195
v 0.06289103 0.05649732 0.08464815
v 0.06758509 -0.28755213 0.01513228
v -0.02628239 0.05624615 0.06708456
v -0.10218482 0.00574819 -0.18684306
v -0.10387173 0.00224924 -0.18822086
v 0.17806179 0.03630394 -0.19590415
v 0.30407311 -0.17584188 0.10189649
v 0.30551331 -0.19871641 0.12201630
v -0.23213092 -0.26727963 -0.14713969
v -0.22891247 -0.28181823 -0.11347771
v 0.18888766 0.04481396 -0.17120206
v -0.19968029 -0.06077781 0.01603594
v -0.22571311 -0.08884278 -0.16299867
v 0.16619786 0.02089567 0.08774721
v 0.16878879 0.02385377 -0.21958137
v -0.30497204 -0.13700116 -0.08358441
v -0.07519610 0.04342985 -0.19080296
v 0.12093454 0.09970109 -0.22363901
v 0.08995645 0.12790990 -0.21548156
v 0.11464364 -0.01624858 -0.25118652
v 0.00861514 -0.09225816 0.13345166
v -0.00841713 -0.05384563 -0.24113914
v 0.21318200 0.00578265 0.08424674
v 0.22208139 0.01773377 0.04276270
v 0.09834468 0.26544128 -0.15143853
v 0.10150967 0.26921083 -0.14791961
v 0.30555037 -0.20871142 0.13283168
v 0.21811518 0.04883301 -0.07011734
v 0.11783145 -0.17556906 -0.24422921
v -0.28236141 -0.14034838 -0.13465615
v -0.26138920 -0.26840333 -0.08952182
v 0.02531856 -0.24614305 0.08520679
v 0.17500158 -0.29479042 0.13566307
v 0.14822153 0.21167928 -0.13035262
v -0.00788648 0.02036747 -0.22413928
v -0.00788110 0.02043803 -0.22412567
v -0.11800752 -0.24751731 -0.18922945
v 0.17206949 -0.29510876 0.13779555
v 0.04389711 -0.28223762 -0.04119239
v 0.03674718 -0.27953286 -0.06109216
v -0.07979560 0.20921932 -0.04533270
v -0.14008551 -0.29026853 -0.00372874
v -0.12827576 -0.28561064 0.00284530
v 0.10656853 -0.09162787 -0.26261799
v 0.14737832 -0.09442695 -0.25368155
v 0.17289553 0.20147173 -0.02832433
v 0.26133802 -0.05741643 -0.01241844
v 0.11213053 -0.28548136 0.00934218
v 0.15393926 -0.29278590 0.17657608
v 0.13150578 -0.13811967 -0.25483200
v -0.30483143 -0.12772253 -0.07977551
v 0.24707146 -0.26511303 0.08809960
v -0.23654153 -0.28498316 -0.03533886
v -0.24054117 -0.28225960 -0.02884635
v -0.23237575 -0.27883132 -0.00184564
v -0.23333679 -0.28610246 -0.02300081
v -0.21777877 -0.29229861 -0.02963476
v -0.08159680 0.17811060 -0.12059041
v -0.09223170 0.18480340 -0.07829328
v 0.29781275 -0.23324468 0.15789456
v 0.06095156 0.10225673 -0.22079609
v 0.09901402 0.13350575 -0.21207424
v -0.09375395 0.16747932 -0.07068520
v -0.09333978 0.16572259 -0.08139610
v 0.11192890 0.00901625 -0.24812340
v 0.11142822 -0.01244813 -0.25040985
v 0.20480426 -0.09715096 -0.20423114
v 0.18185744 0.04187255 0.05497846
v 0.12171941 -0.23853286 0.22582397
v 0.24272710 -0.12389106 -0.11577708
v 0.06510126 -0.28672561 0.00048997
v 0.04987336 -0.28482287 -0.02242788
v 0.22472088 0.04575024 -0.03545279
v 0.21278118 0.08041273 -0.05147220
v -0.14020815 -0.24041336 0.04849108
v 0.24923387 -0.15117515 -0.10145945
v 0.26590600 -0.18785624 -0.03505857
v -0.24579644 -0.27771685 -0.03152044
v -0.25697547 -0.26028855 -0.01392022
v 0.08569085 -0.28663197 0.06773836
v 0.24816748 -0.03835571 -0.04591998
v 0.18570602 0.04729982 -0.17600088
v -0.05531686 -0.24299239 -0.20231427
v -0.04545244 -0.14558260 0.08786075
v -0.07853115 0.03977416 -0.18932735
v 0.01461322 -0.04821060 0.12368828
v 0.22138471 -0.19521412 -0.12433836
v -0.03238882 0.22808484 -0.14692031
v -0.26716961 -0.12347659 0.02280904
v -0.29134471 -0.11500371 -0.03875803
v 0.26430063 -0.06551759 -0.00884214
v -0.04565731 0.16068151 0.05169629
v -0.04359064 0.04978235 0.05402490
v 0.13465381 -0.12092133 -0.25769889
v 0.11569476 -0.01655521 -0.25113053
v 0.11553036 -0.01584501 -0.25107978
v 0.21879714 0.06280089 -0.03447466
v 0.21190376 -0.26545695 0.02650024
v 0.20721715 0.00164045 0.09554053
v 0.21679061 0.00072001 0.09025663
v -0.04868817 -0.04296217 0.07899886
v 0.27822629 -0.18673448 0.00785791
v 0.03051538 -0.27855742 -0.06945317
v 0.30526247 -0.17565651 0.15155335
v -0.00375077 0.25133062 0.03495532
v -0.24032174 -0.10552576 0.04222001
v -0.04942278 -0.23541710 -0.20941067
v 0.07504422 -0.28137423 0.07063992
v -0.11075754 0.01939412 -0.16820651
v 0.18015915 -0.25956686 0.22463912
v 0.16737331 -0.15572755 0.26135174
v 0.27865661 -0.18745183 0.00982679
v -0.25874940 -0.11064353 0.02399543
v 0.05832422 0.24793308 -0.16779794
v 0.06382977 0.24553818 -0.16978379
v 0.09305400 0.23080201 -0.16784635
v 0.20300357 -0.19546555 -0.14366054
v 0.19804784 -0.20499599 -0.14098268
v -0.08660284 0.21092889 -0.07527993
v -0.01038610 0.20085683 0.06879150
v 0.02301610 0.21231088 0.06425476
v 0.19874685 -0.09253278 -0.21236245
v 0.04264678 -0.28566476 0.00355727
v -0.07584144 -0.08412018 0.08119597
v 0.17255316 0.01003317 0.10264238
v 0.04442977 -0.26920528 -0.09861251
v -0.05081292 -0.22574321 -0.22486723
v -0.04996287 0.00733184 0.05941067
v 0.05422437 -0.11116225 0.19095050
v 0.15565832 -0.28873733 0.19131296
v -0.00450377 0.25130408 0.03401995
v -0.12671180 0.02139137 -0.07436767
v -0.30098208 -0.13232380 -0.09510259
v 0.02871683 -0.28016753 0.01207417
v -0.24526874 -0.05393459 -0.11273902
v -0.00332085 0.25190064 0.03464120
v -0.28283676 -0.13893537 -0.13388614
v 0.17955157 0.00795406 0.10388973
v 0.20129567 0.00778412 0.08755681
v 0.18826702 0.04183958 -0.17449184
v -0.03797997 -0.07325258 0.09219326
v -0.00563066 0.20016525 0.06926741
v 0.02306602 0.21210236 0.06435643
v 0.16297990 0.02116394 -0.22426077
v 0.24904502 -0.26739097 0.09801206
v -0.02369020 0.11398638 -0.19572518
v -0.09077299 0.17483954 -0.06429601
v -0.09143244 0.16755657 -0.06149841
v 0.07903894 -0.24397779 0.17743870
v 0.02311107 -0.28197965 -0.05686534
v 0.17602464 0.01578282 -0.21199094
v 0.20260513 -0.09385854 -0.20788749
v 0.27009067 -0.15868351 -0.03419064
v 0.23661934 -0.01367299 -0.06578146
v 0.23935586 -0.03862851 -0.08154057
v 0.19318515 -0.20383212 -0.14812503
v 0.18741609 -0.21127617 -0.14034732
v 0.14057046 -0.23375446 0.23695788
v 0.29674899 -0.12135327 0.17146597
v -0.27588940 -0.16961603 0.02233573
v 0.16102687 -0.23482497 0.23797709
v 0.23545320 -0.04402308 -0.09997083
v 0.23364902 -0.01725837 -0.08008913
v 0.23724331 -0.12024915 -0.13220494
v 0.02846681 0.04586842 0.08707977
v 0.26507793 -0.16871432 -0.04993578
v -0.00353071 0.25216367 0.03394289
v -0.00784298 0.02026724 -0.22417537
v -0.07554876 0.22353439 -0.05066653
v 0.07343251 0.10072045 -0.22163199
v -0.00873535 -0.14597984 0.11232832
v 0.05705277 -0.09487951 0.18233519
f 1 3 2
f 4 5 6
f 7 8 9
f 10 11 12
f 13 14 15
f 16 17 18
f 19 20 21
f 22 23 24
f 26 27 28
f 29 30 12
f 36 37 38
f 41 42 43
f 44 45 46
f 47 48 49
f 54 55 56
f 59 60 23
f 65 67 66
f 68 69 70
f 72 73 74
f 82 83 84
f 85 68 86
f 87 88 89
f 92 93 94
f 95 97 96
f 98 99 100
f 62 101 102
f 104 105 106
f 105 107 106
f 108 109 110
f 109 111 110
f 86 70 114
f 115 116 117
f 118 119 74
f 121 122 123
f 122 124 123
f 125 126 127
f 128 129 130
f 131 132 133
f 132 134 133
f 136 137 138
f 139 140 141
f 142 143 144
f 143 145 144
f 146 147 97
f 125 148 149
f 150 151 152
f 153 154 155
f 156 157 158
f 159 160 161
f 162 163 164
f 165 166 167
f 168 169 170
f 171 172 173
f 172 174 173
f 153 155 175
f 121 176 122
f 179 180 181
f 182 183 184
f 186 187 53
f 189 190 191
f 192 193 194
f 46 79 80
f 153 200 76
f 201 202 203
f 20 204 21
f 205 206 207
f 31 211 32
f 212 124 213
f 80 215 216
f 218 197 198
f 219 220 221
f 220 222 221
f 223 58 224
f 225 226 227
f 39 228 40
f 229 45 230
f 232 233 234
f 233 235 234
f 236 124 237
f 124 212 237
f 238 239 240
f 241 66 242
f 243 244 245
f 244 246 245
f 247 248 125
f 249 160 250
f 251 7 252
f 253 74 119
f 254 61 102
f 255 117 256
f 259 260 261
f 260 42 261
f 131 195 262
f 263 264 265
f 266 268 267
f 77 269 78
f 153 270 154
f 273 50 274
f 275 276 277
f 279 280 281
f 282 283 284
f 283 285 284
f 74 286 287
f 178 289 288
f 290 164 163
f 291 164 290
f 292 293 294
f 295 296 297
f 106 299 300
f 301 302 303
f 304 305 271
f 56 307 306
f 308 309 17
f 309 18 17
f 310 56 55
f 298 53 311
f 146 312 214
f 155 313 314
f 315 316 317
f 316 318 317
f 319 320 321
f 322 64 63
f 323 324 325
f 327 328 329
f 189 128 190
f 330 100 99
f 264 331 187
f 310 307 56
f 334 335 336
f 339 340 341
f 340 342 341
f 88 343 89
f 344 345 346
f 345 347 346
f 348 250 349
f 350 351 317
f 352 353 354
f 31 355 356
f 357 359 358
f 360 361 275
f 40 228 363
f 26 364 365
f 364 366 365
f 368 369 367
f 195 196 337
f 370 371 32
f 372 232 373
f 374 52 375
f 377 378 379
f 380 381 382
f 108 383 384
f 385 386 387
f 392 204 20
f 393 238 156
f 394 150 152
f 120 395 356
f 397 341 342
f 53 298 186
f 316 399 400
f 402 403 404
f 403 368 404
f 80 405 46
f 254 102 406
f 407 361 278
f 409 346 410
f 346 411 410
f 161 160 412
f 413 414 415
f 414 416 415
f 417 289 178
f 293 418 294
f 418 419 294
f 372 5 4
f 98 420 421
f 62 422 401
f 423 359 357
f 424 425 426
f 171 173 286
f 231 428 427
f 272 199 137
f 429 192 33
f 280 279 430
f 279 431 430
f 432 433 421
f 8 251 434
f 435 408 135
f 436 437 438
f 439 440 441
f 167 442 30
f 443 444 176
f 445 361 407
f 446 447 448
f 449 450 451
f 258 227 362
f 305 151 271
f 255 452 440
f 453 454 455
f 456 194 457
f 458 459 460
f 370 32 462
f 391 305 304
f 444 465 176
f 466 463 467
f 76 200 75
f 100 469 470
f 248 471 208
f 472 437 473
f 467 459 466
f 474 475 370
f 476 477 98
f 477 420 98
f 259 364 26
f 329 481 482
f 481 483 482
f 35 485 484
f 486 487 488
f 489 62 401
f 453 455 101
f 490 491 492
f 493 202 57
f 19 496 20
f 497 80 79
f 281 280 499
f 68 500 69
f 250 160 159
f 26 365 386
f 347 345 501
f 374 311 52
f 503 5 504
f 5 505 504
f 8 7 251
f 506 507 417
f 107 105 508
f 510 511 512
f 511 513 512
f 153 76 514
f 515 516 517
f 37 518 519
f 520 521 522
f 523 524 525
f 34 198 197
f 47 526 527
f 136 528 529
f 346 409 344
f 114 70 71
f 530 531 532
f 456 192 194
f 533 534 535
f 536 95 537
f 538 214 539
f 540 541 542
f 544 545 546
f 545 547 546
f 280 215 499
f 52 311 53
f 428 549 427
f 550 411 391
f 497 499 215
f 551 552 553
f 554 555 556
f 95 536 97
f 557 558 6
f 561 254 376
f 345 113 501
f 563 284 564
f 46 45 229
f 480 565 566
f 308 567 384
f 429 25 188
f 7 9 24
f 4 232 372
f 439 441 568
f 441 539 568
f 557 569 13
f 569 570 13
f 89 396 571
f 572 573 574
f 391 575 305
f 9 542 541
f 576 207 577
f 578 579 580
f 581 582 583
f 582 584 583
f 388 351 326
f 7 24 23
f 36 38 81
f 585 586 587
f 586 588 587
f 406 589 376
f 368 367 548
f 590 111 567
f 39 140 139
f 86 68 70
f 591 402 592
f 474 593 594
f 595 596 498
f 598 52 53
f 599 601 600
f 461 196 21
f 391 411 501
f 602 603 168
f 347 501 411
f 604 514 88
f 605 351 388
f 312 146 539
f 146 568 539
f 542 607 606
f 54 56 50
f 450 149 451
f 608 473 436
f 473 437 436
f 609 451 127
f 109 567 111
f 610 611 436
f 371 613 31
f 63 614 448
f 131 615 21
f 380 382 616
f 547 617 480
f 479 129 480
f 618 619 620
f 358 395 357
f 495 523 525
f 621 11 622
f 8 607 9
f 581 623 582
f 138 624 1
f 345 344 625
f 142 484 531
f 484 626 531
f 125 380 247
f 627 628 629
f 214 147 146
f 391 630 290
f 456 33 192
f 513 100 470
f 330 465 444
f 162 632 163
f 593 474 370
f 108 384 109
f 384 567 109
f 451 609 449
f 395 633 634
f 635 456 636
f 218 239 197
f 637 638 639
f 638 640 639
f 496 351 20
f 351 350 20
f 641 642 533
f 641 533 535
f 65 193 643
f 543 164 291
f 647 648 173
f 648 286 173
f 649 650 91
f 38 37 651
f 475 371 370
f 476 98 100
f 652 653 654
f 430 508 105
f 233 655 235
f 6 655 233
f 426 425 442
f 425 30 442
f 494 523 495
f 656 657 14
f 658 659 660
f 659 661 660
f 518 37 36
f 662 260 321
f 593 663 664
f 665 285 566
f 666 416 667
f 668 440 452
f 573 669 644
f 312 539 214
f 464 670 398
f 386 365 509
f 671 672 673
f 674 675 676
f 94 677 678
f 360 278 361
f 161 412 257
f 196 195 21
f 396 89 679
f 680 579 578
f 393 156 681
f 156 158 681
f 78 269 682
f 96 97 147
f 422 61 208
f 613 355 31
f 619 618 683
f 618 684 683
f 448 614 685
f 484 686 626
f 450 687 266
f 414 600 601
f 583 584 688
f 584 689 688
f 105 104 48
f 104 49 48
f 204 359 423
f 691 692 178
f 175 693 694
f 357 395 120
f 695 696 672
f 697 698 699
f 480 129 700
f 363 677 701
f 702 221 703
f 221 222 703
f 146 97 568
f 704 705 706
f 61 422 62
f 667 416 414
f 406 102 101
f 445 407 707
f 365 366 509
f 708 106 709
f 106 107 709
f 462 663 370
f 711 712 506
f 713 714 715
f 189 716 128
f 717 718 221
f 719 720 721
f 363 228 722
f 723 724 725
f 279 726 431
f 12 30 425
f 10 12 424
f 12 425 424
f 17 567 308
f 40 363 701
f 598 53 187
f 362 728 189
f 729 653 652
f 569 557 5
f 326 496 19
f 326 351 496
f 484 732 686
f 351 605 317
f 363 654 677
f 654 678 677
f 77 734 733
f 400 399 735
f 668 736 440
f 736 441 440
f 539 441 737
f 736 737 441
f 738 739 740
f 140 742 519
f 743 262 741
f 132 743 744
f 262 743 132
f 37 745 746
f 745 354 746
f 465 747 213
f 748 491 443
f 491 749 443
f 590 567 750
f 567 17 750
f 353 751 354
f 751 752 354
f 9 607 542
f 753 676 754
f 755 756 752
f 172 171 119
f 533 74 287
f 723 1 724
f 336 758 759
f 760 682 761
f 682 762 761
f 306 307 310
f 338 695 672
f 695 338 71
f 695 71 70
f 69 696 70
f 633 395 358
f 763 764 364
f 500 327 765
f 255 256 452
f 256 503 452
f 460 766 517
f 766 515 517
f 225 227 457
f 240 156 238
f 767 768 757
f 680 578 769
f 770 771 772
f 239 596 240
f 773 341 397
f 546 547 283
f 774 216 215
f 775 776 326
f 574 777 572
f 359 778 358
f 778 633 358
f 112 780 779
f 777 247 781
f 247 380 781
f 380 616 781
f 374 782 424
f 375 782 374
f 755 746 756
f 444 469 100
f 783 457 194
f 399 316 784
f 316 315 784
f 169 210 209
f 558 13 785
f 290 786 391
f 163 786 290
f 457 787 456
f 788 789 790
f 791 706 792
f 706 705 792
f 561 166 793
f 610 436 438
f 682 760 794
f 795 645 796
f 87 89 571
f 797 268 266
f 798 799 800
f 86 800 85
f 625 344 801
f 802 803 185
f 750 17 16
f 308 384 309
f 384 383 309
f 774 408 216
f 804 41 805
f 41 43 805
f 806 807 808
f 794 809 78
f 810 272 559
f 811 812 813
f 648 647 814
f 182 815 183
f 721 708 152
f 708 816 152
f 612 378 398
f 817 162 818
f 331 264 333
f 819 583 405
f 821 295 586
f 295 297 586
f 434 251 822
f 513 470 512
f 1 624 3
f 497 215 80
f 92 823 93
f 823 551 93
f 824 825 206
f 825 826 206
f 447 827 448
f 595 498 828
f 564 829 563
f 829 776 563
f 611 830 764
f 831 832 460
f 833 834 157
f 744 835 134
f 796 690 797
f 4 6 233
f 233 232 4
f 589 836 415
f 628 159 161
f 159 627 51
f 521 838 522
f 151 575 721
f 575 719 721
f 839 759 758
f 201 57 202
f 477 143 420
f 530 420 143
f 64 614 63
f 64 840 614
f 390 841 287
f 369 348 367
f 797 690 139
f 337 461 842
f 633 400 735
f 232 154 843
f 843 154 87
f 154 270 87
f 604 87 153
f 87 270 153
f 616 844 781
f 730 210 731
f 845 198 34
f 770 847 771
f 18 847 16
f 315 317 529
f 317 605 529
f 848 389 388
f 259 28 260
f 91 650 90
f 849 850 779
f 850 649 779
f 649 850 650
f 779 649 23
f 23 649 91
f 851 423 461
f 851 204 423
f 449 609 29
f 764 852 611
f 371 853 854
f 853 855 854
f 681 158 821
f 180 524 699
f 32 371 31
f 162 856 632
f 817 857 162
f 857 856 162
f 652 622 729
f 858 280 430
f 431 508 430
f 575 151 305
f 859 386 509
f 286 860 287
f 598 861 52
f 158 157 834
f 298 311 862
f 175 694 153
f 694 200 153
f 865 866 867
f 191 808 807
f 822 269 434
f 762 682 269
f 168 870 169
f 667 442 666
f 436 611 608
f 611 852 608
f 3 624 871
f 872 871 184
f 871 873 184
f 184 873 199
f 624 873 871
f 138 873 624
f 137 873 138
f 199 873 137
f 481 329 874
f 847 18 771
f 444 100 330
f 141 140 518
f 875 303 352
f 464 378 377
f 876 525 524
f 548 537 96
f 877 599 600
f 878 741 262
f 879 167 166
f 880 881 882
f 883 884 825
f 492 885 113
f 857 516 515
f 373 571 396
f 303 875 745
f 40 887 833
f 557 13 558
f 362 227 888
f 889 43 890
f 262 132 131
f 804 805 409
f 190 130 868
f 822 762 269
f 443 891 444
f 345 625 113
f 89 343 612
f 885 892 893
f 130 129 479
f 559 894 810
f 451 149 127
f 895 596 239
f 254 406 376
f 490 113 896
f 318 316 897
f 625 780 112
f 625 801 780
f 851 461 21
f 851 21 204
f 854 684 618
f 190 898 899
f 820 211 900
f 133 615 131
f 615 19 21
f 131 21 195
f 19 615 133
f 602 377 603
f 746 651 37
f 901 571 373
f 901 373 232
f 901 87 571
f 618 613 854
f 613 371 854
f 902 94 93
f 551 823 903
f 421 433 904
f 641 905 642
f 905 73 642
f 201 58 57
f 201 25 58
f 906 898 868
f 654 722 645
f 884 907 825
f 459 908 460
f 219 909 220
f 257 910 911
f 347 411 346
f 382 912 913
f 152 151 721
f 579 914 915
f 461 337 196
f 763 261 916
f 40 301 742
f 256 569 503
f 5 503 569
f 714 713 520
f 521 917 918
f 919 152 816
f 333 920 332
f 921 922 610
f 923 924 324
f 919 431 726
f 919 816 431
f 925 575 391
f 926 149 450
f 336 878 758
f 446 478 447
f 927 228 39
f 426 442 667
f 599 426 667
f 877 181 862
f 2 928 789
f 919 726 394
f 929 840 930
f 840 306 930
f 744 754 835
f 754 676 835
f 356 355 931
f 932 729 375
f 434 269 77
f 438 522 838
f 933 230 45
f 355 613 618
f 354 745 875
f 30 29 793
f 29 609 793
f 322 680 64
f 457 227 258
f 934 881 478
f 294 935 710
f 936 471 248
f 745 519 742
f 339 341 937
f 657 938 14
f 938 939 14
f 203 940 201
f 179 866 524
f 866 876 524
f 708 720 106
f 720 941 106
f 942 943 944
f 272 810 199
f 945 946 947
f 467 908 459
f 510 512 607
f 444 512 469
f 420 530 532
f 860 390 287
f 119 171 253
f 171 286 253
f 869 387 386
f 663 462 820
f 948 949 424
f 550 950 411
f 950 951 411
f 950 550 786
f 950 786 163
f 360 275 952
f 275 953 952
f 112 896 113
f 954 548 96
f 330 99 33
f 415 416 666
f 398 378 464
f 464 377 602
f 603 377 379
f 648 860 286
f 955 860 648
f 955 45 44
f 44 860 955
f 860 44 390
f 380 125 381
f 125 149 381
f 417 507 289
f 901 232 87
f 232 843 87
f 956 957 881
f 2 788 724
f 1 2 724
f 549 958 427
f 323 325 242
f 382 381 912
f 959 951 950
f 18 960 771
f 960 961 771
f 93 962 296
f 875 352 354
f 963 829 564
f 203 964 940
f 432 421 532
f 421 420 532
f 883 334 884
f 89 612 679
f 472 965 445
f 939 938 610
f 966 917 967
f 206 738 740
f 692 770 772
f 590 750 673
f 366 764 830
f 271 151 150
f 298 727 186
f 220 968 751
f 968 752 751
f 555 969 732
f 865 342 340
f 970 516 874
f 888 728 362
f 653 678 654
f 920 972 337
f 925 893 575
f 973 757 864
f 974 499 497
f 230 975 229
f 976 977 978
f 324 924 325
f 979 140 39
f 166 561 879
f 397 342 980
f 342 865 980
f 895 239 218
f 484 485 732
f 174 981 647
f 981 982 647
f 933 45 955
f 983 524 523
f 877 600 181
f 883 825 824
f 984 881 934
f 272 137 559
f 136 985 137
f 137 985 559
f 985 986 560
f 559 985 560
f 892 941 720
f 852 764 763
f 719 893 720
f 893 892 720
f 987 988 543
f 989 820 900
f 890 662 889
f 662 850 889
f 548 954 368
f 309 960 18
f 990 991 660
f 991 992 660
f 465 213 122
f 213 124 122
f 469 512 470
f 402 994 592
f 501 885 893
f 113 490 492
f 995 209 730
f 961 996 771
f 309 383 960
f 164 818 162
f 672 177 338
f 997 304 271
f 936 644 837
f 902 93 295
f 93 296 295
f 998 295 821
f 999 1000 277
f 1000 953 277
f 886 1002 1001
f 35 732 485
f 383 108 1003
f 278 1004 407
f 560 986 389
f 1005 1006 659
f 983 494 699
f 603 292 870
f 641 535 418
f 535 1007 418
f 1008 1009 912
f 556 35 1010
f 334 336 759
f 588 586 297
f 1011 453 669
f 453 1012 669
f 219 221 718
f 318 897 1013
f 895 498 596
f 1014 160 249
f 177 672 671
f 1015 1016 525
f 562 908 467
f 126 125 248
f 415 666 376
f 376 589 415
f 1009 267 977
f 267 268 977
f 1017 181 600
f 828 1018 595
f 1019 767 623
f 767 1020 623
f 573 644 574
f 833 301 40
f 576 582 623
f 536 1021 97
f 22 779 23
f 540 22 24
f 471 837 401
f 1022 242 1023
f 1001 1018 231
f 356 931 120
f 1025 1026 1027
f 1026 1028 1027
f 421 904 1029
f 421 1029 98
f 1029 99 98
f 33 1030 429
f 99 1029 1030
f 904 429 1029
f 429 1030 1029
f 701 677 887
f 677 1031 887
f 247 777 248
f 777 1032 248
f 179 524 180
f 555 732 556
f 686 969 626
f 556 732 35
f 1033 959 950
f 578 580 1034
f 47 1035 48
f 1036 1035 1037
f 1036 105 1035
f 105 48 1035
f 858 215 280
f 215 858 774
f 858 1038 774
f 858 430 1036
f 430 105 1036
f 1037 1038 1036
f 1036 1038 858
f 815 182 990
f 287 841 534
f 1039 1040 1041
f 692 772 417
f 673 1042 671
f 671 178 177
f 830 610 509
f 264 920 333
f 970 328 459
f 36 141 518
f 1043 1044 1045
f 665 1046 285
f 846 943 937
f 581 583 1019
f 583 1047 1019
f 670 1048 1049
f 759 972 1050
f 972 920 1050
f 1024 543 1051
f 729 622 375
f 375 622 782
f 10 424 782
f 10 782 11
f 782 622 11
f 1052 892 885
f 814 712 933
f 798 1053 799
f 728 716 189
f 128 716 1054
f 1054 716 728
f 362 189 191
f 820 462 32
f 224 433 432
f 433 224 58
f 25 433 58
f 904 433 429
f 433 1055 429
f 429 1055 25
f 25 1055 433
f 1056 220 751
f 781 844 1057
f 588 684 1058
f 684 855 1058
f 520 713 562
f 1059 1023 1060
f 478 446 934
f 478 387 447
f 385 387 26
f 387 27 26
f 602 670 464
f 840 64 306
f 477 511 143
f 511 1061 143
f 142 531 143
f 143 1061 145
f 144 145 733
f 1018 1001 1062
f 1063 1064 1065
f 888 227 1066
f 982 814 647
f 341 502 846
f 585 681 821
f 267 926 266
f 402 591 1067
f 231 1018 828
f 359 392 778
f 392 1013 778
f 507 1068 289
f 671 691 178
f 1069 243 367
f 857 515 856
f 515 1004 856
f 766 1004 515
f 856 1004 632
f 632 1004 278
f 1070 34 197
f 248 208 126
f 693 175 314
f 175 155 314
f 495 1071 710
f 633 735 634
f 735 900 634
f 831 460 908
f 976 1009 977
f 919 394 152
f 394 1072 150
f 1042 16 691
f 16 692 691
f 859 914 579
f 895 218 498
f 477 476 511
f 403 1073 369
f 592 1074 591
f 251 252 822
f 641 1075 905
f 936 837 471
f 273 274 1076
f 1077 1078 1079
f 931 619 1080
f 841 1081 689
f 282 563 674
f 563 1082 674
f 393 1083 238
f 853 371 475
f 911 81 257
f 651 746 1084
f 161 1085 629
f 489 669 1012
f 968 755 752
f 108 110 1086
f 110 1079 1086
f 375 1087 932
f 708 709 816
f 709 431 816
f 1088 911 1089
f 1090 116 568
f 116 1091 568
f 440 439 115
f 255 440 117
f 440 115 117
f 235 1092 313
f 525 1016 1071
f 1093 344 409
f 605 986 529
f 1094 1095 479
f 1096 1046 665
f 281 1072 394
f 394 726 279
f 885 501 113
f 1034 769 578
f 926 450 266
f 666 879 376
f 169 870 731
f 1097 527 1098
f 504 1099 1049
f 520 917 521
f 562 917 520
f 522 438 714
f 220 1056 222
f 668 1048 736
f 664 493 57
f 1100 194 65
f 1101 1102 1103
f 542 891 1104
f 1104 1105 540
f 1079 110 111
f 568 1091 439
f 1091 115 439
f 1091 116 115
f 240 157 156
f 675 1082 835
f 322 63 869
f 995 214 209
f 543 988 1079
f 1106 274 50
f 385 26 386
f 447 387 869
f 102 61 62
f 1107 687 1108
f 883 824 334
f 915 83 82
f 300 299 1109
f 573 591 1011
f 591 1074 1011
f 973 544 1110
f 141 978 977
f 223 57 58
f 961 230 996
f 975 1111 497
f 1111 974 497
f 1111 961 960
f 960 974 1111
f 172 119 1112
f 1034 1113 769
f 489 644 669
f 495 525 1071
f 878 335 741
f 336 335 878
f 598 187 331
f 723 138 1
f 1114 900 735
f 50 273 1115
f 959 952 1116
f 973 1095 1094
f 818 164 543
f 76 1117 514
f 106 49 104
f 1118 798 71
f 1118 71 338
f 538 209 214
f 30 793 165
f 167 30 165
f 864 768 906
f 731 210 169
f 957 90 881
f 861 375 52
f 92 932 823
f 1087 903 932
f 903 823 932
f 47 806 1035
f 1119 126 208
f 1120 127 126
f 127 1120 609
f 793 609 1120
f 1119 208 61
f 1119 61 254
f 254 561 1119
f 561 793 1119
f 793 1120 1119
f 1119 1120 126
f 632 1033 163
f 163 1033 950
f 744 134 132
f 449 687 450
f 1069 1121 1115
f 44 1122 1081
f 367 1121 1069
f 127 149 148
f 723 528 138
f 1086 1079 1078
f 101 1012 453
f 646 1123 1096
f 271 1078 997
f 366 364 764
f 244 1069 1076
f 1069 273 1076
f 458 460 516
f 460 517 516
f 1124 870 168
f 603 870 1124
f 1093 409 805
f 1058 1125 556
f 1126 787 457
f 66 1022 65
f 36 978 141
f 1088 978 36
f 1007 740 1127
f 740 739 1127
f 1128 1127 739
f 6 5 557
f 634 900 211
f 1129 653 729
f 1032 574 644
f 49 106 526
f 106 1130 526
f 306 310 1131
f 930 306 718
f 306 1131 718
f 1132 633 778
f 332 920 337
f 1133 219 718
f 709 107 508
f 789 928 1134
f 928 923 1134
f 414 601 667
f 667 601 599
f 1135 800 799
f 133 775 19
f 59 90 957
f 144 734 1136
f 1137 825 907
f 595 1018 1062
f 72 533 73
f 533 642 73
f 453 1074 1138
f 353 1056 751
f 411 951 410
f 951 1116 410
f 710 870 1139
f 731 870 710
f 845 1136 1140
f 168 603 1124
f 509 1141 914
f 914 1141 915
f 610 1141 509
f 354 752 756
f 32 211 820
f 1088 36 81
f 911 1088 81
f 673 750 1042
f 750 16 1042
f 930 718 717
f 741 335 1142
f 349 250 159
f 64 680 769
f 47 527 806
f 689 1081 688
f 546 674 753
f 674 676 753
f 849 889 850
f 576 623 207
f 623 1143 207
f 1094 617 545
f 617 547 545
f 580 579 82
f 579 915 82
f 1011 1074 453
f 573 1144 591
f 1144 1067 591
f 817 1145 857
f 1008 267 1009
f 438 921 610
f 1032 777 574
f 1032 936 248
f 922 939 610
f 939 922 15
f 135 1146 906
f 1100 783 194
f 73 378 612
f 7 23 60
f 265 1147 1148
f 905 379 73
f 379 378 73
f 476 100 511
f 100 513 511
f 287 534 533
f 1149 1098 526
f 1098 527 526
f 465 122 176
f 699 1150 639
f 256 1151 569
f 1151 1152 569
f 821 586 585
f 645 927 796
f 1039 1153 1040
f 493 1154 1155
f 1155 202 493
f 811 333 332
f 817 818 1156
f 818 1157 1156
f 1142 185 741
f 240 1158 833
f 984 956 881
f 363 722 654
f 3 928 2
f 92 94 1129
f 94 678 1129
f 343 1159 118
f 951 959 1116
f 918 917 1160
f 1160 655 6
f 208 401 422
f 1161 332 337
f 912 381 267
f 381 926 267
f 106 300 1130
f 644 936 1032
f 88 1159 343
f 893 719 575
f 401 208 471
f 1040 1162 1041
f 85 1163 103
f 85 800 1163
f 683 297 962
f 297 296 962
f 725 315 528
f 315 529 528
f 328 327 103
f 246 1164 245
f 299 106 941
f 708 721 720
f 1129 678 653
f 968 1064 1165
f 629 1085 1166
f 562 713 832
f 685 614 1167
f 1020 1168 1143
f 680 1169 579
f 1169 859 579
f 37 519 745
f 1080 619 1170
f 619 1171 1170
f 1172 1173 911
f 1173 1089 911
f 1174 487 790
f 850 320 650
f 320 882 650
f 367 537 548
f 293 1075 418
f 887 1031 1175
f 887 834 833
f 540 1105 112
f 939 15 14
f 392 359 204
f 763 364 261
f 364 259 261
f 376 879 561
f 938 1141 610
f 459 328 466
f 467 1177 1026
f 1066 661 659
f 659 1054 1066
f 1054 728 1066
f 1133 718 310
f 718 1131 310
f 299 941 1109
f 925 391 501
f 494 1150 699
f 597 1178 483
f 1106 946 1076
f 190 808 191
f 190 1179 808
f 1179 1037 808
f 808 1037 806
f 1037 1035 806
f 1180 783 1100
f 319 880 320
f 797 1181 268
f 1133 1065 219
f 1065 909 219
f 294 1139 292
f 1139 870 292
f 1182 947 1183
f 394 279 281
f 845 34 35
f 1184 360 952
f 1185 1180 1059
f 78 734 77
f 1088 976 978
f 300 1109 1186
f 1109 1187 1186
f 855 684 854
f 1079 111 1051
f 1188 846 502
f 108 1086 1189
f 1086 1078 1189
f 1189 1078 150
f 1072 1189 150
f 1072 1190 1189
f 150 1078 271
f 472 714 438
f 671 1042 691
f 692 417 178
f 981 1045 1068
f 641 418 1075
f 934 446 1191
f 710 935 495
f 903 861 812
f 861 813 812
f 74 253 286
f 958 1192 427
f 326 19 775
f 1193 1107 621
f 1058 1194 1125
f 552 551 812
f 903 812 551
f 1195 213 33
f 1185 226 783
f 226 225 783
f 332 1161 811
f 1059 1060 1185
f 1060 1196 1185
f 226 1185 1196
f 457 783 225
f 783 1180 1185
f 1015 525 866
f 525 876 866
f 956 1197 1176
f 1197 762 1176
f 800 1198 1163
f 96 537 95
f 360 1184 278
f 619 683 1171
f 839 972 759
f 1142 1168 217
f 940 1199 25
f 29 12 687
f 12 1108 687
f 327 500 85
f 458 516 459
f 516 970 459
f 466 328 463
f 864 1095 973
f 1200 1201 597
f 839 758 195
f 1202 1203 1204
f 404 1205 994
f 1205 1206 994
f 1134 964 1207
f 964 203 1207
f 800 694 1198
f 694 693 1198
f 1108 12 11
f 1093 805 344
f 918 1160 6
f 933 955 814
f 955 648 814
f 627 629 1208
f 629 1102 1208
f 50 1101 54
f 1085 161 257
f 1084 38 651
f 1084 746 1209
f 746 755 1209
f 1209 1085 1084
f 1084 1085 257
f 1084 257 81
f 1084 81 38
f 1210 1211 214
f 1172 1057 844
f 811 331 333
f 262 758 878
f 1003 1190 1072
f 560 894 559
f 834 1175 158
f 1175 821 158
f 963 1123 894
f 159 51 349
f 228 927 722
f 645 722 927
f 1174 1207 203
f 257 412 910
f 929 717 1212
f 1213 840 1212
f 840 929 1212
f 1167 614 1213
f 614 840 1213
f 1175 834 887
f 174 647 173
f 1074 592 994
f 794 1214 809
f 588 1058 587
f 552 812 1215
f 1122 44 46
f 1216 566 565
f 127 148 125
f 1140 1136 809
f 484 1217 35
f 179 181 866
f 181 1017 866
f 1218 1219 123
f 886 1192 1191
f 1079 1051 543
f 1204 1200 1024
f 1136 734 78
f 809 1136 78
f 701 887 40
f 1220 1175 1221
f 1221 1175 677
f 1175 1031 677
f 821 1175 998
f 383 1003 960
f 1003 1222 960
f 958 549 761
f 427 886 231
f 483 481 1157
f 325 924 242
f 142 144 1223
f 114 71 798
f 1123 1046 1096
f 549 760 761
f 386 859 1169
f 925 501 893
f 1205 954 147
f 169 538 737
f 538 169 209
f 41 261 42
f 1224 432 532
f 536 537 243
f 449 29 687
f 1225 1201 1226
f 1143 623 1020
f 1227 1126 258
f 1058 1228 587
f 1159 119 118
f 963 894 829
f 66 940 242
f 940 964 242
f 1229 302 1158
f 593 664 594
f 1107 266 687
f 1107 795 797
f 195 758 262
f 1230 409 410
f 730 943 846
f 869 63 827
f 735 399 1114
f 399 784 1114
f 408 1231 216
f 705 1232 1164
f 1233 205 207
f 833 157 240
f 666 442 879
f 997 1079 988
f 1167 1213 1212
f 144 733 734
f 489 401 837
f 489 837 644
f 738 206 826
f 1215 553 552
f 1215 812 1161
f 812 811 1161
f 47 49 526
f 1234 733 1061
f 733 145 1061
f 881 880 478
f 770 692 16
f 139 690 39
f 249 1235 572
f 239 238 1083
f 1015 866 340
f 866 865 340
f 727 181 698
f 698 181 180
f 1043 1045 1236
f 800 1135 694
f 1135 1237 694
f 1143 1168 1233
f 1168 1142 1233
f 1058 855 1194
f 855 1238 1194
f 853 1238 855
f 475 1238 853
f 730 209 210
f 1239 1015 340
f 745 742 303
f 742 301 303
f 243 245 536
f 789 788 2
f 923 324 1134
f 746 354 756
f 935 294 1240
f 634 356 395
f 634 211 31
f 119 1159 1112
f 216 1231 80
f 1194 1238 1125
f 845 1140 809
f 845 809 198
f 26 28 259
f 755 968 1165
f 593 370 663
f 427 1192 886
f 1192 958 1241
f 1241 958 761
f 761 762 1241
f 762 1197 1241
f 984 1241 1197
f 140 519 518
f 1242 1243 1002
f 884 334 1050
f 334 759 1050
f 472 445 714
f 25 201 940
f 564 284 1123
f 284 1046 1123
f 677 94 1244
f 1186 1187 748
f 90 650 882
f 1085 1209 1166
f 755 1165 1209
f 1165 1166 1209
f 429 1245 192
f 1246 1247 1170
f 1080 1247 357
f 1077 997 1078
f 577 740 1248
f 972 839 337
f 195 337 839
f 989 971 820
f 889 801 805
f 801 344 805
f 639 1150 637
f 352 303 1229
f 303 302 1229
f 564 1123 963
f 1128 638 637
f 140 979 742
f 713 715 832
f 224 432 1249
f 432 1224 1249
f 1250 885 491
f 885 492 491
f 1069 244 243
f 226 1066 227
f 226 1196 1066
f 1196 661 1066
f 1137 739 825
f 739 826 825
f 826 739 738
f 1142 217 185
f 1115 51 50
f 1121 367 348
f 134 775 133
f 976 1088 1089
f 916 999 277
f 1251 993 724
f 397 980 1252
f 117 1232 1151
f 184 183 872
f 923 872 183
f 928 872 923
f 928 3 872
f 3 871 872
f 643 193 192
f 1024 1157 543
f 1200 1204 1201
f 33 456 1195
f 472 438 437
f 1115 273 1069
f 368 954 404
f 954 96 147
f 1168 1020 757
f 1168 757 217
f 1068 982 981
f 679 398 396
f 612 398 679
f 172 1253 174
f 819 80 1231
f 789 1134 1207
f 965 361 445
f 473 275 472
f 275 965 472
f 965 275 361
f 543 1157 818
f 888 1066 728
f 625 112 113
f 15 922 921
f 828 428 231
f 1218 123 236
f 123 124 236
f 772 771 996
f 799 1044 631
f 598 331 861
f 331 813 861
f 235 313 234
f 389 829 894
f 323 242 964
f 480 283 547
f 1080 1170 1247
f 1216 665 566
f 1254 41 409
f 41 804 409
f 748 1187 491
f 704 84 1151
f 1237 631 75
f 520 522 714
f 831 908 832
f 573 1011 669
f 191 807 1255
f 389 986 605
f 1236 1045 1253
f 1045 981 1253
f 717 702 1212
f 463 1177 467
f 1023 924 815
f 1023 242 924
f 723 725 528
f 1256 1151 256
f 59 91 90
f 252 60 822
f 1176 762 60
f 762 822 60
f 1191 685 886
f 1005 659 658
f 92 1129 932
f 932 1129 729
f 889 805 43
f 973 1094 545
f 952 1033 1184
f 1184 1033 632
f 278 1184 632
f 706 580 82
f 740 1007 1248
f 859 509 914
f 82 84 706
f 84 704 706
f 149 926 381
f 1106 1076 274
f 1257 182 184
f 984 934 1241
f 937 341 846
f 612 343 118
f 1081 390 44
f 1045 288 1068
f 704 1151 705
f 1151 1232 705
f 1236 76 75
f 631 1044 1236
f 981 174 1253
f 1043 1236 1044
f 1236 75 631
f 933 712 230
f 712 996 230
f 971 488 1154
f 1258 894 1123
f 583 688 405
f 688 1081 405
f 633 1132 400
f 316 400 1132
f 316 1132 897
f 838 921 438
f 134 835 775
f 835 1082 775
f 1259 664 57
f 824 206 205
f 1208 1102 1101
f 51 627 1208
f 949 311 424
f 311 374 424
f 315 725 784
f 1026 562 467
f 668 452 1049
f 452 504 1049
f 862 181 298
f 298 181 727
f 970 874 328
f 874 329 328
f 683 962 1171
f 684 297 683
f 553 1171 551
f 1171 962 551
f 505 1099 504
f 372 1099 505
f 1212 1243 1167
f 1212 1002 1243
f 696 695 70
f 419 1240 294
f 261 41 916
f 742 979 39
f 74 73 118
f 182 991 990
f 992 658 660
f 1258 1123 646
f 796 927 39
f 39 690 796
f 774 1038 1146
f 339 937 942
f 937 943 942
f 1253 1260 1236
f 1236 1260 76
f 983 523 494
f 861 1087 375
f 1174 790 1207
f 790 789 1207
f 542 606 444
f 265 727 698
f 389 605 388
f 443 749 891
f 331 811 813
f 1261 1014 249
f 1057 1262 1261
f 1261 777 1057
f 777 781 1057
f 1261 1262 1014
f 1014 1262 1263
f 1263 1262 1057
f 1172 844 1173
f 910 1014 911
f 1014 1263 911
f 1172 911 1057
f 911 1263 1057
f 572 777 1261
f 1261 249 572
f 160 1014 412
f 910 412 1014
f 90 882 881
f 835 676 675
f 373 1099 372
f 84 1152 1151
f 489 1012 101
f 489 101 62
f 643 67 65
f 733 1234 1264
f 1234 1265 1264
f 69 1178 468
f 1028 1177 463
f 929 930 717
f 630 391 304
f 994 1206 1266
f 680 322 1169
f 1077 1079 997
f 836 1267 1268
f 675 674 1082
f 862 948 599
f 857 1145 516
f 475 1125 1238
f 112 1105 896
f 59 23 91
f 1023 1059 1022
f 498 1269 828
f 1214 198 809
f 984 1197 956
f 1218 1149 1219
f 1149 1270 1219
f 849 801 889
f 776 829 848
f 841 689 1271
f 707 407 1004
f 505 5 372
f 668 1049 1048
f 167 879 442
f 563 776 775
f 1272 1161 337
f 1137 907 638
f 907 640 638
f 252 7 60
f 194 193 65
f 1180 1100 1022
f 1022 1100 65
f 506 712 814
f 214 1211 147
f 539 737 538
f 1220 998 1175
f 1022 1059 1180
f 556 1125 475
f 815 1060 1023
f 990 1060 815
f 403 369 368
f 491 1273 749
f 291 630 304
f 997 987 304
f 304 987 291
f 543 291 987
f 997 988 987
f 506 417 996
f 711 506 996
f 1255 362 191
f 1122 46 405
f 709 508 431
f 367 243 537
f 293 379 1075
f 907 697 640
f 1076 946 246
f 946 792 246
f 541 540 24
f 249 1073 1235
f 83 915 657
f 915 1141 657
f 656 83 657
f 14 13 656
f 13 570 656
f 938 657 1141
f 798 1118 1053
f 1257 991 182
f 1095 864 479
f 849 779 801
f 779 780 801
f 136 529 986
f 1254 1230 41
f 1230 1274 41
f 1191 1192 934
f 1192 1241 934
f 1275 1127 419
f 1275 419 418
f 1275 1007 1127
f 1275 418 1007
f 536 245 1021
f 244 1076 246
f 903 1087 861
f 230 961 975
f 565 658 1216
f 658 992 1216
f 282 284 563
f 570 1152 656
f 1273 491 490
f 352 1039 353
f 1257 646 991
f 199 1257 184
f 335 1233 1142
f 1015 1239 1016
f 868 130 479
f 868 479 863
f 775 1082 563
f 753 1276 544
f 1276 1110 544
f 753 754 1276
f 188 67 643
f 57 223 1259
f 379 905 1075
f 1277 660 661
f 1199 67 188
f 403 402 1073
f 402 1067 1073
f 1204 1203 1201
f 546 753 544
f 1252 1278 397
f 1278 773 397
f 670 1279 1048
f 1028 1280 1027
f 78 682 794
f 9 541 24
f 1132 778 1013
f 389 894 560
f 423 1246 842
f 877 862 599
f 1106 1183 946
f 1183 947 946
f 392 20 350
f 396 1099 373
f 526 1130 1281
f 526 1270 1149
f 154 232 1282
f 1282 232 313
f 232 234 313
f 313 155 1282
f 155 154 1282
f 629 1166 1102
f 899 1179 190
f 607 512 606
f 606 512 444
f 1051 1204 1024
f 985 136 986
f 554 556 475
f 1242 1167 1243
f 1252 836 1283
f 631 1237 1135
f 1237 75 200
f 1135 799 631
f 1237 200 694
f 428 760 549
f 1191 448 685
f 481 874 1157
f 874 1156 1157
f 120 931 1080
f 553 1170 1171
f 120 1080 357
f 1210 1206 1211
f 710 1139 294
f 747 465 330
f 765 69 500
f 1026 1177 1284
f 1285 1246 1161
f 1246 1286 1161
f 1215 1161 1286
f 553 1215 1170
f 1215 1286 1170
f 1153 1229 1287
f 749 896 891
f 896 1105 891
f 962 93 551
f 832 908 562
f 946 945 792
f 246 792 1164
f 1232 117 1164
f 117 116 1164
f 1164 116 245
f 116 1021 245
f 945 791 792
f 445 715 714
f 542 1104 540
f 635 1098 237
f 491 1187 1250
f 576 1288 582
f 199 810 646
f 69 468 1225
f 866 1017 867
f 414 1289 1290
f 1289 867 1290
f 414 1290 600
f 600 1290 1017
f 1290 867 1017
f 819 1231 583
f 737 170 169
f 1187 1052 1250
f 1052 885 1250
f 707 1004 766
f 142 1223 484
f 1254 409 1230
f 1090 568 97
f 971 1154 820
f 1257 199 646
f 983 699 524
f 1227 1097 1126
f 1255 807 806
f 576 577 1288
f 577 1248 1288
f 891 1105 1104
f 444 891 542
f 190 128 130
f 1001 1002 702
f 1002 1212 702
f 953 275 277
f 916 41 999
f 41 1274 999
f 413 415 836
f 413 836 414
f 836 1268 414
f 836 1252 1267
f 1252 980 1267
f 414 1268 1289
f 1268 1267 1289
f 980 865 1267
f 865 867 1267
f 1289 1267 867
f 192 1245 643
f 292 603 293
f 603 379 293
f 1162 1062 1291
f 1062 1001 1291
f 918 921 521
f 705 1164 792
f 1199 1292 67
f 435 1231 408
f 1115 1293 51
f 320 850 321
f 850 662 321
f 188 1245 429
f 643 1245 188
f 212 213 1195
f 824 205 1233
f 989 993 971
f 920 263 1050
f 390 1081 841
f 689 584 582
f 790 487 788
f 487 1251 788
f 949 862 311
f 1026 1025 967
f 562 967 917
f 798 800 86
f 1083 1070 239
f 1294 1210 1295
f 350 317 318
f 912 1009 1173
f 1009 1089 1173
f 128 1296 129
f 1169 869 386
f 869 1169 322
f 940 66 1292
f 1219 300 1186
f 121 1219 1186
f 121 1186 176
f 1186 748 176
f 1109 941 1187
f 941 1297 1187
f 1297 892 1187
f 892 1052 1187
f 941 892 1297
f 1246 423 357
f 1182 56 64
f 989 900 1114
f 1133 310 1065
f 362 1255 1227
f 635 636 1098
f 636 1097 1098
f 527 1097 806
f 1097 1255 806
f 1227 1255 1097
f 1227 258 362
f 352 1229 1039
f 1229 1153 1039
f 628 627 159
f 912 1173 913
f 569 1152 570
f 852 276 608
f 473 608 276
f 473 276 275
f 852 763 277
f 763 916 277
f 1204 1051 111
f 1199 188 25
f 250 1073 249
f 635 1195 456
f 944 710 942
f 237 1098 1149
f 392 350 1013
f 350 318 1013
f 645 652 654
f 1128 637 1127
f 697 639 640
f 699 639 697
f 1240 419 637
f 419 1127 637
f 697 1147 698
f 263 920 264
f 565 700 1006
f 1258 646 894
f 565 1006 658
f 1005 658 1006
f 1054 659 1006
f 1296 128 1006
f 128 1054 1006
f 1006 700 1296
f 700 129 1296
f 1009 976 1089
f 284 285 1046
f 328 103 463
f 590 1202 111
f 1202 1204 111
f 1200 597 1024
f 1269 794 428
f 794 760 428
f 830 611 610
f 1233 335 824
f 335 334 824
f 703 1291 702
f 172 1112 1253
f 1112 1117 1253
f 1285 1161 842
f 1161 1272 842
f 717 221 702
f 819 405 80
f 1230 410 1116
f 953 1000 952
f 1230 1116 1000
f 1116 952 1000
f 999 1230 1000
f 852 277 276
f 1274 1230 999
f 686 732 969
f 1218 236 1149
f 990 660 1277
f 1196 1060 1277
f 990 1277 1060
f 1277 661 1196
f 1158 302 833
f 1146 1038 899
f 1038 1037 899
f 13 15 785
f 1191 446 448
f 297 684 588
f 848 829 389
f 589 406 1283
f 944 943 730
f 11 621 1108
f 621 1107 1108
f 1137 638 739
f 820 1154 663
f 1090 97 116
f 97 1021 116
f 724 784 725
f 138 528 136
f 1040 1153 1298
f 281 1003 1072
f 974 960 1222
f 646 810 894
f 103 1028 463
f 1210 1294 1206
f 404 954 1205
f 486 971 993
f 1155 1154 487
f 1154 488 487
f 314 1027 693
f 1027 1280 693
f 1251 724 788
f 443 176 748
f 949 948 862
f 830 509 366
f 836 589 1283
f 42 260 43
f 260 890 43
f 28 321 260
f 1214 1299 218
f 118 73 612
f 1292 1199 940
f 15 921 785
f 785 921 918
f 918 6 558
f 1179 899 1037
f 1063 54 1103
f 54 1101 1103
f 966 967 1092
f 967 1025 1092
f 314 313 1092
f 483 1178 482
f 621 795 1193
f 1041 1056 1039
f 1056 353 1039
f 1148 1147 263
f 744 802 754
f 741 185 803
f 715 707 832
f 707 766 832
f 241 242 1022
f 1205 147 1211
f 1206 1205 1211
f 1063 1065 54
f 1246 357 1247
f 475 474 554
f 554 1249 1300
f 1300 969 554
f 969 555 554
f 594 223 1249
f 224 1249 223
f 681 1301 1302
f 1301 1010 1302
f 1228 1010 1301
f 1301 585 1228
f 585 587 1228
f 681 585 1301
f 1010 1228 556
f 556 1228 1058
f 1126 457 258
f 39 40 742
f 1242 1002 886
f 730 1295 995
f 558 785 918
f 434 1264 1303
f 77 1264 434
f 77 733 1264
f 1265 1234 511
f 1264 1265 1303
f 510 607 1304
f 1304 607 8
f 434 1303 8
f 1303 1304 8
f 1303 1265 1304
f 510 1304 511
f 1304 1265 511
f 1256 117 1151
f 281 1222 1003
f 770 16 847
f 931 620 619
f 355 620 931
f 355 618 620
f 1096 1305 646
f 992 991 1305
f 544 973 545
f 776 848 388
f 776 388 326
f 784 1306 1114
f 1306 989 1114
f 993 989 1306
f 1306 784 724
f 1306 724 993
f 87 604 88
f 72 74 533
f 1028 1284 1177
f 1026 1284 1028
f 417 772 996
f 898 1146 899
f 121 123 1219
f 497 229 975
f 79 229 497
f 114 798 86
f 715 445 707
f 766 460 832
f 597 1201 468
f 566 283 480
f 566 285 283
f 289 1068 288
f 1044 1118 1307
f 1045 1044 288
f 1044 1307 288
f 982 507 814
f 507 506 814
f 982 1068 507
f 1115 1121 1293
f 1251 486 993
f 487 486 1251
f 487 1174 1155
f 202 1155 203
f 1155 1174 203
f 1074 994 1138
f 994 1266 1138
f 454 453 1138
f 540 112 22
f 319 321 880
f 51 1101 50
f 1208 1101 51
f 1308 1305 991
f 516 1145 874
f 1145 1156 874
f 240 596 1287
f 1287 1158 240
f 1287 1229 1158
f 833 302 301
f 382 913 616
f 616 913 844
f 844 913 1173
f 1248 1271 1288
f 535 534 1248
f 534 1271 1248
f 1070 197 239
f 1070 1309 34
f 1083 1309 1070
f 1302 1010 1309
f 1309 35 34
f 35 1309 1010
f 393 681 1083
f 681 1310 1083
f 1310 1309 1083
f 681 1302 1310
f 1302 1309 1310
f 84 83 1152
f 83 656 1152
f 207 1143 1233
f 577 207 740
f 207 206 740
f 565 480 700
f 288 1307 177
f 177 1307 338
f 338 1307 1118
f 842 461 423
f 1311 35 1217
f 35 1311 845
f 484 1223 1217
f 1223 1311 1217
f 144 1136 1223
f 1136 1311 1223
f 1136 845 1311
f 530 143 531
f 1292 66 67
f 897 1132 1013
f 731 944 730
f 944 731 710
f 710 1071 942
f 103 327 85
f 582 1288 689
f 1288 1271 689
f 711 996 712
f 327 482 765
f 482 1178 765
f 327 329 482
f 483 1157 1024
f 468 1178 597
f 323 1134 324
f 323 964 1134
f 1234 1061 511
f 161 629 628
f 674 546 283
f 880 387 478
f 27 321 28
f 27 387 321
f 387 880 321
f 1226 696 69
f 1225 1226 69
f 590 673 1202
f 696 1226 672
f 1202 673 1226
f 673 672 1226
f 815 924 923
f 815 923 183
f 1128 739 638
f 337 842 1272
f 1246 1170 1286
f 1308 646 1305
f 486 488 971
f 663 1154 664
f 178 288 177
f 1308 991 646
f 214 995 1210
f 64 56 306
f 1210 995 1295
f 402 404 994
f 1281 1130 1270
f 237 1149 236
f 1281 1270 526
f 846 1295 730
f 1294 1295 846
f 1269 498 1299
f 580 706 791
f 1163 1198 1280
f 693 1280 1198
f 1280 1028 103
f 103 1163 1280
f 348 1293 1121
f 51 1293 348
f 348 349 51
f 452 503 504
f 1219 1270 300
f 1270 1130 300
f 662 890 260
f 697 907 1312
f 797 266 1107
f 697 1312 1147
f 907 1147 1312
f 884 1050 263
f 884 263 907
f 263 1147 907
f 31 356 634
f 1001 702 1291
f 596 1298 1287
f 1298 1153 1287
f 596 595 1298
f 1298 1162 1040
f 595 1062 1298
f 1062 1162 1298
f 398 670 1049
f 1099 398 1049
f 534 841 1271
f 535 1248 1007
f 456 787 636
f 787 1126 636
f 1126 1097 636
f 1056 703 222
f 265 264 187
f 474 594 554
f 594 1249 554
f 1313 531 626
f 969 1300 626
f 1300 1313 626
f 1249 1224 1300
f 1224 1313 1300
f 532 531 1224
f 531 1313 1224
f 424 426 948
f 948 426 599
f 580 791 1113
f 791 947 1113
f 1034 580 1113
f 635 237 1195
f 237 212 1195
f 747 330 33
f 747 33 213
f 55 54 1065
f 55 1065 310
f 757 768 864
f 1019 1047 767
f 757 1020 767
f 791 945 947
f 64 769 1113
f 1314 406 101
f 406 1314 1283
f 455 1314 101
f 637 1150 1240
f 495 1150 494
f 1240 1150 495
f 495 935 1240
f 1214 794 1299
f 757 1276 217
f 1203 1202 1201
f 1256 256 117
f 581 1019 623
f 864 863 479
f 868 898 190
f 774 1146 408
f 408 1146 135
f 166 165 793
f 1148 263 265
f 1216 992 1305
f 1216 1305 665
f 665 1305 1096
f 220 909 968
f 1065 1064 909
f 1064 968 909
f 1154 493 664
f 604 153 514
f 827 63 448
f 827 447 869
f 1273 490 896
f 1273 896 749
f 1182 1183 56
f 1182 1113 947
f 1113 1315 64
f 1182 64 1315
f 50 1183 1106
f 56 1183 50
f 1182 1315 1113
f 455 773 1278
f 454 773 455
f 502 773 454
f 1138 502 454
f 846 1188 1294
f 1266 1206 1188
f 1206 1294 1188
f 502 1316 1188
f 1138 1266 1316
f 1266 1188 1316
f 699 698 180
f 265 187 727
f 265 698 1147
f 186 727 187
f 736 1048 1279
f 880 882 320
f 817 1156 1145
f 339 1239 340
f 1071 1016 1239
f 339 942 1239
f 1071 1239 942
f 46 229 79
f 961 1111 975
f 1181 977 268
f 1181 141 977
f 797 139 1181
f 1181 139 141
f 405 1081 1122
f 108 1189 1003
f 1190 1003 1189
f 974 1222 499
f 499 1222 281
f 795 1107 1193
f 795 796 797
f 621 622 652
f 652 795 621
f 795 652 645
f 998 1220 295
f 902 295 1220
f 902 1220 94
f 1220 1244 94
f 1221 677 1220
f 677 1244 1220
f 480 617 1094
f 1094 479 480
f 1102 1166 1317
f 1166 1165 1317
f 1064 1317 1165
f 1063 1103 1064
f 1103 1317 1064
f 1103 1102 1317
f 1278 1314 455
f 341 773 502
f 1283 1314 1278
f 1252 1283 1278
f 69 765 1178
f 1092 235 966
f 235 655 966
f 314 1025 1027
f 1025 314 1092
f 1026 967 562
f 917 966 1160
f 655 1160 966
f 863 864 906
f 674 283 282
f 1269 428 828
f 1269 1299 794
f 1214 218 198
f 218 1299 498
f 1162 1291 1041
f 1056 1041 703
f 1041 1291 703
f 1259 594 664
f 594 1259 223
f 514 1112 88
f 514 1117 1112
f 1112 1159 88
f 583 1231 1047
f 1047 1318 767
f 1047 1231 1318
f 1231 435 1318
f 1318 435 135
f 768 767 1318
f 906 1318 135
f 1118 1044 1053
f 799 1053 1044
f 597 483 1024
f 85 500 68
f 112 779 22
f 741 803 743
f 802 744 803
f 744 743 803
f 1242 685 1167
f 1242 886 685
f 250 369 1073
f 348 369 250
f 572 1235 1144
f 1144 573 572
f 1235 1073 1144
f 1073 1067 1144
f 886 1001 231
f 1260 1253 1117
f 1260 1117 76
f 868 863 906
f 291 290 630
f 768 1318 906
f 1279 670 602
f 168 1279 602
f 736 1279 737
f 1279 170 737
f 168 170 1279
f 217 1276 185
f 973 1110 757
f 757 1110 1276
f 754 802 1276
f 802 1319 1276
f 1276 1319 185
f 185 1319 802
f 921 838 521
f 1202 1226 1201
f 1225 468 1201
f 241 1022 66
f 99 1030 33
f 959 1033 952
f 1146 898 906
f 1138 1316 502
f 1099 396 398
f 1008 912 267
f 1285 842 1246
f 550 391 786

