# https://github.com/mikedh/trimesh
v 0.13206052 -0.15094292 -0.02559762
v 0.12804691 -0.16861162 -0.03867692
v 0.11366000 -0.16665400 -0.03041200
v 0.11761300 -0.01438700 0.01829400
v 0.12252500 -0.01850100 0.00707200
v 0.10271100 0.01283650 -0.00311150
v -0.07377700 0.08202100 -0.02729600
v 0.12658300 -0.02671400 -0.00496000
v 0.12451400 -0.01943400 -0.00475000
v 0.08753600 -0.24152900 0.07612800
v 0.08630900 -0.23331500 0.07892300
v 0.08545500 -0.24848800 0.07866600
v -0.08970200 0.29731900 -0.02382100
v -0.11920400 0.29633100 0.01284600
v -0.12241200 0.30461600 -0.01718800
v 0.01381800 0.08051200 -0.12872100
v 0.31371400 -0.33423200 -0.13766600
v 0.31404300 -0.33891200 -0.13775100
v 0.31533700 -0.33709000 -0.13778500
v 0.11877636 -0.16156259 -0.07772905
v 0.12821227 -0.15649321 -0.05339336
v 0.12315855 -0.16732087 -0.05323230
v 0.12555937 -0.16735415 -0.04488850
v 0.18214800 -0.21716500 -0.01094200
v 0.18351650 -0.21135753 0.01165745
v 0.18896559 -0.22159321 0.01527909
v 0.02469174 -0.26287303 0.01544900
v 0.01549300 -0.25984300 -0.00331800
v 0.01665700 -0.27044200 -0.00356900
v 0.03918600 -0.23805400 0.03835600
v 0.03441737 -0.28079167 0.02782755
v -0.02865700 0.08177000 -0.12120600
v 0.00454400 0.10390100 -0.12751900
v -0.01319400 0.08136800 -0.12971400
v 0.32029886 -0.30018727 0.04040522
v 0.32021352 -0.30260259 0.05071574
v 0.32180600 -0.33984300 0.03925800
v 0.32584800 -0.34283200 0.09835400
v 0.32552000 -0.33815200 0.09845600
v 0.32714200 -0.34101000 0.09831800
v 0.07906100 -0.26196900 0.08734600
v 0.06134500 -0.29170200 0.11257500
v 0.07730000 -0.28806300 0.11186500
v 0.14929460 -0.22283820 0.04183330
v 0.15404853 -0.22671229 0.03667069
v 0.16165700 -0.20985900 0.02348700
v -0.07643351 -0.04890708 -0.03449519
v -0.07292807 -0.05932620 -0.05308326
v -0.07580950 -0.05165357 -0.02700186
v -0.06839964 -0.07627025 -0.03488800
v 0.12196700 -0.03065200 0.01982500
v 0.02330300 0.13055900 0.12125900
v 0.05929519 0.12660419 0.10033820
v 0.03068700 0.16494900 0.10235500
v 0.11604100 -0.16744500 0.01722000
v 0.13883943 -0.16231596 0.00858252
v 0.12645100 -0.15972400 0.00339300
v 0.16832600 -0.20015400 -0.00998400
v 0.14882900 -0.17898250 -0.00867450
v 0.12865100 -0.24244700 -0.06043000
v -0.03596000 0.23352500 0.00764300
v -0.03568900 0.21676500 0.00734800
v 0.07263000 -0.19734000 0.10318900
v 0.05991400 -0.17263700 0.12292700
v 0.07598635 -0.03007496 0.11148834
v 0.08324062 -0.03242179 0.10718041
v 0.06309400 0.00718500 0.09366400
v 0.06552000 0.22800300 -0.01159400
v 0.04626900 0.24435700 -0.01570200
v 0.05748300 0.23933000 0.00297000
v 0.08153458 0.05732246 0.03492118
v 0.08090800 0.04510700 -0.00147300
v 0.06916700 0.06541200 -0.00055700
v 0.31184002 -0.29343516 -0.07678395
v 0.27452800 -0.29263300 -0.06068700
v 0.30662954 -0.29161394 -0.07720850
v 0.06392300 0.07620300 0.03499400
v 0.07393270 0.11220869 0.03135063
v 0.05848100 0.10846600 0.06559700
v -0.04054400 0.24866000 0.00812500
v 0.09655100 -0.20897300 0.10303500
v 0.10909500 -0.20480900 0.09830100
v 0.10437800 -0.20732300 0.10262400
v 0.05396100 -0.31851300 -0.09350200
v -0.04138200 0.18900500 0.00716600
v 0.23671800 -0.26745800 -0.01449500
v 0.25249930 -0.27366288 0.01937671
v 0.27802200 -0.28956500 0.00502900
v 0.04770100 -0.30868900 -0.00583200
v 0.05867400 -0.31162800 -0.00644100
v 0.05999800 -0.31349400 0.02111800
v 0.05713600 0.17095400 -0.05005800
v -0.03466744 0.24241327 0.03904775
v -0.03451479 0.24319225 0.03908194
v -0.26556500 0.31761550 0.02050850
v -0.29165300 0.33819400 0.00860100
v -0.28877200 0.34306000 0.01503900
v -0.28760200 0.34446300 0.02204900
v -0.29521700 0.32365200 0.02209100
v 0.13079734 -0.31862667 -0.01017833
v 0.05466200 0.06570600 -0.06675200
v 0.03994300 0.07904900 -0.09633800
v 0.02153680 0.28623809 0.03730918
v 0.01425465 0.27866515 0.05031524
v 0.02746971 0.27547987 0.05091849
v 0.07017238 0.11449780 -0.02904993
v 0.05202200 0.11061100 -0.06359300
v 0.05406200 0.14044700 -0.05824900
v -0.26461700 0.31909600 0.00033800
v 0.04695600 -0.20808000 0.07247000
v 0.02276384 -0.18262228 0.06926847
v 0.02044300 -0.20546700 0.04616700
v 0.06184600 -0.19376000 -0.11249200
v 0.04543572 -0.16275428 -0.10399746
v 0.04726700 -0.16843700 -0.13003600
v 0.31120100 -0.31362000 -0.01905700
v 0.31797800 -0.32631900 -0.01964100
v 0.31497324 -0.32157273 -0.03816163
v 0.00224400 0.07280800 -0.13192500
v 0.00154600 0.08093200 -0.13235500
v 0.06891850 0.14743550 0.00084250
v 0.06371400 0.10228100 0.00033500
v -0.07222225 0.04152479 0.05640864
v -0.07300613 0.03990264 0.05511480
v -0.07287764 0.03507251 0.05765248
v 0.09422601 -0.13868242 -0.10129240
v 0.08755574 -0.14742650 -0.10406696
v 0.08955265 -0.13882859 -0.10296734
v 0.12135800 -0.01811400 -0.01626800
v -0.23591300 0.31157900 0.01892600
v -0.19350000 0.30689900 0.01673050
v -0.23607500 0.31480100 -0.00409700
v -0.15108700 0.30221900 0.01453500
v -0.14347400 0.30731200 -0.01423300
v 0.11908632 -0.09229148 -0.05491364
v 0.11915297 -0.09109540 -0.05495189
v 0.11947884 -0.09200546 -0.05394585
v 0.17235900 -0.29202050 -0.13016250
v 0.19079350 -0.33370350 -0.13139950
v 0.12866900 -0.15836600 -0.00161400
v -0.26260800 0.31842900 0.04051700
v -0.03770827 0.21457423 0.03085053
v -0.01171655 0.06111894 -0.13056308
v -0.01204686 0.06220786 -0.13044370
v 0.31201200 -0.34446300 0.09900900
v -0.25503100 0.34242500 0.02038050
v 0.11236200 -0.28480200 -0.12699900
v 0.13821400 -0.28658700 -0.12834700
v 0.11315100 -0.32789000 -0.12737000
v 0.10942800 -0.24080100 -0.08435900
v -0.07882554 0.04057519 -0.03417199
v -0.07719101 0.04499464 -0.03840588
v -0.07713840 0.01984356 -0.06195127
v -0.07542975 0.02774715 -0.06333801
v 0.01570400 0.06833900 0.13728100
v 0.00197067 0.06351616 0.13571442
v 0.01792600 0.06023000 0.13523800
v -0.00774000 0.25512100 0.06733400
v -0.01140088 0.21860082 0.06554894
v 0.00282400 0.23913600 0.07547500
v -0.32192600 0.33369800 0.01446900
v -0.31132700 0.32960400 0.01011800
v -0.31846500 0.33133100 0.02338200
v 0.09782100 -0.23990000 -0.09301400
v 0.15870018 -0.27311198 0.05869839
v 0.15779074 -0.27452599 0.06010411
v 0.15858552 -0.27630079 0.06025200
v -0.04187111 -0.12647734 0.04667883
v -0.02226974 -0.14453639 0.06504618
v -0.03542684 -0.12566422 0.07066913
v 0.18419100 -0.29594900 0.10648750
v 0.15004400 -0.29051400 0.10826700
v 0.16376475 -0.33471150 0.10646325
v -0.05431250 0.15220400 0.00719250
v 0.23898233 -0.32912467 -0.01578433
v 0.20292066 -0.32562533 -0.01391567
v 0.05202000 0.07813900 -0.06689900
v 0.06042900 0.07736400 -0.03489200
v 0.31038769 -0.29193404 0.01673395
v 0.27890700 -0.29408700 0.02689500
v -0.18977450 0.31105650 -0.00916500
v -0.00063500 -0.20222100 -0.02323800
v 0.06971800 -0.25886700 -0.09951900
v 0.08651000 -0.28301700 -0.12565100
v 0.06547800 -0.28413800 -0.12459000
v 0.28026600 -0.30522100 0.06406500
v 0.18995500 -0.24736800 0.02236200
v 0.17421600 -0.23010400 0.02249800
v -0.05161600 0.28931400 -0.03286600
v -0.04927200 0.29426300 -0.02441800
v 0.01382000 0.04836200 -0.12431800
v -0.00047237 0.03006059 -0.13228815
v -0.05693500 0.07979200 0.07688700
v -0.07035900 0.08088600 0.04107800
v -0.32467600 0.34110400 0.02385500
v -0.05366800 0.28417000 -0.03449000
v -0.05072800 -0.14092000 0.00204500
v -0.03415988 -0.14771902 -0.03435650
v -0.02626900 -0.17817300 0.00018500
v 0.05612976 -0.18348709 0.08880274
v 0.02978681 -0.18206813 0.07511828
v 0.21423962 -0.32422270 -0.12859428
v 0.22961475 -0.33661025 -0.13341425
v 0.31654200 -0.33157300 0.09905700
v 0.18869900 -0.21989292 -0.03196872
v 0.18702526 -0.21805754 -0.03325230
v 0.18717975 -0.21794338 -0.03183694
v 0.10724200 -0.00648800 -0.03621500
v 0.11535900 -0.01363900 -0.02677800
v -0.32633800 0.33653700 0.01872400
v -0.32714200 0.33780000 0.02392400
v 0.13382800 -0.24416700 0.04314100
v 0.11709100 -0.24334500 0.06890900
v -0.01374145 -0.18091413 -0.02627691
v -0.02262665 -0.12577581 0.09035586
v -0.02713457 -0.13399760 0.07601268
v -0.01423981 -0.14302077 0.07958214
v -0.01637116 -0.15056840 0.06858718
v 0.03828200 0.19825700 0.07858200
v 0.00876500 0.20231800 0.09257900
v -0.11938900 0.30361200 0.04328600
v 0.06002500 0.13846700 0.06103600
v 0.27634200 -0.33532650 0.01190300
v 0.27504400 -0.33262400 -0.01765300
v 0.02611300 -0.23696600 0.01917300
v 0.02204200 -0.23655100 0.00840700
v 0.08300900 0.02436200 0.05407500
v 0.08865600 -0.01100900 0.06675700
v 0.17702600 -0.24659100 0.02204100
v 0.05724500 -0.31257900 -0.03395100
v 0.05238500 -0.31957500 -0.12428000
v 0.04337100 -0.31171600 -0.12379700
v 0.09473567 -0.31512733 -0.00830967
v -0.15949100 0.33128600 0.01540100
v -0.19097550 0.33583650 0.01705650
v 0.01655300 -0.24840900 -0.00316200
v 0.05943063 0.12371507 0.10045746
v 0.24921474 -0.28198512 0.05269707
v 0.24946139 -0.27444893 0.02534260
v 0.14168700 -0.19131100 0.02478600
v 0.12744602 -0.27567348 0.08297941
v 0.12650244 -0.26503436 0.07544798
v 0.11881726 -0.26939856 0.08387966
v 0.19602300 -0.24704500 -0.03275000
v 0.19238300 -0.23345600 -0.01171100
v 0.19640700 -0.24740500 -0.01213500
v 0.08189251 0.15174335 0.03157433
v 0.08153141 0.15615134 0.03147088
v -0.03440380 0.14783726 0.08068864
v -0.03424360 0.13873500 0.08535836
v -0.02835548 0.15319428 0.08261006
v -0.04306757 0.16427309 0.05367191
v -0.03504557 0.15152830 0.07797759
v -0.04543801 0.16778134 0.04615247
v 0.13075200 -0.16209964 0.03710399
v 0.11034300 -0.18223100 0.04419900
v 0.11192100 -0.17324100 0.02652600
v 0.11042156 -0.22892748 0.08485449
v 0.12269515 -0.21425275 0.07072702
v 0.26843600 -0.33951700 -0.13542900
v 0.26903400 -0.32606400 -0.13708600
v 0.12933200 -0.15781100 -0.00736500
v 0.13177979 -0.14980781 -0.02569514
v 0.13049050 -0.11868950 -0.00668450
v -0.06276817 -0.08989859 -0.05865626
v -0.06620796 -0.07846990 -0.06348858
v -0.06186725 -0.09022348 -0.06425150
v 0.24609949 -0.27015710 0.02067072
v 0.15612916 -0.27377123 0.06073495
v 0.15598711 -0.27636265 0.06283878
v 0.06134900 0.06348600 0.06699900
v 0.07024700 0.04382900 0.06234800
v 0.07930400 -0.23879500 -0.08853200
v 0.08917300 -0.23933500 -0.09362000
v 0.07696800 -0.24567000 -0.09107700
v 0.27583300 -0.28883800 -0.03876200
v 0.27702900 -0.28751100 -0.01685500
v -0.05191000 0.27659600 0.04837200
v -0.04606929 0.26620036 0.04185085
v -0.02476400 0.26961700 0.05975700
v 0.03678800 -0.30219600 -0.00516200
v 0.25017295 -0.27825757 -0.06373570
v 0.27257250 -0.30119700 -0.09119650
v -0.07672300 -0.07342100 0.00449500
v -0.08350700 0.03234200 0.00662900
v 0.20650400 -0.29745400 -0.13197800
v 0.01115143 -0.12761389 0.10891667
v -0.06238853 -0.06681728 0.07529266
v -0.05800191 -0.06765190 0.08057415
v -0.06190622 -0.06350049 0.07738983
v 0.10640700 -0.24275100 0.07870300
v -0.02219248 -0.09434990 -0.11003981
v -0.02112062 -0.05940521 -0.12382330
v 0.00247351 -0.08525810 -0.12661272
v 0.18544263 -0.21617219 -0.03296160
v 0.16696300 -0.22079600 -0.04314300
v 0.15835600 -0.20876300 -0.04252400
v 0.10143330 -0.22122600 0.09117929
v 0.07746100 -0.20963700 0.09468100
v 0.10229887 -0.22241511 0.09064339
v 0.06984462 -0.15757013 -0.10931481
v -0.03815400 0.07861600 0.10852900
v -0.01868157 -0.08461272 0.11343039
v -0.00350184 -0.07725389 0.12265048
v -0.02445864 -0.06881116 0.11531171
v 0.06133900 -0.31745100 0.05100900
v 0.04233100 0.23452400 -0.03497000
v 0.06382600 0.21947200 -0.02371200
v 0.10014920 -0.12201346 0.09427221
v 0.10185629 -0.11022777 0.09441118
v 0.09292717 -0.11108604 0.09997327
v -0.03468429 0.20677259 0.04218962
v 0.31852511 -0.30949863 0.01497728
v 0.31856195 -0.29862923 0.01654139
v 0.06320300 0.08789300 0.00011600
v 0.06451300 0.07671100 -0.00013800
v 0.16149791 -0.25882047 -0.06942504
v 0.16015465 -0.24527664 -0.06230515
v 0.04967700 0.07581800 0.09834000
v 0.00797700 0.22156600 0.08396200
v 0.19478397 -0.23173752 0.01408855
v 0.19628400 -0.24770300 0.01723500
v 0.19808600 -0.24773000 0.00853200
v -0.02278316 -0.11876092 -0.09774671
v -0.02101778 -0.10578462 -0.10566379
v -0.01213695 -0.12622603 -0.09999410
v 0.07764006 0.13448179 0.02998685
v -0.02843340 0.19888559 -0.05198572
v -0.02886004 0.19889374 -0.05073278
v -0.02927642 0.20170180 -0.04950022
v -0.05614414 -0.09480280 0.05599243
v -0.04394822 -0.10708231 0.08175162
v 0.31776400 -0.33685400 -0.01983800
v 0.31978500 -0.33834850 0.00971000
v 0.16685900 -0.32212600 -0.01204700
v -0.08838000 0.28571900 0.01113200
v -0.07657001 -0.00402083 0.04940051
v -0.07667239 -0.00398501 0.04868965
v -0.07671502 -0.00500269 0.04799397
v 0.13838700 -0.19021500 -0.04121100
v 0.10527900 -0.18055000 -0.05709000
v 0.20258850 -0.33761900 0.10449950
v 0.02344099 -0.14459619 -0.10982684
v 0.02097165 -0.13885902 -0.11188276
v 0.12103668 -0.10980414 0.05211196
v 0.11923121 -0.13356894 0.07305369
v 0.12124640 -0.12752725 0.06285155
v -0.06330800 -0.11473000 0.00312000
v 0.15572705 -0.23196503 -0.05068436
v 0.17091800 -0.22900900 -0.04346300
v -0.02192704 -0.05755406 -0.12357282
v -0.02891509 -0.03081583 -0.11664162
v -0.01538100 -0.04304200 -0.15064900
v 0.06418200 -0.32349200 0.11168900
v 0.05517900 -0.31563600 0.11236800
v 0.06268000 -0.32140800 0.08090000
v -0.05749200 0.26788900 0.00929200
v -0.05724900 0.27284700 -0.02052300
v -0.04120237 0.26041836 -0.02971464
v -0.05787100 0.26914200 -0.00605800
v 0.00907983 -0.02181360 -0.13557562
v 0.00931247 -0.03057004 -0.13524391
v -0.02629300 -0.00220000 -0.14178500
v 0.31497300 -0.33839750 -0.10827300
v 0.31273724 -0.29852730 -0.08626480
v 0.31333203 -0.29933799 -0.08050044
v -0.05582100 0.27789500 -0.02986300
v 0.25055634 -0.33268775 -0.03684160
v -0.02995800 0.27134200 -0.04412900
v 0.11445856 -0.16099120 -0.08592767
v 0.11579119 -0.15783565 -0.08223495
v 0.31011133 -0.29321480 -0.08129322
v 0.01558600 -0.20385400 -0.05099000
v -0.01183200 -0.00700100 0.14745000
v -0.00015800 -0.04809700 0.15382500
v 0.24633291 -0.33416078 0.01861391
v 0.25267834 -0.33586184 0.03552894
v 0.22958982 -0.33364167 0.03210140
v -0.01803300 0.04052800 0.13755500
v -0.01343381 -0.18089428 -0.02742924
v -0.03220712 -0.14946353 -0.03708795
v -0.01089662 -0.17058102 -0.05015209
v 0.06535900 0.20520100 0.03834000
v 0.06642300 0.21861000 0.02822200
v 0.03553945 -0.06105618 0.13414096
v 0.02983277 -0.05187722 0.13547125
v 0.04024492 -0.00003659 -0.12469011
v 0.03179458 -0.00608031 -0.12778585
v 0.03216708 0.00036762 -0.12769326
v 0.08730952 -0.18860786 -0.10936031
v 0.08564400 -0.20535100 -0.11511000
v 0.01828332 -0.17338283 0.07473222
v 0.13262098 -0.21453984 -0.07341201
v 0.12273406 -0.21886648 -0.08269003
v 0.09327818 -0.25462972 -0.09783122
v -0.05439589 0.12223707 0.06227547
v -0.05978642 0.10126437 0.05917914
v 0.20263608 -0.28759550 0.07205301
v 0.20931956 -0.28984134 0.07508038
v -0.05427000 0.27185800 0.03907000
v -0.04461624 0.16971471 0.04759291
v 0.10257900 -0.19652000 -0.09950500
v 0.03217100 -0.14326300 -0.14406700
v 0.02385700 -0.12874000 -0.14972500
v -0.05633700 0.26863300 0.02463400
v -0.07676835 -0.00294101 0.04814168
v 0.12565500 -0.03256200 0.01102900
v 0.09833400 -0.28694300 0.11086000
v 0.06879900 -0.32293600 -0.12509700
v 0.02759300 0.03249400 -0.11478700
v 0.05364100 0.01032300 -0.09540800
v -0.02518000 0.07797200 0.12301700
v -0.08150117 0.00409937 -0.02372348
v -0.08009886 -0.01428504 -0.03994414
v -0.08498200 0.00079100 0.00616900
v 0.28023600 -0.34343400 0.10057200
v 0.01303059 -0.12970273 0.10830189
v 0.01465532 -0.12916463 0.10980446
v 0.01367226 -0.12761638 0.11019571
v 0.07427796 0.11281145 0.02130115
v 0.07677301 -0.31299328 -0.04442806
v 0.08921831 -0.31831689 -0.06508959
v 0.09084795 -0.31637451 -0.04391307
v -0.10012200 0.31730300 0.01219000
v -0.12980650 0.32429450 0.01379550
v 0.02638093 0.01152286 0.13388505
v 0.02642200 0.04417800 0.12772700
v 0.01529932 0.01331708 0.13560020
v 0.11930879 -0.09304655 -0.05442733
v 0.06258534 -0.25174708 -0.08502910
v -0.01866850 0.28580850 0.00757800
v -0.04733200 0.29741200 -0.01085000
v -0.04577800 0.29858100 0.00915100
v -0.08210900 -0.04453800 0.00525600
v -0.07664421 -0.04939807 -0.02397263
v -0.06399200 0.08213500 -0.06426500
v -0.00183400 0.14523100 0.11294550
v 0.05560300 -0.31554600 -0.06372650
v 0.18313806 -0.32741953 0.02014569
v 0.17805421 -0.32724594 0.02618643
v 0.01622094 0.24910787 0.06752475
v 0.03161518 0.24581933 0.06895608
v 0.09268100 0.00820400 -0.04822100
v 0.07743300 0.02621400 -0.05745600
v 0.02400266 0.24769475 -0.05911918
v 0.03753090 0.25433486 -0.04835746
v 0.00013600 0.07694200 0.13690700
v 0.01760400 0.09956400 0.13369100
v -0.00772300 0.12037000 0.12062000
v -0.23377300 0.31403700 0.04193900
v 0.28162500 -0.31635500 0.10123500
v 0.24998150 -0.30886950 0.10297150
v -0.29524900 0.33069700 0.00510900
v 0.05875600 0.07590200 0.06783000
v 0.11675170 -0.16869625 -0.08149204
v 0.12144359 -0.10836938 0.04887158
v 0.12107479 -0.10640547 0.05045688
v 0.07133124 0.11599397 -0.02540432
v 0.07116483 0.11176801 -0.02607823
v 0.11795437 -0.17224379 0.08204113
v 0.11186000 -0.19960100 0.08612000
v 0.12206442 -0.16779497 0.07848668
v -0.06532825 0.01425601 0.08267978
v -0.07635853 -0.00290125 0.05022873
v 0.04272905 -0.29449332 -0.09482677
v 0.02707600 -0.29253400 -0.00449600
v 0.11109000 -0.02467500 0.03830900
v 0.02775000 0.07982500 -0.11599100
v 0.27339200 -0.33434700 -0.04709700
v -0.32101700 0.33339600 0.03266600
v 0.04122744 -0.28546503 0.03949795
v 0.03915522 -0.28860668 0.03003059
v 0.04801228 -0.28248507 0.06664059
v -0.02483941 -0.03914615 0.11802361
v 0.14243400 -0.24352800 -0.04773100
v -0.05034800 0.26197500 0.00883700
v -0.31695100 0.34328800 0.02350400
v 0.21833800 -0.30138400 0.10470800
v 0.03077300 0.20075000 -0.07160100
v 0.00613563 0.01244473 -0.13304794
v 0.00831137 0.02195662 -0.13257502
v 0.25402684 -0.28774247 0.06443479
v 0.12418900 -0.28872850 0.10956350
v 0.28101800 -0.33004300 0.10260500
v 0.11850400 -0.09202494 -0.05617768
v 0.17026200 -0.22189100 0.02284600
v 0.11860961 0.00050019 -0.01934316
v 0.02183200 -0.28452400 -0.00408600
v 0.07977711 -0.16681030 -0.10718931
v -0.04967414 0.26458435 0.03095326
v -0.03518137 0.24447845 0.03910024
v -0.18720450 0.31020300 0.04223800
v -0.01285675 0.06168490 -0.13008089
v 0.07412300 0.19259000 0.00135000
v 0.05944400 0.18987300 -0.04283900
v 0.06173800 0.20640400 -0.03409200
v 0.04379089 -0.29855904 -0.02480660
v 0.01506500 0.07644300 0.13804900
v -0.04609534 0.16555486 0.04615187
v 0.12865200 -0.03399400 -0.00517000
v 0.05375200 -0.29715300 0.11284100
v 0.10508411 -0.22053871 -0.09852711
v -0.29663800 0.32565700 0.00646200
v -0.29622700 0.32401200 0.01060800
v -0.02289704 -0.14329875 -0.07836418
v 0.31386381 -0.29840262 -0.07596293
v 0.31414357 -0.31351070 -0.04577075
v 0.31683350 -0.33736850 -0.04931650
v 0.03495700 -0.23665000 -0.04622200
v 0.05415900 -0.23754800 -0.06761200
v 0.06778748 0.04114646 0.09355179
v 0.06929624 0.04295594 0.09013698
v 0.06777855 0.04590366 0.09260819
v -0.05269528 0.12689792 0.06325751
v -0.04973685 0.12338976 0.06943083
v -0.05280584 0.12987319 0.06168071
v -0.22246000 0.34038700 0.01871200
v 0.25301079 -0.27832725 0.02352418
v 0.18422365 -0.24955652 0.04118055
v 0.18967841 -0.24805230 -0.06338203
v 0.19527429 -0.24835715 -0.06299837
v 0.17237527 -0.26326874 -0.07540362
v 0.20614980 -0.26558196 -0.07340533
v 0.03076711 -0.16759112 -0.09690401
v 0.04362397 -0.17716735 -0.09830126
v 0.09417909 -0.26991771 -0.10593321
v 0.18356968 -0.25374247 0.04614153
v 0.17389970 -0.24931990 0.04023185
v 0.01521500 -0.11278300 -0.15382200
v 0.09786300 -0.24222000 0.08018600
v 0.10881977 -0.21901987 0.08923513
v 0.12494100 -0.33180400 0.10842700
v 0.03434171 -0.29109804 0.00784626
v 0.07763465 -0.17298898 0.09602115
v 0.12047297 -0.10431553 0.05229148
v 0.12120632 -0.10445147 0.05030741
v 0.12090687 -0.06784651 0.05908960
v 0.12463366 -0.06520696 0.04973329
v -0.04547428 0.16698685 0.04733378
v -0.04504191 0.16761901 0.04800451
v 0.10342616 -0.04018965 0.08263724
v 0.10904158 -0.04531208 0.07507318
v -0.00061455 -0.15023574 -0.08983644
v -0.02223351 -0.14317530 -0.07928997
v -0.02282125 -0.14221762 -0.07960000
v -0.02293116 -0.14294566 -0.07888730
v -0.02299383 -0.14271378 -0.07906623
v 0.06231700 0.16923400 0.05355400
v 0.11945843 -0.10713755 0.05429500
v 0.31590300 -0.33788300 -0.07879500
v 0.03934400 -0.20555300 -0.07978300
v 0.03865000 -0.13365200 0.14615600
v 0.03950500 0.07592200 0.11912600
v 0.02691300 0.07616400 0.13319800
v 0.14627500 -0.24480400 0.02910300
v -0.05981958 0.12513336 -0.04435965
v -0.05097993 0.13613073 -0.05827068
v -0.05459070 0.11214370 -0.06756772
v -0.05076545 0.11777194 -0.07291963
v -0.04740800 0.28791700 0.05130100
v -0.08619200 0.29615300 0.04637900
v -0.04929600 0.28271800 0.05296000
v 0.08059100 -0.32685200 0.11075400
v -0.05104901 -0.05765386 0.09760826
v -0.05924444 -0.03725736 0.09437265
v -0.04182440 0.04025533 0.10855067
v -0.03137034 0.02689306 0.11615274
v 0.01173299 -0.15763025 -0.08992329
v 0.01799961 -0.14177916 -0.10780635
v -0.01604600 0.01709300 0.14259900
v 0.01461714 0.00309641 0.13630782
v 0.08172500 -0.00870800 -0.07185900
v 0.10179962 -0.04362126 -0.08545422
v 0.08880412 -0.04737995 -0.10264181
v 0.15129232 -0.22918358 -0.05177694
v 0.26979800 -0.31242700 -0.13533100
v 0.29640400 -0.33473900 -0.01874600
v 0.24141225 -0.34052650 0.10253575
v 0.11049100 -0.00756700 0.02876000
v 0.07426806 0.10551171 0.02537631
v -0.06009478 -0.09797928 -0.05057462
v -0.05743533 -0.10745341 -0.02762326
v -0.06108541 -0.09699662 -0.02938872
v 0.01753400 -0.09109800 0.15596000
v 0.22109477 -0.25401625 0.01607070
v -0.03143189 0.16997022 -0.06194834
v -0.03145387 0.19474301 -0.04859399
v -0.02693913 0.16694541 -0.07335278
v -0.02908591 0.19612357 -0.05300694
v 0.04511563 0.10234532 0.11583547
v 0.06691300 0.22754100 0.01627100
v 0.19105744 -0.22745919 0.01537267
v -0.06724300 0.11540300 0.00721900
v 0.27893800 -0.34073150 0.07101550
v 0.30822372 -0.30708673 0.07403405
v 0.19063716 -0.22251986 -0.03452307
v 0.18677238 -0.21951189 -0.03513741
v -0.32480100 0.33478600 0.02375600
v -0.02793185 -0.15377640 0.03079037
v -0.03641271 -0.13934299 0.03656735
v 0.06392300 0.18838600 0.04674500
v 0.07302000 0.21531100 0.00178800
v 0.08636440 0.18413997 0.02623177
v 0.16555424 -0.24198598 -0.05557677
v 0.01214800 -0.22198900 -0.00248300
v 0.03308214 0.27887097 0.03094664
v 0.04819600 0.24371700 0.02284100
v 0.03061300 0.26008100 0.00467400
v -0.07983585 -0.02448525 -0.02487681
v 0.00215537 -0.17238672 -0.06640953
v 0.09347600 -0.20370400 -0.11542700
v 0.27764000 -0.33802900 0.04145900
v 0.05100027 -0.03890569 -0.12724969
v 0.04604437 -0.04200552 -0.13071340
v 0.04165867 -0.02246141 -0.12862072
v -0.05965180 -0.09521899 -0.06457319
v -0.05302025 -0.07255108 -0.09509138
v -0.05378190 -0.06989036 -0.09572186
v -0.07929284 -0.01272342 -0.04690361
v -0.08017403 -0.00992911 -0.04154580
v 0.07781800 -0.23049600 -0.09091600
v 0.11857052 -0.25967193 0.08113654
v 0.05406523 -0.13187148 -0.11798065
v 0.05388678 -0.13542038 -0.11730768
v 0.03700400 0.21955200 -0.05376000
v 0.00012600 0.22417200 -0.07305600
v -0.00412500 0.24144300 -0.06352000
v 0.19021202 -0.32872757 0.02039007
v 0.18975410 -0.32996959 0.03164082
v 0.18539176 -0.32032353 0.02782370
v 0.22150518 -0.26950059 0.04351839
v 0.22503728 -0.27411049 0.04861374
v 0.21734466 -0.25375302 0.01926110
v 0.21268244 -0.26227700 0.04194140
v -0.04882540 0.02521047 -0.10524261
v -0.02996200 0.02171400 -0.13574200
v -0.04971262 0.00428853 -0.10374089
v 0.24363440 -0.28780197 -0.09733336
v 0.24171368 -0.28778246 -0.09180100
v 0.21670282 -0.25065599 0.01240252
v 0.12039408 -0.09864959 -0.05084621
v 0.12560448 -0.12241934 -0.03607357
v 0.12400535 -0.12349132 -0.04069672
v 0.08600606 -0.03416606 0.10329491
v 0.09229867 -0.01369963 0.08698314
v -0.06993413 -0.05350346 0.05083835
v -0.05656607 -0.09339987 0.05666752
v -0.06318830 -0.06622682 0.07213654
v 0.21712916 -0.25140726 0.01607182
v 0.27008800 -0.33779350 -0.10598500
v 0.04833500 0.24773800 0.00357300
v 0.04633400 -0.14796600 0.13921900
v 0.11688694 -0.32213523 -0.09121493
v 0.12300907 -0.32315657 -0.09952277
v 0.13115034 -0.32381334 -0.09423945
v -0.29030200 0.33774500 0.03562300
v -0.00349131 0.01972985 -0.13159102
v 0.09041544 -0.21455491 -0.10473127
v 0.08989179 -0.21860229 -0.10322453
v -0.01609800 0.07759900 0.13000200
v 0.09548801 -0.32050401 -0.08220218
v 0.16403179 -0.24192131 0.03812764
v 0.16091125 -0.26798624 0.05402875
v -0.03523869 0.11250613 0.09652204
v -0.04423109 0.04870769 -0.10762077
v -0.04846100 0.08203800 -0.09762700
v -0.03699700 0.08189500 -0.11334400
v -0.04032236 -0.13116216 -0.05811553
v -0.02362400 -0.14238663 -0.07837762
v -0.03543719 -0.14477086 -0.03863385
v 0.04016778 -0.29133725 -0.05497622
v 0.30020800 -0.34054400 -0.13707800
v 0.29187012 -0.33108785 -0.10745078
v -0.05679758 -0.06649179 -0.09179940
v 0.07290344 0.10191883 0.01795592
v 0.00153400 -0.20294200 0.02014400
v -0.00616000 -0.20164600 -0.00122300
v -0.00543600 -0.20168600 -0.00904000
v -0.06163818 -0.09524823 0.02691460
v 0.21629656 -0.24993408 0.01508040
v 0.21526288 -0.25031742 0.01776321
v -0.04729831 0.15725864 0.05118584
v 0.08890558 -0.31684556 0.03249201
v 0.08804249 -0.31670394 0.03263335
v 0.08898606 -0.31682453 0.03162262
v 0.10173997 -0.25651416 0.08448718
v 0.08018258 -0.10713264 0.10986429
v 0.06800523 -0.11809204 0.11225554
v 0.23815100 -0.30494050 -0.13365450
v 0.11322320 -0.08593326 0.07720096
v 0.15197225 -0.33079675 -0.12938475
v 0.03914800 0.02865800 0.11632100
v 0.12606738 -0.12161121 -0.03422563
v 0.02902095 0.10830540 -0.11748574
v 0.03410452 -0.10473822 -0.13182568
v 0.03676388 -0.07139558 -0.13253007
v 0.03410540 -0.10473912 -0.13182541
v 0.06067687 -0.07618333 -0.12598960
v 0.23765159 -0.33660472 0.06014922
v -0.04920196 -0.12005373 -0.04485074
v -0.04403341 -0.12487641 -0.06412168
v 0.03990972 -0.06223755 0.13371653
v 0.03737922 -0.07225999 0.13314095
v 0.05153906 -0.06502748 0.12909035
v -0.04605961 0.17420401 -0.03423788
v 0.10862600 -0.17214700 -0.03937400
v 0.12662374 -0.16989646 -0.04317636
v 0.13164900 -0.07956800 -0.00600400
v -0.00570917 -0.15507575 0.07457195
v 0.01414838 -0.17927277 0.06296327
v -0.01025259 -0.16174340 0.06138615
v -0.07898033 -0.02072614 -0.04643816
v 0.00464600 0.06463900 -0.13038800
v 0.30473200 -0.32765200 -0.13715000
v 0.21656572 -0.25038729 -0.03507136
v 0.22570903 -0.25928608 -0.04804610
v 0.20938844 -0.24425507 -0.04222956
v 0.12542969 -0.13997944 0.05755712
v 0.12217036 -0.16573500 0.07787018
v 0.12977810 -0.14856629 0.04171076
v 0.12263963 -0.16653946 0.07612805
v -0.03449265 -0.14687418 -0.03556885
v -0.04591200 0.29314800 0.04279700
v 0.08659132 -0.18058316 -0.10943805
v 0.09003038 -0.18853717 -0.10940944
v 0.05735710 0.04489079 -0.10066439
v 0.06394400 0.04592100 -0.06370400
v 0.07140364 0.03066305 -0.08665251
v -0.05596568 0.14267633 -0.03863268
v -0.05626976 0.14758384 -0.02326455
v -0.04878024 0.16956769 -0.03104077
v -0.03350367 0.10672881 -0.10133830
v -0.01931800 0.12422000 -0.11129600
v 0.12405700 -0.03203200 -0.02092700
v -0.07726588 -0.04589896 -0.02613199
v -0.07532660 -0.04801791 -0.06085283
v -0.04189941 -0.07258445 0.10167163
v 0.04356862 -0.29764422 -0.10295039
v 0.09749262 -0.05382913 0.09525588
v 0.10701878 -0.04890022 0.08111334
v 0.32382700 -0.34133750 0.06880600
v -0.01342054 -0.18140877 -0.02627985
v 0.09613384 -0.21540186 -0.10369143
v 0.09860500 -0.20132600 -0.11151500
v 0.16632943 -0.24722751 -0.05810930
v 0.02079300 0.16823400 -0.09555300
v 0.02183402 0.26724990 0.05433587
v 0.03194185 0.26107601 0.05812164
v -0.32582500 0.33636600 0.02897100
v -0.03530224 -0.14578797 -0.03452257
v -0.06040313 -0.09769104 0.02760122
v 0.16099919 -0.27500518 0.06024668
v 0.00945700 -0.07300200 0.15585500
v 0.03289371 -0.06635201 0.13283415
v -0.02777026 0.19862535 -0.05293472
v 0.10023903 -0.21404577 0.09350028
v 0.10543980 -0.04559593 -0.07990267
v 0.11189362 -0.31997578 -0.04763805
v 0.01581557 -0.17291371 -0.08080583
v 0.00593110 -0.16770286 -0.07721152
v -0.05669607 -0.10349633 0.03169059
v 0.08060817 0.18636254 -0.02593486
v 0.12417753 -0.14725052 -0.05696457
v 0.21287946 -0.24594134 -0.02641057
v 0.11718791 -0.05600786 -0.06247410
v 0.10944839 -0.06829823 -0.07697159
v -0.03886056 0.22189072 -0.02290502
v -0.03932564 0.20594360 -0.02229086
v 0.12015533 -0.20226510 -0.07830163
v -0.07661046 -0.00344935 0.04913401
v 0.30259636 -0.33649567 0.06427000
v -0.07295000 0.30794200 0.01067050
v -0.06011411 0.04015448 -0.08882452
v -0.05775699 0.04641126 -0.09056204
v -0.04896096 0.03854525 -0.10362957
v -0.03966305 0.17166836 0.05358863
v -0.07788216 -0.02153800 0.03119668
v 0.04024178 -0.29141004 -0.05359968
v 0.23707396 -0.33616111 0.06051700
v 0.21993993 -0.32636093 0.03690719
v 0.23618329 -0.33655798 0.06083451
v 0.20852180 -0.33313395 0.04385019
v -0.01177797 0.21784909 0.06556373
v -0.01243219 0.21776336 0.06508613
v -0.01215777 0.21765845 0.06556739
v 0.30406471 -0.29223993 -0.08145337
v 0.15227955 -0.32378941 -0.04789918
v 0.16619400 -0.32832888 -0.08877220
v 0.18518661 -0.32807382 -0.05154642
v 0.15904509 -0.28268246 -0.10528279
v 0.13651559 -0.27544595 -0.09747068
v -0.28807000 0.34282700 0.02909200
v -0.05110415 -0.02738257 -0.10145388
v -0.06331204 -0.00144111 -0.09031947
v -0.04794911 -0.02605754 -0.10456749
v -0.04533100 0.29674700 0.02918000
v 0.20942539 -0.25364236 0.03522009
v 0.20454436 -0.24863340 0.03574361
v 0.04273200 0.21765000 0.06082000
v -0.03719150 -0.09895395 0.09282240
v -0.02089428 -0.10897865 0.10193086
v -0.02405407 -0.09641377 0.10518714
v 0.11472113 -0.06788772 0.07518163
v 0.10750887 -0.07433876 0.08992262
v -0.01265200 0.14882300 -0.10342800
v -0.14063600 0.30636900 0.04253700
v 0.04458073 -0.26715950 0.05595269
v 0.06042900 -0.23963000 0.05779000
v 0.03949798 -0.05493665 0.13315553
v 0.10161226 -0.26381614 0.08662574
v 0.03048600 -0.11785300 0.15162000
v 0.09722700 0.00669400 0.04270400
v 0.14495206 -0.32496115 0.03762696
v 0.12813346 -0.05288909 -0.03376018
v -0.07634100 0.08165600 0.00710500
v -0.08084859 0.01893923 0.02022224
v 0.00405500 0.17009200 0.10527100
v 0.15731956 -0.28074786 0.06351736
v 0.16062951 -0.27782885 0.06334929
v 0.03843073 -0.16034808 0.09664431
v 0.11951400 -0.02983800 -0.02923500
v 0.15560232 -0.33004664 0.07316091
v 0.18073102 -0.32968554 0.07624468
v -0.02450253 0.16740837 -0.07578939
v -0.02565813 0.16311511 -0.07731556
v -0.07228972 -0.04916231 0.04320630
v -0.07253619 -0.04853512 0.04234615
v -0.07226034 -0.04963038 0.04248643
v -0.07588616 -0.00761125 0.05171580
v -0.07450163 -0.02671066 0.04586680
v -0.07170496 -0.02783983 0.06717993
v -0.07242452 -0.04853376 0.04313397
v 0.24407283 -0.33166013 -0.10647042
v 0.23717599 -0.33634632 -0.08745902
v 0.22223060 -0.33614385 -0.10955866
v 0.04618300 0.23324500 0.04208100
v -0.29354400 0.33013100 0.03921000
v -0.29506900 0.32513700 0.03783700
v 0.10983930 -0.13687504 0.08044679
v 0.09216743 -0.14184186 0.09655145
v 0.12179557 -0.11143352 0.04947696
v -0.02311256 -0.14279067 -0.07882857
v 0.11315748 -0.27217463 -0.09926513
v 0.12096145 -0.26867015 -0.09392249
v 0.12005789 -0.27538543 -0.09438213
v 0.02017500 -0.23625500 -0.00312200
v 0.02863464 -0.02284051 0.13397327
v 0.04467905 -0.01903863 0.12957598
v 0.03302108 -0.00698479 0.13314981
v 0.31339427 -0.29621272 -0.07973357
v 0.11893333 -0.09259661 -0.05529165
v -0.04859852 0.05281593 0.09807869
v -0.02102724 0.17908916 0.07563905
v -0.02316402 0.18577901 0.07053499
v 0.12834445 -0.05050303 -0.03361048
v 0.11651980 -0.32157348 0.02771376
v 0.01107741 -0.02253524 0.13702209
v 0.25021535 -0.27738836 -0.06028172
v -0.02800885 0.29572246 -0.02815940
v -0.05611375 -0.09501878 0.05569550
v -0.06923560 0.03105090 -0.07533729
v -0.06304926 0.04663757 -0.08129735
v -0.06994214 0.05217626 -0.06342652
v 0.09468669 -0.18727755 0.09913378
v 0.09468397 -0.19254590 0.09892199
v 0.14442540 -0.32669441 0.04776493
v 0.13966371 -0.32355722 0.04403727
v -0.07603895 0.01087509 -0.06836508
v -0.07702432 -0.01232349 -0.07051142
v -0.04817271 -0.03104839 -0.10384560
v -0.02899222 -0.05023621 -0.11831919
v -0.05286888 -0.06846495 -0.09669662
v -0.02963025 -0.06125123 -0.11684014
v 0.08240955 -0.12806349 0.10455866
v 0.06555154 -0.13310864 0.11285373
v 0.27174000 -0.33607000 -0.07654100
v -0.06295334 -0.02116518 0.09165857
v -0.06710046 -0.00568540 0.08039131
v -0.06927030 -0.02829093 0.07305777
v 0.03182743 -0.15566845 0.09619268
v 0.31889374 -0.31666484 0.07119727
v 0.12870660 -0.12606802 0.02438188
v 0.12889114 -0.13916779 0.03403470
v 0.09954869 -0.32141671 -0.09014292
v -0.02696167 -0.04027507 0.11673433
v -0.02756047 -0.03934254 0.11642857
v -0.04001703 0.10838021 0.09134101
v -0.06569917 -0.05406821 0.07171560
v -0.07099401 -0.03166630 0.06705823
v -0.00893324 -0.10497340 -0.11634033
v 0.09421595 0.03476943 0.02776498
v -0.00605700 -0.06785100 -0.15445100
v -0.01330629 -0.18168682 -0.02571237
v -0.00602368 -0.17935043 0.03714097
v 0.05472806 0.12325732 -0.08469945
v 0.04297638 0.11130314 -0.10354189
v -0.06392818 0.10944745 -0.04215930
v -0.03995266 0.16337161 -0.06101668
v -0.04236643 0.14897307 -0.06772508
v -0.04637351 0.15573441 -0.05042130
v 0.03996022 -0.29082115 -0.05418508
v 0.03092113 -0.27051693 -0.04606399
v 0.04011703 -0.28938473 -0.05490205
v 0.03703340 -0.26347628 -0.05824503
v 0.18996522 -0.27222848 0.05734648
v -0.00466000 -0.20194400 0.00648500
v -0.04613904 -0.02893808 -0.10525413
v 0.01117617 -0.04284137 -0.13494567
v 0.01262606 -0.03236474 -0.13559404
v 0.01822377 -0.07550351 -0.13357584
v 0.02594069 -0.06267800 -0.13470425
v -0.01443428 0.15867042 0.09119821
v 0.08438608 -0.07144784 0.11607126
v 0.09283763 -0.07329811 0.10849950
v 0.08434121 -0.04860906 0.11061227
v -0.03899597 0.25600083 -0.03098094
v -0.05430814 0.12616533 0.05823519
v 0.27061700 -0.30976100 -0.12170600
v 0.01150400 0.13447600 -0.11472200
v -0.00598600 0.17342600 -0.09556000
v 0.14864272 -0.32925333 0.07297246
v 0.15942176 -0.32987864 0.06481072
v 0.03958472 0.27033172 0.04413059
v 0.29640967 -0.33143211 -0.05380617
v -0.02483832 0.19150819 0.06417617
v -0.02455775 0.18257094 0.07101203
v -0.04672598 -0.07594091 -0.09872898
v -0.07650172 -0.03667220 -0.06467351
v -0.06037256 -0.07261519 0.07577287
v 0.03406580 -0.28822433 0.01786394
v 0.06196214 0.09838507 0.09570464
v 0.13714899 -0.32475231 0.03688547
v 0.11766808 -0.32215932 0.03708051
v 0.09778087 -0.19256622 0.09851551
v 0.12778833 -0.19552210 -0.06983207
v -0.04713375 0.17606139 -0.03050622
v 0.09201187 -0.31773488 0.03874073
v 0.10952317 -0.32189811 0.05846069
v 0.19370844 -0.32963232 -0.06638932
v 0.19638331 -0.32944814 -0.09039271
v 0.20596941 -0.32661430 -0.07733979
v 0.12530599 -0.12934626 -0.03977783
v 0.12567905 -0.12482616 -0.03570128
v -0.01379800 0.25713300 -0.05384200
v 0.31283986 -0.29542789 -0.08158955
v 0.13152847 -0.14982853 -0.02679497
v -0.02648939 -0.03949211 0.11702921
v -0.02612909 -0.04005642 0.11712604
v -0.04916512 -0.02933801 -0.10342886
v 0.06748100 -0.20632400 -0.10492100
v 0.10408654 -0.09659973 0.09436005
v -0.01177257 -0.05060149 -0.12760627
v 0.21673703 -0.27171412 0.04877756
v 0.13337185 -0.20776106 0.06011855
v 0.29824500 -0.30144200 -0.01817800
v 0.11309430 -0.26356077 -0.09451468
v -0.02934490 0.28985592 0.04778622
v -0.02744988 0.29047221 0.04769702
v -0.02979217 0.29101971 0.04742069
v 0.04903199 0.13791142 -0.09628467
v 0.02088300 -0.23616600 -0.01477500
v 0.13035483 -0.21002491 0.06330362
v -0.06077076 -0.09569741 0.03144859
v -0.06220051 -0.09297088 0.02926860
v 0.12547482 -0.27673708 -0.09662703
v 0.14795421 -0.32277272 -0.04740410
v -0.02158446 -0.05870468 -0.12362896
v -0.02579876 -0.09126020 -0.10766938
v -0.04394984 -0.12584076 0.03809287
v 0.01733574 -0.13227169 -0.11497693
v -0.06329391 -0.06499743 0.07377283
v 0.00844100 0.27303600 0.00600500
v 0.18571054 -0.21782734 -0.03423188
v 0.20659290 -0.24132225 -0.03983775
v 0.12755475 -0.05170412 -0.03550228
v 0.17532075 -0.20261249 -0.03004245
v 0.08301439 -0.08342738 0.11402745
v -0.07859175 0.04636325 -0.02829015
v 0.03752811 -0.00879253 -0.12735635
v 0.05008881 -0.01038730 -0.12072867
v 0.14907154 -0.32318532 -0.04691450
v 0.09572308 -0.19474084 0.09893920
v 0.16491976 -0.26803554 -0.07778515
v 0.16407346 -0.27378984 -0.09042130
v 0.03987791 0.11854927 -0.10975688
v 0.03285177 0.11960172 -0.11265354
v -0.05626003 -0.09465599 0.05589376
v 0.21774301 -0.33386190 -0.08339445
v 0.10949194 -0.11802800 0.08715412
v 0.00002000 0.20522100 -0.08234100
v -0.02767804 0.20002596 -0.05247907
v 0.10873334 -0.10580224 0.08403962
v 0.10083579 -0.31325553 0.10591947
v 0.07615085 -0.14242643 0.10650859
v 0.01288751 -0.12560711 0.11104107
v 0.13144332 -0.06283166 0.01907768
v 0.13421667 -0.05460959 0.01140391
v 0.13138813 -0.04989621 0.02286381
v 0.29699960 -0.30529204 -0.11960570
v 0.30663482 -0.31208338 -0.11729663
v 0.30605283 -0.31956480 -0.12688955
v 0.00193900 -0.08592000 -0.15596000
v -0.07035230 -0.02477366 -0.08353524
v -0.00600475 0.28525775 0.05059340
v -0.00988931 -0.18193581 0.02479352
v -0.01891696 -0.16663529 0.03023375
v 0.23762500 -0.33599727 0.06141259
v -0.03594561 0.13580007 -0.08363067
v -0.29507700 0.32363000 0.03362000
v -0.31004400 0.32917800 0.03579800
v -0.03328824 -0.08454952 0.10321654
v -0.05631677 -0.09455376 0.05579635
v 0.08468005 -0.05031222 -0.10886356
v 0.08371905 -0.04799875 -0.10959099
v 0.05294254 -0.05146504 -0.12932265
v 0.07338475 -0.04738849 -0.11578592
v 0.07327306 -0.11561346 -0.11219734
v 0.06276750 -0.11031287 -0.11777757
v 0.08289577 -0.10273955 -0.11049397
v 0.13826820 -0.16455440 -0.02197479
v 0.08351151 -0.05228980 -0.11056586
v 0.08154364 -0.04945442 -0.11140689
v 0.05582664 -0.13382118 -0.11686435
v 0.11915075 -0.09331522 -0.05507714
v 0.12902560 -0.05154944 -0.03077980
v -0.02678429 -0.03832564 0.11709364
v -0.03245799 -0.00606593 0.11639218
v 0.21415997 -0.33490586 0.07969934
v -0.05842671 0.02648185 0.09192314
v -0.05450593 0.01725200 0.09838173
v 0.12654108 -0.12647643 -0.03249445
v 0.10322222 -0.11478316 -0.09298845
v 0.10021914 -0.13613659 -0.09396621
v 0.10946420 -0.11690056 -0.08471834
v 0.10685900 -0.02327000 -0.04630900
v 0.04307318 -0.09818526 0.12791501
v -0.07350010 0.04030823 0.05248127
v -0.07288804 0.04320705 0.05349773
v 0.03709149 0.10687624 -0.11429338
v 0.24192708 -0.33252636 -0.05012526
v 0.23719778 -0.33539504 -0.07072324
v 0.08089192 -0.04315246 -0.11031979
v -0.07412369 0.03622879 0.05095711
v -0.07541670 0.04678334 0.03784509
v 0.04193500 -0.29322900 -0.12351300
v 0.03969300 -0.30237400 -0.12351400
v 0.11797568 -0.12089405 0.07079015
v 0.16857764 -0.32656493 0.04462270
v 0.11988551 -0.13971460 -0.06675205
v 0.11484037 -0.15179122 -0.08334077
v 0.03675141 -0.15485461 0.09999793
v 0.21375493 -0.28223128 0.06230370
v 0.31897181 -0.32219114 -0.00358741
v 0.11614440 -0.03853055 -0.06125282
v 0.12703899 -0.04908379 -0.03622122
v 0.13389145 -0.15555596 0.01001017
v 0.13296482 -0.15218772 0.00450566
v 0.05463551 -0.02089043 0.12523825
v -0.03394748 0.25095636 -0.03527783
v -0.01986340 0.23618869 -0.04629761
v -0.02725866 0.23611782 -0.03617479
v 0.09839541 0.02971215 0.02538795
v 0.04662485 -0.26240871 -0.06987463
v -0.03742780 0.23635935 -0.02168583
v -0.03596708 0.25964778 -0.03159919
v 0.21527711 -0.25175613 -0.05172287
v 0.03155134 -0.28819938 0.00832325
v -0.04452786 0.18398603 -0.02935124
v 0.07074275 -0.02066271 -0.11124819
v -0.05883707 0.03110804 -0.09147352
v -0.05854356 0.01061841 -0.09547876
v 0.17919933 -0.32955646 0.06427663
v 0.20444373 -0.33323606 0.06440405
v 0.18960262 -0.33128443 0.05180250
v 0.10560302 -0.10153544 -0.08761735
v 0.10257968 -0.07886082 -0.09184336
v -0.05340086 0.00494303 0.09898716
v -0.05259106 -0.02177679 0.10025891
v 0.04952500 -0.28777800 -0.12382600
v 0.09192904 -0.16882376 0.09512045
v 0.19700351 -0.24412359 -0.05498013
v 0.19336600 -0.24673400 -0.04112800
v 0.09876195 -0.32170784 0.09496958
v 0.10450153 -0.32175072 0.07442639
v 0.01834700 -0.02352376 -0.13318976
v -0.01000280 -0.18727518 0.01104422
v 0.19308360 -0.24619794 -0.06212410
v 0.19437745 -0.24574024 -0.06112283
v 0.19351510 -0.25184497 0.04037644
v 0.16088681 -0.23347857 0.03110420
v 0.16336207 -0.23917492 0.03530957
v 0.30890275 -0.29575389 -0.08706666
v 0.02454706 -0.09772544 0.12677154
v 0.03410336 -0.10474009 -0.13182506
v -0.07051942 0.04108350 0.06001098
v 0.05150600 -0.30629700 0.11276200
v 0.21364478 -0.28782673 -0.10470274
v 0.22646757 -0.28649116 -0.09803840
v 0.16919622 -0.28263771 -0.10266700
v 0.18836049 -0.26902123 -0.08296411
v 0.16591285 -0.32829591 -0.09065618
v 0.30781386 -0.29613181 -0.03833657
v -0.07877337 0.05625744 -0.00623937
v -0.03232873 -0.09929456 -0.10101419
v -0.04662159 -0.10831260 -0.08628711
v 0.21256207 -0.32967613 -0.04465665
v 0.18769191 -0.32845130 -0.04207962
v -0.02195977 -0.05821422 -0.12341975
v 0.25698775 -0.29558522 0.08138875
v 0.23749305 -0.29145938 0.07861107
v 0.13162087 -0.14963916 0.01055936
v 0.13235614 -0.14070389 0.01623088
v 0.13192561 -0.14620001 0.02307412
v 0.20193030 -0.23764583 -0.03811650
v 0.10374306 -0.16145555 -0.09218405
v 0.12539500 -0.15937300 -0.01773700
v 0.12810000 -0.15817700 -0.01300700
v 0.10143343 -0.05688856 -0.08959890
v 0.25774354 -0.29736948 -0.11667306
v 0.22347739 -0.33133947 0.01126662
v 0.21068914 -0.33132481 0.02622368
v -0.03270592 0.12413888 -0.09318568
v -0.02150810 -0.15391855 0.04889438
v 0.21528337 -0.26102802 -0.06067634
v 0.22962136 -0.27793198 0.05545908
v -0.03429539 0.24397313 0.03915338
v 0.12841981 -0.05929008 0.03218666
v 0.29556438 -0.32976996 -0.11311657
v -0.06163761 0.00660010 0.09212461
v 0.11986671 -0.32419159 0.06742467
v -0.07938164 0.03953531 -0.02606924
v -0.08210708 0.01251663 -0.01753538
v -0.08168790 0.01196814 -0.02553801
v 0.19397210 -0.33149727 0.07692806
v -0.07101308 -0.04474716 -0.07602317
v 0.09355082 -0.18544657 -0.10830800
v -0.02679136 -0.03967083 0.11692185
v 0.01624405 -0.13620921 -0.11074521
v 0.00215035 -0.11729064 -0.11774122
v 0.02386100 -0.23621900 -0.02587900
v -0.00544093 0.06395107 0.13317005
v 0.12047856 -0.16646536 0.07948022
v 0.08670591 -0.15727024 0.09900561
v 0.14883593 -0.32291730 -0.04893550
v -0.02133372 -0.05822489 -0.12392547
v 0.31048080 -0.29387507 -0.06185673
v 0.06665671 -0.03831409 0.12274963
v 0.06788042 -0.04651424 0.12265152
v 0.07717685 -0.03839196 0.11406785
v 0.03618462 0.14834724 -0.09759993
v 0.05700109 0.15423355 -0.08309681
v 0.03410533 -0.10473975 -0.13182534
v 0.05870981 -0.09262495 -0.12415577
v -0.06193539 0.01481597 0.09013931
v -0.05204997 -0.03207681 -0.09891561
v 0.14638179 -0.32315137 -0.04767351
v 0.18988782 -0.23119052 0.01780691
v 0.19468261 -0.23450118 0.02026999
v 0.19269011 -0.24731615 -0.06309157
v 0.02841996 0.27663518 -0.03895856
v 0.05886642 -0.15201612 -0.11108011
v 0.02991761 -0.28278950 0.00998407
v 0.13682743 -0.16042878 -0.01377655
v 0.17213133 -0.27985522 0.06483283
v 0.31886763 -0.32298298 -0.00734683
v 0.10562354 -0.31976923 0.06597427
v 0.23665999 -0.33665335 0.06192252
v 0.13113641 -0.15620530 0.01641593
v -0.04810948 -0.09023718 0.08770850
v 0.00874062 -0.17536031 -0.07182802
v -0.05621044 -0.09452711 0.05609586
v 0.04995397 -0.29474220 0.08519201
v 0.00697357 -0.11283220 -0.12120212
v -0.01335165 -0.09866092 0.11208612
v 0.13513818 -0.26586708 -0.08398926
v 0.09280410 0.03176260 -0.03256282
v 0.08704918 0.04016662 -0.03173954
v 0.11231106 -0.15663782 -0.08768307
v 0.11099065 -0.16420377 -0.08992996
v 0.09460468 -0.14941402 -0.10246948
v -0.05032072 -0.09856523 0.07848113
v 0.16310127 -0.32804093 -0.08926835
v 0.13088148 -0.32322072 -0.07302980
v 0.16392527 -0.32819292 -0.09077917
v -0.04951756 0.11089401 -0.07770331
v -0.07742919 0.05389521 0.02213201
v -0.07806997 0.05021557 0.02039751
v -0.07450297 0.01909437 -0.06922974
v 0.31897362 -0.30424937 0.00688896
v 0.31916389 -0.31916753 -0.00659653
v -0.03139800 0.04496600 -0.12975200
v 0.13170221 -0.14972102 -0.02604263
v 0.07946091 -0.05250269 -0.11219317
v 0.01603047 -0.22385379 -0.02372848
v 0.06663000 0.23092200 0.00236700
v 0.16510822 -0.32807370 -0.08997685
v 0.18854113 -0.23126240 -0.04367826
v 0.18656200 -0.24624200 -0.04550200
v -0.03345679 0.00601026 0.11587035
v -0.07292856 -0.05735795 -0.06646476
v -0.06316283 0.10361965 0.04557321
v -0.06309410 0.11184327 0.03662155
v 0.17464976 -0.25671596 -0.06819866
v 0.24691035 -0.33656581 -0.07704464
v 0.11544237 -0.12662699 -0.07449332
v 0.00587560 0.29619223 0.03121848
v -0.01092293 0.30051912 0.03383170
v 0.12165447 -0.10531628 0.04837283
v 0.01211810 0.25442984 -0.05402708
v -0.02832091 -0.15550986 0.02122286
v 0.03410492 -0.10473956 -0.13182547
v 0.00554571 -0.09934285 -0.12611803
v 0.03295650 0.11281082 -0.11526144
v 0.02895310 0.11356998 -0.11555165
v 0.22027688 -0.33012462 -0.04328640
v 0.21725665 -0.32955541 -0.04232255
v 0.21712790 -0.32900347 -0.04501932
v 0.06946300 0.22668500 0.00215600
v 0.04902251 -0.05554856 0.13005655
v 0.05678910 -0.03226801 0.12628659
v 0.16498082 -0.32606262 -0.09117496
v 0.31617572 -0.29589826 0.00665992
v 0.30506128 -0.29046721 0.00340692
v 0.12632496 -0.27172166 -0.09228538
v 0.14222124 -0.32400385 0.03581335
v -0.02768673 0.29267042 0.04521517
v 0.06134586 0.16161476 0.08803308
v 0.05352650 -0.14745492 0.10518021
v 0.07986965 -0.09090223 -0.11490472
v 0.11878011 -0.09455147 -0.05648081
v 0.19038040 -0.24415837 -0.06084074
v 0.18862349 -0.24491081 -0.06174029
v 0.20078055 -0.25771777 0.04165794
v 0.10483660 -0.32094133 -0.06738898
v -0.05372840 -0.11571348 -0.02709380
v 0.21594385 -0.26847328 -0.07438534
v 0.29319047 -0.31250992 -0.12931857
v 0.00494499 -0.09038603 0.12303551
v 0.02604815 0.28068209 -0.03654809
v -0.00540860 0.27943919 -0.04081352
v 0.00911556 0.26355206 -0.04970540
v 0.21971509 -0.33071414 -0.04735272
v -0.07334055 0.03778468 0.05469867
v 0.20839303 -0.28694829 -0.10320082
v 0.07452672 0.06751100 -0.02333680
v 0.07561985 0.05741068 -0.04290841
v 0.02857654 -0.27984336 -0.02661215
v 0.02505699 -0.25910523 -0.03335181
v -0.00739654 -0.06417775 0.12335243
v 0.14526277 -0.22323153 0.04623341
v 0.09616949 -0.10560183 -0.09874650
v 0.12451369 -0.32219997 -0.06254415
v 0.14540557 -0.32328146 -0.05075691
v 0.02098019 -0.25510547 -0.02126486
v 0.08779123 -0.31660581 0.03139578
v 0.06145340 -0.25965551 0.06928488
v 0.12121760 -0.32209014 -0.07122169
v 0.05948324 -0.14048183 -0.11554800
v 0.11134835 -0.32058345 0.06645383
v 0.17373200 -0.24549700 -0.04383500
v 0.04418227 -0.28568413 -0.09718874
v 0.04159615 -0.27789675 -0.08295406
v 0.04643282 -0.28674279 -0.10407276
v 0.08326401 -0.29905352 -0.12102891
v 0.07770935 -0.07446904 -0.11892129
v 0.15672800 -0.24538200 0.02302200
v -0.00110506 0.29331647 -0.03142197
v -0.02414115 0.16921903 -0.07507381
v 0.02826099 -0.28158689 -0.02238760
v 0.11952816 -0.19236555 -0.07702024
v 0.19247726 -0.24350579 -0.05944569
v 0.24542683 -0.28034261 -0.07171874
v 0.21281365 -0.28110056 -0.09372504
v 0.05661932 -0.11473257 0.11906770
v 0.07905837 -0.06796892 0.11831738
v -0.05862674 0.13109360 0.03146497
v 0.12626016 -0.07383878 0.04100852
v 0.01273543 -0.03105982 0.13698367
v -0.02350833 -0.14207262 -0.07914912
v 0.05793470 -0.28944446 0.09507545
v 0.30675227 -0.32102410 -0.11752616
v 0.07300458 -0.08287794 0.11935511
v -0.06118412 0.02466328 -0.09086116
v -0.05342774 0.11031204 -0.07227040
v 0.21742373 -0.25127645 0.01487662
v 0.23850504 -0.28315488 -0.08998000
v -0.03095812 0.28943402 0.04824087
v 0.20930693 -0.33407301 -0.10067396
v 0.21441803 -0.33601578 -0.11844952
v 0.31865427 -0.32380571 0.08720749
v 0.24710006 -0.27689478 -0.06151100
v 0.24681135 -0.27589523 -0.05853497
v 0.05798115 -0.27542966 0.07846419
v 0.13075331 -0.08793751 0.02124746
v 0.12974504 -0.10378047 0.02235772
v -0.04128907 0.28088332 0.04988301
v -0.01233836 0.06149881 -0.13038311
v 0.07219524 -0.04942335 0.12083488
v -0.00064170 -0.04265411 0.13110967
v 0.16920428 -0.24083190 -0.05428227
v 0.00611601 0.29445003 -0.01152011
v -0.02581500 0.29588685 -0.02886663
v 0.05353101 -0.29903739 0.09677504
v -0.01258458 0.06113771 -0.13032878
v 0.24072250 -0.27588675 -0.06407453
v 0.02694123 -0.27681019 -0.02318339
v -0.04050204 -0.00099184 -0.11221924
v 0.09466058 -0.07530531 -0.10309240
v 0.03825886 -0.28964981 -0.04950626
v 0.05470345 -0.30659212 0.09378763
v 0.16280900 -0.24573400 0.02144900
v -0.01204794 0.21820113 0.06540441
v 0.09065544 -0.12827838 -0.10405248
v 0.09242580 -0.08715506 -0.10371462
v 0.09896268 -0.07191074 -0.09763874
v -0.02738431 -0.00090088 0.12090432
v -0.07764148 0.05393525 0.01799447
v 0.04020003 -0.29128611 -0.05411587
v 0.22993594 -0.33691018 0.08202055
v 0.06173691 -0.10336842 0.12033583
v 0.03045636 -0.28370787 -0.02450748
v 0.15626034 -0.26648915 -0.07845855
f 1 2 3
f 4 5 6
f 10 11 12
f 13 14 15
f 17 18 19
f 20 21 22
f 21 23 22
f 25 26 24
f 27 28 29
f 30 27 31
f 32 33 34
f 35 36 37
f 38 39 40
f 41 42 43
f 44 45 46
f 47 48 49
f 48 50 49
f 52 53 54
f 55 56 57
f 65 66 67
f 68 69 70
f 71 72 73
f 74 76 75
f 77 78 79
f 81 82 83
f 86 87 88
f 89 90 91
f 93 94 61
f 95 96 97
f 98 99 95
f 103 104 105
f 106 107 108
f 95 109 96
f 110 111 112
f 113 114 115
f 116 117 118
f 119 34 120
f 123 124 125
f 126 127 128
f 9 129 6
f 130 131 132
f 135 136 137
f 140 57 56
f 95 130 141
f 142 62 85
f 143 144 119
f 146 95 97
f 147 148 149
f 151 152 153
f 152 154 153
f 155 156 157
f 158 159 160
f 161 162 163
f 165 166 167
f 168 169 170
f 171 172 173
f 177 178 101
f 179 180 35
f 133 131 181
f 183 184 185
f 189 13 190
f 191 192 143
f 189 196 13
f 197 198 199
f 110 200 201
f 202 203 139
f 205 206 207
f 214 199 198
f 215 216 217
f 216 218 217
f 25 24 58
f 54 53 222
f 27 225 226
f 187 188 229
f 27 226 236
f 237 53 52
f 238 180 239
f 241 242 243
f 244 245 246
f 247 248 222
f 249 250 251
f 252 253 251
f 254 85 174
f 255 256 257
f 258 213 259
f 260 203 261
f 140 56 59
f 262 263 264
f 265 266 267
f 268 87 86
f 167 269 270
f 271 272 77
f 273 274 275
f 276 86 277
f 278 279 280
f 282 75 283
f 217 287 215
f 288 289 290
f 292 293 294
f 295 296 297
f 228 227 67
f 298 299 300
f 301 113 115
f 303 304 305
f 307 69 308
f 309 310 311
f 142 85 312
f 35 313 314
f 315 316 178
f 60 318 317
f 320 220 219
f 321 322 323
f 324 325 326
f 121 247 327
f 328 329 330
f 331 170 332
f 13 336 14
f 337 338 339
f 173 342 171
f 343 344 115
f 345 346 347
f 349 296 350
f 256 240 257
f 351 352 353
f 354 355 356
f 308 69 68
f 119 144 34
f 358 359 360
f 120 33 16
f 361 362 363
f 365 366 364
f 13 196 367
f 175 368 224
f 369 359 367
f 20 370 371
f 76 372 75
f 334 313 37
f 376 377 378
f 380 381 382
f 89 91 281
f 385 386 375
f 387 388 389
f 390 391 113
f 392 111 201
f 393 60 394
f 395 274 164
f 269 167 166
f 396 397 193
f 312 93 142
f 398 171 399
f 85 254 401
f 405 336 357
f 338 406 339
f 101 102 177
f 43 408 41
f 387 410 411
f 178 177 107
f 413 414 415
f 295 58 24
f 417 418 419
f 420 122 121
f 223 377 376
f 421 422 423
f 426 427 428
f 429 135 137
f 395 183 275
f 430 275 183
f 380 373 182
f 431 432 433
f 61 94 80
f 133 181 134
f 434 435 284
f 58 340 59
f 230 421 233
f 251 250 437
f 335 439 440
f 160 442 441
f 14 133 134
f 445 446 307
f 447 448 449
f 451 186 452
f 453 96 109
f 77 454 271
f 77 79 454
f 402 455 341
f 456 457 345
f 458 122 459
f 460 461 462
f 463 125 464
f 465 84 438
f 458 121 122
f 251 253 249
f 102 410 468
f 471 472 91
f 306 471 91
f 306 473 471
f 27 30 225
f 27 236 28
f 245 323 246
f 474 375 374
f 475 318 60
f 175 224 223
f 360 476 357
f 341 455 22
f 213 258 291
f 210 195 477
f 409 84 231
f 31 471 30
f 107 459 178
f 178 459 122
f 388 480 389
f 480 481 389
f 482 186 180
f 9 8 129
f 132 181 131
f 237 79 53
f 484 416 145
f 136 135 485
f 486 26 25
f 129 209 487
f 88 87 180
f 222 53 79
f 127 489 301
f 80 491 490
f 450 131 492
f 144 493 34
f 494 495 496
f 89 281 497
f 395 275 274
f 489 113 301
f 447 155 498
f 174 499 254
f 78 222 79
f 394 150 502
f 235 234 181
f 382 381 505
f 387 389 410
f 239 87 268
f 458 108 121
f 506 507 508
f 121 327 78
f 297 340 58
f 108 458 106
f 256 462 461
f 97 98 146
f 146 109 95
f 511 512 513
f 476 405 357
f 476 80 490
f 514 515 249
f 515 250 249
f 450 130 131
f 514 249 516
f 249 253 516
f 476 360 80
f 130 132 517
f 518 180 87
f 187 229 519
f 517 450 131
f 395 164 150
f 520 521 522
f 521 523 522
f 476 490 405
f 31 472 471
f 524 114 525
f 526 184 183
f 527 519 528
f 258 531 300
f 532 172 483
f 487 209 208
f 533 281 91
f 534 64 63
f 535 536 537
f 536 538 537
f 401 539 540
f 370 20 455
f 467 541 542
f 543 544 326
f 544 545 326
f 546 547 544
f 535 549 457
f 366 508 550
f 481 410 389
f 524 525 551
f 25 46 486
f 25 58 46
f 553 448 554
f 59 240 58
f 44 555 45
f 459 106 458
f 106 459 107
f 6 5 9
f 556 557 558
f 557 559 558
f 560 561 562
f 407 5 51
f 492 131 450
f 278 400 279
f 490 491 400
f 290 564 565
f 379 566 567
f 524 568 343
f 568 569 343
f 570 571 428
f 481 191 410
f 572 573 574
f 575 349 60
f 93 61 62
f 469 508 577
f 508 333 577
f 4 579 467
f 580 78 77
f 193 515 396
f 581 582 583
f 109 146 132
f 132 146 517
f 585 268 86
f 586 587 588
f 587 589 588
f 553 590 448
f 438 421 230
f 592 24 26
f 142 93 62
f 95 109 130
f 416 594 145
f 595 36 186
f 206 596 597
f 161 163 598
f 514 396 515
f 442 160 320
f 599 600 197
f 134 181 234
f 494 602 384
f 383 494 384
f 383 601 603
f 475 604 318
f 416 484 578
f 606 607 608
f 415 609 434
f 570 428 379
f 610 382 505
f 612 223 334
f 613 614 615
f 374 571 570
f 616 267 617
f 267 618 617
f 619 414 620
f 273 621 274
f 269 212 213
f 242 213 622
f 242 269 213
f 241 270 242
f 270 269 242
f 623 624 403
f 625 626 627
f 628 629 630
f 577 223 224
f 265 50 266
f 50 48 266
f 425 424 15
f 631 632 268
f 632 239 268
f 87 239 518
f 180 518 239
f 633 634 631
f 635 636 637
f 461 82 81
f 638 639 283
f 640 246 323
f 90 89 230
f 641 642 643
f 644 645 67
f 381 380 198
f 380 214 198
f 88 277 86
f 646 647 648
f 633 585 649
f 651 70 69
f 418 652 552
f 653 654 655
f 480 363 657
f 532 173 172
f 658 659 391
f 379 660 412
f 376 175 223
f 661 438 84
f 119 120 16
f 412 302 379
f 528 662 663
f 444 443 572
f 664 250 515
f 665 666 667
f 668 669 670
f 465 438 671
f 672 673 650
f 645 228 67
f 266 674 267
f 674 618 267
f 78 420 121
f 222 78 327
f 420 675 122
f 420 78 580
f 348 679 284
f 227 272 67
f 322 681 680
f 682 516 252
f 516 253 252
f 683 684 685
f 426 428 571
f 622 213 686
f 311 687 688
f 535 537 690
f 693 642 641
f 183 395 526
f 179 35 314
f 694 16 33
f 300 531 461
f 328 589 587
f 241 243 483
f 695 696 697
f 696 698 697
f 699 378 377
f 668 700 701
f 702 703 704
f 705 587 586
f 344 404 403
f 706 3 707
f 264 693 708
f 392 709 710
f 709 711 710
f 712 414 619
f 205 207 245
f 245 207 24
f 24 207 295
f 206 295 207
f 58 240 46
f 672 261 714
f 715 716 717
f 718 719 720
f 719 721 720
f 535 457 536
f 381 198 722
f 298 300 461
f 517 131 235
f 235 131 492
f 448 590 52
f 390 724 725
f 726 411 410
f 727 444 728
f 484 452 578
f 729 730 731
f 732 733 667
f 49 435 735
f 736 48 47
f 290 289 564
f 289 737 564
f 84 738 232
f 726 410 102
f 726 102 101
f 739 740 541
f 448 447 498
f 182 742 380
f 721 255 720
f 743 744 402
f 587 329 328
f 317 318 745
f 318 604 745
f 195 210 211
f 414 609 415
f 612 377 223
f 441 442 747
f 442 748 747
f 315 178 122
f 224 368 469
f 709 217 218
f 661 84 409
f 551 525 113
f 525 114 113
f 750 198 197
f 751 679 348
f 165 167 752
f 753 754 385
f 129 487 6
f 528 519 229
f 328 755 589
f 190 13 432
f 612 334 37
f 752 663 165
f 756 298 461
f 112 111 710
f 572 757 573
f 229 662 528
f 233 423 758
f 721 462 256
f 524 759 568
f 759 760 568
f 348 761 751
f 496 308 494
f 494 762 495
f 121 762 494
f 495 762 92
f 92 762 121
f 308 602 494
f 265 581 50
f 581 583 50
f 21 20 763
f 20 371 763
f 241 483 172
f 172 270 241
f 626 625 479
f 86 715 764
f 427 157 379
f 170 216 215
f 765 136 766
f 136 485 766
f 10 530 11
f 767 330 768
f 330 329 768
f 402 769 394
f 15 424 13
f 17 714 364
f 575 60 393
f 770 406 338
f 594 771 741
f 424 772 13
f 773 774 775
f 774 665 775
f 252 776 540
f 434 777 415
f 261 689 576
f 577 334 223
f 778 438 230
f 170 215 332
f 37 36 741
f 166 165 269
f 165 212 269
f 401 254 539
f 699 779 378
f 779 780 378
f 781 782 779
f 782 780 779
f 783 784 785
f 261 203 689
f 786 283 75
f 682 539 499
f 427 379 428
f 787 788 789
f 134 15 14
f 85 401 312
f 55 257 240
f 186 36 180
f 180 36 35
f 527 528 752
f 528 663 752
f 148 791 790
f 392 710 111
f 793 794 795
f 794 637 795
f 385 375 753
f 415 777 339
f 677 199 678
f 132 130 109
f 252 540 539
f 320 159 783
f 381 722 670
f 433 432 772
f 797 798 634
f 442 320 799
f 800 801 802
f 803 804 690
f 99 792 656
f 133 14 806
f 668 701 669
f 30 807 808
f 30 471 807
f 473 807 471
f 702 809 385
f 92 746 479
f 437 250 449
f 622 686 243
f 686 810 243
f 699 377 612
f 811 419 552
f 579 812 467
f 335 813 100
f 814 708 137
f 4 467 51
f 816 415 406
f 662 555 212
f 818 172 819
f 732 667 666
f 478 578 452
f 820 200 64
f 189 369 196
f 477 161 210
f 772 432 13
f 321 323 245
f 148 790 138
f 335 787 789
f 822 823 173
f 723 561 560
f 824 825 588
f 826 827 828
f 829 830 831
f 830 832 831
f 682 252 539
f 450 141 130
f 833 834 835
f 291 258 300
f 607 384 591
f 607 836 384
f 384 836 383
f 836 442 799
f 748 442 836
f 839 309 840
f 155 447 156
f 456 345 841
f 680 323 322
f 242 622 243
f 512 272 271
f 505 669 842
f 843 844 845
f 651 608 607
f 477 162 161
f 162 477 96
f 694 468 16
f 847 848 849
f 74 506 850
f 827 777 434
f 644 67 66
f 135 429 851
f 300 299 11
f 300 11 530
f 300 530 291
f 667 733 32
f 663 662 212
f 852 302 193
f 776 252 853
f 252 251 853
f 854 853 220
f 341 706 340
f 692 426 849
f 855 734 500
f 233 856 685
f 375 857 374
f 75 858 276
f 190 859 189
f 189 859 369
f 432 859 190
f 431 859 432
f 331 860 170
f 860 168 170
f 498 155 554
f 158 441 747
f 861 154 862
f 154 863 862
f 86 716 715
f 63 865 864
f 866 867 813
f 619 868 869
f 870 871 872
f 871 873 872
f 152 7 436
f 311 688 874
f 688 875 874
f 877 878 879
f 880 392 820
f 392 201 820
f 756 81 299
f 721 719 462
f 256 255 721
f 255 257 55
f 741 36 881
f 505 842 546
f 456 841 882
f 841 883 882
f 653 661 654
f 661 884 654
f 160 441 158
f 758 100 233
f 20 22 455
f 885 886 564
f 886 565 564
f 67 511 692
f 487 208 6
f 193 887 515
f 749 195 211
f 5 4 51
f 888 879 889
f 565 877 879
f 292 890 325
f 313 35 37
f 703 753 584
f 71 891 72
f 63 864 534
f 90 230 233
f 199 893 678
f 893 742 678
f 71 272 227
f 894 676 112
f 164 743 502
f 339 406 415
f 895 107 896
f 826 832 827
f 720 883 841
f 734 129 8
f 16 713 119
f 7 897 436
f 898 899 900
f 367 359 358
f 901 902 903
f 902 904 903
f 273 275 621
f 753 703 754
f 527 752 905
f 700 582 581
f 677 906 199
f 363 907 795
f 678 742 182
f 214 742 199
f 908 909 910
f 909 911 910
f 401 540 776
f 853 912 817
f 268 585 631
f 585 633 631
f 672 260 261
f 913 914 915
f 211 598 749
f 554 427 553
f 80 359 916
f 514 516 917
f 92 479 495
f 919 805 746
f 746 805 920
f 214 380 742
f 921 866 922
f 221 561 424
f 748 923 105
f 133 492 131
f 75 372 786
f 232 231 84
f 669 505 670
f 505 381 670
f 543 760 544
f 199 742 893
f 508 924 550
f 550 924 876
f 925 776 854
f 220 853 817
f 926 853 854
f 926 854 776
f 617 618 927
f 363 353 352
f 563 354 356
f 833 203 650
f 736 712 928
f 470 749 598
f 710 711 894
f 76 74 372
f 288 929 289
f 472 31 930
f 237 931 79
f 237 590 931
f 856 932 933
f 460 934 461
f 393 394 935
f 394 769 935
f 705 731 936
f 63 200 110
f 382 610 380
f 683 933 937
f 933 938 937
f 788 939 789
f 939 940 941
f 714 261 576
f 360 13 358
f 633 649 634
f 649 797 634
f 6 579 4
f 680 681 649
f 680 640 323
f 554 448 498
f 942 643 943
f 429 137 641
f 850 945 372
f 23 946 3
f 947 948 474
f 254 499 539
f 949 795 907
f 360 359 80
f 373 380 610
f 804 914 951
f 598 163 470
f 353 952 892
f 206 205 596
f 892 908 910
f 953 631 634
f 309 311 874
f 256 954 240
f 445 307 625
f 8 500 734
f 277 955 276
f 843 956 844
f 578 478 342
f 478 171 342
f 957 958 959
f 872 873 927
f 872 618 674
f 895 960 108
f 133 806 492
f 290 565 888
f 565 879 888
f 855 821 734
f 962 256 461
f 394 502 402
f 5 8 9
f 407 500 8
f 679 963 964
f 759 524 551
f 885 564 737
f 873 871 351
f 477 97 96
f 640 86 246
f 965 147 843
f 210 598 211
f 923 748 836
f 607 923 836
f 100 966 335
f 193 664 887
f 873 967 927
f 967 968 927
f 556 729 557
f 348 969 761
f 344 970 404
f 646 648 971
f 608 651 69
f 307 496 625
f 734 821 129
f 821 209 129
f 295 973 296
f 400 278 561
f 655 654 149
f 691 655 149
f 509 373 551
f 764 974 244
f 975 855 814
f 136 975 137
f 975 814 137
f 976 297 58
f 297 976 295
f 58 295 976
f 561 796 772
f 311 951 977
f 951 914 977
f 311 310 951
f 913 977 914
f 711 709 218
f 7 152 978
f 615 979 980
f 927 618 872
f 71 77 272
f 641 137 708
f 221 806 14
f 787 981 966
f 982 934 865
f 405 400 561
f 561 336 405
f 983 522 984
f 475 349 604
f 985 986 919
f 331 987 860
f 988 941 940
f 839 346 309
f 346 989 309
f 990 991 626
f 310 992 951
f 993 563 532
f 54 220 817
f 309 874 840
f 874 994 840
f 995 419 811
f 996 997 998
f 983 317 522
f 692 319 553
f 82 934 83
f 999 1000 1001
f 892 910 1002
f 847 849 857
f 849 571 857
f 998 407 51
f 548 601 219
f 1003 869 794
f 568 760 543
f 1004 158 104
f 162 503 504
f 1005 1006 199
f 491 279 400
f 1007 594 578
f 949 907 870
f 733 1008 805
f 26 188 592
f 1009 1010 99
f 802 1011 800
f 828 964 1012
f 5 407 8
f 383 836 799
f 461 934 82
f 574 1013 1014
f 1015 613 1016
f 945 365 372
f 1017 1018 1019
f 1020 59 340
f 868 619 153
f 619 620 153
f 1021 1022 1014
f 1014 1013 1021
f 128 1023 1017
f 98 792 99
f 227 891 71
f 1024 429 641
f 943 693 264
f 693 641 708
f 611 725 744
f 814 855 1025
f 374 1027 1026
f 781 779 1007
f 1028 578 342
f 1029 1030 852
f 1030 566 852
f 764 715 974
f 715 717 974
f 943 642 693
f 643 642 943
f 264 1031 943
f 126 1032 1033
f 1032 1034 1033
f 862 863 436
f 935 341 340
f 485 135 851
f 510 509 551
f 685 856 683
f 856 933 683
f 952 908 892
f 818 819 167
f 811 1036 584
f 507 118 508
f 1037 123 1038
f 826 828 646
f 1012 647 828
f 647 646 828
f 964 284 679
f 284 964 828
f 284 828 434
f 828 827 434
f 468 1039 102
f 575 297 349
f 26 486 188
f 132 131 130
f 436 863 152
f 847 386 848
f 386 809 848
f 386 385 809
f 453 162 96
f 212 962 213
f 173 921 822
f 857 571 374
f 676 225 112
f 469 1040 1041
f 1041 876 469
f 295 206 973
f 196 369 367
f 171 819 172
f 1022 1016 1042
f 1043 1037 1044
f 345 549 1047
f 549 992 1047
f 440 1048 813
f 1049 763 1050
f 763 371 1050
f 178 727 101
f 219 799 320
f 1051 418 880
f 418 417 880
f 256 962 954
f 1052 953 398
f 953 905 398
f 514 917 396
f 97 477 98
f 157 427 554
f 206 597 973
f 830 339 827
f 339 777 827
f 894 112 710
f 563 408 43
f 191 713 16
f 676 226 225
f 277 88 955
f 1053 313 334
f 1054 1055 765
f 1055 975 765
f 302 852 566
f 735 435 434
f 70 607 591
f 140 1057 1056
f 67 1058 65
f 848 1058 67
f 692 849 848
f 848 67 692
f 567 566 1030
f 583 582 284
f 333 334 577
f 279 491 280
f 363 362 353
f 1059 1060 1061
f 792 98 146
f 579 6 1062
f 1018 1017 623
f 1017 1023 623
f 328 991 755
f 593 897 7
f 556 897 593
f 429 1024 851
f 815 593 7
f 430 183 1063
f 1064 80 916
f 705 898 731
f 898 900 731
f 593 729 556
f 34 33 120
f 1059 1065 369
f 850 372 74
f 1066 717 716
f 1067 466 281
f 768 329 1068
f 329 587 1068
f 613 1069 1016
f 1069 1042 1016
f 647 1012 987
f 1070 635 1071
f 131 181 132
f 1072 922 1048
f 782 1073 1074
f 485 1075 1076
f 1007 612 594
f 862 774 773
f 647 929 648
f 755 991 990
f 330 767 1061
f 619 869 712
f 869 928 712
f 1027 1077 1078
f 460 462 864
f 462 1080 864
f 682 917 516
f 775 636 635
f 23 3 706
f 573 757 574
f 198 750 722
f 803 690 537
f 290 971 288
f 1081 1082 717
f 1083 356 1084
f 544 547 545
f 366 506 508
f 615 1085 979
f 1086 199 906
f 556 558 897
f 1087 1088 521
f 945 850 366
f 699 1007 779
f 527 1089 519
f 1085 362 361
f 1090 1091 486
f 346 1047 989
f 1047 992 989
f 293 967 892
f 1092 372 365
f 952 362 909
f 811 1093 995
f 625 496 495
f 23 341 22
f 970 1094 404
f 842 547 546
f 842 669 547
f 193 1095 852
f 1029 852 1095
f 1097 1098 689
f 984 522 1099
f 522 1100 1099
f 1057 262 264
f 139 1101 691
f 705 586 898
f 586 588 898
f 116 1102 955
f 192 657 636
f 105 606 103
f 978 1103 7
f 248 601 548
f 1104 325 1105
f 325 324 1105
f 789 1106 1107
f 351 1108 873
f 1109 482 1110
f 238 482 180
f 335 440 813
f 328 330 991
f 453 503 162
f 1111 1112 1113
f 1114 596 245
f 14 561 221
f 14 336 561
f 481 657 192
f 684 306 91
f 351 967 1108
f 616 581 265
f 926 776 853
f 871 870 907
f 1115 724 489
f 1 1116 1117
f 552 419 418
f 513 271 319
f 513 692 511
f 513 319 692
f 785 854 220
f 434 609 735
f 510 904 509
f 55 240 56
f 57 1056 55
f 140 59 262
f 1109 452 186
f 614 911 909
f 876 924 469
f 469 924 508
f 574 757 1118
f 849 426 571
f 841 345 720
f 345 718 720
f 1015 698 696
f 727 726 101
f 1043 1044 285
f 71 73 77
f 676 1005 906
f 781 1073 782
f 1041 988 834
f 593 815 194
f 565 886 1078
f 918 1119 283
f 376 378 1120
f 378 1121 1120
f 732 1122 733
f 169 168 1123
f 168 600 1123
f 1066 1124 1088
f 1124 521 1088
f 1110 482 1125
f 154 152 863
f 911 696 910
f 724 390 113
f 216 170 218
f 170 169 218
f 1126 94 158
f 1127 467 538
f 599 1006 1123
f 1123 600 599
f 1014 1022 1042
f 572 1042 1069
f 672 1128 673
f 1077 1129 1078
f 1129 877 1078
f 565 1078 877
f 506 366 850
f 100 932 856
f 172 818 270
f 167 270 818
f 921 173 532
f 1130 921 532
f 1127 998 467
f 574 1014 1042
f 1131 151 1132
f 151 1133 1132
f 1028 342 1134
f 309 989 992
f 489 724 113
f 908 952 909
f 869 1003 928
f 1003 1135 928
f 724 1136 725
f 947 1026 1137
f 970 1138 1139
f 1138 326 1139
f 1089 798 187
f 690 804 992
f 804 951 992
f 480 361 363
f 1141 379 156
f 1002 294 892
f 886 1137 1026
f 1142 462 719
f 840 994 1143
f 1144 787 966
f 981 787 335
f 709 417 217
f 417 287 217
f 1074 1073 1072
f 1073 1134 1072
f 1083 563 356
f 1145 351 353
f 505 544 610
f 544 760 610
f 505 546 544
f 607 70 651
f 507 506 1102
f 506 1146 1102
f 1109 1110 452
f 233 421 423
f 616 265 267
f 1147 1148 1149
f 871 907 351
f 907 352 351
f 1037 124 123
f 245 596 205
f 616 701 581
f 701 700 581
f 960 1150 1151
f 731 730 174
f 232 738 1046
f 1018 1152 1153
f 722 750 670
f 998 51 467
f 365 945 366
f 1032 1075 1034
f 40 39 38
f 32 733 33
f 302 566 379
f 756 461 81
f 292 968 293
f 968 967 293
f 485 1076 766
f 468 191 16
f 468 410 191
f 395 956 526
f 956 843 526
f 344 403 115
f 139 940 1101
f 150 956 395
f 512 511 67
f 1114 245 244
f 909 362 1085
f 1085 615 909
f 615 614 909
f 353 362 952
f 364 366 550
f 998 997 407
f 982 865 63
f 944 1059 369
f 757 572 1035
f 136 765 975
f 808 11 110
f 1029 1154 1030
f 1155 1135 793
f 1135 1003 793
f 1126 80 94
f 966 981 335
f 758 1156 100
f 100 1156 966
f 930 91 472
f 393 935 340
f 340 297 393
f 876 673 550
f 870 872 1155
f 872 674 1155
f 169 1123 218
f 526 147 184
f 903 904 1063
f 1157 188 187
f 1157 592 188
f 1158 187 322
f 592 1158 321
f 321 1158 322
f 245 24 592
f 321 245 592
f 1157 1158 592
f 187 1158 1157
f 861 862 773
f 1159 1087 521
f 816 1043 285
f 612 771 594
f 554 155 157
f 1160 446 445
f 202 139 286
f 1161 301 115
f 757 765 766
f 343 569 344
f 569 568 543
f 899 588 1008
f 588 825 1008
f 1006 1005 894
f 29 1162 27
f 1163 1 1117
f 1164 819 171
f 707 3 2
f 23 706 341
f 116 1165 117
f 937 938 1166
f 578 1167 1007
f 1056 1111 1168
f 929 1169 289
f 1169 737 289
f 610 1170 373
f 666 862 436
f 574 1042 572
f 572 1069 411
f 411 980 387
f 411 1069 980
f 615 980 613
f 980 1069 613
f 647 987 1171
f 736 928 1135
f 794 869 868
f 356 1172 306
f 1173 1094 970
f 296 597 350
f 294 293 892
f 789 939 1106
f 1155 949 870
f 920 805 824
f 629 782 1074
f 403 624 115
f 974 1082 244
f 194 123 193
f 520 1159 521
f 343 115 114
f 343 114 524
f 1054 1035 1055
f 781 1007 1167
f 628 630 440
f 764 246 86
f 110 299 63
f 98 477 792
f 287 995 801
f 995 1174 801
f 1113 720 255
f 1114 244 1082
f 98 792 146
f 322 798 681
f 797 649 798
f 649 681 798
f 138 286 139
f 533 91 930
f 816 285 415
f 1175 60 317
f 186 482 1109
f 1110 478 452
f 612 1007 699
f 238 239 632
f 72 1176 1177
f 906 677 605
f 85 936 731
f 731 174 85
f 593 730 729
f 730 593 174
f 731 900 729
f 900 899 729
f 899 557 729
f 260 672 650
f 234 235 492
f 668 670 700
f 864 865 934
f 351 1145 967
f 892 1145 353
f 892 967 1145
f 1178 370 1179
f 370 455 1179
f 1179 455 402
f 126 1178 1180
f 1178 1179 1180
f 127 1180 1115
f 1180 1179 1115
f 127 126 1180
f 840 1143 1142
f 1169 1171 1181
f 1171 987 1181
f 1182 1183 1184
f 1183 655 1184
f 315 675 77
f 559 1008 1185
f 1008 1122 1185
f 388 1085 480
f 1085 361 480
f 390 725 391
f 744 725 402
f 402 725 1136
f 391 725 611
f 1186 1187 1044
f 684 937 306
f 774 862 666
f 614 1015 911
f 1015 696 911
f 388 387 979
f 153 154 1188
f 314 313 1189
f 313 1053 1189
f 1053 1190 1189
f 280 1004 958
f 718 345 347
f 3 946 1192
f 1016 1193 1015
f 1193 698 1015
f 187 519 1089
f 1140 1194 373
f 68 70 1195
f 605 677 678
f 1090 486 46
f 500 1025 855
f 810 686 41
f 923 606 105
f 465 738 84
f 449 302 412
f 1182 1184 1196
f 535 690 549
f 690 992 549
f 1197 1198 350
f 460 864 934
f 1199 570 379
f 266 1200 674
f 595 881 36
f 595 186 451
f 1049 942 763
f 555 1091 1090
f 396 917 1201
f 917 1202 1201
f 967 873 1108
f 659 621 950
f 551 113 950
f 495 479 625
f 417 419 287
f 1203 520 522
f 398 399 1052
f 1188 868 153
f 1041 1204 876
f 1205 1050 1033
f 582 348 284
f 103 1206 104
f 1206 1004 104
f 1207 1004 1206
f 536 457 1208
f 29 1067 1162
f 1051 64 652
f 606 923 607
f 627 1209 445
f 494 603 248
f 199 1006 1210
f 833 650 834
f 1139 326 890
f 326 325 890
f 932 938 933
f 840 1142 839
f 1142 719 839
f 890 292 1212
f 292 294 1212
f 1006 894 1123
f 894 711 1123
f 56 240 59
f 706 707 340
f 408 810 41
f 117 333 508
f 709 880 417
f 984 790 791
f 110 11 299
f 726 728 411
f 310 309 992
f 342 173 823
f 522 523 1100
f 426 692 427
f 64 200 63
f 993 408 563
f 1083 532 563
f 628 335 176
f 884 149 654
f 330 1061 991
f 1061 1060 991
f 404 1094 529
f 533 1067 281
f 1067 29 488
f 1067 488 466
f 798 322 187
f 193 123 1095
f 561 723 796
f 33 1214 1213
f 2 1020 340
f 248 121 494
f 1215 1216 1217
f 732 666 1185
f 1219 1148 1220
f 666 665 774
f 665 667 1191
f 708 1025 500
f 616 617 1105
f 880 820 1051
f 1071 637 794
f 490 400 405
f 302 664 193
f 647 1171 929
f 1171 1169 929
f 1196 1221 1101
f 38 741 39
f 1030 1129 1077
f 1129 1030 1154
f 1222 314 1189
f 1189 1190 116
f 1223 1222 1189
f 1008 825 805
f 1046 738 1045
f 925 312 776
f 312 401 776
f 345 457 549
f 1173 970 1139
f 364 1000 365
f 763 942 21
f 1224 791 965
f 21 942 946
f 23 21 946
f 263 1031 264
f 262 1117 263
f 1116 263 1117
f 1022 1021 1193
f 1225 100 813
f 399 171 478
f 530 686 291
f 823 1134 342
f 958 1226 959
f 526 843 147
f 1117 262 1163
f 43 42 354
f 411 728 444
f 1220 848 1219
f 848 809 1219
f 830 829 339
f 898 588 899
f 575 393 297
f 1049 1205 942
f 1205 643 942
f 1227 219 54
f 1228 875 652
f 507 1102 118
f 108 92 121
f 1018 1153 1019
f 1153 1229 1019
f 533 930 1067
f 2 1 1020
f 1205 1034 1230
f 451 452 484
f 894 1005 676
f 175 1216 1215
f 209 1035 208
f 469 368 1040
f 1149 66 65
f 691 148 138
f 806 425 234
f 221 425 806
f 1231 520 1232
f 221 424 425
f 884 409 149
f 409 884 661
f 1233 798 1089
f 1154 463 1129
f 421 438 422
f 1234 422 661
f 422 1234 423
f 1234 758 423
f 661 422 438
f 197 1235 750
f 700 670 1235
f 670 750 1235
f 658 611 743
f 307 1160 69
f 112 30 110
f 512 67 272
f 768 85 62
f 1166 356 306
f 1236 523 1124
f 999 1237 918
f 1049 1050 1205
f 820 64 1051
f 248 548 222
f 833 835 203
f 1083 1084 532
f 660 449 412
f 447 449 660
f 997 500 407
f 996 998 1127
f 702 1219 809
f 373 1194 182
f 1140 373 509
f 182 1194 605
f 605 678 182
f 961 1194 1140
f 605 1194 961
f 605 961 846
f 961 236 846
f 634 798 1233
f 1233 905 634
f 905 953 634
f 905 1233 527
f 1233 1089 527
f 1070 773 635
f 773 775 635
f 510 551 621
f 1238 1093 584
f 1239 1160 1240
f 1160 1241 1240
f 236 226 846
f 846 226 605
f 112 225 30
f 751 761 963
f 331 332 987
f 332 1181 987
f 817 912 437
f 910 696 695
f 1092 283 372
f 583 284 50
f 781 1167 1073
f 1167 1028 1073
f 845 965 843
f 675 420 580
f 168 969 600
f 764 244 246
f 683 937 684
f 424 561 772
f 291 686 213
f 247 121 248
f 1091 188 486
f 1169 800 737
f 800 1011 737
f 822 921 922
f 1241 1209 944
f 736 1200 48
f 1040 1215 1041
f 1215 1242 1041
f 271 454 319
f 1218 602 68
f 1037 1243 124
f 1086 906 1005
f 286 1244 1097
f 1245 73 72
f 1245 1246 178
f 1246 727 178
f 316 73 178
f 808 110 30
f 902 1247 1248
f 1003 794 793
f 795 949 793
f 1135 1155 674
f 793 949 1155
f 375 1249 753
f 767 62 61
f 941 1217 939
f 1217 1106 939
f 988 1041 1242
f 1217 1216 1106
f 304 303 1238
f 303 1174 1238
f 332 215 800
f 215 801 800
f 801 215 287
f 504 99 162
f 364 672 18
f 1041 834 1204
f 180 1223 88
f 39 741 204
f 679 751 963
f 861 1188 154
f 445 625 627
f 601 799 219
f 1151 92 108
f 445 1209 1160
f 201 111 110
f 1213 1214 919
f 737 1011 305
f 1011 303 305
f 801 1174 802
f 44 212 555
f 212 1250 962
f 273 621 275
f 148 691 149
f 273 510 621
f 1075 1032 1251
f 238 632 482
f 632 1125 482
f 273 275 510
f 122 675 315
f 758 1252 1156
f 1252 1253 1156
f 1184 1221 1196
f 352 907 363
f 770 338 337
f 963 761 987
f 761 860 987
f 151 153 1133
f 456 1208 457
f 837 1010 838
f 349 297 296
f 130 517 131
f 235 131 517
f 1227 548 219
f 45 555 1090
f 138 1221 691
f 1106 1216 176
f 1156 1253 966
f 55 1168 255
f 38 39 145
f 360 336 13
f 1254 29 28
f 1248 1254 1140
f 1254 28 236
f 1254 961 1140
f 1254 236 961
f 789 1107 335
f 1079 231 232
f 37 771 612
f 116 1190 1165
f 1220 1148 1147
f 437 449 52
f 314 1223 179
f 838 1010 1009
f 950 621 551
f 1197 350 597
f 775 1191 636
f 775 665 1191
f 176 1216 175
f 506 74 1146
f 754 702 385
f 1149 65 1147
f 65 1058 1147
f 1016 1022 1193
f 1091 229 188
f 1147 1058 1220
f 1058 848 1220
f 231 185 409
f 590 237 52
f 814 1025 708
f 623 1023 624
f 1115 489 127
f 32 493 1191
f 695 1002 910
f 85 768 1068
f 982 83 934
f 1024 1230 851
f 886 885 1137
f 824 805 825
f 1183 1253 1252
f 812 227 228
f 228 467 812
f 104 158 747
f 333 1165 334
f 1037 1038 1044
f 685 1255 233
f 131 235 181
f 243 810 408
f 1057 140 262
f 306 937 1166
f 736 1135 1200
f 807 1256 808
f 653 655 1257
f 655 1183 1257
f 147 965 148
f 579 1062 812
f 758 1234 1252
f 1257 1183 1252
f 987 1012 963
f 1012 964 963
f 59 1163 262
f 860 761 969
f 127 1258 128
f 1258 1023 128
f 127 301 1258
f 1243 1037 1043
f 175 1215 368
f 1040 368 1215
f 280 958 957
f 1223 1189 116
f 271 513 512
f 803 537 740
f 436 897 558
f 126 1033 1178
f 1033 1050 1178
f 827 832 830
f 332 800 1181
f 968 292 1104
f 1092 999 283
f 90 233 91
f 1207 1206 431
f 1130 1259 866
f 1259 867 866
f 1130 866 921
f 350 1198 1260
f 765 757 1054
f 689 1119 918
f 529 1002 695
f 802 1174 303
f 667 32 1191
f 1035 1054 757
f 826 889 832
f 889 831 832
f 930 31 1162
f 31 27 1162
f 387 980 979
f 995 1093 1238
f 1212 1094 1173
f 529 1212 1002
f 1261 465 1262
f 658 391 611
f 955 1102 276
f 41 686 12
f 12 686 530
f 1169 1181 800
f 919 1214 33
f 1064 767 61
f 1064 916 1061
f 916 1059 1061
f 508 118 117
f 962 461 259
f 962 259 213
f 692 553 427
f 465 1261 1263
f 1004 280 158
f 1126 491 80
f 1264 184 149
f 901 903 671
f 700 1235 582
f 754 703 702
f 383 603 494
f 965 791 148
f 844 956 150
f 1121 780 782
f 1021 1265 1193
f 1265 698 1193
f 716 1124 1066
f 397 396 1201
f 193 1201 194
f 1202 593 194
f 941 988 1217
f 988 1242 1217
f 75 282 858
f 1206 103 972
f 1266 555 662
f 748 105 747
f 105 104 747
f 1240 1267 1239
f 563 43 354
f 1096 355 42
f 829 337 339
f 1243 1043 125
f 1114 1082 1197
f 596 1114 597
f 1114 1197 597
f 1197 1082 1198
f 1162 1067 930
f 990 1268 755
f 824 588 1268
f 589 755 588
f 755 1268 588
f 824 1268 920
f 920 1268 990
f 1038 123 194
f 1269 466 488
f 959 1226 796
f 529 1094 1212
f 44 1250 212
f 1217 1242 1215
f 285 1187 1186
f 1018 623 1152
f 659 950 391
f 260 650 203
f 341 935 1270
f 344 569 1138
f 543 326 569
f 326 1138 569
f 784 925 785
f 925 854 785
f 753 1238 584
f 753 1249 304
f 1066 1088 717
f 1088 1081 717
f 1087 1271 1088
f 283 1272 282
f 1115 1179 724
f 1179 1136 724
f 1136 1179 402
f 348 1235 197
f 1080 462 1143
f 462 1142 1143
f 551 1170 759
f 1100 523 1244
f 523 1273 1244
f 1274 1036 552
f 689 918 576
f 354 42 355
f 704 1275 1219
f 1275 1148 1219
f 1149 644 66
f 905 752 398
f 752 1164 398
f 702 704 1219
f 285 978 1131
f 1079 1263 183
f 917 1276 1202
f 1218 68 1195
f 794 868 1071
f 868 1188 1071
f 741 771 37
f 3 1192 1116
f 954 962 44
f 962 1250 44
f 954 44 240
f 44 46 240
f 629 628 782
f 628 1121 782
f 231 1079 185
f 185 184 409
f 292 325 1104
f 968 1104 927
f 616 1105 701
f 1105 617 1104
f 617 927 1104
f 1097 1273 1098
f 1210 1006 599
f 248 603 601
f 919 986 1213
f 1199 567 1030
f 1269 281 466
f 623 403 1152
f 697 698 1152
f 698 1153 1152
f 1096 42 501
f 60 844 150
f 151 1131 978
f 451 484 204
f 948 885 1249
f 885 305 1249
f 885 737 305
f 536 1208 538
f 1208 1277 538
f 478 1110 399
f 815 1186 194
f 1122 1008 733
f 278 562 561
f 770 337 464
f 1176 444 1177
f 1064 1061 767
f 375 386 1278
f 1092 365 999
f 365 1000 999
f 669 1279 547
f 547 1279 545
f 1105 324 1279
f 324 545 1279
f 1279 669 1105
f 669 701 1105
f 41 1280 42
f 492 806 234
f 753 304 1238
f 584 1093 811
f 419 995 287
f 1000 1281 1001
f 350 604 349
f 610 760 1170
f 373 1170 551
f 704 703 1282
f 703 1036 1282
f 584 1036 703
f 52 54 437
f 759 1170 760
f 1172 473 306
f 1144 1253 1196
f 1253 1182 1196
f 1283 773 1071
f 773 1070 1071
f 1283 1071 1188
f 559 1284 558
f 826 646 889
f 646 888 889
f 1121 378 780
f 640 680 1285
f 597 296 973
f 919 733 805
f 335 1107 176
f 582 1235 348
f 1286 1098 1236
f 1098 1273 1236
f 1244 138 1099
f 957 1287 280
f 957 959 1287
f 609 414 735
f 735 47 49
f 414 712 735
f 712 47 735
f 712 736 47
f 49 50 284
f 284 435 49
f 1288 940 139
f 1289 139 203
f 988 1288 834
f 1288 835 834
f 1278 857 375
f 451 204 1290
f 595 451 1290
f 741 1290 204
f 1126 280 491
f 1206 972 431
f 680 649 1285
f 1174 995 1238
f 282 1272 1291
f 282 1292 858
f 542 740 538
f 740 537 538
f 847 857 1278
f 1056 57 140
f 1028 1134 1073
f 358 13 367
f 1044 1187 285
f 1151 1150 746
f 1293 1280 41
f 1244 286 138
f 1276 174 593
f 813 1048 866
f 1048 922 866
f 823 1072 1134
f 197 1210 599
f 199 1210 197
f 398 1164 171
f 1244 1273 1097
f 1010 656 477
f 1225 813 932
f 311 977 687
f 1084 1166 1259
f 349 475 60
f 1184 655 691
f 1101 1221 138
f 685 684 1255
f 233 1255 91
f 1256 807 473
f 259 531 258
f 1023 1258 624
f 1208 1294 1277
f 1294 264 708
f 456 882 1208
f 882 1295 1208
f 1295 882 264
f 1295 1294 1208
f 264 1294 1295
f 847 1278 386
f 605 676 906
f 280 1287 1296
f 278 280 562
f 997 708 500
f 708 997 996
f 538 1277 1127
f 118 1102 116
f 202 286 689
f 493 144 1297
f 146 95 141
f 520 745 1232
f 745 604 1232
f 1087 1159 520
f 1087 1231 1271
f 1271 1198 1082
f 163 99 1010
f 470 163 1010
f 430 510 275
f 739 541 915
f 541 644 915
f 1283 1188 773
f 1188 861 773
f 276 1102 75
f 1102 1146 75
f 75 1146 74
f 344 1138 970
f 388 979 1085
f 691 1101 138
f 437 54 817
f 769 1270 935
f 1276 499 174
f 682 499 917
f 499 1276 917
f 1056 1057 1111
f 802 303 1011
f 915 644 1149
f 913 1298 1275
f 1298 1148 1275
f 1149 1148 1298
f 1298 913 1149
f 913 915 1149
f 521 1124 523
f 886 1026 1078
f 1026 1027 1078
f 1230 641 1205
f 641 643 1205
f 1249 305 304
f 474 1299 375
f 474 948 1299
f 948 1249 1299
f 1299 1249 375
f 1300 604 350
f 1300 350 1260
f 1043 816 406
f 1224 965 845
f 1186 1044 194
f 671 903 465
f 903 1262 465
f 1261 1262 183
f 947 1137 948
f 948 1137 885
f 1267 1301 1239
f 1271 1231 1198
f 1081 1271 1082
f 1107 1106 176
f 1240 944 369
f 1302 1240 369
f 264 882 1112
f 882 883 1112
f 883 1113 1112
f 91 1255 684
f 276 858 1292
f 1291 1292 282
f 1286 1272 639
f 193 397 1201
f 1202 194 1201
f 1126 158 280
f 919 33 733
f 413 1132 1133
f 1272 283 639
f 1292 716 86
f 1292 86 276
f 637 1071 635
f 1045 1079 1046
f 1046 1079 232
f 83 982 81
f 357 336 360
f 1044 1038 194
f 119 713 143
f 876 1204 650
f 1204 834 650
f 746 990 479
f 959 796 723
f 959 723 560
f 64 534 1143
f 1143 994 64
f 985 1039 1213
f 985 1213 986
f 745 520 1203
f 448 52 449
f 601 383 799
f 1045 1263 1079
f 183 1263 1261
f 406 464 1043
f 464 125 1043
f 534 864 1080
f 994 874 875
f 1296 1287 562
f 280 1296 562
f 501 1280 1303
f 1029 1095 463
f 1095 125 463
f 449 664 302
f 1231 1300 1198
f 1088 1271 1081
f 767 768 62
f 1060 1059 944
f 1060 944 627
f 1060 627 626
f 1060 626 991
f 324 326 545
f 711 218 1123
f 1224 845 844
f 890 1212 1173
f 829 831 879
f 202 689 203
f 940 1288 988
f 1297 143 1304
f 1191 1304 143
f 879 831 889
f 1209 627 944
f 38 145 741
f 707 2 340
f 1 3 1116
f 371 370 1050
f 1212 294 1002
f 192 1191 143
f 1302 369 859
f 1151 746 92
f 1030 1077 1199
f 1077 1027 1199
f 433 796 431
f 904 1248 509
f 504 503 109
f 315 77 316
f 77 675 580
f 920 990 746
f 1062 6 72
f 72 891 1062
f 1062 227 812
f 227 1062 891
f 185 1079 183
f 1045 738 1263
f 465 1263 738
f 146 141 450
f 146 450 517
f 1192 946 943
f 946 942 943
f 176 1121 628
f 1286 1236 1272
f 1236 1305 1272
f 1124 1305 1236
f 1291 1272 1305
f 1292 1291 1305
f 716 1292 1124
f 1292 1305 1124
f 838 1009 141
f 620 1133 153
f 1133 620 413
f 620 414 413
f 449 250 664
f 408 483 243
f 404 1211 1152
f 1211 404 529
f 1269 1306 1247
f 370 1178 1050
f 1033 1034 1205
f 1024 641 1230
f 485 1230 1075
f 1230 1034 1075
f 485 851 1230
f 480 657 481
f 636 657 363
f 1300 1260 1198
f 1243 125 124
f 85 1068 936
f 705 1068 587
f 705 936 1068
f 433 772 796
f 283 786 372
f 558 1284 436
f 1097 689 286
f 93 312 784
f 312 925 784
f 895 896 960
f 896 985 960
f 177 102 107
f 102 896 107
f 985 896 1039
f 653 1257 661
f 628 440 439
f 1120 1121 176
f 444 1176 443
f 197 969 348
f 165 663 212
f 364 1281 1000
f 364 714 1001
f 1185 1284 559
f 557 899 559
f 899 1008 559
f 732 1185 1122
f 436 1284 666
f 666 1284 1185
f 504 109 95
f 504 95 99
f 72 1177 1245
f 197 600 969
f 168 860 969
f 1141 447 660
f 156 379 157
f 184 147 149
f 691 1221 1184
f 317 1203 522
f 317 745 1203
f 708 996 1294
f 1127 1277 996
f 1277 1294 996
f 652 418 1051
f 42 1280 501
f 473 1172 1293
f 1172 1280 1293
f 856 233 100
f 867 1259 932
f 1259 938 932
f 932 813 867
f 938 1259 1166
f 534 1080 1143
f 363 1307 636
f 392 880 709
f 1228 652 64
f 875 1228 994
f 64 994 1228
f 477 656 792
f 1172 1303 1280
f 1226 1207 431
f 425 134 234
f 425 15 134
f 68 602 308
f 19 18 17
f 1308 1265 1021
f 1150 919 746
f 6 1176 72
f 1237 714 576
f 1237 576 918
f 901 778 1309
f 1172 356 1310
f 45 1090 46
f 453 109 503
f 787 1144 788
f 1144 1196 788
f 788 1196 1101
f 788 1101 939
f 1101 940 939
f 1029 463 1154
f 770 464 406
f 224 469 577
f 1231 1232 1300
f 1232 604 1300
f 17 364 18
f 1035 443 208
f 1231 1087 520
f 790 1099 138
f 984 1099 790
f 1310 1303 1172
f 501 1303 1310
f 1310 356 355
f 1310 355 1096
f 1311 1091 1266
f 1266 1091 555
f 229 1091 662
f 307 446 1160
f 1160 1209 1241
f 1225 932 100
f 626 479 990
f 320 160 159
f 220 783 785
f 320 783 220
f 94 93 1312
f 93 784 1312
f 1312 784 783
f 158 1312 159
f 158 94 1312
f 783 159 1312
f 139 691 138
f 1019 1251 1313
f 1229 1153 698
f 126 1313 1032
f 1313 1251 1032
f 560 1287 959
f 972 606 608
f 972 103 606
f 1118 757 1076
f 757 766 1076
f 1075 1251 1076
f 1251 1314 1076
f 1315 1013 1118
f 1013 574 1118
f 1076 1315 1118
f 1308 1314 1265
f 1314 1229 1265
f 1307 637 636
f 363 795 1307
f 637 1307 795
f 1009 95 141
f 413 415 1132
f 1131 1132 285
f 285 1132 415
f 632 631 953
f 542 538 467
f 1248 1247 1254
f 1247 1306 1254
f 1254 1306 29
f 161 598 210
f 638 1119 689
f 1103 815 7
f 1103 285 815
f 151 978 152
f 285 1103 978
f 219 220 54
f 855 975 1055
f 128 1017 1313
f 1017 1019 1313
f 126 128 1313
f 982 63 81
f 1009 99 95
f 1226 958 1207
f 958 1004 1207
f 1226 431 796
f 316 77 73
f 1269 29 1306
f 1269 488 29
f 719 346 839
f 204 145 39
f 10 12 530
f 628 439 335
f 532 1259 1130
f 532 1084 1259
f 993 532 483
f 993 483 408
f 1084 356 1166
f 1314 1251 1019
f 1314 1019 1229
f 1308 1021 1315
f 1021 1013 1315
f 1076 1314 1308
f 1308 1315 1076
f 314 1222 1223
f 823 822 1072
f 822 922 1072
f 803 740 804
f 918 283 999
f 283 1119 638
f 1192 263 1116
f 1252 1234 1257
f 1234 661 1257
f 1253 1144 966
f 640 1285 86
f 86 1285 585
f 649 585 1285
f 1218 1195 591
f 720 1113 883
f 608 1160 1239
f 650 673 876
f 740 542 541
f 915 914 739
f 739 914 740
f 914 804 740
f 645 644 541
f 228 541 467
f 645 541 228
f 73 1245 178
f 411 444 572
f 727 728 726
f 1199 379 567
f 1027 1316 1199
f 1199 1316 570
f 374 1026 474
f 947 474 1026
f 374 1316 1027
f 1316 374 570
f 1317 285 1186
f 1317 1186 815
f 1317 815 285
f 481 192 191
f 191 143 713
f 192 636 1191
f 1256 1293 41
f 808 41 12
f 10 12 11
f 10 11 808
f 808 12 10
f 1256 473 1293
f 1256 41 808
f 18 672 17
f 714 17 672
f 572 443 1035
f 659 274 621
f 509 1248 1140
f 399 1110 1052
f 1110 1125 1052
f 953 1052 632
f 1164 752 819
f 167 819 752
f 632 1052 1125
f 1161 115 624
f 1161 624 301
f 624 1258 301
f 403 404 1152
f 1141 660 379
f 1141 156 447
f 531 259 461
f 1227 54 222
f 1227 222 548
f 1246 1245 1177
f 1246 1177 727
f 727 1177 444
f 208 443 6
f 443 1176 6
f 515 887 664
f 1173 1139 890
f 1095 123 125
f 464 878 463
f 878 877 463
f 877 1129 463
f 552 1036 811
f 778 901 1318
f 288 648 929
f 1270 402 341
f 402 1270 769
f 1289 1288 139
f 1289 835 1288
f 203 835 1289
f 756 299 298
f 595 1290 881
f 391 950 113
f 593 1202 1276
f 1010 477 470
f 837 656 1010
f 1111 264 1112
f 960 1151 108
f 919 960 985
f 895 108 107
f 919 1150 960
f 88 1223 955
f 180 179 1223
f 81 63 299
f 694 1213 1039
f 1213 694 33
f 694 1039 468
f 944 1240 1241
f 117 1165 333
f 1053 1165 1190
f 334 1165 1053
f 591 384 602
f 1195 70 591
f 98 95 146
f 1001 1281 364
f 1237 999 1001
f 1237 1001 714
f 912 251 437
f 853 251 912
f 145 594 741
f 1086 1005 199
f 1311 662 1091
f 1020 1 1163
f 1020 1163 59
f 1074 1072 1048
f 630 629 440
f 1048 440 1074
f 440 629 1074
f 1160 608 69
f 1028 1167 1319
f 1028 1319 578
f 578 1319 1167
f 578 594 416
f 1297 144 143
f 319 931 590
f 319 590 553
f 79 931 454
f 454 931 319
f 1015 614 613
f 255 1168 1113
f 1168 1111 1113
f 55 1056 1168
f 1111 1057 264
f 879 878 829
f 878 464 829
f 464 337 829
f 646 971 888
f 290 888 971
f 688 1274 875
f 1274 1320 1036
f 688 687 1274
f 687 1320 1274
f 704 1282 1275
f 1036 1320 1282
f 977 1282 687
f 1282 1320 687
f 977 913 1282
f 875 1274 552
f 552 652 875
f 913 1275 1282
f 901 671 1318
f 1247 1321 1269
f 778 1318 438
f 1318 671 438
f 266 48 1200
f 741 881 1290
f 1239 972 608
f 1239 1301 972
f 1311 1266 662
f 175 376 1120
f 1120 176 175
f 591 602 1218
f 102 1039 896
f 1273 523 1236
f 1244 1099 1100
f 689 1098 638
f 639 638 1098
f 1286 639 1098
f 1192 943 263
f 943 1031 263
f 1009 656 837
f 95 99 1009
f 656 1009 99
f 1287 560 562
f 838 1009 837
f 431 1301 1302
f 1302 859 431
f 1301 431 972
f 1302 1267 1240
f 1302 1301 1267
f 1065 916 359
f 1064 61 80
f 1065 359 369
f 1059 916 1065
f 1264 149 409
f 1264 409 184
f 1128 672 364
f 550 673 364
f 1128 364 673
f 162 99 163
f 1135 674 1200
f 150 394 60
f 605 226 676
f 345 1047 346
f 718 347 346
f 718 346 719
f 308 496 307
f 658 743 659
f 1224 844 60
f 1224 60 1175
f 983 1322 317
f 983 984 1322
f 317 1322 1175
f 1322 1224 1175
f 984 791 1322
f 791 1224 1322
f 204 484 145
f 116 955 1223
f 222 327 247
f 1321 1247 1309
f 281 1269 1321
f 89 497 230
f 778 497 1309
f 497 1321 1309
f 230 497 778
f 281 1321 497
f 1304 493 1297
f 493 1304 1191
f 34 493 32
f 470 477 749
f 195 749 477
f 743 611 744
f 659 164 274
f 164 502 150
f 164 659 743
f 502 743 402
f 901 1309 902
f 1309 1247 902
f 1063 904 510
f 430 1063 510
f 183 1262 1063
f 1063 1262 903
f 820 201 200
f 855 1055 821
f 821 1055 1035
f 209 821 1035
f 1009 141 95
f 648 288 971
f 902 1248 904
f 1082 974 717
f 1229 698 1265
f 1182 1253 1183
f 1009 838 141
f 501 1310 1096
f 695 1211 529

