v -0.292775 -0.000000 0.108654
v -0.288478 0.020310 0.107981
v -0.279765 0.040277 0.107884
v -0.288481 -0.020311 0.107984
v -0.279765 -0.040277 0.107885
v -0.298741 0.000000 0.098164
v 0.026890 0.000000 0.118522
v -0.270597 -0.000004 0.134976
v -0.272376 -0.000000 0.138028
v -0.316531 0.000000 0.143098
v -0.375629 0.000000 0.138396
v -0.384800 0.000000 0.144720
v -0.295391 0.000000 0.166343
v -0.218605 0.000000 0.180649
v -0.148767 0.000000 0.188583
v -0.078511 0.000000 0.190303
v -0.259653 0.069710 0.108691
v -0.252195 0.074399 0.112046
v -0.191868 0.080632 0.153270
v -0.122273 0.082855 0.191132
v -0.287504 0.038026 0.098132
v -0.286929 -0.038990 0.098152
v -0.255306 -0.073404 0.110049
v -0.191868 -0.080632 0.153270
v -0.123013 -0.083399 0.190955
v -0.295259 0.019770 0.098163
v -0.295253 -0.019779 0.098163
v -0.313211 0.000000 0.082173
v 0.023443 0.030152 0.118529
v 0.016949 0.053541 0.118554
v -0.013252 0.113049 0.118831
v 0.023443 -0.030152 0.118529
v 0.016949 -0.053541 0.118554
v -0.013252 -0.113048 0.118831
v -0.030870 0.000000 0.154917
v 0.069541 0.000000 0.118507
v -0.081169 -0.019213 0.190849
v -0.089948 -0.041692 0.191282
v -0.103316 -0.061922 0.191364
v -0.081169 0.019214 0.190849
v -0.089948 0.041692 0.191282
v -0.200787 0.066871 0.230687
v -0.296717 0.047380 0.272632
v -0.315288 0.027825 0.282782
v -0.117253 0.010025 0.205642
v -0.111476 0.000000 0.203854
v -0.118073 -0.010263 0.205952
v -0.315288 -0.027825 0.282782
v -0.296717 -0.047380 0.272632
v -0.193422 -0.068443 0.227229
v -0.066932 0.101685 0.155975
v -0.267780 0.061099 0.098148
v -0.242694 0.078221 0.097964
v -0.312900 0.036167 0.080574
v -0.267779 -0.061099 0.098148
v -0.242694 -0.078221 0.097964
v -0.312979 -0.036721 0.079420
v -0.066911 -0.101694 0.155961
v -0.345420 0.000000 0.068720
v -0.012289 0.099729 0.109429
v -0.009264 0.093566 0.098416
v -0.012289 -0.099728 0.109429
v -0.009264 -0.093566 0.098416
v 0.067437 0.019557 0.117756
v 0.067437 -0.019557 0.117756
v 0.155501 0.000000 0.120781
v 0.224462 0.000000 0.118366
v 0.281629 0.000000 0.112204
v 0.350650 0.000000 0.099156
v -0.150364 0.078095 0.098056
v -0.217591 0.085909 0.079366
v -0.313055 0.031114 0.057398
v -0.313059 0.000000 0.010629
v -0.350899 0.033767 0.068678
v -0.217606 -0.086087 0.079372
v -0.150364 -0.078095 0.098056
v -0.313055 -0.031114 0.057398
v -0.351007 -0.034088 0.068663
v -0.394217 0.000000 0.068682
v -0.013066 0.117369 0.087186
v 0.064808 0.096490 0.098357
v 0.126393 0.093191 0.098545
v 0.186941 0.082606 0.098797
v 0.238888 0.066790 0.099075
v 0.025520 0.076128 0.106580
v -0.013066 -0.117369 0.087186
v 0.064808 -0.096490 0.098357
v 0.141697 -0.091286 0.098602
v 0.201986 -0.078553 0.098873
v 0.278512 -0.049634 0.099221
v 0.019694 -0.079691 0.105108
v 0.043117 -0.061280 0.111144
v 0.057437 0.043322 0.114989
v 0.213172 0.019503 0.116086
v 0.272509 0.019150 0.109860
v 0.331677 0.016731 0.099182
v 0.057437 -0.043322 0.114989
v 0.213172 -0.019503 0.116086
v 0.272509 -0.019150 0.109860
v 0.331677 -0.016731 0.099182
v 0.394217 0.000000 0.088808
v -0.217501 0.083355 0.053529
v -0.217452 0.074369 0.029968
v -0.217403 0.059560 0.009066
v -0.216925 0.034835 -0.014676
v -0.129143 0.103154 0.084367
v -0.264142 0.000000 -0.018549
v -0.386330 0.000000 0.046520
v -0.378173 0.021875 0.067890
v -0.387543 0.012959 0.068247
v -0.122361 -0.104170 0.083188
v -0.217501 -0.083359 0.053529
v -0.217452 -0.074369 0.029968
v -0.217278 -0.059572 0.009073
v -0.213915 -0.036055 -0.014117
v 0.051779 0.120758 0.089014
v 0.147498 0.070642 0.106867
v 0.278512 0.049634 0.099221
v 0.043117 0.061280 0.111144
v 0.051779 -0.120758 0.089014
v 0.307491 -0.033484 0.099258
v 0.172288 -0.055328 0.110347
v 0.195170 0.036363 0.113965
v 0.251465 0.034864 0.108829
v 0.307491 0.033484 0.099258
v 0.195170 -0.036362 0.113965
v 0.251465 -0.034864 0.108829
v 0.312216 0.000000 0.040188
v 0.356548 0.032884 0.090143
v 0.317895 0.059027 0.091016
v 0.244814 0.092634 0.091619
v 0.198307 0.105881 0.091453
v 0.150701 0.114484 0.090938
v 0.356548 -0.032884 0.090143
v 0.317895 -0.059027 0.091016
v 0.244814 -0.092634 0.091619
v 0.198307 -0.105881 0.091453
v 0.150701 -0.114484 0.090938
v -0.144286 0.066243 -0.007661
v -0.084921 0.080876 -0.001757
v -0.024079 0.087133 0.004540
v 0.055186 0.085144 0.012801
v -0.215289 0.012473 -0.040577
v -0.212989 0.000000 -0.063316
v 0.055306 0.049004 -0.011736
v 0.055272 0.020336 -0.038386
v 0.055167 0.005637 -0.061914
v 0.055018 0.000000 -0.087252
v 0.127878 0.072618 0.020789
v 0.201587 0.052073 0.028673
v 0.258041 0.029689 0.034607
v 0.054031 0.113964 0.056146
v -0.144509 0.000000 -0.071876
v -0.271299 0.000000 -0.191829
v -0.325148 0.000000 -0.282782
v -0.294892 0.000000 -0.265712
v -0.264672 0.000000 -0.236486
v -0.181709 0.000000 -0.114233
v -0.215506 -0.017396 -0.034048
v -0.005426 0.000000 -0.084739
v 0.055167 -0.005636 -0.061914
v 0.055272 -0.020336 -0.038386
v 0.055309 -0.040327 -0.018844
v 0.055193 -0.083435 0.014567
v 0.091014 0.000000 -0.057174
v 0.124045 0.000000 -0.037510
v 0.258530 0.000000 0.015763
v 0.258599 -0.029721 0.034668
v 0.191950 -0.055459 0.027655
v 0.112925 -0.075925 0.019212
v -0.149280 -0.064952 -0.008157
v -0.090010 -0.080306 -0.002283
v -0.018985 -0.087576 0.005074
v 0.054319 -0.111587 0.051110
v 0.053027 -0.118943 0.071295
v -0.387543 -0.012959 0.068247
v -0.378173 -0.021875 0.067890
v 0.172288 0.055328 0.110347
v -0.313056 0.018083 0.081374
v -0.313095 -0.018360 0.080796
v -0.331993 -0.035404 0.074042
v -0.265292 -0.061404 0.079396
v 0.372433 0.000000 0.093982
v 0.062437 0.031440 0.116372
v -0.348214 -0.017044 0.068692
v 0.019356 -0.119064 0.088100
v -0.283347 -0.039634 0.103018
v 0.019356 0.119064 0.088100
v 0.062437 -0.031440 0.116372
v -0.230142 0.082065 0.088665
v -0.295758 0.000000 0.103409
v 0.068489 0.009779 0.118132
v -0.288600 0.000000 -0.003960
v -0.239028 -0.018027 -0.016333
v -0.300202 0.037096 0.089353
v -0.283635 0.039151 0.103008
v 0.050277 0.052301 0.113067
v -0.329315 0.000000 0.075446
v 0.341164 -0.008365 0.099169
v -0.230150 -0.082154 0.088668
v 0.048216 0.000000 0.118514
v -0.348160 0.016883 0.068699
v 0.319584 -0.025107 0.099220
v -0.011165 0.105467 0.092801
v -0.305976 0.000000 0.090168
v -0.265246 0.061038 0.079970
v -0.238565 0.000000 -0.040932
v -0.331900 0.034967 0.074626
v 0.353216 0.000000 0.064498
v 0.341164 0.008365 0.099169
v -0.011165 -0.105467 0.092801
v 0.258700 0.058212 0.099148
v -0.369818 0.000000 0.068701
v -0.240534 0.017417 -0.016612
v -0.178749 0.000000 -0.067596
v 0.008128 0.084847 0.102498
v -0.132942 0.000000 0.113588
v 0.068489 -0.009779 0.118132
v 0.050277 -0.052301 0.113067
v 0.034319 0.068704 0.108862
v 0.319584 0.025107 0.099220
v 0.293002 0.041559 0.099240
v -0.299954 -0.037856 0.088786
v 0.293002 -0.041559 0.099240
l 1 2 3
l 1 4 5
l 1 191 6
l 1 217 7
l 1 8 9 10 11 12 13 14 15 16
l 3 17 18 19 20
l 3 196 21
l 5 187 22
l 5 23 24 25
l 6 26 21
l 6 27 22
l 6 205 28
l 7 29 30 31
l 7 32 33 34
l 7 35 16
l 7 201 36
l 16 37 38 39 25
l 16 40 41 20
l 20 42 43 44 45 46 47 48 49 50 25
l 20 51 31
l 21 52 53
l 21 195 54
l 22 55 56
l 22 223 57
l 25 58 34
l 28 179 54
l 28 180 57
l 28 198 59
l 31 60 61
l 34 62 63
l 36 192 64
l 36 218 65
l 36 66 67 68 69
l 53 70 61
l 53 190 71
l 54 206 71
l 54 72 73
l 54 208 74
l 56 200 75
l 56 76 63
l 57 77 73
l 57 182 75
l 57 181 78
l 59 213 79
l 59 185 78
l 59 202 74
l 61 204 80
l 61 81 82 83 84
l 61 216 85
l 63 211 86
l 63 87 88 89 90
l 63 91 92
l 64 184 93
l 64 94 95 96
l 65 189 97
l 65 98 99 100
l 69 183 101
l 69 199 100
l 69 210 96
l 71 102 103 104 105
l 71 106 80
l 73 193 107
l 73 108 79
l 74 109 110 79
l 75 111 86
l 75 112 113 114 115
l 80 188 116
l 84 117 85
l 84 212 118
l 85 220 119
l 86 186 120
l 90 224 121
l 90 122 92
l 92 219 97
l 93 123 124 125
l 93 197 119
l 96 221 125
l 97 126 127 121
l 100 203 121
l 101 209 128
l 101 129 130 131 132 133 116
l 101 134 135 136 137 138 120
l 105 139 140 141 142
l 105 214 107
l 105 143 144
l 142 145 146 147 148
l 142 149 150 151 128
l 142 152 116
l 107 207 144
l 107 194 115
l 144 215 153
l 144 154 155 156 157 158 153
l 144 159 115
l 148 160 153
l 148 161 162 163 164
l 148 165 166 167 128
l 128 168 169 170 164
l 115 171 172 173 164
l 164 174 175 120
l 79 176 177 78
l 118 222 125
l 118 178 119
