v -0.173418 -0.017777 0.166077
v -0.150038 -0.015759 0.233087
v -0.134460 -0.014769 0.259330
v -0.118488 -0.014475 0.277861
v -0.098964 -0.014664 0.294203
v -0.070179 -0.015057 0.311572
v -0.002115 -0.014018 0.338625
v 0.072784 -0.010319 0.310506
v 0.098381 -0.007785 0.295142
v 0.120071 -0.004893 0.277526
v 0.137399 -0.001972 0.258441
v 0.153242 0.001394 0.233589
v 0.165649 0.004884 0.203125
v 0.175215 0.008473 0.166777
v 0.175874 0.071545 0.152832
v 0.176402 0.108434 0.138537
v 0.177073 0.150487 0.111310
v 0.177525 0.186089 0.076820
v 0.177661 0.210470 0.042204
v 0.177622 0.227092 0.005436
v 0.177615 0.236635 -0.040763
v 0.177746 0.242972 -0.109212
v 0.177860 0.231132 -0.154514
v 0.177941 0.218411 -0.185161
v 0.178047 0.195546 -0.221763
v 0.178147 0.168865 -0.252751
v 0.178222 0.142238 -0.275048
v 0.178226 0.109112 -0.294311
v 0.177729 0.026531 -0.322435
v 0.177689 -0.037048 -0.319131
v 0.177646 -0.083763 -0.307607
v 0.177583 -0.132828 -0.282885
v 0.177553 -0.172956 -0.250786
v 0.177569 -0.205635 -0.209357
v 0.177594 -0.229892 -0.160612
v 0.177600 -0.239351 -0.119857
v 0.177513 -0.244654 -0.048661
v 0.177266 -0.230982 0.001711
v 0.177052 -0.213937 0.040645
v 0.176826 -0.189715 0.076517
v 0.176605 -0.160093 0.106857
v 0.176374 -0.124054 0.132242
v 0.176142 -0.086628 0.149259
v 0.175811 -0.046699 0.159100
v 0.212990 0.014830 0.180237
v 0.237275 0.018381 0.176331
v 0.246657 0.019833 0.168766
v 0.253574 0.021198 0.157712
v 0.261089 0.024954 0.116547
v 0.260848 0.067201 0.104351
v 0.260678 0.100125 0.088519
v 0.260560 0.132259 0.064293
v 0.260536 0.157255 0.036060
v 0.260668 0.175098 0.005674
v 0.260731 0.187720 -0.031086
v 0.260536 0.192589 -0.067673
v 0.260145 0.191909 -0.116808
v 0.260204 0.167385 -0.176864
v 0.260352 0.133999 -0.219092
v 0.260596 0.113005 -0.236011
v 0.260756 0.085994 -0.251662
v 0.260375 0.024529 -0.273185
v 0.260558 -0.026161 -0.271247
v 0.260746 -0.065171 -0.261569
v 0.261180 -0.104702 -0.240649
v 0.261448 -0.139876 -0.211934
v 0.260997 -0.167809 -0.177379
v 0.260588 -0.185111 -0.140938
v 0.260348 -0.193884 -0.101678
v 0.260066 -0.195546 -0.052023
v 0.260094 -0.182556 -0.010133
v 0.260244 -0.169256 0.018437
v 0.260282 -0.145866 0.050827
v 0.260212 -0.119054 0.076414
v 0.260288 -0.089406 0.094878
v 0.260450 -0.056396 0.107481
v 0.260687 -0.022834 0.114229
v 0.214081 0.028569 -0.335718
v 0.226522 0.028836 -0.335668
v 0.241138 0.028701 -0.330521
v 0.252401 0.028106 -0.320555
v 0.259302 0.027191 -0.307423
v 0.213763 -0.258203 -0.046976
v 0.225842 -0.258045 -0.046818
v 0.240097 -0.252460 -0.047107
v 0.251264 -0.241560 -0.047923
v 0.256804 -0.230729 -0.048830
v 0.214410 0.257674 -0.112524
v 0.225726 0.258438 -0.113318
v 0.238686 0.254504 -0.113989
v 0.249245 0.245372 -0.114367
v 0.256644 0.231927 -0.114722
v 0.260117 0.215261 -0.115389
v -0.175125 -0.078562 0.151848
v -0.176129 -0.113764 0.137552
v -0.177494 -0.160337 0.106046
v -0.177983 -0.194195 0.070803
v -0.177757 -0.219803 0.029210
v -0.177447 -0.237040 -0.017912
v -0.177108 -0.243436 -0.066580
v -0.176589 -0.241557 -0.126961
v -0.176408 -0.223632 -0.176263
v -0.176277 -0.206064 -0.209833
v -0.176155 -0.181455 -0.241733
v -0.176112 -0.151321 -0.268800
v -0.176157 -0.118398 -0.290600
v -0.176275 -0.083573 -0.306441
v -0.176468 -0.047035 -0.315331
v -0.176830 0.010786 -0.322934
v -0.176957 0.068053 -0.308823
v -0.176769 0.114898 -0.290493
v -0.176596 0.154187 -0.265489
v -0.176547 0.186002 -0.234661
v -0.176562 0.212525 -0.195649
v -0.176676 0.229812 -0.155511
v -0.176782 0.238016 -0.115099
v -0.176816 0.242964 -0.047287
v -0.176698 0.230050 -0.001619
v -0.176770 0.211321 0.038894
v -0.177055 0.181890 0.081848
v -0.176998 0.153594 0.110781
v -0.176462 0.119260 0.134052
v -0.175891 0.086338 0.149417
v -0.175132 0.049764 0.157947
v -0.211056 -0.017685 0.179668
v -0.224135 -0.017286 0.179767
v -0.239592 -0.016369 0.174832
v -0.251486 -0.015078 0.165096
v -0.258773 -0.013545 0.152139
v -0.261051 -0.009757 0.118037
v -0.260649 0.036400 0.111413
v -0.260413 0.070212 0.102357
v -0.260286 0.096451 0.090428
v -0.260219 0.123578 0.071972
v -0.260243 0.146102 0.049744
v -0.260450 0.166332 0.021155
v -0.260524 0.179876 -0.007950
v -0.260155 0.193911 -0.051456
v -0.259794 0.191944 -0.098893
v -0.259610 0.185318 -0.132525
v -0.259536 0.171294 -0.169376
v -0.259526 0.150825 -0.201270
v -0.259499 0.124236 -0.227972
v -0.259476 0.091275 -0.249996
v -0.259506 0.056872 -0.263681
v -0.259694 0.010505 -0.274601
v -0.259971 -0.031678 -0.269674
v -0.260042 -0.063787 -0.262123
v -0.259926 -0.093734 -0.249216
v -0.259821 -0.119671 -0.232700
v -0.259828 -0.143285 -0.211374
v -0.259896 -0.165621 -0.182321
v -0.259982 -0.180681 -0.153838
v -0.260100 -0.192961 -0.119442
v -0.260254 -0.193933 -0.067015
v -0.259913 -0.188919 -0.031909
v -0.259505 -0.175311 0.007154
v -0.259404 -0.154497 0.041323
v -0.259385 -0.126361 0.069956
v -0.259427 -0.093731 0.092262
v -0.259730 -0.063630 0.104835
v -0.256810 0.010777 -0.311521
v -0.249700 0.010901 -0.324952
v -0.238548 0.011027 -0.333974
v -0.224686 0.011130 -0.338270
v -0.209892 0.011156 -0.337858
v -0.253607 -0.229747 -0.125999
v -0.247235 -0.241616 -0.128090
v -0.235462 -0.252352 -0.129933
v -0.221677 -0.257209 -0.130675
v -0.207708 -0.256859 -0.130430
v -0.257021 0.227811 -0.045829
v -0.243405 0.246584 -0.042704
v -0.231758 0.251370 -0.042170
v -0.216475 0.252058 -0.042774
v -0.008432 -0.196349 -0.086871
v 0.129557 0.194235 -0.097701
v -0.018963 -0.245110 -0.092103
v -0.070710 -0.001542 0.167582
v 0.072902 0.006171 0.167296
v 0.103116 0.032224 0.168488
v 0.124478 0.039441 0.168853
v 0.136745 0.038202 0.168757
v 0.151455 0.031521 0.168312
v 0.164206 -0.016989 0.165918
v 0.152595 -0.034294 0.164990
v 0.140118 -0.043096 0.164129
v 0.126812 -0.045843 0.163639
v 0.112930 -0.042951 0.163782
v 0.098996 -0.033247 0.164589
v -0.138984 -0.034035 0.167084
v -0.112609 -0.035569 0.167489
v -0.090785 -0.024485 0.167572
v -0.101324 0.034392 0.164458
v -0.112161 0.041012 0.163748
v -0.126028 0.043219 0.163348
v -0.139345 0.037879 0.163577
v -0.149007 0.028422 0.164085
v 0.000730 -0.032252 0.304727
v 0.002053 -0.035311 0.280334
v 0.002237 -0.024878 0.260425
v 0.001458 -0.000832 0.240786
v 0.006649 0.028989 0.270076
v 0.007922 0.035255 0.282902
v 0.008356 0.036130 0.299448
v 0.007627 0.031563 0.310643
v 0.005954 0.022989 0.320243
v -0.029472 -0.002565 0.227094
v -0.048787 -0.003189 0.213338
v -0.062308 -0.002830 0.193811
v 0.028513 0.001823 0.225377
v 0.046625 0.003547 0.210612
v 0.060304 0.004858 0.192791
v 0.000465 0.242968 -0.078249
v 0.000341 0.017517 -0.273893
v 0.000019 0.007599 0.117292
v 0.000450 0.018659 -0.322685
v 0.001096 0.002315 0.167439
l 1 2 3 4 5 6 7
l 7 8 9 10 11 12 13 14
l 14 15 16 17 18 19 20 21 22
l 22 23 24 25 26 27 28 29
l 29 30 31 32 33 34 35 36 37
l 37 38 39 40 41 42 43 44 14
l 14 45 46 47 48 49
l 49 50 51 52 53 54 55 56 57
l 57 58 59 60 61 62
l 62 63 64 65 66 67 68 69 70
l 70 71 72 73 74 75 76 77 49
l 29 78 79 80 81 82 62
l 37 83 84 85 86 87 70
l 22 88 89 90 91 92 93 57
l 1 94 95 96 97 98 99 100 101
l 101 102 103 104 105 106 107 108 109
l 109 110 111 112 113 114 115 116 117
l 117 118 119 120 121 122 123 124 1
l 1 125 126 127 128 129 130
l 130 131 132 133 134 135 136 137 138
l 138 139 140 141 142 143 144 145 146
l 146 147 148 149 150 151 152 153 154
l 154 155 156 157 158 159 160 161 130
l 146 162 163 164 165 166 109
l 154 167 168 169 170 171 101
l 138 172 173 174 175 117
l 130 216 49
l 154 176 70
l 146 215 62
l 138 177 57
l 117 214 22
l 109 217 29
l 101 178 37
l 179 218 180
l 180 181 182 183 184 14
l 14 185 186 187 188 189 190 180
l 1 191 192 193 179
l 179 194 195 196 197 198 1
l 7 199 200 201 202
l 202 203 204 205 206 207 7
l 202 208 209 210 179
l 202 211 212 213 180
