v -0.102332 0.043496 0.024229
v -0.086626 0.069980 0.024249
v -0.068649 0.084573 0.024270
v -0.044224 0.094248 0.024300
v -0.000732 0.101135 0.024351
v -0.102564 0.020386 0.218013
v 0.091181 0.020386 0.218176
v 0.091339 0.043496 0.024462
v 0.091332 0.020712 0.044835
v 0.091322 0.007267 0.064043
v 0.091355 -0.001864 0.086474
v 0.091697 -0.006649 0.110243
v 0.092882 -0.006870 0.134243
v 0.095470 -0.000389 0.165988
v 0.095605 0.009991 0.194594
v 0.125009 0.011457 0.024502
v 0.158457 -0.011372 0.024542
v -0.044362 -0.037023 -0.201011
v -0.077490 -0.030150 -0.140689
v -0.121742 -0.016607 -0.021786
v -0.167509 -0.011372 0.024151
v 0.049362 -0.036995 -0.200916
v 0.076082 -0.030348 -0.142436
v 0.120964 -0.017220 -0.026938
v -0.135745 0.011364 0.024190
v -0.102351 0.023472 0.039545
v -0.102372 0.007415 0.057931
v -0.102390 -0.002940 0.079818
v -0.102287 -0.009238 0.110979
v -0.101673 -0.010113 0.141002
v -0.100841 -0.005755 0.170402
v -0.100971 0.002719 0.191813
v -0.142974 -0.022367 0.007955
v -0.126093 -0.032747 -0.012074
v -0.088571 -0.068335 -0.096103
v -0.066043 -0.084422 -0.129915
v -0.051092 -0.092000 -0.143050
v -0.033432 -0.098178 -0.153174
v -0.018139 -0.099705 -0.158046
v -0.001326 -0.097167 -0.160448
v -0.000441 -0.011372 -0.218235
v -0.030872 -0.011372 -0.198674
v -0.049144 -0.011372 -0.178673
v -0.070579 -0.011372 -0.137249
v -0.091579 -0.011293 -0.063971
v -0.100206 -0.010838 -0.044504
v -0.116199 -0.010532 -0.024600
v 0.091152 -0.011372 0.218178
v -0.102564 -0.011372 0.218013
v 0.026684 -0.011372 -0.205541
v 0.045986 -0.011372 -0.185436
v 0.062496 -0.011372 -0.150888
v 0.082274 -0.011424 -0.076599
v 0.091810 -0.011634 -0.053669
v -0.191307 0.013548 0.207422
v -0.236445 0.006359 0.196328
v -0.278747 -0.002790 0.182222
v -0.322723 -0.014745 0.163796
v -0.369614 -0.030397 0.139684
v -0.411350 -0.047502 0.113340
v -0.438344 -0.062083 0.090891
v 0.438268 -0.062083 0.091943
v 0.438344 -0.062083 0.024879
v -0.438263 -0.062083 0.023826
v -0.000465 0.011428 -0.198344
v -0.000501 0.029783 -0.168482
v -0.000668 0.074131 -0.029087
v -0.044242 -0.058230 -0.186725
v -0.038116 -0.072388 -0.177182
v -0.022082 -0.087323 -0.167102
v -0.247370 -0.015368 0.024056
v -0.320936 -0.025176 0.023967
v -0.383138 -0.040239 0.023892
v 0.364927 -0.046025 0.131947
v 0.273613 -0.030951 0.169483
v 0.169761 -0.017749 0.202333
v 0.399361 -0.038946 0.023932
v 0.343800 -0.023770 0.023275
v 0.260116 -0.014300 0.022807
v -0.412639 -0.054967 0.108710
v -0.377784 -0.047460 0.127516
v -0.275164 -0.029933 0.171443
v -0.178661 -0.017225 0.203309
v 0.370682 -0.039254 0.126911
v 0.273181 -0.013834 0.165827
v 0.164673 0.009455 0.201465
v 0.034145 0.094248 0.024393
v 0.061823 0.082042 0.024427
v 0.078398 0.066516 0.024446
v 0.179213 -0.016587 0.019013
v 0.192044 -0.019082 0.019008
v 0.258178 -0.028996 0.031199
v 0.316077 -0.038800 0.034325
v -0.199261 -0.018217 0.019132
v -0.301256 -0.035913 0.026816
v 0.025757 -0.090001 -0.165242
v 0.043002 -0.076743 -0.174151
v 0.051297 -0.058562 -0.186388
v 0.020677 -0.101135 -0.159608
v 0.035208 -0.100156 -0.155906
v 0.050902 -0.096075 -0.147486
v 0.063770 -0.090308 -0.135797
v 0.085540 -0.074011 -0.102692
v 0.130185 -0.026170 -0.005531
v 0.141577 -0.018365 0.010327
v -0.438304 -0.062083 0.057358
v 0.091166 0.004507 0.218177
v 0.438306 -0.062083 0.058411
v -0.005706 -0.011372 0.218095
v -0.005692 0.020386 0.218095
v 0.024461 -0.024184 -0.209576
v -0.102564 0.004507 0.218013
v -0.022401 -0.024198 -0.209623
l 1 2 3 4 5
l 6 110 7
l 8 9 10 11 12 13 14 15 7
l 8 16 17
l 18 19 20 21
l 22 23 24 17
l 1 25 21
l 1 26 27 28 29 30 31 32 6
l 21 33 34 35 36 37 38 39 40
l 41 42 43 44 45 46 47 21
l 48 109 49
l 41 50 51 52 53 54 17
l 49 112 6
l 6 55 56 57 58 59 60 61
l 62 108 63
l 61 106 64
l 48 107 7
l 41 65 66 67 5
l 41 113 18
l 18 68 69 70 40
l 21 71 72 73 64
l 62 74 75 76 48
l 63 77 78 79 17
l 61 80 81 82 83 49
l 62 84 85 86 7
l 22 111 41
l 5 87 88 89 8
l 17 90 91 92 93 63
l 21 94 95 64
l 40 96 97 98 22
l 40 99 100 101 102 103 104 105 17
