v 0.164803 -0.225622 -0.145497
v 0.194161 -0.084083 -0.125630
v 0.198935 0.005205 -0.110354
v 0.336142 -0.172017 -0.065099
v 0.332013 -0.179011 -0.083068
v 0.324452 -0.185173 -0.098735
v 0.311678 -0.189919 -0.110514
v 0.294967 -0.193496 -0.119094
v 0.279290 -0.189801 -0.108862
v 0.267634 -0.184984 -0.095887
v 0.257890 -0.172017 -0.061851
v 0.322088 -0.159490 -0.032025
v 0.299323 -0.152990 -0.014220
v 0.274898 -0.159490 -0.030066
v 0.285625 -0.238917 0.213574
v 0.262288 -0.201470 0.033705
v 0.258940 -0.187254 -0.041835
v 0.314920 -0.207204 0.219701
v 0.307500 -0.162811 0.100764
v 0.304319 -0.149012 0.056000
v 0.301561 -0.144274 0.017634
v 0.311179 0.072549 -0.101820
v 0.318160 0.072574 -0.066784
v 0.312418 0.072543 -0.041871
v 0.305354 0.072510 -0.032022
v 0.292560 0.072449 -0.022240
v 0.258997 0.071975 -0.012430
v 0.300297 0.122119 -0.101836
v 0.281726 0.153241 -0.101862
v 0.251232 0.175899 -0.101906
v 0.196433 0.195967 -0.101983
v 0.147230 0.212546 -0.102052
v 0.278139 -0.164778 -0.022731
v 0.298312 -0.257901 0.208653
v 0.314301 -0.271705 0.204795
v 0.330184 -0.257938 0.207322
v 0.342865 -0.239152 0.211144
v 0.297446 -0.222567 0.216870
v 0.331733 -0.222683 0.215420
v 0.301041 -0.226980 -0.079120
v 0.298712 -0.217507 -0.105938
v 0.302449 0.072517 -0.141157
v 0.291774 0.072475 -0.167179
v 0.274516 0.072401 -0.187149
v 0.252448 0.072301 -0.198226
v 0.349533 -0.119595 -0.085711
v 0.349061 -0.065393 -0.097289
v 0.336226 0.000928 -0.103123
v 0.229302 -0.121685 -0.079053
v 0.212833 -0.071220 -0.088963
v 0.202853 -0.009041 -0.094969
v 0.199491 0.072049 -0.096994
v 0.298485 -0.124751 0.001655
v 0.296540 -0.099212 0.011610
v 0.293187 -0.071775 0.017626
v 0.287708 -0.037986 0.020038
v 0.281209 -0.005299 0.017927
v 0.274252 0.024228 0.011999
v 0.267396 0.048519 0.002921
v 0.289142 -0.160347 -0.150872
v 0.284090 -0.130731 -0.172908
v 0.278646 -0.097973 -0.191242
v 0.272970 -0.062966 -0.204818
v 0.267226 -0.026605 -0.212584
v 0.262371 0.004962 -0.213824
v 0.257681 0.036324 -0.209424
v 0.273525 -0.215601 -0.067368
v 0.282290 -0.221638 -0.073123
v 0.351789 -0.207066 0.040060
v 0.348114 -0.198031 -0.005100
v 0.336944 -0.188995 -0.046630
v 0.312834 -0.279051 0.088289
v 0.311032 -0.275499 0.032232
v 0.307524 -0.260433 -0.020477
v 0.250681 0.091923 0.003413
v 0.242931 0.109865 0.009934
v 0.234429 0.128832 0.008171
v 0.225697 0.147642 -0.001489
v 0.217328 0.164990 -0.018228
v 0.209833 0.179616 -0.041433
v 0.204340 0.188403 -0.065054
v -0.008883 -0.225509 -0.003492
v 0.076773 -0.225556 -0.013178
v 0.103375 -0.225575 -0.022611
v 0.125655 -0.225591 -0.036538
v 0.143234 -0.225605 -0.055903
v 0.153875 -0.225613 -0.076878
v 0.160648 -0.225618 -0.102659
v 0.150268 -0.225603 -0.188198
v 0.138507 -0.225588 -0.202574
v 0.123602 -0.225567 -0.212048
v 0.106008 -0.225543 -0.217309
v 0.081352 -0.225508 -0.219668
v -0.000118 -0.225393 -0.214626
v -0.008835 0.278846 -0.003488
v 0.040193 0.278846 -0.015078
v 0.070142 0.278846 -0.031996
v 0.091034 0.278846 -0.059869
v 0.102308 0.278846 -0.102116
v 0.087495 0.279082 -0.138727
v 0.067606 0.279143 -0.161092
v 0.040836 0.279082 -0.175642
v -0.001205 0.278846 -0.182647
v -0.009280 0.005205 0.006133
v 0.091717 0.005205 0.017129
v 0.124998 0.005205 0.013592
v 0.147379 0.005205 0.005263
v 0.170564 0.005205 -0.013196
v 0.185109 0.005205 -0.037391
v 0.192684 0.005205 -0.063366
v 0.192688 0.005205 -0.147693
v 0.183646 0.005205 -0.173177
v 0.170330 0.005205 -0.191745
v 0.152819 0.005205 -0.204379
v 0.131180 0.005205 -0.212085
v 0.100872 0.005205 -0.216292
v -0.000118 0.005205 -0.214626
v 0.136286 0.210333 -0.056680
v 0.126636 0.208693 -0.041482
v 0.110478 0.206251 -0.026945
v 0.090587 0.203657 -0.016724
v 0.067659 0.201282 -0.009973
v -0.009090 0.198860 -0.000439
v 0.142802 0.214870 -0.118741
v 0.132611 0.216242 -0.137361
v 0.103723 0.214966 -0.164445
v 0.064083 0.209600 -0.183401
v -0.000621 0.198081 -0.199779
v -0.164802 -0.225622 -0.145497
v -0.194162 -0.084083 -0.125630
v -0.198936 0.005205 -0.110354
v -0.336142 -0.172017 -0.065099
v -0.332013 -0.179011 -0.083068
v -0.324452 -0.185173 -0.098735
v -0.311680 -0.189919 -0.110514
v -0.294967 -0.193496 -0.119094
v -0.279290 -0.189801 -0.108862
v -0.267634 -0.184984 -0.095887
v -0.257890 -0.172017 -0.061851
v -0.322088 -0.159490 -0.032025
v -0.299323 -0.152990 -0.014220
v -0.274898 -0.159490 -0.030066
v -0.285626 -0.238917 0.213574
v -0.262289 -0.201470 0.033705
v -0.258940 -0.187254 -0.041835
v -0.314920 -0.207204 0.219701
v -0.307500 -0.162811 0.100764
v -0.304320 -0.149012 0.056000
v -0.301561 -0.144274 0.017634
v -0.311179 0.072549 -0.101820
v -0.318160 0.072574 -0.066784
v -0.312418 0.072543 -0.041871
v -0.305354 0.072510 -0.032022
v -0.292516 0.072446 -0.022219
v -0.258997 0.071975 -0.012430
v -0.300296 0.122119 -0.101836
v -0.281727 0.153241 -0.101862
v -0.251232 0.175899 -0.101906
v -0.201143 0.194638 -0.101976
v -0.147231 0.212546 -0.102052
v -0.278177 -0.164753 -0.022721
v -0.298312 -0.257901 0.208653
v -0.314301 -0.271705 0.204795
v -0.330186 -0.257938 0.207322
v -0.342865 -0.239152 0.211144
v -0.297446 -0.222567 0.216870
v -0.331734 -0.222683 0.215420
v -0.301041 -0.226980 -0.079120
v -0.298712 -0.217507 -0.105938
v -0.302449 0.072517 -0.141157
v -0.291774 0.072475 -0.167179
v -0.274517 0.072401 -0.187149
v -0.252448 0.072301 -0.198226
v -0.349533 -0.119595 -0.085711
v -0.349061 -0.065393 -0.097289
v -0.336226 0.000928 -0.103123
v -0.229302 -0.121685 -0.079053
v -0.212834 -0.071220 -0.088963
v -0.202853 -0.009041 -0.094969
v -0.199491 0.072049 -0.096994
v -0.298485 -0.124751 0.001655
v -0.296539 -0.099212 0.011610
v -0.293187 -0.071775 0.017626
v -0.287708 -0.037986 0.020038
v -0.281209 -0.005299 0.017927
v -0.274252 0.024228 0.011999
v -0.267396 0.048519 0.002921
v -0.289142 -0.160347 -0.150872
v -0.284090 -0.130731 -0.172908
v -0.278646 -0.097973 -0.191242
v -0.272970 -0.062966 -0.204818
v -0.267227 -0.026605 -0.212584
v -0.262371 0.004962 -0.213824
v -0.257681 0.036324 -0.209424
v -0.273482 -0.215605 -0.067365
v -0.285023 -0.223007 -0.074448
v -0.351789 -0.207066 0.040060
v -0.348114 -0.198031 -0.005100
v -0.336943 -0.188995 -0.046630
v -0.312834 -0.279051 0.088289
v -0.311033 -0.275499 0.032232
v -0.307525 -0.260433 -0.020477
v -0.250681 0.091923 0.003413
v -0.242931 0.109865 0.009934
v -0.234429 0.128832 0.008171
v -0.225697 0.147642 -0.001489
v -0.217329 0.164990 -0.018228
v -0.209905 0.179595 -0.041433
v -0.205192 0.188163 -0.065052
v -0.081650 -0.225560 -0.014463
v -0.107386 -0.225578 -0.024597
v -0.128915 -0.225594 -0.039378
v -0.145672 -0.225606 -0.059720
v -0.155552 -0.225614 -0.081629
v -0.161514 -0.225619 -0.108434
v -0.150268 -0.225603 -0.188198
v -0.138508 -0.225588 -0.202574
v -0.123603 -0.225567 -0.212048
v -0.106008 -0.225543 -0.217309
v -0.081352 -0.225508 -0.219668
v -0.048607 0.278846 -0.017041
v -0.076756 0.278846 -0.038155
v -0.092801 0.278846 -0.063982
v -0.102307 0.278846 -0.102116
v -0.087495 0.279082 -0.138727
v -0.067608 0.279143 -0.161092
v -0.041100 0.279082 -0.175642
v -0.064059 0.005205 0.015266
v -0.096473 0.005205 0.017072
v -0.124999 0.005205 0.013592
v -0.151585 0.005205 0.002885
v -0.170565 0.005205 -0.013196
v -0.185109 0.005205 -0.037391
v -0.192684 0.005205 -0.063366
v -0.192689 0.005205 -0.147693
v -0.183646 0.005205 -0.173177
v -0.170330 0.005205 -0.191745
v -0.152819 0.005205 -0.204379
v -0.131181 0.005205 -0.212085
v -0.100872 0.005205 -0.216292
v -0.142802 0.214870 -0.118741
v -0.132611 0.216242 -0.137361
v -0.103727 0.214966 -0.164445
v -0.064287 0.209600 -0.183401
v -0.009622 0.101252 0.019304
v -0.009680 0.140925 0.021524
v -0.009564 0.169424 0.017053
v -0.008766 0.239683 -0.008107
v -0.009370 -0.174786 0.008278
v -0.009559 -0.130314 0.012834
v -0.009549 -0.083113 0.012595
v -0.000234 0.106787 -0.211242
v -0.000338 -0.192433 -0.208156
v -0.000412 -0.149086 -0.205987
v 0.200509 0.191332 -0.137189
v 0.203289 0.183602 -0.161407
v 0.208325 0.170356 -0.185488
v 0.215205 0.153614 -0.203412
v 0.223598 0.134214 -0.214023
v 0.231492 0.116660 -0.216441
v 0.239977 0.098380 -0.212532
v -0.200637 0.192253 -0.131824
v -0.203293 0.183602 -0.161407
v -0.208324 0.170356 -0.185488
v -0.215205 0.153614 -0.203412
v -0.223598 0.134214 -0.214023
v -0.231492 0.116660 -0.216441
v -0.239978 0.098380 -0.212532
v -0.236127 0.072177 -0.024602
v -0.218995 0.072127 -0.042622
v -0.208926 0.072086 -0.064268
v -0.228749 0.072196 -0.185171
v -0.215424 0.072134 -0.168163
v -0.206071 0.072087 -0.142963
v -0.323535 -0.214149 -0.068282
v 0.323616 -0.214123 -0.068251
v 0.236609 0.072158 -0.024375
v 0.219003 0.072127 -0.042617
v 0.208925 0.072086 -0.064268
v 0.228749 0.072196 -0.185171
v 0.215425 0.072134 -0.168163
v 0.206072 0.072087 -0.142963
v -0.077340 0.202189 -0.012299
v -0.114053 0.206763 -0.029466
v -0.126637 0.208693 -0.041482
v -0.136287 0.210333 -0.056680
v -0.313002 -0.158125 -0.018304
v -0.322637 -0.164598 -0.024428
v 0.312724 -0.157967 -0.018239
v 0.322635 -0.164597 -0.024427
v -0.118797 0.239101 -0.102093
v 0.119118 0.239464 -0.102092
v -0.336542 -0.180506 -0.055864
v -0.174187 0.203592 -0.102014
v -0.199213 0.038627 -0.103674
v 0.171831 0.204257 -0.102018
v 0.258415 -0.179636 -0.051843
v 0.173361 0.142298 -0.099523
v -0.258415 -0.179636 -0.051843
v -0.173361 0.142298 -0.099523
v 0.199213 0.038627 -0.103674
v 0.336543 -0.180506 -0.055864
v -0.000913 0.238463 -0.191213
l 1 2 3
l 4 5 6 7 8
l 8 9 10 11
l 4 12 13
l 13 14 11
l 15 16 17
l 17 297 11
l 18 19 20 21 13
l 22 23 24 25 26 27
l 22 28 29 30 31
l 31 296 32
l 17 33 13
l 15 34 35
l 35 36 37
l 15 38 18
l 18 39 37
l 40 41 8
l 22 42 43 44 45
l 4 46 47 48 22
l 11 49 50 51 52
l 13 53 54 55 56 57 58 59 27
l 8 60 61 62 63 64 65 66 45
l 17 67 68 40
l 37 69 70 71
l 71 302 4
l 35 72 73 74 40
l 27 75 76 77 78 79 80 81 31
l 82 83 84 85 86 87 88 1
l 1 89 90 91 92 93 94
l 95 96 97 98 99
l 99 100 101 102 103
l 104 105 106 107 108 109 110 3
l 3 111 112 113 114 115 116 117
l 32 118 119 120 121 122 123
l 32 124 125 126 127 128
l 129 130 131
l 132 133 134 135 136
l 136 137 138 139
l 132 140 141
l 141 142 139
l 143 144 145
l 145 299 139
l 146 147 148 149 141
l 150 151 152 153 154 155
l 150 156 157 158 159
l 159 294 160
l 145 161 141
l 143 162 163
l 163 164 165
l 143 166 146
l 146 167 165
l 168 169 136
l 150 170 171 172 173
l 132 174 175 176 150
l 139 177 178 179 180
l 141 181 182 183 184 185 186 187 155
l 136 188 189 190 191 192 193 194 173
l 145 195 196 168
l 165 197 198 199
l 199 293 132
l 163 200 201 202 168
l 155 203 204 205 206 207 208 209 159
l 82 210 211 212 213 214 215 129
l 129 216 217 218 219 220 94
l 95 221 222 223 224
l 224 225 226 227 103
l 104 228 229 230 231 232 233 234 131
l 131 235 236 237 238 239 240 117
l 160 241 242 243 244 128
l 104 245 246 247 123
l 123 248 95
l 82 249 250 251 104
l 117 252 128
l 94 253 254 117
l 131 295 180
l 180 300 160
l 3 301 52
l 52 298 32
l 128 303 103
l 31 255 256 257 258 259 260 261 45
l 159 262 263 264 265 266 267 268 173
l 155 269 270 271 180
l 173 272 273 274 180
l 168 275 199
l 40 276 71
l 27 277 278 279 52
l 45 280 281 282 52
l 123 283 284 285 286 160
l 141 287 288 199
l 13 289 290 71
l 160 291 224
l 32 292 99
