v 0.196365 0.10433 0.001084
v 0.196578 0.100408 -0.125541
v 0.19654 0.098439 -0.128753
v 0.196408 0.090922 -0.132839
v 0.195722 0.051586 -0.1447
v 0.195455 0.039869 -0.148761
v 0.195267 0.0353 -0.15962
v 0.195049 0.02714 -0.17836
v 0.194893 0.02233 -0.183833
v 0.194645 0.014531 -0.186359
v 0.19412 -0.002938 -0.186424
v 0.192131 -0.068806 -0.18199
v 0.191665 -0.083868 -0.179954
v 0.19144 -0.091097 -0.177536
v 0.191038 -0.097855 -0.150542
v 0.190579 -0.102553 -0.112234
v 0.190045 -0.106057 -0.059413
v 0.189649 -0.107746 -0.001462
v -0.040595 0.069227 0.000184
v -0.037623 0.068688 -0.037079
v -0.029761 0.066509 -0.060758
v -0.018256 0.063275 -0.075441
v 0.015758 0.054915 -0.100512
v 0.025659 0.053096 -0.111433
v 0.034965 0.051849 -0.126516
v 0.022541 0.047754 -0.141951
v 0.003357 0.038935 -0.161359
v -0.011779 0.029201 -0.175789
v -0.020949 0.022066 -0.183342
v -0.026148 0.016217 -0.186387
v -0.028615 0.010218 -0.185795
v -0.032468 -0.025335 -0.185208
v -0.034952 -0.050787 -0.182767
v -0.036795 -0.073407 -0.176717
v -0.037282 -0.084788 -0.16885
v -0.037619 -0.090493 -0.144978
v -0.038039 -0.095016 -0.108598
v -0.038549 -0.098968 -0.057332
v -0.038939 -0.101226 -0.001863
v 0.350959 -0.096882 -0.001044
v 0.346776 -0.096184 -0.048933
v 0.344635 -0.095958 -0.063229
v 0.331743 -0.094883 -0.127272
v 0.329393 -0.094534 -0.14956
v 0.327018 -0.094378 -0.157075
v 0.31658 -0.093874 -0.176887
v 0.31417 -0.093685 -0.185908
v 0.237616 -0.092195 -0.179113
v 0.123708 -0.08936 -0.176282
v -0.125197 -0.081858 -0.17006
v -0.306441 -0.075583 -0.182521
v -0.396027 -0.072528 -0.18538
v -0.397363 -0.072563 -0.161217
v -0.405899 -0.072492 -0.131258
v -0.433325 -0.072285 -0.043845
v -0.439204 -0.072271 -0.019557
v -0.44145 -0.072306 -0.002486
v 0.340982 -0.068691 -0.185737
v 0.369695 -0.031866 -0.185448
v 0.387538 -0.006972 -0.185231
v 0.063604 0.001458 -0.186254
v 0.017577 0.004865 -0.18605
v -0.189713 0.035567 -0.184835
v -0.228591 0.041399 -0.184664
v -0.259861 0.044305 -0.184576
v -0.293418 0.044231 -0.18454
v -0.323996 0.041267 -0.184552
v -0.37522 0.034408 -0.184595
v -0.386041 0.031779 -0.184615
v -0.391049 0.028567 -0.184644
v -0.393132 0.015538 -0.184737
v -0.393927 -0.011223 -0.184909
v -0.394742 -0.037313 -0.185091
v 0.418328 -0.008356 -0.139774
v 0.42921 -0.008916 -0.118667
v 0.436796 -0.009371 -0.098792
v 0.439831 -0.009577 -0.087737
v 0.444167 -0.009909 -0.06967
v 0.447246 -0.010304 -0.047932
v 0.448675 -0.011081 0.000203
v -0.15575 0.037747 -0.175669
v -0.107723 0.039261 -0.167741
v -0.05676 0.039645 -0.163189
v 0.232802 0.034992 -0.158415
v 0.335013 0.036169 -0.149094
v 0.387565 0.036097 -0.146569
v -0.395033 0.0285 -0.169312
v -0.41035 0.028538 -0.134826
v -0.423985 0.028777 -0.104259
v -0.435862 0.029007 -0.075047
v -0.443943 0.029131 -0.049602
v -0.449258 0.029154 -0.02316
v -0.450818 0.029075 -0.001293
v -0.375466 0.049603 -0.151579
v -0.359137 0.056165 -0.160059
v -0.348957 0.058514 -0.165712
v -0.339888 0.058681 -0.171161
v -0.332393 0.056183 -0.176233
v -0.32694 0.050539 -0.180755
v -0.42223 0.047798 -0.000936
v -0.419483 0.048705 -0.033705
v -0.411687 0.049422 -0.057867
v -0.399358 0.049972 -0.074684
v -0.383011 0.05038 -0.085418
v -0.363164 0.050669 -0.091334
v -0.340331 0.050864 -0.093693
v -0.25908 0.051118 -0.092059
v -0.229465 0.051173 -0.09282
v -0.155146 0.051334 -0.098155
v -0.093948 0.051482 -0.104393
v -0.034562 0.051644 -0.11327
v 0.075626 0.051831 -0.129472
v 0.155137 0.051809 -0.141279
v 0.231727 0.051281 -0.144367
v 0.279758 0.050869 -0.140688
v 0.387675 0.049907 -0.124896
v 0.405962 0.049637 -0.114368
v 0.439912 0.049015 -0.086178
v 0.448697 0.048443 -0.045251
v 0.451111 0.047857 0.000974
v 0.083272 0.107742 0.000873
v 0.085729 0.108032 -0.031262
v 0.092377 0.108232 -0.064635
v 0.102343 0.108336 -0.09687
v 0.114754 0.108335 -0.125589
v 0.345555 0.068112 -0.12508
v 0.294661 0.083967 -0.125309
v 0.242499 0.095417 -0.125492
v 0.161199 0.102711 -0.125535
v 0.098693 0.100287 -0.125739
v 0.077879 0.086783 -0.125967
v 0.055555 0.069934 -0.126237
v 0.034321 0.051848 -0.126519
v -0.25474 0.077464 -0.000239
v -0.254395 0.076926 -0.014916
v -0.252942 0.074199 -0.03255
v -0.250801 0.069984 -0.046055
v -0.245472 0.058425 -0.071568
v -0.245197 0.056539 -0.084252
v -0.244761 0.056694 -0.090716
v -0.242168 0.056119 -0.094146
v -0.236619 0.054175 -0.09484
v 0.387613 0.003747 -0.181717
v 0.387656 0.015524 -0.173291
v 0.387646 0.025699 -0.161893
v 0.387601 0.041666 -0.138139
v -0.191068 0.07756 -0.000102
v 0.130841 0.107924 0.000982
v 0.261237 0.097371 0.001142
v 0.307171 0.089156 0.001143
v 0.365717 0.074322 0.001095
v 0.45112 0.004096 0.000414
v 0.432811 -0.03506 -0.000114
v 0.411644 -0.055031 -0.000413
v 0.380264 -0.08157 -0.000804
v 0.364421 -0.091203 -0.000951
v 0.330277 -0.103094 -0.001152
v 0.294305 -0.106848 -0.001258
v 0.246333 -0.108336 -0.001361
v -0.175091 -0.0939 -0.002078
v -0.444491 -0.042061 -0.002143
v -0.450903 0.014449 -0.001462
v -0.45112 0.02039 -0.001385
v -0.386703 0.058076 -0.000689
v -0.323966 0.070981 -0.000434
v -0.035073 0.052945 -0.112449
v -0.103935 0.054093 -0.100674
v -0.173387 0.055291 -0.091254
v -0.284806 0.057219 -0.080722
v -0.317817 0.057765 -0.07601
v -0.344299 0.058161 -0.068835
v -0.358362 0.058334 -0.062048
v -0.374123 0.058446 -0.047911
v -0.381105 0.058414 -0.035295
v -0.385291 0.058292 -0.019681
v 0.384635 -0.043547 -0.148892
v 0.383104 -0.046054 -0.115996
v 0.380878 -0.049271 -0.101074
v 0.378118 -0.053166 -0.089959
v 0.370452 -0.063658 -0.082997
v 0.361793 -0.075533 -0.07272
v 0.359977 -0.076472 -0.090677
v 0.369261 -0.066181 -0.110468
v 0.374837 -0.06064 -0.130651
v 0.376299 -0.059215 -0.149092
v 0.429766 -0.034651 -0.035314
v 0.420811 -0.034116 -0.072652
v 0.406629 -0.033453 -0.110885
v 0.387908 -0.032662 -0.148771
v 0.37308 -0.032059 -0.174986
v 0.363404 -0.073013 -0.149268
v 0.37156 -0.065715 -0.14917
v -0.448772 0.016728 -0.090161
v -0.443157 0.018797 -0.113456
v -0.430205 0.022622 -0.120727
v -0.431029 0.026787 -0.097834
v -0.436734 0.025151 -0.089755
v -0.44469 0.022795 -0.06983
v -0.44962 0.021186 -0.040934
v -0.437056 -0.002864 -0.11385
v -0.434292 -0.008539 -0.115988
v -0.430281 -0.010956 -0.121829
v -0.421357 -0.011361 -0.137155
v -0.415059 -0.037412 -0.134645
v -0.42972 -0.038184 -0.096929
v -0.43634 -0.039135 -0.075338
v -0.440916 -0.040324 -0.052505
v -0.443587 -0.041413 -0.028187
v -0.443683 0.001247 -0.091567
v -0.433949 -0.023873 -0.096428
v 0.41008 -0.054771 -0.017116
v 0.404058 -0.054367 -0.038212
v 0.394157 -0.053874 -0.060441
v 0.436076 -0.000894 -0.099656
v 0.43224 0.009244 -0.103528
v 0.4104 0.037888 -0.123359
v 0.396179 0.041361 -0.135266
v 0.196028 0.097281 0.127753
v 0.195976 0.095232 0.130915
v 0.195826 0.087617 0.134814
v 0.195091 0.048 0.145697
v 0.194807 0.036186 0.149467
v 0.194572 0.031351 0.160208
v 0.194273 0.02273 0.17874
v 0.194094 0.017787 0.184092
v 0.193835 0.009927 0.186424
v 0.19331 -0.007538 0.186055
v 0.191344 -0.073276 0.179987
v 0.190888 -0.088283 0.177578
v 0.190674 -0.095451 0.174981
v 0.19039 -0.101539 0.147826
v 0.190097 -0.10529 0.109411
v 0.189794 -0.107489 0.056516
v -0.037784 0.067768 0.037441
v -0.030026 0.065004 0.061104
v -0.018585 0.061409 0.075771
v 0.01532 0.052429 0.100815
v 0.025174 0.05034 0.111736
v 0.034415 0.048721 0.126827
v 0.021923 0.044246 0.142102
v 0.002657 0.034952 0.161202
v -0.012542 0.024865 0.175322
v -0.021745 0.017547 0.182657
v -0.026956 0.011624 0.185533
v -0.02942 0.005642 0.184783
v -0.033269 -0.029885 0.183302
v -0.035741 -0.055269 0.180222
v -0.037556 -0.077733 0.173607
v -0.038008 -0.088916 0.165459
v -0.038241 -0.09403 0.141456
v -0.038502 -0.097654 0.104979
v -0.03879 -0.100338 0.053638
v 0.346568 -0.097368 0.046968
v 0.344364 -0.097495 0.061255
v 0.331194 -0.098001 0.125249
v 0.328748 -0.098202 0.147529
v 0.32634 -0.098232 0.155034
v 0.315816 -0.098217 0.174807
v 0.313367 -0.098251 0.18382
v 0.236843 -0.096589 0.176731
v 0.122948 -0.093679 0.173475
v -0.125928 -0.086012 0.16636
v -0.307225 -0.080038 0.178183
v -0.396823 -0.077049 0.180728
v -0.398054 -0.076488 0.156566
v -0.40646 -0.075676 0.126581
v -0.433505 -0.073308 0.03896
v -0.439278 -0.072693 0.014609
v 0.340177 -0.073262 0.184383
v 0.36889 -0.036442 0.185128
v 0.386732 -0.011551 0.185603
v 0.062796 -0.003132 0.185426
v 0.016771 0.000282 0.185106
v -0.190514 0.031016 0.183749
v -0.229392 0.036852 0.183553
v -0.260661 0.039761 0.183401
v -0.294217 0.03969 0.183218
v -0.324795 0.036728 0.183023
v -0.376018 0.029872 0.182674
v -0.386839 0.027245 0.182583
v -0.391847 0.024033 0.182511
v -0.39393 0.011006 0.182273
v -0.394724 -0.01575 0.18178
v -0.395539 -0.041837 0.181314
v 0.417719 -0.011815 0.14026
v 0.428693 -0.011853 0.119193
v 0.436366 -0.011818 0.099345
v 0.439449 -0.011751 0.088302
v 0.443863 -0.011637 0.070232
v 0.447037 -0.011494 0.048444
v -0.156512 0.033419 0.174787
v -0.108451 0.035126 0.167108
v -0.057468 0.03562 0.162788
v 0.232112 0.03107 0.159159
v 0.334362 0.032471 0.150315
v 0.386925 0.032459 0.148017
v -0.395764 0.024346 0.167164
v -0.410931 0.025236 0.132623
v -0.424433 0.02623 0.102012
v -0.436184 0.027183 0.072707
v -0.444153 0.027936 0.047143
v -0.449353 0.028614 0.020602
v -0.376121 0.045878 0.150043
v -0.35983 0.052228 0.158753
v -0.349675 0.054436 0.164506
v -0.340629 0.054468 0.169997
v -0.333156 0.051845 0.175039
v -0.327723 0.046091 0.179443
v -0.419625 0.047895 0.031861
v -0.411934 0.048015 0.056077
v -0.399678 0.048149 0.072971
v -0.383379 0.04829 0.083802
v -0.363557 0.048432 0.089829
v -0.340735 0.048567 0.092311
v -0.259478 0.048856 0.091081
v -0.229867 0.04889 0.091975
v -0.155571 0.048917 0.097636
v -0.094401 0.048907 0.104142
v -0.035054 0.048847 0.113277
v 0.033772 0.048706 0.126826
v 0.033796 0.048674 0.126826
v 0.03381 0.048666 0.126826
v 0.033872 0.048651 0.126826
v 0.033899 0.048649 0.126825
v 0.033929 0.048648 0.126826
v 0.033963 0.048648 0.126825
v 0.034 0.048651 0.126825
v 0.034291 0.048694 0.126826
v 0.034351 0.048707 0.126827
v 0.075062 0.048628 0.129958
v 0.154521 0.048309 0.142106
v 0.231097 0.047702 0.145513
v 0.279143 0.047378 0.142033
v 0.387128 0.0468 0.126692
v 0.405461 0.046789 0.11624
v 0.439533 0.046862 0.088191
v 0.448496 0.047302 0.047236
v 0.085589 0.107238 0.033045
v 0.092092 0.106612 0.066509
v 0.101918 0.105919 0.098847
v 0.114203 0.105208 0.127642
v 0.345008 0.064997 0.127142
v 0.294112 0.080845 0.127541
v 0.241948 0.09229 0.127781
v 0.160649 0.099584 0.127651
v 0.098143 0.09716 0.127523
v 0.077329 0.083656 0.127327
v 0.055005 0.066806 0.127084
v 0.034351 0.048706 0.126826
v 0.033899 0.048648 0.126826
v 0.03377 0.048719 0.126827
v -0.254459 0.076563 0.014427
v -0.253082 0.073402 0.032019
v -0.251 0.068854 0.045466
v -0.245781 0.056667 0.070819
v -0.245561 0.054467 0.083474
v -0.245154 0.054463 0.089942
v -0.242576 0.053804 0.093368
v -0.237029 0.051843 0.094038
v 0.386821 -0.000749 0.182355
v 0.386901 0.011233 0.174223
v 0.386939 0.021686 0.16308
v 0.386997 0.038235 0.139728
v -0.035562 0.050168 0.112487
v -0.104373 0.051609 0.100444
v -0.173783 0.053044 0.090756
v -0.285155 0.055237 0.079787
v -0.318145 0.055901 0.074939
v -0.344596 0.056476 0.06765
v -0.358629 0.056818 0.0608
v -0.374328 0.057279 0.046592
v -0.381255 0.057559 0.033943
v -0.385374 0.057823 0.018309
v 0.383989 -0.047218 0.148359
v 0.382601 -0.048912 0.115405
v 0.380441 -0.051758 0.100399
v 0.377729 -0.055378 0.089179
v 0.370093 -0.065695 0.081927
v 0.36148 -0.077312 0.071323
v 0.359586 -0.078694 0.089242
v 0.368783 -0.068894 0.109322
v 0.374271 -0.063854 0.12966
v 0.375653 -0.062886 0.148136
v 0.429614 -0.035521 0.035096
v 0.420495 -0.035907 0.072452
v 0.406147 -0.036188 0.110685
v 0.387261 -0.036333 0.148521
v 0.37232 -0.036377 0.174679
v 0.362757 -0.076683 0.147915
v 0.370914 -0.069385 0.148033
v -0.449158 0.014534 0.087514
v -0.443645 0.016027 0.110877
v -0.430724 0.01967 0.118296
v -0.431449 0.024399 0.095503
v -0.437119 0.022964 0.087344
v -0.444988 0.021102 0.067275
v -0.449792 0.020208 0.038243
v -0.437545 -0.005637 0.110762
v -0.434789 -0.011364 0.112771
v -0.430804 -0.013924 0.118568
v -0.421946 -0.014708 0.133918
v -0.415636 -0.04069 0.130793
v -0.430133 -0.040529 0.093007
v -0.436658 -0.040946 0.071334
v -0.441135 -0.04157 0.048378
v -0.4437 -0.042056 0.023949
v -0.444075 -0.000977 0.088559
v -0.434361 -0.02621 0.09284
v 0.410007 -0.055184 0.016303
v 0.403894 -0.055301 0.037431
v 0.393896 -0.055357 0.059685
v 0.43564 -0.003365 0.100416
v 0.431788 0.006676 0.10452
v 0.409861 0.034821 0.124958
v 0.395588 0.038 0.136884
v 0.380467 -0.051381 -0.148992
v -0.422885 -0.040609 0.1119
v 0.378617 -0.019419 -0.185339
v 0.387638 0.045786 -0.131518
v 0.440743 -0.02307 4.4e-05
v 0.377811 -0.023997 0.185366
v -0.410479 -0.054952 -0.132952
v -0.417682 0.025733 0.117318
v 0.345706 -0.096071 -0.056081
v -0.408335 -0.015229 0.157849
v 0.098614 0.033152 0.160705
v 0.345466 -0.097432 0.054112
v 0.021339 0.088484 0.000528
v 0.379821 -0.055052 0.148248
v -0.445964 0.017762 -0.101809
v 0.348764 -0.097125 0.022962
v -0.447697 -0.013806 -0.001803
v -0.405587 -0.041264 0.156054
v -0.407642 -0.011292 -0.161032
v -0.418208 -0.024387 -0.1359
v -0.404466 0.052937 -0.000813
v -0.404901 -0.037363 -0.159868
v 0.099312 0.037118 -0.160489
v -0.109967 0.018329 0.184266
v -0.45003 0.014491 0.043026
v -0.417167 0.028657 -0.119543
v -0.451011 0.01742 -0.001424
v 0.422227 -0.045045 -0.000264
v 0.196472 0.102369 -0.062228
v -0.411048 -0.058183 0.128687
v 0.387063 0.042517 0.13321
v 0.034145 0.048672 0.126826
v 0.439491 0.017555 0.088247
v -0.436524 0.038436 -0.001115
v -0.446401 0.01528 0.099195
v -0.396181 -0.059443 0.181021
v 0.387583 0.038881 -0.142354
v 0.075355 -0.104486 -0.001662
v 0.290021 -0.009545 0.185829
v -0.449837 0.015588 -0.045812
v 0.386271 -0.038105 -0.148831
v -0.42239 -0.037798 -0.115787
v 0.196196 0.100805 0.064418
v 0.437907 -0.011784 0.093824
v 0.439872 0.019719 -0.086958
v -0.109164 0.022893 -0.185315
v 0.290829 -0.004955 -0.185827
v 0.386961 0.035347 0.143872
v -0.418791 -0.027699 0.132355
v -0.395385 -0.054921 -0.185235
v 0.348868 -0.096533 -0.024989
v -0.442971 -0.057183 -0.002315
v 0.438314 -0.009474 -0.093264
v -0.395131 -0.028794 0.181547
v 0.385625 -0.041775 0.14844
v -0.450969 0.024733 -0.001339
v -0.394335 -0.024268 -0.185
l 1 444 2
l 2 3 4 5
l 5 6 7
l 7 8 9 10 11
l 11 12 13 14
l 14 15 16 17 18
l 19 20 21 22 23 24 25
l 25 26 27
l 27 28 29 30 31
l 31 32 33 34 35
l 35 36 37 38 39
l 40 466 41
l 41 424 42
l 42 43 44
l 44 45 46 47
l 47 48 14
l 14 49 35
l 35 50 51 52
l 52 53 54
l 54 55 56 57
l 47 58 59
l 59 418 60
l 60 462 11
l 11 61 62 31
l 31 461 63
l 63 64 65 66 67
l 67 68 69 70
l 70 71 72
l 72 472 73
l 73 465 52
l 60 74 75 76
l 76 468 77
l 77 78 79 80
l 63 81 82 83 27
l 27 438 7
l 7 84 85 86
l 70 87 88
l 88 441 89
l 89 90 91 92 93
l 88 94 95 96 97 98 99 67
l 100 101 102 103 104 105 106 107 108
l 108 109 110 111 25
l 25 112 113 5
l 5 114 115 116
l 116 117 118
l 118 119 120
l 121 122 123 124 125
l 116 126 127 128 2
l 2 129 125
l 125 130 131 132 25
l 25 133
l 134 135 136 137 138 139
l 139 140 141 142 108
l 60 143 144 145 86
l 86 452 146
l 146 419 116
l 134 147 19
l 19 428 121
l 121 148 1
l 1 149 150 151 120
l 120 152 80
l 80 420 153
l 153 443 154
l 154 155 156 40
l 40 157 158 159 18
l 18 453 39
l 39 160 57
l 57 467 161
l 161 432 162
l 162 442 163
l 163 471 93
l 93 449 100
l 100 436 164
l 164 165 134
l 25 166 167 168 139
l 139 169 170 171 172 173 174 175 164
l 176 177 178 179
l 179 180 181 41
l 42 182 183 184 185
l 153 186 187 188 189
l 189 190 59
l 44 191 192 185
l 185 416 176
l 176 456 189
l 162 455 193
l 193 430 194
l 194 195 88
l 89 196 197 198 199 163
l 194 200 201 202 203
l 203 434 72
l 203 435 204
l 204 422 54
l 73 437 204
l 204 457 205
l 205 206 207 208 161
l 193 209 210 205
l 154 211 212 213 179
l 118 460 77
l 76 214 215 216 217 146
l 1 458 218
l 218 219 220 221
l 221 222 223
l 223 224 225 226 227
l 227 228 229 230
l 230 231 232 233 18
l 19 234 235 236 237 238 239
l 239 240 241
l 241 242 243 244 245
l 245 246 247 248 249
l 249 250 251 252 39
l 40 431 253
l 253 427 254
l 254 255 256
l 256 257 258 259
l 259 260 230
l 230 261 249
l 249 262 263 264
l 264 265 266
l 266 267 268 57
l 259 269 270
l 270 421 271
l 271 454 227
l 227 272 273 245
l 245 439 274
l 274 275 276 277 278
l 278 279 280 281
l 281 282 283
l 283 469 284
l 284 451 264
l 271 285 286 287
l 287 459 288
l 288 289 290 80
l 274 291 292 293 241
l 241 426 223
l 223 294 295 296
l 281 297 298
l 298 423 299
l 299 300 301 302 93
l 298 303 304 305 306 307 308 278
l 100 309 310 311 312 313 314 315 316
l 316 317 318 319 320
l 320 321
l 321 322
l 322 323
l 323 324 325
l 325 326 327
l 327 447 328
l 328 329 239
l 239 330 331 221
l 221 332 333 334
l 334 335 336
l 336 337 120
l 121 338 339 340 341
l 334 342 343 344 218
l 218 345 341
l 341 346 347 348 239
l 239 349 328
l 325 350 323
l 320 351
l 134 352 353 354 355 356
l 356 357 358 359 316
l 271 360 361 362 296
l 296 463 363
l 363 446 334
l 239 364 365 366 356
l 356 367 368 369 370 371 372 373 164
l 374 375 376 377
l 377 378 379 253
l 254 380 381 382 383
l 153 384 385 386 387
l 387 388 270
l 256 389 390 383
l 383 429 374
l 374 470 387
l 162 440 391
l 391 450 392
l 392 393 298
l 299 394 395 396 397 163
l 392 398 399 400 401
l 401 425 283
l 401 464 402
l 402 445 266
l 284 433 402
l 402 417 403
l 403 404 405 406 161
l 391 407 408 403
l 154 409 410 411 377
l 336 448 288
l 287 412 413 414 415 363
