v -0.050117 0.093697 0.118131
v -0.042184 0.079519 0.112009
v -0.035802 0.070780 0.105562
v -0.028210 0.065304 0.097597
v -0.022593 0.064196 0.091790
v -0.016930 0.065323 0.086030
v -0.009167 0.070825 0.078245
v -0.002896 0.079587 0.071721
v 0.002988 0.093807 0.063731
v -0.149288 0.052703 0.154705
v -0.163529 0.059239 0.151292
v -0.176037 0.068602 0.146385
v -0.185631 0.080335 0.140228
v -0.189537 0.093420 0.133382
v -0.185673 0.106538 0.126567
v -0.176115 0.118335 0.120454
v -0.163643 0.127744 0.115565
v -0.149448 0.134280 0.112123
v -0.149034 -0.085188 0.264096
v -0.149022 -0.100477 0.272485
v -0.149016 -0.116205 0.285348
v -0.148947 -0.141859 0.316144
v -0.149026 -0.084925 0.368203
v -0.149076 -0.070512 0.370370
v -0.149206 -0.016585 0.365668
v -0.149314 0.045602 0.353374
v -0.149363 0.075142 0.341765
v -0.149403 0.099244 0.329251
v -0.149426 0.113552 0.318254
v -0.149455 0.132568 0.298721
v -0.149473 0.145755 0.280387
v -0.149485 0.154898 0.259726
v -0.149490 0.161554 0.233331
v -0.149489 0.163673 0.210809
v -0.149482 0.162265 0.188213
v -0.149466 0.156510 0.161649
v -0.149440 0.147028 0.136182
v -0.120706 -0.084191 0.349671
v -0.096217 -0.085471 0.325428
v -0.169441 -0.084322 0.356208
v -0.183058 -0.084632 0.343247
v -0.192524 -0.085264 0.327499
v -0.194613 -0.085471 0.316129
v -0.130218 -0.133144 0.319446
v -0.114306 -0.119806 0.322268
v -0.102551 -0.102807 0.324364
v -0.167640 -0.133890 0.316154
v -0.181885 -0.120336 0.316175
v -0.190736 -0.102738 0.316188
v -0.149514 0.008891 0.160186
v -0.041994 0.106797 0.111765
v -0.035583 0.114636 0.105261
v -0.022694 0.120409 0.091790
v -0.009538 0.114680 0.078547
v -0.003183 0.106865 0.071965
v -0.195746 -0.025862 0.313952
v -0.195635 0.032257 0.306103
v -0.195325 0.077713 0.291900
v -0.195100 0.093469 0.282647
v -0.194746 0.110624 0.268678
v -0.194528 0.117486 0.260271
v -0.194174 0.123320 0.247070
v -0.193683 0.126689 0.228905
v -0.193186 0.126602 0.210661
v -0.192588 0.120256 0.189745
v -0.149068 -0.072135 0.261614
v -0.149188 -0.013762 0.262999
v -0.149305 0.052885 0.260567
v -0.149366 0.087733 0.254547
v -0.149396 0.105968 0.247142
v -0.149406 0.113121 0.238834
v -0.149409 0.115160 0.231677
v -0.149406 0.114958 0.223967
v -0.149397 0.111038 0.212855
v -0.149371 0.098595 0.197538
v -0.134308 0.058711 0.151599
v -0.121612 0.067909 0.146808
v -0.112424 0.079924 0.140530
v -0.108896 0.093585 0.133393
v -0.112468 0.107239 0.126289
v -0.121693 0.119223 0.120055
v -0.134424 0.128368 0.115271
v 0.286606 0.009772 0.007667
v 0.282126 0.009660 0.041405
v 0.268877 0.009600 0.080828
v 0.253826 0.009585 0.103720
v 0.232369 0.009543 0.120582
v 0.206526 0.009484 0.129944
v 0.179205 0.009469 0.133015
v 0.144592 0.009457 0.131177
v 0.090824 0.008403 0.123596
v -0.149459 0.148692 0.093665
v -0.149429 0.158058 0.072415
v -0.149332 0.163234 0.044811
v -0.151779 0.163913 0.007565
v 0.077487 0.008732 0.124702
v -0.010312 0.009119 0.144198
v -0.069951 0.009012 0.154893
v 0.090239 0.023950 0.108970
v 0.089776 0.040511 0.075399
v 0.089843 0.046364 0.049870
v 0.089959 0.049906 0.007622
v -0.291299 0.009748 0.007668
v -0.290748 0.016609 0.022722
v -0.284669 0.043701 0.059296
v -0.276873 0.056904 0.079053
v -0.264602 0.068915 0.097193
v -0.247752 0.079282 0.112536
v -0.232506 0.085332 0.121452
v -0.215383 0.089745 0.127966
v -0.069251 0.093660 0.124787
v 0.089959 -0.174545 0.007622
v 0.090162 -0.170679 0.039963
v 0.090212 -0.159021 0.077646
v 0.090159 -0.145209 0.099710
v 0.090124 -0.125376 0.116523
v 0.090096 -0.101300 0.126708
v 0.090014 -0.075567 0.130841
v 0.090304 -0.015593 0.129112
v -0.148557 -0.184549 0.007568
v -0.148828 -0.179893 0.050778
v -0.148892 -0.170234 0.085829
v -0.148898 -0.156896 0.111506
v -0.148939 -0.137404 0.132811
v -0.148993 -0.112800 0.148037
v -0.149039 -0.078081 0.158426
v -0.149106 -0.041946 0.161730
v -0.050066 0.093697 -0.102943
v -0.042136 0.079519 -0.096817
v -0.035757 0.070780 -0.090368
v -0.028170 0.065302 -0.082401
v -0.022556 0.064196 -0.076590
v -0.016895 0.065322 -0.070827
v -0.009134 0.070825 -0.063039
v -0.002867 0.079587 -0.056514
v 0.003014 0.093807 -0.048521
v -0.149228 0.052704 -0.139552
v -0.163464 0.059239 -0.136155
v -0.175973 0.068602 -0.131257
v -0.185571 0.080336 -0.125102
v -0.189480 0.093419 -0.118257
v -0.185619 0.106538 -0.111441
v -0.176064 0.118335 -0.105325
v -0.163593 0.127743 -0.100429
v -0.149401 0.134280 -0.096981
v -0.148919 -0.085260 -0.248871
v -0.148902 -0.100752 -0.257021
v -0.148886 -0.116593 -0.269763
v -0.148821 -0.141902 -0.300992
v -0.148860 -0.085024 -0.353170
v -0.148911 -0.070477 -0.355181
v -0.149043 -0.016588 -0.350529
v -0.149157 0.045601 -0.338232
v -0.149211 0.075141 -0.326622
v -0.149256 0.099243 -0.314109
v -0.149283 0.113552 -0.303112
v -0.149321 0.132566 -0.283578
v -0.149348 0.145755 -0.265245
v -0.149370 0.154897 -0.244583
v -0.149388 0.161554 -0.218190
v -0.149396 0.163673 -0.195667
v -0.149399 0.162264 -0.173071
v -0.149396 0.156510 -0.146507
v -0.149380 0.147028 -0.121039
v -0.120627 -0.084281 -0.334353
v -0.096346 -0.087701 -0.310212
v -0.169264 -0.084318 -0.341062
v -0.182881 -0.084625 -0.328095
v -0.192360 -0.085265 -0.312364
v -0.194458 -0.085475 -0.301007
v -0.128933 -0.132215 -0.304500
v -0.117465 -0.122806 -0.306529
v -0.103962 -0.105403 -0.308922
v -0.167502 -0.133895 -0.301019
v -0.181742 -0.120331 -0.301047
v -0.190587 -0.102738 -0.301064
v -0.149360 0.008890 -0.145144
v -0.041946 0.106797 -0.096574
v -0.035539 0.114636 -0.090066
v -0.022655 0.120408 -0.076590
v -0.009506 0.114681 -0.063343
v -0.003153 0.106865 -0.056758
v -0.094431 -0.073401 -0.310368
v -0.095588 -0.013667 -0.308325
v -0.096190 0.050489 -0.300914
v -0.097232 0.100609 -0.285576
v -0.098446 0.126751 -0.266755
v -0.099249 0.136587 -0.254100
v -0.099940 0.140826 -0.243103
v -0.101190 0.142268 -0.223009
v -0.102429 0.139716 -0.202954
v -0.103805 0.130931 -0.180604
v -0.108839 0.093586 -0.118232
v -0.195607 -0.025862 -0.298831
v -0.195498 0.032257 -0.290981
v -0.195195 0.077713 -0.276778
v -0.194974 0.093469 -0.267526
v -0.194627 0.110623 -0.253556
v -0.194412 0.117486 -0.245150
v -0.194066 0.123319 -0.231947
v -0.193581 0.126689 -0.213782
v -0.193093 0.126600 -0.195539
v -0.192505 0.120256 -0.174621
v -0.148954 -0.072109 -0.246508
v -0.149072 -0.013763 -0.247857
v -0.149190 0.052884 -0.245424
v -0.149253 0.087733 -0.239404
v -0.149287 0.105966 -0.231999
v -0.149301 0.113121 -0.223692
v -0.149306 0.115159 -0.216535
v -0.149307 0.114956 -0.208824
v -0.149303 0.111036 -0.197712
v -0.149285 0.098594 -0.182396
v -0.134243 0.058709 -0.136449
v -0.121548 0.067908 -0.131655
v -0.112364 0.079923 -0.125371
v -0.112415 0.107238 -0.111130
v -0.121642 0.119223 -0.104900
v -0.134375 0.128367 -0.100122
v 0.282140 0.009659 -0.026073
v 0.268909 0.009600 -0.065500
v 0.253865 0.009585 -0.088397
v 0.232417 0.009543 -0.105267
v 0.206579 0.009483 -0.114640
v 0.179254 0.009469 -0.117722
v 0.144648 0.009456 -0.115899
v 0.090839 0.008404 -0.108349
v 0.077224 0.008733 -0.109506
v -0.013478 0.009112 -0.129654
v -0.071208 0.009009 -0.139919
v 0.090271 0.023948 -0.093723
v 0.089809 0.040511 -0.060151
v 0.089861 0.046363 -0.034624
v -0.289723 0.025998 -0.018465
v -0.284666 0.043401 -0.044167
v -0.276832 0.056748 -0.063942
v -0.264556 0.068968 -0.082114
v -0.247703 0.079306 -0.097444
v -0.232455 0.085325 -0.106347
v -0.215328 0.089735 -0.112851
v -0.069197 0.093660 -0.109608
v 0.090178 -0.170679 -0.024719
v 0.090243 -0.159021 -0.062399
v 0.090201 -0.145207 -0.084462
v 0.090175 -0.125373 -0.101273
v 0.090150 -0.101297 -0.111455
v 0.090071 -0.075565 -0.115589
v 0.090344 -0.015591 -0.113861
v -0.148808 -0.179893 -0.035642
v -0.148856 -0.170232 -0.070692
v -0.148852 -0.156892 -0.096366
v -0.148882 -0.137401 -0.117670
v -0.148928 -0.112797 -0.132898
v -0.148974 -0.078078 -0.143279
v -0.149039 -0.041945 -0.146583
v -0.286894 0.034303 0.007588
v -0.278727 0.060766 0.007527
v -0.269835 0.079106 0.007530
v -0.253949 0.100686 0.007544
v -0.234325 0.118965 0.007548
v -0.212235 0.134257 0.007552
v -0.126619 0.173459 0.007571
v -0.106040 0.178058 0.007576
v -0.084048 0.177961 0.007582
v -0.062827 0.172863 0.007586
v -0.051435 0.166807 0.007589
v -0.038145 0.155627 0.007592
v 0.017105 0.093447 0.007605
v 0.109698 0.050211 0.007626
v 0.169823 0.060192 0.007639
v 0.209844 0.058297 0.007649
v 0.228935 0.052647 0.007654
v 0.253068 0.039766 0.007659
v 0.275093 0.022914 0.007663
v 0.076984 0.053576 0.007619
v 0.057570 0.063784 0.007614
v 0.015940 -0.156420 0.007604
v -0.009367 -0.153972 0.007599
v -0.029575 -0.156428 0.007595
v -0.093797 -0.173386 0.007580
v 0.155323 -0.170487 0.007637
v 0.199072 -0.160660 0.007647
v 0.229446 -0.149053 0.007654
v 0.262524 -0.125210 0.007660
v 0.278890 -0.102196 0.007665
v 0.291219 -0.067637 0.007667
v 0.291299 -0.006817 0.007667
v -0.290703 -0.057127 0.007536
v -0.284969 -0.106135 0.007535
v -0.277337 -0.133711 0.007538
v -0.263748 -0.159222 0.007541
v -0.249347 -0.173260 0.007544
v -0.222487 -0.183369 0.007550
v -0.193948 -0.186942 0.007557
v -0.036702 0.093716 0.109766
v -0.026706 0.093727 0.100308
v -0.005269 0.093790 0.077242
v 0.014222 0.093584 0.030292
v 0.014232 0.093585 -0.015080
v -0.036656 0.093715 -0.094571
v -0.026664 0.093725 -0.085110
v -0.005236 0.093790 -0.062035
v -0.094737 -0.071017 0.325493
v -0.095746 -0.013063 0.323439
v -0.096375 0.053486 0.315437
v -0.097391 0.101376 0.300351
v -0.097951 0.115626 0.291661
v -0.098667 0.128240 0.280412
v -0.099516 0.137764 0.266901
v -0.100244 0.141427 0.255201
v -0.101279 0.142315 0.238438
v -0.102554 0.139574 0.217627
v -0.103973 0.130258 0.194505
v -0.104611 -0.084410 0.306250
v -0.116468 -0.084157 0.289053
v -0.131450 -0.084411 0.274719
v -0.192511 -0.085256 0.304778
v -0.183031 -0.084608 0.289090
v -0.169409 -0.084313 0.276167
v -0.149027 -0.116266 0.346990
v -0.149022 -0.100638 0.359892
v -0.182422 0.008814 0.153940
v -0.215213 0.008757 0.144308
v -0.235897 0.008717 0.132149
v -0.253721 0.008688 0.115470
v -0.268628 0.008700 0.096329
v -0.276519 0.008599 0.078784
v -0.289886 0.010645 0.021966
v -0.104554 -0.085373 -0.291124
v -0.116347 -0.084401 -0.273939
v -0.131322 -0.084389 -0.259569
v -0.148869 -0.116787 -0.332438
v -0.148860 -0.101004 -0.345174
v -0.192358 -0.085259 -0.289667
v -0.182876 -0.084601 -0.273985
v -0.169269 -0.084311 -0.261043
v -0.181107 0.008816 -0.139457
v -0.216894 0.008753 -0.128469
v -0.232903 0.008725 -0.119286
v -0.253627 0.008689 -0.100370
v -0.268096 0.008649 -0.082104
v -0.275965 0.008660 -0.065379
v -0.288902 0.008153 -0.010915
v -0.149316 0.163234 -0.029675
v -0.149399 0.158057 -0.057277
v -0.149419 0.148691 -0.078524
v -0.149295 0.030797 -0.142348
v -0.149401 0.030797 0.157445
l 1 2 3 4 5 6 7 8 9
l 10 11 12 13 14
l 14 15 16 17 18
l 19 20 21 22
l 23 24 25 26 27 28 29 30 31 32 33 34 35 36 37 18
l 23 38 39
l 23 40 41 42 43
l 22 44 45 46 39
l 22 47 48 49 43
l 10 348 50
l 1 51 52 53 54 55 9
l 43 56 57 58 59 60 61 62 63 64 65 14
l 19 66 67 68 69 70 71 72 73 74 75 10
l 10 76 77 78 79
l 79 80 81 82 18
l 83 84 85 86 87 88 89 90 91
l 18 92 93 94 95
l 91 96 97 98 50
l 91 99 100 101 102
l 103 104 105 106 107 108 109 110 14
l 79 111 1
l 112 113 114 115 116 117 118 119 91
l 120 121 122 123 124 125 126 127 50
l 128 129 130 131 132 133 134 135 136
l 137 138 139 140 141
l 141 142 143 144 145
l 146 147 148 149
l 150 151 152 153 154 155 156 157 158 159 160 161 162 163 164 145
l 150 165 166
l 150 167 168 169 170
l 149 171 172 173 166
l 149 174 175 176 170
l 137 347 177
l 128 178 179 180 181 182 136
l 166 183 184 185 186 187 188 189 190 191 192 193
l 170 194 195 196 197 198 199 200 201 202 203 141
l 146 204 205 206 207 208 209 210 211 212 213 137
l 137 214 215 216 193
l 193 217 218 219 145
l 83 220 221 222 223 224 225 226 227
l 227 228 229 230 177
l 227 231 232 233 102
l 103 234 235 236 237 238 239 240 141
l 193 241 128
l 112 242 243 244 245 246 247 248 227
l 120 249 250 251 252 253 254 255 177
l 103 256 257 258 259 260 261 95
l 95 262 263 264 265 266 267 268
l 102 269 270 271 272 273 274 83
l 102 275 276 268
l 112 277 278 279 280 120
l 112 281 282 283 284 285 286 287 83
l 103 288 289 290 291 292 293 294 120
l 1 295 296 297 9
l 9 298 268
l 136 299 268
l 128 300 301 302 136
l 39 303 304 305 306 307 308 309 310 311 312 313 79
l 39 314 315 316 19
l 43 317 318 319 19
l 22 320 321 23
l 50 322 323 324 325 326 327 328 103
l 166 329 330 331 146
l 149 332 333 150
l 170 334 335 336 146
l 177 337 338 339 340 341 342 343 103
l 95 344 345 346 145
