v 0.058227 -0.097799 0.230758
v 0.047077 -0.089305 0.233940
v 0.035819 -0.085185 0.240196
v 0.062639 -0.110499 0.235687
v 0.062352 -0.120994 0.242486
v 0.081534 -0.086620 0.188385
v 0.033363 -0.086299 0.250876
v 0.030976 -0.087514 0.261583
v 0.037646 -0.067808 0.198235
v 0.091501 -0.124458 0.192378
v 0.057996 -0.122802 0.252416
v 0.053621 -0.124479 0.262374
v 0.060225 -0.075269 0.192756
v 0.149050 -0.047851 0.108577
v 0.043239 -0.104848 0.272327
v 0.016816 -0.093570 0.247087
v 0.005338 -0.096382 0.213358
v 0.019695 -0.079529 0.205866
v 0.076538 -0.041478 0.119731
v 0.127037 -0.108654 0.138013
v 0.164611 -0.094511 0.087477
v 0.068060 -0.135678 0.201585
v 0.043508 -0.141737 0.210172
v 0.046058 -0.134584 0.244465
v 0.113753 -0.040497 0.114788
v 0.204616 0.021539 0.042600
v 0.035154 -0.109246 0.267123
v 0.027108 -0.113381 0.256731
v 0.011164 -0.120642 0.216089
v 0.047810 -0.070236 0.111229
v 0.060669 -0.053931 0.116161
v 0.069339 -0.025217 0.099332
v 0.058649 -0.008275 0.082511
v 0.043025 0.009626 0.070752
v 0.023911 0.028207 0.062571
v 0.093625 -0.007000 0.088587
v 0.102015 0.035131 0.065060
v 0.140176 -0.108036 0.084757
v 0.114544 -0.116118 0.084437
v 0.198082 -0.075043 0.055763
v 0.232956 -0.057705 0.028470
v 0.220626 -0.021609 0.040307
v 0.223944 0.079835 0.014363
v 0.298518 0.029838 0.017915
v 0.394650 0.042141 0.000419
v 0.153134 0.026841 0.055400
v 0.039035 -0.110898 0.153926
v 0.072173 -0.099556 0.096257
v 0.046297 -0.055409 0.086168
v 0.041757 -0.039001 0.063490
v 0.032939 -0.020358 0.044184
v 0.021095 -0.000136 0.027261
v -0.050434 0.047202 0.061029
v 0.016354 0.012668 0.044147
v 0.056798 0.035296 0.063653
v 0.086083 0.092759 0.040592
v 0.146381 -0.107859 0.035367
v 0.177908 -0.093595 -0.015148
v 0.308111 -0.024728 -0.004081
v 0.392596 -0.002434 -0.026174
v 0.238843 -0.061531 -0.002071
v 0.240997 -0.062397 -0.031323
v 0.237873 -0.059074 -0.058755
v 0.231018 -0.052790 -0.084898
v 0.209279 -0.082867 0.009174
v 0.081422 -0.085967 0.042681
v 0.095610 -0.069255 -0.008785
v 0.135534 -0.083388 -0.012457
v 0.393789 0.019080 -0.010952
v 0.388792 -0.018941 -0.055271
v 0.384568 -0.031337 -0.086482
v 0.232922 -0.049188 -0.117682
v 0.233558 -0.050641 -0.149581
v 0.170089 -0.038697 -0.081447
v 0.110314 -0.022443 -0.072309
v 0.055340 -0.037448 0.007994
v -0.068501 0.028279 0.021757
v 0.027472 0.006895 -0.056870
v -0.068919 0.025016 -0.050209
v 0.111335 -0.017318 -0.109101
v 0.109576 -0.025887 -0.152141
v 0.304907 0.087364 -0.001572
v 0.386071 0.097199 -0.011964
v 0.219167 0.118270 -0.027503
v 0.390238 0.070862 -0.003131
v 0.384090 -0.036135 -0.147308
v 0.232882 -0.046623 -0.179002
v 0.231752 -0.037946 -0.208462
v -0.059520 0.035672 0.043892
v -0.039819 0.071987 0.066295
v -0.031476 0.095468 0.065227
v -0.187691 0.045425 0.059348
v 0.029446 0.094741 0.056481
v 0.079990 0.129151 0.001281
v -0.071181 0.037089 0.001208
v -0.072060 0.048726 -0.015822
v -0.194110 0.035106 0.023340
v -0.148816 0.023952 -0.056426
v -0.230690 0.018219 -0.061369
v -0.079821 0.028416 -0.109919
v -0.061796 0.005907 -0.151274
v 0.105097 -0.048135 -0.215628
v 0.380090 0.124833 -0.047409
v 0.299292 0.119589 -0.038281
v 0.217741 0.129646 -0.061371
v 0.216867 0.135267 -0.095293
v -0.029787 0.114723 0.046083
v -0.030505 0.129194 0.024729
v -0.190689 0.091032 0.065273
v -0.319206 0.037084 0.049976
v -0.190060 0.037554 0.044228
v -0.188584 0.069403 0.065802
v 0.024924 0.132326 0.015398
v 0.079574 0.137770 -0.041048
v 0.080117 0.141737 -0.084403
v 0.377076 0.140510 -0.106977
v 0.217371 0.121206 -0.170640
v 0.385444 -0.027841 -0.171477
v 0.386841 -0.015261 -0.194585
v 0.230300 -0.024184 -0.224840
v 0.228453 -0.005824 -0.238037
v 0.309397 -0.024856 -0.199907
v -0.068205 0.081398 -0.020895
v -0.052458 0.112058 -0.019076
v -0.202842 0.062943 -0.006756
v -0.228619 0.045805 -0.032160
v -0.128921 0.100657 -0.009881
v -0.204894 0.092330 -0.003522
v -0.040518 0.122371 0.001041
v -0.137580 0.091642 -0.033093
v -0.226013 0.074452 -0.044639
v -0.048745 0.126351 -0.050169
v -0.046150 0.136074 -0.085300
v -0.204601 0.080016 -0.007646
v -0.316133 0.039847 -0.009485
v -0.198716 0.047870 0.006599
v -0.350126 0.019808 -0.036506
v -0.199228 0.107218 0.030867
v -0.299794 0.068270 -0.006101
v -0.224595 0.087108 -0.075268
v -0.318355 0.048274 -0.043726
v -0.046198 0.121106 -0.111416
v -0.046580 0.101320 -0.131220
v -0.307935 0.054013 -0.009964
v -0.323935 0.026877 0.002957
v -0.329831 0.017373 0.019238
v -0.340638 0.042131 -0.004542
v -0.347895 0.052025 -0.001144
v -0.261752 0.028626 0.021072
v -0.364548 0.006194 -0.047875
v -0.375953 -0.005413 -0.064669
v -0.374657 0.021840 -0.044796
v -0.385308 0.030490 -0.053704
v -0.335073 0.033122 -0.037027
v -0.230218 0.021065 -0.082656
v -0.229429 0.027932 -0.101120
v -0.301820 0.002953 -0.061725
v -0.069081 0.065413 -0.117318
v -0.141372 0.026475 -0.122660
v -0.201945 0.020955 -0.125624
v -0.155280 0.032235 -0.103839
v -0.287234 0.091355 0.025265
v -0.195202 0.102100 0.048219
v -0.327054 0.061173 -0.000044
v -0.225202 0.077784 -0.093967
v -0.226112 0.065386 -0.109024
v -0.305086 0.056330 -0.071517
v -0.363010 0.037517 -0.052278
v -0.042628 0.103101 -0.155509
v -0.038651 0.100277 -0.181677
v 0.084482 0.127924 -0.135717
v 0.090021 0.108136 -0.186192
v -0.368496 -0.000914 -0.081987
v -0.358779 0.005836 -0.096441
v -0.391644 0.011522 -0.066674
v -0.394650 0.024095 -0.070036
v -0.390030 0.027302 -0.061846
v -0.293285 0.015404 -0.100035
v -0.227947 0.044245 -0.108022
v -0.044427 0.005800 -0.192966
v -0.133020 0.005151 -0.151895
v -0.202910 -0.000736 -0.152156
v -0.204056 0.054054 -0.126062
v -0.202163 0.006974 -0.138110
v -0.202687 0.036381 -0.123077
v -0.331076 -0.003384 -0.116969
v -0.377895 0.011831 -0.089947
v -0.387734 0.022455 -0.087998
v -0.344776 0.017418 -0.100216
v -0.329125 0.030919 -0.099487
v -0.391247 0.023288 -0.079039
v -0.032760 -0.014522 -0.224193
v -0.081204 0.003514 -0.204183
v -0.117223 0.001928 -0.209697
v -0.038262 0.030701 -0.201647
v -0.124680 0.007198 -0.185427
v -0.205669 0.004861 -0.179644
v -0.340555 -0.018388 -0.137028
v -0.207830 0.061086 -0.164111
v -0.250897 0.037020 -0.121482
v -0.299930 0.024180 -0.116429
v -0.316970 0.010238 -0.114717
v -0.343088 0.006355 -0.119530
v -0.347599 0.017217 -0.123220
v 0.107167 -0.037717 -0.234245
v 0.110205 -0.022409 -0.251543
v 0.037813 -0.034548 -0.220262
v -0.319224 0.076488 0.022786
v -0.298723 0.072439 0.047782
v -0.315238 0.044486 -0.087992
v -0.356570 0.042385 -0.072727
v -0.359734 0.039981 -0.062484
v -0.030746 0.079110 -0.201025
v -0.021447 0.055630 -0.213119
v -0.356568 0.038094 0.017486
v -0.361982 0.051974 0.016452
v -0.325389 0.025867 0.037984
v 0.100294 0.065313 -0.240068
v -0.348321 0.027598 -0.095906
v -0.364480 0.029512 -0.092081
v -0.360414 0.053437 0.025609
v -0.358741 0.054892 0.034754
v -0.337095 0.062299 0.039870
v -0.345575 0.045477 0.042071
v -0.326781 0.070412 0.032769
v 0.377568 0.132035 -0.164694
v 0.220357 0.083094 -0.222765
v -0.005559 0.049330 -0.248811
v 0.110256 0.019023 -0.261426
v -0.025057 -0.017809 -0.254641
v -0.017495 -0.003997 -0.265819
v -0.010818 0.012636 -0.270802
v 0.042185 -0.022319 -0.255898
v -0.109386 -0.021992 -0.252101
v -0.029587 -0.019159 -0.240397
v -0.109695 0.002833 -0.272180
v -0.007111 0.032720 -0.261756
v 0.050404 0.016675 -0.267939
v 0.111604 -0.001870 -0.259115
v -0.112900 -0.021334 -0.223914
v -0.109015 -0.011854 -0.264380
v -0.230848 -0.036089 -0.237975
v -0.206615 -0.016870 -0.256634
v -0.115442 0.034919 -0.252562
v 0.224450 0.036881 -0.241538
v 0.388541 0.020097 -0.218728
v -0.115318 -0.010107 -0.214332
v -0.241021 -0.035628 -0.215196
v -0.219006 -0.027784 -0.248997
v -0.245598 -0.016533 -0.235389
v -0.228525 -0.011425 -0.242791
v -0.195174 0.000717 -0.250336
v -0.186580 0.016896 -0.240176
v -0.117471 0.035442 -0.237601
v -0.118920 0.031824 -0.223025
v -0.069710 0.041708 -0.219249
v 0.386057 0.061629 -0.225186
v -0.235862 -0.019732 -0.198486
v -0.118436 0.016977 -0.213467
v -0.253244 -0.020557 -0.218292
v -0.254612 -0.010325 -0.221306
v -0.250162 -0.013406 -0.228355
v -0.237083 -0.013993 -0.239111
v -0.218232 0.005521 -0.231993
v -0.197411 0.013996 -0.222239
v -0.209794 0.007049 -0.207859
v -0.122392 0.034341 -0.199076
v -0.208548 0.031940 -0.193143
v 0.380750 0.105807 -0.208632
v -0.224231 -0.006734 -0.200829
v -0.249597 -0.002612 -0.209958
v -0.252146 -0.006480 -0.215621
v -0.217731 0.006631 -0.211793
v -0.225595 0.006094 -0.215754
v -0.221877 0.005851 -0.223857
v -0.297862 0.009840 -0.178103
v -0.208497 0.047336 -0.181553
v -0.207318 0.016642 -0.190041
v -0.275057 0.039201 -0.152353
v 0.378556 0.120487 -0.188125
v -0.324584 -0.011908 -0.166019
v -0.284486 0.025088 -0.169560
v -0.312071 -0.002387 -0.173888
v -0.311508 0.011546 -0.172878
v -0.322565 0.015207 -0.165144
v -0.285737 0.034189 -0.132062
v -0.311594 0.032142 -0.147695
v -0.339543 -0.002450 -0.162520
v -0.346868 0.007672 -0.158900
v -0.335177 0.009600 -0.163415
v -0.315874 0.024904 -0.157568
v -0.353227 -0.000664 -0.138702
v -0.353928 0.012272 -0.142335
v -0.350441 0.009989 -0.150642
v -0.310030 0.022336 -0.119616
v -0.319877 0.020566 -0.122791
v -0.314300 0.027697 -0.134036
v -0.350793 0.014741 -0.132776
v -0.123240 0.080682 -0.172894
v 0.153696 0.114671 -0.178416
v -0.070808 0.017161 -0.130597
v 0.076926 -0.122726 0.217432
v 0.026574 -0.083309 0.162293
v 0.217119 0.128237 -0.132966
v 0.383080 0.111016 -0.029687
v 0.083037 0.110955 0.020937
v 0.069880 -0.092209 0.209571
v 0.057092 -0.054643 0.158983
v -0.205943 0.057570 -0.145087
v 0.048430 -0.114664 0.267350
v -0.238442 -0.027680 -0.206841
v 0.094049 0.063945 0.052826
v -0.332569 -0.015148 -0.151524
v -0.074451 0.046914 -0.113619
v -0.227316 0.060129 -0.038400
v -0.354939 0.052000 0.007654
v -0.111083 0.093250 0.065250
v 0.027336 -0.131190 0.213131
v -0.111143 -0.021663 -0.238008
v -0.135523 0.072170 -0.013826
v 0.383404 0.083718 -0.216909
v -0.347918 0.058596 0.037312
v -0.013503 0.052480 -0.230965
v -0.311721 0.052302 -0.057621
v -0.303229 0.083922 0.024025
v 0.387691 0.002418 -0.206657
v -0.243231 0.099286 0.028066
v -0.057831 0.083366 -0.124269
v -0.252344 0.080300 -0.004811
v -0.170117 -0.029041 -0.245038
v -0.272184 0.061363 -0.044182
v -0.323139 0.068831 0.011371
v -0.266510 0.008786 -0.121297
v 0.308497 0.007137 -0.228382
v 0.037108 -0.096181 0.266955
v -0.376107 0.025983 -0.090039
v -0.176961 -0.028481 -0.219555
v 0.059992 -0.084896 0.103743
v 0.160326 0.074204 -0.231416
v 0.204463 -0.073192 -0.050023
v -0.070489 0.036871 -0.033015
v 0.300553 0.094450 -0.215699
v 0.107337 -0.037011 -0.183885
v -0.135373 0.111591 -0.080284
v -0.112569 0.018876 -0.262371
v 0.307793 -0.042063 -0.085690
v 0.297469 0.126620 -0.167667
v -0.235934 -0.035859 -0.226585
v 0.008251 -0.108512 0.214724
v 0.296971 0.137888 -0.101135
v -0.253205 0.020890 -0.185623
v -0.289372 0.032807 -0.034333
v 0.086517 -0.105539 0.190381
v 0.387299 0.040863 -0.221957
v -0.330828 0.049357 -0.072122
v 0.105275 0.042168 -0.250747
v -0.070133 0.065062 -0.018358
v -0.253448 0.041254 0.054662
v -0.238223 -0.026311 -0.236682
v -0.241443 0.050144 -0.158232
v -0.176542 -0.008902 -0.204091
v 0.214280 0.050687 0.028481
v -0.072830 -0.017928 -0.224054
v -0.136568 0.059733 -0.121690
v -0.333738 0.018891 -0.123005
v -0.074370 0.026716 -0.080064
v -0.374159 0.034003 -0.052991
v -0.041344 0.018250 -0.197306
v -0.202406 0.011208 -0.236085
v -0.060500 0.042124 -0.250687
v -0.223379 -0.002952 -0.237392
v 0.115292 -0.067236 0.148481
v -0.308964 0.054762 0.048879
v 0.167353 0.027952 -0.251482
v 0.093359 -0.107837 0.090347
v -0.229654 0.032012 -0.046765
v -0.204290 0.002063 -0.165900
v -0.114866 0.118206 0.027798
v -0.225304 0.080780 -0.059953
v 0.036733 -0.076496 0.219216
v -0.119063 0.046314 0.060188
v -0.013261 0.037705 0.061800
v -0.164357 0.019436 -0.215442
v 0.221556 0.099053 -0.006570
v -0.158155 -0.007018 -0.264407
v -0.237596 0.001741 -0.212856
v 0.149579 0.123711 -0.013111
v -0.293326 0.035671 -0.150024
v -0.131306 0.031692 0.022548
v 0.378583 0.132671 -0.077193
v 0.176833 -0.013156 0.075589
v 0.377322 0.136273 -0.135835
v 0.025685 0.104207 -0.183935
v -0.217570 -0.014148 -0.249713
v -0.060331 0.096728 -0.019985
v -0.038594 -0.004361 -0.208580
v 0.305254 0.049255 -0.233362
v 0.095158 0.086724 -0.213130
v 0.218864 0.102150 -0.196703
v -0.265126 -0.003524 -0.172831
v -0.335815 -0.010886 -0.126999
v 0.308824 -0.043388 -0.148444
v 0.222404 0.059987 -0.232152
v 0.169329 -0.014116 -0.244790
v 0.384329 -0.033736 -0.116895
v 0.168425 -0.043040 -0.212045
v -0.202061 0.099774 0.013672
v -0.264841 0.071719 -0.073392
v 0.079026 -0.128928 0.147305
v -0.148412 0.063602 -0.026528
v -0.147597 0.065399 -0.113171
v 0.156830 -0.071181 0.098027
v -0.293514 0.079813 0.009582
v 0.226452 0.015528 -0.239787
v -0.340682 0.042896 -0.048002
v -0.242729 -0.011172 -0.204222
v -0.067222 -0.019901 -0.253371
v -0.292979 0.081897 0.036524
v -0.259487 0.051395 -0.008120
v -0.337475 0.056599 -0.000594
v -0.023703 0.014071 0.024509
v -0.317909 0.067369 0.043826
v -0.360525 0.035949 -0.082404
v 0.102962 -0.045849 -0.040547
v -0.244706 0.081736 0.056527
v 0.023890 -0.009990 -0.151707
v 0.016983 0.138906 -0.084851
v -0.053111 0.005853 -0.172120
v -0.060256 0.007735 -0.271491
v -0.313424 0.064722 -0.003072
v 0.171567 -0.038264 -0.150861
v 0.148492 0.138502 -0.089848
v -0.151011 0.025907 -0.246369
v -0.029854 0.043165 -0.207383
v 0.155013 0.086297 0.027478
v -0.271732 -0.009562 -0.144592
v -0.277618 0.048153 -0.104256
v 0.047367 0.057321 -0.244440
l 1 2 3
l 1 4 5
l 1 307 6
l 3 7 8
l 3 380 9
l 5 302 10
l 5 11 12
l 6 13 9
l 6 372 14
l 6 353 10
l 8 335 15
l 8 16 17
l 9 18 17
l 9 308 19
l 10 20 21
l 10 22 23
l 12 24 23
l 12 310 15
l 14 412 21
l 14 25 19
l 14 391 26
l 15 27 28 29
l 17 303 30
l 17 349 29
l 19 31 30
l 19 32 33 34 35
l 19 36 37
l 21 38 39
l 21 40 41
l 23 409 39
l 23 318 29
l 26 42 41
l 26 362 43
l 26 44 45
l 26 46 37
l 29 47 48
l 30 338 48
l 30 49 50 51 52
l 35 382 53
l 35 54 52
l 35 55 37
l 37 312 56
l 39 375 48
l 39 57 58
l 41 59 60
l 41 61 62 63 64
l 41 65 58
l 48 66 67
l 58 68 67
l 58 340 64
l 60 69 45
l 60 70 71
l 64 72 73
l 64 74 75
l 64 346 71
l 52 76 67
l 52 421 77
l 67 424 75
l 75 78 79
l 75 80 81
l 43 435 56
l 43 82 83
l 43 384 84
l 45 85 83
l 71 405 86
l 73 402 86
l 73 87 88
l 73 431 81
l 53 89 77
l 53 90 91
l 53 381 92
l 56 93 91
l 56 306 94
l 77 95 96
l 77 389 97
l 79 341 96
l 79 98 99
l 79 366 100
l 81 426 101
l 81 343 102
l 83 305 103
l 84 387 94
l 84 104 103
l 84 105 106
l 91 107 108
l 91 317 109
l 92 358 110
l 92 111 97
l 92 112 109
l 94 113 108
l 94 114 115
l 103 390 116
l 106 432 115
l 106 350 116
l 106 304 117
l 86 118 119
l 88 406 102
l 88 120 121
l 88 122 119
l 123 357 96
l 123 395 124
l 123 320 125
l 123 410 126
l 124 127 128
l 124 129 108
l 124 130 131
l 124 132 133
l 125 134 128
l 125 419 135
l 125 136 97
l 126 352 137
l 126 376 99
l 126 315 131
l 128 407 138
l 128 329 139
l 108 378 138
l 131 379 140
l 131 331 141
l 133 142 143
l 133 344 140
l 133 427 115
l 135 144 139
l 135 145 146
l 135 147 148
l 97 149 146
l 137 150 151
l 137 152 153
l 137 154 141
l 99 155 156
l 99 157 151
l 100 301 101
l 100 314 158
l 100 159 160
l 100 161 156
l 138 327 162
l 138 163 109
l 139 430 164
l 139 413 162
l 140 165 166
l 140 408 167
l 141 324 167
l 141 415 168
l 143 328 158
l 143 169 170
l 115 171 172
l 151 173 174
l 151 175 176
l 153 367 168
l 153 177 176
l 156 178 174
l 156 179 166
l 101 428 180
l 101 181 182
l 158 411 166
l 158 364 183
l 160 184 182
l 160 185 183
l 160 333 186
l 174 187 188
l 174 189 190
l 166 437 190
l 176 191 188
l 180 396 192
l 180 193 194
l 180 368 195
l 180 196 197
l 182 377 197
l 182 436 198
l 183 309 199
l 183 200 201
l 186 401 198
l 186 202 201
l 186 203 204
l 102 205 206
l 102 207 192
l 162 325 208
l 162 418 209
l 109 425 209
l 164 420 148
l 164 332 208
l 167 210 190
l 167 355 211
l 168 212 211
l 170 393 172
l 170 213 214
l 170 299 199
l 146 215 216
l 146 217 110
l 148 316 216
l 172 398 218
l 172 300 117
l 190 219 220
l 211 423 220
l 216 221 222
l 222 322 223
l 222 224 110
l 223 225 208
l 223 422 209
l 110 373 209
l 116 392 226
l 117 399 227
l 117 347 226
l 218 438 228
l 218 356 229
l 218 339 227
l 230 231 232
l 230 233 206
l 230 417 234
l 230 235 192
l 232 429 236
l 232 237 228
l 232 238 229
l 206 239 229
l 206 404 121
l 234 319 240
l 234 241 236
l 234 330 242
l 192 363 240
l 236 385 243
l 236 345 244
l 228 323 214
l 228 370 244
l 229 374 245
l 121 334 246
l 121 414 245
l 240 247 194
l 240 337 248
l 242 348 248
l 242 249 243
l 242 359 250
l 243 394 251
l 243 252 253
l 244 433 253
l 244 254 255
l 214 434 195
l 214 256 255
l 245 397 257
l 245 403 227
l 246 326 119
l 246 354 257
l 194 361 258
l 194 259 255
l 248 260 261
l 248 311 258
l 250 262 261
l 250 263 251
l 251 371 264
l 253 265 266
l 253 369 264
l 255 383 266
l 195 267 268
l 227 342 269
l 257 321 269
l 258 270 266
l 258 416 271
l 261 272 271
l 266 273 274
l 271 386 274
l 264 275 274
l 268 351 276
l 268 277 199
l 268 278 197
l 199 360 279
l 269 280 226
l 197 400 281
l 276 282 279
l 276 283 281
l 276 284 285
l 279 286 201
l 279 388 287
l 281 313 198
l 281 288 289
l 285 290 289
l 285 291 287
l 198 292 293
l 289 294 293
l 201 295 296
l 287 297 296
l 293 298 204
l 188 336 220
l 296 365 204
