v 0.099046 -0.023944 0.396738
v 0.110698 -0.016800 0.393814
v 0.125083 -0.015361 0.391890
v 0.138276 -0.020908 0.391872
v 0.146439 -0.032008 0.394380
v 0.152361 -0.019233 0.363402
v 0.159161 -0.013565 0.331705
v 0.168469 -0.016424 0.300264
v 0.175411 -0.026209 0.269650
v 0.124064 0.003949 0.264733
v 0.115787 0.003495 0.307761
v 0.110411 -0.000013 0.333190
v 0.103405 -0.010218 0.365737
v -0.126491 0.003026 0.263808
v -0.114068 -0.001168 0.332364
v -0.107149 -0.011213 0.364978
v -0.102402 -0.025079 0.395860
v -0.114161 -0.018039 0.392754
v -0.128587 -0.016732 0.390659
v -0.141736 -0.022439 0.390550
v -0.149824 -0.033698 0.393054
v -0.177579 -0.028188 0.268115
v -0.170960 -0.018319 0.298767
v -0.161947 -0.015363 0.330291
v -0.155416 -0.020966 0.362063
v -0.150707 -0.047259 0.397943
v -0.144631 -0.059406 0.403911
v -0.133587 -0.066692 0.408978
v -0.120365 -0.066758 0.411262
v -0.172731 -0.079940 0.391427
v -0.147373 -0.073615 0.404893
v -0.178691 -0.062857 0.375041
v -0.180330 -0.050694 0.361670
v -0.179578 -0.031177 0.329679
v -0.178295 -0.025601 0.311657
v -0.177272 -0.023574 0.293325
v 0.142143 0.030861 0.125256
v 0.137828 0.036623 0.138952
v 0.131449 0.043545 0.147527
v 0.122401 0.049669 0.152163
v 0.110894 0.053113 0.154519
v 0.143490 -0.120141 0.166074
v 0.141865 -0.004451 0.132831
v 0.141153 -0.062563 0.190941
v 0.136204 -0.024652 0.214850
v 0.129981 -0.003568 0.238880
v 0.126052 0.005646 0.248855
v 0.125745 0.011105 0.234526
v 0.120608 0.030933 0.200424
v 0.047259 -0.082986 0.431020
v 0.061096 -0.068331 0.418958
v 0.072642 -0.049318 0.402337
v 0.081773 -0.031538 0.383200
v 0.089919 -0.018077 0.361954
v 0.107892 -0.001707 0.314903
v 0.117195 0.002699 0.290033
v -0.110821 -0.002324 0.314211
v -0.093016 -0.018077 0.361620
v -0.084907 -0.031908 0.382737
v -0.075728 -0.050019 0.401747
v -0.064067 -0.069068 0.418421
v -0.050135 -0.083576 0.430665
v -0.093687 0.039301 -0.305683
v -0.084157 0.063598 -0.286443
v -0.075280 0.074983 -0.277434
v -0.063556 0.085022 -0.270103
v -0.033678 0.098991 -0.261649
v 0.000485 0.103678 -0.259506
v 0.034702 0.099369 -0.261358
v 0.064788 0.085735 -0.269555
v 0.076680 0.075829 -0.276781
v 0.085758 0.064546 -0.285708
v 0.095721 0.040364 -0.304856
v 0.080799 0.035089 -0.315405
v 0.062997 0.033767 -0.321431
v 0.001130 0.037807 -0.328457
v -0.078618 0.034189 -0.316086
v -0.060752 0.033069 -0.321961
v 0.175479 -0.131367 0.204125
v 0.163867 -0.124738 0.181424
v 0.168021 -0.140780 0.025551
v 0.171688 -0.147529 -0.153106
v 0.159130 -0.130291 -0.144938
v 0.157078 -0.122634 0.010729
v 0.137452 0.108501 -0.066502
v 0.106620 0.129897 -0.067802
v 0.072985 0.145445 -0.068888
v 0.036795 0.153137 -0.069380
v -0.000606 0.154849 -0.069447
v 0.000170 0.131238 -0.199513
v 0.000499 0.145367 -0.160357
v 0.000574 0.152865 -0.120297
v 0.106361 0.049138 -0.289523
v 0.116698 0.061750 -0.264700
v 0.131361 0.072604 -0.224648
v 0.134484 0.079904 -0.204123
v 0.134482 0.095330 -0.158852
v 0.138095 0.106658 -0.083769
v -0.156087 0.022805 -0.047522
v -0.158062 0.021073 -0.082652
v -0.175909 -0.133349 0.202607
v -0.164196 -0.126576 0.180042
v -0.143678 -0.122096 0.164880
v -0.138289 0.106945 -0.067689
v -0.138147 0.109098 -0.050727
v 0.135796 0.069941 -0.216340
v 0.138917 0.055057 -0.223847
v 0.143006 0.036625 -0.224714
v 0.147449 0.015832 -0.217987
v 0.158265 0.023030 -0.081264
v 0.148773 0.070510 -0.079307
v 0.137123 0.110737 -0.048171
v 0.148543 0.062461 -0.050901
v 0.156027 0.024663 -0.046180
v 0.130558 0.102956 0.082999
v 0.131178 0.109454 0.043651
v 0.132682 0.090661 0.103772
v 0.135848 0.073925 0.117068
v 0.139450 0.055256 0.123516
v 0.147891 0.025888 0.084638
v 0.119501 0.070778 0.140019
v 0.120058 0.092356 0.121127
v 0.115105 0.110284 0.106791
v 0.103880 0.123004 0.099688
v -0.000283 0.137060 0.098494
v 0.064314 0.136086 0.098556
v 0.090701 0.129864 0.097934
v -0.106889 0.121809 0.097648
v -0.090018 0.129040 0.096843
v -0.069742 0.133562 0.097095
v -0.117541 0.110935 0.103207
v -0.123737 0.087347 0.123039
v -0.121646 0.064794 0.143098
v -0.112123 0.054743 0.151965
v -0.001053 0.050600 0.155960
v -0.087338 0.048977 0.156995
v -0.101036 0.050762 0.155456
v 0.062386 0.050203 0.157117
v -0.144115 0.028903 0.124067
v -0.140212 0.058325 0.122809
v -0.137795 0.072240 0.117168
v -0.134744 0.089144 0.102575
v -0.132512 0.101274 0.083411
v -0.134510 0.109460 -0.013050
v -0.132551 0.107590 0.050270
v -0.151041 0.049838 -0.051926
v -0.148393 0.023677 0.082719
v -0.151405 0.058252 -0.080407
v -0.138838 0.105274 -0.083668
v -0.134648 0.096422 -0.150023
v -0.133709 0.087589 -0.184599
v -0.133724 0.077908 -0.207432
v -0.134937 0.067058 -0.218706
v -0.137980 0.050580 -0.226033
v -0.141769 0.032844 -0.226214
v -0.145273 0.019126 -0.218276
v -0.154962 0.018674 -0.130681
v -0.150212 0.011338 -0.186282
v -0.148068 0.012260 -0.203956
v -0.107754 -0.060135 0.409935
v -0.098878 -0.049143 0.405653
v -0.096751 -0.036244 0.400291
v 0.117317 -0.065350 0.412230
v 0.130465 -0.065090 0.410067
v 0.141395 -0.057648 0.405098
v 0.147388 -0.045471 0.399212
v 0.093525 -0.035161 0.401051
v 0.095764 -0.048022 0.406402
v 0.104702 -0.058893 0.410768
v 0.174840 -0.021602 0.294860
v 0.175718 -0.023617 0.313197
v 0.176900 -0.029177 0.331226
v 0.177579 -0.048676 0.363215
v 0.170070 -0.078013 0.392907
v 0.176934 -0.038880 0.249250
v 0.177415 -0.057031 0.233885
v 0.177179 -0.085866 0.219678
v 0.179594 -0.050053 -0.240155
v 0.180330 -0.060909 -0.217491
v 0.179862 -0.077611 -0.198530
v 0.177684 -0.104365 -0.178136
v 0.179033 -0.048775 -0.265344
v 0.179557 -0.058280 -0.290029
v 0.179972 -0.082230 -0.317820
v 0.176434 -0.120965 -0.351157
v 0.024935 -0.093721 0.438498
v -0.001436 -0.097000 0.439890
v -0.001639 -0.062970 0.433600
v -0.001806 -0.042175 0.425319
v -0.001990 -0.023019 0.413900
v -0.002243 0.002224 0.391673
v -0.002400 0.028057 0.354929
v -0.002307 0.040737 0.323791
v -0.001956 0.049556 0.279755
v -0.001439 0.052420 0.223518
v 0.086247 -0.094693 -0.397883
v 0.072087 -0.110283 -0.414698
v 0.052610 -0.122093 -0.426548
v 0.028549 -0.130476 -0.433212
v 0.002523 -0.133743 -0.435442
v -0.177098 -0.052065 -0.241659
v -0.176417 -0.051148 -0.266707
v -0.176736 -0.061039 -0.291172
v -0.176634 -0.084889 -0.319044
v -0.172193 -0.122931 -0.352694
v -0.177884 -0.062725 -0.218892
v -0.177378 -0.079280 -0.199741
v -0.175073 -0.106059 -0.179340
v -0.168855 -0.149464 -0.154609
v -0.166806 -0.142662 0.024103
v -0.178800 -0.040881 0.247710
v -0.178948 -0.059036 0.232345
v -0.178260 -0.087865 0.218139
v 0.156015 -0.018766 -0.225342
v 0.165357 -0.092328 -0.166193
v 0.165542 -0.054098 -0.188290
v 0.161927 -0.033591 -0.204509
v 0.148761 -0.012289 -0.250725
v 0.137640 -0.015970 -0.287488
v 0.120409 -0.033200 -0.332167
v 0.108579 -0.053056 -0.359494
v 0.109992 -0.035952 -0.347481
v 0.101334 0.005305 -0.327174
v 0.001319 0.004725 -0.369564
v 0.001626 -0.035676 -0.402024
v 0.002050 -0.082807 -0.423595
v -0.105018 -0.054233 -0.360414
v -0.117250 -0.034630 -0.333313
v -0.131899 -0.021040 -0.297882
v -0.144002 -0.015745 -0.260724
v -0.153614 -0.019693 -0.227546
v -0.160404 -0.031028 -0.204739
v -0.165128 -0.052395 -0.185740
v -0.164723 -0.083533 -0.168205
v -0.156632 -0.132076 -0.146338
v -0.143690 -0.072631 0.182741
v -0.140209 -0.033336 0.204900
v -0.136567 -0.016172 0.220152
v -0.132198 -0.003616 0.237516
v 0.119655 0.114204 0.092176
v -0.145320 0.003312 0.128993
v -0.119064 0.040394 0.196798
v -0.127783 0.009252 0.241598
v -0.125381 0.048007 0.152896
v -0.134654 0.040936 0.148492
v -0.140539 0.034256 0.138854
v -0.027791 -0.094063 0.438405
v -0.157918 -0.126030 -0.068531
v -0.156166 -0.122398 0.009309
v -0.037907 0.152675 -0.069899
v -0.073709 0.143839 -0.069753
v -0.107062 0.127605 -0.068861
v -0.104553 0.047964 -0.290482
v -0.115244 0.060401 -0.265736
v -0.130395 0.070725 -0.226183
v -0.106647 -0.037119 -0.348449
v -0.098733 0.004169 -0.328039
v 0.171879 -0.132480 -0.365702
v 0.162647 -0.139248 -0.384423
v 0.145945 -0.142123 -0.405253
v 0.126411 -0.146546 -0.418467
v -0.118823 0.114107 0.095758
v -0.001164 0.152035 0.014520
v 0.144432 -0.071962 0.406157
v -0.078885 -0.054436 0.404759
v 0.075880 -0.053548 0.405334
v 0.139712 -0.071236 -0.366841
v 0.152706 -0.055074 -0.336822
v 0.163917 -0.045891 -0.305558
v 0.173950 -0.044153 -0.272932
v 0.130859 -0.071206 -0.370032
v 0.123005 -0.076503 -0.376083
v 0.118657 -0.085118 -0.383165
v 0.118851 -0.094397 -0.389221
v 0.110768 -0.100829 -0.394039
v 0.102541 -0.103073 -0.397100
v 0.094315 -0.101045 -0.398387
v 0.135980 -0.140772 -0.410835
v 0.141897 -0.131230 -0.401640
v 0.144537 -0.118520 -0.392441
v 0.144153 -0.103134 -0.384232
v 0.123068 -0.102006 -0.392645
v 0.129835 -0.106453 -0.392752
v 0.137399 -0.106921 -0.389691
v 0.162479 -0.112848 -0.370933
v 0.148697 -0.095601 -0.377633
v 0.149772 -0.085943 -0.371483
v 0.146645 -0.076815 -0.367448
v -0.171252 -0.046187 -0.274402
v -0.160893 -0.047724 -0.306962
v -0.149301 -0.056749 -0.338132
v -0.135908 -0.072734 -0.368001
v -0.158125 -0.114625 -0.372286
v -0.139975 -0.104946 -0.385742
v -0.144671 -0.097410 -0.379121
v -0.145877 -0.087669 -0.372863
v -0.142833 -0.078434 -0.368710
v -0.126991 -0.072577 -0.371105
v -0.119013 -0.077771 -0.377090
v -0.114508 -0.086343 -0.384137
v -0.114550 -0.095650 -0.390208
v -0.083964 -0.096686 -0.398417
v -0.091615 -0.102435 -0.398850
v -0.099336 -0.104074 -0.397598
v -0.023645 -0.130528 -0.433379
v -0.048253 -0.122501 -0.426809
v -0.068963 -0.111631 -0.415071
v -0.133078 -0.108621 -0.391089
v -0.125429 -0.107976 -0.393974
v -0.118669 -0.103364 -0.393715
v -0.122871 -0.148664 -0.420777
v -0.135845 -0.130426 -0.400456
v -0.141116 -0.145319 -0.407584
v -0.157888 -0.141015 -0.385714
v -0.167374 -0.134201 -0.367108
v 0.163894 -0.086784 0.401336
v 0.151853 -0.095558 0.411191
v 0.121160 -0.103593 0.425045
v 0.075072 -0.104146 0.434095
v -0.001188 -0.105246 0.438457
v -0.077424 -0.104975 0.433477
v -0.123349 -0.104378 0.423721
v -0.154260 -0.097002 0.409732
v -0.166473 -0.088578 0.399879
v 0.090485 -0.152021 -0.429528
v 0.002689 -0.154849 -0.439890
v -0.060848 -0.154090 -0.433817
v 0.165409 -0.138910 -0.149022
v 0.157146 0.023847 -0.063722
v 0.137774 0.107580 -0.075136
v 0.152857 0.019431 -0.149625
v -0.138218 0.108021 -0.059208
v 0.151732 -0.001467 -0.221664
v -0.162743 -0.140770 -0.150473
v -0.138563 0.106109 -0.075678
v -0.094491 -0.075460 -0.379416
v -0.149444 -0.000283 -0.222911
v -0.157074 0.021939 -0.065087
v 0.137288 0.109619 -0.057337
v 0.097413 -0.073875 -0.378689
l 1 2 3 4 5
l 5 6 7 8 9
l 10 11 12 13 1
l 14 15 16 17
l 17 18 19 20 21
l 22 23 24 25 21
l 21 26 27 28 29
l 30 31 29
l 30 32 33 34 35 36 22
l 37 38 39 40 41
l 42 43 37
l 42 44 45 46 10
l 10 47 48 49 41
l 50 51 52 53 54 55 56 10
l 14 57 58 59 60 61 62
l 63 64 65 66 67 68
l 68 69 70 71 72 73
l 73 74 75 76
l 63 77 78 76
l 79 80 42
l 79 81 82
l 82 328 83
l 83 84 42
l 85 86 87 88 89
l 68 90 91 92 89
l 73 93 94 95 96
l 96 97 98
l 98 330 85
l 99 338 100
l 101 102 103
l 104 332 105
l 96 106 107 108 109
l 110 111 98
l 110 331 109
l 112 113 114
l 115 116 112
l 115 117 118 119 37
l 37 120 114
l 41 121 122 123 124
l 125 126 127 124
l 128 129 130 125
l 128 131 132 133 134
l 135 136 137 134
l 41 138 135
l 139 140 141 142 143
l 105 144 145 143
l 105 146 99
l 139 147 99
l 100 148 149
l 149 150 151 152
l 152 153 154 155 156
l 100 157 158 159 156
l 29 160 161 162 17
l 163 164 165 166 5
l 1 167 168 169 163
l 9 170 171 172 173 174
l 9 175 176 177 79
l 178 179 180 181 82
l 178 182 183 184 185
l 50 186 187
l 187 188 189 190 191 192 193 194 195 135
l 196 197 198 199 200
l 201 202 203 204 205
l 201 206 207 208 209
l 101 210 209
l 22 211 212 213 101
l 114 329 110
l 109 333 214
l 83 215 216 217 214
l 214 218 219 220 221
l 196 340 221
l 221 222 223 73
l 76 224 225 226 200
l 227 228 229 230 231
l 231 232 233 234 235
l 103 236 237 238 239 14
l 124 240 115
l 103 241 139
l 134 242 243 14
l 134 244 245 246 139
l 62 247 187
l 209 334 235
l 235 248 249 103
l 89 250 251 252 104
l 149 335 104
l 63 253 254 255 152
l 156 337 231
l 227 256 257 63
l 185 258 259 260 261
l 143 262 128
l 89 263 125
l 85 339 112
l 163 264 174
l 17 265 62
l 1 266 50
l 267 268 269 270 178
l 267 271 272 273 274
l 274 275 276 277 196
l 261 278 279 280 281
l 274 282 283 284 281
l 185 285 281
l 281 286 287 288 267
l 201 289 290 291 292
l 205 293 294
l 294 295 296 297 292
l 292 298 299 300 301
l 302 303 304 301
l 302 336 227
l 200 305 306 307 302
l 294 308 309 310 301
l 311 312 294
l 311 313 314 315 205
l 174 316 317 318 319 320 321 322 323 324 30
l 261 325 326 327 311
