v 0.307739 -0.064749 -0.157387
v 0.307739 -0.057383 -0.139596
v 0.307739 -0.039611 -0.132229
v 0.307739 -0.021820 -0.139596
v 0.307739 -0.014453 -0.157387
v 0.307739 -0.021820 -0.175159
v 0.307739 -0.039611 -0.182525
v 0.307739 -0.057383 -0.175159
v 0.298122 -0.064749 -0.157387
v 0.298122 -0.057383 -0.139596
v 0.298122 -0.039611 -0.132229
v 0.298122 -0.021820 -0.139596
v 0.298122 -0.014453 -0.157387
v 0.298122 -0.021820 -0.175159
v 0.298122 -0.039611 -0.182525
v 0.298122 -0.057383 -0.175159
v -0.298122 -0.064749 -0.157387
v -0.298122 -0.057383 -0.139596
v -0.298122 -0.039611 -0.132229
v -0.298122 -0.021820 -0.139596
v -0.298122 -0.014453 -0.157387
v -0.298122 -0.021820 -0.175159
v -0.298122 -0.039611 -0.182525
v -0.298122 -0.057383 -0.175159
v -0.000000 0.041517 0.314395
v 0.014925 0.042555 0.311991
v 0.030851 0.046633 0.302682
v 0.040987 0.053018 0.288103
v 0.043622 0.059000 0.274428
v 0.039525 0.066386 0.257541
v 0.030851 0.071348 0.246174
v 0.014925 0.075426 0.236884
v -0.000000 0.076464 0.234480
v -0.014925 0.075426 0.236884
v -0.030851 0.071348 0.246174
v -0.039525 0.066386 0.257541
v -0.043622 0.058981 0.274428
v -0.040987 0.053018 0.288103
v -0.030832 0.046633 0.302682
v -0.014925 0.042555 0.311991
v 0.225072 0.123471 -0.265846
v 0.242748 0.119567 -0.265846
v 0.254634 0.111239 -0.265846
v 0.262963 0.099352 -0.265846
v 0.266867 0.081677 -0.265846
v -0.266867 -0.007029 0.321070
v -0.266867 -0.141107 0.321070
v 0.266867 -0.141107 0.321070
v 0.263520 -0.141107 0.345112
v 0.250191 -0.141107 0.370827
v 0.231900 -0.141107 0.388503
v 0.200145 -0.141107 0.406352
v 0.166910 -0.141107 0.417661
v 0.126981 -0.141107 0.426124
v 0.055489 -0.141107 0.433394
v 0.000000 -0.141107 0.434779
v 0.307739 -0.141107 -0.157387
v 0.307739 -0.139568 -0.139750
v 0.307739 -0.131605 -0.114477
v 0.307739 -0.111372 -0.085607
v 0.307739 -0.082502 -0.065392
v 0.307739 -0.061556 -0.058372
v 0.307739 -0.039611 -0.055872
v 0.307739 -0.017665 -0.058372
v 0.307739 0.003299 -0.065392
v 0.307739 0.032169 -0.085607
v 0.307739 0.054076 -0.118573
v 0.307739 0.061904 -0.157387
v 0.307739 0.059404 -0.179333
v 0.307739 0.052384 -0.200278
v 0.307739 0.032169 -0.229148
v 0.307739 -0.000797 -0.251074
v 0.307739 -0.039611 -0.258883
v 0.307739 -0.074328 -0.252767
v 0.307739 -0.090369 -0.245285
v 0.307739 -0.111372 -0.229148
v 0.307739 -0.131605 -0.200278
v 0.307739 -0.139568 -0.175005
v -0.225072 0.031265 0.337822
v -0.225072 0.101122 0.178125
v -0.225072 0.081677 -0.307640
v -0.225072 -0.141107 -0.307640
v 0.266867 0.062828 0.161372
v 0.266867 0.075349 0.124251
v 0.266867 0.081677 0.071282
v 0.225072 0.123471 0.071282
v 0.242748 0.119567 0.071282
v 0.254634 0.111239 0.071282
v 0.262963 0.099352 0.071282
v -0.266867 0.081677 0.071282
v -0.262963 0.099352 0.071282
v -0.254634 0.111239 0.071282
v -0.242748 0.119567 0.071282
v -0.225072 0.123471 0.071282
v 0.225072 0.101122 0.178125
v -0.266867 -0.141107 -0.157387
v -0.266867 -0.133298 -0.118573
v -0.266867 -0.111372 -0.085607
v -0.266867 -0.082502 -0.065392
v -0.266867 -0.061556 -0.058372
v -0.266867 -0.039611 -0.055872
v -0.266867 -0.000797 -0.063700
v -0.266867 0.032169 -0.085607
v -0.266867 0.052384 -0.114477
v -0.266867 0.059404 -0.135422
v -0.266867 0.061904 -0.157387
v -0.266867 0.059404 -0.179333
v -0.266867 0.052384 -0.200278
v -0.266867 0.032169 -0.229148
v -0.266867 0.003299 -0.249382
v -0.266867 -0.021974 -0.257344
v -0.266867 -0.039611 -0.258883
v -0.266867 -0.057229 -0.257344
v -0.266867 -0.082502 -0.249382
v -0.266867 -0.111372 -0.229148
v -0.266867 -0.131605 -0.200278
v -0.266867 -0.139568 -0.175005
v -0.266867 0.062828 0.161372
v 0.225072 -0.141107 -0.307640
v 0.239363 -0.141107 -0.305121
v 0.254634 -0.141107 -0.295408
v 0.262963 -0.141107 -0.283502
v 0.266867 -0.141107 -0.265846
v -0.307739 -0.064749 -0.157387
v -0.307739 -0.057383 -0.139596
v -0.307739 -0.039611 -0.132229
v -0.307739 -0.021820 -0.139596
v -0.307739 -0.014453 -0.157387
v -0.307739 -0.021820 -0.175159
v -0.307739 -0.039611 -0.182525
v -0.307739 -0.057383 -0.175159
v 0.225072 0.119432 0.117577
v -0.000000 0.025649 0.307452
v 0.014925 0.026707 0.305048
v 0.030851 0.030765 0.295758
v 0.040987 0.037151 0.281160
v 0.043622 0.043132 0.267504
v 0.040987 0.049114 0.253829
v 0.030851 0.055500 0.239230
v 0.014925 0.059558 0.229940
v -0.000000 0.060616 0.227536
v -0.014925 0.059558 0.229940
v -0.030851 0.055500 0.239230
v -0.040987 0.049114 0.253829
v -0.043622 0.043132 0.267504
v -0.040987 0.037151 0.281160
v -0.030832 0.030765 0.295758
v -0.018426 0.027284 0.303721
v -0.239363 0.081677 -0.305121
v -0.254634 0.081677 -0.295408
v -0.262963 0.081677 -0.283502
v -0.266867 0.081677 -0.265846
v -0.263520 -0.141107 0.345112
v -0.250191 -0.141107 0.370827
v -0.231900 -0.141107 0.388503
v -0.200145 -0.141107 0.406352
v -0.166910 -0.141107 0.417661
v -0.126981 -0.141107 0.426124
v -0.055489 -0.141107 0.433394
v 0.225072 0.081677 -0.307640
v 0.000000 -0.038495 0.434779
v -0.072665 -0.037476 0.432317
v -0.118556 -0.035456 0.427412
v -0.166967 -0.031629 0.417642
v -0.199953 -0.027551 0.406429
v -0.231227 -0.022051 0.389003
v -0.249153 -0.017819 0.372116
v -0.263059 -0.012665 0.346631
v 0.266867 -0.141107 -0.157387
v -0.000000 -0.000201 0.409737
v 0.093322 0.001761 0.405236
v 0.167140 0.008089 0.390792
v 0.195626 0.013262 0.378944
v 0.212801 0.018609 0.366749
v 0.222226 0.024418 0.353459
v 0.225072 0.031265 0.337822
v -0.307739 -0.141107 -0.157387
v -0.307739 -0.139568 -0.139750
v -0.307739 -0.131605 -0.114477
v -0.307739 -0.111372 -0.085607
v -0.307739 -0.082502 -0.065392
v -0.307739 -0.061556 -0.058372
v -0.307739 -0.039611 -0.055872
v -0.307739 -0.017665 -0.058372
v -0.307739 0.003299 -0.065392
v -0.307739 0.032169 -0.085607
v -0.307739 0.054076 -0.118573
v -0.307739 0.061904 -0.157387
v -0.307739 0.059404 -0.179333
v -0.307739 0.052384 -0.200278
v -0.307739 0.032169 -0.229148
v -0.307739 -0.000797 -0.251074
v -0.307739 -0.039611 -0.258883
v -0.307739 -0.074328 -0.252767
v -0.307739 -0.090369 -0.245285
v -0.307739 -0.111372 -0.229148
v -0.307739 -0.131605 -0.200278
v -0.307739 -0.139568 -0.175005
v 0.266867 -0.133298 -0.118573
v 0.266867 -0.111372 -0.085607
v 0.266867 -0.082502 -0.065392
v 0.266867 -0.061556 -0.058372
v 0.266867 -0.039611 -0.055872
v 0.266867 -0.000797 -0.063700
v 0.266867 0.032169 -0.085607
v 0.266867 0.052384 -0.114477
v 0.266867 0.059404 -0.135422
v 0.266867 0.061904 -0.157387
v 0.266867 0.059404 -0.179333
v 0.266867 0.052384 -0.200278
v 0.266867 0.032169 -0.229148
v 0.266867 0.003299 -0.249382
v 0.266867 -0.021974 -0.257344
v 0.266867 -0.039611 -0.258883
v 0.266867 -0.057229 -0.257344
v 0.266867 -0.082502 -0.249382
v 0.266867 -0.111372 -0.229148
v 0.266867 -0.131605 -0.200278
v 0.266867 -0.139568 -0.175005
v -0.225072 0.123471 -0.265846
v -0.225072 0.119432 0.117577
v -0.262963 0.099352 -0.265846
v -0.254634 0.111239 -0.265846
v -0.242748 0.119567 -0.265846
v -0.242748 0.097544 0.176567
v -0.254634 0.089909 0.173220
v -0.262963 0.079022 0.168450
v 0.262963 0.079022 0.168450
v 0.254634 0.089909 0.173220
v 0.242748 0.097544 0.176567
v 0.225072 0.095986 -0.305121
v 0.225072 0.111239 -0.295408
v 0.225072 0.119567 -0.283502
v -0.262963 0.009146 0.328148
v -0.254634 0.020052 0.332917
v -0.242748 0.027668 0.336264
v -0.266867 -0.141107 -0.265846
v 0.266867 -0.007029 0.321070
v 0.263232 -0.012549 0.346093
v 0.251730 -0.017088 0.368769
v 0.230689 -0.022166 0.389387
v 0.203127 -0.027071 0.405063
v 0.164717 -0.031860 0.418257
v 0.116518 -0.035572 0.427701
v 0.063009 -0.037745 0.432971
v -0.222187 0.024380 0.353517
v -0.214205 0.019225 0.365345
v -0.196241 0.013416 0.378617
v -0.172064 0.008800 0.389157
v -0.112536 0.002819 0.402813
v -0.262963 -0.141107 -0.283502
v -0.254634 -0.141107 -0.295408
v -0.239363 -0.141107 -0.305121
v 0.262963 0.081677 -0.283502
v 0.254634 0.081677 -0.295408
v 0.239363 0.081677 -0.305121
v 0.242748 0.027668 0.336264
v 0.254634 0.020033 0.332917
v 0.262963 0.009146 0.328148
v -0.266867 0.078272 0.110307
v -0.000000 -0.016742 0.428663
v -0.225072 0.119567 -0.283502
v -0.225072 0.111239 -0.295408
v -0.225072 0.095986 -0.305121
v -0.266867 0.027899 0.241221
v 0.225072 -0.029715 -0.307640
v 0.000000 0.101122 0.178125
v 0.266867 -0.141107 -0.211617
v 0.000000 -0.089801 0.434779
v 0.000000 -0.141107 -0.307640
v -0.266867 -0.141107 -0.211617
v 0.000000 0.081677 -0.307640
v -0.266867 -0.074068 0.321070
v 0.266867 0.081677 -0.097282
v 0.266867 -0.141107 0.081842
v -0.225072 0.066194 0.257974
v -0.225072 0.123471 -0.097282
v 0.000000 0.123471 0.071282
v 0.266867 -0.074068 0.321070
v 0.225072 0.066194 0.257974
v 0.225072 0.123471 -0.097282
v -0.266867 -0.141107 0.081842
v -0.266867 -0.029715 -0.265846
v 0.000000 0.123471 -0.265846
v -0.225072 -0.029715 -0.307640
v 0.266867 -0.029715 -0.265846
v -0.266867 0.081677 -0.097282
v 0.266867 0.027899 0.241221
l 1 2 3 4 5 6 7 8 1
l 9 10 11 12 13 14 15 16 9
l 17 18 19 20 21 22 23 24 17
l 25 26 27 28 29 30 31 32 33 34 35 36 37 38 39 40 25
l 41 42 43 44 45
l 46 273 47
l 48 49 50 51 52 53 54 55 56
l 57 58 59 60 61 62 63 64 65 66 67 68 69 70 71 72 73 74 75 76 77 78 57
l 79 276 80
l 81 285 82
l 83 84 85
l 86 87 88 89 85
l 90 91 92 93 94
l 80 267 95
l 96 97 98 99 100 101 102 103 104 105 106 107 108 109 110 111 112 113 114 115 116 117 96
l 96 282 47
l 46 265 118
l 45 274 85
l 119 120 121 122 123
l 41 281 86
l 82 270 119
l 124 125 126 127 128 129 130 131 124
l 95 132 86
l 133 134 135 136 137 138 139 140 141 142 143 144 145 146 147 148 133
l 81 149 150 151 152
l 47 153 154 155 156 157 158 159 56
l 152 287 90
l 81 272 160
l 161 162 163 164 165 166 167 168 46
l 169 275 48
l 170 171 172 173 174 175 176
l 177 178 179 180 181 182 183 184 185 186 187 188 189 190 191 192 193 194 195 196 197 198 177
l 169 199 200 201 202 203 204 205 206 207 208 209 210 211 212 213 214 215 216 217 218 219 169
l 220 284 41
l 220 277 94
l 160 266 119
l 80 221 94
l 152 222 223 224 220
l 94 278 86
l 80 225 226 227 118
l 83 228 229 230 95
l 123 268 169
l 160 231 232 233 41
l 46 234 235 236 79
l 161 269 56
l 152 283 237
l 95 280 176
l 238 239 240 241 242 243 244 245 161
l 79 246 247 248 249 250 170
l 45 286 123
l 83 288 238
l 238 279 48
l 237 251 252 253 82
l 45 254 255 256 160
l 176 257 258 259 238
l 237 271 96
l 118 260 90
l 170 261 161
l 220 262 263 264 81
