v 0.010401 -0.305710 0.335107
v -0.054560 -0.305723 0.335335
v -0.068313 -0.305728 0.333424
v -0.079267 -0.305730 0.329575
v -0.088111 -0.305726 0.323221
v -0.098933 -0.305700 0.307755
v -0.105525 -0.305667 0.292660
v -0.116205 -0.305587 0.261425
v -0.124497 -0.305454 0.227826
v -0.139825 -0.305038 0.143804
v -0.156406 -0.304453 0.034276
v -0.171750 -0.303802 -0.084055
v -0.183368 -0.303190 -0.194493
v -0.187814 -0.302854 -0.255486
v -0.188760 -0.302612 -0.300601
v -0.187690 -0.302535 -0.315658
v -0.185469 -0.302494 -0.324890
v -0.180979 -0.302496 -0.328902
v -0.171864 -0.302530 -0.332364
v -0.132522 -0.302699 -0.338880
v -0.076556 -0.302892 -0.342828
v 0.000190 -0.302981 -0.345047
v 0.000203 -0.267292 -0.344233
v 0.000213 -0.236510 -0.343665
v 0.002665 -0.236393 -0.179571
v 0.004118 -0.233884 -0.082374
v 0.006295 -0.222288 0.063282
v 0.006778 -0.218034 0.095551
v 0.007232 -0.211817 0.125901
v 0.007643 -0.202853 0.153401
v 0.007829 -0.197094 0.165792
v 0.007998 -0.190353 0.177120
v 0.008151 -0.182531 0.187270
v 0.008283 -0.173531 0.196126
v 0.008395 -0.163253 0.203571
v 0.008484 -0.151600 0.209489
v 0.008548 -0.138472 0.213762
v 0.008587 -0.123772 0.216275
v 0.008598 -0.107402 0.216912
v 0.008556 -0.079152 0.213994
v 0.008448 -0.052557 0.206693
v 0.008282 -0.027768 0.195466
v 0.008065 -0.004935 0.180773
v 0.007802 0.015791 0.163073
v 0.007502 0.034260 0.142825
v 0.007171 0.050322 0.120486
v 0.006815 0.063826 0.096517
v 0.006441 0.074622 0.071375
v 0.006057 0.082559 0.045520
v 0.005670 0.087488 0.019410
v 0.005285 0.089257 -0.006496
v 0.004910 0.087717 -0.031739
v 0.004552 0.082717 -0.055861
v 0.004217 0.074106 -0.078402
v 0.003913 0.061735 -0.098904
v 0.003646 0.045453 -0.116908
v 0.003423 0.025109 -0.131956
v 0.003251 0.000553 -0.143588
v 0.003136 -0.028365 -0.151346
v 0.001120 -0.025202 -0.286782
v 0.001003 0.007623 -0.294710
v 0.000920 0.052725 -0.300393
v 0.000891 0.100188 -0.302472
v 0.000902 0.156999 -0.301857
v 0.000945 0.208063 -0.299025
v 0.001024 0.246731 -0.293731
v 0.001136 0.276832 -0.286282
v 0.001303 0.304639 -0.275076
v 0.002049 0.305731 -0.225236
v 0.003206 0.303409 -0.147837
v 0.003998 0.299314 -0.094839
v 0.005207 0.289509 -0.013858
v 0.006023 0.280625 0.040758
v 0.007251 0.263937 0.123007
v 0.008472 0.243408 0.204907
v 0.009277 0.227693 0.258902
v 0.010162 0.210982 0.318257
v 0.010326 0.206792 0.329311
v 0.010440 0.201760 0.336938
v 0.010510 0.194965 0.341701
v 0.010546 0.185490 0.344162
v 0.010554 0.164240 0.344770
v 0.010531 0.131784 0.343366
v 0.010491 0.026889 0.340909
v 0.010491 -0.104988 0.340909
v 0.010505 -0.198846 0.341633
v 0.010471 -0.256645 0.339451
v 0.009899 -0.302641 0.301556
v 0.009265 -0.301913 0.259155
v -0.082494 -0.266451 -0.342696
v -0.140172 -0.265537 -0.338776
v -0.159105 -0.265202 -0.336014
v -0.173813 -0.264924 -0.332379
v -0.183054 -0.264730 -0.327744
v -0.185237 -0.264672 -0.325012
v -0.188556 -0.264503 -0.313384
v -0.190600 -0.264264 -0.296639
v -0.191236 -0.263613 -0.249963
v -0.187910 -0.262780 -0.189324
v -0.177160 -0.261327 -0.081675
v -0.167265 -0.260314 -0.005111
v -0.150237 -0.258884 0.106083
v -0.132877 -0.257747 0.199877
v -0.117758 -0.257117 0.261626
v -0.107052 -0.256881 0.294777
v -0.101805 -0.256800 0.307356
v -0.091729 -0.256717 0.321791
v -0.082332 -0.256684 0.328750
v -0.069821 -0.256662 0.333810
v -0.053367 -0.256651 0.337171
v -0.032139 -0.256646 0.339033
v -0.050550 0.132062 0.345151
v -0.070248 0.132313 0.344657
v -0.087170 0.132635 0.342271
v -0.101269 0.133021 0.337194
v -0.112498 0.133465 0.328625
v -0.117021 0.133707 0.322781
v -0.123855 0.134226 0.307473
v -0.127701 0.134788 0.286673
v -0.128510 0.135386 0.259580
v -0.119218 0.140809 0.088035
v -0.105946 0.147016 -0.085194
v -0.093250 0.151535 -0.206346
v -0.086646 0.153223 -0.250146
v -0.080083 0.154325 -0.277446
v -0.076427 0.154656 -0.284104
v -0.071055 0.155008 -0.289403
v -0.056259 0.155721 -0.296555
v -0.032979 0.156498 -0.300669
v -0.061496 -0.235241 -0.342019
v -0.129471 -0.231798 -0.337829
v -0.169780 -0.229063 -0.332179
v -0.179414 -0.228362 -0.329305
v -0.184416 -0.228026 -0.326054
v -0.187119 -0.227801 -0.320935
v -0.190996 -0.226922 -0.305117
v -0.193388 -0.224834 -0.269388
v -0.192315 -0.222298 -0.222385
v -0.188496 -0.219849 -0.167625
v -0.182655 -0.218024 -0.108624
v -0.175512 -0.217357 -0.048898
v -0.170383 -0.217821 -0.010415
v -0.163523 -0.218911 0.028455
v -0.155065 -0.217477 0.070992
v -0.148669 -0.213654 0.101973
v -0.145408 -0.210523 0.117499
v -0.139030 -0.201225 0.147376
v -0.136024 -0.194819 0.161225
v -0.133211 -0.187081 0.174016
v -0.130648 -0.177892 0.185496
v -0.128388 -0.167132 0.195417
v -0.126486 -0.154683 0.203528
v -0.124996 -0.140423 0.209580
v -0.123974 -0.124234 0.213323
v -0.123474 -0.105995 0.214504
v -0.123154 -0.084197 0.212370
v -0.122674 -0.062154 0.206591
v -0.122016 -0.040222 0.197490
v -0.121160 -0.018754 0.185394
v -0.120085 0.001893 0.170627
v -0.118775 0.021366 0.153515
v -0.117208 0.039311 0.134382
v -0.115365 0.055372 0.113555
v -0.113226 0.069196 0.091357
v -0.110774 0.080427 0.068114
v -0.107987 0.088712 0.044152
v -0.104847 0.093695 0.019796
v -0.101334 0.095023 -0.004630
v -0.097428 0.092340 -0.028800
v -0.093110 0.085291 -0.052390
v -0.088362 0.073523 -0.075073
v -0.083164 0.056681 -0.096525
v -0.077495 0.034410 -0.116420
v -0.071337 0.006357 -0.134435
v -0.064670 -0.027835 -0.150242
v -0.061465 -0.026154 -0.197960
v -0.050008 -0.024617 -0.281731
v -0.061066 0.008406 -0.281047
v -0.070859 0.052310 -0.280139
v -0.076859 0.098168 -0.279075
v -0.082068 0.238045 -0.274950
v -0.078956 0.265707 -0.274371
v -0.073740 0.279551 -0.274199
v -0.065180 0.290050 -0.274177
v -0.052574 0.297497 -0.274292
v -0.035210 0.302177 -0.274528
v -0.119980 -0.105685 0.260739
v -0.115868 -0.105426 0.288977
v -0.111336 -0.105295 0.303718
v -0.104907 -0.105193 0.315530
v -0.100858 -0.105152 0.320427
v -0.090841 -0.105087 0.328388
v -0.077937 -0.105042 0.334144
v -0.052298 -0.105003 0.339276
v -0.030440 -0.104992 0.340786
v -0.067915 0.228673 0.260129
v -0.088428 0.227847 0.260463
v -0.103962 0.225029 0.260693
v -0.115146 0.219357 0.260806
v -0.122610 0.209969 0.260792
v -0.126981 0.196001 0.260639
v -0.128890 0.176591 0.260337
v -0.122253 -0.011172 0.259637
v -0.076503 -0.302464 0.260696
v 0.076344 -0.302892 -0.345112
v 0.131369 -0.302701 -0.342821
v 0.169960 -0.302532 -0.337470
v 0.178956 -0.302498 -0.334277
v 0.183481 -0.302496 -0.330399
v 0.185978 -0.302538 -0.321238
v 0.187498 -0.302615 -0.306221
v 0.187899 -0.302857 -0.261098
v 0.185277 -0.303193 -0.199999
v 0.176962 -0.303804 -0.089264
v 0.165159 -0.304455 0.029473
v 0.151857 -0.305040 0.139446
v 0.139045 -0.305456 0.223889
v 0.131760 -0.305589 0.257722
v 0.122199 -0.305669 0.289258
v 0.116347 -0.305702 0.304539
v 0.106577 -0.305727 0.320313
v 0.098369 -0.305731 0.326922
v 0.087978 -0.305729 0.331090
v 0.074694 -0.305724 0.333405
v 0.081893 -0.266452 -0.345151
v 0.138606 -0.265539 -0.342940
v 0.157250 -0.265204 -0.340739
v 0.171783 -0.264927 -0.337540
v 0.181005 -0.264733 -0.333182
v 0.183246 -0.264675 -0.330515
v 0.186912 -0.264505 -0.318991
v 0.189455 -0.264267 -0.302315
v 0.191486 -0.263616 -0.255679
v 0.189972 -0.262782 -0.194968
v 0.182442 -0.261330 -0.087046
v 0.174837 -0.260316 -0.010221
v 0.161139 -0.258886 0.101432
v 0.146587 -0.257749 0.195704
v 0.133319 -0.257118 0.257876
v 0.119386 -0.256801 0.304052
v 0.110374 -0.256719 0.318772
v 0.101637 -0.256685 0.326002
v 0.089713 -0.256663 0.331427
v 0.073743 -0.256652 0.335273
v 0.052866 -0.256647 0.337763
v 0.071169 0.132061 0.343333
v 0.090468 0.132312 0.342256
v 0.106881 0.132634 0.339373
v 0.120374 0.133019 0.333883
v 0.130912 0.133463 0.324989
v 0.135061 0.133705 0.319016
v 0.141100 0.134224 0.303516
v 0.144094 0.134786 0.282614
v 0.144011 0.135384 0.255510
v 0.129599 0.140808 0.084319
v 0.111160 0.147014 -0.088437
v 0.094852 0.151534 -0.209156
v 0.086942 0.153222 -0.252739
v 0.079567 0.154324 -0.279830
v 0.075798 0.154655 -0.286378
v 0.070500 0.155007 -0.291517
v 0.056244 0.155721 -0.298236
v 0.033953 0.156497 -0.301668
v 0.049375 -0.024617 -0.283215
v 0.063329 -0.026155 -0.199824
v 0.067957 -0.027836 -0.152223
v 0.075094 0.006356 -0.136622
v 0.081787 0.034409 -0.118799
v 0.088048 0.056680 -0.099082
v 0.093886 0.073522 -0.077795
v 0.099309 0.085290 -0.055264
v 0.104329 0.092338 -0.031814
v 0.108955 0.095021 -0.007772
v 0.113196 0.093694 0.016539
v 0.117062 0.088711 0.040791
v 0.120563 0.080426 0.064659
v 0.123709 0.069194 0.087818
v 0.126509 0.055371 0.109942
v 0.128973 0.039309 0.130705
v 0.131110 0.021364 0.149783
v 0.132932 0.001891 0.166848
v 0.134446 -0.018756 0.181576
v 0.135662 -0.040223 0.193642
v 0.136592 -0.062156 0.202718
v 0.137243 -0.084198 0.208481
v 0.137627 -0.105997 0.210605
v 0.138091 -0.124235 0.209408
v 0.139001 -0.140425 0.205637
v 0.140309 -0.154685 0.199544
v 0.141968 -0.167134 0.191379
v 0.143931 -0.177894 0.181395
v 0.146150 -0.187083 0.169843
v 0.148579 -0.194821 0.156974
v 0.151171 -0.201228 0.143042
v 0.156653 -0.210525 0.112988
v 0.159449 -0.213656 0.097371
v 0.164917 -0.217479 0.066213
v 0.172100 -0.218913 0.023442
v 0.177797 -0.217823 -0.015615
v 0.181774 -0.217359 -0.054234
v 0.187130 -0.218026 -0.114146
v 0.191207 -0.219852 -0.173296
v 0.193388 -0.222301 -0.228146
v 0.193057 -0.224837 -0.275160
v 0.189599 -0.226925 -0.310801
v 0.185250 -0.227804 -0.326495
v 0.182396 -0.228029 -0.331532
v 0.177381 -0.228364 -0.334635
v 0.167884 -0.229065 -0.337223
v 0.128352 -0.231800 -0.341680
v 0.061492 -0.235241 -0.343856
v 0.037635 0.302175 -0.275616
v 0.054710 0.297496 -0.275894
v 0.066937 0.290050 -0.276150
v 0.075058 0.279549 -0.276421
v 0.079818 0.265707 -0.276743
v 0.081959 0.248233 -0.277155
v 0.082225 0.226841 -0.277693
v 0.076295 0.098167 -0.281362
v 0.070265 0.052308 -0.282247
v 0.060449 0.008405 -0.282863
v 0.135516 -0.105687 0.256923
v 0.132431 -0.105428 0.285268
v 0.128626 -0.105297 0.300133
v 0.122929 -0.105195 0.312127
v 0.119238 -0.105153 0.317140
v 0.109907 -0.105088 0.325389
v 0.097623 -0.105043 0.331522
v 0.072735 -0.105004 0.337409
v 0.051217 -0.104993 0.339567
v 0.086001 0.228672 0.257830
v 0.106138 0.227846 0.257558
v 0.121239 0.225026 0.257329
v 0.131972 0.219356 0.257115
v 0.138998 0.209966 0.256884
v 0.142987 0.196001 0.256608
v 0.144596 0.176590 0.256253
v 0.137756 -0.011174 0.255753
v 0.092896 -0.302466 0.258166
v 0.002128 -0.026783 -0.219064
v -0.057438 -0.106698 0.215708
v 0.000196 -0.285136 -0.344640
v 0.000208 -0.251901 -0.343949
v 0.073112 -0.106699 0.213758
v 0.183364 -0.283586 -0.330457
v 0.132539 -0.281354 0.257799
v -0.030767 -0.028100 -0.150794
v -0.024444 -0.024909 -0.284256
v 0.134417 -0.181403 0.257399
v 0.004727 -0.302447 -0.042946
v 0.182821 -0.246352 -0.331024
v -0.184826 -0.246349 -0.325533
v 0.035547 -0.028100 -0.151785
v 0.010436 -0.281177 0.337279
v -0.185353 -0.283583 -0.324951
v 0.025247 -0.024910 -0.284998
v -0.121727 -0.105840 0.237622
v -0.116981 -0.281352 0.261526
v 0.136571 -0.105842 0.233764
v -0.118869 -0.181401 0.261183
l 1 2 3 4 5 6 7 8
l 8 9 10 11 12 13 14 15 16 17
l 17 18 19 20 21 22
l 22 342 23
l 23 343 24
l 24 25 26 27 28 29 30 31 32 33 34 35 36 37 38 39
l 39 40 41 42 43 44 45 46 47 48 49 50 51 52 53 54 55 56 57 58 59
l 59 340 60
l 60 61 62 63 64
l 64 65 66 67 68
l 68 69 70 71 72 73 74 75 76
l 76 77 78 79 80 81 82 83
l 83 84 85
l 85 86 87
l 87 354 1
l 1 88 89
l 89 350 22
l 23 90 91 92 93 94 95
l 95 96 97 98 99 100 101 102 103 104
l 104 105 106 107 108 109 110 111 87
l 83 112 113 114 115 116 117 118 119 120
l 120 121 122 123 124 125
l 125 126 127 128 129 64
l 24 130 131 132 133 134
l 134 135 136 137 138 139 140 141 142 143 144 145 146 147 148 149 150 151 152 153 154 155
l 155 156 157 158 159 160 161 162 163 164 165 166 167 168 169 170 171 172 173 174 175
l 175 176 177
l 177 348 60
l 177 178 179 180 125
l 125 181 182 183 184 185 186 68
l 59 347 175
l 39 341 155
l 155 357 187
l 187 188 189 190 191 192 193 194 195 85
l 76 196 197 198 199 200 201 202 120
l 120 203 187
l 187 360 104
l 104 358 8
l 8 204 89
l 134 352 95
l 95 355 17
l 22 205 206 207 208 209
l 209 210 211 212 213 214 215 216 217 218
l 218 219 220 221 222 223 224 1
l 23 225 226 227 228 229 230
l 230 231 232 233 234 235 236 237 238 239
l 239 240 241 242 243 244 245 87
l 83 246 247 248 249 250 251 252 253 254
l 254 255 256 257 258 259
l 259 260 261 262 263 64
l 60 356 264
l 264 265 266
l 266 267 268 269 270 271 272 273 274 275 276 277 278 279 280 281 282 283 284 285 286
l 286 287 288 289 290 291 292 293 294 295 296 297 298 299 300 301 302 303 304 305 306 307
l 307 308 309 310 311 24
l 68 312 313 314 315 316 317 318 259
l 259 319 320 321 264
l 266 353 59
l 39 344 286
l 286 359 322
l 322 323 324 325 326 327 328 329 330 85
l 76 331 332 333 334 335 336 337 254
l 254 338 322
l 322 349 239
l 239 346 218
l 218 339 89
l 307 351 230
l 230 345 209
