v -0.039169 0.192805 0.259195
v -0.039268 0.192805 0.251694
v -0.039368 0.192805 0.244194
v -0.0 0.153666 0.258692
v -0.025815 0.167007 0.259028
v -0.025816 0.218623 0.259018
v -0.0 0.231977 0.258692
v 0.039169 0.192805 0.259195
v 0.025816 0.218623 0.259018
v 0.000233 0.231921 0.245359
v 0.000466 0.231865 0.232026
v -0.025595 0.21854 0.238474
v 0.000383 0.153666 0.243677
v -0.025998 0.167017 0.244018
v -0.087021 0.153666 0.242761
v -0.155033 0.153666 0.236268
v -0.200368 0.153666 0.223736
v -0.230976 0.153666 0.204711
v -0.243169 0.153666 0.192346
v -0.195529 0.111899 0.14774
v -0.221091 0.115374 0.171674
v -0.233299 0.121591 0.183105
v -0.240457 0.131858 0.189808
v -0.202235 0.111899 -0.133492
v -0.222255 0.111899 -0.01832
v -0.227513 0.111899 0.045617
v -0.22129 0.111899 0.097123
v -0.157315 0.111899 0.174606
v -0.104251 0.111899 0.192615
v 0.000649 0.111899 0.202478
v 0.000417 0.12574 0.230577
v 0.087046 0.153666 0.242761
v 0.155033 0.153666 0.236268
v 0.200368 0.153666 0.223736
v 0.230976 0.153666 0.204711
v 0.243168 0.153666 0.192346
v 0.026086 0.167017 0.244018
v 0.039368 0.192805 0.244194
v 0.000191 0.153666 0.251184
v 0.025815 0.167007 0.259028
v 0.039268 0.192805 0.251694
v 0.025702 0.21854 0.238474
v 0.000757 0.261211 0.212869
v 0.001077 0.279363 0.187292
v 0.001263 0.28507 0.172393
v 0.001732 0.290692 0.134945
v 0.002534 0.286174 0.071641
v 0.005232 0.248527 -0.136099
v -0.243999 0.153666 -0.132935
v -0.233083 0.212095 -0.13308
v -0.214908 0.236513 -0.133321
v -0.203123 0.244842 -0.133477
v -0.174328 0.254173 -0.133858
v -0.157075 0.255576 -0.134087
v -0.230581 0.153666 -0.17437
v -0.209988 0.153666 -0.212815
v -0.187408 0.153666 -0.24067
v -0.15377 0.153666 -0.268005
v -0.235511 0.13295 -0.133048
v -0.255902 0.153666 0.166221
v -0.264201 0.153666 0.12997
v -0.266636 0.153666 0.072303
v -0.25915 0.153666 -0.023185
v -0.174351 0.111899 -0.19026
v -0.146468 0.111899 -0.247029
v -0.146468 -0.211159 -0.247029
v -0.146468 -0.04963 -0.247029
v -0.192925 -0.211159 -0.133611
v -0.187224 -0.211159 -0.166352
v -0.178333 -0.211159 -0.194613
v -0.247846 -0.287753 -0.132884
v -0.242417 -0.249111 -0.132956
v -0.233643 -0.230219 -0.133072
v -0.22007 -0.21829 -0.133252
v -0.233339 -0.288821 -0.19396
v -0.214146 -0.289766 -0.248073
v -0.195612 -0.290345 -0.281314
v -0.166677 -0.290755 -0.305082
v -0.257051 -0.287894 -0.043898
v -0.255681 -0.28823 0.026984
v -0.242895 -0.288706 0.080732
v -0.220316 -0.28922 0.117477
v -0.18224 -0.289801 0.145703
v -0.137292 -0.290251 0.160607
v -0.07329 -0.290614 0.168762
v 0.001171 -0.290755 0.170343
v 0.247846 -0.287753 -0.132884
v 0.25705 -0.287894 -0.043898
v 0.25568 -0.28823 0.026984
v 0.242894 -0.288706 0.080732
v 0.220315 -0.28922 0.117477
v 0.18224 -0.289801 0.145703
v 0.137292 -0.290251 0.160607
v 0.073425 -0.290614 0.168762
v 0.001256 -0.25644 0.163901
v 0.001404 -0.233127 0.152735
v 0.00155 -0.221905 0.141771
v 0.001822 -0.211159 0.12129
v -0.194481 -0.211159 -0.079534
v -0.18659 -0.211159 -0.029646
v -0.168506 -0.211159 0.018572
v -0.155766 -0.211159 0.040874
v -0.124639 -0.211159 0.077608
v -0.078668 -0.211159 0.105837
v -0.058298 -0.211159 0.112074
v 0.192925 -0.211159 -0.133611
v 0.194481 -0.211159 -0.079534
v 0.186589 -0.211159 -0.029646
v 0.168506 -0.211159 0.018572
v 0.155766 -0.211159 0.040874
v 0.124638 -0.211159 0.077608
v 0.082205 -0.211159 0.104041
v 0.063257 -0.211159 0.111192
v 0.242417 -0.249111 -0.132956
v 0.233643 -0.230219 -0.133072
v 0.220069 -0.21829 -0.133252
v 0.187224 -0.211159 -0.166352
v 0.178333 -0.211159 -0.194613
v 0.146468 -0.211159 -0.247029
v -0.112929 -0.211159 -0.273996
v -0.077114 -0.211159 -0.292623
v -0.039495 -0.211159 -0.303019
v 0.005765 -0.211159 -0.30641
v 0.041229 -0.211159 -0.303019
v 0.081636 -0.211159 -0.290742
v 0.112929 -0.211159 -0.273996
v -0.164009 -0.249363 -0.297419
v -0.161187 -0.23295 -0.289311
v -0.155262 -0.217876 -0.272292
v 0.166677 -0.290755 -0.305082
v 0.0 -0.290755 -0.305082
v 0.233338 -0.288821 -0.19396
v 0.214146 -0.289766 -0.248073
v 0.195612 -0.290345 -0.281314
v 0.164009 -0.249363 -0.297419
v 0.161187 -0.23295 -0.289311
v 0.155262 -0.217876 -0.272292
v 0.124137 -0.211159 -0.197277
v 0.096705 -0.211159 -0.163771
v 0.06146 -0.211159 -0.145138
v 0.005232 -0.211159 -0.136099
v -0.125933 -0.211159 -0.199137
v -0.097345 -0.211159 -0.163148
v -0.062007 -0.211159 -0.144267
v 0.005247 -0.050448 -0.137213
v 0.005101 0.024411 -0.126271
v 0.004884 0.065757 -0.109862
v 0.004556 0.093313 -0.085161
v 0.004398 0.100849 -0.073203
v 0.003848 0.111899 -0.031736
v -0.160755 0.111899 -0.197438
v -0.161937 0.111899 -0.157202
v -0.158408 0.111899 -0.136537
v -0.143259 0.111899 -0.09793
v -0.115567 0.111899 -0.065944
v -0.077701 0.111899 -0.045082
v -0.059453 0.111899 -0.039483
v -0.151731 0.12946 -0.262146
v -0.107019 0.153666 -0.287982
v -0.070129 0.153666 -0.29927
v -0.038639 0.153666 -0.304636
v 0.007499 0.153666 -0.307192
v 0.15377 0.153666 -0.268005
v 0.079016 0.153666 -0.296997
v 0.044552 0.153666 -0.304069
v 0.007499 0.111899 -0.307192
v 0.007499 0.132782 -0.307192
v -0.123634 0.111899 -0.272366
v -0.088775 0.111899 -0.291039
v -0.045923 0.111899 -0.302321
v 0.146468 0.111899 -0.247029
v 0.123634 0.111899 -0.272366
v 0.093578 0.111899 -0.289091
v 0.052806 0.111899 -0.301289
v 0.160755 0.111899 -0.197438
v 0.161937 0.111899 -0.157202
v 0.159267 0.111899 -0.139393
v 0.144922 0.111899 -0.100391
v 0.115566 0.111899 -0.065944
v 0.077751 0.111899 -0.045082
v 0.060533 0.111899 -0.039483
v 0.202235 0.111899 -0.133492
v 0.174351 0.111899 -0.19026
v 0.146468 -0.04963 -0.247029
v 0.15173 0.12946 -0.262146
v 0.243999 0.153666 -0.132935
v 0.23058 0.153666 -0.17437
v 0.209988 0.153666 -0.212815
v 0.187408 0.153666 -0.24067
v 0.233083 0.212095 -0.13308
v 0.214908 0.236513 -0.133321
v 0.203122 0.244842 -0.133477
v 0.174328 0.254173 -0.133858
v 0.157074 0.255576 -0.134087
v 0.00728 0.201231 -0.290651
v 0.00712 0.219484 -0.278575
v 0.00697 0.228815 -0.267206
v 0.00653 0.240371 -0.234082
v 0.235511 0.13295 -0.133048
v 0.255901 0.153666 0.166221
v 0.2642 0.153666 0.12997
v 0.266636 0.153666 0.072303
v 0.25915 0.153666 -0.023185
v 0.195529 0.111899 0.14774
v 0.221091 0.115374 0.171674
v 0.233299 0.121591 0.183105
v 0.240457 0.131858 0.189808
v 0.222254 0.111899 -0.01832
v 0.227513 0.111899 0.045617
v 0.22129 0.111899 0.097123
v 0.157315 0.111899 0.174606
v 0.104271 0.111899 0.192615
l 1 2 3
l 4 5 1
l 1 6 7
l 8 9 7
l 7 10 11
l 3 12 11
l 13 14 3
l 13 15 16 17 18 19
l 20 21 22 23 19
l 24 25 26 27 20
l 20 28 29 30
l 30 31 13
l 13 32 33 34 35 36
l 13 37 38
l 13 39 4
l 4 40 8
l 8 41 38
l 38 42 11
l 11 43 44 45 46 47 48
l 49 50 51 52 53 54 48
l 49 55 56 57 58
l 24 59 49
l 19 60 61 62 63 49
l 24 64 65
l 66 67 65
l 68 69 70 66
l 71 72 73 74 68
l 71 75 76 77 78
l 71 79 80 81 82 83 84 85 86
l 87 88 89 90 91 92 93 94 86
l 86 95 96 97 98
l 68 99 100 101 102 103 104 105 98
l 106 107 108 109 110 111 112 113 98
l 87 114 115 116 106
l 106 117 118 119
l 66 120 121 122 123 124 125 126 119
l 78 127 128 129 66
l 130 131 78
l 87 132 133 134 130
l 130 135 136 137 119
l 119 138 139 140 141
l 66 142 143 144 141
l 141 145 146 147 148 149 150
l 65 151 152 153 154 155 156 157 150
l 65 158 58
l 58 159 160 161 162
l 163 164 165 162
l 166 167 162
l 65 168 169 170 166
l 171 172 173 174 166
l 171 175 176 177 178 179 180 181 150
l 182 183 171
l 119 184 171
l 171 185 163
l 186 187 188 189 163
l 186 190 191 192 193 194 48
l 162 195 196 197 198 48
l 182 199 186
l 36 200 201 202 203 186
l 204 205 206 207 36
l 182 208 209 210 204
l 204 211 212 30
