v 0.000000 0.036461 0.217675
v -0.000000 0.018902 0.196542
v -0.000000 0.010027 0.171372
v -0.000000 0.011814 0.138169
v -0.000000 0.023332 0.114088
v -0.000000 0.042387 0.095410
v -0.000000 0.073251 0.083006
v -0.000000 0.103200 0.084023
v -0.000000 0.130535 0.096310
v -0.313840 -0.111904 -0.332271
v -0.310281 -0.022841 -0.318458
v -0.306214 0.039541 -0.302685
v -0.302061 0.083898 -0.286592
v -0.295350 0.133832 -0.260521
v -0.287987 0.169358 -0.231996
v -0.277878 0.198407 -0.192766
v -0.269671 0.210622 -0.160928
v -0.258226 0.215720 -0.116528
v -0.247028 0.210694 -0.073115
v -0.233869 0.195255 -0.022091
v -0.218866 0.167920 0.036122
v -0.202613 0.129170 0.099186
v -0.179679 0.061995 0.188118
v -0.164560 0.011262 0.246767
v -0.131938 -0.111904 0.373302
v -0.000000 0.178843 0.014350
v -0.000000 0.198392 -0.030820
v -0.000000 0.209924 -0.068903
v 0.000000 0.215444 -0.101844
v 0.000000 0.215821 -0.135584
v -0.000000 0.208966 -0.170965
v 0.000000 0.198000 -0.196716
v 0.000000 0.184100 -0.217863
v -0.000000 0.164812 -0.238720
v -0.000000 0.136577 -0.260652
v -0.000000 0.098596 -0.281639
v 0.000000 0.013165 -0.311022
v -0.000000 -0.039457 -0.322191
v -0.000000 -0.111904 -0.332271
v 0.000000 -0.111904 0.373302
v 0.000000 -0.025208 0.285750
v 0.131938 -0.111904 0.373302
v 0.164981 0.011741 0.245155
v 0.180260 0.062692 0.185838
v 0.203426 0.130128 0.096020
v 0.219810 0.169039 0.032447
v 0.234915 0.196475 -0.026129
v 0.248118 0.211972 -0.077356
v 0.259330 0.217012 -0.120827
v 0.270761 0.211900 -0.165155
v 0.278923 0.199627 -0.196847
v 0.288945 0.170462 -0.235685
v 0.296178 0.134805 -0.263746
v 0.301407 0.096505 -0.284050
v 0.306723 0.040136 -0.304675
v 0.310586 -0.022492 -0.319620
v 0.313840 -0.111904 -0.332271
v 0.029731 0.040310 0.213085
v 0.053594 0.050535 0.200957
v 0.071198 0.067151 0.180827
v 0.076804 0.083840 0.159883
v 0.071067 0.102823 0.135032
v 0.053202 0.118247 0.113841
v 0.026303 0.127862 0.100116
v -0.030181 0.127122 0.101466
v -0.053028 0.118567 0.113870
v -0.071024 0.103186 0.135163
v -0.076804 0.084275 0.159985
v -0.071866 0.068502 0.179737
v -0.054800 0.051465 0.200275
v -0.028395 0.040063 0.213593
v 0.000000 -0.111904 0.0910728
v -0.156920 -0.111904 -0.332271
v -0.065969 -0.111904 0.373302
v -0.222889 -0.111904 -0.020516
v 0.156920 -0.111904 -0.332271
v 0.065969 -0.111904 0.373302
v 0.1774135 -0.111904 0.196909
v -0.2077305 -0.111904 0.07931367
v 0.20015125 -0.111904 0.1087125
v 0.000000 -0.111904 -0.0500418

l 1 2 3
l 10 11 12 13 14 15 16 17 18 19 20 21 22 23
l 9 26
l 10 75 
l 79 25
l 40 41 1
l 40 72
l 39 81
l 42 43 44
l 42 78 
l 57 80
l 40 74 25
l 1 58 59 60
l 9 65
l 57 76 39
l 42 77 40
l 39 73 10
l 66 67 68 69 70 71 1
l 61 62 63 64 9
l 45 46 47 48 49 50 51 52 53 54 55 56 57
l 27 28 29 30 31 32 33 34 35 36 37 38 39
l 24 25
l 4 5 6 7 8 9
