v -0.000000 0.029726 -0.125619
v -0.000000 0.001607 -0.159883
v -0.000000 -0.032656 -0.188001
v -0.000000 -0.071748 -0.208896
v -0.000000 -0.114164 -0.221763
v -0.000000 -0.158275 -0.226108
v -0.024507 0.029726 -0.123205
v -0.048072 0.029726 -0.116057
v -0.069790 0.029726 -0.104448
v -0.088826 0.029726 -0.088826
v -0.104448 0.029726 -0.069790
v -0.116057 0.029726 -0.048072
v -0.123205 0.029726 -0.024507
v -0.125619 0.029726 0.000000
v 0.024507 0.029726 -0.123205
v 0.048072 0.029726 -0.116057
v 0.069790 0.029726 -0.104448
v 0.088826 0.029726 -0.088826
v 0.104448 0.029726 -0.069790
v 0.116057 0.029726 -0.048072
v 0.123205 0.029726 -0.024507
v 0.125619 0.029726 -0.000000
v -0.000000 0.384383 -0.125619
v 0.000000 -0.158275 0.226108
v -0.044111 -0.158275 0.221763
v -0.086528 -0.158275 0.208896
v -0.125618 -0.158275 0.188002
v -0.159883 -0.158275 0.159883
v -0.188001 -0.158275 0.125619
v -0.208896 -0.158275 0.086528
v -0.221763 -0.158275 0.044112
v -0.226108 -0.158275 0.000000
v 0.044112 -0.158275 0.221763
v 0.086528 -0.158275 0.208896
v 0.125619 -0.158275 0.188001
v 0.159883 -0.158275 0.159882
v 0.188002 -0.158275 0.125618
v 0.208896 -0.158275 0.086528
v 0.221763 -0.158275 0.044111
v 0.226108 -0.158275 -0.000000
v 0.000000 -0.202387 0.221763
v 0.000000 -0.244803 0.208896
v 0.000000 -0.283895 0.188001
v 0.000000 -0.318158 0.159883
v 0.000000 -0.346277 0.125619
v 0.000000 -0.367172 0.086528
v 0.000000 -0.380038 0.044112
v 0.000000 -0.384383 -0.000000
v 0.000000 -0.114164 0.221763
v 0.000000 -0.071748 0.208896
v 0.000000 -0.032656 0.188001
v 0.000000 0.001607 0.159883
v 0.000000 0.029726 0.125619
v 0.125619 0.384383 -0.000000
v 0.000000 0.384383 0.000000
v 0.123205 0.384383 0.024507
v 0.116057 0.384383 0.048072
v 0.104448 0.384383 0.069790
v 0.088826 0.384383 0.088826
v 0.069790 0.384383 0.104448
v 0.048072 0.384383 0.116057
v 0.024507 0.384383 0.123205
v 0.000000 0.384383 0.125619
v 0.123205 0.384383 -0.024507
v 0.116057 0.384383 -0.048072
v 0.104448 0.384383 -0.069790
v 0.088826 0.384383 -0.088826
v 0.069790 0.384383 -0.104448
v 0.048072 0.384383 -0.116057
v 0.024507 0.384383 -0.123205
v 0.221763 -0.114164 -0.000000
v 0.208896 -0.071748 -0.000000
v 0.188001 -0.032656 -0.000000
v 0.159883 0.001607 -0.000000
v 0.221763 -0.202387 -0.000000
v 0.208896 -0.244803 -0.000000
v 0.188001 -0.283895 -0.000000
v 0.159883 -0.318158 -0.000000
v 0.125619 -0.346277 -0.000000
v 0.086528 -0.367172 -0.000000
v 0.044112 -0.380038 -0.000000
v 0.221763 -0.158275 -0.044112
v 0.208896 -0.158275 -0.086528
v 0.188001 -0.158275 -0.125619
v 0.159882 -0.158275 -0.159883
v 0.125618 -0.158275 -0.188002
v 0.086527 -0.158275 -0.208896
v 0.044111 -0.158275 -0.221763
v -0.159883 0.001607 0.000000
v -0.188001 -0.032656 0.000000
v -0.208896 -0.071748 0.000000
v -0.221763 -0.114164 0.000000
v -0.123205 0.029726 0.024507
v -0.116057 0.029726 0.048072
v -0.104448 0.029726 0.069790
v -0.088826 0.029726 0.088826
v -0.069790 0.029726 0.104448
v -0.048072 0.029726 0.116057
v -0.024507 0.029726 0.123205
v -0.125619 0.384383 0.000000
v -0.000000 -0.380038 -0.044112
v -0.000000 -0.367172 -0.086528
v -0.000000 -0.346277 -0.125619
v -0.000000 -0.318158 -0.159883
v -0.000000 -0.283895 -0.188001
v -0.000000 -0.244803 -0.208896
v -0.000000 -0.202387 -0.221763
v -0.044112 -0.380038 0.000000
v -0.086528 -0.367172 0.000000
v -0.125619 -0.346277 0.000000
v -0.159883 -0.318158 0.000000
v -0.188001 -0.283895 0.000000
v -0.208896 -0.244803 0.000000
v -0.221763 -0.202387 0.000000
v -0.024507 0.384383 -0.123205
v -0.048072 0.384383 -0.116057
v -0.069790 0.384383 -0.104448
v -0.088826 0.384383 -0.088826
v -0.104448 0.384383 -0.069790
v -0.116057 0.384383 -0.048072
v -0.123205 0.384383 -0.024507
v -0.044112 -0.158275 -0.221763
v -0.086528 -0.158275 -0.208896
v -0.125619 -0.158275 -0.188001
v -0.159883 -0.158275 -0.159883
v -0.188001 -0.158275 -0.125619
v -0.208896 -0.158275 -0.086528
v -0.221763 -0.158275 -0.044112
v 0.024507 0.029726 0.123205
v 0.048072 0.029726 0.116057
v 0.069790 0.029726 0.104448
v 0.088826 0.029726 0.088826
v 0.104448 0.029726 0.069790
v 0.116057 0.029726 0.048072
v 0.123205 0.029726 0.024507
v -0.123205 0.384383 0.024507
v -0.116057 0.384383 0.048072
v -0.104448 0.384383 0.069790
v -0.088826 0.384383 0.088826
v -0.069790 0.384383 0.104448
v -0.048072 0.384383 0.116057
v -0.024507 0.384383 0.123205
v 0.000000 0.147945 0.125619
v -0.062810 0.384383 0.000000
v 0.000000 0.147945 -0.125619
v -0.125619 0.147945 0.000000
v 0.062810 0.384383 0.000000
v 0.125619 0.266164 0.000000
v 0.000000 0.384383 -0.062810
v 0.000000 0.384383 0.062810
v 0.000000 0.266164 -0.125619
v -0.125619 0.266164 0.000000
v 0.125619 0.147945 0.000000
v 0.000000 0.266164 0.125619
l 1 2 3 4 5 6
l 1 7 8 9 10 11 12 13 14
l 1 15 16 17 18 19 20 21 22
l 1 145 
l 151 23
l 24 25 26 27 28 29 30 31 32
l 24 33 34 35 36 37 38 39 40
l 24 41 42 43 44 45 46 47 48
l 24 49 50 51 52 53
l 54 147 55
l 54 148
l 153 22
l 54 56 57 58 59 60 61 62 63
l 54 64 65 66 67 68 69 70 23
l 40 71 72 73 74 22
l 40 75 76 77 78 79 80 81 48
l 40 82 83 84 85 86 87 88 6
l 14 89 90 91 92 32
l 14 93 94 95 96 97 98 99 53
l 14 146
l 152 100
l 48 101 102 103 104 105 106 107 6
l 48 108 109 110 111 112 113 114 32
l 55 150 63
l 55 144 100
l 55 149 23
l 23 115 116 117 118 119 120 121 100
l 6 122 123 124 125 126 127 128 32
l 53 129 130 131 132 133 134 135 22
l 53 143
l 154 63
l 100 136 137 138 139 140 141 142 63
