v -0.235044 0.282715 0.000037
v -0.235064 0.281592 0.015472
v -0.235104 0.276160 0.038052
v -0.235141 0.270296 0.052251
v -0.235213 0.258578 0.071453
v -0.235311 0.243881 0.087167
v -0.235393 0.232723 0.095164
v -0.235543 0.214384 0.102628
v -0.235664 0.201349 0.104110
v -0.236840 0.097988 0.102198
v -0.237523 0.097847 0.000054
v -0.122289 0.282119 0.000043
v -0.122282 0.281148 0.016104
v -0.122252 0.276185 0.039248
v -0.122213 0.267342 0.060368
v -0.122191 0.259470 0.072831
v -0.122177 0.244969 0.088355
v -0.122188 0.233664 0.096161
v -0.122245 0.214521 0.103312
v -0.122319 0.200461 0.104609
v -0.121887 0.098807 0.103233
v -0.121297 0.097628 0.000091
v 0.298195 0.096257 0.000181
v 0.298512 0.103744 0.107180
v 0.298935 0.196207 0.107589
v 0.299027 0.210398 0.106440
v 0.299144 0.230025 0.100362
v 0.299242 0.247197 0.089285
v 0.299298 0.257025 0.079251
v 0.299371 0.268950 0.060413
v 0.299415 0.274800 0.045440
v 0.299476 0.280036 0.019549
v 0.299515 0.280945 0.000111
v 0.298864 0.195090 0.000156
v -0.236378 0.201537 0.000010
v 0.128644 0.094862 0.000146
v 0.129154 0.094876 0.067537
v 0.170958 0.094580 0.066714
v 0.213919 0.094380 0.065931
v 0.215186 0.094132 0.000113
v 0.276369 -0.248633 -0.000016
v 0.275684 -0.248705 0.161590
v 0.168957 -0.248785 0.160946
v 0.032626 -0.248916 0.159990
v 0.038318 -0.249731 0.000101
v 0.170649 0.047528 0.068030
v 0.170359 0.003338 0.071857
v 0.170090 -0.038004 0.077930
v 0.169730 -0.094705 0.090668
v 0.169522 -0.128986 0.101190
v 0.169262 -0.175159 0.119352
v 0.169072 -0.215077 0.139570
v 0.167857 -0.250883 -0.000004
v 0.256619 -0.207787 0.000004
v 0.245960 -0.179622 0.000015
v 0.237144 -0.150284 0.000028
v 0.227073 -0.103283 0.000047
v 0.222258 -0.069421 0.000060
v 0.217538 -0.013927 0.000080
v 0.200033 0.093800 0.000118
v 0.152643 0.097226 0.000135
v 0.125555 0.018658 0.000198
v 0.121814 -0.025932 0.000226
v 0.113383 -0.084621 0.000254
v 0.105711 -0.118941 0.000262
v 0.096260 -0.149939 0.000258
v 0.078492 -0.191196 0.000228
v 0.064080 -0.215863 0.000190
v 0.043324 -0.251669 0.000089
v 0.067408 -0.252676 0.000068
v 0.047363 -0.223095 0.144791
v 0.068483 -0.176944 0.123624
v 0.081554 -0.142429 0.110865
v 0.099041 -0.087091 0.094208
v 0.113261 -0.029940 0.081070
v 0.120523 0.007797 0.074569
v 0.127485 0.061804 0.068656
v 0.214582 0.054474 0.067113
v 0.218198 -0.005498 0.072883
v 0.222255 -0.044794 0.079239
v 0.230638 -0.101404 0.092266
v 0.241569 -0.153651 0.109162
v 0.250159 -0.185189 0.122396
v 0.259709 -0.213484 0.137081
v 0.264822 -0.226252 0.144933
v -0.338517 -0.282657 -0.000119
v 0.007856 -0.280609 -0.000193
v 0.331006 -0.278440 -0.000255
v 0.333519 -0.269611 -0.000249
v 0.333656 -0.263058 -0.000244
v 0.330360 -0.257555 -0.000234
v 0.324213 -0.254112 -0.000223
v 0.300158 -0.251594 -0.000191
v 0.235258 -0.251238 -0.000115
v 0.007249 -0.257317 0.000072
v -0.157570 -0.258848 -0.000008
v -0.251164 -0.263096 -0.000056
v -0.290200 -0.266843 -0.000079
v -0.319634 -0.271957 -0.000098
v -0.329713 -0.275093 -0.000106
v -0.336146 -0.278651 -0.000113
v 0.007207 -0.259521 0.132216
v 0.007208 -0.262017 0.179490
v 0.007217 -0.264074 0.193820
v 0.007240 -0.268639 0.206436
v 0.007263 -0.272913 0.210358
v 0.007307 -0.281586 0.211955
v 0.324917 -0.279295 0.168995
v 0.324906 -0.273415 0.168400
v 0.324864 -0.264086 0.162812
v 0.324797 -0.257618 0.152111
v 0.324714 -0.253554 0.137196
v 0.324621 -0.251435 0.118970
v 0.324523 -0.250804 0.098332
v 0.337367 -0.278747 0.065880
v 0.338517 -0.278968 0.110010
v 0.337170 -0.279077 0.130794
v 0.333996 -0.279176 0.149057
v 0.328587 -0.279260 0.163551
v 0.319662 -0.279336 0.173109
v 0.299974 -0.279486 0.180739
v 0.270330 -0.279708 0.187563
v 0.233471 -0.279982 0.193570
v 0.127743 -0.280757 0.204944
v 0.051806 -0.281298 0.210204
v -0.083542 -0.281994 0.211434
v -0.130423 -0.282178 0.208609
v -0.153537 -0.282263 0.205893
v -0.198127 -0.282416 0.196913
v -0.219208 -0.282482 0.190270
v -0.239217 -0.282542 0.181941
v -0.257957 -0.282593 0.171735
v -0.275231 -0.282637 0.159464
v -0.290840 -0.282671 0.144939
v -0.304589 -0.282696 0.127972
v -0.316280 -0.282711 0.108373
v -0.325715 -0.282715 0.085954
v -0.332698 -0.282708 0.060524
v -0.337031 -0.282688 0.031896
v -0.236960 0.201480 0.064695
v -0.331736 0.040070 0.000063
v -0.330751 0.007453 0.000027
v -0.327153 -0.027766 0.000005
v -0.320904 -0.063953 -0.000005
v -0.311966 -0.099469 -0.000004
v -0.303464 -0.124411 0.000012
v -0.293511 -0.146845 0.000043
v -0.282002 -0.167030 0.000084
v -0.268831 -0.185220 0.000128
v -0.256370 -0.199096 0.000169
v -0.242717 -0.211434 0.000217
v -0.227741 -0.222277 0.000269
v -0.211307 -0.231672 0.000323
v -0.217432 -0.258689 0.000374
v -0.147732 -0.258721 0.000508
v -0.065128 -0.258317 0.000627
v -0.058855 -0.231110 0.000636
v -0.038027 -0.225149 0.000614
v -0.019842 -0.215777 0.000598
v -0.004046 -0.202789 0.000592
v 0.009616 -0.185978 0.000602
v 0.018206 -0.171579 0.000615
v 0.027618 -0.151437 0.000631
v 0.035506 -0.130012 0.000642
v 0.042881 -0.104265 0.000637
v 0.048968 -0.075283 0.000624
v 0.053597 -0.039916 0.000620
v 0.055390 -0.005172 0.000626
v 0.054518 0.036198 0.000641
v -0.330429 0.039887 0.046096
v -0.325761 0.039625 0.084681
v -0.318152 0.039361 0.115718
v -0.305919 0.039064 0.144555
v -0.294883 0.038849 0.162165
v -0.282460 0.038631 0.177724
v -0.268801 0.038413 0.191293
v -0.246316 0.038089 0.208044
v -0.230213 0.037879 0.216897
v -0.204760 0.037580 0.226853
v -0.178192 0.037304 0.233000
v -0.151012 0.037061 0.235539
v -0.133682 0.036923 0.235201
v -0.114113 0.036775 0.232935
v -0.078069 0.036531 0.223624
v -0.055311 0.036402 0.213963
v -0.040018 0.036327 0.205540
v -0.024825 0.036266 0.195371
v -0.009899 0.036220 0.183319
v 0.003393 0.036189 0.169531
v 0.014950 0.036168 0.153569
v 0.024853 0.036157 0.135873
v 0.036779 0.036152 0.107049
v 0.042893 0.036156 0.086957
v 0.049507 0.036168 0.056610
v 0.053293 0.036184 0.027341
v -0.309684 -0.099689 0.039565
v -0.303599 -0.100050 0.072716
v -0.293207 -0.100472 0.104772
v -0.281472 -0.100790 0.128835
v -0.273161 -0.100970 0.141665
v -0.258498 -0.101276 0.158868
v -0.241352 -0.101615 0.173469
v -0.228627 -0.101853 0.181674
v -0.207726 -0.102221 0.191561
v -0.192658 -0.102468 0.196465
v -0.168484 -0.102832 0.201167
v -0.151392 -0.103065 0.202457
v -0.117517 -0.103500 0.201142
v -0.086205 -0.103817 0.194625
v -0.066382 -0.103940 0.187265
v -0.052828 -0.103981 0.180599
v -0.025105 -0.103933 0.162348
v -0.012620 -0.103886 0.151367
v 0.003890 -0.103883 0.132081
v 0.013370 -0.103915 0.117549
v 0.025222 -0.103998 0.093590
v 0.031496 -0.104065 0.076379
v 0.038387 -0.104164 0.049051
v 0.042157 -0.104240 0.020329
v -0.209977 -0.231545 0.024365
v -0.206575 -0.231424 0.044480
v -0.200781 -0.231303 0.063395
v -0.194229 -0.231213 0.076861
v -0.185783 -0.231136 0.087981
v -0.175285 -0.231067 0.096532
v -0.163060 -0.231008 0.102064
v -0.149434 -0.230960 0.104125
v -0.130847 -0.230959 0.103047
v -0.111936 -0.230988 0.098490
v -0.095873 -0.231020 0.090736
v -0.080749 -0.231054 0.078005
v -0.070709 -0.231078 0.063562
v -0.064306 -0.231096 0.047699
v -0.060187 -0.231108 0.027251
v -0.065888 -0.258266 0.030621
v -0.068356 -0.258254 0.050890
v -0.073433 -0.258265 0.067375
v -0.079964 -0.258287 0.078162
v -0.093831 -0.258330 0.092189
v -0.107517 -0.258364 0.100126
v -0.124628 -0.258406 0.104051
v -0.149171 -0.258477 0.104251
v -0.161956 -0.258512 0.102507
v -0.174429 -0.258535 0.097527
v -0.185812 -0.258549 0.089223
v -0.195326 -0.258563 0.077508
v -0.205103 -0.258585 0.059666
v -0.211839 -0.258610 0.041937
v -0.216245 -0.258647 0.020625
v -0.151242 0.002386 0.233571
v -0.151381 -0.032593 0.227787
v -0.151431 -0.067776 0.217609
v -0.151270 -0.123156 0.191299
v -0.151014 -0.143487 0.177882
v -0.150655 -0.164421 0.161853
v -0.150223 -0.186324 0.142857
v -0.267177 -0.185265 0.022035
v -0.260887 -0.185394 0.048536
v -0.251023 -0.185552 0.073735
v -0.236159 -0.185699 0.101771
v -0.223498 -0.185787 0.117473
v -0.215895 -0.185847 0.123699
v -0.203241 -0.185949 0.131184
v -0.179826 -0.186131 0.139245
v -0.118513 -0.186423 0.141780
v -0.093087 -0.186426 0.137538
v -0.069473 -0.186399 0.129823
v -0.052459 -0.186383 0.120879
v -0.035723 -0.186360 0.109020
v -0.021461 -0.186307 0.095985
v -0.009767 -0.186235 0.081126
v -0.003445 -0.186182 0.069888
v 0.003760 -0.186102 0.050554
v 0.007002 -0.186053 0.035735
v -0.011099 0.001492 0.181667
v -0.014184 -0.033935 0.177273
v -0.018928 -0.069324 0.170660
v -0.029995 -0.125398 0.155505
v -0.036087 -0.146438 0.146358
v -0.043526 -0.166838 0.134839
v -0.065267 -0.208800 0.101258
v -0.080320 -0.229823 0.078635
v -0.304358 0.005537 0.143276
v -0.299711 -0.029360 0.140205
v -0.291320 -0.068256 0.134915
v -0.272995 -0.122530 0.123714
v -0.262641 -0.144096 0.117552
v -0.250374 -0.165236 0.110266
v -0.216223 -0.209726 0.089880
v -0.235065 0.281592 -0.015401
v -0.235107 0.276160 -0.037989
v -0.235145 0.270296 -0.052196
v -0.235219 0.258577 -0.071413
v -0.235319 0.243881 -0.087141
v -0.235401 0.232722 -0.095146
v -0.235552 0.214384 -0.102619
v -0.235672 0.201348 -0.104103
v -0.236849 0.097988 -0.102191
v -0.121895 0.098807 -0.103236
v -0.122328 0.200460 -0.104612
v -0.122254 0.214521 -0.103313
v -0.122196 0.233664 -0.096150
v -0.122185 0.244969 -0.088333
v -0.122198 0.259470 -0.072788
v -0.122218 0.267342 -0.060313
v -0.122255 0.276185 -0.039175
v -0.122283 0.281148 -0.016019
v 0.299474 0.280036 -0.019334
v 0.299411 0.274800 -0.045258
v 0.299366 0.268951 -0.060263
v 0.299291 0.257024 -0.079159
v 0.299234 0.247197 -0.089232
v 0.299136 0.230025 -0.100359
v 0.299018 0.210398 -0.106471
v 0.298926 0.196207 -0.107628
v 0.298503 0.103744 -0.107218
v 0.129148 0.094876 -0.067561
v 0.170952 0.094580 -0.066742
v 0.213913 0.094380 -0.065962
v 0.032613 -0.248917 -0.160005
v 0.168943 -0.248785 -0.160972
v 0.275669 -0.248704 -0.161625
v 0.170644 0.047528 -0.068057
v 0.170353 0.003338 -0.071884
v 0.170084 -0.038004 -0.077958
v 0.169723 -0.094706 -0.090695
v 0.169513 -0.128985 -0.101216
v 0.169252 -0.175160 -0.119380
v 0.169059 -0.215077 -0.139597
v 0.047351 -0.223096 -0.144807
v 0.068472 -0.176944 -0.123642
v 0.081544 -0.142429 -0.110885
v 0.099033 -0.087091 -0.094229
v 0.113254 -0.029940 -0.081092
v 0.120517 0.007797 -0.074592
v 0.127479 0.061804 -0.068680
v 0.214576 0.054474 -0.067143
v 0.218192 -0.005498 -0.072915
v 0.222249 -0.044794 -0.079271
v 0.230629 -0.101403 -0.092297
v 0.241560 -0.153651 -0.109195
v 0.250149 -0.185190 -0.122431
v 0.259698 -0.213485 -0.137116
v 0.264809 -0.226252 -0.144966
v 0.007196 -0.259521 -0.132105
v 0.007193 -0.262018 -0.179425
v 0.007201 -0.264075 -0.193778
v 0.007223 -0.268640 -0.206425
v 0.007245 -0.272913 -0.210362
v 0.007288 -0.281586 -0.211967
v 0.324516 -0.250804 -0.098606
v 0.324610 -0.251434 -0.119180
v 0.324703 -0.253554 -0.137351
v 0.324785 -0.257619 -0.152215
v 0.324850 -0.264087 -0.162878
v 0.324893 -0.273416 -0.168444
v 0.324903 -0.279295 -0.169036
v -0.337034 -0.282689 -0.032132
v -0.332703 -0.282707 -0.060755
v -0.325722 -0.282715 -0.086177
v -0.316289 -0.282711 -0.108586
v -0.304600 -0.282696 -0.128173
v -0.290853 -0.282671 -0.145126
v -0.275244 -0.282637 -0.159635
v -0.257972 -0.282593 -0.171890
v -0.239232 -0.282542 -0.182079
v -0.219224 -0.282482 -0.190391
v -0.198143 -0.282416 -0.197017
v -0.153555 -0.282263 -0.205964
v -0.130441 -0.282178 -0.208664
v -0.083559 -0.281995 -0.211466
v 0.051788 -0.281298 -0.210221
v 0.127726 -0.280758 -0.204967
v 0.233455 -0.279983 -0.193604
v 0.270314 -0.279708 -0.187598
v 0.299960 -0.279487 -0.180778
v 0.319649 -0.279337 -0.173149
v 0.328574 -0.279261 -0.163596
v 0.333984 -0.279176 -0.149125
v 0.337159 -0.279077 -0.130909
v 0.338507 -0.278968 -0.110182
v 0.337362 -0.278748 -0.066190
v -0.236966 0.201480 -0.064684
v -0.330433 0.039886 -0.046001
v -0.325768 0.039625 -0.084627
v -0.318162 0.039361 -0.115692
v -0.305931 0.039064 -0.144542
v -0.294896 0.038849 -0.162152
v -0.282475 0.038631 -0.177713
v -0.268817 0.038412 -0.191283
v -0.246334 0.038089 -0.208036
v -0.230232 0.037879 -0.216890
v -0.204779 0.037579 -0.226848
v -0.178212 0.037304 -0.232998
v -0.151032 0.037061 -0.235539
v -0.133702 0.036922 -0.235202
v -0.114133 0.036774 -0.232938
v -0.078088 0.036531 -0.223631
v -0.055329 0.036401 -0.213971
v -0.040036 0.036327 -0.205549
v -0.024842 0.036265 -0.195382
v -0.009915 0.036220 -0.183331
v 0.003378 0.036189 -0.169508
v 0.014937 0.036168 -0.153448
v 0.024841 0.036156 -0.135608
v 0.036770 0.036152 -0.106512
v 0.042885 0.036156 -0.086226
v 0.049502 0.036168 -0.055608
v 0.053291 0.036184 -0.026137
v -0.309687 -0.099689 -0.039567
v -0.303606 -0.100050 -0.072712
v -0.293215 -0.100472 -0.104761
v -0.281483 -0.100790 -0.128824
v -0.273173 -0.100970 -0.141655
v -0.258511 -0.101276 -0.158859
v -0.241367 -0.101615 -0.173461
v -0.228642 -0.101853 -0.181667
v -0.207743 -0.102221 -0.191556
v -0.192675 -0.102468 -0.196462
v -0.168500 -0.102832 -0.201165
v -0.151410 -0.103065 -0.202457
v -0.117535 -0.103500 -0.201145
v -0.086221 -0.103817 -0.194630
v -0.066398 -0.103941 -0.187272
v -0.052843 -0.103982 -0.180607
v -0.025119 -0.103933 -0.162359
v -0.012633 -0.103886 -0.151343
v 0.003878 -0.103883 -0.131892
v 0.013360 -0.103915 -0.117200
v 0.025214 -0.103998 -0.092960
v 0.031490 -0.104065 -0.075558
v 0.038383 -0.104164 -0.047978
v 0.042155 -0.104240 -0.019091
v -0.209979 -0.231545 -0.023857
v -0.206579 -0.231424 -0.044202
v -0.200786 -0.231303 -0.063323
v -0.194235 -0.231214 -0.076858
v -0.185790 -0.231136 -0.087978
v -0.175293 -0.231067 -0.096530
v -0.163069 -0.231008 -0.102063
v -0.149442 -0.230961 -0.104125
v -0.130856 -0.230960 -0.103049
v -0.111944 -0.230988 -0.098493
v -0.095880 -0.231020 -0.090740
v -0.080755 -0.231054 -0.078010
v -0.070714 -0.231078 -0.063436
v -0.064310 -0.231096 -0.047256
v -0.060190 -0.231108 -0.026339
v -0.216247 -0.258647 -0.019954
v -0.211843 -0.258610 -0.041505
v -0.205108 -0.258585 -0.059500
v -0.195333 -0.258563 -0.077504
v -0.185819 -0.258549 -0.089220
v -0.174438 -0.258535 -0.097525
v -0.161965 -0.258513 -0.102506
v -0.149180 -0.258477 -0.104251
v -0.124637 -0.258405 -0.104053
v -0.107526 -0.258365 -0.100130
v -0.093838 -0.258330 -0.092194
v -0.079971 -0.258288 -0.078168
v -0.073439 -0.258266 -0.067250
v -0.068360 -0.258254 -0.050360
v -0.065890 -0.258266 -0.029639
v -0.150235 -0.186324 -0.142857
v -0.150669 -0.164422 -0.161852
v -0.151029 -0.143487 -0.177882
v -0.151286 -0.123156 -0.191299
v -0.151449 -0.067776 -0.217609
v -0.151400 -0.032593 -0.227787
v -0.151261 0.002386 -0.233571
v -0.267179 -0.185265 -0.021805
v -0.260891 -0.185394 -0.048385
v -0.251029 -0.185552 -0.073673
v -0.236168 -0.185699 -0.101764
v -0.223508 -0.185788 -0.117467
v -0.215906 -0.185847 -0.123693
v -0.203252 -0.185949 -0.131179
v -0.179838 -0.186131 -0.139243
v -0.118525 -0.186423 -0.141783
v -0.093098 -0.186426 -0.137543
v -0.069484 -0.186399 -0.129830
v -0.052469 -0.186384 -0.120887
v -0.035733 -0.186359 -0.108956
v -0.021469 -0.186307 -0.095733
v -0.009774 -0.186235 -0.080620
v -0.003451 -0.186182 -0.069201
v 0.003755 -0.186102 -0.049613
v 0.006999 -0.186053 -0.034658
v -0.011115 0.001492 -0.181678
v -0.014199 -0.033935 -0.177285
v -0.018942 -0.069324 -0.170671
v -0.030008 -0.125398 -0.155515
v -0.036099 -0.146438 -0.146368
v -0.043538 -0.166839 -0.134848
v -0.065275 -0.208800 -0.101265
v -0.080327 -0.229823 -0.078641
v -0.304370 0.005537 -0.143263
v -0.299722 -0.029360 -0.140193
v -0.291332 -0.068257 -0.134903
v -0.273006 -0.122530 -0.123703
v -0.262651 -0.144095 -0.117543
v -0.250383 -0.165236 -0.110257
v -0.216230 -0.209726 -0.089875
v -0.080142 -0.244055 0.078399
v -0.106430 -0.258519 0.000568
v -0.236950 0.149692 0.000032
v 0.298899 0.195648 0.053873
v -0.080149 -0.244055 -0.078404
v 0.128899 0.094869 0.033842
v -0.149839 -0.208642 -0.123491
v 0.088313 0.101276 0.105207
v 0.088449 0.096943 0.000136
v 0.088304 0.101276 -0.105227
v 0.222306 -0.248744 -0.161298
v 0.298354 0.100001 0.053681
v -0.149302 -0.244719 0.104188
v 0.169431 -0.279525 -0.000224
v -0.179372 0.098398 -0.102714
v -0.236252 0.149669 0.103154
v 0.276027 -0.248669 0.080787
v -0.080534 -0.230438 0.078320
v 0.150056 0.094728 0.067126
v -0.179363 0.098398 0.102716
v 0.168400 -0.249834 -0.080488
v 0.007572 -0.281097 -0.106080
v -0.179410 0.097738 0.000072
v -0.061992 -0.244714 0.000632
v 0.035465 -0.249324 -0.079952
v 0.150050 0.094728 -0.067151
v -0.178667 0.282417 0.000040
v 0.128896 0.094869 -0.033707
v 0.088308 0.198334 0.106099
v -0.179000 0.200904 -0.104358
v 0.222320 -0.248745 0.161268
v 0.088613 0.281532 0.000077
v -0.122112 0.149634 -0.103924
v 0.276019 -0.248669 -0.080820
v 0.299189 0.238018 0.000134
v 0.298349 0.100001 -0.053518
v 0.298724 0.149976 0.107385
v -0.214369 -0.245181 0.000349
v -0.237181 0.097918 0.051126
v -0.149828 -0.208642 0.123491
v 0.222113 -0.249758 -0.000010
v -0.194777 -0.244888 0.077185
v 0.192432 0.094480 -0.066352
v 0.192438 0.094480 0.066323
v -0.122103 0.149634 0.103921
v -0.121596 0.098218 -0.051573
v -0.080541 -0.230438 -0.078326
v -0.149311 -0.244719 -0.104188
v -0.235711 0.242126 0.000023
v 0.100791 -0.248851 0.160468
v 0.035472 -0.249324 0.080045
v 0.214549 0.094256 -0.032925
v 0.168407 -0.249834 0.080471
v -0.148456 -0.258599 -0.051871
v -0.121592 0.098218 0.051662
v -0.194784 -0.244889 -0.077181
v 0.214552 0.094256 0.033022
v -0.237186 0.097918 -0.051069
v 0.298715 0.149975 -0.107423
v -0.182582 -0.258705 0.000441
v -0.148452 -0.258599 0.052380
v 0.298529 0.145673 0.000169
v -0.178991 0.200905 0.104360
v 0.007581 -0.281098 0.105881
v -0.165330 -0.281633 -0.000156
v 0.088299 0.198334 -0.106120
v 0.298895 0.195648 -0.053736
v 0.100778 -0.248851 -0.160489
v -0.236261 0.149668 -0.103147
l 1 2 3 4 5 6 7 8 9
l 9 519 10
l 10 542 11
l 12 13 14 15 16 17 18 19 20
l 20 548 21
l 21 558 22
l 23 515 24
l 24 540 25
l 25 26 27 28 29 30 31 32 33
l 1 530 12
l 12 535 33
l 33 538 34
l 34 565 23
l 23 512 22
l 22 526 11
l 11 506 35
l 35 552 1
l 24 511 21
l 21 523 10
l 36 509 37
l 37 522 38
l 38 547 39
l 39 560 40
l 41 520 42
l 42 534 43
l 43 553 44
l 44 554 45
l 38 46 47 48 49 50 51 52 43
l 43 556 53
l 53 544 41
l 41 54 55 56 57 58 59 40
l 40 60 61 36
l 36 62 63 64 65 66 67 68 45
l 45 69 70 53
l 44 71 72 73 74 75 76 77 37
l 39 78 79 80 81 82 83 84 85 42
l 86 568 87
l 87 517 88
l 88 89 90 91 92
l 92 93 94 95
l 95 96 97 98 99 100 101 86
l 95 102 103 104 105 106 107
l 107 567 87
l 108 109 110 111 112 113 114 92
l 88 115 116 117 118 119 108
l 108 120 121 122 123 124 125 107
l 107 126 127 128 129 130 131 132 133 134 135 136 137 138 139 86
l 34 507 25
l 25 532 20
l 20 566 9
l 9 140 35
l 141 142 143 144 145
l 145 146 147 148 149
l 149 150 151 152 153
l 153 541 154
l 154 563 155
l 155 505 156
l 156 527 157
l 157 158 159 160 161
l 161 162 163 164 165
l 165 166 167 168 169
l 141 170 171 172 173
l 173 174 175 176 177 178 179 180 181
l 181 182 183 184 185 186 187 188
l 188 189 190 191 192 193 194 195 169
l 145 196 197 198 199
l 199 200 201 202 203 204 205 206 207
l 207 208 209 210 211 212
l 212 213 214 215 216 217 218 219 165
l 153 220 221 222 223
l 223 224 225 226 227
l 227 228 229 230 231
l 231 232 233 234 157
l 156 235 236 237 238
l 238 239 240 241 242
l 242 243 244 245 246
l 246 247 248 249 154
l 181 250 251 252 207
l 207 253 254 255 256
l 256 543 227
l 227 516 242
l 242 564 155
l 149 257 258 259 260
l 260 261 262 263 264 256
l 256 265 266 267 268
l 268 269 270 271 272 273 274 161
l 188 275 276 277 212
l 212 278 279 280 268
l 268 281 282
l 282 521 231
l 282 504 238
l 173 283 284 285 199
l 199 286 287 288 260
l 260 289 223
l 223 545 246
l 1 290 291 292 293 294 295 296 297
l 297 572 298
l 298 561 11
l 22 549 299
l 299 536 300
l 300 301 302 303 304 305 306 307 12
l 33 308 309 310 311 312 313 314 315
l 315 562 316
l 316 539 23
l 316 513 299
l 299 518 298
l 36 531 317
l 317 529 318
l 318 546 319
l 319 555 40
l 45 528 320
l 320 571 321
l 321 514 322
l 322 537 41
l 318 323 324 325 326 327 328 329 321
l 321 524 53
l 320 330 331 332 333 334 335 336 317
l 319 337 338 339 340 341 342 343 344 322
l 95 345 346 347 348 349 350
l 350 525 87
l 92 351 352 353 354 355 356 357
l 86 358 359 360 361 362 363 364 365 366 367 368 369 370 371 350
l 350 372 373 374 375 376 377 357
l 357 378 379 380 381 382 88
l 35 383 297
l 297 533 300
l 300 569 315
l 315 570 34
l 141 384 385 386 387
l 387 388 389 390 391 392 393 394 395
l 395 396 397 398 399 400 401 402
l 402 403 404 405 406 407 408 409 169
l 145 410 411 412 413
l 413 414 415 416 417 418 419 420 421
l 421 422 423 424 425 426
l 426 427 428 429 430 431 432 433 165
l 153 434 435 436 437
l 437 438 439 440 441
l 441 442 443 444 445
l 445 446 447 448 157
l 154 449 450 451 452
l 452 453 454 455 456
l 456 457 458 459 460
l 460 461 462 463 156
l 155 557 456
l 456 551 441
l 441 510 464
l 464 465 466 467 421
l 421 468 469 470 395
l 149 471 472 473 474
l 474 475 476 477 478 464
l 464 479 480 481 482
l 482 483 484 485 486 487 488 161
l 402 489 490 491 426
l 426 492 493 494 482
l 482 495 496
l 496 550 445
l 496 508 460
l 387 497 498 499 413
l 413 500 501 502 474
l 474 503 437
l 437 559 452
