v -0.292024 0.155641 -0.155512
v -0.308160 0.155258 -0.123982
v -0.320711 0.154834 -0.092921
v -0.329907 0.154373 -0.062412
v -0.335980 0.153881 -0.032540
v -0.339160 0.153363 -0.003389
v -0.339677 0.152824 0.024957
v -0.337762 0.152269 0.052415
v -0.333646 0.151703 0.078900
v -0.327559 0.151131 0.104329
v -0.319732 0.150560 0.128617
v -0.310396 0.149992 0.151681
v -0.288117 0.148892 0.193799
v -0.275636 0.148369 0.212685
v -0.249143 0.147402 0.245692
v -0.222148 0.146577 0.271787
v -0.196494 0.145934 0.290296
v -0.156751 0.145130 0.310422
v -0.136256 0.144768 0.318160
v -0.115420 0.144436 0.324244
v -0.094299 0.144133 0.328597
v -0.072949 0.143862 0.331143
v -0.051427 0.143622 0.331804
v -0.029788 0.143416 0.330503
v -0.008089 0.143243 0.327163
v 0.013613 0.143106 0.321707
v 0.035264 0.143004 0.314059
v 0.056807 0.142940 0.304140
v 0.078184 0.142913 0.291874
v 0.099341 0.142926 0.277184
v 0.120222 0.142980 0.259993
v 0.140768 0.143074 0.240223
v 0.160926 0.143211 0.217798
v 0.180638 0.143391 0.192641
v 0.199849 0.143615 0.164674
v 0.218502 0.143885 0.133820
v -0.278653 0.007540 -0.149631
v -0.295352 0.007131 -0.117002
v -0.308041 0.006678 -0.085293
v -0.317012 0.006186 -0.054558
v -0.322563 0.005661 -0.024851
v -0.324988 0.005109 0.003773
v -0.324583 0.004536 0.031260
v -0.321642 0.003948 0.057556
v -0.316462 0.003350 0.082607
v -0.309338 0.002749 0.106358
v -0.300565 0.002151 0.128755
v -0.290437 0.001561 0.149743
v -0.267303 0.000429 0.187276
v -0.254887 -0.000101 0.203713
v -0.229832 -0.001058 0.231655
v -0.206449 -0.001841 0.252660
v -0.187102 -0.002401 0.266293
v -0.167637 -0.002879 0.276757
v -0.147635 -0.003308 0.285427
v -0.127180 -0.003689 0.292295
v -0.106356 -0.004024 0.297354
v -0.085247 -0.004313 0.300598
v -0.063936 -0.004558 0.302020
v -0.042508 -0.004758 0.301612
v -0.021046 -0.004915 0.299367
v 0.000365 -0.005030 0.295279
v 0.021642 -0.005104 0.289341
v 0.042700 -0.005138 0.281544
v 0.063457 -0.005132 0.271884
v 0.083829 -0.005088 0.260351
v 0.103730 -0.005006 0.246940
v 0.123078 -0.004888 0.231644
v 0.141789 -0.004734 0.214455
v 0.159778 -0.004546 0.195366
v 0.176962 -0.004323 0.174371
v 0.193257 -0.004068 0.151462
v 0.208580 -0.003781 0.126633
v -0.193451 -0.145144 -0.102960
v -0.205932 -0.145387 -0.078887
v -0.215856 -0.145634 -0.055602
v -0.223392 -0.145885 -0.033131
v -0.228711 -0.146140 -0.011500
v -0.231986 -0.146397 0.009264
v -0.233386 -0.146654 0.029136
v -0.231247 -0.147170 0.066094
v -0.223662 -0.147680 0.099165
v -0.218256 -0.147930 0.114178
v -0.205069 -0.148418 0.141023
v -0.197630 -0.148654 0.152803
v -0.181918 -0.149104 0.172949
v -0.166233 -0.149520 0.188365
v -0.151942 -0.149895 0.198841
v -0.123319 -0.150600 0.213361
v -0.108702 -0.150913 0.218711
v -0.079028 -0.151458 0.225439
v -0.048992 -0.151887 0.226667
v -0.033922 -0.152055 0.225143
v -0.003847 -0.152293 0.217663
v 0.025914 -0.152395 0.204074
v 0.040593 -0.152391 0.194911
v 0.069380 -0.152272 0.171696
v 0.097178 -0.151995 0.141761
v 0.110622 -0.151795 0.124196
v 0.136431 -0.151266 0.083721
v -0.032326 -0.153849 -0.011981
v -0.119138 -0.154274 0.141123
v -0.143858 -0.152495 0.184656
v -0.156541 -0.140904 0.206924
v -0.161096 -0.128477 0.215213
v -0.169779 -0.096549 0.231650
v -0.179072 -0.051716 0.249994
v -0.191376 0.034854 0.275295
v -0.194174 0.071108 0.281990
v -0.195784 0.107692 0.286837
v -0.287871 0.071807 -0.154121
v -0.283688 0.035591 -0.152167
v -0.270920 -0.021511 -0.145557
v -0.261272 -0.050428 -0.140387
v -0.248849 -0.081077 -0.133659
v -0.239258 -0.100525 -0.128423
v -0.228783 -0.117823 -0.122667
v -0.217564 -0.131805 -0.116459
v -0.205740 -0.141301 -0.109867
v 0.033948 -0.156300 0.025540
v 0.088951 -0.156608 0.056721
v 0.123327 -0.154650 0.076241
v 0.148796 -0.140700 0.090883
v 0.159828 -0.128469 0.097311
v 0.169598 -0.114849 0.103041
v 0.182041 -0.092418 0.110404
v 0.188964 -0.076532 0.114545
v 0.197469 -0.051994 0.119698
v 0.203928 -0.027434 0.123686
v 0.212690 0.025121 0.129319
v 0.216127 0.061987 0.131679
v 0.217966 0.099258 0.133099
v 0.213375 0.144745 0.130628
v 0.238296 0.142223 0.144719
v 0.263805 0.136063 0.159099
v 0.287997 0.125743 0.172684
v 0.302452 0.116293 0.180762
v 0.314909 0.104606 0.187681
v 0.320212 0.097876 0.190605
v 0.328614 0.082543 0.195182
v 0.333607 0.064586 0.197796
v 0.334624 0.043850 0.198124
v 0.330999 0.018634 0.195768
v 0.323391 -0.001936 0.191211
v 0.312363 -0.018345 0.184765
v 0.298479 -0.031081 0.176744
v 0.282299 -0.040632 0.167461
v 0.254960 -0.050050 0.151855
v 0.225623 -0.055040 0.135169
v 0.186682 -0.057647 0.113069
v 0.195377 -0.009623 0.136453
v 0.239535 -0.007102 0.161443
v 0.251691 -0.004301 0.168346
v 0.263081 0.000257 0.174833
v 0.273097 0.007015 0.180565
v 0.281135 0.016419 0.185205
v 0.286588 0.028912 0.188412
v 0.288849 0.044938 0.189849
v 0.287911 0.054887 0.189415
v 0.282353 0.068676 0.186402
v 0.276214 0.076964 0.183006
v 0.263923 0.087779 0.176150
v 0.254007 0.093761 0.170590
v 0.237121 0.100636 0.161090
v 0.218503 0.104684 0.150578
v 0.205509 0.105639 0.143222
v 0.291420 0.044598 0.201486
v 0.295466 0.044294 0.210925
v 0.300202 0.044084 0.215856
v 0.306449 0.043899 0.217579
v 0.313125 0.043772 0.216367
v 0.321387 0.043727 0.211981
v 0.328639 0.043764 0.205801
v 0.207639 0.143587 0.140716
v 0.203068 0.140581 0.148685
v 0.199821 0.136036 0.154266
v 0.198058 0.130259 0.157190
v 0.197901 0.122738 0.157217
v 0.199275 0.116240 0.154568
v 0.202116 0.110048 0.149345
v 0.187832 -0.011501 0.148433
v 0.182715 -0.016474 0.153565
v 0.180012 -0.024143 0.152197
v 0.179709 -0.034108 0.144679
v 0.182751 -0.050773 0.125694
v 0.184884 -0.056117 0.117525
v 0.208910 -0.031886 0.161304
v 0.233691 -0.027744 0.175429
v 0.258209 -0.020217 0.189439
v 0.273193 -0.012758 0.198033
v 0.286238 -0.002954 0.205553
v 0.296615 0.009533 0.211591
v 0.303595 0.025038 0.215735
v 0.305278 0.061617 0.217126
v 0.300999 0.077006 0.214884
v 0.293971 0.090182 0.211059
v 0.279064 0.106053 0.202800
v 0.266741 0.114209 0.195914
v 0.245577 0.123095 0.184027
v 0.222278 0.128314 0.170888
v -0.273264 0.155996 -0.185557
v -0.253061 0.156264 -0.212289
v -0.231608 0.156452 -0.235858
v -0.209095 0.156564 -0.256428
v -0.185713 0.156608 -0.274144
v -0.161651 0.156589 -0.289166
v -0.137102 0.156513 -0.301646
v -0.112256 0.156385 -0.311739
v -0.087303 0.156212 -0.319603
v -0.062434 0.156001 -0.325385
v -0.037840 0.155757 -0.329241
v 0.009761 0.155192 -0.331804
v 0.032386 0.154883 -0.330819
v 0.074333 0.154244 -0.325078
v 0.110604 0.153615 -0.315351
v 0.139672 0.153044 -0.302865
v 0.177361 0.152196 -0.279118
v 0.194527 0.151764 -0.265504
v 0.210447 0.151328 -0.250746
v 0.225027 0.150888 -0.234849
v 0.238171 0.150442 -0.217828
v 0.249786 0.149992 -0.199686
v 0.259777 0.149540 -0.180432
v 0.268048 0.149084 -0.160080
v 0.274506 0.148623 -0.138636
v 0.279056 0.148160 -0.116110
v 0.281602 0.147694 -0.092510
v 0.282051 0.147225 -0.067847
v 0.280307 0.146754 -0.042129
v 0.276277 0.146280 -0.015365
v 0.269864 0.145804 0.012435
v 0.260975 0.145327 0.041263
v 0.249515 0.144848 0.071109
v 0.235388 0.144367 0.101965
v -0.259239 0.007895 -0.180723
v -0.238550 0.008148 -0.207907
v -0.216784 0.008306 -0.231410
v -0.194141 0.008377 -0.251451
v -0.170819 0.008370 -0.268255
v -0.147017 0.008292 -0.282052
v -0.122932 0.008151 -0.293064
v -0.098765 0.007955 -0.301516
v -0.074713 0.007712 -0.307635
v -0.050975 0.007430 -0.311642
v -0.027749 0.007116 -0.313768
v 0.016369 0.006429 -0.313259
v 0.036864 0.006070 -0.311077
v 0.073735 0.005361 -0.303986
v 0.103787 0.004720 -0.294751
v 0.125434 0.004209 -0.285173
v 0.144414 0.003721 -0.273856
v 0.162125 0.003243 -0.261143
v 0.178519 0.002776 -0.247110
v 0.193546 0.002318 -0.231821
v 0.207159 0.001871 -0.215347
v 0.219308 0.001433 -0.197762
v 0.229946 0.001004 -0.179131
v 0.239023 0.000585 -0.159525
v 0.246491 0.000175 -0.139009
v 0.252302 -0.000226 -0.117658
v 0.256407 -0.000618 -0.095539
v 0.258758 -0.001002 -0.072722
v 0.259306 -0.001377 -0.049276
v 0.258001 -0.001743 -0.025271
v 0.254798 -0.002102 -0.000774
v 0.249645 -0.002453 0.024143
v 0.242496 -0.002796 0.049411
v 0.233301 -0.003132 0.074962
v 0.222011 -0.003460 0.100725
v 0.157900 -0.150795 0.040774
v 0.166067 -0.150538 0.020207
v 0.177481 -0.149986 -0.019046
v 0.182624 -0.149387 -0.055701
v 0.182953 -0.149073 -0.073020
v 0.179341 -0.148419 -0.105571
v 0.170325 -0.147736 -0.135252
v 0.163900 -0.147384 -0.148978
v 0.147428 -0.146669 -0.174143
v 0.126419 -0.145941 -0.196159
v 0.114321 -0.145573 -0.205950
v 0.087155 -0.144838 -0.223042
v 0.070811 -0.144506 -0.229896
v 0.049497 -0.144209 -0.235380
v 0.024101 -0.143964 -0.238438
v 0.010148 -0.143867 -0.238728
v -0.019710 -0.143732 -0.236157
v -0.035393 -0.143698 -0.233034
v -0.067714 -0.143711 -0.222456
v -0.100568 -0.143845 -0.205219
v -0.116918 -0.143963 -0.193774
v -0.133067 -0.144117 -0.180264
v -0.148906 -0.144310 -0.164560
v -0.164324 -0.144545 -0.146531
v -0.179209 -0.144821 -0.126040
v 0.137463 0.114740 -0.301175
v 0.134508 0.078060 -0.297966
v 0.130576 0.041662 -0.292789
v 0.116085 -0.045474 -0.270809
v 0.105585 -0.090726 -0.254229
v 0.096275 -0.123033 -0.238916
v 0.091634 -0.135655 -0.230978
v 0.079159 -0.147778 -0.208856
v 0.054506 -0.150602 -0.165271
v 0.220489 0.105956 0.116790
v 0.233486 0.105001 0.124141
v 0.252111 0.100953 0.134640
v 0.269009 0.094078 0.144121
v 0.278934 0.088096 0.149663
v 0.291242 0.077281 0.156489
v 0.297395 0.068994 0.159860
v 0.302977 0.055205 0.162830
v 0.303934 0.045257 0.163232
v 0.301704 0.029232 0.161739
v 0.296280 0.016740 0.158483
v 0.288266 0.007336 0.153800
v 0.278271 0.000578 0.148029
v 0.266901 -0.003979 0.141508
v 0.254762 -0.006780 0.134575
v 0.210662 -0.009299 0.109485
v 0.315241 0.045102 0.159454
v 0.325420 0.044927 0.158071
v 0.332086 0.044759 0.159597
v 0.336776 0.044540 0.164068
v 0.339174 0.044323 0.170403
v 0.339677 0.044114 0.179710
v 0.338122 0.043965 0.189068
v 0.219085 0.143829 0.120519
v 0.223586 0.141015 0.112480
v 0.226735 0.136605 0.106776
v 0.228390 0.130900 0.103671
v 0.228409 0.123383 0.103386
v 0.226909 0.116824 0.105808
v 0.223952 0.110510 0.110815
v 0.189559 -0.056018 0.109275
v 0.195399 -0.050505 0.103378
v 0.209919 -0.033469 0.091375
v 0.216421 -0.023373 0.087954
v 0.218904 -0.015708 0.089710
v 0.217080 -0.010882 0.096825
v 0.252605 0.128955 0.117377
v 0.275902 0.123736 0.130520
v 0.297064 0.114850 0.142409
v 0.309388 0.106695 0.149295
v 0.324295 0.090823 0.157552
v 0.331323 0.077647 0.161377
v 0.335604 0.062258 0.163617
v 0.333922 0.025680 0.162224
v 0.326939 0.010174 0.158084
v 0.316556 -0.002313 0.152057
v 0.303503 -0.012117 0.144551
v 0.288508 -0.019576 0.135976
v 0.263969 -0.027103 0.122003
v 0.239161 -0.031246 0.107925
v -0.112888 -0.149496 -0.057470
l 1 2 3 4 5 6 7 8 9 10 11 12 13 14 15 16 17
l 17 18 19 20 21 22 23 24 25 26 27 28 29 30 31 32 33 34 35 36
l 37 38 39 40 41 42 43 44 45 46 47 48 49 50 51 52 53
l 53 54 55 56 57 58 59 60 61 62 63 64 65 66 67 68 69 70 71 72 73
l 74 75 76 77 78 79 80 81 82 83 84 85 86 87 88
l 88 89 90 91 92 93 94 95 96 97 98 99 100
l 101 102 103 88
l 88 104 105 106 107 53
l 53 108 109 110 17
l 1 111 112 37
l 37 113 114 115 116 117 118 119 74
l 74 354 101
l 101 120 121 122 100
l 100 123 124 125 126 127 128 129 73
l 73 130 131 132 36
l 133 134 135 136 137 138 139 140 141 142
l 142 143 144 145 146 147 148 149 150
l 151 152 153 154 155 156 157 158
l 158 159 160 161 162 163 164 165 166
l 158 167 168 169 170
l 170 171 172 173 142
l 133 174 175 176 177
l 177 178 179 180 166
l 151 181 182 183 184
l 184 185 186 150
l 184 187 188 189 190 191 192 193 170
l 170 194 195 196 197 198 199 200 177
l 1 201 202 203 204 205 206 207 208 209 210 211 212 213 214 215 216
l 216 217 218 219 220 221 222 223 224 225 226 227 228 229 230 231 232 233 234 36
l 37 235 236 237 238 239 240 241 242 243 244 245 246 247 248 249 250
l 250 251 252 253 254 255 256 257 258 259 260 261 262 263 264 265 266 267 268 269 73
l 100 270 271 272 273 274 275 276 277 278 279 280 281
l 281 282 283 284 285 286 287 288 289 290 291 292 293 294 74
l 216 295 296 297 250
l 250 298 299 300 301 281
l 281 302 303 101
l 304 305 306 307 308 309 310 311 312
l 312 313 314 315 316 317 318 319
l 312 320 321 322 323
l 323 324 325 326 142
l 133 327 328 329 330
l 330 331 332 333 304
l 150 334 335 336
l 336 337 338 339 319
l 330 340 341 342 343 344 345 346 323
l 323 347 348 349 350 351 352 353 336
