v 0.013417 0.003507 0.223730
v 0.013349 0.016027 0.218657
v 0.013209 0.028015 0.210661
v 0.012999 0.039985 0.199687
v 0.012822 0.046955 0.190990
v 0.012617 0.052420 0.181379
v 0.012387 0.055780 0.171018
v 0.012133 0.056438 0.160070
v 0.011855 0.053792 0.148699
v 0.011041 0.036373 0.116848
v 0.010644 0.030610 0.099700
v 0.010462 0.029834 0.090974
v 0.010204 0.031813 0.077079
v 0.009054 0.051146 0.019568
v 0.008489 0.056124 -0.002391
v 0.008024 0.058115 -0.018560
v 0.007884 0.059996 -0.023364
v 0.007562 0.061916 -0.035544
v 0.007348 0.065506 -0.042896
v 0.007209 0.070114 -0.046732
v 0.006920 0.083522 -0.050274
v 0.006645 0.085956 -0.055683
v 0.006135 0.082610 -0.069424
v 0.004762 0.063977 -0.112727
v 0.004087 0.055642 -0.135177
v 0.003531 0.050777 -0.154166
v 0.002976 0.048682 -0.173542
v 0.002420 0.050889 -0.193093
v 0.002004 0.057519 -0.207390
v 0.001687 0.067355 -0.217976
v 0.000909 0.103933 -0.242925
v 0.000567 0.114427 -0.254119
v 0.000357 0.118671 -0.261125
v -0.000167 0.124393 -0.278919
v -0.000492 0.125567 -0.290094
v -0.001294 0.123781 -0.317963
v -0.001493 0.117071 -0.323781
v -0.001673 0.109044 -0.328499
v -0.001977 0.089648 -0.334908
v -0.002209 0.066821 -0.337732
v -0.002373 0.041794 -0.337510
v -0.002502 0.002814 -0.332650
v -0.002500 -0.034207 -0.323979
v -0.002381 -0.065120 -0.313322
v -0.002159 -0.085778 -0.302504
v -0.001981 -0.092894 -0.296033
v -0.001741 -0.099149 -0.287727
v -0.001094 -0.109276 -0.266243
v -0.000268 -0.116565 -0.239317
v 0.000688 -0.121420 -0.208212
v 0.001722 -0.124246 -0.174192
v 0.003314 -0.125567 -0.120462
v 0.006348 -0.122119 -0.004607
v 0.008075 -0.117405 0.088718
v 0.009383 -0.111318 0.161569
v 0.010293 -0.105820 0.202224
v 0.011121 -0.099354 0.237223
v 0.011999 -0.090134 0.273629
v 0.012547 -0.082303 0.296037
v 0.013021 -0.073016 0.315102
v 0.013381 -0.062183 0.329240
v 0.013506 -0.056157 0.333964
v 0.013588 -0.049710 0.336861
v 0.013622 -0.042831 0.337732
v 0.013584 -0.030629 0.335104
v 0.013459 -0.020871 0.328517
v 0.013282 -0.013269 0.318723
v 0.013087 -0.007539 0.306477
v 0.012906 -0.003397 0.292533
v 0.012738 0.000468 0.270082
v 0.034905 -0.119758 -0.005363
v 0.058438 -0.116024 -0.006164
v 0.077432 -0.111166 -0.006993
v 0.092375 -0.105435 -0.007833
v 0.103754 -0.099082 -0.008667
v 0.115204 -0.088937 -0.009871
v 0.121374 -0.078804 -0.010968
v 0.124225 -0.066775 -0.012165
v 0.124505 -0.054791 -0.013327
v 0.121927 -0.043818 -0.014473
v 0.116834 -0.038593 -0.015123
v 0.106060 -0.034538 -0.015780
v 0.100205 -0.030029 -0.016322
v 0.097307 -0.024312 -0.016898
v 0.095634 -0.015393 -0.017732
v 0.092815 0.000304 -0.019147
v 0.086794 0.016376 -0.020553
v 0.077282 0.031586 -0.021827
v 0.068859 0.040637 -0.022541
v 0.052890 0.051662 -0.023319
v 0.039894 0.056778 -0.023588
v 0.024921 0.059678 -0.023615
v 0.024805 0.052101 0.148529
v 0.038609 0.047384 0.148585
v 0.052169 0.040045 0.148860
v 0.060534 0.033893 0.149161
v 0.071255 0.023078 0.149783
v 0.076712 0.014983 0.150307
v 0.080439 0.006319 0.150916
v 0.082109 -0.002794 0.151609
v 0.091145 -0.007398 0.151755
v 0.094259 -0.012306 0.152063
v 0.095487 -0.018252 0.152494
v 0.092788 -0.035228 0.153869
v 0.083644 -0.056632 0.155735
v 0.082392 -0.064043 0.156316
v 0.076524 -0.075439 0.157319
v 0.070395 -0.082883 0.158033
v 0.058627 -0.093241 0.159105
v 0.044679 -0.101931 0.160096
v 0.034673 -0.106411 0.160665
v 0.019357 -0.110579 0.161314
v 0.084734 -0.006943 0.100803
v 0.083383 0.003641 0.100057
v 0.079955 0.012418 0.099493
v 0.073572 0.019424 0.099125
v 0.067239 0.023132 0.098996
v 0.053972 0.027277 0.098990
v 0.042234 0.029112 0.099116
v 0.075852 -0.001490 0.127654
v 0.071633 -0.003047 0.113670
v 0.074491 -0.005485 0.109737
v 0.088233 -0.005236 0.095776
v 0.093802 -0.000243 0.083420
v 0.097803 0.010232 0.060901
v 0.095326 0.022748 0.036429
v 0.089380 0.031371 0.020601
v 0.084961 0.035574 0.013187
v 0.072971 0.043441 -0.000051
v 0.056431 0.050162 -0.010384
v 0.034921 0.055225 -0.016868
v 0.020954 0.003314 0.222752
v 0.028876 0.002939 0.219340
v 0.036983 0.002414 0.213888
v 0.049053 0.001415 0.202742
v 0.067260 -0.000552 0.179533
v 0.075939 -0.001736 0.164991
v 0.089463 -0.004892 0.124206
v 0.094560 -0.008032 0.082417
v 0.096275 -0.011435 0.036482
v 0.091991 -0.026156 -0.169082
v 0.089717 -0.035959 -0.309587
v 0.095037 -0.024148 -0.169337
v 0.095626 -0.016886 -0.169943
v 0.093370 0.002563 -0.171485
v 0.088745 0.013596 -0.172294
v 0.077593 0.027281 -0.173190
v 0.067620 0.034511 -0.173586
v 0.049317 0.042550 -0.173892
v 0.027559 0.047260 -0.173871
v 0.009579 0.048093 -0.179740
v 0.014618 0.047276 -0.188861
v 0.018283 0.046271 -0.200449
v 0.020762 0.045118 -0.214049
v 0.023024 0.041837 -0.253863
v 0.021395 0.037255 -0.312398
v 0.346655 -0.087370 -0.312218
v 0.346017 -0.085792 -0.289741
v 0.342771 -0.083378 -0.255120
v 0.336974 -0.081795 -0.232088
v 0.328713 -0.080853 -0.218020
v 0.323685 -0.080564 -0.213527
v 0.311889 -0.080228 -0.207980
v 0.281640 -0.079866 -0.201456
v 0.263361 -0.079459 -0.195227
v 0.243094 -0.078648 -0.183518
v 0.220926 -0.077244 -0.163704
v 0.215674 -0.076757 -0.156852
v 0.208681 -0.075616 -0.140619
v 0.205044 -0.074312 -0.121914
v 0.201478 -0.071508 -0.081421
v 0.198368 -0.070157 -0.061799
v 0.192253 -0.068938 -0.044039
v 0.187571 -0.068401 -0.036194
v 0.181542 -0.067925 -0.029221
v 0.173967 -0.067518 -0.023255
v 0.164646 -0.067191 -0.018431
v 0.153381 -0.066952 -0.014884
v 0.139974 -0.066810 -0.012750
v 0.030765 -0.043071 0.334669
v 0.044994 -0.043698 0.326488
v 0.056555 -0.044662 0.313846
v 0.061413 -0.045254 0.306059
v 0.069439 -0.046629 0.287960
v 0.075419 -0.048215 0.267045
v 0.081092 -0.050882 0.231835
v 0.083555 -0.053744 0.193991
v 0.085308 -0.058808 0.109893
v 0.088798 -0.059069 0.084664
v 0.093826 -0.058980 0.062000
v 0.098124 -0.058963 0.047787
v 0.104052 -0.059510 0.034557
v 0.120912 -0.064181 0.011652
v 0.123505 -0.065646 0.002338
v 0.122771 -0.066927 -0.027682
v 0.117327 -0.064604 -0.043873
v 0.101362 -0.052874 -0.069648
v 0.094476 -0.044612 -0.089537
v 0.090747 -0.035515 -0.120964
v 0.342157 -0.078609 -0.312748
v 0.337846 -0.074418 -0.312948
v 0.325273 -0.066480 -0.313217
v 0.297061 -0.055881 -0.313290
v 0.272423 -0.049844 -0.313119
v 0.227417 -0.042593 -0.312529
v 0.192454 -0.039118 -0.311913
v 0.133266 -0.036209 -0.310653
v 0.088919 -0.017724 -0.310818
v 0.085835 -0.002762 -0.311757
v 0.080819 0.009245 -0.312435
v 0.074225 0.018614 -0.312880
v 0.066408 0.025664 -0.313125
v 0.053166 0.032585 -0.313182
v 0.039168 0.036078 -0.312957
v 0.020129 0.042499 -0.312723
v 0.018086 0.086937 -0.315853
v 0.014891 0.105042 -0.317068
v 0.008773 0.118490 -0.317865
v 0.002564 0.123139 -0.318026
v -0.009170 0.059788 -0.022766
v -0.024208 0.056984 -0.021991
v -0.037303 0.051952 -0.021072
v -0.053467 0.041030 -0.019494
v -0.062031 0.032034 -0.018357
v -0.071747 0.016886 -0.016604
v -0.077928 0.000853 -0.014894
v -0.080826 -0.014826 -0.013337
v -0.082513 -0.023733 -0.012419
v -0.085415 -0.029432 -0.011698
v -0.091264 -0.033904 -0.010864
v -0.102019 -0.037889 -0.009672
v -0.107106 -0.043082 -0.008767
v -0.109694 -0.054038 -0.007493
v -0.109433 -0.066024 -0.006344
v -0.106808 -0.078070 -0.005283
v -0.101007 -0.088242 -0.004485
v -0.090006 -0.098459 -0.003840
v -0.078932 -0.104884 -0.003565
v -0.064270 -0.110710 -0.003463
v -0.045510 -0.115690 -0.003575
v -0.022141 -0.119575 -0.003942
v -0.000468 -0.110515 0.161808
v -0.015226 -0.106251 0.161908
v -0.024686 -0.101708 0.161824
v -0.037683 -0.092932 0.161505
v -0.048496 -0.082501 0.160995
v -0.054074 -0.075019 0.160572
v -0.059366 -0.063587 0.159848
v -0.060479 -0.056169 0.159325
v -0.069567 -0.034706 0.157913
v -0.072221 -0.017712 0.156672
v -0.070979 -0.011775 0.156179
v -0.067853 -0.006887 0.155716
v -0.058805 -0.002341 0.155119
v -0.057105 0.006761 0.154343
v -0.053337 0.015401 0.153547
v -0.047830 0.023461 0.152749
v -0.037025 0.034207 0.151591
v -0.028605 0.040304 0.150872
v -0.014970 0.047556 0.149920
v -0.001114 0.052185 0.149174
v -0.020992 0.029316 0.100691
v -0.032783 0.027555 0.101151
v -0.046152 0.023497 0.101821
v -0.052561 0.019830 0.102267
v -0.059056 0.012865 0.102955
v -0.062576 0.004111 0.103693
v -0.063983 -0.006465 0.104508
v -0.053740 -0.001073 0.130882
v -0.050233 -0.002655 0.116706
v -0.053299 -0.005075 0.112920
v -0.067710 -0.004735 0.099660
v -0.073807 0.000296 0.087596
v -0.078714 0.010799 0.065298
v -0.078504 0.019020 0.048978
v -0.077186 0.023303 0.040726
v -0.071841 0.031890 0.024617
v -0.067703 0.036065 0.016990
v -0.056212 0.043857 0.003167
v -0.040060 0.050473 -0.007980
v -0.018798 0.055397 -0.015530
v 0.005841 0.003363 0.223129
v -0.002242 0.003039 0.220116
v -0.010612 0.002567 0.215073
v -0.023226 0.001647 0.204542
v -0.042574 -0.000198 0.182269
v -0.051971 -0.001325 0.168177
v -0.067528 -0.004387 0.128117
v -0.074719 -0.007488 0.086634
v -0.078741 -0.010872 0.040842
v -0.084792 -0.025588 -0.164678
v -0.089579 -0.035383 -0.305121
v -0.021517 0.047417 -0.172648
v -0.036243 0.044741 -0.171961
v -0.055505 0.037941 -0.170800
v -0.066214 0.031531 -0.169944
v -0.078658 0.019066 -0.168543
v -0.084293 0.008836 -0.167536
v -0.088332 -0.009423 -0.165922
v -0.087834 -0.023560 -0.164782
v -0.003892 0.048136 -0.179404
v -0.009278 0.047353 -0.188266
v -0.013365 0.046373 -0.199661
v -0.016336 0.045237 -0.213125
v -0.020089 0.041976 -0.252789
v -0.021014 0.037392 -0.311341
v -0.346655 -0.085142 -0.294948
v -0.344888 -0.083571 -0.272530
v -0.339907 -0.081183 -0.238114
v -0.332961 -0.079641 -0.215400
v -0.324003 -0.078755 -0.201761
v -0.318756 -0.078498 -0.197523
v -0.306697 -0.078239 -0.192571
v -0.276159 -0.078072 -0.187561
v -0.257590 -0.077784 -0.182250
v -0.236761 -0.077106 -0.171565
v -0.213625 -0.075847 -0.152879
v -0.208035 -0.075395 -0.146297
v -0.200236 -0.074301 -0.130433
v -0.195663 -0.073023 -0.111932
v -0.190068 -0.070250 -0.071668
v -0.185976 -0.068921 -0.052225
v -0.178976 -0.067745 -0.034791
v -0.173907 -0.067239 -0.027190
v -0.167535 -0.066802 -0.020526
v -0.159669 -0.066446 -0.014944
v -0.150118 -0.066179 -0.010590
v -0.138690 -0.066012 -0.007609
v -0.125192 -0.065957 -0.006145
v -0.003514 -0.042961 0.335523
v -0.017757 -0.043497 0.328051
v -0.029381 -0.044386 0.315987
v -0.034297 -0.044947 0.308443
v -0.042508 -0.046269 0.290748
v -0.048786 -0.047816 0.270139
v -0.055181 -0.050444 0.235229
v -0.058769 -0.053286 0.197536
v -0.064437 -0.058326 0.113624
v -0.069181 -0.058561 0.088600
v -0.075330 -0.058436 0.066214
v -0.080331 -0.058389 0.052233
v -0.086913 -0.058896 0.039314
v -0.104923 -0.063455 0.017277
v -0.107985 -0.064901 0.008104
v -0.108755 -0.066182 -0.021914
v -0.104109 -0.063891 -0.038357
v -0.089372 -0.052260 -0.064897
v -0.083432 -0.044040 -0.085105
v -0.081214 -0.034963 -0.116680
v -0.005131 0.123164 -0.317834
v -0.011181 0.118553 -0.317369
v -0.016838 0.105144 -0.316278
v -0.019411 0.087057 -0.314919
v -0.019927 0.042628 -0.311725
v -0.038799 0.036329 -0.311015
v -0.052813 0.032926 -0.310542
v -0.066080 0.026090 -0.309825
v -0.073920 0.019090 -0.309190
v -0.080544 0.009763 -0.308415
v -0.085597 -0.002211 -0.307487
v -0.088727 -0.017153 -0.306393
v -0.133128 -0.035353 -0.304017
v -0.192323 -0.037881 -0.302328
v -0.227295 -0.041131 -0.301202
v -0.272320 -0.048092 -0.299549
v -0.296974 -0.053971 -0.298493
v -0.325215 -0.064388 -0.297012
v -0.337810 -0.072246 -0.296117
v -0.342132 -0.076410 -0.295702
v -0.087186 -0.030486 -0.234899
v -0.174407 -0.085460 -0.298726
v -0.082809 -0.020207 -0.089007
v 0.007954 0.059056 -0.020962
v 0.090854 -0.031058 -0.239334
v 0.172248 -0.086574 -0.307361
v 0.093812 -0.020775 -0.093407
l 1 2 3 4 5 6 7 8 9
l 9 10 11
l 11 12 13 14 15 16
l 16 373 17
l 17 18 19 20 21 22 23 24 25 26 27
l 27 28 29 30 31 32 33 34 35 36
l 36 37 38 39 40 41 42 43 44 45
l 45 46 47 48 49 50 51 52 53
l 53 54 55
l 55 56 57 58 59 60 61 62 63 64
l 64 65 66 67 68 69 70 1
l 53 71 72 73 74 75 76 77 78
l 78 79 80 81 82 83 84 85
l 85 86 87 88 89 90 91 92 17
l 9 93 94 95 96 97 98 99 100
l 100 101 102 103 104 105
l 105 106 107 108 109 110 111 112 55
l 113 114 115 116 117 118 119 11
l 100 120 121 122 113
l 113 123 124 125 126 127 128 129 130 131 16
l 1 132 133 134 135 136 137 100
l 100 138 139 140 85
l 85 376 141
l 141 374 142
l 141 143 144 145 146 147 148 149 150 27
l 27 151 152 153 154 155 156
l 157 158 159 160 161 162 163 164 165 166 167 168 169 170 171 172 173 174 175 176 177 178 179 78
l 64 180 181 182 183 184 185 186 187 105
l 105 188 189 190 191 192 193 194 78
l 78 195 196 197 198 199 141
l 141 143
l 45 375 157
l 157 200 201 202 203 204 205 206 207 142
l 142 208 209 210 211 212 213 214 156
l 156 215 216 217 218 219 36
l 17 220 221 222 223 224 225 226 227
l 227 228 229 230 231 232 233 234
l 234 235 236 237 238 239 240 241 53
l 55 242 243 244 245 246 247 248 249
l 249 250 251 252 253 254
l 254 255 256 257 258 259 260 261 9
l 11 262 263 264 265 266 267 268
l 254 269 270 271 268
l 268 272 273 274 275 276 277 278 279 280 281 16
l 1 282 283 284 285 286 287 254
l 254 288 289 290 227
l 227 372 291
l 291 370 292
l 27 293 294 295 296 297 298 299 300
l 300 291
l 27 301 302 303 304 305 306
l 307 308 309 310 311 312 313 314 315 316 317 318 319 320 321 322 323 324 325 326 327 328 329 234
l 64 330 331 332 333 334 335 336 337 249
l 249 338 339 340 341 342 343 344 234
l 234 345 346 347 348 349 291
l 36 350 351 352 353 354 306
l 306 355 356 357 358 359 360 361 292
l 292 362 363 364 365 366 367 368 369 307
l 307 371 45
