v -0.004067 0.115776 -0.146784
v -0.004238 0.112260 -0.172546
v -0.004470 0.099492 -0.204969
v -0.004713 0.078371 -0.238043
v -0.005010 0.043430 -0.279209
v -0.005080 0.031344 -0.288968
v -0.005121 0.018019 -0.294567
v -0.005136 0.004015 -0.296505
v -0.005120 -0.017038 -0.293643
v -0.005066 -0.036467 -0.285360
v -0.004984 -0.052379 -0.273343
v -0.004885 -0.062883 -0.259281
v -0.004815 -0.065947 -0.249603
v -0.004738 -0.064704 -0.239021
v -0.004564 -0.058244 -0.215107
v -0.004067 -0.035094 -0.146784
v -0.003609 -0.011868 -0.082936
v -0.003250 0.010133 -0.032946
v -0.002957 0.033070 0.007453
v -0.002802 0.051168 0.028668
v -0.002769 0.057434 0.033255
v -0.002730 0.070079 0.038506
v -0.002723 0.082610 0.039321
v -0.002742 0.094704 0.036644
v -0.002780 0.106040 0.031422
v -0.002856 0.120920 0.020887
v -0.003012 0.140475 -0.000513
v -0.003144 0.138604 -0.018267
v -0.003766 0.120191 -0.102567
v 0.138963 0.116775 -0.147854
v 0.194812 0.117659 -0.147929
v 0.230805 0.116522 -0.148098
v 0.258686 0.111565 -0.147986
v 0.277052 0.104206 -0.147918
v 0.292383 0.094533 -0.147978
v 0.305156 0.081826 -0.148022
v 0.311908 0.069594 -0.147965
v 0.314849 0.048611 -0.148008
v 0.311676 0.021117 -0.148321
v 0.302932 -0.010933 -0.148720
v 0.289154 -0.045582 -0.149017
v 0.268207 -0.085548 -0.149376
v 0.245639 -0.115314 -0.149824
v 0.230952 -0.127884 -0.150040
v 0.220564 -0.133936 -0.150130
v 0.203949 -0.139369 -0.150149
v 0.192099 -0.140475 -0.150062
v 0.169410 -0.137652 -0.149765
v 0.152739 -0.129716 -0.149456
v 0.140084 -0.117943 -0.149136
v 0.106212 -0.072336 -0.148135
v 0.089620 -0.057953 -0.147794
v 0.079204 -0.051630 -0.147624
v 0.052884 -0.041524 -0.147285
v 0.036480 -0.038057 -0.147117
v 0.012881 0.043693 -0.280380
v 0.041298 0.044906 -0.285370
v 0.153273 0.052050 -0.313915
v 0.193315 0.053205 -0.318224
v 0.223450 0.053803 -0.316758
v 0.248123 0.055111 -0.311634
v 0.267857 0.056951 -0.302929
v 0.276037 0.058014 -0.297258
v 0.289351 0.060314 -0.283320
v 0.299043 0.062696 -0.265987
v 0.307935 0.066027 -0.233784
v 0.311631 0.068529 -0.194360
v 0.310409 0.069982 -0.125662
v 0.304829 0.071508 -0.097125
v 0.284743 0.076796 -0.039722
v 0.277053 0.078554 -0.012662
v 0.272281 0.079254 0.019707
v 0.271531 0.078879 0.045548
v 0.270899 0.076194 0.102235
v 0.267754 0.072815 0.155690
v 0.261139 0.068957 0.211035
v 0.254276 0.066424 0.245657
v 0.245084 0.064137 0.276130
v 0.233246 0.062281 0.300458
v 0.218446 0.061039 0.316645
v 0.209838 0.060705 0.321062
v 0.200372 0.060595 0.322694
v 0.189857 0.060769 0.321203
v 0.180408 0.061259 0.316582
v 0.171957 0.062038 0.309142
v 0.157781 0.064360 0.287046
v 0.146787 0.067526 0.257392
v 0.138432 0.071328 0.222661
v 0.132175 0.075559 0.185333
v 0.120570 0.088744 0.082566
v 0.115447 0.094327 0.051710
v 0.108466 0.099679 0.033795
v 0.099619 0.105542 0.020263
v 0.089199 0.111662 0.010529
v 0.077501 0.117788 0.004005
v 0.064821 0.123666 0.000106
v 0.044603 0.131463 -0.002100
v 0.016954 0.138629 -0.001323
v 0.007927 -0.066114 -0.251876
v 0.022553 -0.066564 -0.257903
v 0.097659 -0.069691 -0.300887
v 0.131666 -0.070751 -0.316455
v 0.168272 -0.071358 -0.326824
v 0.193933 -0.071390 -0.329294
v 0.222943 -0.070521 -0.326460
v 0.245532 -0.068486 -0.317815
v 0.262484 -0.065578 -0.304268
v 0.274582 -0.062093 -0.286736
v 0.282612 -0.058326 -0.266132
v 0.288740 -0.052791 -0.231466
v 0.290122 -0.048281 -0.195028
v 0.286357 -0.043925 -0.107506
v 0.271326 -0.033864 -0.020624
v 0.269194 -0.032819 0.012737
v 0.269052 -0.033183 0.040794
v 0.267495 -0.035240 0.094987
v 0.263019 -0.037567 0.145568
v 0.255203 -0.040140 0.197711
v 0.247910 -0.041803 0.230250
v 0.238795 -0.043291 0.258847
v 0.227721 -0.044491 0.281649
v 0.214555 -0.045288 0.296800
v 0.207144 -0.045501 0.300927
v 0.199160 -0.045570 0.302446
v 0.188846 -0.045275 0.300886
v 0.179455 -0.044445 0.296076
v 0.170941 -0.043137 0.288356
v 0.156364 -0.039306 0.265556
v 0.144751 -0.034225 0.235217
v 0.135740 -0.028339 0.200072
v 0.128965 -0.022095 0.162850
v 0.122202 -0.013025 0.109099
v 0.116415 -0.001461 0.042898
v 0.114372 0.000948 0.032984
v 0.108127 0.006605 0.018457
v 0.099365 0.013079 0.010061
v 0.088521 0.020009 0.006669
v 0.069297 0.030468 0.008491
v 0.047824 0.039915 0.015228
v 0.018226 0.048829 0.025272
v 0.193639 -0.059185 -0.346194
v 0.193432 -0.045993 -0.356438
v 0.193265 -0.029252 -0.362066
v 0.193189 -0.016080 -0.362129
v 0.193148 -0.001271 -0.358451
v 0.193150 0.015197 -0.350358
v 0.193203 0.033347 -0.337175
v 0.193444 0.068309 -0.299924
v 0.193641 0.083962 -0.274999
v 0.193862 0.096332 -0.248776
v 0.194135 0.107298 -0.217072
v 0.194493 0.114977 -0.181689
v 0.195501 0.119196 -0.080076
v 0.196871 0.120746 0.049524
v 0.197572 0.118379 0.099220
v 0.198208 0.113913 0.148114
v 0.199130 0.101371 0.223849
v 0.199601 0.090521 0.263453
v 0.199883 0.081805 0.286519
v 0.200140 0.071845 0.306410
v 0.200585 0.043039 0.341812
v 0.200620 0.028289 0.353172
v 0.200532 0.012430 0.358931
v 0.200398 0.001353 0.358305
v 0.200198 -0.010053 0.353156
v 0.199928 -0.021719 0.342672
v 0.199583 -0.033580 0.326039
v 0.198873 -0.050288 0.286058
v 0.198481 -0.052851 0.264456
v 0.197464 -0.052773 0.210099
v 0.195965 -0.046141 0.132827
v 0.194005 -0.033438 0.038685
v 0.108733 0.009969 0.045915
v 0.102774 0.023751 0.048310
v 0.098310 0.049651 0.050963
v 0.099891 0.065572 0.051774
v 0.103091 0.075822 0.051999
v 0.108218 0.085491 0.051976
v 0.129228 0.104470 0.051171
v 0.150680 0.113426 0.050523
v 0.173340 0.118678 0.049969
v 0.216807 0.117949 0.048886
v 0.236314 0.109796 0.047787
v 0.254763 0.096651 0.046562
v 0.280354 0.064049 0.044829
v 0.285923 0.048933 0.044028
v 0.289269 0.031386 0.043125
v 0.289676 0.018780 0.042520
v 0.288211 0.005755 0.041953
v 0.284521 -0.007424 0.041454
v 0.278253 -0.020492 0.041057
v 0.258454 -0.041958 0.040539
v 0.247354 -0.045431 0.040208
v 0.232816 -0.044499 0.039861
v 0.211319 -0.038370 0.039902
v 0.161816 -0.024971 0.039001
v 0.139876 -0.017149 0.039349
v 0.124815 -0.008955 0.040756
v 0.210561 -0.040810 0.020419
v 0.207990 -0.053677 -0.009429
v 0.204303 -0.073771 -0.039496
v 0.195212 -0.124623 -0.107164
v 0.192752 -0.137773 -0.133666
v 0.191679 -0.137682 -0.184561
v 0.191356 -0.132314 -0.216593
v 0.191201 -0.123916 -0.250134
v 0.191270 -0.116531 -0.271658
v 0.191531 -0.107647 -0.291340
v 0.192030 -0.097202 -0.308178
v 0.192815 -0.085137 -0.321163
v 0.254745 0.112851 -0.117595
v 0.248812 0.114352 -0.103896
v 0.243292 0.115473 -0.096569
v 0.236475 0.116586 -0.090639
v 0.223739 0.118050 -0.084274
v 0.213519 0.118757 -0.081659
v 0.185680 0.119135 -0.080766
v 0.172387 0.118880 -0.084692
v 0.164577 0.118628 -0.089127
v 0.154600 0.118174 -0.098316
v 0.146896 0.117686 -0.110322
v 0.143129 0.117373 -0.119764
v 0.142475 0.115595 -0.169567
v 0.146568 0.114498 -0.179457
v 0.154886 0.112519 -0.192675
v 0.172347 0.109216 -0.209180
v 0.183525 0.107819 -0.214969
v 0.204469 0.107446 -0.216053
v 0.219054 0.108002 -0.210760
v 0.227950 0.108527 -0.205129
v 0.239678 0.109431 -0.194230
v 0.253668 0.110859 -0.171850
v 0.257906 0.111416 -0.157430
v -0.138755 0.117245 -0.145595
v -0.194595 0.118318 -0.144760
v -0.230589 0.117302 -0.144344
v -0.258480 0.112438 -0.143778
v -0.276868 0.105143 -0.143412
v -0.292230 0.095520 -0.143222
v -0.305046 0.082857 -0.143057
v -0.311837 0.070649 -0.142890
v -0.314849 0.049675 -0.142885
v -0.311775 0.022170 -0.143249
v -0.303146 -0.009909 -0.143790
v -0.289492 -0.044603 -0.144310
v -0.268689 -0.084641 -0.145007
v -0.246232 -0.114483 -0.145822
v -0.231593 -0.127104 -0.146276
v -0.221229 -0.133189 -0.146536
v -0.204635 -0.138680 -0.146825
v -0.192788 -0.139824 -0.146930
v -0.170308 -0.137078 -0.147001
v -0.154201 -0.129198 -0.146958
v -0.142380 -0.117466 -0.146838
v -0.111723 -0.071968 -0.146361
v -0.096143 -0.057639 -0.146283
v -0.086172 -0.051351 -0.146279
v -0.060564 -0.041331 -0.146362
v -0.044404 -0.037920 -0.146459
v -0.022699 0.043754 -0.280090
v -0.050187 0.045061 -0.284626
v -0.156797 0.052574 -0.311393
v -0.196086 0.053863 -0.315057
v -0.226191 0.054562 -0.313099
v -0.250772 0.055954 -0.307576
v -0.270357 0.057861 -0.298551
v -0.278440 0.058951 -0.292746
v -0.291517 0.061296 -0.278594
v -0.300917 0.063709 -0.261106
v -0.309273 0.067070 -0.228763
v -0.312320 0.069583 -0.189284
v -0.309975 0.071029 -0.120614
v -0.303925 0.072536 -0.092172
v -0.282890 0.077756 -0.035103
v -0.274755 0.079486 -0.008173
v -0.269455 0.080170 0.024115
v -0.268286 0.079791 0.049941
v -0.266740 0.077102 0.106609
v -0.262738 0.073712 0.160005
v -0.255237 0.069829 0.215236
v -0.247820 0.067272 0.249742
v -0.238140 0.064954 0.280061
v -0.225914 0.063056 0.304193
v -0.210858 0.061765 0.320138
v -0.202180 0.061402 0.324413
v -0.192689 0.061259 0.325892
v -0.182199 0.061398 0.324230
v -0.172825 0.061856 0.319457
v -0.164494 0.062607 0.311880
v -0.150672 0.064881 0.289555
v -0.140150 0.068011 0.259727
v -0.132349 0.071786 0.224864
v -0.126685 0.075997 0.187440
v -0.116710 0.089146 0.084496
v -0.112071 0.094712 0.053561
v -0.105608 0.100041 0.035537
v -0.097622 0.105875 0.021868
v -0.088315 0.111962 0.011973
v -0.077887 0.118050 0.005269
v -0.066537 0.123887 0.001176
v -0.048228 0.131620 -0.001345
v -0.022466 0.138696 -0.001002
v -0.017383 -0.066072 -0.251670
v -0.031533 -0.066472 -0.257463
v -0.103232 -0.069352 -0.299252
v -0.136016 -0.070298 -0.314277
v -0.171820 -0.070784 -0.324057
v -0.197305 -0.070729 -0.326111
v -0.226262 -0.069762 -0.322807
v -0.248700 -0.067650 -0.313794
v -0.265419 -0.064686 -0.299973
v -0.277219 -0.061161 -0.282247
v -0.284899 -0.057367 -0.261515
v -0.290444 -0.051813 -0.226754
v -0.291218 -0.047299 -0.190297
v -0.286015 -0.042958 -0.102850
v -0.269539 -0.032951 -0.016224
v -0.266861 -0.031913 0.017098
v -0.266263 -0.032279 0.045149
v -0.263831 -0.034342 0.099309
v -0.258542 -0.036686 0.149811
v -0.249886 -0.039287 0.201820
v -0.242071 -0.040976 0.234236
v -0.232496 -0.042495 0.262683
v -0.221057 -0.043733 0.285300
v -0.207648 -0.044575 0.300235
v -0.200173 -0.044812 0.304241
v -0.192165 -0.044909 0.305630
v -0.181878 -0.044648 0.303902
v -0.172562 -0.043850 0.298940
v -0.164171 -0.042571 0.291083
v -0.149955 -0.038787 0.268049
v -0.138820 -0.033746 0.237525
v -0.130362 -0.027890 0.202237
v -0.124172 -0.021667 0.164909
v -0.118255 -0.012619 0.111055
v -0.113506 -0.001073 0.044768
v -0.111677 0.001330 0.034822
v -0.106102 0.006967 0.020201
v -0.098263 0.013413 0.011669
v -0.088511 0.020309 0.008108
v -0.071067 0.030705 0.009633
v -0.044398 0.042772 0.018597
v -0.023376 0.048899 0.025610
v -0.197245 -0.058525 -0.343013
v -0.197160 -0.045333 -0.353259
v -0.197029 -0.028592 -0.358891
v -0.196908 -0.015421 -0.358955
v -0.196757 -0.000612 -0.355279
v -0.196572 0.015855 -0.347188
v -0.196349 0.034005 -0.334005
v -0.195866 0.068968 -0.296757
v -0.195605 0.084620 -0.271832
v -0.195357 0.096990 -0.245609
v -0.195078 0.107956 -0.213906
v -0.194833 0.115634 -0.178522
v -0.194175 0.119854 -0.076906
v -0.193430 0.121406 0.052699
v -0.193329 0.119040 0.102400
v -0.193185 0.114575 0.151299
v -0.192917 0.102033 0.227039
v -0.192781 0.091184 0.266645
v -0.192718 0.082468 0.289713
v -0.192685 0.072509 0.309607
v -0.192650 0.043704 0.345011
v -0.192550 0.028954 0.356371
v -0.192423 0.013094 0.362129
v -0.192336 0.002016 0.361500
v -0.192258 -0.009389 0.356349
v -0.192199 -0.021056 0.345862
v -0.192165 -0.032918 0.329226
v -0.192160 -0.049627 0.289239
v -0.192129 -0.052191 0.267634
v -0.191997 -0.052114 0.213268
v -0.191732 -0.045486 0.135981
v -0.191262 -0.032787 0.041819
v -0.105737 0.010331 0.047660
v -0.099694 0.024093 0.049958
v -0.095099 0.049978 0.052537
v -0.096613 0.065903 0.053373
v -0.099774 0.076165 0.053650
v -0.104868 0.085851 0.053710
v -0.125825 0.104901 0.053246
v -0.147254 0.113929 0.052947
v -0.169902 0.119259 0.052761
v -0.213383 0.118676 0.052386
v -0.232932 0.110589 0.051604
v -0.251444 0.097506 0.050680
v -0.277169 0.064990 0.049365
v -0.282802 0.049893 0.048654
v -0.286222 0.032358 0.047808
v -0.286681 0.019753 0.047210
v -0.285269 0.006724 0.046619
v -0.281632 -0.006467 0.046061
v -0.275415 -0.019555 0.045562
v -0.255700 -0.041090 0.044722
v -0.244619 -0.044600 0.044210
v -0.230085 -0.043717 0.043626
v -0.208570 -0.037659 0.043317
v -0.159044 -0.024430 0.041612
v -0.137074 -0.016681 0.041602
v -0.121965 -0.008538 0.042763
v -0.208138 -0.040102 0.023825
v -0.206096 -0.052977 -0.006060
v -0.202967 -0.073083 -0.036182
v -0.195150 -0.123963 -0.103988
v -0.193167 -0.137121 -0.130527
v -0.192920 -0.137031 -0.181432
v -0.193100 -0.131665 -0.213465
v -0.193463 -0.123265 -0.247004
v -0.193857 -0.115880 -0.268524
v -0.194408 -0.106994 -0.288201
v -0.195146 -0.096548 -0.305028
v -0.196102 -0.084479 -0.317999
v -0.254042 0.113710 -0.113456
v -0.247882 0.115191 -0.099855
v -0.242239 0.116293 -0.092619
v -0.235324 0.117384 -0.086800
v -0.222481 0.118804 -0.080643
v -0.212218 0.119477 -0.078195
v -0.184365 0.119761 -0.077755
v -0.171139 0.119460 -0.081898
v -0.163403 0.119182 -0.086459
v -0.153578 0.118694 -0.095810
v -0.146073 0.118181 -0.107938
v -0.142461 0.117857 -0.117441
v -0.142624 0.116076 -0.167248
v -0.146881 0.114994 -0.177070
v -0.155419 0.113043 -0.190150
v -0.173157 0.109800 -0.206369
v -0.184432 0.108441 -0.211975
v -0.205393 0.108139 -0.212718
v -0.219889 0.108743 -0.207189
v -0.228689 0.109298 -0.201415
v -0.240236 0.110241 -0.190326
v -0.253855 0.111717 -0.167720
v -0.257854 0.112287 -0.153234
v 0.202662 -0.035904 0.039293
v 0.195157 0.118428 -0.114002
v 0.067448 0.116276 -0.147319
v -0.194385 0.119086 -0.110833
v -0.166675 0.117781 -0.145177
v -0.193803 0.120630 -0.012103
v -0.199916 -0.035223 0.042568
v 0.196186 0.119971 -0.015276
v -0.071411 0.116511 -0.146189
v 0.166888 0.117217 -0.147891
l 1 2 3 4 5
l 5 6 7 8 9 10 11 12 13
l 13 14 15 16
l 16 17 18 19 20
l 20 21 22 23 24 25 26 27
l 27 28 29 1
l 1 440 30
l 30 447 31
l 31 32 33
l 33 34 35 36 37
l 37 38 39 40 41
l 41 42 43 44 45 46 47
l 47 48 49 50 51 52 53 54 55 16
l 5 56 57 58 59
l 59 60 61 62 63 64 65 66 67 37
l 37 68 69 70 71 72 73
l 73 74 75 76 77 78 79 80 81 82
l 82 83 84 85 86 87 88 89 90 91
l 91 92 93 94 95 96 97 98 27
l 13 99 100 101 102 103 104
l 104 105 106 107 108 109 110 111 41
l 41 112 113 114 115
l 115 116 117 118 119 120 121 122 123 124
l 124 125 126 127 128 129 130 131 132 133
l 133 134 135 136 137 138 139 140 20
l 104 141 142 143 144 145 146 147 59
l 59 148 149 150 151
l 151 152 31
l 31 439 153
l 153 445 154
l 154 155 156 157 158 159 160 82
l 82 161 162 163 164 165 166 167 124
l 124 168 169 170 171 172
l 133 173 174 175 176 177 178 91
l 91 179 180 181 154
l 154 182 183 184 73
l 73 185 186 187 188 189 190 191 115
l 115 192 193 194 195
l 195 438 172
l 172 196 197 198 133
l 195 199 200 201 202 203 47
l 47 204 205 206 207 208 209 210 104
l 33 211 212 213 214 215 216 153
l 153 217 218 219 220 221 222 30
l 30 223 224 225 226 227 151
l 151 228 229 230 231 232 233 33
l 1 446 234
l 234 442 235
l 235 236 237
l 237 238 239 240 241
l 241 242 243 244 245
l 245 246 247 248 249 250 251
l 251 252 253 254 255 256 257 258 259 16
l 5 260 261 262 263
l 263 264 265 266 267 268 269 270 271 241
l 241 272 273 274 275 276 277
l 277 278 279 280 281 282 283 284 285 286
l 286 287 288 289 290 291 292 293 294 295
l 295 296 297 298 299 300 301 302 27
l 13 303 304 305 306 307 308
l 308 309 310 311 312 313 314 315 245
l 245 316 317 318 319
l 319 320 321 322 323 324 325 326 327 328
l 328 329 330 331 332 333 334 335 336 337
l 337 338 339 340 341 342 343 344 20
l 308 345 346 347 348 349 350 351 263
l 263 352 353 354 355
l 355 356 235
l 235 441 357
l 357 443 358
l 358 359 360 361 362 363 364 286
l 286 365 366 367 368 369 370 371 328
l 328 372 373 374 375 376
l 337 377 378 379 380 381 382 295
l 295 383 384 385 358
l 358 386 387 388 277
l 277 389 390 391 392 393 394 395 319
l 319 396 397 398 399
l 399 444 376
l 376 400 401 402 337
l 399 403 404 405 406 407 251
l 251 408 409 410 411 412 413 414 308
l 237 415 416 417 418 419 420 357
l 357 421 422 423 424 425 426 234
l 234 427 428 429 430 431 355
l 355 432 433 434 435 436 437 237
