v -0.464925 0.051348 0.001446
v -0.463288 0.051284 0.031442
v -0.454949 0.051178 0.071948
v -0.445690 0.051103 0.095685
v -0.440008 0.051066 0.106503
v -0.426638 0.050993 0.125923
v -0.410718 0.050924 0.142231
v -0.401851 0.050891 0.149160
v -0.382396 0.050833 0.160450
v -0.360778 0.050785 0.168160
v -0.349205 0.050766 0.170614
v -0.324629 0.050738 0.172604
v -0.299646 0.050700 0.171176
v -0.265174 0.050590 0.164640
v -0.233993 0.050438 0.154667
v -0.164309 0.050031 0.126954
v -0.149392 0.049971 0.123083
v -0.135271 0.049942 0.121656
v -0.062486 0.049806 0.124193
v -0.041917 0.049730 0.123553
v -0.023074 0.049641 0.120536
v -0.005882 0.049544 0.114164
v 0.009731 0.049436 0.103455
v 0.023838 0.049324 0.087430
v 0.036515 0.049207 0.065109
v 0.047831 0.049086 0.035512
v 0.220731 0.048522 0.035066
v 0.354950 0.048087 0.034912
v 0.365958 0.047937 0.041088
v 0.378276 0.047850 0.045475
v 0.392674 0.047794 0.048091
v 0.409926 0.047739 0.048952
v 0.459115 0.047508 0.045931
v 0.461681 0.047523 0.001024
v 0.464967 0.047682 -0.046824
v 0.409975 0.047960 -0.047854
v 0.388748 0.048064 -0.046589
v 0.373604 0.048158 -0.042798
v 0.362843 0.048249 -0.036474
v 0.354768 0.048339 -0.027607
v 0.220906 0.048978 -0.027674
v 0.043431 0.049664 -0.028753
v 0.039859 0.049791 -0.052740
v 0.030085 0.050024 -0.089725
v 0.023991 0.050131 -0.103265
v 0.017168 0.050230 -0.113870
v 0.009669 0.050322 -0.121812
v 0.001552 0.050407 -0.127363
v -0.007130 0.050486 -0.130798
v -0.016322 0.050558 -0.132389
v -0.036014 0.050683 -0.131131
v -0.057079 0.050784 -0.125773
v -0.101572 0.050912 -0.111497
v -0.124115 0.050943 -0.106948
v -0.135268 0.050949 -0.106276
v -0.149652 0.050963 -0.108231
v -0.164401 0.050992 -0.113538
v -0.231914 0.051177 -0.151528
v -0.262926 0.051245 -0.165195
v -0.298328 0.051295 -0.174145
v -0.324773 0.051312 -0.176093
v -0.352416 0.051325 -0.173869
v -0.365022 0.051334 -0.171151
v -0.387851 0.051357 -0.162685
v -0.407564 0.051382 -0.150426
v -0.416275 0.051393 -0.142966
v -0.431454 0.051413 -0.125567
v -0.443705 0.051428 -0.105108
v -0.456755 0.051428 -0.069326
v -0.462013 0.051409 -0.042504
v -0.324773 0.051312 0.001410
v -0.324734 -0.000177 -0.176508
v -0.324606 -0.051177 -0.174566
v -0.324425 -0.051189 0.001319
v -0.324496 -0.050887 0.176508
v -0.324542 -0.002277 0.173089
v -0.187540 0.050542 0.001366
v -0.464973 -0.001201 0.001370
v -0.464962 -0.050991 0.001300
v -0.135217 -0.051356 0.001332
v 0.046777 -0.051402 0.001355
v 0.047784 -0.041826 0.001366
v 0.050692 -0.033397 0.001377
v 0.055318 -0.026046 0.001386
v 0.068997 -0.014290 0.001403
v 0.087368 -0.005991 0.001415
v 0.108978 -0.000579 0.001425
v 0.144289 0.003367 0.001435
v 0.220814 0.002961 0.001433
v 0.354957 0.003015 0.001224
v 0.409880 0.001922 0.001100
v 0.441530 0.000518 0.001015
v 0.463025 0.001603 0.000968
v 0.463906 0.023451 0.000984
v 0.409904 0.047860 0.001051
v 0.354836 0.048388 0.001081
v 0.220783 0.049145 0.001163
v -0.083570 0.050382 0.001206
v -0.135262 0.050539 -0.047585
v -0.135288 0.000175 -0.108045
v -0.135263 -0.051284 -0.108661
v -0.135233 -0.050631 0.122906
v -0.135240 -0.002698 0.122033
v -0.135337 0.050391 0.053173
v -0.463402 -0.001275 0.030301
v -0.455333 -0.001440 0.070081
v -0.440738 -0.001644 0.104701
v -0.427567 -0.001787 0.124458
v -0.411770 -0.001926 0.141236
v -0.402923 -0.001992 0.148422
v -0.383396 -0.002110 0.160219
v -0.361520 -0.002202 0.168354
v -0.349735 -0.002237 0.170962
v -0.297580 -0.002303 0.171659
v -0.261964 -0.002366 0.165111
v -0.231195 -0.002447 0.155117
v -0.164721 -0.002652 0.127345
v -0.149930 -0.002683 0.123464
v -0.110852 -0.002689 0.123674
v -0.047500 -0.002371 0.134806
v -0.029167 -0.002159 0.134955
v -0.011983 -0.001888 0.130508
v 0.004195 -0.001557 0.119776
v 0.019516 -0.001162 0.101069
v 0.034124 -0.000699 0.072698
v 0.048164 -0.000167 0.032974
v 0.220725 0.001304 0.029916
v 0.354948 0.001578 0.029324
v 0.364809 0.001602 0.038656
v 0.376695 0.001615 0.044556
v 0.391429 0.001603 0.047639
v 0.409841 0.001555 0.048517
v 0.460613 0.001494 0.048895
v 0.464802 0.001769 -0.044599
v 0.409872 0.002069 -0.047987
v 0.393377 0.002103 -0.047144
v 0.377349 0.002103 -0.044096
v 0.365403 0.002077 -0.039442
v 0.354921 0.002047 -0.032659
v 0.220900 0.002443 -0.034173
v 0.042976 0.001952 -0.034600
v 0.043445 0.001888 -0.044411
v 0.040619 0.001764 -0.061461
v 0.031130 0.001530 -0.089283
v 0.023704 0.001393 -0.102995
v 0.014354 0.001249 -0.115163
v 0.002976 0.001102 -0.124729
v -0.003504 0.001029 -0.128205
v -0.018113 0.000885 -0.131884
v -0.038804 0.000713 -0.130200
v -0.055906 0.000568 -0.126447
v -0.107005 0.000222 -0.111208
v -0.145663 0.000167 -0.109963
v -0.158024 0.000139 -0.115167
v -0.216490 -0.000035 -0.147404
v -0.248554 -0.000109 -0.161731
v -0.284669 -0.000162 -0.172358
v -0.310947 -0.000177 -0.176015
v -0.353115 -0.000194 -0.174266
v -0.377963 -0.000255 -0.167759
v -0.399406 -0.000350 -0.157289
v -0.408892 -0.000408 -0.150664
v -0.425470 -0.000538 -0.134823
v -0.438963 -0.000677 -0.115780
v -0.444594 -0.000749 -0.105154
v -0.453704 -0.000889 -0.081879
v -0.462230 -0.001073 -0.042488
v 0.048042 0.024979 0.034575
v 0.220627 0.024609 0.033785
v 0.354966 0.024238 0.033518
v 0.366800 0.023999 0.040402
v 0.379025 0.023761 0.045084
v 0.392938 0.023562 0.047751
v 0.409835 0.023441 0.048590
v 0.459424 0.023289 0.047160
v 0.462871 0.023380 0.024946
v 0.464973 0.023663 -0.045908
v 0.409953 0.023891 -0.047553
v 0.395778 0.023943 -0.046745
v 0.380469 0.023996 -0.043676
v 0.367558 0.024032 -0.038653
v 0.354805 0.024040 -0.030554
v 0.220999 0.024899 -0.031215
v 0.043098 0.024859 -0.032198
v -0.461878 -0.050948 -0.039390
v -0.452577 -0.050954 -0.077384
v -0.436976 -0.050994 -0.111170
v -0.423037 -0.051030 -0.130609
v -0.406241 -0.051071 -0.147053
v -0.396764 -0.051092 -0.154014
v -0.375636 -0.051129 -0.165129
v -0.351591 -0.051158 -0.172129
v -0.301068 -0.051186 -0.172725
v -0.269066 -0.051202 -0.164275
v -0.240145 -0.051221 -0.151374
v -0.179023 -0.051264 -0.118959
v -0.153148 -0.051279 -0.110506
v -0.113531 -0.051287 -0.110664
v -0.053617 -0.051284 -0.122629
v -0.029913 -0.051283 -0.124770
v -0.007787 -0.051285 -0.122299
v 0.002388 -0.051289 -0.118686
v 0.011812 -0.051294 -0.113146
v 0.020367 -0.051301 -0.105418
v 0.027933 -0.051311 -0.095244
v 0.034391 -0.051323 -0.082367
v 0.039624 -0.051338 -0.066526
v 0.043511 -0.051356 -0.047464
v 0.045936 -0.051377 -0.024924
v 0.045964 -0.051423 0.029174
v 0.043579 -0.051428 0.053111
v 0.039741 -0.051419 0.073433
v 0.034565 -0.051398 0.090405
v 0.028167 -0.051367 0.104292
v 0.020664 -0.051326 0.115360
v 0.012173 -0.051277 0.123874
v 0.002809 -0.051223 0.130099
v -0.007310 -0.051162 0.134301
v -0.029351 -0.051035 0.137698
v -0.053020 -0.050908 0.136187
v -0.113200 -0.050665 0.124873
v -0.151106 -0.050634 0.124408
v -0.166206 -0.050653 0.128483
v -0.229772 -0.050813 0.157642
v -0.259773 -0.050866 0.168134
v -0.295990 -0.050892 0.175007
v -0.349969 -0.050883 0.174126
v -0.361848 -0.050888 0.171229
v -0.383839 -0.050907 0.162280
v -0.403396 -0.050935 0.149477
v -0.412233 -0.050951 0.141762
v -0.427970 -0.050983 0.123965
v -0.441047 -0.051012 0.103363
v -0.455480 -0.051038 0.068119
v -0.463423 -0.051028 0.028925
v -0.147181 0.050549 -0.046841
v -0.158417 0.050561 -0.044357
v -0.168481 0.050572 -0.039755
v -0.174303 0.050577 -0.035323
v -0.181341 0.050578 -0.026348
v -0.184694 0.050573 -0.018650
v -0.186701 0.050527 0.008531
v -0.182637 0.050500 0.019381
v -0.170128 0.050454 0.036086
v -0.153274 0.050413 0.048384
v -0.142433 0.050397 0.052357
v -0.112935 0.050378 0.050874
v -0.102931 0.050375 0.046852
v -0.097080 0.050373 0.042590
v -0.089939 0.050373 0.033255
v -0.086508 0.050375 0.024744
v -0.084480 0.050389 -0.008918
v -0.087028 0.050402 -0.017708
v -0.090956 0.050419 -0.025226
v -0.098868 0.050451 -0.034261
v -0.115272 0.050504 -0.043859
v -0.324516 -0.051183 -0.086623
v 0.354958 0.036162 0.034215
v -0.135276 -0.025555 -0.108353
v 0.459270 0.035398 0.046546
v 0.132169 0.049321 -0.028213
v 0.068606 0.049763 0.001185
v 0.462794 0.035487 0.001004
v -0.324460 -0.051038 0.088914
v 0.220757 0.048834 0.018115
v 0.437337 0.001919 -0.046293
v -0.324519 -0.026582 0.174799
v 0.354787 0.036190 -0.029081
v 0.354952 0.002297 0.015274
v -0.135225 -0.050993 0.062119
v -0.135278 0.025562 -0.107161
v 0.220953 0.036939 -0.029444
v -0.324670 -0.025677 -0.175537
v 0.409940 0.047910 -0.023402
v -0.394694 -0.051090 0.001310
v 0.434630 0.023365 0.047875
v -0.464968 -0.026096 0.001335
v -0.324753 0.025568 -0.176301
v -0.324586 0.024231 0.172847
v 0.354893 0.048237 0.017997
v -0.135304 0.050166 0.087415
v 0.463914 0.001686 -0.021816
v 0.287910 0.002245 -0.033416
v -0.044220 -0.051379 0.001344
v 0.464970 0.035672 -0.046366
v 0.287902 0.024470 -0.030885
v 0.409915 0.047799 0.025001
v 0.134334 0.024794 0.034180
v 0.382418 0.002469 0.001162
v 0.134281 0.048804 0.035289
v 0.435793 0.047691 0.001038
v 0.287840 0.048305 0.034989
v 0.132049 0.024879 -0.031707
v 0.434521 0.047623 0.047442
v 0.354939 0.002531 -0.015717
v 0.043265 0.037262 -0.030476
v -0.324773 0.051312 -0.087341
v 0.220769 0.002132 0.015675
v -0.464949 0.025073 0.001408
v 0.287886 0.002988 0.001329
v -0.135255 0.023622 0.121845
v 0.464888 0.012716 -0.045254
v 0.354957 0.012908 0.031421
v 0.464439 0.023557 -0.022462
v 0.461819 0.001549 0.024931
v 0.287836 0.001441 0.029620
v 0.220679 0.036566 0.034425
v 0.437463 0.023777 -0.046730
v -0.324701 0.051025 0.087007
v -0.394849 0.051330 0.001428
v 0.409876 0.001995 -0.023444
v 0.220949 0.013671 -0.032694
v 0.382370 0.048124 0.001066
v 0.409912 0.012980 -0.047770
v -0.135240 -0.051320 -0.053664
v 0.220845 0.049062 -0.013255
v 0.287810 0.048766 0.001122
v 0.043037 0.013406 -0.033399
v -0.256156 0.050927 0.001388
v -0.135265 0.050744 -0.076930
v 0.220857 0.002702 -0.016370
v 0.048103 0.012406 0.033775
v 0.460398 0.047515 0.023478
v 0.220676 0.012957 0.031851
v 0.409838 0.012498 0.048554
v -0.135236 -0.026665 0.122470
v 0.463466 0.012527 0.000976
v 0.131938 0.002198 -0.034386
v 0.463324 0.047602 -0.022900
v -0.229821 -0.051272 0.001326
v 0.354863 0.013044 -0.031607
v 0.134445 0.000569 0.031445
v 0.460019 0.012392 0.048028
v 0.047937 0.037033 0.035044
v 0.354802 0.048363 -0.013263
v 0.287837 0.048659 -0.027640
v 0.409964 0.035926 -0.047703
v 0.437471 0.047821 -0.047339
v 0.409860 0.001739 0.024809
v 0.435227 0.001525 0.048706
v 0.409880 0.035590 0.048771
v 0.287796 0.024424 0.033652
l 1 2 3 4 5 6 7 8 9 10 11 12
l 12 13 14 15 16 17 18
l 18 19 20 21 22 23 24 25 26
l 26 290 27
l 27 292 28
l 28 29 30 31 32
l 32 294 33
l 33 323 34
l 34 329 35
l 35 338 36
l 36 37 38 39 40
l 40 336 41
l 41 261 42
l 42 43 44 45 46 47 48 49 50 51 52 53 54 55
l 55 56 57 58 59 60 61
l 61 62 63 64 65 66 67 68 69 70 1
l 71 297 61
l 61 278 72
l 72 273 73
l 73 257 74
l 74 264 75
l 75 267 76
l 76 279 12
l 12 309 71
l 77 319 71
l 71 310 1
l 1 299 78
l 78 277 79
l 79 275 74
l 74 330 80
l 80 284 81
l 81 82 83 84 85 86 87 88 89
l 89 300 90
l 90 289 91
l 91 92 93
l 93 327 94
l 94 263 34
l 34 291 95
l 95 313 96
l 96 317 97
l 97 262 98
l 99 320 55
l 55 271 100
l 100 259 101
l 101 315 80
l 80 270 102
l 102 326 103
l 103 301 18
l 18 281 104
l 78 105 106 107 108 109 110 111 112 113 76
l 76 114 115 116 117 118 103
l 103 119 120 121 122 123 124 125 126
l 126 332 127
l 127 306 128
l 128 129 130 131 132
l 132 340 133
l 133 305 93
l 93 282 134
l 134 266 135
l 135 136 137 138 139
l 139 283 140
l 140 328 141
l 141 142 143 144 145 146 147 148 149 150 151 152 100
l 100 153 154 155 156 157 158 72
l 72 159 160 161 162 163 164 165 166 167 78
l 168 288 169
l 169 342 170
l 170 171 172 173 174
l 174 276 175
l 175 176 94
l 94 304 177
l 177 308 178
l 178 179 180 181 182
l 182 286 183
l 183 293 184
l 79 185 186 187 188 189 190 191 192 73
l 73 193 194 195 196 197 101
l 101 198 199 200 201 202 203 204 205 206 207 208 209 81
l 81 210 211 212 213 214 215 216 217 218 219 220 221 102
l 102 222 223 224 225 226 75
l 75 227 228 229 230 231 232 233 234 235 79
l 97 316 41
l 41 272 183
l 183 312 140
l 140 321 89
l 89 298 127
l 127 324 169
l 169 307 27
l 27 265 97
l 96 335 40
l 40 268 182
l 182 331 139
l 139 295 90
l 90 269 128
l 128 303 170
l 170 258 28
l 28 280 96
l 95 287 32
l 32 341 174
l 174 325 132
l 132 339 91
l 91 311 135
l 135 314 178
l 178 337 36
l 36 274 95
l 35 285 177
l 177 302 134
l 133 333 175
l 175 260 33
l 42 296 184
l 184 318 141
l 26 334 168
l 168 322 126
l 99 236 237 238 239 240 241 77
l 77 242 243 244 245 246 104
l 104 247 248 249 250 251 98
l 98 252 253 254 255 256 99
