v 0.395326 -0.194495 0.003678
v 0.391889 -0.194247 0.040053
v 0.388119 -0.193794 0.057775
v 0.376704 -0.192265 0.091919
v 0.369149 -0.191203 0.108193
v 0.350572 -0.188517 0.138779
v 0.327672 -0.185127 0.166258
v 0.300814 -0.181087 0.190039
v 0.286014 -0.178840 0.200359
v 0.253897 -0.173927 0.217490
v 0.236672 -0.171275 0.224153
v 0.218729 -0.168500 0.229451
v 0.200113 -0.165611 0.233308
v 0.180870 -0.162612 0.235652
v 0.161046 -0.159513 0.236408
v 0.124154 -0.153718 0.235324
v 0.067240 -0.144718 0.230319
v 0.029065 -0.138648 0.224982
v -0.027147 -0.129670 0.214408
v -0.063103 -0.123903 0.205900
v -0.113358 -0.115811 0.191383
v -0.157515 -0.108668 0.175277
v -0.182632 -0.104585 0.163947
v -0.220973 -0.098310 0.142041
v -0.261393 -0.091664 0.116152
v -0.305027 -0.084460 0.085647
v -0.332889 -0.079838 0.064298
v -0.357658 -0.075706 0.043224
v -0.377527 -0.072357 0.023357
v -0.390685 -0.070086 0.005627
v -0.394184 -0.069447 -0.002145
v -0.395326 -0.069188 -0.009034
v -0.124921 0.023274 -0.003408
v -0.019615 0.039018 -0.001605
v 0.176310 0.063152 0.001730
v 0.314576 0.076351 0.004038
v 0.328136 0.078476 0.004258
v 0.333652 0.081071 0.004350
v 0.334391 0.086821 0.004376
v 0.333369 0.102181 0.004413
v 0.325669 0.145149 0.004458
v 0.316097 0.177885 0.004437
v 0.312081 0.186523 0.004408
v 0.308202 0.191161 0.004364
v 0.304446 0.192793 0.004309
v 0.293464 0.194495 0.004133
v 0.261336 0.192930 0.003582
v 0.222759 0.187184 0.002900
v 0.156504 0.174160 0.001715
v 0.006772 0.146069 -0.000923
v -0.140041 0.115085 -0.003505
v -0.166240 0.107887 -0.003976
v -0.190262 0.098912 -0.004425
v -0.212394 0.088349 -0.004855
v -0.232918 0.076386 -0.005271
v -0.252122 0.063211 -0.005675
v -0.279075 0.041585 -0.006270
v -0.338309 -0.014278 -0.007666
v -0.179351 -0.103913 -0.005520
v 0.161046 -0.159513 -0.000109
v 0.391411 -0.172871 0.003773
v 0.386106 -0.127599 0.003984
v 0.381907 -0.090091 0.004144
v 0.376176 -0.063314 0.004215
v 0.368641 -0.046581 0.004192
v 0.360760 -0.039456 0.004100
v 0.347704 -0.036914 0.003900
v 0.312643 -0.033715 0.003350
v 0.185342 -0.027021 0.001316
v -0.135038 -0.012829 -0.003698
v -0.205690 -0.008174 -0.004866
v -0.223355 -0.005377 -0.005153
v -0.228276 -0.003859 -0.005229
v -0.230782 -0.002262 -0.005266
v -0.231017 -0.000584 -0.005264
v -0.225250 0.003012 -0.005155
v -0.203168 0.009020 -0.004765
v 0.174319 0.066998 0.063775
v 0.173835 0.066582 0.087250
v 0.166632 0.106876 0.093063
v 0.161662 0.134793 0.094113
v 0.159341 0.148092 0.092177
v 0.158131 0.155228 0.089547
v 0.157227 0.160816 0.085694
v 0.156658 0.164715 0.080488
v 0.156323 0.168169 0.067314
v 0.156177 0.171213 0.047425
v 0.382981 -0.127414 0.037274
v 0.379627 -0.127032 0.053378
v 0.369496 -0.125715 0.084237
v 0.362780 -0.124789 0.098883
v 0.346202 -0.122428 0.126332
v 0.325639 -0.119419 0.150964
v 0.301339 -0.115802 0.172342
v 0.287867 -0.113778 0.181677
v 0.258431 -0.109322 0.197359
v 0.225883 -0.104356 0.208702
v 0.208519 -0.101693 0.212608
v 0.171769 -0.096035 0.216622
v 0.136752 -0.090638 0.216463
v 0.101386 -0.085200 0.213693
v 0.066005 -0.079767 0.208624
v 0.013644 -0.071729 0.197398
v -0.020300 -0.066509 0.187957
v -0.068931 -0.059007 0.171642
v -0.113810 -0.052033 0.153684
v -0.153804 -0.045744 0.135144
v -0.197772 -0.038499 0.111299
v -0.234340 -0.032345 0.089404
v -0.272021 -0.025941 0.064425
v -0.295121 -0.021980 0.047114
v -0.314757 -0.018577 0.030012
v -0.329347 -0.016002 0.013755
v -0.337309 -0.014523 -0.001027
v 0.162825 -0.149482 0.235652
v 0.165168 -0.136327 0.232646
v 0.176184 -0.065815 0.203849
v 0.179811 -0.042180 0.191545
v 0.182486 -0.025489 0.179155
v 0.183099 -0.021919 0.174473
v 0.183370 -0.020623 0.170075
v 0.184174 -0.025797 0.082550
v 0.330740 0.080964 0.031327
v 0.327557 0.080856 0.042405
v 0.323321 0.080703 0.052010
v 0.318110 0.080499 0.060242
v 0.311996 0.080235 0.067202
v 0.297366 0.079505 0.077707
v 0.280032 0.078460 0.084326
v 0.250276 0.076179 0.088727
v 0.217815 0.072880 0.088904
v 0.143506 0.061323 0.085707
v 0.099643 0.053843 0.080530
v -0.014986 0.034642 0.059210
v -0.060011 0.027048 0.052142
v -0.091467 0.021677 0.048764
v -0.124428 0.015978 0.046909
v -0.177368 0.006877 0.046448
v -0.203586 0.002271 0.047656
v -0.228577 -0.002904 0.051974
v -0.232939 -0.004260 0.054128
v -0.235258 -0.005468 0.056659
v -0.235496 -0.006553 0.059580
v -0.233617 -0.007538 0.062900
v -0.229585 -0.008445 0.066633
v -0.214919 -0.010119 0.075383
v -0.191208 -0.011759 0.085922
v -0.138047 -0.014560 0.105289
v -0.082072 -0.015702 0.123664
v -0.034301 -0.015408 0.138018
v 0.016414 -0.014903 0.151313
v 0.050961 -0.014791 0.158899
v 0.085468 -0.015102 0.164982
v 0.119398 -0.016040 0.169148
v 0.152212 -0.017812 0.170983
v 0.195178 -0.021951 0.168717
v 0.219352 -0.024648 0.163518
v 0.243685 -0.027337 0.155122
v 0.255694 -0.028654 0.149768
v 0.278958 -0.031184 0.136835
v 0.290038 -0.032379 0.129289
v 0.310660 -0.034579 0.112127
v 0.328647 -0.036464 0.092315
v 0.336434 -0.037262 0.081460
v 0.349158 -0.038528 0.057933
v 0.357499 -0.039285 0.032101
v -0.136375 -0.011869 0.089745
v -0.136957 -0.012604 0.100020
v -0.145327 -0.028817 0.121304
v -0.162814 -0.063951 0.147116
v -0.169963 -0.078530 0.155126
v -0.176108 -0.091138 0.160363
v -0.124967 0.022087 0.011938
v -0.131407 0.057590 0.057289
v -0.134265 0.074409 0.059719
v -0.135902 0.084073 0.059883
v -0.137918 0.096168 0.057469
v -0.138948 0.102585 0.053810
v -0.139710 0.107648 0.048290
v -0.140188 0.111326 0.040719
v -0.140386 0.114091 0.026038
v -0.103805 0.118036 0.042544
v -0.071133 0.124045 0.045843
v -0.027260 0.132070 0.052735
v 0.079472 0.151209 0.073641
v 0.123670 0.158966 0.078836
v 0.207458 0.173534 0.085256
v 0.227513 0.177015 0.085790
v 0.247404 0.180472 0.084046
v 0.256965 0.182135 0.081992
v 0.274671 0.185221 0.074858
v 0.282558 0.186599 0.069518
v 0.289628 0.187837 0.062821
v 0.295752 0.188914 0.054633
v 0.300800 0.189807 0.044825
v 0.304644 0.190494 0.033265
v 0.307155 0.190953 0.019822
v -0.393956 -0.069360 -0.015879
v -0.390202 -0.069903 -0.023525
v -0.376464 -0.071953 -0.040784
v -0.355948 -0.075056 -0.059946
v -0.330495 -0.078928 -0.080145
v -0.301942 -0.083287 -0.100515
v -0.257322 -0.090117 -0.129497
v -0.216067 -0.096445 -0.153992
v -0.177021 -0.102454 -0.174623
v -0.151542 -0.106397 -0.185165
v -0.106873 -0.113346 -0.199886
v -0.056163 -0.121265 -0.212832
v -0.019944 -0.126932 -0.220216
v 0.036589 -0.135788 -0.229033
v 0.074922 -0.141799 -0.233179
v 0.131972 -0.150747 -0.236408
v 0.168881 -0.156536 -0.236342
v 0.188670 -0.159648 -0.234967
v 0.207825 -0.162679 -0.232023
v 0.226303 -0.165621 -0.227583
v 0.244061 -0.168466 -0.221725
v 0.261057 -0.171207 -0.214522
v 0.292589 -0.176341 -0.196386
v 0.307039 -0.178721 -0.185602
v 0.333095 -0.183066 -0.160980
v 0.355072 -0.186807 -0.132786
v 0.372626 -0.189882 -0.101622
v 0.379638 -0.191150 -0.085114
v 0.389916 -0.193111 -0.050621
v 0.393096 -0.193788 -0.032788
v 0.157688 0.171787 -0.043785
v 0.158491 0.168993 -0.063501
v 0.159261 0.165705 -0.076582
v 0.160003 0.161871 -0.081815
v 0.161036 0.156332 -0.085706
v 0.162333 0.149230 -0.088384
v 0.164720 0.135955 -0.090409
v 0.169659 0.108026 -0.089547
v 0.176673 0.067661 -0.084006
v 0.176378 0.067780 -0.060476
v -0.337089 -0.014440 -0.014269
v -0.328643 -0.015735 -0.028767
v -0.313522 -0.018108 -0.044513
v -0.293330 -0.021299 -0.060929
v -0.269670 -0.025047 -0.077438
v -0.231184 -0.031145 -0.101116
v -0.193909 -0.037031 -0.121760
v -0.149176 -0.043984 -0.144141
v -0.108588 -0.050048 -0.161424
v -0.063137 -0.056805 -0.177971
v -0.013991 -0.064112 -0.192759
v 0.020249 -0.069218 -0.201135
v 0.072955 -0.077126 -0.210720
v 0.108485 -0.082502 -0.214682
v 0.143925 -0.087912 -0.216347
v 0.178929 -0.093314 -0.215413
v 0.215527 -0.099030 -0.210251
v 0.232752 -0.101745 -0.205798
v 0.264907 -0.106860 -0.193429
v 0.293808 -0.111520 -0.176813
v 0.306964 -0.113665 -0.167051
v 0.330542 -0.117555 -0.144898
v 0.350277 -0.120879 -0.119611
v 0.365937 -0.123589 -0.091634
v 0.372164 -0.124700 -0.076776
v 0.381268 -0.126409 -0.045598
v 0.384086 -0.126994 -0.029391
v 0.186866 -0.024774 -0.079943
v 0.188966 -0.018496 -0.167562
v 0.188840 -0.019737 -0.171982
v 0.188383 -0.023247 -0.176726
v 0.186124 -0.039781 -0.189408
v 0.182912 -0.063258 -0.202121
v 0.172871 -0.133399 -0.232154
v 0.170632 -0.146516 -0.235401
v 0.331636 0.081304 -0.022709
v 0.328821 0.081337 -0.033888
v 0.324906 0.081306 -0.043630
v 0.319970 0.081206 -0.052034
v 0.314091 0.081032 -0.059197
v 0.299817 0.080437 -0.070193
v 0.282712 0.079478 -0.077401
v 0.253119 0.077259 -0.082821
v 0.220683 0.073970 -0.084120
v 0.146310 0.062389 -0.083535
v 0.102301 0.054854 -0.079909
v -0.012967 0.035409 -0.062643
v -0.058200 0.027736 -0.057166
v -0.089749 0.022329 -0.054901
v -0.122752 0.016615 -0.054211
v -0.175676 0.007519 -0.055619
v -0.201839 0.002935 -0.057753
v -0.226673 -0.002180 -0.062961
v -0.230961 -0.003508 -0.065275
v -0.233193 -0.004684 -0.067898
v -0.233334 -0.005732 -0.070837
v -0.231346 -0.006675 -0.074106
v -0.227193 -0.007536 -0.077714
v -0.212245 -0.009103 -0.085994
v -0.188197 -0.010615 -0.095761
v -0.134423 -0.013183 -0.113390
v -0.077870 -0.014104 -0.129913
v -0.029649 -0.013640 -0.142672
v 0.021479 -0.012978 -0.154271
v 0.056258 -0.012778 -0.160707
v 0.090948 -0.013019 -0.165646
v 0.124997 -0.013912 -0.168697
v 0.157854 -0.015667 -0.169466
v 0.200723 -0.019844 -0.165829
v 0.224710 -0.022612 -0.159858
v 0.248753 -0.025411 -0.150680
v 0.260578 -0.026797 -0.144940
v 0.283401 -0.029496 -0.131255
v 0.294225 -0.030788 -0.123351
v 0.314267 -0.033208 -0.105521
v 0.331588 -0.035345 -0.085128
v 0.339011 -0.036283 -0.074022
v 0.350948 -0.037848 -0.050087
v 0.358429 -0.038931 -0.023993
v -0.170622 -0.089053 -0.170655
v -0.164657 -0.076513 -0.165059
v -0.157780 -0.062038 -0.156633
v -0.141165 -0.027236 -0.129816
v -0.133509 -0.011294 -0.107996
v -0.133272 -0.010689 -0.097538
v -0.139410 0.114463 -0.032819
v -0.138729 0.111880 -0.047346
v -0.137999 0.108298 -0.054943
v -0.137054 0.103305 -0.060498
v -0.135902 0.096935 -0.064202
v -0.133804 0.084870 -0.066699
v -0.132171 0.075204 -0.066603
v -0.129393 0.058355 -0.064291
v -0.124457 0.022281 -0.018856
v 0.307668 0.191147 -0.011118
v 0.305604 0.190859 -0.024631
v 0.302145 0.190318 -0.036304
v 0.297424 0.189550 -0.046263
v 0.291574 0.188577 -0.054637
v 0.284730 0.187425 -0.061552
v 0.277024 0.186115 -0.067135
v 0.259564 0.183123 -0.074820
v 0.250076 0.181487 -0.077175
v 0.230253 0.178057 -0.079549
v 0.210192 0.174573 -0.079657
v 0.126238 0.159942 -0.076096
v 0.081893 0.152129 -0.072466
v -0.025469 0.132751 -0.055352
v -0.069544 0.124649 -0.050018
v -0.102307 0.118605 -0.047880
v 0.025152 -0.019925 -0.001191
v 0.161046 -0.159513 0.118150
v -0.009153 -0.131713 -0.002815
v -0.287339 -0.086551 -0.007277
v -0.180991 -0.104249 0.079214
v -0.178186 -0.103183 -0.090071
v -0.366817 -0.041733 -0.008350
v 0.278186 -0.177004 0.001784
v 0.164963 -0.158024 -0.118226
l 1 2 3 4 5 6 7 8 9 10 11 12 13 14 15
l 15 16 17 18 19 20 21 22 23
l 23 24 25 26 27 28 29 30 31 32
l 33 34 35
l 35 36 37 38
l 38 39 40 41 42 43 44
l 44 45 46 47 48 49
l 49 50 51
l 51 52 53 54 55 56 57 58
l 58 354 32
l 32 351 59
l 59 350 60
l 60 355 1
l 1 61 62
l 62 63 64 65 66
l 66 67 68 69
l 69 348 70
l 70 71 72 73 74 75 76 77 33
l 35 78 79
l 79 80 81 82 83 84 85
l 85 86 87 49
l 62 88 89 90 91 92 93 94 95 96 97 98 99
l 99 100 101 102 103 104 105 106 107
l 107 108 109 110 111 112 113 114 58
l 60 349 15
l 15 115 116 99
l 99 117 118 119 120 121
l 121 122 69
l 38 123 124 125 126 127 128 129 130 131 79
l 79 132 133 134 135 136 137
l 137 138 139 140 141 142 143 144 145 146 147 148
l 148 149 150 151 152 153 154 155 121
l 121 156 157 158 159 160 161 162 163 164 165 166 66
l 70 167 168 148
l 148 169 107
l 107 170 171 172 23
l 23 352 59
l 33 173 137
l 137 174 175 176 177 178 179 180
l 180 181 51
l 180 182 183 184 185 186 85
l 85 187 188 189 190 191 192 193 194 195 196 197 44
l 32 198 199 200 201 202 203 204 205 206
l 206 207 208 209 210 211 212 213 214
l 214 215 216 217 218 219 220 221 222 223 224 225 226 227 1
l 49 228 229 230
l 230 231 232 233 234 235 236
l 236 237 35
l 58 238 239 240 241 242 243 244 245
l 245 246 247 248 249 250 251 252 253
l 253 254 255 256 257 258 259 260 261 262 263 264 62
l 69 265 266
l 266 267 268 269 270 253
l 253 271 272 214
l 214 356 60
l 38 273 274 275 276 277 278 279 280 281 236
l 236 282 283 284 285 286 287
l 287 288 289 290 291 292 293 294 295 296 297 298
l 298 299 300 301 302 303 304 305 266
l 266 306 307 308 309 310 311 312 313 314 315 316 66
l 59 353 206
l 206 317 318 319 245
l 245 320 298
l 298 321 322 70
l 51 323 324
l 324 325 326 327 328 329 330 287
l 287 331 33
l 44 332 333 334 335 336 337 338 339 340 341 342 230
l 230 343 344 345 346 347 324
