v -0.330573 -0.192320 -0.303477
v -0.330402 -0.193258 -0.242893
v -0.332978 -0.193703 -0.212701
v -0.338709 -0.194256 -0.170866
v -0.340469 -0.194730 -0.140160
v -0.338080 -0.195162 -0.112432
v -0.332294 -0.195444 -0.091891
v -0.320337 -0.195744 -0.070492
v -0.312866 -0.195888 -0.062248
v -0.300183 -0.196087 -0.052611
v -0.276259 -0.196358 -0.042820
v -0.245619 -0.196533 -0.039087
v -0.227449 -0.196584 -0.042045
v -0.213649 -0.196637 -0.050026
v -0.203067 -0.196690 -0.060966
v -0.184417 -0.196809 -0.086387
v -0.179105 -0.196838 -0.090869
v -0.173175 -0.196866 -0.092994
v -0.107017 -0.196982 -0.094233
v 0.086672 -0.197207 -0.087239
v 0.196540 -0.197187 -0.081903
v 0.241393 -0.196860 -0.082638
v 0.263226 -0.196622 -0.085422
v 0.284779 -0.196333 -0.090421
v 0.316772 -0.195804 -0.103067
v 0.315159 -0.042423 -0.098023
v 0.315611 0.023260 -0.095666
v 0.315099 0.073504 -0.092271
v 0.313173 0.095377 -0.090550
v 0.309245 0.105823 -0.090046
v 0.286737 0.119782 -0.090619
v 0.261788 0.128756 -0.090054
v 0.228692 0.134637 -0.088648
v 0.182292 0.136755 -0.087448
v 0.088082 0.136639 -0.086005
v 0.001413 0.137626 -0.086877
v -0.067437 0.138080 -0.088673
v -0.127816 0.136204 -0.091027
v -0.164186 0.131988 -0.093350
v -0.173747 0.128647 -0.094606
v -0.175633 0.126616 -0.095249
v -0.190063 0.113478 -0.082240
v -0.206311 0.103602 -0.073262
v -0.223577 0.097773 -0.068198
v -0.245142 0.095495 -0.066411
v -0.261640 0.096161 -0.067582
v -0.275516 0.098011 -0.070533
v -0.286976 0.100880 -0.075057
v -0.300081 0.106741 -0.084339
v -0.306395 0.111447 -0.091888
v -0.312746 0.119295 -0.104734
v -0.315969 0.127598 -0.118787
v -0.316756 0.135806 -0.133343
v -0.316880 0.143603 -0.149227
v -0.317454 0.148305 -0.164376
v -0.318053 0.150692 -0.182709
v -0.318254 0.151541 -0.208141
v -0.318188 0.149665 -0.251587
v -0.318283 0.145575 -0.300420
v -0.333936 -0.039662 -0.210534
v -0.331504 -0.038721 -0.301877
v -0.241392 -0.039034 -0.301170
v 0.087710 -0.040543 -0.298802
v 0.340469 -0.041241 -0.297468
v 0.338895 -0.041460 -0.277998
v 0.328149 -0.042215 -0.205706
v 0.087313 -0.040383 -0.093628
v -0.107879 -0.040355 -0.103845
v -0.157318 -0.040458 -0.101424
v -0.170866 -0.040520 -0.097340
v -0.173990 -0.040553 -0.094404
v -0.191309 -0.040887 -0.069921
v -0.209473 -0.041163 -0.053104
v -0.226668 -0.041328 -0.043556
v -0.245646 -0.041385 -0.040009
v -0.277220 -0.041356 -0.043979
v -0.302072 -0.041295 -0.054426
v -0.320364 -0.041173 -0.070394
v -0.332257 -0.040960 -0.090923
v -0.337245 -0.040745 -0.109453
v -0.339415 -0.040452 -0.136402
v -0.332281 0.012313 -0.089718
v -0.332284 0.050130 -0.091175
v -0.332258 0.083966 -0.098439
v -0.332216 0.103355 -0.108189
v -0.332150 0.119542 -0.123043
v -0.332054 0.131954 -0.144009
v -0.331925 0.140017 -0.172096
v -0.331757 0.143159 -0.208313
v -0.331149 0.138747 -0.300408
v 0.087109 -0.191020 -0.299395
v 0.339419 -0.191376 -0.299308
v 0.339888 0.019912 -0.296711
v 0.336281 0.064500 -0.296211
v 0.329784 0.092205 -0.295939
v 0.322057 0.103608 -0.295868
v 0.302593 0.111247 -0.295933
v 0.273344 0.117029 -0.296106
v 0.231553 0.121912 -0.296404
v 0.182870 0.124972 -0.296826
v 0.088550 0.128703 -0.297307
v 0.003701 0.132821 -0.297784
v -0.241090 0.142568 -0.299966
v -0.327241 0.145629 -0.300358
v -0.333129 0.087976 -0.300832
v -0.242127 -0.191708 -0.302350
v 0.328134 -0.193758 -0.209639
v 0.317436 0.103986 -0.202258
v -0.242084 0.174670 -0.250470
v -0.242603 0.165168 -0.222593
v -0.242771 0.161922 -0.214315
v -0.242830 0.158212 -0.211699
v -0.243182 0.159431 -0.188228
v -0.243392 0.156676 -0.173744
v -0.243504 0.151845 -0.167293
v -0.243611 0.142875 -0.164491
v -0.243808 0.142007 -0.151562
v -0.244098 0.137760 -0.131567
v -0.244301 0.132892 -0.116518
v -0.244491 0.125038 -0.104394
v -0.244637 0.115191 -0.096434
v -0.244705 0.104346 -0.093879
v -0.244866 0.106559 -0.083203
v -0.244942 0.104251 -0.078052
v -0.245062 0.098193 -0.071717
v -0.245145 0.078472 -0.063556
v -0.245502 0.009323 -0.045390
v -0.245599 -0.015715 -0.041385
v -0.241332 0.159110 -0.290312
v -0.241562 0.165946 -0.283963
v -0.241759 0.173722 -0.269444
v -0.241914 0.175197 -0.260674
v 0.088509 0.156288 -0.234499
v 0.088463 0.178036 -0.178269
v 0.088400 0.193248 -0.129434
v 0.088312 0.201222 -0.088808
v 0.088238 0.202560 -0.055008
v 0.088141 0.199631 -0.026445
v 0.088028 0.121311 -0.091765
v 0.087869 0.083951 -0.095359
v 0.087662 0.037655 -0.095783
v 0.087092 -0.095333 -0.092478
v 0.086922 -0.193703 -0.212701
v 0.002818 0.201973 -0.089698
v 0.003147 0.194617 -0.135389
v 0.003434 0.180368 -0.186418
v 0.003608 0.161213 -0.235240
v 0.002114 0.149735 -0.121624
v 0.001946 0.150648 -0.107151
v 0.001760 0.149309 -0.096525
v 0.001561 0.144645 -0.089169
v 0.001813 0.165307 -0.063055
v 0.002150 0.201100 -0.027158
v 0.002287 0.203801 -0.034147
v 0.002438 0.204896 -0.046221
v 0.182602 0.200062 -0.088379
v 0.182495 0.201729 -0.053752
v 0.182385 0.198785 -0.025632
v 0.182343 0.178611 -0.041538
v 0.182343 0.146827 -0.086978
v 0.182395 0.152714 -0.091462
v 0.182447 0.155023 -0.100938
v 0.182496 0.154365 -0.115447
v 0.182613 0.145319 -0.178335
v 0.182816 0.158439 -0.221695
v 0.182756 0.179804 -0.167078
v 0.182689 0.192735 -0.125677
v -0.303927 0.134648 -0.133899
v -0.289430 0.128013 -0.137429
v -0.281498 0.132153 -0.135012
v -0.270488 0.135491 -0.133059
v -0.217130 0.135417 -0.132515
v -0.182021 0.127447 -0.136460
v -0.175974 0.130033 -0.135006
v -0.174237 0.134560 -0.132492
v -0.169868 0.137216 -0.130972
v -0.157890 0.139691 -0.129453
v -0.118098 0.143991 -0.126562
v -0.056691 0.147866 -0.123589
v -0.266360 0.154224 -0.169436
v -0.286347 0.149179 -0.160349
v -0.298780 0.142960 -0.149059
v -0.302502 0.139074 -0.141980
v -0.301102 0.122288 -0.111307
v -0.297510 0.117522 -0.102590
v -0.289800 0.111950 -0.092389
v -0.283316 0.109189 -0.087319
v -0.271932 0.106307 -0.082003
v -0.258981 0.104738 -0.079054
v -0.231609 0.105113 -0.079497
v -0.217461 0.107595 -0.083885
v -0.195173 0.114774 -0.096741
v -0.184438 0.120572 -0.107183
v -0.179085 0.124930 -0.115054
v -0.175573 0.129614 -0.123526
v -0.175259 0.138859 -0.140314
v -0.178371 0.142672 -0.147297
v -0.183278 0.146007 -0.153448
v -0.193370 0.150133 -0.161128
v -0.215033 0.154739 -0.169858
v -0.293207 0.165699 -0.251186
v -0.292346 0.165596 -0.243361
v -0.289741 0.165507 -0.237125
v -0.280512 0.165366 -0.228688
v -0.264583 0.165249 -0.223837
v -0.232950 0.165176 -0.224982
v -0.223312 0.165233 -0.231392
v -0.215089 0.165323 -0.240326
v -0.209683 0.165429 -0.250289
v -0.208092 0.165517 -0.257831
v -0.208728 0.165610 -0.264983
v -0.214776 0.165760 -0.275185
v -0.227116 0.165884 -0.281973
v -0.263120 0.165962 -0.280158
v -0.279496 0.165920 -0.272454
v -0.289255 0.165837 -0.263216
v -0.266303 0.158318 -0.215143
v -0.286979 0.158482 -0.223330
v -0.299745 0.158665 -0.234701
v -0.303467 0.158773 -0.242311
v -0.304735 0.158891 -0.251358
v -0.300880 0.159057 -0.266203
v -0.296548 0.159109 -0.272194
v -0.287647 0.159155 -0.279478
v -0.268188 0.159164 -0.287338
v -0.221055 0.159015 -0.286694
v -0.204692 0.158860 -0.277563
v -0.194966 0.158678 -0.264802
v -0.193447 0.158571 -0.256187
v -0.194598 0.158505 -0.250297
v -0.203172 0.158322 -0.232438
v -0.213078 0.158225 -0.221104
v -0.226120 0.158188 -0.213893
v -0.263391 0.141526 -0.162129
v -0.277368 0.138325 -0.156294
v -0.286731 0.133301 -0.147102
v -0.286492 0.119725 -0.122262
v -0.276016 0.111761 -0.107641
v -0.261629 0.106605 -0.098125
v -0.252745 0.104925 -0.094994
v -0.234589 0.104966 -0.094997
v -0.222646 0.106784 -0.098381
v -0.202310 0.112137 -0.108349
v -0.192029 0.116541 -0.116499
v -0.186799 0.119896 -0.122675
v -0.183332 0.123544 -0.129354
v -0.183158 0.131027 -0.142952
v -0.186494 0.134024 -0.148382
v -0.198135 0.138464 -0.156419
v -0.217822 0.141605 -0.162109
v -0.326659 0.150371 -0.208199
v -0.333796 0.128487 -0.208500
v -0.334975 0.089825 -0.208974
v 0.325960 0.019762 -0.204357
v -0.268345 0.172633 -0.250809
v -0.224819 0.172351 -0.250307
v 0.128289 0.078078 0.285640
v 0.151024 0.076647 0.285679
v 0.161461 0.074539 0.285684
v 0.180480 0.067691 0.285664
v 0.197036 0.057542 0.285606
v 0.217276 0.036668 0.285449
v 0.227722 0.019345 0.285301
v 0.238847 -0.011130 0.285014
v 0.243251 -0.034081 0.284781
v 0.245365 -0.071839 0.284371
v 0.242531 -0.099251 0.284041
v 0.237949 -0.115684 0.283819
v 0.227023 -0.137297 0.283496
v 0.217023 -0.149519 0.283294
v 0.197936 -0.164295 0.283019
v 0.182473 -0.171614 0.282862
v 0.155156 -0.178516 0.282676
v 0.134185 -0.180240 0.282591
v 0.097235 -0.178778 0.282456
v 0.064157 -0.172341 0.282315
v 0.035828 -0.160609 0.282212
v 0.020014 -0.149688 0.282184
v 0.006963 -0.136176 0.282206
v 0.001553 -0.128420 0.282238
v -0.006867 -0.110845 0.282356
v -0.011875 -0.090444 0.282555
v -0.013210 -0.067121 0.282846
v -0.010806 -0.044586 0.283174
v -0.000735 -0.012510 0.283700
v 0.009799 0.007221 0.284056
v 0.030495 0.033479 0.284569
v 0.056058 0.054697 0.285024
v 0.075247 0.065468 0.285275
v 0.106412 0.075704 0.285547
v -0.026235 -0.066604 0.272884
v -0.024646 -0.089965 0.272665
v -0.022295 -0.101127 0.272632
v -0.014687 -0.122252 0.272695
v -0.003473 -0.141561 0.272898
v 0.019393 -0.166553 0.273377
v 0.048539 -0.186001 0.273950
v 0.070916 -0.195453 0.274318
v 0.108083 -0.203713 0.274752
v 0.134788 -0.204896 0.274904
v 0.157784 -0.202424 0.274952
v 0.189706 -0.192223 0.274958
v 0.208908 -0.181708 0.274937
v 0.233967 -0.161414 0.274901
v 0.247814 -0.145484 0.274891
v 0.263670 -0.119039 0.274931
v 0.272880 -0.090798 0.275075
v 0.274912 -0.071673 0.275249
v 0.273674 -0.042572 0.275526
v 0.265661 -0.003847 0.275746
v 0.256383 0.018509 0.275785
v 0.250608 0.028603 0.275780
v 0.236854 0.046547 0.275727
v 0.220261 0.061398 0.275635
v 0.210936 0.067626 0.275579
v 0.190302 0.077610 0.275458
v 0.167118 0.084197 0.275338
v 0.154607 0.086179 0.275284
v 0.127817 0.087442 0.275198
v 0.102278 0.084864 0.275113
v 0.090099 0.082110 0.275053
v 0.067074 0.073908 0.274904
v 0.046023 0.062421 0.274719
v 0.018667 0.039845 0.274379
v 0.003593 0.021775 0.274118
v -0.013678 -0.008931 0.273685
v -0.023825 -0.042839 0.273213
v -0.023805 -0.061758 -0.085665
v -0.018862 -0.084064 -0.085807
v -0.005599 -0.114736 -0.085983
v 0.006756 -0.132995 -0.086074
v 0.029901 -0.156536 -0.086167
v 0.057788 -0.174781 -0.086209
v 0.078576 -0.183623 -0.086207
v 0.112391 -0.191340 -0.086157
v 0.136306 -0.192458 -0.086091
v 0.155780 -0.190166 -0.086021
v 0.184176 -0.180547 -0.085888
v 0.201996 -0.170610 -0.085782
v 0.226090 -0.151443 -0.085599
v 0.245851 -0.128390 -0.085390
v 0.255971 -0.111545 -0.085236
v 0.265597 -0.085088 -0.084990
v 0.267743 -0.067254 -0.084814
v 0.265225 -0.029303 -0.084471
v 0.256367 0.005639 -0.084225
v 0.241040 0.036296 -0.084068
v 0.227164 0.053723 -0.084010
v 0.210319 0.068302 -0.083985
v 0.200771 0.074404 -0.083984
v 0.179400 0.083999 -0.084005
v 0.154963 0.089799 -0.084054
v 0.127423 0.091427 -0.084129
v 0.097900 0.088670 -0.084232
v 0.084171 0.085772 -0.084292
v 0.058881 0.077214 -0.084427
v 0.036608 0.065346 -0.084577
v 0.026653 0.058309 -0.084656
v 0.009200 0.042310 -0.084823
v -0.004844 0.024112 -0.084995
v -0.010539 0.014328 -0.085082
v -0.019176 -0.006332 -0.085256
v -0.024015 -0.028078 -0.085425
v -0.024960 -0.039219 -0.085508
v -0.024019 -0.064728 0.138733
v -0.022074 -0.089518 0.138386
v -0.015417 -0.111875 0.138078
v -0.004652 -0.131744 0.137810
v 0.002081 -0.140728 0.137691
v 0.017875 -0.156762 0.137483
v 0.036267 -0.170171 0.137318
v 0.067405 -0.185242 0.137150
v 0.100992 -0.194098 0.137081
v 0.134989 -0.196552 0.137114
v 0.157512 -0.194468 0.137193
v 0.188898 -0.185935 0.137381
v 0.207844 -0.176950 0.137548
v 0.232650 -0.159053 0.137848
v 0.252341 -0.136482 0.138197
v 0.262196 -0.119191 0.138450
v 0.271422 -0.090411 0.138848
v 0.273490 -0.069637 0.139121
v 0.272185 -0.040546 0.139500
v 0.263862 -0.001969 0.140022
v 0.254331 0.020227 0.140331
v 0.248437 0.030229 0.140471
v 0.234508 0.047978 0.140721
v 0.217870 0.062633 0.140925
v 0.198702 0.074091 0.141079
v 0.188226 0.078589 0.141134
v 0.153495 0.087005 0.141211
v 0.127813 0.088254 0.141179
v 0.103834 0.085947 0.141094
v 0.070033 0.076038 0.140886
v 0.049411 0.065455 0.140696
v 0.022144 0.044168 0.140345
v 0.000232 0.017047 0.139925
v -0.010869 -0.003906 0.139611
v -0.021461 -0.039091 0.139098
v 0.268612 -0.069130 0.095410
v 0.187931 -0.071087 0.295853
v 0.131588 -0.070871 0.300662
v 0.086816 -0.070923 0.299643
v 0.046536 -0.069775 0.296578
v 0.012584 -0.068237 0.291100
v -0.023754 -0.064024 0.094726
v 0.135234 -0.195724 0.092818
v 0.134884 -0.198770 0.195699
v 0.132595 -0.115736 0.294388
v 0.130422 -0.016546 0.303477
v 0.129455 0.025663 0.301436
v 0.128672 0.059837 0.294748
v 0.127913 0.086145 0.282197
v 0.127642 0.088542 0.097553
v -0.021985 -0.087226 0.094387
v -0.019436 -0.098177 0.094223
v -0.011296 -0.118669 0.093910
v 0.000518 -0.137134 0.093622
v 0.024128 -0.160653 0.093251
v 0.043124 -0.173290 0.093054
v 0.075358 -0.187247 0.092852
v 0.110704 -0.194682 0.092781
v 0.157327 -0.193696 0.092919
v 0.187841 -0.185392 0.093183
v 0.206116 -0.176604 0.093419
v 0.229879 -0.158994 0.093839
v 0.248610 -0.136601 0.094308
v 0.257938 -0.119312 0.094632
v 0.266647 -0.090284 0.095110
v 0.266264 -0.031773 0.095921
v 0.257807 0.002832 0.096421
v 0.242904 0.033343 0.096874
v 0.229220 0.050749 0.097133
v 0.212421 0.065343 0.097344
v 0.202821 0.071461 0.097429
v 0.181161 0.081092 0.097548
v 0.156134 0.086918 0.097592
v 0.103943 0.086232 0.097451
v 0.070394 0.076287 0.097190
v 0.049849 0.065676 0.096952
v 0.022598 0.044363 0.096521
v 0.000629 0.017272 0.096021
v -0.010525 -0.003613 0.095661
v -0.021184 -0.038600 0.095102
v 0.213264 -0.191198 -0.299351
v 0.135710 0.126837 -0.297066
v -0.242344 0.169919 -0.236532
v 0.207528 -0.193731 -0.211170
v 0.135263 0.199208 -0.026039
v 0.322453 -0.194781 -0.156353
v 0.135111 -0.196138 0.114966
v 0.087410 -0.115781 -0.299098
v -0.331039 -0.115520 -0.302677
v -0.173583 -0.118710 -0.093699
v 0.127815 0.087848 0.208189
v 0.046125 0.130762 -0.297545
v 0.182549 0.177213 -0.101913
v 0.321654 -0.042319 -0.151864
v -0.202140 0.161967 -0.250293
v 0.268178 -0.068192 0.005298
v -0.123028 -0.193703 -0.212701
v -0.241447 0.162528 -0.287137
v 0.087016 -0.192362 -0.256048
v 0.135770 -0.194091 0.003363
v -0.310341 0.135227 -0.133621
v -0.332276 -0.118202 -0.091407
v -0.023779 -0.062891 0.004530
v -0.332720 -0.039191 -0.256206
v 0.328142 -0.117986 -0.207673
v -0.077509 -0.191364 -0.300873
v 0.088112 0.168135 -0.056225
v -0.286350 -0.192014 -0.302914
v -0.118694 0.137695 -0.298875
v -0.241211 0.150839 -0.295139
v -0.243873 -0.194121 -0.170719
v 0.274201 -0.070655 0.207185
v 0.002466 0.175854 -0.105661
v 0.339944 -0.116309 -0.298388
v 0.127533 0.089984 0.006712
v 0.045565 0.201597 -0.089253
v -0.333457 -0.116683 -0.211618
v -0.286448 -0.038877 -0.301524
v 0.313340 0.104905 -0.146152
v 0.319746 0.103797 -0.249063
v 0.135457 0.200642 -0.088593
v -0.245632 -0.118959 -0.039548
v -0.025127 -0.065666 0.205809
v -0.019722 -0.066862 0.277865
v 0.086797 -0.195455 -0.149970
v -0.023886 -0.064376 0.116729
v -0.174811 0.043031 -0.094827
v -0.331453 0.140953 -0.254360
v 0.315965 -0.119113 -0.100545
v -0.241241 0.051767 -0.300568
v -0.318221 0.150603 -0.229864
v 0.333777 -0.192567 -0.254474
v 0.134486 -0.192568 0.278748
v -0.241759 -0.115371 -0.301760
v 0.002908 0.141278 -0.209704
v 0.135187 0.136697 -0.086726
v 0.127728 0.088398 0.119366
v -0.298971 0.162295 -0.251272
v 0.260138 -0.071756 0.279810
v -0.311461 0.154278 -0.251473
v -0.076841 -0.039789 -0.299986
v 0.045146 0.200365 -0.026802
v 0.271051 -0.069383 0.117265
v -0.318235 0.147620 -0.276003
v -0.296679 0.131330 -0.135664
v 0.088130 0.044080 -0.298055
v 0.044747 0.137132 -0.086441
v 0.201236 -0.041403 -0.095826
v 0.214089 -0.040892 -0.298135
v -0.279686 0.144072 -0.300193
l 1 2 3
l 3 4 5 6 7
l 7 8 9 10 11 12
l 12 13 14 15 16 17 18
l 18 19 20
l 20 21 22 23 24 25
l 25 493 26
l 26 27 28 29 30
l 30 31 32 33 34
l 34 500 35
l 35 511 36
l 36 37 38 39 40 41
l 41 42 43 44 45
l 45 46 47 48 49 50 51 52 53
l 53 54 55 56 57
l 57 495 58
l 58 508 59
l 60 468 61
l 61 482 62
l 62 505 63
l 63 513 64
l 64 65 66
l 66 458 26
l 26 512 67
l 67 68 69 70 71
l 71 72 73 74 75
l 75 76 77 78 79
l 79 80 81 60
l 41 491 71
l 71 454 18
l 7 466 79
l 79 82 83 84 85 86 87 88 89
l 89 492 90
l 91 445 92
l 92 478 64
l 64 93 94 95 96
l 96 97 98 99 100
l 100 446 101
l 101 456 102
l 102 473 103
l 103 514 59
l 59 104 90
l 90 105 61
l 61 453 1
l 1 472 106
l 106 470 91
l 92 496 107
l 107 450 25
l 96 484 108
l 108 483 30
l 109 447 110
l 110 111 112
l 112 113 114
l 114 115 116
l 116 117 118
l 118 119 120 121 122
l 122 123 124
l 124 125 45
l 45 126 127 128 75
l 75 486 12
l 12 475 106
l 106 498 62
l 62 494 103
l 103 474 129
l 129 462 130
l 130 131 132 109
l 101 133 134 135 136
l 136 137 138
l 138 471 35
l 35 139 140 141 67
l 67 142 20
l 20 489 143
l 143 463 91
l 91 452 63
l 63 510 101
l 144 145 146 147 102
l 102 499 148
l 148 149 150 151 36
l 36 152 153
l 153 154 155 144
l 156 157 158
l 158 159 34
l 34 160 161 162 163
l 163 164 100
l 100 165 166 167 156
l 153 506 138
l 138 449 158
l 53 465 168
l 168 509 169
l 169 170 171 118
l 118 172 173
l 173 174 175
l 175 176 177 178 179 148
l 148 477 144
l 144 480 136
l 136 485 156
l 156 457 163
l 114 180 181 182 183 168
l 168 184 185 186 187 188 189 124
l 124 190 191 192 193 194 195 175
l 175 196 197 198 199 200 114
l 201 202 203 204 205 110
l 110 206 207 208 209
l 209 210 211 212 213 130
l 130 214 215 216 201
l 112 217 218 219 220 221
l 221 222 223 224 225 129
l 129 226 227 228 229 230
l 230 231 232 233 112
l 116 234 235 236 169
l 169 237 238 239 240 122
l 122 241 242 243 244 245 246 173
l 173 247 248 249 250 116
l 57 251 89
l 89 252 253 60
l 60 481 3
l 3 461 143
l 143 448 107
l 107 469 66
l 66 254 108
l 58 504 221
l 221 502 201
l 201 255 109
l 109 256 209
l 209 459 230
l 257 258 259 260 261 262 263 264 265 266
l 266 267 268 269 270 271 272 273 274
l 274 275 276 277 278 279 280 281 282 283
l 283 284 285 286 287 288 289 290 257
l 291 292 293 294 295 296 297 298 299 300
l 300 301 302 303 304 305 306 307 308
l 308 309 310 311 312 313 314 315 316 317 318 319
l 319 320 321 322 323 324 325 326 327 291
l 328 329 330 331 332 333 334 335 336
l 336 337 338 339 340 341 342 343 344
l 344 345 346 347 348 349 350 351 352 353
l 353 354 355 356 357 358 359 360 361 362 363 364 328
l 365 366 367 368 369 370 371 372 373 374
l 374 375 376 377 378 379 380 381 382
l 382 383 384 385 386 387 388 389 390 391 392
l 392 393 394 395 396 397 398 399 365
l 344 460 400
l 400 507 382
l 382 476 308
l 308 503 266
l 266 401 402
l 402 403 404 405 283
l 283 488 291
l 291 487 365
l 365 490 406
l 406 467 328
l 336 464 407
l 407 451 374
l 374 408 300
l 300 497 274
l 274 409 402
l 402 410 411 412 257
l 257 413 319
l 319 455 392
l 392 501 414
l 414 479 353
l 406 415 416 417 418 419 420 421 422 407
l 407 423 424 425 426 427 428 429 400
l 400 430 431 432 433 434 435 436 437 414
l 414 438 439 440 441 442 443 444 406
