v 0.252548 0.237291 0.011023
v 0.252538 0.234500 0.035856
v 0.252529 0.231646 0.047492
v 0.252505 0.223127 0.068989
v 0.252471 0.210997 0.087832
v 0.252453 0.203630 0.096152
v 0.252410 0.186396 0.110372
v 0.252364 0.165969 0.121082
v 0.252339 0.154610 0.125014
v 0.252290 0.129705 0.129817
v 0.252240 0.102023 0.130253
v 0.252215 0.087193 0.128727
v 0.252168 0.055658 0.121971
v 0.252139 0.037470 0.115715
v 0.252087 0.011046 0.102739
v 0.252029 -0.013240 0.086213
v 0.251992 -0.027630 0.073645
v 0.251944 -0.045588 0.053096
v 0.251921 -0.054605 0.038635
v 0.251904 -0.062778 0.016433
v 0.251909 -0.064119 0.001659
v -0.279658 -0.211375 -0.003336
v -0.279698 -0.214671 0.021159
v -0.279816 -0.222141 0.046193
v -0.279995 -0.232459 0.071608
v -0.280598 -0.262034 0.135779
v -0.280981 -0.275758 0.173926
v -0.281210 -0.280474 0.198882
v -0.281310 -0.281006 0.211157
v -0.281472 -0.277592 0.235205
v -0.281528 -0.273315 0.246937
v -0.281345 -0.152262 0.253185
v -0.281275 -0.080065 0.258768
v -0.281153 -0.049052 0.259279
v -0.280301 0.023727 0.255438
v -0.279800 0.070425 0.249768
v -0.279567 0.108001 0.241664
v -0.279443 0.125434 0.236495
v -0.279189 0.157564 0.223813
v -0.278932 0.186005 0.207855
v -0.278804 0.198830 0.198592
v -0.278558 0.221656 0.177386
v -0.278330 0.240684 0.152459
v -0.278226 0.248759 0.138543
v -0.278041 0.262003 0.107696
v -0.277897 0.271336 0.072681
v -0.277842 0.274522 0.053554
v -0.277774 0.277903 0.011949
v -0.313483 -0.068659 0.001088
v -0.313474 -0.067241 0.019031
v -0.313387 -0.058318 0.045576
v -0.313294 -0.048420 0.062641
v -0.313124 -0.028650 0.086625
v -0.313003 -0.012768 0.101152
v -0.312833 0.014109 0.120089
v -0.312703 0.043454 0.134803
v -0.312654 0.063723 0.141825
v -0.312590 0.093198 0.146557
v -0.312496 0.120626 0.144228
v -0.312378 0.145770 0.135998
v -0.312248 0.168395 0.123029
v -0.312179 0.178688 0.115129
v -0.312044 0.197089 0.097228
v -0.311858 0.218781 0.067292
v -0.311719 0.232674 0.037141
v -0.311657 0.237969 0.010691
v 0.121025 -0.274469 0.240074
v 0.314383 -0.275516 0.238256
v 0.320264 0.281006 0.012337
v 0.320195 0.277637 0.060762
v 0.320074 0.270718 0.101603
v 0.319908 0.260109 0.135626
v 0.319810 0.253375 0.150319
v 0.319589 0.236964 0.175548
v 0.319339 0.216507 0.195870
v 0.319206 0.204717 0.204430
v 0.318925 0.177926 0.218826
v 0.318780 0.162889 0.224854
v 0.318483 0.129445 0.235045
v 0.318036 0.070586 0.247108
v 0.317689 0.025226 0.253327
v 0.317270 -0.021685 0.257265
v 0.316807 -0.068669 0.259186
v 0.316081 -0.136051 0.258859
v 0.315613 -0.176755 0.256887
v 0.314997 -0.227792 0.251957
v 0.314559 -0.262375 0.245450
v 0.314407 -0.273826 0.240675
v 0.314321 -0.275246 0.217843
v 0.314170 -0.268030 0.180786
v 0.313978 -0.255305 0.139131
v 0.313494 -0.217206 0.032335
v 0.313428 -0.211540 0.012256
v 0.313403 -0.209191 -0.003090
v -0.054984 -0.211375 -0.003336
v -0.013231 -0.210815 -0.003321
v 0.121654 -0.209814 -0.003224
v 0.122973 0.280522 0.012247
v -0.317700 0.277502 0.011914
v 0.122866 0.237812 0.010978
v 0.253176 0.010752 0.003986
v 0.122057 -0.064957 0.001533
v -0.320271 -0.142352 -0.001199
v -0.279869 -0.142951 -0.001153
v -0.218288 0.070402 0.249374
v -0.051658 0.070322 0.248533
v -0.007986 0.070692 0.248355
v 0.076724 0.070622 0.247875
v 0.122242 0.070868 0.247571
v 0.121046 -0.270853 0.244889
v 0.121103 -0.254789 0.250959
v 0.121270 -0.204486 0.257936
v 0.121533 -0.132647 0.260876
v 0.121898 -0.048356 0.259647
v 0.122072 0.012783 0.255324
v 0.122397 0.103598 0.239983
v 0.122465 0.119453 0.234744
v 0.122580 0.149870 0.221444
v 0.122674 0.178188 0.204471
v 0.122712 0.191423 0.194642
v 0.122779 0.215765 0.172367
v 0.122831 0.236901 0.146696
v 0.122853 0.246129 0.132621
v 0.122892 0.261625 0.102062
v 0.122925 0.272808 0.068380
v 0.122940 0.276642 0.050404
v 0.122852 0.234634 0.035481
v 0.122837 0.231338 0.046942
v 0.122796 0.221600 0.068098
v 0.122741 0.208022 0.086647
v 0.122710 0.199927 0.094850
v 0.122643 0.181392 0.108924
v 0.122573 0.160085 0.119639
v 0.122538 0.148526 0.123644
v 0.122470 0.123864 0.128759
v 0.122408 0.097500 0.129762
v 0.122381 0.083813 0.128630
v 0.122337 0.055695 0.122905
v 0.122305 0.035007 0.116056
v 0.122248 0.006634 0.103016
v 0.122185 -0.017951 0.087016
v 0.122146 -0.031905 0.074905
v 0.122094 -0.048682 0.054873
v 0.122069 -0.056807 0.040450
v 0.122052 -0.063907 0.017515
v 0.121636 -0.212216 0.016257
v 0.121542 -0.221451 0.051943
v 0.121066 -0.266909 0.188403
v 0.121008 -0.274024 0.222271
v -0.221925 0.062815 0.139871
v 0.017389 0.057002 0.125830
v -0.317761 0.272900 0.061446
v -0.317851 0.262874 0.103019
v -0.317965 0.248041 0.137079
v -0.318101 0.229018 0.164072
v -0.318254 0.206420 0.184445
v -0.318420 0.180864 0.198643
v -0.318597 0.152965 0.207112
v -0.318782 0.123343 0.210298
v -0.318969 0.092610 0.208647
v -0.319157 0.061385 0.202605
v -0.319341 0.030284 0.192618
v -0.319519 -0.000077 0.179132
v -0.319686 -0.029081 0.162593
v -0.319839 -0.056112 0.143448
v -0.319975 -0.080554 0.122141
v -0.320090 -0.101791 0.099119
v -0.320180 -0.119205 0.074828
v -0.320243 -0.132181 0.049714
v -0.320274 -0.140102 0.024224
v -0.277835 0.273317 0.061171
v -0.277920 0.263323 0.102398
v -0.278025 0.248536 0.136087
v -0.278147 0.229566 0.162695
v -0.278284 0.207026 0.182680
v -0.278432 0.181530 0.196498
v -0.278589 0.153688 0.204609
v -0.278750 0.124114 0.207470
v -0.278912 0.093421 0.205538
v -0.279072 0.062220 0.199271
v -0.279227 0.031124 0.189126
v -0.279374 0.000746 0.175562
v -0.279510 -0.028302 0.159036
v -0.279631 -0.055408 0.140005
v -0.279734 -0.079958 0.118926
v -0.279816 -0.101342 0.096259
v -0.279874 -0.118945 0.072459
v -0.279904 -0.132156 0.047986
v -0.279903 -0.140362 0.023296
v 0.076814 -0.048449 0.259741
v -0.009972 -0.048714 0.259753
v -0.052564 -0.048887 0.259793
v -0.218438 -0.048787 0.259893
v -0.054856 -0.211866 0.045872
v -0.054583 -0.209542 0.088810
v -0.054270 -0.203730 0.126226
v -0.054025 -0.193760 0.158868
v -0.053881 -0.183252 0.181281
v -0.053726 -0.171277 0.200422
v -0.053563 -0.158054 0.216492
v -0.053314 -0.136356 0.235276
v -0.053152 -0.120968 0.244543
v -0.052922 -0.097047 0.254061
v -0.052721 -0.072774 0.258919
v -0.052046 0.017960 0.255179
v -0.218969 -0.220550 0.242745
v -0.219660 -0.219678 0.239949
v -0.217487 -0.217273 0.232408
v -0.205985 -0.212464 0.217557
v -0.185628 -0.206940 0.200583
v -0.157579 -0.201516 0.183881
v -0.135181 -0.198361 0.174079
v -0.110226 -0.195855 0.166170
v -0.083060 -0.194241 0.160863
v -0.011999 -0.194042 0.159023
v 0.016004 -0.194567 0.159958
v 0.035669 -0.195573 0.162577
v 0.054254 -0.197385 0.167667
v 0.065501 -0.199227 0.172997
v 0.075048 -0.206125 0.193663
v 0.080486 -0.213590 0.216139
v 0.080459 -0.218961 0.232395
v 0.076333 -0.221709 0.240803
v 0.029238 -0.222054 0.242757
v -0.071711 -0.221858 0.244089
v -0.172463 -0.221297 0.244262
v -0.012997 -0.211354 0.054094
v -0.012610 -0.208814 0.095768
v -0.012215 -0.202493 0.132587
v -0.011844 -0.183902 0.180856
v -0.011651 -0.172407 0.199662
v -0.011430 -0.159698 0.215594
v -0.011069 -0.138671 0.234446
v -0.010824 -0.123552 0.243877
v -0.010475 -0.099575 0.253707
v -0.010178 -0.074469 0.258824
v -0.008964 0.012393 0.255634
v -0.218893 -0.177513 0.253926
v -0.218809 -0.140899 0.259701
v -0.218682 -0.100994 0.261649
v -0.218399 0.016566 0.256334
v 0.076777 0.011548 0.255691
v 0.076659 -0.098654 0.260417
v 0.076602 -0.141400 0.257844
v 0.076505 -0.185379 0.250761
v 0.252579 0.236001 -0.013917
v 0.252588 0.233853 -0.025683
v 0.252599 0.226643 -0.047594
v 0.252597 0.215667 -0.067055
v 0.252592 0.208814 -0.075760
v 0.252574 0.192466 -0.090900
v 0.252545 0.172718 -0.102729
v 0.252528 0.161616 -0.107294
v 0.252487 0.137043 -0.113510
v 0.252440 0.109435 -0.115554
v 0.252413 0.094539 -0.114904
v 0.252357 0.062655 -0.110043
v 0.252319 0.044124 -0.104926
v 0.252246 0.016971 -0.093718
v 0.252164 -0.008261 -0.078915
v 0.252107 -0.023376 -0.067410
v 0.252027 -0.042532 -0.048237
v 0.251980 -0.052401 -0.034493
v 0.251928 -0.061891 -0.012974
v -0.279658 -0.213191 -0.027944
v -0.279735 -0.219141 -0.053274
v -0.279872 -0.227914 -0.079107
v -0.280370 -0.253584 -0.144436
v -0.280690 -0.264993 -0.183045
v -0.280878 -0.268201 -0.208080
v -0.280959 -0.267995 -0.220304
v -0.281080 -0.263140 -0.244026
v -0.281119 -0.258164 -0.255470
v -0.277775 0.277034 -0.029774
v -0.277798 0.275007 -0.049046
v -0.277885 0.267799 -0.084526
v -0.278019 0.256437 -0.116070
v -0.278100 0.249214 -0.130421
v -0.278287 0.231722 -0.156398
v -0.278498 0.210213 -0.178887
v -0.278609 0.197969 -0.188880
v -0.278840 0.170539 -0.206478
v -0.279072 0.139231 -0.221039
v -0.279186 0.122141 -0.227237
v -0.279404 0.085121 -0.237581
v -0.279894 0.038850 -0.246055
v -0.280736 -0.033565 -0.254276
v -0.280857 -0.064553 -0.255635
v -0.280933 -0.136954 -0.254413
v -0.313445 -0.066163 -0.016706
v -0.313316 -0.055661 -0.042522
v -0.313196 -0.044758 -0.058817
v -0.312988 -0.023585 -0.081321
v -0.312844 -0.006862 -0.094699
v -0.312644 0.021100 -0.111760
v -0.312492 0.051274 -0.124535
v -0.312433 0.071929 -0.130291
v -0.312363 0.101635 -0.133250
v -0.312274 0.128874 -0.129304
v -0.312171 0.153479 -0.119620
v -0.312062 0.175282 -0.105368
v -0.312008 0.185082 -0.096893
v -0.311902 0.202372 -0.077976
v -0.311765 0.222224 -0.046874
v -0.311676 0.234277 -0.016004
v 0.121421 -0.259749 -0.248034
v 0.314777 -0.260915 -0.245971
v 0.320274 0.280560 -0.036183
v 0.320219 0.276114 -0.077310
v 0.320109 0.267570 -0.111827
v 0.320036 0.261734 -0.126851
v 0.319856 0.246868 -0.152916
v 0.319640 0.227670 -0.174323
v 0.319521 0.216416 -0.183523
v 0.319265 0.190538 -0.199407
v 0.319130 0.175890 -0.206285
v 0.318852 0.143119 -0.218403
v 0.318427 0.085093 -0.233945
v 0.318091 0.040190 -0.242887
v 0.317683 -0.006399 -0.249646
v 0.317225 -0.053182 -0.254394
v 0.316500 -0.120460 -0.258128
v 0.316031 -0.161209 -0.258613
v 0.315409 -0.212451 -0.256768
v 0.314963 -0.247363 -0.252359
v 0.314804 -0.259081 -0.248283
v 0.314681 -0.261873 -0.225635
v 0.314469 -0.256894 -0.188469
v 0.314210 -0.246691 -0.146519
v 0.313552 -0.215063 -0.038722
v 0.313454 -0.210613 -0.018494
v 0.122633 0.085411 -0.234707
v 0.077117 0.085186 -0.235100
v -0.007593 0.085290 -0.235713
v -0.051264 0.084933 -0.235984
v -0.217893 0.085072 -0.237089
v 0.121449 -0.255850 -0.252623
v 0.121515 -0.239448 -0.257714
v 0.121693 -0.188819 -0.261649
v 0.121957 -0.116933 -0.260254
v 0.122315 -0.032869 -0.253948
v 0.122480 0.027899 -0.245948
v 0.122775 0.117625 -0.225179
v 0.122834 0.133137 -0.219013
v 0.122926 0.162697 -0.203958
v 0.122990 0.189944 -0.185381
v 0.123013 0.202563 -0.174813
v 0.123042 0.225522 -0.151197
v 0.123052 0.245076 -0.124384
v 0.123050 0.253439 -0.109819
v 0.123038 0.267069 -0.078454
v 0.123016 0.276203 -0.044215
v 0.123003 0.278948 -0.026058
v 0.122892 0.236116 -0.013656
v 0.122896 0.233516 -0.025278
v 0.122889 0.225068 -0.046931
v 0.122865 0.212631 -0.066197
v 0.122848 0.205044 -0.074834
v 0.122805 0.187388 -0.089921
v 0.122753 0.166763 -0.101822
v 0.122725 0.155466 -0.106478
v 0.122666 0.131155 -0.113002
v 0.122608 0.104897 -0.115542
v 0.122579 0.091166 -0.115218
v 0.122527 0.062754 -0.111183
v 0.122485 0.041692 -0.105626
v 0.122408 0.012590 -0.094469
v 0.122321 -0.012909 -0.080207
v 0.122262 -0.027562 -0.069131
v 0.122179 -0.045508 -0.050401
v 0.122132 -0.054483 -0.036641
v 0.122078 -0.062947 -0.014324
v 0.121668 -0.211039 -0.022760
v 0.121632 -0.218115 -0.058688
v 0.121378 -0.255308 -0.196306
v 0.121376 -0.260377 -0.230293
v -0.221707 0.070900 -0.128248
v 0.017584 0.064240 -0.114194
v -0.317681 0.275893 -0.037812
v -0.317703 0.268391 -0.079932
v -0.317761 0.255639 -0.114853
v -0.317851 0.238277 -0.142983
v -0.317970 0.216949 -0.164727
v -0.318112 0.192297 -0.180493
v -0.318274 0.164961 -0.190687
v -0.318452 0.135586 -0.195716
v -0.318641 0.104812 -0.195986
v -0.318836 0.073282 -0.191904
v -0.319036 0.041638 -0.183877
v -0.319233 0.010522 -0.172311
v -0.319426 -0.019425 -0.157613
v -0.319608 -0.047559 -0.140191
v -0.319778 -0.073239 -0.120449
v -0.319929 -0.095823 -0.098796
v -0.320058 -0.114668 -0.075638
v -0.320160 -0.129133 -0.051381
v -0.320233 -0.138575 -0.026433
v -0.277755 0.276291 -0.037467
v -0.277772 0.268801 -0.079238
v -0.277822 0.256070 -0.113783
v -0.277900 0.238740 -0.141521
v -0.278004 0.217446 -0.162870
v -0.278128 0.192830 -0.178250
v -0.278270 0.165530 -0.188078
v -0.278424 0.136184 -0.192773
v -0.278588 0.105432 -0.192754
v -0.278757 0.073912 -0.188440
v -0.278927 0.042263 -0.180249
v -0.279095 0.011125 -0.168600
v -0.279256 -0.018865 -0.153911
v -0.279406 -0.047066 -0.136602
v -0.279543 -0.072841 -0.117090
v -0.279660 -0.095550 -0.095796
v -0.279756 -0.114554 -0.073135
v -0.279825 -0.129215 -0.049529
v -0.279864 -0.138893 -0.025395
v -0.218020 -0.033267 -0.254771
v -0.052146 -0.033382 -0.254408
v -0.009554 -0.033213 -0.254289
v 0.077231 -0.032954 -0.254120
v -0.054777 -0.208909 -0.052204
v -0.054434 -0.204020 -0.094310
v -0.054061 -0.195983 -0.130695
v -0.053764 -0.184072 -0.162399
v -0.053584 -0.172233 -0.184137
v -0.053398 -0.159126 -0.202521
v -0.053210 -0.144958 -0.217765
v -0.052932 -0.122169 -0.235207
v -0.052755 -0.106250 -0.243530
v -0.052511 -0.081799 -0.251589
v -0.052304 -0.057278 -0.254975
v -0.051639 0.033066 -0.245773
v -0.218570 -0.205752 -0.248005
v -0.219266 -0.205050 -0.245163
v -0.217105 -0.203103 -0.237487
v -0.205628 -0.199198 -0.222354
v -0.185299 -0.194708 -0.205045
v -0.157277 -0.190302 -0.188001
v -0.134895 -0.187744 -0.177990
v -0.109954 -0.185720 -0.169904
v -0.082795 -0.184430 -0.164466
v -0.011738 -0.184346 -0.162502
v 0.016267 -0.184816 -0.163421
v 0.035936 -0.185663 -0.166064
v 0.054530 -0.187166 -0.171225
v 0.065785 -0.188683 -0.176637
v 0.075366 -0.194324 -0.197665
v 0.080840 -0.200421 -0.220541
v 0.080840 -0.204803 -0.237092
v 0.076729 -0.207041 -0.245658
v 0.029637 -0.207264 -0.247705
v -0.071310 -0.206983 -0.249185
v -0.172062 -0.206408 -0.249488
v -0.008555 0.027535 -0.246493
v -0.009762 -0.058978 -0.254913
v -0.010064 -0.084346 -0.251319
v -0.010428 -0.108871 -0.242952
v -0.010688 -0.124532 -0.234450
v -0.011079 -0.146656 -0.216900
v -0.011325 -0.160302 -0.201762
v -0.011548 -0.172909 -0.183684
v -0.011996 -0.194368 -0.136816
v -0.012450 -0.202879 -0.101042
v -0.012904 -0.207905 -0.060264
v -0.218478 -0.162118 -0.256572
v -0.218387 -0.125223 -0.260131
v -0.218259 -0.085274 -0.259670
v -0.217989 0.031752 -0.247281
v 0.077185 0.026690 -0.246462
v 0.077080 -0.083026 -0.257820
v 0.077022 -0.125849 -0.257827
v 0.076915 -0.170176 -0.253407
v -0.032751 -0.184209 -0.162450
v -0.248648 0.085096 -0.237335
v 0.121856 -0.137386 -0.000846
v -0.314678 0.257735 0.011302
v 0.187442 0.062704 -0.110613
v -0.029429 0.085111 -0.235849
v 0.221618 0.280764 0.012292
v -0.135501 -0.048837 0.259843
v 0.054211 -0.210315 -0.003272
v -0.135083 -0.033324 -0.254589
v -0.134973 0.070362 0.248953
v 0.122919 0.259167 0.011613
v -0.297737 0.277702 0.011931
v 0.220530 0.085252 -0.234326
v -0.134579 0.085003 -0.236536
v -0.030850 -0.033297 -0.254349
v -0.079849 -0.258957 -0.251752
v -0.029822 0.070507 0.248444
v 0.187707 0.237551 0.011000
v 0.316834 0.035908 0.004623
v 0.187252 0.055676 0.122438
v -0.249378 -0.033416 -0.254524
v 0.220139 0.070727 0.247339
v -0.167321 -0.211375 -0.003336
v -0.080251 -0.273892 0.243506
v -0.316877 -0.105506 -0.000056
v -0.280401 -0.139953 -0.127783
v 0.186983 -0.064538 0.001596
v 0.033838 -0.033083 -0.254204
v 0.099875 0.085299 -0.234904
v 0.034369 0.070657 0.248115
v -0.279763 -0.177163 -0.002244
v 0.033421 -0.048582 0.259747
v -0.077401 0.279213 0.012098
v 0.099356 -0.048402 0.259694
v -0.300070 -0.142652 -0.001176
v -0.281436 -0.212788 0.250061
v -0.033012 -0.193901 0.158945
v 0.034762 0.085238 -0.235407
v 0.099483 0.070745 0.247723
v -0.094395 0.237890 0.010835
v -0.249044 0.070413 0.249571
v -0.095713 -0.066808 0.001310
v -0.031268 -0.048801 0.259773
v -0.280607 -0.147606 0.126016
v 0.217704 -0.274993 0.239165
v -0.249796 -0.048919 0.259586
v -0.281026 -0.197559 -0.254941
v 0.217529 -0.209503 -0.003157
v -0.034108 -0.211095 -0.003328
v 0.099773 -0.032911 -0.254034
v 0.218099 -0.260332 -0.247003
l 1 2 3 4 5 6 7 8 9 10 11 12 13
l 13 14 15 16 17 18 19 20 21
l 22 23 24 25 26 27 28 29 30 31
l 31 509 32
l 32 33 34
l 34 35 36
l 36 37 38 39 40 41 42 43 44 45 46 47 48
l 49 50 51 52 53 54 55 56 57
l 57 58 59 60 61 62 63 64 65 66
l 31 497 67
l 67 518 68
l 69 70 71 72 73 74 75 76 77 78 79 80
l 80 81 82 83 84 85 86 87 88 68
l 68 89 90 91 92 93 94
l 22 496 95
l 95 522 96
l 96 481 97
l 97 521 94
l 94 492 69
l 69 479 98
l 98 506 48
l 48 485 99
l 99 476 66
l 66 513 100
l 100 491 1
l 1 101 21
l 21 500 102
l 102 515 49
l 49 498 103
l 103 508 104
l 104 504 22
l 36 514 105
l 105 483 106
l 106 490 107
l 107 503 108
l 108 512 109
l 109 495 80
l 67 110 111 112 113 114
l 114 115 109
l 109 116 117 118 119 120 121 122 123 124 125 126 98
l 98 484 100
l 100 127 128 129 130 131 132 133 134 135 136 137 138
l 138 139 140 141 142 143 144 145 102
l 102 475 97
l 97 146 147 148 149 67
l 57 150 151 138
l 138 493 13
l 99 152 153 154 155 156 157 158 159 160 161 162 163 164 165 166 167 168 169 170 103
l 48 171 172 173 174 175 176 177 178 179 180 181 182 183 184 185 186 187 188 189 104
l 104 517 32
l 114 507 190
l 190 505 191
l 191 516 192
l 192 480 193
l 193 519 34
l 95 194 195 196 197
l 197 198 199 200 201 202 203 204 192
l 192 205 106
l 206 207 208 209 210 211 212 213 214 197
l 197 510 215
l 215 216 217 218 219 220 221 222 223
l 223 224 225 226 206
l 96 227 228 229 215
l 215 230 231 232 233 234 235 236 191
l 191 237 107
l 206 238 239 240 193
l 193 241 105
l 108 242 190
l 190 243 244 245 223
l 1 246 247 248 249 250 251 252 253 254 255 256 257
l 257 258 259 260 261 262 263 264 21
l 22 265 266 267 268 269 270 271 272 273
l 48 274 275 276 277 278 279 280 281 282 283 284 285
l 285 286 287
l 287 288 289
l 289 520 273
l 49 290 291 292 293 294 295 296 297
l 297 298 299 300 301 302 303 304 305 66
l 273 489 306
l 306 524 307
l 69 308 309 310 311 312 313 314 315 316 317 318
l 318 319 320 321 322 323 324 325 326 307
l 307 327 328 329 330 331 94
l 318 486 332
l 332 502 333
l 333 511 334
l 334 478 335
l 335 487 336
l 336 474 285
l 306 337 338 339 340 341
l 341 342 332
l 332 343 344 345 346 347 348 349 350 351 352 353 98
l 100 354 355 356 357 358 359 360 361 362 363 364 365
l 365 366 367 368 369 370 371 372 102
l 97 373 374 375 376 306
l 297 377 378 365
l 365 477 257
l 99 379 380 381 382 383 384 385 386 387 388 389 390 391 392 393 394 395 396 397 103
l 48 398 399 400 401 402 403 404 405 406 407 408 409 410 411 412 413 414 415 416 104
l 289 499 104
l 287 494 417
l 417 482 418
l 418 488 419
l 419 501 420
l 420 523 341
l 95 421 422 423 424
l 424 425 426 427 428 429 430 431 418
l 418 432 335
l 433 434 435 436 437 438 439 440 441 424
l 424 473 442
l 442 443 444 445 446 447 448 449 450
l 450 451 452 453 433
l 334 454 419
l 419 455 456 457 458 459 460 461 442
l 442 462 463 464 96
l 433 465 466 467 417
l 417 468 336
l 333 469 420
l 420 470 471 472 450
