v -0.041751 0.024607 -0.000006
v -0.075200 0.024872 0.000020
v -0.100964 0.023183 0.000033
v -0.124295 0.018452 0.000039
v -0.133643 0.014875 0.000038
v -0.141906 0.010032 0.000034
v -0.196662 0.013997 0.000062
v -0.242495 0.015263 0.000079
v -0.274102 0.013194 0.000087
v -0.288738 0.009777 0.000090
v -0.297739 0.006215 0.000090
v -0.309749 -0.001498 0.000087
v -0.316555 -0.008474 0.000082
v -0.322234 -0.017125 0.000075
v -0.326645 -0.027625 0.000064
v -0.329978 -0.042724 0.000048
v -0.329339 -0.054454 0.000036
v -0.325264 -0.063233 0.000029
v -0.318290 -0.069480 0.000025
v -0.308952 -0.073612 0.000023
v -0.291682 -0.076763 0.000024
v -0.245546 -0.077216 0.000029
v -0.175051 -0.075649 0.000031
v -0.103387 -0.071796 0.000037
v 0.114933 -0.054477 0.000068
v 0.185383 -0.048645 0.000079
v 0.229958 -0.043463 0.000069
v 0.268409 -0.035690 0.000068
v 0.294497 -0.026639 0.000073
v 0.304003 -0.021080 0.000077
v 0.310191 -0.014788 0.000082
v 0.316487 -0.002965 0.000092
v 0.322578 0.012426 0.000104
v 0.327422 0.029497 0.000115
v 0.329978 0.046359 0.000125
v 0.329896 0.056553 0.000130
v 0.328025 0.065257 0.000134
v 0.324057 0.071910 0.000135
v 0.317683 0.075954 0.000134
v 0.311401 0.077216 0.000130
v 0.297840 0.075620 0.000115
v 0.290670 0.073056 0.000105
v 0.275827 0.065138 0.000078
v 0.253128 0.048498 0.000030
v 0.205814 0.008144 -0.000077
v 0.195726 0.001543 -0.000096
v 0.187966 -0.000700 -0.000105
v 0.119639 0.002217 -0.000113
v 0.034587 0.006023 -0.000097
v 0.026892 0.011836 -0.000081
v 0.008796 0.017821 -0.000058
v -0.014261 0.022109 -0.000033
v -0.100975 0.022397 0.006506
v -0.101033 0.019542 0.012574
v -0.101146 0.015112 0.016410
v -0.101358 0.008483 0.018085
v -0.041756 0.023172 0.010573
v -0.041811 0.019265 0.018464
v -0.041940 0.013407 0.023420
v -0.042166 0.006123 0.025192
v -0.124984 0.009332 0.009050
v -0.074865 0.007486 0.023829
v -0.024379 0.005580 0.024457
v -0.007596 0.005253 0.022232
v 0.007185 0.005142 0.018432
v 0.018964 0.005247 0.012971
v 0.031594 0.005818 0.005971
v 0.033976 0.005971 0.002887
v -0.326193 -0.027640 0.007125
v -0.322809 -0.027711 0.018915
v -0.316632 -0.027823 0.027905
v -0.308281 -0.027963 0.034469
v -0.298371 -0.028120 0.038978
v -0.281935 -0.028356 0.042706
v -0.265462 -0.028557 0.043910
v -0.243580 -0.028695 0.043725
v -0.240546 -0.028546 0.142976
v -0.236281 -0.028428 0.169582
v -0.228177 -0.028299 0.204019
v -0.216747 -0.028178 0.244714
v -0.207667 -0.028121 0.272585
v -0.197695 -0.028096 0.299136
v -0.187062 -0.028114 0.322725
v -0.176003 -0.028187 0.341710
v -0.164751 -0.028325 0.354452
v -0.151497 -0.028572 0.363179
v -0.139279 -0.028881 0.367436
v -0.128059 -0.029242 0.367630
v -0.117798 -0.029648 0.364168
v -0.108456 -0.030092 0.357456
v -0.099998 -0.030566 0.347901
v -0.092382 -0.031062 0.335909
v -0.079526 -0.032088 0.306242
v -0.074208 -0.032604 0.289380
v -0.065601 -0.033599 0.253631
v -0.057182 -0.034889 0.201048
v -0.054114 -0.035522 0.171429
v -0.052557 -0.035976 0.143288
v -0.051723 -0.036158 0.116217
v -0.048498 -0.036280 0.092054
v -0.041689 -0.036257 0.071313
v -0.034566 -0.036120 0.059640
v -0.024963 -0.035857 0.049869
v -0.019122 -0.035671 0.045744
v -0.005136 -0.035173 0.039111
v 0.012215 -0.034487 0.034761
v 0.033285 -0.033588 0.032845
v 0.117087 -0.028920 0.030707
v 0.186270 -0.024038 0.029527
v 0.234955 -0.020855 0.027212
v 0.275454 -0.018188 0.021281
v 0.289222 -0.017176 0.017505
v 0.300215 -0.016248 0.012780
v 0.307513 -0.015440 0.007005
v -0.245504 -0.076371 0.007941
v -0.245390 -0.073980 0.015348
v -0.245218 -0.070291 0.022143
v -0.244881 -0.062856 0.030958
v -0.244493 -0.053879 0.037804
v -0.244103 -0.044187 0.042325
v -0.243760 -0.034609 0.044164
v -0.243139 -0.012117 0.038172
v -0.242968 -0.005413 0.034315
v -0.242769 0.002762 0.027570
v -0.242566 0.011670 0.014919
v -0.242511 0.014381 0.007245
v 0.119345 0.001407 0.006714
v 0.119039 -0.000827 0.013067
v 0.118591 -0.007041 0.022042
v 0.118035 -0.014786 0.028862
v 0.117506 -0.022502 0.031612
v 0.116439 -0.037815 0.025619
v 0.115734 -0.046057 0.017906
v 0.115166 -0.052120 0.008934
v -0.072379 -0.039817 0.143276
v -0.099799 -0.043071 0.143260
v -0.128792 -0.044802 0.143235
v -0.163606 -0.045161 0.143183
v -0.203924 -0.043248 0.143104
v -0.229620 -0.039636 0.143046
v -0.239294 -0.036593 0.143017
v -0.242665 -0.034201 0.143001
v -0.243192 -0.031518 0.142987
v -0.230061 -0.023805 0.142966
v -0.215340 -0.020509 0.142970
v -0.193822 -0.017973 0.142987
v -0.164405 -0.016352 0.143021
v -0.138732 -0.016757 0.143060
v -0.107425 -0.020429 0.143123
v -0.079166 -0.026642 0.143196
v -0.163723 -0.017179 0.028234
v -0.164528 -0.017018 0.230682
v -0.164642 -0.019535 0.305962
v -0.164717 -0.023641 0.347159
v -0.164743 -0.026593 0.354865
v -0.164733 -0.031089 0.348760
v -0.164613 -0.034875 0.331341
v -0.164262 -0.040063 0.282981
v -0.163870 -0.043591 0.217540
v -0.162478 -0.045873 0.054142
v -0.018494 -0.039159 0.041711
v -0.069250 -0.043171 0.048443
v -0.117680 -0.045463 0.052701
v -0.198870 -0.042650 0.053908
v -0.227006 -0.037965 0.051958
v -0.235699 -0.035608 0.050393
v -0.241652 -0.033007 0.048244
v -0.244013 -0.030184 0.045419
v -0.241146 -0.026852 0.041451
v -0.236642 -0.025155 0.039203
v -0.218384 -0.021571 0.034032
v -0.188885 -0.018561 0.029572
v -0.126386 -0.017224 0.028607
v -0.087274 -0.019545 0.029482
v -0.037019 -0.024645 0.030934
v 0.310901 -0.014735 0.006924
v 0.312921 -0.014744 0.012704
v 0.310016 -0.014875 0.028890
v 0.302430 -0.014920 0.044795
v 0.292066 -0.014706 0.056853
v 0.285307 -0.014383 0.060756
v 0.280829 -0.014063 0.061494
v 0.265217 -0.012638 0.056199
v 0.237965 -0.009969 0.040533
v 0.217104 -0.007801 0.024664
v 0.207114 -0.006628 0.013161
v 0.316956 0.074228 0.002595
v 0.314957 0.069484 0.005041
v 0.308225 0.053503 0.009695
v 0.297466 0.027958 0.014562
v 0.285591 -0.000263 0.018232
v 0.282294 -0.009207 0.052916
v 0.281214 -0.012426 0.061660
v 0.280909 -0.013506 0.062972
v 0.279040 -0.017732 0.012798
v 0.310203 -0.009413 0.015419
v 0.304422 -0.005090 0.017202
v 0.296058 -0.001974 0.018117
v 0.262651 0.000895 0.017313
v 0.242223 0.000334 0.016038
v 0.222084 -0.002394 0.014486
v 0.206882 -0.006081 0.013163
v 0.187508 -0.004817 0.013169
v 0.187209 -0.008743 0.019818
v 0.186861 -0.013371 0.025004
v 0.186556 -0.018196 0.028160
v 0.185919 -0.033000 0.027051
v 0.185639 -0.040893 0.020196
v 0.185454 -0.046510 0.010643
v 0.258791 -0.017932 0.012883
v 0.239496 -0.016093 0.012977
v 0.221992 -0.012299 0.013072
v -0.101359 0.008480 -0.018092
v -0.101146 0.015109 -0.016401
v -0.101033 0.019539 -0.012540
v -0.100975 0.022396 -0.006447
v -0.041757 0.023170 -0.010583
v -0.041812 0.019262 -0.018474
v -0.041940 0.013403 -0.023429
v -0.042166 0.006118 -0.025199
v -0.124984 0.009330 -0.009030
v -0.074865 0.007482 -0.023836
v -0.024380 0.005576 -0.024465
v -0.007596 0.005249 -0.022240
v 0.007185 0.005139 -0.018440
v 0.018964 0.005244 -0.012980
v 0.031594 0.005817 -0.006113
v 0.033976 0.005971 -0.003070
v 0.307512 -0.015441 -0.006846
v 0.300215 -0.016250 -0.012633
v 0.289221 -0.017179 -0.017378
v 0.275454 -0.018192 -0.021177
v 0.234955 -0.020860 -0.027171
v 0.186269 -0.024043 -0.029533
v 0.117087 -0.028926 -0.030711
v 0.033285 -0.033594 -0.032847
v 0.012214 -0.034493 -0.034762
v -0.005137 -0.035180 -0.039112
v -0.019123 -0.035679 -0.045744
v -0.024964 -0.035866 -0.049869
v -0.034567 -0.036131 -0.059640
v -0.041690 -0.036269 -0.071313
v -0.048500 -0.036296 -0.092054
v -0.051725 -0.036179 -0.116217
v -0.052559 -0.036002 -0.143288
v -0.054118 -0.035552 -0.171429
v -0.057186 -0.034924 -0.201048
v -0.065606 -0.033644 -0.253631
v -0.074213 -0.032655 -0.289380
v -0.079531 -0.032143 -0.306242
v -0.092388 -0.031121 -0.335909
v -0.100004 -0.030628 -0.347901
v -0.108462 -0.030155 -0.357455
v -0.117804 -0.029712 -0.364167
v -0.128066 -0.029307 -0.367630
v -0.139287 -0.028946 -0.367437
v -0.151504 -0.028637 -0.363178
v -0.164759 -0.028388 -0.354452
v -0.176009 -0.028247 -0.341710
v -0.187067 -0.028171 -0.322723
v -0.197701 -0.028150 -0.299136
v -0.207673 -0.028170 -0.272584
v -0.216751 -0.028222 -0.244712
v -0.228181 -0.028335 -0.204017
v -0.236285 -0.028458 -0.169580
v -0.240549 -0.028571 -0.142973
v -0.243581 -0.028703 -0.043722
v -0.265462 -0.028565 -0.043888
v -0.281935 -0.028364 -0.042660
v -0.298372 -0.028127 -0.038903
v -0.308282 -0.027969 -0.034376
v -0.316633 -0.027828 -0.027797
v -0.322809 -0.027714 -0.018795
v -0.326193 -0.027641 -0.006998
v -0.245504 -0.076372 -0.007885
v -0.245391 -0.073983 -0.015296
v -0.245218 -0.070294 -0.022097
v -0.244882 -0.062862 -0.030923
v -0.244494 -0.053886 -0.037781
v -0.244104 -0.044195 -0.042313
v -0.243761 -0.034617 -0.044159
v -0.243140 -0.012124 -0.038155
v -0.242969 -0.005419 -0.034282
v -0.242769 0.002757 -0.027504
v -0.242567 0.011668 -0.014796
v -0.242511 0.014380 -0.007097
v 0.115166 -0.052122 -0.008820
v 0.115733 -0.046060 -0.017840
v 0.116439 -0.037820 -0.025601
v 0.117505 -0.022508 -0.031618
v 0.118034 -0.014791 -0.028869
v 0.118590 -0.007045 -0.022051
v 0.119039 -0.000829 -0.013076
v 0.119345 0.001406 -0.006815
v -0.072382 -0.039842 -0.143275
v -0.099801 -0.043097 -0.143258
v -0.128794 -0.044827 -0.143231
v -0.163609 -0.045186 -0.143180
v -0.203926 -0.043273 -0.143100
v -0.229623 -0.039662 -0.143042
v -0.239296 -0.036619 -0.143013
v -0.242668 -0.034226 -0.142997
v -0.243195 -0.031544 -0.142984
v -0.230064 -0.023830 -0.142965
v -0.215342 -0.020534 -0.142969
v -0.193825 -0.017998 -0.142987
v -0.164407 -0.016378 -0.143022
v -0.138734 -0.016782 -0.143062
v -0.107428 -0.020455 -0.143125
v -0.079169 -0.026667 -0.143197
v -0.162479 -0.045883 -0.054138
v -0.163874 -0.043629 -0.217536
v -0.164268 -0.040113 -0.282979
v -0.164620 -0.034934 -0.331339
v -0.164740 -0.031151 -0.348759
v -0.164751 -0.026656 -0.354865
v -0.164724 -0.023703 -0.347159
v -0.164648 -0.019589 -0.305963
v -0.164533 -0.017059 -0.230683
v -0.163724 -0.017183 -0.028235
v -0.018495 -0.039166 -0.041711
v -0.069251 -0.043179 -0.048441
v -0.117681 -0.045472 -0.052698
v -0.198871 -0.042660 -0.053904
v -0.227007 -0.037974 -0.051955
v -0.235700 -0.035617 -0.050390
v -0.241653 -0.033016 -0.048241
v -0.244013 -0.030192 -0.045416
v -0.241146 -0.026859 -0.041448
v -0.236642 -0.025162 -0.039201
v -0.218385 -0.021577 -0.034032
v -0.188885 -0.018566 -0.029573
v -0.126387 -0.017229 -0.028608
v -0.087274 -0.019551 -0.029484
v -0.037020 -0.024650 -0.030937
v 0.310901 -0.014736 -0.006798
v 0.312921 -0.014746 -0.012714
v 0.310015 -0.014881 -0.028900
v 0.302429 -0.014928 -0.044806
v 0.292065 -0.014716 -0.056863
v 0.285306 -0.014393 -0.060766
v 0.280828 -0.014074 -0.061504
v 0.265216 -0.012648 -0.056209
v 0.237965 -0.009977 -0.040543
v 0.217104 -0.007806 -0.024674
v 0.207114 -0.006630 -0.013172
v 0.316955 0.074228 -0.002335
v 0.314956 0.069483 -0.004802
v 0.308224 0.053501 -0.009527
v 0.297466 0.027955 -0.014497
v 0.285590 -0.000266 -0.018245
v 0.282293 -0.009216 -0.052927
v 0.281213 -0.012436 -0.061671
v 0.280908 -0.013517 -0.062983
v 0.279040 -0.017734 -0.012808
v 0.310203 -0.009415 -0.015431
v 0.304422 -0.005093 -0.017214
v 0.296058 -0.001977 -0.018130
v 0.262651 0.000892 -0.017325
v 0.242223 0.000331 -0.016050
v 0.222084 -0.002397 -0.014497
v 0.206898 -0.006106 -0.013173
v 0.206882 -0.006083 -0.013173
v 0.187507 -0.004819 -0.013179
v 0.187209 -0.008747 -0.019827
v 0.186860 -0.013376 -0.025013
v 0.186556 -0.018201 -0.028168
v 0.185918 -0.033004 -0.027031
v 0.185639 -0.040896 -0.020119
v 0.185453 -0.046512 -0.010511
v 0.221992 -0.012301 -0.013081
v 0.239496 -0.016096 -0.012986
v 0.258791 -0.017934 -0.012892
v 0.295981 -0.016240 -0.012761
v -0.164066 -0.016781 -0.085628
v 0.153273 -0.002824 -0.013128
v 0.151678 -0.026485 -0.030122
v -0.242065 -0.028637 -0.093348
v -0.163044 -0.045534 -0.098659
v 0.295981 -0.016238 0.012751
v -0.164064 -0.016765 0.085627
v 0.197311 -0.005722 0.013165
v 0.153802 0.000759 -0.000109
v -0.163042 -0.045517 0.098663
v 0.075186 -0.031260 -0.031779
v 0.069002 0.002210 0.013019
v 0.075186 -0.031254 0.031776
v 0.150158 -0.051561 0.000073
v 0.197203 -0.005463 -0.013176
v 0.077113 0.004120 -0.000105
v 0.187737 -0.002758 0.006532
v 0.151679 -0.026479 0.030117
v 0.207006 -0.006368 -0.013172
v 0.279934 -0.015904 -0.037156
v 0.279935 -0.015898 0.037146
v 0.153273 -0.002822 0.013118
v 0.069001 0.002208 -0.013028
v -0.242063 -0.028621 0.093350
v 0.187737 -0.002759 -0.006642
l 1 2 3
l 3 4 5 6
l 6 7 8
l 8 9 10 11 12 13 14 15
l 15 16 17 18 19 20 21 22
l 22 23 24 25
l 25 388 26
l 26 27 28 29 30 31
l 31 32 33 34 35 36 37 38 39
l 39 40 41 42 43 44 45 46 47
l 47 383 48
l 48 390 49
l 49 50 51 52 1
l 3 53 54 55 56
l 1 57 58 59 60
l 6 61 56
l 56 62 60
l 60 63 64 65 66
l 66 67 68 49
l 15 69 70 71 72 73 74 75 76
l 76 398 77
l 77 78 79 80 81 82 83 84 85
l 85 86 87 88 89 90 91 92 93 94 95 96 97 98
l 98 99 100 101 102 103 104 105 106 107
l 107 387 108
l 108 392 109
l 109 110 111 112 113 114 31
l 22 115 116 117 118 119 120 121 76
l 76 122 123 124 125 126 8
l 48 127 128
l 128 129 130 131 108
l 108 132 133 134 25
l 98 135 136 137 138
l 138 139 140 141 142 143 77
l 77 144 145 146 147
l 147 148 149 150 98
l 151 381 147
l 147 152 153 154 155 85
l 85 156 157 158 159 138
l 138 384 160
l 107 161 162 163 160
l 160 164 165 166 167 168 76
l 76 169 170 171 172 151
l 151 173 174 175 107
l 31 176 177
l 177 178 179 180 181 182
l 182 183 184 185 186
l 39 187 188 189 190 191
l 191 192 193 194 182
l 182 395 195
l 177 196 197 198 191
l 191 199 200 201 186
l 186 202
l 47 391 203
l 203 204 205 206 109
l 109 207 208 209 26
l 177 380 195
l 195 210 211 212 186
l 66 386 128
l 128 396 203
l 203 382 186
l 213 214 215 216 3
l 1 217 218 219 220
l 6 221 213
l 213 222 220
l 220 223 224 225 226
l 226 227 228 49
l 31 229 230 231 232 233 234
l 234 377 235
l 235 385 236
l 236 237 238 239 240 241 242 243 244 245
l 245 246 247 248 249 250 251 252 253 254 255 256 257 258
l 258 259 260 261 262 263 264 265 266
l 266 378 267
l 267 268 269 270 271 272 273 274 15
l 22 275 276 277 278 279 280 281 267
l 267 282 283 284 285 286 8
l 25 287 288 289 235
l 235 290 291 292 293
l 293 294 48
l 245 295 296 297 298
l 298 299 300 301 302 303 266
l 266 304 305 306 307
l 307 308 309 310 245
l 311 379 298
l 298 312 313 314 315 258
l 258 316 317 318 319 307
l 307 375 320
l 236 321 322 323 311
l 311 324 325 326 327 328 267
l 267 329 330 331 332 320
l 320 333 334 335 236
l 31 336 337
l 337 338 339 340 341 342
l 342 343 344 345 346
l 39 347 348 349 350 351
l 351 352 353 354 342
l 342 394 355
l 337 356 357 358 351
l 351 359 360 361 346
l 346 393 362
l 362 363
l 47 399 364
l 364 365 366 367 234
l 234 368 369 370 26
l 346 371 372 373 355
l 355 374 337
l 226 397 293
l 293 376 364
l 364 389 362
