v 0.002328 0.015208 0.340914
v -0.002265 0.015213 0.340978
v -0.042704 0.015237 0.340501
v -0.081931 0.015206 0.337924
v -0.118695 0.015116 0.333082
v -0.149159 0.014983 0.326784
v -0.178353 0.014794 0.318247
v -0.208118 0.014518 0.306247
v -0.231714 0.014221 0.293589
v -0.253779 0.013858 0.278327
v -0.273489 0.013436 0.260824
v -0.291122 0.012949 0.240713
v -0.306579 0.012391 0.217858
v -0.318546 0.011827 0.194830
v -0.328597 0.011201 0.169371
v -0.337045 0.010470 0.139750
v -0.343104 0.009680 0.107789
v -0.346859 0.008815 0.072884
v -0.327029 0.000845 -0.248418
v -0.338302 0.002908 -0.165746
v -0.345803 0.005107 -0.077008
v -0.348694 0.007081 0.002804
v -0.306515 -0.000782 -0.313426
v -0.312362 -0.000630 -0.307379
v -0.317242 -0.000336 -0.295602
v 0.000320 -0.001497 -0.341461
v -0.104849 -0.001444 -0.339415
v -0.198627 -0.001296 -0.333618
v -0.264413 -0.001079 -0.325123
v -0.290120 -0.000931 -0.319283
v -0.002836 0.015211 0.340911
v 0.042197 0.015177 0.340566
v 0.081427 0.015091 0.338050
v 0.118198 0.014949 0.333264
v 0.148672 0.014773 0.327013
v 0.177879 0.014542 0.318521
v 0.207662 0.014225 0.306568
v 0.231276 0.013894 0.293946
v 0.253364 0.013499 0.278718
v 0.273101 0.013050 0.261245
v 0.290765 0.012538 0.241161
v 0.306256 0.011959 0.218330
v 0.318258 0.011377 0.195321
v 0.328346 0.010737 0.169877
v 0.336840 0.009994 0.140269
v 0.342946 0.009195 0.108318
v 0.346754 0.008325 0.073418
v 0.348694 0.006588 0.003341
v 0.345923 0.004619 -0.076475
v 0.338557 0.002430 -0.165224
v 0.327408 0.000384 -0.247914
v 0.306992 -0.001215 -0.312953
v 0.312830 -0.001071 -0.306897
v 0.317693 -0.000784 -0.295113
v 0.105365 -0.001593 -0.339252
v 0.199135 -0.001577 -0.333311
v 0.264908 -0.001453 -0.324715
v 0.290606 -0.001341 -0.318835
v 0.000320 0.037124 -0.341461
v 0.000317 0.063191 -0.337686
v 0.000313 0.075071 -0.332830
v 0.000309 0.082090 -0.327943
v 0.000294 0.092767 -0.314560
v 0.000282 0.097941 -0.302878
v 0.000265 0.102457 -0.286459
v 0.000247 0.105130 -0.266923
v 0.000234 0.105083 -0.249877
v 0.000176 0.099834 -0.220523
v 0.000114 0.091642 -0.202957
v 0.000080 0.085917 -0.196695
v 0.000046 0.078574 -0.192318
v -0.000001 0.065989 -0.190605
v 0.000157 -0.096053 -0.309804
v 0.000187 -0.086064 -0.323708
v 0.000201 -0.079300 -0.328942
v 0.000223 -0.067679 -0.334390
v 0.000263 -0.041835 -0.339472
v 0.000137 -0.100633 -0.297877
v 0.000115 -0.104316 -0.281252
v 0.000094 -0.106002 -0.261605
v 0.000082 -0.105098 -0.244584
v 0.000033 -0.098378 -0.215532
v -0.000018 -0.089312 -0.198400
v -0.000042 -0.083278 -0.192434
v -0.000066 -0.075725 -0.188432
v -0.000094 -0.063069 -0.187354
v -0.323618 0.030439 -0.249105
v -0.310893 0.071771 -0.249638
v -0.145386 0.108707 -0.249788
v -0.189738 0.107780 -0.249746
v -0.229465 0.104898 -0.249708
v -0.259793 0.100348 -0.249679
v -0.284850 0.093379 -0.249656
v -0.296910 0.087618 -0.249645
v -0.303844 0.082485 -0.249640
v -0.326384 -0.013220 -0.248052
v -0.323662 -0.030040 -0.247581
v -0.310996 -0.071365 -0.246033
v -0.303963 -0.082075 -0.245496
v -0.297037 -0.087212 -0.245242
v -0.284985 -0.092984 -0.244962
v -0.259938 -0.099982 -0.244634
v -0.229617 -0.104571 -0.244432
v -0.189894 -0.107509 -0.244324
v -0.145543 -0.108502 -0.244317
v 0.311373 0.071332 -0.249159
v 0.324040 0.029982 -0.248606
v 0.145920 0.108502 -0.249563
v 0.190270 0.107511 -0.249453
v 0.229993 0.104574 -0.249354
v 0.260314 0.099981 -0.249278
v 0.285361 0.092977 -0.249216
v 0.297413 0.087198 -0.249188
v 0.304340 0.082056 -0.249172
v 0.311270 -0.071804 -0.245554
v 0.323996 -0.030497 -0.247083
v 0.326743 -0.013681 -0.247549
v 0.145762 -0.108707 -0.244093
v 0.190114 -0.107777 -0.244031
v 0.229841 -0.104896 -0.244079
v 0.260169 -0.100349 -0.244233
v 0.285226 -0.093387 -0.244523
v 0.297287 -0.087632 -0.244784
v 0.304220 -0.082505 -0.245028
v -0.301331 0.069208 -0.315025
v -0.306086 0.044078 -0.314544
v -0.299557 0.073160 -0.315083
v -0.293919 0.079618 -0.315169
v -0.278516 0.088055 -0.315256
v -0.253168 0.094624 -0.315283
v -0.222627 0.098332 -0.315249
v -0.187294 0.099944 -0.315168
v -0.140478 0.099665 -0.315025
v -0.301433 -0.072110 -0.311467
v -0.304491 -0.059655 -0.311879
v -0.306462 -0.042701 -0.312369
v -0.299665 -0.076063 -0.311325
v -0.294037 -0.082525 -0.311085
v -0.278645 -0.090978 -0.310747
v -0.253307 -0.097577 -0.310442
v -0.222772 -0.101323 -0.310221
v -0.187442 -0.102980 -0.310057
v -0.140625 -0.102762 -0.309927
v 0.306628 0.043645 -0.314072
v 0.301909 0.068783 -0.314561
v 0.141099 0.099466 -0.314808
v 0.187916 0.099679 -0.314879
v 0.223247 0.098018 -0.314905
v 0.253783 0.094266 -0.314892
v 0.279120 0.087662 -0.314826
v 0.294512 0.079203 -0.314716
v 0.300141 0.072737 -0.314621
v 0.306878 -0.043134 -0.311896
v 0.304882 -0.060085 -0.311409
v 0.301806 -0.072537 -0.311002
v 0.300033 -0.076486 -0.310863
v 0.294394 -0.082940 -0.310632
v 0.278991 -0.091372 -0.310318
v 0.253643 -0.097934 -0.310052
v 0.223102 -0.101638 -0.309877
v 0.187769 -0.103244 -0.309769
v 0.140953 -0.102960 -0.309711
v -0.320179 0.074699 -0.161765
v -0.325752 0.077039 -0.077260
v -0.327545 0.078994 0.000016
v -0.325537 0.080765 0.070988
v 0.002418 0.086978 0.331726
v -0.002246 0.086984 0.331788
v -0.038972 0.087005 0.331238
v -0.074495 0.086977 0.328669
v -0.108595 0.086893 0.323861
v -0.140172 0.086753 0.316831
v -0.169988 0.086549 0.307274
v -0.193987 0.086318 0.296917
v -0.216415 0.086031 0.284426
v -0.238786 0.085654 0.268341
v -0.257523 0.085241 0.250997
v -0.274289 0.084762 0.231127
v -0.286664 0.084308 0.212548
v -0.299095 0.083718 0.188589
v -0.308712 0.083104 0.163863
v -0.317070 0.082345 0.133537
v -0.322549 0.081560 0.102415
v -0.325642 -0.064186 0.074639
v -0.327650 -0.065988 0.003668
v -0.325857 -0.067928 -0.073609
v -0.320284 -0.069852 -0.158125
v -0.322654 -0.063404 0.106066
v -0.317175 -0.062629 0.137188
v -0.308817 -0.061872 0.167514
v -0.299200 -0.061255 0.192240
v -0.286770 -0.060656 0.216199
v -0.274395 -0.060192 0.234778
v -0.257628 -0.059695 0.254647
v -0.238891 -0.059262 0.271990
v -0.216519 -0.058861 0.288076
v -0.194093 -0.058551 0.300565
v -0.170093 -0.058295 0.310921
v -0.140277 -0.058061 0.320478
v -0.108701 -0.057893 0.327507
v -0.074600 -0.057784 0.332314
v -0.039076 -0.057735 0.334883
v -0.002351 -0.057739 0.335433
v 0.002313 -0.057744 0.335371
v 0.320529 0.074246 -0.161272
v 0.325974 0.076579 -0.076758
v 0.327652 0.078532 0.000521
v 0.325536 0.080305 0.071490
v 0.322501 0.081106 0.102912
v 0.316975 0.081897 0.134025
v 0.308572 0.082668 0.164338
v 0.298917 0.083295 0.189049
v 0.286451 0.083904 0.212989
v 0.271391 0.084463 0.235038
v 0.254258 0.084956 0.254452
v 0.235179 0.085385 0.271357
v 0.212466 0.085783 0.286989
v 0.189750 0.086092 0.299080
v 0.165485 0.086348 0.309057
v 0.135392 0.086585 0.318194
v 0.104036 0.086760 0.324753
v 0.069739 0.086885 0.329216
v 0.034049 0.086956 0.331465
v -0.002811 0.086982 0.331722
v 0.325431 -0.064646 0.075140
v 0.327547 -0.066450 0.004173
v 0.325869 -0.068388 -0.073107
v 0.320424 -0.070304 -0.157631
v 0.322396 -0.063859 0.106563
v 0.316870 -0.063076 0.137677
v 0.308466 -0.062308 0.167989
v 0.298812 -0.061677 0.192701
v 0.286346 -0.061061 0.216640
v 0.271286 -0.060489 0.238689
v 0.254153 -0.059979 0.258102
v 0.235075 -0.059529 0.275007
v 0.212361 -0.059106 0.290638
v 0.189644 -0.058771 0.302728
v 0.165380 -0.058490 0.312703
v 0.135287 -0.058225 0.321841
v 0.103931 -0.058023 0.328399
v 0.069634 -0.057873 0.332861
v 0.033944 -0.057780 0.335110
v -0.002915 -0.057740 0.335366
v 0.002342 0.092240 0.325246
v 0.002304 0.092397 0.320988
v 0.002253 0.088687 0.314500
v 0.002210 0.081357 0.310378
v 0.002466 0.075230 0.336727
v 0.002453 0.062647 0.339050
v 0.002230 -0.063325 0.329163
v 0.002191 -0.063695 0.324919
v 0.002145 -0.060317 0.318253
v 0.002112 -0.053204 0.313766
v 0.002378 -0.045758 0.339774
v 0.002383 -0.033074 0.341461
v -0.002577 0.081361 0.310374
v -0.002617 0.088691 0.314496
v -0.002673 0.092401 0.320984
v -0.002718 0.092243 0.325242
v -0.002891 0.062651 0.339046
v -0.002883 0.075234 0.336723
v -0.002675 -0.053201 0.313763
v -0.002725 -0.060314 0.318249
v -0.002787 -0.063692 0.324915
v -0.002831 -0.063321 0.329160
v -0.002960 -0.033070 0.341457
v -0.002970 -0.045754 0.339770
v -0.021642 0.066100 -0.189442
v -0.047287 0.066315 -0.185374
v -0.072608 0.066600 -0.179000
v -0.101681 0.067006 -0.169207
v -0.130587 0.067481 -0.157101
v -0.157879 0.067994 -0.143546
v -0.184083 0.068552 -0.128369
v -0.205446 0.069070 -0.113834
v -0.225382 0.069644 -0.097087
v -0.243170 0.070281 -0.077929
v -0.258138 0.070966 -0.056650
v -0.268383 0.071576 -0.037179
v -0.277881 0.072357 -0.011624
v -0.283781 0.073117 0.013872
v -0.286822 0.073869 0.039624
v -0.287347 0.074739 0.070068
v -0.285445 0.075502 0.097117
v -0.281315 0.076239 0.123327
v -0.274562 0.076970 0.149360
v -0.267014 0.077543 0.169846
v -0.257101 0.078112 0.190274
v -0.242901 0.078730 0.212542
v -0.229256 0.079192 0.229259
v -0.210842 0.079684 0.247151
v -0.193262 0.080056 0.260731
v -0.171107 0.080425 0.274329
v -0.147169 0.080731 0.285689
v -0.121606 0.080975 0.294855
v -0.095834 0.081152 0.301599
v -0.065798 0.081285 0.306846
v -0.034467 0.081354 0.309779
v -0.002031 0.081361 0.310453
v -0.205542 -0.061984 -0.110534
v -0.184178 -0.062230 -0.125075
v -0.157973 -0.062475 -0.140260
v -0.130682 -0.062683 -0.153822
v -0.101775 -0.062860 -0.165937
v -0.072703 -0.062990 -0.175736
v -0.047381 -0.063063 -0.182117
v -0.021736 -0.063089 -0.186188
v -0.225477 -0.061686 -0.093780
v -0.243265 -0.061331 -0.074614
v -0.258234 -0.060922 -0.053328
v -0.268479 -0.060537 -0.033852
v -0.277977 -0.060017 -0.008290
v -0.283877 -0.059485 0.017212
v -0.286919 -0.058935 0.042968
v -0.287443 -0.058270 0.073417
v -0.285541 -0.057673 0.100471
v -0.281412 -0.057096 0.126684
v -0.274659 -0.056525 0.152722
v -0.267111 -0.056077 0.173211
v -0.257198 -0.055632 0.193642
v -0.242999 -0.055149 0.215914
v -0.229353 -0.054789 0.232633
v -0.210939 -0.054406 0.250528
v -0.193360 -0.054119 0.264110
v -0.171204 -0.053836 0.277710
v -0.147266 -0.053605 0.289072
v -0.121704 -0.053424 0.298239
v -0.095932 -0.053298 0.304986
v -0.065895 -0.053211 0.310233
v -0.034565 -0.053177 0.313167
v -0.002129 -0.053198 0.313841
v 0.022023 0.066069 -0.189408
v 0.047662 0.066248 -0.185302
v 0.072973 0.066498 -0.178887
v 0.097938 0.066806 -0.170585
v 0.127061 0.067234 -0.158655
v 0.154303 0.067700 -0.145372
v 0.180749 0.068216 -0.130338
v 0.205715 0.068779 -0.113517
v 0.225625 0.069326 -0.096740
v 0.243384 0.069937 -0.077554
v 0.258321 0.070601 -0.056252
v 0.268537 0.071197 -0.036766
v 0.277996 0.071965 -0.011196
v 0.283857 0.072717 0.014310
v 0.286860 0.073464 0.040066
v 0.287340 0.074333 0.070510
v 0.285396 0.075099 0.097556
v 0.281227 0.075842 0.123760
v 0.274435 0.076582 0.149783
v 0.265013 0.077286 0.174478
v 0.254712 0.077860 0.194547
v 0.240074 0.078487 0.216389
v 0.226086 0.078960 0.232753
v 0.207289 0.079467 0.250225
v 0.189403 0.079854 0.263447
v 0.166919 0.080245 0.276634
v 0.142684 0.080574 0.287588
v 0.116852 0.080845 0.296353
v 0.091273 0.081046 0.302634
v 0.061033 0.081212 0.307500
v 0.029529 0.081317 0.310058
v 0.205619 -0.062274 -0.110217
v 0.180654 -0.062522 -0.127045
v 0.154208 -0.062725 -0.142087
v 0.126967 -0.062889 -0.155378
v 0.097844 -0.063019 -0.167316
v 0.072880 -0.063093 -0.175624
v 0.047568 -0.063130 -0.182044
v 0.021929 -0.063121 -0.186155
v 0.225529 -0.062004 -0.093432
v 0.243288 -0.061674 -0.074240
v 0.258225 -0.061287 -0.052930
v 0.268440 -0.060916 -0.033439
v 0.277900 -0.060409 -0.007862
v 0.283761 -0.059885 0.017649
v 0.286764 -0.059339 0.043410
v 0.287243 -0.058675 0.073860
v 0.029432 -0.053219 0.313447
v 0.060935 -0.053289 0.310887
v 0.091176 -0.053411 0.306020
v 0.116755 -0.053564 0.299738
v 0.142586 -0.053772 0.290971
v 0.166822 -0.054030 0.280016
v 0.189306 -0.054336 0.266826
v 0.207192 -0.054641 0.253602
v 0.225989 -0.055041 0.236128
v 0.239977 -0.055413 0.219761
v 0.254614 -0.055907 0.197916
v 0.264916 -0.056359 0.177843
v 0.274339 -0.056913 0.153144
v 0.281131 -0.057494 0.127118
v 0.285300 -0.058076 0.100910
v -0.345332 0.030110 0.072416
v -0.341763 0.046876 0.072097
v -0.334403 0.066200 0.071651
v -0.318662 0.085538 0.070589
v -0.310225 0.085698 0.070367
v -0.298300 0.081353 0.070192
v -0.345918 -0.009210 0.073384
v -0.341819 -0.030261 0.074040
v -0.334487 -0.049594 0.074567
v -0.318774 -0.068983 0.074481
v -0.310337 -0.069167 0.074267
v -0.298407 -0.064854 0.073874
v 0.345257 0.029623 0.072949
v 0.341713 0.046393 0.072624
v 0.334381 0.065728 0.072166
v 0.318669 0.085087 0.071080
v 0.310232 0.085261 0.070845
v 0.298302 0.080932 0.070651
v 0.334297 -0.050066 0.075082
v 0.341657 -0.030744 0.074567
v 0.345786 -0.009698 0.073917
v 0.318557 -0.069433 0.074972
v 0.310120 -0.069606 0.074745
v 0.298196 -0.065275 0.074334
v -0.002529 0.086983 0.331755
v 0.000031 0.015211 0.340946
v -0.002633 -0.057740 0.335400
v -0.306215 -0.071738 -0.278750
v -0.002551 0.015212 0.340944
v 0.000086 0.086981 0.331757
v -0.000019 -0.057741 0.335402
v 0.306641 0.070057 -0.281860
v -0.306112 0.070490 -0.282332
v 0.306538 -0.072170 -0.278278
l 1 420 2
l 2 3 4 5 6 7 8 9 10 11 12 13 14 15 16 17 18
l 19 20 21 22 18
l 23 24 25 19
l 26 27 28 29 30 23
l 31 423 2
l 2 32 33 34 35 36 37 38 39 40 41 42 43 44 45 46 47
l 47 48 49 50 51
l 52 53 54 51
l 26 55 56 57 58 52
l 26 59 60 61 62 63
l 63 64 65 66 67
l 67 68 69 70 71 72
l 73 74 75 76 77 26
l 73 78 79 80 81
l 81 82 83 84 85 86
l 19 87 88
l 67 89 90 91 92 93 94 95 88
l 19 96 97 98
l 98 99 100 101 102 103 104 105 81
l 106 107 51
l 67 108 109 110 111 112 113 114 106
l 115 116 117 51
l 81 118 119 120 121 122 123 124 115
l 125 126 23
l 125 127 128 129 130 131 132 133 63
l 134 135 136 23
l 134 137 138 139 140 141 142 143 73
l 52 144 145
l 63 146 147 148 149 150 151 152 145
l 52 153 154 155
l 155 156 157 158 159 160 161 162 73
l 88 427 125
l 88 163 164 165 166
l 167 424 168
l 168 169 170 171 172 173 174 175 176 177 178 179 180 181 182 183 166
l 134 422 98
l 184 185 186 187 98
l 184 188 189 190 191 192 193 194 195 196 197 198 199 200 201 202 203
l 203 425 204
l 145 426 106
l 106 205 206 207 208
l 208 209 210 211 212 213 214 215 216 217 218 219 220 221 222 223 168
l 168 419 224
l 115 428 155
l 225 226 227 228 115
l 225 229 230 231 232 233 234 235 236 237 238 239 240 241 242 243 203
l 203 421 244
l 167 245 246 247 248
l 167 249 250 1
l 204 251 252 253 254
l 204 255 256 1
l 257 258 259 260 224
l 31 261 262 224
l 263 264 265 266 244
l 31 267 268 244
l 72 269 270 271 272 273 274 275 276
l 276 277 278 279 280 281 282 283 284
l 284 285 286 287 288 289 290 291 292 293 294 295 296 297 298 299 300
l 300 248
l 301 302 303 304 305 306 307 308 86
l 301 309 310 311 312 313 314 315 316
l 316 317 318 319 320 321 322 323 324 325 326 327 328 329 330 331 332
l 332 254
l 72 333 334 335 336 337 338 339 340
l 340 341 342 343 344 345 346 347 348
l 348 349 350 351 352 353 354 355 356 357 358 359 360 361 362 363 300
l 300 257
l 364 365 366 367 368 369 370 371 86
l 364 372 373 374 375 376 377 378 379
l 263 332
l 332 380 381 382 383 384 385 386 387 388 389 390 391 392 393 394 379
l 18 395 396 397 166
l 166 398 399 400 284
l 18 401 402 403 184
l 184 404 405 406 316
l 47 407 408 409 208
l 208 410 411 412 348
l 225 413 414 415 47
l 225 416 417 418 379
