v -0.214028 0.059732 -0.005676
v -0.206699 0.064660 -0.006008
v -0.183300 0.075207 -0.006712
v -0.120914 0.113365 -0.009303
v -0.087354 0.131303 -0.010543
v -0.066821 0.137429 -0.010980
v -0.041482 0.139865 -0.011177
v -0.012391 0.139177 -0.011167
v 0.019398 0.135931 -0.010989
v 0.052832 0.130694 -0.010676
v 0.103763 0.120340 -0.010037
v 0.207808 0.094427 -0.008372
v 0.300943 0.070945 -0.006785
v 0.369883 0.056535 -0.005799
v 0.416492 0.050707 -0.005398
v 0.440504 0.051945 -0.005476
v 0.446899 0.028467 -0.003890
v 0.450050 0.006513 -0.002411
v 0.449432 -0.013590 -0.001056
v 0.446657 -0.025793 -0.000237
v 0.438564 -0.042059 0.000850
v 0.430317 -0.051399 0.001473
v 0.419603 -0.059418 0.002002
v 0.406265 -0.066018 0.002432
v 0.395283 -0.068260 0.002576
v 0.345684 -0.072269 0.002838
v 0.166578 -0.078458 0.003245
v -0.170581 -0.083465 0.003582
v -0.385765 -0.083465 0.003582
v -0.406387 -0.061505 0.002049
v -0.423926 -0.037232 0.000377
v -0.438456 -0.011287 -0.001383
v -0.450050 0.015685 -0.003182
v -0.445933 0.020624 -0.003517
v -0.436812 0.026213 -0.003895
v -0.408389 0.036288 -0.004573
v -0.366268 0.045628 -0.005184
v -0.314692 0.053256 -0.005634
v -0.261375 0.058261 -0.005829
v -0.410022 0.035718 -0.064653
v -0.409764 0.033057 -0.092246
v -0.408867 0.030068 -0.104014
v -0.407269 0.025568 -0.113892
v -0.404826 0.019252 -0.121475
v -0.401396 0.010816 -0.126357
v -0.395674 -0.002806 -0.128392
v -0.386215 -0.024876 -0.125658
v -0.374417 -0.052101 -0.118244
v -0.357512 -0.090898 -0.104956
v -0.382911 -0.085895 -0.030453
v -0.376695 -0.088009 -0.060413
v -0.368662 -0.089609 -0.084119
v -0.351832 -0.091240 -0.111442
v -0.344774 -0.091456 -0.116678
v -0.327050 -0.091566 -0.124036
v -0.299483 -0.091259 -0.129046
v -0.254466 -0.090410 -0.132722
v -0.254917 -0.089971 -0.122929
v -0.200075 -0.088556 -0.123198
v -0.140087 -0.087100 -0.123171
v -0.140622 -0.087912 -0.132845
v -0.078790 -0.086049 -0.123393
v -0.057191 -0.085480 -0.121573
v -0.019415 -0.084740 -0.121741
v 0.007918 -0.084334 -0.123587
v 0.049682 -0.083873 -0.128612
v 0.089406 -0.083616 -0.135937
v 0.113117 -0.083570 -0.141869
v 0.142061 -0.083709 -0.152000
v 0.155508 -0.083952 -0.159376
v 0.157210 -0.082779 -0.138471
v 0.172708 -0.082421 -0.137541
v 0.211487 -0.081596 -0.139011
v 0.249206 -0.080683 -0.140249
v 0.266214 -0.080139 -0.138986
v 0.263378 -0.081738 -0.159907
v 0.285255 -0.081070 -0.160615
v 0.304592 -0.080120 -0.156418
v 0.325566 -0.078644 -0.145571
v 0.346626 -0.076762 -0.128572
v 0.366420 -0.074590 -0.106429
v 0.378241 -0.073037 -0.089311
v 0.392913 -0.070639 -0.060842
v 0.400067 -0.069044 -0.040440
v 0.404650 -0.067492 -0.019250
v -0.198300 -0.139865 -0.119721
v -0.202028 -0.037355 -0.126367
v -0.201932 -0.043168 -0.135821
v -0.202453 -0.031913 -0.135346
v -0.203450 -0.010208 -0.136707
v -0.203872 -0.001471 -0.135733
v -0.204521 0.011042 -0.130352
v -0.205120 0.021822 -0.121848
v -0.205715 0.035297 -0.111596
v -0.206098 0.046307 -0.095359
v -0.206416 0.055550 -0.070884
v -0.206598 0.061055 -0.042823
v -0.192381 -0.037817 -0.126348
v -0.178672 -0.041279 -0.126137
v -0.170251 -0.045157 -0.125892
v -0.159060 -0.052853 -0.125399
v -0.152768 -0.058961 -0.125004
v -0.145447 -0.069114 -0.124345
v -0.141096 -0.079888 -0.123643
v -0.140619 -0.094962 -0.122656
v -0.144066 -0.106321 -0.121914
v -0.150406 -0.116747 -0.121234
v -0.156083 -0.122950 -0.120830
v -0.166535 -0.130793 -0.120318
v -0.174655 -0.134846 -0.120054
v -0.188328 -0.138819 -0.119792
v -0.206653 -0.139416 -0.119746
v -0.218822 -0.136215 -0.119950
v -0.226458 -0.132593 -0.120184
v -0.236791 -0.125268 -0.120656
v -0.245291 -0.116079 -0.121248
v -0.249669 -0.109145 -0.121695
v -0.253895 -0.097871 -0.122421
v -0.254441 -0.080290 -0.123552
v -0.252514 -0.071583 -0.124113
v -0.249278 -0.063854 -0.124613
v -0.242284 -0.054099 -0.125246
v -0.236404 -0.048826 -0.125590
v -0.226116 -0.042768 -0.125990
v -0.214496 -0.038941 -0.126249
v -0.448012 0.012652 -0.053017
v -0.444390 0.011550 -0.074571
v -0.440480 0.011002 -0.087406
v -0.431793 0.010498 -0.104044
v -0.423783 0.010395 -0.113211
v -0.413728 0.010497 -0.120690
v -0.377272 0.011807 -0.131718
v -0.349992 0.013255 -0.133085
v -0.320380 0.015016 -0.131655
v -0.236257 0.020146 -0.123281
v -0.082777 0.027520 -0.117692
v 0.135403 0.035288 -0.119900
v 0.155115 0.036027 -0.121650
v 0.189986 0.036837 -0.130218
v 0.208234 0.037294 -0.132397
v 0.225685 0.037728 -0.133873
v 0.243520 0.038033 -0.137337
v 0.317090 0.038744 -0.159109
v 0.344889 0.039145 -0.165196
v 0.372385 0.039822 -0.167012
v 0.390414 0.040492 -0.164853
v 0.396100 0.040799 -0.162690
v 0.406240 0.041684 -0.153372
v 0.414827 0.042861 -0.138637
v 0.421967 0.044238 -0.119972
v 0.427769 0.045727 -0.098862
v 0.434193 0.047977 -0.065867
v 0.438202 0.049980 -0.035731
v 0.207781 0.092018 -0.023697
v 0.207827 0.085978 -0.043494
v 0.207779 0.058864 -0.106336
v 0.207879 0.053945 -0.113141
v 0.208074 0.046660 -0.122784
v 0.208496 0.022834 -0.143521
v 0.208871 0.007179 -0.151383
v 0.209421 -0.012828 -0.157720
v 0.210171 -0.038805 -0.162597
v 0.210050 -0.035217 -0.141662
v 0.213173 -0.130967 -0.135580
v 0.159448 -0.093421 -0.137820
v 0.163881 -0.103039 -0.137227
v 0.170797 -0.112763 -0.136629
v 0.176841 -0.118728 -0.136266
v 0.184068 -0.123877 -0.135957
v 0.192511 -0.127863 -0.135724
v 0.202202 -0.130342 -0.135592
v 0.221467 -0.130025 -0.135663
v 0.233356 -0.126382 -0.135927
v 0.240699 -0.122623 -0.136187
v 0.250467 -0.115259 -0.136685
v 0.258295 -0.106147 -0.137290
v 0.262191 -0.099282 -0.137741
v 0.265677 -0.088069 -0.138472
v 0.265075 -0.071648 -0.139528
v 0.262335 -0.063994 -0.140010
v 0.258221 -0.057197 -0.140430
v 0.249973 -0.048651 -0.140945
v 0.243420 -0.044080 -0.141212
v 0.232577 -0.038962 -0.141498
v 0.221198 -0.035986 -0.141648
v 0.191156 -0.038657 -0.141383
v 0.183209 -0.042164 -0.141130
v 0.173213 -0.049137 -0.140646
v 0.167858 -0.054657 -0.140272
v 0.161830 -0.063781 -0.139669
v 0.158261 -0.073364 -0.139054
v -0.087197 0.125519 -0.045875
v -0.086493 0.109833 -0.100242
v -0.084673 0.071061 -0.104892
v -0.083303 0.040752 -0.112078
v -0.081369 -0.006711 -0.135717
v -0.080838 -0.021318 -0.139560
v -0.080144 -0.041447 -0.137554
v -0.079080 -0.072491 -0.127896
v -0.030386 -0.072176 -0.132957
v 0.016116 -0.068488 -0.134608
v 0.044745 -0.063450 -0.134194
v 0.058089 -0.059999 -0.133620
v 0.082397 -0.050966 -0.131876
v 0.102958 -0.038742 -0.129533
v 0.111617 -0.031301 -0.128207
v 0.119079 -0.022903 -0.126817
v 0.125257 -0.013495 -0.125391
v 0.130066 -0.003025 -0.123958
v 0.133417 0.008560 -0.122546
v 0.135225 0.021313 -0.121184
v -0.401206 0.034369 -0.033244
v -0.391218 0.032962 -0.056263
v -0.378388 0.032028 -0.074250
v -0.370895 0.031725 -0.081552
v -0.353728 0.031423 -0.093161
v -0.333620 0.031491 -0.101295
v -0.297862 0.032199 -0.108344
v -0.255271 0.033514 -0.111077
v 0.165509 0.074875 -0.108820
v 0.119610 0.090616 -0.107172
v 0.071991 0.104363 -0.103278
v 0.024560 0.114390 -0.099023
v -0.006015 0.118157 -0.096916
v -0.035092 0.118994 -0.096044
v -0.062106 0.116390 -0.096966
v -0.125522 0.093505 -0.110044
v -0.164943 0.073765 -0.120549
v -0.179749 0.065599 -0.121557
v -0.186023 0.062104 -0.120388
v -0.191582 0.059062 -0.117870
v -0.196454 0.056521 -0.113828
v -0.200666 0.054525 -0.108089
v -0.204246 0.053122 -0.100476
v -0.209624 0.052277 -0.078932
v -0.212811 0.054357 -0.047799
v 0.389664 0.021405 -0.163505
v 0.386460 0.004017 -0.162281
v 0.381070 -0.011722 -0.161178
v 0.369471 -0.032354 -0.159740
v 0.359786 -0.044200 -0.158918
v 0.342997 -0.059238 -0.157875
v 0.324298 -0.071152 -0.157048
v -0.254033 -0.083408 -0.133186
v -0.251182 -0.073314 -0.133855
v -0.245809 -0.064059 -0.134468
v -0.240897 -0.058546 -0.134832
v -0.231637 -0.051548 -0.135291
v -0.224263 -0.047898 -0.135528
v -0.211506 -0.044235 -0.135760
v -0.193066 -0.043314 -0.135803
v -0.180001 -0.045569 -0.135645
v -0.167797 -0.050118 -0.135340
v -0.160460 -0.054342 -0.135059
v -0.151138 -0.062342 -0.134530
v -0.146327 -0.068713 -0.134110
v -0.141700 -0.079703 -0.133386
v 0.156085 -0.077662 -0.159818
v 0.159453 -0.068256 -0.160477
v 0.165528 -0.059341 -0.161101
v 0.170914 -0.053923 -0.161482
v 0.180753 -0.046960 -0.161975
v 0.188338 -0.043317 -0.162239
v 0.201008 -0.039727 -0.162511
v 0.227515 -0.040891 -0.162506
v 0.235166 -0.043676 -0.162342
v 0.245177 -0.049610 -0.161978
v 0.250777 -0.054519 -0.161669
v 0.257393 -0.062940 -0.161131
v 0.261670 -0.072181 -0.160533
v -0.410031 0.043847 0.055403
v -0.409776 0.044951 0.083410
v -0.408883 0.043586 0.095619
v -0.407285 0.040466 0.106130
v -0.404842 0.035235 0.114573
v -0.401414 0.027537 0.120578
v -0.395693 0.014313 0.124432
v -0.386234 -0.007924 0.124701
v -0.374434 -0.035899 0.121025
v -0.357528 -0.076134 0.113092
v -0.382916 -0.081267 0.037904
v -0.376704 -0.079299 0.068226
v -0.368676 -0.077672 0.092170
v -0.351849 -0.075598 0.119565
v -0.344793 -0.075106 0.124783
v -0.327068 -0.074224 0.132091
v -0.299502 -0.073244 0.137018
v -0.254486 -0.071907 0.140553
v -0.254935 -0.072791 0.130790
v -0.200094 -0.071352 0.130874
v -0.140106 -0.069912 0.130660
v -0.140643 -0.069414 0.140355
v -0.078809 -0.068841 0.130747
v -0.057210 -0.068523 0.128870
v -0.019434 -0.067766 0.128943
v 0.007899 -0.067114 0.130721
v 0.049662 -0.065980 0.135645
v 0.089386 -0.064737 0.142874
v 0.113095 -0.063892 0.148749
v 0.142039 -0.062664 0.158811
v 0.155485 -0.061910 0.166154
v 0.157189 -0.063565 0.145282
v 0.172688 -0.063337 0.144315
v 0.211467 -0.062321 0.145666
v 0.249185 -0.061249 0.146776
v 0.266195 -0.060881 0.145452
v 0.263354 -0.059645 0.166397
v 0.285231 -0.058886 0.167012
v 0.304567 -0.058510 0.162728
v 0.325543 -0.058513 0.151722
v 0.346607 -0.058951 0.134471
v 0.366402 -0.059797 0.112028
v 0.378227 -0.060576 0.094707
v 0.392904 -0.062053 0.065967
v 0.400059 -0.063230 0.045424
v 0.404647 -0.064554 0.024142
v -0.206604 0.066052 0.030980
v -0.206426 0.064383 0.059566
v -0.206112 0.058525 0.085097
v -0.205732 0.049807 0.102681
v -0.205138 0.037836 0.114656
v -0.204540 0.028301 0.124536
v -0.203892 0.016627 0.131555
v -0.203469 0.008102 0.133698
v -0.202473 -0.013590 0.135275
v -0.201952 -0.024677 0.137263
v -0.202046 -0.020192 0.127111
v -0.198319 -0.122661 0.134345
v -0.214514 -0.021779 0.127207
v -0.226135 -0.025606 0.127464
v -0.236423 -0.031663 0.127883
v -0.242303 -0.036934 0.128252
v -0.249297 -0.046686 0.128939
v -0.252533 -0.054412 0.129485
v -0.254460 -0.063115 0.130102
v -0.253915 -0.080688 0.131352
v -0.249688 -0.091957 0.132153
v -0.245310 -0.098888 0.132645
v -0.236810 -0.108072 0.133298
v -0.226477 -0.115394 0.133819
v -0.218840 -0.119014 0.134078
v -0.206671 -0.122214 0.134309
v -0.188347 -0.121616 0.134276
v -0.174674 -0.117643 0.134002
v -0.166553 -0.113592 0.133720
v -0.156102 -0.105752 0.133170
v -0.150425 -0.099550 0.132735
v -0.144084 -0.089128 0.132005
v -0.140638 -0.077772 0.131209
v -0.141115 -0.062703 0.130155
v -0.145465 -0.051933 0.129398
v -0.152787 -0.041784 0.128681
v -0.159079 -0.035679 0.128248
v -0.170270 -0.027986 0.127698
v -0.178691 -0.024111 0.127416
v -0.192399 -0.020652 0.127157
v -0.448019 0.019413 0.046832
v -0.444402 0.021241 0.068559
v -0.440492 0.022439 0.081506
v -0.431809 0.024198 0.098282
v -0.423799 0.025340 0.107496
v -0.413746 0.026454 0.114975
v -0.377289 0.029241 0.125760
v -0.350011 0.030860 0.126924
v -0.320400 0.032413 0.125274
v -0.236275 0.036368 0.116298
v -0.082794 0.042922 0.109789
v 0.135386 0.050920 0.110962
v 0.155097 0.051888 0.112598
v 0.189967 0.053846 0.120984
v 0.208217 0.054593 0.123085
v 0.225668 0.055222 0.124493
v 0.243500 0.055992 0.127885
v 0.317068 0.059631 0.149373
v 0.344865 0.060850 0.155355
v 0.372360 0.061767 0.157066
v 0.390390 0.062140 0.154840
v 0.396078 0.062150 0.152650
v 0.406217 0.061770 0.143252
v 0.414807 0.060943 0.128414
v 0.421950 0.059785 0.109627
v 0.427755 0.058407 0.088389
v 0.434183 0.056176 0.055200
v 0.438199 0.054084 0.024903
v 0.207779 0.094109 0.007190
v 0.207822 0.090806 0.027811
v 0.207764 0.072453 0.094353
v 0.207863 0.068496 0.101759
v 0.208056 0.062577 0.112296
v 0.208475 0.041764 0.136056
v 0.208850 0.027312 0.145958
v 0.209398 0.008342 0.154933
v 0.210146 -0.016740 0.163266
v 0.210028 -0.016006 0.142039
v 0.213151 -0.111702 0.148921
v 0.158241 -0.054158 0.144591
v 0.161808 -0.044579 0.143908
v 0.167835 -0.035457 0.143276
v 0.173193 -0.029938 0.142905
v 0.183187 -0.022962 0.142445
v 0.191135 -0.019454 0.142224
v 0.221176 -0.016771 0.142131
v 0.232555 -0.019740 0.142385
v 0.243400 -0.024851 0.142795
v 0.249951 -0.029415 0.143146
v 0.258200 -0.037952 0.143789
v 0.262314 -0.044743 0.144290
v 0.265055 -0.052393 0.144846
v 0.265655 -0.068805 0.146011
v 0.262170 -0.080016 0.146799
v 0.258276 -0.086880 0.147277
v 0.250447 -0.095990 0.147905
v 0.244120 -0.101115 0.148253
v 0.233335 -0.107113 0.148650
v 0.221446 -0.110759 0.148878
v 0.202181 -0.111082 0.148847
v 0.192490 -0.108609 0.148643
v 0.184047 -0.104628 0.148335
v 0.176819 -0.099484 0.147945
v 0.170777 -0.093524 0.147501
v 0.163859 -0.083808 0.146780
v 0.159426 -0.074198 0.146071
v -0.079099 -0.054800 0.133382
v -0.080165 -0.022737 0.138766
v -0.080858 -0.002522 0.138041
v -0.081389 0.011434 0.132263
v -0.083319 0.055278 0.102441
v -0.084688 0.084341 0.091235
v -0.086506 0.122132 0.081400
v -0.087203 0.130337 0.025283
v -0.030407 -0.053805 0.138362
v 0.016096 -0.049928 0.139506
v 0.044725 -0.044991 0.138422
v 0.058068 -0.041648 0.137389
v 0.082377 -0.032933 0.134448
v 0.102939 -0.021136 0.130480
v 0.111598 -0.013941 0.128165
v 0.119060 -0.005808 0.125656
v 0.125239 0.003322 0.122976
v 0.130048 0.013503 0.120145
v 0.133399 0.024792 0.117185
v 0.135208 0.037246 0.114117
v -0.401210 0.038253 0.024126
v -0.391226 0.039968 0.047205
v -0.378399 0.041475 0.065273
v -0.370906 0.042164 0.072619
v -0.353741 0.043440 0.084315
v -0.333635 0.044614 0.092524
v -0.322467 0.045177 0.095513
v -0.297878 0.046282 0.099637
v -0.255287 0.047964 0.102337
v -0.212817 0.060085 0.036789
v -0.209635 0.062221 0.067928
v -0.204260 0.065963 0.089174
v -0.200681 0.068380 0.096536
v -0.196470 0.071132 0.101963
v -0.191599 0.074196 0.105633
v -0.186040 0.077550 0.107727
v -0.179766 0.081172 0.108424
v -0.164960 0.089128 0.106343
v -0.125537 0.107273 0.093302
v -0.062119 0.128188 0.077275
v -0.035104 0.130644 0.076014
v -0.006027 0.129933 0.076995
v 0.024546 0.126484 0.079595
v 0.071977 0.117123 0.085170
v 0.119596 0.104027 0.090889
v 0.165494 0.088652 0.094650
v 0.389641 0.043043 0.156078
v 0.386438 0.025649 0.157209
v 0.381047 0.009906 0.158237
v 0.369448 -0.010732 0.159591
v 0.359761 -0.022581 0.160371
v 0.342973 -0.037622 0.161363
v 0.324276 -0.049540 0.162148
v -0.254054 -0.064905 0.140069
v -0.251202 -0.054814 0.139372
v -0.245829 -0.045560 0.138732
v -0.240917 -0.040048 0.138350
v -0.231657 -0.033052 0.137863
v -0.224283 -0.029404 0.137607
v -0.211527 -0.025743 0.137345
v -0.193086 -0.024825 0.137266
v -0.180022 -0.027080 0.137415
v -0.167817 -0.031628 0.137728
v -0.160480 -0.035851 0.138020
v -0.151158 -0.043850 0.138576
v -0.146348 -0.050220 0.139020
v -0.141720 -0.061206 0.139784
v 0.156062 -0.055618 0.165745
v 0.159428 -0.046209 0.165128
v 0.165504 -0.037292 0.164547
v 0.170892 -0.031871 0.164195
v 0.180728 -0.024905 0.163746
v 0.188314 -0.021259 0.163517
v 0.200984 -0.017666 0.163305
v 0.227490 -0.018819 0.163460
v 0.235141 -0.021601 0.163675
v 0.245153 -0.027529 0.164115
v 0.250753 -0.032437 0.164473
v 0.257370 -0.040853 0.165076
v 0.261644 -0.050089 0.165728
v -0.170081 -0.087828 -0.123184
v 0.026296 0.046921 0.110375
v -0.201980 -0.040261 -0.131094
v -0.078935 -0.079270 -0.125644
v -0.144525 0.052542 0.102561
v -0.199207 -0.097007 0.132610
v -0.201052 -0.062956 -0.124782
v -0.201999 -0.022434 0.132187
v 0.207829 0.056404 -0.109738
v 0.062272 0.061887 0.102100
v 0.210748 -0.039164 0.143853
v -0.227515 -0.072072 0.130832
v 0.062288 0.047348 -0.112610
v -0.170100 -0.070632 0.130767
v -0.143966 0.040379 0.112223
v -0.140355 -0.087506 -0.128008
v 0.156359 -0.083365 -0.148923
v -0.109706 -0.086981 -0.128119
v 0.207813 0.070474 0.098056
v 0.210111 -0.037011 -0.152129
v -0.210364 0.062196 -0.005842
v 0.212330 -0.106281 -0.137295
v -0.199188 -0.114210 -0.121459
v 0.264796 -0.080939 -0.149446
v -0.201070 -0.045772 0.128993
v -0.140374 -0.069663 0.135507
v -0.205418 0.028560 -0.116722
v -0.254691 -0.090190 -0.127825
v -0.083056 0.049100 0.106115
v -0.078954 -0.061820 0.132064
v 0.026313 0.031404 -0.118796
v -0.143949 0.024671 -0.119770
v -0.083040 0.034136 -0.114885
v 0.210087 -0.016373 0.152653
v -0.227496 -0.089263 -0.123063
v 0.210769 -0.058407 -0.140337
v -0.144509 0.038025 -0.111837
v -0.109726 -0.069127 0.135551
v 0.156337 -0.062738 0.155718
v -0.254711 -0.072349 0.135671
v -0.205435 0.043821 0.108669
v 0.212309 -0.087012 0.147293
v 0.264774 -0.060263 0.155925
l 1 523 2
l 2 3 4 5
l 5 6 7 8 9 10 11 12
l 12 13 14 15 16
l 16 17 18 19 20 21 22 23 24
l 24 25 26 27 28 29
l 29 30 31 32 33
l 33 34 35 36
l 36 37 38 39 1
l 36 40 41 42 43 44 45
l 45 46 47 48 49
l 29 50 51 52 49
l 49 53 54 55 56 57
l 57 530 58
l 58 537 59
l 59 503 60
l 60 518 61
l 61 520 62
l 62 63 64 65 66 67 68 69 70
l 70 519 71
l 71 72 73
l 73 74 75
l 75 526 76
l 76 77 78
l 78 79 80 81 82 83 84 85 24
l 86 525 59
l 59 509 87
l 87 505 88
l 88 89 90 91 92 93
l 93 529 94
l 94 95 96 97 2
l 87 98 99 100 101 102 103 104 60
l 60 105 106 107 108 109 110 111 86
l 86 112 113 114 115 116 117 118 58
l 58 119 120 121 122 123 124 125 87
l 33 126 127 128 129 130 131 45
l 45 132 133 134 135 93
l 93 534 136
l 136 533 137
l 137 138 139 140
l 140 141 142 143 144 145 146
l 146 147 148 149 150 151 152 153 16
l 12 154 155 156
l 156 511 157
l 157 158 140
l 140 159 160 161 162
l 162 522 163
l 163 538 73
l 73 524 164
l 71 165 166 167 168 169 170 171 164
l 164 172 173 174 175 176 177 178 75
l 75 179 180 181 182 183 184 185 163
l 163 186 187 188 189 190 191 71
l 5 192 193
l 193 194 195
l 195 535 136
l 136 196 197 198 199
l 199 506 62
l 199 200 201 202 203 204 205 206 207 208 209 210 211 137
l 36 212 213 214 215 216 217 218 219 94
l 94 539 195
l 195 515 157
l 156 220 221 222 223 224 225 226 193
l 193 227 228 229 230 231 232 233 234 235 236 1
l 146 237 238 239 240 241 242 243 78
l 57 244 245 246 247 248 249 250 88
l 88 251 252 253 254 255 256 257 61
l 70 258 259 260 261 262 263 264 162
l 162 265 266 267 268 269 270 76
l 36 271 272 273 274 275 276
l 276 277 278 279 280
l 29 281 282 283 280
l 280 284 285 286 287 288
l 288 542 289
l 289 514 290
l 290 516 291
l 291 528 292
l 292 540 293
l 293 294 295 296 297 298 299 300 301
l 301 541 302
l 302 303 304
l 304 305 306
l 306 545 307
l 307 308 309
l 309 310 311 312 313 314 315 316 24
l 2 317 318 319 320
l 320 543 321
l 321 322 323 324 325 326
l 326 510 327
l 327 527 290
l 290 508 328
l 327 329 330 331 332 333 334 335 289
l 289 336 337 338 339 340 341 342 328
l 328 343 344 345 346 347 348 349 291
l 291 350 351 352 353 354 355 356 327
l 33 357 358 359 360 361 362 276
l 276 363 364 365 366 321
l 321 517 367
l 367 504 368
l 368 369 370 371
l 371 372 373 374 375 376 377
l 377 378 379 380 381 382 383 384 16
l 12 385 386 387
l 387 521 388
l 388 389 371
l 371 390 391 392 393
l 393 536 394
l 394 513 304
l 304 544 395
l 302 396 397 398 399 400 401 394
l 394 402 403 404 405 406 407 408 306
l 306 409 410 411 412 413 414 415 395
l 395 416 417 418 419 420 421 422 302
l 293 532 423
l 423 424 425 426 367
l 367 531 427
l 427 428 429
l 429 430 5
l 423 431 432 433 434 435 436 437 438 439 440 441 442 368
l 36 443 444 445 446 447 448 449 450 451 320
l 320 507 427
l 427 512 388
l 1 452 453 454 455 456 457 458 459 460 461 429
l 429 462 463 464 465 466 467 468 387
l 377 469 470 471 472 473 474 475 309
l 288 476 477 478 479 480 481 482 326
l 326 483 484 485 486 487 488 489 292
l 301 490 491 492 493 494 495 496 393
l 393 497 498 499 500 501 502 307
