v 0.019244 -0.178549 0.000566
v 0.255696 -0.185347 -0.003641
v 0.425882 -0.190345 -0.006697
v 0.426998 -0.175130 -0.006792
v 0.422972 -0.142285 -0.006882
v 0.404744 -0.050245 -0.007031
v 0.389740 0.012303 -0.007082
v 0.365166 0.110313 -0.007145
v 0.357926 0.129438 -0.007113
v 0.351970 0.135427 -0.007038
v 0.260274 0.101145 -0.005212
v 0.260750 0.069564 -0.005053
v 0.254933 0.023073 -0.004700
v 0.247000 -0.006729 -0.004396
v 0.229531 -0.048607 -0.003854
v 0.205991 -0.085851 -0.003225
v 0.187267 -0.107414 -0.002767
v 0.155146 -0.133824 -0.002039
v 0.131339 -0.146869 -0.001535
v 0.107425 -0.155986 -0.001050
v 0.082813 -0.162486 -0.000569
v 0.057810 -0.166606 -0.000094
v 0.020244 -0.168841 0.000596
v -0.039970 -0.164017 0.001656
v -0.072975 -0.157295 0.002216
v -0.102371 -0.148677 0.002702
v -0.123305 -0.140096 0.003035
v -0.153459 -0.122482 0.003484
v -0.172361 -0.107914 0.003745
v -0.198276 -0.082398 0.004072
v -0.220506 -0.053173 0.004311
v -0.232856 -0.032013 0.004416
v -0.247041 0.001671 0.004484
v -0.253234 0.025086 0.004465
v -0.291458 0.037929 0.005075
v -0.310934 0.047697 0.005368
v -0.326360 0.058843 0.005582
v -0.338383 0.071723 0.005727
v -0.347651 0.086693 0.005812
v -0.357800 0.113842 0.005848
v -0.372604 0.189437 0.005712
v -0.398064 0.150553 0.006344
v -0.401710 0.073551 0.006815
v -0.405739 0.035964 0.007052
v -0.416483 -0.018167 0.007514
v -0.426998 -0.077903 0.007998
v -0.426053 -0.116591 0.008181
v -0.416542 -0.164094 0.008257
v -0.325881 -0.167349 0.006664
v -0.218341 -0.170877 0.004774
v -0.411844 -0.164075 0.037845
v -0.406551 -0.164170 0.050938
v -0.395218 -0.164429 0.068665
v -0.385549 -0.164676 0.079322
v -0.368129 -0.165147 0.093756
v -0.347517 -0.165728 0.106562
v -0.324056 -0.166405 0.117997
v -0.272969 -0.167903 0.137461
v -0.215388 -0.169623 0.154188
v -0.171034 -0.170949 0.162898
v -0.112288 -0.172684 0.168752
v -0.051411 -0.174497 0.170609
v 0.022132 -0.176756 0.169969
v 0.083519 -0.178623 0.165427
v 0.143293 -0.180380 0.154092
v 0.201337 -0.182137 0.136068
v 0.257535 -0.184007 0.111459
v 0.334305 -0.186777 0.071658
v 0.385061 -0.188668 0.041219
v 0.407045 -0.189517 0.024230
v 0.417368 -0.189934 0.013458
v 0.423776 -0.190215 0.003146
v 0.387818 0.012403 0.001481
v 0.382109 0.012612 0.011105
v 0.354628 0.013526 0.038191
v 0.314675 0.014834 0.066520
v 0.261527 0.016639 0.096733
v 0.197378 0.018444 0.126253
v 0.135424 0.019609 0.149024
v 0.078132 0.020562 0.163876
v 0.027969 0.021735 0.169635
v -0.045733 0.023926 0.168895
v -0.106305 0.025596 0.163760
v -0.164738 0.027127 0.152712
v -0.209078 0.028253 0.138478
v -0.252997 0.029654 0.121021
v -0.330691 0.032888 0.085237
v -0.404812 0.036114 0.041477
v -0.423790 -0.058209 0.018585
v -0.415963 -0.018084 0.032020
v -0.407172 0.006085 0.034462
v -0.401614 0.105236 0.059803
v -0.398910 0.132718 0.065269
v -0.397566 0.151023 0.066726
v -0.379749 0.182133 0.088697
v -0.371853 0.190345 0.092717
v -0.365876 0.156213 0.093619
v -0.357186 0.116116 0.097467
v -0.347075 0.087051 0.103227
v -0.338571 0.072534 0.107529
v -0.327975 0.061014 0.111777
v -0.306883 0.047685 0.117261
v -0.288503 0.040322 0.119798
v -0.164291 0.027708 0.152005
v -0.104497 0.029335 0.160724
v -0.043153 0.034117 0.162495
v 0.028456 0.044914 0.158691
v 0.099402 0.061812 0.150628
v 0.156384 0.077213 0.137079
v 0.206856 0.090840 0.117706
v 0.262468 0.105129 0.087957
v 0.299410 0.116038 0.061717
v 0.327375 0.125887 0.036057
v 0.346655 0.133274 0.010689
v 0.350650 0.134878 0.001410
v -0.211061 -0.025114 0.147171
v -0.210148 0.000504 0.145031
v 0.023735 -0.125839 0.175937
v 0.026571 -0.033859 0.177317
v 0.027438 -0.001508 0.175523
v 0.261953 0.077747 0.088380
v 0.256989 0.048897 0.089357
v 0.248205 0.019331 0.090761
v 0.229255 -0.024723 0.093392
v 0.213692 -0.052800 0.095311
v 0.187536 -0.091105 0.098120
v 0.159900 -0.122586 0.100468
v 0.132918 -0.144711 0.101927
v 0.112717 -0.155350 0.102755
v 0.090723 -0.162921 0.103893
v 0.067353 -0.167711 0.105256
v 0.030629 -0.170305 0.107535
v 0.005640 -0.169390 0.109087
v -0.031563 -0.164767 0.111251
v -0.067182 -0.157100 0.112961
v -0.099813 -0.147351 0.113931
v -0.124476 -0.137662 0.114250
v -0.157817 -0.119631 0.114486
v -0.186619 -0.097506 0.114690
v -0.203215 -0.080538 0.114952
v -0.224071 -0.051842 0.115751
v -0.235209 -0.030599 0.116680
v -0.247638 0.004349 0.118884
v -0.411804 -0.018267 0.043471
v -0.397176 -0.018841 0.061645
v -0.382325 -0.019396 0.074123
v -0.353245 -0.020446 0.092868
v -0.317012 -0.021703 0.111023
v -0.289447 -0.022628 0.122455
v -0.152402 -0.027122 0.159734
v -0.088975 -0.029553 0.169510
v -0.027183 -0.031951 0.175651
v 0.071557 -0.035469 0.172969
v 0.129275 -0.037877 0.158706
v 0.188303 -0.040445 0.136638
v 0.260358 -0.043310 0.102880
v 0.324788 -0.045960 0.068109
v 0.368675 -0.048126 0.039337
v 0.388000 -0.049183 0.022823
v 0.397151 -0.049719 0.012323
v 0.402862 -0.050084 0.002340
v -0.412930 -0.164361 -0.021393
v -0.408118 -0.164582 -0.034573
v -0.397439 -0.165015 -0.052519
v -0.388165 -0.165365 -0.063391
v -0.371283 -0.165978 -0.078268
v -0.351151 -0.166685 -0.091681
v -0.328123 -0.167477 -0.103909
v -0.277785 -0.169172 -0.125217
v -0.220855 -0.171064 -0.144025
v -0.176850 -0.172481 -0.154342
v -0.118358 -0.174283 -0.162329
v -0.057590 -0.176125 -0.166398
v 0.015928 -0.178391 -0.168432
v 0.077441 -0.180224 -0.166125
v 0.137590 -0.181882 -0.156972
v 0.196257 -0.183476 -0.141071
v 0.253319 -0.185118 -0.118522
v 0.331496 -0.187517 -0.081566
v 0.383333 -0.189123 -0.053040
v 0.405924 -0.189813 -0.036888
v 0.416635 -0.190128 -0.026515
v 0.423417 -0.190310 -0.016453
v -0.406057 0.035786 -0.026440
v -0.333590 0.032124 -0.072854
v -0.257259 0.028532 -0.111429
v -0.214009 0.026954 -0.130470
v -0.170219 0.025683 -0.146307
v -0.112231 0.024035 -0.159474
v -0.051887 0.022304 -0.166809
v 0.021738 0.020094 -0.170229
v 0.072079 0.018968 -0.166301
v 0.129878 0.018148 -0.153551
v 0.192625 0.017192 -0.133055
v 0.257812 0.015660 -0.105890
v 0.312032 0.014138 -0.077688
v 0.352995 0.013095 -0.050930
v 0.381448 0.012438 -0.024950
v 0.387506 0.012321 -0.015561
v 0.350341 0.134797 -0.015415
v 0.346010 0.133104 -0.024497
v 0.325816 0.125476 -0.048946
v 0.296934 0.115385 -0.073330
v 0.259059 0.104231 -0.098009
v 0.202396 0.089665 -0.125560
v 0.151250 0.075860 -0.142938
v 0.093813 0.060339 -0.154240
v 0.022623 0.043377 -0.159535
v -0.049076 0.032557 -0.160606
v -0.110313 0.027802 -0.156543
v -0.169747 0.026270 -0.145623
v -0.292698 0.039217 -0.109008
v -0.310973 0.046607 -0.105870
v -0.331853 0.059991 -0.099746
v -0.342287 0.071554 -0.095224
v -0.350631 0.086114 -0.090754
v -0.360530 0.115235 -0.084908
v -0.369080 0.155369 -0.081131
v -0.375026 0.189509 -0.080341
v -0.382767 0.181338 -0.075955
v -0.399762 0.150445 -0.053045
v -0.401049 0.132155 -0.051364
v -0.403545 0.104728 -0.045537
v -0.408153 0.005827 -0.019054
v -0.416844 -0.018316 -0.016058
v -0.424177 -0.058311 -0.002561
v -0.216299 -0.026494 -0.138567
v -0.215313 -0.000857 -0.136710
v 0.017302 -0.127533 -0.174946
v 0.020071 -0.035572 -0.177317
v 0.020996 -0.003206 -0.175869
v -0.251820 0.003247 -0.109246
v -0.239312 -0.031681 -0.107161
v -0.228144 -0.052915 -0.106435
v -0.207268 -0.081605 -0.106124
v -0.190671 -0.098574 -0.106307
v -0.161876 -0.120701 -0.106945
v -0.128546 -0.138734 -0.107757
v -0.103886 -0.148425 -0.108248
v -0.071240 -0.158169 -0.108382
v -0.035581 -0.165826 -0.107904
v 0.001678 -0.170434 -0.107060
v 0.026707 -0.171338 -0.106417
v 0.063490 -0.168729 -0.105510
v 0.086892 -0.163930 -0.105051
v 0.108912 -0.156352 -0.104792
v 0.129128 -0.145710 -0.104808
v 0.156141 -0.123577 -0.104552
v 0.183839 -0.092079 -0.103524
v 0.210074 -0.053753 -0.102045
v 0.225692 -0.025661 -0.100969
v 0.244718 0.018413 -0.099460
v 0.253542 0.047989 -0.098664
v 0.258534 0.076846 -0.098148
v -0.413107 -0.018611 -0.027651
v -0.399156 -0.019362 -0.046342
v -0.384772 -0.020040 -0.059350
v -0.356398 -0.021276 -0.079137
v -0.320855 -0.022716 -0.098596
v -0.293727 -0.023755 -0.111021
v -0.158139 -0.028634 -0.153253
v -0.095113 -0.031170 -0.165322
v -0.033587 -0.033638 -0.173701
v 0.065185 -0.037147 -0.174606
v 0.123387 -0.039429 -0.162444
v 0.183186 -0.041794 -0.142531
v 0.256429 -0.044345 -0.111410
v 0.322091 -0.046671 -0.079050
v 0.367001 -0.048567 -0.051967
v 0.386918 -0.049467 -0.036210
v 0.396447 -0.049905 -0.026073
v 0.402520 -0.050174 -0.016320
v -0.398913 0.150499 -0.023351
v 0.258946 -0.113659 0.107169
v -0.421741 -0.048035 0.007756
v 0.261998 0.060884 0.092345
v 0.258436 0.059945 -0.101949
v 0.017586 -0.178470 -0.083933
v 0.261371 0.103137 0.041372
v -0.327002 -0.167413 -0.048623
v 0.254874 -0.114731 -0.114966
v -0.373815 0.189473 -0.037314
v 0.254508 -0.185232 -0.061082
v -0.253116 0.027370 0.062743
v -0.385334 0.169995 0.006028
v -0.255246 0.026809 -0.053482
v -0.405898 0.035875 -0.009694
v -0.219598 -0.170970 -0.069625
v -0.101092 -0.148014 0.058316
v 0.260942 -0.013336 0.099806
v -0.416664 -0.018242 -0.004272
v 0.257121 -0.014343 -0.108650
v 0.397242 -0.018971 -0.007056
v -0.372228 0.189891 0.049215
v 0.020688 -0.177652 0.085267
v 0.306122 0.118286 -0.006125
v 0.137470 -0.181948 -0.001538
v -0.103128 -0.148551 -0.052773
v 0.022181 0.031736 -0.164882
v -0.324968 -0.166877 0.062330
v 0.256616 -0.184677 0.053909
v 0.340789 -0.187846 -0.005169
v -0.216865 -0.170250 0.079481
v 0.259667 0.102688 -0.051610
v -0.416223 -0.018126 0.019767
v -0.405275 0.036039 0.024265
v 0.028213 0.033325 0.164163
v -0.397815 0.150788 0.036535
v -0.371211 -0.165721 0.007460
v -0.213225 -0.097369 0.150679
v -0.235634 0.027743 -0.120949
v -0.411111 0.008899 0.007283
v -0.231038 0.028954 0.129750
v -0.099549 -0.174713 0.002670
v -0.272111 -0.169113 0.005719
v -0.218577 -0.098779 -0.141296
v 0.132129 -0.145790 0.050196
v 0.130234 -0.146290 -0.053172
l 1 297 2
l 2 302 3
l 3 4 5 6
l 6 293 7
l 7 8 9 10
l 10 296 11
l 11 12 13 14 15 16 17 18 19
l 19 20 21 22 23 24 25 26
l 26 27 28 29 30 31 32 33 34
l 34 35 36 37 38 39 40 41
l 41 285 42
l 42 43 44
l 44 312 45
l 45 275 46
l 46 47 48
l 48 309 49
l 49 315 50
l 50 314 1
l 48 51 52 53 54 55 56 57
l 57 58 59
l 59 60 61 62 63
l 63 64 65 66 67
l 67 68 69 70 71 72 3
l 7 73 74 75 76 77
l 77 78 79 80 81
l 81 82 83 84 85
l 85 313 86
l 86 87 88
l 88 306 44
l 46 89 90
l 90 91 88
l 88 92 93 94
l 94 95 96
l 96 97 98 99 100 101 102 103 86
l 85 104 105 106 107
l 107 108 109 110 111
l 111 112 113 114 115 10
l 94 308 42
l 41 294 96
l 50 303 59
l 59 310 116
l 116 117 85
l 1 295 63
l 63 118 119
l 119 120 81
l 81 307 107
l 111 121 122 123 124 125 126 127 128
l 128 129 130 131 132 133 134 135 136
l 136 137 138 139 140 141 142 143 86
l 86 284 34
l 45 305 90
l 90 144 145 146 147 148 149 116
l 116 150 151 152 119
l 119 153 154 155 156
l 156 157 158 159 160 161 6
l 11 279 111
l 111 276 77
l 77 290 156
l 156 274 67
l 67 301 2
l 49 300 57
l 26 289 136
l 128 317 19
l 48 162 163 164 165 166 167 168
l 168 169 170
l 170 171 172 173 174
l 174 175 176 177 178
l 178 179 180 181 182 183 3
l 44 287 184
l 184 185 186
l 186 311 187
l 187 188 189 190 191
l 191 192 193 194 195
l 195 196 197 198 199 7
l 10 200 201 202 203 204
l 204 205 206 207 208
l 208 209 210 211 187
l 186 212 213 214 215 216 217 218 219
l 219 220 221
l 221 222 223 184
l 184 224 225
l 225 226 46
l 42 273 221
l 41 282 219
l 50 288 170
l 170 316 227
l 227 228 187
l 1 278 174
l 174 229 230
l 230 231 191
l 191 299 208
l 34 286 186
l 186 232 233 234 235 236 237 238 239
l 239 240 241 242 243 244 245 246 247
l 247 248 249 250 251 252 253 254 204
l 45 291 225
l 225 255 256 257 258 259 260 227
l 227 261 262 263 230
l 230 264 265 266 267
l 267 268 269 270 271 272 6
l 11 304 204
l 204 277 195
l 195 292 267
l 267 281 178
l 178 283 2
l 49 280 168
l 239 298 26
l 19 318 247
