v 0.121622 -0.450003 0.084863
v 0.107788 -0.450257 0.102589
v 0.082677 -0.450659 0.124225
v 0.063646 -0.450934 0.135135
v 0.032721 -0.451342 0.145869
v 0.000208 -0.451728 0.149413
v -0.021644 -0.451964 0.147538
v -0.053632 -0.452273 0.138010
v -0.073815 -0.452441 0.126970
v -0.094433 -0.452528 0.108598
v -0.112734 -0.452476 0.083014
v -0.127072 -0.452307 0.052246
v -0.133616 -0.452139 0.029854
v -0.137691 -0.451818 -0.005047
v -0.135869 -0.451566 -0.028316
v -0.129847 -0.451293 -0.050883
v -0.119136 -0.451003 -0.072149
v -0.102167 -0.450662 -0.094038
v -0.083059 -0.450345 -0.111288
v -0.062315 -0.450052 -0.124174
v -0.029241 -0.449658 -0.135911
v -0.006624 -0.449426 -0.139073
v 0.026892 -0.449123 -0.137502
v 0.058397 -0.448875 -0.129168
v 0.086187 -0.448683 -0.114991
v 0.104010 -0.448628 -0.098296
v 0.120266 -0.448682 -0.073501
v 0.133124 -0.448834 -0.042800
v 0.138905 -0.448982 -0.020134
v 0.142032 -0.449266 0.015538
v 0.139632 -0.449490 0.039487
v 0.133009 -0.449737 0.062812
v 0.122982 -0.361559 0.086371
v 0.106045 -0.361676 0.109341
v 0.087642 -0.361763 0.127291
v 0.068088 -0.361827 0.140526
v 0.037292 -0.361894 0.152211
v 0.016248 -0.361931 0.155003
v -0.015297 -0.361990 0.152461
v -0.045865 -0.362076 0.142764
v -0.074387 -0.362212 0.126948
v -0.095146 -0.362396 0.109404
v -0.114169 -0.362653 0.086020
v -0.129458 -0.362932 0.057737
v -0.136588 -0.363106 0.036626
v -0.141207 -0.363312 0.002273
v -0.139371 -0.363391 -0.022014
v -0.132911 -0.363406 -0.047082
v -0.121235 -0.363343 -0.072652
v -0.107062 -0.363205 -0.094511
v -0.089862 -0.362992 -0.114571
v -0.069811 -0.362720 -0.131741
v -0.054943 -0.362515 -0.141044
v -0.030519 -0.362185 -0.150973
v -0.012896 -0.361958 -0.154439
v 0.005740 -0.361730 -0.155003
v 0.025339 -0.361508 -0.152343
v 0.033625 -0.361512 -0.125731
v 0.043233 -0.361485 -0.104306
v 0.052527 -0.361429 -0.091977
v 0.064055 -0.361336 -0.083064
v 0.079403 -0.361188 -0.075546
v 0.094821 -0.361010 -0.073449
v 0.110778 -0.360801 -0.076572
v 0.127749 -0.360561 -0.084714
v 0.134875 -0.360619 -0.065419
v 0.142141 -0.360748 -0.036828
v 0.144783 -0.360854 -0.018177
v 0.145578 -0.361030 0.008891
v 0.144076 -0.361152 0.026154
v 0.138909 -0.361328 0.050578
v 0.130409 -0.361479 0.072881
v 0.125264 -0.266371 0.088501
v 0.109386 -0.266556 0.109273
v 0.091193 -0.266699 0.125544
v 0.071211 -0.266804 0.137589
v 0.039026 -0.266905 0.148329
v 0.016860 -0.266942 0.151003
v -0.016142 -0.266967 0.148971
v -0.047276 -0.266972 0.140507
v -0.074774 -0.266976 0.126534
v -0.095814 -0.266934 0.108776
v -0.114545 -0.266796 0.084711
v -0.129333 -0.266573 0.055636
v -0.136196 -0.266383 0.034113
v -0.140785 -0.266043 -0.000420
v -0.139336 -0.265785 -0.024379
v -0.133716 -0.265505 -0.048639
v -0.123441 -0.265207 -0.072813
v -0.108916 -0.264911 -0.095275
v -0.100725 -0.264780 -0.104784
v -0.082742 -0.264547 -0.120451
v -0.062964 -0.264355 -0.131774
v -0.052531 -0.264275 -0.135853
v -0.030832 -0.264144 -0.140938
v -0.008363 -0.264055 -0.142050
v 0.025886 -0.263997 -0.136593
v 0.059561 -0.264029 -0.123030
v 0.081009 -0.264100 -0.109732
v 0.099618 -0.264254 -0.092875
v 0.117694 -0.264533 -0.069172
v 0.132863 -0.264899 -0.040103
v 0.142753 -0.265313 -0.007145
v 0.145240 -0.265598 0.016256
v 0.143624 -0.265877 0.040290
v 0.137200 -0.266138 0.064517
v 0.129914 0.042943 0.093874
v 0.123995 0.042873 0.102566
v 0.109348 0.042784 0.114822
v 0.091713 0.042757 0.121076
v 0.072000 0.042778 0.122338
v 0.051116 0.042836 0.119615
v 0.019583 0.042967 0.110264
v -0.009470 0.043114 0.097617
v -0.044054 0.043284 0.078450
v -0.068679 0.043038 0.062472
v -0.091546 0.042731 0.044422
v -0.114279 0.042414 0.021002
v -0.126854 0.042243 0.002801
v -0.135609 0.042136 -0.017194
v -0.139041 0.042118 -0.038746
v -0.135647 0.042219 -0.061618
v -0.130920 0.042321 -0.073475
v -0.118332 0.042566 -0.091667
v -0.102562 0.042843 -0.102769
v -0.084374 0.043141 -0.107801
v -0.064530 0.043444 -0.107785
v -0.043793 0.043742 -0.103743
v -0.012680 0.044150 -0.092363
v 0.016154 0.044472 -0.077667
v 0.046602 0.044692 -0.058872
v 0.072348 0.044530 -0.041479
v 0.095205 0.044283 -0.022859
v 0.117444 0.043966 0.000848
v 0.129430 0.043734 0.019053
v 0.137399 0.043496 0.038880
v 0.139852 0.043263 0.060075
v 0.135292 0.043044 0.082382
v 0.004733 -0.451123 0.008458
v 0.084547 -0.378145 -0.113598
v 0.066547 -0.364877 -0.086749
v 0.063558 -0.353649 -0.082421
v 0.066524 -0.339290 -0.087074
v 0.083508 -0.290826 -0.113260
v 0.018694 0.291327 -0.017655
v -0.002219 0.452032 0.013419
v 0.137936 0.452528 0.102400
v -0.134119 0.156086 -0.074109
v -0.145578 0.450250 -0.077803
v 0.073849 -0.292281 -0.119654
v 0.064755 -0.296196 -0.125697
v 0.056335 -0.302114 -0.131312
v 0.045204 -0.313757 -0.138769
v 0.031553 -0.336749 -0.147997
v 0.026897 -0.350196 -0.151201
v 0.026507 -0.366675 -0.151632
v 0.029648 -0.370676 -0.149617
v 0.040473 -0.375764 -0.142576
v 0.058979 -0.378152 -0.130454
v 0.102651 -0.376662 -0.101572
v 0.117230 -0.372790 -0.091852
v 0.125561 -0.366967 -0.086249
v 0.123563 -0.339846 -0.087244
v 0.110467 -0.312659 -0.095637
v 0.095824 -0.295791 -0.105164
v 0.089638 -0.292115 -0.109221
v 0.082259 -0.277463 -0.111496
v 0.085367 -0.413414 -0.114295
v 0.124123 -0.313965 0.087436
v -0.059414 -0.111846 0.102492
v 0.063805 -0.109704 -0.084302
v -0.127181 -0.111443 -0.073144
v -0.122338 -0.314275 -0.072733
v -0.057202 -0.451063 -0.031845
v -0.120186 -0.407173 -0.072401
v -0.023136 0.247658 0.045934
v 0.122302 -0.405781 0.085617
v -0.074580 -0.314594 0.126741
v 0.063177 -0.450563 0.046661
v 0.045460 -0.449903 -0.053267
v -0.034541 -0.451782 0.067714
v 0.127589 -0.111714 0.091187
v -0.074101 -0.407327 0.126959
l 1 2 3 4 5 6 7 8 9
l 9 10 11 12 13 14 15 16 17
l 17 18 19 20 21 22 23 24 25
l 25 26 27 28 29 30 31 32 1
l 33 34 35 36 37 38 39 40 41
l 41 42 43 44 45 46 47 48 49
l 49 50 51 52 53 54 55 56 57
l 57 58 59 60 61
l 61 62 63 64 65
l 65 66 67 68 69 70 71 72 33
l 73 74 75 76 77 78 79 80 81
l 81 82 83 84 85 86 87 88 89
l 89 90 91 92 93 94 95 96 97 98 99
l 99 100 101 102 103 104 105 106 73
l 107 108 109 110 111 112 113 114 115
l 115 116 117 118 119 120 121 122 123
l 123 124 125 126 127 128 129 130 131
l 131 132 133 134 135 136 137 138 107
l 139 180 25
l 25 168 140
l 140 141 61
l 61 142 143 144
l 144 167 99
l 99 171 131
l 131 145 146
l 146 176 115
l 115 170 81
l 81 178 41
l 41 183 9
l 9 181 139
l 147 107
l 107 182 73
l 73 169 33
l 33 177 1
l 1 179 139
l 139 174 17
l 17 175 49
l 49 173 89
l 89 172 123
l 123 148 149
l 144 150 151 152 153 154 155 57
l 57 156 157 158 159 140
l 140 160 161 162 65
l 65 163 164 165 166 144
l 149 146
l 146 147
