v 0.117445 0.127864 0.000046
v 0.197005 0.122653 0.000117
v 0.295377 0.107403 0.000241
v 0.455829 0.077856 0.000470
v 0.444647 0.026474 0.000526
v 0.434302 -0.012656 0.000569
v 0.420798 -0.052241 0.000616
v 0.409866 -0.076554 0.000647
v 0.397269 -0.097572 0.000677
v 0.382902 -0.113897 0.000705
v 0.366660 -0.124131 0.000729
v 0.357804 -0.126526 0.000740
v 0.342046 -0.127864 0.000755
v 0.316769 -0.127441 0.000773
v 0.210686 -0.118678 0.000804
v 0.059660 -0.107237 0.000806
v -0.094268 -0.092690 0.000725
v -0.306734 -0.070838 0.000479
v -0.455829 -0.050756 0.000349
v -0.432251 -0.032681 0.000329
v -0.401501 -0.014552 0.000305
v -0.365157 0.003360 0.000277
v -0.324799 0.020783 0.000247
v -0.216709 0.060416 0.000165
v -0.086809 0.099839 0.000055
v -0.026482 0.114973 0.000010
v 0.020746 0.123340 0.000001
v 0.071131 0.127590 0.000017
v -0.454848 -0.050944 0.124569
v -0.446303 -0.051521 0.130952
v -0.421842 -0.053148 0.141361
v -0.389266 -0.055289 0.148966
v -0.350630 -0.057806 0.154177
v -0.307990 -0.060559 0.157405
v -0.241018 -0.064826 0.159424
v -0.093734 -0.073692 0.158033
v -0.068276 -0.075151 0.156556
v 0.121048 -0.086032 0.148515
v 0.212552 -0.091215 0.146256
v 0.254259 -0.093602 0.142637
v 0.290755 -0.095724 0.134825
v 0.320424 -0.097460 0.124599
v 0.347951 -0.099077 0.110238
v -0.388886 -0.018056 0.125119
v -0.333905 0.007418 0.126390
v -0.276194 0.031246 0.127952
v -0.237087 0.045176 0.128957
v -0.198094 0.056817 0.129794
v -0.159745 0.065542 0.130345
v -0.122573 0.070729 0.130489
v -0.087106 0.071753 0.130109
v -0.011764 0.069972 0.126681
v 0.042921 0.072231 0.121196
v 0.082684 0.078209 0.114559
v 0.100205 0.083058 0.110392
v 0.115651 0.089375 0.105611
v 0.163687 0.112145 0.089013
v 0.188087 0.119541 0.082476
v 0.200638 0.121233 0.080057
v 0.222379 0.121572 0.077010
v 0.273710 0.117191 0.072069
v 0.324941 0.109604 0.067764
v 0.402963 0.094280 0.061653
v 0.439985 0.087162 0.058884
v -0.094253 -0.091300 0.039575
v -0.094164 -0.087610 0.078793
v -0.093995 -0.081709 0.118304
v -0.092052 -0.041035 0.160844
v -0.090596 -0.010691 0.157880
v -0.089026 0.024488 0.148614
v -0.086971 0.080553 0.114986
v -0.086863 0.089964 0.083152
v -0.086807 0.097630 0.036536
v -0.064696 -0.012203 0.142774
v -0.064938 -0.017560 0.148825
v -0.065460 -0.027886 0.152324
v -0.066907 -0.053187 0.157022
v -0.007759 -0.015457 0.142218
v 0.040669 -0.018216 0.138407
v 0.080821 -0.020502 0.131061
v 0.109410 -0.022130 0.122064
v 0.139688 -0.023854 0.106714
v 0.159671 -0.024983 0.089738
v 0.168337 -0.025467 0.077605
v 0.172422 -0.025689 0.068670
v 0.175865 -0.025856 0.048686
v 0.373854 0.059198 0.085886
v 0.335842 0.010370 0.111540
v 0.316234 -0.009026 0.121684
v 0.302005 -0.019726 0.127320
v 0.277905 -0.032023 0.133939
v 0.259407 -0.037483 0.137044
v 0.238488 -0.040562 0.139036
v 0.214741 -0.041098 0.139856
v 0.124842 -0.037577 0.142863
v 0.454983 0.078600 0.010921
v 0.451872 0.081183 0.025934
v 0.444359 0.086429 0.049234
v 0.414455 0.053273 0.089061
v 0.402217 0.035741 0.102279
v 0.394553 0.023156 0.109190
v 0.383760 0.002816 0.116652
v 0.377008 -0.011788 0.119658
v 0.367504 -0.035375 0.121159
v 0.361560 -0.052289 0.120122
v 0.353190 -0.079561 0.115456
v 0.349398 -0.108961 0.082820
v 0.353549 -0.119274 0.048358
v 0.356768 -0.124931 0.020708
v 0.360454 0.064927 0.048666
v 0.323643 0.068035 0.048668
v 0.237507 0.068912 0.048774
v 0.170830 0.070310 0.048888
v 0.175890 -0.005452 0.048732
v 0.187708 -0.026184 0.048667
v 0.214969 -0.030791 0.048633
v 0.235239 -0.031669 0.048622
v 0.269655 -0.028695 0.048600
v 0.284038 -0.025189 0.048590
v 0.307750 -0.015003 0.048571
v 0.325515 -0.001739 0.048557
v 0.338283 0.013217 0.048550
v 0.350147 0.035796 0.048554
v 0.358406 0.062276 0.048616
v 0.238205 0.070858 0.063276
v 0.240055 0.073958 0.074283
v 0.242869 0.078018 0.082091
v 0.248484 0.085489 0.088452
v 0.252883 0.091111 0.089559
v 0.259991 0.100022 0.087259
v 0.267145 0.108932 0.081095
v 0.282085 0.113401 0.056826
v 0.288976 0.110314 0.038214
v 0.293650 0.108218 0.018573
v 0.214922 -0.032849 0.109234
v 0.214846 -0.035987 0.127796
v 0.214583 -0.047292 0.145597
v 0.214296 -0.055502 0.148282
v 0.213738 -0.068444 0.148599
v 0.211835 -0.102160 0.114052
v 0.211214 -0.111329 0.075154
v 0.210851 -0.116444 0.038941
v 0.360899 0.064886 0.061188
v 0.363310 0.063863 0.072629
v 0.367381 0.062035 0.080296
v 0.388258 0.055856 0.089855
v 0.111133 0.007397 0.119988
v 0.114854 0.074151 0.111679
v 0.115314 0.082820 0.110081
v 0.116421 0.105305 0.085048
v 0.116977 0.117470 0.059342
v 0.117318 0.125209 0.030379
v 0.144920 0.072104 0.081489
v -0.454867 -0.050918 -0.124514
v -0.446323 -0.051494 -0.130899
v -0.421864 -0.053119 -0.141312
v -0.389289 -0.055259 -0.148922
v -0.350654 -0.057775 -0.154140
v -0.308015 -0.060527 -0.157374
v -0.241042 -0.064794 -0.159405
v -0.093759 -0.073660 -0.158039
v -0.068300 -0.075119 -0.156566
v 0.121025 -0.086002 -0.148557
v 0.212529 -0.091185 -0.146313
v 0.254237 -0.093573 -0.142701
v 0.290734 -0.095697 -0.134894
v 0.320405 -0.097435 -0.124675
v 0.347934 -0.099055 -0.110317
v -0.388905 -0.018031 -0.125068
v -0.333925 0.007443 -0.126343
v -0.276213 0.031272 -0.127909
v -0.237107 0.045203 -0.128917
v -0.198114 0.056843 -0.129758
v -0.159766 0.065569 -0.130312
v -0.122593 0.070755 -0.130462
v -0.087126 0.071779 -0.130087
v -0.011783 0.069997 -0.126671
v 0.042903 0.072256 -0.121194
v 0.082667 0.078232 -0.114561
v 0.100188 0.083080 -0.110396
v 0.115635 0.089396 -0.105617
v 0.163673 0.112163 -0.089021
v 0.188074 0.119557 -0.082487
v 0.200626 0.121249 -0.080069
v 0.222367 0.121587 -0.077025
v 0.273699 0.117206 -0.072093
v 0.324930 0.109617 -0.067797
v 0.402954 0.094293 -0.061701
v 0.439976 0.087174 -0.058940
v -0.086813 0.097638 -0.036439
v -0.086876 0.089982 -0.083091
v -0.086989 0.080576 -0.114953
v -0.089049 0.024518 -0.148601
v -0.090620 -0.010659 -0.157873
v -0.092077 -0.041002 -0.160844
v -0.094013 -0.081686 -0.118084
v -0.094176 -0.087593 -0.078072
v -0.094258 -0.091292 -0.038352
v -0.066931 -0.053155 -0.157028
v -0.065484 -0.027855 -0.152325
v -0.064961 -0.017530 -0.148824
v -0.064718 -0.012174 -0.142773
v -0.007781 -0.015428 -0.142226
v 0.040647 -0.018188 -0.138422
v 0.080800 -0.020476 -0.131083
v 0.109391 -0.022105 -0.122092
v 0.139672 -0.023832 -0.106746
v 0.159657 -0.024965 -0.089773
v 0.168326 -0.025451 -0.077642
v 0.172412 -0.025675 -0.068707
v 0.175857 -0.025845 -0.048724
v 0.373840 0.059216 -0.085938
v 0.335826 0.010393 -0.111595
v 0.316215 -0.009001 -0.121740
v 0.301986 -0.019700 -0.127376
v 0.277884 -0.031996 -0.133994
v 0.259386 -0.037455 -0.137097
v 0.238467 -0.040534 -0.139086
v 0.214720 -0.041070 -0.139903
v 0.124819 -0.037548 -0.142896
v 0.454981 0.078602 -0.010042
v 0.451868 0.081189 -0.025275
v 0.444351 0.086439 -0.049074
v 0.414441 0.053291 -0.089120
v 0.402201 0.035762 -0.102339
v 0.394537 0.023178 -0.109252
v 0.383742 0.002839 -0.116716
v 0.376990 -0.011764 -0.119725
v 0.367485 -0.035350 -0.121229
v 0.361541 -0.052265 -0.120194
v 0.353172 -0.079537 -0.115532
v 0.349385 -0.108945 -0.082657
v 0.353542 -0.119264 -0.047542
v 0.356765 -0.124927 -0.019391
v 0.360446 0.064937 -0.048714
v 0.323635 0.068045 -0.048710
v 0.237500 0.068923 -0.048802
v 0.170822 0.070320 -0.048906
v 0.175882 -0.005442 -0.048765
v 0.187700 -0.026174 -0.048707
v 0.214961 -0.030781 -0.048679
v 0.235231 -0.031660 -0.048671
v 0.269647 -0.028685 -0.048653
v 0.284031 -0.025179 -0.048644
v 0.307743 -0.014993 -0.048627
v 0.325508 -0.001729 -0.048613
v 0.338276 0.013226 -0.048605
v 0.350139 0.035806 -0.048606
v 0.358399 0.062286 -0.048665
v 0.293647 0.108222 -0.018170
v 0.288969 0.110322 -0.037986
v 0.282076 0.113413 -0.056772
v 0.267133 0.108948 -0.081120
v 0.259977 0.100040 -0.087284
v 0.252869 0.091129 -0.089585
v 0.248471 0.085508 -0.088479
v 0.242856 0.078035 -0.082118
v 0.240043 0.073973 -0.074311
v 0.238195 0.070871 -0.063304
v 0.210845 -0.116436 -0.037695
v 0.211202 -0.111313 -0.074505
v 0.211818 -0.102137 -0.113937
v 0.213715 -0.068414 -0.148651
v 0.214273 -0.055471 -0.148332
v 0.214561 -0.047262 -0.145645
v 0.214826 -0.035960 -0.127842
v 0.214905 -0.032827 -0.109279
v 0.360890 0.064899 -0.061236
v 0.363299 0.063878 -0.072677
v 0.367369 0.062052 -0.080346
v 0.388244 0.055874 -0.089910
v 0.111114 0.007422 -0.120009
v 0.114836 0.074174 -0.111687
v 0.115297 0.082842 -0.110088
v 0.116408 0.105322 -0.085036
v 0.116967 0.117482 -0.059297
v 0.117313 0.125216 -0.030302
v 0.144907 0.072121 -0.081502
v -0.081005 -0.074422 0.157294
v -0.081029 -0.074390 -0.157302
v 0.204169 0.069611 0.048831
v 0.204161 0.069621 -0.048854
v 0.375603 0.092629 0.000356
v 0.388408 0.076739 0.073769
v 0.388397 0.076754 -0.073819
v -0.455339 -0.050850 0.062459
v 0.427220 0.070217 0.073973
v -0.455348 -0.050837 -0.062083
v 0.421474 0.090721 0.060269
v 0.421465 0.090733 -0.060321
v 0.427209 0.070232 -0.074030
l 1 2 3
l 3 283 4
l 4 5 6 7 8 9 10 11 12
l 12 13 14 15
l 15 16 17
l 17 18 19
l 19 20 21 22 23 24 25
l 25 26 27 28 1
l 19 286 29
l 29 30 31 32 33 34 35 36
l 36 279 37
l 37 38 39
l 39 40 41 42 43
l 29 44 45 46 47 48 49 50 51
l 51 52 53 54 55 56
l 56 57 58 59 60 61
l 61 62 63
l 63 289 64
l 17 65 66 67 36
l 36 68 69 70 51
l 51 71 72 73 25
l 74 75 76
l 76 77 37
l 74 78 79 80 81
l 81 82 83 84 85 86
l 63 284 87
l 87 88 89 90 91 92 93 94
l 94 95 76
l 4 96 97 98 64
l 64 287 99
l 99 100 101 102 103 104 105 106 43
l 43 107 108 109 12
l 110 111 112
l 112 281 113
l 113 114 86
l 86 115 116
l 116 117 118 119 120 121 122 123 124 110
l 112 125 126 127 128 129 130 131 61
l 61 132 133 134 3
l 116 135 136 94
l 94 137 138 139 39
l 39 140 141 142 15
l 110 143 144 145 87
l 87 146 99
l 81 147 148
l 148 149 56
l 56 150 151 152 1
l 113 153 148
l 19 288 154
l 154 155 156 157 158 159 160 161
l 161 280 162
l 162 163 164
l 164 165 166 167 168
l 154 169 170 171 172 173 174 175 176
l 176 177 178 179 180 181
l 181 182 183 184 185 186
l 186 187 188
l 188 290 189
l 25 190 191 192 176
l 176 193 194 195 161
l 161 196 197 198 17
l 162 199 200
l 200 201 202
l 202 203 204 205 206
l 206 207 208 209 210 211
l 188 285 212
l 212 213 214 215 216 217 218 219
l 219 220 200
l 4 221 222 223 189
l 189 291 224
l 224 225 226 227 228 229 230 231 168
l 168 232 233 234 12
l 235 236 237
l 237 282 238
l 238 239 211
l 211 240 241
l 241 242 243 244 245 246 247 248 249 235
l 3 250 251 252 186
l 186 253 254 255 256 257 258 259 237
l 15 260 261 262 164
l 164 263 264 265 219
l 219 266 267 241
l 235 268 269 270 212
l 212 271 224
l 206 272 273
l 273 274 181
l 181 275 276 277 1
l 238 278 273
