v -0.000000 0.051055 -0.201108
v -0.108001 0.044668 -0.202871
v -0.152787 0.045042 -0.204967
v -0.189952 0.029489 -0.199393
v -0.191363 0.002852 -0.200495
v -0.187969 -0.024677 -0.201343
v -0.179789 -0.053910 -0.202018
v -0.166097 -0.086466 -0.202623
v -0.126941 0.062688 0.248496
v -0.178472 0.041764 0.248496
v -0.148935 0.035230 -0.007551
v -0.138368 0.063879 0.023374
v -0.129685 0.084457 0.058495
v -0.122646 0.099048 0.101429
v -0.118607 0.105003 0.146982
v -0.116487 0.100268 0.225391
v -0.111824 0.087117 0.313386
v -0.104076 0.068820 0.394599
v -0.091822 0.043647 0.478625
v -0.134326 0.015530 -0.370649
v -0.133976 -0.036317 -0.371441
v 0.134181 -0.086381 -0.343722
v 0.151375 -0.086732 -0.287280
v 0.163534 -0.086589 -0.223837
v 0.170675 -0.085533 -0.153652
v 0.173746 -0.082599 -0.068839
v -0.000000 -0.085711 -0.388939
v 0.036123 -0.085722 -0.385933
v 0.071293 -0.085797 -0.377080
v 0.104654 -0.086002 -0.362630
v -0.034135 -0.016382 -0.389568
v -0.049408 -0.036279 -0.384013
v -0.053440 -0.067715 -0.382122
v -0.104933 -0.054891 -0.370351
v -0.134148 -0.054589 -0.360104
v -0.059853 -0.070780 -0.380407
v -0.098537 -0.072401 -0.368086
v -0.110939 -0.077894 -0.361190
v -0.118451 -0.086145 -0.353911
v -0.182672 0.011749 0.012519
v -0.178790 0.028509 0.123161
v -0.171875 0.034865 0.239315
v -0.164253 0.030397 0.355738
v -0.158177 0.015619 0.471771
v -0.176198 -0.062516 0.013555
v -0.180299 -0.085695 0.013413
v 0.000000 0.043711 0.481511
v 0.091822 0.043647 0.478625
v 0.081595 0.014591 0.505305
v 0.073386 -0.039796 0.468108
v 0.064124 -0.086040 0.429093
v -0.173746 -0.082599 -0.068839
v -0.175694 -0.065766 -0.003120
v -0.177076 -0.060562 0.067084
v -0.177322 -0.066154 0.147636
v -0.174813 -0.083424 0.247123
v -0.102649 0.065498 0.453312
v -0.091871 0.042874 0.479057
v -0.081595 0.014591 0.505305
v 0.152787 0.045042 -0.204967
v 0.189952 0.029489 -0.199393
v 0.000000 0.109967 0.249509
v 0.111257 0.113999 0.248863
v 0.176809 0.042408 0.248496
v 0.180316 -0.019927 0.248241
v 0.174813 -0.083424 0.247123
v 0.148927 0.035201 -0.007550
v 0.152534 0.044852 -0.124096
v 0.152041 0.044035 -0.228692
v 0.144836 0.034721 -0.318555
v 0.140513 0.026074 -0.348772
v 0.134326 0.015530 -0.370649
v 0.133976 -0.036317 -0.371441
v 0.000000 -0.083470 0.441092
v -0.040710 -0.085090 0.435272
v -0.079044 -0.085652 0.425327
v -0.114454 -0.085446 0.411406
v -0.147892 -0.084671 0.392857
v -0.000000 -0.036317 -0.391492
v 0.133879 -0.036317 -0.371189
v 0.000803 -0.017866 -0.391588
v 0.034135 -0.016382 -0.389568
v 0.047768 -0.036444 -0.384339
v 0.041419 -0.056439 -0.385269
v 0.053440 -0.067715 -0.382122
v 0.059853 -0.070780 -0.380407
v 0.145356 0.035874 -0.313888
v 0.098072 0.019158 -0.359359
v 0.075392 0.007141 -0.375903
v 0.053900 -0.006630 -0.387693
v 0.182703 0.011750 0.012520
v 0.182685 -0.017062 0.013010
v 0.176198 -0.062516 0.013555
v 0.000000 0.059812 0.480954
v 0.097648 0.058993 0.478201
v 0.158177 0.015619 0.471771
v 0.158056 -0.014793 0.458718
v 0.155836 -0.042453 0.440740
v 0.152169 -0.066313 0.418265
v 0.147892 -0.084671 0.392857
v 0.121257 0.015570 0.493183
v 0.108959 0.127256 0.125770
v 0.111785 0.119925 0.205287
v 0.110420 0.106313 0.291360
v 0.105436 0.086728 0.380120
v 0.097342 0.059328 0.478249
v 0.000164 0.046334 -0.035877
v 0.042562 0.046977 -0.034856
v 0.080775 0.045339 -0.029968
v 0.116258 0.041422 -0.020918
v 0.148935 0.035230 -0.007551
v 0.000019 0.066189 0.464979
v -0.049955 0.065811 0.461826
v -0.000000 0.046152 -0.035420
v -0.000000 0.052044 -0.157947
v -0.000000 0.045878 -0.254425
v -0.000000 0.037135 -0.294718
v -0.000000 0.024989 -0.330130
v -0.000000 0.008359 -0.363685
v -0.000000 -0.010831 -0.391739
v -0.111257 0.113999 0.248863
v -0.176809 0.042408 0.248496
v -0.180316 -0.019927 0.248241
v -0.134181 -0.086381 -0.343722
v 0.040710 -0.085090 0.435272
v 0.079044 -0.085652 0.425327
v 0.114454 -0.085446 0.411406
v -0.133879 -0.036317 -0.371189
v -0.000803 -0.017866 -0.391588
v -0.047768 -0.036444 -0.384339
v -0.041419 -0.056439 -0.385269
v -0.145356 0.035874 -0.313888
v -0.098072 0.019158 -0.359359
v -0.075392 0.007141 -0.375903
v -0.053900 -0.006630 -0.387693
v -0.182703 0.011750 0.012520
v -0.182685 -0.017062 0.013010
v -0.097648 0.058993 0.478201
v -0.158056 -0.014793 0.458718
v -0.155836 -0.042453 0.440740
v -0.152169 -0.066313 0.418265
v -0.121257 0.015570 0.493183
v -0.108959 0.127256 0.125770
v -0.111785 0.119925 0.205287
v -0.110420 0.106313 0.291360
v -0.105436 0.086728 0.380120
v -0.097342 0.059328 0.478249
v -0.000164 0.046334 -0.035877
v -0.042562 0.046977 -0.034856
v -0.080775 0.045339 -0.029968
v -0.116258 0.041422 -0.020918
v -0.000019 0.066189 0.464979
v 0.049955 0.065811 0.461826
v 0.102649 0.065498 0.453312
v 0.191363 0.002852 -0.200495
v 0.187969 -0.024677 -0.201343
v 0.179789 -0.053910 -0.202018
v 0.166097 -0.086466 -0.202623
v 0.126941 0.062688 0.248496
v 0.178472 0.041764 0.248496
v 0.138368 0.063879 0.023374
v 0.129685 0.084457 0.058495
v 0.122646 0.099048 0.101429
v 0.118607 0.105003 0.146982
v 0.116487 0.100268 0.225391
v 0.111824 0.087117 0.313386
v 0.104076 0.068820 0.394599
v -0.151375 -0.086732 -0.287280
v -0.163534 -0.086589 -0.223837
v -0.170675 -0.085533 -0.153651
v -0.036123 -0.085722 -0.385933
v -0.071294 -0.085797 -0.377080
v -0.104654 -0.086002 -0.362630
v 0.061222 -0.015817 -0.385443
v 0.049408 -0.036279 -0.384013
v 0.104933 -0.054891 -0.370351
v 0.134148 -0.054589 -0.360104
v 0.098537 -0.072401 -0.368086
v 0.110939 -0.077894 -0.361190
v 0.118451 -0.086145 -0.353911
v 0.182672 0.011749 0.012519
v 0.178790 0.028509 0.123161
v 0.171875 0.034865 0.239315
v 0.164253 0.030397 0.355738
v 0.180299 -0.085695 0.013413
v -0.073386 -0.039796 0.468108
v -0.064124 -0.086040 0.429093
v 0.175694 -0.065766 -0.003120
v 0.177076 -0.060562 0.067084
v 0.177322 -0.066154 0.147636
v 0.091871 0.042874 0.479057
v -0.000000 -0.010756 -0.391580
v -0.000000 -0.084857 -0.389642
v 0.000000 0.059852 0.484637
v 0.000000 0.082809 0.406676
v 0.000000 0.099550 0.327234
v 0.000000 0.110721 0.241390
v 0.000000 0.114194 0.165760
v 0.000000 0.108527 0.111874
v 0.000000 0.096378 0.064240
v -0.000000 0.077316 0.018113
v -0.000000 0.046149 -0.035536
v -0.061222 -0.015817 -0.385443
v -0.148927 0.035201 -0.007550
v -0.152534 0.044852 -0.124096
v -0.152041 0.044035 -0.228692
v -0.144836 0.034721 -0.318555
v -0.140513 0.026074 -0.348772
v 0.000032 -0.010878 -0.391245
v -0.033404 -0.009257 -0.389784
v -0.067884 -0.004160 -0.385756
v -0.153792 0.021870 -0.334787
v -0.170015 0.026521 -0.294140
v -0.181416 0.028994 -0.252433
v -0.188625 0.029548 -0.209869
v -0.192452 0.028272 -0.162692
v -0.192770 0.025057 -0.111006
v -0.183502 0.012197 0.012746
v 0.108001 0.044668 -0.202871
v 0.061215 -0.015824 -0.385388
v 0.094786 -0.020254 -0.379700
v 0.106079 -0.026645 -0.377249
v 0.114115 -0.036198 -0.374620
v -0.061215 -0.015824 -0.385388
v -0.094786 -0.020254 -0.379700
v -0.106079 -0.026645 -0.377249
v -0.114115 -0.036198 -0.374620
v -0.000032 -0.010878 -0.391245
v 0.033404 -0.009257 -0.389784
v 0.067884 -0.004160 -0.385756
v 0.000000 0.059812 0.484755
v 0.000000 0.024342 0.480503
v 0.000000 -0.010604 0.471996
v 0.163295 0.021509 0.009100
v 0.000000 0.128254 0.087473
v -0.028431 0.128146 0.089921
v -0.056351 0.127882 0.097258
v -0.083595 0.127552 0.109470
v -0.183672 -0.083435 0.045559
v -0.182793 -0.083671 0.158621
v -0.171059 -0.083866 0.274598
v 0.183672 -0.083435 0.045559
v 0.182793 -0.083671 0.158621
v 0.171059 -0.083866 0.274598
v -0.163295 0.021509 0.009100
v -0.000000 0.015741 0.477443
v -0.040288 0.015579 0.484585
v -0.000000 -0.062333 -0.390711
v 0.028431 0.128146 0.089921
v 0.056351 0.127882 0.097258
v 0.083595 0.127552 0.109470
v 0.153792 0.021870 -0.334787
v 0.170015 0.026521 -0.294140
v 0.181416 0.028994 -0.252433
v 0.188625 0.029548 -0.209869
v 0.192452 0.028272 -0.162692
v 0.192770 0.025057 -0.111006
v 0.183502 0.012197 0.012746
v 0.040288 0.015579 0.484585
l 1 2 3
l 4 5 6 7 8
l 9 10
l 11 12 13 14 15 16 17 18 19
l 20 21
l 22 23 24 25 26
l 27 28 29 30 22
l 31 32
l 33 34 35
l 36 37 38 39
l 40 41 42 43 44
l 45 46
l 44 19
l 47 48
l 49 50 51
l 52 53 54 55 56
l 57 58 59
l 60 61
l 62 63
l 64 65 66
l 67 68 69 70 71 72
l 73 22
l 74 75 76 77 78
l 79 80
l 81 82
l 83 84
l 85 86
l 87 88 89 90
l 91 92 93
l 94 95
l 96 97 98 99 100
l 49 101 96
l 102 103 104 105 106
l 107 108 109 110 111
l 112 113 57
l 114 115 116 117 118 119 120
l 3 4
l 62 121
l 122 123 56
l 21 124
l 74 125 126 127 100
l 79 128
l 129 31
l 130 131
l 33 36
l 132 133 134 135
l 136 137 45
l 94 138
l 44 139 140 141 78
l 59 142 44
l 143 144 145 146 147
l 148 149 150 151 11
l 152 153 154
l 61 155 156 157 158
l 159 160
l 111 161 162 163 164 165 166 167 48
l 72 73
l 124 168 169 170 52
l 27 171 172 173 124
l 90 174
l 82 175
l 85 176 177
l 86 178 179 180
l 181 182 183 184 96
l 93 185
l 96 48
l 47 19
l 59 186 187
l 26 188 189 190 66
l 154 191 49
l 192 193
l 194 195 196 197 198 199 200 201 202
l 135 203
l 204 205 206 207 208 20
l 209 210 211 20
l 20 212 213 214 215 216 217 218
l 1 219 60
l 220 221 222 223
l 224 225 226 227
l 228 229 230 72
l 231 232 233 74
l 111 234 91
l 235 236 237 238 143
l 52 239 240 241 78
l 26 242 243 244 100
l 11 245 136
l 246 247 59
l 63 159
l 248 84
l 121 9
l 248 131
l 235 249 250 251 102
l 72 252 253 254 255 256 257 258
l 246 259 49
