v -0.000000 0.040798 -0.260742
v 0.074753 0.037436 -0.260905
v 0.153774 0.027198 -0.262123
v -0.183606 0.023567 0.211304
v -0.180411 0.024103 0.211304
v 0.179613 -0.100697 -0.184421
v 0.180454 -0.101125 -0.055834
v 0.184227 -0.097128 0.121795
v 0.168994 -0.095617 -0.416574
v 0.147718 -0.096881 -0.438674
v 0.113359 -0.098197 -0.454904
v 0.063499 -0.098987 -0.464150
v -0.000001 -0.099166 -0.468859
v -0.000000 0.122240 0.044399
v 0.035558 0.122225 0.048333
v 0.070265 0.122178 0.060159
v 0.099312 0.122096 0.078118
v 0.122520 0.121974 0.101706
v 0.000000 0.000640 0.429015
v -0.069838 0.003449 0.425451
v -0.142661 0.004656 0.410205
v 0.000001 0.003856 -0.426372
v -0.102606 0.003604 -0.417953
v -0.001463 -0.081795 -0.463224
v -0.057357 -0.082102 -0.460064
v -0.096833 -0.081896 -0.454159
v -0.124633 -0.081542 -0.445230
v -0.150257 -0.080162 -0.430625
v -0.120039 -0.015191 -0.429326
v -0.154580 -0.019071 -0.413912
v -0.173761 -0.025888 -0.395780
v -0.000000 -0.028457 -0.444530
v -0.070417 -0.028850 -0.439950
v -0.119850 -0.029004 -0.430586
v -0.000000 -0.041748 -0.449012
v -0.063731 -0.041733 -0.445340
v -0.112799 -0.041575 -0.436850
v 0.141847 0.004562 0.410165
v 0.152414 -0.074301 0.377294
v 0.000000 0.098421 0.348082
v -0.110914 0.092407 0.349288
v -0.142480 0.045950 -0.044014
v -0.151206 0.053435 0.068058
v -0.151513 0.056835 0.176346
v -0.144140 0.055465 0.279960
v -0.129053 0.048479 0.382449
v -0.179692 -0.093092 -0.259984
v -0.179692 -0.089714 -0.243074
v -0.179692 -0.078612 -0.227209
v -0.179692 -0.064466 -0.218416
v -0.179692 -0.047439 -0.215439
v -0.179692 -0.030627 -0.219083
v -0.179692 -0.014945 -0.230425
v -0.179692 -0.006369 -0.244718
v -0.179692 -0.003662 -0.261828
v -0.179692 -0.007569 -0.278539
v -0.179692 -0.019149 -0.294035
v -0.179692 -0.033586 -0.302393
v -0.179692 -0.050771 -0.304827
v -0.179692 -0.067379 -0.300659
v -0.179692 -0.080840 -0.290918
v -0.179692 -0.089847 -0.276920
v -0.153774 0.027198 -0.262123
v -0.175682 0.033643 -0.263537
v -0.184115 0.022498 0.181708
v -0.184109 0.025000 0.203654
v -0.184082 0.021116 0.225759
v -0.184017 0.011495 0.246088
v -0.183896 -0.003213 0.262706
v -0.183546 -0.020144 0.273011
v -0.182825 -0.039190 0.278763
v -0.179567 -0.093557 0.279847
v -0.184115 0.024707 0.208195
v -0.184114 0.023899 0.189270
v -0.184111 0.018339 0.172172
v -0.184102 0.007746 0.155870
v -0.184048 -0.007229 0.142124
v -0.183927 -0.024667 0.132452
v -0.183704 -0.045486 0.125893
v -0.182691 -0.097807 0.122399
v -0.079331 0.002535 0.423716
v -0.089699 -0.024230 0.417058
v -0.175105 -0.004887 -0.375517
v -0.175694 0.012584 -0.343964
v -0.175717 0.027915 -0.296204
v -0.175416 0.035811 -0.246842
v -0.174409 0.037031 -0.167353
v -0.171980 0.025188 -0.044267
v -0.170905 0.023870 0.005939
v -0.169635 0.027614 0.063418
v -0.165069 0.044826 0.214676
v -0.160893 0.045203 0.301260
v 0.000000 0.082531 0.379632
v -0.055511 0.082732 0.373341
v -0.113921 0.084190 0.354313
v -0.172325 0.025987 0.333518
v -0.163996 -0.001911 0.362250
v -0.147648 -0.039019 0.393737
v 0.183606 0.023567 0.211304
v 0.180411 0.024103 0.211304
v -0.179569 -0.093557 0.279820
v -0.176113 -0.093751 0.306767
v -0.168820 -0.096189 0.327397
v -0.168994 -0.095617 -0.416574
v -0.147718 -0.096881 -0.438674
v -0.113359 -0.098197 -0.454904
v -0.063499 -0.098987 -0.464150
v 0.000001 -0.099166 -0.468859
v -0.000000 0.045379 -0.136741
v -0.039515 0.045387 -0.130476
v -0.076720 0.045444 -0.112726
v -0.111689 0.045608 -0.083709
v 0.069838 0.003449 0.425451
v 0.142661 0.004656 0.410205
v 0.142480 0.045950 -0.044014
v 0.157603 0.034781 -0.044168
v 0.171845 0.024725 -0.038038
v -0.000000 -0.009547 -0.436540
v 0.069072 -0.009400 -0.433065
v 0.114358 -0.009031 -0.425969
v 0.001463 -0.081795 -0.463224
v 0.057357 -0.082102 -0.460064
v 0.096833 -0.081896 -0.454159
v 0.124633 -0.081542 -0.445230
v 0.150257 -0.080162 -0.430625
v 0.120039 -0.015191 -0.429326
v 0.102606 0.003604 -0.417953
v 0.070417 -0.028850 -0.439950
v 0.119850 -0.029004 -0.430586
v 0.002269 -0.067518 -0.458317
v 0.056568 -0.066807 -0.455023
v 0.101238 -0.064576 -0.447682
v -0.141847 0.004562 0.410165
v -0.152414 -0.074301 0.377294
v 0.000000 -0.098884 0.384215
v 0.069249 -0.098971 0.380246
v 0.105782 -0.098658 0.372055
v 0.142717 -0.097727 0.353375
v 0.168820 -0.096189 0.327397
v 0.151206 0.053435 0.068058
v 0.151513 0.056835 0.176346
v 0.144140 0.055465 0.279960
v 0.129053 0.048479 0.382449
v 0.179692 -0.093092 -0.259984
v 0.179692 -0.089714 -0.243074
v 0.179692 -0.078612 -0.227209
v 0.179692 -0.064466 -0.218416
v 0.179692 -0.047439 -0.215439
v 0.179692 -0.030627 -0.219083
v 0.179692 -0.014945 -0.230425
v 0.179692 -0.006369 -0.244718
v 0.179692 -0.003662 -0.261828
v 0.179692 -0.007569 -0.278539
v 0.179692 -0.019149 -0.294035
v 0.179692 -0.033586 -0.302393
v 0.179692 -0.050771 -0.304827
v 0.179692 -0.067379 -0.300659
v 0.179692 -0.080840 -0.290918
v 0.179692 -0.089847 -0.276920
v 0.175552 -0.097258 -0.338338
v 0.178855 -0.040454 -0.337414
v 0.177916 -0.011460 -0.328071
v 0.176893 0.003456 -0.314741
v 0.175863 0.014564 -0.297547
v 0.175107 0.021592 -0.278115
v 0.174934 0.023801 -0.257622
v 0.175278 0.021110 -0.237333
v 0.175876 0.015168 -0.221533
v 0.176863 0.003650 -0.205046
v 0.177802 -0.009450 -0.194339
v 0.178492 -0.024290 -0.187516
v 0.178946 -0.043465 -0.183591
v 0.178925 -0.100962 -0.183934
v 0.184115 0.022498 0.181708
v 0.184110 0.025000 0.203654
v 0.184082 0.021116 0.225759
v 0.184017 0.011495 0.246088
v 0.183896 -0.003213 0.262706
v 0.183546 -0.020144 0.273011
v 0.182825 -0.039190 0.278763
v 0.179567 -0.093557 0.279847
v 0.149876 0.056980 0.213258
v 0.182626 0.040841 0.212161
v 0.079331 0.002535 0.423716
v 0.089699 -0.024230 0.417058
v 0.074172 -0.074521 0.408267
v 0.069262 -0.098971 0.380244
v 0.055511 0.082732 0.373341
v 0.113921 0.084190 0.354313
v 0.172325 0.025987 0.333518
v 0.163996 -0.001911 0.362250
v 0.147648 -0.039019 0.393737
v 0.000000 0.128992 0.066343
v 0.000000 0.120428 0.205810
v 0.000000 0.097479 0.347762
v -0.000000 0.003520 -0.433506
v -0.000000 -0.099711 -0.466525
v 0.000000 -0.074383 0.413467
v 0.000000 0.138849 0.412579
v 0.000000 0.136028 0.425023
v -0.000043 0.121099 0.211982
v -0.061264 0.119682 0.213866
v -0.128740 0.113269 0.214935
v -0.128754 0.113241 0.214989
v -0.149875 0.056980 0.213258
v -0.122520 0.121974 0.101706
v -0.128032 0.118528 0.159874
v -0.128014 0.112530 0.220246
v -0.122440 0.103963 0.282640
v -0.157603 0.034781 -0.044168
v -0.171845 0.024725 -0.038038
v -0.126714 0.020197 -0.346706
v -0.107255 -0.082058 -0.451098
v -0.137653 -0.050155 -0.432439
v -0.157788 -0.037318 -0.414704
v -0.157830 -0.037370 -0.414630
v -0.150468 -0.080017 -0.430752
v -0.173847 -0.044414 -0.405036
v -0.002157 -0.054254 -0.453643
v -0.062571 -0.053565 -0.449792
v -0.106570 -0.053162 -0.442494
v -0.129003 0.047054 0.382995
v -0.142660 0.004655 0.410204
v -0.069249 -0.098971 0.380246
v -0.105782 -0.098658 0.372055
v -0.142717 -0.097727 0.353375
v -0.153710 -0.074086 0.377479
v -0.000065 0.013623 -0.403109
v -0.045642 0.015451 -0.385189
v -0.089229 0.016115 -0.360684
v -0.179435 -0.004474 0.202208
v -0.179435 -0.007998 0.185792
v -0.179435 -0.017067 0.172361
v -0.179435 -0.030380 0.163169
v -0.179435 -0.046637 0.159469
v -0.179435 -0.063313 0.162209
v -0.179435 -0.077186 0.170656
v -0.179435 -0.088124 0.185990
v -0.179435 -0.091567 0.202341
v -0.179435 -0.088564 0.218938
v -0.179435 -0.079907 0.232666
v -0.179435 -0.064397 0.243368
v -0.179435 -0.047954 0.246553
v -0.179435 -0.031443 0.243288
v -0.179435 -0.017863 0.234424
v -0.179435 -0.007398 0.218742
v -0.159271 0.001883 -0.329352
v -0.150212 0.022826 -0.252275
v -0.145525 0.037178 -0.161528
v -0.180894 -0.100806 -0.032556
v -0.181644 -0.069921 0.015262
v -0.182043 -0.021095 0.068587
v -0.181829 0.000623 0.097138
v -0.181329 0.024601 0.142299
v -0.181506 0.036319 0.180665
v -0.181715 0.040838 0.239488
v -0.177634 0.033020 0.302782
v -0.164002 0.017929 0.363045
v -0.141151 0.004003 0.409705
v -0.120390 -0.032761 0.407149
v -0.074172 -0.074521 0.408267
v -0.069262 -0.098971 0.380244
v -0.143910 0.054811 0.270936
v -0.162344 0.043641 0.304238
v -0.172324 0.025987 0.333517
v -0.146856 0.049392 0.004425
v -0.125920 0.101018 0.088737
v -0.074753 0.037436 -0.260905
v 0.128755 0.113241 0.214989
v -0.179613 -0.100697 -0.184421
v -0.180454 -0.101125 -0.055834
v -0.184227 -0.097128 0.121795
v 0.132356 0.086152 0.024830
v 0.128032 0.118528 0.159874
v 0.128014 0.112530 0.220246
v 0.122440 0.103963 0.282640
v 0.110914 0.092407 0.349288
v 0.180309 -0.040666 -0.035650
v 0.180894 -0.100806 -0.032556
v 0.126714 0.020197 -0.346706
v 0.121114 -0.026686 -0.429716
v 0.107666 -0.055272 -0.443238
v 0.088601 -0.081887 -0.455827
v 0.157829 -0.037370 -0.414630
v 0.150468 -0.080017 -0.430752
v 0.154580 -0.019071 -0.413912
v 0.173761 -0.025888 -0.395780
v 0.002157 -0.054254 -0.453643
v 0.062571 -0.053565 -0.449792
v 0.106570 -0.053162 -0.442494
v 0.129003 0.047054 0.382995
v 0.142660 0.004655 0.410204
v 0.153744 -0.074148 0.377360
v 0.127888 -0.074846 0.393073
v 0.094023 -0.074659 0.404413
v 0.050419 -0.074733 0.411349
v -0.000028 -0.075563 0.414149
v 0.153710 -0.074086 0.377479
v 0.080204 0.003572 -0.420801
v 0.095281 0.022305 -0.326613
v 0.110629 0.035700 -0.231563
v 0.126505 0.043622 -0.135977
v 0.179435 -0.004474 0.202208
v 0.179435 -0.007998 0.185792
v 0.179435 -0.017067 0.172361
v 0.179435 -0.030380 0.163168
v 0.179435 -0.046637 0.159469
v 0.179435 -0.063313 0.162209
v 0.179435 -0.077186 0.170656
v 0.179435 -0.088124 0.185990
v 0.179435 -0.091567 0.202341
v 0.179435 -0.088564 0.218938
v 0.179435 -0.079907 0.232666
v 0.179435 -0.064397 0.243368
v 0.179435 -0.047954 0.246553
v 0.179435 -0.031443 0.243288
v 0.179435 -0.017863 0.234424
v 0.179435 -0.007398 0.218742
v 0.175682 0.033643 -0.263537
v 0.181644 -0.069921 0.015262
v 0.182043 -0.021095 0.068587
v 0.181829 0.000623 0.097138
v 0.181329 0.024601 0.142299
v 0.181506 0.036319 0.180665
v 0.181715 0.040838 0.239488
v 0.177634 0.033020 0.302782
v 0.164002 0.017929 0.363045
v 0.141151 0.004003 0.409705
v 0.120390 -0.032761 0.407149
v 0.143910 0.054811 0.270936
v 0.162344 0.043641 0.304238
v 0.172324 0.025987 0.333517
v 0.125920 0.101018 0.088737
v 0.128797 0.094293 0.246065
v 0.123901 0.089944 0.301938
v -0.000000 0.043424 -0.140125
v -0.000000 0.093034 -0.033847
v 0.000000 0.128914 0.065851
v 0.000000 0.091542 0.373554
v 0.000000 0.048371 0.403938
v -0.000000 0.003860 -0.434537
v -0.000000 0.024768 -0.363373
v -0.000000 0.036920 -0.297122
v -0.000000 0.043186 -0.221136
v -0.000000 0.043415 -0.135463
v 0.000000 0.136014 0.425085
v -0.069072 -0.009400 -0.433065
v -0.114358 -0.009031 -0.425969
v -0.132356 0.086152 0.024830
v 0.039515 0.045387 -0.130476
v 0.076720 0.045444 -0.112726
v 0.111689 0.045608 -0.083709
v -0.002269 -0.067518 -0.458317
v -0.056568 -0.066807 -0.455023
v -0.101238 -0.064576 -0.447682
v -0.182626 0.040841 0.212161
v -0.175552 -0.097258 -0.338338
v -0.121114 -0.026686 -0.429716
v -0.107666 -0.055272 -0.443238
v -0.088601 -0.081887 -0.455827
v -0.128797 0.094293 0.246065
v -0.123901 0.089944 0.301938
v 0.159271 0.001883 -0.329352
v 0.150212 0.022826 -0.252275
v 0.145525 0.037178 -0.161528
v 0.000000 0.097340 0.348250
v 0.000000 0.138736 0.412299
v 0.107255 -0.082058 -0.451098
v 0.137653 -0.050155 -0.432439
v 0.157788 -0.037318 -0.414704
v 0.146856 0.049392 0.004425
v -0.178855 -0.040454 -0.337414
v -0.177916 -0.011460 -0.328071
v -0.176893 0.003456 -0.314741
v -0.175863 0.014564 -0.297547
v -0.175107 0.021592 -0.278115
v -0.174934 0.023801 -0.257622
v -0.175279 0.021110 -0.237333
v -0.175876 0.015168 -0.221533
v -0.176863 0.003650 -0.205046
v -0.177802 -0.009450 -0.194339
v -0.178492 -0.024290 -0.187516
v -0.178946 -0.043465 -0.183591
v -0.178925 -0.100962 -0.183934
v 0.000043 0.121099 0.211982
v 0.061264 0.119682 0.213866
v 0.128740 0.113269 0.214935
v -0.180309 -0.040666 -0.035650
v -0.153744 -0.074148 0.377360
v -0.127888 -0.074846 0.393073
v -0.094023 -0.074659 0.404413
v -0.050418 -0.074733 0.411349
v 0.000028 -0.075563 0.414149
v -0.080204 0.003572 -0.420801
v -0.095281 0.022305 -0.326613
v -0.110629 0.035700 -0.231563
v -0.126505 0.043622 -0.135977
v 0.175105 -0.004887 -0.375517
v 0.175694 0.012584 -0.343964
v 0.175717 0.027915 -0.296204
v 0.175416 0.035811 -0.246842
v 0.174409 0.037031 -0.167353
v 0.171980 0.025188 -0.044267
v 0.170905 0.023870 0.005939
v 0.169635 0.027614 0.063418
v 0.165069 0.044826 0.214676
v 0.160893 0.045203 0.301260
v -0.035558 0.122225 0.048333
v -0.070265 0.122178 0.060159
v -0.099312 0.122096 0.078118
v 0.179569 -0.093557 0.279820
v 0.176113 -0.093751 0.306767
v 0.000000 -0.074382 0.413467
v 0.063731 -0.041733 -0.445340
v 0.112799 -0.041575 -0.436850
v 0.184115 0.024707 0.208195
v 0.184114 0.023899 0.189270
v 0.184111 0.018339 0.172172
v 0.184102 0.007746 0.155870
v 0.184048 -0.007229 0.142124
v 0.183927 -0.024667 0.132451
v 0.183704 -0.045486 0.125893
v 0.182691 -0.097807 0.122399
v 0.000065 0.013623 -0.403109
v 0.045642 0.015451 -0.385189
v 0.089229 0.016115 -0.360684
v -0.000001 0.003856 -0.426372
v 0.173847 -0.044414 -0.405036
l 1 2 3
l 4 5
l 6 7 8
l 9 10 11 12 13
l 14 15 16 17 18
l 19 20 21
l 22 23
l 24 25 26 27 28
l 29 30 31
l 32 33 34
l 35 36 37
l 38 39
l 40 41
l 42 43 44 45 46
l 47 48 49 50 51 52 53 54 55 56 57 58 59 60 61 62 47
l 63 64
l 65 66 67 68 69 70 71 72
l 73 74 75 76 77 78 79 80
l 81 82
l 31 83 84 85 86 87 88 89 90 91 92
l 93 94 95
l 96 97 98
l 99 100
l 101 102 103
l 104 105 106 107 108
l 109 110 111 112 42
l 19 113 114
l 115 116 117
l 118 119 120
l 121 122 123 124 125
l 126 127
l 32 128 129
l 130 131 132
l 133 134
l 135 136 137 138 139
l 115 140 141 142 143
l 144 145 146 147 148 149 150 151 152 153 154 155 156 157 158 159 144
l 160 161 162 163 164 165 166 167 168 169 170 171 172 173
l 174 175 176 177 178 179 180 181
l 182 183
l 184 185
l 186 187
l 93 188 189
l 190 191 192
l 193 194 195
l 196 197
l 19 198
l 199 200
l 201 202 203
l 204 205
l 9 160
l 206 207 208 209 41
l 42 210 211
l 63 212 23
l 213 214 215
l 216 217
l 31 218 104
l 219 220 221
l 95 222 223
l 135 224 225 226 103
l 227 103
l 228 229 230
l 231 232 233 234 235 236 237 238 239 240 241 242 243 244 245 246 231
l 31 247 248 249 42
l 250 251 252 253 254 255 256 257 258 259
l 98 260 82
l 261 262
l 263 264 265
l 266 267
l 1 268 63
l 269 182
l 270 271 272
l 18 273 115
l 18 274 275 276 277
l 117 278 279
l 3 280 127
l 281 282 283
l 284 285
l 126 286 287
l 288 289 290
l 189 291 292
l 293 294 295 296 297
l 298 139
l 299 300 301 302 115
l 303 304 305 306 307 308 309 310 311 312 313 314 315 316 317 318 303
l 3 319
l 279 320 321 322 323 324 325 326 327 328
l 192 329 185
l 185 186
l 330 331 332
l 333 334 335 189
l 336 337 338
l 339 340 19
l 341 342 343 344 345
l 339 346
l 118 347 348
l 206 349 42
l 109 350 351 352 115
l 353 354 355
l 205 356
l 104 357
l 358 359 360
l 267 361 362 95
l 40 277
l 287 363 364 365 115
l 366 367
l 368 369 370
l 371 333
l 357 372 373 374 375 376 377 378 379 380 381 382 383 384
l 385 386 387
l 211 388 250
l 389 390 391 392 393
l 394 395 396 397 42
l 287 398 399 400 401 402 403 404 405 406 407
l 82 261
l 14 408 409 410 206
l 411 412 139
l 29 23
l 413 135
l 35 414 415
l 416 417 418 419 420 421 422 423
l 424 425 426
l 427 127
l 287 428 9
