v 0.000000 -0.141973 -0.114837
v 0.074431 -0.141746 -0.119863
v 0.148889 -0.141280 -0.135064
v -0.148517 -0.141279 -0.135226
v -0.226044 -0.141495 -0.098643
v -0.290468 -0.141690 -0.062552
v -0.346675 -0.141849 -0.024640
v -0.396804 -0.141961 0.016648
v -0.161710 -0.081391 -0.175335
v -0.152536 -0.024332 -0.140255
v -0.142438 0.028076 -0.103353
v -0.131655 0.075862 -0.064712
v -0.119889 0.120921 -0.022647
v -0.060447 0.125968 0.190104
v -0.053771 0.083525 0.213912
v -0.048226 0.034367 0.233716
v -0.044118 -0.019134 0.248418
v -0.041194 -0.080688 0.258909
v -0.279510 -0.082452 0.210517
v -0.352231 -0.081732 0.084900
v -0.380205 -0.081755 0.024945
v -0.403059 -0.081929 -0.034217
v 0.090677 -0.080715 -0.163610
v 0.073972 -0.081973 -0.208840
v 0.055571 -0.084054 -0.246333
v 0.000000 0.126646 0.196710
v 0.060447 0.125968 0.190104
v -0.348450 0.104397 0.074344
v -0.324176 0.104145 0.123068
v -0.298409 0.099609 0.172106
v -0.252588 0.110478 0.030550
v -0.158779 -0.055247 -0.159147
v -0.248356 -0.046524 -0.110961
v -0.331383 -0.039347 -0.058269
v -0.294928 0.067444 0.007241
v -0.346396 0.008100 -0.015026
v -0.382442 0.006995 0.006481
v 0.000000 -0.141976 0.266665
v 0.070547 -0.141976 0.262328
v 0.143591 -0.141976 0.249440
v 0.218644 -0.141976 0.228400
v 0.298014 -0.141976 0.198727
v 0.353266 -0.141976 0.112309
v 0.396750 -0.141976 0.016975
v 0.119889 0.120921 -0.022648
v 0.091040 0.129842 0.079648
v 0.000000 -0.081591 0.258569
v 0.068796 -0.081606 0.255450
v 0.137159 -0.081696 0.246470
v 0.207560 -0.081944 0.231496
v 0.279510 -0.082452 0.210517
v 0.000123 -0.081338 -0.154241
v -0.068643 -0.080733 -0.160406
v 0.000020 0.121378 0.000704
v -0.053708 0.121215 -0.005075
v -0.049063 0.121240 -0.004212
v -0.026550 0.120593 -0.075438
v 0.403059 -0.081929 -0.034217
v 0.392930 -0.033163 -0.014028
v 0.380106 0.015280 0.011232
v 0.365096 0.061182 0.040661
v 0.348033 0.104407 0.074114
v 0.298409 0.099609 0.172106
v 0.290961 0.063649 0.187425
v 0.285353 0.021985 0.198855
v 0.281649 -0.025059 0.206301
v 0.125124 0.104078 -0.039043
v 0.294928 0.067444 0.007240
v 0.346414 0.008090 -0.015021
v 0.331400 -0.039345 -0.058258
v -0.298014 -0.141976 0.198727
v -0.353266 -0.141976 0.112309
v -0.396750 -0.141976 0.016975
v -0.221003 -0.081505 -0.148444
v -0.280752 -0.081599 -0.116151
v -0.340750 -0.081718 -0.078561
v -0.000000 -0.081591 -0.258835
v 0.028682 -0.081928 -0.255627
v 0.049063 0.121240 -0.004212
v 0.026550 0.120593 -0.075438
v -0.035156 0.074636 -0.124699
v -0.043011 0.024546 -0.170122
v -0.049944 -0.029268 -0.211266
v -0.055571 -0.084054 -0.246333
v -0.290961 0.063649 0.187425
v -0.285353 0.021985 0.198855
v -0.281649 -0.025059 0.206301
v -0.346429 0.008098 -0.015008
v -0.331384 -0.039337 -0.058261
v -0.060016 0.072466 -0.051364
v -0.071550 0.020835 -0.095104
v -0.081854 -0.029620 -0.131940
v -0.090677 -0.080715 -0.163610
v 0.148517 -0.141279 -0.135226
v 0.226044 -0.141495 -0.098643
v 0.290468 -0.141690 -0.062552
v 0.346675 -0.141849 -0.024640
v 0.396804 -0.141961 0.016648
v 0.149996 -0.123399 -0.136681
v 0.152760 -0.106105 -0.144808
v 0.156793 -0.091614 -0.158152
v 0.161710 -0.081391 -0.175335
v 0.053771 0.083525 0.213912
v 0.048226 0.034367 0.233716
v 0.044118 -0.019134 0.248418
v 0.041194 -0.080688 0.258909
v -0.073972 -0.081973 -0.208840
v 0.000000 0.121353 -0.091683
v 0.348450 0.104397 0.074344
v 0.324176 0.104145 0.123068
v 0.060463 0.125967 0.190105
v 0.116229 0.122954 0.191542
v 0.174262 0.117840 0.188901
v 0.234307 0.110319 0.182427
v 0.158779 -0.055247 -0.159147
v 0.248356 -0.046524 -0.110961
v 0.331383 -0.039347 -0.058269
v 0.346396 0.008100 -0.015027
v 0.382442 0.006995 0.006481
v -0.070547 -0.141976 0.262328
v -0.143591 -0.141976 0.249440
v -0.218644 -0.141976 0.228400
v -0.091040 0.129842 0.079648
v -0.000123 -0.081338 -0.154241
v 0.068643 -0.080733 -0.160406
v -0.000020 0.121378 0.000704
v 0.053708 0.121215 -0.005075
v -0.392930 -0.033163 -0.014028
v -0.380106 0.015280 0.011232
v -0.365096 0.061182 0.040662
v -0.348033 0.104407 0.074114
v -0.125124 0.104078 -0.039043
v -0.331400 -0.039345 -0.058258
v -0.074431 -0.141746 -0.119863
v -0.148889 -0.141280 -0.135064
v 0.152536 -0.024332 -0.140255
v 0.142438 0.028076 -0.103353
v 0.131655 0.075862 -0.064712
v 0.119889 0.120921 -0.022647
v 0.352231 -0.081732 0.084900
v 0.380205 -0.081755 0.024945
v 0.035156 0.074636 -0.124699
v 0.043011 0.024546 -0.170122
v 0.049944 -0.029268 -0.211266
v 0.252588 0.110478 0.030550
v -0.149996 -0.123399 -0.136681
v -0.152760 -0.106105 -0.144808
v -0.156793 -0.091614 -0.158152
v -0.068796 -0.081606 0.255450
v -0.137159 -0.081696 0.246470
v -0.207560 -0.081944 0.231496
v -0.060463 0.125967 0.190105
v -0.116229 0.122954 0.191542
v -0.174262 0.117840 0.188901
v -0.234307 0.110319 0.182427
v -0.346414 0.008090 -0.015021
v 0.221003 -0.081505 -0.148444
v 0.280752 -0.081599 -0.116151
v 0.340750 -0.081718 -0.078561
v -0.028682 -0.081928 -0.255627
v 0.346429 0.008098 -0.015008
v 0.331384 -0.039337 -0.058261
v 0.060016 0.072466 -0.051364
v 0.071550 0.020835 -0.095104
v 0.081854 -0.029620 -0.131940
l 1 2 3
l 4 5 6 7 8
l 9 10 11 12 13
l 14 15 16 17 18
l 19 20 21 22
l 23 24 25
l 26 27
l 28 29 30
l 13 31 28
l 32 33 34
l 35 28
l 36 37
l 38 39 40 41 42
l 42 43 44
l 45 46 27
l 47 48 49 50 51
l 52 53 9
l 54 55 13
l 56 57
l 58 59 60 61 62
l 63 64 65 66 51
l 67 68
l 68 69
l 70 58
l 71 72 73
l 9 74 75 76 22
l 77 78 25
l 79 80
l 57 81 82 83 84
l 30 85 86 87 19
l 88 89
l 56 90 91 92 93
l 94 95 96 97 98
l 3 99 100 101 102
l 27 103 104 105 106
l 93 107 84
l 57 108
l 109 110 63
l 111 112 113 114 63
l 115 116 117
l 118 119
l 38 120 121 122 71
l 13 123 14
l 124 125 102
l 126 127 45
l 22 128 129 130 131
l 132 35
l 133 22
l 1 134 135
l 102 136 137 138 139
l 51 140 141 58
l 26 14
l 80 142 143 144 25
l 45 145 109
l 68 109
l 135 146 147 148 9
l 47 149 150 151 19
l 80 108
l 152 153 154 155 30
l 35 156
l 102 157 158 159 58
l 77 160 84
l 161 162
l 79 163 164 165 23
