v -0.114834 0.047010 -0.215674
v -0.164788 0.038629 -0.215223
v -0.204486 0.019585 -0.212898
v -0.000000 0.041891 -0.215673
v -0.081700 0.038335 -0.215673
v -0.200698 0.017321 0.294077
v -0.149290 0.027286 0.293795
v -0.130921 0.092557 0.089021
v -0.142283 0.068460 0.025405
v -0.149667 0.041374 -0.035053
v -0.000000 0.008749 -0.365942
v -0.047085 0.009054 -0.362907
v -0.090740 0.009559 -0.354253
v -0.000000 -0.115093 -0.410194
v 0.068781 -0.115182 -0.402311
v 0.107832 -0.115302 -0.385033
v 0.143355 -0.115414 -0.352177
v 0.157017 -0.115431 -0.331852
v 0.169868 -0.115393 -0.303924
v 0.177677 -0.115267 -0.274227
v 0.185723 -0.114968 -0.219693
v 0.192430 -0.114543 -0.115848
v 0.188801 -0.114446 -0.017545
v 0.174642 -0.114839 0.086958
v -0.176340 -0.019832 -0.331036
v -0.161135 -0.060835 -0.346943
v -0.090717 0.009365 -0.354147
v -0.104656 -0.008685 -0.359190
v -0.135206 -0.065624 -0.363421
v -0.000587 -0.016483 -0.376971
v -0.082416 -0.015523 -0.367583
v -0.000626 -0.068497 -0.396823
v -0.055474 -0.067138 -0.392132
v -0.097983 -0.064814 -0.380893
v -0.204468 0.014941 -0.039639
v -0.208077 -0.012645 -0.039050
v -0.206547 -0.041583 -0.038323
v -0.187712 -0.113534 -0.036354
v -0.150085 -0.000510 -0.331304
v -0.159003 0.007924 0.431814
v -0.144066 -0.052204 0.426832
v -0.123941 -0.114128 0.410300
v -0.156509 0.009128 0.434800
v -0.151482 0.017401 0.437412
v -0.141432 0.025402 0.442396
v 0.139606 0.042277 0.296054
v 0.118143 0.042277 0.324718
v 0.089645 0.042277 0.343866
v 0.045573 0.042277 0.357671
v 0.000000 0.042277 0.362467
v -0.096243 0.051211 0.325049
v -0.047158 0.049742 0.341926
v 0.001078 -0.026684 0.460885
v 0.080110 -0.024251 0.454905
v 0.093395 -0.049744 0.446167
v 0.150756 -0.027526 0.430288
v 0.166737 -0.021993 0.421475
v 0.179581 -0.016702 0.409241
v 0.189191 -0.011444 0.393936
v 0.195728 -0.005728 0.375365
v -0.196643 -0.086076 -0.037102
v -0.189239 -0.088476 0.009428
v -0.184834 -0.087265 0.053705
v -0.183715 -0.084149 0.099003
v -0.188627 -0.081275 0.129572
v 0.129308 0.090279 0.177312
v 0.097920 0.104753 0.176621
v 0.065895 0.113468 0.176238
v 0.037881 0.114956 0.176154
v 0.000852 0.111050 0.176131
v -0.000803 0.019828 -0.322755
v -0.035085 0.024717 -0.308928
v 0.165397 0.017722 -0.278480
v 0.189513 0.013295 -0.286098
v -0.130147 0.044421 -0.144000
v -0.203644 0.027748 -0.144112
v 0.000000 0.043211 -0.144598
v -0.061707 0.040046 -0.144849
v 0.204486 0.019585 -0.212898
v 0.197992 -0.053385 -0.214929
v 0.181303 -0.117242 -0.215599
v 0.124686 0.071476 0.293358
v 0.070913 0.081524 0.292903
v -0.000035 0.077552 0.293359
v 0.200698 0.017321 0.294077
v 0.197490 -0.054110 0.293441
v 0.190806 -0.085708 0.293370
v 0.180331 -0.115884 0.293359
v 0.000001 0.093918 0.052074
v 0.031386 0.093946 0.054370
v 0.063785 0.093874 0.061306
v 0.096739 0.093507 0.072736
v 0.130921 0.092557 0.089021
v 0.204529 0.014923 -0.039680
v 0.182877 0.009563 0.086806
v 0.068798 0.009417 -0.359533
v 0.094017 0.028511 -0.283972
v 0.116405 0.040494 -0.202607
v 0.134924 0.044687 -0.119356
v 0.149667 0.041374 -0.035053
v 0.000966 -0.001529 -0.370720
v 0.070578 -0.001758 -0.363966
v 0.000331 -0.081702 -0.400750
v 0.047610 -0.078925 -0.397173
v 0.090859 -0.075375 -0.386414
v 0.104656 -0.008685 -0.359190
v 0.139449 -0.010801 -0.347763
v 0.129609 0.015806 -0.315807
v 0.090717 0.009365 -0.354147
v 0.000443 -0.054989 -0.392051
v 0.057879 -0.052713 -0.386890
v 0.106227 -0.051251 -0.374132
v 0.204860 0.014756 -0.039642
v 0.203503 0.028088 -0.150444
v 0.201731 0.028625 -0.196688
v 0.197778 0.025794 -0.239438
v 0.193597 0.020536 -0.266274
v 0.188191 0.010612 -0.291706
v 0.182549 -0.002456 -0.312504
v 0.176295 -0.019821 -0.331031
v 0.176340 -0.019832 -0.331036
v 0.171060 -0.070256 -0.332237
v 0.156284 -0.115532 -0.332859
v -0.156911 0.010058 0.433627
v -0.151015 0.023893 0.329791
v -0.146407 0.032722 0.216119
v -0.145107 0.037954 0.088079
v -0.149436 0.041570 -0.035024
v 0.199019 0.009625 0.189653
v 0.000000 0.019976 0.465375
v 0.076957 0.023551 0.460150
v 0.141432 0.025402 0.442396
v 0.107317 0.074641 0.292935
v 0.096243 0.051211 0.325049
v 0.030702 0.056437 0.331277
v 0.000000 0.056695 0.327075
v -0.064199 0.004748 0.461172
v -0.080530 -0.020976 0.455362
v -0.094440 -0.049306 0.445822
v -0.000266 -0.091848 0.446114
v -0.040269 -0.085851 0.446149
v -0.080537 -0.078337 0.440995
v -0.198358 0.008245 0.366692
v -0.195659 -0.005710 0.375273
v 0.180354 0.011659 0.086839
v 0.185816 -0.060495 0.087207
v 0.182430 -0.088688 0.087179
v 0.041592 0.093865 0.056778
v 0.047547 0.110034 0.107809
v 0.053426 0.113690 0.166065
v 0.058276 0.103869 0.229577
v 0.060711 0.081660 0.292862
v -0.189513 0.013295 -0.286098
v 0.203644 0.027748 -0.144112
v 0.203271 -0.043452 -0.144391
v 0.191281 -0.115073 -0.144554
v 0.061705 0.040055 -0.144823
v 0.130333 0.044389 -0.144001
v -0.000000 0.025078 -0.298013
v -0.000000 0.035715 -0.226078
v -0.000000 0.040119 -0.153444
v -0.000000 0.038563 -0.080615
v -0.000000 -0.052181 -0.393549
v -0.000000 -0.111743 -0.413139
v -0.197992 -0.053385 -0.214929
v -0.181303 -0.117242 -0.215599
v -0.124685 0.071476 0.293358
v -0.070913 0.081524 0.292903
v 0.000035 0.077552 0.293359
v -0.197490 -0.054110 0.293441
v -0.190806 -0.085708 0.293370
v -0.180331 -0.115884 0.293359
v -0.204529 0.014923 -0.039680
v -0.182877 0.009563 0.086806
v -0.068798 0.009417 -0.359533
v -0.094017 0.028511 -0.283972
v -0.116405 0.040494 -0.202607
v -0.134924 0.044687 -0.119356
v -0.000966 -0.001529 -0.370720
v -0.070578 -0.001758 -0.363966
v -0.000331 -0.081702 -0.400750
v -0.047610 -0.078925 -0.397173
v -0.090859 -0.075375 -0.386414
v -0.139449 -0.010801 -0.347763
v -0.165397 0.017722 -0.278480
v -0.129609 0.015806 -0.315807
v -0.000038 -0.036019 -0.385100
v -0.053057 -0.035154 -0.381033
v -0.096508 -0.035324 -0.372069
v -0.204860 0.014756 -0.039642
v -0.203503 0.028088 -0.150444
v -0.201731 0.028625 -0.196688
v -0.197778 0.025794 -0.239438
v -0.193597 0.020536 -0.266274
v -0.188191 0.010612 -0.291706
v -0.182549 -0.002456 -0.312504
v -0.176295 -0.019821 -0.331031
v -0.171060 -0.070256 -0.332237
v -0.156284 -0.115532 -0.332859
v 0.156911 0.010058 0.433627
v 0.151015 0.023893 0.329791
v 0.146407 0.032722 0.216119
v 0.145107 0.037954 0.088079
v 0.149436 0.041570 -0.035024
v -0.199019 0.009625 0.189653
v -0.076957 0.023551 0.460150
v -0.107317 0.074641 0.292935
v -0.030702 0.056437 0.331277
v 0.064199 0.004748 0.461172
v 0.080530 -0.020976 0.455362
v 0.094440 -0.049306 0.445822
v 0.000266 -0.091848 0.446114
v 0.040269 -0.085851 0.446149
v 0.080537 -0.078337 0.440995
v 0.198358 0.008245 0.366692
v 0.195659 -0.005710 0.375273
v -0.180354 0.011659 0.086839
v -0.185816 -0.060495 0.087207
v -0.182430 -0.088688 0.087179
v -0.174642 -0.114839 0.086958
v -0.041592 0.093865 0.056778
v -0.047547 0.110034 0.107809
v -0.053426 0.113690 0.166065
v -0.058276 0.103869 0.229577
v -0.060710 0.081660 0.292862
v 0.150085 -0.000510 -0.331304
v -0.199699 0.008096 0.337234
v -0.200692 0.017160 0.295022
v -0.200280 0.021154 0.257753
v -0.198967 0.019611 0.223933
v -0.198287 0.012865 0.199427
v -0.199096 -0.002270 0.175620
v -0.199465 -0.025732 0.154210
v -0.196563 -0.053806 0.138401
v -0.061705 0.040055 -0.144823
v -0.130333 0.044389 -0.144001
v 0.114834 0.047010 -0.215674
v 0.164788 0.038629 -0.215223
v 0.081700 0.038335 -0.215673
v 0.149290 0.027286 0.293795
v 0.142283 0.068460 0.025405
v 0.047085 0.009054 -0.362907
v 0.090740 0.009559 -0.354253
v -0.068781 -0.115182 -0.402311
v -0.107832 -0.115302 -0.385033
v -0.143355 -0.115414 -0.352177
v -0.157017 -0.115431 -0.331852
v -0.169868 -0.115393 -0.303924
v -0.177677 -0.115267 -0.274227
v -0.185723 -0.114968 -0.219693
v -0.192430 -0.114543 -0.115848
v -0.188801 -0.114446 -0.017545
v 0.161135 -0.060835 -0.346943
v 0.090812 -0.075383 -0.386341
v 0.135206 -0.065624 -0.363421
v 0.000587 -0.016483 -0.376971
v 0.082416 -0.015523 -0.367583
v 0.000626 -0.068497 -0.396823
v 0.055474 -0.067138 -0.392132
v 0.097983 -0.064814 -0.380893
v 0.204468 0.014941 -0.039639
v 0.208077 -0.012645 -0.039050
v 0.206547 -0.041583 -0.038323
v 0.187712 -0.113534 -0.036354
v 0.199699 0.008096 0.337234
v 0.197026 0.008082 0.379941
v 0.192875 0.007901 0.398755
v 0.180678 0.007738 0.416741
v 0.162391 0.007677 0.431373
v 0.132683 0.007851 0.445824
v 0.095631 0.007280 0.456526
v 0.051878 0.004615 0.463271
v -0.000031 0.001906 0.465891
v 0.156509 0.009128 0.434800
v 0.151482 0.017401 0.437412
v -0.139606 0.042277 0.296054
v -0.118143 0.042277 0.324718
v -0.089645 0.042277 0.343866
v -0.045573 0.042277 0.357671
v 0.047158 0.049742 0.341926
v -0.001078 -0.026684 0.460885
v -0.080110 -0.024251 0.454905
v -0.093395 -0.049744 0.446167
v -0.150756 -0.027526 0.430288
v -0.166737 -0.021993 0.421475
v -0.179581 -0.016702 0.409241
v -0.189191 -0.011444 0.393936
v -0.195728 -0.005728 0.375365
v 0.145782 0.036596 0.086805
v 0.182877 0.009562 0.086806
v -0.129308 0.090279 0.177312
v -0.097920 0.104753 0.176621
v -0.065895 0.113468 0.176238
v -0.037881 0.114956 0.176154
v -0.000852 0.111050 0.176131
v 0.000803 0.019828 -0.322755
v 0.035085 0.024717 -0.308928
v 0.130147 0.044421 -0.144000
v 0.061707 0.040046 -0.144849
v 0.000000 -0.040269 0.456844
v 0.000000 -0.116252 0.440072
v -0.089809 -0.025480 -0.370047
v -0.106059 -0.051400 -0.373900
v 0.000375 0.037215 -0.080040
v -0.035405 0.036203 -0.075869
v -0.072424 0.036209 -0.066736
v -0.110223 0.037691 -0.053124
v -0.000001 0.093918 0.052074
v -0.031386 0.093946 0.054370
v -0.063785 0.093874 0.061306
v -0.096739 0.093507 0.072736
v -0.000443 -0.054989 -0.392051
v -0.057879 -0.052713 -0.386890
v -0.106227 -0.051251 -0.374132
v -0.203271 -0.043452 -0.144391
v -0.191281 -0.115073 -0.144554
v -0.090812 -0.075383 -0.386341
v -0.145782 0.036596 0.086805
v -0.182877 0.009562 0.086806
v 0.026032 0.008707 -0.364871
v 0.037566 0.027325 -0.296977
v 0.049787 0.038089 -0.224593
v 0.062273 0.041042 -0.148303
v 0.074940 0.036159 -0.065837
v 0.204529 0.014922 -0.039649
v 0.076869 0.024903 -0.275790
v 0.094417 0.036871 -0.192961
v 0.119709 0.043036 -0.111513
v 0.196643 -0.086076 -0.037102
v 0.189239 -0.088476 0.009428
v 0.184834 -0.087265 0.053705
v 0.183715 -0.084149 0.099003
v 0.188627 -0.081275 0.129572
v -0.000375 0.037215 -0.080040
v 0.035405 0.036203 -0.075869
v 0.072424 0.036209 -0.066736
v 0.110223 0.037691 -0.053124
v 0.128827 0.089072 0.191383
v 0.124878 0.074764 0.281616
v 0.126809 0.048958 0.370178
v -0.026032 0.008707 -0.364871
v -0.037566 0.027325 -0.296977
v -0.049787 0.038089 -0.224593
v -0.062273 0.041042 -0.148303
v -0.074940 0.036159 -0.065837
v 0.182490 -0.115000 0.161423
v 0.185252 -0.115074 0.240962
v 0.180934 -0.115088 0.339213
v 0.174345 -0.114922 0.365796
v 0.163864 -0.114626 0.381074
v 0.149645 -0.114323 0.394332
v 0.105168 -0.114258 0.418949
v 0.052636 -0.115046 0.435944
v -0.204529 0.014922 -0.039649
v -0.197026 0.008082 0.379941
v -0.192875 0.007901 0.398755
v -0.180678 0.007738 0.416741
v -0.162391 0.007677 0.431373
v -0.132683 0.007851 0.445824
v -0.095631 0.007280 0.456526
v -0.051878 0.004615 0.463271
v 0.000031 0.001906 0.465891
v 0.200692 0.017160 0.295022
v 0.200280 0.021154 0.257753
v 0.198967 0.019611 0.223933
v 0.198287 0.012865 0.199427
v 0.199096 -0.002270 0.175620
v 0.199465 -0.025732 0.154210
v 0.196563 -0.053806 0.138401
v -0.128827 0.089072 0.191383
v -0.124878 0.074764 0.281616
v -0.126809 0.048958 0.370178
v 0.094005 -0.048391 0.446094
v -0.076869 0.024903 -0.275790
v -0.094417 0.036871 -0.192961
v -0.119709 0.043036 -0.111513
v -0.124682 0.071411 0.293359
v -0.149289 0.027285 0.293795
v 0.000000 0.043572 0.355944
v 0.000000 0.096669 0.219027
v 0.000000 0.105289 0.185111
v 0.000000 0.108947 0.150521
v 0.000000 0.105987 0.098274
v 0.000000 0.094413 0.046763
v -0.000000 0.075922 -0.002707
v -0.000000 0.038093 -0.081372
v -0.094005 -0.048391 0.446094
v 0.089809 -0.025480 -0.370047
v 0.106059 -0.051400 -0.373900
v 0.159003 0.007924 0.431814
v 0.144066 -0.052204 0.426832
v 0.123942 -0.114128 0.410300
v 0.000038 -0.036019 -0.385100
v 0.053057 -0.035154 -0.381033
v 0.096508 -0.035324 -0.372069
v 0.124682 0.071411 0.293359
v 0.149289 0.027285 0.293795
v -0.182490 -0.115000 0.161423
v -0.185252 -0.115074 0.240962
v -0.180934 -0.115088 0.339213
v -0.174345 -0.114922 0.365796
v -0.163864 -0.114626 0.381074
v -0.149645 -0.114323 0.394332
v -0.105168 -0.114258 0.418949
v -0.052636 -0.115046 0.435944
l 1 2 3
l 4 5 1
l 6 7
l 8 9 10
l 11 12 13
l 14 15 16 17 18 19 20 21 22 23 24
l 25 26
l 27 28
l 29 26
l 30 31
l 32 33 34
l 35 36 37 38
l 39 25
l 40 41 42
l 43 44 45
l 46 47 48 49 50
l 51 52
l 53 54
l 55 56
l 56 57 58 59 60
l 61 62 63 64 65
l 66 67 68 69 70
l 71 72
l 73 74
l 75 76
l 77 78
l 79 80 81
l 82 83 84
l 85 86 87 88
l 89 90 91 92 93
l 94 95
l 96 97 98 99 100
l 101 102
l 103 104 105
l 106 107
l 73 108 109
l 110 111 112
l 113 114 115 116 117 118 119 120
l 121 122 123
l 124 125 126 127 128
l 95 129
l 130 131 132
l 133 134
l 135 136
l 137 138 139
l 140 141 142
l 143 144
l 145 146 147 24
l 148 149 150 151 152
l 153 39
l 154 155 156
l 157 158
l 11 159 160 161 162
l 11 163 164
l 3 165 166
l 167 168 169
l 6 170 171 172
l 173 174
l 175 176 177 178 10
l 179 180
l 181 182 183
l 28 184
l 185 186 27
l 187 188 189
l 190 191 192 193 194 195 196 197
l 25 198 199
l 200 201 202 203 204
l 174 205
l 130 206 45
l 207 51
l 52 208
l 209 210 211
l 212 213 214
l 215 216
l 217 218 219 220
l 221 222 223 224 225
l 74 226
l 227 228 229 230 231 232 233 234 65
l 235 236
l 237 238 79
l 4 239 237
l 85 240
l 93 241 100
l 11 242 243
l 14 244 245 246 247 248 249 250 251 252 220
l 121 253
l 112 254
l 109 106
l 255 253
l 256 257
l 258 259 260
l 261 262 263 264
l 226 121
l 265 266 267 268 269 270 271 272 273
l 274 275 132
l 276 277 278 279 50
l 134 280
l 281 282
l 283 284
l 284 285 286 287 288
l 289 290
l 291 292 293 294 295
l 296 297
l 185 153
l 298 154
l 77 299
l 130 300 301
l 180 302 303
l 304 305 306 307 10
l 308 309 310 311 8
l 312 313 314
l 208 136
l 76 315 316
l 314 317
l 318 319
l 107 255
l 320 321 322 323 324
l 100 325
l 96 326 327 328 100
l 329 330 331 332 333
l 334 335 336 337 100
l 280 135
l 93 338 339 340 132
l 341 342 343 344 345
l 24 346 347 348 349 350 351 352 353 301
l 10 354
l 227 355 356 357 358 359 360 361 362
l 265 363 364 365 366 367 368 369 333
l 8 370 371 372 45
l 373 214
l 175 374 375 376 10
l 377 378
l 184 29
l 130 379 380 381 382 383 384 385 386
l 387 142
l 102 388 389
l 390 391 392
l 393 394 395
l 396 397
l 220 398 399 400 401 402 403 404 405 301
