v 0.000000 -0.267024 -0.105547
v 0.027287 -0.267024 -0.101955
v 0.044559 -0.267024 -0.095669
v 0.074557 -0.267024 -0.074665
v 0.091315 -0.267024 -0.052828
v 0.099084 -0.267024 -0.036170
v 0.105444 -0.267024 -0.000106
v 0.103842 -0.267024 0.018204
v 0.095566 -0.267024 0.044457
v 0.074562 -0.267024 0.074455
v 0.044565 -0.267024 0.095461
v 0.027293 -0.267024 0.101747
v 0.000002 -0.267024 0.105341
v -0.018308 -0.267024 0.103739
v -0.044561 -0.267024 0.095462
v -0.074559 -0.267024 0.074458
v -0.086374 -0.267024 0.060378
v -0.099084 -0.267024 0.035962
v -0.105444 -0.267024 -0.000102
v -0.099085 -0.267024 -0.036166
v -0.091317 -0.267024 -0.052824
v -0.074560 -0.267024 -0.074663
v -0.060480 -0.267024 -0.086477
v -0.036064 -0.267024 -0.099188
v 0.288675 -0.267024 -0.173308
v 0.286589 -0.267024 -0.202261
v 0.280332 -0.267024 -0.227042
v 0.270592 -0.267024 -0.246616
v 0.257580 -0.267024 -0.262055
v 0.241063 -0.267024 -0.273990
v 0.221040 -0.267024 -0.282419
v 0.173205 -0.267024 -0.288778
v 0.173205 0.310326 -0.288778
v 0.288675 0.310326 -0.173308
v -0.173205 -0.267024 -0.288778
v -0.202158 -0.267024 -0.286692
v -0.226939 -0.267024 -0.280435
v -0.246513 -0.267024 -0.270695
v -0.261952 -0.267024 -0.257683
v -0.273887 -0.267024 -0.241166
v -0.282316 -0.267024 -0.221143
v -0.288675 -0.267024 -0.173308
v -0.288675 0.310326 -0.173308
v -0.173205 0.310326 -0.288778
v 0.288675 -0.267024 0.173102
v 0.286589 -0.267024 0.202055
v 0.280332 -0.267024 0.226836
v 0.270592 -0.267024 0.246410
v 0.257580 -0.267024 0.261850
v 0.241063 -0.267024 0.273784
v 0.221040 -0.267024 0.282213
v 0.173205 -0.267024 0.288572
v 0.173205 0.310326 0.288572
v -0.173205 0.310326 0.288572
v -0.288675 -0.267024 0.173102
v -0.286589 -0.267024 0.202055
v -0.280332 -0.267024 0.226836
v -0.270592 -0.267024 0.246410
v -0.257580 -0.267024 0.261850
v -0.241063 -0.267024 0.273784
v -0.221040 -0.267024 0.282213
v -0.173205 -0.267024 0.288572
v -0.288675 0.310326 0.173102
v -0.286589 0.310326 0.202055
v -0.280332 0.310326 0.226836
v -0.270592 0.310326 0.246410
v -0.257580 0.310326 0.261850
v -0.241063 0.310326 0.273784
v -0.221040 0.310326 0.282213
v 0.286589 0.310326 -0.202261
v 0.280332 0.310326 -0.227042
v 0.270592 0.310326 -0.246616
v 0.257580 0.310326 -0.262055
v 0.241063 0.310326 -0.273990
v 0.221040 0.310326 -0.282419
v 0.288675 0.310326 0.173102
v 0.286589 0.310326 0.202055
v 0.280332 0.310326 0.226836
v 0.270592 0.310326 0.246410
v 0.257580 0.310326 0.261850
v 0.241063 0.310326 0.273784
v 0.221040 0.310326 0.282213
v -0.202158 0.310326 -0.286692
v -0.226939 0.310326 -0.280435
v -0.246513 0.310326 -0.270695
v -0.261952 0.310326 -0.257683
v -0.273887 0.310326 -0.241166
v -0.282316 0.310326 -0.221143
v -0.173205 0.021651 -0.288778
v 0.000000 -0.267024 -0.288778
v 0.000000 0.310326 0.288572
v 0.288675 0.021651 -0.173308
v 0.288675 0.021651 0.173102
v 0.000000 0.310326 -0.288778
v -0.288675 0.021651 -0.173308
v 0.173205 0.021651 -0.288778
v -0.173205 0.021651 0.288572
v 0.288675 -0.267024 -0.000103
v 0.173205 0.021651 0.288572
v -0.288675 -0.267024 -0.000103
v -0.288675 0.310326 -0.000103
v 0.000000 -0.267024 0.288572
v 0.288675 0.310326 -0.000103
v -0.288675 0.021651 0.173102
l 1 2 3 4 5 6 7 8 9 10 11 12 13 14 15 16 17 18 19 20 21 22 23 24 1
l 25 26 27 28 29 30 31 32
l 33 96 32
l 34 92 25
l 35 36 37 38 39 40 41 42
l 43 95 42
l 44 89 35
l 45 46 47 48 49 50 51 52
l 53 99 52
l 53 91 54
l 55 56 57 58 59 60 61 62
l 63 64 65 66 67 68 69 54
l 43 101 63
l 34 70 71 72 73 74 75 33
l 76 77 78 79 80 81 82 53
l 44 83 84 85 86 87 88 43
l 34 103 76
l 33 94 44
l 42 100 55
l 52 102 62
l 25 98 45
l 32 90 35
l 63 104 55
l 54 97 62
l 76 93 45
