v 0.037470 0.157327 -0.081873
v 0.035212 0.157327 -0.094682
v 0.026504 0.157327 -0.108351
v 0.012832 0.157327 -0.117062
v 0.000027 0.157327 -0.119320
v -0.012782 0.157327 -0.117062
v -0.026451 0.157327 -0.108351
v -0.035162 0.157327 -0.094682
v -0.037420 0.157327 -0.081873
v -0.035162 0.157327 -0.069068
v -0.026451 0.157327 -0.055396
v -0.012779 0.157327 -0.046688
v 0.000027 0.157327 -0.044430
v 0.015853 0.157327 -0.047939
v 0.026504 0.157327 -0.055399
v 0.033964 0.157327 -0.066050
v 0.108800 -0.001197 0.022993
v 0.108576 0.000643 0.012479
v 0.107703 0.007742 0.001256
v 0.106338 0.018881 -0.005896
v 0.105054 0.029319 -0.007753
v 0.103471 0.042214 -0.004873
v 0.102404 0.050899 0.001252
v 0.101658 0.056977 0.010000
v 0.101307 0.059837 0.022993
v 0.101534 0.057997 0.033507
v 0.102404 0.050899 0.044734
v 0.103471 0.042218 0.050859
v 0.105054 0.029319 0.053739
v 0.106335 0.018881 0.051886
v 0.107703 0.007742 0.044734
v 0.108576 0.000643 0.033510
v 0.102766 0.004403 0.150446
v 0.101892 0.011512 0.133155
v 0.099785 0.028673 0.125996
v 0.097677 0.045834 0.133158
v 0.096804 0.052943 0.150446
v 0.097677 0.045834 0.167738
v 0.099785 0.028673 0.174900
v 0.101892 0.011512 0.167738
v 0.099119 0.082979 -0.170188
v 0.099119 0.082979 0.216173
v 0.046435 0.082424 -0.081873
v 0.042086 0.082424 -0.101490
v 0.032843 0.082424 -0.114690
v 0.019640 0.082424 -0.123936
v 0.000027 0.082424 -0.128285
v -0.019590 0.082424 -0.123936
v -0.032790 0.082424 -0.114690
v -0.042036 0.082424 -0.101487
v -0.046385 0.082424 -0.081873
v -0.042036 0.082424 -0.062260
v -0.032790 0.082424 -0.049057
v -0.015846 0.082424 -0.038262
v 0.000027 0.082424 -0.035465
v 0.019640 0.082424 -0.039814
v 0.032843 0.082424 -0.049060
v 0.042090 0.082424 -0.062264
v 0.099815 -0.027805 -0.253976
v 0.097222 -0.023232 -0.249399
v 0.119171 -0.023232 0.289076
v 0.115635 -0.023232 0.314025
v 0.105592 -0.023232 0.330681
v 0.090549 -0.023232 0.339940
v 0.063486 -0.023232 0.344058
v 0.104388 0.078316 -0.170188
v -0.094389 0.054769 -0.104460
v -0.095336 0.047048 -0.123237
v -0.097624 0.028412 -0.131012
v -0.099912 0.009779 -0.123234
v -0.100859 0.002058 -0.104460
v -0.099912 0.009779 -0.085684
v -0.097624 0.028415 -0.077906
v -0.095336 0.047052 -0.085684
v 0.104960 -0.023232 -0.237283
v 0.054721 -0.023232 -0.260710
v 0.005526 -0.023232 -0.268634
v -0.027692 -0.023232 -0.266691
v -0.056059 -0.023232 -0.260148
v -0.104910 -0.023232 -0.237283
v 0.111035 -0.027042 -0.254099
v 0.115497 -0.027805 -0.263750
v 0.126507 -0.029374 0.288752
v 0.122937 -0.029417 0.315099
v 0.109650 -0.029313 0.337060
v 0.089963 -0.029059 0.348300
v 0.062603 -0.028822 0.352073
v 0.103297 0.000051 -0.104460
v 0.103087 0.001777 -0.114322
v 0.102270 0.008434 -0.124850
v 0.100986 0.018885 -0.131557
v 0.099785 0.028673 -0.133296
v 0.098581 0.038461 -0.131557
v 0.097299 0.048912 -0.124850
v 0.096483 0.055569 -0.114322
v 0.096269 0.057295 -0.104460
v 0.096483 0.055569 -0.094595
v 0.097299 0.048912 -0.084068
v 0.098581 0.038461 -0.077361
v 0.099785 0.028673 -0.075625
v 0.101270 0.016577 -0.078324
v 0.102270 0.008434 -0.084071
v 0.102970 0.002731 -0.092274
v 0.054015 -0.027805 -0.272946
v 0.001679 -0.027805 -0.280269
v -0.050774 -0.027805 -0.273799
v -0.099762 -0.027805 -0.253976
v 0.115136 -0.009195 -0.104460
v 0.114845 -0.006837 -0.117955
v 0.113728 0.002272 -0.132360
v 0.111972 0.016570 -0.141539
v 0.110326 0.029968 -0.143917
v 0.108680 0.043362 -0.141539
v 0.106927 0.057659 -0.132360
v 0.105967 0.065460 -0.121136
v 0.105519 0.069130 -0.104460
v 0.105806 0.066768 -0.090966
v 0.106927 0.057659 -0.076558
v 0.108680 0.043362 -0.067382
v 0.110326 0.029968 -0.065003
v 0.111972 0.016573 -0.067382
v 0.113728 0.002276 -0.076558
v 0.114685 -0.005529 -0.087784
v -0.115106 -0.035331 0.266857
v -0.111972 -0.035285 0.259354
v -0.104589 -0.034408 0.256249
v 0.082470 0.072358 -0.168475
v 0.082470 0.072358 0.214758
v -0.042722 0.152296 -0.081873
v -0.038718 0.152296 -0.099941
v -0.030201 0.152296 -0.112101
v -0.014595 0.152296 -0.122046
v 0.000027 0.152296 -0.124622
v 0.014645 0.152296 -0.122046
v 0.030254 0.152296 -0.112101
v 0.040196 0.152296 -0.096495
v 0.042775 0.152296 -0.081873
v 0.040196 0.152296 -0.067255
v 0.030251 0.152296 -0.051646
v 0.014645 0.152296 -0.041704
v 0.000023 0.152296 -0.039128
v -0.014595 0.152296 -0.041704
v -0.030204 0.152296 -0.051649
v -0.040146 0.152296 -0.067255
v 0.092482 0.079440 0.214758
v 0.092482 0.079440 -0.168475
v 0.057043 0.072358 -0.081873
v 0.051701 0.072358 -0.105969
v 0.040344 0.072358 -0.122190
v 0.019529 0.072358 -0.135451
v 0.000027 0.072358 -0.138893
v -0.024069 0.072358 -0.133551
v -0.040290 0.072358 -0.122193
v -0.051647 0.072358 -0.105972
v -0.056989 0.072358 -0.081877
v -0.053554 0.072358 -0.062374
v -0.040290 0.072358 -0.041560
v -0.024072 0.072358 -0.030200
v 0.000027 0.072358 -0.024857
v 0.024122 0.072358 -0.030200
v 0.040344 0.072358 -0.041557
v 0.051701 0.072358 -0.057778
v -0.082420 0.072358 0.214758
v -0.082420 0.072358 -0.168475
v -0.099012 0.060687 0.022993
v -0.099246 0.058780 0.012098
v -0.100150 0.051424 0.000463
v -0.101253 0.042429 -0.005883
v -0.102896 0.029061 -0.008870
v -0.104535 0.015697 -0.005886
v -0.105642 0.006698 0.000463
v -0.106546 -0.000658 0.012094
v -0.106780 -0.002565 0.022993
v -0.106546 -0.000658 0.033892
v -0.105642 0.006698 0.045523
v -0.104224 0.018242 0.052936
v -0.102896 0.029061 0.054856
v -0.101253 0.042425 0.051872
v -0.100150 0.051424 0.045523
v -0.099246 0.058780 0.033892
v -0.095015 -0.018190 0.245715
v 0.095065 -0.018190 0.245715
v -0.097440 0.082979 0.214758
v -0.097440 0.082979 -0.168475
v 0.126507 -0.029374 -0.242411
v 0.122961 -0.029374 -0.293991
v 0.116585 -0.029374 -0.330414
v 0.094453 -0.029374 -0.400908
v 0.060418 -0.029374 -0.466488
v 0.015512 -0.029374 -0.525164
v -0.105806 -0.025751 0.255794
v 0.105857 -0.025751 0.255794
v 0.078352 0.072358 -0.177815
v 0.039434 0.072358 -0.198575
v -0.004238 0.072358 -0.204771
v -0.047399 0.072358 -0.195658
v -0.078302 0.072358 -0.177815
v 0.063486 -0.044474 0.329527
v 0.083146 -0.044474 0.327091
v 0.095694 -0.044474 0.320029
v 0.102096 -0.044474 0.308669
v 0.104639 -0.044474 0.289076
v -0.126456 -0.029374 -0.242411
v -0.121211 -0.023232 -0.242391
v -0.126456 -0.029364 -0.205011
v -0.121449 -0.023225 -0.205011
v 0.126507 -0.029364 0.224634
v 0.126507 -0.029364 -0.205011
v 0.016378 -0.163976 -0.491420
v 0.095065 -0.023232 0.251215
v -0.095015 -0.023232 0.251215
v -0.121211 -0.023232 -0.211321
v -0.115745 -0.023232 -0.226137
v 0.088796 0.082979 -0.192025
v 0.067617 0.082979 -0.205707
v 0.044385 0.082979 -0.215502
v 0.019807 0.082979 -0.221112
v -0.005376 0.082979 -0.222370
v -0.030391 0.082979 -0.219235
v -0.054484 0.082979 -0.211806
v -0.088742 0.082979 -0.192025
v 0.081714 0.082979 0.230538
v 0.092870 0.082979 0.225915
v 0.097490 0.082979 0.214758
v 0.126507 -0.029374 0.229691
v 0.000147 -0.165859 -0.498867
v -0.008841 -0.165384 -0.496987
v -0.016325 -0.163976 -0.491420
v 0.021266 -0.235654 -0.241675
v 0.021266 -0.235654 0.260601
v 0.046435 0.082424 0.109307
v 0.042086 0.082424 0.089690
v 0.032843 0.082424 0.076490
v 0.019640 0.082424 0.067244
v 0.000027 0.082424 0.062895
v -0.019590 0.082424 0.067244
v -0.032790 0.082424 0.076490
v -0.042036 0.082424 0.089694
v -0.046385 0.082424 0.109307
v -0.042036 0.082424 0.128920
v -0.032790 0.082424 0.142123
v -0.015846 0.082424 0.152918
v 0.000027 0.082424 0.155715
v 0.019640 0.082424 0.151366
v 0.032843 0.082424 0.142120
v 0.042090 0.082424 0.128916
v 0.121499 -0.023225 -0.205011
v 0.121499 -0.023225 0.224634
v 0.087615 0.082979 -0.189640
v 0.053059 0.082979 -0.209591
v 0.029371 0.082979 -0.216800
v 0.004794 0.082979 -0.219784
v -0.019928 0.082979 -0.218456
v -0.044043 0.082979 -0.212853
v -0.066818 0.082979 -0.203151
v -0.087565 0.082979 -0.189640
v -0.099012 0.060687 -0.104460
v -0.099246 0.058780 -0.115356
v -0.100150 0.051424 -0.126991
v -0.101253 0.042429 -0.133336
v -0.102896 0.029061 -0.136324
v -0.104535 0.015697 -0.133340
v -0.105642 0.006698 -0.126991
v -0.106546 -0.000658 -0.115359
v -0.106780 -0.002565 -0.104460
v -0.106546 -0.000658 -0.093562
v -0.105642 0.006698 -0.081930
v -0.104224 0.018242 -0.074517
v -0.102896 0.029061 -0.072597
v -0.101253 0.042425 -0.075581
v -0.100150 0.051424 -0.081930
v -0.099246 0.058780 -0.093562
v 0.109215 -0.004572 -0.104460
v 0.108964 -0.002528 -0.116139
v 0.107997 0.005353 -0.128606
v 0.106479 0.017727 -0.136548
v 0.105054 0.029319 -0.138609
v 0.103632 0.040910 -0.136548
v 0.102113 0.053284 -0.128606
v 0.101284 0.060038 -0.118892
v 0.100892 0.063212 -0.104460
v 0.101284 0.060038 -0.090029
v 0.102113 0.053287 -0.080315
v 0.103632 0.040913 -0.072373
v 0.105054 0.029322 -0.070312
v 0.106813 0.014998 -0.073510
v 0.107997 0.005353 -0.080315
v 0.108827 -0.001397 -0.090029
v -0.007978 -0.027805 -0.518095
v -0.051771 -0.027805 -0.460828
v -0.084956 -0.027805 -0.396827
v -0.106519 -0.027805 -0.328036
v -0.115447 -0.027805 -0.263750
v -0.094389 0.054769 0.022993
v -0.095336 0.047048 0.004216
v -0.097624 0.028412 -0.003558
v -0.099912 0.009779 0.004219
v -0.100859 0.002058 0.022993
v -0.099912 0.009779 0.041770
v -0.097624 0.028415 0.049547
v -0.095336 0.047052 0.041770
v 0.103823 -0.044474 -0.264998
v 0.093245 -0.044474 -0.334271
v 0.070798 -0.044474 -0.400654
v 0.037169 -0.044474 -0.462129
v 0.000027 -0.044474 -0.509692
v -0.099066 0.082979 0.216173
v -0.094446 0.082979 0.227353
v -0.083186 0.082979 0.231996
v 0.081714 0.072358 0.215518
v -0.081664 0.072358 0.215518
v -0.091807 0.079484 -0.195966
v 0.105187 -0.163976 0.281700
v 0.083236 0.082979 0.231996
v 0.094499 0.082979 0.227353
v -0.110393 -0.027042 -0.253731
v -0.105806 -0.023232 0.253138
v 0.105857 -0.023232 0.253138
v -0.096747 0.082979 -0.181595
v -0.099066 0.082979 -0.170188
v -0.011782 -0.023232 -0.521571
v -0.116484 -0.025520 0.289076
v -0.113929 -0.025520 0.310429
v -0.104565 -0.025520 0.327914
v -0.086210 -0.025520 0.338575
v -0.063436 -0.025520 0.341422
v 0.011718 -0.023232 -0.521695
v -0.000010 -0.023232 -0.526836
v -0.011668 -0.023232 -0.521695
v -0.081664 0.079440 0.225530
v 0.081714 0.079440 0.225530
v -0.092432 0.079440 0.214758
v -0.089278 0.079440 0.222375
v -0.042431 -0.044474 -0.453944
v -0.074559 -0.044474 -0.391669
v -0.095386 -0.044474 -0.324761
v -0.103772 -0.044474 -0.264998
v -0.056120 -0.023232 -0.463588
v -0.089719 -0.023232 -0.398791
v -0.111550 -0.023232 -0.329143
v -0.120589 -0.023232 -0.264058
v 0.097490 0.082979 -0.168475
v -0.063436 -0.035331 0.340044
v -0.085461 -0.035331 0.337358
v -0.102063 -0.035331 0.328456
v -0.111600 -0.035331 0.313275
v -0.115106 -0.035331 0.289076
v 0.108683 -0.000220 0.150446
v 0.108462 0.001560 0.140267
v 0.107619 0.008431 0.129401
v 0.106589 0.016834 0.123474
v 0.105054 0.029319 0.120684
v 0.103522 0.041803 0.123474
v 0.102491 0.050210 0.129401
v 0.101648 0.057081 0.140267
v 0.101427 0.058860 0.150446
v 0.101645 0.057081 0.160626
v 0.102491 0.050210 0.171491
v 0.103522 0.041806 0.177422
v 0.105054 0.029319 0.180209
v 0.106589 0.016834 0.177422
v 0.107619 0.008431 0.171491
v 0.108462 0.001560 0.160626
v 0.116538 -0.025520 0.289076
v 0.063486 -0.025520 0.341422
v 0.088404 -0.025520 0.337903
v 0.104699 -0.025520 0.327827
v 0.113530 -0.025520 0.311967
v 0.121261 -0.023232 -0.242391
v -0.015241 -0.204567 -0.474727
v -0.012658 -0.217627 -0.463638
v -0.008721 -0.225973 -0.451160
v -0.004777 -0.231496 -0.432728
v -0.002027 -0.234510 -0.405525
v 0.000027 -0.235654 -0.353600
v -0.104589 -0.044474 0.289076
v -0.111416 -0.041988 0.289076
v 0.015291 -0.204567 -0.474731
v 0.012796 -0.217366 -0.463926
v 0.008781 -0.225966 -0.451177
v 0.004831 -0.231496 -0.432728
v 0.002104 -0.234486 -0.405883
v -0.101120 0.060944 0.150446
v -0.101484 0.057984 0.136982
v -0.102257 0.051681 0.127916
v -0.103361 0.042686 0.121570
v -0.105003 0.029319 0.118583
v -0.106646 0.015954 0.121570
v -0.107750 0.006956 0.127916
v -0.108653 -0.000401 0.139551
v -0.108887 -0.002307 0.150446
v -0.108523 0.000657 0.163914
v -0.107750 0.006959 0.172980
v -0.106332 0.018503 0.180389
v -0.105003 0.029322 0.182310
v -0.103361 0.042686 0.179326
v -0.102257 0.051685 0.172976
v -0.101484 0.057984 0.163911
v 0.105187 -0.163976 -0.242331
v 0.099039 -0.163976 -0.309332
v 0.081821 -0.163976 -0.374377
v 0.054005 -0.163976 -0.435642
v -0.092432 0.079440 -0.168475
v 0.102107 -0.019599 -0.232947
v 0.073622 -0.019599 -0.248319
v 0.042899 -0.019599 -0.258508
v -0.005326 -0.019599 -0.263446
v -0.053183 -0.019599 -0.255739
v -0.102056 -0.019599 -0.232947
v -0.116210 -0.018381 -0.205011
v -0.116210 -0.018381 0.224634
v -0.081664 0.082979 0.230538
v -0.105137 -0.163976 0.281700
v -0.126456 -0.029374 0.288752
v -0.083186 0.078132 0.237289
v -0.098183 0.078450 0.231043
v -0.104338 0.078316 0.216173
v -0.105743 0.066865 0.022993
v -0.106017 0.064641 0.010281
v -0.107071 0.056057 -0.003291
v -0.108359 0.045563 -0.010697
v -0.110276 0.029968 -0.014179
v -0.111824 0.017349 -0.011938
v -0.113477 0.003878 -0.003294
v -0.114531 -0.004706 0.010278
v -0.114805 -0.006930 0.022993
v -0.114531 -0.004706 0.035708
v -0.113477 0.003878 0.049280
v -0.112189 0.014372 0.056683
v -0.110276 0.029968 0.060169
v -0.108359 0.045560 0.056686
v -0.107071 0.056057 0.049280
v -0.106168 0.063406 0.038705
v 0.095443 -0.201589 0.279238
v 0.080985 -0.221828 0.275615
v 0.057635 -0.232469 0.269744
v 0.116264 -0.018381 -0.205011
v 0.063486 -0.035331 0.340044
v -0.053955 -0.163976 -0.435642
v -0.081768 -0.163976 -0.374377
v -0.098989 -0.163976 -0.309332
v -0.105137 -0.163976 -0.242331
v 0.007249 -0.035331 -0.517383
v 0.050928 -0.035331 -0.460263
v 0.084029 -0.035331 -0.396422
v 0.105539 -0.035331 -0.327808
v 0.114320 -0.035331 -0.265674
v -0.126456 -0.029364 0.224634
v -0.121211 -0.023232 0.288752
v 0.057043 0.072358 0.109307
v 0.051701 0.072358 0.085211
v 0.040344 0.072358 0.068990
v 0.019529 0.072358 0.055729
v 0.000027 0.072358 0.052287
v -0.024069 0.072358 0.057629
v -0.040290 0.072358 0.068987
v -0.051647 0.072358 0.085208
v -0.056989 0.072358 0.109303
v -0.053554 0.072358 0.128806
v -0.040290 0.072358 0.149620
v -0.024072 0.072358 0.160980
v 0.000027 0.072358 0.166323
v 0.024122 0.072358 0.160980
v 0.040344 0.072358 0.149623
v 0.051701 0.072358 0.133402
v 0.104639 -0.034408 0.256249
v 0.112079 -0.035288 0.259411
v 0.115156 -0.035331 0.266857
v 0.116264 -0.018381 0.224634
v -0.042722 0.152296 0.109307
v -0.038718 0.152296 0.091239
v -0.030201 0.152296 0.079079
v -0.014595 0.152296 0.069134
v 0.000027 0.152296 0.066558
v 0.014645 0.152296 0.069134
v 0.030254 0.152296 0.079079
v 0.040196 0.152296 0.094685
v 0.042775 0.152296 0.109307
v 0.040196 0.152296 0.123925
v 0.030251 0.152296 0.139534
v 0.014645 0.152296 0.149476
v 0.000023 0.152296 0.152052
v -0.014595 0.152296 0.149476
v -0.030204 0.152296 0.139531
v -0.040146 0.152296 0.123925
v 0.083236 0.078132 0.237289
v -0.098671 -0.035331 -0.255799
v -0.056029 -0.035331 -0.273462
v -0.003486 -0.035331 -0.281306
v 0.049299 -0.035331 -0.275281
v 0.098721 -0.035331 -0.255799
v -0.104338 0.078316 -0.170188
v 0.037470 0.157327 0.109307
v 0.035212 0.157327 0.096498
v 0.026504 0.157327 0.082829
v 0.012832 0.157327 0.074118
v 0.000027 0.157327 0.071860
v -0.012782 0.157327 0.074118
v -0.026451 0.157327 0.082829
v -0.035162 0.157327 0.096498
v -0.037420 0.157327 0.109307
v -0.035162 0.157327 0.122112
v -0.026451 0.157327 0.135784
v -0.012779 0.157327 0.144492
v 0.000027 0.157327 0.146750
v 0.015853 0.157327 0.143241
v 0.026504 0.157327 0.135781
v 0.033964 0.157327 0.125130
v 0.119171 -0.023232 0.266342
v 0.115317 -0.023232 0.257039
v -0.094389 0.054769 0.150446
v -0.095336 0.047048 0.131669
v -0.097624 0.028412 0.123895
v -0.099912 0.009779 0.131673
v -0.100859 0.002058 0.150446
v -0.099912 0.009779 0.169223
v -0.097624 0.028415 0.177001
v -0.095336 0.047052 0.169223
v -0.021212 -0.235654 0.260601
v -0.021212 -0.235654 -0.241675
v 0.049506 -0.023232 -0.268711
v -0.001582 -0.023232 -0.275010
v -0.052564 -0.023232 -0.267878
v -0.097169 -0.023232 -0.249399
v -0.007196 -0.035331 -0.517383
v -0.004757 -0.041875 -0.514783
v -0.104589 -0.044474 0.266857
v -0.111416 -0.041988 0.266857
v 0.111948 -0.023232 0.245247
v 0.121261 -0.023232 0.229691
v -0.105743 0.066865 0.150446
v -0.106017 0.064641 0.137734
v -0.107071 0.056057 0.124163
v -0.108359 0.045563 0.116756
v -0.110276 0.029968 0.113274
v -0.111824 0.017349 0.115515
v -0.113477 0.003878 0.124159
v -0.114531 -0.004706 0.137731
v -0.114805 -0.006930 0.150446
v -0.114531 -0.004706 0.163162
v -0.113477 0.003878 0.176733
v -0.112189 0.014372 0.184136
v -0.110276 0.029968 0.187622
v -0.108359 0.045560 0.184139
v -0.107071 0.056057 0.176733
v -0.106168 0.063406 0.166159
v -0.015462 -0.029374 -0.525164
v -0.047951 -0.029374 -0.484947
v -0.068055 -0.029374 -0.453910
v -0.099788 -0.029374 -0.387186
v -0.119455 -0.029374 -0.315966
v -0.042545 -0.155131 0.345453
v 0.042595 -0.155131 0.345453
v -0.101120 0.060944 0.022993
v -0.101484 0.057984 0.009528
v -0.102257 0.051681 0.000463
v -0.103361 0.042686 -0.005883
v -0.105003 0.029319 -0.008870
v -0.106646 0.015954 -0.005883
v -0.107750 0.006956 0.000463
v -0.108653 -0.000401 0.012098
v -0.108887 -0.002307 0.022993
v -0.108523 0.000657 0.036461
v -0.107750 0.006959 0.045526
v -0.106332 0.018503 0.052936
v -0.105003 0.029322 0.054856
v -0.103361 0.042686 0.051872
v -0.102257 0.051685 0.045523
v -0.101484 0.057984 0.036457
v 0.084527 0.079440 -0.185696
v 0.064513 0.079440 -0.198732
v 0.042541 0.079440 -0.208092
v 0.019275 0.079440 -0.213498
v -0.004576 0.079440 -0.214779
v -0.028287 0.079440 -0.211899
v -0.051135 0.079440 -0.204948
v -0.084477 0.079440 -0.185696
v 0.062603 -0.023232 0.346771
v -0.062549 -0.023232 0.346771
v 0.058976 -0.044474 -0.283574
v 0.003717 -0.044474 -0.291820
v -0.051791 -0.044474 -0.285484
v 0.004807 -0.041875 -0.514783
v -0.011665 -0.023232 -0.521695
v 0.008029 -0.027805 -0.518095
v 0.000515 -0.027805 -0.521614
v 0.104388 0.078316 0.216173
v -0.110583 -0.041988 -0.265436
v -0.114266 -0.035331 -0.265674
v -0.101033 -0.164628 0.309355
v -0.089234 -0.163370 0.329199
v -0.069738 -0.160206 0.341232
v 0.115156 -0.035331 0.289076
v 0.112323 -0.035331 0.311195
v 0.101872 -0.035331 0.328680
v 0.086146 -0.035331 0.337174
v 0.120686 -0.023232 -0.261342
v 0.117782 -0.023232 -0.253654
v 0.111771 -0.023232 -0.248687
v 0.016392 -0.235654 -0.294707
v -0.110128 -0.018522 0.239490
v 0.114721 -0.005820 0.022993
v 0.114310 -0.002468 0.007755
v 0.113433 0.004661 -0.002501
v 0.112182 0.014840 -0.009683
v 0.110326 0.029968 -0.013062
v 0.108824 0.042208 -0.010888
v 0.107218 0.055271 -0.002501
v 0.106198 0.063597 0.010662
v 0.105933 0.065755 0.022993
v 0.106345 0.062403 0.038230
v 0.107218 0.055274 0.048487
v 0.108469 0.045091 0.055673
v 0.110326 0.029968 0.059048
v 0.112182 0.014844 0.055673
v 0.113433 0.004661 0.048490
v 0.114454 -0.003662 0.035327
v -0.063436 -0.023232 0.344058
v -0.112437 -0.019167 -0.221212
v 0.000027 -0.035977 -0.520477
v 0.100377 -0.041744 -0.258783
v -0.117531 -0.023232 0.314630
v -0.106231 -0.023232 0.333012
v -0.089970 -0.023232 0.342707
v 0.109329 -0.036840 -0.256421
v 0.112417 -0.019174 -0.221350
v -0.101484 0.078992 -0.183595
v 0.121261 -0.023232 0.288752
v -0.092817 0.082979 0.225915
v 0.088358 -0.023232 0.343262
v 0.106766 -0.023232 0.332544
v 0.117357 -0.023232 0.315289
v 0.110088 -0.018522 0.239580
v 0.104960 -0.027805 -0.335067
v 0.082196 -0.027805 -0.403474
v 0.047904 -0.027805 -0.466886
v -0.062549 -0.028822 0.352073
v -0.105743 0.066865 -0.104460
v -0.106017 0.064641 -0.117172
v -0.107071 0.056057 -0.130744
v -0.108359 0.045563 -0.138150
v -0.110276 0.029968 -0.141633
v -0.111824 0.017349 -0.139391
v -0.113477 0.003878 -0.130747
v -0.114531 -0.004706 -0.117176
v -0.114805 -0.006930 -0.104460
v -0.114531 -0.004706 -0.091745
v -0.113477 0.003878 -0.078174
v -0.112189 0.014372 -0.070771
v -0.110276 0.029968 -0.067285
v -0.108359 0.045560 -0.070767
v -0.107071 0.056057 -0.078174
v -0.106168 0.063406 -0.088748
v 0.102883 0.003426 0.022993
v 0.101976 0.010823 0.005009
v 0.099785 0.028673 -0.002441
v 0.097594 0.046523 0.005009
v 0.096684 0.053919 0.022993
v 0.097594 0.046523 0.040980
v 0.099785 0.028673 0.048427
v 0.101976 0.010823 0.040977
v -0.126456 -0.029374 0.229691
v -0.121211 -0.023232 0.229691
v -0.101120 0.060944 -0.104460
v -0.101484 0.057984 -0.117925
v -0.102257 0.051681 -0.126991
v -0.103361 0.042686 -0.133336
v -0.105003 0.029319 -0.136324
v -0.106646 0.015954 -0.133336
v -0.107750 0.006956 -0.126991
v -0.108653 -0.000401 -0.115356
v -0.108887 -0.002307 -0.104460
v -0.108523 0.000657 -0.090993
v -0.107750 0.006959 -0.081927
v -0.106332 0.018503 -0.074517
v -0.105003 0.029322 -0.072597
v -0.103361 0.042686 -0.075581
v -0.102257 0.051685 -0.081930
v -0.101484 0.057984 -0.090996
v -0.041166 -0.194267 0.339974
v -0.039768 -0.208380 0.334404
v -0.037493 -0.220095 0.325362
v -0.031228 -0.232121 0.300450
v -0.105378 -0.023232 -0.247258
v -0.112617 -0.023232 -0.249138
v -0.120636 -0.023232 -0.261342
v -0.109168 -0.036840 -0.256354
v -0.069899 0.079484 -0.210120
v -0.045863 0.079484 -0.220249
v -0.020436 0.079484 -0.226056
v 0.005613 0.079484 -0.227358
v 0.031492 0.079484 -0.224116
v 0.056417 0.079484 -0.216429
v 0.091857 0.079484 -0.195966
v 0.111747 -0.041748 0.289076
v 0.114601 -0.004846 0.150446
v 0.114200 -0.001585 0.135627
v 0.113350 0.005350 0.125648
v 0.111788 0.018058 0.117489
v 0.110326 0.029968 0.115375
v 0.108519 0.044680 0.118660
v 0.107305 0.054582 0.125645
v 0.106308 0.062681 0.138450
v 0.106051 0.064778 0.150446
v 0.106308 0.062681 0.162442
v 0.107305 0.054582 0.175248
v 0.108519 0.044680 0.182233
v 0.110326 0.029968 0.185521
v 0.112132 0.015255 0.182236
v 0.113350 0.005350 0.175248
v 0.114200 -0.001585 0.165269
v -0.103415 -0.035331 -0.336757
v -0.080379 -0.035331 -0.404876
v -0.045870 -0.035331 -0.467960
v -0.112226 -0.023232 0.244976
v 0.089331 0.079440 0.222375
v -0.090358 -0.029066 0.348153
v -0.111316 -0.029333 0.335357
v -0.122549 -0.029417 0.316136
v -0.089271 -0.023232 0.340372
v -0.105321 -0.023232 0.330895
v -0.116287 -0.023232 0.311763
v -0.119117 -0.023232 0.289076
v 0.104639 -0.041748 0.259748
v 0.104639 -0.044474 0.266857
v 0.098166 0.078450 0.231113
v 0.069788 -0.160206 0.341232
v 0.089284 -0.163370 0.329199
v 0.101086 -0.164628 0.309355
v -0.095389 -0.201589 0.279238
v -0.080935 -0.221828 0.275615
v -0.057581 -0.232469 0.269744
v -0.102130 -0.044474 0.308401
v -0.094877 -0.044474 0.320775
v -0.082584 -0.044474 0.327238
v -0.063436 -0.044474 0.329527
v 0.041140 -0.195377 0.339656
v 0.039691 -0.209280 0.333902
v 0.037544 -0.220095 0.325362
v 0.031164 -0.232228 0.299978
v 0.090519 0.079440 -0.177925
v -0.121449 -0.023225 0.224634
v -0.099012 0.060687 0.150446
v -0.099246 0.058780 0.139551
v -0.100150 0.051424 0.127916
v -0.101253 0.042429 0.121570
v -0.102896 0.029061 0.118583
v -0.104224 0.018246 0.120506
v -0.105642 0.006698 0.127916
v -0.106546 -0.000658 0.139548
v -0.106780 -0.002565 0.150446
v -0.106546 -0.000658 0.161345
v -0.105642 0.006698 0.172976
v -0.104224 0.018242 0.180389
v -0.102896 0.029061 0.182310
v -0.101253 0.042425 0.179326
v -0.100150 0.051424 0.172976
v -0.099246 0.058780 0.161345
v -0.115263 -0.023232 0.257039
v -0.119117 -0.023232 0.266342
v 0.113484 -0.025530 0.258936
v 0.116538 -0.025520 0.266342
v -0.021215 -0.235654 -0.241675
v -0.060007 -0.231881 -0.241976
v -0.081540 -0.221320 -0.242147
v -0.095342 -0.201703 -0.242254
v 0.095393 -0.201703 -0.242254
v 0.081590 -0.221320 -0.242147
v 0.060057 -0.231881 -0.241976
v -0.104589 -0.041363 0.259344
v 0.120639 -0.023232 -0.264058
v 0.121261 -0.023232 -0.211321
v 0.126507 -0.029374 -0.211321
v 0.116404 -0.023232 -0.225130
v -0.126456 -0.029374 -0.211321
v 0.110915 -0.041744 -0.265453
v -0.016341 -0.235654 -0.294707
v -0.116484 -0.025520 0.266342
v -0.113403 -0.025533 0.258905
v -0.063436 -0.041988 0.336354
v 0.095045 0.082979 -0.180069
v 0.111747 -0.041748 0.266857
v 0.096724 0.082979 -0.181762
v 0.109971 -0.023232 -0.336265
v 0.086926 -0.023232 -0.405521
v 0.052202 -0.023232 -0.469723
v 0.011835 -0.023232 -0.521571
v -0.094981 0.082979 -0.180093
v -0.090418 0.079440 -0.178032
v -0.100324 -0.041744 -0.258783
v -0.000529 -0.029755 -0.531951
v 0.063486 -0.041748 0.336635
v 0.100896 0.079052 -0.184960
v -0.087426 0.075899 -0.168475
v -0.052547 -0.091976 0.348763
v 0.118882 -0.020803 -0.205011
v -0.103483 -0.021415 -0.235115
v -0.121211 -0.023232 0.259221
v -0.117801 -0.024376 0.266342
v 0.099119 0.082979 0.022992
v 0.121380 -0.023228 0.227162
v -0.115796 -0.096675 0.285226
v -0.115795 -0.030426 0.266599
v -0.098466 -0.025518 -0.251688
v -0.086021 0.081209 -0.187668
v -0.095015 -0.020711 0.248465
v 0.104639 -0.044474 0.277967
v 0.000026 -0.023232 0.253138
v 0.000025 -0.044474 0.329527
v 0.094986 0.081209 0.214758
v 0.110326 0.029967 -0.187600
v 0.000025 0.082979 0.231996
v 0.126507 -0.029374 -0.226866
v 0.115847 -0.096675 0.285226
v -0.115796 -0.096675 -0.242371
v -0.123834 -0.026303 0.229691
v 0.000025 -0.023232 0.344058
v -0.121211 -0.023232 -0.226856
v 0.116538 -0.025520 0.277709
v 0.117855 -0.024376 0.266342
v 0.080411 0.072358 -0.173145
v 0.089150 0.029971 0.241502
v 0.062603 -0.026027 0.349422
v -0.080361 0.072358 -0.173145
v 0.083236 0.080556 0.234643
v -0.116210 -0.018381 0.009812
v -0.082420 0.072358 0.023141
v 0.052599 -0.091976 0.348763
v 0.099268 -0.031568 -0.254887
v 0.092482 0.079440 0.023141
v -0.120612 -0.023232 -0.262700
v -0.105806 -0.024491 0.254466
v -0.123953 -0.026294 0.224634
v 0.090327 0.081231 -0.193995
v -0.101702 0.080647 -0.170188
v -0.081390 0.075899 -0.181756
v 0.013615 -0.026303 -0.523429
v -0.121330 -0.023228 0.227162
v 0.123884 -0.026303 0.288752
v 0.000027 -0.235654 0.260601
v 0.104388 0.078316 0.022992
v 0.101753 0.080647 0.216173
v -0.099066 0.082979 0.022992
v 0.021266 -0.235654 0.009463
v 0.094986 0.081209 -0.168475
v -0.126456 -0.029369 0.227162
v 0.000027 -0.023232 0.346771
v 0.105857 -0.024491 0.254466
v 0.000027 -0.028822 0.352073
v -0.126456 -0.029374 -0.226866
v -0.116484 -0.025520 0.277709
v 0.081714 0.075899 0.220524
v -0.117801 -0.024376 0.289076
v 0.116264 -0.018381 0.009812
v -0.123834 -0.026303 0.288752
v -0.007587 -0.031568 -0.517739
v 0.126507 -0.029364 0.009812
v -0.099216 -0.031568 -0.254887
v -0.114857 -0.031568 -0.264712
v -0.123834 -0.026303 -0.242401
v 0.117855 -0.024376 0.289076
v -0.126456 -0.029374 0.259221
v 0.096982 0.029943 -0.214456
v 0.118068 -0.025518 -0.263904
v 0.007639 -0.031568 -0.517739
v 0.000025 -0.034408 0.256249
v -0.062549 -0.026027 0.349422
v 0.105248 -0.030080 0.256022
v -0.121330 -0.023228 -0.208166
v 0.120663 -0.023232 -0.262700
v 0.000025 0.082979 0.230538
v 0.082092 0.072358 0.215138
v 0.121261 -0.023232 0.259221
v -0.094936 0.081209 -0.168475
v -0.121449 -0.023225 0.009812
v -0.090275 0.081231 -0.193995
v -0.123953 -0.026294 -0.205011
v -0.104589 -0.044474 0.277967
v -0.119117 -0.023232 0.277709
v -0.063436 -0.030426 0.340733
v 0.081439 0.075899 -0.181756
v -0.097440 0.082979 0.023141
v 0.011776 -0.023232 -0.521633
v 0.126507 -0.029374 0.259221
v -0.009880 -0.025518 -0.519833
v 0.000025 0.079440 0.225530
v 0.120973 -0.023232 -0.251866
v 0.101753 0.080647 -0.170188
v 0.121380 -0.023228 -0.208166
v -0.126456 -0.029369 -0.208166
v -0.115106 -0.035331 0.277967
v -0.118830 -0.020803 0.224634
v 0.000025 -0.155131 0.345453
v -0.092432 0.079440 0.023141
v 0.086071 0.081209 -0.187668
v -0.126456 -0.029364 0.009812
v 0.097490 0.082979 0.023141
v 0.105187 -0.163976 0.019685
v 0.126507 -0.029369 -0.208166
v 0.123884 -0.026303 -0.242401
v -0.087426 0.075899 0.214758
v -0.118830 -0.020803 -0.205011
v 0.000025 -0.018190 0.245715
v 0.000025 -0.025520 0.341422
v 0.000025 0.078132 0.237289
v 0.082470 0.072358 0.023141
v 0.115847 -0.096675 -0.242371
v -0.104338 0.078316 0.022992
v 0.009932 -0.025518 -0.519833
v 0.087476 0.075899 -0.168475
v 0.087476 0.075899 0.214758
v 0.095065 -0.020711 0.248465
v 0.124003 -0.026294 -0.205011
v -0.105137 -0.163976 0.019685
v 0.000025 -0.023232 0.251215
v -0.120923 -0.023232 -0.251866
v -0.081664 0.075899 0.220524
v 0.098519 -0.025518 -0.251688
v 0.103534 -0.021415 -0.235115
v -0.110274 0.029967 0.220404
v 0.121499 -0.023225 0.009812
v 0.000025 -0.035331 0.340044
v 0.063486 -0.030426 0.340733
v -0.110274 0.029967 -0.187600
v -0.083186 0.080556 0.234643
v 0.115847 -0.030426 0.266599
v 0.124003 -0.026294 0.224634
v 0.110326 0.029967 0.220404
v 0.081714 0.081209 0.228034
v 0.118882 -0.020803 0.224634
v -0.123834 -0.026303 -0.211321
v -0.101702 0.080647 0.216173
v 0.063486 -0.024376 0.342740
v 0.123884 -0.026303 -0.211321
v -0.089100 0.029971 0.241502
v -0.115795 -0.030426 0.289076
v 0.000025 -0.044474 0.266857
v -0.082042 0.072358 0.215138
v 0.115156 -0.035331 0.277967
v -0.081664 0.081209 0.228034
v -0.094936 0.081209 0.214758
v 0.123884 -0.026303 0.229691
v -0.015893 -0.096675 -0.508292
v -0.118018 -0.025518 -0.263904
v -0.096932 0.029943 -0.214456
v 0.114908 -0.031568 -0.264712
v 0.015945 -0.096675 -0.508292
v 0.126507 -0.029369 0.227162
v 0.000025 0.072358 0.215518
v -0.105197 -0.030080 0.256022
v 0.000026 -0.025751 0.255794
v 0.115847 -0.030426 0.289076
v -0.063436 -0.024376 0.342740
v 0.121261 -0.023232 -0.226856
v 0.119171 -0.023232 0.277709
l 1 2 3 4 5 6 7 8 9 10 11 12 13 14 15 16 1
l 17 18 19 20 21 22 23 24 25 26 27 28 29 30 31 32 17
l 33 34 35 36 37 38 39 40 33
l 41 800 42
l 43 44 45 46 47 48 49 50 51 52 53 54 55 56 57 58 43
l 59 918 60
l 61 62 63 64 65
l 41 888 66
l 67 68 69 70 71 72 73 74 67
l 75 76 77 78 79 80
l 59 81 82
l 83 84 85 86 87
l 88 89 90 91 92 93 94 95 96 97 98 99 100 101 102 103 88
l 59 104 105 106 107
l 108 109 110 111 112 113 114 115 116 117 118 119 120 121 122 123 108
l 124 125 126
l 127 906 128
l 129 130 131 132 133 134 135 136 137 138 139 140 141 142 143 144 129
l 145 830 146
l 147 148 149 150 151 152 153 154 155 156 157 158 159 160 161 162 147
l 163 827 164
l 165 166 167 168 169 170 171 172 173 174 175 176 177 178 179 180 165
l 181 903 182
l 183 882 184
l 185 186 187 188 189 190
l 191 951 192
l 193 194 195 196 197
l 198 199 200 201 202
l 203 860 204
l 205 877 206
l 207 857 208
l 209 947 190
l 210 915 211
l 212 213 80
l 214 215 216 217 218 219 220 221
l 222 223 224
l 225 884 83
l 209 226 227 228
l 229 844 230
l 231 232 233 234 235 236 237 238 239 240 241 242 243 244 245 246 231
l 247 921 248
l 249 250 251 252 253 254 255 256
l 257 258 259 260 261 262 263 264 265 266 267 268 269 270 271 272 257
l 273 274 275 276 277 278 279 280 281 282 283 284 285 286 287 288 273
l 289 290 291 292 293
l 294 295 296 297 298 299 300 301 294
l 302 303 304 305 306
l 307 308 309
l 310 949 311
l 221 876 312
l 83 814 313
l 314 315 42
l 293 316 107
l 317 808 318
l 221 319 320
l 321 885 289
l 322 323 324 325 326
l 327 328 329
l 330 886 331
l 332 333 330
l 191 832 317
l 306 334 335 336 337
l 321 338 339 340 341
l 342 897 224
l 343 344 345 346 347
l 348 349 350 351 352 353 354 355 356 357 358 359 360 361 362 363 348
l 61 861 364
l 365 366 367 368 364
l 185 900 369
l 228 370 371 372 373 374 375
l 376 377 347
l 209 378 379 380 381 382 375
l 383 384 385 386 387 388 389 390 391 392 393 394 395 396 397 398 383
l 399 400 401 402 209
l 403 894 332
l 404 405 406 407 408 409
l 403 874 184
l 341 944 293
l 410 826 411
l 412 940 330
l 413 802 414
l 415 416 417
l 418 419 420 421 422 423 424 425 426 427 428 429 430 431 432 433 418
l 327 837 190
l 313 434 435 436 230
l 247 796 437
l 438 922 343
l 181 935 415
l 228 439 440 441 442
l 443 444 445 446 447
l 205 896 448
l 414 855 449
l 450 451 452 453 454 455 456 457 458 459 460 461 462 463 464 465 450
l 466 467 468
l 469 854 437
l 470 471 472 473 474 475 476 477 478 479 480 481 482 483 484 485 470
l 415 905 486
l 487 488 489 490 491
l 145 911 128
l 365 923 438
l 320 835 492
l 493 494 495 496 497 498 499 500 501 502 503 504 505 506 507 508 493
l 509 510 318
l 511 512 513 514 515 516 517 518 511
l 519 520
l 60 521 522 523 524
l 212 818 204
l 318 848 192
l 525 526 306
l 527 528 124
l 210 529 530
l 531 532 533 534 535 536 537 538 539 540 541 542 543 544 545 546 531
l 547 548 549 550 551 203
l 552 893 553
l 224 810 145
l 554 555 556 557 558 559 560 561 562 563 564 565 566 567 568 569 554
l 313 898 399
l 570 571 572 573 574 575 576 577
l 578 847 579
l 302 580 581 582 337
l 443 583 306
l 492 908 417
l 584 547
l 585 586 289
l 587 841 66
l 337 588 589
l 413 590 591 592 552
l 593 594 595 596 438
l 307 843 320
l 597 598 599 60
l 65 933 365
l 375 600 229
l 185 907 399
l 181 601 411
l 222 871 412
l 602 603 604 605 606 607 608 609 610 611 612 613 614 615 616 617 602
l 492 924 410
l 247 913 208
l 65 817 618
l 409 619 410
l 525 620 443
l 365 904 326
l 491 621 302
l 449 622 623 624 579
l 314 812 309
l 447 625 491
l 437 626 404
l 492 627 312
l 83 839 628
l 146 845 342
l 417 932 307
l 183 629 412
l 578 630 631 632 628
l 469 633 182
l 82 634 635 636 585
l 181 806 211
l 326 953 618
l 637 867 579
l 638 639 640 641 642 643 644 645 646 647 648 649 650 651 652 653 638
l 654 655 656 657 658 659 660 661 654
l 409 945 312
l 547 943 228
l 662 816 663
l 87 823 578
l 664 665 666 667 668 669 670 671 672 673 674 675 676 677 678 679 664
l 183 941 332
l 409 797 80
l 552 680 681 682 683 519
l 126 866 466
l 524 684 685 686
l 163 938 311
l 146 910 127
l 487 687 589
l 437 811 66
l 312 688 689 690 691 692 693 694
l 593 695 202
l 696 697 698 699 700 701 702 703 704 705 706 707 708 709 710 711 696
l 589 712 713 714 525
l 553 828 87
l 663 715 211
l 331 716 145
l 331 852 310
l 637 717 718 719 414
l 618 720 721 722 723
l 466 724 725
l 587 726 486
l 553 727 728 729 313
l 164 794 403
l 413 730 731 732 519
l 376 733 734 735 736
l 442 914 413
l 553 737 738 739 740 230
l 570 895 249
l 411 920 417
l 146 741 570
l 742 875 206
l 486 825 314
l 411 892 742
l 248 930 469
l 210 912 182
l 376 878 527
l 743 744 745 746 747 748 749 750 751 752 753 754 755 756 757 758 743
l 317 759 760
l 192 761 762
l 763 764 765 766 442
l 399 767 768 769 229
l 248 927 207
l 527 770 126
l 530 942 225
l 509 820 762
l 82 864 771
l 772 934 773
l 415 925 309
l 527 937 725
l 322 853 723
l 127 821 193
l 570 881 193
l 75 774 772
l 775 931 212
l 447 776 302
l 469 928 587
l 449 798 663
l 763 777 375
l 778 799 760
l 778 779 191
l 736 780 343
l 249 781 342
l 448 833 742
l 369 887 597
l 197 824 164
l 468 782 725
l 163 901 332
l 182 822 486
l 197 836 577
l 198 809 736
l 41 783 214
l 311 917 330
l 203 815 442
l 126 950 191
l 771 784 785 786 787
l 203 850 775
l 725 807 202
l 530 873 628
l 694 863 404
l 585 909 787
l 447 946 82
l 637 795 552
l 185 813 773
l 310 872 128
l 184 788 256
l 75 919 404
l 773 899 208
l 326 880 343
l 742 838 663
l 587 842 42
l 577 789 403
l 577 805 256
l 524 804 107
l 487 790 337
l 214 834 694
l 547 791 190
l 410 902 206
l 438 792 198
l 637 849 87
l 347 891 124
l 762 819 364
l 222 929 331
l 247 889 772
l 694 793 66
l 293 859 589
l 509 955 61
l 466 868 192
l 341 831 686
l 212 869 206
l 322 851 778
l 364 952 593
l 686 916 204
l 230 840 519
l 771 870 597
l 59 829 491
l 289 856 525
l 369 954 772
l 662 862 414
l 468 939 593
l 723 879 760
l 322 936 347
l 584 321
l 124 803 778
l 487 858 107
l 468 926 762
l 787 883 327
l 530 801 248
l 207 948 225
l 662 846 448
l 205 890 775
l 585 865 443
