v 0.000167 0.018686 0.217014
v -0.033798 0.017897 0.207419
v -0.074037 0.018842 0.180519
v -0.078137 0.008169 0.167191
v -0.086058 -0.010583 0.141876
v -0.000000 -0.049754 -0.387761
v 0.036245 -0.056729 -0.320231
v 0.063665 -0.065142 -0.240718
v 0.081760 -0.074319 -0.155458
v 0.087971 -0.083040 -0.073940
v 0.082740 -0.090860 0.001011
v 0.065240 -0.098093 0.073582
v 0.036975 -0.103902 0.136273
v 0.000000 -0.108266 0.188719
v 0.000000 0.100309 0.002829
v -0.020527 0.100901 0.005446
v -0.041858 0.101307 0.014052
v -0.062540 0.101388 0.027890
v -0.083370 0.100961 0.047315
v 0.036770 -0.010519 0.237447
v 0.086058 -0.010583 0.141876
v 0.000000 -0.021231 0.269645
v -0.034500 -0.021231 0.275390
v -0.027029 0.193207 0.240426
v -0.047340 0.183059 0.222113
v 0.000050 0.009195 -0.426183
v -0.033599 0.009315 -0.382419
v -0.058894 0.009202 -0.333431
v -0.079805 0.008894 -0.275413
v -0.092071 0.008628 -0.215269
v -0.096290 0.008463 -0.166043
v -0.096242 0.008317 -0.109884
v -0.077013 0.008102 0.085217
v -0.078130 0.008169 0.167129
v -0.016739 0.009264 -0.406700
v -0.019123 0.019617 -0.350440
v -0.019521 0.025956 -0.291679
v -0.018940 0.028818 -0.219828
v -0.019550 0.027753 -0.143001
v -0.049641 0.009321 -0.353579
v -0.055252 0.020349 -0.249189
v -0.061295 0.021124 -0.117902
v -0.045415 -0.025775 -0.372608
v -0.039758 -0.043683 -0.345484
v -0.048208 -0.046219 -0.323899
v 0.000000 -0.007783 0.237447
v -0.036455 -0.009436 0.237129
v -0.000037 -0.001150 -0.469734
v 0.043404 0.000587 -0.418893
v 0.075883 0.001506 -0.363297
v 0.100374 0.001668 -0.297691
v 0.114636 0.001046 -0.228548
v 0.120398 -0.000400 -0.150451
v 0.117435 -0.002712 -0.064406
v 0.106473 -0.005869 0.027791
v 0.085700 -0.010595 0.141846
v 0.101024 -0.007430 0.069826
v 0.098682 -0.041353 0.068774
v 0.084356 -0.075583 0.068323
v 0.068508 -0.092580 0.068329
v 0.015743 -0.132667 0.068627
v 0.005271 -0.146808 0.068770
v 0.000000 -0.161879 0.068914
v 0.020527 0.100901 0.005446
v 0.041858 0.101307 0.014052
v 0.062540 0.101388 0.027890
v 0.083370 0.100961 0.047315
v 0.000000 -0.010787 0.244401
v 0.034500 -0.021231 0.275390
v 0.113009 0.028862 -0.062407
v 0.101954 0.065597 -0.009427
v 0.080442 0.111055 0.065474
v 0.065707 0.143187 0.130362
v 0.047340 0.183059 0.222113
v -0.000000 0.113808 0.035636
v 0.010396 0.115619 0.041557
v 0.093492 0.008224 -0.066480
v 0.117288 -0.002767 -0.062594
v -0.000000 0.028538 -0.145172
v 0.028142 0.027041 -0.140356
v 0.054332 0.022868 -0.125021
v 0.077125 0.016241 -0.099623
v 0.094337 0.008077 -0.067213
v 0.049641 0.009321 -0.353579
v 0.055252 0.020349 -0.249189
v 0.061295 0.021124 -0.117902
v 0.058000 -0.015364 -0.369672
v 0.045415 -0.025775 -0.372608
v 0.039758 -0.043683 -0.345484
v 0.048208 -0.046219 -0.323899
v 0.036455 -0.009436 0.237129
v 0.031484 -0.032573 0.237294
v 0.000000 -0.079302 0.237296
v -0.000000 -0.179030 -0.130640
v 0.000000 -0.167138 0.017293
v 0.000000 -0.153221 0.137260
v 0.000000 -0.280051 0.194667
v 0.000000 -0.371427 0.248564
v 0.000072 0.018794 0.216935
v 0.000000 -0.004820 0.235966
v 0.000000 -0.018143 0.256979
v 0.000000 -0.023429 0.282734
v 0.000000 -0.021269 0.318425
v 0.000000 0.098952 0.069077
v 0.000000 0.091455 0.137990
v 0.000000 0.077264 0.215618
v 0.000000 0.054455 0.310747
v 0.000000 0.048164 0.299656
v 0.000000 0.053269 0.239901
v 0.000000 0.047492 0.192833
v -0.120942 -0.001321 -0.127439
v -0.117131 -0.026462 -0.129215
v -0.105117 -0.050263 -0.130515
v -0.086694 -0.071286 -0.130805
v -0.038447 -0.110191 -0.130946
v -0.018427 -0.130117 -0.130903
v -0.004512 -0.153407 -0.130795
v -0.000000 -0.179015 -0.130642
v 0.080539 0.062367 0.117860
v 0.074037 0.018842 0.180519
v 0.084172 -0.037365 0.141760
v 0.073396 -0.063653 0.141714
v 0.058969 -0.082490 0.141699
v 0.016029 -0.124411 0.140174
v -0.010396 0.115619 0.041557
v -0.113009 0.028862 -0.062407
v -0.099370 0.019258 -0.063378
v -0.093492 0.008224 -0.066480
v -0.000000 0.008203 0.222982
v -0.022352 0.008201 0.219119
v -0.043783 0.008195 0.207971
v -0.063497 0.008185 0.189708
v -0.066778 0.009159 -0.314128
v -0.070550 0.016882 -0.224563
v -0.076163 0.016568 -0.099461
v -0.058671 -0.020826 -0.357971
v -0.052051 -0.033522 -0.345633
v -0.000166 0.018693 0.217022
v 0.033798 0.017898 0.207421
v 0.078137 0.008169 0.167191
v -0.036245 -0.056729 -0.320231
v -0.063665 -0.065142 -0.240718
v -0.081760 -0.074319 -0.155458
v -0.087971 -0.083040 -0.073940
v -0.082740 -0.090860 0.001011
v -0.065240 -0.098093 0.073582
v -0.036975 -0.103902 0.136273
v -0.036770 -0.010519 0.237447
v 0.027029 0.193207 0.240426
v 0.099370 0.019258 -0.063378
v -0.000050 0.009195 -0.426183
v 0.033599 0.009315 -0.382419
v 0.058894 0.009202 -0.333431
v 0.079805 0.008894 -0.275413
v 0.092071 0.008628 -0.215269
v 0.096290 0.008463 -0.166043
v 0.096242 0.008317 -0.109884
v 0.077013 0.008102 0.085217
v 0.078130 0.008169 0.167129
v 0.016739 0.009264 -0.406700
v 0.019123 0.019617 -0.350440
v 0.019521 0.025956 -0.291679
v 0.018940 0.028818 -0.219828
v 0.019550 0.027753 -0.143001
v 0.000000 -0.043408 0.311245
v 0.000000 -0.070404 0.253913
v 0.000000 -0.096375 0.208091
v 0.000000 -0.124096 0.169105
v 0.000000 -0.153380 0.137348
v 0.000000 -0.372741 0.249682
v 0.000000 -0.355560 0.218537
v 0.000000 -0.328302 0.190336
v 0.000000 -0.294552 0.164965
v 0.000000 -0.205208 0.106948
v 0.000001 0.047495 0.192835
v 0.000087 0.012754 0.223891
v 0.000037 -0.001150 -0.469734
v -0.043404 0.000587 -0.418893
v -0.075883 0.001506 -0.363297
v -0.100374 0.001668 -0.297691
v -0.114636 0.001046 -0.228548
v -0.120398 -0.000400 -0.150451
v -0.117435 -0.002712 -0.064406
v -0.106473 -0.005869 0.027791
v -0.085700 -0.010595 0.141846
v -0.000000 0.028553 -0.102535
v -0.026935 0.028557 -0.100021
v -0.054025 0.028583 -0.092682
v 0.040241 0.017875 0.203994
v 0.038376 0.003725 0.217591
v 0.036780 -0.007919 0.234514
v 0.034061 -0.021299 0.275059
v 0.021040 -0.022107 0.305590
v 0.011492 -0.021579 0.314637
v -0.101954 0.065597 -0.009427
v -0.080442 0.111055 0.065474
v -0.065707 0.143187 0.130362
v -0.117288 -0.002767 -0.062594
v -0.033472 0.009337 -0.382730
v -0.034790 0.018596 -0.329553
v -0.036249 0.023857 -0.273879
v -0.043330 0.025010 -0.132771
v -0.058000 -0.015364 -0.369672
v -0.031484 -0.032573 0.237294
v 0.120942 -0.001321 -0.127439
v 0.117131 -0.026462 -0.129215
v 0.105117 -0.050263 -0.130515
v 0.086694 -0.071286 -0.130805
v 0.038447 -0.110191 -0.130946
v 0.018427 -0.130117 -0.130903
v 0.004512 -0.153407 -0.130795
v -0.080539 0.062367 0.117860
v -0.084172 -0.037365 0.141760
v -0.073396 -0.063653 0.141714
v -0.058969 -0.082490 0.141699
v -0.016029 -0.124411 0.140174
v 0.022352 0.008201 0.219119
v 0.043783 0.008195 0.207971
v 0.063497 0.008185 0.189708
v 0.066778 0.009159 -0.314128
v 0.070550 0.016882 -0.224563
v 0.076163 0.016568 -0.099461
v 0.058671 -0.020826 -0.357971
v 0.052051 -0.033522 -0.345633
v -0.000000 -0.001149 -0.469731
v -0.000000 -0.032029 -0.420775
v -0.000000 -0.060279 -0.366028
v -0.000000 -0.129187 -0.195554
v -0.000000 -0.152090 -0.159043
v -0.000000 0.027416 -0.106835
v 0.000000 0.061983 -0.049044
v 0.000000 0.054519 0.310501
v 0.000000 0.048112 0.299859
v -0.101024 -0.007430 0.069826
v -0.098682 -0.041353 0.068774
v -0.084356 -0.075583 0.068323
v -0.068508 -0.092580 0.068329
v -0.015743 -0.132667 0.068627
v -0.005271 -0.146808 0.068770
v -0.028142 0.027041 -0.140356
v -0.054332 0.022868 -0.125021
v -0.077125 0.016241 -0.099623
v -0.094337 0.008077 -0.067213
v 0.026935 0.028557 -0.100021
v 0.054025 0.028583 -0.092682
v -0.040241 0.017875 0.203994
v -0.038376 0.003725 0.217591
v -0.036780 -0.007919 0.234514
v -0.034061 -0.021299 0.275059
v -0.021040 -0.022107 0.305590
v -0.011492 -0.021579 0.314637
v 0.033472 0.009337 -0.382730
v 0.034790 0.018596 -0.329553
v 0.036249 0.023857 -0.273879
v 0.043330 0.025010 -0.132771
v 0.000071 0.018673 0.217251
v -0.000000 0.030437 -0.263316
v -0.000000 0.021959 -0.360395
l 1 2 3
l 4 5
l 6 7 8 9 10 11 12 13 14
l 15 16 17 18 19
l 20 21
l 22 23
l 24 25
l 26 27 28 29 30 31 32 33 34
l 35 36 37 38 39
l 40 41 42
l 43 44
l 44 45
l 46 47
l 48 49 50 51 52 53 54 55 56
l 57 58 59 60 61 62 63
l 15 64 65 66 67
l 68 47
l 22 69
l 70 71 72 73 74
l 75 76
l 77 78
l 79 80 81 82 83
l 84 85 86
l 87 88
l 89 90
l 91 92 93
l 94 95 96
l 96 97 98
l 99 100 101 102 103
l 15 104 105 106 107
l 108 109 110
l 111 112 113 114 115 116 117 118
l 67 119 120
l 21 121 122 123 124 96
l 125 24
l 126 127 128
l 129 130 131 132 4
l 133 134 135
l 136 137 45
l 138 139 120
l 140 21
l 6 141 142 143 144 145 146 147 14
l 148 5
l 149 74
l 70 150 77
l 151 152 153 154 155 156 157 158 159
l 160 161 162 163 164
l 88 89
l 46 91
l 165 166 167 168 169
l 170 171 172 173 174 63
l 103 165
l 175 176
l 177 178 179 180 181 182 183 184 185
l 186 187 188 126
l 189 190 191 192 193 194 103
l 126 195 196 197 25
l 128 198
l 199 200 201 202
l 203 136
l 47 204 93
l 205 206 207 208 209 210 211 118
l 19 212 3
l 5 213 214 215 216 96
l 76 149
l 129 217 218 219 140
l 220 221 222
l 223 224 90
l 225 226 227 228 229 118
l 230 231 15
l 232 233
l 234 235 236 237 238 239 63
l 68 91
l 75 125
l 79 240 241 242 243
l 203 43
l 186 244 245 70
l 246 247 248 249 250 251 103
l 252 253 254 255
l 87 223
l 256 257 258 225
