v -0.000000 0.003705 -0.419805
v 0.019615 0.002205 -0.415484
v 0.000000 0.002114 0.163365
v -0.090933 0.003193 0.114317
v -0.162123 0.004912 0.060352
v -0.087238 0.058601 -0.269230
v -0.114238 0.058346 -0.126402
v -0.130266 0.058191 0.039559
v 0.190868 0.033555 -0.168660
v 0.107672 0.058296 -0.171654
v -0.000000 -0.075362 -0.168768
v -0.109287 -0.067362 -0.169675
v -0.120046 -0.067577 -0.102881
v -0.125563 -0.067819 -0.032056
v -0.126465 -0.068160 0.048978
v -0.122669 -0.068755 0.149414
v -0.078307 -0.067401 0.094561
v -0.124545 -0.068310 0.054042
v -0.016043 -0.058136 0.353288
v -0.015880 -0.067621 0.339542
v 0.000019 -0.047563 0.198333
v -0.023095 -0.052595 0.198180
v -0.048050 -0.067211 0.198118
v -0.147663 -0.008585 0.079110
v -0.136541 -0.025351 0.099144
v -0.000000 0.198783 0.386868
v 0.022603 0.195668 0.334512
v -0.066341 0.058955 -0.294278
v -0.019615 0.002205 -0.415484
v -0.190871 0.033561 -0.168709
v -0.182238 0.041367 -0.112224
v -0.169236 0.048613 -0.058793
v -0.151327 0.054612 -0.006723
v -0.097403 0.003385 -0.362318
v -0.096102 -0.008531 -0.309293
v -0.097428 -0.024580 -0.259517
v -0.101645 -0.044057 -0.213460
v -0.131575 0.002674 -0.263966
v -0.153174 0.002597 -0.162050
v -0.163436 0.003280 -0.053515
v -0.000081 0.059144 -0.331475
v 0.021310 0.059079 -0.327367
v 0.043259 0.058979 -0.315536
v 0.065740 0.058826 -0.295676
v 0.087238 0.058601 -0.269230
v -0.000000 0.131475 -0.169432
v -0.037422 0.125860 -0.169568
v -0.070713 0.110078 -0.169971
v -0.094729 0.086779 -0.170670
v -0.107672 0.058296 -0.171654
v -0.193168 0.014859 -0.169257
v -0.152013 0.002325 -0.171039
v 0.152013 0.002325 -0.171039
v 0.134648 -0.030997 -0.169734
v 0.109287 -0.067362 -0.169675
v 0.015853 -0.067541 0.339535
v 0.049294 -0.067089 0.192555
v 0.078166 -0.067206 0.094619
v 0.239542 -0.067400 -0.062106
v 0.122187 -0.067716 -0.079939
v 0.000000 -0.054112 0.359305
v 0.016043 -0.058136 0.353288
v 0.000000 -0.105661 0.198113
v 0.020100 -0.102516 0.198114
v 0.036204 -0.094128 0.198115
v 0.045642 -0.082075 0.198116
v 0.047891 -0.067092 0.198118
v 0.130266 0.058191 0.039559
v 0.162123 0.004912 0.060352
v 0.097403 0.003385 -0.362318
v 0.092387 0.029627 -0.322347
v 0.100413 0.113780 0.038430
v 0.069174 0.152774 0.035574
v 0.038772 0.172189 0.035998
v 0.000131 0.180857 0.039315
v 0.000019 -0.099900 -0.080379
v -0.060758 -0.091635 -0.080156
v -0.122187 -0.067716 -0.079939
v 0.193174 0.014810 -0.169258
v 0.191138 0.013437 -0.105778
v 0.185323 0.011360 -0.047286
v 0.175639 0.008517 0.008194
v 0.162114 0.004909 0.060384
v -0.000000 0.002279 -0.421733
v -0.000000 0.052124 -0.342240
v -0.000000 0.094031 -0.258381
v -0.000000 0.131023 -0.163153
v -0.000000 0.159468 -0.064783
v 0.000000 0.181303 0.044414
v 0.000000 0.194506 0.155369
v 0.000000 0.199808 0.267078
v 0.000000 0.197514 0.387073
v -0.000000 -0.093320 -0.109965
v -0.000000 -0.106034 -0.050117
v 0.000000 -0.113800 0.010253
v 0.000000 -0.116776 0.070859
v 0.000000 -0.115120 0.131410
v 0.000000 -0.108283 0.196613
v 0.000000 -0.096398 0.261048
v 0.000000 -0.079667 0.324348
v 0.000000 0.058215 0.121878
v 0.000000 -0.047549 0.198318
v 0.000000 0.058222 0.121888
v -0.065045 0.058615 0.085415
v 0.190866 0.033555 -0.168660
v 0.194121 0.024632 -0.169252
v 0.193168 0.014859 -0.169257
v 0.000000 -0.067402 0.350037
v -0.239542 -0.067400 -0.062106
v -0.247252 -0.067400 0.078113
v -0.015887 -0.067638 0.339546
v 0.000000 -0.080253 0.322419
v -0.066177 0.058763 -0.294708
v -0.058527 0.090744 -0.223275
v -0.053460 0.118571 -0.149876
v -0.049812 0.143979 -0.068494
v -0.046930 0.164404 0.014454
v -0.043638 0.179793 0.098581
v -0.039215 0.189481 0.176952
v -0.032513 0.194787 0.255697
v -0.022603 0.195668 0.334512
v -0.243848 -0.070393 0.053526
v -0.193174 0.014810 -0.169258
v -0.191138 0.013437 -0.105778
v -0.185323 0.011360 -0.047286
v -0.175639 0.008517 0.008194
v -0.162114 0.004909 0.060384
v -0.029622 0.014365 -0.386682
v -0.059596 0.018054 -0.365940
v -0.093935 0.021520 -0.335642
v 0.090933 0.003193 0.114317
v -0.190868 0.033555 -0.168660
v 0.120046 -0.067577 -0.102881
v 0.125563 -0.067819 -0.032056
v 0.126465 -0.068160 0.048978
v 0.122669 -0.068755 0.149414
v 0.078307 -0.067401 0.094561
v 0.124545 -0.068310 0.054042
v 0.182353 -0.067716 0.118831
v 0.247283 -0.067400 0.078108
v 0.015880 -0.067621 0.339542
v 0.147663 -0.008585 0.079110
v 0.136541 -0.025351 0.099144
v 0.066341 0.058955 -0.294278
v 0.190871 0.033561 -0.168709
v 0.182238 0.041367 -0.112224
v 0.169236 0.048613 -0.058793
v 0.151327 0.054612 -0.006723
v 0.096102 -0.008531 -0.309293
v 0.097427 -0.024580 -0.259517
v 0.101645 -0.044057 -0.213460
v 0.000000 0.174776 0.365489
v 0.000000 -0.047538 0.198333
v 0.131575 0.002674 -0.263966
v 0.153174 0.002597 -0.162050
v 0.163436 0.003280 -0.053515
v 0.037422 0.125860 -0.169568
v 0.070713 0.110078 -0.169971
v 0.094729 0.086779 -0.170670
v -0.134648 -0.030997 -0.169734
v -0.015853 -0.067541 0.339535
v -0.049294 -0.067089 0.192555
v -0.078166 -0.067206 0.094619
v -0.100413 0.113780 0.038430
v -0.069174 0.152774 0.035574
v -0.038772 0.172189 0.035998
v -0.000131 0.180857 0.039315
v -0.000019 -0.099900 -0.080379
v 0.060758 -0.091635 -0.080156
v 0.114238 0.058346 -0.126402
v 0.247252 -0.067400 0.078113
v -0.000019 -0.047563 0.198333
v 0.023095 -0.052595 0.198180
v 0.048050 -0.067211 0.198118
v 0.243848 -0.070393 0.053526
v 0.029622 0.014365 -0.386682
v 0.059596 0.018054 -0.365940
v 0.093935 0.021520 -0.335642
v -0.000000 0.003978 -0.422273
v -0.000000 -0.007723 -0.338692
v -0.000000 -0.023687 -0.272782
v -0.000000 -0.045506 -0.217621
v 0.000081 0.059144 -0.331475
v -0.021310 0.059079 -0.327367
v -0.043259 0.058979 -0.315536
v -0.065740 0.058826 -0.295676
v -0.182352 -0.067716 0.118831
v -0.247283 -0.067400 0.078108
v -0.020100 -0.102516 0.198114
v -0.036204 -0.094128 0.198115
v -0.045642 -0.082075 0.198116
v -0.047891 -0.067092 0.198118
v -0.092387 0.029627 -0.322347
v 0.065045 0.058615 0.085415
v -0.190866 0.033555 -0.168660
v -0.194121 0.024632 -0.169252
v 0.015887 -0.067638 0.339546
v 0.066177 0.058763 -0.294708
v 0.058527 0.090744 -0.223275
v 0.053460 0.118571 -0.149876
v 0.049812 0.143979 -0.068494
v 0.046930 0.164404 0.014454
v 0.043638 0.179793 0.098581
v 0.039215 0.189481 0.176952
v 0.032513 0.194787 0.255697
v 0.000000 0.174730 0.364798
v 0.000000 0.154768 0.301924
v 0.000000 0.129112 0.241584
v 0.000000 0.096932 0.181451
v 0.000000 0.058224 0.121890
l 1 2
l 3 4 5
l 6 7 8
l 9 10
l 11 12
l 12 13 14 15 16
l 17 18
l 19 20
l 21 22 23
l 5 24 25 16
l 26 27
l 28 29
l 30 31 32 33 8
l 34 35 36 37 12
l 34 38 39 40 5
l 41 42 43 44 45
l 46 47 48 49 50
l 51 52
l 53 54 55
l 56 57 58
l 59 60
l 61 62
l 63 64 65 66 67
l 68 69
l 70 71 45
l 68 72 73 74 75
l 76 77 78
l 79 80 81 82 83
l 84 85 86 87 88 89 90 91 92
l 11 93 94 95 96 97 98 99 100
l 101 102
l 103 104 8
l 105 106 107
l 108 20
l 109 78
l 109 110
l 111 112
l 113 114 115 116 117 118 119 120 121
l 122 18
l 123 124 125 126 127
l 128 129 130
l 3 131 69
l 132 50
l 55 133 134 135 136
l 137 138
l 136 139 140
l 62 141
l 69 142 143 136
l 144 2
l 145 146 147 148 68
l 70 149 150 151 55
l 26 152
l 153 61
l 70 154 155 156 69
l 46 157 158 159 10
l 52 160 12
l 161 162 163
l 61 19
l 8 5
l 8 164 165 166 167
l 168 169 60
l 1 29
l 45 170 68
l 11 55
l 108 141
l 59 171
l 172 173 174
l 26 121
l 175 138
l 176 177 178
l 179 180 181 182 11
l 183 184 185 186 6
l 107 53
l 16 187 188
l 63 189 190 191 192
l 34 193 6
l 103 194 68
l 195 196 51
l 197 112
l 198 199 200 201 202 203 204 205 27
l 206 207 208 209 210
l 61 108
