v 0.185020 -0.092979 -0.177832
v 0.191572 -0.072081 -0.174436
v 0.195193 -0.046523 -0.176069
v 0.195245 -0.018037 -0.184108
v 0.193717 0.001182 -0.194926
v 0.191710 0.019747 -0.212873
v 0.190645 0.031283 -0.231823
v 0.190558 0.037915 -0.253085
v 0.190554 0.039377 -0.275351
v 0.190551 0.035374 -0.297221
v 0.190550 0.027639 -0.314136
v 0.190549 0.015711 -0.329000
v 0.190549 -0.000590 -0.341003
v 0.188922 -0.020910 -0.347916
v 0.178707 -0.081869 -0.354056
v 0.170472 -0.095712 -0.359830
v 0.160126 -0.101098 -0.366323
v 0.000007 -0.072705 -0.401281
v -0.053838 -0.070734 -0.398884
v -0.099780 -0.066979 -0.391160
v 0.000000 0.106414 0.016559
v -0.037008 0.106393 0.018579
v -0.067743 0.105261 0.025204
v -0.101407 0.102699 0.038214
v -0.134508 0.098137 0.056535
v -0.161710 -0.076536 0.369499
v -0.132005 -0.054488 0.404876
v -0.096260 -0.039842 0.428281
v -0.172969 -0.108338 -0.192200
v -0.178710 -0.102652 -0.122018
v -0.175852 -0.097889 -0.048916
v -0.164620 -0.093596 0.029890
v -0.144072 -0.089074 0.119961
v -0.177356 -0.064458 0.367788
v -0.188600 -0.045270 0.360616
v -0.193075 -0.007237 0.348147
v -0.193500 0.019254 0.332168
v -0.193984 0.033911 0.316110
v -0.194519 0.043733 0.296949
v -0.194792 0.047929 0.275448
v -0.194478 0.046012 0.248314
v -0.193755 0.035167 0.217880
v -0.193316 0.019379 0.195613
v -0.193161 -0.001222 0.180393
v -0.193121 -0.025086 0.172978
v -0.193139 -0.059439 0.173405
v -0.185955 -0.081977 0.178882
v -0.165958 -0.100124 0.186419
v -0.140091 -0.109037 0.191219
v -0.000000 -0.102588 -0.452249
v -0.048957 -0.102334 -0.446439
v -0.095639 -0.101789 -0.428842
v -0.132918 -0.101304 -0.401924
v -0.160126 -0.101098 -0.366323
v -0.125211 -0.077589 -0.408777
v -0.142428 -0.076684 -0.391960
v -0.157806 -0.075275 -0.370310
v -0.113918 -0.006779 -0.409729
v -0.125884 -0.007184 -0.407850
v -0.138735 -0.005098 -0.401364
v -0.159545 0.005501 -0.379953
v -0.161979 0.010867 -0.372219
v -0.159072 0.015990 -0.367401
v -0.150715 0.019999 -0.366857
v -0.137610 0.022702 -0.370602
v 0.000000 0.060246 0.371125
v -0.049350 0.058795 0.374172
v -0.091972 0.057753 0.381891
v -0.118496 0.070613 0.262217
v -0.149445 0.078202 0.266500
v -0.178450 0.076776 0.274189
v -0.157835 0.065844 0.004812
v -0.152455 0.064187 0.061496
v -0.140099 0.065248 0.119483
v -0.119846 0.068366 0.180180
v -0.093432 0.072182 0.237817
v -0.173012 -0.108471 -0.192447
v -0.177415 -0.103335 -0.183862
v -0.185051 -0.092903 -0.177810
v 0.176360 0.047210 -0.026510
v 0.193265 0.019767 -0.038338
v 0.197454 -0.014636 -0.043395
v 0.189775 -0.055071 -0.040251
v 0.173505 -0.096622 -0.027153
v 0.093432 0.072182 0.237817
v 0.107895 0.097931 0.160116
v 0.114207 0.103580 0.127507
v 0.121269 0.104963 0.097398
v 0.129274 0.101939 0.070686
v 0.138190 0.094818 0.047827
v 0.148179 0.082950 0.026689
v 0.157835 0.065844 0.004812
v 0.185051 -0.092903 -0.177810
v 0.184064 -0.072249 -0.041220
v 0.174562 -0.042705 0.114651
v 0.096260 -0.039842 0.428281
v 0.107355 -0.013979 0.433070
v 0.120187 0.012392 0.427751
v 0.132433 0.033804 0.412653
v 0.144027 0.050396 0.390201
v 0.156641 0.063842 0.357951
v 0.170604 0.073321 0.312038
v 0.179240 0.076911 0.269448
v 0.184530 0.074535 0.227843
v 0.186511 0.067841 0.198879
v 0.186951 0.056161 0.173078
v 0.186247 0.042115 0.154799
v 0.184660 0.023717 0.140139
v 0.181710 -0.004673 0.128237
v 0.174746 -0.045630 0.121926
v 0.161529 -0.073049 0.119870
v 0.144072 -0.089074 0.119961
v 0.144074 -0.089062 0.119923
v 0.140091 -0.109037 0.191219
v 0.107178 -0.090214 -0.421116
v 0.120752 -0.069725 -0.411773
v 0.126603 -0.052808 -0.407997
v 0.125327 -0.037820 -0.409082
v 0.117262 -0.026428 -0.414358
v 0.095603 -0.015144 -0.427046
v 0.064751 -0.009334 -0.442106
v 0.035396 -0.007997 -0.451761
v -0.000000 -0.006160 -0.455202
v 0.125211 -0.077589 -0.408777
v 0.144412 -0.043841 -0.389287
v 0.161914 -0.020686 -0.363195
v 0.160811 -0.050287 -0.365116
v 0.157806 -0.075275 -0.370310
v 0.000000 -0.037119 0.428323
v 0.096385 -0.025105 0.431027
v 0.093370 -0.008867 0.431029
v 0.087768 0.005384 0.429183
v 0.078463 0.016383 0.431104
v 0.047874 0.023630 0.432150
v 0.000000 0.026927 0.431928
v 0.169763 -0.054793 0.115725
v 0.176407 -0.026833 0.114069
v 0.173627 -0.004536 0.115677
v 0.169094 0.016052 0.121794
v 0.163841 0.030816 0.130908
v 0.157076 0.042493 0.144153
v 0.137368 0.060348 0.192031
v 0.121386 0.069808 0.249572
v 0.106497 0.069132 0.318376
v 0.091972 0.057753 0.381891
v 0.000000 0.015354 0.432348
v 0.000000 0.034040 0.429106
v 0.000000 0.048163 0.411688
v -0.000000 0.054723 -0.059061
v 0.000000 0.054980 -0.058732
v 0.000000 0.070641 0.296000
v -0.176360 0.047210 -0.026510
v -0.193265 0.019767 -0.038338
v -0.197454 -0.014636 -0.043395
v -0.189775 -0.055071 -0.040251
v -0.173505 -0.096622 -0.027153
v -0.188937 0.064222 0.271303
v -0.194765 0.048134 0.268604
v -0.144180 -0.089021 0.119964
v -0.143799 -0.089205 0.119959
v -0.107178 -0.090214 -0.421116
v -0.120752 -0.069725 -0.411773
v -0.126603 -0.052808 -0.407997
v -0.125327 -0.037820 -0.409082
v -0.117262 -0.026428 -0.414358
v -0.095603 -0.015144 -0.427046
v -0.064751 -0.009334 -0.442106
v -0.035396 -0.007997 -0.451761
v -0.105083 -0.018882 -0.421477
v -0.129238 0.012702 -0.386017
v -0.152093 0.038761 -0.338243
v -0.167350 0.053438 -0.289478
v -0.178128 0.061907 -0.226762
v -0.181827 0.062928 -0.168711
v -0.180850 0.057652 -0.098278
v -0.174751 0.043298 -0.004101
v -0.168212 0.019007 0.123337
v -0.161914 -0.020686 -0.363195
v -0.160811 -0.050287 -0.365116
v -0.097783 0.044081 0.403977
v -0.100362 0.021840 0.419991
v -0.099679 -0.007520 0.428472
v -0.077668 0.072243 0.257922
v -0.057315 0.071935 0.273834
v -0.031933 0.071357 0.286295
v -0.000007 -0.072705 -0.401281
v 0.053838 -0.070734 -0.398884
v 0.099780 -0.066979 -0.391160
v -0.000000 0.054893 -0.059000
v 0.040096 0.054953 -0.054129
v 0.080193 0.056701 -0.041733
v 0.119362 0.060228 -0.022217
v 0.161711 -0.076536 0.369499
v 0.132005 -0.054488 0.404876
v 0.177356 -0.064458 0.367788
v 0.188600 -0.045270 0.360616
v 0.193075 -0.007237 0.348147
v 0.193500 0.019254 0.332168
v 0.193984 0.033911 0.316110
v 0.194519 0.043733 0.296949
v 0.194792 0.047929 0.275448
v 0.194478 0.046012 0.248314
v 0.193755 0.035167 0.217880
v 0.193316 0.019379 0.195613
v 0.193161 -0.001222 0.180393
v 0.193121 -0.025086 0.172978
v 0.193139 -0.059439 0.173405
v 0.185955 -0.081977 0.178882
v 0.165958 -0.100124 0.186419
v 0.157746 0.070079 -0.063203
v 0.153405 0.069906 -0.123184
v 0.143807 0.064956 -0.177181
v 0.129296 0.059223 -0.217491
v 0.106432 0.054404 -0.254611
v 0.075556 0.051188 -0.286525
v 0.040820 0.050238 -0.309322
v -0.000000 0.051701 -0.324634
v 0.142428 -0.076684 -0.391960
v 0.113992 -0.006789 -0.409733
v 0.114098 0.002936 -0.398637
v 0.118402 0.011397 -0.387575
v 0.126541 0.018176 -0.377755
v 0.137626 0.022714 -0.370617
v 0.049350 0.058795 0.374172
v 0.152455 0.064187 0.061496
v 0.140099 0.065248 0.119483
v 0.119846 0.068366 0.180180
v -0.000000 0.045119 -0.282380
v 0.000000 0.054733 -0.180719
v 0.000000 0.054963 -0.058130
v 0.173012 -0.108471 -0.192447
v 0.177415 -0.103335 -0.183862
v -0.107895 0.097931 0.160116
v -0.114207 0.103580 0.127507
v -0.121269 0.104963 0.097398
v -0.129274 0.101939 0.070686
v -0.138190 0.094818 0.047827
v -0.148179 0.082950 0.026689
v -0.107355 -0.013979 0.433070
v -0.120187 0.012392 0.427751
v -0.132433 0.033804 0.412653
v -0.144027 0.050396 0.390201
v -0.156641 0.063842 0.357951
v -0.170604 0.073321 0.312038
v -0.179240 0.076911 0.269448
v -0.184530 0.074535 0.227843
v -0.186510 0.067841 0.198879
v -0.186951 0.056161 0.173078
v -0.186247 0.042115 0.154799
v -0.184660 0.023717 0.140139
v -0.181710 -0.004673 0.128237
v -0.174746 -0.045630 0.121926
v -0.161529 -0.073049 0.119870
v -0.144074 -0.089062 0.119923
v -0.144412 -0.043841 -0.389287
v -0.169763 -0.054793 0.115725
v -0.176407 -0.026833 0.114069
v -0.173627 -0.004536 0.115677
v -0.169094 0.016052 0.121794
v -0.163841 0.030816 0.130908
v -0.157076 0.042493 0.144153
v -0.137368 0.060348 0.192031
v -0.121386 0.069808 0.249572
v -0.106497 0.069132 0.318376
v -0.185020 -0.092979 -0.177832
v -0.191572 -0.072081 -0.174436
v -0.195193 -0.046523 -0.176069
v -0.195245 -0.018037 -0.184108
v -0.193717 0.001182 -0.194926
v -0.191710 0.019747 -0.212873
v -0.190645 0.031283 -0.231823
v -0.190558 0.037915 -0.253085
v -0.190554 0.039377 -0.275351
v -0.190551 0.035374 -0.297221
v -0.190550 0.027639 -0.314136
v -0.190549 0.015711 -0.329000
v -0.190549 -0.000590 -0.341003
v -0.188922 -0.020910 -0.347916
v -0.178707 -0.081869 -0.354056
v -0.170472 -0.095712 -0.359830
v 0.037008 0.106393 0.018579
v 0.067743 0.105261 0.025204
v 0.101407 0.102699 0.038214
v 0.134508 0.098137 0.056535
v 0.172969 -0.108338 -0.192200
v 0.178710 -0.102652 -0.122018
v 0.175852 -0.097889 -0.048916
v 0.164620 -0.093596 0.029890
v 0.048957 -0.102334 -0.446439
v 0.095639 -0.101789 -0.428842
v 0.132918 -0.101304 -0.401924
v 0.105082 -0.018882 -0.421477
v 0.129238 0.012702 -0.386017
v 0.152093 0.038761 -0.338243
v 0.167350 0.053438 -0.289478
v 0.178128 0.061907 -0.226762
v 0.181827 0.062928 -0.168711
v 0.180850 0.057652 -0.098278
v 0.174751 0.043298 -0.004101
v 0.168212 0.019007 0.123337
v 0.113918 -0.006779 -0.409729
v 0.125884 -0.007184 -0.407850
v 0.138735 -0.005098 -0.401364
v 0.159545 0.005501 -0.379953
v 0.161979 0.010867 -0.372219
v 0.159072 0.015990 -0.367401
v 0.150715 0.019999 -0.366857
v 0.137610 0.022702 -0.370602
v 0.118496 0.070613 0.262217
v 0.149445 0.078202 0.266500
v 0.178450 0.076776 0.274189
v -0.000000 0.027293 -0.397356
v 0.000000 0.054792 -0.058940
v 0.000000 0.081339 -0.025447
v 0.000000 0.105369 0.014535
v -0.000000 0.119577 0.046477
v -0.000000 0.124896 0.076952
v 0.000000 0.121494 0.130805
v 0.000001 0.110769 0.191583
v 0.000000 0.094475 0.243077
v 0.000005 0.054980 -0.058732
v -0.040094 0.054993 -0.054007
v -0.080192 0.056714 -0.041694
v -0.119362 0.060230 -0.022212
v -0.184064 -0.072249 -0.041220
v -0.174562 -0.042705 0.114651
v -0.157746 0.070079 -0.063203
v -0.153405 0.069906 -0.123184
v -0.143807 0.064956 -0.177181
v -0.129296 0.059223 -0.217491
v -0.106432 0.054404 -0.254611
v -0.075556 0.051188 -0.286525
v -0.040820 0.050238 -0.309322
v -0.113964 -0.006790 -0.409737
v -0.114086 0.002935 -0.398638
v -0.118397 0.011396 -0.387573
v -0.126538 0.018172 -0.377747
v -0.137620 0.022705 -0.370597
v -0.096385 -0.025105 0.431027
v -0.093370 -0.008867 0.431029
v -0.087768 0.005384 0.429183
v -0.078463 0.016383 0.431104
v -0.047874 0.023630 0.432150
v 0.188937 0.064222 0.271303
v 0.194765 0.048134 0.268604
v 0.144190 -0.089040 0.119942
v 0.143799 -0.089205 0.119959
v 0.097783 0.044081 0.403977
v 0.100362 0.021840 0.419991
v 0.099679 -0.007520 0.428472
v 0.077668 0.072243 0.257922
v 0.057315 0.071935 0.273834
v 0.031933 0.071357 0.286295
l 1 2 3 4 5 6 7 8 9 10 11 12 13 14 15 16 17
l 18 19 20
l 21 22 23 24 25
l 26 27 28
l 29 30 31 32 33
l 26 34 35 36 37 38 39 40 41 42 43 44 45 46 47 48 49
l 50 51 52 53 54
l 55 56 57
l 58 59 60 61 62 63 64 65
l 66 67 68
l 69 70 71
l 72 73 74 75 76
l 77 78 79
l 80 81 82 83 84
l 85 86 87 88 89 90 91 92
l 93 94 95
l 96 97 98 99 100 101 102 103 104 105 106 107 108 109 110 111 112
l 113 114
l 115 116 117 118 119 120 121 122 123
l 124 125 126
l 126 127 128
l 129 96
l 96 130 131 132 133 134 135
l 112 136 137 138 139 140 141 142 143 144 145
l 129 146 147 148 66
l 149 150
l 151 66
l 152 153 154 155 156
l 71 157 158
l 159 160
l 161 162 163 164 165 166 167 168 123
l 169 170 171 172 173 174 175 176 177
l 178 179 57
l 68 180 181 182 28
l 76 183 184 185 151
l 186 187 188
l 189 190 191 192 92
l 193 194 96
l 193 195 196 197 198 199 200 201 202 203 204 205 206 207 208 209 114
l 92 210 211 212 213 214 215 216 217
l 124 218 128
l 219 220 221 222 223
l 66 224 145
l 92 225 226 227 85
l 217 228
l 228 229 230
l 231 232 93
l 76 233 234 235 236 237 238 72
l 28 239 240 241 242 243 244 245 246 247 248 249 250 251 252 253 33
l 254 49
l 55 255 178
l 129 28
l 33 256 257 258 259 260 261 262 263 264 68
l 265 266 267 268 269 270 271 272 273 274 275 276 277 278 279 280 54
l 21 281 282 283 284
l 285 286 287 288 112
l 50 289 290 291 17
l 292 293 294 295 296 297 298 299 300
l 301 302 303 304 305 306 307 308
l 309 310 311
l 123 312 217
l 313 314 315 316 317 318 319 320 151
l 321 322 323 324 72
l 79 325 326
l 72 327 328 329 330 331 332 333 217
l 334 335 336 337 338
l 28 339 340 341 342 343 135
l 311 344 345
l 346 347
l 145 348 349 350 96
l 85 351 352 353 151
