v -0.166080 0.034719 -0.299247
v -0.173540 -0.026390 -0.300551
v -0.171198 -0.094517 -0.300817
v -0.000337 -0.090886 0.315966
v -0.044547 -0.090611 0.313642
v -0.088040 -0.090523 0.306177
v -0.130414 -0.090627 0.293486
v -0.169667 -0.090912 0.276306
v -0.154095 0.005574 -0.422551
v -0.135797 0.048554 -0.285427
v -0.104292 0.093805 -0.116301
v 0.000017 0.001727 -0.464888
v -0.035751 0.002473 -0.462177
v -0.073355 0.003650 -0.454367
v -0.001335 -0.038988 -0.483304
v -0.065105 -0.031597 -0.470846
v -0.083193 -0.015970 -0.460552
v 0.000000 0.042513 0.395986
v 0.022899 0.042512 0.391592
v 0.050228 0.042502 0.377621
v -0.166121 0.034524 -0.299254
v -0.135125 0.066471 -0.184195
v -0.103261 0.093206 -0.070733
v 0.166479 0.052921 0.306748
v 0.136732 0.052406 0.348571
v 0.092342 0.051306 0.398661
v 0.168814 -0.016142 0.296963
v 0.134800 -0.015906 0.342117
v 0.092372 -0.015908 0.389000
v 0.109381 0.031974 0.378141
v 0.105505 -0.015082 0.375170
v -0.092372 -0.015908 0.389000
v -0.145284 -0.090712 0.287635
v 0.090311 -0.091497 0.304072
v 0.083310 -0.052067 0.349165
v 0.085199 -0.030522 0.372949
v -0.058676 0.032690 0.402054
v -0.001043 0.032664 0.404737
v -0.093951 0.075630 0.140869
v -0.115011 0.060375 0.069364
v -0.136166 0.048411 -0.034944
v -0.155059 0.041601 -0.167436
v -0.164257 0.035019 -0.292041
v -0.167747 0.020297 -0.019936
v -0.176220 -0.004033 -0.020013
v -0.178873 -0.030848 -0.020067
v -0.165389 -0.076482 -0.020660
v -0.163718 -0.093055 -0.021066
v -0.108167 -0.027441 -0.454905
v -0.151289 -0.011410 -0.429813
v -0.070897 0.088388 0.062161
v -0.000956 0.092917 0.041939
v -0.000000 0.028618 -0.388244
v -0.106167 0.027345 -0.385719
v 0.000337 -0.090886 0.315966
v 0.044547 -0.090611 0.313642
v 0.088040 -0.090523 0.306177
v 0.130414 -0.090627 0.293486
v 0.169667 -0.090912 0.276306
v 0.159483 -0.092763 -0.160138
v 0.169474 -0.091724 0.275259
v -0.000017 0.001727 -0.464888
v 0.035751 0.002473 -0.462177
v 0.073355 0.003650 -0.454367
v 0.001335 -0.038988 -0.483304
v 0.065105 -0.031597 -0.470846
v 0.083193 -0.015970 -0.460552
v -0.022899 0.042512 0.391592
v -0.050228 0.042502 0.377621
v 0.167747 0.020297 -0.019936
v 0.167347 0.043982 0.064036
v 0.167087 0.057457 0.146534
v 0.166837 0.060583 0.226587
v 0.166121 0.034524 -0.299254
v 0.135125 0.066471 -0.184195
v 0.103261 0.093206 -0.070733
v 0.000000 0.051135 0.408961
v -0.042957 0.051135 0.406407
v -0.092345 0.051135 0.398663
v -0.168814 -0.016142 0.296963
v -0.134800 -0.015906 0.342117
v -0.109381 0.031974 0.378141
v -0.105505 -0.015082 0.375170
v 0.145284 -0.090712 0.287635
v -0.090311 -0.091497 0.304072
v -0.083310 -0.052067 0.349165
v -0.085199 -0.030522 0.372949
v 0.058676 0.032690 0.402054
v 0.001043 0.032664 0.404737
v 0.093951 0.075630 0.140869
v 0.115011 0.060375 0.069364
v 0.136166 0.048411 -0.034944
v 0.155059 0.041601 -0.167436
v 0.164257 0.035019 -0.292041
v 0.133972 0.050479 -0.019918
v 0.149718 0.033715 -0.019971
v 0.108167 -0.027441 -0.454905
v 0.151289 -0.011410 -0.429813
v 0.070897 0.088388 0.062161
v 0.000956 0.092917 0.041939
v 0.106167 0.027345 -0.385719
v 0.000000 0.051135 0.404584
v 0.000000 -0.016560 0.391408
v -0.000000 0.000244 -0.467202
v -0.000000 -0.095174 -0.502619
v -0.000000 -0.092498 -0.504806
v 0.031209 -0.092506 -0.502039
v 0.064945 -0.092562 -0.493531
v 0.143525 -0.093184 -0.458258
v -0.143525 -0.093184 -0.458258
v -0.161314 -0.092729 -0.365986
v -0.169439 -0.092603 -0.289902
v -0.168947 -0.092635 -0.222993
v -0.159483 -0.092763 -0.160138
v -0.154042 0.006129 -0.422725
v -0.000645 -0.027783 -0.478256
v -0.033609 -0.027625 -0.475600
v -0.065330 -0.031545 -0.470797
v 0.080425 0.042322 0.309425
v 0.089729 0.064997 0.207832
v 0.096589 0.080853 0.104851
v 0.101429 0.090566 -0.003355
v 0.104292 0.093805 -0.116301
v 0.067951 0.042415 0.342704
v -0.165995 0.021873 -0.362808
v -0.162115 -0.005553 -0.395720
v -0.156792 -0.034691 -0.423398
v -0.150486 -0.064071 -0.444194
v 0.166626 0.052929 0.306696
v 0.168825 -0.017142 0.296745
v 0.109397 0.031973 0.378107
v 0.142231 0.041171 0.340460
v 0.166612 0.045455 0.306149
v 0.133718 0.019255 0.349003
v 0.115555 -0.015574 0.364315
v 0.061709 -0.026835 0.379638
v 0.076007 -0.090600 0.308848
v 0.104249 -0.053619 0.342975
v 0.122972 -0.090941 0.296312
v -0.058659 0.032691 0.402047
v -0.058208 0.000766 0.395180
v -0.000005 0.082229 0.166357
v -0.046159 0.080577 0.160099
v -0.000334 -0.051772 -0.488570
v -0.058366 -0.053751 -0.481074
v -0.070939 0.088410 0.062172
v -0.074225 0.078669 0.149604
v -0.031209 -0.092506 -0.502039
v -0.064945 -0.092562 -0.493531
v 0.161313 -0.092729 -0.365986
v 0.169439 -0.092603 -0.289902
v 0.168947 -0.092635 -0.222993
v 0.154042 0.006129 -0.422725
v 0.074193 0.004455 -0.454949
v 0.109270 0.029271 -0.378475
v 0.139208 0.043989 -0.302988
v 0.000645 -0.027783 -0.478256
v 0.033609 -0.027625 -0.475600
v 0.065330 -0.031545 -0.470797
v -0.000000 0.095963 -0.161176
v -0.033721 0.095843 -0.158174
v -0.063665 0.095460 -0.149200
v -0.086838 0.094800 -0.135394
v -0.080425 0.042322 0.309425
v -0.067951 0.042415 0.342704
v 0.165995 0.021873 -0.362808
v 0.162115 -0.005553 -0.395720
v 0.156792 -0.034691 -0.423398
v 0.150486 -0.064071 -0.444194
v -0.166626 0.052929 0.306696
v -0.168825 -0.017142 0.296745
v -0.169474 -0.091724 0.275259
v -0.109397 0.031973 0.378107
v -0.142231 0.041171 0.340460
v -0.166612 0.045455 0.306149
v -0.133718 0.019255 0.349003
v -0.115555 -0.015574 0.364315
v -0.000538 -0.024225 0.384363
v -0.061709 -0.026835 0.379638
v -0.104249 -0.053619 0.342975
v -0.122972 -0.090941 0.296312
v 0.058659 0.032691 0.402047
v 0.058208 0.000766 0.395180
v 0.000005 0.082229 0.166357
v 0.046159 0.080577 0.160099
v 0.000334 -0.051772 -0.488570
v 0.058366 -0.053751 -0.481074
v 0.070939 0.088410 0.062172
v 0.074225 0.078669 0.149604
v -0.000000 0.053076 -0.314047
v -0.000000 0.096241 -0.161308
v 0.000000 -0.058297 0.351785
v 0.000000 -0.091670 0.314376
v -0.167347 0.043982 0.064036
v -0.167087 0.057457 0.146534
v -0.166837 0.060583 0.226587
v -0.166479 0.052921 0.306748
v -0.074193 0.004455 -0.454949
v -0.109270 0.029271 -0.378475
v -0.139208 0.043989 -0.302988
v -0.116275 -0.091556 -0.472310
v 0.133695 0.019249 0.348963
v 0.167574 0.010693 0.302156
v -0.078093 -0.068383 -0.480497
v -0.099679 -0.092096 -0.479328
v -0.089729 0.064997 0.207832
v -0.096589 0.080853 0.104851
v -0.101429 0.090566 -0.003355
v -0.165936 0.022365 -0.362865
v -0.166112 0.034241 -0.301691
v -0.166402 0.037857 -0.232540
v -0.166797 0.034301 -0.159215
v -0.167746 0.020303 -0.019937
v 0.154095 0.005574 -0.422551
v 0.135797 0.048554 -0.285427
v 0.176220 -0.004033 -0.020013
v 0.178873 -0.030848 -0.020067
v 0.165389 -0.076482 -0.020660
v 0.163718 -0.093055 -0.021066
v -0.000000 0.095978 -0.162272
v 0.000000 0.096430 -0.035801
v 0.000000 0.089197 0.102030
v 0.000000 0.074483 0.245168
v -0.133695 0.019249 0.348963
v -0.167573 0.010693 0.302156
v -0.133972 0.050479 -0.019918
v -0.149718 0.033715 -0.019971
v 0.116275 -0.091556 -0.472310
v 0.033721 0.095843 -0.158174
v 0.063665 0.095460 -0.149200
v 0.086838 0.094800 -0.135394
v 0.000538 -0.024225 0.384363
v -0.058191 0.000773 0.395210
v -0.000600 -0.001544 0.395733
v 0.166097 0.034723 -0.299277
v 0.173543 -0.026389 -0.300556
v 0.171198 -0.094517 -0.300817
v 0.165936 0.022365 -0.362865
v 0.166112 0.034241 -0.301691
v 0.166402 0.037857 -0.232540
v 0.166797 0.034301 -0.159215
v 0.167746 0.020303 -0.019937
v 0.042957 0.051135 0.406407
v 0.092345 0.051135 0.398663
v 0.058191 0.000773 0.395210
v 0.000600 -0.001544 0.395733
v 0.078093 -0.068383 -0.480497
v 0.099679 -0.092096 -0.479328
v -0.136732 0.052406 0.348571
v -0.092342 0.051306 0.398661
v -0.076007 -0.090600 0.308848
l 1 2 3
l 4 5 6 7 8
l 9 10 11
l 12 13 14
l 15 16
l 14 17
l 18 19 20
l 21 22 23
l 24 25 26
l 27 28 29
l 30 31
l 32 33
l 34 35 36
l 37 38
l 39 40 41 42 43
l 44 45 46 47 48
l 49 50
l 51 52
l 53 54
l 55 56 57 58 59
l 60 61
l 62 63 64
l 65 66
l 64 67
l 18 68 69
l 70 71 72 73 24
l 74 75 76
l 77 78 79
l 80 81 32
l 82 83
l 29 84
l 85 86 87
l 88 89
l 90 91 92 93 94
l 95 96 70
l 97 98
l 99 100
l 53 101
l 102 103
l 104 105
l 106 107 108 109
l 110 111 112 113 114
l 115 110
l 116 117 118
l 119 120 121 122 123
l 119 124 20
l 125 126 127 128 110
l 129 130 61
l 103 29
l 131 132 133
l 134 135
l 136 137
l 36 138 139
l 140 141
l 142 143 39
l 17 115
l 144 145
l 146 147
l 106 148 149 110
l 109 150 151 152 60
l 153 109
l 154 155 156
l 157 158 159
l 160 161 162 163 11
l 164 165 69
l 166 167 168 169 109
l 170 171 172
l 103 32
l 173 174 175
l 176 177
l 178 179
l 87 180 181
l 182 183
l 184 185 90
l 67 153
l 186 187
l 188 189
l 104 190 191
l 103 192 193
l 44 194 195 196 197
l 198 199 200
l 49 201
l 202 203
l 145 204 205
l 164 206 207 208 11
l 209 210 211 212 213
l 214 215 123
l 70 216 217 218 219
l 220 221 222 223 102
l 224 225
l 226 227 44
l 97 228
l 160 229 230 231 123
l 232 136
l 233 234
l 235 236 237
l 238 239 240 241 242
l 114 172
l 77 243 244
l 245 246
l 187 247 248
l 197 249 250
l 179 251
