v -0.001679 0.352674 0.000621
v 0.018994 0.346738 -0.020500
v 0.037999 0.331834 -0.038605
v 0.055501 0.312166 -0.053381
v 0.079721 0.272363 -0.072429
v 0.096628 0.227473 -0.087840
v 0.112448 0.160467 -0.103319
v 0.120346 0.091302 -0.114900
v 0.121736 0.041303 -0.121189
v 0.131239 0.012870 -0.121705
v 0.142770 -0.003157 -0.125437
v 0.156380 -0.016347 -0.132191
v 0.178234 -0.041004 -0.154897
v 0.183520 -0.056671 -0.166258
v 0.181278 -0.084545 -0.176955
v 0.173312 -0.102805 -0.178875
v 0.153460 -0.124507 -0.173183
v 0.129598 -0.135253 -0.158365
v 0.116837 -0.137546 -0.143038
v 0.108468 -0.141318 -0.125367
v 0.106653 -0.147888 -0.118118
v 0.105456 -0.166217 -0.110224
v 0.092668 -0.214105 -0.101527
v 0.080842 -0.251094 -0.090693
v 0.071484 -0.277595 -0.079492
v 0.056276 -0.309864 -0.060770
v 0.043221 -0.330462 -0.042942
v 0.032447 -0.341511 -0.029994
v 0.012323 -0.351623 -0.009939
v -0.001808 -0.353348 0.004166
v -0.022159 -0.345872 0.024995
v -0.041004 -0.330127 0.042563
v -0.063393 -0.302116 0.060843
v -0.081552 -0.269216 0.075334
v -0.097965 -0.224038 0.090401
v -0.113224 -0.156809 0.105499
v -0.119936 -0.097498 0.115383
v -0.121354 -0.047527 0.121982
v -0.128770 -0.018485 0.122569
v -0.139601 -0.001843 0.125455
v -0.152920 0.011996 0.131438
v -0.166057 0.024126 0.140648
v -0.176136 0.036430 0.152966
v -0.183721 0.059962 0.169688
v -0.182261 0.078575 0.176840
v -0.170302 0.105646 0.179663
v -0.164240 0.113579 0.178536
v -0.149375 0.125476 0.172321
v -0.126094 0.134791 0.156037
v -0.109820 0.138161 0.131049
v -0.107358 0.143040 0.122721
v -0.106147 0.150878 0.116625
v -0.104771 0.169858 0.110290
v -0.082278 0.245356 0.093611
v -0.069703 0.280626 0.078655
v -0.058234 0.304912 0.064741
v -0.045637 0.326208 0.047368
v -0.035231 0.337704 0.034508
v -0.022662 0.346313 0.021360
v 0.018994 0.346738 0.021741
v 0.037999 0.331834 0.039846
v 0.055501 0.312166 0.054622
v 0.079721 0.272363 0.073671
v 0.096628 0.227473 0.089081
v 0.112448 0.160467 0.104561
v 0.120346 0.091302 0.116141
v 0.121736 0.041303 0.122430
v 0.131239 0.012870 0.122946
v 0.142770 -0.003157 0.126679
v 0.156380 -0.016347 0.133432
v 0.178234 -0.041004 0.156139
v 0.183520 -0.056671 0.167499
v 0.181278 -0.084545 0.178196
v 0.173312 -0.102805 0.180117
v 0.153460 -0.124507 0.174424
v 0.129598 -0.135253 0.159606
v 0.116837 -0.137546 0.144280
v 0.108468 -0.141318 0.126608
v 0.106653 -0.147888 0.119360
v 0.105456 -0.166217 0.111465
v 0.092668 -0.214105 0.102769
v 0.080842 -0.251094 0.091934
v 0.071484 -0.277595 0.080734
v 0.056276 -0.309864 0.062012
v 0.043221 -0.330462 0.044184
v 0.032447 -0.341511 0.031236
v 0.012323 -0.351623 0.011180
v -0.001808 -0.353348 -0.002924
v -0.022159 -0.345872 -0.023753
v -0.041004 -0.330127 -0.041322
v -0.063393 -0.302116 -0.059601
v -0.081552 -0.269216 -0.074093
v -0.097965 -0.224038 -0.089159
v -0.113224 -0.156809 -0.104257
v -0.119936 -0.097498 -0.114142
v -0.121354 -0.047527 -0.120740
v -0.128770 -0.018485 -0.121328
v -0.139601 -0.001843 -0.124214
v -0.152920 0.011996 -0.130196
v -0.166057 0.024126 -0.139407
v -0.176136 0.036430 -0.151725
v -0.183721 0.059962 -0.168447
v -0.182261 0.078575 -0.175598
v -0.170302 0.105646 -0.178422
v -0.164240 0.113579 -0.177294
v -0.149375 0.125476 -0.171080
v -0.126094 0.134791 -0.154795
v -0.109820 0.138161 -0.129807
v -0.107358 0.143040 -0.121480
v -0.106147 0.150878 -0.115383
v -0.104771 0.169858 -0.109049
v -0.082278 0.245356 -0.092369
v -0.069703 0.280626 -0.077413
v -0.058234 0.304912 -0.063499
v -0.045637 0.326208 -0.046126
v -0.035231 0.337704 -0.033266
v -0.022662 0.346313 -0.020119
v -0.051224 -0.042824 -0.193640
v -0.007663 -0.067973 -0.194090
v 0.026815 -0.087825 -0.188049
v 0.051829 -0.102303 -0.179255
v 0.090859 -0.124821 -0.156934
v 0.118341 -0.140715 -0.132264
v 0.141446 -0.154031 -0.102166
v 0.158482 -0.163881 -0.067156
v 0.168615 -0.169734 -0.028700
v 0.171036 -0.171071 0.001350
v 0.164370 -0.167282 0.050993
v 0.154395 -0.161519 0.078897
v 0.140670 -0.153582 0.104563
v 0.117439 -0.140195 0.134531
v 0.089762 -0.124188 0.158907
v 0.050664 -0.101631 0.181069
v 0.025601 -0.087122 0.189702
v -0.017632 -0.062200 0.195994
v -0.052472 -0.042103 0.194636
v -0.094960 -0.017540 0.183636
v -0.127149 0.001009 0.168214
v -0.163414 0.021958 0.140390
v -0.182123 0.032801 0.119303
v -0.206483 0.046800 0.077634
v -0.216092 0.052410 0.049578
v -0.222444 0.056022 -0.000109
v -0.219754 0.054474 -0.030126
v -0.205850 0.046439 -0.077661
v -0.186697 0.035440 -0.111258
v -0.162403 0.021375 -0.140031
v -0.126050 0.000375 -0.167701
v -0.093745 -0.018244 -0.182806
v 0.007574 -0.259721 0.118003
v -0.021070 -0.250390 0.120394
v -0.040160 -0.244232 0.118357
v -0.058694 -0.238309 0.113073
v -0.084621 -0.230101 0.099898
v -0.106608 -0.223256 0.080349
v -0.118640 -0.219606 0.064593
v -0.133794 -0.214993 0.027695
v -0.136285 -0.214214 -0.012324
v -0.132535 -0.215397 -0.032084
v -0.120677 -0.218982 -0.059605
v -0.109405 -0.222392 -0.075955
v -0.087930 -0.229072 -0.096098
v -0.071409 -0.234256 -0.106421
v -0.044149 -0.242955 -0.116114
v -0.025163 -0.249054 -0.119099
v 0.003512 -0.258404 -0.117347
v 0.022127 -0.264481 -0.112555
v 0.047890 -0.272709 -0.099108
v 0.069734 -0.279585 -0.079412
v 0.081338 -0.283131 -0.063322
v 0.096724 -0.287821 -0.026499
v 0.099852 -0.288722 0.003506
v 0.097502 -0.288058 0.023509
v 0.092124 -0.286418 0.042861
v 0.078314 -0.282193 0.069394
v 0.051233 -0.273770 0.097858
v 0.034763 -0.268565 0.108232
v -0.026381 -0.085036 -0.165095
v 0.017200 -0.110417 -0.162753
v 0.042571 -0.125223 -0.155266
v 0.074562 -0.143712 -0.138960
v 0.095945 -0.156064 -0.121405
v 0.120183 -0.169967 -0.092305
v 0.137806 -0.180047 -0.057419
v 0.145506 -0.184409 -0.028460
v 0.148383 -0.186078 0.001630
v 0.145139 -0.184204 0.031680
v 0.137160 -0.179678 0.060537
v 0.119191 -0.169399 0.095215
v 0.101238 -0.159100 0.117328
v 0.080417 -0.147099 0.135768
v 0.057372 -0.133821 0.150297
v 0.024010 -0.114395 0.162177
v -0.010648 -0.094201 0.166592
v -0.045447 -0.073909 0.163524
v -0.070877 -0.059160 0.156144
v -0.102734 -0.040751 0.139499
v -0.124524 -0.028202 0.122574
v -0.148749 -0.014322 0.093410
v -0.162961 -0.006198 0.067926
v -0.174184 0.000203 0.029705
v -0.177072 0.001837 -0.000387
v -0.173768 -0.000036 -0.030428
v -0.165659 -0.004663 -0.059210
v -0.153030 -0.011872 -0.085767
v -0.136073 -0.021579 -0.108909
v -0.108804 -0.037250 -0.134225
v -0.085578 -0.050653 -0.148339
v -0.052289 -0.069933 -0.160655
v -0.026380 -0.085036 -0.165095
v 0.004442 0.096626 -0.165452
v 0.047961 0.071251 -0.161920
v 0.073249 0.056597 -0.153868
v 0.104977 0.038265 -0.136896
v 0.126400 0.025935 -0.119376
v 0.150380 0.012197 -0.089947
v 0.163974 0.004429 -0.064036
v 0.170668 0.000622 -0.045332
v 0.176735 -0.002840 -0.005593
v 0.175317 -0.002044 0.024628
v 0.168133 0.002064 0.053757
v 0.151674 0.011456 0.089362
v 0.134311 0.021398 0.112106
v 0.106775 0.037228 0.137017
v 0.083321 0.050769 0.150613
v 0.049943 0.070102 0.162605
v 0.023961 0.085256 0.166377
v -0.010915 0.105567 0.164774
v -0.036575 0.120545 0.158794
v -0.061092 0.134770 0.148078
v -0.091120 0.152104 0.127367
v -0.116232 0.166512 0.099221
v -0.130992 0.174955 0.074169
v -0.144132 0.182450 0.036792
v -0.147994 0.184651 0.006841
v -0.146398 0.183714 -0.023348
v -0.139296 0.179704 -0.052505
v -0.127658 0.173046 -0.079650
v -0.105920 0.160594 -0.111324
v -0.078304 0.144684 -0.136132
v -0.054985 0.131244 -0.150038
v -0.021540 0.111761 -0.161582
v 0.000029 -0.000612 -0.253506
v 0.060617 -0.035600 -0.245489
v 0.094138 -0.054906 -0.234242
v 0.148392 -0.086295 -0.202188
v 0.175869 -0.102101 -0.177353
v 0.210105 -0.121903 -0.131794
v 0.227632 -0.132052 -0.097005
v 0.239372 -0.138813 -0.059105
v 0.246610 -0.142980 0.000621
v 0.239372 -0.138813 0.060347
v 0.227632 -0.132052 0.098246
v 0.210105 -0.121903 0.133035
v 0.175869 -0.102101 0.178594
v 0.148392 -0.086295 0.203430
v 0.094138 -0.054906 0.235484
v 0.060617 -0.035600 0.246731
v 0.000029 -0.000612 0.254748
v -0.060559 0.034376 0.246731
v -0.094080 0.053682 0.235484
v -0.148334 0.085070 0.203430
v -0.175811 0.100877 0.178594
v -0.210048 0.120678 0.133035
v -0.227575 0.130828 0.098246
v -0.239314 0.137589 0.060347
v -0.246553 0.141755 0.000621
v -0.239314 0.137589 -0.059105
v -0.227575 0.130828 -0.097005
v -0.210048 0.120678 -0.131794
v -0.175811 0.100877 -0.177353
v -0.148334 0.085070 -0.202188
v -0.094080 0.053682 -0.234242
v -0.060559 0.034376 -0.245489
v 0.025584 0.056406 -0.195277
v 0.068930 0.031409 -0.190159
v 0.102538 0.011968 -0.179597
v 0.126502 -0.001826 -0.167440
v 0.162822 -0.022808 -0.139715
v 0.181668 -0.033730 -0.118790
v 0.206134 -0.047792 -0.077207
v 0.215965 -0.053530 -0.049251
v 0.222535 -0.057267 0.000414
v 0.216047 -0.053577 0.050089
v 0.206313 -0.047895 0.078089
v 0.181902 -0.033864 0.119717
v 0.163109 -0.022973 0.140707
v 0.126813 -0.002007 0.168475
v 0.102868 0.011778 0.180676
v 0.069284 0.031204 0.191331
v 0.025943 0.056200 0.196496
v -0.017388 0.081210 0.191356
v -0.051024 0.100647 0.180864
v -0.074980 0.114473 0.168722
v -0.111252 0.135435 0.140922
v -0.130158 0.146326 0.120036
v -0.154561 0.160424 0.078441
v -0.164415 0.166117 0.050482
v -0.171013 0.169866 0.000827
v -0.164497 0.166164 -0.048836
v -0.154739 0.160527 -0.076839
v -0.130410 0.146470 -0.118499
v -0.111538 0.135600 -0.139430
v -0.075292 0.114652 -0.167274
v -0.051355 0.100838 -0.179460
v -0.017742 0.081414 -0.190044
v 0.008286 0.253372 0.120281
v -0.019901 0.262548 0.114423
v -0.037619 0.268272 0.106719
v -0.068075 0.277865 0.082322
v -0.080109 0.281539 0.066585
v -0.093128 0.285516 0.039631
v -0.099358 0.287396 0.010166
v -0.099289 0.287381 -0.009976
v -0.092819 0.285422 -0.039393
v -0.084587 0.282945 -0.057617
v -0.060529 0.275527 -0.088946
v -0.036754 0.268000 -0.106017
v -0.018935 0.262232 -0.113461
v 0.009288 0.253043 -0.119048
v 0.028450 0.246792 -0.118671
v 0.056660 0.237751 -0.112711
v 0.074312 0.232137 -0.104749
v 0.098219 0.224668 -0.087877
v 0.111470 0.220562 -0.073253
v 0.126901 0.215874 -0.047748
v 0.133337 0.213934 -0.028756
v 0.136525 0.212941 0.011209
v 0.126529 0.215985 0.049970
v 0.116776 0.218963 0.067355
v 0.097503 0.224891 0.089861
v 0.073434 0.232413 0.106507
v 0.055701 0.238057 0.114260
v 0.027453 0.247112 0.120045
l 1 2 3 4 5 6 7 8 9 10 11 12 13 14 15 16 17 18 19 20 21 22 23 24 25 26 27 28 29 30 31 32 33 34 35 36 37 38 39 40 41 42 43 44 45 46 47 48 49 50 51 52 53 54 55 56 57 58 59 1
l 1 60 61 62 63 64 65 66 67 68 69 70 71 72 73 74 75 76 77 78 79 80 81 82 83 84 85 86 87 88 89 90 91 92 93 94 95 96 97 98 99 100 101 102 103 104 105 106 107 108 109 110 111 112 113 114 115 116 117 1
l 118 119 120 121 122 123 124 125 126 127 128 129 130 131 132 133 134 135 136 137 138 139 140 141 142 143 144 145 146 147 148 149 118
l 150 151 152 153 154 155 156 157 158 159 160 161 162 163 164 165 166 167 168 169 170 171 172 173 174 175 176 177 150
l 178 179 180 181 182 183 184 185 186 187 188 189 190 191 192 193 194 195 196 197 198 199 200 201 202 203 204 205 206 207 208 209 210
l 211 212 213 214 215 216 217 218 219 220 221 222 223 224 225 226 227 228 229 230 231 232 233 234 235 236 237 238 239 240 241 242 211
l 243 244 245 246 247 248 249 250 251 252 253 254 255 256 257 258 259 260 261 262 263 264 265 266 267 268 269 270 271 272 273 274 243
l 275 276 277 278 279 280 281 282 283 284 285 286 287 288 289 290 291 292 293 294 295 296 297 298 299 300 301 302 303 304 305 306 275
l 307 308 309 310 311 312 313 314 315 316 317 318 319 320 321 322 323 324 325 326 327 328 329 330 331 332 333 334 307
