v 0.212311 -0.185566 0.213770
v 0.183413 -0.191205 0.220736
v 0.153291 -0.194005 0.222170
v 0.123327 -0.193785 0.217994
v 0.104368 -0.191509 0.211441
v 0.071518 -0.182103 0.190131
v -0.004950 -0.146898 0.117620
v -0.038194 -0.137370 0.096794
v -0.066338 -0.133560 0.086369
v -0.106384 -0.134472 0.082022
v -0.216711 -0.146752 0.087236
v -0.256672 -0.146527 0.081649
v -0.284747 -0.142708 0.071076
v -0.301194 -0.138039 0.060339
v -0.321260 -0.128443 0.039830
v -0.331426 -0.120785 0.024139
v -0.341699 -0.107912 -0.001269
v -0.346008 -0.094022 -0.027825
v -0.345115 -0.084483 -0.045603
v -0.340489 -0.074998 -0.062814
v -0.331925 -0.065946 -0.078698
v -0.306210 -0.049862 -0.105247
v -0.257564 -0.029429 -0.134944
v -0.186208 -0.006081 -0.164996
v -0.049421 0.033684 -0.216992
v -0.001351 0.043904 -0.228587
v 0.038646 0.048793 -0.231226
v 0.078656 0.049610 -0.226218
v 0.106749 0.045974 -0.215636
v 0.123257 0.041174 -0.205042
v 0.144181 0.031413 -0.185454
v 0.180983 0.003504 -0.131974
v 0.254626 -0.073881 0.015328
v 0.283252 -0.114864 0.091227
v 0.286592 -0.133944 0.126586
v 0.276298 -0.152884 0.160487
v 0.252816 -0.169480 0.188682
v 0.229772 -0.179898 0.205348
v 0.016790 0.344998 0.072192
v 0.004441 0.354451 0.046206
v -0.003310 0.357450 0.027794
v -0.016537 0.353698 -0.009998
v -0.024832 0.335512 -0.044855
v -0.029236 0.299977 -0.080338
v -0.030265 0.266995 -0.103670
v -0.029830 0.223458 -0.129342
v -0.022930 0.063279 -0.215347
v -0.016022 0.006433 -0.234944
v -0.010415 -0.023031 -0.239244
v -0.003004 -0.052387 -0.238880
v 0.006801 -0.080169 -0.232090
v 0.018846 -0.104131 -0.218137
v 0.036412 -0.129255 -0.191896
v 0.058673 -0.153762 -0.153743
v 0.110417 -0.202471 -0.055441
v 0.159108 -0.242399 0.036195
v 0.184155 -0.256705 0.089436
v 0.198324 -0.255447 0.127084
v 0.203761 -0.249482 0.145586
v 0.209320 -0.234277 0.171131
v 0.212728 -0.198120 0.205964
v 0.211922 -0.180726 0.216179
v 0.207949 -0.152332 0.225852
v 0.201664 -0.123000 0.229978
v 0.196222 -0.103563 0.229352
v 0.189707 -0.084858 0.225453
v 0.178241 -0.059659 0.213313
v 0.131286 0.014576 0.145326
v 0.118729 0.037123 0.129429
v 0.106968 0.062171 0.117122
v 0.096995 0.089957 0.110542
v 0.091837 0.109481 0.110084
v 0.072226 0.217228 0.128817
v 0.059673 0.266040 0.129696
v 0.049631 0.293744 0.122885
v 0.041904 0.310267 0.114249
v 0.029439 0.330489 0.095561
v -0.101603 0.180214 0.051716
v -0.120024 0.125100 0.034755
v -0.134638 0.099076 0.029626
v -0.147199 0.083327 0.028204
v -0.178187 0.057673 0.030598
v -0.247173 0.017603 0.043885
v -0.279915 -0.005590 0.048645
v -0.308281 -0.034248 0.048806
v -0.323730 -0.059787 0.044017
v -0.330119 -0.078037 0.038197
v -0.334035 -0.105627 0.026388
v -0.333193 -0.123502 0.017012
v -0.327097 -0.148692 0.001347
v -0.315641 -0.170978 -0.015628
v -0.304702 -0.183249 -0.027345
v -0.291049 -0.192537 -0.038949
v -0.275227 -0.198505 -0.049982
v -0.231080 -0.202485 -0.073969
v -0.184547 -0.197668 -0.093016
v -0.026995 -0.161956 -0.151680
v 0.028272 -0.146413 -0.171208
v 0.073267 -0.127297 -0.183802
v 0.106931 -0.105673 -0.189220
v 0.135904 -0.077666 -0.189313
v 0.151344 -0.052117 -0.184546
v 0.161824 -0.015145 -0.172399
v 0.164794 0.031070 -0.152254
v 0.152252 0.192448 -0.069173
v 0.144812 0.245658 -0.041006
v 0.134692 0.288207 -0.015721
v 0.124300 0.311386 0.000774
v 0.108262 0.330218 0.018157
v 0.078387 0.344928 0.040694
v 0.043366 0.348510 0.060391
v 0.006793 0.341711 0.075660
v -0.028009 0.323205 0.084196
v -0.058460 0.296952 0.086632
v -0.075594 0.272296 0.083168
v -0.089208 0.235925 0.072276
v -0.103957 0.196934 0.045404
v -0.112269 0.208579 0.018629
v -0.114412 0.216587 0.000156
v -0.111227 0.229017 -0.027292
v -0.104209 0.237422 -0.044303
v -0.093664 0.245623 -0.059503
v -0.072790 0.257007 -0.078341
v -0.047926 0.266563 -0.092919
v -0.020644 0.274074 -0.103948
v 0.028767 0.280957 -0.111466
v 0.058905 0.281027 -0.108156
v 0.078016 0.278924 -0.101861
v 0.095551 0.275198 -0.092464
v 0.118132 0.267082 -0.073898
v 0.136173 0.256597 -0.051854
v 0.149106 0.244706 -0.027104
v 0.153974 0.235797 -0.009594
v 0.155006 0.222088 0.017438
v 0.149406 0.208675 0.044076
v 0.138133 0.196298 0.069399
v 0.121584 0.185121 0.092245
v 0.107560 0.178398 0.105198
v 0.091112 0.172710 0.115530
v 0.063568 0.165248 0.125852
v 0.034389 0.158347 0.130634
v 0.014358 0.155402 0.130837
v -0.015547 0.154545 0.125995
v -0.034447 0.157067 0.119224
v -0.051679 0.161961 0.109806
v -0.073653 0.172396 0.091687
v -0.090898 0.184785 0.069987
v 0.056046 -0.064011 0.181897
v 0.069761 -0.049124 0.182849
v 0.094324 -0.031339 0.181276
v 0.121492 -0.018663 0.176262
v 0.149245 -0.009868 0.167474
v 0.193819 -0.003247 0.144597
v 0.218571 -0.006868 0.127393
v 0.233193 -0.013506 0.115028
v 0.245589 -0.023656 0.102630
v 0.259398 -0.044102 0.084930
v 0.267849 -0.068324 0.068624
v 0.271189 -0.094648 0.053779
v 0.270100 -0.112894 0.045013
v 0.262822 -0.140619 0.034973
v 0.249667 -0.167180 0.028243
v 0.238356 -0.183823 0.025683
v 0.218269 -0.206616 0.024635
v 0.202975 -0.219867 0.026014
v 0.186403 -0.231114 0.029179
v 0.159430 -0.242688 0.036951
v 0.131790 -0.248581 0.048167
v 0.104497 -0.249226 0.061535
v 0.079233 -0.244021 0.077554
v 0.064725 -0.236680 0.089639
v 0.052965 -0.226262 0.102442
v 0.040726 -0.206066 0.121523
v 0.032093 -0.165077 0.149799
v 0.031752 -0.137550 0.162726
v 0.035669 -0.109041 0.172503
v 0.045517 -0.081128 0.179290
v -0.185696 -0.194715 -0.098592
v -0.173522 -0.205194 -0.073077
v -0.166024 -0.208308 -0.054658
v -0.159323 -0.208437 -0.035676
v -0.151027 -0.203702 -0.007051
v -0.144990 -0.193987 0.020887
v -0.141203 -0.179368 0.047008
v -0.139950 -0.159319 0.069487
v -0.140514 -0.143082 0.081361
v -0.141981 -0.115846 0.094279
v -0.144701 -0.086818 0.102091
v -0.149932 -0.057200 0.104323
v -0.155347 -0.037955 0.102046
v -0.162513 -0.019983 0.096547
v -0.175608 0.003537 0.082970
v -0.199212 0.033143 0.050067
v -0.211630 0.045539 0.025501
v -0.222135 0.054153 -0.001458
v -0.231251 0.057015 -0.030057
v -0.236370 0.054818 -0.049393
v -0.240618 0.048838 -0.068120
v -0.245116 0.033296 -0.093551
v -0.247299 0.012039 -0.114847
v -0.247294 -0.012531 -0.132402
v -0.245368 -0.039146 -0.146514
v -0.241084 -0.067556 -0.155755
v -0.234466 -0.096726 -0.159647
v -0.228709 -0.115958 -0.158303
v -0.221943 -0.134224 -0.153316
v -0.210493 -0.158574 -0.139730
v -0.198247 -0.178757 -0.120932
l 1 2 3 4 5 6 7 8 9 10 11 12 13 14 15 16 17 18 19 20 21 22 23 24 25 26 27 28 29 30 31 32 33 34 35 36 37 38 1
l 39 40 41 42 43 44 45 46 47 48 49 50 51 52 53 54 55 56 57 58 59 60 61 62 63 64 65 66 67 68 69 70 71 72 73 74 75 76 77 39
l 78 79 80 81 82 83 84 85 86 87 88 89 90 91 92 93 94 95 96 97 98 99 100 101 102 103 104 105 106 107 108 109 110 111 112 113 114 115 116 78
l 117 118 119 120 121 122 123 124 125 126 127 128 129 130 131 132 133 134 135 136 137 138 139 140 141 142 143 144 145 146 147 117
l 148 149 150 151 152 153 154 155 156 157 158 159 160 161 162 163 164 165 166 167 168 169 170 171 172 173 174 175 176 177 148
l 178 179 180 181 182 183 184 185 186 187 188 189 190 191 192 193 194 195 196 197 198 199 200 201 202 203 204 205 206 207 208 178
