{
  "accessors": [
    {
      "bufferView": 0,
      "byteOffset": 0,
      "componentType": 5126,
      "normalized": false,
      "count": 66,
      "type": "VEC3",
      "max": [
        1.0,
        0.5,
        1.0
      ],
      "min": [
        -1.0,
        -0.5,
        -1.0
      ]
    },
    {
      "bufferView": 2,
      "byteOffset": 0,
      "componentType": 5125,
      "normalized": false,
      "count": 192,
      "type": "SCALAR"
    },
    {
      "bufferView": 1,
      "byteOffset": 0,
      "componentType": 5126,
      "normalized": false,
      "count": 66,
      "type": "VEC3",
      "max": [
        1.0,
        1.0,
        1.0
      ],
      "min": [
        -1.0,
        -1.0,
        -1.0
      ]
    },
    {
      "bufferView": 3,
      "byteOffset": 0,
      "componentType": 5126,
      "normalized": false,
      "count": 15376,
      "type": "VEC3",
      "max": [
        0.33195704221725464,
        0.24486133456230164,
        0.3807743489742279
      ],
      "min": [
        -0.33248645067214966,
        -0.16192582249641418,
        -0.3638592064380646
      ]
    },
    {
      "bufferView": 4,
      "byteOffset": 0,
      "componentType": 5125,
      "normalized": false,
      "count": 92256,
      "type": "SCALAR"
    }
  ],
  "asset": {
    "generator": "pygltflib@v1.16.2",
    "version": "2.0"
  },
  "bufferViews": [
    {
      "buffer": 0,
      "byteOffset": 0,
      "byteLength": 792,
      "target": 34962
    },
    {
      "buffer": 0,
      "byteOffset": 792,
      "byteLength": 792,
      "target": 34962
    },
    {
      "buffer": 0,
      "byteOffset": 1584,
      "byteLength": 768,
      "target": 34963
    },
    {
      "buffer": 0,
      "byteOffset": 2352,
      "byteLength": 184512,
      "target": 34962
    },
    {
      "buffer": 0,
      "byteOffset": 186864,
      "byteLength": 369024,
      "target": 34963
    }
  ],
  "buffers": [
    {
      "uri": "data:application/octet-stream;base64,",
      "byteLength": 555888
    }
  ],
  "extensionsUsed": [
    "KHR_materials_unlit"
  ],
  "materials": [
    {
      "extensions": {
        "KHR_materials_unlit": {}
      },
      "pbrMetallicRoughness": {
        "baseColorFactor": [
          0.95,
          0.18999999999999995,
          0.18999999999999995,
          1.0
        ],
        "metallicFactor": 0.0,
        "roughnessFactor": 1.0
      },
      "emissiveFactor": [
        0.0,
        0.0,
        0.0
      ],
      "alphaMode": "OPAQUE",
      "alphaCutoff": 0.5,
      "doubleSided": true
    },
    {
      "extensions": {
        "KHR_materials_unlit": {}
      },
      "pbrMetallicRoughness": {
        "baseColorFactor": [
          0.18999999999999995,
          0.4117650113004785,
          0.95,
          1.0
        ],
        "metallicFactor": 0.0,
        "roughnessFactor": 1.0
      },
      "emissiveFactor": [
        0.0,
        0.0,
        0.0
      ],
      "alphaMode": "OPAQUE",
      "alphaCutoff": 0.5,
      "doubleSided": true
    },
    {
      "extensions": {
        "KHR_materials_unlit": {}
      },
      "pbrMetallicRoughness": {
        "baseColorFactor": [
          0.6335300226009575,
          0.95,
          0.18999999999999995,
          1.0
        ],
        "metallicFactor": 0.0,
        "roughnessFactor": 1.0
      },
      "emissiveFactor": [
        0.0,
        0.0,
        0.0
      ],
      "alphaMode": "OPAQUE",
      "alphaCutoff": 0.5,
      "doubleSided": true
    },
    {
      "extensions": {
        "KHR_materials_unlit": {}
      },
      "pbrMetallicRoughness": {
        "baseColorFactor": [
          0.95,
          0.18999999999999995,
          0.8552950339014357,
          1.0
        ],
        "metallicFactor": 0.0,
        "roughnessFactor": 1.0
      },
      "emissiveFactor": [
        0.0,
        0.0,
        0.0
      ],
      "alphaMode": "OPAQUE",
      "alphaCutoff": 0.5,
      "doubleSided": true
    },
    {
      "extensions": {
        "KHR_materials_unlit": {}
      },
      "pbrMetallicRoughness": {
        "baseColorFactor": [
          0.18999999999999995,
          0.95,
          0.822939954798085,
          1.0
        ],
        "metallicFactor": 0.0,
        "roughnessFactor": 1.0
      },
      "emissiveFactor": [
        0.0,
        0.0,
        0.0
      ],
      "alphaMode": "OPAQUE",
      "alphaCutoff": 0.5,
      "doubleSided": true
    },
    {
      "extensions": {
        "KHR_materials_unlit": {}
      },
      "pbrMetallicRoughness": {
        "baseColorFactor": [
          0.95,
          0.6011749434976057,
          0.18999999999999995,
          1.0
        ],
        "metallicFactor": 0.0,
        "roughnessFactor": 1.0
      },
      "emissiveFactor": [
        0.0,
        0.0,
        0.0
      ],
      "alphaMode": "OPAQUE",
      "alphaCutoff": 0.5,
      "doubleSided": true
    },
    {
      "extensions": {
        "KHR_materials_unlit": {}
      },
      "pbrMetallicRoughness": {
        "baseColorFactor": [
          0.37940993219712854,
          0.18999999999999995,
          0.95,
          1.0
        ],
        "metallicFactor": 0.0,
        "roughnessFactor": 1.0
      },
      "emissiveFactor": [
        0.0,
        0.0,
        0.0
      ],
      "alphaMode": "OPAQUE",
      "alphaCutoff": 0.5,
      "doubleSided": true
    },
    {
      "extensions": {
        "KHR_materials_unlit": {}
      },
      "pbrMetallicRoughness": {
        "baseColorFactor": [
          0.22235507910335064,
          0.95,
          0.18999999999999995,
          1.0
        ],
        "metallicFactor": 0.0,
        "roughnessFactor": 1.0
      },
      "emissiveFactor": [
        0.0,
        0.0,
        0.0
      ],
      "alphaMode": "OPAQUE",
      "alphaCutoff": 0.5,
      "doubleSided": true
    },
    {
      "extensions": {
        "KHR_materials_unlit": {}
      },
      "pbrMetallicRoughness": {
        "baseColorFactor": [
          0.95,
          0.18999999999999995,
          0.4441200904038298,
          1.0
        ],
        "metallicFactor": 0.0,
        "roughnessFactor": 1.0
      },
      "emissiveFactor": [
        0.0,
        0.0,
        0.0
      ],
      "alphaMode": "OPAQUE",
      "alphaCutoff": 0.5,
      "doubleSided": true
    },
    {
      "extensions": {
        "KHR_materials_unlit": {}
      },
      "pbrMetallicRoughness": {
        "baseColorFactor": [
          0.18999999999999995,
          0.6658851017043091,
          0.95,
          1.0
        ],
        "metallicFactor": 0.0,
        "roughnessFactor": 1.0
      },
      "emissiveFactor": [
        0.0,
        0.0,
        0.0
      ],
      "alphaMode": "OPAQUE",
      "alphaCutoff": 0.5,
      "doubleSided": true
    },
    {
      "extensions": {
        "KHR_materials_unlit": {}
      },
      "pbrMetallicRoughness": {
        "baseColorFactor": [
          0.8876501130047884,
          0.95,
          0.18999999999999995,
          1.0
        ],
        "metallicFactor": 0.0,
        "roughnessFactor": 1.0
      },
      "emissiveFactor": [
        0.0,
        0.0,
        0.0
      ],
      "alphaMode": "OPAQUE",
      "alphaCutoff": 0.5,
      "doubleSided": true
    },
    {
      "extensions": {
        "KHR_materials_unlit": {}
      },
      "pbrMetallicRoughness": {
        "baseColorFactor": [
          0.7905848756947323,
          0.18999999999999995,
          0.95,
          1.0
        ],
        "metallicFactor": 0.0,
        "roughnessFactor": 1.0
      },
      "emissiveFactor": [
        0.0,
        0.0,
        0.0
      ],
      "alphaMode": "OPAQUE",
      "alphaCutoff": 0.5,
      "doubleSided": true
    },
    {
      "extensions": {
        "KHR_materials_unlit": {}
      },
      "pbrMetallicRoughness": {
        "baseColorFactor": [
          0.18999999999999995,
          0.95,
          0.5688198643942571,
          1.0
        ],
        "metallicFactor": 0.0,
        "roughnessFactor": 1.0
      },
      "emissiveFactor": [
        0.0,
        0.0,
        0.0
      ],
      "alphaMode": "OPAQUE",
      "alphaCutoff": 0.5,
      "doubleSided": true
    },
    {
      "extensions": {
        "KHR_materials_unlit": {}
      },
      "pbrMetallicRoughness": {
        "baseColorFactor": [
          0.95,
          0.3470548530937778,
          0.18999999999999995,
          1.0
        ],
        "metallicFactor": 0.0,
        "roughnessFactor": 1.0
      },
      "emissiveFactor": [
        0.0,
        0.0,
        0.0
      ],
      "alphaMode": "OPAQUE",
      "alphaCutoff": 0.5,
      "doubleSided": true
    },
    {
      "pbrMetallicRoughness": {
        "baseColorFactor": [
          0.5,
          0.5,
          0.5,
          1.0
        ],
        "metallicFactor": 0.0,
        "roughnessFactor": 1.0
      },
      "emissiveFactor": [
        0.0,
        0.0,
        0.0
      ],
      "alphaMode": "OPAQUE",
      "alphaCutoff": 0.5,
      "doubleSided": true
    }
  ],
  "meshes": [
    {
      "primitives": [
        {
          "attributes": {
            "POSITION": 0,
            "NORMAL": 2
          },
          "indices": 1,
          "mode": 4,
          "material": 0
        }
      ]
    },
    {
      "primitives": [
        {
          "attributes": {
            "POSITION": 0,
            "NORMAL": 2
          },
          "indices": 1,
          "mode": 4,
          "material": 0
        }
      ]
    },
    {
      "primitives": [
        {
          "attributes": {
            "POSITION": 0,
            "NORMAL": 2
          },
          "indices": 1,
          "mode": 4,
          "material": 1
        }
      ]
    },
    {
      "primitives": [
        {
          "attributes": {
            "POSITION": 0,
            "NORMAL": 2
          },
          "indices": 1,
          "mode": 4,
          "material": 2
        }
      ]
    },
    {
      "primitives": [
        {
          "attributes": {
            "POSITION": 0,
            "NORMAL": 2
          },
          "indices": 1,
          "mode": 4,
          "material": 3
        }
      ]
    },
    {
      "primitives": [
        {
          "attributes": {
            "POSITION": 0,
            "NORMAL": 2
          },
          "indices": 1,
          "mode": 4,
          "material": 4
        }
      ]
    },
    {
      "primitives": [
        {
          "attributes": {
            "POSITION": 0,
            "NORMAL": 2
          },
          "indices": 1,
          "mode": 4,
          "material": 5
        }
      ]
    },
    {
      "primitives": [
        {
          "attributes": {
            "POSITION": 0,
            "NORMAL": 2
          },
          "indices": 1,
          "mode": 4,
          "material": 6
        }
      ]
    },
    {
      "primitives": [
        {
          "attributes": {
            "POSITION": 0,
            "NORMAL": 2
          },
          "indices": 1,
          "mode": 4,
          "material": 7
        }
      ]
    },
    {
      "primitives": [
        {
          "attributes": {
            "POSITION": 0,
            "NORMAL": 2
          },
          "indices": 1,
          "mode": 4,
          "material": 8
        }
      ]
    },
    {
      "primitives": [
        {
          "attributes": {
            "POSITION": 0,
            "NORMAL": 2
          },
          "indices": 1,
          "mode": 4,
          "material": 9
        }
      ]
    },
    {
      "primitives": [
        {
          "attributes": {
            "POSITION": 0,
            "NORMAL": 2
          },
          "indices": 1,
          "mode": 4,
          "material": 10
        }
      ]
    },
    {
      "primitives": [
        {
          "attributes": {
            "POSITION": 0,
            "NORMAL": 2
          },
          "indices": 1,
          "mode": 4,
          "material": 11
        }
      ]
    },
    {
      "primitives": [
        {
          "attributes": {
            "POSITION": 0,
            "NORMAL": 2
          },
          "indices": 1,
          "mode": 4,
          "material": 12
        }
      ]
    },
    {
      "primitives": [
        {
          "attributes": {
            "POSITION": 0,
            "NORMAL": 2
          },
          "indices": 1,
          "mode": 4,
          "material": 13
        }
      ]
    },
    {
      "primitives": [
        {
          "attributes": {
            "POSITION": 3
          },
          "indices": 4,
          "mode": 4,
          "material": 14
        }
      ]
    }
  ],
  "nodes": [
    {
      "mesh": 1,
      "rotation": [
        -0.9052818290244283,
        0.0,
        0.0,
        0.42481149941849
      ],
      "translation": [
        0.0,
        0.027681499999999998,
        0.2071085
      ],
      "scale": [
        0.002,
        0.027475847029709576,
        0.002
      ]
    },
    {
      "mesh": 1,
      "rotation": [
        -0.8162523861877737,
        0.0,
        -0.0,
        0.5776954578692527
      ],
      "translation": [
        0.0,
        0.014464499999999998,
        0.18395699999999998
      ],
      "scale": [
        0.002,
        0.02668884645315342,
        0.002
      ]
    },
    {
      "mesh": 1,
      "rotation": [
        -0.6878434932296084,
        0.0,
        0.0,
        0.7258590282015439
      ],
      "translation": [
        0.0,
        0.0109205,
        0.15477049999999998
      ],
      "scale": [
        0.002,
        0.03325105378781251,
        0.002
      ]
    },
    {
      "mesh": 1,
      "rotation": [
        -0.5331575821142375,
        0.0,
        0.0,
        0.8460159529430282
      ],
      "translation": [
        0.0,
        0.017573,
        0.12612849999999998
      ],
      "scale": [
        0.002,
        0.02669379862439963,
        0.002
      ]
    },
    {
      "mesh": 1,
      "rotation": [
        -0.378063472581161,
        0.0,
        0.0,
        0.9257796771910008
      ],
      "translation": [
        0.0,
        0.0328595,
        0.104749
      ],
      "scale": [
        0.002,
        0.02668259187185533,
        0.002
      ]
    },
    {
      "mesh": 1,
      "rotation": [
        -0.18990781054492425,
        0.0,
        0.0,
        0.9818019268131598
      ],
      "translation": [
        0.0,
        0.057818999999999995,
        0.089208
      ],
      "scale": [
        0.002,
        0.033263278731959056,
        0.002
      ]
    },
    {
      "mesh": 1,
      "rotation": [
        0,
        0,
        0,
        1
      ],
      "translation": [
        0.0,
        0.0882255,
        0.08351449999999999
      ],
      "scale": [
        0.002,
        0.029966262529718322,
        0.002
      ]
    },
    {
      "mesh": 1,
      "rotation": [
        0.20965076028275126,
        0.0,
        0.0,
        0.9777763336841736
      ],
      "translation": [
        0.0,
        0.11686750000000001,
        0.09016650000000001
      ],
      "scale": [
        0.002,
        0.029969527757373837,
        0.002
      ]
    },
    {
      "mesh": 2,
      "rotation": [
        0.07681244125860477,
        0.0,
        -0.019791173419197693,
        0.99684911512354
      ],
      "translation": [
        -0.31206049999999996,
        -0.0673725,
        -0.3253645
      ],
      "scale": [
        0.002,
        0.09019802336526006,
        0.002
      ]
    },
    {
      "mesh": 2,
      "rotation": [
        0.12332571659117558,
        0.0,
        -0.031799003954625524,
        0.9918566383176385
      ],
      "translation": [
        -0.3082475,
        0.00835,
        -0.3105715
      ],
      "scale": [
        0.002,
        0.06447357553292668,
        0.002
      ]
    },
    {
      "mesh": 2,
      "rotation": [
        0.17263629263081723,
        0.0,
        -0.0445509552784303,
        0.9839776028195287
      ],
      "translation": [
        -0.3041375,
        0.0617195,
        -0.2946385
      ],
      "scale": [
        0.002,
        0.04736850754457014,
        0.002
      ]
    },
    {
      "mesh": 2,
      "rotation": [
        0.2369928942837344,
        0.0,
        -0.061004921696066375,
        0.9695941251822205
      ],
      "translation": [
        -0.2987055,
        0.108865,
        -0.2735565
      ],
      "scale": [
        0.002,
        0.05672864283587262,
        0.002
      ]
    },
    {
      "mesh": 2,
      "rotation": [
        0.32852204898069337,
        0.0,
        -0.08479957394022256,
        0.9406818248446621
      ],
      "translation": [
        -0.2916685,
        0.151595,
        -0.2462585
      ],
      "scale": [
        0.002,
        0.04615177212198899,
        0.002
      ]
    },
    {
      "mesh": 2,
      "rotation": [
        0.44231788792128846,
        0.0,
        -0.11397888169758588,
        0.8895862524521263
      ],
      "translation": [
        -0.28293250000000003,
        0.1838825,
        -0.212381
      ],
      "scale": [
        0.002,
        0.049850067021018137,
        0.002
      ]
    },
    {
      "mesh": 2,
      "rotation": [
        0.5527806911409032,
        0.0,
        -0.14249234035408642,
        0.8210538596475876
      ],
      "translation": [
        -0.27377450000000003,
        0.2045145,
        -0.17684699999999998
      ],
      "scale": [
        0.002,
        0.03507448243381505,
        0.002
      ]
    },
    {
      "mesh": 2,
      "rotation": [
        0.64578442843718,
        0.0,
        -0.1664640266545837,
        0.7451524674977644
      ],
      "translation": [
        -0.26394850000000003,
        0.213171,
        -0.138728
      ],
      "scale": [
        0.002,
        0.04613390975193841,
        0.002
      ]
    },
    {
      "mesh": 2,
      "rotation": [
        0.7218281865242565,
        0.0,
        -0.1861892067514024,
        0.6665565605621078
      ],
      "translation": [
        -0.252627,
        0.21320699999999998,
        -0.0948215
      ],
      "scale": [
        0.002,
        0.04511479190908455,
        0.002
      ]
    },
    {
      "mesh": 2,
      "rotation": [
        0.7750086667036828,
        0.0,
        -0.19987337419947018,
        0.5995099672401607
      ],
      "translation": [
        -0.2404485,
        0.2029745,
        -0.047603
      ],
      "scale": [
        0.002,
        0.05490874773658565,
        0.002
      ]
    },
    {
      "mesh": 2,
      "rotation": [
        0.8142050939656561,
        0.0,
        -0.209841771163945,
        0.5413284548544955
      ],
      "translation": [
        -0.2263675,
        0.1815875,
        0.007015500000000001
      ],
      "scale": [
        0.002,
        0.06603821320266016,
        0.002
      ]
    },
    {
      "mesh": 2,
      "rotation": [
        0.84178632211068,
        0.0,
        -0.21694711869315136,
        0.49429721382799036
      ],
      "translation": [
        -0.2107395,
        0.148545,
        0.06765399999999999
      ],
      "scale": [
        0.002,
        0.07578120218761379,
        0.002
      ]
    },
    {
      "mesh": 2,
      "rotation": [
        0.8634787838380319,
        0.0,
        -0.22267600445892824,
        0.45257020107360235
      ],
      "translation": [
        -0.19114599999999998,
        0.0955825,
        0.143652
      ],
      "scale": [
        0.002,
        0.11378642100444149,
        0.002
      ]
    },
    {
      "mesh": 2,
      "rotation": [
        0.8774408338779948,
        0.0,
        -0.22619359183279172,
        0.4230059598365839
      ],
      "translation": [
        -0.1721195,
        0.0366285,
        0.21744249999999998
      ],
      "scale": [
        0.002,
        0.07900713038074474,
        0.002
      ]
    },
    {
      "mesh": 2,
      "rotation": [
        0.8890515239252575,
        0.0,
        -0.22920645523760028,
        0.3962976011580076
      ],
      "translation": [
        -0.14824900000000002,
        -0.050321,
        0.3100345
      ],
      "scale": [
        0.002,
        0.17956938677012854,
        0.002
      ]
    },
    {
      "mesh": 3,
      "rotation": [
        -0.4960990633054722,
        0.0,
        0.0,
        0.8682659266534839
      ],
      "translation": [
        0.0,
        0.15468900000000002,
        0.055330000000000004
      ],
      "scale": [
        0.002,
        0.09513729270901079,
        0.002
      ]
    },
    {
      "mesh": 3,
      "rotation": [
        -0.5490057094242896,
        0.0,
        0.0,
        0.8358185993500817
      ],
      "translation": [
        0.0,
        0.1886175,
        -0.008235000000000001
      ],
      "scale": [
        0.002,
        0.049218820597409695,
        0.002
      ]
    },
    {
      "mesh": 3,
      "rotation": [
        -0.5958958500201527,
        0.0,
        0.0,
        0.8030617261012752
      ],
      "translation": [
        0.0,
        0.204158,
        -0.0498615
      ],
      "scale": [
        0.002,
        0.039790726469869836,
        0.002
      ]
    },
    {
      "mesh": 3,
      "rotation": [
        -0.6460387030127676,
        0.0,
        0.0,
        0.7633046536014182
      ],
      "translation": [
        0.0,
        0.21268399999999998,
        -0.0853735
      ],
      "scale": [
        0.002,
        0.03340029761843447,
        0.002
      ]
    },
    {
      "mesh": 3,
      "rotation": [
        -0.7031454388558102,
        0.0,
        0.0,
        0.7110460546380032
      ],
      "translation": [
        0.0,
        0.2156325,
        -0.11871400000000001
      ],
      "scale": [
        0.002,
        0.03374210617314812,
        0.002
      ]
    },
    {
      "mesh": 3,
      "rotation": [
        -0.771430764678045,
        0.0,
        0.0,
        0.6363132682164083
      ],
      "translation": [
        0.0,
        0.2123935,
        -0.1532745
      ],
      "scale": [
        0.002,
        0.03603895373065095,
        0.002
      ]
    },
    {
      "mesh": 3,
      "rotation": [
        -0.8342065150513023,
        0.0,
        -0.0,
        0.5514521649662475
      ],
      "translation": [
        0.0,
        0.20348300000000002,
        -0.18384050000000002
      ],
      "scale": [
        0.002,
        0.02798869695073352,
        0.002
      ]
    },
    {
      "mesh": 3,
      "rotation": [
        -0.8801340002197321,
        0.0,
        -0.0,
        0.4747253328580776
      ],
      "translation": [
        0.0,
        0.19105,
        -0.20728950000000002
      ],
      "scale": [
        0.002,
        0.025306236563345404,
        0.002
      ]
    },
    {
      "mesh": 3,
      "rotation": [
        -0.9162293229401871,
        0.0,
        0.0,
        0.4006542496774075
      ],
      "translation": [
        0.0,
        0.174456,
        -0.22829149999999998
      ],
      "scale": [
        0.002,
        0.028408473964646543,
        0.002
      ]
    },
    {
      "mesh": 3,
      "rotation": [
        -0.9459754556267674,
        0.0,
        -0.0,
        0.32423824165531395
      ],
      "translation": [
        0.0,
        0.1506945,
        -0.249686
      ],
      "scale": [
        0.002,
        0.03575231249863425,
        0.002
      ]
    },
    {
      "mesh": 3,
      "rotation": [
        -0.9683144953872866,
        0.0,
        -0.0,
        0.24973393446398975
      ],
      "translation": [
        0.0,
        0.11758650000000001,
        -0.2711455
      ],
      "scale": [
        0.002,
        0.04339366923872651,
        0.002
      ]
    },
    {
      "mesh": 3,
      "rotation": [
        -0.9863143061790959,
        0.0,
        -0.0,
        0.16487598195749634
      ],
      "translation": [
        0.0,
        0.0558805,
        -0.2963305
      ],
      "scale": [
        0.002,
        0.09034277198536696,
        0.002
      ]
    },
    {
      "mesh": 3,
      "rotation": [
        -0.9945372337476722,
        0.0,
        0.0,
        0.10438242519470413
      ],
      "translation": [
        0.0,
        -0.013146000000000001,
        -0.3166065
      ],
      "scale": [
        0.002,
        0.05379425104042253,
        0.002
      ]
    },
    {
      "mesh": 3,
      "rotation": [
        -0.9976118652463657,
        0.0,
        -0.0,
        0.06906928637004325
      ],
      "translation": [
        0.0,
        -0.07568050000000001,
        -0.327231
      ],
      "scale": [
        0.002,
        0.07314488505015236,
        0.002
      ]
    },
    {
      "mesh": 4,
      "rotation": [
        0.6847180238510253,
        0.0,
        -0.17652543106744334,
        0.7071067811865476
      ],
      "translation": [
        -0.222889,
        -0.111904,
        0.02051550000000002
      ],
      "scale": [
        0.002,
        0.7286436686975328,
        0.002
      ]
    },
    {
      "mesh": 5,
      "rotation": [
        -0.3849515542973947,
        0.0,
        0.0,
        0.9229367805240075
      ],
      "translation": [
        0.0,
        -0.068556,
        0.329526
      ],
      "scale": [
        0.002,
        0.12321342913822342,
        0.002
      ]
    },
    {
      "mesh": 5,
      "rotation": [
        -0.40535408052243904,
        0.0,
        0.0,
        0.914159761422372
      ],
      "translation": [
        0.0,
        0.0056264999999999996,
        0.2517125
      ],
      "scale": [
        0.002,
        0.09185461984026715,
        0.002
      ]
    },
    {
      "mesh": 6,
      "rotation": [
        -0.7071067811865475,
        0.0,
        0.0,
        0.7071067811865476
      ],
      "translation": [
        0.0,
        -0.111904,
        0.02051550000000002
      ],
      "scale": [
        0.002,
        0.705573,
        0.002
      ]
    },
    {
      "mesh": 7,
      "rotation": [
        -0.38569398549517553,
        0.0,
        -0.099452085204625,
        0.9172510192424423
      ],
      "translation": [
        0.1484595,
        -0.0500815,
        0.3092285
      ],
      "scale": [
        0.002,
        0.18111206332820573,
        0.002
      ]
    },
    {
      "mesh": 7,
      "rotation": [
        -0.41114250251704954,
        0.0,
        -0.10590296704078096,
        0.9053984781277121
      ],
      "translation": [
        0.1726205,
        0.0372165,
        0.2154965
      ],
      "scale": [
        0.002,
        0.07967407816222288,
        0.002
      ]
    },
    {
      "mesh": 7,
      "rotation": [
        -0.4394706114947917,
        0.0,
        -0.11334895216870049,
        0.8910766502802391
      ],
      "translation": [
        0.19184299999999999,
        0.09641,
        0.140929
      ],
      "scale": [
        0.002,
        0.11468021091714124,
        0.002
      ]
    },
    {
      "mesh": 7,
      "rotation": [
        -0.4793756925912677,
        0.0,
        -0.12354445043360131,
        0.8688703666944234
      ],
      "translation": [
        0.211618,
        0.14958349999999998,
        0.0642335
      ],
      "scale": [
        0.002,
        0.0763153176367628,
        0.002
      ]
    },
    {
      "mesh": 7,
      "rotation": [
        -0.524573483334476,
        0.0,
        -0.13527182576084512,
        0.8405499353028717
      ],
      "translation": [
        0.22736250000000002,
        0.182757,
        0.0031589999999999986
      ],
      "scale": [
        0.002,
        0.06642321052915164,
        0.002
      ]
    },
    {
      "mesh": 7,
      "rotation": [
        -0.580557117839756,
        0.0,
        -0.1496299925203173,
        0.8003526087069158
      ],
      "translation": [
        0.24151650000000002,
        0.2042235,
        -0.0517425
      ],
      "scale": [
        0.002,
        0.055124239196563965,
        0.002
      ]
    },
    {
      "mesh": 7,
      "rotation": [
        -0.6453762532322137,
        0.0,
        -0.16645484463756477,
        0.7455080659930071
      ],
      "translation": [
        0.253724,
        0.21449200000000002,
        -0.0990915
      ],
      "scale": [
        0.002,
        0.045175639287120234,
        0.002
      ]
    },
    {
      "mesh": 7,
      "rotation": [
        -0.7217018640831669,
        0.0,
        -0.18610751688176008,
        0.6667161401518544
      ],
      "translation": [
        0.2650455,
        0.214456,
        -0.142991
      ],
      "scale": [
        0.002,
        0.04606269519904365,
        0.002
      ]
    },
    {
      "mesh": 7,
      "rotation": [
        -0.795957713127892,
        0.0,
        -0.20499201232329473,
        0.5695872135115592
      ],
      "translation": [
        0.274842,
        0.2057635,
        -0.181001
      ],
      "scale": [
        0.002,
        0.03495179018305071,
        0.002
      ]
    },
    {
      "mesh": 7,
      "rotation": [
        -0.8628284343590489,
        0.0,
        -0.2226496361590816,
        0.4538218068578688
      ],
      "translation": [
        0.283934,
        0.1850445,
        -0.216266
      ],
      "scale": [
        0.002,
        0.049592619944907136,
        0.002
      ]
    },
    {
      "mesh": 7,
      "rotation": [
        -0.9125217137747592,
        0.0,
        -0.2352114876780168,
        0.3346336473725712
      ],
      "translation": [
        0.29256150000000003,
        0.1526335,
        -0.24971549999999998
      ],
      "scale": [
        0.002,
        0.045947335711660126,
        0.002
      ]
    },
    {
      "mesh": 7,
      "rotation": [
        -0.9381919805615496,
        0.0,
        -0.2416177042137666,
        0.24782391454511743
      ],
      "translation": [
        0.2987925,
        0.11565500000000001,
        -0.273898
      ],
      "scale": [
        0.002,
        0.043663312483136256,
        0.002
      ]
    },
    {
      "mesh": 7,
      "rotation": [
        -0.9525969667428369,
        0.0,
        -0.24552753819175635,
        0.17965312950750986
      ],
      "translation": [
        0.30406500000000003,
        0.06832049999999999,
        -0.29436249999999997
      ],
      "scale": [
        0.002,
        0.06025873083628627,
        0.002
      ]
    },
    {
      "mesh": 7,
      "rotation": [
        -0.9611207478787033,
        0.0,
        -0.24843154560424036,
        0.1205349540414333
      ],
      "translation": [
        0.3086545,
        0.008821999999999997,
        -0.3121475
      ],
      "scale": [
        0.002,
        0.06450226490597055,
        0.002
      ]
    },
    {
      "mesh": 7,
      "rotation": [
        -0.965929950251614,
        0.0,
        -0.2484496133205908,
        0.0724715174931738
      ],
      "translation": [
        0.31221299999999996,
        -0.06719800000000001,
        -0.3259455
      ],
      "scale": [
        0.002,
        0.09036117562869576,
        0.002
      ]
    },
    {
      "mesh": 8,
      "rotation": [
        -0.6847180238510253,
        0.0,
        -0.17652543106744334,
        0.7071067811865476
      ],
      "translation": [
        0.222889,
        -0.111904,
        0.02051550000000002
      ],
      "scale": [
        0.002,
        0.7286436686975328,
        0.002
      ]
    },
    {
      "mesh": 9,
      "rotation": [
        0.0,
        -0.0,
        0.7071067811865475,
        0.7071067811865476
      ],
      "translation": [
        -0.065969,
        -0.111904,
        0.373302
      ],
      "scale": [
        0.002,
        0.131938,
        0.002
      ]
    },
    {
      "mesh": 10,
      "rotation": [
        -0.10080977988861464,
        0.0,
        -0.6529794261151187,
        0.7506365680868333
      ],
      "translation": [
        0.0148655,
        0.0383855,
        0.21538000000000002
      ],
      "scale": [
        0.002,
        0.030328456307566993,
        0.002
      ]
    },
    {
      "mesh": 10,
      "rotation": [
        -0.25693135907626385,
        0.0,
        -0.5055370235518539,
        0.8236616990861941
      ],
      "translation": [
        0.041662500000000005,
        0.0454225,
        0.207021
      ],
      "scale": [
        0.002,
        0.028654524564194046,
        0.002
      ]
    },
    {
      "mesh": 10,
      "rotation": [
        -0.3657777489276851,
        0.0,
        -0.31987836523213925,
        0.8740048454361162
      ],
      "translation": [
        0.062396,
        0.058843,
        0.190892
      ],
      "scale": [
        0.002,
        0.03148347458588395,
        0.002
      ]
    },
    {
      "mesh": 10,
      "rotation": [
        -0.426590474085391,
        0.0,
        -0.11418383296995337,
        0.8972082365359176
      ],
      "translation": [
        0.074001,
        0.0754955,
        0.17035499999999998
      ],
      "scale": [
        0.002,
        0.027360575523917612,
        0.002
      ]
    },
    {
      "mesh": 10,
      "rotation": [
        -0.43734689447245034,
        0.0,
        0.10096411144776653,
        0.8936072639000124
      ],
      "translation": [
        0.0739355,
        0.0933315,
        0.14745750000000002
      ],
      "scale": [
        0.002,
        0.031793704707064246,
        0.002
      ]
    },
    {
      "mesh": 10,
      "rotation": [
        -0.3874933174190838,
        0.0,
        0.3266749146190331,
        0.8620512914636812
      ],
      "translation": [
        0.0621345,
        0.110535,
        0.1244365
      ],
      "scale": [
        0.002,
        0.031719339242802666,
        0.002
      ]
    },
    {
      "mesh": 10,
      "rotation": [
        -0.2682324038743885,
        0.0,
        0.5256964249047122,
        0.8072760657632375
      ],
      "translation": [
        0.039752499999999996,
        0.12305450000000001,
        0.1069785
      ],
      "scale": [
        0.002,
        0.03169195561968368,
        0.002
      ]
    },
    {
      "mesh": 10,
      "rotation": [
        -0.09606230582335978,
        0.0,
        0.6638798817845084,
        0.7416438066630682
      ],
      "translation": [
        0.0131515,
        0.1291985,
        0.098213
      ],
      "scale": [
        0.002,
        0.02671101596719975,
        0.002
      ]
    },
    {
      "mesh": 11,
      "rotation": [
        0.12549668528244684,
        -0.0,
        0.7346034636364493,
        0.6667895719013985
      ],
      "translation": [
        -0.0150905,
        0.1288285,
        0.098888
      ],
      "scale": [
        0.002,
        0.030807883179472098,
        0.002
      ]
    },
    {
      "mesh": 11,
      "rotation": [
        0.38653357668342747,
        -0.0,
        0.7119584510227562,
        0.5862652625847744
      ],
      "translation": [
        -0.0416045,
        0.12284450000000001,
        0.107668
      ],
      "scale": [
        0.002,
        0.027368460862825298,
        0.002
      ]
    },
    {
      "mesh": 11,
      "rotation": [
        0.6576909142055553,
        -0.0,
        0.5558543038577547,
        0.5083981257383546
      ],
      "translation": [
        -0.062026,
        0.1108765,
        0.1245165
      ],
      "scale": [
        0.002,
        0.031840587714425134,
        0.002
      ]
    },
    {
      "mesh": 11,
      "rotation": [
        0.8700012438892465,
        -0.0,
        0.20258670492626876,
        0.4495069105345107
      ],
      "translation": [
        -0.07391400000000001,
        0.0937305,
        0.14757399999999998
      ],
      "scale": [
        0.002,
        0.03173587882822845,
        0.002
      ]
    },
    {
      "mesh": 11,
      "rotation": [
        0.8710853464472297,
        0.0,
        -0.2177713366118071,
        0.4402112721810027
      ],
      "translation": [
        -0.074335,
        0.0763885,
        0.16986099999999998
      ],
      "scale": [
        0.002,
        0.025754861230455135,
        0.002
      ]
    },
    {
      "mesh": 11,
      "rotation": [
        0.6744348695884806,
        0.0,
        -0.5604199768427797,
        0.4806943480411511
      ],
      "translation": [
        -0.063333,
        0.059983499999999995,
        0.190006
      ],
      "scale": [
        0.002,
        0.0316751822252059,
        0.002
      ]
    },
    {
      "mesh": 11,
      "rotation": [
        0.3713200355766929,
        0.0,
        -0.736199544931865,
        0.5658017861596394
      ],
      "translation": [
        -0.0415975,
        0.045764,
        0.206934
      ],
      "scale": [
        0.002,
        0.03169540586583487,
        0.002
      ]
    },
    {
      "mesh": 11,
      "rotation": [
        0.10670143108017871,
        0.0,
        -0.7422310474085432,
        0.6615949492463338
      ],
      "translation": [
        -0.0141975,
        0.038262000000000004,
        0.215634
      ],
      "scale": [
        0.002,
        0.028912162717444713,
        0.002
      ]
    },
    {
      "mesh": 12,
      "rotation": [
        0.0,
        -0.0,
        0.7071067811865475,
        0.7071067811865476
      ],
      "translation": [
        0.15692,
        -0.111904,
        -0.332271
      ],
      "scale": [
        0.002,
        0.31384,
        0.002
      ]
    },
    {
      "mesh": 13,
      "rotation": [
        0.0,
        -0.0,
        0.7071067811865475,
        0.7071067811865476
      ],
      "translation": [
        0.065969,
        -0.111904,
        0.373302
      ],
      "scale": [
        0.002,
        0.131938,
        0.002
      ]
    },
    {
      "mesh": 14,
      "rotation": [
        0.0,
        -0.0,
        0.7071067811865475,
        0.7071067811865476
      ],
      "translation": [
        -0.15692,
        -0.111904,
        -0.332271
      ],
      "scale": [
        0.002,
        0.31384,
        0.002
      ]
    },
    {
      "mesh": 15
    }
  ],
  "scenes": [
    {
      "nodes": [
        0,
        1,
        2,
        3,
        4,
        5,
        6,
        7,
        8,
        9,
        10,
        11,
        12,
        13,
        14,
        15,
        16,
        17,
        18,
        19,
        20,
        21,
        22,
        23,
        24,
        25,
        26,
        27,
        28,
        29,
        30,
        31,
        32,
        33,
        34,
        35,
        36,
        37,
        38,
        39,
        40,
        41,
        42,
        43,
        44,
        45,
        46,
        47,
        48,
        49,
        50,
        51,
        52,
        53,
        54,
        55,
        56,
        57,
        58,
        59,
        60,
        61,
        62,
        63,
        64,
        65,
        66,
        67,
        68,
        69,
        70,
        71,
        72,
        73,
        74,
        75,
        76,
        77
      ]
    }
  ]
}