v 0.139623 -0.295611 0.016131
v 0.137263 -0.295141 0.043081
v 0.129696 -0.294718 0.069097
v 0.117386 -0.294357 0.093195
v 0.100753 -0.294072 0.114555
v 0.080373 -0.293873 0.132370
v 0.056917 -0.293769 0.145846
v 0.031227 -0.293769 0.154425
v 0.004333 -0.293876 0.157460
v -0.022517 -0.294055 0.153849
v -0.048103 -0.294274 0.144649
v -0.076392 -0.294579 0.128477
v -0.097504 -0.294873 0.111397
v -0.115667 -0.295208 0.091197
v -0.129888 -0.295584 0.068064
v -0.138879 -0.296001 0.042629
v -0.141613 -0.296359 0.020964
v -0.139583 -0.296827 -0.007395
v -0.132104 -0.297275 -0.035018
v -0.119160 -0.297673 -0.060364
v -0.101202 -0.298004 -0.082496
v -0.079203 -0.298251 -0.100619
v -0.054197 -0.298405 -0.114226
v -0.026906 -0.298454 -0.123134
v 0.001287 -0.298385 -0.126379
v 0.027761 -0.298208 -0.121800
v 0.052320 -0.297961 -0.111050
v 0.079267 -0.297607 -0.093283
v 0.099122 -0.297265 -0.075174
v 0.116029 -0.296881 -0.054279
v 0.129106 -0.296456 -0.030812
v 0.137253 -0.295995 -0.005246
v 0.141579 -0.209083 0.014109
v 0.140524 -0.208368 0.043094
v 0.132553 -0.207565 0.074321
v 0.120012 -0.206904 0.099476
v 0.105886 -0.206442 0.116792
v 0.084001 -0.205985 0.134059
v 0.058819 -0.205688 0.146082
v 0.031714 -0.205558 0.153043
v 0.003886 -0.205606 0.155209
v -0.023450 -0.205872 0.152174
v -0.049747 -0.206327 0.144246
v -0.079028 -0.207041 0.129078
v -0.100533 -0.207737 0.112020
v -0.115167 -0.208338 0.095531
v -0.129463 -0.209115 0.071824
v -0.138837 -0.209844 0.047442
v -0.143562 -0.210590 0.019233
v -0.140841 -0.211732 -0.032564
v -0.126251 -0.212467 -0.074696
v -0.098726 -0.212887 -0.107863
v -0.068486 -0.213001 -0.125737
v -0.029807 -0.212187 -0.097710
v 0.000890 -0.211848 -0.090846
v 0.017557 -0.211776 -0.093222
v 0.031917 -0.211809 -0.100681
v 0.043390 -0.211944 -0.112659
v 0.051604 -0.212152 -0.127126
v 0.085555 -0.211538 -0.100101
v 0.113581 -0.210856 -0.067253
v 0.133202 -0.210018 -0.027257
v 0.144629 -0.115959 0.011896
v 0.142728 -0.115358 0.039468
v 0.135134 -0.114742 0.066106
v 0.124969 -0.114265 0.085756
v 0.107735 -0.113714 0.107394
v 0.086518 -0.113238 0.125166
v 0.062400 -0.112856 0.138720
v 0.030831 -0.112551 0.149181
v 0.003375 -0.112452 0.152397
v -0.023760 -0.112484 0.149460
v -0.049754 -0.112596 0.141126
v -0.073999 -0.112772 0.128544
v -0.095867 -0.113013 0.112200
v -0.114658 -0.113318 0.092385
v -0.129579 -0.113684 0.069506
v -0.139926 -0.114101 0.044417
v -0.145407 -0.114563 0.017542
v -0.145608 -0.115081 -0.011453
v -0.139626 -0.115614 -0.040062
v -0.129952 -0.116027 -0.061199
v -0.112131 -0.116501 -0.084154
v -0.089255 -0.116905 -0.102127
v -0.063039 -0.117224 -0.114671
v -0.034744 -0.117456 -0.122057
v 0.000033 -0.117625 -0.124489
v 0.026933 -0.117688 -0.120418
v 0.052389 -0.117697 -0.111515
v 0.080980 -0.117620 -0.095937
v 0.102236 -0.117467 -0.079120
v 0.120198 -0.117217 -0.058833
v 0.133768 -0.116858 -0.035403
v 0.140835 -0.116495 -0.014965
v 0.151442 0.186654 0.004968
v 0.149630 0.187082 0.023715
v 0.144124 0.187407 0.036657
v 0.132015 0.187810 0.051044
v 0.116478 0.188156 0.061889
v 0.067650 0.188869 0.079487
v 0.001995 0.189428 0.087845
v -0.059244 0.188800 0.085736
v -0.104521 0.188029 0.072913
v -0.124552 0.187558 0.060515
v -0.137582 0.187153 0.047013
v -0.146808 0.186748 0.030777
v -0.151735 0.186360 0.012426
v -0.151582 0.186008 -0.007280
v -0.147348 0.185802 -0.021504
v -0.136176 0.185637 -0.037663
v -0.120455 0.185591 -0.049706
v -0.097788 0.185646 -0.059836
v -0.068991 0.185792 -0.067220
v 0.000143 0.186162 -0.073141
v 0.061433 0.185803 -0.070244
v 0.089071 0.185702 -0.063919
v 0.110886 0.185704 -0.054858
v 0.126490 0.185794 -0.044261
v 0.139093 0.185985 -0.030327
v 0.147615 0.186279 -0.013547
v 0.002986 -0.296598 0.018354
v 0.000359 0.587075 0.000690
v 0.000211 0.427252 -0.031695
v 0.000115 -0.143889 -0.127963
v 0.000690 -0.189594 -0.096318
v 0.000744 -0.229329 -0.126342
v 0.162749 0.587370 -0.004084
v -0.165859 0.585520 0.005442
v -0.024544 -0.150407 -0.127548
v -0.045436 -0.166696 -0.126966
v -0.064009 -0.193881 -0.126179
v -0.063376 -0.222450 -0.125625
v -0.053043 -0.226980 -0.125687
v 0.040706 -0.224032 -0.126811
v 0.048080 -0.220019 -0.126951
v 0.046591 -0.190937 -0.127481
v 0.032533 -0.166336 -0.127838
v 0.016949 -0.150007 -0.128017
v 0.002136 -0.297492 -0.054012
v 0.003659 -0.295237 0.087907
v 0.071304 -0.296104 0.017243
v 0.148035 0.035347 0.008432
v 0.002685 0.038488 0.120121
v 0.000817 -0.220589 -0.108594
v -0.144485 -0.162577 0.018388
v -0.148571 0.035898 0.014984
v 0.000088 0.034269 -0.098815
v 0.143104 -0.162521 0.013003
v 0.140601 -0.252347 0.015120
v -0.142587 -0.253474 0.020098
v 0.003631 -0.159029 0.153803
v 0.001015 -0.263857 -0.126360
v 0.000074 -0.130757 -0.126226
v 0.001177 0.388252 0.044268
v -0.069314 -0.296478 0.019659
v 0.004110 -0.249741 0.156334
l 1 2 3 4 5 6 7 8 9
l 9 10 11 12 13 14 15 16 17
l 17 18 19 20 21 22 23 24 25
l 25 26 27 28 29 30 31 32 1
l 33 34 35 36 37 38 39 40 41
l 41 42 43 44 45 46 47 48 49
l 49 50 51 52 53
l 53 54 55
l 55 56 57 58 59
l 59 60 61 62 33
l 63 64 65 66 67 68 69 70 71
l 71 72 73 74 75 76 77 78 79
l 79 80 81 82 83 84 85 86 87
l 87 88 89 90 91 92 93 94 63
l 95 96 97 98 99 100 101
l 101 102 103 104 105 106 107
l 107 108 109 110 111 112 113 114
l 114 115 116 117 118 119 120 95
l 121 140 9
l 9 156 41
l 41 151 71
l 71 143 101
l 101 154 122
l 122 123 114
l 114 147 87
l 87 153 124
l 124 125 55
l 55 144 126
l 126 152 25
l 25 139 121
l 127 95
l 95 142 63
l 63 148 33
l 33 149 1
l 1 141 121
l 121 155 17
l 17 150 49
l 49 145 79
l 79 146 107
l 107 128
l 124 129 130 131 53
l 53 132 133 126
l 126 134 135 59
l 59 136 137 138 124
l 127 122
l 122 128
