v -0.050114 0.078898 0.128490
v -0.042181 0.065553 0.120716
v -0.035799 0.057648 0.113270
v -0.028208 0.053163 0.104707
v -0.022591 0.052758 0.098809
v -0.016928 0.054565 0.093225
v -0.009164 0.060959 0.086154
v -0.002893 0.070438 0.080725
v 0.002992 0.085511 0.074493
v -0.149286 0.033828 0.159898
v -0.163527 0.040725 0.157291
v -0.176035 0.050609 0.153540
v -0.185628 0.062994 0.148830
v -0.189534 0.076804 0.143598
v -0.185669 0.090643 0.138401
v -0.176111 0.103086 0.133743
v -0.163638 0.113012 0.130014
v -0.149443 0.119912 0.127379
v -0.149038 -0.116157 0.252012
v -0.149027 -0.132340 0.258512
v -0.149021 -0.149493 0.269402
v -0.148953 -0.178646 0.296908
v -0.149030 -0.128348 0.355403
v -0.149080 -0.114297 0.359278
v -0.149208 -0.060195 0.361060
v -0.149313 0.003016 0.356292
v -0.149361 0.033733 0.348299
v -0.149400 0.059158 0.338758
v -0.149422 0.074679 0.329551
v -0.149450 0.095894 0.312433
v -0.149468 0.111180 0.295807
v -0.149479 0.122728 0.276388
v -0.149484 0.132493 0.250979
v -0.149483 0.137291 0.228872
v -0.149476 0.138595 0.206270
v -0.149460 0.136059 0.179208
v -0.149434 0.129691 0.152790
v -0.120710 -0.125403 0.337092
v -0.096221 -0.123776 0.312870
v -0.169445 -0.126313 0.343566
v -0.183062 -0.125070 0.330661
v -0.192528 -0.123814 0.314951
v -0.194617 -0.122660 0.303638
v -0.130224 -0.170390 0.301229
v -0.114312 -0.157486 0.305626
v -0.102556 -0.140860 0.309740
v -0.167646 -0.170735 0.297871
v -0.181891 -0.157280 0.299513
v -0.190741 -0.139810 0.301631
v -0.149514 -0.010326 0.160100
v -0.041990 0.092665 0.123736
v -0.035579 0.101225 0.118216
v -0.022689 0.108567 0.105532
v -0.009534 0.104463 0.091699
v -0.003179 0.097491 0.084230
v -0.195748 -0.063218 0.308606
v -0.195634 -0.004577 0.307764
v -0.195323 0.042251 0.299100
v -0.195097 0.059000 0.291798
v -0.194742 0.077703 0.279981
v -0.194524 0.085521 0.272455
v -0.194170 0.092892 0.260046
v -0.193678 0.098410 0.242415
v -0.193181 0.100505 0.224291
v -0.192584 0.096707 0.202766
v -0.149072 -0.102901 0.251109
v -0.149189 -0.045113 0.259465
v -0.149304 0.021347 0.265022
v -0.149363 0.056665 0.263213
v -0.149392 0.075654 0.258042
v -0.149402 0.083750 0.250650
v -0.149405 0.086630 0.243788
v -0.149402 0.087352 0.236109
v -0.149393 0.084789 0.224608
v -0.149368 0.074267 0.207913
v -0.134306 0.040163 0.157533
v -0.121610 0.049868 0.153877
v -0.112421 0.062547 0.149081
v -0.108893 0.076963 0.143629
v -0.112464 0.091369 0.138209
v -0.121689 0.104013 0.133453
v -0.134419 0.113665 0.129797
v 0.286606 0.008773 0.008780
v 0.282126 0.004627 0.042262
v 0.268877 -0.000147 0.081395
v 0.253826 -0.002899 0.104121
v 0.232369 -0.004957 0.120857
v 0.206526 -0.006134 0.130145
v 0.179205 -0.006515 0.133192
v 0.144592 -0.006306 0.131366
v 0.090824 -0.006443 0.123714
v -0.149453 0.136428 0.110777
v -0.149423 0.148268 0.090800
v -0.149326 0.156709 0.064013
v -0.151772 0.161838 0.027116
v 0.077487 -0.006248 0.124851
v -0.010312 -0.008193 0.144254
v -0.069951 -0.009576 0.154859
v 0.090240 0.010741 0.111052
v 0.089777 0.031199 0.079703
v 0.089845 0.040063 0.055057
v 0.089961 0.048633 0.013536
v -0.291299 0.008773 0.008780
v -0.290747 0.013784 0.024546
v -0.284667 0.036307 0.064098
v -0.276871 0.047052 0.085292
v -0.264599 0.056806 0.104738
v -0.247749 0.065263 0.121211
v -0.232503 0.070203 0.130787
v -0.215380 0.073804 0.137782
v -0.069248 0.078066 0.135093
v 0.089952 -0.174207 -0.013309
v 0.090155 -0.174237 0.019262
v 0.090205 -0.167170 0.058069
v 0.090153 -0.156096 0.081627
v 0.090119 -0.138416 0.100691
v 0.090092 -0.115731 0.113682
v 0.090011 -0.090677 0.120864
v 0.090303 -0.030927 0.126320
v -0.148564 -0.184123 -0.014559
v -0.148835 -0.184669 0.028898
v -0.148899 -0.179271 0.064853
v -0.148905 -0.169100 0.091941
v -0.148945 -0.152296 0.115424
v -0.148998 -0.129690 0.133484
v -0.149043 -0.096463 0.147950
v -0.149108 -0.060982 0.155553
v -0.050062 0.105339 -0.090997
v -0.042133 0.090529 -0.086611
v -0.035754 0.081082 -0.081254
v -0.028167 0.074690 -0.073999
v -0.022553 0.072896 -0.068362
v -0.016892 0.073325 -0.062506
v -0.009131 0.077857 -0.054116
v -0.002864 0.085775 -0.046589
v 0.003018 0.098937 -0.036953
v -0.149226 0.069022 -0.132246
v -0.163461 0.075105 -0.128092
v -0.175970 0.083815 -0.122109
v -0.185567 0.094729 -0.114595
v -0.189476 0.106900 -0.106234
v -0.185614 0.119109 -0.097898
v -0.176059 0.130090 -0.090415
v -0.163588 0.138844 -0.084429
v -0.149395 0.144921 -0.080224
v -0.148922 -0.054876 -0.257281
v -0.148905 -0.069282 -0.267226
v -0.148890 -0.083486 -0.281771
v -0.148826 -0.104878 -0.315803
v -0.148863 -0.042168 -0.360804
v -0.148913 -0.027485 -0.361060
v -0.149043 0.025461 -0.349996
v -0.149154 0.085733 -0.330350
v -0.149207 0.113673 -0.315290
v -0.149251 0.136105 -0.299984
v -0.149278 0.148996 -0.287355
v -0.149315 0.165537 -0.265687
v -0.149342 0.176439 -0.245908
v -0.149363 0.183044 -0.224301
v -0.149381 0.186496 -0.197301
v -0.149389 0.185906 -0.174686
v -0.149392 0.181805 -0.152421
v -0.149389 0.172915 -0.126736
v -0.149374 0.160455 -0.102585
v -0.120630 -0.043682 -0.342033
v -0.096349 -0.049965 -0.318474
v -0.169267 -0.042914 -0.348698
v -0.182884 -0.044769 -0.335861
v -0.192363 -0.047286 -0.320319
v -0.194461 -0.048852 -0.309069
v -0.128938 -0.094842 -0.318127
v -0.117469 -0.085258 -0.319016
v -0.103965 -0.067694 -0.319311
v -0.167507 -0.096924 -0.314872
v -0.181746 -0.083454 -0.313278
v -0.190590 -0.065985 -0.311190
v -0.149359 0.026192 -0.143038
v -0.041941 0.117583 -0.083107
v -0.035534 0.124587 -0.075709
v -0.022650 0.128705 -0.061639
v -0.009501 0.121434 -0.049172
v -0.003149 0.112886 -0.043569
v -0.094433 -0.035749 -0.316919
v -0.095588 0.023311 -0.307746
v -0.096187 0.086121 -0.292715
v -0.097227 0.134046 -0.271493
v -0.098440 0.157750 -0.249680
v -0.099243 0.166002 -0.235940
v -0.099934 0.168895 -0.224515
v -0.101184 0.167923 -0.204392
v -0.102423 0.162991 -0.184786
v -0.103799 0.151596 -0.163648
v -0.108835 0.107059 -0.106190
v -0.195607 0.010073 -0.299779
v -0.195496 0.066835 -0.285034
v -0.195191 0.110266 -0.265496
v -0.194970 0.124803 -0.254426
v -0.194622 0.140163 -0.238505
v -0.194407 0.145971 -0.229338
v -0.194060 0.150183 -0.215532
v -0.193575 0.151356 -0.197095
v -0.193087 0.149086 -0.178993
v -0.192500 0.140286 -0.158984
v -0.148956 -0.042102 -0.253363
v -0.149072 0.015986 -0.247724
v -0.149187 0.081864 -0.237337
v -0.149249 0.115743 -0.227192
v -0.149282 0.132959 -0.217659
v -0.149296 0.139069 -0.208556
v -0.149301 0.140237 -0.201207
v -0.149302 0.139113 -0.193576
v -0.149298 0.133892 -0.183012
v -0.149281 0.119707 -0.169294
v -0.134240 0.074613 -0.128447
v -0.121545 0.083172 -0.122588
v -0.112360 0.094349 -0.114912
v -0.112410 0.119764 -0.097506
v -0.121637 0.130918 -0.089887
v -0.134370 0.139426 -0.084050
v 0.282140 0.012697 -0.024731
v 0.268910 0.017354 -0.063882
v 0.253866 0.020079 -0.086617
v 0.232418 0.022055 -0.103371
v 0.206580 0.023118 -0.112683
v 0.179255 0.023474 -0.115745
v 0.144649 0.023244 -0.113936
v 0.090840 0.021299 -0.106566
v 0.077225 0.021764 -0.107676
v -0.013477 0.024554 -0.127633
v -0.071207 0.025682 -0.137837
v 0.090272 0.034982 -0.090186
v 0.089811 0.047411 -0.054874
v 0.089863 0.050168 -0.028830
v -0.289722 0.028031 -0.015222
v -0.284664 0.048383 -0.038658
v -0.276830 0.063999 -0.056695
v -0.264553 0.078305 -0.073275
v -0.247700 0.090401 -0.087259
v -0.232451 0.097441 -0.095378
v -0.215324 0.102597 -0.101308
v -0.069193 0.106100 -0.097619
v 0.090171 -0.166501 -0.044955
v 0.090237 -0.150420 -0.080971
v 0.090195 -0.134066 -0.101223
v 0.090170 -0.112364 -0.115541
v 0.090146 -0.087243 -0.122771
v 0.090068 -0.061201 -0.123797
v 0.090344 -0.001865 -0.114909
v -0.148815 -0.174333 -0.056902
v -0.148863 -0.160549 -0.090544
v -0.148858 -0.144234 -0.114439
v -0.148887 -0.122335 -0.133259
v -0.148932 -0.096086 -0.145434
v -0.148977 -0.060375 -0.151589
v -0.149040 -0.024106 -0.150547
v -0.286893 0.033161 0.011637
v -0.278725 0.059441 0.014741
v -0.269832 0.077648 0.016938
v -0.253945 0.099071 0.019533
v -0.234320 0.117218 0.021723
v -0.212230 0.132399 0.023556
v -0.126612 0.171313 0.028263
v -0.106033 0.175878 0.028818
v -0.084041 0.175780 0.028812
v -0.062820 0.170717 0.028207
v -0.051428 0.164704 0.027485
v -0.038139 0.153603 0.026151
v 0.017109 0.091866 0.018727
v 0.109700 0.048934 0.013576
v 0.169825 0.058839 0.014783
v 0.209846 0.056955 0.014566
v 0.228937 0.051345 0.013895
v 0.253070 0.038554 0.012359
v 0.275094 0.021822 0.010348
v 0.076986 0.052277 0.013972
v 0.057573 0.062413 0.015188
v 0.015934 -0.156207 -0.011159
v -0.009373 -0.153775 -0.010871
v -0.029581 -0.156212 -0.011169
v -0.093804 -0.173044 -0.013212
v 0.155316 -0.170183 -0.012809
v 0.199066 -0.160429 -0.011624
v 0.229440 -0.148908 -0.010229
v 0.262519 -0.125238 -0.007371
v 0.278886 -0.102390 -0.004614
v 0.291216 -0.068080 -0.000478
v 0.291299 -0.007697 0.006796
v -0.290705 -0.057607 0.000650
v -0.284973 -0.106263 -0.005212
v -0.277342 -0.133642 -0.008508
v -0.263754 -0.158970 -0.011556
v -0.249354 -0.172909 -0.013232
v -0.222494 -0.182947 -0.014435
v -0.193956 -0.186496 -0.014856
v -0.036699 0.079916 0.120187
v -0.026702 0.081058 0.110798
v -0.005265 0.083879 0.087905
v 0.014226 0.089289 0.041267
v 0.014236 0.094716 -0.003779
v -0.036652 0.104355 -0.082683
v -0.026660 0.103233 -0.073289
v -0.005232 0.100537 -0.050372
v -0.094741 -0.109433 0.314663
v -0.095747 -0.051650 0.319555
v -0.096374 0.015379 0.319570
v -0.097388 0.064729 0.310320
v -0.097947 0.079916 0.303397
v -0.098663 0.093785 0.293737
v -0.099511 0.104857 0.281462
v -0.100239 0.109893 0.270284
v -0.101274 0.112780 0.253748
v -0.102549 0.112547 0.232758
v -0.103968 0.106064 0.208688
v -0.104615 -0.120428 0.293956
v -0.116472 -0.118120 0.276913
v -0.131454 -0.116657 0.262652
v -0.192515 -0.121089 0.292394
v -0.183035 -0.118569 0.276896
v -0.169413 -0.116731 0.264101
v -0.149032 -0.156926 0.330594
v -0.149027 -0.142954 0.345272
v -0.182422 -0.009654 0.153890
v -0.215213 -0.008557 0.144320
v -0.235897 -0.007142 0.132244
v -0.253721 -0.005175 0.115681
v -0.268628 -0.002873 0.096679
v -0.276519 -0.000874 0.079248
v -0.289886 0.007953 0.023082
v -0.104557 -0.049937 -0.299245
v -0.116350 -0.051027 -0.282067
v -0.131325 -0.052733 -0.267799
v -0.148873 -0.076182 -0.344019
v -0.148863 -0.058989 -0.354776
v -0.192361 -0.049994 -0.297784
v -0.182879 -0.051217 -0.282136
v -0.169272 -0.052477 -0.269253
v -0.181106 0.025439 -0.137401
v -0.216893 0.024064 -0.126499
v -0.232902 0.022939 -0.117386
v -0.253626 0.020641 -0.098610
v -0.268095 0.018418 -0.080480
v -0.275964 0.016428 -0.063873
v -0.288902 0.009412 -0.009861
v -0.149309 0.165617 -0.009938
v -0.149393 0.163779 -0.037961
v -0.149413 0.157021 -0.060176
v -0.149293 0.047607 -0.137642
v -0.149400 0.011751 0.159999
l 1 2 3 4 5 6 7 8 9
l 10 11 12 13 14
l 14 15 16 17 18
l 19 20 21 22
l 23 24 25 26 27 28 29 30 31 32 33 34 35 36 37 18
l 23 38 39
l 23 40 41 42 43
l 22 44 45 46 39
l 22 47 48 49 43
l 10 348 50
l 1 51 52 53 54 55 9
l 43 56 57 58 59 60 61 62 63 64 65 14
l 19 66 67 68 69 70 71 72 73 74 75 10
l 10 76 77 78 79
l 79 80 81 82 18
l 83 84 85 86 87 88 89 90 91
l 18 92 93 94 95
l 91 96 97 98 50
l 91 99 100 101 102
l 103 104 105 106 107 108 109 110 14
l 79 111 1
l 112 113 114 115 116 117 118 119 91
l 120 121 122 123 124 125 126 127 50
l 128 129 130 131 132 133 134 135 136
l 137 138 139 140 141
l 141 142 143 144 145
l 146 147 148 149
l 150 151 152 153 154 155 156 157 158 159 160 161 162 163 164 145
l 150 165 166
l 150 167 168 169 170
l 149 171 172 173 166
l 149 174 175 176 170
l 137 347 177
l 128 178 179 180 181 182 136
l 166 183 184 185 186 187 188 189 190 191 192 193
l 170 194 195 196 197 198 199 200 201 202 203 141
l 146 204 205 206 207 208 209 210 211 212 213 137
l 137 214 215 216 193
l 193 217 218 219 145
l 83 220 221 222 223 224 225 226 227
l 227 228 229 230 177
l 227 231 232 233 102
l 103 234 235 236 237 238 239 240 141
l 193 241 128
l 112 242 243 244 245 246 247 248 227
l 120 249 250 251 252 253 254 255 177
l 103 256 257 258 259 260 261 95
l 95 262 263 264 265 266 267 268
l 102 269 270 271 272 273 274 83
l 102 275 276 268
l 112 277 278 279 280 120
l 112 281 282 283 284 285 286 287 83
l 103 288 289 290 291 292 293 294 120
l 1 295 296 297 9
l 9 298 268
l 136 299 268
l 128 300 301 302 136
l 39 303 304 305 306 307 308 309 310 311 312 313 79
l 39 314 315 316 19
l 43 317 318 319 19
l 22 320 321 23
l 50 322 323 324 325 326 327 328 103
l 166 329 330 331 146
l 149 332 333 150
l 170 334 335 336 146
l 177 337 338 339 340 341 342 343 103
l 95 344 345 346 145
