v 0.165573 -0.090510 0.190555
v 0.160277 -0.065996 0.197873
v 0.161147 -0.044192 0.200742
v 0.169110 -0.015855 0.201047
v 0.184058 0.008588 0.199467
v 0.205253 0.027354 0.198213
v 0.231272 0.038885 0.198160
v 0.259797 0.041822 0.198954
v 0.281013 0.037861 0.199706
v 0.305971 0.024374 0.200450
v 0.323456 0.002728 0.200194
v 0.331978 -0.024598 0.198259
v 0.337931 -0.067573 0.190515
v 0.344873 -0.083778 0.182564
v 0.352391 -0.090588 0.175485
v 0.367316 -0.094882 0.162961
v 0.384006 -0.094776 0.148876
v 0.404252 -0.093255 0.127776
v 0.416424 -0.092821 0.110085
v 0.435452 -0.093143 0.063950
v 0.442862 -0.093249 0.014444
v 0.438270 -0.093164 -0.035402
v 0.421888 -0.092862 -0.082542
v 0.410735 -0.093305 -0.100894
v 0.391717 -0.094836 -0.123107
v 0.375856 -0.094943 -0.138115
v 0.361674 -0.090642 -0.151466
v 0.354578 -0.083826 -0.158959
v 0.348108 -0.067613 -0.167293
v 0.342608 -0.024635 -0.175374
v 0.334197 0.002683 -0.177801
v 0.316743 0.024318 -0.179059
v 0.291774 0.037794 -0.179741
v 0.270549 0.041743 -0.180197
v 0.242027 0.038792 -0.181029
v 0.216058 0.027250 -0.182557
v 0.194976 0.008474 -0.185008
v 0.180153 -0.015975 -0.187424
v 0.172195 -0.044316 -0.187554
v 0.171172 -0.066119 -0.184725
v 0.176053 -0.090621 -0.177100
v 0.114681 -0.086771 0.190161
v 0.022968 -0.074870 0.185867
v 0.171995 -0.103997 0.183096
v 0.170379 -0.106986 0.180446
v 0.100459 -0.103032 0.182822
v 0.012864 -0.100303 0.174682
v 0.125218 -0.086849 -0.179620
v 0.033400 -0.074948 -0.180554
v 0.182031 -0.104087 -0.169287
v 0.180248 -0.107064 -0.166740
v 0.110573 -0.103106 -0.173095
v 0.022674 -0.100377 -0.169950
v -0.084871 -0.058483 0.176637
v -0.127869 -0.049894 0.170463
v 0.028006 -0.039118 0.196285
v 0.026750 -0.009213 0.198751
v 0.020507 0.018887 0.192995
v 0.008654 0.042691 0.177700
v -0.062268 -0.098485 0.159928
v -0.130758 -0.098720 0.142273
v -0.129890 -0.023052 0.172143
v -0.137422 0.007371 0.166531
v -0.128421 -0.075690 0.160661
v 0.103521 0.058307 0.185600
v 0.178549 0.063646 0.186641
v 0.248323 0.060172 0.180182
v 0.305787 0.048439 0.167042
v 0.357906 0.026683 0.146792
v 0.391892 0.002113 0.128765
v 0.404625 -0.005940 0.118419
v 0.415322 -0.006423 0.104182
v 0.432381 0.000170 0.068246
v 0.439429 0.001499 0.044219
v 0.442862 0.002189 0.014444
v -0.097576 0.019433 0.167589
v -0.132447 -0.074754 0.162862
v -0.136269 -0.045891 0.173607
v -0.147531 -0.003621 0.179741
v -0.167920 0.027571 0.182059
v -0.187475 0.043142 0.182424
v -0.216163 0.055805 0.181206
v -0.253078 0.062579 0.177402
v -0.290301 0.062853 0.171249
v -0.174907 -0.110808 0.136350
v -0.191105 -0.115825 0.140020
v -0.196981 -0.115925 0.146533
v -0.198574 -0.112439 0.155795
v -0.195187 -0.100485 0.171171
v -0.187980 -0.075342 0.185699
v -0.186157 -0.045812 0.189986
v -0.193585 -0.017401 0.189189
v -0.205390 0.000906 0.188383
v -0.227828 0.019586 0.188101
v -0.255131 0.030949 0.188121
v -0.284474 0.034164 0.187640
v -0.074791 -0.058559 -0.177482
v -0.118071 -0.049969 -0.173765
v 0.039022 -0.039202 -0.190684
v 0.037909 -0.009298 -0.193230
v 0.031349 0.018805 -0.187850
v 0.018644 0.042614 -0.173266
v -0.053175 -0.098553 -0.159496
v -0.122559 -0.098781 -0.145765
v -0.119991 -0.023127 -0.175570
v -0.127831 0.007299 -0.170409
v -0.119180 -0.075760 -0.163999
v -0.087989 0.019361 -0.169204
v 0.113809 0.058230 -0.175762
v 0.188772 0.063568 -0.172536
v 0.258066 0.060098 -0.162117
v 0.314689 0.048373 -0.145724
v 0.365571 0.026622 -0.122532
v 0.398477 0.002065 -0.102591
v 0.410603 -0.005985 -0.091533
v 0.420472 -0.006462 -0.076711
v 0.435459 0.000147 -0.039866
v 0.441128 0.001485 -0.015476
v -0.123073 -0.074825 -0.166428
v -0.126278 -0.045966 -0.177385
v -0.137172 -0.003699 -0.184168
v -0.157397 0.027492 -0.187654
v -0.176898 0.043062 -0.189137
v -0.205610 0.055725 -0.189558
v -0.242680 0.062501 -0.187863
v -0.280193 0.062778 -0.183839
v -0.166974 -0.110867 -0.142358
v -0.182936 -0.115886 -0.146942
v -0.188432 -0.115988 -0.153779
v -0.189496 -0.112507 -0.163118
v -0.185239 -0.100559 -0.178282
v -0.177216 -0.075422 -0.192387
v -0.175154 -0.045893 -0.196574
v -0.182614 -0.017483 -0.196214
v -0.194446 0.000824 -0.196088
v -0.216863 0.019504 -0.197091
v -0.244121 0.030866 -0.198669
v -0.273443 0.034082 -0.199860
v -0.133541 0.017830 -0.166850
v -0.143516 0.028152 -0.161706
v -0.170802 0.040821 -0.150547
v -0.219365 0.052678 -0.135163
v -0.272498 0.057094 -0.123515
v -0.317231 0.058253 -0.177066
v -0.353153 0.050173 -0.167684
v -0.381500 0.039806 -0.158235
v -0.406839 0.024354 -0.147379
v -0.423069 0.007624 -0.137545
v -0.433704 -0.012540 -0.126939
v -0.436842 -0.034904 -0.116427
v -0.430997 -0.058519 -0.107035
v -0.276551 0.050168 -0.194432
v -0.272575 0.064083 -0.150784
v -0.270932 0.061005 -0.135647
v -0.295155 0.030345 -0.200259
v -0.308719 0.024818 -0.200387
v -0.321037 0.016990 -0.200529
v -0.336444 0.001399 -0.200891
v -0.347806 -0.017957 -0.201047
v -0.357741 -0.047051 -0.198423
v -0.363200 -0.067672 -0.192022
v -0.369335 -0.082268 -0.181396
v -0.375107 -0.086540 -0.172787
v -0.382830 -0.086109 -0.163675
v -0.417569 -0.066614 -0.128884
v 0.412506 0.021169 0.013576
v 0.379882 0.036117 0.012643
v 0.337289 0.050495 0.011429
v 0.311347 0.055140 0.010689
v -0.344598 0.051207 -0.109118
v -0.387204 0.040909 -0.103146
v -0.013088 0.060339 -0.155731
v 0.056877 0.066693 -0.153528
v 0.111440 0.068245 -0.148053
v 0.165031 0.065301 -0.137250
v 0.206639 0.060755 -0.121403
v 0.244082 0.057007 -0.097145
v 0.272178 0.054923 -0.069095
v 0.303483 0.054882 -0.017753
v -0.072882 0.056828 -0.151455
v -0.132482 0.056293 -0.139950
v -0.184704 0.057287 -0.124074
v -0.245722 0.060325 -0.097383
v 0.011454 0.055938 -0.120008
v 0.030126 0.052975 -0.081200
v 0.042565 0.051538 -0.039762
v 0.046663 0.051207 0.003162
v -0.039971 0.079698 -0.144384
v -0.065924 0.090783 -0.134078
v 0.267854 0.049458 0.009452
v 0.161761 0.055042 0.006432
v 0.301877 0.054894 0.038637
v 0.267702 0.054957 0.088116
v 0.238057 0.057052 0.114523
v 0.199294 0.060811 0.136609
v 0.156852 0.065363 0.150060
v 0.102733 0.068310 0.157797
v 0.047948 0.066760 0.160159
v -0.022030 0.060405 0.158382
v -0.229423 0.064616 -0.102764
v -0.181627 0.084129 -0.108435
v -0.145036 0.092914 -0.114313
v -0.101545 0.096157 -0.123367
v -0.264409 0.058666 -0.085099
v -0.282631 0.058011 -0.063843
v -0.299060 0.057266 -0.033641
v -0.305672 0.057112 -0.006874
v 0.040232 0.051525 0.045784
v 0.025410 0.052994 0.086437
v 0.004507 0.055989 0.124109
v 0.008004 0.079171 0.002050
v -0.028333 0.099764 0.001010
v -0.049402 0.095726 -0.102674
v -0.037598 0.098828 -0.069397
v -0.030486 0.099924 -0.034563
v -0.081483 0.056893 0.150713
v -0.140333 0.056351 0.135837
v -0.191567 0.057338 0.117015
v -0.250968 0.060364 0.086894
v -0.048223 0.079760 0.145516
v -0.073548 0.090840 0.133746
v -0.260712 0.079022 -0.005599
v -0.225744 0.092475 -0.004607
v -0.185275 0.103929 -0.003457
v -0.143970 0.111770 -0.002284
v -0.106632 0.115988 -0.001221
v -0.078557 0.115401 -0.000423
v -0.053100 0.110187 0.000304
v -0.382269 0.043281 -0.009053
v -0.300593 0.057278 0.020224
v -0.285909 0.058036 0.051311
v -0.268925 0.058700 0.073567
v -0.032506 0.099939 0.036404
v -0.041588 0.098858 0.070777
v -0.055267 0.095770 0.103331
v -0.235001 0.064658 0.093191
v -0.187605 0.084175 0.101565
v -0.151409 0.092962 0.109512
v -0.108502 0.096209 0.121023
v -0.418411 0.030692 -0.010079
v -0.433536 0.018718 -0.010507
v -0.439619 0.008330 -0.010678
v -0.381941 0.042398 -0.045959
v -0.384041 0.042414 0.027814
v -0.392548 0.040949 0.084609
v -0.434416 -0.035797 -0.106101
v -0.435855 -0.022848 -0.101925
v -0.436896 -0.012012 -0.094898
v -0.437752 -0.003668 -0.085210
v -0.438980 0.005514 -0.060085
v -0.434696 -0.055931 -0.086739
v -0.434859 -0.055201 -0.010529
v -0.433369 -0.028688 -0.109750
v -0.425078 0.005028 -0.109807
v -0.409273 0.027947 -0.105267
v -0.441996 -0.016283 -0.010740
v -0.441792 0.005535 0.038688
v -0.441995 -0.003636 0.063845
v -0.441691 -0.011976 0.073569
v -0.441052 -0.022809 0.080650
v -0.439853 -0.035756 0.084906
v -0.436493 -0.058478 0.086043
v -0.439031 -0.055899 0.065568
v -0.442862 -0.034859 0.095077
v -0.440327 -0.012491 0.105740
v -0.430313 0.007678 0.116926
v -0.414669 0.024413 0.127660
v -0.389988 0.039870 0.139934
v -0.362224 0.050241 0.150975
v -0.326893 0.058324 0.162383
v -0.424330 -0.066563 0.108624
v -0.391628 -0.086042 0.145343
v -0.384435 -0.086469 0.154879
v -0.379161 -0.082195 0.163801
v -0.373641 -0.067593 0.174752
v -0.368554 -0.046970 0.181445
v -0.358784 -0.017875 0.184619
v -0.347431 0.001481 0.185101
v -0.332029 0.017072 0.185608
v -0.319722 0.024900 0.186164
v -0.306174 0.030428 0.186805
v -0.439015 -0.028645 0.088606
v -0.430741 0.005071 0.089120
v -0.414703 0.027987 0.085477
v -0.287268 0.050248 0.182038
v -0.280815 0.064145 0.138681
v -0.278313 0.061060 0.123662
v -0.279187 0.057144 0.111462
v -0.350351 0.051250 0.092990
v -0.226803 0.052734 0.126118
v -0.179194 0.040884 0.144244
v -0.152586 0.028220 0.156942
v -0.142920 0.017901 0.162649
v -0.343970 0.050197 -0.007963
v 0.017916 -0.087586 0.180274
v 0.028037 -0.087663 -0.175252
l 1 2 3 4 5 6 7 8 9 10 11 12 13 14 15 16 17 18 19 20 21 22 23 24 25 26 27 28 29 30 31 32 33 34 35 36 37 38 39 40 41
l 1 42 43
l 1 44 45 46 47
l 41 48 49
l 41 50 51 52 53
l 43 295 47
l 43 54 55
l 43 56 57 58 59
l 47 60 61
l 55 62 63
l 55 64 61
l 59 65 66 67 68 69 70 71 72 73 74 75
l 59 76 63
l 61 77 78 79 80 81 82 83 84
l 61 85 86 87 88 89 90 91 92 93 94 95 96
l 49 296 53
l 49 97 98
l 49 99 100 101 102
l 53 103 104
l 98 105 106
l 98 107 104
l 102 108 106
l 102 109 110 111 112 113 114 115 116 117 118 75
l 104 119 120 121 122 123 124 125 126
l 104 127 128 129 130 131 132 133 134 135 136 137 138
l 106 139 140 141 142 143
l 126 144 145 146 147 148 149 150 151
l 126 152 138
l 126 153 154 143
l 138 155 156 157 158 159 160 161 162 163 164 165 151
l 75 166 167 168 169
l 143 170 171
l 172 173 174 175 176 177 178 179 169
l 172 180 181 182 183
l 172 184 185 186 187
l 172 188 189
l 169 190 191 187
l 169 192 193 194 195 196 197 198 199
l 183 200 201 202 203 189
l 183 204 205 206 207
l 187 208 209 210 199
l 187 211 212
l 189 213 214 215 212
l 199 216 217 218 219
l 199 220 221
l 207 222 223 224 225 226 227 228 212
l 207 294 229
l 207 230 231 232 219
l 212 233 234 235 221
l 219 236 237 238 239 221
l 229 240 241 242
l 229 243 171
l 229 244 245
l 151 246 247 248 249 250 242
l 151 251 252
l 151 253 254 255 171
l 242 256 252
l 242 257 258 259 260 261 262
l 252 263 262
l 262 264 265 266 267 268 269 270 84
l 262 271 272 273 274 275 276 277 278 279 280 281 96
l 262 282 283 284 245
l 84 285 96
l 84 286 287 288
l 245 289 288
l 288 290 291 292 293 63
