v 0.174957 -0.191011 -0.121792
v 0.179472 -0.134486 -0.117651
v 0.187001 -0.055060 -0.107696
v 0.186159 -0.012910 -0.102206
v 0.180660 0.033589 -0.096459
v 0.325586 -0.118794 -0.033395
v 0.325089 -0.125795 -0.049631
v 0.319029 -0.133012 -0.065437
v 0.308366 -0.139780 -0.078652
v 0.293812 -0.145883 -0.088831
v 0.277728 -0.143107 -0.079748
v 0.264589 -0.138966 -0.067503
v 0.255119 -0.133471 -0.052392
v 0.251114 -0.126980 -0.036400
v 0.320238 -0.112652 -0.019098
v 0.310877 -0.107694 -0.006865
v 0.298877 -0.104165 0.003278
v 0.284513 -0.102262 0.010842
v 0.271628 -0.107217 0.002098
v 0.261328 -0.113218 -0.008982
v 0.253894 -0.119993 -0.021859
v 0.260930 -0.176813 0.231089
v 0.249940 -0.148822 0.044905
v 0.250397 -0.143938 0.003594
v 0.252603 -0.139105 -0.017844
v 0.252856 -0.133850 -0.028005
v 0.284906 -0.143278 0.237801
v 0.283425 -0.106040 0.120595
v 0.282821 -0.095162 0.077690
v 0.282782 -0.092496 0.058146
v 0.283097 -0.092964 0.038570
v 0.283661 -0.096266 0.024348
v 0.280160 0.110482 -0.082806
v 0.282961 0.112594 -0.045587
v 0.280058 0.112862 -0.033643
v 0.274058 0.112721 -0.022936
v 0.265341 0.112168 -0.014294
v 0.250997 0.110903 -0.006191
v 0.235091 0.109166 -0.001740
v 0.222202 0.107575 -0.002633
v 0.263473 0.157875 -0.085904
v 0.252464 0.174594 -0.087586
v 0.241861 0.185227 -0.088972
v 0.229612 0.193904 -0.090435
v 0.211501 0.202504 -0.092445
v 0.158666 0.215192 -0.097621
v 0.109330 0.226419 -0.102602
v 0.265182 -0.117915 0.000226
v 0.275068 -0.108232 0.007158
v 0.274814 -0.193045 0.228429
v 0.292339 -0.205315 0.226584
v 0.306129 -0.189599 0.229783
v 0.315506 -0.170937 0.233426
v 0.271077 -0.158799 0.234630
v 0.301749 -0.155491 0.235944
v 0.299736 -0.175926 -0.047725
v 0.298305 -0.166327 -0.072579
v 0.273923 0.107586 -0.125147
v 0.266336 0.105596 -0.147729
v 0.252370 0.103056 -0.166602
v 0.232304 0.100146 -0.179122
v 0.328636 -0.104896 -0.041370
v 0.334815 -0.071674 -0.053372
v 0.334243 -0.047252 -0.061184
v 0.329904 -0.017543 -0.068428
v 0.322490 0.011892 -0.073870
v 0.310844 0.045640 -0.078437
v 0.243972 -0.115465 -0.044505
v 0.220631 -0.083320 -0.057685
v 0.200704 -0.037676 -0.071212
v 0.184807 0.021473 -0.080935
v 0.173305 0.097867 -0.087046
v 0.278869 -0.072177 0.025554
v 0.273869 -0.049609 0.032821
v 0.266761 -0.021694 0.037011
v 0.258830 0.006323 0.037121
v 0.248858 0.038493 0.032791
v 0.238289 0.069428 0.023565
v 0.230506 0.089746 0.013087
v 0.286302 -0.110636 -0.124792
v 0.281042 -0.087286 -0.144018
v 0.274083 -0.057695 -0.163029
v 0.266307 -0.025954 -0.177743
v 0.257770 0.007542 -0.187186
v 0.249944 0.037095 -0.190173
v 0.241836 0.066581 -0.187669
v 0.261324 -0.156031 -0.029993
v 0.271734 -0.166575 -0.039029
v 0.282267 -0.172029 -0.044028
v 0.330762 -0.153554 0.119492
v 0.335384 -0.145689 0.067438
v 0.334825 -0.139500 0.025790
v 0.329792 -0.137160 -0.000184
v 0.326254 -0.132904 -0.015785
v 0.325157 -0.126908 -0.025423
v 0.294537 -0.207126 0.196321
v 0.301684 -0.216851 0.116136
v 0.304350 -0.216217 0.065582
v 0.304684 -0.211259 0.035595
v 0.304120 -0.204193 0.011283
v 0.211502 0.125955 0.011999
v 0.201630 0.142548 0.016551
v 0.191764 0.159500 0.013591
v 0.183009 0.174893 0.004087
v 0.174276 0.190593 -0.013559
v 0.168038 0.202188 -0.034843
v 0.161820 0.211865 -0.068285
v -0.001147 -0.204207 -0.000908
v 0.045198 -0.199100 -0.000016
v 0.081257 -0.195311 -0.002938
v 0.106297 -0.192905 -0.009459
v 0.129311 -0.190985 -0.021309
v 0.148136 -0.189815 -0.039042
v 0.161209 -0.189501 -0.061376
v 0.170576 -0.189966 -0.091249
v 0.172792 -0.192223 -0.141522
v 0.164839 -0.194246 -0.164932
v 0.153349 -0.196269 -0.180585
v 0.141540 -0.197972 -0.189128
v 0.123171 -0.200308 -0.196083
v 0.103725 -0.202579 -0.199400
v 0.025128 -0.211214 -0.201724
v -0.053644 0.275872 -0.025345
v -0.034761 0.277913 -0.025930
v -0.005666 0.280809 -0.031843
v 0.012599 0.282471 -0.038743
v 0.024988 0.283448 -0.046441
v 0.035669 0.284125 -0.056390
v 0.046896 0.284549 -0.072557
v 0.055048 0.284537 -0.090811
v 0.058996 0.284088 -0.109258
v 0.057767 0.283364 -0.122221
v 0.050539 0.281686 -0.142339
v 0.041986 0.280075 -0.157074
v 0.030778 0.278229 -0.169811
v 0.005698 0.274626 -0.185504
v -0.010497 0.272486 -0.190789
v -0.031365 0.269926 -0.194421
v -0.026616 0.015831 -0.001768
v 0.070675 0.027342 0.016526
v 0.100427 0.030561 0.015618
v 0.124208 0.032822 0.008594
v 0.144714 0.034378 -0.005322
v 0.159864 0.035059 -0.025016
v 0.171076 0.034931 -0.052725
v 0.178916 0.032022 -0.128166
v 0.173038 0.030063 -0.154553
v 0.162548 0.027920 -0.174341
v 0.146123 0.025368 -0.189453
v 0.125843 0.022667 -0.199018
v 0.099611 0.019479 -0.205213
v 0.000999 0.008313 -0.212269
v 0.105290 0.225626 -0.083178
v 0.094927 0.224206 -0.059697
v 0.082696 0.221810 -0.044038
v 0.066660 0.218310 -0.032503
v 0.048236 0.214326 -0.025065
v 0.028824 0.210380 -0.020989
v -0.005988 0.204435 -0.018943
v -0.046030 0.200305 -0.018016
v 0.106530 0.226969 -0.120696
v 0.098607 0.226503 -0.137196
v 0.087876 0.224622 -0.151894
v 0.071531 0.220640 -0.167272
v 0.037046 0.210783 -0.187196
v -0.008267 0.195822 -0.204011
v -0.021015 0.193010 -0.206624
v -0.136422 -0.226515 -0.148575
v -0.154088 -0.172510 -0.146164
v -0.180732 -0.096979 -0.139127
v -0.190262 -0.055819 -0.134371
v -0.196338 -0.009391 -0.128775
v -0.312008 -0.191503 -0.087913
v -0.307248 -0.197894 -0.103692
v -0.297169 -0.203256 -0.118106
v -0.283204 -0.207211 -0.129212
v -0.266160 -0.209716 -0.136693
v -0.252858 -0.203590 -0.125097
v -0.243219 -0.196852 -0.110906
v -0.237884 -0.189672 -0.094532
v -0.238170 -0.182757 -0.078223
v -0.310642 -0.184584 -0.073034
v -0.304815 -0.177881 -0.059491
v -0.295776 -0.171947 -0.047544
v -0.283655 -0.167019 -0.037716
v -0.268732 -0.168813 -0.044087
v -0.255648 -0.172151 -0.053169
v -0.244836 -0.176847 -0.064489
v -0.281276 -0.238621 0.184746
v -0.245785 -0.205330 0.002535
v -0.240391 -0.199893 -0.038363
v -0.239996 -0.195276 -0.059966
v -0.239711 -0.190011 -0.070118
v -0.312915 -0.211425 0.186704
v -0.300177 -0.172566 0.070714
v -0.294838 -0.161011 0.028316
v -0.292123 -0.158031 0.009008
v -0.289044 -0.158185 -0.010332
v -0.286460 -0.161255 -0.024380
v -0.311364 0.043058 -0.133325
v -0.320498 0.043661 -0.100079
v -0.320428 0.044293 -0.087377
v -0.316914 0.045271 -0.075233
v -0.310057 0.046526 -0.064604
v -0.297127 0.048393 -0.053490
v -0.281663 0.050242 -0.046034
v -0.268652 0.051626 -0.044516
v -0.305365 0.093127 -0.134532
v -0.298208 0.111941 -0.134657
v -0.290130 0.124713 -0.134446
v -0.280025 0.135933 -0.134001
v -0.264183 0.148379 -0.133111
v -0.219466 0.170891 -0.129867
v -0.169966 0.194648 -0.126584
v -0.260077 -0.177647 -0.044569
v -0.271071 -0.171388 -0.040221
v -0.290533 -0.257491 0.180107
v -0.304311 -0.273329 0.175587
v -0.321600 -0.261156 0.176130
v -0.335384 -0.245134 0.177793
v -0.295637 -0.223401 0.186192
v -0.326049 -0.227056 0.182285
v -0.272019 -0.241100 -0.096595
v -0.268629 -0.230953 -0.121036
v -0.297617 0.042435 -0.173990
v -0.286104 0.042622 -0.194943
v -0.268961 0.043628 -0.211162
v -0.246947 0.045515 -0.220085
v -0.316711 -0.178436 -0.096508
v -0.328055 -0.147239 -0.110030
v -0.331653 -0.123160 -0.118099
v -0.332912 -0.093098 -0.125079
v -0.331458 -0.062653 -0.129764
v -0.327052 -0.027075 -0.132959
v -0.232527 -0.169779 -0.085229
v -0.215089 -0.132989 -0.094927
v -0.203889 -0.083797 -0.105793
v -0.200211 -0.022416 -0.113844
v -0.205193 0.054717 -0.119462
v -0.287447 -0.136734 -0.022850
v -0.288904 -0.113761 -0.015280
v -0.289019 -0.085048 -0.010492
v -0.287682 -0.055976 -0.009590
v -0.284571 -0.022314 -0.012802
v -0.279788 0.010372 -0.020717
v -0.275084 0.032112 -0.030133
v -0.260799 -0.173001 -0.171554
v -0.257745 -0.148703 -0.190069
v -0.254490 -0.117948 -0.208207
v -0.251651 -0.084997 -0.222013
v -0.249356 -0.050266 -0.230531
v -0.247945 -0.019660 -0.232728
v -0.247168 0.010838 -0.229465
v -0.242321 -0.212468 -0.072244
v -0.247536 -0.224474 -0.082279
v -0.257418 -0.234152 -0.090651
v -0.334829 -0.229426 0.062604
v -0.332303 -0.221803 0.010368
v -0.326172 -0.214838 -0.030699
v -0.317503 -0.211046 -0.055587
v -0.312439 -0.205859 -0.070492
v -0.311113 -0.199539 -0.079886
v -0.300946 -0.275007 0.145424
v -0.292203 -0.284549 0.065376
v -0.286433 -0.283562 0.015087
v -0.282838 -0.278232 -0.014622
v -0.279803 -0.270756 -0.038626
v -0.264772 0.071557 -0.028772
v -0.259809 0.089743 -0.022908
v -0.253677 0.108442 -0.024385
v -0.247157 0.125535 -0.032445
v -0.239351 0.143117 -0.048494
v -0.231065 0.158388 -0.072819
v -0.224411 0.167297 -0.100795
v -0.039204 -0.208753 -0.007812
v -0.071391 -0.212802 -0.017704
v -0.092860 -0.215714 -0.028556
v -0.111450 -0.218526 -0.043773
v -0.125343 -0.221038 -0.063377
v -0.133556 -0.223073 -0.086006
v -0.137619 -0.225201 -0.119645
v -0.128802 -0.226830 -0.171932
v -0.118794 -0.226576 -0.189140
v -0.104715 -0.225685 -0.202611
v -0.091588 -0.224546 -0.209020
v -0.072291 -0.222588 -0.212768
v -0.052577 -0.220396 -0.212755
v -0.066545 0.274300 -0.028452
v -0.086280 0.271653 -0.038074
v -0.100791 0.269569 -0.047965
v -0.113265 0.267591 -0.060210
v -0.122755 0.265821 -0.074853
v -0.129105 0.264302 -0.091294
v -0.133526 0.262741 -0.113090
v -0.133362 0.262153 -0.125907
v -0.128151 0.262010 -0.141783
v -0.119468 0.262328 -0.156370
v -0.108716 0.262925 -0.169338
v -0.095747 0.263840 -0.179942
v -0.068876 0.266151 -0.191477
v -0.048142 0.268145 -0.194541
v -0.082327 0.009829 0.002070
v -0.110221 0.006720 0.001028
v -0.137472 0.003441 -0.004734
v -0.162132 0.000101 -0.017497
v -0.178219 -0.002494 -0.034131
v -0.190124 -0.005054 -0.059293
v -0.195447 -0.007224 -0.091496
v -0.189008 -0.009916 -0.159561
v -0.178522 -0.010010 -0.184567
v -0.164682 -0.009379 -0.202253
v -0.145841 -0.007911 -0.214363
v -0.124187 -0.005833 -0.220362
v -0.097274 -0.002964 -0.222031
v -0.164385 0.196116 -0.143595
v -0.153973 0.197708 -0.158598
v -0.140904 0.198560 -0.171239
v -0.121910 0.198646 -0.183549
v -0.083560 0.197127 -0.197334
v -0.034271 0.192885 -0.206204
v -0.038789 0.112912 0.005940
v -0.042762 0.147309 0.005925
v -0.044859 0.170784 0.000467
v -0.047228 0.216239 -0.023819
v -0.049017 0.234148 -0.026600
v -0.007673 -0.158958 0.007776
v -0.013353 -0.112961 0.010447
v -0.018372 -0.066865 0.007859
v -0.010566 0.109766 -0.213691
v 0.020862 -0.179430 -0.196721
v 0.016078 -0.138100 -0.196716
v 0.163427 0.211945 -0.123462
v 0.171643 0.201027 -0.155776
v 0.179894 0.187861 -0.177025
v 0.188828 0.173437 -0.190970
v 0.199333 0.156140 -0.199364
v 0.210506 0.137439 -0.200085
v 0.221029 0.119548 -0.193202
v -0.216195 0.168299 -0.156116
v -0.215034 0.158754 -0.185105
v -0.216218 0.145253 -0.207661
v -0.219620 0.126746 -0.225977
v -0.224440 0.107717 -0.235620
v -0.230866 0.087044 -0.237801
v -0.238113 0.067168 -0.232425
v -0.250024 0.053407 -0.050690
v -0.229998 0.054807 -0.067732
v -0.213802 0.055124 -0.094900
v -0.226739 0.048285 -0.206781
v -0.213661 0.050649 -0.186766
v -0.206411 0.053053 -0.153460
v -0.286991 -0.234979 -0.092295
v -0.296476 -0.228791 -0.087524
v -0.306673 -0.217795 -0.079366
v 0.311417 -0.167297 -0.041557
v 0.319911 -0.157275 -0.033846
v 0.325178 -0.145192 -0.024908
v 0.204462 0.105166 -0.012526
v 0.190010 0.102805 -0.029318
v 0.179131 0.100275 -0.054798
v 0.210052 0.098076 -0.169451
v 0.193615 0.097076 -0.151948
v 0.180535 0.097161 -0.120409
v -0.077412 0.196506 -0.025417
v -0.108508 0.195192 -0.034175
v -0.129527 0.194912 -0.043836
v -0.144488 0.194891 -0.054739
v -0.156326 0.194926 -0.068761
v -0.164053 0.194790 -0.085398
v -0.169279 0.194342 -0.108219
v -0.294638 -0.172814 -0.041987
v -0.302815 -0.180385 -0.048240
v -0.311391 -0.196121 -0.061911
v 0.298377 -0.105839 0.008093
v 0.309806 -0.112395 0.002568
v 0.321013 -0.123075 -0.007054
v -0.157228 0.206184 -0.125919
v -0.147219 0.220327 -0.125616
v -0.140250 0.236312 -0.125655
v 0.094526 0.235022 -0.104359
v 0.081897 0.246764 -0.106055
v 0.071649 0.260711 -0.107580
v 0.176983 0.065728 -0.091752
v 0.133998 0.220805 -0.100111
v -0.187580 0.124683 -0.123023
v -0.194716 0.182769 -0.128225
v -0.200766 0.022663 -0.124119
v 0.141318 0.162143 -0.094824
v -0.026190 0.231468 -0.200522
l 1 2 3 4 5
l 6 7 8 9 10
l 10 11 12 13 14
l 6 15 16 17 18
l 18 19 20 21 14
l 22 23 24 25
l 25 26 14
l 27 28 29 30 31 32 18
l 33 34 35 36 37 38 39 40
l 33 41 42 43 44 45 46
l 46 384 47
l 25 48 49 18
l 22 50 51
l 51 52 53
l 22 54 27
l 27 55 53
l 56 57 10
l 33 58 59 60 61
l 6 62 63 64 65 66 67 33
l 14 68 69 70 71 72
l 18 73 74 75 76 77 78 79 40
l 10 80 81 82 83 84 85 86 61
l 25 87 88 89 56
l 53 90 91 92 93 94
l 94 95 6
l 51 96 97 98 99 100 56
l 40 101 102 103 104 105 106 107 46
l 108 109 110 111 112 113 114 115 1
l 1 116 117 118 119 120 121 122
l 123 124 125 126 127 128 129 130 131
l 131 132 133 134 135 136 137 138
l 139 140 141 142 143 144 145 5
l 5 146 147 148 149 150 151 152
l 47 153 154 155 156 157 158 159 160
l 47 161 162 163 164 165 166 167
l 168 169 170 171 172
l 173 174 175 176 177
l 177 178 179 180 181
l 173 182 183 184 185
l 185 186 187 188 181
l 189 190 191 192
l 192 193 181
l 194 195 196 197 198 199 185
l 200 201 202 203 204 205 206 207
l 200 208 209 210 211 212 213
l 213 386 214
l 192 215 216 185
l 189 217 218
l 218 219 220
l 189 221 194
l 194 222 220
l 223 224 177
l 200 225 226 227 228
l 173 229 230 231 232 233 234 200
l 181 235 236 237 238 239
l 185 240 241 242 243 244 245 246 207
l 177 247 248 249 250 251 252 253 228
l 192 254 255 256 223
l 220 257 258 259 260 261
l 261 262 173
l 218 263 264 265 266 267 223
l 207 268 269 270 271 272 273 274 213
l 108 275 276 277 278 279 280 281 168
l 168 282 283 284 285 286 287 122
l 123 288 289 290 291 292 293 294 295
l 295 296 297 298 299 300 301 138
l 139 302 303 304 305 306 307 308 172
l 172 309 310 311 312 313 314 152
l 214 315 316 317 318 319 320 167
l 139 321 322 323 160
l 160 324 325 123
l 108 326 327 328 139
l 152 329 167
l 122 330 331 152
l 172 387 239
l 239 385 214
l 5 383 72
l 72 388 47
l 167 389 138
l 46 332 333 334 335 336 337 338 61
l 213 339 340 341 342 343 344 345 228
l 207 346 347 348 239
l 228 349 350 351 239
l 223 352 353 354 261
l 56 355 356 357 94
l 40 358 359 360 72
l 61 361 362 363 72
l 160 364 365 366 367 368 369 370 214
l 185 371 372 373 261
l 18 374 375 376 94
l 214 377 378 379 295
l 47 380 381 382 131
