v 0.186025 -0.212432 0.332649
v 0.189548 -0.212592 0.309914
v 0.189412 -0.212941 0.263764
v 0.179649 -0.213977 0.129489
v 0.152669 -0.215730 -0.099733
v 0.129176 -0.216729 -0.240087
v 0.112986 -0.216983 -0.291414
v 0.096925 -0.217086 -0.317335
v 0.076299 -0.217107 -0.326979
v 0.037973 -0.217098 -0.329474
v -0.054354 -0.217103 -0.329172
v -0.080914 -0.217105 -0.325336
v -0.099260 -0.217067 -0.312013
v -0.114837 -0.216918 -0.276998
v -0.125641 -0.216729 -0.240088
v -0.138933 -0.216236 -0.168224
v -0.168198 -0.214567 0.052957
v -0.184580 -0.213147 0.236865
v -0.186177 -0.212621 0.306072
v -0.182489 -0.212432 0.332647
v 0.000325 -0.146497 0.348483
v 0.000323 -0.145593 0.117824
v 0.000321 -0.133122 -0.058552
v 0.000320 -0.126503 -0.104194
v 0.000319 -0.117758 -0.137640
v 0.000318 -0.103225 -0.168941
v 0.000317 -0.086066 -0.189539
v 0.000316 -0.073734 -0.198675
v 0.000316 -0.052540 -0.207604
v 0.000313 -0.018317 -0.211667
v 0.000312 0.012197 -0.208111
v 0.000309 0.059079 -0.191241
v 0.000307 0.084968 -0.174704
v 0.000304 0.123435 -0.137225
v 0.000301 0.139153 -0.115384
v 0.000297 0.163099 -0.067268
v 0.000293 0.176232 -0.015164
v 0.000291 0.178071 0.011677
v 0.000287 0.172300 0.057330
v 0.000285 0.163222 0.082628
v 0.000283 0.151388 0.102424
v 0.000281 0.136122 0.119691
v 0.000279 0.114825 0.136076
v 0.000277 0.090593 0.147756
v 0.000275 0.060958 0.155936
v 0.000262 0.393803 0.278790
v 0.000260 0.392055 0.148285
v 0.000260 0.385222 0.071787
v 0.000260 0.373412 -0.011865
v 0.000262 0.338912 -0.173306
v 0.000265 0.298960 -0.313659
v 0.000266 0.288128 -0.333646
v 0.000267 0.277887 -0.338621
v 0.000269 0.258788 -0.340124
v 0.000273 0.112923 -0.335837
v 0.000268 -0.125180 -0.335847
v 0.000274 -0.217094 -0.329336
v 0.000275 -0.213161 -0.264245
v 0.000327 -0.212879 0.350009
v 0.185792 -0.174659 0.332684
v 0.191673 -0.174292 0.302594
v 0.192866 -0.173750 0.256479
v 0.181552 -0.171874 0.091558
v 0.157145 -0.169814 -0.099146
v 0.141001 -0.168879 -0.193915
v 0.127236 -0.168401 -0.253865
v 0.111307 -0.168179 -0.301191
v 0.093747 -0.168116 -0.321073
v 0.060836 -0.168101 -0.330950
v -0.000585 -0.168103 -0.333777
v -0.061988 -0.168102 -0.330680
v -0.091172 -0.168115 -0.321571
v -0.100073 -0.168134 -0.314289
v -0.108357 -0.168179 -0.301399
v -0.123702 -0.168402 -0.253865
v -0.137466 -0.168879 -0.193916
v -0.153610 -0.169814 -0.099147
v -0.178017 -0.171874 0.091557
v -0.189331 -0.173750 0.256479
v -0.188138 -0.174292 0.302594
v -0.182257 -0.174659 0.332684
v 0.000263 0.246412 0.305863
v -0.038083 0.245751 0.304676
v -0.060408 0.244872 0.299418
v -0.075278 0.243951 0.287798
v -0.081746 0.243132 0.269845
v -0.099439 0.238524 0.156181
v -0.116528 0.232014 -0.011750
v -0.132722 0.224464 -0.222148
v -0.132715 0.222631 -0.291100
v -0.127678 0.222033 -0.309571
v -0.119636 0.221502 -0.322558
v -0.107447 0.221000 -0.331710
v -0.092959 0.220604 -0.336614
v -0.058591 0.220076 -0.339408
v 0.087220 0.220454 -0.337890
v 0.112740 0.221102 -0.330113
v 0.126584 0.221742 -0.317092
v 0.134182 0.222372 -0.299581
v 0.137965 0.223215 -0.269184
v 0.123153 0.230678 -0.047171
v 0.099307 0.239694 0.185617
v 0.087999 0.242617 0.257609
v 0.077090 0.244082 0.290015
v 0.064686 0.244801 0.298801
v 0.050008 0.245411 0.303159
v 0.068003 0.061486 0.155843
v 0.074931 0.095750 0.139986
v 0.081486 0.124214 0.121555
v 0.087515 0.146516 0.101349
v 0.092856 0.162715 0.080592
v 0.097363 0.173099 0.060534
v 0.102405 0.181058 0.035411
v 0.107042 0.183777 0.009115
v 0.110655 0.182490 -0.013596
v 0.117222 0.169336 -0.061171
v 0.122296 0.145502 -0.104630
v 0.124822 0.126858 -0.128875
v 0.128084 0.091006 -0.163350
v 0.130421 0.049055 -0.190127
v 0.131782 0.005590 -0.204958
v 0.132163 -0.017301 -0.207337
v 0.133587 -0.051347 -0.202421
v 0.136762 -0.078221 -0.188185
v 0.141424 -0.098674 -0.165902
v 0.146844 -0.112590 -0.139128
v 0.153262 -0.122207 -0.106612
v 0.161848 -0.128482 -0.061830
v 0.180079 -0.128019 0.055667
v 0.192570 -0.130926 0.193239
v 0.194250 -0.135655 0.289025
v 0.190470 -0.137366 0.319414
v 0.184958 -0.138058 0.333633
v -0.047866 0.064988 0.286921
v -0.063618 0.116467 0.285985
v -0.073653 0.177186 0.284665
v -0.080256 0.303956 0.280723
v -0.079556 0.346243 0.279569
v -0.073547 0.368423 0.279094
v -0.060802 0.382539 0.278872
v -0.035566 0.391403 0.278792
v -0.001036 0.393778 0.278790
v 0.037326 0.391215 0.278793
v 0.059209 0.384154 0.278853
v 0.075447 0.368240 0.279098
v 0.082042 0.346230 0.279570
v 0.083476 0.303968 0.280722
v 0.077187 0.177186 0.284665
v 0.067152 0.116467 0.285985
v 0.051400 0.064988 0.286922
v -0.128629 -0.017370 -0.207343
v 0.001766 -0.018782 -0.211710
v 0.132164 -0.017370 -0.207343
v -0.122069 -0.216807 -0.253870
v -0.134386 0.274570 -0.253841
v -0.129695 0.297025 -0.254252
v -0.120249 0.308820 -0.254434
v -0.102323 0.315144 -0.254492
v -0.075512 0.316760 -0.254464
v 0.097293 0.315974 -0.254491
v 0.119577 0.310627 -0.254458
v 0.128516 0.303467 -0.254358
v 0.133883 0.293339 -0.254188
v 0.137616 0.274563 -0.253841
v 0.138336 0.240025 -0.253150
v 0.130347 0.040472 -0.253015
v 0.125604 -0.216807 -0.253870
v 0.034196 -0.213045 -0.253555
v -0.076443 -0.213488 -0.253714
v -0.064468 0.061486 0.155843
v -0.071396 0.095750 0.139986
v -0.077951 0.124215 0.121555
v -0.083981 0.146516 0.101349
v -0.089321 0.162714 0.080592
v -0.093828 0.173099 0.060534
v -0.098871 0.181058 0.035411
v -0.103507 0.183777 0.009115
v -0.107121 0.182490 -0.013595
v -0.113688 0.169336 -0.061171
v -0.118761 0.145502 -0.104629
v -0.121288 0.126858 -0.128874
v -0.124550 0.091006 -0.163349
v -0.126886 0.049055 -0.190127
v -0.128247 0.005590 -0.204958
v -0.128628 -0.017301 -0.207337
v -0.130052 -0.051347 -0.202421
v -0.133227 -0.078220 -0.188185
v -0.137889 -0.098674 -0.165902
v -0.143310 -0.112590 -0.139129
v -0.149728 -0.122207 -0.106612
v -0.158313 -0.128482 -0.061830
v -0.176545 -0.128019 0.055667
v -0.189035 -0.130926 0.193239
v -0.190716 -0.135655 0.289025
v -0.186934 -0.137366 0.319414
v -0.181423 -0.138058 0.333633
v 0.169041 -0.174992 0.341289
v 0.130888 -0.175656 0.346608
v -0.034891 -0.176998 0.349235
v -0.138912 -0.175475 0.345638
v -0.169258 -0.174926 0.340327
v 0.001760 0.064415 0.291192
v 0.126001 -0.016977 -0.280046
v 0.118962 -0.016832 -0.301926
v 0.110137 -0.016755 -0.314420
v 0.094344 -0.016693 -0.325146
v 0.072260 -0.016661 -0.331589
v -0.000559 -0.016645 -0.335569
v -0.073323 -0.016663 -0.331100
v -0.091663 -0.016692 -0.325516
v -0.107390 -0.016753 -0.314731
v -0.115980 -0.016832 -0.302079
v -0.122624 -0.016977 -0.280069
v 0.000269 0.064413 0.291204
v 0.063733 0.063371 0.206177
v -0.060198 0.063371 0.206177
v 0.000267 0.098050 0.299191
v 0.000265 0.143820 0.304735
v 0.000263 0.255227 0.305549
v 0.000262 0.335479 0.297645
v 0.000262 0.365313 0.290265
v 0.167110 -0.139305 0.340127
v 0.128896 -0.141862 0.344653
v 0.001750 -0.146491 0.348480
v -0.125398 -0.141937 0.344741
v -0.163605 -0.139330 0.340194
v 0.172723 -0.212451 0.339788
v 0.134659 -0.212601 0.345661
v -0.000183 -0.212879 0.350008
v -0.131173 -0.212605 0.345776
v -0.169231 -0.212451 0.339867
l 1 2 3 4 5 6 7 8 9 10 11 12 13 14 15 16 17 18 19 20
l 21 22 23 24 25 26 27 28 29 30 31 32 33 34 35 36 37 38 39 40 41 42 43 44 45
l 46 47 48 49 50 51 52 53 54 55 56 57
l 57 58 59
l 60 61 62 63 64 65 66 67 68 69 70 71 72 73 74 75 76 77 78 79 80 81
l 82 83 84 85 86 87 88 89 90 91 92 93 94 95 96 97 98 99 100 101 102 103 104 105 106 82
l 107 108 109 110 111 112 113 114 115 116 117 118 119 120 121 122 123 124 125 126 127 128 129 130 131 132 133
l 134 135 136 137 138 139 140 141 142 143 144 145 146 147 148 149 150
l 151 152 153
l 154 155 156 157 158 159 160 161 162 163 164 165 166 167
l 167 168 169 154
l 170 171 172 173 174 175 176 177 178 179 180 181 182 183 184 185 186 187 188 189 190 191 192 193 194 195 196
l 60 197 198 199 200 201 81
l 134 202 150
l 153 203 204 205 206 207 208 209 210 211 212 213 151
l 133 1
l 45 214
l 150 215 107
l 134 216 170
l 214 217 218 219 220 221 46
l 133 222 223 224 225 226 196
l 196 20
l 1 227 228 229 230 231 20
l 107 170
l 59 21
