v 0.102200 0.168477 0.126400
v 0.103360 0.274289 0.129708
v 0.095450 0.301418 0.130354
v 0.077382 0.323258 0.130949
v 0.057005 0.336622 0.131350
v 0.030278 0.346323 0.131661
v 0.000000 0.349813 0.131780
v -0.030278 0.346323 0.131661
v -0.057005 0.336622 0.131350
v -0.077382 0.323258 0.130949
v -0.095450 0.301418 0.130354
v -0.103360 0.274289 0.129708
v -0.102200 0.168477 0.126400
v 0.101171 0.164540 0.240136
v 0.103058 0.266950 0.241786
v 0.100627 0.283095 0.242083
v 0.094100 0.298076 0.242373
v 0.078494 0.316956 0.242758
v 0.055065 0.333343 0.243103
v 0.028372 0.343640 0.243320
v 0.000000 0.347394 0.243381
v -0.028372 0.343640 0.243320
v -0.055065 0.333343 0.243103
v -0.078494 0.316956 0.242758
v -0.094100 0.298076 0.242373
v -0.100627 0.283095 0.242083
v -0.103058 0.266950 0.241786
v -0.101171 0.164540 0.240136
v 0.158394 -0.171427 -0.035965
v 0.159989 -0.164605 -0.276490
v 0.000073 -0.028000 -0.042174
v 0.040836 -0.028010 -0.039050
v 0.084383 -0.028160 -0.027916
v 0.117631 -0.028476 -0.012192
v 0.143981 -0.028972 0.007143
v 0.170248 -0.029933 0.038369
v 0.187437 -0.030763 0.070864
v 0.197578 -0.031441 0.106193
v 0.200542 -0.031995 0.142851
v 0.196333 -0.032542 0.183475
v 0.186008 -0.032885 0.214479
v 0.169198 -0.033138 0.242485
v 0.146433 -0.033309 0.265908
v 0.118920 -0.033403 0.283538
v 0.084788 -0.033323 0.297257
v 0.044865 -0.033098 0.306074
v 0.000000 -0.032910 0.309104
v -0.044865 -0.033098 0.306074
v -0.084788 -0.033323 0.297257
v -0.118920 -0.033403 0.283538
v -0.146433 -0.033309 0.265908
v -0.169198 -0.033138 0.242485
v -0.186008 -0.032885 0.214479
v -0.196333 -0.032542 0.183475
v -0.200542 -0.031995 0.142851
v -0.197578 -0.031441 0.106193
v -0.187437 -0.030763 0.070864
v -0.170248 -0.029933 0.038369
v -0.143981 -0.028972 0.007143
v -0.117631 -0.028476 -0.012192
v -0.084383 -0.028160 -0.027916
v -0.040836 -0.028010 -0.039050
v -0.000073 -0.028000 -0.042174
v 0.124957 0.104311 0.315277
v 0.160792 0.104437 0.295775
v 0.196126 0.104816 0.261953
v 0.218650 0.105370 0.223156
v 0.230736 0.106092 0.179927
v 0.232736 0.106941 0.135081
v 0.223292 0.107921 0.087041
v 0.202783 0.108900 0.042586
v 0.175114 0.109754 0.007240
v 0.145570 0.110314 -0.014565
v 0.104517 0.110804 -0.032795
v 0.052920 0.111168 -0.045410
v 0.000000 0.111319 -0.049868
v -0.052920 0.111168 -0.045410
v -0.104517 0.110804 -0.032795
v -0.145570 0.110314 -0.014565
v -0.175114 0.109754 0.007240
v -0.198365 0.109060 0.035702
v -0.216044 0.108331 0.067930
v -0.227727 0.107592 0.102783
v -0.233161 0.106781 0.143248
v -0.230736 0.106092 0.179927
v -0.221627 0.105490 0.215536
v -0.205512 0.104996 0.248559
v -0.182632 0.104629 0.277305
v -0.160792 0.104437 0.295775
v -0.128763 0.104314 0.313777
v -0.097608 0.104331 0.323670
v -0.065385 0.104423 0.329279
v -0.016417 0.104601 0.332366
v 0.045025 0.104498 0.331207
v 0.089615 0.104349 0.325416
v 0.000000 0.177384 -0.289389
v 0.000000 0.164381 0.240804
v -0.106125 0.184802 -0.289494
v -0.106266 0.283126 -0.287255
v -0.097012 0.314305 -0.286586
v -0.081834 0.333494 -0.286168
v -0.061636 0.347359 -0.285871
v -0.034630 0.356779 -0.285689
v -0.002086 0.360152 -0.285667
v -0.066059 0.172263 -0.163517
v -0.071546 0.078952 -0.165470
v -0.090253 -0.016741 -0.167487
v -0.119227 -0.096977 -0.169226
v -0.159346 -0.167588 -0.170875
v -0.000125 -0.214915 0.330395
v 0.032559 -0.214903 0.328776
v 0.084524 -0.214628 0.317883
v 0.110695 -0.214305 0.306356
v 0.143943 -0.213618 0.282724
v 0.169723 -0.212673 0.251085
v 0.181239 -0.212018 0.229437
v 0.195052 -0.210842 0.190990
v 0.203883 -0.209478 0.146906
v 0.209328 -0.207307 0.077633
v 0.208873 -0.203462 -0.040928
v 0.198807 -0.198801 -0.175469
v 0.183065 -0.194989 -0.284683
v 0.175362 -0.194024 -0.312225
v 0.163712 -0.193448 -0.328477
v 0.140679 -0.193095 -0.336480
v 0.099945 -0.192796 -0.339590
v 0.000000 -0.192530 -0.332185
v -0.108127 -0.192840 -0.339504
v -0.156426 -0.193302 -0.332148
v -0.167104 -0.193532 -0.326191
v -0.175362 -0.194024 -0.312225
v -0.191526 -0.196678 -0.236363
v -0.207058 -0.202338 -0.073588
v -0.209813 -0.206530 0.053103
v -0.203883 -0.209478 0.146906
v -0.188940 -0.211440 0.210502
v -0.179557 -0.212131 0.233160
v -0.157875 -0.213173 0.267754
v -0.124750 -0.214064 0.297977
v -0.088319 -0.214586 0.316368
v -0.060852 -0.214800 0.324379
v 0.000125 -0.214915 0.330395
v 0.141842 -0.142442 -0.051250
v 0.123053 -0.100817 -0.068871
v 0.093872 -0.011658 -0.096715
v 0.073653 0.086342 -0.116138
v 0.067972 0.138805 -0.121394
v 0.066872 0.171418 -0.122139
v 0.000000 -0.169694 -0.169851
v 0.159346 -0.167588 -0.170875
v 0.181488 0.109588 0.013877
v 0.179256 0.068961 0.014366
v 0.173611 0.028757 0.017241
v 0.163502 -0.018638 0.023320
v 0.153099 -0.053118 0.029885
v 0.141617 -0.078250 0.036779
v 0.125182 -0.104559 0.046611
v 0.103505 -0.130892 0.059942
v 0.077226 -0.156835 0.076714
v -0.002038 -0.203475 -0.012321
v -0.209838 -0.204446 -0.011796
v 0.000000 -0.192525 -0.332053
v 0.000000 -0.176572 -0.334052
v 0.000000 -0.168828 -0.325178
v 0.000000 -0.167056 -0.272308
v 0.000000 -0.189424 0.200264
v 0.000000 -0.198374 0.285423
v 0.000000 -0.204269 0.313336
v 0.000000 -0.210886 0.328158
v -0.143100 0.104348 0.306896
v -0.141582 0.067582 0.303971
v -0.137679 0.027364 0.296884
v -0.131767 -0.011843 0.286356
v -0.123786 -0.049523 0.272256
v -0.114551 -0.081282 0.255864
v -0.104677 -0.107352 0.238549
v -0.090404 -0.136816 0.213837
v -0.076089 -0.160081 0.189010
v -0.103063 0.266858 0.241784
v -0.106530 0.276315 -0.287397
v 0.003806 -0.156296 0.055054
v 0.048245 -0.156437 0.060768
v 0.076738 -0.156825 0.076301
v 0.089917 -0.157217 0.091831
v 0.097087 -0.157591 0.106490
v 0.103003 -0.158672 0.146663
v 0.095818 -0.159407 0.169835
v 0.075372 -0.160097 0.189416
v 0.040929 -0.160663 0.201895
v 0.000318 -0.160999 0.205895
v 0.065285 0.173233 -0.206036
v 0.000000 -0.214915 0.330395
v 0.066059 0.172263 -0.163517
v 0.071546 0.078952 -0.165470
v 0.090253 -0.016741 -0.167487
v 0.119227 -0.096977 -0.169226
v 0.000157 0.171390 -0.121638
v 0.000235 0.052710 -0.118235
v 0.000270 -0.040435 -0.104841
v 0.000260 -0.083627 -0.092140
v 0.000235 -0.113796 -0.079410
v 0.000195 -0.138873 -0.065544
v 0.000107 -0.172078 -0.041626
v -0.167321 -0.193538 -0.326044
v -0.163994 -0.181912 -0.325691
v -0.151002 -0.172283 -0.325344
v -0.127077 -0.166801 -0.325064
v -0.098402 -0.165368 -0.324887
v 0.000000 -0.168633 -0.324669
v 0.127077 -0.166801 -0.325064
v 0.158168 -0.176223 -0.325496
v 0.163994 -0.181912 -0.325691
v 0.167321 -0.193538 -0.326044
v 0.072087 0.075176 -0.212919
v 0.091417 -0.020265 -0.227952
v 0.107487 -0.069815 -0.239714
v 0.121296 -0.102665 -0.249582
v 0.141926 -0.140156 -0.264038
v 0.000625 -0.183390 0.060511
v 0.049677 -0.183412 0.063581
v 0.076070 -0.183734 0.074222
v 0.097442 -0.184479 0.098720
v 0.103418 -0.185436 0.130645
v 0.099268 -0.186412 0.162926
v 0.082149 -0.187066 0.185557
v 0.041943 -0.187667 0.205556
v 0.001466 -0.187899 0.211206
v 0.000000 0.104641 0.332466
v 0.000000 0.059992 0.329264
v 0.000000 0.011836 0.321148
v 0.000000 -0.031408 0.309581
v 0.000000 -0.069248 0.294650
v 0.000000 -0.100890 0.276258
v 0.000000 -0.125930 0.255491
v 0.000000 -0.144504 0.233922
v 0.000000 -0.160999 0.205895
v 0.233179 0.106581 0.153548
v 0.225427 0.037315 0.152010
v 0.215069 0.001853 0.151082
v 0.200441 -0.032072 0.150112
v 0.167315 -0.083894 0.148117
v 0.103082 -0.158612 0.144688
v 0.103063 0.266858 0.241784
v 0.106530 0.276315 -0.287397
v -0.000122 -0.116596 0.264085
v -0.024554 -0.116593 0.261982
v -0.052252 -0.116538 0.254812
v -0.082320 -0.116371 0.241932
v -0.110221 -0.116038 0.224944
v -0.123780 -0.115737 0.209719
v -0.133120 -0.115384 0.191572
v -0.139417 -0.114911 0.167892
v -0.141519 -0.114294 0.139366
v -0.139301 -0.113467 0.106743
v -0.131697 -0.112574 0.074969
v -0.119230 -0.111841 0.049266
v -0.099232 -0.111073 0.023423
v -0.080406 -0.110553 0.007750
v -0.058408 -0.110158 -0.003021
v -0.034636 -0.109909 -0.009008
v -0.002024 -0.109772 -0.011464
v -0.065285 0.173233 -0.206036
v -0.233179 0.106581 0.153548
v -0.225427 0.037315 0.152010
v -0.215069 0.001853 0.151082
v -0.200441 -0.032072 0.150112
v -0.167315 -0.083894 0.148117
v -0.103082 -0.158612 0.144688
v 0.000000 0.177386 -0.289389
v 0.106125 0.184802 -0.289494
v -0.208491 -0.196479 -0.011536
v -0.202879 -0.190816 -0.011351
v -0.179220 -0.185267 -0.011173
v 0.000000 -0.180432 -0.011087
v 0.179220 -0.185267 -0.011173
v 0.202879 -0.190816 -0.011351
v 0.208491 -0.196479 -0.011536
v 0.209838 -0.204446 -0.011796
v -0.002026 0.171390 -0.121641
v -0.066872 0.171418 -0.122139
v 0.143100 0.104348 0.306896
v 0.141582 0.067582 0.303971
v 0.137679 0.027364 0.296884
v 0.131767 -0.011843 0.286356
v 0.123786 -0.049523 0.272256
v 0.114551 -0.081282 0.255864
v 0.104677 -0.107352 0.238549
v 0.090404 -0.136816 0.213837
v 0.076089 -0.160081 0.189010
v -0.003806 -0.156296 0.055054
v -0.048245 -0.156437 0.060768
v -0.076738 -0.156825 0.076301
v -0.089917 -0.157217 0.091831
v -0.097087 -0.157591 0.106490
v -0.103003 -0.158672 0.146663
v -0.095818 -0.159407 0.169835
v -0.075372 -0.160097 0.189416
v -0.040929 -0.160663 0.201895
v -0.000318 -0.160999 0.205895
v -0.072087 0.075176 -0.212919
v -0.091417 -0.020265 -0.227952
v -0.107487 -0.069815 -0.239714
v -0.121296 -0.102665 -0.249582
v -0.141926 -0.140156 -0.264038
v -0.159989 -0.164605 -0.276490
v 0.000122 -0.116596 0.264085
v 0.024554 -0.116593 0.261982
v 0.052252 -0.116538 0.254812
v 0.082320 -0.116371 0.241932
v 0.110221 -0.116038 0.224944
v 0.123780 -0.115737 0.209719
v 0.133120 -0.115384 0.191572
v 0.139417 -0.114911 0.167892
v 0.141519 -0.114294 0.139366
v 0.139301 -0.113467 0.106743
v 0.131697 -0.112574 0.074969
v 0.119230 -0.111841 0.049266
v 0.099232 -0.111073 0.023423
v 0.080406 -0.110553 0.007750
v 0.058408 -0.110158 -0.003021
v 0.034636 -0.109909 -0.009008
v 0.002024 -0.109772 -0.011464
v 0.000000 -0.164515 -0.277174
v 0.000000 -0.097895 -0.245532
v 0.000000 -0.022891 -0.224621
v 0.000000 0.066504 -0.212541
v 0.000000 0.173022 -0.207300
v -0.158394 -0.171427 -0.035965
v 0.000000 -0.172078 -0.041624
v -0.000625 -0.183390 0.060511
v -0.049677 -0.183412 0.063581
v -0.076070 -0.183734 0.074222
v -0.097442 -0.184479 0.098720
v -0.103418 -0.185436 0.130645
v -0.099268 -0.186412 0.162926
v -0.082149 -0.187066 0.185557
v -0.041943 -0.187667 0.205556
v -0.001466 -0.187899 0.211206
v 0.077850 -0.155605 0.076323
v 0.077382 -0.183764 0.075196
v 0.000000 0.347395 0.243381
v 0.000000 0.360188 -0.285670
v 0.103206 -0.185835 0.143680
v -0.103206 -0.185835 0.143680
v -0.000157 0.171390 -0.121638
v -0.000235 0.052710 -0.118235
v -0.000270 -0.040435 -0.104841
v -0.000260 -0.083627 -0.092140
v -0.000235 -0.113796 -0.079410
v -0.000195 -0.138873 -0.065544
v -0.000107 -0.172078 -0.041626
v 0.000000 -0.156295 0.055043
v 0.000000 -0.146772 0.028076
v 0.000000 -0.130122 0.004865
v 0.000000 -0.107633 -0.012802
v 0.000000 -0.078212 -0.027147
v 0.000000 -0.035222 -0.040528
v 0.000000 0.009101 -0.048528
v 0.000000 0.058121 -0.051852
v 0.000000 0.111319 -0.049879
v -0.181488 0.109588 0.013877
v -0.179256 0.068961 0.014366
v -0.173611 0.028757 0.017241
v -0.163502 -0.018638 0.023320
v -0.153099 -0.053118 0.029885
v -0.141617 -0.078250 0.036779
v -0.125182 -0.104559 0.046611
v -0.103505 -0.130892 0.059942
v -0.077226 -0.156835 0.076714
v 0.000000 -0.172846 -0.041759
v 0.000000 -0.173775 -0.086333
v -0.141842 -0.142442 -0.051250
v -0.123053 -0.100817 -0.068871
v -0.093872 -0.011658 -0.096715
v -0.073653 0.086342 -0.116138
v -0.067972 0.138805 -0.121394
v 0.002038 -0.203475 -0.012321
v 0.000000 -0.183390 0.060511
v 0.106266 0.283126 -0.287255
v 0.097012 0.314305 -0.286586
v 0.081834 0.333494 -0.286168
v 0.061636 0.347359 -0.285871
v 0.034630 0.356779 -0.285689
v 0.002086 0.360152 -0.285667
v 0.000000 -0.187902 0.211221
v 0.076730 -0.187176 0.189351
v 0.002026 0.171390 -0.121641
v 0.000000 0.174394 -0.145979
v 0.000000 0.171390 -0.121638
v -0.000368 -0.187902 0.211221
v -0.077850 -0.155605 0.076323
v -0.077382 -0.183764 0.075196
v -0.076730 -0.187176 0.189351
v 0.000368 -0.187902 0.211221
v -0.000108 -0.172078 -0.041626
v -0.000104 -0.172846 -0.041759
v 0.000108 -0.172078 -0.041626
v 0.000104 -0.172846 -0.041759
l 1 2 3 4 5 6 7 8 9 10 11 12 13
l 14 15 16 17 18 19 20 21 22 23 24 25 26 27 28
l 29 30
l 31 32 33 34 35 36 37 38 39 40 41 42 43 44 45 46 47 48 49 50 51 52 53 54 55 56 57 58 59 60 61 62 63
l 64 65 66 67 68 69 70 71 72 73 74 75 76 77 78 79 80 81 82 83 84 85 86 87 88 89 90 91 92 93 94 95 64
l 96 97
l 98 99 100 101 102 103 104
l 105 106 107 108 109
l 28 98
l 110 111 112 113 114 115 116 117 118 119 120 121 122 123 124 125 126 127 128 129 130 131 132 133 134 135 136 137 138 139 140 141 142
l 29 143 144 145 146 147 148
l 109 149 150
l 151 152 153 154 155 156 157 158 159
l 160 161
l 162 163 164 165 166 167 168 169
l 170 171 172 173 174 175 176 177 178
l 179 180
l 181 182 183 184 185 186 187 188 189 190
l 148 191
l 192 162
l 193 194 195 196 150
l 197 198 199 200 201 202 203
l 204 205 206 207 208 209 210 211 212 213
l 191 214 215 216 217 218 30
l 219 220 221 222 223 224 225 226 227
l 228 229 230 231 232 233 234 235 236
l 237 238 239 240 241 242
l 243 244
l 245 246 247 248 249 250 251 252 253 254 255 256 257 258 259 260 261
l 191 262
l 263 264 265 266 267 268
l 98 269 270
l 161 271 272 273 274 275 276 277 278
l 279 280
l 281 282 283 284 285 286 287 288 289
l 290 291 292 293 294 295 296 297 298 299
l 262 300 301 302 303 304 305
l 306 307 308 309 310 311 312 313 314 315 316 317 318 319 320 321 322
l 323 324 325 326 327
l 328 329 29
l 13 1
l 330 331 332 333 334 335 336 337 338
l 339 340
l 97 341
l 341 342
l 343 344
l 14 270
l 244 180
l 328 305
l 345 346 347 348 349 350 351
l 352 353 354 355 356 357 358 359 360
l 342 96
l 361 362 363 364 365 366 367 368 369
l 14 28
l 370 371 323
l 328 372 373 374 375 376 280
l 377 278
l 378 352
l 30 305
l 270 379 380 381 382 383 384
l 385 378
l 289 386
l 280 262
l 387 148
l 327 388 389
l 299 390
l 179 243
l 391 392
l 178 393
l 190 394
l 395 396
l 268 344
l 242 343
l 169 192
l 397 398
