v 0.000389 0.145956 -0.261705
v 0.000561 0.040602 0.109758
v 0.000615 -0.004923 0.245823
v 0.000642 -0.022613 0.281804
v 0.000028 -0.116217 0.433107
v 0.013896 -0.116241 0.428499
v 0.031442 -0.116251 0.415124
v 0.072748 -0.116235 0.368130
v 0.132835 -0.116158 0.279818
v 0.175217 -0.116069 0.202296
v 0.200324 -0.115978 0.129156
v 0.220821 -0.115850 0.039383
v 0.233479 -0.115669 -0.055545
v 0.236544 -0.115464 -0.132833
v 0.232833 -0.115346 -0.173158
v 0.216739 -0.115216 -0.225907
v 0.197220 -0.115145 -0.261365
v 0.164092 -0.115086 -0.300779
v 0.135552 -0.115063 -0.324035
v 0.090340 -0.115055 -0.348679
v 0.051746 -0.115066 -0.360883
v 0.000591 -0.115098 -0.366705
v -0.050570 -0.115066 -0.360949
v -0.089189 -0.115055 -0.348823
v -0.134431 -0.115062 -0.324234
v -0.163028 -0.115085 -0.301048
v -0.196219 -0.115144 -0.261688
v -0.215834 -0.115215 -0.226282
v -0.232005 -0.115345 -0.173556
v -0.235806 -0.115463 -0.133242
v -0.232779 -0.115668 -0.055952
v -0.220159 -0.115849 0.038981
v -0.199701 -0.115978 0.128764
v -0.174634 -0.116068 0.201917
v -0.132416 -0.116158 0.279530
v -0.072552 -0.116234 0.367993
v -0.031360 -0.116251 0.415086
v -0.013838 -0.116241 0.428492
v 0.000426 -0.115098 -0.366711
v 0.000455 0.001132 -0.331599
v 0.000451 0.023787 -0.319497
v 0.000444 0.032435 -0.307895
v 0.000471 0.025867 -0.212510
v 0.000680 -0.023961 0.226467
v 0.000661 -0.026339 0.266880
v 0.000647 -0.024231 0.281308
v -0.235807 -0.115462 -0.133685
v -0.228822 -0.083202 -0.134125
v -0.198149 -0.012143 -0.133201
v -0.180739 0.016021 -0.132848
v -0.172494 0.023289 -0.132782
v -0.165319 0.024449 -0.132786
v 0.000369 0.016990 -0.133141
v 0.173232 0.023289 -0.132783
v 0.188014 0.007109 -0.132946
v 0.205265 -0.025438 -0.133413
v 0.230817 -0.086667 -0.134094
v 0.236544 -0.115462 -0.133685
v -0.059282 -0.026017 0.282209
v -0.053937 -0.019226 0.266064
v -0.051270 -0.010661 0.241883
v -0.051371 0.021511 0.147739
v -0.058030 0.041536 0.088746
v -0.082848 0.092784 -0.063096
v -0.085849 0.118322 -0.139983
v -0.084547 0.131651 -0.189778
v -0.076818 0.138905 -0.221092
v -0.062806 0.143326 -0.242114
v -0.037782 0.146178 -0.257008
v 0.002220 0.147013 -0.262345
v 0.038540 0.146179 -0.257012
v 0.063564 0.143327 -0.242118
v 0.078895 0.138164 -0.217738
v 0.086033 0.129896 -0.182655
v 0.086304 0.115127 -0.129399
v 0.083585 0.092784 -0.063096
v 0.058768 0.041536 0.088746
v 0.052109 0.021511 0.147739
v 0.052008 -0.010661 0.241882
v 0.055351 -0.020506 0.269455
v 0.060020 -0.026017 0.282209
v 0.000105 -0.053053 0.385509
v -0.013810 -0.053113 0.381032
v -0.028382 -0.053195 0.369797
v -0.063645 -0.053426 0.327327
v -0.110126 -0.053718 0.252098
v -0.151183 -0.053587 0.169642
v -0.179748 -0.053003 0.093772
v -0.198678 -0.052444 0.026362
v -0.211795 -0.051878 -0.046150
v -0.216002 -0.051423 -0.116011
v -0.210885 -0.051153 -0.170989
v -0.200861 -0.051004 -0.206427
v -0.179573 -0.050846 -0.249259
v -0.157091 -0.050752 -0.278407
v -0.120958 -0.050665 -0.309722
v -0.082098 -0.050612 -0.330686
v -0.046985 -0.050584 -0.341737
v 0.000550 -0.050559 -0.347067
v 0.048082 -0.050584 -0.341701
v 0.083180 -0.050613 -0.330603
v 0.122016 -0.050665 -0.309595
v 0.158095 -0.050753 -0.278217
v 0.180508 -0.050846 -0.249015
v 0.201731 -0.051005 -0.206151
v 0.211676 -0.051155 -0.170691
v 0.216737 -0.051425 -0.115708
v 0.212500 -0.051880 -0.045848
v 0.199342 -0.052447 0.026656
v 0.180391 -0.053006 0.094060
v 0.151802 -0.053588 0.169921
v 0.110631 -0.053717 0.252318
v 0.063971 -0.053426 0.327436
v 0.028611 -0.053195 0.369825
v 0.014022 -0.053113 0.381039
v 0.000301 -0.117547 -0.130829
v 0.000425 -0.115098 -0.366711
v -0.043626 0.102502 0.209162
v -0.049185 0.130719 0.129587
v -0.075757 0.185916 -0.028201
v -0.081666 0.228886 -0.153281
v -0.075111 0.238158 -0.180350
v -0.058497 0.245920 -0.203069
v -0.029088 0.250612 -0.216907
v 0.000127 0.251605 -0.219956
v 0.044364 0.102502 0.209162
v 0.049925 0.130726 0.129565
v 0.076502 0.185938 -0.028266
v 0.082191 0.228922 -0.153387
v 0.075505 0.238187 -0.180436
v 0.058786 0.245929 -0.203098
v 0.029350 0.250612 -0.216909
v 0.000368 -0.117548 -0.130054
v -0.168773 -0.116085 0.215077
v -0.156842 -0.082903 0.205162
v -0.129728 -0.041137 0.192512
v -0.109251 -0.021053 0.186293
v -0.087818 -0.017975 0.185178
v 0.106801 -0.019357 0.185736
v 0.125742 -0.035754 0.190861
v 0.144934 -0.061460 0.198709
v 0.160696 -0.089279 0.207071
v 0.169511 -0.116085 0.215077
v 0.065522 -0.028635 0.284285
v 0.080597 -0.028819 0.263935
v 0.097160 -0.024843 0.223118
v 0.122160 -0.015416 0.146533
v 0.145116 -0.001994 0.066007
v 0.160105 0.009325 -0.001478
v 0.167585 0.016762 -0.052003
v 0.170406 0.022147 -0.099531
v 0.169058 0.024469 -0.132594
v 0.161954 0.026117 -0.168689
v 0.148583 0.027682 -0.202976
v 0.134058 0.028851 -0.228601
v 0.108652 0.030284 -0.260110
v 0.080261 0.031340 -0.283512
v 0.054313 0.031959 -0.297437
v 0.029681 0.032285 -0.305045
v 0.000396 0.032396 -0.308166
v -0.028886 0.032284 -0.305023
v -0.053517 0.031958 -0.297409
v -0.079461 0.031339 -0.283476
v -0.107858 0.030283 -0.260081
v -0.133279 0.028850 -0.228583
v -0.147819 0.027682 -0.202967
v -0.161208 0.026117 -0.168688
v -0.168320 0.024469 -0.132594
v -0.169669 0.022147 -0.099531
v -0.166847 0.016762 -0.052003
v -0.159368 0.009326 -0.001478
v -0.144378 -0.001993 0.066007
v -0.121422 -0.015416 0.146533
v -0.096422 -0.024842 0.223119
v -0.079859 -0.028819 0.263935
v -0.064785 -0.028635 0.284285
v 0.000384 0.147019 -0.262424
v 0.000282 0.182811 -0.254141
v 0.000172 0.230663 -0.234705
v 0.000132 0.249324 -0.222923
v 0.000120 0.252815 -0.209092
v 0.000105 0.237065 -0.144710
v 0.000132 0.142654 0.115591
v 0.000171 0.099218 0.225444
v 0.000180 0.081591 0.257857
v 0.000183 0.059921 0.287719
v 0.000166 0.010094 0.336953
v 0.085925 0.108269 -0.108347
v 0.092736 0.166875 -0.088055
v 0.091107 0.184127 -0.082069
v 0.085532 0.196848 -0.077676
v 0.076874 0.203029 -0.075580
v 0.062544 0.206072 -0.074569
v 0.000365 0.210902 -0.072971
v -0.061812 0.206096 -0.074561
v -0.076137 0.203032 -0.075579
v -0.084794 0.196848 -0.077676
v -0.090370 0.184127 -0.082069
v -0.091999 0.166875 -0.088055
v -0.085187 0.108269 -0.108347
v -0.050148 0.010985 0.178481
v -0.062202 0.062003 0.195457
v -0.059737 0.089410 0.204735
v -0.053092 0.097607 0.207517
v -0.043451 0.102556 0.209179
v 0.000368 0.105843 0.210289
v 0.044189 0.102556 0.209179
v 0.053830 0.097607 0.207517
v 0.060474 0.089410 0.204735
v 0.062939 0.062003 0.195457
v 0.050886 0.010985 0.178481
v 0.002194 0.104542 -0.110008
v 0.000372 0.017658 0.180891
v 0.062594 -0.027552 0.284266
v -0.061857 -0.027552 0.284266
l 1 2 3 4
l 5 6 7 8 9 10 11 12 13 14 15 16 17 18 19 20 21 22 23 24 25 26 27 28 29 30 31 32 33 34 35 36 37 38 5
l 39 40 41 42 43 44 45 46
l 47 48 49 50 51 52 53 54 55 56 57 58
l 59 60 61 62 63 64 65 66 67 68 69 70 71 72 73 74 75 76 77 78 79 80 81
l 82 83 84 85 86 87 88 89 90 91 92 93 94 95 96 97 98 99 100 101 102 103 104 105 106 107 108 109 110 111 112 113 114 115 82
l 5 116 117
l 118 119 120 121 122 123 124 125
l 126 127 128 129 130 131 132 125
l 58 133 47
l 134 135 136 137 138 139 140 141 142 143
l 144 145 146 147 148 149 150 151 152 153 154 155 156 157 158 159 160 161 162 163 164 165 166 167 168 169 170 171 172 173 174 175 176
l 177 178 179 180 181 182 183 184 185 186 187 5
l 188 189 190 191 192 193 194 195 196 197 198 199 200
l 201 202 203 204 205 206 207 208 209 210 211
l 134 143
l 200 212 188
l 211 213 201
l 46 4
l 214 144
l 215 176
l 59 215
l 81 214
l 1 177
