v 0.176289 -0.088444 0.182347
v 0.182537 -0.051126 0.182181
v 0.185927 0.020020 0.181827
v 0.181188 0.028034 0.181813
v 0.148017 0.045230 0.181820
v 0.135035 0.090975 0.181071
v 0.128182 0.103247 0.180872
v -0.000008 0.109265 0.180738
v -0.128198 0.103247 0.180872
v -0.135051 0.090975 0.181071
v -0.148032 0.045229 0.181820
v -0.181203 0.028034 0.181813
v -0.185943 0.020020 0.181827
v -0.182553 -0.051127 0.182181
v -0.176305 -0.088444 0.182347
v 0.126691 0.049581 0.021030
v 0.103516 0.051813 0.004605
v 0.075268 0.059867 -0.032850
v 0.060433 0.062853 -0.044313
v 0.037973 0.064936 -0.051799
v 0.000004 0.065878 -0.054881
v -0.037963 0.064932 -0.051787
v -0.060422 0.062847 -0.044295
v -0.075256 0.059862 -0.032829
v -0.103528 0.051812 0.004608
v -0.126707 0.049581 0.021031
v 0.184896 -0.086839 0.305095
v 0.176853 -0.088163 0.209928
v 0.166805 -0.090077 -0.066872
v 0.183086 -0.090541 -0.405502
v 0.183604 0.009316 -0.404491
v 0.183622 0.012893 -0.401652
v 0.183668 0.017153 -0.388073
v 0.183879 0.028622 -0.317623
v 0.184123 0.029564 -0.246377
v 0.185308 0.005231 -0.043189
v 0.185744 0.000186 0.028006
v 0.185449 0.002402 0.375393
v 0.184324 0.024722 -0.203072
v 0.171248 0.029843 -0.147824
v 0.163442 0.033478 -0.077045
v 0.159569 0.038734 0.203425
v 0.147317 0.045928 0.373979
v -0.126708 0.049557 0.020386
v -0.109176 0.046216 -0.073316
v -0.099290 0.043316 -0.153733
v -0.091743 0.039518 -0.258321
v -0.093015 0.035886 -0.353621
v -0.088240 0.034469 -0.386561
v -0.077834 0.033425 -0.407828
v -0.060026 0.032503 -0.423334
v -0.033189 0.031699 -0.432814
v 0.000038 0.031092 -0.435585
v 0.033267 0.031698 -0.432824
v 0.060106 0.032502 -0.423348
v 0.077910 0.033425 -0.407839
v 0.088301 0.034469 -0.386565
v 0.093047 0.035886 -0.353621
v 0.091729 0.039519 -0.258321
v 0.099275 0.043316 -0.153733
v 0.109160 0.046217 -0.073316
v 0.126692 0.049557 0.020386
v 0.087196 0.061420 0.425953
v 0.124621 0.060101 0.377177
v 0.141939 0.056835 0.260051
v 0.144629 0.054407 0.170131
v 0.000049 0.061737 0.437339
v 0.000072 0.088805 0.336108
v 0.000079 0.102713 0.261207
v 0.000083 0.109642 0.171002
v 0.000090 0.109565 0.075760
v 0.000034 0.065878 -0.055052
v 0.000099 0.068606 -0.231259
v 0.000059 0.058194 -0.335441
v 0.000027 0.034409 -0.427614
v 0.000124 0.011375 -0.463505
v 0.000076 0.009373 0.438371
v 0.000075 -0.019915 0.423095
v 0.000073 -0.072371 0.367998
v 0.000059 -0.088331 0.338813
v 0.000045 -0.094527 0.315868
v 0.000004 -0.102334 0.216183
v -0.000020 -0.104418 -0.069709
v 0.000086 -0.089637 -0.450593
v 0.098936 0.047111 -0.128578
v 0.079135 0.044168 -0.308173
v 0.070996 0.043468 -0.350145
v 0.061605 0.043104 -0.371929
v 0.045460 0.042814 -0.389121
v 0.028246 0.042678 -0.397003
v 0.000005 0.042611 -0.400434
v -0.028235 0.042678 -0.396997
v -0.045448 0.042814 -0.389112
v -0.061595 0.043104 -0.371922
v -0.070995 0.043468 -0.350142
v -0.079146 0.044168 -0.308173
v -0.098951 0.047111 -0.128577
v 0.148670 -0.022808 0.376725
v 0.148626 -0.056418 0.361543
v 0.148569 -0.086703 0.320404
v 0.089581 -0.042913 0.367761
v 0.039071 -0.042569 0.393348
v 0.002360 -0.042490 0.401433
v -0.034641 -0.042549 0.394954
v -0.089596 -0.042914 0.367761
v -0.183101 -0.090541 -0.405502
v -0.183619 0.009317 -0.404491
v -0.183637 0.012892 -0.401652
v -0.183683 0.017153 -0.388073
v -0.183894 0.028622 -0.317623
v -0.184138 0.029564 -0.246377
v -0.185324 0.005231 -0.043189
v -0.185760 0.000185 0.028006
v -0.185465 0.002401 0.375392
v -0.184339 0.024721 -0.203072
v -0.171263 0.029843 -0.147824
v -0.163457 0.033478 -0.077045
v -0.159584 0.038734 0.203425
v -0.147332 0.045927 0.373979
v -0.126650 0.108840 0.098804
v -0.126704 0.102514 0.208180
v -0.126593 0.096643 0.250654
v -0.126218 0.080073 0.320153
v -0.125829 0.060003 0.373643
v 0.127160 0.049525 0.021053
v 0.045241 0.061668 0.434951
v 0.002380 0.061737 0.437327
v -0.045254 0.061668 0.434944
v -0.087211 0.061420 0.425953
v 0.112183 -0.000022 -0.455683
v 0.088872 -0.001995 -0.461176
v 0.002395 -0.003242 -0.463071
v -0.088888 -0.001996 -0.461176
v -0.112199 -0.000023 -0.455683
v 0.088031 0.002838 0.427922
v -0.172009 0.026929 0.374683
v -0.180712 0.015721 0.375025
v 0.160583 0.035610 -0.009453
v 0.180654 0.019971 -0.030859
v 0.186115 0.010190 -0.039412
v 0.181607 -0.055609 -0.045326
v 0.175307 -0.078451 -0.046386
v 0.167183 -0.090035 -0.046471
v 0.126635 0.108840 0.098804
v 0.063816 0.108709 0.076111
v 0.002386 0.108712 0.067616
v -0.030975 0.108692 0.069827
v -0.063824 0.108708 0.076134
v 0.103150 0.010737 -0.436853
v 0.089049 0.006939 -0.449146
v 0.066837 0.004334 -0.457707
v 0.038415 0.003011 -0.462201
v -0.000002 0.002683 -0.463503
v -0.038418 0.003015 -0.462188
v -0.066840 0.004339 -0.457689
v -0.089056 0.006942 -0.449137
v -0.103165 0.010737 -0.436853
v -0.127175 0.049525 0.021052
v -0.160598 0.035609 -0.009453
v -0.180669 0.019971 -0.030859
v -0.186131 0.010190 -0.039412
v -0.181622 -0.055610 -0.045326
v -0.175323 -0.078452 -0.046386
v -0.167198 -0.090035 -0.046471
v -0.074338 -0.063214 0.353902
v -0.047969 -0.086495 0.338012
v 0.106467 -0.099563 -0.046766
v -0.002377 -0.104440 -0.047259
v -0.106482 -0.099563 -0.046766
v -0.133761 0.010596 -0.423269
v -0.150470 0.032264 -0.389906
v -0.165782 0.042437 -0.361948
v -0.175894 0.040226 -0.346107
v -0.183835 0.025722 -0.337489
v -0.148686 -0.022808 0.376725
v -0.148641 -0.056418 0.361544
v -0.148584 -0.086704 0.320404
v 0.149860 -0.090268 -0.408834
v 0.049203 -0.089878 -0.440413
v 0.002391 -0.089653 -0.450494
v -0.044587 -0.089859 -0.441661
v -0.149875 -0.090268 -0.408834
v 0.183609 0.010682 -0.404066
v 0.165435 0.010658 -0.409152
v 0.065063 0.010969 -0.451754
v 0.032988 0.011168 -0.460220
v -0.000003 0.011374 -0.463502
v -0.032990 0.011167 -0.460182
v -0.065068 0.010968 -0.451727
v -0.165451 0.010658 -0.409152
v -0.183625 0.010682 -0.404066
v 0.126689 0.102514 0.208180
v 0.126577 0.096643 0.250654
v 0.126203 0.080073 0.320153
v 0.125814 0.060003 0.373643
v 0.074323 -0.063214 0.353902
v 0.047953 -0.086495 0.338011
v 0.112507 -0.022685 -0.448336
v 0.117346 -0.028760 -0.443640
v 0.183376 -0.029190 -0.405550
v -0.184911 -0.086839 0.305095
v -0.176868 -0.088163 0.209928
v -0.166821 -0.090078 -0.066873
v -0.144644 0.054407 0.170131
v -0.141954 0.056835 0.260052
v -0.124636 0.060101 0.377177
v -0.112522 -0.022686 -0.448336
v -0.117362 -0.028760 -0.443641
v -0.183391 -0.029190 -0.405550
v 0.110198 -0.099159 0.181998
v -0.004803 -0.102961 0.181451
v -0.114992 -0.098759 0.182027
v 0.150263 -0.086704 0.320188
v 0.052051 -0.086500 0.337521
v -0.000007 -0.086451 0.342300
v -0.052066 -0.086500 0.337521
v -0.150278 -0.086704 0.320187
v -0.138077 0.002669 0.407415
v -0.098963 0.002801 0.424903
v -0.052410 0.002874 0.434983
v 0.004763 0.002746 0.436968
v 0.057129 0.002880 0.434404
v 0.103481 0.002790 0.423422
v 0.142192 0.002650 0.405028
v 0.185320 -0.023105 0.358430
v 0.121608 -0.022567 0.390621
v 0.081807 -0.022235 0.406783
v 0.040326 -0.021951 0.417897
v 0.002384 -0.021793 0.421909
v -0.035635 -0.021926 0.418742
v -0.081814 -0.022235 0.406763
v -0.121621 -0.022567 0.390616
v -0.185336 -0.023106 0.358429
v -0.183249 -0.055297 -0.405451
v -0.075875 -0.057093 -0.446122
v -0.038233 -0.058763 -0.452796
v -0.000006 -0.059511 -0.454691
v 0.038222 -0.058769 -0.452812
v 0.075862 -0.057094 -0.446129
v 0.183234 -0.055297 -0.405451
v -0.088864 -0.001998 -0.461182
v -0.094996 -0.056296 -0.440228
v 0.133746 0.010596 -0.423269
v 0.150455 0.032263 -0.389906
v 0.165767 0.042437 -0.361948
v 0.175879 0.040227 -0.346107
v 0.183820 0.025722 -0.337490
v 0.092410 0.040070 -0.243191
v 0.094573 0.043255 -0.251794
v 0.089935 0.045085 -0.258773
v 0.071304 0.046994 -0.259397
v 0.032746 0.062909 -0.267304
v 0.000000 0.066609 -0.269212
v -0.032739 0.062869 -0.267283
v -0.071318 0.046988 -0.259395
v -0.089950 0.045084 -0.258773
v -0.094588 0.043254 -0.251794
v -0.092425 0.040069 -0.243191
v -0.185163 -0.052495 0.337813
v -0.124193 0.048805 0.396781
v -0.103522 0.020169 0.420215
v -0.099097 0.002801 0.424862
v 0.126665 0.086435 0.063280
v -0.126681 0.086435 0.063280
v 0.171993 0.026930 0.374683
v 0.180697 0.015721 0.375025
v -0.138971 0.051600 0.373834
v -0.136018 0.051619 0.382563
v 0.124177 0.048805 0.396781
v 0.103507 0.020169 0.420214
v 0.099082 0.002801 0.424862
v 0.148650 -0.033804 0.373835
v 0.116142 -0.035895 0.372489
v 0.185148 -0.052495 0.337813
v 0.062248 -0.086522 0.335838
v 0.107145 -0.057660 0.358261
v 0.124779 -0.051995 0.363649
v 0.148638 -0.049757 0.366052
v -0.135573 -0.029695 -0.432878
v -0.128955 -0.090178 -0.415277
v -0.062263 -0.086522 0.335838
v -0.107160 -0.057661 0.358261
v -0.124794 -0.051996 0.363649
v -0.148654 -0.049757 0.366052
v -0.088046 0.002838 0.427922
v -0.148665 -0.033804 0.373835
v -0.116157 -0.035895 0.372489
v 0.135558 -0.029695 -0.432879
v 0.128940 -0.090178 -0.415277
v 0.088849 -0.001998 -0.461182
v 0.094981 -0.056296 -0.440228
v 0.138956 0.051600 0.373834
v 0.136003 0.051620 0.382563
l 1 2 3 4 5 6 7 8 9 10 11 12 13 14 15
l 16 17 18 19 20 21 22 23 24 25 26
l 27 28 29 30
l 30 31 32 33 34 35 36 37 38
l 39 40 41 42 43
l 44 45 46 47 48 49 50 51 52 53 54 55 56 57 58 59 60 61 62
l 63 64 65 66 16
l 67 68 69 70 71 72 73 74 75 76
l 67 77 78 79 80 81 82 83 84
l 16 85 86 87 88 89 90 91 92 93 94 95 96 97 26
l 98 99 100
l 101 102 103 104 105
l 106 107 108 109 110 111 112 113 114
l 115 116 117 118 119
l 120 121 122 123 124
l 16 125
l 63 126 127 128 129
l 130 131 132 133 134
l 63 135
l 124 136 137 114
l 125 138 139 140 141 142 143
l 144 145 146 147 148 120
l 149 150 151 152 153 154 155 156 157
l 158 159 160 161 162 163 164
l 105 165 166
l 143 167 168 169 164
l 170 171 172 173 174
l 175 176 177
l 30 178 179 180 181 182 106
l 183 184 185 186 187 188 189 190 191
l 144 192 193 194 195
l 101 196 197
l 130 198 199 200
l 201 202 203 106
l 26 204 205 206 129
l 134 207 208 209
l 1 210 211 212 15
l 27 213 214 215 216 217 201
l 114 218 219 220 221 222 223 224 38
l 84 76
l 225 226 227 228 229 230 231 232 233
l 234 235 236 237 238 239 240
l 241 242
l 243 244 245 246 247
l 248 249 250 251 252 253 254 255 256 257 258
l 114 259 201
l 260 261 262
l 130 243
l 26 158
l 16 263 144
l 26 264 120
l 195 265 266 38
l 267 268 260
l 269 270 271
l 272 273 101
l 38 274 27
l 275 276 277 278
l 279 280
l 281 282 283 284
l 134 170
l 129 285
l 286 287 105
l 288 289
l 290 291
l 292 293 269
