v 0.138334 -0.309311 0.006991
v 0.134835 -0.309321 0.038171
v 0.126743 -0.309328 0.063044
v 0.114275 -0.309334 0.086039
v 0.097979 -0.309337 0.106504
v 0.078147 -0.309339 0.123563
v 0.055569 -0.309339 0.136763
v 0.030853 -0.309336 0.145304
v 0.000000 -0.309332 0.149048
v -0.030853 -0.309336 0.145304
v -0.055569 -0.309339 0.136763
v -0.078147 -0.309339 0.123563
v -0.097979 -0.309337 0.106504
v -0.114275 -0.309334 0.086039
v -0.126743 -0.309328 0.063044
v -0.134835 -0.309321 0.038171
v -0.138334 -0.309311 0.006991
v -0.050953 -0.221464 -0.137568
v -0.094662 -0.221586 -0.099886
v -0.124332 -0.221672 -0.056653
v -0.139067 -0.221620 -0.011862
v -0.139379 -0.221345 0.035309
v -0.125680 -0.220928 0.080383
v -0.114461 -0.220713 0.098142
v -0.096294 -0.220443 0.117061
v -0.079047 -0.220241 0.129049
v -0.055131 -0.220025 0.139871
v -0.029646 -0.219867 0.146202
v -0.003467 -0.219781 0.148347
v 0.024440 -0.219843 0.146949
v 0.050128 -0.219987 0.141482
v 0.074442 -0.220194 0.131589
v 0.092181 -0.220391 0.120339
v 0.120460 -0.220822 0.089510
v 0.130112 -0.221030 0.070845
v 0.137594 -0.221262 0.045675
v 0.139830 -0.221601 -0.006660
v 0.126597 -0.221674 -0.051907
v 0.113870 -0.221648 -0.074891
v 0.094662 -0.221586 -0.099886
v 0.050953 -0.221464 -0.137568
v -0.001252 -0.125326 -0.133626
v 0.024665 -0.125616 -0.129655
v 0.054285 -0.125999 -0.119004
v 0.081666 -0.126370 -0.103468
v 0.105834 -0.126696 -0.083302
v 0.132824 -0.127031 -0.044756
v 0.141320 -0.127101 -0.019945
v 0.144541 -0.127078 0.006094
v 0.000000 -0.309332 0.149051
v 0.000000 -0.121116 0.146494
v 0.000000 0.586986 0.006455
v 0.000000 0.367232 -0.040934
v 0.000000 -0.151901 -0.137637
v 0.040454 -0.188563 -0.137597
v 0.028911 -0.171201 -0.137625
v 0.013769 -0.156939 -0.137645
v -0.009202 -0.154422 -0.137646
v -0.025507 -0.167245 -0.137632
v -0.037865 -0.184031 -0.137604
v -0.048589 -0.207752 -0.137573
v -0.050722 -0.223149 -0.137569
v -0.039471 -0.233048 -0.137575
v -0.019113 -0.237445 -0.137579
v 0.013918 -0.237959 -0.137580
v 0.039471 -0.233048 -0.137575
v 0.050722 -0.223149 -0.137569
v 0.048589 -0.207752 -0.137573
v 0.153355 0.179893 0.004774
v 0.151016 0.180000 0.025520
v 0.143956 0.180144 0.039524
v 0.129370 0.180390 0.054495
v 0.116025 0.180596 0.062819
v 0.066560 0.181293 0.079805
v 0.000000 0.182066 0.087325
v -0.066560 0.181293 0.079805
v -0.116025 0.180596 0.062819
v -0.129370 0.180390 0.054495
v -0.143956 0.180144 0.039524
v -0.151016 0.180000 0.025520
v -0.153355 0.179893 0.004774
v 0.167343 0.586359 0.003171
v 0.005859 0.586974 0.006398
v -0.167343 0.586359 0.003171
v 0.000000 -0.195562 -0.108443
v 0.000000 -0.214852 -0.100407
v 0.000000 -0.224058 -0.103857
v 0.000000 -0.238579 -0.137580
v 0.000000 -0.308614 -0.138899
v 0.142742 -0.126978 0.032272
v 0.135787 -0.126818 0.057556
v 0.120935 -0.126562 0.085270
v 0.103700 -0.126309 0.105034
v 0.083147 -0.126042 0.121326
v 0.060140 -0.125776 0.133934
v 0.030244 -0.125481 0.143784
v 0.000000 -0.125243 0.147254
v -0.030244 -0.125481 0.143784
v -0.060140 -0.125776 0.133934
v -0.083147 -0.126042 0.121326
v -0.103700 -0.126309 0.105034
v -0.120935 -0.126562 0.085270
v -0.135787 -0.126818 0.057556
v -0.142742 -0.126978 0.032272
v -0.144541 -0.127078 0.006094
v -0.148977 0.179883 -0.015697
v -0.142170 0.179937 -0.029831
v -0.128408 0.180092 -0.045583
v -0.111028 0.180317 -0.057280
v -0.071421 0.180868 -0.070808
v -0.014023 0.181654 -0.076020
v 0.061092 0.181014 -0.072672
v 0.091705 0.180582 -0.065435
v 0.111028 0.180317 -0.057280
v 0.128408 0.180092 -0.045583
v 0.142170 0.179937 -0.029831
v 0.148977 0.179883 -0.015697
v -0.135260 -0.309282 -0.018978
v -0.128899 -0.309236 -0.038925
v -0.116800 -0.309156 -0.062121
v -0.097381 -0.309035 -0.086788
v -0.074036 -0.308904 -0.107780
v -0.047574 -0.308772 -0.124672
v -0.023453 -0.308674 -0.134810
v 0.000000 -0.308620 -0.138685
v 0.023453 -0.308674 -0.134810
v 0.047574 -0.308772 -0.124672
v 0.074036 -0.308904 -0.107780
v 0.097381 -0.309035 -0.086788
v 0.116800 -0.309156 -0.062121
v 0.128899 -0.309236 -0.038925
v 0.135260 -0.309282 -0.018978
v -0.002241 -0.221513 -0.101262
v 0.013530 -0.221501 -0.102828
v 0.028092 -0.221486 -0.108984
v 0.039830 -0.221473 -0.119597
v 0.001252 -0.125326 -0.133626
v -0.024665 -0.125616 -0.129655
v -0.054285 -0.125999 -0.119004
v -0.081666 -0.126370 -0.103468
v -0.105834 -0.126696 -0.083302
v -0.132824 -0.127031 -0.044756
v -0.141320 -0.127101 -0.019945
v 0.002241 -0.221513 -0.101262
v -0.013530 -0.221501 -0.102828
v -0.028092 -0.221486 -0.108984
v -0.039830 -0.221473 -0.119597
l 1 2 3 4 5 6 7 8 9 10 11 12 13 14 15 16 17
l 18 19 20 21 22 23 24 25 26 27 28 29 30 31 32 33 34 35 36 37 38 39 40 41
l 42 43 44 45 46 47 48 49
l 50 51 52
l 52 53 54
l 1 17
l 55 56 57 54 58 59 60 61 62 63 64 65 66 67 68 55
l 69 70 71 72 73 74 75 76 77 78 79 80 81
l 82 83 84
l 54 85 86 87 88
l 88 89
l 82 1
l 49 90 91 92 93 94 95 96 97 98 99 100 101 102 103 104 105
l 81 106 107 108 109 110 111 112 113 114 115 116 117 69
l 17 118 119 120 121 122 123 124 125 126 127 128 129 130 131 132 1
l 50 89
l 133 134 135 136 41
l 137 138 139 140 141 142 143 105
l 84 17
l 144 145 146 147 18
