v 0.001449 0.376094 0.360238
v -0.013353 0.376557 0.360816
v -0.017101 0.380586 0.360326
v -0.013575 0.390544 0.356256
v -0.003707 0.396715 0.353206
v 0.008583 0.394793 0.354186
v 0.016907 0.384143 0.359062
v 0.014724 0.377066 0.360906
v 0.041668 0.137263 0.129467
v 0.006377 0.137423 0.135380
v -0.019982 0.137381 0.133971
v -0.056404 0.137156 0.125038
v -0.084787 0.136911 0.113273
v -0.109103 0.136666 0.098394
v -0.127052 0.136465 0.080082
v -0.135478 0.136147 0.058796
v -0.133262 0.135973 0.041263
v -0.118131 0.135723 0.025022
v -0.093134 0.135452 0.011787
v -0.058099 0.135239 0.000645
v -0.024802 0.135153 -0.004872
v 0.010744 0.135141 -0.005818
v 0.045055 0.135195 -0.002090
v 0.078204 0.135339 0.006336
v 0.106613 0.135584 0.018020
v 0.124472 0.135814 0.030107
v 0.134541 0.136006 0.044254
v 0.135189 0.136171 0.060459
v 0.128674 0.136435 0.077456
v 0.118756 0.136561 0.090073
v 0.097649 0.136785 0.106165
v 0.070908 0.137037 0.119602
v -0.000235 -0.098954 -0.075799
v 0.010432 -0.100761 -0.072406
v 0.031055 -0.113056 -0.057569
v 0.050891 -0.123019 -0.054635
v 0.097978 -0.141613 -0.053707
v 0.107950 -0.146209 -0.048963
v 0.110140 -0.148392 -0.042680
v 0.107848 -0.149799 -0.033133
v 0.096059 -0.150384 -0.013595
v 0.065597 -0.149160 0.020626
v 0.026819 -0.146632 0.050026
v 0.000000 -0.145511 0.059447
v -0.026819 -0.146632 0.050026
v -0.065597 -0.149160 0.020626
v -0.096059 -0.150384 -0.013595
v -0.107848 -0.149799 -0.033133
v -0.110140 -0.148392 -0.042680
v -0.107950 -0.146209 -0.048963
v -0.097978 -0.141613 -0.053707
v -0.050891 -0.123019 -0.054635
v -0.031055 -0.113056 -0.057569
v -0.010432 -0.100761 -0.072406
v 0.000235 -0.098954 -0.075799
v 0.118776 -0.232734 -0.004166
v 0.118817 -0.227740 -0.030119
v 0.118859 -0.227752 -0.066072
v 0.118919 -0.239465 -0.162060
v 0.118832 -0.254988 -0.231016
v 0.118679 -0.267896 -0.261321
v 0.118626 -0.277900 -0.272069
v 0.118616 -0.280975 -0.254715
v 0.118548 -0.279596 -0.203406
v 0.118516 -0.266608 -0.016702
v 0.118596 -0.262673 -0.004262
v 0.118693 -0.251420 0.004457
v 0.118746 -0.240064 0.004355
v -0.118776 -0.232734 -0.004166
v -0.089907 -0.197131 -0.025655
v -0.083406 -0.185373 -0.030703
v -0.083232 -0.178903 -0.031086
v -0.105285 -0.142303 -0.016271
v -0.131073 -0.107425 0.003519
v -0.151285 -0.066411 0.027596
v -0.156502 -0.021942 0.050391
v -0.148694 0.035705 0.072153
v -0.137985 0.083852 0.081735
v -0.129172 0.121956 0.082772
v -0.116523 0.179401 0.073264
v -0.092310 0.251229 0.057821
v -0.078892 0.280653 0.057604
v -0.065337 0.306100 0.067168
v -0.056497 0.320984 0.080751
v -0.048003 0.334293 0.101337
v -0.035272 0.353026 0.151484
v -0.029350 0.361135 0.195414
v -0.024179 0.366707 0.286165
v -0.018188 0.374494 0.344150
v -0.010675 0.384056 0.383328
v -0.005971 0.387899 0.390925
v 0.000000 0.389687 0.392582
v 0.005971 0.387899 0.390925
v 0.010675 0.384056 0.383328
v 0.018188 0.374494 0.344150
v 0.024179 0.366707 0.286165
v 0.029350 0.361135 0.195414
v 0.035272 0.353026 0.151484
v 0.048003 0.334293 0.101337
v 0.056497 0.320984 0.080751
v 0.065337 0.306100 0.067168
v 0.078892 0.280653 0.057604
v 0.092310 0.251229 0.057821
v 0.116523 0.179401 0.073264
v 0.129172 0.121956 0.082772
v 0.137985 0.083852 0.081735
v 0.148694 0.035705 0.072153
v 0.156502 -0.021942 0.050391
v 0.151285 -0.066411 0.027596
v 0.131073 -0.107425 0.003519
v 0.105285 -0.142303 -0.016271
v 0.083232 -0.178903 -0.031086
v 0.083406 -0.185373 -0.030703
v 0.089907 -0.197131 -0.025655
v 0.002296 -0.187579 -0.145008
v 0.023042 -0.187529 -0.145336
v 0.032274 -0.187300 -0.140718
v 0.034438 -0.186903 -0.131186
v 0.031778 -0.186042 -0.109560
v 0.035375 -0.185543 -0.097744
v 0.047100 -0.184898 -0.083476
v 0.080903 -0.183630 -0.057725
v 0.087424 -0.183079 -0.045934
v 0.082731 -0.182456 -0.031297
v 0.046909 -0.180679 0.011528
v 0.022503 -0.179986 0.027466
v 0.000000 -0.179738 0.032306
v -0.022503 -0.179986 0.027466
v -0.046909 -0.180679 0.011528
v -0.082731 -0.182456 -0.031297
v -0.087424 -0.183079 -0.045934
v -0.080903 -0.183630 -0.057725
v -0.047100 -0.184898 -0.083476
v -0.035375 -0.185543 -0.097744
v -0.031778 -0.186042 -0.109560
v -0.034438 -0.186903 -0.131186
v -0.032274 -0.187300 -0.140718
v -0.023042 -0.187529 -0.145336
v 0.118628 -0.279018 -0.270894
v 0.000000 -0.275032 -0.268639
v -0.118628 -0.279018 -0.270894
v 0.000000 -0.205059 -0.182887
v 0.000000 -0.226292 -0.226736
v 0.000000 -0.242213 -0.251387
v 0.000000 -0.259331 -0.266677
v 0.000000 -0.254641 -0.007869
v 0.000000 -0.250176 0.006967
v 0.000000 -0.239584 0.021136
v 0.000000 -0.214110 0.035160
v 0.000000 -0.197853 0.036420
v 0.000000 -0.177827 0.033108
v 0.000000 -0.162294 0.043349
v 0.000000 -0.122340 0.080113
v 0.000000 -0.085424 0.105422
v 0.000000 -0.045934 0.124063
v 0.000000 0.010693 0.138857
v 0.000000 0.056124 0.142642
v 0.000000 0.104073 0.140363
v 0.000000 0.160194 0.130356
v 0.000000 0.264793 0.098431
v 0.000000 0.290586 0.098009
v 0.000000 0.305685 0.102914
v 0.000000 0.318860 0.113026
v 0.000000 0.331385 0.130876
v 0.000000 0.349323 0.172435
v 0.000000 0.355937 0.204125
v 0.000000 0.369457 0.329061
v 0.000000 0.381949 0.380119
v 0.000000 0.387337 0.390986
v 0.000000 0.391829 0.391798
v 0.000000 0.396887 0.366856
v 0.000000 0.395252 0.300457
v 0.000000 0.388324 0.236489
v 0.000000 0.376404 0.175753
v 0.000000 0.359611 0.119685
v 0.000000 0.338652 0.069487
v 0.000000 0.313584 0.023848
v 0.000000 0.291497 -0.003642
v 0.000000 0.280507 -0.010256
v 0.000000 0.259817 -0.013334
v 0.000000 0.140279 -0.005012
v 0.000000 0.114362 -0.016401
v 0.000000 0.033684 -0.070910
v 0.000000 -0.012367 -0.076296
v 0.000000 -0.098954 -0.075799
v 0.000000 -0.157507 -0.130029
v 0.000000 -0.173659 -0.140633
v 0.000000 -0.188075 -0.145303
v 0.031357 0.351578 0.110592
v 0.042284 0.345608 0.112713
v 0.043184 0.338360 0.115319
v 0.032231 0.330080 0.118335
v 0.015434 0.325668 0.119950
v -0.024771 0.327533 0.119266
v -0.037846 0.333066 0.117244
v -0.043938 0.340381 0.114589
v -0.037904 0.348890 0.111544
v -0.020074 0.354161 0.109684
v 0.006898 0.355503 0.109216
v 0.033110 -0.114246 -0.056937
v 0.033159 -0.131811 -0.087194
v 0.033166 -0.150044 -0.107622
v 0.033142 -0.170121 -0.120639
v 0.033099 -0.186611 -0.123791
v 0.118942 -0.278900 -0.225140
v 0.000000 -0.271599 -0.225643
v -0.118576 -0.280489 -0.225089
v -0.120359 -0.264566 -0.225592
v -0.118859 -0.253286 -0.225934
v -0.036570 -0.230564 -0.226585
v 0.007089 -0.226517 -0.226721
v 0.043857 -0.232167 -0.226536
v 0.118859 -0.253286 -0.225934
v 0.048166 0.285324 0.019346
v 0.083845 0.247128 0.029211
v 0.118549 0.190246 0.042400
v 0.135315 0.142636 0.050171
v 0.133457 0.119807 0.047159
v 0.126623 0.103755 0.037962
v 0.109662 0.080831 0.016327
v 0.069561 0.048669 -0.028519
v 0.042405 0.034958 -0.052692
v 0.024527 0.028887 -0.064636
v 0.007680 0.025687 -0.071546
v -0.007680 0.025687 -0.071546
v -0.024527 0.028887 -0.064636
v -0.051503 0.038959 -0.045286
v -0.094941 0.066837 -0.001203
v -0.116089 0.088259 0.024341
v -0.126623 0.103755 0.037962
v -0.133457 0.119807 0.047159
v -0.135861 0.136059 0.050475
v -0.127824 0.168924 0.046541
v -0.106403 0.213051 0.037392
v -0.075406 0.257785 0.026524
v -0.048166 0.285324 0.019346
v -0.019289 0.302713 0.014641
v 0.000000 0.306448 0.013607
v 0.019289 0.302713 0.014641
v 0.059908 0.197963 0.002717
v 0.067693 0.135280 0.003145
v 0.066307 0.116399 -0.002303
v 0.061230 0.096678 -0.013451
v 0.045593 0.066221 -0.037984
v 0.027634 0.048223 -0.056378
v 0.005801 0.039928 -0.067327
v -0.011573 0.040888 -0.065608
v -0.032522 0.051959 -0.052248
v -0.049373 0.071799 -0.032909
v -0.061230 0.096678 -0.013451
v -0.067197 0.122863 0.000269
v -0.067367 0.142234 0.003662
v -0.061876 0.187682 0.003247
v -0.052013 0.228754 0.000627
v -0.040840 0.256639 -0.001751
v -0.026013 0.277971 -0.003828
v -0.013912 0.286753 -0.004752
v 0.000000 0.289922 -0.005105
v 0.013912 0.286753 -0.004752
v 0.026013 0.277971 -0.003828
v 0.040840 0.256639 -0.001751
v 0.052013 0.228754 0.000627
v 0.118559 -0.264583 -0.007657
v -0.000291 -0.254641 -0.007869
v -0.118817 -0.227740 -0.030119
v -0.118859 -0.227752 -0.066072
v -0.118919 -0.239465 -0.162060
v -0.118832 -0.254988 -0.231016
v -0.118679 -0.267896 -0.261321
v -0.118626 -0.277900 -0.272069
v -0.118616 -0.280975 -0.254715
v -0.118548 -0.279596 -0.203406
v -0.118516 -0.266608 -0.016702
v -0.118596 -0.262673 -0.004262
v -0.118693 -0.251420 0.004457
v -0.118746 -0.240064 0.004355
v -0.033110 -0.114246 -0.056937
v -0.033159 -0.131811 -0.087194
v -0.033166 -0.150044 -0.107622
v -0.033142 -0.170121 -0.120639
v -0.033099 -0.186611 -0.123791
v -0.118559 -0.264583 -0.007657
v 0.000291 -0.254641 -0.007869
l 1 2 3 4 5 6 7 8 1
l 9 10 11 12 13 14 15 16 17 18 19 20 21 22 23 24 25 26 27 28 29 30 31 32 9
l 33 34 35 36 37 38 39 40 41 42 43 44 45 46 47 48 49 50 51 52 53 54 55
l 56 57 58 59 60 61 62 63 64 65 66 67 68 56
l 69 70 71 72 73 74 75 76 77 78 79 80 81 82 83 84 85 86 87 88 89 90 91 92 93 94 95 96 97 98 99 100 101 102 103 104 105 106 107 108 109 110 111 112 113 114 56
l 115 116 117 118 119 120 121 122 123 124 125 126 127 128 129 130 131 132 133 134 135 136 137 138 115
l 139 140 141
l 142 143 144 145 140 146 147 148 149 150 151 152 153 154 155 156 157 158 159 160 161 162 163 164 165 166 167 168 169 170 171 172 173 174 175 176 177 178 179 180 181 182 183 184 185 186 187 188 142
l 189 190 191 192 193 194 195 196 197 198 199 189
l 200 201 202 203 204
l 205 206 207 208 209 210 211 212 213 205
l 214 215 216 217 218 219 220 221 222 223 224 225 226 227 228 229 230 231 232 233 234 235 236 237 238 239 214
l 240 241 242 243 244 245 246 247 248 249 250 251 252 253 254 255 256 257 258 259 260 261 262 240
l 263 264
l 69 265 266 267 268 269 270 271 272 273 274 275 276 69
l 277 278 279 280 281
l 282 283
