v 0.047857 0.039621 -0.111900
v 0.044952 0.039511 -0.133969
v 0.036686 0.039446 -0.149662
v 0.022352 0.039406 -0.160034
v 0.000000 0.039386 -0.164127
v -0.022352 0.039406 -0.160034
v -0.036686 0.039446 -0.149662
v -0.044952 0.039511 -0.133969
v -0.047857 0.039621 -0.111900
v 0.109063 -0.062212 -0.104767
v 0.109585 -0.062316 -0.122650
v 0.114921 -0.062447 -0.144376
v 0.161037 -0.063021 -0.236486
v 0.173169 -0.063279 -0.279511
v 0.174257 -0.063458 -0.310812
v 0.169940 -0.063589 -0.337309
v 0.160265 -0.063688 -0.362349
v 0.147988 -0.063744 -0.381073
v 0.122076 -0.063790 -0.405713
v 0.090874 -0.063799 -0.423256
v 0.052452 -0.063789 -0.435370
v 0.012467 -0.063780 -0.440496
v -0.025879 -0.063782 -0.439491
v -0.065517 -0.063793 -0.432177
v -0.099016 -0.063799 -0.419498
v -0.129138 -0.063783 -0.400187
v -0.147988 -0.063744 -0.381073
v -0.164036 -0.063658 -0.354214
v -0.172018 -0.063548 -0.328586
v -0.174592 -0.063383 -0.297375
v -0.172500 -0.063253 -0.275081
v -0.164346 -0.063071 -0.244820
v -0.119921 -0.062524 -0.156855
v -0.110272 -0.062343 -0.127081
v -0.109321 -0.062187 -0.100291
v -0.124692 -0.061643 -0.007523
v -0.122551 -0.061507 0.014729
v -0.113520 -0.061377 0.035094
v -0.097271 -0.061273 0.050339
v -0.081413 -0.061212 0.058614
v -0.051131 -0.061142 0.066653
v -0.024434 -0.061103 0.069823
v 0.046727 -0.061133 0.067477
v 0.068638 -0.061177 0.062825
v 0.093494 -0.061255 0.052724
v 0.113520 -0.061377 0.035094
v 0.124142 -0.061562 0.005904
v 0.122614 -0.061776 -0.029828
v 0.000000 0.039385 -0.164179
v 0.000000 0.038505 -0.441422
v 0.000000 -0.061081 0.070633
v 0.000000 -0.043703 0.074220
v 0.000000 -0.026877 0.088469
v 0.000000 -0.015028 0.112341
v 0.000000 -0.008237 0.142806
v 0.000000 -0.004925 0.191770
v 0.000000 -0.005574 0.486339
v 0.034695 -0.007836 0.066532
v 0.061226 -0.008080 0.064260
v 0.094751 -0.008498 0.052043
v 0.116549 -0.008874 0.036596
v 0.128943 -0.009227 0.018218
v 0.131961 -0.009438 0.005204
v 0.130670 -0.009693 -0.012605
v 0.110830 -0.010626 -0.085903
v 0.108825 -0.010853 -0.116988
v 0.117089 -0.011035 -0.137691
v 0.151390 -0.011657 -0.200465
v 0.165022 -0.011952 -0.233515
v 0.174603 -0.012251 -0.272547
v 0.176289 -0.012505 -0.312683
v 0.172405 -0.012695 -0.339190
v 0.163598 -0.012916 -0.364476
v 0.149210 -0.013156 -0.387039
v 0.126436 -0.013429 -0.408379
v 0.103203 -0.013632 -0.421717
v 0.069448 -0.013840 -0.433405
v 0.000000 -0.014016 -0.441137
v -0.069448 -0.013840 -0.433405
v -0.103203 -0.013632 -0.421717
v -0.126436 -0.013429 -0.408379
v -0.149210 -0.013156 -0.387039
v -0.163598 -0.012916 -0.364476
v -0.172405 -0.012695 -0.339190
v -0.176289 -0.012505 -0.312683
v -0.174603 -0.012251 -0.272547
v -0.165022 -0.011952 -0.233515
v -0.151390 -0.011657 -0.200465
v -0.117089 -0.011035 -0.137691
v -0.108825 -0.010853 -0.116988
v -0.110830 -0.010626 -0.085903
v -0.130670 -0.009693 -0.012605
v -0.131961 -0.009438 0.005204
v -0.128943 -0.009227 0.018218
v -0.116549 -0.008874 0.036596
v -0.094751 -0.008498 0.052043
v -0.061226 -0.008080 0.064260
v -0.034695 -0.007836 0.066532
v 0.000000 0.040313 0.484717
v 0.000000 0.039857 -0.060264
v 0.032576 -0.005842 0.378309
v 0.001590 -0.004829 0.378317
v -0.028930 0.039862 0.066692
v -0.072937 0.039988 0.058725
v -0.102247 0.040084 0.047828
v -0.120195 0.040155 0.034665
v -0.129594 0.040201 0.019644
v -0.132550 0.040223 0.006616
v -0.131485 0.040230 -0.011215
v -0.109231 0.040051 -0.088550
v -0.107153 0.039891 -0.119650
v -0.115720 0.039769 -0.144985
v -0.151128 0.039505 -0.207190
v -0.165629 0.039355 -0.239887
v -0.174398 0.039178 -0.274544
v -0.175884 0.038953 -0.314712
v -0.171557 0.038817 -0.341178
v -0.161988 0.038706 -0.366204
v -0.149942 0.038634 -0.385011
v -0.127471 0.038569 -0.406704
v -0.104546 0.038538 -0.420593
v -0.070974 0.038519 -0.432866
v -0.040242 0.038512 -0.438800
v 0.000000 0.038505 -0.441399
v 0.040242 0.038512 -0.438800
v 0.070974 0.038519 -0.432866
v 0.104546 0.038538 -0.420593
v 0.127471 0.038569 -0.406704
v 0.149942 0.038634 -0.385011
v 0.161988 0.038706 -0.366204
v 0.171557 0.038817 -0.341178
v 0.175884 0.038953 -0.314712
v 0.174398 0.039178 -0.274544
v 0.165629 0.039355 -0.239887
v 0.151128 0.039505 -0.207190
v 0.115720 0.039769 -0.144985
v 0.107153 0.039891 -0.119650
v 0.109231 0.040051 -0.088550
v 0.131485 0.040230 -0.011215
v 0.132550 0.040223 0.006616
v 0.129594 0.040201 0.019644
v 0.120195 0.040155 0.034665
v 0.102247 0.040084 0.047828
v 0.072937 0.039988 0.058725
v 0.028930 0.039862 0.066692
v 0.000000 -0.063781 -0.440838
v 0.047807 0.040356 0.433064
v 0.047864 -0.005512 0.433240
v 0.108734 -0.062250 -0.111247
v -0.108734 -0.062250 -0.111247
v 0.030509 0.016142 0.378059
v 0.032333 0.015063 0.066513
v 0.174715 -0.063401 -0.300451
v -0.174715 -0.063401 -0.300451
v -0.043395 0.039719 -0.090150
v -0.034040 0.039776 -0.075031
v -0.019746 0.039821 -0.064529
v 0.000000 0.039858 -0.060294
v 0.019746 0.039821 -0.064529
v 0.034040 0.039776 -0.075031
v 0.043395 0.039719 -0.090150
v 0.046745 0.040414 0.488028
v 0.045831 0.040333 0.407549
v 0.039842 0.040356 0.390768
v 0.027602 0.040432 0.377873
v 0.176410 0.039029 -0.301239
v -0.047864 -0.005512 0.433240
v -0.001797 0.040312 0.484711
v 0.045790 0.016409 0.488180
v 0.046173 0.016259 0.415420
v 0.039905 0.016207 0.393605
v -0.176410 0.039029 -0.301239
v 0.034166 -0.006263 0.244358
v -0.034166 -0.006263 0.244358
v 0.106518 0.039934 -0.111874
v 0.044446 -0.005472 0.488141
v 0.046919 -0.005580 0.415851
v 0.041655 -0.005719 0.393903
v -0.047807 0.040356 0.433064
v -0.027747 0.040258 0.244077
v 0.027747 0.040258 0.244077
v 0.000821 0.040527 0.377922
v -0.044446 -0.005472 0.488141
v 0.001352 0.016270 0.487090
v -0.032576 -0.005842 0.378309
v -0.001590 -0.004829 0.378317
v -0.030509 0.016142 0.378059
v -0.032333 0.015063 0.066513
v -0.046745 0.040414 0.488028
v -0.045831 0.040333 0.407549
v -0.039842 0.040356 0.390768
v -0.027602 0.040432 0.377873
v 0.001797 0.040312 0.484711
v -0.045790 0.016409 0.488180
v -0.046173 0.016259 0.415420
v -0.039905 0.016207 0.393605
v -0.106518 0.039934 -0.111874
v -0.046919 -0.005580 0.415851
v -0.041655 -0.005719 0.393903
v -0.000821 0.040527 0.377922
v -0.001352 0.016270 0.487090
l 1 2 3 4 5 6 7 8 9
l 10 11 12 13 14 15 16 17 18 19 20 21 22 23 24 25 26 27 28 29 30 31 32 33 34 35 36 37 38 39 40 41 42 43 44 45 46 47 48 10
l 49 50
l 51 52 53 54 55 56 57
l 58 59 60 61 62 63 64 65 66 67 68 69 70 71 72 73 74 75 76 77 78 79 80 81 82 83 84 85 86 87 88 89 90 91 92 93 94 95 96 97 98
l 99 100
l 101 102
l 103 104 105 106 107 108 109 110 111 112 113 114 115 116 117 118 119 120 121 122 123 124 125 126 127 128 129 130 131 132 133 134 135 136 137 138 139 140 141 142 143 144 145
l 50 146
l 147 148
l 149 150
l 151 152
l 153 154
l 9 155 156 157 158 159 160 161 1
l 162 163 164 165
l 166 153
l 148 167
l 165 145
l 168 162
l 169 170 171 151
l 146 51
l 101 58
l 172 166
l 173 174
l 1 175
l 176 177 178 101
l 145 58
l 179 147
l 165 101
l 162 176
l 180 181
l 181 173
l 57 99
l 175 149
l 165 182
l 183 176
l 184 169
l 185 186
l 179 167
l 187 188
l 189 190 191 192
l 172 154
l 192 103
l 193 189
l 194 195 196 187
l 185 98
l 9 197
l 183 198 199 185
l 103 98
l 192 185
l 189 183
l 180 174
l 197 150
l 192 200
l 201 194
