{
  "accessors": [
    {
      "bufferView": 0,
      "byteOffset": 0,
      "componentType": 5126,
      "normalized": false,
      "count": 66,
      "type": "VEC3",
      "max": [
        1.0,
        0.5,
        1.0
      ],
      "min": [
        -1.0,
        -0.5,
        -1.0
      ]
    },
    {
      "bufferView": 2,
      "byteOffset": 0,
      "componentType": 5125,
      "normalized": false,
      "count": 192,
      "type": "SCALAR"
    },
    {
      "bufferView": 1,
      "byteOffset": 0,
      "componentType": 5126,
      "normalized": false,
      "count": 66,
      "type": "VEC3",
      "max": [
        1.0,
        1.0,
        1.0
      ],
      "min": [
        -1.0,
        -1.0,
        -1.0
      ]
    },
    {
      "bufferView": 3,
      "byteOffset": 0,
      "componentType": 5126,
      "normalized": false,
      "count": 1776,
      "type": "VEC3",
      "max": [
        0.2287745177745819,
        0.3916770815849304,
        0.22924962639808655
      ],
      "min": [
        -0.22869788110256195,
        -0.4173658788204193,
        -0.22838586568832397
      ]
    },
    {
      "bufferView": 4,
      "byteOffset": 0,
      "componentType": 5125,
      "normalized": false,
      "count": 10644,
      "type": "SCALAR"
    }
  ],
  "asset": {
    "generator": "pygltflib@v1.16.2",
    "version": "2.0"
  },
  "bufferViews": [
    {
      "buffer": 0,
      "byteOffset": 0,
      "byteLength": 792,
      "target": 34962
    },
    {
      "buffer": 0,
      "byteOffset": 792,
      "byteLength": 792,
      "target": 34962
    },
    {
      "buffer": 0,
      "byteOffset": 1584,
      "byteLength": 768,
      "target": 34963
    },
    {
      "buffer": 0,
      "byteOffset": 2352,
      "byteLength": 21312,
      "target": 34962
    },
    {
      "buffer": 0,
      "byteOffset": 23664,
      "byteLength": 42576,
      "target": 34963
    }
  ],
  "buffers": [
    {
      "uri": "data:application/octet-stream;base64,",
      "byteLength": 66240
    }
  ],
  "extensionsUsed": [
    "KHR_materials_unlit"
  ],
  "materials": [
    {
      "extensions": {
        "KHR_materials_unlit": {}
      },
      "pbrMetallicRoughness": {
        "baseColorFactor": [
          0.95,
          0.18999999999999995,
          0.18999999999999995,
          1.0
        ],
        "metallicFactor": 0.0,
        "roughnessFactor": 1.0
      },
      "emissiveFactor": [
        0.0,
        0.0,
        0.0
      ],
      "alphaMode": "OPAQUE",
      "alphaCutoff": 0.5,
      "doubleSided": true
    },
    {
      "extensions": {
        "KHR_materials_unlit": {}
      },
      "pbrMetallicRoughness": {
        "baseColorFactor": [
          0.18999999999999995,
          0.4117650113004785,
          0.95,
          1.0
        ],
        "metallicFactor": 0.0,
        "roughnessFactor": 1.0
      },
      "emissiveFactor": [
        0.0,
        0.0,
        0.0
      ],
      "alphaMode": "OPAQUE",
      "alphaCutoff": 0.5,
      "doubleSided": true
    },
    {
      "extensions": {
        "KHR_materials_unlit": {}
      },
      "pbrMetallicRoughness": {
        "baseColorFactor": [
          0.6335300226009575,
          0.95,
          0.18999999999999995,
          1.0
        ],
        "metallicFactor": 0.0,
        "roughnessFactor": 1.0
      },
      "emissiveFactor": [
        0.0,
        0.0,
        0.0
      ],
      "alphaMode": "OPAQUE",
      "alphaCutoff": 0.5,
      "doubleSided": true
    },
    {
      "extensions": {
        "KHR_materials_unlit": {}
      },
      "pbrMetallicRoughness": {
        "baseColorFactor": [
          0.95,
          0.18999999999999995,
          0.8552950339014357,
          1.0
        ],
        "metallicFactor": 0.0,
        "roughnessFactor": 1.0
      },
      "emissiveFactor": [
        0.0,
        0.0,
        0.0
      ],
      "alphaMode": "OPAQUE",
      "alphaCutoff": 0.5,
      "doubleSided": true
    },
    {
      "extensions": {
        "KHR_materials_unlit": {}
      },
      "pbrMetallicRoughness": {
        "baseColorFactor": [
          0.18999999999999995,
          0.95,
          0.822939954798085,
          1.0
        ],
        "metallicFactor": 0.0,
        "roughnessFactor": 1.0
      },
      "emissiveFactor": [
        0.0,
        0.0,
        0.0
      ],
      "alphaMode": "OPAQUE",
      "alphaCutoff": 0.5,
      "doubleSided": true
    },
    {
      "extensions": {
        "KHR_materials_unlit": {}
      },
      "pbrMetallicRoughness": {
        "baseColorFactor": [
          0.95,
          0.6011749434976057,
          0.18999999999999995,
          1.0
        ],
        "metallicFactor": 0.0,
        "roughnessFactor": 1.0
      },
      "emissiveFactor": [
        0.0,
        0.0,
        0.0
      ],
      "alphaMode": "OPAQUE",
      "alphaCutoff": 0.5,
      "doubleSided": true
    },
    {
      "extensions": {
        "KHR_materials_unlit": {}
      },
      "pbrMetallicRoughness": {
        "baseColorFactor": [
          0.37940993219712854,
          0.18999999999999995,
          0.95,
          1.0
        ],
        "metallicFactor": 0.0,
        "roughnessFactor": 1.0
      },
      "emissiveFactor": [
        0.0,
        0.0,
        0.0
      ],
      "alphaMode": "OPAQUE",
      "alphaCutoff": 0.5,
      "doubleSided": true
    },
    {
      "extensions": {
        "KHR_materials_unlit": {}
      },
      "pbrMetallicRoughness": {
        "baseColorFactor": [
          0.22235507910335064,
          0.95,
          0.18999999999999995,
          1.0
        ],
        "metallicFactor": 0.0,
        "roughnessFactor": 1.0
      },
      "emissiveFactor": [
        0.0,
        0.0,
        0.0
      ],
      "alphaMode": "OPAQUE",
      "alphaCutoff": 0.5,
      "doubleSided": true
    },
    {
      "extensions": {
        "KHR_materials_unlit": {}
      },
      "pbrMetallicRoughness": {
        "baseColorFactor": [
          0.95,
          0.18999999999999995,
          0.4441200904038298,
          1.0
        ],
        "metallicFactor": 0.0,
        "roughnessFactor": 1.0
      },
      "emissiveFactor": [
        0.0,
        0.0,
        0.0
      ],
      "alphaMode": "OPAQUE",
      "alphaCutoff": 0.5,
      "doubleSided": true
    },
    {
      "extensions": {
        "KHR_materials_unlit": {}
      },
      "pbrMetallicRoughness": {
        "baseColorFactor": [
          0.18999999999999995,
          0.6658851017043091,
          0.95,
          1.0
        ],
        "metallicFactor": 0.0,
        "roughnessFactor": 1.0
      },
      "emissiveFactor": [
        0.0,
        0.0,
        0.0
      ],
      "alphaMode": "OPAQUE",
      "alphaCutoff": 0.5,
      "doubleSided": true
    },
    {
      "extensions": {
        "KHR_materials_unlit": {}
      },
      "pbrMetallicRoughness": {
        "baseColorFactor": [
          0.8876501130047884,
          0.95,
          0.18999999999999995,
          1.0
        ],
        "metallicFactor": 0.0,
        "roughnessFactor": 1.0
      },
      "emissiveFactor": [
        0.0,
        0.0,
        0.0
      ],
      "alphaMode": "OPAQUE",
      "alphaCutoff": 0.5,
      "doubleSided": true
    },
    {
      "pbrMetallicRoughness": {
        "baseColorFactor": [
          0.5,
          0.5,
          0.5,
          1.0
        ],
        "metallicFactor": 0.0,
        "roughnessFactor": 1.0
      },
      "emissiveFactor": [
        0.0,
        0.0,
        0.0
      ],
      "alphaMode": "OPAQUE",
      "alphaCutoff": 0.5,
      "doubleSided": true
    }
  ],
  "meshes": [
    {
      "primitives": [
        {
          "attributes": {
            "POSITION": 0,
            "NORMAL": 2
          },
          "indices": 1,
          "mode": 4,
          "material": 0
        }
      ]
    },
    {
      "primitives": [
        {
          "attributes": {
            "POSITION": 0,
            "NORMAL": 2
          },
          "indices": 1,
          "mode": 4,
          "material": 0
        }
      ]
    },
    {
      "primitives": [
        {
          "attributes": {
            "POSITION": 0,
            "NORMAL": 2
          },
          "indices": 1,
          "mode": 4,
          "material": 1
        }
      ]
    },
    {
      "primitives": [
        {
          "attributes": {
            "POSITION": 0,
            "NORMAL": 2
          },
          "indices": 1,
          "mode": 4,
          "material": 2
        }
      ]
    },
    {
      "primitives": [
        {
          "attributes": {
            "POSITION": 0,
            "NORMAL": 2
          },
          "indices": 1,
          "mode": 4,
          "material": 3
        }
      ]
    },
    {
      "primitives": [
        {
          "attributes": {
            "POSITION": 0,
            "NORMAL": 2
          },
          "indices": 1,
          "mode": 4,
          "material": 4
        }
      ]
    },
    {
      "primitives": [
        {
          "attributes": {
            "POSITION": 0,
            "NORMAL": 2
          },
          "indices": 1,
          "mode": 4,
          "material": 5
        }
      ]
    },
    {
      "primitives": [
        {
          "attributes": {
            "POSITION": 0,
            "NORMAL": 2
          },
          "indices": 1,
          "mode": 4,
          "material": 6
        }
      ]
    },
    {
      "primitives": [
        {
          "attributes": {
            "POSITION": 0,
            "NORMAL": 2
          },
          "indices": 1,
          "mode": 4,
          "material": 7
        }
      ]
    },
    {
      "primitives": [
        {
          "attributes": {
            "POSITION": 0,
            "NORMAL": 2
          },
          "indices": 1,
          "mode": 4,
          "material": 8
        }
      ]
    },
    {
      "primitives": [
        {
          "attributes": {
            "POSITION": 0,
            "NORMAL": 2
          },
          "indices": 1,
          "mode": 4,
          "material": 9
        }
      ]
    },
    {
      "primitives": [
        {
          "attributes": {
            "POSITION": 0,
            "NORMAL": 2
          },
          "indices": 1,
          "mode": 4,
          "material": 10
        }
      ]
    },
    {
      "primitives": [
        {
          "attributes": {
            "POSITION": 3
          },
          "indices": 4,
          "mode": 4,
          "material": 11
        }
      ]
    }
  ],
  "nodes": [
    {
      "mesh": 1,
      "rotation": [
        0.06932846978409586,
        -0.0,
        0.7036999099597752,
        0.7071067811865476
      ],
      "translation": [
        -0.009932,
        0.012393,
        -0.1240475
      ],
      "scale": [
        0.002,
        0.019960168962210714,
        0.002
      ]
    },
    {
      "mesh": 1,
      "rotation": [
        0.18725660915305595,
        -0.0,
        0.6818613952472302,
        0.7071067811865476
      ],
      "translation": [
        -0.0342545,
        0.012393,
        -0.119117
      ],
      "scale": [
        0.002,
        0.029846594060294385,
        0.002
      ]
    },
    {
      "mesh": 1,
      "rotation": [
        0.33330028712365867,
        -0.0,
        0.6236272272786738,
        0.7071067811865476
      ],
      "translation": [
        -0.0574465,
        0.012393,
        -0.110461
      ],
      "scale": [
        0.002,
        0.019959360535848836,
        0.002
      ]
    },
    {
      "mesh": 1,
      "rotation": [
        0.4384880187269397,
        -0.0,
        0.5547325999370533,
        0.7071067811865476
      ],
      "translation": [
        -0.077954,
        0.012393,
        -0.096504
      ],
      "scale": [
        0.002,
        0.029842817896438674,
        0.002
      ]
    },
    {
      "mesh": 1,
      "rotation": [
        0.5466053300029207,
        -0.0,
        0.44857843596454583,
        0.7071067811865476
      ],
      "translation": [
        -0.09599099999999999,
        0.012393,
        -0.0795365
      ],
      "scale": [
        0.002,
        0.019959466049972372,
        0.002
      ]
    },
    {
      "mesh": 1,
      "rotation": [
        0.6201726678031553,
        -0.0,
        0.339684945368377,
        0.7071067811865476
      ],
      "translation": [
        -0.109489,
        0.012393,
        -0.058737
      ],
      "scale": [
        0.002,
        0.029838439235321944,
        0.002
      ]
    },
    {
      "mesh": 1,
      "rotation": [
        0.6766582295977649,
        -0.0,
        0.20526480535546882,
        0.7071067811865476
      ],
      "translation": [
        -0.11955299999999999,
        0.012393,
        -0.036101999999999995
      ],
      "scale": [
        0.002,
        0.01995946983263834,
        0.002
      ]
    },
    {
      "mesh": 1,
      "rotation": [
        0.7035596678546335,
        -0.0,
        0.07073749902475908,
        0.7071067811865476
      ],
      "translation": [
        -0.1239425,
        0.012393,
        -0.0117075
      ],
      "scale": [
        0.002,
        0.02983868204194012,
        0.002
      ]
    },
    {
      "mesh": 1,
      "rotation": [
        0.7036992287686631,
        0.0,
        -0.06933538368242194,
        0.7071067811865476
      ],
      "translation": [
        -0.1244565,
        0.012393,
        0.013068
      ],
      "scale": [
        0.002,
        0.019958178599261002,
        0.002
      ]
    },
    {
      "mesh": 1,
      "rotation": [
        0.675398222437967,
        0.0,
        -0.20937344895576995,
        0.7071067811865476
      ],
      "translation": [
        -0.1190605,
        0.012393,
        0.037249000000000004
      ],
      "scale": [
        0.002,
        0.029838016438764832,
        0.002
      ]
    },
    {
      "mesh": 1,
      "rotation": [
        0.6235898972968933,
        0.0,
        -0.33337012462014365,
        0.7071067811865476
      ],
      "translation": [
        -0.109938,
        0.012393,
        0.0603
      ],
      "scale": [
        0.002,
        0.019959421434500545,
        0.002
      ]
    },
    {
      "mesh": 1,
      "rotation": [
        0.5401585747795223,
        0.0,
        -0.45632084555951985,
        0.7071067811865476
      ],
      "translation": [
        -0.0956045,
        0.012393,
        0.0804985
      ],
      "scale": [
        0.002,
        0.029840309549332766,
        0.002
      ]
    },
    {
      "mesh": 1,
      "rotation": [
        0.4485572652991284,
        0.0,
        -0.5466227032857007,
        0.7071067811865476
      ],
      "translation": [
        -0.0782615,
        0.012393,
        0.0982265
      ],
      "scale": [
        0.002,
        0.019958831679234127,
        0.002
      ]
    },
    {
      "mesh": 1,
      "rotation": [
        0.3192944976926463,
        0.0,
        -0.6309128495626006,
        0.7071067811865476
      ],
      "translation": [
        -0.057232,
        0.012393,
        0.11129549999999999
      ],
      "scale": [
        0.002,
        0.029846045449941943,
        0.002
      ]
    },
    {
      "mesh": 1,
      "rotation": [
        0.1389967954746355,
        0.0,
        -0.6933108183547854,
        0.7071067811865476
      ],
      "translation": [
        -0.024441499999999998,
        0.012393,
        0.1219385
      ],
      "scale": [
        0.002,
        0.03972607307550043,
        0.002
      ]
    },
    {
      "mesh": 1,
      "rotation": [
        -0.04775451263865034,
        0.0,
        -0.7054923858714883,
        0.7071067811865476
      ],
      "translation": [
        0.009925499999999999,
        0.012393,
        0.124835
      ],
      "scale": [
        0.002,
        0.029851153160305212,
        0.002
      ]
    },
    {
      "mesh": 1,
      "rotation": [
        -0.20523236286341964,
        0.0,
        -0.6766680702039203,
        0.7071067811865476
      ],
      "translation": [
        0.034366999999999995,
        0.012393,
        0.1209305
      ],
      "scale": [
        0.002,
        0.01995917956730687,
        0.002
      ]
    },
    {
      "mesh": 1,
      "rotation": [
        -0.31927563616767957,
        0.0,
        -0.6309223947124745,
        0.7071067811865476
      ],
      "translation": [
        0.057232,
        0.012393,
        0.111296
      ],
      "scale": [
        0.002,
        0.029845593912669926,
        0.002
      ]
    },
    {
      "mesh": 1,
      "rotation": [
        -0.44859580955138,
        0.0,
        -0.5465910716915727,
        0.7071067811865476
      ],
      "translation": [
        0.078261,
        0.012393,
        0.09822700000000001
      ],
      "scale": [
        0.002,
        0.01995869304338337,
        0.002
      ]
    },
    {
      "mesh": 1,
      "rotation": [
        -0.5401352118323003,
        0.0,
        -0.4563484994375199,
        0.7071067811865476
      ],
      "translation": [
        0.0956045,
        0.012393,
        0.0804985
      ],
      "scale": [
        0.002,
        0.02984160025869927,
        0.002
      ]
    },
    {
      "mesh": 1,
      "rotation": [
        -0.6236193555786403,
        0.0,
        -0.33331501518485684,
        0.7071067811865476
      ],
      "translation": [
        0.109938,
        0.012393,
        0.0603
      ],
      "scale": [
        0.002,
        0.01995847859933216,
        0.002
      ]
    },
    {
      "mesh": 1,
      "rotation": [
        -0.675389441582445,
        0.0,
        -0.2094017721963048,
        0.7071067811865476
      ],
      "translation": [
        0.11906,
        0.012393,
        0.037249500000000005
      ],
      "scale": [
        0.002,
        0.02983735740644604,
        0.002
      ]
    },
    {
      "mesh": 1,
      "rotation": [
        -0.7036995693896928,
        0.0,
        -0.0693319265617288,
        0.7071067811865476
      ],
      "translation": [
        0.1244565,
        0.012393,
        0.0130685
      ],
      "scale": [
        0.002,
        0.01995917378049502,
        0.002
      ]
    },
    {
      "mesh": 1,
      "rotation": [
        -0.7035596678546335,
        0.0,
        0.07073749902475908,
        0.7071067811865476
      ],
      "translation": [
        0.1239425,
        0.012393,
        -0.0117075
      ],
      "scale": [
        0.002,
        0.02983868204194012,
        0.002
      ]
    },
    {
      "mesh": 1,
      "rotation": [
        -0.6766582295977649,
        0.0,
        0.20526480535546882,
        0.7071067811865476
      ],
      "translation": [
        0.11955299999999999,
        0.012393,
        -0.036101999999999995
      ],
      "scale": [
        0.002,
        0.01995946983263834,
        0.002
      ]
    },
    {
      "mesh": 1,
      "rotation": [
        -0.6201726678031553,
        0.0,
        0.339684945368377,
        0.7071067811865476
      ],
      "translation": [
        0.109489,
        0.012393,
        -0.058737
      ],
      "scale": [
        0.002,
        0.029838439235321944,
        0.002
      ]
    },
    {
      "mesh": 1,
      "rotation": [
        -0.5466053300029207,
        0.0,
        0.44857843596454583,
        0.7071067811865476
      ],
      "translation": [
        0.09599099999999999,
        0.012393,
        -0.0795365
      ],
      "scale": [
        0.002,
        0.019959466049972372,
        0.002
      ]
    },
    {
      "mesh": 1,
      "rotation": [
        -0.43847343541776596,
        0.0,
        0.5547441269927443,
        0.7071067811865476
      ],
      "translation": [
        0.077954,
        0.012393,
        -0.09650349999999999
      ],
      "scale": [
        0.002,
        0.029842197791047503,
        0.002
      ]
    },
    {
      "mesh": 1,
      "rotation": [
        -0.33332784229565554,
        0.0,
        0.6236124995143398,
        0.7071067811865476
      ],
      "translation": [
        0.0574465,
        0.012393,
        -0.1104605
      ],
      "scale": [
        0.002,
        0.01995983191311991,
        0.002
      ]
    },
    {
      "mesh": 1,
      "rotation": [
        -0.18725660915305595,
        0.0,
        0.6818613952472302,
        0.7071067811865476
      ],
      "translation": [
        0.0342545,
        0.012393,
        -0.119117
      ],
      "scale": [
        0.002,
        0.029846594060294385,
        0.002
      ]
    },
    {
      "mesh": 1,
      "rotation": [
        -0.06932846978409586,
        0.0,
        0.7036999099597752,
        0.7071067811865476
      ],
      "translation": [
        0.009932,
        0.012393,
        -0.1240475
      ],
      "scale": [
        0.002,
        0.019960168962210714,
        0.002
      ]
    },
    {
      "mesh": 2,
      "rotation": [
        0.06932458826433067,
        -0.0,
        0.7037002923560435,
        0.7071067811865476
      ],
      "translation": [
        -0.0198905,
        -0.175698,
        -0.2236035
      ],
      "scale": [
        0.002,
        0.03997357279503547,
        0.002
      ]
    },
    {
      "mesh": 2,
      "rotation": [
        0.19695830017626462,
        -0.0,
        0.6791225426914324,
        0.7071067811865476
      ],
      "translation": [
        -0.063726,
        -0.175698,
        -0.2146995
      ],
      "scale": [
        0.002,
        0.04986337755306995,
        0.002
      ]
    },
    {
      "mesh": 2,
      "rotation": [
        0.33333256776385883,
        -0.0,
        0.6236099736758164,
        0.7071067811865476
      ],
      "translation": [
        -0.105298,
        -0.175698,
        -0.19833299999999998
      ],
      "scale": [
        0.002,
        0.03997425236324002,
        0.002
      ]
    },
    {
      "mesh": 2,
      "rotation": [
        0.4472452366832596,
        -0.0,
        0.5476967210638886,
        0.7071067811865476
      ],
      "translation": [
        -0.14223449999999999,
        -0.175698,
        -0.173143
      ],
      "scale": [
        0.002,
        0.04985926651085031,
        0.002
      ]
    },
    {
      "mesh": 2,
      "rotation": [
        0.5466078324442598,
        -0.0,
        0.4485753866526651,
        0.7071067811865476
      ],
      "translation": [
        -0.1742235,
        -0.175698,
        -0.1419245
      ],
      "scale": [
        0.002,
        0.039974375317195394,
        0.002
      ]
    },
    {
      "mesh": 2,
      "rotation": [
        0.6260424054672171,
        -0.0,
        0.32874139769250305,
        0.7071067811865476
      ],
      "translation": [
        -0.1984935,
        -0.175698,
        -0.10440150000000001
      ],
      "scale": [
        0.002,
        0.049861205220090694,
        0.002
      ]
    },
    {
      "mesh": 2,
      "rotation": [
        0.6766571202246975,
        -0.0,
        0.2052684623833366,
        0.7071067811865476
      ],
      "translation": [
        -0.215886,
        -0.175698,
        -0.063203
      ],
      "scale": [
        0.002,
        0.03997334511896646,
        0.002
      ]
    },
    {
      "mesh": 2,
      "rotation": [
        0.7034877324045052,
        -0.0,
        0.07144935518510492,
        0.7071067811865476
      ],
      "translation": [
        -0.223707,
        -0.175698,
        -0.024197999999999997
      ],
      "scale": [
        0.002,
        0.03996253255237961,
        0.002
      ]
    },
    {
      "mesh": 2,
      "rotation": [
        0.7047846912704809,
        0.0,
        -0.057258527319280765,
        0.7071067811865476
      ],
      "translation": [
        -0.223707,
        -0.175698,
        0.0205325
      ],
      "scale": [
        0.002,
        0.049866758998354806,
        0.002
      ]
    },
    {
      "mesh": 2,
      "rotation": [
        0.6766571202246975,
        0.0,
        -0.2052684623833366,
        0.7071067811865476
      ],
      "translation": [
        -0.215886,
        -0.175698,
        0.06451
      ],
      "scale": [
        0.002,
        0.03997334511896646,
        0.002
      ]
    },
    {
      "mesh": 2,
      "rotation": [
        0.6260393401700209,
        0.0,
        -0.3287472350598324,
        0.7071067811865476
      ],
      "translation": [
        -0.1984935,
        -0.175698,
        0.105708
      ],
      "scale": [
        0.002,
        0.049860319864597734,
        0.002
      ]
    },
    {
      "mesh": 2,
      "rotation": [
        0.546614950995164,
        0.0,
        -0.4485667122609016,
        0.7071067811865476
      ],
      "translation": [
        -0.1742235,
        -0.175698,
        0.143231
      ],
      "scale": [
        0.002,
        0.03997514834243896,
        0.002
      ]
    },
    {
      "mesh": 2,
      "rotation": [
        0.44723672809205556,
        0.0,
        -0.547703669008628,
        0.7071067811865476
      ],
      "translation": [
        -0.14223449999999999,
        -0.175698,
        0.17444949999999998
      ],
      "scale": [
        0.002,
        0.04985863401658733,
        0.002
      ]
    },
    {
      "mesh": 2,
      "rotation": [
        0.3333188093479114,
        0.0,
        -0.623617327641632,
        0.7071067811865476
      ],
      "translation": [
        -0.105298,
        -0.175698,
        0.1996385
      ],
      "scale": [
        0.002,
        0.03997378096953052,
        0.002
      ]
    },
    {
      "mesh": 2,
      "rotation": [
        0.19698825518010457,
        0.0,
        -0.6791138544611632,
        0.7071067811865476
      ],
      "translation": [
        -0.06372649999999999,
        -0.175698,
        0.21600550000000002
      ],
      "scale": [
        0.002,
        0.04986297425946431,
        0.002
      ]
    },
    {
      "mesh": 2,
      "rotation": [
        0.06932286240139537,
        0.0,
        -0.7037004623761997,
        0.7071067811865476
      ],
      "translation": [
        -0.019891,
        -0.175698,
        0.2249105
      ],
      "scale": [
        0.002,
        0.03997456797765299,
        0.002
      ]
    },
    {
      "mesh": 2,
      "rotation": [
        -0.06932458826433019,
        0.0,
        -0.7037002923560435,
        0.7071067811865476
      ],
      "translation": [
        0.0198905,
        -0.175698,
        0.2249105
      ],
      "scale": [
        0.002,
        0.03997357279503547,
        0.002
      ]
    },
    {
      "mesh": 2,
      "rotation": [
        -0.19697138072488385,
        0.0,
        -0.6791187489499408,
        0.7071067811865476
      ],
      "translation": [
        0.063726,
        -0.175698,
        0.216006
      ],
      "scale": [
        0.002,
        0.049863656103418655,
        0.002
      ]
    },
    {
      "mesh": 2,
      "rotation": [
        -0.33333992193379247,
        0.0,
        -0.6236060426624914,
        0.7071067811865476
      ],
      "translation": [
        0.1052975,
        -0.175698,
        0.199639
      ],
      "scale": [
        0.002,
        0.039973370448337237,
        0.002
      ]
    },
    {
      "mesh": 2,
      "rotation": [
        -0.447231341125673,
        0.0,
        -0.5477080677833145,
        0.7071067811865476
      ],
      "translation": [
        0.14223449999999999,
        -0.175698,
        0.174449
      ],
      "scale": [
        0.002,
        0.04986081564715924,
        0.002
      ]
    },
    {
      "mesh": 2,
      "rotation": [
        -0.5466165069827397,
        0.0,
        -0.4485648161570282,
        0.7071067811865476
      ],
      "translation": [
        0.174224,
        -0.175698,
        0.14323049999999998
      ],
      "scale": [
        0.002,
        0.03997374094327425,
        0.002
      ]
    },
    {
      "mesh": 2,
      "rotation": [
        -0.6260393401700209,
        0.0,
        -0.3287472350598324,
        0.7071067811865476
      ],
      "translation": [
        0.1984935,
        -0.175698,
        0.105708
      ],
      "scale": [
        0.002,
        0.049860319864597734,
        0.002
      ]
    },
    {
      "mesh": 2,
      "rotation": [
        -0.6766571202246975,
        0.0,
        -0.2052684623833366,
        0.7071067811865476
      ],
      "translation": [
        0.215886,
        -0.175698,
        0.06451
      ],
      "scale": [
        0.002,
        0.03997334511896646,
        0.002
      ]
    },
    {
      "mesh": 2,
      "rotation": [
        -0.7034877324045052,
        0.0,
        -0.07144935518510492,
        0.7071067811865476
      ],
      "translation": [
        0.223707,
        -0.175698,
        0.025505
      ],
      "scale": [
        0.002,
        0.03996253255237961,
        0.002
      ]
    },
    {
      "mesh": 2,
      "rotation": [
        -0.7047846912704809,
        0.0,
        0.057258527319280765,
        0.7071067811865476
      ],
      "translation": [
        0.223707,
        -0.175698,
        -0.0192255
      ],
      "scale": [
        0.002,
        0.049866758998354806,
        0.002
      ]
    },
    {
      "mesh": 2,
      "rotation": [
        -0.6766571202246975,
        0.0,
        0.2052684623833366,
        0.7071067811865476
      ],
      "translation": [
        0.215886,
        -0.175698,
        -0.063203
      ],
      "scale": [
        0.002,
        0.03997334511896646,
        0.002
      ]
    },
    {
      "mesh": 2,
      "rotation": [
        -0.6260424054672171,
        0.0,
        0.32874139769250305,
        0.7071067811865476
      ],
      "translation": [
        0.1984935,
        -0.175698,
        -0.10440150000000001
      ],
      "scale": [
        0.002,
        0.049861205220090694,
        0.002
      ]
    },
    {
      "mesh": 2,
      "rotation": [
        -0.5466093882413798,
        0.0,
        0.4485734908422303,
        0.7071067811865476
      ],
      "translation": [
        0.174224,
        -0.175698,
        -0.141924
      ],
      "scale": [
        0.002,
        0.03997296791583034,
        0.002
      ]
    },
    {
      "mesh": 2,
      "rotation": [
        -0.4472467971440157,
        0.0,
        0.5476954467990579,
        0.7071067811865476
      ],
      "translation": [
        0.142235,
        -0.175698,
        -0.1731425
      ],
      "scale": [
        0.002,
        0.04986067357146309,
        0.002
      ]
    },
    {
      "mesh": 2,
      "rotation": [
        -0.3333188093479114,
        0.0,
        0.623617327641632,
        0.7071067811865476
      ],
      "translation": [
        0.105298,
        -0.175698,
        -0.1983325
      ],
      "scale": [
        0.002,
        0.03997378096953052,
        0.002
      ]
    },
    {
      "mesh": 2,
      "rotation": [
        -0.19697138072488385,
        0.0,
        0.6791187489499408,
        0.7071067811865476
      ],
      "translation": [
        0.063726,
        -0.175698,
        -0.214699
      ],
      "scale": [
        0.002,
        0.049863656103418655,
        0.002
      ]
    },
    {
      "mesh": 2,
      "rotation": [
        -0.06932458826433067,
        0.0,
        0.7037002923560435,
        0.7071067811865476
      ],
      "translation": [
        0.0198905,
        -0.175698,
        -0.2236035
      ],
      "scale": [
        0.002,
        0.03997357279503547,
        0.002
      ]
    },
    {
      "mesh": 3,
      "rotation": [
        0.06932846978409586,
        -0.0,
        0.7036999099597752,
        0.7071067811865476
      ],
      "translation": [
        -0.009932,
        0.367221,
        -0.1240475
      ],
      "scale": [
        0.002,
        0.019960168962210714,
        0.002
      ]
    },
    {
      "mesh": 3,
      "rotation": [
        0.18725660915305595,
        -0.0,
        0.6818613952472302,
        0.7071067811865476
      ],
      "translation": [
        -0.0342545,
        0.367221,
        -0.119117
      ],
      "scale": [
        0.002,
        0.029846594060294385,
        0.002
      ]
    },
    {
      "mesh": 3,
      "rotation": [
        0.33330028712365867,
        -0.0,
        0.6236272272786738,
        0.7071067811865476
      ],
      "translation": [
        -0.0574465,
        0.367221,
        -0.110461
      ],
      "scale": [
        0.002,
        0.019959360535848836,
        0.002
      ]
    },
    {
      "mesh": 3,
      "rotation": [
        0.4384880187269397,
        -0.0,
        0.5547325999370533,
        0.7071067811865476
      ],
      "translation": [
        -0.077954,
        0.367221,
        -0.096504
      ],
      "scale": [
        0.002,
        0.029842817896438674,
        0.002
      ]
    },
    {
      "mesh": 3,
      "rotation": [
        0.5466053300029207,
        -0.0,
        0.44857843596454583,
        0.7071067811865476
      ],
      "translation": [
        -0.09599099999999999,
        0.367221,
        -0.0795365
      ],
      "scale": [
        0.002,
        0.019959466049972372,
        0.002
      ]
    },
    {
      "mesh": 3,
      "rotation": [
        0.6201726678031553,
        -0.0,
        0.339684945368377,
        0.7071067811865476
      ],
      "translation": [
        -0.109489,
        0.367221,
        -0.058737
      ],
      "scale": [
        0.002,
        0.029838439235321944,
        0.002
      ]
    },
    {
      "mesh": 3,
      "rotation": [
        0.6766582295977649,
        -0.0,
        0.20526480535546882,
        0.7071067811865476
      ],
      "translation": [
        -0.11955299999999999,
        0.367221,
        -0.036101999999999995
      ],
      "scale": [
        0.002,
        0.01995946983263834,
        0.002
      ]
    },
    {
      "mesh": 3,
      "rotation": [
        0.7035596678546335,
        -0.0,
        0.07073749902475908,
        0.7071067811865476
      ],
      "translation": [
        -0.1239425,
        0.367221,
        -0.0117075
      ],
      "scale": [
        0.002,
        0.02983868204194012,
        0.002
      ]
    },
    {
      "mesh": 3,
      "rotation": [
        0.7036992287686631,
        0.0,
        -0.06933538368242194,
        0.7071067811865476
      ],
      "translation": [
        -0.1244565,
        0.367221,
        0.013068
      ],
      "scale": [
        0.002,
        0.019958178599261002,
        0.002
      ]
    },
    {
      "mesh": 3,
      "rotation": [
        0.675398222437967,
        0.0,
        -0.20937344895576995,
        0.7071067811865476
      ],
      "translation": [
        -0.1190605,
        0.367221,
        0.037249000000000004
      ],
      "scale": [
        0.002,
        0.029838016438764832,
        0.002
      ]
    },
    {
      "mesh": 3,
      "rotation": [
        0.6235898972968933,
        0.0,
        -0.33337012462014365,
        0.7071067811865476
      ],
      "translation": [
        -0.109938,
        0.367221,
        0.0603
      ],
      "scale": [
        0.002,
        0.019959421434500545,
        0.002
      ]
    },
    {
      "mesh": 3,
      "rotation": [
        0.5401585747795223,
        0.0,
        -0.45632084555951985,
        0.7071067811865476
      ],
      "translation": [
        -0.0956045,
        0.367221,
        0.0804985
      ],
      "scale": [
        0.002,
        0.029840309549332766,
        0.002
      ]
    },
    {
      "mesh": 3,
      "rotation": [
        0.4485572652991284,
        0.0,
        -0.5466227032857007,
        0.7071067811865476
      ],
      "translation": [
        -0.0782615,
        0.367221,
        0.0982265
      ],
      "scale": [
        0.002,
        0.019958831679234127,
        0.002
      ]
    },
    {
      "mesh": 3,
      "rotation": [
        0.3192944976926463,
        0.0,
        -0.6309128495626006,
        0.7071067811865476
      ],
      "translation": [
        -0.057232,
        0.367221,
        0.11129549999999999
      ],
      "scale": [
        0.002,
        0.029846045449941943,
        0.002
      ]
    },
    {
      "mesh": 3,
      "rotation": [
        0.1389967954746355,
        0.0,
        -0.6933108183547854,
        0.7071067811865476
      ],
      "translation": [
        -0.024441499999999998,
        0.367221,
        0.1219385
      ],
      "scale": [
        0.002,
        0.03972607307550043,
        0.002
      ]
    },
    {
      "mesh": 3,
      "rotation": [
        -0.04775451263865034,
        0.0,
        -0.7054923858714883,
        0.7071067811865476
      ],
      "translation": [
        0.009925499999999999,
        0.367221,
        0.124835
      ],
      "scale": [
        0.002,
        0.029851153160305212,
        0.002
      ]
    },
    {
      "mesh": 3,
      "rotation": [
        -0.20523236286341964,
        0.0,
        -0.6766680702039203,
        0.7071067811865476
      ],
      "translation": [
        0.034366999999999995,
        0.367221,
        0.1209305
      ],
      "scale": [
        0.002,
        0.01995917956730687,
        0.002
      ]
    },
    {
      "mesh": 3,
      "rotation": [
        -0.31927563616767957,
        0.0,
        -0.6309223947124745,
        0.7071067811865476
      ],
      "translation": [
        0.057232,
        0.367221,
        0.111296
      ],
      "scale": [
        0.002,
        0.029845593912669926,
        0.002
      ]
    },
    {
      "mesh": 3,
      "rotation": [
        -0.44859580955138,
        0.0,
        -0.5465910716915727,
        0.7071067811865476
      ],
      "translation": [
        0.078261,
        0.367221,
        0.09822700000000001
      ],
      "scale": [
        0.002,
        0.01995869304338337,
        0.002
      ]
    },
    {
      "mesh": 3,
      "rotation": [
        -0.5401352118323003,
        0.0,
        -0.4563484994375199,
        0.7071067811865476
      ],
      "translation": [
        0.0956045,
        0.367221,
        0.0804985
      ],
      "scale": [
        0.002,
        0.02984160025869927,
        0.002
      ]
    },
    {
      "mesh": 3,
      "rotation": [
        -0.6236193555786403,
        0.0,
        -0.33331501518485684,
        0.7071067811865476
      ],
      "translation": [
        0.109938,
        0.367221,
        0.0603
      ],
      "scale": [
        0.002,
        0.01995847859933216,
        0.002
      ]
    },
    {
      "mesh": 3,
      "rotation": [
        -0.675389441582445,
        0.0,
        -0.2094017721963048,
        0.7071067811865476
      ],
      "translation": [
        0.11906,
        0.367221,
        0.037249500000000005
      ],
      "scale": [
        0.002,
        0.02983735740644604,
        0.002
      ]
    },
    {
      "mesh": 3,
      "rotation": [
        -0.7036995693896928,
        0.0,
        -0.0693319265617288,
        0.7071067811865476
      ],
      "translation": [
        0.1244565,
        0.367221,
        0.0130685
      ],
      "scale": [
        0.002,
        0.01995917378049502,
        0.002
      ]
    },
    {
      "mesh": 3,
      "rotation": [
        -0.7035596678546335,
        0.0,
        0.07073749902475908,
        0.7071067811865476
      ],
      "translation": [
        0.1239425,
        0.367221,
        -0.0117075
      ],
      "scale": [
        0.002,
        0.02983868204194012,
        0.002
      ]
    },
    {
      "mesh": 3,
      "rotation": [
        -0.6766582295977649,
        0.0,
        0.20526480535546882,
        0.7071067811865476
      ],
      "translation": [
        0.11955299999999999,
        0.367221,
        -0.036101999999999995
      ],
      "scale": [
        0.002,
        0.01995946983263834,
        0.002
      ]
    },
    {
      "mesh": 3,
      "rotation": [
        -0.6201726678031553,
        0.0,
        0.339684945368377,
        0.7071067811865476
      ],
      "translation": [
        0.109489,
        0.367221,
        -0.058737
      ],
      "scale": [
        0.002,
        0.029838439235321944,
        0.002
      ]
    },
    {
      "mesh": 3,
      "rotation": [
        -0.5466053300029207,
        0.0,
        0.44857843596454583,
        0.7071067811865476
      ],
      "translation": [
        0.09599099999999999,
        0.367221,
        -0.0795365
      ],
      "scale": [
        0.002,
        0.019959466049972372,
        0.002
      ]
    },
    {
      "mesh": 3,
      "rotation": [
        -0.43847343541776596,
        0.0,
        0.5547441269927443,
        0.7071067811865476
      ],
      "translation": [
        0.077954,
        0.367221,
        -0.09650349999999999
      ],
      "scale": [
        0.002,
        0.029842197791047503,
        0.002
      ]
    },
    {
      "mesh": 3,
      "rotation": [
        -0.33332784229565554,
        0.0,
        0.6236124995143398,
        0.7071067811865476
      ],
      "translation": [
        0.0574465,
        0.367221,
        -0.1104605
      ],
      "scale": [
        0.002,
        0.01995983191311991,
        0.002
      ]
    },
    {
      "mesh": 3,
      "rotation": [
        -0.18725660915305595,
        0.0,
        0.6818613952472302,
        0.7071067811865476
      ],
      "translation": [
        0.0342545,
        0.367221,
        -0.119117
      ],
      "scale": [
        0.002,
        0.029846594060294385,
        0.002
      ]
    },
    {
      "mesh": 3,
      "rotation": [
        -0.06932846978409586,
        0.0,
        0.7036999099597752,
        0.7071067811865476
      ],
      "translation": [
        0.009932,
        0.367221,
        -0.1240475
      ],
      "scale": [
        0.002,
        0.019960168962210714,
        0.002
      ]
    },
    {
      "mesh": 4,
      "rotation": [
        -0.9087487371336382,
        0.0,
        -0.0,
        0.4173436626546733
      ],
      "translation": [
        0.0,
        -0.0039085000000000005,
        -0.144001
      ],
      "scale": [
        0.002,
        0.050031571122642164,
        0.002
      ]
    },
    {
      "mesh": 4,
      "rotation": [
        -0.9428095715774901,
        0.0,
        -0.0,
        0.3333318342761001
      ],
      "translation": [
        0.0,
        -0.035795,
        -0.17557050000000002
      ],
      "scale": [
        0.002,
        0.04007561129914302,
        0.002
      ]
    },
    {
      "mesh": 4,
      "rotation": [
        -0.9700315854589789,
        0.0,
        -0.0,
        0.24297885342543635
      ],
      "translation": [
        0.0,
        -0.0690645,
        -0.1976175
      ],
      "scale": [
        0.002,
        0.040104428508582445,
        0.002
      ]
    },
    {
      "mesh": 4,
      "rotation": [
        -0.9892862208816863,
        0.0,
        -0.0,
        0.14598894880651542
      ],
      "translation": [
        0.0,
        -0.1106925,
        -0.21429399999999998
      ],
      "scale": [
        0.002,
        0.05001909108530461,
        0.002
      ]
    },
    {
      "mesh": 4,
      "rotation": [
        -0.9987947805787395,
        0.0,
        -0.0,
        0.049081425087986165
      ],
      "translation": [
        0.0,
        -0.1545915,
        -0.22348400000000002
      ],
      "scale": [
        0.002,
        0.040104221037192585,
        0.002
      ]
    },
    {
      "mesh": 4,
      "rotation": [
        0.9984397073087296,
        0.0,
        -0.0,
        0.055840405346473575
      ],
      "translation": [
        0.0,
        -0.199403,
        -0.222661
      ],
      "scale": [
        0.002,
        0.05002396453700964,
        0.002
      ]
    },
    {
      "mesh": 4,
      "rotation": [
        0.989039585586588,
        0.0,
        -0.0,
        0.14765059479294457
      ],
      "translation": [
        0.0,
        -0.2434335,
        -0.2140165
      ],
      "scale": [
        0.002,
        0.040097298188281984,
        0.002
      ]
    },
    {
      "mesh": 4,
      "rotation": [
        0.9700315854589789,
        0.0,
        -0.0,
        0.24297885342543635
      ],
      "translation": [
        0.0,
        -0.2802925,
        -0.1987085
      ],
      "scale": [
        0.002,
        0.040104428508582424,
        0.002
      ]
    },
    {
      "mesh": 4,
      "rotation": [
        0.9428069156413474,
        0.0,
        -0.0,
        0.33333934634070606
      ],
      "translation": [
        0.0,
        -0.31742899999999996,
        -0.17353600000000002
      ],
      "scale": [
        0.002,
        0.05001994418229592,
        0.002
      ]
    },
    {
      "mesh": 4,
      "rotation": [
        0.9039823545285517,
        0.0,
        -0.0,
        0.4275697635486119
      ],
      "translation": [
        0.0,
        -0.3496015,
        -0.14231500000000002
      ],
      "scale": [
        0.002,
        0.040104469638682416,
        0.002
      ]
    },
    {
      "mesh": 4,
      "rotation": [
        0.8565727912638075,
        0.0,
        -0.0,
        0.5160262137396991
      ],
      "translation": [
        0.0,
        -0.37401249999999997,
        -0.1047045
      ],
      "scale": [
        0.002,
        0.05001990725701121,
        0.002
      ]
    },
    {
      "mesh": 4,
      "rotation": [
        0.8031944612286802,
        0.0,
        -0.0,
        0.5957169272830596
      ],
      "translation": [
        0.0,
        -0.391523,
        -0.063406
      ],
      "scale": [
        0.002,
        0.040104369886584675,
        0.002
      ]
    },
    {
      "mesh": 4,
      "rotation": [
        0.7422164873526627,
        0.0,
        -0.0,
        0.6701601942087241
      ],
      "translation": [
        0.0,
        -0.399383,
        -0.024276
      ],
      "scale": [
        0.002,
        0.040090152456681925,
        0.002
      ]
    },
    {
      "mesh": 4,
      "rotation": [
        0.6776584130258438,
        0.0,
        0.0,
        0.7353768253455468
      ],
      "translation": [
        0.0,
        -0.399383,
        0.0205945
      ],
      "scale": [
        0.002,
        0.05002565622757986,
        0.002
      ]
    },
    {
      "mesh": 4,
      "rotation": [
        0.5957140207769437,
        0.0,
        0.0,
        0.8031966169312263
      ],
      "translation": [
        0.0,
        -0.391523,
        0.0647125
      ],
      "scale": [
        0.002,
        0.040103412934562065,
        0.002
      ]
    },
    {
      "mesh": 4,
      "rotation": [
        0.5160302159813774,
        0.0,
        0.0,
        0.8565703801756239
      ],
      "translation": [
        0.0,
        -0.37401249999999997,
        0.10601100000000001
      ],
      "scale": [
        0.002,
        0.05002079128722378,
        0.002
      ]
    },
    {
      "mesh": 4,
      "rotation": [
        0.427562613849516,
        0.0,
        0.0,
        0.9039857361917663
      ],
      "translation": [
        0.0,
        -0.3496015,
        0.1436215
      ],
      "scale": [
        0.002,
        0.04010369661265654,
        0.002
      ]
    },
    {
      "mesh": 4,
      "rotation": [
        0.3412949181410661,
        0.0,
        0.0,
        0.9399562643288691
      ],
      "translation": [
        0.0,
        -0.3215135,
        0.1719765
      ],
      "scale": [
        0.002,
        0.04006985033663091,
        0.002
      ]
    },
    {
      "mesh": 4,
      "rotation": [
        0.2546388348704614,
        0.0,
        0.0,
        0.9670362267132571
      ],
      "translation": [
        0.0,
        -0.284377,
        0.19714949999999998
      ],
      "scale": [
        0.002,
        0.050025385685669596,
        0.002
      ]
    },
    {
      "mesh": 4,
      "rotation": [
        0.1476505947929445,
        0.0,
        0.0,
        0.989039585586588
      ],
      "translation": [
        0.0,
        -0.2434335,
        0.2153235
      ],
      "scale": [
        0.002,
        0.040097298188281984,
        0.002
      ]
    },
    {
      "mesh": 4,
      "rotation": [
        0.06033416944570908,
        0.0,
        0.0,
        0.9981782345840329
      ],
      "translation": [
        0.0,
        -0.204392,
        0.2235895
      ],
      "scale": [
        0.002,
        0.04002540189679549,
        0.002
      ]
    },
    {
      "mesh": 4,
      "rotation": [
        -0.04592715110350138,
        0.0,
        0.0,
        0.9989447916634413
      ],
      "translation": [
        0.0,
        -0.1547245,
        0.223254
      ],
      "scale": [
        0.002,
        0.05985349835222667,
        0.002
      ]
    },
    {
      "mesh": 4,
      "rotation": [
        -0.15323482962402443,
        0.0,
        0.0,
        0.9881898031198745
      ],
      "translation": [
        0.0,
        -0.1058365,
        0.2144425
      ],
      "scale": [
        0.002,
        0.040056107973691094,
        0.002
      ]
    },
    {
      "mesh": 4,
      "rotation": [
        -0.2429788534254363,
        0.0,
        0.0,
        0.9700315854589789
      ],
      "translation": [
        0.0,
        -0.0690645,
        0.1989245
      ],
      "scale": [
        0.002,
        0.040104428508582445,
        0.002
      ]
    },
    {
      "mesh": 4,
      "rotation": [
        -0.34182321885273614,
        0.0,
        0.0,
        0.9397642720667532
      ],
      "translation": [
        0.0,
        -0.032214,
        0.1734035
      ],
      "scale": [
        0.002,
        0.050021285399317765,
        0.002
      ]
    },
    {
      "mesh": 4,
      "rotation": [
        -0.42756976354861187,
        0.0,
        0.0,
        0.9039823545285517
      ],
      "translation": [
        0.0,
        -0.0003275000000000014,
        0.14183400000000002
      ],
      "scale": [
        0.002,
        0.040104469638682416,
        0.002
      ]
    },
    {
      "mesh": 5,
      "rotation": [
        0,
        0,
        0,
        1
      ],
      "translation": [
        0.0,
        0.189807,
        0.126333
      ],
      "scale": [
        0.002,
        0.35482800000000003,
        0.002
      ]
    },
    {
      "mesh": 6,
      "rotation": [
        -0.7071067811865475,
        0.0,
        0.0,
        0.7071067811865476
      ],
      "translation": [
        0.0,
        0.367221,
        0.0006535000000000013
      ],
      "scale": [
        0.002,
        0.251359,
        0.002
      ]
    },
    {
      "mesh": 7,
      "rotation": [
        1,
        0,
        0,
        0
      ],
      "translation": [
        0.0,
        0.189807,
        -0.125026
      ],
      "scale": [
        0.002,
        0.35482800000000003,
        0.002
      ]
    },
    {
      "mesh": 8,
      "rotation": [
        0,
        0,
        0,
        1
      ],
      "translation": [
        -0.125679,
        0.189807,
        0.000653
      ],
      "scale": [
        0.002,
        0.35482800000000003,
        0.002
      ]
    },
    {
      "mesh": 9,
      "rotation": [
        0.0,
        0.0,
        -0.7071067811865475,
        0.7071067811865476
      ],
      "translation": [
        0.0,
        0.367221,
        0.000653
      ],
      "scale": [
        0.002,
        0.251358,
        0.002
      ]
    },
    {
      "mesh": 10,
      "rotation": [
        1,
        0,
        0,
        0
      ],
      "translation": [
        0.125679,
        0.189807,
        0.000653
      ],
      "scale": [
        0.002,
        0.35482800000000003,
        0.002
      ]
    },
    {
      "mesh": 11,
      "rotation": [
        0.0,
        0.0,
        -0.9087460192578537,
        0.41734958066710043
      ],
      "translation": [
        0.14465450000000002,
        -0.0039085000000000005,
        0.000653
      ],
      "scale": [
        0.002,
        0.05003232964793863,
        0.002
      ]
    },
    {
      "mesh": 11,
      "rotation": [
        0.0,
        0.0,
        -0.9428095715774901,
        0.3333318342761001
      ],
      "translation": [
        0.1762245,
        -0.035795,
        0.000653
      ],
      "scale": [
        0.002,
        0.04007561129914302,
        0.002
      ]
    },
    {
      "mesh": 11,
      "rotation": [
        0.0,
        0.0,
        -0.9700315854589789,
        0.24297885342543635
      ],
      "translation": [
        0.1982715,
        -0.0690645,
        0.000653
      ],
      "scale": [
        0.002,
        0.040104428508582445,
        0.002
      ]
    },
    {
      "mesh": 11,
      "rotation": [
        0.0,
        0.0,
        -0.9892862208816863,
        0.14598894880651586
      ],
      "translation": [
        0.214948,
        -0.1106925,
        0.000653
      ],
      "scale": [
        0.002,
        0.05001909108530462,
        0.002
      ]
    },
    {
      "mesh": 11,
      "rotation": [
        0.0,
        0.0,
        -0.9987953894785492,
        0.049069032560193813
      ],
      "translation": [
        0.2241375,
        -0.1545915,
        0.000653
      ],
      "scale": [
        0.002,
        0.040104123004997876,
        0.002
      ]
    },
    {
      "mesh": 11,
      "rotation": [
        0.0,
        -0.0,
        0.9984402619165474,
        0.055830487943560686
      ],
      "translation": [
        0.2233145,
        -0.199403,
        0.000653
      ],
      "scale": [
        0.002,
        0.05002385304032465,
        0.002
      ]
    },
    {
      "mesh": 11,
      "rotation": [
        0.0,
        -0.0,
        0.9890378246520503,
        0.14766238995607625
      ],
      "translation": [
        0.21467,
        -0.2434335,
        0.000653
      ],
      "scale": [
        0.002,
        0.04009759026425406,
        0.002
      ]
    },
    {
      "mesh": 11,
      "rotation": [
        0.0,
        -0.0,
        0.9700315854589788,
        0.24297885342543657
      ],
      "translation": [
        0.1993615,
        -0.2802925,
        0.000653
      ],
      "scale": [
        0.002,
        0.04010442850858243,
        0.002
      ]
    },
    {
      "mesh": 11,
      "rotation": [
        0.0,
        -0.0,
        0.9428069156413474,
        0.33333934634070606
      ],
      "translation": [
        0.17418899999999998,
        -0.31742899999999996,
        0.000653
      ],
      "scale": [
        0.002,
        0.05001994418229592,
        0.002
      ]
    },
    {
      "mesh": 11,
      "rotation": [
        0.0,
        -0.0,
        0.9039823545285517,
        0.4275697635486119
      ],
      "translation": [
        0.14296799999999998,
        -0.3496015,
        0.000653
      ],
      "scale": [
        0.002,
        0.040104469638682416,
        0.002
      ]
    },
    {
      "mesh": 11,
      "rotation": [
        0.0,
        -0.0,
        0.8565727912638076,
        0.5160262137396989
      ],
      "translation": [
        0.10535749999999999,
        -0.37401249999999997,
        0.000653
      ],
      "scale": [
        0.002,
        0.0500199072570112,
        0.002
      ]
    },
    {
      "mesh": 11,
      "rotation": [
        0.0,
        -0.0,
        0.8031966169312263,
        0.5957140207769437
      ],
      "translation": [
        0.0640595,
        -0.391523,
        0.000653
      ],
      "scale": [
        0.002,
        0.040103412934562065,
        0.002
      ]
    },
    {
      "mesh": 11,
      "rotation": [
        0.0,
        -0.0,
        0.7422156367574995,
        0.6701611362595264
      ],
      "translation": [
        0.0249295,
        -0.399383,
        0.000653
      ],
      "scale": [
        0.002,
        0.04009114726470172,
        0.002
      ]
    },
    {
      "mesh": 11,
      "rotation": [
        0.0,
        -0.0,
        0.6776584130258438,
        0.7353768253455468
      ],
      "translation": [
        -0.0199415,
        -0.399383,
        0.000653
      ],
      "scale": [
        0.002,
        0.05002565622757986,
        0.002
      ]
    },
    {
      "mesh": 11,
      "rotation": [
        0.0,
        -0.0,
        0.5957140207769437,
        0.8031966169312263
      ],
      "translation": [
        -0.0640595,
        -0.391523,
        0.000653
      ],
      "scale": [
        0.002,
        0.040103412934562065,
        0.002
      ]
    },
    {
      "mesh": 11,
      "rotation": [
        0.0,
        -0.0,
        0.516026213739699,
        0.8565727912638076
      ],
      "translation": [
        -0.10535749999999999,
        -0.37401249999999997,
        0.000653
      ],
      "scale": [
        0.002,
        0.0500199072570112,
        0.002
      ]
    },
    {
      "mesh": 11,
      "rotation": [
        0.0,
        -0.0,
        0.4275697635486119,
        0.9039823545285517
      ],
      "translation": [
        -0.14296799999999998,
        -0.3496015,
        0.000653
      ],
      "scale": [
        0.002,
        0.040104469638682416,
        0.002
      ]
    },
    {
      "mesh": 11,
      "rotation": [
        0.0,
        -0.0,
        0.3412859214431907,
        0.9399595309504938
      ],
      "translation": [
        -0.171323,
        -0.3215135,
        0.000653
      ],
      "scale": [
        0.002,
        0.040069208739379934,
        0.002
      ]
    },
    {
      "mesh": 11,
      "rotation": [
        0.0,
        -0.0,
        0.2546388348704614,
        0.9670362267132571
      ],
      "translation": [
        -0.1964955,
        -0.284377,
        0.000653
      ],
      "scale": [
        0.002,
        0.050025385685669596,
        0.002
      ]
    },
    {
      "mesh": 11,
      "rotation": [
        0.0,
        -0.0,
        0.14766238995607622,
        0.9890378246520503
      ],
      "translation": [
        -0.21467,
        -0.2434335,
        0.000653
      ],
      "scale": [
        0.002,
        0.04009759026425406,
        0.002
      ]
    },
    {
      "mesh": 11,
      "rotation": [
        0.0,
        -0.0,
        0.060334169445708165,
        0.9981782345840329
      ],
      "translation": [
        -0.22293649999999998,
        -0.204392,
        0.000653
      ],
      "scale": [
        0.002,
        0.04002540189679548,
        0.002
      ]
    },
    {
      "mesh": 11,
      "rotation": [
        0.0,
        0.0,
        -0.045935460800919564,
        0.9989444095849415
      ],
      "translation": [
        -0.22260049999999998,
        -0.1547245,
        0.000653
      ],
      "scale": [
        0.002,
        0.05985359011788683,
        0.002
      ]
    },
    {
      "mesh": 11,
      "rotation": [
        0.0,
        0.0,
        -0.15322307373157518,
        0.9881916259897411
      ],
      "translation": [
        -0.213789,
        -0.1058365,
        0.000653
      ],
      "scale": [
        0.002,
        0.04005580513483656,
        0.002
      ]
    },
    {
      "mesh": 11,
      "rotation": [
        0.0,
        0.0,
        -0.2429788534254363,
        0.9700315854589789
      ],
      "translation": [
        -0.1982715,
        -0.0690645,
        0.000653
      ],
      "scale": [
        0.002,
        0.040104428508582445,
        0.002
      ]
    },
    {
      "mesh": 11,
      "rotation": [
        0.0,
        0.0,
        -0.3418304172288638,
        0.9397616537490455
      ],
      "translation": [
        -0.17275,
        -0.032214,
        0.000653
      ],
      "scale": [
        0.002,
        0.05002192787168444,
        0.002
      ]
    },
    {
      "mesh": 11,
      "rotation": [
        0.0,
        0.0,
        -0.42756976354861165,
        0.9039823545285518
      ],
      "translation": [
        -0.14118,
        -0.0003275000000000014,
        0.000653
      ],
      "scale": [
        0.002,
        0.040104469638682395,
        0.002
      ]
    },
    {
      "mesh": 12
    }
  ],
  "scenes": [
    {
      "nodes": [
        0,
        1,
        2,
        3,
        4,
        5,
        6,
        7,
        8,
        9,
        10,
        11,
        12,
        13,
        14,
        15,
        16,
        17,
        18,
        19,
        20,
        21,
        22,
        23,
        24,
        25,
        26,
        27,
        28,
        29,
        30,
        31,
        32,
        33,
        34,
        35,
        36,
        37,
        38,
        39,
        40,
        41,
        42,
        43,
        44,
        45,
        46,
        47,
        48,
        49,
        50,
        51,
        52,
        53,
        54,
        55,
        56,
        57,
        58,
        59,
        60,
        61,
        62,
        63,
        64,
        65,
        66,
        67,
        68,
        69,
        70,
        71,
        72,
        73,
        74,
        75,
        76,
        77,
        78,
        79,
        80,
        81,
        82,
        83,
        84,
        85,
        86,
        87,
        88,
        89,
        90,
        91,
        92,
        93,
        94,
        95,
        96,
        97,
        98,
        99,
        100,
        101,
        102,
        103,
        104,
        105,
        106,
        107,
        108,
        109,
        110,
        111,
        112,
        113,
        114,
        115,
        116,
        117,
        118,
        119,
        120,
        121,
        122,
        123,
        124,
        125,
        126,
        127,
        128,
        129,
        130,
        131,
        132,
        133,
        134,
        135,
        136,
        137,
        138,
        139,
        140,
        141,
        142,
        143,
        144,
        145,
        146,
        147,
        148,
        149,
        150,
        151,
        152
      ]
    }
  ]
}