v -0.167352 -0.142634 0.039274
v -0.174078 -0.147966 0.000000
v -0.163438 -0.167800 0.060282
v -0.067559 -0.435194 0.160317
v 0.149797 -0.085753 -0.089730
v 0.132880 -0.100572 -0.113451
v 0.144136 -0.070701 -0.098857
v 0.000000 0.043519 0.174078
v 0.030008 0.043519 0.171425
v -0.048754 0.176185 0.126342
v -0.049548 0.168037 0.130446
v -0.044959 0.172851 0.129280
v 0.169933 0.087370 0.000000
v 0.171425 0.043519 0.030173
v 0.122849 0.043519 0.123098
v 0.140418 0.000895 0.105761
v 0.146805 0.043519 0.093256
v -0.122890 0.208976 0.000000
v -0.104965 0.249553 0.000000
v 0.067476 -0.435194 0.160400
v 0.093090 -0.435194 0.146971
v 0.110205 -0.191327 -0.136185
v 0.071203 -0.155017 -0.159508
v 0.122106 -0.127419 -0.124868
v -0.076806 0.156883 -0.121021
v -0.080701 0.160741 -0.115955
v -0.076377 0.164442 -0.117207
v 0.160317 0.043519 0.067724
v -0.042922 -0.494796 0.040662
v 0.023056 -0.498121 -0.015229
v 0.029107 -0.493521 0.057800
v -0.112020 0.169921 -0.079130
v -0.090179 0.168873 -0.103511
v -0.114644 0.129373 -0.101215
v -0.085164 0.153371 -0.116341
v 0.122849 -0.435194 -0.123098
v 0.122297 -0.460365 -0.089031
v 0.089125 -0.467655 -0.108088
v -0.065072 0.290129 -0.057777
v -0.081153 0.290129 -0.031417
v -0.146888 0.043519 -0.093173
v -0.160404 -0.009484 -0.072158
v -0.160317 0.043519 -0.067559
v 0.000000 -0.243708 0.174078
v -0.059702 -0.268603 0.165551
v 0.000000 -0.291580 0.174078
v 0.148923 -0.257684 -0.096202
v 0.132290 -0.259851 -0.119102
v 0.147415 -0.228120 -0.096089
v 0.136197 -0.236097 -0.112234
v 0.139883 -0.280646 0.110808
v 0.150436 -0.338892 0.101793
v 0.141006 -0.275560 0.108666
v 0.154824 -0.307229 0.090029
v -0.101539 -0.468603 -0.095027
v -0.109184 -0.472546 -0.073794
v -0.117102 -0.464203 -0.087509
v -0.116515 -0.477488 0.036702
v -0.160317 -0.435194 0.067559
v -0.171425 -0.435194 0.030091
v -0.093173 -0.435194 -0.146888
v -0.063950 -0.469693 -0.121159
v -0.163719 -0.369561 0.072067
v -0.146888 -0.435194 0.093173
v 0.031334 0.290129 -0.081236
v -0.174078 -0.195837 0.000000
v -0.162658 -0.184270 0.063547
v -0.067201 -0.373351 -0.166427
v -0.068035 -0.374467 -0.166095
v -0.068717 -0.373043 -0.165943
v 0.030008 -0.435194 0.171425
v 0.000000 -0.435194 0.174078
v 0.140685 -0.207507 -0.104834
v 0.116452 -0.199844 -0.130579
v 0.000000 0.249553 -0.104965
v 0.146805 -0.435194 -0.093256
v 0.130255 -0.463245 -0.070004
v 0.160317 -0.435194 -0.067724
v 0.171425 -0.435194 -0.030173
v -0.174078 -0.052223 0.000000
v -0.067559 -0.435194 -0.160317
v -0.165560 -0.337942 0.065019
v -0.169210 -0.319861 0.050212
v -0.169489 -0.330799 0.049103
v 0.000000 0.043519 -0.174078
v -0.091828 0.197454 -0.084264
v -0.078545 0.169764 -0.112757
v -0.065122 0.218221 -0.095183
v -0.096599 0.231213 -0.051969
v -0.099223 0.221728 -0.056867
v 0.000000 0.326396 -0.087039
v 0.042174 0.354753 -0.074321
v -0.160317 -0.435194 -0.067559
v -0.152586 -0.394844 -0.097921
v -0.146888 -0.435194 -0.093173
v -0.160734 -0.010340 -0.071519
v -0.174078 -0.004352 0.000000
v -0.053392 -0.493614 0.033223
v -0.064525 -0.490537 -0.047666
v -0.044829 -0.494895 0.035676
v -0.029916 -0.493549 -0.058423
v -0.169933 0.087370 0.000000
v -0.150204 0.106405 0.061161
v -0.158742 0.127823 0.000000
v -0.079724 0.195049 0.097505
v -0.065729 0.221400 0.093814
v -0.093868 0.229053 0.056219
v 0.107600 -0.123339 0.137284
v 0.107925 -0.122587 0.137254
v 0.094095 -0.118528 0.144589
v 0.056092 -0.215963 -0.165408
v 0.093204 -0.202031 -0.146389
v 0.090114 -0.237968 -0.151054
v 0.171425 -0.435194 0.030173
v 0.174078 -0.387323 0.000000
v -0.093173 -0.435194 0.146888
v -0.082763 -0.384603 0.159955
v -0.095815 -0.382880 0.153346
v 0.081153 0.290129 -0.031500
v 0.082211 0.252311 -0.057716
v 0.089120 0.254809 -0.044406
v 0.000000 -0.339451 0.174078
v -0.031417 0.435194 -0.081153
v 0.079002 -0.466963 0.115182
v 0.067057 -0.465853 0.127602
v 0.062635 -0.471611 0.118282
v -0.080215 -0.177959 -0.154404
v -0.081533 -0.186061 -0.153771
v -0.082779 -0.177722 -0.153026
v 0.073766 0.136878 -0.132246
v 0.092726 0.142089 -0.116550
v 0.090888 0.121624 -0.127312
v 0.151277 -0.128339 0.085988
v 0.142040 -0.064851 0.102718
v 0.108379 -0.122908 0.137128
v 0.124160 -0.094159 0.121147
v 0.099118 0.001736 0.144838
v 0.093090 0.043519 0.146971
v -0.116413 -0.463811 0.086750
v -0.117896 -0.465789 0.079712
v -0.114216 -0.466122 0.084858
v 0.157985 -0.139496 -0.074340
v 0.163477 -0.125677 -0.060718
v 0.163102 -0.181520 -0.061499
v 0.167243 -0.171374 -0.048808
v 0.071372 0.290129 -0.049819
v 0.000000 -0.004352 0.174078
v -0.073479 0.367730 -0.049394
v -0.073270 0.336405 -0.045832
v -0.087039 0.362662 0.000000
v 0.000000 -0.387323 -0.174078
v -0.066332 -0.373639 -0.166665
v 0.000000 -0.339451 -0.174078
v 0.087039 0.326396 0.000000
v 0.087039 0.290129 0.000000
v 0.000000 -0.100095 -0.174078
v 0.000000 -0.052223 -0.174078
v 0.140816 0.168400 0.000000
v 0.115523 0.196920 -0.051395
v 0.122890 0.208976 0.000000
v 0.090301 -0.332889 -0.155856
v 0.110422 -0.346090 -0.144340
v 0.075247 -0.364528 -0.164293
v 0.000000 0.290129 -0.087039
v 0.047136 -0.250731 0.168149
v 0.050675 -0.271906 0.167850
v 0.101884 -0.014227 0.143839
v 0.105477 -0.053886 0.139909
v 0.120683 -0.027104 0.127586
v -0.065072 0.435194 -0.057777
v -0.049654 0.435194 -0.071372
v -0.144937 -0.069871 0.098716
v -0.122990 -0.120402 0.125042
v -0.117328 -0.064829 0.130345
v -0.087039 0.435194 0.000000
v -0.087039 0.398928 0.000000
v -0.081153 0.435194 0.031417
v 0.000000 0.087370 -0.169933
v 0.063831 0.082746 -0.155826
v 0.030008 0.043519 -0.171425
v -0.064938 -0.001628 0.162455
v -0.093173 0.043519 0.146888
v -0.104679 0.005376 0.141323
v 0.169658 -0.291951 -0.040940
v 0.174078 -0.291580 0.000000
v 0.174078 -0.339451 0.000000
v -0.094955 0.236106 -0.050096
v 0.153969 0.087840 0.064707
v 0.059838 -0.383306 0.168680
v 0.000000 -0.387323 0.174078
v 0.000000 -0.291580 -0.174078
v 0.000000 -0.195837 -0.174078
v 0.049216 -0.219845 -0.167221
v 0.000000 -0.243708 -0.174078
v -0.170924 -0.390014 0.047193
v -0.030091 0.043519 0.171425
v -0.047364 -0.006936 0.168350
v -0.055279 -0.004803 0.166288
v 0.116956 0.185983 0.059436
v 0.138442 0.147494 0.053088
v 0.000000 0.249553 0.104965
v 0.000000 0.208976 0.122890
v -0.141898 -0.465874 -0.025409
v -0.146279 -0.464297 -0.016417
v 0.021097 -0.498064 -0.018469
v 0.169493 -0.003139 -0.044395
v 0.168826 -0.032019 -0.045961
v 0.152942 -0.023004 -0.086594
v -0.160186 -0.010357 -0.072645
v -0.160038 -0.012020 -0.072838
v -0.160471 -0.011044 -0.071994
v 0.133821 -0.279521 0.117736
v 0.138077 -0.276036 0.112870
v 0.136821 -0.274552 0.114213
v 0.069889 0.377522 0.052439
v 0.081153 0.435194 0.031500
v 0.064906 0.435194 0.057860
v 0.160317 -0.435194 0.067724
v 0.143769 -0.463935 0.036090
v 0.139362 -0.459658 0.060067
v -0.145501 -0.332579 -0.108940
v -0.156843 -0.341279 -0.089718
v -0.156447 -0.291122 -0.086224
v -0.134322 -0.212443 -0.112946
v -0.158633 -0.207943 -0.072599
v -0.138721 -0.180097 -0.105664
v 0.065416 0.241708 -0.082043
v 0.080761 0.205919 -0.089805
v 0.061577 0.231820 -0.090359
v -0.142558 -0.134711 -0.100291
v -0.143249 -0.130708 -0.099142
v -0.139813 -0.129764 -0.103918
v -0.166538 -0.400396 -0.062989
v -0.172201 -0.388688 -0.042240
v -0.165986 -0.365776 -0.068671
v -0.170793 -0.356289 -0.051705
v -0.134229 0.100658 0.091646
v -0.121253 0.090404 0.112068
v -0.119199 0.096649 0.111742
v -0.145761 -0.359183 -0.109372
v 0.000000 -0.004352 -0.174078
v -0.000000 0.435194 -0.087039
v 0.000000 0.398928 -0.087039
v 0.048380 -0.312188 0.169154
v 0.063182 -0.328120 0.166328
v 0.054085 -0.304817 0.168166
v -0.155857 -0.010432 -0.080810
v -0.123247 -0.007338 -0.125805
v -0.124006 -0.013933 -0.125043
v 0.120762 -0.311100 -0.134265
v 0.077631 -0.283773 -0.159944
v 0.095166 -0.253946 -0.149058
v -0.049797 0.391193 -0.074445
v -0.000000 0.362662 -0.087039
v -0.060896 -0.096479 0.164225
v -0.044771 -0.053113 0.167972
v -0.076486 -0.050434 0.157125
v 0.031334 0.290129 0.081236
v 0.000000 0.290129 0.087039
v -0.102593 -0.314835 -0.148392
v -0.103753 -0.307096 -0.146765
v -0.099384 -0.298968 -0.149125
v 0.000000 0.168400 0.140816
v 0.041283 0.190502 0.121681
v 0.055050 0.164833 0.128712
v -0.174078 -0.435194 0.000000
v -0.146540 -0.464117 -0.012459
v 0.093090 0.043519 -0.146971
v 0.076699 0.102175 -0.144221
v 0.122849 0.043519 -0.123098
v 0.053419 -0.018707 -0.166688
v 0.055777 -0.051536 -0.165923
v 0.051275 -0.145504 -0.166633
v 0.076476 -0.118558 -0.156699
v 0.055413 -0.117446 -0.165076
v 0.174078 -0.195837 0.000000
v 0.166047 -0.200614 -0.054555
v 0.168162 -0.232823 -0.046724
v -0.053047 0.348726 -0.068796
v -0.048373 0.325136 -0.071363
v 0.000000 0.398928 0.087039
v 0.160947 0.091956 -0.044836
v 0.158742 0.127823 -0.000000
v 0.028398 -0.497874 -0.014249
v 0.031333 -0.493420 0.057266
v -0.106292 0.153382 0.097673
v -0.099301 0.154779 0.104135
v -0.102128 0.159416 0.099219
v 0.155703 -0.316293 -0.091437
v 0.123460 -0.312093 -0.132451
v 0.136857 -0.315099 -0.115794
v 0.168467 -0.385389 0.061872
v -0.135546 -0.143601 -0.108525
v 0.066215 -0.290366 -0.164387
v 0.039514 -0.333175 -0.171449
v 0.169898 -0.320437 0.046916
v 0.170086 -0.323691 0.046522
v 0.123469 -0.312717 -0.132433
v 0.122861 -0.313032 -0.133025
v -0.040972 -0.209347 -0.169209
v -0.041197 -0.259692 -0.169603
v -0.080324 -0.244040 -0.155806
v 0.137600 -0.343147 0.119591
v 0.146797 -0.375747 0.108817
v 0.108500 -0.475798 -0.063803
v 0.082836 -0.485504 -0.055581
v 0.094592 -0.485226 -0.035551
v 0.036707 -0.496142 -0.022302
v 0.087039 0.435194 0.000000
v 0.087039 0.398928 0.000000
v 0.081153 0.435194 -0.031500
v -0.167004 -0.066834 0.050165
v -0.167141 -0.062333 0.049215
v 0.093090 -0.435194 -0.146971
v 0.085097 -0.385036 -0.159378
v 0.123094 -0.399467 -0.133884
v -0.122932 -0.435194 0.122932
v -0.102160 -0.385539 -0.149909
v -0.119250 -0.399299 -0.135920
v 0.166155 -0.266465 0.057166
v 0.050356 0.235330 -0.095723
v 0.000000 0.208976 -0.122890
v 0.174078 -0.435194 0.000000
v -0.118017 0.185870 0.055407
v -0.130707 0.167921 0.047650
v -0.110987 0.160320 0.087776
v -0.053126 0.169579 0.127543
v -0.054709 0.173144 0.125043
v -0.000000 -0.435194 -0.174078
v -0.030091 -0.435194 -0.171425
v 0.067476 -0.435194 -0.160400
v 0.030008 -0.435194 -0.171425
v -0.087039 0.326396 0.000000
v -0.061304 0.376977 -0.064747
v -0.064339 0.403475 -0.063984
v 0.167837 -0.257197 -0.050059
v 0.174078 -0.243708 0.000000
v 0.031334 0.435194 -0.081236
v -0.066118 -0.297263 0.164561
v -0.061854 -0.213659 0.163478
v -0.043012 -0.158599 0.168223
v -0.074637 -0.168838 0.157414
v -0.174078 -0.100095 0.000000
v 0.174078 0.043519 0.000000
v 0.171425 0.043519 -0.030173
v -0.093829 0.232797 -0.055758
v -0.113641 -0.269361 -0.136838
v -0.089494 -0.251071 -0.151837
v 0.161280 -0.362769 0.082183
v 0.169911 -0.327281 0.048232
v 0.168817 -0.325144 0.051147
v -0.137115 -0.396273 -0.120190
v 0.174078 -0.052223 0.000000
v 0.174078 -0.004352 0.000000
v 0.000000 -0.100095 0.174078
v 0.095954 0.237276 0.048577
v 0.081153 0.290129 0.031500
v 0.064906 0.290129 0.057860
v 0.000000 0.127823 0.158742
v 0.126725 0.119279 -0.092527
v 0.092823 0.183594 -0.092806
v 0.130253 0.126291 -0.083466
v 0.095395 0.189899 -0.086189
v -0.161795 -0.242567 -0.069496
v -0.162745 -0.268208 -0.068267
v -0.174078 -0.243708 0.000000
v -0.049654 0.290129 -0.071372
v -0.031417 0.290129 -0.081153
v -0.159107 0.088812 -0.051025
v -0.150341 0.115399 -0.055446
v -0.030091 0.043519 -0.171425
v -0.154745 -0.359703 0.091278
v -0.138877 -0.366001 0.115997
v 0.066724 0.361980 -0.056236
v 0.061010 0.380726 -0.062504
v 0.073044 0.387927 -0.049606
v 0.161111 -0.236126 -0.067565
v 0.087511 -0.068905 0.151232
v 0.055247 -0.027312 0.165249
v 0.052062 -0.104133 0.165769
v 0.055017 -0.029718 0.165301
v 0.075889 0.334011 -0.038454
v 0.062719 0.330375 -0.058766
v 0.112249 -0.392339 0.143844
v -0.160890 -0.009223 -0.070941
v 0.000000 -0.195837 0.174078
v 0.061660 -0.183477 0.162624
v 0.034180 -0.206646 0.169465
v -0.049578 -0.140264 -0.166626
v -0.049952 -0.139027 -0.166512
v -0.127686 -0.277994 -0.124864
v 0.158991 0.082273 -0.056364
v -0.160179 -0.002554 0.073584
v -0.146888 0.043519 0.093173
v -0.160317 0.043519 0.067559
v 0.071635 0.120713 0.140516
v 0.083374 0.138813 0.125370
v 0.066795 0.124314 0.141862
v -0.128800 -0.331200 0.127061
v -0.141741 -0.348192 0.112020
v 0.104965 0.249553 0.000000
v -0.128532 -0.009505 0.120130
v -0.137664 -0.036766 0.109491
v -0.111577 -0.033970 0.135577
v -0.058756 -0.463605 0.133487
v 0.157238 -0.317940 -0.088807
v -0.071160 -0.183993 -0.158601
v 0.056417 -0.201929 -0.165524
v -0.128318 0.132502 0.080584
v -0.081153 0.435194 -0.031417
v -0.067559 0.043519 0.160317
v 0.059384 0.209140 0.104726
v 0.043658 0.234367 0.099872
v 0.050134 -0.212156 -0.166916
v -0.030091 -0.435194 0.171425
v 0.059319 0.251979 0.081644
v 0.078181 0.244557 0.068123
v 0.170510 -0.246561 0.035785
v -0.060634 -0.107212 0.164144
v -0.060353 0.227046 0.095032
v -0.105769 -0.079157 0.139760
v -0.097342 -0.053447 0.146047
v 0.143411 -0.177260 -0.099991
v 0.154057 -0.395238 0.096394
v 0.146805 -0.435194 0.093256
v -0.067559 0.043519 -0.160317
v -0.113841 -0.371547 0.140770
v -0.172417 -0.391572 0.028918
v -0.174078 -0.387323 0.000000
v 0.091469 0.201094 0.082744
v 0.077439 0.203496 0.094582
v 0.102587 0.163057 0.095835
v 0.096508 0.163536 0.101793
v 0.133962 -0.173354 0.112483
v 0.115395 -0.137191 0.129929
v 0.132900 -0.172886 0.113571
v 0.057611 0.435194 -0.065155
v -0.035796 0.259313 0.090998
v -0.050868 -0.469121 0.128709
v -0.062819 -0.468295 0.123831
v -0.051913 -0.486047 0.072914
v 0.072766 -0.364675 0.164880
v 0.090443 -0.358724 0.156451
v 0.096895 -0.332158 0.152437
v -0.174078 -0.339451 0.000000
v -0.081830 0.370257 0.031885
v 0.066389 0.353377 0.055443
v 0.087039 0.362662 0.000000
v 0.057611 0.290129 -0.065155
v -0.165220 -0.079641 0.056002
v -0.162463 -0.129187 0.064115
v -0.081075 -0.175145 -0.153929
v 0.170074 -0.325390 0.046582
v 0.164333 -0.168915 0.056520
v 0.167830 -0.181271 0.049316
v 0.168083 -0.172045 0.045430
v -0.171425 0.043519 -0.030091
v 0.000000 -0.147966 0.174078
v 0.150446 -0.026766 -0.091242
v 0.150006 -0.024919 -0.092106
v 0.150772 -0.024444 -0.090779
v -0.096581 -0.368075 0.153278
v 0.141834 0.142113 0.050541
v -0.037808 -0.492582 0.057025
v -0.043593 -0.494072 0.046165
v 0.048642 -0.470435 0.127605
v 0.049748 -0.106737 0.166356
v -0.066563 -0.372391 -0.166557
v -0.164582 -0.217647 -0.057922
v -0.163111 -0.203550 -0.063191
v -0.162339 -0.213506 -0.064182
v 0.130414 0.171972 -0.044829
v -0.155412 -0.110142 0.080204
v -0.160052 -0.117728 0.070003
v -0.157035 -0.125196 0.076696
v -0.168771 -0.263600 0.046060
v -0.164071 -0.252989 0.058166
v -0.169506 -0.259942 0.043468
v 0.071372 0.435194 -0.049819
v 0.082642 0.403386 -0.031458
v 0.174078 -0.147966 0.000000
v 0.114519 -0.192951 -0.132404
v 0.126837 -0.131133 -0.120163
v 0.072240 0.114922 0.142153
v 0.120770 0.104227 0.108446
v 0.118126 0.094904 0.114478
v -0.093173 0.043519 -0.146888
v -0.069365 -0.016312 -0.160730
v -0.110233 -0.012376 -0.136844
v 0.155164 -0.106589 0.079098
v 0.167984 -0.069033 0.046065
v 0.143557 -0.063573 0.099664
v 0.133054 -0.272735 0.118353
v 0.007887 -0.473140 0.131139
v -0.097484 -0.124410 -0.144565
v -0.100949 -0.071409 -0.142879
v -0.087856 -0.112525 -0.150394
v -0.099010 -0.069842 -0.144264
v 0.055833 0.240015 -0.090182
v 0.057198 0.232857 -0.092943
v -0.073641 0.117349 0.139509
v -0.112973 0.099884 0.116598
v 0.099567 0.157180 0.103029
v 0.091793 0.160619 0.107721
v 0.049571 0.435194 0.071538
v 0.087050 0.220462 0.074582
v 0.103865 0.216475 0.053853
v 0.148686 -0.070126 -0.092019
v 0.067476 0.043519 -0.160400
v -0.140816 0.168400 0.000000
v -0.171425 0.043519 0.030091
v 0.025347 -0.497788 -0.020189
v 0.040363 -0.490222 -0.070934
v 0.049278 0.180549 -0.124310
v 0.053584 0.218206 -0.102748
v -0.065072 0.290129 0.057777
v -0.049654 0.290129 0.071372
v -0.075690 -0.314361 0.161618
v -0.060886 -0.320582 0.166900
v -0.055301 0.323875 0.065718
v -0.062377 0.330603 0.058442
v -0.136393 -0.470477 0.001901
v 0.161631 -0.011955 0.068011
v 0.143509 -0.059219 0.099899
v 0.163542 -0.021102 0.063245
v 0.000000 0.168400 -0.140816
v -0.174078 0.043519 0.000000
v -0.103083 0.148270 0.103498
v -0.116345 0.093200 0.116310
v -0.083358 -0.368177 0.159866
v -0.146694 0.116852 0.061201
v 0.098328 0.247826 -0.032682
v -0.037929 -0.378821 0.172284
v -0.121661 -0.124392 0.126294
v 0.031334 0.435194 0.081236
v -0.073486 -0.362855 -0.163504
v -0.058826 -0.301868 -0.166331
v -0.086367 0.240038 -0.059705
v 0.052975 0.458058 -0.004580
v 0.111956 -0.390141 0.144027
v 0.064493 -0.473043 -0.114450
v 0.099472 -0.310384 0.149627
v -0.098605 -0.466967 0.100436
v -0.034360 -0.268369 -0.170920
v -0.174078 -0.291580 0.000000
v -0.170715 -0.280237 -0.034879
v -0.169735 -0.300154 -0.047017
v 0.110374 -0.469483 0.080332
v 0.118767 -0.456776 0.098470
v 0.156702 -0.317216 -0.089984
v -0.102834 0.165667 0.094187
v -0.121500 -0.127084 0.125981
v -0.110003 -0.120503 0.134697
v -0.077118 0.402209 0.044442
v -0.058590 0.397377 0.070573
v 0.000000 0.127823 -0.158742
v 0.141194 -0.063672 0.103621
v 0.135309 -0.174698 0.111136
v 0.133651 -0.180266 0.113372
v -0.122932 -0.435194 -0.122932
v -0.044225 -0.484643 -0.092035
v 0.170954 -0.136794 -0.028504
v 0.073831 -0.292243 -0.161644
v 0.095321 -0.312105 -0.151475
v 0.000000 0.326396 0.087039
v -0.031417 0.290129 0.081153
v -0.077252 -0.094588 0.156723
v -0.127583 -0.293439 -0.126124
v -0.148834 -0.277113 -0.096716
v -0.058473 -0.302316 -0.166423
v -0.158774 -0.270475 -0.077892
v -0.119178 -0.312251 0.135463
v -0.065072 0.435194 0.057777
v -0.049654 0.435194 0.071372
v 0.078532 -0.481860 0.075468
v 0.113610 -0.477137 0.044715
v 0.139461 0.109892 -0.078293
v -0.129244 -0.124097 0.116904
v 0.141658 -0.063134 0.102872
v 0.168320 -0.189664 0.045780
v -0.125171 0.092764 -0.105082
v -0.152941 0.089057 -0.065346
v -0.168467 -0.331004 -0.058375
v 0.133235 -0.174410 0.113959
v -0.116626 -0.186538 -0.130090
v -0.103122 -0.141288 -0.140139
v -0.050533 -0.140184 -0.166287
v -0.016144 0.453076 -0.062406
v -0.010837 0.464223 -0.024679
v 0.018733 0.455705 -0.053969
v -0.146720 0.109185 0.065951
v 0.165581 -0.005569 0.057524
v -0.057271 -0.077666 -0.164588
v 0.134533 -0.172673 0.111784
v -0.122932 0.043519 0.122932
v 0.049225 -0.073154 -0.167468
v 0.063943 -0.086429 -0.162115
v 0.047417 -0.088463 -0.167559
v -0.114009 0.095892 -0.118650
v -0.122932 0.043519 -0.122932
v -0.137457 -0.348174 -0.119427
v -0.101814 -0.321529 -0.149150
v 0.000000 -0.052223 0.174078
v 0.169719 -0.323668 0.048131
v -0.047404 -0.494114 0.041877
v -0.113574 -0.479212 0.030616
v -0.112534 -0.478820 0.036071
v -0.164493 -0.163454 -0.056515
v -0.165398 -0.138403 -0.053497
v -0.127557 0.161749 -0.061852
v -0.136919 0.130657 -0.069218
v 0.140754 0.140299 0.055637
v 0.000000 0.087370 0.169933
v 0.140467 -0.062737 0.104409
v -0.171425 -0.435194 -0.030091
v 0.107960 -0.121592 0.137368
v -0.156413 -0.020389 0.080534
v -0.153790 -0.009422 0.085732
v -0.158281 -0.010711 0.077012
v -0.128847 -0.377115 -0.128867
v -0.134559 -0.233722 -0.114163
v -0.158946 -0.220045 -0.072984
v 0.067476 0.043519 0.160400
v 0.146805 0.043519 -0.093256
v 0.160317 0.043519 -0.067724
v 0.067300 -0.280575 -0.163992
v 0.093054 0.200214 -0.081052
v 0.102063 0.232061 -0.042915
v 0.174078 -0.100095 0.000000
v -0.068070 -0.465295 0.126280
v 0.117365 -0.477025 -0.036253
v 0.146823 -0.462714 -0.029632
v 0.142145 -0.467472 0.002020
v -0.058772 0.255654 -0.079892
v -0.049240 0.256428 -0.086148
v -0.046460 0.226055 -0.102392
v -0.058824 0.241466 -0.087293
v -0.143723 -0.150554 0.098955
v -0.132279 -0.167459 0.114335
v 0.061219 -0.068766 -0.163487
v 0.078280 -0.071427 -0.155914
v 0.000000 0.362662 0.087039
v -0.057190 0.339368 0.064401
v 0.000000 0.435194 0.087039
v 0.000000 -0.147966 -0.174078
v -0.081153 0.290129 0.031417
v -0.059028 -0.303057 -0.166347
v -0.165790 -0.066346 0.054841
v -0.005092 -0.492680 -0.068783
v 0.151968 -0.026854 -0.088495
v 0.055137 -0.027281 0.165284
v 0.167715 -0.066457 -0.048145
v -0.050030 -0.141187 -0.166442
v 0.156853 -0.456768 -0.010008
v 0.155079 -0.455273 0.025656
v 0.122849 -0.435194 0.123098
v -0.044763 0.183106 -0.124927
v -0.040462 0.197596 -0.119957
v -0.031417 0.435194 0.081153
v -0.164931 -0.101058 -0.055426
v 0.160741 -0.230866 0.068779
v 0.153180 -0.225504 0.084583
v 0.157723 -0.247354 0.077554
v -0.160723 -0.012755 -0.071230
v -0.071964 -0.129112 0.158982
v -0.095625 -0.169813 0.146060
v -0.152965 -0.256691 -0.087640
v 0.136071 -0.266949 0.114566
v 0.045382 0.395626 0.076874
v 0.074212 -0.327549 -0.162840
v -0.104796 0.188324 -0.075212
v -0.112877 0.184689 -0.066126
v 0.107245 0.138903 0.105681
v 0.165011 -0.186558 0.055898
v 0.135851 -0.173373 0.110095
v 0.066196 -0.389344 -0.167367
v 0.056454 -0.371137 -0.169812
v -0.100948 -0.068416 -0.142955
v -0.096662 -0.062670 -0.145859
v -0.038734 0.454612 -0.047761
v -0.160701 -0.359187 0.078455
v 0.150754 -0.022704 -0.090910
v 0.051416 -0.106368 0.165991
v 0.053303 -0.115867 0.165093
v 0.059386 0.161805 -0.129128
v -0.142456 0.138651 -0.051677
v -0.167286 -0.066120 -0.047618
v -0.087039 0.290129 0.000000
v -0.086378 -0.234990 -0.152761
v -0.046099 -0.205716 -0.167508
v 0.053105 -0.222727 -0.166486
v 0.100955 -0.008507 -0.144691
v 0.125602 -0.016859 -0.118613
v 0.100723 -0.012967 -0.144728
v -0.149848 -0.329683 0.099011
v -0.163383 -0.315053 0.069068
v -0.056276 0.093190 0.156141
v 0.126280 -0.031107 -0.120025
v 0.149079 -0.022650 -0.093857
v 0.140967 -0.056023 -0.103945
v -0.169650 -0.263227 0.042857
v -0.092082 -0.486397 -0.028622
v -0.047042 0.135276 -0.146200
v 0.158079 -0.199272 -0.073155
v -0.118746 0.187168 -0.053310
v 0.161872 -0.286118 0.071884
v 0.165753 -0.016165 0.056985
v 0.141249 -0.061594 0.103290
v 0.123744 -0.117338 -0.123469
v 0.087989 -0.085352 -0.150608
v 0.109951 -0.062574 -0.135623
v 0.049571 0.290129 0.071538
v 0.156247 -0.318429 -0.090774
v 0.125169 -0.123765 -0.122352
v -0.063655 -0.223055 0.163152
v -0.087281 -0.256765 0.152247
v -0.110461 -0.463757 -0.095441
v 0.156692 -0.318794 -0.090206
v 0.070080 0.227683 0.086569
v 0.138936 -0.271871 0.111223
v 0.049293 -0.234853 0.167307
v 0.130236 -0.001615 -0.116673
v 0.111194 -0.196738 -0.134878
v -0.066641 -0.304991 -0.163868
v 0.092346 0.190038 -0.089546
v -0.169253 -0.274344 0.045001
v 0.170144 -0.388926 -0.051567
v -0.066459 0.118234 -0.143788
v -0.055780 0.195679 0.113456
v -0.059325 0.222794 0.097359
v -0.161573 -0.276379 -0.071936
v -0.144527 -0.465512 -0.015688
v -0.126504 -0.024902 -0.122313
v 0.105696 -0.242262 -0.140634
v 0.102346 -0.246913 -0.143791
v 0.101036 -0.244346 -0.144342
v -0.145715 -0.133739 -0.095205
v 0.022782 0.456606 0.063977
v 0.016680 0.457833 0.061264
v -0.049540 0.456365 0.032936
v 0.015812 0.455812 0.065509
v -0.048613 0.453677 0.041417
v 0.046448 0.370404 0.074044
v -0.139535 -0.076124 -0.104968
v -0.152901 -0.079988 -0.083156
v 0.029453 -0.130358 -0.170967
v 0.117712 -0.323449 0.137042
v 0.140390 -0.318165 0.113815
v -0.103520 -0.069879 -0.141045
v -0.128032 -0.094878 -0.118210
v 0.067991 0.194860 0.106795
v 0.170445 -0.070104 0.035620
v 0.169942 -0.061045 0.037985
v -0.091238 0.153474 0.110333
v -0.059492 0.118955 0.147264
v -0.146033 -0.236355 0.098247
v -0.149479 -0.228481 0.092429
v -0.150757 -0.234499 0.090574
v -0.143474 -0.171688 0.099593
v -0.157899 -0.169849 0.074187
v 0.067456 -0.465915 -0.126704
v -0.145419 -0.126524 -0.095894
v 0.057698 0.123518 -0.145919
v -0.112159 0.089269 0.121214
v 0.114536 -0.389459 0.142251
v -0.062656 0.233209 0.089772
v -0.049579 0.261575 0.083081
v 0.123597 0.149978 0.076217
v 0.049836 -0.103869 0.166393
v -0.059598 -0.302381 -0.166123
v -0.167191 -0.216611 0.049137
v 0.046069 0.255735 0.088387
v -0.096873 0.230623 0.051537
v -0.097845 0.229464 0.050829
v 0.143955 0.134492 0.053723
v 0.068693 0.318094 0.050733
v -0.089350 -0.179979 0.150027
v -0.099387 -0.195759 0.144178
v 0.157444 -0.218676 0.074997
v 0.029096 -0.492679 0.062719
v 0.029228 -0.493232 0.059561
v 0.030953 -0.493156 0.059870
v 0.129644 0.097029 0.099725
v 0.135821 -0.170448 0.110070
v -0.061960 -0.218254 0.163575
v -0.064520 -0.217687 0.162592
v -0.150233 -0.252087 0.092413
v -0.152743 -0.299702 0.092519
v -0.076894 0.087667 0.147662
v -0.160869 -0.011650 0.071239
v -0.164487 -0.048405 0.058238
v 0.042509 0.339582 0.074329
v 0.098396 -0.009781 -0.146465
v 0.095004 -0.018137 -0.147987
v 0.031496 0.376708 -0.080013
v -0.048984 -0.141157 -0.166715
v -0.064019 0.259941 0.073566
v -0.051879 -0.015909 0.167234
v -0.079903 0.344214 0.032744
v 0.139193 -0.229636 0.106658
v -0.015884 -0.486619 -0.094839
v 0.055121 -0.027192 0.165287
v 0.158716 -0.121324 -0.072876
v 0.099243 -0.007560 -0.145810
v -0.048657 -0.147673 -0.166779
v 0.141296 -0.062957 0.103364
v -0.116268 -0.236933 -0.131443
v -0.104252 -0.250353 -0.142602
v -0.125523 -0.254864 -0.124957
v 0.039652 -0.469093 -0.132182
v -0.083601 -0.033804 0.154011
v 0.132389 0.114201 -0.087493
v 0.044322 0.456116 -0.037095
v 0.161446 -0.389590 -0.079890
v 0.169194 -0.373154 -0.057840
v -0.144995 -0.465195 -0.014507
v 0.069920 -0.175874 0.159979
v -0.139823 -0.266396 0.109318
v -0.152290 -0.228801 0.087421
v -0.052228 -0.020386 -0.166875
v -0.058553 -0.032560 -0.165091
v -0.026654 -0.469963 -0.134774
v -0.015527 -0.461847 -0.146254
v 0.113503 -0.392857 0.142829
v 0.145377 -0.402628 0.108493
v 0.157100 -0.319525 -0.089373
v 0.146292 -0.391369 -0.108158
v 0.017054 0.465298 -0.007193
v 0.024635 0.458518 0.054895
v 0.102670 -0.205246 0.140934
v 0.077684 -0.183119 0.156122
v 0.126675 -0.173711 0.119118
v -0.097761 0.230422 0.050272
v 0.047698 0.083383 0.161168
v 0.124865 -0.223449 0.123246
v 0.133865 -0.170509 0.112319
v -0.105583 -0.212436 -0.139919
v -0.095292 -0.240264 -0.147875
v 0.156548 -0.321235 -0.090387
v -0.039259 -0.201275 -0.169324
v 0.063721 -0.206105 0.162138
v 0.107921 -0.124091 0.137067
v -0.158560 -0.180148 0.073164
v 0.094590 -0.230922 0.147815
v 0.098870 -0.255891 0.146296
v 0.126680 -0.238862 0.122352
v 0.070642 -0.246749 0.160091
v 0.088777 -0.454756 0.125066
v -0.068041 -0.107683 0.161280
v -0.109010 -0.107421 -0.135980
v -0.132994 -0.129900 -0.111402
v -0.125144 -0.303818 0.127918
v -0.149320 -0.308660 0.098096
v -0.167532 -0.312859 0.055592
v -0.095709 -0.025671 0.147651
v -0.116031 -0.294563 0.136543
v 0.136654 -0.067789 -0.108814
v 0.123438 -0.313841 -0.132468
v -0.087062 -0.269110 0.152866
v -0.084699 -0.292245 0.155751
v 0.128100 -0.374192 -0.131511
v -0.100761 0.093560 -0.129371
v -0.110748 0.092852 -0.121928
v -0.034685 0.208383 -0.116084
v -0.169876 -0.261083 0.040482
v 0.155778 -0.319804 -0.091454
v 0.087386 -0.264987 0.153325
v -0.103487 -0.259700 0.144004
v -0.049265 -0.493149 0.046490
v 0.065655 0.114223 0.145955
v -0.168687 -0.027180 0.039882
v -0.131334 -0.180898 0.115693
v -0.069157 -0.219054 0.160443
v -0.112645 -0.361376 -0.143768
v 0.107820 -0.296069 0.143144
v -0.121783 -0.382229 -0.134626
v -0.005113 -0.470754 -0.136116
v 0.079136 -0.490852 0.003770
v 0.034227 0.099178 -0.160825
v -0.064817 0.379276 0.061119
v -0.044769 0.205171 -0.114129
v 0.077121 -0.488671 0.038015
v 0.115298 -0.479986 0.012165
v -0.098369 0.229631 0.049735
v -0.122799 -0.209873 0.125546
v -0.144710 -0.225725 0.099820
v -0.129577 -0.238835 0.119569
v -0.142456 -0.204202 0.102266
v -0.107003 -0.234963 0.140222
v 0.056132 -0.251016 0.165427
v -0.041513 -0.355831 0.171404
v -0.054652 -0.006586 -0.166284
v -0.016113 0.465761 0.002205
v -0.106108 0.101084 -0.123238
v 0.029947 -0.493338 0.058697
v 0.055180 -0.027238 0.165268
v 0.055377 -0.027084 0.165193
v 0.055981 0.325404 0.064646
v -0.125262 -0.262343 0.125722
v -0.059667 0.094274 -0.154686
v 0.091079 -0.001812 0.149993
v 0.168114 -0.181851 -0.044884
v 0.160701 -0.124796 0.065816
v 0.018772 -0.483685 -0.102890
v 0.001017 -0.463555 -0.143496
v -0.116327 -0.202029 -0.130716
v 0.140730 0.153015 -0.040170
v -0.107011 0.156795 0.094803
v 0.142606 -0.067008 -0.101196
v -0.098817 0.228146 0.050397
v -0.077299 0.392873 -0.045002
v -0.051545 0.456554 -0.022821
v -0.160120 -0.265369 -0.074438
v -0.113871 -0.478029 0.038999
v 0.155310 0.111796 -0.044093
v 0.169796 -0.079224 0.038984
v 0.171211 -0.125742 0.030017
v 0.132643 0.118952 -0.084985
v 0.163138 -0.102966 -0.062076
v 0.112845 0.001358 0.133664
v -0.069066 -0.225651 0.160559
v -0.142294 -0.126596 -0.100506
v -0.058581 -0.117814 0.164598
v -0.171659 -0.371359 0.043122
v -0.154813 -0.172817 -0.078793
v -0.044784 0.112418 -0.154935
v -0.043892 0.086783 -0.162174
f 1 2 3
f 5 6 7
f 10 11 12
f 15 16 17
f 22 23 24
f 25 26 27
f 29 30 31
f 32 33 34
f 33 35 34
f 37 38 36
f 41 42 43
f 44 45 46
f 47 48 49
f 48 50 49
f 51 52 53
f 52 54 53
f 55 56 57
f 58 59 60
f 61 62 55
f 63 59 64
f 66 67 3
f 68 69 70
f 26 35 33
f 73 50 74
f 77 37 76
f 82 83 84
f 33 86 87
f 86 88 87
f 89 90 18
f 65 91 92
f 93 94 95
f 96 80 97
f 98 99 100
f 99 101 100
f 102 103 104
f 105 106 107
f 108 109 110
f 111 112 113
f 116 117 118
f 119 121 120
f 124 125 126
f 127 128 129
f 130 131 132
f 133 134 135
f 134 136 135
f 137 15 138
f 139 140 141
f 142 143 144
f 143 145 144
f 119 120 146
f 9 8 147
f 148 149 150
f 151 152 153
f 154 155 119
f 158 159 160
f 161 162 163
f 46 166 165
f 167 168 169
f 172 173 174
f 175 176 177
f 178 179 180
f 181 182 183
f 184 185 186
f 19 187 18
f 14 188 28
f 71 189 190
f 192 193 194
f 195 60 59
f 196 198 197
f 199 200 158
f 93 203 204
f 100 205 29
f 205 30 29
f 206 207 208
f 209 210 211
f 212 213 214
f 215 216 217
f 218 220 219
f 221 222 223
f 224 225 226
f 227 228 229
f 190 189 122
f 230 231 232
f 233 234 235
f 234 236 235
f 237 238 239
f 240 94 222
f 94 235 222
f 85 180 241
f 242 243 123
f 244 245 246
f 247 248 249
f 250 251 252
f 253 243 254
f 255 256 257
f 260 261 262
f 263 265 264
f 266 267 60
f 268 269 270
f 271 272 157
f 23 273 274
f 273 275 274
f 276 278 277
f 164 65 75
f 279 254 280
f 282 283 13
f 30 284 31
f 284 285 31
f 286 287 288
f 48 289 290
f 289 291 290
f 115 292 114
f 232 293 230
f 294 295 191
f 185 296 297
f 290 298 299
f 300 301 302
f 303 304 52
f 20 189 71
f 305 38 37
f 306 307 308
f 309 310 311
f 80 312 313
f 315 316 314
f 318 61 319
f 320 296 185
f 321 322 75
f 41 209 42
f 324 325 326
f 327 10 328
f 151 329 330
f 40 333 149
f 334 335 253
f 240 222 221
f 184 336 337
f 115 186 292
f 243 242 338
f 46 45 339
f 340 341 342
f 95 57 93
f 13 344 345
f 62 61 81
f 89 346 90
f 262 347 348
f 346 88 90
f 88 86 90
f 349 350 52
f 350 351 52
f 240 352 94
f 356 357 358
f 360 361 362
f 361 363 362
f 364 365 366
f 108 135 109
f 367 280 368
f 104 370 369
f 371 178 85
f 64 373 372
f 374 375 376
f 377 278 336
f 378 379 380
f 379 381 380
f 374 382 383
f 373 64 317
f 21 384 20
f 384 189 20
f 385 96 97
f 190 72 71
f 386 388 387
f 389 390 156
f 347 262 391
f 262 261 391
f 94 233 235
f 345 392 282
f 393 394 395
f 396 397 398
f 399 400 373
f 356 160 401
f 402 403 404
f 116 405 4
f 336 184 406
f 127 407 128
f 273 23 408
f 409 237 286
f 237 239 286
f 4 117 116
f 409 286 326
f 412 413 202
f 414 193 192
f 4 405 415
f 416 417 358
f 215 310 216
f 418 337 276
f 355 255 419
f 201 420 202
f 241 271 157
f 174 421 422
f 142 144 423
f 218 424 425
f 427 373 317
f 428 429 60
f 430 431 432
f 431 433 432
f 434 435 436
f 438 420 201
f 116 118 317
f 439 440 441
f 442 443 444
f 59 58 140
f 91 65 164
f 111 408 112
f 405 440 439
f 446 176 150
f 447 154 448
f 180 271 241
f 449 120 227
f 450 343 451
f 448 382 374
f 382 448 154
f 382 154 119
f 382 119 146
f 127 129 452
f 186 297 453
f 454 455 456
f 254 92 91
f 102 369 457
f 429 266 60
f 459 460 461
f 418 185 337
f 118 462 427
f 200 463 158
f 464 441 465
f 466 125 71
f 146 120 449
f 458 467 355
f 101 205 100
f 237 103 394
f 152 468 153
f 469 470 471
f 472 362 363
f 473 474 475
f 476 477 478
f 479 480 376
f 481 456 455
f 423 482 483
f 396 484 485
f 484 486 485
f 488 489 487
f 220 218 425
f 490 491 134
f 491 492 134
f 212 214 493
f 394 238 237
f 39 40 149
f 439 494 415
f 495 496 497
f 496 498 497
f 321 75 65
f 499 321 65
f 500 321 499
f 501 287 502
f 503 433 504
f 346 89 187
f 89 18 187
f 349 52 424
f 52 304 424
f 448 215 447
f 415 494 72
f 430 199 506
f 199 507 506
f 5 7 508
f 503 432 433
f 509 271 180
f 510 325 18
f 512 513 308
f 513 306 308
f 514 322 515
f 414 111 193
f 171 253 335
f 518 519 339
f 520 521 516
f 60 522 58
f 523 524 525
f 41 247 209
f 233 94 93
f 511 527 97
f 528 286 529
f 286 239 529
f 530 118 117
f 103 531 104
f 532 119 401
f 532 121 119
f 395 103 511
f 511 103 102
f 394 103 395
f 122 533 190
f 534 421 173
f 421 174 173
f 218 292 424
f 415 405 439
f 68 536 468
f 74 482 73
f 482 423 73
f 349 292 350
f 301 537 302
f 187 538 346
f 33 27 26
f 142 423 483
f 309 539 216
f 189 384 442
f 384 540 442
f 26 25 35
f 306 513 541
f 118 530 462
f 96 385 43
f 172 174 403
f 542 246 444
f 246 245 444
f 139 543 317
f 194 544 301
f 154 357 155
f 546 547 545
f 479 376 437
f 267 522 60
f 548 549 124
f 406 550 336
f 550 377 336
f 517 520 516
f 68 70 536
f 27 33 87
f 481 455 276
f 13 188 14
f 551 288 105
f 552 553 534
f 445 236 429
f 61 69 81
f 554 555 177
f 136 134 557
f 305 37 77
f 558 434 559
f 560 352 319
f 560 319 61
f 95 352 560
f 95 94 352
f 39 280 367
f 149 280 39
f 448 374 376
f 99 56 561
f 56 55 561
f 145 562 481
f 161 563 564
f 563 251 564
f 68 152 69
f 565 566 259
f 311 480 479
f 528 287 286
f 132 360 270
f 257 422 255
f 422 567 255
f 221 223 568
f 223 569 568
f 570 537 544
f 537 301 544
f 223 571 569
f 111 414 408
f 572 462 518
f 427 462 399
f 462 572 399
f 575 576 548
f 392 577 282
f 172 473 173
f 473 578 173
f 579 557 134
f 258 565 259
f 22 24 482
f 24 483 482
f 418 276 580
f 41 582 581
f 583 236 445
f 398 265 263
f 584 434 436
f 129 585 586
f 497 390 495
f 390 587 495
f 462 530 518
f 530 519 518
f 588 589 590
f 591 237 409
f 28 523 592
f 593 157 156
f 434 558 594
f 28 188 17
f 596 597 598
f 41 599 600
f 221 260 601
f 260 602 601
f 603 256 255
f 398 263 359
f 351 350 604
f 98 605 606
f 605 607 606
f 608 2 609
f 397 503 504
f 93 234 233
f 429 236 234
f 32 34 610
f 34 611 610
f 200 612 463
f 554 176 446
f 9 613 8
f 136 557 614
f 429 234 615
f 615 234 93
f 51 53 213
f 263 12 11
f 356 358 417
f 110 616 380
f 616 378 380
f 617 618 619
f 14 344 13
f 240 620 352
f 469 366 66
f 224 621 225
f 621 622 225
f 138 486 484
f 16 523 17
f 626 294 191
f 457 97 527
f 500 499 227
f 499 449 227
f 627 628 363
f 628 159 363
f 23 22 408
f 22 112 408
f 560 57 95
f 630 405 116
f 630 440 405
f 631 632 633
f 47 550 48
f 550 289 48
f 43 385 457
f 634 39 367
f 373 400 372
f 635 636 637
f 52 351 54
f 578 638 552
f 638 639 552
f 640 272 641
f 642 643 520
f 192 408 414
f 516 521 646
f 576 219 548
f 219 220 548
f 42 209 96
f 330 152 151
f 68 468 152
f 146 383 382
f 449 383 146
f 647 570 191
f 325 531 326
f 531 409 326
f 312 450 648
f 649 512 101
f 512 205 101
f 650 508 459
f 508 7 459
f 651 603 381
f 115 114 323
f 652 353 629
f 514 526 322
f 354 206 345
f 653 587 389
f 391 261 568
f 261 260 568
f 442 122 189
f 633 654 219
f 654 655 219
f 393 618 394
f 11 10 327
f 657 658 526
f 659 555 281
f 343 660 609
f 159 628 160
f 661 662 663
f 122 244 46
f 664 211 210
f 342 665 666
f 115 323 79
f 427 317 118
f 225 622 471
f 471 622 364
f 667 364 621
f 364 622 621
f 168 378 616
f 540 443 442
f 213 668 214
f 217 669 215
f 99 561 101
f 161 163 670
f 90 671 672
f 398 397 265
f 397 504 265
f 396 485 397
f 485 673 397
f 674 455 558
f 455 675 558
f 163 676 677
f 249 489 678
f 489 679 678
f 202 264 412
f 161 299 162
f 680 171 170
f 681 63 372
f 453 604 350
f 306 305 307
f 215 448 310
f 201 258 259
f 46 519 122
f 91 280 254
f 625 682 624
f 2 451 343
f 47 49 377
f 110 683 684
f 685 361 131
f 686 370 104
f 140 64 59
f 687 660 343
f 19 688 40
f 128 407 689
f 407 690 689
f 111 113 691
f 29 465 605
f 692 693 694
f 372 695 82
f 695 696 82
f 343 609 2
f 359 697 613
f 418 661 320
f 661 663 320
f 383 92 374
f 444 443 540
f 134 492 579
f 56 203 57
f 354 345 344
f 698 699 700
f 377 277 278
f 64 372 63
f 476 478 701
f 164 75 368
f 98 606 702
f 135 136 616
f 556 703 526
f 640 641 597
f 73 704 49
f 18 90 705
f 706 53 54
f 254 279 253
f 707 353 354
f 32 610 672
f 169 614 16
f 614 708 16
f 709 710 711
f 667 621 569
f 621 391 569
f 221 568 260
f 667 569 571
f 65 383 449
f 416 358 712
f 416 712 258
f 713 289 550
f 714 483 24
f 680 170 410
f 45 715 716
f 457 369 43
f 717 57 560
f 713 550 718
f 191 544 194
f 184 186 406
f 719 506 416
f 506 417 416
f 213 720 668
f 161 670 563
f 670 294 563
f 721 44 165
f 722 624 699
f 144 277 704
f 93 204 615
f 41 581 599
f 22 482 723
f 251 563 294
f 173 578 534
f 569 391 568
f 553 567 534
f 567 421 534
f 536 724 468
f 724 647 468
f 514 725 685
f 725 361 685
f 263 264 202
f 63 195 59
f 83 726 545
f 86 671 90
f 473 475 578
f 727 79 78
f 728 25 703
f 106 729 730
f 547 731 583
f 732 204 203
f 727 115 79
f 438 201 566
f 720 53 662
f 53 663 662
f 458 341 386
f 249 733 247
f 734 735 736
f 606 607 58
f 53 720 213
f 647 191 153
f 538 40 39
f 609 737 608
f 109 616 110
f 37 36 76
f 306 541 305
f 541 38 305
f 217 216 738
f 669 217 505
f 515 228 514
f 228 725 514
f 669 505 535
f 669 535 281
f 739 740 741
f 740 742 741
f 669 281 642
f 743 669 642
f 368 280 91
f 288 287 328
f 287 327 328
f 744 745 210
f 745 664 210
f 746 645 156
f 490 134 133
f 499 65 449
f 747 303 748
f 749 750 744
f 265 504 751
f 250 252 290
f 252 735 290
f 157 596 156
f 157 272 596
f 66 3 2
f 491 752 753
f 376 480 448
f 748 303 52
f 201 202 413
f 639 666 552
f 161 564 299
f 17 523 28
f 314 676 315
f 339 519 46
f 754 287 755
f 287 501 755
f 709 6 714
f 752 629 353
f 441 464 439
f 464 494 439
f 719 416 412
f 416 413 412
f 741 644 281
f 223 731 571
f 756 757 758
f 714 24 709
f 715 45 44
f 308 284 512
f 649 513 512
f 638 475 759
f 475 760 759
f 703 657 526
f 114 292 218
f 222 583 223
f 583 731 223
f 236 222 235
f 219 114 218
f 541 761 38
f 160 507 199
f 603 255 355
f 545 701 366
f 428 195 429
f 611 686 610
f 611 370 686
f 610 686 510
f 510 686 104
f 737 762 231
f 763 685 130
f 488 487 426
f 236 583 222
f 276 455 580
f 182 764 595
f 737 609 762
f 609 660 762
f 81 152 330
f 81 69 152
f 48 735 50
f 735 734 50
f 765 304 303
f 120 628 627
f 766 420 767
f 420 438 767
f 698 711 694
f 127 452 653
f 452 587 653
f 591 531 103
f 552 534 578
f 432 503 768
f 659 741 742
f 264 265 412
f 265 751 412
f 228 627 363
f 80 687 343
f 769 381 603
f 664 687 80
f 745 660 687
f 262 348 724
f 348 770 724
f 771 67 66
f 274 275 597
f 772 258 201
f 34 599 611
f 281 555 642
f 107 773 774
f 28 592 14
f 612 775 463
f 154 776 357
f 772 416 258
f 777 666 778
f 745 687 664
f 779 662 661
f 455 779 580
f 779 661 580
f 780 781 782
f 29 31 465
f 31 781 465
f 783 775 485
f 775 612 485
f 3 760 451
f 760 475 451
f 659 742 574
f 74 50 734
f 383 65 92
f 706 54 604
f 54 351 604
f 746 156 598
f 594 558 784
f 474 451 475
f 1 451 2
f 785 340 786
f 73 423 704
f 423 144 704
f 775 188 13
f 463 775 283
f 555 643 642
f 274 597 710
f 588 242 123
f 787 477 788
f 477 476 788
f 551 326 288
f 438 566 767
f 411 789 182
f 321 500 515
f 321 515 322
f 363 725 228
f 790 791 617
f 258 792 565
f 365 731 546
f 731 547 546
f 246 166 46
f 652 207 353
f 186 453 350
f 793 271 509
f 794 272 793
f 272 271 793
f 694 794 793
f 613 697 196
f 283 775 13
f 158 463 283
f 498 496 749
f 795 375 92
f 375 374 92
f 668 493 214
f 761 332 331
f 98 100 605
f 653 389 796
f 251 626 252
f 337 278 276
f 107 766 773
f 766 797 773
f 96 664 80
f 606 58 522
f 363 361 725
f 564 251 299
f 251 250 299
f 713 718 291
f 500 227 229
f 198 798 197
f 491 753 525
f 753 707 525
f 635 368 75
f 785 44 386
f 388 44 721
f 422 404 174
f 404 403 174
f 200 768 612
f 432 768 199
f 768 200 199
f 430 432 199
f 647 153 468
f 49 50 73
f 248 41 600
f 130 685 131
f 131 360 132
f 418 320 185
f 646 521 799
f 559 800 558
f 800 662 558
f 784 133 435
f 133 135 435
f 649 101 801
f 802 9 147
f 143 142 803
f 268 692 804
f 529 238 595
f 77 632 305
f 632 631 305
f 77 76 78
f 805 653 796
f 96 209 211
f 96 211 664
f 624 682 699
f 557 579 806
f 614 557 806
f 248 600 487
f 772 201 413
f 772 413 416
f 470 225 471
f 600 599 487
f 688 646 333
f 807 808 621
f 808 809 621
f 88 346 637
f 346 538 637
f 469 471 364
f 469 364 366
f 133 784 454
f 764 502 529
f 43 582 41
f 541 810 761
f 761 331 314
f 811 422 257
f 704 277 49
f 277 377 49
f 464 465 780
f 465 781 780
f 708 524 16
f 524 523 16
f 360 812 270
f 437 813 479
f 171 335 170
f 577 624 812
f 814 815 727
f 297 296 604
f 793 804 692
f 503 397 673
f 273 192 645
f 645 746 273
f 720 662 668
f 662 800 668
f 615 204 266
f 267 816 522
f 196 697 411
f 581 370 599
f 370 611 599
f 180 85 178
f 139 317 64
f 108 110 817
f 110 684 817
f 570 544 191
f 787 758 477
f 818 756 788
f 756 787 788
f 646 688 19
f 228 227 627
f 227 120 627
f 266 204 267
f 644 741 659
f 758 757 819
f 93 57 203
f 448 480 310
f 157 821 820
f 676 314 331
f 332 761 810
f 36 38 314
f 163 315 676
f 330 823 822
f 823 330 329
f 62 561 55
f 62 822 561
f 822 81 330
f 81 822 62
f 755 697 359
f 824 825 765
f 825 304 765
f 406 826 718
f 199 158 160
f 316 827 36
f 759 639 638
f 185 297 186
f 103 237 591
f 336 278 337
f 805 407 653
f 407 127 653
f 579 492 524
f 505 738 535
f 828 829 539
f 217 738 505
f 829 738 216
f 216 539 829
f 142 483 803
f 483 714 803
f 714 6 803
f 6 5 803
f 300 194 301
f 780 494 464
f 512 30 205
f 157 820 241
f 486 15 17
f 766 767 797
f 692 694 793
f 372 400 695
f 333 150 149
f 821 488 820
f 182 789 764
f 830 584 831
f 584 832 831
f 249 248 489
f 487 489 248
f 248 247 41
f 400 399 695
f 735 48 290
f 105 288 729
f 288 328 729
f 25 27 657
f 27 658 657
f 758 819 477
f 833 773 516
f 55 717 61
f 724 260 262
f 795 243 338
f 580 661 418
f 663 53 706
f 623 834 9
f 196 8 613
f 595 238 394
f 529 239 238
f 139 141 543
f 273 408 192
f 574 555 659
f 830 835 584
f 835 559 584
f 784 558 675
f 674 558 662
f 454 784 455
f 784 675 455
f 674 662 455
f 662 779 455
f 836 435 434
f 836 434 594
f 435 836 784
f 836 594 784
f 748 213 747
f 213 212 747
f 542 444 747
f 765 303 747
f 90 672 705
f 790 617 619
f 190 533 415
f 722 270 624
f 270 722 692
f 807 837 838
f 427 399 373
f 839 814 827
f 676 331 332
f 676 332 151
f 302 689 300
f 689 690 300
f 300 192 194
f 805 840 407
f 680 123 171
f 730 202 420
f 420 106 730
f 797 517 516
f 184 337 185
f 841 831 387
f 798 257 256
f 592 707 354
f 691 113 626
f 113 252 626
f 435 842 832
f 842 831 832
f 353 753 752
f 643 521 520
f 472 363 159
f 252 113 736
f 800 559 835
f 467 684 683
f 817 684 458
f 458 386 387
f 684 467 458
f 777 342 666
f 310 480 311
f 350 292 186
f 270 812 624
f 688 333 40
f 774 773 833
f 67 843 3
f 123 243 253
f 510 104 325
f 442 245 122
f 393 395 511
f 573 555 574
f 665 553 666
f 553 552 666
f 32 672 671
f 805 796 645
f 844 845 835
f 845 846 835
f 847 845 844
f 135 842 435
f 588 123 680
f 747 444 765
f 444 540 765
f 410 176 175
f 124 549 125
f 549 848 125
f 682 461 699
f 506 356 417
f 156 390 593
f 547 583 445
f 665 849 553
f 817 387 831
f 672 610 705
f 18 705 510
f 705 610 510
f 750 850 232
f 850 851 232
f 393 790 619
f 618 393 619
f 131 361 360
f 852 788 572
f 788 853 572
f 788 695 853
f 572 853 399
f 853 695 399
f 251 294 626
f 270 269 132
f 503 673 768
f 17 188 783
f 783 188 775
f 485 612 673
f 612 768 673
f 83 854 726
f 30 512 284
f 402 183 595
f 595 183 182
f 811 855 422
f 404 422 855
f 404 855 402
f 855 183 402
f 852 572 856
f 349 424 292
f 802 147 603
f 420 766 106
f 698 700 711
f 700 857 711
f 388 386 44
f 743 792 447
f 291 858 298
f 754 11 287
f 11 327 287
f 105 729 106
f 396 398 484
f 67 819 843
f 819 757 843
f 706 604 320
f 604 296 320
f 584 436 832
f 859 860 45
f 860 339 45
f 538 634 637
f 102 457 527
f 486 783 485
f 486 138 15
f 56 99 702
f 162 299 861
f 299 858 861
f 338 813 437
f 827 814 76
f 567 553 849
f 419 255 849
f 567 849 255
f 699 461 460
f 550 406 718
f 862 863 599
f 128 689 837
f 597 275 598
f 275 746 598
f 208 682 625
f 345 206 625
f 206 208 625
f 202 730 729
f 328 10 729
f 749 850 750
f 864 322 658
f 478 865 701
f 760 3 843
f 579 524 708
f 866 718 839
f 98 702 99
f 156 596 598
f 718 826 839
f 472 159 158
f 845 847 867
f 656 825 824
f 545 726 701
f 856 860 868
f 78 814 727
f 743 447 669
f 447 215 669
f 633 632 654
f 43 369 582
f 488 821 679
f 253 171 123
f 441 543 869
f 543 141 869
f 11 359 263
f 359 11 755
f 729 10 202
f 754 755 11
f 711 710 641
f 710 597 641
f 701 726 476
f 841 847 831
f 847 844 831
f 453 297 604
f 870 623 138
f 313 791 871
f 791 790 871
f 155 357 401
f 838 348 808
f 138 484 870
f 56 702 203
f 702 732 203
f 621 809 391
f 494 780 466
f 719 412 431
f 23 274 24
f 272 597 596
f 826 406 186
f 268 179 269
f 403 402 618
f 172 403 617
f 403 618 617
f 785 786 715
f 785 715 44
f 777 786 342
f 786 340 342
f 797 767 517
f 701 865 366
f 516 646 833
f 447 776 154
f 359 870 398
f 603 651 802
f 778 666 872
f 666 639 872
f 873 715 786
f 838 837 689
f 852 818 788
f 194 193 691
f 691 626 194
f 442 444 245
f 260 724 602
f 536 70 602
f 70 874 602
f 542 875 867
f 875 845 867
f 876 352 874
f 352 620 874
f 561 822 801
f 822 877 801
f 758 787 756
f 212 493 875
f 493 845 875
f 668 846 493
f 846 845 493
f 348 302 770
f 302 537 770
f 506 507 356
f 160 356 507
f 659 281 644
f 67 771 819
f 821 593 679
f 593 498 679
f 308 307 284
f 307 878 284
f 38 761 314
f 763 879 556
f 880 521 555
f 521 643 555
f 300 840 192
f 767 566 517
f 452 495 587
f 635 367 368
f 500 229 228
f 593 821 157
f 566 520 517
f 642 520 565
f 565 520 566
f 760 843 759
f 509 179 268
f 252 736 735
f 87 881 27
f 881 658 27
f 97 457 385
f 240 221 601
f 500 228 515
f 575 782 882
f 782 285 882
f 576 882 883
f 882 878 883
f 576 575 882
f 177 555 573
f 554 446 555
f 446 880 555
f 554 177 176
f 884 19 18
f 591 409 531
f 140 139 64
f 822 823 877
f 885 886 887
f 886 756 887
f 886 885 888
f 885 872 888
f 778 872 885
f 885 889 778
f 777 778 786
f 778 873 786
f 86 33 671
f 162 861 163
f 861 315 163
f 721 165 890
f 561 801 101
f 43 42 96
f 489 488 679
f 679 498 678
f 808 347 809
f 347 391 809
f 807 838 808
f 32 671 33
f 751 431 412
f 79 632 78
f 452 129 495
f 129 586 495
f 850 749 495
f 749 496 495
f 656 848 549
f 866 291 718
f 298 858 299
f 291 298 290
f 289 713 291
f 180 179 509
f 299 250 290
f 356 401 357
f 117 533 530
f 533 891 530
f 122 891 533
f 122 519 891
f 530 891 519
f 415 533 4
f 533 117 4
f 549 425 656
f 788 696 695
f 426 892 488
f 577 392 624
f 893 740 739
f 181 183 855
f 370 581 582
f 34 35 599
f 599 863 487
f 599 35 894
f 35 25 894
f 728 894 25
f 886 757 756
f 329 877 823
f 757 886 888
f 782 781 895
f 126 125 466
f 843 757 759
f 757 888 759
f 97 871 790
f 172 648 473
f 648 450 473
f 755 789 697
f 896 379 897
f 358 898 712
f 723 112 22
f 756 899 887
f 862 599 894
f 781 31 895
f 818 899 756
f 899 818 856
f 818 852 856
f 710 709 274
f 709 24 274
f 741 281 738
f 281 644 535
f 281 535 738
f 76 814 78
f 862 894 900
f 894 728 900
f 124 126 548
f 126 575 548
f 479 813 311
f 302 348 689
f 344 14 354
f 565 792 642
f 795 92 254
f 795 254 243
f 795 338 437
f 437 376 375
f 375 795 437
f 884 774 833
f 576 883 219
f 61 717 560
f 83 445 84
f 590 813 338
f 828 539 813
f 202 12 263
f 870 834 623
f 9 834 613
f 167 137 901
f 587 390 389
f 645 796 389
f 172 617 648
f 617 791 648
f 1 3 451
f 810 877 332
f 902 481 276
f 133 903 490
f 649 801 513
f 801 904 513
f 513 904 541
f 801 877 904
f 541 904 810
f 904 877 810
f 905 329 332
f 802 623 9
f 623 802 897
f 896 897 802
f 224 585 621
f 585 906 621
f 678 498 749
f 733 249 749
f 249 678 749
f 474 473 450
f 450 451 474
f 634 367 635
f 487 862 900
f 896 802 651
f 866 839 861
f 839 827 861
f 491 525 492
f 525 524 492
f 295 294 670
f 851 850 495
f 739 738 829
f 181 411 182
f 531 325 104
f 224 226 585
f 112 723 113
f 723 736 113
f 186 815 826
f 815 814 826
f 814 839 826
f 647 724 770
f 111 691 193
f 776 898 358
f 567 422 421
f 740 175 177
f 556 879 178
f 231 230 737
f 618 595 394
f 595 618 402
f 393 511 97
f 790 393 97
f 130 132 269
f 838 689 348
f 625 392 345
f 481 562 629
f 907 472 158
f 398 870 484
f 486 17 783
f 897 167 901
f 830 831 844
f 830 844 835
f 846 668 800
f 846 800 835
f 542 867 246
f 682 208 461
f 650 461 208
f 650 459 461
f 447 792 898
f 851 495 586
f 181 198 411
f 595 764 529
f 646 799 333
f 429 615 266
f 273 746 275
f 536 602 724
f 683 110 380
f 104 369 102
f 482 74 723
f 734 736 74
f 736 723 74
f 366 865 478
f 286 288 908
f 326 908 288
f 326 286 908
f 355 467 769
f 807 621 837
f 621 906 837
f 837 906 585
f 128 837 129
f 837 585 129
f 651 381 379
f 431 751 433
f 751 504 433
f 641 794 711
f 794 694 711
f 889 873 778
f 857 700 909
f 459 7 460
f 7 909 460
f 909 700 460
f 700 699 460
f 326 910 324
f 551 774 326
f 774 910 326
f 866 861 291
f 861 858 291
f 335 911 410
f 108 817 842
f 817 831 842
f 55 57 717
f 114 655 323
f 543 441 440
f 782 895 285
f 323 655 654
f 125 20 71
f 883 878 307
f 551 105 774
f 105 107 774
f 102 527 511
f 435 832 436
f 501 789 755
f 411 697 789
f 764 789 502
f 789 501 502
f 153 191 295
f 79 654 632
f 21 125 656
f 246 46 244
f 440 630 543
f 543 116 317
f 116 543 630
f 447 898 776
f 693 692 699
f 692 722 699
f 145 143 562
f 629 562 143
f 333 799 150
f 150 799 446
f 75 636 635
f 370 582 369
f 88 881 87
f 859 45 868
f 45 716 868
f 887 889 885
f 341 340 386
f 739 741 738
f 175 740 912
f 31 285 895
f 39 634 538
f 334 279 148
f 253 279 334
f 148 911 335
f 149 148 280
f 148 279 280
f 150 911 148
f 911 150 176
f 911 176 410
f 667 913 364
f 667 571 913
f 365 364 913
f 690 407 840
f 719 431 506
f 430 506 431
f 871 97 80
f 681 372 82
f 212 875 747
f 542 747 875
f 692 268 270
f 475 638 578
f 585 293 586
f 293 851 586
f 640 597 272
f 547 445 545
f 526 658 322
f 570 647 770
f 197 147 196
f 329 151 332
f 528 529 287
f 529 502 287
f 841 721 847
f 890 847 721
f 743 642 792
f 147 8 196
f 379 378 168
f 896 651 379
f 168 167 379
f 167 897 379
f 109 135 616
f 616 136 168
f 136 614 168
f 272 794 641
f 763 130 269
f 763 269 879
f 269 179 879
f 763 556 685
f 685 556 526
f 83 696 854
f 631 307 305
f 307 631 883
f 631 633 883
f 633 219 883
f 663 706 320
f 155 401 119
f 625 624 392
f 605 465 869
f 441 869 465
f 869 141 914
f 58 914 140
f 914 141 140
f 605 869 607
f 869 914 607
f 58 607 914
f 892 241 820
f 371 892 426
f 593 497 498
f 593 390 497
f 165 166 890
f 246 867 166
f 867 847 166
f 890 166 847
f 323 654 79
f 571 731 913
f 365 913 731
f 861 827 316
f 314 316 36
f 871 80 313
f 282 577 915
f 602 874 601
f 240 601 620
f 601 874 620
f 69 318 70
f 318 874 70
f 318 69 61
f 876 318 352
f 318 319 352
f 876 874 318
f 878 882 285
f 878 285 284
f 488 892 820
f 892 371 241
f 163 677 670
f 677 295 670
f 153 295 677
f 677 151 153
f 151 677 676
f 637 634 635
f 108 842 135
f 282 915 283
f 282 13 345
f 683 380 467
f 467 380 769
f 355 769 603
f 226 230 585
f 230 293 585
f 77 78 632
f 133 454 903
f 769 380 381
f 267 204 816
f 36 827 76
f 804 793 509
f 804 509 268
f 584 559 434
f 491 490 916
f 490 903 916
f 491 916 752
f 629 752 916
f 917 456 481
f 917 481 629
f 454 456 903
f 456 917 903
f 917 916 903
f 629 916 917
f 712 792 258
f 712 898 792
f 771 478 819
f 478 477 819
f 357 776 358
f 10 12 202
f 207 354 353
f 106 766 107
f 579 708 806
f 614 806 708
f 219 655 114
f 75 322 864
f 864 658 881
f 206 354 207
f 650 652 508
f 650 208 652
f 208 207 652
f 481 902 145
f 210 247 744
f 247 733 744
f 799 521 880
f 446 799 880
f 862 487 863
f 47 377 550
f 918 812 360
f 812 918 577
f 918 360 362
f 472 907 362
f 907 918 362
f 907 915 918
f 915 577 918
f 283 915 907
f 907 158 283
f 919 5 652
f 5 508 652
f 919 652 629
f 5 919 803
f 143 803 919
f 629 143 919
f 897 901 623
f 623 901 138
f 138 901 137
f 244 122 245
f 309 216 310
f 707 592 523
f 178 879 179
f 516 773 797
f 884 910 774
f 18 910 884
f 325 324 910
f 910 18 325
f 198 196 411
f 15 920 16
f 169 16 167
f 16 920 167
f 137 167 920
f 137 920 15
f 410 170 335
f 192 840 645
f 805 645 840
f 300 690 840
f 389 156 645
f 546 545 366
f 546 366 365
f 921 873 868
f 873 889 868
f 716 715 868
f 715 921 868
f 572 518 856
f 518 860 856
f 715 873 921
f 868 889 899
f 889 887 899
f 856 868 899
f 353 707 753
f 707 523 525
f 592 354 14
f 681 82 63
f 232 851 293
f 750 232 744
f 232 922 744
f 232 231 922
f 762 660 745
f 745 744 762
f 744 922 762
f 922 231 762
f 749 744 733
f 368 91 164
f 644 281 535
f 732 522 816
f 732 816 204
f 606 522 702
f 522 732 702
f 315 861 316
f 788 476 696
f 476 726 696
f 854 696 726
f 366 771 66
f 366 478 771
f 312 80 343
f 450 312 343
f 387 388 841
f 388 721 841
f 458 387 817
f 347 808 348
f 570 770 537
f 905 332 877
f 88 637 881
f 637 636 881
f 824 384 21
f 419 849 923
f 665 923 849
f 419 923 355
f 355 923 458
f 665 342 923
f 342 341 923
f 923 341 458
f 824 21 656
f 825 425 424
f 825 656 425
f 538 187 40
f 864 636 75
f 864 881 636
f 19 40 187
f 648 313 312
f 648 791 313
f 195 63 924
f 588 680 589
f 828 813 589
f 813 590 589
f 588 590 242
f 590 338 242
f 309 311 539
f 813 539 311
f 25 657 703
f 872 639 759
f 872 759 888
f 66 2 608
f 66 608 470
f 469 66 470
f 225 470 226
f 470 925 226
f 226 925 230
f 470 608 925
f 608 737 925
f 737 230 925
f 425 549 220
f 548 220 549
f 384 824 540
f 824 765 540
f 424 304 825
f 115 727 815
f 740 177 573
f 893 739 828
f 739 829 828
f 828 589 893
f 912 740 893
f 893 589 912
f 589 680 912
f 912 410 175
f 410 912 680
f 573 574 742
f 573 742 740
f 100 29 605
f 83 545 445
f 82 696 83
f 63 82 924
f 82 84 924
f 195 924 429
f 429 924 445
f 84 445 924
f 160 628 532
f 120 532 628
f 160 532 401
f 121 532 120
f 811 198 855
f 198 181 855
f 811 257 198
f 257 798 198
f 197 603 147
f 197 798 603
f 798 256 603
f 125 848 656
f 613 834 359
f 359 834 870
f 466 780 126
f 780 782 126
f 575 126 782
f 125 21 20
f 72 494 71
f 466 71 494
f 415 72 190
f 46 165 44
f 428 60 195
f 698 694 699
f 694 693 699
f 926 556 178
f 614 169 168
f 194 626 191
f 860 518 339
f 859 868 860
f 728 703 900
f 703 926 900
f 900 426 487
f 926 703 556
f 900 927 426
f 884 833 19
f 19 833 646
f 709 711 6
f 711 857 6
f 7 857 909
f 7 6 857
f 902 277 144
f 276 277 902
f 145 902 144
f 927 926 178
f 900 926 927
f 927 178 371
f 927 371 426
f 210 209 247
f 685 526 514
f 785 386 340
f 259 566 201
f 115 815 186
f 905 877 329
f 334 148 335
f 51 213 52
f 213 748 52
f 85 241 371
