v 0.302049 0.087248 -0.111469
v 0.274532 -0.069110 -0.190263
v 0.275549 -0.101520 -0.179688
v 0.231291 -0.102960 -0.180067
v 0.407198 0.033300 -0.160342
v 0.362498 -0.028863 0.195682
v 0.399953 -0.036621 0.170957
v 0.360560 -0.025564 0.197551
v 0.394353 0.005454 0.182236
v -0.183125 0.028080 -0.105176
v -0.174929 0.019095 -0.139980
v -0.200680 0.020407 -0.132217
v 0.046484 0.003788 -0.166477
v 0.069047 0.124747 0.037583
v 0.079833 0.116541 0.079434
v 0.108378 0.127142 0.047148
v 0.110699 0.123019 0.063479
v -0.001028 0.002450 -0.169833
v -0.025169 -0.026589 -0.193143
v -0.037046 -0.009319 -0.185519
v 0.382126 -0.108821 0.089944
v 0.338408 -0.109587 0.065541
v 0.387434 -0.107596 0.061073
v -0.386612 0.027057 0.000305
v -0.409986 0.017709 -0.016783
v -0.411126 0.018155 0.000302
v 0.085501 -0.028903 0.183592
v 0.135416 -0.022304 0.184670
v 0.118587 0.011003 0.171674
v 0.178957 0.020167 -0.185699
v 0.169127 0.031580 -0.158169
v 0.195270 0.047387 -0.135684
v 0.146993 -0.007005 -0.184790
v 0.176235 -0.023681 -0.194646
v 0.160446 -0.049912 -0.192172
v 0.415995 -0.097007 0.076811
v 0.422507 -0.096820 0.048503
v -0.377086 0.004867 -0.114414
v -0.388910 -0.029422 -0.127508
v -0.386083 0.008372 -0.098199
v -0.252346 -0.129853 0.000296
v -0.202687 -0.129524 0.000290
v -0.046929 0.011555 -0.142241
v -0.073308 0.016227 -0.132748
v -0.045317 0.021997 -0.111293
v 0.270856 0.089417 -0.111372
v 0.270858 0.092172 -0.100136
v 0.435572 0.044648 0.095968
v 0.437612 0.049805 0.073099
v 0.402773 0.051326 0.111625
v 0.006756 -0.076674 -0.193593
v 0.017410 -0.029853 -0.189400
v -0.021781 -0.029969 -0.194129
v -0.153027 -0.129196 0.000283
v -0.118259 -0.132862 -0.059773
v -0.105779 -0.127317 0.000273
v -0.397880 -0.033966 0.119034
v -0.392356 -0.059684 0.130652
v -0.387604 -0.031972 0.128143
v 0.328903 0.074645 0.000059
v -0.057153 0.057437 0.063410
v -0.045332 0.021999 0.111248
v -0.016265 0.039420 0.111227
v -0.050114 -0.002044 -0.179335
v -0.048540 0.001113 -0.173190
v 0.420024 0.003754 0.154057
v 0.430333 -0.001393 0.128337
v 0.420917 0.011895 0.152002
v 0.429484 0.002575 0.130459
v -0.428859 -0.040339 -0.043176
v -0.428424 -0.043153 -0.057343
v -0.434393 -0.066726 -0.052384
v 0.365304 0.018540 -0.159963
v 0.378055 0.038416 -0.186012
v 0.376913 0.031400 -0.133003
v 0.397994 -0.059526 0.161357
v 0.395558 -0.054508 0.166940
v 0.393619 -0.059658 0.165671
v -0.422239 -0.019887 0.000304
v -0.415450 -0.091972 0.111721
v -0.420608 -0.094320 0.102844
v -0.415216 -0.123445 0.104702
v -0.196511 0.003619 -0.166069
v -0.238792 -0.000854 -0.162867
v -0.101874 0.040627 0.051339
v -0.084782 0.051939 0.038791
v -0.106326 0.041960 0.037008
v 0.344638 -0.109971 -0.089540
v 0.368278 -0.109585 -0.096840
v 0.345836 -0.108813 -0.067265
v 0.432610 0.037149 0.111631
v -0.243183 0.045666 0.000291
v -0.281197 0.039236 -0.045950
v -0.246247 0.038884 -0.056574
v 0.235481 0.104638 0.033393
v 0.270805 0.092600 0.040230
v 0.270773 0.091581 0.000068
v -0.391473 -0.023139 0.121503
v -0.314683 0.006623 -0.139491
v -0.313725 0.022930 -0.092828
v -0.270910 0.025618 -0.097442
v 0.221191 -0.004056 0.200396
v 0.224491 0.016669 0.199016
v 0.201470 0.002084 0.196799
v -0.055175 -0.095837 -0.191381
v -0.089879 -0.077455 -0.198342
v -0.056723 -0.079509 -0.196397
v 0.226202 0.107834 0.000077
v 0.201286 0.114673 -0.032921
v 0.187877 0.119888 0.000086
v -0.355804 -0.135700 0.147084
v -0.328834 -0.120828 0.169714
v -0.357016 -0.121685 0.158371
v 0.135441 -0.022308 -0.184688
v 0.272451 0.002162 0.199703
v 0.271321 0.042851 0.197541
v 0.246595 0.041443 0.195661
v 0.154542 0.042499 0.130338
v 0.113833 0.037608 0.125004
v -0.063340 0.063636 -0.041761
v -0.072976 0.068013 0.000164
v -0.046309 0.073723 -0.044737
v 0.439145 0.053484 0.000090
v 0.438851 0.044860 0.000091
v -0.202723 0.046870 0.000275
v -0.209082 0.040774 0.050300
v -0.213501 0.040919 0.049428
v -0.386097 0.008374 0.098107
v -0.377102 0.004870 0.114324
v 0.430798 -0.006328 0.125010
v 0.432245 -0.043215 0.102444
v 0.431468 -0.001462 0.123888
v 0.435953 -0.020272 0.095164
v -0.433524 -0.075323 -0.068193
v -0.422474 -0.049688 -0.089889
v -0.422159 -0.066153 -0.097956
v -0.237647 0.039148 -0.056869
v 0.177008 0.113329 0.083124
v 0.146899 0.098428 0.111236
v 0.188213 0.095425 0.111280
v 0.194370 0.117322 0.038302
v 0.211426 0.111314 0.054134
v 0.233810 0.105204 0.034617
v -0.418807 -0.030830 -0.081754
v -0.413277 -0.035068 -0.098603
v 0.195252 0.047390 0.135673
v 0.217858 0.036802 0.190949
v 0.241854 0.050962 0.140406
v 0.272479 0.002158 -0.199703
v 0.273524 -0.034856 -0.197106
v 0.436878 -0.033305 0.074226
v 0.430874 -0.061798 0.086121
v 0.435793 -0.048933 0.047725
v 0.432706 -0.065569 0.053914
v 0.393161 0.036145 0.175316
v 0.346789 0.039531 0.184960
v 0.378029 0.038420 0.186025
v 0.400420 -0.097481 0.113125
v 0.413991 -0.078019 0.120481
v 0.386328 -0.097922 0.133123
v -0.077043 0.032834 0.086598
v 0.142750 -0.105835 0.180809
v 0.165891 -0.120998 0.148493
v 0.187008 -0.104396 0.180436
v -0.016251 0.039419 -0.111268
v -0.030097 0.056077 -0.092027
v 0.012816 0.056840 -0.111242
v 0.006729 -0.076669 0.193557
v -0.025011 -0.078087 0.194956
v -0.015617 -0.110939 0.185037
v -0.228096 0.028305 -0.102055
v -0.241782 -0.075452 0.189116
v -0.243702 -0.049001 0.184508
v -0.285982 -0.058047 0.176168
v -0.286127 -0.055115 0.175390
v -0.134766 0.040310 0.034728
v -0.135087 0.040224 0.035397
v 0.271412 0.047334 -0.169739
v 0.314132 0.044440 -0.168271
v 0.305867 0.043035 -0.199360
v 0.410611 0.004764 -0.132097
v 0.417716 0.005204 -0.126969
v 0.417556 0.004110 -0.126718
v -0.001051 0.002454 0.169795
v 0.271151 0.073025 -0.130698
v 0.270945 0.083212 -0.120855
v 0.082855 -0.024724 -0.182376
v 0.078835 0.006055 -0.166211
v -0.086799 0.003236 0.171732
v -0.091751 0.024928 0.109743
v -0.125034 0.005357 0.170318
v -0.111601 0.033451 -0.079059
v -0.091735 0.024926 -0.109795
v -0.138154 0.027855 -0.108296
v -0.055012 -0.028500 0.195565
v 0.400417 0.028771 -0.134804
v 0.393186 0.036141 -0.175300
v -0.415808 -0.132162 -0.075143
v -0.430418 -0.123946 -0.068784
v -0.425233 -0.123772 -0.083841
v -0.055202 -0.095833 0.191338
v -0.053653 -0.112161 0.186322
v 0.146915 0.098425 -0.111255
v 0.172724 0.118009 -0.062264
v 0.188229 0.095422 -0.111294
v -0.290429 -0.011961 -0.158108
v -0.285249 -0.062095 -0.178588
v -0.255032 -0.039185 -0.179667
v -0.151035 -0.026801 0.190203
v -0.120578 -0.030997 0.193590
v 0.305839 0.043039 0.199364
v 0.346249 0.039655 0.184927
v 0.294347 0.049073 0.140169
v -0.183141 0.028082 0.105111
v -0.228111 0.028308 0.101985
v -0.056588 -0.052705 0.198753
v -0.013229 -0.029730 0.193501
v -0.028156 -0.024024 0.192671
v -0.409936 -0.031867 0.100774
v -0.409064 -0.066776 0.115543
v -0.419448 -0.045029 0.092907
v -0.265526 -0.005606 -0.160543
v 0.032413 0.027826 0.114335
v -0.014990 0.023530 0.111252
v -0.362454 0.016737 0.085878
v -0.163965 -0.059908 0.197452
v -0.163093 -0.061364 0.197751
v -0.162243 -0.060570 0.197794
v -0.269782 -0.142397 0.120878
v -0.289121 -0.142569 0.113668
v -0.264498 -0.142144 0.117652
v 0.365650 0.067591 0.000069
v 0.362142 0.040180 0.193148
v 0.362171 0.017196 0.197138
v -0.111988 -0.133448 -0.066258
v -0.121534 -0.133742 -0.066566
v -0.359490 0.034066 0.000309
v -0.349042 0.031418 -0.043199
v -0.349428 0.031361 -0.042984
v -0.263228 -0.118799 0.183837
v -0.297288 -0.119857 0.178070
v 0.098492 -0.107275 0.181182
v 0.324586 -0.109117 0.059692
v 0.327143 -0.109432 0.063780
v 0.275189 -0.106647 0.067106
v 0.195454 0.029286 -0.187212
v 0.435129 -0.014294 0.000067
v 0.435169 -0.046414 0.035824
v -0.437513 -0.086083 -0.055145
v -0.435984 -0.124142 -0.044471
v -0.436107 -0.090754 0.000307
v -0.425012 -0.030018 -0.054088
v -0.426186 -0.031122 -0.044697
v -0.406636 0.016397 -0.036861
v -0.154565 -0.140177 -0.127499
v -0.171012 -0.140558 -0.139616
v -0.149765 -0.139792 -0.140190
v 0.422513 -0.096821 -0.048343
v 0.270811 0.092600 -0.040143
v 0.146693 -0.125367 -0.110649
v 0.177036 -0.121588 -0.107339
v 0.155796 -0.121818 -0.081686
v -0.283643 0.044463 0.000307
v -0.320962 -0.136816 -0.057289
v -0.302006 -0.130181 0.000303
v -0.337374 -0.129208 0.000305
v 0.075578 0.115416 0.079528
v 0.080259 0.114085 0.084388
v 0.146967 -0.007001 0.184774
v 0.165769 0.010529 0.185280
v 0.148759 0.015586 0.178680
v 0.354051 -0.029932 -0.176159
v 0.348305 -0.011110 -0.180650
v 0.374964 -0.051727 -0.160955
v 0.371447 -0.042367 -0.163551
v -0.290451 -0.011957 0.158031
v -0.312949 -0.020079 0.155514
v 0.229542 0.092420 -0.111333
v 0.154560 0.042496 -0.130355
v -0.436840 -0.089413 -0.062447
v 0.195428 0.029290 0.187201
v 0.178931 0.020170 0.185686
v -0.292164 -0.060431 -0.175696
v -0.415773 -0.053452 -0.104716
v -0.014975 0.023527 -0.111293
v 0.032429 0.027824 -0.114369
v 0.342563 0.038263 -0.134632
v 0.438558 0.036237 0.000091
v 0.001025 -0.131756 0.152925
v 0.001473 -0.131708 0.153049
v 0.001474 -0.131667 0.153235
v 0.165795 0.010525 -0.185295
v 0.407175 0.033303 0.160360
v -0.295220 0.039261 -0.038757
v -0.330274 0.039359 0.000310
v 0.241874 0.050960 -0.140411
v 0.164766 -0.117357 -0.047990
v 0.190330 -0.115906 -0.058553
v 0.176649 -0.115727 -0.039175
v -0.035566 0.005045 -0.164300
v 0.041883 0.074261 -0.111217
v -0.277254 -0.136540 0.065598
v -0.266460 -0.135428 0.058544
v -0.270277 -0.136602 0.067624
v 0.118610 0.010999 -0.171696
v -0.312928 -0.020082 -0.155595
v -0.330092 -0.028705 -0.153321
v -0.110212 0.043073 0.000168
v -0.134771 0.040328 0.034554
v -0.109181 0.042795 0.020079
v 0.388395 -0.099356 0.000103
v 0.424560 -0.096767 0.033148
v 0.200009 -0.017415 -0.198338
v 0.211702 -0.031691 -0.199895
v 0.170749 -0.044963 -0.193757
v 0.328303 0.042605 -0.170476
v 0.406852 -0.049820 -0.130574
v 0.402694 -0.033441 -0.136446
v 0.382924 -0.016430 -0.152309
v 0.012801 0.056842 0.111206
v -0.368417 -0.135661 0.140023
v 0.294367 0.049070 -0.140167
v 0.339687 0.078403 -0.111557
v -0.015591 -0.110944 -0.185075
v 0.022445 -0.109722 -0.183784
v -0.101866 0.040626 -0.051086
v -0.106320 0.041960 -0.036712
v 0.380147 0.002933 -0.152215
v 0.060481 -0.108500 -0.182494
v 0.038080 -0.128863 -0.161163
v -0.169041 0.040117 0.048254
v -0.176458 0.043899 0.025408
v -0.204349 0.039951 0.054685
v -0.257384 0.016211 0.128103
v -0.238814 -0.000851 0.162796
v -0.380559 -0.106677 0.143865
v -0.394191 -0.078890 0.132086
v -0.392341 -0.122739 0.133876
v -0.159194 0.019873 -0.139004
v -0.145521 0.019307 -0.140853
v 0.289079 0.072101 -0.126529
v 0.275280 -0.106371 0.100579
v 0.408253 0.063344 -0.031817
v 0.402398 0.060538 0.000080
v 0.438791 0.052717 -0.041455
v -0.271853 0.012214 -0.134628
v 0.016427 0.112749 0.000144
v 0.313081 -0.068603 -0.188105
v 0.302719 -0.100626 -0.177746
v 0.406367 -0.097298 0.101853
v 0.148784 0.015583 -0.178698
v 0.438644 -0.015049 0.056764
v 0.437964 -0.004593 0.034295
v 0.271345 0.061639 0.138518
v 0.258222 0.069102 0.132892
v 0.209519 0.111558 -0.043366
v 0.210648 0.106460 -0.076855
v 0.180926 0.117612 -0.054212
v 0.178350 0.116532 -0.063288
v 0.275524 -0.101516 0.179691
v 0.275402 -0.103943 0.140135
v -0.077030 0.032832 -0.086537
v 0.275294 -0.106373 -0.100466
v 0.275421 -0.103946 -0.140077
v -0.380983 -0.122401 0.143643
v -0.046948 0.011558 0.142197
v -0.048564 0.001116 0.173146
v 0.430660 -0.055517 0.000076
v 0.433703 -0.060576 0.040254
v 0.327749 -0.108996 0.057352
v 0.275098 -0.106924 0.033632
v 0.312803 -0.104585 0.000140
v -0.406127 -0.126263 0.000308
v -0.372742 -0.128235 0.000308
v -0.089101 0.036685 0.073748
v -0.199400 0.041049 -0.049234
v -0.018522 -0.023997 0.191527
v -0.407001 -0.123186 0.117166
v -0.261099 -0.142407 -0.133347
v -0.281115 -0.143252 -0.121883
v -0.254487 -0.139279 -0.161142
v -0.276172 -0.139883 -0.156499
v -0.430457 -0.056071 0.000305
v 0.271389 0.047338 0.169738
v -0.378370 -0.092351 0.144447
v -0.409988 0.017709 0.017279
v -0.405669 -0.133534 0.047584
v -0.365644 -0.138754 0.067712
v 0.424314 -0.015735 0.142524
v 0.428088 -0.038643 0.122474
v -0.064710 -0.016415 0.191176
v -0.070962 -0.015465 0.190823
v -0.096056 0.038850 0.063457
v 0.295925 0.083129 0.000063
v 0.405728 -0.049514 0.159330
v -0.417156 -0.018172 -0.067467
v -0.401155 0.014254 -0.058651
v -0.393622 0.011312 -0.080873
v 0.436843 0.010972 0.000079
v 0.116095 -0.074260 -0.187538
v 0.118385 -0.077603 -0.187202
v 0.098517 -0.107279 -0.181204
v 0.231676 -0.112358 -0.082867
v 0.209843 -0.115071 -0.077397
v 0.232149 -0.112768 -0.095850
v 0.329557 0.042364 0.199273
v 0.187033 -0.104400 -0.180446
v 0.060456 -0.108496 0.182467
v 0.022419 -0.109718 0.183752
v 0.227198 -0.110096 0.000176
v 0.275103 -0.106924 -0.033383
v 0.275007 -0.107200 0.000159
v -0.356994 -0.121689 -0.158455
v -0.379272 -0.135142 -0.133130
v -0.380963 -0.122404 -0.143731
v -0.053627 -0.112165 -0.186365
v -0.425245 -0.123770 0.084103
v -0.432037 -0.102188 0.079230
v 0.372936 0.065503 0.111618
v -0.140229 -0.033039 -0.193400
v -0.121919 -0.063198 -0.199649
v -0.157115 -0.068038 -0.198893
v -0.396605 -0.032993 -0.121006
v -0.172627 -0.115958 -0.189594
v -0.200052 -0.116821 -0.188536
v -0.215898 -0.045619 0.188990
v -0.215028 -0.076151 0.193465
v -0.202149 -0.051097 0.191987
v -0.195780 -0.083106 0.195627
v -0.172653 -0.115954 0.189534
v -0.161813 -0.061108 0.197858
v 0.308618 -0.034253 -0.193641
v 0.312644 -0.066647 -0.188641
v 0.075177 -0.129187 0.101347
v 0.073155 -0.127803 0.086469
v 0.082336 -0.127318 0.087052
v -0.160761 0.004486 -0.168221
v -0.158270 0.015420 -0.148472
v 0.342545 0.038266 0.134641
v 0.346461 0.039609 0.184731
v 0.376895 0.031403 0.133016
v 0.379218 0.013529 0.190835
v 0.244859 -0.080476 0.189787
v 0.274506 -0.069106 0.190265
v -0.056561 -0.052709 -0.198798
v 0.365805 0.070598 -0.019835
v 0.354524 0.077175 -0.044679
v 0.029080 0.107867 -0.064484
v -0.398566 -0.133582 -0.046513
v -0.156468 0.044971 0.000221
v -0.263202 -0.118803 -0.183909
v -0.290048 -0.071118 -0.178169
v -0.240083 0.041010 0.045535
v -0.256525 0.041581 0.039914
v -0.258109 0.041253 0.041999
v 0.313634 -0.109501 0.131761
v 0.323932 -0.110154 0.127334
v 0.318561 -0.109517 0.135436
v 0.142775 -0.105839 -0.180825
v 0.073123 0.032717 0.119669
v 0.078812 0.006058 0.166184
v -0.392322 -0.122741 -0.133945
v -0.265548 -0.005602 0.160469
v -0.082607 0.056579 -0.026710
v 0.353563 0.080078 -0.068090
v 0.380058 0.072970 -0.081390
v 0.372951 0.065501 -0.111606
v -0.428614 -0.095843 -0.089664
v 0.035791 0.116282 0.041474
v 0.019075 0.111729 0.033470
v 0.022247 0.110505 0.047141
v -0.211265 0.039576 0.056598
v -0.212075 0.040190 0.053375
v 0.329584 0.042360 -0.199266
v 0.345891 0.041473 -0.197334
v -0.423059 -0.077513 0.095916
v -0.431864 -0.080510 0.078246
v -0.401163 0.014255 0.058667
v -0.417229 -0.014061 0.064711
v -0.407321 -0.003775 0.080243
v -0.113036 -0.059846 0.199155
v -0.160912 -0.060348 0.197798
v -0.124742 -0.079387 0.198829
v 0.246945 -0.108878 0.031905
v 0.245916 -0.108980 0.033357
v 0.348382 -0.075021 -0.174916
v 0.351864 -0.074377 -0.173230
v 0.348931 -0.076962 -0.174207
v 0.335066 -0.009250 -0.190015
v 0.329434 -0.025566 -0.190097
v 0.081216 -0.122624 -0.166315
v 0.076756 -0.129562 -0.147850
v 0.059731 -0.125802 -0.163328
v -0.056856 0.057832 0.062917
v -0.057464 0.057577 0.062752
v -0.089091 0.036684 -0.073604
v 0.199081 0.104656 -0.086562
v -0.235395 -0.066315 -0.189968
v -0.209514 -0.048575 -0.190993
v -0.214378 -0.081557 -0.194269
v -0.164903 -0.138440 0.151360
v -0.189235 -0.134421 0.169432
v -0.181449 -0.140371 0.137330
v -0.200105 -0.140210 0.142594
v -0.138170 0.027857 0.108238
v -0.437734 -0.086750 0.046323
v -0.430428 -0.123944 0.069151
v 0.400398 0.028773 0.134821
v 0.270848 0.093618 -0.080355
v -0.203298 -0.038816 0.188829
v -0.185674 -0.140645 -0.118953
v -0.164770 -0.139151 -0.103943
v -0.384073 -0.136086 0.123956
v 0.337558 0.024444 -0.194726
v -0.366551 0.000762 0.128757
v -0.379619 -0.021999 0.131183
v 0.229527 0.092423 0.111325
v 0.101115 0.096984 0.111199
v 0.439506 0.034905 0.044230
v 0.124263 -0.122435 0.160303
v 0.137137 -0.120695 0.160349
v -0.093294 -0.113429 -0.187441
v -0.303123 -0.139925 -0.154216
v -0.320809 -0.140812 -0.148595
v -0.314474 -0.142520 -0.134477
v -0.330114 -0.028702 0.153238
v -0.334198 -0.062887 0.160802
v -0.325834 -0.062248 0.163658
v 0.412032 0.004981 0.165725
v -0.086776 0.003233 -0.171782
v -0.324547 -0.015567 -0.154690
v -0.198366 -0.140762 0.124975
v -0.201041 -0.140856 0.132431
v -0.210267 -0.141225 0.134634
v 0.396268 -0.066268 0.157709
v 0.390750 -0.066576 0.163641
v -0.056992 0.058041 0.062297
v -0.078688 0.057677 0.031321
v -0.305934 0.006826 -0.139695
v 0.401151 0.070491 0.062518
v -0.056750 -0.079505 0.196354
v 0.315413 -0.100211 -0.175355
v 0.315366 -0.106438 -0.155287
v 0.336216 -0.105949 -0.154780
v -0.238156 0.038559 -0.059834
v -0.196535 0.003623 0.166004
v 0.224320 -0.032101 0.199379
v 0.273497 -0.034851 0.197107
v -0.024983 -0.078091 -0.194995
v 0.369399 -0.098460 0.149662
v 0.342398 -0.109308 0.133732
v 0.336369 -0.106939 0.150595
v -0.239350 -0.136010 -0.063984
v 0.338967 -0.035449 -0.185027
v -0.357303 -0.088456 0.156336
v -0.355701 -0.087027 0.156847
v 0.066804 -0.028299 -0.183890
v 0.033768 -0.027728 -0.187159
v 0.439513 0.034904 -0.044093
v 0.120748 -0.046766 -0.185678
v -0.055985 0.058052 0.063478
v -0.024255 0.066859 0.081657
v 0.110911 -0.056181 0.186740
v -0.421882 -0.103027 -0.101662
v -0.418240 -0.103434 -0.108318
v -0.227503 -0.117681 0.187412
v -0.200078 -0.116818 0.188473
v 0.052472 -0.072607 -0.191164
v -0.143234 -0.133162 -0.055065
v -0.151329 -0.135583 -0.074859
v -0.004199 0.100047 -0.039826
v 0.019080 0.111729 -0.033216
v 0.022253 0.110504 -0.046923
v 0.270837 0.093619 0.080391
v 0.270844 0.092175 0.100142
v -0.010158 0.070332 0.089040
v 0.039249 -0.127631 0.068258
v 0.046812 -0.128409 0.078080
v 0.032461 -0.129824 0.083973
v -0.079525 -0.085423 0.196382
v -0.093320 -0.113425 0.187393
v 0.321400 -0.109416 -0.131858
v 0.305347 -0.106261 -0.154542
v 0.329412 -0.108842 -0.139370
v 0.339649 0.081092 -0.050960
v -0.199593 0.040916 -0.049923
v -0.198676 0.041013 -0.049503
v 0.347634 -0.111757 0.114874
v 0.030598 -0.133194 0.128246
v 0.001930 -0.131747 0.152771
v 0.018987 -0.133653 0.114820
v -0.007742 0.103742 0.000152
v -0.279618 -0.134531 0.047748
v -0.274617 -0.135492 0.057849
v -0.434230 -0.064435 0.053990
v -0.423024 -0.045221 0.084769
v -0.432208 -0.054835 0.054105
v -0.420326 -0.034923 0.085653
v 0.270841 0.089420 0.111369
v 0.302034 0.087251 0.111471
v -0.132986 -0.114690 0.188463
v 0.153665 -0.124322 0.126377
v 0.139148 -0.124367 0.139509
v -0.425919 -0.026862 0.043072
v -0.428095 -0.034433 0.044261
v -0.424625 -0.028546 0.053160
v 0.410729 -0.008261 0.164943
v 0.079248 0.065586 0.116103
v 0.438623 0.032239 0.075663
v 0.385241 0.005304 -0.145568
v -0.439513 -0.124291 0.000308
v -0.376964 -0.043326 0.138380
v -0.372099 -0.029289 0.138392
v -0.431810 -0.106901 -0.079485
v 0.106017 -0.128603 0.125014
v 0.104653 -0.128771 0.125146
v 0.105231 -0.128610 0.122791
v 0.309740 0.087783 0.059454
v 0.237218 -0.050177 0.197180
v 0.240305 0.101076 0.079008
v 0.217885 0.036798 -0.190957
v -0.396746 -0.022901 0.115397
v 0.362168 0.040176 -0.193136
v 0.193093 -0.118525 0.107787
v 0.191485 -0.118821 0.105710
v 0.194372 -0.118327 0.105238
v 0.417004 0.007981 -0.128550
v 0.437623 0.049803 -0.072998
v 0.235360 0.104243 0.043687
v -0.324569 -0.015563 0.154607
v -0.003147 -0.135104 -0.143580
v 0.015678 -0.134699 -0.129124
v -0.028807 -0.136040 -0.112805
v 0.004060 -0.134806 -0.114622
v 0.437788 -0.021354 -0.043116
v 0.194163 -0.119525 -0.124884
v 0.190965 -0.119769 -0.107376
v 0.167084 -0.122534 -0.143499
v 0.083773 -0.118784 0.000225
v 0.051096 -0.125851 -0.054535
v 0.062138 -0.125807 -0.059364
v -0.132960 -0.114694 -0.188518
v -0.133594 0.035492 0.070114
v 0.409679 -0.049244 -0.127561
v 0.408386 -0.049506 -0.128995
v 0.418464 0.003907 -0.125881
v -0.066987 -0.137364 0.143502
v -0.029432 -0.136139 0.132710
v -0.067403 -0.135509 0.156910
v -0.034265 -0.134616 0.148641
v 0.052445 -0.072603 0.191135
v 0.083735 -0.067173 0.189091
v 0.239979 -0.111118 -0.141447
v -0.013805 0.012438 0.136593
v 0.426191 -0.096741 0.000085
v 0.052293 -0.130484 -0.151971
v 0.069857 -0.131433 -0.135389
v 0.029100 -0.134095 -0.128213
v 0.036920 -0.133657 -0.121655
v 0.334667 -0.109695 -0.123575
v 0.323690 -0.109868 -0.123040
v 0.327684 -0.109735 -0.128335
v 0.179390 -0.112992 0.000192
v 0.189605 -0.007849 0.195878
v -0.233722 -0.138317 0.088462
v -0.235003 -0.135616 0.066153
v -0.214028 -0.135857 0.070582
v -0.080850 -0.137864 0.146348
v 0.041868 0.074264 0.111185
v -0.275395 -0.064277 -0.181096
v -0.233730 -0.084740 -0.191778
v -0.050139 -0.002040 0.179291
v -0.052258 -0.009643 0.186969
v -0.362442 0.016735 -0.085966
v -0.349062 0.031336 -0.043507
v 0.435118 0.028977 -0.100556
v 0.435586 0.044646 -0.095922
v 0.438633 0.032238 -0.075584
v 0.432626 0.037146 -0.111609
v -0.010969 0.085526 -0.067641
v -0.017570 0.071972 -0.082712
v -0.038002 0.074029 -0.056184
v -0.064688 0.049877 -0.068931
v 0.342283 0.023928 -0.191699
v 0.059436 0.123833 0.000127
v -0.148639 -0.132272 0.170524
v -0.163858 -0.132430 0.171817
v -0.156064 -0.139064 0.147191
v -0.094875 -0.082026 -0.197295
v 0.402405 -0.068492 0.148603
v 0.177050 -0.030917 0.194630
v 0.046461 0.003792 0.166445
v 0.391053 0.068154 -0.035202
v -0.262349 -0.139756 0.154661
v -0.279856 -0.138414 0.160343
v -0.265242 -0.142285 0.123957
v -0.160784 0.004490 0.168161
v -0.136621 -0.138685 -0.105424
v 0.045247 0.101617 0.087920
v -0.107718 -0.131823 0.057979
v -0.107894 -0.132370 0.063002
v -0.111881 -0.132138 0.059914
v -0.109372 -0.138206 -0.107501
v -0.072422 -0.133063 -0.164220
v -0.074274 -0.132886 -0.164528
v -0.073716 -0.132273 -0.165327
v 0.070934 0.091686 0.111163
v -0.220797 -0.134824 0.170461
v 0.419708 0.029842 0.140496
v 0.419727 0.029840 -0.140476
v 0.423738 0.027240 -0.132839
v 0.377314 -0.056050 -0.158412
v 0.386347 -0.097925 -0.133032
v 0.369419 -0.098463 -0.149594
v 0.202792 -0.018351 0.198129
v 0.201126 -0.053080 0.196731
v -0.213887 -0.033679 0.185938
v 0.231266 -0.102956 0.180064
v -0.116992 0.034978 0.074184
v -0.074268 -0.024355 0.194566
v -0.098643 -0.035731 0.197322
v 0.430171 0.030896 0.118427
v 0.423719 0.027243 0.132860
v 0.427731 0.024643 0.125223
v 0.347835 -0.079008 -0.174090
v 0.347503 -0.077197 -0.174692
v -0.323613 -0.137073 0.059402
v -0.305870 0.040547 0.024624
v -0.298596 0.039381 0.037644
v 0.271364 0.061636 -0.138519
v -0.129550 -0.139518 -0.119582
v 0.202681 -0.116174 0.139941
v 0.190224 -0.118988 0.108028
v -0.328492 -0.069290 0.164273
v 0.255509 0.072369 -0.129335
v -0.040110 0.087586 0.000159
v 0.145494 -0.071614 -0.189826
v -0.163976 0.017837 0.144389
v -0.393313 -0.135799 -0.060482
v -0.389845 -0.134375 -0.047094
v -0.058532 -0.125438 0.000262
v -0.355092 -0.141245 0.091864
v -0.315033 -0.143079 0.114848
v -0.343712 -0.142943 0.122290
v -0.172139 -0.138777 0.107104
v -0.292265 0.010656 0.134477
v -0.284541 0.035913 -0.057367
v -0.294868 0.036588 -0.052110
v -0.270925 0.025620 0.097365
v -0.250838 0.033712 0.074698
v 0.363196 -0.110665 0.106579
v 0.001091 -0.131587 0.153371
v -0.047747 -0.126702 0.170493
v 0.415752 -0.018937 0.155390
v 0.315028 -0.064720 -0.188358
v 0.325516 -0.108011 -0.061104
v 0.329151 -0.107225 -0.045533
v 0.126914 0.126835 0.052008
v 0.110938 -0.056186 -0.186762
v 0.103957 -0.060251 -0.187450
v -0.173973 -0.023218 0.186729
v -0.201467 -0.031070 0.186621
v -0.265838 -0.141970 0.113508
v -0.299633 -0.141924 0.101787
v -0.305368 -0.143092 0.116222
v -0.301504 -0.139816 0.153893
v -0.012145 -0.130812 -0.072517
v -0.041318 -0.132197 -0.074173
v -0.032726 -0.135597 -0.103634
v -0.254790 -0.093008 0.187114
v 0.189668 -0.119018 0.105786
v 0.158723 -0.118590 0.061359
v 0.166052 -0.117778 0.060424
v -0.289232 -0.055960 0.174748
v -0.290339 -0.057607 0.174768
v -0.184413 -0.136815 0.083650
v -0.160198 -0.137022 0.089262
v -0.153512 -0.137136 0.091638
v -0.158405 -0.137574 0.095482
v -0.128077 0.035881 -0.066261
v -0.129116 0.036558 -0.062805
v 0.339672 0.078406 0.111565
v -0.287902 -0.056594 0.175249
v -0.328968 0.035774 0.037052
v -0.425586 -0.025267 0.041339
v -0.426300 -0.027545 0.041200
v 0.255094 0.085826 0.118228
v 0.259165 0.076391 0.127336
v 0.270929 0.083215 0.120853
v -0.276853 -0.142285 -0.108555
v -0.266446 -0.142198 -0.110508
v 0.416005 -0.097009 -0.076666
v -0.103316 -0.076248 0.198746
v 0.035336 -0.132811 0.117083
v -0.096047 0.038849 -0.063257
v -0.106615 -0.051233 -0.198426
v -0.097159 -0.074881 -0.199036
v 0.161216 -0.121292 -0.153137
v 0.157094 -0.122214 -0.151951
v 0.421576 0.036146 -0.124702
v 0.430187 0.030894 -0.118406
v 0.350599 -0.101971 0.000122
v -0.004392 -0.029618 0.192182
v 0.148771 -0.124565 0.114596
v 0.368497 0.075193 -0.050826
v 0.399893 0.068216 -0.052808
v 0.410656 0.064429 -0.079202
v 0.402788 0.051324 -0.111607
v 0.068016 -0.130240 -0.097646
v 0.069479 -0.131311 -0.113033
v 0.074176 -0.130219 -0.101464
v -0.012091 0.083060 0.070700
v 0.007388 0.089549 0.079276
v 0.126139 0.124381 -0.058301
v 0.106038 0.122112 -0.066378
v 0.103092 0.126759 -0.044155
v -0.345238 0.031816 0.046701
v -0.313738 0.022932 0.092746
v -0.053459 -0.016373 -0.191089
v 0.073139 0.032715 -0.119698
v 0.070949 0.091683 -0.111192
v 0.113850 0.037606 -0.125027
v -0.355132 -0.143383 -0.110050
v -0.356936 -0.143182 -0.110537
v -0.350928 -0.143335 -0.118143
v 0.235006 0.104489 -0.022435
v 0.312224 -0.108981 0.138856
v -0.365660 -0.141465 -0.119337
v -0.242912 -0.135899 0.167249
v -0.231838 -0.133106 0.172331
v 0.120723 -0.046762 0.185658
v -0.382226 -0.136581 -0.128642
v -0.380208 -0.137935 -0.124702
v -0.425198 -0.024453 0.043214
v 0.424565 -0.096767 -0.032983
v -0.438151 -0.086860 0.037841
v 0.136476 -0.079728 -0.187742
v 0.055013 -0.127815 -0.072364
v 0.060543 -0.131043 -0.101900
v 0.418181 0.006182 -0.126875
v 0.418952 0.005537 -0.125951
v 0.243546 0.098762 0.088163
v -0.092089 -0.135157 0.159518
v 0.101130 0.096981 -0.111225
v -0.037387 -0.008999 0.184755
v -0.021639 0.088468 -0.044375
v -0.009713 0.097859 -0.036686
v -0.007011 0.096924 -0.045700
v 0.003115 -0.134300 -0.145778
v 0.192838 -0.118300 0.101085
v 0.176445 -0.116242 0.053938
v 0.200480 -0.114280 0.058908
v 0.343654 -0.107087 -0.045033
v 0.067880 -0.028157 0.183788
v 0.407382 -0.051202 -0.129851
v -0.430928 -0.049963 -0.038955
v 0.271348 0.042847 -0.197542
v -0.227477 -0.117685 -0.187479
v 0.185043 -0.006856 -0.194835
v 0.360067 -0.026874 0.197490
v 0.365157 -0.051750 -0.167529
v -0.076202 -0.016716 -0.190665
v -0.054984 -0.028504 -0.195610
v 0.236182 0.104340 0.035308
v -0.377616 -0.136899 -0.131216
v 0.237889 -0.069250 0.193488
v 0.439766 0.043450 0.019746
v -0.317779 -0.143121 -0.108346
v -0.321600 -0.138244 -0.068005
v -0.125011 0.005353 -0.170374
v -0.118116 -0.030163 -0.193682
v -0.101680 -0.138996 -0.135653
v -0.392904 -0.138528 -0.090626
v -0.399323 -0.134855 -0.107253
v 0.338927 -0.099441 0.167817
v 0.321557 -0.061749 0.194407
v 0.312576 -0.053539 0.197002
v 0.311578 -0.063409 0.194127
v 0.120288 -0.122650 0.068589
v 0.089611 -0.122277 0.047770
v 0.131581 -0.115888 0.000209
v -0.378350 -0.092354 -0.144535
v -0.374525 -0.079358 -0.145423
v 0.099543 -0.129212 -0.108238
v 0.120459 -0.128036 -0.115279
v 0.106448 -0.124988 -0.074210
v 0.124449 -0.125689 -0.092510
v -0.245455 -0.028442 0.177253
v 0.034885 0.105624 -0.074565
v 0.013154 0.091750 -0.081256
v 0.387350 0.002435 -0.145544
v -0.366432 0.028954 0.039805
v -0.415201 -0.123447 -0.104594
v -0.435990 -0.124141 0.044976
v 0.242336 -0.109313 0.035663
v -0.212209 -0.138473 0.093518
v -0.186622 -0.133952 0.058446
v 0.129587 0.068144 0.119690
v -0.308241 0.007455 0.137629
v -0.333687 0.008597 0.130922
v 0.125926 -0.085380 0.185404
v 0.422323 -0.073664 0.104398
v -0.366029 -0.062211 0.147120
v -0.388832 -0.073604 0.135452
v -0.181565 -0.130653 -0.022151
v -0.109962 -0.131756 0.056173
v -0.154500 -0.139660 0.140979
v -0.109179 0.042794 -0.019754
v 0.119309 -0.123602 0.077098
v 0.124835 -0.123289 0.078241
v 0.206030 -0.113016 0.045703
v 0.438497 -0.011214 -0.043053
v -0.235996 -0.136917 -0.166196
v -0.297264 -0.119861 -0.178146
v -0.318255 -0.086026 -0.172215
v -0.051828 0.067852 -0.049774
v -0.358688 -0.052251 0.148533
v -0.345506 -0.039352 0.150850
v 0.103635 -0.128877 0.125271
v 0.067905 -0.130998 0.123276
v -0.318453 -0.000288 0.144776
v -0.335322 -0.011384 0.151708
v 0.435104 0.028979 0.100594
v 0.129827 0.126486 0.053324
v 0.128270 0.126191 0.055300
v 0.164568 0.114833 0.082737
v 0.151471 0.115480 0.084483
v -0.153501 0.036585 0.066040
v -0.148792 0.034432 0.076479
v 0.349742 -0.099092 0.162665
v 0.352054 -0.081997 0.178147
v -0.039528 -0.136421 -0.143913
v -0.008636 -0.132981 -0.154365
v -0.023583 -0.136184 -0.138589
v -0.285591 -0.136037 0.059738
v 0.393294 -0.104788 -0.044199
v -0.406641 0.016398 0.037116
v 0.164386 0.120004 -0.059802
v 0.153239 0.127476 0.000095
v -0.241388 -0.136015 -0.063650
v -0.240491 -0.136339 -0.066876
v 0.160200 -0.117793 0.054124
v -0.247421 -0.044034 -0.182745
v -0.212477 -0.031855 -0.185331
v -0.249901 -0.032941 -0.178395
v -0.208211 -0.089357 0.193999
v -0.366533 0.000759 -0.128846
v -0.024385 -0.029467 -0.194213
v 0.228721 -0.113078 0.119176
v 0.236386 -0.111217 0.087277
v 0.008534 0.092996 0.075051
v 0.014784 0.094264 0.079369
v 0.035149 0.117473 0.030912
v 0.125060 -0.122583 0.071677
v 0.035964 -0.121680 0.000242
v 0.092338 -0.037059 -0.184700
v 0.083761 -0.067178 -0.189115
v 0.159278 -0.045268 0.191169
v 0.034875 0.105626 0.074668
v 0.170144 0.117273 0.071321
v -0.355594 -0.138940 0.069274
v 0.075322 -0.122944 0.045405
v 0.108366 0.130181 0.000109
v 0.084787 0.128179 0.000118
v 0.045259 0.101615 -0.087884
v 0.121378 -0.074598 -0.187651
v 0.120488 -0.075327 0.187322
v -0.110394 -0.138538 0.138896
v -0.113194 -0.138346 0.113612
v -0.045307 0.065332 -0.062897
v 0.350541 0.079679 -0.057068
v 0.339166 0.082730 -0.064835
v 0.308052 0.086454 -0.048093
v 0.307430 0.088597 -0.069703
v 0.197365 -0.116373 -0.073244
v 0.201016 -0.115148 -0.063136
v 0.424581 -0.059626 0.115263
v -0.307818 -0.142747 0.108828
v 0.322160 -0.108934 0.058366
v -0.359738 -0.138581 0.066417
v -0.058722 -0.135991 0.103667
v -0.074635 -0.136775 0.107580
v -0.262489 0.041137 0.041433
v -0.258824 0.041548 0.039755
v -0.234370 0.038953 -0.058051
v 0.406381 -0.097300 -0.101727
v 0.413442 -0.073601 -0.112900
v -0.235067 -0.136198 -0.066338
v -0.006971 -0.128084 -0.052561
v 0.006814 -0.129184 -0.066092
v 0.010065 -0.127258 -0.051319
v 0.032858 -0.029049 0.187906
v -0.358667 -0.052254 -0.148620
v -0.348930 -0.067925 -0.156504
v -0.366008 -0.062214 -0.147208
v 0.246622 0.041439 -0.195665
v -0.306174 -0.142901 0.112086
v -0.262565 -0.142011 0.114629
v -0.265838 -0.142092 0.115814
v 0.188014 -0.117787 -0.076643
v -0.388873 -0.079680 0.136020
v -0.374546 -0.079355 0.145335
v 0.069177 0.124877 0.033957
v -0.357744 -0.088651 0.156143
v -0.324889 0.003540 0.139914
v 0.214357 0.110767 -0.032853
v 0.079073 -0.125312 0.068208
v 0.061308 -0.125829 0.063584
v 0.046787 -0.126049 -0.054233
v 0.050843 -0.126402 -0.059179
v 0.105680 -0.124809 0.079118
v 0.235665 0.102527 -0.062784
v -0.328811 -0.120832 -0.169794
v -0.138285 -0.136931 0.153537
v -0.433425 -0.057554 0.047845
v -0.437144 -0.079922 0.038190
v 0.104319 -0.128781 0.125405
v 0.104285 -0.128852 0.125062
v 0.081738 0.113559 -0.081495
v -0.278721 -0.138801 -0.079132
v -0.011284 -0.123559 0.000252
v -0.023337 -0.130969 0.072926
v -0.039273 -0.132281 0.078706
v -0.030676 -0.129601 0.059582
v 0.438785 0.052718 0.041610
v -0.143909 0.039926 -0.042073
v 0.431554 -0.070964 -0.037054
v 0.120851 -0.071356 0.187406
v 0.118121 -0.073207 0.187385
v -0.335301 -0.011388 -0.151792
v 0.061237 0.122772 0.038516
v 0.064841 0.123187 0.040736
v 0.427748 0.024641 -0.125202
v 0.385537 -0.107441 -0.091021
v 0.400436 -0.097484 -0.113010
v -0.126693 -0.131923 0.169558
v -0.327949 0.007851 -0.134546
v 0.228844 -0.112488 -0.148801
v 0.202101 -0.116532 -0.149632
v -0.087120 -0.048801 0.199038
v -0.090576 -0.019872 0.190673
v -0.056510 0.075074 0.021376
v -0.026143 0.087844 0.040323
v 0.020349 -0.134303 -0.118329
v 0.026033 -0.134016 -0.116855
v 0.357102 -0.029141 0.197394
v 0.231823 0.005842 -0.201413
v 0.214943 0.012403 -0.198158
v -0.085935 0.053436 0.031083
v 0.434229 -0.002510 -0.097668
v 0.271457 0.051825 0.141935
v 0.388062 -0.106844 0.097094
v 0.302694 -0.100623 0.177756
v 0.315705 -0.074838 0.190139
v 0.099214 -0.040633 0.185453
v 0.164449 -0.116876 0.047884
v 0.172901 0.118524 -0.059611
v 0.104695 -0.128698 0.125675
v 0.233359 -0.111194 -0.057096
v 0.275198 -0.106649 -0.066924
v 0.239550 0.101957 -0.052420
v -0.081480 -0.130504 -0.049638
v -0.321400 -0.079118 -0.170170
v -0.015663 -0.128899 0.057961
v 0.016175 -0.126434 0.047768
v 0.006412 -0.130238 0.076497
v -0.096155 -0.032219 -0.196424
v 0.161790 -0.122361 -0.148733
v 0.167008 -0.121590 -0.149624
v -0.079755 -0.018679 -0.191244
v 0.013111 0.091453 -0.081665
v -0.235532 -0.133154 0.040814
v 0.029071 0.107869 0.064636
v 0.193031 0.115701 0.055789
v 0.201364 0.111011 0.074901
v 0.438217 -0.013566 -0.054175
v -0.406984 -0.123189 -0.117146
v -0.163601 -0.071265 -0.198549
v -0.162063 -0.063628 -0.197678
v 0.135109 -0.075214 0.188097
v -0.190074 -0.138241 -0.090578
v 0.433400 0.059424 0.017696
v 0.349842 -0.081739 0.179187
v 0.352462 -0.080938 0.178784
v 0.351624 -0.080176 0.179668
v -0.261186 -0.141165 0.107566
v 0.315389 -0.100207 0.175372
v 0.425392 0.020033 0.139637
v 0.431789 0.003832 -0.106494
v -0.216923 0.039316 0.057188
v 0.412990 0.067863 0.049422
v -0.414962 -0.131523 -0.084970
v 0.154299 -0.074998 0.190271
v 0.178027 -0.055192 0.194178
v 0.159376 -0.076779 0.190209
v -0.012373 0.093766 0.048130
v 0.004486 0.095415 0.065499
v 0.432015 -0.068246 0.042084
v 0.054128 -0.129643 0.093689
v 0.048308 -0.132202 0.125998
v 0.132003 0.126623 0.051319
v 0.229532 0.103990 0.076815
v 0.157274 -0.123749 -0.144101
v 0.114858 -0.125356 -0.154583
v 0.120207 -0.127716 -0.139367
v 0.103931 -0.060247 0.187428
v -0.119195 -0.134253 -0.164495
v -0.079642 -0.133318 -0.163763
v 0.102926 -0.046189 -0.185839
v 0.215670 -0.113532 -0.062838
v 0.130931 0.129921 0.000102
v -0.371086 -0.138497 -0.070304
v -0.358152 -0.136252 -0.053257
v 0.399861 0.069063 0.038259
v 0.386099 0.073186 0.047565
v -0.310749 0.004119 -0.142462
v -0.313871 0.001499 -0.144523
v -0.155406 -0.024653 -0.188689
v 0.338950 -0.099445 -0.167783
v 0.349765 -0.099095 -0.162620
v 0.012652 0.091195 -0.081626
v 0.012795 0.091554 -0.081248
v -0.323932 0.003268 -0.142266
v 0.203161 -0.068786 -0.195138
v 0.185727 -0.070664 -0.192982
v 0.203248 -0.082424 -0.191363
v 0.159096 -0.074748 -0.189530
v 0.385573 -0.105508 -0.105884
v 0.369517 -0.107650 -0.122808
v -0.021765 -0.131035 -0.162994
v 0.064316 0.123975 0.034564
v 0.434868 0.008118 0.104383
v 0.438224 -0.001240 0.078862
v -0.097511 0.018799 -0.132621
v -0.120030 0.020221 -0.134622
v 0.179447 0.120879 0.040661
v 0.312840 -0.108258 -0.079133
v -0.110773 -0.130004 0.170909
v 0.210143 -0.112997 0.053892
v -0.123839 -0.137283 0.100514
v 0.415983 -0.039967 0.150271
v 0.217428 -0.112773 0.065583
v -0.345486 -0.039355 -0.150935
v -0.345217 -0.007533 -0.147102
v -0.066835 -0.133490 0.080726
v 0.271132 0.073028 0.130697
v -0.401722 -0.134166 -0.056070
v -0.406124 -0.135248 -0.079735
v -0.360157 -0.139231 0.072916
v -0.155098 -0.137802 0.098611
v -0.102257 -0.131536 0.056853
v -0.111375 -0.132536 -0.058606
v 0.001770 -0.131609 0.153314
v -0.409580 -0.132565 -0.094645
v -0.395797 -0.069707 -0.130011
v -0.417356 -0.093382 -0.109822
v -0.419808 -0.098708 -0.106941
v -0.414918 -0.099197 -0.113144
v 0.308672 -0.106853 0.157331
v 0.372548 -0.105748 -0.039647
v 0.416164 -0.053770 0.139119
v -0.201376 -0.137532 -0.162682
v -0.210107 -0.133688 -0.171961
v -0.190628 -0.133339 -0.171814
v -0.081188 -0.134735 -0.083191
v -0.203665 0.017972 0.137395
v 0.207095 0.104318 0.090689
v 0.363344 -0.107500 -0.128854
v 0.351808 -0.106782 -0.141470
v 0.392260 -0.105798 0.045728
v -0.380539 -0.106681 -0.143953
v -0.060241 -0.129658 0.051695
v -0.399858 -0.101489 -0.129168
v 0.152501 -0.118334 0.052493
v -0.180645 0.018366 0.140816
v -0.189415 -0.086995 -0.196081
v -0.131276 0.036248 -0.064430
v -0.114049 -0.135115 0.160202
v -0.348721 0.031414 -0.043410
v -0.140293 -0.132515 0.054175
v 0.271477 0.051822 -0.141936
v -0.393633 0.011314 0.080781
v -0.332717 -0.076306 -0.165211
v -0.155215 -0.137643 -0.156786
v -0.127170 -0.137836 -0.152726
v -0.134471 -0.135328 -0.163942
v 0.325563 0.002393 0.205179
v 0.329268 0.002491 0.204345
v -0.031269 -0.134856 0.103331
v -0.348799 0.031475 -0.043058
v -0.194171 -0.036331 -0.189852
v -0.345218 -0.142244 0.129027
v -0.355783 -0.141454 0.127276
v -0.230311 -0.141542 -0.114234
v 0.150593 -0.078400 0.189256
v 0.155245 -0.079460 0.189428
v 0.431672 -0.006730 -0.103530
v -0.000746 0.099220 -0.048084
v -0.300615 -0.136731 -0.059662
v -0.283412 -0.134843 -0.047300
v 0.433303 -0.060534 -0.036392
v -0.072147 -0.128765 0.039747
v -0.100963 -0.138965 -0.135940
v -0.100697 -0.138983 -0.135100
v -0.336479 -0.142822 0.130925
v 0.326529 0.000221 0.204718
v -0.213391 -0.141508 -0.122036
v -0.212864 -0.139960 -0.101606
v 0.384062 -0.106756 0.044622
v 0.256914 0.082429 -0.121657
v 0.394457 -0.049387 0.170598
v 0.389272 -0.058179 0.170352
v -0.393462 -0.070168 -0.131867
v -0.391906 -0.071988 -0.133325
v -0.394939 -0.074010 -0.131294
v -0.147256 -0.130115 -0.173618
v 0.318879 -0.110317 0.099785
v 0.312240 -0.109652 0.127320
v 0.246316 -0.108977 0.037766
v -0.358584 -0.002334 -0.137143
v -0.161921 -0.132164 0.045902
v 0.389475 -0.107130 -0.072019
v -0.332312 -0.141076 -0.143924
v -0.073971 -0.133549 -0.162943
v -0.366093 -0.021839 -0.140817
v -0.372948 -0.038264 -0.139527
v 0.128955 0.126894 0.051374
v 0.044370 0.114940 0.059491
v 0.126613 -0.116842 0.168790
v 0.367218 -0.108476 -0.070838
v 0.313009 0.087204 0.058647
v 0.311785 0.087187 0.055916
v -0.411201 -0.018687 0.089727
v -0.053485 -0.016369 0.191044
v -0.004323 -0.133422 0.099784
v 0.018474 -0.133474 -0.104369
v -0.345237 -0.007529 0.147017
v -0.349473 0.009878 -0.124569
v -0.342961 0.003409 -0.137163
v 0.324220 -0.007309 0.204317
v -0.346166 0.010855 0.122385
v 0.172489 0.119111 -0.057216
v 0.087814 0.127402 -0.029559
v -0.162590 -0.132681 -0.046413
v -0.125018 -0.138586 0.116147
v -0.323472 -0.084128 -0.170192
v -0.355009 -0.091836 -0.158074
v -0.353071 -0.082453 -0.157478
v -0.343608 -0.064020 -0.157842
v 0.053930 0.116410 -0.061036
v 0.052212 0.115918 -0.061478
v 0.052497 0.116551 -0.059324
v 0.321753 -0.107379 0.153838
v 0.131502 -0.117517 -0.169242
v 0.085153 -0.130798 -0.121956
v 0.098191 -0.129155 -0.143712
v 0.045771 0.114799 0.061601
v 0.194002 0.002506 -0.195599
v -0.227180 0.015417 0.133126
v -0.064925 -0.008810 -0.186637
v -0.338388 -0.001984 -0.144594
v -0.358603 -0.002331 0.137056
v -0.357724 -0.088002 0.156082
v 0.104333 -0.122906 -0.055688
v -0.037606 -0.004224 -0.180125
v -0.362185 -0.017874 -0.141950
v 0.202839 -0.062538 0.195389
v 0.222642 -0.113549 0.138152
v -0.411993 -0.131467 0.042353
v -0.041242 -0.016237 0.190339
v 0.139584 -0.126442 -0.122855
v -0.393555 -0.137340 0.102558
v -0.010776 -0.135212 0.123668
v 0.247558 -0.108856 0.034245
v 0.124751 0.117415 0.084701
v 0.433238 0.012825 0.110929
v -0.225197 -0.139991 -0.155214
v -0.198638 -0.140907 -0.142258
v -0.232217 -0.142062 -0.134408
v -0.082883 -0.136552 -0.098148
v -0.198026 0.040960 -0.049655
v -0.147200 0.040630 -0.037534
v -0.162192 0.035536 -0.071492
v 0.211738 -0.116425 -0.104373
v 0.353280 -0.080178 0.179005
v 0.357316 -0.049447 0.191327
v -0.365592 -0.017479 -0.139791
v -0.341428 -0.138202 0.147887
v 0.242843 -0.109454 -0.153428
v 0.317172 0.086441 0.057557
v -0.176609 -0.135058 -0.065460
v 0.111565 -0.127205 -0.148066
v 0.109034 -0.128540 -0.142244
v -0.060935 -0.006412 -0.184747
v -0.052232 -0.009647 -0.187013
v -0.079119 0.051211 -0.049357
v -0.065149 0.056842 -0.056053
v -0.076917 0.046518 -0.063321
v 0.367977 0.077992 0.070531
v -0.361678 -0.141625 0.115702
v 0.417713 0.022309 -0.132331
v -0.094086 -0.138757 -0.135546
v -0.100487 -0.138958 -0.135741
v -0.093619 -0.138125 -0.144025
v -0.135182 0.040326 0.034592
v 0.293717 0.090342 -0.089848
v 0.038056 -0.130556 -0.087509
v 0.220031 -0.115181 -0.133932
v 0.235291 -0.112462 -0.105515
v -0.118743 -0.136322 -0.158304
v -0.035519 -0.128670 -0.048332
v 0.127615 -0.121803 -0.060754
v -0.392784 -0.055512 -0.130163
v 0.009150 0.086321 0.084128
v 0.396777 0.068478 -0.081318
v 0.325300 -0.045067 -0.188143
v -0.434425 -0.063613 0.047364
v 0.210320 -0.058658 0.196447
v 0.083834 0.125553 -0.040477
v 0.218710 -0.018369 -0.201079
v -0.284839 0.005498 -0.143413
v -0.376279 -0.022751 -0.134351
v 0.355529 0.080123 0.058325
v -0.146647 0.040627 -0.037407
v -0.288743 -0.142933 -0.111434
v -0.230126 -0.137583 0.161169
v -0.240740 -0.141456 0.141490
v -0.360328 -0.142830 -0.109368
v -0.055528 0.058869 0.062439
v -0.239403 -0.092550 0.189871
v 0.073251 0.125131 -0.031442
v 0.050523 0.120617 -0.031543
v 0.019562 -0.125913 -0.167027
v -0.011330 -0.129479 -0.164621
v -0.279066 -0.136041 -0.058210
v 0.430517 -0.057751 -0.079449
v 0.414315 -0.073070 -0.111484
v 0.100773 -0.128866 0.128119
v 0.174685 0.118296 -0.058763
v 0.317746 -0.072538 -0.185635
v 0.430823 0.001830 0.125828
v 0.432733 -0.025592 -0.093104
v 0.413685 -0.072978 -0.112710
v 0.408642 -0.051500 -0.128078
v 0.234218 0.101157 0.084995
v 0.080898 0.119146 -0.067513
v -0.337126 -0.137228 -0.059614
v -0.350737 -0.134782 -0.042796
v -0.280665 -0.135730 -0.165937
v -0.302302 -0.136958 -0.160757
v -0.249138 -0.136165 -0.063608
v 0.337662 -0.056375 0.193474
v -0.369118 -0.024512 0.139162
v 0.187570 0.116438 0.058334
v -0.374748 -0.136871 -0.133639
v 0.043859 -0.126924 -0.060731
v -0.357212 -0.087450 0.156276
v -0.366252 -0.139258 0.076771
v -0.092946 -0.065945 -0.198860
v -0.052800 -0.137612 -0.134484
v 0.047288 0.115337 0.060739
v -0.048819 -0.137312 -0.137305
v -0.064444 -0.132649 -0.163602
v 0.096720 -0.124958 -0.068878
v -0.134938 0.040306 0.034752
v 0.158989 -0.116993 0.043060
v -0.141205 0.035753 -0.067528
v 0.009630 0.011930 0.142843
v -0.275219 -0.136631 -0.063313
v -0.349308 0.031329 -0.043333
v -0.390994 -0.067136 -0.133205
v -0.059220 -0.130446 -0.055810
v -0.047606 -0.137518 -0.133896
v -0.180489 -0.131276 0.032016
v 0.053847 0.115901 -0.062613
v 0.310091 -0.109334 0.130289
v 0.070763 -0.129604 0.138198
v 0.011054 -0.132103 0.093787
v 0.436277 -0.034850 -0.060711
v 0.432361 -0.064312 -0.057245
v 0.104523 -0.126995 -0.152210
v 0.010430 -0.132732 -0.151759
v 0.353411 -0.081480 0.178014
v 0.344337 0.082552 0.072903
v 0.357316 0.080079 0.074050
v 0.430719 0.061223 0.025195
v -0.195446 -0.050012 -0.192821
v 0.089504 -0.129367 -0.102284
v 0.006722 0.012716 -0.137777
v -0.198421 -0.136127 -0.071412
v 0.222251 -0.038162 -0.199801
v 0.218436 -0.072356 -0.194380
v 0.017829 0.012268 0.143801
v -0.178002 -0.137857 -0.158363
v -0.145797 -0.093394 0.195923
v -0.366907 -0.017621 0.139055
v 0.413108 -0.073487 -0.113437
v -0.017957 -0.134235 -0.097776
v 0.350516 0.039351 -0.162401
v -0.147016 0.040679 -0.037058
v -0.348436 -0.057715 0.154055
v 0.233733 -0.111391 -0.063806
v 0.313026 0.087443 0.061890
v -0.308387 -0.142893 0.111617
v -0.147498 0.040658 -0.037373
v -0.061034 -0.005773 -0.184083
v -0.190965 -0.133747 -0.050106
v 0.412537 -0.051538 -0.122952
v -0.328136 -0.142588 -0.137660
v 0.017067 0.010694 0.148059
v -0.319167 0.035347 0.046804
v -0.295910 0.035335 0.057222
v 0.142263 -0.125227 0.124305
v 0.022176 -0.128082 0.064799
v -0.013867 -0.130063 0.068422
v -0.161204 0.034801 -0.074873
v -0.164952 0.035647 -0.071247
v -0.048827 -0.137460 -0.128453
v -0.050136 -0.136052 -0.103461
v -0.064507 -0.134337 -0.084367
v -0.012014 0.011480 -0.140143
v -0.393038 -0.137429 0.082639
v 0.243590 0.100465 -0.062221
v -0.355729 -0.137851 -0.064017
v -0.357157 -0.142606 -0.102789
v -0.358148 -0.093126 -0.156749
v -0.035493 0.085455 -0.025580
v 0.248583 -0.108767 0.032521
v -0.260020 -0.142102 0.119670
v -0.163555 -0.132718 -0.170893
v 0.085233 0.116078 0.082084
v -0.231114 -0.141113 0.116227
v 0.235599 -0.110787 -0.050696
v 0.094025 0.113944 -0.082057
v -0.171784 0.037860 0.061527
v -0.025715 -0.135528 -0.107460
v -0.288836 -0.059152 0.175389
v 0.059380 -0.126997 0.157826
v 0.056607 -0.129050 0.150930
v 0.063141 -0.128186 0.152879
v 0.064081 -0.127633 0.156707
v -0.056871 -0.137770 -0.125403
v 0.245193 -0.060893 -0.195509
v 0.076302 -0.126004 0.157493
v 0.151394 -0.117470 -0.037321
v -0.128916 -0.138748 0.141634
f 2 3 4
f 6 7 8
f 7 9 8
f 10 11 12
f 14 15 16
f 15 17 16
f 19 20 18
f 21 22 23
f 24 25 26
f 27 28 29
f 30 31 32
f 33 34 35
f 38 39 40
f 43 44 45
f 46 47 1
f 48 49 50
f 51 53 52
f 54 55 56
f 57 58 59
f 61 62 63
f 66 67 68
f 67 69 68
f 70 71 72
f 73 74 75
f 76 77 78
f 80 81 82
f 12 83 84
f 85 86 87
f 88 89 90
f 92 94 93
f 95 96 97
f 57 59 98
f 99 100 101
f 102 103 104
f 105 106 107
f 108 109 110
f 111 112 113
f 35 114 33
f 115 116 117
f 118 119 29
f 120 121 122
f 125 127 126
f 128 98 129
f 130 131 132
f 131 133 132
f 134 135 136
f 92 137 94
f 138 139 140
f 141 142 143
f 135 144 145
f 146 147 148
f 151 152 153
f 152 154 153
f 155 156 157
f 158 159 160
f 61 161 62
f 162 163 164
f 165 166 167
f 168 169 170
f 172 173 174
f 173 175 174
f 85 176 177
f 178 179 180
f 181 182 183
f 185 186 1
f 187 13 188
f 189 190 191
f 192 193 194
f 181 75 196
f 5 75 197
f 198 199 200
f 201 202 170
f 203 204 205
f 206 208 207
f 191 209 210
f 211 212 213
f 216 217 218
f 57 219 220
f 219 221 220
f 223 63 224
f 226 227 228
f 229 230 231
f 62 224 63
f 233 234 157
f 235 55 236
f 238 239 237
f 240 174 241
f 243 244 245
f 75 74 197
f 153 248 247
f 249 250 251
f 252 253 254
f 255 256 257
f 260 261 262
f 62 161 190
f 264 265 266
f 15 267 268
f 269 270 271
f 272 273 274
f 273 275 274
f 127 125 92
f 32 31 279
f 72 280 249
f 207 283 206
f 135 145 284
f 285 167 286
f 73 75 287
f 289 290 291
f 263 294 295
f 297 298 299
f 300 65 43
f 193 45 44
f 301 286 167
f 302 303 304
f 306 283 307
f 308 309 310
f 12 84 171
f 313 314 34
f 314 315 34
f 179 316 180
f 317 274 318
f 274 319 318
f 320 63 223
f 113 321 111
f 287 322 323
f 287 328 73
f 329 330 325
f 331 332 333
f 332 126 333
f 285 165 167
f 215 334 335
f 336 337 338
f 194 340 339
f 341 322 185
f 343 344 345
f 171 346 101
f 114 305 33
f 143 95 108
f 201 170 169
f 348 349 2
f 350 159 158
f 247 353 352
f 354 355 148
f 356 357 358
f 357 359 358
f 253 70 79
f 203 205 279
f 336 365 113
f 184 366 367
f 62 366 224
f 368 248 369
f 370 371 372
f 161 375 190
f 376 92 125
f 377 217 184
f 378 80 82
f 379 380 381
f 380 382 381
f 385 337 336
f 386 26 79
f 254 253 79
f 374 388 387
f 389 390 67
f 390 130 67
f 391 392 195
f 97 394 259
f 76 395 77
f 171 84 346
f 396 397 398
f 5 196 75
f 79 25 254
f 399 353 247
f 400 401 402
f 403 404 405
f 300 18 65
f 187 188 305
f 29 28 269
f 61 375 161
f 410 411 412
f 413 414 415
f 81 418 417
f 420 421 422
f 39 423 40
f 426 427 428
f 427 429 428
f 227 430 431
f 432 433 150
f 434 435 436
f 11 438 437
f 439 440 441
f 9 155 442
f 443 360 444
f 250 249 280
f 446 447 232
f 449 373 250
f 451 452 207
f 238 237 295
f 453 454 455
f 456 457 458
f 204 359 205
f 402 401 459
f 271 118 29
f 120 464 121
f 465 466 467
f 346 84 222
f 134 136 280
f 136 468 280
f 469 470 471
f 472 333 473
f 474 316 475
f 476 477 80
f 477 81 80
f 479 480 478
f 481 482 483
f 482 431 483
f 352 151 153
f 79 70 383
f 484 485 410
f 486 487 488
f 351 292 33
f 489 490 149
f 121 308 310
f 118 271 282
f 491 492 493
f 61 494 495
f 140 118 146
f 496 362 193
f 389 67 66
f 359 357 497
f 498 499 500
f 501 502 503
f 502 504 503
f 505 191 190
f 351 33 305
f 441 156 155
f 418 506 507
f 50 441 508
f 226 510 428
f 511 256 512
f 256 255 512
f 513 321 338
f 115 211 116
f 514 149 180
f 98 516 515
f 228 431 482
f 519 399 288
f 40 145 398
f 520 521 162
f 149 432 150
f 40 423 145
f 315 35 34
f 169 217 216
f 523 380 524
f 380 525 524
f 352 353 519
f 279 205 32
f 441 155 157
f 526 527 528
f 529 293 155
f 44 43 530
f 278 296 32
f 532 533 534
f 535 76 536
f 213 212 439
f 269 271 29
f 537 538 495
f 538 86 495
f 539 99 101
f 280 199 250
f 49 540 50
f 169 541 201
f 542 544 543
f 101 545 171
f 30 32 246
f 495 494 537
f 153 369 248
f 31 351 279
f 135 134 71
f 134 72 71
f 339 10 194
f 547 548 102
f 549 51 324
f 274 275 319
f 147 103 117
f 449 374 373
f 550 552 551
f 553 42 41
f 272 554 273
f 112 556 555
f 130 390 131
f 557 558 13
f 345 124 559
f 440 156 441
f 26 25 79
f 35 560 114
f 561 63 562
f 345 344 123
f 206 283 306
f 564 565 200
f 55 569 236
f 569 570 236
f 571 572 573
f 126 332 125
f 333 126 473
f 576 63 320
f 577 578 579
f 580 581 201
f 582 583 584
f 583 543 584
f 366 190 189
f 60 447 585
f 180 316 474
f 586 587 171
f 280 72 134
f 550 588 160
f 589 590 591
f 571 592 572
f 281 104 147
f 593 41 594
f 595 596 597
f 596 598 597
f 599 600 575
f 168 217 169
f 163 521 602
f 521 603 602
f 472 215 214
f 201 581 202
f 604 605 606
f 125 332 450
f 127 453 473
f 92 453 127
f 126 127 473
f 607 529 7
f 119 608 460
f 417 418 507
f 610 328 287
f 373 611 250
f 612 613 59
f 280 468 614
f 615 616 617
f 3 583 364
f 232 447 60
f 92 454 453
f 115 102 548
f 618 96 574
f 547 619 548
f 96 620 574
f 57 622 219
f 475 316 623
f 624 625 626
f 587 125 450
f 95 97 108
f 196 627 181
f 609 519 49
f 96 629 620
f 631 632 633
f 632 634 633
f 368 635 247
f 439 212 440
f 406 212 211
f 636 637 638
f 640 641 639
f 177 643 85
f 325 51 568
f 644 645 646
f 645 183 646
f 647 648 649
f 648 650 649
f 27 651 652
f 12 171 10
f 363 653 364
f 245 244 342
f 654 366 184
f 57 98 622
f 622 98 128
f 490 489 554
f 368 312 655
f 656 657 658
f 657 659 658
f 660 661 662
f 298 410 663
f 270 664 282
f 665 666 667
f 647 649 668
f 320 223 669
f 287 316 322
f 670 671 451
f 674 675 100
f 156 234 233
f 676 677 678
f 676 679 677
f 680 681 682
f 683 166 362
f 166 45 362
f 73 684 74
f 328 273 73
f 273 684 73
f 572 347 685
f 677 628 678
f 220 80 337
f 686 687 688
f 687 501 688
f 584 543 544
f 482 210 228
f 210 209 228
f 689 106 522
f 74 684 623
f 160 159 690
f 269 691 664
f 460 692 461
f 344 693 232
f 654 224 366
f 694 695 696
f 281 147 146
f 205 497 357
f 359 497 205
f 352 519 609
f 698 236 570
f 11 437 83
f 339 11 10
f 117 103 115
f 124 345 123
f 139 118 140
f 700 701 702
f 235 236 703
f 236 698 703
f 704 705 706
f 707 608 518
f 708 502 567
f 196 710 711
f 712 713 714
f 697 209 191
f 57 220 58
f 220 337 58
f 268 267 699
f 715 664 716
f 335 717 546
f 443 718 360
f 505 719 643
f 720 721 216
f 661 582 662
f 722 723 724
f 488 725 726
f 727 266 265
f 205 278 32
f 326 327 464
f 263 728 729
f 730 185 322
f 703 698 731
f 474 514 180
f 732 163 733
f 93 263 92
f 515 129 98
f 241 734 112
f 185 735 186
f 535 690 76
f 212 156 440
f 580 201 541
f 580 541 216
f 459 737 407
f 505 738 191
f 449 739 740
f 449 740 374
f 742 743 744
f 503 532 745
f 329 325 568
f 349 3 2
f 746 276 463
f 348 542 349
f 266 388 374
f 28 691 269
f 747 748 93
f 749 750 455
f 244 22 588
f 22 751 588
f 61 495 375
f 375 495 393
f 752 170 753
f 157 156 233
f 351 30 292
f 341 185 1
f 66 529 754
f 755 486 348
f 486 726 348
f 756 757 411
f 118 282 146
f 146 282 281
f 758 16 17
f 98 59 516
f 254 25 24
f 519 353 399
f 228 761 226
f 761 762 226
f 209 761 228
f 302 763 764
f 763 230 764
f 230 229 765
f 229 766 765
f 767 768 769
f 172 174 770
f 771 772 625
f 772 773 625
f 363 582 661
f 528 734 774
f 734 775 774
f 349 542 583
f 27 461 692
f 598 221 219
f 27 29 461
f 559 124 288
f 776 777 532
f 777 745 532
f 621 32 296
f 778 779 777
f 101 346 539
f 780 781 326
f 782 439 419
f 50 540 419
f 88 661 89
f 661 660 89
f 783 774 775
f 528 277 526
f 277 774 276
f 518 268 707
f 784 728 295
f 79 786 785
f 707 268 699
f 477 596 595
f 787 788 789
f 790 380 791
f 246 32 621
f 186 278 46
f 646 183 182
f 481 483 793
f 794 591 578
f 591 579 578
f 780 326 795
f 421 796 797
f 642 421 797
f 459 798 799
f 800 801 711
f 522 105 416
f 53 51 549
f 369 312 368
f 297 299 663
f 24 26 386
f 460 223 692
f 669 223 460
f 803 217 168
f 803 184 217
f 269 664 270
f 102 104 715
f 104 664 715
f 771 804 772
f 805 447 693
f 447 446 693
f 805 693 806
f 807 677 808
f 809 810 811
f 328 319 273
f 319 275 273
f 812 576 813
f 814 815 816
f 817 225 818
f 496 192 795
f 508 441 293
f 746 334 749
f 820 821 822
f 823 824 825
f 97 259 826
f 456 458 827
f 642 422 421
f 825 824 828
f 829 830 240
f 247 248 368
f 418 81 477
f 247 352 153
f 832 828 833
f 82 81 417
f 604 834 786
f 282 271 270
f 836 383 251
f 837 737 459
f 809 838 839
f 182 840 841
f 620 842 574
f 575 842 517
f 649 843 668
f 282 664 281
f 199 614 200
f 280 614 199
f 279 822 203
f 70 253 252
f 184 845 377
f 846 847 848
f 849 632 631
f 360 718 361
f 850 851 852
f 143 108 110
f 90 853 756
f 27 692 854
f 651 27 854
f 203 822 844
f 281 664 104
f 317 645 855
f 383 70 856
f 817 295 237
f 557 187 568
f 51 52 568
f 13 558 18
f 749 334 215
f 562 812 561
f 63 561 61
f 494 61 561
f 858 500 425
f 349 583 3
f 691 716 664
f 30 859 292
f 8 860 6
f 529 9 7
f 861 274 487
f 445 862 863
f 95 864 96
f 143 864 95
f 865 832 414
f 444 619 866
f 567 502 430
f 867 288 124
f 823 868 869
f 870 871 420
f 796 421 871
f 421 420 871
f 147 104 103
f 731 257 872
f 833 873 832
f 873 874 832
f 746 463 334
f 335 334 463
f 876 877 878
f 879 880 881
f 522 106 105
f 426 428 510
f 157 234 442
f 397 252 254
f 546 761 697
f 35 737 560
f 884 885 886
f 885 887 886
f 175 173 888
f 889 890 448
f 712 855 713
f 317 855 274
f 855 712 274
f 8 442 234
f 576 812 562
f 393 719 375
f 318 319 891
f 318 891 181
f 75 181 891
f 892 225 817
f 200 565 893
f 85 719 393
f 611 894 251
f 83 12 11
f 514 489 149
f 514 684 489
f 684 273 489
f 386 785 834
f 410 485 895
f 896 667 776
f 667 897 776
f 850 625 851
f 625 773 851
f 107 106 445
f 65 530 43
f 898 118 139
f 898 119 118
f 898 139 518
f 898 518 119
f 818 900 899
f 367 366 189
f 137 545 94
f 94 545 101
f 376 137 92
f 901 242 162
f 902 159 350
f 904 612 58
f 612 59 58
f 904 903 612
f 337 80 378
f 338 337 378
f 42 905 54
f 700 906 56
f 688 501 907
f 707 669 460
f 909 910 617
f 56 906 54
f 836 894 506
f 546 717 762
f 146 517 140
f 308 121 908
f 609 49 48
f 851 911 852
f 257 731 255
f 731 698 255
f 761 209 697
f 762 761 546
f 326 781 327
f 247 912 399
f 610 287 75
f 913 381 451
f 858 913 451
f 733 625 624
f 914 915 452
f 383 786 79
f 916 120 122
f 475 623 684
f 919 920 434
f 318 181 645
f 181 183 645
f 507 506 894
f 418 477 506
f 899 921 276
f 13 187 557
f 276 746 899
f 746 818 899
f 746 749 818
f 921 277 276
f 921 630 277
f 921 922 630
f 48 91 923
f 609 48 923
f 924 925 926
f 925 927 926
f 214 929 928
f 181 627 182
f 710 196 5
f 930 931 875
f 932 933 934
f 594 302 935
f 593 265 41
f 935 593 594
f 265 593 935
f 442 8 9
f 936 258 835
f 937 834 478
f 386 834 937
f 79 785 386
f 583 582 364
f 584 662 582
f 938 814 939
f 553 940 941
f 239 254 24
f 239 24 237
f 772 942 773
f 498 943 499
f 944 499 945
f 499 943 945
f 429 427 946
f 445 948 549
f 342 949 950
f 812 813 951
f 813 952 951
f 587 10 171
f 347 953 685
f 373 894 611
f 954 942 910
f 942 772 910
f 157 442 155
f 441 419 439
f 735 296 278
f 187 956 957
f 958 691 28
f 586 171 545
f 125 587 376
f 401 837 459
f 475 514 474
f 265 935 727
f 785 786 834
f 926 138 960
f 115 103 102
f 727 961 266
f 962 955 639
f 735 185 296
f 674 40 398
f 789 600 599
f 401 400 966
f 901 162 967
f 460 608 707
f 668 968 969
f 122 682 970
f 942 851 773
f 585 971 972
f 585 972 973
f 972 974 973
f 975 976 298
f 896 665 667
f 944 84 83
f 131 977 152
f 977 902 152
f 743 742 978
f 742 961 978
f 93 294 263
f 379 791 380
f 881 297 663
f 979 245 371
f 202 753 170
f 979 371 370
f 980 961 388
f 980 388 266
f 441 50 419
f 647 668 981
f 668 982 981
f 151 131 152
f 107 445 549
f 263 983 984
f 355 788 517
f 985 545 137
f 986 987 792
f 988 553 941
f 464 327 908
f 464 908 121
f 734 556 112
f 989 990 991
f 651 168 409
f 854 992 651
f 993 994 995
f 651 992 168
f 241 775 734
f 230 997 764
f 763 998 999
f 975 298 1000
f 441 155 293
f 1001 385 1002
f 999 998 231
f 1003 685 14
f 1004 385 336
f 521 163 162
f 899 900 1005
f 674 38 40
f 520 603 521
f 588 751 160
f 109 1006 356
f 97 826 108
f 396 252 397
f 144 135 252
f 135 71 252
f 640 639 955
f 962 1007 1008
f 678 628 559
f 640 1009 1010
f 452 451 914
f 779 745 777
f 909 617 1011
f 518 608 119
f 357 356 1012
f 363 364 582
f 276 774 175
f 400 957 760
f 105 107 549
f 643 719 85
f 366 62 190
f 70 72 856
f 604 606 834
f 411 757 372
f 688 907 1014
f 50 722 91
f 560 737 966
f 966 737 401
f 737 837 401
f 398 145 144
f 396 144 252
f 383 1016 1015
f 217 377 218
f 92 984 454
f 375 719 190
f 190 719 505
f 1017 1018 616
f 51 325 324
f 560 966 400
f 1019 844 821
f 790 791 1020
f 989 991 1021
f 1022 1023 1024
f 287 467 75
f 327 781 1026
f 692 992 854
f 168 992 803
f 1027 835 258
f 909 879 910
f 563 1029 1028
f 345 807 806
f 554 489 273
f 803 992 184
f 317 318 645
f 997 978 764
f 935 302 764
f 935 764 727
f 764 978 727
f 961 727 978
f 1031 1032 14
f 302 304 763
f 304 998 763
f 986 1034 1035
f 278 205 357
f 649 753 202
f 649 650 753
f 698 570 512
f 896 776 532
f 686 1036 601
f 175 783 174
f 99 1037 100
f 684 514 475
f 1038 1039 4
f 559 628 345
f 602 733 163
f 191 210 721
f 210 481 721
f 216 1040 580
f 721 1040 216
f 191 721 1041
f 191 1041 189
f 1042 1043 736
f 1004 1002 385
f 410 895 911
f 1044 632 1045
f 1044 634 632
f 242 1029 652
f 1046 877 876
f 1047 1048 621
f 1049 121 310
f 240 830 566
f 1050 676 678
f 400 760 759
f 867 123 1025
f 213 354 1051
f 350 1052 36
f 1053 1054 444
f 910 804 617
f 804 615 617
f 831 1055 563
f 851 1056 663
f 851 942 1056
f 157 155 441
f 52 53 18
f 984 92 263
f 571 847 592
f 680 682 848
f 682 846 848
f 531 307 1030
f 204 938 1057
f 733 602 771
f 602 804 771
f 615 1058 616
f 411 1059 1060
f 1012 1061 259
f 1062 741 56
f 283 207 452
f 33 859 34
f 307 283 1063
f 529 68 293
f 230 999 231
f 1003 14 964
f 505 643 929
f 1064 1065 1066
f 796 871 1067
f 505 929 214
f 638 1068 1069
f 530 1070 1067
f 1071 301 167
f 792 1034 986
f 1072 41 42
f 1041 392 189
f 1074 1075 142
f 324 105 549
f 324 416 105
f 723 722 50
f 912 1076 678
f 422 1078 1079
f 479 834 598
f 834 606 598
f 1028 967 1080
f 1081 511 512
f 215 750 749
f 1082 123 344
f 476 221 477
f 221 596 477
f 598 596 221
f 80 220 221
f 1083 1084 1085
f 733 771 625
f 666 1086 303
f 1087 1054 1053
f 551 588 550
f 590 290 289
f 1088 293 68
f 841 1033 1089
f 957 402 329
f 473 453 1090
f 1091 540 49
f 1092 200 893
f 958 1093 1094
f 1093 1095 1094
f 576 562 63
f 1096 951 1097
f 951 952 1097
f 54 569 55
f 747 101 748
f 1098 154 37
f 575 600 574
f 1099 920 1100
f 926 960 924
f 960 1101 924
f 139 138 926
f 142 1075 1102
f 110 109 358
f 799 1103 1104
f 1103 1105 1104
f 305 188 822
f 911 663 410
f 1107 522 1108
f 479 598 480
f 1109 759 760
f 723 50 508
f 192 496 193
f 410 976 1110
f 739 1112 740
f 1112 1113 740
f 232 1115 1114
f 681 167 166
f 850 626 625
f 99 1116 1117
f 420 422 1118
f 422 1079 1118
f 45 166 165
f 1119 725 1120
f 1071 1121 1122
f 1030 1123 531
f 910 772 804
f 315 314 1124
f 1125 1124 1126
f 315 1124 35
f 1124 1125 35
f 1125 407 1127
f 1128 1129 1035
f 324 1130 416
f 187 957 568
f 685 1131 14
f 1035 987 986
f 609 1132 1133
f 529 66 68
f 1134 1135 193
f 1120 725 714
f 141 1136 142
f 1136 1074 142
f 192 194 780
f 203 814 938
f 1137 756 1060
f 642 689 522
f 936 835 311
f 293 709 508
f 1138 581 601
f 1139 911 895
f 530 1135 1134
f 635 1076 912
f 1140 778 702
f 389 1141 390
f 850 1142 626
f 1142 950 626
f 621 1048 246
f 1143 1144 1030
f 1145 1023 981
f 705 1108 522
f 1088 709 293
f 378 513 338
f 739 1147 1148
f 1147 198 1148
f 780 795 192
f 119 461 29
f 742 1149 961
f 928 929 643
f 747 93 101
f 1150 745 779
f 996 621 296
f 1151 700 56
f 131 151 133
f 1152 55 235
f 1000 298 262
f 298 297 262
f 167 1121 1071
f 611 251 250
f 1071 965 301
f 766 241 112
f 1030 307 1143
f 720 216 195
f 113 112 555
f 1153 409 170
f 187 114 956
f 874 1154 893
f 416 706 522
f 416 704 706
f 200 1092 198
f 307 531 306
f 1155 1156 284
f 1157 1158 565
f 1159 1087 1053
f 630 922 526
f 142 1102 143
f 1102 629 143
f 45 165 285
f 802 1160 311
f 453 455 1090
f 455 750 1090
f 1090 750 215
f 472 473 1090
f 472 1090 215
f 1161 395 159
f 395 690 159
f 1161 159 977
f 390 1141 977
f 1141 1161 977
f 1162 1163 1164
f 1062 1152 1165
f 462 832 1077
f 800 679 801
f 1121 167 681
f 1166 335 546
f 1167 1075 140
f 1168 1169 714
f 787 789 599
f 1170 311 312
f 184 992 692
f 751 22 21
f 1065 1021 955
f 1151 1172 1145
f 1173 462 1077
f 1106 1029 563
f 695 766 696
f 766 229 696
f 954 879 942
f 879 1174 942
f 152 902 36
f 368 655 835
f 1166 1175 214
f 425 1164 1163
f 1176 424 425
f 1 186 46
f 323 322 1
f 781 1177 1026
f 581 1138 843
f 1138 1178 843
f 581 843 649
f 787 517 788
f 937 24 386
f 100 675 1179
f 778 1180 702
f 322 1181 730
f 187 305 114
f 383 856 72
f 41 1072 666
f 400 402 957
f 400 759 560
f 128 225 1182
f 478 1182 225
f 227 431 228
f 430 227 429
f 1183 307 1063
f 1184 257 256
f 1185 257 1186
f 257 1184 1186
f 372 412 411
f 1187 1188 212
f 1188 156 212
f 1189 981 1022
f 981 1023 1022
f 53 549 948
f 295 1190 238
f 294 1190 295
f 944 83 1191
f 1192 1193 744
f 322 178 1181
f 965 821 301
f 27 1055 28
f 558 568 52
f 656 658 330
f 1068 799 798
f 941 791 1194
f 1195 1196 1093
f 668 843 968
f 843 1178 968
f 581 649 202
f 646 841 1197
f 841 1089 1197
f 848 1198 1122
f 1198 890 1122
f 873 1154 874
f 426 717 173
f 717 888 173
f 508 709 723
f 91 48 50
f 1199 1200 265
f 528 774 277
f 1201 635 368
f 1202 1172 1151
f 979 370 243
f 872 1203 1204
f 638 261 1103
f 261 260 1103
f 1058 615 520
f 615 603 520
f 1106 1055 652
f 743 1205 744
f 1189 648 981
f 647 981 648
f 360 1053 444
f 47 509 1
f 860 8 1206
f 8 1188 1206
f 1207 511 1208
f 511 1081 1208
f 399 912 559
f 1209 802 311
f 1210 735 278
f 188 13 820
f 77 1211 1212
f 964 14 963
f 14 16 963
f 963 16 758
f 1213 1214 1215
f 605 1015 597
f 1216 424 642
f 543 583 542
f 1214 883 882
f 76 690 395
f 607 1141 529
f 1141 754 529
f 607 7 1141
f 7 395 1141
f 389 66 1141
f 66 754 1141
f 342 244 1217
f 244 588 1217
f 1217 588 1218
f 588 457 1218
f 950 1219 245
f 462 1171 415
f 279 305 822
f 628 807 345
f 783 175 774
f 1118 437 870
f 1088 68 69
f 906 702 54
f 1221 54 1180
f 668 969 982
f 701 982 969
f 555 1004 113
f 1045 658 659
f 1071 1122 890
f 258 936 1222
f 1004 336 113
f 383 249 251
f 383 72 249
f 1013 1223 413
f 705 704 1224
f 1158 1157 1156
f 93 748 294
f 283 452 1063
f 452 915 1063
f 498 671 670
f 892 237 24
f 1225 993 1226
f 758 1227 963
f 487 712 714
f 471 1073 1228
f 577 1065 955
f 162 1229 520
f 520 1229 242
f 242 1229 162
f 1152 56 55
f 1160 853 1222
f 853 1230 1222
f 211 213 384
f 304 303 998
f 303 1086 998
f 698 512 255
f 618 1231 1232
f 1145 1172 1023
f 1172 1024 1023
f 1045 659 839
f 659 810 839
f 1193 321 513
f 1192 111 1193
f 111 321 1193
f 1233 598 622
f 598 219 622
f 1100 794 1099
f 794 578 1099
f 391 195 1234
f 350 36 902
f 559 912 678
f 1235 1189 1022
f 967 1029 242
f 423 284 145
f 788 1146 789
f 486 488 726
f 779 778 1150
f 973 974 259
f 1028 1029 967
f 634 1044 1236
f 922 918 526
f 1237 918 922
f 584 544 1169
f 1037 1123 1238
f 1123 1239 1238
f 446 232 693
f 548 1240 1187
f 1240 877 1046
f 1241 225 129
f 840 711 1033
f 328 891 319
f 75 891 610
f 1057 938 1242
f 816 1243 963
f 1244 569 54
f 1065 1064 1021
f 9 529 155
f 548 877 1240
f 410 298 976
f 867 124 123
f 6 1211 7
f 429 567 430
f 919 434 1018
f 434 436 1018
f 1242 938 939
f 799 1068 1103
f 907 1150 1245
f 1246 1247 1183
f 1247 1248 1183
f 1183 1063 1246
f 307 1183 1249
f 1249 1143 307
f 1010 838 641
f 1250 1251 1252
f 827 1253 1159
f 797 106 689
f 1254 459 799
f 939 814 1111
f 938 204 203
f 70 252 71
f 973 60 585
f 1255 657 1256
f 447 971 585
f 1257 1228 1073
f 136 284 1157
f 284 1156 1157
f 1258 859 30
f 1166 214 215
f 1259 215 335
f 1259 1166 215
f 335 1166 1259
f 566 830 708
f 1260 862 530
f 141 110 1136
f 663 911 851
f 1261 1144 1239
f 1263 903 1002
f 739 1148 873
f 1264 639 641
f 1265 65 18
f 198 1092 1148
f 1092 1154 1148
f 1154 873 1148
f 1003 964 685
f 1208 1194 1207
f 1261 1239 1123
f 54 702 1180
f 1220 1144 1266
f 1267 164 718
f 845 367 672
f 250 1147 449
f 1071 890 889
f 530 862 1070
f 530 1067 870
f 733 624 732
f 624 1268 732
f 597 598 605
f 598 606 605
f 99 1117 1123
f 1269 387 507
f 1270 672 673
f 355 517 148
f 1096 1097 471
f 1271 885 1105
f 358 109 356
f 1272 513 378
f 1235 1273 1189
f 1273 648 1189
f 680 848 1122
f 680 1122 681
f 1122 1121 681
f 169 216 541
f 480 128 1182
f 478 480 1182
f 87 86 1049
f 245 1274 371
f 258 1222 792
f 522 706 705
f 925 1275 927
f 923 1132 609
f 948 19 53
f 6 1212 1211
f 699 1257 959
f 97 96 394
f 599 575 517
f 724 1276 923
f 1277 1278 1279
f 1278 1207 1279
f 100 748 101
f 100 1179 748
f 1192 744 1205
f 652 1029 1106
f 135 284 136
f 235 1280 1152
f 1280 1165 1152
f 1281 1282 1283
f 1022 1024 1064
f 1021 1024 741
f 1021 1064 1024
f 673 391 1234
f 160 751 1052
f 637 1284 975
f 1284 404 975
f 636 1284 637
f 310 176 87
f 392 720 195
f 365 321 113
f 338 321 365
f 1285 1286 1085
f 954 910 879
f 1278 256 511
f 1287 947 1220
f 372 757 853
f 1176 1078 424
f 170 409 168
f 563 1055 1106
f 136 1157 468
f 642 1107 1186
f 112 1288 766
f 1030 1261 1123
f 426 173 172
f 1289 3 364
f 1232 1290 60
f 85 87 176
f 77 1212 78
f 179 322 316
f 512 570 1081
f 570 1291 1081
f 218 195 216
f 563 1028 831
f 969 1245 1140
f 1278 511 1207
f 1292 1104 1105
f 1292 1105 1293
f 1294 1295 819
f 963 1227 1111
f 893 1077 874
f 1296 1297 1298
f 826 1006 108
f 540 1299 419
f 744 1193 1300
f 180 149 857
f 1301 627 196
f 524 1223 1013
f 1083 875 931
f 1254 1104 402
f 1302 1303 1304
f 1103 1271 1105
f 67 130 132
f 659 657 810
f 870 420 1118
f 331 1305 332
f 1078 422 642
f 944 945 84
f 1087 1253 875
f 1159 360 361
f 1159 361 827
f 368 1027 1201
f 1027 368 835
f 533 532 503
f 1271 260 885
f 509 974 1306
f 916 1297 120
f 1067 1070 445
f 702 906 700
f 701 969 702
f 969 1140 702
f 1077 1158 1173
f 292 859 33
f 444 877 548
f 444 878 877
f 1045 839 1307
f 839 838 1307
f 1284 1308 1309
f 1308 653 1309
f 1309 653 363
f 636 1308 1284
f 99 539 1116
f 1128 1034 1129
f 682 122 846
f 1108 1310 1107
f 1099 578 434
f 578 435 434
f 1109 956 114
f 78 536 76
f 1251 889 448
f 1251 965 889
f 1021 1311 989
f 1011 436 1007
f 260 262 887
f 262 1312 887
f 809 839 810
f 618 1232 96
f 213 1051 384
f 884 811 1255
f 811 810 1255
f 1213 1155 1313
f 1289 364 653
f 813 576 952
f 576 1314 952
f 363 405 1309
f 1284 405 404
f 1309 405 1284
f 1315 806 807
f 554 755 1316
f 755 433 1316
f 1317 836 595
f 836 506 595
f 1318 1267 718
f 471 952 1073
f 816 1319 1243
f 1047 150 1320
f 222 1321 346
f 346 1321 539
f 1321 1116 539
f 206 1321 222
f 206 1116 1321
f 354 1146 355
f 314 313 1320
f 1070 862 445
f 1226 39 1225
f 39 1322 1225
f 164 1095 1196
f 741 1172 1202
f 575 574 842
f 426 172 427
f 1290 1323 60
f 60 1323 232
f 232 1323 1115
f 540 1115 1299
f 1115 1323 1299
f 327 1026 1324
f 790 1020 1325
f 534 1326 1327
f 895 1274 1219
f 1295 20 819
f 96 864 629
f 392 673 672
f 947 1287 1322
f 945 222 84
f 1088 723 709
f 639 1264 881
f 920 1099 434
f 326 464 1296
f 424 1164 425
f 873 833 1328
f 833 828 1328
f 889 965 1071
f 31 30 351
f 1221 1180 777
f 1180 778 777
f 146 148 517
f 1101 960 1136
f 1209 370 802
f 1135 530 870
f 1161 1141 395
f 448 890 573
f 573 890 1198
f 573 1198 571
f 848 571 1198
f 1285 1085 1084
f 1170 312 37
f 955 1008 577
f 1008 578 577
f 901 967 242
f 1100 589 794
f 1033 711 801
f 1139 1142 852
f 1179 1190 748
f 1190 294 748
f 1207 1194 1279
f 1329 561 1096
f 561 812 1096
f 370 372 802
f 849 631 933
f 1220 1239 1144
f 289 1273 590
f 1273 591 590
f 238 1190 1179
f 895 485 1274
f 1268 949 342
f 798 1069 1068
f 226 428 227
f 428 429 227
f 946 1330 566
f 1050 1089 676
f 548 1187 115
f 285 43 45
f 755 554 486
f 1243 1319 1331
f 734 528 527
f 121 538 1042
f 433 755 348
f 1240 1046 1206
f 1046 860 1206
f 89 1129 1034
f 537 1042 538
f 1331 1319 1252
f 1319 1250 1252
f 1331 1332 685
f 685 1332 572
f 1332 1252 573
f 572 1332 573
f 448 573 1251
f 1252 1251 573
f 415 414 462
f 313 34 859
f 1333 1334 325
f 657 1255 810
f 377 845 218
f 845 1270 218
f 540 1114 1115
f 1335 1200 1199
f 963 1243 964
f 881 1174 879
f 564 1157 565
f 1336 792 1337
f 893 1154 1092
f 1334 1130 324
f 42 897 667
f 797 689 642
f 23 1209 1170
f 238 1179 675
f 1006 826 1061
f 149 996 857
f 1017 616 1058
f 1017 1338 919
f 263 729 983
f 102 715 547
f 204 1339 359
f 637 261 638
f 637 975 261
f 975 1000 261
f 1340 542 348
f 758 17 925
f 638 1103 1068
f 110 1242 939
f 381 1277 1279
f 1270 673 1234
f 301 821 820
f 658 1045 632
f 535 536 690
f 1341 132 1276
f 132 1132 1276
f 1231 1290 1232
f 454 984 455
f 1318 619 547
f 429 946 567
f 291 1153 170
f 1166 546 1175
f 1050 1342 1197
f 792 1222 1034
f 946 427 1330
f 427 172 1330
f 713 987 1035
f 644 1343 1344
f 1343 987 1344
f 188 820 822
f 96 1232 394
f 23 22 1209
f 22 370 1209
f 1167 1345 1075
f 1345 1102 1075
f 1143 994 993
f 886 887 1312
f 564 614 1157
f 614 468 1157
f 246 1048 1258
f 1269 894 373
f 1101 1227 924
f 840 627 711
f 503 504 533
f 640 1010 641
f 1250 1319 1346
f 542 725 1119
f 274 712 487
f 1340 348 725
f 348 726 725
f 714 725 488
f 488 487 714
f 392 672 189
f 836 251 894
f 296 730 1181
f 1296 464 1297
f 464 120 1297
f 392 391 673
f 1347 1348 1113
f 369 153 154
f 36 154 152
f 977 159 902
f 502 708 504
f 503 745 907
f 745 1150 907
f 595 597 1015
f 703 1280 235
f 1343 1337 987
f 1054 878 444
f 1241 1237 900
f 1349 1350 914
f 412 372 371
f 870 1067 871
f 1196 1095 1093
f 1351 941 940
f 1312 1264 886
f 881 1264 1312
f 626 950 949
f 876 1054 1085
f 1054 1083 1085
f 1158 1156 1215
f 1156 1155 1215
f 1046 876 860
f 876 1352 860
f 955 962 1008
f 410 1110 1059
f 1353 612 917
f 1289 4 3
f 330 493 656
f 924 1227 925
f 1024 1172 741
f 450 332 1305
f 472 214 333
f 691 1094 716
f 1094 1267 716
f 1354 1136 138
f 1136 960 138
f 1223 1355 413
f 1173 1215 882
f 822 821 844
f 305 279 351
f 916 970 1297
f 1061 826 259
f 1088 69 724
f 1010 1009 1356
f 484 1274 485
f 1294 1260 530
f 985 137 587
f 137 376 587
f 1192 1205 111
f 1205 1288 111
f 111 1288 112
f 915 1246 1063
f 433 2 150
f 1038 653 1308
f 916 122 970
f 1263 555 1357
f 245 1219 1274
f 327 1324 908
f 433 348 2
f 1010 1356 838
f 1307 838 1356
f 1109 560 759
f 703 1204 1280
f 388 1149 1358
f 1277 381 913
f 1113 374 740
f 399 559 288
f 993 1225 1143
f 781 780 1177
f 888 335 463
f 876 878 1054
f 1031 1131 469
f 1131 953 469
f 309 176 310
f 1269 507 894
f 975 404 1110
f 928 643 177
f 686 601 687
f 714 544 1120
f 382 523 1349
f 523 1350 1349
f 133 1132 132
f 1158 1215 1173
f 109 108 1006
f 835 655 311
f 311 655 312
f 1187 1240 1206
f 605 786 383
f 1354 1075 1136
f 1075 1074 1136
f 1136 110 939
f 1136 939 1101
f 796 1067 797
f 1067 1359 797
f 797 1359 106
f 445 106 1359
f 1224 1360 1304
f 1360 1302 1304
f 820 286 301
f 15 14 1361
f 704 1362 1224
f 1362 1360 1224
f 1034 1222 1230
f 90 89 1230
f 89 1034 1230
f 1230 853 90
f 1035 1129 713
f 178 996 296
f 414 832 462
f 581 793 483
f 7 1211 395
f 819 1260 1294
f 1260 819 863
f 1260 863 862
f 91 722 923
f 724 69 1341
f 67 132 1341
f 724 923 722
f 683 1297 166
f 1297 970 166
f 1103 260 1271
f 932 1363 1130
f 1170 37 36
f 838 809 641
f 809 1364 641
f 790 1325 380
f 1325 1020 869
f 1020 1199 869
f 1365 1305 177
f 335 888 717
f 194 1135 340
f 1135 194 193
f 470 347 592
f 663 1366 881
f 1335 1351 41
f 265 264 1199
f 383 1015 605
f 1009 991 1356
f 991 990 1356
f 1326 830 829
f 1224 1108 705
f 567 946 566
f 780 1367 1177
f 18 53 19
f 247 635 912
f 496 1298 362
f 795 1298 496
f 1322 39 38
f 1265 18 20
f 224 654 1368
f 943 208 945
f 1369 1351 1335
f 239 1370 254
f 394 1232 60
f 842 1345 517
f 1117 1116 206
f 1107 642 522
f 995 1371 1313
f 551 457 588
f 1372 1311 741
f 989 767 990
f 633 1373 934
f 1373 932 934
f 805 806 465
f 806 466 465
f 460 461 119
f 93 94 101
f 1221 897 1374
f 210 482 481
f 580 1040 793
f 793 1040 481
f 1040 721 481
f 580 793 581
f 581 483 601
f 1296 1298 326
f 326 1298 795
f 683 1298 1297
f 591 1273 1235
f 1330 770 566
f 552 550 930
f 552 930 875
f 175 888 463
f 329 491 493
f 242 652 408
f 1250 1346 1375
f 1346 1019 1375
f 1160 1222 936
f 657 656 492
f 656 493 492
f 973 394 60
f 586 545 587
f 545 985 587
f 932 1130 933
f 630 526 277
f 88 90 1137
f 90 756 1137
f 164 1196 162
f 342 1376 361
f 1163 858 425
f 477 595 506
f 330 329 493
f 160 1052 158
f 944 1191 499
f 1311 1021 741
f 741 1062 1372
f 1187 1206 1188
f 1188 8 234
f 657 492 1256
f 1311 1372 768
f 1270 1234 195
f 266 1347 264
f 28 1055 831
f 652 1055 27
f 1083 931 1084
f 1333 325 330
f 140 1075 138
f 517 1345 1167
f 629 864 143
f 919 1377 920
f 579 591 1378
f 635 1201 1379
f 1201 1380 1379
f 1249 1183 994
f 214 738 505
f 1042 736 121
f 291 290 590
f 1185 872 257
f 408 652 651
f 884 1293 885
f 1293 1105 885
f 884 1255 1293
f 1255 1256 1293
f 1104 1381 402
f 1381 491 402
f 818 1241 900
f 952 1314 320
f 1031 14 1131
f 670 451 207
f 1205 766 1288
f 1215 1214 882
f 1306 1 509
f 450 308 908
f 78 1212 536
f 1163 913 858
f 555 556 1357
f 1361 14 1257
f 14 1032 1257
f 1032 1031 1257
f 1031 1228 1257
f 1257 267 1361
f 267 15 1361
f 237 892 817
f 892 478 225
f 478 892 937
f 892 24 937
f 498 500 671
f 671 500 858
f 498 670 943
f 451 671 858
f 568 957 329
f 632 1382 658
f 1382 330 658
f 510 226 762
f 1119 544 542
f 1383 550 536
f 1383 930 550
f 1130 1363 416
f 933 1334 1382
f 1334 1333 1382
f 849 933 1382
f 693 343 806
f 232 1114 344
f 1383 1084 931
f 1323 1384 1385
f 1210 278 186
f 1050 678 1076
f 344 1091 1386
f 115 1187 211
f 211 1187 406
f 921 899 1005
f 1292 1381 1104
f 1292 1293 1256
f 1292 1256 1381
f 1243 1331 685
f 260 887 885
f 297 1312 262
f 716 1267 1318
f 1094 1095 1267
f 1387 1078 1176
f 1336 1379 1380
f 1218 1376 342
f 1283 1282 1367
f 1282 1026 1367
f 1109 114 560
f 1301 196 711
f 947 1238 1220
f 517 1167 140
f 685 964 1243
f 1294 64 1295
f 1241 129 515
f 697 738 546
f 589 591 794
f 35 1127 737
f 77 395 1211
f 254 1370 397
f 312 1098 37
f 948 863 19
f 1277 913 1162
f 913 1163 1162
f 1277 1162 1278
f 323 465 467
f 801 679 676
f 1364 886 1264
f 1388 1364 809
f 884 886 1388
f 886 1364 1388
f 884 1388 811
f 1388 809 811
f 1389 285 286
f 519 1025 49
f 455 984 983
f 1139 895 1142
f 21 1052 751
f 988 1390 42
f 988 941 1208
f 941 1194 1208
f 1088 724 723
f 426 510 717
f 717 510 762
f 314 1391 1124
f 1391 1392 1124
f 1393 1368 184
f 13 286 820
f 948 445 863
f 730 296 185
f 677 679 808
f 5 196 710
f 266 1348 1347
f 1278 1162 256
f 1162 1394 256
f 256 1394 1184
f 525 380 1325
f 601 1395 430
f 1067 445 1359
f 516 1396 515
f 1396 1262 515
f 156 1188 234
f 1187 212 406
f 776 897 777
f 777 897 1221
f 752 753 289
f 753 650 289
f 1109 957 956
f 1109 760 957
f 1078 642 424
f 37 154 36
f 1349 381 382
f 1363 704 416
f 669 952 320
f 646 182 841
f 855 1344 1397
f 1344 987 1397
f 621 996 1047
f 238 675 1370
f 1037 99 1123
f 100 1037 1238
f 300 43 18
f 1150 778 1245
f 778 1140 1245
f 291 752 289
f 1358 742 1272
f 742 1300 1272
f 763 999 230
f 1009 955 991
f 1249 994 1143
f 816 963 1111
f 824 1328 828
f 874 1077 832
f 1383 536 1285
f 536 1212 1285
f 699 267 1257
f 959 1257 1073
f 1310 1185 1186
f 1310 1186 1107
f 148 1051 354
f 634 1236 1398
f 1236 990 1398
f 178 322 179
f 1233 480 598
f 208 206 222
f 42 667 666
f 100 1238 674
f 430 687 601
f 197 74 75
f 74 1399 75
f 623 316 1399
f 1324 1400 908
f 908 1400 450
f 791 941 1020
f 941 1351 1020
f 1401 917 903
f 54 905 1244
f 450 1400 1282
f 403 405 1059
f 405 1402 1059
f 67 1341 69
f 973 259 394
f 1125 1126 407
f 311 1170 1209
f 1213 1215 1155
f 402 459 1254
f 80 221 476
f 54 1221 1374
f 158 1052 350
f 170 752 291
f 736 1096 592
f 903 904 1002
f 904 1001 1002
f 904 58 337
f 904 337 1001
f 1001 337 385
f 1191 83 437
f 244 243 370
f 244 370 22
f 979 243 245
f 604 786 605
f 909 1011 879
f 782 1384 1403
f 798 459 407
f 798 407 1069
f 1253 552 875
f 457 551 458
f 551 552 458
f 1341 1276 724
f 1276 1132 923
f 728 263 295
f 362 45 193
f 363 1137 1060
f 531 1117 306
f 1404 997 743
f 1216 642 1186
f 343 693 344
f 1241 818 225
f 1335 1199 1020
f 438 340 437
f 363 661 1137
f 770 174 240
f 1322 1287 1225
f 787 599 517
f 1226 995 39
f 1231 1403 1290
f 313 859 1258
f 1405 1282 587
f 1282 1281 587
f 635 1379 1076
f 857 178 180
f 1395 431 430
f 816 1111 814
f 365 336 338
f 295 817 784
f 1120 544 1119
f 662 1168 660
f 1168 1129 660
f 1267 1095 164
f 341 1 322
f 323 972 465
f 1282 1400 1324
f 1404 978 997
f 388 961 1149
f 893 565 1077
f 1077 565 1158
f 1102 1345 620
f 620 1345 842
f 620 629 1102
f 41 1200 1335
f 1200 41 265
f 1369 1020 1351
f 1369 1335 1020
f 175 463 276
f 1349 451 381
f 1406 65 64
f 757 756 853
f 64 20 1295
f 65 20 64
f 676 1033 801
f 1072 42 666
f 531 1123 1117
f 306 1117 206
f 369 1098 312
f 369 154 1098
f 133 1133 1132
f 352 1133 151
f 1133 133 151
f 609 1133 352
f 600 213 782
f 1383 1285 1084
f 6 1286 1212
f 1286 1285 1212
f 41 940 553
f 959 952 699
f 342 1217 1218
f 456 1218 457
f 849 1382 632
f 311 1160 936
f 1397 713 855
f 555 1263 1004
f 1401 918 917
f 1268 361 718
f 314 1320 1391
f 150 1391 1320
f 1197 1089 1050
f 1057 1242 1339
f 806 1315 466
f 1334 933 1130
f 1039 1069 407
f 407 4 1039
f 636 638 1039
f 638 1069 1039
f 636 1039 1308
f 1039 1038 1308
f 1126 4 407
f 4 1289 1038
f 653 1038 1289
f 4 1126 1392
f 1124 1392 1126
f 686 688 1036
f 688 1014 1036
f 469 1228 1031
f 863 20 19
f 819 20 863
f 54 1374 42
f 1374 897 42
f 1291 1244 1407
f 1244 905 1407
f 683 362 1298
f 413 415 1171
f 149 490 432
f 379 1279 791
f 1279 1194 791
f 1397 987 713
f 782 1385 1384
f 423 1313 284
f 1313 1155 284
f 379 381 1279
f 1324 1026 1282
f 980 266 961
f 1367 780 194
f 1311 768 989
f 768 767 989
f 681 166 682
f 166 970 682
f 1404 743 978
f 41 1351 940
f 997 230 765
f 347 470 953
f 1203 1303 1204
f 1304 1303 1203
f 1185 1310 872
f 1310 1203 872
f 1108 1304 1310
f 1304 1203 1310
f 1224 1304 1108
f 1204 703 872
f 703 731 872
f 184 1368 654
f 52 18 558
f 225 128 129
f 624 626 1268
f 626 949 1268
f 827 458 1253
f 458 552 1253
f 915 914 1013
f 915 1013 1246
f 469 471 1228
f 160 536 550
f 403 1059 404
f 1059 1110 404
f 405 363 1060
f 1059 1402 1060
f 950 245 342
f 499 1387 500
f 1387 1176 500
f 1176 425 500
f 669 707 699
f 490 554 432
f 554 1316 432
f 1007 962 880
f 1011 1007 879
f 1007 880 879
f 639 880 962
f 881 880 639
f 355 1146 788
f 141 143 110
f 1331 1252 1332
f 1299 1385 419
f 419 1385 782
f 1299 1323 1385
f 1405 587 450
f 1405 450 1282
f 41 303 594
f 601 483 1395
f 431 1395 483
f 218 1270 195
f 860 1286 6
f 699 952 669
f 42 553 988
f 988 1208 1390
f 1291 1390 1081
f 933 631 934
f 631 633 934
f 704 1363 1362
f 1363 932 1362
f 467 466 1315
f 644 1408 1343
f 1408 1337 1343
f 486 554 487
f 554 861 487
f 1159 1053 360
f 1347 869 264
f 396 398 144
f 1081 1390 1208
f 825 1223 1409
f 825 828 1223
f 828 1355 1223
f 828 865 1355
f 865 414 1355
f 1355 414 413
f 926 927 139
f 644 1344 645
f 855 645 1344
f 1237 1005 900
f 1409 1223 524
f 1268 342 361
f 1268 718 164
f 732 164 163
f 732 1268 164
f 1381 1256 491
f 1256 492 491
f 329 402 491
f 1263 1357 903
f 1263 1002 1004
f 417 1272 82
f 1300 1193 1272
f 1193 513 1272
f 1383 931 930
f 955 1009 640
f 478 834 479
f 692 1410 184
f 184 1410 1393
f 1393 1410 692
f 995 994 1248
f 953 1131 685
f 536 160 690
f 641 1364 1264
f 1014 1178 1036
f 691 958 1094
f 148 384 1051
f 525 1409 524
f 914 451 1349
f 914 1350 1013
f 524 1013 1350
f 524 1350 523
f 21 23 1052
f 23 36 1052
f 23 1170 36
f 1307 1356 1236
f 1356 990 1236
f 1398 990 769
f 990 767 769
f 1320 1048 1047
f 818 1411 817
f 817 1411 784
f 784 1411 728
f 1411 729 728
f 983 729 1412
f 867 1025 519
f 739 449 1147
f 602 603 1413
f 556 527 1357
f 527 1401 1357
f 860 1352 1286
f 1352 1085 1286
f 1201 1027 1380
f 792 987 1337
f 1352 876 1085
f 601 1036 1138
f 456 827 1376
f 1376 827 361
f 782 1403 600
f 1305 176 309
f 450 1305 309
f 308 450 309
f 372 853 802
f 1370 675 674
f 566 708 567
f 672 367 189
f 509 259 974
f 974 323 1
f 974 972 323
f 229 231 696
f 627 1301 711
f 1342 1408 1197
f 1408 644 1197
f 1336 1337 1408
f 1336 1380 792
f 345 806 343
f 1143 1225 1266
f 995 1226 993
f 1287 1266 1225
f 718 866 1318
f 239 238 1370
f 397 1370 674
f 591 1235 1378
f 1065 577 1414
f 577 579 1414
f 579 1378 1414
f 1065 1414 1066
f 1414 1378 1066
f 1064 1066 1415
f 1066 1378 1415
f 1022 1415 1235
f 1415 1378 1235
f 1022 1064 1415
f 1367 1416 1283
f 1177 1367 1026
f 1281 1283 587
f 1283 1417 587
f 1283 1416 10
f 972 971 465
f 805 465 971
f 805 971 447
f 1373 1418 1360
f 633 769 1373
f 769 1418 1373
f 1280 1419 1420
f 768 1420 769
f 1420 1419 769
f 1372 1420 768
f 1372 1062 1420
f 1062 1165 1420
f 1420 1165 1280
f 246 1258 30
f 617 1018 1011
f 1018 436 1011
f 1389 13 18
f 1389 286 13
f 1389 1421 285
f 18 1421 1389
f 1421 18 43
f 1421 43 285
f 1422 1272 417
f 116 211 384
f 742 1358 1149
f 744 1300 742
f 259 1423 1012
f 1012 1423 509
f 509 1423 259
f 278 1012 509
f 278 357 1012
f 564 200 614
f 1113 1348 374
f 1348 266 374
f 1424 1347 1113
f 1424 1113 1112
f 1425 823 1347
f 823 869 1347
f 853 1160 802
f 1368 223 224
f 1368 1393 223
f 1393 692 223
f 765 743 997
f 975 1110 976
f 674 398 397
f 299 298 663
f 241 766 695
f 743 765 1205
f 765 766 1205
f 530 1134 44
f 193 44 1134
f 1135 870 340
f 437 340 870
f 374 387 373
f 387 1269 373
f 1015 1016 1317
f 1016 836 1317
f 1016 383 836
f 1015 1317 595
f 456 1376 1218
f 883 1426 882
f 883 1248 1426
f 1049 310 87
f 1049 538 121
f 86 393 495
f 86 85 393
f 86 538 1049
f 1365 177 176
f 592 847 736
f 1427 847 122
f 847 846 122
f 571 848 847
f 1093 958 28
f 162 1080 967
f 1028 1080 831
f 1080 1093 831
f 28 831 1093
f 1195 162 1196
f 1195 1080 162
f 1195 1093 1080
f 1062 56 1152
f 494 561 1329
f 470 1096 471
f 484 1428 1274
f 484 410 412
f 484 412 1428
f 371 1428 412
f 371 1274 1428
f 438 339 340
f 792 1380 258
f 258 1380 1027
f 651 409 408
f 272 274 554
f 274 861 554
f 1241 515 1262
f 191 738 697
f 302 594 303
f 665 998 666
f 998 1086 666
f 1021 991 955
f 1073 952 959
f 437 1118 1191
f 1169 544 714
f 662 584 1168
f 584 1169 1168
f 1168 714 1129
f 1128 1035 1034
f 713 1129 714
f 1183 1248 994
f 320 1314 576
f 758 925 1227
f 501 503 907
f 527 556 734
f 995 1248 883
f 296 1181 178
f 1354 138 1075
f 1384 1323 1403
f 1323 1290 1403
f 1327 1429 534
f 694 696 1327
f 696 1429 1327
f 504 534 533
f 694 1327 829
f 1327 1326 829
f 998 1429 231
f 504 708 534
f 708 1326 534
f 557 568 558
f 1396 917 918
f 1396 918 1237
f 1396 1237 1262
f 1353 1396 612
f 1396 613 612
f 59 613 516
f 613 1396 516
f 1353 917 1396
f 1041 721 392
f 721 720 392
f 590 1153 291
f 1394 1162 1164
f 1184 1394 1430
f 1394 1164 1430
f 1430 1164 424
f 1216 1430 424
f 1186 1184 1430
f 1017 919 1018
f 388 1422 387
f 82 1272 378
f 600 1146 213
f 354 213 1146
f 439 782 213
f 1006 1061 356
f 1061 1012 356
f 358 1242 110
f 674 1238 38
f 38 1238 947
f 1231 618 1403
f 1313 39 995
f 39 1313 423
f 850 852 1142
f 895 1219 1142
f 1219 950 1142
f 1139 852 911
f 1431 17 15
f 89 660 1129
f 696 231 1429
f 1171 462 1173
f 1210 186 735
f 117 148 147
f 117 384 148
f 832 865 828
f 1340 725 542
f 800 808 679
f 800 196 808
f 845 672 1270
f 845 184 367
f 1251 1250 1375
f 1251 1375 965
f 945 208 222
f 546 738 1175
f 1175 738 214
f 1406 1294 530
f 1241 1262 1237
f 921 1005 922
f 922 1005 1237
f 1018 617 616
f 1333 330 1382
f 650 648 289
f 1273 289 648
f 88 1137 661
f 1060 756 411
f 1082 344 1386
f 1083 1054 1087
f 1083 1087 875
f 807 628 677
f 499 1191 1387
f 1118 1079 1191
f 1079 1078 1191
f 1078 1387 1191
f 1326 708 830
f 534 1429 1432
f 896 532 1432
f 532 534 1432
f 896 1432 665
f 665 1432 998
f 1432 1429 998
f 264 869 1199
f 1346 1319 815
f 1319 816 815
f 996 178 857
f 407 737 1127
f 1125 1127 35
f 1401 903 1357
f 1358 1272 388
f 1272 1422 388
f 736 122 121
f 1427 736 847
f 736 1427 122
f 1178 1138 1036
f 739 873 1112
f 1328 1425 873
f 1425 1112 873
f 824 1425 1328
f 1339 204 1057
f 1 1306 974
f 405 1060 1402
f 411 1433 1059
f 1059 1433 410
f 410 1433 411
f 1242 358 1339
f 430 502 687
f 501 687 502
f 523 382 380
f 1019 821 965
f 1019 965 1375
f 815 1019 1346
f 844 1019 1434
f 1434 815 844
f 815 814 203
f 815 203 844
f 331 333 1435
f 214 928 1435
f 214 1435 333
f 1435 928 331
f 1266 1287 1220
f 1266 1144 1143
f 800 711 710
f 800 710 196
f 566 770 240
f 1330 172 770
f 1254 799 1104
f 715 716 547
f 716 1318 547
f 866 619 1318
f 718 443 866
f 619 444 548
f 866 443 444
f 634 1398 1436
f 634 1436 633
f 633 1436 769
f 1398 769 1436
f 1145 981 982
f 1202 56 741
f 1202 1151 56
f 700 1151 701
f 701 1151 982
f 1151 1145 982
f 1334 324 325
f 587 1417 10
f 10 1417 1283
f 194 1416 1367
f 10 1416 194
f 1246 1013 1247
f 1171 1426 413
f 882 1426 1171
f 1247 1013 1426
f 413 1426 1013
f 1431 15 268
f 75 1399 287
f 623 1399 74
f 467 287 323
f 1399 316 287
f 197 75 5
f 1406 530 65
f 1406 64 1294
f 467 808 75
f 75 196 5
f 808 196 75
f 240 695 829
f 694 829 695
f 695 240 241
f 1437 174 783
f 1437 783 775
f 1437 241 174
f 1437 775 241
f 1220 1238 1239
f 812 951 1096
f 1097 952 471
f 494 1329 537
f 592 1096 470
f 1045 1307 1236
f 1236 1044 1045
f 1407 905 42
f 42 1390 1407
f 1291 1407 1390
f 1365 176 1305
f 578 1008 435
f 1008 1007 435
f 1007 436 435
f 417 507 387
f 1431 268 518
f 17 1431 925
f 1431 1275 925
f 518 1275 1431
f 139 927 1275
f 1275 518 139
f 1329 1043 537
f 1043 1042 537
f 736 1043 1096
f 1096 1043 1329
f 303 41 666
f 1424 1425 1347
f 953 470 469
f 1216 1186 1430
f 1438 408 409
f 1100 920 1439
f 920 1440 1439
f 1439 1440 1441
f 1438 1153 1439
f 1153 590 1439
f 182 627 840
f 359 1339 358
f 1362 932 1373
f 1362 1373 1360
f 1419 1442 769
f 1442 1418 769
f 1360 1418 1442
f 1442 1419 1280
f 1302 1204 1303
f 1442 1302 1360
f 1280 1204 1442
f 1204 1302 1442
f 1214 1213 1371
f 1213 1313 1371
f 995 1214 1371
f 883 1214 995
f 198 1147 250
f 198 250 199
f 328 610 891
f 150 1443 1391
f 2 1443 150
f 1424 1112 1425
f 1265 20 65
f 1315 807 467
f 467 807 808
f 527 526 918
f 1087 1159 1253
f 1392 1391 1443
f 1392 1443 4
f 4 1443 2
f 509 47 278
f 278 47 46
f 1030 1144 1261
f 116 384 117
f 1050 1076 1342
f 1076 1379 1342
f 313 1258 1320
f 1258 1048 1320
f 1305 331 177
f 331 928 177
f 644 646 1197
f 841 840 1033
f 1089 1033 676
f 1379 1336 1342
f 1401 527 918
f 615 1413 603
f 615 804 1413
f 1413 804 602
f 387 1422 417
f 600 1403 574
f 574 1403 618
f 1025 1091 49
f 438 11 339
f 1173 882 1171
f 589 1439 590
f 408 1438 1441
f 1441 1438 1439
f 409 1153 1438
f 1377 1441 920
f 1441 1440 920
f 1441 242 408
f 1100 1439 589
f 1247 1426 1248
f 1017 1058 1338
f 919 1338 1377
f 1338 1441 1377
f 1058 520 1338
f 520 1444 1338
f 1444 520 242
f 1441 1444 242
f 1338 1444 1441
f 149 1047 996
f 612 903 917
f 1409 868 825
f 868 823 825
f 525 1325 1409
f 1325 868 1409
f 869 868 1325
f 663 1056 1366
f 942 1174 1366
f 1366 1174 881
f 942 1366 1056
f 881 1312 1445
f 1445 297 881
f 297 1445 1312
f 749 455 983
f 983 1412 749
f 1412 818 749
f 818 1412 1411
f 1412 729 1411
f 1227 1101 939
f 1111 1227 939
f 1446 1178 907
f 1178 1014 907
f 968 1178 1446
f 1245 1446 907
f 969 968 1245
f 968 1446 1245
f 789 1146 600
f 1025 1386 1091
f 344 1114 1091
f 1082 1386 1025
f 540 1091 1114
f 867 519 288
f 1425 824 823
f 1233 128 480
f 815 1434 1019
f 433 432 1316
f 947 1322 38
f 1342 1336 1408
f 670 207 943
f 207 208 943
f 1082 1025 123
f 1047 149 150
f 1233 622 128
f 569 1244 1291
f 977 131 390
f 347 572 592
f 1000 262 261
f 570 569 1291
