v -0.254121 -0.066529 -0.296032
v -0.238861 0.109582 -0.035320
v -0.234021 0.110195 -0.026286
v -0.214653 0.117897 -0.066929
v -0.089721 0.047292 -0.284415
v -0.071760 0.063143 -0.262823
v -0.055051 0.044867 -0.277559
v 0.227353 -0.092489 -0.298068
v 0.230123 -0.101766 -0.273613
v 0.182494 -0.114524 -0.277748
v 0.174032 -0.024515 0.030670
v 0.177993 -0.034096 0.000855
v 0.192725 -0.033885 0.011934
v 0.250913 0.061914 0.289339
v 0.253033 0.028022 0.312127
v 0.271591 0.032569 0.282656
v -0.006369 -0.048244 -0.184346
v -0.003980 -0.034387 -0.144142
v -0.002546 0.117657 -0.118639
v -0.003980 0.114951 -0.144142
v -0.178926 -0.043774 0.309023
v -0.194891 -0.043024 0.295876
v -0.170720 -0.048334 0.290285
v 0.298628 -0.011426 -0.161729
v 0.307995 0.022633 -0.161720
v -0.028898 0.045270 0.023521
v 0.148551 -0.016937 0.032244
v 0.130370 -0.007130 0.074123
v 0.134053 -0.009260 0.034126
v -0.136542 0.062664 0.313824
v 0.269361 0.065636 0.239488
v -0.138223 -0.022612 0.327914
v -0.135733 -0.017701 0.329757
v -0.142904 -0.000099 0.349496
v -0.177586 -0.031667 0.051787
v -0.187409 -0.034427 0.053021
v -0.182807 -0.034918 0.039659
v -0.114730 0.040996 0.302110
v -0.108270 0.037485 0.290016
v -0.125758 0.064646 0.293573
v 0.265112 0.028093 -0.321564
v 0.263998 0.057881 -0.307342
v 0.286012 0.033507 -0.297763
v -0.134718 -0.021063 0.325462
v -0.110369 -0.012200 0.288008
v -0.112099 0.011827 0.309155
v 0.184028 -0.122591 -0.249300
v -0.011729 0.043507 -0.274630
v 0.160857 -0.026878 0.004386
v -0.153971 -0.043238 0.308475
v -0.166458 -0.043797 0.311746
v -0.168489 -0.051381 0.273702
v 0.031544 0.017360 -0.298496
v 0.020535 0.023954 -0.292918
v 0.032520 0.044798 -0.282940
v -0.108748 -0.086547 -0.179565
v -0.123144 -0.101820 -0.183170
v -0.111744 -0.094386 -0.200996
v 0.157617 -0.018984 -0.360426
v 0.179917 -0.030423 -0.365451
v 0.151495 -0.041586 -0.351265
v -0.190094 -0.133338 -0.113581
v -0.157344 -0.121820 -0.114926
v -0.190327 -0.123587 -0.093953
v 0.080417 -0.051945 -0.149288
v 0.064621 -0.044637 -0.148238
v 0.186094 0.095442 -0.255630
v 0.188106 0.106519 -0.224124
v 0.177268 0.064303 0.275338
v 0.168142 0.066552 0.254573
v 0.247137 0.086644 0.219654
v 0.217191 0.093160 0.236286
v -0.103474 0.088627 0.088376
v -0.130102 0.111326 0.060321
v -0.251188 0.079418 -0.261909
v -0.198118 0.095877 -0.232513
v -0.199681 0.083380 -0.258855
v -0.010014 -0.064122 -0.246230
v 0.005204 -0.064589 -0.249599
v -0.008758 -0.062101 -0.224551
v -0.090868 0.108304 -0.180564
v -0.142582 0.114955 -0.158947
v -0.102904 0.115956 -0.138036
v 0.213352 -0.051543 0.198254
v 0.210294 -0.047789 0.155816
v 0.269873 -0.038971 0.180928
v -0.177841 0.108317 -0.196596
v -0.194167 0.114468 -0.166881
v -0.158804 0.111553 -0.182250
v 0.254231 0.018606 -0.332265
v 0.240949 -0.003606 -0.344250
v 0.225144 0.020424 -0.345083
v -0.267033 0.040226 0.108355
v -0.268121 0.053072 0.063550
v -0.273388 0.023311 0.062099
v 0.248374 0.104617 0.103316
v 0.207407 0.116953 0.084934
v 0.210368 0.113955 0.130207
v 0.166821 -0.029779 0.087501
v 0.203375 -0.038065 0.071237
v 0.002642 0.010755 -0.031165
v 0.042861 0.018582 -0.014599
v 0.004890 0.032127 0.006863
v -0.256627 0.077625 -0.262289
v -0.261634 0.056137 -0.287640
v -0.281751 0.058499 -0.274504
v -0.303120 0.080290 -0.124946
v -0.291594 0.092229 -0.125500
v 0.279871 0.073862 0.121173
v 0.280277 0.075795 0.091352
v -0.138123 -0.041255 0.294553
v -0.075496 -0.000114 -0.022924
v -0.095275 -0.008637 -0.016154
v -0.083230 -0.014288 -0.041593
v 0.219609 -0.044233 0.288515
v 0.206820 -0.043646 0.286765
v 0.217045 -0.051817 0.250505
v -0.190776 -0.137812 -0.134268
v -0.217085 -0.131304 -0.132632
v -0.191562 -0.137091 -0.154304
v 0.296869 0.018616 0.168316
v 0.294602 0.039582 0.149689
v 0.292481 0.039135 0.187217
v 0.065907 0.115467 -0.148244
v 0.030964 0.115209 -0.146193
v 0.275205 -0.032265 -0.003258
v 0.249274 -0.051820 -0.029344
v 0.252534 -0.044795 0.000911
v -0.058519 0.012247 -0.014724
v -0.035121 0.020689 -0.009885
v -0.055763 0.034082 0.014888
v 0.116835 0.031623 0.080529
v 0.123551 0.029704 0.131064
v 0.136760 0.083713 0.110754
v -0.233437 0.069406 0.226203
v -0.221483 0.066192 0.269024
v -0.170012 0.093598 0.259584
v 0.233746 0.108802 -0.203879
v 0.045914 0.019541 -0.012666
v 0.069366 0.034039 0.007328
v 0.041900 0.045065 0.019196
v 0.238966 -0.043197 0.028131
v 0.219300 -0.037660 0.029192
v 0.216197 -0.040601 0.007887
v -0.049527 -0.061377 -0.199469
v -0.051348 -0.061311 -0.197189
v -0.048565 -0.060023 -0.195937
v -0.308059 -0.006240 -0.226978
v -0.302452 -0.023716 -0.230041
v -0.305959 -0.015770 -0.209261
v 0.196874 0.100926 -0.241300
v -0.297878 0.071970 -0.076345
v -0.310476 0.047736 -0.124421
v -0.168337 0.084763 0.289757
v -0.279832 -0.060520 -0.265476
v -0.119184 0.066877 0.271863
v -0.113878 0.070841 0.235422
v -0.192684 -0.095990 -0.056824
v 0.231659 -0.044240 0.284317
v 0.221043 -0.035248 0.308581
v 0.274656 -0.036574 0.132187
v 0.292731 -0.010041 0.166588
v 0.183231 0.068142 -0.305389
v 0.218370 0.054020 -0.322966
v 0.182345 0.052816 -0.323805
v -0.155095 0.117868 0.061428
v -0.146415 -0.088079 -0.080952
v -0.141436 -0.064780 -0.053637
v -0.154923 -0.070757 -0.046708
v -0.217202 -0.040497 0.250908
v -0.169014 0.118617 -0.069589
v -0.190281 0.118128 -0.098276
v -0.188274 0.118909 -0.064269
v -0.171088 -0.051106 0.221385
v -0.173132 -0.047354 0.178887
v -0.164566 -0.021824 0.350722
v -0.178623 0.006411 0.359209
v -0.189582 -0.004172 0.345781
v 0.164431 -0.034156 0.230605
v 0.160829 -0.008632 0.271239
v 0.146201 0.008708 0.243304
v 0.080448 0.127850 -0.038982
v 0.046280 0.132986 -0.040849
v 0.069966 0.123537 -0.002604
v 0.190018 -0.138236 -0.157180
v 0.216430 -0.131807 -0.158716
v -0.108573 0.074804 0.198980
v -0.137919 0.092631 0.219699
v 0.089477 0.023482 0.003132
v -0.113169 -0.087999 -0.171334
v -0.112142 -0.073168 -0.138002
v -0.000245 -0.010904 -0.080092
v -0.002112 -0.022645 -0.112117
v 0.170295 0.107922 -0.217543
v 0.190085 0.114033 -0.190003
v -0.220096 0.107736 -0.192946
v -0.267942 0.091356 -0.223210
v -0.239191 0.109337 -0.175421
v 0.198522 0.118843 -0.055653
v 0.222414 0.117403 -0.093228
v 0.196547 0.118474 -0.087424
v 0.142071 -0.020288 0.148928
v 0.129767 0.014710 0.173866
v 0.129747 0.014717 0.173107
v 0.119217 0.119500 -0.013825
v 0.095530 0.111204 0.006510
v 0.106098 0.105236 0.015153
v -0.290476 -0.004932 -0.059357
v -0.293755 -0.002094 -0.069185
v -0.279889 -0.042024 -0.084733
v 0.137665 0.051770 -0.315849
v 0.180373 0.019228 -0.353107
v -0.112860 0.012407 0.310423
v -0.129083 0.009448 0.333050
v 0.274560 -0.056207 -0.271557
v 0.280695 -0.051673 -0.243167
v 0.059968 -0.058031 -0.181096
v 0.066435 -0.008411 -0.054183
v 0.082047 0.003405 -0.025377
v 0.050739 0.002253 -0.042144
v 0.107207 -0.073799 -0.151206
v 0.043977 0.093668 0.028948
v 0.035176 0.078323 0.030468
v 0.248093 -0.064829 -0.315738
v 0.233703 -0.067081 -0.325385
v 0.257848 0.105290 -0.069990
v 0.236057 0.115849 -0.101216
v -0.195273 -0.021353 0.328345
v 0.026572 0.136508 -0.002233
v 0.005059 0.134125 0.009319
v -0.251370 0.110702 -0.153162
v -0.171686 0.102432 0.229410
v 0.232996 0.113492 -0.058749
v 0.099888 -0.001519 -0.331832
v 0.127343 0.012552 -0.341103
v 0.106091 -0.009621 -0.336114
v 0.136091 -0.000829 -0.349161
v -0.017069 0.136618 0.000349
v -0.165456 -0.034810 0.331837
v 0.299272 0.032297 -0.271485
v 0.285583 0.017165 -0.300272
v 0.135795 0.115983 -0.152346
v 0.139794 0.114635 -0.175937
v 0.100851 0.115725 -0.150295
v -0.042550 -0.046951 -0.166314
v 0.197972 0.106560 -0.223744
v 0.212685 0.107246 -0.218987
v -0.095130 0.118937 -0.107707
v -0.069930 0.115621 -0.140071
v 0.045391 0.017098 -0.016643
v 0.044331 -0.004459 -0.057405
v -0.139505 0.116967 -0.106685
v -0.164084 0.116819 -0.134142
v -0.005801 0.109836 -0.173878
v -0.007521 0.098616 -0.202011
v -0.086458 -0.051325 -0.139242
v -0.099205 -0.074489 -0.168618
v -0.085459 -0.068470 -0.176560
v -0.137802 -0.069022 -0.300862
v -0.173067 -0.092477 -0.287678
v -0.177905 -0.069723 -0.310662
v -0.229249 -0.038406 0.210961
v -0.239835 -0.035993 0.163146
v -0.057438 0.123367 0.005322
v -0.037867 0.131442 0.001640
v -0.075177 0.127021 -0.041303
v -0.140351 -0.044649 0.242721
v -0.169789 -0.051243 0.247543
v -0.143783 -0.046314 0.229244
v 0.053678 -0.074614 -0.227427
v 0.026789 -0.066358 -0.224965
v 0.019725 -0.065416 -0.256653
v 0.223217 -0.011269 0.337131
v 0.190397 0.062294 0.294152
v -0.118601 -0.033836 0.247636
v -0.127294 -0.038304 0.275175
v 0.292580 0.063543 -0.269345
v 0.300746 0.066393 -0.240178
v 0.279260 0.076971 0.061909
v 0.262977 0.095059 0.033605
v 0.276101 0.068829 0.195544
v 0.248162 0.093149 0.193935
v 0.256976 0.089877 0.180828
v -0.180876 0.120387 0.062848
v -0.198161 0.118257 0.063396
v -0.178393 0.117390 0.108149
v 0.180497 -0.043881 -0.359742
v 0.148092 0.011467 -0.349921
v 0.278243 0.078147 0.032467
v -0.039310 -0.009682 -0.067344
v -0.052134 -0.021160 -0.089651
v 0.107232 0.046383 0.045857
v 0.112516 0.020887 0.042422
v 0.001084 0.129079 -0.056689
v -0.001112 0.120363 -0.093136
v -0.252579 0.077573 0.093911
v 0.164085 0.116447 -0.153887
v 0.194461 0.117693 -0.121426
v 0.192375 0.116912 -0.155429
v -0.249663 -0.090866 -0.265673
v -0.258572 -0.089499 -0.251123
v 0.123041 0.093376 -0.247101
v 0.129543 0.092362 -0.251563
v 0.090794 0.076164 -0.268106
v 0.097842 0.075962 -0.270637
v 0.218409 0.025325 -0.343946
v -0.141485 -0.042851 0.190627
v -0.201327 0.068577 -0.282251
v 0.103387 -0.095514 -0.203964
v 0.095211 -0.084222 -0.190299
v 0.076892 -0.080230 -0.212156
v 0.060068 -0.058181 -0.181276
v 0.179274 0.012367 0.310011
v 0.168308 0.016506 0.295481
v 0.175451 0.009404 0.304967
v 0.262913 -0.061134 -0.298135
v -0.232804 -0.068677 -0.306495
v -0.204193 -0.069942 -0.312727
v -0.200270 -0.098503 -0.285507
v -0.225041 -0.110193 -0.245676
v -0.197672 -0.114094 -0.254873
v -0.195800 -0.122161 -0.226445
v -0.267249 -0.064245 -0.284730
v 0.145279 0.010000 0.241640
v 0.145156 0.009830 0.241326
v 0.222971 0.045951 0.325603
v -0.242112 0.072521 0.182378
v -0.260590 0.021379 0.185845
v -0.251174 0.041685 0.212438
v 0.178676 0.117490 0.041345
v 0.167267 0.108765 0.089872
v -0.182726 0.120017 0.031068
v -0.145305 0.119303 0.018017
v -0.184575 0.119648 -0.000711
v -0.112686 0.076912 -0.256139
v -0.109915 0.077111 -0.255214
v 0.048628 0.131390 -0.003569
v -0.210028 0.063992 0.297071
v -0.126956 -0.105191 -0.201430
v -0.149509 -0.123525 -0.175306
v -0.146778 -0.122372 -0.167217
v -0.262703 -0.087562 -0.128902
v -0.285628 -0.044133 -0.127279
v -0.289438 -0.046047 -0.167805
v -0.101913 -0.030114 -0.048774
v -0.114285 -0.026671 -0.023888
v -0.118635 -0.037244 -0.038465
v 0.113194 -0.104368 -0.233445
v 0.147327 -0.118640 -0.240510
v 0.128589 -0.114793 -0.199703
v 0.279575 -0.037810 -0.076532
v 0.299372 0.006328 -0.073241
v 0.274469 -0.032957 -0.034359
v 0.251958 0.103218 0.079734
v 0.247991 0.106240 0.064270
v -0.204712 -0.017741 0.321644
v 0.087950 0.080201 -0.259864
v 0.079563 0.073435 -0.267316
v 0.006286 0.051091 0.029017
v 0.020692 0.050008 0.026726
v 0.211332 -0.069180 -0.333224
v 0.240149 -0.045371 0.105054
v 0.240496 -0.045421 0.105939
v 0.207237 -0.044035 0.113378
v -0.094231 0.099848 0.039333
v -0.087237 0.072358 0.058658
v -0.069117 0.087327 0.039383
v -0.112409 -0.015146 -0.000709
v -0.107753 -0.006252 0.018044
v -0.106430 -0.005815 0.016230
v -0.152873 0.061343 0.328331
v -0.165147 0.046390 0.348957
v 0.192327 0.027801 0.318548
v 0.208348 0.060933 0.306596
v 0.191855 -0.133768 -0.136564
v -0.108480 0.118971 -0.100344
v 0.103684 -0.015053 -0.038562
v 0.103728 -0.009068 -0.029468
v 0.130696 0.088314 0.074386
v 0.153719 0.111001 0.043252
v 0.138038 0.104320 0.044557
v 0.182081 -0.070380 -0.335968
v 0.262217 -0.088155 -0.160487
v 0.239927 -0.116042 -0.159766
v 0.221668 0.117781 0.038135
v 0.066545 0.087383 0.024789
v 0.072632 0.101536 0.017524
v 0.046521 0.107074 0.021940
v 0.184157 0.017027 0.315282
v 0.281046 0.060737 -0.290558
v -0.061131 -0.072057 -0.234169
v -0.035078 -0.065082 -0.250948
v 0.185562 -0.130657 -0.220852
v -0.011607 -0.047811 -0.272403
v -0.010682 -0.060168 -0.257315
v 0.243714 0.107179 -0.012854
v 0.200497 0.119212 -0.023881
v 0.202472 0.119581 0.007890
v 0.291828 0.074873 -0.067354
v 0.279851 0.078458 -0.022158
v 0.215198 -0.051680 0.224380
v 0.176354 -0.038648 0.256904
v 0.042225 -0.038398 -0.146817
v 0.271808 0.016009 -0.318046
v 0.278804 0.004001 -0.309946
v 0.296628 0.035579 0.128084
v 0.161350 -0.032677 0.131946
v 0.136220 -0.013709 0.111526
v 0.167834 -0.031432 0.099235
v -0.150332 0.117780 -0.084793
v 0.109409 0.124584 -0.057516
v 0.099968 0.122456 -0.089747
v 0.090295 0.126806 -0.048691
v -0.274318 0.103677 -0.126628
v 0.296484 0.015644 -0.014983
v 0.290003 -0.007211 0.027223
v 0.297361 0.025537 0.139431
v -0.106873 0.079412 0.162112
v -0.091807 0.041500 0.183823
v -0.090001 0.039604 0.153815
v 0.179749 -0.001425 -0.363677
v 0.208277 -0.025294 -0.360601
v 0.179664 -0.015985 -0.366722
v 0.290995 0.052439 0.029908
v 0.166157 -0.135261 -0.155744
v -0.308190 0.037296 -0.243463
v -0.314239 0.025199 -0.221446
v -0.305553 0.064220 -0.233355
v 0.262837 -0.074014 -0.111480
v 0.260677 -0.078494 -0.116239
v 0.264265 -0.073897 -0.116189
v -0.077525 0.126449 -0.044054
v -0.087276 0.125340 -0.047362
v -0.076326 0.126736 -0.041738
v -0.206063 0.107018 -0.199433
v -0.269751 -0.037188 -0.043478
v -0.259614 -0.032353 -0.002223
v -0.231807 -0.064114 -0.025630
v -0.058217 0.121637 -0.097432
v 0.102617 0.049446 -0.304879
v 0.067568 0.047122 -0.293910
v -0.098945 0.120176 -0.092671
v -0.060515 0.122416 -0.090916
v 0.128840 0.017134 0.168136
v 0.129741 0.015063 0.173658
v 0.129706 0.015416 0.173816
v 0.151710 -0.027290 0.190327
v -0.167350 -0.134976 -0.135678
v 0.114705 0.099908 0.026186
v 0.142825 0.079112 0.147123
v -0.230255 0.116074 -0.129826
v 0.230357 0.115553 -0.157541
v 0.215255 0.101995 0.206127
v 0.181546 0.098271 0.184948
v 0.180865 0.092819 0.203941
v 0.001198 -0.000074 -0.055628
v 0.035484 0.081749 -0.239129
v 0.032688 0.097003 -0.211107
v 0.057071 0.086654 -0.237539
v 0.045987 0.097240 -0.213314
v -0.164010 0.015228 0.366722
v -0.163937 0.001771 0.366102
v 0.303804 0.071288 -0.112550
v -0.225825 -0.047333 0.016827
v -0.256613 -0.031663 0.028741
v -0.009768 0.073276 -0.240335
v -0.167012 0.072763 0.314300
v -0.179557 0.061297 0.329417
v -0.166079 0.061056 0.331895
v 0.255189 -0.042464 0.249518
v 0.298290 0.010180 -0.055125
v -0.196714 -0.040134 0.032731
v -0.196339 -0.050658 0.007777
v -0.012101 -0.036669 -0.280475
v -0.012604 -0.017831 -0.288756
v 0.181318 0.008322 0.311853
v 0.206880 0.009267 0.334936
v 0.206621 0.014971 0.334796
v -0.008024 0.050125 0.028511
v -0.235754 -0.112706 -0.220137
v -0.240206 -0.100836 -0.255510
v 0.160451 0.045248 0.264442
v 0.158878 0.022781 0.277173
v 0.212811 0.107975 0.168167
v -0.243617 -0.108918 -0.215975
v -0.240173 -0.112894 -0.209647
v 0.274731 -0.028453 -0.305050
v -0.101659 0.014535 0.279827
v -0.175910 0.114393 0.153450
v -0.160049 -0.112193 -0.243119
v -0.141097 -0.103425 -0.249974
v -0.163195 -0.118832 -0.224734
v -0.298822 -0.010749 -0.125780
v -0.135879 0.116291 -0.136000
v 0.220727 0.072324 0.290971
v 0.219126 0.084324 0.266444
v -0.227538 -0.000258 0.297070
v -0.228664 0.024845 0.296526
v -0.235485 0.004230 0.282537
v -0.159061 0.052143 -0.298126
v -0.266317 -0.018377 -0.311539
v -0.104276 -0.067999 -0.286870
v -0.134642 -0.097554 -0.258149
v 0.258130 0.105234 -0.071001
v -0.253612 -0.030974 0.059706
v -0.249020 -0.032647 0.094186
v -0.305077 0.034302 -0.090291
v -0.164340 0.028511 0.362352
v 0.051155 -0.066803 -0.277232
v 0.084970 -0.084804 -0.266701
v 0.072732 -0.081977 -0.247518
v -0.296833 0.085903 -0.109785
v -0.110745 0.017853 -0.307555
v -0.124391 0.049718 -0.291270
v -0.148476 -0.090840 -0.082085
v -0.148401 -0.094116 -0.087108
v -0.307933 0.069393 -0.124727
v -0.113939 0.121840 -0.063401
v 0.006180 0.109435 0.029635
v 0.005490 0.127151 0.017232
v -0.137364 -0.111233 -0.137096
v -0.148490 -0.123841 -0.136654
v -0.034464 0.133869 -0.032718
v -0.074734 0.023307 0.013208
v -0.082228 0.025204 0.031018
v -0.085627 0.015884 0.016908
v -0.076221 0.126746 -0.040391
v -0.111965 -0.009011 0.048999
v -0.099454 0.003717 0.036698
v -0.102182 -0.000344 0.050478
v 0.189422 -0.041625 0.274844
v -0.218599 0.110327 0.063550
v -0.104835 -0.013453 0.126071
v -0.240463 -0.019831 0.238914
v 0.239171 -0.105066 -0.124721
v -0.094030 0.009155 0.025000
v -0.219896 0.106430 0.099325
v -0.288197 -0.055570 -0.237695
v 0.181441 -0.098935 -0.308475
v -0.195041 -0.068393 -0.019695
v -0.224981 -0.049040 0.011281
v 0.295983 0.022666 0.027840
v 0.297137 0.020619 -0.014193
v 0.188422 -0.137518 -0.177167
v -0.100326 -0.061057 -0.138541
v 0.119676 0.003684 0.023198
v 0.124519 -0.000551 0.036721
v -0.106162 -0.020008 0.163867
v -0.164137 -0.010832 0.360439
v -0.280560 0.075522 -0.032912
v -0.294219 0.040136 -0.042700
v -0.290697 0.036613 -0.030048
v 0.307980 0.068695 -0.161788
v 0.303201 0.079604 -0.161429
v 0.245792 0.106609 -0.018947
v 0.140849 0.118545 -0.004022
v 0.143535 0.121569 -0.032690
v 0.030020 -0.009299 -0.071959
v -0.094749 0.034112 0.229901
v -0.093542 0.033609 0.223301
v 0.255365 0.110870 -0.158700
v 0.116550 0.032310 0.078634
v 0.301903 0.028884 -0.263470
v 0.300103 0.024915 -0.268318
v -0.050759 0.010502 -0.294303
v -0.054937 0.005628 -0.296168
v 0.156424 0.117432 -0.103250
v 0.143030 0.116648 -0.123686
v 0.253922 0.111958 -0.132218
v -0.049163 -0.038129 -0.141317
v -0.093330 0.027021 0.229377
v -0.096930 0.009242 0.251147
v -0.092918 0.017128 0.228124
v -0.099744 -0.004423 0.249684
v -0.192289 0.117348 -0.132284
v 0.006590 0.094962 0.036475
v -0.022364 0.080912 0.036404
v -0.007755 0.073357 0.037979
v -0.115014 -0.096503 -0.220952
v -0.215995 -0.043313 0.093558
v -0.222625 -0.042605 0.087684
v -0.215975 -0.042708 0.087867
v -0.124178 -0.096597 -0.249657
v 0.275084 -0.034907 0.097406
v 0.025386 -0.031267 -0.292840
v 0.030796 -0.035906 -0.293197
v 0.024492 -0.035473 -0.290567
v -0.297252 0.004974 -0.077617
v -0.304898 0.021126 -0.101919
v -0.036955 0.115286 -0.142106
v 0.245935 -0.043522 0.269350
v 0.279466 0.071930 0.150994
v -0.255097 0.078751 0.064559
v 0.112089 0.009303 0.012175
v -0.258843 -0.020837 -0.317068
v -0.232630 -0.026201 -0.333511
v -0.282733 0.038075 0.000786
v -0.263242 0.079073 0.010521
v 0.277545 0.078954 0.001740
v 0.145186 -0.039480 -0.349921
v 0.110936 -0.037443 -0.334517
v 0.131322 -0.022693 -0.348246
v 0.040018 0.073938 -0.252127
v 0.044081 0.063382 -0.266650
v 0.145302 0.010243 0.241749
v 0.302368 0.078210 -0.137184
v 0.291718 0.091568 -0.160599
v -0.012430 0.026841 -0.286235
v -0.264868 0.015067 0.147780
v -0.259628 -0.008274 0.156201
v -0.260904 0.020085 0.182948
v 0.244240 0.097703 0.180031
v -0.207619 -0.006776 0.325564
v -0.199187 -0.012824 0.332071
v -0.202216 -0.003476 0.334376
v 0.275167 0.100841 -0.109219
v -0.098925 -0.041429 -0.078694
v -0.106471 -0.046874 -0.079995
v -0.099708 -0.045174 -0.088830
v 0.212809 -0.051121 -0.016841
v -0.137073 -0.039230 0.170615
v -0.142092 -0.037966 0.146828
v -0.250622 0.112528 -0.101859
v -0.114407 0.104591 0.059794
v -0.297614 -0.029912 -0.251000
v -0.305214 -0.004016 -0.248765
v -0.299433 0.000321 -0.267785
v -0.272314 0.018267 -0.302802
v -0.248411 0.010007 -0.320311
v -0.246532 0.020858 -0.317334
v 0.059867 -0.058052 -0.181231
v -0.210378 -0.042291 0.088191
v 0.284682 -0.042663 -0.118704
v 0.145124 0.010063 0.241094
v 0.145190 0.010303 0.241368
v 0.144947 0.010768 0.240486
v 0.262698 -0.041040 0.222030
v -0.205371 -0.043444 -0.336524
v -0.041353 -0.048730 -0.276408
v -0.036107 -0.046445 -0.277551
v 0.050428 0.018275 -0.013308
v 0.095535 0.006583 -0.014185
v 0.133898 -0.100705 -0.283597
v 0.134072 -0.100865 -0.283366
v 0.133794 -0.100867 -0.283180
v 0.246831 -0.016954 0.310069
v 0.204447 0.119951 0.039662
v -0.100206 0.093846 0.059391
v -0.133257 -0.012282 -0.322238
v -0.133813 -0.007340 -0.322296
v -0.127865 -0.009054 -0.320027
v 0.121310 0.123368 -0.049148
v 0.128529 0.122411 -0.067888
v -0.250061 0.076395 0.123263
v -0.070301 0.090459 -0.222087
v -0.069956 0.091076 -0.220897
v -0.068892 0.089779 -0.222862
v 0.129813 0.015016 0.174205
v 0.120519 0.122503 -0.030909
v 0.151813 0.121639 -0.045934
v -0.226792 -0.089054 -0.062265
v -0.225397 -0.085132 -0.055359
v 0.003280 0.137794 -0.020241
v 0.004480 0.138236 -0.000725
v 0.163314 -0.008991 0.276084
v -0.029412 0.024196 -0.288176
v -0.115650 0.121848 -0.060610
v -0.116553 0.121691 -0.062444
v -0.141961 0.121604 -0.030585
v -0.146844 0.121346 -0.035487
v 0.248290 -0.013251 0.311458
v 0.245543 -0.008865 0.317995
v 0.244066 -0.015537 0.314960
v -0.238297 0.054536 -0.295485
v -0.202724 0.053253 -0.300637
v 0.222904 -0.114088 -0.118329
v -0.185413 -0.039426 -0.335928
v -0.170807 -0.042322 -0.330358
v 0.208187 -0.068849 -0.043958
v 0.006695 0.064477 0.036674
v 0.040874 0.133652 -0.038687
v 0.078021 0.091374 -0.234785
v 0.261748 -0.007278 -0.328295
v 0.257871 -0.005513 -0.332045
v 0.260728 -0.003954 -0.329729
v -0.242900 0.018050 -0.320227
v -0.137920 0.105152 0.151752
v -0.134232 0.101119 0.167107
v 0.209196 0.009851 0.336563
v -0.087938 -0.030264 -0.068480
v -0.073409 -0.020687 -0.066570
v 0.090214 0.058554 0.029571
v 0.095813 0.084570 0.028459
v 0.076269 0.068787 0.025186
v 0.086995 0.090113 0.023786
v -0.012697 0.014686 -0.290480
v -0.288560 0.094388 -0.149424
v -0.197232 -0.037187 0.054254
v -0.216896 -0.042680 0.055561
v 0.236099 0.022878 0.333307
v 0.242746 0.026075 0.326585
v 0.180783 0.086531 0.222107
v 0.254463 -0.044171 0.027646
v 0.256505 -0.043111 0.045086
v 0.102300 0.123673 -0.027224
v 0.088099 0.125867 -0.030674
v 0.102516 0.121521 -0.017603
v 0.201333 -0.096435 -0.080533
v 0.163373 -0.094274 -0.092150
v 0.163992 -0.107248 -0.106954
v 0.050083 -0.016730 -0.308197
v 0.037859 -0.005659 -0.304247
v 0.082585 -0.068189 -0.297810
v 0.105408 -0.042746 -0.328736
v 0.115493 -0.069289 -0.315782
v 0.299538 0.006386 -0.074331
v 0.228226 -0.106971 -0.261760
v -0.206455 -0.041942 0.277297
v 0.081084 -0.040312 -0.115475
v 0.087661 -0.044154 -0.116656
v 0.118856 -0.059321 -0.094778
v 0.090882 -0.042063 -0.105073
v 0.118311 -0.054973 -0.087890
v 0.050966 -0.003022 -0.309024
v 0.162227 0.021451 0.283717
v -0.276451 0.010205 0.026342
v -0.274861 0.001835 0.022470
v -0.273068 -0.000624 0.028590
v -0.264590 0.100416 -0.187001
v 0.177846 0.018464 0.307924
v 0.175354 -0.040122 0.162567
v -0.112682 0.078093 -0.254536
v 0.129751 0.015824 0.174793
v -0.240546 -0.115497 -0.130856
v -0.248201 0.001247 0.239354
v -0.247362 0.014658 0.246787
v -0.252181 -0.001009 0.221570
v 0.296735 0.009194 0.174256
v 0.293063 0.032813 0.194661
v -0.076817 0.126687 -0.041191
v -0.124883 0.114892 0.026999
v -0.058680 0.081629 0.038681
v -0.083780 0.046607 0.057329
v 0.300956 -0.005627 -0.227063
v 0.284194 -0.046697 -0.202320
v 0.150895 -0.066143 -0.066748
v 0.127285 -0.041152 -0.056067
v 0.144705 -0.067863 -0.075495
v -0.291051 0.090913 -0.103470
v -0.055663 -0.062307 -0.195993
v -0.158417 -0.046754 -0.007708
v -0.310157 0.067085 -0.203420
v 0.051126 0.122391 -0.099768
v 0.042337 0.122199 -0.100067
v -0.308044 0.023330 -0.124652
v -0.310493 0.069225 -0.166823
v -0.300635 0.083441 -0.146454
v -0.293642 0.088257 -0.167246
v 0.286333 0.092126 -0.191976
v 0.274457 0.103056 -0.159649
v 0.296651 0.017847 -0.016780
v 0.297015 0.021291 -0.017458
v 0.292995 -0.008685 0.114390
v 0.294648 -0.005333 0.131773
v 0.145704 0.010660 0.243082
v -0.110785 -0.026992 0.206121
v -0.069677 -0.066541 -0.268909
v -0.097968 -0.085696 -0.244322
v -0.265950 -0.090806 -0.170971
v 0.305474 0.068527 -0.203887
v 0.272454 0.032866 0.281000
v 0.272532 0.032627 0.281000
v 0.272694 0.032878 0.280503
v -0.267186 -0.087361 -0.219809
v -0.279680 -0.030306 -0.291494
v -0.064684 -0.031593 -0.107258
v -0.045561 -0.026339 -0.107895
v 0.234969 0.060828 0.304475
v 0.223903 0.014789 0.343381
v 0.194480 -0.124022 -0.117107
v -0.294747 -0.028517 -0.261614
v -0.296195 0.000401 -0.275821
v 0.291670 0.025355 0.217338
v 0.292150 0.021043 0.215439
v 0.291953 0.027113 0.214229
v 0.153135 0.111200 -0.201019
v 0.174401 0.102465 0.150283
v 0.148889 0.074511 0.183491
v -0.174928 -0.015501 -0.337641
v -0.148516 -0.033473 -0.325809
v -0.297031 0.010067 -0.069258
v -0.294064 0.002841 -0.063974
v -0.295319 0.016037 -0.056053
v -0.052652 0.122793 -0.090851
v -0.051129 0.121741 -0.097151
v -0.073869 0.126452 -0.047536
v -0.105174 0.084019 0.125244
v -0.091596 0.057027 0.096546
v 0.058817 0.014819 -0.309322
v -0.265902 -0.090874 -0.170979
v 0.243350 0.114606 -0.108510
v 0.289765 -0.010744 0.205869
v -0.175177 -0.043602 0.136388
v -0.282689 -0.001792 -0.295766
v 0.078155 0.021327 -0.314541
v 0.068088 0.022909 -0.308967
v 0.295480 -0.001618 0.160394
v 0.295386 -0.000492 0.170736
v -0.176381 -0.037635 0.094088
v 0.108622 0.027769 -0.324246
v 0.241960 0.109806 0.035838
v -0.225090 -0.048180 0.014301
v 0.137750 0.034018 0.205588
v 0.158516 0.070531 0.219032
v -0.267593 -0.006580 0.060776
v -0.204304 0.019662 -0.329961
v -0.179807 -0.014069 -0.339384
v -0.204985 -0.000990 -0.340527
v -0.100204 -0.082424 -0.188978
v -0.130105 0.039705 0.327723
v -0.144672 0.009981 0.353604
v -0.165412 0.098225 -0.226249
v 0.215208 0.015575 -0.349681
v 0.134145 -0.100733 -0.283714
v 0.025637 -0.060738 -0.207274
v 0.059784 -0.058165 -0.181505
v 0.101779 0.016113 0.005273
v -0.063064 0.071676 -0.250239
v -0.267909 0.091336 -0.223314
v 0.272483 -0.028084 -0.309070
v 0.276126 -0.020532 -0.307566
v 0.158361 -0.010135 -0.360857
v 0.158351 -0.013120 -0.360902
v 0.223726 0.001331 0.342775
v 0.228207 0.115498 0.062514
v -0.234955 -0.082696 -0.059869
v -0.233005 -0.075113 -0.044060
v -0.243303 -0.076469 -0.060364
v -0.166315 -0.032443 0.030044
v -0.152084 -0.024145 0.050292
v -0.193928 -0.130227 -0.198017
v -0.085076 -0.075894 -0.198785
v 0.237520 0.015833 0.333120
v 0.043738 0.005779 -0.305449
v 0.133495 -0.100658 -0.283409
v -0.205299 -0.015549 -0.343558
v 0.261798 0.001605 -0.329100
v 0.156375 -0.070823 -0.068180
v 0.185111 -0.073318 -0.055231
v 0.209406 -0.034877 0.029144
v -0.258349 -0.080651 -0.097510
v -0.015538 0.073807 0.036555
v 0.294062 -0.006019 0.108457
v 0.295334 0.002842 0.120411
v -0.240931 0.018998 -0.320690
v -0.240624 0.010016 -0.324570
v -0.126817 -0.035728 0.183564
v 0.038950 0.100076 -0.204929
v -0.164623 -0.102782 -0.267775
v 0.150371 -0.119848 -0.239915
v 0.154190 -0.125955 -0.208636
v 0.041322 0.021158 -0.010698
v -0.156058 -0.092046 -0.281279
v 0.242440 0.055566 -0.317969
v -0.110356 -0.044188 -0.066421
v 0.006795 0.074538 0.039099
v -0.266814 0.031578 0.122903
v -0.268322 0.016174 0.109723
v -0.145604 0.008448 0.354892
v -0.158753 0.077414 -0.265448
v 0.140819 -0.019083 -0.001535
v 0.297649 0.030755 0.101202
v -0.098992 0.033957 0.255909
v -0.246087 0.074458 0.152820
v 0.110863 0.072144 0.046712
v -0.115601 0.121627 -0.064438
v -0.091249 0.047572 0.139980
v 0.115106 0.095297 -0.240143
v 0.261347 0.063459 0.268709
v 0.199512 -0.032094 0.029096
v 0.248508 0.110136 -0.183239
v 0.083333 0.117446 0.000615
v -0.102457 0.038234 0.267259
v -0.176113 -0.010218 -0.337638
v 0.263196 -0.003370 -0.327689
v -0.105560 0.118435 0.001312
v -0.087885 0.104991 0.027589
v -0.101771 0.120667 -0.004957
v -0.133710 -0.103221 -0.239594
v -0.126581 -0.016623 0.048796
v -0.107317 -0.005814 0.018891
v 0.160446 -0.011974 -0.361595
v -0.296650 0.061391 -0.255797
v -0.196314 0.106954 -0.200994
v -0.299192 0.036990 -0.061821
v -0.164843 -0.078933 -0.049895
v -0.100030 0.028391 0.264088
v -0.012785 0.001849 -0.291801
v -0.265917 -0.090839 -0.170905
v -0.050674 0.107060 -0.181181
v -0.046075 0.107576 -0.179057
v -0.043446 0.105570 -0.185500
v -0.153081 -0.126141 -0.168056
v -0.152925 -0.126426 -0.164112
v -0.155435 -0.127065 -0.172292
v 0.055540 -0.028261 -0.108002
v 0.047988 -0.023803 -0.101865
v 0.043652 -0.024606 -0.106367
v 0.123979 0.029041 0.134300
v -0.090128 -0.082953 -0.222132
v 0.113479 -0.015188 -0.028992
v 0.109279 -0.015422 -0.033962
v -0.090519 0.014308 0.176064
v -0.090796 0.018883 0.199757
v -0.091969 0.031577 0.212927
v 0.123660 -0.062567 -0.092588
v 0.108938 -0.018772 -0.039767
v 0.132389 -0.035897 -0.042390
v -0.205435 -0.029987 -0.342265
v -0.103731 -0.013578 0.249815
v 0.310004 0.028954 -0.204203
v 0.309835 0.027303 -0.200229
v 0.303701 0.003194 -0.222053
v -0.267906 0.091289 -0.223422
v -0.267983 0.091291 -0.223364
v -0.254352 0.079141 -0.260714
v -0.302711 0.032224 -0.262412
v -0.309196 0.026451 -0.240117
v -0.264932 0.043674 0.115584
v -0.079863 -0.032723 -0.087763
v -0.211689 -0.043589 0.153579
v -0.219022 -0.043085 0.142781
v 0.298382 0.026146 0.066139
v 0.099587 -0.034882 -0.076561
v -0.076485 0.122737 -0.006713
v 0.296728 0.006650 0.166627
v 0.297079 0.007438 0.158504
v -0.205880 0.103026 -0.212453
v -0.199454 0.104056 -0.209395
v 0.289766 -0.011905 0.195965
v -0.110722 -0.061527 -0.110039
v -0.106379 -0.058521 -0.112960
v -0.300337 0.017156 -0.269277
v 0.244857 -0.045969 0.001211
v -0.164205 0.096913 -0.228906
v -0.186424 0.119278 -0.032490
v -0.115284 -0.033261 -0.312969
v -0.136539 -0.012335 -0.323615
v -0.125134 -0.031615 -0.316972
v 0.146589 -0.124075 -0.154408
v 0.310493 0.047032 -0.161785
v 0.231304 0.113091 0.074691
v -0.145813 -0.090015 -0.084818
v 0.296408 0.015452 -0.018033
v -0.163807 0.098216 -0.226162
v -0.139818 0.096650 0.207600
v -0.044414 -0.043011 -0.281815
v -0.242829 -0.001120 0.257287
v -0.232379 -0.012213 0.279320
v -0.164856 0.098762 -0.225056
v 0.292486 0.023261 0.211369
v 0.292971 0.002119 0.203723
v -0.290874 -0.051025 -0.208774
v 0.242234 -0.038359 -0.337829
v 0.218567 -0.017704 -0.355947
v -0.068357 0.090426 -0.221570
v -0.226448 -0.014580 0.289316
v -0.251156 -0.082725 -0.085047
v 0.157103 0.119043 -0.001219
v 0.285351 -0.001103 -0.297984
v -0.150126 0.121347 -0.030348
v 0.269892 -0.075428 -0.197476
v 0.274225 -0.068220 -0.186611
v 0.100066 0.121360 -0.100314
v -0.181900 0.028245 0.353179
v -0.198155 0.039507 0.334256
v 0.291785 -0.005015 0.200983
v -0.236897 -0.119650 -0.169475
v -0.246118 -0.112259 -0.165276
v -0.243350 -0.114081 -0.177899
v 0.231119 -0.117071 -0.218012
v -0.287102 0.089683 -0.191304
v -0.115623 0.077542 -0.255876
v -0.143227 0.090041 -0.238152
v 0.301422 0.033528 -0.264835
v 0.302443 0.034121 -0.260187
v 0.031255 0.114459 0.021483
v -0.089092 0.029833 0.132855
v -0.090649 0.022256 0.112662
v 0.222452 -0.022262 0.327435
v -0.117581 0.018537 -0.309388
v -0.255233 0.111448 -0.127977
v 0.308467 0.035282 -0.115594
v 0.308935 0.033569 -0.119851
v -0.266279 0.001680 0.116505
v -0.267115 0.003771 0.109054
v 0.155508 -0.070096 -0.330618
v 0.176784 0.118227 -0.090396
v 0.144128 0.075788 -0.287324
v 0.308548 0.032689 -0.117835
v 0.299735 0.007600 -0.073964
v -0.105596 0.109250 0.027957
v 0.036264 0.133519 -0.042183
v 0.036387 0.132615 -0.047574
v 0.240653 -0.097523 -0.266245
v 0.232365 -0.091831 -0.292303
v -0.039872 0.106255 -0.183460
v 0.249605 -0.054980 -0.037768
v 0.249629 -0.054313 -0.036266
v 0.285274 -0.044779 -0.161632
v 0.069956 -0.080883 -0.231762
v -0.258864 0.047687 0.154219
v 0.251144 -0.043090 0.056663
v 0.275512 -0.033240 0.062624
v -0.104359 -0.010663 0.266897
v 0.163631 0.121112 -0.037301
v 0.167241 0.120912 -0.049664
v -0.133039 0.107423 0.098711
v -0.120157 -0.041744 -0.311796
v 0.291619 -0.003502 0.208672
v -0.101684 0.014207 -0.306234
v -0.226003 0.099259 -0.220329
v -0.250942 0.081483 -0.257304
v 0.134730 -0.111545 -0.153469
v -0.254511 0.103717 -0.045587
v -0.263767 0.102419 -0.064134
v 0.260210 -0.014245 0.294401
v 0.252514 -0.005988 0.310655
v 0.223736 0.028071 0.339001
v -0.028175 0.124115 -0.079893
v -0.036454 0.130039 -0.053159
v 0.136140 -0.041789 -0.047868
v 0.209657 0.013471 0.336599
v -0.278027 0.008152 0.016898
v -0.278230 0.038478 0.020947
v 0.147601 0.074875 -0.289369
v 0.272706 0.032366 0.280752
v 0.273522 0.031125 0.279605
v 0.091761 -0.092168 -0.232675
v 0.104548 -0.098500 -0.244050
v -0.221497 0.105609 0.101274
v -0.160839 0.098991 -0.224008
v -0.091670 0.019018 0.138585
v -0.090084 0.019382 0.159554
v -0.077652 -0.010640 -0.302811
v -0.050527 -0.018892 -0.293705
v -0.074415 -0.036184 -0.295628
v 0.123839 0.093631 0.045791
v 0.094337 0.121267 -0.103289
v 0.146557 0.115657 0.011252
v -0.062008 0.092698 0.034006
v -0.146510 -0.036401 0.128168
v -0.114861 0.121836 -0.062082
v -0.106734 -0.005450 0.017873
v 0.158990 -0.047516 -0.035867
v -0.112651 0.122830 -0.042424
v -0.063628 0.093859 -0.213943
v -0.226213 -0.046458 0.019855
v 0.274810 -0.013301 0.265361
v 0.269117 -0.013718 0.278374
v 0.116859 0.030503 0.078342
v 0.221884 0.060616 0.308552
v -0.239766 0.095627 0.063856
v -0.255546 0.020241 0.211017
v -0.247202 0.034522 0.240714
v 0.231550 -0.103037 -0.107663
v -0.090521 0.047446 0.116098
v -0.258086 0.079558 0.033969
v -0.254396 -0.085685 -0.097694
v 0.242780 -0.038497 -0.337455
v 0.242687 -0.038597 -0.337466
v -0.154274 -0.032718 0.018188
v -0.153798 -0.028995 0.028230
v -0.234962 -0.042346 0.074585
v -0.232342 -0.043620 0.056939
v 0.225717 -0.040518 0.051486
v 0.241536 -0.042999 0.063225
v 0.024389 -0.026026 -0.117107
v -0.145846 0.007268 0.354865
v -0.145535 0.006627 0.354534
v -0.053230 -0.051202 -0.169206
v -0.241846 0.038341 0.254765
v -0.244284 0.030323 0.253459
v -0.268004 0.091307 -0.223300
v -0.268066 0.091303 -0.223255
v 0.008248 -0.060107 -0.212547
v 0.222283 0.117468 -0.122374
v -0.222253 0.036492 0.305310
v -0.225016 0.038366 0.298389
v 0.031819 0.101450 0.028422
v 0.301748 -0.003194 -0.227169
v 0.301586 -0.004065 -0.226306
v 0.231581 -0.078177 -0.066811
v -0.240232 0.105785 -0.017667
v -0.233404 0.108460 -0.010582
v -0.242570 0.106191 -0.025122
v -0.138243 0.108297 0.122589
v -0.135161 0.105510 0.133102
v 0.153637 0.117706 0.005225
v 0.031582 0.085513 0.032105
v -0.111762 -0.063614 -0.113705
v -0.265872 -0.090912 -0.171076
v -0.265942 -0.090829 -0.171038
v -0.237277 0.115150 -0.079591
v 0.167853 -0.003099 0.288315
v 0.187145 -0.002287 0.314916
v 0.178038 0.004353 0.306763
v -0.222746 0.109748 0.021458
v 0.232981 -0.115933 -0.217210
v 0.231625 -0.116948 -0.216344
v 0.301711 -0.003027 -0.228395
v 0.301410 -0.004126 -0.227723
v -0.155232 -0.118556 -0.214996
v -0.071035 -0.044150 -0.140071
v -0.065770 -0.057470 -0.173721
v 0.154990 0.121187 -0.059462
v 0.130569 0.096376 -0.242388
v 0.298985 -0.009794 -0.122680
v -0.099600 0.007549 0.265828
v 0.169094 -0.051807 -0.034842
v -0.127103 -0.046002 -0.042415
v -0.217474 0.118034 -0.093913
v 0.265296 -0.041007 0.027719
v -0.130714 0.103901 -0.204420
v -0.116266 0.103902 -0.201813
v -0.122469 0.100891 -0.211164
v -0.268081 0.091263 -0.223357
v -0.222158 0.105277 0.098616
v -0.130706 -0.040677 -0.028658
v 0.229091 0.095607 -0.254437
v 0.229801 0.095415 -0.254866
v 0.227789 0.095199 -0.255770
v 0.076785 0.102754 -0.206890
v 0.083567 0.096417 -0.225938
v 0.308696 0.037619 -0.120412
v 0.293106 0.048512 -0.024442
v 0.145031 0.009453 0.240114
v -0.144748 0.007372 0.353530
v -0.303550 -0.021499 -0.200715
v 0.298333 0.026267 0.065672
v -0.136365 -0.032449 -0.004349
v -0.146779 0.110713 0.133496
v 0.165669 -0.050434 -0.035204
v 0.167423 -0.048330 -0.030589
v -0.103509 -0.006899 0.088274
v 0.071084 0.119345 -0.120479
v 0.303329 0.044471 -0.078279
v 0.076893 -0.021365 -0.072630
v 0.049546 -0.012878 -0.072591
v 0.107293 0.121420 -0.095826
v 0.289987 -0.013468 -0.278056
v 0.297631 0.006591 -0.266422
v -0.268962 0.100309 -0.072993
v 0.230447 -0.117804 -0.215567
v -0.129403 -0.077940 -0.096752
v 0.272685 0.028539 0.280997
v 0.284664 0.003596 0.249796
v -0.243081 -0.040430 0.058309
v -0.234977 -0.014989 0.266021
v -0.308193 -0.008152 -0.200317
v -0.312667 0.012545 -0.215396
v 0.169027 0.108556 0.095861
v -0.219030 -0.042692 0.094625
v -0.244427 -0.034320 0.128666
v 0.228914 0.093311 -0.260110
v -0.255725 -0.010174 0.186123
v -0.250206 -0.017461 0.198544
v 0.152677 -0.070748 -0.071183
v -0.213311 -0.025850 0.298546
v 0.279956 0.097933 -0.117506
v 0.248502 0.036110 0.313079
v -0.307243 0.000418 -0.158478
v -0.216562 -0.043201 0.107429
v -0.229159 0.116376 -0.073223
v 0.229906 0.113578 -0.038846
v 0.257312 0.105395 -0.068272
v 0.279033 -0.018370 0.242277
v -0.173798 0.108412 0.191430
v 0.137369 -0.105171 -0.274654
v -0.072682 -0.048276 -0.288272
v -0.082862 -0.047036 -0.293898
v -0.307906 0.006967 -0.244377
v -0.089509 0.021105 0.054604
v 0.282726 -0.010282 0.243324
v 0.294825 0.004387 0.082848
v -0.158355 -0.010907 -0.331611
v -0.136871 -0.008057 -0.323551
v 0.275940 -0.031573 0.027843
v 0.249700 0.007186 0.317147
v 0.272321 0.032718 0.281348
v -0.069234 0.117144 0.010314
v 0.153896 -0.070462 -0.069695
v 0.040684 0.133111 -0.043207
v -0.136154 0.101263 0.173526
v -0.133725 -0.075339 -0.082042
v -0.111514 -0.049461 -0.075257
v 0.128305 -0.114468 -0.189263
v 0.133611 -0.118073 -0.187995
v 0.236757 -0.088638 -0.088993
v 0.291467 0.025770 0.218628
v 0.284300 0.014385 0.252305
v 0.291514 0.022335 0.219985
v 0.125023 -0.007258 0.000388
v -0.138518 -0.043350 0.215727
v -0.260372 0.018017 0.187500
v 0.022487 -0.038966 -0.287959
v 0.011509 0.003125 -0.296322
v 0.018963 -0.019596 -0.294309
v 0.067369 0.108130 -0.184895
v 0.184463 0.082946 -0.281969
v -0.091169 0.019733 0.093141
v -0.106872 0.120485 -0.005584
v -0.225890 -0.112228 -0.096528
v -0.230345 -0.094865 -0.073578
v -0.124161 0.004036 -0.316366
v 0.253418 -0.085149 -0.267936
v 0.136977 -0.030065 -0.027984
v 0.309926 0.036471 -0.198057
v 0.234383 0.095418 -0.252641
v 0.231563 0.094982 -0.255665
v 0.147575 -0.103172 -0.117705
v 0.023127 0.125979 0.012642
v 0.263873 -0.084927 -0.209572
v -0.078326 0.110205 -0.170666
v -0.260320 0.029359 0.174943
v -0.258948 0.045248 0.157603
v -0.261263 0.039962 0.153396
v 0.115661 0.107531 -0.204268
v 0.104747 0.106085 -0.205540
v 0.111107 0.107942 -0.201106
v -0.294474 0.019667 -0.279024
v -0.298243 0.031663 -0.270378
v -0.287523 0.029020 -0.284936
v 0.277956 0.045628 0.247250
v -0.138946 -0.004560 -0.324046
v 0.140319 -0.088430 -0.107221
v -0.147722 0.121372 -0.019468
v 0.080416 -0.036015 -0.103924
v -0.142837 -0.029874 0.101062
v -0.313213 0.017392 -0.175828
v -0.314649 0.033486 -0.165217
v -0.315266 0.026731 -0.208372
v -0.033695 -0.024701 -0.288824
v -0.129508 -0.022895 0.089960
v -0.089291 0.029600 0.143121
v 0.255349 -0.044349 0.147252
v -0.148803 -0.026547 0.075302
v -0.098067 -0.004075 0.000754
v -0.085632 0.008252 0.002013
v -0.085347 0.007359 -0.000141
v 0.299642 0.008758 -0.071658
v -0.248962 -0.014869 0.213282
v -0.094966 0.003813 0.200894
v -0.091936 0.015103 0.218701
v -0.254540 -0.007047 0.200114
v 0.298090 0.084427 -0.176963
v 0.242597 -0.038613 -0.337499
v 0.289740 0.042802 0.196803
v 0.092109 0.073600 -0.271807
v 0.070965 0.013289 -0.314248
v -0.054023 -0.006974 -0.052169
v 0.151183 -0.073449 -0.076112
v -0.197200 0.062422 0.316302
v 0.299563 0.005279 -0.077626
v 0.207249 0.002402 0.333907
v -0.043171 0.088713 0.035018
v -0.204099 0.022498 0.333136
v -0.188687 0.015591 0.350834
v 0.294296 -0.020031 -0.112688
v -0.098256 -0.003786 0.235143
v 0.307354 0.029973 -0.231352
v -0.257830 0.048941 0.157220
v -0.015730 0.127528 0.013863
v 0.307804 0.025620 -0.118966
v -0.099698 -0.040964 -0.303947
v 0.023853 0.069858 0.033855
v -0.042649 0.012033 -0.293017
v -0.214112 0.103512 0.149585
v -0.145102 0.008300 0.354136
v 0.076519 0.128066 -0.055414
v -0.292787 0.003953 -0.057189
v 0.150778 0.040709 0.247038
v -0.143248 -0.027233 0.019318
v -0.193314 -0.037064 0.066149
v -0.213639 0.103561 0.150774
v 0.292310 -0.016533 -0.267098
v 0.104620 0.124309 -0.035238
v -0.170585 0.099469 -0.223244
v 0.155827 -0.074575 -0.073211
v 0.044340 0.132165 -0.048602
v -0.157175 -0.128057 -0.168465
v 0.173557 0.102934 0.146131
v 0.172536 0.101734 0.147790
v -0.157623 -0.061723 -0.031764
v 0.242670 -0.038357 -0.337585
v 0.166058 -0.120151 -0.123587
v 0.135569 -0.119359 -0.192797
v 0.132489 -0.117371 -0.190340
v -0.148993 0.113055 0.111710
v -0.147808 0.114481 0.087159
v 0.109135 0.001716 -0.006964
v 0.175947 0.103432 0.147640
v 0.160596 -0.013468 -0.361714
v 0.250474 -0.072946 -0.080327
v 0.268924 0.092577 -0.237610
v 0.275988 0.096532 -0.204185
v 0.092725 -0.036522 -0.325130
v 0.146426 0.041869 0.231374
v -0.283925 0.003016 -0.021547
v -0.283264 0.000104 -0.022582
v 0.149793 -0.119255 -0.241414
v 0.150787 -0.119624 -0.241325
v -0.304026 0.017662 -0.259901
v 0.103708 0.108037 -0.198094
v 0.109732 0.108716 -0.197256
v 0.251079 0.097771 0.157287
v 0.027028 -0.038917 -0.289638
v 0.161801 -0.043885 -0.027647
v 0.205817 -0.024402 0.316004
v 0.049349 0.123573 -0.092325
v -0.111369 0.119502 -0.001155
v 0.140086 -0.002273 0.205997
v 0.130198 0.014195 0.175172
v -0.285616 0.007599 -0.023843
v -0.032010 0.023974 -0.288326
v -0.242098 0.019660 -0.319856
v -0.242388 0.020901 -0.319141
v -0.240972 0.021119 -0.319591
v 0.299936 -0.006663 -0.234586
v -0.208913 0.097245 0.193878
v 0.264309 -0.080872 -0.233819
v -0.092432 0.027670 0.221885
v 0.041799 -0.021948 -0.100111
v -0.080951 -0.041623 -0.115976
v -0.100347 0.039006 0.256557
v -0.252416 0.104540 -0.043805
v 0.295845 0.052067 -0.039861
v -0.143981 -0.048501 -0.317838
v -0.265275 -0.001716 0.109762
v 0.145186 0.010911 0.241478
v -0.273913 0.043928 0.040996
v -0.092675 0.021595 0.226162
v 0.224150 0.076876 -0.294354
v -0.233993 0.034233 0.280675
v 0.042031 0.123214 -0.093737
v 0.240638 -0.045329 0.104524
v 0.021522 0.001586 -0.299049
v -0.119730 0.120876 -0.012994
v -0.027564 0.099746 0.030689
v 0.290043 -0.021646 -0.269065
v -0.282931 0.000866 -0.020086
v -0.281740 0.003032 -0.011338
v 0.296889 0.018486 -0.012308
v 0.093360 0.122307 -0.095053
v 0.272539 0.032086 0.281249
v -0.307835 0.072396 -0.143105
v -0.209091 0.095547 0.200549
v -0.159900 0.016619 -0.323590
v -0.166066 0.098749 -0.225070
v 0.129584 0.016162 0.173686
v 0.210464 0.086427 -0.277219
v -0.245009 0.110420 -0.058300
v 0.091912 -0.009610 -0.329107
v 0.271577 0.088905 -0.244012
v 0.031120 0.099306 -0.205935
v -0.048348 0.107125 0.023904
v -0.110773 0.006451 -0.310864
v -0.164815 -0.122924 -0.210484
v 0.282492 -0.016324 0.232167
v 0.286518 -0.005765 0.234322
v -0.062251 -0.072466 -0.234386
v -0.062260 -0.072257 -0.232880
v 0.024159 0.118581 -0.120345
v 0.177003 -0.040509 0.169099
v -0.092799 0.014482 0.082835
v 0.250298 0.099685 0.146800
v 0.250513 0.100233 0.137223
v -0.260029 0.079049 -0.257432
v 0.267275 -0.014256 -0.320597
v -0.030786 0.116759 0.019865
v 0.260740 -0.080943 -0.255644
v -0.284255 0.006651 -0.018625
v -0.305695 -0.008723 -0.172025
v -0.270928 0.030593 -0.298994
v 0.228029 0.095998 -0.253561
v -0.149997 0.112432 0.126233
v 0.171942 0.104749 0.130375
v 0.298047 0.046157 -0.052352
v -0.277289 0.098576 -0.170378
v -0.304553 -0.006932 -0.156211
v -0.104400 -0.021664 -0.310894
v -0.039227 -0.001779 -0.050304
v -0.242160 0.021317 0.264546
v -0.253006 0.077260 -0.264187
v -0.083964 0.009129 0.001124
v -0.216240 0.016913 0.315542
v 0.268420 0.076291 -0.278457
v 0.239749 -0.045054 0.101392
v 0.249139 -0.055945 -0.039798
v -0.044621 -0.008237 -0.061154
v -0.246692 0.101674 -0.020697
v -0.041849 0.107260 -0.180218
v 0.233113 -0.114965 -0.220721
v -0.169842 0.029260 -0.317749
v 0.292966 0.045442 0.137507
v 0.133307 0.048992 0.159599
v -0.257986 -0.097780 -0.203403
v 0.242638 -0.038524 -0.337527
v 0.180397 -0.041616 0.166790
v -0.047856 0.000339 -0.041389
v -0.058921 0.075526 0.039634
v 0.171620 -0.090297 -0.084128
v -0.037122 0.003706 -0.039451
v -0.267527 0.002835 0.104772
v 0.247072 0.105031 -0.005973
v 0.254210 0.078137 -0.284151
v -0.271408 -0.082803 -0.199971
v 0.247051 -0.043196 0.068492
v 0.155219 -0.116017 -0.127213
v 0.229711 0.095800 -0.253714
v 0.230141 0.095537 -0.254326
v -0.061418 -0.072128 -0.234875
v 0.243423 -0.038353 -0.336896
v -0.235987 -0.114411 -0.212924
v -0.236516 -0.115418 -0.206306
v 0.068354 -0.033102 -0.313330
v 0.072207 -0.015561 -0.318691
f 2 3 4
f 5 6 7
f 8 9 10
f 12 13 11
f 14 15 16
f 21 22 23
f 27 28 29
f 32 33 34
f 35 36 37
f 38 39 40
f 41 42 43
f 44 45 46
f 11 27 49
f 50 51 52
f 53 54 55
f 56 57 58
f 59 60 61
f 62 63 64
f 31 71 72
f 75 76 77
f 78 79 80
f 81 82 83
f 84 85 86
f 87 88 89
f 90 91 92
f 93 94 95
f 96 97 98
f 99 11 100
f 101 102 103
f 104 105 106
f 96 109 110
f 111 44 32
f 112 113 114
f 115 116 117
f 118 119 120
f 121 122 123
f 126 128 127
f 129 130 131
f 132 133 134
f 135 136 137
f 139 140 141
f 142 143 144
f 145 80 17
f 146 145 147
f 148 149 150
f 151 67 68
f 154 137 136
f 156 157 137
f 159 160 115
f 161 162 86
f 17 147 145
f 163 164 165
f 167 168 169
f 171 172 173
f 176 177 178
f 179 180 181
f 182 183 184
f 157 187 188
f 139 189 140
f 190 191 57
f 68 194 195
f 196 197 198
f 199 200 201
f 203 204 202
f 205 206 207
f 208 209 210
f 33 213 34
f 213 214 34
f 23 52 51
f 66 217 65
f 218 219 220
f 217 221 65
f 222 223 141
f 224 8 225
f 200 226 227
f 21 228 22
f 165 212 211
f 232 135 137
f 233 226 200
f 234 235 236
f 235 237 236
f 44 46 33
f 46 213 33
f 239 228 21
f 43 240 241
f 194 68 67
f 242 243 244
f 18 245 17
f 246 195 247
f 248 249 83
f 220 250 251
f 172 252 253
f 256 257 258
f 259 260 261
f 262 263 175
f 264 265 266
f 267 268 269
f 270 271 272
f 281 283 282
f 284 285 286
f 235 211 288
f 290 291 192
f 292 189 293
f 93 296 94
f 297 298 299
f 300 301 155
f 302 303 304
f 303 305 304
f 306 165 164
f 62 64 119
f 175 307 174
f 281 71 31
f 309 310 311
f 217 312 221
f 313 314 315
f 317 318 319
f 320 321 322
f 324 325 181
f 328 329 327
f 330 331 97
f 332 333 334
f 335 336 5
f 235 288 237
f 339 57 340
f 57 341 340
f 342 343 344
f 345 346 347
f 348 349 350
f 351 352 353
f 354 279 355
f 22 228 356
f 357 304 358
f 280 279 289
f 359 103 360
f 362 363 364
f 365 366 367
f 368 113 369
f 113 370 369
f 373 374 274
f 375 185 186
f 248 83 376
f 218 377 219
f 377 378 219
f 379 380 381
f 332 285 284
f 246 68 195
f 379 132 134
f 386 387 222
f 387 388 222
f 274 389 373
f 43 42 390
f 80 391 392
f 394 272 395
f 396 397 398
f 399 226 400
f 179 401 402
f 18 17 403
f 404 241 405
f 109 406 110
f 407 408 409
f 252 172 410
f 411 412 413
f 415 416 126
f 406 122 417
f 418 419 420
f 421 422 423
f 425 185 375
f 426 427 428
f 429 430 431
f 432 433 434
f 60 422 287
f 438 437 436
f 248 439 249
f 248 442 439
f 442 443 439
f 444 445 446
f 134 133 450
f 345 114 346
f 114 113 346
f 451 198 231
f 289 279 424
f 454 455 453
f 251 101 456
f 457 458 459
f 458 460 459
f 461 177 462
f 464 465 437
f 255 458 466
f 467 468 469
f 45 44 111
f 471 353 352
f 218 220 251
f 239 32 176
f 476 477 389
f 477 478 389
f 103 479 26
f 239 21 51
f 480 481 320
f 482 483 69
f 485 480 486
f 487 215 316
f 46 488 39
f 490 491 492
f 494 253 252
f 274 495 496
f 497 498 499
f 160 116 115
f 323 501 1
f 502 503 259
f 399 504 226
f 89 253 82
f 507 152 153
f 508 177 461
f 509 510 511
f 512 108 107
f 5 513 514
f 515 64 516
f 517 152 512
f 443 442 518
f 341 521 522
f 265 523 266
f 524 525 526
f 527 264 266
f 528 529 530
f 488 46 45
f 170 534 262
f 316 8 224
f 195 138 247
f 430 535 383
f 525 536 526
f 537 285 532
f 301 538 155
f 541 438 540
f 542 543 424
f 544 186 185
f 257 256 545
f 52 111 50
f 293 546 547
f 166 333 332
f 549 177 176
f 550 551 552
f 463 553 554
f 181 325 179
f 555 396 400
f 339 58 57
f 205 556 557
f 469 468 372
f 537 286 285
f 251 250 101
f 456 558 251
f 341 57 521
f 402 180 179
f 248 376 442
f 559 560 157
f 293 562 292
f 563 564 240
f 5 565 566
f 567 298 568
f 452 569 561
f 18 570 245
f 276 45 111
f 172 171 410
f 571 572 573
f 572 574 573
f 253 575 172
f 300 155 323
f 577 578 576
f 579 58 339
f 580 581 582
f 583 503 502
f 585 586 587
f 493 588 589
f 195 452 138
f 392 78 80
f 590 20 254
f 592 283 281
f 546 293 594
f 52 23 22
f 595 596 1
f 462 177 549
f 550 597 598
f 600 601 602
f 111 32 50
f 50 32 239
f 603 604 55
f 63 522 521
f 324 181 605
f 606 554 607
f 63 521 516
f 608 48 55
f 609 610 611
f 453 612 484
f 613 614 615
f 463 616 399
f 617 618 619
f 144 13 620
f 621 622 548
f 52 276 111
f 625 626 627
f 501 628 629
f 628 630 629
f 287 422 361
f 217 403 631
f 288 211 212
f 361 8 539
f 580 582 632
f 634 635 636
f 228 176 614
f 317 596 638
f 228 239 176
f 639 640 392
f 641 642 189
f 185 425 544
f 424 599 289
f 643 644 645
f 226 504 227
f 225 8 361
f 191 190 257
f 56 257 57
f 257 190 57
f 646 159 591
f 385 398 647
f 73 366 648
f 649 650 651
f 652 653 411
f 94 296 593
f 655 656 657
f 392 395 78
f 78 395 79
f 658 445 203
f 652 659 660
f 659 557 660
f 158 662 661
f 664 663 238
f 531 665 402
f 608 666 48
f 667 668 669
f 668 670 669
f 671 672 673
f 575 253 88
f 570 18 193
f 674 308 675
f 156 154 40
f 384 535 676
f 17 245 147
f 261 677 678
f 33 32 44
f 242 568 297
f 257 545 191
f 229 681 663
f 357 459 682
f 118 120 448
f 683 684 685
f 663 664 229
f 448 62 118
f 63 516 64
f 686 629 630
f 673 646 671
f 687 688 418
f 477 689 478
f 690 691 345
f 692 693 694
f 693 695 694
f 115 117 159
f 608 54 696
f 414 231 697
f 700 701 326
f 453 455 702
f 665 180 402
f 703 704 142
f 705 706 205
f 706 707 205
f 708 709 710
f 711 586 712
f 586 585 712
f 713 714 715
f 716 352 351
f 717 47 10
f 717 10 9
f 52 718 268
f 521 57 191
f 65 719 66
f 720 721 722
f 721 723 722
f 221 721 720
f 221 720 65
f 720 719 65
f 724 711 712
f 483 180 725
f 180 665 725
f 254 20 125
f 30 40 154
f 726 727 728
f 197 729 198
f 458 457 466
f 730 313 389
f 202 731 447
f 732 336 335
f 658 733 446
f 735 736 737
f 121 123 738
f 123 739 738
f 740 434 433
f 74 741 333
f 154 467 30
f 742 366 743
f 451 88 198
f 423 422 60
f 216 744 745
f 746 747 748
f 747 723 748
f 604 441 55
f 749 108 512
f 146 750 145
f 751 473 540
f 124 754 753
f 252 83 494
f 507 153 755
f 756 757 758
f 759 760 607
f 154 156 137
f 761 762 543
f 280 355 279
f 763 764 161
f 647 398 330
f 765 605 181
f 79 395 272
f 767 768 502
f 82 253 494
f 769 342 344
f 217 66 403
f 771 772 773
f 338 154 136
f 538 301 774
f 300 323 1
f 300 1 317
f 300 317 319
f 155 775 323
f 332 284 166
f 291 776 777
f 408 132 28
f 23 51 21
f 517 512 107
f 515 158 64
f 428 427 752
f 40 39 156
f 781 782 775
f 783 784 785
f 262 174 170
f 79 271 80
f 195 786 297
f 787 788 454
f 789 790 678
f 287 61 60
f 791 792 793
f 39 38 46
f 38 213 46
f 295 795 794
f 432 796 433
f 797 798 73
f 157 560 187
f 55 441 799
f 800 734 342
f 227 504 801
f 802 637 86
f 775 804 501
f 799 53 55
f 440 805 441
f 441 806 799
f 807 808 162
f 580 632 809
f 103 130 101
f 371 467 469
f 211 235 810
f 812 541 473
f 464 473 472
f 517 153 152
f 63 62 448
f 788 813 814
f 816 817 818
f 361 382 287
f 819 257 58
f 257 56 58
f 820 372 821
f 116 531 117
f 210 493 343
f 359 479 103
f 702 455 814
f 76 822 77
f 634 605 635
f 811 398 385
f 212 823 421
f 500 816 675
f 824 644 643
f 631 312 217
f 204 203 445
f 631 825 826
f 825 271 826
f 293 827 594
f 189 292 692
f 590 19 20
f 7 6 828
f 321 320 481
f 74 624 741
f 196 829 197
f 487 830 831
f 237 832 602
f 832 833 602
f 239 51 50
f 647 835 385
f 408 133 132
f 379 562 132
f 131 130 26
f 836 837 838
f 730 69 314
f 72 71 453
f 35 839 840
f 282 453 71
f 258 842 750
f 375 186 780
f 700 779 843
f 396 599 400
f 811 355 280
f 323 775 501
f 826 271 270
f 62 119 118
f 467 371 30
f 415 126 353
f 749 623 414
f 724 844 799
f 643 845 715
f 685 684 847
f 848 708 849
f 503 583 491
f 144 143 850
f 828 466 7
f 396 398 811
f 342 851 343
f 577 852 578
f 763 853 854
f 855 856 686
f 766 307 857
f 858 460 458
f 859 491 490
f 860 393 861
f 141 862 139
f 103 862 141
f 863 259 503
f 591 159 117
f 41 43 404
f 43 241 404
f 41 864 42
f 41 90 864
f 345 347 865
f 689 834 779
f 733 813 788
f 203 202 447
f 867 93 868
f 461 869 508
f 213 820 214
f 820 821 214
f 870 308 77
f 49 27 871
f 49 12 11
f 872 406 853
f 406 854 853
f 571 873 572
f 88 253 89
f 857 621 548
f 292 562 875
f 875 562 379
f 724 712 844
f 139 862 102
f 250 139 102
f 102 862 103
f 250 102 101
f 235 234 810
f 103 141 360
f 575 88 451
f 376 876 442
f 876 518 442
f 418 877 797
f 302 304 878
f 304 357 878
f 677 817 678
f 817 789 678
f 771 773 879
f 760 561 569
f 220 219 250
f 850 880 144
f 184 387 882
f 583 768 579
f 883 156 39
f 599 280 289
f 884 789 817
f 392 640 394
f 252 376 83
f 376 252 876
f 30 820 40
f 881 561 760
f 434 527 266
f 26 130 103
f 404 405 847
f 405 885 847
f 740 527 434
f 886 887 888
f 889 491 583
f 495 778 14
f 846 596 818
f 474 475 587
f 369 891 890
f 815 465 505
f 832 892 833
f 90 847 91
f 847 684 91
f 895 793 551
f 158 896 540
f 883 897 873
f 445 658 446
f 346 113 368
f 548 622 533
f 342 899 800
f 900 901 902
f 903 904 905
f 276 268 267
f 184 183 337
f 183 681 337
f 229 337 681
f 906 907 908
f 909 450 133
f 502 768 583
f 58 579 910
f 579 768 910
f 579 339 583
f 339 889 583
f 791 588 792
f 911 378 912
f 192 291 193
f 631 403 17
f 312 310 221
f 913 419 914
f 419 915 914
f 312 311 310
f 276 267 275
f 698 699 472
f 916 721 221
f 912 917 918
f 917 747 918
f 638 596 919
f 919 596 846
f 645 845 643
f 715 845 713
f 441 358 304
f 920 275 766
f 921 922 923
f 924 75 925
f 75 926 925
f 75 104 926
f 104 106 893
f 75 77 308
f 75 308 674
f 426 927 427
f 927 928 427
f 915 419 187
f 187 419 418
f 654 93 929
f 617 619 691
f 619 930 691
f 931 263 932
f 279 933 424
f 117 402 401
f 747 934 723
f 527 888 935
f 936 937 121
f 470 401 637
f 938 435 939
f 655 657 732
f 657 336 732
f 204 444 202
f 84 179 447
f 749 512 152
f 86 940 802
f 940 86 162
f 17 825 631
f 100 362 364
f 618 941 619
f 941 942 619
f 603 466 457
f 782 627 943
f 944 703 142
f 11 13 880
f 77 822 945
f 937 417 121
f 417 122 121
f 421 892 832
f 4 3 946
f 649 947 948
f 947 949 948
f 384 676 186
f 501 595 1
f 186 676 780
f 96 952 97
f 388 387 184
f 138 452 881
f 516 953 515
f 242 244 568
f 471 761 954
f 199 233 200
f 955 945 822
f 493 209 588
f 366 73 743
f 657 828 336
f 188 956 232
f 34 176 32
f 957 640 639
f 345 691 114
f 958 959 499
f 89 960 87
f 578 852 479
f 961 784 738
f 784 962 738
f 371 820 30
f 150 149 963
f 964 422 965
f 466 657 966
f 110 354 96
f 967 959 718
f 851 968 210
f 397 969 398
f 241 240 970
f 240 564 970
f 669 670 971
f 972 745 973
f 974 568 244
f 975 468 976
f 808 738 977
f 738 962 977
f 978 979 980
f 97 835 647
f 717 981 47
f 756 758 982
f 909 133 408
f 983 984 732
f 524 129 131
f 563 985 986
f 337 987 388
f 274 730 389
f 533 989 988
f 991 500 514
f 238 520 230
f 623 992 414
f 993 994 463
f 713 510 509
f 995 868 996
f 1 596 317
f 402 117 531
f 443 518 796
f 518 433 796
f 179 84 401
f 609 867 995
f 867 868 995
f 997 61 287
f 600 61 997
f 715 600 997
f 998 201 298
f 266 796 434
f 210 209 493
f 440 305 999
f 282 283 612
f 716 1000 1001
f 1000 993 1001
f 929 93 867
f 93 654 296
f 887 1002 365
f 365 1002 624
f 1002 741 624
f 1003 1004 294
f 9 8 1005
f 8 1006 1005
f 298 297 568
f 902 1007 255
f 1008 353 1009
f 971 670 171
f 84 86 637
f 358 604 603
f 590 795 19
f 311 270 1011
f 761 471 762
f 1012 874 654
f 1013 704 1014
f 1015 920 574
f 388 184 337
f 906 403 66
f 556 969 557
f 969 1016 557
f 660 1016 1017
f 1018 73 74
f 730 274 69
f 1019 502 259
f 784 1020 962
f 209 792 588
f 365 648 366
f 605 325 324
f 605 634 325
f 1021 513 5
f 1001 352 716
f 1022 1023 829
f 924 829 75
f 829 1023 75
f 75 1023 76
f 1022 76 1023
f 880 13 144
f 205 207 556
f 205 557 659
f 205 659 705
f 539 382 361
f 1014 853 584
f 1025 1026 550
f 202 444 909
f 909 408 202
f 92 306 164
f 671 1027 1028
f 478 1029 326
f 374 373 478
f 478 326 374
f 1030 794 1031
f 747 1032 918
f 478 689 1033
f 617 691 618
f 691 690 618
f 40 820 38
f 38 820 213
f 820 371 372
f 663 1003 294
f 1019 949 947
f 597 1034 1035
f 1034 726 1035
f 241 970 405
f 999 1036 211
f 1037 1038 773
f 511 510 1039
f 510 1040 1039
f 311 1011 1039
f 847 885 685
f 670 668 171
f 311 312 270
f 312 826 270
f 8 10 539
f 435 88 894
f 123 592 281
f 470 117 401
f 356 614 613
f 1041 296 654
f 955 960 1042
f 493 589 755
f 1043 988 1044
f 859 260 863
f 1045 1046 1047
f 875 1048 449
f 244 1049 974
f 511 1039 1011
f 556 1050 969
f 1044 420 913
f 420 419 913
f 803 622 175
f 437 727 1034
f 699 632 582
f 367 1051 887
f 272 271 79
f 828 6 336
f 803 809 1052
f 140 694 141
f 620 13 12
f 317 638 318
f 410 876 252
f 433 518 1053
f 667 433 1053
f 369 370 1054
f 406 417 854
f 1032 746 1055
f 433 667 1056
f 1057 900 902
f 465 464 1058
f 195 299 452
f 1059 1060 470
f 137 157 188
f 231 992 451
f 196 198 88
f 1061 132 562
f 1061 28 132
f 1061 562 293
f 1061 293 28
f 685 885 683
f 656 966 657
f 495 374 1062
f 466 828 657
f 329 1064 1065
f 211 1036 163
f 676 535 1066
f 255 966 1057
f 797 1067 798
f 293 547 28
f 342 1069 851
f 538 149 625
f 224 1071 1070
f 95 868 93
f 1044 913 548
f 1072 1073 839
f 699 1074 1075
f 142 1077 1076
f 1078 193 18
f 386 695 387
f 462 1080 1079
f 1081 146 245
f 146 147 245
f 1082 1065 1083
f 197 1084 1085
f 815 505 506
f 416 933 1014
f 457 459 603
f 825 1086 271
f 509 270 272
f 453 484 454
f 801 1087 227
f 990 673 273
f 1088 338 1089
f 638 677 261
f 222 388 1090
f 1091 923 1092
f 708 1093 679
f 600 602 59
f 602 833 59
f 1060 1027 591
f 1027 646 591
f 646 1027 671
f 470 1060 591
f 176 178 614
f 267 269 275
f 1094 1095 1096
f 1097 687 1098
f 1099 330 969
f 1100 1090 576
f 191 1101 521
f 1102 800 1103
f 949 790 948
f 742 367 366
f 734 979 978
f 1008 351 353
f 321 319 260
f 356 613 967
f 613 497 967
f 864 92 164
f 149 538 963
f 313 730 314
f 1105 1106 1107
f 725 665 314
f 665 1105 314
f 373 389 478
f 313 476 389
f 1105 665 531
f 1095 1108 334
f 1109 1110 981
f 354 110 279
f 998 1017 199
f 1111 1091 1112
f 675 308 500
f 889 1113 491
f 1113 492 491
f 570 1114 1115
f 1010 24 633
f 652 660 653
f 660 1116 653
f 653 1116 567
f 567 1116 998
f 1117 786 194
f 951 553 463
f 606 463 554
f 297 786 243
f 378 377 912
f 212 832 288
f 1118 24 25
f 572 1119 574
f 824 997 539
f 849 1120 848
f 690 345 618
f 345 865 618
f 1121 865 347
f 1122 4 172
f 34 1080 176
f 128 126 1123
f 774 963 538
f 755 589 507
f 1124 1125 1126
f 875 379 1048
f 175 622 621
f 269 766 275
f 91 965 92
f 39 488 883
f 488 897 883
f 756 982 752
f 455 454 788
f 814 455 788
f 453 702 72
f 72 702 70
f 70 702 814
f 1085 1127 752
f 99 364 409
f 296 1041 1128
f 1011 270 511
f 511 270 509
f 302 878 1117
f 713 845 510
f 1121 347 1129
f 1130 1131 1132
f 1092 923 24
f 460 1133 1134
f 463 1135 951
f 994 25 951
f 82 494 83
f 1090 519 576
f 843 779 834
f 698 632 699
f 812 437 541
f 437 438 541
f 1136 599 543
f 745 744 1092
f 634 636 1137
f 3 1095 334
f 34 1138 1080
f 344 1139 963
f 759 881 760
f 1140 424 933
f 823 422 421
f 1141 751 1129
f 59 61 600
f 892 421 423
f 829 1084 197
f 676 708 780
f 1097 1142 687
f 1143 1120 1144
f 357 358 459
f 358 603 459
f 603 55 466
f 160 673 990
f 1145 989 533
f 832 212 421
f 237 288 832
f 956 188 187
f 743 525 131
f 1146 124 753
f 801 616 569
f 1001 993 1147
f 399 1147 463
f 1147 993 463
f 507 589 791
f 589 588 791
f 218 251 1148
f 251 1149 1148
f 1049 244 124
f 817 677 919
f 974 1150 568
f 1150 567 568
f 970 564 1151
f 564 1152 1151
f 1153 623 749
f 47 981 393
f 1154 186 544
f 1154 393 981
f 1154 544 393
f 1154 981 1110
f 1154 1110 384
f 1154 384 186
f 941 1155 1101
f 353 127 1009
f 1156 1059 1038
f 1059 1157 1038
f 959 170 718
f 1159 959 958
f 170 959 1159
f 679 849 708
f 204 445 444
f 1128 1063 296
f 150 1160 1161
f 436 838 837
f 73 798 743
f 176 1080 549
f 331 1162 97
f 804 628 501
f 1163 1164 506
f 660 1017 1116
f 581 1074 699
f 45 1015 488
f 1015 1119 488
f 1131 1165 1132
f 263 1167 1166
f 772 1037 773
f 979 800 980
f 800 1102 980
f 746 748 1168
f 286 537 1041
f 718 1169 967
f 569 1087 801
f 1150 653 567
f 24 922 25
f 377 917 912
f 441 604 358
f 616 1170 569
f 53 799 844
f 54 608 55
f 258 1114 256
f 58 910 842
f 819 842 257
f 842 258 257
f 1081 245 570
f 15 1171 701
f 953 516 521
f 540 438 837
f 837 158 540
f 436 837 438
f 755 1172 493
f 439 590 249
f 439 795 590
f 206 882 387
f 1173 803 932
f 1174 4 1122
f 441 805 806
f 282 71 281
f 1079 869 462
f 108 757 107
f 199 1175 233
f 226 233 1176
f 233 1175 1176
f 396 1176 1175
f 396 1175 397
f 397 1175 199
f 734 800 979
f 29 28 547
f 547 546 29
f 401 84 637
f 593 296 1063
f 1177 1059 470
f 1084 1127 1085
f 542 933 416
f 574 1119 1015
f 152 895 551
f 978 119 734
f 978 841 120
f 978 120 119
f 645 1179 348
f 1179 349 348
f 1180 1181 1047
f 1046 957 1047
f 1169 22 356
f 1182 626 148
f 530 1183 1145
f 346 1129 347
f 770 921 278
f 25 922 951
f 923 922 24
f 1184 1157 1059
f 761 415 954
f 237 602 236
f 406 872 110
f 812 473 464
f 211 810 440
f 1185 853 1014
f 598 1108 1095
f 387 695 206
f 1170 463 606
f 1186 1187 948
f 1014 1188 416
f 15 1189 16
f 1156 1027 1060
f 771 879 14
f 772 1190 16
f 16 1190 14
f 771 1190 772
f 14 1190 771
f 687 489 688
f 864 90 92
f 77 945 870
f 478 1033 1029
f 779 1033 689
f 1143 1192 1120
f 1192 848 1120
f 240 390 277
f 490 492 321
f 137 188 232
f 232 956 1178
f 1122 575 451
f 681 183 1193
f 100 364 99
f 967 497 499
f 959 967 499
f 1115 258 750
f 1115 1114 258
f 489 1194 688
f 1195 618 1196
f 708 710 780
f 1197 1198 1024
f 1008 620 679
f 528 891 529
f 876 1053 518
f 570 777 776
f 875 693 692
f 282 612 453
f 1199 1093 708
f 1200 1201 1202
f 1201 1157 1202
f 1185 1014 933
f 1120 679 620
f 871 1203 911
f 128 1123 703
f 263 610 1164
f 193 777 570
f 193 291 777
f 1189 701 672
f 701 843 672
f 126 127 353
f 99 409 408
f 99 408 28
f 99 28 27
f 99 27 11
f 1204 307 766
f 175 621 307
f 611 1205 328
f 14 1171 15
f 1206 394 474
f 1207 1208 475
f 294 1031 523
f 244 1209 124
f 824 539 10
f 535 430 1066
f 374 326 1062
f 1123 704 703
f 163 1036 1210
f 1112 1092 744
f 745 1092 24
f 1032 747 746
f 798 1067 1211
f 1067 989 1211
f 465 1158 505
f 15 701 1189
f 1210 1036 999
f 740 1212 527
f 1212 888 527
f 64 1213 119
f 119 1213 734
f 158 1213 64
f 158 1214 1213
f 991 513 1215
f 1216 316 215
f 890 891 528
f 560 915 187
f 206 707 882
f 1207 898 696
f 24 1010 745
f 911 912 1217
f 912 918 1217
f 922 1218 951
f 951 1218 770
f 921 1218 922
f 770 1218 921
f 625 155 538
f 1178 1194 489
f 1050 556 207
f 55 48 466
f 7 466 48
f 563 240 985
f 1219 1220 1131
f 141 694 386
f 610 995 1164
f 1221 221 1024
f 1222 987 229
f 22 718 52
f 954 415 353
f 234 805 810
f 810 805 440
f 988 989 1067
f 1211 989 1145
f 798 1211 743
f 1091 1092 1112
f 1223 216 745
f 249 900 1224
f 1086 17 80
f 1225 1226 1227
f 1228 1229 1230
f 1144 1055 1143
f 1055 746 1143
f 746 1192 1143
f 436 208 210
f 1231 1232 1233
f 766 857 548
f 1043 533 988
f 69 274 496
f 134 1162 331
f 108 414 697
f 872 853 933
f 937 764 417
f 764 854 417
f 1164 1163 580
f 1234 1200 31
f 1200 1234 1201
f 879 773 31
f 1201 1234 1038
f 1234 773 1038
f 1043 1044 533
f 533 1044 548
f 836 661 662
f 1215 650 1235
f 81 1125 82
f 221 1236 916
f 807 764 937
f 754 124 125
f 836 838 968
f 769 800 899
f 507 791 895
f 791 793 895
f 1237 334 333
f 722 1238 719
f 487 316 830
f 1221 710 1236
f 710 709 1236
f 1239 1052 809
f 1179 645 644
f 609 995 610
f 306 92 823
f 110 933 279
f 872 933 110
f 735 534 958
f 534 1159 958
f 629 595 501
f 1240 1241 1242
f 139 250 641
f 687 1142 489
f 545 1101 191
f 1086 80 271
f 982 729 1085
f 729 197 1085
f 870 500 308
f 941 1101 942
f 1243 1046 475
f 994 951 1135
f 818 817 846
f 465 1075 1158
f 1244 1239 809
f 988 1245 1044
f 420 1044 1245
f 343 851 210
f 1246 363 161
f 807 937 808
f 838 210 968
f 625 781 155
f 1069 968 851
f 1247 840 1244
f 1248 113 1249
f 113 1250 1249
f 348 309 1039
f 309 311 1039
f 1039 1040 348
f 1040 845 348
f 845 645 348
f 845 1040 510
f 807 162 764
f 764 162 161
f 951 770 553
f 1015 276 275
f 1015 45 276
f 428 1127 893
f 227 1087 200
f 298 1087 299
f 593 1063 1068
f 961 785 784
f 593 1068 94
f 609 1227 867
f 174 268 170
f 633 431 1010
f 633 429 431
f 431 430 383
f 384 383 535
f 352 1251 471
f 352 1001 1251
f 1252 1167 262
f 70 496 72
f 496 70 69
f 277 985 240
f 76 1022 938
f 766 1253 1254
f 555 226 396
f 226 1176 396
f 1178 956 1194
f 688 1194 418
f 540 896 169
f 167 169 515
f 169 896 515
f 515 896 158
f 1014 704 1123
f 859 321 260
f 1166 1167 1255
f 607 1256 759
f 1257 361 964
f 269 1204 766
f 570 776 1114
f 829 925 1084
f 925 829 924
f 1192 746 1168
f 661 1214 158
f 1167 263 262
f 696 666 608
f 281 1258 123
f 1096 1095 3
f 1259 305 440
f 1120 849 679
f 1260 806 805
f 306 212 165
f 96 354 952
f 1124 1042 89
f 691 1261 114
f 748 1262 1168
f 1264 716 351
f 689 477 1265
f 26 577 1266
f 492 322 321
f 1267 615 1268
f 468 975 372
f 975 177 508
f 1194 956 187
f 418 1194 187
f 1264 1269 1118
f 659 652 411
f 829 196 1022
f 573 574 1254
f 574 1270 1254
f 1253 913 1254
f 913 914 1254
f 1271 278 921
f 1271 921 923
f 963 1139 150
f 1160 150 1139
f 506 581 1163
f 960 955 822
f 1012 1272 874
f 374 495 274
f 1062 778 495
f 508 372 975
f 488 1119 897
f 92 965 823
f 965 422 823
f 1273 520 238
f 824 715 997
f 716 1264 1000
f 1264 1274 1000
f 275 920 1015
f 1275 1181 502
f 1088 1089 498
f 514 335 5
f 223 1276 141
f 680 1276 866
f 1277 898 565
f 286 1278 489
f 821 869 1279
f 1198 425 950
f 572 873 1119
f 873 897 1119
f 1057 656 900
f 656 81 900
f 386 694 695
f 1280 182 413
f 1281 792 208
f 837 836 662
f 837 662 158
f 763 161 584
f 814 1282 70
f 171 668 410
f 1141 1283 751
f 1283 1072 751
f 1284 36 809
f 489 1285 1178
f 97 1162 98
f 229 987 337
f 1169 718 22
f 859 490 321
f 1151 1152 1286
f 659 411 1287
f 1204 174 307
f 276 52 268
f 1288 76 894
f 620 12 1144
f 205 707 206
f 1289 1192 1168
f 1122 623 1104
f 752 982 1085
f 580 809 803
f 1153 749 152
f 460 858 1133
f 858 1209 1133
f 124 1209 125
f 125 1209 858
f 1290 1004 1193
f 1291 120 905
f 450 1293 1292
f 301 481 485
f 481 480 485
f 1010 431 383
f 351 429 633
f 540 1294 751
f 169 1294 540
f 1129 751 1294
f 1121 1129 169
f 1129 1294 169
f 339 340 1113
f 424 543 599
f 236 602 601
f 848 1289 708
f 783 1200 784
f 123 1258 785
f 1295 684 1070
f 684 683 1070
f 971 171 946
f 836 1214 661
f 1144 1120 620
f 780 710 1296
f 1006 8 316
f 802 977 1020
f 350 1297 1298
f 286 1299 1300
f 397 1016 969
f 4 173 172
f 200 1087 298
f 911 1203 378
f 1203 1301 378
f 1292 1302 98
f 59 1303 60
f 1300 1299 1018
f 1299 1097 1018
f 1093 1199 1304
f 1045 1021 566
f 1046 1243 957
f 1243 640 957
f 1305 770 278
f 138 1306 1305
f 1305 1306 770
f 770 1306 759
f 881 759 1306
f 1306 138 881
f 1307 601 714
f 814 813 1308
f 1235 650 1187
f 273 1265 990
f 735 958 736
f 1281 208 1309
f 208 1310 1309
f 369 1054 891
f 178 615 614
f 1311 1179 1312
f 451 992 623
f 884 1186 789
f 856 818 596
f 452 1087 569
f 299 1087 452
f 221 1221 1236
f 529 891 1054
f 740 433 1212
f 433 1056 1212
f 1182 1313 626
f 1263 976 468
f 449 1048 381
f 1048 379 381
f 159 646 673
f 305 1259 304
f 1247 809 840
f 903 341 904
f 1126 732 1042
f 732 984 1042
f 1229 1133 1314
f 1133 1209 1314
f 1314 1209 244
f 243 1315 244
f 1229 1315 1230
f 1230 1315 243
f 244 1315 1314
f 1314 1315 1229
f 476 313 315
f 48 666 7
f 860 1297 349
f 1297 350 349
f 565 898 566
f 1258 281 31
f 1316 283 592
f 131 26 743
f 1045 566 1046
f 462 869 461
f 357 682 1134
f 819 58 842
f 1007 254 255
f 587 1206 474
f 1206 1317 509
f 587 1317 1206
f 1206 272 394
f 49 871 1318
f 1106 1319 1265
f 726 1034 727
f 753 754 1320
f 136 1089 338
f 621 857 307
f 890 1283 369
f 473 751 1072
f 301 300 481
f 333 741 1321
f 1321 741 886
f 741 1002 886
f 1321 886 1212
f 886 888 1212
f 886 1002 887
f 1191 888 887
f 715 714 601
f 824 643 715
f 1122 451 623
f 843 701 700
f 152 551 550
f 552 597 550
f 1322 1323 447
f 668 876 410
f 1290 1193 183
f 1003 1193 1004
f 1182 148 427
f 148 1161 427
f 1171 778 701
f 701 778 326
f 843 834 273
f 273 672 843
f 273 673 672
f 437 1310 436
f 1324 551 793
f 383 973 1010
f 1300 166 286
f 1291 448 120
f 303 999 305
f 1246 161 86
f 565 7 1325
f 630 1326 686
f 209 208 792
f 380 1050 381
f 1326 1327 1328
f 1329 1112 744
f 520 229 230
f 735 737 534
f 737 1252 534
f 567 998 298
f 327 1330 1285
f 1285 1330 1178
f 356 967 1169
f 1206 509 272
f 1010 973 745
f 261 260 319
f 527 935 264
f 706 182 184
f 1223 1331 216
f 1111 923 1091
f 1271 986 278
f 563 1271 1111
f 1271 923 1111
f 563 986 1271
f 860 1312 393
f 566 1021 5
f 475 1046 566
f 475 566 898
f 1312 860 1311
f 838 436 210
f 915 1332 914
f 1184 1059 1177
f 651 650 1215
f 945 984 870
f 984 983 870
f 908 907 1333
f 1274 1118 25
f 887 1051 1191
f 1055 1217 918
f 1055 918 1032
f 1318 1055 1144
f 871 1217 1318
f 1217 1055 1318
f 139 641 189
f 641 250 642
f 250 219 642
f 219 378 642
f 642 378 1301
f 189 642 827
f 36 35 809
f 1240 1172 1241
f 319 481 300
f 1105 1107 315
f 1201 1038 1157
f 619 942 1334
f 776 619 1334
f 1334 942 256
f 776 1334 1114
f 1114 1334 256
f 930 619 776
f 776 291 930
f 291 691 930
f 256 942 545
f 355 835 354
f 835 952 354
f 157 1335 559
f 1170 606 607
f 893 1232 927
f 1269 351 633
f 506 1074 581
f 1336 1096 2
f 1277 666 898
f 654 874 1278
f 161 363 584
f 915 560 1332
f 1312 10 47
f 400 1136 1337
f 9 1005 717
f 121 738 936
f 919 846 817
f 678 790 1338
f 1121 169 168
f 941 618 1155
f 618 1195 1155
f 167 1195 168
f 1195 1196 168
f 1121 168 865
f 168 1196 865
f 618 865 1196
f 1339 1164 995
f 5 7 565
f 898 666 696
f 19 795 295
f 7 666 1325
f 70 482 69
f 483 1282 765
f 1282 1340 765
f 167 515 953
f 63 448 522
f 667 1053 668
f 1053 876 668
f 1254 1270 766
f 766 548 913
f 914 1332 1254
f 766 1270 920
f 574 920 1270
f 1012 929 1227
f 929 867 1227
f 330 1050 380
f 802 940 977
f 936 808 937
f 654 929 1012
f 1284 698 36
f 1110 1109 384
f 972 973 383
f 1341 94 1068
f 1174 1122 1104
f 1342 573 1254
f 1229 1228 878
f 1228 1117 878
f 878 357 1134
f 852 26 479
f 1188 1123 126
f 1257 1071 361
f 639 392 767
f 790 789 948
f 789 1186 948
f 327 1272 1225
f 163 1343 164
f 1246 86 85
f 1246 85 363
f 669 971 1237
f 142 144 944
f 938 939 76
f 1344 498 1089
f 1290 1320 1004
f 1320 1345 1004
f 463 1170 616
f 193 1078 908
f 1149 558 907
f 558 1333 907
f 1216 1005 1006
f 483 765 180
f 765 181 180
f 37 839 35
f 1346 362 100
f 882 707 706
f 440 999 211
f 25 994 1274
f 201 200 298
f 775 782 804
f 824 10 644
f 586 1317 587
f 509 1317 586
f 475 585 587
f 1207 1347 1208
f 697 757 108
f 700 1029 779
f 333 1321 1237
f 1321 1348 1237
f 781 625 782
f 625 627 782
f 43 390 240
f 364 363 85
f 306 823 212
f 1019 1275 502
f 230 229 664
f 549 1080 462
f 1349 1266 577
f 487 1350 215
f 544 861 393
f 576 578 866
f 1124 89 1125
f 293 189 827
f 496 495 14
f 14 879 496
f 627 626 943
f 626 1313 943
f 733 658 1323
f 87 1288 894
f 437 1352 1351
f 26 852 577
f 1281 793 792
f 1279 869 1138
f 752 1127 428
f 314 1105 315
f 1324 552 551
f 1353 543 542
f 1280 1354 1320
f 106 1232 893
f 1038 1037 1355
f 1156 1038 1355
f 1037 772 1355
f 772 16 1355
f 1189 672 1028
f 671 1028 672
f 1027 1156 1028
f 1156 1355 1028
f 1189 1028 16
f 1028 1355 16
f 1356 107 757
f 1030 295 794
f 545 942 1101
f 521 1101 1155
f 1095 1094 598
f 601 600 715
f 1133 1229 1134
f 681 1193 1003
f 663 681 1003
f 767 1181 1180
f 263 931 175
f 135 1357 327
f 1235 1186 1358
f 1186 884 1358
f 74 1300 1018
f 73 1018 1097
f 134 331 379
f 380 331 330
f 379 331 380
f 925 1127 1084
f 611 328 1225
f 1291 905 448
f 162 808 940
f 808 977 940
f 522 904 341
f 87 960 1359
f 1156 1060 1059
f 1210 1343 163
f 444 446 1360
f 1240 1242 1160
f 1242 1161 1160
f 752 427 1242
f 1361 1343 1210
f 1362 1174 1104
f 836 968 1214
f 749 414 108
f 382 539 997
f 141 1276 360
f 866 1276 576
f 360 1276 680
f 919 677 638
f 971 946 334
f 1122 172 575
f 1069 1213 968
f 1213 1214 968
f 734 1069 342
f 734 1213 1069
f 234 1363 805
f 1363 1260 805
f 1207 54 1347
f 54 53 1347
f 73 624 74
f 73 648 624
f 1052 533 622
f 808 936 738
f 192 1333 558
f 413 706 411
f 706 1287 411
f 856 629 686
f 278 1364 1305
f 1185 933 853
f 1336 2 1026
f 2 1362 1026
f 1008 1009 620
f 1365 125 858
f 1042 960 89
f 1207 696 54
f 507 895 152
f 555 400 226
f 546 1203 29
f 742 1266 1051
f 1266 1366 1051
f 26 1266 742
f 1336 1026 1096
f 1026 1025 1096
f 1100 1276 222
f 1276 223 222
f 1100 222 1090
f 763 584 853
f 536 1183 529
f 742 1051 367
f 1367 513 1021
f 841 1368 905
f 1216 1006 316
f 1013 1077 142
f 1255 737 1205
f 1078 18 403
f 1118 633 24
f 60 1303 423
f 1326 855 686
f 196 88 435
f 87 894 88
f 785 739 123
f 1369 1177 637
f 1177 470 637
f 1367 1215 513
f 1337 762 1251
f 762 471 1251
f 1366 264 1191
f 1366 265 264
f 596 595 856
f 595 629 856
f 1272 327 874
f 1281 1309 793
f 1309 1324 793
f 1351 1352 1309
f 1123 1188 1014
f 560 559 1332
f 266 523 1031
f 294 523 663
f 403 908 1078
f 1158 1074 506
f 1197 1024 221
f 164 1343 864
f 1184 1370 1157
f 815 728 465
f 474 640 475
f 189 692 140
f 1260 799 806
f 1235 1187 1186
f 113 112 1250
f 529 1054 536
f 736 1065 737
f 1065 1064 737
f 283 1316 612
f 1083 1065 736
f 175 931 803
f 787 450 788
f 321 481 319
f 939 435 894
f 826 312 631
f 1096 3 2
f 521 1155 953
f 1288 1359 76
f 960 822 1359
f 1359 822 76
f 340 905 1113
f 905 1368 1113
f 179 1137 1322
f 319 318 261
f 148 150 1161
f 910 1371 842
f 1371 1372 842
f 1371 768 767
f 163 165 211
f 693 875 449
f 255 466 966
f 1373 125 19
f 425 1198 1297
f 1337 399 400
f 439 794 795
f 443 794 439
f 1198 950 1024
f 1365 458 255
f 458 1365 858
f 1365 255 254
f 1365 254 125
f 769 899 342
f 35 840 809
f 1000 1274 994
f 432 434 796
f 664 238 230
f 344 1103 769
f 447 1374 84
f 202 407 731
f 472 1058 464
f 1058 1075 465
f 1058 699 1075
f 1058 472 699
f 1375 1211 1145
f 1375 1145 1183
f 1375 1183 1211
f 1364 278 277
f 502 1181 767
f 1376 1316 592
f 96 1377 109
f 484 612 1316
f 693 449 207
f 1278 1285 489
f 238 523 265
f 1071 224 225
f 1223 383 384
f 449 1050 207
f 1068 1108 598
f 336 6 5
f 725 69 483
f 1289 848 1192
f 803 1173 580
f 427 1161 1242
f 745 972 1223
f 882 706 184
f 580 1163 581
f 840 839 1073
f 472 36 698
f 1086 825 17
f 264 935 1191
f 415 761 1353
f 107 1356 517
f 517 1356 756
f 893 1378 104
f 1127 1378 893
f 926 104 1378
f 925 926 1127
f 926 1378 1127
f 1263 468 467
f 830 1379 831
f 519 1380 1349
f 1338 1019 259
f 863 260 259
f 893 927 428
f 902 255 1057
f 1076 1077 100
f 1296 425 375
f 1216 215 1381
f 580 1173 1164
f 660 557 1016
f 1264 351 1269
f 1141 1129 368
f 1129 346 368
f 369 1283 368
f 1338 790 1019
f 790 949 1019
f 624 648 365
f 1222 520 987
f 423 1303 892
f 1035 598 597
f 869 821 372
f 508 869 372
f 1309 1352 1382
f 855 1328 816
f 1326 1328 855
f 674 1328 1327
f 1328 674 675
f 1328 675 816
f 855 818 856
f 855 816 818
f 1383 1139 344
f 785 31 1200
f 917 934 747
f 722 723 934
f 1238 722 1148
f 722 934 1148
f 218 1148 377
f 377 1148 917
f 1148 934 917
f 1327 630 674
f 674 630 105
f 804 1231 628
f 1231 1233 628
f 105 1384 106
f 630 1327 1326
f 216 1286 1329
f 594 1301 1203
f 382 997 287
f 278 985 277
f 875 692 292
f 787 1302 1292
f 1187 650 948
f 1385 1132 67
f 1079 1080 869
f 1141 368 1283
f 489 1142 1386
f 1296 375 780
f 1340 1282 1308
f 1299 286 1386
f 889 339 1113
f 1310 208 436
f 597 1382 1034
f 1382 1352 1034
f 1247 1244 809
f 609 611 1227
f 611 1225 1227
f 1070 1071 1295
f 1387 98 1162
f 1026 1362 1104
f 1026 1104 623
f 1249 526 536
f 656 1057 966
f 761 543 1353
f 367 887 365
f 762 1337 543
f 1337 1136 543
f 1388 399 1337
f 1366 1191 1051
f 758 1389 982
f 977 962 1020
f 91 684 1295
f 1172 1390 493
f 327 1285 874
f 1297 861 544
f 340 341 905
f 655 732 1126
f 1275 1047 1181
f 1391 1275 947
f 634 1137 325
f 1081 570 1115
f 554 1256 607
f 553 770 554
f 192 1392 290
f 426 428 927
f 1083 1393 1344
f 674 1394 75
f 105 1394 674
f 104 75 1394
f 104 1394 105
f 663 523 238
f 748 916 1262
f 916 1236 1262
f 329 135 327
f 159 673 160
f 1090 388 987
f 519 987 520
f 559 1335 571
f 1335 873 571
f 1262 1236 1289
f 1236 709 1289
f 616 504 399
f 416 1353 542
f 1237 1348 669
f 443 796 794
f 796 266 794
f 266 1031 794
f 594 1203 546
f 871 911 1217
f 127 944 620
f 1257 964 1071
f 991 514 513
f 1345 754 295
f 569 1170 760
f 97 952 835
f 835 355 811
f 1100 576 1276
f 938 1022 196
f 1262 1289 1168
f 1259 440 441
f 1288 87 1359
f 435 938 196
f 1297 544 425
f 1197 310 309
f 992 231 414
f 80 145 391
f 1395 1249 1250
f 1250 112 1395
f 112 129 1395
f 1249 524 526
f 524 1249 1395
f 1140 933 542
f 1140 542 424
f 1197 221 310
f 1197 350 1298
f 309 348 1197
f 348 350 1197
f 1052 1239 533
f 499 498 1393
f 498 1344 1393
f 338 1088 1263
f 1273 238 265
f 613 1396 497
f 1396 498 497
f 1264 1118 1274
f 131 525 524
f 1248 1054 113
f 1054 370 113
f 1026 623 1153
f 907 1148 1149
f 906 908 403
f 1397 1220 1364
f 1220 1219 1364
f 1272 1226 1225
f 1012 1226 1272
f 1012 1227 1226
f 944 128 703
f 1171 14 778
f 386 222 141
f 81 1224 900
f 1224 81 83
f 939 894 76
f 182 706 413
f 1062 326 778
f 416 1188 126
f 1384 105 630
f 1137 636 1322
f 636 813 1322
f 232 1357 135
f 1357 1330 327
f 1178 1330 1357
f 1300 74 166
f 561 881 452
f 537 1128 1041
f 1210 999 67
f 67 999 303
f 284 286 166
f 712 1347 844
f 890 1244 840
f 1398 1346 100
f 787 1293 450
f 1255 1252 737
f 783 785 1200
f 1107 476 315
f 571 573 1342
f 128 944 127
f 804 782 1231
f 782 943 1231
f 1183 743 1211
f 1124 1126 1042
f 1008 679 1399
f 1237 971 334
f 1222 229 520
f 4 1362 2
f 1178 1357 232
f 385 835 811
f 327 1225 328
f 1064 1205 737
f 974 1354 412
f 1136 400 599
f 1001 1147 1251
f 1147 1388 1251
f 1388 1147 399
f 1251 1388 1337
f 692 694 140
f 1280 413 1354
f 413 412 1354
f 958 499 736
f 499 1393 736
f 1356 757 756
f 179 325 1137
f 447 1323 203
f 642 1301 827
f 1146 1049 124
f 1075 1074 1158
f 699 582 581
f 592 123 122
f 1200 1202 784
f 1258 31 785
f 415 1353 416
f 291 290 1400
f 290 1392 1400
f 1066 430 1199
f 430 429 1199
f 781 775 155
f 1228 243 786
f 750 842 1372
f 706 705 1287
f 705 659 1287
f 496 879 31
f 496 31 72
f 1150 412 653
f 412 411 653
f 598 1094 1096
f 1096 1401 598
f 736 1393 1083
f 1159 534 170
f 249 901 900
f 901 249 590
f 1402 590 254
f 1402 901 590
f 254 1007 1402
f 1007 901 1402
f 206 695 207
f 695 693 207
f 1282 482 70
f 636 635 1340
f 1008 1399 351
f 841 905 120
f 192 558 456
f 251 558 1149
f 801 504 616
f 1308 813 1340
f 813 636 1340
f 1009 127 620
f 484 1376 98
f 484 1316 1376
f 98 1377 96
f 1376 1377 98
f 109 1376 592
f 109 1377 1376
f 533 1239 1244
f 1145 1244 890
f 717 1005 981
f 1005 1403 981
f 524 1395 129
f 74 333 166
f 1005 1381 1403
f 935 888 1191
f 465 727 437
f 763 854 764
f 1025 550 1096
f 1298 1198 1197
f 1298 1297 1198
f 571 1342 1332
f 269 268 174
f 991 1358 500
f 1215 1235 991
f 1235 1358 991
f 1358 884 816
f 884 817 816
f 1404 816 500
f 1404 1358 816
f 500 1358 1404
f 1208 1347 585
f 1347 712 585
f 1065 1082 135
f 135 329 1065
f 1267 1268 976
f 1268 975 976
f 136 135 1082
f 1385 1130 1132
f 813 733 1322
f 733 1323 1322
f 1054 1249 536
f 167 953 1195
f 1195 953 1155
f 492 1113 1368
f 100 11 880
f 1030 294 295
f 678 1338 261
f 261 1338 259
f 138 1305 1219
f 465 728 727
f 864 1343 42
f 945 955 984
f 961 738 785
f 738 739 785
f 1073 890 840
f 459 460 1134
f 459 1134 682
f 1238 1148 906
f 1148 907 906
f 1310 1351 1309
f 1352 437 1034
f 1382 1324 1309
f 437 1351 1310
f 597 552 1382
f 552 1324 1382
f 680 359 360
f 1304 429 351
f 179 1322 447
f 658 203 1323
f 441 304 1259
f 578 479 680
f 82 1125 89
f 1208 585 475
f 821 1279 1138
f 869 1080 1138
f 34 214 1138
f 156 1335 157
f 883 873 1335
f 477 476 1265
f 476 1106 1265
f 151 68 246
f 540 473 541
f 1128 532 1063
f 532 1128 537
f 994 1135 463
f 970 1151 831
f 4 1174 1362
f 1026 152 550
f 1026 1153 152
f 592 1405 109
f 1339 506 1164
f 1223 972 383
f 106 1233 1232
f 1097 1098 797
f 988 877 1245
f 475 640 1243
f 637 802 1369
f 784 1202 1020
f 1202 1370 1020
f 1157 1370 1202
f 1369 1370 1184
f 1184 1177 1369
f 802 1020 1369
f 1020 1370 1369
f 883 1335 156
f 861 1297 860
f 122 1405 592
f 109 1405 406
f 1286 1152 1329
f 1286 1350 1151
f 1111 1329 563
f 1329 1152 563
f 564 563 1152
f 1151 1350 831
f 1350 487 831
f 667 669 1056
f 669 1348 1056
f 1348 1321 1212
f 1173 932 1164
f 1339 995 996
f 1088 976 1263
f 265 1366 1380
f 41 404 847
f 1361 67 1132
f 1283 1073 1072
f 890 1073 1283
f 1229 878 1134
f 974 1049 1354
f 721 916 723
f 723 916 748
f 870 514 500
f 870 983 514
f 983 732 335
f 983 335 514
f 988 1067 877
f 301 485 774
f 484 1302 787
f 1329 744 216
f 1111 1112 1329
f 216 1350 1286
f 215 1350 216
f 1050 449 381
f 444 1360 909
f 1360 1406 909
f 909 1406 450
f 788 1406 1360
f 450 1406 788
f 733 1360 446
f 788 1360 733
f 1090 987 519
f 1399 1304 351
f 1277 565 666
f 565 1325 666
f 1081 1115 146
f 1115 750 146
f 1064 329 1205
f 329 328 1205
f 1099 969 1050
f 1099 1050 330
f 398 969 330
f 486 1407 485
f 1407 774 485
f 1102 1407 486
f 1102 486 980
f 320 322 480
f 1254 1332 1342
f 1182 427 1313
f 427 928 1313
f 394 640 474
f 898 1207 475
f 1117 1228 786
f 1228 1230 243
f 469 372 371
f 1071 225 361
f 1408 1071 964
f 91 1295 965
f 1295 964 965
f 81 656 1125
f 655 1126 656
f 1126 1125 656
f 955 1042 984
f 1396 1088 498
f 394 395 392
f 90 41 847
f 850 100 880
f 407 202 408
f 407 409 364
f 1252 262 534
f 1255 1167 1252
f 726 1341 1035
f 1341 95 94
f 725 314 69
f 37 472 839
f 174 262 175
f 268 718 170
f 493 1390 344
f 755 1241 1172
f 344 1390 1383
f 1160 1139 1383
f 1240 1160 1172
f 1160 1383 1172
f 343 493 344
f 1383 1390 1172
f 1241 755 153
f 153 756 1241
f 752 1241 756
f 752 1242 1241
f 731 1374 447
f 731 407 364
f 85 731 364
f 1374 1409 84
f 84 1409 85
f 731 1409 1374
f 85 1409 731
f 1145 528 530
f 318 638 261
f 981 1403 1109
f 1216 1381 1005
f 397 199 1017
f 1311 860 349
f 1311 349 1179
f 114 1261 112
f 1261 1410 112
f 101 1392 456
f 129 112 1410
f 456 1392 192
f 1400 1392 1261
f 1261 1392 1410
f 1261 691 1400
f 691 291 1400
f 1386 286 489
f 1098 687 797
f 356 228 614
f 3 334 946
f 1076 100 850
f 1076 850 143
f 1076 143 142
f 1013 142 704
f 635 605 1340
f 1308 1282 814
f 1179 644 10
f 47 393 1312
f 649 948 650
f 53 844 1347
f 743 1411 742
f 742 1411 26
f 26 1411 743
f 1289 709 1412
f 1412 709 708
f 708 1289 1412
f 67 303 1117
f 302 1117 303
f 1117 194 67
f 1269 633 1118
f 1320 1354 753
f 1354 1049 753
f 149 148 625
f 148 626 625
f 998 1116 1017
f 859 863 491
f 863 503 491
f 1231 943 1232
f 1097 797 73
f 687 418 797
f 1410 1392 1413
f 1413 1392 101
f 130 129 1413
f 129 1410 1413
f 101 130 1413
f 729 982 1389
f 1166 610 263
f 1205 1166 1255
f 611 610 1205
f 610 1166 1205
f 472 37 36
f 1052 622 803
f 67 1361 1210
f 1047 957 1180
f 957 639 1180
f 1180 639 767
f 1313 928 927
f 1313 927 943
f 943 927 1232
f 812 464 437
f 577 576 519
f 1380 1366 1349
f 1366 1266 1349
f 577 519 1349
f 1273 519 520
f 1273 1380 519
f 265 1380 1273
f 903 905 341
f 492 1368 322
f 322 1368 841
f 904 448 905
f 904 522 448
f 1312 1179 10
f 827 1301 594
f 871 27 29
f 871 29 1203
f 476 1107 1106
f 49 1318 12
f 1318 1144 12
f 1414 95 815
f 1299 1386 1097
f 1302 484 98
f 1292 1293 787
f 787 454 484
f 1265 1319 990
f 990 1319 160
f 689 273 834
f 689 1265 273
f 1105 531 1106
f 531 1319 1106
f 116 1319 531
f 160 1319 116
f 326 1029 700
f 800 769 1103
f 420 1245 877
f 877 1067 797
f 418 420 877
f 1268 615 177
f 615 178 177
f 1007 902 901
f 1248 1249 1054
f 505 1158 506
f 1284 809 632
f 1284 632 698
f 1405 122 406
f 708 1066 1199
f 754 1373 19
f 1384 630 628
f 1233 106 1384
f 173 4 946
f 173 946 171
f 591 117 470
f 947 1275 1019
f 1391 1045 1275
f 1045 1047 1275
f 1045 1391 1021
f 1391 1367 1021
f 649 651 947
f 651 1391 947
f 651 1215 1391
f 1215 1367 1391
f 1150 974 412
f 1348 1212 1056
f 20 19 125
f 1320 754 1345
f 1415 599 396
f 1415 280 599
f 1415 811 280
f 811 1415 396
f 269 174 1204
f 765 1340 605
f 1224 83 249
f 517 756 153
f 1072 839 473
f 1396 615 1088
f 615 1267 1088
f 613 615 1396
f 976 1088 1267
f 1029 1033 779
f 1082 1344 136
f 136 1344 1089
f 1082 1083 1344
f 726 728 815
f 726 815 95
f 1035 1341 598
f 1341 1068 598
f 429 1304 1199
f 676 1066 708
f 1397 1364 277
f 1397 277 390
f 42 1416 390
f 42 1343 1416
f 144 620 944
f 525 1183 536
f 1183 525 743
f 530 529 1183
f 720 722 719
f 1097 1386 1142
f 216 1331 1381
f 1381 215 216
f 1109 1331 1223
f 533 1244 1145
f 198 1389 231
f 198 729 1389
f 1389 697 231
f 1389 758 697
f 758 757 697
f 963 1103 344
f 963 1417 1103
f 774 1417 963
f 1102 1103 1407
f 1103 1417 1407
f 774 1407 1417
f 532 1108 1063
f 332 1108 532
f 334 1108 332
f 1063 1108 1068
f 285 332 532
f 1305 1364 1219
f 1397 390 1416
f 1343 1165 1416
f 1165 1220 1416
f 1268 177 975
f 683 885 1379
f 405 970 831
f 405 831 885
f 831 1379 885
f 528 1145 890
f 1030 1031 294
f 1387 1162 134
f 1292 134 450
f 1292 1387 134
f 1292 98 1387
f 679 1093 1399
f 1093 1304 1399
f 59 833 1303
f 892 1303 833
f 906 719 1238
f 906 66 719
f 993 1000 994
f 100 1077 1398
f 1341 726 95
f 578 680 866
f 680 479 359
f 759 1256 770
f 770 1256 554
f 1414 815 506
f 1414 996 868
f 1414 868 95
f 214 821 1138
f 760 1170 607
f 278 986 985
f 97 647 330
f 1346 584 363
f 1346 363 362
f 1418 1014 584
f 1346 1418 584
f 1346 1398 1418
f 1398 1077 1418
f 1418 1013 1014
f 1013 1418 1077
f 1285 1278 874
f 1041 1278 286
f 654 1278 1041
f 1296 710 1419
f 1221 1419 710
f 1024 1419 1221
f 950 1419 1024
f 1296 1419 425
f 425 1419 950
f 954 353 471
f 559 571 1332
f 1131 1220 1165
f 247 1420 1385
f 1219 1421 1420
f 1131 1421 1219
f 1420 1421 1131
f 138 1219 1420
f 1420 247 138
f 1397 1416 1220
f 1420 1130 1385
f 1131 1130 1420
f 67 151 1385
f 1385 246 247
f 246 1385 151
f 1263 467 154
f 932 263 1164
f 931 932 803
f 506 1339 1414
f 996 1414 1339
f 483 482 1282
f 910 768 1371
f 767 1422 1371
f 392 1422 767
f 145 750 391
f 750 1372 391
f 391 1372 1371
f 1371 1422 391
f 391 1422 392
f 1343 1361 1165
f 1361 1132 1165
f 1017 1016 397
f 998 199 201
f 473 839 472
f 1295 1071 1408
f 1408 964 1295
f 964 361 422
f 683 1379 1070
f 1379 1423 1070
f 1070 1423 224
f 1423 1379 830
f 224 1423 830
f 224 830 316
f 598 1401 550
f 1401 1096 550
f 154 338 1263
f 1146 753 1049
f 125 1373 754
f 182 1280 183
f 1280 1290 183
f 1320 1290 1280
f 1345 294 1004
f 1345 295 294
f 295 754 19
f 1424 322 841
f 1424 480 322
f 1425 978 486
f 978 980 486
f 841 978 1425
f 1425 1424 841
f 486 1424 1425
f 486 480 1424
f 1384 628 1233
f 908 1333 193
f 193 1333 192
f 195 297 299
f 194 786 195
f 242 297 243
f 1426 713 509
f 1307 714 713
f 1426 1307 713
f 724 799 1427
f 799 1260 1427
f 724 1427 711
f 1427 1426 711
f 1363 1307 1426
f 236 601 1363
f 601 1307 1363
f 1363 234 236
f 711 1426 586
f 509 586 1426
f 1427 1260 1363
f 1363 1426 1427
f 773 1234 31
f 913 1253 766
f 1381 1331 1403
f 1331 1109 1403
f 1109 1223 384
