v 0.114784 0.126431 -0.005915
v 0.120548 0.089528 0.034035
v 0.149579 0.123711 -0.013111
v 0.071455 -0.041342 -0.217945
v 0.037813 -0.034548 -0.220262
v 0.027108 -0.113381 0.256731
v 0.047077 -0.089305 0.233940
v 0.033363 -0.086299 0.250876
v 0.029446 0.094741 0.056481
v 0.024924 0.132326 0.015398
v -0.044427 0.005800 -0.192966
v -0.006618 -0.011857 -0.190459
v -0.018953 -0.002041 -0.151491
v -0.030505 0.129194 0.024729
v -0.029787 0.114723 0.046083
v 0.185533 0.117939 -0.174528
v 0.217119 0.128237 -0.132966
v 0.217371 0.121206 -0.170640
v -0.293285 0.015404 -0.100035
v -0.316970 0.010238 -0.114717
v -0.298793 0.002701 -0.119133
v 0.087251 0.118030 -0.160955
v 0.122672 0.131336 -0.130622
v 0.121858 0.111404 -0.182304
v 0.412887 0.024338 -0.050551
v 0.417553 0.056577 -0.065089
v 0.410119 0.047613 -0.029062
v 0.410608 0.054032 -0.031860
v -0.227476 0.045537 -0.123772
v -0.250897 0.037020 -0.121482
v -0.251865 0.056770 -0.106640
v 0.378583 0.132671 -0.077193
v 0.377076 0.140510 -0.106977
v 0.102015 0.035131 0.065060
v 0.094049 0.063945 0.052826
v 0.056798 0.035296 0.063653
v 0.057092 -0.054643 0.158983
v 0.115292 -0.067236 0.148481
v 0.076538 -0.041478 0.119731
v 0.083037 0.110955 0.020937
v 0.057765 0.093750 0.048537
v 0.086083 0.092759 0.040592
v 0.308497 0.007137 -0.228382
v 0.264852 0.043068 -0.237450
v 0.305254 0.049255 -0.233362
v 0.164611 -0.094511 0.087477
v 0.130463 -0.111989 0.059902
v 0.146381 -0.107859 0.035367
v -0.151011 0.025907 -0.246369
v -0.115442 0.034919 -0.252562
v -0.112569 0.018876 -0.262371
v 0.090021 0.108136 -0.186192
v 0.095158 0.086724 -0.213130
v 0.005338 -0.096382 0.213358
v 0.008251 -0.108512 0.214724
v 0.016816 -0.093570 0.247087
v 0.297469 0.126620 -0.167667
v 0.300553 0.094450 -0.215699
v -0.241443 0.050144 -0.158232
v 0.350353 -0.013581 -0.015128
v 0.346584 0.035990 0.009167
v 0.308111 -0.024728 -0.004081
v -0.312071 -0.002387 -0.173888
v -0.294855 -0.007716 -0.169425
v -0.324584 -0.011908 -0.166019
v -0.264841 0.071719 -0.073392
v -0.202163 0.006974 -0.138110
v -0.167965 0.002207 -0.152026
v -0.171658 0.023715 -0.124142
v 0.055604 -0.105227 0.125091
v 0.072173 -0.099556 0.096257
v 0.096785 -0.122523 0.115871
v -0.332569 -0.015148 -0.151524
v -0.339543 -0.002450 -0.162520
v -0.162708 0.033399 0.022944
v -0.194110 0.035106 0.023340
v -0.271732 -0.009562 -0.144592
v -0.265126 -0.003524 -0.172831
v 0.058649 -0.008275 0.082511
v 0.046297 -0.055409 0.086168
v 0.069339 -0.025217 0.099332
v 0.198891 -0.009970 -0.241414
v 0.228453 -0.005824 -0.238037
v 0.230300 -0.024184 -0.224840
v 0.037192 -0.076772 0.136761
v 0.060669 -0.053931 0.116161
v -0.112900 -0.021334 -0.223914
v -0.115318 -0.010107 -0.214332
v -0.234228 0.014871 -0.123461
v -0.237321 -0.005149 -0.148374
v -0.090761 0.123832 -0.082792
v -0.123271 0.083992 -0.100079
v -0.086650 0.086882 -0.104271
v -0.285737 0.034189 -0.132062
v -0.311594 0.032142 -0.147695
v -0.314300 0.027697 -0.134036
v -0.391247 0.023288 -0.079039
v -0.377895 0.011831 -0.089947
v -0.391644 0.011522 -0.066674
v 0.298518 0.029838 0.017915
v 0.066733 -0.017938 -0.151924
v 0.109576 -0.025887 -0.152141
v -0.306144 -0.013975 -0.140810
v 0.214280 0.050687 0.028481
v 0.223944 0.079835 0.014363
v -0.275057 0.039201 -0.152353
v -0.147597 0.065399 -0.113171
v -0.179984 0.099349 -0.077776
v 0.035154 -0.109246 0.267123
v 0.048430 -0.114664 0.267350
v -0.072686 0.123700 0.026263
v -0.040518 0.122371 0.001041
v -0.052458 0.112058 -0.019076
v -0.225304 0.080780 -0.059953
v -0.224595 0.087108 -0.075268
v 0.091501 -0.124458 0.192378
v 0.086517 -0.105539 0.190381
v 0.076926 -0.122726 0.217432
v -0.301820 0.002953 -0.061725
v -0.338886 -0.001230 -0.063197
v -0.344776 0.017418 -0.100216
v -0.358779 0.005836 -0.096441
v -0.343088 0.006355 -0.119530
v 0.095610 -0.069255 -0.008785
v 0.088516 -0.077611 0.016948
v 0.075475 -0.053352 -0.000396
v 0.237873 -0.059074 -0.058755
v 0.282990 -0.047075 -0.036452
v 0.240997 -0.062397 -0.031323
v -0.226013 0.074452 -0.044639
v -0.127194 0.083785 -0.099881
v -0.125224 0.083036 -0.100559
v 0.110314 -0.022443 -0.072309
v 0.140202 -0.030570 -0.076878
v 0.260455 0.088772 -0.219232
v 0.109269 -0.116556 0.165195
v 0.270533 -0.041217 0.012195
v -0.277618 0.048153 -0.104256
v -0.356570 0.042385 -0.072727
v -0.359734 0.039981 -0.062484
v -0.242729 -0.011172 -0.204222
v -0.253244 -0.020557 -0.218292
v -0.238442 -0.027680 -0.206841
v -0.124680 0.007198 -0.185427
v -0.097408 0.005529 -0.151585
v -0.146882 -0.003487 -0.206894
v -0.144930 -0.024907 -0.221735
v -0.023703 0.014071 0.024509
v -0.013261 0.037705 0.061800
v -0.059520 0.035672 0.043892
v -0.189753 0.021086 -0.058897
v -0.195202 0.102100 0.048219
v -0.157047 0.112712 0.029333
v -0.199228 0.107218 0.030867
v -0.228619 0.045805 -0.032160
v -0.229654 0.032012 -0.046765
v -0.188516 0.054704 -0.029344
v -0.319749 0.026308 -0.035419
v -0.316133 0.039847 -0.009485
v -0.323935 0.026877 0.002957
v 0.030976 -0.087514 0.261583
v -0.331076 -0.003384 -0.116969
v -0.326032 0.010620 -0.098238
v -0.235862 -0.019732 -0.198486
v -0.284486 0.025088 -0.169560
v -0.297862 0.009840 -0.178103
v -0.311508 0.011546 -0.172878
v 0.155013 0.086297 0.027478
v -0.385308 0.030490 -0.053704
v -0.390030 0.027302 -0.061846
v -0.224231 -0.006734 -0.200829
v -0.225595 0.006094 -0.215754
v -0.237596 0.001741 -0.212856
v -0.198716 0.047870 0.006599
v -0.231164 0.057169 -0.007438
v -0.295791 0.022999 0.020155
v -0.329831 0.017373 0.019238
v -0.111083 0.093250 0.065250
v 0.308824 -0.043388 -0.148444
v 0.346457 -0.039761 -0.147876
v -0.110597 0.027446 -0.116290
v 0.377322 0.136273 -0.135835
v 0.184373 0.120991 -0.020307
v 0.189478 0.083066 0.020921
v 0.068893 -0.007774 -0.064589
v 0.042844 0.000235 -0.104315
v 0.062811 -0.004327 -0.099579
v -0.164357 0.019436 -0.215442
v 0.047810 -0.070236 0.111229
v 0.093625 -0.007000 0.088587
v 0.127575 0.030986 0.060230
v -0.081204 0.003514 -0.204183
v -0.117223 0.001928 -0.209697
v -0.020723 0.015956 -0.053539
v 0.027472 0.006895 -0.056870
v -0.025057 -0.017809 -0.254641
v 0.148492 0.138502 -0.089848
v 0.114305 0.140120 -0.087125
v 0.052457 0.130739 0.008339
v 0.111335 -0.017318 -0.109101
v -0.200483 -0.032565 -0.241507
v -0.218232 0.005521 -0.231993
v -0.223379 -0.002952 -0.237392
v -0.221877 0.005851 -0.223857
v 0.410931 -0.002755 -0.110956
v 0.384568 -0.031337 -0.086482
v 0.384329 -0.033736 -0.116895
v -0.042628 0.103101 -0.155509
v -0.057831 0.083366 -0.124269
v -0.046580 0.101320 -0.131220
v -0.289372 0.032807 -0.034333
v -0.287810 0.045621 -0.008802
v -0.272184 0.061363 -0.044182
v -0.226112 0.065386 -0.109024
v -0.176542 -0.008902 -0.204091
v -0.176961 -0.028481 -0.219555
v 0.163130 -0.063972 -0.049675
v 0.170089 -0.038697 -0.081447
v -0.209794 0.007049 -0.207859
v -0.207318 0.016642 -0.190041
v 0.144396 -0.054787 -0.051237
v 0.102962 -0.045849 -0.040547
v -0.067222 -0.019901 -0.253371
v 0.231752 -0.037946 -0.208462
v 0.098413 -0.076928 0.168433
v -0.135523 0.072170 -0.013826
v -0.148412 0.063602 -0.026528
v -0.205943 0.057570 -0.145087
v -0.006290 0.135783 -0.028463
v -0.048745 0.126351 -0.050169
v 0.127037 -0.108654 0.138013
v -0.318355 0.048274 -0.043726
v -0.311721 0.052302 -0.057621
v -0.375953 -0.005413 -0.064669
v -0.368496 -0.000914 -0.081987
v -0.109386 -0.021992 -0.252101
v -0.139752 -0.025517 -0.248569
v -0.070133 0.065062 -0.018358
v -0.108309 0.072500 -0.023711
v -0.072060 0.048726 -0.015822
v 0.251567 0.025688 0.030257
v 0.177908 -0.093595 -0.015148
v 0.135534 -0.083388 -0.012457
v -0.307935 0.054013 -0.009964
v -0.244706 0.081736 0.056527
v -0.220570 0.043340 0.057005
v -0.217697 0.086384 0.060900
v -0.155280 0.032235 -0.103839
v -0.192355 0.030083 -0.102480
v -0.227931 0.031866 0.022206
v 0.037108 -0.096181 0.266955
v -0.080327 0.032521 -0.200361
v -0.058030 0.053767 -0.203192
v -0.069710 0.041708 -0.219249
v 0.279194 0.107451 -0.198196
v 0.055340 -0.037448 0.007994
v 0.052550 -0.019631 -0.020788
v -0.038594 -0.004361 -0.208580
v 0.002527 -0.024535 -0.222227
v 0.105275 0.042168 -0.250747
v 0.130310 0.069759 -0.235742
v 0.138804 0.023488 -0.256454
v -0.335177 0.009600 -0.163415
v -0.327152 0.018475 -0.153241
v -0.333738 0.018891 -0.123005
v 0.339691 0.122211 -0.042845
v 0.380090 0.124833 -0.047409
v -0.240723 -0.004182 -0.227122
v -0.252146 -0.006480 -0.215621
v -0.293326 0.035671 -0.150024
v -0.350441 0.009989 -0.150642
v -0.032760 -0.014522 -0.224193
v -0.374657 0.021840 -0.044796
v -0.350126 0.019808 -0.036506
v -0.363010 0.037517 -0.052278
v 0.271188 0.053120 0.020040
v 0.053778 -0.028924 -0.184727
v 0.107337 -0.037011 -0.183885
v -0.348321 0.027598 -0.095906
v -0.347599 0.017217 -0.123220
v -0.335073 0.033122 -0.037027
v -0.340638 0.042131 -0.004542
v -0.033030 0.045727 -0.249749
v -0.317909 0.067369 0.043826
v -0.326781 0.070412 0.032769
v -0.337095 0.062299 0.039870
v -0.340682 0.042896 -0.048002
v 0.081534 -0.086620 0.188385
v 0.069880 -0.092209 0.209571
v 0.027336 -0.131190 0.213131
v 0.043508 -0.141737 0.210172
v -0.005559 0.049330 -0.248811
v 0.020904 0.053325 -0.246625
v -0.007111 0.032720 -0.261756
v -0.190689 0.091032 0.065273
v -0.150886 0.092141 0.065262
v -0.372526 0.035022 -0.070925
v -0.322565 0.015207 -0.165144
v 0.042185 -0.022319 -0.255898
v 0.100294 0.065313 -0.240068
v 0.394650 0.042141 0.000419
v 0.043239 -0.104848 0.272327
v -0.266510 0.008786 -0.121297
v 0.008564 -0.020064 -0.255269
v 0.005560 0.006251 -0.018978
v 0.005399 0.006319 -0.019042
v -0.202910 -0.000736 -0.152156
v 0.046058 -0.134584 0.244465
v 0.149050 -0.047851 0.108577
v 0.162941 -0.030503 0.092083
v 0.176833 -0.013156 0.075589
v 0.198082 -0.075043 0.055763
v 0.220626 -0.021609 0.040307
v -0.165175 0.006030 -0.182535
v -0.133020 0.005151 -0.151895
v -0.340555 -0.018388 -0.137028
v -0.353227 -0.000664 -0.138702
v -0.360525 0.035949 -0.082404
v -0.315874 0.024904 -0.157568
v 0.082299 0.134830 -0.110060
v 0.084482 0.127924 -0.135717
v -0.117471 0.035442 -0.237601
v -0.095019 0.101850 -0.026085
v -0.137580 0.091642 -0.033093
v -0.303372 0.039536 -0.101872
v -0.315238 0.044486 -0.087992
v -0.266255 0.010586 -0.061547
v -0.230690 0.018219 -0.061369
v -0.150146 0.061061 -0.140692
v -0.123240 0.080682 -0.172894
v -0.165535 0.070884 -0.168502
v 0.019793 0.014656 -0.269371
v -0.305086 0.056330 -0.071517
v -0.330828 0.049357 -0.072122
v -0.119063 0.046314 0.060188
v 0.269406 -0.047427 -0.085294
v -0.084554 0.006499 -0.189196
v -0.053111 0.005853 -0.172120
v 0.113753 -0.040497 0.114788
v 0.132171 -0.057543 0.128529
v 0.238843 -0.061531 -0.002071
v -0.072830 -0.017928 -0.224054
v -0.241021 -0.035628 -0.215196
v -0.109695 0.002833 -0.272180
v -0.109015 -0.011854 -0.264380
v -0.133925 -0.002093 -0.268294
v -0.217731 0.006631 -0.211793
v 0.058227 -0.097799 0.230758
v 0.062639 -0.110499 0.235687
v -0.230218 0.021065 -0.082656
v 0.025100 -0.115770 0.185007
v 0.011164 -0.120642 0.216089
v -0.271715 0.077088 0.052154
v -0.298723 0.072439 0.047782
v -0.286327 0.039169 0.052319
v -0.135373 0.111591 -0.080284
v 0.057996 -0.122802 0.252416
v -0.261357 0.021668 -0.100578
v -0.250162 -0.013406 -0.228355
v 0.041757 -0.039001 0.063490
v -0.061796 0.005907 -0.151274
v 0.151240 -0.040846 -0.180781
v 0.140571 -0.032075 -0.151501
v 0.383080 0.111016 -0.029687
v 0.345489 0.092282 -0.006768
v 0.136761 -0.045588 -0.213837
v -0.158155 -0.007018 -0.264407
v -0.170117 -0.029041 -0.245038
v -0.182385 -0.011944 -0.260520
v -0.071279 0.094359 0.065239
v -0.108868 0.024484 -0.053317
v -0.148816 0.023952 -0.056426
v -0.356568 0.038094 0.017486
v -0.029587 -0.019159 -0.240397
v 0.377568 0.132035 -0.164694
v 0.337518 0.129328 -0.166181
v -0.122392 0.034341 -0.199076
v -0.131306 0.031692 0.022548
v -0.153377 0.045870 0.059768
v -0.253205 0.020890 -0.185623
v -0.249597 -0.002612 -0.209958
v -0.207830 0.061086 -0.164111
v -0.002791 0.130760 0.020064
v -0.060256 0.007735 -0.271491
v -0.060500 0.042124 -0.250687
v 0.057853 0.106172 -0.185063
v 0.218864 0.102150 -0.196703
v -0.219006 -0.027784 -0.248997
v -0.230848 -0.036089 -0.237975
v -0.190060 0.037554 0.044228
v 0.204463 -0.073192 -0.050023
v -0.325389 0.025867 0.037984
v -0.345575 0.045477 0.042071
v -0.243231 0.099286 0.028066
v 0.264425 0.083599 0.006396
v -0.070489 0.036871 -0.033015
v -0.335815 -0.010886 -0.126999
v -0.364480 0.029512 -0.092081
v -0.376107 0.025983 -0.090039
v 0.037646 -0.067808 0.198235
v -0.394650 0.024095 -0.070036
v 0.107167 -0.037717 -0.234245
v 0.076195 -0.022364 -0.253721
v 0.016983 0.138906 -0.084851
v 0.039171 0.139852 -0.033340
v 0.016013 0.138679 -0.028937
v 0.015956 -0.089845 0.187826
v 0.309397 -0.024856 -0.199907
v 0.271191 -0.047015 -0.149012
v 0.270574 -0.031401 -0.204184
v -0.010818 0.012636 -0.270802
v -0.253448 0.041254 0.054662
v -0.225202 0.077784 -0.093967
v -0.354939 0.052000 0.007654
v 0.093359 -0.107837 0.090347
v 0.035819 -0.085185 0.240196
v -0.013503 0.052480 -0.230965
v -0.014583 0.137490 -0.085075
v 0.217741 0.129646 -0.061371
v -0.308964 0.054762 0.048879
v 0.232882 -0.046623 -0.179002
v -0.042929 0.021096 -0.013195
v 0.028131 -0.023311 -0.186898
v 0.182679 0.136884 -0.092571
v 0.216867 0.135267 -0.095293
v 0.079990 0.129151 0.001281
v 0.044665 0.138630 -0.023610
v 0.023911 0.028207 0.062571
v 0.390238 0.070862 -0.003131
v -0.031476 0.095468 0.065227
v 0.048550 0.140321 -0.084627
v -0.346868 0.007672 -0.158900
v 0.268475 0.000656 -0.233209
v 0.153696 0.114671 -0.178416
v -0.197411 0.013996 -0.222239
v -0.186580 0.016896 -0.240176
v -0.208548 0.031940 -0.193143
v 0.043025 0.009626 0.070752
v 0.392596 -0.002434 -0.026174
v 0.388792 -0.018941 -0.055271
v 0.401599 0.115609 -0.125301
v 0.409519 0.092011 -0.157024
v -0.202061 0.099774 0.013672
v 0.039035 -0.110898 0.153926
v -0.361982 0.051974 0.016452
v -0.360414 0.053437 0.025609
v -0.003123 0.120108 -0.141640
v -0.006483 0.102242 -0.182806
v 0.200553 -0.045743 -0.083172
v -0.319206 0.037084 0.049976
v -0.188584 0.069403 0.065802
v -0.252344 0.080300 -0.004811
v -0.099904 0.029985 0.022152
v 0.147671 -0.028174 -0.117188
v 0.068060 -0.135678 0.201585
v 0.387691 0.002418 -0.206657
v 0.388541 0.020097 -0.218728
v 0.110205 -0.022409 -0.251543
v 0.111604 -0.001870 -0.259115
v 0.139767 -0.018263 -0.248167
v 0.168425 -0.043040 -0.212045
v 0.171567 -0.038264 -0.150861
v -0.228525 -0.011425 -0.242791
v 0.079574 0.137770 -0.041048
v -0.313424 0.064722 -0.003072
v -0.299794 0.068270 -0.006101
v -0.208497 0.047336 -0.181553
v -0.017495 -0.003997 -0.265819
v -0.387734 0.022455 -0.087998
v 0.080117 0.141737 -0.084403
v -0.136568 0.059733 -0.121690
v 0.289575 -0.045420 -0.042212
v 0.307793 -0.042063 -0.085690
v 0.182797 -0.027242 -0.229933
v 0.187724 -0.030145 -0.225782
v 0.050404 0.016675 -0.267939
v 0.000540 0.136243 -0.021336
v -0.374159 0.034003 -0.052991
v 0.393789 0.019080 -0.010952
v -0.084749 0.046758 0.060609
v 0.023890 -0.009990 -0.151707
v -0.050434 0.047202 0.061029
v -0.111143 -0.021663 -0.238008
v 0.195902 0.032417 -0.246510
v 0.224450 0.036881 -0.241538
v 0.019695 -0.079529 0.205866
v 0.036733 -0.076496 0.219216
v 0.209279 -0.082867 0.009174
v 0.232956 -0.057705 0.028470
v 0.337023 0.139199 -0.104056
v -0.070808 0.017161 -0.130597
v 0.167353 0.027952 -0.251482
v 0.169329 -0.014116 -0.244790
v 0.165963 0.129664 -0.137347
v 0.378556 0.120487 -0.188125
v 0.021738 0.083272 -0.208828
v 0.025685 0.104207 -0.183935
v 0.418150 0.074509 -0.102853
v 0.407152 0.099236 -0.064192
v 0.418538 0.061812 -0.077656
v -0.039819 0.071987 0.066295
v 0.000571 0.119682 -0.143747
v 0.030130 0.121663 -0.148077
v 0.062352 -0.120994 0.242486
v 0.419601 0.041569 -0.139144
v 0.419399 0.029125 -0.103416
v 0.414225 0.006886 -0.127026
v 0.345656 0.055442 -0.229274
v 0.348519 0.013617 -0.223555
v -0.091173 0.111786 -0.052061
v 0.386071 0.097199 -0.011964
v -0.186855 0.065393 -0.111098
v -0.021447 0.055630 -0.213119
v -0.030746 0.079110 -0.201025
v -0.166907 0.096493 -0.006701
v -0.128921 0.100657 -0.009881
v -0.090690 0.106357 -0.014479
v -0.364548 0.006194 -0.047875
v 0.169463 0.133928 -0.053514
v 0.226452 0.015528 -0.239787
v -0.046198 0.121106 -0.111416
v -0.204894 0.092330 -0.003522
v -0.258995 0.039306 -0.033246
v -0.237083 -0.013993 -0.239111
v -0.238223 -0.026311 -0.236682
v -0.245598 -0.016533 -0.235389
v 0.348119 -0.020058 -0.197246
v -0.254612 -0.010325 -0.221306
v 0.296971 0.137888 -0.101135
v 0.257420 0.123913 -0.169154
v -0.169183 0.067557 -0.010291
v 0.420045 0.036241 -0.096934
v 0.420036 0.056133 -0.124900
v -0.080946 0.090480 -0.177286
v -0.038651 0.100277 -0.181677
v 0.408570 0.057265 -0.025886
v 0.407598 0.087832 -0.053221
v -0.350793 0.014741 -0.132776
v -0.353928 0.012272 -0.142335
v -0.094315 0.036766 -0.221137
v -0.118920 0.031824 -0.223025
v -0.045389 0.015274 -0.121700
v -0.347895 0.052025 -0.001144
v -0.287234 0.091355 0.025265
v -0.303229 0.083922 0.024025
v -0.229429 0.027932 -0.101120
v -0.201945 0.020955 -0.125624
v -0.117551 0.030325 -0.106879
v -0.100669 0.028980 -0.097266
v -0.074370 0.026716 -0.080064
v -0.068919 0.025016 -0.050209
v 0.222404 0.059987 -0.232152
v 0.162144 -0.100727 0.010110
v -0.046150 0.136074 -0.085300
v -0.170312 0.056893 -0.123876
v 0.380750 0.105807 -0.208632
v 0.340651 0.100128 -0.212166
v 0.140176 -0.108036 0.084757
v 0.114544 -0.116118 0.084437
v 0.277459 -0.003638 0.021338
v -0.071181 0.037089 0.001208
v -0.095940 0.059320 -0.001019
v -0.101864 0.076784 -0.017361
v 0.113448 -0.098438 0.032114
v 0.081422 -0.085967 0.042681
v 0.021095 -0.000136 0.027261
v -0.187691 0.045425 0.059348
v 0.016354 0.012668 0.044147
v -0.358741 0.054892 0.034754
v -0.347918 0.058596 0.037312
v -0.108339 0.065406 -0.115244
v -0.068501 0.028279 0.021757
v 0.404031 0.095547 -0.167007
v 0.053621 -0.124479 0.262374
v 0.079026 -0.128928 0.147305
v -0.001015 0.095104 0.060854
v 0.386841 -0.015261 -0.194585
v 0.387299 0.040863 -0.221957
v 0.160326 0.074204 -0.231416
v 0.026574 -0.083309 0.162293
v 0.308421 -0.044107 -0.117971
v -0.165470 0.033141 -0.196109
v -0.076221 0.111961 -0.045088
v -0.217570 -0.014148 -0.249713
v 0.403165 0.048006 -0.204464
v 0.404814 0.040527 -0.201246
v 0.256919 0.136577 -0.098214
v 0.283402 0.130919 -0.066388
v 0.073830 0.061317 -0.242254
v 0.047367 0.057321 -0.244440
v 0.054503 0.086441 -0.211070
v 0.409231 0.053296 -0.027087
v -0.114866 0.118206 0.027798
v 0.386057 0.061629 -0.225186
v -0.261752 0.028626 0.021072
v 0.156830 -0.071181 0.098027
v 0.020782 0.080615 -0.211601
v 0.023829 0.081586 -0.211282
v -0.096547 0.056882 -0.186414
v 0.000886 0.009614 -0.101424
v -0.002037 0.010049 -0.102378
v -0.181796 0.083047 -0.038866
v -0.319877 0.020566 -0.122791
v -0.235934 -0.035859 -0.226585
v -0.101019 0.060200 0.000269
v 0.059992 -0.084896 0.103743
v 0.406221 0.052267 -0.198127
v 0.145824 -0.101583 0.112745
v 0.122569 0.137032 -0.047120
v 0.124015 0.137013 -0.047695
v 0.122400 0.137191 -0.047947
v 0.314379 0.063915 0.009341
v 0.304907 0.087364 -0.001572
v 0.219167 0.118270 -0.027503
v 0.233558 -0.050641 -0.149581
v 0.232922 -0.049188 -0.117682
v 0.202563 -0.044452 -0.150221
v 0.080330 0.017849 -0.264682
v -0.259487 0.051395 -0.008120
v -0.119173 0.060571 -0.127072
v -0.082705 0.102206 -0.099003
v 0.005219 0.006373 -0.018965
v 0.261585 -0.003263 0.027189
v -0.069081 0.065413 -0.117318
v -0.102824 0.062573 -0.119504
v 0.384090 -0.036135 -0.147308
v 0.110256 0.019023 -0.261426
v 0.352017 0.118216 -0.191491
v 0.061267 -0.135332 0.178738
v 0.131952 -0.004260 0.082968
v 0.153134 0.026841 0.055400
v -0.329125 0.030919 -0.099487
v 0.068163 -0.022564 -0.036434
v 0.005447 0.006289 -0.018827
v 0.259230 0.118929 -0.032892
v -0.319224 0.076488 0.022786
v -0.323139 0.068831 0.011371
v 0.293193 0.059300 0.014196
v 0.038218 -0.018792 0.017628
v -0.206615 -0.016870 -0.256634
v 0.075782 -0.035083 -0.026457
v 0.076798 -0.092761 0.069469
v -0.208991 -0.032054 -0.217375
v 0.383404 0.083718 -0.216909
v -0.096615 0.066077 -0.139425
v -0.204290 0.002063 -0.165900
v -0.045579 0.048669 -0.216184
v 0.121785 0.137201 -0.047571
v -0.202406 0.011208 -0.236085
v -0.195174 0.000717 -0.250336
v 0.002202 0.122012 -0.138744
v 0.038887 0.130660 -0.123207
v 0.385444 -0.027841 -0.171477
v 0.045823 0.121261 -0.152070
v 0.044230 0.122365 -0.149063
v -0.001946 0.010355 -0.100863
v 0.137719 0.095291 -0.207705
v 0.215735 -0.076886 -0.023691
v 0.299292 0.119589 -0.038281
v -0.337475 0.056599 -0.000594
v 0.317790 0.134633 -0.140680
v -0.293514 0.079813 0.009582
v -0.087971 0.038522 -0.251624
v 0.346181 -0.036700 -0.086086
v 0.341139 0.113144 -0.196340
v 0.231018 -0.052790 -0.084898
v 0.200089 -0.040493 -0.210254
v -0.119294 0.061847 -0.136061
v -0.123449 0.061388 -0.135962
v 0.083450 -0.009724 -0.091764
v 0.418033 0.022830 -0.093026
v 0.411416 0.013948 -0.058251
v 0.402532 -0.012015 -0.079381
v -0.299930 0.024180 -0.116429
v 0.162462 0.131902 -0.041839
v 0.123783 -0.096403 0.017113
v -0.112877 0.062563 -0.135887
v 0.408781 -0.002202 -0.153245
v 0.416253 0.032339 -0.161831
v 0.406699 0.099887 -0.062661
v 0.401924 0.088409 -0.032361
v -0.235398 0.000669 -0.176237
v 0.181346 -0.084777 0.071620
v 0.041510 -0.011521 -0.021965
v 0.407060 0.107113 -0.115567
v 0.327022 0.136993 -0.131233
v 0.081942 -0.009861 -0.106015
v -0.205669 0.004861 -0.179644
v -0.206202 -0.014317 -0.201289
v 0.043122 0.120482 -0.153246
v 0.032939 -0.020358 0.044184
v -0.292979 0.081897 0.036524
v 0.105097 -0.048135 -0.215628
v 0.419153 0.030625 -0.090618
v 0.221556 0.099053 -0.006570
v 0.414391 0.073988 -0.155172
v 0.413841 0.084793 -0.143211
v 0.408388 0.053712 -0.024662
v 0.331835 -0.032108 -0.037238
v 0.363646 -0.025198 -0.046193
v -0.004616 0.121497 -0.137368
v 0.138551 0.130891 -0.133268
v 0.170628 0.097328 -0.206420
v 0.413806 0.028211 -0.169411
v 0.414280 0.041940 -0.169914
v 0.410468 0.083062 -0.168975
v -0.079821 0.028416 -0.109919
v -0.044066 0.020980 -0.080846
v -0.060331 0.096728 -0.019985
v -0.310030 0.022336 -0.119616
v 0.190724 0.004191 0.059095
v 0.178875 0.024190 0.049000
v 0.408606 0.050793 -0.025012
v 0.338699 -0.032582 -0.172204
v -0.002533 0.010569 -0.100119
v 0.152215 0.128432 -0.141063
v 0.060225 -0.075269 0.192756
v 0.196664 -0.045024 -0.190277
v 0.404679 -0.007989 -0.162159
v 0.403842 -0.012886 -0.151652
v 0.328612 -0.032583 -0.035738
v 0.005673 0.060686 0.063973
v -0.090248 0.110615 0.049185
v -0.003811 0.010609 -0.101672
v -0.044081 0.018340 -0.113387
v -0.035073 0.014182 -0.118217
v 0.406533 0.100306 -0.063914
v -0.327054 0.061173 -0.000044
v 0.408241 -0.007341 -0.125414
v 0.182812 -0.037500 -0.115089
v 0.185053 -0.038069 -0.114574
v 0.169097 0.055623 0.038586
v 0.053146 -0.052982 0.039430
v 0.328636 -0.033233 -0.037819
v -0.141372 0.026475 -0.122660
v 0.303405 -0.044685 -0.117748
v 0.190341 0.078649 -0.227091
v 0.406949 0.099248 -0.063048
v -0.345477 0.061607 0.018599
v 0.220357 0.083094 -0.222765
v 0.399346 0.119729 -0.112939
v 0.054515 -0.055939 0.041520
v 0.055583 -0.055970 0.038658
v 0.154992 0.055779 0.042175
v -0.074451 0.046914 -0.113619
v -0.039491 0.019082 -0.105127
v -0.046651 0.021311 -0.106954
v 0.404282 0.074194 -0.192456
v 0.181663 0.093867 -0.210664
v 0.181004 0.099636 -0.203224
v 0.321335 -0.035016 -0.037065
v 0.403745 0.008009 -0.187456
v -0.204056 0.054054 -0.126062
v 0.204616 0.021539 0.042600
v 0.008214 -0.015280 -0.182317
v 0.297154 0.131857 -0.068282
v 0.178734 -0.093915 0.043753
v 0.333695 0.133849 -0.072266
v 0.277769 0.131255 -0.069185
v 0.020082 0.061746 0.063984
v 0.187356 -0.091654 0.031127
v 0.044188 0.121456 -0.151216
v -0.204601 0.080016 -0.007646
v -0.032170 0.018385 -0.077049
v 0.327194 -0.032853 -0.035476
v 0.184292 -0.037945 -0.116294
v -0.221243 -0.025028 -0.204930
f 1 2 3
f 6 7 8
f 11 12 13
f 16 17 18
f 19 20 21
f 22 23 24
f 25 26 27
f 26 28 27
f 29 30 31
f 34 35 36
f 37 38 39
f 40 41 42
f 43 44 45
f 46 47 48
f 49 50 51
f 54 55 56
f 60 61 62
f 63 64 65
f 67 68 69
f 70 71 72
f 65 73 74
f 77 64 78
f 79 80 81
f 82 83 84
f 85 37 86
f 67 89 90
f 91 93 92
f 94 95 96
f 97 98 99
f 62 61 100
f 109 6 110
f 111 112 113
f 66 114 115
f 30 59 106
f 116 117 118
f 121 122 123
f 124 125 126
f 127 128 129
f 114 66 130
f 131 132 107
f 45 44 135
f 94 138 106
f 141 142 143
f 88 146 147
f 148 149 150
f 152 153 154
f 155 156 157
f 158 159 160
f 56 161 8
f 121 162 163
f 165 166 167
f 168 3 2
f 157 156 151
f 171 172 173
f 29 59 30
f 155 174 175
f 174 155 157
f 160 176 177
f 183 168 184
f 186 187 185
f 86 80 189
f 190 191 34
f 192 193 88
f 197 23 198
f 199 10 41
f 202 203 204
f 205 206 207
f 208 209 210
f 211 212 213
f 29 31 214
f 147 215 216
f 217 134 218
f 219 171 220
f 134 221 222
f 85 86 189
f 37 225 38
f 226 75 227
f 29 228 59
f 229 230 113
f 238 239 240
f 217 242 243
f 244 211 232
f 245 246 247
f 69 248 249
f 6 251 109
f 252 253 254
f 58 255 57
f 256 257 126
f 12 258 259
f 260 261 262
f 264 265 96
f 268 269 173
f 94 270 95
f 265 263 271
f 121 123 122
f 273 274 275
f 100 276 241
f 101 277 278
f 279 265 280
f 121 123 162
f 281 274 282
f 284 285 286
f 274 281 287
f 287 275 274
f 288 289 117
f 133 200 134
f 292 293 294
f 295 296 152
f 297 97 170
f 76 250 174
f 63 298 167
f 229 113 112
f 261 260 300
f 302 109 251
f 195 305 306
f 90 307 67
f 6 290 308
f 37 288 225
f 311 312 313
f 314 315 68
f 316 317 73
f 318 297 140
f 298 263 319
f 320 23 321
f 322 50 49
f 325 138 94
f 329 330 331
f 222 221 243
f 294 293 332
f 333 326 334
f 288 117 225
f 335 178 296
f 336 128 127
f 328 151 156
f 321 23 22
f 192 337 193
f 144 146 88
f 63 166 64
f 299 304 332
f 339 38 340
f 126 222 124
f 342 88 87
f 243 221 217
f 343 143 142
f 344 345 346
f 289 348 349
f 74 73 317
f 350 151 328
f 351 352 55
f 6 349 7
f 64 166 78
f 353 354 355
f 131 356 132
f 6 357 349
f 358 303 89
f 129 128 137
f 328 327 350
f 268 359 269
f 111 15 14
f 360 80 79
f 361 338 13
f 362 363 278
f 364 266 365
f 362 278 366
f 367 368 369
f 111 370 15
f 371 227 372
f 282 177 373
f 299 4 5
f 304 259 374
f 375 376 182
f 304 299 5
f 380 173 381
f 228 331 382
f 94 106 270
f 386 52 53
f 18 387 16
f 292 294 283
f 388 201 389
f 250 76 390
f 391 127 129
f 373 392 393
f 147 87 88
f 35 42 41
f 394 247 154
f 105 241 276
f 55 352 56
f 397 317 316
f 318 398 399
f 92 356 91
f 339 340 309
f 402 4 403
f 404 406 405
f 316 73 103
f 408 409 410
f 283 411 384
f 403 4 299
f 355 412 353
f 413 66 115
f 350 358 89
f 248 372 151
f 11 13 338
f 120 235 122
f 363 200 102
f 71 415 72
f 198 23 320
f 416 56 8
f 292 417 293
f 297 318 399
f 229 418 230
f 175 174 250
f 354 420 355
f 194 422 396
f 410 224 84
f 1 40 2
f 263 63 65
f 423 259 5
f 17 424 425
f 272 374 259
f 413 214 31
f 411 283 294
f 272 342 374
f 199 426 427
f 365 61 429
f 430 15 370
f 165 167 319
f 405 431 404
f 339 309 310
f 433 44 43
f 287 232 334
f 53 52 24
f 222 133 134
f 297 399 97
f 226 378 75
f 217 218 391
f 342 192 88
f 220 437 219
f 441 442 375
f 38 339 39
f 314 215 146
f 81 80 86
f 167 166 63
f 394 154 443
f 327 358 350
f 414 445 446
f 6 352 290
f 10 427 406
f 283 384 385
f 208 447 448
f 218 449 391
f 286 450 420
f 349 118 289
f 136 225 117
f 118 117 289
f 247 451 295
f 452 130 213
f 130 66 213
f 453 335 378
f 272 259 258
f 137 341 129
f 138 31 106
f 31 66 413
f 268 204 203
f 217 221 134
f 223 196 374
f 454 134 200
f 390 76 75
f 211 244 212
f 458 459 460
f 362 461 462
f 89 303 90
f 464 427 426
f 465 466 244
f 380 467 437
f 468 411 304
f 373 177 392
f 374 196 304
f 431 470 320
f 123 397 162
f 472 336 473
f 36 41 9
f 217 391 242
f 474 475 461
f 332 476 299
f 39 81 86
f 303 77 90
f 477 383 10
f 432 263 74
f 403 299 476
f 139 318 140
f 229 404 418
f 432 74 317
f 278 277 4
f 298 63 263
f 74 263 65
f 478 170 169
f 60 479 61
f 423 277 481
f 149 482 150
f 245 412 246
f 483 342 87
f 234 99 235
f 298 319 167
f 400 486 487
f 151 372 157
f 297 170 478
f 170 97 401
f 304 411 332
f 490 33 182
f 190 34 36
f 271 263 432
f 190 36 79
f 190 79 81
f 304 196 468
f 145 361 491
f 1 426 40
f 146 215 147
f 494 424 17
f 223 374 342
f 188 49 436
f 245 247 394
f 496 448 497
f 498 499 500
f 312 489 313
f 290 291 308
f 404 229 406
f 502 447 503
f 204 172 347
f 118 455 116
f 302 251 109
f 137 128 62
f 271 432 317
f 505 506 507
f 5 259 304
f 504 308 118
f 45 508 509
f 356 510 91
f 107 512 108
f 314 144 315
f 314 146 144
f 513 417 514
f 41 36 35
f 213 333 233
f 232 233 334
f 324 515 516
f 163 120 122
f 399 469 97
f 234 518 99
f 99 518 273
f 169 99 273
f 441 375 182
f 492 484 82
f 262 492 493
f 519 424 197
f 484 520 82
f 82 493 492
f 144 337 145
f 193 144 88
f 144 145 315
f 481 277 101
f 522 394 443
f 523 327 156
f 524 525 526
f 509 456 527
f 452 394 522
f 528 269 359
f 529 57 530
f 227 531 157
f 75 531 227
f 506 505 532
f 505 533 532
f 323 510 356
f 108 512 413
f 534 208 535
f 536 28 537
f 538 271 539
f 377 540 541
f 361 542 491
f 135 255 58
f 239 226 227
f 371 239 227
f 49 188 541
f 489 137 313
f 488 489 312
f 546 547 249
f 383 14 15
f 359 524 526
f 275 287 140
f 178 335 480
f 249 248 151
f 548 549 371
f 550 551 371
f 485 484 552
f 242 553 243
f 91 554 521
f 228 555 331
f 410 84 433
f 158 119 211
f 100 560 62
f 116 136 117
f 156 155 523
f 240 422 561
f 238 562 563
f 125 564 565
f 393 450 286
f 271 538 265
f 379 567 390
f 378 335 379
f 199 427 10
f 405 406 427
f 464 431 405
f 77 103 64
f 213 232 211
f 323 356 324
f 10 9 41
f 566 568 148
f 341 489 488
f 569 570 446
f 92 571 132
f 531 174 157
f 227 157 372
f 75 174 531
f 478 275 140
f 480 335 453
f 422 572 561
f 75 76 174
f 573 375 442
f 95 319 96
f 264 319 263
f 574 110 6
f 142 269 528
f 478 140 297
f 72 575 70
f 567 246 390
f 308 574 6
f 191 35 34
f 501 576 430
f 501 149 576
f 151 350 249
f 247 152 154
f 107 471 555
f 392 450 393
f 54 56 486
f 379 335 296
f 316 103 397
f 66 31 138
f 290 352 351
f 119 158 120
f 1 464 426
f 581 179 180
f 178 480 370
f 229 112 383
f 72 136 575
f 435 437 582
f 436 435 188
f 435 582 188
f 107 555 512
f 49 541 322
f 327 328 156
f 583 510 323
f 388 463 584
f 139 287 334
f 418 554 230
f 457 585 586
f 587 588 529
f 589 590 591
f 98 469 399
f 551 194 396
f 307 68 67
f 37 39 86
f 483 237 236
f 75 378 379
f 337 192 11
f 580 444 351
f 592 28 536
f 62 560 137
f 229 477 406
f 10 406 477
f 97 469 98
f 11 258 12
f 162 103 21
f 435 204 347
f 89 546 350
f 213 233 232
f 463 388 525
f 509 43 45
f 334 233 333
f 580 37 85
f 287 139 140
f 283 417 292
f 501 482 149
f 350 546 249
f 85 444 580
f 546 89 547
f 596 310 309
f 584 463 203
f 486 56 487
f 416 487 56
f 597 598 590
f 252 540 377
f 252 254 540
f 534 599 330
f 252 599 534
f 330 599 377
f 377 599 252
f 67 547 89
f 582 377 188
f 377 541 188
f 582 331 377
f 331 330 377
f 70 85 189
f 481 600 601
f 59 467 380
f 244 466 212
f 212 466 213
f 359 268 524
f 515 324 602
f 265 603 96
f 605 378 226
f 64 103 65
f 95 270 319
f 270 165 319
f 448 447 497
f 85 70 444
f 80 606 189
f 606 70 189
f 488 553 242
f 522 443 515
f 585 607 586
f 606 71 70
f 240 239 396
f 426 199 40
f 199 41 40
f 186 600 481
f 161 56 6
f 161 6 109
f 407 400 580
f 267 266 364
f 597 590 293
f 57 255 530
f 530 135 387
f 354 284 420
f 420 284 286
f 411 468 384
f 468 196 384
f 609 610 611
f 383 9 10
f 373 414 282
f 135 530 255
f 407 351 55
f 612 365 613
f 598 591 590
f 463 524 203
f 615 616 617
f 397 103 162
f 153 152 296
f 342 483 223
f 396 422 240
f 119 19 327
f 75 379 390
f 476 618 403
f 155 619 523
f 250 595 619
f 250 619 175
f 155 175 619
f 147 237 87
f 120 158 274
f 620 471 571
f 430 370 501
f 543 282 414
f 160 177 282
f 282 274 160
f 237 483 87
f 472 62 128
f 621 91 209
f 158 160 274
f 589 300 260
f 223 483 236
f 46 558 47
f 194 306 622
f 547 67 69
f 313 137 623
f 241 560 100
f 239 563 226
f 6 110 357
f 597 293 417
f 598 497 386
f 597 417 513
f 247 295 152
f 571 471 107
f 107 132 571
f 195 600 186
f 597 513 514
f 597 514 448
f 150 482 480
f 624 625 571
f 210 209 521
f 511 364 365
f 529 530 587
f 260 262 627
f 556 628 495
f 460 459 262
f 493 460 262
f 630 631 191
f 480 453 150
f 603 265 632
f 633 185 222
f 102 101 278
f 51 384 344
f 6 56 352
f 173 269 381
f 524 268 203
f 268 173 204
f 173 172 204
f 131 107 108
f 148 634 566
f 39 339 190
f 190 81 39
f 601 13 481
f 527 456 577
f 186 185 195
f 105 276 395
f 241 105 104
f 285 636 637
f 638 276 100
f 138 333 66
f 633 257 185
f 639 257 256
f 186 481 101
f 340 596 309
f 58 45 135
f 641 222 126
f 641 633 222
f 47 558 559
f 605 563 562
f 573 495 375
f 451 246 567
f 451 247 246
f 325 333 138
f 19 358 327
f 153 515 443
f 154 153 443
f 642 47 559
f 502 497 447
f 126 257 641
f 472 128 336
f 384 223 345
f 511 365 429
f 633 641 257
f 539 271 317
f 429 61 301
f 92 93 571
f 521 209 91
f 624 645 625
f 19 21 303
f 646 307 90
f 401 97 99
f 428 438 36
f 327 211 119
f 198 648 611
f 635 419 614
f 453 562 561
f 525 524 463
f 525 388 389
f 561 396 240
f 203 649 650
f 649 203 202
f 71 642 415
f 630 310 311
f 290 351 291
f 236 237 345
f 239 371 396
f 651 404 652
f 4 277 5
f 5 277 423
f 577 653 527
f 421 615 617
f 654 655 321
f 453 572 150
f 19 163 20
f 208 534 209
f 600 195 656
f 632 279 334
f 434 657 24
f 658 341 488
f 54 407 55
f 407 580 351
f 92 132 356
f 621 93 91
f 657 261 53
f 93 209 624
f 93 624 571
f 212 211 523
f 78 166 380
f 18 17 530
f 329 331 555
f 400 407 486
f 269 141 381
f 608 558 46
f 557 508 58
f 494 16 434
f 543 414 660
f 529 661 57
f 629 444 575
f 2 40 42
f 508 557 644
f 508 45 58
f 329 555 471
f 435 202 204
f 400 37 580
f 662 544 452
f 663 51 50
f 51 663 384
f 385 384 663
f 303 21 77
f 119 163 19
f 664 180 207
f 575 444 70
f 376 628 665
f 494 197 424
f 616 666 449
f 667 475 82
f 330 669 668
f 658 242 391
f 534 330 645
f 119 120 163
f 20 163 162
f 21 20 162
f 19 303 358
f 320 655 652
f 202 435 649
f 222 185 133
f 185 670 133
f 101 187 186
f 408 410 433
f 84 83 433
f 408 433 43
f 520 484 485
f 655 320 321
f 671 672 673
f 591 598 386
f 185 187 670
f 133 670 200
f 240 562 238
f 561 562 240
f 238 563 239
f 470 431 464
f 30 106 31
f 675 183 519
f 326 325 632
f 261 657 579
f 657 53 24
f 425 424 419
f 425 419 587
f 178 593 296
f 153 296 593
f 676 243 553
f 645 677 625
f 507 678 679
f 116 629 575
f 649 435 436
f 364 681 680
f 630 191 190
f 630 311 631
f 91 583 230
f 682 171 164
f 46 683 596
f 183 614 419
f 684 195 185
f 677 645 330
f 498 685 499
f 582 437 467
f 200 101 102
f 57 661 376
f 686 490 182
f 471 669 329
f 131 108 356
f 371 551 396
f 509 457 456
f 687 101 200
f 487 416 7
f 121 163 122
f 682 646 90
f 646 682 688
f 688 682 171
f 688 171 689
f 497 503 690
f 630 190 339
f 630 339 310
f 568 691 438
f 606 80 642
f 519 419 424
f 519 183 419
f 413 115 108
f 13 542 361
f 544 545 692
f 340 38 231
f 237 346 345
f 367 346 237
f 402 403 458
f 338 361 337
f 326 333 325
f 451 296 295
f 569 393 570
f 612 613 638
f 694 671 532
f 314 646 688
f 158 211 159
f 492 262 261
f 695 635 614
f 696 697 505
f 697 533 505
f 532 533 498
f 698 536 429
f 471 620 669
f 330 329 669
f 699 700 60
f 594 585 578
f 296 451 379
f 203 650 584
f 640 584 650
f 571 677 620
f 658 129 341
f 404 701 418
f 629 291 351
f 418 701 521
f 701 447 521
f 208 448 535
f 521 447 210
f 210 447 208
f 60 700 440
f 347 219 435
f 615 409 616
f 454 218 134
f 579 492 261
f 506 532 671
f 555 228 512
f 702 23 197
f 176 595 355
f 608 559 558
f 231 72 608
f 642 71 606
f 703 579 657
f 704 586 705
f 586 607 705
f 308 291 118
f 118 291 455
f 696 679 706
f 679 705 706
f 201 369 368
f 550 549 707
f 605 226 563
f 605 562 453
f 605 453 378
f 696 706 697
f 284 354 545
f 279 632 265
f 520 433 83
f 608 72 559
f 195 306 194
f 604 389 643
f 3 168 183
f 550 708 551
f 230 583 113
f 91 510 583
f 709 583 323
f 113 583 709
f 113 709 323
f 517 113 323
f 576 15 430
f 338 337 11
f 313 623 241
f 623 560 241
f 560 623 137
f 341 137 489
f 626 207 180
f 266 659 365
f 219 347 171
f 258 11 192
f 258 192 342
f 575 136 116
f 438 79 36
f 439 479 60
f 632 710 603
f 325 710 632
f 603 710 96
f 674 710 325
f 674 96 710
f 674 325 94
f 215 688 689
f 308 357 574
f 17 425 587
f 530 17 587
f 201 640 369
f 676 125 124
f 631 711 712
f 49 367 436
f 301 61 479
f 395 638 613
f 395 276 638
f 627 618 260
f 612 638 100
f 681 536 680
f 536 537 680
f 27 713 479
f 180 714 527
f 493 474 461
f 675 3 183
f 697 685 498
f 498 533 697
f 604 525 389
f 136 72 231
f 4 402 693
f 715 195 194
f 578 508 594
f 594 508 644
f 552 44 485
f 508 578 509
f 317 538 539
f 506 671 507
f 671 205 507
f 394 544 353
f 65 103 73
f 38 136 231
f 1 648 464
f 224 667 84
f 502 503 497
f 205 673 206
f 235 99 98
f 153 593 516
f 380 437 220
f 485 44 520
f 434 702 716
f 21 103 77
f 660 282 543
f 717 487 289
f 205 671 673
f 386 22 52
f 284 636 285
f 442 697 706
f 694 25 671
f 25 672 671
f 225 136 38
f 703 657 434
f 668 620 677
f 135 44 552
f 369 640 650
f 230 554 91
f 718 617 462
f 719 720 653
f 684 305 195
f 311 711 631
f 62 721 60
f 695 614 183
f 669 620 668
f 206 673 440
f 722 149 428
f 324 108 602
f 551 708 194
f 435 219 437
f 368 237 147
f 201 368 216
f 147 216 368
f 625 677 571
f 686 376 661
f 686 182 376
f 686 661 529
f 686 529 490
f 421 667 224
f 409 421 410
f 408 179 409
f 111 113 517
f 592 713 27
f 440 673 672
f 351 444 629
f 340 231 608
f 457 586 456
f 452 466 662
f 678 720 719
f 51 344 346
f 370 723 178
f 724 725 601
f 725 726 601
f 499 727 680
f 667 82 84
f 728 159 660
f 82 520 83
f 445 373 446
f 273 518 274
f 644 607 585
f 640 201 388
f 367 237 368
f 359 142 528
f 279 121 398
f 207 729 205
f 141 173 381
f 730 731 218
f 712 732 631
f 593 723 111
f 612 61 365
f 629 116 455
f 697 442 685
f 442 441 685
f 591 386 53
f 353 544 692
f 691 733 360
f 639 566 305
f 622 422 194
f 334 326 632
f 545 354 692
f 565 564 47
f 433 520 44
f 42 35 2
f 359 526 142
f 568 438 428
f 345 223 236
f 223 384 196
f 345 344 384
f 663 322 540
f 507 205 729
f 365 659 613
f 258 342 272
f 361 145 337
f 330 668 677
f 308 504 357
f 360 438 691
f 458 403 459
f 336 666 616
f 478 169 273
f 566 691 568
f 640 388 584
f 693 402 366
f 300 589 53
f 261 300 53
f 674 94 96
f 734 473 664
f 593 178 723
f 735 315 181
f 362 366 461
f 16 494 17
f 461 475 667
f 511 681 364
f 7 348 289
f 340 608 596
f 232 287 281
f 578 457 509
f 47 564 48
f 559 72 415
f 206 664 207
f 505 507 679
f 473 736 581
f 684 185 257
f 612 100 61
f 442 706 573
f 495 573 706
f 706 556 495
f 362 462 363
f 418 521 554
f 171 164 689
f 353 692 354
f 245 394 353
f 69 249 547
f 721 699 60
f 181 145 491
f 578 585 457
f 527 653 180
f 484 579 737
f 676 124 243
f 676 553 48
f 738 499 680
f 410 421 224
f 243 124 222
f 391 666 127
f 166 165 380
f 639 256 733
f 306 305 634
f 646 68 307
f 739 637 660
f 722 576 149
f 497 654 386
f 459 618 627
f 576 9 383
f 176 392 177
f 392 176 450
f 176 355 450
f 289 288 717
f 702 434 24
f 251 161 109
f 651 503 447
f 593 517 516
f 111 517 593
f 246 250 390
f 197 494 702
f 694 532 26
f 532 500 26
f 728 637 465
f 493 461 460
f 448 514 535
f 727 499 741
f 499 685 741
f 647 385 254
f 371 549 550
f 715 656 195
f 123 317 397
f 538 317 123
f 98 122 235
f 280 538 123
f 398 122 98
f 398 98 399
f 121 280 123
f 121 122 398
f 602 522 515
f 695 395 635
f 323 324 516
f 112 111 14
f 517 323 516
f 637 728 660
f 652 404 431
f 78 682 90
f 90 77 78
f 664 700 699
f 356 108 324
f 718 421 617
f 487 7 289
f 391 449 666
f 193 337 144
f 596 608 46
f 320 652 431
f 264 263 265
f 27 28 592
f 372 548 371
f 649 436 650
f 25 694 26
f 360 742 80
f 742 743 565
f 565 743 125
f 80 742 642
f 642 742 565
f 125 743 126
f 733 256 743
f 126 743 256
f 680 32 267
f 704 705 679
f 459 403 618
f 581 736 179
f 492 579 484
f 631 744 191
f 59 228 382
f 717 37 400
f 491 707 181
f 601 726 13
f 542 725 491
f 491 745 707
f 491 725 745
f 13 726 542
f 542 726 725
f 724 715 725
f 715 746 725
f 725 746 747
f 745 747 707
f 745 725 747
f 142 526 525
f 706 607 748
f 748 607 644
f 644 585 594
f 706 748 556
f 322 663 50
f 682 173 171
f 164 171 141
f 184 104 105
f 556 557 628
f 713 301 479
f 27 479 439
f 519 610 675
f 598 597 496
f 592 698 713
f 27 439 25
f 15 576 383
f 460 366 402
f 148 150 572
f 414 373 445
f 548 248 735
f 467 331 582
f 621 209 93
f 737 749 387
f 105 395 695
f 635 395 613
f 662 545 544
f 724 601 656
f 724 656 715
f 387 749 750
f 454 200 363
f 59 382 467
f 212 595 176
f 662 465 637
f 637 636 662
f 545 662 636
f 734 699 721
f 664 440 700
f 473 751 472
f 473 734 751
f 82 475 474
f 452 544 394
f 466 452 213
f 676 564 125
f 658 488 242
f 651 652 503
f 652 655 503
f 447 701 651
f 120 234 235
f 462 730 454
f 626 180 653
f 527 714 408
f 728 465 244
f 660 159 282
f 159 728 244
f 232 159 244
f 232 281 159
f 159 281 282
f 592 536 698
f 683 312 310
f 33 490 32
f 400 487 717
f 173 380 381
f 173 682 380
f 627 262 459
f 181 548 735
f 659 588 635
f 373 569 446
f 393 569 373
f 102 278 363
f 664 699 734
f 680 267 364
f 111 723 370
f 579 749 737
f 179 714 180
f 408 714 179
f 696 505 679
f 609 648 1
f 197 611 610
f 639 733 691
f 454 363 462
f 165 106 380
f 59 380 106
f 409 336 616
f 360 79 438
f 171 173 141
f 78 380 682
f 586 704 752
f 679 678 704
f 678 719 704
f 635 587 419
f 29 214 228
f 228 753 512
f 214 512 753
f 214 753 228
f 294 332 411
f 665 57 376
f 240 396 561
f 32 680 727
f 590 476 293
f 260 618 589
f 618 590 589
f 476 590 618
f 476 332 293
f 148 422 622
f 622 306 634
f 305 684 639
f 634 305 566
f 622 634 148
f 604 142 525
f 642 565 47
f 48 564 676
f 322 541 540
f 557 556 644
f 481 755 423
f 480 482 501
f 695 184 105
f 184 695 183
f 385 663 254
f 588 756 529
f 659 756 588
f 718 667 421
f 349 348 7
f 302 110 109
f 357 504 349
f 6 109 110
f 6 8 251
f 416 8 7
f 251 8 161
f 586 752 456
f 477 229 383
f 149 148 568
f 568 428 149
f 757 683 48
f 682 380 220
f 164 171 682
f 143 343 643
f 82 474 493
f 739 286 285
f 550 747 708
f 613 659 635
f 601 600 656
f 241 754 313
f 738 537 26
f 537 28 26
f 32 266 267
f 104 754 241
f 529 758 490
f 738 26 499
f 26 500 499
f 706 705 607
f 702 24 23
f 736 409 179
f 581 664 473
f 581 180 664
f 398 318 279
f 334 279 139
f 139 279 318
f 3 675 610
f 422 148 572
f 3 610 609
f 265 538 280
f 529 756 758
f 587 759 588
f 588 759 635
f 635 759 587
f 752 704 719
f 264 96 319
f 451 567 379
f 106 165 270
f 760 9 576
f 602 114 130
f 109 110 302
f 127 666 336
f 266 758 659
f 758 756 659
f 490 758 32
f 32 758 266
f 440 439 60
f 312 761 488
f 636 284 545
f 518 234 120
f 532 498 500
f 198 320 470
f 687 200 670
f 389 201 643
f 213 66 333
f 570 393 286
f 527 43 509
f 408 43 527
f 488 761 553
f 62 472 751
f 736 473 336
f 736 336 409
f 49 51 346
f 386 654 22
f 762 654 690
f 218 454 730
f 731 449 218
f 310 312 311
f 602 108 114
f 114 108 115
f 602 130 763
f 763 522 602
f 522 763 452
f 130 452 763
f 135 740 387
f 383 112 14
f 440 664 206
f 496 597 448
f 497 690 654
f 762 503 655
f 762 690 503
f 598 496 497
f 754 712 711
f 104 712 754
f 181 315 145
f 3 609 1
f 313 754 711
f 559 415 642
f 708 764 194
f 708 747 764
f 747 746 764
f 194 764 715
f 715 764 746
f 54 486 407
f 658 391 129
f 644 556 748
f 653 720 626
f 273 275 478
f 702 494 716
f 516 515 153
f 734 765 751
f 751 765 62
f 721 765 734
f 62 765 721
f 512 214 413
f 434 716 494
f 68 646 314
f 507 729 678
f 729 720 678
f 577 719 653
f 343 604 643
f 591 53 589
f 534 645 209
f 209 645 624
f 343 142 604
f 349 504 118
f 574 357 110
f 731 617 616
f 731 616 449
f 37 717 288
f 663 540 254
f 727 741 32
f 121 279 280
f 626 720 207
f 207 720 729
f 456 752 577
f 577 752 719
f 683 310 596
f 24 52 22
f 48 683 46
f 313 711 311
f 412 355 595
f 216 215 689
f 688 215 314
f 246 412 250
f 760 428 36
f 760 36 9
f 760 722 428
f 576 722 760
f 257 639 684
f 557 665 628
f 18 530 387
f 495 628 376
f 143 164 141
f 750 703 434
f 703 749 579
f 737 387 740
f 441 741 685
f 741 33 32
f 741 182 33
f 182 741 441
f 731 730 766
f 462 766 730
f 731 766 617
f 617 766 462
f 737 740 552
f 740 135 552
f 382 331 467
f 211 327 523
f 245 353 412
f 665 557 57
f 58 57 557
f 375 495 376
f 405 427 464
f 767 643 689
f 767 143 643
f 370 480 501
f 687 670 187
f 687 187 101
f 170 99 169
f 170 401 99
f 301 713 698
f 698 429 301
f 672 439 440
f 672 25 439
f 738 680 537
f 536 511 429
f 681 511 536
f 460 461 366
f 750 16 387
f 733 743 742
f 278 693 366
f 278 4 693
f 742 360 733
f 750 749 703
f 434 16 750
f 197 610 519
f 197 198 611
f 142 141 269
f 762 655 654
f 22 654 321
f 69 735 248
f 68 315 735
f 757 761 312
f 757 312 683
f 757 48 553
f 757 553 761
f 615 421 409
f 69 68 735
f 248 548 372
f 453 561 572
f 460 402 458
f 707 549 548
f 181 707 548
f 739 660 414
f 739 285 637
f 739 570 286
f 739 414 446
f 739 446 570
f 518 120 274
f 611 648 609
f 464 648 470
f 470 648 198
f 355 420 450
f 631 732 744
f 744 732 168
f 168 732 184
f 732 104 184
f 732 712 104
f 191 744 2
f 2 744 168
f 2 35 191
f 629 455 291
f 718 461 667
f 718 462 461
f 380 682 173
f 682 220 171
f 171 347 172
f 171 173 682
f 259 755 12
f 259 423 755
f 13 12 755
f 755 481 13
f 639 691 566
f 216 689 643
f 552 484 737
f 159 212 176
f 212 159 211
f 619 212 523
f 619 595 212
f 160 159 176
f 514 253 534
f 253 647 254
f 535 514 534
f 647 253 514
f 534 253 252
f 514 513 647
f 283 385 647
f 513 514 417
f 647 513 417
f 283 647 417
f 747 550 707
f 650 436 369
f 369 436 367
f 367 49 346
f 767 164 143
f 767 689 164
f 465 662 466
f 595 250 412
f 404 651 701
f 216 643 201
