v 0.292589 -0.176341 -0.196386
v 0.183772 -0.023210 0.126312
v 0.046106 0.145670 -0.066761
v 0.079929 0.101566 -0.091844
v 0.062525 0.095462 -0.089454
v 0.300814 -0.181087 0.190039
v 0.081893 0.152129 -0.072466
v -0.134155 -0.011759 -0.050618
v -0.149214 0.012067 -0.054915
v -0.122752 0.016615 -0.054211
v -0.074672 -0.131786 -0.106470
v -0.064922 -0.131532 -0.092194
v -0.101022 -0.122501 -0.078501
v -0.089102 -0.123747 -0.070090
v 0.306964 -0.113665 -0.167051
v 0.306582 -0.144644 -0.180530
v 0.293808 -0.111520 -0.176813
v -0.046435 -0.146314 0.179644
v -0.008004 -0.148494 0.206616
v -0.029002 -0.144519 0.203425
v -0.177603 -0.102818 -0.132347
v -0.171542 -0.040508 -0.132950
v -0.157780 -0.062038 -0.156633
v 0.157854 -0.015667 -0.169466
v 0.124997 -0.013912 -0.168697
v 0.246896 -0.180389 0.087947
v 0.238490 -0.174227 0.049287
v 0.262216 -0.184848 0.096068
v 0.241350 -0.175024 0.051139
v -0.161310 -0.011899 -0.104576
v -0.188197 -0.010615 -0.095761
v 0.220335 -0.044183 -0.185558
v 0.235121 -0.049633 -0.182884
v 0.226301 -0.059363 -0.191454
v 0.161046 -0.159513 0.196989
v 0.161046 -0.159513 0.236408
v 0.124154 -0.153718 0.235324
v -0.170622 -0.089053 -0.170655
v -0.177021 -0.102454 -0.174623
v -0.190262 0.098912 -0.004425
v -0.164246 0.094373 0.035518
v -0.166240 0.107887 -0.003976
v -0.338309 -0.014278 -0.007666
v -0.366817 -0.041733 -0.008350
v -0.337309 -0.014523 -0.001027
v -0.175676 0.007519 -0.055619
v 0.119398 -0.016040 0.169148
v 0.090404 -0.009243 0.125654
v 0.125486 -0.012982 0.125240
v -0.140386 0.114091 0.026038
v -0.103338 0.122831 -0.002860
v -0.140041 0.115085 -0.003505
v -0.077870 -0.014104 -0.129913
v -0.106147 -0.013643 -0.121651
v -0.132171 0.075204 -0.066603
v -0.129393 0.058355 -0.064291
v -0.161982 0.082430 -0.051011
v -0.136801 -0.110863 -0.004844
v -0.108588 -0.050048 -0.161424
v 0.184758 -0.026409 0.041933
v 0.057256 -0.119172 0.225409
v 0.066005 -0.079767 0.208624
v 0.039824 -0.075748 0.203011
v -0.019615 0.039018 -0.001605
v 0.029366 0.045052 -0.000771
v 0.241300 -0.174612 0.047732
v -0.195001 0.064947 0.030502
v -0.176047 0.081477 0.035408
v 0.145294 -0.025247 0.000689
v 0.128190 -0.022596 -0.035083
v 0.105247 -0.023473 0.000063
v -0.043608 -0.138548 -0.115635
v -0.043353 -0.130378 -0.058827
v -0.028853 -0.137910 -0.095457
v 0.290524 -0.025277 -0.054068
v 0.290632 -0.025647 -0.050287
v 0.294673 -0.025815 -0.050239
v 0.049620 -0.157900 0.200441
v 0.052362 -0.158672 0.190199
v 0.054117 -0.158287 0.199473
v 0.354583 -0.198677 0.098894
v 0.356256 -0.196585 0.059037
v 0.376704 -0.192265 0.091919
v 0.068771 -0.008486 0.131609
v 0.050961 -0.014791 0.158899
v 0.085468 -0.015102 0.164982
v -0.244759 -0.004699 0.054384
v -0.241236 -0.007019 0.058875
v -0.239868 -0.005521 0.056580
v -0.239702 -0.006985 0.059231
v 0.277024 0.186115 -0.067135
v 0.284730 0.187425 -0.061552
v 0.345900 -0.050352 0.086716
v 0.344777 -0.051150 0.089905
v 0.346862 -0.051303 0.086369
v 0.270209 -0.031484 0.002672
v 0.186866 -0.024774 -0.079943
v 0.156045 -0.020150 -0.091242
v 0.154871 -0.021914 -0.072111
v -0.228385 0.058861 0.016025
v -0.230228 0.058404 0.015294
v -0.230645 0.056436 0.016112
v -0.180171 -0.104081 0.036847
v 0.285208 0.192135 -0.053389
v 0.291574 0.188577 -0.054637
v 0.113764 -0.015526 -0.082978
v 0.085078 -0.009000 -0.110223
v 0.083618 -0.012515 -0.084466
v 0.173835 0.066582 0.087250
v 0.349158 -0.038528 0.057933
v 0.145300 -0.015124 0.140784
v 0.152212 -0.017812 0.170983
v 0.310660 -0.034579 0.112127
v 0.146292 -0.133040 -0.234086
v 0.172871 -0.133399 -0.232154
v 0.170632 -0.146516 -0.235401
v 0.145062 -0.037174 0.191717
v 0.020249 -0.069218 -0.201135
v 0.195973 -0.168343 0.214265
v 0.200113 -0.165611 0.233308
v -0.044616 -0.062758 0.179800
v -0.020300 -0.066509 0.187957
v -0.037234 -0.022576 0.038630
v -0.027686 -0.022401 0.040330
v -0.054943 -0.016377 -0.002445
v 0.023224 0.041042 0.066317
v 0.055369 0.045088 0.031009
v 0.061433 0.047443 0.073423
v 0.065199 -0.021699 -0.000564
v 0.021181 -0.016621 -0.041311
v 0.021038 -0.016622 -0.041242
v -0.049473 -0.142051 0.125821
v -0.038081 -0.143169 0.122120
v -0.042344 -0.145131 0.141210
v 0.254770 -0.028135 0.039312
v 0.252522 -0.027383 0.048421
v 0.265531 -0.027967 0.044569
v 0.238513 -0.173898 0.046310
v 0.253897 -0.173927 0.217490
v -0.045086 -0.022436 0.048590
v 0.261336 0.192930 0.003582
v -0.013362 -0.145766 -0.202326
v -0.015166 -0.148453 -0.183923
v -0.036062 -0.140171 -0.204360
v -0.027873 -0.145087 -0.187154
v 0.335817 -0.151152 0.152109
v 0.344724 -0.153157 0.142076
v 0.325639 -0.119419 0.150964
v 0.246715 0.191387 -0.059259
v 0.232710 0.190792 -0.053661
v 0.248520 0.193978 -0.050017
v -0.229210 -0.005995 0.059213
v -0.229585 -0.008445 0.066633
v -0.214919 -0.010119 0.075383
v -0.176108 -0.091138 0.160363
v -0.169963 -0.078530 0.155126
v -0.181811 -0.104417 0.121580
v -0.229664 -0.006043 0.059260
v 0.350277 -0.120879 -0.119611
v 0.365937 -0.123589 -0.091634
v 0.188383 -0.023247 -0.176726
v 0.002313 -0.016441 0.067573
v 0.004243 -0.020242 0.033852
v -0.016231 -0.018554 0.063183
v 0.215191 -0.175577 0.200398
v 0.301992 -0.143656 -0.183885
v 0.264907 -0.106860 -0.193429
v 0.348571 -0.197555 -0.115171
v 0.356308 -0.198758 -0.098495
v 0.336747 -0.198376 -0.108381
v -0.094991 -0.014603 -0.003071
v -0.089819 0.028522 -0.002807
v -0.323335 -0.080763 -0.007863
v -0.359330 -0.074976 -0.008448
v 0.073323 0.046641 0.041810
v 0.096162 0.049444 0.041025
v 0.286014 -0.178840 0.200359
v 0.036326 -0.010979 -0.077813
v 0.045738 -0.010079 -0.086616
v 0.029293 -0.007745 -0.106656
v 0.357499 -0.039285 0.032101
v -0.124457 0.022281 -0.018856
v 0.141441 -0.023506 0.038235
v -0.014986 0.034642 0.059210
v -0.060011 0.027048 0.052142
v -0.098819 -0.076248 0.176986
v -0.113810 -0.052033 0.153684
v -0.108427 -0.086897 0.181955
v 0.368857 -0.069898 -0.051171
v 0.350948 -0.037848 -0.050087
v 0.358429 -0.038931 -0.023993
v 0.327672 -0.185127 0.166258
v 0.317865 -0.187324 -0.034562
v 0.362084 -0.196377 -0.042323
v 0.317233 -0.182834 0.002415
v -0.103805 0.118036 0.042544
v 0.102301 0.054854 -0.079909
v 0.063878 0.048372 -0.074154
v 0.291584 0.069630 -0.044412
v 0.253119 0.077259 -0.082821
v 0.282712 0.079478 -0.077401
v 0.176378 0.067780 -0.060476
v 0.140495 0.057177 -0.051848
v 0.146310 0.062389 -0.083535
v -0.054717 0.033770 -0.002206
v 0.108485 -0.082502 -0.214682
v 0.143324 -0.118889 -0.230357
v 0.103447 -0.146273 -0.234793
v 0.222759 0.187184 0.002900
v 0.234658 0.191387 0.048675
v 0.251041 -0.027192 -0.032460
v 0.164720 0.135955 -0.090409
v 0.384086 -0.126994 -0.029391
v 0.381907 -0.090091 0.004144
v 0.095664 -0.151140 0.053726
v 0.087262 -0.153407 0.094267
v 0.054212 -0.147776 0.070224
v -0.246646 -0.005809 0.055435
v 0.176344 0.065466 -0.029373
v -0.135902 0.096935 -0.064202
v -0.145327 -0.028817 0.121304
v -0.153804 -0.045744 0.135144
v -0.234340 -0.032345 0.089404
v 0.029065 -0.138648 0.224982
v 0.015469 -0.104045 0.214196
v 0.007666 -0.108010 0.214716
v 0.292630 -0.026305 0.075480
v 0.265762 -0.024091 0.090809
v 0.301625 -0.027278 0.079142
v 0.276673 -0.025802 0.115274
v 0.043895 0.144829 0.066672
v -0.212394 0.088349 -0.004855
v -0.190205 -0.066464 0.135378
v -0.162814 -0.063951 0.147116
v -0.175788 -0.042121 0.123221
v 0.266379 -0.022988 -0.072656
v 0.261674 -0.025018 -0.052305
v -0.164628 -0.013159 0.095605
v 0.110550 -0.042495 -0.195188
v 0.140727 -0.044067 -0.196444
v 0.182912 -0.063258 -0.202121
v 0.178929 -0.093314 -0.215413
v 0.143925 -0.087912 -0.216347
v -0.133072 -0.122050 -0.160688
v -0.125628 -0.123444 -0.129763
v -0.152073 -0.115447 -0.156508
v -0.138530 -0.119380 -0.137517
v -0.068931 -0.059007 0.171642
v -0.093635 -0.087767 0.185647
v -0.063393 -0.092694 0.194770
v -0.314757 -0.018577 0.030012
v -0.329347 -0.016002 0.013755
v -0.135707 -0.012349 0.043023
v -0.150898 0.011428 0.046678
v -0.136375 -0.011869 0.089745
v 0.118496 -0.152563 -0.000785
v 0.297424 0.189550 -0.046263
v 0.302145 0.190318 -0.036304
v 0.298324 0.102373 0.084341
v 0.302873 0.124354 0.081218
v 0.279685 0.109636 0.093661
v 0.296408 -0.025895 -0.053234
v 0.310025 -0.026823 -0.068917
v -0.027260 0.132070 0.052735
v 0.008317 0.138450 0.059704
v -0.154182 -0.011166 0.089126
v -0.164194 -0.001697 0.054708
v -0.177368 0.006877 0.046448
v -0.233617 -0.007538 0.062900
v -0.235496 -0.006553 0.059580
v -0.164623 0.062458 -0.052744
v 0.307155 0.190953 0.019822
v -0.133272 -0.010689 -0.097538
v -0.133509 -0.011294 -0.107996
v 0.011373 -0.035878 0.174208
v 0.013644 -0.071729 0.197398
v -0.187068 0.070110 -0.041657
v -0.163668 0.095388 -0.043602
v -0.161080 0.091676 -0.047900
v -0.027534 -0.036828 0.165562
v -0.001375 -0.034925 0.170380
v -0.390202 -0.069903 -0.023525
v -0.393956 -0.069360 -0.015879
v 0.009063 -0.154552 0.172300
v 0.044871 -0.157454 0.202481
v 0.008445 -0.154480 0.172949
v 0.033149 -0.155111 0.204533
v -0.271608 0.015585 -0.039450
v -0.269822 0.017531 -0.038724
v -0.269890 0.015979 -0.039884
v 0.328647 -0.036464 0.092315
v 0.345101 -0.049397 0.086739
v 0.336434 -0.037262 0.081460
v 0.312643 -0.033715 0.003350
v -0.131407 0.057590 0.057289
v -0.134265 0.074409 0.059719
v 0.032194 -0.153361 0.132990
v 0.031591 -0.152984 0.130525
v 0.038190 -0.154138 0.135006
v -0.091467 0.021677 0.048764
v -0.027875 -0.141808 -0.122004
v -0.036027 -0.141690 -0.130398
v -0.023863 -0.145389 -0.148428
v 0.162352 -0.159017 -0.039481
v 0.213748 -0.168720 -0.050485
v 0.200093 -0.165343 0.000522
v -0.233079 -0.101629 0.113930
v -0.261393 -0.091664 0.116152
v -0.240647 -0.101278 0.104128
v 0.382896 -0.163259 -0.072659
v 0.389916 -0.193111 -0.050621
v 0.380841 -0.162680 -0.080112
v 0.232752 -0.101745 -0.205798
v 0.099643 0.053843 0.080530
v -0.201839 0.002935 -0.057753
v -0.212245 -0.009103 -0.085994
v -0.191208 -0.011759 0.085922
v 0.075718 -0.008727 0.115987
v 0.062859 -0.009952 0.095566
v 0.045460 -0.008465 0.110592
v 0.044592 -0.009239 0.101341
v 0.239139 -0.171174 0.001153
v 0.238356 -0.173568 -0.049255
v 0.249408 -0.175153 -0.039978
v 0.161046 -0.159513 0.118150
v 0.211053 -0.173680 0.129434
v 0.161046 -0.159513 0.157569
v 0.220683 0.073970 -0.084120
v 0.249892 0.107926 -0.094020
v -0.030635 -0.016162 0.082319
v -0.001844 -0.013208 0.090296
v 0.080422 -0.008792 0.127629
v 0.395326 -0.194495 0.003678
v 0.391411 -0.172871 0.003773
v 0.391889 -0.194247 0.040053
v 0.186124 -0.039781 -0.189408
v 0.214316 -0.067272 -0.198292
v 0.215527 -0.099030 -0.210251
v 0.376890 -0.161223 0.088190
v 0.376616 -0.161499 0.088877
v 0.143277 -0.023092 -0.043693
v 0.123424 -0.018223 -0.070336
v 0.016414 -0.014903 0.151313
v 0.342608 -0.152893 -0.145419
v 0.342947 -0.152607 -0.144873
v 0.343078 -0.153303 -0.144930
v 0.310585 -0.028080 0.067364
v 0.175315 0.065075 0.032752
v 0.174319 0.066998 0.063775
v -0.152444 0.098686 0.044486
v -0.193909 -0.037031 -0.121760
v -0.164821 0.078838 0.043980
v -0.182088 0.063841 0.037763
v 0.222399 0.067552 0.002499
v 0.268487 0.071951 0.003269
v 0.044205 0.153092 -0.000264
v -0.023216 -0.013549 0.098301
v -0.001545 -0.011340 0.109185
v 0.236672 -0.171275 0.224153
v 0.275430 0.191328 0.065187
v 0.282558 0.186599 0.069518
v 0.289628 0.187837 0.062821
v 0.250632 -0.023703 0.091605
v 0.216755 -0.026149 0.068577
v 0.214127 -0.023894 0.107848
v 0.126238 0.159942 -0.076096
v -0.220973 -0.098310 0.142041
v 0.161046 -0.159513 -0.000109
v 0.161046 -0.159513 0.039311
v 0.121216 -0.011798 -0.117551
v 0.216735 0.187607 -0.049277
v 0.301339 -0.115802 0.172342
v 0.291190 -0.081616 0.167705
v 0.287867 -0.113778 0.181677
v -0.056163 -0.121265 -0.212832
v 0.006772 0.146069 -0.000923
v -0.014896 -0.018151 -0.001818
v 0.166632 0.106876 0.093063
v 0.052349 0.155465 -0.038779
v 0.062446 0.157612 -0.041111
v 0.180870 -0.162612 0.235652
v 0.165168 -0.136327 0.232646
v 0.007675 0.038599 0.032494
v 0.314091 0.081032 -0.059197
v 0.163657 -0.158520 -0.078854
v 0.128879 -0.155027 -0.089037
v 0.120236 -0.154550 -0.102562
v 0.210192 0.174573 -0.079657
v 0.230253 0.178057 -0.079549
v -0.295121 -0.021980 0.047114
v 0.264476 -0.064258 -0.176710
v 0.262228 -0.068101 -0.179989
v 0.322470 -0.030799 -0.027855
v 0.314131 -0.027322 -0.071421
v 0.318110 0.080499 0.060242
v 0.334304 -0.060370 0.114081
v 0.325329 -0.055528 0.120092
v 0.332412 -0.068465 0.122589
v 0.215405 0.066967 -0.053568
v 0.176673 0.067661 -0.084006
v 0.227776 -0.029252 0.001994
v 0.227185 -0.026835 0.055260
v 0.217232 -0.026717 0.056580
v 0.056258 -0.012778 -0.160707
v 0.058740 -0.035246 -0.184778
v 0.021479 -0.012978 -0.154271
v 0.357373 -0.196466 0.055715
v 0.388119 -0.193794 0.057775
v 0.169659 0.108026 -0.089547
v -0.293330 -0.021299 -0.060929
v 0.258435 0.194952 0.048776
v -0.157515 -0.108668 0.175277
v -0.182632 -0.104585 0.163947
v -0.264654 -0.005213 0.048318
v -0.269712 -0.000035 0.041044
v 0.124725 -0.041656 0.194817
v 0.101386 -0.085200 0.213693
v 0.136752 -0.090638 0.216463
v -0.019944 -0.126932 -0.220216
v -0.141165 -0.027236 -0.129816
v 0.347704 -0.036914 0.003900
v -0.257809 -0.097472 0.053584
v -0.276558 -0.093707 0.040360
v -0.251343 -0.092338 -0.006691
v 0.314576 0.076351 0.004038
v 0.313141 0.072672 0.039634
v 0.339011 -0.036283 -0.074022
v 0.372164 -0.124700 -0.076776
v 0.381268 -0.126409 -0.045598
v -0.082994 -0.020852 -0.039502
v -0.077648 -0.020576 -0.043066
v -0.256409 -0.051504 -0.108486
v -0.269670 -0.025047 -0.077438
v -0.231184 -0.031145 -0.101116
v 0.357605 -0.196138 0.052718
v 0.362780 -0.124789 0.098883
v 0.376346 -0.160234 0.088926
v 0.376000 -0.160988 0.090127
v 0.261135 -0.024920 0.074492
v -0.279075 0.041585 -0.006270
v 0.293539 -0.059103 0.153553
v 0.291553 -0.050147 0.150000
v 0.284993 -0.066565 0.164481
v -0.275824 -0.094107 -0.069980
v -0.310415 -0.087925 -0.067709
v -0.301942 -0.083287 -0.100515
v 0.000959 -0.134159 0.219695
v 0.250276 0.076179 0.088727
v 0.217815 0.072880 0.088904
v 0.214291 -0.026576 0.059518
v 0.030085 -0.009559 0.102943
v 0.111376 0.166246 -0.038061
v 0.157688 0.171787 -0.043785
v -0.141834 -0.009767 -0.094012
v -0.162656 -0.005180 -0.074808
v 0.343879 -0.070917 0.107093
v 0.357941 -0.081548 0.089919
v -0.227193 -0.007536 -0.077714
v 0.188670 -0.159648 -0.234967
v 0.167575 -0.157032 -0.196970
v -0.058200 0.027736 -0.057166
v -0.012967 0.035409 -0.062643
v -0.179351 -0.103913 -0.005520
v -0.215347 -0.098126 -0.006106
v -0.178768 -0.103548 -0.047795
v -0.287339 -0.086551 -0.007277
v -0.267472 -0.094562 -0.057842
v 0.024457 -0.018345 0.041612
v -0.275315 -0.093765 -0.061920
v -0.310419 -0.087838 -0.057435
v -0.357658 -0.075706 0.043224
v -0.377527 -0.072357 0.023357
v 0.320483 0.093114 0.063567
v 0.323321 0.080703 0.052010
v 0.127329 0.057119 0.000896
v -0.110060 -0.015131 0.114476
v -0.242281 -0.009820 -0.075069
v -0.233334 -0.005732 -0.070837
v -0.231346 -0.006675 -0.074106
v 0.307039 -0.178721 -0.185602
v 0.265585 -0.024361 0.084613
v 0.347074 -0.061008 -0.094095
v 0.344123 -0.052944 -0.091209
v 0.349278 -0.056773 -0.085986
v 0.012209 -0.139903 -0.064569
v 0.022090 -0.140256 -0.054038
v 0.014500 -0.138872 -0.051926
v -0.197772 -0.038499 0.111299
v -0.290972 0.006594 0.023689
v 0.143506 0.061323 0.085707
v 0.339563 -0.151771 -0.148752
v 0.330542 -0.117555 -0.144898
v -0.078736 0.066174 0.068907
v -0.073487 0.063783 0.069007
v -0.077143 0.067322 0.069183
v 0.322449 -0.074129 0.136274
v 0.360760 -0.039456 0.004100
v 0.369593 -0.077721 0.059957
v 0.369496 -0.125715 0.084237
v 0.379627 -0.127032 0.053378
v 0.183370 -0.020623 0.170075
v 0.195178 -0.021951 0.168717
v 0.185342 -0.027021 0.001316
v 0.040799 0.078365 -0.085102
v -0.354214 -0.036542 0.012891
v -0.308692 0.013654 -0.006968
v 0.202019 -0.145522 0.231311
v -0.283210 -0.088062 0.100900
v -0.286786 -0.093133 0.084456
v -0.278492 -0.096181 0.075876
v 0.231738 0.135211 0.101447
v 0.236560 0.139909 0.100284
v 0.207458 0.173534 0.085256
v 0.282812 -0.191776 0.178235
v 0.279707 -0.190956 0.180757
v 0.280742 -0.191544 0.178121
v 0.350572 -0.188517 0.138779
v 0.327905 -0.198203 0.132018
v 0.369149 -0.191203 0.108193
v 0.090948 -0.013019 -0.165646
v 0.367671 -0.093882 -0.073753
v 0.233963 -0.173136 0.046881
v -0.050869 -0.016352 0.088612
v 0.218314 0.187706 0.048585
v 0.084209 -0.012541 0.088143
v 0.100882 -0.015301 0.079276
v 0.096143 -0.018021 0.057083
v 0.074101 -0.018247 -0.041105
v 0.058086 -0.013386 -0.068578
v -0.082072 -0.015702 0.123664
v -0.332889 -0.079838 0.064298
v -0.292640 -0.093300 0.070446
v -0.305027 -0.084460 0.085647
v -0.235626 -0.001243 -0.062201
v -0.230961 -0.003508 -0.065275
v -0.233193 -0.004684 -0.067898
v 0.090641 -0.159382 0.178212
v 0.077082 -0.158668 0.164097
v 0.250069 0.067243 -0.050997
v -0.008944 -0.015156 0.144666
v -0.034301 -0.015408 0.138018
v 0.159261 0.165705 -0.076582
v -0.138729 0.111880 -0.047346
v -0.139410 0.114463 -0.032819
v -0.102307 0.118605 -0.047880
v 0.071620 0.091955 0.090420
v 0.094338 0.097876 0.093915
v 0.290038 -0.032379 0.129289
v 0.278958 -0.031184 0.136835
v 0.270090 -0.073050 -0.177964
v 0.051393 -0.152022 -0.216697
v 0.040912 -0.146802 -0.221102
v 0.036589 -0.135788 -0.229033
v 0.280032 0.078460 0.084326
v 0.275503 0.067979 0.056594
v 0.302246 0.071825 0.057897
v -0.164657 -0.076513 -0.165059
v 0.119071 0.167137 0.001056
v 0.156177 0.171213 0.047425
v 0.341202 -0.034141 -0.017593
v -0.313522 -0.018108 -0.044513
v 0.081638 0.160114 0.000396
v 0.067982 0.157476 0.042622
v -0.102196 0.091161 0.063222
v -0.071133 0.124045 0.045843
v -0.105865 0.094661 0.061340
v 0.025152 -0.019925 -0.001191
v 0.184174 -0.025797 0.082550
v 0.382981 -0.127414 0.037274
v 0.387856 -0.166828 0.056604
v 0.391106 -0.174296 0.043170
v -0.376464 -0.071953 -0.040784
v 0.189632 0.180672 0.002308
v 0.235900 0.134386 0.101496
v 0.270122 0.113196 0.097256
v 0.266477 0.142113 0.096405
v 0.195935 0.102051 -0.092707
v 0.208236 0.117138 -0.095864
v 0.308805 -0.027893 0.071144
v 0.324906 0.081306 -0.043630
v -0.268161 -0.058639 0.096195
v -0.259919 -0.043458 0.087108
v 0.316927 -0.154617 0.173377
v 0.297366 0.079505 0.077707
v -0.124428 0.015978 0.046909
v -0.244037 -0.008912 -0.073152
v 0.312973 0.130945 0.069800
v 0.298757 0.139503 0.081822
v 0.301784 -0.072970 -0.155259
v -0.089749 0.022329 -0.054901
v 0.058398 -0.038118 -0.186784
v 0.046602 -0.073172 -0.205928
v 0.013477 -0.152371 -0.183454
v 0.013169 -0.151969 -0.186760
v 0.014952 -0.152557 -0.183525
v 0.295629 0.070006 -0.043541
v 0.256550 0.112226 -0.093532
v -0.272021 -0.025941 0.064425
v 0.244061 -0.168466 -0.221725
v 0.257679 -0.151997 -0.215875
v 0.261057 -0.171207 -0.214522
v -0.113358 -0.115811 0.191383
v 0.063719 0.101198 0.088674
v 0.070755 0.099819 0.089865
v 0.070003 0.104590 0.089124
v 0.206561 -0.170133 0.084751
v 0.202414 -0.168999 0.082347
v 0.207856 -0.170178 0.080300
v 0.078348 0.051085 0.000063
v 0.246751 0.112020 -0.095258
v 0.250744 0.111630 -0.094584
v 0.152709 -0.059890 -0.203391
v 0.328136 0.078476 0.004258
v 0.331636 0.081304 -0.022709
v 0.333652 0.081071 0.004350
v -0.032806 -0.138356 0.087833
v -0.043362 -0.135826 0.082255
v -0.066240 -0.135471 0.101771
v -0.027147 -0.129670 0.214408
v -0.063103 -0.123903 0.205900
v 0.122640 -0.012018 -0.117082
v 0.122593 -0.011885 -0.118052
v -0.114887 0.086252 -0.069817
v -0.100047 0.081023 -0.072048
v -0.033652 -0.022084 0.047051
v 0.264579 0.157473 -0.087301
v 0.255812 0.154684 -0.089301
v -0.250575 0.005758 0.041584
v -0.250774 0.000686 0.046816
v -0.248442 0.003242 0.044439
v 0.200723 -0.019844 -0.165829
v 0.224710 -0.022612 -0.159858
v 0.160003 0.161871 -0.081815
v 0.161036 0.156332 -0.085706
v 0.025456 0.041891 -0.068398
v 0.311280 0.073387 0.050460
v 0.327557 0.080856 0.042405
v 0.294039 -0.047116 0.145574
v 0.356279 -0.188665 0.003047
v 0.328821 0.081337 -0.033888
v 0.265052 0.194348 0.056139
v 0.278864 0.196370 0.042623
v 0.161662 0.134793 0.094113
v 0.058027 0.090496 0.088328
v -0.337089 -0.014440 -0.014269
v -0.328643 -0.015735 -0.028767
v 0.099469 -0.124317 0.230630
v 0.095697 -0.149218 0.232821
v 0.097994 -0.124763 0.230613
v 0.028000 -0.153142 0.135000
v 0.045944 -0.009200 0.135083
v 0.188840 -0.019737 -0.171982
v 0.188966 -0.018496 -0.167562
v 0.267809 -0.068127 -0.177101
v 0.265868 -0.070459 -0.179261
v 0.225883 -0.104356 0.208702
v 0.208519 -0.101693 0.212608
v 0.355711 -0.082680 -0.093409
v 0.258431 -0.109322 0.197359
v -0.029505 -0.000814 -0.071794
v -0.007949 -0.005510 -0.094728
v -0.032517 -0.000098 -0.070288
v -0.037690 -0.006858 -0.104765
v 0.106813 0.165933 0.042071
v 0.113863 0.165354 0.053637
v -0.133804 0.084870 -0.066699
v 0.299950 0.070607 -0.039829
v 0.143074 -0.023105 0.046328
v 0.203251 -0.023055 0.155252
v 0.219352 -0.024648 0.163518
v -0.079582 0.062923 0.067975
v 0.305604 0.190859 -0.024631
v 0.307668 0.191147 -0.011118
v 0.011178 0.039686 -0.037895
v -0.223503 -0.100269 -0.066241
v -0.178186 -0.103183 -0.090071
v -0.066149 -0.019672 -0.042550
v -0.028151 -0.016776 -0.036295
v 0.102926 0.110084 -0.091944
v 0.099952 0.128627 -0.087244
v -0.262381 -0.095745 -0.064117
v 0.293236 -0.194802 0.129872
v 0.309315 -0.197397 0.137252
v 0.287206 -0.194013 0.136659
v 0.201765 -0.168373 0.073397
v 0.161046 -0.159513 0.078730
v -0.257322 -0.090117 -0.129497
v -0.073671 0.072600 0.069800
v 0.304752 -0.153518 0.183508
v -0.099988 -0.128442 -0.185540
v -0.114999 -0.127432 -0.172354
v -0.106873 -0.113346 -0.199886
v 0.009734 -0.144664 -0.216249
v 0.000807 -0.145928 -0.212430
v -0.010562 -0.142834 -0.211820
v 0.217001 -0.136545 -0.225835
v 0.207825 -0.162679 -0.232023
v 0.219738 -0.177796 0.182614
v 0.204716 -0.172416 0.150965
v 0.325680 0.122997 -0.048160
v 0.327105 0.120624 -0.045869
v 0.325852 0.118710 -0.048950
v 0.254973 0.066617 0.051933
v 0.079472 0.151209 0.073641
v 0.210102 0.067210 -0.054612
v -0.233904 -0.098687 0.038401
v -0.079114 0.069480 0.069281
v -0.081823 0.067238 0.069129
v 0.222257 -0.143704 0.226012
v 0.292085 0.069265 0.050546
v 0.333095 -0.183066 -0.160980
v 0.189895 0.140727 0.096878
v 0.287905 0.124647 -0.084769
v 0.297883 0.126967 -0.079218
v 0.299817 0.080437 -0.070193
v -0.202934 -0.071619 0.132170
v -0.233796 -0.069456 0.121988
v 0.283945 -0.192827 0.169270
v 0.011754 -0.152278 -0.182304
v -0.129706 0.105302 0.054697
v -0.131119 0.101243 0.056951
v -0.107477 0.095184 0.060992
v -0.007336 0.070183 -0.077303
v 0.004782 0.075654 -0.080392
v 0.052995 -0.147726 0.071472
v 0.027248 -0.147751 0.094808
v 0.005990 -0.148756 0.119859
v 0.128824 -0.017934 -0.078390
v -0.161130 0.059440 0.048161
v -0.152269 0.081282 0.052374
v 0.355072 -0.186807 -0.132786
v 0.337830 -0.197582 -0.122912
v -0.069544 0.124649 -0.050018
v -0.180991 -0.104249 0.079214
v 0.330740 0.080964 0.031327
v 0.119631 -0.021715 0.040833
v 0.300470 0.144289 -0.072741
v 0.302141 0.175840 -0.055587
v 0.311469 0.159569 -0.053684
v -0.395326 -0.069188 -0.009034
v -0.394184 -0.069447 -0.002145
v -0.253899 -0.007725 0.055476
v 0.268526 -0.056620 0.169549
v 0.259796 -0.062109 0.178394
v -0.009153 -0.131713 -0.002815
v 0.033397 -0.138663 -0.002139
v -0.019946 -0.148113 -0.172182
v -0.239821 0.016327 -0.045886
v -0.238085 0.010736 -0.050704
v -0.240668 0.014093 -0.047536
v -0.252305 -0.060626 0.106173
v -0.216067 -0.096445 -0.153992
v -0.206177 -0.078768 -0.141310
v 0.319307 0.075830 -0.022116
v 0.047238 -0.007747 -0.135928
v 0.225393 -0.174657 -0.178750
v 0.242432 -0.179883 -0.167860
v 0.240883 -0.179564 -0.166482
v 0.009037 -0.154559 0.171858
v 0.008722 -0.154525 0.171850
v 0.259785 -0.042731 -0.165958
v 0.257203 -0.039931 -0.165031
v 0.206577 -0.168937 -0.187953
v 0.205382 -0.168460 -0.191555
v 0.207279 -0.168993 -0.191329
v 0.306678 -0.027600 0.067895
v 0.314267 -0.033208 -0.105521
v 0.333369 0.102181 0.004413
v 0.372965 -0.078340 0.048290
v 0.164963 -0.158024 -0.118226
v 0.219625 -0.026502 0.061200
v -0.116607 0.101076 -0.065056
v -0.223462 -0.100744 0.051618
v 0.284526 -0.042245 -0.148075
v 0.283401 -0.029496 -0.131255
v 0.289898 -0.045517 -0.147395
v 0.100060 0.164550 0.045210
v 0.316683 0.075003 0.045194
v -0.203586 0.002271 0.047656
v 0.129194 0.054618 -0.045890
v 0.132245 0.055748 -0.060945
v -0.272100 -0.052957 0.089087
v -0.151542 -0.106397 -0.185165
v -0.228577 -0.002904 0.051974
v 0.203833 0.184818 -0.049243
v 0.184726 0.170139 -0.078119
v 0.313807 -0.187574 -0.041848
v 0.285545 -0.181865 -0.039199
v 0.300664 -0.189359 -0.071879
v 0.264098 -0.178631 -0.047885
v 0.024861 -0.006880 -0.121032
v 0.042866 -0.007077 -0.118806
v -0.028405 -0.138758 0.086261
v 0.001155 -0.147855 0.117504
v 0.259358 -0.024059 0.085994
v 0.307761 0.171023 0.056365
v 0.300388 0.159477 0.072997
v 0.315602 0.147321 0.059132
v -0.029649 -0.013640 -0.142672
v -0.004085 -0.013309 -0.148472
v -0.020438 0.034423 0.037577
v -0.038072 0.028776 0.042823
v 0.128105 -0.154120 -0.054253
v 0.122305 -0.153731 -0.065115
v 0.056828 -0.157107 0.152846
v 0.064230 -0.156052 0.136126
v 0.105533 0.050746 0.040791
v 0.131972 -0.150747 -0.236408
v 0.168881 -0.156536 -0.236342
v 0.299306 -0.053632 0.145578
v 0.299846 -0.082025 0.161073
v 0.020990 -0.016616 -0.041351
v 0.020892 -0.016609 -0.041285
v 0.021007 -0.016618 -0.041269
v 0.119233 0.128223 0.092638
v 0.123670 0.158966 0.078836
v 0.257241 -0.183644 -0.124988
v 0.262841 -0.183118 -0.093454
v 0.241442 -0.179165 -0.121923
v 0.246220 -0.179014 -0.095958
v 0.052272 0.044095 -0.036919
v 0.162789 -0.016514 -0.130544
v 0.168758 -0.016713 -0.139180
v 0.153945 -0.014352 -0.139705
v 0.372134 -0.196401 -0.038690
v 0.393096 -0.193788 -0.032788
v 0.011063 -0.147333 -0.212379
v -0.249032 -0.009382 0.059530
v -0.143598 -0.076899 0.165701
v 0.008323 -0.131360 -0.224625
v -0.149176 -0.043984 -0.144141
v 0.001376 -0.147983 0.118226
v 0.001704 -0.147939 0.117652
v 0.386106 -0.127599 0.003984
v -0.005568 0.094018 0.076329
v 0.015407 0.102797 0.078708
v 0.319334 -0.197119 0.143802
v -0.094252 -0.117813 -0.004168
v 0.036298 -0.008726 0.106700
v -0.279632 -0.086702 -0.115006
v -0.140188 0.111326 0.040719
v 0.292209 -0.143383 0.190546
v -0.308858 -0.050841 0.065882
v 0.021044 -0.016621 -0.041311
v 0.182556 -0.162550 -0.072321
v 0.278125 0.193065 -0.054147
v 0.218055 -0.035212 0.178843
v 0.254505 -0.060103 0.180358
v 0.229202 -0.035085 0.173856
v 0.256649 -0.058477 0.178494
v 0.186104 -0.025898 -0.039314
v -0.007906 0.073804 0.076777
v 0.007491 0.078821 0.079443
v 0.247520 -0.021165 -0.093837
v 0.264474 -0.021424 -0.104610
v 0.276655 -0.022478 -0.093878
v 0.207713 -0.019171 -0.144695
v 0.187916 -0.021635 -0.123753
v 0.208209 -0.018925 -0.148356
v -0.038564 -0.060458 -0.185365
v -0.013991 -0.064112 -0.192759
v -0.280637 0.017906 0.020563
v 0.304644 0.190494 0.033265
v 0.289337 0.195266 0.039470
v 0.300800 0.189807 0.044825
v -0.137918 0.096168 0.057469
v -0.143860 -0.117966 -0.161595
v -0.078991 -0.031893 0.145237
v 0.072955 -0.077126 -0.210720
v 0.210750 -0.168329 -0.057975
v -0.014562 -0.136804 -0.072533
v -0.025197 -0.132859 -0.054587
v 0.005630 -0.137629 -0.053317
v 0.267447 0.195942 -0.040660
v 0.116157 -0.017124 0.077461
v 0.346202 -0.122428 0.126332
v 0.294225 -0.030788 -0.123351
v 0.264051 -0.022333 -0.120585
v 0.280931 -0.023747 -0.106838
v 0.278828 -0.070323 -0.171240
v 0.075947 -0.145613 -0.001462
v 0.218729 -0.168500 0.229451
v 0.182058 0.169125 0.082872
v 0.129470 -0.155143 0.055706
v 0.126421 -0.155402 0.078138
v -0.146638 0.098333 0.051561
v -0.138948 0.102585 0.053810
v -0.240785 -0.014266 0.069261
v -0.237349 -0.011069 0.067048
v 0.001038 -0.006376 -0.092077
v 0.071801 -0.008471 -0.110813
v 0.355566 -0.196199 0.055319
v 0.176310 0.063152 0.001730
v 0.015355 -0.015913 -0.044574
v 0.312053 -0.073827 -0.146505
v -0.025694 -0.140902 -0.113026
v 0.226303 -0.165621 -0.227583
v 0.109572 -0.013978 0.096367
v -0.239362 0.015373 -0.046723
v -0.238020 0.016432 -0.045979
v 0.323561 0.138096 -0.041824
v 0.323587 0.128025 -0.049861
v 0.071269 -0.040361 0.188485
v 0.098183 -0.049708 0.197213
v 0.182486 -0.025489 0.179155
v 0.246890 -0.181829 0.103049
v -0.135902 0.084073 0.059883
v 0.291533 0.195902 -0.024738
v 0.369088 -0.069434 0.050554
v 0.259977 -0.152598 0.213120
v 0.132956 0.133489 -0.090529
v 0.128753 0.130956 -0.091006
v 0.095703 -0.035918 0.188050
v 0.122461 -0.017167 -0.078320
v -0.066634 0.130577 -0.002214
v -0.029931 0.138323 -0.001569
v -0.184045 0.090368 -0.029968
v 0.158131 0.155228 0.089547
v 0.159341 0.148092 0.092177
v -0.355948 -0.075056 -0.059946
v -0.330495 -0.078928 -0.080145
v -0.087011 -0.137538 0.146862
v -0.086757 -0.136973 0.136000
v -0.082631 -0.137993 0.139579
v 0.000766 -0.006244 -0.094792
v -0.001877 -0.005874 -0.099486
v -0.148762 -0.077271 0.163761
v 0.008698 -0.006394 -0.104732
v 0.379638 -0.191150 -0.085114
v 0.098450 -0.020096 0.041889
v 0.032773 0.042698 0.026831
v -0.032634 0.000818 -0.069991
v 0.229643 -0.179697 0.194969
v 0.157227 0.160816 0.085694
v 0.051404 -0.157109 0.205906
v 0.067240 -0.144718 0.230319
v -0.326480 -0.061599 -0.076528
v -0.333943 -0.048294 -0.062100
v 0.052361 -0.147575 0.070654
v 0.008336 -0.139594 0.056558
v 0.001613 -0.147744 0.116370
v 0.310258 -0.185904 -0.034464
v 0.023666 -0.105491 0.215743
v 0.313738 -0.027283 -0.072585
v -0.043594 0.043365 0.065443
v 0.227513 0.177015 0.085790
v -0.145675 0.103170 -0.054397
v 0.156504 0.174160 0.001715
v 0.069754 -0.007956 -0.126902
v 0.319970 0.081206 -0.052034
v 0.313405 -0.027251 -0.073026
v 0.311650 -0.027074 -0.074555
v 0.090782 0.048723 -0.047412
v 0.077964 0.047271 -0.038097
v 0.256802 -0.183431 0.202684
v 0.115644 -0.152676 -0.054670
v 0.127442 -0.154004 -0.048798
v 0.033830 -0.037030 0.179881
v 0.136710 -0.041374 0.194777
v 0.176184 -0.065815 0.203849
v 0.213018 0.185435 -0.055002
v -0.137054 0.103305 -0.060498
v -0.054184 0.069562 0.071168
v 0.047665 -0.145821 -0.074852
v 0.064004 -0.147663 -0.071295
v 0.254943 -0.148659 0.214828
v 0.098365 -0.150349 -0.046631
v -0.235258 -0.005468 0.056659
v -0.390685 -0.070086 0.005627
v -0.251306 0.007928 0.039424
v -0.252979 0.005879 0.040977
v -0.255093 0.007630 0.038751
v 0.330126 0.099536 0.043282
v 0.279780 -0.191659 0.123267
v -0.136957 -0.012604 0.100020
v 0.084967 -0.009240 0.132322
v 0.262283 0.167359 0.090409
v 0.256965 0.182135 0.081992
v 0.247404 0.180472 0.084046
v 0.183974 0.144919 -0.091762
v 0.368641 -0.046581 0.004192
v -0.025742 -0.136215 0.067200
v -0.048552 -0.127717 0.032428
v -0.018870 -0.131842 0.026530
v 0.250076 0.181487 -0.077175
v 0.261813 0.165826 -0.084324
v 0.230556 0.143761 -0.093984
v 0.341609 -0.078287 -0.114084
v -0.244400 -0.010691 0.063378
v -0.247184 -0.008487 0.059032
v 0.312031 -0.195732 -0.117778
v 0.302995 -0.194015 -0.148717
v 0.089672 -0.156397 -0.203782
v 0.106808 -0.157130 -0.177853
v 0.065682 -0.156081 -0.171324
v 0.073366 -0.156226 -0.166556
v 0.202399 -0.044284 0.189685
v 0.224850 -0.065271 0.194563
v 0.010318 0.139210 -0.061057
v 0.017468 0.148336 -0.033717
v 0.376176 -0.063314 0.004215
v -0.094542 0.062542 -0.070995
v 0.277907 0.122431 0.094354
v -0.217498 0.014320 -0.049964
v -0.225148 0.006190 -0.054361
v -0.243247 -0.100337 0.069350
v 0.162825 -0.149482 0.235652
v -0.228002 -0.102739 0.090927
v 0.325669 0.145149 0.004458
v 0.123689 -0.012171 -0.116848
v 0.292215 -0.192364 -0.152256
v 0.299006 -0.192153 -0.158419
v -0.139710 0.107648 0.048290
v -0.330239 -0.083818 0.036632
v 0.257437 -0.039138 -0.164121
v 0.219209 -0.033443 -0.177709
v 0.252357 -0.151156 -0.217809
v 0.365458 -0.198337 -0.063509
v 0.231294 0.066193 0.046915
v -0.241273 -0.006671 -0.070373
v 0.365912 -0.160658 -0.112661
v 0.308202 0.191161 0.004364
v 0.304446 0.192793 0.004309
v -0.226609 -0.103091 0.107770
v 0.128861 0.134313 0.092663
v 0.171769 -0.096035 0.216622
v -0.240526 -0.099427 -0.090434
v -0.216535 -0.101487 -0.092370
v -0.155860 0.092604 -0.052017
v -0.155329 0.088313 -0.053299
v -0.252408 -0.005005 -0.065250
v 0.210797 -0.173155 0.119579
v 0.218266 -0.175582 0.125691
v 0.255694 -0.028654 0.149768
v 0.259386 -0.039323 0.162779
v 0.315460 -0.194153 0.082573
v 0.317730 -0.187559 0.038616
v 0.345259 -0.196042 0.064036
v 0.350595 -0.195265 0.051792
v -0.081258 -0.039690 -0.159369
v -0.063137 -0.056805 -0.177971
v 0.105197 0.164650 0.051130
v 0.253865 -0.179506 -0.197582
v 0.259564 0.183123 -0.074820
v 0.098618 -0.040473 -0.193330
v 0.061813 -0.036590 -0.186555
v 0.372465 -0.092123 -0.058069
v 0.363632 -0.073653 -0.070216
v 0.074922 -0.141799 -0.233179
v 0.072380 -0.153731 -0.215461
v 0.252446 -0.023650 0.126022
v -0.048225 -0.146112 0.177643
v -0.047547 -0.146302 0.176767
v -0.081518 -0.117305 -0.206359
v -0.077860 -0.017587 0.083442
v -0.100461 -0.020450 0.063374
v -0.103985 -0.016046 0.085841
v 0.058787 -0.012894 0.077877
v 0.047361 -0.016394 0.056898
v 0.037480 -0.009833 0.097572
v -0.125675 0.091425 0.060952
v 0.010062 -0.154634 0.171525
v 0.113536 -0.155715 -0.137689
v 0.118485 -0.156560 -0.155547
v 0.018834 -0.007106 -0.120051
v 0.282058 -0.184503 0.061461
v 0.283250 -0.183130 0.050097
v 0.331603 0.101991 -0.037189
v -0.049850 0.095860 0.067485
v -0.029277 0.073234 0.073399
v 0.083921 -0.157376 0.142261
v 0.115593 -0.157049 0.127122
v 0.119029 -0.158153 0.149223
v -0.044460 -0.028672 -0.158730
v -0.106557 0.094205 0.061504
v -0.148767 0.084344 0.053716
v 0.156323 0.168169 0.067314
v 0.316953 0.174414 -0.022646
v 0.316097 0.177885 0.004437
v 0.181642 0.144946 -0.091405
v 0.182235 0.143682 -0.091502
v 0.181121 0.145718 -0.091314
v 0.330915 0.107080 0.041170
v 0.332545 0.099785 0.034846
v -0.229054 -0.071108 -0.134969
v -0.067840 -0.126070 -0.056414
v -0.071494 -0.135865 -0.132775
v -0.113310 -0.126907 -0.131418
v -0.123161 -0.123467 -0.120974
v 0.062717 -0.155759 -0.179014
v 0.106574 0.101233 0.095040
v 0.272506 0.150029 -0.086731
v 0.112862 -0.153419 0.061753
v 0.014450 -0.152546 -0.182650
v 0.332961 0.095546 -0.032634
v 0.276561 -0.056279 -0.165097
v -0.065594 -0.134481 -0.113820
v 0.295641 -0.192123 -0.109402
v 0.292951 -0.192632 -0.144435
v 0.331588 -0.035345 -0.085128
v 0.376203 -0.162768 -0.091839
v 0.088940 -0.018015 -0.051021
v 0.379893 -0.095639 0.027637
v 0.144851 -0.020286 0.083654
v 0.151648 -0.020309 0.093570
v -0.115941 -0.014398 0.086704
v 0.114446 0.096750 -0.093050
v 0.131841 0.092437 -0.092588
v -0.344921 -0.021221 -0.016212
v -0.344904 -0.020819 -0.014013
v 0.279805 0.193744 -0.051365
v -0.035642 0.081678 -0.075655
v -0.010313 0.092432 -0.077501
v 0.197187 -0.166359 -0.090013
v 0.065266 -0.156025 -0.168622
v -0.047183 0.092440 -0.073395
v -0.082555 0.086457 -0.072670
v -0.137999 0.108298 -0.054943
v 0.324024 0.111786 -0.053379
v 0.318598 0.093173 -0.060443
v 0.331929 0.095432 -0.035803
v -0.119564 -0.010707 -0.099035
v 0.171786 0.154162 -0.087462
v 0.231430 -0.172485 -0.202869
v -0.138972 -0.112207 -0.063409
v -0.025469 0.132751 -0.055352
v -0.138047 -0.014560 0.105289
v 0.200250 -0.166260 0.033169
v 0.098404 -0.153492 -0.107118
v 0.111356 -0.153097 -0.081568
v 0.084798 -0.152540 -0.107110
v 0.098621 -0.151326 -0.069146
v 0.252170 -0.023337 0.108906
v 0.239723 -0.022827 0.128180
v 0.038585 -0.109820 -0.223207
v -0.088231 -0.119857 0.198641
v 0.090048 -0.149982 -0.061077
v -0.039747 -0.018864 0.069883
v 0.118717 -0.017379 -0.073401
v 0.270947 -0.189458 0.180924
v 0.075973 0.160156 -0.039650
v 0.241115 -0.022973 0.131988
v -0.132729 -0.076582 -0.178083
v -0.134353 -0.074966 -0.176597
v 0.372626 -0.189882 -0.101622
v 0.107113 -0.020108 -0.043956
v 0.218588 -0.177038 0.162400
v 0.325159 -0.193558 -0.143226
v -0.232918 0.076386 -0.005271
v 0.130276 -0.158779 0.162877
v 0.065405 -0.155873 -0.164705
v -0.024564 -0.149544 0.158991
v 0.377552 -0.079550 -0.026584
v 0.135092 -0.016781 0.102080
v 0.243685 -0.027337 0.155122
v 0.149081 0.153937 -0.085963
v -0.234261 -0.099269 -0.114330
v -0.260588 -0.095962 -0.106472
v 0.258608 -0.039483 -0.163819
v 0.259232 -0.039889 -0.163772
v 0.089099 -0.019360 0.043169
v 0.133541 -0.157674 -0.202250
v 0.134953 -0.157589 -0.204850
v 0.166269 -0.157528 -0.157598
v -0.210904 0.043936 -0.039555
v 0.140811 0.057193 -0.044181
v 0.156658 0.164715 0.080488
v -0.051702 -0.124763 -0.003491
v 0.300973 -0.189811 0.071860
v 0.296780 -0.184802 0.044945
v 0.053842 -0.148092 0.073749
v -0.312239 -0.088826 0.046233
v -0.240940 -0.011197 -0.077379
v -0.252122 0.063211 -0.005675
v 0.314214 0.181842 0.023016
v 0.314386 0.173927 0.039631
v -0.147089 0.098355 0.051207
v -0.146992 0.096155 0.052009
v -0.239486 -0.007592 0.060404
v -0.239545 -0.008024 0.061169
v -0.106202 0.094731 0.061296
v -0.034457 -0.000887 -0.068651
v -0.065348 -0.014340 -0.063524
v 0.222772 -0.023994 -0.068033
v 0.241262 -0.023685 -0.066972
v 0.231704 -0.022548 -0.080882
v 0.356239 -0.159235 0.127562
v -0.018227 -0.107019 0.210013
v -0.288143 -0.054948 0.081639
v 0.214813 -0.170942 -0.106425
v 0.005832 -0.152880 0.153605
v 0.000549 -0.147945 0.118737
v -0.074786 -0.023667 0.030178
v -0.217863 -0.100159 0.035361
v 0.312657 0.185190 0.015668
v -0.042208 -0.094488 0.200047
v -0.176772 0.046795 0.042301
v -0.195827 0.041883 0.036266
v 0.346110 -0.049457 0.084839
v -0.280575 -0.063620 0.091799
v 0.031744 0.103669 0.081822
v 0.030686 0.082697 0.083398
v 0.283009 -0.181775 0.040043
v 0.278186 -0.177004 0.001784
v 0.101553 -0.156808 -0.202205
v 0.230438 -0.019772 -0.122767
v 0.244468 -0.020739 -0.129417
v 0.214217 -0.019086 -0.142650
v -0.226400 -0.005032 -0.069689
v -0.147666 -0.081163 0.167232
v -0.140818 -0.081594 0.170167
v 0.262788 0.167618 0.090119
v 0.263313 0.167431 0.090059
v 0.274671 0.185221 0.074858
v -0.029639 0.068133 0.072713
v -0.345864 -0.021935 -0.015031
v 0.235280 0.189694 0.060840
v 0.125386 -0.156255 0.102227
v -0.084420 -0.127835 0.074364
v -0.072913 -0.126520 0.053107
v -0.078889 -0.130332 0.083603
v 0.077330 -0.152653 -0.114838
v 0.046941 -0.151942 -0.130788
v 0.320019 0.154775 0.043362
v 0.102514 -0.126077 0.230963
v 0.322840 0.118575 0.058034
v 0.321753 0.104027 0.062038
v 0.088782 -0.153547 0.094369
v 0.088065 -0.153645 0.096314
v -0.057916 -0.018489 0.076194
v 0.328655 -0.195149 -0.074982
v 0.297419 -0.192012 0.092274
v 0.312745 -0.194775 0.090734
v -0.049703 -0.145694 0.178708
v -0.158511 0.096337 -0.047416
v -0.148030 0.101626 -0.053329
v 0.319298 0.075079 0.034008
v -0.006076 -0.134646 0.033651
v -0.320012 -0.085482 -0.062982
v -0.271376 -0.054301 -0.103435
v -0.265002 -0.066615 -0.114779
v 0.241010 0.186761 0.072364
v 0.060156 -0.155939 -0.172694
v 0.033475 -0.152921 -0.204233
v -0.108225 -0.126641 0.095550
v -0.108783 -0.125422 0.088119
v -0.098487 -0.127137 0.086032
v 0.295752 0.188914 0.054633
v 0.248753 -0.025411 -0.150680
v 0.090797 -0.149535 0.035593
v 0.110487 -0.152549 0.048077
v 0.323375 -0.198000 0.138288
v 0.293464 0.194495 0.004133
v -0.098518 -0.012217 -0.091246
v -0.001827 -0.150008 -0.162235
v 0.278308 -0.184880 -0.188454
v 0.334391 0.086821 0.004376
v -0.245186 0.009874 0.039039
v -0.231458 0.017350 0.035566
v -0.236852 0.023517 0.030831
v 0.101416 -0.154380 -0.216738
v 0.278337 -0.191750 0.174170
v -0.031670 -0.000394 -0.069236
v -0.018015 -0.142779 -0.118590
v 0.092897 -0.020490 0.033212
v 0.298677 -0.048621 -0.141962
v 0.158491 0.168993 -0.063501
v -0.071241 -0.139097 0.187721
v -0.055610 -0.139591 0.198649
v -0.086824 -0.135576 0.185690
v -0.070088 -0.135222 0.196859
v 0.326328 0.123716 -0.046219
v 0.251279 0.192238 0.059926
v 0.331470 0.093196 -0.035636
v 0.263989 -0.177610 -0.037483
v 0.389829 -0.161565 -0.038591
v 0.390835 -0.161025 -0.023575
v -0.267337 0.029434 0.018028
v 0.068004 -0.157199 0.147463
v -0.140464 -0.121709 0.117803
v -0.151874 -0.119208 0.129523
v -0.147385 -0.118862 0.111364
v -0.006607 0.102944 -0.076326
v 0.005972 0.098871 -0.079610
v -0.234093 0.000904 -0.059288
v -0.237342 0.000769 -0.059665
v 0.371033 -0.068440 0.041518
v -0.146223 -0.111141 -0.072333
v -0.137734 -0.113544 -0.074101
v 0.092858 -0.154574 -0.129847
v -0.269337 0.014165 -0.041620
v -0.205746 0.055786 -0.037069
v -0.210462 0.052561 -0.036244
v 0.365417 -0.197377 -0.088001
v -0.069522 -0.011351 -0.088836
v -0.106609 0.096546 -0.067566
v -0.139773 -0.120554 0.105587
v -0.133220 -0.123310 0.113084
v 0.286089 0.172582 -0.071545
v 0.197128 0.108574 0.096502
v -0.154442 -0.114124 -0.149273
v 0.314908 0.075848 -0.047249
v 0.316974 0.075582 -0.039995
v 0.304330 0.072139 -0.044399
v 0.107445 -0.159072 0.168629
v 0.304384 0.175809 -0.051256
v 0.318051 0.168167 -0.031145
v 0.132972 0.129621 -0.091368
v -0.244572 0.048619 -0.025896
v 0.102479 0.050305 0.046313
v 0.183099 -0.021919 0.174473
v 0.311996 0.080235 0.067202
v -0.256952 -0.003010 -0.061526
v -0.096183 -0.021561 0.058486
v -0.067452 -0.023897 0.042668
v -0.098244 -0.021659 0.056037
v 0.277309 0.193834 -0.052452
v 0.242366 -0.180003 -0.166206
v 0.280986 -0.187049 -0.179374
v 0.289138 -0.186244 -0.182426
v -0.031702 -0.137433 0.080925
v 0.343646 -0.153123 -0.144107
v 0.171343 0.155947 0.091096
v -0.020351 0.101809 -0.074150
v 0.218664 -0.169886 -0.056381
v 0.277984 -0.083164 0.176978
v -0.092903 -0.133611 0.120418
v -0.042723 -0.143495 -0.159415
v -0.069355 -0.138528 -0.155354
v -0.042335 -0.143825 -0.166340
v -0.145824 0.095596 -0.057235
v 0.101101 0.050109 -0.040432
v 0.286386 0.161541 0.083037
v 0.276699 0.148664 0.092072
v -0.134423 -0.013183 -0.113390
v 0.291643 0.139759 -0.080047
v 0.286152 0.133287 -0.084133
v -0.146441 0.098010 0.051789
v -0.024193 -0.138270 0.079240
v -0.246891 0.005063 0.042956
v -0.239900 -0.000305 0.048810
v -0.081359 -0.013007 -0.084660
v -0.083600 -0.013741 -0.080523
v -0.093341 -0.136068 0.176459
v -0.051638 -0.145477 0.177377
v -0.131016 -0.119125 -0.103614
v -0.066833 -0.138568 -0.180707
v -0.061550 -0.137721 -0.194215
v -0.053005 -0.140110 -0.190642
v -0.120636 -0.013426 0.093446
v 0.067186 -0.153701 0.218160
v 0.096553 -0.158071 0.210904
v 0.071098 -0.158404 0.203546
v -0.049248 -0.145992 0.176834
v -0.083134 0.074005 -0.073500
v -0.268041 0.032695 0.014714
v -0.258833 0.039283 0.014336
v -0.088280 -0.013380 -0.083864
v 0.295192 0.194920 0.027667
v 0.287623 0.196267 0.032044
v -0.239972 -0.007645 0.060367
v -0.259003 -0.099093 0.082260
v -0.251930 0.035048 0.019975
v 0.136179 -0.157274 -0.208711
v -0.048752 -0.146007 0.174598
v 0.135047 0.056143 0.049881
v -0.229819 0.046448 0.021447
v -0.227827 0.055655 0.017868
v -0.083820 -0.019937 -0.048891
v 0.207056 -0.168846 -0.193117
v 0.282999 0.194029 0.051652
v -0.134660 -0.115708 0.061132
v -0.115026 -0.122781 0.079046
v -0.124580 -0.123756 0.101317
v -0.245666 0.001053 -0.059356
v -0.245852 -0.003850 -0.065436
v -0.251673 -0.000278 -0.059887
v 0.056596 -0.010658 -0.086738
v -0.267949 -0.095540 -0.074320
v -0.054375 -0.137761 -0.201080
v -0.025319 0.073630 0.074505
v -0.049786 -0.023228 0.037804
v 0.253237 0.189427 -0.064746
v 0.275717 0.193140 -0.054714
v 0.205211 -0.168610 -0.146381
v 0.210599 -0.170087 -0.128224
v 0.358568 -0.198677 -0.081896
v 0.364737 -0.197967 -0.081889
v -0.040459 -0.097250 -0.208191
v 0.011686 -0.010878 0.125814
v -0.088273 -0.134702 -0.165699
v 0.162333 0.149230 -0.088384
v 0.285239 0.176066 0.076400
v 0.198818 -0.166509 0.046635
v 0.149764 -0.018103 0.113946
v -0.081394 -0.135578 -0.149023
v -0.065999 -0.125025 0.032920
v 0.035463 -0.145171 -0.083099
v -0.239501 0.017200 -0.045221
v 0.103704 -0.159568 0.195781
v 0.287535 -0.046205 0.149854
v 0.206171 -0.031314 0.178707
v 0.315864 0.095527 0.069791
v 0.258278 0.163020 0.092831
v 0.292634 0.176522 0.070568
v 0.274235 -0.185337 -0.088533
v 0.309470 -0.194478 -0.101681
v -0.246618 -0.063608 -0.122408
v -0.115378 -0.115175 -0.028671
v 0.240457 -0.179492 -0.163178
v -0.214065 -0.102173 -0.116377
v 0.302194 0.177003 -0.054378
v 0.114741 -0.159237 0.207551
v 0.268937 -0.147511 0.207254
v 0.262254 -0.150041 0.211768
v 0.264204 -0.153268 0.211181
v 0.313455 0.176796 -0.032121
v 0.001990 -0.147892 0.117091
v -0.121109 -0.130670 0.157699
v -0.114811 -0.131884 0.170030
v -0.076896 -0.138742 0.135552
v -0.083294 -0.137486 0.134538
v -0.263945 0.012149 -0.044948
v -0.350219 -0.043414 0.027627
v -0.127876 -0.122235 -0.121644
v -0.226673 -0.002180 -0.062961
v 0.324339 0.131439 0.049524
v -0.312418 -0.050703 -0.077908
v 0.139041 0.057084 0.051251
v -0.033489 0.091491 0.071261
v 0.216348 -0.170059 -0.069152
v 0.262703 0.166669 0.090632
v 0.379079 -0.169373 -0.086084
v 0.312081 0.186523 0.004408
v 0.313815 0.181957 -0.015680
v -0.268495 0.015814 -0.040541
v 0.290112 0.152925 -0.077599
v 0.300281 0.175825 -0.057391
v 0.208437 -0.030409 -0.179043
v 0.095727 -0.123867 0.230253
v 0.062657 -0.156025 -0.169820
v -0.009353 -0.141786 0.212619
v -0.131896 -0.074790 -0.176966
v 0.053360 -0.147726 0.070896
v 0.053701 -0.147829 0.071290
v 0.323546 0.122284 -0.052150
v 0.339889 -0.080429 0.117958
v -0.099527 -0.021117 0.058736
v -0.232939 -0.004260 0.054128
v 0.209412 -0.169494 -0.192970
v -0.009452 -0.097957 -0.212979
v 0.062670 -0.155840 -0.167083
v 0.032289 -0.151381 -0.137343
v 0.033105 -0.152395 -0.150252
v 0.213725 0.066255 0.059425
v -0.124059 -0.116335 -0.069947
v 0.032336 0.097955 -0.084162
v -0.002485 -0.141491 -0.093603
v 0.228756 -0.024880 -0.057086
v 0.217593 -0.024727 -0.060108
v 0.006454 -0.144311 -0.105490
v 0.041817 -0.147510 -0.096035
v 0.021550 -0.148975 -0.126995
v -0.103106 -0.121077 0.051210
v -0.123572 -0.115898 0.041631
v -0.269868 -0.094736 -0.064996
v 0.019008 -0.014552 0.072909
v 0.239293 -0.019810 -0.112093
v 0.260578 -0.026797 -0.144940
v -0.241147 -0.003876 -0.066155
v -0.238350 -0.004513 -0.067416
v 0.098507 -0.123060 0.230220
v 0.270842 0.164151 -0.082319
v 0.179811 -0.042180 0.191545
v 0.110792 0.096746 0.095159
v 0.142682 0.091697 0.092944
v -0.232528 0.001426 0.047044
v -0.237639 -0.001136 0.049717
v 0.009540 0.062926 -0.077429
v 0.018555 0.069825 -0.081280
v -0.297081 -0.049014 -0.085239
v 0.102073 -0.123190 0.230482
v -0.069417 -0.033202 -0.156481
v 0.256561 -0.180869 -0.085951
v -0.073267 -0.124290 0.036592
v 0.127249 0.117659 0.094375
v 0.061469 -0.149308 -0.094363
v 0.078817 -0.151578 -0.100833
v 0.255131 -0.022873 -0.132769
v -0.228793 0.021513 0.033729
v 0.129009 -0.157597 -0.205543
v -0.032678 -0.000579 -0.069032
v -0.081360 -0.041608 0.154350
v -0.066059 -0.036152 0.154684
v -0.020792 -0.007983 -0.118715
v 0.023046 -0.151087 -0.145718
v -0.238065 -0.001493 0.050232
v -0.238454 -0.002715 0.052149
v -0.103941 -0.092596 0.185586
v -0.053425 0.076381 -0.074846
v -0.033200 0.000205 -0.070095
v -0.035085 -0.000803 -0.070221
v -0.064095 -0.126500 0.042783
v -0.130013 -0.128134 0.160988
v 0.147574 -0.038698 -0.191555
v 0.342295 -0.055019 -0.096540
v 0.327153 -0.065943 -0.125451
v -0.120117 0.104832 -0.062409
v 0.169994 0.156458 0.090794
v 0.291004 0.196264 -0.020483
v 0.295473 0.195309 -0.017168
v -0.339241 -0.037408 -0.046991
v -0.044725 -0.036402 0.160649
v -0.232134 0.010225 0.039905
v 0.247172 -0.035773 0.165821
v -0.154029 -0.108446 0.020712
v 0.195654 -0.027761 0.177835
v 0.196359 -0.034396 0.184018
v -0.106763 -0.119668 -0.064321
v -0.128520 -0.113599 -0.045816
v 0.210973 0.066831 -0.050987
v 0.229214 -0.179125 0.133144
v 0.217599 -0.175767 0.134381
v 0.087195 -0.153559 0.095935
v 0.152079 0.156098 -0.085290
v -0.070874 -0.135058 -0.194528
v 0.306137 0.182325 -0.041408
v 0.046569 -0.011755 -0.075673
v 0.086257 -0.153670 0.098037
v 0.307633 0.074265 0.059689
v 0.355371 -0.196379 -0.050284
v -0.146422 -0.122637 0.158393
v -0.240313 0.017235 -0.045072
v -0.253942 0.044308 -0.024969
v 0.142586 0.152117 0.089380
v 0.239423 -0.182861 0.150484
v -0.082019 -0.012278 -0.092982
v 0.138548 -0.140998 0.234988
v -0.238207 -0.005665 0.057063
v 0.259856 -0.179401 -0.062938
v 0.074584 -0.017887 0.049469
v 0.215004 0.140610 -0.094805
v 0.024464 -0.117788 -0.224360
v 0.148864 0.155069 0.089042
v -0.036791 0.065025 -0.073572
v 0.189298 -0.023855 0.175038
v 0.188068 -0.023009 0.174145
v -0.115577 -0.115589 0.020222
v -0.113355 -0.116886 0.031210
v -0.131763 -0.113187 0.028244
v 0.032744 -0.149595 -0.121755
v -0.221958 0.025033 0.033419
v 0.256431 -0.175045 0.023970
v 0.255106 -0.174772 0.023243
v 0.255761 -0.183496 -0.133498
v 0.231307 0.066856 0.061160
v 0.195106 -0.022012 -0.173524
v 0.200485 -0.024519 -0.175222
v 0.153304 0.160439 -0.081532
v -0.232369 -0.001363 -0.062071
v 0.052192 -0.038049 0.183921
v -0.157997 -0.112788 -0.153721
v -0.319712 -0.085528 -0.053651
v 0.060105 -0.036994 -0.186446
v 0.166337 -0.028132 0.183205
v 0.325580 -0.083288 -0.136691
v -0.164425 -0.115655 0.148777
v 0.015217 -0.152604 -0.182833
v 0.311808 0.103830 -0.067705
v -0.343721 -0.052483 0.042230
v 0.121037 -0.159668 0.197033
v 0.256738 -0.174976 0.022649
v -0.115901 0.074678 0.063565
v 0.255307 -0.185594 0.122137
v -0.146809 -0.110741 0.035884
v -0.142079 -0.122025 0.172897
v 0.287783 0.196548 -0.024052
v 0.137418 0.056608 0.046700
v 0.139821 0.057175 0.047702
v -0.123474 -0.126450 0.176158
v -0.119931 -0.013512 0.093449
v -0.344167 -0.031248 -0.034214
v 0.353983 -0.097601 0.104350
v 0.256573 -0.176752 -0.044032
v -0.120720 0.081973 0.062778
v 0.165047 -0.015589 -0.148822
v 0.300399 0.071781 -0.046137
v 0.323580 -0.196332 0.090403
v 0.176958 -0.017415 -0.148644
v -0.086121 -0.084883 -0.193423
v -0.346713 -0.023379 -0.017172
v 0.002235 -0.097045 -0.214298
v -0.252934 0.009346 0.037982
v -0.346767 -0.047465 -0.050369
v 0.256747 -0.187208 0.143622
v 0.134925 -0.125532 0.231632
v 0.332827 -0.032664 0.041134
v 0.011753 -0.100962 -0.216966
v 0.130339 -0.157395 0.219389
v -0.239642 -0.002097 0.051172
v -0.125964 -0.077046 -0.179936
v 0.105215 0.095503 0.094402
v 0.319106 -0.197508 0.114902
v -0.351899 -0.042768 -0.041172
v 0.288150 -0.029471 0.036355
v 0.015106 -0.152557 -0.182037
v -0.065382 -0.090677 -0.200490
v 0.031452 0.041650 -0.037986
v -0.176371 0.059355 -0.048923
v 0.124427 -0.012071 -0.118774
v 0.192058 0.181133 0.042647
v -0.052217 0.028573 0.037087
v 0.327851 0.124248 0.038481
v -0.323725 -0.049884 0.055259
v -0.232357 0.056973 0.015007
v -0.032573 -0.031218 -0.163073
v 0.122119 -0.011870 -0.118183
f 3 4 5
f 8 9 10
f 11 12 13
f 12 14 13
f 15 16 17
f 18 19 20
f 21 22 23
f 26 27 28
f 27 29 28
f 32 33 34
f 35 36 37
f 38 39 21
f 40 41 42
f 43 44 45
f 47 49 48
f 50 51 52
f 55 56 57
f 61 62 63
f 66 29 27
f 67 68 40
f 69 70 71
f 12 72 73
f 72 74 73
f 75 76 77
f 78 79 80
f 81 82 83
f 84 85 86
f 87 88 89
f 88 90 89
f 93 94 95
f 96 77 76
f 97 98 99
f 100 101 102
f 92 104 105
f 106 107 108
f 111 47 112
f 114 115 116
f 117 112 47
f 119 120 35
f 123 124 125
f 126 127 128
f 129 130 131
f 132 133 134
f 135 136 137
f 27 138 66
f 123 140 124
f 142 143 144
f 143 145 144
f 40 68 41
f 146 147 148
f 149 150 151
f 152 153 154
f 155 156 157
f 152 158 153
f 162 163 164
f 163 124 164
f 120 119 165
f 17 166 167
f 168 169 170
f 125 171 172
f 175 176 128
f 178 179 180
f 182 171 10
f 183 60 69
f 186 187 188
f 189 190 191
f 193 194 195
f 199 200 201
f 202 203 204
f 206 207 208
f 209 210 141
f 76 211 96
f 215 216 217
f 87 218 88
f 219 203 202
f 187 221 222
f 224 225 226
f 227 228 229
f 228 230 229
f 67 40 232
f 233 234 235
f 236 237 75
f 235 221 238
f 239 240 206
f 241 242 243
f 244 245 246
f 245 247 246
f 248 249 250
f 253 254 255
f 259 260 261
f 262 77 263
f 238 266 267
f 267 254 268
f 9 271 56
f 30 273 274
f 275 122 276
f 277 278 279
f 280 122 281
f 284 285 286
f 285 287 286
f 288 289 290
f 291 292 293
f 111 49 47
f 10 9 56
f 297 298 299
f 301 302 303
f 304 305 306
f 307 308 309
f 310 311 312
f 315 31 316
f 19 287 224
f 318 319 320
f 319 321 320
f 323 324 322
f 325 326 327
f 328 329 200
f 164 330 331
f 332 48 318
f 333 334 335
f 234 187 222
f 241 337 338
f 339 340 83
f 70 341 342
f 281 275 343
f 242 241 338
f 344 345 346
f 293 110 347
f 41 350 50
f 351 30 22
f 68 67 352
f 67 353 352
f 357 358 331
f 360 361 362
f 363 364 365
f 368 306 369
f 106 370 107
f 150 371 209
f 224 287 285
f 372 373 374
f 315 46 31
f 125 124 377
f 379 380 3
f 383 184 64
f 385 386 387
f 388 150 389
f 391 392 33
f 392 34 33
f 393 394 77
f 394 263 77
f 396 397 398
f 200 399 328
f 156 234 233
f 401 403 402
f 404 405 406
f 83 407 408
f 266 238 255
f 411 141 210
f 414 415 390
f 416 417 418
f 22 30 420
f 421 294 181
f 77 96 294
f 422 423 424
f 355 425 426
f 430 125 431
f 432 433 434
f 408 435 335
f 436 438 437
f 136 402 439
f 441 442 373
f 442 443 373
f 444 445 446
f 19 224 447
f 318 84 332
f 450 403 60
f 358 451 331
f 366 452 453
f 211 401 96
f 454 455 273
f 456 457 94
f 457 95 94
f 138 306 322
f 64 461 462
f 42 41 50
f 463 464 465
f 466 467 424
f 162 468 163
f 469 470 444
f 470 445 444
f 471 472 174
f 473 395 474
f 187 476 221
f 477 478 479
f 481 227 439
f 35 381 36
f 482 483 484
f 485 486 487
f 125 377 205
f 154 488 317
f 8 273 455
f 489 251 390
f 109 490 349
f 491 16 492
f 493 494 495
f 1 16 480
f 148 398 496
f 497 421 181
f 498 499 500
f 501 502 2
f 155 157 367
f 198 504 5
f 45 505 252
f 489 506 251
f 60 403 401
f 507 381 120
f 508 509 510
f 511 512 513
f 514 515 516
f 517 518 519
f 429 428 521
f 160 521 428
f 200 329 201
f 138 522 306
f 222 221 235
f 357 331 523
f 331 330 523
f 524 210 209
f 525 526 527
f 528 529 130
f 470 469 466
f 531 532 533
f 534 535 536
f 80 79 537
f 79 538 537
f 354 539 355
f 541 280 540
f 543 544 545
f 314 547 546
f 548 230 549
f 550 17 167
f 76 75 211
f 75 237 211
f 551 552 553
f 554 555 556
f 313 34 392
f 191 560 421
f 562 356 563
f 564 565 566
f 450 60 568
f 570 571 569
f 574 575 576
f 328 577 578
f 579 113 291
f 223 582 581
f 146 583 192
f 261 554 584
f 337 34 313
f 477 433 586
f 587 588 260
f 17 589 15
f 171 590 172
f 234 222 235
f 591 592 118
f 593 594 595
f 355 199 596
f 597 201 329
f 201 596 199
f 377 124 163
f 111 112 2
f 200 539 399
f 131 567 129
f 582 223 598
f 599 600 601
f 603 604 605
f 606 607 608
f 609 127 65
f 610 611 329
f 241 612 240
f 252 251 506
f 305 322 306
f 492 344 491
f 613 614 615
f 616 132 617
f 132 618 617
f 532 423 510
f 423 422 510
f 271 57 56
f 519 81 83
f 370 621 622
f 623 624 56
f 625 124 140
f 611 610 626
f 610 627 626
f 198 4 197
f 628 629 630
f 474 636 637
f 549 638 548
f 518 81 519
f 187 530 476
f 411 641 642
f 644 546 604
f 548 638 113
f 579 291 293
f 397 113 638
f 75 77 262
f 646 506 561
f 647 649 648
f 68 352 41
f 609 176 175
f 322 305 323
f 298 297 650
f 651 343 85
f 652 24 653
f 391 654 655
f 658 160 159
f 660 661 662
f 661 663 662
f 559 664 665
f 667 425 355
f 183 668 60
f 669 670 2
f 671 300 185
f 674 65 64
f 32 241 336
f 240 25 24
f 465 675 676
f 125 678 677
f 679 4 680
f 681 675 464
f 464 675 465
f 424 681 464
f 682 683 684
f 240 243 206
f 399 539 354
f 685 686 369
f 677 431 125
f 396 291 113
f 494 688 495
f 7 680 4
f 689 6 583
f 690 691 692
f 396 456 94
f 553 552 693
f 142 144 694
f 144 695 694
f 459 696 697
f 327 699 698
f 700 701 702
f 448 703 555
f 455 31 46
f 500 339 570
f 510 509 532
f 328 705 202
f 706 422 424
f 671 185 494
f 707 564 708
f 182 590 171
f 120 709 507
f 45 44 505
f 507 709 657
f 710 556 555
f 583 372 689
f 224 226 447
f 424 423 466
f 492 16 15
f 480 16 711
f 338 337 313
f 513 712 511
f 395 636 474
f 713 714 715
f 716 717 367
f 718 514 516
f 143 694 719
f 694 594 719
f 720 721 722
f 723 724 462
f 205 172 461
f 725 298 726
f 298 727 726
f 728 342 99
f 342 341 99
f 295 730 729
f 731 732 711
f 425 613 735
f 668 183 736
f 737 738 739
f 740 741 44
f 742 218 629
f 442 743 443
f 743 744 443
f 196 566 565
f 143 719 747
f 748 749 750
f 456 396 398
f 581 751 223
f 752 753 21
f 557 38 21
f 425 754 614
f 404 406 755
f 756 757 758
f 297 759 650
f 759 760 650
f 52 544 42
f 560 190 393
f 391 33 761
f 33 762 761
f 699 327 326
f 763 764 765
f 766 227 579
f 500 769 498
f 385 387 770
f 771 402 403
f 64 205 377
f 666 772 623
f 773 103 734
f 774 775 776
f 777 563 704
f 493 495 707
f 636 426 778
f 282 572 174
f 154 223 488
f 203 780 781
f 582 782 581
f 784 152 779
f 453 785 786
f 294 393 77
f 787 788 789
f 788 790 789
f 231 563 356
f 755 791 792
f 133 793 794
f 568 364 771
f 365 364 568
f 2 365 568
f 795 771 363
f 771 364 363
f 796 797 798
f 430 8 171
f 184 802 801
f 623 56 55
f 803 386 385
f 804 387 803
f 387 386 803
f 295 585 300
f 195 194 639
f 709 656 657
f 163 567 377
f 567 163 468
f 32 34 337
f 32 337 241
f 450 771 403
f 5 4 198
f 805 299 806
f 609 807 176
f 496 810 811
f 810 441 811
f 812 813 814
f 406 405 118
f 60 668 568
f 815 816 704
f 449 574 511
f 654 391 761
f 335 435 639
f 401 503 60
f 817 818 819
f 818 820 819
f 821 635 198
f 822 823 824
f 520 107 370
f 27 522 138
f 825 826 639
f 827 594 694
f 828 742 598
f 21 753 22
f 21 39 752
f 467 681 424
f 557 21 23
f 22 753 351
f 59 420 54
f 829 187 234
f 830 694 419
f 623 55 666
f 598 742 414
f 59 831 420
f 832 794 833
f 834 214 569
f 265 835 836
f 718 683 514
f 683 837 514
f 684 683 718
f 514 192 6
f 192 514 837
f 276 226 225
f 113 397 396
f 839 320 321
f 84 651 85
f 590 10 56
f 378 712 643
f 841 196 50
f 842 689 372
f 533 843 531
f 674 64 462
f 131 844 814
f 845 304 385
f 238 268 317
f 846 92 91
f 54 53 59
f 588 587 797
f 587 798 797
f 847 848 849
f 848 850 849
f 174 173 471
f 401 851 503
f 852 126 853
f 854 236 855
f 236 856 855
f 857 859 858
f 852 853 835
f 318 320 84
f 567 131 814
f 862 506 489
f 707 495 688
f 430 171 125
f 651 839 343
f 863 864 865
f 276 122 226
f 867 783 691
f 187 868 530
f 304 870 305
f 871 485 872
f 485 873 872
f 874 151 141
f 527 526 875
f 398 148 876
f 856 236 75
f 878 855 879
f 775 879 877
f 855 856 879
f 877 879 767
f 550 654 880
f 333 639 826
f 598 414 390
f 355 539 199
f 199 539 200
f 709 120 882
f 239 25 240
f 184 383 126
f 884 686 885
f 256 368 369
f 810 398 638
f 398 397 638
f 886 866 887
f 223 889 888
f 178 890 812
f 447 226 619
f 792 179 891
f 892 435 407
f 348 893 354
f 812 894 813
f 17 16 166
f 166 16 1
f 10 171 8
f 499 437 339
f 399 705 328
f 895 15 589
f 72 301 896
f 167 600 313
f 49 898 48
f 899 900 749
f 355 710 555
f 555 703 355
f 555 554 448
f 901 700 902
f 62 904 903
f 265 231 356
f 28 906 26
f 562 380 356
f 3 380 7
f 277 279 57
f 416 904 417
f 461 172 590
f 908 258 257
f 126 852 184
f 498 769 909
f 249 248 186
f 139 910 359
f 366 911 912
f 400 328 202
f 801 802 64
f 280 281 540
f 455 30 31
f 9 455 46
f 42 278 40
f 35 120 381
f 416 913 904
f 442 810 638
f 106 914 370
f 914 621 370
f 175 127 609
f 128 127 175
f 915 916 733
f 291 94 292
f 232 40 917
f 377 205 64
f 922 923 924
f 493 707 708
f 629 218 630
f 218 87 630
f 27 26 608
f 925 926 890
f 574 449 448
f 698 165 35
f 927 829 234
f 178 180 890
f 180 928 890
f 525 318 898
f 318 48 898
f 930 736 71
f 196 51 50
f 740 174 741
f 740 283 174
f 282 174 283
f 496 398 810
f 931 127 126
f 396 94 291
f 461 932 662
f 507 657 382
f 507 382 381
f 709 882 359
f 165 119 35
f 933 165 698
f 935 936 224
f 71 736 183
f 335 571 570
f 550 880 17
f 17 880 589
f 937 921 938
f 561 288 410
f 440 288 506
f 939 726 940
f 726 941 940
f 195 942 193
f 840 444 446
f 943 225 224
f 190 944 394
f 227 229 579
f 113 579 229
f 945 494 185
f 946 513 512
f 543 947 544
f 755 949 404
f 190 394 393
f 75 262 263
f 951 952 263
f 767 952 951
f 75 263 856
f 263 952 856
f 952 879 856
f 952 767 879
f 460 809 459
f 333 335 639
f 953 954 198
f 955 515 177
f 168 170 732
f 256 956 957
f 275 958 343
f 343 958 85
f 276 958 275
f 63 958 276
f 446 445 921
f 275 281 122
f 343 540 281
f 418 959 416
f 418 960 959
f 151 150 209
f 371 150 961
f 388 961 150
f 141 151 209
f 220 947 962
f 858 859 653
f 963 688 494
f 463 465 58
f 205 377 125
f 674 462 635
f 881 964 965
f 359 966 709
f 881 967 256
f 270 158 968
f 851 341 69
f 99 341 851
f 741 174 969
f 472 969 174
f 604 546 547
f 970 971 628
f 972 971 970
f 415 414 972
f 414 971 972
f 742 629 414
f 629 971 414
f 628 971 629
f 474 973 473
f 183 69 71
f 682 684 974
f 255 238 975
f 267 253 254
f 60 503 69
f 976 86 47
f 69 341 70
f 308 751 581
f 858 98 97
f 977 978 979
f 980 578 409
f 298 650 727
f 981 191 497
f 367 413 155
f 982 983 984
f 622 25 520
f 389 985 986
f 627 987 389
f 493 708 671
f 482 658 988
f 372 148 811
f 355 596 667
f 828 989 990
f 732 991 992
f 913 903 904
f 993 994 995
f 994 996 995
f 953 198 197
f 679 680 912
f 912 680 7
f 366 912 7
f 960 998 997
f 999 1000 3
f 56 1002 590
f 160 658 521
f 1003 575 261
f 448 575 574
f 511 574 512
f 315 1005 1004
f 422 706 1006
f 706 773 1006
f 472 44 969
f 741 969 44
f 382 1007 381
f 496 811 148
f 1006 773 1008
f 253 255 254
f 728 1010 914
f 1010 621 914
f 563 231 704
f 622 621 1010
f 1011 1012 992
f 401 135 96
f 795 481 439
f 886 887 1013
f 915 733 51
f 1014 471 173
f 86 976 84
f 332 84 976
f 667 754 425
f 7 4 3
f 553 693 830
f 694 695 419
f 827 693 551
f 693 552 551
f 585 253 171
f 48 332 976
f 616 793 132
f 793 133 132
f 1015 1016 632
f 33 32 762
f 105 104 257
f 599 1017 600
f 167 166 600
f 601 600 1
f 600 166 1
f 825 1018 311
f 703 354 355
f 354 703 1019
f 586 1020 477
f 368 304 306
f 1021 159 160
f 1022 1023 272
f 148 583 146
f 1024 734 157
f 1025 378 643
f 50 52 42
f 675 1027 1028
f 110 95 498
f 57 1029 1030
f 1031 586 433
f 326 1032 1033
f 575 448 554
f 1034 1035 549
f 1036 1037 1038
f 1037 1039 1038
f 1040 59 53
f 1040 1041 59
f 1042 777 704
f 601 1043 599
f 356 1000 376
f 264 376 916
f 869 1046 1045
f 1047 521 189
f 521 1048 189
f 1049 1050 551
f 157 413 367
f 383 65 931
f 99 851 97
f 728 99 98
f 549 230 1051
f 1052 1053 18
f 239 206 1045
f 253 585 254
f 1055 1056 1057
f 1058 1059 1060
f 570 569 500
f 1061 721 907
f 285 284 79
f 284 1062 79
f 113 230 548
f 1063 1064 770
f 1065 791 406
f 1066 29 1067
f 29 66 1067
f 664 1042 665
f 701 1068 702
f 688 1069 565
f 963 1070 688
f 1070 1069 688
f 1071 1072 1073
f 830 693 694
f 1074 860 1041
f 564 566 1075
f 907 1076 296
f 1013 887 720
f 573 948 559
f 883 559 1077
f 1009 1078 1079
f 189 1048 190
f 489 390 415
f 415 972 862
f 1080 980 1081
f 1080 1082 980
f 1082 409 212
f 192 583 6
f 267 268 238
f 583 148 372
f 1083 1084 1009
f 484 190 1048
f 1085 753 752
f 435 408 407
f 12 1086 14
f 1042 704 816
f 1087 11 1088
f 11 1089 1088
f 995 1090 993
f 1090 1050 993
f 25 824 24
f 704 1091 815
f 604 547 605
f 611 626 597
f 626 1092 597
f 417 904 62
f 706 424 464
f 51 544 52
f 884 885 1093
f 884 369 686
f 884 256 369
f 470 466 173
f 888 889 989
f 593 1094 719
f 742 990 218
f 64 205 461
f 614 1095 768
f 654 1096 880
f 466 469 467
f 549 1051 1034
f 892 82 1038
f 1087 1097 11
f 427 190 484
f 1098 1099 991
f 1099 992 991
f 1049 551 553
f 51 545 544
f 374 842 372
f 304 803 385
f 160 312 1101
f 129 71 1102
f 358 541 540
f 1103 569 214
f 1104 1105 568
f 1106 1056 253
f 1107 1108 197
f 1109 1110 43
f 908 257 1111
f 1112 1113 723
f 1113 724 723
f 805 79 1062
f 1114 845 385
f 162 164 331
f 321 451 839
f 1115 995 996
f 1116 1117 733
f 962 947 1118
f 1119 1068 1120
f 1068 1121 1120
f 1122 274 273
f 1123 1082 634
f 1043 1124 599
f 1125 58 465
f 578 577 409
f 839 651 320
f 651 84 320
f 1000 1126 376
f 928 1065 800
f 791 1065 928
f 791 755 406
f 180 179 791
f 179 792 791
f 791 928 180
f 409 400 204
f 976 47 48
f 306 522 1128
f 992 1012 711
f 493 671 494
f 1068 1095 1121
f 898 526 525
f 317 268 779
f 96 135 137
f 832 833 727
f 1129 1130 1131
f 1130 1132 1131
f 1133 363 1134
f 363 365 1134
f 1135 869 1049
f 967 881 1137
f 457 436 499
f 164 1138 330
f 1138 523 330
f 875 526 898
f 1139 106 1102
f 106 108 1102
f 1135 1049 553
f 869 1135 592
f 1140 516 515
f 515 514 177
f 656 998 657
f 7 380 1141
f 795 439 771
f 439 402 771
f 439 137 136
f 1142 1051 1134
f 1134 1051 1133
f 783 1144 1143
f 1127 221 476
f 481 795 228
f 406 800 1065
f 409 577 400
f 400 577 328
f 1146 70 342
f 528 130 129
f 1147 698 699
f 711 732 1148
f 327 1150 1073
f 1115 996 1151
f 1139 1102 342
f 1102 1146 342
f 1053 1152 760
f 191 1153 189
f 1153 191 1001
f 1153 1001 214
f 1153 214 213
f 1153 213 429
f 1047 189 1153
f 1047 1153 429
f 795 363 1133
f 657 1026 382
f 565 1069 264
f 768 1095 1009
f 1104 875 1154
f 875 898 1154
f 192 147 146
f 171 300 585
f 1155 670 849
f 441 373 811
f 310 312 429
f 29 1066 28
f 1156 911 366
f 391 655 392
f 1157 1158 687
f 1103 214 769
f 769 500 569
f 769 214 1001
f 1159 1160 761
f 314 546 128
f 614 754 640
f 930 1161 527
f 191 981 1001
f 1089 245 1088
f 1039 1037 195
f 1162 1163 1164
f 1004 900 1165
f 475 780 1166
f 816 1167 1077
f 1086 73 1168
f 1169 1170 1036
f 1170 1037 1036
f 803 957 956
f 1171 299 725
f 299 298 725
f 453 452 558
f 204 1108 409
f 466 1172 173
f 1173 458 434
f 564 688 565
f 1175 863 1176
f 886 1177 1178
f 1179 1180 270
f 977 979 946
f 566 196 1181
f 244 691 245
f 777 562 563
f 677 1182 1183
f 161 24 652
f 996 994 1064
f 1184 1185 1186
f 1032 326 325
f 546 644 128
f 1187 147 517
f 517 147 192
f 770 1064 1164
f 266 255 253
f 1188 619 226
f 229 230 113
f 1189 598 843
f 716 367 157
f 1114 385 1190
f 760 1152 1191
f 1152 1192 1191
f 711 1012 480
f 996 1064 1063
f 770 387 1063
f 499 498 457
f 498 95 457
f 171 1193 125
f 483 767 1100
f 483 1100 427
f 1194 464 103
f 1194 706 464
f 1194 773 706
f 103 773 1194
f 1195 1175 1079
f 437 499 436
f 43 506 645
f 1196 122 121
f 1197 1198 268
f 571 334 569
f 571 335 334
f 293 292 1199
f 657 998 960
f 711 1148 992
f 71 1146 1102
f 508 1200 533
f 603 1201 644
f 1201 1202 644
f 679 912 1107
f 529 528 1102
f 943 63 225
f 1170 1203 1204
f 1205 994 993
f 1206 1207 1208
f 732 992 1148
f 556 584 554
f 316 1209 315
f 696 1017 897
f 1007 37 36
f 829 1210 1211
f 1212 1213 1214
f 1128 369 306
f 72 302 301
f 1068 701 1009
f 285 78 935
f 135 401 402
f 136 135 402
f 766 137 227
f 137 439 227
f 1215 945 184
f 1216 1109 44
f 210 524 1217
f 487 486 746
f 935 224 285
f 1218 686 325
f 1190 385 770
f 1219 1220 1221
f 1222 1223 1151
f 679 1107 4
f 232 101 100
f 876 147 1187
f 640 1095 614
f 813 678 377
f 348 475 893
f 1009 1176 1224
f 1034 1142 1155
f 795 1133 228
f 1225 647 648
f 1226 1227 1083
f 885 1218 1228
f 1218 1229 1228
f 686 1218 885
f 140 1230 1138
f 1230 523 1138
f 955 177 139
f 148 147 876
f 1231 787 789
f 1232 1169 1233
f 1052 18 1234
f 702 1068 1119
f 231 605 704
f 831 22 420
f 519 340 438
f 356 380 379
f 658 1048 521
f 484 483 427
f 377 678 125
f 544 1236 1235
f 735 1237 425
f 38 783 39
f 984 1238 982
f 544 278 42
f 452 1141 562
f 208 1049 206
f 173 174 920
f 470 1239 445
f 1240 1241 840
f 36 381 1007
f 752 39 21
f 925 928 926
f 978 1242 979
f 1177 350 41
f 208 1050 1049
f 1090 1243 551
f 1243 1244 551
f 551 1050 1090
f 821 609 65
f 1245 1246 1247
f 1229 1218 1072
f 607 325 686
f 554 261 575
f 588 1003 260
f 1003 261 260
f 1011 992 1099
f 1013 841 886
f 300 708 295
f 300 671 708
f 1243 1090 995
f 903 913 86
f 1207 1249 632
f 313 392 655
f 550 655 654
f 408 570 339
f 443 744 373
f 1250 256 1251
f 837 683 1252
f 1014 173 1172
f 1122 8 1254
f 747 719 1255
f 1 1256 601
f 1258 1259 1260
f 1261 1050 208
f 223 751 717
f 1140 1262 516
f 956 804 803
f 1205 993 1261
f 313 696 338
f 1263 894 660
f 957 803 304
f 1210 155 412
f 1263 660 462
f 174 572 920
f 301 303 1264
f 129 1265 71
f 645 506 646
f 589 776 895
f 776 1266 895
f 80 935 78
f 946 1242 1217
f 360 641 978
f 366 1267 542
f 43 45 506
f 602 188 1211
f 339 500 499
f 1268 1269 1270
f 1269 1271 1270
f 768 1084 735
f 802 205 64
f 1009 701 1272
f 700 1272 701
f 641 1273 978
f 782 1200 581
f 580 1274 640
f 1275 790 788
f 1221 617 618
f 213 1277 1276
f 441 810 442
f 862 440 506
f 1278 862 972
f 1219 1221 1247
f 805 1279 538
f 1280 1281 1282
f 999 1284 1283
f 1102 108 529
f 240 612 243
f 243 612 241
f 1285 534 1286
f 11 13 1089
f 909 769 1287
f 1086 1168 838
f 1125 1288 1289
f 814 377 567
f 558 452 562
f 210 1217 411
f 1217 1273 411
f 1290 1129 1222
f 290 1291 288
f 1149 1292 1293
f 7 1141 452
f 1294 169 1145
f 1126 733 916
f 53 1295 663
f 624 623 1296
f 623 772 1296
f 325 1073 1072
f 198 954 821
f 1280 1297 1298
f 1093 1228 215
f 1228 216 215
f 92 1299 91
f 449 1300 378
f 21 1301 247
f 1302 1303 1304
f 1014 531 471
f 1051 230 1133
f 230 228 1133
f 1073 1150 1305
f 454 30 455
f 1306 1307 738
f 1307 739 738
f 1308 912 911
f 1309 1174 1149
f 1161 930 1265
f 176 807 1310
f 746 939 940
f 280 121 122
f 1313 433 410
f 608 607 685
f 1314 1315 1316
f 1315 1193 1316
f 258 908 672
f 151 874 1317
f 257 104 1111
f 1296 772 545
f 1011 1318 1319
f 433 1313 1031
f 313 655 167
f 1 1320 1256
f 616 617 1321
f 731 1322 1021
f 643 712 1323
f 1257 615 614
f 1045 206 869
f 1096 761 776
f 761 1160 776
f 1113 1324 1283
f 410 288 1291
f 1086 12 73
f 1230 1055 523
f 124 625 164
f 305 870 1325
f 721 887 866
f 374 1326 659
f 1245 1247 1327
f 227 481 228
f 1328 1329 747
f 1329 1330 747
f 1209 458 479
f 304 845 870
f 318 525 319
f 1331 947 666
f 838 14 1086
f 1146 71 70
f 645 1109 43
f 954 953 1332
f 565 264 916
f 1140 515 933
f 515 955 933
f 1140 933 698
f 955 139 359
f 933 955 359
f 359 165 933
f 359 882 165
f 588 1333 1334
f 1335 30 274
f 735 613 615
f 92 846 104
f 432 1240 433
f 107 949 891
f 1092 1336 1337
f 713 1092 1337
f 1338 886 1178
f 7 452 366
f 1156 212 911
f 1339 940 941
f 941 794 1339
f 794 793 1339
f 889 153 269
f 356 376 265
f 1340 1341 1258
f 1295 1342 1343
f 736 930 527
f 668 736 875
f 736 527 875
f 427 944 190
f 1344 1345 1270
f 676 1346 1288
f 1033 1032 606
f 1032 607 606
f 617 1221 1220
f 1276 826 311
f 453 558 948
f 1141 380 562
f 1347 1348 1349
f 1274 1121 1095
f 1350 253 255
f 61 224 936
f 1351 935 1352
f 935 1353 1352
f 61 943 224
f 63 943 61
f 412 155 413
f 1345 1354 1234
f 1052 1234 1354
f 590 1002 461
f 461 1002 1355
f 56 624 1002
f 1073 325 327
f 588 797 1333
f 801 64 184
f 1356 1357 440
f 746 1238 745
f 744 1326 373
f 1084 768 1009
f 1330 1329 1347
f 1254 8 1358
f 777 1042 664
f 249 186 188
f 1034 1051 1142
f 537 538 1305
f 1359 1253 1360
f 1072 1218 325
f 1324 1116 1126
f 88 1361 90
f 1006 1008 1362
f 1008 309 1362
f 1363 970 1260
f 970 1258 1260
f 846 1111 104
f 846 1317 1111
f 951 944 1100
f 1123 786 1082
f 707 688 564
f 1364 809 460
f 339 83 408
f 438 1187 519
f 517 519 1187
f 438 436 1187
f 876 1187 436
f 1365 1053 1354
f 1052 1354 1053
f 895 492 15
f 314 1366 490
f 102 1367 1368
f 411 642 141
f 1066 1067 1169
f 8 430 1369
f 431 1369 430
f 1370 764 460
f 637 1237 735
f 1294 1145 929
f 308 581 508
f 533 1200 1189
f 1351 936 935
f 957 304 256
f 1238 940 982
f 940 1339 982
f 1371 864 642
f 437 438 340
f 1372 1373 1297
f 1373 1374 1297
f 1307 1078 1009
f 1375 1376 1377
f 1376 1031 1377
f 1378 529 107
f 529 108 107
f 782 1189 1200
f 782 582 598
f 1379 444 840
f 1276 429 213
f 825 311 826
f 825 639 194
f 1155 1142 670
f 1134 365 2
f 2 1142 1134
f 670 1142 2
f 848 998 656
f 419 1380 375
f 1381 1215 184
f 140 1382 1315
f 1382 1193 1315
f 1136 602 1270
f 238 317 488
f 1374 1245 1327
f 1360 141 642
f 1383 1384 1044
f 1385 1386 770
f 1387 169 1294
f 1018 929 311
f 1388 1018 1387
f 1388 1294 929
f 309 308 1362
f 179 1378 891
f 1378 107 891
f 404 949 520
f 107 520 949
f 755 792 949
f 792 891 949
f 1389 419 375
f 1390 343 839
f 1379 1158 1027
f 964 881 746
f 488 717 716
f 157 233 716
f 353 1198 1197
f 884 1093 1251
f 884 1251 256
f 315 1004 1165
f 1189 782 598
f 654 761 1096
f 1391 1088 691
f 1088 245 691
f 1287 1001 181
f 1392 1082 212
f 308 717 751
f 717 308 367
f 734 1008 773
f 717 488 223
f 508 581 1200
f 1214 1393 361
f 1394 1128 522
f 1175 1176 1009
f 774 776 1159
f 776 1160 1159
f 55 1029 666
f 28 1066 1232
f 1066 1169 1232
f 1165 1293 1292
f 1211 1210 412
f 3 1000 379
f 379 1000 356
f 1395 1105 1154
f 568 668 1104
f 2 1105 1395
f 371 961 785
f 1087 1396 1329
f 1087 1088 1396
f 1004 1005 900
f 1168 983 1397
f 588 1334 1003
f 1398 964 485
f 964 486 485
f 1399 1309 1293
f 197 1332 953
f 1252 518 517
f 1204 942 195
f 1275 788 1204
f 1204 788 942
f 537 1305 1400
f 442 1401 743
f 658 482 1048
f 482 484 1048
f 805 1062 299
f 1126 1116 733
f 840 1158 1379
f 1402 847 670
f 1403 260 259
f 1100 767 951
f 1100 944 427
f 339 437 340
f 360 978 1214
f 360 1214 361
f 641 360 642
f 360 1371 642
f 362 1371 360
f 1371 362 1248
f 512 574 1404
f 1405 1248 362
f 1248 1405 796
f 865 864 1248
f 1371 1248 864
f 1024 1008 734
f 1024 309 1008
f 157 367 1024
f 561 506 288
f 1227 587 1403
f 587 260 1403
f 789 1406 1407
f 1364 808 809
f 317 779 154
f 351 1085 434
f 776 589 1096
f 589 880 1096
f 877 776 775
f 1050 1261 993
f 687 1408 1085
f 1409 838 58
f 1410 819 1386
f 676 1411 21
f 687 1085 752
f 244 246 691
f 246 867 691
f 257 1412 105
f 660 662 462
f 322 1275 1204
f 1233 1169 1036
f 687 1158 840
f 1400 1413 1352
f 1414 1415 1416
f 1360 642 864
f 1417 1078 1307
f 608 26 606
f 26 906 606
f 83 340 519
f 523 530 541
f 794 1418 833
f 794 941 1418
f 19 18 286
f 854 1186 236
f 1186 1185 236
f 685 522 608
f 522 27 608
f 1217 524 513
f 1293 1165 1399
f 1165 900 1399
f 409 1308 212
f 1419 1298 923
f 922 1420 923
f 1420 1419 923
f 1421 1422 618
f 1422 1221 618
f 1087 1329 72
f 1329 302 72
f 664 559 558
f 664 558 562
f 664 562 777
f 268 1198 779
f 115 459 116
f 750 1377 1423
f 106 1139 914
f 1227 1403 473
f 1424 252 505
f 633 542 786
f 731 1145 168
f 168 732 731
f 1425 676 21
f 834 334 1277
f 745 487 746
f 1083 1427 1226
f 390 843 598
f 1330 1347 747
f 1347 1349 747
f 1428 446 921
f 1049 869 206
f 1429 349 490
f 256 967 956
f 301 1264 896
f 1430 264 1069
f 1256 1043 601
f 825 194 1018
f 1235 278 544
f 1331 666 1029
f 666 947 220
f 1359 272 1253
f 1431 1190 820
f 1128 1394 369
f 1246 1374 1373
f 1313 1291 1377
f 1291 1423 1377
f 512 1404 946
f 576 1334 1432
f 237 236 1185
f 296 730 295
f 1268 1345 1269
f 1345 1234 1269
f 924 923 1421
f 377 814 813
f 668 875 1104
f 742 828 990
f 1009 1224 1427
f 1101 312 1433
f 1274 580 1121
f 1196 1188 122
f 834 1277 213
f 6 689 842
f 1242 1273 1217
f 1417 672 1435
f 1436 748 1423
f 748 750 1423
f 1436 1423 1291
f 1313 1377 1031
f 217 746 881
f 746 486 964
f 1320 1319 1256
f 1101 1433 1145
f 1155 1035 1034
f 169 168 1145
f 1021 1145 731
f 737 1437 738
f 1437 1438 738
f 632 1016 1439
f 931 65 127
f 727 1418 726
f 49 111 1154
f 111 1395 1154
f 1306 738 1412
f 834 213 214
f 936 1440 61
f 1257 614 768
f 1115 1441 995
f 733 545 51
f 1073 1305 1071
f 1305 538 1071
f 1047 429 521
f 154 153 223
f 598 989 828
f 218 990 88
f 990 1361 88
f 153 889 223
f 263 394 944
f 951 263 944
f 1416 139 177
f 842 1414 177
f 1190 1386 819
f 1318 1410 758
f 1190 819 820
f 568 1105 2
f 735 1084 637
f 186 248 187
f 710 426 556
f 426 636 556
f 1397 838 1168
f 1356 862 1357
f 862 1278 1357
f 57 279 1029
f 279 278 1029
f 462 932 461
f 447 1442 19
f 1443 1144 59
f 368 256 304
f 558 559 948
f 1444 1445 725
f 1444 725 939
f 1444 939 746
f 714 737 1446
f 737 902 1446
f 889 1180 989
f 1180 1361 989
f 1361 990 989
f 888 598 223
f 888 989 598
f 269 1180 889
f 269 270 1180
f 456 398 1447
f 917 1292 232
f 253 1056 1448
f 794 1192 133
f 1192 134 133
f 950 1120 580
f 1209 316 458
f 114 116 808
f 756 1450 757
f 1450 1043 757
f 758 757 1318
f 140 1138 625
f 1389 1451 419
f 1091 704 547
f 1452 1453 1441
f 1453 1454 1441
f 349 1455 449
f 916 376 1126
f 294 421 560
f 353 67 1198
f 1103 769 569
f 872 1168 73
f 411 1273 641
f 616 1321 793
f 1110 44 43
f 1125 1289 1456
f 1426 315 1209
f 1209 478 536
f 915 565 916
f 1164 1064 1162
f 937 938 1428
f 1173 477 479
f 1023 673 1253
f 1237 778 426
f 425 1237 426
f 1293 1309 1149
f 1089 1425 245
f 1383 149 1384
f 1246 1245 1374
f 1285 1286 749
f 504 1457 5
f 871 74 1458
f 74 896 1458
f 295 729 254
f 440 1357 1174
f 2 1395 111
f 237 1185 211
f 1185 1459 211
f 211 1459 401
f 401 1459 851
f 851 1459 1460
f 140 1315 1230
f 1247 1246 1373
f 1398 1461 1462
f 1461 1463 1462
f 449 109 349
f 1188 226 122
f 1464 1247 1465
f 1247 1373 1465
f 681 467 1466
f 557 1144 783
f 162 1467 468
f 1467 1059 468
f 196 565 51
f 854 855 1468
f 1154 1105 1104
f 774 1159 1469
f 1159 1249 1469
f 1057 476 530
f 1286 534 1470
f 534 1471 1470
f 685 369 1394
f 1164 1385 770
f 307 367 308
f 1328 302 1329
f 649 936 648
f 649 1472 1440
f 626 986 1473
f 936 649 1440
f 833 1418 727
f 1350 1106 253
f 187 1211 188
f 490 1476 1475
f 1477 1478 784
f 734 1297 1282
f 786 1267 453
f 351 31 30
f 1027 675 1379
f 675 681 1379
f 156 233 157
f 1479 724 1480
f 338 696 115
f 1425 1346 676
f 1481 1240 446
f 1452 1151 1453
f 1151 1223 1453
f 1291 1313 410
f 1144 23 831
f 478 477 1020
f 853 126 1202
f 417 1482 418
f 1266 776 877
f 1266 877 767
f 1393 1213 1333
f 1413 37 648
f 18 1053 286
f 1053 760 286
f 1040 1483 1041
f 53 1483 1040
f 1115 1151 1441
f 757 1043 1256
f 1359 864 863
f 1431 820 1325
f 820 1484 1325
f 979 1242 946
f 544 947 1236
f 1321 1339 793
f 1334 1333 1432
f 1333 1213 1432
f 1485 1397 1220
f 1469 775 774
f 1420 1270 602
f 342 914 1139
f 1014 1172 531
f 1398 485 1461
f 1404 1432 977
f 1214 1213 1393
f 574 576 1404
f 576 1432 1404
f 1345 1344 922
f 1486 815 1475
f 815 1091 1475
f 1080 409 1082
f 758 1410 1385
f 1410 1386 1385
f 1164 763 1385
f 921 1239 920
f 965 1487 1137
f 1487 1488 1137
f 690 1391 691
f 878 1489 1207
f 1450 897 599
f 1490 1259 779
f 215 217 1250
f 565 915 51
f 1027 1158 1157
f 1338 866 886
f 815 1486 1025
f 593 719 594
f 1364 460 1163
f 885 1228 1093
f 149 985 389
f 1144 831 59
f 1210 156 155
f 1162 1064 1491
f 1064 994 1491
f 462 1492 1263
f 1493 1494 868
f 532 509 533
f 1495 663 926
f 663 661 926
f 533 509 508
f 1496 1463 1255
f 726 1418 941
f 126 383 931
f 383 64 65
f 1497 1498 968
f 667 1304 754
f 1304 1303 754
f 530 868 1494
f 1414 1416 177
f 602 1499 188
f 220 772 666
f 1452 1441 1151
f 812 890 894
f 890 660 894
f 1109 645 646
f 959 117 416
f 1112 1500 1116
f 1403 259 584
f 587 1227 1226
f 1501 662 1502
f 872 873 745
f 617 1220 1321
f 1220 1503 1321
f 1419 1504 1298
f 1504 1280 1298
f 1374 1327 1298
f 1327 923 1298
f 132 1421 618
f 1505 24 336
f 1138 164 625
f 1506 1507 767
f 881 1250 217
f 978 1273 1242
f 1321 982 1339
f 746 940 1238
f 1407 1098 991
f 351 753 1085
f 345 1322 346
f 1076 1178 730
f 491 711 16
f 142 694 143
f 140 123 1382
f 1425 1089 1346
f 1491 1261 208
f 1508 220 962
f 388 980 786
f 63 276 225
f 253 267 266
f 192 1252 517
f 837 1252 192
f 644 604 603
f 11 1097 12
f 1087 72 1097
f 12 1097 72
f 1282 157 734
f 400 202 204
f 883 1509 1323
f 1486 1476 378
f 620 1271 1269
f 374 373 1326
f 1510 1511 908
f 1512 646 561
f 866 1178 907
f 1491 1163 1162
f 248 1513 1494
f 1494 1513 541
f 779 1514 1477
f 850 1035 1515
f 813 894 678
f 894 1492 678
f 1516 103 463
f 1516 463 58
f 431 1343 1369
f 1343 1358 1369
f 149 389 150
f 1172 423 532
f 531 1172 532
f 984 1168 745
f 737 739 902
f 1471 534 536
f 659 1326 744
f 1383 1044 985
f 1517 1518 1402
f 1013 720 841
f 1207 1206 1468
f 328 578 610
f 1269 619 620
f 634 1082 1392
f 1478 1514 1341
f 1514 1258 1341
f 897 1450 1370
f 1227 473 1083
f 473 973 1083
f 1071 538 1279
f 918 1509 934
f 1461 1458 1264
f 1458 896 1264
f 453 948 573
f 475 1332 780
f 431 677 1183
f 357 541 358
f 1390 540 343
f 1390 839 358
f 839 451 358
f 1409 1519 838
f 1519 1456 13
f 1519 13 14
f 1519 14 838
f 1520 1519 1409
f 1520 58 1125
f 1125 1456 1520
f 1456 1519 1520
f 1122 54 274
f 560 393 294
f 1247 1221 1327
f 1221 1422 1327
f 1081 980 409
f 980 1082 786
f 692 691 783
f 1329 1396 1391
f 1329 1391 1347
f 1088 1391 1396
f 1343 1342 1358
f 758 1385 756
f 1385 763 756
f 270 90 1179
f 74 72 896
f 1521 399 354
f 497 191 421
f 1209 536 535
f 1033 1522 1523
f 1445 217 1524
f 217 216 1524
f 672 1511 673
f 1346 1456 1289
f 854 1468 1186
f 1316 1193 171
f 1392 1525 634
f 873 485 487
f 834 569 334
f 573 785 453
f 925 890 928
f 1331 1029 947
f 1029 1236 947
f 1118 947 543
f 1361 1179 90
f 816 1077 559
f 1370 765 764
f 1496 1255 1094
f 1255 719 1094
f 550 167 655
f 1323 712 883
f 1347 1526 1348
f 1526 1380 1348
f 690 692 1054
f 1526 690 1054
f 1347 1391 1526
f 1391 690 1526
f 593 595 1094
f 695 144 419
f 1527 1412 258
f 49 1154 898
f 482 988 1506
f 988 1507 1506
f 216 1228 1524
f 715 1302 1304
f 178 1528 179
f 1211 412 602
f 293 1199 110
f 125 1382 123
f 597 1092 713
f 945 185 184
f 789 1407 1231
f 939 725 726
f 1276 1277 826
f 826 1277 334
f 1472 647 1482
f 1210 234 156
f 1268 1270 1345
f 250 121 248
f 663 799 53
f 1484 820 818
f 299 1171 1529
f 556 1530 584
f 832 1191 1192
f 733 1296 545
f 545 772 1508
f 1118 1508 962
f 733 1117 1296
f 624 1296 1117
f 545 1508 543
f 543 1508 1118
f 1102 528 129
f 1531 787 1231
f 194 1531 1018
f 361 1393 362
f 362 1393 1405
f 797 1405 1333
f 1405 1393 1333
f 797 796 1405
f 1280 1504 1281
f 1504 1532 1281
f 1363 1260 102
f 1260 1367 102
f 757 1256 1318
f 1256 1319 1318
f 615 1257 735
f 1481 410 433
f 433 1240 1481
f 1443 1143 1144
f 378 1025 1486
f 1307 1306 1417
f 1533 289 1534
f 78 285 79
f 1046 404 520
f 643 1535 1025
f 829 1211 187
f 927 234 1210
f 927 1210 829
f 149 1383 985
f 303 1255 1264
f 1255 1463 1264
f 756 763 765
f 1017 313 600
f 289 288 440
f 296 1076 730
f 1136 250 249
f 1521 354 219
f 1404 977 946
f 596 1304 667
f 1140 698 1262
f 698 1536 1262
f 1316 171 253
f 1436 290 289
f 1426 1285 1005
f 910 139 1415
f 1365 1421 134
f 1085 1408 434
f 434 1408 432
f 1241 1408 687
f 1080 1081 409
f 504 1480 1457
f 54 1254 1537
f 677 678 1182
f 678 1492 1182
f 250 1136 620
f 1538 1007 382
f 656 659 848
f 1340 630 1341
f 473 1312 395
f 3 1457 999
f 607 1032 325
f 1030 1029 55
f 57 1030 55
f 1537 1358 1342
f 1430 835 264
f 184 852 1381
f 1070 1381 1069
f 1381 1430 1069
f 1430 1381 835
f 44 572 282
f 1373 1372 1465
f 890 661 660
f 1286 1375 749
f 1375 750 749
f 1539 90 270
f 826 334 333
f 272 1023 1253
f 177 514 6
f 1484 818 1540
f 1184 1186 97
f 1283 1126 999
f 300 172 185
f 1302 715 384
f 1174 1309 1534
f 697 696 897
f 1259 1514 779
f 1481 1428 410
f 376 264 265
f 349 1429 348
f 1310 1366 314
f 404 1046 405
f 1045 1046 520
f 1283 1324 1126
f 1311 112 905
f 1280 1282 1297
f 770 1386 1190
f 1181 722 1075
f 681 1466 1379
f 462 1479 635
f 254 585 295
f 1017 696 313
f 652 653 631
f 1434 673 1022
f 422 1006 510
f 1006 1362 510
f 508 510 1362
f 508 1362 308
f 461 1502 1182
f 1058 1541 1059
f 1253 1510 141
f 1165 46 315
f 1005 315 1426
f 835 265 264
f 1338 1178 866
f 895 1266 1507
f 473 1403 1312
f 669 502 670
f 578 980 1542
f 1542 980 388
f 389 1542 388
f 389 987 1542
f 787 193 942
f 1231 1407 170
f 1098 1407 818
f 1407 1406 818
f 785 961 388
f 786 785 388
f 209 785 573
f 209 371 785
f 1012 1011 1320
f 1011 1319 1320
f 480 1012 1320
f 480 1320 1
f 1370 697 897
f 1370 460 459
f 1370 459 697
f 459 809 116
f 1356 440 862
f 1520 1409 58
f 1543 1135 553
f 830 1543 553
f 1372 1297 734
f 659 1415 1414
f 899 749 748
f 305 1325 323
f 1201 603 231
f 431 1183 1343
f 1183 1295 1343
f 1183 1182 1295
f 1182 1502 1295
f 1544 643 919
f 23 1144 557
f 1114 1431 845
f 1431 870 845
f 918 919 1509
f 1493 248 1494
f 1431 1325 870
f 323 1325 1540
f 1325 1484 1540
f 1545 723 462
f 1067 1203 1170
f 639 1039 195
f 195 1170 1204
f 1546 1547 1311
f 841 50 1177
f 1374 1298 1297
f 1143 692 783
f 446 1428 1481
f 840 446 1240
f 1548 58 838
f 1549 1548 838
f 58 1550 1516
f 1548 1550 58
f 1549 1465 1550
f 103 1516 1550
f 1037 1170 195
f 1472 1482 417
f 1492 462 461
f 1182 1492 461
f 809 808 116
f 463 103 464
f 246 1301 21
f 783 867 246
f 1551 1463 1453
f 659 744 850
f 1292 1149 232
f 1001 1287 769
f 67 100 1198
f 100 1368 1198
f 102 1368 100
f 101 1149 1174
f 1198 1368 1552
f 1368 1367 1552
f 1552 1367 1490
f 316 434 458
f 117 959 960
f 965 1137 881
f 665 816 559
f 1437 1299 1438
f 1438 1299 92
f 1284 1113 1283
f 1302 950 580
f 1553 66 1554
f 66 138 1554
f 1168 984 983
f 345 492 159
f 883 1077 1167
f 506 45 252
f 819 1555 817
f 1460 1184 97
f 1184 1460 1459
f 1184 1459 1185
f 233 235 488
f 1428 561 410
f 249 1499 1136
f 1556 448 449
f 1344 1420 922
f 672 908 1511
f 890 926 661
f 1045 520 25
f 161 1557 1558
f 967 1137 956
f 1537 53 54
f 1112 1545 1500
f 1544 934 1167
f 1544 919 918
f 1559 542 1525
f 816 665 1042
f 816 815 1025
f 1544 1535 643
f 1025 1535 816
f 1285 1560 534
f 1561 958 63
f 1397 1503 1220
f 749 900 1285
f 900 1005 1285
f 624 1117 1355
f 1263 1492 894
f 1207 1489 1469
f 1556 703 448
f 732 170 991
f 170 1407 991
f 787 942 788
f 170 169 1231
f 169 1387 1231
f 513 946 1217
f 1531 1231 1018
f 1231 1387 1018
f 1491 208 1364
f 1424 251 252
f 1490 1260 1259
f 93 292 94
f 802 184 185
f 245 1425 247
f 1562 21 39
f 321 1060 451
f 1551 1462 1463
f 1475 314 490
f 247 1301 246
f 23 22 831
f 1563 470 173
f 764 763 1164
f 1046 869 592
f 1046 592 1564
f 1376 1375 1470
f 816 1535 1544
f 1440 1472 62
f 433 477 1173
f 663 1295 662
f 1295 1502 662
f 748 1399 900
f 1533 748 289
f 748 1436 289
f 973 474 637
f 778 1237 637
f 973 637 1084
f 206 243 207
f 1565 1474 905
f 1536 1147 1522
f 1147 1523 1522
f 1467 331 1060
f 331 451 1060
f 899 748 900
f 1323 1509 643
f 895 1566 492
f 685 607 686
f 963 494 1215
f 494 945 1215
f 1381 1070 1215
f 847 849 670
f 893 219 354
f 1394 522 685
f 1033 606 906
f 798 1427 1224
f 1504 1419 1420
f 483 482 1506
f 483 1506 767
f 1567 413 157
f 1567 412 413
f 1398 1462 964
f 1441 1568 1243
f 1568 595 1243
f 1234 18 1269
f 18 20 1269
f 619 1442 447
f 101 232 1149
f 1569 714 1119
f 714 1446 1119
f 1196 620 619
f 250 1196 121
f 1196 619 1188
f 1271 1136 1270
f 1271 620 1136
f 807 609 475
f 1495 800 799
f 254 1197 268
f 1570 471 531
f 662 932 462
f 997 1518 1474
f 1544 918 934
f 491 344 711
f 1344 1270 1420
f 1400 1571 1413
f 731 346 1322
f 258 1412 257
f 112 1311 501
f 1167 1509 883
f 836 231 265
f 832 1192 794
f 132 134 1421
f 1314 1316 1448
f 1572 322 1204
f 1573 295 708
f 619 1269 20
f 799 663 1495
f 1195 272 1175
f 827 551 1244
f 406 861 800
f 357 523 541
f 964 1487 965
f 1544 1167 816
f 1453 1223 1462
f 1463 1461 1264
f 1463 1496 1453
f 669 2 502
f 852 835 1381
f 906 28 1574
f 1258 1514 1259
f 194 193 1531
f 193 787 1531
f 1372 734 103
f 103 1575 1372
f 1575 1550 1372
f 1550 1465 1372
f 103 1550 1575
f 921 445 1239
f 713 1337 714
f 158 270 269
f 1445 1444 217
f 746 217 1444
f 960 997 1474
f 628 1340 1258
f 970 628 1258
f 1112 1116 1113
f 1116 1324 1113
f 159 1021 1322
f 740 44 283
f 1576 1532 1504
f 462 724 1479
f 1031 1376 586
f 1336 714 1337
f 41 730 1177
f 730 1178 1177
f 1428 938 561
f 1389 860 861
f 21 247 1425
f 232 100 67
f 1564 592 591
f 1380 1054 375
f 1213 977 1432
f 425 614 613
f 913 47 86
f 913 416 47
f 1403 584 1312
f 892 407 82
f 1253 1511 1510
f 908 1111 1577
f 1111 1317 1577
f 639 435 1039
f 892 1039 435
f 1074 1041 1483
f 492 1566 159
f 783 38 557
f 1434 1022 272
f 1205 1261 1491
f 475 1578 807
f 1579 1429 1578
f 91 1299 1044
f 1504 1580 1576
f 1420 1580 1504
f 1576 1580 602
f 602 1580 1420
f 412 1576 602
f 412 1532 1576
f 1567 1532 412
f 1567 1281 1532
f 1567 157 1281
f 197 4 1107
f 3 5 1457
f 366 453 1267
f 420 1335 54
f 1322 345 159
f 476 1057 1581
f 530 523 1055
f 1181 1075 566
f 1573 296 295
f 20 19 1442
f 20 1442 619
f 1582 646 1512
f 895 1507 1566
f 1110 1216 44
f 1129 1131 1222
f 997 847 1518
f 847 1402 1518
f 609 821 954
f 31 351 316
f 351 434 316
f 1241 432 1408
f 966 659 656
f 249 188 1499
f 1235 1029 278
f 1559 1525 366
f 1429 1579 348
f 1487 1222 1488
f 457 1583 436
f 1084 1083 973
f 158 269 153
f 929 1018 1388
f 1164 1163 460
f 1212 978 977
f 1202 128 644
f 1156 1525 212
f 556 636 1530
f 246 39 783
f 455 9 8
f 117 1474 1565
f 1209 535 1426
f 1071 806 1529
f 844 130 1528
f 130 529 1528
f 1122 273 8
f 561 938 1512
f 715 596 201
f 1136 1499 602
f 780 1332 197
f 460 764 1164
f 850 1515 849
f 975 1127 476
f 41 352 730
f 1426 1560 1285
f 534 1560 535
f 1560 1426 535
f 420 30 1335
f 459 115 696
f 1284 999 1457
f 720 722 196
f 1061 1075 721
f 1075 722 721
f 1229 1072 1529
f 1072 1071 1529
f 1003 1334 575
f 1334 576 575
f 1345 922 1354
f 922 924 1354
f 1365 1354 1421
f 1354 924 1421
f 1093 215 1251
f 215 1250 1251
f 767 1507 1266
f 1376 1470 586
f 1470 1020 586
f 1471 536 478
f 1471 1020 1470
f 587 1226 1427
f 631 653 859
f 892 1038 1039
f 272 1195 1434
f 790 1584 1540
f 790 1275 1584
f 323 1540 1584
f 996 1290 1151
f 1290 1222 1151
f 984 745 1238
f 1547 502 501
f 1585 1061 907
f 442 638 1401
f 823 1586 824
f 1539 270 968
f 779 1477 784
f 387 1129 1063
f 1129 1290 1063
f 378 490 109
f 1230 1314 1055
f 1314 1056 1055
f 1020 1471 478
f 1130 387 956
f 387 804 956
f 1201 836 1202
f 231 836 1201
f 836 835 1202
f 835 853 1202
f 798 1224 796
f 1224 1176 796
f 865 1176 863
f 469 1466 467
f 1587 1304 596
f 1536 698 1147
f 93 95 292
f 1067 1170 1169
f 1038 82 1588
f 82 81 1588
f 682 974 1233
f 974 1232 1233
f 1233 1036 1588
f 974 28 1232
f 1588 1036 1038
f 1472 417 62
f 62 61 1440
f 647 1472 649
f 469 444 1466
f 444 1379 1466
f 963 1215 1070
f 219 893 475
f 282 283 44
f 800 926 928
f 1250 881 256
f 1552 779 1198
f 1552 1490 779
f 1585 1075 1061
f 513 883 712
f 1192 1152 134
f 1365 134 1053
f 134 1152 1053
f 1434 1079 673
f 956 1137 1132
f 1573 1585 296
f 1585 907 296
f 708 564 1573
f 564 1075 1573
f 1075 1585 1573
f 19 286 287
f 242 207 243
f 790 1540 789
f 1540 1406 789
f 1406 1540 818
f 1129 387 1130
f 1179 1361 1180
f 599 897 1017
f 117 960 1474
f 1493 868 187
f 1495 926 800
f 378 1476 490
f 352 729 730
f 907 1178 1076
f 324 323 1584
f 125 1193 1382
f 205 125 172
f 131 130 844
f 968 1498 1539
f 1589 858 653
f 454 273 30
f 822 858 823
f 715 1120 384
f 178 812 1528
f 812 844 1528
f 812 814 844
f 529 1378 1528
f 179 1528 1378
f 633 1525 542
f 501 2 112
f 1112 723 1545
f 692 1590 1054
f 242 338 115
f 737 714 1437
f 597 329 611
f 366 1525 1156
f 634 1525 633
f 1547 501 1311
f 1534 440 1174
f 640 1303 1302
f 1109 1216 1110
f 1067 1553 1203
f 1553 1572 1203
f 1351 648 936
f 355 426 710
f 1302 384 950
f 1587 596 715
f 1046 1564 405
f 1416 1415 139
f 966 1415 659
f 584 1530 1312
f 1591 44 1109
f 871 872 74
f 436 1583 876
f 673 1511 1253
f 1243 995 1441
f 702 1119 1446
f 1314 1448 1056
f 1501 1502 461
f 1369 1358 8
f 796 1176 865
f 796 865 1248
f 721 866 907
f 721 720 887
f 1173 479 458
f 181 981 497
f 1592 1451 861
f 859 632 631
f 1175 272 863
f 987 627 610
f 1538 37 1007
f 1584 1275 322
f 324 1584 322
f 1122 1254 54
f 1557 652 631
f 1563 1239 470
f 1563 173 920
f 643 1509 919
f 729 1197 254
f 1556 449 1455
f 348 1455 349
f 872 745 1168
f 873 487 745
f 326 1033 1523
f 1147 699 1523
f 699 326 1523
f 1360 864 1359
f 1559 366 542
f 876 1447 398
f 505 472 1424
f 633 786 634
f 653 24 1586
f 806 1071 1279
f 1581 1106 1350
f 972 970 1593
f 1278 972 1357
f 972 1593 1357
f 1363 1357 970
f 1357 1593 970
f 1225 1482 647
f 250 620 1196
f 805 538 79
f 28 974 1574
f 352 353 729
f 353 1197 729
f 284 760 759
f 759 297 1062
f 297 299 1062
f 624 1355 1002
f 476 1350 975
f 609 1332 475
f 954 1332 609
f 920 1594 938
f 384 1120 950
f 1384 91 1044
f 806 299 1529
f 1595 1536 1522
f 120 165 882
f 1346 1289 1288
f 1533 1399 748
f 1172 466 423
f 1336 1437 714
f 768 735 1257
f 160 1101 1021
f 1433 312 929
f 312 160 428
f 310 429 1276
f 1433 929 1145
f 312 428 429
f 1582 1109 646
f 440 1534 289
f 530 1494 541
f 207 808 208
f 242 115 207
f 115 114 207
f 832 727 1191
f 1177 886 841
f 1572 1204 1203
f 322 1572 1554
f 239 1045 25
f 1173 434 433
f 415 862 489
f 1358 1537 1254
f 50 350 1177
f 1015 1159 762
f 1596 418 1482
f 1537 1295 53
f 1458 485 871
f 1448 1316 253
f 1205 1491 994
f 1163 1491 1364
f 1526 1054 1380
f 1349 1348 1380
f 1476 1486 1475
f 159 988 658
f 1175 1009 1079
f 960 418 1026
f 975 1350 255
f 1581 1350 476
f 310 1276 311
f 1460 97 851
f 1401 638 549
f 743 1401 850
f 1401 1035 850
f 720 196 841
f 238 488 235
f 1225 648 37
f 1161 1265 129
f 861 1451 1389
f 303 747 1255
f 212 1525 1392
f 541 1513 280
f 718 516 1262
f 1033 906 1522
f 906 1574 1522
f 964 1462 1487
f 159 1566 988
f 1055 1057 530
f 1370 756 765
f 1060 1059 1467
f 1060 321 1058
f 321 319 1058
f 1467 162 331
f 372 811 373
f 465 1288 1125
f 676 1288 465
f 910 1415 966
f 700 1446 902
f 713 715 201
f 700 702 1446
f 1561 85 958
f 1561 63 62
f 1561 86 85
f 1537 1342 1295
f 1487 1462 1222
f 1462 1223 1222
f 1290 996 1063
f 1597 110 181
f 198 635 1480
f 259 261 584
f 1079 1434 1195
f 141 1360 1253
f 73 74 872
f 158 784 1449
f 1449 968 158
f 937 1428 921
f 938 921 920
f 118 1592 861
f 1592 1598 830
f 1598 1543 830
f 419 1451 1592
f 419 1592 830
f 727 650 1191
f 650 760 1191
f 759 1062 284
f 35 1599 1413
f 37 1413 1599
f 1600 1498 1497
f 1355 1117 1500
f 1117 1116 1500
f 1473 1299 1092
f 1299 1437 1092
f 152 784 158
f 1123 634 786
f 344 492 345
f 934 1509 1167
f 861 406 118
f 1068 1009 1095
f 1127 975 238
f 1521 705 399
f 274 54 1335
f 1346 1089 1456
f 1089 13 1456
f 1478 1497 1449
f 1477 1514 1478
f 1130 956 1132
f 1092 1437 1336
f 231 603 605
f 605 547 704
f 1600 1497 1341
f 784 1478 1449
f 1449 1497 968
f 1341 1497 1478
f 154 779 152
f 1517 502 1546
f 657 960 1026
f 1222 1131 1488
f 1132 1137 1131
f 1137 1488 1131
f 1422 1421 923
f 743 850 744
f 850 848 659
f 1041 1590 59
f 692 1601 1590
f 1590 1601 59
f 59 1601 1443
f 1143 1443 1601
f 1143 1601 692
f 1114 1190 1431
f 778 637 636
f 66 1553 1067
f 328 610 329
f 876 1583 1447
f 456 1447 457
f 1447 1583 457
f 673 1023 1022
f 1308 911 212
f 1019 1455 354
f 354 1455 348
f 1556 1455 703
f 1455 1019 703
f 988 1566 1507
f 1413 1571 35
f 1571 327 35
f 1599 35 37
f 1569 1120 715
f 1209 479 478
f 1533 1534 1399
f 1534 1309 1399
f 1515 1035 1155
f 1458 1461 485
f 307 1024 367
f 418 1596 1026
f 1439 1558 632
f 1120 1121 580
f 1119 1120 1569
f 715 714 1569
f 771 450 568
f 912 1308 1107
f 1308 1108 1107
f 197 1108 204
f 1587 715 1304
f 286 760 284
f 238 221 1127
f 1235 1236 1029
f 1450 1124 1043
f 335 570 408
f 725 1445 1171
f 1228 1229 1524
f 1524 1229 1529
f 687 840 1241
f 1241 1240 432
f 1597 181 294
f 579 293 347
f 347 294 766
f 766 579 347
f 1479 1480 635
f 1522 1574 1595
f 684 1595 974
f 1595 1574 974
f 1262 1536 1595
f 684 718 1595
f 718 1262 1595
f 327 1571 1150
f 1400 1305 1571
f 1305 1150 1571
f 80 537 1353
f 537 1400 1353
f 80 1353 935
f 1578 475 348
f 1370 1450 756
f 1001 981 181
f 587 1427 798
f 781 780 197
f 204 781 197
f 204 203 781
f 547 1602 1091
f 1588 81 1603
f 81 518 1603
f 1233 1588 1603
f 518 1252 1603
f 682 1233 683
f 1233 1603 683
f 683 1603 1252
f 1562 39 246
f 1582 1512 1604
f 336 1558 1439
f 1364 208 808
f 1578 348 1579
f 96 137 1605
f 766 1605 137
f 1605 766 294
f 96 1605 294
f 1044 1473 986
f 1388 1387 1294
f 595 1244 1243
f 827 1244 594
f 1244 595 594
f 827 694 693
f 1606 1094 1568
f 1441 1454 1568
f 1606 1453 1094
f 1453 1496 1094
f 595 1568 1094
f 1291 290 1436
f 1538 1596 37
f 382 1596 1538
f 1225 37 1482
f 1596 1482 37
f 382 1026 1596
f 1000 999 1126
f 1212 977 1213
f 86 1561 903
f 62 903 1561
f 986 626 627
f 986 985 1044
f 838 1397 1485
f 1397 983 1503
f 1321 1503 982
f 1503 983 982
f 1549 1464 1465
f 838 1485 1549
f 859 1208 632
f 1468 1206 858
f 97 1186 1468
f 1015 762 1016
f 762 32 1016
f 97 1468 858
f 1457 1480 1284
f 1480 724 1284
f 1590 1041 1607
f 145 1380 144
f 1607 375 1054
f 1349 1380 747
f 1380 145 747
f 143 747 145
f 1389 1607 860
f 375 1607 1389
f 860 1607 1041
f 1607 1054 1590
f 1562 246 21
f 511 1300 449
f 1300 712 378
f 511 712 1300
f 1166 203 219
f 1212 1214 978
f 635 1608 674
f 635 821 1608
f 1582 1604 1109
f 1604 1591 1109
f 1591 1604 44
f 938 1594 1512
f 920 1604 1594
f 1604 920 572
f 1604 572 44
f 1604 1512 1594
f 1202 126 128
f 203 1166 780
f 475 1166 219
f 675 1028 676
f 1028 1411 676
f 1028 1027 1411
f 1027 1157 1411
f 21 1411 752
f 1411 1157 687
f 752 1411 687
f 449 378 109
f 277 1292 278
f 1292 917 278
f 917 40 278
f 277 57 1292
f 57 1609 1292
f 1609 57 271
f 46 1165 1292
f 1292 1609 46
f 1609 271 9
f 1609 9 46
f 1010 728 98
f 1610 824 25
f 622 1610 25
f 1010 1610 622
f 822 98 858
f 1010 98 1610
f 98 822 1610
f 1199 95 110
f 805 806 1279
f 640 1302 580
f 1095 640 1274
f 1303 640 754
f 1056 1106 1057
f 1106 1581 1057
f 1611 573 559
f 1306 1412 1417
f 1412 1527 1417
f 1417 1527 258
f 672 1417 258
f 1078 1417 1435
f 1078 1435 1079
f 1079 1435 673
f 673 1435 672
f 1009 1272 901
f 901 1307 1009
f 700 901 1272
f 901 902 1307
f 902 739 1307
f 409 1108 1308
f 761 762 1159
f 312 311 929
f 1145 1021 1101
f 648 1352 1413
f 1353 1400 1352
f 662 1501 461
f 322 1554 138
f 419 144 1380
f 488 716 233
f 1230 1315 1314
f 300 171 172
f 172 171 125
f 172 205 185
f 172 125 205
f 185 1612 802
f 802 1612 205
f 205 1612 185
f 1359 863 272
f 1551 1453 1462
f 1208 858 1206
f 1260 1490 1367
f 157 1282 1281
f 1554 1572 1553
f 83 82 407
f 1564 591 405
f 69 503 851
f 1340 628 630
f 1009 1427 1613
f 1613 1083 1009
f 1083 1613 1427
f 1577 874 141
f 874 1577 1317
f 1577 1510 908
f 141 1510 1577
f 597 713 201
f 750 1375 1377
f 1563 920 1239
f 1424 1570 251
f 471 1570 1424
f 1424 472 471
f 1614 390 251
f 1614 531 843
f 1614 843 390
f 1614 1570 531
f 251 1570 1614
f 505 44 472
f 1310 314 128
f 1602 547 314
f 1310 807 1366
f 807 1578 1366
f 1091 1602 1475
f 128 176 1310
f 71 1265 930
f 1549 1550 1548
f 1207 1469 1249
f 1208 859 857
f 858 1208 857
f 1606 1568 1453
f 1568 1454 1453
f 461 1545 462
f 498 909 110
f 347 1597 294
f 110 1597 347
f 578 1542 610
f 987 610 1542
f 1044 1299 1473
f 105 1438 92
f 738 105 1412
f 738 1438 105
f 1318 1555 1410
f 1555 819 1410
f 1099 817 1011
f 817 1555 1011
f 1318 1011 1555
f 1098 818 817
f 1099 1098 817
f 591 118 405
f 1521 219 202
f 878 1207 855
f 1207 1468 855
f 344 346 711
f 711 346 731
f 1220 1219 1247
f 1401 549 1035
f 1493 187 248
f 121 1513 248
f 280 1513 121
f 560 191 190
f 117 1565 112
f 808 207 114
f 1414 842 374
f 842 177 6
f 359 910 966
f 1414 374 659
f 656 709 966
f 1615 1174 1357
f 1363 102 1357
f 102 1615 1357
f 101 1615 102
f 1174 1615 101
f 1611 559 883
f 1611 524 209
f 1611 209 573
f 1611 513 524
f 1611 883 513
f 1286 1470 1375
f 847 998 848
f 468 1059 567
f 567 1059 129
f 1059 1541 129
f 129 1541 1161
f 1161 1541 527
f 1058 525 1541
f 525 527 1541
f 319 525 1058
f 909 1287 181
f 1521 202 705
f 632 1208 1207
f 1500 461 1355
f 1500 1545 461
f 65 674 1608
f 1608 821 65
f 1489 775 1469
f 878 879 775
f 775 1489 878
f 1422 923 1327
f 1366 1429 490
f 314 1475 1602
f 1429 1366 1578
f 1124 1450 599
f 1589 823 858
f 307 309 1024
f 91 1384 846
f 986 627 389
f 1317 846 1384
f 151 1317 149
f 1317 1384 149
f 630 87 1341
f 87 1600 1341
f 87 89 1600
f 89 1498 1600
f 89 1539 1498
f 1539 89 90
f 542 1267 786
f 1616 799 800
f 1074 1483 53
f 1074 53 799
f 1074 1616 860
f 799 1616 1074
f 1616 861 860
f 1616 800 861
f 1549 1485 1464
f 1485 1220 1464
f 1530 636 395
f 1312 1530 395
f 118 1598 1592
f 592 1598 118
f 1135 1543 1598
f 592 1135 1598
f 32 1439 1016
f 631 1558 1557
f 336 1439 32
f 1617 622 520
f 1473 1092 626
f 24 1505 240
f 1558 336 161
f 117 47 416
f 1558 631 632
f 1557 161 652
f 1390 358 540
f 1464 1220 1247
f 1474 1518 905
f 905 1518 1517
f 998 847 997
f 1480 504 198
f 502 1402 670
f 182 10 590
f 1113 1284 724
f 241 240 336
f 336 24 161
f 1589 1586 823
f 240 1505 336
f 502 1517 1402
f 1547 1546 502
f 1311 905 1546
f 1517 1546 905
f 1565 905 112
f 1589 653 1586
f 1586 24 824
f 822 824 1610
f 1249 1159 1015
f 1015 632 1249
f 1199 292 95
f 1181 196 722
f 849 1515 1155
f 1328 747 302
f 747 303 302
f 1351 1352 648
f 914 342 728
f 533 1189 843
f 1617 520 370
f 327 698 35
f 1529 1171 1524
f 1171 1445 1524
f 1617 370 622
f 1508 772 220
f 909 181 110
