v -0.107961 -0.368533 -0.012401
v -0.101066 -0.399317 0.012658
v -0.089458 -0.399560 -0.013672
v 0.000000 -0.196676 0.058995
v 0.023042 -0.200782 0.036728
v -0.052110 0.449319 0.054924
v -0.071445 0.428319 0.115732
v -0.042563 0.442082 0.118231
v -0.070625 0.245116 -0.059936
v -0.064166 0.272556 -0.095579
v 0.127434 0.308379 0.093946
v 0.131203 0.335096 0.061712
v 0.128870 0.329771 0.097833
v 0.000016 0.251173 -0.120421
v 0.030315 0.254407 -0.120480
v -0.124455 -0.370072 0.066785
v -0.105842 -0.398930 0.025223
v -0.116008 -0.389809 0.072597
v 0.078622 0.425053 -0.002196
v 0.097688 0.398149 -0.008590
v 0.091298 0.401249 -0.019022
v -0.064057 -0.055125 -0.122028
v -0.049445 -0.028836 -0.080010
v -0.064400 -0.010658 -0.123465
v 0.083327 -0.225573 0.073187
v 0.070625 0.245633 -0.059928
v 0.063679 0.246257 -0.100119
v 0.064166 0.273645 -0.095519
v 0.020815 0.387213 -0.081460
v -0.000001 0.399967 -0.075866
v 0.037326 0.393282 -0.078437
v -0.076847 0.396831 0.135798
v -0.084026 0.405634 0.132822
v 0.103813 0.399355 0.110471
v 0.110727 0.398842 0.088764
v 0.090513 0.422690 0.086123
v 0.043888 -0.212624 0.079321
v 0.065239 -0.221806 0.082381
v -0.086751 0.234505 0.080529
v -0.076815 0.227432 0.037762
v -0.059459 0.216432 0.077247
v 0.069553 -0.251204 -0.064076
v 0.000000 -0.292585 0.110290
v -0.056693 -0.289293 0.110393
v -0.035022 -0.325526 0.117736
v -0.130798 -0.316573 0.052715
v -0.129715 -0.344743 0.059548
v -0.048756 -0.029238 -0.079367
v -0.048398 -0.028471 -0.078966
v -0.048948 -0.028509 -0.079491
v -0.000001 0.201948 0.076370
v -0.027643 0.205200 0.075207
v -0.064355 0.088677 -0.118636
v 0.112087 0.345815 -0.012518
v 0.107961 -0.368533 -0.012401
v 0.091024 -0.405672 -0.002133
v 0.089373 -0.377238 -0.038729
v 0.079392 0.295622 0.105869
v 0.115245 0.309598 0.108370
v 0.108343 0.326899 0.118471
v -0.042888 0.357211 -0.091438
v -0.041280 0.317046 -0.099917
v -0.065139 0.328057 -0.086338
v 0.129107 0.338246 0.040109
v 0.125759 0.305114 0.038121
v 0.120597 0.342031 0.013796
v 0.000000 -0.324514 0.120865
v 0.085748 0.338261 0.118301
v 0.078705 0.358959 0.124336
v -0.034262 0.330286 0.095018
v -0.045307 0.290344 0.094748
v -0.038221 0.298553 0.093041
v -0.127434 0.308379 0.093946
v -0.131203 0.335096 0.061712
v -0.125759 0.305114 0.037974
v 0.042973 0.087020 -0.139086
v 0.042375 0.087524 -0.139175
v 0.043096 0.087832 -0.138916
v -0.086275 0.249264 0.099133
v 0.092547 0.246461 0.092274
v 0.100750 0.264956 0.096634
v 0.086275 0.251752 0.098787
v 0.065139 0.328420 -0.086319
v -0.074738 -0.244029 -0.030032
v -0.108343 0.326899 0.118471
v 0.000000 -0.443469 -0.001880
v 0.000000 -0.456450 0.040882
v 0.115411 0.392010 0.045093
v 0.074099 0.241085 0.093005
v 0.049159 0.211741 0.076394
v 0.078395 0.228016 0.079350
v 0.119503 0.372234 0.105545
v 0.070045 -0.326539 0.114606
v 0.049405 -0.287405 0.108932
v 0.035022 -0.325526 0.117736
v 0.059741 -0.406766 0.144038
v -0.000001 0.135009 -0.053592
v -0.042947 0.115126 -0.059668
v -0.000001 0.090643 -0.053959
v -0.038612 0.395662 0.135038
v 0.064085 0.387418 -0.072172
v 0.123687 -0.328310 0.109251
v 0.127215 -0.331193 0.100530
v 0.000000 -0.220463 -0.127890
v -0.123380 -0.355233 0.027826
v 0.045354 -0.206503 0.036924
v 0.022663 -0.207392 0.077576
v 0.088925 0.415348 0.113376
v 0.084026 0.405634 0.132822
v 0.103727 0.410879 0.047474
v 0.034505 0.198929 -0.128884
v 0.000008 0.196342 -0.129645
v 0.000012 0.223757 -0.125033
v -0.051957 -0.445548 0.091154
v -0.072900 -0.419717 0.124641
v -0.088992 -0.423297 0.083266
v 0.124455 -0.370072 0.066785
v -0.128870 0.329771 0.097833
v -0.090513 0.422690 0.086123
v -0.070850 0.440401 0.052685
v -0.088610 0.427272 0.050214
v -0.026636 0.248442 -0.119065
v 0.000012 0.277678 -0.113146
v 0.000000 -0.083116 -0.053597
v 0.038678 -0.090051 -0.066594
v 0.038802 -0.104939 -0.064606
v 0.064652 0.301032 -0.090919
v -0.075325 -0.435424 0.053725
v -0.076305 -0.425748 0.013901
v 0.021956 0.457289 0.058197
v -0.000001 0.457956 0.090818
v 0.116008 -0.389809 0.072597
v 0.104241 -0.407888 0.078212
v -0.103766 -0.362044 0.129131
v -0.070045 -0.326539 0.114606
v -0.115337 -0.325735 0.117027
v 0.045190 -0.282039 0.107546
v -0.058156 0.006974 -0.094585
v 0.000000 -0.354338 0.127643
v 0.024364 0.248573 0.092151
v 0.103766 -0.362044 0.129131
v -0.084612 0.245249 0.008179
v -0.044669 -0.352792 -0.093015
v -0.054405 -0.390656 -0.079307
v -0.069805 -0.342893 -0.078922
v 0.063534 -0.287326 0.108884
v 0.065625 0.355808 -0.081718
v 0.080661 0.352862 -0.061317
v -0.041220 -0.164995 -0.053243
v -0.059243 -0.165014 -0.063043
v 0.114327 0.346112 0.114857
v 0.085107 -0.229677 0.038056
v 0.066346 -0.216312 0.037387
v -0.107929 -0.254949 0.040367
v -0.036698 -0.438367 -0.005701
v -0.046570 -0.428777 -0.027755
v 0.063714 -0.099592 -0.120591
v 0.055159 -0.103615 -0.079683
v 0.055831 -0.089497 -0.084145
v -0.029998 0.273377 0.090996
v -0.029752 0.272880 0.090963
v -0.000001 0.289487 0.083927
v 0.000003 0.330690 -0.098598
v 0.000008 0.304184 -0.105872
v -0.123687 -0.328310 0.109251
v -0.116919 -0.300315 0.108553
v 0.110114 0.391149 0.017135
v 0.083616 0.426164 0.023901
v -0.085528 0.327310 0.115109
v 0.035323 0.187216 -0.130524
v 0.031513 0.141235 -0.138189
v 0.000003 0.168927 -0.134257
v -0.103727 0.410875 0.047719
v -0.000001 0.064150 -0.145920
v 0.036281 0.040041 -0.142598
v 0.027244 -0.154012 -0.137869
v 0.032117 -0.176860 -0.135188
v 0.000000 -0.138841 -0.140338
v 0.017496 0.213307 0.085194
v -0.000001 0.225190 0.095810
v -0.064085 0.387418 -0.072172
v -0.065625 0.355808 -0.081718
v -0.080661 0.352862 -0.061317
v 0.000000 -0.185203 -0.042616
v 0.000000 -0.164439 -0.050670
v -0.118765 -0.319821 0.006010
v 0.123498 -0.284579 0.045483
v 0.107929 -0.254949 0.040367
v 0.112301 -0.276264 0.100535
v 0.041683 0.183540 -0.129625
v 0.037532 0.192093 -0.129173
v -0.021956 0.457290 0.058052
v 0.034410 0.230986 -0.124320
v -0.095580 -0.301353 -0.036961
v -0.096505 -0.304160 -0.036208
v -0.097730 -0.299030 -0.031397
v -0.000001 0.267217 0.085818
v -0.000001 0.246081 0.091738
v 0.037227 0.419006 -0.050787
v 0.042907 0.410859 -0.060373
v 0.037137 0.412759 -0.059719
v -0.051074 0.136188 -0.057987
v -0.048556 0.109941 -0.062908
v -0.040657 0.136249 -0.055537
v -0.105965 -0.397546 0.023280
v 0.062038 0.404321 -0.059511
v 0.038294 0.408556 -0.064774
v -0.064169 0.164960 -0.112216
v -0.061054 0.139585 -0.126585
v -0.064332 0.138345 -0.116222
v 0.059243 -0.165014 -0.063043
v 0.048787 -0.137301 -0.065220
v 0.041220 -0.164995 -0.053243
v -0.041789 -0.104466 -0.139720
v -0.033911 -0.125760 -0.140320
v -0.042944 -0.125876 -0.138043
v -0.071307 -0.428787 0.011283
v -0.068566 -0.425875 -0.001399
v -0.127215 -0.331193 0.100530
v -0.059934 0.135855 -0.064326
v -0.067607 0.135210 -0.084149
v 0.042563 0.442082 0.118231
v -0.000001 0.448437 0.119385
v 0.118663 0.278380 0.088498
v 0.118879 0.282961 0.037217
v -0.029922 -0.432934 -0.024230
v 0.000000 -0.430488 -0.044641
v 0.042531 -0.221214 -0.125150
v 0.053241 -0.176064 -0.131413
v -0.067086 -0.300636 -0.088521
v -0.060983 -0.260784 -0.108590
v -0.053265 -0.262566 -0.116019
v 0.053288 0.251862 -0.117969
v 0.059764 0.247937 -0.110764
v -0.011238 0.427940 0.141156
v -0.000001 0.425668 0.144224
v -0.000001 0.436254 0.141923
v -0.059622 0.012529 -0.096827
v -0.027818 0.011113 -0.065080
v -0.037518 0.039473 -0.067909
v 0.026661 0.204390 0.040237
v 0.039384 0.207901 0.001015
v 0.047626 0.210653 0.038747
v 0.026646 -0.415846 -0.064225
v 0.027203 -0.390993 -0.080326
v 0.029056 -0.415822 -0.063788
v 0.031181 0.191367 -0.130305
v -0.118736 -0.369801 0.101828
v 0.040883 -0.414287 0.146546
v 0.038336 -0.371795 0.135299
v 0.000000 -0.384161 0.134421
v 0.064355 0.088677 -0.118636
v 0.053811 -0.423492 0.135383
v 0.056549 -0.420217 0.136922
v 0.093222 -0.245862 0.090400
v -0.097267 -0.306940 -0.035751
v -0.095832 -0.307484 -0.038645
v 0.042343 0.270502 -0.115211
v -0.064982 0.103176 -0.093328
v -0.065133 0.106874 -0.088288
v 0.000000 -0.199221 0.036894
v -0.046730 0.287421 0.095116
v -0.079392 0.295622 0.105869
v -0.061586 0.272867 0.099234
v -0.128813 -0.308818 0.084082
v -0.112301 -0.276264 0.100535
v -0.123498 -0.284579 0.045483
v -0.093222 -0.245862 0.090400
v -0.083327 -0.225573 0.073187
v -0.103813 0.399355 0.110471
v -0.119503 0.372234 0.105545
v -0.000001 0.102831 -0.142394
v -0.000001 0.141511 -0.138868
v -0.048602 -0.026970 -0.079295
v 0.000000 -0.391330 -0.081346
v 0.000000 -0.412112 -0.072210
v -0.055930 -0.188460 -0.127588
v -0.032117 -0.176860 -0.135188
v -0.041302 -0.215120 -0.127707
v 0.040480 0.301304 -0.105185
v 0.042751 0.309034 -0.101971
v -0.047294 -0.026374 -0.077937
v 0.000000 -0.042454 -0.055061
v -0.000000 0.001912 -0.054694
v 0.034026 0.033311 -0.143401
v 0.037325 0.019840 -0.143190
v -0.000000 0.020154 -0.147404
v -0.055946 0.356851 -0.088948
v -0.118663 0.278380 0.088498
v -0.118879 0.282968 0.036899
v -0.051548 0.214498 0.001412
v -0.057946 0.215585 0.040474
v -0.064652 0.300306 -0.090959
v -0.129540 0.357552 0.076667
v -0.032970 -0.415803 -0.061426
v -0.070786 -0.385944 -0.065057
v 0.035267 -0.453029 0.054509
v 0.032166 -0.448342 0.024557
v -0.108360 -0.329778 -0.019337
v -0.103004 -0.339895 -0.029499
v -0.091654 0.245071 0.036028
v -0.100443 0.251844 0.036122
v 0.000000 -0.176960 -0.135692
v 0.054543 -0.278915 0.106618
v 0.034679 -0.132746 -0.058128
v 0.000000 -0.123777 -0.052134
v 0.078079 -0.394158 0.139836
v -0.000001 0.330841 0.092108
v -0.069553 -0.251204 -0.064076
v 0.118439 0.327499 0.114321
v 0.105266 0.261985 0.037123
v 0.060035 -0.417002 -0.035558
v 0.070786 -0.385944 -0.065057
v -0.118116 -0.315771 0.004196
v 0.063842 0.219279 -0.104145
v 0.064006 0.192301 -0.108170
v 0.080383 -0.413571 -0.009342
v 0.043250 0.087421 -0.138933
v 0.088610 0.427275 0.049998
v 0.070850 0.440405 0.052538
v 0.044280 -0.429901 -0.024822
v -0.036235 -0.304728 -0.107469
v 0.067607 0.135210 -0.084149
v -0.031513 0.141235 -0.138189
v -0.104241 -0.407888 0.078212
v 0.062317 0.158486 -0.067606
v 0.064169 0.165323 -0.112196
v 0.005575 -0.199763 0.068311
v 0.000000 -0.198482 0.070202
v 0.002462 -0.206017 0.077118
v -0.063798 -0.172866 -0.113389
v -0.059597 0.012822 -0.096794
v -0.064377 0.039010 -0.121051
v -0.051616 -0.213799 -0.010286
v -0.079922 -0.236853 0.004012
v 0.030867 -0.232097 0.089224
v 0.000000 -0.239286 0.086011
v 0.036872 -0.240128 0.093276
v -0.066284 0.419040 -0.032150
v -0.039675 0.422624 -0.044398
v -0.061791 0.410015 -0.051304
v -0.092699 -0.379384 0.134910
v 0.064400 -0.010658 -0.123465
v 0.047570 -0.109295 -0.070403
v 0.030363 -0.416723 -0.061974
v 0.105813 -0.324324 -0.025051
v 0.090930 -0.297526 -0.044635
v 0.103558 -0.285350 -0.011075
v 0.034262 0.330286 0.095018
v 0.115238 0.305028 0.005357
v 0.112987 0.311016 -0.003255
v 0.042482 0.032790 -0.140121
v 0.064377 0.039010 -0.121051
v 0.079862 0.277018 -0.058214
v -0.038255 0.425578 -0.039644
v 0.000000 -0.100721 -0.144984
v 0.000000 -0.062282 -0.146936
v 0.074738 -0.244029 -0.030032
v 0.046956 -0.210521 -0.008227
v 0.079922 -0.236853 0.004012
v 0.091654 0.241010 0.037029
v 0.095914 0.240667 0.062039
v 0.067664 0.220738 0.037606
v 0.010036 -0.201454 0.070314
v 0.063756 -0.136229 -0.116990
v 0.058149 -0.129143 -0.079756
v 0.066724 -0.167177 -0.081893
v 0.055946 0.356851 -0.088948
v 0.042888 0.357211 -0.091438
v 0.029189 0.037479 -0.144044
v 0.123380 -0.355233 0.027826
v 0.095698 0.349916 -0.040916
v -0.000000 0.046277 -0.054326
v -0.085107 -0.229677 0.038056
v -0.062496 0.380680 0.130670
v 0.092527 0.393789 -0.026808
v 0.100171 0.386655 -0.017255
v -0.031463 -0.454815 0.063941
v -0.020406 -0.454033 0.094850
v 0.063798 -0.172866 -0.113389
v 0.071445 0.428319 0.115732
v 0.097497 -0.278408 -0.018285
v 0.083002 -0.288650 -0.056178
v 0.004799 -0.212870 0.081813
v 0.000000 -0.215998 0.084150
v 0.053463 -0.009829 -0.085224
v 0.053840 -0.008212 -0.086385
v -0.095914 0.245307 0.061851
v -0.059895 0.328798 0.105064
v 0.130798 -0.316573 0.052715
v 0.116919 -0.300315 0.108553
v -0.063714 -0.099592 -0.120591
v -0.027203 -0.390993 -0.080326
v -0.059631 0.012337 -0.096851
v -0.028713 -0.001457 -0.066679
v -0.070681 0.241681 0.096737
v -0.070398 0.241523 0.096745
v -0.030924 0.207483 0.002272
v -0.000001 0.203889 0.000758
v -0.037385 0.206682 0.042931
v 0.051957 -0.445548 0.091154
v -0.043888 -0.212624 0.079321
v -0.118439 0.327499 0.114321
v 0.076238 -0.230133 0.085158
v 0.060348 -0.443973 0.054805
v 0.060462 -0.443567 0.052518
v -0.084063 -0.276753 -0.046082
v -0.059741 -0.406766 0.144038
v 0.041779 0.197217 -0.127130
v 0.041477 0.190620 -0.128320
v 0.000000 -0.265935 0.098151
v -0.044479 0.210659 0.004255
v 0.066836 0.218972 -0.075112
v 0.000000 -0.354558 -0.093720
v 0.000000 -0.317786 -0.106095
v -0.039040 0.438990 -0.008553
v 0.041711 -0.242421 0.094467
v 0.062140 -0.442801 0.053278
v -0.102371 -0.307415 -0.025351
v -0.104496 -0.278180 -0.002077
v -0.078622 0.425053 -0.002196
v -0.085149 0.389684 -0.042121
v -0.087555 0.389451 -0.038087
v -0.105313 0.310804 0.111313
v -0.037802 0.034388 -0.142715
v -0.037800 0.041501 -0.142666
v -0.000330 0.458931 0.060042
v 0.064332 0.138345 -0.116222
v 0.000059 0.201727 0.059433
v -0.029332 -0.196170 -0.035362
v -0.040107 -0.209634 -0.004571
v 0.000000 -0.205617 -0.016964
v -0.068506 -0.241193 0.092450
v -0.048783 -0.246245 0.097205
v 0.115337 -0.325735 0.117027
v -0.124132 0.341374 0.018234
v 0.066284 0.419040 -0.032150
v -0.053842 0.096500 -0.072254
v -0.053608 0.073803 -0.078226
v -0.064479 0.097109 -0.092002
v 0.020169 0.425090 0.138333
v 0.021185 0.425034 0.138097
v -0.025228 0.003652 -0.146002
v 0.000000 -0.023843 -0.148889
v -0.107130 0.378360 -0.008039
v -0.095698 0.349916 -0.040916
v -0.112087 0.345815 -0.012518
v -0.074328 -0.435989 0.053152
v -0.103509 -0.268713 0.004941
v -0.100060 -0.410656 0.050061
v 0.037927 0.293287 0.090904
v 0.054405 -0.390656 -0.079307
v 0.069805 -0.342893 -0.078922
v -0.043653 0.411385 -0.060285
v 0.060192 0.086817 -0.085531
v 0.061189 0.073083 -0.092145
v -0.024364 0.248573 0.092151
v 0.000000 -0.290876 -0.113091
v 0.046535 0.027166 -0.075797
v 0.076847 0.396831 0.135798
v 0.043911 -0.097123 -0.069523
v 0.049738 -0.091754 -0.075813
v 0.000000 -0.205382 0.079378
v -0.057369 0.153343 -0.062084
v 0.088992 -0.423297 0.083266
v 0.043482 0.087585 -0.138851
v 0.000000 -0.263965 -0.120087
v -0.026632 -0.263265 -0.118053
v -0.000001 0.449278 0.012822
v -0.049556 -0.032062 -0.080614
v -0.039991 0.092884 -0.062953
v -0.038893 0.066395 -0.066171
v 0.026632 -0.263265 -0.118053
v -0.058547 0.112374 -0.071803
v 0.051250 -0.000718 -0.082161
v 0.111504 -0.392822 0.035116
v 0.027643 0.205200 0.075207
v -0.070448 0.242047 0.096916
v -0.070558 0.241801 0.096806
v -0.000001 0.357195 -0.091323
v -0.059764 0.244974 -0.110813
v -0.051628 0.225183 -0.119510
v -0.063842 0.218190 -0.104206
v 0.038255 0.310917 -0.102544
v -0.030955 -0.425107 -0.044957
v 0.028447 -0.118965 -0.140920
v 0.050268 -0.008454 -0.081279
v 0.051933 -0.007551 -0.083242
v 0.122272 -0.313679 0.016314
v 0.112430 -0.390503 0.035331
v 0.126261 0.360802 0.041935
v 0.128855 0.359179 0.080570
v -0.064368 -0.258380 -0.098120
v -0.055498 0.264914 0.096915
v -0.034714 0.252649 0.093339
v -0.030297 0.272942 0.091077
v -0.040135 0.313192 -0.101143
v -0.034918 0.178167 -0.048084
v -0.034192 0.177193 -0.048490
v -0.000001 0.193305 -0.029698
v -0.047321 -0.124879 -0.136429
v -0.115411 0.392005 0.045330
v -0.114903 0.395559 0.077405
v -0.002462 -0.206017 0.077118
v -0.019095 0.419771 -0.052834
v -0.030703 0.416112 -0.056557
v -0.025181 0.422320 -0.048397
v 0.036696 0.069006 -0.064746
v 0.077754 0.388107 -0.054475
v 0.076805 0.392938 -0.052488
v 0.079550 0.390135 -0.051134
v -0.000001 0.404903 0.137733
v 0.016967 0.403099 0.137207
v -0.040883 -0.414287 0.146546
v -0.092547 0.246697 0.092491
v -0.095452 0.246005 0.081781
v 0.060490 -0.174703 -0.123772
v 0.061365 -0.157814 -0.121147
v 0.108675 -0.386373 0.109851
v 0.104021 -0.392936 0.112686
v -0.053341 0.140554 -0.134185
v 0.037570 -0.300838 -0.108751
v -0.077570 0.245427 -0.019671
v 0.038612 0.395662 0.135038
v 0.064057 -0.055125 -0.122028
v 0.070030 0.263930 0.101816
v 0.042593 -0.238667 0.092668
v 0.045581 0.258134 0.094939
v -0.000001 0.408786 -0.068705
v 0.014195 0.416003 -0.058883
v 0.025288 0.403121 -0.072285
v 0.129715 -0.344743 0.059548
v -0.108158 0.259141 0.085004
v -0.061707 0.180896 -0.069350
v -0.062138 0.190941 -0.066371
v -0.064357 0.181687 -0.077935
v -0.110105 0.379634 0.000312
v -0.054400 0.215189 -0.018217
v -0.062547 0.217825 -0.038437
v -0.061886 0.211038 -0.047365
v 0.103789 -0.278746 -0.004289
v 0.109812 -0.291081 -0.000811
v 0.038403 0.075321 -0.064848
v 0.032756 -0.040192 -0.144427
v -0.062038 0.404321 -0.059511
v 0.037933 -0.063799 -0.068893
v 0.020406 -0.454033 0.094850
v -0.063679 0.244805 -0.100200
v 0.087672 0.297737 -0.050571
v 0.040738 0.037721 -0.141028
v -0.031335 0.427667 -0.037693
v -0.030188 0.425857 -0.041177
v 0.063726 0.201472 -0.067205
v 0.064322 0.194264 -0.075507
v 0.061306 0.177963 -0.067078
v -0.041237 -0.217468 -0.127205
v 0.091289 0.316120 -0.048369
v 0.100621 -0.330231 -0.035032
v 0.100489 -0.343238 -0.034061
v -0.126261 0.360794 0.042089
v 0.046483 -0.149623 -0.133749
v -0.040675 0.209032 -0.005627
v -0.045986 -0.036453 -0.139795
v -0.046209 -0.035083 -0.139750
v -0.046025 -0.035165 -0.139892
v -0.095514 -0.304577 -0.038272
v 0.000000 -0.458931 0.073834
v 0.111199 -0.392444 0.032599
v -0.052834 -0.422727 -0.032944
v -0.053950 -0.425354 -0.025850
v -0.059625 0.120581 -0.126586
v -0.051077 0.118010 -0.134085
v 0.100246 -0.276435 -0.010086
v 0.099929 -0.271667 -0.005260
v -0.061639 -0.416595 -0.033917
v -0.089373 -0.377238 -0.038729
v 0.036861 0.061007 -0.066281
v 0.057685 0.053207 -0.090620
v 0.042348 -0.225481 -0.124605
v 0.042301 0.438729 -0.006222
v 0.036022 0.425617 -0.039990
v 0.117673 0.375109 0.021528
v -0.085748 0.338261 0.118301
v -0.073953 -0.426499 0.009463
v -0.105082 -0.398885 0.023070
v 0.061054 0.139585 -0.126585
v -0.056880 -0.213387 -0.031934
v 0.061791 0.410015 -0.051304
v 0.055490 -0.202123 -0.047938
v 0.027773 -0.193729 -0.037954
v 0.053265 -0.262566 -0.116019
v -0.055866 -0.430068 0.124074
v -0.000001 0.206561 0.086395
v -0.016511 0.215288 0.090522
v 0.059934 0.135855 -0.064326
v -0.038599 0.359300 0.111460
v -0.078705 0.358959 0.124336
v -0.066724 -0.167177 -0.081893
v 0.064083 -0.215623 -0.105755
v 0.000709 -0.430517 0.146781
v 0.000336 -0.430226 0.147019
v 0.000073 -0.430954 0.146674
v 0.000160 -0.430262 0.147019
v 0.038946 -0.103217 -0.140032
v 0.036550 -0.116338 -0.139772
v -0.064006 0.191575 -0.108211
v 0.058455 0.156491 -0.063159
v 0.034824 0.163391 -0.052005
v 0.040657 0.136249 -0.055537
v 0.007136 -0.441633 0.131155
v 0.000000 -0.443664 0.127835
v 0.085528 0.327310 0.115109
v 0.064368 -0.258380 -0.098120
v -0.037860 0.442291 0.000664
v -0.027452 0.452422 0.034518
v 0.046188 0.417624 0.129933
v 0.113123 -0.325551 -0.008890
v 0.000118 0.201506 0.042496
v 0.032095 -0.129187 -0.139646
v 0.041131 -0.122753 -0.137865
v -0.000560 0.429399 -0.036850
v -0.001672 0.426464 -0.042357
v -0.003433 0.429220 -0.037238
v -0.009341 0.427711 -0.040088
v -0.060126 0.165292 -0.066278
v 0.038413 -0.336538 -0.098261
v 0.034055 -0.364624 -0.091465
v 0.059515 -0.061704 -0.093911
v 0.059895 0.328798 0.105064
v 0.006588 -0.430761 0.143931
v 0.006238 -0.428269 0.145596
v 0.002350 -0.431256 0.145736
v 0.001937 -0.429131 0.147016
v 0.031455 -0.439781 0.126163
v -0.004825 -0.443582 0.126843
v 0.043724 -0.113238 -0.137156
v -0.053523 0.175945 -0.122990
v -0.054617 0.160328 -0.126856
v 0.082177 -0.414679 0.115951
v 0.045086 0.110886 -0.059379
v 0.123999 -0.353496 0.102452
v 0.000000 -0.207785 0.004677
v 0.000000 -0.420253 -0.064543
v -0.049587 0.268467 -0.112261
v 0.051074 0.136188 -0.057987
v 0.000000 -0.409243 0.148226
v 0.000000 -0.421316 0.148889
v 0.061251 0.155237 -0.066217
v -0.074628 -0.435916 0.054092
v -0.060490 -0.174703 -0.123772
v -0.053241 -0.176064 -0.131413
v 0.060024 -0.420820 0.134712
v 0.041610 0.445706 0.016254
v 0.052110 0.449322 0.054876
v 0.012141 -0.213464 0.081849
v -0.043923 -0.252147 0.099214
v -0.037917 -0.242375 0.095120
v 0.112368 0.376766 0.005301
v 0.026275 0.424993 -0.043565
v 0.015891 0.420870 -0.051532
v 0.015558 0.425062 -0.044553
v -0.047935 -0.029621 -0.078559
v 0.053188 -0.007736 -0.084837
v 0.053527 -0.005968 -0.085252
v -0.078079 -0.394158 0.139836
v -0.016967 0.403099 0.137207
v 0.077544 -0.370181 0.135139
v 0.092699 -0.379384 0.134910
v 0.077810 -0.363878 0.133124
v 0.008120 0.425320 -0.044334
v 0.007518 0.427704 -0.040086
v -0.076238 -0.230133 0.085158
v 0.077570 0.245008 -0.019737
v 0.088793 0.279345 -0.037865
v 0.081213 0.270441 -0.049750
v 0.035837 0.423690 -0.043692
v -0.033211 0.437476 -0.014551
v 0.099867 0.290319 -0.020307
v 0.096942 0.276732 -0.012985
v 0.113970 0.295752 0.008515
v 0.061586 0.270086 0.098424
v 0.084612 0.243009 0.008646
v -0.064083 -0.215623 -0.105755
v 0.066192 -0.198995 -0.084733
v 0.097609 -0.309844 0.114066
v 0.050708 -0.013657 -0.081983
v 0.043873 0.089214 -0.138530
v 0.050425 0.227551 -0.119998
v 0.057087 -0.422601 0.134102
v -0.027058 -0.195152 -0.035956
v -0.079774 0.253607 0.101969
v -0.065902 0.109493 -0.090821
v 0.084371 0.398564 -0.034205
v 0.063811 -0.205412 -0.065223
v -0.099754 -0.267610 -0.002411
v -0.086463 0.297347 -0.055454
v -0.087632 0.289789 -0.049106
v -0.093824 0.287096 -0.033280
v 0.014741 0.426638 -0.041748
v -0.051707 0.219618 -0.119494
v -0.030631 0.213964 -0.126354
v -0.039608 0.185843 -0.129212
v -0.036659 0.076581 -0.141723
v -0.004928 -0.434848 0.141874
v -0.002866 -0.431545 0.145694
v -0.003663 -0.430404 0.145906
v 0.016130 0.433984 -0.026553
v -0.000001 0.432567 -0.029678
v -0.025660 -0.438538 0.130314
v -0.064583 -0.269573 0.104669
v -0.071120 -0.286549 0.109570
v -0.097398 0.274170 -0.011936
v -0.048123 -0.120479 -0.069533
v -0.062665 -0.118293 -0.092013
v -0.063756 -0.136229 -0.116990
v 0.048489 0.192935 -0.044457
v -0.061261 -0.279402 0.107928
v 0.040423 -0.041434 -0.072454
v 0.025372 -0.021144 -0.064258
v 0.040091 -0.294582 -0.109743
v 0.057015 -0.279418 -0.107612
v -0.017074 0.226238 0.093882
v -0.034801 0.223486 0.090594
v -0.040107 0.233365 0.092304
v 0.049072 0.169412 -0.056085
v -0.000001 0.384012 0.121341
v 0.061684 -0.442138 0.047938
v -0.041269 0.168576 -0.131886
v -0.003275 0.425620 -0.043840
v -0.000169 0.424886 -0.045069
v -0.012210 0.421600 -0.050371
v 0.044937 0.114993 -0.058403
v 0.045397 -0.230426 -0.122106
v -0.065239 -0.221806 0.082381
v 0.000000 -0.193845 -0.035629
v 0.026849 -0.196294 -0.033200
v 0.037518 -0.208459 0.002203
v -0.022531 -0.221651 0.085987
v -0.022663 -0.207392 0.077576
v -0.038233 0.041021 -0.068200
v -0.038720 -0.448056 0.026816
v 0.043417 0.087111 -0.138907
v -0.046339 -0.035105 -0.139658
v -0.046415 -0.035011 -0.139604
v 0.054257 0.023282 -0.091253
v -0.002651 -0.428996 0.146884
v -0.002069 -0.430292 0.146572
v -0.036628 0.440657 -0.005431
v 0.050650 0.161423 -0.129427
v -0.019589 0.405443 -0.070836
v -0.015431 0.418428 -0.055052
v -0.059689 0.012456 -0.097036
v -0.000001 0.177498 -0.045025
v -0.031351 -0.454499 0.058270
v 0.031034 -0.454908 0.068164
v -0.010893 0.427615 -0.040266
v -0.013565 0.425995 -0.042997
v 0.047320 0.384746 -0.080005
v -0.013950 0.434729 -0.025133
v -0.012632 0.427968 -0.039499
v -0.083973 0.390312 -0.043276
v -0.000001 0.421635 -0.049853
v 0.024971 -0.193727 -0.036936
v 0.024847 -0.193136 -0.037677
v 0.062496 0.380680 0.130670
v -0.035383 -0.313809 -0.105608
v 0.065152 0.245803 0.095272
v 0.085067 -0.299680 -0.056545
v -0.066346 -0.216312 0.037387
v -0.051972 -0.213521 0.004261
v -0.084530 -0.402173 -0.018977
v -0.087837 -0.402849 -0.011465
v 0.067086 -0.300636 -0.088521
v 0.053341 0.140554 -0.134185
v -0.054725 -0.242756 -0.117643
v 0.112079 -0.306553 -0.004991
v -0.011370 0.427976 -0.039551
v -0.012203 0.427564 -0.040265
v -0.039703 -0.139493 -0.138207
v -0.045354 -0.206503 0.036924
v 0.059963 0.374970 -0.079996
v -0.009107 0.222956 0.094131
v 0.057217 -0.048457 -0.090078
v 0.045509 -0.051380 -0.075405
v 0.024952 -0.192603 -0.037994
v 0.092178 -0.294242 0.110259
v -0.013942 0.434775 -0.025032
v -0.032074 -0.196332 -0.035985
v -0.054945 -0.206922 -0.044483
v 0.094883 0.313780 -0.042040
v 0.108362 0.293014 -0.004688
v 0.002245 -0.427768 0.147401
v 0.063216 0.156232 -0.071230
v -0.023042 -0.200782 0.036728
v -0.054951 -0.158009 -0.131431
v -0.050149 -0.136153 -0.134924
v -0.049489 0.007954 -0.137931
v -0.046294 -0.034622 -0.139672
v -0.034042 -0.309236 -0.107270
v 0.103248 0.310193 -0.023922
v -0.067334 0.218712 -0.077726
v 0.049068 0.449299 0.092797
v 0.051798 0.449112 0.084841
v -0.061733 -0.205894 -0.055843
v 0.064376 0.220661 -0.046242
v 0.052011 0.207604 -0.032783
v 0.062286 -0.209231 -0.053933
v -0.047341 -0.420782 -0.042453
v -0.047774 -0.028616 -0.078300
v -0.024829 -0.049588 -0.063994
v 0.052425 -0.064626 -0.082454
v 0.044431 -0.073535 -0.072549
v -0.000001 0.167543 -0.049691
v 0.026943 0.437183 -0.016987
v 0.020977 0.431729 -0.030732
v -0.092833 0.305069 -0.045058
v -0.108735 0.307686 -0.013525
v -0.104979 0.284613 -0.004898
v -0.007935 -0.425591 0.146959
v -0.009199 -0.426641 0.146241
v 0.040770 0.440151 -0.003041
v -0.000001 0.214670 0.092921
v -0.046686 -0.377655 0.137530
v -0.048958 0.271276 -0.111590
v -0.028245 -0.455690 0.061808
v 0.055858 0.441683 0.019123
v -0.125827 -0.310943 0.095633
v -0.116156 0.309198 0.003488
v 0.055244 0.447492 0.090278
v -0.039048 0.177484 -0.051038
v -0.089858 0.268301 0.101538
v -0.011203 0.433603 -0.027640
v 0.001739 0.430418 -0.034708
v 0.065515 -0.432681 0.011730
v 0.055831 -0.437193 0.009175
v 0.058003 -0.432860 -0.002267
v 0.036035 -0.004875 -0.144467
v -0.106033 -0.390985 0.110632
v -0.034877 0.181700 -0.044685
v 0.088357 -0.415068 0.011735
v 0.108846 -0.396573 0.034109
v 0.087261 -0.424399 0.042895
v 0.068279 -0.367575 0.135156
v 0.065670 0.412176 0.132504
v -0.042417 0.439989 -0.003606
v 0.043394 0.439502 -0.002907
v 0.037884 -0.017575 -0.143580
v 0.049081 -0.042110 -0.137605
v -0.080742 -0.415851 -0.000843
v -0.013829 0.434670 -0.025266
v 0.000000 -0.455571 0.096062
v 0.045757 0.314520 -0.099206
v 0.038622 0.034281 -0.141813
v 0.054333 0.097945 -0.072279
v -0.106131 0.389104 0.000851
v -0.083616 0.426162 0.024009
v -0.063235 -0.128341 -0.089893
v 0.063586 0.413088 0.132406
v -0.021006 -0.414633 -0.066107
v -0.004832 -0.435389 0.141341
v -0.004653 -0.436495 0.139950
v 0.000000 -0.438310 0.137838
v -0.103099 0.388249 -0.008202
v -0.090561 -0.336179 -0.051889
v -0.125518 0.373009 0.075511
v 0.117868 -0.352721 0.112934
v -0.046557 -0.111001 -0.070090
v -0.097351 -0.299401 0.110642
v 0.004752 0.427664 -0.040181
v -0.053288 0.245711 -0.117709
v 0.022848 0.415764 -0.058122
v 0.013989 0.432963 -0.028958
v -0.030981 -0.063122 -0.065441
v 0.014436 -0.439770 0.132766
v 0.039537 -0.066793 -0.141755
v -0.129107 0.338240 0.040167
v 0.008521 -0.434465 0.140246
v 0.064509 0.225000 -0.015908
v -0.047496 0.230199 0.091876
v -0.050826 -0.125175 -0.133835
v -0.034834 0.175868 -0.049223
v 0.047997 -0.211577 0.003563
v 0.112805 -0.377765 0.109510
v -0.038923 0.408508 -0.064603
v 0.060983 -0.260784 -0.108590
v 0.002687 -0.432033 0.145015
v 0.016932 0.425628 -0.043400
v -0.035644 0.394330 -0.075879
v -0.000001 0.363120 0.104949
v -0.032556 0.356252 0.108105
v -0.088925 0.415348 0.113376
v 0.000000 -0.430230 0.147115
v 0.000000 -0.431311 0.146758
v -0.036016 -0.196768 -0.038907
v -0.025030 0.397486 -0.076777
v -0.066672 0.108712 -0.098896
v 0.062811 0.410661 0.133348
v 0.033485 0.205539 -0.004877
v 0.036517 0.201827 -0.018369
v -0.029431 0.401503 -0.072810
v -0.125431 -0.348077 0.103321
v -0.124404 -0.352001 0.103320
v 0.002224 -0.432246 0.145009
v -0.045772 -0.034608 -0.139937
v 0.061894 -0.443192 0.054752
v -0.099831 0.270528 -0.000464
v 0.038797 -0.323943 -0.101582
v 0.108008 -0.337460 -0.019801
v 0.104214 -0.337116 -0.027916
v -0.046153 -0.034889 -0.139765
v -0.003939 -0.435716 0.141075
v -0.000349 -0.434203 0.143844
v -0.018917 -0.440005 0.130274
v 0.041015 -0.331903 -0.098513
v 0.039151 -0.332590 -0.098951
v -0.115155 0.297955 0.008556
v -0.055651 -0.071045 -0.088696
v -0.059444 -0.082710 -0.093824
v -0.042968 -0.097839 -0.070311
v 0.045142 -0.119450 -0.135598
v 0.005446 0.428268 -0.039004
v -0.103261 0.316436 -0.027857
v 0.052782 -0.088453 -0.133577
v -0.061141 0.062733 -0.092582
v -0.000378 -0.429599 0.147214
v -0.031503 -0.450687 0.033725
v 0.040598 -0.080522 -0.141148
v -0.099727 0.257247 0.019314
v 0.062641 -0.248202 -0.104212
v 0.059178 -0.247364 -0.111471
v -0.065066 0.190482 -0.078565
v -0.085216 0.305314 -0.059030
v -0.087440 0.310176 -0.055256
v 0.036660 0.364967 0.115659
v 0.040756 0.316894 -0.100515
v -0.060692 -0.075755 -0.100293
v -0.000178 -0.430068 0.147098
v 0.040695 -0.334022 -0.097952
v -0.087677 -0.322370 -0.056417
v -0.027567 0.405715 -0.069293
v 0.030510 0.191003 -0.034778
v 0.040057 0.195569 -0.034068
v 0.066273 0.226310 -0.027855
v -0.040166 -0.080843 -0.141079
v -0.052823 0.061456 -0.133989
v 0.095452 0.243179 0.081745
v 0.081789 -0.296800 -0.061398
v 0.056089 0.123842 -0.133077
v -0.007303 -0.416094 0.149754
v 0.037072 -0.332714 -0.099558
v -0.000772 -0.431992 0.146086
v 0.000580 -0.431540 0.146240
v -0.017442 -0.434587 0.137856
v -0.002600 -0.433392 0.144628
v 0.025182 0.165117 -0.050122
v -0.000400 0.429739 -0.036164
v -0.000939 -0.431201 0.146491
v -0.001277 -0.430706 0.146651
v -0.001702 -0.431256 0.146249
v 0.063142 -0.442355 0.054131
v -0.119847 -0.315948 0.008842
v -0.107133 -0.275788 0.006364
v -0.023803 -0.075916 -0.061332
v 0.001183 -0.430839 0.146465
v -0.030724 0.226694 -0.123872
v -0.038710 -0.382128 0.138441
v 0.034633 0.360114 0.112028
v 0.084483 -0.359699 0.130708
v 0.075334 -0.431992 0.034181
v -0.031253 0.363985 0.112563
v -0.046328 -0.035275 -0.139647
v 0.008224 0.429791 -0.035799
v 0.040331 0.360569 0.114056
v -0.022997 -0.096740 -0.059310
v -0.022277 -0.436385 0.134144
v 0.036664 -0.246471 0.095574
v -0.000129 -0.430236 0.147038
v -0.085230 -0.268038 -0.034364
v 0.039922 0.186859 -0.041975
v -0.038531 0.088797 -0.140086
v -0.034744 0.117683 -0.139582
v -0.105804 -0.391248 0.110755
v 0.009162 0.419945 -0.053114
v -0.019014 -0.436302 0.135306
v 0.009687 0.416464 -0.058194
v -0.000522 -0.430843 0.146722
v -0.002634 -0.431953 0.145642
f 1 3 2
f 6 7 8
f 11 12 13
f 16 17 18
f 20 21 19
f 22 23 24
f 26 27 28
f 29 30 31
f 34 35 36
f 7 33 32
f 39 40 41
f 43 44 45
f 48 49 50
f 55 56 57
f 58 59 60
f 61 62 63
f 64 65 66
f 71 72 70
f 73 74 75
f 76 77 78
f 80 81 82
f 89 90 91
f 92 35 34
f 93 94 95
f 88 35 92
f 97 98 99
f 106 107 37
f 34 108 109
f 110 35 88
f 111 112 113
f 114 115 116
f 118 74 73
f 119 120 121
f 65 12 11
f 124 126 125
f 100 7 32
f 128 17 129
f 134 135 136
f 94 137 95
f 23 138 24
f 14 15 113
f 143 144 145
f 93 146 94
f 83 147 148
f 69 151 92
f 48 50 23
f 25 152 153
f 155 156 86
f 157 159 158
f 160 161 162
f 165 136 166
f 167 168 110
f 170 171 172
f 174 76 175
f 176 177 178
f 179 140 180
f 181 182 183
f 105 186 1
f 187 188 189
f 190 170 191
f 15 193 113
f 194 195 196
f 139 95 67
f 140 197 198
f 199 200 201
f 202 203 204
f 36 35 110
f 105 205 17
f 200 206 207
f 208 209 210
f 211 212 213
f 214 215 216
f 217 218 155
f 218 156 155
f 46 47 219
f 174 77 76
f 224 225 65
f 226 227 86
f 228 177 229
f 230 231 232
f 233 28 234
f 235 236 237
f 238 239 240
f 241 242 243
f 244 245 246
f 112 247 172
f 18 248 16
f 8 7 100
f 106 5 107
f 249 250 251
f 249 253 254
f 25 255 188
f 256 195 257
f 60 151 68
f 6 8 192
f 258 28 233
f 259 260 53
f 5 261 4
f 262 263 264
f 265 266 267
f 274 138 50
f 275 245 276
f 277 278 279
f 280 281 127
f 152 25 188
f 282 283 284
f 285 286 287
f 181 61 288
f 40 291 292
f 188 255 189
f 294 118 271
f 295 296 144
f 87 298 297
f 1 299 300
f 262 71 263
f 301 302 142
f 304 146 255
f 305 126 306
f 63 183 182
f 14 123 15
f 142 291 40
f 57 312 313
f 314 1 186
f 57 317 312
f 76 78 318
f 319 320 36
f 227 321 86
f 322 230 232
f 273 171 272
f 139 250 95
f 18 17 325
f 326 327 316
f 328 329 330
f 65 11 224
f 289 75 290
f 306 126 124
f 332 333 238
f 289 73 75
f 334 84 335
f 96 250 249
f 336 337 338
f 251 250 139
f 339 340 341
f 134 342 135
f 305 212 126
f 212 344 126
f 213 306 185
f 345 321 227
f 346 347 348
f 308 162 349
f 67 45 139
f 350 351 66
f 343 352 353
f 354 28 127
f 339 355 340
f 185 306 149
f 50 138 23
f 358 359 360
f 123 14 122
f 361 362 363
f 5 4 364
f 365 366 367
f 367 366 211
f 368 83 369
f 175 370 174
f 288 182 181
f 37 153 106
f 153 37 38
f 57 56 317
f 376 377 372
f 114 378 379
f 366 158 212
f 158 344 212
f 367 380 365
f 36 381 108
f 358 382 383
f 92 151 13
f 384 330 385
f 343 387 386
f 63 182 288
f 343 286 352
f 103 390 391
f 143 393 144
f 138 282 394
f 282 395 394
f 39 397 396
f 398 399 400
f 354 26 28
f 118 73 403
f 297 298 405
f 298 406 405
f 407 84 309
f 70 72 162
f 222 131 223
f 263 71 389
f 162 308 70
f 191 409 410
f 411 338 337
f 412 292 291
f 413 27 26
f 416 355 339
f 255 417 304
f 418 405 406
f 419 314 196
f 314 420 196
f 421 422 423
f 85 424 169
f 287 425 426
f 427 131 130
f 323 252 428
f 105 17 16
f 400 429 52
f 170 247 191
f 172 247 170
f 430 431 432
f 433 268 434
f 47 46 105
f 86 298 87
f 68 151 69
f 21 437 19
f 438 260 439
f 260 440 439
f 441 442 223
f 443 287 444
f 445 446 447
f 129 217 128
f 217 448 128
f 154 449 267
f 111 113 193
f 1 205 105
f 450 325 17
f 451 349 162
f 313 452 453
f 341 340 454
f 252 455 456
f 457 180 198
f 459 373 284
f 461 158 462
f 385 330 463
f 204 464 202
f 327 323 428
f 78 466 318
f 469 427 130
f 470 23 22
f 108 34 36
f 471 472 99
f 458 467 473
f 438 203 474
f 284 475 459
f 476 132 133
f 429 477 51
f 478 479 397
f 480 163 61
f 481 482 483
f 197 161 457
f 484 281 280
f 485 295 227
f 486 178 356
f 475 487 488
f 275 393 414
f 390 489 187
f 61 63 288
f 490 117 476
f 289 424 73
f 21 376 437
f 491 88 492
f 243 242 363
f 494 495 496
f 497 163 164
f 498 499 500
f 197 457 198
f 211 366 212
f 227 246 345
f 214 216 501
f 502 503 173
f 505 506 507
f 373 508 99
f 509 510 511
f 236 512 513
f 119 503 270
f 515 516 39
f 356 215 214
f 380 517 518
f 274 50 49
f 519 520 132
f 72 160 162
f 522 415 458
f 301 40 388
f 258 233 15
f 407 230 194
f 513 524 442
f 316 410 409
f 154 269 374
f 527 37 338
f 413 315 27
f 140 528 197
f 529 530 531
f 407 309 230
f 523 291 142
f 117 371 532
f 452 246 245
f 121 173 119
f 388 533 290
f 534 535 536
f 436 537 447
f 154 374 335
f 51 52 429
f 408 115 514
f 213 212 305
f 438 474 260
f 538 539 540
f 263 424 289
f 187 542 541
f 508 543 99
f 544 357 444
f 369 480 31
f 124 546 283
f 521 209 208
f 9 10 548
f 127 549 354
f 143 414 393
f 353 352 550
f 238 394 239
f 394 395 239
f 202 464 220
f 355 551 552
f 315 413 316
f 413 553 554
f 553 555 554
f 554 555 316
f 316 413 554
f 468 556 104
f 549 127 557
f 255 146 189
f 274 49 282
f 558 559 453
f 560 537 436
f 518 561 365
f 399 562 500
f 380 518 365
f 563 564 565
f 215 356 178
f 566 194 230
f 270 503 271
f 533 388 516
f 568 371 476
f 274 282 138
f 518 229 561
f 569 156 570
f 521 572 571
f 161 496 495
f 39 516 388
f 541 573 574
f 158 461 344
f 296 575 576
f 577 578 508
f 578 456 508
f 459 577 373
f 373 577 508
f 13 151 310
f 31 531 207
f 532 371 390
f 579 473 104
f 580 437 581
f 8 131 192
f 88 582 167
f 173 503 119
f 239 395 284
f 377 54 372
f 85 583 271
f 45 67 43
f 129 17 584
f 17 585 584
f 220 464 221
f 77 174 272
f 334 587 84
f 48 23 470
f 208 210 221
f 403 424 85
f 589 213 590
f 169 424 263
f 73 424 403
f 394 24 138
f 542 187 489
f 341 454 545
f 115 592 514
f 114 592 115
f 593 594 52
f 326 595 323
f 52 51 593
f 70 389 71
f 596 375 597
f 589 359 358
f 125 546 124
f 484 163 369
f 262 264 494
f 502 537 560
f 600 601 602
f 601 603 602
f 604 605 356
f 222 442 524
f 92 492 88
f 111 247 112
f 192 131 427
f 607 608 609
f 573 382 358
f 610 611 547
f 68 612 60
f 6 615 614
f 616 222 524
f 55 617 371
f 371 489 390
f 368 147 83
f 268 154 266
f 326 316 555
f 619 605 620
f 621 622 623
f 622 624 623
f 467 458 468
f 221 464 625
f 32 375 100
f 626 453 627
f 163 62 61
f 399 242 241
f 20 376 21
f 167 20 19
f 20 377 376
f 314 299 1
f 419 256 314
f 256 299 314
f 628 157 525
f 441 236 513
f 58 612 629
f 226 156 227
f 226 86 156
f 630 631 632
f 631 633 632
f 300 299 256
f 214 501 392
f 634 547 401
f 268 269 154
f 635 379 611
f 636 605 604
f 637 638 208
f 38 404 25
f 520 639 465
f 99 543 640
f 102 641 103
f 400 618 429
f 309 493 230
f 287 443 425
f 295 643 227
f 10 644 548
f 326 648 595
f 116 649 114
f 307 96 652
f 29 31 480
f 653 130 654
f 336 107 655
f 310 151 60
f 568 55 371
f 273 272 324
f 656 657 434
f 476 117 132
f 658 66 54
f 54 377 658
f 167 110 88
f 659 660 661
f 69 34 460
f 160 72 71
f 48 662 49
f 663 386 664
f 491 582 88
f 532 103 641
f 666 512 236
f 516 515 533
f 667 668 669
f 670 671 661
f 433 434 672
f 673 675 674
f 266 154 267
f 451 629 349
f 199 676 588
f 252 456 353
f 520 668 307
f 638 521 208
f 416 677 355
f 677 551 355
f 678 679 674
f 473 467 104
f 213 305 306
f 65 680 350
f 451 528 681
f 679 682 673
f 673 674 679
f 303 178 177
f 684 380 367
f 685 93 435
f 686 386 488
f 466 78 687
f 234 688 233
f 652 254 689
f 432 690 430
f 691 479 478
f 160 496 161
f 692 260 221
f 162 161 197
f 376 693 437
f 396 479 79
f 398 400 562
f 419 195 256
f 120 119 6
f 6 119 7
f 25 404 255
f 211 694 367
f 180 140 198
f 695 196 420
f 696 697 698
f 699 661 671
f 700 701 702
f 335 449 154
f 337 657 411
f 217 584 218
f 28 27 234
f 174 426 703
f 412 562 400
f 704 705 706
f 707 708 469
f 709 114 379
f 557 83 148
f 336 655 337
f 303 177 104
f 60 612 58
f 130 653 469
f 278 303 104
f 710 268 711
f 266 711 268
f 142 712 523
f 596 100 375
f 658 582 66
f 66 582 491
f 658 377 167
f 377 20 167
f 658 167 582
f 253 401 689
f 401 253 634
f 634 253 249
f 713 149 306
f 617 489 371
f 714 392 715
f 716 555 553
f 717 710 711
f 319 36 110
f 718 719 283
f 591 721 720
f 45 711 135
f 45 44 711
f 585 17 205
f 594 722 723
f 722 724 723
f 30 531 31
f 555 725 326
f 725 607 326
f 319 110 168
f 512 726 513
f 222 223 442
f 418 406 727
f 324 638 728
f 729 730 731
f 71 262 160
f 262 496 160
f 457 161 495
f 566 257 195
f 640 732 99
f 609 732 645
f 645 732 595
f 733 591 473
f 441 223 237
f 734 434 402
f 461 126 344
f 710 434 268
f 736 432 737
f 223 8 237
f 254 253 689
f 738 739 402
f 238 240 332
f 240 740 332
f 472 373 99
f 373 740 240
f 741 155 86
f 429 241 477
f 618 241 429
f 76 318 742
f 665 115 408
f 22 744 743
f 386 387 664
f 663 488 386
f 343 664 387
f 459 745 353
f 459 475 745
f 475 664 745
f 664 343 353
f 746 706 747
f 706 705 747
f 469 748 614
f 419 196 195
f 397 479 396
f 93 141 435
f 749 190 327
f 750 751 529
f 25 153 38
f 640 323 595
f 99 732 97
f 97 732 609
f 238 752 394
f 330 329 463
f 629 612 68
f 448 754 649
f 754 378 649
f 69 92 34
f 755 547 567
f 315 688 234
f 490 371 117
f 490 476 371
f 729 731 756
f 731 757 756
f 541 188 187
f 495 724 457
f 163 480 369
f 325 128 116
f 158 159 462
f 472 439 740
f 240 239 284
f 373 240 284
f 31 758 369
f 655 385 337
f 44 717 711
f 656 717 43
f 717 44 43
f 411 656 43
f 430 690 149
f 551 759 760
f 184 690 735
f 354 674 675
f 354 675 26
f 26 675 673
f 441 513 442
f 545 454 181
f 761 183 422
f 483 9 548
f 227 643 244
f 263 389 169
f 762 731 730
f 437 676 581
f 763 590 764
f 322 232 468
f 414 766 415
f 414 143 766
f 766 143 145
f 230 766 145
f 175 76 550
f 76 742 550
f 466 742 318
f 550 742 353
f 252 742 466
f 353 742 252
f 672 434 734
f 280 127 28
f 683 493 309
f 628 159 157
f 596 389 70
f 767 526 528
f 724 722 457
f 768 383 347
f 769 770 335
f 771 772 3
f 497 164 123
f 319 168 320
f 478 494 691
f 42 773 613
f 636 620 605
f 194 566 195
f 231 775 232
f 346 348 776
f 63 62 293
f 666 8 100
f 777 778 760
f 321 345 312
f 313 312 345
f 345 246 313
f 313 246 452
f 365 561 620
f 16 47 105
f 216 215 779
f 278 779 178
f 178 779 215
f 278 178 303
f 780 770 769
f 104 467 468
f 507 552 551
f 368 781 147
f 722 782 180
f 457 722 180
f 446 422 183
f 783 628 525
f 784 628 783
f 433 672 268
f 764 785 184
f 786 189 146
f 350 66 65
f 469 787 748
f 614 615 469
f 469 615 192
f 192 615 6
f 427 469 192
f 451 197 528
f 334 788 789
f 557 372 790
f 479 691 79
f 323 455 252
f 455 543 456
f 543 508 456
f 304 137 94
f 336 37 107
f 350 680 791
f 791 225 311
f 791 680 225
f 680 65 225
f 335 770 334
f 59 11 310
f 631 792 633
f 323 793 326
f 326 793 327
f 327 793 323
f 453 559 57
f 421 339 422
f 795 715 796
f 754 448 741
f 776 489 346
f 489 617 346
f 797 798 24
f 111 193 409
f 193 688 409
f 316 688 315
f 316 409 688
f 193 233 688
f 193 15 233
f 460 34 109
f 230 322 799
f 799 766 230
f 791 351 350
f 351 791 800
f 351 54 66
f 678 791 679
f 682 679 791
f 791 311 682
f 720 458 473
f 483 801 9
f 257 566 230
f 802 803 130
f 383 42 358
f 783 386 784
f 386 686 784
f 786 391 189
f 292 41 40
f 598 804 150
f 553 805 716
f 805 806 716
f 24 394 752
f 217 741 448
f 752 333 24
f 356 605 486
f 807 589 358
f 423 422 446
f 597 32 270
f 295 808 296
f 752 238 333
f 270 271 597
f 809 810 283
f 159 628 462
f 628 811 462
f 784 811 628
f 812 462 784
f 462 811 784
f 343 386 783
f 783 525 343
f 309 804 683
f 753 499 813
f 148 147 101
f 131 8 223
f 580 581 814
f 581 815 814
f 736 359 590
f 359 589 590
f 129 584 217
f 795 278 651
f 816 698 817
f 698 818 817
f 819 514 820
f 216 796 501
f 576 771 3
f 821 814 469
f 384 107 330
f 822 594 593
f 663 664 488
f 638 324 521
f 283 784 718
f 823 139 45
f 374 769 335
f 824 123 644
f 451 681 58
f 451 162 197
f 451 58 629
f 825 87 567
f 149 690 185
f 168 19 826
f 202 220 203
f 471 438 472
f 438 439 472
f 471 99 203
f 219 827 265
f 828 75 436
f 84 804 309
f 821 469 653
f 534 536 625
f 505 507 757
f 381 829 222
f 534 625 830
f 763 764 735
f 589 211 213
f 691 831 79
f 708 833 832
f 259 440 260
f 799 415 766
f 799 458 415
f 468 458 322
f 760 778 757
f 249 254 96
f 834 835 836
f 837 444 287
f 287 286 837
f 18 838 248
f 500 562 839
f 343 837 286
f 569 575 808
f 569 808 156
f 808 575 296
f 725 608 607
f 416 748 677
f 823 665 408
f 311 361 682
f 840 841 842
f 667 669 843
f 844 109 381
f 794 780 739
f 614 748 845
f 59 310 60
f 19 580 846
f 82 89 80
f 343 848 847
f 828 436 447
f 295 144 393
f 727 406 835
f 406 298 835
f 849 772 771
f 832 623 850
f 623 777 850
f 412 291 562
f 852 369 83
f 286 285 853
f 852 281 484
f 686 718 784
f 426 174 287
f 578 353 456
f 577 459 578
f 854 323 640
f 307 639 520
f 336 338 37
f 2 3 772
f 95 250 843
f 421 855 856
f 657 656 411
f 761 181 183
f 83 281 852
f 461 125 126
f 619 486 605
f 486 619 178
f 595 648 607
f 802 829 803
f 802 131 222
f 803 829 654
f 478 397 495
f 857 714 715
f 683 804 598
f 858 381 222
f 802 130 131
f 485 227 156
f 228 229 599
f 286 853 352
f 520 465 133
f 218 570 156
f 543 455 854
f 276 859 393
f 719 487 284
f 334 789 587
f 789 804 587
f 453 452 627
f 30 750 529
f 835 298 86
f 207 201 200
f 403 271 118
f 191 247 111
f 670 661 660
f 860 861 862
f 327 190 316
f 190 410 316
f 586 327 428
f 445 863 423
f 477 90 140
f 576 864 145
f 141 669 668
f 294 865 560
f 866 435 141
f 306 867 713
f 358 574 573
f 868 166 135
f 621 869 622
f 683 556 775
f 201 207 871
f 872 833 708
f 873 124 283
f 533 831 289
f 645 607 609
f 249 874 634
f 259 53 440
f 728 172 324
f 450 128 325
f 357 544 875
f 848 343 525
f 343 847 837
f 500 499 753
f 560 436 876
f 877 874 249
f 477 593 51
f 773 522 720
f 702 701 112
f 834 727 835
f 291 538 562
f 432 642 737
f 218 575 570
f 569 570 575
f 749 171 190
f 329 504 463
f 497 293 62
f 200 588 206
f 326 607 648
f 878 363 242
f 830 499 498
f 156 808 485
f 808 295 485
f 201 871 199
f 587 804 84
f 847 848 544
f 414 627 245
f 879 724 495
f 289 831 263
f 529 751 731
f 674 354 549
f 500 839 498
f 234 27 315
f 695 449 335
f 496 262 494
f 400 52 41
f 764 590 213
f 258 280 28
f 501 880 392
f 830 625 881
f 625 464 881
f 153 152 360
f 360 882 153
f 360 359 882
f 271 583 597
f 283 810 873
f 281 83 127
f 132 641 883
f 756 777 624
f 416 845 748
f 64 66 491
f 133 841 476
f 38 527 404
f 527 38 37
f 417 527 338
f 404 527 417
f 884 181 454
f 659 581 676
f 497 62 163
f 2 772 849
f 630 632 886
f 515 831 533
f 676 199 659
f 437 588 676
f 432 431 642
f 524 513 726
f 881 499 830
f 117 641 132
f 6 614 845
f 884 506 750
f 506 751 750
f 763 735 432
f 764 184 735
f 887 661 699
f 526 89 82
f 150 857 598
f 823 45 135
f 519 883 141
f 128 649 116
f 755 87 297
f 265 827 166
f 90 528 140
f 631 647 792
f 497 824 293
f 881 464 204
f 74 294 560
f 682 878 673
f 512 666 726
f 333 426 425
f 655 384 385
f 481 644 870
f 474 203 220
f 97 204 98
f 279 556 683
f 720 721 773
f 48 470 662
f 481 870 482
f 888 61 181
f 9 523 698
f 13 310 11
f 889 70 308
f 70 890 596
f 596 890 889
f 889 890 70
f 204 97 813
f 883 641 141
f 175 853 285
f 33 891 270
f 537 863 445
f 601 892 893
f 789 788 804
f 788 894 804
f 74 876 75
f 568 476 841
f 720 473 591
f 895 750 30
f 191 410 190
f 434 657 402
f 172 171 273
f 692 221 896
f 583 389 597
f 844 897 460
f 812 125 462
f 271 503 865
f 870 644 122
f 447 537 445
f 691 494 264
f 328 4 329
f 242 898 899
f 637 606 702
f 894 788 149
f 761 422 339
f 483 548 481
f 275 276 393
f 895 900 750
f 813 881 204
f 813 499 881
f 52 723 41
f 696 698 816
f 901 902 134
f 510 588 437
f 862 886 903
f 64 491 12
f 444 904 443
f 787 708 759
f 171 77 272
f 838 902 248
f 401 405 905
f 662 873 809
f 873 810 809
f 108 381 109
f 168 167 19
f 460 897 765
f 2 205 1
f 898 242 399
f 221 474 220
f 52 594 723
f 901 134 136
f 290 818 906
f 649 378 114
f 519 132 883
f 294 74 118
f 506 505 751
f 415 522 907
f 889 308 349
f 558 768 346
f 768 347 346
f 385 739 738
f 713 857 150
f 866 141 641
f 891 33 7
f 55 909 908
f 271 865 294
f 562 538 839
f 901 165 219
f 228 104 177
f 524 765 897
f 3 1 576
f 755 297 405
f 910 798 904
f 825 379 378
f 529 531 30
f 911 862 912
f 205 2 585
f 29 480 30
f 548 10 481
f 484 280 164
f 280 123 164
f 484 164 163
f 685 435 391
f 434 710 656
f 710 717 656
f 683 775 493
f 468 232 775
f 49 662 809
f 713 150 149
f 875 848 525
f 393 859 295
f 843 669 93
f 388 40 39
f 171 78 77
f 379 913 709
f 907 914 915
f 447 817 828
f 221 260 474
f 916 290 75
f 339 845 416
f 917 918 919
f 918 867 919
f 169 389 583
f 365 920 157
f 671 869 921
f 759 850 760
f 850 777 760
f 369 758 781
f 364 4 328
f 258 123 280
f 258 15 123
f 896 53 260
f 896 210 53
f 283 282 809
f 382 348 383
f 348 347 383
f 683 598 331
f 493 231 230
f 510 101 206
f 101 147 781
f 10 548 481
f 681 528 526
f 458 799 322
f 561 229 177
f 176 178 619
f 54 790 372
f 816 817 922
f 321 312 836
f 836 835 86
f 448 649 128
f 329 4 739
f 86 321 836
f 172 273 324
f 695 420 449
f 695 335 84
f 165 166 827
f 504 329 739
f 157 636 923
f 895 30 480
f 895 480 61
f 317 836 312
f 509 148 101
f 265 166 266
f 745 664 353
f 684 599 380
f 589 807 694
f 899 898 399
f 786 146 93
f 786 93 685
f 786 685 391
f 439 440 924
f 771 576 575
f 635 913 379
f 925 892 647
f 9 697 696
f 174 370 287
f 374 269 769
f 269 734 769
f 355 552 340
f 825 926 87
f 249 631 630
f 580 821 846
f 620 561 619
f 561 176 619
f 177 176 561
f 360 574 358
f 86 87 741
f 441 237 236
f 235 237 8
f 523 539 538
f 445 423 446
f 864 300 257
f 300 256 257
f 104 228 579
f 599 579 228
f 707 814 815
f 927 923 604
f 923 636 604
f 849 584 2
f 584 585 2
f 917 470 22
f 755 401 547
f 9 539 523
f 334 431 788
f 431 430 788
f 842 841 133
f 284 487 475
f 331 650 277
f 340 507 454
f 507 506 454
f 376 511 693
f 511 510 693
f 290 928 302
f 352 853 550
f 175 550 853
f 583 85 169
f 470 917 662
f 917 873 662
f 823 342 665
f 626 627 414
f 218 584 849
f 79 831 515
f 388 290 302
f 388 302 301
f 293 824 10
f 541 574 188
f 188 574 360
f 263 831 264
f 264 831 691
f 540 539 9
f 106 737 5
f 218 849 575
f 849 771 575
f 217 155 741
f 767 89 526
f 749 774 171
f 478 495 494
f 250 96 843
f 897 616 524
f 677 759 551
f 179 822 593
f 865 503 502
f 560 865 502
f 763 432 736
f 359 737 882
f 754 741 825
f 741 926 825
f 825 378 754
f 707 469 814
f 788 430 149
f 694 684 367
f 761 545 181
f 565 564 904
f 929 613 930
f 221 536 208
f 221 625 536
f 606 931 483
f 606 536 931
f 885 721 591
f 458 720 522
f 932 933 446
f 862 630 886
f 31 207 206
f 543 854 640
f 854 455 323
f 846 826 19
f 524 934 765
f 769 734 402
f 763 736 590
f 598 857 715
f 437 580 19
f 852 484 935
f 852 935 369
f 369 935 484
f 473 579 733
f 54 800 790
f 704 706 820
f 759 677 787
f 677 748 787
f 634 874 547
f 547 611 851
f 493 775 231
f 936 22 392
f 558 346 909
f 514 646 251
f 892 925 937
f 362 361 311
f 362 311 224
f 525 927 875
f 895 888 181
f 152 188 360
f 659 199 660
f 199 871 660
f 828 916 75
f 383 773 42
f 847 544 444
f 489 776 542
f 776 348 542
f 541 542 348
f 909 346 908
f 325 838 18
f 453 626 938
f 548 644 481
f 245 627 452
f 142 40 301
f 244 643 276
f 755 405 401
f 755 567 87
f 102 391 435
f 270 32 33
f 222 616 858
f 534 830 535
f 179 593 477
f 702 112 172
f 385 504 739
f 317 840 836
f 840 834 836
f 81 58 82
f 227 244 246
f 726 666 100
f 95 843 93
f 581 659 815
f 304 94 146
f 887 699 659
f 515 39 79
f 698 697 9
f 795 796 278
f 844 858 897
f 678 674 790
f 674 549 790
f 707 815 872
f 446 816 922
f 64 12 65
f 526 82 58
f 929 930 599
f 123 824 497
f 257 939 864
f 230 939 257
f 864 939 145
f 145 939 230
f 172 728 702
f 637 702 638
f 702 728 638
f 31 206 101
f 357 875 927
f 694 807 358
f 599 684 694
f 42 694 358
f 901 136 165
f 642 794 261
f 5 737 642
f 878 682 363
f 723 879 41
f 471 203 438
f 296 145 144
f 652 639 307
f 395 282 284
f 463 504 385
f 49 809 282
f 940 750 900
f 559 909 55
f 855 537 502
f 856 855 173
f 931 536 535
f 208 536 606
f 173 855 502
f 708 787 469
f 802 222 829
f 5 364 107
f 36 829 381
f 320 829 36
f 654 829 320
f 179 180 822
f 179 477 140
f 295 859 643
f 643 859 276
f 242 899 878
f 899 806 878
f 899 941 942
f 942 806 899
f 454 506 884
f 731 762 529
f 200 199 588
f 891 7 119
f 673 943 26
f 10 824 644
f 845 339 421
f 927 356 357
f 944 392 22
f 204 203 98
f 703 945 53
f 945 333 53
f 311 225 224
f 362 224 946
f 418 905 405
f 744 22 24
f 844 460 109
f 768 453 773
f 453 768 558
f 773 947 768
f 947 383 768
f 773 383 947
f 580 814 821
f 774 948 171
f 1 300 864
f 472 740 373
f 949 647 646
f 128 450 17
f 365 158 366
f 58 681 526
f 950 414 415
f 211 589 694
f 81 224 58
f 951 912 952
f 538 291 523
f 80 224 81
f 595 607 645
f 701 113 112
f 265 267 46
f 696 932 293
f 932 63 293
f 696 293 10
f 696 10 9
f 932 183 63
f 425 443 797
f 866 641 102
f 102 435 866
f 1 864 576
f 4 794 739
f 576 145 296
f 331 598 715
f 719 284 283
f 686 487 718
f 487 719 718
f 47 16 901
f 248 902 16
f 739 780 402
f 69 629 68
f 553 413 805
f 805 413 26
f 444 837 847
f 544 848 875
f 6 856 120
f 880 501 796
f 98 203 99
f 915 950 907
f 907 950 415
f 950 626 414
f 773 907 522
f 773 914 907
f 111 409 191
f 953 820 514
f 761 339 341
f 761 341 545
f 954 860 912
f 860 911 912
f 168 826 320
f 320 826 654
f 813 955 753
f 97 955 813
f 609 608 955
f 609 955 97
f 507 551 757
f 551 760 757
f 397 39 41
f 113 122 14
f 461 462 125
f 686 488 487
f 565 904 444
f 101 758 31
f 781 758 101
f 261 794 4
f 931 535 801
f 535 540 801
f 621 623 956
f 170 190 171
f 275 414 245
f 700 702 606
f 700 606 483
f 67 95 43
f 369 781 368
f 397 41 879
f 397 879 495
f 510 437 693
f 510 206 588
f 332 924 333
f 924 440 53
f 333 924 53
f 439 924 740
f 332 740 924
f 957 958 959
f 782 722 594
f 724 879 723
f 180 594 822
f 180 782 594
f 401 905 465
f 905 960 465
f 267 962 961
f 856 173 121
f 500 899 399
f 243 363 90
f 521 571 209
f 572 53 571
f 166 136 135
f 165 827 219
f 389 596 597
f 453 57 313
f 57 559 55
f 22 936 917
f 918 917 936
f 392 918 936
f 279 278 104
f 279 104 556
f 683 277 279
f 517 380 599
f 769 402 780
f 359 736 737
f 186 961 314
f 961 46 267
f 961 186 105
f 873 963 124
f 803 654 130
f 867 714 713
f 714 857 713
f 635 611 913
f 87 926 741
f 863 855 421
f 703 272 174
f 426 945 703
f 333 945 426
f 600 602 964
f 602 952 964
f 488 664 475
f 821 653 846
f 653 826 846
f 826 653 654
f 537 855 863
f 421 423 863
f 283 546 784
f 915 626 950
f 915 914 938
f 938 626 915
f 914 773 453
f 216 779 796
f 796 779 278
f 331 715 650
f 880 715 392
f 880 796 715
f 365 157 158
f 916 818 290
f 946 224 80
f 729 622 730
f 632 903 886
f 586 948 774
f 244 276 245
f 364 328 330
f 858 844 381
f 39 396 79
f 897 858 616
f 872 708 707
f 910 904 564
f 682 361 363
f 103 391 102
f 189 391 390
f 845 856 6
f 599 733 579
f 340 552 507
f 599 694 42
f 564 743 798
f 443 904 797
f 904 798 797
f 910 564 798
f 540 498 538
f 498 839 538
f 535 830 540
f 830 498 540
f 9 801 540
f 931 801 483
f 573 541 348
f 382 573 348
f 908 346 617
f 908 617 55
f 916 828 817
f 916 817 818
f 122 482 870
f 122 965 482
f 47 901 219
f 408 966 823
f 966 408 514
f 966 514 251
f 823 966 139
f 966 251 139
f 823 135 342
f 623 624 777
f 491 492 12
f 867 918 714
f 349 967 889
f 375 32 597
f 392 714 918
f 307 843 96
f 141 968 669
f 669 968 93
f 93 968 141
f 390 187 189
f 923 525 157
f 532 641 117
f 390 103 532
f 775 556 468
f 292 400 41
f 840 317 56
f 56 55 568
f 56 568 840
f 568 841 840
f 969 834 840
f 840 842 969
f 418 727 969
f 727 834 969
f 418 969 960
f 969 842 960
f 842 465 960
f 842 133 465
f 586 774 327
f 362 946 91
f 923 927 525
f 356 927 604
f 596 970 100
f 100 970 726
f 889 970 596
f 726 970 889
f 938 914 453
f 171 948 687
f 171 687 78
f 944 357 356
f 392 944 214
f 356 214 944
f 425 797 333
f 333 797 24
f 362 91 363
f 500 941 899
f 943 673 878
f 26 943 805
f 943 878 806
f 806 805 943
f 642 431 794
f 334 770 431
f 794 431 780
f 431 770 780
f 774 749 327
f 646 249 251
f 812 784 125
f 784 546 125
f 149 150 804
f 149 804 894
f 403 85 271
f 888 895 61
f 785 213 185
f 289 290 533
f 567 547 851
f 399 618 400
f 398 562 399
f 743 971 22
f 22 971 563
f 971 564 563
f 743 564 971
f 563 565 357
f 565 444 357
f 22 563 944
f 357 944 563
f 418 960 905
f 219 265 46
f 868 135 711
f 868 266 166
f 868 711 266
f 929 599 613
f 885 930 613
f 591 930 885
f 599 930 733
f 733 930 591
f 856 121 120
f 412 400 292
f 90 477 243
f 243 477 241
f 91 90 363
f 518 517 229
f 277 650 651
f 331 277 683
f 795 651 650
f 795 650 715
f 610 547 874
f 672 734 269
f 509 101 510
f 557 790 549
f 465 639 652
f 972 872 671
f 872 699 671
f 825 567 379
f 620 636 920
f 620 920 365
f 792 892 633
f 517 599 229
f 12 492 13
f 13 492 92
f 856 845 421
f 687 948 252
f 466 687 252
f 252 948 428
f 428 948 586
f 185 690 184
f 965 701 482
f 701 700 482
f 700 483 482
f 965 113 701
f 965 122 113
f 637 208 606
f 874 877 610
f 773 721 613
f 613 721 885
f 80 89 91
f 667 843 307
f 667 307 668
f 652 96 254
f 465 652 401
f 652 689 401
f 520 141 668
f 520 133 132
f 519 141 520
f 767 90 89
f 80 91 946
f 241 618 399
f 558 909 559
f 765 69 460
f 270 891 119
f 884 940 900
f 884 900 181
f 181 900 895
f 920 636 157
f 436 75 876
f 560 876 74
f 967 934 889
f 765 934 973
f 889 934 726
f 726 934 524
f 629 973 349
f 973 967 349
f 973 934 967
f 765 973 69
f 69 973 629
f 735 690 432
f 919 963 873
f 919 873 917
f 124 963 974
f 867 974 919
f 974 963 919
f 306 974 867
f 124 974 306
f 709 592 114
f 709 514 592
f 709 975 514
f 372 511 376
f 511 372 148
f 928 142 302
f 906 818 712
f 142 906 712
f 928 906 142
f 290 906 928
f 712 698 523
f 712 818 698
f 660 871 530
f 364 330 107
f 557 148 372
f 351 800 54
f 678 790 791
f 790 800 791
f 901 16 902
f 42 613 599
f 175 285 370
f 235 666 236
f 235 8 666
f 95 137 43
f 43 137 411
f 304 417 137
f 417 976 137
f 417 338 976
f 137 976 411
f 976 338 411
f 922 817 447
f 446 922 447
f 933 816 446
f 446 183 932
f 932 696 816
f 933 932 816
f 370 285 287
f 925 746 977
f 746 958 977
f 877 630 862
f 978 695 84
f 194 196 978
f 196 695 978
f 194 978 407
f 84 407 978
f 732 640 595
f 24 798 744
f 743 744 798
f 851 379 567
f 385 738 337
f 738 402 657
f 738 657 337
f 555 716 725
f 716 979 725
f 942 941 979
f 716 806 942
f 942 979 716
f 941 500 753
f 941 753 955
f 979 608 725
f 608 979 955
f 979 941 955
f 59 58 224
f 59 224 11
f 505 731 751
f 692 896 260
f 896 221 210
f 571 53 210
f 571 210 209
f 53 572 980
f 981 521 324
f 980 981 272
f 981 324 272
f 53 980 703
f 272 703 980
f 572 981 980
f 521 981 572
f 277 651 278
f 5 642 261
f 106 153 882
f 882 737 106
f 884 750 940
f 213 785 764
f 185 184 785
f 314 961 420
f 961 962 420
f 961 105 46
f 962 449 420
f 672 269 268
f 83 557 127
f 962 267 449
f 134 838 342
f 342 838 982
f 982 838 325
f 116 982 325
f 838 134 902
f 342 982 665
f 116 115 982
f 982 115 665
f 833 872 972
f 249 630 877
f 937 925 977
f 699 872 659
f 872 815 659
f 122 644 123
f 975 709 913
f 578 459 353
f 832 956 623
f 621 956 869
f 956 921 869
f 379 851 611
f 862 861 611
f 972 671 921
f 531 530 207
f 530 871 207
f 660 530 983
f 600 964 633
f 984 913 860
f 913 861 860
f 659 661 887
f 611 861 913
f 975 913 984
f 937 977 892
f 925 647 746
f 647 631 249
f 833 972 956
f 972 921 956
f 862 610 877
f 850 708 832
f 708 850 759
f 983 529 762
f 530 985 983
f 529 985 530
f 983 985 529
f 983 730 660
f 730 670 660
f 762 730 983
f 646 647 249
f 958 986 977
f 862 611 610
f 792 647 892
f 730 622 869
f 903 912 862
f 603 601 893
f 957 951 986
f 951 602 986
f 600 633 601
f 964 632 633
f 892 601 633
f 903 632 952
f 632 964 952
f 952 912 903
f 953 975 984
f 778 777 756
f 729 756 622
f 756 624 622
f 949 646 514
f 977 893 892
f 746 747 958
f 893 977 603
f 986 602 977
f 602 603 977
f 602 951 952
f 954 987 860
f 987 704 860
f 747 705 958
f 705 959 958
f 953 514 975
f 767 528 90
f 833 956 832
f 704 820 953
f 655 107 384
f 911 860 862
f 951 957 987
f 957 959 987
f 954 912 951
f 987 705 704
f 819 820 746
f 820 706 746
f 959 705 987
f 778 756 757
f 671 670 869
f 670 730 869
f 731 505 757
f 949 514 647
f 404 417 255
f 819 647 514
f 819 746 647
f 953 984 704
f 984 860 704
f 954 951 987
f 986 958 957
f 509 511 148
