v 0.391717 -0.094836 -0.123107
v 0.375856 -0.094943 -0.138115
v 0.385643 0.028735 0.086186
v 0.385516 0.028487 0.087288
v 0.432381 0.000170 0.068246
v -0.351549 -0.128200 -0.144671
v -0.348259 -0.109820 -0.172177
v -0.350054 -0.128816 -0.145041
v -0.347325 -0.110186 -0.172347
v 0.398477 0.002065 -0.102591
v 0.395843 -0.032326 -0.128738
v 0.399760 -0.028395 -0.120950
v -0.110908 0.056622 0.143275
v -0.140333 0.056351 0.135837
v -0.350351 0.051250 0.092990
v -0.392548 0.040949 0.084609
v -0.389988 0.039870 0.139934
v 0.126091 0.061666 -0.086465
v 0.132349 0.062853 -0.096517
v 0.118018 0.063474 -0.101514
v 0.373151 -0.027682 0.167174
v 0.331978 -0.024598 0.198259
v 0.358798 -0.002658 0.172208
v 0.306894 0.054576 -0.106858
v 0.286378 0.054235 -0.153920
v 0.302409 0.055716 -0.103057
v -0.377797 -0.145337 -0.045396
v -0.388711 -0.133831 -0.057901
v -0.358502 -0.150942 -0.080224
v -0.360180 -0.147721 -0.088105
v -0.442551 -0.030594 0.040745
v -0.441792 0.005535 0.038688
v -0.441996 -0.016283 -0.010740
v 0.415322 -0.006423 0.104182
v -0.187216 -0.159200 0.078542
v -0.209270 -0.160352 0.081988
v -0.204254 -0.168577 0.063315
v -0.078557 0.115401 -0.000423
v 0.334197 0.002683 -0.177801
v 0.316743 0.024318 -0.179059
v 0.151290 0.060899 -0.174149
v 0.165031 0.065301 -0.137250
v 0.188772 0.063568 -0.172536
v 0.297841 -0.085095 0.193633
v 0.297887 -0.090058 0.191084
v 0.307596 -0.093776 0.188209
v 0.113809 0.058230 -0.175762
v -0.315585 -0.103391 -0.188739
v -0.318432 -0.076606 -0.202625
v -0.304648 -0.101157 -0.191540
v -0.305244 -0.072279 -0.205850
v -0.426133 -0.035872 -0.141908
v -0.436842 -0.034904 -0.116427
v -0.433704 -0.012540 -0.126939
v 0.239976 -0.181021 0.096968
v 0.288803 -0.180770 0.080259
v 0.267874 -0.173710 0.105239
v -0.414703 0.027987 0.085477
v -0.119180 -0.075760 -0.163999
v -0.122559 -0.098781 -0.145765
v -0.123073 -0.074825 -0.166428
v -0.285909 0.058036 0.051311
v -0.314769 0.054197 0.102226
v -0.268925 0.058700 0.073567
v -0.053100 0.110187 0.000304
v -0.028333 0.099764 0.001010
v -0.006499 -0.182843 -0.049315
v 0.009899 -0.177191 -0.072593
v 0.026171 -0.185038 -0.054112
v 0.410735 -0.093305 -0.100894
v -0.382269 0.043281 -0.009053
v 0.447491 -0.031231 0.061805
v 0.439429 0.001499 0.044219
v -0.388294 0.041682 0.056211
v -0.406839 0.024354 -0.147379
v -0.381500 0.039806 -0.158235
v 0.342608 -0.024635 -0.175374
v 0.310308 -0.040492 -0.185568
v -0.439031 -0.055899 0.065568
v -0.196165 0.098109 0.042249
v -0.206438 0.088393 0.064492
v -0.187605 0.084175 0.101565
v -0.362224 0.050241 0.150975
v -0.332029 0.017072 0.185608
v -0.326893 0.058324 0.162383
v -0.423069 0.007624 -0.137545
v 0.379882 0.036117 0.012643
v 0.150636 -0.088735 -0.178360
v 0.171172 -0.066119 -0.184725
v -0.433369 -0.028688 -0.109750
v -0.430741 0.005071 0.089120
v -0.441995 -0.003636 0.063845
v -0.245931 0.054886 -0.129339
v -0.219365 0.052678 -0.135163
v -0.242680 0.062501 -0.187863
v -0.170802 0.040821 -0.150547
v -0.157397 0.027492 -0.187654
v -0.176898 0.043062 -0.189137
v 0.129523 -0.192088 -0.057472
v 0.132399 -0.192837 -0.055219
v 0.129012 -0.192359 -0.056592
v -0.441397 -0.023218 -0.072608
v -0.434696 -0.055931 -0.086739
v -0.434777 -0.055566 -0.048634
v -0.317231 0.058253 -0.177066
v -0.353153 0.050173 -0.167684
v -0.311852 0.059660 -0.144831
v 0.068932 0.017293 0.199594
v 0.056087 0.050499 0.181650
v 0.020507 0.018887 0.192995
v 0.085029 0.052485 0.004252
v 0.097900 0.053365 0.048147
v 0.123395 0.053764 0.005342
v -0.216373 0.087011 0.054961
v -0.211303 0.074416 0.097378
v -0.230313 0.078959 0.060159
v 0.454461 -0.037809 -0.017238
v 0.453135 -0.038646 -0.024059
v 0.451242 -0.035239 -0.032108
v -0.232579 -0.178407 -0.048128
v -0.209335 -0.164902 -0.079600
v -0.226972 -0.178599 -0.046021
v 0.066624 -0.101741 -0.171522
v 0.033400 -0.074948 -0.180554
v 0.079309 -0.080898 -0.180087
v -0.183644 -0.133668 0.114484
v -0.190355 -0.130296 0.120876
v -0.203923 -0.141002 0.112140
v -0.132447 -0.074754 0.162862
v -0.128421 -0.075690 0.160661
v -0.414669 0.024413 0.127660
v -0.087867 -0.098667 -0.152631
v -0.353945 0.049620 0.060871
v -0.336132 0.051974 0.051763
v 0.404625 -0.005940 0.118419
v 0.391892 0.002113 0.128765
v -0.126310 0.020357 0.161399
v -0.152586 0.028220 0.156942
v -0.142920 0.017901 0.162649
v -0.147531 -0.003621 0.179741
v -0.137422 0.007371 0.166531
v -0.106632 0.115988 -0.001221
v -0.091982 0.115765 0.038074
v 0.098044 0.060909 0.103261
v 0.095090 0.062988 0.114832
v 0.120475 0.061713 0.104137
v -0.272498 0.057094 -0.123515
v -0.264409 0.058666 -0.085099
v 0.114681 -0.086771 0.190161
v 0.100459 -0.103032 0.182822
v 0.135419 -0.105009 0.181634
v -0.300593 0.057278 0.020224
v -0.260712 0.079022 -0.005599
v 0.078290 0.024934 0.198213
v 0.103521 0.058307 0.185600
v -0.425078 0.005028 -0.109807
v -0.436896 -0.012012 -0.094898
v -0.335389 0.055018 -0.140448
v 0.331592 0.049742 -0.088086
v 0.354816 0.043473 -0.075504
v 0.340130 0.037498 -0.134128
v -0.308653 -0.030169 -0.210289
v -0.347806 -0.017957 -0.201047
v -0.336444 0.001399 -0.200891
v 0.056877 0.066693 -0.153528
v 0.066226 0.050422 -0.174514
v 0.021895 0.063516 -0.154630
v -0.195083 0.046749 -0.142855
v -0.205610 0.055725 -0.189558
v 0.205253 0.027354 0.198213
v 0.184058 0.008588 0.199467
v 0.314689 0.048373 -0.145724
v -0.424330 -0.066563 0.108624
v -0.436493 -0.058478 0.086043
v 0.032173 -0.173043 0.096254
v 0.033412 -0.172709 0.097685
v 0.031181 -0.172159 0.097881
v -0.094917 -0.141991 0.108922
v -0.132195 -0.132139 0.111652
v -0.103566 -0.152104 0.093380
v -0.131842 -0.144117 0.098121
v -0.435855 -0.022848 -0.101925
v -0.270932 0.061005 -0.135647
v -0.052445 0.027112 -0.170558
v -0.042985 0.058583 -0.153593
v -0.016900 0.034863 -0.171912
v -0.418932 0.026177 -0.068926
v -0.437752 -0.003668 -0.085210
v -0.438980 0.005514 -0.060085
v -0.097576 0.019433 0.167589
v -0.129890 -0.023052 0.172143
v -0.420094 -0.093892 0.066548
v 0.100893 0.000370 0.204173
v 0.101128 0.000294 0.204201
v -0.287813 -0.183102 0.010871
v -0.287471 -0.180932 0.028425
v -0.308221 -0.178430 0.027078
v -0.292894 -0.176312 0.048854
v 0.287830 0.054902 -0.043424
v 0.303483 0.054882 -0.017753
v -0.101545 0.096157 -0.123367
v -0.065924 0.090783 -0.134078
v -0.108502 0.096209 0.121023
v -0.257860 -0.163624 -0.098515
v -0.276947 -0.170407 -0.081477
v -0.261943 -0.160972 -0.106027
v 0.411158 0.020050 -0.030689
v 0.441128 0.001485 -0.015476
v 0.435459 0.000147 -0.039866
v -0.344598 0.051207 -0.109118
v -0.032506 0.099939 0.036404
v 0.008004 0.079171 0.002050
v 0.407295 0.022802 0.047837
v -0.191567 0.057338 0.117015
v -0.179194 0.040884 0.144244
v -0.165950 0.056844 0.126426
v 0.067912 -0.043291 -0.191097
v 0.216874 -0.017074 0.206453
v 0.281013 0.037861 0.199706
v 0.305971 0.024374 0.200450
v -0.439853 -0.035756 0.084906
v 0.289663 -0.181566 0.077336
v 0.290578 -0.181049 0.078348
v 0.289742 -0.181109 0.078819
v 0.247285 -0.196964 0.044668
v 0.269754 -0.193146 0.046648
v 0.252756 -0.192197 0.062554
v -0.137172 -0.003699 -0.184168
v -0.126278 -0.045966 -0.177385
v -0.175154 -0.045893 -0.196574
v 0.125791 -0.049289 -0.189838
v -0.418411 0.030692 -0.010079
v -0.221886 -0.125084 -0.160589
v -0.221316 -0.125872 -0.159059
v -0.223451 -0.126018 -0.159851
v 0.129793 0.066836 0.153928
v 0.102733 0.068310 0.157797
v -0.360444 -0.088610 0.170586
v -0.373641 -0.067593 0.174752
v -0.379161 -0.082195 0.163801
v 0.111440 0.068245 -0.148053
v 0.138236 0.066773 -0.142651
v 0.404252 -0.093255 0.127776
v 0.408838 -0.060278 0.133013
v 0.428098 -0.066697 0.105191
v 0.059806 -0.143585 0.146844
v 0.048758 -0.140909 0.148427
v 0.055548 -0.151958 0.136474
v 0.022674 -0.100377 -0.169950
v -0.002664 -0.069485 -0.179530
v 0.028037 -0.087663 -0.175252
v 0.269159 0.002283 0.210861
v 0.259797 0.041822 0.198954
v 0.089104 -0.156807 0.134650
v 0.074815 -0.164307 0.121938
v 0.109217 -0.163556 0.127243
v 0.161348 0.061583 -0.092471
v 0.180045 0.058747 -0.073781
v 0.167317 0.062143 -0.100841
v -0.073548 0.090840 0.133746
v -0.055267 0.095770 0.103331
v -0.371495 0.011681 -0.183831
v 0.154066 -0.145871 0.150044
v 0.158766 -0.169895 0.120614
v 0.156414 -0.147249 0.148555
v 0.180438 -0.171773 0.118866
v -0.245722 0.060325 -0.097383
v -0.229423 0.064616 -0.102764
v 0.365343 -0.126376 0.133969
v 0.395386 -0.118061 0.112201
v 0.384006 -0.094776 0.148876
v -0.434859 -0.055201 -0.010529
v 0.026750 -0.009213 0.198751
v -0.283192 0.068067 -0.006236
v -0.171898 -0.153945 0.085855
v -0.154490 -0.155364 0.082056
v -0.145510 -0.139868 0.102917
v -0.442032 -0.030419 0.069931
v -0.441052 -0.022809 0.080650
v -0.441691 -0.011976 0.073569
v -0.442862 -0.034859 0.095077
v -0.022030 0.060405 0.158382
v 0.004507 0.055989 0.124109
v -0.017048 0.070590 0.117053
v -0.254064 -0.138192 0.137205
v -0.248241 -0.138924 0.134660
v -0.242888 -0.135766 0.138540
v 0.440566 -0.093206 -0.010479
v 0.423946 -0.119441 -0.007152
v 0.438270 -0.093164 -0.035402
v 0.149177 -0.202049 0.006449
v 0.144399 -0.201760 0.017456
v 0.140317 -0.201806 0.015998
v -0.049402 0.095726 -0.102674
v -0.430313 0.007678 0.116926
v -0.006686 0.075844 -0.080954
v 0.011454 0.055938 -0.120008
v -0.022008 0.078098 -0.122987
v 0.075341 0.067535 0.158978
v 0.039022 -0.039202 -0.190684
v 0.037909 -0.009298 -0.193230
v -0.305672 0.057112 -0.006874
v -0.343970 0.050197 -0.007963
v 0.076962 -0.197504 0.005397
v 0.085633 -0.198131 0.005994
v 0.074444 -0.197238 0.011208
v -0.321037 0.016990 -0.200529
v -0.253851 -0.184629 -0.002524
v -0.282476 -0.184038 0.003977
v -0.270612 -0.183848 -0.021900
v -0.406466 -0.012852 -0.167348
v -0.391556 -0.002466 -0.176234
v -0.439619 0.008330 -0.010678
v 0.300315 -0.105624 -0.161691
v 0.302766 -0.103451 -0.162906
v 0.303787 -0.105678 -0.161080
v -0.199299 -0.171713 0.054257
v -0.189945 -0.170278 0.056681
v 0.172195 -0.044316 -0.187554
v -0.010809 -0.028743 -0.186683
v -0.038727 -0.064022 -0.178506
v -0.013754 -0.177776 0.068721
v 0.033008 -0.187890 0.053617
v -0.086471 0.115177 -0.043619
v -0.091497 0.112625 -0.069041
v -0.107563 0.114974 -0.054640
v -0.264821 -0.079581 0.191876
v -0.255579 -0.085834 0.188629
v -0.259483 -0.078532 0.192344
v -0.443013 -0.029129 0.060506
v 0.042565 0.051538 -0.039762
v 0.030126 0.052975 -0.081200
v -0.436945 -0.055550 0.027519
v -0.208325 -0.035274 -0.203172
v -0.182614 -0.017483 -0.196214
v -0.416628 -0.030834 -0.158564
v -0.244121 0.030866 -0.198669
v -0.286028 0.003562 -0.208021
v -0.273443 0.034082 -0.199860
v -0.190538 -0.181151 -0.019216
v -0.190924 -0.181183 -0.019030
v -0.190443 -0.181137 -0.019363
v 0.442862 0.002189 0.014444
v 0.331846 0.037561 0.156917
v 0.323456 0.002728 0.200194
v -0.375760 -0.131069 0.098361
v -0.395321 -0.108750 0.107156
v -0.389317 -0.129833 0.068805
v 0.342443 -0.118515 0.159329
v -0.272575 0.064083 -0.150784
v 0.145410 -0.105085 -0.169917
v 0.110573 -0.103106 -0.173095
v 0.125218 -0.086849 -0.179620
v -0.377062 -0.098195 -0.159379
v -0.400199 -0.076361 -0.146280
v -0.382830 -0.086109 -0.163675
v 0.141035 0.060977 0.186120
v -0.225744 0.092475 -0.004607
v -0.226803 0.052734 0.126118
v -0.252995 0.054939 0.118790
v -0.253078 0.062579 0.177402
v -0.101995 -0.136130 -0.112896
v -0.075155 -0.144767 -0.108953
v -0.048223 0.079760 0.145516
v 0.108309 -0.135230 0.159845
v 0.265659 -0.180393 -0.074619
v 0.281100 -0.188052 -0.043196
v 0.244560 -0.192688 -0.047470
v -0.013088 0.060339 -0.155731
v 0.018644 0.042614 -0.173266
v -0.137796 -0.134450 -0.110974
v -0.143175 -0.142085 -0.102271
v -0.147024 -0.133071 -0.113038
v 0.186283 -0.113889 0.177437
v 0.178847 -0.117883 0.173878
v 0.195142 -0.137558 0.158828
v 0.096887 0.054591 -0.045491
v 0.097287 0.054580 -0.045275
v 0.097873 0.054730 -0.046487
v 0.011228 0.070037 0.039995
v 0.046663 0.051207 0.003162
v -0.433536 0.018718 -0.010507
v -0.235001 0.064658 0.093191
v -0.250968 0.060364 0.086894
v -0.227936 -0.074635 0.190993
v -0.231726 -0.096348 0.180597
v -0.385711 -0.063879 -0.177546
v -0.363200 -0.067672 -0.192022
v -0.369335 -0.082268 -0.181396
v 0.161147 -0.044192 0.200742
v 0.213133 -0.022120 0.205933
v 0.169110 -0.015855 0.201047
v -0.051756 0.058649 0.154548
v -0.357741 -0.047051 -0.198423
v -0.381941 0.042398 -0.045959
v 0.011017 -0.153139 0.125076
v 0.008550 -0.155088 0.121561
v 0.013786 -0.154584 0.123591
v -0.280193 0.062778 -0.183839
v -0.029280 -0.126822 -0.139143
v -0.029742 -0.146200 -0.119220
v -0.053175 -0.098553 -0.159496
v 0.367316 -0.094882 0.162961
v 0.365037 -0.066594 0.174521
v 0.352391 -0.090588 0.175485
v -0.356755 -0.148245 -0.092748
v -0.352050 -0.133000 -0.134632
v -0.343513 -0.149551 -0.106452
v -0.195187 -0.100485 0.171171
v -0.058347 -0.016089 -0.180281
v -0.063497 -0.013081 -0.179005
v -0.059406 -0.008904 -0.178863
v -0.030501 0.079355 0.116783
v 0.047948 0.066760 0.160159
v -0.015251 -0.099465 -0.164723
v -0.417569 -0.066614 -0.128884
v -0.409184 -0.094822 -0.104797
v -0.430997 -0.058519 -0.107035
v 0.008654 0.042691 0.177700
v 0.012959 0.063583 0.159271
v 0.373833 -0.014294 -0.146828
v 0.365571 0.026622 -0.122532
v -0.434416 -0.035797 -0.106101
v 0.287003 0.001115 -0.191445
v 0.291774 0.037794 -0.179741
v -0.167920 0.027571 0.182059
v -0.205525 0.074372 -0.105599
v -0.215213 0.058806 -0.110728
v -0.276551 0.050168 -0.194432
v 0.272779 -0.035071 -0.190317
v 0.025410 0.052994 0.086437
v 0.013484 0.067925 0.043806
v 0.006189 0.072227 0.045966
v -0.283155 -0.183856 0.006677
v -0.281332 -0.183919 0.007060
v -0.174520 -0.140308 0.104141
v 0.405110 -0.110905 0.107685
v 0.416424 -0.092821 0.110085
v -0.072882 0.056828 -0.151455
v 0.127998 -0.036474 -0.191648
v -0.037598 0.098828 -0.069397
v -0.039971 0.079698 -0.144384
v -0.055188 -0.011632 -0.179984
v -0.047201 -0.017956 -0.181645
v 0.068824 -0.080821 0.188014
v 0.081088 -0.047451 0.199055
v 0.056960 -0.045158 0.197393
v 0.412506 0.021169 0.013576
v 0.397626 0.027477 -0.038323
v 0.157086 0.055915 0.050116
v 0.161761 0.055042 0.006432
v 0.190891 -0.202743 0.022376
v 0.163670 -0.202171 0.021045
v 0.170544 -0.201427 -0.016860
v -0.384041 0.042414 0.027814
v -0.185275 0.103929 -0.003457
v 0.345728 -0.166834 0.065705
v 0.326366 -0.178377 0.050673
v 0.359889 -0.162217 0.059533
v 0.342355 -0.172022 0.048197
v 0.065542 0.053597 0.077987
v 0.091134 0.053736 0.059625
v 0.040232 0.051525 0.045784
v -0.346470 0.049862 -0.066996
v -0.345794 0.049987 -0.066692
v -0.041588 0.098858 0.070777
v -0.062166 0.027186 0.170959
v -0.086490 0.115123 0.041076
v -0.183036 0.103337 0.039483
v -0.143970 0.111770 -0.002284
v 0.108614 0.054108 0.050463
v -0.076486 -0.026708 0.180319
v -0.075066 -0.024466 0.180621
v 0.348108 -0.067613 -0.167293
v 0.071617 -0.180325 -0.080765
v 0.068280 -0.186315 -0.063233
v 0.062399 -0.182229 -0.073802
v 0.420472 -0.006462 -0.076711
v -0.030486 0.099924 -0.034563
v -0.216163 0.055805 0.181206
v -0.006227 0.075827 -0.079463
v -0.368554 -0.046970 0.181445
v -0.329963 -0.029375 0.194255
v -0.358784 -0.017875 0.184619
v 0.312989 -0.145635 -0.118003
v 0.303025 -0.140433 -0.128943
v 0.328883 -0.135987 -0.124566
v 0.224064 -0.027025 0.206608
v -0.087989 0.019361 -0.169204
v 0.421888 -0.092862 -0.082542
v -0.274404 -0.060151 -0.209505
v -0.272268 -0.090303 -0.199672
v 0.258066 0.060098 -0.162117
v -0.006318 0.075718 -0.080386
v 0.340610 -0.110205 0.167149
v -0.352663 -0.128753 -0.142925
v -0.376996 -0.128167 -0.110677
v -0.394759 -0.108634 -0.116528
v -0.385298 -0.127058 -0.094913
v -0.191105 -0.115825 0.140020
v -0.174907 -0.110808 0.136350
v -0.254565 -0.158945 -0.108644
v -0.206826 -0.162112 -0.085496
v -0.255634 -0.161581 -0.102904
v -0.206918 -0.162417 -0.084863
v -0.283450 -0.183774 0.007989
v -0.282711 -0.183806 0.008721
v 0.427896 -0.054533 -0.087743
v 0.423673 -0.053550 -0.095064
v 0.424791 -0.047837 -0.092566
v 0.209121 -0.083658 0.195161
v 0.218396 -0.077868 0.197401
v 0.208891 -0.079578 0.196756
v -0.102682 0.056560 -0.145703
v 0.180248 -0.107064 -0.166740
v -0.013739 -0.184483 -0.039229
v 0.016004 -0.187660 -0.038415
v 0.357906 0.026683 0.146792
v -0.192247 -0.175584 -0.048009
v 0.309737 0.054237 -0.102962
v 0.305460 0.054886 -0.095658
v 0.098146 0.054593 -0.045202
v 0.144133 0.057861 -0.054669
v 0.397010 0.019926 -0.070659
v -0.398665 -0.129053 -0.013499
v -0.372083 -0.152329 -0.004430
v -0.366079 -0.156933 -0.006060
v 0.033766 -0.172191 0.098668
v 0.027267 -0.167459 0.105444
v 0.384658 0.029218 0.086287
v 0.272507 -0.166288 0.119260
v -0.394283 -0.057479 -0.170616
v 0.130595 -0.167315 0.123145
v 0.150311 -0.178251 0.105746
v -0.363052 -0.116953 0.141611
v -0.363197 -0.105873 0.155486
v -0.376426 -0.110240 0.136893
v -0.371994 -0.102833 0.150960
v -0.133541 0.017830 -0.166850
v 0.420920 -0.048920 -0.098449
v -0.371647 -0.123344 0.121537
v -0.393945 -0.106464 0.114379
v -0.350666 -0.129328 -0.143765
v -0.048925 -0.063945 0.179714
v -0.255131 0.030949 0.188121
v -0.287268 0.050248 0.182038
v -0.284474 0.034164 0.187640
v -0.245989 -0.142211 0.128570
v 0.384558 0.028963 0.087908
v 0.384209 0.029309 0.087211
v 0.342492 0.043741 0.112581
v 0.331488 0.048614 0.108212
v 0.415121 -0.035553 0.122278
v 0.110807 -0.138536 -0.146176
v 0.139852 -0.134894 -0.148945
v -0.203723 0.091760 -0.070274
v -0.232240 0.074421 -0.080328
v -0.097700 -0.181435 0.017067
v -0.108289 -0.180636 -0.017704
v -0.059654 -0.184526 -0.007304
v -0.108158 -0.180558 -0.019101
v -0.186157 -0.045812 0.189986
v 0.130050 -0.062920 0.197606
v 0.140127 -0.088640 0.190358
v -0.188432 -0.115988 -0.153779
v -0.198741 -0.121027 -0.153150
v -0.189496 -0.112507 -0.163118
v 0.111560 -0.034100 -0.192530
v 0.130511 -0.012430 -0.193293
v 0.293348 -0.138709 -0.133299
v 0.293627 -0.146014 -0.124734
v -0.108419 -0.180576 -0.019061
v 0.403076 -0.040704 -0.121662
v 0.423065 -0.040105 -0.093584
v 0.407570 -0.033062 -0.113307
v -0.385156 -0.071159 -0.172892
v -0.284778 -0.183648 0.008047
v -0.119991 -0.023127 -0.175570
v 0.350514 0.045421 -0.074136
v -0.318361 -0.126644 -0.165081
v 0.170379 -0.106986 0.180446
v 0.160625 -0.115627 0.174418
v -0.080535 -0.180786 0.029944
v -0.102343 -0.180717 0.021533
v -0.206313 -0.162553 -0.084330
v 0.170902 -0.154488 -0.127962
v 0.185573 -0.140405 -0.140681
v 0.193948 -0.152533 -0.128467
v -0.295155 0.030345 -0.200259
v -0.280412 -0.120039 0.164885
v -0.291594 -0.129836 0.152960
v -0.247061 -0.133192 0.143251
v 0.151268 -0.147030 0.148674
v 0.211413 -0.018552 0.205689
v 0.398832 0.015167 -0.077819
v 0.410603 -0.005985 -0.091533
v 0.071484 0.004414 0.201841
v -0.212030 -0.147762 0.105335
v -0.223025 -0.148724 0.107845
v -0.217097 -0.151730 0.100417
v 0.435181 -0.043717 0.093305
v -0.395682 -0.045946 -0.173510
v -0.440186 -0.026440 -0.079388
v -0.349234 -0.108372 -0.173018
v -0.352366 -0.108789 -0.170448
v -0.363249 -0.093037 -0.178029
v -0.373786 -0.100555 -0.160650
v -0.167227 0.103262 0.068247
v 0.182031 -0.104087 -0.169287
v 0.173643 -0.102677 -0.170006
v -0.295533 -0.100380 0.181108
v -0.294806 -0.122177 0.162128
v -0.441353 -0.020994 -0.070991
v -0.194446 0.000824 -0.196088
v -0.216863 0.019504 -0.197091
v 0.100884 0.000156 0.204193
v 0.098392 -0.000296 -0.194983
v 0.124110 0.015367 -0.192992
v -0.401205 -0.103833 0.103846
v 0.227953 -0.180046 0.100740
v 0.231887 -0.185520 0.088528
v -0.283972 -0.146358 0.127004
v -0.310931 -0.149333 0.118254
v -0.281936 -0.155501 0.109450
v -0.105067 -0.181086 0.017857
v 0.115544 -0.050636 -0.189845
v 0.093930 -0.044593 -0.191217
v 0.189796 -0.202382 0.026143
v 0.152951 -0.145646 0.150167
v -0.190582 -0.181115 -0.019544
v -0.190781 -0.181126 -0.019520
v -0.418119 -0.100776 -0.023621
v -0.419158 -0.095966 -0.049302
v -0.103447 -0.180250 0.024494
v -0.079206 -0.169827 0.067199
v -0.118877 -0.169334 0.059280
v -0.143317 -0.157432 -0.081257
v -0.166385 -0.172289 -0.053105
v -0.161012 -0.155917 -0.085110
v -0.171914 -0.172685 -0.052907
v -0.274123 -0.160929 -0.107619
v 0.365454 -0.164198 0.008635
v 0.355757 -0.168775 -0.013158
v 0.367259 -0.162088 -0.022112
v -0.252548 -0.183491 -0.024618
v -0.251256 -0.184636 -0.002389
v 0.149752 0.058451 0.079104
v 0.118695 0.057092 0.073309
v -0.407979 -0.076302 0.126983
v -0.395835 -0.101755 0.117892
v -0.398046 -0.104016 0.110425
v -0.295483 0.061293 -0.141980
v -0.143516 0.028152 -0.161706
v -0.347832 -0.109370 -0.172905
v -0.355423 -0.137238 0.113713
v -0.190764 -0.181094 -0.019727
v 0.022968 -0.074870 0.185867
v 0.028006 -0.039118 0.196285
v 0.338247 -0.114759 0.164212
v 0.338171 -0.118370 0.161085
v -0.185239 -0.100559 -0.178282
v -0.409273 0.027947 -0.105267
v 0.157569 -0.193750 0.068205
v 0.140338 -0.187875 0.083014
v 0.124129 -0.195716 0.053898
v -0.012978 -0.069408 0.182790
v -0.158593 0.056790 -0.132012
v -0.184704 0.057287 -0.124074
v -0.181627 0.084129 -0.108435
v -0.132482 0.056293 -0.139950
v -0.145036 0.092914 -0.114313
v 0.176053 -0.090621 -0.177100
v -0.123233 -0.164428 0.069331
v -0.084760 -0.151910 0.098201
v -0.084692 -0.164251 0.077581
v -0.300140 -0.181816 -0.019087
v -0.299396 -0.180908 -0.029577
v -0.290099 -0.182725 -0.023532
v 0.097319 0.054542 -0.044887
v 0.349861 0.045730 -0.067052
v 0.012864 -0.100303 0.174682
v 0.328717 0.050825 -0.037863
v 0.100559 0.000415 0.204152
v -0.179153 -0.135464 -0.118930
v -0.204843 -0.160935 -0.087169
v -0.201820 -0.139852 -0.122597
v -0.409483 -0.012209 0.152651
v -0.389572 0.018017 0.158165
v 0.160277 -0.065996 0.197873
v -0.173708 -0.173722 -0.050498
v -0.303529 -0.162496 0.089675
v -0.270625 -0.167030 0.081228
v 0.169797 0.056077 0.057163
v 0.197125 0.053181 0.007439
v 0.213310 0.054004 0.054419
v 0.344873 -0.083778 0.182564
v 0.337931 -0.067573 0.190515
v -0.375107 -0.086540 -0.172787
v 0.102613 0.054124 0.056685
v 0.082980 0.058857 0.098699
v -0.193585 -0.017401 0.189189
v -0.277227 -0.097051 0.182922
v -0.295697 -0.092471 0.185804
v 0.235490 -0.141743 -0.138077
v 0.254739 -0.113474 -0.161026
v 0.442862 -0.093249 0.014444
v 0.454034 -0.060934 0.018730
v 0.439157 -0.093196 0.039197
v -0.245088 0.079516 -0.044649
v -0.215842 -0.146344 0.109094
v -0.391628 -0.086042 0.145343
v -0.383673 -0.099749 0.141340
v -0.384435 -0.086469 0.154879
v -0.159103 0.109022 -0.053766
v 0.321923 -0.105860 0.175143
v 0.334092 -0.122150 0.158783
v -0.014245 -0.164443 0.098852
v 0.225251 -0.114775 -0.161463
v 0.241918 -0.095242 -0.172647
v -0.189365 -0.149916 0.094477
v -0.193702 -0.165413 0.067478
v -0.164629 -0.159752 0.075105
v -0.417696 -0.095052 -0.075117
v -0.407983 -0.114799 -0.039268
v -0.391884 -0.133415 -0.037894
v -0.387204 0.040909 -0.103146
v -0.309092 -0.110288 -0.184771
v 0.210000 -0.113948 0.178756
v 0.248489 -0.136997 0.159764
v 0.222555 -0.109637 0.181767
v 0.251322 -0.133184 0.163009
v 0.231272 0.038885 0.198160
v -0.187475 0.043142 0.182424
v -0.309108 -0.177941 -0.038334
v -0.307360 -0.180009 -0.024851
v -0.324809 -0.175056 -0.028186
v -0.055991 -0.155125 -0.098439
v -0.046670 -0.169659 -0.073896
v -0.075043 -0.163040 -0.080522
v -0.338512 -0.170734 0.011010
v -0.338776 -0.169154 0.028712
v -0.364139 -0.158251 -0.001842
v -0.401746 -0.122704 0.041133
v -0.395710 -0.127202 0.053908
v -0.404888 -0.115192 0.062544
v -0.123664 0.109714 -0.085008
v -0.108591 0.109469 -0.088667
v -0.290705 0.005800 -0.207384
v -0.081483 0.056893 0.150713
v 0.190748 -0.109687 -0.165331
v 0.187253 -0.112787 -0.163065
v 0.188860 -0.109094 -0.165727
v -0.069252 0.112423 -0.037737
v 0.031349 0.018805 -0.187850
v 0.249418 -0.198441 0.032325
v 0.240187 -0.199634 0.032392
v -0.205617 -0.162225 -0.084842
v 0.317901 -0.054300 -0.181076
v 0.306038 -0.056930 -0.182883
v 0.259305 -0.054900 0.205606
v -0.226388 -0.035264 0.195678
v 0.259725 -0.197811 -0.007664
v 0.229580 -0.197512 -0.033679
v 0.006285 0.074115 0.036270
v -0.293843 -0.174466 -0.065034
v -0.288674 -0.175699 -0.062139
v -0.026272 -0.171124 -0.076371
v -0.025899 -0.179095 -0.054330
v -0.424711 -0.088836 0.029032
v -0.423485 -0.091641 0.025354
v -0.424414 -0.089245 0.033570
v 0.342512 -0.163058 0.083440
v 0.203085 -0.202689 0.018574
v 0.193206 -0.202227 0.027737
v -0.384572 0.041654 -0.074552
v -0.346627 -0.151271 0.090984
v -0.352434 -0.150356 0.084973
v -0.365920 -0.157209 -0.004436
v -0.366875 -0.156487 -0.004633
v -0.242464 -0.067862 -0.205348
v -0.224762 -0.064785 -0.203806
v -0.232666 -0.073239 -0.202250
v -0.356901 -0.122567 -0.147624
v -0.086431 -0.138743 0.115439
v -0.094391 -0.137744 0.114240
v 0.423029 -0.112713 -0.046880
v -0.238877 -0.109240 0.172080
v 0.224736 -0.193986 0.065477
v 0.206734 -0.195033 0.064945
v 0.230067 -0.198339 0.046096
v -0.308548 0.054150 -0.116317
v 0.437799 -0.042467 0.088417
v -0.255559 -0.179535 0.039562
v -0.266553 -0.170447 0.071409
v -0.291458 -0.175841 0.051207
v -0.279958 -0.171466 0.066925
v -0.283077 -0.174536 -0.067995
v -0.279941 -0.176634 -0.060795
v -0.285258 -0.175234 -0.064980
v -0.371366 -0.148587 0.048079
v 0.095048 0.021257 -0.192250
v -0.127831 0.007299 -0.170409
v 0.277055 0.054305 0.173612
v 0.155494 -0.154419 -0.128448
v 0.162783 -0.161116 -0.120127
v -0.195454 -0.124749 -0.143545
v 0.110652 -0.140683 0.153946
v 0.118774 -0.162342 0.129366
v -0.390089 -0.024010 -0.181233
v -0.384346 -0.049588 -0.181548
v 0.180153 -0.015975 -0.187424
v -0.105441 -0.167035 0.067513
v -0.069321 -0.167523 0.075195
v -0.130192 -0.068046 0.164449
v -0.127869 -0.049894 0.170463
v 0.105813 -0.134631 0.160179
v 0.056005 0.056947 0.102954
v 0.262011 -0.048557 -0.188012
v 0.269455 -0.052782 -0.187099
v 0.245949 -0.050796 -0.187782
v -0.188993 -0.180667 -0.022040
v 0.249215 -0.139685 0.157058
v 0.254261 -0.141433 0.154821
v 0.251281 -0.138309 0.158273
v -0.347431 0.001481 0.185101
v 0.244082 0.057007 -0.097145
v 0.206639 0.060755 -0.121403
v 0.191684 0.056513 -0.055884
v -0.290804 -0.046046 0.198935
v -0.303638 -0.052349 0.197027
v -0.291449 -0.051522 0.197977
v -0.265176 -0.074917 0.193014
v -0.108698 -0.180598 -0.019028
v -0.108597 -0.180572 -0.019164
v -0.108342 -0.180520 -0.019410
v -0.087373 0.113476 0.054702
v 0.270549 0.041743 -0.180197
v -0.126262 0.114413 -0.047891
v 0.073952 -0.195121 0.033685
v 0.058680 -0.192494 0.043213
v 0.080928 -0.197559 0.017870
v 0.431510 -0.044039 -0.080782
v -0.422503 -0.093132 0.002348
v -0.424603 -0.088254 0.006760
v 0.148057 0.056474 -0.037147
v 0.177112 0.056664 -0.050966
v -0.324555 -0.169670 0.053270
v -0.340704 -0.157746 0.077409
v -0.358651 -0.157295 0.044827
v -0.354465 -0.153823 0.067459
v 0.260983 -0.198266 0.002950
v 0.262867 -0.197922 0.000000
v 0.263695 -0.197904 0.002584
v 0.418988 -0.122980 0.035852
v 0.417857 -0.122459 0.046927
v 0.131665 -0.161887 -0.119523
v 0.105125 -0.164666 -0.114701
v 0.120416 -0.150235 -0.134143
v -0.343677 -0.140334 0.118672
v -0.348621 -0.131006 0.130997
v -0.168792 -0.096702 -0.169417
v -0.166974 -0.110867 -0.142358
v 0.164279 -0.200624 -0.023692
v -0.246222 0.079319 -0.043551
v -0.245172 0.079742 -0.043472
v 0.166618 0.055840 0.050562
v -0.270084 -0.122128 -0.174435
v -0.267802 -0.124811 -0.170827
v -0.275397 -0.123608 -0.173283
v 0.272178 0.054923 -0.069095
v -0.440327 -0.012491 0.105740
v -0.260380 -0.152898 0.111148
v -0.253685 -0.142369 0.129653
v 0.305787 0.048439 0.167042
v 0.034682 -0.192129 -0.021119
v 0.010772 -0.189211 -0.025918
v 0.358989 -0.131479 -0.112793
v 0.343797 -0.151801 -0.090123
v 0.178549 0.063646 0.186641
v -0.177216 -0.075422 -0.192387
v -0.118071 -0.049969 -0.173765
v -0.032006 -0.146668 -0.117970
v -0.029897 -0.148122 -0.116518
v -0.227828 0.019586 0.188101
v -0.259549 -0.005376 0.196203
v -0.237484 -0.028923 0.196667
v 0.269918 -0.062347 0.203641
v 0.257914 -0.083278 0.196109
v 0.286328 -0.091566 0.191056
v 0.175847 -0.110389 0.178838
v 0.171995 -0.103997 0.183096
v -0.202998 0.046809 0.135181
v -0.301990 -0.152029 -0.126071
v -0.322331 -0.151347 -0.120267
v -0.293074 -0.147574 -0.137151
v -0.317093 -0.147884 -0.128877
v 0.241875 0.052697 -0.029887
v 0.242753 0.052745 -0.030712
v 0.241167 0.052794 -0.030965
v 0.248323 0.060172 0.180182
v 0.213436 0.061909 0.183412
v -0.319722 0.024900 0.186164
v -0.271157 -0.091640 -0.198935
v -0.273329 -0.092736 -0.198115
v -0.225279 -0.141136 -0.132952
v -0.213995 -0.138759 -0.131271
v -0.220789 -0.144450 -0.124802
v -0.282631 0.058011 -0.063843
v -0.341598 -0.120499 0.151871
v -0.333932 -0.127579 0.145800
v -0.314810 -0.124380 0.156490
v -0.092899 0.115228 0.044599
v -0.264330 -0.014120 -0.208884
v -0.240755 -0.016302 -0.207668
v -0.295059 -0.023639 -0.211054
v -0.246587 -0.017511 -0.208068
v 0.238057 0.057052 0.114523
v 0.219354 0.053790 0.054290
v 0.218102 0.053889 0.055130
v -0.226202 -0.176255 0.045622
v -0.249683 -0.177869 0.045480
v -0.250247 -0.180474 0.034548
v -0.232115 -0.113905 0.164975
v -0.198574 -0.112439 0.155795
v 0.375645 -0.056971 -0.149519
v 0.374085 -0.061722 -0.150589
v -0.136269 -0.045891 0.173607
v -0.251749 -0.010928 -0.207708
v -0.238548 -0.016537 -0.207295
v -0.239514 -0.014754 -0.207180
v -0.287952 -0.174473 -0.067253
v -0.290457 -0.172867 -0.072865
v -0.334593 -0.062357 0.190550
v -0.335457 -0.090029 0.180131
v 0.440483 -0.042266 0.083760
v 0.449265 -0.046705 0.059484
v 0.197520 -0.201387 0.034432
v 0.199649 -0.202153 0.027273
v 0.194378 0.055892 -0.048378
v 0.278654 -0.193630 0.031835
v 0.052151 -0.181547 -0.073451
v 0.059172 -0.190600 -0.044697
v 0.142326 0.061211 0.102702
v 0.165573 -0.090510 0.190555
v -0.225410 0.085834 0.043539
v 0.056661 -0.101667 0.178752
v -0.335874 -0.166405 0.047578
v -0.084871 -0.058483 0.176637
v 0.074418 0.020944 -0.190673
v 0.079128 -0.003288 -0.194460
v 0.316306 -0.184991 -0.001792
v 0.294074 -0.187326 -0.033092
v 0.321964 -0.173169 -0.057550
v -0.441089 -0.021350 -0.074399
v -0.425501 -0.076277 -0.088524
v 0.180152 -0.122547 -0.156236
v 0.183278 -0.121493 -0.156939
v 0.181555 -0.125094 -0.154321
v -0.280815 0.064145 0.138681
v -0.290301 0.062853 0.171249
v -0.308719 0.024818 -0.200387
v -0.187980 -0.075342 0.185699
v 0.142805 0.021943 -0.190791
v 0.194976 0.008474 -0.185008
v -0.047077 -0.149047 0.114099
v -0.034158 -0.143870 0.124885
v -0.065533 -0.123568 0.138128
v -0.033568 -0.125686 0.145379
v -0.111197 -0.031063 -0.174949
v -0.100339 -0.027635 -0.175375
v -0.127196 -0.141699 -0.102713
v -0.117510 -0.159977 -0.078306
v 0.075353 -0.193125 -0.039379
v -0.421943 0.025974 -0.053711
v -0.024807 -0.018404 0.189327
v -0.071478 -0.024535 0.181118
v -0.074791 -0.058559 -0.177482
v -0.191028 -0.181152 -0.019399
v 0.398920 -0.043171 -0.126727
v 0.414086 -0.125269 0.053093
v 0.416305 -0.123968 0.048491
v 0.416659 -0.123134 0.050902
v 0.082265 -0.023441 -0.193828
v -0.306271 -0.083551 0.188031
v 0.343899 -0.137319 0.134829
v 0.046860 -0.131445 -0.149612
v 0.051892 -0.127889 -0.152942
v 0.156852 0.065363 0.150060
v -0.026756 0.034938 0.174330
v 0.096114 -0.197807 0.025451
v 0.117094 -0.197428 0.040736
v 0.114377 -0.195839 0.050278
v 0.096656 0.054521 -0.044848
v 0.072370 -0.186834 0.071617
v 0.087959 -0.186356 0.078093
v 0.082195 -0.184797 0.080476
v -0.153473 -0.180545 -0.013062
v -0.139022 -0.176989 -0.034352
v 0.199294 0.060811 0.136609
v 0.161062 0.035632 -0.185627
v -0.348162 -0.161903 -0.056072
v -0.336157 -0.165040 -0.065637
v -0.336806 -0.169203 -0.043628
v -0.224819 -0.103018 -0.186843
v -0.223119 -0.125278 -0.160797
v -0.391904 -0.133339 0.038823
v 0.267854 0.049458 0.009452
v 0.284789 0.054926 0.063377
v -0.235983 -0.145280 -0.129616
v 0.316937 -0.113682 0.170504
v 0.301882 -0.135220 0.154780
v 0.293748 -0.150410 0.138060
v -0.229106 -0.105050 0.173631
v -0.439015 -0.028645 0.088606
v -0.134040 -0.181275 -0.002370
v 0.021151 -0.151049 0.130789
v -0.189526 -0.181019 -0.019912
v 0.187435 0.056012 -0.045508
v -0.137939 -0.128711 0.114733
v -0.132099 -0.127917 0.115840
v -0.130758 -0.098720 0.142273
v -0.097544 -0.154053 -0.090852
v -0.207479 -0.162671 -0.084484
v -0.254673 -0.173993 -0.068975
v -0.219652 -0.096160 -0.189514
v 0.417802 -0.121925 0.049768
v 0.232490 0.051319 0.008445
v 0.112260 0.061541 -0.088950
v 0.096201 0.054780 -0.047823
v 0.076416 0.060625 -0.099668
v 0.031482 -0.188801 -0.040467
v -0.024702 -0.099394 0.167305
v 0.242027 0.038792 -0.181029
v -0.304507 -0.016212 -0.209650
v -0.151409 0.092962 0.109512
v -0.020307 0.078188 0.098195
v -0.367164 -0.156505 -0.002890
v 0.289050 -0.181244 0.078906
v -0.136830 -0.167025 0.062570
v -0.157506 -0.174763 0.041491
v 0.283993 -0.073006 -0.180010
v 0.357049 -0.123800 -0.124045
v -0.188138 0.101667 0.037052
v -0.062268 -0.098485 0.159928
v -0.283669 -0.038973 0.198890
v 0.402982 -0.035116 -0.120604
v 0.224423 -0.069655 -0.183154
v 0.255281 -0.072789 -0.181665
v 0.455163 -0.030221 -0.006310
v 0.092563 -0.146787 -0.138178
v -0.176849 -0.097720 0.160026
v -0.178198 -0.101156 0.156169
v -0.149417 -0.088173 0.156704
v -0.152347 -0.092082 0.153906
v 0.227042 -0.184167 0.092353
v 0.193557 -0.171038 0.119732
v 0.200464 -0.168533 0.123453
v -0.297677 -0.038237 -0.210664
v -0.271197 -0.040243 -0.210298
v -0.096513 -0.098602 0.151100
v -0.023619 -0.175147 0.071827
v -0.020691 -0.177017 0.068065
v -0.016269 -0.175449 0.074359
v -0.398648 -0.129238 -0.004341
v -0.385690 -0.141227 0.016505
v -0.399765 -0.127457 0.008921
v 0.163116 -0.115955 0.174260
v 0.160299 -0.117652 0.172977
v 0.163062 -0.116830 0.173639
v 0.217786 0.053801 0.053576
v 0.453747 -0.059949 0.023672
v 0.454423 -0.056487 0.010072
v -0.145947 0.111412 0.047377
v -0.129426 0.111584 0.067061
v -0.103487 0.115866 0.042510
v 0.017916 -0.087586 0.180274
v 0.412836 -0.107768 0.099178
v 0.417448 -0.121419 0.053032
v 0.435452 -0.093143 0.063950
v -0.143841 0.105796 0.082640
v -0.115656 -0.078270 0.158211
v -0.126957 -0.086630 0.151479
v 0.010799 -0.163566 -0.102211
v 0.010635 -0.163408 -0.102464
v 0.010849 -0.163406 -0.102515
v 0.176013 -0.110976 0.178458
v 0.267702 0.054957 0.088116
v 0.203103 -0.197236 -0.040112
v 0.174535 -0.198401 -0.037583
v 0.194833 -0.193072 -0.056408
v 0.305623 -0.103948 -0.161980
v 0.316160 -0.103386 -0.160276
v -0.215405 -0.123147 0.147134
v 0.225235 -0.159684 0.134727
v 0.228402 -0.167769 0.122874
v -0.001280 0.005317 -0.185401
v 0.306502 -0.095849 -0.165840
v -0.403368 -0.093689 -0.120414
v 0.071857 0.061290 -0.106628
v 0.084158 0.067469 -0.150790
v -0.304194 -0.118217 0.165066
v -0.330939 -0.099901 0.175303
v 0.195917 -0.138498 0.158064
v 0.195458 -0.139809 0.156732
v 0.370790 -0.062701 0.170670
v 0.366458 -0.056958 0.174401
v -0.108933 -0.180655 0.020648
v 0.129779 -0.191934 -0.057975
v 0.144500 -0.188637 -0.069362
v 0.004574 -0.032468 -0.188276
v -0.320272 -0.157854 0.093209
v -0.312235 -0.162411 0.086688
v -0.343653 -0.153877 0.085980
v -0.262301 -0.181541 -0.039300
v 0.195909 -0.138094 0.158437
v 0.166656 -0.200023 -0.028557
v -0.131999 -0.131100 -0.114677
v 0.010063 -0.163483 -0.102167
v -0.028858 -0.183376 -0.036805
v -0.169873 -0.173399 -0.050350
v -0.168812 -0.174521 -0.046813
v -0.171610 -0.174001 -0.049107
v 0.081026 -0.194921 0.040213
v 0.079889 0.062166 -0.108070
v -0.157063 0.105679 -0.077934
v -0.006592 0.075961 -0.080033
v -0.329853 -0.028477 0.194268
v -0.329712 -0.028888 0.194340
v -0.223885 -0.165061 0.076440
v 0.034979 -0.193620 0.004534
v 0.051483 -0.194867 0.015224
v 0.166954 -0.103270 0.183108
v -0.403438 -0.123267 -0.005995
v 0.318354 -0.158003 -0.095307
v 0.321451 -0.171780 -0.062331
v 0.325950 -0.170582 -0.061273
v -0.219211 -0.104608 -0.183468
v 0.265314 -0.197616 0.000204
v 0.318829 0.051505 0.117468
v 0.290866 0.057143 0.132950
v -0.432047 -0.039465 0.122219
v -0.419955 -0.026995 0.143829
v -0.205390 0.000906 0.188383
v -0.399819 -0.112797 -0.092015
v -0.402341 -0.118757 -0.060410
v 0.361674 -0.090642 -0.151466
v 0.216058 0.027250 -0.182557
v -0.343042 -0.086171 -0.193461
v -0.105840 0.115996 -0.041359
v 0.142782 0.005984 -0.191916
v 0.068337 -0.027363 -0.193532
v -0.097342 -0.173804 -0.051192
v -0.100141 -0.168162 -0.064465
v -0.081830 -0.172742 -0.057769
v -0.088297 -0.175775 -0.046239
v 0.253992 -0.032181 -0.190754
v 0.218575 -0.026053 -0.189345
v 0.235281 -0.010685 -0.190412
v -0.381258 -0.101358 -0.149400
v 0.337289 0.050495 0.011429
v 0.311347 0.055140 0.010689
v 0.375472 -0.062613 -0.149502
v -0.182936 -0.115886 -0.146942
v -0.269328 -0.167813 0.078950
v -0.271733 -0.167749 0.079214
v 0.453114 -0.029561 0.038883
v 0.124849 -0.054537 0.199664
v -0.214314 -0.141955 0.115668
v -0.210367 -0.132545 0.129049
v 0.338265 -0.104491 -0.153378
v 0.066313 -0.135968 -0.147689
v 0.087385 -0.138833 -0.146041
v -0.016389 -0.020197 0.190855
v 0.080436 -0.149521 -0.133417
v 0.054167 -0.163906 -0.110814
v 0.052460 -0.138456 -0.143383
v -0.292184 -0.175272 0.052900
v -0.297615 -0.172043 0.062215
v 0.223285 -0.134480 -0.145347
v 0.208271 -0.117453 -0.159974
v 0.215343 -0.121850 -0.156160
v 0.254829 -0.138024 0.158267
v 0.281812 -0.124018 0.168807
v 0.327736 -0.170766 -0.057563
v 0.324505 -0.172647 -0.055846
v 0.176529 -0.111061 0.178449
v 0.173474 -0.114612 0.175814
v 0.010732 -0.163187 -0.102861
v 0.011333 -0.163406 -0.102636
v 0.367318 -0.134103 -0.100190
v 0.358736 -0.153516 -0.070911
v -0.053777 -0.177859 -0.049008
v -0.058138 -0.182294 -0.028416
v 0.232954 -0.012443 0.208155
v 0.269635 -0.008103 0.211519
v 0.221905 -0.186670 0.087292
v 0.161067 -0.102803 0.183146
v -0.229467 -0.042824 0.195925
v -0.312466 -0.153681 0.107776
v 0.036536 -0.171890 0.099978
v 0.287010 -0.191612 0.037666
v 0.209206 -0.092979 0.190791
v 0.195253 -0.107876 0.182056
v -0.263769 -0.167276 0.079293
v -0.247636 -0.138305 -0.147590
v 0.208521 -0.201223 -0.017928
v 0.128328 -0.191620 -0.058841
v 0.107162 -0.175362 -0.097029
v 0.162476 -0.182525 -0.084500
v -0.375039 -0.103185 -0.156475
v 0.012169 -0.156151 0.120665
v -0.299060 0.057266 -0.033641
v 0.229878 -0.194464 -0.045741
v 0.222977 -0.184200 -0.076353
v -0.228705 -0.183262 -0.015749
v -0.221958 -0.183183 -0.001701
v -0.029045 -0.166250 0.089039
v -0.052023 -0.157742 0.099182
v 0.452822 -0.034059 -0.023950
v -0.123554 0.108769 0.085467
v 0.263588 -0.197702 -0.002148
v 0.266520 -0.197046 -0.004458
v -0.339134 -0.094665 0.176499
v -0.241013 -0.158028 0.096389
v -0.266880 -0.166174 0.082621
v 0.123936 -0.179961 0.099959
v -0.240455 -0.036818 0.196796
v -0.413098 -0.109004 0.007984
v 0.185439 0.059173 0.105738
v 0.327098 -0.156751 0.113044
v 0.319357 -0.145126 0.136605
v 0.299266 -0.162381 0.117057
v 0.228127 -0.089568 -0.175663
v 0.215894 -0.112680 -0.163103
v 0.201640 -0.094549 -0.174577
v 0.054148 -0.132098 -0.149983
v 0.223419 0.061833 -0.167326
v 0.103780 -0.175803 0.105533
v 0.091074 -0.183718 0.086021
v 0.439972 -0.065010 -0.061261
v 0.451579 -0.045058 -0.031880
v -0.238803 -0.022035 -0.207625
v -0.242108 -0.019178 -0.207919
v 0.447140 -0.059989 0.061644
v -0.311335 -0.180054 -0.010261
v 0.453302 -0.030321 -0.019117
v 0.261162 -0.195895 0.037348
v 0.263572 -0.162755 -0.108310
v 0.226576 -0.174410 -0.095847
v 0.236785 -0.148421 -0.130801
v 0.223428 -0.160601 -0.115512
v -0.010283 -0.188674 -0.011531
v -0.010599 -0.188671 0.013222
v -0.027962 -0.187003 -0.011465
v -0.111933 -0.074815 -0.162742
v -0.311247 -0.144976 0.125303
v -0.314723 -0.066774 -0.205789
v 0.044313 -0.193869 -0.013378
v 0.002866 -0.147422 0.130983
v -0.008073 -0.125935 0.151597
v -0.022151 -0.130089 0.143968
v 0.322236 -0.183135 0.009819
v 0.323568 -0.182755 0.000776
v 0.343965 -0.173732 0.032539
v 0.347550 -0.173015 0.018517
v -0.324292 -0.169431 -0.063577
v -0.175652 0.104789 -0.050716
v -0.263447 -0.157707 -0.114201
v 0.217834 -0.177707 -0.090922
v 0.239096 -0.178192 -0.086434
v -0.174603 -0.128108 0.117961
v -0.228892 -0.179266 -0.043454
v 0.085961 -0.169801 0.113646
v 0.115221 -0.166928 0.122474
v -0.008685 -0.187766 0.027698
v -0.013049 -0.187322 0.027324
v -0.002176 -0.188790 0.025101
v -0.334759 -0.095494 0.177339
v -0.230630 -0.180089 -0.039868
v 0.254466 -0.171920 0.112295
v 0.121371 -0.200581 0.014125
v 0.086964 -0.198102 0.012146
v 0.152534 -0.199812 -0.026841
v 0.403984 -0.112792 -0.088535
v -0.347742 -0.152667 0.084583
v 0.290664 -0.180711 0.079523
v 0.283895 -0.165080 -0.098730
v 0.302292 -0.147995 -0.119767
v 0.164050 -0.182821 -0.083974
v 0.326078 -0.116552 -0.146626
v 0.163446 -0.113998 0.175578
v -0.252195 -0.184598 -0.000530
v -0.253027 -0.184540 0.000616
v 0.182548 -0.193368 0.072066
v 0.159376 -0.186562 0.087413
v 0.091428 -0.056889 0.197486
v -0.060242 -0.139616 -0.118767
v 0.330358 0.047530 0.118617
v -0.313903 -0.179154 0.006748
v -0.321776 -0.177205 -0.001863
v -0.367503 -0.096463 0.161275
v 0.261485 -0.198031 -0.001987
v 0.083059 -0.143886 -0.140415
v 0.212581 0.054648 0.063334
v -0.206138 -0.162095 -0.085285
v -0.277133 -0.183470 0.014368
v -0.265061 -0.180357 0.035363
v 0.079621 -0.190788 -0.050303
v -0.290635 -0.183140 0.006321
v 0.265997 -0.174912 -0.086352
v 0.310647 -0.184107 0.044991
v 0.394636 -0.129175 -0.074499
v 0.394327 -0.139823 -0.045969
v 0.380990 -0.142092 -0.067142
v 0.374607 -0.064576 -0.149814
v 0.142677 -0.201270 0.022607
v -0.417013 -0.018898 0.146194
v 0.345802 0.047955 -0.029576
v 0.453522 -0.045705 -0.022176
v -0.198179 0.096000 -0.065974
v -0.188476 0.098725 -0.067293
v -0.193102 0.094143 -0.074834
v 0.319017 0.052241 0.101983
v 0.223100 -0.202036 -0.001423
v 0.255448 -0.199106 0.000420
v 0.359271 0.042045 -0.067753
v -0.296215 0.059178 0.120703
v -0.278313 0.061060 0.123662
v -0.043667 -0.179640 0.049144
v -0.061916 -0.179249 0.043470
v -0.057839 -0.181035 0.037991
v -0.302688 -0.146400 -0.136552
v -0.327360 -0.146883 -0.127386
v -0.299608 -0.142819 -0.144555
v -0.324563 -0.143900 -0.134392
v -0.354442 -0.151202 -0.087341
v 0.232295 -0.201483 0.015287
v -0.331142 -0.163916 -0.077201
v 0.133101 -0.006883 0.203323
v 0.139342 0.020429 0.201283
v -0.347630 0.050035 0.033583
v -0.329140 -0.027894 0.194391
v 0.266726 -0.197138 0.005665
v -0.238911 -0.179683 -0.044070
v -0.259742 -0.179542 -0.048667
v -0.314913 -0.147916 0.119551
v -0.306174 0.030428 0.186805
v 0.152807 0.032844 0.198016
v 0.201620 -0.084130 -0.179080
v 0.095286 -0.049912 0.199438
v -0.188851 -0.127100 -0.134732
v 0.379599 -0.156353 0.026023
v 0.386195 -0.151934 -0.001859
v 0.395908 -0.145766 0.012126
v 0.169331 0.059632 0.100169
v 0.186638 0.058271 0.095516
v 0.128979 -0.192024 -0.057620
v 0.415725 -0.110370 -0.070046
v -0.362240 -0.156354 -0.044181
v -0.007634 0.003761 -0.184559
v 0.164264 -0.182296 -0.085033
v 0.165094 -0.182635 -0.084407
v 0.130602 -0.041290 0.201329
v 0.132051 -0.056845 0.199264
v 0.354578 -0.083826 -0.158959
v -0.061642 -0.181010 0.036505
v -0.062708 -0.171345 0.067156
v 0.039258 -0.191507 0.037634
v 0.047652 -0.189718 0.051382
v 0.332342 -0.097903 0.179452
v -0.413343 -0.021931 0.150172
v -0.412497 -0.026341 0.150966
v -0.409675 -0.023156 0.153727
v -0.307609 -0.163865 0.084792
v 0.319750 -0.063903 -0.177838
v -0.315501 -0.165479 0.075794
v -0.283184 -0.050573 0.198062
v -0.219426 -0.124442 -0.160490
v -0.284995 -0.183778 0.005831
v -0.004590 -0.005145 -0.186315
v -0.073991 -0.018935 -0.178171
v 0.403350 -0.135508 -0.034036
v -0.311364 0.003211 0.193782
v 0.207841 -0.182310 -0.082707
v 0.165814 -0.183410 -0.082803
v 0.211172 -0.177288 -0.092458
v -0.028669 -0.146893 -0.118443
v 0.374566 0.038372 -0.033095
v 0.126261 -0.192084 -0.056984
v -0.337649 -0.098123 0.174618
v -0.365989 -0.157217 -0.003754
v -0.337712 -0.171072 -0.023748
v -0.294660 -0.175487 0.051286
v 0.242012 0.052658 -0.029003
v 0.227353 -0.146587 -0.133759
v 0.077402 -0.169488 -0.104630
v -0.251625 -0.184533 0.000660
v 0.015558 -0.191501 -0.007224
v 0.036362 -0.193582 -0.005012
v 0.385882 -0.039367 0.157577
v 0.409334 -0.033421 0.129237
v 0.390947 -0.023038 0.147560
v -0.152526 -0.083292 -0.173629
v 0.444109 -0.037420 -0.053354
v -0.085446 -0.142812 0.110574
v 0.301877 0.054894 0.038637
v -0.212254 -0.126919 0.139329
v 0.413756 -0.127580 0.044323
v 0.420230 -0.124035 -0.000504
v -0.098117 0.109642 0.081581
v 0.098947 -0.187377 0.077396
v -0.438678 -0.029674 0.116449
v 0.249093 0.062891 0.152981
v 0.276186 -0.195008 0.000135
v 0.209637 -0.047043 -0.187413
v -0.059274 -0.182061 0.032723
v -0.346502 -0.154158 0.081148
v 0.197214 -0.087244 0.193304
v -0.176404 -0.124776 -0.130341
v 0.325261 -0.174609 0.066467
v 0.451077 -0.027208 -0.024831
v 0.302359 -0.166327 -0.088118
v -0.365569 -0.156868 0.004280
v -0.395521 -0.065425 0.156562
v 0.043010 -0.186797 0.061002
v -0.441300 -0.026298 0.106855
v 0.039386 -0.154171 -0.122529
v 0.017577 -0.138642 -0.138445
v -0.243750 0.080207 -0.044199
v 0.253687 -0.161973 0.128593
v -0.196998 -0.175809 0.041496
v -0.262354 -0.144129 -0.141076
v 0.368435 -0.138373 0.111958
v 0.356960 -0.158311 0.079069
v 0.383855 -0.142444 0.080366
v 0.430972 -0.067173 0.098255
v 0.436466 -0.061770 0.089360
v -0.098947 0.114680 0.051509
v -0.363472 -0.158591 -0.006770
v -0.365177 -0.157764 -0.004370
v -0.212596 -0.111164 -0.174715
v 0.335745 -0.100141 -0.157278
v -0.081777 0.106151 -0.092881
v -0.251824 -0.184292 0.005384
v -0.231354 -0.136085 0.133435
v 0.175236 0.061403 -0.099156
v -0.196981 -0.115925 0.146533
v -0.355114 -0.089974 -0.185427
v -0.025317 -0.121198 0.151003
v -0.196544 -0.180160 0.024045
v -0.211460 -0.180416 0.025035
v -0.208241 -0.181515 0.014164
v 0.358574 -0.162250 -0.038267
v -0.223731 0.080714 -0.074504
v -0.419399 -0.097647 0.035096
v 0.193757 -0.202864 0.016593
v 0.176890 -0.200808 -0.024111
v -0.321737 -0.158326 -0.102703
v -0.351767 -0.151070 -0.092175
v 0.212397 -0.173983 -0.098507
v 0.375369 -0.011329 0.159745
v 0.242832 0.052669 -0.029705
v 0.366954 -0.126345 -0.113165
v 0.376618 -0.125256 -0.105172
v -0.279187 0.057144 0.111462
v -0.155839 -0.067904 0.173793
v -0.156157 -0.070924 0.172769
v -0.015267 0.079571 0.080603
v 0.030535 -0.133781 0.152616
v 0.011598 0.071760 -0.031578
v -0.147196 -0.180836 0.008692
v 0.268120 -0.100760 -0.168035
v 0.156347 -0.135440 -0.147235
v 0.138046 0.060605 0.096707
v 0.398561 -0.141007 -0.024629
v -0.150922 -0.069419 0.171536
v 0.304962 -0.032215 0.206872
v 0.283381 -0.043929 0.207868
v 0.304119 -0.045291 0.204813
v 0.190043 -0.201540 0.033866
v 0.194603 -0.138092 0.158351
v 0.168874 -0.122639 0.169663
v 0.153989 -0.144845 0.151005
v -0.305189 -0.162153 -0.101234
v 0.289015 -0.192033 0.023611
v 0.308678 -0.187513 0.011359
v 0.079201 0.052053 0.030283
v 0.016924 -0.119260 0.161761
v -0.314117 -0.149149 0.117559
v -0.074573 0.107033 0.079841
v -0.250065 -0.184574 -0.000483
v -0.407168 -0.040061 0.153969
v 0.181445 -0.105478 0.182802
v 0.183696 -0.097946 0.187568
v -0.330117 -0.172809 0.022157
v 0.323626 -0.172097 -0.058971
v 0.219834 -0.144046 -0.136693
v -0.170135 -0.144091 -0.103922
v -0.326905 -0.030104 0.194899
v 0.405029 -0.126347 -0.060364
v -0.106572 -0.072769 0.163333
v -0.313413 -0.166598 -0.082709
v 0.195540 -0.138362 0.158125
v 0.370066 -0.159857 0.043366
v 0.377713 -0.153061 0.055909
v -0.038130 -0.154652 0.108898
v -0.202892 -0.117626 -0.162536
v 0.058036 -0.175891 -0.088190
v -0.340861 -0.145300 0.109765
v -0.327551 -0.150855 0.104713
v -0.247489 -0.153613 0.107463
v 0.195172 -0.138651 0.157841
v 0.068780 0.062252 0.122124
v 0.057810 0.061736 0.124986
v 0.342875 -0.149325 0.115654
v 0.360218 -0.166495 0.033716
v -0.027127 -0.146073 -0.119832
v -0.003638 -0.129245 -0.143566
v 0.189191 -0.202119 0.028571
v 0.193389 -0.169898 -0.105711
v 0.164634 -0.180705 -0.088154
v 0.084667 -0.180963 0.090533
v -0.156159 -0.174956 0.040918
v 0.179520 -0.093254 0.189869
v 0.183938 -0.093225 0.190143
v -0.288357 -0.001342 0.196323
v 0.193976 -0.094827 -0.174882
v -0.132598 0.107124 -0.089806
v -0.124658 0.107703 -0.091770
v -0.116964 -0.173931 -0.047765
v 0.176926 -0.110446 0.178915
v 0.186525 -0.111441 0.179156
v -0.340174 -0.170497 -0.010495
v -0.280004 -0.181271 -0.037427
v -0.361899 -0.155412 0.044250
v -0.362780 -0.154246 0.047143
v -0.365185 -0.153658 0.041929
v -0.272782 -0.127387 -0.167938
v 0.082154 -0.197902 0.000074
v 0.198688 -0.115112 -0.161600
v -0.190703 -0.181176 -0.018354
v -0.178598 -0.180117 0.019376
v 0.371324 -0.152743 -0.051554
v -0.245887 -0.184204 0.002594
v -0.343267 -0.167615 -0.034045
v 0.402200 -0.122017 0.094220
v 0.193438 0.058194 0.099399
v -0.377806 -0.118429 -0.129420
v -0.190232 -0.181154 -0.018933
v -0.316368 -0.175061 0.034733
v 0.318982 -0.173520 -0.059150
v 0.118523 -0.199031 -0.020759
v 0.090739 -0.198448 -0.001630
v 0.390425 -0.145797 -0.033174
v 0.091717 -0.194736 -0.037255
v -0.147453 -0.123860 -0.123111
v 0.020595 0.066452 -0.025505
v 0.393132 0.019442 -0.080200
v 0.322290 -0.166084 0.095581
v 0.267563 0.060322 0.141505
v 0.188371 -0.166968 0.125629
v -0.137895 -0.174081 -0.045843
v -0.133812 -0.170453 -0.055739
v -0.304833 -0.008663 0.196446
v -0.043150 -0.183309 0.033969
v 0.164833 -0.181873 0.098129
v 0.238740 -0.102049 0.186302
v 0.113965 -0.133132 0.161702
v 0.212142 0.055757 -0.059632
v 0.042478 -0.174821 0.094842
v -0.157411 -0.174965 0.040831
v -0.156950 -0.175317 0.039580
v 0.152640 -0.128105 -0.153476
v 0.108420 -0.132870 0.161880
v -0.159999 -0.175343 0.039610
v 0.184233 -0.104380 0.183678
v 0.100505 -0.000045 0.204162
v 0.063021 -0.031377 0.200273
v 0.339070 -0.101555 -0.155014
v 0.174860 -0.158751 -0.122607
v 0.206262 -0.159705 -0.118993
v -0.146438 -0.088878 0.155253
v 0.256406 -0.103696 0.185547
v 0.188554 -0.122222 -0.156403
v 0.454653 -0.025298 0.019190
v 0.188421 -0.113777 0.177658
v 0.284875 -0.013625 0.210838
v 0.276300 -0.175231 -0.081598
v 0.367415 0.030685 0.118973
v 0.166339 -0.181939 -0.085700
v -0.267473 -0.156591 0.104951
v 0.171886 -0.109747 -0.165212
v -0.317289 -0.172798 0.045831
v 0.299133 -0.097129 0.186969
v 0.322579 -0.097610 0.181993
v 0.322679 0.052266 0.068830
v 0.331758 0.051000 0.051147
v 0.376910 -0.064219 -0.147813
v 0.402335 -0.047636 -0.123352
v -0.330234 -0.056758 0.192110
v 0.399372 -0.054320 0.144925
v 0.199055 -0.103989 -0.168930
v 0.191362 -0.175313 0.111866
v -0.045859 -0.152209 0.109966
v 0.294554 0.055191 0.109272
v -0.378486 -0.019139 -0.187424
v 0.420247 -0.056064 -0.099476
v 0.425952 -0.117615 0.005254
v 0.154488 -0.145440 0.150461
v -0.210473 -0.121991 0.146279
v 0.269112 0.001973 -0.191794
v 0.205476 -0.082345 0.195589
v 0.214685 -0.084065 0.194946
v -0.134284 -0.084530 -0.163268
v -0.139555 -0.069732 -0.175512
v 0.298521 -0.070120 0.198735
v 0.134340 -0.172728 -0.102699
v 0.038115 0.058907 0.123527
v -0.022723 -0.187308 0.017471
v -0.015681 -0.186296 0.032807
v -0.007353 -0.187305 0.032549
v 0.369697 0.031033 -0.097314
v 0.340711 0.048460 0.067679
v 0.348632 0.046686 0.054983
v 0.189434 -0.108126 -0.166427
v -0.129063 -0.089275 -0.156615
v 0.253056 0.063038 -0.136484
v -0.119296 -0.070255 0.162442
v -0.134908 0.109710 -0.078553
v 0.295905 0.056319 -0.109352
f 3 4 5
f 6 7 8
f 7 9 8
f 10 12 11
f 15 16 17
f 18 19 20
f 21 23 22
f 24 25 26
f 27 28 29
f 28 30 29
f 31 32 33
f 5 4 34
f 35 36 37
f 41 42 43
f 44 45 46
f 48 49 50
f 49 51 50
f 52 53 54
f 55 56 57
f 59 60 61
f 62 63 64
f 67 68 69
f 72 73 5
f 74 32 58
f 77 78 39
f 80 81 82
f 83 84 85
f 90 54 53
f 91 58 92
f 93 94 95
f 96 97 98
f 99 100 101
f 102 103 104
f 105 106 107
f 108 109 110
f 111 112 113
f 114 116 115
f 32 92 58
f 117 118 119
f 120 121 122
f 123 124 125
f 126 127 128
f 133 15 134
f 137 138 139
f 139 140 141
f 142 143 38
f 144 145 146
f 149 150 151
f 152 62 153
f 109 154 155
f 156 54 157
f 158 107 106
f 159 160 161
f 162 163 164
f 165 166 167
f 168 98 169
f 175 176 177
f 178 179 180
f 179 181 180
f 184 185 186
f 187 188 189
f 190 141 191
f 192 173 174
f 193 194 155
f 195 196 197
f 196 198 197
f 14 13 203
f 204 205 206
f 207 208 209
f 106 76 210
f 213 3 5
f 214 215 216
f 124 217 125
f 171 218 170
f 174 221 79
f 222 223 224
f 225 226 227
f 228 229 230
f 89 88 231
f 233 234 235
f 236 237 155
f 238 239 240
f 241 20 242
f 243 245 244
f 246 247 248
f 249 250 251
f 252 219 253
f 254 255 256
f 257 258 259
f 260 261 203
f 164 262 106
f 263 264 265
f 264 266 265
f 93 267 268
f 269 270 271
f 33 104 272
f 108 110 273
f 153 274 152
f 275 276 277
f 278 279 280
f 173 281 174
f 282 283 284
f 285 286 287
f 288 289 290
f 74 58 16
f 291 292 293
f 202 201 294
f 131 58 295
f 296 297 298
f 155 237 299
f 157 54 182
f 302 303 152
f 65 211 66
f 304 305 306
f 308 309 310
f 75 312 311
f 314 315 316
f 317 318 37
f 319 89 231
f 320 250 321
f 175 322 323
f 324 325 326
f 327 328 329
f 92 330 280
f 272 333 33
f 334 335 230
f 86 311 336
f 337 338 339
f 340 341 342
f 344 220 345
f 346 347 348
f 349 269 271
f 183 93 350
f 22 23 345
f 351 352 353
f 296 298 294
f 131 17 16
f 354 355 356
f 236 155 357
f 34 4 135
f 353 231 88
f 359 360 361
f 132 363 362
f 282 284 364
f 246 254 365
f 366 367 368
f 90 182 54
f 186 369 370
f 371 372 373
f 47 242 41
f 182 90 53
f 374 375 376
f 93 147 267
f 377 378 379
f 380 381 212
f 383 116 384
f 385 329 386
f 329 328 386
f 387 388 389
f 390 391 392
f 393 282 364
f 387 394 388
f 396 397 398
f 58 131 16
f 400 401 402
f 403 404 405
f 406 407 408
f 148 267 147
f 410 411 412
f 284 413 364
f 415 250 249
f 416 417 418
f 419 420 282
f 421 39 422
f 90 53 423
f 76 312 75
f 424 425 40
f 124 251 250
f 427 94 428
f 93 183 147
f 399 429 105
f 416 336 355
f 424 78 430
f 431 432 433
f 434 309 435
f 275 277 436
f 281 221 174
f 243 437 438
f 268 428 94
f 184 439 185
f 440 319 231
f 295 58 91
f 268 427 428
f 93 268 94
f 296 294 441
f 189 33 313
f 300 124 250
f 410 443 444
f 446 447 445
f 426 140 139
f 448 449 87
f 113 450 451
f 452 453 454
f 453 291 454
f 259 19 257
f 19 18 257
f 74 455 32
f 457 458 459
f 458 460 459
f 461 462 463
f 395 465 464
f 83 63 15
f 211 468 466
f 64 116 62
f 456 469 470
f 113 471 450
f 472 473 191
f 213 73 448
f 475 476 477
f 47 241 242
f 232 71 395
f 369 298 297
f 479 481 441
f 482 483 484
f 485 486 487
f 488 218 391
f 489 439 184
f 139 138 426
f 271 270 243
f 51 491 492
f 213 5 73
f 97 228 335
f 369 442 298
f 297 296 494
f 495 349 403
f 496 407 497
f 407 406 497
f 498 497 499
f 500 127 501
f 502 503 504
f 503 505 504
f 506 434 507
f 508 509 510
f 511 512 513
f 38 143 468
f 31 33 333
f 213 448 87
f 489 514 439
f 345 23 344
f 67 69 516
f 69 517 516
f 344 23 518
f 519 122 121
f 520 26 521
f 353 88 351
f 379 522 18
f 522 523 18
f 478 524 209
f 525 27 526
f 27 527 526
f 32 330 92
f 213 87 3
f 528 529 177
f 87 530 3
f 57 56 531
f 532 387 355
f 264 533 534
f 297 167 369
f 535 536 537
f 536 538 537
f 489 539 514
f 540 510 509
f 541 542 346
f 542 347 346
f 543 496 6
f 297 494 332
f 545 361 546
f 545 546 547
f 285 548 286
f 249 251 123
f 161 40 172
f 549 550 551
f 550 552 551
f 135 553 34
f 94 169 95
f 123 251 124
f 554 352 555
f 427 557 556
f 207 209 449
f 395 71 303
f 558 559 560
f 559 561 560
f 563 149 564
f 565 566 567
f 440 568 569
f 294 298 442
f 570 486 571
f 433 432 380
f 559 572 561
f 540 573 574
f 573 575 574
f 387 576 355
f 506 577 434
f 421 77 39
f 31 333 330
f 579 159 199
f 246 248 254
f 248 255 254
f 9 580 8
f 581 151 582
f 75 311 86
f 583 584 558
f 585 121 505
f 586 587 588
f 590 591 592
f 591 285 592
f 263 593 264
f 593 533 264
f 391 218 594
f 10 595 596
f 273 597 108
f 598 599 600
f 553 601 34
f 336 602 532
f 602 387 532
f 423 603 182
f 604 605 606
f 605 607 606
f 82 608 469
f 609 515 610
f 590 611 612
f 232 32 455
f 613 102 104
f 614 615 98
f 193 616 194
f 568 617 569
f 617 618 569
f 173 192 619
f 55 620 621
f 622 623 624
f 584 625 558
f 125 627 626
f 79 330 333
f 232 455 71
f 628 453 452
f 263 629 593
f 630 342 631
f 297 165 167
f 390 513 391
f 632 104 633
f 152 134 62
f 509 508 490
f 85 63 83
f 523 257 18
f 634 635 636
f 637 638 639
f 638 640 639
f 206 205 641
f 642 643 644
f 645 646 310
f 646 308 310
f 450 471 647
f 471 648 647
f 557 267 148
f 649 651 650
f 105 652 350
f 9 7 654
f 655 541 346
f 65 468 211
f 421 422 10
f 102 613 189
f 656 630 631
f 532 355 336
f 53 416 418
f 657 445 658
f 349 659 660
f 75 86 662
f 663 664 665
f 667 668 669
f 670 667 671
f 88 672 610
f 180 673 674
f 673 675 674
f 676 677 678
f 113 679 111
f 579 199 680
f 90 182 53
f 199 682 680
f 683 108 597
f 391 513 488
f 513 512 488
f 684 685 686
f 94 668 168
f 131 687 688
f 399 95 429
f 38 468 65
f 169 94 168
f 690 519 585
f 519 121 585
f 691 692 624
f 693 695 694
f 144 699 700
f 699 462 700
f 501 127 126
f 594 171 392
f 62 134 63
f 701 562 140
f 146 145 236
f 611 702 703
f 570 704 705
f 706 707 708
f 557 148 709
f 599 598 710
f 422 161 160
f 579 160 159
f 711 712 713
f 470 714 456
f 378 679 522
f 715 716 660
f 177 529 717
f 529 397 717
f 718 719 705
f 522 679 113
f 15 17 83
f 720 275 126
f 275 436 126
f 721 318 275
f 318 722 275
f 115 116 383
f 723 633 104
f 724 28 725
f 75 662 726
f 654 48 9
f 48 727 9
f 728 729 730
f 729 731 730
f 170 218 732
f 426 701 140
f 734 735 736
f 737 738 739
f 740 741 742
f 350 652 183
f 193 155 683
f 743 744 745
f 193 683 616
f 746 326 747
f 326 325 747
f 748 339 338
f 749 13 190
f 750 751 752
f 753 38 65
f 753 65 479
f 753 479 441
f 294 442 202
f 133 74 15
f 291 453 292
f 755 225 756
f 757 585 505
f 78 758 759
f 28 499 30
f 548 287 286
f 512 760 488
f 701 761 562
f 406 30 497
f 30 499 497
f 762 763 368
f 384 116 64
f 479 66 212
f 594 218 171
f 764 433 380
f 765 766 734
f 766 677 734
f 51 492 50
f 767 768 738
f 769 770 771
f 457 459 772
f 622 285 591
f 452 773 774
f 726 775 210
f 655 346 776
f 346 777 776
f 778 779 527
f 780 781 782
f 378 522 379
f 6 783 7
f 783 605 7
f 178 784 785
f 290 786 490
f 702 787 328
f 788 789 790
f 65 66 479
f 147 652 791
f 34 601 792
f 793 794 795
f 794 796 795
f 149 151 564
f 797 798 799
f 698 606 607
f 744 800 348
f 618 801 47
f 41 242 42
f 431 461 463
f 148 147 791
f 802 489 578
f 804 586 805
f 566 565 806
f 228 802 578
f 593 807 808
f 602 809 387
f 809 810 387
f 336 311 809
f 336 809 602
f 387 810 394
f 673 812 675
f 812 813 675
f 814 815 129
f 816 247 365
f 247 246 365
f 32 382 313
f 461 817 700
f 801 166 47
f 617 801 618
f 818 819 820
f 519 821 122
f 821 656 122
f 822 823 824
f 604 654 7
f 826 827 828
f 829 830 831
f 832 327 329
f 833 834 835
f 466 468 836
f 424 837 425
f 838 714 470
f 839 840 841
f 478 842 574
f 52 416 53
f 52 54 336
f 52 336 416
f 843 844 272
f 632 843 272
f 523 845 846
f 847 848 849
f 848 850 849
f 851 852 853
f 183 652 147
f 708 855 854
f 837 493 25
f 856 857 858
f 655 859 860
f 576 356 355
f 861 862 661
f 454 291 863
f 709 864 865
f 96 168 667
f 866 693 694
f 867 868 869
f 159 520 521
f 870 521 26
f 872 548 624
f 548 873 624
f 803 219 874
f 424 40 39
f 424 39 78
f 875 876 517
f 876 516 517
f 877 878 487
f 878 485 487
f 106 105 307
f 171 170 879
f 83 825 84
f 590 612 591
f 343 208 448
f 781 334 230
f 61 229 881
f 882 883 363
f 883 737 363
f 619 651 173
f 327 703 328
f 703 702 328
f 380 432 463
f 814 129 130
f 314 316 570
f 316 486 570
f 324 142 38
f 885 886 884
f 621 788 227
f 394 810 809
f 887 888 44
f 888 889 44
f 632 633 724
f 312 809 311
f 581 890 891
f 103 603 423
f 418 103 423
f 93 95 350
f 668 94 427
f 668 427 669
f 892 359 480
f 893 894 895
f 894 896 895
f 897 898 899
f 103 723 104
f 900 901 732
f 253 900 732
f 902 85 84
f 159 521 199
f 576 698 356
f 698 387 389
f 199 521 870
f 867 869 903
f 869 904 903
f 675 813 674
f 905 906 907
f 90 423 182
f 909 910 911
f 912 468 143
f 913 914 915
f 914 916 915
f 917 918 919
f 920 921 922
f 923 924 409
f 925 926 77
f 780 492 491
f 191 140 927
f 76 75 726
f 928 338 337
f 929 930 615
f 797 931 932
f 97 335 614
f 239 933 482
f 933 239 934
f 72 935 936
f 937 938 790
f 938 756 790
f 285 287 592
f 897 899 939
f 899 828 939
f 653 514 539
f 653 670 514
f 755 853 940
f 125 353 352
f 662 187 775
f 941 476 69
f 476 942 69
f 236 943 146
f 155 299 109
f 944 689 564
f 114 945 116
f 682 199 200
f 382 189 313
f 655 860 541
f 860 535 541
f 947 847 849
f 846 828 258
f 613 33 189
f 948 191 815
f 949 801 950
f 801 617 950
f 951 952 953
f 651 649 173
f 189 954 102
f 935 5 34
f 935 792 601
f 572 559 833
f 417 723 955
f 207 448 208
f 956 957 958
f 360 959 361
f 959 960 361
f 748 961 589
f 963 964 811
f 182 603 102
f 462 112 463
f 965 966 967
f 966 968 967
f 108 154 109
f 969 970 881
f 474 758 77
f 372 971 637
f 971 972 637
f 748 307 961
f 973 942 476
f 974 187 189
f 975 976 544
f 978 342 341
f 573 979 11
f 980 981 982
f 983 617 627
f 617 568 627
f 63 134 15
f 155 154 683
f 108 683 154
f 831 830 703
f 830 984 703
f 269 349 985
f 986 249 987
f 187 662 188
f 988 357 879
f 990 991 992
f 378 377 993
f 994 995 996
f 781 230 880
f 997 998 833
f 988 879 999
f 764 380 212
f 179 277 181
f 26 826 870
f 907 906 686
f 43 1000 41
f 502 907 503
f 1001 1002 1003
f 867 1004 1005
f 743 1006 744
f 864 148 908
f 1007 918 1008
f 188 662 156
f 232 974 382
f 70 509 490
f 267 557 268
f 268 557 427
f 114 80 945
f 1009 905 907
f 988 236 357
f 114 81 80
f 716 1010 1011
f 625 559 558
f 400 402 415
f 1012 823 531
f 386 787 1013
f 871 91 280
f 295 91 871
f 91 92 280
f 279 871 280
f 871 279 1014
f 38 753 324
f 441 325 324
f 913 338 914
f 338 928 914
f 1015 997 833
f 903 904 492
f 398 529 1016
f 650 651 542
f 195 577 507
f 997 342 998
f 342 1017 998
f 1018 846 451
f 1019 1020 1021
f 972 971 1022
f 204 1023 1024
f 380 463 381
f 364 261 260
f 364 413 261
f 622 624 285
f 624 873 285
f 782 781 1004
f 781 1025 1004
f 880 1025 781
f 1025 880 661
f 1026 982 981
f 167 370 369
f 379 1028 1029
f 1028 1030 1029
f 721 37 318
f 276 673 277
f 673 181 277
f 463 432 431
f 942 1031 69
f 681 666 1032
f 748 589 339
f 1034 307 748
f 1035 608 82
f 261 1036 466
f 779 1037 526
f 974 232 395
f 189 382 974
f 187 974 395
f 819 430 759
f 430 78 759
f 673 636 812
f 102 603 103
f 867 903 1004
f 780 782 492
f 782 903 492
f 222 224 1038
f 1039 722 1040
f 1041 819 759
f 758 78 77
f 1042 877 487
f 167 166 370
f 1043 456 358
f 721 275 37
f 275 35 37
f 1044 1032 544
f 1045 886 885
f 626 231 353
f 125 626 353
f 124 300 217
f 125 217 627
f 626 627 568
f 626 568 231
f 575 1046 10
f 1047 1048 719
f 1049 208 343
f 110 419 989
f 921 793 922
f 1050 858 857
f 1051 1052 1053
f 1052 1054 1053
f 219 220 874
f 754 370 166
f 403 349 271
f 1055 620 1056
f 620 1057 1056
f 1058 915 491
f 915 1059 491
f 359 361 480
f 1061 1062 1063
f 1064 1065 1066
f 1065 1006 1066
f 1067 1068 1069
f 1070 918 1027
f 708 707 1071
f 6 8 543
f 1072 707 288
f 288 707 706
f 10 11 421
f 407 496 543
f 1073 1074 1075
f 1076 666 681
f 1077 1078 1079
f 1035 1080 608
f 1013 787 923
f 712 537 538
f 359 115 383
f 359 383 360
f 82 115 214
f 115 359 214
f 359 892 214
f 247 1016 248
f 423 53 418
f 715 660 659
f 657 1076 946
f 1076 681 946
f 1081 130 1082
f 445 657 946
f 211 212 66
f 1083 1084 1085
f 581 1067 1086
f 303 465 395
f 1008 918 1087
f 1088 1089 1090
f 1091 315 1092
f 924 923 1093
f 130 129 1021
f 28 27 725
f 930 337 615
f 1094 1057 1095
f 666 544 1032
f 441 324 753
f 1096 186 370
f 1097 315 759
f 315 1041 759
f 937 790 789
f 592 787 590
f 590 787 611
f 787 702 611
f 592 287 787
f 287 923 787
f 1013 923 409
f 523 846 257
f 846 258 257
f 969 881 578
f 885 545 547
f 109 419 110
f 1098 417 416
f 165 1099 1100
f 1101 611 1102
f 1098 416 355
f 43 964 1000
f 749 467 393
f 735 677 676
f 1103 1104 1094
f 1104 1057 1094
f 579 680 160
f 404 1105 1106
f 625 584 1107
f 860 859 909
f 859 910 909
f 1108 1109 99
f 1101 612 611
f 300 1110 301
f 1111 776 1112
f 776 1113 1112
f 645 310 1114
f 729 1115 822
f 1115 1103 822
f 418 955 103
f 418 417 955
f 32 313 33
f 232 382 32
f 1089 1116 100
f 132 362 1117
f 738 1118 767
f 1119 768 516
f 920 317 37
f 1120 1121 1122
f 1120 1122 690
f 105 961 307
f 178 785 179
f 785 1020 179
f 42 259 827
f 242 259 42
f 827 258 828
f 19 259 242
f 19 242 20
f 787 386 328
f 832 829 327
f 829 831 327
f 840 1123 994
f 1123 995 994
f 1100 1124 241
f 386 1013 409
f 350 95 399
f 440 231 568
f 371 1117 372
f 669 1125 671
f 869 727 904
f 441 1126 296
f 385 409 962
f 385 386 409
f 204 206 504
f 1031 875 517
f 913 915 338
f 484 1128 1127
f 920 37 921
f 37 1129 921
f 1130 306 1131
f 306 841 1131
f 1132 891 944
f 1064 1133 525
f 1134 878 1135
f 878 1136 1135
f 661 1137 1025
f 1004 1025 1137
f 852 1138 853
f 276 722 673
f 722 1039 673
f 828 846 1018
f 1139 1140 874
f 808 807 256
f 1141 649 1142
f 148 864 709
f 1143 761 701
f 489 970 578
f 103 955 723
f 417 498 723
f 498 1144 723
f 498 499 1144
f 1145 724 723
f 724 633 723
f 724 1145 28
f 1144 499 1145
f 499 28 1145
f 723 1144 1145
f 512 888 760
f 1076 657 666
f 964 43 1147
f 615 337 169
f 654 1148 48
f 180 181 673
f 326 838 1149
f 1124 20 241
f 319 569 811
f 1150 811 569
f 983 1151 617
f 1151 950 617
f 1152 1153 1154
f 984 830 933
f 82 469 80
f 195 507 196
f 1155 835 1152
f 1060 785 784
f 572 833 835
f 1156 1157 1158
f 921 794 793
f 963 47 41
f 6 496 783
f 354 356 698
f 607 354 698
f 355 1159 498
f 744 1006 800
f 1160 200 1161
f 125 352 123
f 925 11 1162
f 11 979 1162
f 1163 565 567
f 1066 1133 1064
f 1164 1165 796
f 82 81 115
f 115 81 114
f 1071 1166 936
f 782 1004 903
f 563 1167 149
f 1168 128 1169
f 128 127 1169
f 185 369 186
f 1170 1146 2
f 123 1172 1171
f 1091 1092 316
f 1173 666 658
f 1174 1175 1171
f 1175 1176 1171
f 1177 796 1178
f 1173 658 273
f 1021 1020 1060
f 1060 1020 785
f 467 976 975
f 1070 695 919
f 734 677 735
f 1179 1180 1181
f 1026 1079 982
f 737 883 738
f 844 769 333
f 1182 1011 1183
f 839 1123 840
f 1184 1185 1136
f 1186 1086 375
f 1086 1187 375
f 1085 1188 1189
f 941 68 1083
f 690 585 640
f 585 757 640
f 1190 1191 877
f 1191 878 877
f 276 275 722
f 1192 1119 1193
f 1194 218 488
f 252 253 732
f 1194 1195 252
f 488 760 1194
f 760 1195 1194
f 732 1194 252
f 1194 732 218
f 470 469 1073
f 1073 1075 470
f 1055 1196 621
f 1197 151 581
f 535 860 909
f 591 612 911
f 1101 911 612
f 535 909 536
f 385 1198 329
f 972 1022 1153
f 1070 919 918
f 691 1199 1112
f 528 1200 529
f 222 226 1201
f 728 1202 1203
f 794 1204 1164
f 1075 143 142
f 845 522 113
f 324 326 1149
f 867 1005 868
f 1005 235 868
f 905 1205 235
f 1205 868 235
f 845 523 522
f 1200 255 248
f 942 875 1031
f 1088 763 1206
f 158 791 107
f 107 652 105
f 399 105 350
f 158 210 791
f 137 190 13
f 526 1037 1064
f 1037 1065 1064
f 806 565 1163
f 2 1042 1170
f 945 80 358
f 1207 1208 1109
f 1208 1209 1109
f 354 607 1210
f 1211 398 397
f 845 113 451
f 1058 491 51
f 1212 465 303
f 1100 47 166
f 1100 241 47
f 166 165 1100
f 26 520 24
f 24 172 25
f 172 24 520
f 1121 821 1122
f 1005 233 235
f 1087 918 917
f 1213 1214 368
f 978 341 1215
f 341 1216 1215
f 739 738 1153
f 738 1154 1153
f 1061 1217 813
f 1217 1218 813
f 117 119 1219
f 1080 1220 1074
f 1221 762 1222
f 238 1223 239
f 874 220 344
f 1224 1225 1129
f 1225 1204 1129
f 1226 664 534
f 1227 1198 886
f 1027 918 1007
f 743 1228 1066
f 1228 1133 1066
f 489 412 411
f 1229 988 999
f 1230 1231 1232
f 1231 1012 1232
f 1233 1234 1235
f 1236 123 1171
f 1237 1033 1147
f 1226 1238 1239
f 441 481 1126
f 508 1240 490
f 490 1240 290
f 290 1240 1241
f 780 491 1242
f 491 1243 1242
f 1071 936 1244
f 735 676 1245
f 117 1219 1246
f 1247 755 1201
f 755 940 1201
f 342 630 821
f 1091 316 315
f 1248 1249 1250
f 1249 1251 1250
f 1109 1108 1207
f 795 796 1177
f 1252 1253 1254
f 977 132 1255
f 1132 581 891
f 622 591 623
f 591 1256 623
f 915 162 1034
f 1123 841 992
f 841 990 992
f 162 915 1058
f 915 1034 338
f 1034 748 338
f 1034 164 307
f 1034 162 164
f 1257 51 49
f 1257 49 394
f 1058 51 162
f 51 1257 162
f 162 394 163
f 162 1257 394
f 109 414 420
f 845 451 846
f 1258 875 973
f 875 942 973
f 305 841 306
f 1259 1260 1261
f 1262 1263 1264
f 1263 1265 1264
f 650 542 712
f 542 537 712
f 650 711 649
f 745 619 192
f 643 1263 1185
f 548 285 873
f 447 658 445
f 1023 505 121
f 804 805 858
f 805 856 858
f 862 373 684
f 724 525 632
f 525 1133 632
f 1266 1003 1002
f 1267 456 714
f 941 69 68
f 1026 981 855
f 598 1168 710
f 1097 1092 315
f 851 853 756
f 853 755 756
f 541 537 542
f 650 712 711
f 562 927 140
f 641 893 1268
f 893 895 1268
f 1269 1249 1270
f 451 694 1018
f 126 436 1271
f 656 631 122
f 631 1272 122
f 255 1273 256
f 1273 1274 256
f 1275 1276 1277
f 1102 611 1278
f 611 703 1278
f 1028 379 18
f 978 1279 631
f 1279 1272 631
f 57 531 1280
f 1281 990 1282
f 1116 863 1283
f 1284 70 490
f 776 1285 1113
f 719 718 1233
f 718 1234 1233
f 417 1098 498
f 355 498 1098
f 1051 962 409
f 56 224 1286
f 1164 1204 1225
f 254 256 365
f 256 807 365
f 912 143 1075
f 1287 1248 1288
f 1248 571 1288
f 1289 1109 1209
f 541 535 537
f 50 727 48
f 50 492 727
f 492 904 727
f 1092 1170 1290
f 1170 1042 1290
f 1042 487 1290
f 316 1092 486
f 1092 1290 486
f 1290 487 486
f 608 1073 469
f 1073 608 1074
f 608 1080 1074
f 582 1291 581
f 435 1292 507
f 1292 1293 507
f 1099 1124 1100
f 663 1294 664
f 1294 1295 664
f 362 1022 1117
f 1022 971 1117
f 1296 445 149
f 401 1297 402
f 1207 475 1208
f 765 932 931
f 526 1064 525
f 729 822 824
f 551 1298 518
f 765 734 1266
f 314 570 705
f 988 943 236
f 1118 1084 1083
f 470 1075 142
f 1245 1299 1300
f 724 725 525
f 743 1066 1006
f 815 191 927
f 237 145 299
f 630 656 821
f 1301 1223 238
f 1221 852 1302
f 609 610 672
f 1174 1171 1303
f 1304 917 919
f 503 1305 505
f 1306 922 1307
f 708 854 706
f 885 884 545
f 693 866 450
f 451 450 866
f 975 544 666
f 583 634 584
f 1308 973 476
f 195 1309 577
f 131 688 17
f 419 282 989
f 864 153 358
f 1310 366 1270
f 236 145 237
f 1311 222 1201
f 978 1215 1279
f 1312 1313 1314
f 166 801 949
f 2 1315 1
f 1120 690 640
f 757 639 640
f 600 1129 36
f 36 1129 37
f 368 367 762
f 367 1222 762
f 663 665 1316
f 1142 1317 295
f 87 1318 1160
f 922 793 1307
f 1227 886 829
f 886 1045 829
f 188 954 189
f 699 471 112
f 10 1046 12
f 290 1241 1319
f 1320 1321 1322
f 144 700 145
f 1139 552 1323
f 887 760 888
f 72 936 1166
f 1324 763 1325
f 763 762 1325
f 462 699 112
f 190 467 749
f 1326 160 680
f 206 1268 502
f 1327 959 1328
f 1329 1330 1331
f 292 453 1316
f 1332 1333 1334
f 1333 1335 1334
f 544 948 1044
f 1002 1001 1336
f 1001 29 1336
f 851 756 1325
f 756 1337 1325
f 30 1336 29
f 185 442 369
f 1266 1002 1338
f 194 1339 1340
f 1056 1057 266
f 1341 303 455
f 1127 1342 825
f 1298 1139 344
f 243 270 437
f 1343 853 1138
f 324 1149 142
f 470 1149 838
f 142 1149 470
f 120 1344 1024
f 1344 1345 1024
f 1256 911 1346
f 911 910 1346
f 1274 1273 1238
f 976 467 473
f 573 1046 575
f 1340 1348 357
f 1047 1233 1349
f 1233 1235 1349
f 941 477 476
f 1223 934 239
f 1296 149 1350
f 862 1351 1163
f 1352 1353 1354
f 1355 1229 1356
f 596 575 10
f 245 438 1079
f 784 967 1060
f 1357 1207 1108
f 1169 127 500
f 786 1358 490
f 937 774 938
f 13 260 203
f 260 749 364
f 749 260 13
f 749 393 364
f 1359 29 1001
f 1360 184 186
f 1176 1236 1171
f 574 575 596
f 1361 1362 1289
f 1363 1364 390
f 47 963 618
f 474 1315 1365
f 1366 1330 583
f 1061 813 1062
f 813 1367 1062
f 1330 1367 813
f 1329 1062 1330
f 1062 1367 1330
f 1096 754 301
f 323 1368 840
f 840 1368 1131
f 1368 1130 1131
f 323 840 1369
f 1294 789 1196
f 405 1370 495
f 11 12 1046
f 1371 1372 1373
f 1374 1165 691
f 1165 692 691
f 1278 703 934
f 703 984 934
f 995 1239 996
f 1375 759 758
f 1112 1376 1374
f 27 525 725
f 527 779 526
f 921 1129 794
f 1129 1204 794
f 1048 1047 819
f 1047 820 819
f 153 945 358
f 1377 329 1198
f 794 1164 796
f 439 514 202
f 1221 1138 852
f 233 1378 234
f 95 337 429
f 434 1379 309
f 756 225 790
f 396 398 1016
f 1380 1096 301
f 411 1381 489
f 419 109 420
f 172 520 161
f 1260 681 1032
f 1173 975 666
f 333 769 771
f 1295 534 664
f 962 562 1198
f 786 289 1382
f 248 1016 1200
f 1016 529 1200
f 1347 1383 547
f 690 1122 821
f 690 821 519
f 1384 1385 1386
f 1385 1362 1386
f 1385 1089 1109
f 1089 100 1109
f 438 437 1077
f 1387 1084 883
f 1084 1118 883
f 68 767 1083
f 767 1118 1083
f 87 449 1388
f 476 475 1389
f 475 1207 1389
f 1390 536 909
f 933 934 984
f 442 439 202
f 1236 1176 986
f 1371 687 1317
f 778 1391 779
f 779 1391 1037
f 1266 734 1003
f 734 736 1003
f 1003 736 1392
f 939 828 1018
f 1162 926 925
f 295 1317 131
f 484 687 1373
f 688 687 484
f 131 1317 687
f 825 688 484
f 17 688 83
f 83 688 825
f 1178 1376 1393
f 1376 847 1393
f 1011 1012 1231
f 1027 1394 897
f 704 1395 1179
f 857 1396 1050
f 1396 1174 1050
f 1245 1309 1299
f 615 169 98
f 745 348 619
f 348 347 619
f 745 744 348
f 542 651 347
f 651 619 347
f 1293 1292 1397
f 1398 1399 1130
f 1400 1401 1402
f 194 1340 155
f 861 1403 862
f 1360 1096 1380
f 186 1096 1360
f 1096 370 754
f 119 1404 209
f 209 1404 478
f 508 510 842
f 478 1404 842
f 119 1241 1404
f 1241 1240 1404
f 1404 1240 842
f 1240 508 842
f 1271 1019 501
f 178 674 1405
f 1198 385 962
f 562 761 1198
f 735 1245 736
f 1008 1406 1007
f 536 1301 538
f 1407 1169 500
f 438 245 243
f 629 365 593
f 365 807 593
f 1055 621 620
f 1103 1094 822
f 1115 729 728
f 854 1408 1409
f 1408 1354 1409
f 203 1410 1220
f 1054 501 1021
f 36 35 720
f 35 275 720
f 995 992 1411
f 992 665 1411
f 1305 757 505
f 1141 1142 1412
f 1047 719 1233
f 598 128 1168
f 573 11 1046
f 704 570 1250
f 570 571 1250
f 1413 900 803
f 1414 1138 1222
f 175 177 322
f 177 1063 322
f 120 1024 121
f 1024 1023 121
f 714 1321 1267
f 1321 1320 1267
f 1262 1264 458
f 1192 1154 738
f 219 803 253
f 841 840 1131
f 788 790 227
f 790 225 227
f 1047 1349 1415
f 560 1416 558
f 1416 583 558
f 1366 583 1416
f 279 221 1014
f 233 1005 1137
f 1005 1004 1137
f 1155 1152 1154
f 55 621 56
f 621 1038 56
f 1285 850 1417
f 514 201 202
f 1306 196 507
f 983 217 1151
f 697 404 22
f 119 1246 1219
f 318 1040 722
f 1379 676 309
f 676 678 309
f 309 678 310
f 960 85 546
f 1241 119 1319
f 117 1319 118
f 1418 1202 511
f 203 1220 1035
f 1419 1351 862
f 200 199 1007
f 397 396 1259
f 410 321 977
f 457 772 458
f 772 1420 458
f 1220 1080 1035
f 882 401 883
f 62 945 153
f 62 116 945
f 1097 759 1375
f 530 550 549
f 208 1246 1421
f 208 1421 209
f 1421 119 209
f 1422 1288 1134
f 1037 1391 1423
f 818 820 1156
f 586 958 587
f 482 1424 239
f 323 1369 1425
f 1426 1412 871
f 1189 1188 1427
f 1188 1428 1427
f 358 1429 865
f 823 1430 531
f 1413 999 901
f 442 185 439
f 804 858 555
f 686 685 907
f 685 503 907
f 317 1431 318
f 1009 1268 1432
f 1433 1434 1435
f 1436 1079 1437
f 912 1075 1438
f 1398 876 875
f 768 767 67
f 767 68 67
f 1427 1175 1189
f 1366 1331 1330
f 1223 1390 1278
f 881 977 1255
f 1207 1357 1389
f 1108 99 1357
f 118 1319 119
f 527 1439 1440
f 4 3 530
f 1282 990 841
f 299 414 109
f 655 776 859
f 825 1342 1383
f 358 865 864
f 1163 567 862
f 233 1137 1378
f 1137 1441 1378
f 1155 1154 1193
f 1154 1192 1193
f 1376 1178 1374
f 1164 1225 692
f 1165 1164 692
f 1365 1442 474
f 1443 294 201
f 1306 1444 922
f 1293 1397 1444
f 1141 1412 173
f 1094 1095 1430
f 1419 684 1351
f 1158 1157 964
f 504 206 502
f 224 56 1038
f 775 726 662
f 659 349 495
f 768 67 516
f 1365 1315 1146
f 1319 1072 288
f 1445 1169 1407
f 1446 258 827
f 642 644 1352
f 644 1353 1352
f 204 1024 205
f 1024 797 205
f 654 604 1148
f 604 1448 1148
f 762 1302 1325
f 1178 1393 1177
f 795 1177 1393
f 402 321 415
f 929 614 335
f 253 803 900
f 1417 850 848
f 344 1139 874
f 797 799 931
f 1117 60 132
f 1374 1178 1165
f 1178 796 1165
f 953 1185 951
f 1185 1263 951
f 494 296 1126
f 1449 1260 1032
f 1450 1451 1452
f 1453 1136 1191
f 1321 1125 669
f 714 1125 1321
f 1454 1320 557
f 1320 556 557
f 322 1063 1062
f 1221 1222 1138
f 1455 770 743
f 770 1228 743
f 1182 824 823
f 1238 1226 1274
f 808 533 593
f 1456 1457 1206
f 175 323 176
f 323 1425 176
f 528 177 176
f 1458 1338 1459
f 1249 1460 1251
f 1461 1402 136
f 898 870 826
f 1462 1394 1027
f 969 578 970
f 993 377 331
f 1385 1289 1362
f 1 1464 1463
f 283 420 414
f 342 821 1017
f 669 1322 1321
f 427 1320 669
f 1197 581 1132
f 693 450 647
f 648 471 699
f 1327 1328 1465
f 1466 1467 927
f 1150 618 963
f 8 1335 543
f 1335 1333 543
f 1155 1193 835
f 1193 561 835
f 335 334 929
f 780 1242 781
f 1355 647 943
f 528 176 1200
f 546 85 1347
f 431 433 1468
f 117 1049 1072
f 1067 1291 582
f 247 946 1469
f 552 1298 551
f 445 1296 446
f 271 1105 404
f 1470 481 479
f 85 902 1347
f 1033 1237 493
f 997 1015 1471
f 720 126 598
f 126 128 598
f 332 1099 297
f 297 1099 165
f 1041 315 1472
f 314 705 315
f 705 1472 315
f 705 719 1472
f 719 1048 1472
f 1048 1041 1472
f 804 555 586
f 555 1473 586
f 738 768 1192
f 768 1119 1192
f 1446 827 259
f 144 146 699
f 146 648 699
f 1474 146 943
f 1474 648 146
f 647 648 1474
f 943 647 1474
f 1382 1475 1313
f 1 1463 2
f 775 464 210
f 708 1071 1244
f 708 1244 1079
f 935 1244 936
f 1476 129 927
f 1477 1478 1479
f 55 57 1280
f 55 1280 620
f 1280 1095 620
f 1061 1063 1217
f 111 679 993
f 864 908 1212
f 1480 937 1294
f 937 789 1294
f 983 627 217
f 1031 517 69
f 1234 718 1180
f 1383 1347 902
f 905 235 906
f 235 234 906
f 806 1163 1351
f 1284 1312 1464
f 1284 1464 1
f 1284 1 70
f 882 363 401
f 363 1297 401
f 1182 731 824
f 1481 1482 1483
f 641 1484 893
f 851 1325 852
f 1294 663 1480
f 924 1052 409
f 1398 875 1399
f 1258 1399 875
f 1201 1485 1486
f 1343 1138 1201
f 1138 1485 1201
f 1414 1486 1138
f 1486 1485 1138
f 112 471 113
f 111 381 463
f 111 1487 112
f 112 1487 463
f 463 1487 111
f 1260 1469 1488
f 1016 1469 1259
f 1469 1260 1259
f 912 836 468
f 184 1360 443
f 444 320 321
f 321 410 444
f 1489 623 1346
f 1490 203 261
f 1397 1491 1444
f 1379 577 1309
f 1372 1142 1492
f 1341 134 152
f 247 1469 1016
f 395 464 775
f 1413 901 900
f 926 1315 474
f 1493 1494 891
f 1300 1299 740
f 1299 1495 740
f 1496 1136 1185
f 939 1018 694
f 1480 774 937
f 587 1497 588
f 1220 1410 1438
f 1410 836 1438
f 777 850 1285
f 777 346 348
f 136 1402 1401
f 1398 1252 876
f 1252 516 876
f 554 1172 352
f 1458 894 1484
f 925 77 421
f 1297 132 402
f 1305 685 757
f 1498 685 684
f 639 1498 372
f 684 373 1498
f 373 372 1498
f 1498 639 685
f 639 757 685
f 1214 1270 368
f 1270 366 368
f 339 589 429
f 1019 179 1020
f 179 1019 277
f 1202 728 730
f 1499 1342 1128
f 1312 1500 1313
f 410 1381 411
f 443 1360 444
f 1360 1380 444
f 444 1380 320
f 200 1007 1161
f 641 1268 206
f 693 647 1356
f 647 1355 1356
f 986 987 1236
f 1089 1385 1090
f 107 791 652
f 1501 1060 948
f 786 1382 1500
f 1382 1313 1500
f 1247 1201 225
f 1201 226 225
f 204 504 1023
f 504 505 1023
f 1338 1502 1266
f 848 847 1376
f 1503 1104 1103
f 394 49 1148
f 1504 1352 1505
f 1408 1352 1354
f 980 1505 1408
f 1505 1352 1408
f 981 980 1408
f 137 141 190
f 1506 1218 1217
f 1507 661 567
f 158 106 210
f 822 1094 823
f 1094 1430 823
f 977 1381 410
f 1413 917 999
f 1083 1189 941
f 1189 1508 941
f 941 1508 477
f 939 694 897
f 1375 758 474
f 1509 776 1489
f 776 1510 1489
f 716 349 660
f 1262 1486 1263
f 599 1511 1224
f 599 548 1511
f 141 140 191
f 191 473 190
f 1228 770 843
f 1483 1482 1068
f 670 201 514
f 670 671 201
f 263 265 1512
f 265 1104 1512
f 1450 1431 1451
f 1513 817 1514
f 448 73 343
f 772 1434 1230
f 1434 1515 1230
f 642 1516 643
f 1516 1265 643
f 406 1459 1336
f 1079 1078 982
f 985 349 1231
f 349 716 1231
f 1282 841 305
f 1335 8 580
f 287 1093 923
f 862 567 661
f 1500 1358 786
f 1517 1518 1428
f 1279 1344 1272
f 1430 1095 531
f 1095 1280 531
f 422 39 161
f 1019 1021 501
f 421 11 925
f 628 1519 453
f 453 1480 1316
f 1480 663 1316
f 1480 453 1519
f 1256 1346 623
f 472 948 473
f 348 800 777
f 800 850 777
f 976 473 544
f 1043 469 456
f 1338 1002 1459
f 1002 1336 1459
f 812 636 813
f 636 635 813
f 1359 27 29
f 1520 1521 805
f 271 404 403
f 896 894 1333
f 290 1319 288
f 628 774 1519
f 996 1239 1522
f 1422 1287 1288
f 1043 80 469
f 978 631 342
f 475 1508 1396
f 1508 1175 1396
f 567 566 1507
f 881 970 977
f 408 1333 894
f 571 1248 1250
f 1438 1075 1220
f 1075 1074 1220
f 949 301 754
f 170 901 879
f 198 795 1393
f 1039 1040 636
f 1040 1523 636
f 117 1246 1049
f 1496 1135 1136
f 188 156 157
f 1524 1494 1525
f 594 392 391
f 885 1526 1045
f 886 1198 761
f 89 1527 672
f 1011 1231 716
f 1528 671 1125
f 443 410 412
f 947 849 741
f 1528 1529 671
f 1152 835 1530
f 1449 1261 1260
f 100 1116 1283
f 1224 1511 1225
f 201 747 1443
f 361 960 546
f 609 752 515
f 988 1229 1355
f 1531 1186 1532
f 1186 374 1532
f 738 883 1118
f 1533 1392 1300
f 766 798 677
f 798 1534 677
f 849 1535 1423
f 849 1536 1535
f 1423 1537 1037
f 1537 1065 1037
f 1537 1536 800
f 1535 1536 1537
f 1423 1535 1537
f 123 987 249
f 352 1172 123
f 814 130 815
f 1332 895 1333
f 895 896 1333
f 1432 895 1538
f 1213 368 763
f 1060 967 1044
f 1339 1363 390
f 708 1079 1026
f 802 539 489
f 681 1469 946
f 1258 973 1539
f 869 1538 1334
f 1538 895 1334
f 752 751 515
f 14 203 1035
f 321 402 977
f 1383 902 84
f 539 802 228
f 686 1351 684
f 729 824 731
f 156 86 54
f 662 86 156
f 1197 1132 944
f 1228 843 1133
f 674 813 1218
f 1027 897 694
f 1326 680 1388
f 680 1318 1388
f 1326 1388 449
f 1341 152 303
f 1388 1318 87
f 425 25 172
f 40 425 172
f 837 25 425
f 628 452 774
f 987 123 1236
f 1446 259 258
f 426 733 1143
f 190 473 467
f 544 473 948
f 831 703 327
f 1391 742 1423
f 908 148 791
f 666 657 658
f 1223 1278 934
f 957 751 1540
f 751 750 1540
f 302 152 274
f 1541 1542 1450
f 1411 1239 995
f 926 474 77
f 639 372 637
f 1030 1099 332
f 926 1162 1315
f 466 1468 211
f 1316 665 293
f 665 991 293
f 1314 1543 1191
f 1015 833 625
f 833 559 625
f 924 1447 500
f 1419 862 684
f 1216 1452 1491
f 1452 1544 1491
f 947 741 847
f 363 737 1022
f 737 739 1022
f 1022 739 1153
f 372 1117 971
f 397 1259 1506
f 1259 966 1506
f 718 1179 1181
f 1003 1392 1545
f 981 854 855
f 1546 437 270
f 1529 201 671
f 917 1547 999
f 1544 1444 1491
f 1088 1090 763
f 1090 1213 763
f 1384 1214 1090
f 1214 1213 1090
f 1343 1201 853
f 1201 940 853
f 1514 414 299
f 607 605 1210
f 605 783 1210
f 1548 496 497
f 1548 498 1210
f 498 1159 1210
f 1159 354 1210
f 1248 1310 1249
f 1310 1270 1249
f 715 46 716
f 46 1010 716
f 415 1518 400
f 547 546 1347
f 120 122 1344
f 766 799 798
f 1455 771 770
f 1364 564 689
f 776 777 1285
f 850 800 1536
f 850 1536 849
f 1541 1549 1542
f 1549 1471 1542
f 1320 427 556
f 443 412 184
f 745 192 1455
f 192 771 1455
f 333 771 79
f 743 745 1455
f 79 771 192
f 79 192 174
f 980 1435 1505
f 1546 1435 980
f 741 849 742
f 849 1423 742
f 1550 847 741
f 1341 455 74
f 1466 562 1467
f 1496 1185 953
f 1551 953 367
f 953 952 367
f 1199 691 623
f 691 624 623
f 908 465 1212
f 1130 1399 306
f 1399 304 306
f 72 1166 73
f 195 197 1309
f 197 1299 1309
f 891 1531 1493
f 293 1281 1552
f 1281 1553 1552
f 293 991 1281
f 991 990 1281
f 1443 441 294
f 441 1443 325
f 1007 1406 1161
f 1422 1134 1135
f 43 1237 1147
f 1324 1325 1337
f 1428 1188 1517
f 1306 1307 196
f 1307 198 196
f 1551 367 366
f 793 795 1307
f 795 198 1307
f 680 682 1318
f 200 1160 1318
f 879 901 999
f 1490 1410 203
f 872 1511 548
f 1386 1460 1269
f 1249 1269 1460
f 99 101 1357
f 101 1389 1357
f 292 1316 293
f 591 911 1256
f 261 413 1036
f 1475 1354 1554
f 1354 1353 1554
f 1308 1389 1555
f 282 420 283
f 1050 1174 1303
f 527 1359 1439
f 1359 1545 1439
f 1077 1079 438
f 1546 1077 437
f 980 982 1078
f 1546 980 1077
f 980 1078 1077
f 862 1556 373
f 60 1556 862
f 354 1159 355
f 1243 914 1242
f 1227 829 1198
f 829 1377 1198
f 360 1328 959
f 1261 966 1259
f 1182 823 1011
f 823 1012 1011
f 184 412 489
f 85 960 959
f 1202 1418 1203
f 1418 1494 1203
f 1414 1222 951
f 1222 952 951
f 952 1222 367
f 1486 951 1263
f 1414 951 1486
f 1278 1390 1102
f 1390 909 1102
f 909 911 1102
f 1101 1102 911
f 645 1279 1215
f 552 1139 1298
f 586 1473 958
f 818 1156 819
f 1387 1517 1084
f 1517 1188 1084
f 431 1036 283
f 1387 401 1517
f 210 465 791
f 212 1557 1470
f 1380 1110 320
f 10 1558 595
f 1374 691 1112
f 1559 1420 772
f 339 429 337
f 536 1390 1301
f 1390 1223 1301
f 494 481 332
f 839 841 1123
f 1556 60 1117
f 1016 1259 396
f 1413 1560 917
f 595 1558 524
f 963 1000 964
f 1354 1475 1409
f 1379 1309 676
f 1309 1245 676
f 1271 436 1019
f 436 277 1019
f 1052 924 500
f 717 1063 177
f 397 1506 717
f 717 1506 1063
f 1506 1217 1063
f 1417 1113 1285
f 272 844 333
f 1533 740 1440
f 740 742 1440
f 1391 1440 742
f 377 379 1029
f 1427 1176 1175
f 852 1325 1302
f 266 1057 1561
f 264 534 266
f 1030 1124 1099
f 1028 18 20
f 20 1124 1028
f 1124 1030 1028
f 1030 332 331
f 1384 1090 1385
f 672 1527 609
f 1120 638 1562
f 638 1563 1562
f 467 989 393
f 381 111 331
f 1068 1482 1069
f 1482 375 1069
f 829 1045 1564
f 1045 1526 1564
f 1277 1130 1368
f 1331 1416 1565
f 1398 1130 1253
f 1130 1277 1253
f 1304 1547 917
f 901 170 732
f 1566 534 1294
f 534 1295 1294
f 789 788 1196
f 788 621 1196
f 2 1463 1042
f 877 1042 1463
f 769 844 770
f 844 843 770
f 1231 1230 1515
f 1518 415 249
f 1356 1229 1547
f 999 1547 1229
f 1304 1356 1547
f 673 1039 636
f 1330 813 635
f 634 583 635
f 583 1330 635
f 41 1000 963
f 1172 1050 1303
f 1432 1205 1009
f 1205 905 1009
f 1268 895 1432
f 1304 919 695
f 693 1356 695
f 1356 1304 695
f 661 1507 1441
f 1370 696 697
f 407 543 408
f 543 1333 408
f 406 408 1459
f 1335 580 1334
f 894 1458 408
f 1458 1459 408
f 797 932 205
f 511 1202 1567
f 1202 730 1567
f 1190 1464 1314
f 1464 1312 1314
f 1464 1190 1463
f 1190 1314 1191
f 877 1463 1190
f 1488 1469 681
f 582 1068 1067
f 1068 1568 1483
f 686 906 1351
f 906 806 1351
f 828 1569 826
f 820 1047 1415
f 510 574 842
f 829 1499 830
f 390 392 1339
f 778 1440 1391
f 1383 1564 1526
f 1120 640 638
f 230 335 228
f 1200 176 1570
f 117 1072 1319
f 484 1127 825
f 1523 1571 1572
f 1337 773 1324
f 1355 943 988
f 1573 555 351
f 111 993 331
f 1468 433 211
f 466 1036 1468
f 1468 1036 431
f 1232 1286 1559
f 56 1286 531
f 1286 1232 531
f 531 1232 1012
f 1497 1179 1395
f 946 1574 150
f 480 545 884
f 705 704 718
f 704 1179 718
f 871 1412 295
f 1571 1040 1575
f 318 1431 1040
f 1431 1575 1040
f 518 1298 344
f 1387 883 401
f 490 1358 1284
f 1312 1284 1500
f 1284 1358 1500
f 1436 245 1079
f 1030 331 1029
f 1297 363 132
f 1221 1302 762
f 1576 1532 1203
f 1247 225 755
f 227 226 1038
f 226 222 1038
f 149 445 150
f 946 150 445
f 711 1424 649
f 683 597 1577
f 597 1578 1577
f 310 678 1114
f 678 1534 1114
f 1070 1027 694
f 1070 694 695
f 1417 848 1113
f 1113 848 1112
f 848 1376 1112
f 290 289 786
f 653 539 97
f 1043 358 80
f 1551 1135 953
f 1530 835 1562
f 835 834 1562
f 584 634 1107
f 341 340 1549
f 997 1471 342
f 1471 1549 342
f 340 342 1549
f 816 1574 946
f 1574 816 365
f 1267 1320 456
f 270 269 1433
f 31 330 32
f 1326 449 524
f 524 449 209
f 422 1558 10
f 596 595 478
f 1326 524 160
f 524 1558 160
f 478 595 524
f 1572 1571 1575
f 920 1431 317
f 415 321 250
f 620 1095 1057
f 547 1526 885
f 151 1068 582
f 95 169 337
f 351 555 352
f 554 1050 1172
f 554 555 1050
f 555 858 1050
f 274 864 1212
f 587 958 1497
f 394 1148 388
f 1146 1579 1365
f 970 1381 977
f 1308 476 1389
f 178 1405 784
f 1271 501 126
f 1051 1467 962
f 586 588 1580
f 588 1581 1580
f 150 1574 151
f 540 574 510
f 478 574 596
f 49 48 1148
f 1270 1214 1269
f 1384 1269 1214
f 1384 1386 1269
f 1450 1452 1541
f 1040 1571 1523
f 60 59 1255
f 881 59 61
f 932 1502 1484
f 765 1266 932
f 1266 1502 932
f 129 1582 1021
f 239 1424 240
f 1054 1582 1053
f 461 431 817
f 299 1513 1514
f 1513 299 145
f 1401 553 135
f 975 989 467
f 975 110 989
f 975 273 110
f 1193 560 561
f 561 572 835
f 265 266 1561
f 265 1561 1104
f 1561 1057 1104
f 1566 266 534
f 137 13 14
f 1141 173 649
f 1389 101 1555
f 101 1552 1555
f 1146 1315 2
f 580 869 1334
f 1479 697 1477
f 1305 503 685
f 1385 1109 1289
f 401 400 1517
f 400 1518 1517
f 888 1583 889
f 1088 1206 1089
f 1206 1457 1089
f 1206 1324 1456
f 1324 773 1456
f 863 1116 1457
f 957 1584 958
f 1318 682 200
f 586 1580 805
f 1520 1580 1460
f 1580 1581 1460
f 388 1448 389
f 1148 1448 388
f 1585 707 1049
f 707 1072 1049
f 240 1424 713
f 713 1424 711
f 376 1115 374
f 1115 1586 374
f 500 501 1052
f 376 375 1481
f 375 1482 1481
f 861 661 1403
f 1350 446 1296
f 1530 1153 1152
f 1534 678 677
f 808 1274 533
f 981 1408 854
f 1263 643 1265
f 642 1352 1516
f 1258 1539 1399
f 1539 304 1399
f 305 1281 1282
f 1211 397 529
f 1520 805 1580
f 72 5 935
f 1264 1265 1516
f 1264 1516 458
f 1516 460 458
f 229 578 881
f 452 454 1456
f 454 1457 1456
f 634 1523 1107
f 1523 1572 1107
f 1584 957 1180
f 957 1540 1180
f 994 996 1570
f 1123 992 995
f 566 1378 1507
f 1478 1477 1587
f 489 1381 970
f 1588 1310 1287
f 1310 1248 1287
f 1475 1554 1313
f 1589 518 136
f 1589 551 518
f 137 14 138
f 137 139 141
f 912 1438 836
f 599 1224 600
f 1224 1129 600
f 1453 1191 644
f 1191 1543 644
f 244 245 553
f 1300 1392 1245
f 1392 736 1245
f 393 989 282
f 664 1411 665
f 1369 840 994
f 664 1226 1411
f 1226 1239 1411
f 1026 855 708
f 99 1109 100
f 1361 1521 1362
f 1386 1362 1460
f 1362 1590 1460
f 1521 1590 1362
f 1520 1460 1521
f 1460 1590 1521
f 1327 85 959
f 1327 1465 63
f 1591 1511 624
f 1511 872 624
f 1175 1174 1396
f 1415 319 811
f 601 553 245
f 534 533 1226
f 533 1274 1226
f 621 227 1038
f 494 1126 481
f 1447 1407 500
f 249 986 1428
f 1428 1518 249
f 1188 1085 1084
f 1592 351 515
f 1308 1555 973
f 337 914 928
f 1584 1180 1179
f 601 245 935
f 245 1437 935
f 1079 1244 1437
f 935 1437 1244
f 1436 1437 245
f 792 935 34
f 1495 1299 197
f 1550 741 197
f 741 1495 197
f 1495 741 740
f 1550 197 847
f 197 1593 847
f 847 1593 1393
f 1593 198 1393
f 197 198 1593
f 718 1181 1180
f 46 697 44
f 661 1441 1137
f 1397 1292 1491
f 132 977 402
f 1371 1373 687
f 484 1373 482
f 1010 46 1011
f 46 1594 1011
f 715 659 46
f 659 1595 46
f 1121 998 821
f 998 1017 821
f 1562 1563 1530
f 1120 1562 1121
f 1562 998 1121
f 1231 1515 985
f 1492 482 1373
f 223 1286 224
f 1242 914 929
f 440 569 319
f 1189 1083 1085
f 475 477 1508
f 1189 1175 1508
f 1596 1597 1406
f 1001 1003 1359
f 1003 1545 1359
f 791 465 908
f 726 210 76
f 784 965 967
f 701 426 1143
f 1143 733 884
f 1466 927 562
f 992 991 665
f 97 539 228
f 1501 1081 1060
f 1114 1534 798
f 797 1024 798
f 1024 1345 798
f 1114 1345 1344
f 798 1345 1114
f 1344 1279 1114
f 1279 645 1114
f 713 712 538
f 1395 1250 1251
f 1497 1395 588
f 1395 1581 588
f 1251 1460 1395
f 1460 1581 1395
f 930 914 337
f 1586 1532 374
f 1502 1338 1484
f 1338 1458 1484
f 893 1484 894
f 1484 641 932
f 641 205 932
f 949 950 301
f 949 754 166
f 829 1564 1499
f 1564 1342 1499
f 484 483 1128
f 1127 1128 1342
f 1564 1383 1342
f 1427 1428 1176
f 1428 986 1176
f 44 889 45
f 376 1481 1503
f 155 1340 357
f 171 1348 1340
f 1116 1089 1457
f 454 863 1457
f 452 1456 773
f 899 826 1569
f 475 1396 1208
f 857 1208 1396
f 22 404 1106
f 361 545 480
f 733 480 884
f 1162 1598 1315
f 1 1315 1598
f 979 573 1599
f 1595 1370 46
f 1370 405 696
f 697 46 1370
f 1328 360 1465
f 1465 360 384
f 384 360 383
f 64 1465 384
f 1470 479 212
f 134 1341 133
f 74 133 1341
f 830 1600 933
f 1359 527 27
f 1252 1254 516
f 1254 1119 516
f 1193 1119 1254
f 1254 560 1193
f 1366 1416 1331
f 1441 1507 1378
f 1601 1401 1400
f 244 553 1601
f 553 1401 1601
f 1601 271 243
f 1601 243 244
f 700 817 145
f 817 1513 145
f 938 774 773
f 1480 1519 774
f 1166 1071 1585
f 1071 707 1585
f 1211 529 398
f 1235 1602 1527
f 472 191 948
f 1454 557 1429
f 557 709 1429
f 22 1106 21
f 709 865 1429
f 696 404 697
f 931 766 765
f 766 931 799
f 1515 1433 985
f 1433 269 985
f 60 1255 132
f 273 975 1173
f 616 683 1577
f 1592 515 956
f 1473 1573 958
f 1573 956 958
f 1573 1473 555
f 351 956 1573
f 1440 1439 1533
f 1439 1392 1533
f 1329 1331 1565
f 1531 1086 1186
f 1493 1576 1494
f 1449 1032 968
f 1454 1429 1320
f 1409 1475 289
f 1475 1382 289
f 644 1554 1353
f 1554 1543 1313
f 1543 1314 1313
f 644 1543 1554
f 295 1412 1142
f 64 63 1465
f 1470 332 481
f 859 1346 910
f 1111 1112 1199
f 1170 1579 1146
f 1320 358 456
f 358 1320 1429
f 240 1301 238
f 1182 1183 731
f 1183 1583 731
f 1510 776 1199
f 776 1111 1199
f 1509 859 776
f 104 33 613
f 1184 644 1185
f 644 643 1185
f 832 329 829
f 329 1377 829
f 898 199 870
f 199 898 1462
f 1462 1007 199
f 1462 898 897
f 1462 1027 1007
f 1462 897 1394
f 392 1340 1339
f 405 404 696
f 1128 1600 1499
f 1600 830 1499
f 669 671 667
f 405 495 403
f 1415 89 319
f 305 304 1539
f 1327 63 85
f 21 1106 1400
f 1106 1105 1400
f 1601 1400 1105
f 1601 1105 271
f 377 1029 331
f 122 1272 1344
f 1383 84 825
f 220 1587 345
f 1049 1246 208
f 1166 1585 73
f 73 1585 343
f 1585 1049 343
f 1591 624 692
f 1548 497 498
f 866 694 451
f 938 773 756
f 773 1337 756
f 1523 634 636
f 1566 1294 266
f 1294 1603 266
f 1196 1603 1294
f 1603 1056 266
f 1055 1056 1196
f 1056 1603 1196
f 274 153 864
f 816 946 247
f 1082 1021 1060
f 889 1594 45
f 1591 692 1511
f 692 1225 1511
f 1197 944 564
f 1450 1575 1431
f 101 100 1552
f 100 1283 1552
f 1147 1158 964
f 811 1157 1415
f 1156 430 819
f 964 1157 811
f 820 1415 1156
f 1415 1157 1156
f 1110 300 250
f 1493 1532 1576
f 1493 1531 1532
f 1576 1203 1494
f 674 1218 1405
f 1218 1604 1405
f 1604 1218 1506
f 784 1405 965
f 1405 1604 965
f 869 580 727
f 763 1324 1206
f 223 458 1286
f 458 1420 1286
f 1559 1286 1420
f 1201 1486 1311
f 1311 458 222
f 458 223 222
f 1262 458 1486
f 458 1311 1486
f 1398 1253 1252
f 1087 1323 1008
f 1087 1140 1605
f 1605 1323 1087
f 1605 1140 1323
f 1140 1139 1323
f 649 1424 1492
f 482 1492 1424
f 256 1274 808
f 581 1291 1067
f 371 373 1117
f 1014 221 281
f 1014 281 871
f 1548 1210 496
f 1210 783 496
f 899 898 826
f 1413 803 1560
f 263 1483 629
f 629 1483 365
f 1483 1568 365
f 365 1568 1574
f 135 4 136
f 136 4 549
f 4 530 549
f 1504 1505 459
f 1352 1504 1516
f 1606 394 809
f 1606 163 394
f 929 334 1242
f 334 781 1242
f 929 914 930
f 929 615 614
f 1191 1136 878
f 1551 366 1135
f 366 1588 1135
f 1588 366 1310
f 1588 1422 1135
f 1496 953 1135
f 345 1587 1477
f 1273 1239 1238
f 996 1522 1570
f 1522 255 1570
f 255 1200 1570
f 1369 994 1425
f 1570 176 994
f 176 1425 994
f 434 435 507
f 899 1569 828
f 201 1529 747
f 157 954 188
f 102 954 182
f 182 954 157
f 1 1599 70
f 540 509 1607
f 1607 509 70
f 1 1598 1599
f 979 1599 1162
f 1599 1598 1162
f 70 1599 1607
f 540 1607 573
f 1607 1599 573
f 1410 1490 836
f 1490 466 836
f 1490 261 466
f 252 1195 1587
f 345 1477 22
f 305 1539 1553
f 1553 1281 305
f 293 1552 291
f 1552 1283 291
f 863 291 1283
f 1552 1553 1555
f 973 1555 1539
f 1555 1553 1539
f 1525 1494 1418
f 86 336 54
f 1608 706 854
f 1608 854 1409
f 1608 1409 289
f 1608 289 288
f 1608 288 706
f 750 1602 1180
f 1234 1180 1235
f 1180 1602 1235
f 1540 750 1180
f 429 589 105
f 961 105 589
f 303 302 1212
f 1006 1065 800
f 1065 1537 800
f 1161 1406 1160
f 1103 1115 1503
f 1481 1483 1503
f 1483 1609 1503
f 263 1512 1609
f 1512 1503 1609
f 263 1609 1483
f 728 1586 1115
f 1115 376 1503
f 1503 1512 1104
f 96 653 97
f 653 96 670
f 670 96 667
f 168 96 98
f 325 1443 747
f 406 1336 30
f 1572 1471 1107
f 924 1610 1447
f 1093 1610 924
f 434 577 1379
f 89 1415 1349
f 713 538 1301
f 1301 240 713
f 215 14 216
f 82 216 1035
f 82 214 216
f 1035 216 14
f 215 892 733
f 892 480 733
f 214 892 215
f 138 14 215
f 733 138 215
f 733 426 138
f 474 1442 1375
f 1097 1375 1092
f 1375 1442 1092
f 1170 1092 1442
f 1395 704 1250
f 430 1156 424
f 1156 1611 424
f 1158 1611 1156
f 1033 1158 1147
f 1033 1611 1158
f 424 1611 837
f 837 1611 1033
f 1470 331 332
f 1470 1557 331
f 764 212 211
f 764 211 433
f 632 272 104
f 632 1133 843
f 751 957 515
f 1584 1179 958
f 1179 1497 958
f 956 515 957
f 1349 1235 1527
f 689 1612 513
f 1612 1418 511
f 1612 511 513
f 1418 689 1525
f 689 1418 1612
f 803 874 1140
f 1140 1560 803
f 1560 1140 1087
f 917 1560 1087
f 1559 1230 1232
f 187 395 775
f 1489 1199 623
f 1506 966 1604
f 965 1604 966
f 1261 968 966
f 1260 1488 681
f 968 1032 1044
f 968 1044 967
f 886 761 1143
f 886 1143 884
f 1383 1526 547
f 173 1412 281
f 1371 1142 1372
f 1371 1317 1142
f 649 1492 1142
f 1449 968 1261
f 1172 1303 1171
f 506 507 577
f 906 234 806
f 606 698 389
f 7 605 604
f 278 330 79
f 278 79 221
f 278 280 330
f 278 221 279
f 740 1533 1300
f 778 527 1440
f 1212 302 274
f 1589 136 549
f 1589 549 551
f 891 1494 944
f 262 312 76
f 1380 301 1110
f 362 363 1022
f 1583 1567 730
f 1583 730 731
f 1594 1183 1011
f 1183 1594 1583
f 1594 889 1583
f 512 1613 888
f 1613 1583 888
f 512 511 1613
f 511 1567 1613
f 1567 1583 1613
f 915 916 1059
f 916 1243 1059
f 916 914 1243
f 1243 491 1059
f 1216 341 1452
f 341 1541 1452
f 341 1549 1541
f 1471 1572 1542
f 1572 1575 1542
f 1544 1451 1444
f 1451 922 1444
f 1451 1544 1452
f 920 922 1431
f 922 1451 1431
f 234 1378 806
f 1378 566 806
f 1288 571 486
f 486 485 1288
f 1510 1199 1489
f 43 827 1237
f 42 827 43
f 1614 1615 61
f 119 1421 1246
f 1450 1542 1575
f 1615 230 229
f 887 1478 760
f 760 1478 1195
f 1478 1587 1195
f 252 1587 220
f 252 220 219
f 1479 1616 697
f 22 1477 697
f 697 1616 44
f 887 44 1478
f 44 1616 1478
f 1616 1479 1478
f 1476 927 1467
f 1562 834 998
f 834 833 998
f 1530 1563 1153
f 1563 972 1153
f 638 637 1563
f 637 972 1563
f 1361 1289 1209
f 1521 1361 1209
f 805 1521 1617
f 1521 1209 1617
f 1617 1209 1208
f 856 805 1617
f 857 856 1208
f 856 1617 1208
f 1086 1531 890
f 890 1531 891
f 36 720 600
f 720 598 600
f 944 1524 689
f 944 1494 1524
f 1524 1525 689
f 1514 1618 414
f 414 1618 283
f 283 1036 284
f 413 284 1036
f 1514 817 1618
f 283 1618 431
f 431 1618 817
f 301 1151 300
f 1151 217 300
f 950 1151 301
f 464 465 210
f 1332 1334 895
f 151 1568 1068
f 151 1574 1568
f 1086 890 581
f 1186 375 374
f 1187 1067 375
f 1067 1069 375
f 1187 1086 1067
f 207 449 448
f 1516 459 460
f 76 106 262
f 262 164 163
f 312 262 809
f 262 1606 809
f 163 1606 262
f 614 98 97
f 21 1461 23
f 21 1400 1461
f 1400 1402 1461
f 689 513 390
f 74 16 15
f 501 1054 1052
f 1082 130 1021
f 1081 1082 1060
f 455 303 71
f 1230 1559 772
f 1505 1435 459
f 1435 1434 459
f 1515 1434 1433
f 1434 772 459
f 180 674 178
f 1619 560 1253
f 560 1254 1253
f 1565 1416 1619
f 1416 560 1619
f 1276 1620 1565
f 1329 1565 1062
f 1565 1620 1062
f 1276 1619 1253
f 1565 1619 1276
f 323 1621 1368
f 1621 1277 1368
f 322 1621 323
f 1621 1620 1276
f 322 1062 1621
f 1062 1620 1621
f 1253 1277 1276
f 1275 1277 1621
f 1275 1621 1276
f 1592 956 351
f 659 495 1595
f 495 1370 1595
f 1117 373 1556
f 578 229 228
f 381 331 1557
f 378 993 679
f 40 161 39
f 381 1557 212
f 668 667 168
f 580 9 727
f 1447 1610 1407
f 1093 1407 1610
f 599 710 1168
f 1445 1168 1169
f 287 1445 1093
f 1445 1407 1093
f 599 1168 548
f 1168 1445 548
f 548 1445 287
f 1622 422 160
f 159 161 520
f 1622 160 1558
f 1622 1558 422
f 1273 255 1239
f 255 1522 1239
f 1509 1489 859
f 1489 1346 859
f 698 576 387
f 1594 46 45
f 483 482 933
f 1600 1128 933
f 1128 483 933
f 1184 1136 644
f 1136 1453 644
f 616 1577 1350
f 1577 446 1350
f 881 1255 59
f 88 610 351
f 880 1403 661
f 61 1615 229
f 1170 1442 1579
f 1579 1442 1365
f 390 1364 689
f 563 564 1364
f 1363 1339 194
f 563 1364 1167
f 1167 1350 149
f 616 1350 1167
f 616 1167 194
f 1167 1363 194
f 1363 1167 1364
f 1516 1504 459
f 1538 868 1432
f 868 1205 1432
f 869 868 1538
f 1051 1053 1467
f 1596 1406 1008
f 1596 1008 1323
f 1623 552 550
f 552 1623 1323
f 1623 1596 1323
f 1623 1597 1596
f 530 1624 550
f 1624 1623 550
f 1624 1597 1623
f 1160 1597 1624
f 1597 1160 1406
f 1624 530 87
f 1624 87 1160
f 1292 308 646
f 435 309 1292
f 309 308 1292
f 1215 1216 646
f 1216 1491 646
f 646 1491 1292
f 645 1215 646
f 1015 625 1471
f 625 1107 1471
f 1051 409 1052
f 129 1467 1053
f 1053 1582 129
f 1476 1467 129
f 962 1467 562
f 750 752 1625
f 750 1625 1602
f 1625 1527 1602
f 1625 752 609
f 609 1527 1625
f 672 88 89
f 1349 1527 89
f 60 1626 61
f 862 1626 60
f 1614 862 1403
f 1588 1287 1422
f 1306 507 1444
f 507 1293 1444
f 389 1448 606
f 604 606 1448
f 826 1627 827
f 518 1461 136
f 518 23 1461
f 136 1401 135
f 1615 880 230
f 880 1615 1403
f 1614 1626 862
f 1614 61 1626
f 1614 1403 1615
f 270 1433 1546
f 1433 1435 1546
f 1578 597 273
f 1578 273 658
f 447 1578 658
f 446 1578 447
f 1577 1578 446
f 1060 1044 948
f 815 1501 948
f 130 1628 815
f 130 1081 1628
f 1628 1501 815
f 1628 1081 1501
f 1150 963 811
f 1033 493 837
f 250 320 1110
f 746 1529 1528
f 747 1529 746
f 714 1629 1125
f 1629 1528 1125
f 746 1528 1629
f 1629 838 746
f 838 326 746
f 714 838 1629
f 281 1412 1426
f 281 1426 871
f 25 1630 26
f 26 1630 826
f 1630 1627 826
f 1630 25 1627
f 493 1627 25
f 827 1627 1237
f 1237 1627 493
f 171 1340 392
f 357 1348 879
f 879 1348 171
f 1009 907 1268
f 907 502 1268
f 1492 1373 1372
f 1586 728 1532
f 728 1203 1532
f 927 129 815
f 164 106 307
f 819 1041 1048
f 461 700 462
f 1150 569 618
f 610 515 351
f 1054 1021 1582
f 1134 1288 878
f 1288 485 878
f 1320 1322 669
f 1197 564 151
f 1439 1545 1392
