v 0.116057 0.384383 -0.048072
v 0.074524 0.389147 -0.053348
v 0.094215 0.384383 0.000000
v 0.088826 0.384383 -0.088826
v 0.208896 -0.071748 0.000000
v 0.024507 0.384383 -0.123205
v 0.048072 0.384383 -0.116057
v -0.031405 0.384383 0.000000
v -0.062810 0.384383 0.000000
v 0.118426 0.346403 -0.062356
v 0.090753 0.346009 -0.093851
v -0.221763 -0.158275 0.044112
v -0.221763 -0.202387 0.000000
v -0.088826 0.384383 0.088826
v -0.104448 0.384383 0.069790
v -0.123205 0.384383 -0.024507
v -0.125619 0.340051 0.000000
v -0.125619 0.384383 0.000000
v 0.226108 -0.158275 -0.000000
v 0.221763 -0.158275 -0.044112
v 0.221763 -0.114164 -0.000000
v -0.084812 0.335611 0.103839
v -0.110078 0.348175 0.074846
v -0.110947 0.286586 0.064956
v -0.125619 0.295719 0.000000
v 0.158085 -0.042474 0.086622
v 0.133834 -0.039164 0.113682
v 0.164326 -0.074433 0.113069
v 0.134183 -0.052925 0.127815
v 0.000000 0.207055 -0.125619
v 0.046511 0.177496 -0.113079
v 0.000000 0.162723 -0.125619
v 0.086528 -0.158275 0.208896
v 0.078897 -0.224865 0.200990
v 0.107465 -0.190909 0.195865
v -0.000000 -0.283895 -0.188001
v 0.125619 -0.346277 -0.000000
v 0.151444 -0.312168 -0.064304
v 0.159883 -0.318158 -0.000000
v -0.043172 0.282494 -0.120739
v -0.045537 0.281144 -0.120005
v -0.044811 0.287036 -0.120444
v 0.000000 -0.032656 -0.188001
v 0.066574 -0.057583 -0.181849
v 0.065715 -0.055292 -0.180580
v -0.122390 0.004601 0.073723
v -0.119130 -0.000989 0.084822
v -0.104448 0.029726 0.069790
v 0.057444 0.389208 0.060243
v 0.069790 0.384383 0.104448
v 0.088826 0.384383 0.088826
v -0.000000 0.384383 -0.125619
v 0.000000 -0.318158 -0.159883
v 0.000000 -0.346277 -0.125619
v -0.080727 0.190967 0.091161
v -0.102132 0.186665 0.066123
v -0.080969 0.165585 0.088309
v 0.048072 0.029726 -0.116057
v 0.024507 0.029726 -0.123205
v 0.000000 0.074058 -0.125619
v -0.135890 -0.098529 -0.160542
v -0.123938 -0.049677 -0.133808
v -0.132975 -0.099427 -0.163852
v -0.119406 -0.049563 -0.137987
v -0.089765 0.232828 0.088129
v -0.088325 0.231656 0.089689
v -0.088544 0.235259 0.089739
v -0.128266 -0.314410 0.100145
v -0.141542 -0.277744 0.129938
v -0.162237 -0.292924 0.079840
v 0.221763 -0.202387 0.000000
v -0.159883 0.001607 0.000000
v -0.092226 0.227139 0.084568
v -0.125619 0.074058 0.000000
v -0.123205 0.029726 -0.024507
v -0.125619 0.029726 0.000000
v 0.188001 -0.158275 -0.125619
v -0.116057 0.029726 0.048072
v -0.024507 0.384383 0.123205
v 0.188001 -0.032656 0.000000
v 0.159883 0.001607 0.000000
v -0.048072 0.029726 -0.116057
v -0.024507 0.029726 -0.123205
v 0.000000 0.340051 -0.125619
v -0.055074 0.349800 -0.119959
v -0.024507 0.384383 -0.123205
v 0.048072 0.384383 0.116057
v -0.125619 -0.346277 0.000000
v -0.086528 -0.367172 0.000000
v 0.123205 0.384383 0.024507
v 0.125619 0.384383 0.000000
v -0.000000 -0.367172 -0.086528
v -0.044112 -0.158275 -0.221763
v 0.031405 0.384383 0.000000
v 0.000000 0.384383 0.031405
v 0.123197 -0.303855 0.120549
v 0.136514 -0.269309 0.142241
v 0.117138 -0.303173 0.126950
v 0.134901 -0.268840 0.144313
v -0.125619 -0.158275 -0.188001
v -0.106427 -0.326461 -0.104129
v -0.098066 -0.308299 -0.136495
v -0.094874 -0.335458 -0.100576
v -0.082511 -0.317094 -0.136572
v -0.125619 0.118390 0.000000
v 0.000000 0.384383 0.125619
v 0.053953 -0.259561 -0.193776
v 0.060519 -0.290231 -0.172100
v 0.000000 0.384383 -0.031405
v 0.000000 0.384383 0.000000
v -0.187266 -0.251271 -0.081979
v -0.192541 -0.216209 -0.102534
v -0.176955 -0.265941 -0.088490
v -0.179679 -0.241933 -0.105509
v 0.136822 -0.119483 -0.169303
v 0.159882 -0.158275 -0.159883
v 0.125618 -0.158275 -0.188002
v -0.024507 0.029726 0.123205
v -0.063278 -0.009915 0.143520
v 0.000000 0.001607 0.159883
v -0.123837 0.332331 -0.034886
v -0.118307 0.296599 -0.051923
v 0.069790 0.384383 -0.104448
v 0.062810 0.384383 0.000000
v 0.104448 0.384383 -0.069790
v 0.000000 -0.367172 0.086528
v -0.075995 0.388178 0.043560
v 0.137291 -0.027194 -0.095505
v 0.125912 -0.032681 -0.115071
v 0.119813 -0.011101 -0.097724
v -0.086528 -0.158275 0.208896
v 0.102360 0.070824 -0.060561
v 0.069959 0.080566 -0.093460
v 0.094694 0.099796 -0.069145
v 0.000000 0.295719 0.125619
v -0.065955 0.335642 0.115430
v -0.055271 0.291678 0.116860
v -0.051155 0.114363 0.108023
v -0.062050 0.144306 0.102037
v -0.086787 0.123724 0.078851
v 0.114166 0.130540 -0.040543
v 0.125619 0.162723 0.000000
v 0.125619 0.118390 0.000000
v -0.055886 0.389021 -0.064144
v -0.048072 0.384383 -0.116057
v -0.069790 0.384383 -0.104448
v 0.024507 0.384383 0.123205
v 0.000000 0.384383 0.094215
v 0.097989 0.277265 0.083141
v 0.120748 0.298944 0.038666
v 0.096634 0.295025 0.086752
v 0.119981 0.311441 0.041894
v 0.068871 0.388294 0.063744
v 0.102868 -0.348150 -0.064889
v 0.106925 -0.325797 -0.106150
v 0.136398 -0.317960 -0.080895
v 0.163526 -0.267735 -0.110368
v 0.145048 -0.276765 -0.126408
v 0.161220 -0.253322 -0.126304
v 0.101128 0.322896 -0.087153
v 0.073120 0.340043 -0.112559
v 0.000000 0.384383 -0.094215
v -0.069790 0.384383 0.104448
v -0.135534 -0.102207 -0.163220
v -0.165996 -0.089973 -0.122466
v -0.166084 -0.120922 -0.141861
v 0.114144 0.076641 0.039352
v 0.123205 0.029726 0.024507
v 0.125619 0.074058 0.000000
v -0.053609 0.388093 0.064026
v -0.030942 0.387160 0.081340
v -0.125619 0.207055 0.000000
v -0.112594 0.195353 0.050788
v -0.114252 0.184042 0.045113
v -0.116057 0.384383 0.048072
v -0.148063 -0.014417 0.063303
v 0.000000 0.384383 0.062810
v -0.048072 0.029726 0.116057
v -0.069790 0.029726 0.104448
v 0.176363 -0.036960 -0.049072
v 0.170855 -0.029567 -0.047450
v 0.133278 -0.008421 -0.076416
v 0.156109 -0.054626 -0.102620
v -0.123205 0.384383 0.024507
v -0.132877 -0.272383 0.142979
v -0.137182 -0.276739 0.135409
v -0.132784 -0.279950 0.136686
v -0.066631 -0.007128 0.138750
v -0.054643 0.079798 -0.105417
v -0.058288 0.097328 -0.103059
v 0.000000 0.118390 -0.125619
v -0.088826 0.384383 -0.088826
v 0.116057 0.384383 0.048072
v -0.000000 -0.244803 -0.208896
v -0.088826 0.029726 0.088826
v -0.000000 -0.202387 -0.221763
v 0.000000 0.384383 -0.062810
v -0.120618 0.351702 -0.052044
v 0.000000 0.029726 0.125619
v 0.000000 0.074058 0.125619
v -0.213184 -0.219691 -0.039516
v -0.217279 -0.196924 -0.047477
v -0.075388 -0.304532 0.153344
v -0.066283 -0.306404 0.155462
v -0.069807 -0.298390 0.161952
v -0.037959 0.096614 0.113399
v 0.000000 0.118390 0.125619
v -0.221763 -0.158275 -0.044112
v 0.200749 -0.243491 0.057132
v 0.196789 -0.250886 0.060075
v 0.208896 -0.244803 0.000000
v 0.121683 0.306608 0.034374
v 0.125619 0.295719 0.000000
v 0.125619 0.340051 0.000000
v -0.123205 0.029726 0.024507
v -0.125619 0.162723 0.000000
v -0.066748 -0.098594 -0.203730
v -0.086528 -0.158275 -0.208896
v -0.115683 0.217716 -0.045981
v -0.118977 0.220320 -0.038839
v -0.117809 0.226086 -0.042759
v -0.000000 -0.114164 -0.221763
v -0.058654 -0.089778 -0.203241
v -0.000000 -0.071748 -0.208896
v 0.055093 -0.307438 -0.159221
v 0.054844 -0.301264 -0.165002
v 0.067261 -0.306861 -0.154989
v 0.061439 -0.212690 -0.210420
v 0.060801 -0.208629 -0.211438
v 0.064481 -0.209773 -0.210335
v -0.226108 -0.158275 0.000000
v -0.052009 0.161287 0.109345
v 0.208896 -0.158275 -0.086528
v 0.214789 -0.205848 -0.049302
v 0.211324 -0.216075 -0.055458
v -0.117858 0.350923 0.059922
v -0.047423 0.230179 -0.116272
v 0.000000 0.251387 -0.125619
v 0.000000 -0.346277 0.125619
v 0.057262 -0.098836 0.207366
v 0.044112 -0.158275 0.221763
v 0.000000 -0.283895 0.188001
v 0.000000 -0.318158 0.159883
v 0.100431 0.139346 0.064845
v 0.099868 0.141528 0.065658
v 0.056420 0.104481 0.103898
v 0.057396 0.281237 -0.114776
v -0.094215 0.384383 0.000000
v -0.181700 -0.109011 0.115436
v -0.188001 -0.158275 0.125619
v -0.159883 -0.158275 0.159883
v -0.082688 0.296053 0.101095
v -0.112232 0.277200 0.062092
v 0.059283 0.390076 -0.068883
v -0.158879 -0.024719 0.061390
v -0.172919 -0.066841 0.092392
v -0.155735 -0.025485 0.067661
v -0.147375 -0.054064 0.113646
v 0.121291 0.313551 0.036211
v -0.167093 -0.222352 0.137965
v -0.173532 -0.252220 0.109753
v -0.141209 -0.272077 0.135575
v -0.045717 -0.267632 0.192316
v -0.042511 -0.263967 0.194948
v 0.024507 0.029726 0.123205
v 0.104448 0.384383 0.069790
v 0.111561 0.338797 0.067418
v -0.159883 -0.158275 -0.159883
v -0.060501 -0.005355 0.140698
v -0.072456 -0.246488 -0.193938
v -0.071193 -0.267026 -0.183858
v 0.111273 0.093179 -0.044060
v 0.115260 -0.309585 0.121108
v 0.120239 -0.327996 0.086022
v 0.139780 -0.313406 0.084344
v 0.206602 -0.092689 0.051834
v 0.221763 -0.158275 0.044111
v -0.188001 -0.032656 0.000000
v -0.208896 -0.244803 0.000000
v -0.188001 -0.283895 0.000000
v 0.197883 -0.240152 0.071208
v 0.177689 -0.036022 -0.043768
v 0.178749 -0.036728 -0.041869
v 0.179439 -0.039375 -0.045858
v 0.170218 -0.235386 -0.126468
v 0.158012 -0.230471 -0.144948
v 0.065189 -0.342101 -0.111964
v 0.188001 -0.283895 0.000000
v 0.050868 -0.347608 -0.111326
v 0.000000 0.251387 0.125619
v -0.045948 0.223134 0.116578
v 0.000000 0.207055 0.125619
v -0.221763 -0.114164 0.000000
v -0.208896 -0.071748 0.000000
v -0.161844 -0.244356 -0.131551
v -0.162995 -0.243437 -0.130950
v -0.159191 -0.243482 -0.134958
v -0.059513 -0.211742 -0.210886
v -0.084287 -0.301705 0.151925
v -0.063355 -0.327249 0.134074
v -0.046070 -0.318225 -0.151878
v -0.060570 -0.291030 -0.171239
v -0.082501 -0.293328 -0.159698
v -0.159883 -0.318158 0.000000
v -0.000000 0.001607 -0.159883
v 0.064406 -0.219478 -0.207644
v -0.069790 0.029726 -0.104448
v -0.105984 -0.008489 -0.107833
v -0.082241 -0.001431 -0.120632
v -0.208896 -0.158275 -0.086528
v -0.188001 -0.158275 -0.125619
v 0.077414 -0.226294 0.201126
v 0.075389 -0.225144 0.202249
v 0.073475 -0.231672 0.200469
v -0.036738 0.386397 0.038519
v -0.025207 0.386400 0.058667
v 0.123056 0.342086 -0.048189
v -0.138896 -0.277919 0.132606
v -0.120900 -0.316082 0.106544
v 0.090874 0.283679 0.091953
v 0.087677 0.294922 0.095955
v 0.086395 0.283553 0.096449
v 0.206060 -0.106622 -0.067154
v 0.122117 0.350768 -0.049807
v 0.123418 0.348953 -0.044497
v 0.123205 0.384383 -0.024507
v -0.172205 -0.298480 -0.037508
v -0.183325 -0.272620 -0.065170
v -0.079830 0.147404 -0.087981
v -0.056265 0.151960 -0.106644
v -0.147227 -0.089396 0.143873
v -0.182389 -0.106060 0.112799
v -0.145136 -0.100809 0.153174
v 0.091071 0.280740 -0.091898
v 0.081327 0.247423 -0.097661
v 0.055077 0.273330 -0.115377
v -0.176484 -0.250737 0.106510
v -0.174749 -0.254827 0.105710
v 0.158395 -0.087943 -0.130805
v 0.162945 -0.101029 -0.135105
v 0.129236 -0.078415 -0.153124
v 0.048072 0.029726 0.116057
v 0.044747 0.095551 0.111284
v -0.060720 0.002198 -0.132885
v -0.063884 -0.003844 -0.137045
v 0.114945 0.284871 -0.062491
v 0.107715 0.259791 -0.067880
v 0.000000 0.162723 0.125619
v -0.048551 0.194942 0.113355
v 0.072821 0.348482 -0.111010
v -0.139727 -0.262761 0.143543
v -0.150450 -0.218401 0.157683
v 0.102847 0.359767 0.080266
v 0.091449 0.346503 0.095588
v 0.068883 0.388679 0.053432
v 0.078462 -0.227866 0.200252
v -0.141721 -0.274610 0.132653
v 0.042810 0.243407 0.117776
v 0.045270 0.096700 0.110944
v 0.164326 -0.264672 0.112452
v 0.180161 -0.234960 0.112272
v 0.166568 -0.247842 0.123424
v 0.147692 -0.012989 0.062821
v 0.147797 -0.024111 0.078032
v 0.175487 -0.047000 0.064321
v 0.130946 0.002194 0.066055
v 0.128306 -0.011833 0.088043
v 0.167084 -0.076729 -0.111397
v 0.150118 -0.074048 -0.129053
v -0.049363 -0.041615 -0.179097
v 0.155610 -0.301098 -0.078176
v 0.145500 -0.312783 -0.075704
v -0.000000 -0.158275 -0.226108
v -0.157024 -0.020755 0.058462
v -0.158791 -0.022482 0.058026
v -0.193997 -0.106751 -0.091886
v -0.082235 -0.264273 -0.180778
v -0.110269 -0.225034 -0.185035
v 0.000000 -0.202387 0.221763
v 0.000000 -0.158275 0.226108
v 0.041490 0.150472 -0.112494
v 0.202432 -0.103076 -0.073568
v 0.171227 -0.095676 -0.120931
v 0.187655 -0.084567 -0.085380
v -0.125619 0.251387 0.000000
v 0.188002 -0.158275 0.125618
v -0.069336 0.276656 0.108646
v -0.073454 -0.017844 0.143875
v -0.104078 -0.049404 0.151099
v -0.101769 -0.062379 0.164301
v 0.082858 -0.292510 0.161558
v 0.080952 -0.289373 0.165176
v 0.076481 -0.294814 0.162731
v 0.044112 -0.380038 0.000000
v 0.067850 -0.007554 0.138842
v 0.044572 -0.035052 0.177428
v -0.208818 -0.214876 -0.063798
v 0.044502 0.095981 0.111326
v 0.106403 -0.347074 -0.061862
v 0.069123 -0.010297 -0.140197
v 0.069790 0.029726 -0.104448
v 0.000000 -0.380038 -0.044112
v 0.098324 -0.016349 -0.124251
v 0.124823 -0.041010 0.125612
v 0.110594 -0.006313 0.102172
v -0.125618 -0.158275 0.188002
v 0.088826 0.029726 -0.088826
v -0.000000 0.029726 -0.125619
v -0.098714 -0.005592 0.112498
v 0.156855 -0.288291 0.096848
v 0.112963 -0.347472 0.048094
v 0.113890 -0.346856 0.048433
v 0.112753 -0.347166 0.049757
v 0.056889 -0.358005 0.086289
v 0.052956 -0.366549 0.066135
v 0.058601 -0.366195 0.064028
v 0.051049 -0.364857 0.072992
v 0.125619 0.029726 0.000000
v 0.125619 -0.158275 0.188001
v -0.155691 -0.294428 -0.087838
v -0.140761 -0.317808 -0.073183
v -0.162493 -0.301096 -0.062845
v 0.101060 0.002941 -0.103236
v 0.056697 0.343595 0.119119
v -0.101949 -0.241504 0.183076
v -0.078418 -0.222493 0.200956
v -0.102528 -0.208794 0.195017
v -0.200401 -0.095114 -0.069879
v -0.203113 -0.101604 -0.069780
v 0.115993 0.253296 0.049029
v -0.114480 -0.016988 0.108927
v 0.076511 -0.259891 -0.185495
v 0.119455 -0.255610 -0.166224
v 0.100719 -0.276143 -0.163796
v -0.108531 0.076705 -0.049456
v -0.106680 0.090616 -0.052238
v -0.044112 -0.380038 0.000000
v 0.149756 -0.250571 -0.141785
v 0.121545 -0.255528 -0.164444
v 0.134124 -0.214302 0.173206
v 0.134139 -0.214423 0.173173
v 0.159883 -0.158275 0.159882
v 0.134027 -0.214301 0.173290
v -0.060403 -0.099538 -0.205934
v -0.114847 0.284548 -0.058708
v -0.089130 0.268725 -0.094572
v -0.160090 -0.066072 -0.110366
v 0.000000 0.340051 0.125619
v 0.000000 -0.380038 0.044112
v -0.045104 -0.372692 0.044706
v -0.068517 -0.362008 0.068414
v 0.119849 -0.255866 -0.165679
v 0.119517 -0.257146 -0.164975
v -0.117958 0.343216 0.060369
v -0.114199 0.277538 0.057878
v 0.134838 -0.323716 0.071105
v -0.038371 -0.310688 -0.161154
v -0.085939 -0.284515 0.165701
v 0.099151 -0.315004 -0.128221
v 0.062138 -0.336097 -0.122808
v -0.029581 -0.057078 -0.196674
v -0.114140 0.275080 0.057838
v 0.206097 -0.211094 -0.074142
v -0.127766 -0.034132 0.114303
v -0.131163 -0.054019 0.131224
v 0.072779 -0.007452 0.135595
v 0.088826 0.029726 0.088826
v 0.000000 -0.114164 0.221763
v -0.044111 -0.158275 0.221763
v 0.205909 -0.090918 0.051498
v 0.206418 -0.092039 0.051399
v 0.101640 0.139161 0.063028
v 0.117442 0.093538 0.029795
v -0.048072 0.384383 0.116057
v -0.087578 0.238088 -0.091299
v -0.095537 0.205131 -0.077515
v -0.084879 -0.016077 -0.133652
v -0.081494 -0.028635 -0.149021
v 0.160850 -0.013447 0.036063
v 0.184309 -0.053053 0.056448
v -0.116057 0.384383 -0.048072
v 0.116057 0.029726 -0.048072
v 0.142261 -0.002095 -0.051640
v 0.104448 0.029726 -0.069790
v 0.039563 -0.315715 0.156425
v 0.041508 -0.283795 0.182848
v -0.122435 -0.206118 -0.183883
v -0.133754 -0.206370 -0.175102
v 0.109965 0.048709 0.052931
v 0.104448 0.029726 0.069790
v 0.116057 0.029726 0.048072
v -0.208896 -0.158275 0.086528
v -0.056018 -0.337469 0.123970
v -0.059401 -0.337147 0.122954
v -0.052866 -0.340201 0.121381
v 0.207272 -0.101981 -0.059910
v -0.050772 0.262803 0.117276
v 0.000000 -0.384383 0.000000
v -0.100235 -0.354365 -0.046832
v 0.091532 -0.063351 0.172191
v 0.123951 -0.049757 0.134929
v 0.098992 -0.049846 0.155322
v 0.000000 -0.244803 0.208896
v 0.039642 -0.270396 0.191829
v 0.039980 -0.259871 0.197224
v 0.000000 -0.032656 0.188001
v -0.055007 -0.073992 0.196683
v 0.000000 -0.071748 0.208896
v 0.176449 -0.046237 -0.060865
v 0.201555 -0.092532 -0.065459
v -0.077840 -0.009332 0.132974
v 0.055787 0.343930 0.119406
v -0.076773 -0.204459 -0.207121
v -0.116759 -0.206138 -0.187381
v -0.118763 0.215001 -0.038205
v 0.125619 0.251387 0.000000
v -0.110687 -0.324506 0.104162
v -0.076507 -0.333887 0.118189
v -0.112697 -0.320795 0.108147
v -0.068569 -0.361958 0.068493
v -0.068670 -0.361945 0.068381
v 0.114745 -0.070825 0.160330
v 0.104664 -0.096657 0.183198
v 0.131291 -0.098415 0.164754
v 0.113967 -0.115318 0.185701
v -0.068165 -0.092807 -0.200703
v -0.063400 -0.076358 -0.194907
v -0.102853 -0.105187 0.188002
v -0.077485 -0.095538 0.197222
v -0.076448 -0.274534 -0.176799
v 0.086527 -0.158275 -0.208896
v 0.068660 -0.211775 -0.208507
v 0.071124 0.206898 0.099937
v 0.049986 0.181956 0.110825
v 0.078340 0.188686 0.092905
v 0.064506 0.152858 0.101402
v 0.068692 0.343791 -0.114613
v 0.000000 0.295719 -0.125619
v 0.121990 -0.204964 -0.184338
v 0.103404 -0.290970 -0.150415
v 0.130311 -0.296506 -0.122785
v -0.139582 -0.275466 0.134155
v -0.138713 -0.273934 0.136408
v -0.082179 -0.053145 0.169755
v -0.074803 -0.078645 0.190347
v -0.049892 -0.038219 0.176543
v -0.097106 0.071357 -0.067248
v -0.086660 0.079122 -0.077181
v -0.088826 0.029726 -0.088826
v 0.190865 -0.255871 0.069253
v 0.165496 -0.305444 0.040960
v 0.169268 -0.299505 0.046424
v 0.162317 -0.307421 0.047819
v -0.109918 -0.333339 -0.089169
v -0.125043 -0.335800 -0.058874
v 0.171219 -0.196378 -0.142789
v 0.190377 -0.200389 -0.114435
v 0.117070 0.265369 -0.049878
v 0.107001 0.211947 -0.061934
v 0.118529 0.212576 -0.039209
v -0.135807 -0.227188 0.166906
v 0.069790 0.029726 0.104448
v -0.105481 0.081238 -0.054561
v -0.102203 0.082441 -0.060083
v -0.163554 -0.242953 -0.130632
v 0.085143 0.206241 0.088192
v -0.169483 -0.033685 -0.056483
v -0.054914 0.084168 0.105920
v -0.151585 -0.317087 -0.049884
v -0.176364 -0.042836 0.056156
v -0.196809 -0.072965 0.053728
v 0.080502 0.126961 -0.085046
v 0.058554 0.150209 -0.104787
v 0.080619 0.178094 -0.089802
v 0.044111 -0.158275 -0.221763
v -0.121645 -0.211328 -0.182683
v 0.058937 -0.368572 -0.054992
v 0.125619 0.207055 -0.000000
v 0.049234 -0.100001 -0.209904
v -0.063178 -0.032991 -0.165041
v -0.087936 0.108620 0.077234
v -0.097063 0.119337 0.066297
v -0.104448 0.384383 -0.069790
v 0.085802 0.193740 -0.087921
v 0.054354 0.213122 -0.111934
v 0.068543 0.229160 -0.105226
v -0.103558 0.341651 -0.083727
v -0.086503 0.344772 -0.101557
v -0.180220 -0.045927 -0.052937
v 0.215743 -0.116705 -0.039311
v -0.096636 -0.078094 0.176982
v -0.216083 -0.120729 0.048314
v -0.071552 -0.364159 -0.056112
v 0.143279 -0.300477 -0.099836
v 0.086069 -0.285742 0.165146
v 0.068506 -0.054018 -0.177877
v 0.067973 -0.057954 -0.181165
v 0.096138 0.071338 0.068382
v -0.034929 0.174182 -0.116997
v -0.067764 0.188830 -0.101555
v 0.064354 -0.360722 0.074902
v -0.200466 -0.245087 -0.050067
v -0.116777 0.132274 0.034230
v 0.123205 0.029726 -0.024507
v 0.088920 0.229432 -0.088480
v -0.132084 -0.098207 0.162994
v -0.129784 -0.081768 0.155254
v -0.106987 -0.082499 0.172582
v 0.086528 -0.367172 0.000000
v 0.121355 -0.274998 0.149171
v 0.091079 0.082992 0.074196
v 0.046322 0.095529 0.110298
v 0.100569 -0.350541 -0.060612
v 0.095609 -0.353698 -0.058213
v -0.115795 -0.045567 -0.137279
v 0.053296 0.278835 -0.116407
v -0.163156 -0.243169 -0.130955
v -0.163065 -0.242846 -0.131305
v 0.052757 0.284732 -0.116731
v -0.163554 -0.243675 -0.129995
v -0.157510 -0.022342 0.060220
v -0.058641 0.221244 -0.109710
v -0.083289 0.207279 -0.091106
v -0.068550 -0.362012 0.068342
v 0.077717 -0.301219 0.155579
v 0.097728 -0.298998 0.146310
v -0.061019 -0.095769 0.204229
v -0.045171 0.223293 -0.116434
v -0.116057 0.029726 -0.048072
v -0.198175 -0.096971 -0.076998
v -0.200060 -0.253548 0.041845
v -0.194013 -0.264454 0.041806
v 0.097673 -0.117239 0.194675
v 0.136250 -0.267855 0.143723
v 0.059129 -0.096459 0.205562
v 0.060169 -0.098926 0.206009
v 0.100234 0.224572 0.072905
v 0.101427 0.141032 0.063863
v -0.108552 0.066754 0.049979
v -0.103867 0.065101 0.058549
v -0.103148 0.079737 0.057994
v 0.121281 0.329578 -0.053879
v -0.114220 0.110639 0.038960
v -0.111624 0.126332 0.044340
v -0.187783 -0.109727 0.105464
v -0.209424 -0.116774 0.066097
v 0.088012 -0.026469 -0.142177
v 0.117744 -0.050432 -0.139273
v 0.120310 -0.074134 -0.157543
v 0.123789 -0.078838 -0.158543
v 0.157699 -0.118850 -0.148433
v 0.055411 0.097612 -0.104148
v 0.049193 -0.270001 0.189570
v -0.105742 -0.258003 0.172651
v 0.071831 -0.336116 0.117520
v 0.172999 -0.115792 0.131364
v 0.148023 -0.118056 0.159919
v 0.055978 0.082594 -0.104525
v 0.083273 0.108651 -0.081112
v 0.073229 -0.015041 0.142346
v 0.047825 -0.037986 0.178180
v -0.068988 -0.361671 0.068754
v 0.049219 -0.339781 -0.123775
v 0.134036 -0.214517 0.173211
v 0.108830 -0.257286 0.171150
v 0.169995 -0.068805 -0.098767
v -0.092322 -0.261215 0.177824
v -0.060351 -0.263214 0.190411
v 0.078677 -0.243357 0.191727
v 0.086281 0.067956 0.081041
v 0.057135 -0.363793 0.071772
v 0.089105 0.273245 0.092426
v -0.162849 -0.244797 -0.130148
v -0.156242 -0.282593 -0.105427
v 0.044990 -0.344482 -0.117854
v -0.106393 -0.021943 0.122259
v -0.127208 -0.312627 -0.102837
v -0.055985 0.345710 0.117485
v 0.103073 -0.350452 -0.056285
v 0.045360 0.208510 0.114702
v -0.168159 -0.293423 0.064790
v -0.152251 -0.313792 0.057204
v -0.173316 -0.259286 0.103458
v -0.103843 0.065072 -0.059679
v -0.104448 0.029726 -0.069790
v -0.075171 -0.089167 -0.195811
v -0.123033 -0.099904 -0.171820
v -0.100026 -0.064871 -0.166509
v 0.197977 -0.204303 0.099386
v -0.072526 -0.207593 0.207371
v -0.052241 -0.221275 0.210853
v -0.044803 -0.204610 0.216242
v 0.086885 0.219622 0.087804
v -0.197694 -0.072384 0.050604
v -0.135945 -0.324852 0.066927
v -0.148701 -0.321453 0.043670
v -0.142568 -0.326456 0.046415
v 0.178770 -0.252547 -0.099874
v 0.188244 -0.242272 -0.090234
v 0.106976 -0.350016 0.050783
v 0.120206 0.351615 -0.055818
v 0.121507 0.345963 -0.053166
v 0.206170 -0.092083 0.052307
v 0.184353 -0.057270 0.061660
v 0.044394 -0.036754 0.178796
v 0.112584 0.071094 -0.042307
v -0.054289 0.237772 -0.113798
v 0.090672 0.184922 -0.080412
v -0.146392 -0.288835 -0.111912
v -0.109680 -0.313534 0.121219
v -0.080447 0.355905 0.106092
v 0.165554 -0.215493 0.143205
v -0.147476 -0.010484 -0.056980
v -0.126781 -0.011123 -0.087384
v -0.073843 -0.099384 -0.200932
v 0.094538 -0.338290 0.096322
v 0.196596 -0.239008 -0.074584
v 0.208620 -0.231540 -0.045594
v 0.186725 -0.261684 -0.071778
v 0.189635 -0.273887 -0.038281
v -0.066116 -0.047301 -0.174890
v 0.053466 -0.333025 0.131579
v -0.063755 0.388408 -0.065510
v -0.060453 0.388962 -0.055367
v 0.091736 0.172834 -0.078040
v 0.093572 0.120235 -0.070577
v 0.083004 -0.062882 -0.175146
v -0.198716 -0.074077 0.050497
v 0.036904 -0.213724 0.215467
v -0.094224 0.319558 -0.094018
v -0.072735 0.289950 -0.107627
v 0.117510 0.193908 -0.041341
v -0.126895 -0.248109 -0.163465
v -0.068412 -0.361996 0.068518
v 0.044815 0.096240 0.111175
v -0.100381 -0.355729 0.040081
v -0.101099 -0.354349 0.043659
v -0.099760 -0.356107 0.039652
v 0.120221 0.179430 0.030167
v 0.120108 0.151359 0.024940
v -0.180400 -0.205542 -0.127736
v -0.127974 -0.218706 0.176287
v -0.090575 -0.044378 -0.156729
v 0.076083 -0.294063 -0.162480
v -0.134104 -0.244889 -0.159517
v -0.139054 -0.239256 -0.157879
v -0.095749 -0.344064 -0.082497
v 0.179764 -0.059968 0.072854
v 0.057099 -0.097436 0.206838
v -0.206881 -0.208603 0.075495
v -0.195423 -0.208334 0.101553
v 0.096440 0.207205 0.076035
v -0.066953 -0.335853 -0.120120
v -0.043624 -0.338570 -0.127391
v -0.047227 -0.352499 -0.103323
v 0.180712 -0.208966 0.126319
v 0.118414 0.279642 -0.045736
v 0.206029 -0.092699 0.053399
v -0.114918 0.001325 -0.087364
v -0.118996 -0.014808 -0.101018
v -0.117767 -0.324377 0.096422
v -0.086422 0.068554 0.080594
v -0.070579 0.346365 0.112191
v -0.113374 0.153568 -0.043218
v -0.118869 -0.039245 -0.128032
v 0.082562 -0.109579 -0.200495
v 0.068282 0.230070 0.104078
v 0.076504 0.276855 0.103267
v -0.117896 0.284739 -0.051581
v -0.047012 -0.258524 0.196842
v -0.160777 -0.287015 -0.089628
v -0.178102 -0.292797 0.031735
v 0.042286 0.265333 0.118864
v -0.198221 -0.252565 0.051773
v -0.205342 -0.242185 0.039686
v 0.208896 -0.158275 0.086528
v 0.139675 -0.201167 -0.172618
v -0.200904 -0.078929 0.051007
v -0.104313 0.001613 -0.099282
v -0.099859 0.143555 -0.065054
v -0.157586 -0.036569 -0.078711
v 0.126776 -0.192290 -0.183040
v -0.043063 0.279941 -0.120629
v 0.164500 -0.301613 0.056101
v -0.105205 -0.272538 -0.162787
v -0.086036 0.187326 -0.086339
v 0.056166 0.342668 0.119350
v -0.147949 -0.298657 -0.095321
v -0.124184 -0.302083 -0.122011
v -0.121640 0.006287 -0.072009
v 0.158581 -0.095437 0.136193
v 0.178131 -0.087254 0.104834
v -0.107106 0.055710 0.055943
v -0.190111 -0.093017 -0.087705
v -0.199857 -0.105621 -0.080704
v -0.100854 0.179003 -0.068158
v 0.120162 -0.251905 -0.166861
v -0.174521 -0.198722 -0.138000
v 0.129109 -0.047946 0.128145
v -0.065585 0.327038 -0.114782
v -0.177377 -0.213127 0.128612
v 0.066079 -0.059773 -0.183255
v -0.085368 0.118810 -0.080524
v -0.125289 -0.279449 -0.143648
v -0.171969 -0.282194 0.075862
v -0.177246 -0.254300 0.101557
v -0.163347 -0.242834 -0.130974
v 0.122588 -0.068400 -0.150695
v -0.171208 -0.051194 -0.075154
v -0.177977 -0.048682 -0.061286
v -0.169886 -0.065669 -0.094598
v -0.133944 -0.248066 -0.157798
v 0.115449 0.168411 -0.042273
v 0.099493 0.147633 0.066342
v -0.205268 -0.232780 0.057105
v -0.183752 -0.110449 0.113108
v 0.185752 -0.252001 -0.086107
v -0.212689 -0.198233 0.064625
v -0.113542 0.260442 0.057129
v -0.202408 -0.107218 -0.075894
v 0.051656 -0.362462 -0.079509
v -0.051908 -0.359913 -0.085469
v 0.071414 0.067802 0.094544
v 0.045296 0.095881 0.111008
v 0.144752 -0.077351 0.138334
v 0.043440 -0.003643 -0.148365
v -0.120026 -0.047147 -0.134990
v 0.054740 0.343972 0.119776
v -0.115517 0.221340 0.045429
v -0.183196 -0.243813 0.099531
v 0.185468 -0.063693 0.066998
v 0.173803 -0.275122 -0.082563
v 0.116333 -0.084779 -0.167208
v 0.177955 -0.283834 -0.056960
v 0.111148 0.091866 0.043760
v 0.109088 -0.247107 -0.174858
v -0.148490 -0.048776 -0.106255
v -0.110205 0.181398 0.052999
v -0.097822 0.145012 0.067580
v -0.133194 -0.102016 -0.164946
v 0.111412 -0.345331 -0.056698
v 0.055302 0.343016 0.119756
v -0.165567 -0.202324 -0.147486
v 0.068116 -0.059665 -0.182266
v 0.096012 -0.111748 -0.194658
v -0.166255 -0.202442 0.146106
v 0.173437 -0.296563 -0.038452
v -0.119084 0.223789 -0.038340
v 0.101887 0.144852 0.062843
v 0.190974 -0.108078 0.099985
v -0.077648 -0.345109 -0.097159
v 0.055309 0.340187 0.119601
v 0.115335 0.196715 0.045044
v 0.093593 -0.351733 -0.066214
v -0.099579 -0.356071 0.040092
v 0.104608 -0.113479 -0.189906
v 0.117845 0.218448 0.040659
f 1 2 3
f 10 11 4
f 16 17 18
f 19 20 21
f 22 23 24
f 26 27 28
f 27 29 28
f 30 31 32
f 34 35 33
f 37 38 39
f 40 41 42
f 43 45 44
f 46 47 48
f 49 50 51
f 55 56 57
f 58 59 60
f 61 62 63
f 62 64 63
f 65 66 67
f 68 69 70
f 55 66 56
f 66 73 56
f 74 75 76
f 82 60 83
f 84 85 86
f 49 87 50
f 49 94 95
f 96 97 98
f 97 99 98
f 101 102 103
f 102 104 103
f 36 107 108
f 109 8 110
f 111 112 113
f 112 114 113
f 115 116 117
f 118 119 120
f 121 122 25
f 49 124 94
f 10 4 125
f 127 15 14
f 128 129 130
f 132 133 134
f 135 136 137
f 138 139 140
f 141 142 143
f 144 145 146
f 147 87 148
f 149 150 151
f 150 152 151
f 153 49 51
f 154 155 156
f 157 158 159
f 160 161 10
f 161 11 10
f 144 162 145
f 61 164 165
f 164 166 165
f 167 168 169
f 163 171 170
f 172 174 173
f 127 175 15
f 46 176 47
f 49 95 177
f 180 128 181
f 128 182 181
f 183 129 128
f 185 186 187
f 188 119 178
f 189 190 191
f 144 146 192
f 162 86 145
f 121 198 122
f 118 199 200
f 201 13 202
f 17 198 121
f 203 204 205
f 206 207 138
f 209 210 211
f 212 213 214
f 217 93 218
f 219 220 221
f 222 223 224
f 225 226 227
f 144 109 197
f 228 229 230
f 208 13 231
f 144 197 162
f 49 177 148
f 49 148 87
f 120 199 118
f 232 57 139
f 234 235 233
f 17 236 184
f 106 147 148
f 30 237 238
f 107 36 194
f 150 212 152
f 240 241 33
f 244 245 246
f 160 247 161
f 18 248 16
f 184 248 18
f 249 250 251
f 252 22 253
f 22 24 253
f 109 254 197
f 248 184 175
f 255 256 257
f 256 258 257
f 259 214 193
f 260 261 262
f 242 264 263
f 120 265 199
f 266 267 193
f 269 119 118
f 194 271 270
f 272 132 134
f 273 274 96
f 274 275 96
f 276 277 21
f 209 281 210
f 79 106 148
f 243 205 204
f 282 283 284
f 199 265 200
f 285 159 286
f 154 287 155
f 54 289 92
f 290 291 292
f 295 296 297
f 270 298 194
f 203 299 300
f 301 104 302
f 104 303 302
f 74 76 215
f 76 75 72
f 76 72 215
f 194 228 306
f 307 309 308
f 312 313 314
f 315 127 316
f 127 170 316
f 213 317 214
f 226 225 53
f 318 69 319
f 69 68 319
f 320 321 322
f 233 323 20
f 324 325 317
f 1 3 326
f 280 328 327
f 190 329 330
f 78 46 48
f 331 332 333
f 332 249 333
f 334 335 247
f 335 336 247
f 36 226 53
f 337 338 261
f 315 8 127
f 339 340 341
f 196 298 93
f 326 324 1
f 342 343 265
f 344 305 345
f 269 178 119
f 334 346 335
f 346 347 335
f 348 349 232
f 350 123 4
f 262 351 260
f 351 352 260
f 193 214 90
f 267 353 354
f 127 8 9
f 49 355 124
f 175 236 15
f 312 314 356
f 160 334 247
f 318 357 69
f 19 71 20
f 193 355 266
f 358 290 292
f 207 359 348
f 360 361 362
f 363 364 365
f 363 366 367
f 183 368 129
f 368 369 129
f 43 370 305
f 371 38 372
f 72 375 374
f 278 375 72
f 194 298 196
f 376 165 166
f 270 377 378
f 379 241 380
f 381 191 32
f 326 3 91
f 125 2 1
f 382 383 384
f 383 368 384
f 207 232 138
f 48 47 195
f 252 67 387
f 388 389 390
f 194 306 107
f 391 392 393
f 120 396 395
f 111 397 112
f 127 9 248
f 127 248 175
f 292 349 348
f 348 232 207
f 343 398 207
f 154 156 399
f 156 372 399
f 400 58 401
f 130 129 403
f 27 367 404
f 367 405 404
f 407 403 401
f 59 305 408
f 315 316 95
f 17 184 18
f 409 179 195
f 206 200 207
f 360 97 410
f 3 355 193
f 411 412 413
f 252 387 137
f 350 4 11
f 414 239 126
f 381 32 31
f 415 416 417
f 168 418 169
f 209 211 71
f 145 86 85
f 420 421 422
f 423 403 407
f 424 50 87
f 121 25 17
f 425 426 427
f 424 51 50
f 428 429 294
f 430 150 149
f 355 153 266
f 188 178 179
f 277 71 19
f 189 82 307
f 51 353 266
f 78 176 46
f 215 176 78
f 215 72 374
f 374 176 215
f 315 95 8
f 47 431 409
f 432 433 434
f 108 226 36
f 435 105 436
f 438 158 439
f 440 441 442
f 441 440 443
f 231 13 12
f 93 444 222
f 350 11 161
f 445 446 221
f 267 151 152
f 61 165 447
f 66 349 291
f 195 47 409
f 124 3 2
f 448 136 135
f 449 451 450
f 452 439 453
f 25 455 454
f 211 210 288
f 456 275 274
f 236 17 454
f 457 36 53
f 458 185 299
f 185 187 299
f 155 287 459
f 287 460 459
f 461 370 43
f 96 275 410
f 65 67 462
f 67 253 462
f 235 463 233
f 464 258 465
f 466 405 467
f 380 468 469
f 257 258 464
f 5 470 471
f 472 473 143
f 116 340 77
f 180 282 284
f 191 330 32
f 171 79 148
f 170 14 163
f 14 170 127
f 219 475 476
f 178 118 200
f 477 345 478
f 241 468 380
f 270 271 377
f 479 363 480
f 363 365 480
f 33 313 34
f 128 130 182
f 191 190 330
f 481 198 16
f 145 85 146
f 482 483 484
f 485 393 486
f 382 233 77
f 487 488 268
f 184 236 175
f 369 339 341
f 34 443 35
f 320 149 151
f 236 23 15
f 489 490 491
f 15 23 14
f 80 480 5
f 493 494 495
f 323 496 20
f 135 137 497
f 498 394 449
f 52 6 84
f 259 193 152
f 382 323 233
f 88 499 89
f 282 181 81
f 90 3 193
f 124 355 3
f 91 3 90
f 500 501 502
f 21 496 5
f 504 505 503
f 506 507 508
f 119 188 388
f 384 509 510
f 509 284 510
f 409 511 179
f 438 286 159
f 87 512 424
f 270 378 513
f 378 514 513
f 7 254 123
f 123 254 4
f 4 254 125
f 67 252 253
f 220 219 515
f 93 217 444
f 517 518 519
f 451 520 521
f 511 188 179
f 128 180 183
f 180 509 183
f 328 280 279
f 522 523 524
f 523 525 524
f 526 527 223
f 177 171 148
f 474 171 163
f 171 474 79
f 528 131 529
f 530 377 271
f 532 230 531
f 533 534 535
f 534 536 535
f 506 396 120
f 537 538 84
f 539 531 117
f 459 540 541
f 124 254 94
f 197 254 162
f 94 254 109
f 162 254 7
f 243 204 300
f 262 542 543
f 544 545 546
f 545 507 546
f 547 548 549
f 550 210 281
f 551 552 553
f 361 360 281
f 360 550 281
f 2 254 124
f 6 162 7
f 532 306 228
f 421 554 555
f 467 405 490
f 490 405 367
f 95 316 177
f 556 77 557
f 347 558 559
f 558 560 559
f 86 52 84
f 561 352 351
f 562 395 466
f 563 564 435
f 114 112 565
f 533 535 566
f 325 326 214
f 567 278 72
f 138 568 206
f 259 212 214
f 555 569 421
f 255 570 256
f 570 571 256
f 572 573 574
f 381 573 191
f 373 222 575
f 514 378 576
f 402 577 394
f 560 516 578
f 373 93 222
f 222 579 575
f 478 345 580
f 581 140 582
f 61 63 164
f 584 585 586
f 203 300 204
f 189 307 549
f 189 549 548
f 17 16 198
f 198 481 583
f 587 192 588
f 213 150 516
f 66 55 349
f 343 207 200
f 57 232 55
f 232 349 55
f 415 449 416
f 209 277 281
f 209 71 277
f 589 294 278
f 318 187 186
f 590 21 20
f 151 321 320
f 591 528 545
f 528 529 545
f 592 12 492
f 89 593 437
f 371 594 157
f 594 158 157
f 140 139 57
f 293 208 231
f 531 230 575
f 574 31 584
f 31 585 584
f 595 392 391
f 359 536 348
f 596 597 44
f 598 490 489
f 31 30 585
f 599 330 600
f 317 325 214
f 455 25 385
f 417 601 414
f 449 417 126
f 126 417 414
f 560 558 516
f 602 397 328
f 397 111 328
f 105 603 216
f 196 228 194
f 605 347 559
f 363 367 364
f 189 548 190
f 606 528 607
f 528 608 607
f 575 229 196
f 595 391 610
f 394 416 449
f 449 450 437
f 282 81 80
f 36 271 194
f 256 571 332
f 244 246 611
f 246 612 611
f 574 573 31
f 154 613 614
f 585 336 586
f 477 478 615
f 616 238 538
f 617 618 296
f 161 247 537
f 247 619 537
f 552 551 288
f 620 113 565
f 113 114 565
f 267 354 151
f 354 321 151
f 344 82 83
f 276 21 5
f 389 465 390
f 544 546 119
f 406 427 131
f 621 375 570
f 622 600 623
f 624 437 451
f 379 380 469
f 625 626 391
f 627 529 131
f 590 496 21
f 301 457 53
f 30 599 628
f 240 468 241
f 616 538 619
f 357 262 338
f 262 261 338
f 91 214 326
f 90 214 91
f 235 234 71
f 630 429 428
f 515 172 220
f 624 89 437
f 491 366 363
f 280 632 631
f 633 240 33
f 81 181 483
f 81 483 604
f 604 483 482
f 111 113 328
f 318 186 542
f 599 600 628
f 600 622 628
f 621 570 255
f 362 634 360
f 634 97 360
f 515 216 172
f 635 636 523
f 636 525 523
f 149 637 430
f 300 518 494
f 102 303 104
f 244 638 245
f 189 60 82
f 189 191 60
f 639 640 641
f 346 642 213
f 160 346 334
f 160 10 346
f 10 642 346
f 643 582 644
f 150 430 516
f 96 410 97
f 645 646 492
f 385 220 172
f 647 648 649
f 603 643 644
f 341 340 650
f 340 651 650
f 573 652 191
f 609 416 394
f 443 442 419
f 653 486 392
f 486 393 392
f 185 654 351
f 654 561 351
f 232 139 138
f 625 655 626
f 655 273 626
f 656 657 442
f 546 120 119
f 191 652 658
f 504 653 505
f 5 480 470
f 573 572 652
f 191 658 60
f 58 658 401
f 60 658 58
f 659 658 572
f 658 652 572
f 660 395 661
f 395 396 661
f 662 518 517
f 196 373 575
f 213 642 317
f 663 53 225
f 32 599 30
f 99 664 665
f 546 507 506
f 509 666 183
f 550 360 410
f 425 667 668
f 669 392 595
f 611 612 670
f 54 301 53
f 354 424 321
f 300 494 493
f 343 342 562
f 343 200 265
f 671 417 416
f 497 291 290
f 149 320 672
f 620 673 113
f 673 674 113
f 612 246 359
f 348 536 534
f 635 500 661
f 663 675 54
f 389 676 465
f 676 464 465
f 487 268 100
f 677 554 421
f 678 448 474
f 544 119 390
f 119 388 390
f 609 679 37
f 348 534 680
f 504 503 242
f 70 681 682
f 265 395 342
f 357 338 69
f 338 683 69
f 484 130 407
f 628 237 30
f 229 228 196
f 602 201 397
f 629 684 685
f 405 466 404
f 240 508 468
f 686 687 688
f 687 63 688
f 689 281 277
f 690 691 692
f 637 149 693
f 149 672 693
f 278 694 570
f 255 257 621
f 682 695 70
f 695 68 70
f 131 528 406
f 390 607 608
f 411 609 37
f 626 610 391
f 138 140 568
f 140 581 568
f 682 696 697
f 225 227 663
f 227 460 663
f 282 180 181
f 285 557 698
f 557 699 698
f 411 413 700
f 587 583 192
f 664 356 665
f 382 496 323
f 291 349 292
f 5 471 276
f 10 701 702
f 703 470 704
f 470 480 704
f 705 661 396
f 200 206 568
f 544 390 545
f 404 466 501
f 466 660 501
f 493 243 300
f 201 279 13
f 208 202 13
f 602 279 201
f 706 604 482
f 622 707 237
f 537 84 6
f 320 322 672
f 574 584 708
f 709 674 673
f 300 299 518
f 299 710 518
f 685 684 549
f 476 475 623
f 14 711 163
f 112 397 310
f 532 228 230
f 230 229 575
f 567 589 278
f 407 130 423
f 164 100 268
f 634 712 441
f 511 388 188
f 689 361 281
f 312 356 34
f 567 713 714
f 498 449 437
f 88 697 304
f 417 671 601
f 325 324 326
f 100 715 218
f 609 577 614
f 625 391 393
f 502 501 660
f 601 700 716
f 700 413 716
f 686 715 687
f 100 687 715
f 490 366 491
f 99 610 98
f 610 626 98
f 483 182 484
f 242 486 504
f 717 718 719
f 718 720 719
f 507 627 508
f 686 527 526
f 394 577 609
f 252 137 22
f 137 136 22
f 328 422 327
f 527 721 370
f 318 542 357
f 655 722 414
f 414 601 655
f 601 716 655
f 723 724 144
f 247 616 619
f 706 169 604
f 574 725 572
f 725 726 572
f 596 727 597
f 570 375 278
f 294 728 278
f 505 729 503
f 533 680 534
f 455 385 462
f 730 731 446
f 342 395 562
f 708 584 732
f 584 559 732
f 377 733 378
f 331 333 607
f 505 314 729
f 314 313 729
f 734 449 126
f 182 130 484
f 181 182 483
f 207 398 735
f 697 736 695
f 736 737 695
f 738 736 88
f 521 662 736
f 662 737 736
f 659 572 726
f 568 179 178
f 736 697 88
f 739 740 142
f 741 565 112
f 438 159 158
f 591 390 528
f 390 608 528
f 173 385 172
f 548 547 564
f 545 627 507
f 305 370 580
f 408 60 59
f 490 367 366
f 251 742 406
f 460 227 459
f 663 54 53
f 607 390 465
f 688 743 721
f 688 64 743
f 288 720 211
f 540 744 434
f 576 745 488
f 745 746 488
f 593 499 747
f 5 496 510
f 697 696 304
f 26 28 365
f 28 748 365
f 635 661 749
f 661 705 749
f 705 396 506
f 302 271 36
f 750 751 492
f 637 693 752
f 753 754 755
f 712 756 442
f 79 448 106
f 742 427 406
f 516 558 757
f 703 758 276
f 304 327 569
f 509 180 284
f 343 735 398
f 683 70 69
f 448 79 474
f 714 759 760
f 319 68 761
f 568 762 179
f 469 627 131
f 368 183 666
f 666 384 368
f 384 666 509
f 763 22 136
f 749 240 635
f 531 539 532
f 425 427 742
f 211 720 718
f 581 762 568
f 216 515 764
f 400 401 403
f 541 158 594
f 528 606 406
f 489 491 167
f 308 765 760
f 397 201 202
f 508 240 749
f 705 506 508
f 749 705 508
f 218 715 217
f 336 335 586
f 766 575 579
f 607 465 331
f 465 258 331
f 288 210 552
f 358 767 768
f 769 122 445
f 333 249 251
f 662 761 737
f 530 302 303
f 353 267 266
f 514 576 487
f 109 110 94
f 71 234 20
f 770 264 503
f 44 224 43
f 555 554 499
f 554 747 499
f 771 422 328
f 738 88 89
f 304 772 280
f 374 621 176
f 358 773 290
f 80 479 480
f 81 479 80
f 170 171 316
f 19 21 277
f 226 744 227
f 432 434 108
f 434 744 108
f 763 678 474
f 752 693 566
f 312 34 313
f 631 774 775
f 276 776 277
f 368 339 369
f 450 451 437
f 777 117 116
f 778 294 293
f 408 83 60
f 556 777 116
f 537 619 538
f 549 779 759
f 631 279 280
f 764 105 216
f 764 780 436
f 781 567 714
f 477 308 345
f 308 309 345
f 307 779 549
f 657 525 419
f 263 243 242
f 562 466 467
f 640 762 641
f 762 581 641
f 777 782 117
f 632 772 681
f 51 424 354
f 155 459 541
f 238 237 783
f 691 503 379
f 784 553 552
f 458 205 668
f 205 263 668
f 290 773 135
f 324 702 701
f 403 647 400
f 771 328 674
f 328 113 674
f 419 442 657
f 530 785 377
f 488 487 576
f 741 112 310
f 741 310 311
f 623 600 786
f 335 584 586
f 347 605 335
f 335 605 584
f 238 336 585
f 585 30 238
f 297 746 745
f 383 340 368
f 424 787 321
f 787 322 321
f 132 482 484
f 211 718 71
f 677 788 789
f 788 709 789
f 788 674 709
f 677 421 788
f 629 685 790
f 28 791 792
f 791 656 792
f 202 310 397
f 656 791 657
f 386 656 442
f 409 676 511
f 550 410 784
f 640 793 48
f 596 400 647
f 473 167 169
f 354 353 51
f 794 376 795
f 780 764 796
f 305 83 408
f 371 372 594
f 174 172 216
f 794 795 630
f 632 280 772
f 784 275 553
f 275 456 553
f 411 700 609
f 789 102 101
f 345 309 344
f 213 212 150
f 539 777 797
f 311 798 741
f 473 169 143
f 624 738 89
f 799 27 404
f 783 237 41
f 237 707 41
f 707 446 41
f 731 41 446
f 800 85 42
f 731 800 41
f 800 42 41
f 610 99 595
f 99 665 595
f 580 370 721
f 686 688 527
f 688 721 527
f 764 436 105
f 370 461 527
f 461 223 527
f 331 258 332
f 256 332 258
f 464 47 257
f 47 176 257
f 47 464 431
f 799 404 501
f 801 337 260
f 337 261 260
f 533 767 680
f 767 358 680
f 130 403 423
f 766 579 802
f 8 724 9
f 9 724 248
f 144 724 109
f 109 724 8
f 248 724 481
f 16 248 481
f 481 724 583
f 202 208 310
f 425 668 426
f 668 770 426
f 264 242 503
f 355 49 153
f 132 407 133
f 545 529 627
f 468 627 469
f 508 627 468
f 663 289 675
f 486 242 243
f 623 475 622
f 796 764 219
f 764 515 219
f 677 789 554
f 789 101 554
f 103 747 554
f 554 101 103
f 435 564 684
f 803 190 564
f 190 548 564
f 324 317 702
f 442 443 440
f 386 689 776
f 235 718 717
f 757 346 213
f 74 435 75
f 75 435 629
f 563 435 436
f 105 435 74
f 455 462 253
f 789 709 804
f 774 805 806
f 670 598 611
f 33 35 419
f 617 807 618
f 533 566 693
f 649 808 341
f 540 459 744
f 459 227 744
f 809 447 810
f 447 811 810
f 789 804 102
f 530 303 785
f 785 303 804
f 303 102 804
f 26 365 364
f 416 700 601
f 812 804 297
f 804 295 297
f 316 171 177
f 564 436 803
f 436 780 803
f 757 213 516
f 1 701 125
f 411 37 412
f 669 595 356
f 595 665 356
f 651 340 116
f 346 558 347
f 686 526 715
f 217 715 526
f 374 375 621
f 809 567 447
f 567 781 447
f 141 813 142
f 813 732 142
f 799 29 27
f 132 484 407
f 814 752 566
f 535 814 566
f 535 536 814
f 536 245 814
f 161 537 350
f 631 632 774
f 774 815 775
f 808 129 341
f 129 369 341
f 442 441 712
f 604 169 418
f 332 816 249
f 117 782 539
f 351 262 543
f 717 719 817
f 14 23 711
f 805 774 681
f 774 632 681
f 696 772 304
f 778 571 728
f 142 740 143
f 461 43 224
f 670 562 467
f 589 810 428
f 810 630 428
f 142 732 578
f 67 66 497
f 66 291 497
f 67 497 387
f 387 497 137
f 514 100 218
f 382 77 383
f 120 395 265
f 500 502 660
f 661 500 660
f 338 337 806
f 70 683 805
f 683 806 805
f 683 338 806
f 818 750 492
f 819 173 73
f 108 744 226
f 568 178 200
f 479 81 363
f 426 770 691
f 310 820 795
f 712 362 756
f 362 361 756
f 352 561 742
f 421 420 788
f 420 674 788
f 713 75 629
f 713 72 75
f 72 713 567
f 455 253 24
f 454 23 236
f 23 454 24
f 454 455 24
f 762 195 179
f 78 48 793
f 505 653 314
f 301 302 457
f 275 784 410
f 821 577 402
f 631 775 279
f 503 691 770
f 346 757 558
f 40 238 783
f 419 35 443
f 672 322 768
f 549 759 685
f 42 85 538
f 167 491 168
f 822 92 402
f 377 785 733
f 562 823 824
f 65 462 73
f 462 819 73
f 662 520 518
f 520 494 518
f 612 824 670
f 824 823 670
f 612 359 824
f 231 12 293
f 80 283 282
f 329 786 330
f 786 600 330
f 761 695 737
f 361 689 756
f 584 605 559
f 522 524 825
f 402 394 498
f 295 673 296
f 43 826 45
f 599 32 330
f 704 480 365
f 780 796 329
f 796 786 329
f 827 765 615
f 61 447 62
f 477 615 308
f 615 765 308
f 307 308 779
f 793 639 78
f 582 641 581
f 92 822 755
f 555 499 88
f 643 603 105
f 263 205 243
f 263 770 668
f 780 329 803
f 190 803 329
f 273 98 626
f 615 64 827
f 670 823 562
f 776 276 758
f 471 703 276
f 471 470 703
f 444 223 222
f 442 756 386
f 767 693 768
f 693 672 768
f 68 695 761
f 359 246 536
f 246 245 536
f 639 74 215
f 639 215 78
f 311 166 268
f 700 416 609
f 546 506 120
f 793 640 639
f 379 692 691
f 617 565 807
f 99 97 634
f 664 443 356
f 443 34 356
f 448 828 147
f 491 363 168
f 168 363 81
f 630 795 820
f 777 539 782
f 609 614 679
f 613 679 614
f 681 772 682
f 772 696 682
f 458 668 667
f 474 163 711
f 818 492 12
f 269 118 178
f 669 314 392
f 314 653 392
f 367 27 364
f 26 364 27
f 157 159 698
f 383 77 340
f 368 340 339
f 155 541 156
f 541 594 156
f 606 607 333
f 115 651 116
f 650 651 115
f 40 538 238
f 795 311 310
f 776 689 277
f 386 756 689
f 8 95 110
f 273 655 716
f 40 783 41
f 829 462 385
f 707 622 446
f 622 475 446
f 221 446 219
f 446 475 219
f 492 751 250
f 250 751 801
f 830 806 337
f 830 337 751
f 337 801 751
f 453 540 433
f 540 434 433
f 453 541 540
f 633 525 240
f 525 636 240
f 662 517 761
f 695 682 697
f 441 443 664
f 233 20 234
f 792 758 831
f 28 792 748
f 792 831 748
f 703 704 758
f 704 831 758
f 748 831 704
f 365 748 704
f 235 717 463
f 832 698 817
f 59 826 305
f 185 351 543
f 549 684 547
f 308 760 759
f 755 54 92
f 39 553 412
f 786 476 623
f 796 219 476
f 476 786 796
f 237 628 622
f 602 328 279
f 518 710 519
f 482 132 706
f 272 143 169
f 706 132 272
f 706 272 169
f 659 134 658
f 134 133 658
f 658 133 407
f 658 407 401
f 499 593 89
f 74 643 105
f 74 639 643
f 643 639 582
f 639 641 582
f 195 762 640
f 640 48 195
f 224 579 222
f 44 802 224
f 224 802 579
f 815 774 830
f 774 806 830
f 280 327 304
f 327 422 569
f 422 421 569
f 318 319 187
f 319 710 187
f 203 205 299
f 457 302 36
f 135 497 290
f 580 345 305
f 344 83 305
f 156 594 372
f 176 621 257
f 556 557 286
f 557 285 286
f 70 805 681
f 271 302 530
f 727 649 833
f 71 718 235
f 592 646 778
f 293 592 778
f 571 778 332
f 778 645 332
f 592 293 12
f 332 645 816
f 778 646 645
f 39 412 37
f 795 376 311
f 447 165 794
f 165 376 794
f 22 711 23
f 834 719 720
f 371 157 832
f 157 698 832
f 371 832 834
f 832 719 834
f 832 817 719
f 565 741 807
f 741 798 807
f 447 794 811
f 794 630 811
f 635 523 500
f 244 611 835
f 835 611 167
f 611 598 167
f 598 489 167
f 495 239 243
f 451 734 520
f 126 495 734
f 723 583 724
f 263 264 770
f 154 399 679
f 154 679 613
f 388 511 389
f 511 676 389
f 660 466 395
f 458 299 205
f 358 768 773
f 452 453 433
f 432 306 433
f 306 836 433
f 452 433 439
f 729 241 379
f 267 152 193
f 412 456 413
f 456 274 413
f 781 837 447
f 781 714 837
f 714 760 837
f 429 630 820
f 28 29 825
f 829 173 462
f 173 819 462
f 173 56 73
f 65 73 66
f 670 490 598
f 196 93 373
f 173 174 838
f 838 56 173
f 174 216 603
f 644 838 603
f 838 174 603
f 839 56 838
f 140 57 839
f 57 56 839
f 644 582 838
f 582 839 838
f 839 582 140
f 403 129 647
f 129 648 647
f 425 742 654
f 742 561 654
f 425 654 667
f 25 454 17
f 416 601 671
f 732 560 578
f 559 560 732
f 153 51 266
f 259 152 212
f 286 439 777
f 439 797 777
f 433 797 439
f 314 669 356
f 840 687 100
f 100 164 840
f 63 840 164
f 687 840 63
f 557 233 463
f 841 38 37
f 135 842 448
f 424 842 787
f 319 519 710
f 488 746 843
f 745 576 733
f 576 378 733
f 812 745 733
f 143 740 638
f 688 63 64
f 273 716 274
f 635 240 636
f 510 284 5
f 54 675 289
f 207 735 359
f 802 844 766
f 844 845 766
f 778 728 294
f 766 531 575
f 10 702 642
f 596 647 727
f 647 649 727
f 129 808 648
f 808 649 648
f 463 717 557
f 717 699 557
f 28 825 791
f 524 657 825
f 657 791 825
f 825 29 522
f 29 501 522
f 500 522 501
f 424 512 842
f 556 116 77
f 308 759 779
f 319 761 519
f 761 517 519
f 711 763 474
f 285 698 159
f 438 439 286
f 241 729 313
f 729 379 503
f 495 494 734
f 494 520 734
f 289 663 460
f 92 821 402
f 98 273 96
f 441 664 634
f 664 99 634
f 596 44 45
f 699 717 817
f 533 693 767
f 513 218 93
f 513 514 218
f 812 733 804
f 733 785 804
f 313 33 241
f 846 352 251
f 352 846 260
f 801 260 846
f 801 846 250
f 250 846 251
f 495 126 239
f 488 843 268
f 678 763 136
f 22 763 711
f 841 399 38
f 399 372 38
f 37 679 841
f 399 841 679
f 371 834 38
f 834 847 38
f 38 847 39
f 39 847 288
f 834 720 847
f 847 720 288
f 633 33 525
f 769 385 25
f 769 25 122
f 848 220 385
f 769 848 385
f 848 221 220
f 445 221 769
f 221 848 769
f 168 81 418
f 604 418 81
f 238 616 336
f 247 336 616
f 812 297 745
f 297 618 746
f 618 843 746
f 268 166 164
f 44 597 844
f 597 727 844
f 307 344 309
f 344 307 82
f 638 740 849
f 740 739 849
f 836 797 433
f 306 532 836
f 532 539 836
f 539 797 836
f 88 569 555
f 123 350 537
f 537 7 123
f 537 6 7
f 620 296 673
f 618 297 296
f 409 431 676
f 431 464 676
f 699 817 698
f 557 77 233
f 146 588 192
f 629 435 684
f 759 790 685
f 790 759 713
f 759 714 713
f 815 830 750
f 751 750 830
f 775 13 279
f 775 815 13
f 333 251 406
f 333 406 606
f 680 358 292
f 818 12 13
f 750 818 815
f 13 815 818
f 758 792 850
f 659 726 134
f 642 702 317
f 526 223 217
f 448 842 828
f 593 747 822
f 747 851 822
f 620 565 296
f 851 747 103
f 39 551 553
f 305 826 43
f 596 45 400
f 45 826 400
f 727 833 844
f 833 845 844
f 670 467 490
f 829 385 173
f 680 292 348
f 5 284 80
f 376 166 311
f 294 589 428
f 429 208 293
f 429 293 294
f 520 662 521
f 563 436 564
f 288 551 39
f 341 650 649
f 617 296 565
f 590 20 496
f 787 842 852
f 768 322 852
f 322 787 852
f 773 768 852
f 135 773 852
f 852 842 135
f 485 486 243
f 426 691 427
f 691 690 427
f 692 379 469
f 547 684 564
f 853 739 578
f 381 31 573
f 473 835 167
f 143 638 472
f 591 545 390
f 657 524 525
f 419 525 33
f 500 523 522
f 162 6 52
f 162 52 86
f 799 501 29
f 562 824 343
f 816 492 250
f 250 249 816
f 743 64 478
f 64 615 478
f 478 580 743
f 580 721 743
f 274 716 413
f 400 826 58
f 58 826 59
f 208 820 310
f 429 820 208
f 1 324 701
f 251 352 742
f 382 384 510
f 382 510 496
f 92 289 821
f 690 692 131
f 690 131 427
f 692 469 131
f 739 142 578
f 849 739 853
f 125 701 10
f 44 844 802
f 210 550 552
f 550 784 552
f 456 412 553
f 447 837 62
f 62 837 765
f 837 760 765
f 62 765 827
f 827 64 62
f 268 798 311
f 854 614 821
f 614 577 821
f 821 289 854
f 460 287 289
f 154 614 854
f 154 854 287
f 854 289 287
f 304 569 88
f 571 570 694
f 694 728 571
f 694 278 728
f 147 828 87
f 448 147 106
f 828 512 87
f 512 828 842
f 542 262 357
f 185 543 186
f 650 833 649
f 243 493 495
f 734 451 449
f 186 543 542
f 709 673 804
f 673 295 804
f 158 541 439
f 541 453 439
f 845 117 531
f 766 845 531
f 587 198 583
f 730 445 587
f 445 122 587
f 198 587 122
f 800 588 85
f 146 85 588
f 730 588 731
f 588 800 731
f 730 587 588
f 445 730 446
f 712 634 362
f 798 843 807
f 843 618 807
f 268 843 798
f 141 272 726
f 272 134 726
f 143 272 141
f 655 625 722
f 625 393 722
f 393 485 722
f 485 243 239
f 722 485 239
f 239 414 722
f 402 498 437
f 451 521 855
f 521 736 855
f 451 855 624
f 855 738 624
f 855 736 738
f 458 667 654
f 458 654 185
f 80 284 283
f 771 674 422
f 674 420 422
f 856 845 833
f 117 845 856
f 117 856 115
f 833 650 856
f 650 115 856
f 40 42 538
f 298 270 513
f 514 487 100
f 513 93 298
f 244 835 472
f 835 473 472
f 244 472 638
f 593 822 402
f 593 402 437
f 822 851 755
f 755 754 54
f 754 301 54
f 104 753 103
f 753 851 103
f 755 851 753
f 753 104 754
f 104 301 754
f 574 708 725
f 725 141 726
f 444 217 223
f 556 286 777
f 192 723 144
f 583 723 192
f 638 849 245
f 814 245 849
f 814 849 752
f 849 853 752
f 857 853 578
f 857 430 637
f 637 752 857
f 752 853 857
f 857 578 516
f 857 516 430
f 592 492 646
f 492 816 645
f 735 824 359
f 735 343 824
f 110 95 94
f 2 125 254
f 708 732 725
f 732 813 725
f 725 813 141
f 589 567 810
f 811 630 810
f 809 810 567
f 792 656 850
f 758 850 776
f 850 656 386
f 776 850 386
f 84 538 85
f 790 713 629
f 653 504 486
f 678 136 448
f 187 710 299
f 224 223 461
f 415 417 449
f 432 107 306
f 432 108 107
