v -0.089862 -0.362992 -0.114571
v -0.138019 -0.115402 -0.019374
v -0.136671 -0.093132 -0.012447
v -0.138279 -0.097117 -0.030589
v -0.027120 -0.226606 0.140798
v -0.005474 -0.228860 0.145492
v -0.011932 -0.204123 0.140832
v 0.110467 -0.312659 -0.095637
v -0.069811 -0.362720 -0.131741
v -0.063036 0.397613 -0.039884
v -0.031395 0.401598 -0.020539
v -0.029499 0.365688 -0.027561
v 0.137393 -0.132407 0.018102
v 0.138255 -0.143438 0.019114
v 0.134549 -0.142526 0.004658
v 0.079071 0.233588 0.098240
v 0.046946 0.224741 0.087965
v 0.075294 0.200916 0.101530
v -0.127072 -0.452307 0.052246
v -0.112734 -0.452476 0.083014
v 0.077712 -0.137369 0.127433
v 0.064309 -0.141540 0.132023
v 0.096171 -0.167139 0.120199
v 0.093380 -0.169023 0.121731
v 0.142141 -0.360748 -0.036828
v 0.144783 -0.360854 -0.018177
v 0.123563 -0.339846 -0.087244
v -0.007379 -0.063854 0.118037
v -0.017281 -0.100444 0.120927
v 0.026509 -0.092887 0.129951
v -0.131986 0.080243 -0.073686
v -0.137049 0.108024 -0.045565
v -0.137174 0.079166 -0.036835
v 0.102897 0.452404 0.080155
v 0.041951 0.085798 -0.052003
v 0.072348 0.044530 -0.041479
v 0.046602 0.044692 -0.058872
v -0.129458 -0.362932 0.057737
v -0.133682 -0.315052 0.044951
v -0.136588 -0.363106 0.036626
v -0.126854 0.042243 0.002801
v -0.135609 0.042136 -0.017194
v -0.114279 0.042414 0.021002
v -0.127704 0.083121 -0.010456
v -0.031610 0.300413 -0.043963
v 0.013466 0.331503 -0.009886
v 0.018694 0.291327 -0.017655
v -0.139041 0.042118 -0.038746
v -0.117586 0.089566 0.003979
v -0.136826 0.116210 -0.047624
v -0.063254 -0.150628 0.108503
v -0.023734 -0.143373 0.126535
v -0.059414 -0.111846 0.102492
v 0.128751 -0.034385 0.092531
v 0.139281 0.000803 0.059149
v 0.129333 0.004279 0.093202
v 0.058397 -0.448875 -0.129168
v 0.065823 -0.449293 -0.084129
v 0.132588 0.179471 0.096716
v 0.131982 0.208771 0.076436
v 0.131831 0.181334 0.070945
v -0.076684 -0.318267 -0.126803
v -0.057196 -0.322425 -0.139178
v -0.129985 0.003880 -0.073392
v -0.136671 -0.415186 0.052324
v -0.133616 -0.452139 0.029854
v -0.136124 0.278277 -0.081409
v -0.139848 0.303168 -0.075956
v -0.120685 0.292961 -0.078712
v -0.011785 0.104000 -0.078930
v 0.037299 0.126904 -0.045133
v 0.063558 -0.353649 -0.082421
v 0.079403 -0.361188 -0.075546
v 0.066547 -0.364877 -0.086749
v -0.121555 -0.235622 0.066948
v -0.129333 -0.266573 0.055636
v -0.114545 -0.266796 0.084711
v -0.078469 -0.058139 0.076286
v -0.055574 -0.073064 0.096481
v -0.051734 -0.034281 0.090471
v -0.114169 -0.362653 0.086020
v -0.110068 -0.418220 0.102728
v -0.095146 -0.362396 0.109404
v 0.144076 -0.361152 0.026154
v 0.026897 -0.350196 -0.151201
v 0.031553 -0.336749 -0.147997
v -0.095814 -0.266934 0.108776
v 0.068106 -0.148303 -0.090660
v 0.072407 -0.186902 -0.097017
v -0.072355 -0.455836 0.032597
v 0.110634 -0.026142 -0.019398
v 0.113579 -0.026898 -0.016206
v 0.112715 -0.031659 -0.017838
v 0.089638 -0.292115 -0.109221
v 0.082259 -0.277463 -0.111496
v -0.127422 0.279828 -0.050387
v -0.121292 0.277356 -0.043093
v -0.123061 0.285321 -0.046045
v 0.105332 0.340862 0.062154
v 0.089079 0.333197 0.045847
v 0.091082 0.375692 0.056637
v 0.088007 0.374407 0.053871
v 0.064755 -0.296196 -0.125697
v 0.075016 -0.315058 -0.100167
v -0.054941 -0.011228 -0.110320
v -0.057881 -0.001401 -0.109818
v -0.045128 -0.003122 -0.108962
v 0.087642 -0.361763 0.127291
v 0.005740 -0.361730 -0.155003
v 0.011975 -0.332036 -0.154332
v -0.047276 -0.266972 0.140507
v -0.037613 -0.323077 0.145655
v -0.016142 -0.266967 0.148971
v 0.004733 -0.451123 0.008458
v -0.014904 -0.451452 0.038086
v -0.010586 0.370282 0.026425
v -0.087374 0.000366 0.056954
v -0.116510 -0.007144 0.026171
v -0.090478 -0.033390 0.060580
v -0.122338 -0.314275 -0.072733
v -0.139324 -0.308101 -0.023425
v -0.133716 -0.265505 -0.048639
v -0.008363 -0.264055 -0.142050
v 0.025886 -0.263997 -0.136593
v -0.030519 -0.362185 -0.150973
v -0.054308 -0.405470 -0.140659
v -0.054943 -0.362515 -0.141044
v 0.121622 -0.450003 0.084863
v 0.133009 -0.449737 0.062812
v 0.025097 -0.450513 -0.022405
v -0.026235 -0.451093 -0.011694
v 0.008238 0.371679 -0.002118
v 0.139574 -0.156246 0.055984
v 0.139181 -0.167107 0.057985
v 0.140260 -0.169458 0.051470
v 0.005139 -0.456027 -0.090554
v 0.045460 -0.449903 -0.053267
v 0.095205 0.044283 -0.022859
v 0.000208 -0.451728 0.149413
v -0.013404 -0.458088 0.116484
v 0.032721 -0.451342 0.145869
v 0.145240 -0.265598 0.016256
v 0.142753 -0.265313 -0.007145
v 0.139852 0.043263 0.060075
v 0.135292 0.043044 0.082382
v 0.139272 0.010404 0.060622
v -0.074387 -0.362212 0.126948
v -0.074101 -0.407327 0.126959
v 0.047573 -0.183811 0.139230
v 0.082945 -0.174695 0.126503
v 0.050991 -0.168450 0.137299
v -0.132911 -0.363406 -0.047082
v -0.139371 -0.363391 -0.022014
v -0.128743 0.271813 -0.051387
v -0.126000 0.274948 -0.048062
v -0.133053 0.118164 -0.073898
v 0.139632 -0.449490 0.039487
v -0.009470 0.043114 0.097617
v -0.001111 0.101252 0.090441
v -0.039870 0.084159 0.071947
v -0.009552 -0.453928 -0.053266
v -0.019322 -0.099400 0.119952
v -0.008622 -0.304680 -0.150949
v -0.030832 -0.264144 -0.140938
v -0.135869 -0.451566 -0.028316
v 0.127008 -0.150378 0.090515
v 0.097097 -0.170910 0.119383
v 0.126426 -0.189043 0.089844
v 0.145013 -0.316208 -0.008658
v 0.145578 -0.361030 0.008891
v 0.144763 -0.322857 -0.016096
v -0.107402 -0.223389 0.085570
v 0.005094 -0.188557 0.140910
v 0.016657 -0.228379 0.147165
v 0.027702 -0.181158 0.140558
v 0.035929 -0.206960 0.143511
v -0.139336 -0.265785 -0.024379
v -0.118332 0.042566 -0.091667
v -0.105169 0.070279 -0.098416
v -0.102562 0.042843 -0.102769
v 0.056720 0.122454 0.108500
v 0.057923 0.122413 0.108668
v 0.103804 0.164458 0.108596
v 0.105784 0.140538 0.109803
v -0.094918 0.099872 -0.097226
v -0.085459 0.100916 -0.098328
v -0.100065 0.090636 -0.097799
v 0.134875 -0.360619 -0.065419
v 0.135832 -0.322936 -0.060377
v -0.031503 0.165908 0.058940
v 0.124123 -0.313965 0.087436
v 0.143503 -0.307622 0.037348
v 0.137200 -0.266138 0.064517
v 0.016248 -0.361931 0.155003
v 0.142032 -0.449266 0.015538
v 0.029082 -0.364955 -0.146417
v 0.040473 -0.375764 -0.142576
v 0.029648 -0.370676 -0.149617
v -0.018954 -0.100983 0.120376
v -0.139284 -0.309149 -0.022955
v -0.139546 -0.309150 -0.021369
v -0.078281 0.078979 0.046745
v -0.068679 0.043038 0.062472
v 0.128170 -0.073050 0.091859
v 0.097207 -0.087551 0.118003
v 0.098909 -0.056078 0.116928
v 0.004637 -0.177428 0.139133
v -0.011411 -0.183605 0.137354
v -0.125311 -0.188325 -0.072979
v 0.095824 -0.295791 -0.105164
v 0.092399 -0.450283 0.065762
v 0.001180 -0.003906 0.111337
v -0.003656 -0.004596 0.109682
v 0.006098 -0.016175 0.115149
v -0.047894 0.004502 0.084460
v -0.073713 -0.408931 -0.129035
v 0.055627 -0.323336 -0.114699
v 0.056335 -0.302114 -0.131312
v 0.073214 0.149311 -0.012389
v 0.072412 0.150400 -0.012869
v 0.110654 0.156523 0.028157
v 0.100363 0.179600 0.022345
v 0.025339 -0.361508 -0.152343
v 0.033625 -0.361512 -0.125731
v 0.018058 -0.454265 0.066285
v 0.033955 -0.450843 0.027560
v 0.037023 -0.457577 0.097487
v 0.050903 0.006093 -0.065229
v 0.056634 0.122353 0.108424
v 0.056595 0.122425 0.108442
v 0.052527 -0.361429 -0.091977
v 0.066524 -0.339290 -0.087074
v 0.117694 -0.264533 -0.069172
v 0.119407 -0.293237 -0.080479
v 0.104231 -0.286551 -0.096512
v 0.140190 -0.408518 -0.055923
v 0.138401 -0.405141 -0.061476
v -0.088169 -0.451033 -0.051997
v -0.129847 -0.451293 -0.050883
v -0.119136 -0.451003 -0.072149
v 0.026892 -0.449123 -0.137502
v -0.135647 0.042219 -0.061618
v -0.130920 0.042321 -0.073475
v -0.123441 -0.265207 -0.072813
v 0.117809 0.208238 0.051785
v 0.118346 0.208290 0.052534
v 0.118594 0.207562 0.052749
v -0.128116 -0.073002 -0.073227
v -0.127181 -0.111443 -0.073144
v -0.060217 0.313641 0.005513
v -0.060797 0.291263 0.009595
v -0.057185 0.290427 0.012492
v 0.038166 -0.457463 0.100307
v 0.063646 -0.450934 0.135135
v -0.141207 -0.363312 0.002273
v 0.141691 -0.313077 -0.034106
v 0.144452 -0.309003 -0.018251
v 0.144045 -0.316523 -0.021317
v 0.137399 0.043496 0.038880
v 0.138910 0.066775 0.056945
v 0.137690 0.070227 0.050602
v 0.138905 -0.448982 -0.020134
v -0.065587 0.119958 0.046078
v -0.035687 0.125034 0.065444
v -0.067291 0.123929 0.043832
v 0.148305 -0.406472 -0.016897
v 0.118056 0.207391 0.051960
v 0.131505 -0.101284 0.004217
v 0.136221 -0.089461 0.024431
v 0.132863 -0.264899 -0.040103
v -0.107062 -0.363205 -0.094511
v -0.121235 -0.363343 -0.072652
v 0.027772 -0.133903 0.134723
v 0.016085 -0.164827 0.138356
v 0.044366 -0.138601 0.134803
v -0.089113 0.089117 0.034850
v -0.091546 0.042731 0.044422
v -0.097296 -0.214594 0.095012
v 0.019583 0.042967 0.110264
v 0.000454 0.082600 0.094806
v 0.023864 0.089183 0.103421
v -0.102759 0.106479 0.016489
v -0.118313 0.119009 -0.005171
v -0.112778 0.134531 -0.002252
v -0.139502 -0.307090 -0.021923
v -0.140785 -0.266043 -0.000420
v 0.137936 0.452528 0.102400
v 0.137045 0.407019 0.101453
v -0.090476 -0.084375 0.071017
v 0.067859 0.452280 0.057910
v 0.104306 0.412219 0.074380
v 0.075013 0.415209 0.052826
v -0.057202 -0.451063 -0.031845
v -0.065403 -0.452676 -0.010506
v -0.141758 0.352195 -0.076572
v -0.133013 0.331010 -0.078492
v -0.084254 0.191233 0.012600
v -0.085690 0.201028 0.009064
v -0.089247 0.194770 0.007137
v 0.049034 -0.335194 -0.113278
v 0.000476 0.001913 0.110020
v -0.101957 0.143208 -0.091132
v -0.006933 -0.320831 -0.153241
v -0.026091 -0.313811 -0.149484
v 0.012607 -0.455564 -0.095266
v -0.129051 -0.034561 -0.073309
v -0.096367 -0.018409 -0.102813
v -0.104704 -0.038891 -0.097050
v 0.141628 -0.227561 0.001480
v 0.140962 -0.225953 -0.000982
v 0.141536 -0.225690 0.001874
v 0.091713 0.042757 0.121076
v 0.129430 0.043734 0.019053
v 0.124248 0.082259 0.022733
v -0.011851 -0.310081 0.151542
v 0.005365 -0.309681 0.153393
v -0.000946 -0.296718 0.152482
v -0.137691 -0.451818 -0.005047
v 0.116927 0.386723 0.080861
v 0.136153 0.361509 0.100505
v 0.037292 -0.361894 0.152211
v 0.138702 -0.085548 0.047427
v 0.139349 -0.109791 0.043851
v 0.016860 -0.266942 0.151003
v -0.107618 -0.131544 -0.095440
v -0.126246 -0.149884 -0.073061
v 0.005870 -0.455616 -0.101192
v 0.056633 0.122572 0.108473
v 0.056507 0.122408 0.108416
v -0.136029 0.205113 -0.074725
v 0.127749 -0.360561 -0.084714
v -0.057375 0.289329 0.012611
v -0.055828 0.288896 0.013860
v -0.094433 -0.452528 0.108598
v -0.073815 -0.452441 0.126970
v 0.084909 -0.454001 -0.033204
v 0.133124 -0.448834 -0.042800
v -0.064530 0.043444 -0.107785
v -0.043793 0.043742 -0.103743
v -0.137055 -0.041238 -0.018599
v -0.137828 -0.041305 -0.032575
v -0.137826 -0.050207 -0.033188
v -0.137807 0.000320 -0.033684
v 0.099618 -0.264254 -0.092875
v -0.137897 -0.136882 -0.024141
v -0.136615 -0.134494 -0.003049
v 0.115519 -0.029910 -0.013869
v -0.065017 0.242311 0.016927
v -0.069933 0.245795 0.012248
v -0.077496 0.225215 0.010550
v 0.109374 0.209043 0.105610
v 0.099554 0.211162 0.104832
v 0.105437 0.178200 0.107858
v -0.106721 -0.315018 0.096909
v -0.105717 -0.314063 0.097952
v -0.114164 0.381356 -0.067544
v -0.116291 0.422522 -0.063527
v -0.093866 0.386273 -0.057711
v -0.105090 0.416022 -0.058856
v 0.019495 -0.051369 0.123497
v -0.093287 0.272564 -0.013314
v -0.095563 0.258504 -0.012924
v 0.039026 -0.266905 0.148329
v 0.088734 0.381546 0.055895
v -0.081615 0.155972 0.023567
v -0.070746 0.386960 -0.046143
v -0.030587 0.350912 -0.031611
v 0.078924 -0.010719 0.122975
v 0.093721 0.002072 0.120454
v 0.049114 -0.001100 0.123645
v 0.068465 0.007674 0.122992
v 0.082677 -0.450659 0.124225
v -0.043860 0.414310 -0.002362
v -0.063442 0.355080 -0.004939
v -0.143732 -0.409882 -0.000424
v -0.059519 -0.294037 -0.136540
v -0.140476 -0.407018 -0.025346
v -0.005055 0.000761 0.107929
v 0.051116 0.042836 0.119615
v -0.050644 -0.292381 -0.139801
v -0.091227 0.160486 0.013473
v -0.107694 0.144007 0.000930
v -0.006403 -0.457764 0.107357
v -0.034541 -0.451782 0.067714
v -0.136912 -0.230393 0.026050
v -0.136954 -0.230361 0.025796
v 0.035830 -0.457624 0.099634
v 0.127556 0.326657 0.083153
v 0.128696 0.338086 0.086429
v 0.135262 0.316000 0.099558
v 0.144667 -0.313259 0.028509
v 0.138909 -0.361328 0.050578
v 0.097283 -0.174697 0.118977
v -0.134119 0.156086 -0.074109
v -0.081727 0.282696 -0.068793
v -0.104685 0.307772 -0.072933
v -0.080031 0.327616 -0.060823
v -0.075068 0.335770 -0.057265
v -0.063276 0.331136 -0.052655
v 0.029103 -0.229255 0.146712
v 0.086187 -0.448683 -0.114991
v 0.104010 -0.448628 -0.098296
v 0.112475 -0.455030 0.007315
v 0.103988 -0.455858 0.005399
v 0.109348 0.042784 0.114822
v 0.062263 0.420040 0.044979
v -0.073835 0.363630 -0.052050
v -0.080778 0.340729 -0.059010
v -0.114470 0.370548 -0.068982
v 0.109386 -0.266556 0.109273
v -0.102379 -0.092874 -0.099479
v 0.076339 0.239975 0.013204
v 0.027997 0.209115 -0.031394
v 0.023345 0.250221 -0.024525
v -0.139177 -0.188686 -0.026230
v -0.139356 -0.203276 -0.011863
v -0.137590 -0.184567 0.004285
v -0.012896 -0.361958 -0.154439
v -0.075460 -0.124427 -0.113356
v -0.048981 -0.092323 -0.116490
v -0.042420 -0.125858 -0.120240
v -0.055175 -0.454401 0.031593
v -0.018902 -0.102480 0.120638
v -0.136967 -0.053753 -0.019354
v 0.134371 0.270490 0.098611
v 0.133479 0.224981 0.097663
v -0.138019 -0.067540 -0.028142
v 0.103011 -0.110971 0.114684
v 0.127589 -0.111714 0.091187
v 0.006495 -0.209015 -0.129753
v 0.004470 -0.221926 -0.132562
v -0.003820 -0.213023 -0.131821
v 0.107788 -0.450257 0.102589
v 0.032402 -0.318642 0.151925
v -0.052695 0.136086 -0.086368
v -0.055955 0.138054 -0.087048
v -0.009108 0.144123 -0.067867
v -0.012001 0.147493 -0.068270
v -0.136196 -0.266383 0.034113
v 0.043233 -0.361485 -0.104306
v -0.006624 -0.449426 -0.139073
v -0.062654 -0.172260 -0.121697
v -0.064514 -0.213450 -0.125307
v -0.064462 -0.169240 -0.120839
v -0.086125 -0.205884 -0.113995
v -0.045865 -0.362076 0.142764
v -0.015932 -0.404117 0.156048
v -0.015297 -0.361990 0.152461
v 0.094565 -0.172703 0.120600
v -0.099705 0.270968 -0.075631
v 0.125845 -0.227707 0.089173
v -0.117926 -0.192084 0.062155
v -0.118567 -0.181003 0.058065
v -0.126307 -0.187411 0.044077
v -0.052531 -0.264275 -0.135853
v -0.057613 -0.286565 -0.136693
v -0.062964 -0.264355 -0.131774
v 0.072000 0.042778 0.122338
v 0.110205 -0.217273 0.106297
v 0.032648 0.168010 -0.038263
v -0.003373 0.149573 -0.063496
v -0.007552 0.158214 -0.063707
v 0.118773 -0.394945 -0.093697
v 0.102651 -0.376662 -0.101572
v 0.117230 -0.372790 -0.091852
v 0.125264 -0.266371 0.088501
v 0.098445 -0.283477 -0.101554
v 0.123012 0.003030 0.002081
v 0.117444 0.043966 0.000848
v -0.130435 -0.038144 0.000658
v -0.131217 -0.061374 0.003506
v 0.143624 -0.265877 0.040290
v -0.012680 0.044150 -0.092363
v -0.034908 0.437747 -0.001499
v -0.006402 0.411157 0.019922
v -0.084374 0.043141 -0.107801
v 0.142007 -0.224038 0.004978
v 0.080495 -0.315024 0.133275
v 0.085134 -0.314437 0.130120
v 0.081810 -0.310917 0.132455
v -0.038059 0.451587 -0.009387
v -0.045966 0.438795 -0.008706
v -0.138834 -0.172499 -0.009549
v 0.094996 -0.001544 -0.032075
v 0.028792 -0.170512 -0.116547
v 0.019461 -0.216862 -0.128130
v 0.036091 -0.187223 -0.117119
v 0.141476 -0.213772 0.044651
v 0.138488 -0.049141 0.040640
v -0.002219 0.452032 0.013419
v 0.032820 0.452156 0.035664
v 0.003009 0.411856 0.005651
v -0.132380 0.219632 -0.051474
v -0.136180 0.230940 -0.060671
v -0.067534 0.117484 0.045274
v 0.068088 -0.361827 0.140526
v 0.139608 -0.138246 0.032517
v 0.116229 0.253996 0.057796
v 0.117017 0.250370 0.058256
v -0.062315 -0.450052 -0.124174
v 0.103137 0.077115 0.114333
v -0.063695 -0.168617 -0.121008
v -0.055134 -0.167763 -0.122031
v 0.139183 -0.151902 0.020551
v 0.141849 -0.195863 0.026312
v 0.136600 -0.174908 0.001138
v -0.068741 0.338178 -0.053932
v -0.050138 0.343701 -0.043567
v -0.095776 -0.308018 -0.110155
v 0.014554 -0.375894 -0.154792
v 0.024023 -0.376871 -0.153093
v 0.012564 -0.382150 -0.155369
v -0.087263 0.089406 -0.100150
v 0.109821 -0.222263 -0.067804
v 0.076708 -0.225501 -0.103374
v -0.083059 -0.450345 -0.111288
v 0.063177 -0.450563 0.046661
v -0.113655 -0.149020 0.057282
v -0.123521 -0.137942 0.038572
v -0.024974 -0.217502 -0.133340
v -0.016026 -0.176543 -0.127275
v 0.124276 0.346749 0.082196
v -0.140023 -0.315761 0.014541
v 0.091193 -0.266699 0.125544
v 0.071211 -0.266804 0.137589
v 0.059561 -0.264029 -0.123030
v 0.073849 -0.292281 -0.119654
v -0.074263 0.431956 -0.039540
v -0.073899 0.451141 -0.032192
v 0.100548 0.127167 0.007213
v 0.102154 0.150176 0.017143
v 0.131697 0.133962 0.095769
v -0.090236 -0.048587 0.063697
v -0.095899 -0.045541 0.057212
v -0.092937 -0.062635 0.063984
v -0.018953 0.288533 0.039431
v -0.054086 0.291237 0.014603
v 0.138077 0.079552 0.057413
v 0.125178 0.096494 0.029494
v 0.112803 0.254455 0.053655
v 0.105464 0.252188 0.045232
v 0.111861 0.259645 0.053349
v -0.072662 0.342413 -0.055070
v -0.101162 0.344738 -0.032538
v -0.116100 0.347267 -0.046452
v -0.100139 0.305129 -0.025323
v -0.115415 0.324650 -0.042565
v -0.029241 -0.449658 -0.135911
v -0.007180 -0.456496 -0.094646
v -0.036476 -0.456303 -0.099176
v -0.126517 -0.428426 0.073422
v -0.111926 -0.419838 0.101213
v 0.121509 -0.405038 -0.087468
v 0.120266 -0.448682 -0.073501
v 0.122302 -0.405781 0.085617
v 0.140565 -0.387371 0.050555
v 0.130409 -0.361479 0.072881
v 0.119592 -0.153029 -0.033673
v 0.128950 -0.156574 -0.016079
v 0.126490 -0.184113 -0.029556
v 0.133847 -0.179374 -0.010313
v 0.139831 -0.319550 0.048128
v 0.118585 0.066043 0.106807
v 0.007587 -0.086979 -0.107358
v 0.003961 -0.111289 -0.113012
v -0.012067 -0.109170 -0.116092
v 0.085367 -0.413414 -0.114295
v 0.092706 0.307467 0.043383
v -0.021644 -0.451964 0.147538
v -0.023954 -0.456986 0.118359
v -0.065515 0.349546 -0.005334
v 0.011091 -0.408976 0.157615
v -0.071437 -0.004959 -0.109163
v -0.067679 -0.026892 -0.109933
v 0.074471 -0.313858 0.136821
v 0.053874 0.423754 0.056809
v 0.076761 0.413573 0.071752
v -0.102167 -0.450662 -0.094038
v -0.134194 -0.181439 0.020528
v -0.137822 -0.203569 0.009679
v -0.126646 0.339623 -0.055878
v -0.126247 0.353928 -0.056757
v -0.070934 -0.228193 0.120524
v -0.074774 -0.266976 0.126534
v 0.022941 -0.235974 0.147830
v 0.086652 0.378279 0.053511
v 0.088627 0.377586 0.054997
v -0.007614 -0.164802 0.134976
v -0.137939 0.254141 -0.075340
v -0.097214 -0.200470 0.091552
v -0.100710 -0.167911 0.080183
v -0.112867 -0.190102 0.069646
v 0.104876 0.414693 0.086469
v 0.117907 -0.031188 -0.010506
v 0.127169 -0.003902 0.009002
v 0.125230 -0.000455 0.005604
v -0.130869 0.387935 -0.063941
v 0.022360 -0.313225 -0.149325
v 0.139609 -0.184687 0.056183
v 0.084547 -0.378145 -0.113598
v 0.129565 -0.302600 -0.067874
v 0.016154 0.044472 -0.077667
v 0.053485 -0.060318 0.127394
v 0.055095 -0.057406 0.127046
v 0.053006 -0.055894 0.126901
v 0.056257 0.122541 0.108361
v 0.054628 0.121750 0.107889
v 0.056495 0.122290 0.108398
v -0.112532 0.228834 -0.082861
v 0.002841 0.081223 -0.076682
v 0.125119 0.005472 0.006030
v -0.120186 -0.407173 -0.072401
v -0.044054 0.043284 0.078450
v -0.116416 0.247950 -0.081586
v 0.016233 -0.071124 -0.101443
v 0.026083 -0.078444 -0.098844
v 0.023271 -0.396861 0.156340
v -0.025458 -0.402277 -0.151245
v -0.013343 -0.402576 -0.153574
v 0.139059 0.066372 0.065607
v 0.138856 0.073669 0.061743
v 0.130805 0.088452 0.094821
v -0.134602 -0.012228 -0.011658
v 0.032405 -0.157809 -0.112470
v 0.027545 -0.126635 -0.108118
v -0.082870 -0.131561 -0.110969
v -0.084601 -0.125876 -0.109840
v -0.083236 -0.119038 -0.110292
v 0.128160 0.058658 0.097410
v 0.123995 0.042873 0.102566
v 0.129914 0.042943 0.093874
v 0.028551 0.387930 0.047915
v 0.029275 0.388657 0.048231
v 0.028118 0.388416 0.047545
v 0.040688 0.217600 0.086710
v 0.064121 0.189374 0.099993
v 0.138141 -0.211554 0.061851
v 0.062941 0.408332 0.042628
v 0.051869 0.387643 0.030143
v 0.050523 0.416142 0.036212
v 0.055204 -0.032506 -0.071587
v 0.007216 -0.014871 -0.094869
v -0.087136 0.145516 -0.089755
v -0.071651 0.165082 -0.085369
v -0.058488 0.140153 -0.087095
v -0.035378 -0.187103 0.130542
v -0.026975 -0.155202 0.127538
v 0.136082 -0.081074 0.067920
v 0.137261 -0.099548 0.064565
v 0.107975 0.255323 0.103174
v -0.121010 -0.199669 0.058507
v -0.136591 -0.229493 0.026745
v 0.040974 0.226493 0.085261
v -0.023136 0.247658 0.045934
v -0.027320 0.206783 0.052437
v 0.012833 0.415803 0.031720
v 0.145253 -0.304447 0.016079
v -0.119582 -0.006003 0.021312
v 0.057396 0.354768 0.026086
v 0.062923 0.314976 0.020017
v -0.137776 -0.148869 -0.003875
v -0.090541 -0.318036 -0.115243
v 0.125993 -0.128728 -0.015395
v 0.117350 -0.133869 -0.032706
v 0.107421 0.251095 0.103213
v 0.104034 0.254150 0.102438
v -0.094561 -0.195550 -0.108117
v -0.065543 -0.168635 -0.120337
v -0.126533 0.183563 -0.034473
v -0.127452 0.187233 -0.036626
v -0.133880 0.149683 -0.043266
v -0.135152 0.163624 -0.053770
v 0.079608 0.375567 0.047605
v -0.101031 -0.412160 -0.103345
v 0.114277 0.081863 0.007977
v -0.045087 -0.217698 -0.131208
v 0.035873 0.388546 0.019893
v 0.026913 0.416738 0.021555
v -0.086407 -0.043485 0.066394
v -0.008572 0.149735 -0.066076
v -0.015223 0.153699 -0.068213
v -0.074580 -0.314594 0.126741
v -0.002330 -0.018100 -0.099259
v 0.002626 -0.022515 -0.098094
v -0.002558 -0.026975 -0.100485
v 0.111647 0.137495 0.024001
v -0.080819 -0.020862 0.066674
v 0.071053 -0.415631 0.139771
v 0.032341 -0.406591 0.154912
v 0.124672 -0.074195 -0.006550
v 0.140262 -0.198097 0.009623
v -0.058484 0.136444 -0.087895
v 0.058979 -0.378152 -0.130454
v 0.069870 -0.105432 0.128314
v 0.069280 -0.104617 0.128406
v -0.110641 0.324111 -0.072888
v -0.113434 0.400254 -0.050239
v -0.128082 0.420452 -0.064223
v 0.068627 -0.106172 0.128722
v 0.138617 -0.044315 0.042461
v 0.036010 -0.109458 0.131403
v 0.024782 -0.106217 0.131426
v 0.067537 -0.105850 0.128771
v 0.026507 -0.366675 -0.151632
v -0.111575 0.432647 -0.052667
v -0.122483 0.430362 -0.060882
v 0.107396 0.170343 0.107778
v 0.138626 -0.046471 0.043048
v 0.072868 0.255997 0.013997
v 0.057503 0.293945 0.010759
v 0.081079 0.283419 0.027571
v 0.085318 -0.414867 0.130553
v -0.140400 -0.412019 0.036961
v -0.091147 0.206083 0.002693
v 0.037595 0.419191 0.047519
v 0.100102 0.395698 0.086355
v -0.005688 -0.022732 0.111922
v -0.143668 0.401223 -0.077187
v 0.055806 -0.057034 0.126992
v 0.117167 0.097907 0.017537
v -0.064386 -0.168300 -0.120732
v -0.063376 -0.167216 -0.120956
v 0.125561 -0.366967 -0.086249
v -0.095346 0.004759 -0.104044
v 0.056126 -0.057962 0.127066
v 0.068210 0.086764 0.115563
v 0.048974 0.085498 0.112337
v 0.064585 0.210424 -0.003378
v 0.138782 -0.409951 -0.058887
v -0.119447 0.139256 -0.013632
v -0.130368 0.126055 -0.031497
v 0.131524 -0.206358 -0.024933
v 0.095034 0.366708 0.087645
v 0.083996 0.349708 0.084850
v 0.112765 0.374086 0.094262
v 0.102905 0.353638 0.092434
v -0.110032 0.437775 -0.052340
v 0.110037 -0.148598 -0.048305
v 0.114442 -0.174519 -0.047526
v 0.095865 -0.164897 -0.068449
v 0.083580 -0.225200 0.129773
v -0.054178 -0.452111 0.097342
v -0.102278 -0.112912 -0.099522
v -0.100260 -0.144828 -0.101718
v 0.137376 -0.156853 0.011013
v -0.053632 -0.452273 0.138010
v 0.136091 0.120805 0.067654
v 0.135096 0.149186 0.072865
v -0.019764 0.208956 -0.057715
v -0.006519 0.193920 -0.054619
v -0.020729 0.192085 -0.062059
v -0.129018 -0.094890 0.016617
v -0.131944 -0.080707 0.005410
v -0.124376 -0.226766 -0.072896
v -0.136841 -0.167143 0.004480
v -0.133953 -0.146756 0.012259
v -0.131266 -0.158837 0.025004
v 0.040850 -0.457334 0.099261
v -0.108916 -0.264911 -0.095275
v -0.103168 -0.235365 -0.101364
v -0.100725 -0.264780 -0.104784
v -0.080071 -0.056075 -0.108038
v -0.068859 -0.057162 -0.110961
v -0.085131 -0.069497 -0.107245
v -0.128419 0.281738 -0.051916
v -0.128779 0.333999 -0.057933
v -0.105754 -0.316113 0.097937
v 0.046968 0.350544 0.065924
v 0.044849 0.352294 0.064549
v 0.044238 0.350379 0.064489
v -0.099455 -0.167486 -0.103144
v -0.032063 -0.455963 -0.075602
v 0.103123 -0.127001 0.114935
v -0.131985 0.240123 -0.052780
v -0.109738 0.450696 -0.054997
v -0.086107 -0.455022 0.006102
v -0.129019 0.231023 -0.046775
v -0.078669 0.429795 -0.042473
v -0.076369 0.430737 -0.040995
v -0.076076 0.423510 -0.042351
v -0.086772 0.417419 -0.032264
v -0.102107 0.372357 -0.037232
v 0.102212 -0.047733 0.114848
v 0.019458 -0.040284 0.122337
v -0.082206 0.126803 0.029289
v 0.106770 0.094667 0.003251
v 0.081009 -0.264100 -0.109732
v -0.083538 0.190909 -0.083564
v -0.083337 0.194772 -0.082750
v -0.038476 0.216970 -0.064850
v -0.038095 0.225707 -0.063328
v 0.119654 0.338178 0.099572
v 0.063313 -0.453147 -0.006223
v 0.106045 0.012545 0.113886
v -0.067094 -0.189411 0.114513
v 0.118825 0.205580 0.052699
v 0.079934 -0.223483 0.131634
v 0.069569 -0.213519 0.135152
v -0.139045 -0.309986 -0.024280
v -0.088855 -0.049414 -0.105205
v -0.103889 -0.058165 -0.097519
v -0.042085 0.419708 -0.022969
v -0.064914 0.351548 -0.005228
v -0.097094 0.358425 -0.031257
v 0.106437 0.256595 0.102777
v -0.021641 -0.168440 -0.126041
v -0.104566 -0.290931 -0.100775
v 0.094605 -0.043514 0.118396
v 0.060465 -0.056628 0.126617
v 0.057406 -0.055466 0.126822
v -0.112001 0.237176 -0.025719
v -0.079286 0.251953 0.003313
v -0.083521 0.242508 0.001401
v 0.088814 0.086328 0.115954
v -0.114010 -0.197615 0.069978
v -0.117722 -0.205278 0.066527
v -0.124984 0.334199 -0.053642
v -0.020196 -0.165122 -0.125651
v -0.145578 0.450250 -0.077803
v 0.122982 -0.361559 0.086371
v -0.118148 -0.010655 0.024609
v -0.120318 -0.053425 0.026559
v -0.049807 0.299490 -0.052666
v -0.068187 0.270398 -0.065874
v -0.037944 0.293674 -0.048438
v -0.027705 0.432687 -0.010416
v -0.065786 -0.164185 -0.119923
v -0.125621 0.187923 -0.033967
v -0.124263 0.194789 -0.032960
v -0.127483 0.195251 -0.037820
v -0.055983 0.142698 -0.085906
v -0.051181 0.182422 -0.076325
v -0.137086 -0.122735 -0.040364
v -0.108179 -0.182651 -0.093313
v -0.088653 -0.453552 -0.016646
v -0.012856 -0.418018 0.156189
v -0.126954 -0.121945 0.027004
v -0.117674 -0.112447 0.042630
v -0.027947 -0.027976 -0.108232
v -0.028366 -0.052792 -0.111238
v 0.106045 -0.361676 0.109341
v 0.121193 0.135527 0.037321
v 0.124309 0.153624 0.048437
v 0.063888 -0.085824 0.127957
v 0.045204 -0.313757 -0.138769
v -0.079056 0.395214 -0.048870
v -0.035995 -0.202022 0.133276
v 0.107429 -0.202480 -0.065226
v 0.115094 -0.211057 -0.056612
v 0.106654 0.338395 0.095435
v 0.098175 0.322006 0.094146
v 0.081692 0.324207 0.087416
v -0.016744 -0.058534 0.113571
v -0.031383 0.442359 -0.001009
v -0.009154 -0.165362 -0.124100
v -0.015911 -0.159480 -0.123987
v -0.043910 0.079828 -0.096634
v -0.044018 0.079675 -0.096698
v -0.044202 0.079836 -0.096707
v 0.083508 -0.290826 -0.113260
v 0.078811 0.267789 0.093658
v 0.083920 0.296041 0.092100
v 0.072082 0.149371 -0.013399
v 0.023111 -0.161266 -0.116378
v -0.066658 0.354108 -0.007038
v -0.138671 -0.219938 -0.032111
v 0.112990 -0.454956 0.016996
v 0.041356 0.236405 0.083581
v 0.042506 0.269951 0.077875
v 0.033277 0.255718 0.075927
v -0.012410 -0.133101 -0.119663
v 0.011882 -0.130455 -0.114300
v -0.117172 0.190806 -0.023457
v -0.101856 0.168076 0.000841
v -0.099148 0.228703 -0.081024
v -0.090079 0.198922 -0.083307
v -0.063820 0.224999 -0.072171
v -0.074781 0.256918 -0.070702
v 0.072220 0.148570 -0.013474
v -0.060711 -0.454290 0.018386
v 0.138863 -0.128197 0.058417
v -0.029352 0.321467 -0.037703
v -0.117399 0.424846 -0.063725
v -0.114991 0.426200 -0.062260
v 0.064630 0.252569 0.090527
v 0.084191 0.101770 -0.016591
v -0.070760 0.118635 0.042454
v 0.119910 -0.223414 -0.052304
v -0.136886 -0.145814 -0.042750
v 0.025130 -0.033665 0.122637
v 0.064328 0.403963 0.066543
v 0.055511 -0.053976 0.126773
v 0.026953 0.183052 0.086969
v -0.127206 0.282080 -0.050436
v -0.103278 -0.088747 0.057701
v -0.095824 -0.102920 0.069874
v -0.112481 -0.129446 0.053789
v -0.049514 -0.227137 -0.131530
v -0.122222 -0.015509 0.015343
v -0.026169 0.440720 -0.007109
v 0.113553 0.310713 0.064751
v -0.001666 0.103900 0.089509
v 0.010577 0.136670 0.088675
v -0.137564 -0.086882 -0.034289
v 0.020634 0.000337 -0.084379
v 0.028864 0.387780 0.048140
v 0.064686 0.374697 0.071528
v 0.133018 -0.233208 -0.028799
v 0.116615 -0.229777 -0.059779
v 0.139102 0.008669 0.048357
v 0.138408 -0.041160 0.040787
v 0.115002 0.223436 0.103914
v -0.120156 0.267887 -0.080482
v 0.136773 0.110531 0.075708
v -0.118629 -0.087829 0.035650
v -0.132467 -0.104184 0.008375
v 0.110324 -0.115000 -0.039079
v 0.102738 -0.125678 -0.051470
v 0.098353 -0.093450 -0.049089
v 0.090085 -0.110677 -0.061635
v -0.045773 -0.043426 -0.111879
v -0.074762 0.444138 -0.028327
v 0.019043 0.287334 0.062409
v 0.011442 0.266671 0.062142
v 0.068909 -0.105310 0.128571
v 0.095663 -0.055257 -0.042963
v 0.096034 -0.065730 -0.045506
v 0.088851 -0.051483 -0.049098
v -0.101933 0.103660 -0.095222
v 0.027945 0.307470 0.063408
v 0.060049 0.295184 0.081969
v 0.134429 -0.052888 0.027002
v -0.136848 -0.229990 0.025884
v -0.101285 0.151594 -0.089984
v -0.102359 0.149509 -0.090320
v -0.103402 0.151718 -0.090030
v 0.063805 -0.109704 -0.084302
v 0.039208 -0.457414 0.098129
v -0.082742 -0.264547 -0.120451
v 0.059504 -0.071105 -0.077944
v 0.027594 -0.110043 -0.104572
v 0.007345 0.306295 0.051766
v -0.014769 0.329408 0.032928
v -0.135116 0.008470 -0.012881
v -0.031984 0.439875 -0.011144
v 0.003184 -0.027821 -0.098863
v -0.015667 -0.103620 0.121929
v -0.006693 -0.137542 0.130604
v 0.117285 0.409353 0.084308
v 0.089171 -0.060908 -0.050667
v 0.110778 -0.360801 -0.076572
v -0.059464 -0.454979 0.044264
v 0.056662 -0.057301 0.126988
v -0.089669 0.438478 -0.037965
v -0.071017 -0.238941 -0.125380
v -0.074826 -0.237080 -0.123066
v -0.070190 -0.235647 -0.125524
v -0.063631 -0.233855 -0.128257
v -0.086870 0.191860 -0.083875
v 0.106855 0.165840 0.108334
v 0.137104 -0.408030 -0.063496
v 0.028160 0.387424 0.047770
v 0.105270 -0.455441 0.012358
v 0.042569 0.351564 0.063388
v 0.024051 0.138917 0.093613
v -0.064587 0.421596 -0.017189
v -0.075903 0.433443 -0.039988
v 0.132752 0.167451 0.068815
v -0.096834 -0.137161 0.077110
v 0.061195 0.151716 0.104692
v 0.070275 0.180104 0.102482
v 0.051210 0.169382 0.098788
v -0.126176 -0.314382 0.064336
v 0.018221 0.015642 -0.082892
v 0.023995 -0.295480 -0.146177
v -0.121825 0.360059 -0.072737
v -0.121156 0.376091 -0.070956
v -0.130247 -0.131814 0.020746
v -0.060244 0.287961 0.010728
v -0.016173 0.257545 -0.045115
v -0.026337 0.281467 -0.045296
v 0.025155 -0.377087 -0.152691
v 0.036891 -0.398817 -0.148726
v -0.095906 -0.215471 -0.107782
v 0.013011 -0.001629 0.114978
v 0.093986 0.176467 0.106921
v 0.096445 0.166232 0.108059
v -0.115127 0.216736 -0.082830
v 0.117469 0.206004 0.050848
v 0.108701 -0.030810 -0.022702
v 0.128121 0.003713 0.011623
v 0.138468 -0.044598 0.040003
v 0.099808 -0.410663 0.118032
v -0.119136 0.420879 -0.065128
v -0.049775 -0.456345 -0.094431
v 0.111600 0.396244 0.091664
v 0.043408 -0.218749 -0.120489
v 0.008445 -0.024742 -0.096158
v -0.118918 0.424418 -0.064622
v 0.086655 -0.000130 -0.040163
v -0.077352 0.432537 -0.041188
v 0.087089 -0.453207 -0.045895
v 0.131221 0.277599 0.083211
v 0.129655 0.290956 0.081499
v 0.111951 0.248964 0.051701
v 0.116978 0.207803 0.050576
v 0.093369 0.218480 0.024654
v 0.104611 0.168711 0.108212
v -0.087181 -0.212763 0.103740
v 0.059160 0.313918 0.078516
v 0.080459 -0.227914 0.131694
v 0.075998 -0.226003 0.133907
v 0.140698 -0.219688 0.001065
v -0.136950 -0.229881 0.025394
v 0.084191 0.377066 0.081221
v -0.074160 -0.456682 0.054767
v -0.005827 0.146187 -0.065583
v 0.093112 0.199693 0.019784
v -0.112200 -0.073624 0.042683
v -0.093175 0.443138 -0.047563
v -0.045364 -0.016864 -0.110072
v -0.021525 -0.161522 -0.125144
v 0.024822 -0.376151 -0.152852
v 0.127262 -0.386955 -0.083231
v 0.108101 0.258624 0.102965
v 0.100368 0.303645 0.096863
v -0.068584 -0.239507 -0.126757
v 0.048031 0.309451 0.007809
v -0.040784 0.262485 -0.056025
v -0.048817 0.242096 -0.063936
v 0.114430 0.253735 0.055513
v 0.114251 0.256345 0.055703
v 0.115862 0.258603 0.058020
v 0.084390 -0.015670 -0.045356
v 0.009218 -0.389832 -0.154802
v 0.000953 -0.389157 -0.154906
v 0.068461 -0.104797 0.128650
v 0.041239 0.347764 0.063307
v 0.101336 0.116027 0.112029
v 0.102684 0.123632 0.111238
v 0.022623 -0.390185 -0.153119
v 0.104948 0.113666 0.111379
v 0.044080 -0.290161 -0.137394
v 0.052214 -0.282904 -0.131725
v -0.092327 -0.205253 -0.109958
v -0.114648 0.140386 -0.006787
v -0.020944 0.292549 -0.039842
v -0.056832 -0.087072 -0.114992
v -0.043764 0.079655 -0.096616
v -0.044193 0.079657 -0.096746
v -0.120612 0.315428 -0.076877
v -0.008867 -0.054128 0.115913
v -0.137341 -0.165388 -0.038762
v 0.011292 -0.127305 0.132148
v 0.028754 -0.402865 -0.151008
v -0.014399 -0.084747 -0.112945
v -0.014156 -0.058514 -0.109115
v 0.099393 -0.346467 -0.079359
v -0.138424 -0.229638 -0.033568
v -0.135922 -0.223564 -0.040273
v 0.110787 -0.086467 -0.031128
v -0.107171 0.236288 -0.081544
v -0.121654 0.184427 -0.027696
v -0.115989 0.145908 -0.010236
v 0.133233 0.228163 0.081905
v -0.124694 -0.076674 0.021983
v 0.137142 0.171648 0.089551
v -0.063019 -0.287936 -0.134166
v 0.099945 -0.030601 0.116253
v -0.048335 -0.079109 -0.115361
v -0.028064 -0.415914 0.153136
v 0.119522 0.323808 0.100434
v 0.119768 0.292743 0.102277
v -0.081855 0.267245 -0.071346
v -0.048524 -0.455410 -0.075305
v -0.103075 0.148285 -0.090447
v 0.057400 -0.058172 0.126979
v 0.094821 -0.361010 -0.073449
v -0.064084 0.350063 -0.004388
v 0.139195 -0.224745 0.058476
v 0.107884 0.121330 0.110110
v 0.020141 0.152584 0.089932
v -0.104991 0.150079 -0.089463
v 0.052940 0.274798 0.002583
v 0.070003 0.194717 -0.002972
v 0.087483 -0.340038 -0.081117
v 0.082614 -0.318353 0.131779
v 0.039319 -0.169430 -0.111870
v 0.138114 -0.410019 -0.060639
v 0.122918 -0.085812 -0.011791
v 0.071872 0.149615 -0.013493
v 0.132836 0.240791 0.082507
v -0.023801 0.247617 -0.051198
v -0.138259 -0.156271 -0.017951
v -0.136275 0.125546 -0.049092
v -0.117185 0.187756 -0.084778
v -0.088756 -0.417598 -0.115906
v -0.059922 0.250796 0.018954
v 0.010949 0.123446 0.091317
v 0.078302 0.224170 0.011510
v -0.025061 0.435297 0.004568
v -0.128529 0.279476 -0.051712
v -0.024698 0.343535 -0.029886
v 0.118909 -0.049742 -0.011528
v 0.124143 -0.069125 -0.006155
v 0.044942 0.366729 0.020326
v 0.138540 -0.045824 0.041229
v 0.086308 0.179754 0.008061
v 0.133025 -0.376063 -0.072560
v -0.092197 -0.456896 0.069478
v 0.145848 -0.410213 0.038335
v 0.145871 -0.424215 0.037420
v 0.148546 -0.415269 0.023445
v 0.114663 -0.067358 -0.019940
v -0.084454 -0.301198 -0.120611
v -0.092782 -0.285468 -0.112983
v -0.005016 0.102112 0.088063
v 0.026204 -0.064613 -0.095879
v 0.012624 -0.315242 -0.151632
v 0.138557 -0.408676 -0.059972
f 2 3 4
f 5 6 7
f 10 11 12
f 13 14 15
f 16 17 18
f 21 22 23
f 22 24 23
f 28 29 30
f 31 33 32
f 35 36 37
f 38 39 40
f 43 44 41
f 45 46 47
f 42 33 48
f 43 49 44
f 32 50 31
f 51 52 53
f 54 55 56
f 59 61 60
f 9 62 63
f 19 65 66
f 67 68 69
f 70 71 35
f 72 73 74
f 75 76 77
f 78 79 80
f 81 82 83
f 90 19 66
f 48 33 31
f 40 65 38
f 91 92 93
f 96 97 98
f 99 100 101
f 100 102 101
f 105 106 107
f 109 110 85
f 111 112 113
f 117 118 119
f 120 121 122
f 125 126 127
f 130 114 131
f 33 44 32
f 114 115 131
f 127 126 9
f 133 134 135
f 136 137 130
f 139 140 141
f 144 145 146
f 147 83 148
f 149 150 151
f 154 155 96
f 158 159 160
f 38 65 81
f 161 136 130
f 162 79 53
f 123 163 164
f 166 167 168
f 169 170 171
f 75 77 172
f 173 174 175
f 174 176 175
f 122 121 177
f 178 179 180
f 181 182 183
f 182 184 183
f 185 186 187
f 188 189 25
f 191 192 193
f 196 197 198
f 31 179 178
f 199 162 53
f 200 201 121
f 202 203 160
f 204 206 205
f 173 207 208
f 157 129 211
f 212 213 214
f 9 216 1
f 103 217 218
f 219 220 221
f 220 222 221
f 196 223 224
f 225 226 227
f 36 228 37
f 229 181 230
f 72 231 232
f 9 63 127
f 234 235 233
f 236 237 25
f 127 63 125
f 238 239 240
f 242 31 243
f 244 120 122
f 245 246 247
f 4 248 249
f 250 251 252
f 141 253 254
f 44 33 42
f 256 257 258
f 259 261 260
f 263 264 265
f 170 266 26
f 245 247 267
f 268 269 13
f 270 257 256
f 120 271 272
f 161 130 131
f 273 274 275
f 276 43 277
f 87 278 172
f 279 281 280
f 49 282 283
f 282 284 283
f 41 44 42
f 177 285 286
f 79 289 53
f 290 291 292
f 293 131 294
f 295 296 68
f 297 298 299
f 86 300 224
f 212 301 213
f 185 302 186
f 303 125 304
f 305 57 58
f 307 308 306
f 309 310 311
f 313 314 261
f 315 316 317
f 319 288 320
f 1 62 9
f 166 134 133
f 277 117 203
f 269 322 323
f 324 317 316
f 249 325 326
f 305 327 241
f 328 329 230
f 252 332 333
f 334 335 148
f 306 308 248
f 262 336 337
f 340 341 342
f 306 341 343
f 2 345 346
f 92 347 93
f 348 349 350
f 351 352 353
f 354 355 87
f 356 357 358
f 357 359 358
f 30 360 28
f 361 97 362
f 319 101 291
f 101 364 291
f 190 297 365
f 366 10 367
f 10 12 367
f 368 369 370
f 369 371 370
f 373 374 116
f 375 255 153
f 376 63 62
f 165 375 377
f 215 378 158
f 236 266 262
f 279 370 379
f 63 376 304
f 376 380 304
f 381 382 365
f 383 384 227
f 286 385 386
f 387 253 141
f 388 389 390
f 391 392 84
f 156 187 31
f 226 115 114
f 168 167 393
f 187 179 31
f 395 396 397
f 398 399 397
f 174 400 176
f 58 401 402
f 128 211 129
f 262 403 404
f 316 363 324
f 126 216 9
f 290 292 406
f 407 408 358
f 408 409 358
f 248 411 249
f 412 413 414
f 415 416 417
f 419 420 421
f 115 422 131
f 199 423 29
f 342 341 306
f 203 117 215
f 424 340 342
f 313 261 259
f 427 342 248
f 428 429 204
f 430 431 432
f 211 433 372
f 434 316 194
f 435 436 437
f 436 438 437
f 256 258 25
f 217 104 232
f 231 440 232
f 441 241 327
f 442 443 444
f 443 445 444
f 446 447 448
f 449 393 167
f 69 396 450
f 396 395 450
f 317 324 113
f 113 315 317
f 452 453 454
f 455 456 457
f 459 451 168
f 461 462 460
f 356 358 409
f 381 365 299
f 365 297 299
f 463 464 465
f 451 410 466
f 189 188 27
f 256 25 189
f 95 467 94
f 468 138 469
f 470 340 471
f 340 424 471
f 391 142 472
f 473 107 339
f 474 373 475
f 262 266 195
f 180 179 476
f 476 179 187
f 477 309 311
f 375 318 66
f 478 479 480
f 194 321 434
f 481 482 474
f 415 417 483
f 305 58 137
f 34 291 290
f 448 112 446
f 25 171 26
f 484 138 468
f 430 485 486
f 485 487 486
f 477 488 472
f 489 322 269
f 490 491 492
f 493 494 330
f 202 160 495
f 13 269 497
f 269 323 497
f 246 498 247
f 498 499 247
f 500 216 126
f 11 492 132
f 132 12 11
f 405 501 312
f 442 502 503
f 203 202 277
f 504 505 506
f 125 63 304
f 236 25 266
f 188 25 237
f 398 507 399
f 399 507 508
f 151 275 175
f 275 274 175
f 120 509 271
f 52 423 53
f 510 511 512
f 187 186 513
f 514 515 89
f 453 518 519
f 520 521 432
f 169 171 257
f 320 522 319
f 439 286 523
f 103 526 527
f 40 523 255
f 528 529 481
f 530 219 531
f 181 328 230
f 259 260 144
f 533 534 535
f 537 333 536
f 538 261 539
f 261 314 539
f 99 101 522
f 305 241 57
f 137 136 305
f 327 305 136
f 70 435 437
f 540 541 542
f 407 543 408
f 175 176 149
f 544 545 546
f 545 547 546
f 549 550 548
f 20 552 551
f 553 554 463
f 555 556 557
f 558 559 560
f 559 561 560
f 392 562 191
f 563 501 405
f 564 565 566
f 99 568 100
f 569 570 140
f 571 544 546
f 141 572 139
f 573 105 574
f 496 478 575
f 576 577 290
f 579 417 580
f 417 416 580
f 114 130 226
f 581 582 295
f 583 87 584
f 585 324 363
f 586 587 102
f 276 49 43
f 274 588 207
f 469 314 313
f 330 494 589
f 590 591 592
f 514 233 344
f 514 344 515
f 152 120 272
f 593 34 290
f 594 347 595
f 347 596 595
f 597 295 582
f 418 110 109
f 439 385 286
f 213 378 215
f 255 201 153
f 153 201 200
f 598 86 110
f 168 599 134
f 567 600 464
f 270 256 601
f 602 35 37
f 128 433 211
f 449 24 150
f 26 171 170
f 603 604 605
f 606 607 608
f 149 151 175
f 562 391 192
f 476 106 573
f 476 513 338
f 476 187 513
f 377 375 153
f 520 123 164
f 520 432 123
f 609 330 589
f 364 587 586
f 35 610 70
f 469 611 468
f 128 129 555
f 165 377 612
f 201 255 523
f 158 613 215
f 589 614 609
f 564 615 616
f 617 194 572
f 548 618 619
f 307 306 64
f 620 621 622
f 623 343 340
f 343 341 340
f 173 175 207
f 387 141 140
f 88 624 625
f 169 391 170
f 170 391 84
f 626 627 628
f 629 630 631
f 632 633 634
f 635 636 17
f 636 18 17
f 398 408 543
f 637 488 599
f 638 639 640
f 641 642 228
f 638 406 292
f 638 640 406
f 85 110 86
f 643 644 645
f 585 400 174
f 646 647 51
f 375 165 318
f 322 648 649
f 425 650 426
f 651 454 652
f 653 654 655
f 168 134 166
f 105 573 106
f 338 106 476
f 475 634 656
f 142 657 257
f 43 658 118
f 659 660 46
f 418 303 110
f 125 303 418
f 346 345 661
f 662 62 1
f 271 662 1
f 663 559 664
f 665 666 352
f 666 16 352
f 364 292 291
f 258 257 171
f 391 657 142
f 445 667 444
f 667 668 444
f 669 670 671
f 670 672 671
f 638 586 639
f 586 673 639
f 674 578 612
f 138 675 469
f 164 676 520
f 290 491 576
f 406 640 491
f 677 678 639
f 678 640 639
f 534 533 679
f 316 448 194
f 448 316 315
f 462 680 681
f 480 479 524
f 87 682 584
f 130 137 336
f 683 684 685
f 108 478 496
f 509 662 271
f 638 292 586
f 292 364 586
f 446 682 147
f 531 221 686
f 117 119 687
f 119 679 687
f 496 689 688
f 169 257 391
f 257 657 391
f 143 257 270
f 268 690 269
f 505 691 506
f 691 561 506
f 262 404 336
f 435 692 436
f 142 257 143
f 693 224 440
f 651 452 454
f 398 397 408
f 363 400 585
f 677 132 492
f 677 492 678
f 428 205 694
f 205 695 694
f 22 151 24
f 151 150 24
f 408 397 696
f 397 396 696
f 697 698 597
f 275 151 22
f 275 22 699
f 700 55 54
f 701 699 702
f 699 703 702
f 697 705 698
f 705 706 698
f 605 360 603
f 360 30 603
f 353 707 59
f 665 650 666
f 322 489 648
f 489 708 648
f 709 710 711
f 689 496 321
f 496 688 712
f 602 610 35
f 713 375 66
f 255 375 713
f 713 65 40
f 713 40 255
f 713 66 65
f 377 152 612
f 377 153 152
f 239 165 612
f 276 277 202
f 299 298 714
f 715 576 491
f 716 593 577
f 446 112 682
f 717 214 213
f 101 587 364
f 659 673 100
f 673 102 100
f 102 587 101
f 586 102 673
f 597 582 697
f 718 597 698
f 597 718 295
f 603 719 604
f 539 314 720
f 502 721 722
f 188 723 331
f 307 64 724
f 473 610 602
f 603 725 719
f 726 229 727
f 229 608 727
f 412 728 413
f 729 236 337
f 142 309 477
f 476 724 180
f 730 731 283
f 560 561 732
f 300 217 232
f 733 734 735
f 734 736 735
f 112 111 682
f 319 522 101
f 705 737 706
f 327 136 549
f 738 739 740
f 459 393 741
f 140 742 384
f 743 628 325
f 628 627 325
f 325 627 744
f 627 626 744
f 326 325 744
f 348 655 654
f 504 135 505
f 497 133 504
f 133 135 504
f 663 15 559
f 745 561 15
f 561 559 15
f 745 15 504
f 324 585 174
f 409 408 696
f 682 111 584
f 747 748 532
f 234 233 601
f 558 664 559
f 665 426 650
f 701 702 275
f 702 273 275
f 123 431 124
f 123 432 431
f 380 164 304
f 315 112 448
f 749 750 751
f 752 753 3
f 621 261 538
f 334 552 20
f 402 463 554
f 754 244 122
f 312 501 458
f 452 592 453
f 549 548 441
f 500 126 548
f 140 139 569
f 92 468 347
f 468 596 347
f 472 192 391
f 193 192 472
f 604 719 605
f 755 579 756
f 579 757 756
f 463 402 567
f 372 758 211
f 254 758 372
f 755 661 483
f 417 579 483
f 579 755 483
f 575 434 321
f 759 760 761
f 762 763 764
f 765 766 68
f 478 480 575
f 767 682 354
f 186 302 692
f 302 643 692
f 339 106 338
f 57 567 401
f 768 769 770
f 326 771 209
f 43 118 277
f 549 136 772
f 136 161 772
f 429 428 773
f 774 589 494
f 392 557 556
f 724 573 307
f 573 724 476
f 733 735 716
f 549 441 327
f 776 66 318
f 66 776 90
f 777 154 774
f 463 567 464
f 778 779 780
f 781 697 782
f 783 206 204
f 360 605 784
f 382 284 785
f 301 378 213
f 717 213 80
f 786 675 138
f 344 787 515
f 629 405 630
f 788 789 790
f 789 791 790
f 736 792 735
f 130 793 226
f 369 794 312
f 51 591 795
f 593 290 577
f 588 647 208
f 647 646 208
f 61 796 60
f 796 247 60
f 449 150 797
f 150 798 797
f 14 13 497
f 152 799 120
f 799 121 120
f 200 799 153
f 200 121 799
f 153 799 152
f 308 800 801
f 11 10 802
f 571 803 544
f 803 804 544
f 650 805 666
f 806 521 676
f 521 520 676
f 807 244 759
f 808 368 809
f 368 810 809
f 809 206 808
f 362 811 812
f 811 813 812
f 814 726 458
f 815 592 816
f 525 575 480
f 113 112 315
f 545 817 547
f 521 806 818
f 557 820 555
f 678 491 640
f 248 308 801
f 306 343 64
f 248 342 306
f 534 821 822
f 807 120 244
f 470 471 822
f 32 731 50
f 399 45 397
f 45 823 397
f 395 823 824
f 823 825 824
f 492 11 826
f 496 575 321
f 626 419 827
f 828 829 830
f 644 788 831
f 788 832 831
f 249 833 4
f 470 822 821
f 771 834 209
f 742 334 148
f 294 776 835
f 293 835 238
f 318 835 776
f 238 165 239
f 238 835 165
f 165 835 318
f 242 64 48
f 782 697 545
f 697 582 545
f 588 208 207
f 424 342 427
f 139 572 836
f 139 836 569
f 307 800 308
f 837 519 838
f 839 683 840
f 683 685 840
f 21 23 773
f 773 23 166
f 23 167 166
f 429 773 166
f 191 479 841
f 34 288 287
f 34 593 288
f 842 686 843
f 695 206 844
f 206 809 844
f 113 5 111
f 407 358 846
f 646 795 847
f 514 848 849
f 792 850 851
f 850 852 851
f 28 853 29
f 853 162 29
f 316 434 363
f 363 575 525
f 481 474 854
f 855 818 856
f 572 689 617
f 551 65 19
f 256 189 601
f 857 858 859
f 254 689 141
f 689 572 141
f 861 666 862
f 666 805 862
f 460 863 71
f 485 864 624
f 865 781 782
f 692 645 436
f 416 415 866
f 783 808 206
f 783 204 54
f 390 389 320
f 75 172 816
f 278 815 172
f 815 816 172
f 436 831 438
f 831 681 438
f 59 60 426
f 103 104 217
f 867 195 157
f 682 355 354
f 118 117 277
f 868 869 870
f 566 565 871
f 565 872 871
f 855 864 485
f 745 504 561
f 504 506 561
f 14 504 15
f 310 309 143
f 299 873 874
f 89 848 514
f 609 875 876
f 309 142 143
f 118 658 821
f 877 875 878
f 466 191 193
f 217 845 218
f 262 195 403
f 879 71 863
f 293 161 131
f 849 848 560
f 848 739 560
f 90 880 422
f 225 227 384
f 133 497 881
f 285 201 286
f 687 679 80
f 45 882 46
f 352 16 18
f 357 883 884
f 630 56 631
f 885 869 868
f 886 35 71
f 785 284 887
f 284 282 887
f 646 51 795
f 174 6 113
f 116 475 373
f 263 265 887
f 849 560 888
f 560 732 888
f 345 833 889
f 715 656 633
f 656 634 633
f 784 605 890
f 891 577 576
f 810 892 719
f 719 892 605
f 742 552 334
f 10 780 802
f 780 528 802
f 655 893 635
f 817 894 547
f 894 98 547
f 706 737 775
f 895 838 896
f 838 897 896
f 164 455 898
f 205 206 695
f 623 340 658
f 340 899 658
f 658 899 821
f 470 821 340
f 821 899 340
f 41 658 43
f 172 77 87
f 490 900 481
f 99 901 568
f 902 903 264
f 297 190 655
f 2 4 345
f 4 833 345
f 904 4 427
f 107 106 339
f 642 905 228
f 807 509 120
f 430 432 521
f 906 769 907
f 71 879 886
f 140 570 742
f 452 816 592
f 572 447 836
f 270 908 310
f 81 65 552
f 65 551 552
f 514 909 233
f 55 700 910
f 700 911 910
f 666 885 16
f 665 352 912
f 735 792 320
f 320 389 522
f 14 497 504
f 320 792 390
f 913 69 450
f 98 97 546
f 97 361 546
f 892 810 370
f 810 368 370
f 886 36 35
f 914 621 747
f 621 538 747
f 782 545 804
f 410 479 191
f 683 839 107
f 895 915 838
f 514 888 909
f 514 849 888
f 233 888 270
f 233 909 888
f 281 159 280
f 852 734 768
f 71 70 437
f 626 827 771
f 827 668 771
f 754 866 209
f 381 299 382
f 299 874 382
f 2 346 3
f 346 916 3
f 917 918 919
f 918 920 919
f 699 21 694
f 21 773 694
f 921 763 105
f 763 574 105
f 524 410 741
f 787 344 95
f 922 482 529
f 17 16 868
f 16 885 868
f 923 924 869
f 694 925 699
f 926 927 928
f 185 187 929
f 929 187 156
f 156 302 929
f 185 929 302
f 930 923 931
f 923 869 931
f 828 873 829
f 873 299 714
f 842 539 686
f 539 720 686
f 786 720 675
f 741 393 797
f 393 449 797
f 269 690 489
f 690 932 489
f 454 579 652
f 579 933 652
f 796 267 247
f 199 53 423
f 83 147 682
f 934 935 936
f 59 351 353
f 676 443 442
f 503 806 442
f 806 676 442
f 625 937 88
f 938 758 253
f 629 563 405
f 940 927 919
f 692 643 645
f 780 779 528
f 238 240 578
f 94 104 860
f 307 573 800
f 573 574 800
f 800 574 763
f 908 888 732
f 793 517 226
f 793 404 517
f 383 140 384
f 645 831 436
f 330 830 493
f 233 467 344
f 629 631 622
f 625 941 937
f 777 830 811
f 830 829 811
f 186 692 859
f 767 354 81
f 942 943 536
f 612 152 272
f 48 944 42
f 419 626 628
f 862 852 931
f 78 80 679
f 20 551 19
f 11 802 826
f 802 945 826
f 854 490 481
f 196 198 704
f 684 946 685
f 423 52 947
f 52 948 947
f 319 291 949
f 949 291 34
f 288 949 34
f 814 458 501
f 530 531 686
f 314 675 720
f 530 686 786
f 686 720 786
f 558 560 738
f 560 739 738
f 294 880 776
f 880 90 776
f 746 570 569
f 886 138 36
f 138 886 786
f 879 863 219
f 530 886 219
f 886 879 219
f 530 786 886
f 940 950 927
f 331 951 27
f 952 422 115
f 810 719 953
f 13 15 268
f 15 663 268
f 567 402 401
f 781 922 954
f 817 545 581
f 545 582 581
f 525 480 524
f 923 536 924
f 370 890 892
f 890 605 892
f 675 314 469
f 955 956 957
f 898 958 676
f 841 479 108
f 387 227 253
f 67 913 589
f 876 789 959
f 777 811 154
f 811 155 154
f 811 362 155
f 362 97 155
f 335 742 746
f 25 258 171
f 183 184 960
f 553 463 961
f 721 444 668
f 832 681 831
f 116 962 634
f 963 211 517
f 70 857 435
f 348 350 655
f 625 624 872
f 624 864 872
f 942 923 930
f 365 382 265
f 382 785 265
f 801 800 411
f 800 764 411
f 937 920 88
f 937 616 940
f 943 964 116
f 193 451 466
f 758 254 253
f 79 162 853
f 965 903 606
f 537 536 943
f 302 935 643
f 914 622 621
f 373 474 966
f 474 482 966
f 519 756 757
f 528 967 529
f 968 61 59
f 518 591 969
f 555 820 841
f 938 253 227
f 54 708 700
f 970 971 972
f 971 636 972
f 439 39 76
f 76 39 973
f 973 39 38
f 279 280 158
f 521 818 855
f 905 974 228
f 100 568 660
f 659 100 660
f 330 670 830
f 468 611 596
f 454 453 757
f 453 519 757
f 453 592 518
f 592 591 518
f 56 145 631
f 385 933 386
f 427 4 3
f 351 912 352
f 447 194 448
f 523 40 39
f 523 39 439
f 201 523 286
f 975 123 124
f 635 893 636
f 295 977 976
f 589 774 154
f 742 570 746
f 742 335 334
f 519 978 756
f 811 829 714
f 829 873 714
f 894 96 98
f 699 22 21
f 365 265 190
f 938 517 758
f 121 201 285
f 908 270 888
f 908 732 310
f 979 332 252
f 980 981 47
f 197 983 982
f 90 422 952
f 300 440 224
f 762 764 800
f 173 7 174
f 7 6 174
f 287 288 34
f 319 949 288
f 209 667 984
f 934 788 643
f 788 644 643
f 985 301 212
f 212 214 985
f 279 985 370
f 985 214 370
f 214 890 370
f 986 636 971
f 352 18 353
f 18 986 353
f 986 18 636
f 181 183 328
f 183 987 328
f 987 970 328
f 631 145 622
f 49 276 282
f 609 988 330
f 609 876 988
f 563 622 501
f 532 914 747
f 843 221 796
f 221 989 796
f 430 486 431
f 350 349 812
f 858 473 339
f 796 61 968
f 796 968 843
f 93 926 990
f 926 928 990
f 595 991 992
f 991 911 992
f 462 750 460
f 512 418 109
f 726 727 379
f 712 108 496
f 254 712 688
f 993 372 433
f 462 461 680
f 461 460 71
f 428 694 773
f 852 850 734
f 994 883 357
f 164 456 455
f 550 549 995
f 996 735 320
f 248 801 411
f 526 997 515
f 124 431 486
f 998 642 641
f 426 912 351
f 225 384 115
f 265 785 887
f 999 883 994
f 166 881 429
f 56 146 145
f 531 219 221
f 111 5 583
f 788 959 789
f 867 157 211
f 81 552 82
f 337 236 262
f 177 121 285
f 53 896 969
f 721 827 722
f 1000 228 36
f 823 395 397
f 374 373 966
f 1001 779 778
f 357 884 778
f 884 1001 778
f 337 336 1002
f 667 834 771
f 579 580 933
f 694 695 925
f 958 898 455
f 298 655 350
f 8 104 210
f 1003 1004 425
f 1000 36 138
f 1005 1006 1007
f 960 1008 183
f 350 714 298
f 583 278 87
f 80 213 215
f 630 405 56
f 646 847 208
f 1009 795 590
f 547 98 546
f 721 502 444
f 444 502 442
f 759 761 807
f 742 82 552
f 148 82 742
f 83 82 148
f 770 1010 768
f 1010 852 768
f 1011 525 524
f 1011 1012 525
f 797 1012 1011
f 798 1012 797
f 798 176 1012
f 176 400 1012
f 150 149 798
f 149 176 798
f 459 168 393
f 459 741 451
f 1011 741 797
f 1012 363 525
f 363 1012 400
f 741 410 451
f 558 738 664
f 505 477 691
f 691 477 561
f 477 1013 561
f 311 1013 477
f 716 996 593
f 416 1014 580
f 1014 933 580
f 651 652 816
f 651 816 452
f 75 385 76
f 76 385 439
f 816 652 75
f 652 385 75
f 652 933 385
f 386 933 1014
f 72 74 231
f 733 716 734
f 716 1015 734
f 792 736 850
f 736 734 850
f 633 576 715
f 906 907 633
f 907 891 633
f 576 633 891
f 209 866 415
f 166 133 881
f 323 881 497
f 1016 952 384
f 437 1017 71
f 881 323 649
f 323 322 649
f 493 777 494
f 1007 1006 1018
f 460 750 413
f 1019 915 895
f 524 479 410
f 390 1004 388
f 522 389 388
f 329 328 606
f 1008 353 986
f 725 953 719
f 1020 884 775
f 767 83 682
f 927 950 928
f 941 625 565
f 813 350 812
f 811 714 813
f 714 350 813
f 229 230 608
f 7 208 5
f 208 847 5
f 553 961 554
f 848 740 739
f 738 740 88
f 89 740 848
f 88 740 89
f 226 517 227
f 938 227 517
f 517 211 758
f 921 105 840
f 105 1021 840
f 105 107 1021
f 1021 107 840
f 107 839 840
f 625 872 565
f 987 1008 986
f 71 1017 461
f 942 536 923
f 771 668 667
f 680 1017 437
f 855 485 521
f 485 430 521
f 818 806 503
f 818 503 1022
f 941 565 616
f 565 564 616
f 708 54 204
f 708 204 648
f 595 992 594
f 173 208 7
f 109 1023 511
f 987 986 970
f 986 971 970
f 465 1024 463
f 805 1025 862
f 1025 1026 862
f 1027 455 457
f 934 643 935
f 47 1028 710
f 824 1029 1030
f 190 893 655
f 388 1004 901
f 1031 1032 1033
f 762 800 763
f 99 522 901
f 522 388 901
f 425 1004 390
f 1004 1033 901
f 977 409 976
f 1034 990 928
f 1035 619 512
f 619 1036 512
f 260 261 621
f 239 612 240
f 925 695 1037
f 281 727 608
f 97 96 155
f 958 1027 957
f 462 751 750
f 53 969 51
f 86 845 300
f 64 242 243
f 508 507 543
f 407 508 543
f 359 780 358
f 38 81 354
f 957 445 958
f 445 443 958
f 790 832 788
f 751 790 749
f 790 791 749
f 1027 457 939
f 458 371 369
f 426 665 912
f 777 493 830
f 1010 770 930
f 770 1038 930
f 369 54 56
f 687 80 215
f 380 376 456
f 398 543 507
f 828 830 670
f 687 215 117
f 679 119 534
f 827 721 668
f 182 1039 1040
f 30 702 1037
f 702 703 1037
f 1041 511 983
f 511 982 983
f 344 467 95
f 481 900 945
f 434 575 363
f 501 1042 814
f 1042 1039 814
f 224 223 85
f 784 890 214
f 825 45 981
f 684 642 998
f 562 192 191
f 975 124 1043
f 716 735 996
f 896 897 969
f 518 969 519
f 969 897 519
f 202 495 276
f 495 887 276
f 1005 541 540
f 1022 566 871
f 563 629 622
f 590 592 278
f 592 815 278
f 77 354 87
f 931 869 861
f 869 885 861
f 263 887 495
f 366 367 407
f 367 508 407
f 529 482 481
f 802 528 945
f 856 872 855
f 872 864 855
f 142 477 472
f 103 1044 526
f 859 692 857
f 692 435 857
f 440 600 693
f 414 980 47
f 234 601 8
f 174 113 324
f 445 1045 667
f 382 1046 284
f 925 1037 699
f 245 1031 246
f 1031 498 246
f 712 254 372
f 58 1002 137
f 812 361 362
f 45 1047 981
f 515 997 89
f 997 487 89
f 124 997 526
f 124 486 997
f 623 944 343
f 931 852 1010
f 754 760 759
f 561 1013 732
f 1013 310 732
f 311 310 1013
f 628 764 1048
f 858 1049 473
f 857 1049 858
f 70 610 857
f 610 1049 857
f 1049 610 473
f 186 859 513
f 859 1050 513
f 1050 338 513
f 1050 339 338
f 1050 858 339
f 859 858 1050
f 222 989 221
f 837 752 978
f 752 916 978
f 1045 984 667
f 326 744 771
f 396 1051 696
f 461 1017 680
f 437 438 680
f 360 784 28
f 784 1052 28
f 1053 889 326
f 1054 702 947
f 1035 512 1055
f 512 1041 1055
f 707 353 1008
f 1040 184 182
f 535 895 289
f 984 760 754
f 1056 840 1057
f 356 409 977
f 3 916 752
f 27 951 1058
f 686 221 843
f 717 1052 214
f 1052 784 214
f 820 191 841
f 824 825 1029
f 825 981 1029
f 279 727 281
f 177 1059 122
f 122 1059 754
f 416 866 1014
f 286 1059 177
f 1060 866 754
f 1060 754 1059
f 286 386 1059
f 1059 386 866
f 386 1014 866
f 1061 919 927
f 684 998 946
f 697 781 705
f 698 706 718
f 751 462 832
f 462 681 832
f 609 614 1062
f 842 843 747
f 843 748 747
f 993 712 372
f 696 1051 409
f 1051 976 409
f 1063 873 828
f 1063 828 382
f 828 1064 382
f 1064 828 730
f 828 669 730
f 730 1046 1064
f 1064 1046 382
f 283 44 49
f 44 283 32
f 283 731 32
f 1065 426 60
f 753 424 3
f 424 427 3
f 471 424 753
f 471 753 822
f 753 1066 822
f 752 1066 753
f 875 877 876
f 877 789 876
f 1067 968 59
f 369 312 458
f 867 403 195
f 384 952 115
f 910 991 313
f 910 911 991
f 457 456 1068
f 369 1069 54
f 56 794 369
f 368 808 369
f 808 1069 369
f 794 56 405
f 794 405 312
f 371 458 379
f 371 379 370
f 54 1069 783
f 808 783 1069
f 45 825 823
f 158 280 159
f 997 486 487
f 796 989 267
f 999 819 883
f 379 458 726
f 505 488 477
f 399 508 45
f 508 882 45
f 993 555 841
f 571 546 250
f 546 251 250
f 955 1027 939
f 42 944 41
f 928 950 940
f 749 413 750
f 930 931 1010
f 294 835 293
f 410 191 466
f 768 734 769
f 734 907 769
f 90 952 1016
f 1037 695 844
f 218 1044 103
f 648 429 649
f 711 542 709
f 542 541 709
f 1056 566 1070
f 566 420 1070
f 746 1071 148
f 446 147 148
f 492 900 490
f 529 1001 1020
f 995 549 772
f 680 438 681
f 644 831 645
f 527 860 104
f 1022 856 818
f 53 289 896
f 85 223 109
f 781 865 966
f 865 374 966
f 481 945 528
f 780 359 778
f 359 357 778
f 296 976 1051
f 1051 69 68
f 1048 764 1070
f 764 763 1070
f 1072 1026 1073
f 963 517 404
f 346 978 916
f 755 756 661
f 395 1074 450
f 529 954 922
f 674 612 271
f 775 884 883
f 846 358 780
f 846 780 10
f 293 1075 772
f 300 845 217
f 17 868 653
f 1009 278 583
f 529 967 1001
f 1076 302 156
f 792 851 1072
f 851 1026 1072
f 259 910 313
f 1077 844 809
f 699 701 275
f 1078 1058 951
f 1039 726 814
f 158 160 613
f 746 148 335
f 295 976 296
f 58 57 401
f 196 224 197
f 403 963 404
f 867 211 963
f 922 966 482
f 633 632 906
f 209 834 667
f 250 1079 571
f 250 943 1079
f 361 812 979
f 252 251 979
f 361 979 546
f 979 251 546
f 767 81 83
f 709 541 412
f 1080 193 472
f 1080 637 451
f 748 843 968
f 59 960 532
f 184 1081 532
f 1040 1081 184
f 1005 1007 541
f 1007 412 541
f 87 355 682
f 116 634 475
f 238 995 1075
f 241 983 57
f 302 1076 935
f 568 901 542
f 901 1033 542
f 56 55 146
f 330 672 670
f 669 828 670
f 1048 1070 420
f 568 711 660
f 711 710 660
f 354 973 38
f 606 328 1082
f 328 972 1082
f 473 642 683
f 602 37 228
f 684 683 642
f 1061 917 919
f 775 883 819
f 884 1020 1001
f 250 537 943
f 252 537 250
f 1073 1026 1025
f 274 273 588
f 273 948 588
f 974 473 602
f 602 228 974
f 985 279 301
f 821 534 118
f 534 119 118
f 743 249 411
f 743 325 249
f 628 411 764
f 628 743 411
f 529 775 737
f 331 723 951
f 488 1080 472
f 505 135 488
f 135 599 488
f 313 611 469
f 394 936 1083
f 1084 414 47
f 47 710 1084
f 414 709 412
f 1084 710 709
f 414 1084 709
f 898 676 164
f 941 616 937
f 59 426 351
f 1041 983 1055
f 628 1048 419
f 1048 420 419
f 465 464 951
f 951 723 465
f 1056 1070 840
f 455 1027 958
f 947 948 1054
f 111 583 584
f 300 232 440
f 245 267 1006
f 51 969 591
f 897 838 519
f 921 840 1070
f 921 1070 763
f 47 1047 45
f 993 433 555
f 626 771 744
f 242 48 31
f 1001 967 528
f 779 1001 528
f 761 760 939
f 609 1062 875
f 1062 614 1074
f 614 450 1074
f 878 1074 824
f 395 824 1074
f 1074 878 1062
f 878 875 1062
f 730 283 284
f 1046 730 284
f 1085 413 728
f 922 781 966
f 765 894 766
f 894 817 766
f 68 766 295
f 817 581 766
f 766 581 295
f 1086 73 232
f 108 1087 478
f 29 947 30
f 947 702 30
f 1054 948 273
f 995 772 1075
f 861 885 666
f 487 485 1088
f 328 970 972
f 676 958 443
f 197 1023 198
f 536 333 654
f 191 557 392
f 108 712 993
f 78 289 79
f 535 679 533
f 535 289 679
f 289 78 679
f 421 1022 722
f 1022 503 722
f 488 637 1080
f 1089 729 337
f 554 1089 337
f 554 961 1089
f 856 1022 872
f 1022 871 872
f 1009 590 278
f 749 791 413
f 603 844 725
f 663 664 1090
f 1002 336 137
f 288 996 320
f 288 593 996
f 913 450 614
f 822 1066 1019
f 1066 915 1019
f 23 24 449
f 276 887 282
f 934 936 788
f 936 959 788
f 209 984 754
f 754 759 244
f 1080 451 193
f 637 599 168
f 94 860 95
f 534 822 1019
f 913 614 589
f 210 467 8
f 846 10 366
f 1091 863 460
f 301 158 378
f 90 1016 19
f 865 782 803
f 782 804 803
f 1045 445 984
f 445 957 984
f 957 956 984
f 984 956 760
f 955 957 1027
f 671 672 394
f 394 672 330
f 1092 425 426
f 844 603 1037
f 603 30 1037
f 380 456 164
f 975 163 123
f 1006 989 1018
f 989 222 1018
f 598 975 845
f 532 960 184
f 1039 182 726
f 182 229 726
f 267 989 1006
f 637 168 451
f 135 134 599
f 143 270 310
f 403 867 963
f 1008 960 707
f 190 265 264
f 1093 791 1029
f 791 1030 1029
f 907 734 1015
f 379 727 279
f 329 608 230
f 329 606 608
f 992 489 932
f 917 1090 664
f 690 268 1090
f 268 663 1090
f 826 945 900
f 826 900 492
f 948 52 588
f 623 658 944
f 590 795 591
f 454 757 579
f 346 661 978
f 661 756 978
f 978 519 837
f 596 611 991
f 993 841 108
f 144 910 259
f 67 589 68
f 774 494 777
f 226 225 115
f 1053 1094 889
f 345 889 661
f 889 1094 661
f 1053 326 209
f 503 502 722
f 457 1068 939
f 394 1095 671
f 931 861 862
f 878 824 1030
f 1020 775 529
f 191 820 557
f 936 1096 959
f 876 959 988
f 959 1096 988
f 1096 330 988
f 394 1096 936
f 1096 394 330
f 1009 583 795
f 148 1071 446
f 1071 447 446
f 836 447 1071
f 569 1071 746
f 569 836 1071
f 742 1016 384
f 578 674 1097
f 1031 1033 498
f 566 421 420
f 421 722 419
f 722 827 419
f 566 1022 421
f 620 145 144
f 562 392 391
f 1024 465 723
f 396 69 1051
f 159 281 607
f 281 608 607
f 601 233 270
f 601 27 8
f 27 601 189
f 1008 987 183
f 654 1098 348
f 606 903 1099
f 264 903 190
f 190 903 1082
f 1082 893 190
f 972 893 1082
f 893 972 636
f 660 710 1028
f 23 449 167
f 512 511 1041
f 1055 983 241
f 441 1055 241
f 895 535 1019
f 535 534 1019
f 837 838 752
f 838 915 752
f 1066 752 915
f 289 895 896
f 1003 1092 498
f 500 995 516
f 293 772 161
f 238 1075 293
f 349 348 1098
f 1005 1031 1006
f 1031 245 1006
f 1003 425 1092
f 1003 498 1004
f 498 1033 1004
f 1005 540 1031
f 540 542 1031
f 1033 1032 542
f 542 1032 1031
f 297 655 298
f 357 356 994
f 356 977 994
f 994 977 718
f 290 406 491
f 159 1099 902
f 1099 903 902
f 88 920 918
f 412 1100 728
f 1100 1085 728
f 647 52 51
f 647 588 52
f 851 852 1026
f 718 977 295
f 68 296 1051
f 447 572 194
f 210 104 94
f 1077 809 953
f 965 606 1082
f 271 612 272
f 917 664 918
f 918 738 88
f 664 738 918
f 878 1030 877
f 1030 791 877
f 475 1101 474
f 418 619 125
f 1060 1059 866
f 951 464 1078
f 700 992 911
f 91 990 1000
f 990 1034 1000
f 1056 1057 564
f 1057 615 564
f 617 321 194
f 321 617 689
f 854 474 1101
f 632 634 962
f 891 1015 577
f 1015 716 577
f 891 907 1015
f 473 974 642
f 803 374 865
f 544 804 545
f 803 571 1079
f 407 846 366
f 999 994 718
f 159 902 264
f 607 606 159
f 606 1099 159
f 537 252 333
f 905 642 974
f 331 27 188
f 632 962 906
f 1038 770 964
f 1038 964 943
f 962 116 964
f 770 769 964
f 964 769 962
f 769 906 962
f 156 31 50
f 5 113 6
f 641 928 940
f 91 93 990
f 550 995 548
f 881 649 429
f 154 96 1102
f 1063 382 873
f 382 874 873
f 154 1102 589
f 648 204 429
f 852 862 1026
f 781 954 705
f 954 737 705
f 973 77 76
f 973 354 77
f 1035 1055 619
f 86 224 85
f 47 981 1047
f 1029 981 980
f 243 178 64
f 178 243 31
f 803 116 374
f 1103 508 367
f 803 1079 943
f 803 943 116
f 367 12 132
f 367 132 46
f 313 991 611
f 1104 932 1105
f 491 678 492
f 677 639 1106
f 620 144 621
f 1057 840 946
f 840 685 946
f 1057 946 615
f 659 1106 673
f 741 1011 524
f 67 69 913
f 789 877 791
f 751 832 790
f 568 542 711
f 635 17 653
f 26 266 25
f 103 527 104
f 947 29 423
f 765 96 894
f 765 1102 96
f 1102 765 68
f 589 1102 68
f 94 467 210
f 337 1002 554
f 404 793 336
f 554 58 402
f 708 489 1107
f 489 992 1107
f 700 708 1107
f 992 700 1107
f 659 46 1106
f 548 995 500
f 810 953 809
f 965 1082 903
f 578 240 612
f 1106 639 673
f 229 182 181
f 961 463 1024
f 235 467 233
f 235 234 8
f 737 954 529
f 205 428 204
f 595 596 991
f 655 635 653
f 653 868 654
f 904 427 248
f 220 219 863
f 1108 222 220
f 1108 220 1085
f 1106 46 132
f 1109 188 237
f 1109 723 188
f 961 1024 237
f 1024 1109 237
f 723 1109 1024
f 555 433 128
f 1065 60 247
f 1065 247 499
f 498 1092 499
f 1092 1065 499
f 426 1065 1092
f 1034 641 228
f 516 995 238
f 880 294 131
f 254 688 689
f 108 479 1087
f 478 1087 479
f 919 920 940
f 854 1101 490
f 490 1101 475
f 656 715 491
f 475 656 490
f 490 656 491
f 199 29 162
f 853 80 79
f 28 1052 853
f 1000 1034 228
f 1034 928 641
f 333 332 1098
f 332 349 1098
f 654 333 1098
f 812 349 979
f 349 332 979
f 654 924 536
f 197 224 693
f 196 704 223
f 158 301 279
f 1110 1016 742
f 1111 1112 1113
f 195 1112 157
f 516 238 578
f 1037 703 699
f 674 271 1
f 1097 1 216
f 1097 516 578
f 1097 674 1
f 1097 216 500
f 1097 500 516
f 999 718 819
f 842 747 539
f 538 539 747
f 914 532 622
f 748 968 1067
f 748 1067 59
f 748 59 532
f 669 671 730
f 1095 731 671
f 731 730 671
f 731 1095 50
f 156 50 1095
f 1095 394 156
f 1076 1083 935
f 935 1083 936
f 1083 156 394
f 156 1083 1076
f 1042 501 622
f 1042 1081 1039
f 1039 1081 1040
f 960 59 707
f 622 1081 1042
f 532 1081 622
f 304 163 303
f 1054 273 702
f 554 1002 58
f 510 512 109
f 263 495 160
f 263 160 264
f 390 1073 425
f 390 792 1072
f 1072 1073 390
f 650 1025 805
f 425 1073 1025
f 1025 650 425
f 80 853 717
f 717 853 1052
f 904 248 4
f 847 795 583
f 847 583 5
f 1086 232 104
f 464 600 74
f 231 600 440
f 72 232 73
f 73 464 74
f 73 1078 464
f 600 231 74
f 27 1086 8
f 1086 104 8
f 1086 1078 73
f 1058 1078 1086
f 336 793 130
f 93 1104 926
f 1104 1114 926
f 927 926 1114
f 1061 927 690
f 927 1114 690
f 690 1114 1104
f 1061 690 917
f 690 1090 917
f 1105 932 690
f 1104 594 932
f 594 992 932
f 1104 1105 690
f 594 1104 347
f 347 1104 93
f 677 1106 132
f 510 109 511
f 940 920 937
f 868 870 654
f 869 924 870
f 870 924 654
f 1038 942 930
f 943 942 1038
f 1028 46 660
f 1028 47 46
f 515 787 526
f 564 566 1056
f 725 844 953
f 1077 953 844
f 845 1043 218
f 218 1043 1044
f 1044 1043 124
f 526 1044 124
f 1016 1110 19
f 129 1112 555
f 1111 1113 84
f 1111 555 1112
f 209 415 1053
f 487 1088 89
f 89 1088 88
f 88 1088 624
f 485 624 1088
f 376 1068 456
f 939 1068 1115
f 62 1115 376
f 1115 1068 376
f 1116 807 761
f 761 939 1116
f 509 807 1115
f 807 1116 1115
f 1115 1116 939
f 662 509 1115
f 62 662 1115
f 157 1112 129
f 555 1111 556
f 556 1111 392
f 392 1111 84
f 84 1113 170
f 1113 266 170
f 1113 1112 195
f 195 266 1113
f 693 600 567
f 175 274 207
f 414 413 791
f 860 527 95
f 527 526 95
f 787 95 526
f 20 19 1110
f 334 20 1110
f 334 1110 742
f 1117 160 159
f 1117 159 264
f 1117 264 160
f 223 704 109
f 1103 882 508
f 1103 367 46
f 235 8 467
f 940 1118 641
f 1118 998 641
f 1118 615 998
f 615 946 998
f 616 615 1118
f 940 616 1118
f 944 658 41
f 64 343 48
f 48 343 944
f 198 1023 704
f 1023 982 511
f 160 203 613
f 215 613 203
f 718 706 819
f 819 706 775
f 55 910 146
f 146 910 144
f 724 64 180
f 1023 109 704
f 178 180 64
f 1103 46 882
f 619 618 125
f 618 126 125
f 512 1036 418
f 418 1036 619
f 441 619 1055
f 548 619 441
f 548 126 618
f 414 1093 980
f 980 1093 1029
f 693 983 197
f 57 983 567
f 567 983 693
f 197 982 1023
f 975 1043 845
f 304 164 163
f 303 163 110
f 163 1119 110
f 975 1119 163
f 598 110 975
f 110 1119 975
f 598 845 86
f 415 483 1053
f 483 1094 1053
f 1094 483 661
f 889 249 326
f 249 889 833
f 91 1000 92
f 1000 484 92
f 138 484 1000
f 484 468 92
f 107 473 683
f 145 620 622
f 131 422 880
f 1007 1018 412
f 1018 1100 412
f 1100 1018 1085
f 1085 460 413
f 1085 220 460
f 863 1091 220
f 460 220 1091
f 1085 1018 1108
f 1018 222 1108
f 729 1089 1120
f 961 1120 1089
f 236 729 1120
f 961 237 1120
f 236 1120 237
f 939 760 956
f 260 621 144
f 955 939 956
f 383 227 140
f 227 387 140
f 1058 1086 27
f 791 1093 414
