v 0.114809 0.000000 0.094221
v 0.099003 -0.037891 0.120635
v 0.094221 0.000000 0.114809
v -0.132998 0.091478 -0.162058
v -0.191348 0.099015 -0.157036
v -0.242780 -0.099015 0.048292
v -0.186766 -0.087569 0.069507
v -0.228694 -0.099015 0.094728
v 0.266598 0.000000 -0.218791
v -0.206688 -0.091643 -0.011982
v -0.203586 -0.091213 0.036175
v -0.123492 0.000000 0.082514
v -0.137217 0.000000 0.056837
v 0.094728 0.099015 -0.228694
v -0.236878 0.099015 -0.071856
v -0.301332 0.064662 -0.089558
v -0.294711 0.075339 -0.054515
v -0.082743 0.066587 -0.301943
v -0.021740 0.064366 -0.313689
v -0.055500 0.038534 -0.330383
v 0.218308 -0.099015 0.116688
v 0.169762 -0.084890 0.101221
v 0.172733 -0.085068 0.097820
v 0.137524 0.099015 -0.205820
v 0.070013 0.000000 0.130985
v -0.110350 -0.037891 0.110350
v -0.094221 0.000000 -0.114809
v -0.099003 0.037891 -0.120635
v 0.130985 0.000000 0.070013
v 0.150214 0.061383 0.283551
v 0.163989 0.053607 0.284323
v 0.156466 0.068146 0.273919
v -0.125528 -0.070014 0.125528
v -0.071823 -0.064250 0.155895
v -0.070851 -0.059247 0.152287
v -0.175035 0.099015 0.175035
v -0.071856 -0.099015 -0.236878
v 0.228694 0.099015 -0.094728
v 0.242780 0.099015 -0.048292
v 0.026727 -0.070772 0.177296
v 0.023638 -0.062054 0.169616
v 0.030197 -0.064848 0.169671
v -0.088128 -0.035783 -0.323865
v -0.100114 0.000000 -0.330033
v -0.067609 0.000000 -0.339893
v 0.180153 -0.075713 0.032060
v 0.246345 -0.099015 0.024263
v 0.236878 -0.099015 0.071856
v 0.147552 -0.041907 0.064547
v 0.142127 0.000000 0.043114
v 0.114999 0.081442 -0.270210
v 0.092025 0.077681 -0.282295
v 0.048292 0.099015 -0.242780
v -0.068796 0.057948 -0.150724
v -0.070013 0.000000 -0.130985
v -0.065603 0.058999 -0.152961
v -0.043114 0.000000 -0.142127
v -0.014558 0.000000 -0.147807
v -0.099003 -0.037891 -0.120635
v -0.072044 -0.084802 -0.278305
v -0.024263 -0.099015 -0.246345
v 0.110350 0.037891 -0.110350
v 0.147567 0.045952 -0.066787
v 0.125528 0.070014 -0.125528
v 0.191348 -0.099015 0.157036
v 0.067609 0.000000 0.339893
v 0.033805 0.000000 0.343222
v 0.132998 -0.091478 0.162058
v 0.112619 -0.070014 0.137227
v -0.339893 0.000000 -0.067609
v -0.315833 -0.055316 -0.056410
v -0.311910 -0.047821 -0.096691
v 0.243211 -0.062310 0.210920
v 0.181074 -0.091478 0.220639
v -0.205819 -0.099015 0.137524
v -0.148242 -0.091478 0.148242
v -0.175035 -0.099015 0.175035
v -0.339893 0.000000 0.067609
v -0.343222 0.000000 0.033805
v -0.157036 0.099015 -0.191348
v -0.008092 -0.085041 0.196862
v -0.018295 -0.081173 0.190975
v -0.147807 0.000000 -0.014558
v -0.049402 -0.070015 0.170867
v -0.067209 -0.060798 0.155160
v -0.065086 -0.056844 0.153012
v 0.123492 0.000000 -0.082514
v 0.105021 0.000000 -0.105021
v -0.304160 0.000000 0.162577
v -0.276375 0.062547 0.159876
v -0.274974 0.049712 0.177996
v -0.154615 0.060165 -0.067285
v -0.142127 0.000000 -0.043114
v -0.130985 0.000000 -0.070013
v 0.043114 0.000000 0.142127
v 0.014558 0.000000 0.147807
v -0.343222 0.000000 -0.033805
v 0.137524 -0.099015 -0.205820
v 0.146164 -0.065906 -0.278908
v 0.172049 -0.072796 -0.255555
v 0.266463 -0.064082 0.171219
v 0.099003 0.037891 0.120635
v 0.058803 0.040315 0.147472
v 0.063844 0.050324 0.149830
v -0.033805 0.000000 -0.343222
v 0.245049 0.000000 -0.245049
v 0.162577 0.000000 0.304160
v 0.132620 0.000000 0.320172
v -0.323540 0.041725 0.071263
v -0.330244 0.040617 0.031997
v 0.101248 -0.032585 -0.320527
v 0.086336 -0.068684 -0.296595
v 0.073868 -0.042575 -0.321315
v 0.083878 -0.068465 -0.297341
v -0.094728 -0.099015 0.228694
v -0.242780 0.099015 0.048292
v -0.247537 0.099015 -0.000000
v 0.218791 0.000000 -0.266598
v 0.239719 -0.037891 -0.239719
v 0.024263 -0.099015 0.246345
v 0.071856 -0.099015 0.236878
v 0.329740 -0.038509 -0.046432
v 0.333365 -0.035308 -0.029272
v 0.321049 -0.055536 -0.022875
v 0.320172 0.000000 0.132620
v 0.311719 -0.041397 0.116090
v 0.330033 0.000000 0.100114
v 0.246345 0.099015 0.024263
v 0.207249 0.090480 0.028118
v 0.236878 0.099015 0.071856
v -0.071856 0.099015 -0.236878
v -0.024263 0.099015 -0.246345
v -0.029894 0.091774 -0.268499
v -0.112619 -0.070014 -0.137227
v 0.218308 0.099015 0.116688
v 0.155996 0.084570 0.116484
v 0.191348 0.099015 0.157036
v 0.184879 0.079395 -0.014740
v 0.247537 0.099015 0.000000
v 0.151713 -0.055775 0.073181
v -0.028721 0.085760 0.198576
v 0.000000 0.099015 0.247537
v -0.017914 0.085675 0.198083
v 0.320172 0.000000 -0.132620
v 0.304160 0.000000 -0.162577
v 0.175882 0.082862 -0.080914
v 0.180698 0.076120 -0.025060
v -0.043312 0.069753 0.173566
v -0.054743 0.054807 0.156441
v -0.065564 0.062396 0.157279
v 0.304160 0.000000 0.162577
v 0.147255 -0.042737 0.065767
v -0.048292 0.099015 0.242780
v -0.132832 -0.059561 0.291364
v -0.135367 -0.053769 0.295215
v -0.135796 -0.062427 0.287198
v 0.201452 -0.070014 0.245470
v -0.292480 -0.079158 0.038007
v -0.247537 -0.099015 0.000000
v 0.309747 -0.064499 -0.048306
v 0.297084 -0.073844 -0.063616
v 0.303063 -0.066246 -0.073863
v 0.094728 -0.099015 -0.228694
v -0.163372 0.083798 -0.108322
v -0.056837 0.000000 0.137217
v -0.014558 0.000000 0.147807
v -0.320172 0.000000 0.132619
v 0.215068 0.037891 0.262062
v 0.192534 0.000000 0.288147
v 0.019856 -0.052342 0.323528
v 0.010750 -0.050915 0.325147
v 0.014026 -0.056179 0.320766
v -0.040889 0.080572 0.289099
v -0.087977 0.065943 0.301299
v -0.036408 0.067298 0.307292
v 0.009556 0.065500 -0.175430
v 0.014558 0.000000 -0.147807
v 0.036582 -0.090718 0.203808
v 0.171678 0.057564 0.276587
v 0.201452 0.070014 0.245470
v 0.204151 -0.087600 0.001941
v 0.000000 0.099015 -0.247537
v -0.009840 0.090417 -0.207752
v 0.018852 0.090209 -0.206558
v 0.068016 -0.048183 0.146935
v 0.077609 -0.069192 0.158548
v 0.085029 0.080656 0.282809
v 0.071856 0.099015 0.236878
v 0.024263 0.099015 0.246345
v -0.041103 0.083798 -0.284845
v -0.266233 -0.055207 0.187317
v -0.287433 -0.047301 0.159625
v -0.271121 -0.064425 0.163197
v 0.314672 -0.054974 -0.072293
v 0.330033 0.000000 -0.100114
v 0.339893 0.000000 -0.067609
v 0.067437 0.050521 0.319836
v 0.060868 0.051023 0.320223
v -0.159432 0.046339 -0.291132
v -0.113564 0.039258 -0.315132
v -0.132620 0.000000 -0.320172
v 0.242780 -0.099015 -0.048292
v 0.291728 -0.079526 -0.039610
v -0.137524 -0.099015 0.205819
v -0.147807 0.000000 0.014558
v -0.161941 0.045191 -0.290278
v -0.162577 0.000000 -0.304160
v -0.033805 0.000000 0.343222
v 0.000000 0.000000 0.346552
v -0.246345 0.099015 -0.024263
v 0.136783 -0.044631 -0.085351
v 0.110350 -0.037891 -0.110350
v 0.125528 -0.070014 -0.125528
v 0.025631 0.081836 -0.287210
v 0.006525 0.088481 -0.272626
v -0.158889 -0.080424 0.248807
v -0.134613 -0.070868 0.277645
v 0.162577 0.000000 -0.304160
v 0.167928 0.048681 -0.283434
v 0.192534 0.000000 -0.288147
v -0.203360 0.089327 -0.016615
v 0.176004 0.088000 -0.098406
v 0.166997 0.084514 0.101846
v -0.048292 -0.099015 0.242780
v 0.248940 0.066427 0.193865
v 0.181074 0.091478 0.220639
v -0.125528 0.070014 0.125528
v -0.110350 0.037891 0.110350
v 0.082514 0.000000 -0.123492
v -0.173910 0.068261 -0.032567
v -0.158564 0.044352 -0.027320
v -0.158132 0.065492 -0.069171
v -0.247244 -0.080752 0.167025
v -0.224542 -0.070014 0.224542
v 0.285522 0.031063 0.181422
v 0.288147 0.000000 0.192534
v -0.273639 -0.085139 0.079309
v -0.284751 -0.081679 0.060078
v 0.048292 -0.099015 -0.242780
v 0.001298 -0.074543 -0.300709
v 0.039024 -0.071445 -0.302149
v -0.019292 0.068392 -0.309095
v -0.330033 0.000000 0.100114
v -0.309000 -0.044589 0.113901
v -0.218308 0.099015 -0.116688
v -0.158232 0.070573 -0.078198
v 0.294540 0.055896 -0.133654
v -0.181074 0.091478 -0.220639
v 0.017930 -0.091558 0.209209
v 0.000000 -0.099015 0.247537
v -0.085948 0.038370 -0.323712
v 0.033805 0.000000 -0.343222
v -0.280470 -0.086907 -0.018723
v -0.284691 -0.085138 -0.014305
v -0.201828 0.091478 0.201828
v 0.175035 0.099015 -0.175035
v 0.205820 0.099015 -0.137524
v 0.201828 0.091478 -0.201828
v 0.147807 0.000000 -0.014558
v 0.137217 0.000000 -0.056837
v 0.058305 -0.080413 0.288952
v 0.113460 -0.077588 0.279713
v -0.105021 0.000000 0.105021
v -0.082514 0.000000 0.123492
v -0.094728 0.099015 0.228694
v -0.167945 -0.066232 -0.044161
v -0.144117 -0.053468 -0.079550
v -0.140418 -0.045748 0.075841
v 0.078479 0.078094 -0.168856
v 0.100114 0.000000 -0.330033
v 0.132620 0.000000 -0.320172
v -0.151295 -0.050359 0.059680
v -0.178390 -0.073480 0.250657
v -0.201828 -0.091478 0.201828
v 0.111097 0.051938 -0.305883
v 0.140230 0.054364 -0.292713
v 0.116688 -0.099015 0.218308
v 0.115735 -0.078489 0.277103
v 0.330406 0.042499 -0.020137
v 0.343222 0.000000 -0.033805
v 0.328519 0.042003 -0.044283
v -0.069480 -0.054342 0.149715
v -0.215068 0.037891 -0.262062
v -0.164723 0.046227 -0.288527
v -0.192534 0.000000 -0.288147
v -0.043352 0.048237 0.323383
v -0.067609 0.000000 0.339893
v -0.095748 0.064821 -0.301244
v 0.000000 -0.099015 -0.247537
v -0.010942 -0.078782 -0.293257
v 0.247537 -0.099015 0.000000
v 0.211480 -0.090725 -0.011986
v 0.201392 -0.087085 -0.018251
v 0.239719 0.037891 -0.239719
v 0.228694 -0.099015 -0.094728
v 0.292045 0.041515 0.159125
v 0.268297 0.053280 0.184366
v 0.016214 0.083359 0.289019
v -0.062856 0.048780 0.149069
v -0.112619 0.070014 -0.137227
v -0.324908 0.049710 -0.023393
v -0.346552 0.000000 -0.000000
v 0.040044 -0.066014 0.167898
v -0.205819 0.099015 0.137524
v -0.167993 -0.057777 -0.006161
v -0.165730 -0.052493 0.003099
v -0.168008 -0.058718 0.012509
v 0.078932 0.053401 -0.314954
v 0.067981 0.065549 -0.305659
v 0.090616 0.071902 -0.290184
v -0.208197 -0.092032 -0.021401
v -0.210373 -0.092595 -0.017445
v -0.246345 -0.099015 -0.024263
v 0.043225 -0.085364 0.282741
v -0.181074 -0.091478 -0.220639
v 0.283981 -0.072603 0.110982
v -0.218308 -0.099015 -0.116688
v 0.132998 0.091478 0.162058
v 0.296162 0.073163 -0.067944
v 0.286965 0.075635 -0.093273
v 0.266212 0.040717 0.202134
v 0.246943 0.050452 0.218927
v 0.267888 0.000000 0.219850
v 0.123135 0.035713 0.312620
v 0.149620 0.049629 0.293925
v 0.089033 0.076064 0.287446
v -0.012685 -0.035848 0.158241
v 0.302402 -0.072247 0.041167
v 0.287677 0.053115 -0.151711
v -0.236878 -0.099015 -0.071856
v 0.180263 0.058954 -0.267441
v 0.224542 0.070014 -0.224542
v -0.034910 0.086905 -0.198051
v -0.288147 0.000000 -0.192534
v -0.255600 -0.054214 -0.204101
v -0.286750 -0.035153 -0.174342
v -0.059925 -0.051651 -0.151986
v -0.324404 -0.044069 0.059935
v -0.328576 -0.045470 0.007184
v 0.288147 0.000000 -0.192534
v -0.014766 -0.076576 -0.297738
v 0.159227 -0.072818 -0.087567
v 0.178632 -0.088564 -0.098497
v 0.173253 -0.078338 -0.067684
v -0.116688 0.099015 -0.218308
v 0.343222 0.000000 0.033805
v 0.331584 0.038464 0.031681
v 0.339893 0.000000 0.067609
v 0.067609 0.000000 -0.339893
v 0.047912 -0.047228 -0.324527
v -0.174537 0.074709 -0.053202
v 0.194040 0.085419 0.039662
v 0.178041 0.080409 0.063284
v 0.081284 0.080377 0.283865
v 0.314454 0.048898 -0.089770
v 0.148242 0.091478 -0.148242
v -0.144040 -0.061519 -0.092786
v -0.135667 -0.051440 -0.091698
v -0.330033 0.000000 -0.100114
v 0.201828 -0.091478 -0.201828
v 0.224542 -0.070014 -0.224542
v -0.058601 0.081105 -0.186728
v -0.145326 0.054314 -0.291874
v -0.162070 0.048065 -0.288762
v -0.128404 -0.068013 0.284440
v 0.016113 -0.060984 0.316061
v 0.008225 -0.067889 0.309146
v 0.030167 -0.067815 0.308029
v -0.201452 0.070014 -0.245470
v 0.085712 -0.076626 -0.164615
v 0.148242 -0.091478 -0.148242
v 0.112619 0.070014 0.137227
v 0.170200 0.057545 0.011931
v 0.190864 0.081473 -0.000030
v -0.076968 -0.043098 -0.321286
v -0.148242 0.091478 0.148242
v -0.171716 0.083574 0.089446
v 0.057233 -0.073625 -0.172408
v 0.066269 0.052949 -0.317621
v 0.061389 0.047655 -0.322631
v 0.056119 0.056929 -0.315961
v 0.009477 0.035146 -0.335669
v 0.038930 0.046395 -0.326375
v -0.132620 0.000000 0.320172
v 0.223742 0.085127 0.183985
v -0.186646 -0.088006 -0.080180
v -0.201740 -0.090357 -0.036217
v -0.162577 0.000000 0.304160
v -0.183719 -0.049922 0.273310
v -0.147055 -0.056867 0.287468
v -0.073727 -0.068829 0.301070
v -0.215068 -0.037891 -0.262062
v 0.170704 -0.072280 -0.053111
v 0.197971 -0.084634 -0.010364
v 0.160515 -0.040259 -0.017034
v -0.266598 0.000000 0.218791
v -0.288147 0.000000 0.192534
v -0.005235 -0.069874 -0.175836
v 0.001139 -0.072615 -0.179720
v 0.000927 -0.069395 -0.175517
v 0.147807 0.000000 0.014558
v 0.159650 0.042413 0.025494
v -0.204384 -0.090831 -0.021042
v 0.040570 -0.060383 -0.314201
v -0.297904 -0.052244 0.131617
v -0.268043 -0.078715 0.132899
v -0.052656 -0.065383 -0.307438
v -0.072846 -0.084129 -0.279835
v -0.051177 0.045454 0.152597
v 0.060434 0.059487 0.158503
v 0.068566 0.082317 0.180412
v 0.287369 -0.036193 -0.175720
v 0.297533 0.048622 0.137320
v 0.318594 0.043331 0.086672
v 0.281592 0.077772 0.097465
v 0.299642 -0.069284 0.075286
v 0.298924 -0.060584 0.108577
v -0.264876 0.058467 0.186367
v -0.072732 -0.044688 0.321362
v -0.038802 -0.048592 0.323988
v 0.219850 0.000000 0.267888
v 0.215068 -0.037891 0.262062
v 0.008005 -0.073335 -0.179481
v 0.003285 -0.075465 -0.182589
v 0.041059 -0.081657 -0.189159
v -0.219850 0.000000 -0.267888
v -0.116688 -0.099015 -0.218308
v -0.157036 -0.099015 -0.191348
v -0.250767 -0.083955 0.149945
v -0.114809 0.000000 -0.094221
v -0.135509 -0.043030 -0.085358
v 0.243869 0.000000 0.243869
v -0.156678 0.066253 -0.073364
v 0.033799 0.092852 0.209948
v -0.331204 0.041323 0.009930
v 0.285377 -0.085248 0.008024
v -0.141950 -0.067033 0.278897
v -0.149737 0.066180 0.088900
v -0.164076 0.056257 0.029948
v -0.162680 0.054721 0.030815
v -0.228694 0.099015 0.094728
v 0.011334 0.058585 0.168426
v 0.157036 -0.099015 0.191348
v -0.294685 0.077246 -0.032136
v 0.269428 -0.085831 -0.090606
v 0.289779 -0.076839 -0.073762
v 0.029824 -0.047663 -0.160429
v 0.160394 -0.048650 -0.287627
v 0.146450 -0.036936 -0.300295
v -0.239720 -0.037891 0.239719
v -0.239720 0.037891 0.239719
v 0.278174 -0.070797 -0.136375
v 0.278017 -0.070903 -0.136486
v 0.278257 -0.070569 -0.136800
v 0.133395 0.077977 -0.268943
v 0.318707 0.043705 0.085039
v 0.319268 0.042659 0.085397
v 0.331415 0.038771 0.031659
v -0.010796 0.073749 -0.181577
v 0.019647 -0.057728 0.318941
v 0.037776 -0.051231 0.322230
v 0.047466 0.088259 0.196797
v 0.031994 0.078784 0.185723
v 0.007383 0.087891 0.201525
v -0.304160 0.000000 -0.162577
v -0.256981 0.063107 -0.191778
v -0.256866 0.061430 -0.193409
v 0.312209 -0.035503 -0.116150
v 0.309783 -0.053021 -0.095468
v -0.300516 0.064546 -0.093154
v -0.056888 -0.072159 -0.172231
v -0.039990 -0.049375 -0.158328
v 0.116688 0.099015 0.218308
v -0.323902 0.047494 -0.045145
v -0.224542 0.070014 0.224542
v 0.193520 -0.046251 -0.269866
v -0.284001 -0.048468 -0.162347
v -0.302284 -0.044738 -0.130077
v -0.296581 -0.033683 -0.157175
v -0.261395 -0.042507 0.208612
v 0.147944 -0.043350 0.064993
v 0.152133 -0.047790 0.060000
v -0.134310 -0.064008 -0.288328
v -0.245049 0.000000 0.245049
v 0.139743 -0.051106 -0.295259
v -0.192217 -0.061875 0.255902
v 0.177635 -0.071387 0.032348
v -0.274912 -0.083171 0.093456
v -0.267888 0.000000 -0.219850
v -0.137524 0.099015 0.205819
v 0.330633 -0.041979 0.023238
v 0.334010 -0.036985 -0.004330
v 0.346552 0.000000 0.000000
v -0.191348 -0.099015 -0.157036
v -0.067855 -0.086436 -0.188414
v -0.132998 -0.091478 -0.162058
v -0.192534 0.000000 0.288147
v 0.118962 -0.077700 0.277351
v 0.152474 -0.041534 0.296258
v 0.160370 -0.042612 0.292274
v -0.191125 0.066758 0.252652
v -0.143874 0.069540 0.275684
v -0.161041 0.051888 0.030398
v -0.137744 0.036712 0.073862
v 0.163614 0.062954 -0.272072
v 0.003180 0.062638 -0.314580
v 0.048763 0.068362 -0.305063
v -0.288951 0.074442 0.095535
v -0.275690 0.081299 0.100064
v -0.302234 0.069712 0.061906
v -0.283669 -0.082510 -0.058411
v -0.285136 -0.084822 -0.025333
v -0.120906 -0.065171 0.291680
v -0.285183 -0.084699 -0.019727
v 0.331551 0.038678 0.031308
v -0.243869 0.000000 -0.243869
v 0.074346 -0.084920 0.181470
v -0.133945 -0.063906 -0.288520
v 0.280054 0.081675 0.079126
v -0.289255 0.056561 -0.143455
v -0.286517 0.061148 -0.139764
v -0.286721 0.058298 -0.145867
v -0.240895 0.036867 -0.235789
v -0.239042 0.057233 -0.219995
v 0.085096 -0.044069 0.319228
v 0.100114 0.000000 0.330033
v 0.319212 0.047573 -0.076107
v -0.329643 -0.043816 0.003629
v -0.129702 0.075174 -0.276343
v -0.158679 0.056374 -0.284326
v -0.139162 0.080126 -0.263050
v -0.048465 -0.065436 0.307925
v 0.001862 -0.058024 0.319406
v 0.303824 0.072107 -0.026336
v -0.096420 -0.063472 0.300513
v -0.097432 -0.032605 0.321717
v -0.213160 0.092526 -0.010991
v -0.250143 -0.055643 -0.210879
v -0.218791 0.000000 0.266598
v -0.174168 -0.085512 0.089734
v 0.009231 0.044205 0.329535
v -0.005964 0.048274 0.326685
v 0.252109 0.078180 -0.167701
v 0.272733 -0.065962 0.158000
v 0.284154 -0.040906 0.175044
v 0.295029 -0.031917 0.161358
v -0.201452 -0.070014 -0.245470
v -0.310283 0.060510 -0.063724
v -0.310897 0.062586 -0.046354
v 0.157036 0.099015 0.191348
v -0.160180 0.069960 -0.072034
v 0.070310 -0.035899 -0.326074
v -0.327636 -0.045838 -0.001831
v -0.170713 -0.075538 -0.072926
v -0.226479 0.077303 -0.203352
v -0.302822 0.062062 -0.093988
v 0.000000 0.000000 -0.346552
v -0.163685 0.055558 0.027503
v -0.178937 -0.088221 -0.095963
v 0.017212 -0.047745 -0.326925
v -0.005294 -0.037574 -0.333069
v 0.056837 0.000000 -0.137217
v 0.186644 0.044689 -0.274295
v 0.127050 -0.041788 -0.307820
v 0.170857 -0.073856 -0.055956
v 0.167318 0.076258 -0.254232
v -0.320172 0.000000 -0.132620
v -0.139029 0.069954 0.278395
v -0.214894 0.094182 0.035846
v 0.275345 -0.065759 0.152807
v 0.144073 -0.046698 -0.075857
v -0.282924 -0.073841 -0.104034
v -0.277630 -0.074677 -0.115876
v 0.149418 -0.041811 0.059659
v 0.294403 0.078054 0.034450
v 0.089984 -0.068145 -0.296074
v 0.127425 -0.063617 -0.287981
v 0.274977 -0.064161 0.156393
v 0.077188 -0.053094 -0.144992
v 0.257455 -0.051488 0.205550
v -0.184565 0.038123 0.278335
v -0.162414 0.056714 0.276741
v -0.188489 0.045836 0.272094
v 0.245982 -0.051836 0.220025
v 0.259022 0.079992 -0.147746
v 0.066718 0.052946 0.318079
v -0.288544 0.055374 -0.147757
v -0.255712 0.065210 -0.190054
v -0.279042 -0.069093 -0.130939
v -0.267186 -0.063552 -0.167116
v -0.299190 -0.059796 0.105420
v 0.186393 -0.090074 -0.092662
v 0.051485 0.049969 0.154238
v 0.179157 -0.072202 0.025458
v -0.250867 0.077169 0.173725
v 0.298895 -0.074895 -0.014083
v 0.273369 -0.090756 -0.007910
v 0.032389 -0.069394 -0.172172
v 0.052777 -0.055607 -0.157732
v -0.207824 0.091863 0.001086
v -0.152392 0.061876 -0.073907
v -0.021369 -0.082915 0.288698
v 0.248619 -0.055610 0.212342
v 0.291346 0.079989 0.039512
v -0.288692 0.060552 0.135831
v 0.326205 -0.038480 0.072148
v 0.327361 -0.038638 0.066568
v 0.069431 0.060250 -0.154897
v -0.122905 -0.053501 0.300695
v 0.012330 0.068209 0.307900
v 0.175035 -0.099015 -0.175035
v 0.250725 0.079958 0.159690
v -0.297155 0.077005 0.020734
v 0.277099 -0.043015 -0.186176
v -0.100114 0.000000 0.330033
v -0.008748 -0.075514 -0.299359
v 0.327809 -0.036638 0.069020
v -0.001045 -0.075054 -0.181772
v 0.146934 0.052649 0.073362
v 0.157919 0.044902 0.034677
v -0.303590 0.062530 -0.089899
v 0.205820 -0.099015 -0.137524
v -0.303999 0.057854 0.100339
v -0.163714 0.054830 0.025629
v -0.169125 0.059833 0.022542
v 0.187328 -0.091270 -0.099339
v -0.020712 0.063694 -0.172518
v -0.000324 -0.087470 0.280541
v 0.002052 -0.071472 -0.178275
v 0.278069 -0.070999 -0.135949
v 0.278084 -0.070948 -0.136224
v -0.254299 0.064179 -0.194004
v -0.251232 0.067867 -0.192232
v 0.083702 0.078680 0.285525
v 0.064817 0.054773 0.316343
v 0.022286 0.077663 0.295312
v 0.087708 0.078879 0.284583
v 0.070040 0.052746 0.317090
v 0.304043 0.072130 -0.017006
v 0.251741 -0.073920 -0.180583
v 0.002577 0.078542 0.295278
v 0.004773 0.084275 0.287083
v -0.088332 0.065949 0.301202
v -0.276036 0.076649 -0.106872
v -0.020367 -0.084574 0.196154
v 0.264660 0.051906 -0.196338
v 0.307319 -0.033068 -0.139337
v 0.297256 -0.047416 0.142533
v -0.162377 0.053704 0.027462
v -0.295365 0.062826 0.113069
v -0.287970 0.070323 0.118951
v -0.006420 -0.074256 -0.180514
v -0.058925 -0.089078 -0.196999
v -0.290794 0.053149 -0.145489
v 0.305377 -0.045250 -0.125278
v 0.313572 -0.063212 -0.001626
v 0.039008 0.064594 -0.167131
v 0.077798 0.045065 -0.140541
v -0.293470 -0.073437 -0.069687
v 0.268339 0.065731 0.159833
v 0.262388 0.079032 0.140505
v -0.254464 0.060796 -0.197133
v 0.210253 0.090231 0.015673
v 0.089932 0.080006 0.282030
v 0.087206 -0.068839 -0.295897
v 0.041629 0.059220 -0.162648
v 0.265737 0.083543 -0.111860
v -0.074274 -0.084625 -0.278324
v 0.160985 -0.043968 -0.024924
v 0.007751 -0.069388 -0.175889
v -0.040328 0.051252 0.158838
v -0.299144 0.075932 -0.002631
v -0.059325 0.062214 -0.158297
v -0.162551 0.053068 0.025664
v -0.309532 -0.044863 -0.110849
v -0.189660 0.038571 0.275385
v -0.324568 -0.040992 0.066228
v -0.315866 -0.051048 0.069448
v 0.278211 -0.070841 -0.136098
v 0.278185 -0.070824 -0.136271
v -0.047883 -0.082655 0.282497
v 0.164522 0.053715 0.032690
v -0.276315 0.079907 0.109757
v 0.278441 0.037075 -0.187020
v 0.168960 -0.072627 -0.059434
v 0.278429 -0.070617 -0.136247
v -0.322859 0.039680 -0.073255
v -0.193952 0.088825 0.054670
v -0.195991 0.085640 0.031003
v 0.135094 0.049276 0.089190
v -0.023335 -0.081352 0.190797
v 0.251420 -0.046662 0.216364
v -0.133995 -0.064075 -0.288321
v -0.305091 0.060365 -0.092475
v 0.068267 0.051624 0.318691
v -0.016381 0.064677 -0.313932
v -0.162973 -0.040890 -0.289364
v -0.163528 0.049996 -0.286820
v 0.055575 0.082374 -0.186408
v 0.086556 0.066326 -0.149119
v 0.071458 0.050464 0.318773
v -0.097996 0.077913 0.160040
v -0.224295 -0.092695 0.153965
v -0.011788 0.037319 -0.334387
v -0.292853 0.053579 -0.140423
v -0.241966 -0.071211 -0.181248
v -0.303619 0.061672 -0.092774
v -0.267668 0.081404 0.126304
v -0.253675 0.067174 -0.189691
v -0.284751 0.060911 -0.144614
v 0.161291 0.045522 0.024665
v 0.152982 -0.075958 0.266078
v -0.302415 0.063020 -0.092123
v 0.242394 -0.057237 0.218018
v -0.074256 -0.083683 -0.279894
v -0.022365 -0.044776 -0.327632
v -0.286686 -0.077072 0.081777
v 0.169979 -0.086171 0.105338
f 1 2 3
f 6 7 8
f 10 11 6
f 15 16 17
f 18 19 20
f 21 22 23
f 25 3 2
f 30 31 32
f 33 35 34
f 40 41 42
f 43 44 45
f 46 47 48
f 49 29 50
f 51 52 53
f 54 55 56
f 56 57 58
f 60 61 37
f 62 63 64
f 70 72 71
f 73 74 65
f 75 76 77
f 4 80 5
f 81 82 40
f 82 41 40
f 84 85 86
f 89 91 90
f 92 93 94
f 95 42 96
f 98 99 100
f 65 101 73
f 103 104 102
f 109 110 78
f 111 112 113
f 112 114 113
f 34 84 115
f 122 123 124
f 125 126 127
f 128 129 130
f 131 132 133
f 135 136 137
f 138 139 39
f 23 22 140
f 141 142 143
f 14 51 53
f 146 147 39
f 148 149 150
f 152 2 1
f 141 153 142
f 154 155 156
f 6 158 159
f 160 161 162
f 164 4 5
f 168 31 169
f 170 171 172
f 173 174 175
f 176 58 177
f 39 147 138
f 178 121 120
f 179 168 180
f 56 55 57
f 46 181 47
f 182 183 184
f 185 69 186
f 187 188 189
f 131 133 190
f 191 192 193
f 194 195 196
f 197 198 67
f 199 200 201
f 55 27 59
f 202 161 203
f 206 199 207
f 208 171 209
f 45 20 105
f 211 87 212
f 214 215 182
f 216 204 217
f 218 219 220
f 210 221 15
f 222 64 146
f 223 136 135
f 34 35 85
f 225 226 180
f 204 77 76
f 19 18 190
f 62 229 88
f 230 231 232
f 231 92 232
f 233 234 193
f 151 235 236
f 237 238 6
f 169 31 107
f 240 241 239
f 182 242 133
f 243 244 167
f 245 246 164
f 145 247 144
f 80 248 5
f 249 120 250
f 200 251 44
f 85 84 34
f 102 1 3
f 253 159 254
f 93 92 231
f 34 115 204
f 256 257 258
f 259 63 260
f 121 262 261
f 141 265 153
f 93 266 267
f 33 268 26
f 269 14 53
f 199 201 207
f 13 272 205
f 273 234 274
f 271 275 276
f 277 278 121
f 279 280 281
f 271 219 218
f 165 282 264
f 283 284 285
f 208 286 287
f 288 251 200
f 289 290 240
f 73 157 74
f 47 181 291
f 202 292 293
f 131 190 18
f 296 297 235
f 298 189 142
f 268 272 13
f 12 268 13
f 26 268 12
f 227 299 228
f 164 300 4
f 301 97 302
f 271 276 219
f 185 303 95
f 305 306 307
f 308 309 310
f 118 106 119
f 311 312 313
f 261 314 121
f 316 21 48
f 96 42 41
f 164 5 245
f 39 319 320
f 99 98 163
f 23 46 48
f 21 23 48
f 54 28 55
f 35 33 26
f 321 322 323
f 324 325 326
f 327 166 41
f 185 186 303
f 48 47 328
f 259 138 147
f 249 250 81
f 145 329 247
f 294 331 332
f 333 183 132
f 335 336 334
f 55 337 57
f 59 337 55
f 147 146 63
f 240 239 289
f 158 338 339
f 249 178 120
f 40 249 81
f 290 61 341
f 342 343 344
f 34 204 76
f 34 76 33
f 131 18 288
f 346 347 348
f 270 275 271
f 55 28 27
f 349 350 252
f 351 15 221
f 130 352 353
f 354 187 189
f 355 195 144
f 222 257 356
f 357 358 267
f 359 72 70
f 308 275 270
f 362 345 56
f 363 199 364
f 206 364 199
f 182 133 132
f 115 365 217
f 147 63 259
f 296 151 125
f 366 367 368
f 213 370 371
f 102 104 372
f 75 77 274
f 373 374 138
f 105 375 45
f 376 377 304
f 378 163 370
f 264 282 26
f 379 380 381
f 71 97 70
f 252 382 383
f 26 282 35
f 139 138 374
f 226 385 137
f 290 289 61
f 386 387 330
f 93 231 83
f 388 389 390
f 225 385 226
f 391 115 224
f 246 245 15
f 393 394 395
f 205 272 307
f 300 164 246
f 398 399 400
f 201 200 44
f 83 306 305
f 18 20 288
f 20 251 288
f 216 273 274
f 45 251 20
f 401 50 402
f 39 320 38
f 266 305 403
f 404 114 241
f 193 405 406
f 407 408 375
f 260 63 87
f 288 200 363
f 200 199 363
f 409 166 165
f 143 148 141
f 265 141 148
f 410 411 372
f 87 63 62
f 264 26 263
f 26 12 263
f 145 412 340
f 44 251 45
f 413 414 415
f 416 417 316
f 56 4 300
f 418 91 397
f 419 420 287
f 423 424 378
f 424 425 378
f 392 426 285
f 427 428 315
f 429 406 8
f 230 232 221
f 232 351 221
f 222 356 64
f 94 431 430
f 430 431 59
f 267 431 93
f 93 431 94
f 59 27 430
f 307 306 205
f 284 364 206
f 421 422 432
f 308 381 309
f 246 232 433
f 434 189 188
f 301 302 435
f 152 69 2
f 119 106 9
f 47 436 328
f 144 247 355
f 437 390 273
f 390 389 273
f 267 358 431
f 239 112 163
f 377 438 439
f 438 440 439
f 304 377 441
f 274 77 204
f 166 442 96
f 56 345 4
f 205 306 83
f 83 305 93
f 93 305 266
f 253 313 159
f 140 22 69
f 74 443 65
f 17 444 210
f 445 446 202
f 400 447 177
f 448 449 218
f 220 448 218
f 311 330 403
f 59 358 134
f 162 194 160
f 452 453 454
f 455 276 51
f 276 275 51
f 456 457 458
f 457 347 458
f 59 431 358
f 333 459 183
f 170 460 461
f 462 463 464
f 402 259 401
f 466 467 334
f 388 155 384
f 66 197 67
f 420 208 287
f 468 195 469
f 15 470 16
f 167 405 89
f 432 322 168
f 291 436 47
f 337 471 472
f 159 10 6
f 69 152 140
f 474 97 301
f 475 418 451
f 476 448 220
f 310 309 51
f 309 52 51
f 477 478 479
f 234 480 191
f 240 404 241
f 481 49 482
f 64 63 146
f 483 207 201
f 396 450 484
f 99 485 448
f 273 486 234
f 445 202 295
f 275 308 51
f 308 310 51
f 167 244 405
f 414 413 125
f 127 414 125
f 366 368 460
f 276 455 219
f 455 51 14
f 487 46 482
f 487 482 401
f 237 488 238
f 222 146 38
f 222 38 257
f 334 467 489
f 490 376 36
f 481 152 49
f 481 482 140
f 491 492 493
f 403 305 10
f 305 307 10
f 372 411 318
f 495 496 427
f 149 299 150
f 262 498 499
f 498 500 499
f 501 502 490
f 79 435 302
f 79 110 435
f 78 110 79
f 462 434 188
f 503 440 504
f 440 438 504
f 505 219 455
f 24 455 14
f 381 506 507
f 508 509 116
f 110 109 510
f 307 272 7
f 307 11 10
f 313 512 511
f 474 70 97
f 391 513 115
f 513 365 115
f 514 253 254
f 515 347 346
f 227 377 376
f 235 321 323
f 517 186 69
f 201 43 518
f 415 519 130
f 179 31 168
f 520 521 522
f 239 114 112
f 235 323 236
f 523 524 283
f 66 525 526
f 248 80 345
f 319 527 320
f 527 355 320
f 302 528 339
f 529 530 531
f 100 361 360
f 414 457 456
f 532 533 420
f 533 171 420
f 39 534 319
f 457 127 348
f 234 486 389
f 391 419 535
f 419 536 535
f 392 516 426
f 472 398 58
f 472 58 57
f 472 57 337
f 537 210 117
f 517 69 68
f 90 91 418
f 170 172 460
f 494 538 315
f 425 239 163
f 100 360 98
f 8 7 540
f 541 542 208
f 97 528 302
f 533 172 171
f 257 543 258
f 537 221 210
f 544 101 65
f 151 545 546
f 315 538 547
f 548 549 17
f 549 444 17
f 204 115 217
f 437 273 217
f 273 216 217
f 274 204 216
f 248 530 369
f 355 247 320
f 381 380 383
f 232 246 551
f 552 111 350
f 111 113 350
f 553 512 528
f 512 514 528
f 266 554 267
f 476 220 118
f 100 476 361
f 99 448 100
f 448 476 100
f 476 118 119
f 476 119 361
f 369 555 248
f 189 434 142
f 535 513 391
f 556 470 520
f 470 521 520
f 558 439 440
f 386 559 554
f 371 370 98
f 98 370 163
f 560 561 557
f 54 56 300
f 124 160 122
f 160 194 122
f 220 563 118
f 219 331 563
f 257 256 356
f 218 564 271
f 243 109 78
f 202 293 565
f 86 327 84
f 327 82 84
f 411 473 318
f 414 127 457
f 516 523 283
f 332 566 258
f 278 498 262
f 490 502 568
f 490 568 265
f 569 116 441
f 351 232 551
f 35 282 86
f 540 268 33
f 25 102 3
f 43 45 375
f 21 570 544
f 260 571 565
f 572 573 330
f 482 49 574
f 547 538 392
f 128 575 139
f 180 322 225
f 576 577 99
f 578 546 544
f 546 545 544
f 229 579 212
f 562 579 229
f 323 580 236
f 581 582 583
f 422 584 432
f 38 585 257
f 585 247 543
f 247 329 543
f 487 401 46
f 234 191 193
f 198 197 586
f 484 539 451
f 587 522 466
f 522 588 466
f 185 95 25
f 388 497 389
f 143 464 442
f 464 463 442
f 589 590 317
f 285 426 283
f 285 284 207
f 284 206 207
f 473 32 226
f 591 405 244
f 73 101 580
f 344 343 592
f 226 32 180
f 383 380 252
f 448 485 449
f 593 410 104
f 397 91 89
f 195 355 527
f 142 434 464
f 46 594 181
f 594 394 181
f 398 472 471
f 90 418 595
f 334 587 466
f 116 509 441
f 71 553 97
f 302 339 79
f 168 322 180
f 323 322 432
f 579 370 213
f 191 480 397
f 58 176 459
f 596 597 203
f 118 563 294
f 598 399 378
f 399 423 378
f 370 579 378
f 579 599 378
f 212 579 213
f 117 600 537
f 309 53 52
f 379 381 308
f 28 601 430
f 505 331 219
f 250 602 224
f 424 239 425
f 73 580 603
f 269 24 14
f 596 203 124
f 203 160 124
f 519 456 604
f 411 462 473
f 462 188 473
f 8 540 75
f 89 90 605
f 606 416 607
f 416 328 607
f 608 62 64
f 483 315 547
f 384 155 609
f 198 610 541
f 220 219 563
f 562 599 579
f 149 409 299
f 464 434 462
f 550 473 226
f 357 267 559
f 267 554 559
f 421 169 422
f 211 260 87
f 260 211 571
f 385 225 612
f 371 98 611
f 550 226 137
f 388 390 155
f 110 510 613
f 351 551 15
f 21 544 65
f 363 364 530
f 416 606 417
f 614 340 412
f 287 615 536
f 15 551 246
f 158 339 254
f 71 512 553
f 553 528 97
f 531 248 345
f 341 616 290
f 127 606 617
f 618 424 399
f 309 507 53
f 539 484 450
f 259 395 401
f 619 620 29
f 593 463 410
f 463 462 410
f 470 621 16
f 259 373 138
f 564 576 111
f 576 112 111
f 86 282 165
f 622 611 360
f 85 35 86
f 109 623 510
f 623 508 510
f 75 540 76
f 221 537 600
f 230 221 624
f 221 625 624
f 127 126 606
f 592 343 626
f 397 480 396
f 23 140 46
f 140 482 46
f 371 611 622
f 627 56 58
f 346 617 607
f 180 32 179
f 32 31 179
f 464 143 142
f 404 350 114
f 189 298 354
f 290 616 240
f 483 427 315
f 628 250 120
f 629 400 399
f 88 87 62
f 295 631 630
f 545 151 236
f 632 633 369
f 354 634 187
f 635 298 586
f 298 636 586
f 634 586 637
f 586 638 637
f 639 575 515
f 451 418 396
f 396 418 397
f 566 455 24
f 7 272 540
f 272 268 540
f 545 236 580
f 609 536 384
f 361 640 360
f 552 350 349
f 620 402 50
f 619 223 353
f 542 541 610
f 533 367 172
f 633 555 369
f 330 573 317
f 529 531 345
f 641 642 175
f 642 173 175
f 5 633 245
f 228 299 264
f 296 125 413
f 559 317 494
f 559 494 496
f 643 174 153
f 485 577 576
f 288 529 131
f 137 136 318
f 470 644 521
f 312 159 313
f 600 117 116
f 250 645 81
f 332 646 294
f 144 647 145
f 248 555 5
f 5 555 633
f 29 152 1
f 166 86 165
f 648 570 417
f 387 403 330
f 649 440 503
f 327 41 82
f 467 466 632
f 318 473 550
f 623 650 651
f 618 652 653
f 652 495 653
f 520 587 654
f 468 655 195
f 40 178 249
f 592 626 295
f 656 124 491
f 124 492 491
f 269 64 356
f 269 356 24
f 657 608 269
f 608 658 62
f 658 229 62
f 301 549 474
f 549 548 474
f 71 72 659
f 532 602 533
f 602 367 533
f 489 523 516
f 108 500 107
f 420 171 208
f 612 660 661
f 343 371 622
f 366 172 367
f 534 281 527
f 203 161 160
f 507 214 53
f 277 68 443
f 489 467 662
f 468 469 655
f 374 663 139
f 348 617 346
f 30 32 637
f 32 664 637
f 664 187 637
f 664 32 473
f 473 187 664
f 187 473 188
f 76 540 33
f 6 11 7
f 665 163 112
f 330 559 386
f 506 381 383
f 559 330 317
f 266 403 554
f 403 387 554
f 541 208 209
f 294 646 9
f 578 544 570
f 58 398 400
f 234 389 450
f 450 389 539
f 539 389 497
f 666 176 177
f 247 585 667
f 171 170 67
f 209 171 67
f 336 465 334
f 554 387 386
f 427 496 428
f 37 668 60
f 449 485 564
f 86 166 327
f 411 410 462
f 68 65 443
f 416 316 48
f 669 565 395
f 565 393 395
f 159 158 254
f 618 399 652
f 599 670 598
f 670 399 598
f 398 652 399
f 80 4 345
f 316 570 21
f 671 148 442
f 148 143 442
f 671 166 409
f 671 442 166
f 149 148 671
f 671 409 149
f 421 168 169
f 252 380 349
f 270 380 308
f 349 380 270
f 71 659 511
f 499 500 108
f 139 129 128
f 74 277 443
f 622 631 295
f 494 428 496
f 428 494 315
f 419 532 420
f 366 460 172
f 557 382 252
f 210 444 672
f 627 459 56
f 459 673 56
f 108 324 526
f 560 252 350
f 29 620 50
f 230 624 231
f 624 674 231
f 567 478 675
f 54 300 28
f 639 279 534
f 279 281 534
f 139 575 639
f 359 567 675
f 357 559 134
f 357 134 358
f 559 496 134
f 526 525 108
f 648 125 151
f 277 498 278
f 508 116 510
f 617 606 607
f 541 209 67
f 541 67 198
f 520 522 587
f 674 649 205
f 453 631 622
f 676 583 451
f 229 212 88
f 106 294 9
f 595 418 475
f 567 654 465
f 442 463 593
f 676 539 497
f 58 400 177
f 648 126 125
f 126 648 417
f 154 156 513
f 244 243 677
f 244 677 591
f 677 678 591
f 13 503 504
f 48 328 416
f 495 427 37
f 426 516 283
f 427 668 37
f 359 675 72
f 381 507 309
f 546 648 151
f 131 529 345
f 514 254 528
f 254 339 528
f 461 368 525
f 368 261 525
f 615 174 643
f 252 560 557
f 262 525 261
f 279 493 280
f 194 162 469
f 423 399 424
f 589 317 573
f 13 504 12
f 169 500 422
f 525 499 108
f 679 631 680
f 328 656 491
f 485 576 564
f 581 497 388
f 582 502 583
f 502 501 583
f 146 39 38
f 425 163 378
f 532 681 602
f 400 670 447
f 670 599 447
f 629 670 400
f 177 447 599
f 177 599 562
f 634 637 187
f 398 471 652
f 471 495 652
f 304 595 255
f 12 504 228
f 352 682 353
f 129 374 352
f 374 129 663
f 499 525 262
f 422 500 157
f 107 500 169
f 343 213 371
f 130 135 415
f 683 508 651
f 202 565 344
f 343 342 213
f 174 173 153
f 117 613 116
f 613 510 116
f 513 535 609
f 535 536 609
f 329 684 646
f 287 536 419
f 128 604 575
f 685 565 211
f 565 571 211
f 685 211 344
f 211 342 344
f 592 295 202
f 344 592 202
f 211 213 342
f 211 212 213
f 655 686 647
f 424 289 239
f 61 289 618
f 424 618 289
f 271 564 270
f 260 395 259
f 594 46 401
f 288 363 529
f 363 530 529
f 474 687 70
f 69 185 2
f 590 589 477
f 576 99 163
f 295 626 622
f 173 642 153
f 221 600 625
f 191 397 192
f 651 508 623
f 185 25 2
f 303 42 95
f 157 584 422
f 167 650 623
f 651 650 167
f 623 109 243
f 623 243 167
f 87 88 212
f 465 654 587
f 465 587 334
f 688 441 377
f 689 569 688
f 569 441 688
f 600 569 689
f 116 569 600
f 478 477 589
f 29 690 619
f 102 690 1
f 1 690 29
f 372 690 102
f 258 543 332
f 225 322 297
f 322 321 297
f 412 647 454
f 647 686 454
f 614 412 454
f 145 647 412
f 329 646 543
f 84 691 645
f 356 256 24
f 413 661 296
f 661 660 296
f 303 186 517
f 508 683 509
f 588 633 632
f 393 565 394
f 565 293 394
f 66 461 525
f 255 595 475
f 441 509 683
f 542 610 175
f 610 641 175
f 27 28 430
f 134 495 471
f 653 495 37
f 336 335 477
f 238 158 6
f 176 184 459
f 184 183 459
f 676 451 539
f 450 480 234
f 598 378 599
f 404 560 350
f 384 536 615
f 532 419 391
f 332 331 566
f 323 692 580
f 679 680 686
f 611 98 360
f 122 196 280
f 396 480 450
f 81 645 82
f 82 691 84
f 693 668 427
f 488 6 8
f 548 17 621
f 17 16 621
f 687 694 359
f 197 695 586
f 250 224 645
f 336 479 465
f 19 242 696
f 406 405 488
f 405 591 488
f 517 277 121
f 42 303 40
f 517 178 303
f 178 40 303
f 121 178 517
f 517 68 277
f 679 630 631
f 483 697 207
f 207 697 285
f 285 697 392
f 547 697 483
f 253 514 512
f 253 512 313
f 312 403 10
f 312 10 159
f 693 483 518
f 427 483 693
f 338 677 78
f 304 36 376
f 656 436 124
f 436 596 124
f 205 649 503
f 449 564 218
f 516 538 489
f 377 439 688
f 558 689 439
f 689 688 439
f 625 600 558
f 600 689 558
f 546 578 648
f 578 570 648
f 635 354 298
f 280 123 122
f 196 122 194
f 597 291 202
f 684 329 145
f 340 684 145
f 627 58 459
f 333 131 362
f 333 132 131
f 56 673 362
f 673 333 362
f 459 333 673
f 368 461 460
f 67 461 66
f 67 170 461
f 408 60 668
f 71 511 512
f 292 291 181
f 240 616 560
f 616 561 560
f 318 550 137
f 698 364 284
f 224 602 681
f 527 196 195
f 527 281 196
f 281 280 196
f 534 39 139
f 534 139 639
f 247 667 320
f 38 320 667
f 687 359 70
f 130 129 352
f 504 438 228
f 452 680 453
f 296 235 151
f 531 530 248
f 136 690 372
f 89 192 397
f 89 405 192
f 193 192 405
f 563 331 294
f 311 403 312
f 532 391 681
f 681 391 224
f 679 162 630
f 162 446 630
f 202 446 161
f 162 161 446
f 445 630 446
f 585 543 257
f 294 106 118
f 127 617 348
f 245 521 644
f 182 215 242
f 201 518 483
f 413 415 661
f 594 401 395
f 182 184 53
f 645 224 115
f 622 626 343
f 372 104 410
f 103 593 104
f 394 594 395
f 678 677 338
f 558 440 649
f 438 377 227
f 228 438 227
f 286 175 174
f 666 608 176
f 608 657 176
f 132 183 182
f 184 699 53
f 53 699 269
f 176 657 184
f 657 699 184
f 657 269 699
f 362 131 345
f 60 408 61
f 332 543 646
f 392 697 547
f 667 585 38
f 223 619 136
f 619 690 136
f 293 292 394
f 313 511 330
f 311 313 330
f 679 686 162
f 686 469 162
f 53 214 182
f 685 344 565
f 64 700 608
f 197 701 695
f 325 324 108
f 148 150 265
f 376 702 227
f 702 150 227
f 242 215 696
f 215 214 696
f 506 696 507
f 696 214 507
f 493 279 515
f 359 694 567
f 703 429 75
f 369 530 698
f 318 136 372
f 482 574 401
f 269 608 700
f 269 700 64
f 505 455 566
f 158 238 338
f 238 678 338
f 658 562 229
f 625 558 624
f 674 205 83
f 674 83 231
f 258 566 24
f 704 105 20
f 658 608 562
f 662 523 489
f 467 632 662
f 662 632 523
f 632 524 523
f 605 167 89
f 90 651 605
f 556 520 694
f 520 705 694
f 520 654 705
f 694 705 567
f 705 654 567
f 621 694 548
f 694 687 548
f 548 687 474
f 194 469 195
f 505 566 331
f 706 538 494
f 153 642 142
f 142 642 298
f 379 308 380
f 154 609 155
f 437 156 390
f 707 694 621
f 304 255 36
f 683 651 708
f 304 708 595
f 90 595 651
f 595 708 651
f 683 708 441
f 441 708 304
f 506 383 696
f 383 382 696
f 139 663 129
f 633 588 709
f 710 245 709
f 709 588 710
f 588 522 710
f 521 710 522
f 245 633 709
f 501 490 255
f 655 469 686
f 274 233 429
f 609 154 513
f 674 624 649
f 665 112 576
f 385 612 137
f 137 612 135
f 24 256 258
f 490 36 255
f 481 140 152
f 582 581 388
f 300 601 28
f 430 601 94
f 94 601 92
f 232 601 433
f 232 92 601
f 246 601 300
f 246 433 601
f 710 521 245
f 265 568 643
f 643 153 265
f 643 568 384
f 615 643 384
f 287 174 615
f 287 286 174
f 402 620 711
f 364 698 530
f 702 490 265
f 490 702 376
f 702 265 150
f 210 672 117
f 99 577 485
f 479 336 477
f 456 458 604
f 157 712 74
f 157 500 712
f 498 712 500
f 277 712 498
f 74 712 277
f 488 8 406
f 644 470 15
f 644 15 245
f 227 150 299
f 445 295 630
f 672 613 117
f 672 435 613
f 435 110 613
f 263 228 264
f 264 299 165
f 165 299 409
f 103 102 25
f 103 25 95
f 95 96 593
f 593 103 95
f 593 96 442
f 181 394 292
f 597 596 436
f 292 202 291
f 335 334 489
f 444 549 672
f 435 672 301
f 301 672 549
f 15 17 210
f 270 564 111
f 590 477 335
f 392 538 516
f 584 692 323
f 432 584 323
f 603 580 584
f 580 692 584
f 706 590 538
f 590 335 538
f 584 73 603
f 604 458 575
f 458 515 575
f 493 515 346
f 278 262 121
f 225 297 612
f 297 660 612
f 297 296 660
f 661 415 135
f 29 49 152
f 19 696 704
f 696 382 704
f 704 382 557
f 704 20 19
f 105 704 557
f 556 621 713
f 556 713 470
f 470 713 621
f 703 274 429
f 8 75 429
f 233 193 429
f 316 417 570
f 193 406 429
f 335 489 538
f 478 567 479
f 479 567 465
f 706 494 590
f 590 494 317
f 573 675 589
f 675 478 589
f 675 573 72
f 573 572 72
f 542 175 286
f 542 286 208
f 610 298 641
f 298 642 641
f 495 134 496
f 471 337 134
f 59 134 337
f 653 61 618
f 653 37 61
f 399 670 629
f 239 241 114
f 584 714 73
f 545 580 544
f 580 101 544
f 167 605 651
f 324 326 701
f 233 274 234
f 511 572 330
f 572 511 659
f 572 659 72
f 297 321 235
f 680 631 453
f 360 640 622
f 640 453 622
f 639 515 279
f 347 457 348
f 458 347 515
f 273 389 486
f 526 324 701
f 638 695 701
f 107 31 325
f 30 637 325
f 637 326 325
f 638 701 637
f 701 326 637
f 30 325 31
f 666 177 608
f 205 503 13
f 451 396 484
f 421 432 168
f 614 454 640
f 454 453 640
f 452 454 680
f 680 454 686
f 614 640 361
f 119 614 361
f 9 614 119
f 614 9 340
f 107 325 108
f 475 583 501
f 582 568 502
f 475 501 255
f 437 217 156
f 314 261 368
f 120 121 314
f 628 367 602
f 41 166 96
f 407 341 408
f 408 341 61
f 375 408 43
f 408 715 43
f 408 668 715
f 518 715 693
f 715 668 693
f 43 715 518
f 624 558 649
f 588 632 466
f 369 524 632
f 283 524 369
f 73 714 157
f 714 584 157
f 404 240 560
f 414 456 415
f 456 519 415
f 346 491 493
f 124 123 492
f 407 716 341
f 341 716 616
f 716 561 616
f 407 375 716
f 105 561 716
f 557 561 105
f 716 375 105
f 656 328 436
f 177 562 608
f 390 156 155
f 78 677 243
f 79 338 78
f 79 339 338
f 691 82 645
f 346 607 491
f 328 491 607
f 655 647 195
f 144 195 647
f 707 556 694
f 369 698 283
f 698 284 283
f 228 263 12
f 402 711 259
f 259 711 373
f 612 661 135
f 197 526 701
f 197 66 526
f 628 602 250
f 314 628 120
f 368 367 314
f 367 628 314
f 298 610 636
f 635 586 354
f 586 634 354
f 198 586 610
f 586 636 610
f 638 586 695
f 115 84 645
f 126 417 606
f 123 280 493
f 123 493 492
f 717 678 238
f 591 678 717
f 237 6 488
f 238 488 717
f 488 591 717
f 597 436 291
f 202 203 597
f 374 373 352
f 373 682 352
f 353 223 135
f 130 353 135
f 682 620 353
f 620 619 353
f 373 711 682
f 620 682 711
f 646 684 340
f 9 646 340
f 130 604 128
f 130 519 604
f 365 156 217
f 365 513 156
f 707 621 556
f 133 242 190
f 242 19 190
f 401 49 50
f 401 574 49
f 669 395 260
f 669 260 565
f 497 581 676
f 581 583 676
f 568 388 384
f 568 582 388
f 583 475 451
f 44 43 201
f 349 270 111
f 552 349 111
f 350 113 114
f 718 65 68
f 718 22 21
f 718 21 65
f 718 69 22
f 718 68 69
f 307 7 11
f 703 75 274
f 665 576 163
f 319 534 527
