v 0.288020 -0.164458 0.208508
v 0.287628 -0.204248 0.187215
v 0.265299 -0.208483 0.218630
v -0.194633 -0.042623 -0.136957
v -0.148079 -0.013280 -0.151254
v -0.194778 -0.056862 -0.154274
v 0.141397 -0.193474 -0.208312
v 0.164802 -0.207154 -0.171718
v 0.141786 -0.221931 -0.168215
v 0.127813 0.188292 0.033991
v 0.154133 0.189506 0.001170
v 0.136122 0.229568 0.002825
v -0.144810 -0.059657 -0.190876
v -0.136440 -0.059448 -0.194946
v -0.145665 -0.065633 -0.192777
v -0.201712 -0.238860 0.041856
v -0.196988 -0.255283 0.026938
v -0.199644 -0.239172 0.041816
v 0.174367 -0.059916 0.214502
v 0.209616 -0.054329 0.198044
v 0.160273 -0.040282 0.181706
v 0.065841 -0.233182 -0.187608
v 0.090715 -0.211412 -0.213785
v 0.100505 -0.224369 -0.191527
v 0.253802 -0.241800 0.056711
v -0.015494 -0.153334 -0.242943
v -0.001036 -0.151933 -0.245703
v -0.005982 -0.164528 -0.241845
v 0.136418 0.238858 -0.008455
v 0.107721 0.248495 0.016083
v 0.276613 -0.067169 0.088007
v 0.287394 -0.091642 0.079205
v 0.165735 -0.270822 -0.004428
v 0.236349 -0.076174 -0.120205
v 0.250783 -0.085368 -0.080425
v 0.130637 0.179749 -0.170286
v 0.134138 0.136497 -0.186099
v 0.126081 0.138893 -0.190900
v 0.185004 0.132210 -0.108888
v 0.192893 0.095517 -0.118505
v -0.039364 -0.207737 -0.218021
v -0.027004 -0.195271 -0.225767
v -0.012445 -0.215297 -0.214245
v -0.121061 -0.132374 0.071801
v -0.152420 -0.161818 0.069203
v -0.115842 -0.160842 0.072106
v 0.033355 -0.272255 0.031507
v 0.029193 -0.271673 0.029905
v 0.031596 -0.272716 0.028241
v 0.021893 0.076492 -0.218713
v 0.015350 0.120645 -0.205558
v 0.132467 0.127040 0.047823
v 0.110759 0.120724 0.062308
v 0.074811 0.064248 -0.228504
v 0.076145 0.062187 -0.229119
v 0.028435 0.032338 -0.231867
v 0.282227 -0.198101 0.057252
v 0.269495 -0.220904 0.056245
v 0.116107 -0.171720 -0.237970
v 0.116121 -0.171732 -0.237957
v 0.031845 0.286044 0.002201
v 0.001432 0.286233 -0.019328
v 0.040283 -0.041591 -0.251389
v 0.034978 -0.011816 -0.245022
v 0.202693 -0.288207 0.107759
v 0.242048 -0.269983 0.112299
v 0.236931 -0.270368 0.097084
v -0.292635 -0.232476 -0.070627
v -0.279239 -0.255178 -0.048817
v -0.292774 -0.230222 -0.039015
v -0.289855 -0.208190 -0.003844
v -0.118814 -0.038381 0.036807
v -0.123551 -0.032114 0.029278
v -0.143129 -0.067715 0.044321
v -0.282344 -0.109301 -0.015811
v -0.267394 -0.091276 -0.016636
v 0.203454 -0.167786 -0.174440
v 0.213611 -0.148134 -0.173395
v -0.110675 -0.194314 0.066100
v -0.067515 -0.187085 0.070534
v 0.112934 0.179956 -0.182660
v -0.065980 -0.006549 -0.210683
v -0.096431 -0.036656 -0.205503
v -0.098642 0.001069 -0.187251
v -0.306381 -0.187920 -0.087806
v -0.306597 -0.195969 -0.058871
v -0.227952 -0.050382 -0.058378
v -0.222003 -0.055143 -0.022787
v -0.199752 -0.041882 -0.026426
v 0.075333 -0.181022 -0.241740
v 0.082829 -0.197747 -0.229352
v 0.200560 0.069308 -0.001538
v 0.205569 0.060511 -0.001838
v 0.205365 0.065415 -0.009334
v -0.075933 0.102090 -0.156357
v -0.079410 0.134482 -0.134806
v -0.083305 0.095372 -0.148327
v 0.208913 -0.232570 -0.051154
v 0.188546 -0.251894 -0.034722
v 0.178701 -0.242562 -0.075557
v -0.023406 0.271469 -0.014656
v 0.011683 0.278011 0.007158
v -0.301324 -0.180852 -0.110133
v 0.005615 -0.273869 0.003268
v -0.006845 -0.266795 0.019168
v 0.007577 -0.279681 -0.018268
v -0.000273 -0.275436 -0.006166
v -0.155950 -0.278057 -0.000342
v -0.180367 -0.279803 -0.003124
v -0.178417 -0.287933 -0.019781
v -0.199048 -0.290148 -0.027206
v 0.054304 -0.253769 -0.148676
v 0.010170 -0.263338 -0.137553
v -0.301019 -0.202876 -0.030388
v -0.103338 0.043991 -0.150365
v -0.098404 0.046495 -0.156630
v -0.102251 0.039374 -0.156933
v -0.154547 -0.050589 0.024125
v -0.195592 -0.082656 0.030964
v 0.246306 -0.031872 0.106758
v 0.058064 -0.281345 -0.028972
v 0.084185 -0.278978 -0.034356
v 0.064735 -0.281593 -0.020014
v 0.091919 -0.281449 -0.012771
v 0.078363 0.290327 -0.092233
v 0.079483 0.294642 -0.042407
v 0.106145 0.286239 -0.052773
v 0.081723 -0.252507 0.157223
v 0.073073 -0.228340 0.176552
v 0.063957 -0.226526 0.164216
v 0.130727 -0.058135 0.195854
v 0.106717 -0.066759 0.191329
v 0.131774 -0.062062 0.200596
v 0.113349 -0.078249 0.205926
v -0.012597 -0.184323 0.096109
v 0.244040 -0.126934 0.240671
v 0.244686 -0.182256 0.245170
v 0.268448 -0.173611 0.229075
v 0.164205 0.174586 -0.128481
v 0.163470 0.133112 -0.156476
v 0.149308 0.177894 -0.150810
v 0.242135 -0.162021 -0.091173
v 0.228030 -0.195478 -0.086474
v 0.236884 -0.155504 -0.112247
v 0.223700 -0.187707 -0.106446
v -0.094259 0.090141 -0.129616
v -0.088514 0.128871 -0.115152
v 0.101600 0.283383 -0.081249
v 0.118027 0.271730 -0.092171
v -0.105032 -0.284852 -0.026614
v -0.065727 -0.285930 -0.043327
v -0.058000 -0.273908 -0.006791
v -0.262567 -0.076369 -0.068999
v -0.252355 -0.069811 -0.081893
v -0.262940 -0.083154 -0.094119
v 0.224539 0.005252 -0.104438
v 0.218430 0.027232 -0.102506
v 0.234135 -0.001054 -0.071459
v 0.034880 0.170611 -0.196972
v 0.049345 0.212178 -0.181287
v 0.066863 0.175947 -0.196765
v -0.184794 -0.279481 -0.134227
v -0.141146 -0.269437 -0.155680
v -0.183692 -0.280440 -0.132836
v 0.098373 0.255231 0.018660
v 0.095687 0.256796 0.019312
v 0.096689 0.254208 0.021170
v -0.104766 0.044065 -0.036298
v -0.097013 0.064509 -0.034598
v -0.110979 0.048980 -0.063887
v -0.191020 -0.100211 0.044742
v -0.214007 -0.101256 0.035927
v -0.189460 -0.117355 0.053708
v -0.216924 -0.118319 0.044063
v -0.278030 -0.096548 -0.074286
v 0.091853 -0.273584 -0.061911
v -0.260287 -0.212806 0.031672
v -0.240589 -0.212826 0.044196
v 0.003131 0.158765 0.063424
v 0.016377 0.138421 0.069554
v 0.028733 0.161889 0.070224
v 0.181406 -0.258221 0.222706
v 0.223686 -0.263356 0.207285
v 0.223885 -0.242114 0.228228
v 0.051627 -0.080465 0.160194
v 0.090971 0.115657 0.069933
v 0.101799 0.073197 0.073754
v 0.235156 -0.260002 0.058789
v 0.085277 -0.259456 0.150105
v 0.054671 -0.245025 0.124925
v 0.070505 -0.264948 0.113138
v 0.177894 -0.277463 0.031775
v 0.190053 -0.284104 0.067978
v 0.158337 -0.290038 0.076749
v 0.113979 -0.031268 0.155429
v 0.146179 -0.020649 0.148911
v 0.221916 -0.066980 -0.159984
v 0.222791 -0.099876 -0.166740
v 0.221974 -0.217172 0.244738
v -0.279481 -0.096168 -0.051999
v 0.277551 -0.232341 0.107630
v 0.278192 -0.231123 0.107618
v 0.277513 -0.232426 0.108013
v 0.209393 -0.038384 0.169909
v 0.003690 -0.036762 0.109029
v -0.009073 -0.027305 0.098718
v -0.005228 -0.048920 0.108547
v 0.051187 0.297276 -0.032778
v -0.093447 0.117371 -0.060842
v -0.086596 0.111305 -0.028431
v 0.287190 -0.086759 0.125495
v 0.094855 -0.282420 -0.001771
v 0.109828 -0.279105 -0.017376
v -0.093860 0.122745 -0.088338
v -0.046219 -0.228202 0.053005
v -0.046613 -0.184817 0.076652
v 0.041176 -0.100965 0.159588
v 0.207007 -0.060740 -0.189414
v 0.108343 0.022316 -0.236783
v 0.134841 0.044799 -0.219783
v 0.108466 0.021815 -0.236934
v 0.135397 0.043911 -0.219826
v 0.271363 -0.184842 0.010146
v 0.270805 -0.185610 0.009543
v 0.129902 -0.286440 0.135644
v 0.131936 -0.285308 0.144386
v 0.123164 -0.284466 0.136520
v 0.195247 0.116612 -0.075256
v -0.136358 -0.199082 0.064755
v -0.162042 -0.203850 0.063411
v 0.157752 -0.054402 -0.240141
v -0.225393 -0.053070 -0.107273
v -0.226552 -0.060887 -0.122187
v -0.247500 -0.075993 -0.112777
v -0.253403 -0.086239 -0.121434
v 0.075353 -0.282804 0.010134
v 0.075753 -0.283104 0.014451
v 0.225583 -0.006094 -0.111641
v 0.216845 -0.025231 -0.150303
v 0.208673 0.022131 -0.137738
v 0.235569 -0.275054 0.132869
v 0.254141 -0.262271 0.156599
v -0.069438 0.100305 -0.164855
v -0.046753 0.086480 -0.188179
v -0.072134 0.059299 -0.179372
v -0.070013 0.043348 -0.188178
v 0.062699 0.290254 -0.102117
v 0.050949 0.295972 -0.091682
v 0.001808 0.230259 -0.163521
v 0.004820 0.198335 -0.179708
v 0.144514 -0.191269 -0.208336
v 0.141753 -0.190695 -0.210442
v -0.178070 -0.096602 0.047712
v 0.039591 0.275301 0.021380
v -0.118992 0.027008 -0.142824
v -0.138262 -0.005548 -0.154012
v 0.093170 0.178895 -0.191304
v 0.105655 -0.285370 0.094963
v -0.016767 -0.165899 -0.239639
v -0.007461 -0.173638 -0.238630
v -0.041199 -0.188394 -0.227130
v 0.088595 -0.044614 0.158632
v 0.068366 0.039958 0.090878
v 0.108130 0.053066 0.079595
v 0.064247 0.064874 0.082152
v 0.155081 0.234197 -0.079348
v 0.129022 0.245476 -0.119246
v 0.145129 0.219477 -0.123758
v 0.176289 -0.153681 -0.213197
v -0.252857 -0.069155 -0.071488
v -0.109070 -0.292360 -0.052132
v 0.218144 -0.189972 0.255996
v -0.023354 0.112305 -0.194200
v -0.021836 0.071164 -0.206645
v -0.119409 -0.202041 -0.210779
v -0.098949 -0.188511 -0.217702
v -0.087548 -0.198771 -0.216331
v -0.157505 -0.236511 -0.187544
v -0.058030 -0.270750 0.000006
v -0.055909 -0.243702 0.038585
v -0.102517 -0.255207 0.024359
v 0.115820 -0.139586 0.240740
v 0.091450 -0.161115 0.227376
v 0.123436 -0.137626 0.245547
v 0.105609 -0.171325 0.239382
v -0.175974 -0.112915 0.056246
v -0.134758 -0.084943 0.057093
v -0.243145 -0.168282 0.046557
v -0.236896 -0.170771 0.049778
v -0.132308 -0.282044 -0.133297
v -0.162772 -0.297005 -0.094181
v -0.080993 0.042077 0.012754
v -0.076714 0.012898 0.036189
v -0.061464 0.042588 0.036630
v 0.230011 0.020233 -0.020357
v 0.228294 0.021178 -0.010722
v 0.234785 0.009444 -0.010513
v 0.084929 0.141085 0.068964
v 0.011315 -0.280647 -0.025751
v 0.033480 -0.281179 -0.025412
v 0.179077 0.088192 -0.156200
v 0.184642 0.050602 -0.169268
v 0.162707 0.078078 -0.184584
v -0.114869 -0.295005 -0.078320
v -0.074768 -0.289397 -0.064760
v 0.073755 0.020006 -0.240746
v 0.070453 0.024363 -0.239253
v -0.191864 -0.269787 0.011987
v -0.165952 -0.251635 0.032990
v 0.075727 0.051089 -0.231992
v 0.111031 0.158443 0.055403
v -0.102314 0.083568 -0.098364
v -0.260516 -0.088725 -0.114099
v -0.267827 -0.096706 -0.112632
v 0.270441 -0.102215 0.201623
v 0.263305 -0.076123 0.179684
v 0.240381 -0.083666 0.214289
v 0.257430 -0.075283 0.185009
v 0.031138 -0.171721 -0.244313
v 0.031696 -0.177049 -0.241721
v 0.020049 -0.169583 -0.244554
v 0.004200 -0.040411 -0.243686
v 0.257111 -0.259102 0.158340
v 0.256179 -0.259469 0.161393
v 0.255424 -0.260523 0.159629
v 0.182464 -0.074209 0.231054
v -0.280006 -0.241320 -0.103191
v -0.270325 -0.224239 -0.135791
v -0.255318 -0.252200 -0.126224
v 0.153576 -0.264181 -0.040630
v 0.141595 0.054948 0.068800
v 0.121250 0.021434 0.098655
v 0.113752 0.038176 0.086817
v 0.068602 -0.020383 0.130416
v 0.068460 -0.021869 0.131395
v 0.069484 -0.021076 0.131223
v 0.129028 0.006602 0.112828
v -0.276870 -0.211190 0.015344
v -0.040858 0.166813 0.036628
v -0.033459 0.167917 0.042668
v -0.047949 0.209770 0.020799
v -0.042093 0.208505 0.026126
v -0.193719 -0.053832 0.001483
v -0.007711 -0.248637 -0.174184
v -0.006378 -0.254029 -0.164058
v -0.041048 -0.252388 -0.172100
v -0.044981 -0.261688 -0.156440
v -0.021785 0.156425 -0.181702
v 0.008808 0.164799 -0.192403
v 0.229049 -0.072118 0.209654
v 0.227635 -0.079572 0.219234
v 0.156079 0.072342 -0.194476
v 0.137549 0.046863 -0.217580
v 0.132992 0.088618 -0.205086
v 0.250302 -0.026450 0.060003
v 0.261565 -0.045695 0.097928
v 0.228442 -0.022156 0.116142
v 0.257456 -0.055670 0.147426
v 0.230611 -0.045002 0.165201
v -0.120796 -0.224461 -0.198284
v -0.130724 -0.208108 -0.205993
v 0.086734 -0.277177 0.103723
v 0.205820 0.085822 -0.054730
v -0.066385 -0.153855 -0.231235
v -0.031315 -0.124985 -0.241314
v -0.066881 -0.153693 -0.231148
v -0.045585 0.148713 -0.168988
v -0.069007 0.181182 -0.127301
v -0.044304 0.190446 -0.153059
v 0.283890 -0.113506 0.032374
v 0.272273 -0.065940 0.039243
v -0.193416 -0.032372 -0.117090
v -0.190272 -0.025494 -0.090098
v 0.127323 0.186468 0.035196
v 0.150626 0.133687 0.028887
v 0.047606 0.260508 0.037547
v -0.106875 0.008990 0.000919
v -0.112189 -0.002379 0.007128
v -0.097271 0.005040 0.017267
v 0.088264 0.268923 -0.126142
v 0.102692 0.264491 -0.122436
v 0.094376 0.262651 -0.131203
v -0.155324 -0.266101 0.016595
v -0.189857 -0.270554 0.011153
v -0.006153 -0.129313 -0.246777
v -0.013290 -0.086017 -0.245940
v 0.022442 -0.126827 -0.253611
v 0.190423 -0.091589 0.244390
v 0.197906 -0.111699 0.253549
v -0.127792 -0.104967 0.066074
v -0.078099 -0.282476 -0.115307
v 0.228302 -0.052792 0.182367
v 0.229479 -0.008705 -0.099955
v -0.059477 -0.272281 -0.002854
v 0.262984 -0.056630 0.136872
v -0.185407 -0.024340 -0.062523
v -0.044257 0.213785 0.022746
v -0.141220 -0.004359 -0.035398
v 0.265768 -0.078129 0.178123
v 0.263856 -0.075483 0.177183
v 0.014485 0.297435 -0.052837
v -0.056355 0.219889 -0.119291
v -0.048991 0.209960 -0.137059
v -0.070393 0.182109 -0.124279
v -0.063438 -0.132663 0.085561
v -0.000042 0.251962 0.030511
v -0.164493 -0.217818 -0.196077
v -0.030807 -0.184048 0.084068
v -0.048220 -0.235864 -0.194262
v -0.055611 -0.240751 -0.188750
v -0.058397 -0.261522 -0.160461
v 0.063331 0.206143 -0.183534
v 0.000257 0.250359 0.031782
v 0.025741 0.212319 0.059488
v 0.000481 0.250890 0.031587
v 0.025828 0.212467 0.059439
v -0.218931 -0.211440 0.053017
v -0.069266 -0.001953 0.050687
v -0.055863 0.028321 0.048401
v 0.224283 -0.214376 -0.060052
v 0.224384 -0.227039 -0.034807
v 0.022833 0.294165 -0.024431
v 0.203679 -0.015961 0.127759
v 0.126821 0.188042 0.035171
v 0.129212 0.223873 0.014145
v 0.100257 0.215390 0.044742
v 0.157706 -0.098309 -0.241705
v 0.164672 -0.092980 -0.237735
v 0.213317 -0.257723 0.013501
v -0.032571 -0.256543 0.026929
v -0.053341 -0.271221 -0.000608
v 0.247651 -0.203071 -0.026316
v 0.240834 -0.224110 -0.007269
v 0.185903 -0.189194 -0.173897
v -0.026845 -0.160778 0.095560
v -0.109260 -0.145179 -0.220632
v -0.129765 -0.160648 -0.215301
v -0.142771 -0.122438 -0.208567
v -0.102071 0.068809 -0.128122
v -0.118924 0.037591 -0.125252
v -0.110473 0.059319 -0.101247
v 0.096345 0.249612 0.025791
v 0.091756 -0.269963 -0.076780
v 0.141417 -0.257540 -0.076833
v -0.172456 -0.192372 -0.201296
v 0.087664 -0.107218 -0.260009
v 0.052802 -0.104064 -0.259866
v 0.078442 -0.064671 -0.259378
v 0.136500 0.255702 -0.033572
v 0.140529 0.258440 -0.069673
v 0.125019 0.274494 -0.061326
v -0.131348 0.019529 -0.126189
v -0.057753 0.249230 -0.053888
v -0.059855 0.234194 -0.011214
v -0.045495 0.252572 -0.011782
v 0.124613 -0.286315 0.036141
v 0.131496 -0.290251 0.085246
v -0.234532 -0.215919 -0.167593
v -0.248308 -0.212219 -0.160769
v -0.233351 -0.209729 -0.171581
v 0.177741 -0.015335 0.138394
v 0.294926 -0.122885 0.069974
v -0.291241 -0.173444 -0.130466
v -0.125573 0.010883 -0.036792
v 0.109083 -0.276201 -0.034994
v -0.269752 -0.215442 -0.140704
v -0.272242 -0.164189 -0.151598
v -0.264505 -0.272090 -0.057244
v 0.171680 -0.242964 -0.083001
v 0.176818 -0.240706 -0.082121
v 0.033339 0.297891 -0.081955
v -0.142704 -0.167727 -0.212024
v -0.117627 -0.179426 -0.216061
v 0.275498 -0.133269 -0.003324
v 0.272854 -0.104126 -0.005226
v 0.201817 -0.217753 -0.097106
v 0.203562 -0.216150 -0.097339
v 0.059409 -0.130734 -0.257916
v 0.058697 -0.196432 0.179775
v 0.081986 -0.201930 0.212745
v -0.243086 -0.265447 -0.121064
v -0.264570 -0.261590 -0.099438
v -0.253133 -0.272553 -0.096821
v 0.250722 -0.142829 -0.081190
v 0.253574 -0.132206 -0.073464
v 0.305446 -0.172771 0.142628
v 0.300979 -0.191774 0.139015
v 0.305060 -0.169759 0.128428
v -0.020667 0.282653 -0.065169
v 0.044622 -0.271205 -0.099861
v 0.044618 -0.271691 -0.097903
v 0.043621 -0.271440 -0.099424
v 0.295855 -0.190001 0.093825
v -0.018588 0.093510 0.059346
v -0.037593 0.094393 0.046400
v 0.205679 -0.061991 0.209891
v -0.107209 -0.214250 0.058210
v 0.191455 -0.056647 -0.211804
v -0.104027 -0.236299 0.043479
v -0.285820 -0.238167 -0.090356
v -0.033965 -0.272907 -0.126430
v -0.070216 0.213341 -0.012409
v -0.144677 -0.008304 -0.148356
v -0.156170 -0.000545 -0.104849
v -0.160990 -0.004638 -0.104777
v -0.191468 -0.176175 0.064164
v -0.231541 -0.169466 0.052144
v -0.018539 -0.266323 0.014680
v -0.056451 -0.098157 -0.233482
v 0.200303 -0.217731 -0.099921
v 0.202275 -0.216748 -0.098833
v 0.172553 -0.238788 -0.093858
v 0.180968 -0.236576 -0.086183
v -0.245729 -0.071850 -0.019185
v -0.212941 -0.239268 -0.167222
v -0.230618 -0.247543 -0.152255
v -0.228981 -0.240952 -0.157120
v 0.154786 0.138903 -0.164954
v 0.160074 0.126624 -0.164774
v -0.218353 -0.144736 -0.183950
v -0.190805 -0.103381 -0.184909
v -0.185932 -0.134578 -0.196109
v -0.017373 0.131890 0.057022
v -0.016414 0.132398 0.057483
v -0.018403 0.133908 0.056282
v 0.034455 -0.273126 0.028960
v 0.035833 -0.273004 0.031098
v 0.253856 -0.130899 0.234543
v 0.248150 -0.119452 0.234193
v 0.236773 -0.193630 -0.067612
v 0.243780 -0.179871 -0.068182
v 0.245419 -0.193155 -0.047148
v -0.096745 -0.048892 0.057145
v -0.085701 -0.072345 0.071513
v -0.082708 -0.043172 0.062453
v -0.074486 0.097561 -0.160379
v -0.072153 0.105136 -0.160052
v -0.103707 0.079930 -0.083597
v -0.105313 0.073749 -0.095120
v 0.083116 -0.244895 -0.155435
v 0.111928 -0.236021 -0.162193
v 0.126164 -0.247106 -0.122973
v -0.191547 -0.297435 -0.085857
v 0.059552 -0.155148 0.190463
v 0.059519 -0.155336 0.190427
v 0.083741 -0.148719 0.217898
v 0.084407 -0.158153 0.220066
v -0.066254 0.140683 -0.151857
v 0.161256 -0.104068 -0.238640
v -0.084198 -0.267084 -0.154492
v 0.185769 0.048043 0.045209
v 0.183041 0.046963 0.048823
v 0.187038 0.043577 0.048537
v 0.269300 -0.140385 -0.022082
v 0.260153 -0.133505 -0.052741
v 0.261819 -0.094747 -0.042825
v -0.147827 -0.041115 -0.175138
v -0.151597 -0.060588 -0.186681
v 0.213499 -0.167402 0.259866
v 0.206275 -0.139091 0.259327
v 0.092224 0.260526 0.017943
v -0.248943 -0.155199 -0.168283
v 0.125044 -0.132386 0.244691
v 0.130638 -0.137951 0.248348
v 0.109836 -0.246985 0.202337
v 0.098146 -0.203827 0.229450
v -0.192454 -0.270358 0.011327
v -0.097366 0.082494 -0.127751
v -0.143818 -0.013309 -0.156128
v -0.127166 -0.027829 -0.182470
v -0.208311 -0.037469 -0.065754
v 0.000390 0.254904 -0.146424
v -0.037651 0.257600 -0.105148
v 0.000909 0.275645 -0.124930
v -0.051916 -0.286018 -0.076575
v -0.025296 -0.073376 0.102803
v -0.032876 -0.045157 0.091388
v -0.036568 -0.020177 -0.227002
v -0.053228 -0.049034 -0.227616
v -0.057720 -0.006489 -0.214464
v -0.034700 -0.097282 0.099975
v -0.035904 -0.087559 0.098875
v -0.051665 -0.130975 0.090211
v -0.052102 -0.122513 0.090337
v 0.237229 -0.007103 -0.064652
v 0.238286 -0.006919 -0.057602
v 0.247951 -0.027647 -0.038626
v 0.248680 -0.025070 -0.026405
v -0.000022 0.251224 0.031148
v -0.226312 -0.268618 0.003314
v -0.041571 0.253177 -0.104905
v -0.062126 0.226466 -0.099654
v 0.279628 -0.148942 0.014017
v 0.271687 -0.183944 0.010190
v 0.173076 -0.014148 -0.216427
v 0.191801 -0.009681 -0.192238
v -0.246275 -0.284864 -0.065872
v 0.142182 0.080219 0.056161
v 0.071315 0.194570 0.064862
v 0.025938 0.211477 0.059735
v 0.025902 0.212188 0.059547
v -0.115106 0.024864 -0.037042
v -0.096018 0.027062 0.000734
v -0.247143 -0.065297 -0.054210
v 0.236134 -0.101476 0.231350
v 0.150601 -0.241065 -0.115112
v 0.160586 -0.231249 -0.128643
v -0.100993 -0.175187 -0.220187
v 0.124590 0.266310 -0.028451
v -0.099611 -0.110298 -0.221025
v -0.067127 -0.153719 -0.231083
v -0.168001 -0.035970 -0.004239
v 0.259233 -0.039070 0.052620
v 0.078397 -0.020853 -0.251015
v 0.133833 -0.058456 0.197376
v 0.090746 0.262813 -0.133229
v 0.080136 -0.163956 0.215194
v 0.250722 -0.025427 0.047346
v 0.238690 -0.009766 0.052690
v 0.246154 -0.020404 0.056555
v 0.157157 0.187588 -0.003310
v 0.155296 0.184890 0.001855
v -0.014013 -0.091893 0.113095
v 0.261184 -0.207395 0.223882
v 0.001379 -0.251746 -0.166943
v 0.254249 -0.146014 -0.067243
v 0.054917 0.134947 -0.209199
v 0.057137 0.146938 -0.205890
v 0.074603 0.134081 -0.208957
v -0.122233 -0.292045 -0.104184
v -0.293849 -0.129604 -0.016552
v -0.150237 -0.252816 -0.175193
v 0.263389 -0.072408 0.171970
v 0.270507 -0.065431 0.138129
v 0.083277 -0.283508 0.017444
v 0.096578 -0.285133 0.056478
v -0.021875 0.025174 0.073169
v -0.018675 0.016765 0.077546
v -0.000096 0.050908 0.075340
v 0.014573 0.044006 0.082228
v -0.090636 -0.034476 0.052882
v -0.100550 -0.044368 0.051968
v 0.213856 -0.274399 0.062522
v 0.003357 0.287524 -0.104364
v 0.182597 0.156179 -0.047381
v 0.166785 -0.199797 0.258576
v -0.194831 -0.142705 0.059768
v -0.176730 -0.130867 0.061669
v 0.050418 -0.216928 -0.212381
v 0.046251 -0.201565 -0.228073
v 0.126442 0.134548 -0.192238
v 0.177233 0.148968 -0.021862
v 0.188311 0.111385 -0.016788
v 0.189810 0.112886 -0.022872
v -0.228619 -0.084139 -0.148412
v -0.109035 -0.036355 -0.198341
v -0.103368 -0.053386 -0.207562
v 0.124218 -0.256260 0.202546
v 0.115212 -0.260905 0.187273
v 0.143807 -0.267140 0.199624
v 0.146193 -0.278291 0.179658
v 0.012741 -0.185009 -0.235965
v 0.295767 -0.148481 0.064081
v 0.291283 -0.173717 0.059857
v 0.117109 -0.204293 0.242996
v 0.055472 0.242267 0.049832
v 0.062884 0.221760 0.058380
v -0.130344 0.023406 -0.082639
v -0.023799 0.280420 -0.068388
v -0.130795 0.020569 -0.075479
v -0.243535 -0.240311 0.024610
v -0.261882 -0.247100 0.001323
v -0.231462 -0.262577 0.008140
v 0.097413 -0.125914 0.223412
v 0.101537 -0.115712 0.222244
v 0.095080 -0.115468 0.216920
v 0.207385 0.081122 -0.052491
v 0.190378 0.107570 -0.018277
v -0.177502 -0.028621 -0.030065
v -0.019260 -0.029139 -0.235012
v 0.236676 -0.007061 -0.068455
v 0.183928 -0.132492 -0.215514
v 0.227843 0.010925 0.026182
v 0.249988 -0.022094 0.008917
v 0.105492 -0.059937 -0.257034
v 0.254957 -0.138543 -0.068176
v 0.150367 0.238310 -0.038858
v -0.075217 -0.093382 0.080765
v -0.074767 -0.089868 0.080621
v 0.177114 0.168903 -0.099272
v -0.238320 -0.235063 0.031379
v -0.202036 -0.237946 0.042393
v -0.292410 -0.121043 -0.088766
v -0.297394 -0.122562 -0.068145
v -0.269982 -0.244261 -0.006314
v -0.267272 -0.248523 -0.007318
v 0.020427 0.052561 0.081224
v 0.030121 0.099964 0.074683
v 0.002425 0.095108 0.068576
v 0.100737 -0.245271 0.194262
v 0.207372 0.080997 -0.054862
v 0.108876 0.021268 -0.237010
v 0.135775 0.042256 -0.220166
v -0.097854 0.003256 -0.186699
v -0.072200 0.038586 -0.188470
v -0.064568 -0.003316 -0.210291
v -0.191342 -0.222587 -0.185876
v -0.014557 -0.279213 -0.021447
v -0.023024 -0.272994 -0.002240
v -0.057657 0.098228 0.026095
v -0.190316 -0.178056 0.064128
v -0.189199 -0.176324 0.064571
v -0.216261 -0.182755 -0.186171
v -0.180595 -0.160806 -0.201082
v -0.207560 -0.187195 -0.189479
v 0.087424 -0.258631 0.154741
v 0.108216 0.021586 -0.237051
v 0.108005 0.021956 -0.237018
v -0.035002 -0.284093 -0.064697
v -0.023347 -0.282739 -0.041775
v -0.049349 -0.283234 -0.036557
v 0.193744 0.122098 -0.055801
v 0.278008 -0.143947 0.217219
v 0.299138 -0.156984 0.188815
v 0.279130 -0.126753 0.208187
v -0.057279 -0.271832 -0.002057
v 0.058226 0.106718 0.075417
v 0.101614 -0.270525 0.148201
v 0.167409 0.141850 0.002321
v -0.081611 0.151191 -0.021772
v -0.073345 0.103832 0.002536
v 0.256238 -0.133055 -0.065501
v 0.219331 -0.177713 -0.130976
v 0.225600 -0.156613 -0.140428
v 0.269139 -0.079878 0.173471
v -0.126564 0.028463 -0.079246
v -0.109242 0.061435 -0.082816
v -0.016396 -0.015175 0.090095
v -0.019884 0.007738 0.080073
v -0.029909 -0.023158 0.085624
v 0.066135 -0.062595 0.160063
v 0.168366 0.118133 -0.157228
v 0.092444 -0.069021 0.183882
v 0.093458 -0.080549 0.193736
v 0.158103 0.100134 -0.179601
v 0.124180 0.118097 -0.200022
v 0.123970 -0.273791 -0.030743
v 0.055301 -0.277123 -0.065901
v 0.045809 -0.271114 -0.099567
v -0.207130 -0.244469 0.035840
v 0.135637 0.044835 -0.219370
v 0.122086 0.092046 -0.209657
v 0.071388 -0.122336 0.197704
v 0.074499 -0.104499 0.192683
v 0.119491 0.095908 -0.209629
v 0.122117 0.096389 -0.208263
v 0.033860 -0.128757 0.157590
v 0.070133 -0.020935 0.131394
v 0.069646 -0.020590 0.130870
v 0.172126 -0.106962 -0.230637
v 0.155004 -0.121434 -0.239060
v 0.158019 -0.144779 -0.230730
v -0.066774 -0.154050 -0.231121
v -0.066948 -0.153790 -0.231118
v -0.277161 -0.251455 -0.089987
v -0.219042 -0.216245 -0.176344
v -0.005490 -0.137288 0.117770
v -0.001117 -0.144650 0.120698
v -0.024028 -0.011963 -0.229466
v -0.201321 -0.238201 0.042354
v -0.200703 -0.237903 0.042696
v -0.201150 -0.237490 0.042859
v -0.046643 0.216397 0.019103
v -0.023821 -0.217276 0.069427
v 0.133310 -0.091029 0.228276
v 0.154890 -0.106284 0.246855
v 0.039810 0.275355 -0.133069
v 0.261363 -0.072716 0.176787
v 0.054424 -0.230709 -0.194685
v 0.023821 -0.244558 -0.176341
v 0.082628 0.265072 -0.134735
v 0.128155 0.186837 0.034261
v 0.174473 -0.292708 0.133452
v 0.286512 -0.113412 0.186179
v -0.147935 -0.063961 -0.190636
v -0.105539 -0.273152 -0.147207
v 0.120098 -0.287670 0.055262
v 0.294612 -0.195886 0.176033
v 0.286641 -0.218443 0.167859
v 0.296252 -0.202575 0.149474
v -0.060387 0.000962 -0.210945
v -0.068554 0.039543 -0.190596
v 0.098931 0.260049 0.013418
v 0.198207 -0.100769 -0.207288
v 0.171532 0.192138 -0.045792
v 0.182697 0.162986 -0.073535
v 0.165685 0.207679 -0.088101
v -0.303428 -0.174549 -0.023341
v -0.300867 -0.151706 -0.019131
v -0.302753 -0.135606 -0.067235
v 0.005335 -0.245536 -0.177446
v 0.077132 -0.085931 0.184553
v 0.075411 -0.072415 0.174153
v -0.037425 -0.219169 -0.209249
v -0.008322 -0.221850 -0.208736
v 0.034915 -0.271988 0.034777
v 0.051191 -0.267945 0.070390
v 0.040446 -0.260010 0.074895
v 0.219806 -0.126953 -0.171071
v 0.195587 -0.194939 0.259525
v 0.148360 0.048600 0.070550
v 0.171081 0.050562 0.055355
v 0.148600 0.058313 0.063760
v -0.190039 -0.173180 0.064551
v 0.221585 -0.276204 0.187340
v -0.052900 -0.272568 -0.003422
v -0.189969 -0.276702 -0.135534
v -0.186860 -0.280209 -0.132049
v -0.054120 -0.139568 0.087559
v 0.303351 -0.133468 0.109674
v 0.235359 -0.000769 -0.063434
v 0.147040 -0.186798 -0.210881
v 0.183373 0.054279 0.041404
v 0.015237 -0.019638 0.106955
v 0.021356 0.008762 0.097123
v -0.010782 -0.007147 0.089838
v 0.045589 -0.071365 -0.257756
v 0.175941 -0.054699 -0.227531
v 0.163292 -0.126407 0.256462
v -0.066988 -0.153687 -0.231123
v -0.233681 -0.203625 -0.173067
v -0.225771 -0.197693 -0.179074
v 0.200783 0.058824 -0.128121
v 0.215701 0.045724 -0.087462
v 0.101146 -0.106914 0.217384
v -0.000278 0.250572 0.031495
v 0.008759 0.295753 -0.076075
v -0.160749 -0.102144 -0.197802
v 0.070131 -0.020636 0.131154
v 0.075613 0.012269 -0.242747
v -0.079766 -0.089559 0.078322
v 0.184376 -0.002602 0.115517
v -0.232613 -0.054944 -0.079330
v 0.091114 0.260548 -0.135731
v 0.235350 -0.117965 -0.134191
v -0.076626 0.191077 -0.015113
v -0.200951 -0.238468 0.042222
v 0.162817 -0.108653 0.249585
v 0.031629 -0.225536 -0.204135
v 0.033644 -0.208328 -0.222934
v 0.194298 -0.028538 0.157816
v -0.067199 -0.153999 -0.231032
v 0.267140 -0.063514 0.013161
v 0.259530 -0.041005 0.023961
v 0.259469 -0.047197 -0.000866
v -0.195099 -0.247510 -0.168653
v -0.219230 -0.249334 -0.156763
v -0.028115 -0.242362 0.046636
v -0.055299 -0.061000 -0.229155
v -0.161104 -0.118019 0.062037
v 0.151231 0.083480 0.049014
v 0.078886 0.166512 0.067995
v 0.035408 -0.190933 0.146804
v 0.031988 -0.157310 0.153869
v -0.009483 0.193288 0.052926
v -0.005731 0.188319 0.056021
v -0.002508 0.193391 0.055905
v 0.043464 -0.221754 0.135840
v 0.016150 -0.078691 -0.251848
v -0.085975 0.050839 -0.000668
v 0.259478 -0.210824 0.223312
v 0.258813 -0.239951 0.198680
v 0.258422 -0.207369 0.226402
v -0.238536 -0.253885 -0.140935
v 0.152082 0.080213 -0.194074
v -0.016252 0.136280 0.057091
v 0.037141 0.171274 0.069284
v 0.069778 -0.021677 0.131843
v 0.093655 0.254863 0.022828
v 0.032850 -0.167504 -0.246420
v 0.066867 -0.156854 -0.252189
v 0.037238 -0.172765 -0.244581
v 0.033117 -0.004133 0.106750
v 0.056680 0.018738 0.099470
v -0.002043 -0.278932 -0.089015
v 0.132340 -0.056270 -0.250930
v 0.212561 0.058022 -0.082482
v 0.119064 -0.281193 0.142613
v -0.000276 -0.219496 -0.211295
v -0.005281 -0.204293 -0.221594
v 0.091327 -0.260774 -0.109062
v -0.012299 -0.282080 -0.067891
v -0.025354 -0.282407 -0.084125
v 0.171558 -0.149262 0.262303
v 0.196857 -0.019103 -0.188276
v 0.045136 -0.271088 -0.100070
v 0.262330 -0.074649 0.178647
v 0.011057 -0.215127 0.098642
v 0.011931 -0.225092 0.089978
v 0.294083 -0.103255 0.145932
v -0.220855 -0.048231 -0.096853
v 0.208782 0.057997 -0.009785
v 0.174501 0.058239 0.047030
v 0.223424 -0.242974 -0.000399
v -0.104790 -0.020576 0.034014
v 0.003954 -0.185670 0.110449
v 0.022448 0.034604 0.087675
v -0.239165 -0.204154 -0.169743
v 0.111985 0.060732 -0.223821
v 0.072358 0.216766 -0.176332
v 0.111667 0.218442 -0.160730
v 0.098795 0.259588 -0.132090
v 0.093385 0.261398 -0.133455
v -0.060391 -0.061271 -0.227380
v -0.063369 -0.057235 -0.225528
v -0.054047 -0.201649 -0.219965
v -0.229658 -0.105537 -0.162873
v -0.193546 -0.078718 -0.171787
v -0.057148 -0.272384 -0.003204
v 0.079220 0.025278 0.097356
v -0.148767 -0.071056 -0.193566
v -0.144055 -0.069258 -0.194902
v 0.256852 -0.257868 0.165811
v 0.254417 -0.261142 0.161347
v -0.045794 -0.283648 -0.089860
v 0.125939 0.262557 -0.098233
v 0.191302 0.132701 -0.068763
v 0.276011 -0.222893 0.190720
v 0.107796 0.021081 -0.237275
v 0.107766 0.021704 -0.237111
v 0.245643 -0.021667 0.065209
v 0.177641 0.090480 0.018609
v -0.183427 -0.173651 0.065528
v 0.110975 -0.124157 -0.255063
v -0.056965 0.051291 0.038714
v 0.030398 0.295356 -0.092576
v -0.059150 0.184986 0.014734
v -0.103578 -0.076681 -0.213462
v -0.142258 -0.065774 -0.194720
v 0.276471 -0.233785 0.107453
v 0.004433 -0.281328 -0.029932
v -0.046237 0.160195 0.032575
v -0.064440 0.166363 0.010866
v -0.061357 0.148503 0.017239
v -0.039597 0.026983 -0.212061
v -0.031234 0.050840 -0.208696
v -0.008553 0.020870 -0.225876
v 0.096826 0.199693 0.052501
v 0.108465 0.177298 0.052268
v -0.104756 -0.256931 -0.171743
v -0.084826 -0.254423 -0.173602
v -0.103303 -0.242516 -0.187915
v -0.096070 -0.210590 -0.209348
v -0.070710 0.178819 -0.125838
v -0.157041 -0.148187 0.068021
v 0.116107 -0.171709 -0.237975
v 0.116106 -0.171718 -0.237971
v 0.153313 -0.104675 -0.242983
v -0.099455 -0.249472 -0.180481
v -0.146267 -0.235988 0.046526
v -0.145613 -0.232497 0.048888
v 0.215929 0.026155 0.029397
v 0.160152 -0.148087 0.260329
v 0.274259 -0.237057 0.116113
v -0.135049 -0.198931 -0.208035
v -0.237457 -0.096983 -0.150901
v -0.243360 -0.108093 -0.153550
v 0.119127 0.089047 -0.212068
v 0.257287 -0.141453 -0.059608
v -0.248242 -0.236680 -0.146724
v 0.306597 -0.141274 0.138323
v 0.070284 -0.020171 0.130736
v 0.059428 -0.155264 0.190310
v -0.142143 -0.233971 0.047642
v -0.143500 -0.230701 0.049838
v 0.116937 0.218368 -0.156836
v 0.128196 0.217017 -0.147355
v 0.119195 0.215059 -0.157500
v 0.168112 0.130360 -0.148468
v -0.008731 0.198345 0.051738
v -0.231471 -0.145693 0.047596
v -0.222234 -0.160394 0.054540
v -0.016813 0.131803 0.057330
v 0.115801 -0.133716 -0.251900
v 0.238627 -0.130552 0.244226
v 0.238652 -0.122527 0.241774
v -0.162329 -0.297054 -0.051737
v -0.165074 -0.296781 -0.049212
v 0.297261 -0.112583 0.151142
v 0.179422 -0.259729 0.220565
v 0.179918 -0.257317 0.223585
v 0.136527 -0.255167 0.212327
v 0.305242 -0.149722 0.166955
v -0.074152 0.209224 -0.086894
v -0.088840 0.159062 -0.067929
v -0.190725 -0.208243 0.059876
v -0.161874 -0.296668 -0.048361
v 0.226857 0.026494 -0.049445
v -0.073927 -0.210506 -0.212292
v -0.084541 -0.229364 -0.198987
v 0.153904 -0.013697 -0.230799
v 0.118661 -0.016921 -0.245667
v -0.138460 -0.270508 0.009439
v -0.195544 -0.231014 -0.180313
v 0.114170 -0.255407 0.194647
v 0.106588 -0.251630 0.192833
v -0.052742 -0.015990 0.069137
v 0.118868 0.246135 -0.128958
v 0.117585 0.222920 -0.152583
v 0.246234 -0.052605 -0.076977
v -0.057555 0.249374 -0.054788
v -0.025551 0.279039 -0.062790
v 0.261029 -0.073486 0.178689
v 0.058762 0.236505 -0.166919
v -0.029740 0.162070 0.046112
v -0.034537 0.158002 0.043062
v 0.009295 0.185335 0.061361
v 0.159393 -0.019472 -0.229279
v -0.014611 -0.125076 0.111926
v -0.000080 -0.098423 0.123344
v -0.087500 0.071359 -0.156969
v 0.210820 -0.288510 0.136501
v 0.217668 -0.284345 0.165290
v -0.219823 -0.294077 -0.076300
v -0.264077 -0.099982 -0.123440
v -0.281295 -0.140277 -0.134568
v -0.272582 -0.106562 -0.116948
v -0.283173 -0.140873 -0.132153
v 0.210777 -0.245019 -0.018425
v 0.201409 -0.258333 0.000712
v 0.213148 0.060037 -0.071141
v 0.035850 0.287655 -0.111445
v -0.108943 -0.249010 -0.180949
v -0.034400 -0.007594 -0.224356
v 0.030743 -0.270844 0.033485
v 0.001240 -0.255558 0.044117
v 0.012669 -0.247667 0.066350
v -0.007120 -0.236708 0.063176
v 0.159493 0.040242 -0.205500
v 0.163040 0.024631 -0.209359
v 0.159517 0.024630 -0.212390
v -0.232977 -0.245454 0.025587
v -0.269615 -0.137293 0.019176
v -0.278495 -0.149842 0.015814
v -0.251463 -0.153312 0.038065
v 0.129820 -0.173844 0.253035
v -0.026042 -0.139549 0.103256
v -0.130433 0.021925 -0.078114
v -0.138101 0.014711 -0.084343
v 0.069973 0.023728 0.097974
v -0.201107 -0.292488 -0.035821
v 0.007159 -0.280018 -0.075897
v -0.289492 -0.163011 0.003520
v 0.093752 -0.256192 0.168566
v 0.228212 -0.242556 0.007338
v 0.136040 0.043912 -0.219498
v 0.077896 0.253791 -0.148150
v 0.256334 -0.045711 -0.023510
v 0.178222 -0.292060 0.139370
v 0.169416 -0.282091 0.181324
v 0.222201 -0.197101 -0.095703
v 0.160933 -0.014010 -0.226266
v 0.077214 0.064324 -0.228367
v 0.090013 0.073181 -0.224464
v 0.077946 0.062506 -0.228889
v 0.125063 -0.282063 0.149069
v -0.029763 0.228099 -0.145032
v -0.235477 -0.162761 0.049516
v -0.023476 0.112992 -0.193942
v 0.232094 -0.039533 -0.116035
v -0.039703 0.154649 0.039417
v -0.102842 -0.273364 -0.002363
v -0.029720 0.227994 -0.145169
v -0.058116 0.248605 -0.055142
v -0.086132 -0.005162 0.038506
v -0.030462 0.066360 -0.204042
v -0.163912 -0.296385 -0.046803
v -0.159389 -0.295649 -0.043870
v -0.172484 -0.295815 -0.043417
v 0.230908 -0.009925 0.074248
v -0.080055 -0.096593 0.079365
v 0.105765 -0.114012 0.224677
v 0.231196 -0.025887 -0.109718
v 0.120324 0.137305 -0.194767
v 0.093391 0.140206 -0.204292
v -0.163558 -0.295131 -0.041163
v 0.159908 0.087352 0.040139
v 0.115623 0.216361 -0.159433
v 0.114351 0.220198 -0.157377
v -0.095321 0.079107 -0.135851
v -0.099850 0.048957 -0.151952
v -0.259866 -0.093717 -0.122109
v -0.023651 -0.236856 -0.191625
v 0.059473 -0.155449 0.190364
v 0.059377 -0.155390 0.190244
v 0.138421 -0.203144 0.252417
v 0.084567 -0.282768 0.059051
v 0.074282 -0.282826 0.018753
v -0.162523 -0.004862 -0.098287
v 0.176977 -0.292645 0.132939
v 0.061491 0.099910 -0.218802
v 0.063544 0.102632 -0.218021
v 0.062720 0.100109 -0.218768
v 0.093746 -0.255139 -0.123485
v 0.083016 -0.259059 -0.119261
v -0.021079 0.060335 -0.210181
v 0.157971 0.224614 -0.041054
v 0.153554 0.231356 -0.036644
v 0.017331 -0.281051 -0.032364
v 0.059417 -0.154944 0.190274
v -0.143800 -0.233148 0.048293
v -0.219958 -0.081590 0.016757
v -0.008569 0.020651 -0.225935
v 0.292493 -0.106954 0.160603
v -0.023187 0.113011 -0.194083
v -0.070212 -0.239770 -0.190021
v -0.244765 -0.095780 0.012532
v -0.285488 -0.170583 0.010907
v 0.074977 0.286048 -0.009335
v 0.103415 0.279436 -0.022557
v -0.023334 0.113191 -0.193953
v -0.092388 -0.123898 0.078305
v 0.153466 -0.161557 0.260064
v -0.094032 0.041239 -0.009215
v 0.262101 -0.066940 -0.018951
v 0.093179 -0.284360 0.064926
v -0.027816 0.013638 0.073462
v -0.022040 0.014667 0.076432
v 0.188384 0.108041 -0.013696
v 0.021470 -0.279973 -0.013809
v 0.076163 0.023377 -0.239712
v 0.262777 -0.074691 0.177847
v 0.103388 0.027850 -0.235794
v 0.262915 -0.252654 0.161099
v -0.299483 -0.134139 -0.035949
v 0.234603 -0.124752 -0.134779
v -0.010793 0.014235 0.081716
v -0.058421 0.248328 -0.054066
v -0.069238 0.052041 0.024218
v 0.234703 -0.120077 -0.135462
v -0.067482 -0.063678 -0.225185
v 0.030202 -0.062943 0.136588
v 0.001459 -0.073576 0.119504
v -0.029656 0.228175 -0.145079
v -0.224289 -0.254122 -0.149419
v -0.001176 -0.214960 0.087116
v 0.042062 0.054333 0.084005
v 0.062036 0.056233 0.084919
v 0.068204 -0.282038 0.013817
v -0.024014 0.054637 0.063389
v -0.099795 0.004005 -0.184747
v -0.101266 0.000328 -0.185801
v 0.174055 0.034576 -0.191760
v 0.301845 -0.174624 0.103935
v 0.298901 -0.195356 0.125243
v -0.229469 -0.260789 -0.138769
v -0.228671 -0.280075 -0.110373
v 0.186650 0.043907 -0.169697
v -0.198893 -0.064795 0.012035
v -0.223821 -0.092409 -0.158999
v 0.167310 0.022029 0.087818
v 0.162016 0.021218 -0.211773
v -0.301481 -0.138755 -0.082164
v -0.072278 0.041466 -0.187426
v 0.116347 0.094151 -0.211449
v 0.089017 0.125128 -0.209712
v 0.114036 -0.017097 -0.246805
v 0.010219 -0.091949 0.130916
v -0.008888 -0.053531 -0.242685
v 0.211283 0.003124 0.081442
v 0.220052 0.015810 0.040422
v 0.092150 0.256551 -0.139238
v 0.094334 0.259415 -0.135329
v 0.296325 -0.203849 0.136132
v 0.217424 0.048101 -0.071092
v 0.116112 -0.171715 -0.237970
v -0.282062 -0.142373 -0.134291
v -0.261802 -0.269358 -0.087829
v 0.026588 -0.245380 0.083371
v 0.176677 -0.292477 0.135773
v 0.146976 0.211620 -0.128567
v -0.008439 0.020810 -0.225930
v -0.008433 0.020880 -0.225913
v -0.116814 -0.243643 -0.185654
v 0.173967 -0.292200 0.137828
v 0.044458 -0.280808 -0.042388
v 0.037239 -0.279526 -0.062144
v -0.077067 0.209191 -0.043897
v -0.143843 -0.281376 -0.008371
v -0.132285 -0.276534 -0.001774
v 0.106034 -0.091736 -0.258686
v 0.144817 -0.094502 -0.247575
v 0.163935 0.200707 -0.031807
v 0.261066 -0.057761 -0.012767
v 0.111954 -0.283380 0.009265
v 0.157414 -0.282858 0.174623
v 0.129130 -0.135837 -0.247126
v -0.299393 -0.130565 -0.078066
v 0.244563 -0.262938 0.090122
v -0.238048 -0.283332 -0.036934
v -0.241827 -0.280009 -0.030718
v -0.232441 -0.272126 -0.006313
v -0.233869 -0.280915 -0.025879
v -0.219512 -0.287862 -0.032096
v -0.074847 0.178071 -0.116812
v -0.083330 0.184384 -0.076251
v 0.284575 -0.224392 0.159041
v 0.061212 0.101333 -0.218364
v 0.097525 0.130339 -0.206093
v -0.087303 0.167813 -0.069613
v -0.087065 0.166042 -0.079879
v 0.110721 0.007233 -0.240620
v 0.110852 -0.013314 -0.246322
v 0.202168 -0.097032 -0.202100
v 0.182907 0.042208 0.054527
v 0.123656 -0.235635 0.225213
v 0.241138 -0.123810 -0.115605
v 0.065650 -0.282071 -0.000660
v 0.050491 -0.281434 -0.023677
v 0.220295 0.043230 -0.036984
v 0.208395 0.078113 -0.052564
v -0.141825 -0.237088 0.045234
v 0.242926 -0.149783 -0.099421
v 0.255498 -0.183088 -0.032643
v -0.247758 -0.276955 -0.032655
v -0.259568 -0.260242 -0.014247
v 0.086304 -0.282531 0.066413
v 0.249830 -0.038273 -0.046704
v 0.183200 0.046228 -0.174100
v -0.054301 -0.235185 -0.194848
v -0.046137 -0.144909 0.089586
v -0.075639 0.037782 -0.186109
v 0.015679 -0.049028 0.121305
v 0.215320 -0.190720 -0.121035
v -0.029624 0.228116 -0.145149
v -0.265510 -0.126500 0.018271
v -0.291795 -0.115517 -0.037430
v 0.263918 -0.065803 -0.009059
v -0.037075 0.161888 0.040613
v -0.041916 0.048616 0.052599
v 0.132129 -0.119717 -0.249481
v 0.115046 -0.017408 -0.246678
v 0.114864 -0.016730 -0.246521
v 0.213449 0.059853 -0.036295
v 0.210888 -0.263534 0.026814
v 0.206281 0.000176 0.093652
v 0.214665 -0.002148 0.087567
v -0.049533 -0.042136 0.081101
v 0.271199 -0.184000 0.008898
v 0.030974 -0.278802 -0.070439
v 0.304735 -0.174160 0.153060
v -0.000929 0.250572 0.031182
v -0.235822 -0.112730 0.031495
v -0.048173 -0.228106 -0.200847
v 0.075530 -0.278743 0.069275
v -0.108622 0.017588 -0.167050
v 0.181563 -0.257479 0.223479
v 0.168235 -0.156219 0.261730
v 0.271653 -0.184707 0.010848
v -0.256174 -0.114889 0.018329
v 0.057385 0.244828 -0.160795
v 0.062457 0.242056 -0.161951
v 0.090607 0.228658 -0.161505
v 0.201410 -0.194042 -0.142987
v 0.195480 -0.202230 -0.139410
v -0.076304 0.209144 -0.072616
v -0.003624 0.198252 0.054103
v 0.025603 0.212347 0.059432
v 0.196007 -0.092490 -0.209779
v 0.043735 -0.279900 0.001565
v -0.074873 -0.083731 0.079472
v 0.173042 0.009962 0.101949
v 0.044887 -0.271265 -0.099473
v -0.049041 -0.215690 -0.211196
v -0.050239 0.007372 0.061111
v 0.062408 -0.114661 0.186151
v 0.158799 -0.277838 0.187332
v -0.001799 0.250666 0.030461
v -0.128821 0.023174 -0.075451
v -0.297772 -0.134895 -0.093489
v 0.030094 -0.276400 0.009971
v -0.238854 -0.065348 -0.107229
v -0.000550 0.251099 0.030945
v -0.282355 -0.141098 -0.133397
v 0.179724 0.007313 0.102814
v 0.200844 0.007236 0.086166
v 0.185919 0.040887 -0.172844
v -0.039286 -0.071849 0.094640
v 0.000541 0.198114 0.055537
v 0.025656 0.212139 0.059510
v 0.157150 0.018665 -0.216741
v 0.245624 -0.264410 0.100399
v -0.023166 0.113238 -0.194020
v -0.085815 0.175157 -0.063103
v -0.086807 0.167912 -0.060658
v 0.083066 -0.240325 0.176494
v 0.023584 -0.280435 -0.058034
v 0.170920 0.013883 -0.207000
v 0.199650 -0.093862 -0.205419
v 0.263376 -0.156761 -0.032747
v 0.238721 -0.013470 -0.066821
v 0.241461 -0.038322 -0.082279
v 0.191377 -0.201720 -0.146957
v 0.186292 -0.209882 -0.139801
v 0.141576 -0.231869 0.236551
v 0.296845 -0.123591 0.171247
v -0.276978 -0.170572 0.021043
v 0.161799 -0.233908 0.238285
v 0.237691 -0.043597 -0.100656
v 0.236178 -0.016862 -0.081123
v 0.236026 -0.120442 -0.132174
v 0.027910 0.044964 0.085027
v 0.256292 -0.165653 -0.047680
v -0.000842 0.251488 0.030439
v -0.008396 0.020710 -0.225966
v -0.071659 0.222907 -0.049087
v 0.073164 0.099400 -0.218611
v -0.009429 -0.145282 0.113033
v 0.062907 -0.097966 0.178751
f 1 3 2
f 4 5 6
f 7 8 9
f 10 11 12
f 13 14 15
f 16 17 18
f 19 20 21
f 22 23 24
f 26 27 28
f 29 30 12
f 36 37 38
f 41 42 43
f 44 45 46
f 47 48 49
f 54 55 56
f 59 60 23
f 65 67 66
f 68 69 70
f 72 73 74
f 82 83 84
f 85 68 86
f 87 88 89
f 92 93 94
f 95 97 96
f 98 99 100
f 62 101 102
f 104 105 106
f 105 107 106
f 108 109 110
f 109 111 110
f 86 70 114
f 115 116 117
f 118 119 74
f 121 122 123
f 122 124 123
f 125 126 127
f 128 129 130
f 131 132 133
f 132 134 133
f 136 137 138
f 139 140 141
f 142 143 144
f 143 145 144
f 146 147 97
f 125 148 149
f 150 151 152
f 153 154 155
f 156 157 158
f 159 160 161
f 162 163 164
f 165 166 167
f 168 169 170
f 171 172 173
f 172 174 173
f 153 155 175
f 121 176 122
f 179 180 181
f 182 183 184
f 186 187 53
f 189 190 191
f 192 193 194
f 46 79 80
f 153 200 76
f 201 202 203
f 20 204 21
f 205 206 207
f 31 211 32
f 212 124 213
f 80 215 216
f 218 197 198
f 219 220 221
f 220 222 221
f 223 58 224
f 225 226 227
f 39 228 40
f 229 45 230
f 232 233 234
f 233 235 234
f 236 124 237
f 124 212 237
f 238 239 240
f 241 66 242
f 243 244 245
f 244 246 245
f 247 248 125
f 249 160 250
f 251 7 252
f 253 74 119
f 254 61 102
f 255 117 256
f 259 260 261
f 260 42 261
f 131 195 262
f 263 264 265
f 266 268 267
f 77 269 78
f 153 270 154
f 273 50 274
f 275 276 277
f 279 280 281
f 282 283 284
f 283 285 284
f 74 286 287
f 178 289 288
f 290 164 163
f 291 164 290
f 292 293 294
f 295 296 297
f 106 299 300
f 301 302 303
f 304 305 271
f 56 307 306
f 308 309 17
f 309 18 17
f 310 56 55
f 298 53 311
f 146 312 214
f 155 313 314
f 315 316 317
f 316 318 317
f 319 320 321
f 322 64 63
f 323 324 325
f 327 328 329
f 189 128 190
f 330 100 99
f 264 331 187
f 310 307 56
f 334 335 336
f 339 340 341
f 340 342 341
f 88 343 89
f 344 345 346
f 345 347 346
f 348 250 349
f 350 351 317
f 352 353 354
f 31 355 356
f 357 359 358
f 360 361 275
f 40 228 363
f 26 364 365
f 364 366 365
f 368 369 367
f 195 196 337
f 370 371 32
f 372 232 373
f 374 52 375
f 377 378 379
f 380 381 382
f 108 383 384
f 385 386 387
f 392 204 20
f 393 238 156
f 394 150 152
f 120 395 356
f 397 341 342
f 53 298 186
f 316 399 400
f 402 403 404
f 403 368 404
f 80 405 46
f 254 102 406
f 407 361 278
f 409 346 410
f 346 411 410
f 161 160 412
f 413 414 415
f 414 416 415
f 417 289 178
f 293 418 294
f 418 419 294
f 372 5 4
f 98 420 421
f 62 422 401
f 423 359 357
f 424 425 426
f 171 173 286
f 231 428 427
f 272 199 137
f 429 192 33
f 280 279 430
f 279 431 430
f 432 433 421
f 8 251 434
f 435 408 135
f 436 437 438
f 439 440 441
f 167 442 30
f 443 444 176
f 445 361 407
f 446 447 448
f 449 450 451
f 258 227 362
f 305 151 271
f 255 452 440
f 453 454 455
f 456 194 457
f 458 459 460
f 370 32 462
f 391 305 304
f 444 465 176
f 466 463 467
f 76 200 75
f 100 469 470
f 248 471 208
f 472 437 473
f 467 459 466
f 474 475 370
f 476 477 98
f 477 420 98
f 259 364 26
f 329 481 482
f 481 483 482
f 35 485 484
f 486 487 488
f 489 62 401
f 453 455 101
f 490 491 492
f 493 202 57
f 19 496 20
f 497 80 79
f 281 280 499
f 68 500 69
f 250 160 159
f 26 365 386
f 347 345 501
f 374 311 52
f 503 5 504
f 5 505 504
f 8 7 251
f 506 507 417
f 107 105 508
f 510 511 512
f 511 513 512
f 153 76 514
f 515 516 517
f 37 518 519
f 520 521 522
f 523 524 525
f 34 198 197
f 47 526 527
f 136 528 529
f 346 409 344
f 114 70 71
f 530 531 532
f 456 192 194
f 533 534 535
f 536 95 537
f 538 214 539
f 540 541 542
f 544 545 546
f 545 547 546
f 280 215 499
f 52 311 53
f 428 549 427
f 550 411 391
f 497 499 215
f 551 552 553
f 554 555 556
f 95 536 97
f 557 558 6
f 561 254 376
f 345 113 501
f 563 284 564
f 46 45 229
f 480 565 566
f 308 567 384
f 429 25 188
f 7 9 24
f 4 232 372
f 439 441 568
f 441 539 568
f 557 569 13
f 569 570 13
f 89 396 571
f 572 573 574
f 391 575 305
f 9 542 541
f 576 207 577
f 578 579 580
f 581 582 583
f 582 584 583
f 388 351 326
f 7 24 23
f 36 38 81
f 585 586 587
f 586 588 587
f 406 589 376
f 368 367 548
f 590 111 567
f 39 140 139
f 86 68 70
f 591 402 592
f 474 593 594
f 595 596 498
f 598 52 53
f 599 601 600
f 461 196 21
f 391 411 501
f 602 603 168
f 347 501 411
f 604 514 88
f 605 351 388
f 312 146 539
f 146 568 539
f 542 607 606
f 54 56 50
f 450 149 451
f 608 473 436
f 473 437 436
f 609 451 127
f 109 567 111
f 610 611 436
f 371 613 31
f 63 614 448
f 131 615 21
f 380 382 616
f 547 617 480
f 479 129 480
f 618 619 620
f 358 395 357
f 495 523 525
f 621 11 622
f 8 607 9
f 581 623 582
f 138 624 1
f 345 344 625
f 142 484 531
f 484 626 531
f 125 380 247
f 627 628 629
f 214 147 146
f 391 630 290
f 456 33 192
f 513 100 470
f 330 465 444
f 162 632 163
f 593 474 370
f 108 384 109
f 384 567 109
f 451 609 449
f 395 633 634
f 635 456 636
f 218 239 197
f 637 638 639
f 638 640 639
f 496 351 20
f 351 350 20
f 641 642 533
f 641 533 535
f 65 193 643
f 543 164 291
f 647 648 173
f 648 286 173
f 649 650 91
f 38 37 651
f 475 371 370
f 476 98 100
f 652 653 654
f 430 508 105
f 233 655 235
f 6 655 233
f 426 425 442
f 425 30 442
f 494 523 495
f 656 657 14
f 658 659 660
f 659 661 660
f 518 37 36
f 662 260 321
f 593 663 664
f 665 285 566
f 666 416 667
f 668 440 452
f 573 669 644
f 312 539 214
f 464 670 398
f 386 365 509
f 671 672 673
f 674 675 676
f 94 677 678
f 360 278 361
f 161 412 257
f 196 195 21
f 396 89 679
f 680 579 578
f 393 156 681
f 156 158 681
f 78 269 682
f 96 97 147
f 422 61 208
f 613 355 31
f 619 618 683
f 618 684 683
f 448 614 685
f 484 686 626
f 450 687 266
f 414 600 601
f 583 584 688
f 584 689 688
f 105 104 48
f 104 49 48
f 204 359 423
f 691 692 178
f 175 693 694
f 357 395 120
f 695 696 672
f 697 698 699
f 480 129 700
f 363 677 701
f 702 221 703
f 221 222 703
f 146 97 568
f 704 705 706
f 61 422 62
f 667 416 414
f 406 102 101
f 445 407 707
f 365 366 509
f 708 106 709
f 106 107 709
f 462 663 370
f 711 712 506
f 713 714 715
f 189 716 128
f 717 718 221
f 719 720 721
f 363 228 722
f 723 724 725
f 279 726 431
f 12 30 425
f 10 12 424
f 12 425 424
f 17 567 308
f 40 363 701
f 598 53 187
f 362 728 189
f 729 653 652
f 569 557 5
f 326 496 19
f 326 351 496
f 484 732 686
f 351 605 317
f 363 654 677
f 654 678 677
f 77 734 733
f 400 399 735
f 668 736 440
f 736 441 440
f 539 441 737
f 736 737 441
f 738 739 740
f 140 742 519
f 743 262 741
f 132 743 744
f 262 743 132
f 37 745 746
f 745 354 746
f 465 747 213
f 748 491 443
f 491 749 443
f 590 567 750
f 567 17 750
f 353 751 354
f 751 752 354
f 9 607 542
f 753 676 754
f 755 756 752
f 172 171 119
f 533 74 287
f 723 1 724
f 336 758 759
f 760 682 761
f 682 762 761
f 306 307 310
f 338 695 672
f 695 338 71
f 695 71 70
f 69 696 70
f 633 395 358
f 763 764 364
f 500 327 765
f 255 256 452
f 256 503 452
f 460 766 517
f 766 515 517
f 225 227 457
f 240 156 238
f 767 768 757
f 680 578 769
f 770 771 772
f 239 596 240
f 773 341 397
f 546 547 283
f 774 216 215
f 775 776 326
f 574 777 572
f 359 778 358
f 778 633 358
f 112 780 779
f 777 247 781
f 247 380 781
f 380 616 781
f 374 782 424
f 375 782 374
f 755 746 756
f 444 469 100
f 783 457 194
f 399 316 784
f 316 315 784
f 169 210 209
f 558 13 785
f 290 786 391
f 163 786 290
f 457 787 456
f 788 789 790
f 791 706 792
f 706 705 792
f 561 166 793
f 610 436 438
f 682 760 794
f 795 645 796
f 87 89 571
f 797 268 266
f 798 799 800
f 86 800 85
f 625 344 801
f 802 803 185
f 750 17 16
f 308 384 309
f 384 383 309
f 774 408 216
f 804 41 805
f 41 43 805
f 806 807 808
f 794 809 78
f 810 272 559
f 811 812 813
f 648 647 814
f 182 815 183
f 721 708 152
f 708 816 152
f 612 378 398
f 817 162 818
f 331 264 333
f 819 583 405
f 821 295 586
f 295 297 586
f 434 251 822
f 513 470 512
f 1 624 3
f 497 215 80
f 92 823 93
f 823 551 93
f 824 825 206
f 825 826 206
f 447 827 448
f 595 498 828
f 564 829 563
f 829 776 563
f 611 830 764
f 831 832 460
f 833 834 157
f 744 835 134
f 796 690 797
f 4 6 233
f 233 232 4
f 589 836 415
f 628 159 161
f 159 627 51
f 521 838 522
f 151 575 721
f 575 719 721
f 839 759 758
f 201 57 202
f 477 143 420
f 530 420 143
f 64 614 63
f 64 840 614
f 390 841 287
f 369 348 367
f 797 690 139
f 337 461 842
f 633 400 735
f 232 154 843
f 843 154 87
f 154 270 87
f 604 87 153
f 87 270 153
f 616 844 781
f 730 210 731
f 845 198 34
f 770 847 771
f 18 847 16
f 315 317 529
f 317 605 529
f 848 389 388
f 259 28 260
f 91 650 90
f 849 850 779
f 850 649 779
f 649 850 650
f 779 649 23
f 23 649 91
f 851 423 461
f 851 204 423
f 449 609 29
f 764 852 611
f 371 853 854
f 853 855 854
f 681 158 821
f 180 524 699
f 32 371 31
f 162 856 632
f 817 857 162
f 857 856 162
f 652 622 729
f 858 280 430
f 431 508 430
f 575 151 305
f 859 386 509
f 286 860 287
f 598 861 52
f 158 157 834
f 298 311 862
f 175 694 153
f 694 200 153
f 865 866 867
f 191 808 807
f 822 269 434
f 762 682 269
f 168 870 169
f 667 442 666
f 436 611 608
f 611 852 608
f 3 624 871
f 872 871 184
f 871 873 184
f 184 873 199
f 624 873 871
f 138 873 624
f 137 873 138
f 199 873 137
f 481 329 874
f 847 18 771
f 444 100 330
f 141 140 518
f 875 303 352
f 464 378 377
f 876 525 524
f 548 537 96
f 877 599 600
f 878 741 262
f 879 167 166
f 880 881 882
f 883 884 825
f 492 885 113
f 857 516 515
f 373 571 396
f 303 875 745
f 40 887 833
f 557 13 558
f 362 227 888
f 889 43 890
f 262 132 131
f 804 805 409
f 190 130 868
f 822 762 269
f 443 891 444
f 345 625 113
f 89 343 612
f 885 892 893
f 130 129 479
f 559 894 810
f 451 149 127
f 895 596 239
f 254 406 376
f 490 113 896
f 318 316 897
f 625 780 112
f 625 801 780
f 851 461 21
f 851 21 204
f 854 684 618
f 190 898 899
f 820 211 900
f 133 615 131
f 615 19 21
f 131 21 195
f 19 615 133
f 602 377 603
f 746 651 37
f 901 571 373
f 901 373 232
f 901 87 571
f 618 613 854
f 613 371 854
f 902 94 93
f 551 823 903
f 421 433 904
f 641 905 642
f 905 73 642
f 201 58 57
f 201 25 58
f 906 898 868
f 654 722 645
f 884 907 825
f 459 908 460
f 219 909 220
f 257 910 911
f 347 411 346
f 382 912 913
f 152 151 721
f 579 914 915
f 461 337 196
f 763 261 916
f 40 301 742
f 256 569 503
f 5 503 569
f 714 713 520
f 521 917 918
f 919 152 816
f 333 920 332
f 921 922 610
f 923 924 324
f 919 431 726
f 919 816 431
f 925 575 391
f 926 149 450
f 336 878 758
f 446 478 447
f 927 228 39
f 426 442 667
f 599 426 667
f 877 181 862
f 2 928 789
f 919 726 394
f 929 840 930
f 840 306 930
f 744 754 835
f 754 676 835
f 356 355 931
f 932 729 375
f 434 269 77
f 438 522 838
f 933 230 45
f 355 613 618
f 354 745 875
f 30 29 793
f 29 609 793
f 322 680 64
f 457 227 258
f 934 881 478
f 294 935 710
f 936 471 248
f 745 519 742
f 339 341 937
f 657 938 14
f 938 939 14
f 203 940 201
f 179 866 524
f 866 876 524
f 708 720 106
f 720 941 106
f 942 943 944
f 272 810 199
f 945 946 947
f 467 908 459
f 510 512 607
f 444 512 469
f 420 530 532
f 860 390 287
f 119 171 253
f 171 286 253
f 869 387 386
f 663 462 820
f 948 949 424
f 550 950 411
f 950 951 411
f 950 550 786
f 950 786 163
f 360 275 952
f 275 953 952
f 112 896 113
f 954 548 96
f 330 99 33
f 415 416 666
f 398 378 464
f 464 377 602
f 603 377 379
f 648 860 286
f 955 860 648
f 955 45 44
f 44 860 955
f 860 44 390
f 380 125 381
f 125 149 381
f 417 507 289
f 901 232 87
f 232 843 87
f 956 957 881
f 2 788 724
f 1 2 724
f 549 958 427
f 323 325 242
f 382 381 912
f 959 951 950
f 18 960 771
f 960 961 771
f 93 962 296
f 875 352 354
f 963 829 564
f 203 964 940
f 432 421 532
f 421 420 532
f 883 334 884
f 89 612 679
f 472 965 445
f 939 938 610
f 966 917 967
f 206 738 740
f 692 770 772
f 590 750 673
f 366 764 830
f 271 151 150
f 298 727 186
f 220 968 751
f 968 752 751
f 555 969 732
f 865 342 340
f 970 516 874
f 888 728 362
f 653 678 654
f 920 972 337
f 925 893 575
f 973 757 864
f 974 499 497
f 230 975 229
f 976 977 978
f 324 924 325
f 979 140 39
f 166 561 879
f 397 342 980
f 342 865 980
f 895 239 218
f 484 485 732
f 174 981 647
f 981 982 647
f 933 45 955
f 983 524 523
f 877 600 181
f 883 825 824
f 984 881 934
f 272 137 559
f 136 985 137
f 137 985 559
f 985 986 560
f 559 985 560
f 892 941 720
f 852 764 763
f 719 893 720
f 893 892 720
f 987 988 543
f 989 820 900
f 890 662 889
f 662 850 889
f 548 954 368
f 309 960 18
f 990 991 660
f 991 992 660
f 465 213 122
f 213 124 122
f 469 512 470
f 402 994 592
f 501 885 893
f 113 490 492
f 995 209 730
f 961 996 771
f 309 383 960
f 164 818 162
f 672 177 338
f 997 304 271
f 936 644 837
f 902 93 295
f 93 296 295
f 998 295 821
f 999 1000 277
f 1000 953 277
f 886 1002 1001
f 35 732 485
f 383 108 1003
f 278 1004 407
f 560 986 389
f 1005 1006 659
f 983 494 699
f 603 292 870
f 641 535 418
f 535 1007 418
f 1008 1009 912
f 556 35 1010
f 334 336 759
f 588 586 297
f 1011 453 669
f 453 1012 669
f 219 221 718
f 318 897 1013
f 895 498 596
f 1014 160 249
f 177 672 671
f 1015 1016 525
f 562 908 467
f 126 125 248
f 415 666 376
f 376 589 415
f 1009 267 977
f 267 268 977
f 1017 181 600
f 828 1018 595
f 1019 767 623
f 767 1020 623
f 573 644 574
f 833 301 40
f 576 582 623
f 536 1021 97
f 22 779 23
f 540 22 24
f 471 837 401
f 1022 242 1023
f 1001 1018 231
f 356 931 120
f 1025 1026 1027
f 1026 1028 1027
f 421 904 1029
f 421 1029 98
f 1029 99 98
f 33 1030 429
f 99 1029 1030
f 904 429 1029
f 429 1030 1029
f 701 677 887
f 677 1031 887
f 247 777 248
f 777 1032 248
f 179 524 180
f 555 732 556
f 686 969 626
f 556 732 35
f 1033 959 950
f 578 580 1034
f 47 1035 48
f 1036 1035 1037
f 1036 105 1035
f 105 48 1035
f 858 215 280
f 215 858 774
f 858 1038 774
f 858 430 1036
f 430 105 1036
f 1037 1038 1036
f 1036 1038 858
f 815 182 990
f 287 841 534
f 1039 1040 1041
f 692 772 417
f 673 1042 671
f 671 178 177
f 830 610 509
f 264 920 333
f 970 328 459
f 36 141 518
f 1043 1044 1045
f 665 1046 285
f 846 943 937
f 581 583 1019
f 583 1047 1019
f 670 1048 1049
f 759 972 1050
f 972 920 1050
f 1024 543 1051
f 729 622 375
f 375 622 782
f 10 424 782
f 10 782 11
f 782 622 11
f 1052 892 885
f 814 712 933
f 798 1053 799
f 728 716 189
f 128 716 1054
f 1054 716 728
f 362 189 191
f 820 462 32
f 224 433 432
f 433 224 58
f 25 433 58
f 904 433 429
f 433 1055 429
f 429 1055 25
f 25 1055 433
f 1056 220 751
f 781 844 1057
f 588 684 1058
f 684 855 1058
f 520 713 562
f 1059 1023 1060
f 478 446 934
f 478 387 447
f 385 387 26
f 387 27 26
f 602 670 464
f 840 64 306
f 477 511 143
f 511 1061 143
f 142 531 143
f 143 1061 145
f 144 145 733
f 1018 1001 1062
f 1063 1064 1065
f 888 227 1066
f 982 814 647
f 341 502 846
f 585 681 821
f 267 926 266
f 402 591 1067
f 231 1018 828
f 359 392 778
f 392 1013 778
f 507 1068 289
f 671 691 178
f 1069 243 367
f 857 515 856
f 515 1004 856
f 766 1004 515
f 856 1004 632
f 632 1004 278
f 1070 34 197
f 248 208 126
f 693 175 314
f 175 155 314
f 495 1071 710
f 633 735 634
f 735 900 634
f 831 460 908
f 976 1009 977
f 919 394 152
f 394 1072 150
f 1042 16 691
f 16 692 691
f 859 914 579
f 895 218 498
f 477 476 511
f 403 1073 369
f 592 1074 591
f 251 252 822
f 641 1075 905
f 936 837 471
f 273 274 1076
f 1077 1078 1079
f 931 619 1080
f 841 1081 689
f 282 563 674
f 563 1082 674
f 393 1083 238
f 853 371 475
f 911 81 257
f 651 746 1084
f 161 1085 629
f 489 669 1012
f 968 755 752
f 108 110 1086
f 110 1079 1086
f 375 1087 932
f 708 709 816
f 709 431 816
f 1088 911 1089
f 1090 116 568
f 116 1091 568
f 440 439 115
f 255 440 117
f 440 115 117
f 235 1092 313
f 525 1016 1071
f 1093 344 409
f 605 986 529
f 1094 1095 479
f 1096 1046 665
f 281 1072 394
f 394 726 279
f 885 501 113
f 1034 769 578
f 926 450 266
f 666 879 376
f 169 870 731
f 1097 527 1098
f 504 1099 1049
f 520 917 521
f 562 917 520
f 522 438 714
f 220 1056 222
f 668 1048 736
f 664 493 57
f 1100 194 65
f 1101 1102 1103
f 542 891 1104
f 1104 1105 540
f 1079 110 111
f 568 1091 439
f 1091 115 439
f 1091 116 115
f 240 157 156
f 675 1082 835
f 322 63 869
f 995 214 209
f 543 988 1079
f 1106 274 50
f 385 26 386
f 447 387 869
f 102 61 62
f 1107 687 1108
f 883 824 334
f 915 83 82
f 300 299 1109
f 573 591 1011
f 591 1074 1011
f 973 544 1110
f 141 978 977
f 223 57 58
f 961 230 996
f 975 1111 497
f 1111 974 497
f 1111 961 960
f 960 974 1111
f 172 119 1112
f 1034 1113 769
f 489 644 669
f 495 525 1071
f 878 335 741
f 336 335 878
f 598 187 331
f 723 138 1
f 1114 900 735
f 50 273 1115
f 959 952 1116
f 973 1095 1094
f 818 164 543
f 76 1117 514
f 106 49 104
f 1118 798 71
f 1118 71 338
f 538 209 214
f 30 793 165
f 167 30 165
f 864 768 906
f 731 210 169
f 957 90 881
f 861 375 52
f 92 932 823
f 1087 903 932
f 903 823 932
f 47 806 1035
f 1119 126 208
f 1120 127 126
f 127 1120 609
f 793 609 1120
f 1119 208 61
f 1119 61 254
f 254 561 1119
f 561 793 1119
f 793 1120 1119
f 1119 1120 126
f 632 1033 163
f 163 1033 950
f 744 134 132
f 449 687 450
f 1069 1121 1115
f 44 1122 1081
f 367 1121 1069
f 127 149 148
f 723 528 138
f 1086 1079 1078
f 101 1012 453
f 646 1123 1096
f 271 1078 997
f 366 364 764
f 244 1069 1076
f 1069 273 1076
f 458 460 516
f 460 517 516
f 1124 870 168
f 603 870 1124
f 1093 409 805
f 1058 1125 556
f 1126 787 457
f 66 1022 65
f 36 978 141
f 1088 978 36
f 1007 740 1127
f 740 739 1127
f 1128 1127 739
f 6 5 557
f 634 900 211
f 1129 653 729
f 1032 574 644
f 49 106 526
f 106 1130 526
f 306 310 1131
f 930 306 718
f 306 1131 718
f 1132 633 778
f 332 920 337
f 1133 219 718
f 709 107 508
f 789 928 1134
f 928 923 1134
f 414 601 667
f 667 601 599
f 1135 800 799
f 133 775 19
f 59 90 957
f 144 734 1136
f 1137 825 907
f 595 1018 1062
f 72 533 73
f 533 642 73
f 453 1074 1138
f 353 1056 751
f 411 951 410
f 951 1116 410
f 710 870 1139
f 731 870 710
f 845 1136 1140
f 168 603 1124
f 509 1141 914
f 914 1141 915
f 610 1141 509
f 354 752 756
f 32 211 820
f 1088 36 81
f 911 1088 81
f 673 750 1042
f 750 16 1042
f 930 718 717
f 741 335 1142
f 349 250 159
f 64 680 769
f 47 527 806
f 689 1081 688
f 546 674 753
f 674 676 753
f 849 889 850
f 576 623 207
f 623 1143 207
f 1094 617 545
f 617 547 545
f 580 579 82
f 579 915 82
f 1011 1074 453
f 573 1144 591
f 1144 1067 591
f 817 1145 857
f 1008 267 1009
f 438 921 610
f 1032 777 574
f 1032 936 248
f 922 939 610
f 939 922 15
f 135 1146 906
f 1100 783 194
f 73 378 612
f 7 23 60
f 265 1147 1148
f 905 379 73
f 379 378 73
f 476 100 511
f 100 513 511
f 287 534 533
f 1149 1098 526
f 1098 527 526
f 465 122 176
f 699 1150 639
f 256 1151 569
f 1151 1152 569
f 821 586 585
f 645 927 796
f 1039 1153 1040
f 493 1154 1155
f 1155 202 493
f 811 333 332
f 817 818 1156
f 818 1157 1156
f 1142 185 741
f 240 1158 833
f 984 956 881
f 363 722 654
f 3 928 2
f 92 94 1129
f 94 678 1129
f 343 1159 118
f 951 959 1116
f 918 917 1160
f 1160 655 6
f 208 401 422
f 1161 332 337
f 912 381 267
f 381 926 267
f 106 300 1130
f 644 936 1032
f 88 1159 343
f 893 719 575
f 401 208 471
f 1040 1162 1041
f 85 1163 103
f 85 800 1163
f 683 297 962
f 297 296 962
f 725 315 528
f 315 529 528
f 328 327 103
f 246 1164 245
f 299 106 941
f 708 721 720
f 1129 678 653
f 968 1064 1165
f 629 1085 1166
f 562 713 832
f 685 614 1167
f 1020 1168 1143
f 680 1169 579
f 1169 859 579
f 37 519 745
f 1080 619 1170
f 619 1171 1170
f 1172 1173 911
f 1173 1089 911
f 1174 487 790
f 850 320 650
f 320 882 650
f 367 537 548
f 293 1075 418
f 887 1031 1175
f 887 834 833
f 540 1105 112
f 939 15 14
f 392 359 204
f 763 364 261
f 364 259 261
f 376 879 561
f 938 1141 610
f 459 328 466
f 467 1177 1026
f 1066 661 659
f 659 1054 1066
f 1054 728 1066
f 1133 718 310
f 718 1131 310
f 299 941 1109
f 925 391 501
f 494 1150 699
f 597 1178 483
f 1106 946 1076
f 190 808 191
f 190 1179 808
f 1179 1037 808
f 808 1037 806
f 1037 1035 806
f 1180 783 1100
f 319 880 320
f 797 1181 268
f 1133 1065 219
f 1065 909 219
f 294 1139 292
f 1139 870 292
f 1182 947 1183
f 394 279 281
f 845 34 35
f 1184 360 952
f 1185 1180 1059
f 78 734 77
f 1088 976 978
f 300 1109 1186
f 1109 1187 1186
f 855 684 854
f 1079 111 1051
f 1188 846 502
f 108 1086 1189
f 1086 1078 1189
f 1189 1078 150
f 1072 1189 150
f 1072 1190 1189
f 150 1078 271
f 472 714 438
f 671 1042 691
f 692 417 178
f 981 1045 1068
f 641 418 1075
f 934 446 1191
f 710 935 495
f 903 861 812
f 861 813 812
f 74 253 286
f 958 1192 427
f 326 19 775
f 1193 1107 621
f 1058 1194 1125
f 552 551 812
f 903 812 551
f 1195 213 33
f 1185 226 783
f 226 225 783
f 332 1161 811
f 1059 1060 1185
f 1060 1196 1185
f 226 1185 1196
f 457 783 225
f 783 1180 1185
f 1015 525 866
f 525 876 866
f 956 1197 1176
f 1197 762 1176
f 800 1198 1163
f 96 537 95
f 360 1184 278
f 619 683 1171
f 839 972 759
f 1142 1168 217
f 940 1199 25
f 29 12 687
f 12 1108 687
f 327 500 85
f 458 516 459
f 516 970 459
f 466 328 463
f 864 1095 973
f 1200 1201 597
f 839 758 195
f 1202 1203 1204
f 404 1205 994
f 1205 1206 994
f 1134 964 1207
f 964 203 1207
f 800 694 1198
f 694 693 1198
f 1108 12 11
f 1093 805 344
f 918 1160 6
f 933 955 814
f 955 648 814
f 627 629 1208
f 629 1102 1208
f 50 1101 54
f 1085 161 257
f 1084 38 651
f 1084 746 1209
f 746 755 1209
f 1209 1085 1084
f 1084 1085 257
f 1084 257 81
f 1084 81 38
f 1210 1211 214
f 1172 1057 844
f 811 331 333
f 262 758 878
f 1003 1190 1072
f 560 894 559
f 834 1175 158
f 1175 821 158
f 963 1123 894
f 159 51 349
f 228 927 722
f 645 722 927
f 1174 1207 203
f 257 412 910
f 929 717 1212
f 1213 840 1212
f 840 929 1212
f 1167 614 1213
f 614 840 1213
f 1175 834 887
f 174 647 173
f 1074 592 994
f 794 1214 809
f 588 1058 587
f 552 812 1215
f 1122 44 46
f 1216 566 565
f 127 148 125
f 1140 1136 809
f 484 1217 35
f 179 181 866
f 181 1017 866
f 1218 1219 123
f 886 1192 1191
f 1079 1051 543
f 1204 1200 1024
f 1136 734 78
f 809 1136 78
f 701 887 40
f 1220 1175 1221
f 1221 1175 677
f 1175 1031 677
f 821 1175 998
f 383 1003 960
f 1003 1222 960
f 958 549 761
f 427 886 231
f 483 481 1157
f 325 924 242
f 142 144 1223
f 114 71 798
f 1123 1046 1096
f 549 760 761
f 386 859 1169
f 925 501 893
f 1205 954 147
f 169 538 737
f 538 169 209
f 41 261 42
f 1224 432 532
f 536 537 243
f 449 29 687
f 1225 1201 1226
f 1143 623 1020
f 1227 1126 258
f 1058 1228 587
f 1159 119 118
f 963 894 829
f 66 940 242
f 940 964 242
f 1229 302 1158
f 593 664 594
f 1107 266 687
f 1107 795 797
f 195 758 262
f 1230 409 410
f 730 943 846
f 869 63 827
f 735 399 1114
f 399 784 1114
f 408 1231 216
f 705 1232 1164
f 1233 205 207
f 833 157 240
f 666 442 879
f 997 1079 988
f 1167 1213 1212
f 144 733 734
f 489 401 837
f 489 837 644
f 738 206 826
f 1215 553 552
f 1215 812 1161
f 812 811 1161
f 47 49 526
f 1234 733 1061
f 733 145 1061
f 881 880 478
f 770 692 16
f 139 690 39
f 249 1235 572
f 239 238 1083
f 1015 866 340
f 866 865 340
f 727 181 698
f 698 181 180
f 1043 1045 1236
f 800 1135 694
f 1135 1237 694
f 1143 1168 1233
f 1168 1142 1233
f 1058 855 1194
f 855 1238 1194
f 853 1238 855
f 475 1238 853
f 730 209 210
f 1239 1015 340
f 745 742 303
f 742 301 303
f 243 245 536
f 789 788 2
f 923 324 1134
f 746 354 756
f 935 294 1240
f 634 356 395
f 634 211 31
f 119 1159 1112
f 216 1231 80
f 1194 1238 1125
f 845 1140 809
f 845 809 198
f 26 28 259
f 755 968 1165
f 593 370 663
f 427 1192 886
f 1192 958 1241
f 1241 958 761
f 761 762 1241
f 762 1197 1241
f 984 1241 1197
f 140 519 518
f 1242 1243 1002
f 884 334 1050
f 334 759 1050
f 472 445 714
f 25 201 940
f 564 284 1123
f 284 1046 1123
f 677 94 1244
f 1186 1187 748
f 90 650 882
f 1085 1209 1166
f 755 1165 1209
f 1165 1166 1209
f 429 1245 192
f 1246 1247 1170
f 1080 1247 357
f 1077 997 1078
f 577 740 1248
f 972 839 337
f 195 337 839
f 989 971 820
f 889 801 805
f 801 344 805
f 639 1150 637
f 352 303 1229
f 303 302 1229
f 564 1123 963
f 1128 638 637
f 140 979 742
f 713 715 832
f 224 432 1249
f 432 1224 1249
f 1250 885 491
f 885 492 491
f 1069 244 243
f 226 1066 227
f 226 1196 1066
f 1196 661 1066
f 1137 739 825
f 739 826 825
f 826 739 738
f 1142 217 185
f 1115 51 50
f 1121 367 348
f 134 775 133
f 976 1088 1089
f 916 999 277
f 1251 993 724
f 397 980 1252
f 117 1232 1151
f 184 183 872
f 923 872 183
f 928 872 923
f 928 3 872
f 3 871 872
f 643 193 192
f 1024 1157 543
f 1200 1204 1201
f 33 456 1195
f 472 438 437
f 1115 273 1069
f 368 954 404
f 954 96 147
f 1168 1020 757
f 1168 757 217
f 1068 982 981
f 679 398 396
f 612 398 679
f 172 1253 174
f 819 80 1231
f 789 1134 1207
f 965 361 445
f 473 275 472
f 275 965 472
f 965 275 361
f 543 1157 818
f 888 1066 728
f 625 112 113
f 15 922 921
f 828 428 231
f 1218 123 236
f 123 124 236
f 772 771 996
f 799 1044 631
f 598 331 861
f 331 813 861
f 235 313 234
f 389 829 894
f 323 242 964
f 480 283 547
f 1080 1170 1247
f 1216 665 566
f 1254 41 409
f 41 804 409
f 748 1187 491
f 704 84 1151
f 1237 631 75
f 520 522 714
f 831 908 832
f 573 1011 669
f 191 807 1255
f 389 986 605
f 1236 1045 1253
f 1045 981 1253
f 717 702 1212
f 463 1177 467
f 1023 924 815
f 1023 242 924
f 723 725 528
f 1256 1151 256
f 59 91 90
f 252 60 822
f 1176 762 60
f 762 822 60
f 1191 685 886
f 1005 659 658
f 92 1129 932
f 932 1129 729
f 889 805 43
f 973 1094 545
f 952 1033 1184
f 1184 1033 632
f 278 1184 632
f 706 580 82
f 740 1007 1248
f 859 509 914
f 82 84 706
f 84 704 706
f 149 926 381
f 1106 1076 274
f 1257 182 184
f 984 934 1241
f 937 341 846
f 612 343 118
f 1081 390 44
f 1045 288 1068
f 704 1151 705
f 1151 1232 705
f 1236 76 75
f 631 1044 1236
f 981 174 1253
f 1043 1236 1044
f 1236 75 631
f 933 712 230
f 712 996 230
f 971 488 1154
f 1258 894 1123
f 583 688 405
f 688 1081 405
f 633 1132 400
f 316 400 1132
f 316 1132 897
f 838 921 438
f 134 835 775
f 835 1082 775
f 1259 664 57
f 824 206 205
f 1208 1102 1101
f 51 627 1208
f 949 311 424
f 311 374 424
f 315 725 784
f 1026 562 467
f 668 452 1049
f 452 504 1049
f 862 181 298
f 298 181 727
f 970 874 328
f 874 329 328
f 683 962 1171
f 684 297 683
f 553 1171 551
f 1171 962 551
f 505 1099 504
f 372 1099 505
f 1212 1243 1167
f 1212 1002 1243
f 696 695 70
f 419 1240 294
f 261 41 916
f 742 979 39
f 74 73 118
f 182 991 990
f 992 658 660
f 1258 1123 646
f 796 927 39
f 39 690 796
f 774 1038 1146
f 339 937 942
f 937 943 942
f 1253 1260 1236
f 1236 1260 76
f 983 523 494
f 861 1087 375
f 1174 790 1207
f 790 789 1207
f 542 606 444
f 265 727 698
f 389 605 388
f 443 749 891
f 331 811 813
f 1261 1014 249
f 1057 1262 1261
f 1261 777 1057
f 777 781 1057
f 1261 1262 1014
f 1014 1262 1263
f 1263 1262 1057
f 1172 844 1173
f 910 1014 911
f 1014 1263 911
f 1172 911 1057
f 911 1263 1057
f 572 777 1261
f 1261 249 572
f 160 1014 412
f 910 412 1014
f 90 882 881
f 835 676 675
f 373 1099 372
f 84 1152 1151
f 489 1012 101
f 489 101 62
f 643 67 65
f 733 1234 1264
f 1234 1265 1264
f 69 1178 468
f 1028 1177 463
f 929 930 717
f 630 391 304
f 994 1206 1266
f 680 322 1169
f 1077 1079 997
f 836 1267 1268
f 675 674 1082
f 862 948 599
f 857 1145 516
f 475 1125 1238
f 112 1105 896
f 59 23 91
f 1023 1059 1022
f 498 1269 828
f 1214 198 809
f 984 1197 956
f 1218 1149 1219
f 1149 1270 1219
f 849 801 889
f 776 829 848
f 841 689 1271
f 707 407 1004
f 505 5 372
f 668 1049 1048
f 167 879 442
f 563 776 775
f 1272 1161 337
f 1137 907 638
f 907 640 638
f 252 7 60
f 194 193 65
f 1180 1100 1022
f 1022 1100 65
f 506 712 814
f 214 1211 147
f 539 737 538
f 1220 998 1175
f 1022 1059 1180
f 556 1125 475
f 815 1060 1023
f 990 1060 815
f 403 369 368
f 491 1273 749
f 291 630 304
f 997 987 304
f 304 987 291
f 543 291 987
f 997 988 987
f 506 417 996
f 711 506 996
f 1255 362 191
f 1122 46 405
f 709 508 431
f 367 243 537
f 293 379 1075
f 907 697 640
f 1076 946 246
f 946 792 246
f 541 540 24
f 249 1073 1235
f 83 915 657
f 915 1141 657
f 656 83 657
f 14 13 656
f 13 570 656
f 938 657 1141
f 798 1118 1053
f 1257 991 182
f 1095 864 479
f 849 779 801
f 779 780 801
f 136 529 986
f 1254 1230 41
f 1230 1274 41
f 1191 1192 934
f 1192 1241 934
f 1275 1127 419
f 1275 419 418
f 1275 1007 1127
f 1275 418 1007
f 536 245 1021
f 244 1076 246
f 903 1087 861
f 230 961 975
f 565 658 1216
f 658 992 1216
f 282 284 563
f 570 1152 656
f 1273 491 490
f 352 1039 353
f 1257 646 991
f 199 1257 184
f 335 1233 1142
f 1015 1239 1016
f 868 130 479
f 868 479 863
f 775 1082 563
f 753 1276 544
f 1276 1110 544
f 753 754 1276
f 188 67 643
f 57 223 1259
f 379 905 1075
f 1277 660 661
f 1199 67 188
f 403 402 1073
f 402 1067 1073
f 1204 1203 1201
f 546 753 544
f 1252 1278 397
f 1278 773 397
f 670 1279 1048
f 1028 1280 1027
f 78 682 794
f 9 541 24
f 1132 778 1013
f 389 894 560
f 423 1246 842
f 877 862 599
f 1106 1183 946
f 1183 947 946
f 392 20 350
f 396 1099 373
f 526 1130 1281
f 526 1270 1149
f 154 232 1282
f 1282 232 313
f 232 234 313
f 313 155 1282
f 155 154 1282
f 629 1166 1102
f 899 1179 190
f 607 512 606
f 606 512 444
f 1051 1204 1024
f 985 136 986
f 554 556 475
f 1242 1167 1243
f 1252 836 1283
f 631 1237 1135
f 1237 75 200
f 1135 799 631
f 1237 200 694
f 428 760 549
f 1191 448 685
f 481 874 1157
f 874 1156 1157
f 120 931 1080
f 553 1170 1171
f 120 1080 357
f 1210 1206 1211
f 710 1139 294
f 747 465 330
f 765 69 500
f 1026 1177 1284
f 1285 1246 1161
f 1246 1286 1161
f 1215 1161 1286
f 553 1215 1170
f 1215 1286 1170
f 1153 1229 1287
f 749 896 891
f 896 1105 891
f 962 93 551
f 832 908 562
f 946 945 792
f 246 792 1164
f 1232 117 1164
f 117 116 1164
f 1164 116 245
f 116 1021 245
f 945 791 792
f 445 715 714
f 542 1104 540
f 635 1098 237
f 491 1187 1250
f 576 1288 582
f 199 810 646
f 69 468 1225
f 866 1017 867
f 414 1289 1290
f 1289 867 1290
f 414 1290 600
f 600 1290 1017
f 1290 867 1017
f 819 1231 583
f 737 170 169
f 1187 1052 1250
f 1052 885 1250
f 707 1004 766
f 142 1223 484
f 1254 409 1230
f 1090 568 97
f 971 1154 820
f 1257 199 646
f 983 699 524
f 1227 1097 1126
f 1255 807 806
f 576 577 1288
f 577 1248 1288
f 891 1105 1104
f 444 891 542
f 190 128 130
f 1001 1002 702
f 1002 1212 702
f 953 275 277
f 916 41 999
f 41 1274 999
f 413 415 836
f 413 836 414
f 836 1268 414
f 836 1252 1267
f 1252 980 1267
f 414 1268 1289
f 1268 1267 1289
f 980 865 1267
f 865 867 1267
f 1289 1267 867
f 192 1245 643
f 292 603 293
f 603 379 293
f 1162 1062 1291
f 1062 1001 1291
f 918 921 521
f 705 1164 792
f 1199 1292 67
f 435 1231 408
f 1115 1293 51
f 320 850 321
f 850 662 321
f 188 1245 429
f 643 1245 188
f 212 213 1195
f 824 205 1233
f 989 993 971
f 920 263 1050
f 390 1081 841
f 689 584 582
f 790 487 788
f 487 1251 788
f 949 862 311
f 1026 1025 967
f 562 967 917
f 798 800 86
f 1083 1070 239
f 1294 1210 1295
f 350 317 318
f 912 1009 1173
f 1009 1089 1173
f 128 1296 129
f 1169 869 386
f 869 1169 322
f 940 66 1292
f 1219 300 1186
f 121 1219 1186
f 121 1186 176
f 1186 748 176
f 1109 941 1187
f 941 1297 1187
f 1297 892 1187
f 892 1052 1187
f 941 892 1297
f 1246 423 357
f 1182 56 64
f 989 900 1114
f 1133 310 1065
f 362 1255 1227
f 635 636 1098
f 636 1097 1098
f 527 1097 806
f 1097 1255 806
f 1227 1255 1097
f 1227 258 362
f 352 1229 1039
f 1229 1153 1039
f 628 627 159
f 912 1173 913
f 569 1152 570
f 852 276 608
f 473 608 276
f 473 276 275
f 852 763 277
f 763 916 277
f 1204 1051 111
f 1199 188 25
f 250 1073 249
f 635 1195 456
f 944 710 942
f 237 1098 1149
f 392 350 1013
f 350 318 1013
f 645 652 654
f 1128 637 1127
f 697 639 640
f 699 639 697
f 1240 419 637
f 419 1127 637
f 697 1147 698
f 263 920 264
f 565 700 1006
f 1258 646 894
f 565 1006 658
f 1005 658 1006
f 1054 659 1006
f 1296 128 1006
f 128 1054 1006
f 1006 700 1296
f 700 129 1296
f 1009 976 1089
f 284 285 1046
f 328 103 463
f 590 1202 111
f 1202 1204 111
f 1200 597 1024
f 1269 794 428
f 794 760 428
f 830 611 610
f 1233 335 824
f 335 334 824
f 703 1291 702
f 172 1112 1253
f 1112 1117 1253
f 1285 1161 842
f 1161 1272 842
f 717 221 702
f 819 405 80
f 1230 410 1116
f 953 1000 952
f 1230 1116 1000
f 1116 952 1000
f 999 1230 1000
f 852 277 276
f 1274 1230 999
f 686 732 969
f 1218 236 1149
f 990 660 1277
f 1196 1060 1277
f 990 1277 1060
f 1277 661 1196
f 1158 302 833
f 1146 1038 899
f 1038 1037 899
f 13 15 785
f 1191 446 448
f 297 684 588
f 848 829 389
f 589 406 1283
f 944 943 730
f 11 621 1108
f 621 1107 1108
f 1137 638 739
f 820 1154 663
f 1090 97 116
f 97 1021 116
f 724 784 725
f 138 528 136
f 1040 1153 1298
f 281 1003 1072
f 974 960 1222
f 646 810 894
f 103 1028 463
f 1210 1294 1206
f 404 954 1205
f 486 971 993
f 1155 1154 487
f 1154 488 487
f 314 1027 693
f 1027 1280 693
f 1251 724 788
f 443 176 748
f 949 948 862
f 830 509 366
f 836 589 1283
f 42 260 43
f 260 890 43
f 28 321 260
f 1214 1299 218
f 118 73 612
f 1292 1199 940
f 15 921 785
f 785 921 918
f 918 6 558
f 1179 899 1037
f 1063 54 1103
f 54 1101 1103
f 966 967 1092
f 967 1025 1092
f 314 313 1092
f 483 1178 482
f 621 795 1193
f 1041 1056 1039
f 1056 353 1039
f 1148 1147 263
f 744 802 754
f 741 185 803
f 715 707 832
f 707 766 832
f 241 242 1022
f 1205 147 1211
f 1206 1205 1211
f 1063 1065 54
f 1246 357 1247
f 475 474 554
f 554 1249 1300
f 1300 969 554
f 969 555 554
f 594 223 1249
f 224 1249 223
f 681 1301 1302
f 1301 1010 1302
f 1228 1010 1301
f 1301 585 1228
f 585 587 1228
f 681 585 1301
f 1010 1228 556
f 556 1228 1058
f 1126 457 258
f 39 40 742
f 1242 1002 886
f 730 1295 995
f 558 785 918
f 434 1264 1303
f 77 1264 434
f 77 733 1264
f 1265 1234 511
f 1264 1265 1303
f 510 607 1304
f 1304 607 8
f 434 1303 8
f 1303 1304 8
f 1303 1265 1304
f 510 1304 511
f 1304 1265 511
f 1256 117 1151
f 281 1222 1003
f 770 16 847
f 931 620 619
f 355 620 931
f 355 618 620
f 1096 1305 646
f 992 991 1305
f 544 973 545
f 776 848 388
f 776 388 326
f 784 1306 1114
f 1306 989 1114
f 993 989 1306
f 1306 784 724
f 1306 724 993
f 87 604 88
f 72 74 533
f 1028 1284 1177
f 1026 1284 1028
f 417 772 996
f 898 1146 899
f 121 123 1219
f 497 229 975
f 79 229 497
f 114 798 86
f 715 445 707
f 766 460 832
f 597 1201 468
f 566 283 480
f 566 285 283
f 289 1068 288
f 1044 1118 1307
f 1045 1044 288
f 1044 1307 288
f 982 507 814
f 507 506 814
f 982 1068 507
f 1115 1121 1293
f 1251 486 993
f 487 486 1251
f 487 1174 1155
f 202 1155 203
f 1155 1174 203
f 1074 994 1138
f 994 1266 1138
f 454 453 1138
f 540 112 22
f 319 321 880
f 51 1101 50
f 1208 1101 51
f 1308 1305 991
f 516 1145 874
f 1145 1156 874
f 240 596 1287
f 1287 1158 240
f 1287 1229 1158
f 833 302 301
f 382 913 616
f 616 913 844
f 844 913 1173
f 1248 1271 1288
f 535 534 1248
f 534 1271 1248
f 1070 197 239
f 1070 1309 34
f 1083 1309 1070
f 1302 1010 1309
f 1309 35 34
f 35 1309 1010
f 393 681 1083
f 681 1310 1083
f 1310 1309 1083
f 681 1302 1310
f 1302 1309 1310
f 84 83 1152
f 83 656 1152
f 207 1143 1233
f 577 207 740
f 207 206 740
f 565 480 700
f 288 1307 177
f 177 1307 338
f 338 1307 1118
f 842 461 423
f 1311 35 1217
f 35 1311 845
f 484 1223 1217
f 1223 1311 1217
f 144 1136 1223
f 1136 1311 1223
f 1136 845 1311
f 530 143 531
f 1292 66 67
f 897 1132 1013
f 731 944 730
f 944 731 710
f 710 1071 942
f 103 327 85
f 582 1288 689
f 1288 1271 689
f 711 996 712
f 327 482 765
f 482 1178 765
f 327 329 482
f 483 1157 1024
f 468 1178 597
f 323 1134 324
f 323 964 1134
f 1234 1061 511
f 161 629 628
f 674 546 283
f 880 387 478
f 27 321 28
f 27 387 321
f 387 880 321
f 1226 696 69
f 1225 1226 69
f 590 673 1202
f 696 1226 672
f 1202 673 1226
f 673 672 1226
f 815 924 923
f 815 923 183
f 1128 739 638
f 337 842 1272
f 1246 1170 1286
f 1308 646 1305
f 486 488 971
f 663 1154 664
f 178 288 177
f 1308 991 646
f 214 995 1210
f 64 56 306
f 1210 995 1295
f 402 404 994
f 1281 1130 1270
f 237 1149 236
f 1281 1270 526
f 846 1295 730
f 1294 1295 846
f 1269 498 1299
f 580 706 791
f 1163 1198 1280
f 693 1280 1198
f 1280 1028 103
f 103 1163 1280
f 348 1293 1121
f 51 1293 348
f 348 349 51
f 452 503 504
f 1219 1270 300
f 1270 1130 300
f 662 890 260
f 697 907 1312
f 797 266 1107
f 697 1312 1147
f 907 1147 1312
f 884 1050 263
f 884 263 907
f 263 1147 907
f 31 356 634
f 1001 702 1291
f 596 1298 1287
f 1298 1153 1287
f 596 595 1298
f 1298 1162 1040
f 595 1062 1298
f 1062 1162 1298
f 398 670 1049
f 1099 398 1049
f 534 841 1271
f 535 1248 1007
f 456 787 636
f 787 1126 636
f 1126 1097 636
f 1056 703 222
f 265 264 187
f 474 594 554
f 594 1249 554
f 1313 531 626
f 969 1300 626
f 1300 1313 626
f 1249 1224 1300
f 1224 1313 1300
f 532 531 1224
f 531 1313 1224
f 424 426 948
f 948 426 599
f 580 791 1113
f 791 947 1113
f 1034 580 1113
f 635 237 1195
f 237 212 1195
f 747 330 33
f 747 33 213
f 55 54 1065
f 55 1065 310
f 757 768 864
f 1019 1047 767
f 757 1020 767
f 791 945 947
f 64 769 1113
f 1314 406 101
f 406 1314 1283
f 455 1314 101
f 637 1150 1240
f 495 1150 494
f 1240 1150 495
f 495 935 1240
f 1214 794 1299
f 757 1276 217
f 1203 1202 1201
f 1256 256 117
f 581 1019 623
f 864 863 479
f 868 898 190
f 774 1146 408
f 408 1146 135
f 166 165 793
f 1148 263 265
f 1216 992 1305
f 1216 1305 665
f 665 1305 1096
f 220 909 968
f 1065 1064 909
f 1064 968 909
f 1154 493 664
f 604 153 514
f 827 63 448
f 827 447 869
f 1273 490 896
f 1273 896 749
f 1182 1183 56
f 1182 1113 947
f 1113 1315 64
f 1182 64 1315
f 50 1183 1106
f 56 1183 50
f 1182 1315 1113
f 455 773 1278
f 454 773 455
f 502 773 454
f 1138 502 454
f 846 1188 1294
f 1266 1206 1188
f 1206 1294 1188
f 502 1316 1188
f 1138 1266 1316
f 1266 1188 1316
f 699 698 180
f 265 187 727
f 265 698 1147
f 186 727 187
f 736 1048 1279
f 880 882 320
f 817 1156 1145
f 339 1239 340
f 1071 1016 1239
f 339 942 1239
f 1071 1239 942
f 46 229 79
f 961 1111 975
f 1181 977 268
f 1181 141 977
f 797 139 1181
f 1181 139 141
f 405 1081 1122
f 108 1189 1003
f 1190 1003 1189
f 974 1222 499
f 499 1222 281
f 795 1107 1193
f 795 796 797
f 621 622 652
f 652 795 621
f 795 652 645
f 998 1220 295
f 902 295 1220
f 902 1220 94
f 1220 1244 94
f 1221 677 1220
f 677 1244 1220
f 480 617 1094
f 1094 479 480
f 1102 1166 1317
f 1166 1165 1317
f 1064 1317 1165
f 1063 1103 1064
f 1103 1317 1064
f 1103 1102 1317
f 1278 1314 455
f 341 773 502
f 1283 1314 1278
f 1252 1283 1278
f 69 765 1178
f 1092 235 966
f 235 655 966
f 314 1025 1027
f 1025 314 1092
f 1026 967 562
f 917 966 1160
f 655 1160 966
f 863 864 906
f 674 283 282
f 1269 428 828
f 1269 1299 794
f 1214 218 198
f 218 1299 498
f 1162 1291 1041
f 1056 1041 703
f 1041 1291 703
f 1259 594 664
f 594 1259 223
f 514 1112 88
f 514 1117 1112
f 1112 1159 88
f 583 1231 1047
f 1047 1318 767
f 1047 1231 1318
f 1231 435 1318
f 1318 435 135
f 768 767 1318
f 906 1318 135
f 1118 1044 1053
f 799 1053 1044
f 597 483 1024
f 85 500 68
f 112 779 22
f 741 803 743
f 802 744 803
f 744 743 803
f 1242 685 1167
f 1242 886 685
f 250 369 1073
f 348 369 250
f 572 1235 1144
f 1144 573 572
f 1235 1073 1144
f 1073 1067 1144
f 886 1001 231
f 1260 1253 1117
f 1260 1117 76
f 868 863 906
f 291 290 630
f 768 1318 906
f 1279 670 602
f 168 1279 602
f 736 1279 737
f 1279 170 737
f 168 170 1279
f 217 1276 185
f 973 1110 757
f 757 1110 1276
f 754 802 1276
f 802 1319 1276
f 1276 1319 185
f 185 1319 802
f 921 838 521
f 1202 1226 1201
f 1225 468 1201
f 241 1022 66
f 99 1030 33
f 959 1033 952
f 1146 898 906
f 1138 1316 502
f 1099 396 398
f 1008 912 267
f 1285 842 1246
f 550 391 786
