{
  "accessors": [
    {
      "bufferView": 0,
      "byteOffset": 0,
      "componentType": 5126,
      "normalized": false,
      "count": 66,
      "type": "VEC3",
      "max": [
        1.0,
        0.5,
        1.0
      ],
      "min": [
        -1.0,
        -0.5,
        -1.0
      ]
    },
    {
      "bufferView": 2,
      "byteOffset": 0,
      "componentType": 5125,
      "normalized": false,
      "count": 192,
      "type": "SCALAR"
    },
    {
      "bufferView": 1,
      "byteOffset": 0,
      "componentType": 5126,
      "normalized": false,
      "count": 66,
      "type": "VEC3",
      "max": [
        1.0,
        1.0,
        1.0
      ],
      "min": [
        -1.0,
        -1.0,
        -1.0
      ]
    },
    {
      "bufferView": 3,
      "byteOffset": 0,
      "componentType": 5126,
      "normalized": false,
      "count": 17814,
      "type": "VEC3",
      "max": [
        0.31204351782798767,
        0.3666013479232788,
        0.31284594535827637
      ],
      "min": [
        -0.31245315074920654,
        -0.31223446130752563,
        -0.312570720911026
      ]
    },
    {
      "bufferView": 4,
      "byteOffset": 0,
      "componentType": 5125,
      "normalized": false,
      "count": 106872,
      "type": "SCALAR"
    }
  ],
  "asset": {
    "generator": "pygltflib@v1.16.2",
    "version": "2.0"
  },
  "bufferViews": [
    {
      "buffer": 0,
      "byteOffset": 0,
      "byteLength": 792,
      "target": 34962
    },
    {
      "buffer": 0,
      "byteOffset": 792,
      "byteLength": 792,
      "target": 34962
    },
    {
      "buffer": 0,
      "byteOffset": 1584,
      "byteLength": 768,
      "target": 34963
    },
    {
      "buffer": 0,
      "byteOffset": 2352,
      "byteLength": 213768,
      "target": 34962
    },
    {
      "buffer": 0,
      "byteOffset": 216120,
      "byteLength": 427488,
      "target": 34963
    }
  ],
  "buffers": [
    {
      "uri": "data:application/octet-stream;base64,",
      "byteLength": 643608
    }
  ],
  "extensionsUsed": [
    "KHR_materials_unlit"
  ],
  "materials": [
    {
      "extensions": {
        "KHR_materials_unlit": {}
      },
      "pbrMetallicRoughness": {
        "baseColorFactor": [
          0.95,
          0.18999999999999995,
          0.18999999999999995,
          1.0
        ],
        "metallicFactor": 0.0,
        "roughnessFactor": 1.0
      },
      "emissiveFactor": [
        0.0,
        0.0,
        0.0
      ],
      "alphaMode": "OPAQUE",
      "alphaCutoff": 0.5,
      "doubleSided": true
    },
    {
      "extensions": {
        "KHR_materials_unlit": {}
      },
      "pbrMetallicRoughness": {
        "baseColorFactor": [
          0.18999999999999995,
          0.4117650113004785,
          0.95,
          1.0
        ],
        "metallicFactor": 0.0,
        "roughnessFactor": 1.0
      },
      "emissiveFactor": [
        0.0,
        0.0,
        0.0
      ],
      "alphaMode": "OPAQUE",
      "alphaCutoff": 0.5,
      "doubleSided": true
    },
    {
      "extensions": {
        "KHR_materials_unlit": {}
      },
      "pbrMetallicRoughness": {
        "baseColorFactor": [
          0.6335300226009575,
          0.95,
          0.18999999999999995,
          1.0
        ],
        "metallicFactor": 0.0,
        "roughnessFactor": 1.0
      },
      "emissiveFactor": [
        0.0,
        0.0,
        0.0
      ],
      "alphaMode": "OPAQUE",
      "alphaCutoff": 0.5,
      "doubleSided": true
    },
    {
      "extensions": {
        "KHR_materials_unlit": {}
      },
      "pbrMetallicRoughness": {
        "baseColorFactor": [
          0.95,
          0.18999999999999995,
          0.8552950339014357,
          1.0
        ],
        "metallicFactor": 0.0,
        "roughnessFactor": 1.0
      },
      "emissiveFactor": [
        0.0,
        0.0,
        0.0
      ],
      "alphaMode": "OPAQUE",
      "alphaCutoff": 0.5,
      "doubleSided": true
    },
    {
      "extensions": {
        "KHR_materials_unlit": {}
      },
      "pbrMetallicRoughness": {
        "baseColorFactor": [
          0.18999999999999995,
          0.95,
          0.822939954798085,
          1.0
        ],
        "metallicFactor": 0.0,
        "roughnessFactor": 1.0
      },
      "emissiveFactor": [
        0.0,
        0.0,
        0.0
      ],
      "alphaMode": "OPAQUE",
      "alphaCutoff": 0.5,
      "doubleSided": true
    },
    {
      "extensions": {
        "KHR_materials_unlit": {}
      },
      "pbrMetallicRoughness": {
        "baseColorFactor": [
          0.95,
          0.6011749434976057,
          0.18999999999999995,
          1.0
        ],
        "metallicFactor": 0.0,
        "roughnessFactor": 1.0
      },
      "emissiveFactor": [
        0.0,
        0.0,
        0.0
      ],
      "alphaMode": "OPAQUE",
      "alphaCutoff": 0.5,
      "doubleSided": true
    },
    {
      "extensions": {
        "KHR_materials_unlit": {}
      },
      "pbrMetallicRoughness": {
        "baseColorFactor": [
          0.37940993219712854,
          0.18999999999999995,
          0.95,
          1.0
        ],
        "metallicFactor": 0.0,
        "roughnessFactor": 1.0
      },
      "emissiveFactor": [
        0.0,
        0.0,
        0.0
      ],
      "alphaMode": "OPAQUE",
      "alphaCutoff": 0.5,
      "doubleSided": true
    },
    {
      "extensions": {
        "KHR_materials_unlit": {}
      },
      "pbrMetallicRoughness": {
        "baseColorFactor": [
          0.22235507910335064,
          0.95,
          0.18999999999999995,
          1.0
        ],
        "metallicFactor": 0.0,
        "roughnessFactor": 1.0
      },
      "emissiveFactor": [
        0.0,
        0.0,
        0.0
      ],
      "alphaMode": "OPAQUE",
      "alphaCutoff": 0.5,
      "doubleSided": true
    },
    {
      "extensions": {
        "KHR_materials_unlit": {}
      },
      "pbrMetallicRoughness": {
        "baseColorFactor": [
          0.95,
          0.18999999999999995,
          0.4441200904038298,
          1.0
        ],
        "metallicFactor": 0.0,
        "roughnessFactor": 1.0
      },
      "emissiveFactor": [
        0.0,
        0.0,
        0.0
      ],
      "alphaMode": "OPAQUE",
      "alphaCutoff": 0.5,
      "doubleSided": true
    },
    {
      "extensions": {
        "KHR_materials_unlit": {}
      },
      "pbrMetallicRoughness": {
        "baseColorFactor": [
          0.18999999999999995,
          0.6658851017043091,
          0.95,
          1.0
        ],
        "metallicFactor": 0.0,
        "roughnessFactor": 1.0
      },
      "emissiveFactor": [
        0.0,
        0.0,
        0.0
      ],
      "alphaMode": "OPAQUE",
      "alphaCutoff": 0.5,
      "doubleSided": true
    },
    {
      "extensions": {
        "KHR_materials_unlit": {}
      },
      "pbrMetallicRoughness": {
        "baseColorFactor": [
          0.8876501130047884,
          0.95,
          0.18999999999999995,
          1.0
        ],
        "metallicFactor": 0.0,
        "roughnessFactor": 1.0
      },
      "emissiveFactor": [
        0.0,
        0.0,
        0.0
      ],
      "alphaMode": "OPAQUE",
      "alphaCutoff": 0.5,
      "doubleSided": true
    },
    {
      "extensions": {
        "KHR_materials_unlit": {}
      },
      "pbrMetallicRoughness": {
        "baseColorFactor": [
          0.7905848756947323,
          0.18999999999999995,
          0.95,
          1.0
        ],
        "metallicFactor": 0.0,
        "roughnessFactor": 1.0
      },
      "emissiveFactor": [
        0.0,
        0.0,
        0.0
      ],
      "alphaMode": "OPAQUE",
      "alphaCutoff": 0.5,
      "doubleSided": true
    },
    {
      "extensions": {
        "KHR_materials_unlit": {}
      },
      "pbrMetallicRoughness": {
        "baseColorFactor": [
          0.18999999999999995,
          0.95,
          0.5688198643942571,
          1.0
        ],
        "metallicFactor": 0.0,
        "roughnessFactor": 1.0
      },
      "emissiveFactor": [
        0.0,
        0.0,
        0.0
      ],
      "alphaMode": "OPAQUE",
      "alphaCutoff": 0.5,
      "doubleSided": true
    },
    {
      "extensions": {
        "KHR_materials_unlit": {}
      },
      "pbrMetallicRoughness": {
        "baseColorFactor": [
          0.95,
          0.3470548530937778,
          0.18999999999999995,
          1.0
        ],
        "metallicFactor": 0.0,
        "roughnessFactor": 1.0
      },
      "emissiveFactor": [
        0.0,
        0.0,
        0.0
      ],
      "alphaMode": "OPAQUE",
      "alphaCutoff": 0.5,
      "doubleSided": true
    },
    {
      "extensions": {
        "KHR_materials_unlit": {}
      },
      "pbrMetallicRoughness": {
        "baseColorFactor": [
          0.18999999999999995,
          0.25471015820670123,
          0.95,
          1.0
        ],
        "metallicFactor": 0.0,
        "roughnessFactor": 1.0
      },
      "emissiveFactor": [
        0.0,
        0.0,
        0.0
      ],
      "alphaMode": "OPAQUE",
      "alphaCutoff": 0.5,
      "doubleSided": true
    },
    {
      "extensions": {
        "KHR_materials_unlit": {}
      },
      "pbrMetallicRoughness": {
        "baseColorFactor": [
          0.4764751695071805,
          0.95,
          0.18999999999999995,
          1.0
        ],
        "metallicFactor": 0.0,
        "roughnessFactor": 1.0
      },
      "emissiveFactor": [
        0.0,
        0.0,
        0.0
      ],
      "alphaMode": "OPAQUE",
      "alphaCutoff": 0.5,
      "doubleSided": true
    },
    {
      "extensions": {
        "KHR_materials_unlit": {}
      },
      "pbrMetallicRoughness": {
        "baseColorFactor": [
          0.95,
          0.18999999999999995,
          0.6982401808076597,
          1.0
        ],
        "metallicFactor": 0.0,
        "roughnessFactor": 1.0
      },
      "emissiveFactor": [
        0.0,
        0.0,
        0.0
      ],
      "alphaMode": "OPAQUE",
      "alphaCutoff": 0.5,
      "doubleSided": true
    },
    {
      "extensions": {
        "KHR_materials_unlit": {}
      },
      "pbrMetallicRoughness": {
        "baseColorFactor": [
          0.18999999999999995,
          0.920005192108139,
          0.95,
          1.0
        ],
        "metallicFactor": 0.0,
        "roughnessFactor": 1.0
      },
      "emissiveFactor": [
        0.0,
        0.0,
        0.0
      ],
      "alphaMode": "OPAQUE",
      "alphaCutoff": 0.5,
      "doubleSided": true
    },
    {
      "extensions": {
        "KHR_materials_unlit": {}
      },
      "pbrMetallicRoughness": {
        "baseColorFactor": [
          0.95,
          0.7582297965913817,
          0.18999999999999995,
          1.0
        ],
        "metallicFactor": 0.0,
        "roughnessFactor": 1.0
      },
      "emissiveFactor": [
        0.0,
        0.0,
        0.0
      ],
      "alphaMode": "OPAQUE",
      "alphaCutoff": 0.5,
      "doubleSided": true
    },
    {
      "extensions": {
        "KHR_materials_unlit": {}
      },
      "pbrMetallicRoughness": {
        "baseColorFactor": [
          0.5364647852909024,
          0.18999999999999995,
          0.95,
          1.0
        ],
        "metallicFactor": 0.0,
        "roughnessFactor": 1.0
      },
      "emissiveFactor": [
        0.0,
        0.0,
        0.0
      ],
      "alphaMode": "OPAQUE",
      "alphaCutoff": 0.5,
      "doubleSided": true
    },
    {
      "extensions": {
        "KHR_materials_unlit": {}
      },
      "pbrMetallicRoughness": {
        "baseColorFactor": [
          0.18999999999999995,
          0.95,
          0.3146997739904231,
          1.0
        ],
        "metallicFactor": 0.0,
        "roughnessFactor": 1.0
      },
      "emissiveFactor": [
        0.0,
        0.0,
        0.0
      ],
      "alphaMode": "OPAQUE",
      "alphaCutoff": 0.5,
      "doubleSided": true
    },
    {
      "extensions": {
        "KHR_materials_unlit": {}
      },
      "pbrMetallicRoughness": {
        "baseColorFactor": [
          0.95,
          0.18999999999999995,
          0.28706523731005595,
          1.0
        ],
        "metallicFactor": 0.0,
        "roughnessFactor": 1.0
      },
      "emissiveFactor": [
        0.0,
        0.0,
        0.0
      ],
      "alphaMode": "OPAQUE",
      "alphaCutoff": 0.5,
      "doubleSided": true
    },
    {
      "extensions": {
        "KHR_materials_unlit": {}
      },
      "pbrMetallicRoughness": {
        "baseColorFactor": [
          0.18999999999999995,
          0.5088302486105353,
          0.95,
          1.0
        ],
        "metallicFactor": 0.0,
        "roughnessFactor": 1.0
      },
      "emissiveFactor": [
        0.0,
        0.0,
        0.0
      ],
      "alphaMode": "OPAQUE",
      "alphaCutoff": 0.5,
      "doubleSided": true
    },
    {
      "extensions": {
        "KHR_materials_unlit": {}
      },
      "pbrMetallicRoughness": {
        "baseColorFactor": [
          0.7305952599110145,
          0.95,
          0.18999999999999995,
          1.0
        ],
        "metallicFactor": 0.0,
        "roughnessFactor": 1.0
      },
      "emissiveFactor": [
        0.0,
        0.0,
        0.0
      ],
      "alphaMode": "OPAQUE",
      "alphaCutoff": 0.5,
      "doubleSided": true
    },
    {
      "extensions": {
        "KHR_materials_unlit": {}
      },
      "pbrMetallicRoughness": {
        "baseColorFactor": [
          0.9476397287885142,
          0.18999999999999995,
          0.95,
          1.0
        ],
        "metallicFactor": 0.0,
        "roughnessFactor": 1.0
      },
      "emissiveFactor": [
        0.0,
        0.0,
        0.0
      ],
      "alphaMode": "OPAQUE",
      "alphaCutoff": 0.5,
      "doubleSided": true
    },
    {
      "pbrMetallicRoughness": {
        "baseColorFactor": [
          0.5,
          0.5,
          0.5,
          1.0
        ],
        "metallicFactor": 0.0,
        "roughnessFactor": 1.0
      },
      "emissiveFactor": [
        0.0,
        0.0,
        0.0
      ],
      "alphaMode": "OPAQUE",
      "alphaCutoff": 0.5,
      "doubleSided": true
    }
  ],
  "meshes": [
    {
      "primitives": [
        {
          "attributes": {
            "POSITION": 0,
            "NORMAL": 2
          },
          "indices": 1,
          "mode": 4,
          "material": 0
        }
      ]
    },
    {
      "primitives": [
        {
          "attributes": {
            "POSITION": 0,
            "NORMAL": 2
          },
          "indices": 1,
          "mode": 4,
          "material": 0
        }
      ]
    },
    {
      "primitives": [
        {
          "attributes": {
            "POSITION": 0,
            "NORMAL": 2
          },
          "indices": 1,
          "mode": 4,
          "material": 1
        }
      ]
    },
    {
      "primitives": [
        {
          "attributes": {
            "POSITION": 0,
            "NORMAL": 2
          },
          "indices": 1,
          "mode": 4,
          "material": 2
        }
      ]
    },
    {
      "primitives": [
        {
          "attributes": {
            "POSITION": 0,
            "NORMAL": 2
          },
          "indices": 1,
          "mode": 4,
          "material": 3
        }
      ]
    },
    {
      "primitives": [
        {
          "attributes": {
            "POSITION": 0,
            "NORMAL": 2
          },
          "indices": 1,
          "mode": 4,
          "material": 4
        }
      ]
    },
    {
      "primitives": [
        {
          "attributes": {
            "POSITION": 0,
            "NORMAL": 2
          },
          "indices": 1,
          "mode": 4,
          "material": 5
        }
      ]
    },
    {
      "primitives": [
        {
          "attributes": {
            "POSITION": 0,
            "NORMAL": 2
          },
          "indices": 1,
          "mode": 4,
          "material": 6
        }
      ]
    },
    {
      "primitives": [
        {
          "attributes": {
            "POSITION": 0,
            "NORMAL": 2
          },
          "indices": 1,
          "mode": 4,
          "material": 7
        }
      ]
    },
    {
      "primitives": [
        {
          "attributes": {
            "POSITION": 0,
            "NORMAL": 2
          },
          "indices": 1,
          "mode": 4,
          "material": 8
        }
      ]
    },
    {
      "primitives": [
        {
          "attributes": {
            "POSITION": 0,
            "NORMAL": 2
          },
          "indices": 1,
          "mode": 4,
          "material": 9
        }
      ]
    },
    {
      "primitives": [
        {
          "attributes": {
            "POSITION": 0,
            "NORMAL": 2
          },
          "indices": 1,
          "mode": 4,
          "material": 10
        }
      ]
    },
    {
      "primitives": [
        {
          "attributes": {
            "POSITION": 0,
            "NORMAL": 2
          },
          "indices": 1,
          "mode": 4,
          "material": 11
        }
      ]
    },
    {
      "primitives": [
        {
          "attributes": {
            "POSITION": 0,
            "NORMAL": 2
          },
          "indices": 1,
          "mode": 4,
          "material": 12
        }
      ]
    },
    {
      "primitives": [
        {
          "attributes": {
            "POSITION": 0,
            "NORMAL": 2
          },
          "indices": 1,
          "mode": 4,
          "material": 13
        }
      ]
    },
    {
      "primitives": [
        {
          "attributes": {
            "POSITION": 0,
            "NORMAL": 2
          },
          "indices": 1,
          "mode": 4,
          "material": 14
        }
      ]
    },
    {
      "primitives": [
        {
          "attributes": {
            "POSITION": 0,
            "NORMAL": 2
          },
          "indices": 1,
          "mode": 4,
          "material": 15
        }
      ]
    },
    {
      "primitives": [
        {
          "attributes": {
            "POSITION": 0,
            "NORMAL": 2
          },
          "indices": 1,
          "mode": 4,
          "material": 16
        }
      ]
    },
    {
      "primitives": [
        {
          "attributes": {
            "POSITION": 0,
            "NORMAL": 2
          },
          "indices": 1,
          "mode": 4,
          "material": 17
        }
      ]
    },
    {
      "primitives": [
        {
          "attributes": {
            "POSITION": 0,
            "NORMAL": 2
          },
          "indices": 1,
          "mode": 4,
          "material": 18
        }
      ]
    },
    {
      "primitives": [
        {
          "attributes": {
            "POSITION": 0,
            "NORMAL": 2
          },
          "indices": 1,
          "mode": 4,
          "material": 19
        }
      ]
    },
    {
      "primitives": [
        {
          "attributes": {
            "POSITION": 0,
            "NORMAL": 2
          },
          "indices": 1,
          "mode": 4,
          "material": 20
        }
      ]
    },
    {
      "primitives": [
        {
          "attributes": {
            "POSITION": 0,
            "NORMAL": 2
          },
          "indices": 1,
          "mode": 4,
          "material": 21
        }
      ]
    },
    {
      "primitives": [
        {
          "attributes": {
            "POSITION": 0,
            "NORMAL": 2
          },
          "indices": 1,
          "mode": 4,
          "material": 22
        }
      ]
    },
    {
      "primitives": [
        {
          "attributes": {
            "POSITION": 0,
            "NORMAL": 2
          },
          "indices": 1,
          "mode": 4,
          "material": 23
        }
      ]
    },
    {
      "primitives": [
        {
          "attributes": {
            "POSITION": 0,
            "NORMAL": 2
          },
          "indices": 1,
          "mode": 4,
          "material": 24
        }
      ]
    },
    {
      "primitives": [
        {
          "attributes": {
            "POSITION": 3
          },
          "indices": 4,
          "mode": 4,
          "material": 25
        }
      ]
    }
  ],
  "nodes": [
    {
      "mesh": 1,
      "rotation": [
        0.0922858109277897,
        0.0,
        -0.7010587201521712,
        0.7071067811865476
      ],
      "translation": [
        0.0136435,
        -0.267024,
        -0.10375100000000001
      ],
      "scale": [
        0.002,
        0.02752240601764315,
        0.002
      ]
    },
    {
      "mesh": 1,
      "rotation": [
        0.2418279849357646,
        0.0,
        -0.6644691307366413,
        0.7071067811865476
      ],
      "translation": [
        0.035923,
        -0.267024,
        -0.09881200000000001
      ],
      "scale": [
        0.002,
        0.018380309573018623,
        0.002
      ]
    },
    {
      "mesh": 1,
      "rotation": [
        0.40556908891407045,
        0.0,
        -0.5792354565437192,
        0.7071067811865476
      ],
      "translation": [
        0.059558,
        -0.267024,
        -0.08516699999999999
      ],
      "scale": [
        0.002,
        0.036620322499945304,
        0.002
      ]
    },
    {
      "mesh": 1,
      "rotation": [
        0.5609621944866396,
        0.0,
        -0.43048974012946406,
        0.7071067811865476
      ],
      "translation": [
        0.082936,
        -0.267024,
        -0.0637465
      ],
      "scale": [
        0.002,
        0.02752608095970074,
        0.002
      ]
    },
    {
      "mesh": 1,
      "rotation": [
        0.6408380058830051,
        0.0,
        -0.29887564339687084,
        0.7071067811865476
      ],
      "translation": [
        0.09519949999999999,
        -0.267024,
        -0.044499
      ],
      "scale": [
        0.002,
        0.018380596426666902,
        0.002
      ]
    },
    {
      "mesh": 1,
      "rotation": [
        0.6963611237370717,
        0.0,
        -0.12280547767767773,
        0.7071067811865476
      ],
      "translation": [
        0.102264,
        -0.267024,
        -0.018138
      ],
      "scale": [
        0.002,
        0.036620509226388424,
        0.002
      ]
    },
    {
      "mesh": 1,
      "rotation": [
        0.7044157505872004,
        -0.0,
        0.06163156922122827,
        0.7071067811865476
      ],
      "translation": [
        0.104643,
        -0.267024,
        0.009049
      ],
      "scale": [
        0.002,
        0.01837994842212567,
        0.002
      ]
    },
    {
      "mesh": 1,
      "rotation": [
        0.674391060921638,
        -0.0,
        0.21259514799022897,
        0.7071067811865476
      ],
      "translation": [
        0.099704,
        -0.267024,
        0.031330500000000004
      ],
      "scale": [
        0.002,
        0.02752657234382807,
        0.002
      ]
    },
    {
      "mesh": 1,
      "rotation": [
        0.5792354565437192,
        -0.0,
        0.4055690889140703,
        0.7071067811865476
      ],
      "translation": [
        0.085064,
        -0.267024,
        0.059455999999999995
      ],
      "scale": [
        0.002,
        0.03662032249994529,
        0.002
      ]
    },
    {
      "mesh": 1,
      "rotation": [
        0.4056040739846431,
        -0.0,
        0.5792109591220286,
        0.7071067811865476
      ],
      "translation": [
        0.059563500000000005,
        -0.267024,
        0.084958
      ],
      "scale": [
        0.002,
        0.036620650526717854,
        0.002
      ]
    },
    {
      "mesh": 1,
      "rotation": [
        0.24182798493576463,
        -0.0,
        0.6644691307366413,
        0.7071067811865476
      ],
      "translation": [
        0.035929,
        -0.267024,
        0.098604
      ],
      "scale": [
        0.002,
        0.01838030957301862,
        0.002
      ]
    },
    {
      "mesh": 1,
      "rotation": [
        0.09232301618052469,
        -0.0,
        0.7010538215310794,
        0.7071067811865476
      ],
      "translation": [
        0.0136475,
        -0.267024,
        0.103544
      ],
      "scale": [
        0.002,
        0.027526632867098007,
        0.002
      ]
    },
    {
      "mesh": 1,
      "rotation": [
        -0.0616315692212288,
        0.0,
        0.7044157505872003,
        0.7071067811865476
      ],
      "translation": [
        -0.009153,
        -0.267024,
        0.10454
      ],
      "scale": [
        0.002,
        0.018379948422125675,
        0.002
      ]
    },
    {
      "mesh": 1,
      "rotation": [
        -0.2126185137203826,
        0.0,
        0.674383694660047,
        0.7071067811865476
      ],
      "translation": [
        -0.031434500000000004,
        -0.267024,
        0.09960050000000001
      ],
      "scale": [
        0.002,
        0.027526873015291803,
        0.002
      ]
    },
    {
      "mesh": 1,
      "rotation": [
        -0.40556908891407045,
        0.0,
        0.5792354565437192,
        0.7071067811865476
      ],
      "translation": [
        -0.05956,
        -0.267024,
        0.08496000000000001
      ],
      "scale": [
        0.002,
        0.036620322499945304,
        0.002
      ]
    },
    {
      "mesh": 1,
      "rotation": [
        -0.5416661808082774,
        0.0,
        0.45453025044387807,
        0.7071067811865476
      ],
      "translation": [
        -0.0804665,
        -0.267024,
        0.067418
      ],
      "scale": [
        0.002,
        0.01838044137119672,
        0.002
      ]
    },
    {
      "mesh": 1,
      "rotation": [
        -0.6272131122729154,
        0.0,
        0.3265022385726063,
        0.7071067811865476
      ],
      "translation": [
        -0.092729,
        -0.267024,
        0.048170000000000004
      ],
      "scale": [
        0.002,
        0.027526081377486335,
        0.002
      ]
    },
    {
      "mesh": 1,
      "rotation": [
        -0.6963611237370717,
        0.0,
        0.12280547767767773,
        0.7071067811865476
      ],
      "translation": [
        -0.102264,
        -0.267024,
        0.01793
      ],
      "scale": [
        0.002,
        0.036620509226388424,
        0.002
      ]
    },
    {
      "mesh": 1,
      "rotation": [
        -0.6963644260013008,
        0.0,
        -0.12278675091343902,
        0.7071067811865476
      ],
      "translation": [
        -0.10226450000000001,
        -0.267024,
        -0.018134
      ],
      "scale": [
        0.002,
        0.03662033556645815,
        0.002
      ]
    },
    {
      "mesh": 1,
      "rotation": [
        -0.6408527419372301,
        0.0,
        -0.29884404486543453,
        0.7071067811865476
      ],
      "translation": [
        -0.09520100000000001,
        -0.267024,
        -0.044495
      ],
      "scale": [
        0.002,
        0.018380173775021835,
        0.002
      ]
    },
    {
      "mesh": 1,
      "rotation": [
        -0.5609936414781107,
        0.0,
        -0.4304487591120794,
        0.7071067811865476
      ],
      "translation": [
        -0.0829385,
        -0.267024,
        -0.0637435
      ],
      "scale": [
        0.002,
        0.027527058869410648,
        0.002
      ]
    },
    {
      "mesh": 1,
      "rotation": [
        -0.4545076745327707,
        0.0,
        -0.5416851242103783,
        0.7071067811865476
      ],
      "translation": [
        -0.06752,
        -0.267024,
        -0.08057
      ],
      "scale": [
        0.002,
        0.018379798584315342,
        0.002
      ]
    },
    {
      "mesh": 1,
      "rotation": [
        -0.3265224496720245,
        0.0,
        -0.6272025907632877,
        0.7071067811865476
      ],
      "translation": [
        -0.048271999999999995,
        -0.267024,
        -0.0928325
      ],
      "scale": [
        0.002,
        0.027526543135671794,
        0.002
      ]
    },
    {
      "mesh": 1,
      "rotation": [
        -0.12278675091343927,
        0.0,
        -0.6963644260013008,
        0.7071067811865476
      ],
      "translation": [
        -0.018032,
        -0.267024,
        -0.1023675
      ],
      "scale": [
        0.002,
        0.03662033556645815,
        0.002
      ]
    },
    {
      "mesh": 2,
      "rotation": [
        -0.7052786401239288,
        0.0,
        0.05081377554307113,
        0.7071067811865476
      ],
      "translation": [
        0.287632,
        -0.267024,
        -0.1877845
      ],
      "scale": [
        0.002,
        0.029028048590974912,
        0.002
      ]
    },
    {
      "mesh": 2,
      "rotation": [
        -0.6855904859165655,
        0.0,
        0.17310599533432555,
        0.7071067811865476
      ],
      "translation": [
        0.2834605,
        -0.267024,
        -0.2146515
      ],
      "scale": [
        0.002,
        0.02555871690832698,
        0.002
      ]
    },
    {
      "mesh": 2,
      "rotation": [
        -0.6330623926195225,
        0.0,
        0.3150111221065782,
        0.7071067811865476
      ],
      "translation": [
        0.275462,
        -0.267024,
        -0.236829
      ],
      "scale": [
        0.002,
        0.02186341867137893,
        0.002
      ]
    },
    {
      "mesh": 2,
      "rotation": [
        -0.5406885856046896,
        0.0,
        0.45569271817399076,
        0.7071067811865476
      ],
      "translation": [
        0.264086,
        -0.267024,
        -0.2543355
      ],
      "scale": [
        0.002,
        0.020190959982130618,
        0.002
      ]
    },
    {
      "mesh": 2,
      "rotation": [
        -0.4141424243845568,
        0.0,
        0.5731370275290907,
        0.7071067811865476
      ],
      "translation": [
        0.24932149999999997,
        -0.267024,
        -0.2680225
      ],
      "scale": [
        0.002,
        0.020377819166927554,
        0.002
      ]
    },
    {
      "mesh": 2,
      "rotation": [
        -0.2743497171507392,
        0.0,
        0.65171484001771,
        0.7071067811865476
      ],
      "translation": [
        0.2310515,
        -0.267024,
        -0.27820449999999997
      ],
      "scale": [
        0.002,
        0.02172483762885237,
        0.002
      ]
    },
    {
      "mesh": 2,
      "rotation": [
        -0.0931803060737555,
        0.0,
        0.7009403901616751,
        0.7071067811865476
      ],
      "translation": [
        0.19712249999999998,
        -0.267024,
        -0.2855985
      ],
      "scale": [
        0.002,
        0.04825581940035832,
        0.002
      ]
    },
    {
      "mesh": 3,
      "rotation": [
        1,
        0,
        0,
        0
      ],
      "translation": [
        0.173205,
        0.021650999999999976,
        -0.288778
      ],
      "scale": [
        0.002,
        0.57735,
        0.002
      ]
    },
    {
      "mesh": 4,
      "rotation": [
        1,
        0,
        0,
        0
      ],
      "translation": [
        0.288675,
        0.021650999999999976,
        -0.173308
      ],
      "scale": [
        0.002,
        0.57735,
        0.002
      ]
    },
    {
      "mesh": 5,
      "rotation": [
        0.05081377554306977,
        -0.0,
        0.7052786401239289,
        0.7071067811865476
      ],
      "translation": [
        -0.1876815,
        -0.267024,
        -0.28773499999999996
      ],
      "scale": [
        0.002,
        0.029028048590974905,
        0.002
      ]
    },
    {
      "mesh": 5,
      "rotation": [
        0.17310599533432697,
        -0.0,
        0.6855904859165651,
        0.7071067811865476
      ],
      "translation": [
        -0.2145485,
        -0.267024,
        -0.28356349999999997
      ],
      "scale": [
        0.002,
        0.025558716908326992,
        0.002
      ]
    },
    {
      "mesh": 5,
      "rotation": [
        0.3150111221065768,
        -0.0,
        0.6330623926195231,
        0.7071067811865476
      ],
      "translation": [
        -0.236726,
        -0.267024,
        -0.275565
      ],
      "scale": [
        0.002,
        0.021863418671378906,
        0.002
      ]
    },
    {
      "mesh": 5,
      "rotation": [
        0.45569271817399026,
        -0.0,
        0.54068858560469,
        0.7071067811865476
      ],
      "translation": [
        -0.25423250000000003,
        -0.267024,
        -0.264189
      ],
      "scale": [
        0.002,
        0.02019095998213064,
        0.002
      ]
    },
    {
      "mesh": 5,
      "rotation": [
        0.573137027529092,
        -0.0,
        0.41414242438455506,
        0.7071067811865476
      ],
      "translation": [
        -0.2679195,
        -0.267024,
        -0.2494245
      ],
      "scale": [
        0.002,
        0.02037781916692754,
        0.002
      ]
    },
    {
      "mesh": 5,
      "rotation": [
        0.6517148400177092,
        -0.0,
        0.274349717150741,
        0.7071067811865476
      ],
      "translation": [
        -0.2781015,
        -0.267024,
        -0.23115449999999998
      ],
      "scale": [
        0.002,
        0.021724837628852366,
        0.002
      ]
    },
    {
      "mesh": 5,
      "rotation": [
        0.7009403901616751,
        -0.0,
        0.09318030607375548,
        0.7071067811865476
      ],
      "translation": [
        -0.2854955,
        -0.267024,
        -0.1972255
      ],
      "scale": [
        0.002,
        0.048255819400358356,
        0.002
      ]
    },
    {
      "mesh": 6,
      "rotation": [
        1,
        0,
        0,
        0
      ],
      "translation": [
        -0.288675,
        0.021650999999999976,
        -0.173308
      ],
      "scale": [
        0.002,
        0.57735,
        0.002
      ]
    },
    {
      "mesh": 7,
      "rotation": [
        1,
        0,
        0,
        0
      ],
      "translation": [
        -0.173205,
        0.021650999999999976,
        -0.288778
      ],
      "scale": [
        0.002,
        0.57735,
        0.002
      ]
    },
    {
      "mesh": 8,
      "rotation": [
        0.7052786401239288,
        -0.0,
        0.05081377554307113,
        0.7071067811865476
      ],
      "translation": [
        0.287632,
        -0.267024,
        0.1875785
      ],
      "scale": [
        0.002,
        0.029028048590974912,
        0.002
      ]
    },
    {
      "mesh": 8,
      "rotation": [
        0.6855904859165655,
        -0.0,
        0.17310599533432555,
        0.7071067811865476
      ],
      "translation": [
        0.2834605,
        -0.267024,
        0.2144455
      ],
      "scale": [
        0.002,
        0.02555871690832698,
        0.002
      ]
    },
    {
      "mesh": 8,
      "rotation": [
        0.6330623926195222,
        -0.0,
        0.31501112210657867,
        0.7071067811865476
      ],
      "translation": [
        0.275462,
        -0.267024,
        0.236623
      ],
      "scale": [
        0.002,
        0.021863418671378906,
        0.002
      ]
    },
    {
      "mesh": 8,
      "rotation": [
        0.5407031293927442,
        -0.0,
        0.455675461117771,
        0.7071067811865476
      ],
      "translation": [
        0.264086,
        -0.267024,
        0.25413
      ],
      "scale": [
        0.002,
        0.020191724641545648,
        0.002
      ]
    },
    {
      "mesh": 8,
      "rotation": [
        0.41411962658394247,
        -0.0,
        0.5731535002754289,
        0.7071067811865476
      ],
      "translation": [
        0.24932149999999997,
        -0.267024,
        0.267817
      ],
      "scale": [
        0.002,
        0.020377233497214466,
        0.002
      ]
    },
    {
      "mesh": 8,
      "rotation": [
        0.2743497171507392,
        -0.0,
        0.65171484001771,
        0.7071067811865476
      ],
      "translation": [
        0.2310515,
        -0.267024,
        0.27799850000000004
      ],
      "scale": [
        0.002,
        0.02172483762885237,
        0.002
      ]
    },
    {
      "mesh": 8,
      "rotation": [
        0.0931803060737555,
        -0.0,
        0.7009403901616751,
        0.7071067811865476
      ],
      "translation": [
        0.19712249999999998,
        -0.267024,
        0.2853925
      ],
      "scale": [
        0.002,
        0.04825581940035832,
        0.002
      ]
    },
    {
      "mesh": 9,
      "rotation": [
        1,
        0,
        0,
        0
      ],
      "translation": [
        0.173205,
        0.021650999999999976,
        0.288572
      ],
      "scale": [
        0.002,
        0.57735,
        0.002
      ]
    },
    {
      "mesh": 10,
      "rotation": [
        0.0,
        -0.0,
        0.7071067811865475,
        0.7071067811865476
      ],
      "translation": [
        0.0,
        0.310326,
        0.288572
      ],
      "scale": [
        0.002,
        0.34641,
        0.002
      ]
    },
    {
      "mesh": 11,
      "rotation": [
        0.7052786401239288,
        0.0,
        -0.05081377554307113,
        0.7071067811865476
      ],
      "translation": [
        -0.287632,
        -0.267024,
        0.1875785
      ],
      "scale": [
        0.002,
        0.029028048590974912,
        0.002
      ]
    },
    {
      "mesh": 11,
      "rotation": [
        0.6855904859165655,
        0.0,
        -0.17310599533432555,
        0.7071067811865476
      ],
      "translation": [
        -0.2834605,
        -0.267024,
        0.2144455
      ],
      "scale": [
        0.002,
        0.02555871690832698,
        0.002
      ]
    },
    {
      "mesh": 11,
      "rotation": [
        0.6330623926195222,
        0.0,
        -0.31501112210657867,
        0.7071067811865476
      ],
      "translation": [
        -0.275462,
        -0.267024,
        0.236623
      ],
      "scale": [
        0.002,
        0.021863418671378906,
        0.002
      ]
    },
    {
      "mesh": 11,
      "rotation": [
        0.5407031293927442,
        0.0,
        -0.455675461117771,
        0.7071067811865476
      ],
      "translation": [
        -0.264086,
        -0.267024,
        0.25413
      ],
      "scale": [
        0.002,
        0.020191724641545648,
        0.002
      ]
    },
    {
      "mesh": 11,
      "rotation": [
        0.41411962658394247,
        0.0,
        -0.5731535002754289,
        0.7071067811865476
      ],
      "translation": [
        -0.24932149999999997,
        -0.267024,
        0.267817
      ],
      "scale": [
        0.002,
        0.020377233497214466,
        0.002
      ]
    },
    {
      "mesh": 11,
      "rotation": [
        0.2743497171507392,
        0.0,
        -0.65171484001771,
        0.7071067811865476
      ],
      "translation": [
        -0.2310515,
        -0.267024,
        0.27799850000000004
      ],
      "scale": [
        0.002,
        0.02172483762885237,
        0.002
      ]
    },
    {
      "mesh": 11,
      "rotation": [
        0.0931803060737555,
        0.0,
        -0.7009403901616751,
        0.7071067811865476
      ],
      "translation": [
        -0.19712249999999998,
        -0.267024,
        0.2853925
      ],
      "scale": [
        0.002,
        0.04825581940035832,
        0.002
      ]
    },
    {
      "mesh": 12,
      "rotation": [
        0.7052786401239288,
        0.0,
        -0.05081377554307113,
        0.7071067811865476
      ],
      "translation": [
        -0.287632,
        0.310326,
        0.1875785
      ],
      "scale": [
        0.002,
        0.029028048590974912,
        0.002
      ]
    },
    {
      "mesh": 12,
      "rotation": [
        0.6855904859165655,
        0.0,
        -0.17310599533432555,
        0.7071067811865476
      ],
      "translation": [
        -0.2834605,
        0.310326,
        0.2144455
      ],
      "scale": [
        0.002,
        0.02555871690832698,
        0.002
      ]
    },
    {
      "mesh": 12,
      "rotation": [
        0.6330623926195222,
        0.0,
        -0.31501112210657867,
        0.7071067811865476
      ],
      "translation": [
        -0.275462,
        0.310326,
        0.236623
      ],
      "scale": [
        0.002,
        0.021863418671378906,
        0.002
      ]
    },
    {
      "mesh": 12,
      "rotation": [
        0.5407031293927442,
        0.0,
        -0.455675461117771,
        0.7071067811865476
      ],
      "translation": [
        -0.264086,
        0.310326,
        0.25413
      ],
      "scale": [
        0.002,
        0.020191724641545648,
        0.002
      ]
    },
    {
      "mesh": 12,
      "rotation": [
        0.41411962658394247,
        0.0,
        -0.5731535002754289,
        0.7071067811865476
      ],
      "translation": [
        -0.24932149999999997,
        0.310326,
        0.267817
      ],
      "scale": [
        0.002,
        0.020377233497214466,
        0.002
      ]
    },
    {
      "mesh": 12,
      "rotation": [
        0.2743497171507392,
        0.0,
        -0.65171484001771,
        0.7071067811865476
      ],
      "translation": [
        -0.2310515,
        0.310326,
        0.27799850000000004
      ],
      "scale": [
        0.002,
        0.02172483762885237,
        0.002
      ]
    },
    {
      "mesh": 12,
      "rotation": [
        0.0931803060737555,
        0.0,
        -0.7009403901616751,
        0.7071067811865476
      ],
      "translation": [
        -0.19712249999999998,
        0.310326,
        0.2853925
      ],
      "scale": [
        0.002,
        0.04825581940035832,
        0.002
      ]
    },
    {
      "mesh": 13,
      "rotation": [
        0.7071067811865475,
        0.0,
        0.0,
        0.7071067811865476
      ],
      "translation": [
        -0.288675,
        0.310326,
        -0.00010299999999999199
      ],
      "scale": [
        0.002,
        0.34641,
        0.002
      ]
    },
    {
      "mesh": 14,
      "rotation": [
        -0.7052786401239288,
        0.0,
        0.05081377554307113,
        0.7071067811865476
      ],
      "translation": [
        0.287632,
        0.310326,
        -0.1877845
      ],
      "scale": [
        0.002,
        0.029028048590974912,
        0.002
      ]
    },
    {
      "mesh": 14,
      "rotation": [
        -0.6855904859165655,
        0.0,
        0.17310599533432555,
        0.7071067811865476
      ],
      "translation": [
        0.2834605,
        0.310326,
        -0.2146515
      ],
      "scale": [
        0.002,
        0.02555871690832698,
        0.002
      ]
    },
    {
      "mesh": 14,
      "rotation": [
        -0.6330623926195225,
        0.0,
        0.3150111221065782,
        0.7071067811865476
      ],
      "translation": [
        0.275462,
        0.310326,
        -0.236829
      ],
      "scale": [
        0.002,
        0.02186341867137893,
        0.002
      ]
    },
    {
      "mesh": 14,
      "rotation": [
        -0.5406885856046896,
        0.0,
        0.45569271817399076,
        0.7071067811865476
      ],
      "translation": [
        0.264086,
        0.310326,
        -0.2543355
      ],
      "scale": [
        0.002,
        0.020190959982130618,
        0.002
      ]
    },
    {
      "mesh": 14,
      "rotation": [
        -0.4141424243845568,
        0.0,
        0.5731370275290907,
        0.7071067811865476
      ],
      "translation": [
        0.24932149999999997,
        0.310326,
        -0.2680225
      ],
      "scale": [
        0.002,
        0.020377819166927554,
        0.002
      ]
    },
    {
      "mesh": 14,
      "rotation": [
        -0.2743497171507392,
        0.0,
        0.65171484001771,
        0.7071067811865476
      ],
      "translation": [
        0.2310515,
        0.310326,
        -0.27820449999999997
      ],
      "scale": [
        0.002,
        0.02172483762885237,
        0.002
      ]
    },
    {
      "mesh": 14,
      "rotation": [
        -0.0931803060737555,
        0.0,
        0.7009403901616751,
        0.7071067811865476
      ],
      "translation": [
        0.19712249999999998,
        0.310326,
        -0.2855985
      ],
      "scale": [
        0.002,
        0.04825581940035832,
        0.002
      ]
    },
    {
      "mesh": 15,
      "rotation": [
        0.7052786401239288,
        -0.0,
        0.05081377554307113,
        0.7071067811865476
      ],
      "translation": [
        0.287632,
        0.310326,
        0.1875785
      ],
      "scale": [
        0.002,
        0.029028048590974912,
        0.002
      ]
    },
    {
      "mesh": 15,
      "rotation": [
        0.6855904859165655,
        -0.0,
        0.17310599533432555,
        0.7071067811865476
      ],
      "translation": [
        0.2834605,
        0.310326,
        0.2144455
      ],
      "scale": [
        0.002,
        0.02555871690832698,
        0.002
      ]
    },
    {
      "mesh": 15,
      "rotation": [
        0.6330623926195222,
        -0.0,
        0.31501112210657867,
        0.7071067811865476
      ],
      "translation": [
        0.275462,
        0.310326,
        0.236623
      ],
      "scale": [
        0.002,
        0.021863418671378906,
        0.002
      ]
    },
    {
      "mesh": 15,
      "rotation": [
        0.5407031293927442,
        -0.0,
        0.455675461117771,
        0.7071067811865476
      ],
      "translation": [
        0.264086,
        0.310326,
        0.25413
      ],
      "scale": [
        0.002,
        0.020191724641545648,
        0.002
      ]
    },
    {
      "mesh": 15,
      "rotation": [
        0.41411962658394247,
        -0.0,
        0.5731535002754289,
        0.7071067811865476
      ],
      "translation": [
        0.24932149999999997,
        0.310326,
        0.267817
      ],
      "scale": [
        0.002,
        0.020377233497214466,
        0.002
      ]
    },
    {
      "mesh": 15,
      "rotation": [
        0.2743497171507392,
        -0.0,
        0.65171484001771,
        0.7071067811865476
      ],
      "translation": [
        0.2310515,
        0.310326,
        0.27799850000000004
      ],
      "scale": [
        0.002,
        0.02172483762885237,
        0.002
      ]
    },
    {
      "mesh": 15,
      "rotation": [
        0.0931803060737555,
        -0.0,
        0.7009403901616751,
        0.7071067811865476
      ],
      "translation": [
        0.19712249999999998,
        0.310326,
        0.2853925
      ],
      "scale": [
        0.002,
        0.04825581940035832,
        0.002
      ]
    },
    {
      "mesh": 16,
      "rotation": [
        0.05081377554306977,
        -0.0,
        0.7052786401239289,
        0.7071067811865476
      ],
      "translation": [
        -0.1876815,
        0.310326,
        -0.28773499999999996
      ],
      "scale": [
        0.002,
        0.029028048590974905,
        0.002
      ]
    },
    {
      "mesh": 16,
      "rotation": [
        0.17310599533432697,
        -0.0,
        0.6855904859165651,
        0.7071067811865476
      ],
      "translation": [
        -0.2145485,
        0.310326,
        -0.28356349999999997
      ],
      "scale": [
        0.002,
        0.025558716908326992,
        0.002
      ]
    },
    {
      "mesh": 16,
      "rotation": [
        0.3150111221065768,
        -0.0,
        0.6330623926195231,
        0.7071067811865476
      ],
      "translation": [
        -0.236726,
        0.310326,
        -0.275565
      ],
      "scale": [
        0.002,
        0.021863418671378906,
        0.002
      ]
    },
    {
      "mesh": 16,
      "rotation": [
        0.45569271817399026,
        -0.0,
        0.54068858560469,
        0.7071067811865476
      ],
      "translation": [
        -0.25423250000000003,
        0.310326,
        -0.264189
      ],
      "scale": [
        0.002,
        0.02019095998213064,
        0.002
      ]
    },
    {
      "mesh": 16,
      "rotation": [
        0.573137027529092,
        -0.0,
        0.41414242438455506,
        0.7071067811865476
      ],
      "translation": [
        -0.2679195,
        0.310326,
        -0.2494245
      ],
      "scale": [
        0.002,
        0.02037781916692754,
        0.002
      ]
    },
    {
      "mesh": 16,
      "rotation": [
        0.6517148400177092,
        -0.0,
        0.274349717150741,
        0.7071067811865476
      ],
      "translation": [
        -0.2781015,
        0.310326,
        -0.23115449999999998
      ],
      "scale": [
        0.002,
        0.021724837628852366,
        0.002
      ]
    },
    {
      "mesh": 16,
      "rotation": [
        0.7009403901616751,
        -0.0,
        0.09318030607375548,
        0.7071067811865476
      ],
      "translation": [
        -0.2854955,
        0.310326,
        -0.1972255
      ],
      "scale": [
        0.002,
        0.048255819400358356,
        0.002
      ]
    },
    {
      "mesh": 17,
      "rotation": [
        0.7071067811865475,
        0.0,
        0.0,
        0.7071067811865476
      ],
      "translation": [
        0.288675,
        0.310326,
        -0.00010299999999999199
      ],
      "scale": [
        0.002,
        0.34641,
        0.002
      ]
    },
    {
      "mesh": 18,
      "rotation": [
        0.0,
        -0.0,
        0.7071067811865475,
        0.7071067811865476
      ],
      "translation": [
        0.0,
        0.310326,
        -0.288778
      ],
      "scale": [
        0.002,
        0.34641,
        0.002
      ]
    },
    {
      "mesh": 19,
      "rotation": [
        0.7071067811865475,
        0.0,
        0.0,
        0.7071067811865476
      ],
      "translation": [
        -0.288675,
        -0.267024,
        -0.00010299999999999199
      ],
      "scale": [
        0.002,
        0.34641,
        0.002
      ]
    },
    {
      "mesh": 20,
      "rotation": [
        0.0,
        -0.0,
        0.7071067811865475,
        0.7071067811865476
      ],
      "translation": [
        0.0,
        -0.267024,
        0.288572
      ],
      "scale": [
        0.002,
        0.34641,
        0.002
      ]
    },
    {
      "mesh": 21,
      "rotation": [
        0.7071067811865475,
        0.0,
        0.0,
        0.7071067811865476
      ],
      "translation": [
        0.288675,
        -0.267024,
        -0.00010299999999999199
      ],
      "scale": [
        0.002,
        0.34641,
        0.002
      ]
    },
    {
      "mesh": 22,
      "rotation": [
        0.0,
        -0.0,
        0.7071067811865475,
        0.7071067811865476
      ],
      "translation": [
        0.0,
        -0.267024,
        -0.288778
      ],
      "scale": [
        0.002,
        0.34641,
        0.002
      ]
    },
    {
      "mesh": 23,
      "rotation": [
        1,
        0,
        0,
        0
      ],
      "translation": [
        -0.288675,
        0.021650999999999976,
        0.173102
      ],
      "scale": [
        0.002,
        0.57735,
        0.002
      ]
    },
    {
      "mesh": 24,
      "rotation": [
        1,
        0,
        0,
        0
      ],
      "translation": [
        -0.173205,
        0.021650999999999976,
        0.288572
      ],
      "scale": [
        0.002,
        0.57735,
        0.002
      ]
    },
    {
      "mesh": 25,
      "rotation": [
        1,
        0,
        0,
        0
      ],
      "translation": [
        0.288675,
        0.021650999999999976,
        0.173102
      ],
      "scale": [
        0.002,
        0.57735,
        0.002
      ]
    },
    {
      "mesh": 26
    }
  ],
  "scenes": [
    {
      "nodes": [
        0,
        1,
        2,
        3,
        4,
        5,
        6,
        7,
        8,
        9,
        10,
        11,
        12,
        13,
        14,
        15,
        16,
        17,
        18,
        19,
        20,
        21,
        22,
        23,
        24,
        25,
        26,
        27,
        28,
        29,
        30,
        31,
        32,
        33,
        34,
        35,
        36,
        37,
        38,
        39,
        40,
        41,
        42,
        43,
        44,
        45,
        46,
        47,
        48,
        49,
        50,
        51,
        52,
        53,
        54,
        55,
        56,
        57,
        58,
        59,
        60,
        61,
        62,
        63,
        64,
        65,
        66,
        67,
        68,
        69,
        70,
        71,
        72,
        73,
        74,
        75,
        76,
        77,
        78,
        79,
        80,
        81,
        82,
        83,
        84,
        85,
        86,
        87,
        88,
        89,
        90,
        91,
        92,
        93,
        94,
        95,
        96
      ]
    }
  ]
}