v 0.0276273 -0.462248 -0.0286063
v -0.0166278 -0.452423 -0.0893267
v -0.149427 -0.212893 0.119063
v 0 -0.243708 -0.174078
v 0.0541031 -0.291387 -0.164305
v 0 -0.29158 -0.174078
v -0.167522 -0.116652 0.0371584
v -0.158461 -0.110212 0.0820497
v -0.150333 -0.0721837 0.105132
v 0.15746 -0.221778 -0.0902821
v 0.157104 -0.178018 -0.0936236
v 0.174078 -0.195837 0
v 0.0621586 -0.223553 -0.162473
v 0 -0.100095 -0.174078
v 0.138311 -0.441192 -0.000615285
v 0.160317 -0.435194 0.067724
v 0.171425 0.043519 0.030173
v -0.123111 -0.368779 0.136003
v 0.112243 -0.286022 -0.150983
v -0.162385 -0.378357 -0.0686848
v -0.031417 0.435194 -0.081153
v -0.049654 0.435194 -0.071372
v 0.167825 -0.0222723 0.0374306
v -0.159726 -0.181847 0.083358
v 0.164362 0.0109512 0.0545619
v 0.0904778 -0.0579943 -0.154448
v 0.0204084 0.445895 0.0482483
v 0.163865 -0.0513333 0.0555622
v -0.156692 -0.227189 -0.0943968
v 0.0703236 -0.453506 0.0525964
v 0.152939 0.125749 -0.0327886
v 0.169899 -0.399669 0.0399361
v -0.0734175 0.0808086 0.15124
v 0.165443 -0.128234 0.0431667
v -0.065072 0.435194 0.057777
v -0.081153 0.435194 0.031417
v 0.07568 0.364831 0.0408063
v 0.087039 0.362662 0
v -0.031417 0.435194 0.081153
v -0.0466398 0.396878 0.0770566
v 0 0.398928 0.087039
v 0.09309 -0.435194 -0.146971
v 0.0564748 -0.444185 -0.13002
v 0.0868837 -0.442292 -0.113168
v -0.147448 -0.176268 0.122113
v 0.0591632 -0.450483 -0.088717
v -0.167015 -0.235632 0.0390011
v 0.09486 -0.452828 0.00230172
v -0.174078 -0.195837 0
v 0.169933 0.08737 0
v 0.174078 0.043519 0
v 0.0374867 0.180931 -0.130066
v 0 0.168399 -0.140816
v 0.154613 -0.342771 0.0955757
v -0.122932 0.043519 0.122932
v -0.093173 0.043519 0.146888
v -0.0537361 -0.0483123 -0.165034
v 0.174078 -0.435194 0
v -0.0962583 -0.05525 -0.155434
v -0.0894155 -0.444495 -0.0960119
v -0.117241 -0.282367 -0.151857
v 0.122849 -0.435194 -0.123098
v 0.164945 -0.17091 0.0460333
v -0.155867 -0.147017 -0.0990117
v 0.10986 -0.0983445 -0.149787
v 0.0919572 0.212689 -0.083461
v -0.031417 0.290129 0.081153
v 0 0.326396 0.087039
v -0.124648 0.191455 0.0324576
v -0.0860834 -0.399132 -0.15632
v 0.123288 -0.445662 -0.0415064
v 0 0.362662 -0.087039
v 0.031334 0.290129 0.081236
v -0.0421187 -0.32148 -0.167694
v 0.049571 0.290129 0.071538
v 0.171425 0.043519 -0.030173
v 0.0511091 0.365539 0.0749958
v 0.160097 -0.101085 -0.0730086
v 0.0451894 -0.393464 0.1682
v 0.031334 0.435194 -0.081236
v 0.057611 0.435194 -0.065155
v -0.0254019 0.446957 0.0414533
v 0 0.435194 0.087039
v 0.160317 0.043519 -0.067724
v -0.0216686 -0.451611 0.0948845
v 0.0495202 0.446354 0.020191
v -0.0644155 -0.442534 0.124629
v 0.0299734 -0.321748 -0.169481
v 0.0921282 0.144422 0.128085
v -0.146027 0.0883046 -0.0801715
v 0.095694 0.248951 -0.0470511
v 0.081153 0.290129 -0.0315
v -0.171425 -0.435194 -0.030091
v -0.174078 -0.387323 0
v 0 -0.339451 0.174078
v 0 -0.387323 0.174078
v -0.174078 -0.100095 0
v -0.174078 -0.0522234 0
v 0 -0.339451 -0.174078
v -0.0715776 -0.172852 -0.160429
v -0.140246 -0.241197 -0.136254
v 0 0.168399 0.140816
v 0.104965 0.249553 0
v 0.0865327 0.260898 0.0550661
v 0.0897326 0.231449 0.073622
v -0.12173 -0.442429 -0.0741682
v 0.122965 0.183489 -0.0641387
v 0.096058 -0.323809 -0.155527
v -0.081153 0.290129 0.031417
v -0.087039 0.290129 0
v -0.104965 0.249553 0
v 0.100536 0.128843 -0.124261
v 0 -0.0043522 0.174078
v -0.030091 0.043519 0.171425
v -0.067559 0.043519 0.160317
v -0.065072 0.290129 0.057777
v -0.123141 0.19308 -0.0384862
v 0.146991 -0.102234 -0.117313
v -0.167204 -0.11572 -0.0346934
v -0.0318872 -0.361051 -0.170308
v 0.147622 -0.167523 0.125264
v 0.123226 -0.443124 0.0380052
v -0.0303461 -0.316269 0.16975
v -0.0408099 -0.356865 0.170406
v -0.087039 0.326396 0
v -0.155947 -0.00552224 -0.0833175
v 0.14766 -0.0291714 -0.102919
v 0.0805704 -0.131177 -0.158435
v 0.127441 0.18827 -0.0282316
v -0.164917 -0.203245 0.0497695
v -0.169682 -0.383832 -0.0348688
v 0.155726 0.00524425 -0.0815777
v 0.174078 -0.0522234 0
v -0.0322216 -0.464052 0.0119474
v 0.16715 0.00976673 -0.0456881
v -0.0741789 -0.455549 0.0217399
v -0.162267 -0.257762 0.0731934
v 0.158197 -0.264635 -0.0864485
v 0.0371336 -0.117313 0.166333
v 0.16575 -0.243006 -0.0446097
v -0.0454055 -0.173483 0.165229
v -0.14391 0.00518292 0.102275
v 0.113725 0.161437 -0.097407
v 0.166151 -0.245978 0.0426611
v -0.0701711 -0.359491 -0.164431
v 0.0496221 0.401183 -0.0750005
v 0.154609 -0.298531 0.102778
v -0.160317 -0.435194 -0.067559
v -0.122891 0.208976 0
v -0.129064 0.126896 -0.0972183
v 0.146805 0.043519 -0.093256
v -0.167524 -0.275238 0.0388676
v 0.174078 -0.29158 0
v -0.129526 0.162363 -0.0669058
v 0.167863 -0.321019 -0.0383088
v 0 -0.0522234 0.174078
v 0.0659942 0.208673 0.109365
v 0.0485312 0.245421 0.0983183
v -0.144394 -0.0325048 -0.109125
v -0.119728 0.084659 -0.119945
v 0.067476 0.043519 -0.1604
v 0.09309 0.043519 -0.146971
v -0.0386059 -0.0876272 0.167726
v -0.0515853 -0.0488204 0.166123
v 0.138065 0.160347 -0.0393935
v 0.0432015 -0.268937 0.166331
v -0.0947105 0.124656 -0.131394
v 0 -0.29158 0.174078
v -0.158742 0.127823 0
v -0.123795 -0.238711 0.143906
v -0.153342 -0.25378 0.112453
v 0.164105 -0.375669 0.0683548
v 0.165222 -0.0873947 0.0448678
v 0.144101 -0.387585 -0.108499
v 0 -0.195837 -0.174078
v 0.122857 -0.356734 -0.14054
v 0 -0.100095 0.174078
v -0.146759 -0.384907 0.107536
v -0.0170403 -0.463305 -0.0390526
v 0.119887 0.119415 0.114908
v 0.145095 -0.131693 0.127406
v 0.162878 -0.294124 0.066756
v 0.141605 0.07534 -0.095564
v -0.0427364 -0.226798 0.166215
v -0.0322426 0.44402 -0.046236
v 0.174078 -0.243708 0
v 0.067476 0.043519 0.1604
v -0.103112 0.237703 0.0425446
v -0.163304 -0.147556 -0.0556894
v -0.154042 -0.144318 0.104226
v 0.0320266 -0.451145 0.0903792
v 0.0102759 -0.444598 0.13097
v -0.0281404 -0.442286 0.138665
v 0.109775 0.223974 0.0344119
v 0.122891 0.208976 0
v 0 0.208976 -0.122891
v -0.034514 0.191378 -0.126139
v -0.0419717 0.225576 -0.109959
v 0.064906 0.290129 0.05786
v -0.078246 0.396761 -0.0422613
v -0.087039 0.362662 0
v -0.087039 0.398928 0
v -0.093173 -0.435194 -0.146888
v 0.0613965 -0.332241 -0.164053
v 0.0499879 -0.442072 0.130361
v 0.0712098 -0.455869 -0.0418334
v -0.091968 -0.135021 -0.156808
v -0.0437313 -0.132138 -0.165264
v 0.156625 -0.0657147 -0.0875826
v -0.0464135 0.397229 -0.0766782
v 0 0.398928 -0.087039
v -0.0560177 -0.275767 -0.164315
v -0.121794 -0.210735 -0.14703
v 0.110447 -0.164177 0.151131
v -0.093173 0.043519 -0.146888
v -0.112624 -0.0196361 -0.136679
v -0.0780553 -0.00857879 -0.157973
v -0.0864837 -0.374788 0.158423
v -0.0457941 -0.458054 0.055526
v 0.00850472 0.450032 0.0070481
v 0 0.127823 -0.158742
v 0.0783372 -0.296096 0.160603
v -0.160317 0.043519 0.067559
v -0.162541 -0.258315 -0.0657286
v -0.112537 -0.173856 -0.149957
v -0.167473 -0.179056 -0.0350039
v -0.065072 0.435194 -0.057777
v -0.169933 0.08737 0
v 0 -0.435194 0.174078
v 0.067476 -0.435194 0.1604
v 0.030008 -0.435194 0.171425
v -0.049654 0.290129 0.071372
v -0.0783164 0.401674 0.0406298
v 0.0997536 -0.328924 0.155026
v 0.124152 -0.368656 0.137504
v 0.133068 0.00720541 -0.116275
v -0.165797 -0.0811456 0.0477757
v -0.04319 0.32629 -0.0765662
v 0.112653 0.217079 -0.0394276
v -0.136789 -0.323008 -0.129533
v -0.093173 -0.435194 0.146888
v 0.168535 -0.280575 0.0314343
v -0.0347334 -0.0848789 -0.167704
v -0.160774 -0.223138 0.0815723
v 0.0728456 -0.139726 0.159674
v -0.146888 0.043519 -0.093173
v -0.122932 0.043519 -0.122932
v 0.174078 -0.0043522 0
v 0.081153 0.435194 -0.0315
v -0.067559 -0.435194 0.160317
v -0.160317 0.043519 -0.067559
v -0.10601 0.225068 -0.0433805
v -0.168933 0.0103136 0.0368028
v -0.0908256 -0.205921 -0.156997
v 0 0.08737 0.169933
v -0.0420141 0.0738393 0.163434
v 0.09309 -0.435194 0.146971
v 0.140816 0.168399 0
v 0.158742 0.127823 0
v -0.081153 0.290129 -0.031417
v -0.065072 0.290129 -0.057777
v 0.087039 0.326396 0
v -0.157514 0.0976276 0.0471931
v -0.134388 -0.443335 -0.0319213
v 0.160317 -0.435194 -0.067724
v 0.114157 0.0844106 -0.125048
v 0.0353135 -0.124826 -0.166707
v 0.0514084 -0.0851002 -0.164115
v -0.0681542 0.35965 -0.0582588
v 0.0402515 -0.0730633 0.166647
v 0 0.435194 -0.087039
v -0.16972 -0.393681 0.03888
v -0.168236 -0.355417 0.04824
v -0.174078 -0.339451 0
v -0.106947 0.0841304 0.130607
v 0 0.127823 0.158742
v 0.0483587 0.0855639 0.159265
v 0.0561747 0.127002 0.146832
v -0.0691854 -0.318718 0.164158
v -0.090864 -0.320159 -0.158475
v -0.137458 -0.286358 0.138274
v 0 -0.435194 -0.174078
v -0.030091 -0.435194 -0.171425
v -0.154794 -0.0732645 -0.0935443
v -0.129721 -0.0643905 -0.128346
v -0.081153 0.435194 -0.031417
v -0.0400502 0.448229 -0.00307818
v -0.114111 -0.099207 -0.146009
v -0.150806 -0.274879 -0.113098
v 0.0433296 0.331697 -0.0764744
v 0 0.326396 -0.087039
v -0.108653 -0.363845 -0.1476
v 0.135465 -0.201521 0.137272
v 0.138957 -0.246462 -0.136381
v 0.0688947 -0.357787 0.16327
v 0.0438389 -0.315518 0.167494
v 0 0.043519 0.174078
v -0.147873 -0.188283 -0.1216
v 0.104302 -0.215911 -0.15496
v -0.167052 -0.334909 -0.0464175
v 0.101196 -0.171691 -0.155537
v 0.0702171 -0.194143 -0.161023
v -0.0304216 -0.126966 0.168078
v 0 -0.147966 0.174078
v -0.162934 -0.145414 0.0621455
v -0.174078 -0.147966 0
v 0.146805 -0.435194 0.093256
v 0.0367168 0.398199 0.0781342
v 0.0699287 0.401049 0.0521491
v -0.166956 -0.288449 -0.0407283
v -0.0476653 -0.397059 -0.168483
v 0.0793412 -0.444626 0.102204
v 0.165378 -0.158692 -0.0457863
v 0.0739592 0.257736 -0.0800803
v 0.057611 0.290129 -0.065155
v 0.071372 0.290129 -0.049819
v -0.0853662 -0.211056 0.158859
v 0.081153 0.290129 0.0315
v 0.0647449 0.272514 0.0754201
v -0.120355 -0.000169625 0.132068
v -0.123163 -0.19278 0.147524
v 0.090451 -0.268416 0.158142
v 0.0953273 -0.207015 0.156474
v -0.0549206 0.259715 -0.0887726
v 0.0771796 -0.240014 0.159935
v 0.0414032 -0.223107 0.166044
v 0.164298 -0.396227 -0.0597752
v -0.0884265 0.259193 -0.0548704
v -0.0842846 0.23067 -0.087289
v 0.031334 0.435194 0.081236
v 0.165221 -0.0313164 -0.0506262
v -0.031417 0.290129 -0.081153
v -0.161678 -0.00286607 0.0675792
v 0.12643 0.149411 0.0890754
v 0 -0.147966 -0.174078
v 0.0983966 0.178763 0.103983
v 0.0448073 -0.163165 -0.165
v -0.0678322 -0.124746 0.161835
v 0.0899822 -0.000318715 0.15151
v -0.05195 -0.398441 0.169043
v -0.121299 -0.0769106 0.145787
v -0.150794 -0.399224 -0.0971722
v 0.087039 0.398928 0
v 0.087039 0.435194 0
v 0.160475 -0.307489 -0.0793655
v -0.145405 -0.03116 0.110077
v -0.125011 -0.0413252 0.132899
v 0 0.249553 -0.104965
v -0.165697 -0.217147 -0.0447777
v -0.0783899 0.238393 0.0832159
v 0.0462529 0.226214 -0.106543
v -0.140816 0.168399 0
v 0.1409 -0.196493 -0.134708
v -0.118825 -0.446397 0.0378098
v -0.160317 -0.435194 0.067559
v 0.129296 0.0819298 0.111489
v 0.122849 0.043519 -0.123098
v 0.049571 0.435194 0.071538
v 0.11168 -0.079588 0.148242
v -0.111042 -0.324186 0.150456
v 0.0478784 0.170094 0.132333
v -0.103294 -0.450904 -0.00616808
v -0.174078 -0.243708 0
v 0.0106743 0.446599 -0.0406524
v -0.0169548 -0.443072 -0.135304
v -0.0791674 0.196914 0.107681
v -0.0759252 0.157349 0.126684
v 0.0445031 -0.0297332 0.166645
v -0.038175 0.108479 0.156683
v 0.164194 -0.128961 -0.0524698
v -0.105161 0.164551 -0.112806
v -0.174078 -0.29158 0
v 0.133242 0.115084 -0.0996376
v 0.137898 0.139072 -0.0680775
v -0.0934786 -0.451101 -0.0491219
v 0.0516066 0.0101448 0.165677
v 0.146291 0.137026 0.0444213
v -0.133289 0.00775525 -0.116346
v 0.141481 -0.0920621 0.125702
v 0.156208 -0.189568 0.0957464
v 0 -0.0522234 -0.174078
v 0.0781573 0.327627 0.0353171
v -0.161851 0.0869918 -0.0404161
v -0.070995 0.320536 -0.0466018
v 0.0639421 0.328342 0.0697342
v 0.0309098 0.334825 0.0809578
v 0.174078 -0.387323 0
v 0.117182 -0.289495 0.149233
v -0.167575 -0.173384 0.0364467
v 0.149236 -0.336994 -0.111215
v -0.0402244 -0.275162 0.167445
v -0.049654 0.290129 -0.071372
v 0.0292608 0.143069 -0.14776
v 0.11306 -0.442752 0.0781729
v -0.0540052 0.157495 -0.136493
v 0 0.043519 -0.174078
v -0.122932 -0.435194 -0.122932
v 0.0892722 -0.0463348 0.154461
v 0.0204406 -0.448973 -0.113661
v -0.0397663 -0.00470259 -0.16818
v 0.122849 -0.435194 0.123098
v -0.0413481 0.256099 0.0949143
v 0 0.249553 0.104965
v 0 -0.0043522 -0.174078
v -0.141777 0.150172 0.0395589
v -0.0711864 0.335275 0.0459098
v -0.0718789 0.370187 0.050657
v -0.161172 -0.39026 0.0739625
v 0.138094 -0.321107 0.132876
v -0.0896018 -0.0280089 0.155257
v 0.031334 0.290129 -0.081236
v -0.0805067 -0.0802277 0.16052
v -0.174078 -0.435194 0
v 0.122849 0.043519 0.123098
v 0.12722 -0.00459221 0.125188
v 0.146805 0.043519 0.093256
v 0.0834762 -0.256365 -0.158475
v 0.0346854 -0.202786 -0.167184
v -0.0925152 -0.162104 0.157632
v -0.110826 0.124556 0.116229
v -0.0761533 0.118776 0.140941
v -0.048484 -0.0025461 0.167055
v -0.107899 -0.116692 0.153083
v 0.167726 -0.32781 0.0436989
v -0.146888 -0.435194 0.093173
v 0.166422 -0.280575 -0.0416123
v 0.171425 -0.435194 -0.030173
v -0.112447 0.191278 0.0724695
v -0.166219 -0.074431 -0.0437085
v -0.134321 0.135164 0.0806261
v -0.108687 0.164479 0.105832
v 0.0981621 0.0107281 -0.146448
v 0.051385 0.0057492 -0.165206
v -0.166017 0.00956399 -0.0489853
v 0.122071 -0.242276 0.147138
v -0.171425 0.043519 0.030091
v 0.148144 -0.270799 0.126859
v -0.174078 -0.0043522 0
v -0.160427 -0.0431032 -0.073843
v 0.159168 -0.258013 0.0854325
v 0.15494 -0.0672841 0.0915428
v 0.0492087 -0.461806 0.00856839
v 0.153989 -0.0186445 0.0882423
v 0.064906 0.435194 0.05786
v 0.081153 0.435194 0.0315
v 0.087039 0.290129 0
v 0.157127 -0.149339 0.0863305
v -0.079185 -0.445173 0.0922079
v -0.0395847 0.184265 0.127368
v -0.041196 0.222084 0.110593
v 0 0.290129 0.087039
v 0.0613915 -0.183018 0.16182
v 0.156319 -0.108785 0.0868095
v -0.0426984 0.325082 0.0797142
v 0 -0.195837 0.174078
v 0.170487 -0.365077 0.0300871
v 0.0348092 -0.156562 0.166616
v -0.0745668 0.196188 -0.112766
v -0.106053 0.196362 -0.0796874
v 0.111097 -0.118928 0.151082
v 0.132697 -0.0634274 -0.129744
v -0.167732 -0.0294647 -0.0382689
v -0.0616604 -0.45933 -0.021946
v -0.0814036 0.085099 -0.147824
v -0.0904195 -0.449203 0.0586813
v 0 -0.243708 0.174078
v -0.167738 -0.316257 0.0433298
v -0.15804 -0.344204 0.0829052
v -0.159139 -0.297454 0.0899718
v -0.0412773 0.0833067 -0.162686
v -0.0549724 0.117791 -0.150158
v 0.174078 -0.147966 0
v 0.030008 0.043519 0.171425
v -0.138243 0.0869717 0.0948218
v 0 0.290129 -0.087039
v 0.149892 -0.394376 0.103867
v 0.153915 -0.229554 0.113163
v 0.0834431 -0.363163 -0.159474
v 0.108726 -0.396598 -0.145019
v 0.162175 -0.213666 0.0641776
v -0.146888 0.043519 0.093173
v -0.049654 0.435194 0.071372
v -0.0343381 -0.184354 -0.167026
v -0.143565 -0.110236 0.126743
v -0.146888 -0.435194 -0.093173
v -0.0736508 -0.0934068 -0.160414
v 0.0229283 -0.458131 -0.0684994
v 0.0911129 0.0981807 0.139147
v 0.065012 0.137587 -0.141357
v -0.030091 0.043519 -0.171425
v 0.0797622 0.180029 -0.120108
v -0.131785 -0.148986 0.142287
v 0.129945 -0.318976 -0.140094
v -0.171425 -0.435194 0.030091
v 0.0779894 0.399514 -0.0422381
v 0.00676263 -0.467416 0.00169072
v 0.0349243 0.37059 -0.078017
v -0.159707 -0.185358 -0.076734
v 0.071372 0.435194 -0.049819
v 0.0474492 0.445565 -0.0195728
v 0.102494 -0.445258 -0.0800169
v -0.0385247 0.145942 0.144154
v 0.0902012 -0.398681 0.153735
v 0.0810597 0.0914565 -0.146763
v 0.117758 -0.0256261 -0.137956
v 0 0.208976 0.122891
v -0.171425 0.043519 -0.030091
v -0.174078 0.043519 0
v 0.110442 0.202529 0.0704802
v 0.158197 0.0870265 0.0532474
v 0.148438 -0.290901 -0.120774
v 0.156743 -0.136424 -0.0918828
v 0.134356 -0.144663 -0.136658
v -0.0545895 -0.44514 -0.115084
v -0.157339 -0.348248 -0.0928987
v -0.160083 -0.305399 -0.0829933
v 0.146805 -0.435194 -0.093256
v 0.167931 -0.107685 -0.0323313
v 0.174078 -0.100095 0
v -0.137502 -0.371046 -0.120473
v -0.144934 -0.332465 0.12195
v 0.0763496 0.327217 -0.043446
v 0.0693467 0.364243 -0.0553669
v -0.0887698 -0.268661 0.159704
v 0.03802 -0.360042 -0.168599
v 0.174078 -0.339451 0
v 0.067476 -0.435194 -0.1604
v 0.0590191 -0.398453 -0.161759
v 0.030008 -0.435194 -0.171425
v 0 -0.387323 -0.174078
v -0.067559 -0.435194 -0.160317
v 0.162117 -0.352591 -0.0741038
v -0.160944 -0.0437129 0.0723617
v 0.130531 0.173953 0.0489736
v 0 0.08737 -0.169933
v 0.133475 -0.0491085 0.126023
v -0.0545587 -0.225768 -0.163754
v 0.160317 0.043519 0.067724
v 0.168786 -0.359939 -0.0344488
v -0.148479 0.1278 -0.0487392
v 0.09309 0.043519 0.146971
v 0.00892037 -0.462302 0.0478838
v 0.0755365 -0.0959417 0.159273
v 0.166617 -0.0726877 -0.0407267
v -0.030091 -0.435194 0.171425
v -0.067559 0.043519 -0.160317
v 0.0402202 0.0956935 -0.159792
v 0.157349 0.0893023 -0.0556897
v 0.139478 0.115567 0.0818464
v 0.030008 0.043519 -0.171425
v -0.160449 -0.110288 -0.0749596
v 0 0.362662 0.087039
v -0.0498579 0.358807 0.0769612
v -0.0547558 -0.453552 -0.0679893
v -0.140689 -0.443084 0.0113954
v -0.147096 -0.105756 -0.117051
v -0.132941 -0.140998 -0.136512
v -0.122932 -0.435194 0.122932
v -0.0967312 -0.243741 -0.15669
v 0.0435451 -0.0372709 -0.165971
v 0.0807278 -0.021009 -0.156454
v -0.087039 0.435194 0
v 0.171425 -0.435194 0.030173
v -0.031417 0.435194 0.081153
v 0.104965 0.249553 0
v -0.081153 0.290129 0.031417
v 0.030008 0.043519 -0.171425
v -0.171425 -0.435194 -0.030091
v 0.174078 0.043519 0
v 0.169933 0.08737 0
v 0 -0.0522234 0.174078
v 0.122891 0.208976 0
v -0.087039 0.290129 0
v 0 0.208976 -0.122891
v -0.065072 0.435194 -0.057777
v -0.087039 0.398928 0
v -0.081153 0.435194 0.031417
v -0.174078 -0.100095 0
v -0.093173 -0.435194 0.146888
v -0.030091 0.043519 0.171425
v -0.087039 0.326396 0
v 0 0.127823 0.158742
v 0 0.362662 -0.087039
v 0 -0.147966 0.174078
v 0 -0.100095 0.174078
v -0.093173 0.043519 0.146888
v -0.122932 0.043519 0.122932
v 0.030008 -0.435194 0.171425
v 0.087039 0.398928 0
v -0.067559 -0.435194 0.160317
v 0 -0.339451 0.174078
v 0.174078 -0.195837 0
v 0 -0.29158 0.174078
v -0.049654 0.435194 -0.071372
v 0.174078 -0.435194 0
v 0 0.249553 0.104965
v -0.087039 0.362662 0
v 0 -0.387323 0.174078
v 0.174078 -0.243708 0
v -0.174078 -0.0522234 0
v -0.174078 0.043519 0
v -0.174078 -0.0043522 0
v 0.067476 0.043519 -0.1604
v -0.174078 -0.435194 0
v 0.064906 0.435194 0.05786
v 0.081153 0.290129 0.0315
v 0.171425 0.043519 0.030173
v -0.031417 0.290129 0.081153
v 0 0.398928 0.087039
v 0.031334 0.435194 0.081236
v 0 0.435194 0.087039
v -0.081153 0.435194 -0.031417
v 0 -0.195837 0.174078
v 0 -0.435194 0.174078
v -0.174078 -0.387323 0
v -0.171425 0.043519 -0.030091
v -0.174078 0.043519 0
v 0.146805 0.043519 0.093256
v -0.065072 0.290129 0.057777
v 0 -0.147966 -0.174078
v 0 -0.195837 -0.174078
v 0 -0.0043522 0.174078
v 0.160317 0.043519 0.067724
v 0.087039 0.362662 0
v 0.174078 0.043519 0
v 0.174078 -0.0522234 0
v 0.174078 -0.0043522 0
v 0 0.362662 0.087039
v 0.067476 0.043519 0.1604
v 0.09309 0.043519 0.146971
v 0.174078 -0.387323 0
v -0.122932 0.043519 -0.122932
v -0.093173 0.043519 -0.146888
v -0.146888 -0.435194 0.093173
v -0.122932 -0.435194 0.122932
v 0.146805 -0.435194 -0.093256
v -0.146888 0.043519 -0.093173
v 0 -0.339451 -0.174078
v 0.171425 0.043519 -0.030173
v 0.174078 0.043519 0
v 0.174078 -0.29158 0
v -0.087039 0.290129 0
v 0.087039 0.290129 0
v 0.081153 0.290129 -0.0315
v 0.087039 0.326396 0
v 0.087039 0.290129 0
v -0.065072 0.290129 -0.057777
v -0.067559 -0.435194 -0.160317
v 0 -0.29158 -0.174078
v 0 -0.243708 -0.174078
v 0.122849 -0.435194 -0.123098
v -0.093173 -0.435194 -0.146888
v 0.122849 -0.435194 0.123098
v 0 0.08737 0.169933
v 0.081153 0.435194 -0.0315
v 0.087039 0.435194 0
v -0.065072 0.435194 0.057777
v 0.140816 0.168399 0
v 0.030008 -0.435194 -0.171425
v 0.057611 0.290129 -0.065155
v 0 -0.387323 -0.174078
v 0 -0.435194 -0.174078
v 0.067476 -0.435194 -0.1604
v 0.160317 -0.435194 -0.067724
v 0.171425 -0.435194 -0.030173
v 0.081153 0.435194 0.0315
v 0.122849 0.043519 0.123098
v 0 0.168399 0.140816
v 0.158742 0.127823 0
v -0.031417 0.435194 -0.081153
v 0.174078 -0.100095 0
v 0.09309 -0.435194 0.146971
v -0.067559 0.043519 -0.160317
v 0.09309 -0.435194 -0.146971
v 0 0.398928 -0.087039
v 0.087039 0.435194 0
v -0.174078 -0.339451 0
v 0.171425 -0.435194 0.030173
v 0 -0.243708 0.174078
v -0.174078 -0.147966 0
v 0.030008 0.043519 0.171425
v 0 0.249553 -0.104965
v 0 -0.100095 -0.174078
v 0 0.043519 0.174078
v -0.171425 0.043519 0.030091
v -0.169933 0.08737 0
v -0.174078 0.043519 0
v -0.160317 0.043519 -0.067559
v 0 0.043519 0.174078
v 0 -0.0043522 -0.174078
v 0.146805 0.043519 -0.093256
v 0.122849 0.043519 -0.123098
v -0.030091 0.043519 -0.171425
v -0.160317 -0.435194 -0.067559
v 0 -0.0522234 -0.174078
v 0 0.08737 -0.169933
v 0 0.168399 -0.140816
v 0.146805 -0.435194 0.093256
v 0.160317 -0.435194 0.067724
v 0.160317 0.043519 -0.067724
v 0.071372 0.290129 -0.049819
v 0.031334 0.290129 0.081236
v 0 0.043519 -0.174078
v 0.057611 0.435194 -0.065155
v 0 0.208976 0.122891
v -0.067559 0.043519 0.160317
v 0 0.435194 -0.087039
v 0.031334 0.435194 -0.081236
v 0 0.435194 -0.087039
v -0.087039 0.435194 0
v 0.049571 0.290129 0.071538
v 0 0.326396 -0.087039
v 0 0.290129 0.087039
v 0 0.290129 0.087039
v -0.030091 -0.435194 -0.171425
v -0.049654 0.435194 0.071372
v 0.09309 0.043519 -0.146971
v -0.174078 -0.195837 0
v 0.174078 -0.339451 0
v 0.174078 -0.435194 0
v 0.049571 0.435194 0.071538
v 0 -0.435194 0.174078
v -0.174078 -0.243708 0
v 0.087039 0.290129 0
v 0 0.435194 0.087039
v -0.122932 -0.435194 -0.122932
v 0 0.043519 0.174078
v -0.049654 0.290129 0.071372
v 0.064906 0.290129 0.05786
v 0.067476 -0.435194 0.1604
v -0.087039 0.290129 0
v -0.081153 0.290129 -0.031417
v -0.104965 0.249553 0
v 0 0.127823 -0.158742
v -0.174078 -0.29158 0
v 0.174078 -0.147966 0
v 0.031334 0.290129 -0.081236
v 0 0.290129 -0.087039
v 0 0.043519 -0.174078
v -0.160317 0.043519 0.067559
v -0.146888 0.043519 0.093173
v 0 0.290129 -0.087039
v -0.031417 0.290129 -0.081153
v -0.140816 0.168399 0
v -0.122891 0.208976 0
v -0.171425 -0.435194 0.030091
v -0.160317 -0.435194 0.067559
v -0.174078 -0.435194 0
v -0.087039 0.435194 0
v -0.030091 -0.435194 0.171425
v 0 0.043519 -0.174078
v 0 -0.435194 -0.174078
v -0.158742 0.127823 0
v -0.049654 0.290129 -0.071372
v 0.071372 0.435194 -0.049819
v -0.146888 -0.435194 -0.093173
v 0 0.290129 -0.087039
v 0 0.326396 0.087039
v 0 0.290129 0.087039
f 509 105 157
f 4 5 6
f 8 9 237
f 10 11 12
f 46 399 43
f 487 46 206
f 206 1 487
f 487 1 179
f 170 317 321
f 112 489 491
f 373 183 266
f 37 38 343
f 39 40 41
f 529 399 365
f 399 2 365
f 2 554 514
f 128 267 268
f 57 486 59
f 157 336 509
f 517 501 62
f 170 321 3
f 8 7 305
f 11 353 513
f 73 319 75
f 206 501 71
f 82 564 83
f 85 193 87
f 4 13 417
f 91 92 103
f 93 413 94
f 13 302 299
f 565 104 105
f 358 27 330
f 44 46 43
f 109 110 111
f 422 113 114
f 194 105 509
f 547 550 535
f 86 220 27
f 95 123 124
f 125 566 116
f 559 61 101
f 258 129 195
f 432 433 161
f 364 500 81
f 479 176 174
f 138 140 426
f 433 404 567
f 98 462 429
f 264 568 148
f 482 40 39
f 439 429 462
f 17 51 50
f 429 97 98
f 190 24 45
f 24 190 305
f 156 164 163
f 512 370 313
f 541 187 376
f 443 416 415
f 415 339 398
f 569 76 570
f 270 571 177
f 148 106 264
f 340 241 250
f 36 82 287
f 227 185 22
f 82 36 35
f 229 192 231
f 270 543 398
f 194 572 565
f 358 444 27
f 197 198 196
f 359 398 543
f 200 201 202
f 339 376 368
f 171 3 244
f 566 125 573
f 244 137 171
f 72 210 211
f 348 475 411
f 215 217 216
f 218 340 124
f 505 236 127
f 351 52 574
f 574 52 53
f 200 575 210
f 576 233 577
f 139 245 543
f 578 7 237
f 457 452 245
f 558 87 579
f 457 304 455
f 289 101 61
f 251 90 246
f 61 240 289
f 580 255 256
f 158 73 403
f 158 319 73
f 336 157 361
f 269 581 201
f 276 502 369
f 272 273 274
f 275 55 56
f 582 277 278
f 524 281 360
f 382 38 37
f 185 286 287
f 142 333 533
f 290 291 583
f 158 157 105
f 296 295 234
f 506 157 158
f 302 418 337
f 303 584 585
f 305 7 306
f 157 506 361
f 158 403 506
f 314 315 316
f 555 264 362
f 318 319 104
f 320 586 587
f 362 264 375
f 511 19 294
f 138 511 294
f 325 326 166
f 491 489 52
f 533 346 142
f 588 79 96
f 82 83 27
f 220 287 82
f 507 434 438
f 438 508 507
f 388 322 222
f 589 249 344
f 139 270 177
f 104 565 318
f 10 140 138
f 555 354 355
f 236 357 151
f 270 398 368
f 563 15 58
f 87 193 590
f 279 123 391
f 48 15 122
f 591 296 168
f 144 186 592
f 123 95 593
f 71 15 48
f 30 442 48
f 500 499 81
f 206 48 442
f 122 15 563
f 214 323 293
f 59 216 217
f 293 121 214
f 236 151 132
f 83 330 27
f 260 384 261
f 405 352 169
f 21 210 594
f 469 171 137
f 297 255 580
f 427 387 595
f 121 181 214
f 175 337 418
f 335 337 175
f 305 190 8
f 460 245 214
f 402 596 67
f 137 152 469
f 597 406 407
f 333 142 481
f 95 124 598
f 414 415 416
f 418 302 13
f 337 301 302
f 417 5 4
f 235 234 295
f 420 275 421
f 422 156 113
f 271 364 80
f 153 426 599
f 425 355 354
f 426 140 599
f 476 172 54
f 54 182 147
f 466 391 593
f 578 237 600
f 163 585 156
f 601 602 436
f 547 603 550
f 547 535 221
f 453 441 379
f 604 264 555
f 460 359 543
f 296 222 166
f 79 230 503
f 605 309 445
f 262 606 446
f 62 44 42
f 23 28 133
f 450 350 366
f 607 25 248
f 608 454 232
f 493 511 390
f 345 532 390
f 609 610 611
f 89 336 361
f 159 378 216
f 379 181 453
f 85 87 448
f 562 612 202
f 467 468 469
f 141 584 303
f 141 613 584
f 292 240 280
f 391 466 184
f 491 52 351
f 16 476 307
f 591 295 296
f 528 478 479
f 496 442 542
f 442 496 1
f 9 8 484
f 614 588 96
f 296 166 168
f 206 71 48
f 559 101 213
f 277 488 278
f 280 240 61
f 61 559 212
f 555 355 494
f 101 29 298
f 194 509 572
f 488 89 278
f 14 267 335
f 185 227 286
f 145 120 311
f 272 274 615
f 269 384 581
f 616 617 228
f 609 552 308
f 538 510 618
f 254 559 213
f 188 619 109
f 518 519 472
f 483 620 621
f 136 465 354
f 378 247 215
f 579 87 590
f 622 368 376
f 188 111 149
f 394 312 30
f 416 25 623
f 311 70 145
f 495 589 624
f 248 625 607
f 279 391 524
f 80 364 81
f 626 331 627
f 140 12 599
f 561 433 432
f 201 200 269
f 561 432 505
f 505 461 26
f 100 207 208
f 628 553 454
f 145 70 292
f 239 103 195
f 195 129 239
f 401 476 235
f 235 503 401
f 74 145 280
f 47 130 49
f 147 440 437
f 277 629 630
f 526 456 631
f 399 529 43
f 410 320 347
f 336 334 534
f 399 46 487
f 258 165 129
f 632 160 633
f 529 365 282
f 216 59 285
f 269 238 384
f 581 384 260
f 178 408 634
f 200 210 269
f 635 18 178
f 218 18 635
f 18 218 360
f 521 178 18
f 211 210 21
f 635 178 634
f 555 362 354
f 481 142 587
f 32 172 16
f 327 265 636
f 126 434 637
f 10 12 140
f 594 210 575
f 6 88 99
f 120 74 638
f 627 639 640
f 311 530 283
f 641 242 424
f 134 542 219
f 521 468 178
f 274 273 467
f 406 125 116
f 597 125 406
f 501 206 46
f 422 114 115
f 581 260 642
f 643 644 645
f 587 142 320
f 468 521 469
f 521 281 469
f 470 464 471
f 428 366 350
f 486 243 208
f 208 207 486
f 175 418 4
f 548 373 374
f 92 646 103
f 41 40 628
f 548 183 373
f 259 31 258
f 570 31 259
f 23 25 443
f 628 454 68
f 443 536 441
f 155 532 345
f 406 454 553
f 553 407 406
f 539 532 155
f 261 384 238
f 324 328 647
f 327 387 427
f 551 429 284
f 524 391 184
f 70 311 531
f 518 472 370
f 311 283 531
f 514 203 648
f 514 60 203
f 214 452 323
f 548 570 76
f 548 76 84
f 134 219 136
f 219 465 136
f 245 452 214
f 102 361 506
f 582 361 102
f 546 217 215
f 519 544 626
f 641 424 526
f 649 212 650
f 30 191 542
f 219 85 448
f 390 174 176
f 174 636 651
f 324 647 392
f 278 361 582
f 379 536 359
f 29 224 349
f 498 298 29
f 207 288 486
f 70 531 652
f 312 257 205
f 257 312 653
f 68 454 608
f 89 361 278
f 90 540 150
f 277 582 654
f 277 654 473
f 277 473 629
f 655 500 656
f 233 40 657
f 407 40 233
f 160 167 464
f 136 362 463
f 241 340 218
f 387 327 539
f 126 439 462
f 537 650 212
f 100 483 537
f 543 270 139
f 537 254 100
f 85 542 191
f 85 191 192
f 572 534 658
f 237 533 600
f 219 542 85
f 528 527 659
f 528 525 478
f 232 454 116
f 116 454 406
f 523 522 290
f 137 47 152
f 515 516 240
f 54 172 424
f 235 54 409
f 118 512 513
f 78 209 544
f 346 320 142
f 496 542 134
f 290 522 660
f 512 78 370
f 661 659 662
f 42 43 663
f 71 664 665
f 379 460 181
f 443 441 28
f 354 465 425
f 586 320 410
f 162 603 504
f 159 284 439
f 444 86 27
f 644 522 645
f 500 220 86
f 656 500 86
f 666 86 444
f 667 356 630
f 49 130 389
f 502 276 668
f 604 555 494
f 612 200 202
f 49 389 306
f 377 510 669
f 172 32 456
f 285 159 216
f 22 185 670
f 630 488 277
f 657 40 482
f 407 553 40
f 40 553 628
f 571 270 368
f 412 341 423
f 34 173 453
f 441 453 173
f 671 173 34
f 60 514 554
f 375 106 60
f 139 177 304
f 189 551 64
f 290 497 523
f 523 497 146
f 200 612 575
f 503 672 401
f 479 478 176
f 504 489 112
f 673 470 490
f 121 380 447
f 184 466 613
f 495 249 589
f 528 479 674
f 675 146 497
f 343 676 445
f 495 624 523
f 146 495 523
f 447 181 121
f 447 453 181
f 237 7 8
f 144 592 480
f 28 441 173
f 65 461 118
f 301 513 353
f 118 78 512
f 464 673 633
f 677 300 131
f 32 16 678
f 32 678 631
f 236 132 127
f 47 49 363
f 141 303 338
f 168 166 679
f 317 184 141
f 248 23 133
f 518 544 519
f 537 212 559
f 463 134 136
f 345 511 138
f 325 322 435
f 363 152 47
f 390 532 174
f 189 119 551
f 119 189 680
f 429 119 97
f 435 437 477
f 263 474 430
f 405 263 430
f 479 174 651
f 269 210 72
f 103 239 91
f 166 222 322
f 164 422 410
f 322 325 166
f 27 220 82
f 295 503 235
f 627 331 135
f 637 247 378
f 457 455 452
f 451 403 73
f 511 493 19
f 448 425 465
f 448 558 425
f 448 465 219
f 448 87 558
f 354 362 136
f 375 463 362
f 536 443 415
f 376 681 622
f 429 551 119
f 194 565 105
f 324 332 682
f 417 299 294
f 620 208 683
f 295 79 503
f 424 182 54
f 437 409 147
f 440 477 437
f 552 77 308
f 341 412 410
f 57 400 381
f 681 684 622
f 423 338 412
f 685 686 687
f 434 507 688
f 113 689 114
f 431 430 420
f 433 567 161
f 334 180 549
f 514 365 2
f 69 405 428
f 661 528 659
f 190 45 492
f 492 484 190
f 423 484 492
f 492 419 423
f 24 389 130
f 231 192 205
f 408 468 273
f 381 400 690
f 183 691 692
f 492 45 321
f 527 528 674
f 20 131 300
f 690 400 693
f 300 515 20
f 20 515 342
f 156 422 164
f 20 342 694
f 694 131 20
f 586 410 422
f 238 269 72
f 6 5 88
f 497 583 675
f 342 515 520
f 345 426 155
f 530 311 120
f 215 216 378
f 14 695 268
f 583 497 290
f 69 428 188
f 254 225 100
f 661 525 528
f 321 317 419
f 696 396 490
f 64 498 189
f 234 222 296
f 197 196 697
f 556 64 551
f 57 59 217
f 64 298 498
f 298 64 557
f 698 394 699
f 221 393 547
f 53 393 221
f 324 392 332
f 557 225 298
f 650 483 621
f 275 33 421
f 275 56 33
f 639 135 700
f 426 345 138
f 663 43 529
f 701 522 644
f 522 523 624
f 660 522 701
f 702 385 386
f 383 540 90
f 180 356 549
f 690 693 703
f 146 704 495
f 217 400 57
f 306 7 578
f 314 411 315
f 248 25 23
f 480 477 440
f 480 380 477
f 435 477 293
f 367 421 502
f 450 449 705
f 706 33 56
f 159 126 378
f 256 33 706
f 126 637 378
f 547 489 504
f 658 377 669
f 323 326 325
f 493 176 108
f 651 674 479
f 438 434 462
f 375 554 463
f 554 179 463
f 179 134 463
f 707 708 675
f 147 409 54
f 440 147 182
f 374 31 548
f 440 144 480
f 211 21 709
f 710 576 577
f 501 44 62
f 224 289 516
f 29 289 224
f 699 394 122
f 407 233 597
f 255 276 369
f 199 385 711
f 645 522 624
f 712 238 72
f 280 212 74
f 478 525 204
f 478 204 108
f 108 176 478
f 146 708 704
f 120 638 530
f 608 713 68
f 714 67 596
f 453 447 34
f 282 365 715
f 385 382 37
f 37 77 385
f 382 385 199
f 648 365 514
f 207 225 557
f 82 35 716
f 357 432 717
f 490 470 696
f 600 333 253
f 26 560 561
f 26 561 505
f 695 404 560
f 245 460 543
f 63 480 592
f 447 380 63
f 197 395 458
f 240 520 515
f 516 300 310
f 536 398 359
f 47 137 244
f 421 33 369
f 502 421 369
f 693 400 546
f 174 327 636
f 455 326 452
f 680 226 718
f 719 155 153
f 360 521 18
f 539 155 719
f 602 253 436
f 678 720 631
f 246 160 632
f 610 308 721
f 313 11 512
f 268 65 128
f 353 11 10
f 301 128 513
f 560 26 268
f 545 722 598
f 505 127 461
f 443 28 23
f 718 349 723
f 9 347 346
f 715 365 648
f 724 318 565
f 188 109 111
f 416 443 25
f 609 308 610
f 630 356 488
f 182 424 242
f 144 182 242
f 411 314 351
f 41 725 39
f 513 65 118
f 128 65 513
f 464 633 160
f 203 60 397
f 173 133 28
f 547 504 603
f 457 139 304
f 298 213 101
f 374 165 31
f 548 31 570
f 155 426 153
f 726 342 520
f 400 217 546
f 71 501 517
f 333 223 253
f 322 388 435
f 409 437 388
f 437 435 388
f 436 253 223
f 333 481 223
f 9 341 347
f 127 132 331
f 131 94 677
f 397 106 485
f 711 385 702
f 432 236 505
f 214 181 460
f 284 159 285
f 143 66 107
f 66 143 491
f 288 59 486
f 351 66 491
f 393 53 52
f 32 631 456
f 280 145 292
f 163 338 303
f 727 473 654
f 597 233 576
f 623 25 607
f 368 398 339
f 172 476 16
f 67 728 402
f 350 402 728
f 188 350 619
f 393 52 489
f 622 571 368
f 547 393 489
f 329 328 324
f 256 369 33
f 182 144 440
f 240 516 289
f 224 310 723
f 292 726 520
f 5 204 88
f 185 364 271
f 670 185 271
f 11 313 12
f 726 70 652
f 209 331 544
f 431 428 430
f 655 499 500
f 1 206 442
f 496 179 1
f 45 24 3
f 321 45 3
f 372 300 677
f 349 498 29
f 498 349 226
f 310 300 372
f 14 268 267
f 226 189 498
f 723 349 224
f 682 198 324
f 668 449 502
f 299 353 294
f 288 557 556
f 343 309 37
f 75 319 729
f 288 556 285
f 556 284 285
f 204 5 108
f 236 432 357
f 730 205 257
f 134 179 496
f 264 106 375
f 122 30 48
f 504 266 162
f 731 732 733
f 130 244 24
f 338 419 141
f 356 667 618
f 207 100 225
f 54 235 476
f 428 405 430
f 78 544 518
f 351 314 66
f 12 313 472
f 471 395 734
f 734 395 697
f 145 74 120
f 422 115 586
f 323 435 293
f 439 126 159
f 152 735 467
f 376 339 541
f 212 280 61
f 79 588 230
f 310 224 516
f 275 474 55
f 246 90 160
f 34 447 63
f 537 483 650
f 166 326 679
f 350 728 619
f 151 700 132
f 26 461 65
f 397 60 106
f 476 401 307
f 328 252 733
f 430 474 420
f 274 467 735
f 302 301 299
f 314 316 92
f 412 163 164
f 301 337 128
f 410 412 164
f 69 149 352
f 736 63 592
f 737 738 291
f 96 79 591
f 620 483 208
f 671 34 736
f 434 688 637
f 641 186 242
f 172 456 424
f 486 57 243
f 79 295 591
f 305 306 389
f 208 483 100
f 398 536 415
f 34 63 736
f 480 63 380
f 556 557 64
f 186 144 242
f 471 734 470
f 198 458 329
f 431 366 428
f 329 324 198
f 91 239 66
f 737 290 660
f 542 442 30
f 66 314 91
f 197 697 395
f 329 458 459
f 510 377 549
f 433 560 404
f 457 245 139
f 485 106 148
f 92 91 314
f 535 550 739
f 169 263 405
f 167 150 371
f 740 474 263
f 741 474 740
f 410 347 341
f 320 346 347
f 420 474 275
f 408 178 468
f 173 671 133
f 74 212 649
f 243 381 683
f 379 441 536
f 409 234 235
f 420 421 367
f 367 431 420
f 198 197 458
f 82 716 564
f 509 534 572
f 338 163 412
f 121 293 380
f 108 5 19
f 165 107 129
f 374 107 165
f 239 129 107
f 69 188 149
f 312 394 653
f 66 239 107
f 432 161 717
f 154 117 459
f 459 371 154
f 459 458 371
f 193 192 229
f 557 288 207
f 460 379 359
f 462 434 126
f 560 268 695
f 264 604 568
f 696 470 734
f 742 743 712
f 533 333 600
f 9 533 237
f 517 664 71
f 26 65 268
f 154 540 744
f 477 380 293
f 13 4 418
f 338 423 419
f 733 252 745
f 744 117 154
f 745 117 744
f 745 252 117
f 390 176 493
f 449 668 705
f 467 273 468
f 390 511 345
f 37 309 77
f 445 309 343
f 9 484 341
f 341 484 423
f 308 77 309
f 374 373 143
f 263 686 685
f 263 169 686
f 263 685 740
f 598 124 340
f 500 364 220
f 364 185 287
f 598 340 545
f 339 415 414
f 450 705 596
f 435 323 325
f 464 470 673
f 746 272 615
f 747 272 746
f 747 408 272
f 746 615 748
f 99 525 661
f 533 9 346
f 99 88 525
f 287 286 749
f 750 193 229
f 377 534 334
f 334 549 377
f 534 377 658
f 124 279 218
f 279 360 218
f 388 222 234
f 539 719 387
f 404 751 567
f 386 385 77
f 3 24 244
f 647 328 732
f 167 371 395
f 283 530 752
f 509 336 534
f 600 253 602
f 266 692 162
f 471 167 395
f 744 540 753
f 544 331 626
f 371 458 395
f 146 675 708
f 112 143 373
f 84 183 548
f 329 252 328
f 433 561 560
f 459 117 252
f 329 459 252
f 681 376 187
f 665 58 15
f 291 290 737
f 732 328 733
f 665 15 71
f 281 171 469
f 50 510 17
f 312 205 191
f 104 319 158
f 474 741 55
f 577 233 657
f 299 417 13
f 44 43 42
f 294 353 10
f 596 402 450
f 238 754 261
f 331 132 135
f 627 135 639
f 192 193 85
f 292 520 240
f 292 70 726
f 495 755 249
f 461 127 209
f 184 317 524
f 491 143 112
f 429 439 284
f 729 319 318
f 284 556 551
f 342 756 694
f 672 503 230
f 452 326 323
f 69 352 405
f 721 309 605
f 721 308 309
f 616 383 251
f 294 19 417
f 251 383 90
f 753 540 383
f 753 383 228
f 228 383 616
f 342 726 756
f 118 209 78
f 545 340 250
f 231 205 730
f 518 370 78
f 653 394 698
f 226 349 718
f 305 389 24
f 656 86 666
f 334 336 89
f 89 180 334
f 243 683 208
f 8 190 484
f 411 351 348
f 590 193 750
f 218 635 241
f 679 326 455
f 198 682 196
f 29 101 289
f 287 220 364
f 367 502 449
f 366 367 449
f 366 449 450
f 350 188 428
f 402 350 450
f 510 50 669
f 580 256 706
f 559 254 537
f 723 310 372
f 160 90 150
f 167 160 150
f 300 516 515
f 493 108 19
f 287 749 36
f 735 152 363
f 431 367 366
f 17 510 538
f 171 281 170
f 11 513 512
f 524 170 281
f 754 238 743
f 743 238 712
f 682 332 757
f 525 88 204
f 501 46 44
f 488 356 180
f 374 143 107
f 613 141 184
f 699 122 563
f 702 758 759
f 288 285 59
f 692 266 183
f 381 243 57
f 180 89 488
f 360 279 524
f 266 504 112
f 360 281 521
f 266 112 373
f 540 154 150
f 150 154 371
f 471 464 167
f 419 492 321
f 634 408 747
f 74 649 638
f 327 174 532
f 467 469 152
f 209 127 331
f 118 461 209
f 119 680 97
f 424 456 526
f 327 532 539
f 369 256 255
f 585 163 303
f 356 510 549
f 618 510 356
f 183 84 691
f 30 122 394
f 31 165 258
f 541 339 414
f 191 205 192
f 265 327 427
f 191 30 312
f 267 128 337
f 5 417 19
f 279 124 123
f 382 606 262
f 382 199 606
f 382 262 38
f 171 170 3
f 386 552 758
f 317 170 524
f 313 370 472
f 386 77 552
f 225 254 213
f 554 375 60
f 179 554 2
f 298 225 213
f 47 244 130
f 2 399 487
f 335 267 337
f 495 704 755
f 2 487 179
f 388 234 409
f 408 273 272
f 419 317 141
f 158 105 104
f 680 189 226
f 348 351 574
f 593 391 123
f 131 93 94
f 353 299 301
f 131 694 93
f 702 386 758
f 10 138 294
f 135 132 700
f 438 462 98
