v 0.002802 -0.44947 0.008615
v 0.002798 -0.449759 0.01723
v -0.009562 -0.327573 0.077722
v -0.007513 -0.342636 0.08177
v 0.032924 -0.323715 0.078773
v 0.002806 -0.449182 0
v -0.014396 -0.448512 0.00874716
v -0.031166 -0.450529 0
v 0.0132134 0.370864 0.0402984
v -0.002203 0.398915 0.051831
v -0.0212975 0.362508 0.0555035
v 0.130729 -0.105482 0
v 0.126879 -0.101732 -0.034157
v 0.121562 0.154019 -0.029058
v 0.123654 0.15301 -0.014529
v 0.132778 0.14232 -0.033986
v 0.116008 0.035621 -0.017878
v 0.118424 -0.0111567 -0.0352223
v 0.114197 0.034131 -0.035755
v -0.019302 0.0698605 -0.077118
v 0.026889 0.039784 -0.078487
v 0.079896 -0.342676 0.082418
v 0.077653 -0.331266 0.081122
v 0.037216 -0.350188 0.084118
v 0.07541 -0.319857 -0.079825
v 0.092164 -0.318194 -0.077908
v 0.077653 -0.331266 -0.081122
v -0.133887 0.154461 -0.06056
v -0.0451215 -0.0765552 0.0767274
v -0.118615 -0.001781 0.028437
v -0.121638 0.001022 0
v -0.071741 -0.459805 -0.054562
v -0.072628 -0.467067 -0.060154
v -0.046385 0.162953 0.083306
v -0.02314 0.133534 0.076791
v -0.023405 0.147037 0.080274
v -0.00701763 0.334773 -0.0452123
v -0.001906 0.303881 -0.037338
v 0.057424 0.120269 0.0789665
v 0.0629085 0.130628 0.081478
v 0.031406 0.143759 0.083659
v 0.010306 -0.00966707 0.0808505
v -0.0191035 0.014222 0.0771245
v -0.018476 -0.012289 0.077166
v 0.019073 0.457126 -0.034055
v 0.007242 0.463954 -0.025131
v 0.030259 0.450608 -0.02072
v -0.093054 0.356498 0
v -0.0734735 0.38482 0
v 0.018774 0.325067 0.0217985
v 0.0224225 0.322733 0
v 0.034975 0.348393 0
v -0.118253 -0.460589 -0.03134
v -0.114506 -0.454236 -0.014765
v -0.125473 -0.466988 -0.016576
v 0.147103 -0.412196 0.034392
v 0.14713 -0.383752 0.0346175
v -0.077908 -0.352137 -0.075543
v -0.042294 -0.364189 -0.084188
v -0.079124 -0.370678 -0.082558
v 0.117858 -0.287617 0.0544704
v 0.114614 -0.316167 0.055392
v 0.122889 -0.278196 0.034755
v 0.111646 -0.06206 -0.0750467
v -0.088214 -0.45305 0.018963
v -0.112922 -0.454293 0.029529
v -0.114506 -0.454236 0.014765
v -0.011752 -0.293317 0.077576
v 0.100548 -0.464668 0.0633485
v 0.106577 0.0840738 0.0755847
v 0.14705 -0.469084 -0.033942
v 0.141902 -0.469081 -0.050076
v -0.07518 0.060654 0.069107
v -0.133594 0.070639 0.028035
v -0.148411 0.086701 0.028136
v -0.149335 0.085232 0.014068
v -0.121638 -0.144148 0
v -0.118614 -0.1456 0.0283217
v -0.097723 0.359195 0
v -0.099279 0.360093 0
v 0.041118 0.375947 0.0189765
v 0.031718 0.350721 0.021076
v 0.0185218 -0.446581 0.0808203
v 0.0624736 0.198794 0.0561331
v -0.102705 -0.264708 0.0537405
v -0.112922 -0.454293 -0.029529
v 0.144207 0.092931 -0.044802
v 0.148272 0.091666 -0.028568
v 0.144217 0.0899 -0.045202
v -0.120125 -0.337534 0.014084
v 0.015349 0.459153 0
v 0.150259 -0.383233 0
v 0.150259 -0.411854 0
v 0.059155 0.434001 -0.013722
v -0.034028 -0.451723 0.050349
v 0.002798 -0.450331 0.03448
v 0.002799 -0.450903 0.051729
v -0.120908 0.0373288 -0.0129827
v -0.117809 0.03906 -0.031403
v -0.018272 0.193052 -0.081523
v 0.0038675 0.15215 -0.083709
v 0.100559 -0.463772 -0.0633778
v 0.14705 -0.469084 0.033941
v 0.147077 -0.44064 0.0341665
v 0.141902 -0.469081 0.050076
v 0.039578 -0.451155 0.01745
v -0.0451365 -0.449129 0.00701124
v -0.065139 -0.451876 0
v 0.120309 -0.315803 0.034794
v 0.122029 -0.31647 0.017397
v 0.135027 0.064366 0.060799
v 0.143546 0.06615 0.046643
v 0.143886 0.07651 0.046121
v -0.003292 0.304695 -0.057334
v 0.134954 -0.467906 -0.030688
v 0.122858 -0.466727 -0.027433
v -0.086288 0.352592 -0.029928
v 0.00936674 -0.450947 0.0491424
v -0.0489091 -0.170503 0.075397
v 0.060433 0.433193 -0.006861
v 0.045469 0.441833 -0.009452
v -0.0212975 0.362508 -0.0555045
v 0.0175346 -0.226005 -0.0823597
v 0.00998901 0.360244 -0.0406018
v 0.120211 -0.34364 -0.072373
v -0.12049 -0.313444 0.0141795
v 0.086169 -0.370845 -0.081648
v -0.0749125 -0.0645495 0.069138
v 0.137441 0.13972 0
v 0.125745 0.152001 0
v 0.121702 -0.460633 0
v 0.12511 -0.466909 -0.013716
v 0.127362 -0.467092 0
v -0.102125 0.192349 0.0844766
v 0.128673 0.118141 0.0631481
v 0.094411 0.117498 0.079297
v -0.0514419 -0.461747 -0.0703307
v 0.028735 0.451551 -0.036258
v -0.068199 -0.452295 0.033552
v -0.065543 -0.452048 0.018136
v -0.031373 -0.450903 0.017683
v 0.146902 0.06785 -0.023321
v 0.145893 0.0789279 -0.0334172
v 0.0038675 0.15215 0.083708
v -0.023671 0.160541 0.083757
v 0.132068 -0.469061 0.064062
v -0.0456212 -0.0204159 0.0753757
v -0.0757677 0.241156 -0.0882119
v 0.0613328 -0.422323 0.0890843
v -0.040392 0.326101 -0.059177
v -0.136562 0.251379 -0.0227955
v -0.142518 0.13044 0.0514027
v -0.119605 0.237862 -0.0693661
v -0.127382 -0.379048 -0.067773
v -0.106378 -0.336118 -0.05302
v 0.107608 0.031796 -0.065902
v 0.128872 0.050141 -0.041199
v 0.01728 0.292826 0.027253
v 0.019803 0.291354 0.013626
v -0.075506 -0.154232 -0.068935
v -0.005464 -0.3577 -0.085818
v -0.007513 -0.342636 -0.081771
v 0.037216 -0.350188 -0.084118
v -0.118778 0.054576 -0.027934
v -0.120208 0.051994 -0.013967
v -0.00590922 -0.450996 -0.0483579
v -0.118615 -0.001781 -0.028437
v -0.04764 0.272198 -0.07617
v -0.032013 0.24851 -0.077899
v 0.088613 -0.468076 0.070278
v 0.032714 -0.180089 -0.0834999
v 0.086353 -0.467062 0.059775
v 0.033829 0.24503 -0.014072
v 0.031581 0.243905 -0.028144
v -0.08947 0.150382 0.08034
v -0.068909 0.159855 0.082268
v -0.047025 0.032933 0.073212
v -0.019302 0.0698605 0.0771175
v 0.026889 0.039784 0.078486
v -0.019731 0.040733 0.077083
v 0.01614 0.293454 0
v 0.022327 0.289882 0
v 0.0306675 0.200088 -0.0785965
v 0.031406 0.143759 -0.08366
v 0.07351 0.038835 -0.079889
v -0.020844 0.31483 0.067494
v -0.118615 -0.0497207 -0.0283986
v 0.050518 0.401173 -0.016877
v 0.047292 0.440826 -0.030447
v -0.0448305 -0.262883 -0.0757506
v -0.101958 -0.0364736 -0.0559033
v 0.0530952 -0.144006 0.082905
v -0.110786 -0.466708 -0.050889
v -0.107152 0.136023 -0.076688
v -0.078452 0.106326 -0.068157
v -0.10983 0.103054 -0.065494
v 0.147156 -0.355309 0.034843
v 0.148707 -0.35496 0.017422
v -0.118614 -0.0976604 0.0283601
v 0.0324975 -0.467154 -0.062931
v 0.063782 -0.467225 -0.06293
v 0.05377 -0.451924 -0.052185
v -0.120305 -0.309089 -0.0110074
v 0.082929 0.073575 0.079303
v -0.100186 0.360605 0.010551
v -0.0997717 0.360375 0.0018125
v -0.133594 0.070639 -0.028035
v 0.136796 0.13496 -0.053799
v -0.040045 0.325892 0.064972
v -0.03965 0.325708 0.071074
v 0.011809 0.295954 -0.024978
v 0.01728 0.292826 -0.027254
v 0.010321 0.296833 -0.041601
v -0.096955 0.358751 0
v 0.0495813 0.208968 -0.0567572
v 0.0540765 0.221434 -0.0283725
v 0.076572 0.198962 -0.028601
v -0.089628 0.354517 0.041494
v -0.025917 0.317736 -0.05676
v 0.0483012 -0.433998 -0.0858175
v 0.129154 0.118211 -0.0637059
v -0.059953 0.337404 -0.055385
v -0.040045 0.325892 -0.064972
v -0.058498 0.336563 -0.067469
v 0.130369 -0.1933 0
v 0.128049 -0.202983 0.034677
v 0.130189 -0.237209 0
v -0.075254 -0.404882 0.082964
v 0.041118 0.375947 -0.0189765
v 0.0483425 0.39039 0
v -0.0973397 0.234046 0.0866919
v 0.118486 -0.0824501 0.0542226
v -0.135948 0.066588 0
v 0.113425 0.100228 -0.074585
v -0.111704 0.065899 0.046335
v -0.117809 0.03906 0.031402
v 0.013266 0.425233 -0.044045
v -0.002203 0.398915 -0.051832
v -0.10983 0.103054 0.065494
v -0.107152 0.136023 0.076687
v -0.11657 0.125965 0.072789
v 0.121814 0.059757 -0.070842
v 0.071218 0.004445 -0.080004
v 0.136501 -0.343643 0.035249
v 0.125847 -0.331978 0.035655
v 0.121889 -0.33052 0.050426
v 0.002006 -0.458993 -0.057331
v 0.001213 -0.467083 -0.062932
v 0.110081 -0.466585 -0.046495
v 0.127269 -0.135482 -0.0343307
v -0.100186 0.360605 -0.010551
v 0.014754 0.263538 -0.028878
v 0.109648 0.04899 -0.075459
v -0.101604 0.361435 0
v 0.088562 0.036028 -0.07849
v 0.000906854 0.338929 0.0410885
v -0.101843 0.356288 -0.00453434
v -0.120876 0.320106 0
v 0.082929 0.073575 -0.079304
v 0.11193 0.0803925 -0.0737472
v -0.121638 0.049412 0
v 0.120309 -0.315803 -0.034795
v 0.123078 -0.32389 -0.035225
v 0.121889 -0.33052 -0.050426
v -0.095004 0.357624 0
v 0.143886 0.07651 -0.046122
v 0.143546 0.06615 -0.046643
v 0.078488 -0.254299 -0.0796985
v -0.148768 0.104995 0.022561
v 0.111205 0.00029731 0.0596115
v 0.107608 0.031796 0.065901
v -0.149335 0.085232 -0.014068
v -0.148411 0.086701 -0.028137
v -0.01304 0.310308 0.049219
v -0.102588 -0.219289 0.0538564
v -0.0434736 -0.207263 -0.076503
v -0.0108398 0.435483 0.0318184
v -0.126195 0.234798 0.0597196
v 0.013266 0.425233 0.044044
v 0.127659 -0.169233 0.0345033
v 0.127269 -0.135482 0.0343297
v 0.115651 -0.148019 0.0740263
v 0.088613 -0.468076 -0.070279
v 0.141652 0.0909748 -0.050102
v 0.122652 -0.0564443 0.034689
v 0.00065 -0.468087 0.074368
v -0.148186 0.131679 -0.0226965
v -0.14582 -0.382282 -0.039576
v 0.148272 0.091666 0.028568
v 0.150213 0.092656 0
v -0.032013 0.24851 0.077899
v -0.049195 -0.299701 -0.0749054
v 0.002268 0.219012 0.079042
v 0.128541 0.100015 -0.066487
v -0.076838 0.34715 -0.042983
v -0.00933989 0.44589 -0.0260942
v 0.092349 0.108314 -0.07872
v 0.0277509 0.400881 0.0358623
v -0.05063 0.294089 -0.074407
v -0.118635 -0.466713 -0.043671
v 0.103328 0.175539 0
v 0.017317 0.233727 -0.059804
v -0.0811303 0.305987 0.0759495
v 0.034103 -0.0996206 -0.0835181
v -0.0112903 -0.249036 0.077614
v -0.076692 -0.333597 -0.068528
v -0.043127 -0.330585 -0.073125
v 0.001766 0.467105 0.016128
v 0.007242 0.463954 0.02513
v -0.131586 0.276492 -0.022784
v -0.117153 0.320648 -0.022562
v -0.125989 0.115908 -0.068892
v -0.11657 0.125965 -0.07279
v 0.0299854 -0.0458764 0.0824201
v 0.079896 -0.342676 -0.082418
v -0.102604 -0.220035 -0.0540628
v -0.088214 -0.45305 -0.018963
v 0.113034 -0.454046 0.010838
v 0.110025 -0.453916 0.021675
v -0.009562 -0.327573 -0.077723
v 0.032924 -0.323715 -0.078774
v 0.0512093 -0.220038 -0.0823873
v 0.144217 0.0899 0.045201
v 0.014446 -0.0843374 0.0809318
v -0.0737178 0.26148 0.0836639
v 0.130549 -0.149391 0
v 0.148654 -0.46909 -0.016971
v 0.146565 0.129029 -0.019457
v 0.111092 -0.325271 0.075625
v 0.113266 -0.334011 0.07526
v -0.148039 -0.382758 -0.019788
v -0.132216 -0.359821 -0.033872
v 0.0629085 0.130628 -0.081479
v 0.057424 0.120269 -0.0789675
v 0.110468 0.157728 -0.052427
v 0.129849 0.138854 -0.060948
v 0.107507 0.151849 -0.072165
v -0.117153 0.320648 0.022561
v -0.131586 0.276492 0.022783
v 0.11564 -0.186338 0.0740277
v 0.144227 0.086869 -0.045601
v 0.082057 -0.452964 0.047173
v 0.100604 -0.45362 0.035217
v 0.084205 -0.460013 0.053474
v 0.12785 0.09416 0.067581
v 0.128541 0.100015 0.066486
v -0.0763955 -0.288756 -0.0686297
v -0.044781 -0.259272 0.0754638
v 0.079207 -0.452758 -0.032422
v 0.0282845 -0.451414 -0.0519575
v 0.039578 -0.451155 -0.017451
v 0.150259 -0.354612 0
v -0.112216 0.274427 0.0703196
v -0.103036 0.314348 -0.0545045
v 0.136501 -0.343643 -0.03525
v 0.110081 -0.466585 0.046495
v 0.035106 0.0834573 -0.0822366
v -0.068199 -0.452295 -0.033553
v -0.098769 0.359776 -0.021103
v 0.019073 0.457126 0.034055
v 0.028735 0.451551 0.036257
v 0.00065 -0.468087 -0.074368
v -0.035708 -0.467075 -0.061543
v -0.074708 -0.436987 0.0829725
v -0.119119 0.146847 -0.071448
v 0.128214 -0.431811 -0.0684674
v 0.090104 -0.411785 -0.080982
v -0.14457 0.192315 -0.0228195
v -0.148396 0.158124 -0.011416
v -0.1464 0.191974 0
v -0.139079 -0.381053 0.055328
v 0.135027 0.064366 -0.060799
v -0.025917 0.317736 0.056759
v 0.075081 -0.290189 0.079842
v 0.092164 -0.318194 0.077908
v 0.108919 -0.31653 0.075991
v 0.132068 -0.469061 -0.064062
v -0.005464 -0.3577 0.085818
v 0.001213 -0.467083 0.062932
v -0.035708 -0.467075 0.061543
v -0.0164231 -0.45685 0.0599036
v 0.059067 0.181163 -0.07815
v 0.083287 0.166506 -0.0751575
v -0.079124 -0.370678 0.082558
v -0.148039 -0.382758 0.019788
v -0.150259 -0.426164 0
v -0.145768 -0.425681 0.039526
v 0.148707 -0.35496 -0.017422
v 0.146902 0.06785 0.023321
v 0.149136 0.084536 0.023226
v -0.110786 -0.466708 0.050889
v -0.118613 -0.19354 0.0282833
v 0.115662 -0.109701 -0.074025
v -0.043127 -0.330585 0.073125
v -0.0763955 -0.288756 0.0686297
v -0.0353649 -0.429775 0.0871622
v -0.118612 -0.337359 -0.028168
v -0.120125 -0.337534 -0.014084
v -0.118612 -0.289419 -0.0282064
v 0.139683 0.09497 0.054914
v 0.142187 0.0977267 0.0477224
v -0.118612 -0.289419 0.0282064
v -0.018476 -0.012289 -0.077167
v -0.04795 -0.000413634 -0.0751619
v 0.143993 0.13062 0.038914
v 0.132778 0.14232 0.033986
v 0.136796 0.13496 0.053799
v 0.144227 0.086869 0.0456
v -0.133878 0.192654 0.0563957
v -0.076099 -0.243914 0.0687315
v 0.05377 -0.451924 0.052185
v 0.063782 -0.467225 0.06293
v 0.0324975 -0.467154 0.062931
v -0.147987 -0.469087 -0.019739
v 0.12785 0.09416 -0.067582
v 0.13939 0.089127 -0.055688
v 0.071218 0.004445 0.080003
v 0.0747923 -0.0395143 0.0798363
v 0.123654 0.15301 0.014529
v -0.136246 -0.46907 -0.059268
v 0.144207 0.092931 0.044801
v 0.0331327 -0.229829 0.0829576
v 0.13939 0.089127 0.055688
v -0.147987 -0.469087 0.019739
v -0.125473 -0.466988 0.016575
v -0.13465 -0.467982 0.036314
v 0.022499 0.132224 0.079214
v -0.136562 0.251379 0.022795
v 0.0319391 0.0835573 0.0812363
v 0.047292 0.440826 0.030447
v -0.127293 0.190909 -0.0649462
v -0.083463 0.077136 0.066494
v -0.139079 -0.381053 -0.055329
v -0.148768 0.104995 -0.022561
v -0.0432428 -0.125818 0.0770302
v -0.0103667 -0.160474 0.07769
v 0.094411 0.117498 -0.079298
v 0.100959 0.134673 -0.075731
v 0.110237 0.109539 -0.075687
v 0.059067 0.181163 0.07815
v 0.0561086 -0.377461 0.0893622
v 0.0755075 0.119866 -0.0819823
v 0.058494 0.222617 0
v -0.102185 -0.17301 0.0537048
v -0.098769 0.359776 0.021102
v -0.0296901 0.421291 -0.0332378
v -0.0752093 -0.109391 0.0690365
v 0.081918 -0.172921 -0.079529
v 0.092349 0.108314 0.078719
v 0.09338 0.112906 0.079008
v 0.12511 -0.466909 0.013716
v 0.112274 -0.270593 0.07501
v 0.078488 -0.254299 0.079698
v -0.073395 -0.468079 0.071567
v -0.072628 -0.467067 0.060154
v -0.121638 -0.289319 0
v 0.112274 -0.270593 -0.07501
v 0.125469 -0.24059 -0.034717
v 0.122889 -0.278196 -0.034756
v -0.121638 -0.095758 0
v -0.150259 -0.383234 0
v -0.003292 0.304695 0.057333
v -0.001906 0.303881 0.037338
v -0.058498 0.336563 0.067469
v -0.10772 -0.454019 0.037807
v -0.118635 -0.466713 0.043671
v -0.118253 -0.460589 0.03134
v 0.018774 0.325067 -0.021799
v -0.145768 -0.425681 -0.039527
v -0.143514 -0.445277 -0.0139303
v -0.018873 0.098988 -0.077152
v 0.04714 0.440798 0
v 0.018117 0.279297 0
v 0.012689 0.276121 -0.027527
v 0.019803 0.291354 -0.013627
v 0.143993 0.13062 -0.038914
v 0.0783667 -0.0834737 0.0796697
v 0.081941 -0.127433 0.079503
v 0.115662 -0.109701 0.074025
v 0.0210308 0.454265 0.0111366
v 0.032176 0.449437 0.00259
v 0.03257 0.44921 0
v -0.120208 0.051994 0.013967
v -0.107017 -0.375524 -0.077319
v -0.068909 0.159855 -0.082269
v -0.01304 0.310308 -0.049219
v 0.128388 -0.431399 0.0691771
v 0.126879 -0.101732 0.034156
v 0.112598 -0.469084 0.075258
v 0.002006 -0.458993 0.057331
v -0.070854 -0.452542 -0.048969
v 0.075081 -0.290189 -0.079843
v 0.146565 0.129029 0.019457
v -0.145716 -0.469079 0.039477
v -0.0749125 -0.0645495 -0.0691385
v -0.0746157 -0.0197082 0.0692395
v -0.10294 -0.0806275 -0.0553894
v 0.116441 -0.460321 0.024553
v 0.050518 0.401173 0.016877
v 0.114197 0.034131 0.035755
v 0.118424 -0.0111567 0.035222
v 0.116008 0.035621 0.017878
v -0.042294 -0.364189 0.084188
v -0.123585 -0.466885 0.03315
v -0.118615 -0.0497207 0.0283986
v 0.031718 0.350721 -0.021076
v -0.059953 0.337404 0.055385
v 0.036077 0.246156 0
v 0.0467981 -0.0938682 0.0827934
v 0.122858 -0.466727 0.027432
v -0.001871 0.469095 0
v 0.0202937 -0.131477 0.0829775
v -0.009905 -0.116193 0.077728
v 0.132084 -0.352007 -0.064219
v -0.019731 0.040733 -0.077084
v -0.0191035 0.014222 -0.0771255
v -0.121638 -0.192538 0
v -0.099081 -0.453864 -0.043822
v -0.078452 0.106326 0.068157
v -0.093672 0.090201 0.062096
v 0.134039 0.05333 0
v 0.128872 0.050141 0.041199
v -0.10772 -0.454019 -0.037807
v -0.121726 -0.460635 0
v -0.149724 0.120824 0
v -0.150259 0.083763 0
v 0.117818 0.03711 0
v 0.122122 -0.0104207 0
v -0.118613 -0.24148 -0.0282449
v -0.073395 -0.468079 -0.071567
v -0.0927217 0.200441 -0.0891176
v 0.002802 -0.44947 -0.008616
v 0.002798 -0.449759 -0.017231
v 0.122652 -0.0564443 -0.0346897
v 0.126425 -0.0579513 0
v -0.0586228 0.378645 0.037169
v -0.0504576 0.208357 -0.0885396
v 0.0421677 -0.392819 -0.0913325
v -0.120967 -0.424904 -0.0772233
v 0.081895 -0.21841 0.079554
v 0.081918 -0.172921 0.0795285
v 0.103615 0.033222 -0.07709
v -0.027882 0.441119 0
v -0.107017 -0.375524 0.077319
v -0.060607 0.119978 0.072344
v -0.018873 0.098988 0.077152
v 0.07351 0.038835 0.079888
v -0.147603 0.158363 0.022832
v -0.142189 0.15854 0.045034
v -0.000346 -0.39753 0.08586
v 0.100604 -0.45362 -0.035217
v 0.084205 -0.460013 -0.053474
v -0.102241 -0.126741 0.0541615
v -0.00804862 0.27016 0.061497
v -0.071741 -0.459805 0.054561
v -0.0532825 -0.457235 0.0583821
v -0.111704 0.065899 -0.046336
v 0.126982 -0.389306 -0.0713081
v -0.132216 -0.359821 0.033872
v -0.14582 -0.382282 0.039575
v -0.102908 -0.17302 -0.054469
v -0.075606 0.346437 0.057578
v 0.022499 0.132224 -0.079215
v -0.13881 -0.468093 0
v -0.123585 -0.466885 -0.033151
v -0.13465 -0.467982 -0.036314
v 0.090488 -0.440437 0.0808815
v -0.127362 -0.467092 0
v 0.090104 -0.411785 0.080982
v -0.136246 -0.46907 0.059267
v 0.098968 -0.453517 0.016921
v 0.076358 -0.452552 0.01767
v 0.076386 -0.452457 0.008835
v -0.065341 -0.451962 0.009068
v -0.074708 -0.436987 -0.0829725
v -0.074162 -0.469091 -0.082981
v -0.145716 -0.469079 -0.039477
v 0.0197634 -0.448114 -0.0307406
v 0.002798 -0.450331 -0.034481
v 0.099067 0.176491 -0.0288295
v 0.083287 0.166506 0.075157
v -0.0549031 -0.46356 0.0729031
v -0.121379 -0.423739 0.0751633
v -0.12308 -0.469076 0.070405
v 0.126462 -0.331704 -0.017828
v 0.125847 -0.331978 -0.035655
v -0.018272 0.193052 0.081523
v 0.107631 -0.014419 -0.0760683
v 0.123748 -0.317137 0
v 0.125413 -0.324284 0
v -0.020844 0.31483 -0.067494
v -0.101855 -0.469087 0.078435
v -0.11609 -0.454179 0
v 0.07541 -0.319857 0.079825
v 0.090488 -0.440437 -0.080882
v -0.037038 -0.469091 0.084392
v 0.060433 0.433193 0.006861
v -0.118613 -0.24148 0.0282449
v -0.0758025 -0.199073 0.0688332
v -0.102307 -0.0818608 0.0556518
v -0.077908 -0.352137 0.075543
v -0.0824004 -0.451408 0.0359883
v 0.150259 0.08386 0
v -0.0472182 -0.0388631 -0.0756598
v -0.015619 -0.0469237 -0.0773543
v 0.045479 -0.46909 0.083292
v 0.099067 0.176491 0.0288295
v 0.110468 0.157728 0.052426
v 0.13881 -0.468094 0
v 0.086169 -0.370845 0.081648
v 0.139683 0.09497 -0.054915
v 0.111646 -0.06206 0.0750467
v 0.096581 -0.338343 -0.078839
v 0.113266 -0.334011 -0.07526
v 0.002268 0.219012 -0.079043
v 0.098968 -0.453517 -0.016921
v 0.076358 -0.452552 -0.017671
v -0.0758025 -0.199073 -0.0688332
v -0.135451 0.270938 0
v -0.00013 -0.433311 -0.085832
v 0.0182216 0.283166 0.0131264
v -0.0371164 -0.422136 -0.0894021
v -0.0444074 -0.0840388 -0.0767157
v -0.070854 -0.452542 0.048968
v 0.147103 -0.412196 -0.034393
v 0.147077 -0.44064 -0.0341675
v -0.034028 -0.451723 -0.05035
v -0.06232 -0.452315 -0.0462123
v -0.075254 -0.404882 -0.082964
v 0.14713 -0.383752 -0.0346185
v 0.0747923 -0.0395143 -0.0798373
v 0.149675 0.110048 0
v 0.0306675 0.200088 0.078596
v 0.1441 0.111775 0.041857
v 0.126462 -0.331704 0.017828
v 0.138668 -0.343022 0
v 0.127077 -0.331431 0
v 0.09338 0.112906 -0.079009
v -0.02314 0.133534 -0.076792
v -0.046385 0.162953 -0.083306
v -0.023405 0.147037 -0.080275
v 0.080911 0.199078 0
v 0.147156 -0.355309 -0.034844
v 0.141551 -0.355101 -0.051612
v 0.115651 -0.148019 -0.0740263
v -0.012762 -0.0815583 0.0775407
v -0.015619 -0.0469237 0.0773533
v 0.109648 0.04899 0.075459
v 0.088562 0.036028 0.078489
v 0.108919 -0.31653 -0.075991
v -0.083463 0.077136 -0.066495
v -0.093672 0.0902 -0.062096
v 0.0521569 0.435754 0.00405829
v 0.045469 0.441833 0.009451
v 0.032176 0.449437 -0.002591
v 0.0540765 0.221434 0.0283725
v 0.017317 0.233727 0.059804
v 0.121562 0.154019 0.029058
v -0.07518 0.060654 -0.069108
v -0.0902045 0.280183 -0.0832242
v -0.047025 0.032933 -0.073213
v 0.001766 0.467105 -0.016128
v -0.119345 -0.265282 -0.0140749
v 0.149136 0.084536 -0.023227
v -0.0450255 -0.215736 0.075858
v -0.103293 -0.12663 -0.0551606
v -0.118614 -0.1456 -0.0283217
v -0.065543 -0.452048 -0.018137
v 0.0314587 -0.0587097 -0.0833014
v 0.096581 -0.338343 0.078839
v 0.031581 0.243905 0.028144
v 0.014754 0.263538 0.028878
v 0.113425 0.100228 0.074585
v 0.150236 0.088259 0
v 0.1441 0.111775 -0.041858
v 0.025744 -0.0127425 -0.082819
v -0.142189 0.15854 -0.045035
v 0.010321 0.296833 0.0416
v 0.110025 -0.453916 -0.021675
v -0.089628 0.354517 -0.041494
v -0.149189 0.157885 0
v -0.060607 0.119978 -0.072344
v -0.140652 0.097416 -0.053271
v -0.106378 -0.336118 0.053019
v -0.102758 -0.305357 0.0537063
v 0.150259 -0.469095 0
v -0.147603 0.158363 -0.022832
v -0.000346 -0.39753 -0.08586
v 0.111092 -0.325271 -0.075625
v 0.076572 0.198962 0.028601
v 0.122029 -0.31647 -0.017397
v -0.101974 -0.278067 -0.0533869
v -0.0112903 -0.249036 -0.0776142
v 0.0315627 -0.274295 0.0819937
v 0.0220322 0.173834 0.0840549
v 0.150259 -0.440475 0
v 0.148654 -0.46909 0.016971
v -0.065341 -0.451962 -0.009069
v 0.030259 0.450608 0.020719
v -0.118613 -0.19354 -0.0282833
v -0.141538 0.226266 -0.022807
v -0.011752 -0.293317 -0.077576
v 0.086353 -0.467062 -0.059776
v 0.0256396 -0.137595 -0.0834878
v -0.0108285 -0.204755 0.077652
v 0.076414 -0.452362 0
v -0.076692 -0.333597 0.068528
v 0.107507 0.151849 0.072164
v 0.129849 0.138854 0.060948
v 0.119677 -0.0823502 -0.05457
v -0.074162 -0.469091 0.082981
v 0.0282845 -0.451414 0.051957
v -0.140652 0.097416 0.053271
v 0.081941 -0.127433 -0.079504
v 0.031783 0.449665 -0.005182
v 0.126969 -0.277173 0
v -0.12308 -0.469076 -0.070406
v 0.150259 0.06955 0
v 0.033829 0.24503 0.014072
v -0.037038 -0.469091 -0.084393
v 0.096228 -0.453269 0
v -0.04764 0.272198 0.076169
v 0.0328803 -0.272105 -0.0819129
v 0.081895 -0.21841 -0.079554
v -0.05063 0.294089 0.074407
v 8.6e-05 -0.469091 -0.085804
v -0.128164 0.295522 0
v -0.0536969 0.0892668 0.0739022
v -0.009905 -0.116193 -0.077729
v -0.0108285 -0.204755 -0.0776525
v -0.0103667 -0.160474 -0.0776908
v -0.076838 0.34715 0.042983
v -0.0998768 0.00200735 -0.0557702
v -0.0339576 0.407427 0.0345437
v 0.012689 0.276121 0.027527
v -0.135948 -0.360471 0
v -0.121638 -0.337709 0
v 0.031783 0.449665 0.005181
v 0.128049 -0.202983 -0.034678
v 0.11564 -0.186338 -0.0740277
v 0.149137 0.127439 0
v 0.0343127 -0.182832 0.0837189
v -0.074319 0.025133 -0.069342
v 0.090872 -0.469089 -0.080782
v -0.107822 0.315362 0.0542157
v 0.0425849 -0.00249997 0.082132
v -0.150259 -0.469094 0
v 0.125469 -0.24059 0.034716
v -0.053893 0.413143 0
v 0.002799 -0.450903 -0.05173
v -0.0509071 0.383683 -0.0361859
v -0.148186 0.131679 0.0226965
v -0.148396 0.158124 0.011416
v -0.099081 -0.453864 0.043822
v -0.141538 0.226266 0.022807
v 0.018449 0.268052 0
v 8.6e-05 -0.469091 0.085803
v -0.031373 -0.450903 -0.017684
v -0.023671 0.160541 -0.083758
v 0.150259 0.076705 0
v -0.00013 -0.433311 0.0858315
v 0.127659 -0.169233 -0.0345043
v -0.0746157 -0.0197082 -0.0692402
v -0.143611 0.226062 0
v 0.114614 -0.316167 -0.055393
v 0.0314299 0.408098 -0.0349478
v 0.100959 0.134673 0.07573
v -0.1207 0.279241 -0.0545556
v -0.125989 0.115908 0.068892
v 0.141551 -0.355101 0.051612
v 0.116042 -0.454175 0
v 0.113034 -0.454046 -0.010838
v 0.090872 -0.469089 0.080781
v 0.110237 0.109539 0.075687
v -0.086288 0.352592 0.029928
v -0.0752093 -0.109391 -0.0690368
v -0.0439965 -0.12582 -0.076787
v -0.118778 0.054576 0.027934
v -0.074319 0.025133 0.069341
v 0.123078 -0.32389 0.035224
v 0.028345 -0.398867 0.0909197
v -0.119119 0.146847 0.071447
v -0.133887 0.154461 0.06056
v 0.132084 -0.352007 0.064219
v 0.115629 -0.224656 -0.074029
v -0.121638 -0.240929 0
v -0.08947 0.150382 -0.08034
v 0.03961 -0.450772 0
v -0.0984679 -0.0428448 0.0591177
v 0.134954 -0.467906 0.030687
v -0.0328097 -0.393556 0.0885142
v -0.127382 -0.379048 0.067773
v -0.0516738 0.0814822 -0.074246
v -0.118612 -0.337359 0.028168
v -0.0770556 0.316241 -0.0742797
v -0.090614 -0.453027 0
v -0.075606 0.346437 -0.057579
v 0.107631 -0.014419 0.0760683
v -0.075506 -0.154232 0.068935
v -0.03965 0.325708 -0.071074
v 0.0542933 -0.449982 -0.0106594
v 0.076386 -0.452457 -0.008836
v 0.126774 -0.387698 0.0725543
v 0.039439 0.443246 0.00389755
v -0.0576192 0.211346 0.0893944
v -0.118614 -0.0976604 -0.0283601
v -0.121638 -0.047368 0
v 0.06171 0.432386 0
v 0.0783667 -0.0834737 -0.0796707
v 0.115629 -0.224656 0.074029
v -0.076099 -0.243914 -0.0687315
v 0.121814 0.059757 0.070841
v -0.00693449 0.268102 -0.0616353
v -0.012762 -0.0815583 -0.0775417
v 0.045479 -0.46909 -0.083293
v -0.101855 -0.469087 -0.078435
v 0.116441 -0.460321 -0.024554
v 0.112598 -0.469084 -0.075258
v -0.14457 0.192315 0.0228195
v 0.059155 0.434001 0.013722
v 0.103615 0.033222 0.07709
v 0.0536504 0.415631 0.00872201
v 0.082057 -0.452964 -0.047173
v 0.079207 -0.452758 0.032422
v -0.100039 0.0102576 0.0554513
v 0.120211 -0.34364 0.072373
v -0.121638 0.001022 0
v 0.002798 -0.450331 0.03448
v 0.122889 -0.278196 0.034755
v -0.023405 0.147037 0.080274
v 0.07351 0.038835 0.079888
v -0.009562 -0.327573 0.077722
v 0.032924 -0.323715 0.078773
v 0.022327 0.289882 0
v 0.059155 0.434001 -0.013722
v 0.057424 0.120269 0.0789665
v 0.041118 0.375947 -0.0189765
v 0.050518 0.401173 -0.016877
v 0.14705 -0.469084 0.033941
v -0.120208 0.051994 -0.013967
v -0.101604 0.361435 0
v -0.097723 0.359195 0
v -0.100186 0.360605 -0.010551
v 0.121814 0.059757 -0.070842
v 0.127362 -0.467092 0
v -0.093054 0.356498 0
v -0.0734735 0.38482 0
v 0.146902 0.06785 -0.023321
v -0.133887 0.154461 -0.06056
v 0.019073 0.457126 -0.034055
v -0.076692 -0.333597 -0.068528
v -0.114506 -0.454236 -0.014765
v -0.112922 -0.454293 -0.029529
v 0.045469 0.441833 0.009451
v 0.134954 -0.467906 -0.030688
v 0.14705 -0.469084 -0.033942
v 0.121889 -0.33052 0.050426
v -0.132216 -0.359821 -0.033872
v -0.02314 0.133534 0.076791
v 0.031406 0.143759 -0.08366
v -0.011752 -0.293317 0.077576
v 0.05377 -0.451924 -0.052185
v 0.0282845 -0.451414 -0.0519575
v -0.101604 0.361435 0
v -0.101604 0.361435 0
v 0.001213 -0.467083 -0.062932
v -0.119119 0.146847 -0.071448
v 0.030259 0.450608 -0.02072
v 0.047292 0.440826 -0.030447
v 0.028735 0.451551 -0.036258
v 0.150259 -0.383233 0
v 0.143886 0.07651 0.046121
v 0.109648 0.04899 -0.075459
v 0.088562 0.036028 -0.07849
v -0.107152 0.136023 -0.076688
v -0.0212975 0.362508 -0.0555045
v 0.057424 0.120269 -0.0789675
v 0.092349 0.108314 -0.07872
v -0.07518 0.060654 0.069107
v -0.007513 -0.342636 -0.081771
v -0.005464 -0.3577 -0.085818
v -0.031373 -0.450903 0.017683
v -0.149335 0.085232 -0.014068
v 0.114197 0.034131 -0.035755
v -0.118612 -0.337359 -0.028168
v 0.0540765 0.221434 -0.0283725
v 0.033829 0.24503 -0.014072
v -0.118614 -0.1456 0.0283217
v 0.12511 -0.466909 -0.013716
v 0.144227 0.086869 -0.045601
v 0.12511 -0.466909 0.013716
v 0.121702 -0.460633 0
v 0.127362 -0.467092 0
v 0.045469 0.441833 -0.009452
v 0.059155 0.434001 -0.013722
v 0.135027 0.064366 -0.060799
v -0.118778 0.054576 -0.027934
v 0.032176 0.449437 0.00259
v 0.03257 0.44921 0
v -0.121638 0.049412 0
v -0.135948 0.066588 0
v -0.023671 0.160541 0.083757
v 0.002799 -0.450903 0.051729
v -0.01304 0.310308 -0.049219
v 0.07541 -0.319857 -0.079825
v 0.092164 -0.318194 -0.077908
v 0.12785 0.09416 -0.067582
v 0.113425 0.100228 -0.074585
v 0.132778 0.14232 -0.033986
v 0.143886 0.07651 -0.046122
v 0.034975 0.348393 0
v 0.001213 -0.467083 -0.062932
v 0.00065 -0.468087 -0.074368
v 0.0324975 -0.467154 -0.062931
v 0.132778 0.14232 0.033986
v -0.005464 -0.3577 0.085818
v -0.007513 -0.342636 0.08177
v -0.042294 -0.364189 0.084188
v -0.120125 -0.337534 -0.014084
v -0.118612 -0.337359 -0.028168
v -0.0103667 -0.160474 0.07769
v -0.009905 -0.116193 0.077728
v -0.0191035 0.014222 -0.0771255
v 0.031718 0.350721 -0.021076
v -0.140652 0.097416 0.053271
v -0.111704 0.065899 0.046335
v -0.10983 0.103054 0.065494
v 0.134039 0.05333 0
v 0.116008 0.035621 0.017878
v -0.088214 -0.45305 -0.018963
v -0.071741 -0.459805 -0.054562
v -0.099081 -0.453864 -0.043822
v -0.10772 -0.454019 -0.037807
v -0.112922 -0.454293 -0.029529
v -0.118253 -0.460589 -0.03134
v 0.137441 0.13972 0
v 0.039578 -0.451155 -0.017451
v 0.081895 -0.21841 0.079554
v 0.11564 -0.186338 0.0740277
v -0.145768 -0.425681 0.039526
v -0.075254 -0.404882 0.082964
v 0.031581 0.243905 -0.028144
v -0.043127 -0.330585 0.073125
v 0.110081 -0.466585 -0.046495
v -0.098769 0.359776 0.021102
v -0.100186 0.360605 0.010551
v -0.117153 0.320648 0.022561
v -0.14582 -0.382282 0.039575
v 0.149136 0.084536 -0.023227
v 0.125745 0.152001 0
v 0.002799 -0.450903 0.051729
v 0.002006 -0.458993 0.057331
v -0.125473 -0.466988 -0.016576
v -0.123585 -0.466885 -0.033151
v 0.110468 0.157728 -0.052427
v 0.123654 0.15301 0.014529
v 0.125745 0.152001 0
v -0.018476 -0.012289 -0.077167
v 0.123078 -0.32389 -0.035225
v 0.107608 0.031796 -0.065902
v 0.103615 0.033222 -0.07709
v -0.132216 -0.359821 0.033872
v 0.148272 0.091666 0.028568
v 0.149136 0.084536 0.023226
v 0.150213 0.092656 0
v 0.143546 0.06615 -0.046643
v 0.090104 -0.411785 -0.080982
v 0.090488 -0.440437 -0.080882
v -0.060607 0.119978 0.072344
v -0.018873 0.098988 0.077152
v -0.02314 0.133534 0.076791
v -0.112922 -0.454293 -0.029529
v -0.118614 -0.0976604 0.0283601
v -0.088214 -0.45305 0.018963
v -0.068199 -0.452295 0.033552
v 0.127362 -0.467092 0
v 0.13881 -0.468094 0
v -0.053893 0.413143 0
v 0.0306675 0.200088 -0.0785965
v -0.106378 -0.336118 -0.05302
v -0.118612 -0.289419 -0.0282064
v 0.115651 -0.148019 0.0740263
v -0.123585 -0.466885 -0.033151
v -0.035708 -0.467075 -0.061543
v 0.07351 0.038835 -0.079889
v 0.14713 -0.383752 0.0346175
v -0.123585 -0.466885 0.03315
v 0.143546 0.06615 -0.046643
v 0.002268 0.219012 0.079042
v 0.146565 0.129029 0.019457
v 0.116008 0.035621 -0.017878
v 0.128872 0.050141 -0.041199
v -0.11657 0.125965 -0.07279
v -0.107152 0.136023 -0.076688
v 0.075081 -0.290189 0.079842
v 0.110237 0.109539 -0.075687
v 0.092349 0.108314 -0.07872
v 0.076572 0.198962 -0.028601
v 0.079207 -0.452758 -0.032422
v -0.043127 -0.330585 -0.073125
v 0.083287 0.166506 -0.0751575
v 0.100959 0.134673 -0.075731
v 0.0629085 0.130628 -0.081479
v -0.076099 -0.243914 0.0687315
v 0.082929 0.073575 0.079303
v -0.019302 0.0698605 0.0771175
v -0.078452 0.106326 -0.068157
v -0.019731 0.040733 0.077083
v -0.047025 0.032933 0.073212
v -0.0191035 0.014222 0.0771245
v 0.04714 0.440798 0
v 0.107507 0.151849 -0.072165
v 0.031718 0.350721 0.021076
v 0.0483425 0.39039 0
v -0.093672 0.0902 -0.062096
v -0.070854 -0.452542 -0.048969
v -0.068199 -0.452295 -0.033553
v -0.065543 -0.452048 -0.018137
v -0.070854 -0.452542 -0.048969
v 0.077653 -0.331266 0.081122
v 0.079896 -0.342676 0.082418
v 0.096581 -0.338343 0.078839
v -0.101855 -0.469087 0.078435
v 0.017317 0.233727 0.059804
v -0.072628 -0.467067 0.060154
v 0.092164 -0.318194 0.077908
v 0.07541 -0.319857 0.079825
v 0.122858 -0.466727 -0.027433
v -0.147987 -0.469087 0.019739
v 0.128049 -0.202983 -0.034678
v 0.130369 -0.1933 0
v 0.094411 0.117498 -0.079298
v 0.112274 -0.270593 -0.07501
v 0.092349 0.108314 0.078719
v 0.108919 -0.31653 -0.075991
v -0.118253 -0.460589 0.03134
v -0.123585 -0.466885 0.03315
v -0.125473 -0.466988 0.016575
v -0.002203 0.398915 0.051831
v -0.027882 0.441119 0
v -0.009562 -0.327573 0.077722
v 0.122122 -0.0104207 0
v 0.147077 -0.44064 0.0341665
v 0.148654 -0.46909 0.016971
v -0.031166 -0.450529 0
v -0.065139 -0.451876 0
v -0.009562 -0.327573 -0.077723
v -0.149335 0.085232 0.014068
v -0.148411 0.086701 0.028136
v 0.041118 0.375947 0.0189765
v 0.150259 -0.469095 0
v -0.139079 -0.381053 0.055328
v 0.110468 0.157728 0.052426
v 0.127659 -0.169233 0.0345033
v 0.115662 -0.109701 -0.074025
v -0.019731 0.040733 0.077083
v 0.07541 -0.319857 0.079825
v 0.015349 0.459153 0
v 0.031783 0.449665 -0.005182
v -0.110786 -0.466708 -0.050889
v 0.031581 0.243905 0.028144
v 0.0540765 0.221434 0.0283725
v -0.114506 -0.454236 0.014765
v 0.146902 0.06785 0.023321
v 0.099067 0.176491 0.0288295
v 0.080911 0.199078 0
v 0.076572 0.198962 0.028601
v 0.11564 -0.186338 -0.0740277
v -0.074162 -0.469091 0.082981
v 0.144227 0.086869 0.0456
v 0.143993 0.13062 0.038914
v 0.107631 -0.014419 -0.0760683
v 0.103615 0.033222 -0.07709
v 0.103615 0.033222 -0.07709
v 0.122652 -0.0564443 -0.0346897
v -0.089628 0.354517 0.041494
v -0.075606 0.346437 0.057578
v -0.076838 0.34715 0.042983
v 0.14705 -0.469084 0.033941
v -0.0112903 -0.249036 0.077614
v 0.01728 0.292826 0.027253
v 0.010321 0.296833 0.0416
v -0.135948 -0.360471 0
v -0.121638 -0.337709 0
v 0.136796 0.13496 -0.053799
v 8.6e-05 -0.469091 -0.085804
v -0.079124 -0.370678 -0.082558
v -0.077908 -0.352137 -0.075543
v 0.107631 -0.014419 0.0760683
v 0.026889 0.039784 0.078486
v 0.114197 0.034131 -0.035755
v 0.115662 -0.109701 0.074025
v -0.150259 -0.469094 0
v -0.147987 -0.469087 -0.019739
v -0.00013 -0.433311 0.0858315
v 0.01728 0.292826 -0.027254
v 0.036077 0.246156 0
v 0.022327 0.289882 0
v 0.002802 -0.44947 -0.008616
v -0.031373 -0.450903 -0.017684
v 0.002798 -0.449759 -0.017231
v 0.0038675 0.15215 -0.083709
v -0.023405 0.147037 -0.080275
v -0.112922 -0.454293 0.029529
v 0.012689 0.276121 -0.027527
v 0.014754 0.263538 -0.028878
v 0.01728 0.292826 -0.027254
v 0.114197 0.034131 0.035755
v -0.117153 0.320648 -0.022562
v -0.125989 0.115908 0.068892
v -0.125989 0.115908 -0.068892
v -0.118635 -0.466713 0.043671
v 0.141551 -0.355101 0.051612
v 0.147156 -0.355309 0.034843
v -0.023671 0.160541 -0.083758
v 0.092349 0.108314 0.078719
v 0.09338 0.112906 0.079008
v -0.150259 -0.426164 0
v -0.148039 -0.382758 -0.019788
v 0.103328 0.175539 0
v 0.123654 0.15301 -0.014529
v 0.099067 0.176491 -0.0288295
v -0.118613 -0.24148 -0.0282449
v -0.072628 -0.467067 -0.060154
v 0.121562 0.154019 -0.029058
v -0.0108285 -0.204755 -0.0776525
v 0.147103 -0.412196 0.034392
v -0.121638 -0.289319 0
v -0.118613 -0.24148 0.0282449
v -0.08947 0.150382 -0.08034
v -0.118778 0.054576 0.027934
v -0.120208 0.051994 0.013967
v -0.150259 0.083763 0
v 0.107507 0.151849 -0.072165
v 0.129849 0.138854 -0.060948
v -0.068909 0.159855 0.082268
v -0.08947 0.150382 0.08034
v 0.0306675 0.200088 0.078596
v 0.110025 -0.453916 0.021675
v 0.100604 -0.45362 0.035217
v 0.098968 -0.453517 0.016921
v -0.074708 -0.436987 0.0829725
v 0.149137 0.127439 0
v -0.05063 0.294089 -0.074407
v 0.150259 -0.354612 0
v -0.083463 0.077136 0.066494
v 0.076358 -0.452552 -0.017671
v 0.116441 -0.460321 0.024553
v 0.110025 -0.453916 0.021675
v 0.076358 -0.452552 -0.017671
v 0.127659 -0.169233 -0.0345043
v 0.002798 -0.449759 0.01723
v -0.121638 -0.144148 0
v -0.118614 -0.0976604 -0.0283601
v -0.118614 -0.1456 -0.0283217
v 0.039578 -0.451155 0.01745
v 0.002802 -0.44947 0.008615
v 0.117818 0.03711 0
v -0.150259 0.083763 0
v -0.0752093 -0.109391 0.0690365
v -0.0749125 -0.0645495 0.069138
v -0.005464 -0.3577 0.085818
v 0.144207 0.092931 -0.044802
v 0.045479 -0.46909 -0.083293
v 0.111646 -0.06206 -0.0750467
v -0.101855 -0.469087 -0.078435
v 0.122029 -0.31647 -0.017397
v 0.147156 -0.355309 0.034843
v -0.01304 0.310308 0.049219
v 0.082057 -0.452964 -0.047173
v 0.100604 -0.45362 -0.035217
v -0.079124 -0.370678 0.082558
v 0.081895 -0.21841 -0.079554
v 0.081918 -0.172921 -0.079529
v -0.0749125 -0.0645495 -0.0691385
v -0.015619 -0.0469237 -0.0773543
v -0.142189 0.15854 -0.045035
v -0.10983 0.103054 -0.065494
v -0.125989 0.115908 -0.068892
v 0.111092 -0.325271 0.075625
v 0.108919 -0.31653 0.075991
v -0.015619 -0.0469237 0.0773533
v 0.110025 -0.453916 0.021675
v 0.113034 -0.454046 0.010838
v -0.131586 0.276492 -0.022784
v -0.136562 0.251379 -0.0227955
v 0.022499 0.132224 0.079214
v -0.098769 0.359776 -0.021103
v -0.118615 -0.0497207 0.0283986
v 0.120309 -0.315803 -0.034795
v 0.031783 0.449665 0.005181
v 0.07351 0.038835 0.079888
v -0.02314 0.133534 0.076791
v -0.0746157 -0.0197082 -0.0692402
v -0.121638 0.049412 0
v 0.150259 0.06955 0
v -0.118615 -0.001781 -0.028437
v -0.106378 -0.336118 0.053019
v -0.118612 -0.337359 0.028168
v 0.115629 -0.224656 0.074029
v 0.112274 -0.270593 0.07501
v 8.6e-05 -0.469091 0.085803
v 0.136796 0.13496 0.053799
v 0.1441 0.111775 0.041857
v 0.143993 0.13062 0.038914
v -0.076099 -0.243914 -0.0687315
v 0.125469 -0.24059 0.034716
v 0.063782 -0.467225 -0.06293
v 0.076358 -0.452552 0.01767
v 0.059155 0.434001 0.013722
v 0.112598 -0.469084 -0.075258
v 0.128049 -0.202983 0.034677
v 0.125847 -0.331978 -0.035655
v 0.126462 -0.331704 -0.017828
v 0.116441 -0.460321 -0.024554
v 0.122858 -0.466727 -0.027433
v -0.145716 -0.469079 0.039477
v -0.136246 -0.46907 0.059267
v 0.135027 0.064366 0.060799
v 0.121814 0.059757 0.070841
v 0.128872 0.050141 0.041199
v 0.059155 0.434001 0.013722
v -0.018476 -0.012289 0.077166
v 0.132068 -0.469061 -0.064062
v 0.126879 -0.101732 -0.034157
v -0.018272 0.193052 0.081523
v -0.046385 0.162953 0.083306
v 0.114614 -0.316167 0.055392
v 0.120309 -0.315803 0.034794
v 0.06171 0.432386 0
v -0.058498 0.336563 -0.067469
v 0.071218 0.004445 0.080003
v -0.127382 -0.379048 0.067773
v -0.107017 -0.375524 0.077319
v 0.141902 -0.469081 0.050076
v 0.134954 -0.467906 0.030687
v 0.14705 -0.469084 0.033941
v -0.148186 0.131679 -0.0226965
v 0.030259 0.450608 0.020719
v -0.121638 0.049412 0
v 0.132084 -0.352007 0.064219
v 0.125847 -0.331978 0.035655
v -0.04764 0.272198 -0.07617
v 0.116042 -0.454175 0
v 0.096228 -0.453269 0
v 0.098968 -0.453517 -0.016921
v 0.113034 -0.454046 -0.010838
v 0.116042 -0.454175 0
v 0.116042 -0.454175 0
v 0.150259 0.06955 0
v -0.032013 0.24851 -0.077899
v -0.121638 -0.240929 0
v 0.083287 0.166506 0.075157
v 0.0629085 0.130628 0.081478
v -0.002203 0.398915 -0.051832
v 0.013266 0.425233 -0.044045
v -0.148411 0.086701 -0.028137
v 0.123078 -0.32389 0.035224
v 0.122029 -0.31647 0.017397
v 0.120309 -0.315803 0.034794
v -0.011752 -0.293317 -0.077576
v 0.032924 -0.323715 -0.078774
v 0.002798 -0.449759 0.01723
v 0.111092 -0.325271 -0.075625
v 0.108919 -0.31653 -0.075991
v 0.059067 0.181163 -0.07815
v -0.074162 -0.469091 0.082981
v 0.07541 -0.319857 -0.079825
v -0.141538 0.226266 -0.022807
v 0.130189 -0.237209 0
v 0.125469 -0.24059 -0.034717
v 0.117818 0.03711 0
v 0.117818 0.03711 0
v -0.110786 -0.466708 0.050889
v -0.112922 -0.454293 0.029529
v -0.10772 -0.454019 0.037807
v -0.112922 -0.454293 0.029529
v 0.002798 -0.449759 -0.017231
v 0.125745 0.152001 0
v 0.121562 0.154019 -0.029058
v -0.147603 0.158363 0.022832
v -0.078452 0.106326 0.068157
v -0.145716 -0.469079 -0.039477
v 0.071218 0.004445 -0.080004
v 0.07351 0.038835 -0.079889
v -0.149724 0.120824 0
v -0.001871 0.469095 0
v -0.075506 -0.154232 -0.068935
v -0.13465 -0.467982 0.036314
v 0.122889 -0.278196 -0.034756
v 0.120309 -0.315803 -0.034795
v 0.002798 -0.450331 -0.034481
v 0.002006 -0.458993 -0.057331
v 0.002799 -0.450903 -0.05173
v 0.002799 -0.450903 -0.05173
v 0.118424 -0.0111567 -0.0352223
v -0.14457 0.192315 0.0228195
v -0.150259 -0.383234 0
v -0.148039 -0.382758 0.019788
v 8.6e-05 -0.469091 -0.085804
v 0.107507 0.151849 0.072164
v -0.14582 -0.382282 -0.039576
v -0.012762 -0.0815583 0.0775407
v 0.081941 -0.127433 -0.079504
v 0.0783667 -0.0834737 -0.0796707
v 0.002268 0.219012 -0.079043
v -0.12308 -0.469076 0.070405
v -0.1464 0.191974 0
v -0.149189 0.157885 0
v 0.090104 -0.411785 0.080982
v 0.090872 -0.469089 -0.080782
v -0.076692 -0.333597 -0.068528
v 0.125847 -0.331978 -0.035655
v 0.094411 0.117498 -0.079298
v 0.094411 0.117498 -0.079298
v -0.14457 0.192315 -0.0228195
v -0.074319 0.025133 -0.069342
v -0.117809 0.03906 -0.031403
v -0.003292 0.304695 -0.057334
v 0.07541 -0.319857 0.079825
v 0.037216 -0.350188 -0.084118
v 0.086169 -0.370845 -0.081648
v -0.117809 0.03906 0.031402
v 0.058494 0.222617 0
v 0.036077 0.246156 0
v 0.143546 0.06615 0.046643
v 0.107507 0.151849 -0.072165
v 0.100959 0.134673 0.07573
v 0.110237 0.109539 0.075687
v -0.03965 0.325708 0.071074
v -0.093672 0.090201 0.062096
v 0.076386 -0.452457 -0.008836
v 0.076358 -0.452552 -0.017671
v 0.019803 0.291354 -0.013627
v 0.01728 0.292826 -0.027254
v -0.150259 -0.383234 0
v 0.126969 -0.277173 0
v 0.150259 -0.469095 0
v 0.078488 -0.254299 0.079698
v -0.118612 -0.289419 0.0282064
v 0.002268 0.219012 0.079042
v -0.034028 -0.451723 0.050349
v -0.148411 0.086701 0.028136
v -0.133594 0.070639 0.028035
v -0.118778 0.054576 0.027934
v -0.118778 0.054576 0.027934
v 0.103615 0.033222 0.07709
v 0.143546 0.06615 -0.046643
v -0.0103667 -0.160474 -0.0776908
v -0.009562 -0.327573 -0.077723
v 0.139683 0.09497 -0.054915
v 0.13939 0.089127 -0.055688
v -0.120876 0.320106 0
v -0.101604 0.361435 0
v 0.001766 0.467105 0.016128
v 0.076414 -0.452362 0
v 0.076386 -0.452457 0.008835
v -0.150259 -0.383234 0
v -0.121638 -0.047368 0
v -0.0758025 -0.199073 0.0688332
v -0.107017 -0.375524 -0.077319
v -0.079124 -0.370678 -0.082558
v 0.081918 -0.172921 0.0795285
v -0.147603 0.158363 -0.022832
v -0.121638 -0.095758 0
v -0.140652 0.097416 -0.053271
v 0.143993 0.13062 0.038914
v 0.122858 -0.466727 -0.027433
v 0.110025 -0.453916 -0.021675
v 0.110025 -0.453916 -0.021675
v 0.110025 -0.453916 -0.021675
v 0.075081 -0.290189 -0.079843
v -0.089628 0.354517 -0.041494
v -0.131586 0.276492 0.022783
v -0.096955 0.358751 0
v -0.118635 -0.466713 -0.043671
v 0.092349 0.108314 -0.07872
v 0.09338 0.112906 -0.079009
v 0.118424 -0.0111567 0.035222
v 0.114197 0.034131 0.035755
v 0.113425 0.100228 0.074585
v 0.128541 0.100015 0.066486
v 0.150259 -0.354612 0
v 0.148707 -0.35496 -0.017422
v 0.138668 -0.343022 0
v 0.108919 -0.31653 -0.075991
v 0.114614 -0.316167 -0.055393
v 0.130549 -0.149391 0
v 0.130729 -0.105482 0
v 0.127269 -0.135482 0.0343297
v 0.150213 0.092656 0
v 0.150236 0.088259 0
v -0.04764 0.272198 0.076169
v -0.032013 0.24851 0.077899
v 0.0747923 -0.0395143 0.0798363
v 0.0783667 -0.0834737 0.0796697
v -0.047025 0.032933 -0.073213
v -0.074319 0.025133 -0.069342
v 0.032176 0.449437 -0.002591
v -0.018272 0.193052 -0.081523
v -0.023671 0.160541 -0.083758
v -0.046385 0.162953 -0.083306
v 0.127269 -0.135482 -0.0343307
v 0.115651 -0.148019 -0.0740263
v 0.136501 -0.343643 -0.03525
v 0.147156 -0.355309 -0.034844
v 0.147156 -0.355309 -0.034844
v 0.121562 0.154019 -0.029058
v 0.144227 0.086869 -0.045601
v 0.148272 0.091666 -0.028568
v 0.146565 0.129029 -0.019457
v 0.149675 0.110048 0
v -0.076692 -0.333597 -0.068528
v 0.026889 0.039784 -0.078487
v -0.0763955 -0.288756 0.0686297
v 0.018117 0.279297 0
v 0.019803 0.291354 0.013626
v -0.0758025 -0.199073 -0.0688332
v -0.03965 0.325708 0.071074
v -0.058498 0.336563 0.067469
v 0.143993 0.13062 -0.038914
v -0.118612 -0.337359 0.028168
v 0.126425 -0.0579513 0
v -0.11657 0.125965 0.072789
v -0.141538 0.226266 0.022807
v -0.143611 0.226062 0
v 0.0747923 -0.0395143 -0.0798373
v -0.13465 -0.467982 -0.036314
v -0.145716 -0.469079 -0.039477
v -0.123585 -0.466885 -0.033151
v 0.136501 -0.343643 0.035249
v 0.147156 -0.355309 0.034843
v 0.148707 -0.35496 0.017422
v 0.082929 0.073575 -0.079304
v -0.079124 -0.370678 0.082558
v -0.077908 -0.352137 0.075543
v 0.125847 -0.331978 0.035655
v 0.126462 -0.331704 0.017828
v 0.060433 0.433193 0.006861
v 0.06171 0.432386 0
v 0.06171 0.432386 0
v -0.042294 -0.364189 -0.084188
v -0.075254 -0.404882 -0.082964
v -0.009562 -0.327573 0.077722
v -0.065543 -0.452048 0.018136
v -0.065341 -0.451962 0.009068
v -0.03965 0.325708 0.071074
v -0.05063 0.294089 0.074407
v -0.020844 0.31483 0.067494
v 0.076358 -0.452552 0.01767
v 0.123748 -0.317137 0
v -0.072628 -0.467067 0.060154
v -0.035708 -0.467075 0.061543
v 0.088562 0.036028 0.078489
v 0.07351 0.038835 0.079888
v 0.115629 -0.224656 -0.074029
v 0.07351 0.038835 -0.079889
v -0.037038 -0.469091 -0.084393
v 8.6e-05 -0.469091 -0.085804
v 0.031783 0.449665 0.005181
v -0.13881 -0.468093 0
v -0.127362 -0.467092 0
v -0.095004 0.357624 0
v -0.123585 -0.466885 0.03315
v -0.145716 -0.469079 0.039477
v 0.002798 -0.449759 0.01723
v 0.103615 0.033222 0.07709
v 0.022499 0.132224 -0.079215
v -0.0108285 -0.204755 0.077652
v -0.135451 0.270938 0
v -0.070854 -0.452542 0.048968
v -0.075506 -0.154232 0.068935
v -0.012762 -0.0815583 -0.0775417
v -0.009905 -0.116193 -0.077729
v -0.040045 0.325892 -0.064972
v 0.150259 0.076705 0
v 0.150259 0.08386 0
v 0.088613 -0.468076 -0.070279
v 0.090872 -0.469089 -0.080782
v -0.0752093 -0.109391 -0.0690368
v -0.0746157 -0.0197082 0.0692395
v 0.090488 -0.440437 0.0808815
v 0.012689 0.276121 0.027527
v 0.079207 -0.452758 0.032422
v 0.110081 -0.466585 0.046495
v -0.074708 -0.436987 -0.0829725
v -0.149189 0.157885 0
v -0.074162 -0.469091 -0.082981
v -0.127362 -0.467092 0
v -0.147603 0.158363 -0.022832
v -0.0112903 -0.249036 -0.0776142
v 0.14705 -0.469084 -0.033942
v 0.141902 -0.469081 -0.050076
v 0.007242 0.463954 -0.025131
v -0.142189 0.15854 0.045034
v -0.147603 0.158363 0.022832
v -0.148186 0.131679 0.0226965
v 0.03257 0.44921 0
v 0.002268 0.219012 -0.079043
v -0.128164 0.295522 0
v 0.082057 -0.452964 0.047173
v 0.094411 0.117498 0.079297
v -0.118778 0.054576 -0.027934
v -0.118778 0.054576 -0.027934
v -0.133594 0.070639 -0.028035
v -0.111704 0.065899 -0.046336
v -0.02314 0.133534 -0.076792
v 0.112598 -0.469084 0.075258
v 0.047292 0.440826 0.030447
v 0.050518 0.401173 0.016877
v 0.125413 -0.324284 0
v 0.123748 -0.317137 0
v 0.059155 0.434001 0.013722
v -0.14582 -0.382282 0.039575
v -0.118613 -0.19354 -0.0282833
v -0.121638 -0.192538 0
v 0.010321 0.296833 -0.041601
v -0.148411 0.086701 -0.028137
v -0.11609 -0.454179 0
v 0.01728 0.292826 0.027253
v 0.094411 0.117498 0.079297
v -0.145768 -0.425681 -0.039527
v -0.139079 -0.381053 -0.055329
v -0.127382 -0.379048 -0.067773
v -0.12308 -0.469076 -0.070406
v -0.098769 0.359776 0.021102
v 0.1441 0.111775 -0.041858
v 0.144207 0.092931 -0.044802
v -0.037038 -0.469091 0.084392
v -0.074162 -0.469091 0.082981
v -0.070854 -0.452542 0.048968
v -0.071741 -0.459805 0.054561
v 0.007242 0.463954 0.02513
v -0.005464 -0.3577 -0.085818
v 0.081941 -0.127433 0.079503
v 0.014754 0.263538 0.028878
v 0.018449 0.268052 0
v -0.150259 -0.469094 0
v -0.150259 -0.469094 0
v 0.001213 -0.467083 0.062932
v -0.079124 -0.370678 0.082558
v 0.059067 0.181163 0.07815
v 0.031406 0.143759 0.083659
v 0.002268 0.219012 0.079042
v 0.094411 0.117498 0.079297
v -0.107152 0.136023 0.076687
v 0.03961 -0.450772 0
v -0.093672 0.0902 -0.062096
v -0.14582 -0.382282 -0.039576
v 0.028735 0.451551 -0.036258
v 0.028735 0.451551 0.036257
v 0.013266 0.425233 0.044044
v 0.031783 0.449665 -0.005182
v -0.136562 0.251379 0.022795
v -0.019731 0.040733 -0.077084
v 0.092349 0.108314 0.078719
v 0.076414 -0.452362 0
v 0.150259 0.08386 0
v -0.145716 -0.469079 0.039477
v 0.096581 -0.338343 -0.078839
v 0.113266 -0.334011 -0.07526
v 0.090872 -0.469089 0.080781
v 0.045479 -0.46909 0.083292
v 0.063782 -0.467225 0.06293
v 0.002806 -0.449182 0
v 0.086353 -0.467062 0.059775
v 0.088613 -0.468076 0.070278
v 0.107608 0.031796 0.065901
v -0.025917 0.317736 -0.05676
v 0.001213 -0.467083 -0.062932
v 0.12785 0.09416 0.067581
v 0.126879 -0.101732 0.034156
v 0.019073 0.457126 0.034055
v -0.133887 0.154461 0.06056
v 0.017317 0.233727 -0.059804
v -0.098769 0.359776 -0.021103
v 0.113266 -0.334011 0.07526
v -0.150259 0.083763 0
v 0.084205 -0.460013 0.053474
v -0.003292 0.304695 0.057333
v 0.122858 -0.466727 0.027432
v 0.149137 0.127439 0
v 0.120309 -0.315803 -0.034795
v -0.068909 0.159855 -0.082269
v -0.03965 0.325708 -0.071074
v -0.119119 0.146847 0.071447
v 0.150259 -0.411854 0
v 0.147103 -0.412196 -0.034393
v 0.002268 0.219012 -0.079043
v 0.121889 -0.33052 -0.050426
v 0.125847 -0.331978 -0.035655
v -0.118615 -0.001781 0.028437
v -0.076838 0.34715 -0.042983
v 0.090872 -0.469089 -0.080782
v -0.00013 -0.433311 -0.085832
v 0.144207 0.092931 0.044801
v -0.093672 0.090201 0.062096
v -0.020844 0.31483 -0.067494
v -0.03965 0.325708 -0.071074
v -0.040392 0.326101 -0.059177
v 0.002806 -0.449182 0
v 0.150259 0.06955 0
v -0.018873 0.098988 -0.077152
v -0.060607 0.119978 -0.072344
v -0.118615 -0.0497207 -0.0283986
v -0.125989 0.115908 0.068892
v -0.023671 0.160541 -0.083758
v 0.076414 -0.452362 0
v -0.074162 -0.469091 -0.082981
v -0.073395 -0.468079 -0.071567
v -0.072628 -0.467067 -0.060154
v 0.03257 0.44921 0
v -0.147603 0.158363 0.022832
v -0.148396 0.158124 0.011416
v 0.121562 0.154019 0.029058
v 0.082057 -0.452964 -0.047173
v -0.065543 -0.452048 -0.018137
v -0.065341 -0.451962 -0.009069
v -0.148768 0.104995 -0.022561
v -0.148411 0.086701 -0.028137
v -0.127362 -0.467092 0
v -0.121726 -0.460635 0
v -0.11609 -0.454179 0
v -0.090614 -0.453027 0
v -0.11609 -0.454179 0
v -0.121638 -0.337709 0
v -0.120125 -0.337534 0.014084
v -0.118612 -0.337359 0.028168
v -0.121638 -0.337709 0
v 0.144227 0.086869 -0.045601
v 0.109648 0.04899 0.075459
v 0.103615 0.033222 0.07709
v 0.143993 0.13062 -0.038914
v -0.000346 -0.39753 0.08586
v 0.120309 -0.315803 0.034794
v -0.070854 -0.452542 0.048968
v 0.033829 0.24503 0.014072
v 0.036077 0.246156 0
v -0.065543 -0.452048 0.018136
v -0.099081 -0.453864 0.043822
v 0.086353 -0.467062 -0.059776
v 0.139683 0.09497 0.054914
v 0.144207 0.092931 0.044801
v 0.0038675 0.15215 0.083708
v 0.129849 0.138854 0.060948
v -0.001871 0.469095 0
v 0.001766 0.467105 -0.016128
v 0.143546 0.06615 0.046643
v 0.150259 -0.440475 0
v 0.150259 -0.469095 0
v 0.148654 -0.46909 -0.016971
v 0.002798 -0.449759 -0.017231
v -0.075606 0.346437 -0.057579
v 8.6e-05 -0.469091 0.085803
v -0.065543 -0.452048 0.018136
v -0.0763955 -0.288756 -0.0686297
v 0.144217 0.0899 0.045201
v 0.144227 0.086869 0.0456
v -0.001871 0.469095 0
v -0.02314 0.133534 -0.076792
v -0.03965 0.325708 -0.071074
v -0.14582 -0.382282 -0.039576
v -0.065139 -0.451876 0
v -0.065139 -0.451876 0
v 0.0324975 -0.467154 0.062931
v 0.00065 -0.468087 0.074368
v 0.001213 -0.467083 0.062932
v 0.121562 0.154019 0.029058
v 0.111646 -0.06206 0.0750467
v 0.122652 -0.0564443 0.034689
v 0.028735 0.451551 0.036257
v 0.028735 0.451551 0.036257
v 0.002806 -0.449182 0
v -0.02314 0.133534 -0.076792
v -0.023671 0.160541 0.083757
v -0.148411 0.086701 0.028136
v -0.148768 0.104995 0.022561
v 0.132068 -0.469061 0.064062
v 0.121562 0.154019 0.029058
v 0.086353 -0.467062 -0.059776
v -0.009562 -0.327573 -0.077723
v 0.132084 -0.352007 -0.064219
v 0.078488 -0.254299 -0.0796985
v 0.086169 -0.370845 0.081648
v 0.079896 -0.342676 0.082418
v 0.079896 -0.342676 -0.082418
v -0.118613 -0.19354 0.0282833
v 0.114197 0.034131 -0.035755
v 8.6e-05 -0.469091 0.085803
v 0.144217 0.0899 -0.045202
v -0.118612 -0.337359 -0.028168
v -0.145716 -0.469079 -0.039477
v -0.000346 -0.39753 -0.08586
v -0.005464 -0.3577 -0.085818
v 0.150213 0.092656 0
v 0.079896 -0.342676 0.082418
v 0.037216 -0.350188 0.084118
v 0.086353 -0.467062 0.059775
v -0.019731 0.040733 -0.077084
v 0.144207 0.092931 -0.044802
v 0.077653 -0.331266 -0.081122
v 0.07541 -0.319857 -0.079825
v 0.079896 -0.342676 -0.082418
v 0.079896 -0.342676 -0.082418
v 0.120211 -0.34364 0.072373
v 0.113266 -0.334011 0.07526
v -0.023671 0.160541 0.083757
v 0.060433 0.433193 -0.006861
v -0.093672 0.0902 -0.062096
v -0.083463 0.077136 -0.066495
v 0.113266 -0.334011 0.07526
v 0.107507 0.151849 0.072164
v -0.07518 0.060654 -0.069108
v 0.128541 0.100015 -0.066487
v 0.108919 -0.31653 0.075991
v -0.019302 0.0698605 -0.077118
v -0.148396 0.158124 -0.011416
v -0.147603 0.158363 -0.022832
v -0.073395 -0.468079 0.071567
v 0.14713 -0.383752 -0.0346185
v 0.141551 -0.355101 -0.051612
v 0.120211 -0.34364 -0.072373
v -0.040392 0.326101 -0.059177
v 0.147156 -0.355309 -0.034844
v -0.076692 -0.333597 0.068528
v -0.136246 -0.46907 -0.059268
v -0.14582 -0.382282 0.039575
v -0.072628 -0.467067 0.060154
v 0.113266 -0.334011 -0.07526
v 0.13939 0.089127 0.055688
v 0.144227 0.086869 0.0456
v -0.074319 0.025133 0.069341
v 0.090872 -0.469089 0.080781
v 0.150259 -0.354612 0
v 0.125847 -0.331978 0.035655
v 0.086353 -0.467062 0.059775
v 0.122858 -0.466727 0.027432
v 0.028735 0.451551 -0.036258
v -0.093672 0.090201 0.062096
v 0.059155 0.434001 -0.013722
v 0.147077 -0.44064 -0.0341675
v 0.14705 -0.469084 -0.033942
v 0.122858 -0.466727 0.027432
v 0.031581 0.243905 -0.028144
v -0.079124 -0.370678 -0.082558
v 0.031581 0.243905 0.028144
v 0.031581 0.243905 -0.028144
v -0.005464 -0.3577 0.085818
v 0.127077 -0.331431 0
v 0.143993 0.13062 -0.038914
v 0.149137 0.127439 0
v -0.072628 -0.467067 -0.060154
v 0.031581 0.243905 0.028144
v -0.149189 0.157885 0
v -0.074162 -0.469091 -0.082981
v 0.143546 0.06615 0.046643
v 0.127077 -0.331431 0
v 0.090872 -0.469089 0.080781
v 0.082057 -0.452964 -0.047173
v 0.108919 -0.31653 0.075991
v -0.107152 0.136023 0.076687
v 0.114197 0.034131 0.035755
v 0.123748 -0.317137 0
v 0.082057 -0.452964 0.047173
v 0.076358 -0.452552 0.01767
v -0.065543 -0.452048 -0.018137
v 0.022327 0.289882 0
v 0.001213 -0.467083 0.062932
v 0.150259 0.08386 0
v 0.086353 -0.467062 -0.059776
v 0.084205 -0.460013 -0.053474
v 0.113266 -0.334011 -0.07526
v 0.107507 0.151849 0.072164
v 0.144207 0.092931 0.044801
v -0.019731 0.040733 0.077083
v -0.074319 0.025133 0.069341
v -0.076692 -0.333597 0.068528
v -0.019731 0.040733 -0.077084
v -0.076692 -0.333597 0.068528
v 0.127077 -0.331431 0
f 3 4 5
f 6 7 8
f 9 10 11
f 14 15 16
f 17 18 19
f 22 23 24
f 25 26 27
f 28 431 365
f 30 31 807
f 34 35 36
f 37 468 38
f 39 40 41
f 42 43 44
f 45 46 47
f 50 51 52
f 53 54 55
f 58 59 60
f 61 62 63
f 65 66 67
f 804 738 654
f 74 75 76
f 152 713 769
f 53 86 54
f 87 88 89
f 480 91 309
f 92 57 93
f 95 96 97
f 98 99 827
f 347 306 692
f 103 104 105
f 2 106 828
f 107 108 8
f 109 110 829
f 111 112 113
f 181 159 182
f 120 94 121
f 738 804 481
f 125 558 127
f 131 132 133
f 791 503 228
f 214 265 251
f 138 45 47
f 139 140 141
f 142 143 664
f 830 144 145
f 179 746 547
f 547 746 417
f 121 715 472
f 766 188 229
f 204 429 831
f 154 332 155
f 156 242 157
f 50 158 159
f 161 162 163
f 164 99 165
f 731 730 276
f 827 99 167
f 832 833 68
f 715 655 472
f 177 178 73
f 43 179 180
f 181 834 51
f 101 183 184
f 835 188 189
f 23 5 24
f 194 195 196
f 141 95 139
f 200 201 202
f 836 429 204
f 205 79 206
f 254 205 206
f 209 210 11
f 211 212 213
f 215 216 217
f 544 792 583
f 481 804 482
f 223 224 122
f 225 226 227
f 837 838 230
f 790 697 839
f 207 840 233
f 239 240 241
f 244 245 246
f 247 248 200
f 72 115 249
f 13 12 250
f 251 48 49
f 174 252 173
f 253 242 156
f 243 185 255
f 82 256 50
f 80 841 842
f 257 843 258
f 259 260 844
f 233 840 261
f 262 263 264
f 251 265 48
f 845 609 451
f 270 271 798
f 846 205 847
f 697 451 609
f 71 115 72
f 276 618 160
f 790 451 697
f 280 281 282
f 233 272 207
f 521 848 718
f 529 700 316
f 287 677 849
f 289 290 632
f 291 805 293
f 316 692 529
f 297 234 259
f 298 10 9
f 181 51 159
f 296 850 237
f 851 307 58
f 4 24 5
f 77 78 199
f 764 368 370
f 317 852 853
f 320 321 162
f 803 826 670
f 854 430 820
f 855 856 327
f 328 15 129
f 857 329 330
f 288 331 858
f 144 830 859
f 333 334 860
f 335 336 337
f 745 338 339
f 282 340 280
f 143 341 664
f 163 162 321
f 342 343 344
f 305 348 861
f 350 862 351
f 863 200 202
f 80 251 864
f 96 95 141
f 85 275 598
f 360 279 361
f 257 865 843
f 362 866 363
f 313 194 196
f 867 312 849
f 366 595 367
f 142 266 143
f 368 369 370
f 868 869 870
f 373 11 186
f 374 375 376
f 72 249 377
f 4 378 24
f 379 380 381
f 382 217 383
f 385 386 387
f 871 388 352
f 872 389 390
f 395 394 861
f 410 275 85
f 873 874 259
f 397 398 399
f 365 787 875
f 403 404 516
f 405 406 407
f 390 408 872
f 315 613 127
f 124 37 876
f 29 435 646
f 15 328 16
f 411 412 413
f 415 416 372
f 745 339 353
f 159 51 50
f 357 877 878
f 424 425 426
f 540 742 422
f 299 660 795
f 432 235 879
f 880 881 59
f 107 8 882
f 433 332 154
f 434 273 883
f 884 156 157
f 513 435 436
f 437 438 439
f 885 155 332
f 443 886 887
f 392 444 888
f 889 855 327
f 445 847 205
f 89 88 890
f 29 128 447
f 39 449 450
f 98 165 99
f 891 892 893
f 452 453 374
f 869 894 895
f 143 266 341
f 457 458 459
f 157 242 896
f 461 386 385
f 452 374 376
f 274 462 463
f 465 466 467
f 211 213 468
f 645 714 393
f 473 474 475
f 328 476 16
f 477 478 479
f 897 840 207
f 480 898 899
f 900 483 901
f 36 902 34
f 114 486 38
f 645 448 714
f 903 828 490
f 37 38 904
f 358 491 32
f 905 492 906
f 76 901 74
f 907 908 294
f 909 336 335
f 267 372 910
f 911 837 230
f 494 424 426
f 495 497 191
f 912 913 914
f 758 668 358
f 307 880 59
f 500 501 502
f 493 419 915
f 916 917 918
f 505 30 807
f 506 124 229
f 11 507 464
f 359 311 843
f 919 920 858
f 504 467 466
f 443 887 508
f 781 149 441
f 921 512 922
f 515 21 923
f 517 78 77
f 911 468 924
f 925 926 927
f 520 927 926
f 928 522 929
f 518 930 523
f 42 179 43
f 33 931 932
f 933 934 935
f 525 434 526
f 527 528 17
f 936 130 419
f 291 325 805
f 937 532 533
f 13 534 535
f 373 186 274
f 847 536 749
f 722 325 291
f 128 147 496
f 938 939 541
f 542 253 156
f 583 560 940
f 384 544 941
f 887 886 942
f 918 917 943
f 34 545 35
f 409 548 549
f 944 551 552
f 812 345 70
f 598 275 392
f 945 946 947
f 366 367 558
f 559 948 371
f 745 562 218
f 186 462 274
f 88 949 890
f 129 15 950
f 123 322 723
f 951 952 381
f 565 953 566
f 567 487 569
f 300 935 954
f 82 9 256
f 571 572 573
f 107 882 574
f 74 901 483
f 566 414 577
f 578 579 350
f 472 120 121
f 580 955 383
f 932 933 193
f 301 956 957
f 933 300 193
f 935 300 933
f 468 124 506
f 958 676 605
f 429 427 546
f 585 586 959
f 960 588 961
f 962 90 736
f 90 737 736
f 963 964 965
f 584 592 583
f 157 896 966
f 220 967 968
f 969 970 971
f 516 404 661
f 402 85 598
f 523 930 972
f 973 553 600
f 653 597 808
f 11 256 9
f 602 974 975
f 396 757 761
f 607 581 608
f 976 889 977
f 396 596 757
f 545 176 175
f 125 613 614
f 616 617 349
f 42 44 647
f 936 419 493
f 446 978 543
f 446 751 978
f 468 37 124
f 215 979 302
f 975 624 602
f 980 981 692
f 982 478 541
f 604 404 403
f 983 53 55
f 625 626 366
f 758 358 627
f 32 984 627
f 628 32 627
f 32 628 358
f 358 628 627
f 57 56 93
f 985 259 874
f 986 197 770
f 84 581 607
f 987 426 425
f 266 142 988
f 587 633 989
f 634 289 990
f 980 692 306
f 635 636 637
f 521 991 992
f 993 867 994
f 833 694 68
f 995 833 594
f 995 694 833
f 638 996 997
f 639 640 641
f 883 526 434
f 199 460 77
f 998 443 642
f 862 999 351
f 116 249 115
f 292 702 1000
f 1001 1002 1003
f 395 348 1004
f 648 1005 649
f 34 176 545
f 17 528 18
f 260 415 844
f 429 546 1006
f 1007 651 652
f 1008 1009 1010
f 653 1011 654
f 84 656 657
f 1012 1002 1001
f 658 915 419
f 581 84 440
f 84 607 690
f 81 1013 52
f 52 1014 81
f 195 1015 196
f 663 399 456
f 259 844 873
f 536 775 732
f 327 977 889
f 806 666 667
f 33 932 193
f 931 1016 932
f 930 1017 1018
f 1017 518 1019
f 518 1017 930
f 669 814 605
f 1020 1021 1022
f 391 455 1023
f 454 711 1023
f 671 672 1024
f 740 739 785
f 556 380 1025
f 1020 1026 1027
f 889 1028 855
f 1029 386 747
f 454 1023 455
f 1030 762 1031
f 369 681 370
f 543 296 446
f 638 1032 996
f 492 1033 650
f 886 443 998
f 836 204 1034
f 977 327 686
f 446 296 237
f 247 200 863
f 1035 689 26
f 1036 1037 1038
f 691 585 959
f 277 734 1039
f 1040 734 277
f 917 1041 943
f 981 529 692
f 1042 501 285
f 696 1043 1044
f 1045 1046 698
f 1047 880 307
f 151 153 701
f 1048 1049 269
f 208 336 909
f 9 1050 298
f 944 552 703
f 609 1051 697
f 660 168 148
f 583 792 1052
f 1053 708 709
f 1054 226 225
f 710 1055 64
f 177 1056 178
f 393 714 809
f 1057 375 374
f 47 1058 1059
f 1060 420 717
f 632 990 289
f 719 1061 1062
f 1063 1036 1038
f 721 571 573
f 678 50 463
f 463 462 678
f 213 114 38
f 522 928 1064
f 1065 1066 1067
f 724 448 1068
f 364 1069 596
f 913 726 914
f 964 963 1070
f 583 1052 560
f 1071 493 915
f 1072 631 243
f 243 255 1073
f 693 276 730
f 874 873 1074
f 710 64 1075
f 1076 1077 1078
f 662 511 1058
f 1079 1044 1043
f 1080 68 694
f 735 1081 1082
f 1083 1084 919
f 1014 499 81
f 190 702 292
f 50 52 1013
f 221 1085 675
f 741 990 632
f 531 431 153
f 1086 220 815
f 1087 484 1088
f 418 612 1089
f 1090 429 1006
f 831 429 1090
f 1091 992 991
f 282 281 1092
f 536 734 749
f 9 82 1050
f 427 429 836
f 1093 470 1094
f 1095 83 781
f 672 554 1024
f 366 818 595
f 173 252 756
f 475 474 1096
f 1097 173 756
f 252 474 756
f 473 756 474
f 473 475 1098
f 1099 1100 1101
f 759 1102 1103
f 389 760 390
f 1063 1104 1036
f 250 326 762
f 661 404 743
f 813 1105 1106
f 813 1107 1105
f 522 1108 929
f 69 170 172
f 1109 768 310
f 241 1110 239
f 1111 313 196
f 391 570 1112
f 1113 1114 244
f 544 583 941
f 69 489 170
f 653 654 597
f 1115 641 640
f 122 751 238
f 514 558 125
f 69 172 356
f 1116 774 1117
f 469 1118 1119
f 1120 1121 1122
f 69 356 489
f 663 1123 399
f 1076 1078 775
f 11 536 507
f 507 536 732
f 507 1078 1077
f 445 1076 775
f 847 445 775
f 137 1124 530
f 483 778 74
f 909 335 1125
f 1126 171 123
f 997 996 908
f 505 460 199
f 1127 803 487
f 311 258 843
f 786 1128 1129
f 682 1130 485
f 236 1131 1132
f 233 1133 272
f 894 869 868
f 803 1127 986
f 268 723 322
f 1134 1135 438
f 1136 134 1137
f 783 409 549
f 319 498 343
f 158 50 678
f 559 684 794
f 1138 84 657
f 1139 1140 1141
f 941 583 1142
f 328 129 1143
f 799 444 599
f 800 591 1144
f 92 1145 198
f 1141 1140 824
f 772 817 132
f 728 519 1146
f 728 1146 73
f 728 73 178
f 728 178 970
f 816 575 576
f 801 1147 802
f 318 1148 1149
f 351 999 1150
f 92 198 57
f 605 676 669
f 379 381 952
f 739 740 1151
f 460 505 807
f 731 276 160
f 1152 7 1
f 1153 1154 1155
f 453 452 810
f 788 1156 1157
f 538 220 620
f 521 992 848
f 991 521 1158
f 901 76 1159
f 600 1160 1161
f 1162 503 791
f 675 1163 611
f 383 217 580
f 726 1164 914
f 1165 393 809
f 1060 717 1166
f 345 673 70
f 554 672 735
f 589 1167 716
f 198 1168 57
f 1169 256 373
f 552 551 823
f 1170 1171 349
f 503 1172 228
f 1173 322 1174
f 763 604 1175
f 1176 604 403
f 763 404 604
f 1177 431 28
f 256 1169 463
f 1178 683 1179
f 854 699 430
f 64 588 1075
f 1180 1181 1026
f 29 646 1182
f 1183 571 1184
f 554 735 1082
f 1185 1186 619
f 1187 39 41
f 680 1188 117
f 600 789 1189
f 691 959 1190
f 1191 699 854
f 643 388 630
f 821 648 649
f 649 1005 1192
f 144 1187 41
f 190 693 702
f 144 859 1187
f 427 1193 546
f 1194 191 733
f 98 827 1195
f 1196 760 389
f 191 1197 733
f 215 217 382
f 215 302 216
f 215 382 979
f 1198 685 1199
f 811 692 316
f 1200 1201 748
f 83 1095 1202
f 781 83 606
f 1203 1204 1205
f 618 276 1206
f 813 615 169
f 226 1207 227
f 1208 1164 744
f 283 1208 744
f 1141 824 1209
f 519 728 969
f 1083 919 858
f 499 822 1210
f 377 249 1211
f 1212 280 340
f 355 1213 1214
f 1215 944 1216
f 583 1217 1218
f 1219 1220 1221
f 654 1222 597
f 453 810 938
f 653 808 1011
f 728 970 969
f 1223 147 1182
f 366 1224 818
f 710 1075 1225
f 1226 805 1227
f 1228 857 1229
f 120 472 1230
f 501 1042 502
f 803 770 784
f 682 640 639
f 795 797 1231
f 418 1089 1232
f 317 796 852
f 1007 793 651
f 684 1233 1234
f 1235 1236 1237
f 434 525 1238
f 892 891 318
f 739 458 785
f 1077 464 507
f 480 309 1239
f 944 1215 551
f 236 31 30
f 1240 31 236
f 98 1195 165
f 1240 236 1132
f 244 246 1113
f 1113 246 1241
f 1229 857 780
f 857 1242 780
f 322 171 1174
f 364 396 228
f 396 791 228
f 596 396 364
f 1144 813 1243
f 132 131 772
f 1184 571 721
f 771 892 318
f 1184 721 1244
f 1245 1246 1247
f 1248 772 131
f 1249 1245 1247
f 550 396 761
f 293 805 1226
f 928 1250 1064
f 1251 148 168
f 1252 663 456
f 767 1253 1254
f 766 1255 1256
f 272 1257 207
f 1258 1259 1260
f 1261 723 1262
f 1058 47 46
f 1263 1157 1156
f 765 1264 1265
f 660 768 354
f 1266 184 183
f 101 100 183
f 694 422 1080
f 592 1267 1142
f 640 682 485
f 1262 723 1268
f 1269 368 764
f 1270 716 1271
f 928 929 1272
f 1273 502 1042
f 465 1274 466
f 1275 974 1276
f 465 467 1277
f 465 754 1274
f 1278 578 351
f 1279 1121 1120
f 1122 1121 1280
f 819 753 1281
f 240 1282 175
f 1283 1094 469
f 1284 21 1285
f 752 1286 269
f 447 435 29
f 1287 1040 308
f 1288 666 776
f 1112 570 1289
f 1290 716 1167
f 1291 1290 1167
f 1292 1293 750
f 863 1294 247
f 1295 350 579
f 1278 579 578
f 1020 1022 1026
f 1075 588 1296
f 277 279 360
f 409 1297 548
f 1298 1299 736
f 275 410 599
f 362 720 1300
f 362 363 720
f 581 1301 608
f 1212 340 1200
f 469 1119 1302
f 509 324 512
f 509 314 324
f 1303 922 324
f 1304 304 1305
f 1306 183 100
f 391 1023 1307
f 1308 1309 753
f 819 1308 753
f 149 1310 610
f 220 968 1311
f 1312 292 1000
f 431 787 365
f 264 263 1313
f 578 350 351
f 442 333 1314
f 1315 1003 1002
f 1316 431 1177
f 559 1233 684
f 924 837 911
f 1317 733 1318
f 813 591 1319
f 825 879 235
f 23 1320 5
f 538 1321 1322
f 825 235 1323
f 719 1062 1324
f 1324 1325 719
f 742 705 422
f 978 751 49
f 1326 389 872
f 1327 383 955
f 1328 136 1329
f 209 464 1330
f 519 1331 1146
f 725 325 722
f 805 1136 1227
f 805 325 231
f 1332 1333 1246
f 712 411 413
f 211 1334 1335
f 685 1198 707
f 147 779 496
f 331 1083 858
f 1083 331 1336
f 829 1337 1207
f 175 1282 545
f 1338 696 1044
f 694 1339 422
f 1340 1129 1128
f 1341 1138 657
f 943 601 918
f 51 468 911
f 399 203 456
f 381 380 1342
f 925 1343 1344
f 1344 926 925
f 1323 235 1345
f 1346 926 1344
f 1232 1089 1347
f 706 721 573
f 256 463 50
f 416 910 372
f 1348 848 992
f 729 704 1349
f 400 135 346
f 1350 1261 1262
f 127 613 125
f 1351 1352 907
f 947 946 1353
f 1354 1353 946
f 1204 135 400
f 1203 135 1204
f 1271 716 1290
f 1058 46 662
f 309 91 1355
f 788 1356 1357
f 1119 1118 1358
f 827 167 1359
f 135 1329 346
f 1004 665 1360
f 1361 1362 629
f 1093 1118 470
f 559 371 1233
f 742 540 1363
f 369 368 687
f 1177 1364 1316
f 387 386 1029
f 701 431 1316
f 1365 1359 187
f 1366 287 312
f 312 287 849
f 867 993 312
f 634 990 1367
f 817 1368 132
f 551 1215 679
f 616 1171 1369
f 1246 1370 1247
f 772 1371 817
f 1268 723 1372
f 797 795 1373
f 583 940 1217
f 422 705 1080
f 727 1374 947
f 1256 189 766
f 1375 79 205
f 1060 1376 420
f 1377 442 1378
f 1379 1380 271
f 964 674 965
f 774 1381 1382
f 967 220 538
f 1383 1384 1385
f 1386 457 1387
f 1388 1389 1390
f 1391 1392 949
f 1365 187 1154
f 584 583 1218
f 554 1393 1394
f 1395 509 1396
f 347 692 811
f 1397 1398 659
f 1058 1399 1059
f 710 1225 1055
f 1400 1401 1402
f 1160 553 799
f 1055 1403 1404
f 1225 1403 1055
f 644 1405 1406
f 1407 355 1384
f 1408 955 580
f 1409 910 416
f 1410 1411 1412
f 278 755 409
f 155 1413 1088
f 1381 774 1116
f 49 117 1188
f 20 357 1414
f 278 428 755
f 410 85 1415
f 805 231 134
f 621 1416 1417
f 811 316 1418
f 388 871 630
f 303 1419 1420
f 909 1421 208
f 705 742 921
f 742 512 921
f 962 1422 90
f 83 1202 606
f 488 1423 285
f 1424 782 769
f 964 603 674
f 1425 1426 819
f 669 1427 1305
f 190 1206 276
f 1427 669 676
f 1334 51 834
f 712 106 411
f 1003 1266 1001
f 1428 1429 420
f 1376 1428 420
f 1376 1430 1428
f 1431 1432 1433
f 357 878 1434
f 1266 1003 184
f 391 1307 570
f 1433 636 635
f 888 553 973
f 1304 171 704
f 1435 1436 1234
f 1437 1438 1258
f 1210 822 1439
f 1439 822 1440
f 1441 230 838
f 822 1014 1440
f 1442 622 1443
f 348 665 1004
f 861 394 1444
f 734 536 11
f 1039 734 11
f 1445 65 1446
f 796 593 852
f 1447 1448 1449
f 1156 788 1357
f 1156 1357 1450
f 304 704 729
f 305 665 348
f 704 304 1304
f 590 1451 1259
f 604 623 1175
f 582 1452 1453
f 1454 1232 1347
f 1232 1454 1455
f 724 1068 1456
f 357 1434 1457
f 1072 243 1073
f 1458 622 1459
f 898 480 1460
f 953 568 564
f 1461 1462 425
f 205 846 1463
f 1464 1112 1289
f 1289 570 1465
f 1466 96 141
f 563 357 471
f 1288 561 666
f 684 1234 1436
f 1467 798 271
f 1468 860 334
f 436 665 1469
f 1374 727 1470
f 1353 727 947
f 1471 556 555
f 119 435 1472
f 623 1176 1473
f 1474 623 1473
f 436 435 119
f 219 1475 150
f 1375 205 1463
f 1469 665 305
f 279 277 1039
f 1476 664 1477
f 1211 1478 1479
f 1175 623 1480
f 1481 789 1161
f 149 773 1482
f 621 1417 1483
f 1180 1026 1022
f 411 106 1484
f 1403 1151 1404
f 343 1485 344
f 622 1486 1443
f 277 308 1040
f 221 1135 1085
f 1487 1238 525
f 1486 1458 1488
f 524 1489 55
f 142 664 1476
f 677 287 1490
f 1126 123 1491
f 440 84 1138
f 1492 1493 626
f 1494 850 296
f 1493 366 626
f 776 497 495
f 569 487 803
f 251 842 214
f 1468 1102 860
f 1495 1496 1497
f 1252 1123 663
f 63 748 1201
f 154 155 484
f 484 155 1088
f 1058 1498 1399
f 1499 302 979
f 295 680 117
f 746 1395 417
f 260 234 415
f 39 450 40
f 487 104 1127
f 1500 1185 619
f 188 766 189
f 600 553 1160
f 888 444 553
f 553 444 799
f 766 229 1255
f 1484 1501 412
f 40 450 1502
f 1318 1503 557
f 1504 1505 1506
f 411 1484 412
f 1102 1468 1507
f 487 567 1508
f 1509 298 1510
f 891 510 1148
f 1511 691 1512
f 1509 1510 1513
f 1514 962 1299
f 1390 1054 1388
f 1155 1515 1516
f 1517 813 1319
f 38 468 213
f 683 1505 1518
f 1506 1505 683
f 1519 524 54
f 1483 1417 1520
f 326 250 12
f 1389 488 1390
f 1254 1521 767
f 539 1522 1523
f 539 1523 1524
f 6 1 7
f 1152 882 7
f 270 1379 271
f 1525 539 816
f 745 218 1526
f 1527 1410 1528
f 13 535 12
f 582 1529 1530
f 471 357 20
f 676 923 21
f 357 1457 1414
f 745 1526 338
f 1214 1385 1384
f 754 1531 1532
f 277 360 1533
f 470 1118 469
f 1442 1534 688
f 80 842 251
f 1535 509 192
f 962 736 1299
f 512 192 509
f 1536 1537 1483
f 1377 334 442
f 564 414 953
f 1538 414 564
f 414 566 953
f 424 1461 425
f 1539 1461 424
f 1453 286 1529
f 406 1053 709
f 137 363 1124
f 1540 490 413
f 918 601 1541
f 667 561 700
f 278 409 134
f 633 695 1542
f 1543 1254 1542
f 1024 554 1544
f 774 1545 1117
f 1546 782 1424
f 758 627 1292
f 937 1547 532
f 610 441 149
f 1178 1548 1506
f 1523 1522 1549
f 189 1256 1550
f 1500 311 1185
f 524 55 54
f 1509 1551 1552
f 622 1458 1486
f 982 479 478
f 1553 894 868
f 1253 1542 1254
f 1374 1470 1554
f 20 1414 1555
f 712 490 118
f 70 1556 1005
f 221 675 611
f 1547 802 1557
f 390 760 1558
f 1349 171 1126
f 387 1029 1559
f 26 689 1560
f 906 492 650
f 1561 1560 689
f 1562 1563 1564
f 179 42 746
f 418 477 612
f 1153 1365 1154
f 960 1296 588
f 694 995 1339
f 1565 532 1547
f 310 768 151
f 151 768 153
f 1564 1566 1567
f 7 882 8
f 749 734 1040
f 122 224 222
f 423 111 113
f 1568 1221 1220
f 1569 37 904
f 119 1472 1360
f 1153 1155 1516
f 606 149 781
f 805 134 1136
f 259 234 260
f 537 148 1251
f 537 1400 1402
f 1570 1293 984
f 1418 561 1288
f 401 400 421
f 656 84 690
f 1381 1571 1382
f 49 751 117
f 1572 1092 281
f 1239 309 1573
f 782 1574 769
f 1269 764 1186
f 256 11 373
f 615 813 1575
f 354 1109 1576
f 354 1576 1373
f 1180 1022 1577
f 1109 354 768
f 1480 777 160
f 731 777 1474
f 160 777 731
f 480 899 91
f 269 1286 1578
f 1501 1579 412
f 554 1580 1449
f 1236 356 1581
f 407 406 709
f 685 1415 85
f 801 937 1147
f 303 1420 562
f 493 1582 936
f 1583 1387 459
f 1543 1542 695
f 795 354 1373
f 354 795 660
f 1584 531 537
f 600 1189 973
f 647 314 42
f 795 1585 299
f 795 1231 1585
f 146 489 356
f 10 298 1552
f 1586 134 409
f 1586 409 783
f 871 1587 630
f 630 1587 1588
f 298 1050 1510
f 446 238 751
f 1318 733 1197
f 1589 537 1251
f 1137 134 1586
f 277 1533 308
f 1590 1591 1405
f 1592 825 1323
f 117 751 1593
f 11 210 186
f 206 79 254
f 435 513 646
f 1584 537 1402
f 1224 366 1493
f 1594 595 818
f 825 789 1481
f 1459 622 1595
f 498 1485 343
f 1596 289 634
f 1211 102 1478
f 262 264 765
f 432 1597 235
f 1470 1426 1554
f 1475 1598 1599
f 223 122 1600
f 1030 1031 1270
f 1099 1601 1045
f 1602 142 1476
f 1603 793 1604
f 665 119 1360
f 497 1605 191
f 497 806 1605
f 59 58 307
f 249 102 1211
f 1148 318 891
f 701 153 431
f 819 1426 1308
f 1606 925 927
f 622 1442 688
f 622 688 1595
f 1607 100 101
f 49 1188 251
f 458 457 785
f 1332 1245 1608
f 1609 1610 1166
f 1166 1610 1611
f 1611 1060 1166
f 813 169 1243
f 472 655 1612
f 1613 1614 752
f 1615 1053 406
f 862 1616 999
f 556 1342 380
f 1617 1618 317
f 1619 1366 1620
f 111 345 812
f 70 673 1556
f 70 1005 812
f 1038 1621 1622
f 1623 1624 67
f 1063 1622 1625
f 1622 1063 1038
f 67 1624 65
f 203 1626 456
f 1627 1628 126
f 119 665 436
f 1629 1627 126
f 651 793 659
f 712 828 106
f 152 1574 1495
f 446 237 238
f 239 1282 240
f 700 561 316
f 124 1255 229
f 284 1630 1352
f 666 806 497
f 666 497 776
f 1568 1220 1631
f 1568 1631 1632
f 967 538 1322
f 1085 1633 675
f 781 1634 1095
f 221 438 1135
f 63 62 1635
f 139 95 1636
f 1161 789 600
f 1474 777 623
f 623 777 1480
f 660 153 768
f 1529 582 1453
f 316 561 1418
f 1629 126 1128
f 682 195 1130
f 1537 1416 1483
f 1637 1638 1537
f 974 1639 975
f 1276 974 1640
f 1478 102 1641
f 190 276 693
f 810 939 938
f 1642 323 1643
f 61 1201 62
f 401 421 1204
f 695 587 1644
f 1045 698 1100
f 695 633 587
f 153 660 148
f 791 396 550
f 1328 135 1645
f 642 1120 1122
f 301 1066 1065
f 642 1122 998
f 676 1284 1427
f 296 1646 1647
f 1618 796 317
f 1604 793 1007
f 1219 1221 1648
f 685 85 402
f 1649 1650 1651
f 758 1292 1652
f 762 326 1031
f 680 295 1653
f 102 249 1641
f 286 1654 1529
f 490 828 118
f 1151 740 1404
f 107 574 108
f 1655 574 882
f 1312 1656 292
f 1657 1070 963
f 442 1314 1378
f 423 113 1658
f 303 325 725
f 353 325 303
f 1659 1355 91
f 264 1264 765
f 1603 1604 1660
f 223 1661 224
f 42 314 746
f 1662 332 433
f 1653 295 222
f 746 314 1395
f 409 755 1297
f 796 1618 1663
f 1446 65 1624
f 1446 1624 1664
f 220 1311 815
f 61 63 1201
f 1506 683 1178
f 222 751 122
f 294 1351 907
f 126 1340 1128
f 1245 1332 1246
f 1580 554 1082
f 1640 602 624
f 541 939 982
f 1552 298 1509
f 1665 1666 1667
f 608 1668 607
f 602 1640 974
f 1669 1670 798
f 798 1670 1379
f 56 1043 696
f 1573 1671 1239
f 430 699 1672
f 1099 1045 1100
f 1673 788 1157
f 1103 1102 1507
f 1674 563 471
f 1675 1226 1227
f 1676 713 1677
f 284 1352 1351
f 487 1508 1678
f 956 1065 1679
f 1208 283 1680
f 93 56 696
f 1681 1000 702
f 457 459 1387
f 1590 1405 644
f 644 1682 1590
f 278 353 339
f 1683 1033 492
f 1684 670 1685
f 1686 1322 1321
f 1687 786 1129
f 1033 1683 1456
f 1296 960 1688
f 786 1687 517
f 1677 713 1497
f 1669 232 1670
f 1670 232 1572
f 1471 1342 556
f 1689 1665 1563
f 284 1690 1630
f 981 980 1691
f 303 725 1419
f 534 528 535
f 660 299 168
f 231 325 353
f 720 137 530
f 1544 554 1394
f 539 1692 1522
f 538 1693 1694
f 1695 1410 1412
f 441 1696 1697
f 401 1204 400
f 344 1485 1698
f 209 11 464
f 516 661 1699
f 152 1495 1497
f 148 531 153
f 676 21 1284
f 402 1199 685
f 284 1351 1700
f 685 707 1415
f 569 803 1684
f 284 1700 1690
f 676 958 923
f 431 531 787
f 1701 321 1702
f 163 321 1701
f 1703 27 1560
f 1704 163 1701
f 1705 246 1706
f 1644 587 1707
f 1708 1441 838
f 1587 1649 1588
f 557 1709 1710
f 826 1711 670
f 748 1212 1200
f 1653 222 224
f 1411 1410 1527
f 128 29 147
f 1560 27 26
f 1645 1712 1328
f 828 712 118
f 908 996 294
f 246 1705 1241
f 1400 537 1589
f 803 670 1684
f 538 1694 1321
f 562 745 303
f 666 561 667
f 803 784 826
f 1710 1713 557
f 268 322 1173
f 221 1714 439
f 1310 149 1482
f 1162 791 550
f 1683 724 1456
f 534 18 528
f 1228 1715 329
f 512 324 922
f 1491 723 1261
f 659 793 1397
f 1397 793 1716
f 1228 329 857
f 1716 793 1603
f 1717 1718 1238
f 114 1598 486
f 1130 195 194
f 1637 1537 1536
f 221 439 438
f 1689 1666 1665
f 355 1214 1384
f 582 1530 1719
f 1720 558 1721
f 1511 585 691
f 1682 1722 1590
f 1723 37 1569
f 1194 733 1317
f 1426 1425 1554
f 296 543 1646
f 1605 1197 191
f 435 447 1472
f 348 395 861
f 1724 1720 1721
f 1725 601 943
f 536 847 775
f 1721 558 514
f 558 1720 625
f 127 558 367
f 539 1525 1726
f 1475 219 1598
f 1726 1692 539
f 1727 385 387
f 147 1009 779
f 801 802 1547
f 147 1010 1009
f 876 1255 124
f 399 398 203
f 203 398 1626
f 1433 635 1431
f 1174 171 1304
f 610 1696 441
f 192 1363 1535
f 487 1678 105
f 487 105 104
f 1072 1165 631
f 495 191 1194
f 190 292 1656
f 149 606 773
f 1030 1270 1271
f 135 1328 1329
f 1532 1728 754
f 187 1359 167
f 801 1547 937
f 583 592 1142
f 1722 1729 1590
f 1642 1730 323
f 1730 1731 323
f 825 1481 1732
f 123 723 1491
f 1372 723 268
f 1438 1259 1258
f 1733 170 489
f 1340 126 1628
f 285 1423 1042
f 470 469 1094
f 822 499 1014
f 1433 1734 636
f 296 1647 1494
f 147 29 1182
f 257 258 865
f 612 477 479
f 1431 635 1735
f 825 1189 789
f 604 1176 623
f 135 1203 1645
f 1579 1736 412
f 353 303 745
f 591 813 1144
f 844 415 372
f 301 1065 956
f 1391 949 88
f 1737 1485 498
f 488 1389 1423
f 743 404 763
f 1337 227 1207
f 720 363 137
f 1665 1564 1563
f 1687 78 517
f 152 769 1574
f 237 850 1738
f 1282 239 1739
f 838 1740 1708
f 804 654 1011
f 1593 751 222
f 1564 1567 1562
f 984 1293 627
f 1067 1324 1062
f 349 1171 616
f 1741 1651 1742
f 877 357 563
f 211 468 1334
f 480 1239 1460
f 790 1743 451
f 192 742 1363
f 220 1086 620
f 627 166 1292
f 1293 166 627
f 166 1293 1292
f 1382 1571 1642
f 1317 557 1713
f 216 302 1744
f 270 798 1379
f 1443 1745 1442
f 803 986 770
f 1305 304 669
f 147 1223 1010
f 1238 1487 1717
f 645 1068 448
f 656 1746 657
f 304 729 814
f 554 1448 1393
f 669 304 814
f 509 1535 1396
f 1252 1516 1515
f 1066 1324 1067
f 813 1106 1747
f 275 599 444
f 275 444 392
f 781 1748 1634
f 171 322 123
f 556 1025 555
f 582 1719 1452
f 1252 1515 1123
f 1693 538 620
f 1395 314 509
f 1749 590 1438
f 219 486 1598
f 1165 809 631
f 1411 1527 1750
f 813 1747 1575
f 1411 1751 1412
f 621 1483 1416
f 32 1752 984
f 1637 1536 1753
f 1614 1754 752
f 752 1754 1286
f 1755 720 530
f 1064 1756 522
f 712 413 490
f 152 1497 713
f 1649 1651 1741
f 825 1592 1189
f 1588 1649 1741
f 1214 1757 1385
f 1388 1054 225
f 134 231 278
f 695 1644 1543
f 1508 567 1758
f 914 1164 1208
f 1619 287 1366
f 1048 269 1578
f 879 825 1732
f 876 37 1723
f 190 1656 1206
f 442 334 333
f 201 1759 202
f 1337 829 110
f 554 1449 1448
f 1760 62 1201
f 1586 1761 1137
f 1572 232 1092
f 1092 232 1669
f 1221 1568 1762
f 813 1517 1107
f 1438 590 1259
f 1763 1337 110
f 1642 1571 1730
f 221 611 1714
f 1764 824 1140
f 1484 106 1765
f 1766 1100 698
f 951 381 1342
f 1317 1318 557
f 754 1728 1274
f 742 192 512
f 1235 146 356
f 1416 1767 1417
f 286 1453 1768
f 1236 1235 356
f 1769 949 1392
f 1770 1771 201
f 1334 468 51
f 1697 781 441
f 537 531 148
f 781 1697 1748
f 311 1500 258
f 540 422 1339
f 1361 539 1524
f 1772 1264 264
f 1253 767 1773
f 339 428 278
f 482 804 1011
f 812 1005 648
f 963 1774 1657
f 171 1349 704
f 1006 1775 1090
f 177 73 1776
f 201 1771 1759
f 787 531 1584
f 1186 764 619
f 1777 684 1436
f 629 539 1361
f 539 575 816
f 353 278 231
f 539 629 575
f 1778 1397 1716
f 1779 394 395
f 324 647 1303
f 324 314 647
f 345 111 423
f 1511 1780 585
f 625 366 558
