v -0.110951 0.207886 -0.284677
v -0.119803 0.244233 -0.28421
v -0.0908805 0.244233 -0.293208
v -0.305355 0.244233 -0.030979
v -0.307091 0.216403 0
v 0.100826 -0.0423792 -0.203191
v -0.239237 0.246211 0.10776
v 0.268407 0.094844 -0.0836225
v 0.0975875 -0.113776 0.165019
v 0.178984 0.250939 0.13432
v 0.0424644 0.240338 0.269361
v -0.149689 -0.20567 -0.0408282
v 0.119674 0.244233 -0.28421
v 0 0.121152 0.293851
v 0 0.147697 0.299892
v 0.278126 0.148869 0.099521
v 0.164364 0.122591 0.250776
v 0.108393 0.273188 -0.0395332
v -0.153484 -0.0636044 0.16432
v 0.0484637 -0.129225 0.170257
v -0.0521943 0.245924 -0.266982
v 0.0403633 0.145225 0.288741
v 0.154252 -0.20567 0
v 0.146283 -0.244233 0.048847
v 0.119084 0.0508741 0.245398
v 0.232409 0.018119 -0.110851
v 0.20123 0.252943 0.0962389
v 0.09088 -0.244233 0.124559
v 0.061829 0.244233 -0.302206
v 0.0907515 0.244233 -0.293208
v 0.22089 -0.0189204 -0.0808038
v 0.24727 0.194019 -0.177362
v -0.238575 0.106655 0.177985
v 0.255545 0.244233 -0.172377
v 0.269813 0.244233 -0.146154
v 0.284081 0.244233 -0.119931
v 0 0.188573 0.305677
v -0.0442323 0.165664 0.291228
v 0.0699177 0.252857 0.202447
v -0.175041 -0.100941 0.0853108
v -0.00339184 0.247606 -0.266107
v -0.133923 0.246744 0.217552
v -0.145961 0.244233 0.269942
v 0.0679524 -0.267834 -0.0112923
v 0.121154 -0.205643 -0.1032
v 0.133043 -0.167107 -0.078026
v 0.133043 -0.244233 -0.078026
v -0.299892 0.147697 0
v -0.293851 0.121152 0
v 0.0309145 0.244233 0.305355
v -0.218759 -0.0371668 0.0461055
v 0.191558 0.258003 0.0247191
v 0.151291 0.266291 0.0284741
v 0.0986181 0.0878022 0.263326
v -0.150223 0.192902 -0.262756
v -0.0578269 0.210414 -0.289839
v -0.048718 -0.244233 -0.146411
v -0.0830281 0.176908 -0.285955
v -0.0291908 -0.251902 -0.116441
v -0.215936 0.00242315 -0.145569
v -0.137413 0.0282841 0.230325
v 0.127145 -0.205668 0.0912732
v 0.293851 0.121152 0
v -0.176531 0.00565395 0.205278
v 0.0876371 0.275069 0.0646489
v -0.239529 0.0186369 -0.0749912
v 0.016872 -0.275912 -0.00335224
v 0.126543 -0.0148468 0.210742
v 0.173748 -0.0037977 0.200624
v 0 0.244233 0.308505
v 0 0.216403 0.307091
v 0.305355 0.244233 -0.0310435
v 0.283516 0.109945 0.028158
v -0.0333575 -0.0934475 0.191984
v 0.200705 -0.0492097 0.0950918
v -0.263864 0.247622 -0.0782223
v 0.189875 0.252115 -0.127317
v 0.144696 0.256277 -0.127753
v 0.305355 0.244233 0.0310435
v -0.239576 0.0401302 -0.123049
v 0 0.094608 0.287809
v -0.0556657 0.083318 0.267265
v 0.111365 -0.0794128 0.179113
v 0.131241 0.271462 -0.00654583
v -0.165832 0.0189289 -0.218813
v -0.00358785 0.288413 -0.0318854
v -0.0548341 -0.20567 0.146158
v -0.238391 0.0656655 0.169639
v 0.0814318 0.204127 -0.290597
v -0.15234 0.0693358 0.243853
v -0.211409 0.127098 0.212453
v -0.0757127 0.274959 0.0821649
v -0.226958 0.0396956 -0.172306
v -0.0277324 0.283879 0.0592604
v -0.0633707 0.267392 -0.127772
v -0.0771085 -0.0690672 -0.194011
v -0.29468 0.200158 -0.0436354
v 0.146283 -0.167107 -0.048847
v -0.137356 0.251684 -0.173453
v -0.208737 0.203942 0.221058
v 0.032907 -0.244233 0.150653
v 0 -0.244233 0.154252
v 0.133043 -0.167107 0.078026
v 0.147406 -0.20567 0.0580347
v -0.109764 -0.0892621 -0.171906
v 0 0.147697 -0.299892
v 0.0457066 -0.0232803 0.226793
v 0.113779 0.171268 -0.279002
v 0.225778 0.10611 -0.200003
v -0.195 0.244233 0.236777
v -0.217881 0.244233 0.217881
v -0.245698 0.054956 0.120917
v 0.0903317 0.00741476 0.231289
v 0.110155 0.27456 0.0305456
v -0.061958 0.244233 0.302206
v -0.030979 0.244233 0.305355
v 0.154872 -0.0326904 0.188437
v 0.0838956 -0.0435999 0.206329
v 0.095406 0.278543 -0.00304809
v -0.0330157 -0.273535 0.0110473
v 0.0838088 0.128795 0.277864
v 0.0303252 -0.263682 -0.0693304
v -0.154222 0.264613 -0.0483938
v 0.155812 0.165232 -0.258128
v 0.026964 0.288805 -0.00396931
v -0.0740025 0.252327 0.207416
v -0.114404 -0.244233 0.103221
v -0.133171 -0.244233 0.077769
v 0.232542 0.167787 0.195107
v -0.269942 0.244233 -0.145961
v -0.28421 0.244233 -0.119803
v 0.269593 0.156812 0.135846
v -0.264442 0.0636233 0.0422348
v 0.230653 0.00242161 0.0837602
v 0 -0.244233 -0.154252
v -0.0595496 -0.117084 -0.174126
v -0.142448 -0.102457 -0.142548
v -0.106528 -0.205675 -0.118091
v -0.241155 -0.000877037 -0.03528
v 0 -0.10035 -0.198129
v -0.253342 0.0354573 -0.0392095
v 0 -0.066971 -0.220067
v -0.141291 0.139235 -0.262885
v -0.1307 0.0933942 -0.257358
v 0.116022 0.198254 0.281353
v 0.302206 0.244233 0.062087
v 0.293144 0.244233 0.091009
v -0.0958888 0.258404 -0.154961
v 0.197269 -0.0485365 -0.107583
v 0.114275 -0.167107 0.103478
v 0.0872251 -0.258772 0.0448381
v -0.11389 0.0946527 0.262599
v 0.267906 0.0804187 0.0531098
v -0.205916 0.0798146 0.216497
v 0.061829 0.244233 0.302206
v -0.0654161 -0.139725 0.162053
v -0.0426766 0.276957 -0.0927438
v -0.101407 -0.135022 0.153206
v -0.129874 -0.00623499 -0.214669
v 0.0523813 0.0950096 0.272721
v 0.300552 0.195631 -0.0292718
v 0.305677 0.188573 0
v -0.302206 0.244233 0.061958
v 0.232168 -0.0195271 -0.035532
v 0.0332812 0.0546768 0.262873
v -0.149929 -0.144237 -0.0880254
v -0.102072 -0.254304 -0.0534541
v 0.0496562 -0.0734442 -0.199635
v 0.284804 0.168365 -0.0869197
v -0.128398 -0.138867 -0.12335
v -0.103221 -0.167107 -0.114404
v -0.077769 -0.167107 -0.133171
v -0.305355 0.244233 0.030979
v -0.302206 0.244233 -0.061958
v -0.293208 0.244233 -0.0908805
v -0.142196 0.256658 0.130037
v -0.123379 0.265326 0.0882386
v 0.221974 0.121214 0.203756
v -0.0462449 0.0364135 0.25206
v -0.270295 0.168855 -0.128262
v 0.134873 0.134472 -0.267083
v 0.244888 0.209329 0.183295
v 0.0477138 0.280569 0.0642924
v 0.0629559 0.283337 0.0241718
v -0.308505 0.244233 0
v -0.255627 0.0591646 -0.0810833
v -0.0952759 0.279103 -0.00151353
v 0.00350869 0.279621 -0.0896318
v 0.258116 0.0118905 0
v 0.236822 -0.00849223 0.0361274
v 0.245004 -0.019153 0
v -0.117419 -0.20567 0.105893
v -0.091009 -0.244233 0.12443
v -0.091009 -0.167107 0.12443
v 0.0841458 -0.00722684 -0.225537
v -0.117094 0.254631 0.171113
v -0.0994562 0.263609 0.126273
v -0.00541916 0.261405 -0.181523
v 0.0628101 0.273169 0.100321
v 0 -0.20567 0.154252
v 0 -0.133728 -0.17619
v -0.0358322 -0.0865443 -0.195956
v 0.0787442 0.171804 0.288584
v 0.215984 0.202809 0.216927
v -0.190307 0.259481 -0.0208736
v 0.157905 0.155046 0.256977
v 0.182717 0.192063 0.246073
v -0.231141 0.251929 -0.00268626
v 0.210488 0.0569229 -0.210156
v 0.116384 0.158218 0.275844
v 0.174726 0.258458 0.0625889
v 0.130998 0.265932 0.0652019
v -0.063629 -0.244233 0.140498
v 0 0.042934 0.271227
v 0.133043 -0.244233 0.078026
v 0.0428666 0.0149055 0.245098
v -0.113439 -0.253439 -0.00331645
v 0.0535469 0.248758 0.234105
v -0.239374 0.212784 -0.188512
v 0.112276 0.104933 -0.265801
v -0.063629 -0.167107 0.140498
v -0.169611 0.108826 -0.245246
v 0.262929 0.0591442 -0.0488962
v 0.0738634 0.0504867 0.25331
v 0.218775 0.153164 -0.210389
v 0.140753 -0.0599079 -0.177382
v 0.000697277 0.236515 0.276124
v -0.154252 -0.20567 0
v 0 -0.133728 0.17619
v -0.033036 -0.167107 0.150653
v 0.220067 -0.066971 0
v 0.232535 -0.043062 0
v -0.17212 0.244233 -0.255673
v 0.232629 0.0249277 0.124556
v -0.028219 -0.0113212 -0.237098
v 0.198129 -0.10035 0
v 0.188965 -0.0920837 -0.0537976
v 0.211578 -0.0583858 -0.0401033
v -0.259978 0.0868011 -0.118374
v -0.239272 0.144201 0.182067
v -0.257774 0.0987973 0.132368
v 0.308505 0.244233 0
v 0.307091 0.216403 0
v -0.125426 0.265255 -0.0837785
v 0.152493 0.0969564 -0.253569
v -0.185885 -0.0896193 -0.0677269
v 0.155669 0.250373 0.173817
v -0.17212 0.244233 0.255673
v -0.184805 0.249442 0.201371
v -0.157106 0.263153 0.0537355
v 0.268668 0.100881 0.09348
v -0.198775 -0.0779487 0.0427855
v -0.207314 -0.0618355 -0.0422309
v 0.130944 0.256655 0.138485
v 0.131797 0.244604 -0.221953
v 0.235982 0.0475115 0.157671
v -0.18753 0.256313 -0.0652935
v -0.244049 0.167688 -0.177921
v -0.121388 -0.0479575 -0.192316
v 0.193261 0.0973808 -0.230966
v -0.212917 0.15954 -0.215265
v 0.0992585 0.246153 0.227471
v 0.108408 0.265461 0.101482
v -0.0493058 0.063367 -0.261601
v -0.21974 -0.015965 0.0851112
v 0.11511 0.0694216 -0.254544
v 0.09088 -0.167107 0.124559
v -0.12443 -0.167107 -0.091009
v 0.122813 0.211496 -0.279663
v 0 -0.066971 0.220067
v -0.061958 0.244233 -0.302206
v -0.143222 -0.205668 -0.0716442
v -0.270718 0.101894 -0.0778037
v 0.167951 0.256981 -0.086519
v -0.198129 -0.10035 0
v -0.175634 -0.120397 0.0440578
v -0.194636 0.0823974 -0.225113
v -0.0426694 0.16566 -0.290437
v 0.0426655 0.200546 0.29782
v -0.168803 -0.129163 -0.0495136
v 0.0446922 0.127275 -0.282872
v 0.203587 0.256777 -0.0117371
v 0.126011 0.266134 -0.0802092
v 0.00823528 0.263449 0.169732
v -0.133822 0.257498 -0.128829
v -0.226202 0.250826 -0.058529
v 0.0663192 0.282412 -0.0252888
v -0.305677 0.188573 0
v 0.235214 0.250966 -0.120769
v 0.0842677 0.262681 0.137552
v -0.077747 0.0382203 -0.24708
v 0.032907 -0.244233 -0.150653
v -0.0763894 -0.101462 0.177055
v 0.249973 0.138156 0.169213
v -0.153137 -0.064217 -0.1652
v 0 -0.167107 0.154252
v 0.254916 0.0349185 0.0427542
v -0.192963 0.162233 0.232191
v 0.0846007 0.245265 -0.247758
v -0.0673072 -0.264497 -0.0220503
v 0.067603 0.0205066 -0.242443
v 0.10735 0.0319513 -0.239805
v 0.0716746 0.0928651 -0.269379
v -0.0347131 -0.256389 0.105232
v -0.0978799 0.00917077 -0.23009
v -0.0331705 0.283851 -0.0550655
v 0.230466 0.247171 0.130691
v 0.160957 0.0501682 -0.237614
v -0.0384624 0.25195 -0.221369
v 0.183506 0.012334 -0.209258
v 0.149955 -0.0226306 -0.19824
v 0.244411 0.0202137 -0.0558746
v 0.169374 0.247369 -0.180196
v 0.032907 -0.167107 0.150653
v 0.12494 -0.139728 -0.131196
v -0.0108416 0.271033 0.132903
v 0.048452 -0.140644 -0.163628
v 0.0485084 -0.109071 -0.18179
v -0.154252 -0.167107 0
v 0.0453882 -0.268008 -0.038248
v 0.0615452 0.165198 -0.289361
v 0.0802752 0.251791 -0.20466
v 0.0676284 0.258694 -0.168094
v 0.0368658 0.258912 -0.185374
v -0.217881 0.244233 -0.217881
v 0.217753 0.244233 0.21801
v -0.27444 0.188651 0.121733
v 0.182104 0.247983 0.204201
v -0.220067 -0.066971 0
v -0.232535 -0.043062 0
v -0.245004 -0.019153 0
v -0.258116 0.0118905 0
v 0 0.121152 -0.293851
v 0.063372 -0.244233 0.140498
v 0.0697291 -0.20567 0.140857
v -0.271153 0.127975 -0.110845
v 0.0549725 0.260512 0.168937
v 0.146283 -0.167107 0.048847
v -0.28421 0.244233 0.119803
v -0.186114 0.197613 -0.239841
v 0.212012 0.00920541 0.170817
v 0.114276 0.253995 -0.166709
v -0.150653 -0.244233 -0.033036
v -0.132886 -0.00883071 0.211564
v 0.029537 0.0955755 -0.277921
v 0.111134 -0.258301 0.00434101
v 0.0635314 -0.0883604 0.187456
v 0.0399992 -0.253836 0.115244
v -0.258743 0.126178 -0.150993
v 0.199857 -0.0609207 -0.0754183
v -0.246328 0.0807934 -0.16025
v -0.16784 -0.0833876 0.126694
v -0.20427 0.119437 -0.221056
v -0.211988 0.0339674 0.19433
v 0.179909 -0.0608384 0.132415
v 0.145616 -0.10027 0.141744
v 0.1535 -0.0633895 0.167093
v 0.205092 0.246987 0.167013
v -0.0517968 0.260196 -0.171938
v -0.226451 -0.0343363 -0.027748
v -0.260904 0.142068 0.145325
v 0.299892 0.147697 0
v 0.232372 0.251407 0.0139279
v 0.209001 -0.0169683 0.128416
v 0.287809 0.094608 0
v 0.292729 0.162333 -0.0441424
v 0.260101 0.0936224 -0.130562
v 0.197482 0.152465 0.228576
v 0.252818 0.056102 -0.0942333
v -0.0562824 0.269004 0.129203
v -0.255673 0.244233 -0.17212
v -0.15166 -0.20935 0.0447667
v 0.00490678 -0.273869 0.038923
v -0.0522001 -0.0569124 0.206775
v 0 -0.043062 0.232535
v -0.292114 0.156186 -0.0321652
v -0.164852 0.0622077 -0.239336
v -0.22441 0.0801628 -0.198585
v -0.20224 0.0434771 -0.212207
v -0.140498 -0.244233 -0.063629
v 0.217268 -0.0348442 0.0616719
v -0.171128 -0.0290752 0.181607
v -0.287809 0.094608 0
v 0.271227 0.042934 0
v 0.09088 -0.167107 -0.124559
v 0.114275 -0.167107 -0.103478
v -0.238514 -0.00105395 0.0430936
v 0.0837429 0.211556 0.294996
v -0.271138 0.246163 0.0121072
v -0.049444 0.285521 -0.0126644
v 0.104268 -0.20567 0.119906
v -0.117732 0.168648 -0.277803
v -0.0179291 0.290155 0.0148182
v 0.172854 -0.123729 0.0550618
v 0.210642 0.075715 0.214049
v 0 0.0118905 -0.258116
v 0.218822 0.204665 -0.212244
v 0.0273089 0.268741 -0.140686
v -0.0961876 0.244472 -0.246024
v -0.145961 0.244233 -0.269942
v -0.0723469 0.279658 -0.0454269
v 0.255545 0.244233 0.172377
v 0.063372 -0.167107 0.140498
v 0.262332 0.190402 0.15507
v -0.16916 0.116623 0.246124
v 0.290912 0.19197 0.0762377
v -0.293208 0.244233 0.0908805
v -0.227356 0.0308411 0.154619
v -0.133171 -0.167107 0.077769
v -0.0320693 0.277049 0.0991466
v 0.0163853 -0.253597 -0.122131
v 0.252493 0.0713929 0.128512
v -0.0196547 0.270414 -0.134795
v 0.0373069 -0.0609944 0.210147
v -0.164786 -0.112389 -0.102281
v -0.202533 -0.0500697 -0.085854
v -0.077769 -0.244233 -0.133171
v 0.0951997 -0.205658 -0.126395
v 0.063372 -0.244233 -0.140498
v 0.063372 -0.167107 -0.140498
v -0.189753 0.250221 0.123331
v -0.216587 0.245909 0.156972
v 0.285282 0.14226 0.0563391
v 0.298725 0.192269 0.0358613
v 0.0981893 -0.250606 0.07813
v 0.114275 -0.244233 0.103478
v 0.302206 0.244233 -0.062087
v 0 0.216403 -0.307091
v -0.130695 -0.04077 0.191554
v 0.145496 0.0209987 0.226016
v -0.146411 -0.167107 0.048589
v 0 -0.019153 -0.245004
v 0.219197 0.252627 0.0562593
v 0.263401 0.244657 0.047237
v 0.247666 0.249909 0.0898775
v -0.262065 0.212398 0.153002
v -0.269942 0.244233 0.145961
v 0.236649 0.244233 -0.195193
v 0.154105 0.258653 0.100263
v 0.148688 0.265133 -0.045681
v 0.0529563 -0.270842 0.0229199
v 0.23284 0.248267 -0.0385286
v 0.0514518 0.274404 -0.0992052
v -0.0373054 -0.264797 0.0595167
v -0.0352834 0.208609 0.297717
v -0.0930113 0.25111 -0.199171
v -0.245984 0.247711 0.054521
v 0.171991 0.244233 -0.255802
v 0.161543 0.201861 -0.262303
v 0.18888 0.256651 -0.0477312
v -0.0648183 0.282524 0.0326495
v 0.0417314 -0.265745 0.0559379
v -0.140498 -0.167107 -0.063629
v 0.145832 0.244233 -0.270006
v 0.0620139 -0.256584 0.0851856
v -0.223853 0.00877455 0.121191
v 0.0285124 0.255846 0.203985
v -0.179265 0.20242 0.246628
v -0.179835 0.0413947 0.222959
v 0.236649 0.244233 0.195193
v -0.119803 0.244233 0.28421
v -0.150653 -0.167107 -0.033036
v -0.0490232 0.116573 -0.278346
v 0.194872 0.244233 0.236906
v -0.0402167 0.246266 0.253871
v 0.270201 0.243943 -0.00324439
v -0.0194953 0.255302 0.208998
v 0.0100388 0.249714 0.240646
v -0.264143 0.24473 -0.0351146
v 0.17619 -0.133728 0
v -0.195808 0.257645 0.0281071
v -0.280792 0.113666 -0.0385057
v 0.293144 0.244233 -0.091009
v 0.271739 0.245306 -0.0493357
v -0.260092 0.204718 -0.158991
v -0.177995 0.153229 -0.243212
v -0.267073 0.0725819 -0.0420465
v 0.282155 0.127693 -0.057804
v 0.0367075 0.064322 -0.266144
v 0.154252 -0.244233 0
v 0.119674 0.244233 0.28421
v 0.0907515 0.244233 0.293208
v 0.274952 0.0901095 -0.0408378
v 0.126619 0.121803 0.267219
v 0.279518 0.068771 0
v -0.108033 0.206578 0.283415
v -0.0908805 0.244233 0.293208
v -0.162132 -0.0240338 -0.19272
v -0.12443 -0.244233 -0.091009
v -0.244536 0.0331389 0.0778879
v -0.162467 0.257272 -0.0963102
v -0.0902193 0.0109175 0.2321
v -0.0856566 0.272756 -0.0833295
v 0.0347304 0.0307435 -0.254299
v 0.0736322 0.053661 -0.254832
v 0.217753 0.244233 -0.21801
v -0.033036 -0.244233 0.150653
v -0.0717522 0.204012 0.29203
v 0.194872 0.244233 -0.236906
v -0.159412 0.164222 0.257932
v 0.0888409 0.133465 -0.277929
v 0.185094 -0.0238304 -0.173305
v 0.184979 -0.0290413 0.164451
v -0.271227 0.042934 0
v -0.0374233 0.0248457 -0.250929
v -0.255673 0.244233 0.17212
v 0.155917 -0.115133 -0.116672
v -0.0783003 0.12602 0.27749
v 0.181017 -0.0860075 -0.0960123
v 0 -0.019153 0.245004
v -0.044313 -0.0115733 0.231845
v 0 0.0118905 0.258116
v -0.00662979 -0.261856 -0.0861943
v -0.236777 0.244233 0.195
v -0.237122 0.209182 0.189753
v 0.015455 0.286593 0.0414017
v 0.133452 -0.101104 -0.155587
v -0.163902 0.251729 0.166201
v 0.143951 0.0878695 0.253244
v 0.188636 0.10241 0.2331
v 0.0123733 0.279533 0.0909585
v -0.221767 -0.00559106 -0.102745
v 0.0715827 0.264893 -0.134676
v -0.222676 -0.0218813 -0.0632251
v 0.0309145 0.244233 -0.305355
v 0 0.244233 -0.308505
v 0.154171 0.213276 0.265996
v 0.208829 -0.0162807 -0.134115
v -0.297594 0.192939 0.0362552
v -0.147066 0.207829 0.270574
v 0.0901974 -0.129981 -0.158977
v -0.0153623 -0.273482 -0.0405878
v -0.20145 0.252962 0.0765559
v -0.140225 -0.128434 0.124065
v -0.194282 -0.0373477 0.133476
v -0.0889745 -0.0285346 -0.212604
v -0.201851 -0.0327914 -0.12276
v 0.19769 -0.0779113 0.0503408
v -0.214271 0.248215 -0.152714
v 0.243898 0.0528996 -0.137219
v 0.095174 -0.0864942 -0.181378
v 0.00149315 -0.253974 0.123052
v 0.00809774 -0.264479 0.0832872
v 0 -0.10035 0.198129
v -0.253175 0.0308869 0.0329924
v -0.0906074 -0.0296896 0.211438
v -0.0496363 -0.20567 -0.146303
v 0 0.068771 0.279518
v 0 0.094608 -0.287809
v -0.0255098 0.0867589 -0.275792
v 0 0.068771 -0.279518
v 0 0.042934 -0.271227
v 0.220402 -0.0464755 0.0309472
v 0.280506 0.194751 0.114178
v 0.026068 0.252768 -0.226015
v 0.0367725 0.283438 -0.0546419
v -0.048718 -0.167107 -0.146411
v -0.0980442 -0.130234 -0.154255
v -0.216106 0.201469 -0.214482
v -0.195 0.244233 -0.236777
v -0.283061 0.203261 -0.088731
v -0.203468 -0.00171659 0.165741
v -0.0941255 0.130722 -0.275783
v -0.0882261 0.0817615 -0.262528
v -0.155311 -0.140217 0.0835727
v 0.0810704 0.274691 -0.0690069
v -0.0854286 -0.259959 0.0362773
v -0.0348184 0.123406 0.282699
v 0.294007 0.205861 -0.0639386
v 0.178282 0.13734 -0.244376
v -0.177941 -0.0717465 -0.121872
v 0.048113 -0.03775 -0.218724
v 0 -0.20567 -0.154252
v -0.142899 0.246679 -0.22075
v -0.196075 -0.0586847 0.0875109
v 0.152334 -0.134079 0.104552
v 0.124648 -0.0472261 0.190775
v 0.036198 -0.00514426 -0.237676
v -0.275977 0.140836 0.100911
v 0.191855 0.0313645 0.213158
v 0.221646 0.0484725 0.190199
v -0.030979 0.244233 -0.305355
v 0.210901 0.251868 -0.0842154
v 0.252476 0.246311 -0.0838292
v -0.197385 0.00519288 -0.186499
v -0.234721 0.12279 -0.188853
v -0.0370731 0.262642 0.169669
v 0.252214 0.137086 -0.164904
v 0.190729 0.183616 -0.237993
v -0.241504 0.246737 -0.116174
v 0.145111 0.182889 0.266734
v 0.177381 -0.0931788 0.0969411
v 0.0457486 0.246288 -0.26834
v -0.103495 -0.0684738 0.186877
v 0.0800003 0.243698 0.259171
v -0.100183 0.264713 -0.115936
v -0.124501 0.136918 0.269811
v -0.0577817 -0.257114 -0.0776281
v 0.220929 0.0217413 -0.169451
v -0.103221 -0.244233 -0.114404
v 0.251787 0.0512189 0.0876691
v -0.0391327 -0.126653 0.173171
v 0.140769 0.24713 0.220911
v -0.236777 0.244233 -0.195
v 0.107495 0.253339 0.180198
v 0.145832 0.244233 0.270006
v -0.111598 0.273441 0.0436579
v -0.0922214 0.244463 0.251677
v -0.279518 0.068771 0
v 0.176729 -0.124525 -0.0369532
v -0.201138 0.250126 -0.106014
v 0.167487 -0.126711 -0.074539
v -0.184133 0.247464 -0.18899
v -0.126733 -0.0993697 0.158804
v -0.114096 0.272798 -0.0415922
v 0.098513 -0.254965 -0.0389076
v -0.275656 0.210709 -0.128258
v 0.149593 -0.205668 -0.0508442
v 0 0.188573 -0.305677
v 0.09088 -0.244233 -0.124559
v 0.0542656 -0.255236 -0.103049
v 0.168425 0.263501 -0.00968571
v 0.146283 -0.244233 -0.048847
v -0.114404 -0.167107 0.103221
v -0.28353 0.154274 -0.076097
v -0.0631914 -0.00254576 -0.232331
v -0.154252 -0.244233 0
v 0.101158 0.264917 -0.111681
v 0.264171 0.114687 0.135322
v -0.146411 -0.244233 0.048589
v 0.032907 -0.167107 -0.150653
v 0.114275 -0.244233 -0.103478
v -0.17619 -0.133728 0
v -0.0762735 -0.253879 0.0857192
v 0.216404 0.249285 -0.162242
v -0.14659 0.268408 0.00354693
v -0.185266 -0.0320424 -0.15788
v 0.0786418 -0.25742 -0.0721034
v 0 -0.043062 -0.232535
v -0.0441178 -0.0447798 -0.216083
v -0.163209 0.25744 0.0947411
v 0.0387432 0.201191 -0.298573
v 0.0864868 -0.145727 0.152465
v 0.169041 0.0591665 0.236911
v 0.120994 -0.13983 0.136006
v -0.287766 0.189196 0.0780337
v -0.28514 0.14291 0.0507382
v -0.124009 0.0436186 -0.240978
v -0.0771532 0.259877 0.161967
v 0.0346078 0.269525 0.132864
v -0.0980197 0.0531237 0.249184
v -0.251687 0.177403 0.166127
v -0.223594 0.171003 0.20236
v -0.266052 0.0904554 0.082772
v -0.278005 0.0993849 0.0348867
v 0.240188 0.089664 0.172935
v 0.241577 0.076483 -0.172981
v 0.284081 0.244233 0.119931
v 0.269813 0.244233 0.146154
v 0.172526 -0.0656404 -0.141462
v 0.270209 0.185027 -0.134514
v 0.132485 0.00549516 -0.220843
v 0.275454 0.134335 -0.114232
v -0.126888 0.17545 0.275332
v -0.09048 0.166983 0.283819
v 0.171991 0.244233 0.255802
v 0.283896 0.207457 -0.0991818
v -0.172511 0.251202 -0.141683
v 0 -0.167107 -0.154252
v 0.154252 -0.167107 0
v -0.307091 0.216403 0
v -0.305355 0.244233 -0.030979
v -0.198129 -0.10035 0
v 0.305355 0.244233 0.0310435
v -0.154252 -0.244233 0
v -0.154252 -0.20567 0
v 0 -0.019153 -0.245004
v 0 -0.043062 -0.232535
v 0.198129 -0.10035 0
v -0.308505 0.244233 0
v -0.305677 0.188573 0
v 0 -0.066971 0.220067
v 0 -0.043062 0.232535
v 0.0907515 0.244233 0.293208
v -0.305355 0.244233 0.030979
v -0.302206 0.244233 0.061958
v 0.269813 0.244233 0.146154
v -0.030979 0.244233 -0.305355
v 0.063372 -0.244233 -0.140498
v 0 -0.244233 0.154252
v 0 -0.20567 0.154252
v -0.077769 -0.244233 -0.133171
v 0.145832 0.244233 -0.270006
v -0.140498 -0.167107 -0.063629
v 0.114275 -0.167107 -0.103478
v 0.133043 -0.167107 -0.078026
v 0.154252 -0.244233 0
v 0.146283 -0.244233 0.048847
v -0.119803 0.244233 -0.28421
v -0.0908805 0.244233 -0.293208
v -0.28421 0.244233 -0.119803
v -0.302206 0.244233 -0.061958
v 0.133043 -0.244233 -0.078026
v 0.0309145 0.244233 0.305355
v 0.061829 0.244233 0.302206
v 0.032907 -0.167107 0.150653
v -0.17212 0.244233 -0.255673
v -0.145961 0.244233 -0.269942
v 0.145832 0.244233 0.270006
v 0.119674 0.244233 0.28421
v 0.119674 0.244233 -0.28421
v 0 0.147697 -0.299892
v 0 0.121152 -0.293851
v 0 0.188573 -0.305677
v -0.091009 -0.167107 0.12443
v -0.061958 0.244233 -0.302206
v 0 -0.10035 0.198129
v 0.114275 -0.244233 -0.103478
v 0.114275 -0.244233 0.103478
v 0.269813 0.244233 -0.146154
v -0.077769 -0.167107 -0.133171
v 0.299892 0.147697 0
v 0.09088 -0.167107 -0.124559
v 0.063372 -0.167107 -0.140498
v -0.12443 -0.167107 -0.091009
v -0.091009 -0.244233 0.12443
v 0.114275 -0.167107 0.103478
v 0.220067 -0.066971 0
v 0 -0.244233 -0.154252
v -0.048718 -0.244233 -0.146411
v -0.299892 0.147697 0
v -0.236777 0.244233 0.195
v 0.255545 0.244233 -0.172377
v 0 -0.133728 0.17619
v 0.293144 0.244233 -0.091009
v 0.305355 0.244233 -0.0310435
v 0.302206 0.244233 -0.062087
v -0.114404 -0.167107 0.103221
v 0.032907 -0.244233 -0.150653
v -0.150653 -0.167107 -0.033036
v -0.279518 0.068771 0
v 0.245004 -0.019153 0
v 0.232535 -0.043062 0
v 0.154252 -0.244233 0
v 0.146283 -0.244233 -0.048847
v 0.154252 -0.20567 0
v 0.032907 -0.244233 0.150653
v 0 -0.244233 0.154252
v 0 -0.167107 0.154252
v -0.033036 -0.167107 0.150653
v -0.048718 -0.167107 -0.146411
v 0.284081 0.244233 0.119931
v 0.308505 0.244233 0
v -0.217881 0.244233 -0.217881
v 0.258116 0.0118905 0
v -0.236777 0.244233 -0.195
v -0.255673 0.244233 -0.17212
v 0 -0.20567 -0.154252
v 0 0.147697 0.299892
v 0.305677 0.188573 0
v -0.150653 -0.244233 -0.033036
v -0.154252 -0.244233 0
v -0.293851 0.121152 0
v 0.194872 0.244233 -0.236906
v 0.217753 0.244233 -0.21801
v 0.171991 0.244233 -0.255802
v -0.258116 0.0118905 0
v -0.245004 -0.019153 0
v -0.271227 0.042934 0
v 0.236649 0.244233 -0.195193
v -0.220067 -0.066971 0
v -0.0908805 0.244233 0.293208
v -0.119803 0.244233 0.28421
v 0 -0.167107 0.154252
v -0.063629 -0.167107 0.140498
v 0.293144 0.244233 0.091009
v 0 0.042934 -0.271227
v 0 0.0118905 -0.258116
v 0.302206 0.244233 0.062087
v -0.063629 -0.244233 0.140498
v 0 -0.019153 0.245004
v 0.217753 0.244233 0.21801
v 0.236649 0.244233 0.195193
v -0.145961 0.244233 0.269942
v 0 0.216403 -0.307091
v 0.133043 -0.167107 0.078026
v 0.09088 -0.244233 0.124559
v 0.17619 -0.133728 0
v 0.154252 -0.167107 0
v 0.063372 -0.167107 0.140498
v 0 0.0118905 0.258116
v 0 0.042934 0.271227
v 0.0907515 0.244233 -0.293208
v 0.032907 -0.167107 -0.150653
v -0.255673 0.244233 0.17212
v -0.269942 0.244233 0.145961
v 0.146283 -0.167107 -0.048847
v -0.146411 -0.167107 0.048589
v -0.146411 -0.244233 0.048589
v -0.103221 -0.244233 -0.114404
v 0 0.244233 -0.308505
v 0.0309145 0.244233 -0.305355
v 0 0.216403 0.307091
v -0.293208 0.244233 -0.0908805
v 0 0.094608 -0.287809
v 0 0.244233 -0.308505
v -0.133171 -0.167107 0.077769
v -0.17619 -0.133728 0
v 0.279518 0.068771 0
v -0.28421 0.244233 0.119803
v 0.146283 -0.167107 0.048847
v 0.154252 -0.167107 0
v 0.293851 0.121152 0
v 0.287809 0.094608 0
v -0.154252 -0.167107 0
v -0.17212 0.244233 0.255673
v 0 -0.133728 -0.17619
v -0.269942 0.244233 -0.145961
v 0 -0.066971 -0.220067
v 0.063372 -0.244233 0.140498
v 0.061829 0.244233 -0.302206
v 0 -0.167107 0.154252
v -0.195 0.244233 -0.236777
v -0.232535 -0.043062 0
v -0.061958 0.244233 0.302206
v -0.033036 -0.244233 0.150653
v -0.133171 -0.244233 0.077769
v -0.114404 -0.244233 0.103221
v 0.154252 -0.167107 0
v 0 -0.167107 -0.154252
v 0 -0.10035 -0.198129
v 0 0.068771 0.279518
v 0.09088 -0.167107 0.124559
v -0.287809 0.094608 0
v -0.103221 -0.167107 -0.114404
v 0 -0.167107 -0.154252
v 0 0.188573 0.305677
v 0.194872 0.244233 0.236906
v 0 0.244233 0.308505
v 0.255545 0.244233 0.172377
v 0.307091 0.216403 0
v 0 -0.167107 -0.154252
v 0 0.094608 0.287809
v 0 0.121152 0.293851
v 0 0.068771 -0.279518
v 0.284081 0.244233 -0.119931
v -0.217881 0.244233 0.217881
v -0.195 0.244233 0.236777
v 0.271227 0.042934 0
v -0.154252 -0.167107 0
v -0.293208 0.244233 0.0908805
v -0.12443 -0.244233 -0.091009
v -0.140498 -0.244233 -0.063629
v 0.171991 0.244233 0.255802
v 0.09088 -0.244233 -0.124559
v 0.133043 -0.244233 0.078026
v 0.308505 0.244233 0
v -0.308505 0.244233 0
v -0.030979 0.244233 0.305355
v 0 -0.244233 -0.154252
v -0.154252 -0.167107 0
v 0 0.244233 0.308505
f 1 2 3
f 588 663 367
f 311 6 662
f 662 6 195
f 478 663 169
f 663 8 367
f 15 22 37
f 257 205 123
f 367 8 369
f 277 378 353
f 587 284 316
f 582 21 41
f 493 615 401
f 45 46 47
f 68 117 69
f 219 475 371
f 240 33 91
f 138 172 417
f 203 210 145
f 69 341 580
f 70 71 50
f 68 118 577
f 33 88 154
f 521 410 316
f 264 505 291
f 155 388 482
f 272 12 453
f 343 627 228
f 517 541 226
f 517 315 531
f 507 517 660
f 97 5 4
f 661 32 35
f 670 470 338
f 603 328 247
f 182 402 460
f 40 565 534
f 65 184 183
f 183 199 65
f 603 606 666
f 86 125 556
f 647 529 48
f 529 288 48
f 529 646 163
f 529 163 173
f 140 202 142
f 529 671 288
f 529 173 671
f 136 558 105
f 201 136 202
f 60 80 93
f 156 293 158
f 565 40 276
f 80 351 93
f 93 585 60
f 585 637 60
f 138 171 172
f 60 637 537
f 346 151 441
f 346 44 616
f 389 672 185
f 295 637 488
f 189 190 191
f 192 193 194
f 584 442 474
f 654 112 241
f 414 118 107
f 101 200 102
f 375 414 107
f 204 460 326
f 165 216 224
f 107 118 113
f 396 578 432
f 113 216 107
f 512 165 214
f 299 593 555
f 29 89 642
f 89 29 30
f 255 454 13
f 13 299 255
f 269 108 89
f 30 269 89
f 9 643 645
f 128 127 192
f 20 643 9
f 236 237 238
f 20 9 347
f 9 645 356
f 242 79 243
f 2 1 400
f 123 244 491
f 347 9 83
f 73 362 423
f 343 12 380
f 253 275 329
f 20 403 643
f 398 324 198
f 44 441 67
f 441 44 346
f 400 55 233
f 457 468 218
f 86 306 390
f 414 375 270
f 257 491 611
f 276 252 673
f 674 434 146
f 501 321 108
f 78 283 274
f 108 181 501
f 74 602 229
f 138 268 171
f 244 493 596
f 372 675 630
f 372 676 675
f 292 411 135
f 359 148 95
f 668 99 613
f 229 230 296
f 148 446 99
f 99 285 148
f 446 574 99
f 86 390 393
f 639 578 572
f 235 677 678
f 25 224 113
f 229 544 74
f 536 640 96
f 470 394 338
f 394 679 538
f 419 621 411
f 411 292 419
f 621 620 632
f 322 324 323
f 680 671 173
f 638 621 632
f 334 335 101
f 320 638 616
f 61 90 459
f 61 459 64
f 344 64 382
f 24 346 480
f 607 250 177
f 641 177 250
f 159 488 85
f 578 639 432
f 52 622 53
f 355 357 356
f 622 440 84
f 628 78 342
f 523 342 323
f 97 681 5
f 374 511 546
f 429 594 546
f 672 389 469
f 174 672 469
f 469 76 174
f 374 682 683
f 131 76 590
f 379 378 277
f 54 25 519
f 418 385 386
f 590 76 286
f 11 684 595
f 389 685 686
f 91 405 298
f 145 388 203
f 591 145 210
f 603 481 606
f 603 262 481
f 182 659 402
f 20 314 403
f 400 1 55
f 658 307 687
f 56 278 58
f 428 56 688
f 619 278 428
f 166 280 415
f 415 280 246
f 349 180 258
f 688 56 271
f 138 417 600
f 418 689 420
f 421 7 422
f 423 424 406
f 28 425 426
f 25 54 224
f 125 516 184
f 690 691 497
f 59 692 57
f 247 358 10
f 10 358 307
f 294 629 132
f 192 127 193
f 55 1 392
f 450 622 282
f 282 442 450
f 344 492 61
f 392 58 563
f 444 120 373
f 686 447 389
f 449 269 448
f 344 546 492
f 123 205 636
f 269 693 448
f 401 615 187
f 390 306 401
f 401 187 390
f 191 190 232
f 462 280 694
f 463 106 333
f 378 379 93
f 507 315 517
f 695 315 696
f 22 15 14
f 205 257 286
f 315 507 696
f 473 474 427
f 55 476 340
f 153 251 601
f 75 364 355
f 251 16 629
f 615 123 636
f 187 607 451
f 187 636 607
f 10 439 254
f 247 10 254
f 697 23 698
f 27 439 10
f 461 486 487
f 405 500 298
f 298 500 458
f 563 58 278
f 123 491 257
f 469 208 286
f 699 399 700
f 487 498 115
f 701 561 175
f 617 180 561
f 617 561 701
f 117 503 69
f 133 609 504
f 702 561 97
f 97 561 625
f 152 651 82
f 73 63 362
f 510 511 683
f 73 153 485
f 407 7 447
f 514 515 111
f 423 251 153
f 594 374 546
f 703 623 616
f 429 546 344
f 524 139 66
f 118 83 577
f 165 548 214
f 81 165 160
f 447 533 471
f 121 160 54
f 165 81 548
f 704 11 227
f 705 11 704
f 684 11 705
f 218 11 595
f 11 218 468
f 447 686 407
f 549 550 333
f 468 227 11
f 467 126 465
f 231 553 538
f 59 411 513
f 421 422 518
f 596 148 285
f 359 95 413
f 446 359 309
f 95 148 596
f 357 577 83
f 503 357 355
f 657 109 588
f 569 161 366
f 522 66 80
f 657 588 367
f 706 200 101
f 707 574 708
f 602 74 293
f 117 577 357
f 357 503 117
f 682 74 544
f 341 581 580
f 105 137 295
f 159 259 488
f 259 536 96
f 527 709 710
f 587 649 126
f 178 368 520
f 237 350 238
f 75 355 592
f 364 75 134
f 269 30 711
f 349 351 239
f 656 178 395
f 350 509 149
f 712 321 281
f 281 713 712
f 345 713 281
f 486 498 487
f 501 281 321
f 605 262 603
f 276 673 633
f 611 668 539
f 464 207 204
f 204 182 460
f 714 642 712
f 374 293 74
f 12 272 380
f 447 7 533
f 447 471 208
f 413 198 359
f 534 624 715
f 716 21 582
f 347 414 717
f 150 62 103
f 45 718 418
f 62 391 719
f 150 391 62
f 215 62 719
f 203 388 279
f 279 155 50
f 279 50 71
f 231 232 553
f 66 141 186
f 279 71 37
f 278 619 106
f 34 635 720
f 721 558 557
f 552 494 396
f 552 479 494
f 396 494 578
f 479 495 494
f 386 46 45
f 45 47 718
f 657 540 599
f 25 113 430
f 430 644 25
f 519 484 54
f 96 202 136
f 661 667 169
f 96 105 259
f 382 535 19
f 382 19 429
f 481 595 684
f 368 206 17
f 568 38 508
f 82 568 508
f 722 161 162
f 531 723 724
f 591 527 145
f 725 166 170
f 324 555 198
f 337 39 605
f 374 74 682
f 726 634 213
f 727 576 645
f 61 651 90
f 647 646 529
f 146 434 147
f 238 728 236
f 661 169 663
f 251 629 412
f 73 485 365
f 594 429 19
f 729 730 573
f 376 731 681
f 732 422 506
f 192 409 128
f 263 199 290
f 665 498 486
f 22 121 203
f 613 99 574
f 624 534 565
f 72 474 466
f 609 655 383
f 121 484 210
f 32 733 35
f 20 734 314
f 421 533 7
f 735 569 667
f 735 667 36
f 736 161 569
f 736 569 737
f 477 273 186
f 592 576 394
f 355 364 503
f 313 255 342
f 192 738 409
f 532 120 300
f 598 532 300
f 39 218 262
f 457 218 39
f 421 641 533
f 640 678 142
f 337 457 39
f 515 652 653
f 434 435 147
f 205 471 636
f 239 351 80
f 77 635 313
f 147 435 658
f 739 631 689
f 12 228 740
f 741 472 477
f 477 472 273
f 572 195 6
f 12 343 228
f 300 167 598
f 124 181 108
f 599 540 26
f 238 164 728
f 599 26 528
f 742 743 164
f 744 745 746
f 721 170 558
f 621 419 620
f 181 245 220
f 355 356 592
f 484 17 206
f 206 591 210
f 210 484 206
f 94 451 92
f 17 519 520
f 17 520 368
f 613 325 604
f 612 610 98
f 626 235 640
f 237 612 509
f 421 176 641
f 350 237 509
f 84 18 119
f 119 114 84
f 440 18 84
f 542 747 748
f 239 336 349
f 84 53 622
f 349 336 180
f 18 566 287
f 18 440 283
f 444 634 567
f 635 289 720
f 31 350 149
f 636 187 615
f 152 508 597
f 108 269 449
f 605 603 247
f 39 262 605
f 605 247 254
f 626 305 291
f 104 103 62
f 312 26 369
f 26 540 369
f 591 206 207
f 369 223 312
f 749 750 691
f 723 315 695
f 387 332 331
f 114 119 184
f 207 206 368
f 32 661 588
f 663 588 661
f 324 398 323
f 306 86 188
f 280 166 694
f 555 322 299
f 562 408 456
f 398 413 188
f 239 186 273
f 491 668 611
f 157 188 413
f 80 60 522
f 59 135 411
f 59 57 135
f 573 547 751
f 73 365 63
f 535 575 352
f 352 19 535
f 19 614 594
f 352 614 19
f 157 413 95
f 319 740 228
f 554 752 404
f 495 266 302
f 660 226 502
f 528 660 502
f 415 571 137
f 482 388 710
f 535 382 562
f 562 456 535
f 54 484 121
f 285 491 244
f 427 474 72
f 547 172 751
f 72 466 753
f 560 559 754
f 474 442 466
f 152 597 405
f 560 340 559
f 356 645 576
f 45 418 386
f 755 164 312
f 219 371 756
f 31 164 238
f 208 469 389
f 648 305 159
f 433 211 27
f 625 376 97
f 27 435 433
f 605 254 290
f 547 417 172
f 332 545 504
f 78 274 77
f 290 337 605
f 6 311 226
f 192 194 738
f 6 226 541
f 658 435 307
f 211 433 52
f 211 52 53
f 285 668 491
f 186 80 66
f 186 141 477
f 273 472 625
f 336 273 625
f 539 604 757
f 508 38 665
f 170 166 415
f 166 725 694
f 221 158 715
f 469 286 76
f 533 641 250
f 220 501 181
f 376 472 49
f 522 537 416
f 536 305 626
f 493 157 95
f 644 519 25
f 438 32 397
f 758 631 739
f 438 397 496
f 528 26 31
f 38 568 759
f 312 31 26
f 243 424 760
f 79 424 243
f 637 295 571
f 592 538 75
f 570 260 245
f 122 621 638
f 616 44 320
f 308 245 260
f 530 43 248
f 730 547 573
f 761 217 762
f 43 530 461
f 167 217 761
f 27 307 435
f 763 655 647
f 449 448 499
f 589 449 499
f 644 520 519
f 656 256 412
f 764 255 313
f 313 765 764
f 255 764 766
f 249 42 518
f 316 410 370
f 142 202 640
f 767 139 768
f 477 141 769
f 465 126 608
f 77 313 78
f 513 411 621
f 434 363 433
f 393 125 86
f 94 410 521
f 570 245 181
f 438 733 32
f 40 575 252
f 456 408 112
f 229 602 230
f 490 133 545
f 154 88 354
f 154 91 33
f 464 527 207
f 232 190 553
f 331 51 387
f 635 34 770
f 387 51 265
f 673 252 771
f 51 252 575
f 252 51 330
f 51 331 330
f 424 423 362
f 136 105 96
f 81 160 22
f 282 622 52
f 52 433 363
f 551 479 552
f 148 359 446
f 611 286 257
f 428 278 56
f 477 769 741
f 555 309 198
f 456 265 535
f 434 466 363
f 85 585 379
f 112 654 490
f 40 352 575
f 258 475 219
f 75 538 381
f 585 85 488
f 416 537 571
f 637 585 488
f 674 466 434
f 562 382 64
f 449 124 108
f 382 429 344
f 113 224 216
f 660 509 507
f 772 608 773
f 181 124 570
f 245 266 220
f 309 41 21
f 110 458 248
f 774 200 706
f 308 209 310
f 269 711 693
f 255 766 454
f 383 655 763
f 151 455 452
f 114 65 212
f 212 53 114
f 65 199 263
f 211 53 212
f 194 87 775
f 193 87 194
f 776 554 406
f 445 116 115
f 777 505 264
f 778 505 777
f 104 698 23
f 566 443 556
f 157 493 401
f 310 502 311
f 779 424 79
f 83 356 357
f 356 83 9
f 494 495 301
f 263 212 65
f 376 49 731
f 198 309 359
f 309 399 446
f 780 87 193
f 497 87 780
f 656 581 256
f 138 600 489
f 55 340 233
f 651 61 492
f 233 340 560
f 64 344 61
f 97 4 702
f 681 97 376
f 154 459 90
f 274 283 440
f 91 154 405
f 657 599 209
f 297 190 189
f 363 282 52
f 439 212 263
f 94 521 516
f 107 216 781
f 7 339 437
f 3 56 1
f 520 395 178
f 27 211 439
f 75 381 134
f 433 435 434
f 328 782 783
f 545 387 490
f 184 119 287
f 241 579 654
f 608 784 773
f 651 179 82
f 367 540 657
f 564 563 463
f 459 154 354
f 430 68 69
f 525 785 526
f 595 262 218
f 786 576 727
f 408 88 112
f 488 259 295
f 498 38 445
f 399 574 446
f 647 48 763
f 717 414 270
f 335 787 391
f 788 789 98
f 276 633 431
f 335 334 787
f 267 790 335
f 267 335 391
f 104 62 215
f 651 492 179
f 90 405 154
f 179 791 792
f 205 286 208
f 114 184 65
f 659 404 752
f 7 407 339
f 398 188 443
f 556 188 86
f 653 298 100
f 653 100 515
f 442 282 363
f 336 625 180
f 92 370 410
f 401 306 157
f 589 570 124
f 557 136 201
f 185 685 389
f 313 635 765
f 776 406 779
f 776 752 554
f 423 406 16
f 16 406 554
f 299 793 593
f 397 32 225
f 85 377 648
f 648 159 85
f 656 629 294
f 394 470 679
f 207 368 204
f 794 317 724
f 392 143 55
f 202 96 640
f 308 662 302
f 67 120 532
f 67 532 320
f 67 320 44
f 436 795 796
f 373 67 441
f 373 120 67
f 294 132 404
f 404 659 182
f 746 618 797
f 520 644 395
f 555 41 309
f 134 234 364
f 372 409 798
f 217 799 762
f 372 128 409
f 372 630 128
f 450 274 440
f 316 650 521
f 188 157 306
f 715 158 534
f 202 140 201
f 598 167 800
f 130 475 617
f 467 468 457
f 582 41 801
f 801 41 802
f 82 508 152
f 370 587 316
f 445 803 116
f 369 540 367
f 745 618 746
f 577 117 68
f 617 701 130
f 76 804 174
f 76 131 804
f 204 368 129
f 478 8 663
f 264 550 777
f 518 196 176
f 387 545 332
f 196 42 126
f 370 197 649
f 283 566 18
f 518 42 196
f 397 589 499
f 252 276 40
f 516 125 393
f 64 354 562
f 112 490 456
f 80 186 239
f 656 412 629
f 87 691 750
f 795 515 514
f 563 564 144
f 708 574 399
f 1 56 58
f 483 223 8
f 737 569 735
f 583 450 442
f 543 348 542
f 584 583 442
f 83 118 347
f 289 583 584
f 531 541 517
f 661 35 36
f 56 3 271
f 345 551 805
f 77 289 635
f 450 583 274
f 806 428 688
f 77 274 583
f 648 377 144
f 807 565 431
f 463 278 106
f 53 84 114
f 280 808 275
f 223 483 809
f 654 647 655
f 345 805 713
f 580 644 430
f 322 323 342
f 378 586 353
f 586 261 353
f 575 265 51
f 442 363 466
f 164 755 742
f 169 667 569
f 586 351 349
f 496 397 499
f 505 235 626
f 677 235 778
f 235 505 778
f 327 436 810
f 134 601 234
f 299 322 255
f 111 515 100
f 110 100 458
f 811 23 812
f 394 786 338
f 111 100 110
f 91 298 653
f 377 85 379
f 104 811 103
f 381 538 553
f 553 190 381
f 195 301 302
f 478 813 814
f 689 631 420
f 395 644 580
f 33 240 361
f 775 87 750
f 431 633 815
f 724 317 531
f 42 816 784
f 817 317 794
f 144 143 563
f 222 143 144
f 537 522 60
f 531 315 723
f 318 317 817
f 303 220 266
f 813 478 366
f 554 132 16
f 58 392 1
f 455 151 425
f 590 757 818
f 572 168 819
f 431 565 276
f 597 664 500
f 572 819 639
f 312 164 31
f 312 223 384
f 353 476 222
f 353 261 476
f 379 585 93
f 93 351 378
f 134 297 601
f 601 297 153
f 820 348 28
f 821 593 793
f 523 443 628
f 92 177 197
f 390 451 393
f 504 545 133
f 734 822 314
f 6 541 168
f 272 268 489
f 533 250 471
f 394 538 592
f 197 176 196
f 823 613 574
f 415 137 170
f 370 649 587
f 607 636 250
f 648 144 564
f 87 497 691
f 813 366 722
f 717 20 347
f 635 770 765
f 561 702 175
f 22 14 81
f 89 108 321
f 642 89 321
f 360 329 824
f 452 441 151
f 24 425 151
f 465 608 825
f 304 213 634
f 826 304 542
f 151 346 24
f 345 303 479
f 624 565 807
f 664 530 500
f 543 455 348
f 414 347 118
f 530 458 500
f 299 13 793
f 492 511 179
f 827 634 828
f 779 406 424
f 523 323 398
f 300 120 567
f 612 696 507
f 455 425 28
f 395 581 656
f 170 137 558
f 307 27 10
f 124 449 589
f 302 266 308
f 797 829 746
f 642 525 29
f 64 459 354
f 712 642 321
f 642 714 785
f 642 785 525
f 59 598 692
f 692 598 800
f 817 794 669
f 328 603 666
f 587 126 467
f 467 457 284
f 222 277 353
f 66 522 524
f 554 404 132
f 653 240 91
f 530 486 461
f 443 566 628
f 78 628 283
f 628 566 283
f 571 537 637
f 295 137 571
f 580 581 395
f 550 463 333
f 287 119 18
f 169 366 478
f 444 373 543
f 236 610 237
f 575 535 265
f 304 826 213
f 610 788 98
f 295 259 105
f 374 594 293
f 90 651 152
f 557 201 830
f 819 168 831
f 652 515 436
f 451 390 187
f 583 289 77
f 179 832 82
f 133 655 609
f 179 792 832
f 354 88 408
f 650 290 199
f 571 415 246
f 562 354 408
f 566 556 287
f 542 748 826
f 204 326 464
f 596 285 244
f 412 234 601
f 405 597 500
f 650 316 284
f 133 490 654
f 655 133 654
f 281 501 303
f 139 141 66
f 416 524 522
f 662 308 310
f 284 457 337
f 650 284 337
f 198 413 398
f 388 155 279
f 237 610 612
f 610 236 788
f 361 241 33
f 809 483 814
f 101 335 706
f 706 335 790
f 216 165 512
f 833 727 645
f 472 741 834
f 521 199 183
f 650 199 521
f 589 397 225
f 823 574 707
f 225 570 589
f 238 350 31
f 668 285 99
f 272 489 380
f 309 21 399
f 21 716 700
f 275 246 280
f 170 835 725
f 149 660 528
f 264 291 564
f 149 528 31
f 458 100 298
f 643 403 833
f 113 68 430
f 294 129 178
f 647 579 646
f 258 180 475
f 180 617 475
f 656 294 178
f 818 131 590
f 836 631 758
f 38 759 837
f 719 391 787
f 328 838 782
f 129 182 204
f 225 109 260
f 657 209 109
f 392 563 143
f 463 550 264
f 647 654 579
f 436 796 810
f 260 109 209
f 611 590 286
f 452 543 373
f 567 217 300
f 366 161 722
f 839 116 803
f 371 475 130
f 665 38 498
f 490 387 265
f 222 144 377
f 614 293 594
f 307 840 687
f 183 516 521
f 261 340 476
f 652 240 653
f 791 511 510
f 222 377 277
f 366 169 569
f 105 558 137
f 638 632 703
f 607 177 92
f 352 534 614
f 301 578 494
f 345 479 551
f 302 301 495
f 195 572 578
f 578 301 195
f 375 107 781
f 404 182 129
f 230 602 156
f 248 458 530
f 346 616 623
f 370 92 197
f 747 542 348
f 786 394 576
f 113 118 68
f 452 373 441
f 209 599 310
f 503 364 341
f 760 424 362
f 178 129 368
f 478 814 483
f 341 234 256
f 512 781 216
f 241 112 88
f 253 246 275
f 841 161 736
f 586 349 258
f 162 161 841
f 261 586 258
f 547 730 417
f 842 573 751
f 524 253 360
f 94 393 451
f 265 456 490
f 710 388 145
f 287 125 184
f 568 843 844
f 405 90 152
f 827 567 634
f 799 567 827
f 290 650 337
f 828 634 726
f 42 608 126
f 652 436 327
f 360 824 768
f 466 674 753
f 255 322 342
f 263 254 439
f 543 542 304
f 550 845 777
f 536 626 640
f 272 453 268
f 225 32 588
f 8 478 483
f 153 297 485
f 602 293 156
f 341 256 581
f 423 16 251
f 250 636 471
f 240 652 361
f 720 289 846
f 846 584 473
f 837 445 38
f 546 511 492
f 539 757 590
f 604 539 613
f 576 592 356
f 348 455 28
f 253 416 246
f 539 668 613
f 539 590 611
f 241 88 33
f 640 235 678
f 219 756 754
f 219 754 559
f 249 847 848
f 613 823 325
f 420 385 418
f 485 297 849
f 612 98 696
f 645 643 833
f 211 212 439
f 126 649 196
f 676 372 798
f 252 330 771
f 225 588 109
f 808 462 850
f 287 556 125
f 49 472 834
f 258 219 559
f 261 559 340
f 278 463 563
f 559 261 258
f 467 465 468
f 465 227 468
f 329 360 253
f 825 608 772
f 608 42 784
f 831 168 318
f 313 342 78
f 638 703 616
f 361 327 579
f 327 646 579
f 163 646 851
f 132 629 16
f 304 444 543
f 634 444 304
f 327 361 652
f 852 167 853
f 399 21 700
f 266 245 308
f 264 564 463
f 567 120 444
f 346 623 480
f 527 854 709
f 769 141 767
f 55 143 476
f 698 104 215
f 809 384 223
f 230 156 221
f 303 495 479
f 320 532 122
f 320 122 638
f 251 412 601
f 846 289 584
f 418 718 855
f 516 393 94
f 513 532 598
f 303 345 281
f 501 220 303
f 129 294 404
f 207 527 591
f 305 648 291
f 307 358 840
f 138 489 268
f 12 740 453
f 234 412 256
f 486 530 664
f 376 625 472
f 221 156 158
f 217 567 799
f 223 369 8
f 134 381 190
f 843 82 832
f 534 158 614
f 158 293 614
f 190 297 134
f 180 625 561
f 426 425 856
f 856 425 24
f 853 167 761
f 210 203 121
f 484 519 17
f 290 254 263
f 197 196 649
f 607 92 451
f 37 22 279
f 661 36 667
f 558 136 557
f 660 517 226
f 502 226 311
f 717 734 20
f 593 821 802
f 41 593 802
f 341 69 503
f 41 555 593
f 783 358 328
f 328 358 247
f 328 666 838
f 767 141 139
f 300 217 167
f 710 145 527
f 225 260 570
f 747 348 820
f 222 476 143
f 505 626 291
f 422 437 506
f 327 851 646
f 528 502 599
f 327 810 851
f 437 422 7
f 531 318 541
f 260 209 308
f 418 855 689
f 511 374 683
f 808 280 462
f 208 471 205
f 580 430 69
f 568 844 759
f 464 854 527
f 203 279 22
f 481 262 595
f 660 149 509
f 857 841 736
f 360 768 139
f 170 721 835
f 267 391 150
f 303 266 495
f 513 598 59
f 800 167 852
f 4 5 858
f 831 318 817
f 122 532 513
f 122 513 621
f 177 641 176
f 556 443 188
f 523 398 443
f 153 73 423
f 121 22 160
f 507 509 612
f 665 664 597
f 284 587 467
f 445 837 803
f 302 662 195
f 508 665 597
f 599 502 310
f 816 249 848
f 422 732 249
f 445 115 498
f 465 825 859
f 816 42 249
f 518 176 421
f 422 249 518
f 277 377 379
f 249 732 847
f 860 758 739
f 164 743 728
f 450 440 622
f 312 384 755
f 95 596 493
f 336 239 273
f 159 305 536
f 618 46 797
f 259 159 536
f 486 664 665
f 618 745 47
f 618 47 46
f 840 358 783
f 861 676 798
f 234 341 364
f 160 224 54
f 165 224 160
f 555 324 322
f 184 516 183
f 845 550 549
f 648 564 291
f 524 360 139
f 615 493 244
f 246 416 571
f 849 297 189
f 531 317 318
f 455 543 452
f 628 342 523
f 541 318 168
f 168 572 6
f 524 416 253
f 584 474 473
f 586 378 351
f 791 179 511
f 859 227 465
f 862 227 859
f 197 177 176
f 704 227 862
f 436 515 795
f 241 361 579
f 231 538 679
f 310 311 662
f 568 82 843
f 708 399 699
f 410 94 92
f 534 352 40
f 208 389 447
f 244 123 615
f 104 23 811
