v -0.127036 0.079555 -0.186389
v 0.000182 0.188617 0.069974
v 0.00021 0.148146 0.079508
v 0.0371306 0.334198 0.0546207
v 0.000148 0.327937 0.054958
v -0.187956 -0.0830103 0.0838192
v -0.0370095 0.0967674 -0.18014
v -0.238026 -0.39403 -0.008723
v 0.242305 -0.269511 -0.0243441
v -0.249088 0.187397 -0.048531
v 0.139259 0.312625 -0.168437
v -0.245718 0.202986 -0.00359242
v 0.178452 0.366707 0.035551
v 0.17235 0.383154 -0.00357001
v 0.237648 -0.358369 -0.0617473
v 0.23836 -0.324256 -0.0609477
v 0.136789 0.15048 0.0852071
v 0.0283302 0.0202513 0.130779
v -0.0372233 -0.146512 0.159922
v 0.176526 -0.105081 0.0951429
v 0.0289419 0.00227681 -0.173875
v -0.236772 -0.103861 0.0312312
v -0.0427939 0.139646 0.0912008
v -0.172619 -0.114437 0.0975875
v -0.184944 -0.0458842 0.0868478
v 0.0338231 -0.111921 -0.168963
v 0.233205 0.235745 0.037469
v 0.236432 0.235796 0.03423
v 0.144549 0.0447181 -0.180322
v 0.165578 0.38891 -0.042663
v 0.133449 0.395712 -0.042307
v 0.192499 0.277499 0.0557687
v 0.190726 0.269949 -0.151599
v 0.210148 0.238474 -0.138647
v 0.240892 0.195151 -0.0958149
v 0.22605 0.196995 -0.133344
v 0.234343 0.238401 -0.115482
v -0.130569 -0.341322 -0.158318
v -0.178294 0.366722 0.035544
v -0.148152 0.369919 0.035515
v -0.248399 0.087514 -0.051131
v -0.118288 -0.390515 -0.063184
v 0.0352364 0.085885 -0.179487
v 0.200679 0.0582415 0.0604429
v 0.193259 -0.28788 0.0998129
v 0.000185 0.375931 -0.138031
v -3.4e-05 -0.0157354 -0.152238
v 0.000169 0.363592 -0.144307
v 0.201695 -0.119315 0.0675704
v 0.244756 0.0974394 -0.00906151
v 0.248386 0.087491 -0.05112
v -0.183059 -0.270774 -0.158871
v 0.21503 -0.278896 0.0682558
v -0.13304 0.313488 -0.166208
v 0.000331 -0.386759 -0.10553
v 0.000414 -0.38857 -0.063811
v 0.03706 0.401062 -0.0417515
v 0.000193 0.402138 -0.067565
v 0.000133 0.40156 -0.041601
v -0.224341 0.235667 0.041824
v -0.206205 0.235527 0.043991
v 0.0936265 0.382015 -0.129813
v 0.0708056 0.341173 -0.160367
v 0.244312 0.279239 -0.0047039
v -0.184509 -0.401367 0.029143
v -0.159288 -0.402124 0.029277
v -0.177803 -0.396446 0.073785
v 0.243602 -0.096039 -0.0555393
v -0.183405 0.355501 -0.130341
v -0.200249 0.338999 -0.130658
v -0.226149 -0.056203 -0.138174
v 0.242767 -0.0759742 -0.0122611
v -0.235834 -0.0312312 -0.0956392
v 0.000456 -0.395663 0.09354
v -0.073735 0.400571 -0.041905
v -0.0436787 0.402689 -0.0882588
v 0.240521 -0.366142 -0.00781443
v 0.031558 -0.0756965 -0.172952
v -0.103221 -0.26294 -0.170466
v 0.159041 0.16902 -0.168918
v -0.189553 0.26882 -0.150634
v -0.22084 0.290672 -0.13158
v 0.172435 0.135873 0.073212
v 0.222389 -0.288104 -0.143187
v 0.099027 -0.184358 -0.160085
v 0.225852 0.243533 0.0389121
v 0.240293 0.314653 -0.045131
v 0.246972 0.280048 -0.04609
v -0.137425 -0.294493 -0.168265
v -0.17934 0.384137 -0.042882
v -0.165401 0.388927 -0.042671
v -0.158993 -0.0268087 0.115722
v -0.243404 0.050379 -0.0085889
v 0.0695899 0.0535596 -0.187288
v 0.0330473 -0.314718 0.163993
v -0.213109 -0.357573 0.0593378
v -0.163998 -0.251659 0.119373
v -0.178531 0.0441098 0.0850831
v 0.0359234 -0.011891 0.139478
v -0.0405666 -0.126327 -0.169342
v 0.0707912 -0.0939912 -0.180112
v 0.20494 -0.320478 0.0805133
v 0.106441 0.123207 -0.187292
v -0.244528 0.124234 -0.00789572
v -0.22078 -0.186288 -0.146234
v -0.0889016 -0.38852 -0.103741
v -0.0787207 -0.389867 -0.063393
v -0.110989 -0.332394 0.150496
v -0.200996 0.0854076 0.0587685
v -0.127333 -0.0118109 0.135882
v 0.183259 -0.388929 -0.145932
v -0.200693 0.360093 0.035528
v 0.103888 0.12949 0.0963509
v -0.166145 -0.157001 0.0947019
v -0.118849 0.163718 -0.179095
v -0.236251 -0.155434 -0.095904
v -0.0801126 -0.397263 0.0655005
v -0.246701 0.236292 0.004603
v -0.180126 -0.39622 -0.0247766
v -0.24282 0.236013 0.021356
v 0.144356 -0.267122 -0.16909
v -0.236477 0.193357 0.0338464
v 0.249083 0.187374 -0.04852
v 0.244889 0.167753 -0.00718577
v 0.248735 0.137433 -0.04982
v -0.117683 -0.396572 -0.0160884
v -0.151697 -0.398673 -0.00469039
v -0.157855 -0.391164 -0.062975
v -0.212643 0.317593 -0.131067
v 0.176345 0.235338 0.041233
v -0.0586749 -0.108008 0.158521
v 0.158742 0.207601 0.0612595
v 0.226128 -0.056223 -0.138164
v 0.226531 -0.012803 -0.137317
v -0.130155 -0.261118 0.148717
v -0.0546771 -0.281814 0.165097
v 0.196276 0.0235777 0.0685213
v -0.0353986 -0.361233 0.158643
v 0.0312089 0.0427153 -0.175946
v -1.78e-05 0.0681154 -0.152746
v 0.103343 -0.259283 0.159076
v 0.133858 -0.243203 0.139247
v 0.155192 0.108942 -0.172888
v 0.242499 -0.188547 -0.002953
v 0.240745 -0.188702 0.015535
v 0.238534 -0.234888 0.030139
v 0.134149 0.18245 0.072183
v -0.210143 0.238493 -0.138656
v 0.186265 -0.116632 -0.161714
v 0.0368503 -0.385744 -0.146985
v -0.040121 0.175794 0.0791321
v -0.166753 -0.218384 0.101792
v -0.234085 -0.251868 -0.101548
v 0.197856 0.321468 0.0469347
v -0.0783821 0.275165 -0.169735
v 0.232593 -0.39173 0.028993
v 0.230629 -0.186782 -0.125369
v 0.229927 -0.395109 0.028972
v -0.151733 0.273412 -0.161631
v -0.178032 0.307409 -0.152467
v -0.033108 0.385351 -0.129737
v -0.053559 0.352172 -0.154654
v -0.066415 0.384724 -0.129759
v 0.236585 0.0659576 0.0327356
v 0.236547 0.108417 0.0331092
v 0.195112 0.10021 0.0621252
v 0.089005 0.23482 0.030638
v 0.11635 0.235031 0.030722
v 0.0518984 -0.35578 0.158331
v -0.0698011 -0.000272625 -0.188583
v 0.1485 -0.126105 0.118294
v 0.234606 -0.0312848 -0.0953754
v 0.193692 -0.396131 -0.0149905
v 0.147765 -0.396809 -0.0173948
v -0.146959 -0.254836 -0.169402
v -0.127219 -0.220135 -0.169847
v 0.108513 0.0219587 -0.191245
v 0.0704004 -0.132505 -0.173247
v 0.139111 -0.351639 0.124968
v -0.0772673 0.0900318 0.110965
v 0.000143333 -0.317778 -0.148573
v -0.249432 0.237338 -0.047231
v -0.248962 0.236713 -0.018491
v -0.242439 -0.1419 -0.0566552
v 0.224918 -0.186483 -0.140706
v 0.220746 -0.186308 -0.146225
v -0.111194 -0.366825 0.139248
v 0.0721719 -0.029359 0.145283
v 0.109532 -0.0151954 0.140847
v -0.237508 -0.393245 -0.03564
v 0.0918014 0.168274 0.0800007
v -0.241236 0.117919 -0.083554
v 0.114533 -0.348192 -0.15612
v 0.063629 0.30257 0.0619407
v 0.000248 -0.384948 -0.147248
v 0.148883 -0.341781 -0.15698
v -1.36667e-05 -0.217022 -0.15056
v 3.86667e-05 -0.250608 -0.149897
v -0.226948 0.030637 -0.13648
v 0.242136 -0.156452 -0.01035
v 0.0996946 0.167722 -0.179647
v 0.156695 0.320701 0.0571269
v -0.182232 -0.394014 -0.105626
v -0.0390418 -0.319163 0.163799
v -0.226723 0.0722314 -0.135698
v -0.235623 0.0879718 -0.101079
v -0.226499 0.113826 -0.134917
v -0.236519 0.150897 0.0334728
v 0.107255 0.0590956 -0.189998
v -0.0825267 0.0863563 -0.189331
v 0.0804896 0.0920444 -0.187863
v -0.092116 -0.0735125 0.15074
v -0.155309 -0.085237 -0.175597
v 0.080137 -0.18875 0.145878
v -0.116353 0.235041 0.030717
v -0.105115 0.269596 0.0574883
v -0.146351 0.235197 0.0359715
v -0.0731387 -0.386534 -0.146725
v 0.230336 0.32105 0.035198
v -0.236561 0.108438 0.0330992
v 0.148314 -0.162303 0.109108
v 0.190261 -0.155097 -0.159812
v 0.0364789 -0.047873 0.148375
v 0.0433933 -0.316853 -0.160151
v 0.0565167 -0.229121 0.163208
v 0.23647 0.193336 0.0338564
v -0.0911711 0.400629 -0.0904057
v -0.193643 -0.251134 0.0906563
v 0.211241 -0.154112 0.05729
v 0.103347 -0.285176 -0.170228
v -0.240301 0.270959 -0.0942918
v -0.075766 -0.394352 -0.0183666
v -0.0908583 0.129028 0.0962532
v 0.10455 -0.390294 -0.0976503
v 0.158164 -0.226159 0.113384
v -0.237699 -0.358348 -0.0617577
v -0.23217 -0.391316 -0.09853
v -0.23699 -0.392461 -0.062557
v 0.242817 0.235992 0.021366
v -0.226549 -0.012783 -0.137327
v -0.219912 -0.389706 -0.145679
v -0.118915 0.122054 -0.183208
v 0.147714 -0.0851614 0.125999
v 0.176434 -0.0656097 0.0976884
v 0.161787 0.237883 -0.145056
v 0.0355227 -0.35266 -0.153456
v 0.224741 -0.188803 0.04442
v 0.048552 0.286313 -0.168024
v 0.114887 0.210771 0.0584108
v 0.103637 -0.0232049 -0.19168
v -0.229041 0.342008 -0.044335
v -0.177824 -0.311449 -0.157618
v 0.0364724 0.0524833 0.120492
v 0.000265667 0.074778 0.103876
v 0.000293333 0.038734 0.116685
v -0.209345 0.355137 0.035499
v 9.1e-05 -0.284193 -0.149235
v -0.210238 -0.393309 -0.00855837
v -0.149795 0.00483766 -0.177285
v -0.0440998 -0.395517 0.098119
v 0.146349 0.00132299 -0.179733
v 0.240384 0.149311 -0.0919196
v 0.030945 -0.188673 0.156647
v 0.057536 -0.188712 0.152317
v 0.0409766 0.0900676 0.107993
v 0.000238 0.110822 0.091066
v 0.216577 0.348879 0.035462
v -0.153413 -0.0402348 -0.175996
v -0.188782 -0.0132621 -0.15509
v -0.20776 0.00873146 0.0579385
v -0.210796 0.0462692 0.0532929
v -0.236271 -0.116763 -0.0974675
v -0.0779343 -0.049248 -0.187227
v 0.0791353 0.338318 0.0505729
v -0.218095 -0.177667 -0.145837
v -0.22535 -0.143043 -0.139868
v -0.206185 -0.185913 -0.154415
v 0.226713 0.0722114 -0.135689
v 0.236935 -0.392482 -0.062547
v 0.197515 -0.39183 -0.0627577
v 0.2367 -0.0614216 0.0316152
v -0.043443 0.210863 0.0686563
v -0.03171 0.233855 0.05801
v -5e-05 -0.0995862 -0.15173
v -0.0391533 -0.389218 -0.063602
v -0.156308 -0.125448 -0.17384
v -0.0399028 0.101269 0.103666
v 0.224338 0.235648 0.041833
v -0.182296 -0.188525 0.062008
v -0.200394 -0.15264 0.065113
v 0.182307 -0.0149944 -0.15848
v 0.172701 0.0734637 -0.16316
v -0.243033 -0.225467 -0.0196423
v -0.156134 0.389195 -0.00205338
v 0.221546 -0.321978 -0.144014
v 0.220704 -0.355851 -0.144842
v -0.230296 0.321071 0.035188
v -0.222268 0.341236 0.035386
v -0.199069 0.325612 0.0448922
v 0.102819 -0.152718 -0.172016
v 0.242952 -0.0314285 -0.0115672
v 0.220871 0.290651 -0.13157
v 0.0427344 0.186807 -0.171278
v -0.143362 0.199883 -0.167891
v -0.2107 -0.073044 0.0571972
v -0.221647 0.353215 -0.043984
v -0.150329 0.342043 -0.14779
v -0.0408053 -0.323915 -0.159066
v 0.206201 0.235509 0.044
v 0.066561 0.2345 0.036806
v 0.111825 0.308477 0.0618345
v 0.161508 0.0761903 0.0943961
v -0.163675 -0.285999 0.129711
v -0.0422878 0.310196 -0.167807
v -0.232957 -0.347783 -0.0966176
v 0.223463 0.274932 -0.13187
v -0.22598 0.349365 -0.00342102
v -0.192876 0.0920701 -0.151581
v -0.197423 -0.391812 -0.062766
v 0.237969 -0.394051 -0.008713
v 0.203432 0.142822 0.0545484
v 0.000454333 -0.279007 0.160369
v -0.0459513 -0.236294 0.1642
v 0.249432 0.237316 -0.04722
v 0.248961 0.236691 -0.01848
v 0.0818406 0.391364 0.00135372
v -0.122329 -0.150151 -0.172461
v 0.103718 0.398138 -0.0421045
v -0.0805869 -0.0969627 -0.180639
v 0.238157 0.0582085 -0.0935548
v 0.118675 -0.390526 -0.063179
v 0.158095 -0.391178 -0.0629683
v 8.7e-05 0.390981 0.003378
v 0.000101 0.380911 0.023038
v -0.23434 0.238422 -0.115493
v -0.243631 -0.0960173 -0.0555503
v -0.14148 -0.188576 0.095313
v 0.174972 0.0418762 0.0882414
v -0.238579 -0.234867 0.030128
v -0.0824139 -0.143195 -0.172089
v -0.099117 -0.184349 -0.160089
v 0.22537 -0.397453 0.028968
v -0.235464 0.309093 -0.0905619
v 0.110279 0.0269428 0.130184
v 0.0948295 -0.25055 -0.171129
v 0.073987 0.400563 -0.041902
v 0.141437 -0.188588 0.095319
v 0.141577 0.204684 -0.163645
v 0.212298 -0.358418 0.0617595
v -0.089 0.234828 0.030635
v -0.0814889 0.207194 0.0638099
v 0.088047 0.208414 -0.169532
v 0.224726 -0.395385 0.038816
v -0.239828 -0.256009 -0.0593593
v 0.14529 -0.0429059 0.128056
v -0.0465858 -0.389462 -0.110807
v 0.195687 -0.0118647 0.0722511
v -0.236677 -0.378968 0.029068
v 0.24146 0.279873 -0.0903039
v -0.242812 -0.260593 -0.00712294
v 0.242747 -0.231452 -0.0155765
v 0.241855 -0.188175 -0.030351
v -0.233209 0.235766 0.037459
v -0.236435 0.235817 0.03422
v -0.213849 -0.39571 0.050213
v 0.235725 0.0135779 -0.0944093
v 0.076467 0.234665 0.033092
v 9.1e-05 0.397663 -0.018063
v 0.0398713 0.394247 -0.00217295
v -0.0812401 0.168206 0.0802825
v 0.182619 0.0327359 -0.158054
v 0.0495273 0.370132 0.035383
v -0.222431 -0.288084 -0.143197
v -0.0526752 0.191564 -0.169869
v 0.17009 0.169876 0.0682838
v -0.049304 0.370137 0.035381
v -0.098728 0.370028 0.035448
v -0.248743 0.137455 -0.049831
v 0.24121 -0.187804 -0.057749
v 0.242406 -0.141922 -0.0566442
v 0.222338 0.341215 0.035396
v -0.0441609 -0.0810187 -0.177128
v -0.014925 0.233751 0.062363
v -0.0483065 -0.396017 0.029953
v -0.097124 -0.399477 0.02966
v -0.128206 -0.4008 0.0294685
v -0.117408 -0.0666628 -0.187761
v -0.235471 -0.187028 -0.105066
v 0.0983592 -0.21972 0.151897
v 0.204465 -0.0464052 0.0644175
v 0.150621 0.114445 0.0898282
v -0.139055 -0.30938 0.139816
v -0.136666 -0.163506 0.120883
v 0.19168 0.18792 -0.153263
v 0.10883 -0.114477 -0.180901
v 0.226271 0.1554 -0.134126
v 0.20571 -0.0830952 0.063504
v 0.236738 -0.103881 0.0312418
v 0.242047 -0.11803 -0.0128842
v -0.076438 0.234671 0.033088
v -0.236687 -0.0189416 0.0319784
v -0.188892 -0.148809 -0.160349
v -0.145633 -0.352243 0.118561
v -0.066497 0.234506 0.036804
v -0.23587 -0.0745845 -0.0965623
v 0.099196 -0.398345 0.146321
v 0.115499 -0.398152 0.139832
v 0.146347 0.235185 0.0359775
v 0.213902 0.356786 6.83911e-05
v 0.145134 -0.397293 0.0599864
v 0.159533 -0.402138 0.029284
v -0.229986 -0.395089 0.028962
v -0.120403 0.202526 0.0650235
v -0.188702 -0.0656281 -0.156909
v -0.161061 0.184567 0.0684882
v 0.0303651 0.337978 -0.157518
v -0.136185 -0.219966 0.130997
v -0.0868622 0.315413 -0.168504
v -0.103752 -0.292826 0.16003
v 0.0608186 -0.281323 -0.166721
v -0.241258 -0.348785 -0.0143132
v -0.0289431 0.00617678 -0.176072
v -0.056823 -0.188707 0.152315
v 0.127915 0.397844 -0.0914417
v 0.200816 0.360074 0.035537
v 0.225829 0.238589 -0.132563
v 0.0339467 -0.395794 0.103645
v -0.115473 -0.398142 0.139827
v -0.241247 -0.187783 -0.05776
v -0.240537 -0.221896 -0.0585597
v 0.247248 0.237811 -0.071206
v 0.24227 0.238135 -0.093197
v 0.239785 -0.25603 -0.0593483
v 0.239073 -0.290143 -0.060148
v 0.0766421 0.0573678 0.121694
v 0.225724 -0.099643 -0.139012
v 0.0690192 0.0146562 0.134441
v 0.0840272 -0.0963693 0.154608
v -0.191733 0.136991 -0.15293
v 0.111588 0.342002 -0.157876
v -0.102115 0.0349722 -0.193509
v -0.210125 -0.0320013 0.0591877
v 0.0780744 -0.139242 0.155976
v 0.193989 0.216539 -0.151091
v 0.173353 -0.0271822 0.100678
v -6.6e-05 -0.183437 -0.151222
v -0.074473 0.39374 -0.000505271
v 0.015222 0.23375 0.062363
v -0.224951 -0.186463 -0.140715
v 0.213116 0.362905 -0.043656
v 0.203231 0.371227 -0.043368
v -0.105683 0.347984 -0.15303
v -0.120145 0.379325 -0.129876
v -0.0328174 0.140014 -0.173371
v -0.0769875 -0.316343 0.162868
v 0.107752 -0.398215 0.0835572
v -0.124888 0.339732 0.0494565
v 0.233673 -0.23577 -0.102462
v 0.231049 0.323322 -0.093284
v 0.223139 0.238591 -0.134716
v 0.235471 -0.124644 -0.0988147
v -0.121121 -0.399078 0.0633934
v -0.241893 -0.188154 -0.030362
v -0.135889 0.302577 0.0630595
v 0.110226 -0.0624743 0.147755
v -0.236814 -0.14632 0.0308576
v -0.203112 0.371243 -0.043377
v 0.13936 0.141348 -0.178757
v -0.0370044 0.269501 -0.165313
v 0.209722 0.359868 -0.087963
v 0.0477888 -0.241744 -0.164635
v -0.0176129 0.170361 -0.171415
v 0.0734527 -0.386541 -0.146722
v 0.0587641 -0.0203098 -0.185542
v 0.0414683 -0.0951275 0.157329
v 0.101665 -0.34465 0.149903
v -0.223445 0.274952 -0.13188
v 0.179499 0.384124 -0.042874
v 0.0695647 -0.273477 0.16476
v 0.0994004 -0.299584 0.161537
v -0.162843 -0.067912 0.112884
v -0.243686 0.00860019 -0.0100284
v -0.247207 0.0416312 -0.0522358
v -0.246015 -0.00425167 -0.0533407
v -0.223135 0.238611 -0.134726
v -0.225825 0.238609 -0.132572
v 0.000146 0.299714 0.059136
v 0.245319 0.204582 -0.000672717
v 0.209451 0.355119 0.035508
v -0.0980371 0.198373 -0.171125
v 0.0377884 0.208716 0.070298
v -0.224111 -0.220337 -0.141542
v -0.223271 -0.25421 -0.14237
v -0.179547 -0.355296 0.0889146
v -0.134347 -0.391249 -0.10423
v -0.128863 -0.18473 -0.160774
v -0.158608 -0.185111 -0.161458
v 0.162089 0.367696 -0.130097
v -1.4e-06 0.151966 -0.153253
v -9.6e-06 0.110041 -0.153
v -0.146511 0.133327 0.0885261
v 0.238807 0.103299 -0.0922218
v -0.240374 -0.308378 0.0295725
v -0.215245 -0.283327 0.0676155
v -0.141648 -0.129383 0.125015
v 0.178802 -0.214828 0.0866852
v -0.119087 -0.110735 -0.181375
v 0.178576 -0.39188 -0.101892
v 0.171954 0.00943516 0.0967585
v 0.10053 0.287776 -0.17198
v 0.224075 -0.220357 -0.141533
v 0.206146 -0.185931 -0.154406
v 0.0891628 0.400355 -0.0817226
v 0.138784 -0.391675 -0.10301
v -0.242963 -0.0352015 -0.0109686
v 0.234586 0.293487 0.0349
v -0.188141 0.190308 -0.154406
v -0.243001 -0.0809841 -0.0115904
v -0.105625 0.0201509 0.133104
v -0.242563 -0.132333 -0.0127227
v -0.193568 -0.218027 0.0781277
v -0.0745545 -0.352432 0.155974
v -0.133237 0.395724 -0.042313
v 0.032589 -0.258342 0.163264
v 0.0417286 -0.287399 0.164857
v -0.221591 -0.321958 -0.144024
v 0.0995778 0.273082 0.0612417
v 0.234942 -0.0768243 -0.0967939
v -0.220752 -0.355832 -0.144852
v -0.162383 -0.188493 0.074602
v 0.138371 -0.300292 0.146759
v -0.202479 0.187188 0.0541582
v -0.184831 -0.185515 -0.159289
v 0.000441 -0.159944 0.157069
v 0.0490289 0.264144 0.0662669
v -0.181962 -0.225927 -0.161942
v -0.146525 -0.38812 -0.146202
v -0.183219 -0.388913 -0.145941
v 0.070309 -0.395323 0.113617
v -0.123064 -0.188754 0.120675
v -0.103674 -0.188773 0.135177
v 0.103901 -0.188783 0.135182
v 0.201502 0.193297 0.0543719
v 0.000461 -0.188642 0.15819
v -0.191542 0.380843 -0.00836926
v -0.18899 -0.286614 0.100977
v -0.177929 -0.351539 -0.154004
v -0.216936 -0.214962 0.0536524
v -0.239592 0.19805 -0.0964764
v 0.194526 0.106538 -0.151459
v 0.0497186 0.134265 -0.179072
v 0.177742 -0.396462 0.073793
v 0.213789 -0.395729 0.050222
v -0.145068 0.0449763 -0.178431
v -0.173678 -0.321074 0.112848
v -0.204482 -0.32069 0.0786091
v -0.185369 0.0405229 -0.155557
v -0.159744 -0.396853 0.088452
v 0.23173 -0.188826 0.038654
v -0.079627 -0.188743 0.145874
v 0.225321 -0.143063 -0.139859
v 0.235436 -0.187049 -0.105056
v 0.236815 -0.188801 0.030495
v 0.066791 0.384718 -0.129756
v 0.0686041 -0.0655663 0.152845
v -0.235503 0.264663 0.034555
v -0.234571 0.293508 0.03489
v -0.233292 -0.306058 -0.103311
v 0.0432566 0.173367 0.0808434
v -0.242267 0.238156 -0.093207
v 0.0682806 -0.316101 0.1634
v -0.247247 0.237833 -0.071217
v -0.0807995 -0.349717 -0.154813
v 0.0377801 -0.143204 -0.165024
v -0.0939622 -0.222866 0.153287
v -0.117651 0.391601 0.00122423
v -0.244382 0.291365 -0.00317318
v 0.040338 -0.398692 0.155554
v -0.236856 -0.18878 0.030484
v -0.240785 -0.18868 0.015524
v 0.146647 -0.0952508 -0.179166
v 6.8e-06 0.193892 -0.153507
v 0.229104 0.341987 -0.044324
v 0.244118 0.0165934 -0.00937633
v 0.0821009 -0.215774 -0.167776
v 0.0494805 -0.183897 -0.155654
v -0.176349 0.235354 0.041226
v 0.141198 -0.397399 0.109385
v 0.159682 -0.396867 0.088459
v 0.235414 -0.394587 0.010129
v -0.232652 -0.39171 0.028982
v 0.236619 -0.378989 0.029078
v 0.0754465 0.205589 0.0656935
v 0.245994 -0.00427399 -0.0533297
v 8.7e-05 0.300187 -0.154454
v 0.00013 0.333799 -0.151826
v 5.1e-05 0.268002 -0.154107
v -0.238409 -0.324235 -0.0609583
v -0.235472 -0.394566 0.010119
v -0.0451413 -0.0656136 0.152865
v 0.0355234 -0.14283 0.159517
v 0.232116 -0.391337 -0.09852
v -0.071245 -0.398544 0.152244
v -0.099015 -0.398336 0.146317
v 0.221729 0.353197 -0.043974
v -0.136007 -0.0904746 0.135123
v 0.174019 -0.357175 0.0941851
v 0.148857 0.343764 -0.148764
v 0.226492 0.113806 -0.134907
v 0.000457667 -0.233825 0.159279
v -0.030082 -0.18867 0.156646
v -0.159102 0.111648 -0.170952
v 0.235131 0.319705 -0.00434451
v -0.162707 0.0738955 -0.168683
v -0.0349836 -0.393212 -0.00808107
v 0.000462 -0.390564 -0.016783
v 0.236777 -0.146341 0.0308684
v 0.0617568 -0.397175 0.0700549
v 0.000153 0.233736 0.063302
v 0.240322 -0.308399 0.029583
v 0.240391 -0.335823 0.029383
v -0.0511392 -0.272585 -0.164227
v -0.0899484 -0.307188 -0.165231
v 0.000199 0.385978 -0.129715
v 0.0004835 -0.394111 0.061893
v 0.229839 -0.339897 -0.102199
v -0.161775 0.237898 -0.145063
v 0.00012 0.370246 0.035314
v 0.189839 -0.250877 0.0934859
v 0.129498 -0.221644 -0.169419
v -0.0827966 -0.0252071 0.144359
v -0.139401 0.0566588 0.115965
v 0.122456 0.237364 -0.147773
v -0.0787166 -0.150377 0.15668
v 0.0846202 0.247513 0.0530205
v -0.112842 -0.14941 0.140077
v -0.21835 -0.248409 0.0592079
v -0.0187378 -0.0570138 -0.172666
v -0.235617 0.0116758 -0.0948207
v -0.177828 0.379912 -0.0906915
v -0.237015 0.0523434 -0.0947063
v -0.115617 0.281111 -0.170478
v 0.126668 -0.397929 0.131335
v 0.124587 0.389879 0.00141654
v -0.103879 -0.114541 0.149891
v -0.236645 0.023518 0.032352
v -0.0376001 -0.229858 -0.159251
v 0.0792547 -0.389874 -0.0633897
v 0.0395138 -0.392738 -0.0169774
v -0.0377588 0.325866 0.0583153
v 0.049098 -0.396022 0.029955
v -0.126726 -0.397918 0.13133
v 0.000212 0.394189 -0.114871
v -0.240302 -0.280954 0.029772
v -0.243202 -0.299951 -0.0184587
v -0.162583 0.332122 0.0521258
v -0.242832 0.0872734 -0.00056296
v -0.19238 0.287778 0.0537389
v 0.240253 -0.280975 0.029783
v 0.243142 -0.301303 -0.0180009
v -0.213016 0.362924 -0.043665
v 1.5e-05 0.235817 -0.153761
v -0.0790175 -0.22502 -0.166444
v 0.0240139 -0.21441 -0.158976
v 0.219861 -0.389725 -0.145669
v -0.128382 -0.0495863 0.139437
v 0.129076 -0.311472 -0.167399
v 0.143921 0.270726 0.060536
v -0.240926 0.155572 -0.0901724
v -0.112991 -0.0189824 -0.193108
v 0.223232 -0.25423 -0.14236
v 0.180853 -0.229138 -0.16195
v -0.239118 -0.290122 -0.060159
v -0.136956 0.395431 -0.0868572
v 0.0761271 -0.350095 -0.155836
v -0.0852191 0.321646 0.058236
v 0.0469713 0.402155 -0.0872049
v -0.120457 0.0949902 0.106167
v 0.242048 -0.333856 -0.0167846
v 0.165564 -0.27072 0.122381
v 0.110055 -0.387337 -0.146459
v 0.146657 -0.388133 -0.146196
v -0.0449277 0.0478732 -0.183123
v -2.6e-05 0.02619 -0.152492
v -0.0364453 -0.385741 -0.146987
v 0.24719 0.0416085 -0.0522248
v 0.000195667 -0.351363 -0.14791
v -0.103486 0.398147 -0.042109
v 0.179122 0.311453 -0.153179
v 0.033495 0.385348 -0.129735
v 0.240498 -0.221917 -0.0585487
v -0.122439 0.237375 -0.147778
v 0.0003445 -0.027913 0.137564
v 0.000321 0.00269 0.129495
v 0.200951 -0.0492679 -0.149327
v 0.242463 0.132407 0.000219227
v 0.236508 0.150877 0.0334828
v -0.156023 0.154983 -0.168949
v 0.182254 -0.188541 0.062017
v -0.0961582 -0.395893 0.103401
v 0.16234 -0.188507 0.07461
v 0.148148 0.0379212 0.115248
v 0.144468 -0.00134853 0.123771
v 0.212713 0.317573 -0.131057
v -0.215494 0.352275 -0.087589
v -0.0897925 0.056658 0.122999
v 0.226934 0.030617 -0.13647
v -0.157469 0.26607 0.0557579
v 0.0989347 0.370019 0.035452
v 0.236623 0.023498 0.032362
v 0.0001495 0.266725 0.061219
v -0.161854 0.367712 -0.130105
v 0.235509 0.264641 0.034565
v -0.149234 0.3724 -0.130013
v 0.213112 -0.230619 0.0632081
v 0.148342 0.369905 0.035521
v -0.0765908 0.142279 -0.182748
v 0.031967 0.233853 0.058012
v -0.120762 0.163772 0.0807538
v 0.0835928 0.0964826 0.109058
v 0.118106 -0.111123 0.144664
v -0.156563 -0.159484 -0.169175
v 0.158547 -0.185126 -0.161451
v 0.147323 -0.142589 -0.17331
v 0.128787 -0.184742 -0.160768
v -0.152272 0.0156982 0.11632
v 0.0398343 -0.389222 -0.0636003
v -0.181926 -0.00405904 0.0880405
v 0.0731363 -0.394525 -0.0148428
v 0.236661 -0.0189618 0.0319886
v -0.0495915 -0.183893 -0.155656
v 0.232563 -0.288444 -0.102063
v 0.184783 -0.185532 -0.159281
v 0.000511 -0.392558 0.030246
v -0.0355221 -0.0239484 0.143171
v 0.000368 -0.058516 0.145633
v -0.236729 -0.0614012 0.0316048
v 0.145779 -0.0453827 -0.180399
v 0.123046 -0.188764 0.120681
v -0.242538 -0.188525 -0.002964
v -0.230663 -0.186762 -0.125379
v -0.224783 -0.188783 0.04441
v -0.231771 -0.188805 0.038644
v 0.083124 0.236845 -0.15049
v 0.0415695 0.236331 -0.152125
v 0.230738 0.229936 0.0363465
v 0.175766 0.135547 -0.161876
v -0.21649 0.348899 0.035452
v 0.209736 -0.400629 0.029017
v 0.128609 -0.400812 0.029474
v 0.177117 -0.0733731 -0.16362
v 0.184635 -0.401383 0.0291505
v -0.208165 -0.112959 0.0609621
v -0.036801 0.401065 -0.041753
v -0.0329485 0.393293 0.00194199
v 0.170186 -0.317018 0.115233
v 0.000402 -0.10541 0.153331
v 0.000421 -0.131246 0.155947
v 0.149774 0.273478 -0.165241
v 0.120034 0.341641 0.0481215
v 0.13004 0.0848814 -0.185478
v 0.000215 0.39963 -0.093072
v 0.188155 -0.275005 -0.155649
v -0.20973 -0.400611 0.029009
v -0.225421 -0.397433 0.028959
v 0.000139 0.353557 0.046209
v -0.224785 -0.395366 0.038807
v 0.108635 -0.0708936 -0.186876
v -0.24026 0.314675 -0.045141
v -0.246961 0.28007 -0.046101
v 0.0679742 -0.0554894 -0.184848
v -0.083103 0.236852 -0.150493
v -0.041544 0.236335 -0.152127
v 0.097685 -0.399486 0.029664
v 0.109156 -0.395708 -0.017725
v 0.171444 0.385123 -0.0863311
v -0.240445 -0.335802 0.029373
v -0.039671 -0.398688 0.155552
v 0.000424 -0.367493 0.16002
v 0.000451 -0.32419 0.161458
v 0.170261 -0.310501 -0.159428
v 0.183442 -0.349878 -0.15309
v 0.24465 0.0604776 -0.0170507
v -0.226274 0.15542 -0.134135
v -5.8e-05 -0.141512 -0.151476
v -0.22605 0.197015 -0.133354
v 0.244798 -0.0501565 -0.0544345
v -0.245209 0.16466 -0.00820575
v 0.178385 -0.148435 0.0858353
v -0.165393 0.0916838 0.0893915
v 0.0518889 0.131779 0.0938355
v 0.0869066 -0.315999 -0.164229
v 0.116733 -0.153065 0.137797
v -0.0530428 0.276104 0.0660165
v 0.183582 0.355484 -0.130333
v 0.149498 0.372389 -0.130007
v 0.20037 0.33898 -0.130648
v 0.120462 0.379312 -0.12987
v -0.0424332 0.0621853 0.117607
v 0.237452 -0.393266 -0.03563
v -0.051905 0.0189317 0.13245
v -0.109832 -0.387327 -0.146464
v -0.244823 -0.0501345 -0.0544455
v -0.0406187 -0.0308178 -0.180779
v -4.2e-05 -0.0576608 -0.151984
v 0.0262108 -0.0378427 -0.177703
v -0.192729 0.135554 0.0622605
v 0.0433169 -0.387836 -0.101026
v 0.117753 0.0648618 0.117615
v 0.124044 0.0981079 0.107221
v 0.0748119 -0.386768 -0.114093
v 0.000429 -0.397215 0.125188
v 0.000402 -0.398768 0.156835
v -0.0862639 -0.258527 0.162756
v -0.141261 -0.397386 0.109379
v 0.0670792 0.0143554 -0.187725
v 0.216671 0.00431217 0.0508848
v 0.246699 0.23627 0.004614
v -0.236603 0.0659778 0.0327256
v -0.19067 -0.109634 -0.158841
v -0.22575 -0.099623 -0.139021
v 0.071679 -0.398551 0.152247
v -0.09328 0.382024 -0.129818
v -0.076438 0.234671 0.033088
v -0.24282 0.236013 0.021356
v -0.236477 0.193357 0.0338464
v -0.118288 -0.390515 -0.063184
v -0.159288 -0.402124 0.029277
v -0.184509 -0.401367 0.029143
v -0.0787207 -0.389867 -0.063393
v -0.23217 -0.391316 -0.09853
v 0.000293333 0.038734 0.116685
v 0.249083 0.187374 -0.04852
v 0.248735 0.137433 -0.04982
v -0.212643 0.317593 -0.131067
v -0.236561 0.108438 0.0330992
v -0.177803 -0.396446 0.073785
v -0.097124 -0.399477 0.02966
v -0.128206 -0.4008 0.0294685
v -1.4e-06 0.151966 -0.153253
v 0.000454333 -0.279007 0.160369
v 0.000451 -0.32419 0.161458
v 0.000402 -0.10541 0.153331
v 0.000421 -0.131246 0.155947
v 0.000182 0.188617 0.069974
v -0.236435 0.235817 0.03422
v 0.133449 0.395712 -0.042307
v 0.165578 0.38891 -0.042663
v 9.1e-05 -0.284193 -0.149235
v 0.236432 0.235796 0.03423
v 0.23647 0.193336 0.0338564
v -0.159744 -0.396853 0.088452
v -9.6e-06 0.110041 -0.153
v -0.240374 -0.308378 0.0295725
v 0.220746 -0.186308 -0.146225
v 0.122456 0.237364 -0.147773
v 0.161787 0.237883 -0.145056
v 1.5e-05 0.235817 -0.153761
v 0.000368 -0.058516 0.145633
v -0.213849 -0.39571 0.050213
v 0.148342 0.369905 0.035521
v 0.232116 -0.391337 -0.09852
v -0.246701 0.236292 0.004603
v 0.000457667 -0.233825 0.159279
v 0.099196 -0.398345 0.146321
v 0.071679 -0.398551 0.152247
v 0.000101 0.380911 0.023038
v -0.22535 -0.143043 -0.139868
v 0.00012 0.370246 0.035314
v -0.049304 0.370137 0.035381
v -0.238409 -0.324235 -0.0609583
v -0.237699 -0.358348 -0.0617577
v -0.237508 -0.393245 -0.03564
v -0.238026 -0.39403 -0.008723
v 0.000146 0.299714 0.059136
v 0.000148 0.327937 0.054958
v -0.033108 0.385351 -0.129737
v 0.236935 -0.392482 -0.062547
v -0.226549 -0.012783 -0.137327
v -0.226149 -0.056203 -0.138174
v 0.236508 0.150877 0.0334828
v 0.236547 0.108417 0.0331092
v 0.177742 -0.396462 0.073793
v 0.240253 -0.280975 0.029783
v 0.176345 0.235338 0.041233
v 0.000169 0.363592 -0.144307
v -0.014925 0.233751 0.062363
v 0.236585 0.0659576 0.0327356
v 0.000321 0.00269 0.129495
v 0.000153 0.233736 0.063302
v 0.248386 0.087491 -0.05112
v -0.182296 -0.188525 0.062008
v 0.0495273 0.370132 0.035383
v 0.00012 0.370246 0.035314
v 0.000139 0.353557 0.046209
v -0.233209 0.235766 0.037459
v -0.224341 0.235667 0.041824
v -0.235503 0.264663 0.034555
v 0.224918 -0.186483 -0.140706
v -0.041544 0.236335 -0.152127
v -0.240445 -0.335802 0.029373
v -0.236677 -0.378968 0.029068
v -0.210143 0.238493 -0.138656
v 0.224918 -0.186483 -0.140706
v 0.183582 0.355484 -0.130333
v 0.040338 -0.398692 0.155554
v -0.126726 -0.397918 0.13133
v -0.246015 -0.00425167 -0.0533407
v -0.17934 0.384137 -0.042882
v 0.223463 0.274932 -0.13187
v 0.220871 0.290651 -0.13157
v 0.159682 -0.396867 0.088459
v -0.0731387 -0.386534 -0.146725
v -0.197423 -0.391812 -0.062766
v -0.157855 -0.391164 -0.062975
v -0.066415 0.384724 -0.129759
v 0.240391 -0.335823 0.029383
v -0.09328 0.382024 -0.129818
v -1.78e-05 0.0681154 -0.152746
v -2.6e-05 0.02619 -0.152492
v 0.239785 -0.25603 -0.0593483
v 0.240498 -0.221917 -0.0585487
v 3.86667e-05 -0.250608 -0.149897
v 0.000265667 0.074778 0.103876
v 0.103901 -0.188783 0.135182
v 0.123046 -0.188764 0.120681
v 0.240293 0.314653 -0.045131
v 0.246972 0.280048 -0.04609
v -0.248962 0.236713 -0.018491
v -0.234571 0.293508 0.03489
v 0.000429 -0.397215 0.125188
v 0.000402 -0.398768 0.156835
v 0.182254 -0.188541 0.062017
v 8.7e-05 0.300187 -0.154454
v -0.24026 0.314675 -0.045141
v 0.221546 -0.321978 -0.144014
v -0.206205 0.235527 0.043991
v -0.176349 0.235354 0.041226
v -0.109832 -0.387327 -0.146464
v -0.148152 0.369919 0.035515
v -0.098728 0.370028 0.035448
v 0.237648 -0.358369 -0.0617473
v 0.236935 -0.392482 -0.062547
v 0.225321 -0.143063 -0.139859
v 0.159533 -0.402138 0.029284
v 0.184635 -0.401383 0.0291505
v 0.213789 -0.395729 0.050222
v 0.241855 -0.188175 -0.030351
v -0.222268 0.341236 0.035386
v -0.21649 0.348899 0.035452
v 0.0003445 -0.027913 0.137564
v 0.073987 0.400563 -0.041902
v 0.03706 0.401062 -0.0417515
v -0.249088 0.187397 -0.048531
v 0.242817 0.235992 0.021366
v 0.246699 0.23627 0.004614
v 0.0989347 0.370019 0.035452
v -0.241893 -0.188154 -0.030362
v 0.249432 0.237316 -0.04722
v 0.226271 0.1554 -0.134126
v 0.0792547 -0.389874 -0.0633897
v 0.0398343 -0.389222 -0.0636003
v 0.235414 -0.394587 0.010129
v 0.237969 -0.394051 -0.008713
v -0.229041 0.342008 -0.044335
v 8.7e-05 0.390981 0.003378
v 0.00013 0.333799 -0.151826
v 0.223139 0.238591 -0.134716
v 0.225829 0.238589 -0.132563
v -0.0483065 -0.396017 0.029953
v -0.244823 -0.0501345 -0.0544455
v 0.000414 -0.38857 -0.063811
v 0.066561 0.2345 0.036806
v 0.031967 0.233853 0.058012
v 0.162089 0.367696 -0.130097
v 0.120462 0.379312 -0.12987
v 0.149498 0.372389 -0.130007
v -0.030082 -0.18867 0.156646
v -6.6e-05 -0.183437 -0.151222
v -0.0495915 -0.183893 -0.155656
v 0.24719 0.0416085 -0.0522248
v 0.237452 -0.393266 -0.03563
v 0.20037 0.33898 -0.130648
v 0.206146 -0.185931 -0.154406
v -0.103486 0.398147 -0.042109
v -0.222431 -0.288084 -0.143197
v 0.000248 -0.384948 -0.147248
v -0.240537 -0.221896 -0.0585597
v -0.239828 -0.256009 -0.0593593
v -0.23699 -0.392461 -0.062557
v 0.236935 -0.392482 -0.062547
v 0.197515 -0.39183 -0.0627577
v -0.223445 0.274952 -0.13188
v -0.23434 0.238422 -0.115493
v -0.099117 -0.184349 -0.160089
v -0.241247 -0.187783 -0.05776
v -0.235472 -0.394566 0.010119
v 0.226128 -0.056223 -0.138164
v 0.141198 -0.397399 0.109385
v -0.219912 -0.389706 -0.145679
v 0.000238 0.110822 0.091066
v -0.238579 -0.234867 0.030128
v -0.242538 -0.188525 -0.002964
v -6.6e-05 -0.183437 -0.151222
v 1.5e-05 0.235817 -0.153761
v 0.0415695 0.236331 -0.152125
v 0.00021 0.148146 0.079508
v -0.120145 0.379325 -0.129876
v -0.149234 0.3724 -0.130013
v 0.240322 -0.308399 0.029583
v 0.141437 -0.188588 0.095319
v -0.240302 -0.280954 0.029772
v -0.235471 -0.187028 -0.105066
v -0.230663 -0.186762 -0.125379
v 9.1e-05 0.397663 -0.018063
v 0.000133 0.40156 -0.041601
v -0.236603 0.0659778 0.0327256
v 0.000195667 -0.351363 -0.14791
v -0.071245 -0.398544 0.152244
v -0.236687 -0.0189416 0.0319784
v -0.200249 0.338999 -0.130658
v 0.057536 -0.188712 0.152317
v 0.080137 -0.18875 0.145878
v -0.0391533 -0.389218 -0.063602
v 0.158547 -0.185126 -0.161451
v -0.246961 0.28007 -0.046101
v 0.083124 0.236845 -0.15049
v -0.161775 0.237898 -0.145063
v 0.128787 -0.184742 -0.160768
v -0.243631 -0.0960173 -0.0555503
v -0.226274 0.15542 -0.134135
v -0.22605 0.197015 -0.133354
v -0.209345 0.355137 0.035499
v 0.049098 -0.396022 0.029955
v -3.4e-05 -0.0157354 -0.152238
v 0.249432 0.237316 -0.04722
v 0.247248 0.237811 -0.071206
v 0.222389 -0.288104 -0.143187
v 0.23836 -0.324256 -0.0609477
v 5.1e-05 0.268002 -0.154107
v -0.20973 -0.400611 0.029009
v -0.224111 -0.220337 -0.141542
v -0.206185 -0.185913 -0.154415
v 0.223232 -0.25423 -0.14236
v 0.000185 0.375931 -0.138031
v 0.236623 0.023498 0.032362
v 0.240745 -0.188702 0.015535
v 0.242499 -0.188547 -0.002953
v -1.36667e-05 -0.217022 -0.15056
v 0.221729 0.353197 -0.043974
v 0.229104 0.341987 -0.044324
v -0.248743 0.137455 -0.049831
v 0.233205 0.235745 0.037469
v 0.236432 0.235796 0.03423
v 0.235509 0.264641 0.034565
v 0.179499 0.384124 -0.042874
v 0.236661 -0.0189618 0.0319886
v 0.000133 0.40156 -0.041601
v -0.133237 0.395724 -0.042313
v -0.103674 -0.188773 0.135177
v 0.239073 -0.290143 -0.060148
v 0.24121 -0.187804 -0.057749
v 0.242406 -0.141922 -0.0566442
v -5.8e-05 -0.141512 -0.151476
v 0.0494805 -0.183897 -0.155654
v -0.14148 -0.188576 0.095313
v 0.220704 -0.355851 -0.144842
v -0.225825 0.238609 -0.132572
v -0.115473 -0.398142 0.139827
v -0.224783 -0.188783 0.04441
v 0.0004835 -0.394111 0.061893
v 0.000456 -0.395663 0.09354
v -0.183405 0.355501 -0.130341
v 0.224338 0.235648 0.041833
v 0.238534 -0.234888 0.030139
v -0.223271 -0.25421 -0.14237
v 0.000193 0.402138 -0.067565
v 0.226713 0.0722114 -0.135689
v 0.226492 0.113806 -0.134907
v 0.000402 -0.398768 0.156835
v 0.000424 -0.367493 0.16002
v -4.2e-05 -0.0576608 -0.151984
v -0.158608 -0.185111 -0.161458
v -0.184831 -0.185515 -0.159289
v -0.248399 0.087514 -0.051131
v -0.236519 0.150897 0.0334728
v -0.162383 -0.188493 0.074602
v 0.230336 0.32105 0.035198
v 0.224075 -0.220357 -0.141533
v -0.242439 -0.1419 -0.0566552
v 0.000441 -0.159944 0.157069
v 0.000461 -0.188642 0.15819
v 0.00012 0.370246 0.035314
v -0.219912 -0.389706 -0.145679
v -0.220752 -0.355832 -0.144852
v 0.000199 0.385978 -0.129715
v 0.225724 -0.099643 -0.139012
v 0.000461 -0.188642 0.15819
v 0.224741 -0.188803 0.04442
v 0.23173 -0.188826 0.038654
v 0.128609 -0.400812 0.029474
v -0.247207 0.0416312 -0.0522358
v -0.083103 0.236852 -0.150493
v 0.16234 -0.188507 0.07461
v 0.146657 -0.388133 -0.146196
v -0.241247 -0.187783 -0.05776
v 0.097685 -0.399486 0.029664
v -0.178294 0.366722 0.035544
v 0.030945 -0.188673 0.156647
v -0.240785 -0.18868 0.015524
v -0.232652 -0.39171 0.028982
v -0.224785 -0.395366 0.038807
v -0.229986 -0.395089 0.028962
v 0.000462 -0.390564 -0.016783
v 0.000511 -0.392558 0.030246
v -0.236645 0.023518 0.032352
v 0.178452 0.366707 0.035551
v -0.036801 0.401065 -0.041753
v -0.22575 -0.099623 -0.139021
v -0.146351 0.235197 0.0359715
v -0.23699 -0.392461 -0.062557
v -0.073735 0.400571 -0.041905
v 0.230629 -0.186782 -0.125369
v 0.226934 0.030617 -0.13647
v 0.236815 -0.188801 0.030495
v -0.200693 0.360093 0.035528
v -5e-05 -0.0995862 -0.15173
v -0.236814 -0.14632 0.0308576
v 0.243602 -0.096039 -0.0555393
v 0.118675 -0.390526 -0.063179
v 0.158095 -0.391178 -0.0629683
v -0.247247 0.237833 -0.071217
v -0.089 0.234828 0.030635
v 0.103718 0.398138 -0.0421045
v 0.234586 0.293487 0.0349
v 0.0001495 0.266725 0.061219
v -0.122439 0.237375 -0.147778
v -0.116353 0.235041 0.030717
v 0.236777 -0.146341 0.0308684
v -6.6e-05 -0.183437 -0.151222
v 0.000248 -0.384948 -0.147248
v 0.000331 -0.386759 -0.10553
v 0.0368503 -0.385744 -0.146985
v 0.245994 -0.00427399 -0.0533297
v -0.165401 0.388927 -0.042671
v 0.236738 -0.103881 0.0312418
v -0.079627 -0.188743 0.145874
v 0.219861 -0.389725 -0.145669
v -0.161854 0.367712 -0.130105
v 0.24121 -0.187804 -0.057749
v 0.244798 -0.0501565 -0.0544345
v 0.126668 -0.397929 0.131335
v -0.225825 0.238609 -0.132572
v 0.0936265 0.382015 -0.129813
v 0.066791 0.384718 -0.129756
v 0.033495 0.385348 -0.129735
v 0.000215 0.39963 -0.093072
v 0.000212 0.394189 -0.114871
v -0.141261 -0.397386 0.109379
v -0.224951 -0.186463 -0.140715
v -0.224951 -0.186463 -0.140715
v 0.225829 0.238589 -0.132563
v 0.015222 0.23375 0.062363
v -0.066497 0.234506 0.036804
v 0.000402 -0.398768 0.156835
v -0.039671 -0.398688 0.155552
v 0.22605 0.196995 -0.133344
v 0.184783 -0.185532 -0.159281
v -0.0364453 -0.385741 -0.146987
v 0.000248 -0.384948 -0.147248
v 0.000199 0.385978 -0.129715
v -0.236856 -0.18878 0.030484
v 0.236815 -0.188801 0.030495
v -0.236435 0.235817 0.03422
v -0.213016 0.362924 -0.043665
v -0.221647 0.353215 -0.043984
v -0.203112 0.371243 -0.043377
v -0.22084 0.290672 -0.13158
v -0.225421 -0.397433 0.028959
v -0.229986 -0.395089 0.028962
v -0.241247 -0.187783 -0.05776
v 0.232593 -0.39173 0.028993
v 0.224918 -0.186483 -0.140706
v 0.2367 -0.0614216 0.0316152
v 0.076467 0.234665 0.033092
v 0.000153 0.233736 0.063302
v 0.089005 0.23482 0.030638
v 0.248961 0.236691 -0.01848
v -0.03171 0.233855 0.05801
v 0.209736 -0.400629 0.029017
v -0.236856 -0.18878 0.030484
v -0.249432 0.237338 -0.047231
v -0.183219 -0.388913 -0.145941
v -0.146525 -0.38812 -0.146202
v -0.123064 -0.188754 0.120675
v 0.24227 0.238135 -0.093197
v -0.221591 -0.321958 -0.144024
v -0.22078 -0.186288 -0.146234
v 0.183259 -0.388929 -0.145932
v 0.11635 0.235031 0.030722
v 0.146347 0.235185 0.0359775
v 0.22537 -0.397453 0.028968
v 0.224726 -0.395385 0.038816
v 0.212713 0.317573 -0.131057
v -0.236729 -0.0614012 0.0316048
v 0.249432 0.237316 -0.04722
v -0.226723 0.0722314 -0.135698
v -0.226948 0.030637 -0.13648
v 0.236432 0.235796 0.03423
v 0.226531 -0.012803 -0.137317
v 0.213116 0.362905 -0.043656
v 0.229927 -0.395109 0.028972
v -0.128863 -0.18473 -0.160774
v 0.203231 0.371227 -0.043368
v 0.229927 -0.395109 0.028972
v -0.239118 -0.290122 -0.060159
v -0.223135 0.238611 -0.134726
v -0.225825 0.238609 -0.132572
v 0.115499 -0.398152 0.139832
v 0.000133 0.40156 -0.041601
v -0.099015 -0.398336 0.146317
v 0.000199 0.385978 -0.129715
v 0.210148 0.238474 -0.138647
v 0.110055 -0.387337 -0.146459
v 0.216577 0.348879 0.035462
v -0.236856 -0.18878 0.030484
v 0.000153 0.233736 0.063302
v -0.224951 -0.186463 -0.140715
v 0.000414 -0.38857 -0.063811
v -0.229986 -0.395089 0.028962
v 0.206201 0.235509 0.044
v -0.230296 0.321071 0.035188
v -0.236772 -0.103861 0.0312312
v 0.235436 -0.187049 -0.105056
v 0.236619 -0.378989 0.029078
v 0.000414 -0.38857 -0.063811
v 0.236815 -0.188801 0.030495
v 0.099027 -0.184358 -0.160085
v 0.234343 0.238401 -0.115482
v 0.225829 0.238589 -0.132563
v 0.000143333 -0.317778 -0.148573
v -0.226499 0.113826 -0.134917
v 0.000511 -0.392558 0.030246
v -0.242267 0.238156 -0.093207
v -0.249432 0.237338 -0.047231
v 0.000461 -0.188642 0.15819
v 0.000511 -0.392558 0.030246
v 0.209451 0.355119 0.035508
v 6.8e-06 0.193892 -0.153507
v 0.222338 0.341215 0.035396
v 1.5e-05 0.235817 -0.153761
v 0.200816 0.360074 0.035537
v -0.231771 -0.188805 0.038644
v -0.056823 -0.188707 0.152315
v 0.229927 -0.395109 0.028972
v 0.219861 -0.389725 -0.145669
v 0.24121 -0.187804 -0.057749
v -0.249432 0.237338 -0.047231
v -0.236435 0.235817 0.03422
v -0.23699 -0.392461 -0.062557
v 0.0734527 -0.386541 -0.146722
f 569 2 3
f 4 5 487
f 402 276 820
f 9 434 433
f 746 28 27
f 13 14 716
f 31 644 14
f 6 481 25
f 120 566 118
f 122 61 60
f 14 30 31
f 79 623 89
f 35 36 37
f 294 39 40
f 400 794 216
f 46 416 48
f 118 566 577
f 570 335 549
f 55 727 56
f 57 58 59
f 62 440 63
f 65 66 67
f 705 69 70
f 477 81 148
f 75 76 227
f 103 551 201
f 81 82 160
f 359 87 88
f 640 90 91
f 364 566 120
f 499 551 500
f 480 531 141
f 658 708 464
f 351 282 824
f 824 282 404
f 42 106 107
f 400 216 350
f 19 757 131
f 19 758 757
f 131 634 19
f 825 12 826
f 123 124 125
f 126 127 128
f 634 560 423
f 634 423 19
f 19 534 758
f 204 455 522
f 144 145 146
f 241 203 237
f 804 638 382
f 660 679 16
f 503 655 421
f 354 293 430
f 161 162 163
f 164 165 166
f 827 126 128
f 735 600 736
f 172 528 133
f 680 235 142
f 739 142 235
f 127 828 829
f 739 235 347
f 222 185 186
f 629 506 235
f 680 629 235
f 274 194 311
f 98 270 728
f 98 271 270
f 109 220 819
f 109 819 271
f 205 206 207
f 322 204 780
f 780 204 138
f 215 216 217
f 218 106 802
f 389 141 142
f 739 389 142
f 702 509 338
f 468 103 201
f 245 348 633
f 830 232 827
f 348 352 633
f 236 831 238
f 703 509 702
f 445 509 703
f 255 799 801
f 801 694 255
f 190 319 258
f 253 254 832
f 258 8 190
f 789 49 20
f 262 833 834
f 254 265 266
f 789 171 221
f 191 569 791
f 486 549 335
f 507 286 213
f 275 276 277
f 609 502 278
f 67 66 558
f 602 279 280
f 479 480 141
f 285 232 830
f 543 226 288
f 225 610 524
f 225 524 479
f 131 212 645
f 682 196 782
f 682 193 196
f 781 782 196
f 193 682 681
f 257 308 622
f 481 6 24
f 224 246 181
f 402 820 286
f 128 119 319
f 697 321 165
f 322 323 136
f 324 325 123
f 402 722 533
f 286 722 402
f 502 330 278
f 705 70 129
f 402 533 277
f 835 160 82
f 533 722 497
f 522 603 138
f 41 657 104
f 104 836 208
f 110 92 666
f 666 631 110
f 193 675 792
f 356 106 218
f 286 507 327
f 286 327 722
f 144 361 362
f 71 73 240
f 365 837 96
f 146 361 144
f 368 333 369
f 507 329 340
f 422 804 170
f 210 717 7
f 369 333 334
f 386 127 126
f 386 126 385
f 683 210 7
f 702 344 703
f 337 417 540
f 337 152 417
f 289 521 530
f 228 546 97
f 369 334 372
f 402 277 276
f 838 462 839
f 117 838 384
f 410 411 552
f 838 117 462
f 178 26 101
f 299 112 256
f 840 454 472
f 95 841 842
f 827 232 126
f 95 842 169
f 409 425 489
f 717 115 490
f 601 475 843
f 844 601 843
f 592 156 590
f 666 212 631
f 631 600 735
f 383 282 845
f 700 117 260
f 80 394 396
f 396 550 747
f 396 747 80
f 603 522 187
f 846 122 363
f 136 455 204
f 847 848 776
f 8 258 599
f 66 839 462
f 119 258 319
f 796 608 798
f 224 181 849
f 849 420 224
f 390 357 445
f 281 390 397
f 482 483 484
f 488 850 851
f 244 397 390
f 153 492 493
f 494 837 852
f 722 496 497
f 454 840 853
f 20 171 789
f 243 171 20
f 854 504 654
f 828 127 386
f 397 20 49
f 30 14 478
f 675 224 792
f 511 512 855
f 513 677 346
f 515 518 737
f 662 745 303
f 292 761 143
f 524 841 525
f 856 759 857
f 375 132 147
f 130 668 408
f 189 465 355
f 189 188 465
f 510 248 63
f 194 535 527
f 248 416 63
f 469 858 773
f 370 233 23
f 291 751 738
f 799 287 180
f 287 23 233
f 351 413 370
f 180 706 799
f 223 565 188
f 66 462 558
f 475 223 859
f 645 634 131
f 126 232 385
f 561 562 157
f 505 114 393
f 606 505 645
f 636 645 505
f 860 65 67
f 505 393 636
f 570 549 572
f 568 598 673
f 861 760 202
f 210 1 242
f 840 472 582
f 210 441 1
f 1 441 554
f 614 1 554
f 85 585 586
f 274 4 194
f 1 614 612
f 1 612 242
f 798 440 62
f 595 469 314
f 626 862 296
f 183 12 863
f 476 169 406
f 795 608 498
f 323 864 611
f 169 822 406
f 615 285 616
f 626 15 862
f 169 578 822
f 569 491 2
f 619 383 845
f 79 622 623
f 539 865 866
f 539 456 865
f 376 628 867
f 116 868 741
f 766 869 870
f 421 871 872
f 678 632 706
f 501 790 678
f 233 501 678
f 700 428 652
f 761 292 29
f 348 444 394
f 394 80 348
f 14 644 716
f 453 714 674
f 197 198 647
f 421 873 874
f 608 440 798
f 650 875 876
f 7 853 140
f 653 877 76
f 7 454 853
f 7 140 683
f 10 12 183
f 659 660 9
f 350 216 215
f 706 180 678
f 665 296 862
f 387 213 268
f 268 213 414
f 259 269 557
f 631 801 519
f 50 51 125
f 110 631 519
f 683 170 441
f 862 15 878
f 683 140 684
f 795 689 608
f 689 11 608
f 691 361 433
f 414 213 820
f 879 269 880
f 53 45 102
f 696 881 882
f 53 715 629
f 706 801 799
f 553 349 883
f 626 296 295
f 621 620 349
f 53 620 884
f 543 885 132
f 663 647 622
f 278 330 707
f 253 265 254
f 886 162 161
f 253 435 265
f 283 887 711
f 712 674 714
f 783 50 888
f 437 435 253
f 55 195 150
f 318 439 612
f 99 18 889
f 99 437 18
f 711 887 890
f 18 253 832
f 18 832 889
f 731 446 197
f 210 242 717
f 608 11 440
f 389 739 542
f 96 777 358
f 891 502 834
f 615 232 285
f 480 571 476
f 191 113 17
f 147 191 17
f 17 391 83
f 113 391 17
f 411 410 750
f 888 50 882
f 147 17 375
f 440 11 510
f 607 588 589
f 588 607 179
f 100 382 284
f 892 290 742
f 176 341 663
f 763 121 672
f 302 689 704
f 893 894 895
f 33 689 302
f 896 897 898
f 157 899 561
f 544 611 864
f 374 772 900
f 759 689 33
f 901 421 902
f 395 581 724
f 724 300 395
f 517 903 627
f 33 316 426
f 33 460 34
f 855 904 511
f 33 34 857
f 253 18 437
f 701 789 221
f 230 792 420
f 905 470 797
f 52 252 373
f 109 807 220
f 421 872 873
f 177 209 29
f 29 371 261
f 433 361 9
f 177 29 261
f 809 810 720
f 543 132 375
f 812 906 813
f 187 815 907
f 548 339 637
f 908 73 803
f 759 33 857
f 545 467 317
f 545 909 467
f 121 630 672
f 585 630 345
f 552 411 752
f 359 910 911
f 410 552 912
f 726 110 519
f 49 789 229
f 441 210 683
f 573 308 685
f 913 573 685
f 162 886 596
f 77 320 800
f 72 399 68
f 914 203 915
f 33 426 460
f 823 227 916
f 654 637 339
f 576 447 688
f 376 447 377
f 258 119 829
f 520 336 184
f 917 77 679
f 162 918 163
f 881 124 851
f 159 54 642
f 94 139 43
f 919 139 920
f 920 139 21
f 821 820 276
f 328 644 31
f 919 43 139
f 713 239 818
f 268 670 387
f 382 273 804
f 390 445 244
f 715 247 699
f 650 676 794
f 875 650 794
f 814 136 323
f 658 567 898
f 811 648 808
f 419 455 136
f 666 92 481
f 921 458 922
f 664 471 923
f 582 374 900
f 924 799 255
f 463 429 430
f 901 503 421
f 306 317 661
f 925 926 793
f 927 64 928
f 490 374 717
f 532 587 61
f 266 791 3
f 118 577 929
f 929 577 770
f 930 577 566
f 788 12 10
f 317 769 577
f 121 345 630
f 51 783 686
f 778 931 932
f 525 479 524
f 229 789 933
f 382 329 273
f 934 248 597
f 317 298 748
f 251 705 935
f 767 765 764
f 793 214 925
f 936 763 84
f 179 476 407
f 451 470 776
f 708 937 938
f 547 38 537
f 38 939 537
f 694 735 693
f 801 631 735
f 274 760 709
f 940 457 941
f 162 314 418
f 942 800 943
f 328 326 644
f 24 753 290
f 222 944 185
f 274 311 760
f 945 173 946
f 752 749 947
f 379 380 948
f 949 299 950
f 223 99 951
f 817 730 710
f 39 545 317
f 369 952 953
f 572 549 954
f 326 328 952
f 720 113 791
f 369 326 952
f 955 488 956
f 746 288 226
f 326 372 957
f 372 326 369
f 298 317 297
f 352 745 744
f 330 502 891
f 794 283 711
f 520 740 466
f 520 466 22
f 520 958 740
f 520 184 958
f 22 518 520
f 734 615 616
f 659 361 146
f 746 226 28
f 959 833 431
f 960 35 262
f 555 403 392
f 224 675 246
f 961 729 962
f 725 724 723
f 963 173 964
f 235 506 347
f 852 815 403
f 114 505 24
f 623 38 89
f 690 46 624
f 63 440 510
f 65 860 764
f 769 317 965
f 535 718 310
f 755 867 966
f 48 416 967
f 444 968 969
f 950 299 256
f 232 970 385
f 509 445 357
f 971 515 484
f 285 972 616
f 491 973 974
f 155 418 314
f 147 249 191
f 893 274 709
f 424 847 776
f 975 776 905
f 976 424 977
f 473 675 681
f 443 264 214
f 506 629 715
f 327 507 340
f 19 978 534
f 788 10 378
f 89 252 52
f 175 89 52
f 141 225 479
f 979 980 785
f 864 323 322
f 789 701 933
f 980 100 785
f 980 340 100
f 556 96 494
f 663 622 79
f 793 221 171
f 378 104 788
f 981 366 330
f 964 173 982
f 466 740 580
f 556 504 854
f 689 795 983
f 788 208 826
f 784 517 439
f 222 186 984
f 985 674 523
f 515 737 401
f 986 153 493
f 153 568 673
f 687 987 685
f 988 153 989
f 160 54 159
f 990 237 914
f 352 201 303
f 551 303 201
f 679 942 16
f 708 938 217
f 201 348 80
f 991 982 992
f 989 153 673
f 231 993 994
f 801 735 694
f 57 677 58
f 806 47 21
f 550 292 143
f 327 340 995
f 327 995 496
f 388 996 116
f 786 517 784
f 101 78 771
f 291 695 751
f 756 531 179
f 607 756 179
f 504 546 228
f 902 997 591
f 424 776 977
f 134 998 695
f 547 529 526
f 643 456 999
f 1000 529 538
f 23 287 1001
f 293 1002 1003
f 664 1004 586
f 1005 597 1006
f 151 23 1007
f 1001 287 924
f 151 370 23
f 657 41 93
f 1008 307 1009
f 660 659 1010
f 307 452 54
f 954 182 572
f 1008 452 307
f 1011 221 926
f 926 221 793
f 655 503 1012
f 492 1013 1014
f 651 649 729
f 409 583 605
f 491 569 593
f 992 173 332
f 1015 1016 754
f 657 93 1017
f 792 667 193
f 387 329 507
f 630 585 85
f 246 1018 181
f 260 778 1019
f 244 243 20
f 20 397 244
f 982 173 992
f 1020 270 646
f 1021 160 835
f 552 752 947
f 554 441 259
f 114 290 892
f 1022 225 389
f 782 111 682
f 389 1023 1022
f 670 259 441
f 107 106 1024
f 672 1025 733
f 639 240 73
f 357 137 509
f 725 300 724
f 153 1013 492
f 343 1026 935
f 636 541 634
f 1027 510 856
f 676 457 464
f 608 796 498
f 29 209 761
f 443 721 438
f 148 81 1028
f 471 849 923
f 1029 630 85
f 559 247 715
f 24 606 481
f 398 49 229
f 191 249 593
f 593 367 973
f 593 569 191
f 92 110 726
f 153 988 1013
f 1030 405 272
f 311 668 202
f 311 527 668
f 1031 549 1032
f 452 162 418
f 343 935 705
f 936 782 781
f 427 74 625
f 317 748 1033
f 618 1034 774
f 638 1035 805
f 516 613 219
f 722 327 496
f 689 759 11
f 883 607 589
f 232 615 970
f 273 329 387
f 1036 1037 88
f 671 732 1038
f 387 670 273
f 409 13 425
f 626 1039 15
f 469 1040 858
f 359 1037 432
f 33 302 316
f 1032 549 486
f 258 829 1041
f 281 397 398
f 1042 105 1043
f 902 421 997
f 997 421 874
f 252 89 38
f 216 708 217
f 672 511 1044
f 72 68 787
f 639 199 240
f 547 252 38
f 443 214 793
f 46 690 416
f 965 317 306
f 527 635 168
f 1045 886 161
f 785 100 284
f 410 912 456
f 1046 584 888
f 1047 1048 200
f 663 79 176
f 399 617 200
f 175 176 79
f 664 923 1049
f 1050 1051 470
f 717 374 454
f 600 212 131
f 728 726 98
f 270 442 728
f 527 535 635
f 337 530 152
f 954 669 1052
f 954 549 669
f 517 304 698
f 939 573 913
f 252 547 526
f 686 783 584
f 1053 1054 1055
f 297 577 930
f 776 848 1056
f 116 272 868
f 510 1027 248
f 301 584 1057
f 368 953 1058
f 576 688 1059
f 1060 417 575
f 576 40 377
f 732 1061 1039
f 1061 732 921
f 1057 584 1046
f 1062 562 1063
f 1064 574 1065
f 188 189 437
f 99 188 437
f 117 700 462
f 393 114 1066
f 528 461 436
f 202 760 311
f 138 779 780
f 26 574 1064
f 782 936 1067
f 732 295 1038
f 782 1067 111
f 178 574 26
f 1068 994 993
f 907 1069 187
f 491 593 973
f 1070 548 289
f 260 1071 1072
f 260 117 384
f 1071 260 384
f 249 167 593
f 307 1021 1073
f 307 160 1021
f 359 88 1037
f 307 54 160
f 4 274 893
f 487 194 4
f 1044 763 672
f 731 663 341
f 666 606 212
f 1055 32 309
f 362 361 691
f 1074 86 309
f 1075 563 559
f 937 708 658
f 52 1076 536
f 658 898 937
f 76 1077 762
f 916 227 76
f 811 234 648
f 772 490 692
f 151 282 351
f 670 441 170
f 1078 550 1079
f 1080 578 1081
f 483 93 41
f 1031 669 549
f 24 505 606
f 565 475 438
f 623 573 38
f 571 525 95
f 538 547 537
f 806 1082 47
f 546 504 556
f 399 200 380
f 1015 755 966
f 754 755 1015
f 451 776 1056
f 908 639 73
f 1083 536 1084
f 759 856 510
f 669 192 1052
f 77 592 590
f 228 152 521
f 1085 1052 192
f 565 223 475
f 586 471 664
f 220 807 1086
f 1087 114 892
f 109 790 807
f 154 1088 381
f 1089 458 671
f 1044 84 763
f 198 622 647
f 54 418 642
f 116 1090 272
f 263 1091 1092
f 788 104 208
f 86 1053 1055
f 334 1093 372
f 309 86 1055
f 1094 831 1095
f 804 422 1035
f 36 35 960
f 420 471 345
f 516 64 613
f 366 707 330
f 366 981 594
f 613 409 219
f 1045 161 1096
f 626 732 1039
f 143 747 550
f 695 1097 751
f 442 270 1020
f 414 269 268
f 351 370 151
f 1078 292 550
f 534 978 1098
f 816 250 474
f 816 474 21
f 408 668 168
f 168 668 527
f 21 474 806
f 647 731 197
f 771 78 806
f 284 638 805
f 77 917 592
f 355 703 189
f 812 427 906
f 945 174 173
f 174 775 331
f 173 174 332
f 332 174 331
f 229 1099 1100
f 63 564 62
f 1101 174 945
f 641 639 1102
f 1103 155 469
f 527 311 194
f 1104 506 699
f 124 696 125
f 696 50 125
f 881 696 124
f 315 568 1095
f 315 831 236
f 598 315 236
f 598 568 315
f 395 101 768
f 151 845 282
f 695 998 1097
f 108 187 522
f 508 514 1105
f 116 741 388
f 212 606 645
f 958 184 1106
f 295 732 626
f 409 450 14
f 336 518 971
f 794 711 875
f 1107 729 775
f 651 729 1107
f 1108 656 940
f 450 409 605
f 409 613 583
f 479 525 571
f 212 600 631
f 123 488 124
f 325 488 123
f 738 250 261
f 956 488 325
f 851 124 488
f 488 955 850
f 143 103 468
f 225 1109 610
f 1002 579 1110
f 880 414 821
f 1111 96 358
f 96 412 1112
f 1113 765 767
f 454 374 472
f 962 649 1114
f 1114 649 651
f 1114 651 1115
f 1002 1110 1003
f 759 510 11
f 175 52 536
f 459 359 911
f 559 715 1075
f 115 717 242
f 494 96 837
f 698 115 242
f 600 131 757
f 69 705 640
f 482 401 1116
f 702 312 809
f 501 719 415
f 482 484 515
f 348 201 352
f 1065 574 178
f 178 300 1065
f 329 382 100
f 791 113 191
f 861 202 1117
f 76 1118 1077
f 868 272 1119
f 601 263 264
f 1120 587 415
f 413 415 719
f 248 1027 1006
f 1121 319 190
f 751 581 738
f 565 465 188
f 1122 447 754
f 173 963 342
f 963 158 342
f 25 305 6
f 517 786 903
f 1123 458 1089
f 250 177 261
f 696 882 50
f 480 479 571
f 464 656 658
f 291 1124 134
f 670 170 273
f 1047 617 1125
f 94 209 177
f 771 806 474
f 39 317 1126
f 638 804 1035
f 715 53 884
f 980 995 340
f 1107 775 1101
f 1082 806 78
f 101 395 178
f 78 101 26
f 1127 26 1064
f 78 26 1127
f 1066 114 1087
f 299 656 1108
f 200 948 380
f 636 634 645
f 960 262 609
f 262 502 609
f 95 169 571
f 834 502 262
f 355 445 703
f 290 753 1128
f 308 573 623
f 1063 461 1129
f 359 459 87
f 564 63 690
f 164 44 710
f 166 44 164
f 1130 514 1131
f 231 1132 1026
f 264 443 601
f 438 465 565
f 726 728 92
f 291 371 1124
f 4 893 895
f 4 895 5
f 371 291 261
f 824 1133 351
f 395 768 581
f 443 475 601
f 1134 424 513
f 456 912 999
f 143 468 747
f 1135 32 1055
f 42 495 106
f 106 495 802
f 32 668 130
f 1001 1007 23
f 202 668 32
f 154 32 1135
f 154 202 32
f 309 32 130
f 38 573 939
f 718 535 1136
f 382 638 284
f 228 637 504
f 456 774 750
f 227 823 453
f 93 1116 1017
f 918 452 1008
f 476 531 480
f 162 452 918
f 653 76 762
f 1028 159 1137
f 1133 1138 351
f 398 229 1139
f 1065 1140 1064
f 664 1049 1004
f 693 735 736
f 87 459 1051
f 177 250 816
f 246 1141 1018
f 464 708 216
f 1024 356 1142
f 246 1143 1141
f 246 473 1143
f 686 584 1144
f 868 449 741
f 729 649 962
f 545 294 1145
f 1146 399 72
f 166 321 83
f 491 974 448
f 39 294 545
f 1060 575 1147
f 376 755 447
f 111 1067 1148
f 1009 307 1149
f 69 640 712
f 108 419 392
f 742 290 1128
f 108 392 403
f 814 135 419
f 248 1006 597
f 397 49 398
f 180 233 678
f 77 800 942
f 1090 116 996
f 83 375 17
f 1150 362 691
f 172 594 1151
f 179 407 1152
f 1153 485 786
f 409 14 13
f 677 513 1154
f 1155 677 1154
f 289 548 521
f 346 677 57
f 1156 677 1155
f 1157 1156 1158
f 1159 700 652
f 199 641 205
f 1019 700 260
f 775 729 961
f 424 1154 513
f 641 206 205
f 420 345 230
f 562 461 1063
f 814 575 135
f 716 644 957
f 719 370 413
f 276 275 1160
f 331 775 961
f 233 180 287
f 1014 1161 492
f 1162 37 36
f 465 721 243
f 76 75 1118
f 629 680 45
f 528 436 133
f 97 417 152
f 710 44 137
f 458 732 671
f 244 355 243
f 650 766 870
f 369 953 368
f 418 155 642
f 562 561 461
f 349 102 607
f 434 9 660
f 500 43 919
f 211 94 43
f 551 211 43
f 1136 1163 718
f 1164 283 794
f 310 635 535
f 436 461 561
f 755 376 867
f 395 300 178
f 135 313 392
f 1165 138 1166
f 1165 779 138
f 472 374 582
f 294 1059 1145
f 44 166 312
f 1043 536 1042
f 444 969 1167
f 613 64 927
f 40 576 294
f 551 43 500
f 1168 222 984
f 455 419 108
f 859 223 951
f 137 44 338
f 304 490 115
f 698 304 115
f 250 738 768
f 1138 413 351
f 936 781 763
f 52 373 1076
f 439 698 612
f 112 299 1108
f 721 465 438
f 230 121 667
f 1169 1170 1142
f 1171 877 653
f 657 1017 836
f 53 102 620
f 672 733 512
f 672 512 511
f 580 1172 466
f 539 427 618
f 700 558 462
f 345 471 585
f 98 790 109
f 109 271 98
f 756 607 102
f 1085 641 1102
f 199 639 641
f 312 166 391
f 141 389 225
f 97 546 313
f 578 169 1081
f 338 509 137
f 413 1138 1120
f 555 313 546
f 736 600 757
f 483 482 93
f 229 1173 1139
f 1174 896 898
f 1175 705 1176
f 705 90 640
f 1177 705 1175
f 231 1178 993
f 269 414 880
f 258 1179 1180
f 231 343 1178
f 231 1026 343
f 988 1181 1013
f 249 147 132
f 622 308 623
f 349 353 1182
f 786 485 903
f 363 122 60
f 405 71 1119
f 470 1051 459
f 1183 1123 1089
f 1126 317 1033
f 1164 794 400
f 457 676 941
f 730 817 357
f 72 1184 1146
f 815 187 403
f 310 1185 635
f 640 674 712
f 349 607 883
f 661 317 467
f 1167 396 394
f 1186 1163 1136
f 312 391 810
f 809 312 810
f 810 391 113
f 720 810 113
f 764 860 767
f 951 99 889
f 403 494 852
f 304 517 627
f 1185 1187 635
f 1059 294 576
f 3 791 569
f 928 64 1188
f 713 64 516
f 1188 64 818
f 818 64 713
f 471 586 585
f 404 282 1189
f 931 260 1072
f 170 683 422
f 717 454 7
f 946 173 1190
f 243 721 171
f 81 159 1028
f 391 166 83
f 1169 356 218
f 675 473 246
f 747 468 80
f 524 610 841
f 776 470 905
f 560 634 541
f 743 1128 1191
f 381 267 154
f 192 206 1085
f 581 751 149
f 149 751 1097
f 825 863 12
f 1189 282 383
f 1192 929 770
f 175 536 176
f 1193 1194 203
f 541 393 1195
f 637 228 521
f 138 603 1166
f 977 776 975
f 209 94 211
f 942 679 77
f 104 378 41
f 97 152 228
f 1082 78 1127
f 742 1128 743
f 908 1102 639
f 81 160 159
f 80 468 201
f 833 262 35
f 35 1196 431
f 35 431 833
f 35 37 1196
f 568 986 1197
f 275 277 1198
f 734 970 615
f 83 321 375
f 618 427 625
f 416 690 63
f 644 326 957
f 555 556 494
f 54 452 418
f 469 773 1103
f 705 1177 90
f 807 532 1086
f 1199 508 1105
f 1200 249 1201
f 415 807 501
f 410 456 750
f 357 390 730
f 797 470 459
f 1024 106 356
f 749 1202 1203
f 1204 459 911
f 698 439 517
f 556 555 546
f 271 646 270
f 1042 536 1076
f 568 153 986
f 371 292 1078
f 794 676 216
f 442 1020 1205
f 1116 93 482
f 583 613 927
f 701 221 1011
f 1188 1206 928
f 86 1074 1053
f 162 596 314
f 213 387 507
f 258 1041 1179
f 168 635 1187
f 1207 557 1208
f 275 1198 1160
f 692 490 304
f 330 891 981
f 77 590 320
f 239 713 1209
f 175 79 89
f 304 627 692
f 532 415 587
f 707 366 1210
f 187 604 603
f 1050 470 1211
f 522 138 204
f 102 349 620
f 317 577 297
f 225 1022 1109
f 1212 590 156
f 292 371 29
f 629 45 53
f 95 525 841
f 135 417 97
f 92 728 25
f 728 442 25
f 287 799 924
f 403 187 108
f 360 1002 293
f 646 271 819
f 341 176 1213
f 478 14 1214
f 1213 176 1083
f 188 99 223
f 688 447 1122
f 1202 1215 1203
f 1208 269 879
f 787 301 72
f 360 1012 1002
f 655 1216 871
f 360 293 354
f 1012 360 655
f 1184 72 301
f 447 755 754
f 541 636 393
f 1217 1218 477
f 715 884 1075
f 301 1057 1184
f 421 655 871
f 803 405 1030
f 660 16 434
f 625 1034 618
f 374 490 772
f 1066 1195 393
f 100 340 329
f 771 768 101
f 249 1200 167
f 459 1204 797
f 706 632 519
f 699 506 715
f 695 291 134
f 829 119 127
f 313 135 97
f 738 261 291
f 495 203 1194
f 227 985 75
f 802 495 1194
f 632 790 98
f 417 1060 540
f 915 203 495
f 405 73 71
f 202 154 1117
f 102 45 756
f 438 475 443
f 744 633 352
f 242 612 698
f 1219 456 643
f 233 370 719
f 1220 1077 1118
f 428 700 1221
f 538 529 547
f 518 515 971
f 464 457 656
f 1222 1158 1156
f 790 501 807
f 172 366 594
f 968 444 1223
f 344 437 189
f 482 515 401
f 343 705 129
f 301 787 1144
f 1025 672 630
f 723 222 1168
f 1157 677 1156
f 1224 234 811
f 489 1225 409
f 82 81 477
f 312 338 44
f 154 1135 1088
f 531 680 142
f 756 45 680
f 531 756 680
f 96 1111 412
f 249 132 1201
f 849 471 420
f 104 657 836
f 684 422 683
f 339 548 1226
f 1105 514 1224
f 58 677 1157
f 491 448 1227
f 491 1227 2
f 290 114 24
f 61 122 532
f 1207 318 557
f 1228 105 1042
f 108 522 455
f 1229 1024 1142
f 637 654 504
f 74 427 812
f 821 414 820
f 420 792 224
f 658 299 567
f 343 129 1178
f 584 783 888
f 234 514 1130
f 237 203 914
f 575 417 135
f 25 481 92
f 967 416 934
f 315 1095 831
f 543 321 697
f 143 761 103
f 318 614 557
f 997 1230 591
f 528 1129 461
f 230 345 121
f 543 1231 885
f 206 192 207
f 227 453 674
f 567 299 1232
f 336 520 518
f 187 1069 604
f 476 406 407
f 25 442 305
f 1205 305 442
f 1233 305 1205
f 658 656 299
f 922 458 1234
f 621 349 1235
f 962 1114 1236
f 920 21 47
f 1142 356 1169
f 1149 307 1073
f 146 145 1237
f 349 1182 1235
f 21 139 816
f 300 1238 1065
f 1201 132 885
f 499 303 551
f 347 506 1104
f 521 548 637
f 760 861 709
f 1137 159 642
f 944 222 149
f 142 141 531
f 1079 550 396
f 910 1239 1240
f 1085 206 641
f 781 121 763
f 687 308 1241
f 685 308 687
f 280 508 602
f 602 508 1199
f 1224 514 234
f 771 474 250
f 265 791 266
f 791 265 720
f 458 921 732
f 793 171 721
f 915 495 42
f 803 73 405
f 314 469 155
f 1144 584 301
f 778 260 931
f 557 554 259
f 678 790 632
f 897 937 898
f 617 399 1146
f 68 399 380
f 354 655 360
f 1216 655 354
f 568 1197 1095
f 558 700 1159
f 258 1180 599
f 1233 753 305
f 6 305 753
f 464 216 676
f 724 581 149
f 222 724 149
f 933 1099 229
f 415 532 807
f 314 596 595
f 543 288 1231
f 375 321 543
f 367 593 167
f 1242 318 1207
f 1242 439 318
f 1242 784 439
f 1151 528 172
f 539 866 906
f 766 650 876
f 392 419 135
f 392 313 555
f 944 149 1097
f 155 1103 1137
f 625 1243 1034
f 845 151 1007
f 172 133 1210
f 731 647 663
f 847 424 1134
f 1234 458 1123
f 749 1203 947
f 528 1151 1129
f 723 724 222
f 352 303 745
f 231 1244 1132
f 1026 1132 1245
f 614 554 557
f 299 949 1232
f 1223 444 245
f 172 1210 366
f 1109 1246 610
f 272 1090 1030
f 384 1247 1071
f 1248 154 267
f 413 1120 415
f 662 303 1249
f 1136 535 487
f 940 656 457
f 136 814 419
f 519 632 726
f 681 675 193
f 1250 409 1225
f 768 771 250
f 900 1251 582
f 1025 630 1029
f 152 530 521
f 551 103 211
f 211 761 209
f 103 761 211
f 1083 176 536
f 348 245 444
f 229 1100 1173
f 154 1248 1252
f 128 127 119
f 753 24 6
f 390 281 730
f 409 1250 219
f 737 518 22
f 233 719 501
f 268 269 259
f 487 535 194
f 169 476 571
f 342 1190 173
f 300 725 1238
f 51 50 783
f 394 444 1167
f 1253 1226 548
f 543 697 226
f 777 96 854
f 854 96 556
f 373 252 526
f 870 676 650
f 642 155 1137
f 667 792 230
f 1147 575 1254
f 548 1070 1253
f 601 844 1091
f 601 1091 263
f 1154 424 976
f 816 139 94
f 513 346 1134
f 612 614 318
f 1255 1182 353
f 770 577 769
f 674 640 91
f 814 323 575
f 475 859 843
f 165 321 166
f 96 1112 365
f 1131 514 508
f 1256 602 1199
f 1131 508 280
f 809 720 435
f 338 312 702
f 720 265 435
f 344 435 437
f 55 808 727
f 941 676 870
f 1101 775 174
f 1117 154 1252
f 539 906 427
f 177 816 94
f 259 670 268
f 481 606 666
f 377 447 576
f 710 137 817
f 581 768 738
f 231 994 1244
f 700 1019 1221
f 788 826 12
f 1214 14 450
f 1193 203 241
f 1047 200 617
f 667 121 781
f 667 781 196
f 702 809 344
f 809 435 344
f 531 476 179
f 244 445 355
f 189 703 344
f 1211 470 451
f 1241 308 257
f 1010 679 660
f 679 1010 917
f 1208 557 269
f 494 403 555
f 76 877 916
f 632 98 726
f 669 1031 207
f 669 207 192
f 1234 1257 922
f 196 193 667
f 227 674 985
f 689 983 704
f 469 595 1040
f 684 1035 422
f 618 456 539
f 169 842 1081
f 618 774 456
f 200 1048 948
f 820 213 286
f 1119 272 405
f 1128 753 1233
f 1258 10 183
f 545 1145 909
f 170 804 273
f 1259 825 826
f 179 1152 588
f 243 355 465
f 659 9 361
f 523 674 91
f 136 204 322
f 793 721 443
f 303 499 1249
f 150 808 55
f 353 349 553
f 1124 371 1078
f 389 542 1023
f 865 456 1219
f 873 872 1260
f 1254 575 323
f 1254 323 611
f 416 248 934
f 137 357 817
f 463 293 1003
f 148 1217 477
f 19 423 978
f 746 27 288
f 727 808 648
f 622 198 257
f 359 432 1239
f 359 1239 910
f 1084 536 1043
f 1261 811 150
f 430 293 463
f 1086 532 122
f 1224 811 1261
f 234 1130 648
f 706 519 801
f 1176 705 251
f 150 811 808
