v -0.106681 -0.0848384 -0.143846
v -0.182884 -0.044769 -0.335861
v -0.192363 -0.047286 -0.320319
v -0.103799 0.151596 -0.163648
v 0.090068 -0.061201 -0.123797
v -0.102423 0.162991 -0.184786
v -0.149395 0.144921 -0.080224
v -0.149413 0.157021 -0.060176
v -0.163638 0.113012 0.130014
v -0.149443 0.119912 0.127379
v -0.149453 0.136428 0.110777
v -0.105646 0.0265321 -0.263633
v 0.235128 -0.135472 0.0802479
v 0.221865 -0.022008 -0.108932
v -0.110283 0.025937 -0.140437
v 0.28214 0.012697 -0.024731
v 0.0187723 -0.0385339 -0.126756
v 0.031874 0.023159 -0.117655
v 0.0133965 0.0390087 -0.0916447
v -0.149281 0.119707 -0.169294
v -0.149254 0.0943645 -0.15077
v -0.264553 0.078305 -0.073275
v -0.0526652 -0.0505421 0.147278
v 0.172984 0.0446412 -0.0696657
v 0.12631 -0.14641 -0.0889972
v 0.186985 -0.14591 -0.0726182
v -0.275374 0.0672659 0.0495889
v -0.118108 0.0535586 -0.134463
v -0.149361 0.033733 0.348299
v -0.149313 0.003016 0.356292
v -0.120629 0.0182941 0.347278
v -0.269037 -0.0405718 0.0914879
v -0.217201 -0.0225702 -0.136149
v -0.175966 0.114763 0.273648
v -0.11431 0.111109 -0.158787
v -0.149981 0.146865 -0.0835592
v -0.11839 0.0615217 0.335191
v 0.246933 -0.048411 -0.0973251
v -0.14904 -0.024106 -0.150547
v -0.1492 0.001043 -0.146793
v -0.149189 -0.045113 0.259465
v -0.23432 0.117218 0.021723
v -0.21223 0.132399 0.023556
v -0.148863 -0.058989 -0.354776
v -0.169267 -0.042914 -0.348698
v -0.148863 -0.042168 -0.360804
v 0.090157 -0.060802 0.123592
v -0.120834 0.112987 0.300559
v 0.247525 -0.0583716 0.0994865
v 0.222471 0.0144944 0.0903096
v -0.182589 0.0864596 -0.247767
v 0.090171 -0.166501 -0.044955
v 0.052943 -0.165207 -0.012234
v 0.144649 0.023244 -0.113936
v 0.179255 0.023474 -0.115745
v 0.291258 -0.0378885 0.003159
v 0.291299 -0.007697 0.006796
v -0.06217 -0.165853 0.0467942
v -0.149423 0.148268 0.0908
v -0.113083 0.136871 0.108185
v -0.182422 -0.009654 0.15389
v -0.215213 -0.008557 0.14432
v 0.25307 0.038554 0.012359
v 0.124551 -0.161639 0.0774918
v 0.224154 -0.0383229 0.115654
v -0.11236 0.094349 -0.114912
v -0.18296 -0.0440435 0.270885
v -0.191059 0.0867555 0.173182
v -0.149368 0.074267 0.207913
v -0.192584 0.096707 0.202766
v -0.192361 -0.049994 -0.297784
v -0.19059 -0.065985 -0.31119
v -0.183035 -0.118569 0.276896
v -0.181891 -0.15728 0.299513
v -0.184401 -0.0963325 0.142197
v -0.176155 0.159562 -0.256272
v 0.24749 -0.0128118 -0.0869193
v -0.107056 0.110115 -0.236855
v 0.22051 -0.121939 -0.0979414
v 0.0390883 -0.139785 -0.0905065
v -0.069248 0.078066 0.135093
v -0.050114 0.078898 0.12849
v -0.120302 0.181694 -0.168929
v 0.169825 0.058839 0.014783
v -0.09844 0.15775 -0.24968
v -0.106424 0.0704374 -0.25448
v 0.150229 0.036423 0.0775945
v -0.268471 -0.133774 0.0204469
v 0.226175 -0.0718908 -0.123359
v 0.136276 -0.110572 -0.120895
v -0.187997 0.117788 -0.298948
v 0.0244884 -0.129423 0.11222
v -0.19497 0.124803 -0.254426
v -0.194622 0.140163 -0.238505
v -0.182614 0.044556 -0.252968
v -0.116554 -0.0760711 -0.296961
v -0.149129 0.048925 -0.24253
v -0.00599051 -0.137833 -0.0880909
v -0.26554 -0.118739 0.0763717
v 0.0480294 -0.072684 -0.127386
v -0.120226 0.135827 0.238885
v -0.119829 -0.167233 0.084377
v -0.240613 -0.166531 0.0158849
v 0.168148 -0.135874 -0.105443
v -0.041941 0.117583 -0.083107
v 0.127291 0.0445638 0.0476067
v -0.035534 0.124587 -0.075709
v -0.116634 0.103324 -0.313634
v -0.27457 -0.0555053 -0.0766722
v 0.166217 -0.164919 0.0691993
v -0.103458 -0.0579506 0.156208
v 0.0500788 -0.157054 -0.0547752
v -0.00865416 -0.0119087 -0.127771
v -0.148998 -0.12969 0.133484
v 0.26891 0.017354 -0.063882
v 0.212872 0.0520867 -0.0295981
v 0.265685 -0.0788894 0.0778135
v -0.186075 -0.0148833 -0.340931
v -0.167646 -0.170735 0.297871
v -0.169413 -0.116731 0.264101
v -0.284667 0.036307 0.064098
v -0.290747 0.013784 0.024546
v -0.283202 0.0035395 0.051165
v -0.182879 -0.051217 -0.282136
v -0.27683 0.063999 -0.056695
v -0.0759735 -0.158807 -0.0543499
v -0.219917 -0.0617101 -0.138556
v -0.239038 -0.097626 -0.126869
v -0.110328 -0.120825 -0.128199
v -0.262851 -0.0167493 -0.0939081
v 0.0513392 -0.0922307 0.124359
v -0.283017 -0.0313806 0.0454178
v -0.0586438 0.155847 0.0622885
v -0.11726 0.0238779 -0.338786
v -0.095588 0.023311 -0.307746
v -0.252722 -0.0516904 -0.117547
v -0.100239 0.109893 0.270284
v -0.0443034 0.128999 0.0928363
v 0.253866 0.020079 -0.086617
v -0.163461 0.075105 -0.128092
v -0.14946 0.136059 0.179208
v -0.115828 -0.027081 0.350024
v -0.149021 -0.149493 0.269402
v -0.114312 -0.157486 0.305626
v -0.130224 -0.17039 0.301229
v -0.21538 0.073804 0.137782
v -0.149374 0.160455 -0.102585
v -0.190988 0.123593 -0.132609
v -0.176059 0.13009 -0.090415
v -0.171608 0.150095 -0.119673
v -0.108893 0.076963 0.143629
v -0.112421 0.062547 0.149081
v 0.224664 -0.125167 0.121149
v -0.2262 0.122402 0.0656297
v -0.0789159 0.171134 -0.00262207
v -0.109737 -0.0176245 -0.266801
v 0.167016 0.0487296 0.0446847
v 0.122634 -0.172195 -0.013059
v -0.117772 0.0784278 0.235215
v -0.195496 0.066835 -0.285034
v -0.195551 0.038454 -0.292406
v -0.185963 -0.045076 -0.14789
v -0.291299 0.008773 0.00878
v -0.078284 0.110723 0.119057
v -0.0845654 0.162571 -0.0364209
v -0.195691 -0.0338975 0.308185
v 0.122279 -0.0436114 0.128361
v -0.0411233 -0.0870381 -0.136356
v -0.222494 -0.182947 -0.014435
v -0.262211 0.0240394 0.104493
v -0.114592 0.168297 -0.0144714
v -0.264599 0.056806 0.104738
v -0.13437 0.139426 -0.08405
v -0.121637 0.130918 -0.089887
v -0.148873 -0.076182 -0.344019
v -0.182001 0.147118 0.025336
v -0.0504034 -0.0127251 -0.138465
v -0.233951 0.126375 -0.0140043
v 0.120466 -0.0681342 -0.127742
v -0.149514 -0.010326 0.1601
v -0.121545 0.083172 -0.122588
v -0.288902 0.009412 -0.009861
v 0.090153 -0.156096 0.081627
v -0.096221 -0.123776 0.31287
v -0.102556 -0.14086 0.30974
v -0.114589 0.0640572 -0.326502
v -0.167507 -0.096924 -0.314872
v 0.155316 -0.170183 -0.012809
v 0.206526 -0.006134 0.130145
v 0.129311 0.0162257 0.104359
v -0.114422 -0.0818483 0.347668
v 0.268877 -0.000147 0.081395
v -0.118801 0.12769 0.18084
v -0.1925 0.140286 -0.158984
v -0.104557 -0.049937 -0.299245
v -0.096349 -0.049965 -0.318474
v -0.094433 -0.035749 -0.316919
v -0.009164 0.060959 0.086154
v -0.016928 0.054565 0.093225
v -0.189476 0.1069 -0.106234
v -0.196817 0.110804 -0.112901
v -0.185567 0.094729 -0.114595
v -0.215324 0.102597 -0.101308
v -0.211255 -0.127169 -0.117478
v -0.074201 0.139345 -0.0685753
v -0.178707 0.176404 -0.185596
v -0.149249 0.115743 -0.227192
v -0.149027 -0.142954 0.345272
v 0.00790497 -0.154104 0.0841494
v 0.090344 -0.001865 -0.114909
v -0.221426 0.123898 -0.0601036
v -0.028208 0.053163 0.104707
v -0.029581 -0.156212 -0.011169
v -0.022591 0.052758 0.098809
v -0.0510478 -0.14342 -0.0890297
v -0.095747 -0.05165 0.319555
v -0.095244 -0.0805415 0.317109
v -0.148932 -0.096086 -0.145434
v -0.187055 0.131153 0.096401
v -0.17659 -0.121868 -0.126957
v -0.149315 0.165537 -0.265687
v -0.123578 0.171537 -0.260369
v 0.090205 -0.16717 0.058069
v -0.206397 0.0602159 -0.116706
v -0.265945 -0.0966482 -0.0899521
v -0.022553 0.072896 -0.068362
v -0.1494 0.059158 0.338758
v 0.275094 0.021822 0.010348
v -0.104544 0.00984312 0.277046
v 0.179179 -0.164353 0.0248942
v -0.105221 -0.175415 0.0350251
v -0.149282 0.132959 -0.217659
v -0.0887181 0.0310923 0.157694
v -0.256281 0.0906141 0.0796395
v 0.0646491 0.0540607 -0.0100523
v 0.015934 -0.156207 -0.011159
v 0.0469029 -0.158343 0.0739615
v -0.002864 0.085775 -0.046589
v 0.0097111 -0.160932 0.0387268
v -0.107016 0.159442 0.0673494
v -0.198324 0.145682 -0.0148705
v -0.169445 -0.126313 0.343566
v 0.0103373 -0.0903279 0.128706
v -0.107188 -0.0319106 0.276045
v -0.178784 -0.137819 0.120909
v -0.253626 0.020641 -0.09861
v -0.002893 0.070438 0.080725
v -0.005265 0.083879 0.087905
v -0.201991 -0.180101 0.0321984
v 0.193536 -0.0506101 0.125794
v -0.250339 0.0544372 -0.0936857
v -0.148977 -0.060375 -0.151589
v -0.226504 -0.0871649 0.132938
v -0.163527 0.040725 0.157291
v -0.1494 0.011751 0.159999
v -0.149286 0.033828 0.159898
v -0.149381 0.186496 -0.197301
v -0.149363 0.183044 -0.224301
v -0.0950105 -0.006219 -0.312333
v 0.132811 -0.17214 0.0316182
v -0.094741 -0.109433 0.314663
v -0.099243 0.166002 -0.23594
v -0.149359 0.026192 -0.143038
v -0.196619 -0.0515717 0.149489
v -0.185669 0.090643 0.138401
v -0.101184 0.167923 -0.204392
v -0.099934 0.168895 -0.224515
v -0.149298 0.133892 -0.183012
v -0.186261 -0.0306888 0.346313
v -0.003149 0.112886 -0.043569
v -0.0362326 -0.150187 -0.0518862
v -0.148956 -0.042102 -0.253363
v -0.0664495 -0.123637 -0.119506
v -0.149342 0.176439 -0.245908
v 0.00164954 -0.0797717 -0.13013
v -0.0318204 -0.0899355 0.136481
v -0.219836 0.102014 0.108902
v -0.126612 0.171313 0.028263
v -0.151772 0.161838 0.027116
v -0.149326 0.156709 0.064013
v -0.201737 -0.154257 0.100529
v -0.149327 0.0540475 0.183905
v -0.134306 0.040163 0.157533
v -0.11389 0.0634507 0.196306
v -0.231905 -0.161176 0.0782037
v -0.289886 0.007953 0.023082
v -0.009131 0.077857 -0.054116
v -0.016892 0.073325 -0.062506
v -0.149301 0.140237 -0.201207
v -0.184618 -0.170999 -0.0582989
v -0.149302 0.139113 -0.193576
v -0.134419 0.113665 0.129797
v -0.149246 -0.011883 0.262244
v -0.013477 0.024554 -0.127633
v -0.178275 0.0667559 0.260907
v -0.184748 0.148073 -0.053738
v -0.23543 0.0305622 0.131156
v -0.051428 0.164704 0.027485
v -0.148899 -0.179271 0.064853
v -0.11434 0.157382 -0.0565931
v 0.279257 -0.0307138 -0.0299781
v -0.0172729 0.0247043 0.120643
v -0.035579 0.101225 0.118216
v -0.286893 0.033161 0.011637
v -0.289722 0.028031 -0.015222
v -0.106317 0.129328 -0.134919
v -0.028167 0.07469 -0.073999
v 0.0604066 -0.130769 0.10845
v -0.0871835 -0.166387 0.0772186
v -0.149251 0.136105 -0.299984
v -0.14889 -0.083486 -0.281771
v -0.181746 -0.083454 -0.313278
v -0.175965 0.11829 0.176236
v -0.183958 0.0167023 -0.341742
v -0.149187 0.081864 -0.237337
v 0.0335875 -0.0072205 0.134552
v -0.148978 -0.001012 -0.355528
v 0.0584165 0.0133683 0.10559
v -0.119736 0.141478 -0.289255
v -0.186931 0.0275401 0.340588
v -0.149422 0.074679 0.329551
v -0.277761 -0.0721155 0.061835
v -0.193678 0.09841 0.242415
v -0.291002 -0.024417 0.004715
v -0.12071 -0.125403 0.337092
v -0.14903 -0.128348 0.355403
v 0.267607 -0.0434354 0.0724006
v -0.149392 0.181805 -0.152421
v -0.278725 0.059441 0.014741
v -0.185631 -0.00748826 -0.14539
v 0.282126 0.004627 0.042262
v -0.149393 0.084789 0.224608
v -0.069951 -0.009576 0.154859
v -0.109733 -0.009951 0.157479
v 0.211445 -0.151682 0.0489501
v -0.209123 -0.121953 0.125409
v -0.21181 -0.15496 -0.086615
v -0.276519 -0.000874 0.079248
v -0.276871 0.047052 0.085292
v -0.149293 0.047607 -0.137642
v -0.13424 0.074613 -0.128447
v -0.035754 0.081082 -0.081254
v -0.149226 0.069022 -0.132246
v -0.042181 0.065553 0.120716
v 0.286606 0.008773 0.00878
v -0.148905 -0.069282 -0.267226
v -0.148922 -0.054876 -0.257281
v 0.144592 -0.006306 0.131366
v 0.1772 0.0175853 0.103763
v 0.193949 -0.150226 0.102392
v 0.144706 -0.161193 -0.0542023
v 0.271089 -0.0803566 -0.0399671
v -0.19417 0.092892 0.260046
v -0.194524 0.085521 0.272455
v -0.12161 0.049868 0.153877
v -0.193087 0.149086 -0.178993
v -0.193575 0.151356 -0.197095
v -0.149393 0.163779 -0.037961
v 0.090824 -0.006443 0.123714
v 0.09024 0.010741 0.111052
v 0.077487 -0.006248 0.124851
v -0.116472 -0.11812 0.276913
v 0.250333 0.0317617 -0.0308248
v -0.282939 -0.0441336 -0.0349393
v -0.195097 0.059 0.291798
v -0.195323 0.042251 0.2991
v 0.131898 0.0362798 -0.0850622
v 0.117744 0.0222715 -0.110251
v 0.090272 0.034982 -0.090186
v -0.149392 0.075654 0.258042
v -0.0473082 0.15406 -0.0259723
v -0.097947 0.079916 0.303397
v -0.276114 -0.103406 0.0361482
v 0.274363 -0.0817516 0.0377573
v 0.089961 0.048633 0.013536
v 0.076986 0.052277 0.013972
v 0.09084 0.021299 -0.106566
v -0.036652 0.104355 -0.082683
v -0.042133 0.090529 -0.086611
v -0.050062 0.105339 -0.090997
v -0.121184 -0.178584 -0.0138855
v -0.232451 0.097441 -0.095378
v -0.093804 -0.173044 -0.013212
v -0.149479 0.122728 0.276388
v 0.137427 -0.0206135 -0.120859
v -0.17597 0.083815 -0.122109
v -0.149484 0.132493 0.250979
v -0.187526 0.0530394 -0.330479
v -0.02666 0.103233 -0.073289
v 0.155117 -0.0658637 -0.130589
v -0.04199 0.092665 0.123736
v -0.181491 0.034911 0.272381
v -0.148913 -0.027485 -0.36106
v 0.117708 -0.0063745 0.12754
v -0.003179 0.097491 0.08423
v -0.0575652 -0.153933 0.0971276
v -0.009534 0.104463 0.091699
v -0.149027 -0.13234 0.258512
v -0.000410454 0.061757 -0.0711716
v -0.149278 0.148996 -0.287355
v -0.149099 0.055597 -0.340173
v -0.149154 0.085733 -0.33035
v -0.102549 0.112547 0.232758
v -0.106605 0.0555802 0.269727
v -0.149363 0.056665 0.263213
v 0.245367 -0.116726 -0.0498781
v -0.0716809 -0.0534676 -0.145418
v -0.099511 0.104857 0.281462
v -0.232902 0.022939 -0.117386
v -0.102676 -0.143425 0.113778
v -0.190741 -0.13981 0.301631
v -0.192515 -0.121089 0.292394
v 0.0213145 0.0164093 0.107299
v 0.178552 -0.103013 0.129321
v -0.097388 0.064729 0.31032
v 0.0540763 0.0404706 -0.0735108
v -0.149309 0.165617 -0.009938
v -0.149038 -0.116157 0.252012
v -0.010312 -0.008193 0.144254
v 0.209846 0.056955 0.014566
v 0.228937 0.051345 0.013895
v -0.010515 0.122735 0.022439
v -0.096187 0.086121 -0.292715
v -0.038139 0.153603 0.026151
v 0.0317878 0.0621236 -0.0354358
v 0.077225 0.021764 -0.107676
v -0.183062 -0.12507 0.330661
v -0.149032 -0.156926 0.330594
v -0.098663 0.093785 0.293737
v -0.06282 0.170717 0.028207
v -0.084041 0.17578 0.028812
v -0.163588 0.138844 -0.084429
v -0.035799 0.057648 0.11327
v -0.240376 -0.0459575 0.127859
v -0.195183 -0.092939 0.306122
v 0.291216 -0.06808 -0.000478
v 0.278886 -0.10239 -0.004614
v -0.0217354 -0.118279 -0.119379
v -0.176111 0.103086 0.133743
v -0.12063 -0.043682 -0.342033
v -0.148863 -0.160549 -0.090544
v 0.185193 -0.0338446 -0.123412
v 0.014226 0.089289 0.041267
v -0.149389 0.185906 -0.174686
v -0.181106 0.025439 -0.137401
v -0.225972 -0.164434 -0.0505048
v -0.216893 0.024064 -0.126499
v 0.089863 0.050168 -0.02883
v -0.195634 -0.004577 0.307764
v -0.0616925 -0.164628 -0.0121905
v -0.0772465 -0.0951593 -0.13794
v -0.149208 -0.060195 0.36106
v -0.149014 -0.013058 -0.250544
v 0.090011 -0.090677 0.120864
v 0.142647 -0.137058 0.110719
v -0.253331 -0.150267 0.0483604
v -0.253721 -0.005175 0.115681
v -0.0530735 0.0311513 0.138886
v -0.148953 -0.178646 0.296908
v -0.263754 -0.15897 -0.011556
v -0.0262621 -0.157357 0.068959
v -0.0352171 0.0522099 -0.105442
v 0.157057 -0.0529511 0.129171
v -0.2477 0.090401 -0.087259
v -0.0636531 -0.123152 0.128166
v -0.194461 -0.048852 -0.309069
v -0.181097 -0.148633 -0.10038
v -0.149304 0.021347 0.265022
v 0.129256 0.0501039 -0.0521096
v -0.096374 0.015379 0.31957
v -0.0960605 -0.0181355 0.319562
v 0.002992 0.085511 0.074493
v 0.186653 -0.09598 -0.132214
v -0.169272 -0.052477 -0.269253
v -0.149402 0.087352 0.236109
v -0.243339 -0.128026 0.111462
v -0.282433 0.01292 -0.036867
v 0.20658 0.023118 -0.112683
v -0.149468 0.11118 0.295807
v -0.14945 0.095894 0.312433
v -0.247749 0.065263 0.121211
v 0.232418 0.022055 -0.103371
v 0.0522772 0.031853 0.0759543
v -0.114562 -0.167842 -0.0538327
v -0.148815 -0.174333 -0.056902
v -0.149043 0.025461 -0.349996
v -0.0796852 0.141479 0.0921955
v -0.261743 -0.0831735 0.105141
v -0.149476 0.138595 0.20627
v -0.022689 0.108567 0.105532
v -0.0958875 0.054716 -0.300231
v 0.090237 -0.15042 -0.080971
v -0.148858 -0.144234 -0.114439
v 0.168072 0.055829 -0.0237941
v -0.00532031 -0.0477296 0.136439
v -0.0257431 -0.0478202 -0.136235
v 0.089845 0.040063 0.055057
v 0.0061753 -0.149793 -0.0513783
v -0.106033 0.175878 0.028818
v -0.187673 0.142243 0.0564629
v -0.096881 0.040054 0.314945
v 0.243017 0.0283399 0.0507699
v 0.249503 -0.124814 0.0310433
v 0.262519 -0.125238 -0.007371
v -0.119022 0.161138 -0.125867
v -0.177986 0.125208 0.22941
v -0.193181 0.100505 0.224291
v -0.149207 0.113673 -0.31529
v -0.193956 -0.186496 -0.014856
v 0.179748 -0.157644 -0.0399495
v -0.149043 -0.096463 0.14795
v -0.149483 0.137291 0.228872
v -0.148905 -0.1691 0.091941
v -0.149108 -0.060982 0.155553
v 0.258592 -0.108126 0.0651535
v -0.148835 -0.184669 0.028898
v -0.009373 -0.153775 -0.010871
v -0.253945 0.099071 0.019533
v -0.14908 -0.114297 0.359278
v -0.269832 0.077648 0.016938
v -0.194742 0.077703 0.279981
v -0.277342 -0.133642 -0.008508
v -0.0297504 -0.158972 0.0255041
v -0.116351 -0.0127997 -0.342394
v -0.009501 0.121434 -0.049172
v -0.194407 0.145971 -0.229338
v -0.275154 -0.0931732 -0.0477293
v -0.284973 -0.106263 -0.005212
v -0.235897 -0.007142 0.132244
v 0.090146 -0.087243 -0.122771
v 0.09017 -0.112364 -0.115541
v -0.195748 -0.063218 0.308606
v -0.186881 -0.0841547 0.348219
v -0.149144 -0.087246 0.360169
v -0.191575 -0.0883159 -0.140187
v -0.121689 0.104013 0.133453
v -0.112464 0.091369 0.138209
v 0.213313 -0.141694 -0.0480005
v 0.014236 0.094716 -0.003779
v 0.003018 0.098937 -0.036953
v -0.149072 0.015986 -0.247724
v 0.255728 -0.0871826 -0.0845765
v -0.245299 -0.135665 -0.0929493
v 0.179205 -0.006515 0.133192
v 0.129918 -0.0903711 0.127616
v -0.101274 0.11278 0.253748
v -0.17934 0.178372 -0.225788
v 0.090195 -0.134066 -0.101223
v 0.057107 -0.0231732 -0.11977
v 0.090206 -0.031533 -0.119353
v -0.195191 0.110266 -0.265496
v -0.186925 -0.0834842 0.268055
v -0.19406 0.150183 -0.215532
v -0.0985484 -0.0128084 -0.147564
v -0.069193 0.1061 -0.097619
v -0.104715 -0.0756544 0.26877
v -0.185781 0.0914216 -0.321797
v -0.148945 -0.152296 0.115424
v -0.131325 -0.052733 -0.267799
v -0.0401315 -0.0088845 0.149557
v 0.090155 -0.174237 0.019262
v -0.0715963 -0.0865535 0.144792
v 0.0254935 -0.111738 -0.116782
v 0.0456659 -0.0489861 0.128122
v -0.106431 0.0915135 0.176159
v -0.275202 0.0730977 -0.0174189
v 0.089777 0.031199 0.079703
v -0.100383 -0.149276 -0.0944452
v -0.189534 0.076804 0.143598
v -0.042342 0.025118 -0.132735
v -0.148528 0.120835 0.130912
v 0.280241 -0.0356977 0.0366587
v -0.071207 0.025682 -0.137837
v 0.220621 0.0370932 -0.0703824
v -0.149434 0.129691 0.15279
v -0.268628 -0.002873 0.096679
v -0.104615 -0.120428 0.293956
v -0.108835 0.107059 -0.10619
v -0.149311 -0.035654 0.157826
v -0.148826 -0.104878 -0.315803
v -0.249354 -0.172909 -0.013232
v 0.253826 -0.002899 0.104121
v -0.148887 -0.122335 -0.133259
v -0.185614 0.119109 -0.097898
v -0.195034 -0.0193895 -0.304424
v -0.114564 0.133085 -0.202133
v -0.02265 0.128705 -0.061639
v 0.090303 -0.030927 0.12632
v -0.0171647 0.0667309 0.101926
v -0.18417 -0.00199806 0.274036
v -0.149261 -0.0285895 0.358676
v -0.036699 0.079916 0.120187
v -0.257363 0.102139 -0.0401231
v -0.184932 -0.174064 0.0672199
v -0.174934 0.0866467 0.23231
v -0.27663 -0.0168893 -0.063886
v 0.089952 -0.174207 -0.013309
v -0.14913 -0.074007 0.255287
v -0.11241 0.119764 -0.097506
v -0.005232 0.100537 -0.050372
v -0.0190504 0.0879218 -0.0700534
v -0.131454 -0.116657 0.262652
v -0.185628 0.062994 0.14883
v -0.117469 -0.085258 -0.319016
v -0.128938 -0.094842 -0.318127
v -0.0759792 0.0702791 -0.123434
v -0.11635 -0.051027 -0.282067
v 0.267633 -0.0428187 -0.0667788
v -0.284664 0.048383 -0.038658
v -0.194617 -0.12266 0.303638
v -0.192528 -0.123814 0.314951
v -0.275964 0.016428 -0.063873
v 0.1097 0.048934 0.013576
v -0.121445 0.182302 -0.231392
v -0.115354 -0.0507337 -0.149663
v -0.171431 0.136969 -0.202981
v 0.12725 0.0519307 -0.0167876
v 0.139763 0.0538865 0.0141795
v -0.290705 -0.057607 0.00065
v -0.0191801 -0.13432 0.116162
v -0.232503 0.070203 0.130787
v 0.232369 -0.004957 0.120857
v 0.22034 -0.0811559 0.120692
v -0.258674 -0.134859 -0.0499216
v -0.106623 -0.108599 0.14161
v -0.103968 0.106064 0.208688
v 0.0514316 -0.168074 0.0277442
v -0.017943 0.125785 0.0598398
v -0.149389 0.172915 -0.126736
v -0.197194 0.0268117 0.148173
v 0.22944 -0.148908 -0.010229
v -0.0147593 0.130436 -0.0145687
v -0.180142 0.164586 -0.147509
v -0.149072 -0.102901 0.251109
v -0.195607 0.010073 -0.299779
v 0.090092 -0.115731 0.113682
v 0.090119 -0.138416 0.100691
v 0.199412 0.0415796 0.0675512
v -0.026702 0.081058 0.110798
v 0.0200851 0.050127 0.0773666
v -0.148564 -0.184123 -0.014559
v 0.0472566 0.0531784 0.0453122
v -0.149296 0.139069 -0.208556
v 0.017109 0.091866 0.018727
v -0.18592 -0.00641751 -0.263648
v 0.089811 0.047411 -0.054874
v 0.249427 -0.101497 0.101478
v -0.181475 0.080653 0.314498
v -0.103965 -0.067694 -0.319311
v -0.149402 0.08375 0.25065
v -0.268095 0.018418 -0.08048
v 0.057573 0.062413 0.015188
v -0.176035 0.050609 0.15354
v 0.199066 -0.160429 -0.011624
v -0.097227 0.134046 -0.271493
v -0.096707 0.110083 -0.282104
v -0.149405 0.08663 0.243788
v 0.037341 0.0771395 0.0169575
v -0.103799 0.151596 -0.163648
v -0.102423 0.162991 -0.184786
v -0.163638 0.113012 0.130014
v -0.191059 0.0867555 0.173182
v -0.149021 -0.149493 0.269402
v -0.190988 0.123593 -0.132609
v -0.149254 0.0943645 -0.15077
v -0.149281 0.119707 -0.169294
v -0.149395 0.144921 -0.080224
v -0.149413 0.157021 -0.060176
v -0.189476 0.1069 -0.106234
v -0.215324 0.102597 -0.101308
v -0.19417 0.092892 0.260046
v -0.149468 0.11118 0.295807
v -0.182884 -0.044769 -0.335861
v -0.149453 0.136428 0.110777
v -0.181746 -0.083454 -0.313278
v -0.149249 0.115743 -0.227192
v -0.149393 0.084789 0.224608
v -0.276519 -0.000874 0.079248
v 0.015934 -0.156207 -0.011159
v -0.263754 -0.15897 -0.011556
v -0.249354 -0.172909 -0.013232
v -0.149443 0.119912 0.127379
v -0.1494 0.011751 0.159999
v -0.134306 0.040163 0.157533
v -0.149286 0.033828 0.159898
v -0.036652 0.104355 -0.082683
v -0.035534 0.124587 -0.075709
v -0.19497 0.124803 -0.254426
v -0.126612 0.171313 0.028263
v -0.193575 0.151356 -0.197095
v -0.148863 -0.042168 -0.360804
v 0.090272 0.034982 -0.090186
v -0.12063 -0.043682 -0.342033
v -0.149129 0.048925 -0.24253
v -0.167507 -0.096924 -0.314872
v 0.090153 -0.156096 0.081627
v 0.090119 -0.138416 0.100691
v -0.149286 0.033828 0.159898
v -0.185669 0.090643 0.138401
v 0.076986 0.052277 0.013972
v 0.089961 0.048633 0.013536
v -0.17597 0.083815 -0.122109
v -0.11236 0.094349 -0.114912
v -0.149309 0.165617 -0.009938
v -0.163527 0.040725 0.157291
v -0.149286 0.033828 0.159898
v -0.149327 0.0540475 0.183905
v -0.253945 0.099071 0.019533
v -0.269832 0.077648 0.016938
v -0.095244 -0.0805415 0.317109
v -0.183035 -0.118569 0.276896
v -0.149278 0.148996 -0.287355
v -0.149043 -0.096463 0.14795
v -0.112421 0.062547 0.149081
v -0.108893 0.076963 0.143629
v -0.106431 0.0915135 0.176159
v -0.009373 -0.153775 -0.010871
v -0.149476 0.138595 0.20627
v -0.222494 -0.182947 -0.014435
v -0.176059 0.13009 -0.090415
v -0.013477 0.024554 -0.127633
v -0.050114 0.078898 0.12849
v -0.042181 0.065553 0.120716
v -0.149342 0.176439 -0.245908
v 0.052943 -0.165207 -0.012234
v 0.20658 0.023118 -0.112683
v 0.232418 0.022055 -0.103371
v -0.148873 -0.076182 -0.344019
v -0.149363 0.183044 -0.224301
v -0.149313 0.003016 0.356292
v -0.149361 0.033733 0.348299
v 0.090206 -0.031533 -0.119353
v 0.031874 0.023159 -0.117655
v 0.0335875 -0.0072205 0.134552
v -0.215213 -0.008557 0.14432
v -0.041941 0.117583 -0.083107
v -0.005265 0.083879 0.087905
v -0.009534 0.104463 0.091699
v -0.050114 0.078898 0.12849
v -0.069248 0.078066 0.135093
v -0.192363 -0.047286 -0.320319
v -0.195551 0.038454 -0.292406
v 0.057573 0.062413 0.015188
v 0.090195 -0.134066 -0.101223
v -0.042342 0.025118 -0.132735
v -0.100239 0.109893 0.270284
v -0.103965 -0.067694 -0.319311
v -0.117469 -0.085258 -0.319016
v -0.19059 -0.065985 -0.31119
v 0.117744 0.0222715 -0.110251
v 0.090344 -0.001865 -0.114909
v 0.144649 0.023244 -0.113936
v -0.099511 0.104857 0.281462
v -0.109733 -0.009951 0.157479
v -0.282433 0.01292 -0.036867
v -0.149402 0.087352 0.236109
v -0.149301 0.140237 -0.201207
v -0.284973 -0.106263 -0.005212
v 0.090092 -0.115731 0.113682
v -0.195607 0.010073 -0.299779
v -0.149302 0.139113 -0.193576
v -0.149282 0.132959 -0.217659
v -0.149038 -0.116157 0.252012
v -0.169413 -0.116731 0.264101
v 0.209846 0.056955 0.014566
v -0.042133 0.090529 -0.086611
v 0.169825 0.058839 0.014783
v 0.139763 0.0538865 0.0141795
v 0.28214 0.012697 -0.024731
v -0.0958875 0.054716 -0.300231
v -0.035754 0.081082 -0.081254
v -0.283202 0.0035395 0.051165
v 0.090171 -0.166501 -0.044955
v 0.089952 -0.174207 -0.013309
v -0.148998 -0.12969 0.133484
v -0.13437 0.139426 -0.08405
v -0.149374 0.160455 -0.102585
v 0.090146 -0.087243 -0.122771
v 0.090068 -0.061201 -0.123797
v -0.275964 0.016428 -0.063873
v -0.190741 -0.13981 0.301631
v -0.149246 -0.011883 0.262244
v -0.096349 -0.049965 -0.318474
v -0.104557 -0.049937 -0.299245
v -0.182879 -0.051217 -0.282136
v -0.192361 -0.049994 -0.297784
v -0.096374 0.015379 0.31957
v -0.149395 0.144921 -0.080224
v -0.21538 0.073804 0.137782
v -0.149027 -0.13234 0.258512
v -0.149038 -0.116157 0.252012
v -0.149072 -0.102901 0.251109
v -0.131454 -0.116657 0.262652
v -0.149038 -0.116157 0.252012
v -0.149099 0.055597 -0.340173
v -0.291299 0.008773 0.00878
v -0.289886 0.007953 0.023082
v -0.149423 0.148268 0.0908
v -0.148953 -0.178646 0.296908
v -0.101274 0.11278 0.253748
v -0.102549 0.112547 0.232758
v -0.149392 0.181805 -0.152421
v -0.0950105 -0.006219 -0.312333
v -0.195034 -0.0193895 -0.304424
v -0.27683 0.063999 -0.056695
v -0.016928 0.054565 0.093225
v -0.010312 -0.008193 0.144254
v -0.121689 0.104013 0.133453
v 0.089961 0.048633 0.013536
v 0.089863 0.050168 -0.02883
v -0.02265 0.128705 -0.061639
v -0.148863 -0.042168 -0.360804
v -0.169267 -0.042914 -0.348698
v -0.148913 -0.027485 -0.36106
v -0.106317 0.129328 -0.134919
v -0.108835 0.107059 -0.10619
v -0.149434 0.129691 0.15279
v -0.093804 -0.173044 -0.013212
v -0.149261 -0.0285895 0.358676
v -0.149208 -0.060195 0.36106
v -0.095747 -0.05165 0.319555
v -0.276871 0.047052 0.085292
v -0.069193 0.1061 -0.097619
v -0.149514 -0.010326 0.1601
v 0.089952 -0.174207 -0.013309
v -0.194617 -0.12266 0.303638
v -0.148932 -0.096086 -0.145434
v -0.096707 0.110083 -0.282104
v -0.097227 0.134046 -0.271493
v -0.192584 0.096707 0.202766
v -0.195496 0.066835 -0.285034
v -0.195191 0.110266 -0.265496
v -0.1925 0.140286 -0.158984
v -0.192515 -0.121089 0.292394
v -0.264599 0.056806 0.104738
v 0.179205 -0.006515 0.133192
v 0.206526 -0.006134 0.130145
v 0.037341 0.0771395 0.0169575
v -0.149304 0.021347 0.265022
v -0.195323 0.042251 0.2991
v -0.195097 0.059 0.291798
v -0.193956 -0.186496 -0.014856
v -0.14913 -0.074007 0.255287
v -0.149189 -0.045113 0.259465
v -0.167646 -0.170735 0.297871
v -0.009501 0.121434 -0.049172
v 0.25307 0.038554 0.012359
v -0.148826 -0.104878 -0.315803
v -0.149479 0.122728 0.276388
v -0.149298 0.133892 -0.183012
v -0.050062 0.105339 -0.090997
v -0.149108 -0.060982 0.155553
v -0.148905 -0.1691 0.091941
v -0.148899 -0.179271 0.064853
v -0.194461 -0.048852 -0.309069
v -0.0616925 -0.164628 -0.0121905
v -0.194461 -0.048852 -0.309069
v -0.148863 -0.160549 -0.090544
v -0.148815 -0.174333 -0.056902
v -0.11241 0.119764 -0.097506
v -0.151772 0.161838 0.027116
v 0.09084 0.021299 -0.106566
v -0.0960605 -0.0181355 0.319562
v -0.148863 -0.058989 -0.354776
v -0.148863 -0.042168 -0.360804
v 0.089961 0.048633 0.013536
v 0.089845 0.040063 0.055057
v 0.1097 0.048934 0.013576
v -0.193087 0.149086 -0.178993
v -0.022553 0.072896 -0.068362
v -0.149207 0.113673 -0.31529
v -0.148564 -0.184123 -0.014559
v -0.195748 -0.063218 0.308606
v -0.195691 -0.0338975 0.308185
v -0.121637 0.130918 -0.089887
v -0.253626 0.020641 -0.09861
v -0.149483 0.137291 0.228872
v -0.149484 0.132493 0.250979
v 0.090824 -0.006443 0.123714
v 0.090303 -0.030927 0.12632
v -0.148564 -0.184123 -0.014559
v 0.014236 0.094716 -0.003779
v -0.232902 0.022939 -0.117386
v 0.090237 -0.15042 -0.080971
v 0.155316 -0.170183 -0.012809
v -0.0401315 -0.0088845 0.149557
v 0.291216 -0.06808 -0.000478
v -0.12161 0.049868 0.153877
v -0.193678 0.09841 0.242415
v -0.148956 -0.042102 -0.253363
v -0.268095 0.018418 -0.08048
v -0.169272 -0.052477 -0.269253
v -0.149389 0.172915 -0.126736
v -0.009164 0.060959 0.086154
v -0.002893 0.070438 0.080725
v 0.228937 0.051345 0.013895
v 0.002992 0.085511 0.074493
v -0.19406 0.150183 -0.215532
v -0.194407 0.145971 -0.229338
v -0.028208 0.053163 0.104707
v -0.022591 0.052758 0.098809
v -0.181891 -0.15728 0.299513
v -0.149381 0.186496 -0.197301
v -0.284667 0.036307 0.064098
v -0.149311 -0.035654 0.157826
v -0.009131 0.077857 -0.054116
v -0.016892 0.073325 -0.062506
v 0.144592 -0.006306 0.131366
v -0.268628 -0.002873 0.096679
v -0.253721 -0.005175 0.115681
v 0.090011 -0.090677 0.120864
v 0.090157 -0.060802 0.123592
v 0.291299 -0.007697 0.006796
v -0.247749 0.065263 0.121211
v -0.284664 0.048383 -0.038658
v 0.291258 -0.0378885 0.003159
v -0.216893 0.024064 -0.126499
v -0.010515 0.122735 0.022439
v 0.014226 0.089289 0.041267
v 0.089952 -0.174207 -0.013309
v -0.14945 0.095894 0.312433
v -0.235897 -0.007142 0.132244
v -0.099243 0.166002 -0.23594
v -0.099934 0.168895 -0.224515
v -0.149187 0.081864 -0.237337
v -0.148858 -0.144234 -0.114439
v -0.148826 -0.104878 -0.315803
v -0.128938 -0.094842 -0.318127
v -0.14889 -0.083486 -0.281771
v -0.108835 0.107059 -0.10619
v -0.288902 0.009412 -0.009861
v -0.084041 0.17578 0.028812
v 0.282126 0.004627 0.042262
v 0.09084 0.021299 -0.106566
v 0.077225 0.021764 -0.107676
v -0.149251 0.136105 -0.299984
v -0.149032 -0.156926 0.330594
v -0.12071 -0.125403 0.337092
v -0.148922 -0.054876 -0.257281
v -0.131325 -0.052733 -0.267799
v -0.114312 -0.157486 0.305626
v -0.289722 0.028031 -0.015222
v -0.106033 0.175878 0.028818
v -0.291002 -0.024417 0.004715
v 0.262519 -0.125238 -0.007371
v 0.22944 -0.148908 -0.010229
v -0.035799 0.057648 0.11327
v -0.149443 0.119912 0.127379
v -0.026702 0.081058 0.110798
v -0.148905 -0.069282 -0.267226
v -0.14908 -0.114297 0.359278
v -0.149144 -0.087246 0.360169
v -0.149363 0.056665 0.263213
v -0.182001 0.147118 0.025336
v -0.151772 0.161838 0.027116
v 0.253866 0.020079 -0.086617
v -0.097947 0.079916 0.303397
v -0.097388 0.064729 0.31032
v -0.096187 0.086121 -0.292715
v -0.149315 0.165537 -0.265687
v -0.050114 0.078898 0.12849
v -0.036699 0.079916 0.120187
v -0.04199 0.092665 0.123736
v -0.095588 0.023311 -0.307746
v 0.26891 0.017354 -0.063882
v 0.275094 0.021822 0.010348
v 0.286606 0.008773 0.00878
v 0.09024 0.010741 0.111052
v 0.090824 -0.006443 0.123714
v 0.117708 -0.0063745 0.12754
v -0.149043 0.025461 -0.349996
v -0.148978 -0.001012 -0.355528
v -0.028167 0.07469 -0.073999
v -0.149368 0.074267 0.207913
v -0.130224 -0.17039 0.301229
v -0.148953 -0.178646 0.296908
v -0.232503 0.070203 0.130787
v 0.09017 -0.112364 -0.115541
v 0.017109 0.091866 0.018727
v -0.098663 0.093785 0.293737
v -0.108893 0.076963 0.143629
v -0.193181 0.100505 0.224291
v -0.195634 -0.004577 0.307764
v 0.077487 -0.006248 0.124851
v -0.003179 0.097491 0.08423
v -0.189534 0.076804 0.143598
v -0.094433 -0.035749 -0.316919
v -0.096349 -0.049965 -0.318474
v 0.179255 0.023474 -0.115745
v -0.13424 0.074613 -0.128447
v -0.103968 0.106064 0.208688
v -0.094741 -0.109433 0.314663
v -0.148977 -0.060375 -0.151589
v -0.21223 0.132399 0.023556
v -0.149422 0.074679 0.329551
v 0.017109 0.091866 0.018727
v -0.050062 0.105339 -0.090997
v -0.14903 -0.128348 0.355403
v -0.09844 0.15775 -0.24968
v -0.149226 0.069022 -0.132246
v -0.110283 0.025937 -0.140437
v 0.199066 -0.160429 -0.011624
v -0.101184 0.167923 -0.204392
v 0.002992 0.085511 0.074493
v -0.149514 -0.010326 0.1601
v -0.121184 -0.178584 -0.0138855
v -0.149389 0.185906 -0.174686
v -0.096881 0.040054 0.314945
v -0.149393 0.163779 -0.037961
v -0.022689 0.108567 0.105532
v -0.189476 0.1069 -0.106234
v -0.185614 0.119109 -0.097898
v -0.290747 0.013784 0.024546
v -0.290705 -0.057607 0.00065
v -0.069951 -0.009576 0.154859
v -0.149027 -0.142954 0.345272
v -0.182422 -0.009654 0.15389
v -0.051428 0.164704 0.027485
v -0.06282 0.170717 0.028207
v -0.050062 0.105339 -0.090997
v -0.194461 -0.048852 -0.309069
v -0.149154 0.085733 -0.33035
v 0.122634 -0.172195 -0.013059
v -0.149402 0.08375 0.25065
v -0.149405 0.08663 0.243788
v 0.278886 -0.10239 -0.004614
v -0.194617 -0.12266 0.303638
v 0.002992 0.085511 0.074493
v -0.183062 -0.12507 0.330661
v -0.195183 -0.092939 0.306122
v 0.232369 -0.004957 0.120857
v -0.102556 -0.14086 0.30974
v -0.104615 -0.120428 0.293956
v -0.096221 -0.123776 0.31287
v -0.108835 0.107059 -0.10619
v 0.253826 -0.002899 0.104121
v -0.149392 0.075654 0.258042
v -0.277342 -0.133642 -0.008508
v -0.176111 0.103086 0.133743
v -0.148887 -0.122335 -0.133259
v 0.089811 0.047411 -0.054874
v -0.1492 0.001043 -0.146793
v -0.181106 0.025439 -0.137401
v -0.038139 0.153603 0.026151
v 0.286606 0.008773 0.00878
v -0.11635 -0.051027 -0.282067
v -0.096349 -0.049965 -0.318474
v -0.149072 0.015986 -0.247724
v -0.14946 0.136059 0.179208
v -0.14904 -0.024106 -0.150547
v 0.286606 0.008773 0.00878
v -0.278725 0.059441 0.014741
v -0.194742 0.077703 0.279981
v -0.096221 -0.123776 0.31287
v 0.090824 -0.006443 0.123714
v -0.232451 0.097441 -0.095378
v -0.121545 0.083172 -0.122588
v -0.148835 -0.184669 0.028898
v -0.149014 -0.013058 -0.250544
v -0.029581 -0.156212 -0.011169
v -0.148922 -0.054876 -0.257281
v -0.192528 -0.123814 0.314951
v -0.194617 -0.12266 0.303638
v -0.149514 -0.010326 0.1601
v -0.169445 -0.126313 0.343566
v -0.14903 -0.128348 0.355403
v 0.268877 -0.000147 0.081395
v -0.003149 0.112886 -0.043569
v -0.002864 0.085775 -0.046589
v 0.003018 0.098937 -0.036953
v -0.005232 0.100537 -0.050372
v 0.003018 0.098937 -0.036953
v -0.149226 0.069022 -0.132246
v -0.112464 0.091369 0.138209
v -0.176035 0.050609 0.15354
v -0.1494 0.059158 0.338758
v -0.116472 -0.11812 0.276913
v -0.194524 0.085521 0.272455
v -0.194622 0.140163 -0.238505
v -0.148953 -0.178646 0.296908
v -0.149359 0.026192 -0.143038
v -0.151772 0.161838 0.027116
v 0.089777 0.031199 0.079703
v -0.163461 0.075105 -0.128092
v -0.108893 0.076963 0.143629
v -0.149296 0.139069 -0.208556
v -0.286893 0.033161 0.011637
v -0.149359 0.026192 -0.143038
v -0.148826 -0.104878 -0.315803
v -0.149326 0.156709 0.064013
v 0.090205 -0.16717 0.058069
v -0.071207 0.025682 -0.137837
v -0.264553 0.078305 -0.073275
v -0.2477 0.090401 -0.087259
v -0.149293 0.047607 -0.137642
v -0.291299 0.008773 0.00878
v -0.291299 0.008773 0.00878
v -0.149226 0.069022 -0.132246
v 0.003018 0.098937 -0.036953
v -0.148564 -0.184123 -0.014559
v -0.02666 0.103233 -0.073289
v -0.149359 0.026192 -0.143038
v -0.291299 0.008773 0.00878
v -0.148945 -0.152296 0.115424
v -0.23432 0.117218 0.021723
v -0.035579 0.101225 0.118216
v 0.090155 -0.174237 0.019262
v 0.017109 0.091866 0.018727
v -0.189534 0.076804 0.143598
v -0.291299 0.008773 0.00878
v -0.14903 -0.128348 0.355403
v 0.09084 0.021299 -0.106566
v -0.148922 -0.054876 -0.257281
v -0.096221 -0.123776 0.31287
f 118 2 3
f 4 586 6
f 9 10 11
f 295 392 365
f 12 156 259
f 20 21 148
f 26 104 79
f 391 303 164
f 29 30 31
f 37 321 227
f 83 659 660
f 83 505 659
f 44 45 46
f 477 182 305
f 491 186 423
f 661 313 575
f 68 313 265
f 439 313 661
f 662 69 70
f 73 143 74
f 313 439 265
f 70 595 507
f 505 83 328
f 420 494 84
f 559 156 272
f 113 496 177
f 373 619 528
f 316 495 564
f 33 447 330
f 33 409 447
f 33 330 162
f 105 205 107
f 127 33 162
f 535 127 162
f 5 549 550
f 635 388 314
f 73 120 143
f 121 122 123
f 635 314 118
f 314 388 486
f 317 118 314
f 388 401 486
f 75 264 253
f 62 434 264
f 27 234 518
f 27 518 520
f 663 144 145
f 7 147 8
f 664 149 150
f 81 151 152
f 290 446 337
f 35 181 341
f 665 35 341
f 160 161 95
f 35 66 181
f 35 665 666
f 460 624 581
f 170 297 172
f 173 667 668
f 200 203 584
f 26 510 351
f 84 494 618
f 544 250 189
f 322 32 132
f 616 20 194
f 195 196 197
f 669 148 670
f 201 202 670
f 154 219 500
f 479 480 48
f 506 323 353
f 510 26 538
f 212 302 214
f 556 216 217
f 92 308 131
f 221 274 222
f 656 108 319
f 319 108 508
f 319 508 310
f 586 232 207
f 108 423 186
f 532 269 166
f 60 240 59
f 533 269 532
f 23 560 333
f 23 276 495
f 198 247 248
f 333 111 23
f 633 150 629
f 254 255 256
f 671 595 295
f 104 25 90
f 616 268 20
f 473 89 79
f 354 34 353
f 34 672 384
f 278 279 280
f 45 175 673
f 284 282 283
f 34 648 672
f 601 287 288
f 289 586 291
f 60 674 292
f 150 633 664
f 312 72 673
f 236 239 517
f 300 173 668
f 627 239 236
f 239 523 517
f 425 448 416
f 311 675 187
f 657 475 159
f 403 546 159
f 475 332 159
f 51 676 93
f 51 93 551
f 51 315 676
f 422 644 539
f 677 595 69
f 32 576 338
f 121 678 339
f 498 112 679
f 549 18 426
f 82 81 344
f 16 345 57
f 549 426 210
f 452 269 533
f 233 152 355
f 616 356 357
f 358 300 668
f 359 360 361
f 55 574 478
f 367 368 369
f 103 680 681
f 661 575 682
f 375 448 376
f 378 379 380
f 381 484 383
f 683 684 685
f 625 111 511
f 386 148 21
f 111 579 514
f 686 687 389
f 111 514 511
f 395 628 397
f 120 398 143
f 147 150 149
f 688 76 400
f 494 420 116
f 194 20 148
f 53 627 236
f 128 535 204
f 628 138 397
f 73 411 412
f 170 172 339
f 673 175 312
f 404 159 546
f 689 171 417
f 418 398 120
f 422 632 424
f 137 404 546
f 69 595 70
f 242 427 428
f 206 553 690
f 45 44 175
f 147 149 432
f 434 457 32
f 183 308 237
f 637 308 183
f 393 440 691
f 416 646 692
f 95 97 315
f 108 402 508
f 247 472 248
f 131 454 47
f 649 604 693
f 12 86 694
f 428 119 459
f 312 175 695
f 309 102 231
f 696 64 697
f 512 506 387
f 233 81 152
f 506 512 489
f 506 489 313
f 493 467 220
f 237 308 92
f 581 446 169
f 282 698 283
f 569 699 146
f 484 485 441
f 64 260 110
f 14 38 89
f 700 497 701
f 652 642 700
f 702 224 202
f 606 578 555
f 578 606 703
f 350 13 153
f 335 13 350
f 201 670 148
f 616 194 356
f 241 176 704
f 261 191 325
f 705 706 707
f 708 566 709
f 710 191 261
f 405 468 295
f 392 366 365
f 100 530 531
f 568 273 215
f 273 129 451
f 536 565 537
f 568 129 273
f 363 574 116
f 54 24 55
f 258 547 257
f 231 58 309
f 369 368 377
f 552 711 435
f 171 155 165
f 707 69 662
f 136 128 225
f 319 310 712
f 347 559 272
f 300 174 173
f 713 75 114
f 372 48 37
f 714 715 716
f 717 498 679
f 640 199 302
f 462 294 570
f 642 497 700
f 574 482 478
f 642 483 497
f 206 547 553
f 577 556 217
f 695 175 580
f 101 193 718
f 233 355 684
f 103 681 719
f 74 411 73
f 80 112 498
f 584 296 720
f 3 466 585
f 548 112 80
f 177 721 113
f 592 722 723
f 724 76 547
f 463 545 414
f 597 725 52
f 24 469 494
f 726 14 442
f 14 726 727
f 728 604 605
f 527 109 225
f 109 596 130
f 364 596 109
f 614 274 729
f 39 615 252
f 320 730 731
f 385 179 732
f 294 19 733
f 720 296 432
f 334 180 579
f 390 179 385
f 561 260 223
f 734 318 413
f 285 476 99
f 218 615 1
f 630 297 735
f 1 615 407
f 587 632 525
f 218 1 129
f 736 687 686
f 1 451 129
f 17 18 549
f 639 737 738
f 739 164 740
f 673 72 741
f 564 495 243
f 24 574 55
f 730 269 591
f 89 38 542
f 662 653 707
f 388 635 742
f 743 425 658
f 744 25 492
f 745 177 573
f 480 37 48
f 678 121 123
f 746 101 48
f 48 408 746
f 747 96 748
f 156 197 259
f 124 71 749
f 750 385 751
f 385 750 752
f 657 159 650
f 429 404 753
f 233 684 754
f 98 563 80
f 223 260 64
f 407 177 496
f 596 755 612
f 756 295 595
f 616 643 757
f 352 542 608
f 132 286 163
f 636 308 637
f 758 527 522
f 415 37 501
f 563 98 438
f 697 455 759
f 760 645 161
f 616 757 761
f 616 762 643
f 311 124 675
f 161 645 95
f 763 764 634
f 319 655 656
f 293 67 590
f 705 707 653
f 469 24 367
f 80 563 531
f 139 574 115
f 268 616 761
f 574 363 115
f 765 157 638
f 462 766 342
f 767 157 765
f 106 157 768
f 115 363 769
f 51 160 95
f 417 171 358
f 86 12 770
f 716 626 284
f 601 771 379
f 230 110 260
f 188 230 260
f 60 59 674
f 110 350 455
f 132 772 286
f 773 158 774
f 694 541 12
f 89 473 442
f 410 625 775
f 471 229 470
f 467 290 337
f 776 505 777
f 618 617 613
f 239 627 237
f 179 778 779
f 251 780 125
f 781 611 610
f 390 473 90
f 614 267 262
f 437 374 503
f 244 41 782
f 782 229 244
f 413 419 734
f 351 25 104
f 60 164 487
f 783 784 747
f 576 32 457
f 103 719 509
f 487 164 138
f 785 645 786
f 787 37 31
f 37 787 501
f 29 31 37
f 788 776 777
f 789 603 662
f 602 790 791
f 792 793 794
f 186 795 402
f 431 499 240
f 122 796 797
f 409 130 246
f 243 131 564
f 11 798 219
f 37 227 29
f 145 799 663
f 101 800 801
f 629 802 633
f 524 134 803
f 786 645 804
f 614 266 267
f 805 593 22
f 589 806 198
f 495 807 560
f 60 292 808
f 136 225 109
f 107 205 587
f 453 156 541
f 352 406 542
f 809 613 810
f 687 811 389
f 812 813 814
f 35 4 306
f 35 306 66
f 35 586 4
f 625 511 775
f 351 104 26
f 116 574 24
f 815 599 816
f 292 817 536
f 536 193 565
f 817 193 536
f 817 571 674
f 292 571 817
f 292 674 571
f 136 33 127
f 206 802 444
f 231 818 450
f 604 728 693
f 562 23 111
f 78 85 586
f 792 556 793
f 142 819 820
f 820 191 142
f 821 142 191
f 773 25 351
f 2 118 813
f 822 234 27
f 105 823 205
f 351 158 773
f 47 564 131
f 824 754 683
f 627 53 825
f 17 100 275
f 100 549 5
f 305 609 477
f 412 411 826
f 421 502 63
f 9 11 219
f 513 102 558
f 583 220 827
f 299 231 102
f 631 406 504
f 112 52 725
f 78 828 829
f 588 564 47
f 830 313 68
f 91 831 832
f 633 833 664
f 111 333 334
f 435 711 834
f 80 531 548
f 792 598 556
f 835 481 234
f 349 836 837
f 443 642 838
f 229 839 404
f 371 155 298
f 371 298 424
f 840 648 841
f 108 656 423
f 842 290 641
f 91 688 400
f 91 832 688
f 529 434 62
f 108 186 402
f 547 94 526
f 843 67 844
f 845 74 143
f 601 379 378
f 811 846 389
f 130 136 109
f 414 455 350
f 191 534 519
f 847 363 116
f 211 203 382
f 220 204 535
f 414 350 153
f 848 728 605
f 601 288 226
f 554 15 573
f 48 101 849
f 849 479 48
f 132 32 338
f 463 544 348
f 463 250 544
f 754 684 683
f 586 666 850
f 566 708 593
f 736 686 851
f 75 713 852
f 394 167 348
f 853 594 854
f 640 483 642
f 510 538 654
f 348 167 463
f 855 749 71
f 271 213 856
f 473 104 90
f 741 72 857
f 290 858 859
f 177 407 554
f 502 421 765
f 205 860 174
f 689 417 861
f 426 862 210
f 142 821 863
f 693 864 865
f 866 867 868
f 471 244 229
f 374 437 436
f 802 206 633
f 633 869 833
f 870 399 307
f 254 630 255
f 554 407 615
f 557 91 871
f 249 872 516
f 414 250 463
f 67 873 874
f 438 215 273
f 505 776 875
f 506 313 830
f 651 251 876
f 396 309 58
f 309 396 410
f 13 335 503
f 101 877 878
f 24 494 116
f 319 712 221
f 675 124 749
f 99 456 285
f 394 879 880
f 639 738 490
f 488 99 476
f 456 103 249
f 881 484 381
f 538 631 654
f 744 90 25
f 205 174 300
f 59 240 280
f 658 425 882
f 883 251 224
f 884 112 548
f 351 510 885
f 302 886 419
f 142 30 819
f 887 301 56
f 284 283 888
f 284 714 716
f 671 889 595
f 249 509 872
f 645 474 890
f 284 888 714
f 596 612 891
f 311 892 124
f 498 271 98
f 581 624 446
f 718 193 141
f 552 435 873
f 552 764 711
f 777 505 893
f 648 354 521
f 894 640 895
f 431 240 133
f 420 896 116
f 897 628 395
f 327 117 374
f 374 572 327
f 132 163 324
f 898 899 616
f 589 900 901
f 396 620 465
f 902 427 781
f 590 392 468
f 831 388 742
f 192 50 582
f 614 903 266
f 614 729 903
f 502 50 192
f 101 718 877
f 805 566 593
f 556 244 216
f 27 904 822
f 751 385 732
f 803 134 135
f 135 134 186
f 264 852 905
f 906 399 907
f 732 179 779
f 23 562 276
f 349 908 836
f 549 210 550
f 496 113 17
f 842 446 290
f 461 58 523
f 433 344 458
f 170 909 910
f 477 609 780
f 302 413 640
f 60 808 164
f 911 545 912
f 331 572 913
f 92 209 237
f 914 297 621
f 367 54 368
f 566 805 915
f 110 455 64
f 916 572 436
f 383 484 126
f 917 224 445
f 918 628 919
f 568 126 484
f 804 645 760
f 290 859 641
f 920 260 561
f 167 880 912
f 648 921 672
f 297 922 735
f 315 51 95
f 205 165 371
f 586 923 924
f 925 78 207
f 432 296 8
f 926 568 441
f 927 928 929
f 930 860 823
f 364 931 755
f 858 290 467
f 79 538 26
f 170 339 678
f 155 932 430
f 933 228 502
f 77 608 38
f 302 458 886
f 692 934 935
f 278 240 499
f 186 134 795
f 659 505 815
f 91 936 871
f 132 338 772
f 209 92 620
f 14 77 38
f 810 617 469
f 165 300 171
f 530 100 5
f 587 205 371
f 208 937 938
f 939 346 940
f 938 941 185
f 566 915 942
f 410 102 309
f 943 171 689
f 488 253 434
f 896 847 116
f 371 165 155
f 625 562 111
f 603 653 662
f 554 573 177
f 935 416 692
f 131 243 92
f 590 67 874
f 449 590 874
f 933 502 192
f 205 823 860
f 494 617 618
f 505 599 815
f 931 364 944
f 945 503 946
f 592 723 947
f 406 352 504
f 674 948 817
f 468 392 295
f 589 949 947
f 13 647 153
f 950 892 311
f 533 951 952
f 780 609 125
f 838 642 652
f 370 159 953
f 891 130 596
f 954 500 955
f 77 727 956
f 404 957 958
f 14 727 77
f 86 770 959
f 461 523 239
f 505 328 893
f 503 374 515
f 374 117 515
f 410 396 465
f 493 220 583
f 462 307 399
f 724 960 76
f 410 465 625
f 205 300 165
f 434 529 457
f 961 962 963
f 241 178 43
f 60 487 240
f 126 568 215
f 387 34 384
f 638 50 502
f 953 404 839
f 12 259 964
f 594 281 285
f 94 547 76
f 147 629 150
f 253 264 434
f 831 91 557
f 965 77 956
f 624 527 225
f 225 543 624
f 634 552 843
f 966 967 769
f 297 789 621
f 17 549 100
f 968 969 970
f 645 785 474
f 971 134 972
f 91 400 936
f 104 473 79
f 372 37 415
f 79 542 406
f 50 837 622
f 949 592 947
f 23 495 560
f 146 699 277
f 269 730 320
f 54 367 24
f 249 285 456
f 281 336 476
f 771 601 973
f 282 284 974
f 975 937 976
f 280 240 278
f 593 211 464
f 456 88 103
f 17 113 18
f 146 277 977
f 167 912 545
f 764 552 634
f 778 179 978
f 327 49 117
f 326 208 938
f 979 658 882
f 189 250 65
f 408 48 980
f 565 981 537
f 224 917 883
f 362 556 577
f 322 132 619
f 264 905 61
f 506 830 982
f 106 87 157
f 593 464 22
f 983 269 320
f 564 588 984
f 396 58 461
f 156 12 541
f 985 738 737
f 662 986 789
f 987 988 440
f 193 817 141
f 96 929 928
f 442 14 89
f 989 442 385
f 343 990 340
f 790 602 663
f 881 485 484
f 858 467 493
f 467 337 204
f 407 451 1
f 991 101 801
f 387 506 34
f 419 413 302
f 925 86 78
f 991 193 101
f 565 193 991
f 515 647 13
f 564 984 316
f 184 577 992
f 206 257 547
f 86 925 694
f 535 162 993
f 297 914 172
f 275 496 17
f 76 688 94
f 518 154 42
f 234 154 518
f 273 451 168
f 273 168 438
f 814 118 317
f 42 154 994
f 921 648 995
f 919 996 918
f 41 556 598
f 907 399 870
f 291 586 850
f 997 823 105
f 519 998 325
f 433 302 212
f 535 827 220
f 262 999 614
f 118 3 585
f 614 222 274
f 990 606 28
f 990 28 340
f 595 677 756
f 341 1000 665
f 28 606 1001
f 340 28 1001
f 527 364 109
f 813 118 814
f 293 844 67
f 230 1002 946
f 317 314 486
f 586 1003 6
f 1004 985 737
f 1005 61 905
f 271 498 213
f 818 231 1006
f 595 889 507
f 83 1007 328
f 229 1008 470
f 34 354 648
f 919 628 897
f 545 455 414
f 1008 229 404
f 482 574 139
f 973 601 226
f 852 264 75
f 1009 8 296
f 303 1010 138
f 155 171 943
f 1011 1012 664
f 941 937 975
f 843 552 67
f 503 945 437
f 102 410 558
f 476 285 281
f 775 558 410
f 304 1013 904
f 409 33 136
f 27 304 904
f 523 58 450
f 450 58 231
f 625 465 562
f 364 758 1014
f 209 239 237
f 50 349 837
f 638 349 50
f 1015 458 233
f 242 428 1016
f 1017 630 735
f 753 404 137
f 96 607 929
f 133 1018 1019
f 222 614 999
f 606 555 1020
f 650 159 370
f 960 400 76
f 613 617 810
f 804 1021 786
f 323 506 982
f 388 1022 401
f 920 1023 260
f 391 164 739
f 8 147 36
f 432 8 36
f 432 36 147
f 1024 295 1025
f 207 78 586
f 364 1014 944
f 807 495 316
f 159 284 626
f 86 828 78
f 498 717 213
f 616 93 676
f 504 352 1026
f 233 754 1015
f 134 524 972
f 132 324 619
f 994 500 954
f 416 448 646
f 1027 435 834
f 57 301 16
f 56 301 57
f 99 322 373
f 404 958 1008
f 275 438 168
f 37 480 321
f 96 784 607
f 1028 895 640
f 1029 533 1030
f 528 88 373
f 16 301 965
f 96 928 748
f 90 179 390
f 271 126 215
f 566 329 709
f 734 361 318
f 272 156 453
f 589 901 806
f 589 248 949
f 589 198 248
f 65 1031 189
f 795 134 971
f 1032 1033 1034
f 935 733 416
f 428 427 902
f 442 989 726
f 269 983 166
f 111 334 579
f 306 1035 66
f 371 632 587
f 938 937 941
f 632 270 525
f 632 540 270
f 452 533 952
f 49 327 1036
f 632 422 539
f 295 1024 1037
f 103 88 1038
f 1038 88 528
f 87 106 567
f 106 867 567
f 567 190 87
f 1039 277 699
f 759 455 545
f 129 1040 218
f 349 638 87
f 106 868 867
f 51 551 160
f 469 1041 810
f 263 15 40
f 503 335 946
f 582 50 622
f 1042 330 1043
f 276 465 620
f 1037 405 295
f 992 577 217
f 628 133 138
f 1044 133 628
f 220 467 204
f 526 553 547
f 660 266 83
f 374 436 572
f 590 468 293
f 933 1045 228
f 154 500 994
f 1046 156 559
f 1043 330 447
f 543 204 337
f 978 179 90
f 1047 649 693
f 1028 640 443
f 442 473 390
f 211 296 584
f 203 211 584
f 95 645 1048
f 335 350 110
f 586 85 923
f 1048 97 95
f 575 313 1049
f 230 188 1002
f 130 409 136
f 590 449 366
f 303 138 164
f 993 162 1050
f 1051 331 913
f 27 520 1052
f 295 365 1053
f 632 539 540
f 793 556 362
f 171 300 358
f 433 458 302
f 557 871 1022
f 977 277 481
f 846 600 389
f 481 277 234
f 261 325 1054
f 112 884 52
f 633 206 869
f 428 902 119
f 427 611 781
f 154 277 219
f 243 620 92
f 984 588 1055
f 223 64 696
f 1056 224 251
f 594 249 516
f 458 1015 886
f 385 752 989
f 251 651 780
f 211 178 241
f 768 157 767
f 606 1057 703
f 1006 231 1058
f 136 127 128
f 496 275 168
f 496 168 407
f 645 890 1059
f 608 77 965
f 617 494 469
f 363 966 769
f 369 1041 469
f 156 195 197
f 517 523 1060
f 1061 890 474
f 903 83 266
f 615 218 252
f 1062 1030 1063
f 244 556 41
f 1064 255 1017
f 222 319 221
f 429 957 404
f 159 626 403
f 1065 1066 951
f 250 414 623
f 327 572 1067
f 563 275 100
f 373 322 619
f 30 142 31
f 135 186 491
f 922 297 910
f 281 594 853
f 233 458 81
f 458 344 81
f 492 25 773
f 846 1068 600
f 542 79 89
f 130 891 246
f 596 364 755
f 31 142 787
f 586 924 1003
f 178 593 708
f 399 906 238
f 83 903 1007
f 19 399 425
f 19 416 733
f 13 503 515
f 188 260 1023
f 366 392 590
f 620 461 209
f 201 148 202
f 235 425 743
f 235 743 376
f 235 376 448
f 393 524 440
f 138 1010 397
f 835 234 822
f 509 249 103
f 647 49 623
f 869 206 690
f 287 601 1069
f 363 847 966
f 929 940 346
f 600 1068 1070
f 1069 1071 1072
f 762 616 676
f 1036 327 1067
f 39 554 615
f 276 620 243
f 766 606 1020
f 390 385 442
f 21 1073 140
f 1074 164 808
f 230 946 335
f 638 157 87
f 765 638 502
f 630 1075 603
f 336 245 75
f 114 75 245
f 1050 330 1042
f 1044 628 918
f 462 342 307
f 162 330 1050
f 995 648 1076
f 1077 1033 144
f 1077 663 602
f 524 803 987
f 524 987 440
f 1032 144 1033
f 144 663 1077
f 1078 295 1053
f 616 899 1079
f 413 318 483
f 680 103 1038
f 143 1080 845
f 591 269 452
f 27 1052 304
f 647 515 117
f 352 301 887
f 456 373 88
f 372 980 48
f 666 586 35
f 1009 296 704
f 849 101 878
f 1081 1042 1043
f 65 250 623
f 219 277 1039
f 219 1039 9
f 34 506 353
f 965 301 608
f 241 704 296
f 747 784 96
f 704 176 1082
f 1083 483 318
f 336 75 253
f 953 159 404
f 98 80 498
f 425 416 19
f 352 608 301
f 1084 224 702
f 740 164 1085
f 170 910 297
f 630 254 1075
f 789 297 630
f 630 603 789
f 1017 255 630
f 623 153 647
f 371 424 632
f 425 235 448
f 873 67 552
f 593 178 211
f 131 308 454
f 1086 586 289
f 538 406 631
f 664 1012 149
f 170 678 909
f 942 1087 329
f 497 483 1083
f 340 1001 1088
f 746 800 101
f 311 187 1089
f 1090 500 219
f 616 1079 93
f 176 241 43
f 211 382 464
f 299 102 513
f 249 594 285
f 758 364 527
f 624 522 527
f 624 460 522
f 78 829 85
f 159 974 284
f 1083 318 360
f 360 318 361
f 1091 237 627
f 606 1092 1001
f 797 123 122
f 642 443 640
f 49 65 623
f 406 538 79
f 563 100 531
f 523 450 1060
f 1067 572 331
f 313 489 1049
f 487 133 240
f 128 127 535
f 106 768 868
f 462 19 294
f 854 594 516
f 202 224 670
f 251 1093 1094
f 19 462 399
f 257 206 444
f 251 883 876
f 1095 224 1084
f 336 281 245
f 931 944 1096
f 1087 942 1097
f 215 438 98
f 1098 1095 1084
f 241 296 211
f 430 298 155
f 505 875 599
f 648 521 841
f 1099 425 238
f 425 399 238
f 882 425 1099
f 455 697 64
f 856 126 271
f 110 230 335
f 535 993 827
f 40 554 39
f 446 842 169
f 554 40 15
f 191 519 325
f 1006 1058 1100
f 606 462 1092
f 204 543 128
f 645 1059 1048
f 18 113 721
f 118 585 635
f 276 243 495
f 253 488 476
f 373 456 99
f 469 367 369
f 168 451 407
f 880 167 394
f 831 557 388
f 655 319 999
f 1022 388 557
f 955 500 1090
f 129 926 1040
f 153 623 414
f 1057 606 990
f 589 947 900
f 601 1101 1071
f 840 320 648
f 190 968 970
f 190 567 968
f 63 502 228
f 1074 1085 164
f 190 970 908
f 349 87 190
f 351 885 158
f 1026 352 887
f 1095 1102 445
f 159 332 974
f 434 32 488
f 462 606 766
f 214 302 199
f 572 916 913
f 117 49 647
f 191 820 534
f 156 1046 195
f 586 1086 232
f 219 798 1090
f 964 770 12
f 566 942 329
f 396 461 620
f 126 856 383
f 1013 304 1103
f 216 244 471
f 533 1029 1065
f 129 568 926
f 308 636 454
f 209 461 239
f 1093 251 125
f 724 547 258
f 983 320 840
f 191 710 821
f 114 245 1104
f 167 545 463
f 178 1105 43
f 224 1056 670
f 86 959 828
f 1062 1029 1030
f 199 640 894
f 853 245 281
f 1104 245 853
f 487 138 133
f 639 1106 962
f 1056 251 1094
f 386 202 148
f 759 545 911
f 295 756 1025
f 627 825 1107
f 908 349 190
f 319 222 999
f 32 322 488
f 99 488 322
f 1108 443 838
f 1109 68 265
f 728 864 693
f 62 264 61
f 978 90 744
f 721 177 745
f 112 725 679
f 337 446 543
f 446 624 543
f 1106 963 962
f 98 271 215
f 972 524 393
f 445 224 1095
f 898 616 357
f 533 1065 951
f 510 654 885
f 542 38 608
f 601 378 1101
f 639 490 1106
f 1058 231 299
f 1069 601 1071
f 1110 305 182
f 276 562 465
f 21 140 386
f 648 320 1076
f 1076 320 731
f 242 1016 1111
f 563 438 275
f 940 929 607
f 1030 533 532
f 627 1107 1091
f 253 476 336
f 277 154 234
f 155 943 932
f 483 640 413
f 1112 750 751
f 1105 178 708
f 1018 133 1044
f 225 128 543
f 671 295 1078
f 568 484 441
f 892 950 1113
f 229 782 839
f 1031 65 1036
f 65 49 1036
f 1091 183 237
f 142 863 787
f 462 570 1092
f 938 185 1114
f 133 1019 431
