v -0.08378 0.046607 0.057329
v -0.087237 0.072358 0.058658
v -0.137348 0.0946334 0.204237
v -0.113879 0.0708405 0.235421
v 0.170295 0.107922 -0.217543
v -0.106873 0.0794117 0.162112
v -0.119854 -0.0300944 -0.00124251
v -0.28056 0.0755215 -0.032912
v 0.160342 -0.0292536 0.0747114
v 0.13622 -0.013709 0.111526
v 0.100851 0.115725 -0.150295
v -0.295797 -0.0136665 -0.298716
v -0.318634 0.0293419 -0.197503
v -0.176381 -0.0376345 0.0940875
v 0.189439 0.0818554 0.244916
v 0.249612 0.101969 0.144681
v 0.25026 0.0959801 0.183317
v -0.144671 0.0764537 -0.268298
v -0.009768 0.073276 -0.240335
v -0.138123 -0.041255 0.294553
v -0.103509 -0.00689867 0.0882743
v -0.089509 0.021105 0.054604
v 0.130696 0.088314 0.074386
v 0.123839 0.093631 0.045791
v 0.110863 0.072144 0.046712
v -0.16434 0.028511 0.362352
v -0.193073 0.0200833 0.346462
v 0.0615681 -0.0754011 -0.234772
v -0.298822 -0.010749 -0.12578
v -0.156817 -0.0743695 -0.0474086
v -0.266659 -0.0936794 -0.168208
v 0.0896804 0.112831 -0.175165
v 0.020692 0.050008 0.026726
v 0.006286 0.051091 0.029017
v -0.229159 0.116376 -0.073223
v -0.219249 0.117701 -0.102093
v -0.237277 0.11515 -0.079591
v 0.107232 0.046383 0.045857
v 0.089477 0.023482 0.003132
v 0.112516 0.020887 0.042422
v -0.182726 0.120017 0.0310685
v -0.155095 0.117868 0.061428
v -0.192289 0.117348 -0.132284
v -0.190281 0.118128 -0.098276
v 0.0977835 0.121457 -0.101582
v -0.0939391 0.10234 -0.212235
v -0.005801 0.109836 -0.173878
v -0.00398 0.114951 -0.144142
v 0.0309635 0.115209 -0.146193
v 0.267546 0.100605 -0.0470931
v -0.319682 0.0216356 -0.238611
v -0.124514 0.0306129 0.332434
v -0.304553 0.0214978 -0.274592
v -0.12057 -0.0512858 -0.0435756
v 0.24196 0.109806 0.035838
v 0.246687 0.112594 -0.0071546
v 0.244511 -0.0543093 -0.017694
v -0.252579 0.077573 0.093911
v -0.224105 0.106874 0.100848
v -0.239766 0.095627 0.063856
v -0.218599 0.110327 0.06355
v -0.222031 0.090253 0.196314
v 0.0661757 0.100252 -0.227755
v 0.204447 0.119951 0.039662
v 0.207408 0.116953 0.0849345
v 0.221668 0.117781 0.038135
v -0.223447 -0.113945 -0.0932296
v 0.306856 0.0236304 -0.272631
v 0.281046 0.060737 -0.290558
v 0.0998571 -0.0945205 -0.214736
v -0.277131 0.0284983 -0.300333
v 0.0955862 -0.0852034 -0.260602
v -0.0681328 0.0842028 0.0351855
v -0.195041 -0.068393 -0.019695
v 0.254749 -0.0901624 -0.261851
v -0.309937 -0.0194302 -0.256275
v -0.291594 0.092229 -0.1255
v -0.30312 0.08029 -0.124946
v 0.295983 0.022666 0.02784
v -0.14649 -0.109415 -0.105844
v 0.136196 0.112337 0.0116869
v -0.097796 0.0820554 -0.249812
v -0.124391 0.0497177 -0.29127
v -0.002546 0.117657 -0.118639
v -0.26601 -0.0367968 -0.310404
v -0.254121 -0.066529 -0.296032
v -0.0827086 0.126379 -0.0619915
v 0.227278 -0.0931741 -0.293832
v -0.0977972 0.111236 -0.173346
v 0.0494263 0.0045127 -0.320491
v -0.100326 -0.061057 -0.138541
v -0.086458 -0.051325 -0.139242
v -0.255097 0.078751 0.064559
v -0.268121 0.053072 0.06355
v -0.103474 0.088627 0.088376
v -0.105174 0.0840193 0.125244
v -0.194167 0.114468 -0.166881
v -0.230255 0.116074 -0.129826
v 0.309647 0.033024 0.124414
v 0.0687917 -0.0708337 -0.190565
v 0.127247 -0.0401328 -0.343897
v 0.237515 -0.0471023 0.0597779
v -0.156068 -0.0519651 -0.0146734
v -0.087885 0.104991 0.027589
v -0.250061 0.076395 0.123263
v 0.034215 -0.0527995 -0.176037
v 0.0505591 0.109892 -0.185804
v 0.305604 0.0739257 -0.156331
v -0.012604 -0.017831 -0.288756
v 0.316746 0.0134193 0.189407
v -0.0476326 0.00300229 -0.306688
v -0.180876 0.120387 0.062848
v -0.167739 -0.00663446 -0.338172
v 0.179917 -0.030423 -0.365451
v -0.09229 0.0157167 -0.310937
v -0.123466 -0.0122862 -0.32939
v -0.010014 -0.064122 -0.24623
v 0.005204 -0.064589 -0.249599
v -0.008758 -0.062101 -0.224551
v -0.0885663 0.00459642 0.198794
v 0.124635 -0.0175615 -0.00087291
v -0.254752 -0.0124332 0.250605
v -0.192684 -0.09599 -0.056824
v -0.190327 -0.123587 -0.093953
v -0.242112 0.072521 0.182378
v -0.142582 0.114955 -0.158947
v -0.281751 0.058499 -0.274504
v -0.158804 0.111553 -0.18225
v 0.102617 0.049446 -0.304879
v -0.011729 0.043507 -0.27463
v -0.0527789 0.0686947 -0.254687
v -0.164137 -0.010832 0.360439
v -0.211869 -0.0485073 0.123572
v 0.222944 0.101584 -0.250362
v -0.186424 0.119278 -0.03249
v -0.184575 0.119648 -0.000711
v -0.150332 0.11778 -0.084793
v -0.108573 0.074804 0.19898
v -0.0863176 0.0416775 0.218403
v -0.27645 -0.080447 -0.20469
v -0.085627 0.015884 0.016908
v -0.09403 0.009155 0.025
v 0.108343 0.0416518 0.0771217
v -0.267249 -0.064245 -0.28473
v 0.171489 0.103367 0.121627
v 0.262977 0.095059 0.033605
v 0.183231 0.068142 -0.305389
v 0.182345 0.052816 -0.323805
v 0.246762 -0.0482649 0.0938449
v -0.230381 -0.049966 0.0198859
v 0.232232 -0.120104 -0.200368
v 0.114705 0.099908 0.026186
v 0.138038 0.10432 0.044557
v 0.222747 0.117041 -0.128686
v 0.194461 0.117693 -0.121426
v 0.217191 0.0931595 0.236285
v -0.0021125 -0.0226455 -0.112117
v 0.27456 -0.056207 -0.271557
v 0.0388023 -0.0286011 -0.105957
v 0.153218 -0.0216514 -0.358804
v 0.113374 -0.073882 -0.116825
v 0.295431 -0.0164905 -0.0848308
v 0.129849 0.0432852 0.205399
v 0.210294 -0.047789 0.155816
v 0.137665 0.05177 -0.315849
v 0.212685 0.107246 -0.218987
v 0.233746 0.108802 -0.203879
v 0.112608 0.0269868 0.109139
v 0.185095 -0.0193758 -0.364723
v -0.239332 0.114268 -0.0232968
v 0.265296 -0.041007 0.027719
v 0.27594 -0.031573 0.027843
v 0.115493 -0.069289 -0.315782
v 0.274457 0.103056 -0.159649
v 0.255365 0.11087 -0.1587
v 0.253922 0.111958 -0.132218
v -0.1228 0.121979 -0.0722459
v -0.248145 0.0812584 -0.264264
v -0.164084 0.116819 -0.134142
v -0.177841 0.108317 -0.196596
v -0.196314 0.106954 -0.200994
v -0.102904 0.115956 -0.138036
v -0.135879 0.116291 -0.136
v -0.130102 0.111326 0.060321
v 0.292485 -0.0215529 -0.298944
v -0.246086 0.074458 0.15282
v 0.28275 0.100213 -0.126659
v 0.303804 0.071288 -0.11255
v 0.291718 0.091568 -0.160599
v -0.137802 -0.069022 -0.300862
v 0.155295 -0.126966 -0.186417
v 0.188422 -0.137518 -0.177167
v 0.166157 -0.135261 -0.155744
v -0.0814983 -0.0322469 -0.308241
v 0.179664 -0.015985 -0.366722
v -0.13769 -0.0345471 0.114104
v -0.199025 -0.051556 0.20492
v -0.308044 0.02333 -0.124652
v 0.190085 0.114033 -0.190003
v 0.153135 0.1112 -0.201019
v -0.0314505 0.0916601 0.030384
v -0.0527253 0.109743 -0.182742
v -0.160872 -0.0981036 -0.075869
v -0.074734 0.023307 0.013208
v -0.229706 0.0981495 -0.233842
v 0.303897 0.0118155 -0.0635611
v 0.134053 -0.00926 0.034126
v 0.13037 -0.00713 0.0741233
v -0.272498 0.00060384 0.148451
v -0.112142 -0.073168 -0.138002
v -0.17591 0.114393 0.15345
v 0.279851 0.078458 -0.022158
v 0.277545 0.078954 0.00174
v 0.03252 0.044798 -0.28294
v -0.239191 0.109337 -0.175421
v 0.233703 -0.067081 -0.325385
v -0.100206 0.093846 0.059391
v -0.01243 0.026841 -0.286235
v -0.012697 0.014686 -0.29048
v -0.260112 -0.077893 -0.0835373
v -0.088075 0.0392861 0.262823
v -0.137914 0.108163 0.10985
v 0.132559 0.0125507 -0.347933
v 0.201333 -0.0964355 -0.0805325
v 0.300513 0.0206294 -0.0120737
v 0.149942 -0.0850447 -0.0873664
v -0.136785 -0.0385781 0.154078
v 0.0943361 -0.0330386 -0.335863
v -0.0626511 0.0516574 0.0313118
v -0.168489 -0.051381 0.273702
v 0.101779 0.016113 0.005273
v -0.119184 0.066877 0.271863
v -0.125758 0.064646 0.293573
v 0.305526 -0.0118318 -0.197282
v -0.158862 -0.0896366 -0.273738
v 0.124122 -0.108073 -0.185595
v -0.233437 0.069406 0.226203
v -0.259175 0.036103 0.245863
v -0.190094 -0.133338 -0.113581
v 0.261347 0.063459 0.268709
v 0.247045 0.0865053 0.226733
v 0.219126 0.084324 0.266444
v 0.026572 0.136508 -0.002233
v 0.215199 -0.05168 0.224379
v 0.217045 -0.051817 0.250505
v 0.250913 0.061914 0.289339
v 0.227598 -0.0370559 -0.349344
v -0.155918 -0.116686 -0.208838
v -0.130164 -0.0956275 -0.238758
v -0.156297 -0.0435662 0.296063
v -0.102182 -0.000344 0.050478
v 0.190397 0.062294 0.294152
v -0.0902323 0.0215891 0.0980977
v -0.203052 0.0932343 0.227175
v 0.280695 -0.051673 -0.243167
v -0.289438 -0.046047 -0.167805
v -0.285628 -0.044133 -0.127279
v 0.299955 0.0476621 0.167945
v -0.120289 -0.0990443 -0.18481
v -0.139505 0.116967 -0.106685
v -0.091527 -0.00693869 0.2759
v 0.294216 -0.0174868 0.210314
v 0.310493 0.047032 -0.161785
v 0.30798 0.068695 -0.161788
v -0.25137 0.110702 -0.153162
v -0.28234 0.0998578 -0.177793
v 0.297208 0.0422852 0.217063
v -0.127294 -0.038304 0.275175
v -0.118601 -0.033836 0.247636
v 0.065907 0.115467 -0.148244
v 0.202472 0.119581 0.0078905
v 0.178676 0.11749 0.041345
v -0.177905 -0.069723 -0.310662
v -0.20027 -0.098503 -0.285507
v 0.24244 0.055566 -0.317969
v 0.263998 0.057881 -0.307342
v 0.211332 -0.06918 -0.333224
v 0.00549 0.127151 0.017232
v 0.106098 0.105236 0.015153
v 0.269873 -0.038971 0.180928
v 0.273252 0.0242888 0.302489
v 0.274656 -0.036574 0.132187
v -0.010682 -0.060168 -0.257315
v 0.019725 -0.065416 -0.256653
v -0.0844014 0.0570669 0.117027
v -0.28221 0.0980082 -0.0965356
v -0.142383 0.0230465 -0.321064
v -0.159061 0.052143 -0.298126
v 0.25409 -0.0986335 -0.231342
v 0.21837 0.05402 -0.322966
v -0.205371 -0.043444 -0.336524
v -0.205435 -0.029987 -0.342265
v -0.069677 -0.0665405 -0.268909
v 0.0258869 0.0973348 -0.215225
v -0.267776 0.103712 -0.0624687
v 0.076275 -0.0297966 -0.0821069
v -0.0848684 -0.0221194 -0.0405647
v -0.007521 0.098616 -0.202011
v 0.137105 -0.0895168 -0.290592
v 0.243022 -0.0498912 0.131183
v -0.278559 0.0455742 0.016751
v -0.198161 0.118257 0.063396
v -0.119095 -0.0456768 -0.314048
v 0.264135 0.0926269 -0.256484
v 0.102108 0.10895 -0.205602
v 0.107734 0.0771014 -0.275809
v -0.204304 0.019662 -0.329961
v -0.305553 0.06422 -0.233355
v -0.29665 0.061391 -0.255797
v 0.200497 0.119212 -0.023881
v 0.147107 0.12148 -0.062935
v 0.146138 -0.0163915 0.235573
v -0.197672 -0.114094 -0.254873
v 0.248508 0.110136 -0.183239
v 0.192375 0.116912 -0.155429
v -0.173798 0.108412 0.19143
v -0.171686 0.102432 0.22941
v 0.284654 0.0422033 0.2614
v -0.001112 0.120363 -0.093136
v -0.163937 0.001771 0.366102
v -0.164566 -0.021824 0.350722
v -0.204208 -0.018273 0.328376
v 0.180373 0.019228 -0.353107
v 0.179749 -0.001425 -0.363677
v 0.182081 -0.07038 -0.335968
v 0.181441 -0.098935 -0.308475
v 0.155508 -0.070096 -0.330618
v 0.305227 -0.0179807 -0.245865
v -0.258086 0.079558 0.033969
v 0.119014 -0.0488219 -0.0619314
v -0.24319 -0.111481 -0.220937
v 0.223903 0.014789 0.343381
v 0.223726 0.001331 0.342775
v 0.307995 0.022633 -0.16172
v -0.0879715 0.0167632 0.136178
v -0.0822386 0.0379704 0.171779
v -0.1972 0.062422 0.316302
v 0.069366 0.034039 0.007328
v 0.262913 -0.061134 -0.298135
v -0.261074 0.044433 0.209562
v -0.188274 0.118909 -0.064269
v -0.214653 0.117897 -0.066929
v 0.2356 -0.109115 -0.117831
v 0.262217 -0.088155 -0.160487
v 0.239927 -0.116042 -0.159766
v 0.112089 0.009303 0.012175
v 0.119676 0.003684 0.023198
v -0.1958 -0.122161 -0.226445
v -0.193928 -0.130227 -0.198017
v 0.106997 -0.055956 -0.0917231
v -0.178926 -0.043774 0.309023
v -0.166458 -0.043797 0.311746
v -0.165456 -0.03481 0.331837
v -0.114407 0.104591 0.059794
v -0.204193 -0.069942 -0.312727
v -0.232804 -0.068677 -0.306495
v -0.292814 0.0334416 -0.0291881
v 0.223736 0.028071 0.339001
v -0.198118 0.095877 -0.232513
v -0.256613 -0.0316635 0.0287415
v -0.279167 0.00257082 0.0168547
v -0.312851 -0.00335611 -0.165739
v -0.24902 -0.032647 0.094186
v 0.164431 -0.034156 0.230605
v 0.15171 -0.02729 0.190327
v 0.136734 -0.106082 -0.253788
v -0.288197 -0.05557 -0.237695
v -0.238297 0.054536 -0.295485
v 0.142825 0.079112 0.147123
v 0.13676 0.083713 0.110754
v 0.0827435 -0.0158433 -0.0495095
v 0.215255 0.101995 0.206127
v 0.185562 -0.130657 -0.220852
v 0.184028 -0.12259 -0.2493
v 0.212809 -0.051121 -0.016841
v 0.222414 0.117403 -0.093228
v 0.196547 0.118474 -0.087424
v 0.124519 -0.000551 0.036721
v -0.273549 0.0342241 0.17916
v -0.055051 0.044867 -0.277559
v -0.269751 -0.0371885 -0.043478
v -0.226231 0.0252741 0.321138
v -0.107964 -0.0110712 0.312498
v 0.290003 -0.007211 0.027223
v 0.13473 -0.111545 -0.153469
v 0.145673 -0.10838 -0.122884
v 0.199512 -0.032094 0.029096
v -0.299129 0.00286504 -0.0695286
v -0.166079 0.061056 0.331895
v -0.179557 0.061297 0.329417
v 0.221562 -0.115269 -0.249742
v 0.244153 -0.079988 -0.0740644
v -0.0841191 -0.0707714 -0.179718
v 0.27926 0.076971 0.0619095
v 0.162078 0.106674 0.0798377
v 0.231772 0.0117346 -0.349404
v -0.00852159 0.125975 0.0114647
v 0.254463 -0.044171 0.027646
v 0.006795 0.074538 0.039099
v 0.278427 0.0976677 -0.208131
v 0.00659 0.094962 0.036475
v -0.178393 0.11739 0.108149
v 0.262698 -0.04104 0.22203
v 0.174148 -0.016121 0.305069
v 0.20682 -0.043646 0.286765
v -0.0471287 -0.0164764 -0.0679176
v -0.1662 -0.107082 -0.240727
v -0.273091 0.0946524 -0.223738
v 0.305575 -0.0035196 -0.121159
v 0.264413 -0.020323 -0.33673
v 0.083333 0.117446 0.000615
v 0.0185776 0.0103467 -0.303022
v -0.089721 0.0472923 -0.284415
v 0.042225 -0.038398 -0.146817
v -0.00398 -0.034387 -0.144142
v 0.11011 0.117178 -0.0148618
v 0.00618 0.109435 0.029635
v -0.240546 -0.115497 -0.130856
v 0.230357 0.115553 -0.157541
v -0.099454 0.003717 0.036698
v -0.0433595 -0.0554394 -0.178587
v 0.300377 -0.0120535 0.155626
v -0.270495 -0.00235334 0.102855
v 0.235039 0.116419 -0.0523969
v -0.0407681 0.131474 -0.0412484
v 0.082585 -0.068189 -0.29781
v -0.131457 0.108435 -0.196699
v 0.250947 0.106014 0.0692341
v 0.12027 0.051702 0.136942
v -0.173132 -0.047354 0.178887
v -0.036955 0.115286 -0.142107
v -0.177586 -0.031667 0.051787
v 0.298618 0.0465822 -0.046989
v -0.218512 0.103244 0.145261
v -0.297878 0.07197 -0.076345
v 0.208348 0.060933 0.306596
v -0.307978 0.036908 -0.0960111
v 0.14303 0.116648 -0.123686
v 0.156424 0.117432 -0.10325
v -0.008024 0.050125 0.028511
v -0.028898 0.04527 0.023521
v 0.00489 0.032127 0.006863
v 0.267009 -0.07564 -0.116147
v 0.222452 -0.022262 0.327435
v -0.251292 0.0308139 0.287045
v -0.310157 0.067085 -0.20342
v 0.0897275 0.00128029 -0.0203246
v 0.006695 0.064477 0.036674
v -0.157442 -0.125158 -0.171115
v -0.310493 0.069225 -0.166823
v 0.213352 -0.051543 0.198254
v 0.223217 -0.011269 0.337131
v -0.134233 -0.0270343 0.0786981
v 0.140133 -0.00414514 0.26919
v -0.194891 -0.043024 0.295876
v 0.0397885 -0.00891462 -0.0614297
v -0.206455 -0.041942 0.277297
v -0.170012 0.0935975 0.259584
v -0.205885 -0.0509143 0.167013
v -0.243081 -0.04043 0.058309
v -0.175177 -0.043602 0.136388
v -0.204985 -0.00099 -0.340527
v 0.189422 -0.041625 0.274844
v 0.176354 -0.038648 0.256904
v 0.177268 0.064303 0.275338
v 0.048628 0.13139 -0.003569
v -0.205299 -0.015549 -0.343558
v 0.285274 -0.044779 -0.161632
v 0.284194 -0.046697 -0.20232
v -0.261634 0.056137 -0.28764
v 0.144567 -0.118775 -0.219335
v 0.253026 -0.0147793 0.310056
v 0.027191 -0.0664153 -0.212843
v -0.006369 -0.048244 -0.184346
v -0.145735 -0.0442646 0.189626
v -0.290874 -0.051025 -0.208774
v 0.2193 -0.03766 0.029192
v 0.209406 -0.034877 0.029144
v 0.216197 -0.040601 0.007887
v 0.0675683 0.047122 -0.29391
v -0.259614 -0.032353 -0.002223
v 0.174541 -0.0412202 0.165408
v -0.236667 -0.0668874 -0.0259144
v -0.249809 0.00742697 -0.321425
v -0.196714 -0.040134 0.032731
v 0.291827 0.074873 -0.067354
v 0.306307 0.0248489 0.0697198
v 0.248093 -0.064829 -0.315738
v 0.221043 -0.035248 0.308581
v -0.012785 0.001849 -0.291801
v 0.0455648 0.0156124 -0.0210899
v 0.12382 0.0464383 0.169186
v 0.0705456 0.0775395 -0.262541
v 0.275205 -0.032265 -0.003258
v -0.274318 0.103677 -0.126628
v -0.283704 -0.00673991 -0.0248119
v 0.136865 0.0391003 0.246987
v 0.151414 0.0307661 0.289945
v -0.0924835 -0.0460383 -0.0784093
v -0.165147 0.04639 0.348957
v 0.27064 0.105973 -0.0869528
v -0.227477 0.113393 0.0241206
v 0.146589 -0.124075 -0.154408
v 0.168142 0.066552 0.254573
v -0.129294 0.118009 0.0151685
v -0.0444749 0.122566 -0.0925328
v 0.278243 0.078147 0.032467
v 0.290995 0.052439 0.029908
v -0.0509698 0.0927574 -0.223232
v -0.279832 -0.06052 -0.265476
v 0.051155 -0.0668025 -0.277232
v -0.0920769 0.120656 -0.101239
v 0.153719 0.111001 0.043252
v -0.240895 -0.0943953 -0.268833
v 0.177259 0.0983879 0.170927
v 0.210368 0.113955 0.130207
v 0.107207 -0.073799 -0.151206
v 0.12591 -0.0334386 -0.0312181
v -0.157956 -0.0420552 -0.327597
v -0.012101 -0.036669 -0.280475
v 0.0605291 -0.0350955 -0.316966
v -0.0856254 0.122894 -0.0222779
v 0.09553 0.111204 0.00651
v 0.158513 0.120001 -0.0155709
v -0.0659565 -0.0384263 -0.106079
v -0.148891 0.0982531 -0.232927
v 0.300746 0.066393 -0.240178
v -0.310476 0.047736 -0.124421
v -0.210028 0.063992 0.297071
v -0.152873 0.061343 0.328331
v 0.148551 -0.016937 0.032244
v 0.005059 0.134125 0.009319
v 0.00448 0.138236 -0.000725
v 0.0943885 0.125385 -0.0529284
v 0.069966 0.123537 -0.002604
v -0.157666 -0.0374993 0.0205186
v -0.235227 -0.0174794 0.293708
v -0.099057 0.031712 0.303097
v -0.049163 -0.038129 -0.141317
v 0.267098 -0.0843246 -0.204
v -0.153971 -0.043238 0.308475
v 0.0400911 0.0955902 0.0257243
v -0.16401 0.015228 0.366722
v -0.0860912 -0.00149445 0.236297
v 0.0892638 0.0145807 -0.330175
v -0.037867 0.131442 0.00164
v 0.170513 -0.0368668 0.119665
v 0.143355 0.074883 -0.291121
v 0.0419 0.045065 0.019196
v 0.162628 -0.0633654 -0.0506024
v -0.273388 0.023311 0.062099
v 0.238966 -0.043197 0.028131
v 0.0224658 -0.0366164 -0.298246
v -0.199175 0.104855 0.179186
v 0.158515 0.0705315 0.219032
v 0.148889 0.074511 0.183491
v -0.255233 0.111448 -0.127977
v 0.311441 0.0331295 -0.117499
v -0.229249 -0.038406 0.210961
v -0.239835 -0.035993 0.163146
v -0.191562 -0.137091 -0.154304
v -0.232342 -0.04362 0.056939
v -0.0403262 0.00997832 -0.0226536
v 0.255189 -0.042464 0.249518
v 0.245935 -0.043522 0.26935
v -0.274666 0.0411212 0.106438
v 0.279575 -0.03781 -0.0765315
v 0.001084 0.129079 -0.0566885
v 0.298628 -0.011426 -0.161729
v -0.06993 0.115621 -0.140071
v 0.184463 0.082946 -0.281969
v -0.307933 0.069393 -0.124727
v 0.309961 0.00924104 0.244477
v 0.284682 -0.042663 -0.118704
v -0.253612 -0.030974 0.059706
v 0.182494 -0.114524 -0.277748
v 0.262608 -0.0529401 -0.0507978
v -0.055763 0.034082 0.014888
v -0.104835 -0.0134533 0.126071
v 0.186094 0.095442 -0.25563
v 0.188106 0.106519 -0.224124
v -0.213198 -0.0453962 0.0844132
v 0.212811 0.107975 0.168167
v 0.279466 0.07193 0.150994
v 0.279871 0.0738625 0.121173
v 0.303201 0.079604 -0.161429
v -0.0558012 -0.0694352 -0.219015
v -0.169788 -0.0512435 0.247543
v 0.180341 -0.0432112 0.201632
v -0.171088 -0.051106 0.221385
v 0.188455 0.0907924 0.215258
v 0.24335 0.114606 -0.10851
v 0.174031 -0.0245155 0.03067
v -0.190776 -0.137812 -0.134268
v -0.137992 -0.00553591 0.341882
v 0.276101 0.068829 0.195544
v -0.263959 -0.00354146 0.20257
v -0.16735 -0.134976 -0.135678
v -0.0318614 -0.0287614 -0.106674
v -0.000245 -0.010904 -0.080092
v -0.217085 -0.131304 -0.132632
v -0.14849 -0.123841 -0.136654
v -0.137364 -0.111233 -0.137096
v -0.0854335 -0.00357285 -0.00617918
v 0.118085 0.0126134 0.143366
v 0.142071 -0.020288 0.148928
v -0.317492 0.0332993 -0.157793
v -0.035078 -0.065082 -0.250948
v 0.305474 0.068527 -0.203887
v 0.203375 -0.0380645 0.071237
v -0.217202 -0.040497 0.250908
v -0.011607 -0.047811 -0.272403
v 0.275512 -0.03324 0.0626243
v 0.207237 -0.044035 0.113378
v -0.199681 0.08338 -0.258855
v 0.269361 0.065636 0.239488
v -0.250622 0.112528 -0.101859
v 0.19448 -0.124022 -0.117107
v -0.123478 -0.0773806 -0.0846858
v -0.152084 -0.024145 0.0502915
v 0.064621 -0.044637 -0.148238
v 0.169816 -0.0393404 -0.00926534
v 0.279904 0.0222493 -0.321351
v 0.197972 0.10656 -0.223744
v -0.234623 -0.0289497 -0.329289
v 0.29258 0.063543 -0.269345
v -0.094231 0.099848 0.039333
v 0.124938 0.00634124 0.220414
v 0.0436534 0.13236 -0.0364624
v 0.0780414 0.0764434 0.0224269
v -0.267623 -0.0851184 -0.240188
v 0.080417 -0.051945 -0.149288
v -0.266737 0.047019 0.146896
v -0.220096 0.107736 -0.192946
v -0.206063 0.107018 -0.199433
v -0.017069 0.136618 0.000349
v -0.279889 -0.042024 -0.084733
v 0.236057 0.115849 -0.101216
v 0.281967 -0.0204817 0.265406
v -0.0927619 -0.0819127 -0.228046
v -0.110785 -0.026992 0.206121
v -0.106162 -0.020008 0.163867
v 0.30045 -0.00812284 0.106409
v 0.035123 0.0800359 -0.248384
v 0.222971 0.045951 0.325603
v -0.0438601 -0.0406309 -0.288709
v 0.0487637 0.126809 -0.0751395
v 0.164085 0.116447 -0.153887
v -0.136542 0.062664 0.313824
v 0.220727 0.072324 0.290971
v 0.234969 0.060828 0.304475
v 0.221884 0.060616 0.308552
v 0.176784 0.118227 -0.090396
v 0.18497 0.0280124 0.322071
v 0.198522 0.118843 -0.0556525
v -0.230383 -0.0931108 -0.0628469
v 0.275084 -0.034907 0.0974057
v 0.280277 0.075795 0.091352
v 0.248373 0.105425 0.107191
v -0.057438 0.123367 0.005322
v -0.069234 0.117144 0.010314
v -0.314374 -0.0167263 -0.209882
v -0.111965 -0.009011 0.048999
v -0.216896 -0.04268 0.055561
v -0.197232 -0.037187 0.054254
v -0.104276 -0.067999 -0.28687
v 0.123139 0.00611746 0.180804
v -0.244427 -0.03432 0.128666
v 0.079511 -0.0460878 -0.113608
v -0.221483 0.066192 0.269024
v -0.229218 -0.123145 -0.176944
v 0.219609 -0.044233 0.288515
v 0.21643 -0.131807 -0.158716
v 0.190018 -0.138236 -0.15718
v 0.002642 0.010755 -0.031165
v 0.231659 -0.04424 0.284317
v -0.196339 -0.050658 0.007777
v -0.201327 0.068577 -0.282251
v -0.202724 0.053253 -0.300637
v -0.071035 -0.04415 -0.140071
v 0.180497 -0.043881 -0.359742
v 0.00328 0.137794 -0.020241
v 0.304129 0.0476997 -0.0818691
v 0.191855 -0.133768 -0.136564
v 0.313524 0.0266164 -0.217128
v 0.208187 -0.068849 -0.043958
v -0.262703 -0.087562 -0.128902
v 0.135795 0.115983 -0.152346
v -0.126581 -0.016623 0.048796
v 0.0011985 -7.45e-05 -0.0556285
v 0.139794 0.114635 -0.175937
v -0.168337 0.084763 0.289757
v -0.167012 0.072763 0.3143
v 0.0432185 0.12081 -0.113174
v 0.113912 0.0996598 -0.239525
v 0.148762 0.0938725 -0.260282
v 0.274469 -0.032957 -0.034359
v -0.137145 0.122681 -0.0315345
v -0.169014 0.118617 -0.069589
v -0.137617 0.102841 0.157914
v -0.187409 -0.034427 0.053021
v 0.224803 0.0832447 -0.289255
v -0.263242 0.079073 0.010521
v -0.267593 -0.00658 0.060776
v -0.252579 0.077573 0.093911
v -0.192289 0.117348 -0.132284
v -0.194167 0.114468 -0.166881
v -0.192289 0.117348 -0.132284
v -0.142582 0.114955 -0.158947
v -0.158804 0.111553 -0.18225
v -0.190281 0.118128 -0.098276
v -0.089509 0.021105 0.054604
v 0.222414 0.117403 -0.093228
v 0.188422 -0.137518 -0.177167
v -0.255097 0.078751 0.064559
v -0.230255 0.116074 -0.129826
v 0.13622 -0.013709 0.111526
v 0.303804 0.071288 -0.11255
v -0.127294 -0.038304 0.275175
v 0.204447 0.119951 0.039662
v 0.005204 -0.064589 -0.249599
v 0.101779 0.016113 0.005273
v 0.089477 0.023482 0.003132
v -0.289438 -0.046047 -0.167805
v -0.285628 -0.044133 -0.127279
v 0.310493 0.047032 -0.161785
v -0.297878 0.07197 -0.076345
v -0.298822 -0.010749 -0.12578
v -0.188274 0.118909 -0.064269
v -0.214653 0.117897 -0.066929
v 0.24196 0.109806 0.035838
v -0.008758 -0.062101 -0.224551
v -0.035078 -0.065082 -0.250948
v -0.055051 0.044867 -0.277559
v -0.011729 0.043507 -0.27463
v -0.055763 0.034082 0.014888
v -0.178393 0.11739 0.108149
v -0.124391 0.0497177 -0.29127
v -0.29665 0.061391 -0.255797
v 0.006795 0.074538 0.039099
v -0.00398 0.114951 -0.144142
v 0.202472 0.119581 0.0078905
v 0.221668 0.117781 0.038135
v -0.028898 0.04527 0.023521
v -0.268121 0.053072 0.06355
v -0.177905 -0.069723 -0.310662
v 0.006695 0.064477 0.036674
v -0.30312 0.08029 -0.124946
v 0.123839 0.093631 0.045791
v 0.130696 0.088314 0.074386
v 0.217045 -0.051817 0.250505
v 0.285274 -0.044779 -0.161632
v -0.137364 -0.111233 -0.137096
v -0.112142 -0.073168 -0.138002
v -0.006369 -0.048244 -0.184346
v 0.110863 0.072144 0.046712
v 0.123839 0.093631 0.045791
v 0.2193 -0.03766 0.029192
v 0.209406 -0.034877 0.029144
v -0.180876 0.120387 0.062848
v -0.182726 0.120017 0.0310685
v 0.222452 -0.022262 0.327435
v -0.00398 -0.034387 -0.144142
v -0.291594 0.092229 -0.1255
v 0.019725 -0.065416 -0.256653
v 0.00489 0.032127 0.006863
v 0.020692 0.050008 0.026726
v 0.006286 0.051091 0.029017
v 0.21837 0.05402 -0.322966
v 0.255365 0.11087 -0.1587
v 0.274457 0.103056 -0.159649
v 0.277545 0.078954 0.00174
v 0.204447 0.119951 0.039662
v 0.153719 0.111001 0.043252
v 0.153135 0.1112 -0.201019
v 0.210294 -0.047789 0.155816
v 0.00659 0.094962 0.036475
v 0.279851 0.078458 -0.022158
v 0.223217 -0.011269 0.337131
v -0.310493 0.069225 -0.166823
v -0.310157 0.067085 -0.20342
v -0.310476 0.047736 -0.124421
v 0.184028 -0.12259 -0.2493
v -0.25137 0.110702 -0.153162
v 0.138038 0.10432 0.044557
v 0.114705 0.099908 0.026186
v 0.198522 0.118843 -0.0556525
v -0.010014 -0.064122 -0.24623
v -0.102904 0.115956 -0.138036
v -0.135879 0.116291 -0.136
v -0.139505 0.116967 -0.106685
v -0.255233 0.111448 -0.127977
v -0.074734 0.023307 0.013208
v 0.119676 0.003684 0.023198
v 0.112089 0.009303 0.012175
v 0.006286 0.051091 0.029017
v 0.291827 0.074873 -0.067354
v 0.221043 -0.035248 0.308581
v -0.218599 0.110327 0.06355
v -0.198161 0.118257 0.063396
v 0.215199 -0.05168 0.224379
v 0.213352 -0.051543 0.198254
v -0.199681 0.08338 -0.258855
v -0.198118 0.095877 -0.232513
v 0.253922 0.111958 -0.132218
v 0.255365 0.11087 -0.1587
v 0.182081 -0.07038 -0.335968
v -0.00398 0.114951 -0.144142
v -0.005801 0.109836 -0.173878
v -0.036955 0.115286 -0.142107
v -0.011607 -0.047811 -0.272403
v -0.307933 0.069393 -0.124727
v -0.180876 0.120387 0.062848
v -0.220096 0.107736 -0.192946
v 0.194461 0.117693 -0.121426
v 0.164431 -0.034156 0.230605
v 0.176354 -0.038648 0.256904
v 0.0309635 0.115209 -0.146193
v -0.002546 0.117657 -0.118639
v 0.190018 -0.138236 -0.15718
v -0.00398 -0.034387 -0.144142
v -0.159061 0.052143 -0.298126
v 0.166157 -0.135261 -0.155744
v -0.206063 0.107018 -0.199433
v -0.164137 -0.010832 0.360439
v -0.164566 -0.021824 0.350722
v -0.250061 0.076395 0.123263
v -0.169014 0.118617 -0.069589
v -0.186424 0.119278 -0.03249
v 0.262217 -0.088155 -0.160487
v 0.185562 -0.130657 -0.220852
v 0.124519 -0.000551 0.036721
v 0.112516 0.020887 0.042422
v 0.13037 -0.00713 0.0741233
v 0.233703 -0.067081 -0.325385
v 0.211332 -0.06918 -0.333224
v 0.290003 -0.007211 0.027223
v 0.13676 0.083713 0.110754
v -0.204304 0.019662 -0.329961
v -0.166458 -0.043797 0.311746
v 0.123839 0.093631 0.045791
v -0.193928 -0.130227 -0.198017
v -0.137802 -0.069022 -0.300862
v -0.196314 0.106954 -0.200994
v -0.177841 0.108317 -0.196596
v 0.275512 -0.03324 0.0626243
v 0.276101 0.068829 0.195544
v 0.14303 0.116648 -0.123686
v 0.196547 0.118474 -0.087424
v 0.176784 0.118227 -0.090396
v -0.17591 0.114393 0.15345
v -0.196314 0.106954 -0.200994
v 0.27926 0.076971 0.0619095
v 0.290995 0.052439 0.029908
v 0.278243 0.078147 0.032467
v 0.107232 0.046383 0.045857
v 0.269361 0.065636 0.239488
v -0.16735 -0.134976 -0.135678
v 0.106098 0.105236 0.015153
v 0.100851 0.115725 -0.150295
v 0.135795 0.115983 -0.152346
v -0.069234 0.117144 0.010314
v -0.087885 0.104991 0.027589
v 0.217191 0.0931595 0.236285
v 0.158515 0.0705315 0.219032
v -0.08378 0.046607 0.057329
v 0.219126 0.084324 0.266444
v 0.155508 -0.070096 -0.330618
v 0.180497 -0.043881 -0.359742
v 0.182081 -0.07038 -0.335968
v -0.100326 -0.061057 -0.138541
v -0.071035 -0.04415 -0.140071
v -0.197672 -0.114094 -0.254873
v 0.208187 -0.068849 -0.043958
v 0.212809 -0.051121 -0.016841
v -0.229249 -0.038406 0.210961
v -0.102182 -0.000344 0.050478
v -0.103509 -0.00689867 0.0882743
v -0.111965 -0.009011 0.048999
v -0.262703 -0.087562 -0.128902
v 0.107207 -0.073799 -0.151206
v 0.080417 -0.051945 -0.149288
v -0.008024 0.050125 0.028511
v 0.300746 0.066393 -0.240178
v 0.274656 -0.036574 0.132187
v 0.196547 0.118474 -0.087424
v -0.240546 -0.115497 -0.130856
v 0.179917 -0.030423 -0.365451
v 0.24244 0.055566 -0.317969
v 0.001084 0.129079 -0.0566885
v -0.285628 -0.044133 -0.127279
v 0.192375 0.116912 -0.155429
v -0.136542 0.062664 0.313824
v -0.012697 0.014686 -0.29048
v -0.012785 0.001849 -0.291801
v -0.01243 0.026841 -0.286235
v -0.009768 0.073276 -0.240335
v -0.307933 0.069393 -0.124727
v -0.202724 0.053253 -0.300637
v -0.242112 0.072521 0.182378
v -0.173132 -0.047354 0.178887
v -0.175177 -0.043602 0.136388
v 0.065907 0.115467 -0.148244
v -0.108573 0.074804 0.19898
v -0.113879 0.0708405 0.235421
v -0.00398 0.114951 -0.144142
v -0.204193 -0.069942 -0.312727
v 0.191855 -0.133768 -0.136564
v -0.305553 0.06422 -0.233355
v -0.017069 0.136618 0.000349
v -0.106873 0.0794117 0.162112
v 0.203375 -0.0380645 0.071237
v -0.308044 0.02333 -0.124652
v 0.09553 0.111204 0.00651
v 0.124519 -0.000551 0.036721
v 0.156424 0.117432 -0.10325
v 0.263998 0.057881 -0.307342
v -0.255233 0.111448 -0.127977
v 0.269873 -0.038971 0.180928
v 0.262698 -0.04104 0.22203
v 0.15171 -0.02729 0.190327
v 0.13473 -0.111545 -0.153469
v 0.223736 0.028071 0.339001
v 0.223903 0.014789 0.343381
v 0.142071 -0.020288 0.148928
v -0.196339 -0.050658 0.007777
v 0.170295 0.107922 -0.217543
v -0.243081 -0.04043 0.058309
v -0.253612 -0.030974 0.059706
v 0.189422 -0.041625 0.274844
v 0.20682 -0.043646 0.286765
v 0.295983 0.022666 0.02784
v 0.285274 -0.044779 -0.161632
v 0.298628 -0.011426 -0.161729
v -0.010014 -0.064122 -0.24623
v -0.010682 -0.060168 -0.257315
v 0.307995 0.022633 -0.16172
v 0.222971 0.045951 0.325603
v 0.221884 0.060616 0.308552
v 0.274469 -0.032957 -0.034359
v 0.201333 -0.0964355 -0.0805325
v 0.284682 -0.042663 -0.118704
v 0.19448 -0.124022 -0.117107
v -0.216896 -0.04268 0.055561
v -0.232342 -0.04362 0.056939
v -0.001112 0.120363 -0.093136
v 0.190085 0.114033 -0.190003
v 0.192375 0.116912 -0.155429
v 0.230357 0.115553 -0.157541
v 0.233746 0.108802 -0.203879
v -0.202724 0.053253 -0.300637
v 0.146589 -0.124075 -0.154408
v 0.248093 -0.064829 -0.315738
v 0.262913 -0.061134 -0.298135
v 0.27594 -0.031573 0.027843
v 0.00549 0.127151 0.017232
v 0.137665 0.05177 -0.315849
v 0.102617 0.049446 -0.304879
v 0.210368 0.113955 0.130207
v 0.212811 0.107975 0.168167
v 0.27456 -0.056207 -0.271557
v 0.279871 0.0738625 0.121173
v 0.275084 -0.034907 0.0974057
v 0.002642 0.010755 -0.031165
v -0.16434 0.028511 0.362352
v -0.16401 0.015228 0.366722
v 0.181441 -0.098935 -0.308475
v 0.182081 -0.07038 -0.335968
v -0.153971 -0.043238 0.308475
v -0.049163 -0.038129 -0.141317
v 0.168142 0.066552 0.254573
v -0.089721 0.0472923 -0.284415
v -0.103474 0.088627 0.088376
v -0.087237 0.072358 0.058658
v -0.100206 0.093846 0.059391
v -0.239835 -0.035993 0.163146
v -0.192684 -0.09599 -0.056824
v -0.163937 0.001771 0.366102
v -0.253612 -0.030974 0.059706
v -0.256613 -0.0316635 0.0287415
v -0.105174 0.0840193 0.125244
v 0.051155 -0.0668025 -0.277232
v 0.069966 0.123537 -0.002604
v 0.148551 -0.016937 0.032244
v -0.069677 -0.0665405 -0.268909
v -0.086458 -0.051325 -0.139242
v 0.174031 -0.0245155 0.03067
v 0.204447 0.119951 0.039662
v 0.178676 0.11749 0.041345
v 0.207408 0.116953 0.0849345
v 0.03252 0.044798 -0.28294
v 0.305474 0.068527 -0.203887
v 0.291718 0.091568 -0.160599
v 0.219609 -0.044233 0.288515
v -0.244427 -0.03432 0.128666
v 0.180373 0.019228 -0.353107
v 0.148889 0.074511 0.183491
v 0.142825 0.079112 0.147123
v -0.205371 -0.043444 -0.336524
v -0.205435 -0.029987 -0.342265
v -0.28056 0.0755215 -0.032912
v -0.138123 -0.041255 0.294553
v 0.006286 0.051091 0.029017
v -0.06993 0.115621 -0.140071
v -0.239191 0.109337 -0.175421
v 0.200497 0.119212 -0.023881
v 0.207237 -0.044035 0.113378
v -0.229159 0.116376 -0.073223
v -0.237277 0.11515 -0.079591
v 0.30798 0.068695 -0.161788
v -0.165456 -0.03481 0.331837
v -0.000245 -0.010904 -0.080092
v -0.114407 0.104591 0.059794
v -0.100206 0.093846 0.059391
v -0.0021125 -0.0226455 -0.112117
v -0.00398 -0.034387 -0.144142
v 0.248508 0.110136 -0.183239
v 0.281046 0.060737 -0.290558
v -0.233437 0.069406 0.226203
v 0.082585 -0.068189 -0.29781
v 0.238966 -0.043197 0.028131
v 0.2193 -0.03766 0.029192
v 0.216197 -0.040601 0.007887
v -0.037867 0.131442 0.00164
v 0.134053 -0.00926 0.034126
v -0.176381 -0.0376345 0.0940875
v 0.115493 -0.069289 -0.315782
v 0.279466 0.07193 0.150994
v 0.280277 0.075795 0.091352
v 0.255189 -0.042464 0.249518
v -0.274318 0.103677 -0.126628
v -0.250622 0.112528 -0.101859
v -0.255233 0.111448 -0.127977
v 0.182345 0.052816 -0.323805
v -0.167012 0.072763 0.3143
v 0.183231 0.068142 -0.305389
v 0.0011985 -7.45e-05 -0.0556285
v -0.125758 0.064646 0.293573
v -0.119184 0.066877 0.271863
v -0.012604 -0.017831 -0.288756
v -0.1972 0.062422 0.316302
v -0.126581 -0.016623 0.048796
v 0.00448 0.138236 -0.000725
v 0.026572 0.136508 -0.002233
v 0.179749 -0.001425 -0.363677
v -0.1958 -0.122161 -0.226445
v 0.255365 0.11087 -0.1587
v 0.182345 0.052816 -0.323805
v -0.14849 -0.123841 -0.136654
v -0.217202 -0.040497 0.250908
v -0.171088 -0.051106 0.221385
v 0.179664 -0.015985 -0.366722
v 0.250913 0.061914 0.289339
v 0.219609 -0.044233 0.288515
v 0.182494 -0.114524 -0.277748
v 0.00618 0.109435 0.029635
v 0.223726 0.001331 0.342775
v -0.281751 0.058499 -0.274504
v -0.261634 0.056137 -0.28764
v -0.169788 -0.0512435 0.247543
v -0.010014 -0.064122 -0.24623
v -0.102182 -0.000344 0.050478
v -0.195041 -0.068393 -0.019695
v 0.303201 0.079604 -0.161429
v -0.239766 0.095627 0.063856
v -0.104276 -0.067999 -0.28687
v -0.173798 0.108412 0.19143
v 0.245935 -0.043522 0.26935
v 0.212685 0.107246 -0.218987
v 0.275205 -0.032265 -0.003258
v 0.221884 0.060616 0.308552
v 0.234969 0.060828 0.304475
v -0.259614 -0.032353 -0.002223
v -0.196714 -0.040134 0.032731
v -0.187409 -0.034427 0.053021
v 0.188106 0.106519 -0.224124
v 0.265296 -0.041007 0.027719
v 0.254463 -0.044171 0.027646
v 0.215255 0.101995 0.206127
v 0.262977 0.095059 0.033605
v -0.165147 0.04639 0.348957
v 0.182345 0.052816 -0.323805
v -0.094231 0.099848 0.039333
v 0.00328 0.137794 -0.020241
v 0.278243 0.078147 0.032467
v 0.208348 0.060933 0.306596
v 0.220727 0.072324 0.290971
v 0.190397 0.062294 0.294152
v -0.24902 -0.032647 0.094186
v -0.267593 -0.00658 0.060776
v -0.273388 0.023311 0.062099
v 0.24335 0.114606 -0.10851
v -0.099454 0.003717 0.036698
v -0.307933 0.069393 -0.124727
v 0.083333 0.117446 0.000615
v -0.197232 -0.037187 0.054254
v 0.30798 0.068695 -0.161788
v 0.069366 0.034039 0.007328
v -0.246086 0.074458 0.15282
v 0.197972 0.10656 -0.223744
v 0.188106 0.106519 -0.224124
v 0.261347 0.063459 0.268709
v -0.152084 -0.024145 0.0502915
v -0.206455 -0.041942 0.277297
v -0.168489 -0.051381 0.273702
v -0.194891 -0.043024 0.295876
v 0.005059 0.134125 0.009319
v 0.280695 -0.051673 -0.243167
v -0.201327 0.068577 -0.282251
v -0.205299 -0.015549 -0.343558
v 0.164085 0.116447 -0.153887
v 0.192375 0.116912 -0.155429
v 0.135795 0.115983 -0.152346
v 0.139794 0.114635 -0.175937
v -0.102182 -0.000344 0.050478
v 0.219609 -0.044233 0.288515
v 0.231659 -0.04424 0.284317
v -0.166079 0.061056 0.331895
v -0.152873 0.061343 0.328331
v -0.269751 -0.0371885 -0.043478
v -0.09403 0.009155 0.025
v -0.085627 0.015884 0.016908
v 0.186094 0.095442 -0.25563
v 0.184463 0.082946 -0.281969
v 0.188106 0.106519 -0.224124
v -0.164084 0.116819 -0.134142
v -0.135879 0.116291 -0.136
v -0.007521 0.098616 -0.202011
v -0.279889 -0.042024 -0.084733
v -0.285628 -0.044133 -0.127279
v -0.217085 -0.131304 -0.132632
v -0.191562 -0.137091 -0.154304
v -0.238297 0.054536 -0.295485
v -0.202724 0.053253 -0.300637
v 0.0675683 0.047122 -0.29391
v 0.064621 -0.044637 -0.148238
v -0.118601 -0.033836 0.247636
v -0.110785 -0.026992 0.206121
v 0.279575 -0.03781 -0.0765315
v -0.288197 -0.05557 -0.237695
v -0.290874 -0.051025 -0.208774
v 0.177268 0.064303 0.275338
v 0.21643 -0.131807 -0.158716
v 0.190018 -0.138236 -0.15718
v -0.279832 -0.06052 -0.265476
v -0.267249 -0.064245 -0.28473
v -0.232804 -0.068677 -0.306495
v -0.254121 -0.066529 -0.296032
v -0.184575 0.119648 -0.000711
v -0.253612 -0.030974 0.059706
v -0.106162 -0.020008 0.163867
v -0.196314 0.106954 -0.200994
v -0.258086 0.079558 0.033969
v -0.170012 0.0935975 0.259584
v -0.171686 0.102432 0.22941
v -0.221483 0.066192 0.269024
v -0.263242 0.079073 0.010521
v 0.00448 0.138236 -0.000725
v 0.284194 -0.046697 -0.20232
v 0.285274 -0.044779 -0.161632
v -0.210028 0.063992 0.297071
v -0.168337 0.084763 0.289757
v -0.20027 -0.098503 -0.285507
v 0.239927 -0.116042 -0.159766
v -0.190094 -0.133338 -0.113581
v -0.190776 -0.137812 -0.134268
v 0.199512 -0.032094 0.029096
v -0.255097 0.078751 0.064559
v 0.048628 0.13139 -0.003569
v -0.204985 -0.00099 -0.340527
v 0.27594 -0.031573 0.027843
v -0.150332 0.11778 -0.084793
v -0.011729 0.043507 -0.27463
v -0.012101 -0.036669 -0.280475
v 0.0419 0.045065 0.019196
v 0.190018 -0.138236 -0.15718
v 0.236057 0.115849 -0.101216
v 0.135795 0.115983 -0.152346
v -0.188274 0.118909 -0.064269
v -0.100206 0.093846 0.059391
v 0.278243 0.078147 0.032467
v 0.199512 -0.032094 0.029096
v -0.180876 0.120387 0.062848
v -0.155095 0.117868 0.061428
v -0.011729 0.043507 -0.27463
v -0.192289 0.117348 -0.132284
v 0.00448 0.138236 -0.000725
v -0.057438 0.123367 0.005322
v -0.190776 -0.137812 -0.134268
v -0.190776 -0.137812 -0.134268
v -0.179557 0.061297 0.329417
v -0.255097 0.078751 0.064559
v 0.124519 -0.000551 0.036721
v -0.190327 -0.123587 -0.093953
v -0.188274 0.118909 -0.064269
v 0.221884 0.060616 0.308552
v 0.042225 -0.038398 -0.146817
v -0.104835 -0.0134533 0.126071
v 0.196547 0.118474 -0.087424
v -0.130102 0.111326 0.060321
v -0.204193 -0.069942 -0.312727
v 0.29258 0.063543 -0.269345
v 0.30798 0.068695 -0.161788
v -0.166079 0.061056 0.331895
v -0.135879 0.116291 -0.136
v -0.166458 -0.043797 0.311746
v -0.178926 -0.043774 0.309023
v 0.27594 -0.031573 0.027843
v -0.166079 0.061056 0.331895
v -0.197232 -0.037187 0.054254
v -0.204193 -0.069942 -0.312727
v -0.166458 -0.043797 0.311746
v -0.177586 -0.031667 0.051787
v -0.177586 -0.031667 0.051787
f 3 4 138
f 6 3 138
f 208 9 10
f 328 68 685
f 312 454 628
f 524 311 534
f 253 21 22
f 23 24 25
f 106 473 100
f 245 244 564
f 35 36 37
f 38 39 40
f 193 192 674
f 47 48 49
f 646 612 608
f 636 425 546
f 424 376 655
f 58 59 60
f 60 59 61
f 295 435 8
f 64 65 66
f 538 261 221
f 398 102 552
f 102 478 477
f 74 123 30
f 286 77 78
f 102 610 478
f 102 477 552
f 179 126 128
f 179 97 43
f 93 94 705
f 706 707 98
f 708 36 44
f 179 128 97
f 153 395 513
f 222 402 211
f 229 441 201
f 229 73 1
f 578 441 229
f 117 118 119
f 229 201 73
f 709 427 710
f 342 36 35
f 130 131 19
f 73 2 1
f 711 699 137
f 204 229 712
f 380 131 130
f 229 1 712
f 56 55 146
f 700 222 211
f 154 155 713
f 538 383 261
f 383 268 261
f 373 151 714
f 391 373 374
f 44 36 342
f 174 175 176
f 318 573 267
f 633 186 105
f 187 188 189
f 191 192 193
f 444 472 452
f 143 23 25
f 199 5 200
f 63 493 644
f 493 63 695
f 58 60 715
f 368 307 484
f 716 36 708
f 484 71 368
f 699 711 341
f 71 470 368
f 224 550 226
f 71 127 470
f 717 605 168
f 40 39 231
f 56 146 213
f 695 63 305
f 331 671 31
f 240 241 242
f 240 242 246
f 617 36 716
f 671 331 348
f 313 331 514
f 22 21 251
f 671 348 349
f 256 257 29
f 309 53 51
f 711 137 260
f 76 51 53
f 718 263 264
f 53 12 76
f 719 588 269
f 271 272 720
f 273 235 274
f 280 300 282
f 721 283 284
f 12 53 71
f 83 287 288
f 396 290 275
f 406 563 297
f 339 488 185
f 410 185 488
f 121 722 723
f 59 302 61
f 545 521 90
f 724 31 725
f 724 140 31
f 3 316 317
f 725 31 687
f 56 213 212
f 265 98 215
f 321 322 353
f 325 326 327
f 31 140 331
f 472 332 333
f 334 685 726
f 388 437 198
f 38 338 39
f 528 437 727
f 388 198 728
f 729 730 135
f 41 502 112
f 346 347 40
f 658 428 659
f 351 352 353
f 217 354 95
f 355 356 291
f 428 66 65
f 428 731 66
f 134 304 702
f 421 587 732
f 732 587 733
f 238 445 670
f 378 40 347
f 445 382 529
f 218 734 735
f 670 445 529
f 197 459 430
f 459 197 559
f 482 547 164
f 145 395 370
f 604 563 736
f 421 474 415
f 354 184 95
f 399 542 401
f 59 737 302
f 242 241 156
f 445 537 382
f 472 358 332
f 472 281 358
f 281 472 639
f 738 18 413
f 231 346 40
f 542 417 401
f 739 308 408
f 201 448 740
f 281 645 358
f 228 173 426
f 255 289 75
f 239 80 124
f 431 84 741
f 80 203 124
f 210 80 603
f 56 742 743
f 619 203 80
f 252 654 436
f 428 658 394
f 37 36 617
f 440 744 442
f 344 468 443
f 301 745 329
f 746 519 190
f 747 34 33
f 301 361 551
f 748 266 450
f 301 329 703
f 455 537 457
f 232 4 458
f 459 133 461
f 395 749 750
f 463 464 751
f 234 752 469
f 753 259 754
f 473 755 119
f 662 367 476
f 152 756 757
f 758 759 479
f 449 259 753
f 17 241 596
f 760 42 761
f 180 97 128
f 486 683 718
f 762 404 489
f 106 763 755
f 473 28 100
f 266 764 495
f 765 28 473
f 766 767 768
f 247 410 488
f 53 309 127
f 389 500 530
f 314 400 167
f 148 147 769
f 314 770 771
f 507 508 772
f 363 582 133
f 667 628 163
f 742 773 743
f 81 774 272
f 361 301 357
f 709 183 182
f 361 496 481
f 695 305 775
f 776 280 451
f 81 523 279
f 395 153 749
f 312 628 365
f 452 472 333
f 532 243 533
f 526 615 359
f 201 740 777
f 772 225 778
f 266 408 446
f 779 404 762
f 13 780 781
f 780 13 607
f 780 607 782
f 471 366 783
f 747 542 399
f 187 189 174
f 187 174 176
f 505 761 42
f 461 133 14
f 663 7 604
f 495 557 784
f 785 81 786
f 653 311 787
f 558 263 718
f 685 234 328
f 245 564 565
f 788 283 721
f 705 566 105
f 700 6 96
f 789 790 791
f 450 572 748
f 57 392 577
f 98 265 792
f 180 181 97
f 154 419 315
f 403 244 451
f 604 736 793
f 794 795 121
f 558 683 206
f 440 442 796
f 297 604 7
f 797 501 50
f 98 707 215
f 276 623 275
f 16 584 585
f 110 258 267
f 798 472 444
f 799 800 502
f 801 589 802
f 508 225 772
f 408 634 205
f 205 803 178
f 205 804 803
f 805 806 419
f 527 304 400
f 807 681 277
f 277 247 216
f 808 809 810
f 545 129 165
f 284 283 811
f 172 384 613
f 223 160 101
f 545 223 228
f 619 210 91
f 56 743 55
f 84 506 319
f 506 570 512
f 512 177 87
f 408 178 739
f 726 685 609
f 661 505 104
f 812 780 782
f 291 625 292
f 281 639 573
f 661 522 505
f 737 813 302
f 632 100 517
f 362 256 29
f 814 707 635
f 698 505 522
f 801 464 364
f 497 498 504
f 33 542 747
f 555 163 497
f 490 111 219
f 124 203 123
f 163 628 497
f 163 555 556
f 438 815 648
f 556 492 163
f 497 628 454
f 312 816 817
f 454 312 817
f 454 817 404
f 694 818 819
f 383 20 268
f 132 27 321
f 27 322 321
f 7 103 54
f 266 446 450
f 54 297 7
f 714 673 820
f 767 766 549
f 560 597 209
f 599 539 821
f 599 821 157
f 678 822 679
f 397 201 278
f 517 100 70
f 236 385 517
f 684 386 823
f 686 550 224
f 205 634 824
f 70 236 517
f 825 826 595
f 16 17 584
f 434 59 827
f 698 828 829
f 345 151 830
f 831 191 471
f 510 76 12
f 12 85 510
f 832 143 833
f 834 143 832
f 759 387 479
f 297 54 499
f 835 88 836
f 494 225 837
f 141 204 712
f 142 141 712
f 191 503 385
f 838 429 369
f 287 113 839
f 250 840 230
f 786 841 785
f 88 391 576
f 842 449 561
f 561 449 598
f 843 235 273
f 713 155 377
f 844 526 359
f 427 526 845
f 846 149 102
f 318 267 616
f 616 267 847
f 429 168 605
f 492 369 429
f 157 600 599
f 403 451 280
f 525 680 539
f 11 45 848
f 622 375 479
f 849 815 850
f 434 554 851
f 79 487 384
f 247 681 114
f 234 569 752
f 255 75 158
f 499 406 297
f 852 635 707
f 853 854 855
f 99 258 110
f 424 56 50
f 87 177 698
f 143 25 856
f 134 166 167
f 853 487 854
f 688 438 648
f 300 280 776
f 7 663 689
f 633 566 209
f 689 536 7
f 434 62 554
f 240 857 241
f 154 805 419
f 589 482 802
f 143 856 833
f 383 52 595
f 602 80 858
f 582 665 701
f 506 425 568
f 3 6 700
f 630 756 152
f 630 38 756
f 751 405 463
f 630 152 859
f 691 860 861
f 73 201 862
f 73 862 863
f 591 15 864
f 865 15 591
f 253 22 866
f 864 15 867
f 868 869 870
f 46 89 202
f 871 393 92
f 427 89 46
f 92 393 872
f 147 702 769
f 74 103 677
f 46 526 427
f 46 509 82
f 245 676 672
f 274 235 873
f 238 670 237
f 874 392 57
f 874 57 875
f 510 85 144
f 86 85 356
f 800 112 502
f 537 122 611
f 611 122 876
f 692 649 233
f 192 191 831
f 877 878 879
f 220 880 418
f 418 67 220
f 220 67 656
f 862 201 660
f 881 161 882
f 659 585 658
f 201 883 448
f 609 685 884
f 657 643 885
f 154 315 155
f 619 54 30
f 131 413 82
f 59 58 827
f 122 445 238
f 87 425 506
f 655 376 886
f 887 31 671
f 160 888 869
f 769 702 889
f 434 125 62
f 629 647 890
f 220 637 891
f 606 667 605
f 605 717 606
f 544 120 139
f 439 815 438
f 815 892 648
f 850 815 439
f 652 651 650
f 139 221 544
f 107 32 305
f 32 107 270
f 63 294 107
f 232 458 692
f 696 548 306
f 52 538 893
f 26 595 500
f 526 18 615
f 894 412 895
f 896 412 894
f 644 214 897
f 644 294 63
f 727 898 528
f 30 103 74
f 293 640 666
f 839 899 288
f 666 235 843
f 194 303 116
f 633 900 186
f 901 902 227
f 697 57 577
f 903 45 11
f 75 289 391
f 379 633 209
f 522 87 698
f 139 904 905
f 818 906 819
f 900 379 340
f 774 81 785
f 406 690 563
f 110 422 99
f 273 274 907
f 159 414 621
f 751 464 801
f 618 908 343
f 487 99 643
f 320 595 543
f 466 542 535
f 607 13 362
f 51 662 13
f 13 909 51
f 397 910 201
f 911 336 285
f 614 547 912
f 607 913 782
f 651 246 650
f 802 482 164
f 366 70 72
f 113 467 462
f 201 441 883
f 299 366 72
f 667 163 492
f 411 630 914
f 209 423 668
f 254 554 62
f 168 143 834
f 512 789 791
f 230 588 719
f 544 221 261
f 340 597 238
f 208 915 207
f 45 916 848
f 304 917 702
f 304 69 917
f 304 626 69
f 250 541 840
f 416 81 524
f 918 617 716
f 52 383 538
f 919 262 920
f 154 592 805
f 589 921 482
f 473 118 765
f 473 119 118
f 386 881 922
f 430 459 461
f 363 575 460
f 912 9 593
f 326 299 327
f 654 252 465
f 593 9 531
f 531 9 208
f 629 890 682
f 691 32 860
f 372 17 583
f 923 654 924
f 675 563 690
f 482 921 925
f 16 516 583
f 926 150 483
f 607 362 913
f 913 362 29
f 485 150 926
f 562 150 664
f 927 581 580
f 360 928 929
f 220 891 880
f 404 930 931
f 107 47 49
f 837 225 932
f 933 934 574
f 935 608 936
f 937 409 934
f 938 939 436
f 361 704 551
f 494 940 225
f 903 818 694
f 13 781 909
f 51 909 309
f 662 51 76
f 45 647 534
f 392 874 941
f 942 567 443
f 814 215 707
f 227 641 475
f 943 386 684
f 227 642 641
f 227 475 901
f 233 232 692
f 944 582 945
f 579 227 196
f 694 819 946
f 902 196 227
f 947 948 949
f 950 947 949
f 368 951 307
f 823 386 952
f 547 9 912
f 10 9 547
f 408 266 634
f 205 824 804
f 858 80 239
f 916 311 653
f 953 954 88
f 666 640 249
f 811 553 284
f 955 494 837
f 656 483 220
f 532 956 243
f 786 81 279
f 548 957 958
f 558 409 937
f 959 515 960
f 558 937 263
f 447 371 518
f 925 547 482
f 160 869 868
f 185 328 961
f 256 362 662
f 258 99 962
f 167 304 134
f 149 963 300
f 10 547 925
f 214 644 493
f 376 501 638
f 376 424 501
f 491 766 964
f 629 534 647
f 114 195 169
f 392 443 567
f 965 27 966
f 836 967 968
f 343 344 443
f 304 527 626
f 305 691 775
f 319 506 568
f 534 416 524
f 72 28 511
f 160 223 323
f 628 667 365
f 969 20 595
f 421 415 970
f 971 15 865
f 293 587 640
f 587 293 733
f 287 115 116
f 115 83 972
f 500 595 52
f 973 974 975
f 559 976 459
f 30 54 103
f 67 977 656
f 692 693 649
f 687 31 887
f 978 966 27
f 433 683 486
f 170 135 730
f 979 704 980
f 698 829 136
f 304 167 400
f 911 285 981
f 553 982 284
f 640 587 393
f 121 795 722
f 162 206 940
f 612 936 608
f 629 983 534
f 121 622 984
f 985 646 608
f 986 525 91
f 946 647 694
f 890 647 946
f 622 387 987
f 431 506 84
f 988 989 990
f 206 162 409
f 989 513 395
f 991 412 896
f 992 993 586
f 662 476 256
f 994 489 931
f 375 622 686
f 878 453 879
f 45 311 916
f 534 311 45
f 995 133 976
f 28 765 511
f 395 145 990
f 310 787 311
f 311 524 310
f 396 324 996
f 997 515 998
f 573 318 281
f 492 605 667
f 391 151 373
f 519 999 1000
f 1001 357 301
f 357 496 361
f 32 691 305
f 1002 230 719
f 70 28 72
f 570 789 512
f 45 694 647
f 448 883 1003
f 487 643 613
f 131 380 413
f 82 509 131
f 82 413 18
f 219 111 218
f 202 1004 810
f 634 266 1005
f 14 133 582
f 18 822 678
f 289 540 151
f 139 120 336
f 597 560 876
f 56 424 1006
f 393 587 421
f 990 145 959
f 53 127 71
f 737 59 434
f 18 526 82
f 1007 300 776
f 367 662 76
f 202 509 46
f 295 1008 1009
f 269 590 641
f 609 1010 726
f 783 831 471
f 1011 595 826
f 109 412 553
f 553 412 90
f 90 521 553
f 316 700 211
f 316 3 700
f 1012 159 456
f 1013 1014 627
f 159 1015 1016
f 159 1016 414
f 1017 950 949
f 422 643 99
f 643 422 885
f 623 276 1018
f 1019 62 125
f 518 330 550
f 176 501 187
f 247 396 410
f 396 275 623
f 299 72 1020
f 623 410 396
f 396 996 290
f 224 226 943
f 498 654 465
f 236 191 385
f 1021 1022 1023
f 660 201 1024
f 18 738 822
f 202 89 1004
f 182 89 709
f 794 121 1025
f 287 839 288
f 453 1026 620
f 299 1020 1027
f 442 563 675
f 901 475 590
f 590 475 641
f 868 101 160
f 580 696 927
f 258 847 267
f 847 258 1028
f 70 100 28
f 99 487 1029
f 920 262 639
f 920 639 1030
f 1031 1032 1033
f 860 32 270
f 680 525 986
f 323 223 1034
f 390 1035 337
f 330 371 296
f 945 582 460
f 548 1036 957
f 548 571 1036
f 548 958 306
f 367 76 510
f 456 1037 1012
f 845 526 844
f 498 454 404
f 1038 221 1039
f 1040 111 490
f 529 382 1041
f 453 1042 879
f 18 678 615
f 1043 1044 682
f 630 859 914
f 306 695 696
f 160 323 1045
f 407 248 1046
f 406 499 525
f 408 205 178
f 1000 113 519
f 1017 949 1047
f 696 571 548
f 191 193 503
f 113 462 839
f 225 940 206
f 85 625 356
f 290 996 1048
f 449 753 1049
f 1050 197 1051
f 408 308 446
f 160 1045 1052
f 281 318 1053
f 681 247 277
f 1034 223 165
f 46 82 526
f 206 409 558
f 1054 405 751
f 121 723 447
f 619 80 210
f 783 366 1055
f 449 1049 598
f 305 63 107
f 512 791 177
f 1024 201 910
f 278 201 1056
f 553 520 109
f 952 386 922
f 924 654 1057
f 1058 178 1059
f 425 87 522
f 370 395 750
f 366 471 70
f 67 418 601
f 619 499 54
f 518 121 447
f 8 170 295
f 1050 1051 1060
f 492 556 369
f 547 614 164
f 47 294 298
f 424 50 501
f 942 443 468
f 110 267 573
f 733 1061 732
f 420 1062 663
f 527 400 992
f 483 977 1063
f 516 659 65
f 505 136 761
f 189 188 1064
f 498 497 454
f 992 400 993
f 537 611 457
f 799 502 1065
f 247 114 396
f 1066 194 985
f 696 580 571
f 554 254 1067
f 1030 639 1068
f 483 656 977
f 406 599 600
f 947 1069 624
f 941 343 392
f 437 528 198
f 697 1070 57
f 203 30 123
f 303 194 1066
f 993 400 771
f 639 262 573
f 1071 645 1072
f 574 409 162
f 396 195 324
f 846 102 171
f 156 241 372
f 596 241 857
f 17 372 241
f 188 187 501
f 506 512 87
f 483 150 1073
f 739 178 1058
f 433 486 778
f 433 778 225
f 1074 432 1075
f 542 466 243
f 851 737 434
f 536 1074 677
f 199 1076 5
f 1077 1078 1070
f 107 49 270
f 1078 57 1070
f 622 479 387
f 1079 591 864
f 331 313 348
f 560 209 668
f 589 364 921
f 1055 299 326
f 1080 731 428
f 537 445 122
f 1069 947 950
f 962 99 1029
f 632 106 100
f 356 625 291
f 1081 27 965
f 957 1036 1082
f 73 1083 2
f 610 102 1007
f 1084 425 636
f 213 146 1085
f 1086 1087 1088
f 424 655 1006
f 495 784 266
f 469 328 234
f 303 1066 190
f 295 1009 1032
f 101 868 173
f 668 423 1089
f 1090 423 1091
f 173 228 101
f 1089 423 1090
f 330 518 371
f 885 422 919
f 1091 423 566
f 828 698 177
f 872 421 970
f 111 115 734
f 115 972 734
f 203 619 30
f 1092 501 176
f 712 1093 142
f 530 52 893
f 296 350 330
f 1094 435 78
f 640 259 249
f 523 416 1095
f 453 878 196
f 1074 1075 1096
f 108 188 1097
f 932 225 508
f 934 409 574
f 545 165 223
f 1098 549 491
f 16 583 17
f 500 52 530
f 742 56 1006
f 536 432 1074
f 623 1018 68
f 673 151 345
f 539 599 525
f 434 1099 125
f 745 301 551
f 1100 134 1101
f 630 338 38
f 771 400 314
f 381 481 496
f 318 616 1102
f 3 317 458
f 3 458 4
f 202 810 809
f 473 106 755
f 110 573 262
f 110 262 422
f 613 643 657
f 330 350 226
f 536 689 1103
f 1104 1105 1106
f 1104 1050 1060
f 254 62 1019
f 536 103 7
f 595 1011 969
f 194 115 111
f 397 278 1107
f 312 365 816
f 1108 328 469
f 1029 487 853
f 393 871 754
f 1109 178 803
f 292 625 1110
f 605 492 429
f 505 627 104
f 199 1111 1112
f 1113 1111 1114
f 199 200 1111
f 1111 200 1114
f 882 669 621
f 151 391 289
f 1093 712 1115
f 695 306 493
f 393 259 640
f 798 1116 1117
f 436 654 938
f 621 669 159
f 985 194 646
f 693 1118 1119
f 428 65 659
f 383 595 20
f 536 677 103
f 220 1120 637
f 1004 89 182
f 714 151 673
f 318 1102 1053
f 282 300 963
f 434 827 1099
f 17 596 584
f 57 1023 875
f 604 1121 420
f 306 958 480
f 343 443 392
f 895 412 109
f 604 793 1122
f 483 1063 926
f 1039 221 905
f 1123 702 1124
f 297 563 604
f 301 703 1001
f 582 701 14
f 404 931 489
f 12 71 484
f 947 624 1125
f 1126 260 1127
f 938 654 923
f 1128 509 202
f 1050 559 197
f 116 115 194
f 646 111 1040
f 944 665 582
f 388 1129 381
f 728 1130 1129
f 663 604 420
f 594 1131 1132
f 1133 1109 1134
f 107 294 47
f 412 991 1135
f 882 161 669
f 1136 106 632
f 544 1137 1138
f 835 953 88
f 940 1139 162
f 1140 140 1141
f 1087 867 1088
f 1088 867 1142
f 998 145 370
f 427 845 710
f 357 388 496
f 70 471 236
f 236 471 191
f 259 449 248
f 1143 908 1144
f 889 702 917
f 1120 220 483
f 169 396 114
f 1145 514 631
f 514 1145 1146
f 331 631 514
f 1055 366 299
f 631 1140 1145
f 1023 57 1021
f 1147 514 1148
f 162 1139 574
f 147 1124 702
f 170 1149 135
f 1090 1150 1089
f 1091 566 94
f 94 566 705
f 865 515 997
f 744 563 442
f 718 683 558
f 218 111 734
f 736 563 744
f 1151 336 120
f 1151 120 1138
f 120 544 1138
f 178 1109 1133
f 633 379 900
f 361 980 704
f 804 824 1152
f 340 238 237
f 134 1100 166
f 502 1153 1065
f 696 695 927
f 1154 1155 254
f 1019 1156 254
f 1021 57 1078
f 550 686 622
f 1149 170 502
f 1157 502 170
f 238 597 122
f 395 990 989
f 433 225 206
f 1107 1158 910
f 437 388 727
f 339 185 961
f 830 1159 1160
f 160 1052 888
f 830 151 540
f 259 248 249
f 644 897 294
f 294 897 298
f 101 228 223
f 541 250 1002
f 1151 335 336
f 1161 337 1162
f 1161 1162 1156
f 245 565 676
f 170 8 1157
f 143 168 838
f 335 285 336
f 272 524 81
f 514 1163 313
f 113 1000 467
f 271 524 272
f 1057 654 779
f 625 85 484
f 334 234 685
f 748 764 266
f 286 1032 1031
f 900 340 237
f 1163 514 1147
f 286 1031 77
f 343 1164 344
f 550 622 518
f 171 102 398
f 67 601 1165
f 1165 601 1166
f 478 610 1167
f 116 303 519
f 404 654 498
f 519 113 116
f 577 567 697
f 322 351 353
f 745 1168 329
f 248 449 842
f 1046 248 842
f 403 564 244
f 1132 671 349
f 351 322 455
f 978 27 132
f 629 682 1044
f 629 1044 1169
f 629 1169 983
f 577 392 567
f 498 465 504
f 618 343 941
f 158 75 88
f 340 379 597
f 887 671 1131
f 1110 625 1170
f 285 973 981
f 1141 140 724
f 397 1107 910
f 1070 1171 1077
f 177 791 1172
f 896 1173 991
f 1174 646 1040
f 623 185 410
f 1175 338 630
f 1068 472 1117
f 1068 639 472
f 1123 134 702
f 129 545 1135
f 930 404 817
f 684 823 1176
f 873 407 1046
f 456 296 371
f 447 1098 491
f 576 391 374
f 447 723 1098
f 1037 456 964
f 592 154 1177
f 964 456 491
f 535 542 630
f 303 190 519
f 1056 201 777
f 11 848 1178
f 754 259 393
f 851 554 1067
f 638 501 1092
f 536 1103 432
f 514 1146 1148
f 178 1133 1059
f 1008 295 170
f 603 80 602
f 149 846 963
f 322 537 455
f 322 27 382
f 1179 829 828
f 904 139 336
f 336 911 904
f 361 481 980
f 149 300 1007
f 666 249 235
f 1180 2 1083
f 131 509 19
f 197 430 1051
f 226 550 330
f 144 85 86
f 386 226 161
f 881 386 161
f 158 88 954
f 622 121 518
f 1121 604 1122
f 384 487 613
f 690 406 600
f 1181 1080 394
f 170 730 1008
f 912 593 1182
f 633 105 566
f 485 664 150
f 659 16 585
f 207 531 208
f 784 1005 266
f 1183 402 1184
f 1053 1072 281
f 108 1097 1064
f 253 285 335
f 379 209 597
f 185 623 68
f 68 328 185
f 1035 1162 337
f 619 91 499
f 234 334 569
f 545 228 521
f 727 357 1001
f 694 45 903
f 1185 897 214
f 1186 711 1126
f 873 235 407
f 1084 636 1187
f 111 646 194
f 546 522 1188
f 230 1002 250
f 561 598 1189
f 519 746 999
f 435 295 286
f 177 1172 828
f 427 709 89
f 1135 90 412
f 1170 625 484
f 1170 484 307
f 202 809 1128
f 505 1013 627
f 388 357 727
f 239 1190 858
f 825 595 320
f 801 364 589
f 483 1073 1120
f 391 88 75
f 1177 154 713
f 1174 612 646
f 143 838 23
f 1041 27 1191
f 382 537 322
f 1041 382 27
f 27 1081 1191
f 876 122 597
f 362 13 662
f 1117 472 798
f 286 78 435
f 961 328 1108
f 1026 196 902
f 976 133 459
f 1137 544 261
f 1192 1065 1153
f 1193 794 1025
f 959 145 515
f 491 549 766
f 854 487 79
f 1194 67 1165
f 553 811 520
f 1025 121 984
f 1131 671 1132
f 388 728 1129
f 108 1064 188
f 836 88 967
f 19 509 1128
f 1135 545 90
f 497 504 555
f 1142 15 971
f 1142 867 15
f 342 1195 44
f 1032 286 295
f 538 221 1038
f 960 515 1079
f 515 591 1079
f 865 591 515
f 262 919 422
f 168 834 717
f 456 371 491
f 296 456 159
f 159 669 296
f 296 669 350
f 425 522 546
f 1073 150 360
f 1087 1086 1196
f 106 1136 1197
f 310 524 271
f 285 974 973
f 285 866 974
f 253 1198 21
f 350 161 226
f 499 91 525
f 579 196 878
f 371 447 491
f 866 285 253
f 962 1028 258
f 363 133 995
f 149 1007 102
f 1143 1164 343
f 159 1012 1015
f 667 606 365
f 522 661 1188
f 521 982 553
f 1143 343 908
f 150 928 360
f 669 161 350
f 787 1199 653
f 505 1200 1013
f 396 169 195
f 1175 542 33
f 1147 1201 1163
f 68 1018 1202
f 1137 261 268
f 502 1157 1153
f 249 407 235
f 630 542 1175
f 83 115 287
f 622 987 984
f 590 269 588
f 1159 540 255
f 884 68 1202
f 1203 992 586
f 884 685 68
f 73 863 1083
f 1191 1081 1204
f 505 698 136
f 327 299 1027
f 905 221 139
f 126 179 1205
f 260 1126 711
f 927 695 775
f 255 540 289
f 501 797 188
f 140 1140 631
f 140 631 331
f 1206 1207 1105
f 474 421 732
f 830 540 1159
f 226 386 943
f 535 630 411
f 515 145 998
f 493 480 214
f 1198 335 1151
f 484 85 12
f 1067 254 1155
f 406 525 599
f 568 425 1084
f 654 404 779
f 428 394 1080
f 1208 846 171
f 423 209 566
f 168 429 838
f 542 243 956
f 542 956 417
f 1020 72 511
f 390 1209 1035
f 595 26 543
f 253 335 1198
f 521 228 426
f 521 426 982
f 1154 254 1156
f 1156 1162 1154
f 150 562 928
f 453 196 1026
f 1207 1106 1105
f 967 88 576
f 407 249 248
f 16 659 516
f 222 95 184
f 222 96 95
f 222 1184 402
f 134 1123 1101
f 222 184 1184
f 81 416 523
f 204 578 229
f 222 700 96
f 460 582 363
f 693 1119 649
f 502 41 1149
f 246 242 650
f 281 1072 645
f 664 485 1210
f 893 538 1038
f 67 1194 977
f 570 506 431
f 746 1211 999
f 1212 969 1011
f 1105 1104 1060
f 642 227 579
f 1200 505 42
f 496 388 381
f 393 421 872
f 701 1213 14
f 1214 620 1026
f 416 983 1095
f 453 620 1042
f 416 534 983
f 50 56 212
f 206 683 433
f 106 1197 763
f 488 216 247
f 50 212 797
f 287 116 113
f 493 306 480
