v -0.069544 0.124649 -0.050018
v -0.029649 -0.01364 -0.142672
v -0.038564 -0.0604585 -0.185365
v -0.0406043 0.030274 0.0223499
v -0.186261 0.0782763 0.0219393
v -0.111031 -0.125917 -0.0457743
v 0.0724497 -0.152416 -0.189106
v 0.0461057 0.14567 -0.0667613
v 0.0657601 0.114134 -0.0814313
v 0.181096 -0.021604 0.172015
v -0.0946282 -0.132981 -0.125119
v 0.229795 0.182786 -0.037039
v -0.0708665 -0.134623 -0.0400804
v 0.184174 -0.025797 0.08255
v 0.184758 -0.026409 0.041933
v 0.19774 0.176356 0.0464909
v 0.156323 0.168169 0.067314
v 0.182058 0.169124 0.082872
v 0.176184 -0.065815 0.203849
v 0.179811 -0.04218 0.191545
v -0.0946396 -0.0126134 -0.0877188
v 0.33074 0.080964 0.031327
v 0.126464 -0.164553 -0.092078
v 0.164963 -0.158024 -0.118226
v 0.163657 -0.15852 -0.0788537
v -0.00463025 -0.0173298 -0.102213
v 0.044205 0.153092 -0.0002635
v 0.00831733 0.13845 0.0597037
v -0.0763679 -0.0167711 0.0356092
v 0.242449 0.107838 0.0974388
v 0.287983 0.161275 -0.0659993
v 0.194001 -0.0195506 -0.161562
v -0.0569105 -0.14083 -0.140657
v 0.215299 -0.0418501 0.188886
v -0.256335 -0.0935836 0.0757523
v 0.183772 -0.02321 0.126312
v 0.057762 0.0431025 0.0343637
v 0.0293662 0.0450515 -0.00077125
v 0.0783475 0.051085 6.25e-05
v 0.0759465 -0.145613 -0.001462
v 0.0737903 0.151494 -0.0353777
v 0.0823526 -0.157288 0.0287088
v 0.289689 -0.1898 0.150186
v 0.0493608 0.0781614 -0.0827947
v 0.0638783 0.0483723 -0.0741537
v -0.034301 -0.015408 0.138018
v -0.201839 0.002935 -0.057753
v -0.175676 0.007519 -0.055619
v 0.161046 -0.159513 0.157569
v 0.161046 -0.159513 0.196989
v 0.225493 -0.183779 -0.0334049
v -0.0857321 0.0727492 0.0649295
v 0.164287 -0.0202035 0.147399
v 0.148742 -0.0250991 -0.0408293
v -0.210937 -0.103388 -0.0754682
v -0.225363 -0.103923 0.0447976
v 0.198446 0.0915594 -0.0909281
v 0.217815 0.07288 0.088904
v 0.074922 -0.141799 -0.233179
v 0.103447 -0.146273 -0.234793
v 0.0617433 -0.111327 0.227741
v 0.158131 0.155228 0.089547
v 0.312633 -0.0813456 0.164886
v 0.208519 -0.101693 0.212608
v -0.357658 -0.075706 0.043224
v -0.377527 -0.072357 0.023357
v -0.35933 -0.0749757 -0.00844833
v 0.311996 0.080235 0.067202
v 0.297366 0.079505 0.077707
v -0.012967 0.035409 -0.062643
v -0.019615 0.039018 -0.001605
v -0.0582 0.027736 -0.057166
v 0.348644 -0.196857 -0.0380312
v 0.18337 -0.020623 0.170075
v 0.346202 -0.122428 0.126332
v 0.325639 -0.119419 0.150964
v -0.171542 -0.0405075 -0.13295
v -0.193909 -0.037031 -0.12176
v 0.142883 0.143676 -0.0846063
v 0.162825 -0.149482 0.235652
v 0.157227 0.160816 0.085694
v -0.0089435 -0.0151555 0.144665
v -0.0337138 -0.154258 0.0790744
v 0.235327 -0.193483 -0.0757744
v 0.0937554 -0.162375 -0.15014
v -0.0949905 -0.014603 -0.00307125
v -0.135706 -0.012349 0.0430235
v 0.283823 -0.139814 -0.200709
v 0.021479 -0.012978 -0.154271
v 0.272168 -0.0286582 0.0967602
v -0.0148955 -0.018151 -0.00181775
v 0.0339472 0.110074 0.0755861
v 0.268487 0.0719513 0.00326867
v 0.253194 0.0699859 0.0472161
v 0.222399 0.0675517 0.00249933
v 0.322666 -0.0330077 -0.022923
v 0.0457773 0.0766923 0.0843077
v -0.295121 -0.02198 0.047114
v -0.298978 -0.0518923 0.0679177
v -0.272021 -0.025941 0.064425
v -0.145276 -0.120929 0.0435023
v 0.294457 0.0738181 0.0362562
v 0.232752 -0.101745 -0.205798
v -0.272229 -0.0974267 0.0366858
v -0.287339 -0.086551 -0.007277
v -0.251343 -0.0923383 -0.00669133
v 0.0279449 -0.0382513 -0.183374
v 0.374548 -0.062731 -0.0166371
v 0.253897 -0.173927 0.21749
v 0.257072 -0.20124 0.123061
v 0.187916 -0.021635 -0.123752
v 0.0548185 -0.16043 -0.145394
v -0.0218115 -0.0171451 -0.0669388
v 0.195178 -0.021951 0.168717
v 0.265264 -0.0602116 0.18904
v 0.36406 -0.155499 0.12158
v 0.143506 0.061323 0.085707
v 0.304446 0.192793 0.004309
v 0.293464 0.194495 0.004133
v 0.256965 0.182135 0.081992
v 0.260095 0.152005 -0.0850653
v 0.274671 0.185221 0.074858
v 0.226636 -0.0621499 -0.200502
v 0.215677 -0.0249415 0.0506406
v 0.328821 0.081337 -0.033888
v 0.324906 0.081306 -0.04363
v 0.356279 -0.188665 0.00304667
v 0.395326 -0.194495 0.003678
v 0.0930894 -0.156995 0.184351
v -0.0746511 -0.0157941 0.0740647
v 0.105657 -0.163653 0.0638658
v -0.132793 -0.0831384 0.16998
v 0.269341 0.185365 0.040914
v 0.295752 0.188914 0.054633
v 0.0254557 0.0418907 -0.0683983
v 0.349158 -0.038528 0.057933
v 0.356123 -0.0639065 0.0896761
v 0.0942039 -0.020114 0.122872
v 0.294225 -0.030788 -0.123351
v 0.283401 -0.029496 -0.131255
v 0.207458 0.173534 0.085256
v 0.210321 0.128729 0.100865
v 0.216425 -0.0245737 -0.0386607
v 0.156177 0.171213 0.047425
v 0.307039 -0.178721 -0.185602
v 0.321583 -0.145355 -0.175887
v 0.355652 -0.0596673 -0.0807417
v 0.0701876 -0.0399411 -0.194283
v -0.16973 0.0491561 -0.0594667
v 0.280289 -0.0677312 -0.182102
v 0.0221677 -0.0203852 0.0919962
v -0.104096 -0.130902 0.0373531
v 0.291574 0.188577 -0.054637
v 0.297424 0.18955 -0.046263
v 0.066005 -0.079767 0.208624
v 0.099643 0.053843 0.08053
v -0.0495249 -0.0169017 0.0970356
v -0.082072 -0.015702 0.123664
v 0.343365 -0.0874657 0.132651
v 0.135092 -0.0197122 0.124357
v 0.135926 -0.0460611 0.204021
v 0.288457 -0.0259885 -0.0328867
v 0.0530376 0.0423538 -0.035198
v 0.188383 -0.023247 -0.176726
v -0.00224887 -0.0961906 -0.210811
v 0.124154 -0.153718 0.235324
v 0.136752 -0.090638 0.216463
v 0.0804211 -0.110155 -0.225641
v 0.210405 -0.12814 -0.228594
v 0.31341 -0.201035 0.0711266
v 0.183099 -0.021919 0.174473
v -0.220655 -0.105958 0.0979302
v -0.0429735 -0.0913171 -0.201252
v 0.307389 0.129947 0.0780104
v -0.197956 -0.0709879 0.13912
v -0.233193 -0.004684 -0.067898
v -0.126122 -0.114079 0.146842
v 0.232411 -0.0244807 0.0816213
v -0.285298 0.0104007 0.0266539
v -0.314757 -0.018577 0.030012
v -0.216067 -0.096445 -0.153992
v -0.0242515 -0.151777 -0.118351
v -0.054717 0.03377 -0.002206
v -0.0203 -0.066509 0.187957
v -0.0446155 -0.062758 0.179799
v 0.189734 -0.181266 0.0861078
v -0.0602043 -0.144102 -0.106524
v 0.108582 -0.166193 0.103585
v 0.282973 -0.202527 -0.0873132
v 0.166632 0.106876 0.093063
v -0.22949 -0.0672079 0.111466
v 0.176378 0.06778 -0.060476
v 0.220683 0.07397 -0.08412
v -0.0795688 -0.144383 0.0768514
v 0.116517 0.108365 -0.0933566
v 0.167575 -0.157032 -0.19697
v 0.243361 -0.196516 -0.12623
v -0.218862 -0.00585793 -0.0707797
v 0.0554489 -0.151233 0.181591
v -0.133804 0.08487 -0.066699
v -0.132171 0.075204 -0.066603
v -0.129393 0.058355 -0.064291
v 0.287818 0.121769 -0.0858692
v -0.24894 0.028953 0.0327153
v -0.124095 -0.130129 0.0764705
v 0.244061 -0.168466 -0.221725
v 0.261057 -0.171207 -0.214522
v -0.308692 0.0136535 -0.006968
v 0.224331 -0.0718176 0.206001
v 0.243685 -0.027337 0.155122
v 0.0494146 -0.16225 -0.0959388
v 0.255694 -0.028654 0.149768
v 0.185342 -0.027021 0.001316
v 0.145295 -0.025247 0.00068925
v -0.252122 0.063211 -0.005675
v -0.279075 0.041585 -0.00627
v 0.247404 0.180472 0.084046
v 0.227513 0.177015 0.08579
v 0.176673 0.067661 -0.084006
v 0.357499 -0.039285 0.032101
v 0.0440627 -0.154713 -0.0468358
v 0.161046 -0.159513 0.0787303
v -0.0158204 -0.0121818 0.0828938
v 0.306028 -0.033048 0.0741794
v 0.102301 0.054854 -0.079909
v -0.136801 -0.110863 -0.00484375
v -0.00493731 0.0351851 0.0289871
v -0.239226 0.0398158 -0.0398509
v -0.0331976 -0.0175777 -0.0321499
v -0.060011 0.027048 0.052142
v -0.091467 0.021677 0.048764
v 0.379037 -0.0824298 -0.0520655
v -0.253736 0.00834915 -0.0617565
v -0.110059 -0.015131 0.114477
v 0.159341 0.148092 0.092177
v -0.137054 0.103305 -0.060498
v -0.137999 0.108298 -0.054943
v 0.126086 -0.159027 0.200618
v -0.124457 0.022281 -0.018856
v 0.036589 -0.135788 -0.229033
v 0.232664 -0.0247603 0.124032
v -0.014986 0.034642 0.05921
v 0.31997 0.081206 -0.052034
v 0.23968 -0.190708 0.154495
v 0.260242 -0.183741 0.181547
v 0.300814 -0.181087 0.190039
v 0.286014 -0.17884 0.200359
v 0.369149 -0.191203 0.108193
v 0.376704 -0.192265 0.091919
v -0.301942 -0.083287 -0.100515
v 0.072955 -0.077126 -0.21072
v 0.108485 -0.082502 -0.214682
v 0.0398245 -0.075748 0.203011
v 0.013644 -0.071729 0.197398
v 0.301339 -0.115802 0.172342
v -0.337309 -0.014523 -0.001027
v -0.338309 -0.014278 -0.007666
v 0.215527 -0.09903 -0.210251
v 0.16472 0.135955 -0.090409
v -0.138047 -0.01456 0.105289
v -0.158188 0.085725 0.0388235
v -0.136957 -0.012604 0.10002
v 0.0712407 -0.0254391 -0.0710022
v -0.133509 -0.011294 -0.107996
v -0.136375 -0.011869 0.089745
v 0.157854 -0.015667 -0.169466
v -0.117731 -0.0098807 0.0671633
v -0.124428 0.015978 0.046909
v -0.181811 -0.104417 0.12158
v -0.182632 -0.104585 0.163947
v -0.176108 -0.091138 0.160363
v -0.0751094 -0.0377895 0.145458
v -0.068931 -0.059007 0.171642
v -0.170622 -0.089053 -0.170655
v -0.177021 -0.102454 -0.174623
v 0.225883 -0.104356 0.208702
v 0.248697 -0.135609 0.219544
v 0.258431 -0.109322 0.197359
v -0.232939 -0.00426 0.054128
v -0.228577 -0.002904 0.051974
v -0.13941 0.114463 -0.032819
v 0.18884 -0.019737 -0.171982
v -0.164473 0.0868921 -0.0447895
v -0.133272 -0.010689 -0.097538
v -0.149214 0.012067 -0.054915
v -0.122752 0.016615 -0.054211
v 0.0232237 0.0410423 0.0663167
v 0.335539 -0.057779 -0.113974
v 0.197824 0.176786 -0.040688
v 0.162333 0.14923 -0.088384
v 0.0600044 -0.16533 0.0913799
v 0.314576 0.076351 0.004038
v 0.0150037 0.0359372 -0.0332025
v -0.019944 -0.126932 -0.220216
v -0.056163 -0.121265 -0.212832
v 0.128547 -0.16555 -0.132744
v 0.166269 -0.157528 -0.157598
v 0.0801106 0.0810743 -0.0875972
v 0.31811 0.080499 0.060242
v 0.025152 -0.019925 -0.001191
v 0.0433372 -0.0263591 -0.0377861
v 0.247006 -0.0248514 0.0349973
v 0.323321 0.080703 0.05201
v -0.135038 -0.012829 -0.003698
v -0.104844 -0.015508 -0.0132873
v 0.328647 -0.036464 0.092315
v 0.298909 0.0744125 -0.0289878
v -0.106873 -0.113346 -0.199886
v 0.292589 -0.176341 -0.196386
v 0.126238 0.159942 -0.076096
v 0.081893 0.152129 -0.072466
v -0.128278 -0.113039 -0.150826
v 0.0954477 0.0493184 0.038746
v 0.355072 -0.186807 -0.132786
v 0.280032 0.07846 0.084326
v -0.164657 -0.076513 -0.165059
v -0.177603 -0.102818 -0.132347
v -0.171749 -0.105071 -0.130623
v -0.133069 -0.123209 -0.0974931
v -0.178186 -0.103183 -0.090071
v -0.220925 -0.00759413 0.0595053
v -0.0370258 -0.0128869 0.0533912
v 0.046602 -0.073172 -0.205928
v 0.259791 -0.200199 0.0591415
v -0.0326223 -0.135047 0.167348
v -0.394184 -0.069447 -0.002145
v -0.16131 -0.011899 -0.104575
v -0.063103 -0.123903 0.2059
v 0.168881 -0.156536 -0.236342
v 0.363704 -0.0892488 -0.0997524
v 0.379627 -0.127032 0.053378
v -0.352832 -0.042059 0.0180252
v -0.162814 -0.063951 0.147116
v 0.369496 -0.125715 0.084237
v -0.2 0.0375337 -0.0563718
v 0.36278 -0.124789 0.098883
v 0.287867 -0.113778 0.181677
v -0.229585 -0.008445 0.066633
v -0.226673 -0.00218 -0.062961
v 0.0140359 -0.155287 -0.134821
v -0.268328 -0.0564147 0.0941309
v 0.344248 -0.197834 0.0413354
v 0.0588157 -0.163176 0.135749
v -0.0369862 -0.147608 -0.0722764
v 0.184534 0.151006 0.0904208
v -0.25913 -0.0561004 -0.106456
v 0.207825 -0.162679 -0.232023
v 0.18867 -0.159648 -0.234967
v -0.00190925 -0.149748 0.0395536
v 0.293808 -0.11152 -0.176813
v 0.264907 -0.10686 -0.193429
v 0.386106 -0.127599 0.003984
v 0.382981 -0.127414 0.037274
v 0.165168 -0.136327 0.232646
v 0.207248 -0.131927 0.231787
v 0.171769 -0.096035 0.216622
v -0.054943 -0.016377 -0.0024445
v -0.0728737 -0.0187625 -0.0499171
v 0.275619 0.107767 0.0935885
v 0.178929 -0.093314 -0.215413
v 0.143925 -0.087912 -0.216347
v 0.182912 -0.063258 -0.202121
v -0.131407 0.05759 0.057289
v 0.381268 -0.126409 -0.045598
v 0.384086 -0.126994 -0.029391
v -0.395326 -0.069188 -0.009034
v -0.393956 -0.06936 -0.015879
v 0.340945 -0.0862979 -0.134632
v 0.234225 0.183403 0.0367798
v 0.323553 -0.0557882 0.13023
v 0.378247 -0.0831833 0.0519962
v 0.230253 0.178057 -0.079549
v 0.0118741 -0.160265 0.0820084
v 0.312392 -0.0574552 -0.145246
v 0.138988 0.139739 0.0891027
v 0.0040764 -0.0227095 -0.0373215
v 0.0265713 -0.021617 -0.0777311
v 0.391889 -0.194247 0.040053
v 0.200508 -0.17071 -0.1928
v -0.15778 -0.062038 -0.156633
v -0.108588 -0.050048 -0.161424
v -0.29333 -0.021299 -0.060929
v 0.232944 -0.181449 -0.174473
v -0.323335 -0.0807633 -0.00786267
v -0.311537 -0.0873793 0.0329891
v 0.333652 0.081071 0.00435
v 0.311248 -0.0306088 -0.0608862
v -0.230014 -0.102169 -0.0431523
v 0.210192 0.174573 -0.079657
v -0.212245 -0.009103 -0.085994
v -0.366817 -0.041733 -0.00835
v -0.337089 -0.01444 -0.014269
v 0.0103183 0.13921 -0.0610567
v 0.006772 0.146069 -0.000923
v -0.390202 -0.069903 -0.023525
v -0.376464 -0.071953 -0.040784
v -0.299594 -0.0517329 -0.0787101
v 0.0276909 -0.0202078 -0.12183
v -0.113358 -0.115811 0.191383
v -0.0882305 -0.119857 0.198641
v 0.372164 -0.1247 -0.076776
v 0.384295 -0.157586 -0.0738714
v 0.365937 -0.123589 -0.091634
v -0.188197 -0.010615 -0.095761
v 0.00738126 -0.158511 -0.08493
v -0.11605 0.0917313 0.0579244
v -0.081518 -0.117306 -0.206359
v -0.0816724 -0.0899571 -0.191861
v 0.291209 -0.04948 0.157039
v 0.328136 0.078476 0.004258
v 0.135135 0.0556086 0.0485279
v -0.0451324 0.0592141 -0.0793168
v 0.156504 0.17416 0.001715
v 0.189632 0.180672 0.0023075
v -0.0580962 -0.145152 0.121425
v -0.232918 0.076386 -0.005271
v 0.200723 -0.019844 -0.165829
v 0.119071 0.167137 0.0010555
v 0.105784 0.156663 0.0397489
v 0.188966 -0.018496 -0.167562
v 0.390825 -0.158032 0.0335752
v 0.199833 -0.181165 -0.100456
v 0.124974 -0.160716 0.0278251
v 0.209985 -0.183141 0.0484524
v 0.219352 -0.024648 0.163518
v 0.314106 -0.197351 0.112674
v 0.303698 -0.197733 -0.0387431
v -0.390685 -0.070086 0.005627
v 0.239139 -0.171174 0.001153
v -0.120662 -0.0797447 -0.181458
v 0.334391 0.086821 0.004376
v 0.162352 -0.159017 -0.0394813
v 0.314113 0.155279 -0.0363495
v 0.305604 0.190859 -0.024631
v 0.307668 0.191147 -0.011118
v -0.308927 -0.0863765 -0.0448292
v 0.299817 0.080437 -0.070193
v 0.109905 -0.0251083 0.082415
v 0.129493 -0.163079 -0.0528112
v 0.225446 0.0666703 -0.0417955
v 0.12367 0.158966 0.078836
v 0.32284 0.114942 -0.0471942
v 0.0223435 -0.141719 -0.182095
v -0.081126 -0.126515 0.158634
v 0.056258 -0.012778 -0.160707
v -0.214919 -0.010119 0.075383
v -0.190262 0.098912 -0.004425
v -0.201426 0.0686878 -0.0347893
v -0.28321 -0.088062 0.1009
v -0.230961 -0.003508 -0.065275
v -0.305027 -0.08446 0.085647
v -0.332889 -0.079838 0.064298
v 0.08773 -0.0252819 0.0418797
v -0.235258 -0.005468 0.056659
v 0.105247 -0.023473 6.25e-05
v -0.170749 0.0491201 0.0441785
v 0.290038 -0.032379 0.129289
v 0.31066 -0.034579 0.112127
v -0.140386 0.114091 0.026038
v 0.313978 0.157788 0.0421006
v 0.101386 -0.0852 0.213693
v -0.177368 0.006877 0.046448
v -0.203586 0.002271 0.047656
v -0.191208 -0.011759 0.085922
v -0.143301 -0.120848 0.109689
v -0.215662 -0.0648069 -0.134085
v -0.212443 0.0494073 0.0300451
v 0.316097 0.177885 0.004437
v 0.090948 -0.013019 -0.165646
v 0.272801 -0.0257613 -0.083111
v 0.0444938 -0.157568 0.0496242
v 0.0651995 -0.021699 -0.00056425
v 0.314091 0.081032 -0.059197
v 0.327305 0.119069 0.0374742
v 0.095697 -0.149218 0.232821
v -0.169963 -0.07853 0.155126
v 0.0204093 0.102628 -0.0784521
v 0.350948 -0.037848 -0.050087
v 0.372626 -0.189882 -0.101622
v 0.379638 -0.19115 -0.085114
v -0.269211 -0.0970244 -0.0431
v 0.363643 -0.096242 0.100166
v 0.173835 0.066582 0.08725
v 0.124997 -0.013912 -0.168697
v 0.330542 -0.117555 -0.144898
v 0.350277 -0.120879 -0.119611
v 0.0649356 -0.023035 -0.11182
v 0.325669 0.145149 0.004458
v -0.103805 0.118036 0.042544
v 0.0141777 -0.149036 0.166998
v 0.275794 -0.202841 0.0913555
v 0.227794 -0.0220961 -0.0794142
v -0.0533717 -0.140536 0.0357423
v -0.071133 0.124045 0.045843
v -0.0666345 0.130577 -0.002214
v -0.0299312 0.138323 -0.0015685
v 0.279861 -0.0286239 0.0488128
v 0.0975435 -0.166066 0.144488
v 0.312643 -0.033715 0.00335
v -0.0195161 -0.0951721 0.207033
v 0.18087 -0.162612 0.235652
v 0.0027691 -0.147326 -0.0410432
v 0.0438947 0.144829 0.0666723
v -0.004085 -0.013309 -0.148472
v 0.161036 0.156332 -0.085706
v -0.089749 0.022329 -0.054901
v 0.282558 0.186599 0.069518
v 0.125444 -0.116529 -0.23022
v 0.350572 -0.188517 0.138779
v 0.336716 -0.148664 0.159262
v 0.327672 -0.185127 0.166258
v 0.14631 0.062389 -0.083535
v 0.0755581 0.106227 0.088398
v 0.308202 0.191161 0.004364
v 0.307155 0.190953 0.019822
v 0.312081 0.186523 0.004408
v 0.304644 0.190494 0.033265
v 0.3008 0.189807 0.044825
v 0.331636 0.081304 -0.022709
v -0.153804 -0.045744 0.135144
v -0.11381 -0.052033 0.153684
v -0.212394 0.088349 -0.004855
v -0.231346 -0.006675 -0.074106
v -0.233334 -0.005732 -0.070837
v 0.161046 -0.159513 0.236408
v 0.016414 -0.014903 0.151313
v 0.159261 0.165705 -0.076582
v 0.160003 0.161871 -0.081815
v -0.282419 0.0122977 -0.0395987
v 0.145309 -0.0434447 -0.202998
v 0.120044 -0.15487 -0.205143
v -0.0443315 0.0801907 0.0703722
v -0.288473 -0.0941232 -0.0750013
v 0.236228 -0.0226708 -0.119011
v 0.172871 -0.133399 -0.232154
v -0.094252 -0.117813 -0.0041675
v -0.0332135 -0.138263 -0.0323611
v 0.333369 0.102181 0.004413
v -0.009153 -0.131713 -0.002815
v 0.186866 -0.024774 -0.079943
v 0.207524 -0.178056 0.184663
v 0.327557 0.080856 0.042405
v -0.279632 -0.086702 -0.115006
v 0.161662 0.134793 0.094113
v 0.306964 -0.113665 -0.167051
v 0.336434 -0.037262 0.08146
v 0.339011 -0.036283 -0.074022
v 0.331588 -0.035345 -0.085128
v 0.191737 0.143703 -0.0905887
v 0.111141 -0.0258337 -0.0567741
v 0.184727 0.170139 -0.0781195
v -0.341452 -0.0453518 -0.0481534
v 0.0083225 -0.13136 -0.224624
v 0.368641 -0.046581 0.004192
v 0.36076 -0.039456 0.0041
v -0.0147973 -0.153857 0.124433
v -0.180991 -0.104249 0.079214
v -0.180171 -0.104081 0.036847
v 0.216845 -0.035787 -0.181465
v -0.013991 -0.064112 -0.192759
v 0.0333968 -0.138663 -0.0021385
v 0.186124 -0.039781 -0.189408
v -0.227193 -0.007536 -0.077714
v -0.249252 -0.0946731 -0.0841514
v -0.13971 0.107648 0.04829
v 0.317233 -0.182834 0.00241533
v -0.26967 -0.025047 -0.077438
v -0.027147 -0.12967 0.214408
v 0.000959 -0.134159 0.219695
v -0.134155 -0.011759 -0.050618
v 0.250276 0.076179 0.088727
v -0.157515 -0.108668 0.175277
v 0.229809 -0.195818 0.0899897
v 0.127329 0.0571185 0.00089625
v 0.161046 -0.159513 -0.000109
v 0.200093 -0.165343 0.000522
v 0.161046 -0.159513 0.0393107
v 0.112766 -0.119219 0.230668
v -0.148211 -0.11556 -0.0501127
v -0.140041 0.115085 -0.003505
v -0.103338 0.122831 -0.0028595
v 0.0614333 0.0474427 0.0734233
v -0.0778048 -0.122023 -0.168335
v -0.17695 -0.105951 0.126486
v 0.199694 -0.180621 -0.144847
v -0.0517025 -0.124763 -0.00349125
v 0.195616 -0.17595 -0.056196
v 0.152212 -0.017812 0.170983
v 0.182486 -0.025489 0.179155
v 0.176344 0.065466 -0.029373
v 0.22471 -0.022612 -0.159858
v 0.260578 -0.026797 -0.14494
v 0.248753 -0.025411 -0.15068
v 0.13142 -0.0285776 0.0418909
v -0.149176 -0.043984 -0.144141
v -0.135902 0.084073 0.059883
v 0.314267 -0.033208 -0.105521
v 0.106196 -0.0224407 -0.0979295
v -0.178769 -0.103548 -0.0477955
v -0.215347 -0.0981257 -0.00610567
v 0.169659 0.108026 -0.089547
v -0.330495 -0.078928 -0.080145
v 0.382729 -0.158736 0.0767628
v 0.222759 0.187184 0.0029
v -0.089819 0.028522 -0.002807
v 0.388119 -0.193794 0.057775
v 0.278958 -0.031184 0.136835
v -0.0010074 0.0864743 0.0790401
v -0.0691586 0.0149847 -0.00253111
v -0.02726 0.13207 0.052735
v -0.197772 -0.038499 0.111299
v -0.23434 -0.032345 0.089404
v 0.143436 -0.0183629 -0.131119
v 0.079472 0.151209 0.073641
v 0.293934 -0.196747 0.0329336
v -0.164628 -0.0131595 0.0956055
v -0.150898 0.0114275 0.0466785
v 0.230323 0.122674 -0.0959869
v -0.07787 -0.014104 -0.129913
v 0.170632 -0.146516 -0.235401
v 0.149526 -0.0250369 0.0828256
v 0.050961 -0.014791 0.158899
v 0.249288 -0.133959 -0.218772
v -0.134423 -0.013183 -0.11339
v -0.0491397 0.0960515 -0.069817
v -0.0132641 0.0791459 -0.0813085
v -0.101861 -0.13407 0.115973
v 0.125155 -0.163712 0.163737
v 0.161046 -0.159513 0.11815
v 0.0951307 0.0462651 -0.0385084
v 0.089298 -0.165281 -0.110269
v -0.329347 -0.016002 0.013755
v 0.282712 0.079478 -0.077401
v 0.250076 0.181487 -0.077175
v 0.126863 -0.159696 -0.170675
v -0.0498073 -0.0150856 -0.0973065
v -0.0555395 -0.0921819 0.19409
v 0.0455048 -0.0237974 0.043533
v 0.110777 0.124034 0.0891763
v 0.331217 -0.199082 -0.0754574
v 0.0639588 0.150251 0.0351928
v -0.0884418 0.0761608 -0.073911
v -0.102307 0.118605 -0.04788
v 0.081638 0.160114 0.000396
v 0.268082 0.0695697 -0.0462171
v 0.186104 -0.0258975 -0.0393135
v -0.261393 -0.091664 0.116152
v 0.261336 0.19293 0.003582
v 0.333095 -0.183066 -0.16098
v 0.289628 0.187837 0.062821
v 0.085468 -0.015102 0.164982
v 0.119398 -0.01604 0.169148
v 0.227776 -0.0292523 0.001994
v 0.270209 -0.0314837 0.002672
v -0.138948 0.102585 0.05381
v -0.137918 0.096168 0.057469
v 0.218729 -0.1685 0.229451
v 0.200113 -0.165611 0.233308
v 0.020249 -0.069218 -0.201135
v 0.036882 -0.100645 -0.21896
v 0.302145 0.190318 -0.036304
v 0.131972 -0.150747 -0.236408
v -0.135902 0.096935 -0.064202
v -0.313522 -0.018108 -0.044513
v -0.134265 0.074409 0.059719
v 0.319471 -0.0339394 0.0420261
v 0.174319 0.066998 0.063775
v 0.156658 0.164715 0.080488
v 0.0678241 -0.0239496 0.0835765
v 0.118735 0.0883342 0.0930447
v 0.158491 0.168993 -0.063501
v 0.313973 -0.0876509 -0.160369
v 0.109828 0.158984 -0.0384555
v 0.0935553 -0.0422138 0.1997
v 0.00424283 -0.019154 0.0438622
v -0.355948 -0.075056 -0.059946
v 0.054198 -0.0416732 0.190052
v -0.161512 -0.00691459 -0.0787647
v 0.135868 0.0565565 -0.0465358
v -0.151542 -0.106397 -0.185165
v 0.28473 0.187425 -0.061552
v -0.328643 -0.015735 -0.028767
v 0.269082 -0.183167 -0.168784
v 0.246023 -0.188633 0.0273078
v 0.324429 -0.193307 -0.114159
v -0.025469 0.132751 -0.055352
v 0.26681 0.186435 -0.0319053
v 0.251679 -0.0242194 -0.0389704
v -0.0944732 -0.0864298 0.177632
v 0.06724 -0.144718 0.230319
v 0.381907 -0.090091 0.004144
v 0.376176 -0.063314 0.004215
v 0.029065 -0.138648 0.224982
v 0.0876399 -0.160461 -0.0562809
v -0.063137 -0.056805 -0.177971
v -0.231184 -0.031145 -0.101116
v 0.157688 0.171787 -0.043785
v -0.0875103 -0.137691 -0.0803569
v 0.107927 -0.0357629 -0.195842
v -0.0702327 -0.0357105 -0.151938
v 0.389916 -0.193111 -0.050621
v 0.21115 0.0662976 0.047138
v 0.201095 -0.186748 0.131599
v 0.393096 -0.193788 -0.032788
v 0.391411 -0.172871 0.003773
v 0.0246927 -0.161765 0.120411
v -0.16624 0.107887 -0.003976
v 0.277024 0.186115 -0.067135
v 0.251836 -0.0421156 -0.174977
v -0.214516 -0.0972018 -0.112467
v -0.257322 -0.090117 -0.129497
v 0.0792749 -0.0257314 -0.0338059
v -0.151469 -0.0225848 -0.118694
v -0.141165 -0.027236 -0.129816
v 0.17631 0.063152 0.00173
v -0.261721 -0.00691185 0.056923
v 0.358268 -0.152558 -0.12975
v -0.179351 -0.103913 -0.00552
v 0.358429 -0.038931 -0.023993
v 0.347704 -0.036914 0.0039
v 0.259564 0.183123 -0.07482
v 0.0172227 -0.0389536 0.175973
v 0.226303 -0.165621 -0.227583
v -0.119808 -0.029643 -0.134391
v -0.106146 -0.0136435 -0.121652
v 0.293789 -0.144375 0.197594
v 0.253119 0.077259 -0.082821
v 0.260468 0.145732 0.0929695
v -0.0259964 -0.136924 -0.170208
v -0.138729 0.11188 -0.047346
v 0.0512901 -0.0197129 0.12247
v 0.175315 0.065075 0.0327525
v -0.235496 -0.006553 0.05958
v -0.233617 -0.007538 0.0629
v 0.0986799 -0.0185378 -0.135075
v 0.146702 -0.0251594 -0.0882764
v 0.291975 -0.19134 -0.137837
v 0.262128 -0.193109 -0.038906
v -0.175788 -0.0421215 0.123222
v 0.278186 -0.177004 0.001784
v -0.145327 -0.028817 0.121304
v -0.140188 0.111326 0.040719
v 0.236672 -0.171275 0.224153
v 0.118496 -0.152563 -0.0007855
v -0.220973 -0.09831 0.142041
v 0.160003 0.161871 -0.081815
v 0.186866 -0.024774 -0.079943
v -0.019615 0.039018 -0.001605
v -0.141165 -0.027236 -0.129816
v 0.200723 -0.019844 -0.165829
v 0.188966 -0.018496 -0.167562
v 0.187916 -0.021635 -0.123752
v -0.295121 -0.02198 0.047114
v -0.012967 0.035409 -0.062643
v 0.349158 -0.038528 0.057933
v 0.357499 -0.039285 0.032101
v 0.186124 -0.039781 -0.189408
v 0.188383 -0.023247 -0.176726
v 0.152212 -0.017812 0.170983
v 0.18337 -0.020623 0.170075
v -0.034301 -0.015408 0.138018
v -0.272021 -0.025941 0.064425
v 0.000959 -0.134159 0.219695
v -0.038564 -0.0604585 -0.185365
v -0.137999 0.108298 -0.054943
v -0.137054 0.103305 -0.060498
v -0.091467 0.021677 0.048764
v -0.124428 0.015978 0.046909
v -0.136957 -0.012604 0.10002
v 0.222399 0.0675517 0.00249933
v 0.171769 -0.096035 0.216622
v -0.108588 -0.050048 -0.161424
v 0.044205 0.153092 -0.0002635
v 0.006772 0.146069 -0.000923
v -0.188197 -0.010615 -0.095761
v -0.110059 -0.015131 0.114477
v -0.138047 -0.01456 0.105289
v 0.195178 -0.021951 0.168717
v 0.219352 -0.024648 0.163518
v 0.156177 0.171213 0.047425
v 0.183772 -0.02321 0.126312
v 0.178929 -0.093314 -0.215413
v 0.33074 0.080964 0.031327
v 0.156323 0.168169 0.067314
v 0.12367 0.158966 0.078836
v 0.101386 -0.0852 0.213693
v 0.176673 0.067661 -0.084006
v 0.220683 0.07397 -0.08412
v -0.203586 0.002271 0.047656
v 0.258431 -0.109322 0.197359
v 0.225883 -0.104356 0.208702
v 0.327672 -0.185127 0.166258
v -0.305027 -0.08446 0.085647
v 0.379638 -0.19115 -0.085114
v -0.261393 -0.091664 0.116152
v -0.28321 -0.088062 0.1009
v 0.17631 0.063152 0.00173
v 0.169659 0.108026 -0.089547
v 0.331588 -0.035345 -0.085128
v 0.0461057 0.14567 -0.0667613
v 0.350572 -0.188517 0.138779
v 0.307155 0.190953 0.019822
v 0.118496 -0.152563 -0.0007855
v 0.358429 -0.038931 -0.023993
v 0.161662 0.134793 0.094113
v 0.056258 -0.012778 -0.160707
v 0.0103183 0.13921 -0.0610567
v -0.013991 -0.064112 -0.192759
v 0.166269 -0.157528 -0.157598
v 0.217815 0.07288 0.088904
v 0.250276 0.076179 0.088727
v 0.200093 -0.165343 0.000522
v 0.161046 -0.159513 0.0393107
v -0.190262 0.098912 -0.004425
v -0.171542 -0.0405075 -0.13295
v -0.193909 -0.037031 -0.12176
v 0.179811 -0.04218 0.191545
v 0.182486 -0.025489 0.179155
v 0.244061 -0.168466 -0.221725
v 0.226303 -0.165621 -0.227583
v -0.314757 -0.018577 0.030012
v -0.149214 0.012067 -0.054915
v -0.122752 0.016615 -0.054211
v 0.261057 -0.171207 -0.214522
v 0.292589 -0.176341 -0.196386
v 0.264907 -0.10686 -0.193429
v 0.293808 -0.11152 -0.176813
v -0.131407 0.05759 0.057289
v -0.124428 0.015978 0.046909
v 0.230253 0.178057 -0.079549
v 0.379627 -0.127032 0.053378
v -0.0582 0.027736 -0.057166
v -0.134423 -0.013183 -0.11339
v -0.054717 0.03377 -0.002206
v -0.082072 -0.015702 0.123664
v -0.069544 0.124649 -0.050018
v -0.133272 -0.010689 -0.097538
v -0.106146 -0.0136435 -0.121652
v 0.286014 -0.17884 0.200359
v -0.134155 -0.011759 -0.050618
v 0.0254557 0.0418907 -0.0683983
v 0.156658 0.164715 0.080488
v 0.0293662 0.0450515 -0.00077125
v 0.256965 0.182135 0.081992
v -0.16131 -0.011899 -0.104575
v 0.14631 0.062389 -0.083535
v 0.102301 0.054854 -0.079909
v 0.185342 -0.027021 0.001316
v 0.184758 -0.026409 0.041933
v 0.227776 -0.0292523 0.001994
v 0.161046 -0.159513 0.196989
v -0.170622 -0.089053 -0.170655
v -0.164657 -0.076513 -0.165059
v -0.15778 -0.062038 -0.156633
v -0.089749 0.022329 -0.054901
v 0.248753 -0.025411 -0.15068
v 0.189632 0.180672 0.0023075
v -0.176108 -0.091138 0.160363
v -0.07787 -0.014104 -0.129913
v 0.175315 0.065075 0.0327525
v 0.174319 0.066998 0.063775
v 0.0783475 0.051085 6.25e-05
v 0.161046 -0.159513 0.157569
v -0.16624 0.107887 -0.003976
v 0.108485 -0.082502 -0.214682
v 0.074922 -0.141799 -0.233179
v 0.314267 -0.033208 -0.105521
v 0.294225 -0.030788 -0.123351
v 0.105247 -0.023473 6.25e-05
v 0.0651995 -0.021699 -0.00056425
v 0.290038 -0.032379 0.129289
v 0.278958 -0.031184 0.136835
v 0.162333 0.14923 -0.088384
v 0.161036 0.156332 -0.085706
v 0.207458 0.173534 0.085256
v -0.0089435 -0.0151555 0.144665
v -0.216067 -0.096445 -0.153992
v -0.177021 -0.102454 -0.174623
v -0.145327 -0.028817 0.121304
v -0.138047 -0.01456 0.105289
v -0.164628 -0.0131595 0.0956055
v 0.06724 -0.144718 0.230319
v -0.102307 0.118605 -0.04788
v -0.138729 0.11188 -0.047346
v 0.0232237 0.0410423 0.0663167
v 0.0614333 0.0474427 0.0734233
v 0.029065 -0.138648 0.224982
v -0.151542 -0.106397 -0.185165
v -0.180171 -0.104081 0.036847
v 0.222759 0.187184 0.0029
v 0.210192 0.174573 -0.079657
v 0.287867 -0.113778 0.181677
v 0.167575 -0.157032 -0.19697
v 0.119071 0.167137 0.0010555
v -0.150898 0.0114275 0.0466785
v 0.300814 -0.181087 0.190039
v -0.182632 -0.104585 0.163947
v 0.36278 -0.124789 0.098883
v -0.308692 0.0136535 -0.006968
v -0.279075 0.041585 -0.00627
v 0.260578 -0.026797 -0.14494
v -0.220973 -0.09831 0.142041
v -0.004085 -0.013309 -0.148472
v 0.182058 0.169124 0.082872
v 0.156658 0.164715 0.080488
v 0.268487 0.0719513 0.00326867
v 0.304644 0.190494 0.033265
v 0.173835 0.066582 0.08725
v 0.156504 0.17416 0.001715
v -0.063137 -0.056805 -0.177971
v -0.113358 -0.115811 0.191383
v -0.11381 -0.052033 0.153684
v -0.129393 0.058355 -0.064291
v -0.122752 0.016615 -0.054211
v 0.227513 0.177015 0.08579
v 0.346202 -0.122428 0.126332
v 0.293464 0.194495 0.004133
v 0.307668 0.191147 -0.011118
v -0.337089 -0.01444 -0.014269
v -0.177021 -0.102454 -0.174623
v 0.305604 0.190859 -0.024631
v 0.066005 -0.079767 0.208624
v -0.027147 -0.12967 0.214408
v 0.176344 0.065466 -0.029373
v 0.176378 0.06778 -0.060476
v 0.127329 0.0571185 0.00089625
v 0.176184 -0.065815 0.203849
v 0.126238 0.159942 -0.076096
v 0.081893 0.152129 -0.072466
v 0.157227 0.160816 0.085694
v 0.143506 0.061323 0.085707
v 0.166632 0.106876 0.093063
v -0.025469 0.132751 -0.055352
v 0.302145 0.190318 -0.036304
v 0.159341 0.148092 0.092177
v 0.176673 0.067661 -0.084006
v 0.013644 -0.071729 0.197398
v 0.0398245 -0.075748 0.203011
v -0.233334 -0.005732 -0.070837
v -0.231346 -0.006675 -0.074106
v -0.227193 -0.007536 -0.077714
v -0.231184 -0.031145 -0.101116
v -0.138047 -0.01456 0.105289
v -0.029649 -0.01364 -0.142672
v 0.103447 -0.146273 -0.234793
v 0.297366 0.079505 0.077707
v 0.0638783 0.0483723 -0.0741537
v 0.232752 -0.101745 -0.205798
v 0.314576 0.076351 0.004038
v -0.056163 -0.121265 -0.212832
v 0.168881 -0.156536 -0.236342
v 0.145295 -0.025247 0.00068925
v 0.185342 -0.027021 0.001316
v 0.156504 0.17416 0.001715
v 0.312643 -0.033715 0.00335
v 0.270209 -0.0314837 0.002672
v 0.185342 -0.027021 0.001316
v 0.00831733 0.13845 0.0597037
v 0.173835 0.066582 0.08725
v -0.252122 0.063211 -0.005675
v 0.16472 0.135955 -0.090409
v 0.161046 -0.159513 0.11815
v -0.215347 -0.0981257 -0.00610567
v -0.149176 -0.043984 -0.144141
v 0.163657 -0.15852 -0.0788537
v 0.164963 -0.158024 -0.118226
v 0.376176 -0.063314 0.004215
v -0.134265 0.074409 0.059719
v -0.23434 -0.032345 0.089404
v -0.149176 -0.043984 -0.144141
v 0.161046 -0.159513 -0.000109
v 0.395326 -0.194495 0.003678
v -0.060011 0.027048 0.052142
v 0.207825 -0.162679 -0.232023
v 0.236672 -0.171275 0.224153
v 0.253897 -0.173927 0.21749
v 0.215527 -0.09903 -0.210251
v -0.009153 -0.131713 -0.002815
v -0.132171 0.075204 -0.066603
v -0.133804 0.08487 -0.066699
v -0.140386 0.114091 0.026038
v -0.103338 0.122831 -0.0028595
v -0.153804 -0.045744 0.135144
v -0.175788 -0.0421215 0.123222
v -0.162814 -0.063951 0.147116
v -0.182632 -0.104585 0.163947
v -0.212394 0.088349 -0.004855
v 0.165168 -0.136327 0.232646
v -0.138948 0.102585 0.05381
v -0.13971 0.107648 0.04829
v 0.317233 -0.182834 0.00241533
v 0.356279 -0.188665 0.00304667
v 0.188966 -0.018496 -0.167562
v 0.173835 0.066582 0.08725
v 0.283401 -0.029496 -0.131255
v 0.307039 -0.178721 -0.185602
v 0.157688 0.171787 -0.043785
v 0.170632 -0.146516 -0.235401
v 0.382981 -0.127414 0.037274
v 0.368641 -0.046581 0.004192
v 0.036589 -0.135788 -0.229033
v 0.36076 -0.039456 0.0041
v 0.18884 -0.019737 -0.171982
v 0.0333968 -0.138663 -0.0021385
v 0.0759465 -0.145613 -0.001462
v 0.31066 -0.034579 0.112127
v -0.134423 -0.013183 -0.11339
v 0.18337 -0.020623 0.170075
v 0.316097 0.177885 0.004437
v 0.325669 0.145149 0.004458
v -0.257322 -0.090117 -0.129497
v -0.136801 -0.110863 -0.00484375
v -0.153804 -0.045744 0.135144
v 0.381907 -0.090091 0.004144
v -0.068931 -0.059007 0.171642
v 0.162352 -0.159017 -0.0394813
v 0.389916 -0.193111 -0.050621
v 0.393096 -0.193788 -0.032788
v -0.232918 0.076386 -0.005271
v -0.235258 -0.005468 0.056659
v -0.229585 -0.008445 0.066633
v -0.233617 -0.007538 0.0629
v -0.014986 0.034642 0.05921
v 0.136752 -0.090638 0.216463
v 0.22471 -0.022612 -0.159858
v 0.157854 -0.015667 -0.169466
v 0.386106 -0.127599 0.003984
v -0.135902 0.096935 -0.064202
v -0.133509 -0.011294 -0.107996
v -0.134423 -0.013183 -0.11339
v -0.081518 -0.117306 -0.206359
v -0.140188 0.111326 0.040719
v -0.103805 0.118036 0.042544
v 0.168881 -0.156536 -0.236342
v -0.0666345 0.130577 -0.002214
v 0.183099 -0.021919 0.174473
v 0.324906 0.081306 -0.04363
v 0.31997 0.081206 -0.052034
v 0.161046 -0.159513 0.236408
v 0.124154 -0.153718 0.235324
v 0.255694 -0.028654 0.149768
v 0.243685 -0.027337 0.155122
v 0.291574 0.188577 -0.054637
v 0.299817 0.080437 -0.070193
v -0.140188 0.111326 0.040719
v 0.18337 -0.020623 0.170075
v 0.280032 0.07846 0.084326
v 0.330542 -0.117555 -0.144898
v 0.325639 -0.119419 0.150964
v -0.279632 -0.086702 -0.115006
v 0.021479 -0.012978 -0.154271
v -0.169963 -0.07853 0.155126
v -0.13941 0.114463 -0.032819
v 0.314091 0.081032 -0.059197
v -0.0517025 -0.124763 -0.00349125
v 0.156658 0.164715 0.080488
v 0.297424 0.18955 -0.046263
v -0.0882305 -0.119857 0.198641
v -0.35933 -0.0749757 -0.00844833
v 0.304446 0.192793 0.004309
v 0.099643 0.053843 0.08053
v 0.0438947 0.144829 0.0666723
v 0.306964 -0.113665 -0.167051
v 0.072955 -0.077126 -0.21072
v -0.332889 -0.079838 0.064298
v -0.287339 -0.086551 -0.007277
v -0.323335 -0.0807633 -0.00786267
v -0.338309 -0.014278 -0.007666
v 0.161046 -0.159513 -0.000109
v -0.179351 -0.103913 -0.00552
v -0.178769 -0.103548 -0.0477955
v -0.019944 -0.126932 -0.220216
v -0.094252 -0.117813 -0.0041675
v 0.347704 -0.036914 0.0039
v 0.36076 -0.039456 0.0041
v -0.366817 -0.041733 -0.00835
v -0.390685 -0.070086 0.005627
v -0.377527 -0.072357 0.023357
v 0.295752 0.188914 0.054633
v 0.289628 0.187837 0.062821
v 0.124997 -0.013912 -0.168697
v 0.282558 0.186599 0.069518
v 0.328647 -0.036464 0.092315
v 0.274671 0.185221 0.074858
v 0.333652 0.081071 0.00435
v 0.331636 0.081304 -0.022709
v 0.334391 0.086821 0.004376
v -0.153804 -0.045744 0.135144
v 0.158131 0.155228 0.089547
v -0.251343 -0.0923383 -0.00669133
v 0.186104 -0.0258975 -0.0393135
v 0.333095 -0.183066 -0.16098
v 0.328136 0.078476 0.004258
v -0.376464 -0.071953 -0.040784
v -0.355948 -0.075056 -0.059946
v -0.201839 0.002935 -0.057753
v 0.301339 -0.115802 0.172342
v 0.17631 0.063152 0.00173
v -0.179351 -0.103913 -0.00552
v -0.140041 0.115085 -0.003505
v -0.390202 -0.069903 -0.023525
v -0.175676 0.007519 -0.055619
v 0.28473 0.187425 -0.061552
v -0.02726 0.13207 0.052735
v -0.0299312 0.138323 -0.0015685
v 0.323321 0.080703 0.05201
v 0.327557 0.080856 0.042405
v 0.384086 -0.126994 -0.029391
v 0.18867 -0.159648 -0.234967
v -0.182632 -0.104585 0.163947
v -0.157515 -0.108668 0.175277
v -0.214919 -0.010119 0.075383
v 0.020249 -0.069218 -0.201135
v 0.395326 -0.194495 0.003678
v 0.391889 -0.194247 0.040053
v 0.176673 0.067661 -0.084006
v 0.312081 0.186523 0.004408
v 0.162825 -0.149482 0.235652
v 0.161046 -0.159513 0.236408
v 0.261336 0.19293 0.003582
v 0.171769 -0.096035 0.216622
v -0.212245 -0.009103 -0.085994
v 0.350277 -0.120879 -0.119611
v -0.177368 0.006877 0.046448
v -0.140041 0.115085 -0.003505
v 0.369149 -0.191203 0.108193
v 0.376704 -0.192265 0.091919
v -0.140041 0.115085 -0.003505
v 0.333652 0.081071 0.00435
v 0.388119 -0.193794 0.057775
v -0.26967 -0.025047 -0.077438
v 0.161046 -0.159513 -0.000109
v -0.338309 -0.014278 -0.007666
v 0.239139 -0.171174 0.001153
v 0.386106 -0.127599 0.003984
v 0.18087 -0.162612 0.235652
v -0.235496 -0.006553 0.05958
v 0.250076 0.181487 -0.077175
v 0.259564 0.183123 -0.07482
v 0.328821 0.081337 -0.033888
v 0.282712 0.079478 -0.077401
v 0.253119 0.077259 -0.082821
v 0.308202 0.191161 0.004364
v 0.171769 -0.096035 0.216622
v -0.329347 -0.016002 0.013755
v -0.232939 -0.00426 0.054128
v 0.336434 -0.037262 0.08146
v 0.365937 -0.123589 -0.091634
v 0.372164 -0.1247 -0.076776
v -0.357658 -0.075706 0.043224
v -0.395326 -0.069188 -0.009034
v 0.355072 -0.186807 -0.132786
v -0.330495 -0.078928 -0.080145
v -0.0203 -0.066509 0.187957
v 0.339011 -0.036283 -0.074022
v 0.081638 0.160114 0.000396
v -0.138729 0.11188 -0.047346
v 0.247404 0.180472 0.084046
v 0.3008 0.189807 0.044825
v -0.149176 -0.043984 -0.144141
v 0.372626 -0.189882 -0.101622
v -0.393956 -0.06936 -0.015879
v -0.137918 0.096168 0.057469
v -0.135902 0.084073 0.059883
v -0.337309 -0.014523 -0.001027
v -0.394184 -0.069447 -0.002145
v -0.395326 -0.069188 -0.009034
v 0.159261 0.165705 -0.076582
v -0.228577 -0.002904 0.051974
v 0.156504 0.17416 0.001715
v -0.071133 0.124045 0.045843
v -0.338309 -0.014278 -0.007666
v 0.143925 -0.087912 -0.216347
v 0.178929 -0.093314 -0.215413
v 0.172871 -0.133399 -0.232154
v 0.095697 -0.149218 0.232821
v -0.106873 -0.113346 -0.199886
v -0.063103 -0.123903 0.2059
v 0.369496 -0.125715 0.084237
v -0.122752 0.016615 -0.054211
v 0.278186 -0.177004 0.001784
v 0.085468 -0.015102 0.164982
v 0.079472 0.151209 0.073641
v 0.350948 -0.037848 -0.050087
v 0.308202 0.191161 0.004364
v 0.17631 0.063152 0.00173
v -0.226673 -0.00218 -0.062961
v 0.090948 -0.013019 -0.165646
v -0.0148955 -0.018151 -0.00181775
v 0.36076 -0.039456 0.0041
v 0.131972 -0.150747 -0.236408
v 0.168881 -0.156536 -0.236342
v 0.016414 -0.014903 0.151313
v 0.161046 -0.159513 0.0787303
v 0.0083225 -0.13136 -0.224624
v -0.0446155 -0.062758 0.179799
v 0.277024 0.186115 -0.067135
v -0.197772 -0.038499 0.111299
v 0.184727 0.170139 -0.0781195
v 0.025152 -0.019925 -0.001191
v 0.119398 -0.01604 0.169148
v 0.159261 0.165705 -0.076582
v 0.158491 0.168993 -0.063501
v 0.333369 0.102181 0.004413
v 0.333652 0.081071 0.00435
v 0.200113 -0.165611 0.233308
v 0.208519 -0.101693 0.212608
v 0.161046 -0.159513 0.236408
v 0.050961 -0.014791 0.158899
v -0.233193 -0.004684 -0.067898
v 0.308202 0.191161 0.004364
v 0.046602 -0.073172 -0.205928
v 0.159261 0.165705 -0.076582
v 0.182912 -0.063258 -0.202121
v 0.218729 -0.1685 0.229451
v 0.381268 -0.126409 -0.045598
v -0.301942 -0.083287 -0.100515
v 0.311996 0.080235 0.067202
v 0.31811 0.080499 0.060242
v -0.191208 -0.011759 0.085922
v 0.184174 -0.025797 0.08255
v -0.313522 -0.018108 -0.044513
v -0.328643 -0.015735 -0.028767
v -0.29333 -0.021299 -0.060929
v 0.178929 -0.093314 -0.215413
v 0.395326 -0.194495 0.003678
v 0.391411 -0.172871 0.003773
v 0.386106 -0.127599 0.003984
v 0.188966 -0.018496 -0.167562
v -0.230961 -0.003508 -0.065275
v -0.177021 -0.102454 -0.174623
v -0.395326 -0.069188 -0.009034
v -0.179351 -0.103913 -0.00552
f 2 504 3
f 10 74 588
f 724 381 714
f 34 425 114
f 283 200 201
f 16 17 18
f 542 102 22
f 23 24 25
f 641 27 28
f 359 30 571
f 143 492 540
f 32 417 420
f 621 36 14
f 37 38 39
f 321 279 454
f 15 621 14
f 44 45 135
f 47 48 404
f 79 310 528
f 688 143 653
f 549 290 505
f 549 746 551
f 65 66 67
f 27 394 28
f 70 71 72
f 631 85 296
f 736 54 747
f 230 4 227
f 86 87 29
f 64 209 19
f 227 4 748
f 93 94 95
f 692 108 554
f 98 99 100
f 108 555 554
f 719 108 232
f 104 105 106
f 624 725 714
f 749 595 77
f 583 33 11
f 155 578 461
f 133 119 648
f 120 728 122
f 716 204 179
f 127 704 128
f 353 603 421
f 603 353 331
f 11 33 187
f 164 562 266
f 16 144 17
f 559 750 591
f 417 32 111
f 123 150 103
f 31 153 154
f 46 157 158
f 709 150 123
f 559 709 123
f 55 710 320
f 320 599 55
f 529 382 664
f 751 613 752
f 432 587 576
f 137 220 136
f 753 179 180
f 402 717 403
f 717 402 479
f 58 142 190
f 440 192 193
f 678 48 285
f 647 341 449
f 127 73 704
f 754 626 135
f 43 426 509
f 426 43 110
f 43 245 244
f 15 213 214
f 192 219 193
f 755 756 666
f 43 509 511
f 285 284 678
f 225 195 512
f 512 195 601
f 40 744 42
f 757 758 559
f 53 160 759
f 642 236 237
f 53 760 36
f 675 300 91
f 160 53 36
f 245 246 247
f 569 253 254
f 59 531 7
f 260 267 262
f 165 660 553
f 85 112 7
f 443 7 112
f 234 158 267
f 268 267 87
f 268 87 231
f 86 231 87
f 269 270 271
f 761 272 273
f 276 277 278
f 716 762 612
f 284 285 286
f 325 415 556
f 763 325 490
f 566 73 127
f 325 763 568
f 24 296 297
f 45 298 225
f 737 683 145
f 197 683 737
f 107 445 148
f 115 34 209
f 726 277 109
f 173 764 560
f 316 274 317
f 318 319 320
f 765 283 730
f 766 283 765
f 663 283 766
f 131 577 222
f 327 77 78
f 577 131 423
f 423 131 42
f 704 73 701
f 334 482 336
f 131 291 471
f 131 188 291
f 131 222 188
f 408 173 407
f 150 350 351
f 354 355 356
f 357 358 305
f 30 359 728
f 173 408 695
f 360 361 362
f 767 363 768
f 701 73 480
f 407 173 295
f 769 265 616
f 590 440 770
f 148 252 251
f 771 167 578
f 668 375 81
f 311 9 8
f 430 380 772
f 441 375 668
f 235 375 544
f 552 391 392
f 773 393 774
f 597 288 139
f 492 534 111
f 401 402 403
f 775 327 78
f 533 602 250
f 776 777 741
f 204 280 463
f 241 778 779
f 418 419 780
f 241 781 778
f 104 106 56
f 526 731 82
f 563 198 390
f 782 169 535
f 783 431 474
f 428 67 66
f 433 434 435
f 723 169 623
f 623 206 723
f 292 102 93
f 10 588 171
f 784 780 785
f 517 515 119
f 786 161 674
f 447 448 522
f 493 194 152
f 451 99 452
f 205 152 194
f 627 205 194
f 20 34 589
f 787 57 788
f 462 789 464
f 790 209 791
f 792 510 726
f 142 58 30
f 195 259 601
f 341 99 451
f 453 455 472
f 341 100 99
f 35 104 56
f 35 793 104
f 479 402 794
f 289 12 372
f 35 795 796
f 35 172 795
f 147 288 548
f 374 288 368
f 282 559 758
f 590 770 715
f 797 95 732
f 602 533 436
f 798 57 787
f 495 496 1
f 559 591 709
f 387 547 799
f 258 123 103
f 393 773 800
f 405 344 182
f 801 510 792
f 361 530 362
f 510 76 255
f 514 802 516
f 198 523 524
f 464 789 446
f 329 379 196
f 9 477 8
f 340 405 182
f 115 425 34
f 690 475 578
f 492 143 688
f 694 439 803
f 141 142 218
f 337 63 115
f 63 409 115
f 387 162 96
f 96 720 804
f 142 805 190
f 96 499 720
f 804 387 96
f 806 398 487
f 317 274 275
f 438 621 594
f 8 477 807
f 557 56 558
f 487 398 377
f 504 808 3
f 561 349 539
f 379 585 809
f 325 556 490
f 490 556 706
f 810 94 811
f 5 261 707
f 575 812 813
f 814 5 707
f 467 456 5
f 37 582 287
f 541 658 50
f 456 261 5
f 458 90 457
f 443 112 340
f 815 466 816
f 588 817 818
f 819 379 820
f 593 534 592
f 820 379 347
f 821 99 98
f 364 402 401
f 822 202 823
f 198 450 339
f 604 289 414
f 88 309 207
f 683 824 825
f 605 183 357
f 683 383 824
f 88 826 827
f 135 626 477
f 88 623 826
f 471 42 131
f 616 462 464
f 594 453 438
f 828 617 829
f 830 618 389
f 788 618 727
f 371 334 831
f 760 53 759
f 412 754 832
f 245 43 246
f 713 327 833
f 625 626 412
f 642 412 832
f 181 466 317
f 832 506 642
f 625 412 642
f 212 607 241
f 72 71 834
f 90 241 607
f 779 210 241
f 241 210 212
f 835 776 521
f 179 216 208
f 505 746 549
f 133 134 518
f 836 642 643
f 570 21 837
f 838 21 619
f 570 358 21
f 726 109 839
f 216 179 204
f 693 253 569
f 133 650 134
f 286 840 284
f 278 277 726
f 605 72 834
f 653 654 688
f 531 59 60
f 841 293 70
f 366 391 367
f 841 163 293
f 810 483 667
f 18 17 842
f 71 293 843
f 7 635 85
f 531 635 7
f 844 133 217
f 89 107 504
f 845 678 284
f 846 679 847
f 4 230 609
f 848 849 850
f 87 267 29
f 851 238 49
f 370 159 137
f 852 853 680
f 854 317 815
f 357 229 358
f 72 605 855
f 856 709 591
f 144 857 413
f 572 476 858
f 70 293 71
f 319 312 11
f 338 321 734
f 381 725 859
f 56 106 600
f 741 520 521
f 859 700 381
f 411 860 861
f 843 163 862
f 94 702 95
f 863 703 541
f 411 117 156
f 864 283 447
f 865 508 168
f 240 168 866
f 211 405 340
f 470 867 868
f 588 652 161
f 869 712 870
f 77 713 749
f 409 871 872
f 385 104 793
f 873 79 874
f 16 18 875
f 79 528 874
f 774 686 496
f 700 859 2
f 184 722 876
f 323 107 148
f 724 725 381
f 323 148 251
f 44 477 9
f 510 255 726
f 877 878 318
f 444 399 177
f 879 880 881
f 26 636 113
f 199 129 882
f 281 883 884
f 97 885 886
f 311 195 9
f 199 882 887
f 863 541 50
f 198 47 390
f 102 542 303
f 459 261 742
f 69 94 102
f 888 312 878
f 69 315 94
f 735 613 484
f 29 322 91
f 265 262 267
f 226 101 889
f 510 75 76
f 406 565 655
f 890 16 369
f 91 357 183
f 748 91 183
f 372 891 289
f 726 892 278
f 635 893 297
f 673 644 894
f 616 895 462
f 726 896 792
f 883 281 581
f 267 895 616
f 563 523 198
f 135 477 44
f 269 745 897
f 373 706 556
f 105 385 384
f 556 83 373
f 116 898 75
f 510 116 75
f 613 735 598
f 812 424 813
f 529 664 899
f 109 277 743
f 879 881 739
f 228 900 215
f 140 709 901
f 415 325 444
f 249 606 603
f 172 584 902
f 379 383 585
f 209 34 20
f 903 26 398
f 200 283 663
f 732 702 667
f 667 702 810
f 430 308 680
f 835 272 761
f 773 41 800
f 713 833 749
f 673 41 644
f 67 384 65
f 345 904 905
f 440 645 906
f 770 440 906
f 690 578 61
f 335 448 149
f 907 460 802
f 556 415 83
f 58 190 908
f 121 31 203
f 618 121 203
f 559 123 757
f 638 675 151
f 659 107 323
f 909 697 894
f 349 471 373
f 466 696 816
f 700 2 910
f 689 911 400
f 810 702 94
f 95 702 732
f 6 319 698
f 185 184 876
f 912 132 689
f 333 132 912
f 913 506 914
f 405 221 502
f 502 537 344
f 84 422 197
f 217 133 915
f 738 51 84
f 159 916 482
f 37 287 38
f 137 159 482
f 145 683 825
f 411 861 117
f 411 313 574
f 687 917 918
f 16 857 144
f 899 682 919
f 317 920 181
f 921 661 687
f 687 918 921
f 369 133 648
f 786 674 922
f 622 677 651
f 470 387 867
f 162 387 470
f 500 637 923
f 717 314 649
f 12 289 604
f 924 679 925
f 926 679 924
f 161 927 817
f 21 264 837
f 697 673 894
f 671 928 697
f 928 673 697
f 929 673 928
f 587 84 51
f 738 84 189
f 345 905 930
f 670 931 932
f 58 571 30
f 62 345 930
f 933 625 836
f 363 406 665
f 677 674 651
f 934 31 154
f 935 345 62
f 925 846 936
f 677 937 938
f 61 693 690
f 233 939 940
f 233 941 942
f 317 466 815
f 233 940 941
f 769 616 943
f 191 745 175
f 261 596 656
f 608 97 92
f 634 121 830
f 158 157 130
f 209 20 19
f 636 944 619
f 660 168 240
f 631 112 85
f 168 508 945
f 618 788 57
f 359 946 174
f 383 379 819
f 632 180 208
f 847 630 947
f 203 727 618
f 629 49 628
f 133 518 517
f 937 722 184
f 48 678 404
f 549 551 389
f 12 687 372
f 623 948 826
f 33 583 729
f 312 583 11
f 33 729 182
f 307 519 949
f 307 125 519
f 761 185 876
f 307 949 906
f 729 950 294
f 620 951 662
f 178 497 302
f 340 112 211
f 54 646 747
f 915 133 369
f 922 677 938
f 922 674 677
f 54 952 953
f 489 406 52
f 418 780 954
f 140 139 374
f 140 374 150
f 473 307 437
f 955 956 497
f 194 415 627
f 471 349 561
f 143 957 653
f 572 132 476
f 610 608 958
f 703 186 573
f 959 117 861
f 204 960 216
f 452 99 821
f 947 163 841
f 798 961 549
f 618 549 389
f 932 639 670
f 962 186 703
f 521 272 835
f 55 388 564
f 795 172 902
f 963 599 718
f 564 710 55
f 291 343 706
f 815 964 854
f 929 41 673
f 672 150 374
f 10 171 74
f 15 594 621
f 267 616 265
f 845 404 678
f 911 132 572
f 31 721 708
f 422 965 966
f 422 587 965
f 967 371 691
f 968 596 261
f 100 341 969
f 969 341 191
f 191 341 647
f 539 349 493
f 772 380 970
f 423 744 971
f 960 467 416
f 972 705 378
f 871 409 370
f 242 532 973
f 169 723 974
f 975 541 976
f 169 977 948
f 623 169 948
f 586 537 978
f 465 177 584
f 642 506 913
f 642 979 980
f 35 796 793
f 981 982 580
f 630 679 926
f 61 253 693
f 983 984 985
f 774 393 686
f 11 187 698
f 986 572 858
f 496 686 1
f 570 305 358
f 11 698 319
f 182 187 33
f 467 987 416
f 529 567 382
f 187 344 698
f 925 679 846
f 771 578 988
f 252 699 530
f 261 989 990
f 991 992 342
f 726 255 892
f 726 839 896
f 352 421 705
f 282 993 750
f 932 931 994
f 915 16 875
f 282 750 559
f 470 868 995
f 146 88 827
f 996 146 649
f 468 460 488
f 997 414 289
f 113 229 376
f 955 666 756
f 457 90 607
f 535 348 998
f 989 261 656
f 742 261 990
f 630 163 947
f 999 371 831
f 626 625 933
f 933 477 626
f 910 381 700
f 807 477 933
f 582 37 313
f 313 37 39
f 371 967 1000
f 7 1001 59
f 371 220 137
f 118 918 917
f 1002 220 1000
f 63 159 370
f 603 248 249
f 115 209 790
f 1003 164 266
f 963 388 599
f 504 107 808
f 1004 221 1005
f 586 13 537
f 710 564 711
f 13 6 698
f 344 537 13
f 536 13 586
f 6 13 536
f 409 63 370
f 1006 370 306
f 1007 264 838
f 77 327 713
f 778 781 1008
f 433 1009 1010
f 466 181 1011
f 433 1010 442
f 1012 6 536
f 21 838 264
f 598 736 613
f 1013 879 739
f 1014 108 692
f 689 1015 912
f 166 525 80
f 352 353 421
f 439 25 1016
f 640 427 189
f 1017 402 1018
f 522 448 1019
f 1020 204 716
f 610 532 608
f 316 317 854
f 1021 1022 716
f 1023 227 287
f 287 227 38
f 161 786 1024
f 362 530 562
f 534 1025 417
f 746 527 551
f 1026 613 751
f 161 817 588
f 1027 365 1014
f 301 870 712
f 812 684 424
f 587 422 84
f 513 92 97
f 503 92 513
f 642 1028 236
f 150 709 140
f 636 903 944
f 113 377 26
f 304 305 570
f 179 208 180
f 377 398 26
f 845 1029 1030
f 61 155 253
f 950 583 1031
f 862 630 926
f 349 373 83
f 346 1011 543
f 981 1032 1033
f 569 500 923
f 1034 998 348
f 146 485 717
f 16 890 857
f 342 615 991
f 1035 982 494
f 146 545 485
f 443 729 294
f 126 307 243
f 430 772 695
f 114 1036 34
f 578 166 80
f 1037 1038 442
f 238 1039 1040
f 115 1041 1042
f 471 291 373
f 433 442 203
f 681 687 1043
f 633 203 442
f 675 322 223
f 442 1044 633
f 221 211 694
f 233 942 567
f 104 385 105
f 406 1045 565
f 1046 1036 114
f 589 34 1036
f 885 608 242
f 359 1047 946
f 22 102 292
f 1047 359 571
f 717 479 314
f 368 486 1048
f 608 92 958
f 63 1049 159
f 669 438 453
f 533 250 1050
f 406 363 52
f 56 600 558
f 497 224 666
f 189 427 738
f 398 1051 903
f 195 79 259
f 440 590 192
f 244 110 43
f 1052 269 271
f 730 283 1053
f 442 1038 1054
f 427 73 566
f 674 161 652
f 493 1055 539
f 603 116 248
f 545 146 827
f 631 23 694
f 903 636 26
f 1056 784 785
f 378 421 603
f 919 257 899
f 1014 365 232
f 828 456 617
f 632 208 256
f 724 714 725
f 687 661 1057
f 399 444 1058
f 243 307 473
f 1059 396 676
f 1060 119 515
f 54 550 869
f 54 736 550
f 1001 7 443
f 670 1061 931
f 54 869 952
f 641 1062 614
f 1041 115 409
f 232 108 1014
f 549 618 798
f 712 263 301
f 618 57 798
f 79 195 310
f 433 934 434
f 433 435 1009
f 481 533 564
f 350 672 1063
f 388 481 564
f 25 439 23
f 1064 168 660
f 490 887 763
f 703 244 541
f 703 110 244
f 491 110 573
f 793 1065 385
f 871 370 1006
f 436 1066 1067
f 151 669 638
f 370 137 306
f 208 1068 256
f 898 116 603
f 29 609 86
f 86 609 231
f 966 585 422
f 672 368 1048
f 130 322 29
f 1069 432 576
f 322 130 157
f 609 230 231
f 579 1070 1071
f 173 165 1072
f 1055 493 1073
f 1074 756 1075
f 23 439 694
f 298 44 9
f 44 298 45
f 465 584 557
f 878 312 318
f 189 197 737
f 1076 1077 1078
f 460 1079 1080
f 174 507 728
f 122 728 507
f 170 491 324
f 460 1080 507
f 609 29 91
f 472 638 453
f 669 731 138
f 1026 484 613
f 578 167 461
f 780 419 785
f 146 309 88
f 266 530 1081
f 628 498 629
f 728 142 30
f 410 519 386
f 32 420 111
f 396 1059 395
f 161 1024 927
f 650 133 1082
f 421 378 705
f 709 856 901
f 699 469 1081
f 1083 224 458
f 1082 133 1084
f 534 593 1025
f 172 56 557
f 538 442 1010
f 204 467 960
f 1085 1086 1087
f 333 912 1088
f 578 475 166
f 1057 1043 687
f 706 373 291
f 412 626 754
f 252 148 699
f 1089 375 235
f 252 530 361
f 470 534 492
f 592 534 995
f 995 534 470
f 388 963 1090
f 1091 143 540
f 574 860 411
f 737 145 1092
f 292 1093 22
f 1094 552 1095
f 761 273 185
f 733 321 454
f 606 378 603
f 318 710 877
f 623 88 207
f 1096 228 335
f 335 228 448
f 63 1097 1049
f 684 812 429
f 643 642 237
f 321 446 789
f 1098 860 574
f 669 151 731
f 949 519 410
f 110 703 573
f 731 151 82
f 1099 226 889
f 585 383 197
f 358 229 113
f 358 113 636
f 308 408 407
f 1005 221 694
f 102 68 69
f 107 89 445
f 740 738 427
f 638 472 300
f 281 1100 581
f 300 675 638
f 344 405 502
f 398 806 1051
f 391 1094 1101
f 47 404 390
f 800 41 929
f 63 337 1097
f 850 302 956
f 203 633 727
f 159 1049 916
f 149 202 822
f 149 822 1102
f 149 283 202
f 579 1012 1070
f 31 1103 153
f 579 6 1012
f 394 1104 28
f 394 1105 1104
f 594 455 453
f 794 402 1017
f 474 1106 1107
f 1018 402 1108
f 1108 402 364
f 329 1109 379
f 273 272 521
f 1106 474 174
f 474 488 460
f 783 474 1107
f 1110 584 1111
f 612 611 1112
f 1072 165 553
f 1113 660 165
f 35 56 172
f 1114 1115 992
f 1116 512 601
f 288 374 139
f 1117 1009 435
f 493 83 194
f 198 339 47
f 501 354 1118
f 1119 501 1118
f 1111 584 177
f 218 142 728
f 684 324 424
f 1111 177 399
f 687 1120 917
f 203 31 433
f 1121 64 19
f 223 157 46
f 516 802 468
f 408 308 430
f 808 107 659
f 261 456 828
f 644 41 773
f 865 168 1064
f 1115 342 992
f 573 186 424
f 259 79 873
f 78 1122 775
f 31 121 721
f 890 369 648
f 238 851 1039
f 906 645 307
f 387 804 478
f 403 717 1123
f 129 498 628
f 498 199 343
f 224 90 458
f 369 16 915
f 306 137 546
f 805 345 935
f 904 345 141
f 640 73 427
f 246 43 511
f 467 1124 456
f 187 182 344
f 162 654 499
f 248 116 801
f 864 1125 1053
f 910 2 3
f 491 426 110
f 433 31 934
f 540 492 111
f 669 453 638
f 1126 426 1127
f 385 65 384
f 65 385 1065
f 459 1128 707
f 283 149 448
f 1129 22 1093
f 342 1115 1130
f 197 189 84
f 1131 696 346
f 1011 346 466
f 696 466 346
f 1016 1132 803
f 392 391 1133
f 267 158 130
f 1134 51 738
f 999 1135 691
f 576 587 51
f 576 51 1134
f 50 658 1136
f 1103 31 708
f 1137 716 1022
f 1138 687 1139
f 442 1140 1037
f 1042 425 115
f 741 521 776
f 717 485 1123
f 1141 645 1142
f 129 238 882
f 918 118 1143
f 691 371 999
f 371 482 334
f 927 1024 1144
f 371 137 482
f 261 459 707
f 335 1102 1096
f 1145 332 821
f 1146 204 1020
f 1147 224 1083
f 101 152 205
f 321 338 446
f 1148 330 1149
f 1150 332 1078
f 1076 1078 332
f 263 712 550
f 1076 1151 326
f 1076 326 1077
f 887 490 199
f 685 1092 1152
f 1095 552 1153
f 1154 500 254
f 923 637 328
f 147 548 1155
f 330 288 147
f 955 756 1074
f 52 363 767
f 319 318 312
f 298 195 225
f 641 1156 27
f 613 736 752
f 430 695 408
f 1157 643 237
f 101 557 889
f 218 728 1158
f 1079 460 1159
f 853 430 680
f 141 345 142
f 254 500 569
f 714 381 1160
f 126 125 307
f 677 622 722
f 1033 982 981
f 755 224 1147
f 480 640 1161
f 480 73 640
f 197 422 585
f 211 631 694
f 460 507 174
f 1162 395 1059
f 617 456 1124
f 24 23 296
f 52 767 973
f 885 97 608
f 688 162 470
f 598 550 736
f 530 699 1081
f 377 376 301
f 198 524 176
f 711 877 710
f 124 302 850
f 599 388 55
f 574 313 39
f 996 309 146
f 438 138 160
f 355 277 276
f 293 163 843
f 182 729 340
f 406 1163 1164
f 567 529 233
f 157 223 322
f 1 581 495
f 1 883 581
f 54 953 646
f 332 1165 1076
f 1166 67 428
f 1167 1162 1059
f 497 666 955
f 961 290 549
f 83 415 194
f 937 677 722
f 578 80 988
f 463 467 204
f 641 419 1156
f 928 671 1168
f 1113 165 560
f 38 227 748
f 61 578 155
f 641 28 1062
f 541 245 976
f 321 789 1169
f 177 627 444
f 962 703 863
f 414 997 1170
f 1171 489 52
f 406 1164 665
f 151 223 46
f 81 375 1089
f 93 102 94
f 170 342 1127
f 1172 1076 1165
f 1127 426 170
f 1142 645 440
f 440 193 1142
f 893 635 531
f 809 585 966
f 296 23 631
f 635 296 85
f 1105 1035 494
f 733 734 321
f 437 645 1141
f 133 517 119
f 1173 1174 1175
f 738 740 1134
f 956 302 497
f 1059 676 1067
f 862 163 630
f 90 178 241
f 368 672 374
f 313 156 582
f 716 612 1112
f 238 1176 882
f 534 417 111
f 1031 583 1177
f 1178 325 568
f 245 541 244
f 209 64 791
f 603 1179 898
f 197 383 683
f 324 684 615
f 1063 672 1048
f 1086 538 1087
f 1180 855 239
f 286 239 840
f 239 305 304
f 840 239 304
f 305 605 357
f 239 605 305
f 239 855 605
f 1181 684 429
f 1182 138 731
f 836 625 642
f 503 513 1183
f 406 489 1045
f 968 261 828
f 138 438 669
f 716 1112 1021
f 174 474 460
f 719 232 1184
f 562 530 266
f 1161 685 1152
f 640 685 1161
f 685 640 189
f 729 583 950
f 1177 583 312
f 288 597 548
f 170 426 491
f 436 533 481
f 811 94 315
f 1060 515 1185
f 926 924 1186
f 487 735 806
f 740 427 566
f 1176 238 1040
f 1183 639 441
f 987 5 814
f 436 1067 676
f 436 676 602
f 508 1173 1175
f 301 263 377
f 233 1096 1187
f 465 205 627
f 177 465 627
f 902 584 1110
f 1005 694 803
f 391 552 1094
f 388 1090 481
f 824 383 819
f 735 484 1188
f 442 1054 1044
f 229 357 1189
f 376 377 113
f 108 719 555
f 330 147 232
f 174 728 359
f 720 1190 804
f 204 1146 280
f 91 322 675
f 609 748 4
f 101 205 557
f 866 168 945
f 561 42 471
f 531 1191 1192
f 133 844 1084
f 623 207 206
f 230 227 1023
f 609 91 748
f 372 687 1138
f 876 722 1193
f 321 1169 279
f 813 186 1194
f 443 294 1195
f 1061 670 513
f 508 662 945
f 391 1101 367
f 654 162 688
f 443 1195 1001
f 368 288 330
f 790 337 115
f 349 83 493
f 120 1158 728
f 1156 419 418
f 442 1086 1140
f 426 1126 509
f 649 146 717
f 406 655 1163
f 900 228 529
f 371 1000 220
f 102 299 68
f 637 1196 1015
f 482 916 336
f 642 980 1028
f 233 228 1096
f 508 865 1173
f 228 215 1019
f 442 538 1086
f 1139 687 1197
f 260 234 267
f 175 985 984
f 175 269 1052
f 175 1198 191
f 214 594 15
f 175 745 269
f 497 90 224
f 191 647 745
f 533 1050 564
f 785 419 614
f 476 132 333
f 997 289 1199
f 502 221 1004
f 1200 376 1189
f 1200 301 376
f 652 651 674
f 423 971 577
f 853 380 430
f 320 319 579
f 744 423 42
f 320 579 1071
f 1201 160 138
f 49 238 628
f 614 419 641
f 1202 1203 1199
f 295 173 1072
f 1204 474 431
f 491 573 324
f 112 631 211
f 42 561 40
f 379 1109 347
f 552 397 1153
f 1205 431 783
f 324 615 170
f 387 478 547
f 513 670 639
f 387 799 867
f 341 451 449
f 958 92 503
f 267 268 895
f 205 465 557
f 355 743 277
f 502 1004 978
f 355 657 743
f 355 501 1206
f 355 354 501
f 1207 356 355
f 415 444 627
f 1208 50 1136
f 188 222 629
f 629 498 188
f 731 1209 1182
f 869 550 712
f 584 172 557
f 319 6 579
f 1105 494 1104
f 494 982 1033
f 96 162 499
f 628 238 129
f 102 303 299
f 490 706 343
f 247 976 245
f 532 52 973
f 615 1181 991
f 1181 615 684
f 1053 283 864
f 121 618 830
f 233 1210 939
f 198 176 450
f 1127 342 1130
f 1117 435 1211
f 405 211 221
f 307 645 437
f 188 498 343
f 736 747 752
f 762 716 753
f 660 1113 1212
f 660 240 553
f 124 850 849
f 143 1091 957
f 284 1029 845
f 298 9 195
f 324 573 424
f 1073 152 226
f 152 101 226
f 735 1188 806
f 636 21 358
f 343 199 490
f 310 1213 528
f 757 123 1214
f 1214 123 258
f 297 296 635
f 541 1215 658
f 529 899 900
f 232 365 1216
f 685 737 1092
f 195 311 310
f 759 160 1201
f 1217 397 543
f 1020 716 1137
f 469 148 445
f 379 809 196
f 969 191 1198
f 467 5 987
f 301 1200 870
f 508 620 662
f 508 1175 620
f 156 313 411
f 1122 942 941
f 174 1218 1219
f 174 1219 1106
f 174 946 1218
f 721 121 634
f 664 682 899
f 881 611 739
f 881 1220 611
f 377 263 487
f 343 291 188
f 21 636 619
f 639 375 441
f 1221 124 849
f 78 942 1122
f 637 400 328
f 452 821 1150
f 821 332 1150
f 1222 552 1223
f 52 532 1171
f 214 455 594
f 228 1019 448
f 1222 1224 397
f 1223 552 392
f 1214 258 1225
f 189 737 685
f 1226 1018 1227
f 755 666 224
f 1227 1108 1228
f 397 1224 1131
f 436 481 1066
f 543 397 346
f 1178 1058 444
f 444 325 1178
f 147 1155 1184
f 1209 731 526
f 355 1206 657
f 541 975 1215
f 409 872 1041
f 332 1145 1165
f 1184 232 147
f 1229 1003 266
f 233 1187 1230
f 302 124 178
f 1171 532 610
f 1189 376 229
f 711 564 1050
f 1203 997 1199
f 1199 289 891
f 481 1090 1066
f 560 165 173
f 801 116 510
f 979 642 913
f 621 438 160
f 355 276 1207
f 1159 460 907
f 1197 687 681
f 886 1061 97
f 397 552 1222
f 1216 1149 232
f 486 368 330
f 852 680 1231
f 241 178 781
f 233 1230 1210
f 486 330 1148
f 330 232 1149
f 178 124 1221
f 129 199 498
f 320 710 318
f 978 537 502
f 531 60 1191
f 29 267 130
f 375 639 932
f 1108 1227 1018
f 346 397 1131
f 487 263 598
f 847 679 630
f 550 598 263
f 202 283 201
f 985 175 1052
f 340 729 443
f 175 984 1198
f 335 149 1102
f 1166 1232 67
f 587 432 965
f 242 608 532
f 351 103 150
f 1154 637 500
f 1196 637 1154
f 151 46 82
f 283 448 447
f 689 132 911
f 529 228 233
f 688 470 492
f 546 137 136
f 1201 138 1182
f 150 672 350
f 1183 513 639
f 531 1192 893
f 689 637 1015
f 400 637 689
f 699 148 469
f 621 160 36
f 1177 312 888
f 603 331 1179
f 397 1217 1153
f 1016 803 439
f 513 97 1061
f 802 460 468
f 1193 722 622
f 716 179 753
f 600 1233 558
f 764 173 695
f 467 463 1124
f 142 345 805
f 818 171 588
f 1194 186 962
f 687 12 604
f 687 604 1120
f 544 375 932
f 169 974 348
f 698 344 13
f 675 223 151
f 424 186 813
f 488 474 1204
f 169 348 535
f 170 615 342
f 598 735 487
f 660 1212 1064
f 782 977 169
f 781 178 1221
f 178 90 497
f 1112 611 1220
f 1073 493 152
