v 0.0833472 0.087797 0.0556932
v 0.119502 0.0595652 0.00940609
v 0.0724947 0.257383 0.0410556
v 0.108212 0.016534 -0.108212
v 0.087456 0.016534 -0.125466
v 0.087456 0.031345 -0.125466
v 0.13157 0.039506 -0.020852
v 0.115506 0.047667 -0.047841
v 0.123506 0.047667 -0.019567
v 0.137675 -0.321693 0.095971
v 0.155121 -0.321693 0.064259
v 0.214108 -0.389063 -0.0222848
v 0.0235049 -0.504902 -0.0873966
v -0.023066 0.117521 -0.096635
v -0.094172 0.039506 -0.094172
v -0.071777 0.039506 -0.112132
v -0.08042 0.039506 -0.120357
v -0.078075 0.064182 -0.078075
v -0.072291 0.072343 -0.072291
v -0.082637 0.064182 -0.082637
v -0.047841 0.047667 0.115506
v -0.050957 0.039506 0.123056
v -0.047841 0.056021 0.115506
v -0.044724 0.064182 0.107987
v -0.018282 0.064182 0.115441
v -0.0666459 -0.115188 0.0262901
v 0.071065 -0.485529 0.105779
v -0.123506 0.047667 0.019567
v -0.150559 0.031345 -0.026892
v -0.14137 0.031345 -0.058572
v -0.133819 0.039506 -0.055423
v 0.103264 0.008469 0.103264
v -0.188504 -0.440508 0.078075
v -0.200745 -0.440508 0.035857
v 0.0552709 0.087797 -0.0827156
v 0.072291 0.072343 -0.072291
v 0.039134 0.072343 -0.094461
v -0.04225 0.064182 -0.101979
v -0.044724 0.064182 -0.107987
v -0.039134 0.072343 -0.094461
v -0.100667 -0.313586 -0.124918
v -0.078621 -0.296632 -0.108212
v 0 0.334423 -0.041961
v 0 0.32472 -0.053913
v -0.016065 0.334423 -0.038748
v -0.046588 0.315017 0.046588
v -0.060853 0.315017 0.025222
v 0.0480125 0.0683246 0.0980042
v -0.0450222 -0.518454 -0.0503246
v -0.20183 -0.351364 -0.0406196
v -0.014426 0.370408 0.014426
v 0 0.368914 0.020402
v 0.02082 0.039506 -0.13157
v 0 0.039506 -0.14484
v 0 0.039506 -0.133209
v 0.03274 -0.245546 -0.079071
v 0.060532 -0.245546 -0.060532
v 0.119343 0.0594084 -0.00939348
v -0.040387 0.126224 0.097513
v -0.012241 0.375581 0
v -0.008643 0.375581 0.008643
v 0.046588 0.315017 -0.046588
v 0.169523 -0.39709 -0.132154
v 0.025222 0.315017 -0.060853
v -0.023615 -0.079405 0.05703
v 0.065319 0.047667 0.106606
v 0.08842 0.047667 0.08842
v 0.065319 0.056021 0.106606
v 0.052692 -0.037669 -0.052692
v -0.00129509 -0.493112 -0.113265
v -0.0425983 -0.275746 -0.0956265
v -0.14137 0.016534 0.058572
v 0.0271616 -0.496305 0.10415
v 0.0451842 -0.477072 0.135386
v -0.076956 -0.278726 -0.0752651
v 0.051182 -0.296632 -0.12357
v 0.02866 -0.296632 -0.130574
v -0.055873 0.008469 0.134912
v -0.022844 0.008469 0.144229
v 0.033464 -0.215801 0.0706979
v 0.097909 -0.0226733 -0.0649955
v -0.141141 -0.4602 0.0988399
v 0 -0.079405 -0.061753
v 0 -0.121446 -0.064195
v 0.08842 0.056021 0.08842
v 0.120357 0.039506 0.08042
v 0.106606 0.056021 0.065319
v 0.07015 -0.203255 -0.0424132
v 0.0288275 0.32181 -0.0431323
v 0.129471 0.0423827 -0.0109427
v -0.0428704 -0.484453 -0.121681
v -0.194816 -0.345536 0.04489
v 0.101938 -0.399335 0.185999
v 0.0475486 -0.514732 -0.0542548
v 0 0.249312 -0.101305
v -0.0810224 -0.461822 -0.147022
v -0.102348 -0.467608 0.123366
v -0.097936 -0.454577 0.154343
v 0.0741709 -0.514738 -0.0196958
v 0.144229 0.008469 0.022844
v 0.113782 -0.0279928 0.0155635
v 0.205077 -0.405048 0.0546203
v 0.087456 0.031345 0.125466
v 0.058572 0.016534 0.14137
v 0.087456 0.016534 0.125466
v 0 -0.276519 -0.103875
v -0.061078 0.064182 -0.099666
v 0.0433703 0.32222 -0.0289865
v 0.095448 0.195794 -0.0407017
v -0.130574 -0.296632 -0.02866
v -0.133755 -0.296632 0
v 0 -0.245546 -0.085593
v -0.0571759 0.224027 0.0734814
v 0.0415858 0.165671 0.091888
v 0 -0.440508 -0.204022
v -0.065319 0.047667 -0.106606
v -0.08842 0.047667 -0.08842
v -0.065319 0.056021 -0.106606
v -0.017286 0.064182 -0.109047
v 0 -0.037669 -0.074508
v -0.094557 -0.296632 -0.094557
v -0.125466 0.016534 0.087456
v -0.074637 0.126224 0.074637
v -0.072291 0.103251 0.072291
v -0.102011 0.064182 -0.04225
v -0.107987 0.064182 -0.044724
v -0.109047 0.064182 -0.017286
v 0.118718 -0.321693 0.118718
v -0.112132 0.039506 -0.071777
v -0.102936 0.039506 -0.0864843
v -0.120357 0.039506 -0.08042
v 0.108212 0.031345 0.108212
v 0.102429 0.039506 0.102429
v 0.153033 0.016534 0
v 0.150559 0.016534 0.026892
v -0.025447 0.039506 0.142526
v -0.055423 0.039506 0.133819
v -0.026892 0.031345 0.150559
v 0.058572 0.031345 -0.14137
v -0.213169 -0.39903 -0.021993
v -0.0202587 0.2095 -0.0978661
v 0 -0.163488 0.066637
v -0.0420853 -0.13085 -0.051658
v 0.102162 0.167166 0.0095384
v 0.197663 -0.34303 -0.0194569
v 0.200113 -0.387052 0.0835865
v -0.074508 -0.037669 0
v 0.20491 -0.396617 -0.0652344
v 0.028531 -0.037669 0.068854
v 0.043664 -0.079405 0.043664
v 0.052692 -0.037669 0.052692
v 0.072291 0.103251 0.072291
v 0.039134 0.103251 0.094461
v -0.200745 -0.440508 -0.035857
v 0 0.200635 0.111538
v 0 0.175671 0.113642
v 0 0.370408 0.020402
v 0 0.349427 0.026186
v 0 0.36742 0.020402
v -0.095971 -0.321693 -0.137675
v -0.129613 -0.349208 -0.152286
v -0.118718 -0.321693 -0.118718
v -0.0673964 0.274858 -0.0307002
v -0.00118798 -0.482412 0.133303
v 0.103264 0.008469 -0.103264
v 0.020402 0.36742 0
v 0.014426 0.36742 -0.014426
v 0.020402 0.370408 0
v -0.08932 0.064182 -0.064902
v -0.094461 0.072343 -0.039134
v -0.094461 0.103251 -0.039134
v -0.108212 0.031345 -0.108212
v -0.039134 0.103251 -0.094461
v -0.072291 0.103251 -0.072291
v -0.040387 0.126224 -0.097513
v 0.023615 -0.079405 -0.05703
v -0.102429 0.039506 -0.102429
v -0.08842 0.056021 -0.08842
v -0.100829 0.082273 -0.0227197
v 0 0.041884 0.127426
v -0.115506 0.056021 -0.047841
v -0.115441 0.064182 -0.018282
v 0.120357 0.039506 -0.08042
v 0.106606 0.056021 -0.065319
v -0.097513 0.126224 -0.040387
v 0.134912 0.008469 -0.055873
v -0.0198338 -0.533689 -0.0224968
v 0.104477 0.209826 -0.00534863
v -0.028531 -0.037669 -0.068854
v -0.052692 -0.037669 -0.052692
v 0 0.370408 -0.020402
v 0 0.368914 -0.020402
v -0.018282 0.064182 -0.115441
v -0.026892 0.016534 0.150559
v -0.019567 0.047667 -0.123506
v -0.019567 0.056021 -0.123506
v -0.025447 0.039506 -0.142526
v -0.050957 0.039506 -0.123056
v -0.055423 0.039506 -0.133819
v -0.047841 0.047667 -0.115506
v -0.123714 0.0518401 -0.0097391
v -0.125048 0.047667 0
v -0.125048 0.056021 0
v -0.0665125 0.04157 -0.117352
v 0.144261 -0.440508 -0.144261
v 0.124281 -0.457616 -0.122969
v -0.112785 0.0643631 0.00887282
v 0.079889 -0.274653 -0.0682257
v 0 0.072343 -0.102236
v 0 0.087797 -0.102236
v -0.155121 -0.321693 -0.064259
v 0.025222 0.315017 0.060853
v 0 0.315017 0.065865
v -0.065319 0.056021 0.106606
v -0.061078 0.064182 0.099666
v -0.071777 0.039506 0.112132
v -0.08842 0.047667 0.08842
v -0.094172 0.039506 0.094172
v 0.0359364 -0.389873 -0.202986
v 0.00547359 0.365024 -0.0189047
v -0.0425882 -0.106817 0.0527741
v -0.0438952 0.0415215 0.127234
v 0.134912 0.008469 0.055873
v 0.124502 0.008469 0.076308
v -0.065319 0.047667 0.106606
v 0 0.087797 0.102236
v -0.0996115 -0.276424 -0.0384769
v -0.184327 -0.350453 0.0864674
v -0.0390253 -0.141244 0.0540495
v -0.192892 -0.338463 0.00220645
v -0.102972 -0.482176 0.0867183
v -0.0748758 0.0487285 0.0990825
v 0.102236 0.103251 0
v -0.072291 0.072343 0.072291
v -0.094461 0.072343 0.039134
v -0.0862004 0.0660302 0.0654733
v -0.0245754 0.323415 -0.0459661
v -0.04225 0.064182 0.101979
v -0.0441112 -0.355458 -0.189758
v -0.0661759 0.039506 0.115993
v -0.08042 0.039506 0.120357
v -0.047616 -0.440508 0.1984
v 0 -0.440508 0.204022
v 0 -0.402435 0.20293
v -0.039134 0.103251 0.094461
v -0.08842 0.056021 0.08842
v -0.102429 0.039506 0.102429
v 0.0749268 -0.117183 -0.0042701
v 0.144475 -0.462386 0.0841434
v 0.0851635 -0.27565 0.0597762
v 0.155121 -0.321693 -0.064259
v 0.165852 -0.321693 -0.026282
v -0.055873 0.008469 -0.134912
v -0.125466 0.031345 -0.087456
v -0.115506 0.056021 0.047841
v -0.107987 0.064182 0.044724
v -0.123506 0.056021 0.019567
v 0.102429 0.039506 -0.102429
v 0.08842 0.056021 -0.08842
v -0.113256 -0.440508 0.169515
v 0.094461 0.103251 0.039134
v 0.097513 0.126224 0.040387
v -0.00466781 0.363439 0.0197482
v -0.124502 0.008469 0.076308
v -0.108212 -0.296632 0.078621
v -0.118718 -0.321693 0.118718
v -0.094557 -0.296632 0.094557
v 0.125466 0.016534 0.087456
v 0.125466 0.031345 0.087456
v 0.108212 0.016534 0.108212
v 0.061753 -0.079405 0
v -0.0858363 -0.275877 0.05817
v 0.0308984 0.256371 -0.0772865
v 0 0.273024 -0.093176
v 0.088327 -0.50263 0.0459255
v -0.0665029 -0.499232 -0.0815236
v -0.0690108 -0.154675 0.0244698
v 0.0885775 -0.498043 -0.0587031
v 0.0856699 -0.211063 -0.00592409
v 0.213489 -0.395473 0.0205891
v -0.0210722 -0.532087 0.0168996
v -0.207736 -0.392333 0.0595016
v 0.0430624 -0.179053 0.0554451
v 0.0720894 0.169168 -0.0704989
v 0 0.36742 -0.020402
v -0.0737849 -0.16269 -0.0204647
v -0.0755497 -0.391661 -0.199951
v -0.0979829 0.0683383 -0.0480001
v 0 0.315017 -0.065865
v 0.108212 0.031345 -0.108212
v 0.124502 0.008469 -0.076308
v -0.051182 -0.296632 0.12357
v -0.095971 -0.321693 0.137675
v -0.064259 -0.321693 0.155121
v -0.133209 0.039506 0
v -0.123506 0.047667 -0.019567
v -0.13157 0.039506 -0.020852
v -0.105545 0.126224 0
v -0.102236 0.103251 0
v 0.123056 0.039506 -0.05099
v -0.0469111 0.32273 -0.0194341
v 0.0410159 -0.166725 -0.0548143
v -0.076308 0.008469 0.124502
v 0.0692919 -0.0190023 0.0885206
v 0.164179 -0.395233 0.136849
v 0.097513 0.126224 -0.040387
v 0.113564 -0.0221233 -0.0247406
v 0.095405 0.15746 -0.0367715
v 0 0.047667 0.125048
v -0.058572 0.031345 -0.14137
v -0.026892 0.016534 -0.150559
v -0.058572 0.016534 -0.14137
v -0.094461 0.103251 0.039134
v 0 -0.204517 -0.076115
v 0.03274 -0.245546 0.079071
v -0.00135703 -0.476416 -0.144698
v 0.108662 -0.353824 0.170241
v 0.0346706 0.274933 0.065872
v 0 0.126224 -0.105545
v 0.0349812 -0.0136352 0.110283
v -0.0256501 0.229826 0.0916741
v 0 -0.006792 0.105224
v 0 0.103251 -0.102236
v 0.039134 0.103251 -0.094461
v -0.150559 0.016534 -0.026892
v -0.14137 0.016534 -0.058572
v 0.058572 0.031345 0.14137
v 0.116887 0.064182 0
v 0.0695774 -0.460753 0.161004
v 0.0933528 -0.463908 0.137775
v -0.108212 0.016534 0.108212
v -0.087456 0.016534 0.125466
v -0.087456 0.031345 0.125466
v 0.150559 0.016534 -0.026892
v 0.14137 0.031345 -0.058572
v 0.150559 0.031345 -0.026892
v 0 -0.121446 0.064195
v -0.079071 -0.245546 0.03274
v -0.085593 -0.245546 0
v 0.082637 0.064182 0.082637
v 0.064902 0.064182 0.08932
v 0.061078 0.064182 0.099666
v 0.12357 -0.296632 0.051182
v 0.130574 -0.296632 0.02866
v 0.108212 -0.296632 -0.078621
v 0.118718 -0.321693 -0.118718
v 0.113256 -0.440508 0.169515
v -0.134912 0.008469 0.055873
v -0.065865 0.315017 0
v -0.060853 0.315017 -0.025222
v 0.094172 0.039506 0.094172
v 0.078075 0.064182 0.078075
v 0 -0.321693 -0.167909
v 0.026282 -0.321693 -0.165852
v 0.071777 0.039506 0.112132
v 0.08042 0.039506 0.120357
v 0 0.041884 -0.127426
v 0.019567 0.047667 -0.123506
v 0.14137 0.016534 -0.058572
v 0 0.066559 0.104614
v 0 0.064182 0.110397
v 0.017254 0.064182 0.109047
v 0.142526 0.039506 -0.025447
v 0.072291 0.072343 0.072291
v 0.039134 0.072343 0.094461
v 0.023615 -0.079405 0.05703
v 0 -0.079405 0.061753
v -0.106606 0.056021 -0.065319
v -0.0763423 0.226424 -0.0624129
v 0.0414392 0.322901 0.027687
v 0.038748 0.334423 0.016065
v 0.14137 0.016534 0.058572
v 0.036923 -0.131681 0.0549528
v 0.141122 -0.393742 -0.16237
v -0.108212 0.031345 0.108212
v -0.125466 0.031345 0.087456
v -0.20479 -0.395709 -0.0653275
v 0.10466 -0.382413 -0.182699
v -0.0229295 -0.506775 -0.0849004
v -2.6e-08 0.371877 6.63e-08
v 0.105545 0.126224 0
v 0.102011 0.064182 -0.04225
v 0.0749818 -0.163907 -0.0170209
v -0.00299674 0.362729 -0.0167427
v 0 0.064182 0.116887
v -0.137675 -0.321693 -0.095971
v -0.108212 -0.296632 -0.078621
v 0.040387 0.126224 0.097513
v 0.115506 0.056021 -0.047841
v 0.123506 0.056021 -0.019567
v 0 -0.057653 -0.065287
v 0.0509468 -0.120762 -0.0462474
v -0.0227958 0.347848 1.1737e-06
v 0.064902 0.064182 -0.08932
v -0.020402 0.36742 0
v -0.123506 0.056021 -0.019567
v -0.142526 0.039506 -0.025447
v -0.106606 0.056021 0.065319
v -0.099666 0.064182 0.061078
v 0.123056 0.039506 0.05099
v 0.115506 0.056021 0.047841
v 0.133819 0.039506 0.055423
v -0.00392632 0.0658186 0.106109
v 0 0.072343 0.102236
v -0.017286 0.064182 0.109047
v 0.123506 0.056021 0.019567
v 0.115441 0.064182 0.018282
v -0.029656 0.334423 -0.029656
v -0.161883 -0.351586 -0.123805
v -0.163669 -0.398289 0.138649
v -0.161276 -0.353916 0.123149
v 0.0324268 0.0598897 0.115011
v 0.044724 0.064182 0.107987
v 0.018282 0.064182 0.115441
v -0.0472217 0.0650679 -0.100511
v 0 -0.288247 0.11769
v 0 -0.296632 0.133755
v 0.123506 0.047667 0.019567
v 0.112132 0.039506 0.071777
v -0.023615 -0.079405 -0.05703
v 0.094461 0.103251 -0.039134
v 0.142526 0.039506 0.025447
v 0.13157 0.039506 0.020852
v 0.099666 0.064182 -0.061078
v 0.115506 0.047667 0.047841
v 0.133819 0.039506 -0.055423
v -0.128075 -0.485022 0.0216981
v 0.018951 -0.528902 0.0379419
v -0.0132625 0.0239395 0.149768
v 0.08042 0.039506 -0.120357
v 0.019567 0.056021 0.123506
v -0.03274 -0.245546 -0.079071
v 0.047841 0.047667 0.115506
v 0.050957 0.039506 0.123056
v 0.047841 0.056021 0.115506
v 0.02082 0.039506 0.13157
v 0.019567 0.047667 0.123506
v 0.0471575 -0.276287 0.0924485
v 0.060532 -0.245546 0.060532
v 0.025447 0.039506 0.142526
v 0.055423 0.039506 0.133819
v -0.022844 0.008469 -0.144229
v -0.068854 -0.037669 0.028531
v 0.065319 0.047667 -0.106606
v 0.08842 0.047667 -0.08842
v 0.071777 0.039506 -0.112132
v 0 0.066559 -0.104614
v 0 0.064182 -0.110397
v 0.047841 0.047667 -0.115506
v 0.0342715 0.0465675 -0.120481
v 0.047841 0.056021 -0.115506
v 0.019567 0.056021 -0.123506
v 0.025447 0.039506 -0.142526
v 0.050957 0.039506 -0.123056
v 0.044724 0.064182 -0.107987
v 0.018282 0.064182 -0.115441
v 0 -0.321693 0.167909
v 0.0261857 -0.534942 -0.0110097
v 0.061078 0.064182 -0.099666
v -0.019567 0.047667 0.123506
v 0.008643 0.375581 -0.008643
v 0.114887 0.0597604 -0.0323919
v 0.107987 0.064182 -0.044724
v -0.087456 0.031345 -0.125466
v -0.087456 0.016534 -0.125466
v 0.094172 0.039506 -0.094172
v -0.020852 0.039506 0.13157
v -0.119802 0.0598615 -0.00942973
v 0.094557 -0.296632 -0.094557
v 0.078621 -0.296632 -0.108212
v -0.025222 0.315017 -0.060853
v 0.074637 0.126224 -0.074637
v 0.072291 0.103251 -0.072291
v 0.0755158 0.274502 -0.00375117
v -0.099666 0.064182 -0.061078
v 0.060853 0.315017 -0.025222
v 0.112132 0.039506 -0.071777
v 0.106606 0.047667 -0.065319
v 0.05703 -0.079405 -0.023615
v 0.055873 0.008469 -0.134912
v 0.076308 0.008469 -0.124502
v 0.014426 0.370408 0.014426
v 0.012241 0.375581 0
v 0.014426 0.36742 0.014426
v -0.0862855 -0.0233237 0.0763251
v -0.0418242 -0.177929 0.0570787
v -0.149196 -0.460943 -0.0805334
v -0.014426 0.36742 -0.014426
v -0.008643 0.375581 -0.008643
v -0.014426 0.370408 -0.014426
v -0.0394989 -0.013956 0.106734
v 0 -0.276519 0.103875
v 0 -0.262061 0.093015
v -0.14484 0.039506 0
v -0.113256 -0.440508 -0.169515
v 0.127066 0.0447936 0.0108589
v 0 0.126224 0.105545
v 0 0.062222 0.122188
v -0.02866 -0.296632 0.130574
v -0.051182 -0.296632 -0.12357
v -0.046588 0.315017 -0.046588
v -0.028531 -0.037669 0.068854
v 0.040387 0.126224 -0.097513
v -0.074637 0.126224 -0.074637
v 0 0.375581 -0.012241
v -0.097513 0.126224 0.040387
v 0.144872 0.039506 0
v 0.150559 0.031345 0.026892
v 0.02866 -0.296632 0.130574
v 0 -0.306914 0.152487
v 0.125048 0.047667 0
v 0.133209 0.039506 0
v 0.074508 -0.037669 0
v 0.065319 0.056021 -0.106606
v 0.0250498 0.0760912 0.0983645
v 0.017254 0.064182 -0.109047
v -0.0148231 0.0143266 0.146727
v -0.0659252 0.259904 0.0485227
v 0 0.012502 0.149531
v -0.0441396 -0.353463 0.188712
v 0.169515 -0.440508 -0.113256
v -0.0983956 0.158353 -0.0269215
v 0.158088 -0.464273 -0.0394228
v 0.187713 -0.405692 -0.0995661
v 0.125048 0.056021 0
v -0.204022 -0.440508 0
v 0 0.023939 0.153033
v 0.026892 0.031345 0.150559
v 0 0.031345 0.153033
v 0.0671826 0.220501 -0.0708309
v 0.04225 0.064182 -0.102011
v 0 -0.262061 -0.093015
v 0 -0.345501 -0.183749
v 0.016065 0.334423 0.038748
v 0 0.334423 0.041961
v 0 0.32472 0.053913
v 0.0133009 0.0239395 -0.150218
v 0 0.023939 -0.153033
v 0 0.031345 -0.153033
v -0.0350853 0.176946 0.0931862
v 0 0.064182 -0.116887
v -0.0625572 -0.518019 0.0340069
v -0.060532 -0.245546 -0.060532
v -0.079071 -0.245546 -0.03274
v 0.051182 -0.296632 0.12357
v -0.169515 -0.440508 -0.113256
v -0.159098 -0.39322 -0.146131
v 0.163157 -0.461904 0.0432504
v -0.153001 0.031345 0
v 0 0.114737 0.10389
v 0.0414941 -0.210663 -0.0656434
v -0.026282 -0.321693 0.165852
v -0.0638167 -0.462249 0.158036
v -0.144261 -0.440508 -0.144261
v 0.028531 -0.037669 -0.068854
v 0 0.047667 -0.125048
v 0.144261 -0.440508 0.144261
v 0.00309619 -0.523014 -0.053429
v 0.065865 0.315017 0
v -0.0118296 0.0130905 -0.146851
v 0 0.008469 -0.146029
v -0.0727005 -0.0615723 -0.0144573
v 0.0383198 -0.0272594 -0.0903943
v 0.194299 -0.350332 -0.0551663
v -0.102236 0.072343 0
v 0.095971 -0.321693 -0.137675
v 0 0.294021 0.0795205
v -0.052692 -0.037669 0.052692
v -0.188504 -0.440508 -0.078075
v 0 0.249312 0.101305
v 0 0.2256 0.109433
v -0.076308 0.008469 -0.124502
v -0.0522513 -0.0216134 -0.10152
v -0.103264 0.008469 -0.103264
v -0.068854 -0.037669 -0.028531
v 0 0.016534 -0.153033
v 0.188504 -0.440508 0.078075
v 0.058572 0.016534 -0.14137
v -0.026282 -0.321693 -0.165852
v 0.0823099 0.087797 -0.0549981
v 0.0097856 0.051844 -0.124304
v 0.0381554 -0.389022 0.201605
v -0.0367665 0.236848 -0.0826558
v -0.0395747 -0.214078 0.0680171
v -0.136197 -0.406733 0.163763
v 0.125466 0.016534 -0.087456
v 0 0.051844 -0.125048
v 0.026892 0.016534 0.150559
v -0.0153132 0.0333374 -0.146622
v -0.064902 0.064182 0.08932
v -0.144229 0.008469 0.022844
v 0.064259 -0.321693 -0.155121
v 0.0840235 -0.344798 -0.172122
v 0 0.003039 0.124791
v 0 0.008469 0.146029
v 0.188504 -0.440508 -0.078075
v -0.05703 -0.079405 -0.023615
v 0 -0.288247 -0.11769
v -0.043664 -0.079405 -0.043664
v -0.064902 0.064182 -0.08932
v 0.0641285 -0.113675 0.0338265
v 0.0215542 0.348323 -0.00150829
v 0.108212 -0.296632 0.078621
v 0.038748 0.334423 -0.016065
v 0.041961 0.334423 0
v -0.064259 -0.321693 -0.155121
v -0.109047 0.064182 0.017286
v -0.10179 0.165206 0.00793963
v 0.0534152 -0.507791 0.0684342
v -0.039134 0.072343 0.094461
v 0.115245 -0.491556 -0.0257179
v 0 0.016534 0.153033
v 0 0.273024 0.093176
v 0.0827157 0.172301 0.0603532
v 0.074637 0.126224 0.074637
v -0.12357 -0.296632 -0.051182
v -0.061753 -0.079405 0
v -0.05703 -0.079405 0.023615
v -0.18829 -0.395832 0.103321
v 0.113256 -0.440508 -0.169515
v 0.078075 -0.440508 -0.188504
v -0.11558 -0.0272177 0.0262745
v -0.0621932 -0.502406 0.0758642
v 0.026892 0.031345 -0.150559
v 0.102018 -0.501301 0.0114027
v -0.150559 0.031345 0.026892
v -0.150559 0.016534 0.026892
v -0.14137 0.031345 0.058572
v 0 -0.402435 -0.20293
v 0.055423 0.039506 -0.133819
v -0.0415539 -0.463151 -0.162053
v 0.0558129 0.242355 0.0700509
v -0.00893147 0.0596649 -0.119623
v 0.12357 -0.296632 -0.051182
v 0 -0.057653 0.065287
v 0.0934012 0.23839 0.014808
v -0.130574 -0.296632 0.02866
v -0.12357 -0.296632 0.051182
v -0.184609 -0.351667 -0.0862295
v -0.089758 -0.352192 0.178776
v 0 0.373203 0.018025
v 0.0421951 -0.462649 -0.16141
v -0.047841 0.056021 -0.115506
v 0 0.037097 -0.150623
v 0.078621 -0.296632 0.108212
v 0.094557 -0.296632 0.094557
v -0.014426 0.36742 0.014426
v 0.0705368 -0.0597108 4.29324e-05
v -0.10626 -0.396828 0.183032
v -0.0381819 0.274499 -0.0634592
v -0.055163 0.0877967 -0.0825541
v 0.14137 0.031345 0.058572
v 0.204022 -0.440508 0
v 0.174887 -0.457953 0.00143789
v -0.211054 -0.407831 0.0175181
v -0.144261 -0.440508 0.144261
v -0.131772 -0.413348 -0.166898
v -0.0473217 -0.276791 0.0917645
v -0.060532 -0.245546 0.060532
v 0.0605308 0.271763 -0.0468612
v 0.204101 -0.350025 0.0140045
v -0.038748 0.334423 0.016065
v -0.041961 0.334423 0
v 0.146029 0.008469 0
v 0.144229 0.008469 -0.022844
v 0 -0.245546 0.085593
v 0.0310153 -0.0100356 -0.116167
v 0.100315 -0.486997 0.0779481
v 0.14723 -0.460652 -0.0852423
v 0.102017 -0.0213321 0.0574558
v 0.068854 -0.037669 0.028531
v 0.125466 0.031345 -0.087456
v -0.13157 0.039506 0.020852
v -0.103655 -0.274196 0.0122743
v 0 -0.306914 -0.152487
v -0.078075 -0.440508 0.188504
v 0.079071 -0.245546 0.03274
v -0.071028 -0.393147 0.198582
v 0.169515 -0.440508 0.113256
v 0.0600659 -0.520955 0.0222537
v 0.12524 -0.483561 0.0455607
v 0.0700584 -0.0169342 -0.0974165
v 0.0579857 0.286908 0.0345106
v 0.200745 -0.440508 0.035857
v 0.00392367 0.0658176 -0.106111
v 0.068854 -0.037669 -0.028531
v -0.0909564 0.242476 0.0231519
v -0.0796656 -0.204365 -0.0256481
v -0.120357 0.039506 0.08042
v -0.0767296 -0.201131 0.027831
v 0.121401 -0.349564 -0.157981
v 0.154021 -0.351704 -0.133637
v -0.0996796 0.197536 -0.0293994
v 0 -0.377631 0.197404
v -0.0352367 -0.39227 0.203925
v 0.0818809 -0.466595 -0.138032
v 0 0.039506 0.14484
v -0.169515 -0.440508 0.113256
v 0.0412908 -0.278172 -0.097295
v -0.096333 -0.0258068 -0.0678087
v 0.140546 -0.47904 0.00611558
v 0 0.056021 -0.125048
v -0.137675 -0.321693 0.095971
v 0.064968 -0.492293 -0.0941472
v 0.029656 0.334423 0.029656
v -0.0340056 -0.400104 -0.205277
v 0.014426 0.370408 -0.014426
v 0.0745951 -0.404555 -0.196704
v 0.0763053 -0.195191 0.0294788
v 0 0.051844 0.125048
v -0.026892 0.031345 -0.150559
v 0.0109949 0.0466098 0.124616
v -0.0897076 -0.349217 -0.176153
v -0.025222 0.315017 0.060853
v -0.016065 0.334423 0.038748
v 0.115441 0.064182 -0.018282
v 0 -0.020576 0.088195
v -0.119675 -0.379056 -0.17911
v -0.0794869 0.168872 -0.0647243
v -0.0843154 -0.478684 -0.110652
v 0.022844 0.008469 0.144229
v -0.115182 -0.0247936 -0.0228397
v -0.122901 -0.489767 -0.0122427
v 0 -0.020576 -0.088195
v 0 -0.163488 -0.066637
v 0 -0.006792 -0.105224
v 0.0361052 -0.351091 0.187868
v 0 -0.345501 0.183749
v 0 0.103251 0.102236
v 0.000313157 -0.457746 -0.175378
v 0.069588 -0.405655 0.198632
v -0.0516324 -0.21433 -0.0597963
v 0.055873 0.008469 0.134912
v -0.047616 -0.440508 -0.1984
v 0 0.294021 -0.0795205
v 0.124307 -0.479993 -0.0611826
v -0.043664 -0.079405 0.043664
v -0.0623537 -0.0601703 0.0416654
v -0.0735051 -0.3069 -0.132918
v -0.0935736 0.240553 -0.0170912
v -0.0893296 0.215859 0.0520462
v -0.110397 0.064182 0
v 0.182427 -0.355589 -0.0982222
v 0.137675 -0.321693 -0.095971
v 0.047616 -0.440508 0.1984
v -0.0941915 -0.505696 0.00681598
v -0.0437254 -0.176227 -0.054445
v 0.200745 -0.440508 -0.035857
v 0 -0.037669 0.074508
v 0 0.2256 -0.109433
v -0.0999605 -0.496389 0.0482473
v -0.142526 0.039506 0.025447
v -0.115441 0.064182 0.018282
v 0.105118 -0.477664 -0.0951543
v -0.0724193 -0.119041 -0.0170515
v 0.197562 -0.353731 0.0560488
v -0.011004 0.046613 -0.124614
v -0.03274 -0.245546 0.079071
v -0.020852 0.039506 -0.13157
v 0.112925 -0.468745 0.10947
v -0.146029 0.008469 0
v 0.0917093 0.240656 -0.0314441
v 0 0.150947 0.109594
v -0.0743066 0.276541 0.0122099
v 0.0729032 -0.365044 0.188818
v 0.064259 -0.321693 0.155121
v -0.029656 0.334423 0.029656
v -0.0199257 -0.501163 0.0965918
v 0.103243 -0.274601 0.0205426
v 0.00101428 0.36905 0.0199818
v 0.165852 -0.321693 0.026282
v -0.165852 -0.321693 0.026282
v 0.130574 -0.296632 -0.02866
v 0 0.039506 0.133209
v -0.215262 -0.369449 0.0113476
v -0.078621 -0.296632 0.108212
v 0.016065 0.334423 -0.038748
v 0.095971 -0.321693 0.137675
v -0.134912 0.008469 -0.055873
v -0.170128 -0.457309 -0.0394765
v -0.13468 -0.477079 -0.0449966
v 0 0.114737 -0.10389
v 0.153033 0.031345 0
v -0.103473 0.206003 0.0137849
v -0.12096 -0.460174 -0.11928
v 0.135716 -0.395429 0.165371
v 0.183347 -0.404167 0.107159
v -0.0539577 -0.483221 0.120494
v -0.153001 0.016534 0
v -0.144229 0.008469 -0.022844
v 0 0.175671 -0.113642
v 0.0358055 0.172728 -0.0916223
v 0 0.150947 -0.109594
v 0 0.375581 0.012241
v 0.029656 0.334423 -0.029656
v 0.078075 -0.440508 0.188504
v 0.026282 -0.321693 0.165852
v -0.082637 0.064182 0.082637
v 0.05703 -0.079405 0.023615
v 0.0598184 -0.0592592 0.0399645
v 0.176687 -0.353684 0.103733
v -0.116887 0.064182 0
v -0.058572 0.031345 0.14137
v -0.0222261 -0.463312 0.166417
v 0.0247668 -0.461323 0.168458
v 0.008643 0.375581 0.008643
v 0 0.003039 -0.124791
v -0.185056 -0.395118 -0.106495
v -0.091297 0.170669 0.0434524
v 0 -0.377631 -0.197404
v -0.070361 0.183014 0.0712667
v 0 0.349427 -0.026186
v 0 0.200635 -0.111538
v 0.082798 0.220504 0.0573834
v -0.0251708 -0.519383 0.0570525
v 0.076308 0.008469 0.124502
v -0.0589037 -0.523225 -0.00950147
v 0.094461 0.072343 -0.039134
v -0.0106213 0.0591528 0.120618
v -0.019567 0.056021 0.123506
v 0 0.056021 0.125048
v 0.08932 0.064182 -0.064902
v -0.02866 -0.296632 -0.130574
v -0.0979865 0.0804475 0.021389
v 0.0263336 0.244791 0.0860803
v -0.133819 0.039506 0.055423
v 0.0634722 -0.0606074 -0.0424217
v 0.026892 0.016534 -0.150559
v 0 0.012502 -0.149531
v -0.165852 -0.321693 -0.026282
v -0.167909 -0.321693 0
v -0.109223 -0.482096 -0.0793611
v 0.102011 0.064182 0.04225
v 0.0981846 0.087797 0.0195344
v 0.107987 0.064182 0.044724
v -0.125466 0.016534 -0.087456
v -0.124502 0.008469 -0.076308
v 0.0697154 -0.151595 0.0290061
v 0.109047 0.064182 0.017286
v 0.047616 -0.440508 -0.1984
v -0.0423516 0.179581 -0.0904736
v -0.0905847 -0.502473 -0.0404026
v 0.0110775 -0.513772 0.0741286
v 0.099666 0.064182 0.061078
v 0.08932 0.064182 0.064902
v -0.00230152 0.062592 0.11865
v 0.094461 0.072343 0.039134
v -0.149942 -0.467223 0.0543985
v 0.00898635 0.0600421 -0.120004
v 0.133755 -0.296632 0
v -0.0319203 0.27008 0.0692981
v 0.085593 -0.245546 0
v 0.079071 -0.245546 -0.03274
v 0 -0.204517 0.076115
v 0.103033 -0.274178 -0.0229487
v 0.109047 0.064182 -0.017286
v 0.110397 0.064182 0
v 0.102236 0.072343 0
v 0.167909 -0.321693 0
v -0.104503 -0.413085 -0.185524
v -0.078075 -0.440508 -0.188504
v -0.108212 0.016534 -0.108212
v -0.162104 -0.465405 0.00437277
v 0.0458063 0.207532 0.0852821
v -0.058572 0.016534 0.14137
v 0.022844 0.008469 -0.144229
v -0.020402 0.370408 0
v 0.14316 -0.350229 0.140236
v -0.130988 -0.358476 0.15752
v 0.100731 0.201325 0.0305322
v 0.0286499 0.211775 -0.0919222
v 0.0375069 -0.483467 -0.124563
v 0 -0.296632 -0.133755
v 0.0540819 -0.35999 -0.191404
v 0.082637 0.064182 -0.082637
v -0.155121 -0.321693 0.064259
v 0 0.062222 -0.122188
v 0 0.037097 0.150623
v 0.0122844 0.0341412 0.146127
v 0.046588 0.315017 0.046588
v 0.060853 0.315017 0.025222
v -0.038748 0.334423 -0.016065
v 0.043664 -0.079405 -0.043664
v -0.103264 0.008469 0.103264
v 0 0.373203 -0.018025
v -0.047841 0.056021 0.115506
v 0.014426 0.36742 -0.014426
v 0.087456 0.031345 0.125466
v -0.095971 -0.321693 -0.137675
v -0.040387 0.126224 0.097513
v -0.109047 0.064182 -0.017286
v -0.107987 0.064182 -0.044724
v -0.094461 0.103251 -0.039134
v 0.072291 0.072343 0.072291
v -0.014426 0.370408 -0.014426
v -0.044724 0.064182 -0.107987
v -0.047841 0.056021 -0.115506
v 0.094461 0.072343 0.039134
v -0.055423 0.039506 0.133819
v -0.025447 0.039506 0.142526
v -0.065319 0.056021 0.106606
v -0.125466 0.031345 -0.087456
v -0.120357 0.039506 -0.08042
v -0.102429 0.039506 -0.102429
v 0.094461 0.103251 0.039134
v -0.14137 0.016534 0.058572
v 0.025222 0.315017 -0.060853
v 0 0.349427 -0.026186
v 0.102429 0.039506 -0.102429
v 0.087456 0.031345 -0.125466
v 0 -0.296632 -0.133755
v -0.107987 0.064182 0.044724
v -0.150559 0.031345 -0.026892
v 0.102429 0.039506 0.102429
v 0.02082 0.039506 -0.13157
v 0.082637 0.064182 0.082637
v 0.061078 0.064182 0.099666
v 0.08842 0.056021 0.08842
v -0.125466 0.016534 0.087456
v 0.125466 0.016534 0.087456
v 0.108212 0.016534 0.108212
v -0.012241 0.375581 0
v 0 0.064182 0.110397
v -0.018282 0.064182 0.115441
v -0.118718 -0.321693 -0.118718
v 0.039134 0.103251 0.094461
v 0.072291 0.103251 0.072291
v -0.020402 0.370408 0
v 0.115506 0.056021 0.047841
v 0.123506 0.056021 0.019567
v 0.13157 0.039506 0.020852
v 0.019567 0.056021 0.123506
v 0.047841 0.056021 -0.115506
v 0.137675 -0.321693 -0.095971
v 0.115506 0.056021 -0.047841
v 0.087456 0.016534 0.125466
v 0.014426 0.370408 0.014426
v 0.020402 0.370408 0
v -0.133209 0.039506 0
v 0 0.370408 0.020402
v -0.017286 0.064182 0.109047
v -0.044724 0.064182 0.107987
v 0 0.064182 0.116887
v -0.008643 0.375581 -0.008643
v -0.072291 0.072343 0.072291
v -0.072291 0.103251 0.072291
v 0.142526 0.039506 0.025447
v 0 -0.296632 0.133755
v 0.018282 0.064182 0.115441
v 0.044724 0.064182 0.107987
v 0.137675 -0.321693 0.095971
v 0.155121 -0.321693 0.064259
v -0.039134 0.103251 -0.094461
v 0 0.087797 -0.102236
v 0.044724 0.064182 -0.107987
v 0.072291 0.103251 -0.072291
v 0.065319 0.056021 0.106606
v -0.074637 0.126224 0.074637
v 0 0.064182 -0.110397
v -0.099666 0.064182 0.061078
v -0.026892 0.016534 -0.150559
v 0.118718 -0.321693 -0.118718
v 0 0.294021 0.0795205
v -0.115441 0.064182 -0.018282
v 0 0.023939 -0.153033
v -0.017286 0.064182 -0.109047
v -0.142526 0.039506 -0.025447
v 0.103264 0.008469 -0.103264
v 0.108212 0.016534 -0.108212
v 0 0.047667 -0.125048
v 0 0.039506 -0.133209
v 0 0.315017 -0.065865
v 0 0.32472 -0.053913
v 0 -0.204517 0.076115
v 0.03274 -0.245546 0.079071
v 0.105545 0.126224 0
v 0.097513 0.126224 0.040387
v 0.108212 0.031345 0.108212
v -0.061753 -0.079405 0
v -0.05703 -0.079405 0.023615
v 0.023615 -0.079405 0.05703
v -0.046588 0.315017 0.046588
v -0.125048 0.047667 0
v 0 0.039506 -0.14484
v 0.025447 0.039506 -0.142526
v 0.094557 -0.296632 0.094557
v 0.14137 0.016534 0.058572
v 0.018282 0.064182 -0.115441
v 0 -0.245546 -0.085593
v 0.03274 -0.245546 -0.079071
v -0.08042 0.039506 0.120357
v -0.102429 0.039506 0.102429
v -0.087456 0.031345 0.125466
v -0.079071 -0.245546 -0.03274
v 0.017254 0.064182 -0.109047
v 0.026282 -0.321693 -0.165852
v 0 -0.321693 -0.167909
v 0 -0.306914 -0.152487
v -0.115506 0.056021 -0.047841
v -0.133819 0.039506 -0.055423
v 0.040387 0.126224 0.097513
v 0.058572 0.031345 -0.14137
v -0.123506 0.056021 -0.019567
v -0.125048 0.056021 0
v 0 0.249312 -0.101305
v 0 0.2256 -0.109433
v -0.12357 -0.296632 0.051182
v 0 -0.402435 -0.20293
v 0 -0.440508 -0.204022
v 0.094461 0.103251 -0.039134
v -0.108212 0.031345 0.108212
v -0.087456 0.031345 -0.125466
v -0.08042 0.039506 -0.120357
v -0.060532 -0.245546 -0.060532
v -0.025222 0.315017 0.060853
v 0.095971 -0.321693 -0.137675
v 0.08042 0.039506 0.120357
v 0 -0.079405 -0.061753
v 0.026892 0.016534 0.150559
v 0 0.016534 0.153033
v 0 -0.377631 0.197404
v 0.123506 0.056021 -0.019567
v 0 0.114737 0.10389
v -0.068854 -0.037669 0.028531
v -0.065319 0.056021 -0.106606
v -0.125466 0.031345 0.087456
v 0.204022 -0.440508 0
v 0.200745 -0.440508 -0.035857
v 0 0.103251 -0.102236
v 0.074637 0.126224 0.074637
v 0 0.273024 -0.093176
v 0 0.126224 0.105545
v 0 0.150947 0.109594
v 0 0.126224 0.105545
v -0.03274 -0.245546 0.079071
v -0.051182 -0.296632 0.12357
v 0 0.334423 -0.041961
v -0.018282 0.064182 -0.115441
v 0 0.103251 -0.102236
v 0.078621 -0.296632 0.108212
v 0.144261 -0.440508 -0.144261
v 0.008643 0.375581 -0.008643
v -0.150559 0.016534 -0.026892
v -0.144229 0.008469 -0.022844
v 0 0.375581 0.012241
v 0.012241 0.375581 0
v 0.02866 -0.296632 0.130574
v 0 -0.288247 0.11769
v 0 -0.296632 0.133755
v 0.150559 0.031345 0.026892
v 0.150559 0.016534 0.026892
v 0.014426 0.36742 0.014426
v 0.020402 0.36742 0
v -0.047616 -0.440508 0.1984
v 0 -0.440508 0.204022
v -0.058572 0.016534 -0.14137
v 0 -0.121446 0.064195
v 0.008643 0.375581 0.008643
v 0.016065 0.334423 0.038748
v 0 0.334423 0.041961
v 0.103264 0.008469 0.103264
v 0.087456 0.016534 -0.125466
v -0.123506 0.056021 0.019567
v 0 0.056021 0.125048
v 0 -0.262061 -0.093015
v 0 -0.245546 -0.085593
v 0.052692 -0.037669 -0.052692
v 0 0.016534 -0.153033
v 0 0.375581 -0.012241
v -0.022844 0.008469 0.144229
v -0.085593 -0.245546 0
v 0 0.062222 0.122188
v 0 0.064182 0.116887
v -0.124502 0.008469 0.076308
v -0.134912 0.008469 0.055873
v 0.025222 0.315017 0.060853
v 0 0.315017 0.065865
v 0 -0.163488 0.066637
v 0.047841 0.056021 0.115506
v 0 -0.377631 -0.197404
v 0 0.334423 0.041961
v 0 0.32472 0.053913
v 0.144229 0.008469 0.022844
v 0.134912 0.008469 0.055873
v 0.12357 -0.296632 0.051182
v -0.103264 0.008469 -0.103264
v 0.028531 -0.037669 -0.068854
v 0 0.375581 -0.012241
v -0.200745 -0.440508 0.035857
v 0.078621 -0.296632 -0.108212
v 0 -0.204517 -0.076115
v 0 -0.245546 -0.085593
v -0.03274 -0.245546 -0.079071
v 0.052692 -0.037669 0.052692
v 0.028531 -0.037669 0.068854
v -0.204022 -0.440508 0
v 0 0.126224 0.105545
v 0.120357 0.039506 0.08042
v 0.125466 0.031345 0.087456
v 0.055873 0.008469 -0.134912
v 0.019567 0.056021 -0.123506
v 0 0.056021 -0.125048
v 0 -0.276519 -0.103875
v 0 -0.288247 -0.11769
v -0.02866 -0.296632 -0.130574
v 0.155121 -0.321693 -0.064259
v 0.068854 -0.037669 -0.028531
v -0.108212 0.031345 -0.108212
v 0.014426 0.370408 -0.014426
v -0.014426 0.370408 0.014426
v -0.008643 0.375581 0.008643
v 0 0.031345 0.153033
v 0.026892 0.031345 0.150559
v 0.02082 0.039506 0.13157
v 0.099666 0.064182 -0.061078
v 0.082637 0.064182 -0.082637
v 0.08842 0.056021 -0.08842
v 0.106606 0.056021 -0.065319
v 0 -0.006792 -0.105224
v -0.022844 0.008469 -0.144229
v 0.02866 -0.296632 -0.130574
v 0 -0.296632 -0.133755
v 0 0.200635 0.111538
v -0.108212 0.016534 -0.108212
v 0.146029 0.008469 0
v 0.040387 0.126224 -0.097513
v 0.064259 -0.321693 -0.155121
v 0.051182 -0.296632 -0.12357
v 0 0.103251 0.102236
v 0.074637 0.126224 -0.074637
v 0 0.370408 -0.020402
v -0.14137 0.031345 -0.058572
v 0 -0.057653 -0.065287
v -0.028531 -0.037669 -0.068854
v 0 -0.440508 -0.204022
v 0.047616 -0.440508 -0.1984
v 0.115441 0.064182 0.018282
v 0.102236 0.103251 0
v 0.102236 0.072343 0
v 0.109047 0.064182 0.017286
v -0.106606 0.056021 0.065319
v -0.115506 0.056021 0.047841
v -0.102236 0.103251 0
v 0.08042 0.039506 -0.120357
v 0.107987 0.064182 -0.044724
v 0.072291 0.072343 -0.072291
v 0.094461 0.072343 -0.039134
v -0.055873 0.008469 -0.134912
v 0 0.126224 -0.105545
v 0 -0.079405 0.061753
v 0 0.334423 -0.041961
v -0.016065 0.334423 -0.038748
v 0.14137 0.016534 -0.058572
v 0.150559 0.016534 -0.026892
v 0 0.072343 -0.102236
v 0.200745 -0.440508 0.035857
v -0.087456 0.016534 0.125466
v 0 0.012502 -0.149531
v 0 0.016534 -0.153033
v -0.019567 0.056021 0.123506
v 0 -0.121446 -0.064195
v -0.14484 0.039506 0
v -0.153001 0.031345 0
v 0 -0.245546 0.085593
v 0 -0.262061 0.093015
v 0.05703 -0.079405 0.023615
v 0 -0.276519 0.103875
v 0.153033 0.016534 0
v 0.153033 0.031345 0
v -0.094461 0.103251 0.039134
v -0.08842 0.056021 0.08842
v -0.082637 0.064182 0.082637
v 0.108212 0.031345 -0.108212
v 0.125466 0.016534 -0.087456
v 0.060532 -0.245546 -0.060532
v 0 0.175671 -0.113642
v -0.052692 -0.037669 -0.052692
v 0.039134 0.103251 -0.094461
v 0 0.103251 -0.102236
v 0 0.114737 -0.10389
v -0.060853 0.315017 0.025222
v 0.124502 0.008469 0.076308
v -0.14137 0.016534 -0.058572
v -0.134912 0.008469 -0.055873
v 0.058572 0.016534 0.14137
v 0.076308 0.008469 -0.124502
v 0.167909 -0.321693 0
v -0.150559 0.031345 0.026892
v -0.133755 -0.296632 0
v -0.144261 -0.440508 0.144261
v 0.124502 0.008469 -0.076308
v -0.105545 0.126224 0
v -0.097513 0.126224 -0.040387
v -0.078621 -0.296632 -0.108212
v -0.094557 -0.296632 -0.094557
v -0.108212 -0.296632 -0.078621
v -0.113256 -0.440508 0.169515
v -0.14137 0.031345 0.058572
v -0.130574 -0.296632 -0.02866
v -0.065865 0.315017 0
v 0.133755 -0.296632 0
v 0.130574 -0.296632 -0.02866
v -0.137675 -0.321693 -0.095971
v -0.029656 0.334423 0.029656
v -0.038748 0.334423 0.016065
v 0.058572 0.016534 -0.14137
v -0.078075 -0.440508 0.188504
v 0.133819 0.039506 0.055423
v 0.14137 0.031345 0.058572
v 0 0.047667 -0.125048
v 0 0.051844 -0.125048
v 0 0.041884 -0.127426
v 0 0.039506 -0.133209
v -0.146029 0.008469 0
v -0.026892 0.031345 0.150559
v -0.058572 0.016534 0.14137
v -0.026892 0.016534 0.150559
v 0 0.003039 -0.124791
v 0 0.008469 -0.146029
v 0 0.315017 0.065865
v 0 -0.037669 0.074508
v 0 0.087797 0.102236
v 0 0.072343 0.102236
v 0 0.066559 0.104614
v 0 0.064182 0.110397
v -0.165852 -0.321693 -0.026282
v -0.028531 -0.037669 0.068854
v -0.023615 -0.079405 0.05703
v -0.072291 0.103251 -0.072291
v 0.065319 0.056021 -0.106606
v 0 0.126224 -0.105545
v -0.064259 -0.321693 -0.155121
v -0.058572 0.031345 -0.14137
v -0.055423 0.039506 -0.133819
v -0.026892 0.031345 -0.150559
v 0.061078 0.064182 -0.099666
v 0.079071 -0.245546 0.03274
v 0.085593 -0.245546 0
v -0.094557 -0.296632 0.094557
v 0.05703 -0.079405 -0.023615
v -0.051182 -0.296632 -0.12357
v 0.078075 -0.440508 0.188504
v 0.047616 -0.440508 0.1984
v 0.099666 0.064182 0.061078
v 0.107987 0.064182 0.044724
v 0.106606 0.056021 0.065319
v -0.113256 -0.440508 -0.169515
v 0.134912 0.008469 -0.055873
v 0.165852 -0.321693 0.026282
v 0.130574 -0.296632 0.02866
v 0 -0.020576 -0.088195
v 0.029656 0.334423 0.029656
v -0.076308 0.008469 0.124502
v -0.055873 0.008469 0.134912
v 0.046588 0.315017 -0.046588
v 0 -0.079405 -0.061753
v -0.023615 -0.079405 -0.05703
v 0.060532 -0.245546 0.060532
v 0 0.315017 0.065865
v -0.029656 0.334423 -0.029656
v -0.124502 0.008469 -0.076308
v -0.025447 0.039506 -0.142526
v 0 -0.057653 0.065287
v 0.12357 -0.296632 -0.051182
v 0.125048 0.056021 0
v 0.144872 0.039506 0
v -0.020402 0.36742 0
v 0 0.349427 0.026186
v 0 0.370408 0.020402
v -0.120357 0.039506 0.08042
v 0.026892 0.031345 -0.150559
v 0.026892 0.016534 -0.150559
v 0.079071 -0.245546 -0.03274
v -0.058572 0.031345 0.14137
v -0.064259 -0.321693 0.155121
v 0 -0.402435 0.20293
v 0.065865 0.315017 0
v -0.142526 0.039506 0.025447
v -0.133819 0.039506 0.055423
v 0.041961 0.334423 0
v 0 0.056021 -0.125048
v 0 0.062222 -0.122188
v 0 0.056021 -0.125048
v 0 -0.037669 -0.074508
v -0.076308 0.008469 -0.124502
v -0.153001 0.016534 0
v 0.055423 0.039506 -0.133819
v 0 0.103251 0.102236
v 0 0.039506 0.133209
v 0 0.051844 0.125048
v 0.095971 -0.321693 0.137675
v 0.118718 -0.321693 0.118718
v 0.055423 0.039506 0.133819
v 0.058572 0.031345 0.14137
v 0 -0.306914 0.152487
v 0 -0.296632 0.133755
v -0.02866 -0.296632 0.130574
v 0.144229 0.008469 -0.022844
v 0 0.175671 0.113642
v 0.094557 -0.296632 -0.094557
v 0.108212 -0.296632 -0.078621
v 0 -0.245546 0.085593
v 0.025447 0.039506 0.142526
v 0 0.016534 -0.153033
v 0 0.064182 -0.116887
v 0.043664 -0.079405 0.043664
v 0.150559 0.031345 -0.026892
v -0.095971 -0.321693 0.137675
v -0.046588 0.315017 -0.046588
v -0.025222 0.315017 -0.060853
v 0.169515 -0.440508 -0.113256
v -0.130574 -0.296632 0.02866
v -0.165852 -0.321693 0.026282
v 0.068854 -0.037669 0.028531
v 0.061753 -0.079405 0
v -0.118718 -0.321693 0.118718
v -0.137675 -0.321693 0.095971
v 0.165852 -0.321693 -0.026282
v 0 0.003039 0.124791
v 0.022844 0.008469 0.144229
v 0 -0.006792 0.105224
v 0.055873 0.008469 0.134912
v 0 -0.020576 0.088195
v 0 -0.037669 0.074508
v -0.060532 -0.245546 0.060532
v 0.026282 -0.321693 0.165852
v 0 0.064182 -0.116887
v -0.087456 0.016534 -0.125466
v 0.022844 0.008469 -0.144229
v 0 0.008469 -0.146029
v -0.115441 0.064182 0.018282
v 0.016065 0.334423 -0.038748
v 0.142526 0.039506 -0.025447
v 0.133819 0.039506 -0.055423
v 0.14137 0.031345 -0.058572
v 0.116887 0.064182 0
v 0.110397 0.064182 0
v 0 -0.245546 0.085593
v 0.125466 0.031345 -0.087456
v 0.120357 0.039506 -0.08042
v -0.08842 0.056021 -0.08842
v 0 0.008469 -0.146029
v -0.082637 0.064182 -0.082637
v -0.061078 0.064182 -0.099666
v -0.200745 -0.440508 -0.035857
v -0.188504 -0.440508 -0.078075
v 0.169515 -0.440508 0.113256
v 0.188504 -0.440508 0.078075
v 0.043664 -0.079405 -0.043664
v 0 0.375581 0.012241
v 0.046588 0.315017 0.046588
v -0.039134 0.103251 0.094461
v 0 0.056021 0.125048
v -0.052692 -0.037669 0.052692
v -0.097513 0.126224 0.040387
v 0.060853 0.315017 0.025222
v -0.169515 -0.440508 0.113256
v 0.051182 -0.296632 0.12357
v -0.110397 0.064182 0
v -0.078075 -0.440508 -0.188504
v 0.188504 -0.440508 -0.078075
v -0.150559 0.016534 0.026892
v -0.108212 -0.296632 0.078621
v -0.125466 0.016534 -0.087456
v -0.061078 0.064182 0.099666
v 0 0.037097 -0.150623
v -0.047616 -0.440508 -0.1984
v -0.043664 -0.079405 -0.043664
v 0 0.370408 -0.020402
v 0 0.370408 -0.020402
v -0.041961 0.334423 0
v -0.040387 0.126224 -0.097513
v -0.074637 0.126224 -0.074637
v 0 -0.079405 0.061753
v 0.038748 0.334423 0.016065
v 0 -0.440508 0.204022
v -0.019567 0.056021 -0.123506
v -0.079071 -0.245546 0.03274
v -0.169515 -0.440508 -0.113256
v 0 0.294021 -0.0795205
v 0 0.315017 -0.065865
v -0.078621 -0.296632 0.108212
v 0 0.039506 -0.14484
v 0 0.031345 -0.153033
v 0.029656 0.334423 -0.029656
v 0 0.037097 0.150623
v 0 0.039506 0.14484
v -0.144261 -0.440508 -0.144261
v 0 0.031345 -0.153033
v 0.064259 -0.321693 0.155121
v 0.113256 -0.440508 0.169515
v 0.113256 -0.440508 -0.169515
v 0.078075 -0.440508 -0.188504
v 0.076308 0.008469 0.124502
v -0.103264 0.008469 0.103264
v -0.108212 0.016534 0.108212
v 0 0.334423 -0.041961
v -0.043664 -0.079405 0.043664
v 0 0.016534 0.153033
v 0 0.023939 0.153033
v -0.060853 0.315017 -0.025222
v 0 -0.345501 0.183749
v 0 0.008469 0.146029
v 0 0.2256 0.109433
v 0.115441 0.064182 -0.018282
v 0.109047 0.064182 -0.017286
v -0.038748 0.334423 -0.016065
v 0.074508 -0.037669 0
v 0 -0.037669 -0.074508
v 0.060853 0.315017 -0.025222
v 0.038748 0.334423 -0.016065
v -0.05703 -0.079405 -0.023615
v -0.026282 -0.321693 -0.165852
v 0 0.150947 -0.109594
v 0 0.126224 -0.105545
v 0 0.031345 0.153033
v 0 -0.163488 -0.066637
v 0 -0.079405 0.061753
v -0.099666 0.064182 -0.061078
v -0.116887 0.064182 0
v 0 0.056021 0.125048
v 0 -0.079405 -0.061753
v 0.023615 -0.079405 -0.05703
v -0.167909 -0.321693 0
v 0 0.016534 0.153033
v 0 0.047667 0.125048
v 0 0.039506 0.133209
v 0 0.041884 0.127426
v -0.074508 -0.037669 0
v 0.108212 -0.296632 0.078621
v 0.144261 -0.440508 0.144261
v 0 0.031345 -0.153033
v 0 -0.345501 -0.183749
v -0.106606 0.056021 -0.065319
v -0.144229 0.008469 0.022844
v 0 0.031345 0.153033
v -0.155121 -0.321693 -0.064259
v -0.12357 -0.296632 -0.051182
v 0 -0.296632 -0.133755
v -0.068854 -0.037669 -0.028531
v 0 0.066559 -0.104614
v 0 0.064182 -0.110397
v 0 -0.321693 -0.167909
v -0.155121 -0.321693 0.064259
v 0 0.039506 0.14484
v 0 0.315017 -0.065865
v 0 0.370408 0.020402
v 0 0.200635 -0.111538
v 0.097513 0.126224 -0.040387
v 0 -0.321693 0.167909
v -0.188504 -0.440508 0.078075
v 0 -0.037669 -0.074508
v 0 -0.321693 0.167909
v -0.026282 -0.321693 0.165852
v 0 0.273024 0.093176
v 0 0.008469 0.146029
v -0.016065 0.334423 0.038748
v 0 -0.037669 0.074508
v 0 0.249312 0.101305
v 0 0.334423 0.041961
v 0 -0.321693 -0.167909
v 0 0.012502 0.149531
v 0 0.008469 0.146029
v 0 0.047667 0.125048
v 0 0.103251 0.102236
v 0 -0.321693 0.167909
f 167 707 168
f 4 5 6
f 7 8 9
f 707 167 220
f 15 16 17
f 18 19 20
f 21 22 23
f 24 886 25
f 482 806 641
f 35 36 37
f 38 39 40
f 41 42 160
f 43 44 45
f 15 117 16
f 51 647 52
f 53 54 55
f 763 540 59
f 62 660 64
f 66 67 68
f 285 887 602
f 812 384 192
f 142 486 854
f 85 86 87
f 867 60 490
f 794 641 806
f 74 329 805
f 641 157 482
f 813 871 791
f 584 758 666
f 103 104 105
f 355 68 356
f 379 13 558
f 116 117 118
f 38 119 39
f 123 506 124
f 125 126 127
f 129 130 131
f 132 133 888
f 100 134 135
f 136 137 138
f 5 139 6
f 172 862 254
f 72 376 628
f 364 1 152
f 149 150 151
f 889 161 162
f 847 1 364
f 123 124 890
f 166 167 168
f 169 170 171
f 116 118 16
f 173 174 175
f 15 177 178
f 125 891 179
f 261 1 847
f 152 1 261
f 15 178 117
f 18 169 19
f 130 177 131
f 892 181 182
f 893 185 174
f 845 894 340
f 191 192 895
f 896 193 643
f 195 196 197
f 198 197 199
f 200 897 196
f 201 202 203
f 204 199 17
f 620 205 206
f 894 845 898
f 214 24 215
f 216 217 218
f 619 410 411
f 222 899 900
f 21 23 901
f 21 225 22
f 165 81 682
f 817 49 187
f 232 217 216
f 234 235 236
f 617 26 618
f 240 22 225
f 225 901 240
f 240 901 241
f 242 243 244
f 218 246 247
f 216 218 241
f 217 246 218
f 232 216 901
f 755 26 617
f 902 903 904
f 255 256 257
f 183 258 259
f 905 233 262
f 647 263 52
f 906 264 122
f 265 266 267
f 268 269 270
f 26 221 618
f 273 95 274
f 229 221 26
f 277 229 26
f 89 907 777
f 439 438 250
f 646 250 438
f 285 908 167
f 533 874 219
f 909 290 910
f 292 293 294
f 295 296 297
f 7 300 8
f 810 219 629
f 874 593 378
f 873 598 77
f 823 911 675
f 155 540 156
f 310 311 312
f 313 912 235
f 29 31 30
f 305 787 801
f 851 613 567
f 165 682 481
f 323 324 210
f 325 913 326
f 103 327 104
f 100 135 223
f 696 620 206
f 331 332 333
f 334 335 336
f 21 901 225
f 340 341 342
f 345 744 346
f 347 329 330
f 351 914 85
f 352 341 340
f 355 356 351
f 915 357 358
f 360 361 362
f 67 351 85
f 7 9 363
f 364 153 365
f 916 917 918
f 366 367 337
f 872 696 704
f 872 642 696
f 135 372 223
f 741 687 784
f 518 687 741
f 919 375 376
f 920 921 32
f 871 750 273
f 380 922 61
f 381 308 144
f 46 851 714
f 871 273 530
f 384 488 192
f 385 923 924
f 386 387 925
f 926 927 388
f 8 389 390
f 391 176 83
f 12 280 653
f 51 928 395
f 396 397 297
f 66 68 355
f 398 399 255
f 66 355 67
f 400 401 402
f 403 404 405
f 894 365 341
f 925 121 42
f 406 407 929
f 564 12 148
f 696 206 754
f 412 413 414
f 10 801 11
f 355 351 67
f 418 930 401
f 419 86 402
f 400 422 423
f 905 262 927
f 400 931 425
f 300 426 389
f 931 418 425
f 743 63 692
f 412 414 431
f 433 434 435
f 436 434 437
f 436 437 932
f 437 434 433
f 438 439 315
f 434 440 441
f 444 445 446
f 447 209 448
f 449 450 451
f 291 81 165
f 915 452 450
f 915 450 454
f 53 454 453
f 455 933 456
f 934 743 692
f 667 724 726
f 9 8 390
f 462 935 463
f 297 296 396
f 112 314 56
f 466 259 258
f 2 328 407
f 921 936 32
f 446 445 466
f 446 466 430
f 445 259 466
f 469 346 470
f 289 471 44
f 472 473 503
f 9 390 363
f 2 525 328
f 477 426 183
f 478 184 426
f 682 480 481
f 421 473 306
f 166 168 937
f 938 461 483
f 484 166 937
f 2 407 406
f 2 406 525
f 53 453 54
f 60 489 490
f 658 492 493
f 939 297 494
f 940 770 937
f 924 941 942
f 498 414 943
f 223 372 224
f 417 416 499
f 380 944 922
f 380 505 944
f 945 946 313
f 214 886 24
f 507 947 508
f 509 948 510
f 3 632 814
f 387 121 925
f 3 683 318
f 949 950 515
f 3 474 683
f 636 474 3
f 331 375 919
f 951 952 343
f 364 152 153
f 297 397 494
f 559 683 474
f 881 683 559
f 527 528 529
f 953 954 40
f 260 98 676
f 955 531 37
f 354 533 353
f 35 324 956
f 917 957 918
f 534 535 536
f 537 538 539
f 59 540 958
f 959 516 541
f 732 543 544
f 553 98 97
f 298 185 299
f 388 550 926
f 960 235 912
f 676 98 553
f 788 164 804
f 551 56 314
f 253 961 442
f 358 357 556
f 97 788 553
f 560 561 442
f 804 553 788
f 691 566 962
f 212 213 963
f 299 185 893
f 572 573 574
f 126 964 127
f 576 311 965
f 38 40 966
f 179 171 126
f 743 148 524
f 580 36 956
f 31 29 967
f 581 452 358
f 524 63 743
f 12 653 748
f 968 969 586
f 970 587 581
f 357 915 971
f 907 972 973
f 80 974 975
f 354 592 593
f 594 595 79
f 13 379 70
f 262 233 976
f 598 106 77
f 94 558 13
f 714 851 567
f 951 343 603
f 117 178 118
f 102 577 684
f 612 588 527
f 977 614 615
f 270 269 978
f 562 979 980
f 684 280 102
f 102 280 756
f 383 279 88
f 626 627 628
f 115 629 840
f 736 754 669
f 596 523 669
f 476 660 62
f 149 635 981
f 674 637 638
f 669 523 736
f 982 767 662
f 296 295 983
f 984 985 644
f 438 645 646
f 338 690 339
f 986 128 603
f 483 806 482
f 674 111 637
f 651 40 19
f 987 652 268
f 700 722 779
f 471 237 44
f 531 955 988
f 989 990 532
f 779 722 790
f 474 762 660
f 513 307 101
f 991 992 993
f 647 51 395
f 664 307 665
f 854 584 666
f 227 674 994
f 209 210 995
f 996 997 998
f 588 104 327
f 999 1000 397
f 1001 615 114
f 630 1002 624
f 286 755 143
f 468 1003 1004
f 465 172 464
f 801 756 11
f 396 999 397
f 1003 182 181
f 498 431 414
f 690 286 688
f 468 182 1003
f 141 1005 1006
f 1005 141 583
f 622 147 443
f 113 811 540
f 694 695 244
f 219 840 629
f 300 363 426
f 863 427 848
f 427 751 848
f 358 452 915
f 452 581 702
f 551 57 56
f 531 988 516
f 995 37 531
f 688 339 690
f 210 37 995
f 1007 703 265
f 370 705 534
f 706 1008 1009
f 580 956 1010
f 966 40 954
f 1011 993 992
f 1012 904 1013
f 704 94 13
f 352 894 341
f 341 365 342
f 75 1014 71
f 982 1015 715
f 346 1016 470
f 462 463 716
f 133 1017 888
f 84 420 1018
f 419 402 87
f 1019 1020 721
f 479 248 392
f 601 838 248
f 383 248 838
f 129 178 130
f 727 728 1021
f 926 550 729
f 383 392 248
f 462 716 1022
f 764 163 740
f 821 431 498
f 1023 497 890
f 738 568 1024
f 651 953 40
f 1025 107 643
f 145 12 564
f 270 978 105
f 689 1026 992
f 251 743 934
f 680 625 275
f 1027 654 1028
f 95 273 750
f 1029 173 782
f 256 753 257
f 920 224 372
f 14 782 173
f 782 14 319
f 365 153 342
f 1030 388 927
f 14 173 175
f 319 14 175
f 1005 583 1031
f 1032 763 59
f 815 542 281
f 715 767 982
f 504 174 185
f 113 518 741
f 154 377 569
f 1001 1033 1034
f 623 542 815
f 381 144 977
f 658 493 1035
f 906 348 264
f 658 776 1036
f 1037 777 973
f 183 259 184
f 119 1038 39
f 1039 954 953
f 1040 778 128
f 907 973 777
f 374 63 1041
f 978 103 105
f 507 508 783
f 69 563 682
f 380 1042 505
f 555 563 69
f 789 1043 1044
f 791 792 793
f 380 61 1045
f 380 1046 1042
f 1047 1048 1049
f 509 510 797
f 960 798 236
f 234 236 798
f 1050 987 1051
f 384 812 488
f 1052 602 1053
f 863 34 526
f 1054 804 1055
f 321 540 155
f 1056 961 253
f 1057 229 142
f 380 1058 1046
f 239 287 713
f 1059 158 1060
f 920 32 224
f 1061 304 670
f 202 28 203
f 295 28 983
f 969 968 1062
f 28 673 1063
f 47 663 349
f 295 673 28
f 1023 890 245
f 819 820 1064
f 1065 432 1066
f 203 28 1063
f 827 1067 686
f 190 573 189
f 828 829 1068
f 885 1069 461
f 194 78 1070
f 994 674 1071
f 820 25 886
f 985 624 644
f 809 741 784
f 502 749 717
f 67 85 68
f 69 682 81
f 846 1072 1073
f 485 1074 1075
f 950 342 48
f 1076 536 1077
f 153 950 48
f 153 48 342
f 545 778 1040
f 334 359 335
f 974 283 1078
f 273 274 735
f 433 435 932
f 917 413 1079
f 27 73 609
f 860 861 495
f 74 27 330
f 706 1080 1008
f 667 866 480
f 1081 715 1082
f 768 843 73
f 74 73 27
f 22 899 23
f 1083 1084 670
f 769 1085 344
f 805 164 74
f 73 164 768
f 101 664 1083
f 836 1086 837
f 147 622 722
f 601 248 799
f 434 441 435
f 97 98 656
f 1067 883 1087
f 129 131 368
f 1088 885 489
f 306 976 233
f 282 655 1089
f 114 614 864
f 463 935 424
f 699 1090 76
f 92 230 775
f 310 312 464
f 92 775 282
f 1091 1092 1093
f 1094 304 1095
f 140 154 1096
f 655 1096 1089
f 472 306 473
f 930 418 931
f 198 199 897
f 321 155 571
f 1097 550 388
f 1098 133 1099
f 325 549 913
f 682 563 667
f 88 551 302
f 72 628 627
f 919 376 72
f 1100 828 578
f 696 642 621
f 620 696 621
f 200 198 897
f 849 1101 1102
f 691 692 374
f 859 252 850
f 1103 1104 1105
f 310 711 311
f 1106 634 773
f 1107 307 513
f 273 735 64
f 273 64 660
f 904 1012 1108
f 938 1109 461
f 1110 1111 60
f 661 12 145
f 754 206 669
f 683 881 880
f 879 1112 1113
f 1114 440 434
f 681 625 701
f 377 140 50
f 639 377 50
f 465 464 312
f 1115 875 822
f 1116 424 1117
f 424 1118 1117
f 50 775 230
f 140 775 50
f 82 97 656
f 1119 573 1120
f 874 533 354
f 1121 998 1122
f 239 606 579
f 276 842 832
f 670 101 1083
f 92 282 228
f 865 78 194
f 812 393 488
f 114 864 1123
f 444 446 514
f 109 530 762
f 1086 836 1124
f 883 176 1087
f 1125 134 100
f 655 140 1096
f 212 683 880
f 858 857 856
f 691 593 566
f 855 853 852
f 284 1126 792
f 1127 1128 1016
f 1128 470 1016
f 71 1103 1105
f 1065 71 432
f 1129 1023 245
f 412 1079 413
f 284 1130 1126
f 849 1102 877
f 609 843 428
f 577 787 679
f 220 1131 707
f 619 698 410
f 326 913 1132
f 863 848 34
f 898 845 844
f 244 695 242
f 619 33 698
f 680 609 428
f 356 68 441
f 120 1133 1134
f 41 160 925
f 1135 1136 730
f 817 542 746
f 1137 839 835
f 1138 834 1139
f 261 834 1138
f 858 898 1140
f 835 833 898
f 835 839 833
f 833 1140 898
f 1139 834 847
f 847 834 261
f 255 399 256
f 1141 1142 826
f 58 328 525
f 58 716 328
f 1143 824 313
f 71 1065 1103
f 58 1022 716
f 58 525 1022
f 668 609 275
f 1144 909 910
f 1115 822 818
f 1115 818 1145
f 818 822 1146
f 822 875 1146
f 936 816 32
f 580 1010 1147
f 580 1147 36
f 1148 573 572
f 1126 1149 793
f 668 275 681
f 681 275 625
f 1057 1150 65
f 330 760 557
f 409 162 161
f 588 528 527
f 1151 1152 812
f 1153 1154 186
f 966 954 1155
f 593 691 378
f 548 654 1156
f 303 865 1157
f 1119 1120 807
f 560 1158 561
f 560 1159 1158
f 1091 732 747
f 1160 23 900
f 137 991 803
f 302 1161 392
f 1162 29 1163
f 1162 967 29
f 315 1164 1165
f 800 150 1166
f 1165 438 315
f 1167 438 1165
f 1120 573 1148
f 832 785 720
f 33 282 1089
f 37 210 324
f 748 148 12
f 1168 334 336
f 336 1169 1168
f 1170 124 506
f 1171 1172 399
f 945 313 235
f 236 235 960
f 398 1171 399
f 432 71 1014
f 661 280 12
f 981 150 149
f 404 226 405
f 4 1173 1174
f 208 1175 853
f 692 691 962
f 841 141 1176
f 599 562 1177
f 86 85 914
f 465 862 172
f 614 144 870
f 374 378 691
f 1178 1179 1180
f 1181 764 46
f 1061 670 1182
f 1043 1183 1184
f 1180 503 1178
f 816 936 1185
f 1186 1062 968
f 661 1187 771
f 1162 1188 752
f 412 431 1079
f 663 301 349
f 709 279 383
f 516 988 541
f 486 584 854
f 110 830 1189
f 870 814 614
f 1114 774 697
f 1106 773 252
f 68 435 441
f 917 1079 957
f 1190 585 410
f 586 1153 1191
f 986 1040 128
f 159 770 158
f 769 852 677
f 1192 522 1193
f 843 768 815
f 75 1194 1195
f 1196 227 75
f 1014 75 227
f 1197 649 585
f 75 71 1194
f 1173 4 6
f 1198 1026 689
f 1199 227 616
f 1200 764 1181
f 855 1201 1202
f 446 430 514
f 113 321 851
f 811 958 540
f 230 92 772
f 409 639 1203
f 1204 393 1205
f 619 282 33
f 116 16 117
f 761 789 1044
f 1206 139 5
f 678 1207 242
f 158 602 1052
f 808 409 547
f 508 1208 1209
f 302 551 314
f 759 54 197
f 54 759 55
f 1210 757 1211
f 759 1212 1213
f 1212 759 757
f 1210 1212 757
f 790 722 1214
f 1215 1216 1217
f 866 1218 1219
f 461 1109 885
f 1015 1220 1082
f 159 484 770
f 759 197 196
f 770 940 158
f 708 219 874
f 354 593 874
f 740 687 764
f 208 699 990
f 345 346 469
f 1221 635 149
f 362 385 949
f 362 1222 1223
f 1224 404 1225
f 362 923 385
f 1194 71 500
f 792 871 530
f 230 1226 50
f 621 642 1136
f 1227 568 1228
f 1087 176 391
f 651 1229 953
f 50 1226 211
f 639 50 211
f 1117 1230 459
f 742 127 964
f 1231 503 1180
f 692 962 934
f 1116 1117 459
f 1232 160 739
f 996 998 1121
f 1127 996 1121
f 1127 1121 1128
f 898 844 835
f 1233 1234 1235
f 1236 394 875
f 737 618 221
f 1237 1238 279
f 805 796 745
f 658 1239 776
f 883 827 1240
f 739 42 1241
f 197 198 200
f 375 331 333
f 543 732 1093
f 1242 731 1243
f 1244 929 1245
f 419 87 86
f 1244 1246 929
f 421 306 233
f 1247 96 785
f 657 860 495
f 718 860 657
f 474 476 559
f 848 751 231
f 1248 307 81
f 1019 721 733
f 330 329 74
f 693 740 369
f 1249 1250 952
f 923 941 924
f 403 1225 404
f 140 655 775
f 814 864 614
f 830 831 1189
f 63 374 692
f 216 241 901
f 269 268 652
f 126 171 288
f 858 856 818
f 573 1119 1251
f 131 1000 368
f 713 889 606
f 501 301 408
f 609 73 843
f 157 641 1110
f 371 602 1252
f 775 655 282
f 303 78 865
f 1253 491 1254
f 993 803 991
f 1252 602 1059
f 231 97 82
f 907 89 1255
f 222 23 899
f 712 932 710
f 143 420 84
f 1256 1257 1133
f 709 1258 1237
f 1134 599 1177
f 379 91 70
f 316 70 91
f 504 175 174
f 872 70 316
f 80 975 1258
f 630 1144 1002
f 80 283 974
f 567 1259 714
f 393 812 1260
f 812 1152 1260
f 614 977 144
f 428 458 680
f 700 779 1261
f 475 126 288
f 1262 1235 1234
f 526 780 863
f 491 594 79
f 491 322 594
f 491 79 1254
f 1227 1228 1263
f 1264 208 855
f 662 663 47
f 232 901 246
f 90 511 512
f 699 77 106
f 511 90 1265
f 390 1265 90
f 1015 1082 715
f 512 1266 90
f 1267 393 647
f 218 247 241
f 916 918 1244
f 52 1268 1269
f 427 723 746
f 808 546 569
f 1011 992 1026
f 1270 246 1141
f 246 1270 247
f 425 401 400
f 1271 1206 1272
f 1273 279 1238
f 872 13 70
f 316 730 642
f 882 301 663
f 832 842 781
f 786 317 93
f 765 731 93
f 765 93 317
f 1242 93 731
f 333 332 1274
f 207 607 742
f 1275 640 520
f 582 1021 1276
f 685 448 209
f 685 995 448
f 685 209 995
f 1277 605 370
f 786 868 317
f 842 49 817
f 530 284 792
f 1278 826 1142
f 752 1188 1279
f 1280 602 371
f 690 584 486
f 1281 1211 196
f 633 1282 1283
f 968 586 1191
f 1087 391 1284
f 237 471 501
f 156 540 763
f 345 634 744
f 634 1106 744
f 231 788 97
f 670 304 1094
f 826 1270 1141
f 144 308 109
f 1056 253 1285
f 109 188 144
f 428 843 815
f 383 302 392
f 549 325 1286
f 449 451 454
f 734 706 1009
f 1287 454 451
f 1287 453 454
f 689 1279 1198
f 302 314 725
f 947 1208 508
f 111 674 227
f 240 899 22
f 722 622 1214
f 485 491 1253
f 950 153 515
f 153 1288 1222
f 515 1222 362
f 515 153 1222
f 949 515 362
f 1080 706 239
f 287 239 706
f 1240 827 686
f 918 1246 1244
f 467 1289 180
f 180 460 467
f 1290 1160 460
f 654 548 701
f 1291 317 868
f 494 1278 673
f 1291 868 1292
f 26 755 277
f 1293 1294 1017
f 1295 1296 1297
f 359 672 335
f 186 1154 1298
f 757 759 196
f 1085 769 250
f 845 340 844
f 560 961 1159
f 671 670 1094
f 265 703 266
f 248 271 799
f 1182 670 1084
f 114 1123 1299
f 768 623 815
f 491 717 322
f 491 502 717
f 138 137 803
f 1075 622 485
f 958 811 809
f 321 571 570
f 284 308 1130
f 609 668 27
f 109 308 284
f 284 530 109
f 622 443 485
f 756 146 102
f 695 678 242
f 1300 208 1301
f 756 280 661
f 207 742 802
f 1035 493 1302
f 596 669 521
f 1113 1293 1303
f 1293 1113 1294
f 796 329 347
f 74 164 73
f 1236 955 37
f 1146 875 394
f 819 1072 25
f 317 1291 766
f 1153 186 1191
f 1304 537 1272
f 849 877 1305
f 35 956 36
f 601 799 1306
f 528 588 327
f 1234 1233 1013
f 658 1035 659
f 1146 394 37
f 180 309 460
f 239 713 606
f 507 783 1307
f 809 811 741
f 741 811 113
f 132 1099 133
f 640 1308 869
f 49 558 187
f 619 228 282
f 784 687 740
f 1250 343 952
f 1197 585 1190
f 19 169 1229
f 517 194 1070
f 720 785 96
f 1067 827 883
f 650 1309 1310
f 699 76 77
f 240 241 899
f 81 307 1107
f 81 1107 69
f 667 726 1218
f 1041 63 1311
f 1312 1189 1313
f 649 869 585
f 831 1313 1189
f 648 1314 1166
f 1315 1240 648
f 842 723 781
f 411 869 1316
f 411 1316 1317
f 232 246 217
f 1172 1171 215
f 1171 214 215
f 851 321 613
f 871 792 791
f 1308 640 1275
f 145 1318 1187
f 400 402 422
f 736 611 278
f 99 278 611
f 762 636 188
f 109 762 188
f 351 356 914
f 1319 320 1320
f 1321 320 1319
f 1320 320 1322
f 1323 1324 1095
f 1323 320 1321
f 1095 320 1323
f 1316 869 1308
f 738 1024 980
f 756 661 771
f 756 771 11
f 1030 927 262
f 544 688 732
f 870 188 636
f 584 690 1325
f 728 727 1326
f 456 1101 849
f 808 547 546
f 75 1195 1196
f 633 193 1327
f 1215 1274 1216
f 10 868 801
f 1056 1285 1328
f 30 903 902
f 163 369 740
f 1329 1330 829
f 299 506 298
f 824 912 313
f 824 1331 912
f 94 99 458
f 1332 602 795
f 537 1271 1272
f 1329 829 828
f 1019 733 1185
f 1333 1307 1334
f 1334 1307 1335
f 409 1203 162
f 1137 1336 1337
f 462 1022 935
f 974 1338 975
f 140 377 154
f 700 573 190
f 938 483 482
f 458 558 94
f 7 363 300
f 458 428 281
f 458 187 558
f 768 788 623
f 485 884 1074
f 290 909 1339
f 1340 1339 909
f 850 1250 1249
f 819 1064 1072
f 841 719 369
f 107 1025 1341
f 1342 807 1120
f 1343 107 1341
f 600 1344 20
f 15 17 177
f 780 1345 1346
f 701 611 523
f 1347 249 1348
f 392 1349 479
f 641 1350 1111
f 872 704 13
f 624 985 630
f 370 1076 1351
f 704 754 278
f 332 1216 1274
f 946 610 1352
f 662 47 982
f 1318 564 251
f 710 932 1353
f 485 443 1354
f 161 718 547
f 547 409 161
f 853 855 208
f 859 850 1249
f 867 1110 60
f 709 283 1258
f 1192 1355 608
f 81 291 1248
f 99 625 680
f 125 179 126
f 91 379 276
f 370 1356 1277
f 523 1028 654
f 536 1076 534
f 727 1021 582
f 82 656 1357
f 411 228 619
f 466 258 430
f 161 713 718
f 411 410 869
f 869 410 585
f 279 709 1237
f 760 330 27
f 597 755 617
f 1143 179 565
f 438 1358 645
f 583 369 650
f 565 891 1359
f 808 569 377
f 1247 1360 96
f 1311 524 1361
f 649 678 640
f 377 639 808
f 591 1362 789
f 477 183 184
f 1239 272 1363
f 326 1132 1364
f 638 272 674
f 610 1365 942
f 590 798 1365
f 610 590 1365
f 1262 1366 589
f 474 636 762
f 1367 1135 730
f 254 862 1364
f 1185 733 816
f 891 565 179
f 819 25 820
f 71 1105 500
f 143 755 1368
f 227 1199 111
f 699 106 532
f 699 532 990
f 1063 673 1278
f 812 192 1369
f 305 868 786
f 1370 490 885
f 1328 1285 1086
f 231 82 848
f 739 160 42
f 757 196 1211
f 1371 1205 393
f 719 1372 1373
f 1134 1257 599
f 1257 1134 1133
f 286 690 277
f 713 161 889
f 718 713 287
f 450 449 454
f 879 878 1112
f 221 229 1057
f 1090 208 1300
f 476 474 660
f 658 416 492
f 1374 1263 1228
f 1162 1163 1188
f 147 722 575
f 370 1375 705
f 63 524 1311
f 855 1202 1264
f 804 164 805
f 730 631 1367
f 486 229 277
f 690 486 277
f 1376 1243 1276
f 1161 302 725
f 787 305 679
f 633 1283 1377
f 674 1378 1071
f 437 433 932
f 605 1375 370
f 656 98 260
f 693 784 740
f 487 1346 1379
f 591 789 761
f 650 1310 1380
f 1381 1380 1310
f 1382 266 293
f 677 250 769
f 1337 839 1137
f 511 1265 930
f 496 511 930
f 667 1218 866
f 537 539 1271
f 773 850 252
f 1297 292 294
f 305 801 868
f 101 670 671
f 1136 642 730
f 1054 553 804
f 1184 1044 1043
f 91 96 631
f 720 96 91
f 276 720 91
f 254 1364 1132
f 234 590 610
f 80 1258 283
f 1363 272 638
f 1383 1366 1262
f 852 769 855
f 1201 855 769
f 425 418 401
f 769 344 1201
f 546 547 554
f 250 677 439
f 551 88 57
f 624 1384 644
f 1304 538 537
f 1190 410 698
f 1385 89 777
f 423 422 1266
f 369 719 693
f 1332 908 602
f 1386 1387 136
f 840 219 708
f 163 764 1200
f 1388 785 1379
f 360 362 1223
f 1359 607 565
f 560 442 961
f 589 1389 1235
f 1262 589 1235
f 485 1354 502
f 89 1385 1255
f 509 1390 545
f 286 277 755
f 939 494 673
f 93 1242 1391
f 1392 1393 708
f 841 369 583
f 304 1061 1394
f 805 329 796
f 201 396 296
f 485 1253 884
f 94 278 99
f 1395 1396 122
f 589 1366 1389
f 395 928 895
f 650 369 163
f 1028 523 596
f 1309 163 350
f 930 931 496
f 41 925 42
f 1232 739 1241
f 136 138 1386
f 709 838 283
f 838 601 373
f 1390 778 545
f 1397 908 1332
f 575 700 190
f 722 700 575
f 738 1398 568
f 321 570 613
f 1368 420 143
f 1002 1144 910
f 1344 415 39
f 491 485 502
f 1271 139 1206
f 1322 320 1394
f 697 440 1114
f 94 704 278
f 935 1118 424
f 583 141 841
f 90 363 390
f 90 1266 363
f 555 724 563
f 339 688 544
f 1382 293 292
f 1399 1400 429
f 547 718 657
f 370 534 1076
f 631 316 91
f 785 1388 1247
f 189 573 1251
f 1367 631 1360
f 402 401 87
f 352 340 894
f 1329 828 1100
f 519 517 1070
f 876 1312 1313
f 1378 272 659
f 647 1268 263
f 554 547 657
f 564 743 251
f 659 272 658
f 1401 301 501
f 868 10 1292
f 1377 643 193
f 520 694 1402
f 409 808 639
f 738 980 1398
f 1362 591 348
f 1320 1403 1319
f 512 511 496
f 970 581 358
f 195 200 196
f 134 1298 1154
f 134 1125 1298
f 114 615 614
f 1063 1278 1142
f 682 667 480
f 478 426 477
f 1351 1356 370
f 864 1404 1123
f 864 814 632
f 800 151 150
f 800 1314 151
f 1314 800 1166
f 1229 169 171
f 1337 1405 1406
f 608 784 693
f 1286 626 549
f 1286 627 626
f 1178 503 473
f 1260 1407 393
f 45 44 237
f 1408 648 686
f 709 383 838
f 195 197 200
f 611 625 99
f 781 487 832
f 143 747 286
f 1409 724 555
f 605 1277 1410
f 1410 604 605
f 1358 438 1047
f 795 602 1411
f 669 206 521
f 979 562 1412
f 809 1355 958
f 540 321 113
f 541 1038 959
f 650 1380 1031
f 542 817 281
f 650 1031 583
f 1279 1188 1198
f 1232 1241 823
f 823 1413 1232
f 876 703 1007
f 841 1414 1415
f 1273 88 279
f 611 701 625
f 1048 438 1167
f 648 1166 1315
f 237 408 45
f 608 522 1192
f 632 825 864
f 1215 429 1416
f 263 1268 52
f 747 143 1417
f 824 1143 565
f 1372 719 841
f 841 1176 1414
f 299 1170 506
f 636 814 870
f 1360 631 96
f 1378 674 272
f 699 208 1090
f 228 411 1317
f 229 486 142
f 316 631 730
f 1392 378 374
f 708 378 1392
f 648 1240 686
f 1418 981 635
f 611 736 523
f 403 405 1225
f 1287 514 430
f 557 249 1347
f 1344 600 40
f 1377 193 633
f 573 700 574
f 249 548 1348
f 271 248 479
f 1343 1341 1419
f 201 296 202
f 658 272 1239
f 450 452 451
f 468 1420 182
f 320 304 1394
f 207 802 1331
f 383 88 302
f 1047 438 1048
f 1290 1421 1160
f 467 1160 900
f 467 460 1160
f 1230 933 459
f 1109 1370 885
f 1333 507 1307
f 1255 108 1410
f 1422 1423 1161
f 114 1033 1001
f 667 563 724
f 530 660 762
f 1424 1226 230
f 841 1415 1372
f 1301 208 1264
f 931 512 496
f 523 654 701
f 1147 1010 1138
f 651 19 1229
f 863 781 723
f 1400 1416 429
f 429 1215 1217
f 517 1425 194
f 1399 429 1217
f 1325 690 338
f 159 158 1052
f 145 1187 661
f 222 900 23
f 201 203 396
f 712 710 1426
f 932 712 436
f 518 764 687
f 1024 562 980
f 1053 602 887
f 864 825 1404
f 1427 436 1428
f 427 863 723
f 436 712 1428
f 457 728 1326
f 648 1408 1314
f 212 318 683
f 415 40 39
f 1309 650 163
f 146 787 577
f 788 768 164
f 562 1024 1429
f 681 701 548
f 646 1430 250
f 530 273 660
f 305 1431 679
f 649 1197 1207
f 167 908 220
f 965 711 1432
f 675 1413 823
f 1062 1186 578
f 458 99 680
f 1080 239 1433
f 181 1419 1434
f 1184 1183 837
f 1098 1209 1208
f 1214 622 1435
f 138 1436 1386
f 711 965 311
f 428 815 281
f 171 179 1143
f 281 187 458
f 163 1200 350
f 832 720 276
f 119 959 1038
f 386 1437 1438
f 1439 1105 1104
f 1429 1440 562
f 1441 1442 966
f 37 394 1236
f 408 301 882
f 1027 1156 654
f 1348 548 1156
f 658 1036 499
f 579 1443 1433
f 533 219 810
f 772 92 1444
f 584 1325 758
f 275 609 680
f 577 102 146
f 488 393 1267
f 879 1445 878
f 697 467 900
f 879 1303 1445
f 879 1113 1303
f 604 108 1385
f 1444 228 1317
f 1193 719 1373
f 751 542 623
f 753 1420 1004
f 633 1327 1282
f 607 824 565
f 753 1004 257
f 1435 622 1075
f 488 395 895
f 846 25 1072
f 665 307 1248
f 130 178 177
f 1138 1139 1147
f 1145 1406 1405
f 818 856 382
f 1145 818 382
f 1406 1145 382
f 754 704 696
f 245 890 124
f 444 259 445
f 148 748 1361
f 1395 122 264
f 1344 40 415
f 735 1446 64
f 643 107 896
f 657 495 554
f 317 766 765
f 1410 108 604
f 487 780 1346
f 143 84 1417
f 389 426 184
f 478 477 184
f 1174 672 359
f 379 558 49
f 863 780 781
f 817 187 281
f 1447 51 52
f 1055 804 805
f 639 211 1203
f 1177 562 1440
f 524 148 1361
f 128 951 603
f 468 1004 1420
f 141 1006 1448
f 1371 393 1407
f 378 708 874
f 1449 308 381
f 746 723 842
f 552 1295 1297
f 1176 141 1448
f 846 1073 25
f 746 542 751
f 610 946 945
f 590 234 798
f 832 487 785
f 330 557 347
f 1392 374 1041
f 557 760 249
f 337 373 366
f 129 368 178
f 170 169 475
f 18 20 169
f 92 228 1444
f 870 144 188
f 1412 562 599
f 593 592 566
f 999 368 1000
f 552 1297 294
f 170 475 171
f 736 278 754
f 1130 308 1449
f 459 933 455
f 318 212 963
f 552 1450 1295
f 380 1045 1058
f 814 636 3
f 1390 509 797
f 937 770 484
f 285 602 908
f 1339 1340 1335
f 587 702 581
f 784 608 809
f 1341 1434 1419
f 1423 1349 392
f 101 307 664
f 906 1362 348
f 1328 1086 1124
f 82 1357 1451
f 1251 1452 189
f 1336 1405 1337
f 35 37 324
f 318 825 632
f 318 632 3
f 488 895 192
f 1334 1335 1340
f 30 31 903
f 286 747 688
f 676 553 1054
f 755 597 1368
f 1243 582 1276
f 1428 712 1426
f 607 1331 824
f 386 1438 387
f 1453 1454 1402
f 1385 108 1255
f 1382 267 266
f 785 487 1379
f 1261 574 700
f 318 963 1455
f 1186 1100 578
f 207 1331 607
f 1233 1012 1013
f 897 199 118
f 204 118 199
f 1209 1098 1099
f 146 801 787
f 522 608 693
f 519 1425 517
f 1070 1456 519
f 837 1183 836
f 444 514 259
f 522 693 719
f 1174 1173 672
f 1245 929 407
f 146 756 801
f 681 548 249
f 688 747 732
f 1110 641 1111
f 861 860 287
f 1268 1204 1457
f 1059 602 158
f 1095 304 320
f 737 221 65
f 1131 220 908
f 1455 825 318
f 649 640 869
f 793 792 1126
f 512 423 1266
f 608 1355 809
f 227 1196 616
f 1458 1227 1263
f 817 746 842
f 1287 451 514
f 825 1455 1459
f 148 743 564
f 751 427 746
f 1193 522 719
f 1398 1228 568
f 1457 1460 1268
f 1326 727 766
f 892 1419 181
f 765 727 582
f 582 731 765
f 876 1007 1312
f 747 1417 1091
f 227 994 1014
f 1207 678 649
f 513 101 671
f 849 1305 456
f 1431 305 786
f 27 668 760
f 366 373 1306
f 1306 373 601
f 283 373 1078
f 1078 373 337
f 760 668 249
f 848 82 1451
f 521 206 205
f 518 851 46
f 600 20 19
f 19 40 600
f 17 16 118
f 695 520 678
f 520 695 694
f 1017 1294 888
f 1413 675 1461
f 1433 239 579
f 721 1462 1463
f 1462 721 1020
f 642 872 316
f 460 1464 1290
f 520 1454 1275
f 249 668 681
f 392 1161 1423
f 34 848 1451
f 1411 602 1280
f 373 283 838
f 230 772 1424
f 678 520 640
f 93 1391 786
f 858 1140 857
f 708 1393 840
f 781 780 487
f 990 1175 208
f 1318 145 564
f 231 751 623
f 788 231 623
f 647 393 1268
f 475 169 20
f 237 501 408
f 1055 805 745
f 1352 226 1465
f 405 226 610
f 941 238 942
f 610 238 405
f 238 610 942
f 520 1402 1454
f 1093 732 1091
f 204 17 118
f 774 467 697
f 8 300 389
f 393 1204 1268
f 766 727 765
f 1395 1157 1396
f 303 1157 1395
f 250 1430 1085
f 1437 110 1438
f 718 287 860
f 964 802 742
f 1404 825 1459
f 871 813 750
f 658 499 416
f 734 287 706
f 280 684 653
f 1169 1050 1051
f 652 987 1050
f 1168 1169 1051
f 861 287 734
f 1431 786 1391
f 349 301 1401
f 226 1352 610
f 1243 731 582
f 830 110 1437
f 489 885 490
f 475 288 171
f 276 379 49
f 842 276 49
f 1441 966 1155
f 1108 902 904
f 1345 780 526
f 851 518 113
f 518 46 764
f 1101 456 933
f 88 1273 57
f 65 221 1057
f 510 1466 797
f 1033 114 1299
