v -0.226939 -0.267024 -0.280435
v -0.202158 -0.267024 -0.286692
v 0.288343 0.0836312 -0.125514
v 0.288786 0.231461 0.078233
v -0.293326 -0.0482169 -0.020125
v 0.236465 -0.274181 0.205768
v 0.286589 -0.267024 0.202055
v 0.280332 -0.267024 0.226836
v 0.0963365 -0.133255 -0.289918
v 0.0882291 -0.165923 -0.289562
v 0.0589592 -0.143038 -0.290251
v 0.129904 0.310326 -0.288778
v -0.288675 -0.218911 -0.173308
v -0.130192 0.344896 -0.0117481
v -0.170032 -0.273947 0.0513475
v -0.194877 -0.277367 0.214208
v 0.288218 -0.200766 -0.149327
v 0.288675 -0.218911 -0.173308
v 0.288675 -0.170799 -0.173308
v 0.0433013 0.310326 -0.288778
v 0.214215 0.320665 0.237625
v -0.295397 0.233299 -0.0393397
v -0.292984 -0.094923 0.00485265
v 0.24788 -0.273423 0.0220299
v -0.292915 -0.00583162 0.0343061
v -0.29221 -0.0231628 0.0692993
v -0.00748094 0.262461 -0.291688
v 0.289807 0.113703 -0.0200658
v -0.0760153 0.254235 -0.291182
v 0.142543 0.0999761 0.289913
v -0.193368 0.332872 0.0297595
v 0.0194334 -0.273226 0.173822
v 0.0781673 0.0727394 0.292751
v 0.156474 0.343699 0.137546
v -0.0301641 0.359079 0.00057479
v -0.0441727 0.356589 0.0375111
v -0.0569755 0.0571675 0.29339
v -0.0882642 0.35093 0.0374195
v -0.194628 0.332671 -0.0139216
v -0.117583 0.0523364 0.291323
v 0.19602 0.333123 -0.0824644
v 0.0418265 0.359568 -0.00750181
v 0.289144 -0.0427868 -0.0796587
v -0.223558 0.327112 0.00933516
v 0.00514765 0.334561 0.19931
v -0.290994 0.0579238 -0.116735
v -0.290459 0.0246312 -0.129272
v -0.0652543 0.354936 0.0090744
v -0.293604 0.0853317 -0.0370772
v -0.292164 -0.177605 0.0602952
v -0.168169 -0.274415 0.247336
v -0.295084 0.199166 -0.00919346
v -0.133542 -0.275533 0.232755
v -0.0914716 -0.271764 0.231522
v 0.0497134 0.33658 0.190323
v 0.289659 0.0386055 -0.0567364
v 0.288428 0.0416106 -0.133202
v -0.0329729 0.235399 -0.292311
v -0.261952 -0.267024 -0.257683
v -0.237798 -0.274456 0.186604
v -0.291252 -0.150901 -0.0650439
v 0.288983 0.190923 -0.0571125
v 0.129904 -0.267024 0.288572
v 0.173205 -0.267024 0.288572
v -0.0578931 0.344074 0.140781
v -0.282344 -0.135753 -0.21427
v -0.0451274 0.349356 0.104454
v -0.12603 0.346038 0.0272907
v -0.29344 0.156459 0.0595601
v -0.203658 -0.102464 -0.283202
v 0.2897 0.0202362 0.0662302
v -0.292601 -0.199751 0.0327672
v -0.00312663 0.331272 -0.222588
v 0.190471 -0.283284 -0.195745
v -0.116928 -0.129873 0.291013
v -0.288675 -0.170799 0.173102
v -0.288675 -0.122686 0.173102
v -0.270592 0.310326 0.24641
v 0.0185132 0.188321 0.293981
v -0.25758 0.310326 0.26185
v 0.288285 -0.0590423 0.137477
v 0.22631 -0.0843973 -0.27913
v 0.263395 -0.0979861 -0.257088
v -0.292342 0.176818 -0.105059
v 0.288862 -0.124459 0.0232914
v 0.213653 0.329247 0.187661
v 0.223426 0.329076 0.136187
v 0.245826 0.315564 0.239275
v 0.288675 -0.267024 0.173102
v -0.291832 -0.191313 0.000606811
v 0.288488 -0.13538 -0.0460963
v 0.288802 0.103133 0.0982316
v -0.0469784 0.341624 -0.157617
v -0.290421 0.171785 0.126131
v 0.287459 -0.160092 -0.106225
v -0.053555 -0.188787 0.293678
v -0.240314 -0.272942 0.141004
v -0.224008 -0.275266 0.105601
v -0.200877 -0.280513 0.141445
v -0.0720772 -0.143925 0.292486
v 0.245699 -0.0116339 -0.274342
v -0.140511 -0.204767 -0.288285
v -0.0971987 -0.146841 -0.289207
v -0.288675 -0.267024 -0.173308
v -0.288675 -0.267024 -0.130007
v -0.173205 0.021651 0.288572
v -0.219315 -0.01105 0.281325
v -0.173205 -0.0264615 0.288572
v 0.173205 0.165989 -0.288778
v 0.288675 0.165989 0.173102
v -0.280332 -0.267024 0.226836
v -0.281664 -0.233292 0.223597
v -0.286589 -0.267024 0.202055
v -0.288675 0.310326 0.173102
v 0.206363 -0.00440322 -0.283688
v 0.151513 0.344896 0.103858
v 0.137076 0.347092 0.043028
v -0.0169819 0.345441 -0.139235
v -0.289941 0.0203226 0.134613
v 0.0998637 0.200374 -0.291447
v -0.276921 -0.0937028 -0.239705
v 0.288337 0.215094 -0.0975327
v 0.289907 0.211379 -0.015409
v 0.288578 0.163158 -0.0954476
v -0.129904 0.310326 -0.288778
v -0.173205 0.310326 -0.288778
v 0.25658 0.117892 0.262548
v 0.289222 -0.088265 -0.0620727
v -0.293529 0.269829 -0.0642678
v 0.288675 -0.0264615 0.173102
v 0.288675 0.021651 0.173102
v -0.290275 -0.102012 0.10295
v -0.253051 -0.204926 -0.263802
v -0.265098 -0.134804 -0.258299
v 0.289275 0.139402 -0.0568712
v 0.0461752 0.15357 0.293271
v 0.289449 0.0895757 -0.0578244
v 0.289864 0.130508 0.0215234
v 0.28695 -0.167558 0.0965023
v -0.291164 0.203126 -0.135092
v 0.289886 -0.00888869 -0.0484028
v 0.270592 0.310326 -0.246616
v 0.280332 0.310326 -0.227042
v 0.105399 0.324371 0.24764
v 0.138166 -0.214482 -0.287379
v -0.222579 0.0596685 0.279337
v 0.183434 -0.279406 -0.0113475
v 0.200775 -0.283893 0.173753
v -0.00298951 0.351364 -0.10349
v -0.282316 -0.267024 -0.221143
v 0.280577 0.0959101 -0.216705
v 0.0355787 0.328833 0.225514
v 0.203122 -0.275819 -0.241042
v 0.044559 -0.267024 -0.095669
v 0.248784 -0.0549993 -0.259595
v 0.259285 0.201093 0.267593
v 0.0155663 0.0741843 -0.292616
v -0.288675 -0.122686 -0.173308
v -0.0242333 -0.228228 0.290642
v -0.288675 -0.170799 -0.173308
v 0.103239 0.277771 -0.292252
v 0.0676035 0.270512 -0.290438
v -0.288675 0.310326 0.0431983
v -0.256486 0.319245 0.0143903
v -0.288675 0.310326 -0.000103
v -0.281606 0.00329779 0.220607
v -0.291717 -0.0632383 0.0816917
v 0.290468 -0.0207958 -0.00240661
v -0.173205 -0.122686 -0.288778
v -0.292208 0.0282119 -0.0808439
v 0.244398 -0.276148 0.170373
v -0.289325 0.272121 0.1193
v -0.0504955 0.35334 -0.0696146
v 0.25758 0.310326 -0.262055
v -0.238585 -0.0586194 -0.275366
v -0.225282 -0.0329547 -0.278829
v -0.173205 -0.0264615 -0.288778
v -0.106897 -0.277712 -0.212219
v 0.205219 0.331565 -0.179852
v 0.273451 -0.0255713 -0.243498
v 0.173205 -0.074574 -0.288778
v 0.126342 -0.0431922 -0.290118
v 0.173205 -0.0264615 -0.288778
v 0.288675 0.310326 0.0431983
v -0.250189 0.320294 0.116817
v 0.244479 0.324443 0.088849
v -0.124772 -0.272809 -0.251072
v -0.144837 0.322328 0.244628
v -0.186487 0.32154 0.241282
v 0.00296767 -0.0668542 -0.292456
v 0.126789 -0.218219 0.288901
v 0.0866025 -0.267024 0.288572
v -0.283248 0.134654 0.209793
v -0.269933 0.128659 0.247791
v 0.287806 -0.117743 -0.131492
v -0.28937 -0.137401 0.13321
v 0.064555 -0.277807 0.166501
v 0.0770542 -0.277793 0.122614
v -0.0241915 0.104077 -0.292413
v 0.0046166 0.360226 -0.0191502
v 0.287702 -0.104932 0.135716
v -0.0027966 0.352104 0.100407
v 0.0811976 -0.276267 -0.203206
v -0.290522 -0.137635 -0.108895
v 0.279443 0.045404 0.219929
v -0.288675 0.262213 0.173102
v 0.288675 0.214101 0.173102
v 0.0568673 0.359047 0.03036
v -0.281932 -0.0353858 0.216011
v -0.22104 -0.267024 0.282213
v -0.173205 -0.267024 0.288572
v 0.104174 -0.2298 -0.289266
v -0.288675 0.310326 -0.0434043
v -0.126121 -0.279563 0.189266
v 0.289159 -0.0145301 0.0861931
v 0.288589 -0.0460814 0.103821
v 0.0341839 0.356331 0.0724044
v -0.291443 -0.113134 -0.0775564
v 0.288675 0.310326 -0.000103
v 0.288675 0.165989 -0.173308
v -0.253801 0.197615 0.263892
v 0.280183 0.136759 -0.218649
v -0.288675 -0.267024 0.173102
v -0.288675 0.310326 -0.173308
v 0.00732495 0.360563 0.0280349
v 0.288866 0.113064 -0.0934802
v -0.238756 0.319323 0.184177
v -0.257695 0.318013 0.151081
v 0.25758 -0.267024 -0.262055
v 0.270592 -0.267024 -0.246616
v 0.214808 0.209144 0.282677
v 0.206844 0.247079 0.284322
v -0.0739536 0.33156 0.210329
v -0.290925 -0.199563 -0.0619955
v 0.173205 0.117876 -0.288778
v -0.246513 -0.267024 -0.270695
v -0.2902 -0.201711 -0.0988559
v 0.173205 0.021651 -0.288778
v 0.288675 0.310326 -0.173308
v 0.286589 0.310326 -0.202261
v -0.049817 0.228517 0.297468
v -0.201546 0.331239 -0.100424
v -0.0367265 0.180579 0.294651
v 0.261208 -0.0470784 0.264581
v 0.173205 0.117876 0.288572
v 0.288675 -0.074574 -0.173308
v 0.288675 -0.122686 -0.173308
v 0.166876 -0.279494 -0.0449729
v 0.0247138 -0.00682761 -0.292586
v 0.0641082 0.011379 -0.292111
v 0.29009 -0.068973 0.018942
v 0.290047 -0.0219119 0.042183
v 0.19614 0.335278 0.104335
v -0.292152 -0.144156 0.000435162
v -0.159584 0.332336 0.198027
v -0.288675 0.0697635 -0.173308
v -0.288675 0.117876 -0.173308
v -0.220962 -0.232167 -0.281739
v -0.173205 -0.218911 -0.288778
v 0.24431 0.241545 0.270687
v 0.115584 0.349825 -0.0270605
v -0.044561 -0.267024 0.095462
v 0.0292233 0.336261 -0.190968
v 0.104171 -0.279618 -0.105885
v 0.248306 -0.270507 -0.06351
v -0.291271 -0.0777329 -0.0946668
v -0.291669 -0.00878726 -0.0943736
v -0.123698 0.338836 -0.171989
v 0.212465 -0.281832 0.140491
v 0.229528 0.11555 -0.277807
v 0.220811 0.0794547 -0.28011
v 0.203799 -0.114605 -0.283259
v 0.0701444 0.328243 0.226275
v 0.0980791 0.336453 0.192224
v 0.0127786 -0.234668 0.292176
v -0.0968469 0.137698 -0.290597
v 0.0475359 -0.222743 0.293203
v -0.0753408 0.0938575 -0.291288
v 0.0598901 -0.275307 -0.128342
v 0.0625767 0.269126 0.293642
v 0.134511 0.139914 0.290264
v -0.292103 -0.134399 0.0410806
v 0.243765 -0.175691 -0.269074
v 0.265967 -0.215268 -0.253203
v -0.233835 -0.275683 -0.133361
v -0.0754639 -0.276595 -0.122141
v 0.0679408 0.188743 0.292958
v -0.0774503 -0.278727 -0.175025
v -0.293718 -0.00604943 -0.00543253
v 0.25758 0.310326 0.26185
v -0.288675 -0.074574 0.173102
v -0.288675 0.310326 -0.130007
v -0.288675 0.310326 -0.0867055
v 0.270592 0.310326 0.24641
v -0.292868 -0.00598316 -0.0491794
v -0.293336 0.0387028 -0.0313953
v 0.288753 -0.10124 0.0597809
v 0.233657 -0.110713 0.278398
v 0.260754 0.142776 -0.262575
v -0.27776 -0.115414 0.237085
v -0.216781 0.0933625 -0.283238
v -0.278393 -0.144714 0.233709
v -0.117207 0.346705 0.0712254
v -0.209917 0.141541 0.284168
v -0.0987611 0.346772 0.11659
v -0.128059 0.263325 0.290209
v -0.173205 0.262213 0.288572
v 0.173205 0.310326 -0.288778
v -0.206999 -0.0722611 -0.282557
v -0.173205 -0.074574 -0.288778
v 0.226406 0.325569 0.0518604
v -0.0556379 -0.0304112 -0.291662
v -0.0734276 -0.272618 -0.237072
v -0.229304 -0.272527 0.0331
v 0.127689 0.222212 -0.291744
v -0.246508 -0.272038 0.0688165
v -0.25758 -0.267024 0.26185
v -0.0293492 0.358144 -0.0354677
v 0.116957 0.341817 -0.163785
v 0.289777 0.161212 -0.0169357
v -0.261049 0.117672 -0.263759
v 0.280332 0.310326 0.226836
v -0.241063 0.310326 0.273784
v -0.101015 -0.206746 -0.286798
v 0.287991 -0.21435 -0.1183
v -0.255257 0.0808439 -0.259101
v 0.0398929 -0.217189 -0.290195
v 0.0698968 -0.2366 -0.289622
v 0.0433013 -0.267024 -0.288778
v 0.0883523 -0.0711111 -0.29086
v 0.116766 -0.282453 -0.183113
v -0.289285 -0.101134 0.14254
v -0.089486 0.246886 0.295417
v -0.2912 0.000692762 0.102202
v -0.21463 -0.197813 0.282649
v -0.161235 -0.284353 -0.155724
v -0.200873 0.328554 0.19334
v -0.0572921 -0.270362 -0.0364687
v -0.280332 0.310326 0.226836
v 0.289879 0.0557673 0.044458
v -0.286589 0.310326 0.202055
v -0.22104 0.310326 0.282213
v 0.241063 0.310326 0.273784
v 0.22104 0.310326 0.282213
v 0.166885 -0.28851 -0.158748
v 0.0348482 0.0834427 0.29346
v 0.105878 0.35213 0.0183032
v -0.241063 -0.267024 0.273784
v 0.207708 -0.281516 0.101561
v -0.126832 -0.280897 0.136986
v 0.0794601 0.356677 -0.00528509
v 0.241063 -0.267024 -0.27399
v 0.150785 -0.285076 -0.112209
v -0.214143 -0.274512 -0.0876407
v 0.287812 0.255593 0.121734
v 0.0365978 0.358994 -0.0468467
v -0.289717 -0.0675501 0.130719
v -0.106952 0.349539 -0.0491888
v -0.116143 0.344524 -0.128451
v -0.0921875 0.348313 -0.0928605
v -0.288351 -0.218699 0.129324
v -0.288675 -0.218911 0.173102
v 0.289242 0.140706 0.0675415
v -0.087712 -0.277069 0.171696
v -0.0489103 -0.269422 0.245393
v 0.216095 -0.273236 0.244446
v -0.25718 -0.197296 0.265126
v -0.026015 0.186758 -0.292514
v 0.026584 0.17968 -0.292556
v -0.278677 0.168413 0.234302
v -0.282931 -0.0562062 -0.209742
v 0.0736142 -0.269032 -0.24988
v 0.288675 0.310326 -0.0867055
v 0.173205 -0.074574 0.288572
v -0.261952 0.310326 -0.257683
v -0.246513 0.310326 -0.270695
v -0.282316 0.310326 -0.221143
v 0.10676 -0.272302 -0.238736
v 0.287556 0.265139 -0.112337
v 0.0787658 -0.201719 -0.289973
v 0.287653 -0.126599 0.0979142
v 0.0500884 -0.27598 -0.175455
v 0.0882379 -0.28078 -0.156553
v 0.241063 0.310326 -0.27399
v 0.22104 0.310326 -0.282419
v -0.159418 0.341501 -0.132512
v -0.199433 0.331745 -0.146392
v -0.189841 -0.280908 -0.12438
v 0.205956 -0.278681 -0.0483577
v -0.026795 0.322302 0.257548
v -0.140636 -0.272212 0.0239654
v -0.127898 -0.272915 0.059933
v 0.173205 0.310326 0.288572
v -0.293974 0.274618 -0.0264033
v -0.161956 -0.28063 0.203715
v 0.290066 -0.0552817 -0.0313885
v -0.28921 -0.164804 -0.133058
v 0.21342 -0.0441415 -0.283161
v 0.233092 -0.0714638 0.278385
v 0.288675 0.262213 0.173102
v 0.288675 0.117876 0.173102
v 0.283149 0.121296 0.205433
v 0.245335 -0.240521 -0.267653
v -0.074559 -0.267024 0.074458
v 0.173205 0.0697635 -0.288778
v 0.22466 0.034608 -0.279692
v -0.173205 -0.170799 -0.288778
v 0.0909059 0.149077 0.291986
v -0.0192856 0.355582 0.0675173
v 0.127611 0.0663681 0.29051
v -0.273887 -0.267024 -0.241166
v -0.288675 -0.267024 0.0864995
v 0.274178 -0.0220909 0.24365
v 0.129904 0.310326 0.288572
v 0.102664 0.268697 0.292428
v -0.099084 -0.267024 0.035962
v 0.272219 0.0179607 0.245525
v -0.086374 -0.267024 0.060378
v -0.173205 0.117876 0.288572
v -0.127463 0.102135 0.290868
v 0.04445 -0.274452 0.206835
v -0.115126 -0.276592 -0.0925377
v 0.276926 0.229964 0.237293
v -0.276745 -0.169735 0.235035
v -0.0522256 -0.273095 0.200463
v 0.0170691 0.110874 -0.292603
v -0.292555 -0.0447695 -0.0676118
v -0.0297165 -0.152101 0.293012
v 0.074557 -0.267024 -0.074665
v 0.0464908 -0.27158 -0.0209605
v 0.289525 -0.102817 -0.0172508
v -0.0206195 0.269352 0.296282
v 0.0454019 0.136039 -0.292323
v -0.0269785 -0.0428228 0.294028
v 0.14203 0.193794 -0.289676
v 0.280332 -0.267024 -0.227042
v 0.286589 -0.267024 -0.202261
v -0.25686 0.0936483 0.268602
v -0.267674 0.0612734 0.260257
v -0.281693 0.0455038 0.218139
v -0.220109 0.327693 0.150875
v -0.283749 0.273212 -0.230865
v -0.128308 -0.28244 -0.180452
v -0.285128 0.23734 -0.215274
v -0.0580798 0.273374 0.297623
v -0.113691 0.0284673 -0.29011
v 0.207587 0.0538055 0.283166
v 0.134803 0.324142 -0.240017
v 0.164002 -0.287112 0.130607
v 0.157272 0.333229 -0.200713
v -0.282379 0.211099 0.22548
v -0.25093 0.158721 0.271681
v 0.091315 -0.267024 -0.052828
v 0.099084 -0.267024 -0.03617
v 0.288675 -0.267024 0.129801
v 0.252511 -0.274053 0.0918941
v -0.151212 -0.277804 0.090068
v -0.00385974 0.145579 -0.292701
v 0.0497723 -0.17949 -0.290436
v 0.288675 -0.267024 -0.000103
v -0.036064 -0.267024 -0.099188
v -0.2911 -0.225168 -0.0275277
v 0.000792996 -0.26986 -0.079575
v 0.271056 0.0214919 -0.251923
v 0.22104 -0.267024 -0.282419
v -0.0763445 0.0184844 0.292805
v 0.0866025 0.310326 -0.288778
v 0.105592 0.315607 -0.256172
v -0.244633 0.322201 -0.0644455
v -0.110369 -0.276048 0.0939886
v 0.212348 0.143946 -0.281754
v -0.29331 0.109379 0.044472
v -0.205681 -0.28113 -0.167149
v -0.290101 -0.105003 -0.128897
v 0.282739 0.0819464 0.203163
v -0.218318 0.0554659 -0.283261
v 0.183464 0.335517 0.0263162
v -0.0329668 0.330778 0.220136
v 0.0437475 -0.178354 0.293753
v 0.0231702 -0.0600762 0.293822
v -0.29036 0.27296 0.0814226
v -0.288675 0.310326 0.0864995
v -0.138848 0.140974 -0.289445
v -0.128969 0.329686 -0.216498
v -0.00469255 0.226441 0.295793
v -0.24883 -0.268827 0.225967
v 0.27878 0.0585991 -0.2252
v -0.290445 -0.169867 -0.0930635
v 0.230952 -0.276138 -0.153891
v -0.169703 0.327554 -0.222087
v -0.192819 0.319683 -0.254033
v -0.208823 0.322541 -0.220893
v 0.268757 0.267396 -0.250481
v 0.270592 -0.267024 0.24641
v 0.251328 -0.220857 0.269692
v 0.112872 0.0646643 -0.290541
v 0.0935166 0.112465 -0.291
v 0.217031 -0.0352763 0.2813
v 0.244702 0.320552 -0.0276881
v -0.136626 -0.273399 -0.0502233
v 0.249043 -0.27372 0.132565
v -0.208581 0.203101 -0.284101
v 0.0636466 -0.271081 0.0207712
v 0.103842 -0.267024 0.018204
v 0.095566 -0.267024 0.044457
v -0.135049 -0.16363 -0.287966
v 0.2532 0.319813 0.15955
v 0.265749 0.0675954 0.258516
v -0.20583 0.331578 0.112238
v 0.289856 0.221668 0.0309343
v 0.288675 -0.267024 -0.0434043
v 0.207148 0.329218 -0.0482045
v 0.246431 0.319865 -0.065388
v -0.173205 0.165989 -0.288778
v -0.100745 -0.170871 0.291266
v -0.29155 0.0807874 0.0910308
v -0.256172 0.0217683 0.271107
v -0.215708 0.217955 0.282899
v -0.114656 -0.282309 -0.141009
v -0.148537 -0.281649 -0.119496
v 0.286785 -0.193886 0.0691896
v -0.2918 -0.095908 0.0565157
v 0.025658 -0.121737 -0.290748
v 0.0678834 -0.0442972 0.29288
v -0.290044 0.0573999 0.133391
v -0.292948 0.0608559 0.0519438
v 0.284666 0.28084 -0.219546
v -0.288675 0.310326 0.129801
v 0.173205 0.262213 -0.288778
v 0.173205 0.262213 0.288572
v -0.29142 0.0404577 0.0953767
v -0.122394 0.221662 0.29137
v 0.27838 0.187475 0.222923
v -0.000857001 -0.270883 0.0685796
v -0.291565 0.15609 0.0976083
v -0.291781 0.120651 0.0918632
v 0.28805 0.200133 0.12407
v -0.252387 -0.159183 0.270295
v -0.0709899 0.351845 0.0731998
v -0.158422 -0.272766 -0.0143561
v 0.124157 0.227166 0.292415
v 0.0847564 -0.206312 0.290522
v 0.0793578 -0.165333 0.291169
v 0.0292082 0.265363 -0.290437
v -0.249105 0.278545 0.272742
v 0.288675 0.021651 -0.173308
v 0.199856 -0.278871 0.026269
v 0.273439 -0.217412 0.243434
v 0.257591 -0.181412 0.265238
v -0.0899764 0.330794 -0.209618
v 0.0665355 -0.271562 0.247098
v 0.0287321 -0.270842 0.242237
v 0.0875322 -0.27718 0.20532
v -0.291389 0.136381 -0.12466
v -0.288675 0.165989 -0.173308
v 0.104145 0.0269385 -0.290797
v 0.290543 -0.215507 -0.00119193
v -0.173205 -0.218911 0.288572
v 0.288675 0.310326 -0.130007
v 0.288675 0.262213 -0.173308
v 0.286589 0.310326 0.202055
v 0.283116 0.267623 0.217055
v -0.157276 0.340411 -0.0379548
v -0.147322 0.342751 -0.0849352
v -0.018308 -0.267024 0.103739
v -0.0130035 -0.271937 -0.013671
v 0.169101 0.321166 -0.248028
v -0.282045 0.262174 0.226255
v 0.205579 0.316545 -0.254581
v 0.258274 -0.271281 -0.215785
v -0.0188492 -0.0818005 0.293766
v -0.0120868 -0.11862 0.29343
v 0.0983196 -0.132747 0.291132
v 0.0371619 -0.0465475 -0.292301
v -0.0110064 -0.0316355 -0.292492
v -0.123375 -0.230136 0.288469
v -0.129904 -0.267024 0.288572
v -0.0866025 -0.267024 0.288572
v -0.226939 0.310326 -0.280435
v 0.23612 0.279089 -0.274285
v 0.246149 0.243677 -0.275053
v -0.173205 0.117876 -0.288778
v 0.0482136 -0.272724 -0.221438
v 0.0212918 -0.270085 -0.249781
v -0.289278 0.238869 0.1405
v 0.173205 0.165989 0.288572
v -0.0410458 0.130511 0.293497
v -0.00413422 0.106859 0.293884
v -0.0620109 0.213665 -0.291943
v -4.1195e-05 0.148771 0.293815
v -0.0425525 0.276028 -0.292128
v 0.173205 0.021651 0.288572
v 0.173205 0.0697635 0.288572
v -0.281074 0.105731 -0.230815
v -0.282779 0.0717362 -0.219587
v 0.0286866 0.121292 0.293686
v -0.292131 -0.227065 0.056941
v -0.290694 -0.203103 0.0918669
v -0.243951 0.321805 0.0792844
v 0 0.310326 0.288572
v 0.0433013 0.310326 0.288572
v 0.288251 0.132952 -0.132849
v 0.289599 0.0973041 0.0556582
v 0.261905 0.160371 0.266097
v -0.0796696 -0.0682465 -0.290799
v -0.00247387 0.357411 -0.0604313
v -0.202158 0.310326 -0.286692
v -0.22591 0.272953 -0.28197
v -0.0466883 0.333006 -0.204943
v 0.241205 0.322364 -0.104065
v 0.222328 0.327846 -0.140943
v -0.123084 0.0642922 -0.289872
v -0.288675 -0.267024 -0.0867055
v -0.272705 -0.0447654 -0.250971
v -0.0972169 0.3505 -0.00316047
v 0.265824 0.105132 -0.260378
v -0.197472 0.332655 0.0710045
v 0.0769672 0.356497 -0.0418168
v 0.0685154 0.354404 -0.080579
v 0.112502 0.350335 -0.07241
v -0.290665 -0.0364258 0.109956
v 0.133115 -0.147083 -0.288932
v 0.118529 -0.185927 -0.28892
v -0.220204 -0.121114 0.281209
v -0.213521 0.181186 0.283955
v -0.00480634 0.0664868 0.293881
v -0.00741074 -0.269592 0.255497
v 0 0.310326 -0.288778
v 0.284947 0.248251 -0.210856
v -0.0991259 0.217566 -0.290476
v 0.0152733 -0.272919 -0.200067
v 0.0119601 -0.274569 -0.151547
v -0.293109 -0.0507833 0.0303885
v 0.0703359 0.334081 -0.200984
v -0.281388 0.0916226 0.221099
v 0.0743404 0.351748 0.104594
v 0.111941 0.34812 0.136574
v 0.0310671 0.349499 0.120896
v -0.222894 -0.272405 -0.046412
v -0.183587 -0.273616 -0.0488402
v -0.212461 -0.272303 -0.00895009
v -0.1824 -0.272838 0.0164371
v -0.173205 -0.074574 0.288572
v -0.173205 -0.122686 0.288572
v -0.154748 0.341018 0.105263
v 0.238141 -0.27626 -0.0178643
v -0.253335 0.319435 -0.100061
v -0.010742 0.338201 -0.178582
v -0.291894 -0.17161 -0.031579
v -0.06048 -0.267024 -0.086477
v 0.250981 0.320901 -0.16472
v -0.0804165 0.0957288 0.29262
v -0.0361205 0.337889 0.177094
v -0.08812 0.338698 0.167859
v -0.288675 -0.267024 0.0431983
v 0.277608 0.144915 0.231911
v -0.200017 -0.281539 0.177257
v 0.159879 -0.286079 0.183367
v 0.196945 -0.27951 0.208993
v 0.027293 -0.267024 0.101747
v 0.0984048 0.034744 0.291848
v 0.0399587 0.0369135 0.293676
v 0.25758 -0.267024 0.26185
v 0.0655268 0.34468 0.15059
v 2e-06 -0.267024 0.105341
v 0.288985 0.00733765 -0.0951979
v 0.0293135 0.355593 -0.0817938
v 0.173205 -0.122686 0.288572
v 0.0949468 0.35034 -0.11784
v 0.04716 0.350567 -0.116309
v 0.288369 0.0611396 0.130205
v -0.293475 0.0317969 0.0180894
v -0.125789 -0.0454976 0.291228
v 0.282115 -0.217357 -0.212775
v -0.288675 0.214101 0.173102
v 0.281376 -0.143969 -0.208099
v -0.0106055 -0.272399 0.14131
v -0.258174 0.0437871 -0.253751
v -0.269954 0.00596486 -0.251404
v -0.0350919 -0.274466 -0.144247
v -0.0660824 0.322919 -0.248747
v -0.027507 -0.270894 -0.0584875
v 0.218505 0.135444 0.280616
v 0.0136706 -0.147358 0.292941
v -0.000555164 -0.190824 0.293081
v 0.287766 -0.23239 0.0813069
v -0.289888 0.136509 0.134517
v -0.292774 -0.0833368 -0.0463919
v 0.214842 -0.277331 -0.0842432
v 0.19719 -0.281866 -0.119542
v -0.292402 -0.124477 -0.0348854
v -0.0888445 0.192852 0.292505
v -0.030338 -0.271357 0.0391535
v 0.016452 -0.271955 0.0230611
v 0.148966 0.343692 -0.00129991
v 0.286273 -0.209165 0.118924
v 0.288675 -0.218911 0.173102
v 0.158282 0.342184 -0.0520903
v 0.288675 -0.267024 -0.130007
v 0.288675 -0.267024 -0.173308
v 0.288163 0.229208 -0.13752
v 0.288675 0.214101 -0.173308
v -0.08126 0.00377629 -0.291116
v 0.288675 -0.267024 0.0431983
v 0.239907 0.172834 -0.271052
v 0.208292 0.195621 -0.28285
v -0.138383 0.187764 0.290333
v -0.165245 -0.278671 -0.0854931
v 0.288675 0.117876 -0.173308
v -0.283219 0.0323643 -0.215694
v -0.119128 0.263157 -0.289224
v -0.137534 0.218817 -0.289452
v -0.173205 0.262213 -0.288778
v 0.141053 0.326903 0.230952
v -0.226064 0.129286 -0.280353
v 0.288396 0.100248 0.138691
v -0.199698 -0.276242 0.0780232
v -0.117144 0.331617 0.20357
v -0.177869 0.335325 0.151366
v 0.122204 0.184897 0.290877
v 0.173205 0.214101 0.288572
v -0.132632 0.33838 0.15514
v -0.174324 -0.283099 -0.195582
v -0.0467397 0.349183 -0.112582
v -0.0772152 0.345347 -0.131374
v -0.288675 -0.267024 0.129801
v 0.12228 -0.0652091 0.290706
v 0.28829 -0.122829 -0.0881391
v 0.287944 -0.16942 -0.0700309
v 0.243866 0.0361969 0.275676
v 0.150891 -0.277372 0.0235057
v 0.239689 0.315303 -0.234225
v -0.0831133 0.339408 -0.168999
v 0.0649674 0.343336 -0.156139
v 0.109406 0.330737 -0.214174
v -0.099085 -0.267024 -0.036166
v -0.288675 -0.267024 -0.0434043
v -0.254706 -0.270925 -0.0258429
v -0.288675 -0.267024 -0.000103
v 0.0866025 -0.267024 -0.288778
v 0.187046 0.338749 0.156392
v -0.290972 -0.231092 0.0165874
v -0.128304 -0.0605704 -0.289478
v -0.10205 -0.0313977 -0.290294
v -0.173205 0.0697635 0.288572
v 0.288981 0.185768 0.0758463
v 0.28985 0.175511 0.0274058
v -0.198155 0.332506 -0.0553995
v 0.288336 0.00128386 -0.140006
v -0.0162958 0.346278 0.135931
v 0.163912 -0.281781 0.0717363
v -0.0186898 -0.151344 -0.289958
v 0.21654 -0.224543 0.282255
v 0.0238901 -0.156892 -0.290305
v -0.0634797 -0.270784 0.00204075
v 0.0744757 -0.0910456 0.29247
v -0.296251 0.251824 0.0101212
v -0.227428 -0.049496 0.279616
v -0.251798 -0.0902397 0.272258
v 0.241063 -0.267024 0.273784
v 0.138631 -0.275802 -0.0180066
v -0.0759684 0.176971 -0.29135
v 0.0864581 0.355655 0.0599614
v -0.214766 0.163612 -0.281865
v 0.138726 -0.141443 0.289719
v -0.246101 -0.0958921 -0.271879
v -0.282481 -0.0113445 -0.213098
v 0.0371834 -0.0850331 -0.291599
v -0.288675 0.021651 -0.173308
v -0.0614943 -0.173689 -0.289701
v 0.288307 -0.0841547 0.0994523
v 0.128827 0.00120585 0.290601
v -0.125109 0.0010232 0.291175
v -0.0157538 0.0279596 0.294246
v 0.173205 -0.170799 0.288572
v 0.173205 -0.218911 0.288572
v 0.22104 -0.267024 0.282213
v -0.0433013 0.310326 0.288572
v 0.242206 0.319087 -0.197757
v 0.114776 -0.286347 0.158497
v 0.106211 -0.00954852 -0.290744
v 0.0744556 -0.0289138 -0.291551
v 0.105409 -0.271002 0.24862
v -0.245245 0.321356 -0.163774
v 0.129314 -0.2792 0.212319
v 0.0411546 0.227908 0.294453
v 0.289209 0.0602066 0.0855188
v 0.282134 -0.208547 0.208789
v 0.288675 -0.170799 0.173102
v -0.259467 0.154278 -0.26789
v -0.100172 0.319831 -0.250341
v 0.225556 0.173807 0.277918
v -0.282024 0.141318 -0.222605
v -0.0345202 -0.270332 -0.249479
v -0.211559 -0.158847 0.283382
v -0.284685 0.202218 -0.209734
v -0.288675 -0.0264615 -0.173308
v -0.278504 0.177576 -0.23812
v 0.264073 0.0646496 -0.263985
v 0.118432 0.350004 0.0855389
v -0.252074 0.238463 0.265988
v 0.13991 0.339535 0.175283
v 0.0204936 0.344417 -0.147853
v -0.0433013 0.310326 -0.288778
v -0.0314312 0.323566 -0.251256
v -0.293253 0.1497 -0.0740919
v -0.292603 0.109479 -0.0829192
v -0.29381 0.123357 -0.0446507
v 0.263236 0.272628 0.255196
v 0.288675 0.310326 0.173102
v -0.293871 0.0740666 0.00732042
v 0.146606 0.344674 -0.108614
v -0.249185 -0.274782 -0.178199
v -0.0433013 -0.267024 0.288572
v -0.0605177 -0.232252 0.292329
v -0.222458 0.018752 -0.279439
v -0.212005 -0.198709 -0.282229
v 0.230878 -0.276963 -0.198106
v -0.255283 -0.239282 -0.263415
v 0.291389 0.261953 -0.0120219
v 0.125742 -0.28466 -0.143008
v 0.0733152 -0.00111361 0.292558
v 0.109714 -0.0290383 0.291328
v 0.173205 -0.267024 -0.288778
v 0.288675 -0.0264615 -0.173308
v 0.275254 0.223267 -0.239164
v 0.0343288 0.32563 -0.2405
v 0.25133 0.206935 -0.272426
v -0.0300987 0.0119864 -0.292358
v -0.0734877 0.04576 -0.291284
v -0.029235 0.0599053 -0.29239
v 0.0845928 0.227875 0.293439
v 0.258955 0.319923 0.12029
v 0.0161274 0.0338718 -0.292782
v 0.275967 0.0980952 0.234356
v 0.289407 -0.0571185 0.0656946
v 0.229383 0.0905785 0.279213
v 0.176894 -0.282475 -0.0807257
v -0.058305 -0.117093 -0.290554
v -0.29257 0.0189782 0.062045
v -0.226874 -0.234566 0.280295
v 0.283775 -0.0398545 -0.206483
v -0.29021 0.205794 0.132608
v -0.128123 -0.0895326 0.2906
v -0.0880134 -0.107204 0.292025
v -0.129904 0.310326 0.288572
v 0.138696 0.258023 0.293077
v 0.271877 -0.139629 -0.2491
v 0.251447 -0.00751765 0.272989
v 0.132984 0.131538 -0.28983
v -0.255737 0.314003 0.214465
v 0.1183 -0.281453 0.100942
v -0.0504907 -0.273884 0.150724
v -0.0822115 -0.275899 0.122666
v -0.273887 0.310326 -0.241166
v 0.0568053 0.0918891 -0.291975
v -0.212096 0.0995751 0.283487
v -0.164248 0.335931 -0.178201
v 0.282574 0.0322982 -0.206292
v 0.027287 -0.267024 -0.101955
v 0 -0.267024 -0.105547
v 0.288675 0.310326 0.129801
v 0.288675 0.310326 0.0864995
v 0.190705 0.33371 -0.0140699
v 0.0190697 -0.0114561 0.293951
v -0.14201 -0.279533 -0.216142
v -0.288675 0.214101 -0.173308
v 0.2788 0.179712 -0.23089
v 0.289883 0.0678534 -0.0232652
v -0.288675 0.117876 0.173102
v -0.288675 0.165989 0.173102
v -0.0838881 0.14316 0.292319
v -0.232561 0.325096 0.0432253
v -0.105444 -0.267024 -0.000102
v -0.0381066 0.0912034 0.293609
v -0.293656 0.22519 -0.0894672
v -0.292151 0.270151 -0.102288
v 0.141443 0.00287999 -0.289653
v -0.0506144 0.140682 -0.291941
v -0.294595 0.157805 -0.0275067
v -0.294415 0.200214 0.0365032
v -0.0926715 -0.211059 0.294305
v -0.0796551 -0.0241282 0.292794
v 0.288337 0.147739 0.121255
v 0.044565 -0.267024 0.095461
v 0.0615632 0.0510636 -0.291968
v 0.211405 0.00690668 0.28247
v 0.173205 -0.170799 -0.288778
v 0.173205 -0.218911 -0.288778
v -0.292255 -0.16776 0.0271706
v -0.290543 -0.144819 0.0878434
v 0.0782138 0.319543 0.262404
v -0.161021 0.339316 0.00825094
v 0.290077 0.0877845 0.0145749
v 0.0711229 -0.107108 -0.290919
v -0.291612 0.238123 -0.134522
v 0.290391 0.0157065 0.0240248
v -0.292107 0.269918 -0.134542
v -0.29123 0.236731 0.100874
v -0.288675 0.262213 -0.173308
v -0.0649229 -0.224345 -0.290828
v -0.0292199 -0.20382 -0.290266
v -0.0433013 -0.267024 -0.288778
v 0.074562 -0.267024 0.074455
v 0.283071 -0.0032428 -0.210062
v -0.134979 -0.193637 0.289999
v -0.290607 0.0956481 -0.127698
v -0.2803 -0.178962 -0.229188
v -0.209373 -0.271019 -0.253762
v -0.173205 0.165989 0.288572
v 0.130811 -0.10387 0.290154
v -0.091317 -0.267024 -0.052824
v -0.07456 -0.267024 -0.074663
v 0.123425 0.168941 -0.290202
v 0.132817 -0.278032 -0.0673043
v -0.293731 0.241975 0.0557439
v 0.288383 0.273836 0.0726116
v 0.0778227 0.163316 -0.291398
v -0.219631 -0.275426 -0.2143
v -0.129904 -0.267024 -0.288778
v -0.0866025 -0.267024 -0.288778
v -0.0368485 -0.00582525 0.293766
v 0.209609 0.225276 -0.282132
v 0.290294 0.0220553 -0.0177869
v -0.173215 -0.276959 -0.238838
v 0.263888 -0.145265 0.256203
v 0.277484 -0.177123 0.229879
v 0.269766 -0.0818824 0.248768
v 0.27714 -0.178431 -0.231728
v 0.0558783 0.219277 -0.291328
v 0.280959 -0.106397 -0.215325
v 0.278595 -0.0681222 -0.230152
v -0.288675 0.021651 0.173102
v 0.288918 0.0608895 -0.0928478
v 0.27962 -0.0506355 0.217784
v -0.289171 -0.233798 -0.137142
v 0.0546425 -0.134248 0.292851
v -0.120067 0.177392 -0.28996
v -0.292568 0.0684581 -0.0765547
v -0.282875 -0.200958 0.22025
v -0.262094 -0.233435 0.261735
v -0.288895 -0.175412 0.123287
v -0.279512 -0.224597 -0.231882
v -0.219208 -0.134233 -0.280721
v -0.242364 -0.168651 -0.274515
v -0.0866025 0.310326 -0.288778
v -0.00657396 -0.271131 -0.232147
v -0.0315956 -0.274738 -0.195659
v 0.117509 -0.174677 0.289843
v 0.24609 -0.271673 -0.1083
v -0.272685 -0.0593396 0.250782
v -0.259631 0.283621 -0.263568
v -0.234589 0.232146 -0.277704
v -0.246703 0.191058 -0.270092
v -0.266744 0.250181 -0.258672
v -0.272196 0.214571 -0.249877
v -0.233498 0.314308 -0.242771
v 0 -0.267024 0.288572
v 0.288675 0.0697635 0.173102
v 0.278707 -0.112442 0.225249
v -0.294121 0.190921 -0.0574504
v 0.142878 -0.282127 -0.208183
v 0.171828 0.34007 0.0676859
v 0.105265 0.107001 0.291297
v 0.0244027 -0.103683 0.293618
v 0.0654472 0.114114 0.292797
v 0.281783 -0.146045 0.210225
v -0.139906 -0.15727 0.289945
v -0.173205 -0.170799 0.288572
v 0.224268 -0.276838 0.0607563
v 0.134661 0.25656 -0.292239
v -0.294558 0.15668 0.0167078
v -0.265974 -0.0211371 0.263743
v -0.270592 -0.267024 0.24641
v -0.163052 -0.284712 0.161959
v 0.287747 -0.147697 0.0612223
v 0.00856073 0.222652 -0.291497
v -0.13191 -0.00183619 -0.289667
v -0.243871 0.124793 0.277782
v -0.173205 0.021651 -0.288778
v 0.250863 0.318109 0.201157
v 0.288498 -0.0154284 0.132134
v 0.00263213 -0.230968 -0.290115
v -0.0655585 0.355068 -0.0272496
v -0.283977 -0.0968718 -0.20239
v 0 -0.267024 -0.288778
v 0.288449 -0.156479 -0.00778077
v 0.28792 -0.177736 0.0298782
v -0.28943 -0.198466 -0.137041
v 0.126254 -0.107065 -0.289493
v 0.172526 0.334156 0.194536
v 0.180308 0.324665 0.229077
v 0.29058 0.267692 0.0325663
v -0.0866025 0.310326 0.288572
v -0.0629387 0.321419 0.251825
v -0.103166 0.321628 0.247647
v 0.0374967 -0.270749 0.0589373
v 0.173205 -0.122686 -0.288778
v 0.0433013 -0.267024 0.288572
v 0.288675 -0.074574 0.173102
v -0.255513 -0.267929 -0.100086
v -0.15803 0.33942 0.0537581
v -0.290115 -0.00918304 -0.137288
v -0.292512 0.19689 0.0844768
v -0.290945 -0.0433653 -0.111366
v -0.289668 -0.0369281 -0.148037
v 0.220182 -0.150876 0.280478
v 0.224417 -0.18841 0.280521
v -0.288675 -0.0264615 0.173102
v -0.0740363 -0.0682734 0.292647
v -0.0496201 -0.110608 0.293206
v -0.22482 0.31754 0.232001
v 0.288675 -0.267024 -0.0867055
v 0.290351 0.0498493 0.00839694
v -0.261952 -0.12856 0.266881
v 0.0217332 -0.271396 -0.0533379
v 0.28809 -0.201 -0.0896897
v -0.173205 -0.267024 -0.288778
v 0.289017 -0.189339 -0.0351261
v -0.175832 -0.281154 0.11861
v 0.288571 0.0224684 0.112526
v 0.171191 -0.27344 -0.260756
v 0.168834 -0.279134 -0.229379
v 0.129904 -0.267024 -0.288778
v 0.288075 -0.0790664 -0.110226
v 0.236562 -0.133092 -0.274243
v 0.0866025 0.310326 0.288572
v -0.20588 0.328619 -0.185452
v 0.225102 0.32566 0.00841009
v 0.287986 -0.159158 -0.14215
v 0.288286 0.18552 -0.134484
v 0.289631 -0.22492 0.0376972
v 0.0333982 -0.274133 0.135172
v -0.288675 -0.074574 -0.173308
v 0.105444 -0.267024 -0.000106
v 0.289249 -0.223049 -0.0637978
v 0.0173172 0.341623 0.161267
v -0.13483 -0.123121 -0.288838
v -0.105355 -0.0996308 -0.289609
v 0.288675 0.0697635 -0.173308
v 0.168968 0.339035 -0.154108
v 0.192435 0.333871 -0.119149
v 0.00953466 -0.190456 -0.289572
v -0.235132 0.323564 -0.128174
v 0.286938 -0.159088 0.13437
v -0.0676197 -0.269849 0.0383384
v 0.173205 -0.0264615 0.288572
v -0.286369 -0.244689 -0.199617
v -0.244701 -0.0116791 -0.274901
v 0.288675 -0.267024 0.0864995
v 0.170531 -0.277488 0.233362
v 0.201266 0.323502 -0.218185
v 0.288162 -0.0375502 -0.127641
v -0.284079 -0.120814 0.201651
v 0.020605 0.268836 0.294511
v -0.281371 -0.0914106 0.217792
v 0.219325 -0.211886 -0.281468
v -0.173205 0.214101 -0.288778
v 0.141424 -0.271913 0.254054
v -0.011401 -0.104118 -0.291654
v -0.294025 0.117109 -0.00421128
v -0.0369275 -0.0699676 -0.29188
v -0.173205 0.214101 0.288572
v -0.210528 -0.271479 0.247325
v 0.289295 0.252426 -0.0609134
v 0.09584 0.240383 -0.293032
v -0.246769 0.317609 -0.203462
v -0.242832 0.322533 -0.0242892
v 0.00181352 0.319176 0.265375
v 0.237188 -0.271746 -0.241302
v 0.288675 -0.122686 0.173102
v 0.00380876 0.328691 0.234807
v -0.173205 0.0697635 -0.288778
v 0.072587 0.322387 -0.247438
v -0.0197556 -0.273187 0.176984
v 0.288675 0.310326 -0.0434043
v -0.130459 0.148306 0.290621
v -0.129486 0.103866 -0.289523
v -0.00536104 -0.272387 0.214415
v -0.173205 0.310326 0.288572
v -0.290102 0.0970248 0.133257
v -0.288675 0.0697635 0.173102
v 0.173205 0.214101 -0.288778
v -0.25758 0.310326 0.26185
v -0.241063 0.310326 0.273784
v -0.22104 0.310326 0.282213
v 0.0866025 0.310326 -0.288778
v -0.288675 0.310326 0.0431983
v -0.173205 0.310326 0.288572
v -0.173205 0.262213 0.288572
v -0.280332 -0.267024 0.226836
v -0.286589 -0.267024 0.202055
v 0.173205 0.0697635 -0.288778
v -0.288675 0.021651 0.173102
v 0.129904 0.310326 -0.288778
v -0.288675 0.117876 -0.173308
v 0.173205 0.262213 -0.288778
v -0.270592 0.310326 0.24641
v -0.288675 0.310326 0.0864995
v -0.173205 -0.074574 -0.288778
v -0.270592 -0.267024 0.24641
v -0.246513 -0.267024 -0.270695
v 0.286589 -0.267024 0.202055
v 0.280332 -0.267024 -0.227042
v -0.288675 0.214101 0.173102
v -0.173205 -0.218911 0.288572
v 0.288675 -0.218911 0.173102
v -0.288675 0.0697635 -0.173308
v -0.173205 0.262213 -0.288778
v 0.173205 0.165989 0.288572
v 0.173205 0.214101 0.288572
v -0.288675 0.310326 0.173102
v -0.288675 0.310326 0.129801
v 0.288675 -0.267024 0.173102
v 0.280332 -0.267024 0.226836
v 0 0.310326 -0.288778
v -0.261952 -0.267024 -0.257683
v 0.173205 0.0697635 0.288572
v 0.288675 0.214101 -0.173308
v -0.288675 -0.170799 0.173102
v -0.288675 -0.0264615 0.173102
v -0.0433013 0.310326 -0.288778
v -0.0433013 -0.267024 -0.288778
v 0.288675 -0.218911 -0.173308
v 0.288675 -0.170799 -0.173308
v -0.288675 -0.267024 -0.0434043
v -0.288675 -0.267024 0.129801
v -0.288675 -0.267024 -0.130007
v 0.288675 0.0697635 0.173102
v 0.286589 0.310326 0.202055
v 0.173205 0.117876 0.288572
v 0.129904 0.310326 0.288572
v 0.288675 0.310326 0.0431983
v -0.0866025 0.310326 0.288572
v 0.173205 -0.267024 -0.288778
v 0.22104 -0.267024 -0.282419
v 0.288675 0.214101 0.173102
v -0.288675 -0.267024 0.0864995
v -0.288675 -0.267024 0.0431983
v 0.074557 -0.267024 -0.074665
v -0.288675 -0.267024 -0.173308
v 0.288675 0.310326 -0.173308
v 0.288675 0.262213 -0.173308
v 0.129904 -0.267024 0.288572
v 0.173205 -0.267024 0.288572
v -0.173205 0.021651 0.288572
v 0.241063 -0.267024 -0.27399
v 0.25758 -0.267024 -0.262055
v 0.241063 0.310326 -0.27399
v -0.0866025 0.310326 -0.288778
v -0.288675 0.0697635 0.173102
v 0.288675 0.165989 0.173102
v 0.0433013 -0.267024 0.288572
v 0.0866025 -0.267024 0.288572
v 0.173205 -0.218911 0.288572
v -0.173205 -0.122686 0.288572
v -0.288675 -0.218911 0.173102
v -0.288675 -0.267024 0.173102
v 0.288675 0.117876 0.173102
v 0.288675 -0.267024 -0.0434043
v 0.288675 -0.267024 -0.0867055
v 0.288675 0.310326 0.173102
v 0.288675 0.310326 -0.130007
v -0.173205 0.117876 -0.288778
v -0.173205 0.0697635 -0.288778
v -0.173205 -0.267024 0.288572
v 0.103842 -0.267024 0.018204
v 0.095566 -0.267024 0.044457
v -0.288675 0.117876 0.173102
v -0.288675 0.165989 0.173102
v 0.288675 -0.267024 0.0864995
v 0.288675 -0.267024 0.0431983
v -0.288675 -0.218911 -0.173308
v -0.173205 -0.0264615 -0.288778
v 0.288675 -0.267024 -0.000103
v -0.288675 -0.170799 -0.173308
v 0.288675 -0.267024 0.173102
v 0.288675 0.0697635 -0.173308
v 0.099084 -0.267024 -0.03617
v 0.173205 -0.170799 0.288572
v 0.288675 0.021651 -0.173308
v 0.288675 -0.0264615 -0.173308
v -0.074559 -0.267024 0.074458
v -0.288675 -0.122686 0.173102
v 0.288675 0.310326 0.173102
v 0.288675 0.262213 0.173102
v 0.288675 0.310326 0.129801
v -0.099084 -0.267024 0.035962
v 0.22104 -0.267024 0.282213
v -0.173205 0.021651 -0.288778
v 0.173205 0.214101 -0.288778
v -0.173205 -0.170799 0.288572
v 0.288675 0.117876 -0.173308
v 0.286589 -0.267024 -0.202261
v 0.288675 -0.122686 0.173102
v 0.288675 -0.074574 0.173102
v 0.270592 0.310326 -0.246616
v -0.261952 0.310326 -0.257683
v -0.246513 0.310326 -0.270695
v -0.288675 -0.267024 -0.000103
v -0.173205 0.117876 0.288572
v -0.129904 0.310326 0.288572
v -0.099085 -0.267024 -0.036166
v -0.091317 -0.267024 -0.052824
v -0.173205 0.0697635 0.288572
v -0.173205 -0.170799 -0.288778
v -0.173205 -0.122686 -0.288778
v 0 -0.267024 -0.105547
v -0.0433013 -0.267024 0.288572
v 0.288675 0.165989 -0.173308
v 0.173205 0.021651 -0.288778
v -0.288675 -0.074574 -0.173308
v -0.288675 -0.267024 -0.0867055
v 0.173205 0.021651 0.288572
v 0.044565 -0.267024 0.095461
v 0.074562 -0.267024 0.074455
v -0.273887 0.310326 -0.241166
v -0.282316 0.310326 -0.221143
v -0.0866025 -0.267024 0.288572
v 0.288675 0.310326 -0.0867055
v 0.288675 0.310326 -0.0434043
v 0.288675 -0.267024 -0.130007
v -0.0866025 -0.267024 -0.288778
v -0.129904 -0.267024 -0.288778
v 0.129904 -0.267024 -0.288778
v 0.173205 -0.218911 -0.288778
v 0.173205 -0.170799 -0.288778
v 0.027287 -0.267024 -0.101955
v -0.22104 -0.267024 0.282213
v -0.036064 -0.267024 -0.099188
v -0.173205 -0.074574 0.288572
v 0.288675 -0.074574 -0.173308
v 0.280332 0.310326 -0.227042
v 0.173205 -0.074574 -0.288778
v 0.173205 -0.0264615 -0.288778
v -0.173205 -0.267024 -0.288778
v 0.25758 0.310326 0.26185
v 0.173205 -0.267024 -0.288778
v -0.288675 -0.0264615 -0.173308
v -0.173205 -0.267024 -0.288778
v -0.173205 -0.218911 -0.288778
v 0.288675 -0.267024 0.129801
v -0.288675 0.021651 -0.173308
v -0.129904 -0.267024 0.288572
v -0.288675 0.310326 -0.130007
v 0.22104 0.310326 -0.282419
v -0.202158 -0.267024 -0.286692
v 0.173205 0.117876 -0.288778
v -0.226939 -0.267024 -0.280435
v -0.173205 0.214101 0.288572
v -0.282316 -0.267024 -0.221143
v -0.288675 -0.267024 -0.173308
v -0.086374 -0.267024 0.060378
v 0.173205 0.310326 -0.288778
v 0 0.310326 0.288572
v 0.0433013 0.310326 0.288572
v 0.25758 0.310326 -0.262055
v 0.288675 -0.0264615 0.173102
v -0.226939 0.310326 -0.280435
v 0.173205 0.310326 0.288572
v -0.288675 0.310326 -0.173308
v 0.173205 -0.074574 0.288572
v 0.173205 -0.0264615 0.288572
v -0.288675 0.310326 -0.0867055
v 0.173205 -0.122686 0.288572
v -0.173205 -0.267024 0.288572
v -0.288675 -0.122686 -0.173308
v -0.288675 0.165989 -0.173308
v 0.288675 0.310326 -0.000103
v -0.288675 0.310326 -0.000103
v -0.044561 -0.267024 0.095462
v -0.288675 0.310326 -0.0434043
v 0.173205 0.262213 0.288572
v -0.173205 -0.0264615 0.288572
v 0.286589 0.310326 -0.202261
v 0.288675 0.310326 -0.173308
v 0.288675 0.021651 0.173102
v 0.0866025 0.310326 0.288572
v 0.105444 -0.267024 -0.000106
v -0.288675 0.310326 0.173102
v -0.288675 0.262213 0.173102
v -0.286589 0.310326 0.202055
v -0.25758 -0.267024 0.26185
v 0.22104 0.310326 0.282213
v -0.173205 0.310326 0.288572
v 0.0433013 -0.267024 -0.288778
v -0.273887 -0.267024 -0.241166
v 0 -0.267024 -0.288778
v -0.288675 0.214101 -0.173308
v -0.288675 0.262213 -0.173308
v 0.173205 -0.267024 0.288572
v -0.280332 0.310326 0.226836
v -0.06048 -0.267024 -0.086477
v 0.241063 0.310326 0.273784
v -0.105444 -0.267024 -0.000102
v 0.173205 -0.122686 -0.288778
v 0.270592 0.310326 0.24641
v 0.280332 0.310326 0.226836
v 0.173205 0.165989 -0.288778
v -0.173205 0.165989 0.288572
v 0.0433013 0.310326 -0.288778
v 0.044559 -0.267024 -0.095669
v 0.270592 -0.267024 0.24641
v 0.288675 -0.267024 -0.173308
v -0.241063 -0.267024 0.273784
v 0.027293 -0.267024 0.101747
v -0.129904 0.310326 -0.288778
v -0.018308 -0.267024 0.103739
v -0.202158 0.310326 -0.286692
v -0.173205 0.214101 -0.288778
v -0.173205 0.310326 -0.288778
v -0.173205 0.165989 -0.288778
v 2e-06 -0.267024 0.105341
v 0.173205 0.310326 -0.288778
v -0.0433013 0.310326 0.288572
v 0.173205 0.310326 0.288572
v 0.241063 -0.267024 0.273784
v -0.07456 -0.267024 -0.074663
v 0.270592 -0.267024 -0.246616
v -0.288675 0.310326 -0.173308
v 0.288675 0.310326 0.0864995
v -0.288675 -0.267024 0.173102
v 0.288675 -0.170799 0.173102
v -0.288675 -0.074574 0.173102
v 0.0866025 -0.267024 -0.288778
v 0.25758 -0.267024 0.26185
v 0.288675 -0.122686 -0.173308
v 0.288675 -0.267024 -0.173308
v 0 -0.267024 0.288572
v -0.173205 0.310326 -0.288778
v 0.091315 -0.267024 -0.052828
f 1040 3 57
f 6 7 8
f 10 459 11
f 57 3 934
f 17 18 19
f 21 992 393
f 148 659 658
f 132 196 332
f 26 167 621
f 33 661 410
f 332 357 132
f 14 893 68
f 893 14 563
f 884 92 363
f 642 15 314
f 314 15 717
f 46 47 170
f 1042 610 611
f 28 135 320
f 53 51 395
f 129 22 394
f 394 22 757
f 757 22 52
f 65 653 750
f 645 509 719
f 450 319 1041
f 477 864 695
f 633 25 289
f 78 545 80
f 289 25 672
f 26 25 633
f 633 23 522
f 972 880 1061
f 295 170 267
f 34 802 741
f 691 218 61
f 97 98 99
f 27 58 591
f 27 544 977
f 106 107 108
f 111 112 113
f 544 27 628
f 135 28 137
f 137 28 869
f 62 122 1065
f 31 44 873
f 1075 32 1079
f 1079 32 421
f 637 34 116
f 23 688 691
f 630 29 589
f 38 48 615
f 387 1028 784
f 1051 659 366
f 158 66 160
f 467 161 162
f 163 164 165
f 36 38 539
f 38 68 303
f 893 31 1002
f 175 176 177
f 285 354 1001
f 181 182 183
f 1079 365 425
f 448 735 450
f 117 477 695
f 63 191 192
f 918 914 850
f 780 197 198
f 35 225 200
f 39 44 31
f 977 58 27
f 1068 164 44
f 1068 39 748
f 698 41 812
f 812 41 1042
f 1042 1041 812
f 726 60 223
f 124 135 226
f 227 228 114
f 666 56 141
f 992 86 991
f 66 985 121
f 236 819 1
f 241 692 243
f 880 806 808
f 42 351 618
f 351 42 208
f 873 44 164
f 323 1012 1084
f 44 39 1068
f 258 259 2
f 45 1037 653
f 1037 45 55
f 266 218 688
f 615 48 984
f 984 48 35
f 633 5 23
f 939 807 907
f 282 50 891
f 52 881 757
f 52 880 972
f 582 715 764
f 274 55 273
f 1037 55 664
f 23 5 688
f 200 356 606
f 58 589 29
f 451 221 801
f 303 1002 645
f 306 846 307
f 309 177 310
f 204 61 218
f 61 649 691
f 62 124 122
f 62 320 135
f 322 88 294
f 242 387 1044
f 327 328 329
f 134 121 766
f 994 306 333
f 946 711 125
f 631 632 948
f 755 1046 416
f 339 851 341
f 933 166 440
f 342 1012 323
f 736 912 338
f 916 1004 899
f 645 1002 617
f 987 557 1019
f 1085 545 1086
f 976 381 139
f 360 359 564
f 361 362 76
f 54 364 425
f 246 1053 1025
f 1056 77 1054
f 206 585 675
f 633 167 26
f 941 111 974
f 157 199 426
f 189 1012 342
f 189 342 1080
f 188 255 189
f 189 255 337
f 255 718 722
f 90 890 254
f 759 951 1056
f 136 79 590
f 401 110 402
f 403 229 352
f 405 406 238
f 596 346 966
f 943 411 150
f 98 97 412
f 590 596 136
f 416 1046 418
f 419 420 1077
f 301 582 1073
f 251 252 836
f 215 216 836
f 430 1016 429
f 1000 201 81
f 570 436 437
f 1000 81 130
f 982 81 216
f 130 81 982
f 258 2 1
f 131 130 982
f 933 440 1082
f 444 955 956
f 956 798 796
f 426 856 157
f 157 856 886
f 838 690 689
f 403 352 465
f 296 49 939
f 468 12 1087
f 839 605 1062
f 471 235 109
f 127 837 508
f 127 835 656
f 476 1073 980
f 604 792 683
f 186 184 311
f 248 761 915
f 1088 481 482
f 1089 1086 1090
f 915 838 248
f 838 389 248
f 51 1064 16
f 440 166 517
f 486 1091 1092
f 199 157 831
f 278 199 831
f 954 790 798
f 263 73 648
f 494 495 663
f 496 497 1093
f 498 1047 374
f 1009 119 334
f 1058 502 713
f 503 504 505
f 119 1009 1094
f 320 62 123
f 123 510 747
f 526 516 472
f 549 548 927
f 21 88 981
f 926 549 927
f 793 594 257
f 536 535 69
f 1004 69 535
f 972 472 69
f 472 516 536
f 536 69 472
f 228 528 114
f 529 1095 308
f 95 1030 195
f 532 333 306
f 207 533 110
f 95 195 728
f 91 729 728
f 729 1019 1036
f 367 335 795
f 325 1030 95
f 95 1017 325
f 1086 545 1090
f 609 681 550
f 694 566 430
f 61 488 234
f 551 552 421
f 1096 554 555
f 693 694 534
f 239 559 560
f 561 562 400
f 755 338 566
f 410 592 593
f 128 431 91
f 603 363 92
f 603 138 363
f 648 609 93
f 118 648 93
f 576 577 578
f 580 581 1097
f 256 47 46
f 683 586 245
f 47 256 769
f 851 1098 1084
f 368 589 58
f 231 721 586
f 594 595 257
f 50 597 598
f 1099 599 163
f 231 586 792
f 792 156 231
f 430 503 694
f 1039 1100 743
f 1039 605 839
f 486 317 1101
f 433 458 369
f 977 369 368
f 824 889 465
f 854 853 364
f 374 298 399
f 944 169 407
f 70 766 309
f 407 945 944
f 59 1102 909
f 407 817 945
f 944 70 169
f 639 640 641
f 641 640 540
f 503 997 694
f 1103 89 697
f 969 335 558
f 473 813 919
f 654 718 233
f 653 65 654
f 110 533 656
f 730 849 417
f 887 849 730
f 742 597 72
f 72 597 50
f 664 638 1037
f 670 149 667
f 742 72 90
f 90 462 742
f 284 674 1104
f 1105 451 568
f 793 321 594
f 816 679 678
f 458 426 199
f 879 458 199
f 479 684 685
f 577 1106 211
f 899 481 916
f 1046 404 418
f 1046 693 404
f 849 498 244
f 455 696 1107
f 296 289 672
f 560 701 702
f 275 159 958
f 275 685 159
f 275 958 999
f 595 710 1108
f 711 712 1109
f 393 714 414
f 479 277 542
f 435 914 120
f 850 497 918
f 918 120 914
f 720 1110 1111
f 220 222 868
f 426 458 433
f 685 96 159
f 815 159 96
f 159 815 814
f 428 96 685
f 206 1112 1113
f 737 738 739
f 684 428 685
f 794 313 903
f 510 746 747
f 732 143 142
f 401 475 959
f 1025 728 195
f 1025 128 728
f 1030 17 19
f 573 543 949
f 643 758 759
f 573 937 543
f 882 906 576
f 1106 576 906
f 636 637 800
f 786 1055 485
f 314 655 739
f 1030 19 247
f 616 299 222
f 977 930 369
f 171 1114 7
f 775 191 776
f 6 171 7
f 366 6 8
f 782 249 250
f 250 781 782
f 788 697 789
f 788 548 1115
f 788 789 927
f 398 115 101
f 66 158 985
f 586 683 792
f 306 994 846
f 101 115 406
f 644 795 969
f 371 1034 797
f 406 464 101
f 801 1090 545
f 406 115 238
f 101 464 180
f 804 805 1116
f 806 807 808
f 892 1027 144
f 763 208 217
f 884 363 746
f 814 815 578
f 980 177 816
f 363 138 747
f 700 818 570
f 411 819 1117
f 325 17 1030
f 822 865 524
f 905 546 825
f 868 222 299
f 151 616 222
f 801 518 1090
f 368 369 458
f 368 458 879
f 147 761 248
f 389 147 248
f 905 842 180
f 919 723 473
f 1045 201 1071
f 1069 390 600
f 585 172 899
f 851 114 341
f 245 447 837
f 855 377 1067
f 1118 447 245
f 860 463 861
f 64 776 63
f 837 683 245
f 298 1007 926
f 941 841 335
f 868 1119 220
f 56 137 869
f 926 967 960
f 928 244 399
f 928 399 298
f 286 461 650
f 300 1056 1054
f 1120 300 1054
f 961 880 52
f 52 22 961
f 657 16 60
f 291 209 1121
f 960 928 298
f 50 282 890
f 507 862 833
f 944 766 70
f 1122 591 946
f 215 252 71
f 901 902 1123
f 897 340 71
f 252 897 71
f 256 46 907
f 160 66 908
f 60 16 1064
f 1124 674 1125
f 561 400 810
f 1077 910 419
f 71 340 787
f 215 71 1021
f 355 4 917
f 787 671 1021
f 787 1021 71
f 704 1032 686
f 704 686 1050
f 237 989 613
f 488 237 234
f 856 497 496
f 932 931 83
f 920 324 921
f 237 488 397
f 936 13 105
f 613 462 234
f 1126 462 613
f 49 808 807
f 412 97 726
f 942 76 196
f 361 1127 362
f 234 649 61
f 908 134 945
f 134 944 945
f 945 133 908
f 271 270 616
f 125 1109 126
f 616 799 271
f 680 288 948
f 288 313 948
f 1128 813 285
f 90 72 890
f 131 671 1129
f 981 322 1130
f 981 88 322
f 86 507 87
f 86 981 507
f 833 87 507
f 281 720 408
f 1131 281 30
f 281 1131 1110
f 422 500 708
f 899 843 585
f 288 519 443
f 1116 73 827
f 194 438 979
f 847 530 1132
f 263 827 73
f 172 206 1113
f 805 73 1116
f 36 35 48
f 609 73 805
f 988 1032 557
f 681 609 805
f 991 714 992
f 1133 917 993
f 177 309 175
f 995 996 1134
f 635 440 439
f 731 761 147
f 105 13 104
f 1023 1022 153
f 153 1070 818
f 153 74 1023
f 818 74 153
f 74 345 962
f 1070 570 818
f 153 1135 1136
f 1136 1070 153
f 1020 99 98
f 1017 1036 1013
f 166 1121 209
f 1057 403 465
f 1013 325 1017
f 670 619 669
f 1137 537 355
f 268 733 550
f 484 268 550
f 843 871 675
f 503 1035 504
f 166 209 973
f 1013 1036 511
f 542 543 479
f 1138 597 1139
f 489 690 345
f 598 597 1138
f 641 642 314
f 453 1140 264
f 121 371 614
f 632 382 279
f 1141 1048 150
f 1049 816 177
f 240 1142 1143
f 382 383 279
f 278 879 199
f 109 706 705
f 471 705 299
f 1143 527 240
f 719 441 337
f 1144 1059 1145
f 1062 1060 839
f 146 857 438
f 367 538 940
f 264 279 383
f 773 40 1146
f 263 648 803
f 1070 1147 1148
f 1071 201 1000
f 385 569 384
f 1074 468 1087
f 20 1074 1087
f 791 550 681
f 580 1149 174
f 223 486 1092
f 513 1076 373
f 791 681 1150
f 605 1039 743
f 870 1081 1151
f 722 645 719
f 722 654 305
f 645 722 305
f 509 645 617
f 930 918 369
f 65 305 654
f 895 9 11
f 884 537 1152
f 324 901 921
f 1017 729 1036
f 807 939 49
f 785 1059 783
f 1153 551 1154
f 777 753 1155
f 503 454 1035
f 85 988 987
f 431 85 987
f 85 297 976
f 700 489 818
f 911 573 765
f 423 533 207
f 906 515 968
f 75 844 1156
f 726 97 60
f 968 75 1156
f 845 844 75
f 347 208 763
f 195 1030 247
f 75 968 515
f 113 1157 1158
f 114 851 227
f 75 515 100
f 853 677 1075
f 466 774 37
f 759 1056 300
f 600 390 778
f 834 886 250
f 1159 884 1152
f 646 265 1160
f 303 539 38
f 973 951 758
f 1160 265 1161
f 1161 950 699
f 699 950 489
f 389 265 646
f 682 1016 566
f 932 155 180
f 221 451 370
f 294 88 290
f 1018 2 259
f 1039 839 103
f 802 714 991
f 507 1162 862
f 594 321 326
f 321 301 326
f 337 441 227
f 296 295 289
f 499 219 1076
f 839 752 770
f 948 794 947
f 103 839 770
f 1061 811 472
f 133 945 817
f 134 66 121
f 766 944 134
f 666 43 1053
f 463 1016 682
f 806 84 554
f 801 568 451
f 625 518 221
f 221 452 625
f 554 807 806
f 877 898 896
f 1163 610 373
f 928 935 244
f 1096 907 554
f 807 554 907
f 876 84 961
f 806 961 84
f 165 164 1068
f 1164 1078 1165
f 1072 1069 601
f 438 439 146
f 930 544 162
f 555 84 140
f 555 554 84
f 1064 1166 210
f 3 1040 602
f 3 602 226
f 602 1040 709
f 226 934 3
f 284 403 1057
f 187 313 178
f 1167 731 1168
f 731 751 1168
f 1051 1145 1059
f 751 731 547
f 751 547 970
f 1138 361 598
f 293 213 469
f 1138 1127 361
f 146 439 517
f 216 81 771
f 771 81 201
f 876 140 84
f 657 60 97
f 1020 717 457
f 350 975 1020
f 1169 193 1170
f 752 1043 902
f 902 770 752
f 1041 1042 611
f 1171 456 1172
f 975 657 99
f 99 1020 975
f 457 350 1020
f 298 374 668
f 908 943 1173
f 1032 704 460
f 602 1031 124
f 446 612 830
f 703 312 744
f 744 743 1174
f 1154 551 783
f 887 1047 498
f 923 706 1083
f 919 909 925
f 723 919 925
f 109 705 471
f 895 11 523
f 473 723 336
f 219 499 1029
f 1172 24 1175
f 908 1173 160
f 66 134 908
f 989 1176 13
f 925 866 723
f 1002 303 68
f 1073 476 301
f 1177 455 1107
f 1024 1022 1023
f 1178 859 487
f 822 662 865
f 546 859 1178
f 506 103 324
f 811 672 526
f 1011 571 1010
f 915 761 1179
f 664 637 636
f 155 932 83
f 42 200 225
f 225 208 42
f 1180 1008 1007
f 1006 1005 1003
f 82 155 83
f 947 631 948
f 82 398 155
f 1181 749 1182
f 470 1183 854
f 196 76 1184
f 148 171 6
f 1185 1186 1187
f 6 366 659
f 889 1057 465
f 1057 283 284
f 1188 392 391
f 826 828 581
f 1043 752 754
f 1005 266 427
f 907 1096 256
f 752 1060 523
f 684 479 937
f 371 985 1034
f 983 986 1123
f 767 371 797
f 395 51 16
f 287 408 720
f 287 79 136
f 973 517 166
f 570 437 700
f 981 86 21
f 1088 916 481
f 1145 366 1189
f 1174 1190 978
f 581 493 826
f 581 580 493
f 381 297 771
f 685 275 277
f 479 685 277
f 988 521 1032
f 849 887 498
f 413 417 849
f 745 146 106
f 344 88 21
f 1191 971 529
f 1192 968 1156
f 128 1025 43
f 350 470 854
f 128 43 396
f 891 132 522
f 306 307 1063
f 196 132 891
f 151 1193 1178
f 334 840 26
f 966 964 408
f 964 281 408
f 1104 674 1194
f 1194 674 1124
f 963 117 800
f 1023 962 1024
f 167 132 357
f 526 672 840
f 1057 889 888
f 57 1181 1040
f 522 167 633
f 231 232 721
f 960 1195 1196
f 316 98 412
f 174 1197 493
f 493 580 174
f 957 375 855
f 956 955 953
f 953 954 956
f 952 1198 376
f 957 1199 375
f 85 251 297
f 690 489 950
f 950 689 690
f 1200 462 1126
f 431 396 251
f 191 775 949
f 868 828 826
f 311 253 186
f 304 857 1201
f 112 941 367
f 498 399 244
f 1202 996 188
f 552 627 1079
f 1203 500 1204
f 879 762 368
f 133 258 819
f 819 943 133
f 989 13 936
f 997 904 885
f 1205 40 420
f 921 901 1123
f 1196 935 928
f 56 934 137
f 286 288 680
f 934 56 666
f 729 1017 95
f 148 449 269
f 171 148 269
f 506 1206 1207
f 929 674 284
f 33 662 661
f 297 381 976
f 738 641 739
f 632 1208 680
f 355 1186 1137
f 947 584 631
f 167 522 132
f 927 967 926
f 353 821 345
f 1209 365 627
f 602 709 1210
f 226 137 934
f 135 137 226
f 1097 581 923
f 774 466 922
f 1211 556 496
f 1211 496 1093
f 91 728 128
f 447 730 837
f 660 997 885
f 1152 537 1137
f 761 731 1167
f 606 667 149
f 875 37 626
f 404 693 262
f 1067 377 224
f 724 173 149
f 1006 1212 1005
f 173 984 318
f 173 318 606
f 1001 737 1213
f 86 992 21
f 186 253 87
f 16 657 395
f 942 361 76
f 900 896 898
f 87 833 186
f 87 253 741
f 892 273 601
f 86 87 741
f 1214 1047 887
f 443 178 288
f 198 1215 1216
f 1120 1054 77
f 965 684 937
f 479 543 937
f 800 116 963
f 276 762 879
f 1217 442 1218
f 556 878 781
f 1068 213 165
f 129 877 876
f 877 896 876
f 1219 365 1209
f 102 324 920
f 497 856 433
f 163 599 873
f 983 1123 902
f 497 433 918
f 864 1029 499
f 1220 1065 379
f 122 379 1065
f 666 57 934
f 859 546 905
f 1221 1065 1220
f 858 387 386
f 285 473 388
f 354 285 388
f 979 438 857
f 647 292 293
f 884 716 92
f 603 92 787
f 92 716 671
f 175 309 766
f 271 406 405
f 1168 852 1216
f 733 725 93
f 93 724 118
f 1093 497 850
f 17 1222 18
f 1223 187 1224
f 1225 212 145
f 1225 145 1226
f 283 848 929
f 1226 145 1227
f 1186 355 1187
f 845 1010 844
f 145 623 1227
f 279 154 1228
f 395 214 53
f 558 841 1229
f 646 1160 1175
f 463 682 1230
f 1026 272 82
f 958 159 814
f 746 537 884
f 1154 783 1144
f 191 63 776
f 783 1059 1144
f 326 678 595
f 678 710 595
f 822 661 662
f 875 588 587
f 140 896 867
f 140 867 555
f 349 501 269
f 449 349 269
f 970 349 751
f 1067 224 784
f 715 582 301
f 1156 844 1231
f 221 518 801
f 575 190 1062
f 574 190 575
f 575 249 574
f 249 575 829
f 1062 312 575
f 831 829 830
f 37 774 626
f 1060 1062 190
f 956 796 444
f 55 274 664
f 557 987 988
f 987 91 431
f 80 545 1085
f 1210 1031 602
f 827 20 1116
f 1232 842 825
f 175 766 614
f 648 118 803
f 821 383 331
f 240 527 1233
f 181 330 182
f 820 1065 1221
f 324 102 506
f 387 242 386
f 817 407 259
f 564 386 242
f 14 615 358
f 358 563 14
f 748 242 469
f 469 1068 748
f 610 1042 41
f 242 748 564
f 398 1234 1235
f 361 942 598
f 942 891 598
f 1233 527 1197
f 49 811 1061
f 223 60 486
f 794 948 313
f 866 925 187
f 178 443 866
f 187 178 866
f 462 1200 742
f 197 1033 198
f 187 925 1236
f 343 809 1237
f 638 664 636
f 737 639 738
f 615 68 38
f 482 481 172
f 481 899 172
f 1225 1226 1238
f 97 99 657
f 799 616 151
f 140 876 896
f 321 793 790
f 793 798 790
f 788 1115 697
f 152 55 45
f 600 601 1069
f 601 273 152
f 957 491 579
f 310 70 309
f 68 615 14
f 216 771 836
f 836 252 215
f 292 784 224
f 606 149 173
f 1003 769 1239
f 267 170 47
f 940 1120 1157
f 946 29 711
f 1052 179 779
f 940 424 1120
f 430 566 1016
f 609 733 93
f 1240 1241 920
f 344 21 393
f 367 940 112
f 843 675 585
f 929 676 1125
f 464 905 180
f 822 772 661
f 1019 729 91
f 768 190 574
f 698 812 620
f 501 1242 1114
f 906 1192 1106
f 269 501 171
f 79 287 786
f 1243 767 797
f 828 706 923
f 318 35 200
f 54 1219 1244
f 402 475 401
f 54 365 1219
f 151 487 799
f 1245 898 877
f 15 642 391
f 775 765 949
f 580 1097 1246
f 954 764 790
f 764 715 790
f 909 1247 1236
f 368 762 589
f 993 917 4
f 15 392 457
f 642 540 391
f 391 392 15
f 391 540 874
f 816 1049 679
f 686 696 455
f 118 724 149
f 1093 850 1248
f 725 724 93
f 94 843 1004
f 535 94 1004
f 535 687 94
f 881 916 757
f 871 94 687
f 871 843 94
f 909 1102 1249
f 1247 909 1249
f 298 926 960
f 1229 841 348
f 518 1250 1090
f 1251 813 1252
f 440 517 439
f 703 744 978
f 193 1169 635
f 1051 366 1145
f 929 284 283
f 327 459 380
f 381 201 1045
f 470 1253 1183
f 227 441 228
f 883 773 673
f 466 773 883
f 827 263 634
f 41 512 513
f 733 609 550
f 170 939 46
f 47 1003 267
f 11 459 754
f 456 970 1172
f 1011 428 572
f 96 428 100
f 515 882 96
f 100 515 96
f 815 96 882
f 1011 845 100
f 1011 100 428
f 1254 567 569
f 567 1254 12
f 750 67 65
f 68 893 1002
f 448 567 12
f 12 468 448
f 439 438 635
f 580 1246 1149
f 1255 1055 1256
f 39 893 563
f 384 732 1257
f 381 1045 139
f 415 847 1132
f 902 901 770
f 529 971 1095
f 897 168 924
f 413 935 1258
f 952 376 1259
f 413 244 935
f 951 973 209
f 456 501 349
f 748 563 564
f 329 328 740
f 747 746 363
f 747 138 320
f 1260 1132 530
f 135 124 62
f 28 320 138
f 1043 983 902
f 732 384 569
f 894 1014 869
f 526 472 811
f 886 834 157
f 496 886 856
f 972 1061 472
f 1261 900 1245
f 566 693 755
f 1204 500 422
f 276 278 1078
f 894 869 28
f 603 894 138
f 524 823 822
f 858 268 484
f 727 1262 1263
f 115 1235 238
f 101 180 155
f 155 398 101
f 1245 877 1264
f 898 1245 900
f 1235 115 398
f 837 730 508
f 508 835 127
f 517 106 146
f 647 469 242
f 725 360 724
f 1193 151 222
f 1182 749 1053
f 907 46 939
f 1191 435 315
f 1095 971 161
f 997 660 534
f 648 73 609
f 1262 911 1265
f 722 719 255
f 756 573 911
f 727 756 911
f 1180 1007 668
f 506 1038 103
f 1007 298 668
f 764 514 582
f 716 1159 1129
f 716 1129 671
f 576 578 882
f 576 1106 577
f 522 282 891
f 1266 558 1229
f 1267 397 204
f 204 474 1267
f 368 58 977
f 61 204 488
f 218 474 204
f 441 719 509
f 51 1244 1166
f 798 793 1268
f 533 604 656
f 858 386 268
f 820 1221 1269
f 208 225 217
f 767 614 371
f 90 649 462
f 421 553 551
f 829 703 830
f 897 924 1014
f 864 698 695
f 828 705 706
f 315 435 120
f 340 603 787
f 691 254 23
f 725 733 359
f 687 870 871
f 818 489 74
f 978 446 703
f 447 887 730
f 268 359 733
f 359 268 386
f 757 916 1088
f 1088 1270 757
f 319 669 812
f 619 620 669
f 812 669 620
f 1193 222 220
f 149 803 118
f 489 700 699
f 324 103 770
f 22 129 876
f 1271 677 853
f 129 1272 1264
f 676 929 848
f 1264 877 129
f 394 757 1270
f 394 1270 1272
f 570 1070 230
f 260 232 231
f 232 1273 721
f 260 156 423
f 1231 673 1274
f 809 260 423
f 808 1061 880
f 1236 925 909
f 723 866 443
f 888 1026 283
f 443 336 723
f 1150 681 804
f 24 970 547
f 646 1175 24
f 740 212 1225
f 525 1151 1081
f 531 334 119
f 985 158 1034
f 525 531 119
f 525 119 1094
f 516 525 1081
f 364 350 854
f 214 350 364
f 670 669 734
f 1228 1208 632
f 1001 1213 1128
f 1128 285 1001
f 1066 161 971
f 1050 686 455
f 679 614 767
f 710 679 767
f 659 1051 658
f 1051 785 658
f 967 789 1195
f 710 767 1243
f 1049 177 176
f 69 881 972
f 1049 176 175
f 493 629 826
f 652 875 587
f 37 875 652
f 1275 779 1276
f 349 449 751
f 1276 651 1163
f 1276 779 651
f 651 779 179
f 732 779 1275
f 1275 143 732
f 219 311 184
f 477 963 311
f 573 756 937
f 759 758 951
f 888 272 1026
f 998 272 888
f 1014 340 897
f 647 1044 292
f 959 475 1277
f 963 253 311
f 645 305 303
f 1029 477 311
f 415 1132 1278
f 334 621 1009
f 510 993 4
f 120 918 930
f 1066 120 930
f 120 1066 315
f 597 742 1139
f 1279 1179 761
f 485 79 786
f 414 144 1027
f 273 144 274
f 1082 635 1169
f 162 161 1066
f 728 729 95
f 424 538 1015
f 1234 398 82
f 735 1074 634
f 306 1063 532
f 133 943 908
f 892 144 273
f 91 987 1019
f 278 831 830
f 511 1036 1019
f 1174 978 744
f 382 632 631
f 188 996 718
f 536 516 1081
f 124 226 602
f 1031 702 701
f 630 712 711
f 1267 474 1212
f 1075 425 853
f 521 988 976
f 369 918 433
f 665 534 660
f 1117 819 236
f 335 367 941
f 380 623 212
f 328 380 212
f 802 637 274
f 1280 1281 1282
f 841 941 1283
f 841 1283 348
f 997 503 904
f 837 127 683
f 683 127 604
f 493 527 629
f 1268 793 257
f 1079 627 365
f 489 345 74
f 319 450 735
f 270 471 299
f 108 758 643
f 108 107 758
f 643 624 644
f 623 10 622
f 360 358 173
f 620 619 618
f 1022 1024 1135
f 724 360 173
f 715 301 321
f 33 964 966
f 1284 809 343
f 806 880 961
f 457 717 15
f 70 310 169
f 100 845 75
f 532 692 333
f 338 755 736
f 1195 960 967
f 617 873 599
f 244 413 849
f 1285 307 846
f 324 770 901
f 872 420 652
f 666 141 43
f 652 420 40
f 37 652 40
f 727 1263 823
f 513 610 41
f 591 29 946
f 133 817 258
f 762 276 938
f 123 1065 820
f 83 931 848
f 1010 571 434
f 720 281 1110
f 720 832 287
f 246 1025 195
f 785 780 658
f 254 649 90
f 611 179 1041
f 942 196 891
f 836 297 251
f 1118 1214 447
f 608 607 713
f 887 447 1214
f 591 1122 628
f 441 509 185
f 828 868 705
f 1242 456 1171
f 185 228 441
f 528 185 1099
f 792 604 156
f 917 1133 863
f 863 355 917
f 316 314 717
f 252 251 168
f 876 961 22
f 251 85 431
f 266 1005 1212
f 716 884 1159
f 1049 614 679
f 601 1027 892
f 692 872 243
f 872 692 1077
f 51 53 1244
f 453 915 1179
f 1244 53 54
f 1166 1064 51
f 612 1190 1165
f 868 299 705
f 747 320 123
f 963 116 253
f 185 599 1099
f 1061 808 49
f 596 590 588
f 590 587 588
f 206 172 585
f 1286 583 584
f 477 117 963
f 117 347 763
f 829 575 312
f 117 695 347
f 919 813 1287
f 59 919 1287
f 1015 300 302
f 302 424 1015
f 291 951 209
f 864 477 1029
f 894 603 340
f 890 282 254
f 406 271 799
f 464 406 799
f 572 965 571
f 355 863 1187
f 966 136 596
f 588 626 346
f 794 903 1288
f 596 588 346
f 136 408 287
f 966 408 136
f 779 732 1052
f 1052 569 567
f 852 449 780
f 444 1289 1290
f 840 672 25
f 1291 777 1155
f 1108 710 1243
f 26 621 334
f 26 840 25
f 875 626 588
f 1234 272 998
f 951 291 1056
f 568 1292 1282
f 923 1083 1097
f 637 116 800
f 534 665 565
f 1051 1059 785
f 564 358 360
f 564 563 358
f 993 1269 1133
f 511 557 460
f 1211 878 556
f 923 581 828
f 1019 557 511
f 168 251 396
f 549 495 548
f 264 915 453
f 521 976 139
f 861 463 1230
f 521 139 696
f 924 141 56
f 869 1014 924
f 894 340 1014
f 302 300 1120
f 50 890 72
f 312 605 744
f 842 905 825
f 732 569 1052
f 949 543 542
f 1119 868 826
f 847 541 1111
f 936 613 989
f 909 919 59
f 928 960 1196
f 682 913 1293
f 6 659 148
f 540 642 641
f 952 442 1217
f 1294 88 344
f 643 759 624
f 829 834 249
f 547 731 147
f 536 1081 687
f 687 535 536
f 56 869 924
f 533 423 156
f 812 1041 319
f 500 1203 874
f 212 623 145
f 1274 673 773
f 531 525 516
f 234 462 649
f 1064 486 60
f 144 414 714
f 246 195 247
f 416 1295 755
f 486 1101 1091
f 519 288 286
f 330 990 895
f 640 708 500
f 1043 754 459
f 181 990 330
f 926 1007 549
f 1296 990 181
f 252 168 897
f 853 854 1271
f 745 857 146
f 1237 809 1297
f 152 1072 601
f 795 538 367
f 795 624 538
f 520 519 422
f 333 445 994
f 617 1002 31
f 715 321 790
f 228 185 528
f 396 431 128
f 380 10 623
f 227 851 1012
f 516 526 531
f 789 967 927
f 515 906 882
f 227 1012 337
f 756 480 965
f 865 480 524
f 1 819 258
f 512 864 499
f 202 217 409
f 541 720 1111
f 847 1111 530
f 1298 562 561
f 1188 391 874
f 1248 850 1299
f 400 562 207
f 207 562 423
f 420 419 1205
f 727 524 756
f 534 694 997
f 625 304 1300
f 1041 179 450
f 694 693 566
f 280 832 415
f 192 191 542
f 331 962 345
f 499 513 512
f 187 1223 313
f 467 162 1301
f 54 214 364
f 965 937 756
f 673 1010 883
f 429 1016 1302
f 769 1003 47
f 203 372 378
f 378 331 203
f 1228 632 279
f 510 4 746
f 102 1241 1206
f 147 389 646
f 507 981 1162
f 906 968 1192
f 1303 366 8
f 547 147 646
f 279 1140 154
f 568 78 1292
f 636 763 217
f 678 476 816
f 834 250 249
f 1007 1008 549
f 678 326 476
f 506 1207 1038
f 816 476 980
f 679 710 678
f 1250 625 1300
f 501 456 1242
f 142 1257 732
f 1273 232 1284
f 677 1033 32
f 957 492 491
f 492 490 491
f 727 911 1262
f 399 498 374
f 1304 18 1222
f 469 647 293
f 780 449 658
f 844 673 1231
f 297 836 771
f 540 640 500
f 533 156 604
f 656 604 127
f 746 4 537
f 1100 1038 1207
f 148 658 449
f 1064 1305 486
f 514 764 502
f 1215 1033 1306
f 872 1077 420
f 278 830 612
f 781 878 183
f 703 829 312
f 370 193 194
f 250 556 781
f 487 859 464
f 839 1060 752
f 485 1055 432
f 452 194 979
f 452 979 304
f 250 886 556
f 800 763 636
f 523 754 752
f 434 883 1010
f 1307 484 791
f 1308 677 1271
f 188 1080 1202
f 69 1004 881
f 622 1296 1227
f 829 831 834
f 417 205 508
f 1174 743 1100
f 1183 1271 854
f 788 927 548
f 483 938 276
f 276 1078 483
f 1309 579 491
f 464 799 487
f 107 973 758
f 557 1032 460
f 456 349 970
f 1100 1039 1038
f 672 811 296
f 680 948 632
f 708 520 422
f 9 990 622
f 9 895 990
f 848 1026 83
f 330 768 574
f 895 768 330
f 55 152 273
f 290 88 1294
f 1300 304 1201
f 859 905 464
f 935 1196 1258
f 775 1265 765
f 153 1022 1135
f 202 638 217
f 23 282 522
f 263 803 734
f 482 172 1113
f 102 920 1241
f 864 512 698
f 670 803 149
f 1046 755 693
f 772 823 1263
f 45 478 1072
f 45 1072 152
f 772 822 823
f 417 508 730
f 835 508 205
f 670 734 803
f 592 661 772
f 266 474 218
f 592 772 1263
f 1212 474 266
f 319 734 669
f 197 421 32
f 1031 1210 702
f 1044 784 292
f 701 122 1031
f 1310 1109 712
f 843 899 1004
f 736 755 1295
f 468 1074 735
f 962 1023 74
f 975 350 214
f 396 43 141
f 1015 538 624
f 141 168 396
f 17 325 1222
f 335 841 558
f 939 170 296
f 267 427 295
f 49 296 811
f 856 426 433
f 815 882 578
f 1289 796 1268
f 157 834 831
f 451 1105 1170
f 461 680 1208
f 257 595 1108
f 972 881 52
f 314 316 655
f 1311 713 607
f 608 955 952
f 953 608 713
f 608 1259 607
f 782 574 249
f 295 427 5
f 289 295 5
f 953 955 608
f 608 952 1259
f 760 753 777
f 1155 753 1180
f 350 457 470
f 326 595 594
f 1312 712 938
f 170 295 296
f 1306 1033 1313
f 450 567 448
f 1028 387 858
f 671 787 92
f 1076 513 499
f 122 124 1031
f 1097 1314 1246
f 768 523 1060
f 162 1066 930
f 410 593 30
f 802 34 637
f 106 517 107
f 517 973 107
f 1284 232 260
f 1190 612 446
f 994 445 1315
f 277 275 999
f 444 1290 442
f 1230 682 1293
f 589 762 630
f 873 164 163
f 478 233 995
f 653 233 478
f 1115 548 494
f 548 495 494
f 1305 1064 210
f 1284 1316 1273
f 689 950 265
f 915 353 838
f 1189 366 1317
f 313 288 178
f 1222 325 1013
f 1299 435 1191
f 949 542 191
f 1037 638 750
f 842 932 180
f 673 844 1010
f 495 549 1008
f 353 690 838
f 278 276 879
f 1065 123 62
f 82 272 1234
f 83 1026 82
f 1105 568 1281
f 922 883 434
f 241 432 445
f 432 241 485
f 851 1084 1012
f 1053 43 1025
f 486 1305 317
f 886 496 556
f 965 572 684
f 572 428 684
f 583 372 203
f 584 583 631
f 646 24 547
f 614 766 121
f 785 553 780
f 553 197 780
f 773 466 40
f 562 809 423
f 562 1298 1297
f 562 1297 809
f 568 545 78
f 271 405 235
f 1302 463 860
f 459 327 1043
f 327 983 1043
f 166 933 1121
f 67 750 202
f 688 427 266
f 427 688 5
f 202 409 67
f 853 425 364
f 520 388 336
f 538 424 940
f 388 520 708
f 183 182 781
f 283 1057 888
f 584 947 1288
f 1029 311 219
f 336 388 473
f 336 519 520
f 623 622 1227
f 622 990 1296
f 614 1049 175
f 949 765 573
f 302 1120 424
f 686 1032 521
f 1141 1173 1048
f 840 531 526
f 1236 1224 187
f 421 197 553
f 718 654 722
f 1078 278 612
f 621 357 1009
f 167 357 621
f 572 571 1011
f 370 1170 193
f 995 390 478
f 1197 527 493
f 1289 444 796
f 778 390 995
f 131 982 1021
f 77 1056 291
f 638 636 217
f 627 552 1153
f 470 392 1253
f 194 193 635
f 635 438 194
f 1190 446 978
f 410 661 592
f 397 989 237
f 1053 749 666
f 270 271 235
f 667 356 619
f 48 38 36
f 225 36 409
f 670 667 619
f 261 351 347
f 36 539 409
f 409 539 67
f 618 351 261
f 468 735 448
f 820 993 510
f 1082 440 635
f 263 734 634
f 754 523 11
f 523 768 895
f 338 682 566
f 539 303 305
f 640 354 708
f 915 264 353
f 304 979 857
f 620 618 261
f 282 23 254
f 1062 605 312
f 29 630 711
f 41 698 512
f 277 192 542
f 574 782 330
f 1318 286 650
f 778 995 1134
f 688 218 691
f 487 151 1178
f 265 950 1161
f 953 713 502
f 954 953 502
f 553 783 551
f 29 591 58
f 553 785 783
f 629 527 1143
f 1028 858 490
f 569 385 1254
f 1067 784 1028
f 587 590 243
f 1067 1028 492
f 480 756 524
f 183 878 1211
f 443 519 336
f 617 599 509
f 354 639 737
f 1167 1279 761
f 986 983 329
f 329 983 327
f 1176 397 1267
f 1319 284 1104
f 984 173 358
f 370 452 221
f 952 1217 1198
f 718 255 188
f 337 1012 189
f 129 394 1272
f 359 386 564
f 242 1044 647
f 1320 1218 1290
f 663 753 760
f 563 748 39
f 1033 677 1313
f 579 1199 957
f 599 185 509
f 1321 186 833
f 186 1321 184
f 1181 57 749
f 1053 246 1182
f 544 1301 162
f 753 1008 1180
f 1008 753 495
f 914 435 1299
f 425 365 54
f 457 392 470
f 1301 544 628
f 304 625 452
f 855 1067 957
f 975 395 657
f 852 198 1216
f 780 198 852
f 500 874 540
f 525 1094 1151
f 1256 280 1278
f 786 287 832
f 1055 786 280
f 102 1206 506
f 666 749 57
f 1055 280 1256
f 131 1021 671
f 801 545 568
f 784 1044 387
f 689 389 838
f 845 1011 1010
f 881 1004 916
f 427 267 1005
f 1127 1322 362
f 198 1033 1215
f 35 36 225
f 707 1063 910
f 707 1077 692
f 532 707 692
f 707 532 1063
f 737 1001 354
f 903 313 1223
f 708 354 388
f 751 852 1168
f 971 315 1066
f 1080 188 189
f 518 625 1250
f 1079 421 552
f 1045 1323 1107
f 485 241 243
f 35 318 984
f 415 541 847
f 796 798 1268
f 663 495 753
f 454 503 430
f 505 904 503
f 624 759 1015
f 827 1074 20
f 205 475 835
f 1277 475 205
f 205 1258 1277
f 954 502 764
f 612 1165 1078
f 544 930 977
f 360 725 359
f 591 628 27
f 260 809 1284
f 264 383 821
f 353 264 821
f 390 1069 1072
f 813 1128 1252
f 171 501 1114
f 996 995 233
f 718 996 233
f 1324 332 1184
f 402 656 835
f 28 138 894
f 380 328 327
f 280 415 1278
f 422 1318 1204
f 1006 1003 1239
f 356 618 619
f 1313 677 1308
f 821 331 345
f 768 1060 190
f 701 379 122
f 389 689 265
f 235 471 270
f 378 372 1325
f 380 459 10
f 11 9 10
f 1095 161 467
f 1191 315 971
f 696 686 521
f 1184 332 196
f 125 711 1109
f 712 630 938
f 1310 712 1312
f 750 653 1037
f 213 1068 469
f 943 819 411
f 653 478 45
f 773 1146 1274
f 534 565 262
f 202 750 638
f 1286 584 1288
f 390 1072 478
f 552 551 1153
f 370 194 452
f 720 541 832
f 33 966 346
f 1326 366 1303
f 1157 113 112
f 300 1015 759
f 1325 372 1286
f 203 331 383
f 382 203 383
f 382 631 583
f 243 590 79
f 203 382 583
f 1286 372 583
f 851 339 1098
f 1024 378 1325
f 1024 962 378
f 962 331 378
f 201 381 771
f 445 432 1315
f 1283 941 974
f 461 286 680
f 50 598 891
f 42 356 200
f 911 765 1265
f 1048 1173 943
f 299 616 270
f 333 241 445
f 639 354 640
f 832 541 415
f 795 335 969
f 510 123 820
f 1048 943 150
f 936 105 613
f 333 692 241
f 353 345 690
f 267 1003 1005
f 984 358 615
f 204 397 488
f 31 893 39
f 947 794 1288
f 981 1130 1162
f 873 617 31
f 1327 931 1232
f 1258 205 417
f 682 338 913
f 858 484 490
f 262 693 534
f 910 1077 707
f 782 781 182
f 922 466 883
f 1194 1124 1328
f 446 830 703
f 1299 850 914
f 1315 432 1255
f 687 1081 870
f 476 326 301
f 618 356 42
f 1016 463 1302
f 1253 392 1188
f 393 992 714
f 676 931 1327
f 630 762 938
f 676 848 931
f 1125 676 1327
f 277 999 192
f 347 695 261
f 214 54 53
f 932 842 1232
f 347 351 208
f 484 550 791
f 763 800 117
f 103 1038 1039
f 626 662 346
f 662 33 346
f 627 1329 1209
f 1009 357 1324
f 492 957 1067
f 379 560 559
f 379 701 560
f 835 475 402
f 110 656 402
f 743 744 605
f 740 328 212
f 1119 826 629
f 1119 629 1143
f 32 1075 677
f 502 1058 514
f 32 1033 197
f 912 913 338
f 395 975 214
f 98 717 1020
f 717 98 316
f 373 610 513
f 355 537 4
f 112 940 1157
f 587 872 652
f 611 651 179
f 931 932 1232
f 243 872 587
f 215 1021 982
f 1055 1255 432
f 216 215 982
f 5 633 289
f 225 409 217
f 141 924 168
f 655 316 412
f 286 1318 422
f 37 40 466
f 425 1075 1079
f 121 985 371
f 34 741 253
f 1070 1136 1147
f 1052 567 450
f 179 1052 450
f 356 667 606
f 279 264 1140
f 970 24 1172
f 261 695 698
f 259 258 817
f 622 10 9
f 964 33 410
f 742 1200 1139
f 634 1074 827
f 40 1205 1146
f 852 751 449
f 813 473 285
f 1269 993 820
f 231 156 260
f 627 1153 1329
f 233 653 654
f 714 802 274
f 144 714 274
f 727 823 524
f 664 274 637
f 410 30 964
f 305 65 67
f 952 955 442
f 442 1290 1218
f 802 991 741
f 237 613 234
f 230 436 570
f 403 1319 229
f 403 284 1319
f 1170 370 451
f 1070 1148 230
f 112 111 941
f 929 1125 674
f 1201 857 745
f 639 641 738
f 698 620 261
f 490 492 1028
f 491 490 1307
f 1330 491 1307
f 490 484 1307
f 568 1282 1281
f 1115 1103 697
f 1287 813 1251
f 989 397 1176
f 1083 706 109
f 795 644 624
f 996 1202 1134
f 334 531 840
f 444 442 955
f 30 593 1131
f 696 139 1045
f 1045 1107 696
f 319 735 634
f 606 318 200
f 774 922 865
f 964 30 281
f 774 662 626
f 1258 417 413
f 283 1026 848
f 833 862 1321
f 956 954 798
f 1309 491 1330
f 1307 791 1150
f 641 314 739
f 253 116 34
f 379 559 1220
f 1317 366 1326
f 991 86 741
f 634 734 319
f 1006 1239 1212
f 938 483 1312
f 483 1078 1164
f 1312 483 1164
f 867 896 900
f 1323 1045 1071
f 480 865 434
f 571 480 434
f 571 965 480
f 804 681 805
f 519 286 422
f 243 79 485
f 434 865 922
f 865 662 774
f 976 988 85
f 67 539 305
f 254 691 649
f 430 1331 454
f 430 429 1331
f 832 280 786
f 357 332 1324
f 337 255 719
f 782 182 330
f 1163 651 611
f 1163 611 610
