v 0.0643547 0.0886773 -0.118636
v 0 -0.023843 -0.148889
v 0 -0.062282 -0.146937
v -0.07085 0.440401 0.052685
v -0.05211 0.449319 0.054924
v -0.043888 -0.212624 0.079321
v 0.047626 0.210653 0.038747
v 0.067664 0.220738 0.037606
v 0.026661 0.20439 0.040237
v -0.038004 0.361583 0.117152
v -0.034262 0.330286 0.095018
v -1e-06 0.36312 0.104949
v -7.5e-07 0.0906432 -0.0539593
v 0.066346 -0.216312 0.037387
v -0.0499661 0.198675 -0.0298913
v -0.119503 0.372234 0.105545
v 0.0508696 -0.434762 -0.0112492
v -0.121068 0.380424 0.0747253
v 0.0457993 -0.100976 -0.0622207
v 0 -0.0831157 -0.0535973
v -0.0476921 -0.367015 0.129734
v 0.0651385 0.32842 -0.0863185
v -0.0586909 -0.0375885 -0.0825438
v -0.037385 0.206682 0.042931
v -0.027643 0.2052 0.075207
v -0.059459 0.216432 0.077247
v -0.020813 -0.189421 -0.0370352
v 0 -0.43023 0.147115
v 0.000627935 -0.432445 0.139918
v -0.108279 0.292108 -0.00272147
v 0.029943 -0.39447 0.136532
v -0.064169 0.16496 -0.112217
v -0.067607 0.13521 -0.084149
v 0.131203 0.335096 0.061712
v 0.127434 0.308379 0.093946
v 0.125759 0.305114 0.038121
v 0.112301 -0.276264 0.100535
v -0.12887 0.329771 0.097833
v 0.066724 -0.167177 -0.081893
v 0.064083 -0.215623 -0.105755
v 0.090513 0.42269 0.086123
v 0.0526349 0.44867 0.0856949
v -0.065625 0.355808 -0.081718
v 0.0238379 0.0908452 -0.152012
v -0.0737898 -0.42461 0.118839
v -1e-06 0.203889 0.000758
v 0.0391665 0.0548144 -0.149791
v -0.055946 0.356851 -0.088948
v 0.084612 0.243009 0.008646
v 0.091654 0.24101 0.037029
v 0.0579657 0.0164289 -0.0904885
v 0.0500022 -0.363465 0.128242
v 0.0109537 -0.20133 0.0656131
v 0 -0.207785 0.004677
v -0.023042 -0.200782 0.036728
v 0 -0.199221 0.036894
v -0.066284 0.41904 -0.03215
v 0.0622504 0.186414 -0.0712173
v 0.0620165 -0.209751 -0.0595432
v 0.095914 0.240667 0.062039
v 0 -0.420253 -0.064543
v 0.059934 0.135855 -0.064326
v 0.118663 0.27838 0.088498
v 0 -0.317786 -0.106095
v -0.002462 -0.206017 0.077118
v 0.0396856 -0.305076 -0.111157
v 0 -0.193845 -0.035629
v -0.095452 0.246005 0.081781
v -0.095914 0.245307 0.061851
v -0.086751 0.234505 0.080529
v 0.07085 0.440405 0.052538
v 0.083616 0.426164 0.023901
v 0 -0.384161 0.134421
v 0.065625 0.355808 -0.081718
v 0.055946 0.356851 -0.088948
v -0.115337 -0.325735 0.117027
v -0.123687 -0.32831 0.109251
v 1e-06 0.427287 -0.039838
v -1e-06 0.427287 -0.039838
v -0.125483 -0.302424 0.0818763
v -0.0993353 -0.289431 -0.0285418
v -0.086236 0.39043 -0.036411
v -0.064057 -0.055125 -0.122028
v -0.063714 -0.099592 -0.120591
v -0.0628919 -0.206929 -0.0733838
v 0 -0.443664 0.127835
v 0 -0.43831 0.137838
v 0.0391044 0.217067 -0.131324
v -0.0873701 0.297197 -0.0496765
v 0 -0.196676 0.058995
v -0.0638425 0.21819 -0.104205
v -0.064006 0.191575 -0.108211
v 0.12887 0.329771 0.097833
v -1e-06 0.22519 0.09581
v -0.064085 0.387418 -0.072172
v -0.062038 0.404321 -0.059511
v 0.129715 -0.344743 0.059548
v 0.0483264 0.207401 0.0107299
v -0.0593008 -0.123795 -0.0683718
v 0.084026 0.405634 0.132822
v -1e-10 0.427287 -0.0398371
v 0.130798 -0.316573 0.052715
v -0.069805 -0.342893 -0.078922
v 0.092547 0.246461 0.092274
v 0.095452 0.243179 0.081745
v 0.024364 0.248573 0.092151
v -0.016967 0.403099 0.137207
v -1e-06 0.448437 0.119385
v -0.042563 0.442082 0.118231
v 0.076238 -0.230133 0.085158
v 0.093222 -0.245862 0.0904
v 0.053265 -0.262566 -0.116019
v 0.085528 0.32731 0.115109
v 0.079392 0.295622 0.105869
v -0.107051 0.341465 0.117945
v -0.0450283 0.444366 0.0181138
v -0.108158 0.259141 0.085004
v 0 -0.324514 0.120865
v 0.0350225 -0.325527 0.117735
v 0 -0.292585 0.11029
v 0.107793 0.387054 0.00404545
v 0 -0.220463 -0.12789
v 0.032117 -0.17686 -0.135188
v 0 -0.17696 -0.135692
v 0 -0.13884 -0.140338
v -0.0375718 -0.245394 0.0899183
v -0.0533206 -0.0715645 -0.0698543
v -0.118879 0.282968 0.036899
v -0.104241 -0.407888 0.078212
v 0.127215 -0.331193 0.10053
v 0.127198 -0.307399 0.080643
v -0.0354759 -0.0188932 -0.059877
v 0.053288 0.251862 -0.117969
v -0.074738 -0.244029 -0.030032
v 0.069553 -0.251204 -0.064076
v 0.074738 -0.244029 -0.030032
v -0.0493124 0.100019 -0.0620173
v 0.0606218 -0.12801 -0.0838617
v 0.064085 0.387418 -0.072172
v 0.0806615 0.352862 -0.061317
v -0.083327 -0.225573 0.073187
v 0.078395 0.228016 0.07935
v -0.0442778 -0.207861 -0.00841889
v -0.045354 -0.206503 0.036924
v -0.088925 0.415348 0.113376
v -0.090513 0.42269 0.086123
v -0.092547 0.246697 0.092491
v 0.059243 -0.165014 -0.063043
v -0.0432492 -0.28392 0.104884
v -0.0373981 -0.44898 0.0294798
v 0.043888 -0.212624 0.079321
v -0.059895 0.328798 0.105063
v -0.084531 -0.40996 -0.00795353
v 0.0965706 -0.40728 0.114577
v -0.079774 0.253607 0.101969
v 0.031513 0.141235 -0.138189
v 0.103766 -0.362044 0.129131
v 0.092699 -0.379384 0.13491
v -0.061791 0.410015 -0.051304
v -1e-06 0.246081 0.091738
v 0 -0.205617 -0.016964
v -0.032117 -0.17686 -0.135188
v 0.07003 0.26393 0.101816
v 0.0706863 0.25046 0.0943724
v -0.105458 -0.395809 0.0268529
v -1e-06 0.384012 0.121341
v 0.101464 0.276801 -0.00112698
v 0.103813 0.399355 0.110471
v 0.115411 0.39201 0.045093
v 0.108586 0.31374 -0.0122345
v -0.076847 0.396831 0.135798
v 0.0339077 -0.24193 0.088372
v -0.109013 0.387354 0.00401708
v -0.0390006 -0.0835267 -0.151445
v -0.131203 0.335096 0.061712
v -0.127434 0.308379 0.093946
v 0 -0.215998 0.08415
v 0.002462 -0.206017 0.077118
v 0 -0.205382 0.079378
v 0.064057 -0.055125 -0.122028
v 0.0414302 -0.0379904 -0.1559
v 0.120597 0.34203 0.0137955
v -1e-06 0.425668 0.144224
v -0.0731628 0.227428 0.0677838
v 0.0317549 -0.418087 -0.0593443
v 0.0636258 -0.408074 -0.0464595
v 0.0422085 -0.219746 -0.131705
v -0.069553 -0.251204 -0.064076
v -0.064368 -0.25838 -0.09812
v -0.053265 -0.262566 -0.116019
v -0.0639723 -0.436625 0.00757237
v 0.078622 0.425053 -0.002196
v -0.060983 -0.260784 -0.10859
v -0.0670865 -0.300637 -0.088521
v 0 -0.443469 -0.0018795
v -0.0421662 -0.430405 -0.0262257
v 0 -0.430488 -0.044641
v 0 -0.123777 -0.0521337
v -1e-06 0.135009 -0.053592
v -0.02946 -0.0998657 -0.0573048
v 0.0450652 0.444542 0.0183571
v -0.051957 -0.445548 0.091154
v -0.086275 0.249264 0.099133
v 0.0220181 -0.432967 -0.0329751
v -2.5e-07 0.00191175 -0.0546938
v 0 -0.042454 -0.055061
v 0.107961 -0.368533 -0.012401
v 0.112181 -0.319865 -0.0144504
v 0.12338 -0.355233 0.027826
v -0.020406 -0.454033 0.09485
v -0.0555793 0.211562 0.00659416
v 0 -0.409243 0.148226
v -1e-06 0.449278 0.012822
v -0.0379622 0.180786 -0.133421
v 8e-06 0.304184 -0.105872
v 0 -0.185203 -0.042616
v 0.063756 -0.136229 -0.11699
v 0.063714 -0.099592 -0.120591
v -0.0952591 -0.331526 -0.0476384
v 0.04122 -0.164995 -0.053243
v 0 -0.164439 -0.05067
v 0.016967 0.403099 0.137207
v -1e-06 0.404903 0.137733
v 0.038612 0.395662 0.135038
v 0 -0.263965 -0.120087
v -0.0349229 0.293127 0.094745
v -0.0471151 0.231752 0.0940204
v -0.066346 -0.216312 0.037387
v -0.0389013 -0.415095 -0.0599364
v -0.034853 -0.438039 0.121501
v 0.0306611 0.437444 -0.0285558
v 0.0495231 0.109399 -0.137773
v -0.0520084 0.447314 0.0854717
v -1e-06 0.408786 -0.068705
v -1e-06 0.330841 0.092108
v -1e-06 0.289487 0.083927
v 0.034262 0.330286 0.095018
v -0.040883 -0.414287 0.146546
v 0.071445 0.428319 0.115732
v 0.040657 0.136249 -0.055537
v -0.116919 -0.300315 0.108553
v 0.085107 -0.229677 0.038056
v 0.086275 0.251752 0.098787
v -0.0465847 0.0270105 -0.0626053
v -0.127215 -0.331193 0.10053
v 0.061054 0.139585 -0.126585
v 0.0574066 0.264324 -0.106211
v 0.0415848 -0.451831 0.0398995
v 0.051074 0.136188 -0.057987
v -0.070045 -0.326539 0.114606
v -0.0350225 -0.325527 0.117735
v -1e-06 0.141511 -0.138868
v 0.0596238 -0.0224259 -0.0860422
v 0.126261 0.360802 0.041935
v 0 -0.421316 0.148889
v 0.0392681 0.178145 -0.13747
v -0.0616768 0.204616 -0.0690165
v 0.053341 0.140554 -0.134185
v -0.092699 -0.379384 0.13491
v 0.116919 -0.300315 0.108553
v 0.123687 -0.32831 0.109251
v 0.090496 -0.285966 -0.0450509
v 0.0860012 -0.405122 -0.012048
v -0.030699 0.437064 -0.029967
v 0.000118 0.201506 0.042496
v -0.0706245 0.245116 -0.0599355
v -0.063679 0.244805 -0.1002
v 1.6e-05 0.251173 -0.120421
v 1.2e-05 0.277678 -0.113146
v 0.030315 0.254407 -0.12048
v -0.059764 0.244974 -0.110813
v -0.0641655 0.272556 -0.0955795
v 5.9e-05 0.201727 0.059433
v 0.045581 0.258134 0.094939
v -0.0395543 0.0519059 -0.153521
v 0.064368 -0.25838 -0.09812
v 0.060983 -0.260784 -0.10859
v -0.100443 0.251844 0.036122
v -0.091654 0.245071 0.036028
v 0.059895 0.328798 0.105063
v 0.0380443 0.361673 0.116996
v 3.5e-06 0.168927 -0.134256
v -0.093222 -0.245862 0.0904
v 0.061791 0.410015 -0.051304
v 0.066284 0.41904 -0.03215
v -0.0266325 -0.263265 -0.118053
v 0.070045 -0.326539 0.114606
v -0.084026 0.405634 0.132822
v -0.059741 -0.406766 0.144038
v 0 -0.265936 0.0981505
v -0.0603979 0.415762 0.131024
v 0.0449633 -0.200745 -0.0179266
v 0.0539031 0.0989412 -0.0671797
v -0.078079 -0.394158 0.139836
v -0.06049 -0.174703 -0.123772
v -0.084612 0.245249 0.0081785
v -0.0951595 0.25454 0.018724
v -0.104385 -0.269649 0.00534779
v 0 -0.354558 -0.0937205
v -1e-06 0.457956 0.090818
v 0.105266 0.261986 0.037123
v 0 -0.458931 0.073834
v 0.118879 0.282961 0.037217
v -1e-06 0.267217 0.085818
v -1e-06 0.432567 -0.029678
v 0.1015 0.292114 0.105001
v -0.085748 0.338261 0.118301
v -0.108343 0.326899 0.118471
v -0.085528 0.32731 0.115109
v -0.061586 0.272867 0.099234
v -0.055498 0.264914 0.096915
v -0.057946 0.215585 0.040474
v -0.0392309 -0.000379543 -0.152847
v 0.0261776 0.222705 0.0897852
v 0 -0.45645 0.040882
v 0.0572332 -0.280948 0.10176
v 8e-06 0.196342 -0.129645
v -0.103727 0.410875 0.047719
v -0.115411 0.392005 0.04533
v -1e-06 0.21467 0.092921
v 0.076847 0.396831 0.135798
v 0.064006 0.192301 -0.10817
v -0.053288 0.245711 -0.117709
v -0.0817402 -0.42981 0.0452285
v 0.104241 -0.407888 0.078212
v -0.0906932 0.269279 0.101323
v -0.040657 0.136249 -0.055537
v -0.051074 0.136188 -0.057987
v -0.065239 -0.221806 0.082381
v -0.021956 0.45729 0.058052
v 1.2e-05 0.223758 -0.125033
v -0.0364846 0.319517 -0.106871
v 0.0641655 0.273645 -0.095519
v -0.064083 -0.215623 -0.105755
v -0.079392 0.295622 0.105869
v -0.120726 -0.308057 0.0128574
v -0.130798 -0.316573 0.052715
v -0.123498 -0.284579 0.045483
v 0.0336434 0.396714 -0.0795742
v 0.0363002 0.0160746 -0.0588578
v -0.064332 0.138345 -0.116222
v -0.076238 -0.230133 0.085158
v -0.112087 0.345815 -0.012518
v -0.095698 0.349916 -0.040916
v -0.0344264 0.218755 -0.129091
v -0.0643547 0.0886773 -0.118636
v 0.059764 0.247937 -0.110764
v -0.042888 0.357211 -0.091438
v 0.0643773 0.0390097 -0.121051
v 0.0698095 -0.428625 0.114215
v 0.023042 -0.200782 0.036728
v -0.126261 0.360794 0.042089
v 0.088992 -0.423297 0.083266
v -0.12338 -0.355233 0.027826
v -0.0371368 0.283354 -0.114939
v 0.0799225 -0.236853 0.004012
v 0.101699 -0.272227 -0.00592141
v 0.088925 0.415348 0.113376
v 0.0400931 -0.130446 -0.146717
v 0.107929 -0.254949 0.040367
v -1e-06 0.399967 -0.075866
v 0.105144 -0.394495 0.0275463
v 0.020406 -0.454033 0.09485
v 0.124455 -0.370072 0.066785
v 0.116008 -0.389809 0.072597
v 0.022663 -0.207392 0.077576
v 0 -0.455571 0.096062
v 0.095698 0.349916 -0.040916
v 0.112087 0.345815 -0.012518
v 0.115337 -0.325735 0.117027
v -0.112301 -0.276264 0.100535
v 0 -0.239286 0.086011
v 0.118802 -0.371035 0.101732
v 0.042888 0.357211 -0.091438
v -0.113986 -0.380712 0.104864
v -0.063756 -0.136229 -0.11699
v -0.0720143 -0.407749 -0.0390422
v -0.0526038 0.168245 -0.0557579
v -0.038612 0.395662 0.135038
v -0.112254 -0.333485 -0.0156509
v -0.053241 -0.176064 -0.131413
v -0.08861 0.427272 0.050214
v 0.05211 0.449322 0.054876
v 0.069805 -0.342893 -0.078922
v 0.0931474 -0.330937 -0.0483211
v -0.0326915 0.395517 -0.0817446
v 0.063798 -0.172866 -0.113389
v -0.0333212 0.0653743 -0.057377
v 0.0266325 -0.263265 -0.118053
v 0.0860531 0.390307 -0.0364783
v 0 -0.290875 -0.113091
v -0.059281 -0.0028707 -0.0893954
v 0.0352866 0.302716 -0.11186
v -0.064652 0.300306 -0.090959
v 0.129107 0.338246 0.040109
v -0.0378505 -0.317302 -0.113887
v 0.035942 -0.351932 -0.10451
v -0.129715 -0.344743 0.059548
v -0.124455 -0.370072 0.066785
v 0.0670865 -0.300637 -0.088521
v -0.083616 0.426163 0.024009
v -1e-06 0.421635 -0.049853
v 0 -0.431311 0.146758
v -0.088992 -0.423297 0.083266
v -0.125759 0.305114 0.037974
v -0.124132 0.341374 0.018234
v -0.129107 0.33824 0.040167
v -0.0611789 0.0634939 -0.0832181
v -0.034714 0.252649 0.093339
v 0.0320798 -0.0220934 -0.0590336
v -0.059934 0.135855 -0.064326
v 0.049159 0.211741 0.076394
v 0.123498 -0.284579 0.045483
v -0.0400174 -0.216709 -0.134016
v -0.085107 -0.229677 0.038056
v 0.064169 0.165323 -0.112196
v -0.07757 0.245427 -0.019671
v 0.0407962 -0.0817697 -0.153808
v 0 -0.412112 -0.07221
v -0.0392478 -0.359162 -0.0961979
v -0.031513 0.141235 -0.138189
v 0.064652 0.301032 -0.090919
v 0.0868443 0.294371 -0.0505253
v -0.026636 0.248442 -0.119065
v -1e-06 0.206561 0.086395
v 0.083327 -0.225573 0.073187
v 0.062038 0.404321 -0.059511
v 0.062496 0.38068 0.13067
v -0.107961 -0.368533 -0.012401
v 0.0541397 0.0576632 -0.0666417
v -0.0893735 -0.377239 -0.038729
v 0.042563 0.442082 0.118231
v -0.071445 0.428319 0.115732
v 0.0374423 -0.43877 0.122948
v 0.0765636 -0.427437 0.0171593
v 0 -0.100721 -0.144984
v 0.0638425 0.219279 -0.104144
v -1e-06 0.177498 -0.045025
v -1e-06 0.167543 -0.049691
v -0.0369639 0.0974008 -0.149354
v -0.061054 0.139585 -0.126585
v -0.053341 0.140554 -0.134185
v 0.07757 0.245008 -0.019737
v 0.063679 0.246257 -0.100119
v 0.0405188 -0.136334 -0.0541762
v 0.0893735 -0.377239 -0.038729
v 0.118439 0.327499 0.114321
v 0.108343 0.326899 0.118471
v 0.065239 -0.221806 0.082381
v 0.040883 -0.414287 0.146546
v 3.5e-06 0.330689 -0.0985975
v -1e-06 0.357195 -0.091323
v 0.121533 -0.301013 0.01747
v 0.045354 -0.206503 0.036924
v -0.076815 0.227432 0.037762
v -5e-07 0.0462775 -0.0543265
v -0.054405 -0.390656 -0.079307
v -0.0806615 0.352862 -0.061317
v -0.0651385 0.328057 -0.0863385
v -0.103813 0.399355 0.110471
v 0 -0.39133 -0.081346
v 0.0272025 -0.390993 -0.0803265
v -0.070786 -0.385944 -0.065057
v -0.116008 -0.389809 0.072597
v -0.118439 0.327499 0.114321
v 0.067607 0.13521 -0.084149
v -0.0332627 -0.0459106 -0.156355
v -0.118663 0.27838 0.088498
v -0.105918 0.305664 0.109737
v 0.0521099 0.201355 -0.0270126
v 0.051957 -0.445548 0.091154
v 0.078079 -0.394158 0.139836
v -0.078622 0.425053 -0.002196
v -0.0411417 -0.131356 -0.148889
v -0.0644 -0.010658 -0.123465
v -0.0643773 0.0390097 -0.121051
v 0.059741 -0.406766 0.144038
v -1e-06 0.06415 -0.14592
v -1e-06 0.201948 0.07637
v -0.0845341 -0.301644 -0.0614858
v 0.021956 0.457289 0.058197
v 0.119503 0.372234 0.105545
v 0.064332 0.138345 -0.116222
v 0.027643 0.2052 0.075207
v -0.00033 0.458931 0.060042
v -0.0272025 -0.390993 -0.0803265
v 0 -0.198482 0.070202
v -0.103766 -0.362044 0.129131
v 0.06049 -0.174703 -0.123772
v -0.024364 0.248573 0.092151
v 0.078705 0.358959 0.124336
v -0.022663 -0.207392 0.077576
v -5e-07 0.0201535 -0.147405
v 0.040615 0.00747977 -0.155024
v -0.107929 -0.254949 0.040367
v 0.085748 0.338261 0.118301
v 0.0832041 -0.428397 0.0516026
v 0.053241 -0.176064 -0.131413
v 0.08861 0.427275 0.049998
v 0.103727 0.410879 0.047474
v -1e-06 0.10283 -0.142394
v 0 -0.354338 0.127643
v -0.078705 0.358959 0.124336
v 0.0339306 0.424956 0.136193
v -0.062496 0.38068 0.13067
v 0.0706245 0.245632 -0.059928
v -1e-06 0.436254 0.141923
v -0.059243 -0.165014 -0.063043
v -0.0542464 -0.201254 -0.0444602
v -0.04122 -0.164995 -0.053243
v -0.066724 -0.167177 -0.081893
v 0.0644 -0.010658 -0.123465
v 0.070786 -0.385944 -0.065057
v 0.0400822 0.293614 0.0967957
v 0.061586 0.270086 0.098424
v -0.0799225 -0.236853 0.004012
v 0.054405 -0.390656 -0.079307
v -0.0831293 -0.288726 0.102945
v -0.063798 -0.172866 -0.113389
v -1e-06 0.193305 -0.029698
v 0.0355814 0.170215 -0.0468602
v -0.0431099 -0.451225 0.0618171
v 0.0548951 -0.0615912 -0.0647489
v 0.067664 0.220738 0.037606
v 0.091654 0.24101 0.037029
v 0 -0.443664 0.127835
v 0.0350225 -0.325527 0.117735
v 0.032117 -0.17686 -0.135188
v 0 -0.13884 -0.140338
v -0.034262 0.330286 0.095018
v 0 -0.17696 -0.135692
v 0.002462 -0.206017 0.077118
v -0.037385 0.206682 0.042931
v -0.016967 0.403099 0.137207
v 0.083616 0.426164 0.023901
v 0.078622 0.425053 -0.002196
v -0.064368 -0.25838 -0.09812
v -0.0670865 -0.300637 -0.088521
v -1e-06 0.384012 0.121341
v -1e-06 0.404903 0.137733
v 0 -0.384161 0.134421
v -0.040883 -0.414287 0.146546
v 0 -0.220463 -0.12789
v -0.0638425 0.21819 -0.104205
v 1.6e-05 0.251173 -0.120421
v 1.2e-05 0.277678 -0.113146
v -0.0350225 -0.325527 0.117735
v -0.095914 0.245307 0.061851
v 0.034262 0.330286 0.095018
v -1e-06 0.330841 0.092108
v -0.091654 0.245071 0.036028
v 0 -0.354558 -0.0937205
v 0.016967 0.403099 0.137207
v 0.038612 0.395662 0.135038
v -0.0706245 0.245116 -0.0599355
v 0.024364 0.248573 0.092151
v 0.067607 0.13521 -0.084149
v 0.040657 0.136249 -0.055537
v -1e-06 0.135009 -0.053592
v -0.067607 0.13521 -0.084149
v 0.022663 -0.207392 0.077576
v -1e-06 0.36312 0.104949
v -0.023042 -0.200782 0.036728
v -0.045354 -0.206503 0.036924
v -1e-06 0.330841 0.092108
v 0.07085 0.440405 0.052538
v 0.0670865 -0.300637 -0.088521
v 0.05211 0.449322 0.054876
v -0.057946 0.215585 0.040474
v 0 -0.324514 0.120865
v -0.070045 -0.326539 0.114606
v -0.12887 0.329771 0.097833
v 0.118663 0.27838 0.088498
v 0.095452 0.243179 0.081745
v 0.095914 0.240667 0.062039
v -0.131203 0.335096 0.061712
v 0 -0.265936 0.0981505
v 0 -0.409243 0.148226
v 0.040883 -0.414287 0.146546
v 0.071445 0.428319 0.115732
v 0.078079 -0.394158 0.139836
v -0.053341 0.140554 -0.134185
v -1e-06 0.141511 -0.138868
v 3.5e-06 0.168927 -0.134256
v 0 -0.421316 0.148889
v 0.107961 -0.368533 -0.012401
v 0.079392 0.295622 0.105869
v 0.059895 0.328798 0.105063
v -0.0806615 0.352862 -0.061317
v 0.0272025 -0.390993 -0.0803265
v -0.123498 -0.284579 0.045483
v -0.130798 -0.316573 0.052715
v 0.112301 -0.276264 0.100535
v 0.093222 -0.245862 0.0904
v -5e-07 0.0201535 -0.147405
v 0.069805 -0.342893 -0.078922
v 0.062496 0.38068 0.13067
v 0.042888 0.357211 -0.091438
v 0.115411 0.39201 0.045093
v 0.103727 0.410879 0.047474
v 0.090513 0.42269 0.086123
v 0 -0.023843 -0.148889
v -0.093222 -0.245862 0.0904
v -0.095452 0.246005 0.081781
v -0.086751 0.234505 0.080529
v -0.095452 0.246005 0.081781
v -0.092547 0.246697 0.092491
v 0.054405 -0.390656 -0.079307
v -0.108158 0.259141 0.085004
v -0.095452 0.246005 0.081781
v 0.0644 -0.010658 -0.123465
v 0.0643773 0.0390097 -0.121051
v -0.0799225 -0.236853 0.004012
v -0.074738 -0.244029 -0.030032
v -1e-06 0.246081 0.091738
v -0.0266325 -0.263265 -0.118053
v 0 -0.207785 0.004677
v 0 -0.205617 -0.016964
v 0.074738 -0.244029 -0.030032
v 0.023042 -0.200782 0.036728
v 0.066284 0.41904 -0.03215
v 0.061791 0.410015 -0.051304
v -1e-06 0.203889 0.000758
v 0.026661 0.20439 0.040237
v -0.090513 0.42269 0.086123
v 0.092699 -0.379384 0.13491
v -0.07085 0.440401 0.052685
v -0.065239 -0.221806 0.082381
v -0.085528 0.32731 0.115109
v -0.059741 -0.406766 0.144038
v -0.06049 -0.174703 -0.123772
v -0.053241 -0.176064 -0.131413
v -1e-06 0.193305 -0.029698
v -1e-06 0.177498 -0.045025
v 0 -0.317786 -0.106095
v 0.021956 0.457289 0.058197
v -7.5e-07 0.0906432 -0.0539593
v -5e-07 0.0462775 -0.0543265
v 0.030315 0.254407 -0.12048
v 0.000118 0.201506 0.042496
v 0.063798 -0.172866 -0.113389
v -0.126261 0.360794 0.042089
v 0.08861 0.427275 0.049998
v 0.119503 0.372234 0.105545
v 0.126261 0.360802 0.041935
v 0.031513 0.141235 -0.138189
v -1e-06 0.141511 -0.138868
v 0.095452 0.243179 0.081745
v -1e-06 0.135009 -0.053592
v -0.040657 0.136249 -0.055537
v 0 -0.443469 -0.0018795
v 0.070045 -0.326539 0.114606
v -0.061054 0.139585 -0.126585
v 0.063798 -0.172866 -0.113389
v 0 -0.239286 0.086011
v -0.115337 -0.325735 0.117027
v 0 -0.205382 0.079378
v 0 -0.39133 -0.081346
v 0 -0.292585 0.11029
v 0 -0.324514 0.120865
v -0.127434 0.308379 0.093946
v -0.118663 0.27838 0.088498
v -0.12887 0.329771 0.097833
v -0.100443 0.251844 0.036122
v 5.9e-05 0.201727 0.059433
v -1e-06 0.201948 0.07637
v -0.104241 -0.407888 0.078212
v 0.116919 -0.300315 0.108553
v 0 -0.430488 -0.044641
v -0.112301 -0.276264 0.100535
v -0.116919 -0.300315 0.108553
v -0.115337 -0.325735 0.117027
v -0.083327 -0.225573 0.073187
v 0.059243 -0.165014 -0.063043
v 0.0706245 0.245632 -0.059928
v 0 -0.39133 -0.081346
v -0.0272025 -0.390993 -0.0803265
v -0.064368 -0.25838 -0.09812
v -0.060983 -0.260784 -0.10859
v 0.078705 0.358959 0.124336
v 0.085748 0.338261 0.118301
v -0.069805 -0.342893 -0.078922
v 0.095698 0.349916 -0.040916
v -0.043888 -0.212624 0.079321
v 0.063756 -0.136229 -0.11699
v 0.078395 0.228016 0.07935
v 0.045581 0.258134 0.094939
v 0.049159 0.211741 0.076394
v 0 -0.164439 -0.05067
v 0.12887 0.329771 0.097833
v 0.063679 0.246257 -0.100119
v -0.022663 -0.207392 0.077576
v 0 -0.215998 0.08415
v 0 -0.205382 0.079378
v -1e-06 0.408786 -0.068705
v 0.08861 0.427275 0.049998
v 0.08861 0.427275 0.049998
v 0 -0.420253 -0.064543
v -1e-06 0.404903 0.137733
v -0.107961 -0.368533 -0.012401
v 0.092547 0.246461 0.092274
v 0.095452 0.243179 0.081745
v 0.127434 0.308379 0.093946
v 0.12887 0.329771 0.097833
v 0.118439 0.327499 0.114321
v 0.120597 0.34203 0.0137955
v 0.125759 0.305114 0.038121
v -0.066346 -0.216312 0.037387
v -0.129107 0.33824 0.040167
v -0.076238 -0.230133 0.085158
v 0.0651385 0.32842 -0.0863185
v 0.055946 0.356851 -0.088948
v 0.065625 0.355808 -0.081718
v 0.053288 0.251862 -0.117969
v 0.063679 0.246257 -0.100119
v 0.000118 0.201506 0.042496
v -0.08861 0.427272 0.050214
v -1e-06 0.22519 0.09581
v -1e-06 0.246081 0.091738
v 0.12887 0.329771 0.097833
v 0.131203 0.335096 0.061712
v 0 -0.354338 0.127643
v -0.129107 0.33824 0.040167
v -0.124132 0.341374 0.018234
v -0.125759 0.305114 0.037974
v -0.064083 -0.215623 -0.105755
v -0.064368 -0.25838 -0.09812
v -0.069553 -0.251204 -0.064076
v -0.05211 0.449319 0.054924
v -0.021956 0.45729 0.058052
v -0.053265 -0.262566 -0.116019
v -0.063679 0.244805 -0.1002
v -0.0641655 0.272556 -0.0955795
v -0.064085 0.387418 -0.072172
v -0.065625 0.355808 -0.081718
v -0.085107 -0.229677 0.038056
v -0.0644 -0.010658 -0.123465
v -0.0643773 0.0390097 -0.121051
v 0.063798 -0.172866 -0.113389
v 0.066724 -0.167177 -0.081893
v 0.064083 -0.215623 -0.105755
v 0.061586 0.270086 0.098424
v -0.062038 0.404321 -0.059511
v -0.076238 -0.230133 0.085158
v -0.055498 0.264914 0.096915
v -0.103727 0.410875 0.047719
v -0.08861 0.427272 0.050214
v -0.083616 0.426163 0.024009
v 0 -0.263965 -0.120087
v -0.112087 0.345815 -0.012518
v 0.07003 0.26393 0.101816
v 0.061586 0.270086 0.098424
v 3.5e-06 0.330689 -0.0985975
v 0.042563 0.442082 0.118231
v 0.116008 -0.389809 0.072597
v 0.124455 -0.370072 0.066785
v 0.103766 -0.362044 0.129131
v 0.086275 0.251752 0.098787
v 0.107929 -0.254949 0.040367
v 0.0799225 -0.236853 0.004012
v 0.0643547 0.0886773 -0.118636
v 0.064332 0.138345 -0.116222
v -0.064652 0.300306 -0.090959
v 0.0806615 0.352862 -0.061317
v 0.065625 0.355808 -0.081718
v 0.064085 0.387418 -0.072172
v 0.051957 -0.445548 0.091154
v -0.08861 0.427272 0.050214
v 0.043888 -0.212624 0.079321
v -0.042888 0.357211 -0.091438
v -2.5e-07 0.00191175 -0.0546938
v 0.059764 0.247937 -0.110764
v 0.063679 0.246257 -0.100119
v 0.0638425 0.219279 -0.104144
v 0 -0.290875 -0.113091
v -0.064332 0.138345 -0.116222
v -1e-06 0.201948 0.07637
v 0.027643 0.2052 0.075207
v -1e-06 0.206561 0.086395
v 0.069553 -0.251204 -0.064076
v 0.064368 -0.25838 -0.09812
v 0.070786 -0.385944 -0.065057
v 0.0893735 -0.377239 -0.038729
v 0.0641655 0.273645 -0.095519
v 0.064652 0.301032 -0.090919
v -0.078622 0.425053 -0.002196
v -0.032117 -0.17686 -0.135188
v -0.0651385 0.328057 -0.0863385
v -0.12338 -0.355233 0.027826
v -0.053288 0.245711 -0.117709
v -0.026636 0.248442 -0.119065
v -0.118879 0.282968 0.036899
v 0.063714 -0.099592 -0.120591
v -1e-06 0.448437 0.119385
v -1e-06 0.436254 0.141923
v 0.062038 0.404321 -0.059511
v -0.119503 0.372234 0.105545
v -0.078705 0.358959 0.124336
v 0.108343 0.326899 0.118471
v -0.0643547 0.0886773 -0.118636
v -0.064332 0.138345 -0.116222
v 0 -0.199221 0.036894
v 0.112087 0.345815 -0.012518
v -0.065625 0.355808 -0.081718
v -0.055946 0.356851 -0.088948
v 0.070786 -0.385944 -0.065057
v -1e-06 0.357195 -0.091323
v 0.12338 -0.355233 0.027826
v 0.04122 -0.164995 -0.053243
v 0 -0.164439 -0.05067
v -0.079392 0.295622 0.105869
v -0.079774 0.253607 0.101969
v -0.061586 0.272867 0.099234
v 0 -0.123777 -0.0521337
v 0 -0.45645 0.040882
v -0.070786 -0.385944 -0.065057
v -0.0893735 -0.377239 -0.038729
v 0.130798 -0.316573 0.052715
v 0.123498 -0.284579 0.045483
v 0.06049 -0.174703 -0.123772
v 0.053241 -0.176064 -0.131413
v 0.020406 -0.454033 0.09485
v 0 -0.455571 0.096062
v -1e-06 0.448437 0.119385
v 0 -0.0831157 -0.0535973
v 0 -0.042454 -0.055061
v -0.103813 0.399355 0.110471
v -0.062496 0.38068 0.13067
v -1e-06 0.21467 0.092921
v -0.063679 0.244805 -0.1002
v -0.034714 0.252649 0.093339
v 0.053265 -0.262566 -0.116019
v 0.064057 -0.055125 -0.122028
v -0.107929 -0.254949 0.040367
v -0.085107 -0.229677 0.038056
v 0 -0.421316 0.148889
v -0.085107 -0.229677 0.038056
v -0.063714 -0.099592 -0.120591
v -0.063756 -0.136229 -0.11699
v -0.123687 -0.32831 0.109251
v -0.115337 -0.325735 0.117027
v 0.084612 0.243009 0.008646
v -0.031513 0.141235 -0.138189
v -1e-06 0.10283 -0.142394
v 0 -0.17696 -0.135692
v 0 -0.263965 -0.120087
v 0.066346 -0.216312 0.037387
v 0.065239 -0.221806 0.082381
v 0.083327 -0.225573 0.073187
v -0.103766 -0.362044 0.129131
v -0.076815 0.227432 0.037762
v 0.062496 0.38068 0.13067
v 0.076847 0.396831 0.135798
v -0.063798 -0.172866 -0.113389
v 1.6e-05 0.251173 -0.120421
v 0 -0.324514 0.120865
v 0.129715 -0.344743 0.059548
v -0.095698 0.349916 -0.040916
v -1e-06 0.06415 -0.14592
v -0.04122 -0.164995 -0.053243
v -0.059243 -0.165014 -0.063043
v -0.088925 0.415348 0.113376
v 0 -0.458931 0.073834
v -0.020406 -0.454033 0.09485
v 0.129107 0.338246 0.040109
v -0.085528 0.32731 0.115109
v -0.091654 0.245071 0.036028
v 0.0266325 -0.263265 -0.118053
v 0 -0.263965 -0.120087
v 0 -0.412112 -0.07221
v 0.085528 0.32731 0.115109
v -1e-06 0.330841 0.092108
v -1e-06 0.267217 0.085818
v -1e-06 0.289487 0.083927
v -0.063798 -0.172866 -0.113389
v -0.066724 -0.167177 -0.081893
v 0.104241 -0.407888 0.078212
v 0.088992 -0.423297 0.083266
v 0.061054 0.139585 -0.126585
v 0.053341 0.140554 -0.134185
v 0.085107 -0.229677 0.038056
v -0.07757 0.245427 -0.019671
v 0.064368 -0.25838 -0.09812
v -1e-06 0.457956 0.090818
v -0.042563 0.442082 0.118231
v 0.085107 -0.229677 0.038056
v -1e-06 0.404903 0.137733
v 8e-06 0.304184 -0.105872
v -0.059459 0.216432 0.077247
v 0 -0.196676 0.058995
v 0 -0.199221 0.036894
v -0.064006 0.191575 -0.108211
v 0.123687 -0.32831 0.109251
v 0.129715 -0.344743 0.059548
v -0.066284 0.41904 -0.03215
v -0.00033 0.458931 0.060042
v 0.059934 0.135855 -0.064326
v 0 -0.199221 0.036894
v -0.078079 -0.394158 0.139836
v -0.059764 0.244974 -0.110813
v 0.118879 0.282961 0.037217
v 0.105266 0.261986 0.037123
v -0.088992 -0.423297 0.083266
v -0.070786 -0.385944 -0.065057
v -1e-06 0.448437 0.119385
v -0.129715 -0.344743 0.059548
v -1e-06 0.425668 0.144224
v 0.059741 -0.406766 0.144038
v 0.129107 0.338246 0.040109
v 0 -0.185203 -0.042616
v 0 -0.193845 -0.035629
v 0 -0.100721 -0.144984
v 0.103813 0.399355 0.110471
v 1.6e-05 0.251173 -0.120421
v 1.2e-05 0.223758 -0.125033
v -0.064057 -0.055125 -0.122028
v -0.118439 0.327499 0.114321
v -0.086275 0.249264 0.099133
v -1e-06 0.432567 -0.029678
v -0.065625 0.355808 -0.081718
v -0.129715 -0.344743 0.059548
v -0.124455 -0.370072 0.066785
v -0.038612 0.395662 0.135038
v -0.062496 0.38068 0.13067
v -0.076847 0.396831 0.135798
v -0.024364 0.248573 0.092151
v -0.071445 0.428319 0.115732
v 0.127215 -0.331193 0.10053
v -0.063679 0.244805 -0.1002
v -0.064169 0.16496 -0.112217
v -0.00033 0.458931 0.060042
v -0.084026 0.405634 0.132822
v -0.051957 -0.445548 0.091154
v -0.059895 0.328798 0.105063
v -0.085748 0.338261 0.118301
v -0.085528 0.32731 0.115109
v 0 -0.198482 0.070202
v -0.088925 0.415348 0.113376
v -0.027643 0.2052 0.075207
v -0.129715 -0.344743 0.059548
v -0.115411 0.392005 0.04533
v -1e-06 0.246081 0.091738
v 0 -0.17696 -0.135692
v 0 -0.39133 -0.081346
v -0.084612 0.245249 0.0081785
v 0.115337 -0.325735 0.117027
v 0.115337 -0.325735 0.117027
v 0.060983 -0.260784 -0.10859
v -0.116008 -0.389809 0.072597
v -0.002462 -0.206017 0.077118
v 0 -0.205382 0.079378
v 0 -0.455571 0.096062
v -0.054405 -0.390656 -0.079307
v -0.061791 0.410015 -0.051304
v -0.051074 0.136188 -0.057987
v 0.115337 -0.325735 0.117027
v 0.064169 0.165323 -0.112196
v -1e-06 0.357195 -0.091323
v 0.076238 -0.230133 0.085158
v -0.059934 0.135855 -0.064326
v 0.045354 -0.206503 0.036924
v -1e-06 0.135009 -0.053592
v 0.129107 0.338246 0.040109
v 0.065625 0.355808 -0.081718
v -1e-06 0.399967 -0.075866
v -1e-06 0.357195 -0.091323
v 0 -0.164439 -0.05067
v 0.064332 0.138345 -0.116222
v -0.127215 -0.331193 0.10053
v 0.088925 0.415348 0.113376
v -0.108343 0.326899 0.118471
v 0.051074 0.136188 -0.057987
v 0.085528 0.32731 0.115109
v -0.092699 -0.379384 0.13491
v -1e-06 0.141511 -0.138868
v -0.063798 -0.172866 -0.113389
v 0.085528 0.32731 0.115109
v -1e-06 0.167543 -0.049691
v 0.091654 0.24101 0.037029
v 0.064006 0.192301 -0.10817
v 0 -0.062282 -0.146937
v 0.064332 0.138345 -0.116222
v 0.047626 0.210653 0.038747
v 0.07757 0.245008 -0.019737
v 0.084026 0.405634 0.132822
v 0.076238 -0.230133 0.085158
v -0.064332 0.138345 -0.116222
v -1e-06 0.201948 0.07637
v 8e-06 0.196342 -0.129645
v -0.00033 0.458931 0.060042
v -0.061586 0.272867 0.099234
v 0.085107 -0.229677 0.038056
v 0.000118 0.201506 0.042496
v 0.088925 0.415348 0.113376
v 0.064368 -0.25838 -0.09812
v 0.091654 0.24101 0.037029
v -0.091654 0.245071 0.036028
v 0.088925 0.415348 0.113376
v 0 -0.455571 0.096062
v -0.12887 0.329771 0.097833
v -0.088925 0.415348 0.113376
v -0.129107 0.33824 0.040167
v 0.129715 -0.344743 0.059548
f 467 2 3
f 7 8 412
f 10 11 12
f 231 234 402
f 238 230 29
f 4 382 146
f 24 25 26
f 84 474 376
f 435 497 248
f 378 32 33
f 34 35 36
f 41 71 42
f 450 255 29
f 434 29 86
f 524 49 50
f 87 86 29
f 54 55 56
f 162 474 125
f 8 525 60
f 466 58 62
f 101 305 79
f 68 69 70
f 201 72 192
f 53 487 178
f 150 522 324
f 52 157 287
f 52 158 157
f 40 187 387
f 526 87 230
f 34 93 35
f 97 373 364
f 52 287 119
f 63 104 105
f 107 108 109
f 306 113 114
f 85 508 511
f 118 527 120
f 123 187 122
f 528 124 529
f 424 269 268
f 360 111 37
f 494 493 47
f 315 248 302
f 363 367 302
f 55 143 144
f 396 299 420
f 226 530 152
f 298 516 134
f 54 143 55
f 162 125 531
f 81 134 188
f 73 31 52
f 52 472 158
f 173 343 406
f 327 378 328
f 175 176 38
f 177 532 179
f 211 15 46
f 211 46 533
f 187 389 122
f 188 189 194
f 379 166 534
f 535 121 536
f 537 193 538
f 195 196 197
f 240 521 199
f 211 533 312
f 214 91 345
f 207 208 209
f 214 421 442
f 345 331 317
f 292 220 221
f 222 223 539
f 540 534 166
f 214 92 91
f 214 282 421
f 17 435 248
f 81 480 219
f 235 236 237
f 541 542 212
f 41 42 239
f 76 241 77
f 263 186 446
f 29 230 87
f 284 231 285
f 149 250 251
f 276 66 277
f 400 66 276
f 543 286 414
f 37 413 360
f 544 266 267
f 545 546 270
f 9 273 265
f 547 21 502
f 278 279 548
f 106 160 94
f 224 222 539
f 280 281 549
f 538 193 190
f 161 143 54
f 185 462 186
f 349 430 51
f 51 340 253
f 12 11 550
f 296 551 297
f 64 397 552
f 481 300 42
f 301 167 303
f 51 253 512
f 307 308 309
f 95 43 458
f 248 471 363
f 553 554 504
f 329 6 228
f 330 116 5
f 293 13 430
f 336 337 338
f 398 354 399
f 110 172 316
f 283 126 342
f 89 272 555
f 556 274 304
f 405 128 468
f 191 324 165
f 165 153 191
f 165 324 464
f 53 366 351
f 474 381 295
f 1 483 557
f 227 425 320
f 239 358 41
f 13 558 559
f 137 560 346
f 166 10 12
f 561 172 151
f 549 281 562
f 563 564 492
f 253 340 410
f 418 218 359
f 549 562 565
f 132 244 392
f 72 201 566
f 23 132 392
f 216 27 67
f 383 42 71
f 567 262 385
f 121 369 368
f 568 566 201
f 567 385 384
f 506 423 443
f 285 231 192
f 95 82 96
f 24 26 569
f 547 502 570
f 21 571 488
f 97 130 373
f 572 16 18
f 573 574 575
f 404 202 45
f 576 18 352
f 316 290 120
f 126 577 372
f 319 18 318
f 136 262 135
f 393 451 374
f 214 345 317
f 578 579 31
f 321 554 428
f 282 252 421
f 580 504 100
f 554 321 504
f 450 434 477
f 429 380 431
f 477 350 154
f 477 154 581
f 440 441 582
f 156 583 584
f 578 585 579
f 586 263 446
f 151 172 449
f 514 587 588
f 413 131 102
f 131 37 260
f 456 430 13
f 89 589 459
f 461 552 590
f 37 131 413
f 80 371 591
f 80 592 245
f 590 397 517
f 577 126 149
f 316 593 594
f 316 594 110
f 275 478 595
f 596 397 66
f 224 281 597
f 562 281 539
f 539 281 224
f 517 397 596
f 598 339 75
f 182 121 254
f 213 330 485
f 254 121 169
f 180 253 523
f 169 121 500
f 500 121 535
f 599 600 601
f 493 494 602
f 495 603 141
f 496 448 482
f 528 359 498
f 535 499 500
f 604 605 147
f 117 606 607
f 599 601 168
f 21 541 502
f 21 289 542
f 21 542 541
f 503 10 505
f 608 513 186
f 380 336 81
f 508 509 510
f 609 548 610
f 34 36 395
f 611 494 612
f 514 236 304
f 514 274 515
f 613 143 614
f 556 304 615
f 391 616 225
f 617 292 618
f 292 356 619
f 292 617 620
f 621 390 622
f 375 129 404
f 404 45 375
f 359 528 529
f 470 98 623
f 98 624 623
f 49 98 470
f 98 49 524
f 557 293 1
f 373 154 325
f 318 18 625
f 626 154 373
f 325 154 353
f 373 365 364
f 521 58 470
f 627 116 401
f 239 42 432
f 342 126 628
f 202 230 45
f 238 45 230
f 20 523 206
f 438 521 520
f 152 629 335
f 45 238 630
f 214 317 282
f 482 448 447
f 414 631 632
f 633 15 634
f 15 378 634
f 396 635 299
f 568 201 636
f 637 388 638
f 133 88 639
f 227 490 409
f 392 476 475
f 640 533 46
f 217 39 641
f 401 116 473
f 148 292 59
f 407 642 406
f 643 601 600
f 644 645 599
f 132 23 127
f 514 237 236
f 646 501 647
f 275 595 313
f 89 394 272
f 60 648 142
f 649 650 137
f 17 651 204
f 316 527 652
f 186 17 185
f 17 204 185
f 653 214 442
f 491 496 482
f 536 390 621
f 359 654 489
f 290 172 655
f 430 349 1
f 571 656 488
f 655 172 177
f 657 178 487
f 486 299 658
f 273 484 479
f 659 251 660
f 588 237 514
f 243 306 163
f 469 661 662
f 661 465 663
f 297 30 296
f 664 30 297
f 449 172 110
f 665 666 25
f 324 667 464
f 316 668 593
f 316 652 668
f 61 204 669
f 463 103 457
f 518 670 671
f 80 591 592
f 69 455 70
f 671 672 250
f 329 228 673
f 7 412 484
f 392 83 23
f 392 475 83
f 445 674 39
f 84 174 474
f 244 132 205
f 444 675 437
f 676 419 677
f 173 82 344
f 361 452 386
f 678 334 679
f 680 280 681
f 431 219 682
f 170 423 683
f 628 126 684
f 685 359 218
f 261 373 130
f 436 359 529
f 686 687 688
f 649 137 637
f 67 27 161
f 510 27 689
f 622 390 427
f 360 426 111
f 482 447 690
f 689 27 216
f 422 423 333
f 333 506 691
f 355 424 323
f 65 692 693
f 683 423 140
f 140 423 22
f 22 423 422
f 65 693 694
f 264 402 695
f 695 386 264
f 481 42 383
f 548 609 128
f 41 696 71
f 566 697 72
f 89 555 417
f 229 419 698
f 548 128 278
f 609 468 128
f 699 183 107
f 149 126 283
f 558 13 293
f 165 700 153
f 512 253 180
f 227 311 155
f 396 538 190
f 701 686 702
f 362 497 435
f 432 42 300
f 346 560 341
f 22 74 140
f 700 165 354
f 498 359 489
f 359 685 654
f 703 704 705
f 353 154 350
f 170 706 707
f 415 708 613
f 576 352 709
f 329 673 710
f 711 712 713
f 714 393 247
f 270 393 714
f 715 347 247
f 264 116 213
f 693 692 372
f 624 716 623
f 232 44 646
f 627 401 717
f 718 719 490
f 644 720 721
f 142 412 8
f 577 149 659
f 258 232 646
f 232 47 44
f 52 119 722
f 723 724 725
f 726 727 728
f 729 233 730
f 414 286 731
f 271 732 733
f 59 292 619
f 651 17 248
f 734 48 735
f 48 386 348
f 734 386 48
f 495 141 736
f 518 149 283
f 313 737 738
f 518 250 149
f 153 377 196
f 739 740 741
f 742 306 114
f 226 152 335
f 273 9 484
f 264 743 159
f 316 120 527
f 141 603 744
f 226 310 745
f 81 298 134
f 386 743 264
f 746 747 748
f 286 543 749
f 750 30 724
f 751 752 687
f 724 30 725
f 170 707 167
f 332 753 215
f 750 89 30
f 754 504 580
f 755 362 756
f 435 263 362
f 346 476 408
f 75 339 139
f 227 320 718
f 60 142 8
f 7 484 9
f 757 373 370
f 228 6 564
f 397 590 552
f 701 758 686
f 759 357 760
f 761 232 762
f 355 323 271
f 355 269 424
f 355 733 763
f 764 765 766
f 762 232 246
f 445 19 198
f 353 350 767
f 768 318 625
f 625 460 145
f 316 172 290
f 659 149 251
f 445 39 138
f 366 769 454
f 753 332 770
f 771 410 340
f 772 773 774
f 64 775 66
f 661 469 465
f 558 293 249
f 418 359 436
f 294 21 259
f 32 776 33
f 777 778 779
f 741 780 781
f 782 384 783
f 388 244 638
f 784 393 785
f 161 27 143
f 82 786 57
f 173 786 82
f 143 509 614
f 414 632 787
f 275 313 738
f 332 763 788
f 336 380 789
f 253 410 523
f 345 790 791
f 792 30 664
f 296 30 417
f 176 175 405
f 725 30 792
f 230 210 526
f 21 488 259
f 396 616 391
f 396 190 616
f 144 143 708
f 708 143 613
f 793 523 19
f 17 186 263
f 507 504 794
f 795 107 183
f 794 504 754
f 263 435 17
f 339 284 796
f 635 396 391
f 326 117 607
f 292 14 356
f 504 321 100
f 115 307 797
f 798 797 307
f 180 523 793
f 115 308 307
f 106 94 314
f 201 192 231
f 306 705 799
f 306 703 705
f 492 564 6
f 47 232 761
f 185 204 61
f 800 801 441
f 351 802 90
f 213 201 231
f 170 683 803
f 414 334 519
f 788 804 805
f 517 596 806
f 753 770 807
f 800 440 275
f 392 244 476
f 756 362 808
f 809 445 810
f 326 811 662
f 326 203 812
f 326 607 203
f 326 813 811
f 814 200 99
f 29 434 450
f 433 291 109
f 126 372 692
f 764 390 368
f 815 522 150
f 816 431 682
f 248 363 302
f 377 700 817
f 818 453 819
f 820 187 821
f 822 86 823
f 824 432 300
f 476 244 408
f 306 799 113
f 324 191 150
f 219 380 81
f 257 378 15
f 127 825 826
f 89 459 394
f 514 515 587
f 767 350 434
f 199 521 439
f 458 344 82
f 164 686 758
f 127 200 825
f 191 196 195
f 798 827 797
f 827 798 828
f 291 433 288
f 783 385 207
f 262 208 385
f 345 791 331
f 82 95 458
f 314 779 778
f 181 602 494
f 314 778 688
f 314 94 829
f 277 66 112
f 173 406 642
f 377 153 700
f 555 272 830
f 581 154 626
f 241 80 77
f 226 745 831
f 244 205 638
f 514 304 274
f 281 680 597
f 399 165 464
f 521 438 439
f 244 388 408
f 187 832 389
f 418 181 833
f 494 47 612
f 834 835 516
f 212 542 836
f 673 228 837
f 99 838 839
f 840 375 841
f 351 366 454
f 842 167 301
f 440 843 844
f 427 390 766
f 247 393 784
f 167 707 303
f 845 123 122
f 122 389 846
f 440 844 478
f 741 59 780
f 847 848 849
f 306 243 63
f 841 375 850
f 103 396 420
f 211 312 851
f 326 812 813
f 306 63 703
f 852 491 853
f 85 854 726
f 855 331 791
f 856 722 119
f 857 756 808
f 453 357 759
f 417 30 89
f 89 858 589
f 44 859 501
f 842 443 167
f 233 729 4
f 860 99 861
f 862 288 433
f 522 863 864
f 721 865 645
f 866 469 811
f 69 867 455
f 340 456 771
f 340 430 456
f 522 815 863
f 480 194 682
f 59 740 148
f 868 775 869
f 185 61 870
f 871 448 496
f 19 138 793
f 19 523 20
f 814 99 860
f 467 313 2
f 2 313 595
f 843 440 582
f 495 591 371
f 107 795 108
f 800 441 440
f 226 872 530
f 137 411 560
f 138 19 445
f 15 266 257
f 380 219 431
f 289 21 294
f 226 873 874
f 839 875 876
f 876 99 839
f 47 493 859
f 354 165 399
f 497 877 878
f 256 416 879
f 256 879 880
f 242 426 360
f 881 847 849
f 127 23 83
f 480 188 194
f 770 332 788
f 770 788 805
f 126 692 684
f 882 15 211
f 682 219 480
f 248 315 651
f 834 298 338
f 825 200 814
f 135 567 883
f 408 137 346
f 135 262 567
f 18 460 625
f 423 167 443
f 730 233 884
f 884 233 885
f 356 14 886
f 619 780 59
f 257 266 544
f 553 504 887
f 451 393 888
f 227 605 889
f 890 891 563
f 257 544 892
f 131 260 893
f 131 894 102
f 348 386 452
f 446 186 513
f 314 688 687
f 715 247 784
f 571 21 547
f 264 895 473
f 481 896 300
f 249 293 897
f 617 898 620
f 45 899 375
f 790 345 900
f 136 357 262
f 143 27 510
f 760 357 136
f 495 371 603
f 901 573 902
f 522 903 324
f 377 817 904
f 248 497 471
f 229 677 419
f 833 181 611
f 184 70 455
f 885 905 884
f 906 245 592
f 231 402 264
f 868 66 775
f 887 504 907
f 400 596 66
f 644 721 645
f 112 66 868
f 66 397 64
f 264 159 895
f 80 241 371
f 31 579 908
f 909 707 706
f 52 31 908
f 336 298 81
f 910 911 292
f 474 174 912
f 482 913 491
f 914 639 915
f 174 916 467
f 174 84 916
f 174 467 3
f 174 3 912
f 917 308 115
f 227 718 490
f 368 390 121
f 561 532 172
f 227 155 918
f 79 919 78
f 589 920 459
f 897 293 557
f 375 921 922
f 101 78 305
f 245 77 80
f 173 748 786
f 536 121 390
f 923 171 924
f 217 138 39
f 848 847 769
f 420 486 457
f 925 827 828
f 675 58 437
f 831 926 226
f 362 586 808
f 811 469 662
f 907 504 507
f 233 146 927
f 131 928 894
f 59 741 740
f 91 929 900
f 653 930 214
f 326 662 117
f 518 671 250
f 99 200 127
f 423 170 167
f 931 636 213
f 233 4 146
f 827 925 932
f 733 355 271
f 644 599 168
f 933 903 522
f 491 913 853
f 281 280 680
f 256 880 156
f 181 494 611
f 890 563 492
f 934 935 936
f 339 231 284
f 314 687 106
f 492 937 890
f 414 679 334
f 827 932 938
f 173 344 343
f 900 345 91
f 385 208 207
f 227 939 425
f 940 337 789
f 420 457 103
f 420 299 486
f 177 172 532
f 934 503 935
f 173 642 941
f 516 298 834
f 173 746 748
f 873 226 942
f 173 941 746
f 184 455 26
f 509 143 510
f 646 44 501
f 355 332 215
f 518 283 670
f 543 414 943
f 163 306 742
f 185 870 944
f 902 573 575
f 336 789 337
f 246 232 258
f 164 758 751
f 474 162 381
f 116 330 213
f 396 103 538
f 211 945 882
f 185 944 462
f 946 287 157
f 388 137 408
f 668 652 947
f 386 695 361
f 832 187 948
f 332 355 763
f 949 375 922
f 107 109 923
f 826 132 127
f 132 826 205
f 937 950 951
f 952 526 210
f 468 176 405
f 229 377 904
f 953 229 904
f 96 82 954
f 954 82 57
f 767 434 822
f 137 955 411
f 445 809 674
f 956 893 260
f 196 229 197
f 957 58 466
f 85 511 854
f 815 150 195
f 934 10 503
f 374 451 958
f 378 257 892
f 774 88 772
f 255 238 29
f 426 959 111
f 378 960 328
f 430 1 293
f 45 630 899
f 793 138 217
f 292 961 14
f 962 378 327
f 963 182 254
f 20 198 19
f 480 81 188
f 964 75 139
f 965 339 966
f 967 814 860
f 211 851 945
f 256 322 416
f 53 178 366
f 291 171 923
f 822 434 86
f 206 523 410
f 497 755 877
f 184 26 70
f 497 362 755
f 968 957 466
f 440 478 275
f 333 423 506
f 821 187 123
f 292 911 618
f 375 969 921
f 227 409 311
f 362 263 586
f 970 168 601
f 247 347 714
f 131 893 928
f 393 374 711
f 310 226 335
f 379 10 166
f 569 26 455
f 231 264 213
f 339 598 966
f 465 469 971
f 292 620 961
f 62 521 972
f 772 88 133
f 15 882 266
f 434 350 477
f 587 973 588
f 127 83 838
f 850 375 974
f 975 844 843
f 370 373 261
f 664 297 551
f 976 376 474
f 292 221 910
f 687 686 164
f 942 226 926
f 977 681 280
f 634 378 978
f 63 243 104
f 842 301 979
f 89 750 858
f 437 58 980
f 46 15 633
f 196 191 153
f 256 156 584
f 35 573 36
f 227 889 939
f 349 51 512
f 602 181 981
f 170 803 706
f 52 908 472
f 386 734 743
f 73 52 722
f 460 18 16
f 214 930 92
f 578 31 73
f 982 879 416
f 191 195 150
f 98 524 983
f 980 58 957
f 984 470 675
f 470 623 520
f 917 115 797
f 872 226 874
f 675 470 58
f 614 509 85
f 85 509 508
f 264 473 116
f 5 116 627
f 99 876 861
f 853 913 985
f 948 187 40
f 849 848 986
f 137 650 955
f 218 418 833
f 445 198 810
f 380 429 789
f 324 903 667
f 137 388 637
f 987 930 653
f 53 90 487
f 470 984 49
f 11 10 934
f 387 187 820
f 378 33 960
f 377 229 196
f 378 892 32
f 414 731 679
f 988 425 939
f 53 351 90
f 209 453 818
f 414 519 631
f 976 474 295
f 256 584 989
f 109 291 923
f 796 139 339
f 373 325 365
f 220 292 148
f 884 990 730
f 522 864 933
f 98 983 624
f 669 204 651
f 311 991 155
f 147 227 918
f 208 262 357
f 953 677 229
f 521 470 520
f 698 197 229
f 760 992 759
f 47 761 612
f 859 44 47
f 275 738 800
f 227 147 605
f 505 10 379
f 338 298 336
f 430 340 51
f 819 453 759
f 374 712 711
f 357 453 208
f 234 339 965
f 234 231 339
f 375 949 129
f 230 202 210
f 937 492 950
f 687 164 751
f 971 469 866
f 313 467 916
f 665 24 993
f 24 665 25
f 573 901 36
f 994 580 100
f 608 186 462
f 572 18 576
f 995 948 40
f 969 375 840
f 378 962 978
f 471 497 878
f 996 902 575
f 737 313 916
f 771 206 410
f 888 393 546
f 355 215 269
f 785 393 711
f 233 927 885
f 851 997 945
f 384 385 783
f 981 418 436
f 981 181 418
f 121 182 369
f 213 636 201
f 352 18 319
f 985 913 998
f 373 757 626
f 972 521 240
f 209 208 453
f 989 88 256
f 915 88 989
f 639 88 915
f 322 88 774
f 256 88 322
f 521 62 58
f 974 375 899
f 787 943 414
f 766 390 764
f 291 288 171
f 999 864 863
f 614 85 728
f 101 79 78
f 797 1000 917
f 838 99 127
f 728 85 726
f 314 829 779
f 1001 927 146
f 546 393 270
f 847 454 769
f 175 1002 405
f 125 474 912
f 209 818 1003
