v -0.441792 0.005535 0.038688
v -0.418411 0.030692 -0.010079
v -0.202999 0.046809 0.135181
v -0.191567 0.057338 0.117015
v 0.0929616 0.00918235 0.198407
v -0.310192 -0.133781 -0.187024
v -0.218184 0.0961634 -0.0393053
v -0.062268 -0.098485 0.159928
v -0.024702 -0.099394 0.167305
v 0.274057 -0.044748 0.180511
v -0.276495 -0.0955064 0.195629
v -0.189642 -0.204967 0.0599464
v -0.101598 -0.0199345 0.17331
v -0.18791 0.10268 -0.0644655
v -0.167076 0.110267 0.0333384
v 0.416424 -0.092821 0.110085
v -0.0996061 -0.0755964 -0.163467
v 0.404252 -0.093255 0.127776
v 0.134713 0.0101508 0.200324
v 0.02541 0.052994 0.086437
v -0.00152225 0.0746716 0.0549324
v -0.0883779 -0.0259079 -0.175321
v -0.119991 -0.023127 -0.17557
v -0.087989 0.019361 -0.169204
v -0.389988 0.03987 0.139934
v -0.350351 0.05125 0.09299
v -0.392548 0.040949 0.084609
v 0.0560962 -0.000545707 0.197453
v -0.363782 -0.121426 0.14967
v -0.284466 -0.249945 -0.0467793
v 0.042565 0.051538 -0.039762
v 0.008004 0.079171 0.00205
v 0.046663 0.051207 0.003162
v -0.384041 0.042414 0.027814
v 0.274625 0.00872078 0.18611
v -0.0152505 -0.099465 -0.164723
v 0.107152 0.0620271 0.0521739
v -0.171726 -0.15008 0.108428
v 0.244082 0.057007 -0.097145
v 0.205253 0.027354 0.198213
v 0.225692 -0.0172083 0.186768
v 0.231272 0.038885 0.19816
v -0.219365 0.052678 -0.135163
v -0.24268 0.062501 -0.187863
v 0.354652 -0.167234 0.0225823
v 0.352687 0.0430406 -0.0295655
v -0.276676 -0.195275 -0.120937
v -0.384435 -0.086469 0.154879
v -0.391628 -0.086042 0.145343
v -0.264409 0.058666 -0.085099
v -0.272498 0.057094 -0.123515
v 0.168654 -0.238401 0.0370253
v -0.11918 -0.07576 -0.163999
v -0.411476 -0.104842 0.0281512
v -0.0542289 -0.0188387 -0.179541
v -0.242514 -0.173279 -0.133788
v -0.245722 0.060325 -0.097383
v 0.031349 0.018805 -0.18785
v 0.018644 0.042614 -0.173266
v 0.0662265 0.050422 -0.174514
v 0.254897 0.0575537 -0.0271807
v 0.233208 0.0616931 0.151289
v 0.371203 -0.152692 -0.0066622
v -0.187605 0.084175 0.101565
v -0.16595 0.0568445 0.126426
v 0.161147 -0.044192 0.200742
v 0.121375 -0.0389812 0.201577
v -0.108918 -0.0757402 0.161621
v 0.0334 -0.074948 -0.180554
v 0.028037 -0.087663 -0.175252
v -0.00266367 -0.069485 -0.17953
v -0.307389 -0.117338 0.190726
v 0.142717 -0.198196 -0.0806769
v -0.331419 -0.0466886 0.195064
v 0.180248 -0.107064 -0.16674
v 0.268995 -0.230133 -0.0137296
v -0.237072 0.0856939 0.0549609
v -0.194744 0.0974442 0.0652485
v -0.332029 0.017072 0.185608
v 0.103935 0.0678625 -0.105019
v 0.0841585 0.067469 -0.15079
v -0.371314 -0.170255 -0.00312459
v -0.205525 0.0743725 -0.1056
v -0.184704 0.057287 -0.124074
v 0.303483 0.054882 -0.017753
v 0.311347 0.05514 0.010689
v -0.436493 -0.058478 0.086043
v -0.055267 0.09577 0.103331
v -0.048223 0.07976 0.145516
v 0.0218945 0.063516 -0.154629
v -0.013088 0.060339 -0.155731
v -0.0129783 -0.0694077 0.18279
v -0.133688 -0.141311 0.113617
v 0.332901 -0.103444 0.153424
v 0.293667 -0.192265 0.0759321
v -0.326069 -0.224767 -0.0499346
v -0.150821 0.103105 -0.0818869
v -0.275634 -0.198136 0.107531
v -0.105886 -0.199539 0.0512468
v -0.110908 0.056622 0.143275
v -0.073548 0.09084 0.133746
v -0.108502 0.096209 0.121023
v -0.181627 0.084129 -0.108435
v -0.316697 -0.246429 -0.0177232
v -0.203345 0.100502 0.0292872
v 0.226148 -0.202664 -0.0754012
v 0.258833 -0.0786394 -0.157024
v 0.0817956 0.0589909 -0.0302003
v 0.0787724 -0.0392944 0.199083
v 0.111553 -0.170629 -0.109162
v -0.00263319 -0.147036 -0.120623
v 0.328046 0.050159 -0.0750051
v 0.287831 0.0549025 -0.043424
v -0.290246 -0.222942 -0.0868772
v -0.205069 -0.146903 0.126676
v 0.0977708 -0.236085 -0.0117519
v -0.440327 -0.012491 0.10574
v -0.430741 0.005071 0.08912
v 0.184691 -0.245972 -0.0166024
v 0.291774 0.037794 -0.179741
v 0.030126 0.052975 -0.0812
v -0.247819 -0.257736 0.0150413
v 0.0725955 0.0641695 -0.0706436
v -0.268925 0.0587 0.073567
v 0.134098 -0.142712 -0.143164
v -0.314769 0.054197 0.102226
v 0.267702 0.054957 0.088116
v 0.28479 0.0549255 0.0633765
v 0.337931 -0.067573 0.190515
v 0.395442 0.021382 -0.0259252
v 0.412506 0.021169 0.013576
v 0.441128 0.001485 -0.015476
v 0.0986307 -0.180548 0.106604
v 0.205257 -0.177342 -0.108984
v 0.19757 -0.223288 -0.054022
v 0.151291 0.060899 -0.174149
v 0.113809 0.05823 -0.175762
v 0.138235 0.066773 -0.142651
v 0.182031 -0.104087 -0.169287
v -0.387204 0.040909 -0.103146
v -0.384573 0.0416535 -0.0745525
v 0.171995 -0.103997 0.183096
v 0.398477 0.002065 -0.102591
v 0.363554 -0.149887 0.0604131
v 0.311824 -0.0700197 0.179639
v 0.375684 -0.0487882 -0.151683
v -0.221268 0.058851 0.101954
v -0.283555 -0.266561 -0.00269521
v 0.421888 -0.092862 -0.082542
v 0.28528 -0.164997 0.111697
v 0.0594686 0.0636042 -0.111565
v 0.331537 -0.154948 0.0943153
v -0.380002 -0.128241 -0.123316
v -0.170802 0.040821 -0.150547
v -0.158593 0.05679 -0.132012
v 0.467794 -0.0268488 -0.00902756
v -0.0654951 -0.0186308 0.179492
v -0.0193849 -0.0157933 0.188393
v 0.461392 -0.0676858 -0.0146669
v 0.0666235 -0.101742 -0.171522
v 0.079309 -0.0808985 -0.180087
v 0.331847 0.037561 0.156917
v 0.323456 0.002728 0.200194
v 0.362039 -0.000428692 0.171908
v 0.434621 -0.0470609 0.125659
v -0.132482 0.056293 -0.13995
v -0.439853 -0.035756 0.084906
v -0.143516 0.028152 -0.161706
v -0.146798 -0.214125 0.0388083
v -0.072882 0.056828 -0.151455
v -0.102682 0.0565605 -0.145702
v -0.065924 0.090783 -0.134078
v 0.354578 -0.083826 -0.158959
v -0.0776795 0.106867 -0.0769866
v 0.153881 -0.186423 0.109839
v 0.442862 0.002189 0.014444
v -0.252863 -0.0660954 0.201366
v 0.301877 0.054894 0.038637
v 0.376638 -0.124083 0.0943436
v 0.385567 -0.138768 0.0256897
v -0.168327 -0.0751299 0.15471
v 0.0668943 -0.163083 -0.11237
v -0.11732 0.0322529 -0.155342
v 0.028006 -0.039118 0.196285
v 0.16911 -0.015855 0.201047
v -0.132447 -0.074754 0.162862
v 0.326689 -0.192016 0.0125936
v -0.227828 0.019586 0.188101
v 0.040232 0.051525 0.045784
v 0.039022 -0.039202 -0.190684
v 0.202746 -0.183489 0.118264
v -0.136269 -0.045891 0.173607
v -0.12989 -0.023052 0.172143
v 0.283754 -0.105505 -0.141024
v -0.19505 -0.157427 -0.122979
v 0.240742 -0.116353 -0.147527
v 0.0688245 -0.0808205 0.188014
v 0.18209 -0.200154 -0.0827506
v -0.155316 -0.217357 -0.042188
v 0.402008 -0.124354 -0.0170327
v 0.415322 -0.006423 0.104182
v -0.182936 -0.115886 -0.146942
v -0.193651 -0.134454 -0.143483
v 0.213436 0.061909 0.183411
v 0.037909 -0.009298 -0.19323
v -0.179194 0.040884 0.144244
v -0.216163 0.055805 0.181206
v -0.187475 0.043142 0.182424
v -0.032506 0.099939 0.036404
v -0.028333 0.099764 0.00101
v -0.0531 0.110187 0.000304
v 0.337289 0.050495 0.011429
v -0.381941 0.042398 -0.045959
v -0.229946 -0.13251 0.157029
v 0.161761 0.055042 0.006432
v -0.272674 -0.141615 0.172931
v -0.388294 0.0416815 0.0562115
v -0.436842 -0.034904 -0.116427
v -0.417569 -0.066614 -0.128884
v 0.011454 0.055938 -0.120008
v 0.342608 -0.024635 -0.175374
v 0.299102 -0.0174321 -0.16525
v -0.081483 0.056893 0.150713
v -0.137172 -0.003699 -0.184168
v -0.175154 -0.045893 -0.196574
v -0.182614 -0.017483 -0.196214
v 0.353602 -0.11878 0.124448
v -0.32443 -0.0869792 -0.202924
v -0.217831 -0.0319247 -0.205339
v -0.3632 -0.067672 -0.192022
v -0.306174 0.030428 0.186805
v -0.290301 0.062853 0.171249
v -0.326893 0.058324 0.162383
v -0.362224 0.050241 0.150975
v -0.097576 0.019433 0.167589
v 0.305414 -0.204257 -0.0212766
v 0.304083 0.0536856 0.124548
v 0.0675641 0.0654991 0.0755505
v -0.267072 -0.142296 -0.178613
v -0.374048 -0.156931 0.0782716
v 0.0631646 -0.226904 -0.024866
v 0.210297 0.0612571 -0.0317653
v 0.197125 0.0531807 0.00743867
v 0.398997 -0.0608408 0.152958
v -0.16792 0.027571 0.182059
v -0.280193 0.062778 -0.183839
v -0.317231 0.058253 -0.177066
v -0.272575 0.064083 -0.150784
v -0.407979 -0.0763025 0.126983
v -0.417473 -0.0343691 0.146221
v -0.310963 -0.0815935 0.200025
v -0.302804 -0.236428 0.0563354
v -0.398023 -0.125456 0.0655532
v -0.388994 -0.121046 0.110328
v -0.419379 -0.0925377 0.0757952
v -0.245846 -0.168439 0.127959
v -0.286912 -0.0497286 0.203272
v 0.105528 -0.23043 0.0349741
v 0.320013 -0.176221 -0.0547225
v 0.313331 -0.133005 0.132275
v -0.185275 0.103929 -0.003457
v -0.14397 0.11177 -0.002284
v 0.259797 0.041822 0.198954
v -0.437955 -0.0299476 -0.0784762
v 0.020507 0.018887 0.192995
v 0.147016 0.0686045 -0.0900034
v 0.43827 -0.093164 -0.035402
v 0.296301 -0.100104 0.161797
v 0.178485 -0.108369 0.184687
v -0.439015 -0.028645 0.088606
v -0.218675 -0.0612795 0.194399
v -0.419054 -0.091583 -0.0178451
v -0.386541 -0.146264 0.0322593
v -0.215285 -0.251096 0.00827502
v 0.16069 -0.224742 -0.0480282
v -0.0672883 0.11062 -0.0371188
v 0.103521 0.058307 0.1856
v -0.348775 -0.159055 0.12301
v 0.0566615 -0.101668 0.178752
v -0.122559 -0.098781 -0.145765
v 0.431448 -0.047771 -0.101663
v 0.0779135 -0.202936 0.073994
v -0.153845 0.1055 0.0713176
v -0.176898 0.043062 -0.189137
v -0.31757 -0.191972 0.112863
v -0.053175 -0.098553 -0.159496
v 0.257676 -0.039159 -0.164787
v 0.173279 -0.159403 0.142908
v -0.425078 0.005028 -0.109807
v -0.0661365 -0.219069 0.0238093
v -0.309574 -0.215203 0.0842523
v 0.400301 -0.119147 0.0629619
v -0.433369 -0.028688 -0.10975
v -0.435855 -0.022848 -0.101925
v 0.0491479 -0.128946 0.154706
v -0.126278 -0.045966 -0.177385
v 0.439429 0.001499 0.044219
v 0.047904 -0.208761 -0.0519893
v -0.315567 -0.244693 0.0213848
v 0.085918 -0.21504 -0.0488313
v -0.29906 0.057266 -0.033641
v -0.305672 0.057112 -0.006874
v -0.283192 0.068067 -0.0062365
v 0.022968 -0.07487 0.185867
v 0.320641 -0.0930334 -0.144095
v 0.234602 0.0610937 -0.0608003
v -0.148686 -0.179805 0.0777389
v 0.316982 -0.128429 -0.115866
v -0.216863 0.019504 -0.197091
v -0.127094 0.0362502 0.151535
v -0.355709 -0.19129 -0.0405485
v -0.233961 -0.199726 0.084242
v -0.339982 -0.150576 -0.151651
v 0.138557 0.0116768 -0.186733
v -0.396042 -0.130217 -0.00879522
v 0.185329 -0.146098 -0.142163
v -0.401864 -0.117741 -0.0527825
v -0.244121 0.030866 -0.198669
v 0.23249 0.0513193 0.00844533
v -0.273443 0.034082 -0.19986
v -0.195083 0.0467495 -0.142855
v -0.282631 0.058011 -0.063843
v -0.198051 -0.211418 -0.0638427
v 0.401811 0.0092397 -0.0620326
v -0.430997 -0.058519 -0.107035
v -0.434416 -0.035797 -0.106101
v -0.0553939 -0.162756 0.0971572
v -0.00906823 -0.163719 0.104988
v 0.0953143 -0.131505 0.160989
v 0.379882 0.036117 0.012643
v 0.405974 -0.0265125 -0.129867
v -0.320161 0.0398797 -0.0610349
v 0.107729 -0.199483 -0.073652
v -0.375667 0.0182506 0.166541
v -0.399571 -0.0066195 0.163099
v -0.353153 0.050173 -0.167684
v -0.434777 -0.055566 -0.048634
v -0.335664 -0.216306 0.0476128
v -0.150861 -0.132175 -0.127095
v 0.404625 -0.00594 0.118419
v 0.232345 -0.232806 -0.0385916
v -0.199262 -0.176289 0.0953687
v -0.078557 0.115401 -0.000423
v 0.170379 -0.106986 0.180446
v 0.273415 -0.201997 -0.0594942
v 0.269041 0.0583543 0.148062
v 0.370465 0.0285354 -0.0710622
v -0.198574 -0.112439 0.155795
v -0.243458 -0.256591 -0.0238725
v -0.194446 0.000824 -0.196088
v -0.133541 0.01783 -0.16685
v -0.344598 0.051207 -0.109118
v -0.308548 0.0541505 -0.116316
v -0.127831 0.007299 -0.170409
v -0.253265 -0.0632587 -0.213608
v -0.345419 -0.112069 -0.18137
v -0.441052 -0.022809 0.08065
v -0.157397 0.027492 -0.187654
v -0.423069 0.007624 -0.137545
v 0.233495 0.0595443 0.0545647
v 0.172195 -0.044316 -0.187554
v 0.163916 -0.098646 -0.175716
v 0.180153 -0.015975 -0.187424
v 0.272178 0.054923 -0.069095
v 0.204197 -0.113405 -0.163006
v 0.25258 -0.176199 -0.0984753
v 0.465649 -0.0632694 0.0259562
v -0.433536 0.018718 -0.010507
v -0.43898 0.005514 -0.060085
v 0.466774 -0.0258351 0.0418316
v -0.430313 0.007678 0.116926
v -0.268186 -0.222494 0.0711559
v -0.24361 -0.108418 -0.196538
v -0.118912 -0.197018 -0.0583853
v 0.217959 -0.0214162 -0.173626
v 0.267854 0.049458 0.009452
v -0.186157 -0.045812 0.189986
v -0.147531 -0.003621 0.179741
v -0.193585 -0.017401 0.189189
v -0.250968 0.060364 0.086894
v -0.235001 0.064658 0.093191
v -0.270932 0.061005 -0.135647
v 0.316743 0.024318 -0.179059
v -0.14292 0.017901 0.162649
v -0.358784 -0.017875 0.184619
v -0.0156804 0.0767939 -0.105392
v -0.0224044 -0.226894 -0.0117751
v -0.344604 -0.212219 -0.000152528
v -0.385613 -0.140144 -0.0849641
v -0.441995 -0.003636 0.063845
v -0.414703 0.027987 0.085477
v 0.248323 0.060172 0.180182
v -0.414433 0.0282056 0.0166865
v -0.1981 -0.183877 -0.0955628
v 0.178549 0.063646 0.186641
v 0.391892 0.002113 0.128765
v 0.378742 0.0202438 0.0980709
v 0.135419 -0.105009 0.181634
v 0.100459 -0.103032 0.182822
v 0.341499 -0.176408 -0.0180064
v 0.420472 -0.006462 -0.076711
v 0.410603 -0.005985 -0.091533
v -0.0914266 -0.136044 0.120797
v -0.130758 -0.09872 0.142273
v -0.437752 -0.003668 -0.08521
v -0.362283 -0.18325 0.039408
v 0.1861 -0.212387 0.0822299
v -0.211303 0.0744165 0.097378
v -0.174907 -0.110808 0.13635
v 0.19541 -0.0603322 0.189718
v -0.414669 0.024413 0.12766
v -0.02203 0.060405 0.158382
v -0.408199 -0.101931 -0.101692
v 0.371877 -0.00350964 -0.148549
v -0.0216725 -0.189104 0.0721427
v -0.257976 0.0795612 -0.0424609
v -0.191105 -0.115825 0.14002
v 0.148685 0.0663774 0.0784979
v -0.35567 -0.164839 -0.110557
v -0.041588 0.098858 0.070777
v -0.102905 0.108059 0.0799514
v -0.0806563 0.112018 0.0409513
v 0.1631 0.0639224 -0.0382462
v 0.34013 0.0374975 -0.134128
v 0.017916 -0.087586 0.180274
v -0.225744 0.092475 -0.004607
v -0.321037 0.01699 -0.200529
v -0.308719 0.024818 -0.200387
v -0.245932 0.054886 -0.129339
v 0.440566 -0.0932065 -0.010479
v 0.442862 -0.093249 0.014444
v -0.436945 -0.05555 0.0275195
v -0.439031 -0.055899 0.065568
v -0.0169003 0.034863 -0.171912
v 0.245457 -0.163086 0.128204
v -0.300593 0.057278 0.020224
v -0.38091 -0.15346 -0.0425941
v 0.122624 -0.222213 -0.0443075
v -0.285909 0.058036 0.051311
v 0.160277 -0.065996 0.197873
v 0.140127 -0.0886405 0.190358
v 0.131513 -0.0435185 -0.1906
v 0.375856 -0.094943 -0.138115
v -0.434859 -0.055201 -0.010529
v -0.0267842 -0.215582 0.0360581
v -0.324806 -0.14191 0.163858
v 0.183253 0.0627697 0.0473129
v 0.008654 0.042691 0.1777
v 0.231322 -0.152338 -0.126209
v -0.128421 -0.07569 0.160661
v -0.127869 -0.049894 0.170463
v 0.188772 0.063568 -0.172536
v 0.176053 -0.090621 -0.1771
v 0.218558 -0.0682168 -0.169441
v 0.281013 0.037861 0.199706
v 0.056877 0.066693 -0.153528
v -0.246495 -0.0205882 0.195871
v -0.20539 0.000906 0.188383
v -0.19443 -0.239703 -0.0265043
v 0.165573 -0.09051 0.190555
v 0.296593 -0.163845 -0.0906397
v 0.103805 0.0674322 0.104038
v 0.165031 0.065301 -0.13725
v 0.206639 0.060755 -0.121403
v 0.193314 0.0661881 -0.0795567
v -0.369335 -0.082268 -0.181396
v 0.129792 0.0668365 0.153929
v 0.102733 0.06831 0.157797
v 0.0560875 0.050499 0.18165
v -0.274175 -0.245157 0.0358847
v -0.439619 0.00833 -0.010678
v 0.400904 0.0174881 0.0573496
v -0.103014 0.115215 -0.044742
v 0.220804 -0.232514 0.0550446
v 0.0834557 0.0169036 -0.186134
v 0.271778 -0.141662 -0.121618
v -0.397188 -0.0646881 0.157224
v 0.22138 -0.249271 0.0084227
v -0.257713 -0.0131964 -0.20864
v 0.384006 -0.094776 0.148876
v 0.369886 -0.0707294 0.170125
v 0.367316 -0.094882 0.162961
v -0.260712 0.079022 -0.005599
v -0.265149 0.0771709 0.0244232
v -0.336444 0.001399 -0.200891
v -0.373641 -0.067593 0.174752
v -0.379161 -0.082195 0.163801
v -0.429558 -0.0449022 0.116881
v -0.30159 -0.0493466 -0.211625
v 0.415917 -0.114382 0.0241097
v -0.101545 0.096157 -0.123367
v -0.290987 0.0622536 -0.134544
v 0.314689 0.048373 -0.145724
v 0.297612 0.0564861 -0.108345
v -0.147574 -0.237108 -0.0026263
v -0.230128 0.0840645 -0.0738126
v -0.196981 -0.115925 0.146533
v -0.0633225 -0.192434 0.0617724
v -0.096513 -0.0986025 0.151101
v -0.406839 0.024354 -0.147379
v 0.365516 0.035858 0.0568327
v 0.0593427 -0.236219 0.0101982
v 0.194976 0.008474 -0.185008
v 0.110573 -0.103106 -0.173095
v 0.256412 -0.236319 0.0271673
v -0.100612 -0.168697 0.0869983
v -0.364337 -0.170949 -0.0731377
v -0.4002 -0.0763615 -0.146279
v -0.107149 -0.226936 0.0139515
v 0.14541 -0.105085 -0.169917
v -0.238488 -0.102116 0.184863
v -0.152586 0.02822 0.156942
v 0.0539753 -0.154316 0.128176
v 0.040919 -0.175345 0.102191
v -0.226803 0.052734 0.126118
v 0.0591009 0.0647248 0.118178
v -0.240773 -0.204193 -0.0945396
v -0.159756 -0.0745585 -0.159673
v -0.342906 0.0385336 0.0389035
v 0.361674 -0.090642 -0.151466
v -0.347431 0.001481 0.185101
v 0.331978 -0.024598 0.198259
v 0.0497372 -0.218057 0.0451792
v 0.286377 0.0542355 -0.153921
v 0.199042 0.0641039 0.0884695
v -0.20561 0.055725 -0.189558
v -0.280815 0.064145 0.138681
v 0.171111 0.0671297 0.113766
v 0.199294 0.060811 0.136609
v -0.299429 -0.00621008 -0.206595
v -0.347806 -0.017957 -0.201047
v -0.370407 -0.116896 -0.156475
v 0.0894718 -0.136344 -0.142731
v -0.34581 -0.189994 0.0822859
v -0.441996 -0.016283 -0.01074
v 0.367748 -0.116303 -0.0985827
v -0.276551 0.050168 -0.194432
v -0.295155 0.030345 -0.200259
v -0.166974 -0.110867 -0.142358
v 0.0867897 -0.0270257 -0.190423
v -0.284474 0.034164 0.18764
v -0.228844 -0.230077 0.0453036
v -0.319722 0.0249 0.186164
v -0.433704 -0.01254 -0.126939
v 0.0359847 -0.186257 -0.0806632
v -0.0172783 0.0778747 0.0972713
v 0.453481 -0.0643865 0.0756759
v 0.363072 -0.149724 -0.0432958
v 0.184058 0.008588 0.199467
v -0.296862 -0.174169 0.144243
v -0.111541 -0.22047 -0.0282489
v 0.232863 -0.0738183 0.179096
v 0.458179 -0.0489072 -0.0610385
v -0.409028 -0.0358331 -0.169128
v -0.0517565 0.058649 0.154547
v -0.412156 0.0286557 -0.0536629
v 0.26219 -0.0946993 0.16702
v 0.392581 -0.118664 -0.0621952
v 0.256241 0.00427572 -0.169467
v 0.300013 0.0438209 0.169779
v 0.00679147 -0.205889 -0.0504213
v -0.195187 -0.100485 0.171171
v -0.039971 0.079698 -0.144384
v 0.295581 -0.214109 0.028092
v -0.145036 0.092914 -0.114313
v 0.341793 -0.145876 -0.0806695
v -0.0461615 -0.169835 -0.0887784
v -0.212346 -0.114421 -0.176878
v 0.140733 0.0695899 0.117978
v 0.156852 0.065363 0.15006
v -0.177216 -0.075422 -0.192387
v -0.29614 -0.00731333 0.194907
v -0.355149 0.0407009 -0.0688414
v -0.00388753 -0.179236 -0.0832951
v -0.087867 -0.098667 -0.15263
v -0.379597 0.00305499 -0.184072
v -0.151409 0.092962 0.109512
v 0.11144 0.068245 -0.148053
v -0.101375 -0.131773 -0.123946
v 0.223419 0.061833 -0.167326
v 0.258066 0.060098 -0.162117
v -0.312848 0.0368422 0.0657783
v 0.0453461 -0.134657 -0.140292
v 0.11727 0.0641185 -0.0543045
v -0.44162 -0.0299061 0.0571263
v 0.0874855 -0.152587 0.136592
v 0.331762 0.0481379 0.0584257
v -0.185239 -0.100559 -0.178282
v 0.143885 -0.134577 0.164252
v 0.0258529 -0.224473 -0.0190328
v 0.004507 0.055989 0.124109
v 0.344873 -0.083778 0.182564
v 0.352391 -0.090588 0.175485
v -0.125111 0.113999 0.0384106
v 0.264086 -0.219084 0.0595579
v -0.106632 0.115988 -0.001221
v 0.127287 -0.159324 0.136398
v -0.434696 -0.055931 -0.086739
v 0.012864 -0.100303 0.174682
v 0.141035 0.0609765 0.18612
v -0.34397 0.050197 -0.007963
v -0.382269 0.043281 -0.009053
v -0.420814 -0.0850987 -0.0667288
v -0.0354233 -0.201035 -0.0524962
v 0.012959 0.0635825 0.15927
v 0.132474 -0.210615 0.0739228
v -0.155965 -0.18925 -0.0744089
v 0.0239415 -0.194085 0.0754229
v -0.3815 0.039806 -0.158235
v -0.062166 0.0271857 0.170959
v 0.15926 -0.172119 -0.113253
v 0.435459 0.000147 -0.039866
v 0.085029 0.0524853 0.004252
v -0.215213 0.058806 -0.110729
v -0.229423 0.064616 -0.102764
v 0.213109 -0.152779 0.145669
v 0.274216 -0.13207 0.14333
v 0.305971 0.024374 0.20045
v 0.432381 0.00017 0.068246
v -0.310407 0.059349 -0.150239
v -0.145748 0.112468 -0.0417274
v -0.24166 -0.231575 -0.0590489
v -0.409273 0.027947 -0.105267
v 0.00492403 0.0778834 -0.0341703
v 0.0753405 0.067535 0.158978
v -0.21269 -0.0766837 -0.19998
v 0.047948 0.06676 0.160159
v -0.283568 -0.100431 -0.209003
v -0.0489247 -0.0639453 0.179714
v -0.084871 -0.058483 0.176637
v -0.436896 -0.012012 -0.094898
v 0.348108 -0.067613 -0.167293
v 0.295867 -0.063725 -0.156172
v 0.329212 -0.18076 0.0523654
v 0.308338 0.0514506 0.0846383
v 0.342146 0.0421055 0.104318
v 0.139872 -0.243795 -0.00658387
v 0.216058 0.02725 -0.182557
v 0.435452 -0.093143 0.06395
v 0.439157 -0.093196 0.039197
v 0.305787 0.048439 0.167042
v 0.277055 0.0543055 0.173612
v 0.447006 -0.025094 0.0816265
v -0.030486 0.099924 -0.034563
v 0.0703099 0.0583054 0.0366571
v -0.0682334 -0.222258 -0.0219492
v 0.365571 0.026622 -0.122532
v 0.144575 0.0613218 0.0386182
v 0.123395 0.0537637 0.005342
v 0.0746787 -0.190145 -0.081046
v -0.037598 0.098828 -0.069397
v -0.049402 0.095726 -0.102674
v -0.442862 -0.034859 0.095077
v -0.319607 -0.189073 -0.123021
v -0.337261 -0.200054 -0.0836252
v 0.238057 0.057052 0.114523
v 0.357906 0.026683 0.146792
v 0.40103 -0.0229926 0.155373
v -0.042985 0.0585835 -0.153593
v -0.0777198 -0.195332 -0.0578299
v -0.0018484 0.0767259 -0.0664515
v -0.252995 0.054939 0.11879
v -0.279187 0.057144 0.111462
v -0.255131 0.030949 0.188121
v -0.253078 0.062579 0.177402
v 0.403552 -0.0644349 -0.12805
v -0.293657 -0.170528 -0.155978
v -0.38283 -0.086109 -0.163675
v -0.375107 -0.08654 -0.172787
v -0.140333 0.056351 0.135837
v 0.410735 -0.093305 -0.100894
v 0.391717 -0.094836 -0.123107
v -0.368554 -0.04697 0.181445
v 0.02675 -0.009213 0.198751
v -0.357741 -0.047051 -0.198423
v 0.239469 -0.124546 0.158582
v -0.441691 -0.011976 0.073569
v -0.0443358 -0.132249 0.133055
v 0.334197 0.002683 -0.177801
v -0.00822316 -0.0158734 -0.185047
v -0.0524447 0.027112 -0.170558
v 0.00720224 -0.136497 0.140084
v -0.183914 -0.233885 0.0226205
v 0.171172 -0.066119 -0.184725
v 0.150635 -0.088735 -0.17836
v -0.287268 0.050248 0.182038
v 0.125218 -0.086849 -0.17962
v -0.18798 -0.075342 0.185699
v -0.0498169 -0.135954 -0.125336
v 0.348828 -0.103784 -0.126846
v 0.0284738 -0.162497 -0.1085
v -0.137422 0.007371 0.166531
v 0.270549 0.041743 -0.180197
v -0.278313 0.06106 0.123662
v 0.114681 -0.086771 0.190161
v -0.42433 -0.066563 0.108624
v -0.123073 -0.074825 -0.166428
v -0.118071 -0.049969 -0.173765
v 0.243005 -0.19936 0.0936156
v -0.097538 -0.16615 -0.0903612
v -0.147922 -0.159892 -0.102778
v -0.188432 -0.115988 -0.153779
v -0.228254 -0.142225 -0.159884
v 0.367941 -0.0382689 0.177153
v -0.189496 -0.112507 -0.163118
v 0.203951 -0.121966 0.171869
v 0.242027 0.038792 -0.181029
v -0.026756 0.0349383 0.17433
v -0.343011 -0.0971578 0.180645
v -0.074791 -0.058559 -0.177482
v 0.022674 -0.100377 -0.16995
v 0.0147725 -0.229365 0.0185993
v 0.00777688 -0.210078 0.0495977
v -0.0387273 -0.064022 -0.178506
v -0.115047 0.108473 -0.07519
v -0.219365 0.052678 -0.135163
v 0.018644 0.042614 -0.173266
v -0.440327 -0.012491 0.10574
v 0.135419 -0.105009 0.181634
v 0.151291 0.060899 -0.174149
v 0.113809 0.05823 -0.175762
v 0.0334 -0.074948 -0.180554
v -0.226803 0.052734 0.126118
v -0.102682 0.0565605 -0.145702
v -0.087989 0.019361 -0.169204
v -0.16595 0.0568445 0.126426
v -0.179194 0.040884 0.144244
v -0.187605 0.084175 0.101565
v -0.314769 0.054197 0.102226
v -0.11918 -0.07576 -0.163999
v -0.389988 0.03987 0.139934
v -0.362224 0.050241 0.150975
v -0.202999 0.046809 0.135181
v 0.0334 -0.074948 -0.180554
v -0.00266367 -0.069485 -0.17953
v -0.326893 0.058324 0.162383
v -0.290301 0.062853 0.171249
v 0.182031 -0.104087 -0.169287
v -0.110908 0.056622 0.143275
v -0.205525 0.0743725 -0.1056
v -0.181627 0.084129 -0.108435
v -0.118071 -0.049969 -0.173765
v 0.170379 -0.106986 0.180446
v -0.344598 0.051207 -0.109118
v 0.172195 -0.044316 -0.187554
v -0.195083 0.0467495 -0.142855
v -0.235001 0.064658 0.093191
v -0.147531 -0.003621 0.179741
v 0.039022 -0.039202 -0.190684
v -0.441792 0.005535 0.038688
v -0.441995 -0.003636 0.063845
v -0.211303 0.0744165 0.097378
v -0.353153 0.050173 -0.167684
v -0.317231 0.058253 -0.177066
v -0.414669 0.024413 0.12766
v -0.123073 -0.074825 -0.166428
v -0.087867 -0.098667 -0.15263
v -0.225744 0.092475 -0.004607
v -0.185275 0.103929 -0.003457
v 0.042565 0.051538 -0.039762
v -0.272575 0.064083 -0.150784
v 0.018644 0.042614 -0.173266
v 0.031349 0.018805 -0.18785
v -0.283192 0.068067 -0.0062365
v -0.305672 0.057112 -0.006874
v 0.140127 -0.0886405 0.190358
v -0.20561 0.055725 -0.189558
v 0.180248 -0.107064 -0.16674
v -0.073548 0.09084 0.133746
v -0.108502 0.096209 0.121023
v -0.308548 0.0541505 -0.116316
v -0.282631 0.058011 -0.063843
v -0.264409 0.058666 -0.085099
v 0.311347 0.05514 0.010689
v 0.303483 0.054882 -0.017753
v 0.267854 0.049458 0.009452
v 0.416424 -0.092821 0.110085
v -0.260712 0.079022 -0.005599
v 0.110573 -0.103106 -0.173095
v 0.0218945 0.063516 -0.154629
v 0.194976 0.008474 -0.185008
v 0.197125 0.0531807 0.00743867
v 0.331978 -0.024598 0.198259
v 0.02541 0.052994 0.086437
v -0.16792 0.027571 0.182059
v -0.187475 0.043142 0.182424
v -0.418411 0.030692 -0.010079
v -0.433536 0.018718 -0.010507
v -0.321037 0.01699 -0.200529
v -0.336444 0.001399 -0.200891
v 0.138235 0.066773 -0.142651
v -0.137172 -0.003699 -0.184168
v -0.013088 0.060339 -0.155731
v -0.295155 0.030345 -0.200259
v 0.180153 -0.015975 -0.187424
v -0.441996 -0.016283 -0.01074
v -0.024702 -0.099394 0.167305
v -0.384041 0.042414 0.027814
v -0.414703 0.027987 0.085477
v -0.196981 -0.115925 0.146533
v 0.305971 0.024374 0.20045
v 0.384006 -0.094776 0.148876
v 0.404252 -0.093255 0.127776
v -0.136269 -0.045891 0.173607
v 0.141035 0.0609765 0.18612
v 0.156852 0.065363 0.15006
v 0.129792 0.0668365 0.153929
v -0.0489247 -0.0639453 0.179714
v -0.084871 -0.058483 0.176637
v 0.348108 -0.067613 -0.167293
v -0.028333 0.099764 0.00101
v -0.078557 0.115401 -0.000423
v 0.16911 -0.015855 0.201047
v 0.178549 0.063646 0.186641
v -0.273443 0.034082 -0.19986
v 0.040232 0.051525 0.045784
v 0.441128 0.001485 -0.015476
v 0.435459 0.000147 -0.039866
v -0.0524447 0.027112 -0.170558
v -0.072882 0.056828 -0.151455
v -0.350351 0.05125 0.09299
v -0.127869 -0.049894 0.170463
v -0.140333 0.056351 0.135837
v 0.028037 -0.087663 -0.175252
v -0.14292 0.017901 0.162649
v -0.152586 0.02822 0.156942
v -0.195187 -0.100485 0.171171
v -0.306174 0.030428 0.186805
v -0.0169003 0.034863 -0.171912
v -0.126278 -0.045966 -0.177385
v -0.430313 0.007678 0.116926
v -0.174907 -0.110808 0.13635
v 0.442862 0.002189 0.014444
v -0.097576 0.019433 0.167589
v 0.022968 -0.07487 0.185867
v 0.123395 0.0537637 0.005342
v 0.161761 0.055042 0.006432
v -0.119991 -0.023127 -0.17557
v -0.118071 -0.049969 -0.173765
v -0.106632 0.115988 -0.001221
v 0.037909 -0.009298 -0.19323
v 0.008004 0.079171 0.00205
v -0.0129783 -0.0694077 0.18279
v -0.02203 0.060405 0.158382
v -0.0517565 0.058649 0.154547
v -0.382269 0.043281 -0.009053
v -0.381941 0.042398 -0.045959
v -0.280193 0.062778 -0.183839
v 0.079309 -0.0808985 -0.180087
v -0.151409 0.092962 0.109512
v -0.032506 0.099939 0.036404
v -0.0152505 -0.099465 -0.164723
v -0.053175 -0.098553 -0.159496
v -0.0387273 -0.064022 -0.178506
v -0.227828 0.019586 0.188101
v 0.022674 -0.100377 -0.16995
v -0.074791 -0.058559 -0.177482
v 0.267702 0.054957 0.088116
v 0.238057 0.057052 0.114523
v -0.369335 -0.082268 -0.181396
v 0.420472 -0.006462 -0.076711
v -0.3632 -0.067672 -0.192022
v 0.410735 -0.093305 -0.100894
v 0.43827 -0.093164 -0.035402
v -0.122559 -0.098781 -0.145765
v 0.199294 0.060811 0.136609
v 0.337289 0.050495 0.011429
v -0.137422 0.007371 0.166531
v 0.323456 0.002728 0.200194
v -0.332029 0.017072 0.185608
v 0.125218 -0.086849 -0.17962
v -0.137422 0.007371 0.166531
v 0.171172 -0.066119 -0.184725
v -0.0531 0.110187 0.000304
v -0.030486 0.099924 -0.034563
v -0.436945 -0.05555 0.0275195
v -0.42433 -0.066563 0.108624
v -0.407979 -0.0763025 0.126983
v 0.160277 -0.065996 0.197873
v 0.11144 0.068245 -0.148053
v 0.161147 -0.044192 0.200742
v 0.022968 -0.07487 0.185867
v 0.0688245 -0.0808205 0.188014
v 0.028006 -0.039118 0.196285
v -0.308719 0.024818 -0.200387
v -0.285909 0.058036 0.051311
v -0.268925 0.0587 0.073567
v 0.188772 0.063568 -0.172536
v -0.250968 0.060364 0.086894
v 0.337931 -0.067573 0.190515
v -0.127869 -0.049894 0.170463
v -0.255131 0.030949 0.188121
v -0.216163 0.055805 0.181206
v 0.440566 -0.0932065 -0.010479
v -0.186157 -0.045812 0.189986
v -0.18798 -0.075342 0.185699
v 0.022968 -0.07487 0.185867
v 0.375856 -0.094943 -0.138115
v 0.361674 -0.090642 -0.151466
v 0.23249 0.0513193 0.00844533
v 0.365571 0.026622 -0.122532
v -0.245932 0.054886 -0.129339
v 0.150635 -0.088735 -0.17836
v 0.14541 -0.105085 -0.169917
v 0.435452 -0.093143 0.06395
v 0.223419 0.061833 -0.167326
v 0.216058 0.02725 -0.182557
v 0.213436 0.061909 0.183411
v 0.205253 0.027354 0.198213
v 0.231272 0.038885 0.19816
v -0.435855 -0.022848 -0.101925
v -0.12989 -0.023052 0.172143
v -0.347806 -0.017957 -0.201047
v 0.0662265 0.050422 -0.174514
v -0.191105 -0.115825 0.14002
v 0.102733 0.06831 0.157797
v 0.0560875 0.050499 0.18165
v 0.047948 0.06676 0.160159
v -0.382269 0.043281 -0.009053
v -0.34397 0.050197 -0.007963
v 0.100459 -0.103032 0.182822
v -0.188432 -0.115988 -0.153779
v -0.382269 0.043281 -0.009053
v -0.439031 -0.055899 0.065568
v 0.0666235 -0.101742 -0.171522
v -0.387204 0.040909 -0.103146
v 0.0566615 -0.101668 0.178752
v 0.206639 0.060755 -0.121403
v 0.301877 0.054894 0.038637
v 0.28479 0.0549255 0.0633765
v -0.193585 -0.017401 0.189189
v -0.20539 0.000906 0.188383
v 0.354578 -0.083826 -0.158959
v 0.0334 -0.074948 -0.180554
v -0.062268 -0.098485 0.159928
v -0.409273 0.027947 -0.105267
v -0.280193 0.062778 -0.183839
v 0.367316 -0.094882 0.162961
v -0.357741 -0.047051 -0.198423
v -0.384573 0.0416535 -0.0745525
v -0.158593 0.05679 -0.132012
v -0.081483 0.056893 0.150713
v -0.300593 0.057278 0.020224
v -0.062166 0.0271857 0.170959
v -0.026756 0.0349383 0.17433
v 0.114681 -0.086771 0.190161
v -0.43898 0.005514 -0.060085
v -0.436896 -0.012012 -0.094898
v -0.437752 -0.003668 -0.08521
v -0.305672 0.057112 -0.006874
v 0.046663 0.051207 0.003162
v -0.388294 0.0416815 0.0562115
v -0.065924 0.090783 -0.134078
v 0.020507 0.018887 0.192995
v 0.02675 -0.009213 0.198751
v 0.004507 0.055989 0.124109
v -0.041588 0.098858 0.070777
v -0.055267 0.09577 0.103331
v -0.037598 0.098828 -0.069397
v 0.046663 0.051207 0.003162
v -0.319722 0.0249 0.186164
v 0.012864 -0.100303 0.174682
v 0.017916 -0.087586 0.180274
v 0.352391 -0.090588 0.175485
v 0.344873 -0.083778 0.182564
v 0.439157 -0.093196 0.039197
v 0.442862 -0.093249 0.014444
v -0.244121 0.030866 -0.198669
v -0.170802 0.040821 -0.150547
v -0.176898 0.043062 -0.189137
v -0.048223 0.07976 0.145516
v -0.02203 0.060405 0.158382
v -0.073548 0.09084 0.133746
v -0.175154 -0.045893 -0.196574
v -0.182614 -0.017483 -0.196214
v -0.434859 -0.055201 -0.010529
v -0.101545 0.096157 -0.123367
v -0.406839 0.024354 -0.147379
v -0.096513 -0.0986025 0.151101
v 0.022674 -0.100377 -0.16995
v 0.176053 -0.090621 -0.1771
v 0.244082 0.057007 -0.097145
v -0.358784 -0.017875 0.184619
v 0.259797 0.041822 0.198954
v -0.436493 -0.058478 0.086043
v 0.171995 -0.103997 0.183096
v -0.387204 0.040909 -0.103146
v 0.286377 0.0542355 -0.153921
v 0.314689 0.048373 -0.145724
v 0.291774 0.037794 -0.179741
v 0.270549 0.041743 -0.180197
v 0.012959 0.0635825 0.15927
v -0.122559 -0.098781 -0.145765
v -0.436493 -0.058478 0.086043
v -0.442862 -0.034859 0.095077
v -0.439853 -0.035756 0.084906
v -0.436493 -0.058478 0.086043
v -0.182936 -0.115886 -0.146942
v 0.103521 0.058307 0.1856
v -0.417569 -0.066614 -0.128884
v -0.430997 -0.058519 -0.107035
v 0.012864 -0.100303 0.174682
v -0.439619 0.00833 -0.010678
v -0.3815 0.039806 -0.158235
v 0.287831 0.0549025 -0.043424
v 0.165031 0.065301 -0.13725
v -0.122559 -0.098781 -0.145765
v 0.011454 0.055938 -0.120008
v 0.176053 -0.090621 -0.1771
v -0.128421 -0.07569 0.160661
v 0.008654 0.042691 0.1777
v 0.258066 0.060098 -0.162117
v -0.391628 -0.086042 0.145343
v -0.384435 -0.086469 0.154879
v 0.34013 0.0374975 -0.134128
v 0.334197 0.002683 -0.177801
v -0.132482 0.056293 -0.13995
v -0.14397 0.11177 -0.002284
v 0.412506 0.021169 0.013576
v -0.130758 -0.09872 0.142273
v -0.24268 0.062501 -0.187863
v -0.434696 -0.055931 -0.086739
v 0.085029 0.0524853 0.004252
v -0.392548 0.040949 0.084609
v 0.165573 -0.09051 0.190555
v -0.392548 0.040949 0.084609
v 0.272178 0.054923 -0.069095
v -0.29906 0.057266 -0.033641
v -0.270932 0.061005 -0.135647
v -0.276551 0.050168 -0.194432
v -0.132447 -0.074754 0.162862
v -0.028333 0.099764 0.00101
v -0.166974 -0.110867 -0.142358
v -0.347431 0.001481 0.185101
v -0.130758 -0.09872 0.142273
v 0.046663 0.051207 0.003162
v -0.039971 0.079698 -0.144384
v 0.391717 -0.094836 -0.123107
v -0.177216 -0.075422 -0.192387
v -0.185239 -0.100559 -0.178282
v -0.245722 0.060325 -0.097383
v -0.229423 0.064616 -0.102764
v 0.442862 0.002189 0.014444
v -0.127831 0.007299 -0.170409
v -0.272498 0.057094 -0.123515
v -0.198574 -0.112439 0.155795
v -0.373641 -0.067593 0.174752
v -0.441691 -0.011976 0.073569
v -0.441052 -0.022809 0.08065
v -0.434416 -0.035797 -0.106101
v -0.375107 -0.08654 -0.172787
v 0.242027 0.038792 -0.181029
v 0.342608 -0.024635 -0.175374
v -0.133541 0.01783 -0.16685
v 0.281013 0.037861 0.199706
v -0.439619 0.00833 -0.010678
v -0.013088 0.060339 -0.155731
v 0.056877 0.066693 -0.153528
v 0.030126 0.052975 -0.0812
v -0.157397 0.027492 -0.187654
v 0.391892 0.002113 0.128765
v 0.379882 0.036117 0.012643
v -0.02203 0.060405 0.158382
v -0.216863 0.019504 -0.197091
v 0.316743 0.024318 -0.179059
v -0.434777 -0.055566 -0.048634
v 0.184058 0.008588 0.199467
v -0.042985 0.0585835 -0.153593
v -0.013088 0.060339 -0.155731
v -0.065924 0.090783 -0.134078
v -0.049402 0.095726 -0.102674
v -0.436842 -0.034904 -0.116427
v -0.430997 -0.058519 -0.107035
v 0.398477 0.002065 -0.102591
v 0.311347 0.05514 0.010689
v -0.433704 -0.01254 -0.126939
v 0.404625 -0.00594 0.118419
v 0.415322 -0.006423 0.104182
v -0.253078 0.062579 0.177402
v 0.421888 -0.092862 -0.082542
v -0.194446 0.000824 -0.196088
v -0.130758 -0.09872 0.142273
v -0.368554 -0.04697 0.181445
v -0.284474 0.034164 0.18764
v -0.272498 0.057094 -0.123515
v 0.439429 0.001499 0.044219
v -0.305672 0.057112 -0.006874
v -0.252995 0.054939 0.11879
v 0.008654 0.042691 0.1777
v 0.357906 0.026683 0.146792
v 0.410603 -0.005985 -0.091533
v 0.0841585 0.067469 -0.15079
v 0.311347 0.05514 0.010689
v -0.145036 0.092914 -0.114313
v -0.287268 0.050248 0.182038
v -0.290301 0.062853 0.171249
v -0.379161 -0.082195 0.163801
v -0.189496 -0.112507 -0.163118
v 0.165573 -0.09051 0.190555
v 0.432381 0.00017 0.068246
v -0.143516 0.028152 -0.161706
v -0.38283 -0.086109 -0.163675
v -0.028333 0.099764 0.00101
v -0.434859 -0.055201 -0.010529
v -0.127831 0.007299 -0.170409
v -0.280193 0.062778 -0.183839
v -0.439619 0.00833 -0.010678
v -0.278313 0.06106 0.123662
v -0.279187 0.057144 0.111462
v -0.430997 -0.058519 -0.107035
v -0.4002 -0.0763615 -0.146279
v 0.0753405 0.067535 0.158978
v -0.290301 0.062853 0.171249
v -0.280815 0.064145 0.138681
v -0.279187 0.057144 0.111462
v -0.423069 0.007624 -0.137545
v -0.273443 0.034082 -0.19986
v -0.284474 0.034164 0.18764
f 1 2 368
f 613 645 37
f 629 8 9
f 347 46 130
f 313 654 419
f 16 165 18
f 313 419 153
f 22 23 24
f 25 26 27
f 68 404 499
f 31 32 33
f 34 1 217
f 630 499 8
f 373 568 703
f 40 41 42
f 43 526 44
f 522 10 145
f 52 606 258
f 460 441 398
f 58 59 60
f 697 698 53
f 64 4 65
f 450 451 186
f 69 70 71
f 600 19 549
f 207 3 515
f 137 475 60
f 117 488 250
f 649 423 584
f 83 84 716
f 80 578 81
f 90 717 91
f 215 423 649
f 314 442 540
f 314 475 137
f 314 137 136
f 100 101 102
f 83 103 84
f 314 136 452
f 584 108 649
f 453 365 139
f 114 517 622
f 114 654 47
f 718 371 118
f 570 528 569
f 289 359 544
f 421 283 577
f 719 589 269
f 124 582 126
f 130 131 132
f 497 181 348
f 720 721 138
f 573 140 141
f 365 316 510
f 568 203 703
f 145 129 522
f 28 469 265
f 469 28 5
f 109 5 28
f 28 265 674
f 154 84 155
f 344 142 398
f 314 363 442
f 160 722 161
f 162 163 164
f 723 147 381
f 583 182 691
f 170 171 172
f 146 173 632
f 182 545 691
f 182 110 650
f 497 417 181
f 416 426 7
f 183 724 725
f 185 410 41
f 416 7 496
f 7 14 496
f 7 426 261
f 7 261 14
f 416 483 426
f 206 726 4
f 207 208 3
f 209 210 211
f 208 727 3
f 63 45 400
f 218 219 325
f 77 78 105
f 45 187 400
f 224 225 226
f 283 78 728
f 280 17 575
f 231 232 233
f 234 729 26
f 730 17 280
f 731 334 732
f 228 489 628
f 481 480 244
f 249 250 488
f 206 4 733
f 245 727 208
f 246 247 248
f 734 735 190
f 67 5 109
f 329 597 589
f 10 557 268
f 706 269 589
f 212 85 86
f 559 222 287
f 222 559 120
f 222 383 679
f 736 737 527
f 327 415 328
f 75 362 738
f 451 192 186
f 611 198 73
f 135 119 275
f 135 341 119
f 691 574 111
f 739 235 223
f 291 285 534
f 604 561 387
f 85 46 112
f 296 225 224
f 740 14 741
f 561 604 574
f 234 736 729
f 301 302 303
f 304 279 197
f 17 730 742
f 352 573 332
f 509 290 99
f 689 36 711
f 711 111 689
f 318 479 320
f 113 112 364
f 526 43 321
f 454 684 361
f 222 120 383
f 575 17 710
f 6 667 313
f 629 9 92
f 509 99 169
f 334 411 335
f 110 533 125
f 288 191 616
f 743 719 269
f 288 589 597
f 191 175 407
f 292 490 639
f 744 353 336
f 307 169 99
f 257 572 74
f 257 11 177
f 745 442 363
f 746 716 84
f 251 11 257
f 116 502 241
f 21 20 189
f 116 300 438
f 637 116 438
f 377 378 379
f 77 380 747
f 241 300 116
f 78 283 15
f 589 288 706
f 748 384 245
f 68 499 630
f 205 540 749
f 735 680 190
f 114 30 96
f 1 390 391
f 125 504 510
f 393 2 1
f 408 4 64
f 750 585 751
f 408 723 4
f 733 4 723
f 512 670 206
f 728 78 752
f 206 670 726
f 753 754 427
f 755 25 27
f 73 275 438
f 518 296 756
f 579 757 286
f 420 422 421
f 459 199 495
f 112 647 424
f 758 105 759
f 760 123 121
f 429 44 761
f 434 762 763
f 127 346 237
f 764 765 436
f 358 224 226
f 212 46 85
f 440 67 766
f 112 113 85
f 284 309 767
f 528 525 418
f 139 365 768
f 50 322 416
f 416 322 301
f 769 88 770
f 375 454 361
f 771 772 773
f 376 178 774
f 319 360 376
f 775 61 776
f 423 266 584
f 777 179 292
f 407 52 474
f 243 242 423
f 240 406 534
f 314 452 503
f 57 51 773
f 480 481 482
f 778 484 758
f 73 198 275
f 624 31 661
f 334 335 385
f 532 669 356
f 77 747 752
f 356 669 466
f 432 750 535
f 498 415 327
f 641 618 455
f 637 275 119
f 160 161 779
f 150 699 95
f 638 559 375
f 220 456 780
f 638 375 781
f 177 271 457
f 360 782 447
f 146 520 173
f 164 163 783
f 146 666 443
f 462 238 516
f 784 516 238
f 485 530 531
f 785 786 458
f 379 378 785
f 754 537 538
f 680 714 55
f 24 55 22
f 55 24 681
f 628 6 228
f 6 356 228
f 612 324 130
f 620 247 336
f 41 410 552
f 401 324 612
f 787 556 788
f 130 324 347
f 254 253 240
f 240 534 278
f 789 530 485
f 278 29 254
f 650 333 300
f 298 241 590
f 343 276 596
f 573 141 213
f 532 356 313
f 790 576 753
f 124 439 582
f 80 791 578
f 351 354 792
f 559 638 707
f 793 563 386
f 530 428 794
f 691 111 583
f 214 216 256
f 334 79 732
f 375 361 795
f 422 594 421
f 115 214 256
f 471 369 796
f 682 599 797
f 601 602 798
f 392 346 62
f 62 346 656
f 755 799 371
f 316 365 196
f 409 181 417
f 706 288 616
f 115 800 214
f 239 703 56
f 239 667 6
f 569 467 570
f 163 162 801
f 457 572 257
f 572 457 664
f 624 644 32
f 802 227 803
f 523 713 712
f 516 625 468
f 181 804 377
f 591 516 784
f 805 806 807
f 808 157 809
f 810 305 633
f 395 806 805
f 204 529 395
f 216 72 446
f 709 29 446
f 811 32 644
f 209 211 812
f 446 72 709
f 153 532 313
f 19 813 549
f 217 1 391
f 814 600 549
f 537 815 538
f 798 519 601
f 388 311 96
f 238 816 784
f 96 104 388
f 562 511 214
f 817 156 818
f 77 752 78
f 282 523 258
f 819 725 820
f 176 156 817
f 532 668 669
f 126 582 821
f 13 193 822
f 102 823 100
f 157 13 809
f 824 722 160
f 799 755 27
f 13 822 809
f 328 678 327
f 692 235 825
f 434 680 681
f 512 310 670
f 245 384 826
f 530 794 320
f 688 827 181
f 235 310 825
f 266 80 584
f 543 572 828
f 717 829 91
f 697 830 698
f 250 335 831
f 93 832 38
f 323 394 607
f 833 132 131
f 203 568 702
f 509 169 495
f 834 13 157
f 501 472 330
f 387 445 290
f 445 498 290
f 621 715 97
f 812 422 209
f 216 511 11
f 687 779 161
f 152 179 227
f 235 610 223
f 92 425 835
f 836 648 837
f 542 274 683
f 567 689 111
f 111 574 567
f 11 251 72
f 838 830 792
f 22 839 23
f 262 594 840
f 190 680 841
f 267 553 159
f 573 352 140
f 159 430 267
f 159 431 430
f 672 443 666
f 21 189 842
f 331 666 146
f 77 105 758
f 840 422 812
f 209 422 420
f 672 666 671
f 388 104 299
f 184 158 843
f 251 74 709
f 114 655 654
f 708 412 555
f 178 376 128
f 844 89 845
f 787 846 847
f 848 537 754
f 604 660 567
f 660 604 646
f 749 540 849
f 530 789 428
f 850 65 823
f 21 842 851
f 852 853 854
f 295 586 329
f 786 188 458
f 664 457 855
f 856 71 70
f 595 95 699
f 857 22 55
f 150 95 152
f 858 360 859
f 554 230 860
f 709 72 251
f 818 553 861
f 818 156 553
f 831 335 411
f 862 228 356
f 783 704 164
f 175 191 288
f 489 530 479
f 863 558 536
f 149 558 863
f 200 558 864
f 701 579 700
f 648 37 418
f 418 447 648
f 53 865 697
f 859 525 866
f 496 14 740
f 249 488 696
f 399 695 197
f 501 330 867
f 263 35 642
f 42 35 263
f 41 35 42
f 384 748 868
f 263 642 455
f 10 522 35
f 869 35 522
f 642 35 641
f 641 35 618
f 870 521 572
f 299 148 470
f 442 871 849
f 872 13 834
f 685 442 873
f 245 826 727
f 854 853 710
f 374 660 551
f 874 875 276
f 144 45 180
f 876 255 433
f 14 261 621
f 677 718 118
f 54 255 876
f 877 255 878
f 879 410 66
f 138 721 880
f 675 554 576
f 255 254 878
f 54 273 253
f 654 313 667
f 19 881 813
f 881 19 67
f 882 883 884
f 885 754 538
f 77 886 887
f 82 311 388
f 146 632 221
f 637 258 116
f 580 888 464
f 134 366 106
f 888 463 464
f 663 124 126
f 662 381 889
f 890 481 704
f 594 422 840
f 68 630 891
f 892 188 893
f 659 829 819
f 490 200 894
f 564 76 236
f 146 443 520
f 274 542 122
f 244 480 18
f 542 372 470
f 758 484 77
f 254 240 278
f 895 271 896
f 843 897 184
f 264 326 598
f 349 122 148
f 521 74 572
f 94 268 260
f 523 282 608
f 898 690 899
f 145 268 94
f 94 592 145
f 242 243 900
f 143 414 901
f 473 596 276
f 57 902 51
f 681 680 55
f 529 62 656
f 347 112 46
f 402 324 401
f 807 277 805
f 683 274 459
f 399 398 695
f 544 294 631
f 631 289 544
f 110 73 333
f 410 269 706
f 663 889 124
f 803 227 179
f 233 732 79
f 548 558 200
f 852 71 856
f 238 645 816
f 180 63 200
f 283 594 15
f 620 336 353
f 15 105 78
f 105 15 759
f 687 903 904
f 699 150 435
f 77 887 380
f 642 641 455
f 150 617 435
f 640 547 905
f 452 906 907
f 260 617 150
f 703 239 373
f 656 346 127
f 200 63 548
f 200 490 180
f 335 250 673
f 385 335 673
f 237 636 635
f 180 45 63
f 355 479 229
f 122 349 274
f 502 116 258
f 624 32 31
f 15 262 759
f 908 909 910
f 372 291 252
f 252 291 338
f 398 441 695
f 516 627 625
f 518 571 225
f 264 911 326
f 597 175 288
f 912 748 192
f 373 628 355
f 43 44 429
f 729 736 527
f 615 83 614
f 716 614 83
f 614 716 615
f 739 310 235
f 725 724 820
f 130 132 612
f 675 576 913
f 825 310 512
f 689 567 700
f 433 255 87
f 691 545 574
f 106 345 341
f 744 336 609
f 366 345 106
f 479 355 489
f 90 914 717
f 94 227 802
f 94 260 227
f 115 832 915
f 260 150 152
f 916 277 807
f 854 71 852
f 29 48 49
f 594 283 421
f 374 551 199
f 475 205 58
f 917 918 605
f 151 80 81
f 475 540 205
f 47 517 114
f 470 372 252
f 56 195 394
f 112 347 647
f 611 110 125
f 213 919 920
f 125 510 316
f 921 589 719
f 281 666 331
f 437 507 311
f 517 56 394
f 872 193 13
f 922 705 202
f 339 203 539
f 630 8 629
f 587 501 867
f 34 923 2
f 924 585 432
f 462 468 467
f 866 528 570
f 533 925 504
f 703 203 195
f 623 926 500
f 637 52 258
f 371 799 118
f 558 548 566
f 599 295 927
f 495 169 683
f 928 465 39
f 196 365 454
f 195 56 703
f 272 444 337
f 421 577 770
f 635 929 930
f 271 931 457
f 457 931 932
f 104 30 148
f 534 338 291
f 305 810 933
f 926 744 609
f 838 698 830
f 564 95 595
f 61 306 242
f 272 54 876
f 934 749 849
f 255 877 87
f 49 878 254
f 462 467 569
f 37 462 418
f 902 615 716
f 589 921 329
f 935 678 797
f 936 289 405
f 427 754 885
f 937 761 44
f 592 129 145
f 66 410 185
f 94 938 593
f 120 559 693
f 939 228 862
f 237 560 162
f 556 940 936
f 523 502 258
f 93 307 506
f 941 103 565
f 849 540 442
f 795 781 375
f 314 503 363
f 942 845 89
f 360 319 782
f 437 311 82
f 682 295 599
f 582 439 943
f 944 158 945
f 315 437 82
f 109 883 946
f 556 936 947
f 438 333 73
f 291 372 98
f 948 264 949
f 659 91 829
f 98 285 291
f 620 248 247
f 551 646 509
f 646 387 290
f 332 920 950
f 484 436 886
f 420 421 88
f 77 484 886
f 252 299 470
f 661 386 651
f 704 481 244
f 951 108 760
f 519 952 821
f 10 35 41
f 953 491 652
f 766 67 946
f 881 67 440
f 954 158 955
f 827 348 181
f 144 152 634
f 21 546 20
f 546 956 20
f 957 546 21
f 546 957 958
f 45 144 634
f 276 875 959
f 842 189 960
f 284 358 350
f 117 653 488
f 294 544 293
f 233 79 961
f 370 643 547
f 350 358 226
f 547 367 370
f 790 753 427
f 400 548 63
f 665 207 515
f 505 564 595
f 533 110 182
f 583 533 182
f 92 962 425
f 963 279 304
f 610 708 555
f 610 555 223
f 454 365 684
f 283 728 577
f 800 115 915
f 701 339 579
f 379 785 458
f 15 594 262
f 338 534 406
f 964 481 965
f 506 99 498
f 498 327 506
f 926 609 500
f 506 403 93
f 506 307 99
f 552 557 10
f 152 95 634
f 45 634 187
f 966 490 967
f 392 908 910
f 866 525 528
f 19 5 67
f 771 332 772
f 259 566 548
f 279 399 197
f 367 159 156
f 968 767 309
f 931 271 895
f 177 457 257
f 969 168 970
f 584 123 108
f 944 834 157
f 181 377 688
f 634 564 187
f 442 745 873
f 80 151 123
f 588 518 705
f 709 74 486
f 678 682 797
f 514 513 682
f 531 530 489
f 956 971 972
f 531 489 939
f 622 30 114
f 554 219 218
f 134 106 198
f 378 377 804
f 573 213 920
f 920 332 573
f 971 958 973
f 974 626 229
f 974 229 975
f 107 194 196
f 238 462 37
f 159 553 156
f 976 432 535
f 565 977 166
f 345 236 76
f 397 472 501
f 554 978 576
f 448 265 469
f 979 678 935
f 874 276 343
f 392 62 204
f 824 160 980
f 503 452 907
f 981 685 873
f 464 982 581
f 524 494 493
f 248 492 382
f 626 568 373
f 74 521 983
f 392 910 984
f 657 636 162
f 459 349 622
f 620 492 248
f 622 323 459
f 171 977 172
f 841 680 763
f 763 680 434
f 334 731 411
f 646 551 660
f 696 488 985
f 286 689 579
f 269 986 743
f 575 710 853
f 662 889 663
f 940 987 936
f 912 868 748
f 764 436 484
f 397 340 201
f 988 989 990
f 990 991 988
f 341 135 106
f 992 627 591
f 993 579 339
f 167 924 994
f 505 478 76
f 167 585 924
f 995 996 997
f 407 474 699
f 203 702 998
f 477 673 250
f 540 475 314
f 469 5 999
f 1000 413 1001
f 1001 413 603
f 473 276 174
f 963 1002 279
f 9 962 92
f 355 626 373
f 1003 788 947
f 229 626 355
f 97 741 14
f 406 82 388
f 710 17 742
f 99 290 498
f 157 158 944
f 955 158 184
f 753 576 1004
f 357 718 677
f 61 775 1005
f 884 28 674
f 465 928 1006
f 393 1 34
f 278 446 29
f 756 1007 518
f 553 281 861
f 57 615 902
f 529 806 395
f 394 701 607
f 556 787 847
f 339 195 203
f 572 664 541
f 701 195 339
f 1008 793 386
f 685 871 442
f 1009 738 362
f 315 273 54
f 971 546 958
f 221 414 146
f 341 345 76
f 341 76 478
f 333 650 110
f 464 581 580
f 332 771 352
f 342 38 115
f 511 216 214
f 68 891 1010
f 473 621 596
f 526 321 970
f 256 342 115
f 407 699 191
f 917 605 1011
f 1012 988 991
f 148 299 104
f 321 969 970
f 965 481 890
f 481 964 482
f 890 704 783
f 84 103 941
f 102 850 823
f 339 539 993
f 662 723 381
f 449 134 316
f 367 547 640
f 203 998 539
f 463 888 720
f 904 779 687
f 636 237 162
f 579 993 757
f 855 457 932
f 821 582 519
f 700 374 607
f 636 397 501
f 413 389 317
f 337 603 272
f 477 1013 1014
f 477 1014 487
f 317 315 272
f 1015 414 1016
f 121 123 151
f 349 148 30
f 622 349 30
f 65 850 64
f 984 346 392
f 152 144 179
f 10 41 552
f 618 35 869
f 491 174 652
f 155 1017 154
f 502 590 241
f 465 423 242
f 465 266 423
f 884 109 28
f 519 798 952
f 607 199 323
f 199 607 374
f 1018 621 261
f 596 621 1018
f 297 1019 472
f 913 576 790
f 1004 576 978
f 93 38 307
f 373 239 628
f 157 808 158
f 808 843 158
f 655 96 311
f 21 851 957
f 435 617 676
f 201 472 397
f 559 707 693
f 832 93 1020
f 650 298 545
f 416 303 483
f 561 545 298
f 561 574 545
f 456 220 151
f 413 1000 508
f 1021 767 968
f 550 446 278
f 941 565 166
f 22 857 839
f 603 337 1022
f 649 108 1023
f 217 391 1024
f 493 494 424
f 424 494 112
f 585 750 432
f 947 936 405
f 388 299 338
f 690 308 305
f 154 746 84
f 101 942 89
f 491 97 715
f 986 269 1025
f 905 547 16
f 547 165 16
f 175 597 133
f 952 1026 821
f 61 1027 306
f 772 332 1028
f 397 396 340
f 360 128 376
f 495 199 551
f 364 494 982
f 97 14 621
f 900 61 242
f 80 123 584
f 56 667 239
f 200 864 894
f 518 225 296
f 876 444 272
f 115 38 832
f 607 701 700
f 272 603 317
f 927 329 921
f 328 415 608
f 514 682 328
f 52 407 606
f 407 175 606
f 394 323 517
f 266 1006 791
f 761 1029 429
f 911 264 948
f 290 509 646
f 147 723 408
f 253 255 54
f 1025 269 879
f 624 661 644
f 370 156 176
f 1021 968 1030
f 660 700 567
f 567 574 604
f 181 1031 804
f 904 903 362
f 875 874 1032
f 1033 518 1007
f 334 385 1034
f 327 678 403
f 701 394 195
f 554 675 230
f 700 579 689
f 1035 1031 181
f 356 6 313
f 883 109 884
f 461 308 566
f 712 502 523
f 816 645 1036
f 476 308 461
f 1036 645 613
f 366 476 461
f 859 360 525
f 353 492 620
f 172 1037 170
f 54 272 315
f 536 690 1038
f 256 216 550
f 273 82 406
f 25 234 26
f 180 490 292
f 595 474 505
f 445 713 415
f 93 403 1020
f 611 73 110
f 198 106 135
f 61 1005 1027
f 536 566 308
f 626 1039 1040
f 415 498 445
f 453 684 365
f 653 985 488
f 657 397 636
f 530 320 479
f 760 108 123
f 700 660 374
f 55 714 857
f 349 459 274
f 254 29 49
f 631 405 289
f 362 75 904
f 50 496 1041
f 1041 496 1042
f 204 62 529
f 1019 297 1043
f 943 519 582
f 183 725 1044
f 360 858 128
f 470 122 542
f 507 655 311
f 196 476 449
f 1045 429 1029
f 214 800 1046
f 244 658 704
f 477 487 1047
f 151 220 121
f 421 770 88
f 258 606 282
f 1048 585 1049
f 359 623 500
f 626 974 1039
f 287 107 454
f 194 305 308
f 633 305 194
f 633 107 287
f 633 194 107
f 294 293 1050
f 554 860 1051
f 542 683 12
f 1009 362 903
f 342 12 307
f 820 659 819
f 628 239 6
f 1052 1012 991
f 222 1053 810
f 183 1044 1054
f 560 1055 801
f 475 58 60
f 534 285 278
f 1056 535 750
f 729 527 694
f 1057 220 780
f 771 773 51
f 658 244 165
f 704 658 164
f 1058 914 90
f 386 661 1059
f 1060 351 792
f 1061 164 658
f 12 683 169
f 130 1062 131
f 992 591 1063
f 479 318 1064
f 989 1015 1065
f 259 345 461
f 237 346 560
f 416 496 50
f 803 179 777
f 11 72 216
f 550 278 285
f 177 511 271
f 511 177 11
f 287 222 633
f 751 585 1048
f 196 194 476
f 454 107 196
f 431 159 367
f 19 999 5
f 369 1066 796
f 1040 568 626
f 495 551 509
f 68 1010 404
f 938 94 802
f 879 269 410
f 523 608 713
f 243 423 215
f 1067 41 40
f 581 982 524
f 1068 1037 1069
f 1068 170 1037
f 104 96 30
f 143 331 414
f 510 768 365
f 270 996 995
f 1070 1071 563
f 257 74 251
f 586 597 329
f 61 900 776
f 354 838 792
f 1050 1072 1073
f 1074 347 324
f 949 264 369
f 996 270 357
f 76 564 505
f 706 676 552
f 566 536 558
f 617 268 557
f 268 145 10
f 676 616 435
f 682 678 328
f 706 552 410
f 706 616 676
f 652 174 959
f 418 525 447
f 198 611 134
f 720 138 463
f 689 286 36
f 416 301 303
f 929 867 1075
f 366 461 345
f 554 218 1076
f 284 350 309
f 490 966 639
f 901 414 1015
f 513 295 682
f 125 533 504
f 617 260 268
f 1077 165 1078
f 1079 892 893
f 671 281 1080
f 1020 403 979
f 229 1064 1081
f 109 946 67
f 171 166 977
f 564 634 95
f 863 536 1038
f 867 929 587
f 450 186 1082
f 185 41 1067
f 486 74 1083
f 1084 686 231
f 330 472 1019
f 260 152 227
f 572 543 870
f 1011 605 412
f 718 357 270
f 1038 690 898
f 636 587 635
f 250 831 117
f 387 646 604
f 1074 324 402
f 300 241 298
f 298 650 300
f 134 611 316
f 418 462 569
f 586 295 513
f 372 542 312
f 342 312 12
f 312 542 12
f 477 249 1013
f 477 1047 673
f 477 250 249
f 633 222 810
f 382 492 1085
f 462 516 468
f 305 933 690
f 670 310 739
f 666 281 671
f 370 176 1086
f 1052 907 906
f 451 912 192
f 896 271 562
f 801 162 560
f 403 506 327
f 489 228 939
f 367 640 431
f 1087 519 943
f 550 216 446
f 515 1088 665
f 308 476 194
f 714 680 735
f 1089 945 954
f 183 1017 724
f 472 201 619
f 162 164 1090
f 1091 331 143
f 942 101 100
f 721 1092 880
f 914 1092 721
f 1052 906 1012
f 364 112 494
f 627 516 591
f 146 414 331
f 214 1046 562
f 1090 164 1061
f 775 776 1093
f 47 56 517
f 130 46 1062
f 82 273 315
f 97 1094 741
f 356 466 862
f 12 169 307
f 94 593 592
f 414 221 1016
f 1095 1079 1096
f 96 655 114
f 389 419 507
f 654 655 419
f 437 315 317
f 507 419 655
f 437 389 507
f 298 590 561
f 1071 651 386
f 709 486 1097
f 389 153 419
f 914 1058 1092
f 702 568 1098
f 658 1077 1061
f 643 165 547
f 557 676 617
f 766 1099 440
f 306 1027 39
f 242 306 465
f 387 712 445
f 387 561 590
f 119 478 52
f 97 491 1094
f 196 449 316
f 473 715 621
f 1100 643 1086
f 1101 183 1054
f 496 740 1042
f 644 661 651
f 554 1051 1102
f 308 690 536
f 37 645 238
f 1023 108 951
f 406 388 338
f 244 18 165
f 851 842 1103
f 1087 601 519
f 553 1080 281
f 386 1059 1008
f 553 267 1080
f 292 639 777
f 19 600 999
f 273 406 240
f 622 517 323
f 231 233 961
f 470 148 122
f 393 34 2
f 556 847 940
f 1015 1016 1065
f 52 478 474
f 643 1100 1078
f 643 1078 165
f 447 525 360
f 454 375 287
f 199 459 323
f 568 1040 1098
f 1062 46 212
f 550 285 98
f 346 1055 560
f 796 1066 1104
f 650 545 182
f 168 351 1060
f 925 583 711
f 635 587 929
f 127 635 930
f 127 237 635
f 24 23 1105
f 678 979 403
f 572 541 828
f 590 712 387
f 711 583 111
f 1001 603 1022
f 532 153 508
f 532 508 668
f 947 788 556
f 222 679 1053
f 508 153 413
f 293 1072 1050
f 559 287 375
f 259 236 345
f 667 47 654
f 1035 181 409
f 590 502 712
f 341 478 119
f 202 705 518
f 595 699 474
f 1030 1106 1021
f 125 316 611
f 369 264 1066
f 909 908 814
f 514 282 133
f 118 390 677
f 608 282 514
f 133 586 513
f 628 489 355
f 606 133 282
f 133 606 175
f 133 597 586
f 29 1097 48
f 513 514 133
f 571 518 588
f 281 331 1091
f 782 837 447
f 368 1107 1
f 449 476 366
f 533 583 925
f 366 134 449
f 616 191 435
f 275 198 135
f 636 501 587
f 183 1101 1017
f 505 474 478
f 1108 1088 1109
f 1077 658 165
f 990 989 1065
f 557 552 676
f 240 253 273
f 326 1110 598
f 229 479 1064
f 347 1074 647
f 995 718 270
f 142 460 398
f 554 1102 1111
f 861 281 1091
f 338 299 252
f 518 1033 202
f 917 1112 918
f 277 916 1112
f 292 179 144
f 180 292 144
f 381 147 408
f 229 1081 975
f 484 778 764
f 982 494 524
f 558 149 864
f 435 191 699
f 1113 665 1114
f 334 1034 79
f 1108 1114 1088
f 396 397 657
f 236 400 187
f 945 158 954
f 564 236 187
f 1111 219 554
f 956 546 971
f 174 715 473
f 715 174 491
f 317 603 413
f 437 317 389
f 306 39 465
f 98 372 312
f 256 98 312
f 438 300 333
f 1115 729 694
f 389 413 153
f 56 47 667
f 791 80 266
f 412 708 1011
f 386 563 1071
f 1066 264 598
f 899 690 933
f 1116 554 1076
f 978 554 1116
f 231 686 232
f 259 461 566
f 418 569 528
f 713 445 712
f 154 1017 1101
f 1055 346 984
f 1095 892 1079
f 312 342 256
f 1049 585 167
f 927 295 329
f 168 1060 970
f 370 367 156
f 959 174 276
f 266 465 1006
f 814 549 909
f 648 447 837
f 277 1112 917
f 613 37 836
f 37 648 836
f 359 289 623
f 637 438 275
f 1085 492 353
f 665 1088 1114
f 548 400 259
f 259 400 236
f 619 297 472
f 893 188 786
f 550 98 256
f 1059 661 31
f 495 683 459
f 415 713 608
f 608 514 328
f 255 253 254
f 390 118 391
f 968 1117 1030
f 52 637 119
f 490 894 967
f 29 709 1097
f 332 950 1028
f 1072 293 544
f 1083 74 983
f 151 81 456
f 38 342 307
f 271 511 562
f 370 1086 643
f 1118 892 1095
