v -0.0660681 -0.209748 -0.182558
v -0.06518 0.29005 -0.274177
v 0.0996749 0.0816813 -0.152476
v 0.12485 0.24357 0.0204289
v 0.127467 0.237716 0.0993197
v 0.191207 -0.219852 -0.173296
v 0.189972 -0.262782 -0.194968
v 0.192298 -0.221077 -0.200721
v -0.0481699 -0.202674 -0.205247
v 0.101448 0.105256 -0.133798
v 0.134864 0.190321 0.0949803
v 0.125646 0.230305 -0.012985
v 0.108955 0.095021 -0.007772
v -0.155913 -0.259361 0.0690183
v -0.155065 -0.217477 0.070992
v -0.163523 -0.218911 0.028455
v 0.010505 -0.198846 0.341633
v -0.0462444 -0.17819 0.347639
v -0.0462127 -0.215266 0.346457
v -0.061496 -0.235241 -0.342019
v -0.0411455 -0.266872 -0.343464
v -0.082494 -0.266451 -0.342696
v 0.0999742 0.0902278 -0.135909
v 0.10658 0.205813 -0.196036
v -0.11419 0.220865 0.00609337
v 0.0928839 0.207487 -0.239735
v 0.0792631 0.0327517 -0.246475
v 0.0830892 -0.216594 -0.0265528
v 0.086001 0.228672 0.25783
v 0.113196 0.093694 0.016539
v 0.107336 0.241121 -0.134988
v 0.116384 0.181009 -0.119424
v 0.104415 0.25406 -0.176112
v 0.116651 0.20689 -0.153076
v -0.0569643 -0.309025 0.14126
v -0.0822257 0.17207 0.332272
v 0.0638439 -0.328863 -0.112434
v -0.100858 -0.105152 0.320427
v -0.187814 -0.302854 -0.255486
v -0.191236 -0.263613 -0.249963
v 0.177797 -0.217823 -0.015615
v 0.174837 -0.260316 -0.010221
v -0.0697911 -0.327364 -0.0550455
v 0.0530421 -0.327045 -0.166728
v 0.0903752 0.282052 -0.0885601
v -0.079691 -0.198044 -0.197501
v 0.148579 -0.194821 0.156974
v 0.14615 -0.187083 0.169843
v 0.099309 0.08529 -0.055264
v 0.104329 0.092338 -0.031814
v -0.0745156 -0.317992 0.0510614
v -0.0690789 -0.321351 0.022102
v 0.00602357 -0.302294 0.0433686
v -0.114098 -0.202194 -0.202303
v 0.119013 0.253677 -0.0908655
v -0.0931481 -0.209581 -0.0667719
v 0.0991947 0.0815652 -0.13912
v -0.118769 -0.311158 -0.296859
v -0.0452579 0.0721352 0.0405364
v -0.0886221 0.10478 -0.233718
v -0.0994156 0.254502 0.0376431
v -0.124996 -0.140423 0.20958
v 0.131501 -0.322541 -0.096204
v 0.0820702 0.0757621 0.0499217
v 0.106092 -0.00213414 0.331696
v 0.099266 -0.196687 0.329669
v 0.100314 -0.239211 0.325637
v 0.106681 0.270579 0.0245072
v 0.109709 -0.323095 -0.251532
v 0.138353 0.103426 0.176284
v 0.140408 0.13674 0.212712
v 0.139369 0.0776524 0.201856
v 0.12884 0.210848 0.116093
v -0.112512 0.243192 -0.0646643
v 0.138998 0.209966 0.256884
v 0.131972 0.219356 0.257115
v 0.118583 0.211008 0.281482
v 0.129599 0.140808 0.084319
v 0.124989 0.142359 0.04113
v -0.116981 -0.281352 0.261526
v -0.116205 -0.305587 0.261425
v 0.0308525 -0.235876 -0.34376
v 0.136592 -0.062156 0.202718
v 0.182442 -0.26133 -0.087046
v 0.184452 -0.217692 -0.08419
v 0.181774 -0.217359 -0.054234
v 0.0918655 0.0575259 -0.217442
v 0.070265 0.052308 -0.282247
v -0.0954835 -0.233519 -0.339924
v -0.111333 -0.265994 -0.340736
v -0.193388 -0.224834 -0.269388
v 0.0883645 -0.313909 0.135755
v 0.00732014 -0.302142 0.129683
v 0.0485074 -0.30827 0.109746
v 0.0807808 0.0142427 -0.23102
v 0.103646 -0.212644 -0.0167336
v -0.107766 0.258528 0.00341893
v -0.0989568 0.279717 -0.0246435
v -0.175623 -0.303598 -0.120868
v 0.16996 -0.302532 -0.33747
v 0.178956 -0.302498 -0.334277
v 0.081893 -0.266452 -0.345151
v 0.122398 -0.313438 -0.279869
v 0.0655044 0.0352525 0.347383
v -0.0830552 -0.3123 0.140788
v 0.0761855 -0.214448 -0.273726
v -0.129471 -0.231798 -0.337829
v -0.16978 -0.229063 -0.332179
v -0.12851 0.135386 0.25958
v -0.126424 0.0865333 0.259599
v -0.127701 0.134788 0.286673
v 0.104114 -0.213269 -0.256511
v 0.105218 -0.0408934 0.328164
v 0.124965 0.233822 0.139778
v -0.112188 0.216053 0.108269
v -0.078956 0.265707 -0.274371
v -0.130648 -0.177892 0.185496
v -0.0750903 0.280609 0.0220649
v 0.169093 -0.304238 -0.010106
v -0.0220795 -0.305717 0.335221
v 0.00407886 -0.302523 -0.0861033
v -0.0443028 -0.321905 -0.083385
v -0.0312144 -0.317145 -0.113107
v 0.0379553 0.29863 -0.213455
v -0.0563006 0.283792 0.0667491
v 0.002049 0.305731 -0.225236
v 0.073743 -0.256652 0.335273
v -0.08499 0.258035 0.0778386
v 0.089713 -0.256663 0.331427
v 0.075798 0.154655 -0.286378
v 0.0993103 -0.329768 -0.0953218
v 0.003423 0.025109 -0.131956
v 0.003646 0.045453 -0.116908
v -0.112582 0.143912 0.0014205
v 0.049375 -0.024617 -0.283215
v 0.0848381 -0.175725 0.154795
v -0.076427 0.154656 -0.284104
v -0.071055 0.155008 -0.289403
v -0.0588935 0.137367 -0.291162
v 0.159449 -0.213656 0.097371
v 0.164917 -0.217479 0.066213
v -0.109381 0.0479435 0.315498
v 0.0882742 -0.335139 -0.150355
v 0.089052 -0.320342 -0.280358
v 0.000945 0.208063 -0.299025
v 0.0009235 0.182531 -0.300441
v 0.0919368 0.272905 -0.122616
v -0.10906 0.265718 -0.0924337
v -0.0626603 -0.153602 0.176863
v 0.0780261 0.278674 0.036806
v 0.0704636 0.285364 0.00567894
v -0.105574 0.24388 -0.156289
v -0.0867584 0.128972 -0.241378
v -0.09325 0.151535 -0.206346
v -0.086646 0.153223 -0.250146
v 0.0965528 -0.13897 0.329571
v 0.0723709 0.240561 0.221283
v -0.0759128 0.0290093 0.341283
v -0.0835237 -0.213126 -0.100481
v -0.0386257 -0.325991 -0.147454
v 0.00343071 -0.3026 -0.129261
v 0.0333676 -0.304368 -0.314622
v 0.038267 -0.302936 -0.34508
v 0.0550683 -0.312022 -0.298466
v 0.109531 -0.20641 0.0842238
v 0.127051 -0.215238 0.27869
v 0.156653 -0.210525 0.112988
v -0.121947 0.200467 0.159563
v -0.0398575 0.292402 0.00105627
v 0.128626 -0.105297 0.300133
v 0.0391037 0.24822 0.191566
v 0.13184 0.101496 0.30379
v -0.0469599 0.291623 -0.258259
v 0.0582934 -0.323313 -0.258113
v 0.081713 -0.335506 -0.225504
v -0.150879 -0.304648 0.0707853
v -0.153879 -0.31435 -0.15252
v -0.077937 -0.105042 0.334144
v -0.090841 -0.105087 0.328388
v -0.0363129 0.221666 0.297878
v 0.0576246 0.297349 -0.123173
v 0.0342855 -0.320943 -0.226876
v 0.0773309 0.0823313 0.0175796
v -0.124934 0.180986 0.107615
v 0.082453 -0.303691 0.296199
v 0.12283 0.18093 -0.0176031
v -0.103349 -0.281678 0.299534
v -0.107052 -0.256881 0.294777
v 0.006441 0.074622 0.071375
v 0.006815 0.063826 0.096517
v -0.0526852 0.064408 0.0648029
v 0.167884 -0.229065 -0.337223
v 0.177381 -0.228364 -0.334635
v -0.0364398 -0.160037 0.174262
v 0.0886351 0.263331 -0.215066
v 0.0998386 0.254805 0.15596
v 0.120378 -0.153035 0.309195
v -0.088111 -0.305726 0.323221
v -0.079267 -0.30573 0.329575
v 0.133202 0.139452 0.127117
v -0.12261 0.209969 0.260792
v 0.120563 0.080426 0.064659
v 0.123709 0.069194 0.087818
v -0.041088 0.296001 -0.079157
v 0.0575609 0.293107 -0.184378
v 0.0026275 0.30457 -0.186537
v 0.010491 -0.01707 0.340909
v 0.003913 0.061735 -0.098904
v -0.170383 -0.217821 -0.010415
v -0.175512 -0.217357 -0.048898
v -0.111829 -0.181823 0.175656
v -0.088027 0.28409 -0.0647389
v -0.0423465 -0.324198 -0.22349
v -0.125112 -0.3246 -0.169289
v -0.0775918 -0.316352 -0.292658
v -0.068313 -0.305728 0.333424
v -0.05456 -0.305723 0.335335
v -0.0767525 -0.327943 -0.249724
v -0.101436 0.243675 0.162081
v -0.052574 0.297497 -0.274292
v 0.11577 0.145462 -0.045248
v 0.11116 0.147014 -0.088437
v 0.153863 -0.258318 0.148568
v 0.161139 -0.258886 0.101432
v 0.073112 -0.106699 0.213758
v 0.040855 -0.107051 0.215335
v 0.156291 -0.304845 0.102788
v 0.151857 -0.30504 0.139446
v -0.0392338 -0.219893 -0.0739269
v -0.0500457 0.166155 0.346027
v -0.128388 -0.167132 0.195417
v -0.052298 -0.105003 0.339276
v 0.13627 -0.169542 0.225371
v -0.115948 0.218094 -0.113683
v -0.0918818 0.202151 -0.23667
v 0.076344 -0.302892 -0.345112
v 0.0724409 0.00457442 -0.253344
v 0.0492087 0.290819 -0.0270456
v 0.007643 -0.202853 0.153401
v 0.0984881 0.0846956 -0.111607
v -0.101269 0.133021 0.337194
v 0.12698 -0.131687 0.295678
v 0.111816 0.260255 0.0811272
v 0.151273 -0.304533 -0.301332
v -0.111336 -0.105295 0.303718
v 0.124681 0.255877 0.0508622
v -0.103041 -0.0814734 0.312482
v 0.00484367 -0.230019 -0.033822
v 0.004118 -0.233884 -0.082374
v 0.0441062 -0.0436907 0.185867
v 0.129893 -0.317813 -0.0675803
v 0.117957 -0.320431 -0.0333556
v 0.0008965 0.128594 -0.302164
v 0.0460699 0.128057 -0.295995
v 0.000891 0.100188 -0.302472
v -0.0844177 -0.33267 -0.160336
v 0.114555 0.224777 0.231482
v -0.104354 0.194732 0.299103
v -0.134441 -0.210559 -0.12639
v -0.136771 -0.314865 -0.0973998
v 0.11012 -0.16845 0.179355
v 0.00796843 -0.302066 0.17284
v 0.0640488 -0.310471 0.17705
v 0.0729954 -0.309071 0.219432
v 0.112242 -0.0752703 0.321326
v 0.0376853 -0.319529 -0.136381
v 0.0553632 -0.32783 -0.198618
v 0.140869 -0.321373 -0.17076
v 0.0957554 -0.332742 -0.18981
v -0.0153368 -0.137305 0.194912
v 0.008587 -0.123772 0.216275
v 0.008548 -0.138472 0.213762
v 0.1411 0.134224 0.303516
v 0.010491 0.026889 0.340909
v -0.070859 0.05231 -0.280139
v -0.0917398 0.0716512 -0.21498
v -0.074952 0.0250868 -0.240927
v -0.145352 -0.304843 0.107295
v -0.139825 -0.305038 0.143804
v 0.110374 -0.256719 0.318772
v -0.115369 0.191529 -0.0710062
v -0.109093 0.219516 -0.0320008
v 0.066937 0.29005 -0.27615
v 0.05471 0.297496 -0.275894
v 0.123844 -0.235837 0.288254
v 0.00213443 -0.302752 -0.215575
v 0.112731 -0.141146 0.196849
v -0.125642 -0.225821 0.220451
v -0.102585 0.220153 -0.195355
v -0.185237 -0.264672 -0.325012
v -0.185353 -0.283583 -0.324951
v 0.153323 -0.218808 -0.209898
v -0.081015 0.21981 0.291725
v -0.0515519 -0.212629 0.0823122
v -0.139842 -0.207389 -0.173609
v -0.078471 0.126246 -0.27826
v -0.192315 -0.222298 -0.222385
v -0.139943 -0.214895 -0.265266
v 0.134446 -0.018756 0.181576
v 0.133256 0.00433408 0.204184
v 0.137756 -0.011174 0.255753
v 0.001136 0.276832 -0.286282
v -0.053148 -0.140563 0.343885
v 0.171953 -0.246486 -0.332608
v 0.094922 -0.23352 -0.342768
v -0.0978978 -0.32593 -0.0824587
v 0.12038 0.143911 -0.002059
v 0.007802 0.015791 0.163073
v 0.007502 0.03426 0.142825
v 0.073358 -0.139945 0.18592
v -0.0309508 0.243443 0.216763
v 0.103787 -0.310417 -0.312465
v 0.123789 0.113746 0.0611594
v -0.066512 -0.303811 0.296444
v -0.02442 -0.10705 0.21631
v -0.0867437 -0.156631 0.333975
v -0.012212 -0.173243 0.167564
v 0.126726 0.0198699 0.297514
v 0.0481995 -0.0616958 0.347731
v 0.120374 0.133019 0.333883
v 0.124368 0.152848 0.320576
v -0.0783226 -0.330856 -0.117561
v -0.107317 0.193581 -0.158993
v -0.121458 0.0173713 0.2199
v -0.12116 -0.018754 0.185394
v -0.122253 -0.011172 0.259637
v -0.126187 0.136742 0.216694
v 0.0097195 0.219337 0.288579
v 0.010162 0.210982 0.318257
v -0.116653 0.214174 0.185547
v 0.134417 -0.181403 0.257399
v 0.0376039 0.294988 -0.0641237
v 0.066761 0.0240117 0.129683
v 0.13176 -0.305589 0.257722
v 0.139045 -0.305456 0.223889
v -0.123864 0.138097 0.173808
v -0.088428 0.227847 0.260463
v -0.067915 0.228673 0.260129
v -0.0705284 0.250267 0.190902
v -0.0782071 0.237556 0.226338
v 0.071169 0.132061 0.343333
v 0.117062 0.088711 0.040791
v 0.106138 0.227846 0.257558
v 0.090468 0.132312 0.342256
v 0.124561 -0.017947 0.302145
v -0.0804299 -0.0288606 0.18233
v -0.0458734 -0.0400757 0.184023
v 0.14043 0.0581365 0.231161
v 0.141926 0.0865313 0.255591
v 0.139841 0.0376787 0.255672
v 0.01044 0.20176 0.336938
v -0.056259 0.155721 -0.296555
v 0.165705 -0.259363 0.0642143
v 0.165159 -0.304455 0.029473
v 0.170271 -0.259839 0.0269967
v 0.164337 -0.285012 -0.334303
v -0.0444458 -0.00989993 0.169956
v 0.0901464 0.20683 0.312652
v -0.110774 0.080427 0.068114
v -0.114862 0.108408 0.075996
v -0.107987 0.088712 0.044152
v 0.135516 -0.105687 0.256923
v 0.136571 -0.105842 0.233764
v 0.136636 -0.0584305 0.256338
v -0.029319 0.228183 0.259515
v 0.0088745 0.23555 0.231905
v 0.008472 0.243408 0.204907
v -0.0409222 0.112706 -0.294308
v 0.0604682 -0.16385 0.347023
v 0.0452869 0.270521 -0.27898
v -0.122154 -0.314246 -0.0458753
v -0.0946136 -0.320073 -0.0303615
v -0.161521 -0.304236 -0.00516767
v 0.010401 -0.30571 0.335107
v 0.010436 -0.281177 0.337279
v -0.0424181 -0.30441 -0.309507
v 0.134966 -0.143545 0.257161
v 0.12093 -0.211312 -0.176305
v -0.183054 -0.26473 -0.327744
v 0.117568 -0.207404 -0.129152
v 0.128434 -0.228281 -0.0201062
v -0.083156 -0.122952 0.333991
v 0.0864875 -0.0418923 0.185844
v 0.074694 -0.305724 0.333405
v 0.13684 0.182933 0.216797
v 0.0515185 0.219571 0.295783
v 0.136805 0.138096 0.169914
v -0.0828505 -0.281379 0.325435
v -0.0683809 -0.207063 -0.0379761
v -0.082332 -0.256684 0.32875
v -0.069821 -0.256662 0.33381
v 0.138606 -0.265539 -0.34294
v -0.0749951 -0.315106 0.0777706
v 0.00667186 -0.302218 0.0865259
v 0.093886 0.073522 -0.077795
v 0.007829 -0.197094 0.165792
v 0.128699 0.181101 0.136594
v -0.184327 -0.262296 -0.153441
v -0.179495 -0.303394 -0.15768
v 0.135022 0.168988 0.107568
v 0.009265 -0.301913 0.259155
v 0.132932 0.001891 0.166848
v 0.13111 0.021364 0.149783
v 0.002632 -0.027574 -0.185205
v 0.002128 -0.026783 -0.219064
v -0.171864 -0.30253 -0.332364
v -0.172618 -0.279877 -0.328197
v -0.159105 -0.265202 -0.336014
v 0.144011 0.135384 0.25551
v -0.140172 -0.265537 -0.338776
v 0.119386 -0.256801 0.304052
v 0.17864 -0.260823 -0.0486335
v -0.115146 0.219357 0.260806
v 0.143931 -0.177894 0.181395
v 0.137245 0.0331914 0.211164
v 0.006057 0.082559 0.04552
v -0.116568 0.0850972 0.301528
v -0.117021 0.133707 0.322781
v -0.112498 0.133465 0.328625
v 0.135662 -0.040223 0.193642
v -0.0996508 0.104987 0.331303
v 0.0993748 -0.0734489 0.19838
v -0.0376148 0.29779 -0.12007
v 0.081959 0.248233 -0.277155
v 0.082225 0.226841 -0.277693
v 0.0678065 0.00432416 0.149679
v 0.0524091 -0.318429 0.0573188
v 0.140309 -0.154685 0.199544
v 0.088048 0.05668 -0.099082
v 0.008395 -0.163253 0.203571
v 0.13951 -0.210931 0.212208
v 0.056352 -0.025386 -0.241519
v 0.001624 -0.0259925 -0.252923
v 0.005285 0.089257 -0.006496
v -0.0455575 0.0768994 -0.0226345
v 0.101522 0.170474 0.331217
v 0.0539715 0.0788008 -0.0136304
v -0.18769 -0.302535 -0.315658
v 0.10537 -0.106348 0.212181
v 0.051217 -0.104993 0.339567
v -0.184941 -0.281113 -0.311079
v -0.147762 -0.21814 -0.215852
v 0.145451 -0.305248 0.181668
v 0.087978 -0.305729 0.33109
v -0.0654679 0.286486 -0.213162
v -0.136156 -0.218879 -0.0840607
v -0.061465 -0.026154 -0.19796
v 0.0528736 -0.0752882 0.197606
v 0.0424767 0.0552523 -0.0915105
v -0.132877 -0.257747 0.199877
v -0.0643393 -0.313648 0.101375
v -0.0960355 -0.205425 0.316266
v 0.00491 0.087717 -0.031739
v 0.010326 0.206792 0.329311
v -0.1906 -0.264264 -0.296639
v 0.106772 -0.169721 0.324662
v 0.183364 -0.283586 -0.330457
v 0.0386293 -0.163318 0.17232
v 0.141968 -0.167134 0.191379
v -0.0213678 0.176562 0.345079
v -0.0200095 0.131923 0.344258
v 0.010554 0.16424 0.34477
v 0.001303 0.304639 -0.275076
v -0.028432 0.0866609 0.35342
v -0.0955076 0.0982075 -0.137658
v -0.188556 -0.264503 -0.313384
v -0.189573 -0.263196 -0.219644
v -0.18791 -0.26278 -0.189324
v 0.138091 -0.124235 0.209408
v 0.139001 -0.140425 0.205637
v 0.098369 -0.305731 0.326922
v 0.0996733 -0.281334 0.324325
v -0.103531 -0.316818 0.00161576
v -0.156406 -0.304453 0.034276
v -0.123474 -0.105995 0.214504
v -0.123974 -0.124234 0.213323
v -0.0357992 -0.317445 0.00579834
v -0.0552743 -0.32535 -0.0248199
v 0.008556 -0.079152 0.213994
v 0.0445381 -0.187727 0.136406
v -0.0575702 -0.308705 0.217792
v -0.132161 -0.305246 0.185815
v -0.0629165 -0.312476 0.175756
v -0.076503 -0.302464 0.260696
v 0.001439 -0.236452 -0.261618
v 0.0513073 -0.217321 -0.244247
v 0.0450739 -0.2216 -0.292835
v 0.033953 0.156497 -0.301668
v -0.161589 -0.259837 0.0319537
v 0.04085 0.131922 0.343349
v 0.0625763 -0.215516 0.342144
v -0.0807225 0.0202573 -0.194739
v -0.0693846 -0.216209 -0.135254
v -0.0860266 -0.208677 -0.172261
v -0.101334 0.095023 -0.00463
v -0.104847 0.093695 0.019796
v -0.0180222 -0.312239 -0.0146042
v 0.008065 -0.004935 0.180773
v -0.148669 -0.213654 0.101973
v 0.008282 -0.027768 0.195466
v 0.133319 -0.257118 0.257876
v 0.132539 -0.281354 0.257799
v 0.139953 -0.257434 0.22679
v 0.0423752 0.0736178 0.0361399
v 0.0610037 0.170912 0.344109
v -0.124497 -0.305454 0.227826
v 0.160725 -0.30465 0.0661307
v 0.187498 -0.302615 -0.306221
v 0.120879 -0.210994 0.048761
v -0.077495 0.03441 -0.11642
v -0.1159 0.142361 0.0447278
v 0.135061 0.133705 0.319016
v -0.060014 0.201781 0.326109
v -0.120085 0.001893 0.170627
v 0.190729 -0.263199 -0.225323
v -0.0813224 0.0676202 0.080973
v 0.0510805 -0.302189 0.25866
v 0.00861671 -0.301989 0.215998
v 0.035547 -0.0281 -0.151785
v -0.118869 -0.181401 0.261183
v -0.108975 -0.159095 0.294349
v -0.132522 -0.302699 -0.33888
v 0.092896 -0.302466 0.258166
v -0.136024 -0.194819 0.161225
v -0.133211 -0.187081 0.174016
v 0.037635 0.302175 -0.275616
v 0.002052 -0.236422 -0.220594
v 0.002665 -0.236393 -0.179571
v 0.0572257 -0.221365 -0.201703
v -0.0204696 0.205501 0.330608
v 0.0425037 0.202501 -0.29439
v -0.038183 -0.302936 -0.343937
v -0.091729 -0.256717 0.321791
v -0.172619 -0.253429 -0.325577
v 0.0456762 0.204597 0.330066
v 0.185978 -0.302538 -0.321238
v 0.183481 -0.302496 -0.330399
v 0.1721 -0.218913 0.023442
v 0.005615 0.285067 0.01345
v 0.144094 0.134786 0.282614
v 0.122618 0.215652 -0.0522282
v -0.102483 0.151798 0.327293
v 0.122501 0.212522 -0.0956917
v 0.052866 -0.256647 0.337763
v -0.080083 0.154325 -0.277446
v 0.010498 -0.151917 0.341271
v 0.0732316 0.00675911 0.348558
v -0.0679737 0.0813866 0.00777992
v -0.0867238 -0.166242 0.179288
v 0.118708 0.264884 -0.0510963
v -0.123545 -0.182119 0.227594
v -0.08717 0.132635 0.342271
v -0.148739 -0.310145 -0.263921
v -0.111043 -0.318495 -0.266587
v -0.185576 -0.218937 -0.138124
v -0.119424 -0.143543 0.260961
v 0.0781329 0.285921 -0.0548258
v 0.0489673 0.295893 -0.0911755
v -0.0939443 -0.333678 -0.204246
v -0.133075 -0.320928 -0.233642
v 0.0425475 -0.305717 0.334256
v -0.118313 -0.219259 0.261405
v -0.117758 -0.257117 0.261626
v 0.00278257 -0.302676 -0.172418
v 0.15725 -0.265204 -0.340739
v 0.131369 -0.302701 -0.342821
v 0.0879634 0.0624165 0.0822622
v -0.179083 -0.21769 -0.078761
v 0.079567 0.154324 -0.27983
v 0.106881 0.132634 0.339373
v -0.0810755 0.196185 -0.276198
v 0.0975139 0.270138 0.0559117
v -0.082068 0.238045 -0.27495
v -0.10339 -0.133541 0.311636
v -0.122947 0.0874315 0.160503
v -0.070248 0.132313 0.344657
v -0.05055 0.132062 0.345151
v 0.000826 -0.236481 -0.302642
v -0.0440927 0.293479 -0.0380138
v -0.053367 -0.256651 0.337171
v -0.063394 -0.240425 0.336183
v -0.071337 0.006357 -0.134435
v -0.0916289 0.0591663 -0.162596
v -0.0557365 -0.0253855 -0.239845
v 0.001024 0.246731 -0.293731
v 0.0331162 0.24038 -0.290756
v 0.010491 -0.104988 0.340909
v 0.025247 -0.02491 -0.284998
v 0.145372 -0.228495 0.173707
v -0.0957963 -0.233327 0.313265
v 0.009277 0.227693 0.258902
v -0.126486 -0.154683 0.203528
v -0.0774419 0.0364133 0.125758
v -0.049146 -0.213396 -0.00109654
v -0.0294527 0.0416173 0.11887
v -0.0467515 0.0515919 0.0972147
v -0.077562 -0.205662 0.0431338
v 0.182821 -0.246352 -0.331024
v 0.186912 -0.264505 -0.318991
v 0.183246 -0.264675 -0.330515
v -0.116951 0.101276 0.113601
v -0.126981 0.196001 0.260639
v -0.121541 0.139453 0.130921
v -0.066652 -0.178167 0.151809
v 0.010531 0.131784 0.343366
v -0.080596 -0.314232 0.116742
v -0.172212 -0.260821 -0.043393
v -0.0968458 -0.177113 0.317729
v 0.077931 0.126245 -0.280596
v 0.076295 0.098167 -0.281362
v -0.166635 -0.304019 -0.0446113
v -0.17175 -0.303802 -0.084055
v -0.0442025 -0.323535 -0.186042
v -0.097482 0.150029 -0.165962
v 0.148781 -0.218501 -0.256973
v 0.193057 -0.224837 -0.27516
v 0.003602 0.301362 -0.121338
v 0.003206 0.303409 -0.147837
v 0.116347 -0.305702 0.304539
v 0.122199 -0.305669 0.289258
v -0.101714 0.148522 -0.125578
v -0.105946 0.147016 -0.085194
v 0.129727 0.061862 0.299479
v 0.100288 0.150027 -0.168916
v 0.094852 0.151534 -0.209156
v 0.133868 -0.21926 0.257638
v 0.184952 -0.261814 -0.12302
v 0.189168 -0.218939 -0.143721
v 0.00019 -0.302981 -0.345047
v 0.000838143 -0.302905 -0.30189
v 0.045488 0.0599882 0.0757173
v 0.103465 -0.218756 -0.30294
v 0.110249 -0.265996 -0.344045
v -0.121926 0.188503 0.0518518
v 0.01051 0.194965 0.341701
v 0.0464982 -0.306443 0.297606
v 0.151171 -0.201228 0.143042
v 0.106577 -0.305727 0.320313
v -0.173813 -0.264924 -0.332379
v 0.001003 0.007623 -0.29471
v 0.047639 0.228182 0.258366
v -0.111635 -0.0544499 0.294223
v -0.104105 -0.0270781 0.312997
v 0.10742 0.257489 0.122631
v -0.123154 -0.084197 0.21237
v 0.173028 -0.304021 -0.049685
v -0.183368 -0.30319 -0.194493
v 0.0854985 -0.206327 -0.093015
v 0.094644 -0.216388 -0.0559826
v 0.135996 -0.214818 -0.0906845
v 0.067957 -0.027836 -0.152223
v 0.075094 0.006356 -0.136622
v 0.183167 -0.283284 -0.316
v 0.0920221 -0.212566 0.0158062
v -0.148454 -0.247079 -0.332839
v -0.122959 0.198519 0.213237
v 0.008448 -0.052557 0.206693
v -0.113226 0.069196 0.091357
v -0.123396 0.196115 0.237406
v 0.075058 0.279549 -0.276421
v 0.18525 -0.227804 -0.326495
v 0.189455 -0.264267 -0.302315
v 0.191486 -0.263616 -0.255679
v 0.119238 -0.105153 0.31714
v 0.109907 -0.105088 0.325389
v -0.101174 -0.195891 0.138977
v -0.187119 -0.227801 -0.320935
v 0.0308075 -0.0198344 0.179991
v 0.081787 0.034409 -0.118799
v 0.128973 0.039309 0.130705
v 0.100084 0.0363547 0.12437
v 0.126509 0.055371 0.109942
v 0.132431 -0.105428 0.285268
v -0.103962 0.225029 0.260693
v 0.135047 0.0693043 0.153843
v 0.134611 0.102255 0.137142
v -0.050008 -0.024617 -0.281731
v -0.061066 0.008406 -0.281047
v -0.024444 -0.024909 -0.284256
v 0.0639337 -0.0287046 0.350574
v -0.097428 0.09234 -0.0288
v -0.09311 0.085291 -0.05239
v -0.0412532 0.245619 -0.288307
v 0.010546 0.18549 0.344162
v -0.06467 -0.027835 -0.150242
v -0.115365 0.055372 0.113555
v -0.0450621 -0.233098 -0.300197
v -0.0306415 -0.235876 -0.342842
v 0.181005 -0.264733 -0.333182
v -0.03044 -0.104992 0.340786
v -0.0356588 0.298815 -0.19323
v 0.17806 -0.268376 -0.329844
v -0.04129 0.29784 -0.158511
v -0.115868 -0.105426 0.288977
v -0.180979 -0.302496 -0.328902
v -0.185469 -0.302494 -0.32489
v -0.0326028 -0.30588 0.303479
v -0.0383825 0.194701 -0.293746
v 0.009899 -0.302641 0.301556
v -0.130774 -0.224128 0.178915
v 0.111179 -0.217469 0.316136
v -0.190996 -0.226922 -0.305117
v 0.0985622 0.087028 -0.196217
v 0.0999962 0.0804341 -0.165302
v -0.033619 -0.302188 0.259926
v -0.0649095 -0.018327 0.347685
v -0.154858 -0.304204 -0.301109
v -0.0837155 0.275152 -0.182938
v -0.13903 -0.201225 0.147376
v 0.010491 -0.061029 0.340909
v 0.072735 -0.105004 0.337409
v 0.0105177 0.096819 0.342547
v 0.0370596 0.0815531 0.346455
v 0.189599 -0.226925 -0.310801
v -0.127577 -0.211787 -0.0413449
v 0.112349 -0.319055 0.00702452
v 0.111629 -0.316665 0.051428
v -0.03521 0.302177 -0.274528
v -0.0362217 0.050479 0.352098
v -0.0774163 0.069614 0.34008
v -0.0327666 0.0130281 0.346158
v 0.000203 -0.267292 -0.344233
v 0.041048 -0.266872 -0.344692
v 0.000196 -0.285136 -0.34464
v 0.007232 -0.211817 0.125901
v 0.0516803 -0.199673 0.0957822
v 0.006778 -0.218034 0.095551
v 0.00112 -0.025202 -0.286782
v -0.0800446 -0.0660111 0.200023
v -0.057438 -0.106698 0.215708
v -0.090456 -0.106347 0.215106
v 0.176962 -0.303804 -0.089264
v -0.0871354 0.248305 0.120808
v -0.116892 0.217246 0.136245
v -0.102143 0.224666 0.245687
v -0.141557 -0.258316 0.15298
v 0.179399 -0.233133 -0.324541
v 0.182396 -0.228029 -0.331532
v 0.0806401 0.263608 -0.250465
v 0.049373 0.0701802 -0.0567446
v -0.100591 -0.208964 0.0947041
v -0.125063 0.0640334 0.207032
v -0.118775 0.021366 0.153515
v -0.0635237 0.104809 0.348905
v -0.0785581 0.0785424 0.0412515
v -0.150237 -0.258884 0.106083
v 0.144596 0.17659 0.256253
v 0.087831 -0.316843 0.0875173
v -0.167265 -0.260314 -0.005111
v 0.008151 -0.182531 0.18727
v 0.080896 0.190582 -0.278762
v 0.008283 -0.173531 0.196126
v 0.105724 0.148521 -0.128677
v 0.130912 0.133463 0.324989
v -0.023677 0.268057 0.127433
v 0.0849388 -0.0680808 0.341255
v -0.0587041 0.265059 0.151321
v 0.00567 0.087488 0.01941
v -0.124472 0.17172 0.137445
v -0.124538 0.194933 0.0813652
v 0.187462 -0.262298 -0.158994
v 0.121239 0.225026 0.257329
v 0.136073 0.205056 0.239476
v 0.006023 0.280625 0.040758
v 0.0348122 0.287476 0.00526984
v 0.006637 0.272281 0.0818825
v 0.079818 0.265707 -0.276743
v -0.121727 -0.10584 0.237622
v -0.124339 0.0376807 0.259618
v -0.10757 0.0104161 0.309853
v -0.11998 -0.105685 0.260739
v -0.0274122 0.0792552 0.0134709
v -0.0666399 -0.209647 -0.267044
v -0.179414 -0.228362 -0.329305
v -0.123842 -0.322787 -0.133804
v -0.17484 -0.231518 -0.316424
v -0.184416 -0.228026 -0.326054
v 0.0078615 0.253673 0.163957
v 0.007251 0.263937 0.123007
v 0.0661122 0.25175 0.180039
v -0.0646253 -0.195308 0.117759
v -0.0317729 -0.189261 0.140741
v 0.0601274 0.175676 -0.290661
v -0.122674 -0.062154 0.206591
v -0.0304792 -0.0703703 0.198606
v 0.004727 -0.302447 -0.042946
v -0.0424161 0.0286604 0.132202
v -0.057183 0.0120308 0.149082
v 0.0949502 -0.311428 0.176457
v -0.076556 -0.302892 -0.342828
v -0.122016 -0.040222 0.19749
v 0.003136 -0.028365 -0.151346
v 0.003251 0.000553 -0.143588
v -0.030767 -0.0281 -0.150794
v -0.184826 -0.246349 -0.325533
v 0.113612 0.121413 -0.0214982
v 0.186588 -0.303025 -0.230549
v -0.0846759 -0.0584534 0.332677
v 0.150299 -0.312748 -0.255634
v 0.137057 -0.320445 -0.215289
v 0.00148629 -0.302828 -0.258732
v -0.182655 -0.218024 -0.108624
v -0.119218 0.140809 0.088035
v 0.086942 0.153222 -0.252739
v 0.00537529 -0.302371 0.000211283
v 0.0562941 -0.318312 -0.0264709
v 0.0574764 -0.317156 0.0173087
v -0.121116 -0.0584285 0.260188
v -0.0906812 0.249646 -0.225976
v 0.187899 -0.302857 -0.261098
v 0.0631022 0.102673 0.346898
v -0.181443 -0.262047 -0.324606
v -0.101805 -0.2568 0.307356
v 0.0436084 0.295506 -0.244408
v -0.125317 -0.257432 0.230751
v -0.103168 0.262303 -0.122261
v -0.0810608 0.286435 -0.145299
v 0.106749 0.0411658 0.338118
v -0.032979 0.156498 -0.300669
v 0.0655746 -0.0211942 0.170178
v -0.180743 -0.261811 -0.117558
v 0.000213 -0.23651 -0.343665
v 0.000208 -0.251901 -0.343949
v 0.0625653 0.0656242 0.346338
v -0.032139 -0.256646 0.339033
v 0.179734 -0.3036 -0.126176
v 0.010488 -0.227746 0.340542
v -0.149399 -0.226229 -0.301301
v 0.010471 -0.256645 0.339451
v 0.193388 -0.222301 -0.228146
v -0.0966276 -0.223896 -0.302642
v -0.0751734 -0.197054 -0.229275
v -0.112466 -0.204407 -0.237433
v -0.0367037 0.0414253 -0.100552
v -0.107938 -0.211193 -0.0015764
v 0.008598 -0.107402 0.216912
v -0.0787418 0.288889 -0.102658
v -0.139313 -0.237677 0.135494
v -0.088362 0.073523 -0.075073
v 0.0033915 -0.235139 -0.130973
v 0.0590881 -0.222475 -0.159795
v 0.0533005 -0.222197 -0.120269
v -0.145408 -0.210523 0.117499
v 0.18713 -0.218026 -0.114146
v -0.0729803 0.276818 -0.244577
v 0.126471 -0.330923 -0.130337
v 0.061492 -0.235241 -0.343856
v 0.00556933 -0.226153 0.01473
v -0.105525 -0.305667 0.29266
v 0.0105043 0.061854 0.341728
v 0.0580737 0.0438295 0.103685
v 0.185277 -0.303193 -0.199999
v 0.182505 -0.303397 -0.163087
v 0.0617331 -0.208665 0.0530298
v -0.101115 -0.138676 0.204822
v -0.104539 -0.302795 -0.340854
v 0.142987 0.196001 0.256608
v 0.005207 0.289509 -0.013858
v 0.153078 -0.226111 -0.303351
v 0.128352 -0.2318 -0.34168
v -0.109264 0.145464 -0.0418868
v 0.137243 -0.084198 0.208481
v 0.137627 -0.105997 0.210605
v -0.07374 0.279551 -0.274199
v 0.000902 0.156999 -0.301857
v 0.171783 -0.264927 -0.33754
v -0.18876 -0.302612 -0.300601
v 0.07647 -0.325625 -0.0689802
v -0.105607 0.121639 -0.0181145
v -0.104907 -0.105193 0.31553
v 0.122929 -0.105195 0.312127
v -0.076859 0.098168 -0.279075
v 0.056244 0.155721 -0.298236
v -0.114655 0.227043 0.0803104
v -0.0534633 0.275931 0.105208
v -0.118648 0.222971 0.0393261
v -0.0310952 0.286079 0.037858
v 0.004552 0.082717 -0.055861
v -0.150577 -0.214794 0.0927335
v 0.106119 -0.212788 -0.217881
v 0.007998 -0.190353 0.17712
v -0.0308239 -0.210989 -0.233583
v -0.123855 0.134226 0.307473
v 0.00092 0.052725 -0.300393
v 0.126753 -0.0560488 0.293483
v -0.117208 0.039311 0.134382
v 0.063329 -0.026155 -0.199824
v 0.104739 0.274184 -0.0138695
v 0.132449 0.174976 0.294055
v 0.004217 0.074106 -0.078402
v -0.098933 -0.3057 0.307755
v -0.0433014 0.0633619 -0.0632762
v -0.188496 -0.219849 -0.167625
v -0.190406 -0.221073 -0.195005
v 0.0046025 0.294412 -0.0543485
v 0.006295 -0.222288 0.063282
v 0.003998 0.299314 -0.094839
v 0.146587 -0.257749 0.195704
v 0.0741627 0.285831 -0.15333
v 0.0316028 -0.135775 0.191621
v 0.103856 -0.302797 -0.343967
v 0.008484 -0.1516 0.209489
v 0.060449 0.008405 -0.282863
v 0.101637 -0.256685 0.326002
v 0.104902 0.088125 0.335723
v 0.128327 0.104242 0.0993184
v -0.12889 0.176591 0.260337
v -0.0410919 -0.06055 0.348192
v 0.0970726 -0.194903 0.119835
v 0.097623 -0.105043 0.331522
v 0.125304 0.216134 0.163914
v -0.116404 0.165232 0.302903
v 0.119731 0.226646 0.196196
v 0.0705 0.155007 -0.291517
v -0.083164 0.056681 -0.096525
v 0.007171 0.050322 0.120486
v -0.185591 -0.303022 -0.22499
v -0.17716 -0.261327 -0.081675
v 0.156653 -0.210525 0.112988
v -0.12851 0.135386 0.25958
v -0.126424 0.0865333 0.259599
v 0.135516 -0.105687 0.256923
v 0.00732014 -0.302142 0.129683
v 0.002128 -0.026783 -0.219064
v -0.193388 -0.224834 -0.269388
v 0.165705 -0.259363 0.0642143
v 0.134966 -0.143545 0.257161
v -0.161521 -0.304236 -0.00516767
v -0.156406 -0.304453 0.034276
v 0.010554 0.16424 0.34477
v -0.112582 0.143912 0.0014205
v 0.133319 -0.257118 0.257876
v 0.164917 -0.217479 0.066213
v -0.130648 -0.177892 0.185496
v 0.002632 -0.027574 -0.185205
v -0.161589 -0.259837 0.0319537
v 0.002665 -0.236393 -0.179571
v -0.082494 -0.266451 -0.342696
v -0.0411455 -0.266872 -0.343464
v 0.00407886 -0.302523 -0.0861033
v 0.15725 -0.265204 -0.340739
v 0.138606 -0.265539 -0.34294
v 0.170271 -0.259839 0.0269967
v -0.0200095 0.131923 0.344258
v 0.00278257 -0.302676 -0.172418
v 0.119386 -0.256801 0.304052
v 0.141926 0.0865313 0.255591
v 0.133319 -0.257118 0.257876
v 0.139953 -0.257434 0.22679
v 0.133868 -0.21926 0.257638
v 0.0097195 0.219337 0.288579
v -0.122253 -0.011172 0.259637
v -0.155913 -0.259361 0.0690183
v -0.107052 -0.256881 0.294777
v 0.126509 0.055371 0.109942
v -0.061496 -0.235241 -0.342019
v -0.159105 -0.265202 -0.336014
v -0.16978 -0.229063 -0.332179
v 0.000945 0.208063 -0.299025
v 0.070265 0.052308 -0.282247
v 0.076295 0.098167 -0.281362
v -0.133211 -0.187081 0.174016
v -0.024444 -0.024909 -0.284256
v 0.001624 -0.0259925 -0.252923
v -0.175623 -0.303598 -0.120868
v -0.107987 0.088712 0.044152
v -0.110774 0.080427 0.068114
v -0.139825 -0.305038 0.143804
v -0.067915 0.228673 0.260129
v -0.090841 -0.105087 0.328388
v 0.00484367 -0.230019 -0.033822
v 0.177797 -0.217823 -0.015615
v 0.182821 -0.246352 -0.331024
v -0.124339 0.0376807 0.259618
v -0.09325 0.151535 -0.206346
v 0.003136 -0.028365 -0.151346
v -0.171864 -0.30253 -0.332364
v -0.1159 0.142361 0.0447278
v -0.119218 0.140809 0.088035
v 0.079567 0.154324 -0.27983
v 0.171783 -0.264927 -0.33754
v 0.132932 0.001891 0.166848
v -0.0306415 -0.235876 -0.342842
v 0.184952 -0.261814 -0.12302
v -0.101714 0.148522 -0.125578
v -0.105946 0.147016 -0.085194
v 0.010491 -0.104988 0.340909
v 0.010498 -0.151917 0.341271
v 0.0105043 0.061854 0.341728
v 0.010491 0.026889 0.340909
v 0.01051 0.194965 0.341701
v 0.010546 0.18549 0.344162
v -0.097428 0.09234 -0.0288
v -0.077495 0.03441 -0.11642
v -0.071337 0.006357 -0.134435
v -0.1906 -0.264264 -0.296639
v 0.002052 -0.236422 -0.220594
v -0.132522 -0.302699 -0.33888
v 0.063329 -0.026155 -0.199824
v -0.18791 -0.26278 -0.189324
v 0.187462 -0.262298 -0.158994
v 0.060449 0.008405 -0.282863
v 0.056352 -0.025386 -0.241519
v 0.049375 -0.024617 -0.283215
v 0.179734 -0.3036 -0.126176
v -0.032139 -0.256646 0.339033
v 0.086001 0.228672 0.25783
v 0.047639 0.228182 0.258366
v -0.191236 -0.263613 -0.249963
v -0.145408 -0.210523 0.117499
v -0.150237 -0.258884 0.106083
v 0.187498 -0.302615 -0.306221
v 0.187899 -0.302857 -0.261098
v 0.120374 0.133019 0.333883
v 0.144094 0.134786 0.282614
v 0.144011 0.135384 0.25551
v 0.145451 -0.305248 0.181668
v 0.003998 0.299314 -0.094839
v -0.136024 -0.194819 0.161225
v 0.124989 0.142359 0.04113
v 0.128626 -0.105297 0.300133
v -0.057438 -0.106698 0.215708
v 0.010505 -0.198846 0.341633
v -0.122016 -0.040222 0.19749
v -0.12116 -0.018754 0.185394
v -0.18876 -0.302612 -0.300601
v -0.187814 -0.302854 -0.255486
v -0.0954835 -0.233519 -0.339924
v -0.111333 -0.265994 -0.340736
v -0.104539 -0.302795 -0.340854
v 0.181774 -0.217359 -0.054234
v 0.10537 -0.106348 0.212181
v 0.073112 -0.106699 0.213758
v -0.18769 -0.302535 -0.315658
v 0.136636 -0.0584305 0.256338
v 0.137756 -0.011174 0.255753
v 0.040855 -0.107051 0.215335
v 0.008587 -0.123772 0.216275
v 0.008548 -0.138472 0.213762
v 0.002049 0.305731 -0.225236
v 0.128973 0.039309 0.130705
v -0.185353 -0.283583 -0.324951
v -0.185237 -0.264672 -0.325012
v 0.051217 -0.104993 0.339567
v 0.141968 -0.167134 0.191379
v 0.010491 -0.01707 0.340909
v -0.183054 -0.26473 -0.327744
v 0.008282 -0.027768 0.195466
v 0.008448 -0.052557 0.206693
v 0.140309 -0.154685 0.199544
v 0.139001 -0.140425 0.205637
v -0.077937 -0.105042 0.334144
v -0.029319 0.228183 0.259515
v 0.0033915 -0.235139 -0.130973
v 0.006637 0.272281 0.0818825
v 0.006023 0.280625 0.040758
v -0.118313 -0.219259 0.261405
v 0.00796843 -0.302066 0.17284
v 0.0078615 0.253673 0.163957
v -0.170383 -0.217821 -0.010415
v 0.004217 0.074106 -0.078402
v 0.130912 0.133463 0.324989
v -0.141557 -0.258316 0.15298
v 0.081893 -0.266452 -0.345151
v 0.033953 0.156497 -0.301668
v 0.165159 -0.304455 0.029473
v 0.139841 0.0376787 0.255672
v 0.189599 -0.226925 -0.310801
v 0.121239 0.225026 0.257329
v 0.005285 0.089257 -0.006496
v 0.010491 -0.061029 0.340909
v 0.073743 -0.256652 0.335273
v -0.129471 -0.231798 -0.337829
v -0.190996 -0.226922 -0.305117
v -0.188556 -0.264503 -0.313384
v 0.001439 -0.236452 -0.261618
v 0.183246 -0.264675 -0.330515
v 0.132431 -0.105428 0.285268
v 0.135516 -0.105687 0.256923
v -0.117758 -0.257117 0.261626
v 0.135516 -0.105687 0.256923
v 0.136571 -0.105842 0.233764
v 0.193057 -0.224837 -0.27516
v 0.189455 -0.264267 -0.302315
v 0.007171 0.050322 0.120486
v 0.191486 -0.263616 -0.255679
v 0.007502 0.03426 0.142825
v 0.0009235 0.182531 -0.300441
v 0.00537529 -0.302371 0.000211283
v 0.010488 -0.227746 0.340542
v 0.1721 -0.218913 0.023442
v 0.183364 -0.283586 -0.330457
v -0.080083 0.154325 -0.277446
v -0.086646 0.153223 -0.250146
v -0.192315 -0.222298 -0.222385
v 0.094852 0.151534 -0.209156
v -0.140172 -0.265537 -0.338776
v 0.0425475 -0.305717 0.334256
v -0.088362 0.073523 -0.075073
v -0.173813 -0.264924 -0.332379
v 0.035547 -0.0281 -0.151785
v 0.003251 0.000553 -0.143588
v 0.003136 -0.028365 -0.151346
v -0.185591 -0.303022 -0.22499
v -0.183368 -0.30319 -0.194493
v 0.110249 -0.265996 -0.344045
v -0.12261 0.209969 0.260792
v 0.00343071 -0.3026 -0.129261
v 0.134446 -0.018756 0.181576
v -0.121727 -0.10584 0.237622
v -0.123974 -0.124234 0.213323
v 0.00556933 -0.226153 0.01473
v 0.134417 -0.181403 0.257399
v 0.010401 -0.30571 0.335107
v 0.151171 -0.201228 0.143042
v 0.00567 0.087488 0.01941
v 0.076344 -0.302892 -0.345112
v 0.0046025 0.294412 -0.0543485
v -0.123864 0.138097 0.173808
v 0.103856 -0.302797 -0.343967
v -0.126981 0.196001 0.260639
v 0.106881 0.132634 0.339373
v -0.100858 -0.105152 0.320427
v -0.03044 -0.104992 0.340786
v 0.010491 -0.104988 0.340909
v 0.010491 -0.104988 0.340909
v 0.010401 -0.30571 0.335107
v 0.009899 -0.302641 0.301556
v -0.070248 0.132313 0.344657
v -0.05055 0.132062 0.345151
v -0.184327 -0.262296 -0.153441
v 0.131972 0.219356 0.257115
v -0.06518 0.29005 -0.274177
v 0.04085 0.131922 0.343349
v -0.03521 0.302177 -0.274528
v -0.076427 0.154656 -0.284104
v -0.0810755 0.196185 -0.276198
v -0.071055 0.155008 -0.289403
v 0.080896 0.190582 -0.278762
v -0.145352 -0.304843 0.107295
v -0.05456 -0.305723 0.335335
v 0.008283 -0.173531 0.196126
v 0.008151 -0.182531 0.18727
v 0.007251 0.263937 0.123007
v -0.076859 0.098168 -0.279075
v 0.11577 0.145462 -0.045248
v -0.061066 0.008406 -0.281047
v -0.050008 -0.024617 -0.281731
v -0.0557365 -0.0253855 -0.239845
v 0.128352 -0.2318 -0.34168
v 0.176962 -0.303804 -0.089264
v -0.121541 0.139453 0.130921
v 0.182442 -0.26133 -0.087046
v -0.061465 -0.026154 -0.19796
v -0.119424 -0.143543 0.260961
v -0.118869 -0.181401 0.261183
v 0.00602357 -0.302294 0.0433686
v 0.005207 0.289509 -0.013858
v 0.001303 0.304639 -0.275076
v 0.037635 0.302175 -0.275616
v 0.001136 0.276832 -0.286282
v -0.180743 -0.261811 -0.117558
v 0.010436 -0.281177 0.337279
v -0.0220795 -0.305717 0.335221
v -0.068313 -0.305728 0.333424
v -0.150879 -0.304648 0.0707853
v 0.13111 0.021364 0.149783
v -0.163523 -0.218911 0.028455
v -0.189573 -0.263196 -0.219644
v -0.050008 -0.024617 -0.281731
v 0.006441 0.074622 0.071375
v 0.006057 0.082559 0.04552
v 0.139045 -0.305456 0.223889
v 0.14615 -0.187083 0.169843
v 0.148579 -0.194821 0.156974
v 0.004552 0.082717 -0.055861
v -0.090456 -0.106347 0.215106
v -0.056259 0.155721 -0.296555
v 0.0105177 0.096819 0.342547
v 0.007998 -0.190353 0.17712
v -0.030767 -0.0281 -0.150794
v -0.053367 -0.256651 0.337171
v 0.088048 0.05668 -0.099082
v 0.00112 -0.025202 -0.286782
v -0.190406 -0.221073 -0.195005
v 0.000213 -0.23651 -0.343665
v 0.000826 -0.236481 -0.302642
v 0.104329 0.092338 -0.031814
v 0.099309 0.08529 -0.055264
v 0.13176 -0.305589 0.257722
v 0.000838143 -0.302905 -0.30189
v 0.00148629 -0.302828 -0.258732
v -0.076556 -0.302892 -0.342828
v 0.181005 -0.264733 -0.333182
v -0.115365 0.055372 0.113555
v -0.117208 0.039311 0.134382
v 0.136805 0.138096 0.169914
v 0.056244 0.155721 -0.298236
v 0.00667186 -0.302218 0.0865259
v 0.183246 -0.264675 -0.330515
v 0.077931 0.126245 -0.280596
v 0.001003 0.007623 -0.29471
v -0.17716 -0.261327 -0.081675
v 0.182505 -0.303397 -0.163087
v 0.189972 -0.262782 -0.194968
v -0.188496 -0.219849 -0.167625
v -0.185576 -0.218937 -0.138124
v 0.186912 -0.264505 -0.318991
v -0.12889 0.176591 0.260337
v -0.123474 -0.105995 0.214504
v -0.126187 0.136742 0.216694
v 0.151857 -0.30504 0.139446
v 0.156291 -0.304845 0.102788
v 0.161139 -0.258886 0.101432
v 0.003423 0.025109 -0.131956
v 0.008395 -0.163253 0.203571
v 0.008484 -0.1516 0.209489
v -0.08717 0.132635 0.342271
v 0.133202 0.139452 0.127117
v -0.185237 -0.264672 -0.325012
v 0.007829 -0.197094 0.165792
v -0.076503 -0.302464 0.260696
v -0.091729 -0.256717 0.321791
v 0.140408 0.13674 0.212712
v -0.09311 0.085291 -0.05239
v 0.153863 -0.258318 0.148568
v -0.126486 -0.154683 0.203528
v -0.083164 0.056681 -0.096525
v 0.00491 0.087717 -0.031739
v -0.080083 0.154325 -0.277446
v -0.078471 0.126246 -0.27826
v 0.092896 -0.302466 0.258166
v 0.0510805 -0.302189 0.25866
v -0.088428 0.227847 0.260463
v 0.17864 -0.260823 -0.0486335
v 0.081959 0.248233 -0.277155
v 0.090468 0.132312 0.342256
v 0.071169 0.132061 0.343333
v 0.0008965 0.128594 -0.302164
v 0.185978 -0.302538 -0.321238
v -0.07374 0.279551 -0.274199
v 0.101637 -0.256685 0.326002
v -0.120085 0.001893 0.170627
v 0.100288 0.150027 -0.168916
v 0.075094 0.006356 -0.136622
v 0.081787 0.034409 -0.118799
v 0.049375 -0.024617 -0.283215
v 0.025247 -0.02491 -0.284998
v 0.00112 -0.025202 -0.286782
v 0.00861671 -0.301989 0.215998
v -0.033619 -0.302188 0.259926
v -0.115868 -0.105426 0.288977
v -0.128388 -0.167132 0.195417
v 0.01044 0.20176 0.336938
v 0.189168 -0.218939 -0.143721
v -0.123855 0.134226 0.307473
v -0.117021 0.133707 0.322781
v 0.082225 0.226841 -0.277693
v -0.082068 0.238045 -0.27495
v 0.009265 -0.301913 0.259155
v 0.110374 -0.256719 0.318772
v 0.075798 0.154655 -0.286378
v 0.079567 0.154324 -0.27983
v 0.146587 -0.257749 0.195704
v -0.070859 0.05231 -0.280139
v -0.097482 0.150029 -0.165962
v 0.009277 0.227693 0.258902
v 0.000213 -0.23651 -0.343665
v 0.0308525 -0.235876 -0.34376
v 0.000208 -0.251901 -0.343949
v -0.179495 -0.303394 -0.15768
v 0.05471 0.297496 -0.275894
v 0.041048 -0.266872 -0.344692
v 0.000203 -0.267292 -0.344233
v -0.12851 0.135386 0.25958
v -0.032979 0.156498 -0.300669
v 0.117062 0.088711 0.040791
v 0.120563 0.080426 0.064659
v 0.086942 0.153222 -0.252739
v -0.179083 -0.21769 -0.078761
v 0.105724 0.148521 -0.128677
v 0.003206 0.303409 -0.147837
v 0.001303 0.304639 -0.275076
v 0.159449 -0.213656 0.097371
v 0.18713 -0.218026 -0.114146
v -0.175512 -0.217357 -0.048898
v 0.185277 -0.303193 -0.199999
v 0.190729 -0.263199 -0.225323
v 0.008556 -0.079152 0.213994
v 0.008598 -0.107402 0.216912
v 0.1411 0.134224 0.303516
v 0.000213 -0.23651 -0.343665
v 0.007802 0.015791 0.163073
v 0.16996 -0.302532 -0.33747
v -0.172212 -0.260821 -0.043393
v -0.123154 -0.084197 0.21237
v -0.06467 -0.027835 -0.150242
v 0.094922 -0.23352 -0.342768
v 0.135662 -0.040223 0.193642
v 0.001024 0.246731 -0.293731
v 0.144011 0.135384 0.25551
v 0.006815 0.063826 0.096517
v 0.008472 0.243408 0.204907
v 0.0088745 0.23555 0.231905
v 0.186588 -0.303025 -0.230549
v -0.148669 -0.213654 0.101973
v 0.123709 0.069194 0.087818
v 0.038267 -0.302936 -0.34508
v -0.080083 0.154325 -0.277446
v 0.131369 -0.302701 -0.342821
v -0.109264 0.145464 -0.0418868
v 0.067957 -0.027836 -0.152223
v -0.124996 -0.140423 0.20958
v 0.000891 0.100188 -0.302472
v -0.13903 -0.201225 0.147376
v 0.006295 -0.222288 0.063282
v -0.155065 -0.217477 0.070992
v 0.132539 -0.281354 0.257799
v -0.052574 0.297497 -0.274292
v -0.111336 -0.105295 0.303718
v 0.167884 -0.229065 -0.337223
v -0.167265 -0.260314 -0.005111
v 0.0705 0.155007 -0.291517
v -0.113226 0.069196 0.091357
v -0.115146 0.219357 0.260806
v -0.103962 0.225029 0.260693
v 0.113196 0.093694 0.016539
v 0.010401 -0.30571 0.335107
v 0.010471 -0.256645 0.339451
v 0.052866 -0.256647 0.337763
v -0.02442 -0.10705 0.21631
v -0.11998 -0.105685 0.260739
v 0.0026275 0.30457 -0.186537
v -0.079267 -0.30573 0.329575
v -0.038183 -0.302936 -0.343937
v 0.129599 0.140808 0.084319
v -0.185469 -0.302494 -0.32489
v 0.093886 0.073522 -0.077795
v -0.180979 -0.302496 -0.328902
v -0.185469 -0.302494 -0.32489
v -0.127701 0.134788 0.286673
v -0.12851 0.135386 0.25958
v -0.166635 -0.304019 -0.0446113
v -0.187119 -0.227801 -0.320935
v -0.184416 -0.228026 -0.326054
v -0.184826 -0.246349 -0.325533
v -0.179414 -0.228362 -0.329305
v 0.008598 -0.107402 0.216912
v -0.121116 -0.0584285 0.260188
v 0.106138 0.227846 0.257558
v 0.089713 -0.256663 0.331427
v 0.143931 -0.177894 0.181395
v 0.184452 -0.217692 -0.08419
v -0.17175 -0.303802 -0.084055
v 0.173028 -0.304021 -0.049685
v 0.000902 0.156999 -0.301857
v 0.008598 -0.107402 0.216912
v 0.097623 -0.105043 0.331522
v 0.072735 -0.105004 0.337409
v -0.182655 -0.218024 -0.108624
v 0.003646 0.045453 -0.116908
v 0.000203 -0.267292 -0.344233
v 0.010531 0.131784 0.343366
v 0.074694 -0.305724 0.333405
v 0.010471 -0.256645 0.339451
v 0.079818 0.265707 -0.276743
v 0.00213443 -0.302752 -0.215575
v 0.066937 0.29005 -0.27615
v 0.13176 -0.305589 0.257722
v 0.122199 -0.305669 0.289258
v -0.078956 0.265707 -0.274371
v -0.118775 0.021366 0.153515
v 0.137627 -0.105997 0.210605
v 0.137243 -0.084198 0.208481
v 0.136592 -0.062156 0.202718
v -0.101805 -0.2568 0.307356
v -0.098933 -0.3057 0.307755
v 0.00112 -0.025202 -0.286782
v 0.003913 0.061735 -0.098904
v -0.123474 -0.105995 0.214504
v -0.105525 -0.305667 0.29266
v 0.193388 -0.222301 -0.228146
v 0.174837 -0.260316 -0.010221
v 0.144011 0.135384 0.25551
v 0.003602 0.301362 -0.121338
v -0.112498 0.133465 0.328625
v 0.004118 -0.233884 -0.082374
v -0.052298 -0.105003 0.339276
v 0.007232 -0.211817 0.125901
v 0.006778 -0.218034 0.095551
v 0.182396 -0.228029 -0.331532
v 0.182396 -0.228029 -0.331532
v 0.177381 -0.228364 -0.334635
v -0.184416 -0.228026 -0.326054
v 0.18525 -0.227804 -0.326495
v 0.144596 0.17659 0.256253
v 0.010471 -0.256645 0.339451
v 0.009265 -0.301913 0.259155
v 0.178956 -0.302498 -0.334277
v 0.00092 0.052725 -0.300393
v -0.101269 0.133021 0.337194
v -0.132161 -0.305246 0.185815
v -0.069821 -0.256662 0.33381
v -0.116205 -0.305587 0.261425
v 0.010531 0.131784 0.343366
v 0.003136 -0.028365 -0.151346
v -0.117758 -0.257117 0.261626
v 0.135061 0.133705 0.319016
v 0.000902 0.156999 -0.301857
v -0.082332 -0.256684 0.32875
v 0.192298 -0.221077 -0.200721
v -0.123474 -0.105995 0.214504
v 0.075058 0.279549 -0.276421
v 0.191207 -0.219852 -0.173296
v 0.142987 0.196001 0.256608
v -0.104907 -0.105193 0.31553
v 0.000902 0.156999 -0.301857
v 0.004727 -0.302447 -0.042946
v 0.169093 -0.304238 -0.010106
v 0.12038 0.143911 -0.002059
v 0.137627 -0.105997 0.210605
v 0.001303 0.304639 -0.275076
v 0.010531 0.131784 0.343366
v 0.009277 0.227693 0.258902
v 0.109907 -0.105088 0.325389
v 0.119238 -0.105153 0.31714
v -0.11998 -0.105685 0.260739
v 0.061492 -0.235241 -0.343856
v 0.00019 -0.302981 -0.345047
v 0.160725 -0.30465 0.0661307
v -0.11998 -0.105685 0.260739
v 0.108955 0.095021 -0.007772
v -0.122674 -0.062154 0.206591
v 0.138998 0.209966 0.256884
v 0.008065 -0.004935 0.180773
v -0.132877 -0.257747 0.199877
v 0.009277 0.227693 0.258902
v -0.116205 -0.305587 0.261425
v -0.088111 -0.305726 0.323221
v 0.11116 0.147014 -0.088437
v -0.06467 -0.027835 -0.150242
v 0.067957 -0.027836 -0.152223
v 0.138091 -0.124235 0.209408
v 0.087978 -0.305729 0.33109
v -0.124497 -0.305454 0.227826
v 0.116347 -0.305702 0.304539
v 0.106577 -0.305727 0.320313
v 0.098369 -0.305731 0.326922
v 0.000196 -0.285136 -0.34464
v 0.183246 -0.264675 -0.330515
v 0.010162 0.210982 0.318257
v 0.007643 -0.202853 0.153401
v 0.005615 0.285067 0.01345
v -0.185237 -0.264672 -0.325012
v 0.133319 -0.257118 0.257876
v 0.00019 -0.302981 -0.345047
v -0.116205 -0.305587 0.261425
v -0.116981 -0.281352 0.261526
v 0.010326 0.206792 0.329311
v -0.125317 -0.257432 0.230751
v -0.117758 -0.257117 0.261626
v 0.13176 -0.305589 0.257722
v 0.122929 -0.105195 0.312127
v -0.101334 0.095023 -0.00463
v 0.00019 -0.302981 -0.345047
v -0.104847 0.093695 0.019796
v 0.137627 -0.105997 0.210605
v 0.183481 -0.302496 -0.330399
v 0.000203 -0.267292 -0.344233
v 0.183481 -0.302496 -0.330399
v 0.009265 -0.301913 0.259155
v 0.079567 0.154324 -0.27983
f 683 864 2
f 494 1 46
f 6 7 8
f 46 1 9
f 3 23 57
f 14 15 16
f 18 19 17
f 20 21 22
f 23 3 10
f 26 739 195
f 358 77 29
f 246 4 68
f 31 33 899
f 4 12 888
f 11 5 73
f 5 243 644
f 51 52 53
f 45 147 181
f 528 9 1
f 753 10 3
f 79 12 4
f 5 11 79
f 240 57 23
f 400 11 73
f 70 71 72
f 23 10 240
f 75 76 77
f 84 85 86
f 610 87 88
f 92 93 94
f 753 240 10
f 11 400 79
f 9 882 832
f 828 107 108
f 109 110 111
f 3 57 429
f 25 61 97
f 117 551 231
f 122 123 121
f 61 25 876
f 127 472 129
f 834 132 133
f 136 47 637
f 137 138 139
f 12 186 541
f 237 27 95
f 95 27 87
f 28 96 381
f 153 154 155
f 96 28 654
f 606 35 105
f 123 160 161
f 162 163 164
f 105 35 483
f 98 97 118
f 868 37 131
f 174 164 144
f 174 144 69
f 382 178 179
f 37 266 143
f 43 372 371
f 372 43 478
f 187 188 80
f 304 192 193
f 266 44 143
f 44 267 269
f 874 634 760
f 263 789 264
f 234 281 74
f 48 261 414
f 148 837 816
f 167 223 224
f 92 227 228
f 557 45 558
f 55 31 147
f 571 235 573
f 644 73 5
f 1 494 528
f 494 46 54
f 832 54 46
f 158 142 770
f 253 254 255
f 68 888 151
f 494 54 295
f 263 264 262
f 295 54 442
f 720 421 417
f 143 269 268
f 270 271 272
f 275 277 276
f 543 32 34
f 285 501 626
f 98 579 212
f 441 290 291
f 65 345 318
f 229 56 389
f 909 637 919
f 91 297 298
f 299 300 301
f 715 56 446
f 446 56 159
f 33 195 205
f 429 57 240
f 856 58 707
f 58 554 553
f 73 114 397
f 324 325 326
f 920 327 921
f 745 59 191
f 191 59 189
f 337 293 338
f 706 643 798
f 339 219 330
f 154 60 276
f 276 60 872
f 61 876 128
f 348 349 350
f 353 354 355
f 134 876 25
f 77 358 889
f 732 63 846
f 359 360 361
f 362 363 364
f 846 63 131
f 251 131 63
f 371 372 373
f 922 242 377
f 547 65 818
f 4 246 79
f 888 68 4
f 69 175 174
f 175 69 800
f 175 800 269
f 392 860 565
f 393 394 923
f 79 243 5
f 196 780 913
f 398 399 99
f 212 837 148
f 406 407 408
f 280 411 67
f 41 412 86
f 74 282 98
f 348 350 415
f 417 111 110
f 554 218 560
f 27 237 88
f 237 95 887
f 28 649 248
f 432 405 433
f 434 772 435
f 381 649 28
f 282 97 98
f 443 92 228
f 169 98 118
f 924 404 447
f 118 877 169
f 451 393 923
f 378 880 529
f 455 40 925
f 66 369 491
f 103 799 69
f 460 461 462
f 799 103 244
f 141 224 926
f 274 104 824
f 473 474 373
f 473 477 52
f 824 104 818
f 35 606 923
f 233 927 331
f 481 482 483
f 606 105 279
f 487 106 632
f 486 487 485
f 488 254 253
f 489 928 929
f 490 505 930
f 632 106 112
f 495 496 931
f 615 112 880
f 498 668 500
f 932 502 503
f 509 165 933
f 507 354 353
f 880 112 486
f 525 934 211
f 397 114 911
f 196 114 644
f 264 517 518
f 519 792 935
f 874 115 733
f 264 523 517
f 936 14 16
f 527 937 529
f 733 115 734
f 938 939 790
f 98 212 74
f 365 180 328
f 118 97 61
f 139 296 545
f 766 125 875
f 875 125 128
f 125 877 118
f 128 874 733
f 846 131 37
f 940 266 37
f 770 142 769
f 564 267 44
f 941 566 942
f 43 122 786
f 122 43 306
f 846 143 268
f 269 143 44
f 582 510 583
f 585 586 145
f 903 135 588
f 44 266 564
f 103 144 312
f 926 943 538
f 312 144 164
f 593 596 595
f 577 744 944
f 598 599 600
f 735 602 201
f 31 34 33
f 147 45 55
f 34 31 543
f 945 160 613
f 171 157 780
f 946 619 620
f 172 623 947
f 948 949 950
f 627 628 844
f 629 163 630
f 760 115 874
f 184 511 803
f 511 184 760
f 683 2 220
f 951 386 641
f 952 642 643
f 115 760 184
f 634 511 760
f 468 647 399
f 648 649 650
f 759 184 803
f 250 657 500
f 393 53 394
f 531 146 145
f 759 803 603
f 733 734 219
f 170 242 673
f 489 929 953
f 260 775 322
f 670 671 672
f 954 562 563
f 322 306 260
f 675 955 676
f 677 678 679
f 207 680 274
f 743 593 788
f 687 688 956
f 570 905 320
f 225 422 439
f 83 422 420
f 655 957 958
f 687 578 688
f 540 889 273
f 403 415 402
f 959 698 683
f 905 623 172
f 623 905 818
f 703 704 87
f 439 422 862
f 759 336 168
f 960 255 961
f 734 759 168
f 309 595 916
f 712 850 713
f 619 472 638
f 593 743 886
f 709 666 843
f 257 763 385
f 719 720 158
f 524 700 962
f 722 723 724
f 963 964 584
f 725 726 727
f 729 730 731
f 586 531 145
f 789 263 92
f 775 965 177
f 393 176 474
f 946 472 619
f 737 598 738
f 696 707 438
f 695 707 696
f 552 744 576
f 966 745 967
f 746 278 968
f 796 221 307
f 67 411 285
f 382 179 38
f 753 222 395
f 913 911 196
f 913 780 157
f 735 969 340
f 828 776 702
f 247 970 798
f 889 436 321
f 389 971 229
f 860 192 565
f 381 654 972
f 304 973 866
f 791 326 325
f 30 13 307
f 324 326 974
f 645 475 768
f 166 285 626
f 66 456 369
f 323 289 975
f 809 235 289
f 289 152 708
f 817 152 816
f 621 622 281
f 569 130 783
f 621 281 234
f 787 309 788
f 789 92 443
f 435 548 681
f 234 148 816
f 580 217 825
f 596 686 658
f 976 793 794
f 234 152 323
f 816 152 234
f 707 977 522
f 978 360 979
f 980 804 609
f 805 806 807
f 645 768 808
f 152 817 708
f 662 810 508
f 714 599 598
f 663 810 662
f 485 527 486
f 692 981 689
f 71 409 349
f 123 161 121
f 945 161 160
f 982 383 820
f 822 823 983
f 850 274 824
f 336 330 168
f 984 826 761
f 535 635 684
f 148 74 212
f 74 148 234
f 195 33 24
f 587 546 440
f 833 442 54
f 833 832 773
f 596 593 686
f 834 133 208
f 34 32 624
f 899 147 31
f 147 899 181
f 985 839 986
f 840 842 841
f 24 624 625
f 24 26 195
f 987 690 988
f 989 719 990
f 672 671 851
f 268 852 853
f 356 981 457
f 238 895 858
f 530 991 351
f 530 460 992
f 162 164 630
f 476 855 62
f 742 921 327
f 991 530 992
f 22 90 89
f 37 868 940
f 50 49 221
f 495 869 993
f 265 664 871
f 992 460 462
f 876 874 128
f 61 125 118
f 834 994 995
f 39 996 867
f 529 841 378
f 882 528 997
f 998 408 410
f 931 869 495
f 31 55 543
f 550 541 55
f 999 651 519
f 257 762 763
f 617 423 897
f 298 828 91
f 890 892 834
f 1000 893 894
f 726 896 727
f 339 330 656
f 659 735 340
f 6 1001 7
f 1002 1003 1004
f 1005 268 853
f 665 265 910
f 19 1006 827
f 618 423 617
f 414 261 459
f 233 470 927
f 247 642 694
f 331 431 233
f 265 665 664
f 1007 157 1008
f 917 467 1009
f 1008 157 367
f 1007 257 157
f 838 1010 1011
f 918 210 568
f 561 375 374
f 171 780 778
f 535 505 358
f 632 615 859
f 244 1012 1013
f 539 169 877
f 868 806 940
f 628 627 1001
f 754 321 1014
f 181 558 45
f 1015 947 1016
f 898 335 1017
f 332 1018 895
f 1019 211 709
f 313 30 1020
f 877 766 764
f 125 766 877
f 871 1021 265
f 45 557 550
f 550 55 45
f 550 557 888
f 604 549 149
f 226 448 225
f 149 549 1022
f 194 317 782
f 149 194 604
f 526 463 814
f 1022 194 149
f 1023 369 546
f 729 1024 1025
f 1026 707 1027
f 534 639 379
f 1028 831 956
f 773 687 831
f 1029 1030 998
f 441 466 290
f 896 854 848
f 935 405 999
f 474 473 52
f 1031 649 972
f 143 846 37
f 1032 310 1033
f 1034 441 291
f 885 1035 1036
f 867 441 1034
f 837 423 817
f 836 1037 1038
f 751 425 26
f 835 715 209
f 739 425 424
f 765 151 238
f 900 1039 1038
f 757 219 339
f 829 827 1006
f 398 99 821
f 124 814 126
f 851 567 672
f 512 321 754
f 445 1040 845
f 1041 675 403
f 445 845 809
f 693 423 618
f 812 1042 1043
f 838 736 700
f 838 1011 736
f 319 710 1044
f 856 707 522
f 428 233 1045
f 1046 706 908
f 721 1046 990
f 783 914 873
f 800 799 797
f 796 307 13
f 812 1047 1042
f 233 431 1045
f 785 1048 1049
f 784 808 791
f 782 781 604
f 780 779 778
f 721 990 719
f 1050 287 1051
f 67 904 280
f 701 67 285
f 285 411 501
f 478 473 372
f 777 776 774
f 1052 798 970
f 340 1053 311
f 528 493 1054
f 905 811 824
f 483 482 279
f 1055 765 1056
f 824 818 905
f 41 42 412
f 680 113 65
f 551 1057 520
f 923 1058 483
f 757 1059 755
f 752 750 317
f 1060 749 16
f 94 748 92
f 102 305 633
f 360 601 979
f 1061 740 878
f 65 547 680
f 195 739 814
f 122 121 786
f 786 478 43
f 339 311 1059
f 1059 757 339
f 72 71 349
f 1062 320 172
f 968 1063 746
f 734 115 184
f 236 1064 901
f 146 531 1065
f 352 819 139
f 718 302 683
f 1066 717 716
f 1067 623 318
f 249 248 649
f 1068 859 616
f 437 504 758
f 1069 77 76
f 1070 437 758
f 1046 908 1071
f 713 824 811
f 67 491 1072
f 1046 721 706
f 765 238 858
f 705 699 697
f 225 448 422
f 1073 89 90
f 455 1074 1075
f 387 71 70
f 861 993 869
f 324 742 514
f 468 399 398
f 142 158 720
f 1076 773 882
f 692 689 1077
f 34 24 33
f 340 311 339
f 1078 1079 1035
f 421 744 552
f 34 624 24
f 957 534 958
f 1080 1057 815
f 947 1015 172
f 1081 927 1082
f 1083 1084 714
f 714 1084 599
f 725 480 726
f 906 955 203
f 1085 631 851
f 1086 1084 1083
f 319 1044 711
f 1085 851 1087
f 631 1085 190
f 959 1088 698
f 1089 53 477
f 303 690 232
f 491 1023 1090
f 655 958 1073
f 654 1091 972
f 317 750 881
f 1092 653 536
f 633 305 860
f 1093 1094 571
f 876 134 634
f 631 504 64
f 40 1095 925
f 287 261 310
f 809 573 235
f 757 875 733
f 749 936 16
f 703 87 1096
f 1073 90 1097
f 1098 185 384
f 1099 892 682
f 1047 1100 1042
f 1101 1102 1103
f 1098 636 185
f 588 728 640
f 1104 560 1105
f 737 738 661
f 644 114 73
f 511 634 134
f 73 397 400
f 901 1106 566
f 1008 367 366
f 831 828 298
f 298 773 831
f 293 1107 258
f 200 676 906
f 486 112 106
f 112 615 632
f 276 583 614
f 955 906 676
f 910 265 756
f 317 881 396
f 317 396 239
f 576 744 577
f 483 279 105
f 383 422 448
f 250 448 657
f 564 266 1108
f 420 422 1109
f 739 660 283
f 1110 1111 556
f 1112 594 597
f 166 1113 701
f 340 969 1053
f 258 912 36
f 591 365 328
f 908 798 1052
f 1114 120 699
f 892 453 435
f 308 668 498
f 820 668 308
f 813 590 954
f 1115 589 223
f 772 1116 416
f 1117 312 164
f 1118 204 579
f 1119 575 327
f 164 163 1117
f 312 1117 1120
f 533 581 590
f 1100 408 407
f 907 258 1121
f 1121 258 1107
f 321 1122 1014
f 870 1123 247
f 907 912 258
f 693 817 423
f 1124 1125 1071
f 710 1126 1044
f 799 244 1013
f 579 98 169
f 1098 1127 1128
f 1129 1130 36
f 1128 636 1098
f 516 191 596
f 555 893 1131
f 519 935 999
f 1132 763 762
f 553 707 58
f 845 173 1133
f 610 609 804
f 712 1134 605
f 1135 173 1040
f 1136 1137 1138
f 1040 173 845
f 484 705 314
f 569 783 1139
f 553 1104 1027
f 697 314 705
f 702 776 667
f 1011 15 14
f 393 1140 176
f 502 335 503
f 1141 697 120
f 1142 458 1143
f 849 314 891
f 484 314 849
f 198 314 199
f 199 314 216
f 1141 314 697
f 772 548 435
f 310 1032 287
f 139 368 296
f 368 139 819
f 755 1059 1144
f 296 368 1145
f 166 701 285
f 547 818 104
f 1065 865 146
f 543 541 1146
f 998 406 408
f 1147 1148 1149
f 859 1150 632
f 1001 6 628
f 988 18 17
f 675 1041 955
f 984 1151 826
f 957 639 534
f 601 1152 979
f 51 53 393
f 917 1009 39
f 1151 984 1153
f 625 26 24
f 1154 685 582
f 653 662 508
f 521 1155 1156
f 807 1157 805
f 233 428 470
f 1025 346 729
f 169 539 1158
f 915 892 1099
f 700 288 551
f 516 658 967
f 1159 1160 1161
f 8 515 830
f 551 117 700
f 150 151 1055
f 647 467 917
f 572 150 1055
f 150 572 68
f 151 765 1055
f 68 151 150
f 1131 1162 555
f 151 888 238
f 1163 825 1164
f 840 249 842
f 217 388 1165
f 278 746 1166
f 499 15 1011
f 671 670 1167
f 597 835 1168
f 164 174 801
f 497 786 1089
f 503 335 898
f 1095 1169 894
f 584 1170 963
f 277 492 276
f 497 477 478
f 504 1171 1172
f 219 757 733
f 448 479 657
f 947 623 1067
f 334 523 1173
f 321 512 273
f 1174 431 1175
f 1176 892 890
f 1074 455 925
f 1177 855 476
f 252 868 251
f 327 575 742
f 659 602 735
f 735 413 674
f 682 892 435
f 808 326 791
f 1178 1138 1137
f 683 220 718
f 735 201 413
f 465 614 583
f 56 229 159
f 944 464 1179
f 1143 458 1180
f 447 404 1181
f 1006 581 1182
f 806 716 807
f 716 717 807
f 1051 287 469
f 892 1176 453
f 449 669 1183
f 882 997 1076
f 603 336 759
f 423 204 897
f 1033 310 1037
f 556 551 520
f 592 855 211
f 64 567 631
f 691 1040 445
f 1184 964 963
f 486 527 529
f 442 297 1185
f 466 441 996
f 906 203 202
f 861 869 931
f 1186 1187 82
f 478 477 473
f 1188 437 1189
f 329 386 951
f 303 18 988
f 1106 901 1064
f 502 1190 335
f 376 532 1191
f 376 1192 215
f 376 1193 532
f 973 1194 866
f 575 1195 1196
f 376 215 1193
f 458 1142 430
f 397 911 1197
f 158 770 706
f 710 319 207
f 1198 254 488
f 1157 427 1199
f 1200 1194 973
f 938 790 1030
f 961 254 1201
f 694 245 247
f 308 1087 426
f 679 678 1202
f 611 607 1203
f 319 680 207
f 755 1144 766
f 528 882 9
f 430 902 900
f 761 1204 1205
f 494 493 528
f 1206 295 1185
f 295 493 494
f 36 513 258
f 668 250 500
f 1185 295 442
f 1005 846 268
f 259 1206 1207
f 159 493 259
f 446 159 259
f 811 344 341
f 820 250 668
f 1208 662 653
f 336 656 330
f 1209 602 659
f 1096 87 610
f 1177 476 1210
f 659 1211 1209
f 167 1115 223
f 1212 1213 1214
f 1214 507 353
f 401 699 705
f 652 669 1215
f 742 974 921
f 981 356 941
f 317 270 1216
f 1216 270 1217
f 1129 542 1218
f 400 397 1219
f 211 1019 525
f 534 379 1220
f 1217 270 272
f 464 719 989
f 259 802 446
f 20 22 89
f 521 574 1155
f 165 854 726
f 480 1221 1180
f 1222 506 481
f 594 389 835
f 944 744 464
f 77 857 75
f 521 1156 608
f 458 310 136
f 395 222 49
f 388 390 1223
f 1037 310 900
f 900 310 458
f 1147 1149 277
f 310 261 136
f 18 316 608
f 141 140 224
f 1154 582 492
f 1000 1131 893
f 1161 586 585
f 594 1112 971
f 1197 385 1224
f 861 1225 993
f 675 70 72
f 1109 422 383
f 1214 1226 1212
f 1219 397 1197
f 643 706 770
f 551 1227 231
f 782 604 194
f 218 215 1192
f 1228 465 583
f 1192 213 218
f 58 856 215
f 381 972 649
f 878 740 1229
f 841 380 378
f 1230 1231 155
f 376 1191 1192
f 123 122 322
f 1232 185 1233
f 735 674 1234
f 1235 646 1153
f 1175 431 589
f 681 682 435
f 1116 772 434
f 370 767 1236
f 799 1013 797
f 436 505 1237
f 505 1238 1237
f 400 1219 78
f 505 490 1238
f 1239 368 819
f 244 1240 1012
f 882 773 832
f 1204 761 826
f 542 883 418
f 116 845 1241
f 129 472 1242
f 465 985 614
f 29 641 386
f 572 243 246
f 79 186 12
f 608 452 18
f 1243 788 357
f 429 704 3
f 347 729 346
f 753 704 1244
f 240 753 395
f 887 87 1245
f 529 937 841
f 88 87 27
f 726 480 909
f 1102 1101 652
f 1246 704 429
f 1199 94 93
f 481 483 1058
f 1226 898 1017
f 1245 704 1246
f 1245 87 704
f 703 1096 704
f 1247 432 1248
f 999 405 432
f 433 1249 1248
f 469 1032 863
f 298 442 833
f 86 412 84
f 481 1250 1251
f 998 410 1029
f 593 787 788
f 771 1155 1252
f 890 834 208
f 536 653 508
f 800 852 268
f 1237 1122 436
f 595 596 916
f 242 197 1113
f 922 673 242
f 211 1253 592
f 535 1254 635
f 814 463 126
f 380 1255 378
f 206 124 126
f 303 382 574
f 358 386 535
f 343 77 1069
f 382 232 178
f 770 769 952
f 232 382 303
f 157 171 367
f 1256 421 1257
f 21 983 823
f 531 783 1065
f 1139 783 531
f 1139 531 1258
f 481 1251 1222
f 1178 1137 698
f 347 346 357
f 1259 683 1137
f 417 1256 111
f 518 517 1260
f 1065 783 873
f 373 372 473
f 318 1036 1067
f 1261 1242 472
f 666 211 549
f 70 676 387
f 426 333 1167
f 666 709 211
f 1146 541 186
f 101 244 100
f 313 342 30
f 775 260 965
f 297 442 298
f 509 1091 654
f 265 113 756
f 66 701 1113
f 908 706 798
f 1262 1263 254
f 491 1090 544
f 656 659 340
f 238 888 557
f 1264 431 949
f 678 884 1202
f 1265 884 678
f 323 1266 621
f 356 566 941
f 366 1267 1008
f 1268 1269 1270
f 1022 855 1177
f 1271 177 965
f 1105 177 1271
f 855 592 62
f 811 341 1134
f 708 809 289
f 814 284 526
f 370 1161 1160
f 370 586 1161
f 370 1160 1272
f 774 776 108
f 912 542 36
f 513 293 258
f 746 953 1166
f 468 467 647
f 230 513 36
f 1270 1273 1274
f 877 764 539
f 97 282 25
f 739 26 425
f 796 13 50
f 1275 1209 1211
f 1276 698 1088
f 64 1277 1278
f 751 26 1279
f 174 175 182
f 175 269 267
f 267 182 175
f 1189 437 740
f 811 905 344
f 264 518 262
f 449 1183 740
f 333 426 1087
f 1280 446 802
f 581 391 1182
f 624 32 1281
f 706 721 158
f 623 818 318
f 78 79 400
f 316 574 521
f 851 333 1087
f 205 1282 899
f 1283 302 718
f 205 899 33
f 1284 165 919
f 1255 380 1285
f 209 715 1286
f 787 595 309
f 1086 1083 830
f 1287 1288 1205
f 315 1289 1290
f 515 1086 830
f 320 905 172
f 450 700 736
f 1015 1291 172
f 578 1292 688
f 788 309 1293
f 356 1294 566
f 1295 749 1060
f 1206 259 295
f 1168 835 209
f 729 731 1296
f 995 1297 794
f 52 477 53
f 747 1224 385
f 1123 970 247
f 847 632 1298
f 559 613 256
f 560 559 1105
f 214 1105 559
f 364 1299 301
f 1299 299 301
f 959 683 1300
f 300 415 301
f 300 299 402
f 1301 1224 747
f 919 165 909
f 451 606 393
f 596 189 1302
f 809 845 573
f 775 256 322
f 357 788 1293
f 371 306 43
f 449 740 1061
f 1303 311 1304
f 954 590 562
f 492 583 276
f 206 205 124
f 306 322 122
f 1169 1000 894
f 1287 1305 1288
f 843 741 1306
f 567 1278 1307
f 312 244 103
f 831 1028 107
f 1308 723 236
f 1136 1309 1137
f 956 831 687
f 789 443 264
f 1244 704 1096
f 667 776 777
f 583 492 582
f 300 402 415
f 276 872 275
f 304 866 565
f 1310 244 312
f 281 1311 134
f 887 1245 1312
f 982 426 1167
f 1227 551 1313
f 1111 551 556
f 1137 683 698
f 451 923 606
f 393 279 1140
f 855 549 211
f 60 154 153
f 1314 1265 368
f 700 1315 1010
f 485 487 1187
f 153 155 872
f 487 632 847
f 474 51 393
f 1316 597 294
f 949 431 950
f 880 378 292
f 597 1168 1317
f 1318 946 620
f 638 472 471
f 452 1156 562
f 975 289 235
f 1133 173 1319
f 1153 646 1151
f 574 1320 1252
f 472 946 1261
f 302 1300 683
f 884 1265 1314
f 81 484 849
f 1150 859 1321
f 288 450 815
f 607 611 928
f 482 481 506
f 469 287 1032
f 1010 499 1011
f 726 909 165
f 607 928 1322
f 238 557 332
f 796 50 221
f 613 286 945
f 1198 1323 254
f 732 846 1005
f 437 1070 1229
f 1324 360 359
f 1178 698 1276
f 574 382 1320
f 64 504 183
f 1325 293 1326
f 29 386 358
f 64 183 1327
f 1328 1163 1164
f 1329 375 1330
f 1035 885 1078
f 676 200 387
f 270 1022 1331
f 1110 556 1332
f 593 886 686
f 1040 691 1333
f 388 1334 1165
f 438 707 1026
f 1208 653 1092
f 1335 790 939
f 906 1336 200
f 977 707 695
f 1111 1313 551
f 1057 551 288
f 241 421 552
f 282 281 134
f 291 1337 1034
f 1189 740 1338
f 800 797 852
f 1339 1340 1042
f 1317 1306 879
f 1341 907 1342
f 93 92 262
f 230 1130 461
f 264 443 1173
f 264 1173 523
f 230 461 460
f 612 260 1343
f 1278 567 64
f 452 608 1156
f 693 708 817
f 1273 1270 1269
f 546 369 440
f 1344 1345 795
f 958 1346 1347
f 1348 479 226
f 553 554 560
f 293 1325 1107
f 741 879 1306
f 642 1349 694
f 1286 446 1280
f 162 630 163
f 550 888 12
f 965 260 612
f 505 535 684
f 1350 257 1007
f 67 1351 904
f 313 202 342
f 914 783 130
f 472 444 471
f 533 590 813
f 317 1216 752
f 832 46 9
f 18 303 316
f 61 128 125
f 795 1075 1074
f 361 978 496
f 243 1055 779
f 795 1074 1344
f 1045 431 1352
f 650 649 1031
f 1353 650 1031
f 1027 707 553
f 1339 1042 406
f 288 815 1057
f 452 590 19
f 450 288 700
f 513 230 460
f 530 513 460
f 289 323 152
f 542 418 419
f 611 1203 1354
f 1338 740 1183
f 403 675 72
f 210 1295 1060
f 786 497 478
f 92 263 262
f 1175 589 1115
f 713 850 824
f 950 431 331
f 1204 1287 1205
f 671 1167 333
f 851 631 567
f 459 287 1050
f 631 190 1171
f 1333 693 618
f 481 1058 1250
f 434 435 453
f 1171 504 631
f 142 417 769
f 757 755 875
f 730 729 785
f 252 251 1355
f 841 842 380
f 1285 380 650
f 79 246 243
f 918 1295 210
f 654 248 848
f 1078 885 1021
f 509 933 1091
f 654 381 96
f 1356 1239 819
f 281 622 1311
f 270 1331 271
f 257 1350 762
f 1343 260 306
f 1331 1357 271
f 156 242 1358
f 1359 156 1358
f 249 648 842
f 369 156 1359
f 566 1106 942
f 371 373 1343
f 772 416 189
f 1162 1360 555
f 136 909 480
f 136 480 458
f 982 1109 383
f 456 197 156
f 369 456 156
f 1226 1017 1212
f 1282 181 899
f 596 1302 916
f 197 242 156
f 573 845 116
f 1361 669 449
f 715 835 389
f 870 247 245
f 712 713 811
f 781 666 604
f 584 924 447
f 1304 311 1053
f 21 823 1362
f 831 107 828
f 432 433 1248
f 672 567 1307
f 318 345 1036
f 613 559 213
f 240 395 429
f 538 141 926
f 944 1179 1363
f 444 472 1364
f 544 1090 1365
f 739 424 1366
f 313 906 202
f 417 110 769
f 1367 182 564
f 182 267 564
f 370 1272 1368
f 1232 1369 1370
f 717 427 807
f 807 427 1157
f 717 227 748
f 864 683 1371
f 227 92 748
f 964 924 584
f 666 741 843
f 348 415 72
f 94 1199 748
f 1199 427 748
f 244 1310 100
f 324 974 742
f 1317 741 597
f 348 72 349
f 87 887 95
f 294 597 741
f 889 857 77
f 741 666 781
f 294 741 781
f 248 654 28
f 85 84 844
f 742 1372 514
f 1373 1374 363
f 364 1375 1299
f 983 21 20
f 459 261 287
f 437 183 504
f 1376 187 388
f 388 187 1377
f 679 1202 1378
f 798 642 247
f 187 1376 188
f 1102 652 1215
f 449 1061 1379
f 388 1223 1376
f 731 1380 1296
f 808 784 645
f 621 234 323
f 187 1381 1377
f 861 986 1225
f 549 855 1022
f 671 333 851
f 42 538 943
f 615 292 1382
f 1383 355 119
f 354 119 355
f 1235 1383 119
f 646 1235 119
f 42 41 538
f 616 615 1382
f 1201 254 1263
f 1384 889 540
f 975 1266 323
f 230 36 1130
f 181 1385 558
f 421 241 1386
f 1387 229 971
f 908 1052 1388
f 317 239 1389
f 140 167 224
f 491 67 701
f 275 1147 277
f 259 1207 802
f 492 277 1149
f 1149 1154 492
f 491 701 66
f 820 308 426
f 720 417 142
f 322 256 160
f 160 123 322
f 575 1152 601
f 1119 1152 575
f 781 782 1390
f 575 601 1195
f 218 554 215
f 1361 449 1379
f 504 1172 758
f 304 1391 973
f 859 1392 1393
f 1394 1347 1346
f 859 1395 1392
f 157 257 913
f 579 1158 1118
f 940 1108 266
f 1384 1396 889
f 756 113 680
f 642 952 1349
f 531 586 1236
f 531 1236 1258
f 559 256 214
f 304 193 1391
f 613 213 286
f 19 827 17
f 1397 825 1163
f 1113 456 66
f 1282 205 206
f 559 218 213
f 281 282 74
f 68 572 246
f 648 650 380
f 380 842 648
f 1018 332 558
f 54 832 833
f 204 423 837
f 1250 1398 1251
f 255 254 961
f 785 1289 315
f 785 1049 1289
f 1385 1018 558
f 1399 1294 356
f 960 903 1400
f 64 1327 1277
f 854 509 654
f 139 545 137
f 158 721 719
f 985 465 1228
f 534 1346 958
f 985 1228 839
f 1124 908 1388
f 1401 542 419
f 298 833 773
f 312 1120 1310
f 817 816 837
f 1063 968 1402
f 164 801 630
f 388 217 580
f 737 661 714
f 388 1403 390
f 265 1021 885
f 720 719 464
f 891 314 198
f 906 313 1336
f 543 55 541
f 543 1146 32
f 1385 181 1282
f 593 595 787
f 975 235 1094
f 779 644 243
f 1374 1375 364
f 933 165 1284
f 385 913 257
f 606 279 393
f 568 1360 918
f 1354 1203 821
f 1162 918 1360
f 1354 821 99
f 1381 80 1404
f 1145 368 1265
f 461 1405 462
f 1406 1181 404
f 636 1128 1233
f 80 188 1407
f 590 581 19
f 496 978 931
f 172 1408 1062
f 1408 172 1291
f 1276 1088 1409
f 1410 581 533
f 534 1220 1346
f 464 744 720
f 857 889 1396
f 108 776 828
f 1023 491 369
f 1382 292 1411
f 1113 197 456
f 139 138 352
f 845 1133 1241
f 574 316 303
f 448 250 383
f 204 212 579
f 36 542 1129
f 597 594 835
f 1314 368 1239
f 930 505 684
f 779 196 644
f 67 1072 1351
f 780 196 779
f 1020 30 307
f 1412 1111 1110
f 189 596 191
f 775 177 214
f 370 1413 767
f 216 314 1141
f 934 1253 211
f 542 1401 1218
f 370 1236 586
f 292 378 1414
f 222 221 49
f 747 763 1415
f 382 1416 1320
f 294 1390 1316
f 253 1417 488
f 1336 313 1020
f 12 541 550
f 229 1054 159
f 806 1418 940
f 252 1355 1419
f 806 805 1418
f 345 65 113
f 834 915 994
f 56 715 389
f 321 436 1122
f 154 276 614
f 1231 872 155
f 186 79 1420
f 229 1387 1054
f 1421 439 862
f 971 389 594
f 493 159 1054
f 1040 1422 1135
f 1305 810 663
f 625 1279 26
f 574 1252 1155
f 885 345 113
f 741 1317 879
f 1089 477 497
f 274 680 547
f 930 1423 490
f 166 626 1113
f 953 929 1166
f 1399 356 457
f 692 457 981
f 252 806 868
f 1304 1053 1424
f 127 1330 1364
f 294 781 1390
f 613 160 256
f 800 268 269
f 360 1324 601
f 184 759 734
f 1180 458 480
f 377 242 1113
f 799 800 69
f 493 295 259
f 923 483 35
f 1425 242 1426
f 938 1030 1029
f 1427 808 768
f 1269 1428 1273
f 1285 650 1353
f 1273 1428 102
f 236 723 1064
f 1429 724 1308
f 204 1118 897
f 40 1169 1095
f 717 1430 227
f 717 1066 1430
f 694 1349 1431
f 744 421 720
f 1072 491 544
f 3 704 753
f 19 581 1006
f 70 675 676
f 1327 183 1432
f 1071 908 1124
f 553 560 1104
f 436 889 358
f 1055 243 572
f 505 436 358
f 902 1039 900
f 729 1433 1024
f 347 785 729
f 385 763 747
f 1415 763 1434
f 357 1293 1435
f 729 1296 1433
f 1063 1402 1436
f 304 565 192
f 1343 306 371
f 887 1003 237
f 996 39 1009
f 1132 1434 763
f 1437 951 641
f 1222 1438 506
f 521 608 316
f 962 700 117
f 1439 1334 388
f 182 1367 801
f 601 1324 1195
f 1366 660 739
f 742 575 1372
f 1372 575 1196
f 51 474 52
f 318 818 65
f 1298 632 1150
f 251 732 1355
f 1403 388 580
f 131 251 868
f 63 732 251
f 440 369 1359
f 1215 669 1361
f 910 756 711
f 687 1076 578
f 25 282 134
f 811 1134 712
f 32 1146 1440
f 29 77 343
f 562 590 452
f 1092 536 537
f 1193 215 856
f 700 524 1315
f 72 415 403
f 219 734 168
f 510 1228 583
f 837 212 204
f 723 1308 724
f 841 937 840
f 1181 1441 447
f 235 571 1094
f 219 168 330
f 186 1420 1146
f 656 340 339
f 479 448 226
f 293 513 180
f 1323 1262 254
f 793 132 995
f 549 604 666
f 1358 242 1425
f 1326 293 337
f 1435 347 357
f 996 441 867
f 165 509 854
f 1442 652 1101
f 1197 913 385
f 153 872 60
f 927 1443 1082
f 1364 472 127
f 896 726 854
f 809 708 445
f 470 1443 927
f 329 535 386
f 384 185 1444
f 1445 1436 1402
f 1446 185 1370
f 1370 185 1232
f 1447 185 1446
f 1444 185 1448
f 1448 185 1447
f 739 283 284
f 692 1077 457
f 430 900 458
f 321 273 889
f 782 1389 1390
f 32 1440 1281
f 859 1393 1321
f 859 1068 1395
f 195 124 205
f 1449 1335 939
f 486 529 880
f 1341 912 907
f 828 702 91
f 559 560 218
f 875 755 766
f 454 530 351
f 691 445 708
f 708 693 691
f 388 1377 1439
f 120 697 699
f 169 1158 579
f 1374 364 363
f 324 514 325
f 715 446 1286
f 437 1229 740
f 627 844 84
f 8 7 515
f 1322 928 489
f 407 1042 1100
f 286 213 1192
f 1211 656 336
f 1036 345 885
f 1208 1092 1450
f 223 589 1264
f 375 561 1330
f 838 700 1010
f 735 1234 969
f 911 114 196
f 995 794 793
f 834 892 915
f 104 274 547
f 417 421 1256
f 561 1364 1330
f 1451 530 454
f 480 1452 1221
f 876 634 874
f 69 144 103
f 756 319 711
f 633 860 392
f 382 38 1416
f 215 554 58
f 317 1389 782
f 820 426 982
f 346 1025 1243
f 765 858 1453
f 659 656 1211
f 820 383 250
f 986 839 1225
f 778 367 171
f 812 1043 1047
f 1075 795 1454
f 946 1318 1455
f 270 317 194
f 214 177 1105
f 292 1414 1411
f 1288 1305 663
f 655 1073 1097
f 655 1097 957
f 1179 464 989
f 102 1428 305
f 187 80 1381
f 303 988 690
f 1449 1456 1335
f 1164 825 217
f 880 292 615
f 862 422 83
f 733 875 128
f 834 995 132
f 885 113 265
f 214 256 775
f 1452 480 725
f 680 319 756
f 407 406 1042
f 737 714 598
f 558 332 557
f 1414 378 1255
f 182 801 174
f 238 332 895
f 1319 173 1135
f 687 773 1076
f 658 516 596
f 1445 1457 1458
f 1254 535 1459
f 814 124 195
f 1445 1458 1460
f 1436 1445 1460
f 739 284 814
f 1458 1461 1460
f 19 18 452
f 1462 1318 620
f 1214 1213 507
f 854 654 848
f 1112 597 1316
f 237 1003 1002
f 1426 242 1463
f 1056 765 1453
f 548 1464 681
f 913 1197 911
f 589 431 1264
f 136 261 47
f 47 261 48
f 1465 1191 532
f 798 643 642
f 1333 691 693
f 785 1435 1048
f 1435 785 347
f 785 315 730
f 427 717 748
f 1096 610 804
f 960 1400 255
f 301 415 350
f 967 191 516
f 967 745 191
f 59 745 548
f 370 1368 1413
f 912 883 542
f 912 1341 883
f 548 1466 1464
f 548 772 59
f 548 745 1466
f 772 189 59
f 649 648 249
f 513 530 180
f 745 966 1466
f 360 978 361
f 338 180 365
f 338 293 180
f 328 180 1451
f 637 909 136
f 180 530 1451
f 588 640 903
f 1400 903 640
f 1352 431 1174
f 1443 1467 1082
f 457 1468 1399
f 346 1243 357
f 1463 242 170
f 743 788 1243
f 806 252 716
f 1419 1066 716
f 1419 716 252
f 859 615 616
f 1257 421 1386
f 1469 1449 939
f 905 570 344
f 1240 244 1470
f 106 487 486
f 237 1002 88
f 1187 487 847
f 1470 244 101
f 1187 847 82
f 636 1233 185
f 1233 1128 1471
f 1432 437 1188
f 1459 535 329
f 1037 900 1038
f 952 643 770
f 1371 683 1259
f 1303 1059 311
f 1432 183 437
f 270 194 1022
f 1279 1472 751
f 581 1410 391
