v 0.126398 0.184151 -0.0156873
v 0.13171 0.217123 -0.0435997
v 0.115715 0.246833 -0.04071
v 0.0521056 0.219359 0.0523867
v -0.0174016 0.131117 -0.198015
v -0.105737 0.31866 -0.136322
v -0.002716 0.382409 0.013214
v -0.227659 0.236317 -0.0409879
v -0.204541 0.280556 -0.0482835
v -0.216993 0.240548 -0.0762767
v 0.250249 -0.055572 -0.078109
v -0.187629 0.114554 0.12901
v -0.186293 0.144514 0.126383
v -0.173376 0.266146 0.110937
v -0.168192 0.29841 0.105556
v 0.124972 0.147219 0.00766967
v 0.105608 0.141977 0.036194
v 0.0978703 0.275017 -0.038272
v 0.0800257 0.303201 -0.035834
v -0.055708 -0.316301 0.112372
v -0.0856899 0.288814 -0.147272
v -0.0130826 -0.313541 -0.146134
v -0.226632 -0.0947232 0.0698785
v 0.0211434 -0.286408 0.0494279
v 0.0657109 0.186437 -0.159414
v -0.189492 -0.0302235 0.132254
v -0.214618 2.573e-06 0.0945868
v -0.212379 -0.053104 0.083991
v 0.0788346 0.225277 0.0194968
v 0.100377 0.186143 0.0167697
v -0.036805 -0.321593 0.091864
v -0.003326 -0.294928 0.073391
v -0.041132 -0.284346 0.114406
v 0.020187 -0.357652 -0.135931
v 0.04107 -0.327676 -0.135849
v 0.060468 -0.37165 -0.0758775
v -0.0919992 -0.286311 0.123768
v -0.094971 -0.336084 0.110189
v -0.195237 0.285206 0.026424
v -0.0523495 -0.357272 0.087056
v -0.224419 -0.21878 -0.13603
v -0.234824 -0.181772 -0.13603
v 0.0470368 -0.222306 0.0566384
v -0.248807 0.08163 -0.075642
v -0.254323 0.041133 -0.075554
v -0.250127 0.0424265 -0.047978
v 0.13906 0.148704 -0.135333
v 0.131496 0.11191 -0.135565
v -0.243887 0.190016 -0.0315452
v 0.232263 0.00576858 -0.050367
v -0.206602 -0.27951 -0.076506
v -0.216993 -0.240548 -0.0762767
v -0.186909 0.0875005 0.130462
v -0.199284 0.0567755 0.107953
v -0.186189 0.060447 0.131915
v -0.0226402 -0.269156 -0.16321
v 0.079857 0.218526 -0.146671
v -0.051209 0.379428 0.00192247
v -0.107421 -0.35378 -0.13603
v -0.136551 -0.335192 -0.13603
v -0.111568 0.081117 0.134466
v 0.0941783 -0.105056 0.051549
v -0.148879 0.070782 0.13319
v -0.0142986 0.24085 -0.169348
v -0.026556 -0.25239 0.116441
v -0.158309 0.0637932 -0.16161
v -0.0153527 -0.106766 -0.19828
v 0.159486 0.130578 -0.0504978
v 0.259543 -0.028511 -0.075987
v 0.0294637 0.0438552 -0.18487
v -0.212106 -0.136453 0.0945419
v 0.058649 -0.111653 -0.172883
v -0.0185655 0.374348 0.0384945
v -0.234824 0.181772 -0.13603
v -0.245229 0.144763 -0.13603
v -0.189492 0.0302235 0.132254
v -0.150916 0.0226881 0.138976
v -0.136706 -0.279273 0.119589
v -0.239009 0.0456535 0.00621
v -0.244242 1.609e-07 0.0173389
v -0.232088 0.047587 0.032822
v 0.103855 -0.030713 0.103766
v 0.057374 -0.060547 0.076079
v 0.078159 -0.0660395 0.0514655
v -0.215669 0.0938431 0.0905987
v -0.204541 -0.280556 -0.0482835
v 0.144335 0.15246 -0.0208547
v -0.130084 0.0851071 -0.176886
v 0.002691 0.376863 -0.135979
v 0.0585472 -0.0687248 -0.173169
v -0.20248 -0.281602 -0.020061
v -0.226343 -0.242505 -0.017753
v 0.060468 0.37165 -0.0758775
v 0.04107 0.327676 -0.135849
v 0.020187 0.357652 -0.135931
v -0.050607 -0.378283 0.00320883
v 0.0926394 -0.278739 -0.103278
v -0.142618 -0.312302 -0.106522
v -0.090906 0.170675 0.135761
v -0.104199 -0.032256 -0.1939
v -0.177159 -0.222396 -0.13946
v -0.251895 -0.106909 -0.13603
v -0.258561 -0.069055 -0.13603
v -0.207158 -0.0927711 0.102345
v -0.0946131 -0.0711767 -0.197561
v -0.0860045 -0.045193 0.14039
v 0.163487 -0.054099 -0.0123991
v 0.082804 -0.340238 -0.075771
v 0.12031 -0.188343 -0.135444
v 0.101639 -0.227797 -0.135554
v -0.253256 0.0923545 -0.0365386
v 0.017329 -0.08448 0.127026
v 0.0327345 -0.054809 0.101631
v 0.043802 -0.037707 0.12687
v 0.0314116 0.243533 0.0617958
v -0.132918 -0.00743248 -0.17937
v -0.249076 -0.16511 -0.0217869
v 0.0255253 0.179175 -0.175311
v 0.038132 0.403061 -0.075984
v 0.009291 0.391939 -0.075898
v 0.15325 0.219167 -0.075556
v 0.16625 0.190438 -0.0755
v 0.21089 0.0169351 -0.0592708
v 0.232121 0.0526595 -0.049884
v 0.259543 0.028511 -0.075987
v -0.212379 0.053104 0.083991
v 0.0201341 -0.281873 -0.150633
v -0.131184 0.351042 -0.0166594
v 0.0230314 0.279266 0.0514774
v -0.150063 -0.18629 -0.151804
v -0.24329 -0.122127 -0.07573
v -0.123044 0.345823 0.0514062
v -0.251033 -0.124301 -0.0388754
v 0.21394 0.073435 -0.076076
v -0.147805 0.326736 0.0788549
v -0.248807 -0.08163 -0.075642
v -0.251668 -0.0835223 -0.0199355
v -0.250127 -0.0424265 -0.047978
v 0.16281 0.045338 -0.075066
v 0.167463 0.090676 -0.07474
v -0.24593 -0.04372 -0.020402
v -0.260656 -0.0345275 -0.13603
v -0.177279 0.218185 -0.131625
v -0.213641 -0.0389371 -0.139447
v -0.239009 -0.0456535 0.00621
v -0.184335 0.290558 0.067104
v -0.107421 0.35378 -0.13603
v -0.136551 0.335192 -0.13603
v -0.123409 0.327702 -0.0760273
v -0.081812 0.351798 -0.075788
v 0.082804 0.340238 -0.075771
v 0.120349 0.18825 -0.135443
v 0.146161 0.180887 -0.102396
v 0.141166 0.150195 -0.116088
v -0.246639 0.0845481 0.00681826
v -0.24593 0.04372 -0.020402
v -0.01955 0.380818 -0.075812
v -0.0297809 0.39009 -0.0332893
v 0.0800257 -0.303201 -0.035834
v 0.138505 -0.0532757 0.0158458
v -0.0647545 -0.329284 -0.134478
v 0.118772 -0.0490435 0.0443816
v 0.236602 0.0449014 -0.0542178
v -0.156246 0.176538 -0.149844
v -0.251685 0.119365 -0.00360881
v -0.157923 0.103342 -0.15892
v 0.149771 0.153082 -0.09889
v 0.162961 0.157049 -0.085109
v 0.232121 -0.0526595 -0.049884
v 0.17925 -0.16171 -0.075444
v 0.173341 -0.126209 -0.075103
v -0.0857585 0.152238 -0.192917
v -0.121679 0.000780452 0.140865
v 0.062181 -0.331385 -0.033396
v 0.158157 0 -0.075392
v 0.162795 -0.045354 -0.075077
v 0.213993 -0.049747 -0.021659
v 0.207807 -0.0227652 -0.0569909
v 0.003211 0 0.127325
v -0.0456459 0.0380431 0.138061
v -0.220813 -0.11909 -0.135233
v -0.144973 -0.113139 0.135944
v -0.135784 -0.155932 0.137856
v -0.0522128 -0.133911 -0.203789
v -0.0171979 -0.0485933 -0.201088
v -0.0644678 -0.0361485 -0.208288
v -0.150166 0.333401 -0.0441294
v -0.0930798 -0.147413 -0.188953
v -0.128649 -0.336485 0.0754442
v -0.19647 0.00696458 -0.144209
v -0.0164382 -0.15566 -0.192823
v -0.255148 3.55e-08 -0.0245058
v -0.23103 0.000151077 -0.128294
v -0.0595735 0.255172 -0.167493
v -0.072259 -0.366644 0.0384807
v -0.103744 -0.353218 -0.0447039
v 0.051832 -0.208027 -0.159954
v 0.0498698 -0.249746 -0.149949
v -0.0323675 0.0893656 -0.205069
v -0.13068 -0.22488 -0.153504
v -0.193758 0.177078 -0.130204
v -0.0910779 -0.130248 0.138775
v -0.0421612 0.21157 -0.183578
v -0.143925 -0.311161 0.107799
v -0.110788 0.357401 -0.0468932
v 0.079509 -0.026343 0.126557
v 0.178452 -0.000422504 0.0261712
v -0.0464373 0.304239 -0.150749
v -0.162847 -0.319075 0.0510811
v 0.121342 -0.0375575 -0.135911
v -0.13475 0.215037 -0.154407
v -0.16185 0.0204443 -0.162093
v -0.251895 0.106909 -0.13603
v -0.191706 -0.185384 -0.13562
v 0.152611 -0.125411 -0.100228
v 0.019332 -0.393632 -0.030261
v 0.0858586 -0.190313 -0.149826
v -0.049783 -0.205904 0.128816
v 0.017334 0.084475 0.127028
v 0.0438535 0.091751 0.101465
v 0.026563 0.119889 0.126868
v 0.101639 0.227797 -0.135554
v -0.222234 -0.0503455 0.0584065
v 0.01894 0.346424 0.014025
v 0.008112 0.364417 0.013619
v 0.007807 0.320676 0.043708
v -0.211058 0.130817 -0.128088
v -0.111568 -0.081117 0.134466
v -0.120329 -0.038271 0.139031
v 0.032739 0.054804 0.101634
v -0.168192 -0.29841 0.105556
v -0.184335 -0.290558 0.067104
v -0.194812 0.298015 -0.13603
v -0.165682 0.316603 -0.13603
v -0.074258 0.091452 0.135741
v 0.123931 0.075115 -0.135796
v -0.0518819 0.197538 0.129876
v -0.247436 0.15517 0.00679343
v -0.074889 0.253873 0.126727
v -0.0937427 0.212184 0.132403
v -0.219935 0.0817993 -0.12762
v -0.128037 0.291349 -0.137992
v -0.258561 0.069055 -0.13603
v -0.24043 0.190612 0.015226
v -0.23174 0.229447 0.000835013
v -0.152626 -0.106612 -0.161354
v -0.074258 -0.091452 0.135741
v 0.152171 -0.08643 -0.0500175
v 0.13691 -0.082152 -0.025273
v -0.093226 -0.352439 0.072731
v 0.147704 0.187412 -0.0464893
v 0.163699 0.157702 -0.049379
v -0.254323 0 -0.075554
v 0.0204369 -0.180473 -0.176511
v -0.127837 0.35268 0.0175647
v 0.0861326 -0.25025 -0.00636464
v -0.139757 -0.342691 -0.0297488
v 0.0509492 0.255983 0.0327139
v 0.117927 -0.076842 0.0007895
v 0.0384501 0.300119 0.019025
v 0.0623604 0.300456 -0.0113499
v 0.23019 -0.0381239 -0.0483408
v 0.213993 0.049747 -0.021659
v 0.098944 -0.071532 0.026852
v -0.14038 0.134872 -0.165838
v -0.174777 -0.317922 -0.00884891
v 0.0812254 -0.190858 0.0360327
v 0.147704 -0.187412 -0.0464893
v 0.13171 -0.217123 -0.0435997
v 0.15325 -0.219167 -0.075556
v 0.01894 -0.346424 0.014025
v 0.007807 -0.320676 0.043708
v -0.216466 -0.0826731 -0.133339
v -0.0510805 0.170509 -0.194076
v 0.0978703 -0.275017 -0.038272
v 0.173193 0.042866 0.031474
v -0.181651 0.310274 -0.0294138
v 0.0604744 -0.158496 -0.166399
v 0.117927 0.076842 0.0007895
v -0.13113 -0.198354 0.134551
v -0.217888 0.248503 0.0371084
v -0.0790273 0.365681 0.0357725
v -0.119118 0.170844 -0.171992
v 0.038132 -0.403061 -0.075984
v 0.028732 -0.398347 -0.0531225
v 0.009291 -0.391939 -0.075898
v 0.0736561 0.264862 -0.000820662
v -0.0424118 -0.0187262 0.137093
v -0.160345 0.322739 0.0410454
v 0.078159 0.0660395 0.0514655
v -0.198819 0.258304 0.0749287
v -0.148499 0.322052 -0.104086
v 0.00939451 -0.231944 -0.167044
v -0.0118863 0.172306 -0.189489
v 0.0677789 0.178474 0.057309
v 0.057374 0.060547 0.076079
v 0.103777 0.0308165 0.103757
v -0.215224 -0.255819 0.032028
v -0.0525493 -0.0825215 -0.208789
v -0.159353 -0.258612 -0.134835
v 0.045284 0.00401733 -0.178743
v -0.0136315 0.0465941 -0.200049
v -0.173376 -0.266146 0.110937
v -0.081812 -0.351798 -0.075788
v -0.123409 -0.327702 -0.0760273
v 0.118753 0 -0.136027
v 0.043064 -0.124505 0.110102
v 0.150697 -0.0389745 0.056224
v 0.034813 -0.122197 0.118485
v 0.074336 -0.133241 0.073148
v -0.186293 -0.144514 0.126383
v -0.0823203 -0.000749134 0.141369
v -0.015526 0.280114 -0.158658
v 0.0792214 0.0380237 -0.165052
v 0.0804593 -0.00520511 -0.160599
v 0.0201911 0.261317 -0.156617
v -0.094971 0.336084 0.110189
v -0.070284 0.348257 0.110337
v 0.0202263 0.297458 -0.146748
v -0.108729 0.251824 -0.154734
v 0.0754483 -0.225609 0.0229434
v -0.101127 -0.309118 -0.133676
v -0.0641613 -0.256638 -0.164733
v 0.171475 0.159706 -0.062411
v 0.019869 -0.209717 0.091747
v -0.206602 0.27951 -0.076506
v 0.21394 -0.073435 -0.076076
v 0.061953 -0.2977 -0.135766
v 0.079353 0.02655 0.12654
v 0.095598 0 0.1273
v 0.13951 -2.945e-06 -0.106944
v 0.00885667 -0.164056 0.123392
v -0.12778 -0.345743 0.0265841
v -0.209615 -0.258397 -0.13603
v -0.229646 -0.21592 0.0384538
v 0.00409428 0.00195116 -0.194402
v -0.050681 -0.366308 -0.0758
v -0.155758 -0.0242202 0.13713
v -0.192796 0 0.132593
v -0.186189 -0.060447 0.131915
v -0.186909 -0.0875005 0.130462
v -0.148879 -0.070782 0.13319
v -0.165682 -0.316603 -0.13603
v -0.00471866 0.320654 -0.145441
v -0.034415 -0.366287 0.063775
v -0.045677 -0.381976 -0.136028
v -0.014805 -0.396074 -0.136027
v -0.0341425 -0.06166 0.135799
v 0.008095 -0.049071 0.127183
v 0.052519 -0.183846 0.0707982
v 0.0314665 -0.167111 0.100924
v -0.108076 0.117653 -0.186391
v -0.045677 0.381976 -0.136028
v -0.050681 0.366308 -0.0758
v 0.167432 -0.090708 -0.074762
v -0.0877496 -0.179368 0.136928
v -0.0185655 -0.374348 0.0384945
v -0.165005 -0.303606 -0.0762667
v -0.094213 0.350764 0.0773282
v -0.227383 0.201586 -0.0760473
v 0.021939 -0.133509 -0.18405
v 0.050156 0.367223 -0.05469
v 0.0932637 -0.0892945 -0.157633
v -0.209878 0.179004 0.0891847
v 0.162961 -0.157049 -0.085109
v 0.16625 -0.190438 -0.0755
v -0.254323 -0.041133 -0.075554
v -0.181758 0.204178 0.120038
v -0.145669 0.222898 0.127466
v -0.242499 -0.171722 0.0284963
v -0.165005 0.303606 -0.0762667
v -0.119658 0.323911 0.110042
v -0.0702474 -0.373829 -0.037808
v 0.146457 -8.69363e-05 0.0571959
v 0.150697 0.0389745 0.056224
v 0.128202 0.035083 0.080974
v 0.201017 -0.0578908 -0.028633
v 0.173356 0.126193 -0.075092
v -0.002716 -0.382409 0.013214
v 0.193593 -0.0463065 0.0049075
v 0.173193 -0.042866 0.031474
v -0.24329 0.122127 -0.07573
v 0.1014 -0.310542 -0.075712
v -0.0918803 0.126544 0.13733
v 0.250249 0.055572 -0.078109
v 0.099559 0.143898 -0.154919
v -0.145776 0.1108 0.135971
v -0.137365 0.150592 0.135719
v 0.115715 -0.246833 -0.04071
v 0.193593 0.0463065 0.0049075
v 0.204525 -0.00536816 -0.0162118
v -0.0869114 -0.224095 -0.172416
v -0.01955 -0.380818 -0.075812
v -0.181758 -0.204178 0.120038
v 0.025417 0.219821 -0.165652
v -0.204916 -0.237485 0.0793115
v -0.232088 -0.047587 0.032822
v -0.070284 -0.348257 0.110337
v -0.00378718 0.205615 -0.178348
v -0.235525 -0.203551 -0.0410494
v -0.234215 0.164048 0.0513526
v 0.074336 0.133241 0.073148
v -0.245229 -0.144763 -0.13603
v -0.076549 -0.367878 -0.136029
v -0.249478 -0.128052 0.00647601
v 0.123931 -0.075115 -0.135796
v 0.128202 -0.035083 0.080974
v -0.101699 0.0417059 0.140495
v -0.0826146 -0.108966 -0.198948
v 0.002691 -0.376863 -0.135979
v -0.0717418 0.375838 -0.0399621
v 0.13898 -0.14889 -0.135334
v 0.0965551 -0.128221 -0.156069
v 0.102779 -0.162782 -0.152839
v 0.008104 0.049061 0.127189
v -0.0525035 0.128545 -0.199839
v -0.239568 0.121057 0.0438869
v -0.0611186 -0.183788 -0.192174
v 0.0547458 0.0779017 -0.174817
v 0.050156 -0.367223 -0.05469
v 0.144335 -0.15246 -0.0208547
v -0.186057 0.0945464 -0.141312
v 0.081796 -0.262749 -0.13566
v -0.0400825 -0.228603 -0.17839
v 0.034813 0.122197 0.118485
v -0.0725926 0.328359 -0.131071
v -0.162342 0.329308 0.000338062
v -0.236369 -0.134826 0.0532517
v -0.0971402 -0.365744 -0.00398496
v -0.237774 0.162624 -0.075818
v -0.036805 0.321593 0.091864
v -0.034415 0.366287 0.063775
v -0.0523495 0.357272 0.087056
v 0.0509836 -0.0925565 0.0949867
v -0.100941 0.273174 0.124895
v -0.0986768 0.306124 0.117817
v -0.17856 -0.233882 0.116319
v -0.129055 -0.24109 0.129226
v -0.2524 0.142504 -0.0378441
v 0.0597525 -0.333199 -0.103679
v -0.0981615 0.064626 -0.19599
v 0.0505646 -0.261244 0.0302225
v -0.0403875 0.00452697 -0.205465
v -0.116384 0.244031 0.129312
v -0.138752 -0.292523 -0.131206
v -0.226346 0.206324 0.0488338
v -0.205651 0.220463 0.0823958
v 0.262751 0 -0.075645
v 0.149771 -0.153082 -0.09889
v -0.0738038 0.0975256 -0.202993
v 0.121342 0.0375575 -0.135911
v -0.0344561 0.346224 -0.140096
v -0.187629 -0.114554 0.12901
v 0.0082715 -0.252322 0.082569
v 0.124972 -0.147219 0.00766967
v 0.105608 -0.141977 0.036194
v -0.184957 -0.174474 0.123757
v -0.0616196 -0.292455 -0.150895
v 0.0604869 -0.0310743 -0.172602
v 0.0256859 -0.0383329 -0.186262
v -0.0293971 -0.350463 -0.136728
v -0.136608 0.18857 0.133105
v -0.195237 -0.285206 0.026424
v -0.199284 -0.0567755 0.107953
v -0.194812 -0.298015 -0.13603
v -0.0170541 -0.196553 -0.183242
v -0.014805 0.396074 -0.136027
v -0.17856 0.233882 0.116319
v -0.007044 0.11041 0.129826
v -0.040336 0.151947 0.13272
v 0.0220537 -0.373968 -0.101476
v -0.0577419 0.050893 -0.206809
v -0.239817 -0.200927 -0.00189798
v -0.0288219 -0.386538 -0.0324562
v 0.136623 -0.250006 -0.0756045
v 0.152186 0.086414 -0.0500065
v -0.076549 0.367878 -0.136029
v -0.167649 -0.148139 -0.14644
v 0.0163642 0.14132 -0.185644
v 0.0540405 0.148983 -0.171046
v 0.04056 -0.338904 -0.009686
v 0.008112 -0.364417 0.013619
v 0.008308 -0.38802 -0.0085235
v 0.0785925 -0.162317 0.0542086
v 0.0404313 0.114176 -0.179897
v 0.0707205 0.114251 -0.167885
v 0.04056 0.338904 -0.009686
v 0.008308 0.38802 -0.0085235
v -0.131459 -0.147429 -0.168127
v 0.0314665 0.167111 0.100924
v 0.1014 0.310542 -0.075712
v 0.061953 0.2977 -0.135766
v 0.0082715 0.252322 0.082569
v -0.026556 0.25239 0.116441
v -0.00884967 0.208223 0.119917
v 0.152347 0.125368 -0.100043
v 0.00885667 0.164056 0.123392
v -0.003326 0.294928 0.073391
v -0.055708 0.316301 0.112372
v -0.206227 -0.150164 -0.133863
v 0.141166 -0.150195 -0.116088
v 0.171475 -0.159706 -0.062411
v -0.041132 0.284346 0.114406
v -0.0883065 0.207238 -0.177649
v 0.0927129 -0.045627 -0.157711
v -0.158498 0.260707 -0.13335
v -0.209615 0.258397 -0.13603
v -0.117076 -0.106746 -0.182062
v -0.177129 -0.0697153 -0.149379
v -0.0899487 0.0124568 -0.201101
v -0.0944022 0.36646 -0.00680132
v -0.143925 0.311161 0.107799
v 0.081796 0.262749 -0.13566
v 0.0522554 0.242763 -0.150902
v 0.019869 0.209717 0.091747
v 0.098944 0.071532 0.026852
v -0.262751 0 -0.13603
v -0.189822 0.0510859 -0.144209
v -0.20248 0.281602 -0.020061
v -0.040651 -0.100931 0.132783
v 0.110122 -0.251741 -0.102774
v 0.119995 -0.280845 -0.075653
v -0.136589 -0.060382 -0.174677
v 0.17925 0.16171 -0.075444
v 0.131455 -0.112002 -0.135565
v -0.234903 0.0801697 0.0486284
v -0.224419 0.21878 -0.13603
v -0.186643 -0.111671 -0.140882
v 0.043729 0.037805 0.126864
v -0.040651 0.100931 0.132783
v 0.13691 0.082152 -0.025273
v 0.136623 0.250006 -0.0756045
v 0.010062 0.0896497 -0.191924
v 0.043064 0.124505 0.110102
v 0.026563 -0.119889 0.126868
v 0.062181 0.331385 -0.033396
v -0.227383 -0.201586 -0.0760473
v -0.0804089 -0.236657 0.130621
v -0.00884967 -0.208223 0.119917
v -0.174396 0.137658 -0.144541
v 0.0956595 0.0840665 -0.156999
v -0.237774 -0.162624 -0.075818
v -0.128076 0.0383839 -0.181464
v -0.216509 0.136322 0.0882383
v 0.119995 0.280845 -0.075653
v -0.169377 -0.0259335 -0.158263
v 0.104771 0.261857 -0.101321
v 0.0213944 -0.0846688 -0.187301
v 0.019332 0.393632 -0.030261
v -0.218569 -0.184013 0.0785206
v -0.224939 0.0407434 -0.135889
v 0.111635 -0.197487 -0.00443991
v -0.260656 0.0345275 -0.13603
v 0.161776 -0.124349 -0.0435054
v 0.163699 -0.157702 -0.049379
v -0.230286 -4.99e-07 0.0527217
v -0.222234 0.0503455 0.0584065
v 0.0628341 -0.291046 -0.00687829
v -0.106593 -0.265123 -0.149561
v -0.119658 -0.323911 0.110042
v 0.035094 -0.306695 0.019537
v 0.175954 0.0967441 -0.0750287
v -0.184957 0.174474 0.123757
v -0.0405174 -0.155778 0.132682
v -0.007044 -0.11041 0.129826
v -0.241222 -0.0882072 0.0288467
v -0.109395 -0.186571 -0.173721
v 0.028732 0.398347 -0.0531225
v 0.115715 0.246833 -0.04071
v -0.094971 -0.336084 0.110189
v 0.250249 0.055572 -0.078109
v 0.21394 0.073435 -0.076076
v -0.239009 0.0456535 0.00621
v 0.259543 0.028511 -0.075987
v -0.107421 0.35378 -0.13603
v 0.259543 -0.028511 -0.075987
v -0.24593 0.04372 -0.020402
v -0.250127 0.0424265 -0.047978
v -0.216993 -0.240548 -0.0762767
v -0.136551 0.335192 -0.13603
v -0.165682 0.316603 -0.13603
v 0.152171 -0.08643 -0.0500175
v 0.250249 -0.055572 -0.078109
v 0.13691 -0.082152 -0.025273
v 0.15325 -0.219167 -0.075556
v 0.020187 -0.357652 -0.135931
v 0.04107 -0.327676 -0.135849
v -0.003326 -0.294928 0.073391
v 0.009291 0.391939 -0.075898
v 0.002691 0.376863 -0.135979
v -0.136551 -0.335192 -0.13603
v -0.209615 0.258397 -0.13603
v -0.189492 -0.0302235 0.132254
v -0.192796 0 0.132593
v 0.020187 0.357652 -0.135931
v -0.01955 0.380818 -0.075812
v -0.045677 0.381976 -0.136028
v 0.167432 -0.090708 -0.074762
v -0.206602 0.27951 -0.076506
v -0.194812 -0.298015 -0.13603
v 0.162795 -0.045354 -0.075077
v 0.12031 -0.188343 -0.135444
v 0.121342 -0.0375575 -0.135911
v 0.16281 0.045338 -0.075066
v -0.0185655 0.374348 0.0384945
v 0.0978703 -0.275017 -0.038272
v -0.248807 -0.08163 -0.075642
v -0.254323 -0.041133 -0.075554
v -0.070284 -0.348257 0.110337
v -0.187629 0.114554 0.12901
v -0.186909 0.0875005 0.130462
v 0.009291 -0.391939 -0.075898
v -0.014805 -0.396074 -0.136027
v 0.002691 -0.376863 -0.135979
v -0.081812 0.351798 -0.075788
v -0.050681 0.366308 -0.0758
v -0.173376 0.266146 0.110937
v -0.034415 0.366287 0.063775
v 0.082804 -0.340238 -0.075771
v 0.038132 -0.403061 -0.075984
v -0.254323 -0.041133 -0.075554
v -0.250127 -0.0424265 -0.047978
v 0.04107 0.327676 -0.135849
v 0.061953 -0.2977 -0.135766
v 0.250249 0.055572 -0.078109
v 0.136623 -0.250006 -0.0756045
v 0.120349 0.18825 -0.135443
v -0.254323 0.041133 -0.075554
v 0.04056 -0.338904 -0.009686
v 0.008112 0.364417 0.013619
v 0.121342 0.0375575 -0.135911
v 0.131496 0.11191 -0.135565
v 0.167463 0.090676 -0.07474
v -0.206602 -0.27951 -0.076506
v 0.13898 -0.14889 -0.135334
v 0.1014 -0.310542 -0.075712
v -0.194812 0.298015 -0.13603
v 0.101639 0.227797 -0.135554
v -0.168192 0.29841 0.105556
v 0.019869 0.209717 0.091747
v 0.119995 0.280845 -0.075653
v 0.081796 0.262749 -0.13566
v -0.070284 -0.348257 0.110337
v -0.055708 -0.316301 0.112372
v -0.0523495 -0.357272 0.087056
v -0.036805 -0.321593 0.091864
v -0.070284 -0.348257 0.110337
v -0.199284 0.0567755 0.107953
v -0.186189 0.060447 0.131915
v 0.136623 0.250006 -0.0756045
v 0.13171 0.217123 -0.0435997
v 0.13906 0.148704 -0.135333
v -0.002716 0.382409 0.013214
v 0.01894 0.346424 0.014025
v 0.158157 0 -0.075392
v 0.038132 0.403061 -0.075984
v -0.24593 -0.04372 -0.020402
v -0.107421 -0.35378 -0.13603
v -0.094971 0.336084 0.110189
v -0.216993 0.240548 -0.0762767
v 0.017334 0.084475 0.127028
v 0.026563 0.119889 0.126868
v 0.0082715 -0.252322 0.082569
v 0.019869 -0.209717 0.091747
v 0.262751 0 -0.075645
v -0.234824 -0.181772 -0.13603
v -0.245229 -0.144763 -0.13603
v -0.173376 -0.266146 0.110937
v -0.168192 -0.29841 0.105556
v -0.081812 -0.351798 -0.075788
v 0.060468 0.37165 -0.0758775
v 0.038132 0.403061 -0.075984
v 0.050156 0.367223 -0.05469
v 0.038132 0.403061 -0.075984
v 0.028732 0.398347 -0.0531225
v 0.01894 -0.346424 0.014025
v -0.181758 -0.204178 0.120038
v 0.019332 0.393632 -0.030261
v -0.232088 0.047587 0.032822
v -0.222234 0.0503455 0.0584065
v -0.00884967 -0.208223 0.119917
v -0.204541 0.280556 -0.0482835
v 0.095598 0 0.1273
v 0.079353 0.02655 0.12654
v 0.13691 0.082152 -0.025273
v 0.144335 0.15246 -0.0208547
v 0.124972 0.147219 0.00766967
v -0.045677 -0.381976 -0.136028
v -0.258561 -0.069055 -0.13603
v -0.227383 -0.201586 -0.0760473
v -0.002716 -0.382409 0.013214
v -0.165005 0.303606 -0.0762667
v -0.206602 0.27951 -0.076506
v 0.008308 0.38802 -0.0085235
v 0.079509 -0.026343 0.126557
v 0.232121 -0.0526595 -0.049884
v 0.250249 -0.055572 -0.078109
v 0.21394 -0.073435 -0.076076
v 0.147704 0.187412 -0.0464893
v 0.16625 0.190438 -0.0755
v -0.237774 -0.162624 -0.075818
v -0.24329 -0.122127 -0.07573
v 0.119995 -0.280845 -0.075653
v -0.040651 -0.100931 0.132783
v -0.20248 0.281602 -0.020061
v -0.254323 0 -0.075554
v -0.260656 -0.0345275 -0.13603
v -0.111568 -0.081117 0.134466
v -0.026556 -0.25239 0.116441
v 0.17925 0.16171 -0.075444
v -0.041132 0.284346 0.114406
v -0.036805 0.321593 0.091864
v -0.055708 0.316301 0.112372
v 0.0314665 0.167111 0.100924
v -0.074258 -0.091452 0.135741
v 0.15325 0.219167 -0.075556
v 0.008308 -0.38802 -0.0085235
v 0.0082715 0.252322 0.082569
v 0.00885667 0.164056 0.123392
v -0.007044 0.11041 0.129826
v -0.148879 -0.070782 0.13319
v -0.239009 -0.0456535 0.00621
v -0.224419 0.21878 -0.13603
v 0.16625 -0.190438 -0.0755
v 0.101639 -0.227797 -0.135554
v 0.150697 -0.0389745 0.056224
v 0.173193 -0.042866 0.031474
v 0.150697 0.0389745 0.056224
v 0.026563 0.119889 0.126868
v 0.081796 -0.262749 -0.13566
v 0.062181 -0.331385 -0.033396
v 0.0800257 -0.303201 -0.035834
v -0.041132 -0.284346 0.114406
v 0.007807 0.320676 0.043708
v -0.003326 0.294928 0.073391
v -0.070284 0.348257 0.110337
v -0.199284 -0.0567755 0.107953
v -0.186909 -0.0875005 0.130462
v -0.186189 -0.060447 0.131915
v -0.148879 0.070782 0.13319
v -0.111568 0.081117 0.134466
v 0.167432 -0.090708 -0.074762
v 0.162961 -0.157049 -0.085109
v 0.173341 -0.126209 -0.075103
v 0.043064 0.124505 0.110102
v 0.074336 0.133241 0.073148
v 0.141166 -0.150195 -0.116088
v 0.149771 -0.153082 -0.09889
v -0.262751 0 -0.13603
v 0.060468 -0.37165 -0.0758775
v -0.184335 -0.290558 0.067104
v 0.147704 -0.187412 -0.0464893
v 0.144335 -0.15246 -0.0208547
v 0.079509 -0.026343 0.126557
v 0.103855 -0.030713 0.103766
v -0.00884967 0.208223 0.119917
v -0.040651 0.100931 0.132783
v -0.251895 -0.106909 -0.13603
v 0.128202 0.035083 0.080974
v 0.128202 -0.035083 0.080974
v -0.189492 0.0302235 0.132254
v 0.098944 0.071532 0.026852
v 0.105608 0.141977 0.036194
v 0.13898 -0.14889 -0.135334
v -0.232088 -0.047587 0.032822
v 0.123931 0.075115 -0.135796
v -0.014805 0.396074 -0.136027
v -0.123409 0.327702 -0.0760273
v -0.195237 -0.285206 0.026424
v -0.222234 -0.0503455 0.0584065
v -0.070284 0.348257 0.110337
v -0.074258 0.091452 0.135741
v -0.187629 -0.114554 0.12901
v 0.123931 -0.075115 -0.135796
v 0.078159 -0.0660395 0.0514655
v 0.074336 -0.133241 0.073148
v -0.227383 0.201586 -0.0760473
v -0.234824 0.181772 -0.13603
v -0.002716 0.382409 0.013214
v 0.105608 -0.141977 0.036194
v 0.098944 -0.071532 0.026852
v 0.118753 0 -0.136027
v -0.050681 -0.366308 -0.0758
v -0.212379 -0.053104 0.083991
v 0.167432 -0.090708 -0.074762
v 0.13906 0.148704 -0.135333
v 0.141166 0.150195 -0.116088
v 0.149771 0.153082 -0.09889
v 0.162961 0.157049 -0.085109
v 0.17925 0.16171 -0.075444
v 0.0314665 -0.167111 0.100924
v 0.00885667 -0.164056 0.123392
v -0.184957 0.174474 0.123757
v -0.181758 0.204178 0.120038
v 0.057374 -0.060547 0.076079
v 0.131455 -0.112002 -0.135565
v 0.01894 0.346424 0.014025
v 0.04056 0.338904 -0.009686
v -0.165682 -0.316603 -0.13603
v -0.258561 0.069055 -0.13603
v -0.260656 0.0345275 -0.13603
v -0.254323 0.041133 -0.075554
v -0.245229 0.144763 -0.13603
v -0.237774 0.162624 -0.075818
v -0.212379 0.053104 0.083991
v -0.034415 -0.366287 0.063775
v 0.167463 0.090676 -0.07474
v 0.173356 0.126193 -0.075092
v -0.209615 -0.258397 -0.13603
v -0.165005 -0.303606 -0.0762667
v -0.204541 -0.280556 -0.0482835
v -0.251895 0.106909 -0.13603
v -0.248807 0.08163 -0.075642
v -0.186189 0.060447 0.131915
v -0.186189 0.060447 0.131915
v -0.24329 0.122127 -0.07573
v -0.0523495 0.357272 0.087056
v 0.103777 0.0308165 0.103757
v 0.057374 0.060547 0.076079
v 0.079353 0.02655 0.12654
v -0.17856 0.233882 0.116319
v -0.195237 0.285206 0.026424
v 0.043802 -0.037707 0.12687
v 0.034813 -0.122197 0.118485
v 0.026563 -0.119889 0.126868
v 0.017329 -0.08448 0.127026
v 0.163699 -0.157702 -0.049379
v 0.026563 0.119889 0.126868
v -0.184335 0.290558 0.067104
v -0.168192 0.29841 0.105556
v 0.008095 -0.049071 0.127183
v 0.003211 0 0.127325
v -0.003326 0.294928 0.073391
v 0.061953 0.2977 -0.135766
v -0.0185655 -0.374348 0.0384945
v 0.008112 -0.364417 0.013619
v 0.007807 -0.320676 0.043708
v 0.117927 0.076842 0.0007895
v 0.193593 0.0463065 0.0049075
v 0.171475 -0.159706 -0.062411
v 0.043064 0.124505 0.110102
v 0.062181 0.331385 -0.033396
v 0.0800257 0.303201 -0.035834
v 0.082804 0.340238 -0.075771
v 0.078159 0.0660395 0.0514655
v -0.002716 -0.382409 0.013214
v 0.01894 -0.346424 0.014025
v 0.163699 0.157702 -0.049379
v 0.1014 0.310542 -0.075712
v -0.01955 -0.380818 -0.075812
v 0.019332 -0.393632 -0.030261
v 0.043729 0.037805 0.126864
v 0.163699 0.157702 -0.049379
v 0.117927 -0.076842 0.0007895
v -0.123409 -0.327702 -0.0760273
v 0.0978703 0.275017 -0.038272
v -0.143925 0.311161 0.107799
v -0.119658 0.323911 0.110042
v -0.070284 0.348257 0.110337
v 0.038132 -0.403061 -0.075984
v 0.050156 -0.367223 -0.05469
v 0.028732 -0.398347 -0.0531225
v 0.062181 -0.331385 -0.033396
v 0.17925 -0.16171 -0.075444
v -0.184957 -0.174474 0.123757
v -0.026556 0.25239 0.116441
v 0.115715 -0.246833 -0.04071
v 0.163699 -0.157702 -0.049379
v 0.034813 0.122197 0.118485
v -0.20248 -0.281602 -0.020061
v 0.173193 0.042866 0.031474
v -0.186293 -0.144514 0.126383
v -0.076549 0.367878 -0.136029
v 0.062181 0.331385 -0.033396
v -0.224419 -0.21878 -0.13603
v -0.17856 -0.233882 0.116319
v -0.003326 -0.294928 0.073391
v -0.206602 -0.27951 -0.076506
v -0.186189 -0.060447 0.131915
v -0.143925 -0.311161 0.107799
v -0.119658 -0.323911 0.110042
v -0.076549 -0.367878 -0.136029
v -0.168192 -0.29841 0.105556
v 0.13171 -0.217123 -0.0435997
v 0.124972 -0.147219 0.00766967
v 0.171475 0.159706 -0.062411
v -0.186293 0.144514 0.126383
v 0.17925 -0.16171 -0.075444
v 0.008095 -0.049071 0.127183
v 0.043064 -0.124505 0.110102
v 0.17925 0.16171 -0.075444
v 0.008104 0.049061 0.127189
v -0.007044 -0.11041 0.129826
v 0.17925 -0.16171 -0.075444
v -0.186189 -0.060447 0.131915
v 0.026563 -0.119889 0.126868
v 0.043064 -0.124505 0.110102
v 0.038132 -0.403061 -0.075984
v 0.026563 -0.119889 0.126868
v 0.008104 0.049061 0.127189
f 1 2 3
f 4 29 258
f 8 9 10
f 295 4 515
f 144 509 273
f 26 27 28
f 3 29 30
f 31 32 33
f 34 35 36
f 37 38 20
f 250 40 398
f 25 118 395
f 44 45 46
f 47 48 386
f 448 50 69
f 18 569 545
f 334 51 52
f 53 54 55
f 274 203 294
f 58 73 7
f 61 387 63
f 65 33 32
f 517 193 142
f 72 548 90
f 233 507 326
f 79 80 81
f 82 83 84
f 12 85 53
f 16 1 30
f 89 452 353
f 91 92 86
f 93 94 95
f 183 202 182
f 182 202 228
f 228 202 247
f 134 163 385
f 44 46 111
f 112 113 114
f 21 6 426
f 6 21 242
f 568 119 120
f 250 398 570
f 123 124 125
f 242 21 320
f 148 6 242
f 211 164 143
f 571 124 572
f 243 241 551
f 136 137 138
f 572 139 140
f 138 137 141
f 142 193 144
f 14 15 146
f 147 149 150
f 152 153 154
f 155 156 573
f 157 158 549
f 551 190 193
f 92 298 335
f 574 163 50
f 6 148 575
f 167 122 168
f 576 11 169
f 6 575 426
f 177 178 169
f 426 208 21
f 21 208 194
f 185 186 443
f 37 78 560
f 76 27 339
f 240 99 237
f 192 577 578
f 472 510 441
f 450 199 472
f 302 533 70
f 533 419 70
f 314 70 419
f 400 537 579
f 292 234 371
f 292 149 580
f 217 414 109
f 219 220 221
f 292 580 234
f 224 225 226
f 184 188 409
f 188 489 508
f 21 194 320
f 195 333 429
f 242 581 148
f 280 438 538
f 199 450 416
f 99 384 470
f 355 327 248
f 582 249 554
f 251 87 252
f 377 107 248
f 380 107 377
f 260 258 287
f 327 377 248
f 46 156 111
f 262 583 69
f 50 163 263
f 160 107 381
f 107 160 584
f 268 269 270
f 585 521 110
f 160 162 264
f 160 308 162
f 427 39 289
f 22 461 161
f 284 285 286
f 461 22 586
f 586 22 587
f 22 127 587
f 272 24 588
f 346 461 410
f 417 526 85
f 77 173 408
f 589 590 467
f 505 306 210
f 307 434 309
f 98 305 358
f 98 60 305
f 72 413 278
f 195 96 357
f 322 59 591
f 160 264 259
f 214 101 41
f 143 592 506
f 429 373 96
f 506 242 320
f 506 320 211
f 593 338 594
f 167 154 153
f 340 341 342
f 595 452 89
f 558 561 481
f 346 410 347
f 348 520 349
f 350 310 351
f 282 359 432
f 596 597 354
f 598 582 171
f 442 558 256
f 358 51 465
f 10 9 599
f 275 256 558
f 335 473 92
f 111 156 155
f 368 369 468
f 559 322 445
f 43 350 325
f 600 445 343
f 138 367 136
f 363 72 90
f 176 331 175
f 178 177 601
f 602 585 110
f 603 331 176
f 604 331 451
f 225 605 226
f 234 233 371
f 13 387 388
f 389 475 269
f 175 331 604
f 174 108 159
f 522 606 383
f 103 607 608
f 161 461 404
f 20 38 609
f 56 293 127
f 392 323 559
f 610 611 387
f 282 432 73
f 559 200 392
f 323 424 56
f 392 424 323
f 612 613 614
f 615 411 616
f 412 414 413
f 180 179 415
f 436 617 435
f 436 512 617
f 436 317 372
f 422 227 540
f 436 499 317
f 53 85 54
f 436 503 499
f 435 239 503
f 235 408 180
f 344 452 595
f 180 530 235
f 431 618 433
f 102 131 607
f 26 339 27
f 434 113 112
f 435 503 436
f 437 438 394
f 526 155 573
f 28 27 223
f 440 328 619
f 78 303 231
f 617 369 444
f 78 231 204
f 285 216 286
f 563 462 368
f 508 409 188
f 236 604 451
f 36 471 34
f 612 471 36
f 620 612 36
f 621 622 253
f 454 442 43
f 145 141 137
f 26 28 464
f 76 126 27
f 43 325 454
f 402 490 534
f 623 344 595
f 387 13 610
f 624 127 198
f 625 125 124
f 139 572 124
f 418 188 184
f 626 521 585
f 627 57 222
f 476 390 263
f 452 477 353
f 500 214 42
f 246 508 489
f 226 618 431
f 578 628 253
f 629 482 483
f 629 271 482
f 484 456 310
f 478 528 246
f 246 489 478
f 487 488 630
f 314 631 306
f 403 500 42
f 491 492 151
f 493 494 495
f 377 327 262
f 632 496 633
f 86 579 634
f 528 181 273
f 509 528 273
f 501 602 635
f 328 97 636
f 97 423 521
f 132 289 135
f 506 592 637
f 538 356 280
f 547 532 638
f 617 512 639
f 513 57 514
f 493 495 640
f 547 491 641
f 547 642 491
f 418 392 567
f 643 31 644
f 645 646 647
f 16 30 17
f 405 370 428
f 648 76 649
f 476 531 390
f 42 214 41
f 650 651 121
f 566 405 428
f 370 405 117
f 473 370 117
f 154 652 152
f 630 488 653
f 487 630 654
f 392 200 567
f 475 270 269
f 327 583 262
f 333 266 257
f 257 429 333
f 212 543 116
f 211 320 504
f 330 297 329
f 123 655 139
f 103 102 607
f 172 283 504
f 504 283 211
f 504 274 172
f 466 293 424
f 93 95 656
f 81 556 557
f 492 94 151
f 192 622 657
f 304 305 658
f 359 659 318
f 57 627 25
f 483 482 379
f 263 134 476
f 562 476 134
f 201 143 164
f 441 510 543
f 200 101 130
f 507 527 660
f 661 662 469
f 539 663 664
f 123 125 665
f 123 139 124
f 277 39 427
f 587 127 624
f 665 178 123
f 248 107 584
f 666 542 667
f 668 232 669
f 299 184 409
f 650 569 651
f 241 243 213
f 574 50 448
f 262 69 50
f 262 50 391
f 670 373 196
f 243 551 553
f 671 672 362
f 673 674 675
f 566 145 137
f 565 564 332
f 388 563 13
f 561 272 676
f 561 676 481
f 388 462 563
f 37 560 38
f 255 427 289
f 265 164 283
f 33 644 31
f 169 178 576
f 655 178 601
f 123 178 655
f 550 677 457
f 675 678 673
f 342 182 228
f 547 641 532
f 542 131 667
f 679 680 526
f 155 526 417
f 227 201 540
f 547 638 642
f 332 564 681
f 561 24 272
f 561 558 442
f 87 1 16
f 277 682 519
f 683 684 206
f 685 686 687
f 459 301 315
f 613 393 688
f 142 144 689
f 690 542 666
f 440 35 328
f 424 392 418
f 544 85 12
f 564 202 356
f 293 466 254
f 58 411 511
f 58 158 411
f 310 350 484
f 357 96 691
f 692 693 682
f 158 7 694
f 114 83 695
f 114 113 83
f 696 697 698
f 161 404 59
f 500 528 478
f 695 83 82
f 236 633 604
f 648 126 76
f 699 324 700
f 218 356 538
f 109 414 412
f 650 545 569
f 524 168 122
f 440 619 36
f 701 133 702
f 40 250 195
f 703 521 626
f 704 564 565
f 705 8 245
f 706 707 608
f 402 295 490
f 376 375 516
f 601 177 696
f 523 508 246
f 106 229 708
f 195 357 345
f 709 218 538
f 90 505 363
f 710 700 324
f 711 712 713
f 497 714 640
f 699 700 121
f 373 337 474
f 554 171 582
f 411 205 511
f 567 489 188
f 418 567 188
f 486 485 480
f 485 479 480
f 288 106 715
f 382 44 111
f 122 153 716
f 241 518 551
f 56 127 22
f 717 474 216
f 458 56 22
f 608 707 103
f 96 474 691
f 258 115 4
f 467 596 589
f 222 57 513
f 515 115 718
f 115 129 718
f 8 705 9
f 612 614 471
f 386 25 627
f 480 25 386
f 486 480 386
f 47 386 627
f 719 470 720
f 488 487 678
f 166 88 66
f 43 321 267
f 518 241 422
f 267 350 43
f 338 721 229
f 164 265 540
f 397 80 722
f 201 723 143
f 715 106 708
f 172 416 450
f 416 172 274
f 239 444 240
f 240 444 369
f 435 444 239
f 185 336 460
f 427 128 187
f 24 454 588
f 268 270 366
f 187 277 427
f 289 132 255
f 498 226 431
f 365 724 449
f 449 602 501
f 364 447 446
f 472 302 443
f 255 128 427
f 132 359 282
f 211 143 506
f 553 193 517
f 217 109 725
f 190 212 546
f 207 726 727
f 439 430 382
f 429 196 373
f 207 374 726
f 477 426 575
f 207 728 374
f 208 426 452
f 452 426 477
f 425 497 729
f 198 725 730
f 396 232 668
f 421 554 249
f 558 731 732
f 709 538 733
f 518 66 212
f 67 299 185
f 185 548 67
f 325 350 351
f 129 260 734
f 258 260 129
f 735 129 734
f 439 49 430
f 439 238 49
f 244 49 238
f 317 499 736
f 430 49 360
f 49 8 360
f 737 738 739
f 740 408 741
f 245 8 49
f 407 82 84
f 244 245 49
f 737 104 738
f 192 253 622
f 442 24 561
f 404 461 346
f 601 698 742
f 543 212 66
f 170 743 744
f 745 220 746
f 388 387 384
f 747 215 748
f 326 371 233
f 525 215 747
f 749 707 706
f 743 748 744
f 389 522 475
f 750 108 420
f 463 209 751
f 748 215 744
f 399 395 118
f 7 158 58
f 263 391 50
f 391 377 262
f 438 78 37
f 752 555 753
f 619 328 636
f 330 754 755
f 756 470 719
f 720 470 757
f 746 220 296
f 273 181 758
f 681 564 218
f 356 218 564
f 81 80 556
f 374 759 760
f 164 211 283
f 77 761 594
f 633 496 378
f 147 580 149
f 400 117 701
f 473 117 400
f 746 762 763
f 295 402 17
f 747 764 525
f 246 509 523
f 176 406 603
f 187 692 277
f 401 446 244
f 511 205 128
f 509 246 528
f 227 75 74
f 442 256 321
f 677 550 396
f 73 58 282
f 616 158 157
f 281 705 245
f 43 442 321
f 256 552 321
f 120 549 568
f 566 765 145
f 541 766 631
f 767 89 353
f 768 187 205
f 567 200 130
f 232 298 769
f 110 521 423
f 566 770 765
f 770 566 23
f 192 578 253
f 713 712 771
f 550 335 396
f 182 341 453
f 772 384 61
f 223 556 397
f 182 342 341
f 71 773 104
f 311 71 457
f 356 202 183
f 183 280 356
f 111 155 165
f 774 363 505
f 111 165 439
f 361 548 72
f 591 445 322
f 505 90 459
f 71 311 773
f 190 551 518
f 775 776 62
f 777 527 778
f 84 162 407
f 264 162 84
f 287 261 260
f 605 618 226
f 779 605 225
f 780 62 776
f 775 62 781
f 383 159 108
f 782 331 603
f 279 375 276
f 531 276 390
f 531 279 276
f 71 104 23
f 227 213 75
f 213 227 241
f 23 428 71
f 422 241 227
f 638 532 716
f 23 566 428
f 393 783 688
f 23 104 784
f 590 656 95
f 94 93 151
f 468 369 617
f 451 331 782
f 406 176 785
f 454 24 442
f 632 633 236
f 786 787 632
f 378 496 788
f 788 496 787
f 787 496 632
f 788 789 378
f 790 378 789
f 791 792 664
f 374 760 726
f 364 793 794
f 434 775 795
f 409 105 299
f 186 299 105
f 412 413 796
f 413 363 796
f 781 62 780
f 797 260 798
f 734 260 797
f 536 261 19
f 203 504 194
f 64 194 313
f 559 445 300
f 64 395 399
f 319 316 313
f 64 313 316
f 479 533 5
f 465 799 358
f 71 550 457
f 388 384 99
f 486 541 419
f 319 344 623
f 800 801 802
f 803 804 778
f 319 313 344
f 277 519 39
f 54 85 805
f 806 646 645
f 738 104 773
f 784 104 737
f 807 808 134
f 278 217 197
f 698 601 696
f 128 205 187
f 809 300 600
f 23 784 770
f 192 657 722
f 192 722 80
f 192 80 79
f 192 79 577
f 810 266 811
f 17 30 295
f 202 704 247
f 434 776 775
f 152 638 716
f 681 218 709
f 812 800 813
f 63 611 814
f 63 387 611
f 761 740 815
f 581 242 506
f 813 816 812
f 663 65 32
f 539 65 663
f 153 122 167
f 191 184 67
f 361 191 67
f 152 716 153
f 287 258 29
f 606 159 383
f 86 92 579
f 470 237 99
f 237 470 756
f 27 556 223
f 434 112 535
f 393 613 612
f 768 205 615
f 817 359 318
f 371 149 292
f 78 437 303
f 818 819 820
f 821 291 447
f 291 821 14
f 291 14 146
f 198 197 725
f 278 361 72
f 746 290 762
f 315 314 306
f 330 755 297
f 816 804 803
f 2 1 251
f 251 1 87
f 281 822 705
f 429 96 195
f 495 497 640
f 678 487 673
f 374 728 759
f 336 443 302
f 664 792 539
f 72 363 413
f 48 541 386
f 206 684 823
f 440 36 35
f 792 824 825
f 579 92 400
f 295 29 4
f 115 515 4
f 312 288 180
f 556 80 397
f 557 556 27
f 826 349 520
f 549 158 694
f 484 350 267
f 827 502 554
f 3 287 29
f 828 719 720
f 462 369 368
f 337 373 670
f 758 181 403
f 207 380 391
f 550 370 335
f 135 829 830
f 135 359 132
f 829 135 289
f 831 823 832
f 446 281 245
f 446 447 281
f 291 281 447
f 67 184 299
f 506 637 581
f 494 493 833
f 361 67 548
f 834 319 623
f 835 836 837
f 837 806 835
f 490 295 515
f 88 441 543
f 685 687 838
f 66 518 422
f 66 422 166
f 265 88 166
f 265 352 88
f 679 526 573
f 424 293 56
f 56 458 323
f 117 133 701
f 134 808 562
f 61 384 387
f 91 298 92
f 186 185 299
f 839 391 263
f 207 727 380
f 268 366 840
f 841 714 425
f 842 843 844
f 516 845 376
f 133 117 405
f 794 447 364
f 449 724 602
f 661 469 530
f 585 602 724
f 194 504 320
f 835 846 836
f 837 836 847
f 389 606 522
f 589 656 590
f 796 363 774
f 411 158 616
f 203 274 504
f 651 699 121
f 324 699 848
f 198 127 293
f 473 400 92
f 529 820 819
f 195 345 40
f 273 758 689
f 133 137 136
f 136 702 133
f 417 401 238
f 557 27 126
f 631 314 541
f 844 843 849
f 165 417 238
f 216 474 850
f 369 462 240
f 78 438 437
f 629 483 851
f 381 107 380
f 852 823 684
f 476 68 686
f 265 166 540
f 686 68 853
f 686 685 476
f 265 283 352
f 808 68 476
f 853 68 808
f 781 780 854
f 458 322 559
f 301 70 314
f 315 301 314
f 316 319 834
f 834 514 316
f 513 514 834
f 855 257 810
f 1 3 30
f 375 279 516
f 856 261 287
f 856 287 3
f 249 455 421
f 135 857 858
f 859 431 433
f 196 257 855
f 860 861 862
f 861 629 851
f 851 862 861
f 178 665 576
f 282 511 255
f 511 128 255
f 161 458 22
f 774 505 210
f 711 494 833
f 191 254 466
f 629 861 863
f 196 855 670
f 214 500 478
f 419 541 314
f 202 564 704
f 195 250 333
f 365 864 724
f 844 362 842
f 450 352 172
f 260 261 798
f 472 441 450
f 394 280 865
f 866 239 240
f 509 144 546
f 70 301 336
f 867 256 275
f 98 358 799
f 359 858 659
f 521 703 97
f 361 278 254
f 268 840 868
f 100 116 510
f 186 105 100
f 361 254 191
f 281 291 822
f 244 238 401
f 220 869 221
f 792 791 824
f 870 266 463
f 455 854 780
f 455 249 854
f 207 839 871
f 865 280 183
f 336 302 70
f 866 237 756
f 183 872 865
f 759 755 760
f 597 873 354
f 510 443 186
f 443 336 185
f 230 219 529
f 208 452 344
f 344 313 208
f 673 487 874
f 85 544 417
f 875 334 52
f 666 875 690
f 875 52 690
f 370 473 335
f 348 715 520
f 312 180 408
f 187 768 692
f 661 530 415
f 850 474 337
f 677 396 876
f 77 338 173
f 436 372 512
f 77 594 338
f 173 338 229
f 646 837 877
f 229 312 173
f 811 878 810
f 597 596 467
f 879 721 338
f 373 474 96
f 660 326 507
f 294 5 274
f 37 538 438
f 78 204 560
f 41 101 809
f 766 541 48
f 785 215 525
f 777 660 527
f 550 428 370
f 546 523 509
f 546 144 190
f 445 591 343
f 238 439 165
f 880 189 881
f 209 189 880
f 881 189 570
f 570 189 250
f 19 261 856
f 304 882 783
f 439 382 111
f 209 883 751
f 733 538 37
f 548 185 460
f 811 266 870
f 741 408 235
f 712 711 833
f 266 209 463
f 752 552 884
f 753 552 752
f 456 552 885
f 510 186 100
f 459 460 301
f 460 336 301
f 525 406 785
f 203 399 294
f 267 552 456
f 885 552 753
f 88 352 441
f 543 66 88
f 207 871 728
f 808 476 562
f 414 217 278
f 278 413 414
f 886 853 808
f 304 658 882
f 843 18 849
f 184 191 418
f 209 880 883
f 544 12 887
f 416 5 199
f 838 763 762
f 277 692 682
f 888 171 502
f 460 90 548
f 459 90 460
f 801 749 706
f 706 802 801
f 800 802 813
f 97 328 423
f 399 203 64
f 816 803 812
f 823 852 832
f 708 229 721
f 434 535 309
f 757 470 384
f 757 384 772
f 163 134 263
f 257 196 429
f 818 845 819
f 526 805 85
f 887 364 544
f 220 219 230
f 333 209 266
f 112 114 889
f 500 181 528
f 205 411 615
f 401 544 364
f 364 446 401
f 302 472 199
f 636 97 703
f 401 417 544
f 99 240 462
f 873 147 150
f 624 198 730
f 354 873 150
f 558 481 731
f 201 74 723
f 300 200 559
f 101 200 300
f 310 890 351
f 275 558 732
f 763 838 687
f 551 193 553
f 98 799 60
f 886 808 891
f 400 701 537
f 377 391 380
f 289 39 829
f 293 254 197
f 197 198 293
f 793 364 887
f 450 441 352
f 297 755 759
f 349 288 348
f 245 244 446
f 313 194 208
f 182 453 872
f 533 302 199
f 526 680 805
f 508 523 105
f 523 100 105
f 100 523 116
f 163 574 385
f 193 190 144
f 333 250 189
f 189 209 333
f 798 261 536
f 298 91 769
f 201 227 74
f 99 462 388
f 306 505 315
f 312 106 288
f 776 434 307
f 135 830 857
f 428 550 71
f 714 497 425
f 120 157 549
f 744 215 785
f 131 102 667
f 845 818 376
f 821 447 794
f 434 795 113
f 529 219 892
f 592 143 723
f 658 305 60
f 839 207 391
f 543 510 116
f 258 129 115
f 160 381 308
f 29 295 30
f 116 523 546
f 552 256 867
f 826 520 893
f 116 546 212
f 230 296 220
f 646 806 837
f 286 216 850
f 691 474 717
f 840 366 894
f 191 466 418
f 432 359 817
f 118 479 294
f 335 298 396
f 456 484 267
f 348 288 715
f 410 461 586
f 600 300 445
f 57 25 514
f 25 395 514
f 540 201 164
f 540 166 422
f 294 399 118
f 552 267 321
f 118 25 480
f 480 479 118
f 810 257 266
f 809 101 300
f 26 464 895
f 322 161 59
f 518 212 190
f 529 819 230
f 220 745 869
f 896 826 893
f 405 566 137
f 137 133 405
f 884 552 867
f 458 559 323
f 171 554 502
f 505 459 315
f 761 77 740
f 485 533 479
f 419 533 485
f 197 254 278
f 872 183 182
f 725 197 217
f 403 181 500
f 288 349 179
f 316 395 64
f 510 472 443
f 879 338 593
f 466 424 418
f 420 108 174
f 51 334 465
f 554 421 827
f 882 688 783
f 312 408 173
f 671 362 844
f 194 64 203
f 144 273 689
f 396 668 876
f 718 129 735
f 37 20 733
f 5 294 479
f 486 419 485
f 533 199 5
f 18 545 849
f 511 282 58
f 395 316 514
f 489 567 130
f 478 489 130
f 214 478 130
f 791 897 824
f 155 417 165
f 214 130 101
f 394 438 280
f 420 898 750
f 822 291 146
f 491 642 492
f 360 8 10
f 5 416 274
f 172 352 283
f 332 899 565
f 135 858 359
f 259 584 160
f 312 229 106
f 530 180 415
f 290 746 296
f 508 105 409
f 282 255 132
f 740 77 408
f 900 832 852
f 444 435 617
f 34 471 614
f 458 161 322
f 180 288 179
f 804 777 778
f 396 298 232
f 486 386 541
f 503 239 866
f 240 237 866
f 407 162 308
