v 0.0348517 -0.0756532 0.180826
v 0.278402 0.0678846 -0.154748
v -0.0721263 0.0877944 -0.294265
v -0.0849381 -0.0392757 0.131249
v -0.00814808 -0.073596 0.178745
v -0.329551 -0.053337 0.0321677
v 0.137217 0 -0.056837
v 0.123492 0 -0.082514
v 0.181074 -0.091478 0.220639
v 0.11035 0.037891 -0.11035
v 0.105021 0 -0.105021
v 0.228694 0.099015 -0.094728
v 0.185227 0.0854489 -0.0568626
v 0.24278 0.099015 -0.048292
v 0.142127 0 0.043114
v 0.130985 0 0.070013
v 0.070013 0 0.130985
v 0.043114 0 0.142127
v -0.0678875 -0.0911895 0.289269
v -0.0867656 -0.0524468 0.323555
v -0.272367 -0.0620432 0.178342
v 0.0385303 0.0874182 0.197275
v -0.218308 -0.099015 -0.116688
v -0.236878 -0.099015 -0.071856
v -0.23972 0.037891 0.239719
v -0.266598 0 0.218791
v -0.067609 0 0.339893
v -0.0338045 0 0.343222
v -0.071856 -0.099015 -0.236878
v -0.116688 -0.099015 -0.218308
v 0.320172 0 -0.13262
v 0.330032 0 -0.100115
v 0.155191 0.0412203 -0.0478875
v 0.0470136 0.0669388 0.163414
v 0.186443 0.0863387 0.067074
v -0.218308 0.099015 -0.116688
v -0.215068 -0.037891 -0.262062
v -0.21985 0 -0.267888
v -0.192534 0 -0.288147
v -0.224542 0.070014 0.224542
v -0.259949 0.0438616 0.207932
v -0.0282888 -0.0869841 -0.304286
v -0.181074 0.091478 -0.220639
v -0.191348 0.099015 -0.157036
v -0.343222 0 0.0338045
v -0.339893 0 0.067609
v -0.0979204 0.0546968 -0.319904
v 0.33864 0.036413 0.0129646
v 0.136149 -0.0437502 -0.0763303
v -0.123492 0 0.082514
v -0.105021 0 0.105021
v -0.11035 -0.037891 0.11035
v 0.21985 0 0.267888
v 0.215068 -0.037891 0.262062
v 0.243869 0 0.243869
v 0.245049 0 -0.245049
v 0.239719 0.037891 -0.239719
v 0.266598 0 -0.218791
v 0.116688 -0.099015 0.218308
v 0.339893 0 0.067609
v 0.330032 0 0.100115
v 0.0661351 0.0517474 -0.326728
v -0.0620467 0.0590755 -0.327835
v 0.0627629 0.0924883 0.280518
v -0.30114 -0.0535273 0.148473
v 0.0202388 -0.0376403 0.337484
v 0.28114 0.0921502 -0.00902362
v -0.151604 -0.0386132 0.0136967
v -0.0220225 -0.0352347 -0.154501
v 0.279501 -0.0705791 -0.162399
v 0.052146 -0.0912602 0.283537
v -0.0229101 -0.0580845 -0.333713
v -0.0184789 0.0541055 0.334883
v 0.00501933 0.0494034 0.160858
v 0.124002 -0.090855 0.262481
v 0.146288 -0.0601175 0.294924
v 0.217386 -0.085365 0.205761
v -0.130252 -0.0365749 -0.0813981
v 0.236878 -0.099015 0.071856
v -0.167133 0.0661873 0.00199199
v -0.056837 0 0.137217
v -0.014558 0 0.147807
v -0.250361 -0.0696405 -0.209469
v -0.267888 0 -0.21985
v -0.152376 0.0304725 -0.00773907
v 0.201828 0.091478 -0.201828
v 0.137524 0.099015 -0.20582
v 0.175035 0.099015 -0.175035
v 0.0146541 0.0894588 -0.207819
v -0.048292 -0.099015 0.24278
v 0.218308 0.099015 0.116688
v 0.18948 0.0915351 0.0976998
v 0.163075 0.0910272 0.128948
v -0.099003 -0.037891 -0.120635
v 0.13256 0.0316105 -0.0753753
v -0.23972 -0.037891 0.239719
v -0.245049 0 0.245049
v 0.082514 0 -0.123492
v -0.147807 0 0.014558
v -0.320172 0 0.132619
v -0.23837 0.0653986 -0.220225
v -0.33138 0.0417491 0.0457394
v -0.201452 0.070014 -0.24547
v -0.0830328 -0.074684 0.152032
v -0.125528 -0.070014 0.125528
v 0.148242 -0.091478 -0.148242
v 0.137524 -0.099015 -0.20582
v -0.142127 0 -0.043114
v 0.327083 0.0440866 -0.0882921
v -0.151174 0.0496094 -0.0396842
v 0.288147 0 -0.192534
v 0.280925 0.0363298 -0.188289
v 0.304159 0 -0.162577
v -0.196233 0.0849731 -0.0288722
v -0.170042 0.0772739 -0.0645528
v 0.123966 0.0927158 -0.253866
v 0.094728 0.099015 -0.228694
v 0.261895 0.038116 0.210904
v 0.173565 0.0484332 -0.285459
v 0.135135 0.0733754 -0.290768
v -0.343222 0 -0.0338045
v -0.339566 -0.0344955 -0.00259658
v 0.108431 0.092475 0.267381
v 0.0810882 -0.0497356 -0.133889
v 0.125528 -0.070014 -0.125528
v 0.183262 -0.081318 -0.239058
v 0.13262 0 -0.320172
v 0.210827 -0.0460856 -0.260091
v 0.179139 -0.0584406 -0.275821
v -0.176145 0.04394 -0.285922
v -0.296938 0.0910489 0.00103643
v -0.13262 0 -0.320172
v -0.209763 -0.0894051 -0.00952433
v -0.321001 -0.0684925 -0.00565967
v -0.330268 -0.03894 -0.0748338
v -0.327059 -0.0563089 -0.0392403
v -0.116688 0.099015 -0.218308
v -0.155935 0.0840044 -0.262545
v -0.043114 0 -0.142127
v -0.014558 0 -0.147807
v 0.157605 -0.0555692 -0.0120373
v 0.153886 -0.065897 -0.0495619
v 0.201452 -0.070014 0.24547
v 0.048292 -0.099015 -0.24278
v 0.0779381 -0.086155 -0.298614
v -0.1785 -0.0704294 0.00891256
v -0.184404 0.0376805 0.277526
v -0.162577 0 0.304159
v -0.0808132 0.0485452 0.132546
v -0.0409638 0.0554279 0.152984
v -0.030969 0.0429946 -0.334735
v 0.295568 -0.0765802 -0.121843
v 0.099003 0.037891 0.120635
v -0.163405 0.0704331 0.0436327
v -0.29092 0.0809667 0.112049
v -0.279201 0.0895045 0.0752572
v 0.174685 0.0895055 -0.106171
v 0.146804 0.0646764 -0.0852613
v 0.088622 0.0907467 -0.286088
v -0.304982 0.0506418 -0.137424
v -0.289156 0.0843178 -0.109312
v -0.282926 0.0617119 -0.164584
v -0.263559 0.0922535 -0.134344
v -0.162638 -0.0832671 -0.254306
v -0.134244 -0.0814541 -0.282277
v -0.11035 0.037891 0.11035
v -0.14213 -0.0289654 0.0569353
v -0.137217 0 0.056837
v -0.228694 0.099015 0.094728
v -0.24278 0.099015 0.048292
v 0.162577 0 0.304159
v 0.13262 0 0.320172
v 0.0139619 -0.0918352 0.288967
v -0.238369 -0.039821 -0.237517
v 0 -0.099015 0.247537
v -0.205819 0.099015 0.137524
v -0.0190234 0.0706225 -0.177636
v -0.064855 -0.046592 -0.144856
v -0.070013 0 -0.130985
v 0.191348 0.099015 0.157036
v 0.132998 0.091478 0.162058
v 0.160586 0.0828938 -0.247481
v 0.196781 0.0727917 -0.250551
v 0.125528 0.070014 -0.125528
v -0.295092 0.0916982 -0.0418057
v -0.236878 0.099015 -0.071856
v -0.300783 0.0863242 -0.0786727
v 0.0368895 0.0716096 -0.172558
v -0.135196 0.0518506 -0.303138
v -0.099003 0.037891 -0.120635
v -0.082514 0 0.123492
v -0.157036 0.099015 -0.191348
v -0.241929 -0.0831407 0.180847
v -0.273317 -0.0864714 0.132359
v 0.0307325 0.0507546 -0.331721
v 0.100115 0 0.330032
v -0.16897 -0.085074 0.10178
v -0.158568 -0.0657081 0.0596233
v 0 0.099015 0.247537
v 0.201828 -0.091478 -0.201828
v 0.00135464 0.0314265 -0.339416
v 0.149005 -0.0648714 0.0706393
v -0.112619 0.070014 -0.137227
v 0.157036 0.099015 0.191348
v 0.181074 0.091478 0.220639
v -0.0322194 0.0912178 -0.210875
v -0.302694 -0.0816734 -0.0724484
v -0.0971924 0.0857836 0.168402
v -0.27324 -0.0893847 -0.103027
v -0.31556 -0.0548821 -0.114101
v 0.0338045 0 -0.343222
v -0.13262 0 0.320172
v 0.236878 0.099015 0.071856
v -0.288147 0 -0.192534
v -0.304159 0 -0.162577
v -0.270647 0.0471106 -0.195513
v -0.024263 -0.099015 -0.246345
v 0.0584542 -0.0910757 0.200263
v 0.095007 0.0873982 -0.170687
v -0.162643 -0.0457462 0.293847
v 0.058618 0.0910937 -0.203525
v -0.0799943 0.0886051 0.286486
v -0.0603253 -0.0923728 -0.282708
v 0.283714 0.0919672 0.0238495
v 0.094221 0 0.114809
v 0.099003 -0.037891 0.120635
v -0.130985 0 -0.070013
v -0.137568 0.0363153 0.0687346
v 0.057692 -0.0684108 -0.1612
v -0.290019 -0.0920746 -0.0307351
v 0.243923 -0.086041 0.173757
v -0.175035 0.099015 0.175035
v -0.201828 0.091478 0.201828
v 0.241017 -0.0848647 -0.178628
v 0.264879 -0.0484101 -0.204424
v 0.110676 -0.04986 -0.31523
v 0.132998 -0.091478 0.162058
v 0.284489 -0.092268 -0.0447578
v 0.247537 -0.099015 0
v 0.24278 -0.099015 -0.048292
v -0.112619 -0.070014 -0.137227
v 0.0447449 -0.0351604 -0.150106
v 0.056837 0 -0.137217
v -0.218791 0 0.266598
v 0.147807 0 0.014558
v -0.137198 0.0429407 0.305424
v -0.103539 0.0511693 0.317572
v -0.276953 -0.0940978 0.0420322
v -0.107929 -0.084257 0.287086
v 0.305078 -0.0395916 -0.144114
v -0.132583 -0.0913395 0.24979
v 0.224542 -0.070014 -0.224542
v 0.16021 0.0581134 -0.00827918
v -0.096615 -0.0927999 -0.266925
v 0.00435803 -0.034693 -0.339863
v -0.280615 -0.0826674 -0.141362
v -0.0391349 0.0906007 0.295683
v -0.0128852 -0.0352913 0.338116
v -0.206114 -0.0920186 -0.197194
v 0.267888 0 0.21985
v -0.000625698 -0.0914372 0.212068
v 0.0246965 -0.092044 0.213282
v -0.147807 0 -0.014558
v -0.181074 -0.091478 -0.220639
v -0.157036 -0.099015 -0.191348
v -0.195029 0.0890383 0.0657922
v 0.071856 -0.099015 0.236878
v 0 0 -0.346552
v -0.319169 0.0475482 -0.106219
v 0.048292 0.099015 -0.24278
v 0 0.099015 -0.247537
v -0.326817 0.0496024 -0.0708464
v 0.0722681 -0.0707351 0.157981
v 0.0949446 -0.0903825 0.183434
v 0.157036 -0.099015 0.191348
v 0.30688 0.0875421 -0.0330155
v 0.304723 0.0821155 -0.0704804
v -0.311205 0.087836 0.0426946
v 0.086487 0.0742259 0.312873
v -0.287228 -0.0312005 0.178431
v 0.246345 0.099015 0.024263
v -0.125189 -0.0473426 0.314515
v 0.143826 -0.0869606 -0.256348
v 0.320588 -0.0416546 -0.109533
v -0.0422648 -0.0723367 0.164405
v -0.0627588 0.0487121 0.329013
v 0.333487 0.0491853 -0.0384981
v 0.343222 0 -0.0338045
v -0.149482 0.0865976 -0.134563
v 0.33068 0.0476701 0.0619053
v 0.246345 -0.099015 0.024263
v 0.320037 0.0755445 0.013745
v 0.067609 0 -0.339893
v 0.253636 -0.0913627 -0.131711
v 0.323415 -0.0701101 -0.0389596
v 0.0524199 -0.0887066 -0.196892
v 0.094728 -0.099015 -0.228694
v -0.053627 0.0460707 -0.148049
v -0.148242 0.091478 0.148242
v -0.330032 0 0.100114
v -0.320109 0.0383552 0.108411
v 0.301046 0.0500777 0.151044
v -0.251685 0.0304756 -0.2236
v 0.0713049 0.0490234 0.14093
v -0.162577 0 -0.304159
v -0.15097 0.0682142 0.0862668
v -0.132998 -0.091478 -0.162058
v -0.08474 -0.0840025 -0.171429
v -0.048292 0.099015 0.24278
v -0.17581 0.0911441 0.108576
v -0.159876 0.0653529 0.282099
v 0.218308 -0.099015 0.116688
v 0.215068 0.037891 0.262062
v 0.0374484 -0.0464855 -0.33293
v 0.299182 0.072611 -0.112055
v 0.0748365 -0.04816 -0.326796
v -0.192534 0 0.288147
v -0.0548173 0.0901788 0.193997
v 0.0360651 0.0347337 0.151388
v -0.094221 0 -0.114809
v -0.114809 0 -0.094221
v 0.343222 0 0.0338045
v -0.201452 -0.070014 -0.24547
v -0.219306 -0.0918753 -0.0373612
v -0.1824 -0.081649 -0.0452962
v 0.192534 0 0.288147
v -0.071856 0.099015 -0.236878
v -0.0349295 0.0938362 -0.277159
v -0.110931 0.0879862 -0.274142
v -0.346552 0 0
v 0.286236 -0.0469254 0.174258
v 0.0848063 0.0875041 0.178339
v 0.288147 0 0.192534
v -0.0972156 -0.0743504 -0.306529
v -0.318815 -0.03339 0.119817
v 0.15155 0.0439823 0.0330265
v -0.094728 -0.099015 0.228694
v -0.26452 -0.0359361 0.207859
v -0.330032 0 -0.100115
v -0.339893 0 -0.067609
v 0.014558 0 0.147807
v 0.071856 0.099015 0.236878
v 0.153238 0.0730687 0.0969284
v -0.204477 0.0882417 0.0175683
v -0.213237 0.0862412 -0.201307
v 0.205509 0.0890656 -0.0133189
v 0.336342 -0.0322387 -0.0318587
v -0.154489 -0.044637 -0.035139
v 0.218791 0 -0.266598
v 0.0558179 -0.0342324 0.335237
v 0 -0.099015 -0.247537
v 0.00647691 -0.0800783 -0.316272
v 0.0398035 -0.0899506 -0.298811
v -0.0262431 -0.092682 0.289649
v 0.116688 0.099015 0.218308
v 0.188277 -0.0879581 0.0649915
v 0.310639 0.0378219 -0.136289
v -0.202589 -0.0434453 0.269129
v 0.192534 0 -0.288147
v -0.329679 -0.0396766 0.0752129
v 0.0897985 -0.0886314 0.285656
v -0.125528 0.070014 0.125528
v 0.228694 -0.099015 -0.094728
v 0.176267 -0.0882109 -0.110713
v 0.20582 -0.099015 -0.137524
v 0.192063 -0.0869942 -0.0687407
v -0.180057 0.0903195 -0.122507
v 0.177827 -0.0901312 0.104712
v 0.191348 -0.099015 0.157036
v 0.0256483 0.0928378 0.285321
v 0.024263 0.099015 0.246345
v -0.100115 0 0.330032
v -0.191348 -0.099015 -0.157036
v -0.24447 -0.0893203 -0.16114
v 0.20582 0.099015 -0.137524
v 0.267907 -0.0896395 0.104573
v -0.246345 -0.099015 -0.024263
v 0.076554 -0.0634437 0.318626
v 0.0662714 0.0379354 0.332537
v 0.113793 -0.0562567 0.312526
v -0.174158 -0.0481719 -0.28581
v 0.157481 -0.0518377 0.029227
v 0.12364 -0.0453295 0.0941596
v 0.228899 0.0889953 0.175018
v 0.272775 0.0643082 0.184787
v -0.201828 -0.091478 0.201828
v -0.224542 -0.070014 0.224542
v 0.289515 -0.0335962 -0.174641
v -0.243303 0.0832381 0.183811
v 0.132054 0.0388721 0.0815758
v -0.304159 0 0.162576
v -0.302449 0.047234 0.142414
v -0.144057 -0.0782309 0.284983
v 0.067609 0 0.339893
v -0.131929 0.0422882 -0.0806784
v 0.346552 0 0
v 0.112619 0.070014 0.137227
v 0.302918 -0.0896854 0.0308451
v 0.2729 -0.0845138 0.144002
v -0.215068 0.037891 -0.262062
v -0.205819 -0.099015 0.137524
v -0.175035 -0.099015 0.175035
v 0.278507 0.0894881 0.11025
v 0.311817 -0.0575133 0.11755
v 0.193224 -0.0335667 0.279414
v 0.0666478 0.0448137 -0.143977
v 0.304159 0 0.162577
v 0.178154 -0.0566036 0.280116
v -0.150684 0.0896835 0.245368
v -0.191688 0.0735173 0.253555
v 0.143659 -0.0840865 0.119483
v 0.149714 0.091149 0.246228
v -0.164662 -0.0894828 -0.123785
v -0.191263 -0.0886693 -0.0876706
v -0.100115 0 -0.330032
v -0.261698 0.0877678 0.143788
v 0.148242 0.091478 -0.148242
v 0.191609 0.0834755 0.0283616
v -0.177768 -0.0842203 0.249731
v 0.0999508 -0.0864282 -0.170915
v -0.189944 0.0908478 -0.0937559
v 0.113155 0.0375353 0.318804
v -0.212985 0.0409876 0.260764
v -0.0765191 0.0864301 -0.180944
v -0.132998 0.091478 -0.162058
v 0.114809 0 0.094221
v -0.246345 0.099015 -0.024263
v 0.00514559 -0.0365631 0.157414
v -0.131063 -0.0410148 -0.312083
v 0.198273 -0.0878598 0.0211051
v -0.288147 0 0.192534
v 0.175035 -0.099015 -0.175035
v 0.126356 0.0686849 0.299033
v 0.239719 -0.037891 -0.239719
v 0.208436 0.0386895 -0.263455
v 0.266671 0.0950737 0.0470524
v 0.00178038 -0.0886184 -0.205009
v 0.00296924 0.0692846 -0.321379
v -0.277607 -0.0608452 -0.175965
v 0.263414 0.0871819 0.149364
v 0.265589 0.0897763 -0.123753
v 0.147807 0 -0.014558
v 0.269151 0.0930389 -0.089162
v -0.0338045 0 -0.343222
v -0.236084 -0.0938193 0.144439
v -0.067609 0 -0.339893
v -0.273685 -0.0923262 0.0833109
v -0.228694 -0.099015 0.094728
v -0.281432 0.0486574 0.175556
v 0.112619 -0.070014 0.137227
v -0.24278 -0.099015 0.048292
v 0.289394 -0.0900265 0.0705562
v -0.00238318 0.0896336 0.306023
v -0.243869 0 -0.243869
v -0.116784 -0.0903657 0.169713
v 0 0 0.346552
v 0.0315047 0.0674694 0.325483
v 0.0137972 -0.0605529 -0.165838
v 0.197852 -0.0876532 -0.0248756
v 0.0480127 -0.0401232 0.148207
v 0.024263 -0.099015 0.246345
v 0.247537 0.099015 0
v -0.213811 -0.0921341 0.0232492
v 0.201452 0.070014 0.24547
v 0.234948 0.0725152 0.214906
v -0.0454353 -0.0569961 0.328661
v -0.148242 -0.091478 0.148242
v 0.108833 -0.0891451 -0.277326
v 0.153298 0.0730378 0.274559
v -0.195581 -0.09063 0.0590938
v -0.320172 0 -0.13262
v -0.137524 0.099015 0.205819
v 0.317842 0.0516777 0.107057
v 0.328677 -0.0490541 0.0641279
v -0.14271 0.0759376 -0.101926
v 0.158682 0.0666198 0.0607001
v 0.332394 -0.0502508 0.0105811
v 0.270244 -0.0930129 -0.0873998
v -0.122896 0.0859866 0.282963
v 0.149092 -0.0493651 -0.299978
v 0.162577 0 -0.304159
v -0.0225218 0.0933422 0.217811
v -0.301305 -0.0916316 0.0148562
v -0.137524 -0.099015 0.205819
v -0.00677147 0.0814853 0.187401
v 0.331949 -0.0397517 -0.0720412
v 0.251188 0.0707536 -0.194528
v -0.305151 -0.0690766 0.103999
v -0.311433 -0.0799045 0.0611394
v 0.248691 -0.0509895 0.221909
v -0.0516577 -0.0906341 -0.204243
v 0.309026 -0.0748852 -0.0802172
v -0.150705 0.0345128 0.030349
v 0.302549 -0.0876385 -0.00827377
v 0.339893 0 -0.067609
v 0.240753 0.0409985 0.238023
v 0.11035 -0.037891 -0.11035
v 0.224542 0.070014 -0.224542
v 0.148328 -0.0725302 -0.0891935
v 0.320172 0 0.13262
v -0.032278 0.0816554 -0.314235
v -0.241783 0.0865199 -0.170908
v 0.100115 0 -0.330032
v 0.138476 0.0343653 -0.309551
v 0.0447324 0.0871979 -0.302495
v 0.103695 0.0479381 -0.316741
v 0.0370739 -0.0716559 0.320477
v -0.302163 -0.0390652 -0.152804
v 0.00611589 0.0935085 -0.286965
v 0.014558 0 -0.147807
v 0.00450915 0.0405864 -0.156622
v -0.0588229 -0.0638157 -0.323138
v -0.0864569 -0.0368551 -0.327518
v -0.153725 -0.0718736 -0.0828537
v -0.0337781 -0.0699834 -0.172445
v -0.024263 0.099015 -0.246345
v -0.094728 0.099015 0.228694
v -0.318863 0.0652311 0.0785064
v -0.247537 -0.099015 0
v 0.0338045 0 0.343222
v -0.247537 0.099015 0
v 0.166733 0.0390603 0.294
v -0.00286375 -0.0726383 0.323927
v -0.330393 0.053471 -0.0317477
v -0.333577 0.0465824 0.0081245
v 0.30167 0.0875221 0.0695285
v 0.241805 0.0922565 -0.156601
v 0.11035 0.037891 -0.11035
v 0.105021 0 -0.105021
v -0.11035 -0.037891 0.11035
v 0.330032 0 0.100115
v -0.123492 0 0.082514
v -0.105021 0 0.105021
v 0.082514 0 -0.123492
v -0.071856 0.099015 -0.236878
v -0.236878 0.099015 -0.071856
v 0.288147 0 -0.192534
v 0.266598 0 -0.218791
v -0.070013 0 -0.130985
v -0.105021 0 0.105021
v 0.137217 0 -0.056837
v -0.288147 0 -0.192534
v -0.125528 -0.070014 0.125528
v -0.112619 0.070014 -0.137227
v -0.099003 0.037891 -0.120635
v 0.11035 -0.037891 -0.11035
v 0.24278 0.099015 -0.048292
v 0.123492 0 -0.082514
v -0.228694 0.099015 0.094728
v -0.236878 -0.099015 -0.071856
v -0.266598 0 0.218791
v -0.247537 0.099015 0
v -0.191348 0.099015 -0.157036
v -0.181074 0.091478 -0.220639
v 0.191348 0.099015 0.157036
v -0.116688 -0.099015 -0.218308
v 0.070013 0 0.130985
v 0.157036 0.099015 0.191348
v 0.191348 -0.099015 0.157036
v 0.024263 0.099015 0.246345
v -0.094728 -0.099015 0.228694
v -0.23972 -0.037891 0.239719
v -0.105021 0 0.105021
v -0.11035 0.037891 0.11035
v -0.082514 0 0.123492
v 0.304159 0 -0.162577
v 0.094221 0 0.114809
v 0.112619 0.070014 0.137227
v 0.218308 -0.099015 0.116688
v 0.056837 0 -0.137217
v -0.148242 0.091478 0.148242
v -0.125528 0.070014 0.125528
v -0.346552 0 0
v -0.343222 0 -0.0338045
v -0.132998 0.091478 -0.162058
v -0.246345 0.099015 -0.024263
v -0.100115 0 0.330032
v -0.267888 0 -0.21985
v 0.236878 0.099015 0.071856
v 0.246345 0.099015 0.024263
v 0.147807 0 -0.014558
v 0.24278 -0.099015 -0.048292
v 0.099003 -0.037891 0.120635
v 0.094221 0 0.114809
v -0.132998 -0.091478 -0.162058
v -0.191348 -0.099015 -0.157036
v -0.201452 0.070014 -0.24547
v -0.218308 0.099015 -0.116688
v -0.175035 0.099015 0.175035
v -0.071856 -0.099015 -0.236878
v 0.0338045 0 -0.343222
v -0.157036 0.099015 -0.191348
v -0.23972 0.037891 0.239719
v -0.218791 0 0.266598
v 0.067609 0 -0.339893
v 0.175035 0.099015 -0.175035
v 0.137524 0.099015 -0.20582
v -0.224542 0.070014 0.224542
v 0.014558 0 -0.147807
v 0.192534 0 -0.288147
v 0.162577 0 -0.304159
v -0.094728 0.099015 0.228694
v -0.043114 0 -0.142127
v 0.245049 0 -0.245049
v 0.142127 0 0.043114
v -0.048292 0.099015 0.24278
v -0.320172 0 -0.13262
v -0.13262 0 0.320172
v -0.162577 0 0.304159
v 0.105021 0 -0.105021
v -0.112619 -0.070014 -0.137227
v -0.205819 -0.099015 0.137524
v -0.048292 -0.099015 0.24278
v -0.205819 0.099015 0.137524
v 0.201828 0.091478 -0.201828
v -0.014558 0 0.147807
v -0.056837 0 0.137217
v 0.339893 0 0.067609
v 0.130985 0 0.070013
v -0.343222 0 0.0338045
v -0.330032 0 0.100114
v -0.339893 0 0.067609
v -0.116688 0.099015 -0.218308
v -0.157036 0.099015 -0.191348
v -0.147807 0 0.014558
v -0.137217 0 0.056837
v 0.071856 -0.099015 0.236878
v -0.100115 0 -0.330032
v 0.247537 0.099015 0
v 0.201452 0.070014 0.24547
v 0.181074 0.091478 0.220639
v 0.246345 -0.099015 0.024263
v 0.247537 -0.099015 0
v -0.114809 0 -0.094221
v -0.099003 -0.037891 -0.120635
v -0.094221 0 -0.114809
v -0.215068 0.037891 -0.262062
v -0.192534 0 -0.288147
v -0.21985 0 -0.267888
v 0.175035 0.099015 -0.175035
v 0.094728 0.099015 -0.228694
v -0.192534 0 0.288147
v -0.0338045 0 -0.343222
v 0 0.099015 -0.247537
v 0.024263 -0.099015 0.246345
v 0.043114 0 0.142127
v 0 0 -0.346552
v 0.105021 0 -0.105021
v 0.320172 0 0.13262
v 0.228694 -0.099015 -0.094728
v -0.137524 0.099015 0.205819
v -0.175035 0.099015 0.175035
v -0.175035 -0.099015 0.175035
v -0.137524 -0.099015 0.205819
v 0.224542 0.070014 -0.224542
v 0.224542 -0.070014 -0.224542
v 0.13262 0 -0.320172
v -0.024263 -0.099015 -0.246345
v 0.245049 0 -0.245049
v 0.239719 -0.037891 -0.239719
v 0.228694 0.099015 -0.094728
v 0.181074 -0.091478 0.220639
v -0.147807 0 -0.014558
v 0.162577 0 0.304159
v 0 0.099015 0.247537
v -0.24278 0.099015 0.048292
v 0.137524 -0.099015 -0.20582
v 0.094728 -0.099015 -0.228694
v -0.181074 -0.091478 -0.220639
v -0.157036 -0.099015 -0.191348
v -0.157036 -0.099015 -0.191348
v 0.20582 0.099015 -0.137524
v 0.147807 0 0.014558
v 0.125528 0.070014 -0.125528
v 0.21985 0 0.267888
v 0.048292 -0.099015 -0.24278
v -0.024263 0.099015 -0.246345
v 0.148242 0.091478 -0.148242
v -0.218308 -0.099015 -0.116688
v 0.218308 0.099015 0.116688
v 0.125528 -0.070014 -0.125528
v -0.339893 0 -0.067609
v 0.175035 0.099015 -0.175035
v -0.245049 0 0.245049
v -0.228694 -0.099015 0.094728
v 0.157036 -0.099015 0.191348
v 0.239719 0.037891 -0.239719
v 0.116688 0.099015 0.218308
v 0.071856 0.099015 0.236878
v 0.132998 -0.091478 0.162058
v 0.157036 -0.099015 0.191348
v 0.116688 -0.099015 0.218308
v 0.339893 0 -0.067609
v -0.243869 0 -0.243869
v 0.014558 0 0.147807
v 0.100115 0 -0.330032
v 0.157036 0.099015 0.191348
v 0.132998 0.091478 0.162058
v -0.201828 -0.091478 0.201828
v -0.224542 -0.070014 0.224542
v 0.157036 -0.099015 0.191348
v -0.067609 0 -0.339893
v 0.20582 -0.099015 -0.137524
v -0.13262 0 -0.320172
v 0.343222 0 -0.0338045
v -0.24278 -0.099015 0.048292
v 0.100115 0 0.330032
v 0.067609 0 0.339893
v 0.13262 0 0.320172
v -0.330032 0 -0.100115
v 0 -0.099015 0.247537
v 0.236878 -0.099015 0.071856
v 0.112619 -0.070014 0.137227
v 0 -0.099015 -0.247537
v -0.245049 0 0.245049
v -0.162577 0 -0.304159
v 0.218791 0 -0.266598
v 0.245049 0 -0.245049
v 0.201828 -0.091478 -0.201828
v 0.201452 -0.070014 0.24547
v 0.346552 0 0
v 0.320172 0 -0.13262
v -0.0338045 0 0.343222
v -0.304159 0 0.162576
v -0.247537 -0.099015 0
v 0.175035 -0.099015 -0.175035
v 0.148242 -0.091478 -0.148242
v -0.157036 0.099015 -0.191348
v 0.330032 0 -0.100115
v -0.130985 0 -0.070013
v -0.175035 -0.099015 0.175035
v -0.148242 -0.091478 0.148242
v 0.288147 0 0.192534
v 0.304159 0 0.162577
v -0.21985 0 -0.267888
v -0.215068 -0.037891 -0.262062
v -0.201452 -0.070014 -0.24547
v 0.157036 0.099015 0.191348
v -0.304159 0 -0.162577
v 0.099003 0.037891 0.120635
v -0.175035 -0.099015 0.175035
v -0.288147 0 0.192534
v -0.142127 0 -0.043114
v 0.094221 0 0.114809
v 0.114809 0 0.094221
v -0.245049 0 0.245049
v 0.048292 0.099015 -0.24278
v 0.243869 0 0.243869
v 0.215068 0.037891 0.262062
v 0.267888 0 0.21985
v -0.014558 0 -0.147807
v 0.192534 0 0.288147
v 0 0 0.346552
v -0.157036 -0.099015 -0.191348
v 0.175035 -0.099015 -0.175035
v -0.246345 -0.099015 -0.024263
v -0.201828 0.091478 0.201828
v -0.175035 0.099015 0.175035
v -0.320172 0 0.132619
v 0.343222 0 0.0338045
v 0.215068 -0.037891 0.262062
v -0.067609 0 0.339893
v -0.094221 0 -0.114809
v 0.175035 -0.099015 -0.175035
v -0.094221 0 -0.114809
v 0.21985 0 0.267888
v -0.21985 0 -0.267888
v 0.0338045 0 0.343222
v 0.21985 0 0.267888
f 437 458 515
f 6 122 134
f 10 11 8
f 12 13 14
f 220 358 419
f 20 282 249
f 5 428 460
f 37 38 39
f 150 485 74
f 5 261 90
f 50 51 52
f 53 54 55
f 56 57 58
f 60 61 474
f 521 131 170
f 261 1 262
f 112 2 357
f 201 268 444
f 441 2 527
f 3 328 501
f 328 3 327
f 371 485 482
f 83 214 84
f 172 522 422
f 86 87 88
f 255 211 314
f 91 92 93
f 8 95 10
f 528 98 529
f 101 345 103
f 530 104 105
f 473 500 531
f 111 112 113
f 114 115 186
f 87 116 117
f 532 166 533
f 121 122 330
f 124 497 534
f 129 126 283
f 129 128 126
f 455 467 105
f 230 134 136
f 136 135 207
f 137 138 43
f 141 7 142
f 145 468 144
f 147 317 148
f 231 77 369
f 290 48 292
f 518 155 156
f 21 280 65
f 160 161 163
f 163 162 160
f 41 25 40
f 30 164 165
f 167 168 50
f 65 194 21
f 206 535 424
f 94 178 179
f 86 183 182
f 185 536 187
f 537 235 538
f 298 190 539
f 540 191 530
f 34 319 74
f 170 278 156
f 372 20 27
f 52 197 198
f 541 95 8
f 452 291 398
f 298 203 190
f 204 205 180
f 289 425 44
f 44 367 289
f 207 210 209
f 542 215 216
f 217 437 491
f 104 530 4
f 99 167 68
f 52 543 197
f 225 226 17
f 167 99 168
f 222 286 257
f 289 475 544
f 238 239 240
f 241 178 94
f 510 242 243
f 475 545 544
f 249 393 251
f 245 253 442
f 127 504 481
f 481 504 119
f 481 119 359
f 119 435 359
f 261 262 175
f 207 209 24
f 266 169 310
f 506 120 504
f 546 499 49
f 213 92 91
f 33 95 541
f 276 277 547
f 546 49 7
f 548 546 7
f 81 285 104
f 41 26 25
f 347 396 477
f 156 155 549
f 59 275 9
f 421 115 475
f 420 296 297
f 539 139 298
f 232 299 176
f 300 301 46
f 116 120 159
f 304 397 153
f 182 119 120
f 330 122 45
f 307 308 241
f 183 119 182
f 147 148 311
f 70 250 152
f 152 294 70
f 284 152 250
f 322 477 396
f 550 325 324
f 310 176 299
f 329 327 3
f 109 315 277
f 277 287 109
f 276 287 277
f 245 336 253
f 101 303 216
f 287 48 288
f 551 338 96
f 43 192 137
f 339 135 340
f 292 48 287
f 343 93 92
f 552 344 427
f 345 553 554
f 21 387 338
f 346 13 253
f 555 93 181
f 263 348 108
f 21 338 280
f 94 179 320
f 351 352 353
f 309 482 318
f 482 485 318
f 2 112 487
f 264 30 265
f 309 318 517
f 556 308 307
f 310 299 362
f 363 364 365
f 29 30 254
f 366 364 363
f 249 337 19
f 304 153 557
f 555 181 558
f 367 44 36
f 368 312 559
f 199 370 560
f 373 374 83
f 261 5 1
f 550 324 377
f 455 104 561
f 282 20 372
f 39 305 381
f 267 75 361
f 380 361 75
f 562 244 97
f 563 564 565
f 388 537 566
f 22 485 371
f 391 392 100
f 74 22 34
f 5 285 428
f 395 321 545
f 567 557 153
f 343 390 568
f 477 474 398
f 264 164 30
f 569 376 399
f 400 303 101
f 386 401 402
f 34 332 304
f 98 406 570
f 319 34 304
f 233 410 409
f 208 571 472
f 149 564 572
f 91 93 555
f 202 356 368
f 279 379 422
f 281 418 213
f 82 285 81
f 573 525 574
f 161 187 536
f 420 297 107
f 390 15 16
f 155 416 549
f 568 93 343
f 138 329 189
f 106 364 125
f 203 424 575
f 134 122 136
f 185 576 536
f 138 189 130
f 247 212 577
f 578 542 303
f 47 446 415
f 434 235 252
f 566 250 388
f 246 148 212
f 41 431 26
f 579 436 580
f 189 47 415
f 47 189 329
f 581 141 382
f 506 62 159
f 159 120 506
f 505 159 62
f 392 449 416
f 450 411 237
f 452 474 404
f 503 293 506
f 62 195 505
f 438 505 195
f 456 379 457
f 438 195 201
f 182 116 87
f 363 582 366
f 273 460 226
f 175 262 461
f 583 584 426
f 33 541 442
f 438 201 151
f 162 216 215
f 323 164 264
f 33 253 13
f 462 346 281
f 585 413 586
f 464 465 205
f 193 21 194
f 587 138 130
f 241 308 178
f 181 93 568
f 65 335 488
f 155 518 301
f 471 160 215
f 163 536 588
f 571 589 472
f 217 491 590
f 590 491 556
f 491 308 556
f 476 390 343
f 343 92 35
f 195 62 591
f 69 458 510
f 554 553 592
f 423 593 594
f 337 251 484
f 442 253 33
f 477 398 494
f 494 239 238
f 474 322 60
f 211 595 314
f 495 287 288
f 110 115 114
f 114 344 80
f 110 114 80
f 596 597 417
f 423 598 593
f 239 398 291
f 341 319 18
f 80 154 493
f 74 485 22
f 23 586 413
f 499 364 366
f 149 565 564
f 385 440 384
f 152 478 294
f 500 473 302
f 440 385 302
f 599 511 140
f 600 129 480
f 600 480 601
f 479 222 602
f 179 178 603
f 434 604 538
f 377 133 519
f 605 202 383
f 433 123 279
f 606 602 222
f 345 554 103
f 518 278 102
f 136 122 121
f 508 439 256
f 161 160 269
f 607 210 339
f 220 608 609
f 30 165 254
f 191 81 530
f 81 4 530
f 90 285 5
f 329 138 137
f 610 546 548
f 474 477 322
f 78 514 611
f 448 197 612
f 613 19 337
f 549 416 614
f 516 206 271
f 257 606 222
f 527 615 375
f 57 112 58
f 519 463 451
f 304 557 18
f 616 74 341
f 74 319 341
f 333 331 407
f 249 19 20
f 616 150 74
f 617 150 616
f 208 149 572
f 4 81 104
f 234 235 70
f 234 70 294
f 381 429 165
f 583 383 450
f 249 251 337
f 468 236 480
f 290 531 618
f 292 224 526
f 383 619 605
f 366 142 499
f 134 483 6
f 248 447 489
f 489 6 483
f 489 483 248
f 399 376 404
f 45 122 6
f 102 620 46
f 45 6 360
f 360 621 622
f 394 196 379
f 466 28 27
f 360 335 621
f 575 623 624
f 424 298 177
f 625 493 626
f 218 262 1
f 218 461 262
f 218 274 627
f 218 627 461
f 488 335 360
f 45 360 622
f 489 488 360
f 489 360 6
f 628 513 429
f 314 595 316
f 123 412 355
f 580 224 629
f 368 411 202
f 319 304 18
f 428 285 82
f 104 285 561
f 405 408 143
f 58 112 111
f 412 630 631
f 498 183 86
f 123 433 469
f 412 631 355
f 630 412 469
f 222 247 286
f 515 491 437
f 632 430 633
f 163 161 536
f 502 553 345
f 458 437 296
f 502 588 553
f 205 384 180
f 296 229 458
f 366 582 459
f 634 635 636
f 579 403 526
f 493 85 80
f 542 216 303
f 207 230 136
f 110 80 85
f 344 154 80
f 193 445 386
f 637 638 639
f 185 524 131
f 524 525 131
f 502 163 588
f 326 522 171
f 254 334 223
f 521 576 131
f 375 615 640
f 254 165 334
f 518 102 46
f 221 219 641
f 221 641 270
f 480 283 468
f 642 358 609
f 162 215 160
f 528 406 98
f 450 383 411
f 504 127 503
f 382 202 605
f 387 21 193
f 513 643 512
f 352 42 72
f 644 509 328
f 512 72 42
f 187 161 269
f 643 255 72
f 313 522 326
f 140 511 298
f 506 504 503
f 267 71 645
f 426 383 583
f 52 198 167
f 419 393 220
f 43 138 587
f 460 428 646
f 184 406 528
f 647 255 643
f 154 228 493
f 626 228 532
f 356 202 382
f 293 591 62
f 310 169 176
f 476 336 390
f 628 429 132
f 238 492 295
f 497 648 534
f 229 296 420
f 490 331 260
f 334 513 512
f 331 404 649
f 294 478 650
f 651 652 233
f 523 173 507
f 279 123 64
f 64 123 342
f 488 489 447
f 653 467 654
f 615 487 655
f 126 128 656
f 156 278 518
f 601 480 657
f 492 152 284
f 492 478 152
f 455 561 654
f 455 654 467
f 561 285 90
f 223 658 29
f 170 131 278
f 242 458 229
f 522 433 422
f 651 409 602
f 357 109 32
f 659 660 349
f 2 441 315
f 661 527 375
f 441 527 661
f 527 487 615
f 609 358 220
f 358 244 562
f 478 240 650
f 140 298 139
f 399 231 569
f 369 77 662
f 625 85 493
f 85 625 663
f 9 408 76
f 664 76 408
f 459 141 142
f 142 366 459
f 408 9 143
f 665 371 482
f 22 332 34
f 155 301 392
f 169 266 666
f 455 105 104
f 303 400 454
f 454 578 303
f 283 667 668
f 373 669 670
f 37 381 323
f 453 370 199
f 279 457 379
f 79 430 632
f 473 531 290
f 302 473 403
f 525 278 131
f 451 463 470
f 576 185 131
f 59 75 267
f 76 380 75
f 358 642 244
f 19 466 20
f 556 307 671
f 476 418 336
f 457 279 64
f 370 64 560
f 64 370 457
f 672 157 12
f 340 135 121
f 382 673 581
f 157 674 158
f 112 57 487
f 620 102 525
f 313 326 675
f 297 296 676
f 677 328 327
f 260 331 333
f 201 591 268
f 443 441 661
f 443 661 547
f 443 547 277
f 266 310 306
f 10 95 158
f 157 678 674
f 12 157 13
f 381 164 323
f 306 228 154
f 24 209 679
f 141 430 382
f 228 306 166
f 125 499 546
f 125 364 499
f 466 27 20
f 559 411 368
f 237 411 559
f 233 409 651
f 261 175 90
f 9 75 59
f 235 434 538
f 146 463 133
f 680 440 403
f 124 681 497
f 234 200 252
f 374 256 439
f 235 234 252
f 495 109 287
f 574 524 682
f 672 683 678
f 32 109 495
f 25 26 684
f 141 459 430
f 685 445 194
f 445 401 386
f 505 438 509
f 69 515 458
f 304 332 397
f 662 686 369
f 687 435 498
f 346 418 281
f 346 253 418
f 253 336 418
f 14 346 462
f 14 13 346
f 688 332 689
f 235 537 388
f 457 370 453
f 243 124 534
f 254 223 29
f 597 219 417
f 417 219 184
f 395 227 321
f 690 691 692
f 188 406 219
f 89 177 188
f 221 89 188
f 641 219 597
f 668 468 283
f 460 1 5
f 614 416 389
f 347 486 693
f 522 172 171
f 694 174 84
f 695 428 82
f 186 427 114
f 646 428 695
f 696 316 595
f 406 599 570
f 196 422 379
f 422 196 172
f 119 504 120
f 697 698 688
f 421 186 115
f 524 574 525
f 210 207 135
f 448 470 197
f 347 477 295
f 699 419 700
f 559 701 237
f 390 336 15
f 68 167 198
f 198 146 68
f 198 197 470
f 15 336 245
f 35 476 343
f 476 35 418
f 213 418 35
f 266 154 344
f 273 274 218
f 35 92 213
f 124 420 681
f 7 49 142
f 655 487 57
f 223 42 351
f 702 513 628
f 414 23 413
f 414 325 550
f 414 550 23
f 703 432 200
f 469 412 123
f 42 352 351
f 230 207 24
f 645 71 173
f 395 475 115
f 406 511 599
f 704 130 189
f 357 32 31
f 470 463 146
f 408 405 664
f 348 68 146
f 218 1 273
f 295 486 347
f 649 404 61
f 459 582 633
f 459 633 430
f 103 400 101
f 146 133 325
f 234 294 703
f 68 263 99
f 389 416 449
f 393 419 251
f 484 419 699
f 484 251 419
f 705 347 693
f 419 358 700
f 685 447 706
f 465 385 384
f 350 378 707
f 350 707 708
f 247 246 212
f 246 311 148
f 507 378 350
f 444 151 201
f 294 650 703
f 380 378 361
f 378 507 71
f 118 465 496
f 490 77 231
f 587 130 637
f 384 440 680
f 276 292 287
f 380 709 707
f 710 269 471
f 354 523 466
f 466 19 354
f 613 354 19
f 711 354 613
f 483 134 230
f 208 472 517
f 147 410 423
f 465 118 385
f 666 344 552
f 128 129 600
f 452 398 474
f 452 376 712
f 291 452 712
f 713 273 226
f 620 525 573
f 437 217 714
f 365 364 106
f 594 593 715
f 13 157 158
f 150 149 208
f 388 70 235
f 151 501 438
f 423 594 317
f 638 130 716
f 216 162 502
f 460 273 1
f 502 162 163
f 502 345 101
f 216 502 101
f 717 687 718
f 359 435 717
f 717 435 687
f 707 378 380
f 676 437 714
f 356 430 79
f 128 600 349
f 128 349 660
f 283 480 129
f 126 656 719
f 126 719 667
f 667 283 126
f 71 361 378
f 165 164 381
f 382 605 673
f 308 491 515
f 325 414 514
f 327 329 137
f 705 396 347
f 342 123 355
f 526 403 473
f 515 178 308
f 226 460 17
f 17 460 646
f 720 490 54
f 120 116 182
f 48 721 288
f 183 435 119
f 566 722 250
f 117 116 159
f 456 73 723
f 311 479 409
f 55 490 260
f 277 315 443
f 692 274 690
f 47 63 446
f 229 124 242
f 229 420 124
f 69 178 515
f 469 522 630
f 238 240 478
f 89 206 177
f 724 335 65
f 22 689 332
f 311 246 479
f 246 247 479
f 150 208 318
f 318 485 150
f 350 520 66
f 725 483 230
f 306 154 266
f 107 726 727
f 78 108 348
f 514 78 348
f 425 728 44
f 325 514 348
f 681 420 727
f 420 107 727
f 693 486 729
f 730 108 78
f 484 699 731
f 290 292 526
f 441 443 315
f 306 310 362
f 351 353 144
f 612 197 732
f 302 733 734
f 113 357 31
f 397 332 698
f 305 132 429
f 383 426 619
f 457 73 456
f 722 729 284
f 694 735 736
f 84 174 83
f 737 174 736
f 382 430 356
f 149 150 617
f 738 355 631
f 350 708 520
f 494 398 239
f 289 367 475
f 376 569 712
f 733 385 118
f 155 392 416
f 508 210 607
f 739 508 607
f 214 508 739
f 54 490 55
f 740 568 390
f 142 49 499
f 446 63 151
f 501 151 63
f 113 112 357
f 535 206 516
f 612 732 741
f 611 635 78
f 298 424 203
f 575 424 623
f 374 679 256
f 514 413 611
f 630 522 313
f 224 67 629
f 547 67 276
f 67 224 292
f 318 208 517
f 220 393 282
f 627 274 692
f 512 223 334
f 679 374 373
f 742 338 551
f 96 338 387
f 724 280 742
f 280 338 742
f 77 490 720
f 85 663 743
f 623 424 535
f 744 740 745
f 317 147 423
f 149 617 565
f 729 486 284
f 102 278 525
f 487 527 2
f 551 96 746
f 435 183 498
f 316 145 353
f 315 357 2
f 682 524 272
f 187 269 272
f 272 185 187
f 234 703 200
f 109 357 315
f 526 436 579
f 453 73 457
f 224 436 526
f 545 475 395
f 611 413 585
f 145 144 353
f 747 509 644
f 65 280 724
f 301 518 46
f 704 189 415
f 62 506 293
f 279 422 433
f 644 328 677
f 492 486 295
f 411 383 202
f 331 649 407
f 748 496 749
f 78 635 634
f 750 496 748
f 496 465 464
f 464 749 496
f 289 544 425
f 83 439 214
f 439 508 214
f 83 737 669
f 83 259 373
f 669 259 83
f 259 669 373
f 413 514 414
f 466 523 258
f 242 510 458
f 452 404 376
f 513 702 643
f 740 390 745
f 745 390 16
f 403 579 680
f 523 354 173
f 747 505 509
f 270 89 221
f 602 409 479
f 78 634 730
f 618 48 290
f 606 257 199
f 257 453 199
f 211 255 647
f 205 465 384
f 210 508 256
f 339 210 135
f 76 664 709
f 665 482 309
f 679 209 256
f 170 156 549
f 722 284 250
f 69 751 603
f 664 405 752
f 404 331 399
f 28 258 753
f 302 403 440
f 560 64 342
f 725 248 483
f 447 248 706
f 706 248 725
f 41 449 431
f 431 449 391
f 124 243 242
f 468 145 236
f 236 316 696
f 429 381 305
f 10 158 674
f 39 381 37
f 73 286 723
f 586 754 585
f 267 361 71
f 399 331 231
f 603 178 69
f 667 719 755
f 110 85 743
f 230 24 756
f 614 389 757
f 743 227 110
f 614 757 758
f 166 306 362
f 194 447 685
f 73 257 286
f 380 76 709
f 258 66 753
f 389 41 40
f 22 371 689
f 678 157 672
f 180 384 680
f 657 480 236
f 117 159 747
f 353 314 316
f 368 356 312
f 657 236 696
f 219 221 188
f 222 479 247
f 316 236 145
f 753 66 520
f 66 523 507
f 451 470 448
f 350 66 507
f 61 404 474
f 747 159 505
f 210 256 209
f 227 395 110
f 115 110 395
f 475 367 421
f 757 389 40
f 477 494 295
f 295 494 238
f 255 314 352
f 500 302 734
f 100 301 300
f 470 146 198
f 194 65 488
f 165 429 334
f 509 438 501
f 449 392 391
f 449 41 389
f 501 328 509
f 334 429 513
f 72 512 643
f 220 282 608
f 86 182 87
f 608 282 372
f 282 393 249
f 141 581 7
f 621 335 759
f 760 48 618
f 752 405 761
f 523 66 258
f 762 286 577
f 453 257 73
f 645 173 711
f 660 656 128
f 493 228 626
f 511 406 188
f 325 348 146
f 377 324 133
f 133 463 519
f 324 325 133
f 763 539 190
f 369 569 231
f 365 106 764
f 271 89 270
f 3 63 47
f 118 496 750
f 421 367 36
f 725 230 756
f 658 223 351
f 522 469 433
f 637 130 638
f 547 629 67
f 292 276 67
f 405 143 761
f 193 386 387
f 732 197 543
f 314 353 352
f 47 329 3
f 177 206 424
f 68 348 263
f 676 296 437
f 545 321 765
f 201 195 591
f 208 572 571
f 194 445 193
f 445 685 401
f 749 766 748
f 388 250 70
f 302 385 733
f 274 273 713
f 158 33 13
f 95 33 158
f 352 72 255
f 167 50 52
f 767 454 400
f 69 510 751
f 394 379 768
f 682 272 710
f 269 160 471
f 710 272 269
f 662 77 720
f 247 577 286
f 532 228 166
f 466 258 28
f 439 83 374
f 690 274 713
f 507 173 71
f 344 666 266
f 100 392 301
f 511 188 177
f 144 468 668
f 344 114 427
f 83 174 737
f 219 406 184
f 716 130 704
f 700 358 562
f 42 223 512
f 238 478 492
f 290 526 473
f 501 63 3
f 185 272 524
f 151 444 446
f 173 354 711
f 723 286 762
f 736 174 694
f 598 423 410
f 311 409 410
f 598 410 233
f 490 231 331
f 410 147 311
f 698 332 688
f 298 511 177
f 271 206 89
f 76 75 9
f 284 486 492
f 769 752 761
f 48 760 721
f 436 224 580
f 421 36 186
f 768 379 456
f 733 118 750
f 356 79 312
f 335 724 759
f 488 447 194
f 135 136 121
