v -0.110675 -0.194314 0.0661
v -0.136358 -0.199082 0.0647555
v -0.162221 -0.0241765 -0.156652
v -0.245729 -0.07185 -0.019185
v 0.081841 0.281623 -0.00552989
v 0.031845 0.286044 0.002201
v 0.039591 0.275301 0.02138
v -0.226642 -0.118199 0.0550416
v 0.268448 -0.173611 0.229075
v 0.28802 -0.164458 0.208508
v 0.258551 -0.216126 0.217375
v 0.226418 0.0408068 -0.0364214
v 0.218462 0.032207 0.0192969
v -0.0348879 -0.0454764 0.087348
v 0.277316 -0.254832 0.139936
v 0.0767284 -0.257609 0.151519
v 0.070505 -0.264948 0.113138
v 0.098146 -0.203827 0.22945
v -0.1485 0.0001297 -0.128123
v 0.0727264 -0.120647 0.21741
v -0.0716868 0.241419 -0.093641
v 0.165442 0.0379768 -0.215508
v 0.097029 -0.0844805 0.215172
v 0.109353 -0.117466 0.246391
v 0.212982 0.0559981 -0.0857382
v -0.0866756 -0.105465 0.0810389
v 0.139091 -0.266346 0.213476
v 0.149804 0.24544 -0.0328148
v 0.213611 -0.148134 -0.173395
v 0.232785 -0.160345 -0.131283
v 0.203454 -0.167786 -0.17444
v 0.00403141 -0.0423271 0.109917
v 0.125714 0.258603 -0.113204
v 0.113219 -0.269152 -0.0528038
v 0.206275 -0.139091 0.259327
v 0.0161495 -0.078691 -0.251848
v -0.01329 -0.086017 -0.24594
v -0.162772 -0.297005 -0.094181
v -0.191547 -0.297435 -0.085857
v 0.185556 0.0506892 -0.173182
v -0.104766 0.044065 -0.036298
v -0.097013 0.064509 -0.034598
v 0.003954 -0.18567 0.110449
v 0.043464 -0.221754 0.13584
v 0.130637 0.179749 -0.170286
v 0.112934 0.179956 -0.18266
v 0.166785 -0.199797 0.258576
v 0.175941 -0.054699 -0.227531
v 0.170332 -0.086543 -0.240834
v 0.157752 -0.054402 -0.240141
v 0.170112 -0.127101 -0.244851
v -0.0472057 -0.222 -0.22225
v 0.147526 -0.145462 0.260388
v -0.0339645 -0.272907 -0.12643
v -0.0979214 -0.179269 -0.226198
v 0.0101698 -0.263338 -0.137553
v -0.0879091 0.198845 -0.0938758
v -0.0537392 0.0700631 -0.195236
v 0.251947 -0.0515865 -0.043924
v -0.299153 -0.136502 -0.101109
v 0.193626 0.111149 -0.0125265
v -0.234803 -0.252762 0.022647
v -0.0157803 0.0492969 -0.215076
v 0.131184 -0.196978 -0.219211
v 0.26063 -0.162142 -0.0641595
v -0.0413251 -0.0408503 -0.227748
v 0.111928 -0.236021 -0.162193
v 0.0155427 0.0546084 0.0823778
v 0.00120479 0.169061 0.0742646
v -0.0641873 0.148492 0.0216094
v -0.123123 0.0258123 -0.0700996
v -0.166046 -0.055935 -0.178507
v 0.21082 -0.28851 0.136501
v -0.059163 0.249859 -0.0516282
v 0.202693 -0.288207 0.107759
v 0.0708381 -0.276036 -0.0529229
v -0.0965172 0.0970732 -0.121007
v -0.0808303 0.0923838 -0.160426
v -0.0863857 -0.218681 -0.218934
v 0.177894 -0.277463 0.0317753
v 0.205331 -0.263906 0.0201148
v 0.213856 -0.274399 0.062522
v -0.172456 -0.192372 -0.201296
v -0.222743 -0.189183 -0.185112
v -0.180595 -0.160806 -0.201082
v 0.227766 -0.221321 -0.0801849
v -0.0220515 -0.267744 0.0236112
v 0.0775274 -0.00165543 0.115197
v 0.149897 0.117581 -0.190483
v -0.218724 -0.269234 -0.153488
v -0.111269 -0.144591 -0.221634
v 0.066135 -0.062595 0.160063
v -0.0866594 0.0468096 -0.17586
v -0.101189 0.00634371 -0.187292
v 0.278123 -0.0674337 0.17597
v -0.0565553 -0.230803 0.0523674
v 0.191529 -0.245121 -0.0597861
v 0.078442 -0.064671 -0.259378
v 0.236349 -0.076174 -0.120205
v 0.222791 -0.099876 -0.16674
v 0.221916 -0.06698 -0.159984
v 0.051627 -0.080465 0.160194
v 0.0252035 -0.0693951 0.139605
v 0.041176 -0.100965 0.159588
v 0.00829144 -0.222325 0.0877287
v 0.0357665 -0.246913 0.0951742
v 0.193361 0.010989 -0.18317
v 0.153816 -0.0997218 0.246528
v -0.0656916 0.21379 -0.129102
v 0.184069 0.0481256 0.0479974
v -0.190272 -0.025494 -0.090098
v -0.193416 -0.032372 -0.11709
v 0.276613 -0.067169 0.088007
v -0.162042 -0.20385 0.063411
v -0.190725 -0.208243 0.059876
v -0.125573 0.010883 -0.036792
v -0.115106 0.024864 -0.037042
v -0.0327754 0.269753 -0.0891139
v 0.247101 -0.181807 -0.0952333
v -0.255288 -0.11329 -0.15104
v 0.13234 -0.05627 -0.25093
v 0.051187 0.297276 -0.032778
v 0.079483 0.294642 -0.042407
v 0.303783 -0.190552 0.159987
v 0.179963 -0.275646 0.202803
v -0.242445 -0.281124 -0.0345909
v 0.234314 -0.24678 0.00737983
v 0.253802 -0.2418 0.056711
v 0.235156 -0.260002 0.058789
v 0.169331 0.133349 -0.150202
v -0.104374 0.0611344 -0.134428
v 0.185004 0.13221 -0.108888
v -0.232745 -0.0831765 0.0189157
v -0.202468 -0.24811 0.0401926
v 0.182507 -0.241248 0.235407
v -0.292774 -0.230222 -0.039015
v -0.264741 -0.248324 -0.007386
v -0.289855 -0.20819 -0.003844
v 0.255879 -0.200583 -0.0515603
v 0.120664 -0.153005 -0.255135
v -0.194633 -0.042623 -0.136957
v 0.0351779 -0.201831 -0.234969
v 0.0356819 -0.163148 -0.251871
v -0.0673515 -0.289609 -0.0344448
v -0.00987333 0.001848 -0.22836
v -0.0329555 0.228618 0.0291692
v 0.00172077 -0.0410485 -0.240985
v -0.150237 -0.252816 -0.175193
v -0.141146 -0.269437 -0.15568
v 0.081422 -0.256582 -0.121066
v 0.168188 -0.0047704 -0.222756
v 0.0831786 -0.0113983 -0.251454
v 0.107046 0.144212 -0.203194
v -0.0509472 0.113818 -0.180725
v 0.135161 -0.0740189 0.221473
v -0.093447 0.117371 -0.060842
v 0.171006 0.205221 -0.0448856
v 0.182697 0.162986 -0.073535
v 0.165685 0.207679 -0.088101
v 0.255348 -0.135669 0.235104
v -0.27687 -0.21119 0.015344
v 0.177114 0.168903 -0.099272
v 0.0837075 -0.159536 0.227366
v -0.00155378 0.133136 0.0740567
v -0.132654 -0.00396932 -0.164029
v 0.050075 -0.121623 0.186362
v -0.181314 -0.297391 -0.0120758
v 0.201803 0.0984193 -0.0815227
v -0.19716 -0.0562235 0.0099816
v -0.086596 0.111305 -0.028431
v 0.164802 -0.207154 -0.171718
v 0.217668 -0.284345 0.16529
v 0.00337684 -0.284657 -0.0134455
v -0.280516 -0.136196 -0.13516
v -0.0629781 -0.259302 0.0264837
v -0.088514 0.128871 -0.115152
v 0.250783 -0.085368 -0.080425
v 0.10658 -0.280196 -0.0105616
v 0.12201 0.161035 0.0538221
v 0.190716 -0.231378 -0.100141
v 0.202517 -0.0377465 0.179247
v -0.155939 -0.263 0.0352448
v 0.293907 -0.0966507 0.139019
v 0.305783 -0.175657 0.113584
v -0.012597 -0.184323 0.096109
v 0.0248497 0.00594707 0.0984104
v -0.0895226 -0.00151237 0.0306856
v -0.0772693 -0.143459 0.0811497
v -0.115842 -0.160842 0.072106
v -0.0978208 -0.0690863 0.0690053
v 0.261127 -0.215459 -0.00877122
v 0.272855 -0.104126 -0.0052255
v -0.102842 -0.273364 -0.002363
v -0.105032 -0.284852 -0.026614
v 0.03488 0.170611 -0.196972
v -0.0797654 0.213168 -0.0555556
v 0.066863 0.175947 -0.196765
v 0.0397293 0.145654 0.0765312
v -0.026106 -0.212317 0.0689362
v 0.129429 -0.287132 0.0343238
v 0.00039 0.254904 -0.146424
v 0.174252 -0.180816 -0.203274
v 0.000909 0.275645 -0.12493
v 0.182597 0.156179 -0.047381
v -0.0117306 -0.210831 -0.234969
v -0.154547 -0.050589 0.024125
v -0.143129 -0.067715 0.044321
v -0.300867 -0.151706 -0.019131
v -0.304859 -0.149404 -0.0609998
v -0.303428 -0.174549 -0.023341
v -0.190718 -0.114403 0.0685002
v 0.182392 -0.160826 0.260418
v 0.0503325 0.28995 -0.104111
v 0.003357 0.287524 -0.104364
v -0.102517 -0.255207 0.024359
v 0.101691 0.19645 0.0548056
v 0.195554 -0.0255087 -0.197585
v -0.142413 -0.286972 0.00159859
v 0.105655 -0.28537 0.094963
v 0.086734 -0.277177 0.103723
v 0.207007 -0.06074 -0.189414
v 0.174367 -0.059916 0.214502
v 0.182464 -0.074209 0.231054
v -0.1164 0.0258728 -0.150279
v 0.17805 0.0907707 -0.162211
v 0.0450897 -0.26922 -0.0983243
v 0.239364 -0.0320594 -0.0740695
v 0.114247 -0.166816 0.247301
v 0.0678383 -0.0875817 0.192739
v 0.0809282 0.0832476 -0.228517
v -0.0230322 -0.0099994 0.0815689
v -0.0827358 -0.26803 -0.157141
v 0.190423 -0.091589 0.24439
v 0.197906 -0.111699 0.253549
v -0.129444 -0.0342975 -0.189823
v -0.122702 0.0296461 -0.109144
v -0.0301544 0.213358 -0.156289
v 0.203679 -0.015961 0.127759
v 0.228442 -0.022156 0.116142
v 0.129697 0.0192582 -0.242917
v 0.088595 -0.044614 0.158632
v 0.186092 -0.213397 -0.141523
v 0.058226 0.106718 0.075417
v 0.0554626 0.0513581 0.0866135
v 0.251663 -0.0252428 -0.0093662
v 0.172909 0.0972992 0.0277002
v -0.132308 -0.282044 -0.133297
v 0.071315 0.19457 0.064862
v -0.283215 -0.221292 -0.127237
v -0.241776 -0.167502 0.0543936
v -0.218931 -0.21144 0.053017
v -0.164493 -0.217818 -0.196077
v -0.157505 -0.236511 -0.187544
v 0.141778 -0.287889 0.173348
v 0.0170042 0.261473 0.0271072
v -0.0382826 -0.153052 0.0891747
v 0.274467 -0.0608679 0.0556916
v -0.0206523 0.203452 0.064345
v 0.26283 -0.127474 -0.0520292
v -0.0693735 -0.0300127 0.0639847
v 0.0402835 -0.0415905 -0.251389
v 0.034978 -0.011816 -0.245022
v 0.165735 -0.270822 -0.0044275
v 0.198648 -0.25518 -0.0202752
v -0.114143 -0.0384771 0.044367
v -0.073345 0.103832 0.002536
v -0.0266057 -0.0758233 0.10215
v -0.07815 0.0503099 0.0145267
v 0.278325 -0.242395 0.0957715
v 0.227229 -0.103266 0.238755
v 0.002425 0.095108 0.068576
v 0.2257 0.0102432 -0.0843784
v -0.0605859 -0.0736605 0.083794
v 0.0967225 -0.263245 -0.0871303
v -0.107209 -0.21425 0.05821
v 0.0482618 -0.0305648 0.131446
v 0.200783 0.058824 -0.128121
v -0.067515 -0.187085 0.070534
v 0.030121 0.099964 0.074683
v 0.248886 -0.130564 -0.0972397
v 0.055472 0.242267 0.049832
v 0.243812 -0.272226 0.151163
v 0.0546439 0.0574437 -0.230762
v 0.221585 -0.276204 0.18734
v 0.218144 -0.189972 0.255996
v 0.244686 -0.182256 0.24517
v 0.213499 -0.167402 0.259866
v 0.0899715 -0.0603522 0.18546
v 0.244654 -0.271324 0.102945
v -0.261045 -0.12108 0.0272335
v -0.306381 -0.18792 -0.087806
v 0.150626 0.133687 0.028887
v 0.167409 0.14185 0.002321
v -0.285217 -0.239849 -0.084734
v -0.076626 0.191077 -0.015113
v -0.070216 0.213341 -0.012409
v 0.293674 -0.207352 0.0886949
v 0.263587 -0.0385034 0.0254701
v 0.272362 -0.0761348 0.019561
v 0.0573556 -0.16075 0.193587
v 0.208673 0.022131 -0.137738
v -0.114869 -0.295005 -0.07832
v 0.190053 -0.284104 0.067978
v -0.0780988 -0.282476 -0.115307
v -0.254714 -0.268075 -0.117497
v 0.0569275 -0.232 -0.196858
v -0.17443 -0.233083 0.0512043
v -0.0189605 0.102053 -0.200652
v 0.0206982 -0.276781 0.0235671
v 0.124154 0.256943 0.00818214
v 0.291283 -0.173717 0.059857
v 0.129028 0.006602 0.112828
v 0.283806 -0.150923 0.0212349
v 0.154955 0.219185 0.00666225
v -0.281046 -0.164265 0.017813
v -0.0147706 0.0642346 0.0704212
v -0.018588 0.09351 0.059346
v 0.0320264 0.192144 0.0697064
v -0.057657 0.098228 0.026095
v -0.0146148 0.256056 0.0152326
v 0.058697 -0.196432 0.179774
v 0.300622 -0.219934 0.12876
v 0.158337 -0.290038 0.076749
v 0.218557 0.0108737 0.0649559
v 0.25889 -0.0862163 0.216793
v -0.175218 -0.284364 -0.131264
v 0.154612 -0.296205 0.126014
v -0.122233 -0.292045 -0.104184
v 0.195587 -0.194939 0.259525
v 0.054304 -0.253769 -0.148676
v 0.239172 -0.00616004 -0.0439564
v 0.0507226 -0.285876 -0.0127555
v 0.062884 0.22176 0.05838
v 0.295767 -0.148481 0.064081
v 0.161208 -0.165305 -0.234177
v -0.0542273 0.194315 0.0263676
v -0.0376216 0.164598 0.0585761
v -0.219823 -0.294077 -0.0763
v 0.219806 -0.126953 -0.171071
v -0.222612 -0.284361 -0.00400453
v -0.0305473 -0.133714 -0.244886
v -0.260287 -0.212806 0.031672
v 0.134445 -0.101755 -0.25866
v -0.121061 -0.132374 0.071801
v 0.0952847 -0.288243 0.0653995
v 0.0753058 -0.232569 0.181419
v -0.104027 -0.236299 0.043479
v -0.137595 -0.233291 0.0518197
v 0.113979 -0.031268 0.155429
v 0.221974 -0.217172 0.244738
v -0.07941 0.134482 -0.134806
v 0.185903 -0.189194 -0.173897
v 0.0697711 -0.286334 0.0309078
v 0.133732 -0.0214323 -0.246517
v -0.0225987 -0.288305 -0.0487366
v 0.155081 0.234197 -0.079348
v 0.145742 0.220085 -0.126498
v -0.081611 0.151191 -0.021772
v 0.101799 0.073197 0.073754
v 0.110759 0.120724 0.062308
v -0.105776 0.0700923 -0.0834667
v -0.0035763 -0.142825 0.118381
v -0.177502 -0.028621 -0.030065
v -0.168001 -0.03597 -0.004239
v -0.301019 -0.202876 -0.030388
v 0.0284355 0.0323378 -0.231867
v -0.267394 -0.091276 -0.016636
v -0.29179 -0.108905 -0.0462327
v -0.0550597 0.0153353 0.0532316
v 0.066867 -0.156854 -0.252189
v 0.089635 0.219587 -0.178964
v 0.0471934 0.210221 -0.184636
v -0.128539 -0.0154643 0.00681005
v 0.00482 0.198335 -0.179708
v 0.001808 0.230259 -0.163521
v -0.10907 -0.29236 -0.052132
v 0.12125 0.021434 0.098655
v 0.192894 0.095517 -0.118505
v 0.228771 -0.0319289 -0.113139
v 0.126164 -0.247106 -0.122973
v -0.129267 -0.210121 -0.211365
v 0.303351 -0.133468 0.109674
v -0.288996 -0.0962567 -0.0850094
v 0.287121 -0.226513 0.173831
v 0.215731 -0.0680444 0.218397
v 0.01627 -0.229232 -0.211287
v 0.107402 0.247218 -0.152702
v -0.079598 0.174487 -0.127121
v -0.190942 -0.28211 0.0225423
v -0.152874 -0.300924 -0.0467082
v 0.090715 -0.211412 -0.213785
v -0.225155 -0.109078 -0.169859
v -0.190805 -0.103381 -0.184909
v -0.306597 -0.195969 -0.058871
v 0.160273 -0.0402825 0.181707
v 0.059409 -0.130734 -0.257916
v 0.052802 -0.104064 -0.259866
v 0.262753 -0.064481 -0.0109826
v 0.141325 0.0790578 0.0575722
v 0.132467 0.12704 0.047823
v -0.045585 0.148713 -0.168988
v 0.0365545 0.274717 -0.134374
v -0.0539818 0.179892 -0.153007
v 0.239942 -0.0365468 0.156916
v 0.269495 -0.220904 0.056245
v -0.276771 -0.0938752 -0.12616
v 0.126199 0.063116 -0.234774
v 0.075333 -0.181022 -0.24174
v 0.082829 -0.197747 -0.229352
v 0.270477 -0.0532122 0.133482
v -0.142771 -0.122438 -0.208567
v 0.24991 -0.0227468 0.0656897
v -0.030807 -0.184048 0.084068
v -0.046613 -0.184817 0.076652
v 0.024436 -0.281456 -0.05426
v 0.106145 0.286239 -0.052773
v -0.192947 -0.0783168 0.0448119
v -0.279239 -0.255178 -0.048817
v 0.243209 -0.00259975 0.0283768
v 0.191455 -0.056647 -0.211804
v -0.134758 -0.084943 0.057093
v 0.287394 -0.091642 0.079205
v 0.008759 0.295753 -0.076075
v -0.0237943 0.276733 -0.0490568
v 0.206112 0.0713639 0.00335372
v -0.0471802 0.0585287 0.0508072
v 0.047606 0.260508 0.037547
v 0.0875315 0.0370605 -0.241124
v 0.0836715 0.257434 0.0293958
v 0.306597 -0.141274 0.138323
v -0.0577395 -0.287865 -0.0789534
v -0.150908 -0.164324 0.0723173
v -0.0936228 0.158285 -0.0944919
v 0.177233 0.148968 -0.021862
v 0.09317 0.178895 -0.191304
v 0.0159812 -0.24785 -0.17624
v 0.141417 -0.25754 -0.076833
v -0.2095 -0.286146 -0.115381
v 0.117268 0.104889 -0.219346
v -0.0200204 -0.239127 -0.201271
v 0.294926 -0.122885 0.069974
v -0.14122 -0.004359 -0.035398
v -0.194412 -0.158501 0.0700753
v -0.09386 0.122745 -0.088338
v 0.146179 -0.020649 0.148911
v -0.222003 -0.055143 -0.022787
v -0.0727355 -0.27676 0.00196467
v -0.199752 -0.041882 -0.026426
v 0.282227 -0.198101 0.057252
v 0.0933906 -0.111422 -0.262349
v -0.194778 -0.056862 -0.154274
v -0.193546 -0.078718 -0.171787
v 0.008808 0.164799 -0.192403
v 0.246306 -0.031872 0.106758
v 0.177741 -0.015335 0.138394
v 0.223885 -0.242114 0.228228
v 0.104898 -0.238396 0.210521
v 0.103375 -0.268851 0.182662
v -0.099611 -0.110298 -0.221024
v -0.240589 -0.212826 0.044196
v -0.0510188 -0.181536 -0.239748
v 0.193934 -0.145135 -0.209223
v -0.045495 0.252572 -0.011782
v 0.0591085 0.295161 -0.0690643
v -0.0561293 0.0158654 -0.20829
v 0.131496 -0.290251 0.085246
v -0.0727714 -0.141527 -0.233162
v 0.182431 -0.28961 0.165592
v 0.124615 0.210651 -0.161305
v 0.232128 -0.235287 -0.0375026
v -0.00479722 -0.278551 -0.0915865
v -0.023406 0.271469 -0.014656
v 0.278823 -0.192797 0.0207665
v 0.234407 -0.122486 -0.137889
v -0.140381 -0.168821 -0.214881
v 0.28389 -0.113506 0.0323743
v 0.1594 0.0795503 -0.204793
v 0.090971 0.115657 0.069933
v -0.264505 -0.27209 -0.057244
v -0.246275 -0.284864 -0.065872
v -0.102678 0.0163434 -0.0042865
v -0.0375225 0.247447 -0.125794
v -0.14276 -0.0819762 -0.200781
v -0.0847512 -0.0277103 -0.208801
v -0.185407 -0.02434 -0.062523
v -0.282344 -0.109301 -0.015811
v 0.241991 -0.0532203 0.19374
v 0.113752 0.038176 0.086817
v 0.0153505 0.120645 -0.205558
v 0.138421 -0.203144 0.252417
v 0.134486 0.198449 0.0409279
v -0.0894399 0.171994 -0.0561427
v 0.216845 -0.025231 -0.150303
v 0.113223 0.230339 0.038275
v 0.261565 -0.045695 0.097928
v 0.0827367 0.279517 -0.1349
v 0.164205 0.174586 -0.128481
v -0.154383 -0.000576244 -0.0856742
v -0.00154679 -0.0983802 0.123981
v -0.291241 -0.173444 -0.130466
v -0.262381 -0.19552 -0.158147
v 0.255155 -0.251358 0.187586
v 0.03386 -0.128757 0.15759
v 0.045589 -0.071365 -0.257756
v 0.054671 -0.245025 0.124925
v 0.106436 -0.28776 0.141014
v 0.100505 -0.224369 -0.191527
v 0.022833 0.294165 -0.024431
v 0.014485 0.297435 -0.052837
v 0.001432 0.286233 -0.019328
v 0.083116 -0.244895 -0.155435
v 0.140399 0.151861 -0.177888
v 0.149308 0.177894 -0.15081
v 0.153902 0.172925 0.0229821
v -0.066254 0.140683 -0.151857
v -0.201889 -0.296865 -0.0428707
v 0.182075 0.0113144 0.0957573
v 0.223686 -0.263356 0.207285
v -0.181563 -0.262059 -0.16714
v -0.249052 -0.0563587 -0.105993
v -0.234737 -0.0749007 -0.147515
v 0.200839 -0.101427 -0.209559
v -0.264636 -0.0725816 -0.0581956
v 0.273289 -0.164796 -0.0207918
v 0.035408 -0.190933 0.146804
v 0.119765 0.270875 -0.0253708
v -0.0175427 0.029116 0.075035
v 0.211568 0.083942 -0.0433846
v -0.111236 -0.247566 -0.191123
v 0.105492 -0.059937 -0.257034
v 0.0137187 -0.124874 -0.25505
v 0.153576 -0.264181 -0.0406303
v -0.293849 -0.129604 -0.016552
v 0.261819 -0.0947473 -0.0428253
v 0.081986 -0.20193 0.212745
v 0.0629442 0.12596 -0.214734
v -0.0564505 -0.0981572 -0.233482
v 0.089148 0.0293604 0.0927774
v 0.171954 0.180436 -0.0111016
v -0.109133 -0.0637199 -0.208989
v 0.305242 -0.149722 0.166955
v -0.218353 -0.144736 -0.18395
v -0.185932 -0.134578 -0.196109
v 0.299138 -0.156984 0.188815
v -0.0396512 -0.113314 0.0936355
v 0.148757 0.0370715 0.0761706
v 0.021893 0.0764915 -0.218712
v -0.0640824 -0.246945 -0.193959
v 0.159557 -0.235146 -0.122838
v 0.141786 -0.221931 -0.168215
v -0.301324 -0.180852 -0.110133
v -0.0376726 0.1259 0.0542091
v -0.0382 -0.282946 -0.00798957
v -0.249683 -0.236378 -0.162791
v -0.037593 0.094393 0.0464
v 0.195791 0.125735 -0.0553099
v -0.15892 -0.129223 0.0723206
v -0.162329 -0.0963817 0.0614112
v 0.0103026 0.231001 0.0521807
v -0.127792 -0.104967 0.066074
v 0.125019 0.274494 -0.061326
v 0.0976303 0.285425 -0.0929989
v 0.10813 0.053066 0.079595
v 0.140529 0.25844 -0.069673
v 0.218132 -0.199433 -0.121188
v -0.059855 0.234194 -0.011214
v -0.021785 0.156425 -0.181702
v 0.117109 -0.204293 0.242996
v 0.13775 -0.232555 0.235921
v 0.054411 0.249224 -0.163676
v 0.031988 -0.15731 0.153869
v 0.059646 -0.274017 0.0792114
v 0.28541 -0.193096 0.195817
v 0.288168 -0.114657 0.194159
v 0.2391 0.0104031 -0.00840137
v 0.0289382 -0.262282 0.0603473
v -0.0295719 -0.257266 -0.165452
v -0.077103 -0.0673667 -0.221009
v -0.226289 -0.043922 -0.0658446
v 0.0849285 0.141085 0.068964
v -0.248943 -0.155199 -0.168283
v 0.078886 0.166512 0.067995
v -0.272242 -0.164189 -0.151598
v -0.206187 -0.230679 -0.181793
v -0.00755885 -0.24472 0.0522312
v 0.120813 -0.0536447 0.193186
v -0.00394997 -0.170555 -0.248971
v 0.160273 -0.0402825 0.181707
v 0.146179 -0.020649 0.148911
v 0.175941 -0.054699 -0.227531
v 0.208673 0.022131 -0.137738
v 0.222791 -0.099876 -0.16674
v 0.221916 -0.06698 -0.159984
v 0.051627 -0.080465 0.160194
v -0.045495 0.252572 -0.011782
v -0.222003 -0.055143 -0.022787
v -0.245729 -0.07185 -0.019185
v 0.150626 0.133687 0.028887
v 0.207007 -0.06074 -0.189414
v 0.221916 -0.06698 -0.159984
v 0.221916 -0.06698 -0.159984
v 0.236349 -0.076174 -0.120205
v 0.213611 -0.148134 -0.173395
v 0.105655 -0.28537 0.094963
v 0.218144 -0.189972 0.255996
v 0.244686 -0.182256 0.24517
v 0.0284355 0.0323378 -0.231867
v 0.268448 -0.173611 0.229075
v 0.101799 0.073197 0.073754
v -0.115842 -0.160842 0.072106
v -0.289855 -0.20819 -0.003844
v -0.27687 -0.21119 0.015344
v -0.303428 -0.174549 -0.023341
v -0.260287 -0.212806 0.031672
v -0.300867 -0.151706 -0.019131
v 0.111928 -0.236021 -0.162193
v 0.041176 -0.100965 0.159588
v -0.093447 0.117371 -0.060842
v 0.0101698 -0.263338 -0.137553
v 0.008808 0.164799 -0.192403
v 0.088595 -0.044614 0.158632
v -0.012597 -0.184323 0.096109
v 0.165685 0.207679 -0.088101
v 0.177114 0.168903 -0.099272
v 0.014485 0.297435 -0.052837
v 0.146179 -0.020649 0.148911
v 0.177741 -0.015335 0.138394
v 0.129028 0.006602 0.112828
v -0.102517 -0.255207 0.024359
v -0.07941 0.134482 -0.134806
v -0.059855 0.234194 -0.011214
v 0.250783 -0.085368 -0.080425
v 0.03488 0.170611 -0.196972
v 0.066863 0.175947 -0.196765
v -0.0564505 -0.0981572 -0.233482
v -0.218353 -0.144736 -0.18395
v 0.126164 -0.247106 -0.122973
v 0.141786 -0.221931 -0.168215
v 0.000909 0.275645 -0.12493
v -0.076626 0.191077 -0.015113
v -0.067515 -0.187085 0.070534
v -0.110675 -0.194314 0.0661
v 0.141417 -0.25754 -0.076833
v 0.098146 -0.203827 0.22945
v 0.117109 -0.204293 0.242996
v 0.03386 -0.128757 0.15759
v -0.099611 -0.110298 -0.221024
v 0.131496 -0.290251 0.085246
v 0.164205 0.174586 -0.128481
v 0.177114 0.168903 -0.099272
v -0.086596 0.111305 -0.028431
v -0.097013 0.064509 -0.034598
v 0.165735 -0.270822 -0.0044275
v 0.177894 -0.277463 0.0317753
v -0.018588 0.09351 0.059346
v 0.112934 0.179956 -0.18266
v 0.164802 -0.207154 -0.171718
v 0.022833 0.294165 -0.024431
v 0.086734 -0.277177 0.103723
v 0.00039 0.254904 -0.146424
v 0.0161495 -0.078691 -0.251848
v 0.001432 0.286233 -0.019328
v 0.031845 0.286044 0.002201
v 0.125019 0.274494 -0.061326
v -0.104766 0.044065 -0.036298
v -0.162772 -0.297005 -0.094181
v 0.003954 -0.18567 0.110449
v 0.031988 -0.15731 0.153869
v 0.062884 0.22176 0.05838
v 0.0402835 -0.0415905 -0.251389
v 0.157752 -0.054402 -0.240141
v 0.216845 -0.025231 -0.150303
v -0.141146 -0.269437 -0.15568
v 0.066135 -0.062595 0.160063
v 0.202693 -0.288207 0.107759
v 0.213856 -0.274399 0.062522
v -0.164493 -0.217818 -0.196077
v -0.194633 -0.042623 -0.136957
v -0.194778 -0.056862 -0.154274
v -0.219823 -0.294077 -0.0763
v -0.125573 0.010883 -0.036792
v -0.115106 0.024864 -0.037042
v -0.291241 -0.173444 -0.130466
v 0.166785 -0.199797 0.258576
v 0.261819 -0.0947473 -0.0428253
v -0.162042 -0.20385 0.063411
v -0.190725 -0.208243 0.059876
v 0.082829 -0.197747 -0.229352
v -0.157505 -0.236511 -0.187544
v 0.195587 -0.194939 0.259525
v 0.218144 -0.189972 0.255996
v 0.213499 -0.167402 0.259866
v 0.008808 0.164799 -0.192403
v -0.218931 -0.21144 0.053017
v -0.240589 -0.212826 0.044196
v 0.223885 -0.242114 0.228228
v 0.132467 0.12704 0.047823
v 0.110759 0.120724 0.062308
v 0.158337 -0.290038 0.076749
v 0.190053 -0.284104 0.067978
v -0.086596 0.111305 -0.028431
v -0.081611 0.151191 -0.021772
v -0.185932 -0.134578 -0.196109
v 0.0153505 0.120645 -0.205558
v 0.045589 -0.071365 -0.257756
v 0.052802 -0.104064 -0.259866
v 0.155081 0.234197 -0.079348
v 0.140529 0.25844 -0.069673
v -0.193546 -0.078718 -0.171787
v 0.246306 -0.031872 0.106758
v 0.228442 -0.022156 0.116142
v -0.14122 -0.004359 -0.035398
v -0.246275 -0.284864 -0.065872
v -0.172456 -0.192372 -0.201296
v 0.002425 0.095108 0.068576
v -0.279239 -0.255178 -0.048817
v -0.292774 -0.230222 -0.039015
v 0.09317 0.178895 -0.191304
v -0.0339645 -0.272907 -0.12643
v 0.054304 -0.253769 -0.148676
v 0.008759 0.295753 -0.076075
v 0.287394 -0.091642 0.079205
v 0.294926 -0.122885 0.069974
v 0.28389 -0.113506 0.0323743
v 0.113979 -0.031268 0.155429
v 0.106145 0.286239 -0.052773
v -0.306381 -0.18792 -0.087806
v -0.301324 -0.180852 -0.110133
v -0.142771 -0.122438 -0.208567
v -0.180595 -0.160806 -0.201082
v -0.185932 -0.134578 -0.196109
v 0.138421 -0.203144 0.252417
v -0.190805 -0.103381 -0.184909
v 0.075333 -0.181022 -0.24174
v 0.28802 -0.164458 0.208508
v -0.248943 -0.155199 -0.168283
v -0.066254 0.140683 -0.151857
v -0.045585 0.148713 -0.168988
v 0.146179 -0.020649 0.148911
v 0.10813 0.053066 0.079595
v 0.003357 0.287524 -0.104364
v 0.059409 -0.130734 -0.257916
v -0.01329 -0.086017 -0.24594
v -0.127792 -0.104967 0.066074
v 0.282227 -0.198101 0.057252
v 0.291283 -0.173717 0.059857
v -0.023406 0.271469 -0.014656
v -0.185407 -0.02434 -0.062523
v -0.264505 -0.27209 -0.057244
v 0.100505 -0.224369 -0.191527
v 0.090715 -0.211412 -0.213785
v 0.253802 -0.2418 0.056711
v 0.054671 -0.245025 0.124925
v 0.043464 -0.221754 0.13584
v 0.035408 -0.190933 0.146804
v 0.035408 -0.190933 0.146804
v -0.088514 0.128871 -0.115152
v 0.305242 -0.149722 0.166955
v 0.030121 0.099964 0.074683
v -0.293849 -0.129604 -0.016552
v 0.058697 -0.196432 0.179774
v 0.12125 0.021434 0.098655
v 0.219806 -0.126953 -0.171071
v 0.294926 -0.122885 0.069974
v 0.303351 -0.133468 0.109674
v 0.295767 -0.148481 0.064081
v 0.034978 -0.011816 -0.245022
v -0.168001 -0.03597 -0.004239
v -0.199752 -0.041882 -0.026426
v 0.221585 -0.276204 0.18734
v 0.217668 -0.284345 0.16529
v -0.073345 0.103832 0.002536
v -0.177502 -0.028621 -0.030065
v 0.269495 -0.220904 0.056245
v 0.299138 -0.156984 0.188815
v -0.301019 -0.202876 -0.030388
v -0.306597 -0.195969 -0.058871
v 0.070505 -0.264948 0.113138
v 0.185004 0.13221 -0.108888
v 0.182697 0.162986 -0.073535
v -0.105032 -0.284852 -0.026614
v -0.102842 -0.273364 -0.002363
v 0.306597 -0.141274 0.138323
v 0.066867 -0.156854 -0.252189
v 0.055472 0.242267 0.049832
v -0.190272 -0.025494 -0.090098
v 0.190053 -0.284104 0.067978
v -0.177502 -0.028621 -0.030065
v 0.090971 0.115657 0.069933
v 0.021893 0.0764915 -0.218712
v 0.105492 -0.059937 -0.257034
v 0.078442 -0.064671 -0.259378
v 0.045589 -0.071365 -0.257756
v -0.177502 -0.028621 -0.030065
v 0.078886 0.166512 0.067995
v -0.193416 -0.032372 -0.11709
v -0.121061 -0.132374 0.071801
v 0.111928 -0.236021 -0.162193
v 0.083116 -0.244895 -0.155435
v -0.037593 0.094393 0.0464
v -0.057657 0.098228 0.026095
v 0.177233 0.148968 -0.021862
v -0.191547 -0.297435 -0.085857
v 0.203454 -0.167786 -0.17444
v 0.182597 0.156179 -0.047381
v 0.203679 -0.015961 0.127759
v 0.272855 -0.104126 -0.0052255
v 0.223686 -0.263356 0.207285
v 0.197906 -0.111699 0.253549
v 0.190423 -0.091589 0.24439
v -0.046613 -0.184817 0.076652
v -0.030807 -0.184048 0.084068
v -0.114869 -0.295005 -0.07832
v 0.174367 -0.059916 0.214502
v 0.182464 -0.074209 0.231054
v 0.153576 -0.264181 -0.0406303
v 0.261565 -0.045695 0.097928
v -0.272242 -0.164189 -0.151598
v 0.190053 -0.284104 0.067978
v 0.235156 -0.260002 0.058789
v 0.130637 0.179749 -0.170286
v -0.021785 0.156425 -0.181702
v 0.167409 0.14185 0.002321
v 0.111928 -0.236021 -0.162193
v 0.191455 -0.056647 -0.211804
v -0.086596 0.111305 -0.028431
v 0.081986 -0.20193 0.212745
v -0.185932 -0.134578 -0.196109
v -0.301019 -0.202876 -0.030388
v 0.177114 0.168903 -0.099272
v 0.13234 -0.05627 -0.25093
v -0.154547 -0.050589 0.024125
v 0.047606 0.260508 0.037547
v 0.039591 0.275301 0.02138
v 0.00482 0.198335 -0.179708
v 0.001808 0.230259 -0.163521
v 0.045589 -0.071365 -0.257756
v 0.051187 0.297276 -0.032778
v 0.090971 0.115657 0.069933
v 0.113752 0.038176 0.086817
v 0.090971 0.115657 0.069933
v 0.0849285 0.141085 0.068964
v 0.058226 0.106718 0.075417
v -0.150237 -0.252816 -0.175193
v 0.294926 -0.122885 0.069974
v -0.107209 -0.21425 0.05821
v -0.136358 -0.199082 0.0647555
v -0.267394 -0.091276 -0.016636
v 0.221974 -0.217172 0.244738
v -0.132308 -0.282044 -0.133297
v -0.0780988 -0.282476 -0.115307
v 0.008808 0.164799 -0.192403
v 0.21082 -0.28851 0.136501
v 0.276613 -0.067169 0.088007
v -0.143129 -0.067715 0.044321
v 0.149308 0.177894 -0.15081
v 0.079483 0.294642 -0.042407
v 0.218144 -0.189972 0.255996
v -0.122233 -0.292045 -0.104184
v 0.071315 0.19457 0.064862
v -0.122233 -0.292045 -0.104184
v -0.301019 -0.202876 -0.030388
v -0.070216 0.213341 -0.012409
v -0.134758 -0.084943 0.057093
v 0.206275 -0.139091 0.259327
v 0.200783 0.058824 -0.128121
v 0.192894 0.095517 -0.118505
v 0.022833 0.294165 -0.024431
v -0.104027 -0.236299 0.043479
v -0.110675 -0.194314 0.0661
v -0.110675 -0.194314 0.0661
v -0.10907 -0.29236 -0.052132
v -0.122233 -0.292045 -0.104184
v 0.022833 0.294165 -0.024431
v 0.035408 -0.190933 0.146804
v -0.282344 -0.109301 -0.015811
v 0.185903 -0.189194 -0.173897
v -0.09386 0.122745 -0.088338
f 446 579 4
f 5 6 7
f 160 9 10
f 254 327 468
f 125 135 27
f 506 16 17
f 557 560 558
f 183 422 113
f 325 574 95
f 146 320 463
f 29 30 31
f 21 118 482
f 361 41 42
f 43 44 525
f 48 49 50
f 23 229 20
f 54 577 56
f 163 24 20
f 461 587 205
f 337 552 164
f 258 337 69
f 21 57 196
f 178 332 76
f 73 327 75
f 74 424 118
f 154 308 58
f 80 81 82
f 83 84 85
f 308 63 58
f 514 179 292
f 142 306 386
f 408 140 64
f 155 586 23
f 445 395 455
f 99 100 101
f 102 103 104
f 349 588 589
f 272 301 25
f 71 116 117
f 76 34 178
f 532 178 34
f 127 128 129
f 151 590 354
f 143 587 531
f 136 137 138
f 22 40 107
f 151 22 107
f 107 217 151
f 107 40 591
f 225 40 477
f 225 477 89
f 157 158 159
f 380 511 67
f 138 137 161
f 162 159 158
f 52 440 548
f 548 79 52
f 164 69 337
f 42 170 156
f 468 172 284
f 164 279 198
f 464 423 509
f 198 69 164
f 14 231 260
f 499 103 32
f 103 499 503
f 278 188 189
f 72 452 451
f 195 372 197
f 32 14 267
f 201 482 203
f 265 206 207
f 208 209 210
f 65 119 280
f 213 214 423
f 215 218 193
f 330 150 226
f 592 221 593
f 137 62 342
f 583 581 501
f 249 501 554
f 524 313 473
f 270 233 234
f 65 259 524
f 276 92 241
f 390 194 218
f 243 244 359
f 145 63 366
f 153 89 439
f 55 467 461
f 475 55 381
f 229 594 166
f 423 464 213
f 507 64 550
f 335 202 64
f 550 64 171
f 129 81 127
f 544 573 124
f 544 124 541
f 384 124 573
f 74 566 595
f 220 345 219
f 553 175 447
f 285 286 287
f 133 169 596
f 597 133 596
f 286 160 287
f 598 246 293
f 82 81 129
f 196 295 296
f 599 493 600
f 601 379 602
f 112 3 141
f 303 80 82
f 19 3 112
f 3 72 141
f 498 236 19
f 316 317 426
f 205 440 52
f 205 52 461
f 71 117 41
f 205 142 386
f 305 554 90
f 235 72 3
f 185 105 43
f 313 334 311
f 165 235 3
f 19 165 3
f 603 462 339
f 324 412 419
f 324 419 13
f 552 70 319
f 327 506 604
f 552 319 555
f 605 350 606
f 320 146 559
f 62 340 389
f 356 357 33
f 361 77 131
f 389 134 62
f 516 39 390
f 607 152 262
f 327 323 75
f 381 253 252
f 46 371 469
f 231 32 186
f 379 177 602
f 608 11 573
f 606 11 608
f 350 11 606
f 397 450 396
f 134 460 62
f 473 313 311
f 392 393 542
f 210 209 394
f 567 453 308
f 353 576 309
f 609 399 360
f 360 399 400
f 332 353 309
f 184 541 124
f 610 2 1
f 20 166 300
f 315 611 612
f 315 613 611
f 315 612 614
f 315 615 613
f 418 137 136
f 467 537 341
f 461 467 341
f 341 587 461
f 258 559 146
f 559 255 320
f 270 385 233
f 20 24 23
f 250 8 290
f 58 93 78
f 71 442 116
f 114 443 115
f 134 389 182
f 95 410 404
f 273 545 267
f 550 616 507
f 239 410 454
f 125 518 135
f 125 284 518
f 95 183 410
f 66 465 145
f 253 381 529
f 5 122 6
f 456 11 350
f 287 160 35
f 439 230 536
f 439 407 230
f 617 166 594
f 230 407 428
f 8 211 417
f 417 169 133
f 474 280 30
f 433 444 618
f 176 433 351
f 330 226 619
f 195 620 374
f 374 372 195
f 180 97 437
f 288 349 621
f 23 586 288
f 312 538 88
f 377 538 312
f 429 333 494
f 88 538 244
f 622 362 256
f 497 623 624
f 90 519 326
f 2 432 114
f 103 503 104
f 261 504 36
f 610 432 2
f 508 625 510
f 167 218 389
f 167 389 340
f 163 228 24
f 626 627 628
f 63 145 465
f 629 175 347
f 415 226 76
f 515 78 630
f 273 260 190
f 140 370 450
f 105 199 585
f 219 345 466
f 86 180 565
f 146 463 631
f 242 565 180
f 534 259 632
f 536 633 634
f 578 635 459
f 179 216 582
f 64 391 409
f 85 636 543
f 456 502 11
f 263 81 80
f 65 139 119
f 549 637 638
f 214 402 639
f 11 502 384
f 70 640 358
f 385 487 181
f 385 181 222
f 494 491 314
f 563 399 609
f 258 146 336
f 568 18 569
f 25 378 168
f 275 641 642
f 315 250 290
f 484 465 66
f 643 274 380
f 580 179 582
f 291 60 551
f 578 484 66
f 438 338 305
f 137 126 340
f 553 355 173
f 228 644 645
f 198 318 69
f 258 69 318
f 333 216 494
f 7 429 5
f 427 429 7
f 429 281 333
f 584 84 83
f 166 646 571
f 258 318 559
f 537 467 647
f 13 12 425
f 272 12 331
f 127 191 128
f 191 473 128
f 327 648 323
f 327 604 648
f 260 231 369
f 649 650 132
f 22 240 407
f 407 477 22
f 266 651 652
f 653 654 200
f 653 200 178
f 399 546 110
f 460 134 251
f 570 372 375
f 564 562 561
f 226 150 274
f 274 150 380
f 310 5 429
f 494 310 429
f 549 437 637
f 565 119 86
f 114 432 443
f 21 482 109
f 173 415 332
f 471 415 355
f 655 552 555
f 87 173 309
f 173 332 309
f 87 585 96
f 186 32 276
f 88 186 276
f 125 27 254
f 27 569 457
f 512 153 656
f 468 284 125
f 260 273 14
f 565 242 31
f 362 545 256
f 85 84 636
f 242 352 31
f 242 657 352
f 414 199 413
f 79 55 461
f 91 467 55
f 475 91 55
f 265 373 206
f 585 199 96
f 122 658 6
f 604 506 659
f 549 242 180
f 660 570 375
f 531 37 661
f 390 38 302
f 584 90 554
f 344 557 432
f 662 255 663
f 526 664 416
f 379 272 227
f 579 520 523
f 529 149 148
f 57 109 388
f 153 435 656
f 268 652 665
f 216 248 582
f 522 592 339
f 547 536 230
f 43 105 44
f 489 536 547
f 636 84 581
f 315 486 533
f 22 477 40
f 254 468 125
f 320 662 472
f 326 438 90
f 438 326 666
f 97 86 470
f 218 194 193
f 362 667 668
f 211 557 558
f 559 318 669
f 262 152 670
f 213 402 214
f 161 137 342
f 52 79 461
f 322 15 269
f 470 86 139
f 209 368 383
f 153 536 634
f 251 134 307
f 371 570 387
f 671 354 590
f 501 500 583
f 240 151 354
f 499 362 503
f 111 498 112
f 454 410 495
f 375 372 374
f 182 307 134
f 569 27 135
f 379 672 301
f 497 357 623
f 439 477 407
f 519 673 247
f 288 621 674
f 45 469 513
f 675 676 289
f 645 490 228
f 49 121 50
f 536 489 633
f 320 472 463
f 280 119 30
f 32 231 14
f 32 267 499
f 83 677 584
f 459 540 578
f 521 678 679
f 540 484 578
f 411 483 459
f 521 520 678
f 483 540 459
f 406 521 120
f 126 480 680
f 383 60 209
f 51 49 522
f 433 618 492
f 405 473 449
f 681 481 682
f 333 248 216
f 551 174 683
f 53 490 47
f 470 264 97
f 359 478 243
f 569 135 684
f 684 135 329
f 181 395 222
f 313 476 334
f 196 74 21
f 59 177 227
f 177 59 685
f 264 470 127
f 357 469 387
f 685 59 398
f 307 686 687
f 280 259 65
f 688 306 142
f 120 521 392
f 567 308 154
f 181 238 455
f 139 191 470
f 677 689 519
f 404 239 238
f 288 674 229
f 690 691 692
f 126 479 480
f 130 649 132
f 633 489 693
f 694 250 695
f 696 135 518
f 140 408 370
f 697 179 698
f 699 654 700
f 701 702 618
f 271 552 655
f 271 164 552
f 340 62 137
f 393 703 542
f 308 453 704
f 154 401 567
f 55 79 381
f 428 283 230
f 705 706 661
f 376 431 144
f 28 707 708
f 709 521 679
f 710 412 711
f 364 373 712
f 199 105 185
f 402 496 570
f 441 334 476
f 201 237 482
f 96 199 641
f 34 76 274
f 95 487 325
f 305 338 713
f 391 64 507
f 714 381 252
f 288 229 23
f 92 103 102
f 244 186 88
f 473 191 524
f 715 317 316
f 343 140 450
f 483 72 235
f 294 716 717
f 216 179 491
f 718 372 371
f 392 521 709
f 330 511 150
f 141 72 451
f 470 191 127
f 499 267 545
f 140 343 51
f 471 431 719
f 64 140 335
f 340 126 516
f 68 527 186
f 539 434 204
f 74 196 296
f 178 532 653
f 73 468 327
f 172 468 73
f 536 153 439
f 76 332 415
f 78 154 58
f 436 386 306
f 413 199 185
f 436 306 720
f 436 720 56
f 424 625 721
f 722 723 724
f 88 276 725
f 269 297 322
f 289 269 15
f 522 49 420
f 420 49 48
f 289 15 282
f 213 464 562
f 496 402 213
f 15 322 384
f 464 123 726
f 249 727 728
f 166 617 646
f 729 730 731
f 672 379 601
f 568 569 732
f 483 411 733
f 483 733 72
f 98 152 530
f 688 142 734
f 573 544 735
f 528 12 25
f 174 120 736
f 239 404 410
f 553 447 144
f 400 399 246
f 283 428 607
f 184 124 322
f 519 247 326
f 737 403 738
f 88 725 739
f 505 106 572
f 485 498 111
f 538 488 740
f 721 741 118
f 265 207 421
f 140 51 335
f 531 706 742
f 276 241 725
f 743 66 147
f 181 455 395
f 677 519 584
f 188 256 545
f 744 26 190
f 244 538 359
f 297 745 746
f 26 188 545
f 424 510 625
f 424 747 510
f 273 190 26
f 226 415 471
f 479 126 418
f 579 448 748
f 749 294 713
f 750 306 751
f 698 179 580
f 737 351 388
f 491 514 314
f 269 289 752
f 486 315 290
f 344 432 610
f 223 385 222
f 15 384 502
f 192 524 259
f 17 16 753
f 753 16 754
f 524 192 313
f 577 436 56
f 493 217 107
f 572 576 353
f 36 147 261
f 755 300 571
f 19 236 224
f 227 272 331
f 174 60 406
f 355 553 144
f 435 153 634
f 431 355 144
f 87 175 553
f 465 93 58
f 754 16 346
f 754 346 321
f 514 491 179
f 667 756 668
f 71 498 442
f 442 498 485
f 630 77 757
f 183 574 758
f 183 95 574
f 759 244 243
f 430 183 758
f 183 430 382
f 368 208 760
f 351 433 388
f 368 209 208
f 300 755 761
f 474 100 99
f 99 280 474
f 546 762 628
f 250 694 115
f 474 763 100
f 29 763 474
f 474 30 29
f 734 142 143
f 110 546 517
f 764 765 766
f 240 152 428
f 680 516 126
f 272 25 12
f 404 181 487
f 404 487 95
f 112 498 19
f 4 579 523
f 228 163 644
f 206 373 364
f 320 255 662
f 365 210 394
f 513 357 497
f 400 246 598
f 389 218 182
f 587 341 531
f 767 147 145
f 315 614 250
f 554 501 84
f 768 363 769
f 71 361 236
f 261 147 767
f 25 168 528
f 428 152 607
f 770 771 282
f 772 319 70
f 110 246 399
f 361 71 41
f 748 448 773
f 595 747 424
f 12 13 575
f 269 752 774
f 269 774 297
f 118 21 74
f 384 322 124
f 64 202 171
f 574 10 775
f 46 469 45
f 776 777 717
f 619 226 471
f 505 572 778
f 25 277 378
f 608 573 735
f 556 779 780
f 781 144 782
f 316 527 68
f 349 586 588
f 783 184 765
f 746 184 297
f 293 246 61
f 765 184 766
f 766 184 746
f 458 346 16
f 159 707 157
f 734 143 784
f 233 385 223
f 115 443 250
f 27 458 254
f 62 460 342
f 785 559 669
f 187 373 265
f 187 265 260
f 260 369 187
f 143 142 587
f 579 748 786
f 410 183 113
f 216 491 494
f 109 57 21
f 482 237 109
f 74 296 566
f 425 528 61
f 787 676 675
f 484 94 465
f 93 465 94
f 224 165 19
f 165 224 94
f 94 484 235
f 127 81 264
f 59 331 245
f 309 576 585
f 442 485 788
f 84 584 554
f 609 360 789
f 72 733 452
f 790 63 308
f 791 450 792
f 343 450 791
f 397 793 792
f 428 407 240
f 328 666 326
f 643 34 274
f 531 341 37
f 664 526 28
f 384 573 11
f 63 790 366
f 249 554 305
f 523 383 368
f 584 519 90
f 713 294 305
f 364 712 794
f 246 425 61
f 517 324 110
f 492 702 295
f 782 144 447
f 318 198 795
f 520 579 796
f 314 310 494
f 387 33 357
f 244 68 186
f 77 78 131
f 189 188 797
f 154 78 515
f 268 266 652
f 425 12 528
f 406 383 520
f 797 26 744
f 797 188 26
f 190 265 421
f 335 51 462
f 798 799 750
f 13 110 324
f 110 13 425
f 246 110 425
f 426 800 801
f 293 61 802
f 299 257 724
f 496 387 570
f 371 372 570
f 490 53 228
f 353 345 572
f 438 803 338
f 190 260 265
f 202 462 804
f 496 562 33
f 49 343 121
f 203 482 118
f 203 118 741
f 76 226 274
f 396 450 370
f 268 801 266
f 571 300 166
f 556 780 805
f 20 300 163
f 517 627 806
f 628 517 546
f 517 628 627
f 181 404 238
f 685 398 807
f 371 387 469
f 294 777 727
f 306 750 799
f 34 643 532
f 808 502 456
f 305 294 249
f 572 345 220
f 108 809 810
f 256 811 812
f 809 108 53
f 306 799 720
f 304 431 813
f 108 814 155
f 108 815 814
f 155 23 24
f 24 108 155
f 535 300 761
f 53 108 24
f 228 53 24
f 348 182 215
f 466 345 200
f 743 147 36
f 670 152 98
f 575 419 245
f 13 419 575
f 28 708 664
f 264 81 263
f 264 263 816
f 154 515 401
f 49 51 343
f 817 412 710
f 25 301 277
f 683 174 818
f 398 298 299
f 367 133 597
f 150 511 380
f 133 367 290
f 57 433 492
f 146 631 336
f 524 191 139
f 39 516 680
f 145 147 66
f 328 326 247
f 467 91 647
f 75 323 819
f 289 676 820
f 821 512 656
f 738 403 822
f 785 255 559
f 305 90 438
f 539 514 823
f 512 130 89
f 264 816 97
f 437 97 816
f 377 488 538
f 288 586 349
f 153 512 89
f 130 225 89
f 393 392 709
f 268 369 426
f 587 142 205
f 88 739 312
f 824 638 637
f 217 599 825
f 772 358 826
f 590 151 217
f 217 493 599
f 283 547 230
f 678 520 796
f 259 280 632
f 315 533 615
f 96 641 275
f 520 383 523
f 245 398 59
f 58 63 465
f 517 806 711
f 324 517 711
f 324 711 412
f 145 366 767
f 18 457 569
f 778 572 220
f 457 458 27
f 827 457 18
f 321 346 827
f 131 236 361
f 751 306 688
f 383 406 60
f 501 249 500
f 359 538 740
f 529 381 79
f 828 733 411
f 138 829 136
f 316 68 715
f 528 556 61
f 339 462 522
f 556 802 61
f 556 528 168
f 552 337 70
f 376 144 781
f 830 780 779
f 436 577 440
f 89 477 439
f 443 557 211
f 131 78 93
f 427 281 429
f 475 730 729
f 143 531 742
f 362 668 503
f 354 671 831
f 65 524 139
f 768 169 832
f 388 433 57
f 832 169 417
f 12 575 331
f 331 575 245
f 255 785 833
f 255 833 834
f 770 282 502
f 180 437 549
f 16 506 458
f 346 457 827
f 521 406 520
f 835 237 836
f 251 307 687
f 98 837 670
f 128 473 405
f 93 224 131
f 556 805 802
f 551 60 174
f 486 290 367
f 578 66 635
f 253 529 148
f 440 205 386
f 440 386 436
f 498 71 236
f 727 249 294
f 640 70 336
f 535 163 300
f 464 509 838
f 464 838 123
f 580 839 698
f 240 354 152
f 307 182 348
f 267 14 273
f 623 357 356
f 180 86 97
f 325 270 160
f 160 574 325
f 325 385 270
f 314 539 157
f 514 539 314
f 547 283 607
f 362 622 667
f 572 106 576
f 635 66 743
f 514 292 823
f 257 299 298
f 513 469 357
f 347 175 96
f 546 840 762
f 546 399 563
f 841 842 843
f 337 336 70
f 157 28 314
f 803 438 666
f 410 113 495
f 686 307 348
f 444 433 176
f 529 79 548
f 347 96 275
f 412 257 298
f 418 126 137
f 519 844 673
f 519 689 844
f 556 168 779
f 845 422 382
f 484 540 235
f 235 165 94
f 155 588 586
f 588 155 814
f 355 415 173
f 846 847 348
f 229 166 20
f 786 796 579
f 4 523 848
f 178 353 332
f 406 120 174
f 849 135 696
f 157 707 28
f 47 212 53
f 280 99 632
f 690 212 47
f 692 212 690
f 37 341 537
f 91 475 729
f 529 232 149
f 232 850 149
f 506 254 458
f 256 278 811
f 548 577 232
f 232 577 54
f 232 851 850
f 835 852 822
f 744 190 421
f 64 409 408
f 675 289 853
f 712 373 681
f 854 257 817
f 417 855 832
f 87 309 585
f 647 91 729
f 527 316 426
f 539 204 157
f 249 728 500
f 821 856 512
f 545 362 499
f 33 387 496
f 807 299 724
f 857 122 5
f 682 481 665
f 481 268 665
f 373 187 481
f 858 329 849
f 481 187 268
f 74 595 424
f 851 859 850
f 245 298 398
f 860 669 318
f 294 749 716
f 853 282 771
f 94 224 93
f 539 823 434
f 298 245 419
f 412 298 419
f 302 38 861
f 348 847 686
f 579 446 448
f 695 250 614
f 611 613 862
f 394 209 291
f 209 60 291
f 530 152 354
f 638 242 549
f 443 432 557
f 403 388 109
f 237 835 822
f 581 84 501
f 546 563 840
f 96 175 87
f 107 591 493
f 702 492 618
f 108 810 815
f 86 119 139
f 640 336 863
f 864 558 560
f 558 417 211
f 560 557 344
f 855 417 558
f 855 558 864
f 272 379 301
f 809 212 865
f 752 289 820
f 585 576 105
f 476 313 192
f 857 5 416
f 866 225 867
f 256 188 278
f 838 509 868
f 545 273 26
f 231 527 369
f 348 215 869
f 322 297 184
f 619 471 719
f 120 392 736
f 718 371 46
f 659 506 17
f 721 118 424
f 294 717 777
f 745 297 774
f 724 257 722
f 722 257 854
f 9 160 286
f 719 431 304
f 516 167 340
f 235 540 483
f 131 224 236
f 133 290 8
f 390 167 516
f 390 218 167
f 548 232 529
f 8 250 443
f 443 211 8
f 184 783 541
f 842 198 843
f 804 462 603
f 329 135 849
f 853 289 282
f 257 412 817
f 278 189 870
f 268 187 369
f 310 314 28
f 526 310 28
f 836 237 201
f 502 282 15
f 867 130 132
f 770 502 808
f 736 392 542
f 256 812 622
f 847 846 871
f 426 317 800
f 242 638 657
f 402 570 660
f 229 674 594
f 59 227 331
f 639 402 660
f 591 40 866
f 846 348 869
f 143 742 784
f 40 225 866
f 813 431 376
f 276 103 92
f 182 218 215
f 790 308 704
f 53 212 809
f 327 254 506
f 31 30 565
f 119 565 30
f 217 825 590
f 522 221 592
f 522 420 221
f 169 769 596
f 522 462 51
f 44 105 106
f 197 372 718
f 44 106 505
f 390 302 872
f 237 822 403
f 268 426 801
f 109 237 403
f 356 33 564
f 447 175 629
f 630 78 77
f 199 414 641
f 304 813 873
f 232 54 851
f 151 240 22
f 867 225 130
f 38 390 39
f 450 397 792
f 259 534 192
f 663 255 834
f 527 426 369
f 68 244 759
f 644 163 535
f 874 662 663
f 164 271 279
f 779 168 378
f 865 212 692
f 390 872 194
f 417 133 8
f 531 661 706
f 68 759 715
f 576 106 105
f 562 464 726
f 561 562 726
f 336 631 863
f 754 321 875
f 368 760 876
f 877 202 804
f 769 169 768
f 130 856 649
f 130 512 856
f 458 457 346
f 447 629 782
f 200 699 466
f 171 202 877
f 335 462 202
f 35 160 270
f 772 70 358
f 35 270 234
f 200 654 699
f 577 548 440
f 471 355 431
f 368 848 523
f 368 876 848
f 183 382 422
f 843 198 279
f 173 87 553
f 373 481 681
f 177 379 227
f 818 174 736
f 353 200 345
f 325 487 385
f 388 403 737
f 186 527 231
f 258 336 337
f 878 77 361
f 361 156 878
f 77 878 757
f 492 196 57
f 196 492 295
f 807 398 299
f 530 354 831
f 361 42 156
f 33 562 564
f 562 496 213
f 842 795 198
f 343 791 121
f 318 795 860
f 310 526 5
f 569 684 732
f 758 574 775
f 10 574 160
f 158 157 204
f 353 178 200
f 475 381 714
f 475 714 730
f 179 697 292
f 5 526 416
f 103 276 32
f 473 311 449
