v -0.142842 -0.064450 -0.238963
v -0.143992 -0.058921 -0.244371
v 0.113691 -0.056156 -0.025364
v 0.108159 -0.056156 -0.030893
v 0.102632 -0.056156 -0.025364
v 0.108161 -0.056156 -0.019834
v 0.107772 -0.058921 0.023879
v 0.102242 -0.058921 0.018349
v 0.096713 -0.058921 0.023879
v 0.102242 -0.058921 0.029408
v 0.118839 -0.058921 -0.124390
v 0.113309 -0.058921 -0.129920
v 0.107780 -0.058921 -0.124390
v 0.113309 -0.058921 -0.118861
v 0.013132 -0.058921 0.370647
v 0.052859 -0.058921 0.321354
v 0.086666 -0.058921 0.265059
v 0.119759 -0.058921 0.187829
v 0.142922 -0.058921 0.107310
v 0.158800 -0.058921 0.018524
v 0.167525 -0.058921 -0.079787
v 0.167816 -0.058921 -0.157852
v 0.161280 -0.058921 -0.225878
v -0.107780 -0.058921 -0.124390
v -0.113309 -0.058921 -0.129920
v -0.118839 -0.058921 -0.124390
v -0.113309 -0.058921 -0.118861
v -0.088289 -0.058921 0.072748
v -0.093818 -0.058921 0.067219
v -0.099347 -0.058921 0.072748
v -0.093818 -0.058921 0.078277
v -0.009090 -0.064450 0.366873
v -0.048833 -0.064450 0.317456
v -0.082546 -0.064450 0.260981
v -0.106160 -0.064450 0.208537
v -0.131750 -0.064450 0.129571
v -0.149779 -0.064450 0.042367
v -0.160119 -0.064450 -0.049121
v -0.163063 -0.064450 -0.127606
v -0.155806 -0.064450 -0.225092
v -0.161280 -0.056156 -0.225878
v -0.167818 -0.056156 -0.157813
v -0.167567 -0.056156 -0.080655
v -0.159270 -0.056156 0.014899
v -0.142839 -0.056156 0.107664
v -0.120232 -0.056156 0.186478
v -0.087108 -0.056156 0.264202
v -0.041377 -0.056156 0.337135
v -0.013132 -0.056156 0.370647
v 0.088059 -0.058921 0.121039
v 0.082530 -0.058921 0.115510
v 0.077000 -0.058921 0.121039
v 0.082530 -0.058921 0.126569
v 0.117437 -0.058921 -0.074816
v 0.111908 -0.058921 -0.080346
v 0.106378 -0.058921 -0.074816
v 0.111908 -0.058921 -0.069287
v 0.055198 -0.058921 0.214520
v 0.049668 -0.058921 0.208991
v 0.044139 -0.058921 0.214520
v 0.049668 -0.058921 0.220050
v 0.155806 -0.064450 -0.225092
v 0.162784 -0.064450 -0.144462
v 0.160453 -0.064450 -0.053799
v 0.147501 -0.064450 0.056256
v 0.131565 -0.064450 0.130276
v 0.109422 -0.064450 0.200066
v 0.087329 -0.064450 0.251424
v 0.057454 -0.064450 0.304564
v 0.009090 -0.064450 0.366873
v 0.161280 -0.056156 -0.225878
v 0.167818 -0.056156 -0.157813
v 0.167567 -0.056156 -0.080655
v 0.159270 -0.056156 0.014899
v 0.142839 -0.056156 0.107664
v 0.120232 -0.056156 0.186478
v 0.087108 -0.056156 0.264202
v 0.041377 -0.056156 0.337135
v 0.013132 -0.056156 0.370647
v -0.107780 -0.056156 -0.124390
v -0.113309 -0.056156 -0.129920
v -0.118839 -0.056156 -0.124390
v -0.113309 -0.056156 -0.118861
v 0.099347 -0.058921 0.072748
v 0.093818 -0.058921 0.067219
v 0.088289 -0.058921 0.072748
v 0.093818 -0.058921 0.078277
v 0.073497 -0.058921 0.168443
v 0.067968 -0.058921 0.162914
v 0.062438 -0.058921 0.168443
v 0.067968 -0.058921 0.173973
v 0.093589 -0.064450 0.121039
v 0.090348 -0.064450 0.113218
v 0.082530 -0.064450 0.109981
v 0.074708 -0.064450 0.113221
v 0.071471 -0.064450 0.121039
v 0.074711 -0.064450 0.128858
v 0.082530 -0.064450 0.132098
v 0.090348 -0.064450 0.128858
v -0.106378 -0.058921 -0.074816
v -0.111908 -0.058921 -0.080346
v -0.117437 -0.058921 -0.074816
v -0.111908 -0.058921 -0.069287
v -0.100849 -0.064450 -0.074816
v -0.104086 -0.064450 -0.082637
v -0.111908 -0.064450 -0.085875
v -0.119726 -0.064450 -0.082637
v -0.122966 -0.064450 -0.074816
v -0.119726 -0.064450 -0.066997
v -0.111908 -0.064450 -0.063757
v -0.104086 -0.064450 -0.066997
v -0.102632 -0.058921 -0.025364
v -0.108159 -0.058921 -0.030893
v -0.113691 -0.058921 -0.025364
v -0.108161 -0.058921 -0.019834
v -0.077000 -0.058921 0.121039
v -0.082530 -0.058921 0.115510
v -0.088059 -0.058921 0.121039
v -0.082530 -0.058921 0.126569
v -0.071471 -0.064450 0.121039
v -0.074708 -0.064450 0.113218
v -0.082530 -0.064450 0.109981
v -0.090348 -0.064450 0.113221
v -0.093589 -0.064450 0.121039
v -0.090348 -0.064450 0.128858
v -0.082530 -0.064450 0.132098
v -0.074708 -0.064450 0.128858
v -0.044139 -0.058921 0.214520
v -0.049668 -0.058921 0.208991
v -0.055198 -0.058921 0.214520
v -0.049668 -0.058921 0.220050
v -0.038609 -0.064450 0.214520
v -0.041850 -0.064450 0.206701
v -0.049668 -0.064450 0.203461
v -0.057490 -0.064450 0.206701
v -0.060727 -0.064450 0.214520
v -0.057490 -0.064450 0.222341
v -0.049668 -0.064450 0.225579
v -0.041850 -0.064450 0.222339
v 0.005529 -0.058921 0.300160
v 0.000000 -0.058921 0.294631
v -0.005529 -0.058921 0.300160
v -0.000000 -0.058921 0.305689
v -0.000611 -0.056156 0.376339
v -0.044139 -0.056156 0.214520
v -0.049668 -0.056156 0.208991
v -0.055198 -0.056156 0.214520
v -0.049668 -0.056156 0.220050
v 0.005529 -0.056156 0.300160
v 0.000000 -0.056156 0.294631
v -0.005529 -0.056156 0.300160
v -0.000000 -0.056156 0.305689
v -0.062438 -0.056156 0.168443
v -0.067968 -0.056156 0.162914
v -0.073497 -0.056156 0.168443
v -0.067968 -0.056156 0.173973
v -0.097102 -0.064450 -0.025364
v -0.100340 -0.064450 -0.033185
v -0.108161 -0.064450 -0.036422
v -0.115980 -0.064450 -0.033185
v -0.119220 -0.064450 -0.025364
v -0.115980 -0.064450 -0.017545
v -0.108159 -0.064450 -0.014305
v -0.100340 -0.064450 -0.017545
v -0.102250 -0.064450 -0.124390
v -0.105491 -0.064450 -0.132209
v -0.113309 -0.064450 -0.135449
v -0.121131 -0.064450 -0.132209
v -0.124368 -0.064450 -0.124390
v -0.121131 -0.064450 -0.116569
v -0.113309 -0.064450 -0.113331
v -0.105491 -0.064450 -0.116569
v 0.038217 -0.064450 0.258695
v 0.034979 -0.064450 0.250873
v 0.027158 -0.064450 0.247636
v 0.019339 -0.064450 0.250873
v 0.016099 -0.064450 0.258695
v 0.019339 -0.064450 0.266513
v 0.027158 -0.064450 0.269754
v 0.034979 -0.064450 0.266513
v 0.060727 -0.064450 0.214520
v 0.057490 -0.064450 0.206701
v 0.049668 -0.064450 0.203461
v 0.041850 -0.064450 0.206701
v 0.038609 -0.064450 0.214520
v 0.041850 -0.064450 0.222341
v 0.049668 -0.064450 0.225579
v 0.057490 -0.064450 0.222339
v 0.104877 -0.064450 0.072748
v 0.101637 -0.064450 0.064929
v 0.093818 -0.064450 0.061689
v 0.085997 -0.064450 0.064929
v 0.082759 -0.064450 0.072748
v 0.085997 -0.064450 0.080569
v 0.093818 -0.064450 0.083807
v 0.101637 -0.064450 0.080569
v 0.055198 -0.056156 0.214520
v 0.049668 -0.056156 0.208991
v 0.044139 -0.056156 0.214520
v 0.049668 -0.056156 0.220050
v 0.073497 -0.056156 0.168443
v 0.067968 -0.056156 0.162914
v 0.062438 -0.056156 0.168443
v 0.067968 -0.056156 0.173973
v 0.088059 -0.056156 0.121039
v 0.082530 -0.056156 0.115510
v 0.077000 -0.056156 0.121039
v 0.082530 -0.056156 0.126569
v 0.099347 -0.056156 0.072748
v 0.093818 -0.056156 0.067219
v 0.088289 -0.056156 0.072748
v 0.093818 -0.056156 0.078277
v 0.124368 -0.064450 -0.124390
v 0.121131 -0.064450 -0.132209
v 0.113309 -0.064450 -0.135449
v 0.105491 -0.064450 -0.132209
v 0.102250 -0.064450 -0.124390
v 0.105491 -0.064450 -0.116569
v 0.113309 -0.064450 -0.113331
v 0.121131 -0.064450 -0.116569
v 0.010484 -0.042333 0.367854
v 0.012220 -0.038639 0.369795
v 0.140727 -0.042333 -0.212953
v 0.146328 -0.042333 -0.138772
v 0.143539 -0.042333 -0.049842
v 0.138374 -0.042333 0.003719
v 0.121269 -0.042333 0.102770
v 0.097033 -0.042333 0.185717
v 0.080594 -0.042333 0.226632
v 0.037647 -0.042333 0.304440
v 0.010567 -0.042333 0.340232
v -0.140727 -0.042333 -0.212953
v -0.146328 -0.042333 -0.138772
v -0.143539 -0.042333 -0.049842
v -0.138374 -0.042333 0.003719
v -0.121269 -0.042333 0.102770
v -0.097033 -0.042333 0.185717
v -0.080594 -0.042333 0.226632
v -0.037647 -0.042333 0.304440
v -0.010567 -0.042333 0.340232
v 0.129699 -0.056156 -0.224725
v 0.044603 -0.056156 -0.235930
v -0.013749 -0.056156 -0.237277
v -0.071999 -0.056156 -0.233533
v -0.129699 -0.056156 -0.224725
v -0.162519 -0.039460 -0.014360
v -0.159770 -0.042333 -0.014639
v 0.077232 0.228544 -0.320649
v 0.085831 0.196633 -0.307379
v 0.093016 0.168148 -0.280818
v 0.098065 0.154703 -0.260215
v 0.103624 0.143296 -0.234509
v 0.109652 0.133039 -0.193326
v -0.046597 0.219813 0.085919
v -0.052237 0.198046 0.088112
v -0.058095 0.182381 0.085598
v -0.067960 0.164120 0.076948
v -0.078070 0.150753 0.064811
v -0.089740 0.138458 0.045792
v -0.096547 0.132221 0.030276
v -0.102322 0.127360 0.011380
v -0.107794 0.123584 -0.021667
v -0.077232 0.228544 -0.320649
v -0.070155 0.248878 -0.322018
v -0.061960 0.268455 -0.318015
v -0.054119 0.286332 -0.308830
v -0.049679 0.298151 -0.298767
v -0.046519 0.310150 -0.283417
v -0.045082 0.319652 -0.264404
v -0.044236 0.329710 -0.215308
v -0.042220 0.189904 0.180417
v -0.039483 0.238411 0.132933
v -0.038407 0.278933 0.079071
v -0.039840 0.308947 0.018034
v -0.044236 0.324983 -0.047556
v -0.109652 0.133039 -0.193326
v -0.113154 0.124023 -0.107686
v 0.000000 -0.038307 0.374296
v 0.000000 0.075677 0.309958
v 0.000000 0.178110 0.235745
v 0.000000 0.232226 0.185463
v 0.000000 0.263235 0.151874
v 0.000000 0.296536 0.107885
v 0.000000 0.313354 0.078977
v 0.000000 0.325043 0.053536
v 0.000000 0.340343 0.005825
v 0.000000 0.353202 -0.083378
v 0.000000 0.355309 -0.182032
v 0.000000 0.345494 -0.347617
v -0.010567 -0.056156 0.340232
v -0.000036 -0.056156 0.345139
v 0.010567 -0.056156 0.340232
v 0.000036 -0.042333 0.345139
v 0.042223 0.189904 0.180417
v 0.039314 0.242168 0.128645
v 0.038507 0.287913 0.063832
v 0.039972 0.309978 0.015173
v 0.044236 0.324983 -0.047556
v 0.161896 -0.039405 -0.220246
v 0.159162 -0.042333 -0.219870
v -0.040249 0.323542 -0.364246
v -0.022690 0.333100 -0.360660
v -0.000000 0.336575 -0.359358
v -0.137221 -0.056156 -0.220492
v -0.140727 -0.056156 -0.212953
v -0.055159 -0.038832 0.316300
v -0.013326 -0.038725 0.368758
v -0.053080 0.323600 -0.349773
v -0.088817 0.257952 -0.369654
v -0.126713 0.184206 -0.398780
v 0.147053 0.062558 -0.462115
v 0.157536 0.062229 -0.456964
v 0.160569 0.058757 -0.446475
v -0.150757 -0.039349 0.068170
v -0.127191 -0.039040 0.163295
v -0.101941 -0.038866 0.230796
v -0.160569 0.058757 -0.446475
v -0.149237 0.055552 -0.370854
v -0.147136 0.049307 -0.334138
v -0.147777 0.039404 -0.305361
v -0.150014 0.026169 -0.283190
v -0.153392 0.007054 -0.263992
v -0.156572 -0.014904 -0.251164
v -0.159046 -0.039413 -0.243536
v 0.159046 -0.039413 -0.243536
v 0.152806 -0.039858 -0.257053
v 0.140879 -0.040223 -0.263646
v 0.140345 -0.042333 -0.261014
v 0.151551 -0.042333 -0.254332
v 0.156303 -0.042333 -0.243240
v 0.145109 0.056114 -0.464531
v 0.139267 0.053653 -0.465454
v 0.040252 0.323537 -0.364246
v 0.086657 0.241419 -0.395043
v 0.114133 0.185328 -0.416076
v 0.107794 0.123584 -0.021667
v 0.128783 0.100567 -0.020636
v 0.146760 0.065616 -0.019068
v 0.156458 0.028994 -0.017426
v 0.162519 -0.039460 -0.014360
v -0.159588 0.049567 -0.447965
v -0.154797 0.041568 -0.449748
v -0.139267 0.034977 -0.452662
v 0.052953 -0.042333 0.314808
v 0.055159 -0.038832 0.316300
v 0.147849 0.121964 -0.423024
v 0.126713 0.184206 -0.398780
v 0.142842 -0.064450 -0.238963
v 0.143992 -0.058921 -0.244371
v -0.129699 -0.042333 -0.224725
v -0.136992 -0.042333 -0.220735
v 0.113154 0.124023 -0.107686
v -0.096713 -0.058921 0.023879
v -0.102242 -0.058921 0.018349
v -0.107772 -0.058921 0.023879
v -0.102242 -0.058921 0.029408
v 0.053080 0.323600 -0.349776
v 0.052278 0.325444 -0.349906
v -0.052278 0.325444 -0.349906
v -0.053080 0.323600 -0.349776
v 0.079027 -0.064450 0.168443
v 0.075786 -0.064450 0.160622
v 0.067968 -0.064450 0.157384
v 0.060146 -0.064450 0.160622
v 0.056909 -0.064450 0.168443
v 0.060146 -0.064450 0.176262
v 0.067968 -0.064450 0.179502
v 0.075786 -0.064450 0.176262
v -0.044236 0.304142 -0.050227
v 0.113301 -0.064450 0.023879
v 0.110061 -0.064450 0.016057
v 0.102242 -0.064450 0.012820
v 0.094421 -0.064450 0.016057
v 0.091183 -0.064450 0.023879
v 0.094421 -0.064450 0.031697
v 0.102242 -0.064450 0.034938
v 0.110061 -0.064450 0.031697
v -0.100940 0.148502 -0.247597
v -0.093016 0.168148 -0.280818
v -0.085831 0.196633 -0.307379
v 0.044236 0.304142 -0.050227
v 0.041031 0.313691 -0.004017
v 0.039641 0.291709 0.035120
v 0.040887 0.259962 0.066740
v 0.043002 0.240789 0.078344
v 0.046597 0.219813 0.085919
v -0.140879 -0.040223 -0.263646
v -0.137144 -0.018492 -0.272845
v -0.133318 -0.004124 -0.284122
v -0.129237 0.008942 -0.300898
v -0.126439 0.019586 -0.323674
v -0.127357 0.030526 -0.373033
v 0.139267 0.040982 -0.463909
v 0.139267 0.034977 -0.452662
v 0.095137 -0.064450 -0.247373
v 0.035593 -0.064450 -0.253082
v -0.024222 -0.064450 -0.253577
v -0.083851 -0.064450 -0.248861
v -0.000000 0.264529 -0.212449
v 0.016232 0.267615 -0.212568
v 0.031543 0.277742 -0.212964
v 0.041385 0.293125 -0.213566
v 0.044236 0.308732 -0.214175
v -0.010310 -0.042333 0.368009
v -0.012013 -0.038625 0.369972
v -0.161896 -0.039405 -0.220246
v -0.157788 0.013918 -0.211921
v -0.145712 0.072213 -0.202823
v -0.131319 0.105583 -0.197614
v 0.156281 -0.012609 -0.252189
v 0.153226 0.008041 -0.264761
v 0.150174 0.025292 -0.282054
v 0.147777 0.039404 -0.305361
v 0.147083 0.047313 -0.326748
v 0.148952 0.055198 -0.367702
v 0.140727 -0.056156 -0.212953
v 0.136992 -0.056156 -0.220735
v 0.011059 -0.064450 0.300160
v 0.007819 -0.064450 0.292339
v -0.000000 -0.064450 0.289101
v -0.007819 -0.064450 0.292339
v -0.011059 -0.064450 0.300160
v -0.007819 -0.064450 0.307979
v 0.000000 -0.064450 0.311219
v 0.007821 -0.064450 0.307979
v 0.049486 0.331305 -0.142123
v 0.044236 0.329727 -0.214996
v 0.107772 -0.056156 0.023879
v 0.102242 -0.056156 0.018349
v 0.096713 -0.056156 0.023879
v 0.102242 -0.056156 0.029408
v 0.040868 0.287349 -0.052375
v 0.031280 0.273114 -0.054200
v 0.016928 0.263603 -0.055416
v 0.000000 0.260263 -0.055845
v 0.113691 -0.058921 -0.025364
v 0.108161 -0.058921 -0.030893
v 0.102632 -0.058921 -0.025364
v 0.108159 -0.058921 -0.019834
v -0.139267 0.053653 -0.465454
v -0.145358 0.056390 -0.464426
v -0.147053 0.062558 -0.462115
v -0.106378 -0.056156 -0.074816
v -0.111908 -0.056156 -0.080346
v -0.117437 -0.056156 -0.074816
v -0.111908 -0.056156 -0.069287
v 0.122966 -0.064450 -0.074816
v 0.119726 -0.064450 -0.082637
v 0.111908 -0.064450 -0.085875
v 0.104086 -0.064450 -0.082637
v 0.100849 -0.064450 -0.074816
v 0.104086 -0.064450 -0.066997
v 0.111908 -0.064450 -0.063757
v 0.119726 -0.064450 -0.066997
v -0.146220 -0.056156 -0.143265
v -0.144329 -0.056156 -0.061227
v -0.133688 -0.056156 0.037877
v -0.123984 -0.056156 0.090600
v -0.110362 -0.056156 0.144686
v -0.080475 -0.056156 0.226898
v -0.037592 -0.056156 0.304520
v -0.049339 0.079160 0.257716
v -0.044529 0.154596 0.208568
v -0.042223 0.189904 0.180417
v -0.040887 0.287396 -0.052369
v -0.030404 0.272270 -0.054307
v -0.017252 0.263738 -0.055399
v 0.102322 0.127360 0.011380
v 0.096547 0.132221 0.030276
v 0.089740 0.138458 0.045792
v 0.078070 0.150753 0.064811
v 0.067960 0.164120 0.076948
v 0.058095 0.182381 0.085598
v 0.052237 0.198046 0.088112
v 0.137221 -0.042333 -0.220492
v 0.129699 -0.042333 -0.224725
v 0.032687 -0.058921 0.258695
v 0.027158 -0.058921 0.253165
v 0.021628 -0.058921 0.258695
v 0.027158 -0.058921 0.264224
v -0.082759 -0.064450 0.072748
v -0.085997 -0.064450 0.064929
v -0.093818 -0.064450 0.061689
v -0.101637 -0.064450 0.064929
v -0.104877 -0.064450 0.072748
v -0.101637 -0.064450 0.080569
v -0.093818 -0.064450 0.083807
v -0.085997 -0.064450 0.080569
v -0.077000 -0.056156 0.121039
v -0.082530 -0.056156 0.115510
v -0.088059 -0.056156 0.121039
v -0.082530 -0.056156 0.126569
v -0.013132 -0.058921 0.370647
v 0.146220 -0.056156 -0.143265
v 0.144329 -0.056156 -0.061227
v 0.133688 -0.056156 0.037877
v 0.123984 -0.056156 0.090600
v 0.110362 -0.056156 0.144686
v 0.080475 -0.056156 0.226898
v 0.037592 -0.056156 0.304520
v -0.021628 -0.056156 0.258695
v -0.027158 -0.056156 0.253165
v -0.032687 -0.056156 0.258695
v -0.027158 -0.056156 0.264224
v -0.140345 -0.042333 -0.261014
v -0.161280 -0.058921 -0.225878
v -0.168255 -0.058921 -0.146450
v -0.166298 -0.058921 -0.058228
v -0.156961 -0.058921 0.031808
v -0.142665 -0.058921 0.108418
v -0.122154 -0.058921 0.180898
v -0.090064 -0.058921 0.258371
v -0.052632 -0.058921 0.321678
v 0.084526 -0.058921 -0.254349
v 0.024415 -0.058921 -0.259104
v -0.035881 -0.058921 -0.258604
v -0.095903 -0.058921 -0.252850
v 0.000423 -0.064450 0.370812
v -0.145985 0.128945 -0.420392
v -0.155568 -0.058921 -0.237816
v 0.127780 0.031096 -0.377785
v 0.125900 0.024643 -0.340583
v 0.126696 0.018292 -0.320179
v 0.129195 0.009077 -0.301122
v 0.133318 -0.004124 -0.284122
v 0.137224 -0.018832 -0.272640
v -0.165676 -0.042333 -0.132742
v -0.159162 -0.042333 -0.219870
v 0.089925 -0.038830 0.256486
v 0.104949 -0.038879 0.223823
v 0.130039 -0.039070 0.154061
v 0.147805 -0.039308 0.083268
v 0.043796 0.334197 -0.350696
v 0.019790 0.343282 -0.348233
v 0.032687 -0.056156 0.258695
v 0.027158 -0.056156 0.253165
v 0.021628 -0.056156 0.258695
v 0.027158 -0.056156 0.264224
v -0.056909 -0.064450 0.168443
v -0.060146 -0.064450 0.160622
v -0.067968 -0.064450 0.157384
v -0.075786 -0.064450 0.160622
v -0.079027 -0.064450 0.168443
v -0.075786 -0.064450 0.176262
v -0.067968 -0.064450 0.179502
v -0.060146 -0.064450 0.176262
v -0.096713 -0.056156 0.023879
v -0.102242 -0.056156 0.018349
v -0.107772 -0.056156 0.023879
v -0.102242 -0.056156 0.029408
v 0.071999 -0.042333 -0.233533
v 0.013749 -0.042333 -0.237277
v -0.044603 -0.042333 -0.235930
v 0.159770 -0.042333 -0.014639
v -0.092773 0.145447 -0.190287
v -0.069093 0.156119 -0.188463
v -0.030536 0.164250 -0.188037
v 0.000000 0.165820 -0.188211
v 0.030536 0.164250 -0.188037
v 0.069093 0.156119 -0.188463
v 0.092773 0.145447 -0.190287
v -0.062040 0.160128 0.136168
v -0.084412 0.140543 0.087476
v -0.100287 0.128848 0.034509
v 0.165734 -0.042333 -0.125126
v 0.141056 -0.042333 0.101476
v 0.120887 -0.042333 0.173951
v 0.091219 -0.042333 0.247763
v 0.098418 0.240697 -0.376124
v 0.066997 0.295790 -0.356574
v 0.053080 0.323600 -0.349773
v -0.046290 0.325436 -0.284891
v 0.133373 0.128914 -0.437232
v -0.156303 -0.042333 -0.243240
v -0.151581 -0.042333 -0.254299
v 0.168358 -0.039466 -0.107780
v 0.167368 -0.039443 -0.164133
v -0.168496 -0.039460 -0.125214
v -0.052953 -0.042333 0.314808
v -0.087578 -0.042333 0.255222
v -0.102532 -0.042333 0.222665
v -0.127434 -0.042333 0.153279
v -0.147556 -0.042333 0.070276
v -0.021628 -0.058921 0.258695
v -0.027158 -0.058921 0.253165
v -0.032687 -0.058921 0.258695
v -0.027158 -0.058921 0.264224
v -0.102632 -0.056156 -0.025364
v -0.108159 -0.056156 -0.030893
v -0.113691 -0.056156 -0.025364
v -0.108161 -0.056156 -0.019834
v 0.124078 0.187261 -0.409925
v -0.000611 -0.058921 0.376339
v -0.062438 -0.058921 0.168443
v -0.067968 -0.058921 0.162914
v -0.073497 -0.058921 0.168443
v -0.067968 -0.058921 0.173973
v -0.049762 0.331093 -0.131100
v -0.044236 0.329727 -0.214996
v 0.119220 -0.064450 -0.025364
v 0.115980 -0.064450 -0.033185
v 0.108159 -0.064450 -0.036422
v 0.100340 -0.064450 -0.033185
v 0.097102 -0.064450 -0.025364
v 0.100340 -0.064450 -0.017545
v 0.108161 -0.064450 -0.014305
v 0.115980 -0.064450 -0.017545
v 0.143992 -0.056156 -0.244371
v -0.016099 -0.064450 0.258695
v -0.019339 -0.064450 0.250873
v -0.027158 -0.064450 0.247636
v -0.034979 -0.064450 0.250873
v -0.038217 -0.064450 0.258695
v -0.034979 -0.064450 0.266513
v -0.027158 -0.064450 0.269754
v -0.019339 -0.064450 0.266513
v -0.049226 0.325522 -0.359289
v -0.157376 0.062273 -0.457149
v -0.143992 -0.056156 -0.244371
v -0.155568 -0.056156 -0.237816
v -0.088289 -0.056156 0.072748
v -0.093818 -0.056156 0.067219
v -0.099347 -0.056156 0.072748
v -0.093818 -0.056156 0.078277
v -0.091183 -0.064450 0.023879
v -0.094421 -0.064450 0.016057
v -0.102242 -0.064450 0.012820
v -0.110061 -0.064450 0.016057
v -0.113301 -0.064450 0.023879
v -0.110061 -0.064450 0.031697
v -0.102239 -0.064450 0.034938
v -0.094421 -0.064450 0.031697
v 0.117437 -0.056156 -0.074816
v 0.111908 -0.056156 -0.080346
v 0.106378 -0.056156 -0.074816
v 0.111908 -0.056156 -0.069287
v 0.013326 -0.038725 0.368758
v 0.118839 -0.056156 -0.124390
v 0.113309 -0.056156 -0.129920
v 0.107780 -0.056156 -0.124390
v 0.113309 -0.056156 -0.118861
v 0.084526 -0.056156 -0.254349
v 0.024415 -0.056156 -0.259104
v -0.035881 -0.056156 -0.258604
v -0.095903 -0.056156 -0.252850
v -0.151485 -0.064450 -0.234086
v 0.044236 0.329710 -0.215308
v 0.045082 0.319652 -0.264404
v 0.046519 0.310150 -0.283417
v 0.049679 0.298151 -0.298767
v 0.054119 0.286332 -0.308830
v 0.061960 0.268455 -0.318015
v 0.070155 0.248878 -0.322018
v 0.046649 0.212522 0.056154
v 0.039638 0.205325 0.034827
v 0.022613 0.196312 0.013976
v 0.012228 0.193116 0.007376
v 0.000321 0.191706 0.004495
v -0.018864 0.195085 0.011468
v -0.038933 0.204941 0.033898
v -0.046586 0.212494 0.056077
v 0.084429 0.139058 -0.023580
v 0.058142 0.149282 -0.023909
v 0.000503 0.156727 -0.023152
v -0.028974 0.155055 -0.023472
v -0.057553 0.149448 -0.023907
v -0.084175 0.139188 -0.023589
v -0.043002 0.240789 0.078344
v -0.040887 0.259962 0.066740
v -0.039641 0.291709 0.035120
v -0.041031 0.313691 -0.004017
v 0.100287 0.128848 0.034509
v 0.084412 0.140543 0.087476
v 0.057691 0.165292 0.145598
v 0.042220 0.189904 0.180417
v -0.124078 0.187261 -0.409925
v -0.114133 0.185328 -0.416076
v -0.064379 -0.042333 -0.272178
v -0.000453 -0.042333 -0.275126
v 0.076223 -0.042333 -0.270992
v -0.153470 -0.039830 -0.256323
v 0.064741 -0.040253 -0.274835
v -0.000453 -0.040262 -0.277802
v -0.084609 -0.040248 -0.272729
v -0.109715 0.155934 -0.305983
v -0.106914 0.147092 -0.268667
v -0.139267 0.040982 -0.463909
v -0.128783 0.100567 -0.020636
v -0.146760 0.065616 -0.019068
v -0.156458 0.028994 -0.017426
v 0.157788 0.013918 -0.211921
v 0.145712 0.072213 -0.202823
v 0.131319 0.105583 -0.197614
v 0.114081 0.164485 -0.337481
v 0.107968 0.151317 -0.287216
v 0.106624 0.141444 -0.241360
v 0.052355 0.024148 0.287127
v 0.048977 0.085187 0.254208
v 0.045278 0.143282 0.216776
v 0.000000 0.343047 -0.354340
v -0.044236 0.308732 -0.214175
v -0.040868 0.291817 -0.213514
v -0.031280 0.277476 -0.212955
v -0.016928 0.267894 -0.212579
v 0.046290 0.325436 -0.284891
v -0.134545 0.124474 -0.438896
v 0.021416 0.333487 -0.360517
v 0.155518 -0.058921 -0.237868
v 0.000000 -0.042333 0.371835
v 0.151523 -0.064450 -0.234045
v -0.083572 0.247062 -0.392925
v -0.025778 0.341717 -0.348664
v -0.043796 0.334197 -0.350696
v 0.049226 0.325519 -0.359292
v 0.154708 0.041477 -0.449773
v 0.159743 0.050053 -0.447871
v 0.155518 -0.056156 -0.237868
l 1 2
l 3 4 5 6 3
l 7 8 9 10 7
l 11 12 13 14 11
l 15 16 17 18 19 20 21 22 23
l 24 25 26 27 24
l 28 29 30 31 28
l 32 33 34 35 36 37 38 39 40
l 41 42 43 44 45 46 47 48 49
l 50 51 52 53 50
l 54 55 56 57 54
l 58 59 60 61 58
l 62 63 64 65 66 67 68 69 70
l 71 72 73 74 75 76 77 78 79
l 80 81 82 83 80
l 84 85 86 87 84
l 88 89 90 91 88
l 92 93 94 95 96 97 98 99 92
l 100 101 102 103 100
l 104 105 106 107 108 109 110 111 104
l 112 113 114 115 112
l 116 117 118 119 116
l 120 121 122 123 124 125 126 127 120
l 128 129 130 131 128
l 132 133 134 135 136 137 138 139 132
l 140 141 142 143 140
l 49 144 79
l 145 146 147 148 145
l 149 150 151 152 149
l 153 154 155 156 153
l 157 158 159 160 161 162 163 164 157
l 165 166 167 168 169 170 171 172 165
l 173 174 175 176 177 178 179 180 173
l 181 182 183 184 185 186 187 188 181
l 189 190 191 192 193 194 195 196 189
l 197 198 199 200 197
l 201 202 203 204 201
l 205 206 207 208 205
l 209 210 211 212 209
l 213 214 215 216 217 218 219 220 213
l 221 222
l 223 224 225 226 227 228 229 230 231
l 232 233 234 235 236 237 238 239 240
l 241 242 243 244 245
l 246 247
l 248 249 250 251 252 253
l 254 255 256 257 258 259 260 261 262
l 263 264 265 266 267 268 269 270
l 271 272 273 274 275
l 276 277 262
l 278 279 280 281 282 283 284 285 286 287 288 289
l 290 291 292
l 240 293 231
l 294 295 296 297 298
l 299 300
l 301 302 303
l 245 304 305
l 306 307
l 308 309 310
l 311 312 313
l 246 314 315 316 306
l 317 318 319 320 321 322 323 324
l 325 326 327
l 328 329 330
l 325 330
l 311 331 332
l 333 334 335
l 336 337 338 339 340
l 317 341 342 343
l 344 345
l 313 346 347
l 348 349
l 350 351 232
l 253 352 336
l 353 354 355 356 353
l 357 358
l 359 360
l 361 362 363 364 365 366 367 368 361
l 275 369
l 370 371 372 373 374 375 376 377 370
l 276 378 379 380 263
l 298 381
l 298 382 383 384 385 386
l 387 388 389 390 391 392 343
l 79 15
l 332 393 394
l 348 395 396 397 398 1
l 399 400 401 402 403
l 404 405
l 406 407 408 409 276
l 325 410 411 412 413 414 415 313
l 416 417 241
l 418 419 420 421 422 423 424 425 418
l 298 426 427
l 428 429 430 431 428
l 381 432 433 434 435
l 436 437 438 439 436
l 305 232
l 440 441 442
l 443 444 445 446 443
l 447 448 449 450 451 452 453 454 447
l 305 455 456 457 458 459 460 461 290
l 306 462 463 464
l 369 465 466 467 435
l 336 468 469 470 471 472 473 474 386
l 223 475 476
l 278 222
l 477 478 479 480 477
l 481 482 483 484 485 486 487 488 481
l 489 490 491 492 489
l 493 32
l 416 494 495 496 497 498 499 500 292
l 501 502 503 504 501
l 387 505
l 327 328
l 506 507 508 509 510 511 512 513 493
l 349 514 515 516 517 2
l 32 518 70
l 344 221
l 310 519 317
l 405 278
l 2 520 506
l 394 521 522 523 524 525 526 327
l 247 527 528
l 345 529 530 531 532 340
l 533 534 289
l 535 536 537 538 535
l 539 540 541 542 543 544 545 546 539
l 547 548 549 550 547
l 476 551 552 553 350
l 554 340
l 276 555 556 557 558 559 560 561 253
l 464 562 563 564 262
l 300 565 554
l 554 566 567 568 344
l 347 569 570 571
l 270 572 360
l 335 573 311
l 574 575 505
l 340 576 577 299
l 406 578 246
l 579 580 581 582 583 247
l 343 394
l 332 440
l 584 585 586 587 584
l 588 589 590 591 588
l 335 592 347
l 40 506
l 493 593 15
l 594 595 596 597 594
l 275 598 599
l 600 601 602 603 604 605 606 607 600
l 608 349
l 609 610 611 612 613 614 615 616 609
l 308 617 301
l 324 574
l 317 618 442
l 619 620 41
l 41 506
l 290 240
l 307 405
l 621 622 623 624 621
l 625 626 627 628 629 630 631 632 625
l 528 574
l 633 634 635 636 633
l 222 637
l 638 639 640 641 638
l 608 642 643 644 645 619
l 15 70
l 1 646 40
l 647 648 649 650 651 652 653 248
l 386 654 655 656 657 658 659 660 661 254
l 336 662 663 664 665 666 667 262
l 254 668 669 670 671 275
l 336 672 673 674 675
l 310 676 677
l 505 678 679 680 328
l 579 306
l 387 681 324
l 327 682 683 684 387
l 310 685 686 276
l 440 687 343
l 262 688 689 690 246
l 406 528
l 299 691 692 693 253
l 347 694 695 696 253
l 345 697 698 699 294
l 289 700 303
l 637 345
l 701 702 703 704 399
l 647 705 357
l 442 706 677
l 303 707 333
l 23 708 349
l 49 493
l 221 709
l 23 62
l 299 325
l 71 23
l 619 2
l 403 427
l 62 710 348
l 709 278
l 404 579
l 677 711 301
l 324 406
l 289 712 713
l 357 714 333
l 292 231
l 394 715 716 313
l 416 223
l 245 350
l 358 533
l 599 701
l 241 476
l 71 717 608
l 709 404
l 270 599
l 713 359
l 330 300
l 427 647
