v 0.000000 0.375581 -0.012241
v 0.008643 0.375581 -0.008643
v 0.012241 0.375581 -0.000000
v 0.008643 0.375581 0.008643
v 0.000000 0.375581 0.012241
v 0.000000 0.367420 0.020402
v 0.014426 0.367420 0.014426
v 0.020402 0.367420 -0.000000
v 0.014426 0.367420 -0.014426
v 0.000000 0.367420 -0.020402
v 0.000000 0.039506 0.144840
v -0.025447 0.039506 0.142526
v -0.055423 0.039506 0.133819
v -0.080420 0.039506 0.120357
v -0.102429 0.039506 0.102429
v -0.120357 0.039506 0.080420
v -0.133819 0.039506 0.055423
v -0.142526 0.039506 0.025447
v -0.144840 0.039506 -0.000000
v -0.142526 0.039506 -0.025447
v -0.133819 0.039506 -0.055423
v -0.120357 0.039506 -0.080420
v -0.102429 0.039506 -0.102429
v -0.080420 0.039506 -0.120357
v -0.055423 0.039506 -0.133819
v -0.025447 0.039506 -0.142526
v 0.000000 0.039506 -0.144840
v 0.000000 0.031345 -0.153033
v 0.026892 0.031345 -0.150559
v 0.058572 0.031345 -0.141370
v 0.087456 0.031345 -0.125466
v 0.108212 0.031345 -0.108212
v 0.125466 0.031345 -0.087456
v 0.141370 0.031345 -0.058572
v 0.150559 0.031345 -0.026892
v 0.153033 0.031345 -0.000000
v 0.150559 0.031345 0.026892
v 0.141370 0.031345 0.058572
v 0.125466 0.031345 0.087456
v 0.108212 0.031345 0.108212
v 0.087456 0.031345 0.125466
v 0.058572 0.031345 0.141370
v 0.026892 0.031345 0.150559
v 0.000000 0.031345 0.153033
v -0.026892 0.031345 0.150559
v -0.058572 0.031345 0.141370
v -0.087456 0.031345 0.125466
v -0.108212 0.031345 0.108212
v -0.125466 0.031345 0.087456
v -0.141370 0.031345 0.058572
v -0.150559 0.031345 0.026892
v -0.153001 0.031345 -0.000000
v -0.150559 0.031345 -0.026892
v -0.141370 0.031345 -0.058572
v -0.125466 0.031345 -0.087456
v -0.108212 0.031345 -0.108212
v -0.087456 0.031345 -0.125466
v -0.058572 0.031345 -0.141370
v -0.026892 0.031345 -0.150559
v 0.000000 0.008469 0.146029
v 0.000000 0.016534 0.153033
v 0.000000 0.008469 -0.146029
v 0.022844 0.008469 -0.144229
v 0.055873 0.008469 -0.134912
v 0.076308 0.008469 -0.124502
v 0.103264 0.008469 -0.103264
v 0.124502 0.008469 -0.076308
v 0.134912 0.008469 -0.055873
v 0.144229 0.008469 -0.022844
v 0.146029 0.008469 -0.000000
v 0.144229 0.008469 0.022844
v 0.134912 0.008469 0.055873
v 0.124502 0.008469 0.076308
v 0.103264 0.008469 0.103264
v 0.076308 0.008469 0.124502
v 0.055873 0.008469 0.134912
v 0.022844 0.008469 0.144229
v -0.022844 0.008469 0.144229
v -0.055873 0.008469 0.134912
v -0.076308 0.008469 0.124502
v -0.103264 0.008469 0.103264
v -0.124502 0.008469 0.076308
v -0.134912 0.008469 0.055873
v -0.144229 0.008469 0.022844
v -0.146029 0.008469 -0.000000
v -0.144229 0.008469 -0.022844
v -0.134912 0.008469 -0.055873
v -0.124502 0.008469 -0.076308
v -0.103264 0.008469 -0.103264
v -0.076308 0.008469 -0.124502
v -0.055873 0.008469 -0.134912
v -0.022844 0.008469 -0.144229
v 0.000000 -0.037669 -0.074508
v 0.028531 -0.037669 -0.068854
v 0.052692 -0.037669 -0.052692
v 0.068854 -0.037669 -0.028531
v 0.074508 -0.037669 -0.000000
v 0.068854 -0.037669 0.028531
v 0.052692 -0.037669 0.052692
v 0.028531 -0.037669 0.068854
v 0.000000 -0.037669 0.074508
v 0.000000 -0.079405 -0.061753
v 0.023615 -0.079405 -0.057030
v 0.043664 -0.079405 -0.043664
v 0.057030 -0.079405 -0.023615
v 0.061753 -0.079405 -0.000000
v 0.057030 -0.079405 0.023615
v 0.043664 -0.079405 0.043664
v 0.023615 -0.079405 0.057030
v 0.000000 -0.079405 0.061753
v 0.000000 -0.321693 -0.167909
v 0.026282 -0.321693 -0.165852
v 0.064259 -0.321693 -0.155121
v 0.095971 -0.321693 -0.137675
v 0.118718 -0.321693 -0.118718
v 0.137675 -0.321693 -0.095971
v 0.155121 -0.321693 -0.064259
v 0.165852 -0.321693 -0.026282
v 0.167909 -0.321693 -0.000000
v 0.165852 -0.321693 0.026282
v 0.155121 -0.321693 0.064259
v 0.137675 -0.321693 0.095971
v 0.118718 -0.321693 0.118718
v 0.095971 -0.321693 0.137675
v 0.064259 -0.321693 0.155121
v 0.026282 -0.321693 0.165852
v 0.000000 -0.321693 0.167909
v -0.026282 -0.321693 0.165852
v -0.064259 -0.321693 0.155121
v -0.095971 -0.321693 0.137675
v -0.118718 -0.321693 0.118718
v -0.137675 -0.321693 0.095971
v -0.155121 -0.321693 0.064259
v -0.165852 -0.321693 0.026282
v -0.167909 -0.321693 -0.000000
v -0.165852 -0.321693 -0.026282
v -0.155121 -0.321693 -0.064259
v -0.137675 -0.321693 -0.095971
v -0.118718 -0.321693 -0.118718
v -0.095971 -0.321693 -0.137675
v -0.064259 -0.321693 -0.155121
v -0.026282 -0.321693 -0.165852
v 0.000000 -0.440508 0.204022
v -0.047616 -0.440508 0.198400
v -0.078075 -0.440508 0.188504
v -0.113256 -0.440508 0.169515
v -0.144261 -0.440508 0.144261
v -0.169515 -0.440508 0.113256
v -0.188504 -0.440508 0.078075
v -0.200745 -0.440508 0.035857
v -0.204022 -0.440508 -0.000000
v -0.200745 -0.440508 -0.035857
v -0.188504 -0.440508 -0.078075
v -0.169515 -0.440508 -0.113256
v -0.144261 -0.440508 -0.144261
v -0.113256 -0.440508 -0.169515
v -0.078075 -0.440508 -0.188504
v -0.047616 -0.440508 -0.198400
v -0.000000 -0.440508 -0.204022
v 0.000000 -0.296632 -0.133755
v 0.028660 -0.296632 -0.130574
v 0.051182 -0.296632 -0.123570
v 0.078621 -0.296632 -0.108212
v 0.094557 -0.296632 -0.094557
v 0.108212 -0.296632 -0.078621
v 0.123570 -0.296632 -0.051182
v 0.130574 -0.296632 -0.028660
v 0.133755 -0.296632 -0.000000
v 0.130574 -0.296632 0.028660
v 0.123570 -0.296632 0.051182
v 0.108212 -0.296632 0.078621
v 0.094557 -0.296632 0.094557
v 0.078621 -0.296632 0.108212
v 0.051182 -0.296632 0.123570
v 0.028660 -0.296632 0.130574
v 0.000000 -0.296632 0.133755
v 0.000000 -0.245546 0.085593
v -0.032740 -0.245546 0.079071
v -0.060532 -0.245546 0.060532
v -0.079071 -0.245546 0.032740
v -0.085593 -0.245546 -0.000000
v -0.079071 -0.245546 -0.032740
v -0.060532 -0.245546 -0.060532
v -0.032740 -0.245546 -0.079071
v 0.000000 -0.245546 -0.085593
v 0.000000 -0.163488 -0.066637
v 0.025447 0.039506 -0.142526
v 0.055423 0.039506 -0.133819
v 0.080420 0.039506 -0.120357
v 0.102429 0.039506 -0.102429
v 0.120357 0.039506 -0.080420
v 0.133819 0.039506 -0.055423
v 0.142526 0.039506 -0.025447
v 0.144872 0.039506 -0.000000
v 0.142526 0.039506 0.025447
v 0.133819 0.039506 0.055423
v 0.120357 0.039506 0.080420
v 0.102429 0.039506 0.102429
v 0.080420 0.039506 0.120357
v 0.055423 0.039506 0.133819
v 0.025447 0.039506 0.142526
v 0.000000 0.039506 0.133209
v -0.020852 0.039506 0.131570
v -0.050957 0.039506 0.123056
v -0.071777 0.039506 0.112132
v -0.094172 0.039506 0.094172
v -0.112132 0.039506 0.071777
v -0.123056 0.039506 0.050957
v -0.131570 0.039506 0.020852
v -0.133209 0.039506 -0.000000
v -0.131570 0.039506 -0.020852
v -0.123056 0.039506 -0.050957
v -0.112132 0.039506 -0.071777
v -0.094172 0.039506 -0.094172
v -0.071777 0.039506 -0.112132
v -0.050957 0.039506 -0.123056
v -0.020852 0.039506 -0.131570
v 0.000000 0.039506 -0.133209
v 0.020820 0.039506 -0.131570
v 0.050957 0.039506 -0.123056
v 0.071777 0.039506 -0.112132
v 0.094172 0.039506 -0.094172
v 0.112132 0.039506 -0.071777
v 0.123056 0.039506 -0.050990
v 0.131570 0.039506 -0.020852
v 0.133209 0.039506 -0.000000
v 0.131570 0.039506 0.020852
v 0.123056 0.039506 0.050990
v 0.112132 0.039506 0.071777
v 0.094172 0.039506 0.094172
v 0.071777 0.039506 0.112132
v 0.050957 0.039506 0.123056
v 0.020820 0.039506 0.131570
v 0.000000 0.047667 -0.125048
v 0.019567 0.047667 -0.123506
v 0.047841 0.047667 -0.115506
v 0.065319 0.047667 -0.106606
v 0.088420 0.047667 -0.088420
v 0.106606 0.047667 -0.065319
v 0.115506 0.047667 -0.047841
v 0.123506 0.047667 -0.019567
v 0.125048 0.047667 -0.000000
v 0.123506 0.047667 0.019567
v 0.115506 0.047667 0.047841
v 0.106606 0.047667 0.065319
v 0.088420 0.047667 0.088420
v 0.065319 0.047667 0.106606
v 0.047841 0.047667 0.115506
v 0.019567 0.047667 0.123506
v 0.000000 0.047667 0.125048
v 0.000000 0.056021 -0.125048
v 0.019567 0.056021 -0.123506
v 0.047841 0.056021 -0.115506
v 0.065319 0.056021 -0.106606
v 0.088420 0.056021 -0.088420
v 0.106606 0.056021 -0.065319
v 0.115506 0.056021 -0.047841
v 0.123506 0.056021 -0.019567
v 0.125048 0.056021 -0.000000
v 0.123506 0.056021 0.019567
v 0.115506 0.056021 0.047841
v 0.106606 0.056021 0.065319
v 0.088420 0.056021 0.088420
v 0.065319 0.056021 0.106606
v 0.047841 0.056021 0.115506
v 0.019567 0.056021 0.123506
v 0.000000 0.056021 0.125048
v 0.000000 0.062222 0.122188
v 0.000000 0.064182 0.116887
v 0.000000 0.064182 -0.110397
v 0.017254 0.064182 -0.109047
v 0.042250 0.064182 -0.102011
v 0.064902 0.064182 -0.089320
v 0.078075 0.064182 -0.078075
v 0.089320 0.064182 -0.064902
v 0.102011 0.064182 -0.042250
v 0.109047 0.064182 -0.017286
v 0.110397 0.064182 -0.000000
v 0.109047 0.064182 0.017286
v 0.102011 0.064182 0.042250
v 0.089320 0.064182 0.064902
v 0.078075 0.064182 0.078075
v 0.064902 0.064182 0.089320
v 0.042250 0.064182 0.102011
v 0.017254 0.064182 0.109047
v 0.000000 0.064182 0.110397
v 0.000000 0.072343 0.102236
v -0.039134 0.072343 0.094461
v -0.072291 0.072343 0.072291
v -0.094461 0.072343 0.039134
v -0.102236 0.072343 -0.000000
v -0.094461 0.072343 -0.039134
v -0.072291 0.072343 -0.072291
v -0.039134 0.072343 -0.094461
v 0.000000 0.072343 -0.102236
v 0.000000 0.103251 0.102236
v -0.039134 0.103251 0.094461
v -0.072291 0.103251 0.072291
v -0.094461 0.103251 0.039134
v -0.102236 0.103251 -0.000000
v -0.094461 0.103251 -0.039134
v -0.072291 0.103251 -0.072291
v -0.039134 0.103251 -0.094461
v 0.000000 0.103251 -0.102236
v 0.000000 0.126224 0.105545
v -0.040387 0.126224 0.097513
v -0.074637 0.126224 0.074637
v -0.097513 0.126224 0.040387
v -0.105545 0.126224 -0.000000
v -0.097513 0.126224 -0.040387
v -0.074637 0.126224 -0.074637
v -0.040387 0.126224 -0.097513
v 0.000000 0.126224 -0.105545
v 0.000000 0.315017 0.065865
v -0.025222 0.315017 0.060853
v -0.046588 0.315017 0.046588
v -0.060853 0.315017 0.025222
v -0.065865 0.315017 -0.000000
v -0.060853 0.315017 -0.025222
v -0.046588 0.315017 -0.046588
v -0.025222 0.315017 -0.060853
v 0.000000 0.315017 -0.065865
v 0.025222 0.315017 -0.060853
v 0.046588 0.315017 -0.046588
v 0.060853 0.315017 -0.025222
v 0.065865 0.315017 -0.000000
v 0.060853 0.315017 0.025222
v 0.046588 0.315017 0.046588
v 0.025222 0.315017 0.060853
v 0.000000 0.370408 0.020402
v -0.014426 0.370408 0.014426
v -0.020402 0.370408 -0.000000
v -0.014426 0.370408 -0.014426
v 0.000000 0.370408 -0.020402
v 0.000000 0.016534 -0.153033
v 0.026892 0.016534 -0.150559
v 0.058572 0.016534 -0.141370
v 0.087456 0.016534 -0.125466
v 0.108212 0.016534 -0.108212
v 0.125466 0.016534 -0.087456
v 0.141370 0.016534 -0.058572
v 0.150559 0.016534 -0.026892
v 0.153033 0.016534 -0.000000
v 0.150559 0.016534 0.026892
v 0.141370 0.016534 0.058572
v 0.125466 0.016534 0.087456
v 0.108212 0.016534 0.108212
v 0.087456 0.016534 0.125466
v 0.058572 0.016534 0.141370
v 0.026892 0.016534 0.150559
v -0.026892 0.016534 0.150559
v -0.058572 0.016534 0.141370
v -0.087456 0.016534 0.125466
v -0.108212 0.016534 0.108212
v -0.125466 0.016534 0.087456
v -0.141370 0.016534 0.058572
v -0.150559 0.016534 0.026892
v -0.153001 0.016534 -0.000000
v -0.150559 0.016534 -0.026892
v -0.141370 0.016534 -0.058572
v -0.125466 0.016534 -0.087456
v -0.108212 0.016534 -0.108212
v -0.087456 0.016534 -0.125466
v -0.058572 0.016534 -0.141370
v -0.026892 0.016534 -0.150559
v 0.000000 -0.163488 0.066637
v 0.047616 -0.440508 -0.198400
v 0.078075 -0.440508 -0.188504
v 0.113256 -0.440508 -0.169515
v 0.144261 -0.440508 -0.144261
v 0.169515 -0.440508 -0.113256
v 0.188504 -0.440508 -0.078075
v 0.200745 -0.440508 -0.035857
v 0.204022 -0.440508 -0.000000
v 0.200745 -0.440508 0.035857
v 0.188504 -0.440508 0.078075
v 0.169515 -0.440508 0.113256
v 0.144261 -0.440508 0.144261
v 0.113256 -0.440508 0.169515
v 0.078075 -0.440508 0.188504
v 0.047616 -0.440508 0.198400
v -0.028660 -0.296632 0.130574
v -0.051182 -0.296632 0.123570
v -0.078621 -0.296632 0.108212
v -0.094557 -0.296632 0.094557
v -0.108212 -0.296632 0.078621
v -0.123570 -0.296632 0.051182
v -0.130574 -0.296632 0.028660
v -0.133755 -0.296632 -0.000000
v -0.130574 -0.296632 -0.028660
v -0.123570 -0.296632 -0.051182
v -0.108212 -0.296632 -0.078621
v -0.094557 -0.296632 -0.094557
v -0.078621 -0.296632 -0.108212
v -0.051182 -0.296632 -0.123570
v -0.028660 -0.296632 -0.130574
v -0.023615 -0.079405 0.057030
v -0.043664 -0.079405 0.043664
v -0.057030 -0.079405 0.023615
v -0.061753 -0.079405 -0.000000
v -0.057030 -0.079405 -0.023615
v -0.043664 -0.079405 -0.043664
v -0.023615 -0.079405 -0.057030
v -0.019567 0.047667 0.123506
v -0.047841 0.047667 0.115506
v -0.065319 0.047667 0.106606
v -0.088420 0.047667 0.088420
v -0.106606 0.047667 0.065319
v -0.115506 0.047667 0.047841
v -0.123506 0.047667 0.019567
v -0.125048 0.047667 -0.000000
v -0.123506 0.047667 -0.019567
v -0.115506 0.047667 -0.047841
v -0.106606 0.047667 -0.065319
v -0.088420 0.047667 -0.088420
v -0.065319 0.047667 -0.106606
v -0.047841 0.047667 -0.115506
v -0.019567 0.047667 -0.123506
v 0.000000 0.064182 -0.116887
v 0.000000 0.062222 -0.122188
v 0.018282 0.064182 -0.115441
v 0.044724 0.064182 -0.107987
v 0.061078 0.064182 -0.099666
v 0.082637 0.064182 -0.082637
v 0.099666 0.064182 -0.061078
v 0.107987 0.064182 -0.044724
v 0.115441 0.064182 -0.018282
v 0.116887 0.064182 -0.000000
v 0.115441 0.064182 0.018282
v 0.107987 0.064182 0.044724
v 0.099666 0.064182 0.061078
v 0.082637 0.064182 0.082637
v 0.061078 0.064182 0.099666
v 0.044724 0.064182 0.107987
v 0.018282 0.064182 0.115441
v 0.039134 0.072343 -0.094461
v 0.072291 0.072343 -0.072291
v 0.094461 0.072343 -0.039134
v 0.102236 0.072343 -0.000000
v 0.094461 0.072343 0.039134
v 0.072291 0.072343 0.072291
v 0.039134 0.072343 0.094461
v 0.039134 0.103251 -0.094461
v 0.072291 0.103251 -0.072291
v 0.094461 0.103251 -0.039134
v 0.102236 0.103251 -0.000000
v 0.094461 0.103251 0.039134
v 0.072291 0.103251 0.072291
v 0.039134 0.103251 0.094461
v 0.040387 0.126224 -0.097513
v 0.074637 0.126224 -0.074637
v 0.097513 0.126224 -0.040387
v 0.105545 0.126224 -0.000000
v 0.097513 0.126224 0.040387
v 0.074637 0.126224 0.074637
v 0.040387 0.126224 0.097513
v 0.000000 0.334423 -0.041961
v -0.016065 0.334423 -0.038748
v -0.029656 0.334423 -0.029656
v -0.038748 0.334423 -0.016065
v -0.041961 0.334423 -0.000000
v -0.038748 0.334423 0.016065
v -0.029656 0.334423 0.029656
v -0.016065 0.334423 0.038748
v 0.000000 0.334423 0.041961
v -0.008643 0.375581 0.008643
v -0.012241 0.375581 -0.000000
v -0.008643 0.375581 -0.008643
v -0.014426 0.367420 -0.014426
v -0.020402 0.367420 -0.000000
v -0.014426 0.367420 0.014426
v 0.000000 0.037097 -0.150623
v -0.028531 -0.037669 0.068854
v -0.052692 -0.037669 0.052692
v -0.068854 -0.037669 0.028531
v -0.074508 -0.037669 -0.000000
v -0.068854 -0.037669 -0.028531
v -0.052692 -0.037669 -0.052692
v -0.028531 -0.037669 -0.068854
v 0.032740 -0.245546 -0.079071
v 0.060532 -0.245546 -0.060532
v 0.079071 -0.245546 -0.032740
v 0.085593 -0.245546 -0.000000
v 0.079071 -0.245546 0.032740
v 0.060532 -0.245546 0.060532
v 0.032740 -0.245546 0.079071
v -0.019567 0.056021 0.123506
v -0.047841 0.056021 0.115506
v -0.065319 0.056021 0.106606
v -0.088420 0.056021 0.088420
v -0.106606 0.056021 0.065319
v -0.115506 0.056021 0.047841
v -0.123506 0.056021 0.019567
v -0.125048 0.056021 -0.000000
v -0.123506 0.056021 -0.019567
v -0.115506 0.056021 -0.047841
v -0.106606 0.056021 -0.065319
v -0.088420 0.056021 -0.088420
v -0.065319 0.056021 -0.106606
v -0.047841 0.056021 -0.115506
v -0.019567 0.056021 -0.123506
v -0.018282 0.064182 0.115441
v -0.044724 0.064182 0.107987
v -0.061078 0.064182 0.099666
v -0.082637 0.064182 0.082637
v -0.099666 0.064182 0.061078
v -0.107987 0.064182 0.044724
v -0.115441 0.064182 0.018282
v -0.116887 0.064182 -0.000000
v -0.115441 0.064182 -0.018282
v -0.107987 0.064182 -0.044724
v -0.099666 0.064182 -0.061078
v -0.082637 0.064182 -0.082637
v -0.061078 0.064182 -0.099666
v -0.044724 0.064182 -0.107987
v -0.018282 0.064182 -0.115441
v -0.017286 0.064182 0.109047
v -0.042250 0.064182 0.101979
v -0.064902 0.064182 0.089320
v -0.078075 0.064182 0.078075
v -0.089320 0.064182 0.064902
v -0.102011 0.064182 0.042250
v -0.109047 0.064182 0.017286
v -0.110397 0.064182 -0.000000
v -0.109047 0.064182 -0.017286
v -0.102011 0.064182 -0.042250
v -0.089320 0.064182 -0.064902
v -0.078075 0.064182 -0.078075
v -0.064902 0.064182 -0.089320
v -0.042250 0.064182 -0.101979
v -0.017286 0.064182 -0.109047
v 0.000000 0.066559 -0.104614
v 0.000000 0.273024 -0.093176
v 0.000000 0.225600 -0.109433
v 0.000000 0.175671 -0.113642
v 0.014426 0.370408 -0.014426
v 0.020402 0.370408 -0.000000
v 0.014426 0.370408 0.014426
v 0.000000 -0.020576 0.088195
v 0.000000 -0.006792 0.105224
v 0.000000 0.003039 0.124791
v 0.000000 0.003039 -0.124791
v 0.000000 -0.006792 -0.105224
v 0.000000 -0.020576 -0.088195
v 0.000000 -0.262061 -0.093015
v 0.000000 -0.276519 -0.103875
v 0.000000 -0.288247 -0.117690
v 0.000000 0.041884 0.127426
v 0.000000 0.175671 0.113642
v 0.000000 0.225600 0.109433
v 0.000000 0.273024 0.093176
v 0.016065 0.334423 0.038748
v 0.029656 0.334423 0.029656
v 0.038748 0.334423 0.016065
v 0.041961 0.334423 -0.000000
v 0.038748 0.334423 -0.016065
v 0.029656 0.334423 -0.029656
v 0.016065 0.334423 -0.038748
v 0.000000 -0.306914 -0.152487
v 0.000000 -0.288247 0.117690
v 0.000000 -0.276519 0.103875
v 0.000000 -0.262061 0.093015
v 0.000000 -0.345501 -0.183749
v 0.000000 -0.377631 -0.197404
v -0.000000 -0.402435 -0.202930
v 0.000000 -0.057653 0.065287
v 0.000000 0.041884 -0.127426
v 0.000000 -0.402435 0.202930
v 0.000000 -0.377631 0.197404
v 0.000000 -0.345501 0.183749
v 0.000000 0.373203 -0.018025
v 0.000000 -0.306914 0.152487
v 0.000000 0.037097 0.150623
v 0.000000 0.349427 -0.026186
v 0.000000 0.373203 0.018025
v 0.000000 -0.057653 -0.065287
v 0.000000 0.066559 0.104614
v 0.000000 0.349427 0.026186
l 1 2 3 4 5
l 6 7 8 9 10
l 11 12 13 14 15 16 17 18 19 20 21 22 23 24 25 26 27
l 28 29 30 31 32 33 34 35 36 37 38 39 40 41 42 43 44
l 44 45 46 47 48 49 50 51 52 53 54 55 56 57 58 59 28
l 60 61
l 62 63 64 65 66 67 68 69 70 71 72 73 74 75 76 77 60
l 60 78 79 80 81 82 83 84 85 86 87 88 89 90 91 92 62
l 93 94 95 96 97 98 99 100 101
l 102 103 104 105 106 107 108 109 110
l 111 112 113 114 115 116 117 118 119 120 121 122 123 124 125 126 127
l 127 128 129 130 131 132 133 134 135 136 137 138 139 140 141 142 111
l 143 144 145 146 147 148 149 150 151 152 153 154 155 156 157 158 159
l 160 161 162 163 164 165 166 167 168 169 170 171 172 173 174 175 176
l 177 178 179 180 181 182 183 184 185
l 102 186 185
l 27 187 188 189 190 191 192 193 194 195 196 197 198 199 200 201 11
l 202 203 204 205 206 207 208 209 210 211 212 213 214 215 216 217 218
l 218 219 220 221 222 223 224 225 226 227 228 229 230 231 232 233 202
l 234 235 236 237 238 239 240 241 242 243 244 245 246 247 248 249 250
l 251 252 253 254 255 256 257 258 259 260 261 262 263 264 265 266 267
l 267 268 269
l 270 271 272 273 274 275 276 277 278 279 280 281 282 283 284 285 286
l 287 288 289 290 291 292 293 294 295
l 296 297 298 299 300 301 302 303 304
l 305 306 307 308 309 310 311 312 313
l 314 315 316 317 318 319 320 321 322
l 322 323 324 325 326 327 328 329 314
l 330 331 332 333 334
l 335 336 337 338 339 340 341 342 343 344 345 346 347 348 349 350 61
l 61 351 352 353 354 355 356 357 358 359 360 361 362 363 364 365 335
l 177 366 110
l 159 367 368 369 370 371 372 373 374 375 376 377 378 379 380 381 143
l 176 382 383 384 385 386 387 388 389 390 391 392 393 394 395 396 160
l 110 397 398 399 400 401 402 403 102
l 250 404 405 406 407 408 409 410 411 412 413 414 415 416 417 418 234
l 419 420 251
l 419 421 422 423 424 425 426 427 428 429 430 431 432 433 434 435 269
l 295 436 437 438 439 440 441 442 287
l 304 443 444 445 446 447 448 449 296
l 313 450 451 452 453 454 455 456 305
l 457 458 459 460 461 462 463 464 465
l 5 466 467 468 1
l 10 469 470 471 6
l 27 472 28
l 101 473 474 475 476 477 478 479 93
l 185 480 481 482 483 484 485 486 177
l 267 487 488 489 490 491 492 493 494 495 496 497 498 499 500 501 251
l 269 502 503 504 505 506 507 508 509 510 511 512 513 514 515 516 419
l 286 517 518 519 520 521 522 523 524 525 526 527 528 529 530 531 270
l 295 532 270
l 322 533 534 535 313
l 457 322
l 334 536 537 538 330
l 101 539 540 541 60
l 62 542 543 544 93
l 185 545 546 547 160
l 202 548 250
l 305 549 550 551 314
l 465 552 553 554 555 556 557 558 457
l 330 6
l 250 267
l 160 559 111
l 10 334
l 176 560 561 562 177
l 111 563 564 565 159
l 110 566 101
l 234 567 218
l 143 568 569 570 127
l 1 571 10
l 127 572 176
l 296 305
l 44 573 11
l 61 44
l 251 234
l 334 574 457
l 6 575 5
l 313 304
l 287 296
l 335 62
l 93 576 102
l 28 335
l 286 577 287
l 304 295
l 314 465
l 465 578 330
