v -0.151303 0.324818 -0.132794
v -0.153212 0.224006 -0.123827
v -0.157832 0.162729 -0.115361
v -0.166031 0.102664 -0.099461
v -0.173090 0.055390 -0.079259
v 0.151303 0.324818 -0.132794
v 0.153212 0.224006 -0.123827
v 0.157832 0.162729 -0.115361
v 0.166031 0.102664 -0.099461
v 0.173090 0.055390 -0.079259
v -0.176459 0.068779 -0.077408
v -0.144517 0.059227 -0.083600
v -0.097575 0.050936 -0.090089
v 0.000000 0.046775 -0.096639
v 0.176459 0.068779 -0.077408
v 0.144517 0.059227 -0.083600
v 0.097575 0.050936 -0.090089
v -0.150322 0.328208 -0.132143
v -0.058331 0.327775 -0.136762
v 0.017437 0.329258 -0.132886
v 0.150322 0.328208 -0.132143
v 0.058331 0.327775 -0.136762
v -0.017437 0.329258 -0.132886
v -0.170323 0.293271 -0.201388
v -0.172481 0.244700 -0.213681
v -0.178612 0.188301 -0.224164
v -0.207270 0.036365 -0.244999
v -0.227461 -0.030423 -0.250588
v -0.254171 -0.117279 -0.251341
v -0.270758 -0.149606 -0.251458
v -0.286734 -0.164947 -0.246054
v 0.170323 0.293271 -0.201388
v 0.172481 0.244700 -0.213681
v 0.178612 0.188301 -0.224164
v 0.207270 0.036365 -0.244999
v 0.227461 -0.030423 -0.250588
v 0.254171 -0.117279 -0.251341
v 0.270758 -0.149606 -0.251458
v 0.286734 -0.164947 -0.246054
v -0.164032 0.308222 -0.192072
v -0.157762 0.283911 -0.195371
v -0.159062 0.259760 -0.202258
v -0.178784 0.181618 -0.218904
v -0.198013 0.093453 -0.229562
v -0.225861 -0.025844 -0.237662
v -0.271459 -0.159084 -0.244393
v 0.164032 0.308222 -0.192072
v 0.157762 0.283911 -0.195371
v 0.159062 0.259760 -0.202258
v 0.178784 0.181618 -0.218904
v 0.198013 0.093453 -0.229562
v 0.225861 -0.025844 -0.237662
v 0.271459 -0.159084 -0.244393
v -0.155396 0.284957 -0.220151
v -0.145885 0.313512 -0.152373
v -0.147580 0.328343 -0.121652
v 0.155396 0.284957 -0.220151
v 0.145885 0.313512 -0.152373
v 0.147580 0.328343 -0.121652
v -0.164464 0.307854 -0.195394
v -0.044713 0.307829 -0.196110
v -0.004762 0.310725 -0.194515
v 0.021794 0.315747 -0.191832
v 0.164464 0.307854 -0.195394
v 0.044713 0.307829 -0.196110
v 0.004762 0.310725 -0.194515
v -0.021794 0.315747 -0.191832
v -0.087322 0.280183 -0.187091
v -0.101341 0.166408 -0.227527
v -0.113054 0.059309 -0.254863
v -0.118946 -0.006614 -0.263690
v -0.128869 -0.148887 -0.270264
v 0.087322 0.280183 -0.187091
v 0.101341 0.166408 -0.227527
v 0.113054 0.059309 -0.254863
v 0.118946 -0.006614 -0.263690
v 0.128869 -0.148887 -0.270264
v -0.065155 0.032077 -0.053386
v -0.059106 0.020155 0.023624
v -0.056246 0.017608 0.096089
v -0.057777 0.025896 0.148709
v -0.063483 0.044259 0.189395
v 0.065155 0.032077 -0.053386
v 0.059106 0.020155 0.023624
v 0.056246 0.017608 0.096089
v 0.057777 0.025896 0.148709
v 0.063483 0.044259 0.189395
v -0.052049 0.296668 -0.138373
v -0.053884 0.190432 -0.116978
v -0.057721 0.053189 -0.080195
v 0.052049 0.296668 -0.138373
v 0.053884 0.190432 -0.116978
v 0.057721 0.053189 -0.080195
v -0.143051 0.302168 -0.194704
v -0.011938 0.306118 -0.197258
v 0.028887 0.314671 -0.195018
v 0.143051 0.302168 -0.194704
v 0.011938 0.306118 -0.197258
v -0.028887 0.314671 -0.195018
v -0.251481 -0.196250 -0.241352
v -0.180628 -0.194168 -0.266860
v -0.090412 -0.190523 -0.286534
v -0.021451 -0.192502 -0.295209
v 0.034585 -0.200964 -0.295885
v 0.251481 -0.196250 -0.241352
v 0.180628 -0.194168 -0.266860
v 0.090412 -0.190523 -0.286534
v 0.021451 -0.192502 -0.295209
v -0.034585 -0.200964 -0.295885
v -0.261046 -0.183689 -0.252837
v -0.161938 -0.187326 -0.278561
v -0.093188 -0.188424 -0.290152
v -0.022896 -0.191760 -0.293112
v 0.027262 -0.198614 -0.285335
v 0.261046 -0.183689 -0.252837
v 0.161938 -0.187326 -0.278561
v 0.093188 -0.188424 -0.290152
v 0.022896 -0.191760 -0.293112
v -0.027262 -0.198614 -0.285335
v -0.151127 0.047354 -0.090529
v -0.073213 0.053876 -0.089615
v 0.016342 0.056708 -0.085553
v 0.151127 0.047354 -0.090529
v 0.073213 0.053876 -0.089615
v -0.016342 0.056708 -0.085553
v -0.263633 -0.175143 -0.241712
v -0.243831 -0.184876 -0.146325
v -0.236622 -0.188882 -0.072353
v 0.263633 -0.175143 -0.241712
v 0.243831 -0.184876 -0.146325
v 0.236622 -0.188882 -0.072353
v -0.235777 -0.180466 -0.077316
v -0.205379 -0.134376 0.021109
v -0.176181 -0.073285 0.114570
v -0.149712 -0.034808 0.174750
v 0.235777 -0.180466 -0.077316
v 0.205379 -0.134376 0.021109
v 0.176181 -0.073285 0.114570
v 0.149712 -0.034808 0.174750
v -0.233325 -0.191907 -0.069454
v -0.204728 -0.131934 0.018857
v -0.146503 -0.032300 0.176332
v 0.233325 -0.191907 -0.069454
v 0.204728 -0.131934 0.018857
v 0.146503 -0.032300 0.176332
v -0.267483 -0.182352 -0.232180
v -0.248132 -0.185512 -0.161982
v -0.240140 -0.186950 -0.118921
v -0.239886 -0.184916 -0.082808
v -0.246129 -0.177754 -0.045262
v 0.267483 -0.182352 -0.232180
v 0.248132 -0.185512 -0.161982
v 0.240140 -0.186950 -0.118921
v 0.239886 -0.184916 -0.082808
v 0.246129 -0.177754 -0.045262
v -0.166852 0.030863 -0.074866
v -0.147642 0.014506 0.005100
v -0.140624 0.010975 0.066688
v -0.136247 0.015900 0.134014
v -0.132364 0.037941 0.249178
v 0.166852 0.030863 -0.074866
v 0.147642 0.014506 0.005100
v 0.140624 0.010975 0.066688
v 0.136247 0.015900 0.134014
v 0.132364 0.037941 0.249178
v -0.141534 0.002474 0.084253
v -0.146031 0.009163 0.026492
v -0.151099 0.020070 -0.018800
v -0.158877 0.038024 -0.063287
v -0.165705 0.062818 -0.105233
v 0.141534 0.002474 0.084253
v 0.146031 0.009163 0.026492
v 0.151099 0.020070 -0.018800
v 0.158877 0.038024 -0.063287
v 0.165705 0.062818 -0.105233
v -0.135687 0.039946 0.237703
v -0.048684 0.039186 0.232471
v 0.028877 0.037424 0.233292
v 0.135687 0.039946 0.237703
v 0.048684 0.039186 0.232471
v -0.028877 0.037424 0.233292
v -0.098124 0.017405 0.023013
v 0.038382 0.015951 0.022420
v 0.098124 0.017405 0.023013
v -0.038382 0.015951 0.022420
v -0.078273 0.017934 0.121743
v -0.008748 0.017378 0.128280
v 0.052349 0.022900 0.137663
v 0.078273 0.017934 0.121743
v 0.008748 0.017378 0.128280
v -0.052349 0.022900 0.137663
v -0.150275 -0.038131 0.180040
v -0.151107 -0.072011 0.195135
v -0.157590 -0.135608 0.227769
v -0.179082 -0.223162 0.272035
v 0.150275 -0.038131 0.180040
v 0.151107 -0.072011 0.195135
v 0.157590 -0.135608 0.227769
v 0.179082 -0.223162 0.272035
v -0.169848 -0.214000 0.289928
v -0.129940 -0.212596 0.300531
v 0.169848 -0.214000 0.289928
v 0.129940 -0.212596 0.300531
v -0.072072 -0.031719 0.252827
v -0.144179 -0.228691 0.295237
v 0.072072 -0.031719 0.252827
v 0.144179 -0.228691 0.295237
v -0.063924 -0.033790 0.252036
v 0.022560 -0.032742 0.253994
v 0.063924 -0.033790 0.252036
v -0.022560 -0.032742 0.253994
v -0.063633 -0.035143 0.253618
v 0.019769 -0.030187 0.258718
v 0.063633 -0.035143 0.253618
v -0.019769 -0.030187 0.258718
v -0.078777 -0.043161 0.254658
v -0.112774 -0.141133 0.275606
v -0.141809 -0.217809 0.299953
v 0.078777 -0.043161 0.254658
v 0.112774 -0.141133 0.275606
v 0.141809 -0.217809 0.299953
v -0.136932 0.046733 0.228794
v -0.163819 -0.160436 0.279085
v -0.169434 -0.218296 0.287090
v 0.136932 0.046733 0.228794
v 0.163819 -0.160436 0.279085
v 0.169434 -0.218296 0.287090
v -0.168806 -0.213990 0.263653
v -0.168938 -0.210948 0.303390
v 0.168806 -0.213990 0.263653
v 0.168938 -0.210948 0.303390
v -0.153458 -0.141344 0.232155
v -0.163959 -0.194561 0.259274
v -0.170324 -0.222056 0.277393
v 0.153458 -0.141344 0.232155
v 0.163959 -0.194561 0.259274
v 0.170324 -0.222056 0.277393
v -0.155012 0.246865 -0.166060
v -0.183027 0.103225 -0.179756
v -0.221034 -0.055285 -0.193407
v -0.228528 -0.087476 -0.193388
v -0.235498 -0.130186 -0.189330
v 0.155012 0.246865 -0.166060
v 0.183027 0.103225 -0.179756
v 0.221034 -0.055285 -0.193407
v 0.228528 -0.087476 -0.193388
v 0.235498 -0.130186 -0.189330
v -0.233835 -0.072167 -0.216221
v -0.202108 -0.066503 -0.115302
v -0.177446 -0.054704 -0.024026
v -0.155783 -0.036839 0.069497
v -0.143931 -0.014712 0.152952
v 0.233835 -0.072167 -0.216221
v 0.202108 -0.066503 -0.115302
v 0.177446 -0.054704 -0.024026
v 0.155783 -0.036839 0.069497
v 0.143931 -0.014712 0.152952
l 1 2 3 4 5
l 6 7 8 9 10
l 11 12 13 14
l 15 16 17 14
l 18 19 20
l 21 22 23
l 24 25 26 27 28 29 30 31
l 32 33 34 35 36 37 38 39
l 40 41 42 43 44 45 46
l 47 48 49 50 51 52 53
l 54 55 56
l 57 58 59
l 60 61 62 63
l 64 65 66 67
l 68 69 70 71 72
l 73 74 75 76 77
l 78 79 80 81 82
l 83 84 85 86 87
l 88 89 90
l 91 92 93
l 94 95 96
l 97 98 99
l 100 101 102 103 104
l 105 106 107 108 109
l 110 111 112 113 114
l 115 116 117 118 119
l 120 121 122
l 123 124 125
l 126 127 128
l 129 130 131
l 132 133 134 135
l 136 137 138 139
l 140 141 142
l 143 144 145
l 146 147 148 149 150
l 151 152 153 154 155
l 156 157 158 159 160
l 161 162 163 164 165
l 166 167 168 169 170
l 171 172 173 174 175
l 176 177 178
l 179 180 181
l 182 183
l 184 185
l 186 187 188
l 189 190 191
l 192 193 194 195
l 196 197 198 199
l 200 201
l 202 203
l 204 205
l 206 207
l 208 209
l 210 211
l 212 213
l 214 215
l 216 217 218
l 219 220 221
l 222 223 224
l 225 226 227
l 228 229
l 230 231
l 232 233 234
l 235 236 237
l 238 239 240 241 242
l 243 244 245 246 247
l 248 249 250 251 252
l 253 254 255 256 257
