v -0.002181 0.269609 0.052080
v -0.043598 0.258236 0.055608
v -0.074119 0.241723 0.058845
v -0.099287 0.218627 0.060714
v -0.126084 0.182350 0.059117
v -0.137622 0.158087 0.059330
v -0.141619 0.133891 0.062114
v -0.139763 0.101794 0.067270
v -0.131254 0.062692 0.074058
v 0.002181 0.269609 0.052080
v 0.043598 0.258236 0.055608
v 0.074119 0.241723 0.058845
v 0.099287 0.218627 0.060714
v 0.126084 0.182350 0.059117
v 0.137622 0.158087 0.059330
v 0.141619 0.133891 0.062114
v 0.139763 0.101794 0.067270
v 0.131254 0.062692 0.074058
v -0.000000 0.271261 0.057571
v 0.000525 0.268353 0.028450
v 0.004725 0.262397 0.004690
v 0.011443 0.252833 -0.015407
v 0.014139 0.239369 -0.029567
v 0.014184 0.212680 -0.048225
v 0.014094 0.186325 -0.061913
v 0.017593 0.102421 -0.085595
v -0.000525 0.268353 0.028450
v -0.004725 0.262397 0.004690
v -0.011443 0.252833 -0.015407
v -0.014139 0.239369 -0.029567
v -0.014184 0.212680 -0.048225
v -0.014094 0.186325 -0.061913
v -0.017593 0.102421 -0.085595
v 0.006101 -0.106284 0.122030
v -0.001440 -0.096630 0.146244
v -0.020368 -0.066970 0.194635
v -0.024858 -0.051921 0.214438
v -0.024958 -0.034336 0.230442
v -0.023839 -0.007430 0.245423
v -0.024242 0.020945 0.253971
v -0.026201 0.071127 0.260958
v -0.027909 0.101834 0.259956
v -0.031206 0.129604 0.251436
v -0.036782 0.168495 0.230897
v -0.042019 0.206399 0.204638
v -0.043870 0.226303 0.184767
v -0.042283 0.249765 0.144061
v -0.037189 0.268574 0.098781
v -0.034549 0.271205 0.078357
v -0.031526 0.266364 0.053636
v -0.006101 -0.106284 0.122030
v 0.001440 -0.096630 0.146244
v 0.020368 -0.066970 0.194635
v 0.024858 -0.051921 0.214438
v 0.024958 -0.034336 0.230442
v 0.023839 -0.007430 0.245423
v 0.024242 0.020945 0.253971
v 0.026201 0.071127 0.260958
v 0.027909 0.101834 0.259956
v 0.031206 0.129604 0.251436
v 0.036782 0.168495 0.230897
v 0.042019 0.206399 0.204638
v 0.043870 0.226303 0.184767
v 0.042283 0.249765 0.144061
v 0.037189 0.268574 0.098781
v 0.034549 0.271205 0.078357
v 0.031526 0.266364 0.053636
v -0.010379 -0.120581 0.074156
v -0.039052 -0.107238 0.074140
v -0.053467 -0.097680 0.076006
v -0.082042 -0.064387 0.085258
v -0.107521 -0.028102 0.087031
v -0.122845 -0.000665 0.086890
v -0.130527 0.020696 0.085743
v -0.140058 0.065055 0.078130
v -0.145864 0.099127 0.067215
v 0.010379 -0.120581 0.074156
v 0.039052 -0.107238 0.074140
v 0.053467 -0.097680 0.076006
v 0.082042 -0.064387 0.085258
v 0.107521 -0.028102 0.087031
v 0.122845 -0.000665 0.086890
v 0.130527 0.020696 0.085743
v 0.140058 0.065055 0.078130
v 0.145864 0.099127 0.067215
v -0.009590 -0.038016 -0.054599
v -0.008825 -0.074270 -0.045755
v -0.009516 -0.086653 -0.038585
v -0.020292 -0.093664 0.009601
v -0.031315 -0.117715 0.072638
v 0.009590 -0.038016 -0.054599
v 0.008825 -0.074270 -0.045755
v 0.009516 -0.086653 -0.038585
v 0.020292 -0.093664 0.009601
v 0.031315 -0.117715 0.072638
v -0.016979 -0.082328 -0.041835
v -0.057755 -0.076569 -0.024525
v -0.067385 -0.072476 -0.018794
v -0.103353 -0.016582 0.053492
v -0.118329 0.018644 0.087965
v 0.016979 -0.082328 -0.041835
v 0.057755 -0.076569 -0.024525
v 0.067385 -0.072476 -0.018794
v 0.103353 -0.016582 0.053492
v 0.118329 0.018644 0.087965
v -0.012705 0.156600 -0.076723
v -0.010226 0.117712 -0.094725
v -0.013342 0.070270 -0.135618
v -0.014779 0.051013 -0.142924
v -0.014709 0.044578 -0.139758
v -0.014454 0.040606 -0.133117
v -0.013205 0.032352 -0.089067
v -0.015890 0.021856 -0.059276
v 0.012705 0.156600 -0.076723
v 0.010226 0.117712 -0.094725
v 0.013342 0.070270 -0.135618
v 0.014779 0.051013 -0.142924
v 0.014709 0.044578 -0.139758
v 0.014454 0.040606 -0.133117
v 0.013205 0.032352 -0.089067
v 0.015890 0.021856 -0.059276
v -0.015244 0.050588 -0.143172
v -0.026621 0.052582 -0.133384
v -0.041892 0.057583 -0.105990
v -0.047820 0.059859 -0.087309
v -0.049790 0.061957 -0.063702
v 0.015244 0.050588 -0.143172
v 0.026621 0.052582 -0.133384
v 0.041892 0.057583 -0.105990
v 0.047820 0.059859 -0.087309
v 0.049790 0.061957 -0.063702
v -0.015656 0.134214 -0.077731
v -0.018981 0.100868 -0.087319
v -0.027393 0.082185 -0.094490
v -0.044127 0.068735 -0.076019
v -0.047583 0.061138 -0.069666
v -0.044529 0.049242 -0.068479
v -0.036826 0.036714 -0.067421
v -0.015048 0.023628 -0.067549
v 0.015656 0.134214 -0.077731
v 0.018981 0.100868 -0.087319
v 0.027393 0.082185 -0.094490
v 0.044127 0.068735 -0.076019
v 0.047583 0.061138 -0.069666
v 0.044529 0.049242 -0.068479
v 0.036826 0.036714 -0.067421
v 0.015048 0.023628 -0.067549
v -0.010347 0.020240 -0.068275
v -0.005826 0.006247 -0.067292
v -0.006766 -0.012019 -0.060782
v 0.010347 0.020240 -0.068275
v 0.005826 0.006247 -0.067292
v 0.006766 -0.012019 -0.060782
v 0.000332 -0.014282 -0.064322
v -0.011889 -0.007014 -0.059899
v -0.031105 -0.015394 -0.046753
v -0.051950 -0.011525 -0.036258
v -0.000332 -0.014282 -0.064322
v 0.011889 -0.007014 -0.059899
v 0.031105 -0.015394 -0.046753
v 0.051950 -0.011525 -0.036258
v -0.000389 -0.021180 -0.062871
v -0.018610 -0.022594 -0.059617
v -0.030487 -0.022857 -0.050101
v -0.039718 -0.019832 -0.043126
v -0.052466 -0.011657 -0.037289
v 0.000389 -0.021180 -0.062871
v 0.018610 -0.022594 -0.059617
v 0.030487 -0.022857 -0.050101
v 0.039718 -0.019832 -0.043126
v 0.052466 -0.011657 -0.037289
v -0.001904 -0.037523 -0.063109
v -0.012830 -0.036557 -0.059615
v -0.025444 -0.033243 -0.050088
v -0.053763 -0.012447 -0.031519
v 0.001904 -0.037523 -0.063109
v 0.012830 -0.036557 -0.059615
v 0.025444 -0.033243 -0.050088
v 0.053763 -0.012447 -0.031519
v -0.003190 -0.027186 -0.071065
v -0.019529 -0.027102 -0.065670
v -0.034581 -0.024380 -0.048402
v -0.047886 -0.017896 -0.035732
v 0.003190 -0.027186 -0.071065
v 0.019529 -0.027102 -0.065670
v 0.034581 -0.024380 -0.048402
v 0.047886 -0.017896 -0.035732
v -0.003818 -0.017537 -0.065258
v -0.010470 -0.017280 -0.068004
v -0.017199 -0.016615 -0.066225
v -0.042542 -0.017218 -0.042449
v 0.003818 -0.017537 -0.065258
v 0.010470 -0.017280 -0.068004
v 0.017199 -0.016615 -0.066225
v 0.042542 -0.017218 -0.042449
v -0.062651 0.108252 -0.072891
v -0.079940 0.133192 -0.059450
v -0.090938 0.142136 -0.047908
v -0.103873 0.140386 -0.033305
v -0.121370 0.130626 -0.009945
v -0.137170 0.125879 0.017516
v 0.062651 0.108252 -0.072891
v 0.079940 0.133192 -0.059450
v 0.090938 0.142136 -0.047908
v 0.103873 0.140386 -0.033305
v 0.121370 0.130626 -0.009945
v 0.137170 0.125879 0.017516
v -0.066304 0.111607 -0.065506
v -0.089213 0.099772 -0.051718
v -0.110900 0.098812 -0.033917
v -0.119590 0.105092 -0.023326
v -0.137657 0.130572 0.017267
v 0.066304 0.111607 -0.065506
v 0.089213 0.099772 -0.051718
v 0.110900 0.098812 -0.033917
v 0.119590 0.105092 -0.023326
v 0.137657 0.130572 0.017267
v -0.067941 0.125196 -0.067871
v -0.075918 0.160440 -0.045472
v -0.080030 0.167755 -0.034023
v -0.085899 0.169551 -0.021507
v -0.093884 0.165548 -0.010919
v -0.105451 0.157344 -0.002949
v -0.135831 0.128987 0.000422
v 0.067941 0.125196 -0.067871
v 0.075918 0.160440 -0.045472
v 0.080030 0.167755 -0.034023
v 0.085899 0.169551 -0.021507
v 0.093884 0.165548 -0.010919
v 0.105451 0.157344 -0.002949
v 0.135831 0.128987 0.000422
v -0.129587 0.094169 0.009543
v -0.110286 0.053672 -0.005041
v -0.086891 0.024161 -0.023533
v -0.078667 0.007815 -0.028525
v -0.074270 -0.008984 -0.030254
v -0.071488 -0.029411 -0.028555
v -0.071076 -0.068579 -0.018325
v 0.129587 0.094169 0.009543
v 0.110286 0.053672 -0.005041
v 0.086891 0.024161 -0.023533
v 0.078667 0.007815 -0.028525
v 0.074270 -0.008984 -0.030254
v 0.071488 -0.029411 -0.028555
v 0.071076 -0.068579 -0.018325
v -0.105521 0.132049 -0.047754
v -0.103493 0.125109 -0.053192
v -0.104651 0.117373 -0.052684
v -0.107702 0.115496 -0.042271
v -0.108488 0.122472 -0.035243
v -0.107136 0.131176 -0.039221
v -0.106361 0.132108 -0.049396
v -0.106452 0.127286 -0.053305
v -0.107180 0.122374 -0.051961
v -0.108144 0.121092 -0.046797
v -0.108077 0.124138 -0.042655
v -0.106481 0.129087 -0.043436
v -0.104866 0.131460 -0.047844
v -0.104738 0.128457 -0.050561
v -0.105872 0.121815 -0.049685
v -0.110712 0.124415 -0.042060
v 0.105521 0.132049 -0.047754
v 0.103493 0.125109 -0.053192
v 0.104651 0.117373 -0.052684
v 0.107702 0.115496 -0.042271
v 0.108488 0.122472 -0.035243
v 0.107136 0.131176 -0.039221
v 0.106361 0.132108 -0.049396
v 0.106452 0.127286 -0.053305
v 0.107180 0.122374 -0.051961
v 0.108144 0.121092 -0.046797
v 0.108077 0.124138 -0.042655
v 0.106481 0.129087 -0.043436
v 0.104866 0.131460 -0.047844
v 0.104738 0.128457 -0.050561
v 0.105872 0.121815 -0.049685
v 0.110712 0.124415 -0.042060
v -0.099589 0.141538 -0.035282
v -0.089780 0.134205 -0.052863
v -0.086165 0.124604 -0.061058
v -0.089066 0.110815 -0.058165
v -0.097157 0.103603 -0.046413
v -0.108220 0.105849 -0.032149
v -0.111761 0.123287 -0.026447
v -0.107752 0.136848 -0.029460
v -0.096230 0.143423 -0.044831
v 0.099589 0.141538 -0.035282
v 0.089780 0.134205 -0.052863
v 0.086165 0.124604 -0.061058
v 0.089066 0.110815 -0.058165
v 0.097157 0.103603 -0.046413
v 0.108220 0.105849 -0.032149
v 0.111761 0.123287 -0.026447
v 0.107752 0.136848 -0.029460
v 0.096230 0.143423 -0.044831
v -0.068530 0.124203 -0.067647
v -0.083850 0.149213 -0.056703
v -0.090810 0.155568 -0.049676
v -0.097896 0.157956 -0.041529
v -0.106838 0.155690 -0.031226
v -0.117805 0.146686 -0.018546
v -0.125723 0.136605 -0.006768
v -0.128110 0.128061 0.003288
v 0.068530 0.124203 -0.067647
v 0.083850 0.149213 -0.056703
v 0.090810 0.155568 -0.049676
v 0.097896 0.157956 -0.041529
v 0.106838 0.155690 -0.031226
v 0.117805 0.146686 -0.018546
v 0.125723 0.136605 -0.006768
v 0.128110 0.128061 0.003288
v -0.068005 0.107864 -0.067916
v -0.072964 0.096055 -0.062414
v -0.082797 0.083970 -0.050100
v -0.094309 0.079299 -0.039845
v -0.105695 0.079916 -0.029057
v -0.114761 0.086420 -0.018082
v -0.122442 0.100691 -0.001553
v -0.131416 0.128405 0.015225
v 0.068005 0.107864 -0.067916
v 0.072964 0.096055 -0.062414
v 0.082797 0.083970 -0.050100
v 0.094309 0.079299 -0.039845
v 0.105695 0.079916 -0.029057
v 0.114761 0.086420 -0.018082
v 0.122442 0.100691 -0.001553
v 0.131416 0.128405 0.015225
v -0.018586 0.147312 -0.073161
v -0.028822 0.176178 -0.063551
v -0.035855 0.195902 -0.049486
v -0.043195 0.201404 -0.043101
v -0.062891 0.205241 -0.027175
v -0.078963 0.204486 -0.010082
v -0.098189 0.200927 0.015527
v -0.112723 0.191128 0.039978
v 0.018586 0.147312 -0.073161
v 0.028822 0.176178 -0.063551
v 0.035855 0.195902 -0.049486
v 0.043195 0.201404 -0.043101
v 0.062891 0.205241 -0.027175
v 0.078963 0.204486 -0.010082
v 0.098189 0.200927 0.015527
v 0.112723 0.191128 0.039978
v -0.036120 0.182500 -0.058395
v -0.046841 0.189122 -0.048728
v -0.061892 0.192498 -0.035601
v -0.096047 0.185506 -0.005365
v -0.102888 0.184534 0.007707
v -0.112651 0.188022 0.040520
v 0.036120 0.182500 -0.058395
v 0.046841 0.189122 -0.048728
v 0.061892 0.192498 -0.035601
v 0.096047 0.185506 -0.005365
v 0.102888 0.184534 0.007707
v 0.112651 0.188022 0.040520
v -0.135458 0.132889 0.057987
v -0.150421 0.135360 0.061540
v -0.165896 0.125003 0.068845
v -0.178960 0.101799 0.078145
v -0.183713 0.077806 0.085998
v -0.180643 0.063765 0.089241
v -0.174000 0.053511 0.089955
v -0.134122 0.017125 0.084200
v 0.135458 0.132889 0.057987
v 0.150421 0.135360 0.061540
v 0.165896 0.125003 0.068845
v 0.178960 0.101799 0.078145
v 0.183713 0.077806 0.085998
v 0.180643 0.063765 0.089241
v 0.174000 0.053511 0.089955
v 0.134122 0.017125 0.084200
v -0.142668 0.148398 0.056918
v -0.146575 0.151250 0.062588
v -0.153919 0.150338 0.069864
v -0.170660 0.139605 0.085063
v -0.189464 0.107762 0.100652
v -0.194783 0.085814 0.104712
v -0.186192 0.059040 0.106603
v -0.171549 0.035959 0.103414
v -0.154235 0.020569 0.099032
v -0.123813 0.007108 0.091314
v 0.142668 0.148398 0.056918
v 0.146575 0.151250 0.062588
v 0.153919 0.150338 0.069864
v 0.170660 0.139605 0.085063
v 0.189464 0.107762 0.100652
v 0.194783 0.085814 0.104712
v 0.186192 0.059040 0.106603
v 0.171549 0.035959 0.103414
v 0.154235 0.020569 0.099032
v 0.123813 0.007108 0.091314
v -0.141115 0.145832 0.066448
v -0.143804 0.115929 0.098280
v -0.143837 0.101267 0.107385
v -0.142965 0.086287 0.112099
v -0.140903 0.068061 0.113216
v -0.137680 0.048100 0.109842
v -0.130558 0.013075 0.089755
v 0.141115 0.145832 0.066448
v 0.143804 0.115929 0.098280
v 0.143837 0.101267 0.107385
v 0.142965 0.086287 0.112099
v 0.140903 0.068061 0.113216
v 0.137680 0.048100 0.109842
v 0.130558 0.013075 0.089755
v -0.061690 0.247204 0.066072
v -0.074635 0.248017 0.094386
v -0.082829 0.242436 0.119462
v -0.089476 0.226021 0.151527
v -0.096997 0.202774 0.183361
v -0.103970 0.178318 0.206237
v -0.107722 0.158254 0.219026
v -0.109269 0.133276 0.227637
v -0.108309 0.098072 0.232578
v -0.102524 0.063307 0.231435
v -0.093599 0.030478 0.223338
v -0.082137 -0.007373 0.204889
v -0.067454 -0.050965 0.176053
v -0.058619 -0.072695 0.158043
v -0.050299 -0.088950 0.137119
v -0.045955 -0.098117 0.116929
v -0.044206 -0.107575 0.082403
v 0.061690 0.247204 0.066072
v 0.074635 0.248017 0.094386
v 0.082829 0.242436 0.119462
v 0.089476 0.226021 0.151527
v 0.096997 0.202774 0.183361
v 0.103970 0.178318 0.206237
v 0.107722 0.158254 0.219026
v 0.109269 0.133276 0.227637
v 0.108309 0.098072 0.232578
v 0.102524 0.063307 0.231435
v 0.093599 0.030478 0.223338
v 0.082137 -0.007373 0.204889
v 0.067454 -0.050965 0.176053
v 0.058619 -0.072695 0.158043
v 0.050299 -0.088950 0.137119
v 0.045955 -0.098117 0.116929
v 0.044206 -0.107575 0.082403
v -0.113940 0.193575 0.069026
v -0.130919 0.170548 0.116417
v -0.140114 0.148846 0.141899
v -0.144629 0.107614 0.159129
v -0.137423 0.061425 0.168185
v -0.129736 0.038580 0.167615
v -0.118188 0.012420 0.162376
v -0.100630 -0.022598 0.150910
v -0.086587 -0.048492 0.138421
v -0.078662 -0.062610 0.127941
v -0.070840 -0.077646 0.111694
v -0.062502 -0.100631 0.072331
v 0.113940 0.193575 0.069026
v 0.130919 0.170548 0.116417
v 0.140114 0.148846 0.141899
v 0.144629 0.107614 0.159129
v 0.137423 0.061425 0.168185
v 0.129736 0.038580 0.167615
v 0.118188 0.012420 0.162376
v 0.100630 -0.022598 0.150910
v 0.086587 -0.048492 0.138421
v 0.078662 -0.062610 0.127941
v 0.070840 -0.077646 0.111694
v 0.062502 -0.100631 0.072331
v 0.003553 -0.127183 0.034018
v 0.005057 -0.155459 0.027807
v 0.004672 -0.186268 0.012120
v 0.003027 -0.211890 -0.008948
v 0.000305 -0.232622 -0.035402
v -0.003553 -0.127183 0.034018
v -0.005057 -0.155459 0.027807
v -0.004672 -0.186268 0.012120
v -0.003027 -0.211890 -0.008948
v -0.000305 -0.232622 -0.035402
v 0.002818 -0.113294 0.133944
v 0.003209 -0.131273 0.122158
v 0.004933 -0.154596 0.112858
v 0.007097 -0.177923 0.108263
v 0.008799 -0.197210 0.109201
v 0.009700 -0.217619 0.116488
v 0.006295 -0.265598 0.143482
v 0.000000 -0.334344 0.170531
v -0.002818 -0.113294 0.133944
v -0.003209 -0.131273 0.122158
v -0.004933 -0.154596 0.112858
v -0.007097 -0.177923 0.108263
v -0.008799 -0.197210 0.109201
v -0.009700 -0.217619 0.116488
v -0.006295 -0.265598 0.143482
v -0.063870 -0.108687 0.064871
v -0.058091 -0.124726 0.055489
v -0.056059 -0.144059 0.046441
v -0.059110 -0.160737 0.040345
v -0.066790 -0.173802 0.037439
v -0.082021 -0.187842 0.037615
v -0.101179 -0.199681 0.040832
v -0.185297 -0.232934 0.055535
v -0.206502 -0.243419 0.055613
v -0.221705 -0.254246 0.053216
v -0.246727 -0.280477 0.045718
v -0.269312 -0.312593 0.035642
v -0.291070 -0.352881 0.019771
v -0.310440 -0.396953 -0.000563
v 0.063870 -0.108687 0.064871
v 0.058091 -0.124726 0.055489
v 0.056059 -0.144059 0.046441
v 0.059110 -0.160737 0.040345
v 0.066790 -0.173802 0.037439
v 0.082021 -0.187842 0.037615
v 0.101179 -0.199681 0.040832
v 0.185297 -0.232934 0.055535
v 0.206502 -0.243419 0.055613
v 0.221705 -0.254246 0.053216
v 0.246727 -0.280477 0.045718
v 0.269312 -0.312593 0.035642
v 0.291070 -0.352881 0.019771
v 0.310440 -0.396953 -0.000563
v -0.073302 -0.190280 0.038387
v -0.059045 -0.197801 0.072569
v -0.038972 -0.203631 0.100568
v -0.013919 -0.206260 0.121003
v 0.014274 -0.205378 0.132747
v 0.073302 -0.190280 0.038387
v 0.059045 -0.197801 0.072569
v 0.038972 -0.203631 0.100568
v 0.013919 -0.206260 0.121003
v -0.014274 -0.205378 0.132747
v -0.016288 -0.382461 -0.119514
v -0.046127 -0.380215 -0.112727
v -0.147716 -0.380481 -0.103079
v -0.205777 -0.384108 -0.084733
v -0.248251 -0.389398 -0.063966
v -0.279609 -0.391790 -0.042205
v -0.300731 -0.392433 -0.017071
v -0.308034 -0.393480 0.007985
v -0.305526 -0.392661 0.018134
v -0.296858 -0.390284 0.031701
v -0.246489 -0.387758 0.093518
v -0.218298 -0.387010 0.122831
v -0.192523 -0.386032 0.141348
v -0.169254 -0.385997 0.151267
v -0.140925 -0.386084 0.158492
v -0.070495 -0.383626 0.171480
v -0.000000 -0.377025 0.185470
v 0.016288 -0.382461 -0.119514
v 0.046127 -0.380215 -0.112727
v 0.147716 -0.380481 -0.103079
v 0.205777 -0.384108 -0.084733
v 0.248251 -0.389398 -0.063966
v 0.279609 -0.391790 -0.042205
v 0.300731 -0.392433 -0.017071
v 0.308034 -0.393480 0.007985
v 0.305526 -0.392661 0.018134
v 0.296858 -0.390284 0.031701
v 0.246489 -0.387758 0.093518
v 0.218298 -0.387010 0.122831
v 0.192523 -0.386032 0.141348
v 0.169254 -0.385997 0.151267
v 0.140925 -0.386084 0.158492
v 0.070495 -0.383626 0.171480
v -0.049983 -0.220823 0.100391
v -0.093520 -0.250742 0.108156
v -0.132073 -0.290845 0.114968
v -0.155420 -0.335400 0.122275
v -0.175113 -0.397670 0.134490
v 0.049983 -0.220823 0.100391
v 0.093520 -0.250742 0.108156
v 0.132073 -0.290845 0.114968
v 0.155420 -0.335400 0.122275
v 0.175113 -0.397670 0.134490
v -0.021679 -0.295486 -0.085944
v -0.049705 -0.290862 -0.084404
v -0.083459 -0.282112 -0.077297
v -0.104775 -0.274155 -0.068395
v -0.117026 -0.266133 -0.057005
v -0.121859 -0.259209 -0.045739
v -0.123109 -0.249997 -0.028999
v -0.115789 -0.206601 0.057215
v 0.021679 -0.295486 -0.085944
v 0.049705 -0.290862 -0.084404
v 0.083459 -0.282112 -0.077297
v 0.104775 -0.274155 -0.068395
v 0.117026 -0.266133 -0.057005
v 0.121859 -0.259209 -0.045739
v 0.123109 -0.249997 -0.028999
v 0.115789 -0.206601 0.057215
v -0.014147 -0.242454 -0.049761
v -0.047075 -0.234696 -0.043021
v -0.067472 -0.226603 -0.027711
v -0.077647 -0.217818 -0.005197
v -0.090095 -0.191420 0.049146
v 0.014147 -0.242454 -0.049761
v 0.047075 -0.234696 -0.043021
v 0.067472 -0.226603 -0.027711
v 0.077647 -0.217818 -0.005197
v 0.090095 -0.191420 0.049146
v -0.042563 -0.325863 -0.101350
v -0.129587 -0.328745 -0.084394
v -0.160441 -0.325445 -0.072144
v -0.182539 -0.317446 -0.059773
v -0.202470 -0.301020 -0.038230
v -0.220903 -0.267040 0.007892
v -0.225455 -0.258193 0.027121
v -0.228095 -0.256570 0.050168
v 0.042563 -0.325863 -0.101350
v 0.129587 -0.328745 -0.084394
v 0.160441 -0.325445 -0.072144
v 0.182539 -0.317446 -0.059773
v 0.202470 -0.301020 -0.038230
v 0.220903 -0.267040 0.007892
v 0.225455 -0.258193 0.027121
v 0.228095 -0.256570 0.050168
v -0.018991 -0.393084 -0.081587
v -0.049091 -0.388506 0.016836
v -0.100242 -0.385867 0.164959
v 0.018991 -0.393084 -0.081587
v 0.049091 -0.388506 0.016836
v 0.100242 -0.385867 0.164959
v -0.140722 -0.391036 -0.067807
v -0.175254 -0.390654 -0.001475
v -0.241283 -0.386603 0.110550
v 0.140722 -0.391036 -0.067807
v 0.175254 -0.390654 -0.001475
v 0.241283 -0.386603 0.110550
v -0.155063 0.019804 0.095675
v -0.161889 0.059752 0.113091
v -0.167450 0.088716 0.117887
v -0.171598 0.113367 0.109773
v -0.175244 0.136922 0.086665
v 0.155063 0.019804 0.095675
v 0.161889 0.059752 0.113091
v 0.167450 0.088716 0.117887
v 0.171598 0.113367 0.109773
v 0.175244 0.136922 0.086665
v -0.154777 0.109011 0.067742
v -0.164526 0.105737 0.073516
v -0.159255 0.087542 0.076006
v -0.166203 0.078197 0.083200
v -0.168201 0.071367 0.085229
v -0.165618 0.063044 0.084886
v -0.152695 0.050408 0.080800
v 0.154777 0.109011 0.067742
v 0.164526 0.105737 0.073516
v 0.159255 0.087542 0.076006
v 0.166203 0.078197 0.083200
v 0.168201 0.071367 0.085229
v 0.165618 0.063044 0.084886
v 0.152695 0.050408 0.080800
v -0.071099 -0.075858 -0.001175
v -0.073979 -0.075298 0.044783
v -0.076565 -0.080398 0.079893
v 0.071099 -0.075858 -0.001175
v 0.073979 -0.075298 0.044783
v 0.076565 -0.080398 0.079893
v -0.001826 -0.036373 -0.064450
v -0.000989 -0.030316 -0.071483
v 0.000224 -0.022649 -0.065417
v 0.001826 -0.036373 -0.064450
v 0.000989 -0.030316 -0.071483
v -0.000224 -0.022649 -0.065417
v -0.017018 -0.010080 -0.061446
v -0.017506 -0.016779 -0.065803
v -0.014178 -0.023534 -0.059461
v 0.017018 -0.010080 -0.061446
v 0.017506 -0.016779 -0.065803
v 0.014178 -0.023534 -0.059461
v -0.019774 -0.070660 -0.039446
v -0.019137 -0.082613 -0.040981
v 0.019774 -0.070660 -0.039446
v 0.019137 -0.082613 -0.040981
v -0.026967 -0.071625 -0.036504
v -0.027862 -0.080550 -0.036228
v 0.026967 -0.071625 -0.036504
v 0.027862 -0.080550 -0.036228
v -0.038972 -0.069851 -0.032130
v -0.040060 -0.079974 -0.032845
v 0.038972 -0.069851 -0.032130
v 0.040060 -0.079974 -0.032845
v -0.048472 -0.068595 -0.028695
v -0.051474 -0.078481 -0.028399
v 0.048472 -0.068595 -0.028695
v 0.051474 -0.078481 -0.028399
v -0.061341 -0.063884 -0.024272
v -0.064486 -0.074513 -0.023205
v 0.061341 -0.063884 -0.024272
v 0.064486 -0.074513 -0.023205
v -0.035704 0.250404 0.008067
v -0.044069 0.239731 -0.011274
v -0.053269 0.221322 -0.028452
v 0.035704 0.250404 0.008067
v 0.044069 0.239731 -0.011274
v 0.053269 0.221322 -0.028452
v -0.039126 0.251468 0.010254
v -0.071898 0.227811 -0.007363
v 0.039126 0.251468 0.010254
v 0.071898 0.227811 -0.007363
v -0.057295 0.252033 0.030096
v -0.070145 0.238275 0.017794
v -0.081858 0.216518 0.009164
v 0.057295 0.252033 0.030096
v 0.070145 0.238275 0.017794
v 0.081858 0.216518 0.009164
v -0.022141 0.251245 -0.006335
v -0.023132 0.233929 -0.030207
v -0.026804 0.216889 -0.046220
v 0.022141 0.251245 -0.006335
v 0.023132 0.233929 -0.030207
v 0.026804 0.216889 -0.046220
v -0.072686 0.248299 0.042269
v -0.087988 0.227991 0.039127
v -0.100079 0.204322 0.040396
v 0.072686 0.248299 0.042269
v 0.087988 0.227991 0.039127
v 0.100079 0.204322 0.040396
v 0.000394 0.061835 -0.147269
v -0.008446 0.058012 -0.145762
v -0.011162 0.050818 -0.145079
v -0.007539 0.042311 -0.143598
v 0.002129 0.040231 -0.144480
v -0.000394 0.061835 -0.147269
v 0.008446 0.058012 -0.145762
v 0.011162 0.050818 -0.145079
v 0.007539 0.042311 -0.143598
v -0.002129 0.040231 -0.144480
l 1 2 3 4 5 6 7 8 9
l 10 11 12 13 14 15 16 17 18
l 19 20 21 22 23 24 25 26
l 19 27 28 29 30 31 32 33
l 34 35 36 37 38 39 40 41 42 43 44 45 46 47 48 49 50
l 51 52 53 54 55 56 57 58 59 60 61 62 63 64 65 66 67
l 68 69 70 71 72 73 74 75 76
l 77 78 79 80 81 82 83 84 85
l 86 87 88 89 90
l 91 92 93 94 95
l 96 97 98 99 100
l 101 102 103 104 105
l 106 107 108 109 110 111 112 113
l 114 115 116 117 118 119 120 121
l 122 123 124 125 126
l 127 128 129 130 131
l 132 133 134 135 136 137 138 139
l 140 141 142 143 144 145 146 147
l 148 149 150
l 151 152 153
l 154 155 156 157
l 158 159 160 161
l 162 163 164 165 166
l 167 168 169 170 171
l 172 173 174 175
l 176 177 178 179
l 180 181 182 183
l 184 185 186 187
l 188 189 190 191
l 192 193 194 195
l 196 197 198 199 200 201
l 202 203 204 205 206 207
l 208 209 210 211 212
l 213 214 215 216 217
l 218 219 220 221 222 223 224
l 225 226 227 228 229 230 231
l 232 233 234 235 236 237 238
l 239 240 241 242 243 244 245
l 246 247 248 249 250 251 252 253 254 255 256 257 258 259 260 261
l 262 263 264 265 266 267 268 269 270 271 272 273 274 275 276 277
l 278 279 280 281 282 283 284 285 286
l 287 288 289 290 291 292 293 294 295
l 296 297 298 299 300 301 302 303
l 304 305 306 307 308 309 310 311
l 312 313 314 315 316 317 318 319
l 320 321 322 323 324 325 326 327
l 328 329 330 331 332 333 334 335
l 336 337 338 339 340 341 342 343
l 344 345 346 347 348 349
l 350 351 352 353 354 355
l 356 357 358 359 360 361 362 363
l 364 365 366 367 368 369 370 371
l 372 373 374 375 376 377 378 379 380 381
l 382 383 384 385 386 387 388 389 390 391
l 392 393 394 395 396 397 398
l 399 400 401 402 403 404 405
l 406 407 408 409 410 411 412 413 414 415 416 417 418 419 420 421 422
l 423 424 425 426 427 428 429 430 431 432 433 434 435 436 437 438 439
l 440 441 442 443 444 445 446 447 448 449 450 451
l 452 453 454 455 456 457 458 459 460 461 462 463
l 464 465 466 467 468
l 469 470 471 472 473
l 474 475 476 477 478 479 480 481
l 482 483 484 485 486 487 488 481
l 489 490 491 492 493 494 495 496 497 498 499 500 501 502
l 503 504 505 506 507 508 509 510 511 512 513 514 515 516
l 517 518 519 520 521
l 522 523 524 525 526
l 527 528 529 530 531 532 533 534 535 536 537 538 539 540 541 542 543
l 544 545 546 547 548 549 550 551 552 553 554 555 556 557 558 559 543
l 560 561 562 563 564
l 565 566 567 568 569
l 570 571 572 573 574 575 576 577
l 578 579 580 581 582 583 584 585
l 586 587 588 589 590
l 591 592 593 594 595
l 596 597 598 599 600 601 602 603
l 604 605 606 607 608 609 610 611
l 612 613 614
l 615 616 617
l 618 619 620
l 621 622 623
l 624 625 626 627 628
l 629 630 631 632 633
l 634 635 636 637 638 639 640
l 641 642 643 644 645 646 647
l 648 649 650
l 651 652 653
l 654 655 656
l 657 658 659
l 660 661 662
l 663 664 665
l 666 667
l 668 669
l 670 671
l 672 673
l 674 675
l 676 677
l 678 679
l 680 681
l 682 683
l 684 685
l 686 687 688
l 689 690 691
l 692 693
l 694 695
l 696 697 698
l 699 700 701
l 702 703 704
l 705 706 707
l 708 709 710
l 711 712 713
l 714 715 716 717 718
l 719 720 721 722 723
