v 0.258972 0.012356 -0.127346
v 0.190660 0.014497 -0.153393
v 0.096702 0.014735 -0.176777
v 0.037037 0.013449 -0.185364
v -0.032460 0.011017 -0.185499
v -0.098857 0.010900 -0.177145
v -0.171199 0.014126 -0.155874
v -0.214501 0.015184 -0.133436
v -0.255130 0.013655 -0.098879
v -0.250707 0.031049 0.062637
v -0.274911 0.043427 0.034947
v -0.288003 0.048861 0.010436
v -0.295936 0.052447 -0.031498
v -0.293276 0.053062 -0.065764
v -0.280766 0.051970 -0.094085
v -0.259795 0.051283 -0.117567
v -0.224206 0.051771 -0.136042
v -0.189960 0.054361 -0.141662
v -0.156173 0.055599 -0.135505
v -0.122058 0.054872 -0.120369
v -0.096478 0.052939 -0.098129
v -0.074541 0.048820 -0.066396
v -0.059790 0.041949 -0.031796
v -0.055711 0.037084 -0.002137
v -0.061062 0.036141 0.022637
v -0.082206 0.037788 0.061168
v -0.082722 0.039422 0.060703
v -0.093824 0.039617 0.091819
v -0.098418 0.039208 0.121380
v -0.088038 0.038708 0.195795
v -0.088139 0.040614 0.219024
v -0.096592 0.044600 0.234901
v -0.109917 0.049284 0.246947
v -0.126223 0.053576 0.253495
v -0.143426 0.056029 0.254904
v -0.167479 0.057336 0.252009
v -0.186839 0.057556 0.245899
v -0.201559 0.057585 0.236639
v -0.213568 0.056223 0.222008
v -0.221404 0.051180 0.194692
v -0.222165 0.039697 0.133914
v -0.225552 0.035371 0.104633
v -0.234675 0.034418 0.083875
v -0.255339 0.036197 0.056117
v -0.257137 0.047045 -0.013227
v -0.249458 0.048977 -0.049596
v -0.236582 0.049340 -0.072624
v -0.209420 0.050595 -0.092134
v -0.176142 0.051169 -0.099281
v -0.144906 0.048734 -0.092404
v -0.124377 0.046350 -0.075644
v -0.105985 0.042983 -0.041856
v -0.103293 0.041810 -0.010446
v -0.112707 0.042697 0.011273
v -0.134872 0.043028 0.032921
v -0.167494 0.042315 0.045718
v -0.201514 0.040766 0.048491
v -0.224023 0.040215 0.043304
v -0.241830 0.042576 0.028759
v -0.253343 0.046627 0.007634
v -0.256405 0.049566 -0.016023
v -0.160341 0.050207 -0.139392
v -0.133721 0.024625 -0.156987
v -0.113570 0.012203 -0.177483
v 0.098338 0.056885 0.056255
v 0.078160 0.058200 0.019498
v 0.072233 0.057264 -0.007543
v 0.078015 0.051866 -0.045785
v 0.094872 0.048383 -0.077164
v 0.125640 0.046976 -0.109509
v 0.160353 0.047236 -0.129093
v 0.199113 0.047611 -0.134868
v 0.236555 0.050017 -0.126680
v 0.265496 0.052564 -0.109847
v 0.288244 0.054551 -0.085281
v 0.301260 0.054874 -0.056826
v 0.304277 0.052291 -0.021190
v 0.298083 0.048552 0.004359
v 0.285675 0.043748 0.028437
v 0.244030 0.036215 0.068251
v 0.214928 0.035834 0.103478
v 0.095954 0.056381 0.050879
v 0.098746 0.056335 0.065070
v 0.095932 0.058307 0.085306
v 0.087450 0.059693 0.108980
v 0.069642 0.056787 0.150426
v 0.065499 0.054354 0.180568
v 0.071310 0.053705 0.198234
v 0.081886 0.053102 0.213166
v 0.101526 0.052218 0.229253
v 0.120007 0.051274 0.238207
v 0.137223 0.050529 0.241835
v 0.154905 0.050312 0.239638
v 0.171649 0.048907 0.230591
v 0.185685 0.045579 0.215737
v 0.194103 0.041593 0.198080
v 0.200662 0.037183 0.172504
v 0.208758 0.034123 0.126490
v 0.219884 0.035415 0.093404
v -0.076079 0.040672 0.055844
v -0.029100 0.040675 0.071248
v 0.005373 0.040962 0.074427
v 0.048204 0.045198 0.068901
v 0.085880 0.052021 0.053031
v -0.067189 -0.020636 0.083424
v -0.027736 -0.024471 0.094737
v 0.007076 -0.026032 0.097752
v 0.045840 -0.025219 0.092873
v 0.077647 -0.021369 0.080221
v -0.062963 -0.016799 0.087832
v -0.070037 0.013202 0.078076
v -0.077458 0.044879 0.057816
v 0.078285 -0.018621 0.080851
v 0.085339 0.017441 0.069445
v 0.093257 0.059197 0.049988
v -0.056972 0.041936 -0.023606
v -0.013200 0.032684 -0.028729
v 0.016953 0.031261 -0.030952
v 0.049921 0.037088 -0.029321
v 0.076614 0.050402 -0.025708
v -0.086358 0.055996 -0.093280
v -0.033639 0.039372 -0.101153
v -0.000247 0.034835 -0.101918
v 0.060267 0.039566 -0.096682
v 0.108654 0.051074 -0.087067
v -0.020865 0.015059 -0.165503
v 0.043458 0.018934 -0.165684
v -0.020317 0.014920 -0.158050
v 0.042684 0.021520 -0.156218
v -0.007233 0.021226 -0.154631
v -0.008460 0.023739 -0.136792
v -0.012610 0.028213 -0.125375
v -0.019840 0.031239 -0.122949
v -0.030813 0.030202 -0.129399
v 0.021608 0.022032 -0.152971
v 0.017340 0.028005 -0.123471
v 0.019216 0.029706 -0.117845
v 0.024681 0.031212 -0.115028
v 0.056157 0.034019 -0.119480
v 0.090375 0.035292 -0.140156
v 0.149370 0.048707 -0.128508
v 0.143050 0.037309 -0.138504
v 0.123213 0.017662 -0.173505
v 0.257575 -0.109846 -0.071769
v 0.212992 -0.119946 -0.065373
v 0.160199 -0.126060 -0.061520
v 0.056381 -0.133180 -0.060530
v -0.030851 -0.135379 -0.061095
v -0.094232 -0.133175 -0.061797
v -0.151050 -0.126915 -0.062574
v -0.202197 -0.117060 -0.063487
v -0.241991 -0.104295 -0.065490
v 0.013107 0.009359 -0.182022
v 0.011671 -0.008217 -0.188056
v 0.012207 -0.027457 -0.190420
v 0.013591 -0.043283 -0.188307
v 0.014447 -0.055745 -0.181729
v 0.014657 -0.070769 -0.162436
v 0.010064 -0.103717 -0.094265
v 0.006556 -0.137663 -0.063714
v -0.088242 0.009344 -0.179899
v -0.091293 -0.007416 -0.172568
v -0.092106 -0.029754 -0.154906
v -0.096433 -0.086141 -0.092564
v -0.109830 -0.129274 -0.056492
v 0.102701 0.012184 -0.177790
v 0.110680 -0.013413 -0.168815
v 0.119236 -0.044218 -0.148520
v 0.154738 -0.127731 -0.062313
v 0.120676 -0.049711 -0.149703
v 0.102479 -0.050283 -0.154953
v 0.040154 -0.064030 -0.174258
v 0.003618 -0.065217 -0.178225
v -0.032556 -0.060416 -0.168658
v -0.101799 -0.052806 -0.130438
v -0.243662 -0.102212 -0.065815
v -0.270013 -0.068159 -0.057366
v -0.282546 -0.033452 -0.058115
v -0.285641 0.012001 -0.069531
v -0.278205 0.048819 -0.090714
v 0.263413 -0.109436 -0.068201
v 0.286530 -0.070542 -0.053325
v 0.299434 -0.034268 -0.047344
v 0.304796 0.002640 -0.048370
v 0.301467 0.055691 -0.054746
v 0.278782 -0.023324 -0.072189
v 0.265742 -0.020368 -0.088638
v 0.242888 -0.018360 -0.105713
v 0.173089 -0.022343 -0.138753
v 0.261691 -0.075354 -0.070022
v 0.250014 -0.074953 -0.079681
v 0.227615 -0.075566 -0.089287
v 0.181073 -0.082225 -0.098555
v 0.171692 -0.022396 -0.133680
v 0.174938 -0.031737 -0.132515
v 0.177684 -0.045120 -0.125674
v 0.178229 -0.078075 -0.099375
v 0.275459 -0.022993 -0.078644
v 0.264599 -0.057494 -0.074731
v 0.255657 -0.076518 -0.070038
v 0.263760 -0.041722 -0.122687
v 0.192849 -0.038564 -0.155604
v 0.248721 -0.075923 -0.112596
v 0.199926 -0.073665 -0.138170
v 0.195613 -0.040053 -0.153073
v 0.199836 -0.076580 -0.137353
v 0.259029 -0.044619 -0.124205
v 0.249765 -0.075273 -0.115088
v 0.194521 -0.041404 -0.151420
v 0.174068 -0.023795 -0.136691
v 0.197599 -0.073950 -0.138981
v 0.180312 -0.077996 -0.097651
v 0.250151 -0.074650 -0.114317
v 0.258848 -0.074419 -0.070880
v 0.261760 -0.039822 -0.125310
v 0.273815 -0.024221 -0.074717
v -0.132841 -0.035208 -0.127952
v -0.197395 -0.035183 -0.109266
v -0.249099 -0.032799 -0.087669
v -0.135166 -0.088465 -0.095103
v -0.171341 -0.087107 -0.086367
v -0.230805 -0.078093 -0.071807
v -0.237389 -0.038977 -0.090645
v -0.226447 -0.079892 -0.074310
v -0.128146 -0.033703 -0.123837
v -0.136881 -0.087917 -0.093345
v -0.174376 -0.046331 -0.147938
v -0.229102 -0.042515 -0.121524
v -0.171161 -0.073874 -0.125554
v -0.227205 -0.071094 -0.103424
v -0.224518 -0.044575 -0.118403
v -0.225640 -0.072331 -0.103729
v -0.175474 -0.047451 -0.144852
v -0.170771 -0.075210 -0.127533
v -0.169288 -0.074951 -0.125882
v -0.134356 -0.089112 -0.088582
v -0.130524 -0.037685 -0.124557
v -0.158698 -0.042955 -0.143904
v -0.174488 -0.047028 -0.149668
v -0.225741 -0.044016 -0.121470
v -0.240432 -0.036701 -0.083769
v -0.222219 -0.070613 -0.106664
v -0.232091 -0.079774 -0.077254
v -0.211224 0.034395 0.094609
v -0.118915 0.040897 0.092323
v -0.204344 0.050255 0.199546
v -0.112316 0.038234 0.190973
v -0.202902 0.052644 0.201743
v -0.208780 0.038405 0.093562
v -0.113086 0.039309 0.191180
v -0.121595 0.045827 0.086901
v 0.109036 0.053494 0.078896
v 0.207408 0.037546 0.099713
v 0.082466 0.056907 0.188141
v 0.170281 0.040307 0.210221
v 0.086992 0.056890 0.185833
v 0.106405 0.050341 0.079982
v 0.167800 0.043467 0.209756
v 0.200296 0.039876 0.098798
v -0.246958 0.034584 0.069675
v -0.258313 0.013313 0.071381
v -0.276492 -0.007817 0.083637
v -0.336889 -0.066248 0.143242
v -0.365535 -0.107835 0.181789
v -0.373715 -0.130436 0.198335
v -0.376446 -0.150719 0.207892
v -0.375516 -0.172362 0.211173
v -0.371646 -0.185482 0.207234
v -0.364218 -0.194031 0.197469
v -0.350979 -0.199340 0.179770
v -0.332117 -0.200895 0.153979
v -0.314547 -0.196956 0.128074
v -0.292067 -0.181579 0.089160
v -0.232640 -0.124699 -0.014535
v -0.215124 -0.114707 -0.040617
v -0.202202 -0.111737 -0.058518
v -0.376319 -0.177059 0.207144
v -0.390282 -0.168678 0.188261
v -0.398300 -0.161535 0.169159
v -0.399582 -0.157090 0.151181
v -0.394898 -0.152700 0.131203
v -0.371799 -0.142705 0.092555
v -0.310441 -0.122458 0.025247
v -0.292209 -0.114235 0.000845
v -0.275650 -0.098086 -0.036118
v -0.269303 -0.075972 -0.067611
v -0.353264 -0.077695 0.161195
v -0.368911 -0.088451 0.141577
v -0.377837 -0.100949 0.127249
v -0.381945 -0.117258 0.116346
v -0.380400 -0.138763 0.109018
v -0.374209 -0.155873 0.106724
v -0.363637 -0.168470 0.108148
v -0.339313 -0.183929 0.116908
v -0.316623 -0.191038 0.126034
v -0.289790 -0.187496 0.143210
v -0.268443 -0.172785 0.164698
v -0.263081 -0.162672 0.173960
v -0.261181 -0.150725 0.182365
v -0.265707 -0.125892 0.193163
v -0.279364 -0.104302 0.195783
v -0.301421 -0.087102 0.189918
v -0.332542 -0.077091 0.176178
v -0.360945 -0.077867 0.164332
v -0.291446 -0.015586 0.098332
v -0.302161 -0.022499 0.082073
v -0.314531 -0.046515 0.059231
v -0.320463 -0.070301 0.044177
v -0.321346 -0.095066 0.034678
v -0.319215 -0.113188 0.031078
v -0.312431 -0.130017 0.033130
v -0.295048 -0.152857 0.042582
v -0.281411 -0.160694 0.051141
v -0.254283 -0.159098 0.072289
v -0.223033 -0.144079 0.098947
v -0.211059 -0.127422 0.111249
v -0.208629 -0.101850 0.119714
v -0.219931 -0.065556 0.123790
v -0.230410 -0.048250 0.122663
v -0.243145 -0.033564 0.119433
v -0.258003 -0.021662 0.114508
v -0.275150 -0.013538 0.107520
v -0.303574 -0.014804 0.096260
v -0.234955 -0.040411 0.122998
v -0.229079 -0.037470 0.131696
v -0.223805 -0.034012 0.149099
v -0.220424 -0.020885 0.219002
v -0.210149 -0.017625 0.244667
v -0.197081 -0.016224 0.258330
v -0.179032 -0.015857 0.267773
v -0.153397 -0.016387 0.272656
v -0.132346 -0.016428 0.270712
v -0.118982 -0.016141 0.265599
v -0.109073 -0.015705 0.257615
v -0.096585 -0.014751 0.232951
v -0.095296 -0.014629 0.199532
v -0.100461 -0.009970 0.132717
v -0.096973 -0.009816 0.111599
v -0.083952 -0.012558 0.093890
v -0.058785 -0.020796 0.083356
v -0.224260 0.036057 0.112766
v -0.228299 0.006350 0.113761
v -0.247833 -0.025290 0.116258
v -0.215805 0.053265 0.215606
v -0.214993 0.022542 0.214603
v -0.218162 -0.017019 0.217064
v -0.150917 0.058886 0.255893
v -0.149814 0.017542 0.260869
v -0.153096 -0.013666 0.272334
v -0.084967 0.042627 0.220929
v -0.095989 -0.014043 0.219330
v -0.095229 0.041747 0.109299
v -0.095092 -0.006150 0.114070
v 0.219340 0.034344 0.093308
v 0.232091 0.022347 0.101428
v 0.256110 0.002831 0.122263
v 0.343052 -0.052261 0.204957
v 0.373495 -0.075295 0.228558
v 0.385618 -0.092990 0.236108
v 0.392231 -0.115399 0.238041
v 0.393445 -0.137077 0.233972
v 0.390806 -0.157943 0.221935
v 0.386759 -0.166331 0.212896
v 0.379869 -0.171722 0.202775
v 0.353216 -0.175637 0.174593
v 0.315107 -0.169548 0.138024
v 0.271723 -0.153642 0.091794
v 0.240753 -0.138559 0.047300
v 0.217714 -0.128653 0.005215
v 0.202780 -0.123213 -0.033481
v 0.197579 -0.120061 -0.066463
v 0.395330 -0.126305 0.233738
v 0.403569 -0.123287 0.216715
v 0.410067 -0.120360 0.192764
v 0.411032 -0.117475 0.174646
v 0.408305 -0.112969 0.159531
v 0.397822 -0.102659 0.141602
v 0.359300 -0.077432 0.103514
v 0.326441 -0.056993 0.055274
v 0.311391 -0.042320 0.013798
v 0.303989 -0.015813 -0.040560
v 0.350465 -0.054402 0.205361
v 0.369617 -0.064213 0.173069
v 0.382325 -0.078306 0.151363
v 0.387468 -0.099215 0.137445
v 0.385276 -0.126964 0.130192
v 0.375918 -0.149254 0.131837
v 0.360341 -0.165154 0.141858
v 0.338221 -0.174067 0.163189
v 0.313555 -0.174655 0.190859
v 0.296349 -0.166802 0.211256
v 0.284279 -0.152599 0.226365
v 0.278821 -0.130842 0.237409
v 0.281643 -0.107633 0.241470
v 0.290754 -0.087824 0.237826
v 0.304752 -0.071322 0.228255
v 0.319940 -0.061648 0.216486
v 0.347167 -0.052708 0.194457
v 0.247201 -0.008669 0.130913
v 0.270367 -0.000910 0.115789
v 0.288432 -0.001001 0.101748
v 0.303653 -0.008317 0.087243
v 0.315442 -0.024296 0.072451
v 0.321987 -0.048955 0.060644
v 0.321739 -0.077889 0.053953
v 0.315081 -0.098274 0.052487
v 0.300828 -0.119981 0.056459
v 0.288547 -0.131515 0.062698
v 0.273554 -0.139893 0.071905
v 0.244164 -0.144774 0.092865
v 0.220436 -0.136063 0.113933
v 0.210613 -0.126163 0.124393
v 0.203184 -0.112685 0.133464
v 0.198213 -0.094731 0.141280
v 0.196813 -0.074915 0.147050
v 0.204899 -0.043477 0.149936
v 0.215181 -0.026265 0.147254
v 0.227161 -0.013517 0.142329
v 0.254648 0.000907 0.126799
v 0.207349 0.027704 0.135820
v 0.218632 0.002265 0.138604
v 0.234443 -0.011520 0.143116
v 0.087983 0.058515 0.107062
v 0.074432 -0.011952 0.123236
v 0.067220 0.053995 0.182374
v 0.071825 0.026579 0.185862
v 0.071801 -0.006683 0.189062
v 0.077294 -0.017207 0.076939
v 0.082055 -0.015817 0.094143
v 0.082677 -0.012347 0.110445
v 0.067366 0.001871 0.154656
v 0.063762 0.005023 0.173917
v 0.072815 0.003451 0.203582
v 0.087880 -0.000794 0.221113
v 0.120728 -0.011070 0.231014
v 0.135981 -0.015725 0.230846
v 0.146046 -0.018470 0.227351
v 0.163715 -0.024736 0.210974
v 0.203403 -0.041545 0.152095
v 0.123880 0.051307 0.235532
v 0.123392 0.030114 0.231675
v 0.118218 -0.005476 0.231663
v 0.186381 0.037006 0.187696
v 0.180065 0.001200 0.190296
v 0.179303 -0.026091 0.192878
v -0.007622 0.029576 0.008376
v 0.010765 0.033389 0.002116
v 0.024977 0.033936 0.006484
v 0.032296 0.031769 0.020546
v 0.026862 0.028962 0.036472
v 0.010842 0.026638 0.043375
v 0.002627 0.025873 0.041114
v -0.005511 0.025977 0.034438
v -0.009826 0.028906 0.017501
v -0.001068 0.035564 0.001568
v -0.006033 0.050626 0.011318
v 0.006398 0.055497 0.005996
v 0.024004 0.055931 0.010395
v 0.031653 0.053914 0.021374
v 0.028363 0.050340 0.034235
v 0.021990 0.048421 0.039313
v 0.013028 0.046799 0.040835
v -0.006461 0.047777 0.032888
v -0.009583 0.052949 0.019820
v -0.000685 0.058572 0.005005
v -0.041998 0.036533 -0.076925
v -0.003038 0.035396 -0.077464
v -0.002615 0.035246 -0.077794
v -0.001755 0.040956 -0.050715
v -0.039729 0.033861 -0.075629
v -0.037088 0.039683 -0.050832
v -0.037429 0.038740 -0.050368
v 0.003345 0.039438 -0.050923
v 0.058869 0.038807 -0.075105
v 0.055953 0.042649 -0.050321
v 0.023578 0.040915 -0.050703
v 0.055650 0.043720 -0.050508
v 0.023030 0.036793 -0.076089
v 0.021847 0.040070 -0.046579
v 0.025771 0.038298 -0.074631
v 0.064191 0.041882 -0.075017
v -0.372424 -0.185789 0.212286
v -0.353937 -0.174671 0.217428
v -0.331083 -0.164564 0.218332
v -0.311864 -0.154593 0.214812
v -0.293296 -0.143103 0.205745
v -0.265764 -0.125273 0.183731
v -0.234880 -0.107499 0.151660
v -0.195995 -0.091004 0.109535
v -0.165219 -0.083921 0.085092
v -0.119605 -0.080228 0.061230
v -0.073782 -0.079465 0.044459
v -0.024374 -0.079799 0.033455
v 0.032427 -0.080386 0.029606
v 0.093813 -0.080076 0.036750
v 0.117049 -0.080153 0.045668
v 0.134401 -0.080831 0.057467
v 0.173174 -0.087347 0.104425
v 0.195491 -0.096272 0.151636
v 0.214079 -0.103453 0.181610
v 0.237181 -0.108742 0.209412
v 0.255438 -0.112348 0.224068
v 0.282831 -0.116518 0.235416
v 0.327194 -0.118732 0.243323
v 0.359532 -0.119914 0.242430
v 0.389159 -0.120733 0.236291
v -0.153593 -0.020055 0.273363
v -0.156624 -0.030228 0.260953
v -0.157482 -0.039992 0.239347
v -0.151299 -0.060308 0.139038
v -0.152462 -0.070651 0.108144
v -0.155897 -0.083150 0.082486
v -0.065723 -0.021643 0.080728
v -0.089905 -0.057617 0.054013
v -0.100236 -0.081041 0.041573
v 0.075382 -0.021015 0.080152
v 0.097944 -0.046302 0.064917
v 0.128199 -0.084285 0.048198
v 0.110092 -0.011809 0.219874
v 0.113379 -0.031985 0.178440
v 0.128306 -0.052875 0.109162
v 0.133241 -0.066100 0.086388
v 0.138829 -0.085789 0.061401
v -0.221867 0.082689 -0.022024
v -0.213858 0.083104 -0.037899
v -0.202247 0.082727 -0.048830
v -0.187853 0.082288 -0.054004
v -0.172437 0.083237 -0.054355
v -0.159546 0.084636 -0.048834
v -0.150517 0.085863 -0.038040
v -0.146767 0.085356 -0.025560
v -0.149764 0.083912 -0.011827
v -0.157778 0.083317 -0.002298
v -0.171795 0.082944 0.004084
v -0.186859 0.082323 0.006220
v -0.201593 0.081631 0.003192
v -0.210608 0.081624 -0.003603
v -0.215670 0.082556 -0.013625
v -0.213226 0.086845 -0.037410
v -0.254927 0.049330 -0.016980
v -0.234802 0.065330 -0.017969
v -0.218357 0.085035 -0.023271
v -0.178558 0.082565 0.007060
v -0.176965 0.049598 0.045785
v -0.143738 0.083310 -0.029519
v -0.124792 0.066149 -0.026065
v -0.100374 0.054876 -0.027007
v -0.185838 0.085373 -0.054517
v -0.184051 0.065431 -0.073997
v -0.184496 0.055855 -0.097320
v -0.250389 0.134888 -0.031776
v -0.236077 0.133014 -0.060133
v -0.220062 0.133157 -0.075518
v -0.197745 0.135648 -0.083248
v -0.168463 0.139074 -0.082795
v -0.148950 0.141393 -0.074602
v -0.130891 0.141994 -0.054469
v -0.124368 0.140203 -0.031782
v -0.128380 0.138908 -0.013069
v -0.142288 0.137756 0.007410
v -0.163295 0.136656 0.021329
v -0.187465 0.135907 0.026990
v -0.212721 0.134713 0.024110
v -0.233085 0.133674 0.013918
v -0.245395 0.133714 -0.001102
v -0.249712 0.134967 -0.024569
v -0.243595 0.137003 -0.046331
v -0.248092 0.132792 -0.026555
v -0.253932 0.124944 -0.025963
v -0.253316 0.115698 -0.026368
v -0.227544 0.100232 -0.025480
v -0.217777 0.083978 -0.023060
v -0.248809 0.133371 -0.028673
v -0.225328 0.149393 -0.025979
v -0.201605 0.155313 -0.024776
v -0.165591 0.153057 -0.024494
v -0.133060 0.142609 -0.025325
v -0.127956 0.138184 -0.031119
v -0.119655 0.129405 -0.031108
v -0.119097 0.117203 -0.030769
v -0.142145 0.094980 -0.027421
v -0.147287 0.084397 -0.026819
v -0.192347 0.135587 -0.084701
v -0.195764 0.128083 -0.087810
v -0.196740 0.118532 -0.085444
v -0.188536 0.092962 -0.060741
v -0.186584 0.082108 -0.055884
v -0.179075 0.138606 0.024212
v -0.184267 0.151233 -0.006252
v -0.188310 0.154897 -0.028326
v -0.194524 0.148388 -0.057143
v -0.198815 0.135053 -0.084162
v -0.184233 0.135713 0.027610
v -0.184452 0.126064 0.031618
v -0.184725 0.116887 0.031109
v -0.184758 0.097004 0.012647
v -0.181363 0.081871 0.006580
v 0.103953 0.045957 0.001775
v 0.105697 0.046458 -0.011047
v 0.114241 0.046150 -0.022795
v 0.126413 0.046491 -0.029223
v 0.140556 0.046599 -0.030515
v 0.155885 0.046054 -0.027247
v 0.168247 0.045300 -0.019832
v 0.176688 0.044440 -0.008389
v 0.180953 0.043565 0.005357
v 0.178330 0.042890 0.023556
v 0.168285 0.042957 0.037965
v 0.152448 0.044030 0.046982
v 0.134571 0.046908 0.047868
v 0.117656 0.049944 0.040545
v 0.105108 0.051679 0.026723
v 0.099984 0.051480 0.013015
v 0.102541 0.049033 -0.007404
v 0.201458 0.043151 -0.033455
v 0.207801 0.046864 -0.052301
v 0.218139 0.050188 -0.066968
v 0.230033 0.052072 -0.073151
v 0.246494 0.053878 -0.073543
v 0.262392 0.055568 -0.066790
v 0.272300 0.055910 -0.055690
v 0.279546 0.054324 -0.036739
v 0.279483 0.052288 -0.017460
v 0.272631 0.050188 -0.002729
v 0.259745 0.047470 0.007269
v 0.243228 0.045294 0.010963
v 0.228366 0.044259 0.007901
v 0.214823 0.043817 -0.000374
v 0.204562 0.044425 -0.014020
v 0.200696 0.045964 -0.027899
v 0.203620 0.049219 -0.047792
v 0.103548 0.080565 0.013955
v 0.104944 0.080183 -0.002478
v 0.112130 0.079786 -0.019293
v 0.123024 0.079510 -0.028235
v 0.139390 0.079346 -0.032478
v 0.156473 0.078616 -0.030423
v 0.171550 0.076337 -0.021511
v 0.179926 0.074282 -0.009046
v 0.182418 0.072928 0.008675
v 0.178386 0.072224 0.023210
v 0.168155 0.071863 0.035793
v 0.150587 0.072504 0.043604
v 0.132874 0.074543 0.044876
v 0.120159 0.077398 0.040942
v 0.110651 0.080565 0.030720
v 0.104286 0.083266 0.013744
v 0.104696 0.083432 -0.002060
v 0.196332 0.074856 -0.035624
v 0.203862 0.077300 -0.058177
v 0.213486 0.078582 -0.071104
v 0.228242 0.079447 -0.077323
v 0.248246 0.079715 -0.076867
v 0.266440 0.080704 -0.067543
v 0.276241 0.081690 -0.054319
v 0.280276 0.081078 -0.032831
v 0.276084 0.079895 -0.015066
v 0.266514 0.078528 -0.003481
v 0.255356 0.077081 0.003362
v 0.239712 0.075813 0.006052
v 0.227205 0.075721 0.002849
v 0.212034 0.076349 -0.008183
v 0.202169 0.077025 -0.022786
v 0.200319 0.077697 -0.033518
v 0.203839 0.079057 -0.049484
l 1 2 3 4 5 6 7 8 9
l 10 11 12 13 14 15 16 17 18 19 20 21 22 23 24 25 26
l 27 28 29 30 31 32 33 34 35 36 37 38 39 40 41 42 43 44
l 45 46 47 48 49 50 51 52 53 54 55 56 57 58 59 60 61
l 62 63 64
l 65 66 67 68 69 70 71 72 73 74 75 76 77 78 79 80 81
l 82 83 84 85 86 87 88 89 90 91 92 93 94 95 96 97 98 99
l 100 101 102 103 104
l 105 106 107 108 109
l 110 111 112
l 113 114 115
l 116 117 118 119 120
l 121 122 123 124 125
l 126 127
l 128 129
l 130 131 132 133 134
l 135 136 137 138 139 140
l 141 142 143
l 144 145 146 147 148 149 150 151 152
l 153 154 155 156 157 158 159 160
l 161 162 163 164 165
l 166 167 168 169
l 170 171 172 173 174 175
l 176 177 178 179 180
l 181 182 183 184 185
l 186 187 188 189
l 190 191 192 193
l 194 195 196 197
l 198 199 200
l 201 202
l 203 204
l 205 206
l 207 208
l 209 210
l 211 212
l 213 214
l 215 216
l 217 218 219
l 220 221 222
l 223 224
l 225 226
l 227 228
l 229 230
l 231 232
l 233 234
l 235 236
l 237 238 239
l 240 241
l 242 243
l 244 245
l 246 247
l 248 249
l 250 251
l 252 253
l 254 255
l 256 257
l 258 259
l 260 261 262 263 264 265 266 267 268 269 270 271 272 273 274 275 276
l 277 278 279 280 281 282 283 284 285 286
l 287 288 289 290 291 292 293 294 295 296 297 298 299 300 301 302 303 304
l 305 306 307 308 309 310 311 312 313 314 315 316 317 318 319 320 321 322 323
l 324 325 326 327 328 329 330 331 332 333 334 335 336 337 338 339 340
l 341 342 343
l 344 345 346
l 347 348 349
l 350 351
l 352 353
l 354 355 356 357 358 359 360 361 362 363 364 365 366 367 368 369 370 371
l 372 373 374 375 376 377 378 379 380 381
l 382 383 384 385 386 387 388 389 390 391 392 393 394 395 396 397 398
l 399 400 401 402 403 404 405 406 407 408 409 410 411 412 413 414 415 416 417 418 419
l 420 421 422
l 423 424
l 425 426 427
l 428 429 430 431 432 433 434 435 436 437 438 439
l 440 441 442
l 443 444 445
l 446 447 448 449 450 451 452 453 454 455
l 456 457 458 459 460 461 462 463 464 465
l 466 467
l 468 469
l 470 471
l 472 473
l 474 475
l 476 477
l 478 479
l 480 481
l 482 483 484 485 486 487 488 489 490 491 492 493 494 495 496 497 498 499 500 501 502 503 504 505 506
l 507 508 509 510 511 512
l 513 514 515
l 516 517 518
l 519 520 521 522 523
l 524 525 526 527 528 529 530 531 532 533 534 535 536 537 538 539
l 540 541 542
l 543 544
l 545 546 547
l 548 549 550
l 551 552 553 554 555 556 557 558 559 560 561 562 563 564 565 566 567
l 568 569 570 571 572
l 573 574 575 576 577
l 578 579 580 581 582
l 583 584 585 586 587
l 588 589 590 591 592
l 593 594 595 596 597
l 598 599 600 601 602 603 604 605 606 607 608 609 610 611 612 613 614
l 615 616 617 618 619 620 621 622 623 624 625 626 627 628 629 630 631
l 632 633 634 635 636 637 638 639 640 641 642 643 644 645 646 647 648
l 649 650 651 652 653 654 655 656 657 658 659 660 661 662 663 664 665
