v 0.235540 -0.019287 0.076080
v 0.223180 -0.009981 0.024948
v 0.195669 -0.002264 -0.023393
v 0.154155 0.003486 -0.066646
v 0.102193 0.006806 -0.101247
v -0.009506 -0.029415 -0.022565
v -0.056204 -0.027179 -0.045379
v -0.088791 -0.025066 -0.070194
v -0.111087 -0.023001 -0.097147
v -0.125900 -0.020549 -0.132430
v -0.232517 -0.085021 -0.201657
v -0.294875 -0.085021 -0.221656
v -0.350128 -0.085021 -0.250082
v -0.346971 -0.086365 -0.231470
v -0.369000 -0.087801 -0.190810
v -0.387229 -0.089203 -0.141435
v -0.394967 -0.090090 -0.099001
v -0.395885 -0.090765 -0.051887
v -0.388365 -0.091013 -0.011320
v -0.374414 -0.090997 0.028894
v -0.350913 -0.090735 0.079250
v -0.316420 -0.090175 0.140238
v -0.012130 0.143063 -0.074864
v 0.022404 0.094606 -0.097426
v 0.042938 0.042556 -0.117938
v 0.049232 0.006066 -0.129572
v 0.051685 -0.031111 -0.139510
v 0.049601 -0.059683 -0.147388
v 0.043417 -0.084895 -0.156180
v -0.014127 0.143265 -0.075918
v 0.032563 0.148778 -0.062512
v 0.069877 0.145044 -0.040578
v 0.107305 0.131126 -0.004908
v 0.145878 0.106253 0.046084
v 0.174487 0.077960 0.098303
v 0.193599 0.045410 0.153520
v 0.200809 0.012860 0.203857
v 0.197206 -0.020512 0.246973
v 0.267080 -0.100187 0.042140
v 0.257434 -0.066728 0.114424
v 0.243892 -0.045700 0.165792
v 0.221472 -0.024400 0.215361
v 0.193083 -0.007487 0.249068
v -0.012866 0.147668 -0.076052
v -0.007028 0.141482 -0.061048
v -0.004976 0.133786 -0.045768
v -0.007083 0.125644 -0.031487
v -0.013319 0.117711 -0.018422
v -0.033316 0.107661 -0.003478
v -0.070191 0.100060 0.004694
v 0.042373 -0.099605 -0.058707
v 0.018578 -0.049091 -0.026278
v -0.001069 -0.006218 -0.005341
v -0.019587 0.034412 0.004710
v -0.049277 0.097300 0.012290
v 0.051877 0.014951 -0.125624
v 0.054248 0.006756 -0.082472
v 0.050259 -0.004192 -0.056233
v 0.035786 -0.021063 -0.034317
v 0.009659 -0.030342 -0.020757
v 0.049723 -0.082034 -0.148667
v 0.056377 -0.084596 -0.121076
v 0.056620 -0.087236 -0.096025
v 0.049288 -0.089189 -0.072985
v 0.035368 -0.091027 -0.055110
v 0.056711 -0.020884 -0.100551
v 0.053023 -0.082579 -0.113963
v 0.057448 -0.023288 -0.100198
v 0.058865 -0.024284 -0.086967
v 0.056092 -0.027435 -0.072982
v 0.038002 -0.038166 -0.049843
v 0.038579 -0.035357 -0.050916
v 0.042055 -0.062052 -0.060858
v 0.041271 -0.086243 -0.068902
v -0.164358 0.137797 -0.070704
v -0.170197 0.125912 -0.073781
v -0.172642 0.104797 -0.083249
v -0.166494 0.051763 -0.113214
v -0.121409 -0.060522 -0.178686
v -0.114879 -0.074145 -0.190634
v -0.109430 -0.080826 -0.203477
v -0.006698 -0.007219 -0.000896
v -0.086632 0.024751 -0.017831
v -0.113341 0.041242 -0.025714
v -0.136830 0.060979 -0.034854
v -0.151987 0.077661 -0.042890
v -0.161108 0.093870 -0.051308
v -0.168995 0.142824 -0.078119
v -0.074984 0.103787 -0.001711
v -0.036686 0.093351 0.027627
v 0.021209 0.072082 0.073211
v 0.132844 0.019979 0.164674
v 0.188594 -0.012885 0.218820
v 0.216050 -0.036593 0.261356
v -0.013828 0.196208 0.220626
v -0.002442 0.179573 0.199615
v 0.010979 0.147977 0.164321
v 0.019862 0.103153 0.108741
v 0.012876 0.057879 0.059521
v -0.007897 -0.008001 -0.000268
v -0.260090 0.162907 0.145975
v -0.261072 0.147032 0.172265
v -0.261095 0.127161 0.195576
v -0.260354 0.104526 0.213993
v -0.258027 0.075146 0.231930
v -0.253805 0.039161 0.250096
v -0.249203 0.003783 0.263228
v -0.238204 -0.083844 0.281428
v -0.018141 0.187410 0.233582
v -0.049612 0.183348 0.260281
v -0.082338 0.178224 0.279515
v -0.110339 0.173620 0.286329
v -0.135749 0.168471 0.282714
v -0.163400 0.163743 0.266296
v -0.194397 0.159064 0.234413
v -0.218338 0.158005 0.199856
v -0.245484 0.162154 0.153941
v -0.168719 0.135123 -0.071747
v -0.186667 0.123622 -0.069401
v -0.200284 0.118778 -0.071565
v -0.198017 0.115828 -0.068646
v -0.191286 0.095503 -0.054673
v -0.177446 0.071403 -0.039572
v -0.162089 0.054952 -0.029396
v -0.139235 0.038258 -0.019270
v -0.105818 0.019625 -0.008934
v -0.068237 0.003760 -0.003250
v -0.037410 -0.004567 -0.001346
v -0.008751 -0.006113 -0.000684
v -0.155623 0.045489 -0.028733
v -0.158994 0.043880 -0.006892
v -0.166306 0.047294 0.021147
v -0.174684 0.053649 0.044420
v -0.185545 0.064087 0.066638
v -0.198131 0.078593 0.086834
v -0.213602 0.099374 0.108169
v -0.244368 0.152674 0.147146
v 0.265078 -0.085021 0.068430
v 0.266549 -0.085021 0.018454
v 0.258839 -0.085021 -0.023440
v 0.241839 -0.085021 -0.062247
v 0.215738 -0.085021 -0.097686
v 0.184325 -0.085021 -0.121074
v 0.145532 -0.085021 -0.137806
v 0.101946 -0.085021 -0.146997
v 0.044231 -0.085021 -0.149924
v 0.241508 -0.038573 0.021434
v 0.220085 -0.031361 -0.026970
v 0.184260 -0.024943 -0.069733
v 0.135579 -0.019629 -0.104793
v 0.078186 -0.015853 -0.129288
v 0.146667 -0.085021 0.390643
v 0.190295 -0.085021 0.370873
v 0.224686 -0.085021 0.344997
v 0.252973 -0.085021 0.306653
v 0.276306 -0.085021 0.259570
v 0.290278 -0.085021 0.212281
v 0.294718 -0.085021 0.163368
v 0.289760 -0.085021 0.115876
v 0.276335 -0.085021 0.067016
v -0.123574 0.135412 0.238272
v -0.103486 0.096620 0.200551
v -0.092129 0.068471 0.167408
v -0.085101 0.052368 0.138750
v -0.073782 0.023435 0.073710
v -0.055092 0.145763 0.224355
v -0.036277 0.107604 0.185354
v -0.027085 0.078460 0.152400
v -0.023755 0.060628 0.124100
v -0.022388 0.026524 0.060613
v -0.255846 0.146029 0.141259
v -0.247446 0.105588 0.127417
v -0.242937 0.055606 0.106126
v -0.243263 0.023157 0.086691
v -0.245868 -0.011063 0.059159
v -0.247681 -0.030025 0.038134
v -0.249343 -0.045716 0.013692
v -0.253984 -0.084670 -0.074560
v -0.193983 0.115702 -0.071256
v -0.189078 0.068276 -0.097530
v -0.173835 0.020094 -0.131721
v -0.147951 -0.032492 -0.164605
v -0.114045 -0.084126 -0.193908
v -0.113799 -0.085021 -0.195677
v -0.119116 -0.085021 -0.156639
v -0.117946 -0.085021 -0.130924
v -0.110013 -0.085021 -0.104918
v -0.092687 -0.085021 -0.073698
v -0.148513 0.042014 -0.028344
v -0.133322 0.012229 -0.035582
v -0.103455 -0.050799 -0.058496
v -0.095344 -0.084370 -0.075121
v -0.151316 0.038507 -0.027018
v -0.175644 0.011890 -0.000247
v -0.200662 -0.015916 0.011782
v -0.225632 -0.038393 0.008869
v -0.252202 -0.054633 -0.009341
v -0.097264 -0.085021 -0.075197
v -0.103722 -0.085021 -0.067471
v -0.136267 -0.085021 -0.050679
v -0.161958 -0.085021 -0.041952
v -0.182087 -0.085021 -0.039286
v -0.201053 -0.085021 -0.040954
v -0.218417 -0.085021 -0.046632
v -0.257782 -0.085021 -0.074497
v -0.256930 -0.085021 -0.071499
v -0.254864 -0.085021 -0.140913
v -0.230641 -0.085021 -0.203340
v 0.034405 -0.085021 -0.057664
v 0.008955 -0.085021 -0.057801
v -0.018076 -0.085021 -0.065551
v -0.050549 -0.085021 -0.083008
v -0.076766 -0.085021 -0.104284
v -0.093088 -0.085021 -0.125717
v -0.103265 -0.085021 -0.147678
v -0.108049 -0.085021 -0.173062
v -0.107858 -0.085021 -0.209101
v -0.022281 -0.051315 -0.045050
v -0.065816 -0.047262 -0.073236
v -0.095131 -0.044104 -0.101746
v -0.113994 -0.041573 -0.131167
v -0.124445 -0.039247 -0.167988
v -0.159622 0.023556 -0.012587
v -0.155359 0.010148 -0.013562
v -0.151864 -0.006953 -0.019125
v -0.139261 -0.075709 -0.056745
v -0.182078 -0.002128 0.005847
v -0.178918 -0.019424 -0.001735
v -0.177668 -0.077969 -0.045676
v -0.210715 -0.028435 0.014842
v -0.214195 -0.081609 -0.042387
v -0.103608 -0.059802 -0.060625
v -0.135803 -0.056464 -0.036377
v -0.170004 -0.060582 -0.025422
v -0.211956 -0.070477 -0.023014
v -0.230724 -0.073486 -0.029329
v -0.248528 -0.074978 -0.039838
v -0.125743 -0.009918 -0.040490
v -0.156340 -0.021438 -0.012490
v -0.184618 -0.033097 -0.001069
v -0.200434 -0.040022 -0.000885
v -0.220647 -0.049870 -0.006227
v -0.235345 -0.056151 -0.012867
v -0.247525 -0.058782 -0.021276
v -0.058325 0.014820 -0.017261
v -0.041063 -0.040540 -0.057763
v -0.018834 -0.083408 -0.080373
v -0.097589 0.029910 -0.028255
v -0.082363 -0.013306 -0.059793
v -0.049416 -0.078692 -0.093937
v 0.181936 0.073485 0.094009
v 0.192727 0.041577 0.073638
v 0.200568 0.020604 0.052480
v 0.215482 -0.035946 -0.023497
v 0.221599 -0.088762 -0.091506
v 0.159115 0.090935 0.069999
v 0.173762 0.048380 0.037736
v 0.183274 0.013130 -0.000886
v 0.184952 -0.037701 -0.065105
v 0.178228 -0.079775 -0.123463
v -0.245987 -0.014238 0.063835
v -0.266841 -0.015695 0.043372
v -0.282101 -0.014826 0.021069
v -0.291589 -0.011480 -0.003881
v -0.296899 -0.005888 -0.033301
v -0.298809 0.001798 -0.068500
v -0.296267 0.009873 -0.101105
v -0.275371 0.036290 -0.194499
v -0.227142 -0.082281 -0.202731
v -0.258320 -0.028694 -0.195530
v -0.278118 0.036606 -0.196169
v -0.271453 0.037471 -0.195246
v -0.304125 0.031611 -0.191668
v -0.327520 0.024392 -0.192784
v -0.349791 0.012193 -0.200402
v -0.365902 -0.001922 -0.212795
v -0.346987 -0.085788 -0.245623
v -0.357829 -0.038481 -0.218992
v -0.363589 -0.021022 -0.213720
v -0.370179 -0.004996 -0.212801
v -0.370468 -0.003635 -0.209857
v -0.386284 -0.031468 -0.132037
v -0.393574 -0.044118 -0.086741
v -0.392364 -0.053728 -0.047350
v -0.383450 -0.063435 -0.004332
v -0.358286 -0.076966 0.062357
v -0.321654 -0.087067 0.135151
v -0.278854 -0.090962 0.208910
v -0.234915 -0.088336 0.278611
v 0.212671 -0.066219 0.307866
v 0.184137 -0.018576 0.268555
v 0.151075 0.016539 0.230579
v 0.109862 0.047685 0.192430
v 0.048637 0.081662 0.144537
v 0.104976 0.041149 0.146573
v 0.091701 0.070393 0.200245
v 0.079895 0.096189 0.235714
v 0.065219 0.117477 0.261495
v 0.039533 0.140271 0.288752
v 0.127700 0.033124 0.202786
v 0.119491 0.044174 0.231577
v 0.103055 0.067664 0.272505
v 0.090878 0.082263 0.288970
v 0.073441 0.102743 0.303900
v -0.020858 0.189565 0.230499
v 0.000581 0.174591 0.256777
v 0.027403 0.152197 0.286868
v 0.045270 0.135380 0.302092
v 0.063465 0.112330 0.317064
v 0.092846 0.057383 0.341303
v 0.119043 -0.012659 0.365685
v 0.142178 -0.075624 0.395256
v -0.243334 -0.090102 0.273222
v -0.090020 -0.086080 0.365018
v -0.045930 -0.085172 0.385769
v -0.005307 -0.084581 0.399274
v 0.037921 -0.084214 0.407680
v 0.078252 -0.084196 0.408145
v 0.117804 -0.084548 0.400200
v 0.166540 -0.085352 0.381967
v -0.239061 -0.014387 0.048320
v -0.258408 -0.042511 0.119585
v -0.261505 -0.058354 0.164257
v -0.250275 -0.075840 0.227677
v -0.239680 -0.082425 0.257614
v -0.227272 -0.086390 0.280836
v -0.346914 -0.067539 -0.233029
v -0.306920 -0.066092 -0.208809
v -0.267722 -0.060073 -0.200903
v -0.305544 -0.050631 -0.202227
v -0.336985 -0.054257 -0.214897
v -0.348945 -0.055908 -0.224114
v -0.352593 -0.029823 -0.208855
v -0.340957 -0.053229 -0.214982
v -0.327401 -0.084051 -0.235423
v -0.241848 0.126886 0.132681
v -0.212384 0.072671 0.097624
v -0.202412 0.050269 0.080042
v -0.195541 0.023293 0.049196
v -0.191858 0.002676 0.011158
v -0.242422 0.127562 0.132367
v -0.212746 0.073255 0.097633
v -0.202672 0.050801 0.080174
v -0.195635 0.023726 0.049453
v -0.191758 0.002981 0.011504
v -0.256213 0.146884 0.140639
v -0.247742 0.106383 0.127019
v -0.243131 0.056303 0.105982
v -0.243373 0.023761 0.086702
v -0.245867 -0.010593 0.059326
v -0.247600 -0.029656 0.038386
v -0.249173 -0.045466 0.014014
v -0.253502 -0.084844 -0.074065
v -0.241570 0.114818 0.126002
v -0.225580 0.052232 0.096613
v -0.220855 0.026733 0.081189
v -0.219372 -0.003308 0.052523
v -0.218668 -0.026919 0.016087
v -0.241911 0.115599 0.125602
v -0.225768 0.052891 0.096559
v -0.220968 0.027325 0.081269
v -0.219362 -0.002848 0.052748
v -0.218514 -0.026627 0.016425
l 1 2 3 4 5
l 6 7 8 9 10
l 11 12 13
l 14 15 16 17 18 19 20 21 22
l 23 24 25 26 27 28 29
l 30 31 32 33 34 35 36 37 38
l 39 40 41 42 43
l 44 45 46 47 48 49 50
l 51 52 53 54 55
l 56 57 58 59 60
l 61 62 63 64 65
l 66 67
l 68 69 70 71
l 72 73 74
l 75 76 77 78 79 80 81
l 82 83 84 85 86 87 88
l 89 90 91 92 93 94
l 95 96 97 98 99 100
l 101 102 103 104 105 106 107 108
l 109 110 111 112 113 114 115 116 117
l 118 119 120
l 121 122 123 124 125 126 127 128 129
l 130 131 132 133 134 135 136 137
l 138 139 140 141 142 143 144 145 146
l 147 148 149 150 151
l 152 153 154 155 156 157 158 159 160
l 161 162 163 164 165
l 166 167 168 169 170
l 171 172 173 174 175 176 177 178
l 179 180 181 182 183
l 184 185 186 187 188
l 189 190 191 192
l 193 194 195 196 197
l 198 199 200 201 202 203 204 205
l 206 207 208
l 209 210 211 212 213 214 215 216 217
l 218 219 220 221 222
l 223 224 225 226
l 227 228 229
l 230 231
l 232 233 234 235 236 237
l 238 239 240 241 242 243 244
l 245 246 247
l 248 249 250
l 251 252 253 254 255
l 256 257 258 259 260
l 261 262 263 264 265 266 267 268
l 269 270 271
l 272 273 274 275 276
l 277 278 279 280
l 281 282 283 284 285 286 287 288 289
l 290 291 292 293 294
l 295 296 297 298 299
l 300 301 302 303 304
l 305 306 307 308 309 310 311 312
l 313 314 315 316 317 318 319 320
l 321 322 323 324 325 326
l 327 328 329
l 330 331 332
l 333 334 335
l 336 337 338 339 340
l 341 342 343 344 345
l 346 347 348 349 350 351 352 353
l 354 355 356 357 358
l 359 360 361 362 363
