v -0.002331 0.016277 0.409866
v -0.005810 0.033652 0.383624
v -0.010494 0.049138 0.350638
v -0.014125 0.057720 0.326075
v -0.017972 0.061832 0.301518
v -0.024574 0.062908 0.261150
v -0.031185 0.059887 0.221930
v -0.046149 0.039949 0.137035
v 0.029285 0.016315 0.409491
v 0.040386 0.031660 0.388125
v 0.052846 0.045439 0.360696
v 0.068963 0.056971 0.318918
v 0.089785 0.056140 0.249199
v 0.107795 0.039766 0.173222
v 0.001106 0.006377 0.421890
v -0.035593 0.008495 0.415579
v -0.075595 0.009582 0.397151
v -0.105439 0.012027 0.376157
v -0.125994 0.017061 0.351302
v -0.142123 0.027324 0.313069
v -0.153687 0.042251 0.258114
v -0.155772 0.043082 0.223944
v -0.154835 0.035082 0.173094
v -0.000898 0.048230 0.127651
v -0.066712 0.043236 0.120151
v -0.091906 0.037669 0.110995
v -0.104872 0.034721 0.100850
v -0.112873 0.030932 0.087258
v -0.116434 0.028359 0.071711
v -0.114031 0.023500 0.012651
v -0.116811 0.021689 -0.011905
v 0.023896 0.061825 0.118376
v 0.064472 0.056988 0.106856
v 0.086663 0.049222 0.093942
v 0.101058 0.048212 0.080977
v 0.099823 0.050592 0.079661
v 0.099922 0.098231 0.040771
v 0.100102 0.121038 0.007833
v 0.100205 0.127717 -0.013666
v 0.100524 0.130046 -0.034351
v 0.102929 0.122157 -0.089811
v -0.028836 0.154959 0.009007
v -0.063192 0.150611 0.006003
v -0.082246 0.139780 0.001887
v -0.094310 0.128697 -0.001056
v 0.097025 -0.013066 0.399135
v 0.104339 -0.028866 0.402483
v 0.116555 -0.038978 0.395352
v 0.133959 -0.043103 0.381664
v 0.154408 -0.040969 0.358753
v 0.164353 -0.035653 0.346298
v 0.170291 -0.026521 0.335986
v 0.170754 -0.011056 0.324433
v 0.166852 0.005239 0.308570
v -0.123123 -0.008302 0.377264
v -0.133537 -0.029464 0.382618
v -0.139042 -0.040991 0.381660
v -0.151582 -0.003395 0.344313
v -0.164406 -0.038648 0.342679
v 0.145038 0.032609 0.179150
v 0.146481 0.011950 0.129698
v 0.148520 -0.010331 0.102092
v 0.150923 -0.037786 0.085006
v 0.152237 -0.084284 0.075747
v 0.209775 -0.093682 0.108833
v 0.191514 -0.097021 0.081808
v 0.160321 -0.098151 0.045263
v 0.148278 -0.100857 0.020807
v 0.147428 -0.103340 -0.023723
v 0.155463 -0.109544 -0.151490
v -0.111747 0.028477 0.046673
v -0.137250 -0.038893 0.048846
v -0.141693 -0.065193 0.051590
v -0.144836 -0.078402 0.056321
v -0.150432 -0.082313 0.062644
v -0.160711 -0.083311 0.075108
v -0.181828 -0.080735 0.102303
v -0.198796 -0.077306 0.118645
v -0.115357 0.022277 -0.004143
v -0.109519 0.018647 -0.141369
v -0.105122 0.017354 -0.167690
v -0.097931 0.016353 -0.187422
v -0.083648 0.015499 -0.207811
v -0.060832 0.015243 -0.224498
v -0.032173 0.015748 -0.234915
v 0.000000 0.016884 -0.239958
v 0.037045 0.144495 -0.103275
v 0.039391 0.124991 -0.135512
v 0.042753 0.098723 -0.164991
v 0.043804 0.062904 -0.193879
v 0.038139 0.018153 -0.227007
v -0.126706 0.003922 0.032878
v -0.139304 -0.050241 0.035942
v -0.143520 -0.067967 0.031376
v -0.141842 -0.070662 -0.059866
v -0.142247 -0.076660 -0.145353
v -0.115997 0.004880 0.004724
v -0.118461 -0.000540 -0.103951
v -0.112761 -0.000552 -0.191270
v 0.111309 0.049109 0.032755
v 0.109673 0.044185 -0.060943
v 0.116667 0.040609 -0.127637
v 0.153569 -0.110047 -0.148503
v 0.190498 -0.107698 -0.173939
v -0.149063 -0.093756 -0.164081
v -0.147485 -0.062538 -0.179824
v -0.145408 -0.019524 -0.216329
v -0.143438 -0.002666 -0.241764
v -0.139922 0.002640 -0.267732
v -0.137299 -0.003732 -0.305657
v -0.137826 -0.021016 -0.338514
v -0.138767 -0.047455 -0.361631
v -0.137827 -0.091168 -0.385764
v -0.197334 -0.070211 -0.349616
v -0.193477 -0.079669 -0.355823
v -0.183183 -0.087860 -0.364352
v -0.149553 -0.093075 -0.383035
v -0.084734 -0.086480 -0.407365
v -0.004117 -0.076664 -0.429339
v 0.110992 -0.001395 -0.184914
v 0.104178 -0.001411 -0.209762
v 0.090668 -0.000323 -0.240209
v 0.076863 0.001823 -0.262940
v 0.061290 0.003982 -0.280782
v 0.029524 0.003775 -0.301489
v -0.031419 -0.004319 -0.323364
v -0.025928 0.002866 -0.295416
v -0.031470 -0.001932 -0.326984
v -0.039212 -0.015869 -0.358698
v -0.044180 -0.034424 -0.381658
v -0.050883 -0.076326 -0.423116
v -0.121887 -0.011523 -0.114686
v -0.123853 -0.013310 -0.146729
v -0.124768 -0.016086 -0.150476
v -0.125360 -0.019655 -0.141063
v -0.124426 -0.017008 -0.109986
v 0.128697 -0.051021 -0.365363
v 0.126289 -0.069372 -0.376314
v 0.123998 -0.075311 -0.383269
v 0.128837 -0.072923 -0.384088
v 0.103971 -0.073282 -0.392690
v 0.081827 -0.069108 -0.399605
v 0.070550 -0.063282 -0.398297
v 0.059384 -0.053495 -0.389412
v -0.117905 -0.003560 -0.172035
v -0.133582 -0.058205 -0.157257
v -0.142083 -0.090027 -0.156701
v -0.146098 -0.093989 -0.160708
v -0.154837 -0.094968 -0.167093
v -0.185076 -0.095510 -0.175002
v -0.029285 0.016315 0.409491
v -0.040386 0.031660 0.388125
v -0.052846 0.045439 0.360696
v -0.068963 0.056971 0.318918
v -0.089785 0.056140 0.249199
v -0.107795 0.039766 0.173222
v 0.007439 0.053255 0.124767
v 0.009849 0.081702 0.104920
v 0.011194 0.107141 0.080928
v 0.013404 0.135617 0.047003
v 0.017614 0.151200 0.020970
v 0.023670 0.160454 -0.005255
v 0.029501 0.163097 -0.033046
v 0.034889 0.160468 -0.061785
v 0.038121 0.152189 -0.092127
v -0.099823 0.050592 0.079661
v -0.099922 0.098231 0.040771
v -0.100102 0.121038 0.007833
v -0.100205 0.127717 -0.013666
v -0.100524 0.130046 -0.034351
v -0.102929 0.122157 -0.089811
v 0.008042 -0.064997 0.435815
v 0.067131 -0.072210 0.424920
v 0.113718 -0.076764 0.408291
v 0.141605 -0.076622 0.387907
v 0.165751 -0.072848 0.354569
v 0.184029 -0.065178 0.318072
v 0.191691 -0.052466 0.294793
v 0.193660 -0.032382 0.276005
v 0.190229 0.001369 0.249170
v 0.187678 0.012195 0.236086
v 0.184243 0.019834 0.216636
v 0.180842 0.018002 0.185681
v 0.180762 0.011823 0.170616
v 0.182739 0.000513 0.156003
v 0.190915 -0.029419 0.136149
v 0.208413 -0.085193 0.114454
v 0.092823 -0.012268 0.397576
v 0.115397 -0.008741 0.382251
v 0.141255 -0.005430 0.357476
v 0.156040 -0.002110 0.337085
v 0.168695 0.003978 0.312551
v -0.097025 -0.013066 0.399135
v -0.104339 -0.028866 0.402483
v -0.116555 -0.038978 0.395352
v -0.133959 -0.043103 0.381664
v -0.154408 -0.040969 0.358753
v -0.164353 -0.035653 0.346298
v -0.170291 -0.026521 0.335986
v -0.170754 -0.011056 0.324433
v -0.166852 0.005239 0.308570
v 0.020935 -0.014912 0.421319
v 0.077091 -0.007343 0.409699
v 0.080115 -0.010678 0.409597
v 0.078217 -0.040274 0.413113
v 0.074871 -0.050203 0.415988
v 0.051865 -0.049167 0.422694
v 0.018966 -0.048862 0.423727
v -0.209775 -0.093682 0.108833
v -0.191514 -0.097021 0.081808
v -0.160321 -0.098151 0.045263
v -0.148278 -0.100857 0.020807
v -0.147428 -0.103340 -0.023723
v -0.155463 -0.109544 -0.151490
v 0.115357 0.022277 -0.004143
v 0.109519 0.018647 -0.141369
v 0.105122 0.017354 -0.167690
v 0.097931 0.016353 -0.187422
v 0.083648 0.015499 -0.207811
v 0.060832 0.015243 -0.224498
v 0.032173 0.015748 -0.234915
v 0.109166 0.126121 0.016583
v 0.108843 0.131807 -0.017522
v 0.108567 0.131206 -0.054169
v 0.107453 0.125483 -0.084012
v 0.105175 0.113421 -0.113387
v 0.102875 0.095192 -0.141714
v 0.101430 0.073484 -0.164391
v 0.099689 0.049817 -0.180098
v 0.096248 0.015692 -0.194280
v -0.037045 0.144495 -0.103275
v -0.039391 0.124991 -0.135512
v -0.042753 0.098723 -0.164991
v -0.043804 0.062904 -0.193879
v -0.038139 0.018153 -0.227007
v 0.105844 0.057265 0.053460
v 0.106542 0.078942 0.027939
v 0.106020 0.093609 0.002030
v 0.106590 0.102920 -0.025034
v 0.107886 0.104628 -0.051978
v 0.109023 0.099121 -0.077216
v 0.108957 0.088594 -0.097536
v 0.107022 0.071544 -0.116345
v 0.105866 0.043575 -0.136887
v -0.153569 -0.110047 -0.148503
v -0.190498 -0.107698 -0.173939
v 0.197334 -0.070211 -0.349616
v 0.193477 -0.079669 -0.355823
v 0.183183 -0.087860 -0.364352
v 0.149553 -0.093075 -0.383035
v 0.084734 -0.086480 -0.407365
v 0.004117 -0.076664 -0.429339
v 0.186649 -0.111650 -0.175002
v 0.186916 -0.082591 -0.184737
v 0.189503 -0.040043 -0.210940
v 0.192601 -0.019247 -0.231358
v 0.194903 -0.009355 -0.254509
v 0.195100 -0.010138 -0.284664
v 0.194468 -0.024208 -0.317028
v 0.194543 -0.043306 -0.335574
v 0.195221 -0.077096 -0.351614
v -0.110992 -0.001395 -0.184914
v -0.104178 -0.001411 -0.209762
v -0.090668 -0.000323 -0.240209
v -0.076863 0.001823 -0.262940
v -0.061290 0.003982 -0.280782
v -0.029524 0.003775 -0.301489
v 0.031419 -0.004319 -0.323364
v 0.060724 -0.049843 -0.391843
v 0.129849 -0.049658 -0.364605
v -0.128837 -0.072923 -0.384088
v -0.103971 -0.073282 -0.392690
v -0.081827 -0.069108 -0.399605
v -0.070550 -0.063282 -0.398297
v -0.059384 -0.053495 -0.389412
v 0.002331 0.016277 0.409866
v 0.005810 0.033652 0.383624
v 0.010494 0.049138 0.350638
v 0.014125 0.057720 0.326075
v 0.017972 0.061832 0.301518
v 0.024574 0.062908 0.261150
v 0.031185 0.059887 0.221930
v 0.046149 0.039949 0.137035
v 0.000898 0.048230 0.127651
v 0.066712 0.043236 0.120151
v 0.091906 0.037669 0.110995
v 0.104872 0.034721 0.100850
v 0.112873 0.030932 0.087258
v 0.116434 0.028359 0.071711
v 0.114031 0.023500 0.012651
v 0.116811 0.021689 -0.011905
v -0.023896 0.061825 0.118376
v -0.064472 0.056988 0.106856
v -0.086663 0.049222 0.093942
v -0.101058 0.048212 0.080977
v 0.028836 0.154959 0.009007
v 0.063192 0.150611 0.006003
v 0.082246 0.139780 0.001887
v 0.094310 0.128697 -0.001056
v -0.092823 -0.012268 0.397576
v -0.115397 -0.008741 0.382251
v -0.141255 -0.005430 0.357476
v -0.156040 -0.002110 0.337085
v -0.168695 0.003978 0.312551
v 0.151582 -0.003395 0.344313
v 0.164406 -0.038648 0.342679
v -0.145038 0.032609 0.179150
v -0.146481 0.011950 0.129698
v -0.148520 -0.010331 0.102092
v -0.150923 -0.037786 0.085006
v -0.152237 -0.084284 0.075747
v 0.111747 0.028477 0.046673
v 0.137250 -0.038893 0.048846
v 0.141693 -0.065193 0.051590
v 0.144836 -0.078402 0.056321
v 0.150432 -0.082313 0.062644
v 0.160711 -0.083311 0.075108
v 0.181828 -0.080735 0.102303
v 0.198796 -0.077306 0.118645
v -0.109166 0.126121 0.016583
v -0.108843 0.131807 -0.017522
v -0.108567 0.131206 -0.054169
v -0.107453 0.125483 -0.084012
v -0.105175 0.113421 -0.113387
v -0.102875 0.095192 -0.141714
v -0.101430 0.073484 -0.164391
v -0.099689 0.049817 -0.180098
v -0.096248 0.015692 -0.194280
v 0.115997 0.004880 0.004724
v 0.118461 -0.000540 -0.103951
v 0.112761 -0.000552 -0.191270
v -0.111309 0.049109 0.032755
v -0.109673 0.044185 -0.060943
v -0.116667 0.040609 -0.127637
v 0.149063 -0.093756 -0.164081
v 0.147485 -0.062538 -0.179824
v 0.145408 -0.019524 -0.216329
v 0.143438 -0.002666 -0.241764
v 0.139922 0.002640 -0.267732
v 0.137299 -0.003732 -0.305657
v 0.137826 -0.021016 -0.338514
v 0.138767 -0.047455 -0.361631
v 0.137827 -0.091168 -0.385764
v -0.186649 -0.111650 -0.175002
v -0.186916 -0.082591 -0.184737
v -0.189503 -0.040043 -0.210940
v -0.192601 -0.019247 -0.231358
v -0.194903 -0.009355 -0.254509
v -0.195100 -0.010138 -0.284664
v -0.194468 -0.024208 -0.317028
v -0.194543 -0.043306 -0.335574
v -0.195221 -0.077096 -0.351614
v 0.121887 -0.011523 -0.114686
v 0.123853 -0.013310 -0.146729
v 0.124768 -0.016086 -0.150476
v 0.125360 -0.019655 -0.141063
v 0.124426 -0.017008 -0.109986
v -0.128697 -0.051021 -0.365363
v -0.126289 -0.069372 -0.376314
v -0.123998 -0.075311 -0.383269
v 0.117905 -0.003560 -0.172035
v 0.133582 -0.058205 -0.157257
v 0.142083 -0.090027 -0.156701
v 0.146098 -0.093989 -0.160708
v 0.154837 -0.094968 -0.167093
v 0.185076 -0.095510 -0.175002
v -0.001106 0.006377 0.421890
v 0.035593 0.008495 0.415579
v 0.075595 0.009582 0.397151
v 0.105439 0.012027 0.376157
v 0.125994 0.017061 0.351302
v 0.142123 0.027324 0.313069
v 0.153687 0.042251 0.258114
v 0.155772 0.043082 0.223944
v 0.154835 0.035082 0.173094
v -0.007439 0.053255 0.124767
v -0.009849 0.081702 0.104920
v -0.011194 0.107141 0.080928
v -0.013404 0.135617 0.047003
v -0.017614 0.151200 0.020970
v -0.023670 0.160454 -0.005255
v -0.029501 0.163097 -0.033046
v -0.034889 0.160468 -0.061785
v -0.038121 0.152189 -0.092127
v -0.008042 -0.064997 0.435815
v -0.067131 -0.072210 0.424920
v -0.113718 -0.076764 0.408291
v -0.141605 -0.076622 0.387907
v -0.165751 -0.072848 0.354569
v -0.184029 -0.065178 0.318072
v -0.191691 -0.052466 0.294793
v -0.193660 -0.032382 0.276005
v -0.190229 0.001369 0.249170
v -0.187678 0.012195 0.236086
v -0.184243 0.019834 0.216636
v -0.180842 0.018002 0.185681
v -0.180762 0.011823 0.170616
v -0.182739 0.000513 0.156003
v -0.190915 -0.029419 0.136149
v -0.208413 -0.085193 0.114454
v 0.123123 -0.008302 0.377264
v 0.133537 -0.029464 0.382618
v 0.139042 -0.040991 0.381660
v -0.020935 -0.014912 0.421319
v -0.077091 -0.007343 0.409699
v -0.080115 -0.010678 0.409597
v -0.078217 -0.040274 0.413113
v -0.074871 -0.050203 0.415988
v -0.051865 -0.049167 0.422694
v -0.018966 -0.048862 0.423727
v 0.126706 0.003922 0.032878
v 0.139304 -0.050241 0.035942
v 0.143520 -0.067967 0.031376
v 0.141842 -0.070662 -0.059866
v 0.142247 -0.076660 -0.145353
v -0.105844 0.057265 0.053460
v -0.106542 0.078942 0.027939
v -0.106020 0.093609 0.002030
v -0.106590 0.102920 -0.025034
v -0.107886 0.104628 -0.051978
v -0.109023 0.099121 -0.077216
v -0.108957 0.088594 -0.097536
v -0.107022 0.071544 -0.116345
v -0.105866 0.043575 -0.136887
v 0.025928 0.002866 -0.295416
v 0.031470 -0.001932 -0.326984
v 0.039212 -0.015869 -0.358698
v 0.044180 -0.034424 -0.381658
v 0.050883 -0.076326 -0.423116
v -0.060724 -0.049843 -0.391843
v -0.129849 -0.049658 -0.364605
l 1 2 3 4 5 6 7 8
l 9 10 11 12 13 14
l 15 16 17 18 19 20 21 22 23
l 24 25 26 27 28 29 30 31
l 32 33 34 35
l 36 37 38 39 40 41
l 42 43 44 45
l 46 47 48 49 50 51 52 53 54
l 55 56 57
l 58 59
l 60 61 62 63 64
l 65 66 67 68 69 70
l 71 72 73 74 75 76 77 78
l 79 80 81 82 83 84 85 86
l 87 88 89 90 91
l 92 93 94 95 96
l 97 98 99
l 100 101 102
l 103 104
l 105 106 107 108 109 110 111 112 113
l 114 115 116 117 118 119
l 120 121 122 123 124 125 126
l 127 128 129 130 131
l 132 133 134 135 136
l 137 138 139
l 140 141 142 143 144
l 145 146 147 148 149 150
l 151 152 153 154 155 156
l 157 158 159 160 161 162 163 164 165
l 166 167 168 169 170 171
l 172 173 174 175 176 177 178 179 180 181 182 183 184 185 186 187
l 188 189 190 191 192
l 193 194 195 196 197 198 199 200 201
l 202 203 204 205 206 207 208
l 209 210 211 212 213 214
l 215 216 217 218 219 220 221 86
l 222 223 224 225 226 227 228 229 230
l 231 232 233 234 235
l 236 237 238 239 240 241 242 243 244
l 245 246
l 247 248 249 250 251 252
l 253 254 255 256 257 258 259 260 261
l 262 263 264 265 266 267 268
l 269 270
l 271 272 273 274 275
l 276 277 278 279 280 281 282 283
l 284 285 286 287 288 289 290 291
l 292 293 294 295
l 296 297 298 299
l 300 301 302 303 304
l 305 306
l 307 308 309 310 311
l 312 313 314 315 316 317 318 319
l 320 321 322 323 324 325 326 327 328
l 329 330 331
l 332 333 334
l 335 336 337 338 339 340 341 342 343
l 344 345 346 347 348 349 350 351 352
l 353 354 355 356 357
l 358 359 360
l 361 362 363 364 365 366
l 367 368 369 370 371 372 373 374 375
l 376 377 378 379 380 381 382 383 384
l 385 386 387 388 389 390 391 392 393 394 395 396 397 398 399 400
l 401 402 403
l 404 405 406 407 408 409 410
l 411 412 413 414 415
l 416 417 418 419 420 421 422 423 424
l 425 426 427 428 429
l 430 431
