v 0.026853 0.235377 0.096648
v 0.018023 0.274062 0.088659
v 0.015840 0.323993 0.097803
v 0.018438 0.351502 0.110579
v 0.031412 0.389771 0.141467
v 0.038784 0.407821 0.146788
v 0.042512 0.417787 0.143949
v 0.045013 0.428716 0.127381
v 0.046105 0.437989 0.098603
v 0.046081 0.440836 0.078655
v 0.045829 0.439398 0.048444
v 0.044269 0.433355 0.018833
v 0.038233 0.420846 -0.019045
v 0.034808 0.407533 -0.046009
v 0.034387 0.389510 -0.070169
v 0.034300 0.362315 -0.082941
v 0.032588 0.275301 -0.109006
v 0.033848 0.196240 -0.125489
v 0.034227 0.106217 -0.137877
v 0.035904 -0.024798 -0.145340
v 0.035221 -0.125629 -0.140568
v 0.034374 -0.255503 -0.121752
v 0.034221 -0.314613 -0.108470
v 0.034499 -0.372690 -0.091232
v 0.034290 -0.420015 -0.073754
v 0.033796 -0.435125 -0.060709
v 0.032319 -0.449053 -0.033931
v 0.031026 -0.458864 -0.005317
v 0.034450 -0.471799 0.053595
v 0.041780 -0.470315 0.072615
v 0.044645 -0.464828 0.102756
v 0.045610 -0.453556 0.131370
v 0.045586 -0.441953 0.148239
v 0.043472 -0.431014 0.152147
v 0.040673 -0.421151 0.150516
v 0.032020 -0.394985 0.136467
v 0.027800 -0.375175 0.132166
v 0.025227 -0.325007 0.119395
v 0.025562 -0.286690 0.103583
v 0.020455 -0.261097 0.092370
v 0.023586 -0.233104 0.088326
v 0.025142 -0.222720 0.083205
v 0.026196 -0.215687 0.074125
v 0.026107 -0.214481 0.054073
v 0.023939 -0.223513 0.014748
v 0.023142 -0.224739 -0.005195
v 0.022717 -0.211431 -0.032081
v 0.022503 -0.194981 -0.043565
v 0.022594 -0.165425 -0.049296
v 0.022542 -0.064263 -0.051790
v 0.021205 0.127973 -0.050586
v 0.020797 0.148049 -0.048484
v 0.020563 0.166582 -0.040845
v 0.020931 0.185533 -0.017635
v 0.023774 0.192331 0.011525
v 0.030408 0.190038 0.071560
v 0.029254 0.195986 0.090719
v 0.027660 0.204294 0.097362
v 0.026214 0.214405 0.100155
v -0.037594 -0.226894 0.084984
v -0.040270 -0.220988 0.075491
v -0.041889 -0.220954 0.055445
v -0.040776 -0.229556 0.016064
v -0.040603 -0.229625 -0.003885
v -0.041587 -0.215543 -0.030309
v -0.042080 -0.190000 -0.045670
v -0.042906 -0.160028 -0.049347
v -0.044018 -0.038944 -0.053370
v -0.044551 0.142753 -0.050489
v -0.044497 0.162380 -0.046077
v -0.044952 0.170901 -0.040778
v -0.045867 0.189018 -0.017016
v -0.046008 0.197235 0.012011
v -0.046931 0.196489 0.072447
v -0.043745 0.201731 0.091525
v -0.039745 0.209042 0.098735
v -0.031214 0.226919 0.101407
v -0.018367 0.263691 0.090727
v -0.015334 0.293680 0.091692
v -0.016127 0.323179 0.098991
v -0.014875 0.350845 0.111328
v -0.014940 0.366939 0.123604
v -0.020022 0.390184 0.142457
v -0.024996 0.408835 0.148218
v -0.027889 0.419432 0.146287
v -0.030225 0.430356 0.129799
v -0.031736 0.439963 0.101325
v -0.032262 0.443407 0.081576
v -0.031943 0.442025 0.051541
v -0.030954 0.433034 0.012440
v -0.030055 0.418495 -0.024972
v -0.031455 0.398339 -0.059633
v -0.032361 0.383877 -0.073216
v -0.033402 0.298317 -0.102008
v -0.033100 0.190370 -0.125443
v -0.032721 0.080787 -0.139383
v -0.030920 -0.039605 -0.144303
v -0.030871 -0.139826 -0.138028
v -0.032088 -0.268929 -0.118746
v -0.032132 -0.365848 -0.092587
v -0.032256 -0.413224 -0.075922
v -0.032817 -0.430634 -0.066320
v -0.033473 -0.442008 -0.049995
v -0.035664 -0.453143 -0.022115
v -0.041896 -0.463505 0.016154
v -0.044865 -0.469175 0.055762
v -0.045050 -0.468727 0.075823
v -0.043999 -0.462645 0.105254
v -0.041687 -0.451752 0.133227
v -0.039444 -0.440907 0.149867
v -0.036688 -0.430845 0.153202
v -0.058123 0.376035 0.139928
v -0.071911 0.393277 0.142465
v -0.076733 0.400877 0.136044
v -0.081696 0.414309 0.098348
v -0.082687 0.418882 0.068460
v -0.079084 0.419069 0.028241
v -0.072323 0.415022 -0.000853
v -0.069780 0.403833 -0.028846
v -0.071836 0.385307 -0.052343
v -0.072664 0.358655 -0.066543
v -0.071979 0.329681 -0.075404
v -0.068845 0.201457 -0.103674
v -0.068976 0.131422 -0.113773
v -0.069786 0.060855 -0.118369
v -0.070734 -0.070514 -0.115859
v -0.070840 -0.171272 -0.107899
v -0.071369 -0.290313 -0.084896
v -0.077595 -0.359060 -0.069479
v -0.109795 -0.278059 0.050852
v -0.091206 -0.254878 0.046491
v -0.076214 -0.241774 0.044346
v -0.059465 -0.230909 0.042771
v -0.031604 -0.219779 0.041388
v -0.001935 -0.215243 0.040767
v 0.028019 -0.217112 0.040554
v 0.047406 -0.222177 0.040731
v 0.074259 -0.235562 0.041362
v 0.090140 -0.247740 0.042019
v 0.110128 -0.270060 0.044084
v 0.124583 -0.295995 0.048378
v 0.130580 -0.314688 0.052354
v 0.133969 -0.333924 0.056831
v 0.133160 -0.363024 0.064221
v 0.125948 -0.391102 0.071997
v 0.112951 -0.417020 0.079778
v 0.100764 -0.432169 0.084614
v 0.078009 -0.450730 0.090869
v 0.051501 -0.463933 0.095735
v 0.032394 -0.469484 0.098100
v 0.012660 -0.472566 0.099747
v -0.017314 -0.471369 0.100545
v -0.046276 -0.463570 0.099518
v -0.064282 -0.454916 0.097954
v -0.080540 -0.443429 0.095713
v -0.101390 -0.422258 0.091451
v -0.117051 -0.397183 0.086218
v -0.126924 -0.369571 0.079818
v -0.129487 -0.350300 0.074968
v -0.127463 -0.321321 0.067385
v -0.118663 -0.293804 0.059371
v 0.093474 0.327263 0.122751
v 0.098852 0.328830 0.126818
v 0.109669 0.331783 0.126991
v 0.120350 0.334795 0.123119
v 0.128371 0.339534 0.105796
v 0.131570 0.344723 0.076563
v 0.129486 0.348289 0.046959
v 0.122718 0.350979 0.017983
v 0.111105 0.354423 -0.009340
v 0.090498 0.358751 -0.043187
v 0.072599 0.363188 -0.066726
v 0.057449 0.366474 -0.078992
v 0.026825 0.366870 -0.081353
v -0.055188 0.364369 -0.079171
v -0.070991 0.359512 -0.068191
v -0.088591 0.351262 -0.045168
v -0.108966 0.343832 -0.011350
v -0.120515 0.338810 0.016024
v -0.127671 0.334296 0.044929
v -0.128938 0.331583 0.064793
v -0.126898 0.326303 0.094362
v -0.121876 0.321322 0.113135
v -0.114312 0.318511 0.121543
v -0.103608 0.316969 0.125484
v -0.083963 0.317388 0.122667
v -0.038209 0.318684 0.102514
v 0.001239 0.319895 0.096301
v 0.040909 0.319565 0.100589
v 0.078061 0.314032 0.114285
v -0.076213 0.212847 0.071534
v -0.050106 0.197587 0.070304
v -0.031003 0.191166 0.069836
v -0.011127 0.187643 0.069593
v 0.019128 0.187933 0.069473
v 0.048556 0.194834 0.070216
v 0.066808 0.203233 0.071969
v 0.091322 0.220616 0.075474
v 0.105090 0.235220 0.077555
v 0.116659 0.251639 0.079585
v 0.128416 0.279288 0.082774
v 0.133562 0.308867 0.086543
v 0.132852 0.328844 0.089396
v 0.129088 0.348418 0.092528
v 0.117659 0.375982 0.097351
v 0.106631 0.392656 0.100128
v 0.085632 0.414317 0.102302
v 0.060236 0.430694 0.103232
v 0.041464 0.437968 0.104444
v 0.021773 0.442267 0.105443
v -0.008461 0.442965 0.106280
v -0.038041 0.436653 0.106334
v -0.065489 0.424006 0.105548
v -0.081821 0.412205 0.104452
v -0.102456 0.390242 0.101825
v -0.113146 0.373304 0.099329
v -0.123997 0.345452 0.094813
v -0.127398 0.325824 0.091607
v -0.125925 0.295939 0.087116
v -0.117935 0.266991 0.083479
v -0.108978 0.249041 0.081393
v -0.090248 0.225532 0.078247
v -0.076213 0.212847 0.071533
v 0.127403 -0.308536 0.099496
v 0.131524 -0.314655 0.080941
v 0.131998 -0.322740 0.052111
v 0.120282 -0.335407 0.005217
v 0.098848 -0.347418 -0.038252
v 0.070981 -0.360241 -0.077770
v 0.056703 -0.364831 -0.090761
v 0.036561 -0.366109 -0.093234
v -0.034795 -0.365879 -0.092436
v -0.054987 -0.365048 -0.090221
v -0.064305 -0.363811 -0.086271
v -0.102564 -0.349381 -0.029955
v -0.121919 -0.338950 0.014634
v -0.128583 -0.328594 0.062734
v -0.125675 -0.321929 0.091691
v -0.118639 -0.318396 0.109815
v -0.110027 -0.318159 0.116461
v -0.100234 -0.319189 0.118159
v -0.071017 -0.324817 0.115313
v -0.041223 -0.324463 0.117333
v 0.018277 -0.317732 0.117417
v 0.077181 -0.311705 0.108509
v 0.106561 -0.306633 0.110581
v 0.118433 -0.306426 0.107570
v 0.106304 0.267362 -0.000183
v 0.117608 0.306040 -0.000767
v 0.118295 0.346085 0.002754
v 0.107062 0.384387 0.007985
v 0.096747 0.401548 0.010289
v 0.082454 0.415570 0.012217
v 0.045726 0.431793 0.014779
v -0.004251 0.437361 0.016687
v -0.053786 0.428597 0.017636
v -0.072467 0.420937 0.017360
v -0.088199 0.408475 0.015832
v -0.100111 0.392399 0.013649
v -0.111654 0.364914 0.008641
v -0.116508 0.335552 0.003241
v -0.116010 0.315598 0.000343
v -0.112575 0.295801 -0.001710
v -0.102198 0.267395 -0.002828
v -0.065958 0.207150 0.002124
v -0.048651 0.197158 0.003894
v -0.019019 0.191367 0.004596
v 0.021330 0.191496 0.003802
v 0.050896 0.197394 0.001638
v 0.068048 0.207319 -0.001095
v 0.074477 0.214792 -0.002759
v 0.097529 0.259232 -0.009358
v 0.044452 -0.220388 -0.025266
v 0.055045 -0.217709 -0.035231
v 0.064170 -0.223892 -0.037504
v 0.071103 -0.232599 -0.042481
v 0.077053 -0.272411 -0.040217
v 0.102322 -0.337813 -0.031634
v 0.106161 -0.367065 -0.024620
v 0.104156 -0.395987 -0.015748
v 0.095706 -0.423795 -0.007278
v 0.085764 -0.440810 -0.002914
v 0.059666 -0.455186 0.000785
v 0.030015 -0.461159 0.002000
v -0.020573 -0.460906 0.001255
v -0.050478 -0.456834 -0.000848
v -0.077499 -0.443724 -0.004192
v -0.095394 -0.420057 -0.008236
v -0.105979 -0.382015 -0.016239
v -0.105465 -0.342455 -0.024124
v -0.097604 -0.313407 -0.027605
v -0.078345 -0.266698 -0.029987
v -0.070454 -0.237845 -0.027541
v -0.055048 -0.225231 -0.025518
v -0.025851 -0.218285 -0.023579
v 0.004348 -0.216581 -0.023532
v 0.067975 -0.237772 0.086389
v 0.097501 -0.264112 0.094216
v 0.113199 -0.288883 0.101735
v 0.119901 -0.316807 0.110970
v 0.119749 -0.335900 0.117548
v 0.109648 -0.372654 0.130774
v 0.094646 -0.397502 0.139253
v 0.064427 -0.422377 0.148598
v 0.036439 -0.432980 0.152836
v -0.003458 -0.438029 0.154844
v -0.033086 -0.431928 0.153524
v -0.059854 -0.418676 0.149536
v -0.081846 -0.398765 0.143539
v -0.098901 -0.375063 0.135643
v -0.108474 -0.347918 0.126532
v -0.110091 -0.319307 0.116841
v -0.104768 -0.282696 0.100927
v -0.095184 -0.265892 0.095558
v -0.074867 -0.244664 0.089162
v -0.057952 -0.234218 0.086371
v -0.039122 -0.227350 0.085065
v -0.009491 -0.222004 0.083861
v 0.020594 -0.222207 0.083178
v 0.040242 -0.226262 0.083900
v 0.074636 0.362606 -0.064448
v 0.075196 0.333243 -0.071770
v 0.070197 0.263511 -0.082068
v 0.068812 0.133695 -0.101422
v 0.068650 -0.017500 -0.109613
v 0.068099 -0.108341 -0.107170
v 0.068214 -0.178724 -0.101026
v 0.069731 -0.288023 -0.081330
v 0.078835 -0.356546 -0.066779
v 0.073032 0.251253 0.105987
v 0.087058 0.235822 0.103291
v 0.093552 0.230751 0.096711
v 0.098983 0.228175 0.077767
v 0.097630 0.229440 0.047845
v 0.077042 0.230606 -0.029546
v 0.070522 0.232132 -0.079166
v 0.063514 0.236274 -0.108000
v 0.055014 0.237501 -0.114949
v 0.004865 0.237932 -0.117580
v -0.055392 0.237829 -0.113935
v -0.064582 0.236889 -0.107889
v -0.071472 0.232255 -0.079540
v -0.085152 0.221608 0.048111
v -0.084226 0.219973 0.077736
v -0.077911 0.222742 0.096197
v -0.071969 0.228306 0.103242
v -0.058955 0.244926 0.106038
v -0.090091 0.296392 0.119695
v -0.084363 0.277693 0.114839
v -0.068295 0.252952 0.108511
v -0.044534 0.235108 0.103119
v -0.016504 0.224551 0.099954
v 0.013601 0.223157 0.098922
v 0.033287 0.227093 0.099761
v 0.051751 0.234990 0.101643
v 0.075102 0.253476 0.106494
v 0.091365 0.277975 0.112986
v 0.097393 0.296550 0.117977
v 0.099916 0.315727 0.123408
v 0.097181 0.335012 0.128321
v 0.085894 0.362166 0.135073
v 0.072037 0.376281 0.139002
v 0.055636 0.387558 0.142170
v 0.028112 0.399467 0.145837
v 0.008353 0.402350 0.146815
v -0.021515 0.398372 0.146220
v -0.039818 0.390255 0.144148
v -0.055589 0.378213 0.140615
v -0.067922 0.363033 0.136019
v -0.076557 0.345713 0.130758
v -0.080959 0.327008 0.124956
v -0.080866 0.307749 0.118974
v 0.079042 -0.246177 0.089098
v 0.086173 -0.241534 0.077221
v 0.087563 -0.246587 0.038048
v 0.063693 -0.276958 -0.105655
v 0.055929 -0.278751 -0.113129
v 0.035996 -0.279809 -0.116525
v -0.024937 -0.279983 -0.116703
v -0.055185 -0.279173 -0.113848
v -0.064261 -0.278132 -0.109402
v -0.070703 -0.274092 -0.091017
v -0.088969 -0.252513 0.046073
v -0.061540 -0.205253 -0.048337
v -0.033564 -0.201926 -0.039883
v 0.006107 -0.201000 -0.039431
v 0.045452 -0.203570 -0.043495
v 0.062908 -0.207276 -0.051785
v 0.069044 -0.210784 -0.061169
v 0.070329 -0.215813 -0.079259
v 0.063557 -0.222975 -0.115716
v 0.055925 -0.224441 -0.123404
v 0.036187 -0.225278 -0.127021
v -0.014172 -0.225335 -0.127494
v -0.044327 -0.224622 -0.125725
v -0.063485 -0.223349 -0.120136
v -0.068593 -0.221619 -0.110677
v -0.072068 -0.217449 -0.089602
v -0.069632 -0.208717 -0.058540
v -0.055683 0.121064 -0.054016
v -0.026098 0.120809 -0.049913
v 0.034011 0.122235 -0.051331
v 0.053724 0.122414 -0.054748
v 0.062638 0.122079 -0.061123
v 0.070355 0.121436 -0.081148
v 0.063765 0.125831 -0.123759
v 0.056006 0.126807 -0.131405
v 0.005332 0.127752 -0.136121
v -0.055722 0.127610 -0.131152
v -0.064992 0.126961 -0.124799
v -0.071570 0.123478 -0.087756
v -0.068858 0.122051 -0.069112
v -0.064240 0.121489 -0.060800
l 1 2 3 4 5 6
l 6 7
l 7 8 9 10 11 12 13 14 15 16 17 18 19 20 21 22 23 24 25 26 27 28 29
l 29 30 31 32 33
l 33 34
l 34 35 36 37 38 39
l 39 40 41
l 41 42
l 42 43
l 43 44 45 46 47 48 49 50 51 52 53 54 55 56 57
l 57 58
l 58 59
l 59 1
l 60 61
l 61 62 63 64 65 66 67 68 69 70 71 72 73 74 75
l 75 76
l 76 77 78 79 80 81 82 83 84
l 84 85
l 85 86 87 88 89 90 91 92 93 94 95 96 97 98 99 100 101 102 103 104 105 106 107 108 109 110
l 110 111
l 112 113
l 113 114
l 114 115 116 117 118 119 120 121 122 123 124 125 126 127 128 129
l 130 131 132 133 134 135 136 137 138 139 140 141 142 143 144 145 146 147 148 149 150 151 152 153 154 155 156 157 158 159 160 161 130
l 162 163
l 163 164
l 164 165
l 165 166 167 168 169 170 171 172 173
l 173 174 175
l 175 176 177 178 179 180 181 182 183
l 183 184
l 184 185
l 185 186 187 188 189 190
l 190 162
l 191 192 193 194 195 196 197 198 199 200 201 202 203 204 205 206 207 208 209 210 211 212 213 214 215 216 217 218 219 220 221 222 223
l 224 225 226 227 228 229 230
l 230 231 232 233 234
l 234 235 236 237 238 239
l 239 240
l 240 241 242 243 244 245 246
l 246 247
l 247 224
l 248 249 250 251 252 253 254 255 256 257 258 259 260 261 262 263 264 265 266 267 268 269 270 271 272
l 272 248
l 273 274
l 274 275
l 275 276
l 276 277 278 279 280 281 282 283 284 285 286 287 288 289 290 291 292 293
l 293 294 295 296 273
l 297 298 299 300 301 302 303 304 305 306 307 308 309 310 311 312 313
l 313 314 315 316 317 318 319 320 297
l 321 322 323 324 325 326 327 328 329
l 330 331
l 331 332
l 332 333 334 335 336 337
l 337 338
l 338 339 340
l 340 341
l 341 342 343 344 345
l 345 346
l 346 347
l 348 349 350 351 352 353 354 355 356 357 358 359 360 361 362 363 364 365 366 367 368 369 370 371 372
l 372 348
l 373 374
l 374 375 376
l 376 377
l 377 378 379 380 381
l 381 382 383
l 384 385 386 387 388
l 388 389
l 389 390 391
l 391 392
l 392 393 394 395 396
l 396 397 398 399
l 399 384
l 400 401 402 403
l 403 404
l 404 405 406
l 406 407
l 407 408 409
l 409 410
l 410 411 412 413
l 413 400
