v 0.005224 -0.007645 0.338036
v -0.005024 -0.007645 0.338036
v 0.211300 -0.030629 -0.431825
v 0.208635 0.015920 -0.394064
v 0.208099 0.055343 -0.348760
v 0.208095 0.093792 -0.290172
v 0.208080 0.120194 -0.236206
v 0.208118 0.142667 -0.169834
v 0.208082 0.154474 -0.110931
v 0.208156 0.158829 -0.040992
v 0.208135 0.154448 0.018915
v 0.208358 0.139163 0.087274
v 0.208144 0.104639 0.170461
v 0.208083 0.072361 0.221111
v 0.207709 0.026726 0.274299
v 0.205285 0.014593 0.290029
v 0.198587 0.004520 0.305912
v 0.187174 -0.003549 0.320187
v 0.172322 -0.010140 0.331826
v 0.145009 -0.015287 0.342798
v 0.005226 -0.008003 0.343973
v 0.000100 0.167103 0.120601
v 0.000100 0.170756 0.161322
v 0.000100 0.167217 0.181482
v 0.000100 0.159753 0.200541
v 0.000100 0.148597 0.217714
v 0.000100 0.134203 0.232265
v 0.000100 0.117213 0.243695
v 0.000100 0.097680 0.249281
v 0.231299 -0.063801 -0.376887
v 0.231218 -0.027045 -0.343306
v 0.231209 0.016378 -0.288479
v 0.231206 0.046585 -0.236682
v 0.231201 0.072657 -0.171790
v 0.231200 0.086543 -0.113463
v 0.231200 0.092085 -0.053765
v 0.231196 0.088818 0.006096
v 0.231194 0.076524 0.064769
v 0.231203 0.055145 0.120766
v 0.231207 0.030596 0.164286
v 0.230261 -0.038646 0.249527
v 0.223013 -0.053720 0.274333
v 0.213336 -0.062460 0.289483
v 0.185807 -0.076810 0.314342
v 0.149819 -0.085207 0.329086
v 0.120112 -0.087036 0.332051
v 0.010102 -0.087074 0.332117
v -0.139846 -0.086300 0.330791
v -0.177245 -0.079552 0.319085
v -0.207273 -0.066511 0.296493
v -0.222813 -0.053720 0.274333
v -0.230061 -0.038646 0.249527
v -0.231007 0.030596 0.164286
v -0.231002 0.050718 0.129733
v -0.231001 0.070408 0.083809
v -0.230996 0.085729 0.025856
v -0.230996 0.091982 -0.033765
v -0.231004 0.089349 -0.093660
v -0.230999 0.075526 -0.162209
v -0.231002 0.055083 -0.218577
v -0.231007 0.021892 -0.280136
v -0.231018 -0.020340 -0.335886
v -0.231099 -0.063801 -0.376887
v 0.225789 -0.063586 -0.378232
v 0.225791 -0.027425 -0.343618
v 0.225791 0.004550 -0.305083
v 0.225791 0.037087 -0.254584
v 0.225791 0.058870 -0.209505
v 0.225792 0.078094 -0.152593
v 0.225791 0.087985 -0.103512
v 0.225792 0.091994 -0.053606
v 0.225792 0.089867 -0.003587
v 0.225793 0.076308 0.065120
v 0.225791 0.050402 0.130176
v 0.225791 0.018714 0.181185
v 0.225539 -0.033271 0.242124
v 0.220071 -0.049334 0.266779
v 0.206372 -0.062656 0.289828
v 0.177393 -0.076305 0.313472
v 0.140267 -0.083486 0.325901
v 0.100274 -0.084362 0.327413
v -0.140067 -0.083486 0.325901
v -0.168476 -0.078769 0.317739
v -0.193034 -0.070196 0.302896
v -0.206172 -0.062656 0.289828
v -0.219871 -0.049334 0.266779
v -0.225339 -0.033271 0.242124
v -0.225593 0.024576 0.173060
v -0.225592 0.059055 0.112105
v -0.225589 0.083762 0.036009
v -0.225591 0.090793 -0.013563
v -0.225592 0.091994 -0.053606
v -0.225592 0.089276 -0.093577
v -0.225591 0.080533 -0.142876
v -0.225590 0.069445 -0.181375
v -0.225589 0.050832 -0.227860
v -0.225591 0.026978 -0.271884
v -0.225591 -0.001513 -0.313060
v -0.225592 -0.034310 -0.350897
v -0.225589 -0.063586 -0.378232
v -0.119749 -0.094936 -0.486744
v -0.122808 -0.045190 -0.485318
v -0.125218 -0.026032 -0.480241
v -0.126930 0.000373 -0.466307
v -0.127710 0.057902 -0.410922
v -0.126997 0.107081 -0.347895
v -0.126936 0.146776 -0.278499
v -0.126929 0.176113 -0.204133
v -0.126954 0.192636 -0.136148
v -0.127154 0.200412 -0.056591
v -0.127035 0.195899 0.023211
v -0.127321 0.178728 0.101266
v -0.125113 0.172647 0.120128
v -0.133569 0.144513 0.183564
v -0.132888 0.129758 0.209660
v -0.127667 0.108006 0.242798
v -0.118558 0.070504 0.288620
v -0.118302 0.042089 0.316736
v -0.119389 0.017745 0.334107
v -0.119603 -0.000742 0.341667
v -0.120692 -0.030220 0.346544
v -0.119303 -0.050093 0.345205
v -0.121448 -0.078602 0.336440
v 0.231217 -0.094933 -0.378232
v 0.229587 -0.094961 0.222786
v 0.222132 -0.094970 0.251840
v 0.213731 -0.094978 0.270008
v 0.188868 -0.095018 0.301189
v 0.154715 -0.095011 0.321665
v 0.135300 -0.095034 0.326431
v 0.105291 -0.094943 0.327577
v -0.115108 -0.094956 0.327553
v -0.144941 -0.094935 0.324587
v -0.163760 -0.095038 0.317821
v -0.188668 -0.095018 0.301189
v -0.202407 -0.094985 0.286645
v -0.218063 -0.094975 0.261076
v -0.227578 -0.094964 0.232637
v -0.230924 -0.094950 0.202822
v -0.231017 -0.094933 -0.378232
v -0.231017 -0.094936 0.066652
v -0.130142 -0.094936 0.065559
v 0.000100 -0.094936 0.050598
v 0.130342 -0.094936 0.065559
v 0.231217 -0.094936 0.066652
v 0.230736 -0.058297 -0.385968
v 0.230805 -0.015028 -0.344148
v 0.230805 0.022170 -0.296789
v 0.230806 0.057427 -0.236041
v 0.230806 0.079915 -0.180180
v 0.230805 0.094687 -0.121804
v 0.230806 0.101288 -0.061956
v 0.230806 0.099218 -0.001782
v 0.230805 0.088368 0.057437
v 0.230810 0.064343 0.123394
v 0.230804 0.039926 0.167236
v 0.230806 0.016377 0.199757
v 0.229948 -0.029567 0.252848
v 0.226098 -0.040204 0.269396
v 0.213559 -0.053801 0.293049
v 0.186204 -0.068236 0.318311
v 0.150216 -0.076806 0.333337
v 0.120366 -0.078609 0.336452
v 0.029974 -0.078627 0.336510
v 0.010186 -0.076111 0.337597
v 0.225323 -0.058927 -0.385099
v 0.225393 -0.015664 -0.344180
v 0.225394 0.021271 -0.297318
v 0.225380 0.056664 -0.237377
v 0.225393 0.075610 -0.191388
v 0.225393 0.091844 -0.133978
v 0.225393 0.100137 -0.074899
v 0.225394 0.100045 -0.015244
v 0.225385 0.091499 0.043792
v 0.225391 0.073794 0.100747
v 0.225393 0.042276 0.162765
v 0.225393 0.019376 0.195301
v 0.225001 -0.026407 0.247726
v 0.222185 -0.037457 0.263988
v 0.210882 -0.051309 0.287754
v 0.184526 -0.065940 0.313353
v 0.149005 -0.074555 0.328443
v 0.119449 -0.076332 0.331549
v 0.029890 -0.076316 0.331602
v 0.010315 -0.073625 0.332804
v -0.005024 0.092224 0.263774
v -0.022617 0.097693 0.256900
v -0.032731 0.107787 0.243554
v -0.034206 0.139738 0.193402
v -0.032269 0.165369 0.139784
v -0.022293 0.171412 0.124064
v -0.004830 0.174334 0.115754
v 0.005031 0.174334 0.115754
v 0.022494 0.171412 0.124064
v 0.028676 0.168726 0.131264
v 0.034015 0.161595 0.148825
v 0.034407 0.134857 0.202056
v 0.032931 0.107787 0.243554
v 0.022817 0.097693 0.256900
v 0.005224 0.092224 0.263774
v -0.005026 -0.008003 0.343973
v -0.144809 -0.015287 0.342798
v -0.172121 -0.010140 0.331826
v -0.186974 -0.003549 0.320187
v -0.198387 0.004520 0.305911
v -0.205085 0.014594 0.290029
v -0.207509 0.026726 0.274299
v -0.207882 0.072361 0.221111
v -0.207943 0.104639 0.170461
v -0.208158 0.139163 0.087274
v -0.207935 0.154448 0.018915
v -0.207956 0.158829 -0.040992
v -0.207882 0.154474 -0.110931
v -0.207918 0.142667 -0.169835
v -0.207880 0.120194 -0.236206
v -0.207895 0.093792 -0.290172
v -0.207899 0.055343 -0.348761
v -0.208435 0.015920 -0.394064
v -0.211100 -0.030629 -0.431825
v 0.225393 -0.094936 -0.387496
v 0.224790 -0.094936 0.201606
v 0.219049 -0.094937 0.241005
v 0.207129 -0.094937 0.268400
v 0.188727 -0.094937 0.291925
v 0.173231 -0.094937 0.304470
v 0.155570 -0.094937 0.313709
v 0.126513 -0.094942 0.320513
v -0.123087 -0.094943 0.320773
v -0.152340 -0.094937 0.314850
v -0.170300 -0.094937 0.306203
v -0.193206 -0.094937 0.287065
v -0.210223 -0.094937 0.262511
v -0.220620 -0.094937 0.234494
v -0.224490 -0.094936 0.204841
v -0.225331 -0.094936 -0.384263
v -0.217695 -0.094936 -0.413124
v -0.208990 -0.094936 -0.431064
v -0.182060 -0.094936 -0.460198
v -0.164859 -0.094936 -0.470276
v -0.136238 -0.094936 -0.478768
v 0.133231 -0.094936 -0.479210
v 0.171099 -0.094936 -0.467269
v 0.194952 -0.094936 -0.449325
v 0.212495 -0.094936 -0.425182
v 0.000100 0.043641 0.307879
v 0.000100 0.011448 0.331093
v 0.000100 -0.007246 0.337938
v 0.000100 -0.036902 0.341072
v 0.000100 -0.066213 0.335614
v 0.000100 -0.084362 0.327413
v 0.128009 -0.078477 0.336222
v 0.127296 -0.076223 0.331354
v 0.224784 -0.028169 0.100226
v 0.222887 0.019652 0.108748
v 0.225309 0.038512 0.112862
v 0.231202 0.055822 0.119367
v -0.136474 -0.094937 0.197251
v -0.110056 -0.094937 0.182759
v -0.080337 -0.094937 0.178866
v 0.000100 -0.094937 0.183075
v 0.090617 -0.094937 0.178888
v 0.110256 -0.094937 0.182759
v 0.136674 -0.094937 0.197251
v -0.010115 -0.073625 0.332804
v -0.029690 -0.076316 0.331602
v -0.119249 -0.076332 0.331549
v -0.148805 -0.074555 0.328443
v -0.184326 -0.065940 0.313353
v -0.210682 -0.051309 0.287754
v -0.221985 -0.037457 0.263988
v -0.224801 -0.026407 0.247726
v -0.225193 0.019376 0.195301
v -0.225193 0.042276 0.162765
v -0.225191 0.073794 0.100747
v -0.225185 0.091499 0.043792
v -0.225194 0.100045 -0.015244
v -0.225193 0.100137 -0.074899
v -0.225193 0.091844 -0.133978
v -0.225193 0.075610 -0.191388
v -0.225180 0.056664 -0.237377
v -0.225194 0.021271 -0.297318
v -0.225193 -0.015664 -0.344180
v -0.225123 -0.058927 -0.385099
v 0.000100 -0.094940 0.327577
v 0.000100 -0.094936 -0.486818
v 0.123120 -0.094997 0.327426
v 0.118897 -0.094940 0.257679
v 0.110691 -0.094939 0.218730
v 0.125645 -0.094937 0.182269
v 0.126278 -0.094937 0.172314
v 0.122329 -0.094936 -0.396760
v 0.126209 -0.094937 -0.486539
v 0.230809 0.064176 0.123765
v 0.224046 0.090907 0.135203
v 0.209708 0.114700 0.146087
v 0.196483 0.128291 0.152203
v 0.171983 0.143701 0.159483
v 0.133950 0.154192 0.163731
v 0.034393 0.152356 0.169082
v 0.231195 -0.094942 0.198113
v 0.232482 -0.044578 0.193876
v 0.231217 -0.010950 0.216683
v 0.005224 0.043958 0.314916
v 0.005222 0.010790 0.337286
v 0.005226 -0.008131 0.343993
v 0.005225 -0.038133 0.346305
v 0.005940 -0.067586 0.340730
v -0.116744 -0.094960 0.327546
v -0.112759 -0.094940 0.259310
v -0.104186 -0.094939 0.221252
v -0.106839 -0.094939 0.201989
v -0.033468 0.109604 0.241051
v -0.083072 0.105110 0.247175
v -0.133243 0.103803 0.247897
v -0.171109 0.092263 0.244865
v -0.195847 0.078496 0.234819
v -0.209261 0.066444 0.226036
v -0.223766 0.045467 0.210188
v -0.230605 0.021851 0.192924
v 0.230808 -0.002444 0.221074
v 0.224159 0.020110 0.239345
v 0.209960 0.039863 0.256513
v 0.189192 0.056199 0.270222
v 0.163448 0.068153 0.279219
v 0.124659 0.073802 0.284873
v 0.005224 0.071637 0.287308
v -0.009986 -0.076111 0.337597
v -0.029774 -0.078627 0.336510
v -0.120166 -0.078609 0.336452
v -0.150016 -0.076806 0.333337
v -0.186003 -0.068236 0.318311
v -0.213359 -0.053801 0.293049
v -0.225898 -0.040204 0.269396
v -0.229748 -0.029567 0.252848
v -0.230606 0.016377 0.199757
v -0.230604 0.039926 0.167236
v -0.230610 0.064343 0.123394
v -0.230605 0.088368 0.057437
v -0.230606 0.099218 -0.001782
v -0.230606 0.101288 -0.061956
v -0.230605 0.094687 -0.121804
v -0.230606 0.079915 -0.180180
v -0.230606 0.057427 -0.236041
v -0.230605 0.022170 -0.296789
v -0.230605 -0.015028 -0.344148
v -0.230536 -0.058297 -0.385968
v -0.005024 0.088015 0.260345
v -0.005024 0.039042 0.312064
v -0.005027 0.004895 0.333849
v -0.005025 -0.014666 0.339362
v -0.005025 -0.034939 0.340931
v -0.006027 -0.064878 0.335923
v -0.214669 -0.094938 -0.434990
v -0.172452 -0.094936 -0.408565
v -0.153467 -0.094936 -0.402980
v -0.114473 -0.094936 -0.410544
v -0.064678 -0.094936 -0.411644
v 0.104736 -0.094936 -0.411263
v 0.153667 -0.094936 -0.402980
v 0.172652 -0.094936 -0.408565
v 0.214869 -0.094938 -0.434990
v 0.000100 -0.054704 -0.486396
v 0.000100 -0.034896 -0.483068
v 0.000100 -0.016023 -0.476163
v 0.000100 0.009058 -0.459536
v 0.000100 0.052313 -0.417469
v 0.000100 0.090885 -0.371074
v 0.000100 0.124376 -0.320886
v 0.000100 0.152226 -0.267363
v 0.000100 0.170899 -0.220671
v 0.000100 0.185206 -0.172463
v 0.000100 0.194985 -0.123137
v 0.000100 0.200050 -0.073108
v 0.000100 0.200293 -0.022825
v 0.000100 0.195589 0.027240
v 0.000100 0.185884 0.076577
v 0.000100 0.174536 0.115177
v -0.113676 -0.094937 0.194633
v -0.120258 -0.094937 0.175927
v -0.116654 -0.094936 -0.396411
v 0.126879 -0.064013 -0.486654
v 0.134313 -0.034467 -0.482335
v -0.231016 -0.094936 0.166785
v -0.151523 -0.094937 0.165234
v -0.044581 -0.094936 0.144480
v 0.044781 -0.094936 0.144480
v 0.151723 -0.094937 0.165234
v 0.231216 -0.094936 0.166785
v 0.201165 -0.001515 -0.423554
v 0.186164 0.009029 -0.431763
v 0.168734 0.016041 -0.439115
v 0.129860 0.023182 -0.446218
v -0.082274 0.024441 -0.445576
v -0.142732 0.021937 -0.445063
v -0.180106 0.011617 -0.434599
v -0.203044 -0.002893 -0.421715
v -0.223766 -0.021703 -0.392926
v -0.230606 -0.039390 -0.369420
v -0.230602 -0.094936 -0.387734
v -0.223647 -0.094938 -0.416645
v -0.214960 -0.094938 -0.434484
v -0.188602 -0.094938 -0.463920
v -0.153447 -0.094938 -0.481963
v -0.104225 -0.094936 -0.486818
v 0.114361 -0.094936 -0.486801
v 0.153647 -0.094938 -0.481963
v 0.180672 -0.094938 -0.469625
v 0.203361 -0.094939 -0.450439
v 0.219897 -0.094938 -0.425755
v 0.230802 -0.094936 -0.387734
v 0.005224 0.088015 0.260345
v 0.005224 0.039042 0.312064
v 0.005227 0.004895 0.333849
v 0.005225 -0.014666 0.339362
v 0.005225 -0.034939 0.340931
v 0.006227 -0.064878 0.335923
v 0.133562 -0.015880 -0.475421
v 0.134713 0.001082 -0.465026
v 0.134199 0.058426 -0.409821
v 0.133455 0.107368 -0.346853
v 0.133391 0.142455 -0.286513
v 0.133379 0.169739 -0.222268
v 0.133439 0.188615 -0.155073
v 0.133541 0.198612 -0.085998
v 0.133450 0.199363 -0.016213
v 0.133558 0.188534 0.062788
v 0.134332 0.168614 0.129653
v 0.138667 0.152484 0.165882
v 0.139811 0.133749 0.201059
v 0.130377 0.095706 0.258706
v 0.124425 0.056247 0.303141
v 0.127255 0.034322 0.323201
v 0.126194 0.008607 0.338288
v 0.126479 -0.010421 0.344169
v 0.126912 -0.040171 0.346298
v 0.034406 0.147133 0.167655
v 0.024176 0.146736 0.168347
v -0.034193 0.152356 0.169082
v -0.133750 0.154192 0.163731
v -0.171783 0.143701 0.159483
v -0.196283 0.128291 0.152203
v -0.209508 0.114700 0.146087
v -0.223846 0.090907 0.135203
v -0.230609 0.064176 0.123765
v 0.230805 0.021851 0.192924
v 0.223966 0.045467 0.210188
v 0.209461 0.066444 0.226035
v 0.196048 0.078496 0.234819
v 0.171310 0.092263 0.244865
v 0.133443 0.103803 0.247897
v 0.083273 0.105109 0.247175
v 0.033669 0.109604 0.241051
v -0.231017 -0.094933 -0.340658
v -0.030055 -0.094936 -0.342733
v 0.231217 -0.094933 -0.340658
v -0.022748 0.093735 0.253142
v -0.033195 0.103922 0.239645
v -0.034206 0.126188 0.206086
v -0.034468 0.149945 0.161638
v -0.033292 0.158154 0.143280
v -0.026276 0.164744 0.125722
v -0.018864 0.167223 0.119596
v 0.000100 0.169633 0.113650
v -0.224584 -0.028169 0.100226
v -0.226091 -0.057415 0.074568
v -0.228316 -0.075607 0.067972
v -0.005024 0.071637 0.287308
v -0.124459 0.073802 0.284873
v -0.163248 0.068153 0.279219
v -0.188992 0.056199 0.270222
v -0.209760 0.039863 0.256513
v -0.223959 0.020110 0.239345
v -0.230608 -0.002444 0.221074
v 0.230967 -0.068486 -0.340728
v 0.231219 -0.045264 -0.361962
v 0.019065 0.167223 0.119596
v 0.026477 0.164744 0.125723
v 0.033493 0.158154 0.143281
v 0.034669 0.149945 0.161638
v 0.034406 0.126188 0.206087
v 0.033395 0.103922 0.239645
v 0.022948 0.093735 0.253142
v -0.231017 -0.010950 0.216683
v -0.232282 -0.044578 0.193876
v -0.230995 -0.094942 0.198113
v 0.004322 0.167523 0.122177
v -0.225592 -0.045430 -0.362027
v -0.231019 -0.045264 -0.361962
v 0.225789 -0.094936 -0.378232
v 0.125655 -0.084226 0.327187
v 0.225792 -0.045430 -0.362027
v -0.004122 0.167523 0.122177
v 0.214082 -0.051719 -0.435429
v -0.230767 -0.068486 -0.340728
v 0.225393 0.021169 0.193037
v -0.005024 0.067544 0.283794
v 0.014831 0.164733 0.126763
v 0.019936 0.161652 0.134962
v 0.023963 0.153762 0.153089
v 0.023992 0.114700 0.224194
v 0.020254 0.103715 0.240683
v 0.013647 0.099664 0.246719
v 0.004116 0.097425 0.249275
v 0.225393 -0.039456 -0.368883
v -0.231009 0.013476 0.188228
v -0.228890 -0.003732 0.176612
v -0.230033 -0.032764 0.165081
v -0.231587 -0.053389 0.162839
v -0.225589 -0.094936 -0.378232
v 0.225793 0.013548 0.188029
v 0.005224 0.067544 0.283794
v 0.225791 -0.010642 0.216308
v 0.230806 -0.039390 -0.369420
v 0.231209 0.013476 0.188228
v 0.033767 0.104848 0.238376
v -0.003916 0.097425 0.249275
v -0.013447 0.099664 0.246719
v -0.020054 0.103715 0.240683
v -0.023792 0.114700 0.224194
v -0.023763 0.153762 0.153089
v -0.019736 0.161652 0.134962
v -0.014631 0.164733 0.126763
v 0.016307 0.112233 0.242390
v 0.005712 0.114682 0.244753
v -0.016107 0.112233 0.242390
v -0.005024 0.043958 0.314916
v -0.005022 0.010790 0.337286
v -0.005026 -0.008131 0.343993
v -0.005025 -0.038133 0.346305
v -0.005740 -0.067586 0.340730
v 0.023092 0.155561 0.172204
v 0.018270 0.163433 0.174951
v 0.000100 0.168522 0.176629
v -0.018070 0.163433 0.174951
v -0.022891 0.155561 0.172204
v -0.023976 0.146736 0.168347
v 0.000100 -0.087078 0.332115
v 0.225393 0.063718 0.123694
v -0.225193 -0.094936 -0.387496
v -0.225193 0.063718 0.123694
v -0.225195 -0.003196 0.221532
v 0.225791 0.055648 0.119544
v 0.021704 0.105611 0.237753
v 0.124741 -0.086984 0.331969
v -0.225591 -0.010642 0.216308
v -0.225193 -0.039456 -0.368883
v -0.213881 -0.051719 -0.435429
v 0.228516 -0.075607 0.067972
v 0.226291 -0.057415 0.074568
v 0.231787 -0.053389 0.162839
v 0.230233 -0.032764 0.165081
v 0.229090 -0.003732 0.176612
v -0.231002 0.055822 0.119367
v -0.225109 0.038512 0.112862
v -0.222687 0.019652 0.108748
v -0.033567 0.104848 0.238376
v -0.225593 0.013548 0.188029
v -0.021504 0.105611 0.237753
v -0.225193 0.021169 0.193037
v -0.034206 0.147133 0.167655
v -0.225591 0.055648 0.119544
v 0.225395 -0.003196 0.221532
v -0.119277 -0.084326 0.327356
v -0.118256 -0.087055 0.332081
v 0.223487 -0.021031 -0.393966
v 0.214073 -0.011084 -0.409957
v -0.120922 -0.076326 0.331538
l 1 2
l 3 4 5 6 7 8 9 10 11 12 13 14 15 16 17 18 19 20 21
l 22 23 24 25 26 27 28 29
l 30 31 32 33 34 35 36 37 38 39 40 41 42 43 44 45 46 47 48 49 50 51 52 53 54 55 56 57 58 59 60 61 62 63
l 64 65 66 67 68 69 70 71 72 73 74 75 76 77 78 79 80 81 82 83 84 85 86 87 88 89 90 91 92 93 94 95 96 97 98 99 100
l 101 102 103 104 105 106 107 108 109 110 111 112 113 114 115 116 117 118 119 120 121 122 123
l 124 125 126 127 128 129 130 131 132 133 134 135 136 137 138 139 140
l 141 142 143 144 145
l 146 147 148 149 150 151 152 153 154 155 156 157 158 159 160 161 162 163 164 165
l 166 167 168 169 170 171 172 173 174 175 176 177 178 179 180 181 182 183 184 185
l 186 187 188 189 190 191 192 193 194 195 196 197 198 199 200
l 201 202 203 204 205 206 207 208 209 210 211 212 213 214 215 216 217 218 219
l 220 221 222 223 224 225 226 227 228 229 230 231 232 233 234 235 236 237 238 239 240 241 242 243 244 220
l 29 245 246 247 248 249 250
l 251 252
l 253 254 255 256
l 257 258 259 260 261 262 263
l 264 265 266 267 268 269 270 271 272 273 274 275 276 277 278 279 280 281 282 283
l 284 285
l 286 287 288 289 290 291 292
l 293 294 295 296 297 298 299
l 300 301 302
l 200 303 304 305 306 307 165
l 308 309 310 311
l 312 313 314 315 316 317 318 319
l 320 321 322 323 324 325 326
l 327 328 329 330 331 332 333 334 335 336 337 338 339 340 341 342 343 344 345 346
l 347 348 349 350 351 352 264
l 353 354 355 356 357 358 359 360 361
l 285 362 363 364 365 366 367 368 369 370 371 372 373 374 375 376 377
l 311 378 379 380 101
l 292 381 382
l 383 384 385 386 387 388
l 389 390 391 392 393 394 395 396 397 398
l 399 400 401 402 403 404 405 406 407 408 409 410
l 411 412 413 414 415 416 185
l 382 417 418 419 420 421 422 423 424 425 426 427 428 429 430 431 432 433 434 435 251
l 436 437
l 438 439 440 441 442 443 444
l 445 446 447 448 449 450 451 452
l 453 454 455
l 347 456 457 458 459 460 461 462 463
l 464 465 466 141
l 467 468 469 470 471 472 473
l 474 475
l 463 476 477 478 479 480 481 482 411
l 483 484 485
l 22 486
l 487 488
l 489 64
l 2 201
l 252 490
l 299 436
l 475 491
l 492 22
l 361 493 3
l 488 494
l 495 445
l 63 100
l 496 467
l 497 498 499 500 501 502 503
l 491 504
l 505 506 507 508 383
l 100 509
l 510 495
l 511 496
l 302 512
l 504 513
l 486 497
l 494 453
l 514 510
l 452 515
l 516 517 518 519 520 521 522
l 263 300
l 523 524 525
l 186 526 527 528 529 530 327
l 437 531 532 533 534 535 536
l 377 463
l 537 284
l 538 293
l 283 539
l 347 186
l 444 540
l 455 474
l 473 541
l 250 537
l 542 538
l 543 523
l 64 30
l 490 544
l 541 545
l 522 492
l 256 542
l 515 543
l 398 546
l 124 30
l 399 539
l 544 286
l 219 547 353
l 545 483
l 546 487
l 185 165
l 145 548 549 253
l 485 257
l 346 399
l 388 550 551 552 514
l 553 554 555 464
l 556 312
l 557 505
l 140 509
l 558 556
l 559 557
l 410 146
l 264 327
l 21 1
l 525 558
l 319 559
l 560 438
l 220 410
l 561 553
l 536 560
l 200 411
l 540 561
l 512 562
l 563 564
l 220 166
l 513 565 566 389
l 326 511
l 63 140
l 562 320
l 564 308
l 123 567
l 463 22
l 489 124
l 567 563
l 503 516
