v 0.000000 0.012393 -0.125026
v -0.019864 0.012393 -0.123069
v -0.048645 0.012393 -0.115165
v -0.066248 0.012393 -0.105757
v -0.089660 0.012393 -0.087251
v -0.102322 0.012393 -0.071822
v -0.116656 0.012393 -0.045652
v -0.122450 0.012393 -0.026552
v -0.125435 0.012393 0.003137
v -0.123478 0.012393 0.022999
v -0.114643 0.012393 0.051499
v -0.105233 0.012393 0.069101
v -0.085976 0.012393 0.091896
v -0.070547 0.012393 0.104557
v -0.043917 0.012393 0.118034
v -0.004966 0.012393 0.125843
v 0.024817 0.012393 0.123827
v 0.043917 0.012393 0.118034
v 0.070547 0.012393 0.104558
v 0.085975 0.012393 0.091896
v 0.105234 0.012393 0.069101
v 0.114642 0.012393 0.051499
v 0.123478 0.012393 0.023000
v 0.125435 0.012393 0.003137
v 0.122450 0.012393 -0.026552
v 0.116656 0.012393 -0.045652
v 0.102322 0.012393 -0.071822
v 0.089660 0.012393 -0.087251
v 0.066248 0.012393 -0.105756
v 0.048645 0.012393 -0.115165
v 0.019864 0.012393 -0.123069
v 0.000000 -0.175698 -0.225563
v -0.039781 -0.175698 -0.221644
v -0.087671 -0.175698 -0.207755
v -0.122925 -0.175698 -0.188911
v -0.161544 -0.175698 -0.157375
v -0.186903 -0.175698 -0.126474
v -0.210084 -0.175698 -0.082329
v -0.221688 -0.175698 -0.044077
v -0.225726 -0.175698 -0.004319
v -0.221688 -0.175698 0.045384
v -0.210084 -0.175698 0.083636
v -0.186903 -0.175698 0.127780
v -0.161544 -0.175698 0.158682
v -0.122925 -0.175698 0.190217
v -0.087671 -0.175698 0.209060
v -0.039782 -0.175698 0.222951
v 0.000000 -0.175698 0.226870
v 0.039781 -0.175698 0.222951
v 0.087671 -0.175698 0.209061
v 0.122924 -0.175698 0.190217
v 0.161545 -0.175698 0.158681
v 0.186903 -0.175698 0.127780
v 0.210084 -0.175698 0.083636
v 0.221688 -0.175698 0.045384
v 0.225726 -0.175698 0.005626
v 0.221688 -0.175698 -0.044077
v 0.210084 -0.175698 -0.082329
v 0.186903 -0.175698 -0.126474
v 0.161545 -0.175698 -0.157374
v 0.122925 -0.175698 -0.188911
v 0.087671 -0.175698 -0.207754
v 0.039781 -0.175698 -0.221644
v 0.000000 0.367221 -0.125026
v -0.019864 0.367221 -0.123069
v -0.048645 0.367221 -0.115165
v -0.066248 0.367221 -0.105757
v -0.089660 0.367221 -0.087251
v -0.102322 0.367221 -0.071822
v -0.116656 0.367221 -0.045652
v -0.122450 0.367221 -0.026552
v -0.125435 0.367221 0.003137
v -0.123478 0.367221 0.022999
v -0.114643 0.367221 0.051499
v -0.105233 0.367221 0.069101
v -0.085976 0.367221 0.091896
v -0.070547 0.367221 0.104557
v -0.043917 0.367221 0.118034
v -0.004966 0.367221 0.125843
v 0.024817 0.367221 0.123827
v 0.043917 0.367221 0.118034
v 0.070547 0.367221 0.104558
v 0.085975 0.367221 0.091896
v 0.105234 0.367221 0.069101
v 0.114642 0.367221 0.051499
v 0.123478 0.367221 0.023000
v 0.125435 0.367221 0.003137
v 0.122450 0.367221 -0.026552
v 0.116656 0.367221 -0.045652
v 0.102322 0.367221 -0.071822
v 0.089660 0.367221 -0.087251
v 0.066248 0.367221 -0.105756
v 0.048645 0.367221 -0.115165
v 0.019864 0.367221 -0.123069
v 0.000000 -0.020210 -0.162976
v 0.000000 -0.051380 -0.188165
v 0.000000 -0.086749 -0.207070
v 0.000000 -0.134636 -0.221518
v 0.000000 -0.174547 -0.225450
v 0.000000 -0.224259 -0.219872
v 0.000000 -0.262608 -0.208161
v 0.000000 -0.297977 -0.189256
v 0.000000 -0.336881 -0.157816
v 0.000000 -0.362322 -0.126814
v 0.000000 -0.385703 -0.082595
v 0.000000 -0.397343 -0.044217
v 0.000000 -0.401423 -0.004335
v 0.000000 -0.397343 0.045524
v 0.000000 -0.385703 0.083901
v 0.000000 -0.362322 0.128121
v 0.000000 -0.336881 0.159122
v 0.000000 -0.306146 0.184831
v 0.000000 -0.262608 0.209468
v 0.000000 -0.224259 0.221179
v 0.000000 -0.184525 0.226000
v 0.000000 -0.124924 0.220508
v 0.000000 -0.086749 0.208377
v 0.000000 -0.051380 0.189472
v 0.000000 -0.013048 0.157335
v 0.000000 0.012393 0.126333
v 0.000000 0.367221 0.126333
v -0.125679 0.012393 0.000653
v -0.125679 0.367221 0.000653
v 0.125679 0.367221 0.000653
v 0.125679 0.012393 0.000653
v 0.163630 -0.020210 0.000653
v 0.188819 -0.051380 0.000653
v 0.207724 -0.086749 0.000653
v 0.222172 -0.134636 0.000653
v 0.226103 -0.174547 0.000653
v 0.220526 -0.224259 0.000653
v 0.208814 -0.262608 0.000653
v 0.189909 -0.297977 0.000653
v 0.158469 -0.336881 0.000653
v 0.127467 -0.362322 0.000653
v 0.083248 -0.385703 0.000653
v 0.044871 -0.397343 0.000653
v 0.004988 -0.401423 0.000653
v -0.044871 -0.397343 0.000653
v -0.083248 -0.385703 0.000653
v -0.127467 -0.362322 0.000653
v -0.158469 -0.336881 0.000653
v -0.184177 -0.306146 0.000653
v -0.208814 -0.262608 0.000653
v -0.220526 -0.224259 0.000653
v -0.225347 -0.184525 0.000653
v -0.219854 -0.124924 0.000653
v -0.207724 -0.086749 0.000653
v -0.188819 -0.051380 0.000653
v -0.156681 -0.013048 0.000653
l 1 2 3 4 5 6 7 8 9 10 11 12 13 14 15 16 17 18 19 20 21 22 23 24 25 26 27 28 29 30 31 1
l 32 33 34 35 36 37 38 39 40 41 42 43 44 45 46 47 48 49 50 51 52 53 54 55 56 57 58 59 60 61 62 63 32
l 64 65 66 67 68 69 70 71 72 73 74 75 76 77 78 79 80 81 82 83 84 85 86 87 88 89 90 91 92 93 94 64
l 1 95 96 97 98 99 100 101 102 103 104 105 106 107 108 109 110 111 112 113 114 115 116 117 118 119 120
l 120 121
l 121 64
l 64 1
l 122 123
l 123 124
l 124 125
l 125 126 127 128 129 130 131 132 133 134 135 136 137 138 139 140 141 142 143 144 145 146 147 148 149 150 122
