v 0.052880 -0.156698 -0.367592
v 0.054625 -0.130336 -0.381433
v 0.056251 -0.091306 -0.389509
v 0.061924 0.058394 -0.392042
v 0.064864 0.057377 -0.402641
v 0.065404 0.079389 -0.402190
v 0.064409 0.089393 -0.398040
v 0.063268 0.092078 -0.393309
v 0.060587 0.091744 -0.382457
v 0.059393 0.088906 -0.377915
v 0.057636 0.069877 -0.373432
v 0.052917 -0.030303 -0.373305
v 0.050853 -0.070041 -0.368924
v 0.049402 -0.097142 -0.356474
v 0.048539 -0.114980 -0.332707
v 0.048315 -0.123373 -0.303880
v 0.048279 -0.128254 -0.254021
v 0.048276 -0.128781 0.147153
v 0.048292 -0.127456 0.197274
v 0.048348 -0.122622 0.237072
v 0.048699 -0.112025 0.275698
v 0.049460 -0.097490 0.301935
v 0.050641 -0.077400 0.324224
v 0.052410 -0.045373 0.348225
v 0.058234 0.079099 0.412815
v 0.060762 0.091946 0.427297
v 0.062791 0.092069 0.436985
v 0.063723 0.089349 0.441334
v 0.064572 0.079221 0.445110
v 0.064987 0.057318 0.444922
v 0.060865 0.055760 0.420977
v 0.054512 -0.101290 0.353321
v 0.052791 -0.135202 0.331773
v 0.051374 -0.156698 0.310691
v -0.053345 -0.156698 -0.367592
v -0.055090 -0.130336 -0.381433
v -0.056717 -0.091306 -0.389508
v -0.062389 0.058394 -0.392042
v -0.065329 0.057377 -0.402641
v -0.065869 0.079389 -0.402190
v -0.064875 0.089393 -0.398040
v -0.063733 0.092078 -0.393309
v -0.061052 0.091744 -0.382457
v -0.059858 0.088906 -0.377915
v -0.058102 0.069877 -0.373432
v -0.053382 -0.030303 -0.373305
v -0.051319 -0.070041 -0.368924
v -0.049868 -0.097142 -0.356474
v -0.049004 -0.114980 -0.332707
v -0.048781 -0.123373 -0.303880
v -0.048745 -0.128254 -0.254021
v -0.048742 -0.128781 0.147153
v -0.048758 -0.127456 0.197274
v -0.048813 -0.122622 0.237072
v -0.049164 -0.112025 0.275698
v -0.049926 -0.097490 0.301935
v -0.051106 -0.077400 0.324224
v -0.052875 -0.045373 0.348225
v -0.058699 0.079099 0.412815
v -0.061227 0.091946 0.427297
v -0.063257 0.092069 0.436985
v -0.064188 0.089349 0.441334
v -0.065037 0.079221 0.445110
v -0.065452 0.057318 0.444922
v -0.061330 0.055760 0.420977
v -0.054977 -0.101290 0.353321
v -0.053256 -0.135202 0.331773
v -0.051839 -0.156698 0.310691
v -0.128833 -0.156698 0.272022
v -0.139660 -0.156698 0.255177
v -0.149873 -0.156698 0.226944
v -0.156686 -0.156698 0.167260
v -0.156982 -0.156698 -0.213973
v -0.154207 -0.156698 -0.253984
v -0.147884 -0.156698 -0.283374
v -0.135692 -0.156698 -0.310822
v -0.123704 -0.156698 -0.326868
v -0.100916 -0.156669 -0.346426
v -0.074351 -0.156698 -0.360452
v -0.045672 -0.156698 -0.369462
v -0.015949 -0.156698 -0.373983
v 0.024097 -0.156698 -0.373145
v 0.053606 -0.156698 -0.367372
v 0.090746 -0.156698 -0.352411
v 0.122321 -0.156698 -0.327893
v 0.143476 -0.156698 -0.294075
v 0.153536 -0.156698 -0.255345
v 0.156648 -0.156698 -0.205317
v 0.156479 -0.156698 0.155855
v 0.153388 -0.156698 0.205891
v 0.147125 -0.156698 0.235292
v 0.134997 -0.156698 0.262745
v 0.114918 -0.156698 0.284919
v 0.079597 -0.156698 0.303585
v 0.040498 -0.156698 0.312305
v -0.019588 -0.156698 0.314220
v -0.069127 -0.156698 0.306913
v -0.105995 -0.156698 0.291421
v 0.174090 -0.018925 -0.016404
v 0.172090 -0.019711 0.213268
v 0.162086 -0.020824 0.272232
v 0.145619 -0.021536 0.308460
v 0.132922 -0.021612 0.323843
v 0.109144 -0.021711 0.341946
v 0.081946 -0.021841 0.354401
v 0.053018 -0.021701 0.362106
v 0.013353 -0.021570 0.366586
v -0.026558 -0.021578 0.365752
v -0.065943 -0.021791 0.359328
v -0.094294 -0.021796 0.349742
v -0.128072 -0.021632 0.328710
v -0.147548 -0.021511 0.306095
v -0.160295 -0.021003 0.279073
v -0.169529 -0.020079 0.240273
v -0.174497 -0.019007 0.160600
v -0.174555 -0.018814 -0.178994
v -0.172761 -0.018964 -0.238871
v -0.162545 -0.019322 -0.287603
v -0.142657 -0.019544 -0.322009
v -0.112618 -0.019186 -0.348117
v -0.067607 -0.019002 -0.369400
v -0.038579 -0.018798 -0.376712
v -0.008827 -0.018839 -0.380023
v 0.040852 -0.018803 -0.376223
v 0.088330 -0.019087 -0.361143
v 0.114455 -0.019213 -0.346557
v 0.137386 -0.019530 -0.327373
v 0.155011 -0.019407 -0.303264
v 0.165951 -0.019289 -0.275440
v 0.173688 -0.018823 -0.216161
v 0.174090 -0.018925 -0.016405
v 0.182285 -0.094522 -0.238167
v 0.183138 -0.094006 0.181151
v 0.177009 -0.094213 0.240675
v 0.160646 -0.095543 0.287588
v 0.142826 -0.097435 0.311445
v 0.119364 -0.099420 0.329814
v 0.092428 -0.101017 0.342694
v 0.053903 -0.102236 0.352934
v 0.014212 -0.102661 0.357083
v -0.035639 -0.102506 0.355542
v -0.074890 -0.101722 0.348426
v -0.112078 -0.099953 0.334207
v -0.144036 -0.097363 0.310703
v -0.161622 -0.095486 0.286668
v -0.175528 -0.094257 0.249388
v -0.181875 -0.094202 0.209996
v -0.184165 -0.094163 0.150150
v -0.183764 -0.094721 -0.219281
v -0.178696 -0.093868 -0.268884
v -0.166637 -0.092551 -0.306821
v -0.156828 -0.091909 -0.324170
v -0.137356 -0.091356 -0.346820
v -0.113631 -0.091526 -0.365018
v -0.087155 -0.091875 -0.378951
v -0.058894 -0.091997 -0.388803
v -0.019646 -0.092060 -0.395876
v 0.010275 -0.092066 -0.396535
v 0.039995 -0.092035 -0.393005
v 0.068997 -0.091964 -0.385622
v 0.096709 -0.091779 -0.374319
v 0.122303 -0.091392 -0.358833
v 0.144666 -0.091477 -0.338996
v 0.156955 -0.091938 -0.323299
v 0.170469 -0.092937 -0.296666
v 0.178447 -0.093899 -0.267852
v 0.204477 0.057550 0.106515
v 0.202302 0.057488 0.226787
v 0.197990 0.057381 0.266650
v 0.189489 0.057166 0.305813
v 0.178912 0.056889 0.333935
v 0.163668 0.056514 0.359794
v 0.150594 0.056279 0.374959
v 0.127424 0.056009 0.394050
v 0.091651 0.055821 0.411980
v 0.053002 0.055753 0.422470
v 0.013171 0.055742 0.426853
v -0.036877 0.055743 0.425018
v -0.076172 0.055782 0.417216
v -0.104403 0.055866 0.406927
v -0.138609 0.056113 0.386200
v -0.159958 0.056431 0.365104
v -0.176461 0.056812 0.340036
v -0.187883 0.057112 0.312251
v -0.197330 0.057353 0.273317
v -0.202248 0.057475 0.233529
v -0.204853 0.057546 0.163409
v -0.204704 0.057551 -0.207574
v -0.200815 0.057570 -0.257515
v -0.190365 0.057653 -0.296150
v -0.176147 0.057789 -0.322588
v -0.148707 0.058023 -0.351648
v -0.114913 0.058217 -0.373090
v -0.068028 0.058380 -0.390557
v -0.028622 0.058449 -0.397788
v 0.021426 0.058456 -0.398419
v 0.061014 0.058396 -0.392236
v 0.108378 0.058245 -0.376068
v 0.142869 0.058059 -0.355749
v 0.171632 0.057828 -0.328005
v 0.182647 0.057721 -0.311279
v 0.194306 0.057615 -0.283616
v 0.203009 0.057555 -0.234357
v -0.052593 0.057377 -0.405295
v -0.002816 0.057378 -0.410056
v 0.047027 0.057377 -0.406120
v 0.095420 0.057377 -0.393585
v 0.140454 0.057378 -0.371957
v 0.171906 0.057375 -0.347302
v 0.196171 0.057367 -0.315604
v 0.211425 0.057361 -0.278691
v 0.219452 0.057358 -0.229358
v 0.220120 0.057359 0.201180
v 0.214674 0.057362 0.271026
v 0.204071 0.057360 0.319901
v 0.193428 0.057351 0.347956
v 0.178557 0.057332 0.373996
v 0.159183 0.057317 0.396882
v 0.135843 0.057310 0.415717
v 0.109566 0.057311 0.430195
v 0.071766 0.057317 0.443239
v 0.042278 0.057322 0.448868
v 0.002351 0.057327 0.451640
v -0.047538 0.057322 0.448167
v -0.095991 0.057313 0.435948
v -0.131931 0.057310 0.418465
v -0.163017 0.057320 0.393398
v -0.186948 0.057342 0.361442
v -0.202997 0.057360 0.324834
v -0.212730 0.057363 0.286014
v -0.219478 0.057360 0.226350
v -0.221149 0.057357 -0.194177
v -0.219504 0.057359 -0.234186
v -0.213188 0.057360 -0.273688
v -0.194250 0.057368 -0.319821
v -0.161337 0.057377 -0.357240
v -0.136811 0.057378 -0.374526
v -0.110015 0.057378 -0.388047
v -0.052594 0.057377 -0.405295
v 0.187976 0.072947 0.143820
v 0.184858 0.072942 0.243637
v 0.172009 0.072970 0.312235
v 0.160468 0.072985 0.339840
v 0.149716 0.073010 0.356647
v 0.136323 0.073054 0.371449
v 0.112250 0.073122 0.389197
v 0.075632 0.073196 0.404943
v 0.036570 0.073243 0.413117
v -0.013289 0.073259 0.415057
v -0.052962 0.073227 0.410597
v -0.091329 0.073170 0.399660
v -0.117954 0.073109 0.385997
v -0.141096 0.073040 0.367076
v -0.159065 0.072986 0.343208
v -0.171287 0.072973 0.315898
v -0.179050 0.072957 0.286972
v -0.187168 0.072939 0.217584
v -0.187746 0.072924 -0.221968
v -0.183136 0.072891 -0.261622
v -0.170027 0.072844 -0.299218
v -0.152632 0.072814 -0.323498
v -0.121399 0.072789 -0.348219
v -0.085334 0.072765 -0.365270
v -0.046845 0.072748 -0.375851
v 0.002837 0.072740 -0.380174
v 0.042580 0.072747 -0.376479
v 0.081250 0.072763 -0.366589
v 0.117620 0.072787 -0.350177
v 0.149497 0.072812 -0.326270
v 0.167732 0.072839 -0.302608
v 0.181834 0.072886 -0.265380
v 0.187554 0.072928 -0.215835
v -0.220812 0.078953 0.012604
v -0.220588 0.078965 -0.207709
v -0.216444 0.078985 -0.257564
v -0.209380 0.078998 -0.286732
v -0.197426 0.079007 -0.314232
v -0.186550 0.079010 -0.331021
v -0.166217 0.079005 -0.353064
v -0.133606 0.078997 -0.376191
v -0.087786 0.078991 -0.396147
v -0.039023 0.078989 -0.407224
v 0.010925 0.078990 -0.409633
v 0.050711 0.078989 -0.405288
v 0.098939 0.078992 -0.392095
v 0.143650 0.078999 -0.369795
v 0.174617 0.079008 -0.344532
v 0.193065 0.079008 -0.320893
v 0.206332 0.079001 -0.294004
v 0.214552 0.078989 -0.265151
v 0.218707 0.078976 -0.235418
v 0.219926 0.078962 0.195151
v 0.213916 0.078978 0.274987
v 0.202900 0.078991 0.323771
v 0.182310 0.079005 0.369254
v 0.156666 0.078996 0.399893
v 0.124233 0.078985 0.423245
v 0.087481 0.078973 0.439010
v 0.038593 0.078963 0.449473
v -0.011392 0.078959 0.451505
v -0.061089 0.078967 0.445918
v -0.099548 0.078976 0.434913
v -0.135224 0.078988 0.416874
v -0.165809 0.078999 0.391168
v -0.183961 0.079005 0.367293
v -0.197375 0.078996 0.340456
v -0.206819 0.078988 0.311964
v -0.214705 0.078978 0.272717
v -0.220441 0.078962 0.192858
v 0.192082 0.088970 -0.245746
v 0.194872 0.089051 -0.185676
v 0.194156 0.089027 0.205456
v 0.188136 0.088984 0.275355
v 0.172811 0.088919 0.333399
v 0.152644 0.088891 0.367904
v 0.131331 0.088923 0.389034
v 0.105906 0.088962 0.405023
v 0.068360 0.089007 0.418916
v 0.028869 0.089038 0.425703
v -0.021214 0.089043 0.426370
v -0.060909 0.089014 0.420849
v -0.098994 0.088972 0.408475
v -0.125232 0.088933 0.393863
v -0.140843 0.088909 0.381295
v -0.165326 0.088891 0.349732
v -0.180445 0.088947 0.312679
v -0.191471 0.088999 0.253609
v -0.195258 0.089043 0.173497
v -0.195117 0.089026 -0.207612
v -0.190682 0.088950 -0.257506
v -0.178768 0.088882 -0.295683
v -0.168741 0.088858 -0.313024
v -0.148583 0.088871 -0.335262
v -0.124127 0.088892 -0.352720
v -0.097159 0.088903 -0.365996
v -0.039257 0.088904 -0.381821
v 0.000707 0.088898 -0.384803
v 0.030715 0.088903 -0.382896
v 0.070038 0.088906 -0.375168
v 0.098429 0.088903 -0.365272
v 0.125257 0.088891 -0.351727
v 0.149495 0.088869 -0.333983
v 0.169307 0.088860 -0.311453
v 0.179085 0.088885 -0.293975
v 0.155724 -0.156698 -0.233653
v 0.171441 -0.131108 -0.230471
v 0.183334 -0.092603 -0.228425
v 0.203426 0.057553 -0.228778
v 0.219444 0.057358 -0.229496
v 0.219145 0.079340 -0.228903
v 0.214943 0.089350 -0.228577
v 0.210137 0.092051 -0.228223
v 0.193844 0.088999 -0.227067
v 0.186722 0.070639 -0.226679
v 0.167423 -0.048126 -0.227077
v 0.157684 -0.076485 -0.228773
v 0.147398 -0.093464 -0.231319
v 0.125092 -0.112146 -0.237958
v 0.097958 -0.121913 -0.246247
v 0.049628 -0.128049 -0.257738
v -0.000233 -0.128809 -0.262376
v -0.050094 -0.128049 -0.257738
v -0.098424 -0.121913 -0.246247
v -0.125557 -0.112146 -0.237958
v -0.147863 -0.093464 -0.231319
v -0.158149 -0.076485 -0.228773
v -0.167888 -0.048126 -0.227077
v -0.187188 0.070639 -0.226679
v -0.194309 0.088999 -0.227067
v -0.210602 0.092051 -0.228223
v -0.215409 0.089350 -0.228577
v -0.219610 0.079340 -0.228903
v -0.219909 0.057358 -0.229496
v -0.203891 0.057553 -0.228778
v -0.183798 -0.092603 -0.228425
v -0.171906 -0.131108 -0.230471
v -0.156190 -0.156698 -0.233653
v 0.152494 -0.156698 0.212240
v 0.168038 -0.132083 0.215704
v 0.179883 -0.095223 0.221700
v 0.200041 0.057432 0.251570
v 0.216449 0.057362 0.257048
v 0.215886 0.079284 0.259400
v 0.211713 0.089353 0.258827
v 0.206964 0.092054 0.258111
v 0.190870 0.088998 0.255041
v 0.183845 0.071096 0.251134
v 0.163724 -0.053486 0.221180
v 0.153430 -0.080679 0.214300
v 0.142260 -0.096788 0.210887
v 0.126803 -0.109180 0.209490
v 0.098893 -0.119635 0.210837
v 0.059563 -0.125296 0.214216
v 0.019727 -0.126578 0.216424
v -0.040133 -0.126251 0.215546
v -0.089630 -0.121691 0.211689
v -0.118301 -0.113537 0.209617
v -0.142726 -0.096788 0.210887
v -0.153895 -0.080679 0.214300
v -0.164190 -0.053486 0.221180
v -0.184311 0.071096 0.251134
v -0.191335 0.088998 0.255041
v -0.207429 0.092054 0.258111
v -0.212178 0.089353 0.258827
v -0.216351 0.079284 0.259400
v -0.216914 0.057362 0.257048
v -0.200507 0.057432 0.251570
v -0.180349 -0.095223 0.221700
v -0.168503 -0.132083 0.215704
v -0.152959 -0.156698 0.212240
v -0.057371 0.053304 -0.373293
v 0.056906 0.053304 -0.373293
v -0.055572 0.014243 -0.373294
v 0.055108 0.014243 -0.373294
l 1 2 3 4
l 4 5
l 5 6 7
l 7 8
l 8 9
l 9 10
l 10 11 12 13 14 15 16 17 18 19 20 21 22 23 24 25 26 27
l 27 28
l 28 29 30
l 30 31
l 31 32 33 34
l 35 36 37 38
l 38 39
l 39 40 41
l 41 42
l 42 43
l 43 44
l 44 45 46 47 48 49 50 51 52 53 54 55 56 57 58 59 60 61
l 61 62
l 62 63 64
l 64 65
l 65 66 67 68
l 69 70 71 72 73 74 75 76 77 78 79 80 81 82 83 84 85 86 87 88 89 90 91 92 93 94 95 96 97 98 69
l 99 100 101 102 103 104 105 106 107 108 109 110 111 112 113 114 115 116 117 118 119 120 121 122 123 124 125 126 127 128 129 130 131
l 132 133 134 135 136 137 138 139 140 141 142 143 144 145 146 147 148 149 150 151 152 153 154 155 156 157 158 159 160 161 162 163 164 165 166 132
l 167 168 169 170 171 172 173 174 175 176 177 178 179 180 181 182 183 184 185 186 187 188 189 190 191 192 193 194 195 196 197 198 199 200 201 202 203 167
l 204 205 206 207 208 209 210 211 212 213 214 215 216 217 218 219 220 221 222 223 224 225 226 227 228 229 230 231 232 233 234 235 236 237 238 239
l 240 241 242 243 244 245 246 247 248 249 250 251 252 253 254 255 256 257 258 259 260 261 262 263 264 265 266 267 268 269 270 271 272 240
l 273 274 275 276 277 278 279 280 281 282 283 284 285 286 287 288 289 290 291 292 293 294 295 296 297 298 299 300 301 302 303 304 305 306 307 308 309 273
l 310 311 312 313 314 315 316 317 318 319 320 321 322 323 324 325 326 327 328 329 330 331 332 333 334 335 336 337 338 339 340 341 342 343 344 310
l 345 346 347 348
l 348 349
l 349 350 351
l 351 352
l 352 353
l 353 354 355 356 357 358 359 360 361 362 363 364 365 366 367 368 369
l 369 370
l 370 371
l 371 372 373
l 373 374
l 374 375 376 377
l 378 379 380 381
l 381 382
l 382 383 384
l 384 385
l 385 386
l 386 387 388 389 390 391 392 393 394 395 396 397 398 399 400 401 402
l 402 403
l 403 404
l 404 405 406
l 406 407
l 407 408 409 410
l 411 412
l 413 414
