v -0.050949 -0.066084 0.333192
v -0.105108 -0.065948 0.316824
v -0.131213 -0.065810 0.301228
v -0.146126 -0.065690 0.287603
v -0.167668 -0.065386 0.252846
v -0.176772 -0.065120 0.222487
v -0.180384 -0.065012 0.196970
v -0.000037 -0.066126 0.336655
v 0.050875 -0.066089 0.333018
v -0.049431 -0.096389 0.315805
v -0.047844 -0.124465 0.289882
v -0.059968 0.088653 0.400167
v -0.217412 0.089665 0.229031
v -0.212509 0.089565 0.265314
v -0.201729 0.089563 0.307437
v -0.190714 0.089561 0.333571
v -0.176151 0.089560 0.357121
v -0.158205 0.089559 0.377355
v -0.126368 0.089558 0.401020
v -0.090518 0.089557 0.417103
v -0.060060 0.089557 0.425006
v -0.200304 0.089452 0.228698
v -0.220942 0.089570 0.150041
v -0.220160 0.089473 -0.246499
v -0.216635 0.111275 0.233273
v 0.049906 -0.097340 -0.260722
v 0.049423 -0.096590 0.132916
v 0.049557 -0.093111 0.190973
v 0.049932 -0.091100 -0.325402
v 0.050299 -0.084873 -0.348602
v 0.050850 -0.075389 -0.366827
v 0.051622 -0.062035 -0.379506
v 0.052571 -0.045521 -0.387521
v 0.054015 -0.020374 -0.392781
v 0.055942 0.013729 -0.394213
v 0.107839 -0.087428 -0.259966
v 0.138432 -0.070718 -0.258693
v 0.151035 -0.056005 -0.257572
v 0.160133 -0.038686 -0.256252
v 0.173415 0.013634 -0.252265
v -0.049707 -0.097340 -0.260722
v -0.194106 0.120898 -0.244090
v -0.195078 0.121215 0.150536
v -0.191132 0.121018 0.235222
v -0.210399 0.123875 -0.243864
v -0.215205 0.121163 -0.244070
v -0.219661 0.111005 -0.244858
v -0.190982 0.121182 -0.275703
v -0.184380 0.121180 -0.302278
v -0.173016 0.121178 -0.326981
v -0.162204 0.121177 -0.342099
v -0.148484 0.121176 -0.355962
v -0.123058 0.121175 -0.374044
v -0.093027 0.121174 -0.388419
v -0.062196 0.121173 -0.398696
v -0.187311 0.104909 -0.245309
v 0.180743 -0.064110 0.196966
v 0.168966 -0.097289 0.190110
v 0.153757 -0.124465 0.184757
v 0.167594 -0.065403 0.252845
v 0.146052 -0.065706 0.287603
v 0.131139 -0.065824 0.301228
v 0.105035 -0.065959 0.316824
v 0.200230 0.089457 0.228700
v 0.183868 -0.064369 0.134369
v 0.183099 -0.060890 -0.257903
v -0.203688 0.089849 -0.246457
v -0.215985 0.089591 -0.280795
v -0.208020 0.089593 -0.311212
v -0.194121 0.089594 -0.340493
v -0.180972 0.089595 -0.358645
v -0.155493 0.089596 -0.382633
v -0.124636 0.089597 -0.401959
v -0.089887 0.089598 -0.416454
v -0.060423 0.089598 -0.424345
v 0.059894 0.088654 0.400167
v -0.000037 0.088640 0.406339
v 0.084440 0.088669 0.393854
v 0.117261 0.088701 0.379563
v 0.146122 0.088747 0.358808
v 0.162390 0.088786 0.341078
v 0.185901 0.088884 0.296748
v 0.196128 0.088970 0.258000
v 0.059986 0.089557 0.424108
v 0.060078 0.085353 -0.394075
v -0.060152 0.085352 -0.394074
v -0.000037 0.085507 -0.400873
v 0.061191 0.105018 -0.394215
v 0.057839 0.046315 -0.394073
v 0.049357 -0.096389 0.315805
v 0.047770 -0.124464 0.289882
v 0.184295 0.105007 0.231914
v 0.171430 0.105277 0.293959
v 0.150756 0.105293 0.334806
v 0.136309 0.105299 0.350848
v 0.110238 0.105306 0.369734
v 0.060887 0.105313 0.388781
v 0.191058 0.121018 0.235222
v 0.170680 0.011110 0.212510
v 0.188118 0.105223 0.149093
v 0.187236 0.104908 -0.245309
v -0.183172 -0.060338 -0.257902
v -0.183941 -0.064349 0.134370
v -0.171628 -0.098346 -0.260798
v -0.155988 -0.124551 -0.262741
v -0.171572 -0.060420 -0.315330
v -0.159043 -0.060193 -0.341407
v -0.147226 -0.060055 -0.357343
v -0.132806 -0.059931 -0.371617
v -0.107201 -0.059775 -0.389648
v -0.077746 -0.059656 -0.403467
v -0.051853 -0.059598 -0.411036
v -0.204614 0.089208 0.148209
v -0.196202 0.088964 0.258000
v -0.185975 0.088879 0.296748
v -0.162464 0.088782 0.341078
v -0.146196 0.088743 0.358808
v -0.117335 0.088697 0.379563
v -0.084515 0.088666 0.393854
v -0.049631 -0.093111 0.190973
v -0.050114 -0.085030 0.239793
v -0.051067 -0.068133 0.277245
v -0.052886 -0.036141 0.311270
v -0.055543 0.011408 0.341204
v -0.107069 -0.085916 0.192460
v -0.136725 -0.071539 0.195431
v -0.148939 -0.057865 0.198257
v -0.157771 -0.041157 0.201709
v -0.170754 0.011912 0.212508
v -0.049497 -0.096590 0.132916
v 0.110573 0.013655 -0.370098
v 0.145387 0.013558 -0.339215
v 0.164889 0.013438 -0.300727
v -0.000037 0.013749 -0.401029
v -0.056016 0.013726 -0.394213
v -0.184369 0.105008 0.231914
v -0.171504 0.105278 0.293959
v -0.150830 0.105293 0.334806
v -0.136383 0.105299 0.350848
v -0.110311 0.105306 0.369734
v -0.060961 0.105313 0.388781
v -0.188192 0.105223 0.149093
v 0.171498 -0.060438 -0.315330
v 0.158968 -0.060210 -0.341408
v 0.147152 -0.060070 -0.357343
v 0.132732 -0.059945 -0.371617
v 0.107127 -0.059786 -0.389648
v 0.077672 -0.059664 -0.403467
v 0.051779 -0.059604 -0.410795
v 0.171554 -0.098346 -0.260798
v 0.155248 -0.124472 -0.262546
v 0.203614 0.089855 -0.246456
v 0.062122 0.121173 -0.398696
v 0.092953 0.121174 -0.388419
v 0.122984 0.121175 -0.374044
v 0.148410 0.121176 -0.355962
v 0.162130 0.121177 -0.342099
v 0.172942 0.121178 -0.326981
v 0.184306 0.121180 -0.302278
v 0.190908 0.121182 -0.275703
v 0.194032 0.120898 -0.244090
v 0.062322 0.124359 -0.414090
v 0.062174 0.121749 -0.418822
v 0.061585 0.111201 -0.423859
v -0.000037 0.121172 -0.405606
v 0.177723 0.121227 0.299977
v 0.156112 0.121230 0.343047
v 0.141020 0.121231 0.360092
v 0.113831 0.121233 0.380149
v 0.061790 0.121235 0.400256
v 0.207152 0.124551 0.235951
v 0.211901 0.122102 0.235446
v 0.216777 0.111467 0.233413
v 0.195004 0.121215 0.150536
v 0.156814 -0.124466 0.120212
v 0.145933 -0.124473 -0.309161
v 0.125576 -0.124473 -0.345253
v 0.090854 -0.124474 -0.373244
v 0.048135 -0.124474 -0.389762
v -0.061265 0.105018 -0.394215
v -0.062396 0.124359 -0.414090
v -0.062248 0.121749 -0.418822
v -0.061659 0.111201 -0.423720
v 0.143039 -0.124465 0.226548
v 0.123860 -0.124464 0.256366
v 0.111882 -0.124464 0.266652
v 0.088880 -0.124464 0.279275
v -0.060467 0.090448 -0.412825
v -0.000037 0.089598 -0.430896
v 0.060349 0.089598 -0.424284
v 0.200487 0.090156 -0.278661
v 0.193686 0.090218 -0.307139
v 0.181658 0.090278 -0.334290
v 0.170056 0.090315 -0.351149
v 0.155380 0.090349 -0.366575
v 0.128434 0.090392 -0.386389
v 0.096926 0.090426 -0.401870
v 0.060393 0.090735 -0.412825
v 0.204540 0.089214 0.148209
v 0.219955 0.089553 -0.246499
v -0.220539 0.111192 0.151547
v -0.215973 0.111199 -0.280100
v -0.208274 0.111199 -0.310404
v -0.194679 0.111200 -0.339616
v -0.181742 0.111200 -0.357768
v -0.156401 0.111201 -0.381829
v -0.125520 0.111201 -0.401324
v -0.090615 0.111201 -0.415992
v -0.053148 -0.124475 -0.388374
v -0.000037 -0.124475 -0.395453
v -0.048307 -0.121221 -0.390706
v -0.049212 -0.105496 -0.399308
v -0.098921 -0.124475 -0.368503
v -0.125650 -0.124475 -0.345253
v -0.146007 -0.124474 -0.309161
v -0.000037 -0.059536 -0.417598
v 0.049632 -0.096909 -0.402558
v -0.173489 0.013625 -0.252265
v -0.174305 0.012042 0.138940
v -0.160207 -0.038686 -0.256252
v -0.151109 -0.056005 -0.257572
v -0.138506 -0.070718 -0.258693
v -0.107913 -0.087428 -0.259966
v -0.164963 0.013428 -0.300727
v -0.145461 0.013550 -0.339215
v -0.110647 0.013648 -0.370098
v -0.000037 0.121235 0.406294
v -0.061864 0.121235 0.399827
v 0.061969 0.124343 0.416173
v 0.061814 0.121686 0.420521
v 0.061222 0.111188 0.424350
v 0.055469 0.011411 0.341204
v 0.052812 -0.036141 0.311270
v 0.050993 -0.068133 0.277245
v 0.050040 -0.085031 0.239793
v -0.000037 0.011394 0.346105
v 0.102117 0.011463 0.325139
v 0.126257 0.011514 0.309316
v 0.139629 0.011556 0.295937
v 0.158768 0.011664 0.261989
v -0.178107 0.105053 -0.300706
v -0.167344 0.105044 -0.324599
v -0.157059 0.105039 -0.339186
v -0.119466 0.105027 -0.370089
v -0.000037 0.105316 0.394531
v -0.097000 0.090423 -0.401870
v -0.128508 0.090389 -0.386389
v -0.155454 0.090345 -0.366575
v -0.170130 0.090310 -0.351149
v -0.181732 0.090273 -0.334290
v -0.193760 0.090213 -0.307139
v -0.200561 0.090150 -0.278661
v -0.000037 0.090465 -0.420149
v 0.090541 0.111201 -0.415992
v 0.125446 0.111201 -0.401324
v 0.156327 0.111201 -0.381829
v 0.181669 0.111200 -0.357768
v 0.194605 0.111200 -0.339616
v 0.208200 0.111200 -0.310404
v 0.215899 0.111199 -0.280100
v 0.219624 0.111183 -0.244858
v -0.000037 0.111201 -0.430679
v -0.057913 0.046317 -0.394075
v -0.054089 -0.020374 -0.392781
v -0.052645 -0.045521 -0.387521
v -0.051696 -0.062035 -0.379506
v -0.050924 -0.075389 -0.366827
v -0.050373 -0.084873 -0.348602
v -0.050006 -0.091100 -0.325402
v 0.174231 0.012052 0.138940
v -0.000037 0.089557 0.430878
v 0.039296 0.089557 0.428520
v -0.061296 0.111188 0.424350
v 0.220942 0.089571 0.136506
v 0.217442 0.089939 0.229031
v 0.215911 0.089591 -0.280795
v 0.207946 0.089593 -0.311212
v 0.194047 0.089594 -0.340493
v 0.180898 0.089595 -0.358645
v 0.155419 0.089596 -0.382633
v 0.124562 0.089597 -0.401959
v 0.089812 0.089598 -0.416454
v -0.093335 0.121234 0.390074
v -0.113905 0.121233 0.380149
v -0.141094 0.121231 0.360092
v -0.156186 0.121230 0.343047
v -0.177797 0.121227 0.299977
v -0.062043 0.124343 0.416173
v -0.061888 0.121686 0.420521
v 0.211846 0.111191 0.267847
v 0.200847 0.111190 0.309997
v 0.189716 0.111190 0.335943
v 0.175075 0.111189 0.359102
v 0.157119 0.111189 0.378858
v 0.125444 0.111189 0.401904
v 0.089856 0.111188 0.417542
v 0.220465 0.111193 0.151547
v -0.000037 -0.124464 0.293949
v -0.088954 -0.124465 0.279275
v -0.111956 -0.124466 0.266652
v -0.123934 -0.124466 0.256366
v -0.143113 -0.124466 0.226548
v -0.153706 -0.124469 0.184778
v -0.158842 0.011655 0.261989
v -0.139703 0.011549 0.295937
v -0.126331 0.011507 0.309316
v -0.102191 0.011458 0.325139
v 0.215131 0.121163 -0.244070
v 0.210325 0.123875 -0.243864
v -0.207226 0.124551 0.235951
v -0.211975 0.122102 0.235446
v 0.178034 0.105053 -0.300706
v 0.167270 0.105044 -0.324599
v 0.156985 0.105038 -0.339186
v 0.119391 0.105027 -0.370089
v -0.156888 -0.124468 0.120212
v -0.169040 -0.097289 0.190110
v 0.106995 -0.085916 0.192460
v 0.136651 -0.071539 0.195431
v 0.148865 -0.057865 0.198257
v 0.157697 -0.041157 0.201709
v -0.000037 0.046453 -0.400869
v -0.000037 0.105015 -0.401030
v -0.000037 0.111188 0.430896
v -0.089930 0.111188 0.417542
v -0.125518 0.111188 0.401904
v -0.157193 0.111189 0.378858
v -0.175149 0.111189 0.359102
v -0.189790 0.111189 0.335943
v -0.200921 0.111190 0.309997
v -0.211920 0.111190 0.267847
v 0.212435 0.089565 0.265314
v 0.201655 0.089563 0.307437
v 0.190640 0.089561 0.333571
v 0.176077 0.089560 0.357121
v 0.158131 0.089559 0.377355
v 0.126294 0.089558 0.401020
v 0.090444 0.089557 0.417103
v -0.190344 0.012220 0.212834
v -0.056160 0.015425 -0.411930
v 0.060634 0.095185 -0.394145
v -0.190708 0.112903 -0.244700
v -0.056964 0.030022 -0.394144
v 0.219789 0.100368 -0.245678
v 0.180326 0.059271 -0.248787
v -0.059032 0.065835 -0.394075
v 0.177488 0.058059 0.222212
v -0.055459 0.011284 0.366679
v -0.219911 0.100239 -0.245678
v -0.060014 0.089105 0.412586
v 0.060371 0.090166 -0.418554
v -0.177562 0.058460 0.222211
v 0.000100 -0.097340 -0.260722
v 0.058178 0.058362 0.364992
v -0.000037 -0.093111 0.190973
v 0.208836 0.089698 0.228865
v -0.060708 0.095185 -0.394145
v -0.208858 0.089558 0.228864
v -0.061041 0.100400 -0.424032
v -0.217024 0.100470 0.231152
v -0.060678 0.100373 0.424678
v 0.061657 0.113096 -0.396455
v 0.056890 0.030022 -0.394143
v 0.055385 0.011282 0.366592
v -0.180400 0.059267 -0.248787
v 0.059940 0.089106 0.412137
v 0.187677 0.113012 0.233568
v -0.061731 0.113096 -0.396455
v 0.193356 0.014483 -0.252179
v 0.190486 0.012673 0.212833
v -0.211924 0.089661 -0.246478
v -0.193430 0.014755 -0.252179
v 0.060604 0.100373 0.424229
v 0.061338 0.113274 0.394518
v -0.061412 0.113274 0.394304
v -0.000037 0.085352 -0.394075
v 0.058958 0.065834 -0.394074
v 0.217110 0.100703 0.231222
v -0.060445 0.090023 -0.418585
v 0.056086 0.015566 -0.411810
v 0.060967 0.100400 -0.424071
v 0.190634 0.112903 -0.244700
v -0.187751 0.113013 0.233568
v 0.211784 0.089704 -0.246477
v -0.000037 0.046316 -0.394074
v -0.058252 0.058360 0.364992
l 1 2 3 4 5 6 7
l 1 8 9
l 1 10 11
l 1 348 12
l 13 14 15 16 17 18 19 20 21
l 13 358 22
l 13 23 24
l 13 360 25
l 26 27 28
l 26 29 30 31 32 33 34 35
l 26 36 37 38 39 40
l 26 353 41
l 42 43 44
l 42 45 46 47
l 42 48 49 50 51 52 53 54 55
l 42 342 56
l 57 58 59
l 57 60 61 62 63 9
l 57 370 64
l 57 65 66
l 24 371 67
l 24 349 47
l 24 68 69 70 71 72 73 74 75
l 76 364 9
l 76 77 12
l 76 78 79 80 81 82 83 64
l 76 366 84
l 85 376 86
l 85 87 86
l 85 341 88
l 85 377 89
l 9 90 91
l 92 93 94 95 96 97
l 92 367 98
l 92 347 99
l 92 100 101
l 102 103 7
l 102 372 67
l 102 104 105
l 102 106 107 108 109 110 111 112
l 22 113 67
l 22 339 7
l 22 114 115 116 117 118 119 12
l 120 121 122 123 124
l 120 125 126 127 128 129
l 120 130 41
l 120 355 28
l 35 363 89
l 35 131 132 133 40
l 35 134 135
l 136 383 44
l 136 352 129
l 136 137 138 139 140 141
l 136 142 56
l 66 143 144 145 146 147 148 149
l 66 150 151
l 66 369 152
l 153 154 155 156 157 158 159 160 161
l 153 162 163 164
l 153 362 88
l 153 165 55
l 98 166 167 168 169 170
l 98 171 172 173
l 98 174 161
l 151 175 59
l 151 176 177 178 179
l 55 368 180
l 55 181 182 183
l 59 184 185 186 187 91
l 75 379 188
l 75 189 190
l 75 359 183
l 152 191 192 193 194 195 196 197 198
l 152 199 64
l 152 384 200
l 47 201 25
l 47 202 203 204 205 206 207 208 183
l 209 210 179
l 209 211 212 112
l 209 213 214 215 105
l 149 380 198
l 149 216 112
l 149 217 179
l 218 219 129
l 218 365 56
l 218 220 221 222 223 41
l 218 224 225 226 135
l 170 227 228
l 170 374 97
l 170 229 230 231
l 232 233 234 235 28
l 232 236 124
l 232 237 238 239 240 99
l 232 354 97
l 56 241 242 243 244 180
l 141 245 97
l 141 386 124
l 141 375 228
l 188 340 112
l 188 246 247 248 249 250 251 252 67
l 188 253 198
l 164 381 190
l 164 254 255 256 257 258 259 260 261
l 164 262 183
l 135 343 263
l 135 264 265 266 267 268 269 41
l 40 345 101
l 40 270 99
l 21 271 272 84
l 21 361 273
l 21 350 12
l 200 274 275
l 200 344 261
l 200 276 277 278 279 280 281 282 190
l 228 283 284 285 286 287 44
l 228 288 289 273
l 173 290 291 292 293 294 295 296 231
l 173 378 275
l 173 297 261
l 11 298 91
l 11 299 300 301 302 303
l 198 351 190
l 129 304 305 306 307 124
l 261 308 309 161
l 44 310 311 25
l 101 312 313 314 315 88
l 101 382 161
l 303 316 105
l 303 317 7
l 64 356 275
l 28 318 319 320 321 99
l 89 385 263
l 89 322 263
l 88 323 180
l 273 324 231
l 273 325 326 327 328 329 330 331 25
l 231 373 84
l 86 357 180
l 86 346 263
l 275 332 333 334 335 336 337 338 84
