v 0.145624 0.022746 -0.218772
v 0.147909 0.017943 -0.203051
v 0.149626 0.017479 -0.189751
v 0.157874 0.018175 -0.091437
v 0.159228 0.021950 -0.065924
v 0.142629 0.019573 -0.242970
v 0.139490 0.012651 -0.265291
v 0.142466 0.050072 -0.221598
v 0.137348 0.071766 -0.209154
v 0.135561 0.078138 -0.200751
v 0.134449 0.086341 -0.181879
v 0.135057 0.094150 -0.151329
v 0.137017 0.101299 -0.109047
v 0.139587 0.103954 -0.070341
v -0.095503 0.026540 0.240892
v -0.102074 0.030725 0.187704
v -0.107134 0.022515 0.243270
v -0.117646 0.015547 0.243904
v -0.061138 0.034067 0.234732
v 0.000000 0.037073 0.230692
v -0.089924 0.007504 0.312498
v -0.087267 -0.007210 0.345504
v -0.086201 -0.020132 0.365404
v 0.108794 -0.027142 -0.354185
v 0.124857 0.007422 -0.316929
v 0.133091 0.037174 -0.275901
v 0.113462 -0.034474 -0.348693
v 0.123102 -0.037997 -0.350114
v 0.090098 -0.017931 -0.355738
v 0.056361 -0.002470 -0.364894
v 0.028947 0.003994 -0.369156
v 0.000000 0.006565 -0.370890
v 0.086802 -0.079113 -0.392889
v -0.066992 -0.127930 0.437204
v 0.000000 -0.129024 0.440890
v -0.073408 -0.097651 0.424254
v -0.077130 -0.072456 0.407084
v -0.107655 -0.128620 0.431061
v -0.136285 -0.123087 0.420719
v -0.160797 -0.111189 0.405827
v -0.173659 -0.099451 0.394086
v -0.177281 -0.091672 0.387996
v -0.118273 -0.138829 -0.423369
v -0.085846 -0.142356 -0.430654
v -0.134305 -0.137691 -0.416750
v -0.143072 -0.136798 -0.409743
v -0.161297 -0.130145 -0.382385
v -0.171761 -0.120549 -0.360158
v -0.141379 -0.097705 -0.386218
v -0.112589 -0.084940 -0.388739
v -0.118328 -0.074153 -0.378956
v -0.140765 -0.062418 -0.364321
v -0.142506 -0.075008 -0.373781
v -0.138948 -0.085091 -0.382527
v -0.128728 -0.093349 -0.391324
v -0.104133 -0.084290 -0.389256
v -0.094720 -0.082815 -0.390088
v -0.086801 -0.079113 -0.392889
v -0.093786 -0.121294 -0.418003
v -0.123101 -0.037997 -0.350114
v 0.000000 0.038205 0.164106
v 0.000000 0.038079 0.174594
v 0.000000 0.038077 0.185311
v 0.082570 0.038298 0.164322
v 0.104018 0.040313 0.163014
v -0.082569 0.038298 0.164322
v -0.104018 0.040313 0.163014
v 0.102075 0.030725 0.187704
v -0.152459 -0.102276 -0.381235
v -0.149956 -0.079276 -0.370346
v -0.154389 -0.052996 -0.347037
v 0.094721 -0.082815 -0.390088
v 0.104134 -0.084290 -0.389256
v 0.082128 -0.073216 -0.399757
v 0.056037 -0.059289 -0.406410
v 0.033720 -0.051945 -0.409016
v 0.000000 -0.047716 -0.410824
v 0.074757 -0.117718 -0.422133
v 0.065872 -0.143407 -0.433615
v 0.112640 0.042671 0.161128
v 0.122899 0.052900 0.151852
v 0.103219 0.035546 0.175700
v 0.113401 0.030960 0.188707
v 0.124841 0.029239 0.188785
v 0.095503 0.026540 0.240892
v -0.175169 -0.114006 -0.351330
v -0.178671 -0.079734 -0.330011
v -0.151124 -0.065380 0.402391
v -0.161027 -0.076630 0.395191
v -0.139239 -0.081788 0.411862
v -0.124482 -0.089062 0.417784
v -0.111801 -0.087613 0.416958
v -0.100232 -0.078944 0.412671
v -0.096694 -0.072051 0.410120
v -0.145978 -0.048556 0.399281
v -0.135105 -0.037987 0.398833
v -0.122803 -0.033780 0.398893
v 0.000000 -0.143830 -0.441257
v -0.065872 -0.143407 -0.433615
v 0.000000 -0.101499 -0.431487
v -0.177968 -0.065833 0.366671
v -0.096520 -0.049767 0.403723
v -0.109126 -0.036363 0.399918
v -0.101812 -0.025489 0.365854
v -0.179246 -0.048074 -0.271598
v -0.167057 -0.025882 -0.268587
v -0.157836 -0.017058 -0.266300
v -0.179246 -0.047690 -0.236870
v -0.179182 -0.059773 -0.213820
v -0.178925 -0.054870 -0.296400
v -0.178647 -0.062319 -0.311281
v 0.166073 -0.109779 -0.149871
v 0.161647 -0.108354 -0.142386
v 0.161376 -0.105347 -0.114140
v 0.160072 -0.104512 -0.014648
v 0.156606 -0.107821 0.057114
v 0.149089 -0.114617 0.125376
v 0.171845 -0.111391 -0.157402
v 0.177987 -0.115215 -0.174549
v 0.165556 -0.072190 -0.164196
v 0.163622 -0.054024 -0.176170
v 0.160864 -0.037160 -0.192020
v 0.165376 -0.119590 -0.148687
v 0.164660 -0.130080 -0.148512
v -0.112684 -0.022804 0.369435
v -0.125076 -0.022657 0.371446
v -0.093830 -0.026614 0.362642
v -0.127143 -0.011831 0.328276
v -0.128867 -0.011719 0.284709
v -0.130067 -0.018195 0.265024
v -0.136114 -0.029393 0.242306
v -0.146007 -0.057474 0.209036
v -0.137323 -0.026829 0.371937
v -0.148196 -0.034802 0.371415
v -0.164659 -0.130080 -0.148512
v -0.165375 -0.119590 -0.148687
v -0.166073 -0.109779 -0.149871
v -0.170943 -0.130042 -0.154848
v -0.177001 -0.131072 -0.172733
v -0.166824 -0.139652 -0.147019
v -0.170250 -0.149724 -0.145471
v -0.160047 -0.130249 -0.140509
v -0.159330 -0.129631 -0.130520
v -0.159308 -0.128139 -0.024658
v -0.151730 -0.134405 0.124792
v -0.084070 -0.037789 0.383133
v -0.087477 -0.072790 0.408416
v -0.061067 -0.061511 0.415177
v -0.051135 -0.057084 0.416851
v 0.000000 -0.045724 0.419447
v 0.139136 0.104260 -0.047565
v 0.142347 0.092595 -0.065301
v 0.147569 0.072256 -0.063928
v -0.177987 -0.115215 -0.174549
v -0.171844 -0.111391 -0.157402
v -0.178457 -0.099634 -0.179526
v -0.178790 -0.084998 -0.188418
v -0.177593 -0.123064 -0.173354
v -0.176158 -0.138716 -0.171332
v -0.173781 -0.148559 -0.161350
v 0.000000 0.127039 0.109325
v 0.000000 0.149619 0.009930
v 0.000000 0.152194 -0.024684
v 0.000000 0.150600 -0.094110
v 0.000000 0.145765 -0.139619
v 0.000000 0.138497 -0.172551
v 0.000000 0.124523 -0.213424
v 0.000000 0.107800 -0.250341
v 0.076986 0.123591 0.110118
v 0.097289 0.119552 0.107804
v 0.105169 0.114301 0.108706
v 0.119754 0.087311 0.125288
v -0.076985 0.123591 0.110118
v -0.097289 0.119552 0.107804
v -0.105169 0.114301 0.108706
v -0.119754 0.087311 0.125288
v -0.122898 0.052900 0.151852
v -0.178035 -0.053498 0.350529
v -0.177736 -0.046539 0.333224
v -0.177672 -0.040427 0.307108
v -0.177668 -0.040506 0.289437
v -0.178008 -0.049465 0.264466
v -0.178786 -0.074686 0.237754
v -0.144726 -0.122501 0.161140
v -0.144132 -0.131564 0.159703
v -0.150715 -0.135115 0.161197
v -0.149089 -0.114617 0.125376
v -0.146024 -0.084825 0.173617
v -0.142685 -0.048991 0.195470
v -0.144705 -0.125349 0.168893
v -0.150004 -0.128095 0.173315
v -0.150754 -0.090963 0.186842
v -0.163512 -0.060798 0.217853
v -0.141561 -0.054430 0.203663
v -0.178983 -0.097941 0.222719
v -0.176585 -0.144431 0.205077
v -0.166918 -0.134869 0.182946
v -0.148524 -0.135817 0.169021
v -0.158854 -0.139965 0.163632
v -0.169373 -0.148466 0.167610
v -0.167519 -0.148829 0.127674
v -0.175063 -0.151169 0.197606
v -0.173503 -0.152194 0.191273
v -0.167405 -0.148267 0.178889
v -0.129422 -0.005941 0.234476
v -0.124752 0.005041 0.240802
v -0.148941 -0.031276 0.155612
v -0.171012 -0.042678 -0.198604
v -0.160863 -0.037160 -0.192020
v 0.149124 0.063510 -0.053158
v 0.157747 0.021950 -0.052862
v 0.136622 0.106466 -0.010256
v 0.132332 0.100335 0.060057
v 0.131873 0.094018 0.090641
v 0.134929 0.077633 0.116058
v 0.141392 0.036417 0.137964
v -0.163622 -0.054024 -0.176170
v -0.165555 -0.072190 -0.164196
v -0.158480 -0.019671 -0.223373
v -0.158221 -0.016071 -0.244395
v -0.161021 -0.027439 -0.180761
v -0.162016 -0.016038 -0.155319
v -0.163493 -0.012755 -0.127917
v -0.164846 -0.011378 -0.063118
v -0.158585 -0.015882 0.084061
v -0.154299 -0.021612 0.120876
v -0.139490 0.012651 -0.265291
v -0.142629 0.019573 -0.242970
v -0.145623 0.022746 -0.218772
v -0.126441 -0.022737 -0.331157
v -0.146689 -0.011243 -0.263915
v -0.136875 0.025445 -0.269750
v -0.133091 0.037174 -0.275901
v -0.156585 -0.028975 -0.309681
v -0.155753 -0.039101 -0.329755
v -0.150794 -0.071766 0.135858
v -0.136648 0.013981 0.183122
v -0.132686 0.022870 0.186887
v -0.124841 0.029239 0.188785
v -0.159983 -0.141375 0.126057
v -0.148482 -0.125505 0.124421
v -0.074757 -0.117718 -0.422133
v -0.075526 -0.143001 -0.432281
v 0.000000 -0.095727 0.441257
v 0.000000 -0.068282 0.433468
v 0.066993 -0.127930 0.437204
v -0.156606 -0.107821 0.057114
v -0.160071 -0.104512 -0.014648
v -0.161375 -0.105347 -0.114140
v -0.161646 -0.108354 -0.142386
v 0.130737 0.048700 0.148646
v 0.117647 0.015547 0.243904
v 0.124753 0.005041 0.240802
v 0.129423 -0.005941 0.234476
v 0.142686 -0.048991 0.195470
v 0.101812 -0.025489 0.365854
v 0.107134 0.022515 0.243270
v 0.127637 0.037335 0.163085
v 0.132687 0.022870 0.186887
v 0.136648 0.013981 0.183122
v 0.148941 -0.031276 0.155612
v 0.073408 -0.097651 0.424254
v 0.077131 -0.072456 0.407084
v 0.107655 -0.128620 0.431061
v 0.136286 -0.123087 0.420719
v 0.160797 -0.111189 0.405827
v 0.173660 -0.099451 0.394086
v 0.177282 -0.091672 0.387996
v -0.130737 0.048700 0.148646
v -0.127428 0.090721 0.113214
v -0.126302 0.102093 0.093590
v -0.128159 0.112887 0.040909
v -0.132303 0.116933 -0.031872
v -0.132080 0.110988 -0.110405
v -0.131207 0.095042 -0.184914
v -0.132101 0.085867 -0.204684
v -0.136049 0.065947 -0.233064
v -0.141392 0.036417 0.137964
v -0.127637 0.037335 0.163085
v -0.134928 0.077633 0.116058
v -0.131872 0.094018 0.090641
v -0.132332 0.100335 0.060057
v -0.136621 0.106466 -0.010256
v -0.139136 0.104260 -0.047565
v -0.142881 0.024862 0.135391
v -0.143723 0.017634 0.127725
v -0.152333 0.018831 0.052035
v -0.155161 0.018246 -0.025489
v -0.157747 0.021950 -0.052862
v 0.086201 -0.020132 0.365404
v 0.087268 -0.007210 0.345504
v 0.089925 0.007504 0.312498
v 0.093831 -0.026614 0.362642
v 0.044099 -0.003177 0.365160
v 0.010141 -0.000585 0.361628
v 0.000000 0.003418 0.362632
v 0.084071 -0.037789 0.383133
v -0.159228 0.021950 -0.065924
v -0.149124 0.063510 -0.053158
v -0.123758 0.045188 -0.280294
v -0.094975 0.057987 -0.287434
v -0.124857 0.007422 -0.316929
v -0.108794 -0.027142 -0.354185
v -0.083457 0.077650 -0.270055
v -0.059647 0.095421 -0.255828
v -0.031987 0.105986 -0.249188
v -0.095395 0.048463 -0.296955
v -0.090900 0.042019 -0.305100
v -0.069257 0.040152 -0.313265
v -0.051157 0.041257 -0.317134
v 0.000000 0.044908 -0.322158
v 0.061139 0.034067 0.234732
v 0.000000 0.024617 0.302930
v 0.151125 -0.065380 0.402391
v 0.145978 -0.048556 0.399281
v 0.135105 -0.037987 0.398833
v 0.122803 -0.033780 0.398893
v 0.161027 -0.076630 0.395191
v 0.139240 -0.081788 0.411862
v 0.124483 -0.089062 0.417784
v 0.111801 -0.087613 0.416958
v 0.100233 -0.078944 0.412671
v 0.096695 -0.072051 0.410120
v 0.177969 -0.065833 0.366671
v 0.096520 -0.049767 0.403723
v 0.109127 -0.036363 0.399918
v 0.112685 -0.022804 0.369435
v 0.125077 -0.022657 0.371446
v 0.127143 -0.011831 0.328276
v 0.128868 -0.011719 0.284709
v 0.130068 -0.018195 0.265024
v 0.136114 -0.029393 0.242306
v 0.146008 -0.057474 0.209036
v 0.137323 -0.026829 0.371937
v 0.148196 -0.034802 0.371415
v 0.061068 -0.061511 0.415177
v 0.051136 -0.057084 0.416851
v 0.087478 -0.072790 0.408416
v 0.000000 -0.018154 0.393845
v -0.144120 -0.046371 -0.350220
v -0.113461 -0.034474 -0.348693
v 0.118273 -0.138829 -0.423369
v 0.141380 -0.097705 -0.386218
v 0.085847 -0.142356 -0.430654
v 0.134305 -0.137691 -0.416750
v 0.143072 -0.136798 -0.409743
v 0.161298 -0.130145 -0.382385
v 0.171761 -0.120549 -0.360158
v -0.147909 0.017943 -0.203051
v -0.149625 0.017479 -0.189751
v -0.157873 0.018175 -0.091437
v -0.142466 0.050072 -0.221598
v -0.137347 0.071766 -0.209154
v -0.135560 0.078138 -0.200751
v -0.134448 0.086341 -0.181879
v -0.135057 0.094150 -0.151329
v -0.137016 0.101299 -0.109047
v -0.139587 0.103954 -0.070341
v 0.112590 -0.084940 -0.388739
v 0.128728 -0.093349 -0.391324
v 0.118328 -0.074153 -0.378956
v 0.140765 -0.062418 -0.364321
v 0.142506 -0.075008 -0.373781
v 0.138949 -0.085091 -0.382527
v 0.093787 -0.121294 -0.418003
v -0.010140 -0.000585 0.361628
v -0.044099 -0.003177 0.365160
v 0.152460 -0.102276 -0.381235
v 0.149957 -0.079276 -0.370346
v 0.154389 -0.052996 -0.347037
v 0.150755 -0.090963 0.186842
v 0.150005 -0.128095 0.173315
v 0.141561 -0.054430 0.203663
v 0.163513 -0.060798 0.217853
v 0.178786 -0.074686 0.237754
v -0.090098 -0.017931 -0.355738
v -0.056360 -0.002470 -0.364894
v -0.028947 0.003994 -0.369156
v 0.175169 -0.114006 -0.351330
v 0.178672 -0.079734 -0.330011
v 0.178008 -0.049465 0.264466
v 0.177669 -0.040506 0.289437
v 0.177673 -0.040427 0.307108
v 0.177737 -0.046539 0.333224
v 0.178035 -0.053498 0.350529
v 0.178983 -0.097941 0.222719
v 0.176586 -0.144431 0.205077
v 0.166918 -0.134869 0.182946
v 0.144706 -0.125349 0.168893
v 0.144727 -0.122501 0.161140
v 0.148524 -0.135817 0.169021
v 0.150716 -0.135115 0.161197
v 0.151731 -0.134405 0.124792
v 0.144133 -0.131564 0.159703
v 0.158855 -0.139965 0.163632
v 0.169373 -0.148466 0.167610
v -0.082128 -0.073216 -0.399757
v -0.056037 -0.059289 -0.406410
v -0.033720 -0.051945 -0.409016
v 0.179246 -0.048074 -0.271598
v 0.178926 -0.054870 -0.296400
v 0.178647 -0.062319 -0.311281
v 0.167057 -0.025882 -0.268587
v 0.157836 -0.017058 -0.266300
v 0.179246 -0.047690 -0.236870
v 0.179182 -0.059773 -0.213820
v -0.112640 0.042671 0.161128
v -0.103218 0.035546 0.175700
v 0.146024 -0.084825 0.173617
v -0.113401 0.030960 0.188707
v 0.170943 -0.130042 -0.154848
v 0.177001 -0.131072 -0.172733
v 0.166824 -0.139652 -0.147019
v 0.170250 -0.149724 -0.145471
v 0.160047 -0.130249 -0.140509
v 0.159330 -0.129631 -0.130520
v 0.159309 -0.128139 -0.024658
v 0.177593 -0.123064 -0.173354
v 0.178458 -0.099634 -0.179526
v 0.178791 -0.084998 -0.188418
v 0.176159 -0.138716 -0.171332
v 0.173782 -0.148559 -0.161350
v 0.171012 -0.042678 -0.198604
v 0.158481 -0.019671 -0.223373
v 0.158222 -0.016071 -0.244395
v 0.161022 -0.027439 -0.180761
v 0.162017 -0.016038 -0.155319
v 0.163494 -0.012755 -0.127917
v 0.164847 -0.011378 -0.063118
v 0.158586 -0.015882 0.084061
v 0.154300 -0.021612 0.120876
v 0.146690 -0.011243 -0.263915
v 0.156586 -0.028975 -0.309681
v 0.155754 -0.039101 -0.329755
v -0.142346 0.092595 -0.065301
v -0.147569 0.072256 -0.063928
v 0.167519 -0.148829 0.127674
v 0.159984 -0.141375 0.126057
v 0.148483 -0.125505 0.124421
v 0.167406 -0.148267 0.178889
v 0.173503 -0.152194 0.191273
v 0.175064 -0.151169 0.197606
v 0.150794 -0.071766 0.135858
v 0.051157 0.041257 -0.317134
v 0.069258 0.040152 -0.313265
v 0.090900 0.042019 -0.305100
v 0.095395 0.048463 -0.296955
v 0.094975 0.057987 -0.287434
v 0.000000 -0.017237 -0.393897
v 0.136876 0.025445 -0.269750
v 0.126441 -0.022737 -0.331157
v 0.127429 0.090721 0.113214
v 0.126303 0.102093 0.093590
v 0.128159 0.112887 0.040909
v 0.132304 0.116933 -0.031872
v 0.132081 0.110988 -0.110405
v 0.131207 0.095042 -0.184914
v 0.132101 0.085867 -0.204684
v 0.136050 0.065947 -0.233064
v 0.142882 0.024862 0.135391
v 0.143724 0.017634 0.127725
v 0.152333 0.018831 0.052035
v 0.155162 0.018246 -0.025489
v 0.075527 -0.143001 -0.432281
v 0.123758 0.045188 -0.280294
v 0.083458 0.077650 -0.270055
v 0.059647 0.095421 -0.255828
v 0.031988 0.105986 -0.249188
v 0.144120 -0.046371 -0.350220
v 0.000000 0.025736 -0.346524
v 0.033497 -0.128477 0.439047
v -0.129826 -0.118267 -0.404794
v -0.099166 -0.037628 0.384788
v -0.121243 0.022393 0.216344
v -0.139361 0.104107 -0.058953
v 0.145813 -0.040134 0.175541
v -0.136064 0.042559 0.143305
v 0.136064 0.042559 0.143305
v -0.123940 -0.028219 0.385170
v -0.135053 -0.095527 -0.388771
v 0.168885 -0.149276 -0.008898
v 0.109729 -0.004971 0.304879
v 0.158487 0.021950 -0.059393
v -0.096607 -0.060909 0.406922
v 0.096607 -0.060909 0.406922
v -0.109729 -0.004971 0.304879
v -0.113617 -0.061143 -0.369685
v -0.177625 -0.078752 0.377334
v 0.102060 -0.140593 -0.427012
v 0.120659 -0.089144 -0.390032
v 0.126818 0.050800 0.150249
v 0.168446 -0.148647 0.147642
v -0.098789 0.028632 0.214298
v -0.032936 -0.143619 -0.437436
v -0.108361 -0.084615 -0.388998
v 0.032936 -0.143619 -0.437436
v -0.168884 -0.149276 -0.008898
v -0.051037 0.034401 0.186507
v 0.151224 -0.134760 0.142995
v 0.146908 -0.118559 0.143258
v 0.108362 -0.084615 -0.388998
v -0.146908 -0.118559 0.143258
v 0.051038 0.034401 0.186507
v 0.135054 -0.095527 -0.388771
v 0.177626 -0.078752 0.377334
v -0.158487 0.021950 -0.059393
v -0.102060 -0.140593 -0.427012
v -0.033496 -0.128477 0.439047
v 0.139362 0.104107 -0.058953
v -0.151223 -0.134760 0.142995
v 0.129826 -0.118267 -0.404794
v 0.113618 -0.061143 -0.369685
v -0.168446 -0.148647 0.147642
v 0.098789 0.028632 0.214298
v -0.145813 -0.040134 0.175541
v 0.121244 0.022393 0.216344
v 0.000000 0.037575 0.208001
v 0.099166 -0.037628 0.384788
v -0.120658 -0.089144 -0.390032
v -0.097797 -0.053127 -0.373537
v -0.166530 -0.066365 -0.338524
v 0.097798 -0.053127 -0.373537
v 0.166530 -0.066365 -0.338524
v 0.123940 -0.028219 0.385170
v -0.126817 0.050800 0.150249
l 1 2 3 4 5
l 1 6 7
l 1 8 9 10 11 12 13 14
l 15 493 16
l 15 17 18
l 15 19 20
l 15 21 22 23
l 24 25 26
l 24 27 28
l 24 29 30 31 32
l 24 522 33
l 34 508 35
l 34 36 37
l 34 38 39 40 41 42
l 43 507 44
l 43 45 46 47 48
l 43 472 49
l 50 51 52 53 54 55
l 50 495 56
l 50 519 55
l 56 57 58
l 56 59 44
l 56 487 60
l 55 480 49
l 61 62 63
l 61 64 65
l 61 66 67
l 63 517 20
l 63 503 68
l 63 498 16
l 49 69 48
l 49 70 71
l 33 72 73
l 33 74 75 76 77
l 33 78 79
l 65 80 81
l 65 82 68
l 68 83 84
l 68 514 85
l 48 86 87
l 88 89 42
l 88 90 91 92 93 94
l 88 95 96 97
l 98 496 79
l 98 494 99
l 98 100 77
l 42 488 101
l 102 103 97
l 102 484 94
l 102 473 104
l 105 106 107
l 105 108 109
l 105 110 111 87
l 112 113 114 115 116 117
l 112 118 119
l 112 120 121 122
l 112 123 124
l 104 125 126
l 104 127 23
l 104 486 18
l 126 128 129 130 131 132
l 126 479 97
l 126 133 134 101
l 135 136 137
l 135 138 139
l 135 140 141
l 135 142 143 144 145
l 37 146 23
l 37 147 94
l 37 148 149 150
l 14 509 151
l 14 152 153 5
l 154 155 137
l 154 156 157 109
l 154 158 139
l 139 159 160 141
l 161 162 163 164 165 166 167 168
l 161 169 170 171 172 81
l 161 173 174 175 176 177
l 101 178 179 180 181 182 183
l 184 185 186
l 184 502 187
l 184 188 189
l 184 190 191
l 132 192 191
l 132 193 183
l 132 194 189
l 183 195 196
l 191 197 196
l 191 198 186
l 186 199 200
l 186 510 145
l 141 497 201
l 196 202 203 204 200
l 189 205 206 18
l 189 515 207
l 109 208 209
l 151 210 211
l 151 212 213 214 215 216
l 5 483 211
l 87 521 71
l 209 217 218 137
l 209 219 220 107
l 209 221 222 223 224 225 226 207
l 227 228 229
l 227 230 60
l 227 231 107
l 227 232 233
l 107 234 235 71
l 207 236 187
l 207 237 238 239
l 201 513 200
l 201 240 145
l 145 241 187
l 99 242 58
l 99 243 44
l 35 244 245 150
l 35 471 246
l 187 247 248 249 250 137
l 81 491 251
l 252 516 84
l 252 253 254 255
l 252 482 256
l 252 257 85
l 84 258 251
l 84 259 260 261
l 246 262 263
l 246 264 265 266 267 268
l 269 525 177
l 269 270 271 272 273 274 275 276 277 233
l 269 477 278
l 269 279 239
l 278 280 281 282 283 284
l 278 285 286 287 288 289
l 290 291 292 85
l 290 293 256
l 290 294 295 296
l 290 297 263
l 289 506 298
l 289 299 284
l 233 300 301
l 233 302 303
l 301 304 305 306 168
l 301 307 308 309 310 311
l 20 312 85
l 20 313 296
l 314 315 316 317
l 314 318 268
l 314 319 320 321 322 323
l 268 505 324
l 325 518 256
l 325 326 317
l 325 485 323
l 256 327 328
l 328 329 330 331 332 333
l 328 334 335 324
l 328 524 317
l 263 336 337 150
l 263 338 323
l 150 339 296
l 60 340 71
l 60 341 303
l 342 511 343
l 342 489 344
l 342 345 346 347 348
l 229 349 350 351 298
l 229 352 353 354 355 356 357 358
l 359 490 360
l 359 361 362 363 364 360
l 359 501 73
l 73 512 28
l 73 365 344
l 360 504 343
l 296 366 367 23
l 343 368 348
l 343 369 370
l 333 371 372
l 333 373 255
l 333 374 375
l 303 376 377 378 32
l 303 520 58
l 348 379 380
l 375 381 382 383 384 385 324
l 375 386 387
l 372 388 387
l 372 389 390
l 372 391 392
l 392 499 393
l 392 394 390
l 392 395 396
l 58 397 398 399 77
l 400 401 402 380
l 400 403 404
l 400 405 406
l 67 407 177
l 67 408 16
l 255 476 261
l 255 409 390
l 16 410 239
l 124 411 412
l 124 413 414
l 124 415 416 417 393
l 119 418 412
l 119 419 420 406
l 412 421 422 414
l 122 423 406
l 122 424 425 404
l 122 426 427 428 429 430 431 261
l 404 432 7
l 404 433 434 370
l 358 475 284
l 358 435 436 298
l 390 500 117
l 437 492 396
l 437 438 393
l 437 481 414
l 393 439 117
l 396 440 441 442 387
l 117 443 261
l 311 444 445 446 447 448
l 311 470 32
l 32 449 77
l 380 523 370
l 7 450 26
l 7 451 28
l 251 478 216
l 251 452 453 454 455 456 457 458 459 26
l 216 460 461 462 463 211
l 79 464 344
l 26 465 448
l 448 466 467 468 168
l 18 474 239
l 28 469 370
