v 0.021315 -0.038038 0.459274
v 0.000000 -0.038092 0.459278
v 0.025510 -0.067595 0.459282
v 0.025987 -0.110296 0.459282
v 0.032243 -0.036957 0.459250
v 0.040240 -0.032613 0.459186
v 0.046774 -0.024608 0.459256
v 0.048840 -0.015714 0.459239
v 0.020980 -0.029665 0.454476
v 0.020978 -0.028259 0.444156
v 0.000000 -0.028259 0.444187
v 0.035490 -0.024408 0.444162
v 0.039356 -0.015129 0.444234
v 0.021425 -0.028206 0.422982
v 0.040628 -0.015012 0.454268
v 0.049127 0.004689 0.459212
v -0.147941 0.014400 0.443385
v -0.147650 0.013303 0.453785
v -0.147447 0.004570 0.459267
v -0.153299 0.014513 0.443011
v -0.049184 0.014398 0.444152
v -0.126444 0.014419 0.422959
v -0.117298 -0.013131 0.422982
v -0.103014 -0.040453 0.422982
v -0.048858 0.013759 0.422971
v -0.136454 0.014379 0.421848
v -0.143615 0.014341 0.416630
v -0.147093 0.014392 0.402117
v 0.000000 -0.029710 0.454573
v -0.021314 -0.038038 0.459274
v 0.000000 -0.110296 0.459282
v -0.159056 0.013023 0.442874
v -0.163876 0.004243 0.442920
v -0.153935 0.014434 -0.040055
v 0.040759 0.009595 0.444145
v 0.049184 0.014398 0.444152
v 0.039081 -0.015529 0.422979
v -0.120878 -0.050446 0.402621
v -0.137973 -0.016627 0.402622
v -0.117910 -0.054978 0.402598
v -0.114844 -0.059338 0.402536
v -0.123466 -0.046143 0.181892
v -0.119708 -0.050049 0.413734
v -0.116748 -0.048274 0.418754
v 0.000000 -0.028259 0.422982
v -0.020978 -0.028259 0.444156
v -0.111184 -0.059651 0.416458
v -0.095794 -0.059427 0.422982
v -0.118458 -0.055472 0.181960
v -0.160237 -0.027627 0.442880
v -0.151811 -0.058456 0.442880
v -0.138795 -0.087688 0.442880
v -0.124338 -0.110425 0.442663
v -0.163862 0.004182 -0.038169
v -0.160479 0.004345 0.452854
v 0.035140 -0.024361 0.422974
v 0.049207 0.012636 0.455098
v 0.147447 0.004570 0.459267
v 0.000000 0.014402 -0.143816
v 0.000000 0.038904 -0.134047
v 0.000000 0.059770 -0.121543
v 0.000000 0.105614 -0.078871
v -0.090850 0.014452 -0.143283
v 0.000000 0.014399 -0.444473
v 0.090851 0.014452 -0.143283
v 0.131236 0.014401 -0.011267
v 0.131236 0.014401 -0.042602
v 0.131236 0.014401 0.181892
v 0.131236 0.057795 -0.014969
v 0.131236 0.094013 -0.009994
v -0.115621 0.110354 0.181892
v -0.114829 0.110420 -0.009945
v -0.088739 0.110420 0.181893
v -0.127584 0.103472 0.181905
v -0.130952 0.093909 0.181896
v 0.124622 -0.110300 -0.038177
v 0.138770 -0.087679 -0.038195
v 0.151780 -0.058457 -0.038195
v 0.160204 -0.027596 -0.038195
v 0.163862 0.004182 -0.038169
v 0.121864 -0.110303 -0.090494
v 0.115472 -0.110302 -0.137195
v 0.091759 -0.110302 -0.228376
v 0.072466 -0.110303 -0.277074
v 0.051511 -0.110303 -0.319305
v 0.000000 -0.110286 -0.398159
v 0.124339 -0.110425 0.442663
v -0.147125 0.014401 0.181892
v 0.039796 0.005848 0.422976
v 0.043220 0.011595 0.422954
v 0.048858 0.013759 0.422971
v 0.000000 -0.033431 0.422982
v 0.000000 -0.038606 0.422982
v -0.021425 -0.028206 0.422982
v 0.153935 0.014434 -0.040055
v 0.153299 0.014513 0.443011
v 0.161507 0.010980 -0.038525
v 0.151138 0.014405 -0.093044
v 0.142940 0.014405 -0.150282
v 0.129543 0.014405 -0.206382
v 0.112946 0.014406 -0.256084
v 0.089970 0.014407 -0.308934
v 0.064557 0.014405 -0.355611
v 0.035719 0.014407 -0.399363
v 0.000000 -0.054689 0.181892
v 0.000000 -0.059427 0.422982
v 0.000000 0.110420 0.181893
v 0.118459 -0.055472 0.181960
v 0.022373 -0.037382 0.422982
v 0.040827 -0.031586 0.422982
v 0.057659 -0.031785 0.422982
v 0.087928 -0.033096 0.422982
v 0.103015 -0.040453 0.422982
v -0.022372 -0.037382 0.422982
v -0.040826 -0.031586 0.422982
v -0.057658 -0.031785 0.422982
v -0.087927 -0.033096 0.422982
v -0.131236 0.014401 -0.011267
v -0.131236 0.057795 -0.014969
v -0.131236 0.094013 -0.009994
v -0.131236 0.014401 -0.042602
v -0.131236 0.014401 0.181892
v 0.104018 -0.110296 0.459282
v -0.124621 -0.110300 -0.038177
v -0.138770 -0.087679 -0.038195
v -0.151779 -0.058457 -0.038195
v -0.160203 -0.027596 -0.038195
v -0.121863 -0.110303 -0.090494
v -0.115472 -0.110302 -0.137195
v -0.091758 -0.110302 -0.228376
v -0.072465 -0.110303 -0.277074
v -0.051510 -0.110303 -0.319305
v 0.147942 0.014400 0.443385
v 0.130915 0.014285 -0.099056
v 0.124690 0.014433 -0.119977
v -0.161507 0.010980 -0.038525
v -0.151137 0.014405 -0.093044
v -0.142939 0.014405 -0.150282
v -0.129543 0.014405 -0.206382
v -0.112946 0.014406 -0.256084
v -0.089969 0.014407 -0.308934
v -0.064557 0.014405 -0.355611
v -0.035719 0.014407 -0.399363
v 0.160797 0.004186 -0.095545
v 0.152489 0.004187 -0.152836
v 0.139019 0.004187 -0.209108
v 0.120497 0.004188 -0.263915
v 0.097099 0.004187 -0.316770
v 0.069328 0.004188 -0.366755
v 0.036793 0.004189 -0.414566
v 0.000000 0.004185 -0.459288
v 0.163876 0.004243 0.442920
v 0.126444 0.014419 0.422959
v 0.000000 0.012065 -0.454079
v 0.095795 -0.059427 0.422982
v -0.025986 -0.110296 0.459282
v -0.130914 0.014285 -0.099056
v -0.124690 0.014433 -0.119977
v -0.160797 0.004186 -0.095545
v -0.152489 0.004187 -0.152836
v -0.139019 0.004187 -0.209108
v -0.120497 0.004188 -0.263915
v -0.097099 0.004187 -0.316770
v -0.069328 0.004188 -0.366755
v -0.036793 0.004189 -0.414566
v 0.120701 -0.050838 0.181891
v 0.123466 -0.046143 0.181892
v 0.114845 -0.059338 0.402536
v 0.120878 -0.050446 0.402621
v 0.137954 -0.016549 0.181892
v 0.147126 0.014401 0.181892
v 0.000000 -0.083561 -0.424234
v 0.000000 -0.056911 -0.441882
v 0.000000 -0.027310 -0.453912
v 0.121665 -0.084573 0.459288
v 0.135025 -0.056382 0.459288
v 0.143702 -0.026318 0.459288
v 0.117524 -0.110450 0.455150
v 0.000000 0.110420 -0.009514
v 0.088403 0.110420 -0.009704
v -0.088403 0.110420 -0.009704
v 0.000000 0.110420 -0.051517
v 0.117298 -0.013131 0.422982
v 0.116748 -0.048274 0.418754
v 0.119708 -0.050049 0.413734
v 0.147093 0.014392 0.402117
v 0.124527 0.107236 -0.009964
v 0.114829 0.110420 -0.009945
v 0.130290 0.096359 -0.036174
v 0.120453 0.101571 -0.059708
v 0.130953 0.093909 0.181896
v 0.160479 0.004345 0.452854
v 0.147651 0.013303 0.453785
v -0.130289 0.096359 -0.036174
v -0.120452 0.101571 -0.059708
v -0.124526 0.107236 -0.009964
v 0.111184 -0.059651 0.416458
v 0.088398 0.110420 -0.047710
v 0.088740 0.110420 0.181893
v -0.032243 -0.036957 0.459250
v -0.040239 -0.032613 0.459186
v -0.046773 -0.024608 0.459256
v -0.048840 -0.015714 0.459239
v -0.020979 -0.029665 0.454476
v -0.025509 -0.067595 0.459282
v 0.138795 -0.087688 0.442880
v 0.151812 -0.058456 0.442880
v 0.160237 -0.027627 0.442880
v -0.088398 0.110420 -0.047710
v -0.035490 -0.024408 0.444162
v -0.039355 -0.015129 0.444234
v -0.049126 0.004689 0.459212
v -0.040627 -0.015012 0.454268
v 0.113659 0.110442 -0.035536
v 0.108576 0.110450 -0.050365
v 0.115622 0.110354 0.181892
v 0.136454 0.014379 0.421848
v 0.143616 0.014341 0.416630
v -0.040759 0.009595 0.444145
v -0.039080 -0.015529 0.422979
v 0.074558 0.110420 -0.051095
v -0.074557 0.110420 -0.051095
v 0.000000 0.110418 -0.067281
v -0.113659 0.110442 -0.035536
v -0.108575 0.110450 -0.050365
v -0.035140 -0.024361 0.422974
v -0.049206 0.012636 0.455098
v 0.159056 0.013023 0.442874
v 0.123771 0.039033 -0.110236
v 0.124322 0.085843 -0.068052
v 0.110542 0.014449 -0.135695
v -0.120701 -0.050838 0.181891
v -0.123770 0.039033 -0.110236
v -0.124321 0.085843 -0.068052
v -0.110541 0.014449 -0.135695
v -0.137953 -0.016549 0.181892
v 0.137973 -0.016627 0.402622
v 0.117910 -0.054978 0.402598
v -0.039795 0.005848 0.422976
v -0.043220 0.011595 0.422954
v -0.104018 -0.110296 0.459282
v 0.098802 0.110420 -0.046721
v 0.090450 0.109856 -0.070984
v 0.090623 0.105668 -0.078342
v -0.098802 0.110420 -0.046721
v -0.090450 0.109856 -0.070984
v -0.090623 0.105668 -0.078342
v -0.105151 0.104615 -0.073420
v -0.113612 0.109504 -0.053238
v 0.105151 0.104615 -0.073420
v 0.113613 0.109504 -0.053238
v 0.127584 0.103472 0.181905
v -0.090484 0.038117 -0.134094
v -0.090543 0.060232 -0.120821
v 0.090484 0.038117 -0.134094
v 0.090544 0.060232 -0.120821
v -0.121665 -0.084573 0.459288
v -0.135025 -0.056382 0.459288
v -0.143701 -0.026318 0.459288
v -0.117523 -0.110450 0.455150
v -0.098562 0.014399 0.443769
v 0.087651 0.014089 0.422965
v -0.131094 0.093961 0.085951
v 0.000000 0.110420 0.086189
v 0.150620 0.014457 0.443198
v -0.010712 -0.028233 0.422982
v 0.049021 0.014078 0.433561
v 0.115225 0.110387 0.085973
v 0.102181 0.110387 0.181892
v -0.010489 -0.028259 0.444171
v 0.010713 -0.028233 0.422982
v -0.098286 0.004630 0.459239
v -0.045311 0.105641 -0.078607
v -0.142586 0.014417 -0.041329
v -0.131094 0.054155 0.181894
v 0.010489 -0.028259 0.444171
v 0.039218 -0.015329 0.433607
v -0.139180 0.014401 0.181892
v -0.065002 -0.110296 0.459282
v 0.044370 0.110420 0.181893
v -0.049021 0.014078 0.433561
v -0.059229 -0.055080 0.181926
v -0.163869 0.004213 0.202376
v -0.099404 -0.049940 0.422982
v -0.088571 0.110420 0.086095
v -0.047897 -0.059427 0.422982
v 0.131236 0.014401 0.085313
v 0.000000 -0.057058 0.302437
v 0.098287 0.004630 0.459239
v -0.150620 0.014457 0.443198
v -0.012993 -0.110296 0.459282
v 0.000000 -0.074194 0.459280
v 0.163869 0.004213 0.202376
v 0.116652 -0.057405 0.292248
v 0.045312 0.105641 -0.078607
v 0.065002 -0.110296 0.459282
v 0.059230 -0.055080 0.181926
v 0.012994 -0.110296 0.459282
v 0.139181 0.014401 0.181892
v 0.047898 -0.059427 0.422982
v 0.000000 -0.028259 0.433584
v -0.131236 0.014401 0.085313
v -0.045425 0.014427 -0.143549
v 0.131095 0.093961 0.085951
v -0.044369 0.110420 0.181893
v 0.044202 0.110420 -0.009609
v 0.101616 0.110420 -0.009825
v -0.153617 0.014473 0.201478
v 0.099405 -0.049940 0.422982
v 0.045426 0.014427 -0.143549
v -0.087651 0.014089 0.422965
v -0.102180 0.110387 0.181892
v 0.000000 0.110420 -0.030516
v 0.098563 0.014399 0.443769
v -0.122172 -0.048295 0.292256
v 0.088572 0.110420 0.086095
v 0.000000 -0.049016 0.422982
v -0.048983 -0.005512 0.459225
v -0.124480 -0.110362 0.202243
v 0.000000 0.027865 0.181892
v -0.021202 -0.028233 0.433569
v -0.147109 0.014396 0.292005
v 0.153617 0.014473 0.201478
v 0.131095 0.054155 0.181894
v 0.000000 -0.110291 0.030561
v -0.131236 0.014401 -0.026934
v 0.122172 -0.048295 0.292256
v 0.010658 -0.038065 0.459276
v 0.131236 0.014401 -0.026934
v 0.021202 -0.028233 0.433569
v -0.101616 0.110420 -0.009825
v -0.039217 -0.015329 0.433607
v 0.124481 -0.110362 0.202243
v 0.048984 -0.005512 0.459225
v -0.010657 -0.038065 0.459276
v 0.000000 0.014401 -0.294145
v -0.115225 0.110387 0.085973
v -0.044201 0.110420 -0.009609
v -0.116651 -0.057405 0.292248
v -0.088400 0.110420 -0.028707
v 0.147109 0.014396 0.292005
v 0.088400 0.110420 -0.028707
v 0.142586 0.014417 -0.041329
l 1 328 2
l 1 3 4
l 1 5 6 7 8
l 1 9 10
l 10 276 11
l 10 12 13
l 10 330 14
l 8 15 13
l 8 334 16
l 17 18 19
l 17 290 20
l 17 261 21
l 22 23 24
l 22 311 25
l 22 26 27 28
l 2 29 11
l 2 335 30
l 2 292 31
l 20 32 33
l 20 308 34
l 13 35 36
l 13 277 37
l 38 39 28
l 38 40 41
l 38 315 42
l 38 43 44 24
l 11 301 45
l 11 270 46
l 41 47 48
l 41 339 49
l 33 50 51 52 53
l 33 283 54
l 33 55 19
l 14 56 37
l 14 271 45
l 16 57 36
l 16 289 58
l 59 60 61 62
l 59 303 63
l 59 336 64
l 59 310 65
l 66 329 67
l 66 287 68
l 66 69 70
l 71 337 72
l 71 312 73
l 71 74 75
l 76 77 78 79 80
l 76 81 82 83 84 85 86
l 76 333 87
l 28 322 88
l 37 89 90 91
l 45 92 93
l 45 266 94
l 95 343 67
l 95 323 96
l 95 97 80
l 95 98 99 100 101 102 103 104 64
l 105 288 106
l 105 320 107
l 105 282 49
l 105 297 108
l 93 109 110 111 112 113
l 93 114 115 116 117 24
l 93 317 106
l 118 119 120
l 118 326 121
l 118 302 122
l 4 296 123
l 4 298 31
l 124 319 53
l 124 125 126 127 54
l 124 128 129 130 131 132 86
l 36 314 133
l 36 267 91
l 67 134 135
l 34 274 121
l 34 136 54
l 34 137 138 139 140 141 142 143 64
l 80 144 145 146 147 148 149 150 151
l 80 293 152
l 91 262 153
l 64 154 151
l 106 300 155
l 106 286 48
l 31 291 156
l 31 325 86
l 121 157 158
l 54 159 160 161 162 163 164 165 151
l 108 166 167
l 108 294 168
l 167 327 169
l 167 170 171
l 86 172 173 174 151
l 123 175 176 177 58
l 123 178 87
l 179 306 180
l 179 264 107
l 179 338 181
l 179 313 182
l 113 183 153
l 113 184 185 169
l 113 309 155
l 171 299 68
l 171 341 186
l 70 187 188
l 70 189 190
l 70 304 191
l 58 192 152
l 58 193 133
l 120 263 75
l 120 194 195
l 120 196 72
l 68 324 191
l 155 197 168
l 180 307 188
l 180 342 198
l 180 316 199
l 30 200 201 202 203
l 30 204 46
l 30 205 156
l 87 206 207 208 152
l 181 285 73
l 181 331 72
l 181 340 209
l 46 321 94
l 46 210 211
l 203 318 212
l 203 213 211
l 188 214 215
l 188 268 216
l 153 217 218 186
l 133 265 96
l 211 219 21
l 211 332 220
l 182 221 198
l 182 222 209
l 182 223 62
l 72 224 225
l 94 226 220
l 212 227 21
l 212 272 19
l 96 228 152
l 135 229 230 190
l 135 231 65
l 49 232 42
l 158 233 234 195
l 158 235 63
l 42 236 88
l 169 237 186
l 169 238 168
l 220 239 240 25
l 107 305 73
l 107 280 199
l 88 278 122
l 156 279 241
l 21 281 25
l 198 242 215
l 198 243 244
l 209 245 225
l 209 246 247
l 122 275 75
l 195 248 247
l 195 249 225
l 190 250 244
l 190 251 215
l 191 252 216
l 199 269 216
l 62 273 247
l 62 295 244
l 63 253 254 247
l 65 255 256 244
l 241 257 258 259 19
l 241 260 53
l 24 284 48
