v 0.124453 0.027608 0.121962
v 0.121464 0.042907 0.121748
v 0.117621 0.124595 0.110435
v 0.112853 0.158679 0.104386
v 0.097414 0.225423 0.089230
v 0.089017 0.048030 0.147365
v 0.069093 0.059558 0.156259
v 0.048102 0.071725 0.162450
v 0.004412 0.097200 0.166008
v -0.017220 0.109794 0.163303
v -0.057280 0.133134 0.149641
v -0.075212 0.143451 0.139111
v -0.105951 0.161169 0.111857
v 0.136193 0.005337 0.123456
v 0.164727 -0.023339 0.138542
v 0.152274 0.011670 0.087735
v 0.162734 0.005692 0.067812
v 0.175330 -0.001494 0.023481
v 0.177109 -0.002490 -0.000000
v 0.175330 -0.001494 -0.023481
v 0.162734 0.005692 -0.067812
v 0.152274 0.011670 -0.087735
v 0.124453 0.027608 -0.121962
v -0.097414 -0.225423 0.089230
v -0.118262 -0.219019 0.064610
v -0.126160 -0.216600 0.050094
v -0.135909 -0.213611 0.017505
v -0.137260 -0.213256 -0.000000
v -0.135909 -0.213611 -0.017505
v -0.126160 -0.216600 -0.050094
v -0.118262 -0.219019 -0.064610
v -0.097414 -0.225423 -0.089230
v -0.112853 -0.158679 0.104386
v -0.117621 -0.124595 0.110435
v -0.121464 -0.042907 0.121748
v -0.124453 -0.027608 0.121962
v -0.078272 -0.276086 0.071797
v -0.052940 -0.316218 0.052015
v -0.039990 -0.330521 0.041057
v -0.019781 -0.346816 0.021987
v 0.001707 -0.353149 -0.000000
v -0.084818 -0.229336 0.099121
v -0.056284 -0.238374 0.113424
v -0.024549 -0.248549 0.119757
v -0.008254 -0.253885 0.119614
v 0.007543 -0.259008 0.117337
v 0.036432 -0.268402 0.106806
v 0.070587 -0.279147 0.079054
v -0.070587 0.279147 0.079054
v -0.092289 0.285764 0.041697
v -0.099975 0.288041 0.000000
v -0.092289 0.285764 -0.041697
v -0.070587 0.279147 -0.079054
v -0.057851 0.306186 0.063613
v -0.039136 0.334648 0.038353
v -0.024193 0.346104 0.022201
v -0.001707 0.353149 -0.000000
v -0.036432 0.268402 0.106806
v -0.007543 0.259008 0.117337
v 0.008254 0.253885 0.119614
v 0.024549 0.248549 0.119757
v 0.056284 0.238374 0.113424
v 0.084818 0.229336 0.099121
v -0.087096 0.230760 0.097840
v 0.105951 -0.161169 -0.111857
v 0.087096 -0.230760 -0.097840
v 0.070587 -0.279147 -0.079054
v 0.108015 -0.141174 -0.124737
v 0.113424 -0.137260 -0.138328
v 0.118475 -0.168356 -0.095634
v 0.137260 -0.179101 -0.059486
v 0.143380 -0.182587 -0.040062
v 0.148361 -0.185433 0.000000
v 0.143380 -0.182587 0.040062
v 0.137260 -0.179101 0.059486
v 0.118475 -0.168356 0.095634
v 0.105951 -0.161169 0.111857
v 0.075212 -0.143451 -0.139111
v 0.057280 -0.133134 -0.149641
v 0.017220 -0.109794 -0.163303
v -0.004412 -0.097200 -0.166008
v -0.048102 -0.071725 -0.162450
v -0.069093 -0.059558 -0.156259
v -0.089017 -0.048030 -0.147365
v -0.124453 -0.027608 -0.121962
v 0.174333 -0.100615 -0.179599
v 0.165082 -0.113352 -0.178175
v 0.153698 -0.123670 -0.173906
v 0.140890 -0.130643 -0.167218
v 0.128793 -0.134841 -0.158394
v 0.150068 -0.086669 -0.201515
v 0.123243 -0.071156 -0.220016
v 0.094353 -0.054435 -0.234674
v 0.063827 -0.036859 -0.245347
v 0.032162 -0.018572 -0.251822
v 0.000000 -0.000000 -0.254028
v -0.032162 0.018572 -0.251822
v -0.063827 0.036859 -0.245347
v -0.094353 0.054435 -0.234674
v -0.123243 0.071156 -0.220016
v -0.150068 0.086669 -0.201515
v -0.174333 0.100615 -0.179599
v 0.195537 -0.112925 -0.154622
v 0.213469 -0.123243 -0.127014
v 0.227700 -0.131497 -0.097200
v 0.238089 -0.137474 -0.065749
v 0.244351 -0.141103 -0.033158
v 0.246486 -0.142312 0.000000
v 0.244351 -0.141103 0.033158
v 0.238089 -0.137474 0.065749
v 0.227700 -0.131497 0.097200
v 0.213469 -0.123243 0.127014
v 0.195537 -0.112925 0.154622
v 0.174333 -0.100615 0.179599
v 0.180666 -0.086241 -0.178175
v 0.183939 -0.071298 -0.173906
v 0.183583 -0.056641 -0.167218
v 0.180026 -0.043476 -0.158394
v 0.164727 -0.023339 -0.138542
v -0.108015 0.141174 0.124737
v -0.113424 0.137260 0.138328
v -0.118475 0.168356 0.095634
v -0.137260 0.179101 0.059486
v -0.143380 0.182587 0.040062
v -0.148361 0.185433 0.000000
v -0.143380 0.182587 -0.040062
v -0.137260 0.179101 -0.059486
v -0.118475 0.168356 -0.095634
v -0.105951 0.161169 -0.111857
v 0.123954 0.000214 -0.169636
v 0.100828 0.013520 -0.180950
v 0.076493 0.027608 -0.189204
v 0.025545 0.056996 -0.195822
v -0.000142 0.071868 -0.194115
v -0.049738 0.100473 -0.180808
v -0.094140 0.126089 -0.155263
v -0.113424 0.137260 -0.138328
v 0.195964 -0.041413 -0.097983
v 0.207420 -0.047960 -0.074999
v 0.215675 -0.052798 -0.050735
v 0.222434 -0.056641 -0.000000
v 0.215675 -0.052798 0.050735
v 0.207420 -0.047960 0.074999
v 0.195964 -0.041413 0.097983
v 0.136193 0.005337 -0.123456
v 0.118262 0.219019 0.064610
v 0.126160 0.216600 0.050094
v 0.135909 0.213611 0.017505
v 0.137260 0.213256 -0.000000
v 0.135909 0.213611 -0.017505
v 0.126160 0.216600 -0.050094
v 0.118262 0.219019 -0.064610
v 0.097414 0.225423 -0.089230
v 0.078272 0.276086 0.071797
v 0.052940 0.316218 0.052015
v 0.039990 0.330521 0.041057
v 0.019781 0.346816 0.021987
v 0.024193 -0.346104 0.022201
v 0.039136 -0.334648 0.038353
v 0.057851 -0.306186 0.063613
v 0.024193 -0.346104 -0.022201
v 0.039136 -0.334648 -0.038353
v 0.057851 -0.306186 -0.063613
v -0.019781 -0.346816 -0.021987
v -0.039990 -0.330521 -0.041057
v -0.052940 -0.316218 -0.052015
v -0.078272 -0.276086 -0.071797
v -0.108015 0.141174 -0.124737
v -0.075212 0.143451 -0.139111
v -0.057280 0.133134 -0.149641
v -0.017220 0.109794 -0.163303
v 0.004412 0.097200 -0.166008
v 0.048102 0.071725 -0.162450
v 0.069093 0.059558 -0.156259
v 0.089017 0.048030 -0.147365
v -0.087096 0.230760 -0.097840
v -0.024193 0.346104 -0.022201
v -0.039136 0.334648 -0.038353
v -0.057851 0.306186 -0.063613
v 0.019781 0.346816 -0.021987
v 0.039990 0.330521 -0.041057
v 0.052940 0.316218 -0.052015
v 0.078272 0.276086 -0.071797
v 0.150068 -0.086669 0.201515
v 0.123243 -0.071156 0.220016
v 0.094353 -0.054435 0.234674
v 0.063827 -0.036859 0.245347
v 0.032162 -0.018572 0.251822
v 0.000000 -0.000000 0.254028
v -0.032162 0.018572 0.251822
v -0.063827 0.036859 0.245347
v -0.094353 0.054435 0.234674
v -0.123243 0.071156 0.220016
v -0.150068 0.086669 0.201515
v -0.174333 0.100615 0.179599
v 0.180666 -0.086241 0.178175
v 0.183939 -0.071298 0.173906
v 0.183583 -0.056641 0.167218
v 0.180026 -0.043476 0.158394
v 0.165082 -0.113352 0.178175
v 0.153698 -0.123670 0.173906
v 0.140890 -0.130643 0.167218
v 0.128793 -0.134841 0.158394
v 0.113424 -0.137260 0.138328
v -0.164727 0.023339 -0.138542
v -0.123954 -0.000214 -0.169636
v -0.100828 -0.013520 -0.180950
v -0.076493 -0.027608 -0.189204
v -0.025545 -0.056996 -0.195822
v 0.000142 -0.071868 -0.194115
v 0.049738 -0.100473 -0.180808
v 0.094140 -0.126089 -0.155263
v -0.136193 -0.005337 -0.123456
v -0.180026 0.043476 -0.158394
v -0.183583 0.056641 -0.167218
v -0.183939 0.071298 -0.173906
v -0.180666 0.086241 -0.178175
v -0.195964 0.041413 -0.097983
v -0.207420 0.047960 -0.074999
v -0.215675 0.052798 -0.050735
v -0.222434 0.056641 -0.000000
v -0.215675 0.052798 0.050735
v -0.207420 0.047960 0.074999
v -0.195964 0.041413 0.097983
v -0.164727 0.023339 0.138542
v 0.123954 0.000214 0.169636
v 0.100828 0.013520 0.180950
v 0.076493 0.027608 0.189204
v 0.025545 0.056996 0.195822
v -0.000142 0.071868 0.194115
v -0.049738 0.100473 0.180808
v -0.094140 0.126089 0.155263
v 0.036432 -0.268402 -0.106806
v 0.007543 -0.259008 -0.117337
v -0.008254 -0.253885 -0.119614
v -0.024549 -0.248549 -0.119757
v -0.056284 -0.238374 -0.113424
v -0.084818 -0.229336 -0.099121
v 0.092289 -0.285764 -0.041697
v 0.099975 -0.288041 0.000000
v 0.092289 -0.285764 0.041697
v -0.112853 -0.158679 -0.104386
v -0.117621 -0.124595 -0.110435
v -0.121464 -0.042907 -0.121748
v -0.136193 -0.005337 0.123456
v -0.180026 0.043476 0.158394
v -0.183583 0.056641 0.167218
v -0.183939 0.071298 0.173906
v -0.180666 0.086241 0.178175
v -0.123954 -0.000214 0.169636
v -0.100828 -0.013520 0.180950
v -0.076493 -0.027608 0.189204
v -0.025545 -0.056996 0.195822
v 0.000142 -0.071868 0.194115
v 0.049738 -0.100473 0.180808
v 0.094140 -0.126089 0.155263
v -0.036432 0.268402 -0.106806
v -0.007543 0.259008 -0.117337
v 0.008254 0.253885 -0.119614
v 0.024549 0.248549 -0.119757
v 0.056284 0.238374 -0.113424
v 0.084818 0.229336 -0.099121
v -0.195537 0.112925 0.154622
v -0.213469 0.123243 0.127014
v -0.227700 0.131497 0.097200
v -0.238089 0.137474 0.065749
v -0.244351 0.141103 0.033158
v -0.246486 0.142312 0.000000
v -0.244351 0.141103 -0.033158
v -0.238089 0.137474 -0.065749
v -0.227700 0.131497 -0.097200
v -0.213469 0.123243 -0.127014
v -0.195537 0.112925 -0.154622
v -0.165082 0.113352 0.178175
v -0.153698 0.123670 0.173906
v -0.140890 0.130643 0.167218
v -0.128793 0.134841 0.158394
v 0.112853 0.158679 -0.104386
v 0.117621 0.124595 -0.110435
v 0.121464 0.042907 -0.121748
v -0.144661 0.155263 0.097840
v -0.155974 0.161810 0.074857
v -0.169281 0.169494 0.025545
v -0.170989 0.170419 0.000000
v -0.169281 0.169494 -0.025545
v -0.155974 0.161810 -0.074857
v -0.144661 0.155263 -0.097840
v 0.144661 -0.155263 0.097840
v 0.155974 -0.161810 0.074857
v 0.169281 -0.169494 0.025545
v 0.170989 -0.170419 0.000000
v 0.169281 -0.169494 -0.025545
v 0.155974 -0.161810 -0.074857
v 0.144661 -0.155263 -0.097840
v 0.108015 -0.141174 0.124737
v -0.152274 -0.011670 -0.087735
v -0.162734 -0.005692 -0.067812
v -0.175330 0.001494 -0.023481
v -0.177109 0.002490 -0.000000
v -0.175330 0.001494 0.023481
v -0.162734 -0.005692 0.067812
v -0.152274 -0.011670 0.087735
v -0.165082 0.113352 -0.178175
v -0.153698 0.123670 -0.173906
v -0.140890 0.130643 -0.167218
v -0.128793 0.134841 -0.158394
v -0.089017 -0.048030 0.147365
v -0.069093 -0.059558 0.156259
v -0.048102 -0.071725 0.162450
v -0.004412 -0.097200 0.166008
v 0.017220 -0.109794 0.163303
v 0.057280 -0.133134 0.149641
v 0.075212 -0.143451 0.139111
v 0.087096 -0.230760 0.097840
l 1 2 3 4 5
l 1 6 7 8 9 10 11 12 13
l 1 14 15
l 1 16 17 18 19 20 21 22 23
l 24 25 26 27 28 29 30 31 32
l 24 33 34 35 36
l 24 37 38 39 40 41
l 24 42 43 44 45 46 47 48
l 49 50 51 52 53
l 49 54 55 56 57
l 49 58 59 60 61 62 63 5
l 49 64 13
l 65 66 67
l 65 68 69
l 65 70 71 72 73 74 75 76 77
l 65 78 79 80 81 82 83 84 85
l 86 87 88 89 90 69
l 86 91 92 93 94 95 96 97 98 99 100 101 102
l 86 103 104 105 106 107 108 109 110 111 112 113 114
l 86 115 116 117 118 119
l 13 120 121
l 13 122 123 124 125 126 127 128 129
l 119 130 131 132 133 134 135 136 137
l 119 138 139 140 141 142 143 144 15
l 119 145 23
l 5 146 147 148 149 150 151 152 153
l 5 154 155 156 157 57
l 41 158 159 160 48
l 41 161 162 163 67
l 41 164 165 166 167 32
l 129 168 137
l 129 169 170 171 172 173 174 175 23
l 129 176 53
l 57 177 178 179 53
l 57 180 181 182 183 153
l 114 184 185 186 187 188 189 190 191 192 193 194 195
l 114 196 197 198 199 15
l 114 200 201 202 203 204
l 205 206 207 208 209 210 211 212 69
l 205 213 85
l 205 214 215 216 217 102
l 205 218 219 220 221 222 223 224 225
l 15 226 227 228 229 230 231 232 121
l 67 233 234 235 236 237 238 32
l 67 239 240 241 48
l 32 242 243 244 85
l 225 245 36
l 225 246 247 248 249 195
l 225 250 251 252 253 254 255 256 204
l 53 257 258 259 260 261 262 153
l 195 263 264 265 266 267 268 269 270 271 272 273 102
l 195 274 275 276 277 121
l 153 278 279 280 23
l 121 281 282 283 284 285 286 287 137
l 204 288 289 290 291 292 293 294 69
l 204 295 77
l 85 296 297 298 299 300 301 302 36
l 102 303 304 305 306 137
l 36 307 308 309 310 311 312 313 77
l 48 314 77
