v 0.000192 -0.167270 0.084797
v 0.006027 -0.173452 0.083283
v 0.000037 -0.166678 0.096519
v -0.000108 -0.162928 0.107471
v -0.005804 -0.173173 0.082144
v -0.000222 0.068306 0.132315
v 0.013498 0.082504 0.132496
v -0.014425 0.054580 0.132127
v 0.013982 0.054109 0.132503
v -0.014425 0.082520 0.132127
v -0.000377 -0.153882 0.127745
v -0.006853 -0.153044 0.119301
v -0.000337 -0.135148 0.124709
v -0.000256 -0.170748 0.118711
v 0.006065 -0.153288 0.120422
v 0.000235 -0.179881 0.081551
v -0.000022 -0.178285 0.100979
v -0.083463 -0.121585 0.003111
v -0.080048 -0.121608 0.024815
v -0.071887 -0.121619 0.045168
v -0.058735 -0.121615 0.062719
v -0.041485 -0.121597 0.076267
v -0.021338 -0.121572 0.084927
v 0.000128 -0.121844 0.089690
v -0.080644 -0.153965 0.003111
v -0.072859 -0.185484 0.003194
v -0.065060 -0.199663 0.003303
v -0.051641 -0.208346 0.003514
v -0.079370 -0.121546 -0.018341
v -0.070635 -0.121500 -0.038310
v -0.057071 -0.121446 -0.055380
v -0.039553 -0.121391 -0.068360
v -0.019297 -0.121346 -0.076401
v 0.002362 -0.121844 -0.078902
v 0.023979 -0.121844 -0.075300
v 0.044067 -0.121844 -0.066613
v 0.061244 -0.121844 -0.053036
v -0.185194 -0.217914 -0.213854
v -0.176270 -0.210542 -0.200528
v -0.169293 -0.208334 -0.184973
v -0.168681 -0.217794 -0.247568
v -0.144245 -0.217755 -0.274440
v -0.193965 -0.231573 -0.222639
v -0.201148 -0.248739 -0.226562
v -0.207916 -0.285938 -0.227946
v -0.200269 -0.218337 -0.151423
v -0.205251 -0.219005 -0.099105
v -0.203994 -0.219896 -0.046071
v -0.195893 -0.220860 0.006579
v -0.000437 0.088299 0.132312
v 0.019259 0.068550 0.132573
v 0.017547 0.079846 0.314046
v 0.079348 0.268290 0.214822
v 0.081704 0.253893 0.227857
v 0.085464 0.216004 0.244053
v 0.087379 0.173879 0.250182
v 0.086805 0.141783 0.249082
v -0.001336 0.269990 0.210942
v -0.081211 0.268195 0.211541
v 0.139604 0.267208 0.213461
v 0.178564 0.265240 0.206553
v 0.196467 0.263239 0.199743
v 0.212831 0.268270 0.166694
v 0.217023 0.268724 0.146912
v 0.219238 0.267415 0.105516
v 0.085352 0.280734 0.177391
v 0.087808 0.281836 0.112843
v -0.044559 -0.208367 0.029901
v -0.036261 -0.208365 0.040876
v -0.025463 -0.208354 0.049405
v 0.000547 -0.208671 0.058054
v -0.043551 -0.208292 -0.022281
v -0.035080 -0.208259 -0.032910
v -0.011570 -0.208199 -0.046097
v 0.015421 -0.208671 -0.044979
v 0.038624 -0.208671 -0.031006
v 0.000369 -0.199817 0.071541
v 0.000261 -0.185801 0.079579
v 0.000157 -0.154273 0.087460
v 0.026730 -0.208671 0.050982
v 0.037645 -0.208671 0.042771
v 0.051618 -0.208671 0.019569
v 0.053904 -0.208671 0.006092
v 0.051976 -0.208671 -0.007442
v -0.002844 0.059454 0.313789
v -0.023234 0.039062 0.313520
v -0.023234 0.079847 0.313506
v 0.017546 0.039063 0.314061
v -0.178227 -0.221849 0.056690
v -0.156917 -0.222565 0.089897
v -0.129032 -0.223190 0.116543
v -0.096739 -0.223673 0.135951
v -0.231673 -0.250430 0.021546
v -0.244814 -0.267499 0.028012
v -0.250002 -0.285138 0.030795
v -0.180702 -0.212023 0.001382
v -0.172863 -0.208599 -0.001239
v -0.260111 0.141599 0.111213
v -0.257031 0.141761 0.023059
v -0.233115 0.142054 -0.129240
v -0.226576 0.142223 -0.150750
v -0.207010 0.143039 -0.191519
v -0.180264 0.143864 -0.228082
v -0.164050 0.144045 -0.243711
v -0.261995 0.152343 0.113298
v -0.259758 0.173210 0.113579
v -0.247555 0.216304 0.111342
v -0.227797 0.253825 0.103739
v -0.217506 0.266519 0.097253
v -0.252244 0.141537 0.154634
v -0.243516 0.141518 0.174936
v -0.230997 0.141510 0.193120
v -0.215065 0.141515 0.208381
v -0.196528 0.141529 0.220354
v 0.025996 0.059454 0.314172
v -0.002842 0.088299 0.313745
v -0.031688 0.059454 0.313408
v -0.020047 0.048020 0.245916
v -0.002843 0.030610 0.313791
v -0.089170 -0.213152 0.122058
v -0.085667 -0.208564 0.107519
v -0.049938 -0.224064 0.151617
v -0.001492 -0.224134 0.157767
v 0.035381 -0.224272 0.155427
v 0.083709 -0.223879 0.144230
v -0.115475 -0.253650 0.157475
v -0.122528 -0.270234 0.164127
v -0.125320 -0.287155 0.166907
v -0.020235 0.068550 0.132050
v -0.000437 0.048801 0.132312
v -0.183448 0.122726 0.202926
v -0.163363 0.111114 0.169379
v -0.077475 0.111118 0.173042
v -0.019061 0.111134 0.164570
v 0.036794 0.111158 0.142527
v 0.067480 0.111177 0.120096
v 0.100205 0.111207 0.080483
v 0.126712 0.111250 0.025631
v 0.140305 0.111285 -0.029265
v 0.141793 0.111304 -0.071158
v 0.159527 0.111316 -0.126788
v 0.161901 0.111301 -0.142884
v -0.155165 0.141582 0.235573
v -0.089771 0.141690 0.245432
v -0.198525 0.152326 0.222911
v -0.197731 0.173214 0.223058
v -0.194178 0.214794 0.218955
v -0.185219 0.251316 0.207673
v -0.178657 0.264553 0.198778
v 0.000945 0.014085 0.028107
v 0.001086 0.014085 0.017406
v 0.011678 0.011010 0.034579
v 0.012972 0.007861 0.038464
v 0.000945 0.047822 0.028107
v -0.005648 0.013830 0.030191
v -0.011967 0.008263 0.037453
v 0.000622 0.047822 0.052434
v 0.000622 0.016542 0.052421
v 0.000674 0.001637 0.048498
v -0.010755 0.048176 0.046106
v -0.012125 0.048183 0.039492
v 0.007097 0.047822 0.051480
v 0.012946 0.047822 0.040431
v -0.090252 0.173771 0.246577
v -0.088076 0.215905 0.240533
v -0.083852 0.253784 0.224475
v -0.001836 0.141772 0.250217
v 0.011575 0.004713 0.042314
v -0.010453 0.005063 0.041353
v 0.000834 -0.007797 0.036391
v 0.001245 -0.010244 0.005395
v 0.007393 0.047822 0.029232
v -0.005713 0.048212 0.028383
v 0.007475 0.012395 0.016657
v 0.013328 0.001921 0.011560
v -0.005397 0.012838 0.015794
v -0.011519 0.002349 0.010501
v 0.016286 0.047871 0.246398
v -0.194909 -0.286368 -0.256140
v -0.177536 -0.286751 -0.281791
v -0.165632 -0.286888 -0.291672
v -0.151482 -0.286963 -0.297980
v -0.227526 -0.285023 -0.169029
v -0.240712 -0.284454 -0.108348
v -0.250037 -0.284736 -0.031273
v 0.172900 0.143613 -0.238180
v 0.188638 0.143487 -0.222076
v 0.214280 0.142771 -0.184733
v 0.232623 0.142055 -0.143400
v 0.238516 0.141931 -0.121707
v 0.258494 0.141903 0.032191
v 0.260205 0.141870 0.120990
v 0.155175 0.143698 -0.251807
v 0.093466 0.144611 -0.279250
v 0.175981 0.170165 -0.238144
v 0.174422 0.204304 -0.235060
v 0.164384 0.232296 -0.228084
v 0.156145 0.240825 -0.222799
v 0.163757 0.127476 -0.236915
v 0.142840 0.111260 -0.234685
v 0.013076 0.003145 0.030627
v 0.090614 0.129720 -0.280175
v 0.082168 0.111260 -0.280562
v 0.049857 0.145298 -0.290572
v -0.017101 0.146343 -0.294608
v -0.083408 0.145271 -0.282379
v 0.094594 0.169208 -0.277342
v 0.093146 0.201501 -0.269428
v 0.087185 0.228293 -0.254088
v 0.082617 0.236581 -0.243492
v -0.069477 -0.207984 -0.281474
v -0.032572 -0.207890 -0.291947
v 0.005597 -0.208237 -0.294762
v 0.043651 -0.208671 -0.289806
v 0.080227 -0.208671 -0.278238
v -0.070649 -0.048019 -0.282381
v -0.072642 -0.210188 -0.296209
v -0.074535 -0.217710 -0.304709
v -0.103641 -0.208081 -0.264038
v -0.133360 -0.208180 -0.239807
v -0.096394 -0.208207 -0.163593
v -0.103491 -0.123032 -0.161969
v -0.119024 -0.037927 -0.155365
v -0.116028 -0.208206 -0.194292
v -0.073122 -0.208184 -0.144132
v -0.045117 -0.208140 -0.132399
v -0.241056 -0.285582 0.076416
v -0.219522 -0.286136 0.117397
v -0.183802 -0.286677 0.146722
v -0.155355 -0.286957 0.159063
v 0.007612 -0.008554 0.006313
v 0.010633 0.082569 0.102139
v 0.003105 0.087969 0.101986
v -0.006024 0.086832 0.101877
v 0.011745 0.073371 0.102172
v 0.006032 0.066125 0.102097
v 0.009662 0.082279 0.132446
v -0.005225 -0.008133 0.005403
v -0.011840 0.003552 0.029602
v -0.166742 0.170489 -0.243734
v -0.164764 0.204329 -0.240566
v -0.154600 0.231938 -0.233259
v -0.146584 0.240463 -0.227718
v -0.154916 0.127928 -0.242193
v -0.134047 0.111751 -0.239359
v -0.145887 0.144188 -0.256784
v -0.032740 -0.287351 0.176680
v 0.030490 -0.287470 0.178581
v 0.110935 -0.287183 0.176095
v 0.062439 0.191383 0.266999
v 0.062636 0.191383 0.252127
v 0.070226 0.182843 0.268606
v 0.069578 0.202429 0.267093
v 0.082634 0.203065 0.267265
v -0.080410 0.130388 -0.283191
v -0.071822 0.111945 -0.283289
v -0.084413 0.169816 -0.280495
v -0.082928 0.201975 -0.272511
v -0.077224 0.228596 -0.256968
v -0.072982 0.236890 -0.246227
v -0.011153 0.070237 0.132171
v -0.010603 0.070321 0.101876
v -0.011467 0.079401 0.132203
v -0.006175 0.086544 0.132304
v -0.003610 0.065033 0.132270
v 0.005417 0.066340 0.132389
v -0.003183 0.064934 0.101975
v -0.011482 0.079549 0.101858
v -0.000148 -0.141675 0.110547
v -0.000019 -0.135687 0.100817
v 0.000135 -0.135172 0.089142
v -0.000180 -0.152817 0.112900
v 0.006356 -0.138379 0.117724
v -0.007085 -0.138152 0.116612
v 0.088298 0.191383 0.267341
v 0.088495 0.191383 0.252470
v 0.081632 0.182233 0.268865
v -0.068810 0.191307 0.264610
v -0.075973 0.202338 0.264507
v -0.089029 0.202947 0.264292
v -0.068563 0.191329 0.249739
v -0.076624 0.182748 0.265973
v -0.006489 -0.166486 0.112066
v 0.005905 -0.166746 0.113195
v -0.075106 0.180276 0.249615
v -0.088031 0.182115 0.265890
v -0.094668 0.191253 0.264181
v -0.094422 0.191274 0.249311
v 0.007005 -0.128507 0.089508
v 0.006722 -0.130039 0.104983
v 0.081198 -0.048705 -0.279400
v 0.043925 -0.048705 -0.290035
v 0.005407 -0.048488 -0.294514
v -0.033148 -0.047925 -0.291907
v 0.115651 -0.048705 -0.261727
v 0.142840 -0.048705 -0.234685
v 0.005898 -0.172367 0.098857
v -0.067004 -0.208362 -0.017001
v -0.079346 -0.208521 0.045503
v -0.104988 -0.208409 -0.039510
v -0.123996 -0.208422 -0.057917
v -0.139510 -0.208424 -0.079148
v -0.151536 -0.208415 -0.102286
v -0.162497 -0.208391 -0.134856
v -0.033253 -0.208317 -0.007024
v 0.001057 -0.208550 -0.002421
v 0.026874 -0.208674 -0.004028
v 0.061171 -0.208678 -0.011367
v 0.142840 -0.208671 -0.234685
v 0.144808 -0.047028 -0.200255
v -0.001832 0.152623 0.251273
v -0.021337 0.158251 0.250484
v -0.029569 0.164272 0.250346
v -0.035941 0.172212 0.250252
v -0.042705 0.191384 0.250168
v 0.016705 0.159017 0.251518
v 0.024532 0.164965 0.251622
v 0.030441 0.172823 0.251700
v 0.036776 0.191383 0.251784
v -0.002211 0.152623 0.266142
v -0.000128 -0.124407 0.108968
v -0.007000 -0.128298 0.088405
v 0.021834 -0.121844 0.086662
v 0.042144 -0.121844 0.078510
v 0.059674 -0.121844 0.065392
v 0.073252 -0.121844 0.048216
v 0.081939 -0.121844 0.028129
v 0.085540 -0.121844 0.006510
v 0.082513 -0.121844 -0.015195
v 0.074362 -0.121844 -0.035506
v -0.036141 0.210820 0.247220
v -0.029713 0.218659 0.244810
v -0.012025 0.228483 0.240448
v -0.001750 0.230064 0.239734
v -0.042952 0.191363 0.265024
v -0.105514 -0.048117 -0.265683
v -0.133703 -0.048215 -0.239583
v -0.184339 -0.208548 -0.054929
v -0.185814 -0.208505 -0.087835
v -0.182256 -0.208437 -0.131658
v -0.155096 -0.208617 0.038916
v -0.136439 -0.208615 0.066068
v -0.113132 -0.208597 0.089346
v -0.007122 -0.129824 0.103880
v -0.006093 -0.172093 0.097720
v -0.033725 0.112039 -0.291867
v 0.005216 0.111260 -0.294265
v 0.044199 0.111260 -0.290262
v -0.107386 0.111847 -0.267328
v -0.122598 0.111797 -0.255132
v 0.177074 -0.208671 -0.178940
v 0.184603 -0.210883 -0.194030
v 0.194160 -0.218244 -0.206460
v 0.162688 -0.208671 -0.208474
v 0.180415 -0.208671 -0.168493
v 0.175526 -0.208672 -0.123906
v 0.188814 -0.208671 -0.059648
v 0.180930 -0.208671 -0.016522
v 0.165911 -0.208671 0.024644
v 0.166085 -0.208671 -0.120809
v 0.152817 -0.208673 -0.088990
v 0.139031 -0.208674 -0.066758
v 0.121645 -0.208675 -0.046955
v 0.101029 -0.208677 -0.030305
v -0.002211 0.230176 0.266142
v -0.021988 0.224983 0.265422
v -0.030293 0.218903 0.265271
v -0.036700 0.210864 0.265153
v 0.016698 0.224240 0.266380
v 0.024635 0.218232 0.266481
v 0.030645 0.210293 0.266559
v 0.036579 0.191383 0.266640
v 0.030629 0.210224 0.248777
v 0.024664 0.217959 0.246281
v 0.016926 0.223868 0.243653
v 0.031100 0.111260 -0.022931
v 0.040882 0.111260 -0.024136
v 0.050579 0.111260 -0.025881
v -0.008169 0.111504 -0.022414
v 0.021303 0.111475 -0.022201
v 0.011503 0.111489 -0.021940
v 0.112760 0.111260 -0.054283
v 0.111481 0.089371 -0.084976
v 0.107348 0.054529 -0.108565
v 0.101248 0.012627 -0.122535
v 0.094150 -0.031221 -0.130484
v 0.087816 0.111260 -0.038529
v 0.120201 0.111260 -0.060737
v 0.127082 0.111260 -0.067787
v 0.139048 0.111260 -0.083437
v 0.133332 0.111260 -0.075407
v 0.120067 0.111400 -0.060708
v 0.154779 0.111260 -0.119414
v 0.159905 0.111260 -0.158371
v 0.030193 0.172793 0.266563
v 0.024247 0.164934 0.266488
v 0.016382 0.158997 0.266386
v -0.021633 0.158320 0.265351
v -0.029843 0.164324 0.265212
v -0.036191 0.172249 0.265115
v 0.159654 0.111260 -0.168220
v 0.174379 -0.212268 0.031124
v 0.191920 -0.221312 0.042092
v 0.149428 -0.208671 0.053094
v 0.128362 -0.208671 0.078323
v 0.102930 -0.208671 0.099129
v 0.073911 -0.208671 0.114535
v 0.058141 -0.154229 -0.050014
v 0.051057 -0.185766 -0.043116
v 0.045900 -0.199960 -0.038093
v 0.000017 0.111260 0.102017
v 0.030225 0.111260 0.092963
v 0.042976 0.111260 0.083561
v 0.052697 0.111260 0.071053
v 0.062529 0.111260 0.041089
v -0.029677 0.111511 0.090994
v -0.042239 0.111497 0.081312
v -0.051747 0.111495 0.068630
v -0.061993 0.111515 0.038687
v -0.000035 0.064658 0.102017
v 0.045561 -0.208671 -0.128241
v 0.070282 -0.208697 0.051663
v 0.065741 -0.027125 -0.124767
v 0.026859 -0.023761 -0.123465
v -0.020758 -0.023308 -0.125289
v -0.059373 -0.026692 -0.127952
v 0.117460 -0.035917 -0.142322
v 0.130159 -0.039471 -0.155143
v 0.140686 -0.043773 -0.176039
v 0.080747 -0.119914 -0.136903
v 0.074622 -0.208671 -0.137443
v 0.157454 0.111260 -0.187792
v 0.158854 0.111260 -0.178039
v 0.153541 0.033509 -0.194611
v 0.134425 -0.148053 -0.205120
v 0.132073 -0.208671 -0.206072
v 0.162700 0.111292 -0.152085
v 0.001600 0.111260 -0.021475
v 0.031574 0.111260 -0.011630
v 0.044082 0.111260 -0.001898
v 0.053480 0.111260 0.010864
v 0.001602 0.064658 -0.021475
v -0.028349 0.111659 -0.012272
v -0.041098 0.111619 -0.003033
v -0.050879 0.111580 0.009297
v 0.261995 0.152623 0.123170
v 0.260108 0.173569 0.123311
v 0.248569 0.216898 0.120631
v 0.229447 0.254733 0.112374
v 0.252618 0.141852 0.164771
v 0.244060 0.141842 0.185295
v 0.231387 0.141834 0.203509
v 0.214782 0.141825 0.218225
v 0.195463 0.141816 0.229134
v 0.153010 0.141801 0.242033
v 0.104609 0.111417 -0.048727
v 0.078474 0.111437 -0.034842
v 0.050318 0.111447 -0.025807
v 0.060137 0.111260 -0.028266
v 0.040764 0.111451 -0.023840
v 0.152627 0.111339 -0.107085
v 0.132357 0.111260 -0.251012
v 0.117444 0.111260 -0.263664
v 0.095202 -0.208671 -0.150560
v 0.107945 -0.208671 -0.163722
v 0.146071 0.111366 -0.093612
v 0.126586 0.111392 -0.066094
v 0.141483 0.111381 -0.085894
v 0.136423 0.111395 -0.078456
v -0.146952 0.111671 -0.202308
v -0.151871 0.111619 -0.173312
v -0.150253 0.111567 -0.134196
v -0.142199 0.111545 -0.105936
v -0.074761 0.111595 -0.038038
v -0.100268 0.111561 -0.052628
v -0.115214 0.111546 -0.065325
v -0.127977 0.111540 -0.080222
v -0.073034 0.093956 -0.075572
v -0.071424 0.078880 -0.091329
v -0.069444 0.060344 -0.103749
v -0.064689 0.018023 -0.119665
v -0.046908 0.111642 -0.028615
v -0.017926 0.111623 -0.023493
v 0.001679 0.111499 -0.021906
v 0.000187 0.047822 0.085182
v -0.021415 0.048111 0.076977
v -0.030586 0.048101 0.069933
v -0.037536 0.048098 0.060701
v -0.045024 0.048113 0.038875
v 0.021334 0.047822 0.077456
v 0.030313 0.047822 0.070595
v 0.037410 0.047822 0.061800
v 0.045694 0.047822 0.040865
v 0.092921 0.111471 -0.038709
v 0.058992 0.111526 -0.025508
v 0.011501 0.111586 -0.020836
v -0.017742 0.111622 -0.022517
v 0.062528 0.064658 0.041089
v 0.030188 0.064658 0.092968
v 0.042951 0.064658 0.083570
v 0.052682 0.064658 0.071062
v -0.029640 0.064910 0.090870
v -0.042180 0.064896 0.081196
v -0.051661 0.064893 0.068522
v -0.061893 0.064913 0.038621
v -0.135146 -0.045157 -0.192776
v -0.128569 -0.041331 -0.170074
v 0.002971 -0.208671 -0.124829
v -0.134679 0.045426 -0.139537
v -0.139983 0.082333 -0.124572
v -0.093739 -0.031976 -0.137091
v 0.113858 -0.208671 -0.259791
v 0.083835 -0.210839 -0.292944
v 0.085997 -0.218257 -0.301562
v -0.049426 0.064980 0.009939
v -0.040150 0.065018 -0.002658
v -0.028031 0.065058 -0.012513
v -0.072916 -0.287337 -0.295792
v -0.150194 -0.249227 -0.293582
v -0.148056 -0.231684 -0.286651
v -0.049555 -0.117359 -0.133020
v 0.037968 0.047822 0.019718
v 0.031107 0.047822 0.010739
v 0.022313 0.047822 0.003642
v 0.001378 0.047822 -0.004642
v -0.154022 -0.208260 -0.214139
v 0.051719 0.064658 0.011542
v 0.042944 0.064658 -0.001540
v 0.031261 0.064658 -0.012064
v 0.017121 0.064658 -0.018805
v -0.019706 0.048180 0.003004
v -0.028747 0.048161 0.009701
v -0.035954 0.048143 0.018331
v 0.086535 -0.232183 -0.303431
v 0.084263 -0.287448 -0.293370
v 0.122561 -0.218265 -0.287723
v 0.154773 -0.218272 -0.268963
v 0.046645 -0.218248 -0.310314
v 0.005895 -0.217917 -0.314172
v -0.034940 -0.217652 -0.312275
v -0.111494 -0.217755 -0.292026
v -0.074994 -0.231775 -0.306366
v 0.179766 0.243976 -0.175722
v 0.190278 0.246377 -0.139806
v 0.213083 0.260772 0.022322
v 0.162854 -0.287497 -0.292176
v 0.002540 0.087649 0.132351
v 0.023258 0.232748 -0.251160
v -0.033232 0.234435 -0.251606
v 0.072659 0.243741 -0.221111
v 0.077155 0.245837 -0.190518
v 0.079084 0.249039 -0.140067
v 0.042485 -0.208669 0.124160
v -0.001051 -0.208413 0.129056
v -0.044540 -0.208497 0.122767
v 0.076780 -0.213307 0.129747
v 0.010796 0.073470 0.132461
v 0.081801 0.202503 0.252381
v 0.081883 0.180426 0.252382
v 0.069202 0.180344 0.252214
v 0.149045 -0.210844 -0.252510
v -0.063729 0.244231 -0.223544
v -0.068998 0.246280 -0.193074
v -0.072237 0.249431 -0.142672
v -0.087506 0.281835 0.109652
v -0.171253 0.243281 -0.181324
v -0.182594 0.245441 -0.145717
v -0.209712 0.259829 0.014790
v 0.118126 -0.223405 0.129538
v 0.149640 -0.222777 0.108403
v 0.175191 -0.222041 0.078473
v 0.101444 -0.253788 0.166457
v 0.108215 -0.270312 0.173257
v 0.068893 0.202652 0.252209
v 0.234406 -0.250707 0.069114
v 0.250222 -0.267593 0.079788
v 0.256517 -0.285065 0.084244
v 0.204509 -0.220398 -0.009886
v 0.210314 -0.219345 -0.076593
v 0.207409 -0.218537 -0.142951
v -0.000040 0.287497 0.107506
v -0.178874 0.272501 0.106909
v -0.086247 0.280648 0.174032
v 0.178594 -0.218215 -0.241043
v 0.203511 -0.231883 -0.214161
v 0.211135 -0.249026 -0.217045
v 0.218337 -0.286197 -0.217313
v -0.087786 0.180331 0.249405
v -0.140664 0.266794 0.207698
v 0.158976 -0.232209 -0.281035
v 0.161355 -0.249757 -0.287873
v -0.195876 0.262426 0.191037
v -0.204729 0.265678 0.175690
v -0.215463 0.267856 0.138252
v -0.074844 0.202584 0.249651
v -0.087753 0.202408 0.249437
v 0.174964 -0.286694 0.169752
v 0.205811 -0.286287 0.160881
v 0.219882 -0.286047 0.153149
v 0.241730 -0.285570 0.129881
v 0.248765 -0.285370 0.115429
v 0.258484 -0.284733 0.019965
v 0.249514 -0.284547 -0.076176
v 0.236314 -0.285116 -0.155526
v 0.206026 -0.286715 -0.247043
v 0.189169 -0.287191 -0.274380
v 0.177281 -0.287377 -0.285138
v -0.139026 -0.210340 -0.257812
v 0.179652 0.273024 0.113321
v -0.142767 0.111521 -0.103268
v -0.130874 0.111490 -0.082706
v -0.146426 0.111527 -0.111882
v -0.133531 -0.128197 -0.239695
v 0.065919 0.185863 0.252171
v -0.088391 0.202678 0.256864
v 0.150147 0.111260 -0.211238
v -0.010878 0.070279 0.117024
v -0.003211 0.111556 -0.022717
v 0.159779 0.111260 -0.163295
v 0.073976 0.111260 -0.033398
v -0.056060 -0.208251 -0.074700
v -0.091849 0.197100 0.264236
v -0.002021 0.152623 0.258707
v 0.003131 -0.176667 0.082417
v 0.149349 0.111353 -0.100349
v 0.054111 0.056240 0.040977
v -0.003373 -0.168617 0.115389
v 0.011465 0.111382 -0.022672
v 0.002942 -0.153053 0.116661
v -0.000144 -0.157873 0.110186
v 0.001490 0.056240 -0.013059
v 0.119381 0.238703 -0.233146
v 0.000076 0.056240 0.093599
v 0.003570 -0.131840 0.089325
v -0.072717 0.187027 0.265292
v 0.157264 0.111320 -0.124984
v 0.081683 0.031277 -0.279981
v -0.053458 0.056513 0.038748
v 0.007352 0.069650 0.313917
v -0.012046 0.028223 0.038472
v 0.129557 0.111330 -0.072072
v 0.000945 0.030953 0.028107
v -0.003299 -0.164707 0.109769
v 0.085466 0.197224 0.267303
v 0.100288 0.111260 -0.046406
v -0.007324 0.061443 0.132221
v -0.032417 0.111632 -0.026054
v -0.001980 0.230120 0.252938
v 0.082218 0.202784 0.259823
v 0.010148 0.082424 0.117293
v 0.066332 0.187113 0.267803
v -0.013039 0.069651 0.313647
v -0.007324 0.075413 0.132221
v -0.042828 0.191373 0.257596
v 0.064396 0.111442 -0.030324
v -0.061943 0.088214 0.038654
v 0.131504 0.111394 -0.072275
v 0.036678 0.191383 0.259212
v 0.062528 0.087959 0.041089
v -0.003711 -0.136650 0.120660
v 0.001015 0.014085 0.022756
v 0.060091 -0.208671 -0.132842
v 0.055228 0.111354 -0.027037
v 0.005724 0.066233 0.117243
v -0.000009 0.087959 0.102017
v -0.000164 -0.147246 0.111724
v -0.002784 -0.176527 0.081848
v -0.003436 -0.125071 0.089048
v 0.088396 0.191383 0.259906
v 0.015522 0.081175 0.223271
v 0.006210 -0.145834 0.119073
v -0.000357 -0.144515 0.126227
v 0.137456 -0.208671 -0.220379
v 0.123574 0.111330 -0.064247
v 0.006638 0.075405 0.132406
v -0.003617 -0.139914 0.113580
v -0.071835 0.185802 0.249677
v -0.071235 0.031963 -0.282835
v 0.143824 -0.047866 -0.217470
v -0.002806 -0.170222 0.083471
v 0.012959 0.027841 0.039448
v 0.069714 0.181594 0.260410
v 0.002844 -0.153585 0.124083
v 0.001601 0.087959 -0.021475
v -0.006099 0.086688 0.117091
v 0.053366 -0.208675 -0.069804
v 0.142840 0.031277 -0.234685
v -0.133875 0.031768 -0.239471
v -0.013039 0.049258 0.313654
v 0.005674 -0.287392 -0.294581
v 0.160903 0.111280 -0.150627
v -0.003432 -0.131735 0.088774
v -0.070063 -0.128002 -0.281928
v 0.003567 -0.125176 0.089599
v -0.109783 0.238677 -0.236972
v -0.075865 0.181512 0.257794
v -0.003517 -0.152930 0.116101
v -0.013047 0.111563 -0.022954
v 0.007351 0.049259 0.313925
v -0.068687 0.191318 0.257175
v 0.002825 -0.168747 0.115953
v -0.060835 0.111619 -0.033326
v 0.003010 -0.136764 0.121216
v 0.055358 0.111260 -0.027074
v 0.085148 0.196943 0.252425
v -0.091087 0.196841 0.249374
v -0.006969 -0.145598 0.117957
v 0.080712 -0.128688 -0.278819
v -0.006671 -0.159765 0.115684
v 0.144525 0.111367 -0.092770
v 0.123559 -0.287473 -0.292773
v 0.003109 -0.170361 0.084040
v -0.003615 -0.153463 0.123523
v -0.018830 0.081183 0.222816
v 0.002899 -0.164837 0.110333
v 0.005985 -0.160017 0.116808
v 0.136328 0.111379 -0.079853
v 0.062537 0.191383 0.259563
v 0.003104 -0.140027 0.114136
v -0.094545 0.191263 0.256746
v 0.006880 0.061208 0.132409
v 0.142840 -0.128688 -0.234685
v -0.000317 -0.162315 0.123228
v 0.083145 0.111349 -0.036686
v -0.112199 -0.287150 -0.296886
l 1 712 2
l 1 3 4
l 1 680 5
l 6 675 7
l 6 646 8
l 6 721 9
l 6 653 10
l 11 713 12
l 11 672 13
l 11 723 14
l 11 683 15
l 16 17 14
l 16 667 5
l 16 624 2
l 18 19 20 21 22 23 24
l 18 25 26 27 28
l 18 29 30 31 32 33 34 35 36 37
l 38 39 40
l 38 41 42
l 38 43 44 45
l 38 46 47 48 49
l 7 50 10
l 7 51 9
l 7 670 52
l 53 54 55 56 57
l 53 58 59
l 53 60 61 62 63 64 65
l 53 66 67
l 28 68 69 70 71
l 28 72 73 74 75 76
l 71 77 78 79 24
l 71 80 81 82 83 84 76
l 85 639 52
l 85 689 86
l 85 652 87
l 85 699 88
l 49 89 90 91 92
l 49 93 94 95
l 49 96 97
l 98 99 100 101 102 103 104
l 98 105 106 107 108 109
l 98 110 111 112 113 114
l 52 115 88
l 52 116 87
l 86 117 87
l 86 118 8
l 86 119 88
l 92 120 121
l 92 122 123 124 125
l 92 126 127 128
l 8 129 10
l 8 130 9
l 10 714 87
l 114 131 132 133 134 135 136 137 138 139 140 141 142
l 114 143 144
l 114 145 146 147 148 149
l 150 661 151
l 150 152 153
l 150 642 154
l 150 155 156
l 157 158 159
l 157 160 161
l 157 162 163
l 144 164 165 166 59
l 144 167 57
l 159 168 153
l 159 169 156
l 159 170 171
l 154 172 163
l 154 173 161
l 151 174 175
l 151 176 177
l 163 681 153
l 88 178 9
l 45 179 180 181 182
l 45 183 184 185 95
l 186 187 188 189 190 191 192
l 186 193 194
l 186 195 196 197 198
l 186 199 200
l 153 201 175
l 194 202 203
l 194 204 205 206
l 194 207 208 209 210
l 211 212 213 214 215
l 211 693 216
l 211 217 218
l 211 219 220
l 221 222 223
l 221 224 220
l 221 225 226
l 95 227 228 229 230 128
l 175 231 171
l 232 233 234
l 232 235 236
l 232 650 237
l 177 238 171
l 177 239 156
l 104 240 241 242 243
l 104 244 245
l 104 246 206
l 128 247 248 249
l 156 640 161
l 250 718 251
l 250 651 252
l 250 253 254
l 206 255 256
l 206 257 258 259 260
l 261 617 262
l 261 263 264
l 261 265 266
l 262 267 236
l 262 268 234
l 269 270 271
l 269 666 272
l 269 719 273
l 269 676 274
l 275 669 276
l 275 644 254
l 275 277 252
l 272 697 12
l 272 629 15
l 272 630 4
l 278 279 280
l 278 700 281
l 278 635 282
l 4 643 283
l 4 715 284
l 282 696 285
l 282 286 287
l 287 720 288
l 287 622 280
l 289 634 271
l 289 694 24
l 289 290 273
l 291 708 215
l 291 292 293 294 216
l 291 637 203
l 291 295 296
l 273 671 15
l 273 703 13
l 15 716 284
l 284 701 14
l 284 297 2
l 298 299 121
l 298 300 301 302 303 304 40
l 298 621 226
l 298 305 306 307 308
l 296 722 309
l 296 679 310
l 296 687 200
l 311 312 313 314 315
l 311 316 317 318 319
l 311 623 320
l 24 321 13
l 24 668 322
l 24 323 324 325 326 327 328 329 330 37
l 13 660 274
l 14 627 283
l 315 331 332 333 334
l 315 654 335
l 216 336 337
l 216 678 256
l 97 338 339 340 40
l 97 341 342 343 121
l 322 344 274
l 322 692 271
l 274 707 12
l 12 709 283
l 283 345 5
l 256 346 347 348 203
l 256 349 350 245
l 351 352 353
l 351 354 309
l 351 355 356 357 358 359
l 351 360 361 362 363 364 308
l 365 366 367 368 335
l 365 648 334
l 365 369 370 371 372
l 319 658 372
l 319 373 374 375 334
l 376 377 378
l 376 628 379
l 376 380 381
l 382 383 384 385 386
l 382 645 387
l 382 388 389
l 390 391 389
l 390 641 392
l 390 393 394
l 372 395 396 397 320
l 320 398 399 400 335
l 394 691 142
l 394 619 401
l 359 402 403
l 359 404 405 406 407
l 37 408 409 410 76
l 411 412 413 414 415
l 411 416 417 418 419
l 411 665 420
l 308 686 421
l 308 422 407
l 386 423 424 425 426
l 386 427 428 429 310
l 386 430 431
l 432 616 200
l 432 433 401
l 432 434 310
l 310 435 436
l 401 437 142
l 438 439 440 441 415
l 438 684 442
l 438 443 444 445 419
l 192 446 447 448 449 65
l 192 450 451 452 453 454 455 57
l 392 674 389
l 392 456 457
l 457 655 458
l 457 724 387
l 387 620 459
l 458 663 459
l 458 460 378
l 459 704 378
l 142 636 461
l 200 462 463 203
l 431 662 421
l 431 464 465 436
l 466 717 467
l 466 625 461
l 466 468 469
l 245 470 471 472 473
l 245 688 337
l 461 710 469
l 469 657 467
l 474 475 476 477 473
l 474 478 479 480 481 426
l 474 702 482
l 483 647 482
l 483 618 381
l 483 698 379
l 379 484 381
l 485 633 420
l 485 486 487 488 489
l 485 490 491 492 493
l 467 494 495 496 497 482
l 415 659 498
l 420 499 500 501 498
l 420 502 503 504 505
l 337 613 220
l 337 506 507 223
l 421 508 226
l 419 656 505
l 436 673 309
l 223 509 510 473
l 223 511 426
l 215 512 309
l 215 513 514
l 505 638 489
l 505 515 516 517 442
l 182 725 518
l 182 519 520 42
l 426 521 226
l 493 626 498
l 493 522 523 524 525
l 40 526 220
l 498 527 528 529 530 442
l 525 531 532 533 489
l 525 631 442
l 514 534 535
l 514 536 537
l 514 538 539 540 218
l 218 541 42
l 218 542 518
l 198 543 544 545 65
l 198 632 210
l 535 711 546
l 535 690 518
l 264 547 237
l 264 685 234
l 210 548 549 260
l 210 550 551 552 67
l 236 664 266
l 407 553 554 555 121
l 407 556 125
l 266 557 237
l 276 705 558
l 276 559 560
l 309 561 537
l 260 695 243
l 260 562 563 564 565
l 243 566 567 568 109
l 125 569 570 571 403
l 125 572 573 249
l 251 614 560
l 251 574 558
l 560 682 252
l 403 575 576 577
l 403 578 579 580 353
l 558 649 254
l 565 581 67
l 565 582 109
l 565 583 59
l 353 584 537
l 353 585 586 587
l 285 677 281
l 285 588 288
l 59 589 149
l 537 590 591 546
l 149 592 593 594 109
l 281 595 596
l 249 597 598 599 600 601 577
l 596 706 288
l 596 615 280
l 577 602 603 604 587
l 587 605 606 607 546
l 220 608 42
l 67 609 65
l 610 611 612 610
