v -0.024115 0.092470 0.238479
v -0.023358 0.103659 0.218006
v -0.018913 0.110986 0.204601
v -0.014755 0.114145 0.198821
v -0.000000 0.117287 0.193070
v -0.021639 0.053742 0.309345
v -0.034362 0.092063 0.237333
v -0.016619 0.108778 0.245230
v -0.000000 0.115811 0.247604
v -0.000000 -0.028443 -0.375560
v -0.000000 -0.052102 -0.396128
v -0.000000 -0.079776 -0.410647
v -0.000000 -0.104178 -0.416204
v -0.000000 -0.148076 -0.416918
v -0.124077 -0.029520 -0.376324
v 0.130419 -0.029851 -0.376142
v -0.000000 0.022769 -0.320624
v -0.000000 0.066668 -0.258901
v -0.000000 0.104143 -0.186594
v -0.000000 0.129595 -0.113448
v -0.000000 0.143458 -0.044535
v -0.000000 0.148139 0.028773
v -0.000000 0.143057 0.097079
v -0.000000 0.122994 0.182486
v -0.000000 0.125552 0.188113
v 0.126670 -0.067469 0.416211
v 0.005085 -0.061002 0.415218
v 0.125527 -0.099255 0.416918
v 0.124396 -0.131564 0.407381
v 0.127582 -0.042683 0.408854
v 0.128238 -0.025206 0.399175
v 0.130018 0.020756 0.356032
v 0.144896 -0.068317 0.414104
v 0.161629 -0.065946 0.408697
v 0.175393 -0.062241 0.401290
v 0.191493 -0.054173 0.387056
v 0.205488 -0.038471 0.361336
v 0.208586 -0.011443 0.329011
v 0.225606 -0.056185 0.292581
v 0.226057 -0.063644 0.287348
v 0.231053 -0.055433 0.292122
v 0.223519 -0.087993 0.331066
v 0.216084 -0.099590 0.350853
v 0.207031 -0.107544 0.364474
v 0.190848 -0.116678 0.380190
v 0.170833 -0.123587 0.392172
v 0.153454 -0.127274 0.398648
v 0.127663 -0.129384 0.402552
v 0.225617 -0.031782 0.264039
v 0.231059 -0.031099 0.263926
v 0.223591 -0.032104 0.311070
v 0.231045 -0.081209 0.321956
v 0.228803 -0.088213 0.332269
v 0.221127 -0.100129 0.352686
v 0.207924 -0.111061 0.371484
v 0.190009 -0.120098 0.387100
v 0.168329 -0.126766 0.398714
v 0.153395 -0.129718 0.403915
v -0.231064 -0.092438 -0.299330
v -0.225638 -0.092504 -0.298792
v -0.231060 -0.111376 -0.315904
v -0.231077 -0.148075 -0.317673
v -0.224533 -0.075149 -0.322215
v -0.210105 -0.060642 -0.345147
v -0.231074 -0.046163 -0.247689
v -0.231081 -0.008025 -0.189901
v -0.231086 0.020742 -0.127802
v -0.231088 0.039923 -0.061284
v -0.231088 0.048424 0.007250
v -0.231085 0.046279 0.070025
v -0.231079 0.033160 0.136864
v -0.231072 0.011297 0.194656
v 0.231492 -0.148072 -0.308156
v 0.231574 -0.116889 -0.306808
v 0.231492 -0.148063 -0.270521
v 0.226055 -0.148075 -0.308156
v -0.231492 -0.063953 0.287723
v -0.231911 -0.083886 0.272653
v -0.232882 -0.099775 0.265622
v -0.231470 -0.148096 0.269123
v -0.226057 -0.063644 0.287348
v -0.231375 -0.084809 0.311140
v -0.228082 -0.098950 0.332008
v -0.223097 -0.107015 0.345853
v -0.206620 -0.120306 0.368881
v -0.188135 -0.129164 0.384234
v -0.165990 -0.135606 0.395403
v -0.146599 -0.138772 0.401182
v -0.119786 -0.140349 0.403179
v -0.231484 -0.039486 0.259223
v -0.000000 0.120233 0.186354
v 0.018463 0.117317 0.191630
v 0.026272 0.114093 0.197465
v 0.033801 0.104124 0.215508
v 0.034362 0.092063 0.237333
v -0.018463 0.117317 0.191630
v -0.026272 0.114093 0.197465
v -0.033801 0.104124 0.215508
v 0.226059 -0.039414 0.259024
v 0.231492 -0.063953 0.287723
v 0.224020 -0.095301 0.326152
v 0.218568 -0.105069 0.342488
v 0.206459 -0.115853 0.361178
v 0.190053 -0.124839 0.376746
v 0.169865 -0.131639 0.388525
v 0.144864 -0.136280 0.396547
v 0.125847 -0.137363 0.398398
v 0.014755 0.114145 0.198821
v 0.018913 0.110986 0.204601
v 0.023358 0.103659 0.218006
v 0.024115 0.092470 0.238479
v -0.226055 -0.148075 -0.308156
v -0.226055 -0.116674 -0.308156
v -0.225664 -0.148075 -0.317435
v -0.225217 -0.148075 -0.270513
v -0.231493 -0.148061 -0.308156
v -0.225637 -0.116214 -0.316477
v -0.209241 -0.148075 -0.361398
v 0.225638 -0.092504 -0.298792
v 0.226058 -0.098488 -0.291925
v 0.225652 -0.046275 -0.247131
v 0.225663 -0.008126 -0.189167
v 0.225669 0.020232 -0.127897
v 0.225671 0.039495 -0.061222
v 0.225669 0.047980 0.007554
v 0.225663 0.045836 0.070537
v 0.225653 0.032770 0.136628
v 0.225639 0.010837 0.194585
v 0.231064 -0.092438 -0.299330
v 0.225637 -0.116214 -0.316477
v 0.225659 -0.148075 -0.317435
v -0.015876 0.049164 0.317723
v -0.000000 0.044854 0.320375
v -0.014352 0.058690 0.313108
v -0.000000 0.062259 0.315973
v -0.027692 0.052918 0.309451
v -0.033722 0.052171 0.309529
v 0.225217 -0.148077 0.237816
v 0.225217 -0.148076 0.137424
v 0.206419 -0.148075 0.229652
v 0.122073 -0.148075 0.228798
v 0.231491 -0.148094 0.237501
v 0.225146 -0.148077 0.269082
v -0.000000 -0.148074 -0.410645
v -0.119985 -0.148074 -0.410381
v 0.126280 -0.148074 -0.410047
v -0.000000 -0.148074 -0.341622
v 0.006798 -0.129079 0.408477
v 0.007037 -0.128663 0.402825
v -0.012041 0.124340 0.190302
v -0.027516 0.118389 0.201039
v -0.033735 0.109772 0.216588
v -0.034349 0.097440 0.238839
v 0.012041 0.124340 0.190302
v 0.027517 0.118389 0.201039
v 0.033736 0.109772 0.216588
v 0.034349 0.097440 0.238839
v -0.147475 -0.031589 -0.374480
v -0.171195 -0.037690 -0.368385
v -0.192405 -0.047282 -0.358332
v -0.123295 -0.053353 -0.397047
v -0.122360 -0.081017 -0.411092
v -0.121542 -0.104567 -0.416244
v -0.120004 -0.148076 -0.416844
v -0.125867 0.026229 -0.316016
v -0.127355 0.074278 -0.245646
v -0.128415 0.110661 -0.169992
v -0.129042 0.135257 -0.089190
v -0.129205 0.146955 -0.005212
v -0.128873 0.144837 0.080421
v -0.128137 0.130492 0.156725
v -0.126891 0.101861 0.234751
v 0.124636 -0.148139 0.132113
v 0.121813 -0.148076 0.259713
v -0.000000 -0.148075 0.228384
v -0.000000 -0.137484 0.398634
v -0.000000 -0.140204 0.403343
v -0.119693 -0.137465 0.398564
v -0.000000 -0.103884 0.410813
v -0.000000 -0.078932 0.412177
v -0.000000 -0.060397 0.409222
v -0.000000 0.054482 0.319044
v 0.004022 0.047000 0.321681
v 0.015876 0.049164 0.317723
v 0.021639 0.053742 0.309345
v -0.000000 0.014589 0.355062
v -0.000000 -0.148103 0.398798
v -0.118223 -0.148103 0.398343
v 0.123939 -0.148103 0.398302
v -0.000000 -0.148077 0.392523
v 0.123306 -0.148078 0.391795
v -0.000000 -0.148076 0.259033
v -0.117560 -0.148077 0.391989
v 0.005852 -0.099358 0.416900
v 0.145347 -0.148077 0.388429
v 0.167131 -0.148077 0.379503
v 0.198175 -0.148077 0.352881
v 0.217913 -0.148077 0.316542
v 0.120755 -0.148047 0.385483
v 0.005172 0.018770 0.358465
v 0.005166 0.014669 0.354944
v 0.004826 -0.022792 0.397549
v 0.005415 0.035661 0.339349
v 0.005132 0.043078 0.336937
v -0.006798 -0.129079 0.408477
v -0.005852 -0.099358 0.416900
v -0.005085 -0.061002 0.415218
v -0.007037 -0.128663 0.402825
v -0.118114 -0.131663 0.407619
v -0.115828 -0.148075 0.227993
v -0.000000 -0.148075 0.131976
v 0.014352 0.058690 0.313108
v -0.000000 0.078725 0.305564
v -0.000000 0.094461 0.290558
v -0.000000 0.108059 0.269639
v 0.209241 -0.148075 -0.361398
v 0.168124 -0.148074 -0.339220
v 0.126503 -0.148098 -0.339399
v 0.194672 -0.148074 -0.379890
v 0.176258 -0.148074 -0.394452
v 0.155032 -0.148074 -0.404417
v 0.215117 -0.148077 -0.365006
v -0.121223 -0.129455 0.402753
v -0.146869 -0.130407 0.405161
v -0.168329 -0.126766 0.398714
v -0.190008 -0.120098 0.387100
v -0.207924 -0.111061 0.371484
v -0.221127 -0.100129 0.352686
v -0.228803 -0.088213 0.332269
v -0.231045 -0.081209 0.321956
v -0.231053 -0.055433 0.292122
v -0.119099 -0.103062 0.416469
v -0.120383 -0.066771 0.416098
v 0.225217 -0.148075 -0.270513
v 0.206397 -0.148075 0.132538
v 0.231492 -0.148088 0.137449
v -0.123665 0.020924 0.356074
v -0.121940 -0.024235 0.398595
v -0.121049 -0.048353 0.411171
v -0.151382 0.017951 0.352876
v -0.169500 0.012745 0.348567
v -0.190783 0.002104 0.340290
v -0.208586 -0.011443 0.329011
v -0.124856 0.051472 0.319094
v -0.005172 0.018770 0.358465
v -0.231574 -0.116889 -0.306808
v -0.231494 -0.098322 -0.291860
v -0.226058 -0.098488 -0.291925
v 0.229437 -0.095718 0.326735
v 0.223097 -0.107015 0.345853
v 0.210507 -0.117797 0.364536
v 0.193231 -0.127116 0.380680
v 0.172132 -0.134164 0.392897
v 0.146599 -0.138772 0.401182
v 0.125793 -0.140277 0.403104
v 0.231484 -0.039486 0.259223
v 0.231911 -0.083886 0.272653
v 0.232882 -0.099775 0.265622
v 0.231470 -0.148096 0.269006
v -0.208761 0.063340 0.217664
v -0.208345 0.043087 0.256778
v -0.208346 0.014989 0.298127
v -0.191115 0.079324 0.224962
v -0.169857 0.091573 0.230637
v -0.150957 0.098004 0.233316
v -0.208470 0.090284 0.145212
v -0.208361 0.103449 0.075710
v -0.208454 0.105257 -0.002947
v -0.208357 0.094612 -0.080130
v -0.208321 0.071898 -0.154832
v -0.208327 0.038290 -0.224642
v -0.208377 -0.010147 -0.294566
v -0.221639 0.043898 0.208775
v 0.133270 0.101107 0.234467
v 0.157331 0.096177 0.232577
v 0.175540 0.088884 0.229436
v 0.191115 0.079324 0.224962
v 0.208761 0.063340 0.217664
v 0.134457 0.128202 0.163578
v 0.135295 0.144510 0.080262
v 0.135629 0.146615 -0.005171
v 0.135464 0.134943 -0.089034
v 0.134826 0.110356 -0.169839
v 0.133750 0.073977 -0.245484
v 0.132242 0.026031 -0.315724
v 0.132391 0.079977 0.274299
v 0.131220 0.051114 0.319015
v 0.058600 0.100491 0.238316
v -0.225217 -0.148076 0.137424
v -0.200111 -0.148075 0.132073
v -0.118358 -0.148137 0.131856
v -0.231492 -0.148088 0.137449
v -0.225217 -0.148077 0.237816
v 0.033624 0.056817 0.312143
v 0.033722 0.052171 0.309529
v 0.125853 -0.148104 -0.269763
v -0.211543 -0.083664 -0.361836
v -0.212715 -0.091041 -0.363668
v -0.215117 -0.148077 -0.365006
v 0.005132 0.038539 0.334199
v 0.005440 0.031281 0.336122
v 0.026193 0.044870 0.322742
v -0.005166 0.014669 0.354944
v -0.004791 -0.026255 0.393253
v -0.005073 -0.060644 0.409272
v -0.005132 0.035174 0.331457
v -0.004826 -0.022792 0.397549
v -0.005132 0.039388 0.334891
v -0.228951 -0.129671 0.139269
v -0.226854 -0.112671 0.144913
v -0.224974 -0.085346 0.164956
v -0.223952 -0.068435 0.172555
v -0.224091 -0.025921 0.181230
v -0.231477 0.002928 0.190250
v -0.231492 -0.148063 -0.270521
v -0.231491 -0.148094 0.237745
v -0.204128 -0.041564 0.365953
v -0.187975 -0.056234 0.390853
v -0.175393 -0.062241 0.401290
v -0.156170 -0.067050 0.410825
v -0.139055 -0.068371 0.415191
v -0.223591 -0.032104 0.311070
v -0.010757 0.043909 0.335435
v -0.021699 0.046785 0.330246
v -0.029771 0.051431 0.321864
v -0.033623 0.056817 0.312143
v 0.231076 -0.148075 -0.317673
v 0.005073 -0.060644 0.409272
v -0.119564 -0.148097 -0.269849
v -0.021656 0.042725 0.326622
v -0.010602 0.039769 0.331972
v -0.194672 -0.148074 -0.379890
v -0.171108 -0.148074 -0.397435
v -0.149403 -0.148074 -0.406154
v -0.184924 -0.148074 -0.345853
v -0.168528 -0.148074 -0.339861
v -0.120309 -0.148090 -0.340235
v 0.004791 -0.026255 0.393253
v 0.005943 -0.098167 0.411517
v 0.229540 -0.066338 0.243251
v 0.230932 -0.091218 0.235493
v 0.232172 -0.110644 0.234374
v 0.231479 -0.014787 0.223288
v 0.231477 0.002928 0.190250
v 0.223655 0.038514 0.206342
v 0.231072 0.011297 0.194656
v 0.208470 0.090284 0.145212
v 0.208361 0.103449 0.075710
v 0.208454 0.105257 -0.002947
v 0.208357 0.094612 -0.080130
v 0.208321 0.071898 -0.154832
v 0.208327 0.038290 -0.224642
v 0.208377 -0.010147 -0.294566
v 0.210105 -0.060642 -0.345147
v 0.208345 0.043087 0.256778
v 0.208346 0.014989 0.298127
v -0.145567 -0.128227 0.400365
v -0.165335 -0.124935 0.394527
v -0.186168 -0.118627 0.383556
v -0.203389 -0.110010 0.368708
v -0.216084 -0.099590 0.350853
v -0.223519 -0.087993 0.331066
v -0.225606 -0.056185 0.292581
v 0.016619 0.108778 0.245230
v -0.221364 -0.002091 0.285347
v -0.231059 -0.031099 0.263926
v -0.190559 0.029096 0.308455
v -0.169522 0.039990 0.316041
v -0.145828 0.048271 0.318505
v -0.225639 0.010837 0.194585
v -0.231067 -0.006512 0.227819
v 0.231079 0.033160 0.136864
v 0.231085 0.046279 0.070025
v 0.231088 0.048424 0.007250
v 0.231088 0.039923 -0.061284
v 0.231086 0.020742 -0.127802
v 0.231081 -0.008025 -0.189901
v 0.231074 -0.046163 -0.247689
v 0.231067 -0.006512 0.227819
v 0.206269 -0.148076 0.260760
v -0.000000 -0.148075 -0.272600
v -0.005943 -0.098167 0.411517
v -0.229821 -0.148097 0.294139
v -0.223963 -0.148099 0.318617
v -0.213741 -0.148100 0.341580
v -0.199299 -0.148101 0.362086
v -0.180773 -0.148102 0.379127
v -0.159059 -0.148103 0.391299
v -0.141470 -0.148103 0.396651
v -0.225146 -0.148077 0.269082
v 0.226059 -0.018155 0.228619
v 0.226057 0.002753 0.190428
v 0.225630 -0.007065 0.227922
v 0.223432 -0.006772 0.281737
v -0.229540 -0.066338 0.243251
v -0.230932 -0.091218 0.235493
v -0.232172 -0.110644 0.234374
v -0.231479 -0.014787 0.223288
v -0.226059 -0.039414 0.259024
v 0.226055 -0.116674 -0.308156
v -0.225652 -0.046275 -0.247131
v -0.225663 -0.008126 -0.189167
v -0.225669 0.020232 -0.127897
v -0.225671 0.039495 -0.061222
v -0.225669 0.047980 0.007554
v -0.225663 0.045836 0.070537
v -0.225653 0.032770 0.136628
v -0.226056 -0.052950 -0.240883
v -0.226057 -0.015403 -0.183532
v -0.226058 0.011463 -0.125330
v -0.226057 0.030559 -0.059485
v -0.226057 0.038917 0.008515
v -0.226059 0.036643 0.070726
v -0.226058 0.024181 0.133510
v -0.226057 0.002753 0.190428
v 0.231494 -0.098322 -0.291860
v 0.231241 -0.121582 -0.270591
v 0.231489 -0.052646 -0.240615
v 0.231482 -0.015085 -0.183115
v 0.231473 0.013602 -0.119807
v 0.231473 0.030622 -0.059546
v 0.231473 0.039024 0.008766
v 0.231468 0.036664 0.071281
v 0.231466 0.024330 0.133318
v 0.226056 -0.052950 -0.240883
v 0.226057 -0.015403 -0.183532
v 0.226058 0.011463 -0.125330
v 0.226057 0.030559 -0.059485
v 0.226057 0.038917 0.008515
v 0.226059 0.036643 0.070726
v 0.226058 0.024181 0.133510
v -0.199569 -0.148076 -0.384739
v -0.174461 -0.148076 -0.403494
v -0.151204 -0.148076 -0.412841
v -0.225719 -0.148077 -0.342217
v 0.126299 -0.148076 -0.416639
v 0.157215 -0.148076 -0.411018
v 0.179895 -0.148076 -0.400338
v 0.199570 -0.148076 -0.384739
v 0.127639 -0.110733 -0.416622
v 0.128660 -0.081798 -0.410875
v 0.129607 -0.054213 -0.396954
v 0.190783 0.002104 0.340290
v 0.175132 0.010415 0.346811
v 0.151430 0.017949 0.352876
v 0.228951 -0.129671 0.139269
v 0.226854 -0.112671 0.144913
v 0.224974 -0.085346 0.164956
v 0.223952 -0.068435 0.172555
v 0.224091 -0.025921 0.181230
v 0.224533 -0.075149 -0.322215
v 0.231058 -0.111376 -0.315904
v -0.144864 -0.136280 0.396547
v -0.164237 -0.132979 0.390845
v -0.185289 -0.126774 0.380100
v -0.202776 -0.118277 0.365379
v -0.218568 -0.105069 0.342488
v -0.224020 -0.095301 0.326152
v -0.126026 0.080807 0.274727
v -0.225617 -0.031782 0.264039
v -0.140011 -0.148077 0.389746
v -0.161864 -0.148077 0.382235
v -0.176853 -0.148077 0.373319
v -0.194348 -0.148077 0.357440
v -0.208108 -0.148077 0.338313
v -0.217913 -0.148077 0.316542
v -0.114510 -0.148046 0.385812
v -0.115575 -0.148075 0.258387
v -0.231241 -0.121582 -0.270591
v 0.027692 0.052918 0.309451
v -0.231489 -0.052646 -0.240615
v -0.231482 -0.015085 -0.183115
v -0.231473 0.013602 -0.119807
v -0.231473 0.030622 -0.059546
v -0.231473 0.039024 0.008766
v -0.231468 0.036664 0.071281
v -0.231466 0.024330 0.133318
v -0.200084 -0.148075 0.228264
v -0.000000 -0.026464 0.393586
v -0.076881 0.052709 0.317696
v -0.225630 -0.007065 0.227922
v -0.226059 -0.018155 0.228619
v 0.175048 0.037559 0.314522
v 0.158061 0.044470 0.317935
v 0.225719 -0.148077 -0.342217
v 0.212715 -0.091041 -0.363668
v 0.211543 -0.083664 -0.361836
v 0.026143 0.048886 0.326454
v -0.193598 -0.148075 0.258548
v 0.229821 -0.148097 0.294139
v 0.223963 -0.148099 0.318617
v 0.213741 -0.148100 0.341580
v 0.199299 -0.148101 0.362086
v 0.180774 -0.148102 0.379127
v 0.164738 -0.148103 0.388751
v 0.146573 -0.148103 0.395514
v 0.083034 0.052373 0.318154
v 0.201391 -0.054502 -0.353551
v 0.176798 -0.039750 -0.366326
v 0.153671 -0.032755 -0.373251
v -0.000000 -0.148075 -0.413782
v 0.029238 0.092267 0.237906
v 0.231533 -0.132481 -0.307482
v 0.226055 -0.132374 -0.308156
v -0.059782 -0.148086 -0.271224
v -0.225848 -0.095496 -0.295358
v -0.217452 -0.148075 -0.339416
v -0.022877 0.073106 0.273912
v 0.231488 -0.051720 0.273473
v -0.000000 -0.148090 0.395661
v 0.033673 0.054494 0.310836
v 0.063149 -0.148076 -0.416778
v 0.126289 -0.148075 -0.413343
v -0.059846 -0.137474 0.398599
v 0.225217 -0.148076 0.187620
v -0.231491 -0.148091 0.187597
v 0.228774 -0.148073 -0.308156
v -0.000000 0.122893 0.187233
v -0.172390 -0.148086 -0.270181
v -0.060002 -0.148076 -0.416881
v 0.228775 -0.063798 0.287536
v -0.064419 0.019847 0.357270
v 0.126178 -0.148101 -0.304581
v -0.120458 -0.133460 0.400658
v -0.226055 -0.132374 -0.308156
v -0.228354 -0.148082 0.137437
v -0.228356 0.011067 0.194620
v 0.208466 0.001773 0.313569
v -0.228330 -0.055809 0.292352
v 0.225217 -0.148075 -0.066544
v 0.005079 -0.060823 0.412245
v -0.225832 -0.059915 0.289964
v -0.115701 -0.148075 0.243190
v 0.228308 -0.148086 0.269044
v 0.005169 0.016720 0.356705
v -0.119739 -0.138907 0.400871
v 0.225832 -0.059915 0.289964
v 0.228338 -0.031440 0.263983
v 0.033986 0.077129 0.275491
v 0.067350 -0.129023 0.402688
v -0.000000 -0.148075 0.180180
v 0.225612 -0.043983 0.278310
v -0.228767 0.002841 0.190339
v -0.062456 -0.130371 0.408048
v -0.228354 -0.148069 -0.270517
v -0.228370 -0.148075 -0.317554
v 0.228354 -0.148082 0.137437
v -0.062734 -0.063886 0.415658
v 0.225848 -0.095496 -0.295358
v -0.033986 0.077129 0.275491
v 0.231492 -0.148075 -0.066536
v -0.062038 -0.028981 -0.375942
v -0.000000 0.029722 0.337718
v 0.062923 -0.137423 0.398516
v -0.000000 -0.148076 0.325778
v 0.217450 -0.148075 -0.339416
v -0.034042 0.072117 0.273431
v 0.022877 0.073106 0.273912
v -0.228308 -0.148086 0.269103
v 0.006918 -0.128871 0.405651
v -0.225848 0.006795 0.192506
v -0.225838 -0.035598 0.261532
v 0.121943 -0.148075 0.244255
v -0.059993 -0.148074 -0.410513
v 0.231056 -0.043266 0.278024
v -0.119936 -0.148093 -0.305042
v 0.061970 -0.148103 0.398550
v 0.228776 -0.098405 -0.291892
v -0.225181 -0.148077 0.253449
v -0.000000 -0.138844 0.400988
v 0.212179 -0.148076 -0.363202
v 0.231492 -0.148067 -0.289338
v -0.005132 0.037281 0.333174
v 0.126391 -0.148086 -0.374723
v 0.226058 -0.051529 0.273186
v -0.000000 -0.148075 -0.070312
v -0.000000 -0.148074 -0.376133
v 0.226057 -0.107581 -0.300040
v -0.225612 -0.043983 0.278310
v 0.228767 0.002841 0.190339
v 0.130619 0.035935 0.337524
v -0.064130 -0.129059 0.402789
v -0.119995 -0.148075 -0.413612
v -0.226058 -0.051529 0.273186
v -0.057787 -0.148075 0.258710
v -0.000000 -0.148074 -0.307111
v 0.065878 -0.064235 0.415715
v -0.225636 -0.148075 -0.289334
v 0.225181 -0.148077 0.253449
v -0.000000 -0.148075 0.243708
v 0.123623 -0.148090 0.395048
v 0.124866 -0.144190 0.400703
v 0.002583 0.014629 0.355003
v -0.034355 0.094752 0.238086
v -0.057914 -0.148075 0.228188
v 0.225857 -0.148075 -0.312795
v 0.228351 -0.092471 -0.299061
v -0.006918 -0.128871 0.405651
v 0.062926 -0.148089 -0.271181
v -0.005152 0.029079 0.346678
v 0.125820 -0.138820 0.400751
v 0.067595 0.019763 0.357248
v -0.000000 0.116549 0.220337
v 0.225636 -0.148075 -0.289334
v 0.228330 -0.055809 0.292352
v -0.005149 0.024922 0.343201
v -0.225217 -0.148075 -0.066544
v -0.000000 0.118760 0.189712
v -0.228815 -0.116782 -0.307482
v 0.005132 0.040808 0.335568
v 0.228772 -0.039450 0.259123
v 0.061653 -0.148077 0.392159
v -0.080620 0.099650 0.236795
v 0.231491 -0.148091 0.187475
v 0.126755 -0.133373 0.400475
v -0.231480 -0.148095 0.253434
v -0.231492 -0.148062 -0.289338
v 0.126030 -0.130474 0.404966
v -0.231056 -0.043266 0.278024
v -0.231492 -0.148075 -0.066536
v 0.034042 0.072117 0.273431
v -0.231534 -0.107606 -0.299334
v 0.123354 -0.148107 0.180455
v 0.225838 -0.035598 0.261532
v -0.117093 -0.148106 0.179925
v 0.228815 -0.116782 -0.307482
v -0.228354 -0.148085 0.237780
v -0.059112 -0.148103 0.398571
v -0.000000 -0.144153 0.401071
v -0.029238 0.092267 0.237906
v -0.226057 -0.107581 -0.300040
v -0.228772 -0.039450 0.259123
v -0.005169 0.016720 0.356705
v 0.125244 -0.148121 -0.068825
v -0.058780 -0.148077 0.392256
v 0.228367 -0.148075 -0.317554
v -0.124260 0.036198 0.337584
v -0.228775 -0.063798 0.287536
v 0.225848 0.006795 0.192506
v -0.231488 -0.051720 0.273473
v 0.228356 0.011067 0.194620
v -0.228351 -0.092471 -0.299061
v 0.061037 -0.148075 0.228591
v -0.228776 -0.098405 -0.291892
v 0.231480 -0.148095 0.253254
v 0.063140 -0.148074 -0.410346
v -0.059893 -0.140276 0.403261
v 0.175535 -0.148089 -0.270138
v -0.120147 -0.148082 -0.375308
v -0.231533 -0.132475 -0.307482
v -0.208466 0.001773 0.313569
v -0.059179 -0.148106 0.131916
v -0.225859 -0.148075 -0.312795
v -0.225217 -0.148076 0.187620
v 0.228354 -0.148085 0.237659
v -0.033672 0.054494 0.310836
v -0.118961 -0.148117 -0.068996
v -0.002536 -0.060521 0.409247
v -0.060155 -0.148082 -0.340929
v 0.063251 -0.148086 -0.340510
v -0.228338 -0.031440 0.263983
v -0.005079 -0.060823 0.412245
v 0.060906 -0.148076 0.259373
v -0.119005 -0.144226 0.400761
v -0.119668 -0.130559 0.405186
v 0.062896 -0.140240 0.403223
v 0.231534 -0.107606 -0.299334
v -0.228774 -0.148068 -0.308156
v -0.002583 0.014629 0.355003
v 0.228354 -0.148069 -0.270517
v 0.062318 -0.148107 0.132044
v 0.065209 -0.029147 -0.375851
v -0.117892 -0.148090 0.395166
v 0.065597 -0.130322 0.407929
v 0.002536 -0.060521 0.409247
v -0.212179 -0.148076 -0.363202
v 0.034355 0.094752 0.238086
l 1 2 3 4 5
l 1 508 6
l 1 630 7
l 1 8 9
l 10 11 12 13 14
l 10 552 15
l 10 672 16
l 10 17 18 19 20 21 22 23 24 25
l 26 587 27
l 26 28 29
l 26 30 31 32
l 26 33 34 35 36 37 38
l 39 537 40
l 39 605 41
l 39 42 43 44 45 46 47 48
l 39 542 49
l 41 565 50
l 41 51 38
l 41 52 53 54 55 56 57 58 29
l 59 642 60
l 59 61 62
l 59 63 64
l 59 65 66 67 68 69 70 71 72
l 73 503 74
l 73 572 75
l 73 517 76
l 77 78 79 80
l 77 638 81
l 77 82 83 84 85 86 87 88 89
l 77 640 90
l 91 92 93 94 95
l 91 608 5
l 91 518 25
l 91 96 97 98 7
l 40 575 99
l 40 521 100
l 40 101 102 103 104 105 106 107
l 5 603 9
l 5 108 109 110 111
l 112 525 113
l 112 653 114
l 112 588 115
l 112 668 116
l 114 117 60
l 114 546 62
l 114 507 118
l 119 549 120
l 119 121 122 123 124 125 126 127 128
l 119 597 129
l 119 130 131
l 6 132 133
l 6 134 135
l 6 136 137
l 138 515 139
l 138 140 141
l 138 655 142
l 138 589 143
l 144 501 14
l 144 564 145
l 144 646 146
l 144 577 147
l 29 618 48
l 29 674 148
l 48 615 107
l 48 540 149
l 25 150 151 152 153
l 25 154 155 156 157
l 15 158 159 160 64
l 15 161 162 163 164
l 15 165 166 167 168 169 170 171 172
l 141 623 173
l 141 563 174
l 141 643 175
l 176 570 177
l 176 514 178
l 176 179 180 181
l 176 554 107
l 133 182 135
l 133 183 184 185
l 133 553 186
l 187 628 188
l 187 567 189
l 187 629 177
l 187 510 190
l 190 612 191
l 190 555 192
l 190 635 193
l 148 194 27
l 148 560 149
l 191 195 196 197 198 143
l 191 591 189
l 191 199 174
l 200 535 201
l 200 602 32
l 200 202 27
l 200 203 204
l 205 206 207
l 205 598 208
l 205 544 209
l 175 595 210
l 175 541 211
l 175 590 192
l 135 212 185
l 135 213 214 215 9
l 216 217 218
l 216 556 131
l 216 219 220 221 146
l 216 571 222
l 209 665 223
l 209 224 225 226 227 228 229 230 231
l 209 232 233
l 139 530 234
l 139 235 173
l 139 547 236
l 237 238 239 233
l 237 240 241 242 243
l 237 637 244
l 237 522 245
l 246 622 247
l 246 650 116
l 246 609 113
l 113 631 248
l 100 249 250 251 252 253 254 255
l 100 509 256
l 100 257 258 259
l 260 261 262
l 260 263 264 265 172
l 260 266 267 268 269 270 271 272 64
l 260 273 72
l 274 275 276 277 278
l 274 279 280 281 282 283 284 285 16
l 274 286 287
l 274 288 157
l 289 290 291
l 289 526 292
l 289 607 115
l 289 654 293
l 157 677 95
l 157 539 294
l 95 502 111
l 95 621 295
l 173 671 211
l 173 634 296
l 177 666 255
l 177 647 89
l 64 297 298 299
l 300 301 201
l 300 610 204
l 300 302 295
l 303 633 245
l 303 669 186
l 303 304 305
l 303 606 306
l 245 307 207
l 245 600 308
l 292 309 310 311 312 313 314
l 292 620 315
l 292 516 316
l 243 651 262
l 243 317 318 319 320 321 233
l 243 322 231
l 308 323 324 325 326
l 308 573 306
l 131 596 76
l 131 636 327
l 27 531 328
l 291 657 329
l 291 652 211
l 291 625 210
l 137 330 331 306
l 137 557 7
l 137 656 326
l 118 332 333 334 145
l 118 335 336 337
l 118 676 299
l 328 675 181
l 328 338 201
l 328 339 149
l 256 340 341 342 142
l 256 343 344
l 256 611 99
l 278 345 346
l 278 347 348 349 350 351 352 353 354
l 278 355 356
l 223 524 178
l 223 357 358 359 360 361 362 363
l 223 582 208
l 234 648 296
l 234 670 75
l 234 604 76
l 9 364 111
l 337 649 145
l 337 566 329
l 337 659 147
l 262 365 366
l 262 367 368 369 244
l 72 527 370
l 72 371 366
l 142 614 236
l 142 645 259
l 346 372 373 374 375 376 377 378 129
l 346 379 50
l 346 641 128
l 174 380 143
l 174 663 192
l 296 523 218
l 296 599 381
l 147 586 381
l 147 660 218
l 207 548 233
l 207 662 305
l 208 382 305
l 80 383 384 385 386 387 388 389 188
l 80 616 316
l 80 559 390
l 99 391 392
l 99 624 49
l 49 393 128
l 49 538 50
l 50 394 356
l 90 395 396 397 316
l 90 398 314
l 90 632 399
l 381 505 329
l 381 576 211
l 76 504 400
l 60 401 402 403 404 405 406 407 370
l 60 506 248
l 218 574 146
l 248 408 409 410 411 412 413 414 415
l 248 644 247
l 416 568 120
l 416 417 75
l 416 667 74
l 416 418 419 420 421 422 423 424 344
l 120 578 400
l 120 425 426 427 428 429 430 431 392
l 299 432 433 434 164
l 299 435 62
l 316 627 293
l 128 639 392
l 89 536 178
l 89 664 188
l 436 512 14
l 436 437 438 439 222
l 436 513 146
l 436 440 441 442 16
l 38 528 356
l 38 443 444 445 32
l 255 601 107
l 255 592 189
l 236 551 75
l 236 446 447 448 449 450 344
l 129 451 354
l 129 452 327
l 178 453 454 455 456 457 458 81
l 172 459 244
l 172 613 153
l 111 558 185
l 366 619 231
l 366 661 460
l 193 461 462 463 464 465 466 390
l 193 673 188
l 193 467 468
l 116 617 315
l 363 529 231
l 363 532 81
l 363 579 460
l 315 469 247
l 315 545 115
l 32 581 287
l 295 470 185
l 295 511 294
l 247 471 472 473 474 475 476 477 314
l 329 519 115
l 74 626 400
l 293 478 210
l 293 569 390
l 164 520 14
l 164 583 145
l 181 658 305
l 181 479 186
l 81 584 399
l 326 480 244
l 326 550 153
l 201 593 186
l 344 580 392
l 153 594 7
l 370 561 415
l 370 481 460
l 415 543 314
l 415 482 399
l 356 483 484 287
l 460 562 399
l 327 485 222
l 222 486 487 354
l 143 534 259
l 204 488 294
l 468 533 210
l 468 489 390
l 468 585 192
l 259 490 491 492 493 494 495 496 189
l 294 497 287
l 354 498 499 500 16
