v -0.159294 0.254954 -0.178232
v -0.174717 0.254955 -0.150765
v -0.185600 0.254966 -0.119225
v -0.191434 0.254984 -0.070063
v -0.184347 0.255001 -0.019599
v -0.172835 0.255012 0.010593
v -0.156176 0.254993 0.038938
v -0.160938 -0.254962 -0.175916
v -0.171558 0.261124 -0.186102
v -0.187319 0.261560 -0.196169
v -0.199299 0.256777 -0.203786
v -0.209916 0.246813 -0.210500
v -0.217423 0.232339 -0.215197
v -0.220047 0.215498 -0.216762
v -0.137021 0.254934 -0.205657
v -0.112247 0.254926 -0.227424
v -0.083909 0.254919 -0.244094
v -0.052347 0.254914 -0.256191
v -0.019389 0.254911 -0.262716
v 0.012970 0.254910 -0.263116
v 0.047729 0.254911 -0.257807
v 0.075175 0.254906 -0.248392
v 0.045545 0.134852 0.165635
v 0.046658 0.135257 0.180979
v 0.045893 0.128180 0.214152
v 0.045141 0.112799 0.243781
v 0.044465 0.092547 0.268122
v 0.043830 0.065589 0.288061
v 0.043320 0.036699 0.301520
v 0.042965 0.010263 0.308624
v 0.042652 -0.016052 0.311138
v 0.048949 0.120118 0.165626
v 0.046930 0.105220 0.165607
v 0.038085 0.090129 0.165575
v 0.026854 0.079643 0.165544
v 0.000575 0.071702 0.165488
v 0.037644 0.152033 0.165638
v 0.011883 0.173643 0.167522
v 0.093314 -0.173130 0.149151
v 0.103749 0.173689 0.143811
v 0.133309 -0.173113 0.127262
v 0.159564 -0.173149 0.106904
v 0.182632 -0.173192 0.083279
v 0.202310 -0.173241 0.056658
v 0.218005 -0.173297 0.027728
v 0.229611 -0.173357 -0.003060
v 0.239132 -0.173450 -0.050166
v 0.239864 -0.173492 -0.070756
v 0.237648 -0.173558 -0.103380
v 0.231305 -0.173623 -0.134960
v 0.220905 -0.173687 -0.165464
v 0.198478 -0.173777 -0.207292
v 0.154894 -0.173883 -0.255193
v 0.128656 -0.173928 -0.274453
v 0.096509 -0.173973 -0.291728
v 0.097662 -0.183436 0.160478
v 0.100349 -0.197835 0.168181
v 0.101103 -0.214952 0.171486
v 0.056362 -0.173061 0.160929
v 0.009042 -0.173058 0.167491
v -0.000979 -0.006201 0.240183
v -0.000237 -0.026604 0.235846
v 0.000846 -0.045231 0.223794
v 0.001748 -0.056842 0.211678
v 0.002638 -0.065112 0.198038
v 0.004327 -0.071864 0.165436
v 0.016168 -0.007073 0.243559
v 0.029387 -0.008216 0.250011
v 0.039553 -0.009890 0.261458
v 0.046140 -0.012058 0.277734
v 0.046577 -0.014085 0.294203
v -0.015801 -0.006117 0.242738
v -0.030981 -0.006803 0.251666
v -0.040086 -0.007872 0.262392
v -0.046112 -0.009570 0.277585
v -0.046787 -0.011464 0.293210
v -0.042606 -0.013940 0.312527
v -0.001437 0.012976 0.239192
v -0.001606 0.027684 0.234828
v -0.001395 0.051095 0.218157
v -0.000644 0.065964 0.195084
v -0.194467 0.173658 0.068210
v -0.204538 0.185231 0.075074
v -0.211295 0.200113 0.079499
v -0.213587 0.215660 0.080735
v -0.190184 -0.173295 0.073949
v -0.173453 0.173660 0.093582
v -0.148577 0.173668 0.116098
v -0.106072 0.173672 0.142936
v -0.059238 0.173667 0.160430
v -0.009519 0.173654 0.165574
v -0.212451 0.173632 0.039237
v -0.225759 0.173613 0.008532
v -0.237725 0.173577 -0.040390
v -0.239804 0.173551 -0.073705
v -0.237120 0.173523 -0.106929
v -0.230142 0.173493 -0.139586
v -0.218331 0.173462 -0.171172
v -0.200338 0.173410 -0.203901
v 0.075938 -0.254941 -0.247606
v 0.082606 -0.260673 -0.261758
v 0.088982 -0.261297 -0.275311
v 0.095328 -0.256729 -0.288825
v 0.101202 -0.247153 -0.301358
v 0.105185 -0.232878 -0.309895
v 0.106621 -0.216398 -0.313025
v 0.101860 -0.254956 -0.234328
v 0.128389 -0.254964 -0.214421
v 0.160468 -0.254976 -0.176860
v 0.175973 -0.254984 -0.147807
v 0.186721 -0.254993 -0.115454
v 0.191321 -0.255005 -0.065881
v 0.182522 -0.255017 -0.014346
v 0.170158 -0.255023 0.015421
v 0.153113 -0.255029 0.043145
v 0.118283 -0.255034 0.078464
v 0.072052 -0.254925 0.105334
v 0.040224 -0.254945 -0.259423
v 0.008236 -0.254941 -0.263399
v -0.027442 -0.254938 -0.261688
v -0.059394 -0.254937 -0.254307
v -0.090044 -0.254938 -0.241136
v -0.117811 -0.254940 -0.223018
v -0.142549 -0.254943 -0.199948
v 0.105588 0.215186 -0.312869
v 0.064936 0.215193 -0.326662
v 0.013840 0.215235 -0.334596
v -0.040489 0.215286 -0.332274
v -0.075071 0.215321 -0.324956
v -0.122112 0.215375 -0.306448
v -0.152049 0.215413 -0.288287
v -0.188675 0.215465 -0.256536
v 0.103831 0.232740 -0.309215
v 0.099987 0.247022 -0.301111
v 0.095547 0.255696 -0.291710
v 0.088914 0.260894 -0.277631
v 0.080961 0.260197 -0.260717
v 0.104604 0.199585 -0.310702
v 0.101309 0.185328 -0.303628
v 0.095875 0.173231 -0.292018
v 0.140796 0.215142 -0.294099
v 0.169936 0.215128 -0.272696
v 0.197012 0.215118 -0.246798
v 0.219251 0.215115 -0.217848
v 0.237693 0.215116 -0.185645
v 0.251394 0.215124 -0.151032
v 0.259854 0.215137 -0.115049
v 0.262875 0.215155 -0.078730
v 0.258813 0.215190 -0.025603
v 0.250578 0.215217 0.009370
v 0.224905 0.215273 0.065125
v 0.203276 0.215310 0.095375
v 0.176787 0.215350 0.123136
v 0.153489 0.215383 0.142606
v 0.114095 0.215547 0.164953
v 0.108765 0.184627 0.154881
v 0.112492 0.199159 0.162544
v 0.060278 0.173616 0.159844
v 0.135863 0.173556 0.125388
v 0.161814 0.173528 0.104822
v 0.184704 0.173499 0.080859
v 0.203894 0.173468 0.053951
v 0.219738 0.173438 0.024754
v 0.228881 0.173413 -0.000625
v 0.236097 0.173385 -0.030787
v 0.240134 0.173348 -0.074516
v 0.237117 0.173322 -0.107307
v 0.229005 0.173296 -0.142971
v 0.216587 0.173275 -0.174987
v 0.199649 0.173258 -0.204720
v 0.179127 0.173245 -0.231502
v 0.154763 0.173235 -0.255298
v 0.127164 0.173230 -0.275332
v -0.201318 -0.173828 -0.202233
v -0.176688 -0.173911 -0.234342
v -0.139044 -0.173970 -0.267467
v -0.095411 -0.174011 -0.292125
v -0.063086 -0.174026 -0.303352
v -0.029512 -0.174033 -0.310011
v 0.020312 -0.174025 -0.311205
v 0.053109 -0.174007 -0.305811
v -0.221590 -0.173777 -0.163743
v -0.232089 -0.173715 -0.132045
v -0.238201 -0.173650 -0.099074
v -0.239783 -0.173582 -0.065442
v -0.232987 -0.173480 -0.015878
v -0.222990 -0.173413 0.016125
v -0.208517 -0.173349 0.046325
v -0.211741 -0.184553 -0.208818
v -0.219073 -0.198104 -0.213409
v -0.221497 -0.215763 -0.214841
v -0.218866 -0.232041 -0.213054
v -0.211379 -0.246416 -0.208178
v -0.200305 -0.256682 -0.201040
v -0.186924 -0.262078 -0.192461
v -0.173100 -0.260796 -0.183643
v -0.194518 -0.215892 -0.249618
v -0.165850 -0.216006 -0.276569
v -0.137353 -0.216099 -0.296670
v -0.086884 -0.216226 -0.320535
v -0.033773 -0.216317 -0.332625
v 0.003359 -0.216361 -0.334980
v 0.058637 -0.216395 -0.328548
v -0.243320 -0.215597 -0.173296
v -0.254575 -0.215473 -0.138181
v -0.261095 -0.215350 -0.101912
v -0.262854 -0.215229 -0.064682
v -0.259601 -0.215115 -0.028325
v -0.251091 -0.215010 0.007102
v -0.228803 -0.214868 0.058017
v -0.208811 -0.214789 0.088237
v 0.018005 -0.017856 0.331267
v 0.003866 -0.017932 0.334980
v -0.013406 -0.017179 0.332610
v -0.029752 -0.015716 0.324225
v 0.042665 -0.048766 0.301479
v 0.042763 -0.076133 0.287053
v 0.043214 -0.114296 0.252318
v 0.043900 -0.132869 0.213592
v 0.044553 -0.138716 0.181032
v 0.044918 -0.138237 0.165487
v 0.121295 0.254923 -0.220505
v 0.155235 0.254935 -0.184320
v 0.172438 0.254944 -0.155357
v 0.184057 0.254955 -0.125276
v 0.191562 0.254972 -0.075443
v 0.185698 0.254990 -0.025912
v 0.167010 0.255007 0.021590
v 0.137183 0.255022 0.061179
v 0.112194 0.255031 0.083227
v 0.087770 0.254897 0.098392
v -0.217731 0.198632 -0.215172
v -0.210678 0.183932 -0.210571
v -0.239553 0.215555 -0.181095
v -0.252990 0.215588 -0.145706
v -0.260485 0.215615 -0.109546
v -0.262875 0.215638 -0.074034
v -0.260440 0.215657 -0.037697
v -0.253108 0.215671 -0.001454
v -0.241107 0.215680 0.033816
v -0.176871 0.215673 0.122607
v -0.147657 0.215660 0.145270
v -0.116186 0.215642 0.164113
v -0.063862 0.215605 0.183675
v -0.026174 0.215574 0.190015
v 0.029697 0.215523 0.189272
v 0.065709 0.215486 0.182724
v -0.210958 0.233594 0.078412
v -0.203397 0.247773 0.072679
v -0.192440 0.257041 0.064657
v -0.180134 0.260806 0.055817
v -0.166602 0.259771 0.046226
v -0.044453 0.139252 0.165476
v -0.037278 0.153852 0.165504
v -0.049089 0.124521 0.165451
v -0.048131 0.109227 0.165437
v -0.041524 0.094424 0.165434
v -0.029141 0.081912 0.165444
v -0.015728 0.074388 0.165460
v -0.045819 0.137902 0.181367
v -0.044939 0.129651 0.214593
v -0.044157 0.114444 0.244840
v -0.043530 0.094533 0.269907
v -0.043054 0.068640 0.289959
v -0.042895 0.053402 0.297317
v -0.042715 0.024672 0.306769
v -0.206596 -0.198692 0.086255
v -0.199751 -0.184195 0.081024
v -0.205822 -0.232642 0.086565
v -0.198025 -0.247106 0.081389
v -0.186591 -0.257014 0.073513
v -0.173288 -0.261385 0.064170
v -0.160257 -0.259881 0.054871
v -0.149900 -0.254965 0.047386
v -0.172353 -0.214703 0.126912
v -0.141125 -0.214661 0.149651
v -0.106237 -0.214634 0.168745
v -0.073519 -0.214629 0.180371
v -0.025797 -0.214646 0.189563
v 0.025867 -0.214695 0.190263
v 0.060672 -0.214747 0.184727
v -0.171137 0.173385 -0.240081
v -0.145928 0.173356 -0.262383
v -0.103557 0.173317 -0.288799
v -0.066639 0.173290 -0.302478
v -0.018243 0.173262 -0.311354
v 0.012387 0.173249 -0.311606
v 0.060533 0.173235 -0.304024
v -0.047036 -0.138330 0.165544
v -0.045630 -0.126958 0.214386
v -0.044433 -0.103406 0.256163
v -0.043756 -0.080724 0.278804
v -0.043179 -0.054067 0.297446
v -0.045779 -0.106157 0.165507
v -0.038504 -0.091166 0.165485
v -0.027376 -0.080080 0.165465
v -0.013666 -0.073549 0.165449
v -0.026279 -0.163370 0.165559
v -0.012310 -0.173064 0.165561
v 0.000727 0.064662 0.168037
v 0.004112 -0.064761 0.168037
v 0.101710 -0.184671 -0.302735
v 0.105336 -0.199308 -0.310376
v 0.141303 -0.216366 -0.294253
v 0.169452 -0.216327 -0.273258
v 0.194872 -0.216273 -0.248698
v 0.226252 -0.216167 -0.206082
v 0.242269 -0.216079 -0.173772
v 0.253796 -0.215980 -0.139366
v 0.260533 -0.215876 -0.105056
v 0.262804 -0.215762 -0.068750
v 0.260186 -0.215639 -0.031676
v 0.252418 -0.215517 0.003926
v 0.239661 -0.215396 0.037515
v 0.222401 -0.215275 0.069907
v 0.199997 -0.215155 0.100469
v 0.162741 -0.215005 0.135873
v 0.133006 -0.214911 0.155935
v -0.155612 -0.173208 0.110355
v -0.112661 -0.173139 0.139865
v -0.076333 -0.173101 0.155110
v -0.047122 -0.173078 0.163253
v -0.132821 0.255031 0.065948
v -0.107841 0.255037 0.086200
v -0.078045 0.255042 0.102678
v -0.046527 0.255045 0.113790
v -0.013625 0.255046 0.118844
v 0.019870 0.255045 0.118323
v 0.052474 0.255042 0.111974
v 0.036909 -0.154383 0.165510
v 0.048566 -0.124334 0.165468
v 0.047769 -0.109889 0.165452
v 0.041665 -0.096626 0.165441
v 0.030543 -0.083767 0.165433
v 0.093646 0.261357 0.111914
v 0.099944 0.262078 0.126952
v 0.105859 0.257003 0.141577
v 0.110636 0.246776 0.153927
v 0.113540 0.232222 0.162163
v 0.099420 -0.231600 0.168911
v 0.095571 -0.246398 0.160975
v 0.090025 -0.256774 0.148588
v 0.083995 -0.261919 0.134580
v 0.077989 -0.261591 0.120152
v 0.043039 -0.255036 0.114446
v 0.010773 -0.255035 0.119080
v -0.023282 -0.255031 0.117859
v -0.055814 -0.255027 0.111336
v -0.101653 -0.255018 0.090170
v -0.128932 -0.255010 0.069700
v -0.168478 -0.254994 0.018956
v -0.182274 -0.254985 -0.013318
v -0.191380 -0.254972 -0.063070
v -0.187653 -0.254961 -0.111247
v -0.177240 -0.254954 -0.144675
v -0.160116 -0.000004 -0.177074
v 0.001182 0.173649 0.166548
v -0.192326 0.000182 0.071079
v 0.098531 0.000280 0.146481
v 0.096192 -0.000371 -0.291873
v 0.075557 -0.000018 -0.247999
v -0.001634 -0.173061 0.166526
v -0.153038 0.000014 0.043162
v 0.079911 -0.000014 0.101863
v -0.200828 -0.000209 -0.203067
l 1 2 3 4 5 6 7
l 1 356 8
l 1 9 10 11 12 13 14
l 1 15 16 17 18 19 20 21 22
l 23 24 25 26 27 28 29 30 31
l 23 32 33 34 35 36
l 23 37 38
l 39 359 40
l 39 41 42 43 44 45 46 47 48 49 50 51 52 53 54 55
l 39 56 57 58
l 39 59 60
l 61 62 63 64 65 66
l 61 67 68 69 70 71 31
l 61 72 73 74 75 76 77
l 61 78 79 80 81 36
l 82 83 84 85
l 82 358 86
l 82 87 88 89 90 91
l 82 92 93 94 95 96 97 98 99
l 100 101 102 103 104 105 106
l 100 361 22
l 100 107 108 109 110 111 112 113 114 115 116 117
l 100 118 119 120 121 122 123 124 8
l 125 126 127 128 129 130 131 132 14
l 125 133 134 135 136 137 22
l 125 138 139 140
l 125 141 142 143 144 145 146 147 148 149 150 151 152 153 154 155
l 40 156 157 155
l 40 158 38
l 40 159 160 161 162 163 164 165 166 167 168 169 170 171 172 173 140
l 174 175 176 177 178 179 180 181 55
l 174 182 183 184 185 186 187 188 86
l 174 189 190 191
l 174 365 99
l 191 192 193 194 195 196 8
l 191 197 198 199 200 201 202 203 106
l 191 204 205 206 207 208 209 210 211
l 31 212 213 214 215 77
l 31 216 217 218 219 220 221
l 22 222 223 224 225 226 227 228 229 230 231
l 14 232 233 99
l 14 234 235 236 237 238 239 240 85
l 85 241 242 243 244 245 246 247 155
l 85 248 249 250 251 252 7
l 253 254 91
l 253 255 256 257 258 259 36
l 253 260 261 262 263 264 265 266 77
l 211 267 268 86
l 211 269 270 271 272 273 274
l 211 275 276 277 278 279 280 281 58
l 99 282 283 284 285 286 287 288 140
l 289 290 291 292 293 77
l 289 294 295 296 297 66
l 289 298 299
l 140 360 55
l 36 300 301 66
l 55 302 303 106
l 106 304 305 306 307 308 309 310 311 312 313 314 315 316 317 318 58
l 86 319 320 321 322 299
l 7 323 324 325 326 327 328 329 231
l 7 363 274
l 221 330 60
l 221 331 332 333 334 66
l 231 335 336 337 338 339 155
l 231 364 117
l 58 340 341 342 343 344 117
l 117 345 346 347 348 349 350 274
l 91 357 38
l 299 362 60
l 274 351 352 353 354 355 8
