v 0.000000 -0.164439 -0.050670
v -0.041220 -0.164995 -0.053243
v -0.059243 -0.165014 -0.063043
v -0.066724 -0.167177 -0.081893
v -0.063798 -0.172866 -0.113389
v 0.041220 -0.164995 -0.053243
v 0.059243 -0.165014 -0.063043
v 0.066724 -0.167177 -0.081893
v 0.063798 -0.172866 -0.113389
v 0.000000 -0.185203 -0.042616
v 0.000000 -0.193845 -0.035629
v 0.000000 -0.205617 -0.016964
v 0.000000 -0.207785 0.004677
v 0.000000 -0.199221 0.036894
v 0.000000 -0.042454 -0.055061
v -0.000001 0.135009 -0.053592
v -0.076238 -0.230133 0.085158
v -0.093222 -0.245862 0.090400
v -0.112301 -0.276264 0.100535
v -0.116919 -0.300315 0.108553
v -0.115337 -0.325735 0.117027
v -0.083327 -0.225573 0.073187
v -0.085107 -0.229677 0.038056
v -0.065239 -0.221806 0.082381
v -0.043888 -0.212624 0.079321
v -0.022663 -0.207392 0.077576
v -0.002462 -0.206017 0.077118
v 0.000000 -0.205382 0.079378
v 0.062496 0.380680 0.130670
v 0.038612 0.395662 0.135038
v 0.016967 0.403099 0.137207
v -0.000001 0.404903 0.137733
v 0.078705 0.358959 0.124336
v 0.085748 0.338261 0.118301
v 0.085528 0.327310 0.115109
v 0.076847 0.396831 0.135798
v 0.084026 0.405634 0.132822
v 0.088925 0.415348 0.113376
v 0.091654 0.241010 0.037029
v 0.077570 0.245008 -0.019737
v 0.063679 0.246257 -0.100119
v 0.118879 0.282961 0.037217
v 0.125759 0.305114 0.038121
v 0.129107 0.338246 0.040109
v 0.067664 0.220738 0.037606
v 0.047626 0.210653 0.038747
v 0.026661 0.204390 0.040237
v 0.000118 0.201506 0.042496
v 0.095914 0.240667 0.062039
v 0.095452 0.243179 0.081745
v -0.000001 0.421635 -0.049853
v -0.000001 0.427287 -0.039838
v -0.000001 0.432567 -0.029678
v 0.000001 0.427287 -0.039838
v -0.000001 0.408786 -0.068705
v -0.000001 0.399967 -0.075866
v -0.000001 0.357195 -0.091323
v 0.000000 -0.421316 0.148889
v 0.000000 -0.409243 0.148226
v 0.000000 -0.384161 0.134421
v 0.000000 -0.324514 0.120865
v 0.000000 -0.430230 0.147115
v 0.000000 -0.431311 0.146758
v -0.040883 -0.414287 0.146546
v -0.059741 -0.406766 0.144038
v -0.078079 -0.394158 0.139836
v -0.092699 -0.379384 0.134910
v -0.103766 -0.362044 0.129131
v 0.040883 -0.414287 0.146546
v 0.059741 -0.406766 0.144038
v 0.078079 -0.394158 0.139836
v 0.092699 -0.379384 0.134910
v 0.103766 -0.362044 0.129131
v 0.115337 -0.325735 0.117027
v 0.112087 0.345815 -0.012518
v 0.095698 0.349916 -0.040916
v 0.065625 0.355808 -0.081718
v 0.131203 0.335096 0.061712
v 0.128870 0.329771 0.097833
v 0.126261 0.360802 0.041935
v 0.115411 0.392010 0.045093
v 0.103727 0.410879 0.047474
v 0.088610 0.427275 0.049998
v 0.063714 -0.099592 -0.120591
v 0.064400 -0.010658 -0.123465
v 0.064332 0.138345 -0.116222
v 0.060490 -0.174703 -0.123772
v 0.053241 -0.176064 -0.131413
v 0.032117 -0.176860 -0.135188
v 0.000000 -0.176960 -0.135692
v 0.064368 -0.258380 -0.098120
v -0.128870 0.329771 0.097833
v -0.127434 0.308379 0.093946
v -0.118663 0.278380 0.088498
v -0.108158 0.259141 0.085004
v -0.095452 0.246005 0.081781
v -0.118439 0.327499 0.114321
v -0.108343 0.326899 0.118471
v -0.085528 0.327310 0.115109
v -0.119503 0.372234 0.105545
v -0.103813 0.399355 0.110471
v -0.088925 0.415348 0.113376
v -0.131203 0.335096 0.061712
v -0.129107 0.338240 0.040167
v 0.000000 -0.443664 0.127835
v 0.000000 -0.455571 0.096062
v 0.000000 -0.438310 0.137838
v 0.000000 -0.263965 -0.120087
v 0.000000 -0.317786 -0.106095
v 0.000000 -0.391330 -0.081346
v 0.053265 -0.262566 -0.116019
v 0.060983 -0.260784 -0.108590
v -0.053265 -0.262566 -0.116019
v -0.060983 -0.260784 -0.108590
v -0.064368 -0.258380 -0.098120
v 0.000000 -0.292585 0.110290
v 0.000000 -0.239286 0.086011
v 0.000000 -0.215998 0.084150
v 0.070045 -0.326539 0.114606
v -0.070045 -0.326539 0.114606
v -0.091654 0.245071 0.036028
v -0.100443 0.251844 0.036122
v -0.118879 0.282968 0.036899
v -0.125759 0.305114 0.037974
v -0.077570 0.245427 -0.019671
v -0.063679 0.244805 -0.100200
v -0.076815 0.227432 0.037762
v -0.057946 0.215585 0.040474
v -0.037385 0.206682 0.042931
v -0.095914 0.245307 0.061851
v -0.000001 0.448437 0.119385
v -0.042563 0.442082 0.118231
v -0.071445 0.428319 0.115732
v -0.000001 0.436254 0.141923
v -0.000001 0.425668 0.144224
v 0.042563 0.442082 0.118231
v 0.071445 0.428319 0.115732
v -0.000001 0.457956 0.090818
v -0.000330 0.458931 0.060042
v -0.069805 -0.342893 -0.078922
v -0.070786 -0.385944 -0.065057
v 0.000016 0.251173 -0.120421
v -0.000001 0.141511 -0.138868
v -0.053288 0.245711 -0.117709
v -0.059764 0.244974 -0.110813
v 0.030315 0.254407 -0.120480
v 0.053288 0.251862 -0.117969
v 0.059764 0.247937 -0.110764
v 0.127434 0.308379 0.093946
v 0.118663 0.278380 0.088498
v 0.118439 0.327499 0.114321
v 0.108343 0.326899 0.118471
v 0.119503 0.372234 0.105545
v 0.103813 0.399355 0.110471
v 0.085107 -0.229677 0.038056
v 0.069805 -0.342893 -0.078922
v 0.070786 -0.385944 -0.065057
v 0.040657 0.136249 -0.055537
v 0.051074 0.136188 -0.057987
v 0.059934 0.135855 -0.064326
v 0.067607 0.135210 -0.084149
v -0.000001 0.167543 -0.049691
v -0.000001 0.177498 -0.045025
v -0.000001 0.193305 -0.029698
v -0.000001 0.203889 0.000758
v -0.040657 0.136249 -0.055537
v -0.051074 0.136188 -0.057987
v -0.059934 0.135855 -0.064326
v -0.067607 0.135210 -0.084149
v -0.064332 0.138345 -0.116222
v -0.088610 0.427272 0.050214
v -0.103727 0.410875 0.047719
v -0.115411 0.392005 0.045330
v -0.126261 0.360794 0.042089
v -0.078622 0.425053 -0.002196
v -0.066284 0.419040 -0.032150
v -0.061791 0.410015 -0.051304
v -0.062038 0.404321 -0.059511
v -0.064085 0.387418 -0.072172
v -0.065625 0.355808 -0.081718
v -0.090513 0.422690 0.086123
v -0.070850 0.440401 0.052685
v -0.052110 0.449319 0.054924
v -0.021956 0.457290 0.058052
v 0.020406 -0.454033 0.094850
v 0.051957 -0.445548 0.091154
v 0.088992 -0.423297 0.083266
v 0.104241 -0.407888 0.078212
v 0.116008 -0.389809 0.072597
v 0.124455 -0.370072 0.066785
v 0.129715 -0.344743 0.059548
v -0.020406 -0.454033 0.094850
v -0.051957 -0.445548 0.091154
v -0.088992 -0.423297 0.083266
v -0.104241 -0.407888 0.078212
v -0.116008 -0.389809 0.072597
v -0.124455 -0.370072 0.066785
v -0.129715 -0.344743 0.059548
v 0.000000 -0.458931 0.073834
v 0.000000 -0.456450 0.040882
v 0.000000 -0.430488 -0.044641
v 0.000000 -0.420253 -0.064543
v 0.000000 -0.412112 -0.072210
v 0.116919 -0.300315 0.108553
v 0.112301 -0.276264 0.100535
v 0.093222 -0.245862 0.090400
v 0.076238 -0.230133 0.085158
v 0.123687 -0.328310 0.109251
v 0.127215 -0.331193 0.100530
v -0.000001 0.201948 0.076370
v 0.027643 0.205200 0.075207
v 0.049159 0.211741 0.076394
v 0.078395 0.228016 0.079350
v -0.000001 0.206561 0.086395
v -0.000001 0.214670 0.092921
v -0.000001 0.225190 0.095810
v -0.000001 0.246081 0.091738
v -0.027643 0.205200 0.075207
v -0.059459 0.216432 0.077247
v -0.086751 0.234505 0.080529
v -0.061586 0.272867 0.099234
v -0.079392 0.295622 0.105869
v -0.079774 0.253607 0.101969
v -0.086275 0.249264 0.099133
v -0.092547 0.246697 0.092491
v -0.055498 0.264914 0.096915
v -0.034714 0.252649 0.093339
v -0.024364 0.248573 0.092151
v -0.124132 0.341374 0.018234
v -0.112087 0.345815 -0.012518
v -0.095698 0.349916 -0.040916
v -0.034262 0.330286 0.095018
v -0.000001 0.330841 0.092108
v -0.085748 0.338261 0.118301
v -0.078705 0.358959 0.124336
v -0.062496 0.380680 0.130670
v 0.054405 -0.390656 -0.079307
v -0.054405 -0.390656 -0.079307
v 0.107961 -0.368533 -0.012401
v 0.123380 -0.355233 0.027826
v 0.061054 0.139585 -0.126585
v 0.053341 0.140554 -0.134185
v 0.031513 0.141235 -0.138189
v -0.016967 0.403099 0.137207
v -0.038612 0.395662 0.135038
v -0.000001 0.363120 0.104949
v -0.107961 -0.368533 -0.012401
v -0.123380 -0.355233 0.027826
v -0.084026 0.405634 0.132822
v -0.076847 0.396831 0.135798
v -0.066346 -0.216312 0.037387
v -0.045354 -0.206503 0.036924
v -0.023042 -0.200782 0.036728
v -0.107929 -0.254949 0.040367
v -0.123498 -0.284579 0.045483
v -0.130798 -0.316573 0.052715
v -0.000001 0.449278 0.012822
v 0.034262 0.330286 0.095018
v 0.079392 0.295622 0.105869
v 0.061586 0.270086 0.098424
v -0.055946 0.356851 -0.088948
v -0.042888 0.357211 -0.091438
v -0.123687 -0.328310 0.109251
v -0.127215 -0.331193 0.100530
v 0.078622 0.425053 -0.002196
v 0.066284 0.419040 -0.032150
v 0.061791 0.410015 -0.051304
v 0.062038 0.404321 -0.059511
v 0.064085 0.387418 -0.072172
v 0.090513 0.422690 0.086123
v 0.070850 0.440405 0.052538
v 0.052110 0.449322 0.054876
v 0.021956 0.457289 0.058197
v 0.092547 0.246461 0.092274
v 0.086275 0.251752 0.098787
v 0.070030 0.263930 0.101816
v 0.002462 -0.206017 0.077118
v 0.022663 -0.207392 0.077576
v 0.043888 -0.212624 0.079321
v 0.065239 -0.221806 0.082381
v 0.000000 -0.198482 0.070202
v 0.000000 -0.196676 0.058995
v -0.000001 0.064150 -0.145920
v 0.000000 -0.023843 -0.148889
v 0.000000 -0.100721 -0.144984
v -0.031513 0.141235 -0.138189
v -0.053341 0.140554 -0.134185
v -0.061054 0.139585 -0.126585
v -0.000001 0.267217 0.085818
v -0.000001 0.289487 0.083927
v 0.024364 0.248573 0.092151
v 0.045581 0.258134 0.094939
v -0.032117 -0.176860 -0.135188
v -0.053241 -0.176064 -0.131413
v -0.060490 -0.174703 -0.123772
v 0.107929 -0.254949 0.040367
v 0.123498 -0.284579 0.045483
v 0.130798 -0.316573 0.052715
v 0.066346 -0.216312 0.037387
v 0.045354 -0.206503 0.036924
v 0.023042 -0.200782 0.036728
v 0.083327 -0.225573 0.073187
v -0.063714 -0.099592 -0.120591
v -0.064400 -0.010658 -0.123465
v 0.042888 0.357211 -0.091438
v 0.055946 0.356851 -0.088948
v 0.000000 -0.220463 -0.127890
v -0.074738 -0.244029 -0.030032
v 0.000008 0.304184 -0.105872
v -0.064652 0.300306 -0.090959
v 0.000008 0.196342 -0.129645
v -0.064006 0.191575 -0.108211
v 0.000059 0.201727 0.059433
v 0.074738 -0.244029 -0.030032
v 0.064083 -0.215623 -0.105755
v -0.064083 -0.215623 -0.105755
v 0.064652 0.301032 -0.090919
v 0.064006 0.192301 -0.108170
l 1 2 3 4 5
l 1 6 7 8 9
l 1 10 11 12 13 14
l 1 15 16
l 17 18 19 20 21
l 17 22 23
l 17 24 25 26 27 28
l 29 30 31 32
l 29 33 34 35
l 29 36 37 38
l 39 40 41
l 39 42 43 44
l 39 45 46 47 48
l 39 49 50
l 51 52 53
l 51 54 53
l 51 55 56 57
l 58 59 60 61
l 58 62 63
l 58 64 65 66 67 68 21
l 58 69 70 71 72 73 74
l 44 75 76 77
l 44 78 79
l 44 80 81 82 83
l 9 84 85 86
l 9 87 88 89 90
l 9 315 91
l 92 93 94 95 96
l 92 97 98 99
l 92 100 101 102
l 92 103 104
l 105 106
l 105 107 63
l 108 307 90
l 108 109 110
l 108 111 112 91
l 108 113 114 115
l 61 116 117 118 28
l 61 119 74
l 61 120 21
l 121 122 123 124 104
l 121 125 126
l 121 127 128 129 48
l 121 130 96
l 131 132 133 102
l 131 134 135 32
l 131 136 137 38
l 131 138 139
l 115 308 23
l 115 140 141
l 115 316 5
l 142 311 143
l 142 309 57
l 142 144 145 126
l 142 146 147 148 41
l 79 149 150 50
l 79 151 152 35
l 79 153 154 38
l 91 314 155
l 91 156 157
l 16 158 159 160 161 86
l 16 162 163 164 165 48
l 16 166 167 168 169 170
l 171 172 173 174 104
l 171 175 176 177 178 179 180
l 171 181 102
l 171 182 183 184 139
l 106 185 186 187 188 189 190 191
l 106 192 193 194 195 196 197 198
l 106 199 200 201 202 203 110
l 74 204 205 206 207
l 74 208 209 191
l 210 211 212 213 50
l 210 214 215 216 217
l 210 218 219 220 96
l 210 313 48
l 221 222 99
l 221 223 224 225 96
l 221 226 227 228 217
l 104 229 230 231 180
l 99 232 233
l 99 234 235 236
l 110 237 157
l 110 238 141
l 157 239 240 191
l 86 241 242 243 143
l 86 318 41
l 32 244 245 236
l 32 246 233
l 141 247 248 198
l 102 249 250 236
l 23 251 252 253 14
l 23 254 255 256 198
l 53 257 139
l 35 258 233
l 35 259 260
l 180 261 262 57
l 180 310 126
l 21 263 264 198
l 83 265 266 267 268 269 77
l 83 270 38
l 83 271 272 273 139
l 50 274 275 276 260
l 28 277 278 279 280 207
l 28 281 282 14
l 143 283 284 285 90
l 143 286 287 288 170
l 126 312 170
l 217 289 290 233
l 217 291 292 260
l 90 293 294 295 5
l 155 296 297 298 191
l 155 299 300 301 14
l 155 302 207
l 5 303 304 170
l 57 305 306 77
l 41 317 77
