v 0.111787 0.118209 0.124337
v 0.087455 0.112536 0.131880
v 0.057484 0.108339 0.136698
v 0.027974 0.107169 0.135561
v 0.005068 0.108695 0.129844
v -0.015847 0.112494 0.119846
v -0.038530 0.120081 0.102121
v -0.053627 0.127970 0.084686
v -0.069259 0.140514 0.059301
v 0.099448 0.182098 0.135296
v 0.085349 0.230886 0.132104
v 0.076199 0.253146 0.123766
v 0.068521 0.267726 0.114033
v 0.057708 0.283541 0.097178
v 0.046819 0.295312 0.077329
v 0.123792 0.058487 0.114554
v 0.134949 0.022097 0.118560
v 0.151701 -0.015454 0.135965
v 0.176793 -0.059027 0.170944
v 0.132201 0.124509 0.113356
v 0.149838 0.132894 0.098777
v 0.163882 0.142446 0.081457
v 0.176717 0.155473 0.057098
v 0.184089 0.169080 0.030944
v 0.185493 0.180117 0.009193
v 0.182326 0.190696 -0.012183
v 0.174786 0.200013 -0.031811
v 0.009201 -0.009518 -0.219899
v 0.039624 -0.004785 -0.225321
v 0.070596 -0.001738 -0.226689
v 0.095496 -0.001045 -0.224614
v 0.119738 -0.002468 -0.218801
v 0.142041 -0.006485 -0.208553
v 0.161432 -0.013020 -0.194143
v 0.194789 -0.032366 -0.153488
v -0.048857 -0.024299 -0.201862
v -0.216876 -0.074153 -0.134297
v 0.004825 0.052700 -0.190760
v -0.001742 0.221494 -0.095042
v 0.013777 -0.038968 -0.229203
v 0.019681 -0.069128 -0.234355
v 0.025739 -0.093294 -0.235120
v 0.033222 -0.116837 -0.231859
v 0.042204 -0.138611 -0.223617
v 0.052255 -0.157394 -0.210676
v 0.075656 -0.190057 -0.171536
v 0.204930 -0.102065 0.213091
v 0.215034 -0.121882 0.225479
v 0.221882 -0.138635 0.231658
v 0.229576 -0.162680 0.235120
v 0.235550 -0.187486 0.233718
v 0.239932 -0.212044 0.228442
v 0.242452 -0.235559 0.218989
v 0.147945 -0.069069 0.181006
v 0.126958 -0.080090 0.186585
v 0.103143 -0.098037 0.190082
v 0.087443 -0.115234 0.189595
v 0.075250 -0.134889 0.185934
v 0.065322 -0.161648 0.177352
v 0.061303 -0.183794 0.167987
v 0.060597 -0.212622 0.153501
v 0.204586 -0.053349 0.158645
v 0.226547 -0.052774 0.147101
v 0.246824 -0.056235 0.134363
v 0.264601 -0.064334 0.120558
v 0.279043 -0.077106 0.106116
v 0.289700 -0.093647 0.091755
v 0.298087 -0.117625 0.074743
v 0.301278 -0.143166 0.059901
v -0.303901 -0.168549 0.024843
v -0.303637 -0.145546 0.035953
v -0.298863 -0.122148 0.044948
v -0.291977 -0.104957 0.049896
v -0.278436 -0.083680 0.053554
v -0.261182 -0.064912 0.054170
v -0.236521 -0.044781 0.051807
v -0.174993 -0.007645 0.039222
v -0.313449 -0.154373 -0.002020
v -0.316334 -0.142294 -0.024250
v -0.314143 -0.129868 -0.046426
v -0.305808 -0.117754 -0.067218
v -0.291853 -0.106661 -0.085413
v -0.274244 -0.096754 -0.100972
v -0.291468 -0.178608 0.044742
v -0.274968 -0.187065 0.062241
v -0.259969 -0.191952 0.073082
v -0.237071 -0.196041 0.083538
v -0.212327 -0.197556 0.089585
v -0.180538 -0.196759 0.092394
v -0.108486 -0.188724 0.087895
v -0.298232 -0.195619 0.009025
v -0.289459 -0.215147 -0.004754
v -0.276594 -0.231742 -0.019121
v -0.259324 -0.243836 -0.033473
v -0.238772 -0.250657 -0.046881
v -0.216533 -0.253301 -0.059094
v -0.153060 -0.247878 -0.087629
v 0.103051 -0.177080 -0.179235
v 0.129197 -0.160762 -0.184177
v 0.148511 -0.145148 -0.186101
v 0.165481 -0.126863 -0.185580
v 0.178707 -0.105984 -0.181961
v 0.187381 -0.083510 -0.175331
v 0.118937 -0.232815 -0.091999
v 0.188300 -0.293116 0.042722
v 0.018740 -0.207908 -0.152736
v -0.218137 -0.048909 -0.118150
v -0.217463 -0.025276 -0.097669
v -0.214930 -0.009812 -0.078245
v -0.210360 0.001239 -0.056428
v -0.203782 0.006647 -0.033260
v -0.195649 0.006764 -0.009772
v -0.186494 0.002277 0.013043
v -0.214107 -0.098136 -0.145190
v -0.208710 -0.127925 -0.153037
v -0.202677 -0.152235 -0.154763
v -0.195046 -0.175782 -0.151289
v -0.186011 -0.197275 -0.142163
v -0.176262 -0.215961 -0.128780
v -0.163660 -0.235359 -0.107753
v 0.239049 -0.073795 -0.073867
v 0.191261 0.051594 -0.111750
v -0.110877 -0.165236 0.099111
v -0.115901 -0.135710 0.107831
v -0.123153 -0.105896 0.110366
v -0.130649 -0.082789 0.106935
v -0.139433 -0.061553 0.098328
v -0.151519 -0.038519 0.081638
v -0.164109 -0.019834 0.060085
v -0.107785 -0.208261 0.074241
v -0.109288 -0.225331 0.056523
v -0.112702 -0.238836 0.036104
v -0.119054 -0.250853 0.008402
v -0.127245 -0.257723 -0.020550
v -0.135073 -0.258912 -0.044001
v -0.143927 -0.255639 -0.066904
v -0.059897 -0.184794 0.086887
v -0.022522 -0.186429 0.094840
v 0.016113 -0.195023 0.115547
v 0.211339 -0.283647 0.035066
v 0.231898 -0.270455 0.030848
v 0.250431 -0.254285 0.029275
v 0.270101 -0.231235 0.030670
v 0.285870 -0.205763 0.035431
v 0.295127 -0.183893 0.041828
v 0.300463 -0.161394 0.050667
v 0.213915 -0.307650 0.098766
v 0.223233 -0.307654 0.122374
v 0.229266 -0.304024 0.140082
v 0.235537 -0.294114 0.162579
v 0.239705 -0.279470 0.182907
v 0.242400 -0.256702 0.204916
v 0.161248 -0.298955 0.054108
v 0.134074 -0.299755 0.068347
v 0.113751 -0.296010 0.081259
v 0.095966 -0.287697 0.095180
v 0.081806 -0.274888 0.109488
v 0.071408 -0.258191 0.123791
v 0.064581 -0.238720 0.137614
v -0.134854 0.018578 0.032545
v -0.108150 0.046075 0.032748
v -0.086892 0.084414 0.040882
v 0.105256 -0.234073 0.198079
v 0.125645 -0.240273 0.212017
v 0.142880 -0.243283 0.219763
v 0.167605 -0.244786 0.225786
v 0.193068 -0.243750 0.227318
v 0.218294 -0.240704 0.225182
v 0.264134 -0.227919 0.208189
v 0.287476 -0.216198 0.190116
v 0.302482 -0.205449 0.172683
v 0.312637 -0.193614 0.152641
v 0.316334 -0.184355 0.136392
v 0.316285 -0.172076 0.114181
v 0.161835 0.210051 -0.053018
v 0.142517 0.219684 -0.074410
v 0.123814 0.225784 -0.088717
v 0.101800 0.229896 -0.099462
v 0.077615 0.231433 -0.105352
v 0.052529 0.230492 -0.106426
v 0.022926 0.226823 -0.102613
v 0.159913 0.252087 0.000843
v 0.148805 0.270028 0.015000
v 0.137619 0.281043 0.025837
v 0.119245 0.291466 0.039922
v 0.098197 0.297041 0.052969
v 0.070053 0.298585 0.067552
v 0.000807 0.271262 -0.055196
v 0.004041 0.287704 -0.036034
v 0.009300 0.300118 -0.014432
v 0.016777 0.306783 0.008959
v 0.025925 0.307654 0.032722
v 0.036086 0.303577 0.055747
v -0.027538 0.213845 -0.082765
v -0.051224 0.204182 -0.066355
v -0.066979 0.194960 -0.049893
v -0.078075 0.184810 -0.031040
v -0.083780 0.173957 -0.010161
v -0.084040 0.163119 0.011327
v -0.079752 0.152439 0.033038
v -0.055145 0.201025 0.081801
v -0.045396 0.223746 0.088023
v -0.035127 0.239695 0.090706
v -0.017883 0.258416 0.091305
v 0.002231 0.273944 0.088944
v 0.023951 0.286497 0.084353
l 1 2 3 4 5 6 7 8 9
l 1 10 11 12 13 14 15
l 1 16 17 18 19
l 1 20 21 22 23 24 25 26 27
l 28 29 30 31 32 33 34 35
l 28 36 37
l 28 38 39
l 28 40 41 42 43 44 45 46
l 19 47 48 49 50 51 52 53
l 19 54 55 56 57 58 59 60 61
l 19 62 63 64 65 66 67 68 69
l 70 71 72 73 74 75 76 77
l 70 78 79 80 81 82 83 37
l 70 84 85 86 87 88 89 90
l 70 91 92 93 94 95 96 97
l 46 98 99 100 101 102 103 35
l 46 104 105
l 46 106 97
l 37 107 108 109 110 111 112 113 77
l 37 114 115 116 117 118 119 120 97
l 35 121 69
l 35 122 27
l 90 123 124 125 126 127 128 129 77
l 90 130 131 132 133 134 135 136 97
l 90 137 138 139 61
l 105 140 141 142 143 144 145 146 69
l 105 147 148 149 150 151 152 53
l 105 153 154 155 156 157 158 159 61
l 77 160 161 162 9
l 61 163 164 165 166 167 168 53
l 53 169 170 171 172 173 174 69
l 27 175 176 177 178 179 180 181 39
l 27 182 183 184 185 186 187 15
l 39 188 189 190 191 192 193 15
l 39 194 195 196 197 198 199 200 9
l 9 201 202 203 204 205 206 15
