v -0.001754 -0.412056 0.091315
v 0.035435 -0.412056 0.084160
v 0.052423 -0.412056 0.074750
v 0.067037 -0.412056 0.061962
v 0.078618 -0.412056 0.046374
v 0.086642 -0.412056 0.028690
v 0.091242 -0.412056 -0.000820
v -0.001729 -0.422826 0.136587
v -0.031072 -0.412056 0.085931
v -0.048536 -0.412056 0.077438
v -0.063810 -0.412056 0.065447
v -0.076204 -0.412056 0.050497
v -0.085158 -0.412056 0.033265
v -0.091320 -0.412056 0.004162
v -0.001783 -0.399741 0.058793
v -0.001823 -0.383110 0.038882
v -0.001872 -0.362090 0.029693
v -0.001939 -0.333851 0.026829
v 0.035382 0.027647 0.001742
v 0.085286 0.069279 0.000478
v 0.107385 0.095263 -0.000063
v 0.123448 0.121074 -0.000441
v 0.138793 0.163280 -0.000760
v 0.144141 0.223837 -0.000763
v 0.031701 0.027647 0.015627
v 0.024601 0.027647 0.025399
v 0.010862 0.027647 0.033684
v -0.002791 0.027647 0.035403
v 0.017978 0.019316 0.002197
v -0.002764 0.016234 0.002680
v 0.033275 0.027647 -0.011902
v 0.024601 0.027647 -0.025399
v 0.010862 0.027647 -0.033684
v -0.002791 0.027647 -0.035403
v -0.035398 0.027647 0.003673
v -0.085293 0.069279 0.005132
v -0.107387 0.095263 0.005797
v -0.123445 0.121075 0.006296
v -0.138783 0.163281 0.006814
v -0.144124 0.223837 0.007102
v -0.017996 0.019316 0.003178
v -0.026177 0.027647 0.023949
v -0.016611 0.027647 0.031325
v -0.034066 0.027647 -0.009978
v -0.026177 0.027647 -0.023949
v -0.016611 0.027647 -0.031325
v -0.002889 0.069279 0.085321
v -0.002951 0.095263 0.107426
v -0.003012 0.121074 0.123492
v -0.003111 0.163280 0.138840
v -0.003254 0.223837 0.144186
v -0.002772 0.019316 0.017993
v -0.001729 -0.422826 -0.136587
v -0.046435 -0.422826 -0.128533
v -0.072557 -0.422826 -0.115830
v -0.095404 -0.422826 -0.097893
v -0.113943 -0.422826 -0.075532
v -0.127336 -0.422826 -0.049757
v -0.134978 -0.422826 -0.021734
v -0.136576 -0.422826 0.005371
v -0.001754 -0.412056 -0.091315
v -0.001708 -0.431858 -0.151571
v -0.004301 -0.442330 -0.158409
v 0.025234 -0.422826 -0.134269
v 0.053044 -0.422826 -0.125884
v 0.089893 -0.422826 -0.102828
v 0.109596 -0.422826 -0.081485
v 0.124342 -0.422826 -0.056459
v 0.133465 -0.422826 -0.028882
v 0.136495 -0.422826 -0.002080
v -0.003231 0.214129 -0.164870
v -0.003105 0.160794 -0.159760
v -0.002990 0.112083 -0.144168
v -0.002886 0.067651 -0.118034
v -0.002757 0.013004 -0.070530
v -0.003352 0.265598 -0.161405
v -0.003468 0.314542 -0.152861
v -0.003769 0.442330 -0.119781
v -0.021973 0.214129 -0.163469
v -0.056033 0.214129 -0.155148
v -0.087564 0.214129 -0.139816
v -0.115142 0.214129 -0.118164
v -0.137520 0.214129 -0.091173
v -0.153687 0.214129 -0.060060
v -0.162912 0.214129 -0.026234
v -0.164809 0.214129 0.007644
v 0.030477 0.214129 -0.162073
v 0.064045 0.214129 -0.151951
v 0.108524 0.214129 -0.124120
v 0.132307 0.214129 -0.098358
v 0.150107 0.214129 -0.068151
v 0.161119 0.214129 -0.034863
v 0.164809 0.214129 -0.001350
v 0.158308 -0.442330 -0.002721
v 0.157484 -0.442330 0.016844
v 0.150364 -0.442330 0.049770
v 0.136443 -0.442330 0.080447
v 0.116353 -0.442330 0.107489
v 0.091001 -0.442330 0.129672
v 0.061532 -0.442330 0.145996
v 0.029279 -0.442330 0.155721
v -0.001683 -0.442330 0.158409
v 0.151473 -0.431858 -0.002510
v 0.154801 -0.442330 -0.033497
v 0.144221 -0.442330 -0.065480
v 0.127119 -0.442330 -0.094503
v 0.104268 -0.442330 -0.119256
v 0.061532 -0.442330 -0.145996
v 0.029279 -0.442330 -0.155721
v -0.085158 -0.412056 -0.033265
v -0.076204 -0.412056 -0.050497
v -0.063810 -0.412056 -0.065447
v -0.048536 -0.412056 -0.077439
v -0.031072 -0.412056 -0.085931
v -0.058808 -0.399741 0.003303
v -0.038904 -0.383110 0.002800
v -0.029716 -0.362090 0.002599
v -0.026851 -0.333851 0.002587
v -0.002757 0.013004 0.070530
v -0.030937 0.013004 0.063451
v -0.049304 0.013004 0.050550
v -0.062690 0.013004 0.032532
v -0.070515 0.013004 0.004597
v 0.020286 0.013004 0.067551
v 0.046378 0.013004 0.053098
v 0.064167 0.013004 0.029154
v 0.070493 0.013004 0.000749
v -0.002693 -0.014079 0.048295
v -0.002654 -0.030631 0.039384
v -0.002598 -0.054171 0.033179
v -0.002493 -0.098761 0.027683
v -0.002886 0.067651 0.118034
v -0.002990 0.112083 0.144168
v -0.003105 0.160794 0.159760
v -0.003231 0.214129 0.164870
v -0.001708 -0.431858 0.151571
v 0.025234 -0.422826 0.134269
v 0.053044 -0.422826 0.125883
v 0.078453 -0.422826 0.111809
v 0.100313 -0.422826 0.092681
v 0.117636 -0.422826 0.069365
v 0.129638 -0.422826 0.042914
v -0.046435 -0.422826 0.128533
v -0.072557 -0.422826 0.115830
v -0.095404 -0.422826 0.097893
v -0.113943 -0.422826 0.075532
v -0.127336 -0.422826 0.049757
v -0.027690 -0.098761 0.003164
v -0.026800 -0.098761 -0.007286
v -0.021402 -0.098761 -0.017675
v -0.012193 -0.098761 -0.024904
v -0.002493 -0.098761 -0.027683
v -0.019402 -0.098761 0.019841
v -0.023822 -0.224266 0.002763
v -0.033182 -0.054171 0.003419
v -0.039383 -0.030631 0.003644
v -0.048290 -0.014079 0.003926
v 0.159698 0.160794 -0.001336
v 0.144109 0.112083 -0.001026
v 0.117982 0.067651 -0.000418
v 0.161348 0.265599 -0.001134
v 0.152812 0.314542 -0.000785
v 0.119752 0.442330 0.000418
v 0.163911 0.214129 0.017531
v 0.156500 0.214129 0.051800
v 0.142012 0.214129 0.083729
v 0.121102 0.214129 0.111873
v 0.094716 0.214129 0.134961
v 0.064045 0.214129 0.151951
v 0.030477 0.214129 0.162073
v -0.161341 0.265598 0.007670
v -0.152798 0.314541 0.007553
v -0.119721 0.442330 0.006952
v -0.162912 0.214129 0.026234
v -0.153687 0.214129 0.060060
v -0.137520 0.214129 0.091173
v -0.115142 0.214129 0.118164
v -0.087564 0.214129 0.139816
v -0.056033 0.214129 0.155148
v -0.021973 0.214129 0.163469
v -0.159704 0.160794 0.007379
v -0.144121 0.112083 0.006839
v -0.117998 0.067651 0.006021
v 0.026786 -0.333851 0.001124
v 0.024357 -0.333851 0.011090
v 0.017590 -0.333851 0.020198
v 0.007665 -0.333851 0.025696
v 0.024357 -0.333851 -0.011090
v 0.017590 -0.333851 -0.020198
v 0.007665 -0.333851 -0.025696
v -0.001939 -0.333851 -0.026829
v 0.029647 -0.362090 0.000979
v 0.038832 -0.383110 0.000679
v 0.058733 -0.399741 0.000096
v 0.023771 -0.224265 0.001464
v 0.027655 -0.098761 0.001654
v -0.002598 -0.054171 -0.033180
v -0.002654 -0.030631 -0.039385
v -0.002693 -0.014079 -0.048296
v -0.002197 -0.224265 -0.023805
v 0.007912 -0.098761 -0.026514
v 0.018153 -0.098761 -0.020841
v 0.025135 -0.098761 -0.011443
v 0.048265 -0.014079 0.001292
v 0.039356 -0.030631 0.001496
v 0.033152 -0.054170 0.001610
v 0.064167 0.013004 -0.029154
v 0.046378 0.013004 -0.053098
v 0.020286 0.013004 -0.067551
v -0.003352 0.265598 0.161405
v -0.003468 0.314542 0.152862
v -0.003769 0.442330 0.119781
v -0.030937 0.013004 -0.063451
v -0.054399 0.013004 -0.045031
v -0.068152 0.013004 -0.018563
v 0.099436 0.442330 0.000972
v 0.117033 0.442330 0.025329
v 0.109033 0.442330 0.049513
v 0.096101 0.442330 0.071459
v 0.078822 0.442330 0.090176
v 0.057978 0.442330 0.104817
v 0.034509 0.442330 0.114722
v 0.117033 0.442330 -0.025329
v 0.109033 0.442330 -0.049513
v 0.096101 0.442330 -0.071459
v 0.078822 0.442330 -0.090176
v 0.057978 0.442330 -0.104817
v 0.034509 0.442330 -0.114722
v -0.018806 -0.333851 0.019228
v -0.025976 -0.333851 -0.007061
v -0.020744 -0.333851 -0.017129
v -0.011819 -0.333851 -0.024136
v 0.096824 0.442330 0.022535
v 0.089201 0.442330 0.043898
v 0.069257 0.442330 0.071349
v 0.051295 0.442330 0.085200
v 0.030662 0.442330 0.094623
v -0.003769 0.442330 0.099451
v 0.132378 0.318019 -0.000220
v 0.140953 0.266950 -0.000574
v 0.093623 0.442330 -0.033434
v 0.083615 0.442330 -0.053789
v 0.069257 0.442330 -0.071349
v 0.051295 0.442330 -0.085200
v 0.030662 0.442330 -0.094623
v -0.003769 0.442330 -0.099451
v -0.151555 -0.431859 0.005758
v -0.158323 -0.442330 0.008434
v -0.020611 0.223837 0.142777
v -0.052416 0.223837 0.134417
v -0.081501 0.223837 0.119070
v -0.106354 0.223837 0.097535
v -0.132950 0.223837 0.056150
v -0.142215 0.223837 0.024597
v 0.028563 0.223837 0.141372
v 0.059839 0.223837 0.131210
v 0.100447 0.223837 0.103443
v 0.121264 0.223837 0.077985
v 0.135774 0.223837 0.048473
v -0.003355 0.266951 0.140994
v -0.003476 0.318019 0.132413
v -0.001872 -0.362090 -0.029693
v -0.001823 -0.383110 -0.038883
v -0.001783 -0.399741 -0.058793
v -0.003254 0.223837 -0.144186
v -0.003355 0.266952 -0.140994
v -0.003476 0.318019 -0.132413
v -0.003111 0.163281 -0.138840
v -0.003012 0.121074 -0.123492
v -0.002951 0.095263 -0.107426
v -0.002889 0.069279 -0.085321
v -0.020611 0.223837 -0.142777
v -0.052416 0.223837 -0.134417
v -0.081501 0.223837 -0.119070
v -0.106354 0.223837 -0.097535
v -0.132950 0.223837 -0.056150
v -0.142215 0.223837 -0.024597
v 0.028563 0.223837 -0.141372
v 0.059839 0.223837 -0.131210
v 0.100447 0.223837 -0.103443
v 0.129363 0.223837 -0.063644
v 0.140414 0.223837 -0.032671
v -0.037691 -0.442330 -0.153938
v -0.069381 -0.442330 -0.142510
v -0.097939 -0.442330 -0.124641
v -0.122075 -0.442330 -0.101139
v -0.140697 -0.442330 -0.073067
v -0.152965 -0.442330 -0.041693
v -0.140931 0.266951 0.007117
v -0.132349 0.318019 0.007003
v -0.099393 0.442330 0.006397
v -0.021115 -0.442330 0.157063
v -0.053840 -0.442330 0.149068
v -0.084136 -0.442330 0.134336
v -0.110633 -0.442330 0.113533
v -0.132134 -0.442330 0.087600
v -0.147667 -0.442330 0.057707
v -0.115685 0.442330 0.031526
v -0.106409 0.442330 0.055250
v -0.083676 0.442330 0.085848
v -0.052483 0.442330 0.107759
v -0.028520 0.442330 0.116400
v -0.115685 0.442330 -0.031526
v -0.106409 0.442330 -0.055250
v -0.092327 0.442330 -0.076477
v -0.074077 0.442330 -0.094247
v -0.052483 0.442330 -0.107759
v -0.028520 0.442330 -0.116400
v -0.002197 -0.224265 0.023805
v 0.007912 -0.098761 0.026513
v 0.018153 -0.098761 0.020841
v 0.025135 -0.098761 0.011443
v 0.035435 -0.412056 -0.084160
v 0.060071 -0.412056 -0.068746
v 0.073243 -0.412056 -0.054477
v 0.083101 -0.412056 -0.037746
v -0.091727 0.442330 0.038729
v -0.073383 0.442330 0.067274
v -0.046513 0.442330 0.087994
v -0.025376 0.442330 0.096223
v -0.095545 0.442330 -0.028030
v -0.086715 0.442330 -0.048924
v -0.073383 0.442330 -0.067274
v -0.046513 0.442330 -0.087994
v -0.025376 0.442330 -0.096223
v -0.002772 0.019316 -0.017993
v -0.113948 -0.417441 0.004767
v -0.001742 -0.417441 0.113951
v -0.109557 0.442330 0.006675
v 0.113869 -0.417441 -0.001450
v -0.003769 0.442330 -0.109616
v -0.003769 0.442330 0.109616
v 0.109594 0.442330 0.000695
v -0.001742 -0.417441 -0.113951
l 1 2 3 4 5 6 7
l 1 328 8
l 1 9 10 11 12 13 14
l 1 15 16 17 18
l 19 20 21 22 23 24
l 19 25 26 27 28
l 19 29 30
l 19 31 32 33 34
l 35 36 37 38 39 40
l 35 41 30
l 35 42 43 28
l 35 44 45 46 34
l 28 47 48 49 50 51
l 28 52 30
l 53 54 55 56 57 58 59 60
l 53 334 61
l 53 62 63
l 53 64 65 66 67 68 69 70
l 71 72 73 74 75
l 71 76 77 78
l 71 79 80 81 82 83 84 85 86
l 71 87 88 89 90 91 92 93
l 94 95 96 97 98 99 100 101 102
l 94 103 70
l 94 104 105 106 107 108 109 63
l 14 327 60
l 14 110 111 112 113 114 61
l 14 115 116 117 118
l 119 120 121 122 123
l 119 124 125 126 127
l 119 128 129 130 131
l 119 132 133 134 135
l 8 136 102
l 8 137 138 139 140 141 142 70
l 8 143 144 145 146 147 60
l 148 149 150 151 152
l 148 153 131
l 148 154 118
l 148 155 156 157 123
l 93 158 159 160 127
l 93 161 162 163
l 93 164 165 166 167 168 169 170 135
l 86 171 172 173
l 86 174 175 176 177 178 179 180 135
l 86 181 182 183 123
l 184 185 186 187 18
l 184 188 189 190 191
l 184 192 193 194 7
l 184 195 196
l 152 197 198 199 75
l 152 200 191
l 152 201 202 203 196
l 127 204 205 206 196
l 127 207 208 209 75
l 135 210 211 212
l 75 213 214 215 123
l 163 333 216
l 163 217 218 219 220 221 222 212
l 163 223 224 225 226 227 228 78
l 118 229 18
l 118 230 231 232 191
l 216 233 234 235 236 237 238
l 216 239 240 24
l 216 241 242 243 244 245 246
l 60 247 248
l 51 249 250 251 252 253 254 40
l 51 255 256 257 258 259 24
l 51 260 261 238
l 191 262 263 264 61
l 265 266 267 246
l 265 268 269 270 271 34
l 265 272 273 274 275 276 277 40
l 265 278 279 280 281 282 24
l 63 283 284 285 286 287 288 248
l 40 289 290 291
l 102 292 293 294 295 296 297 248
l 173 298 299 300 301 302 212
l 173 329 291
l 173 303 304 305 306 307 308 78
l 131 309 18
l 131 310 311 312 196
l 61 313 314 315 316 7
l 291 317 318 319 320 238
l 291 321 322 323 324 325 246
l 30 326 34
l 212 332 238
l 70 330 7
l 246 331 78
