v 0.000000 -0.160533 0.083030
v 0.000000 -0.163401 0.063376
v -0.238400 0.160531 -0.148499
v -0.258356 0.159964 -0.018021
v -0.265546 0.159959 0.064907
v -0.261810 0.159960 0.128351
v -0.247328 0.159968 0.169715
v -0.235690 0.159974 0.185363
v -0.220979 0.159983 0.198193
v -0.199597 0.159995 0.209997
v -0.176443 0.160010 0.217915
v -0.108794 0.160060 0.228468
v -0.011471 0.160921 0.231837
v 0.099029 0.160069 0.229185
v 0.166937 0.160015 0.220276
v 0.212737 0.159988 0.203460
v 0.232271 0.159976 0.188854
v 0.244738 0.159970 0.173858
v 0.253820 0.159965 0.156575
v 0.260863 0.159961 0.133158
v 0.265664 0.159959 0.069803
v 0.258356 0.159964 -0.018021
v 0.238400 0.160531 -0.148499
v 0.000000 0.118368 0.190445
v 0.000000 0.121492 0.207928
v 0.000000 0.129930 0.220653
v 0.000000 0.144791 0.229511
v 0.000000 0.160661 0.231774
v 0.195451 0.118262 -0.149189
v 0.216726 0.118232 -0.042455
v 0.223780 0.118227 0.020126
v 0.220525 0.118227 0.069423
v 0.205338 0.118236 0.111558
v 0.192431 0.118243 0.129936
v 0.176334 0.118253 0.145601
v 0.133428 0.118277 0.169880
v 0.076882 0.118310 0.184486
v 0.000910 0.118368 0.190445
v 0.052887 -0.204799 -0.016578
v 0.065128 -0.196607 -0.016624
v 0.075045 -0.180274 -0.016662
v 0.081934 -0.151294 -0.016682
v 0.084780 -0.117028 -0.016738
v 0.000000 0.055181 0.111761
v 0.000000 0.050416 0.227132
v 0.000000 0.036833 0.294978
v -0.138458 -0.204688 -0.261464
v -0.156749 -0.204720 -0.238533
v -0.170820 -0.204728 -0.213457
v -0.179076 -0.204733 -0.190093
v -0.185573 -0.204737 -0.157717
v -0.187861 -0.204740 -0.083560
v -0.182068 -0.204737 -0.046870
v -0.172723 -0.204732 -0.015203
v -0.145661 -0.204717 0.035688
v -0.126841 -0.204706 0.057591
v -0.104664 -0.204693 0.076081
v -0.083360 -0.204680 0.088693
v -0.056508 -0.204667 0.099297
v -0.028348 -0.204627 0.105813
v 0.000000 -0.204404 0.108263
v 0.028348 -0.204627 0.105813
v 0.056508 -0.204667 0.099297
v 0.083360 -0.204680 0.088693
v 0.104664 -0.204693 0.076081
v 0.126841 -0.204706 0.057591
v 0.145661 -0.204717 0.035688
v 0.172723 -0.204732 -0.015203
v 0.182068 -0.204737 -0.046870
v 0.187861 -0.204740 -0.083560
v 0.185573 -0.204737 -0.157717
v 0.179076 -0.204733 -0.190093
v 0.170820 -0.204728 -0.213457
v 0.156749 -0.204720 -0.238533
v 0.138458 -0.204688 -0.261464
v 0.000000 0.161189 -0.317652
v 0.000000 0.211110 -0.304422
v 0.000000 0.228589 -0.292297
v 0.000000 0.238753 -0.278720
v 0.000000 0.248085 -0.245963
v 0.000000 0.255013 -0.147967
v 0.000000 0.094475 0.081499
v 0.000000 0.118324 0.080514
v -0.039553 0.199301 0.246720
v -0.037426 0.187627 0.246741
v -0.027671 0.172494 0.246811
v -0.012549 0.162905 0.246831
v 0.000000 0.160663 0.246760
v 0.012549 0.162905 0.246831
v 0.027671 0.172494 0.246811
v 0.037426 0.187627 0.246741
v 0.039553 0.199301 0.246720
v 0.000000 -0.145375 0.092556
v 0.000000 -0.154428 0.090100
v 0.235322 0.196111 -0.148726
v 0.227817 0.221236 -0.148703
v 0.212927 0.242116 -0.148634
v 0.191065 0.255769 -0.148557
v 0.170960 0.261120 -0.148484
v 0.139802 0.263160 -0.148370
v -0.000353 0.255013 -0.147967
v 0.158017 -0.284282 -0.318575
v 0.156696 -0.249905 -0.316167
v 0.153431 -0.225271 -0.306135
v 0.148006 -0.210628 -0.289601
v 0.215152 0.124409 -0.148586
v 0.228507 0.133499 -0.148727
v 0.236655 0.146367 -0.148641
v 0.007942 -0.145141 0.101033
v 0.005165 -0.144883 0.106357
v 0.000000 -0.145059 0.107896
v -0.005165 -0.144883 0.106357
v -0.007942 -0.145141 0.101033
v 0.030270 0.066034 0.294880
v 0.020499 0.075165 0.111671
v 0.012550 0.083266 0.081127
v 0.009011 0.091678 0.081208
v 0.000362 0.094475 0.081499
v 0.006719 -0.166372 0.088377
v 0.007367 -0.156922 0.096992
v 0.229066 0.159942 -0.180224
v 0.211350 0.160003 -0.217274
v 0.192653 0.160005 -0.244267
v 0.169329 0.160020 -0.267375
v 0.145049 0.160035 -0.282618
v 0.095634 0.160062 -0.302910
v 0.055989 0.160085 -0.313647
v 0.019281 0.160323 -0.317853
v -0.031584 0.160054 -0.317294
v -0.068029 0.160094 -0.310970
v -0.114888 0.160052 -0.295744
v -0.159339 0.160026 -0.274570
v -0.184475 0.160012 -0.253496
v -0.207075 0.160001 -0.224293
v -0.227563 0.159933 -0.184015
v 0.066371 0.199210 0.231637
v 0.069918 0.208454 0.231616
v 0.079043 0.212194 0.231579
v 0.088266 0.208320 0.231549
v 0.092134 0.199174 0.231542
v 0.000000 -0.204557 -0.148021
v 0.000000 -0.048983 -0.149302
v 0.000000 -0.001566 -0.144730
v 0.000000 0.038676 -0.135617
v 0.000000 0.070623 -0.121663
v 0.000000 0.095057 -0.101587
v 0.000000 0.109887 -0.077328
v 0.000000 0.118608 -0.043267
v 0.139014 0.118280 -0.260920
v 0.151840 0.118272 -0.225634
v 0.157398 0.118269 -0.183060
v 0.153033 0.118270 -0.145626
v 0.138891 0.118278 -0.110753
v 0.119021 0.118289 -0.085314
v 0.088562 0.118310 -0.063220
v 0.048097 0.118312 -0.048512
v 0.005169 0.118552 -0.043248
v -0.037356 0.118317 -0.046261
v -0.078863 0.118316 -0.058563
v -0.110999 0.118293 -0.078096
v -0.136053 0.118280 -0.106166
v -0.151625 0.118271 -0.140417
v -0.157347 0.118268 -0.177658
v -0.153036 0.118272 -0.220438
v -0.139014 0.118280 -0.260920
v 0.000000 0.054729 -0.025539
v 0.000000 0.062809 -0.037949
v 0.000000 0.072929 -0.042861
v 0.000000 -0.284057 0.157539
v 0.000000 -0.250534 0.152336
v 0.000000 -0.225699 0.141455
v 0.000000 -0.211112 0.127510
v -0.084780 -0.117028 -0.016738
v -0.078156 -0.117018 0.015683
v -0.059814 -0.117017 0.043169
v -0.032587 -0.117015 0.061688
v -0.002892 -0.117235 0.068444
v 0.032587 -0.117015 0.061688
v 0.059814 -0.117017 0.043169
v 0.078156 -0.117018 0.015683
v 0.000000 0.020335 -0.004438
v 0.000000 0.020256 0.006545
v -0.006719 -0.166372 0.088377
v 0.000000 -0.170196 0.092227
v -0.158017 -0.284282 -0.318575
v -0.182664 -0.284042 -0.304057
v -0.200018 -0.283612 -0.279157
v -0.218700 -0.282847 -0.234867
v -0.235672 -0.281825 -0.177268
v -0.248476 -0.281365 -0.106343
v -0.258952 -0.281536 -0.016836
v -0.260366 -0.281766 0.037183
v -0.254997 -0.282085 0.078864
v -0.246602 -0.282356 0.101335
v -0.232626 -0.282687 0.120616
v -0.218634 -0.282952 0.131744
v -0.196868 -0.283282 0.141740
v -0.137739 -0.283834 0.152061
v -0.029720 -0.284174 0.157827
v 0.095807 -0.284033 0.155183
v 0.185283 -0.283425 0.145012
v 0.208071 -0.283123 0.137391
v 0.228258 -0.282775 0.124679
v 0.240340 -0.282516 0.111521
v 0.251439 -0.282212 0.090354
v 0.259672 -0.281840 0.049180
v 0.259735 -0.281575 -0.004844
v 0.251840 -0.281404 -0.082542
v 0.237041 -0.281722 -0.171418
v 0.220665 -0.282750 -0.229201
v 0.200018 -0.283612 -0.279157
v 0.182664 -0.284042 -0.304057
v 0.117325 -0.204693 -0.208432
v 0.104571 -0.204690 -0.188812
v 0.090624 -0.204681 -0.174415
v 0.055515 -0.204661 -0.155448
v 0.002670 -0.204608 -0.147937
v -0.049081 -0.204655 -0.153611
v -0.071042 -0.204671 -0.161651
v -0.088026 -0.204680 -0.172306
v -0.102449 -0.204688 -0.186226
v -0.115708 -0.204692 -0.205498
v 0.000000 -0.204653 -0.069649
v 0.000000 -0.196558 -0.081728
v 0.000000 -0.180237 -0.091607
v 0.000000 -0.151249 -0.098490
v 0.000000 -0.116900 -0.101384
v -0.030270 0.066034 0.294880
v -0.028045 0.054918 0.294889
v -0.021647 0.045478 0.294913
v -0.012197 0.039078 0.294945
v 0.012197 0.039078 0.294945
v 0.021647 0.045478 0.294913
v 0.028045 0.054918 0.294889
v 0.106783 -0.204692 -0.287398
v 0.074684 -0.204662 -0.304089
v 0.040092 -0.204690 -0.314530
v 0.000000 -0.204195 -0.319443
v -0.040092 -0.204690 -0.314530
v -0.074684 -0.204662 -0.304089
v -0.106783 -0.204692 -0.287398
v 0.003853 -0.003616 -0.016077
v -0.005653 -0.002880 -0.015664
v -0.011757 0.004258 -0.012181
v -0.010068 0.015028 -0.006824
v -0.002017 0.020091 -0.004447
v 0.005706 0.018786 -0.004966
v 0.011775 0.011667 -0.008524
v 0.011030 0.002499 -0.013029
v 0.000000 0.212399 0.227489
v 0.000000 0.250470 0.214726
v 0.000000 0.278071 0.191653
v 0.000000 0.293325 0.158990
v 0.000000 0.297799 0.123002
v 0.000000 0.294916 0.074679
v 0.061399 0.072536 0.018670
v 0.061828 0.118586 0.018601
v 0.000000 0.095196 0.294946
v 0.000000 0.095144 0.112022
v 0.000000 -0.160568 0.102864
v 0.000421 0.071542 0.080286
v 0.021824 0.071511 0.075614
v 0.043466 0.071175 0.061775
v 0.056956 0.071532 0.041797
v -0.001244 0.054274 0.063393
v 0.014213 0.054245 0.060901
v 0.027773 0.054297 0.051120
v 0.040395 0.054317 0.034939
v 0.044762 0.054412 0.018667
v 0.012222 0.083207 0.111703
v 0.077573 -0.117017 -0.049812
v 0.060584 -0.117008 -0.075146
v 0.032704 -0.116987 -0.094357
v -0.000419 -0.116900 -0.101384
v 0.000000 0.054420 0.006097
v 0.057675 0.064627 0.018658
v -0.007579 -0.126492 0.090988
v -0.005782 -0.130681 0.086202
v 0.000000 -0.132422 0.084396
v 0.005782 -0.130681 0.086202
v 0.007579 -0.126492 0.090988
v 0.000000 -0.175979 0.060350
v 0.067341 0.198245 0.247004
v 0.000000 -0.117191 0.068408
v 0.000000 -0.148905 0.066586
v 0.000000 -0.182338 0.058224
v 0.000000 -0.196810 0.049259
v 0.000000 -0.204527 0.036348
v 0.005685 -0.168664 0.062309
v -0.005685 -0.168664 0.062309
v 0.056077 0.118385 -0.005737
v 0.041144 0.118292 -0.026173
v 0.019721 0.118390 -0.039674
v -0.019721 0.118390 -0.039674
v -0.041144 0.118292 -0.026173
v -0.056077 0.118385 -0.005737
v -0.061828 0.118586 0.018601
v 0.002090 0.004164 0.023605
v 0.009699 0.006396 0.019770
v 0.011761 0.013343 0.012994
v 0.006734 0.018696 0.007879
v -0.002042 0.020106 0.006632
v -0.009669 0.016651 0.009797
v -0.011771 0.009751 0.016544
v -0.006777 0.004489 0.021810
v 0.005131 -0.162218 0.084591
v -0.005131 -0.162218 0.084591
v 0.006286 -0.170278 0.075678
v 0.070219 0.190092 0.231615
v 0.079223 0.186361 0.231577
v 0.088309 0.190133 0.231549
v -0.052887 -0.204799 -0.016578
v -0.048715 -0.204686 0.003592
v -0.037178 -0.204641 0.020733
v -0.020132 -0.204666 0.032433
v 0.020132 -0.204666 0.032433
v 0.037178 -0.204641 0.020733
v 0.048715 -0.204686 0.003592
v 0.011363 0.054289 0.024760
v 0.004153 0.054568 0.030762
v -0.005985 0.054486 0.030123
v -0.012064 0.054279 0.022868
v -0.011322 0.054288 0.012863
v -0.004071 0.054330 0.006790
v 0.005909 0.054305 0.007500
v 0.012036 0.054287 0.014732
v 0.000000 -0.137749 0.090292
v 0.000000 -0.122576 0.095620
v 0.091825 0.198136 0.246940
v 0.086000 0.191770 0.247739
v 0.079772 0.190355 0.247969
v 0.073437 0.191960 0.247758
v 0.000000 0.004303 0.023856
v 0.000000 0.025748 0.030765
v 0.000000 0.054712 0.031190
v 0.039494 0.199263 0.231474
v 0.037584 0.211021 0.229961
v 0.027916 0.226128 0.226067
v 0.012702 0.235645 0.222081
v 0.000000 0.237895 0.220860
v -0.012702 0.235645 0.222081
v -0.027916 0.226128 0.226067
v -0.037584 0.211021 0.229961
v -0.039494 0.199263 0.231474
v -0.007175 -0.123452 0.068453
v 0.000000 -0.129866 0.067932
v 0.007175 -0.123452 0.068453
v 0.048566 -0.204687 -0.036733
v 0.036907 -0.204626 -0.053773
v 0.019780 -0.204706 -0.065250
v -0.000398 -0.204653 -0.069649
v 0.004601 -0.118372 0.068547
v -0.004601 -0.118372 0.068547
v 0.055027 0.071566 -0.004021
v 0.038505 0.071057 -0.027592
v 0.022865 0.071609 -0.038257
v -0.022865 0.071609 -0.038257
v -0.038505 0.071057 -0.027592
v -0.055027 0.071566 -0.004021
v -0.061399 0.072536 0.018670
v 0.000341 0.071298 0.111737
v -0.001593 0.071379 0.111745
v 0.000000 -0.132025 0.104903
v -0.000955 0.004283 0.023816
v 0.000955 0.004283 0.023816
v 0.068618 0.206907 0.246509
v 0.080122 0.212381 0.246605
v 0.089608 0.208966 0.246433
v 0.007829 -0.134677 0.098014
v 0.000000 0.238138 0.246774
v 0.000000 -0.004183 -0.016557
v 0.000000 -0.003324 0.014239
v 0.027969 0.077146 0.294885
v 0.021626 0.086561 0.294899
v 0.012222 0.092922 0.294917
v -0.012222 0.092922 0.294917
v -0.021626 0.086561 0.294899
v -0.027969 0.077146 0.294885
v -0.037292 0.187376 0.232071
v -0.027133 0.171866 0.232054
v -0.011918 0.162554 0.231872
v 0.011918 0.162554 0.231872
v 0.027133 0.171866 0.232054
v 0.037292 0.187376 0.232071
v 0.000000 -0.132414 0.084425
v 0.119188 0.118291 -0.285481
v 0.091681 0.118309 -0.300910
v 0.046105 0.118327 -0.314249
v 0.000000 0.118576 -0.318982
v -0.046105 0.118327 -0.314249
v -0.091681 0.118309 -0.300910
v -0.119188 0.118291 -0.285481
v 0.001002 0.020238 0.006593
v -0.001002 0.020238 0.006593
v 0.000490 0.055181 0.111761
v 0.014849 0.060800 0.111710
v 0.000000 0.071542 0.080286
v -0.006080 -0.145262 0.095235
v 0.006080 -0.145262 0.095235
v 0.009459 0.073444 0.080584
v 0.000000 0.054274 0.063393
v 0.000000 0.062368 0.074196
v 0.000000 0.071298 0.111737
v 0.040280 0.054323 0.002429
v 0.027538 0.054256 -0.013681
v 0.013822 0.054416 -0.023283
v -0.001446 0.054729 -0.025539
v 0.000793 0.118324 0.080514
v 0.024577 0.118304 0.074871
v 0.045083 0.118314 0.059837
v 0.058232 0.118429 0.038323
v 0.037700 0.211015 0.246733
v 0.028118 0.226259 0.246796
v 0.012830 0.235881 0.246825
v -0.012830 0.235881 0.246825
v -0.028118 0.226259 0.246796
v -0.037700 0.211015 0.246733
v 0.008801 0.074923 0.111728
v 0.009488 0.091448 0.111782
v 0.000445 0.095144 0.112022
v 0.013696 0.089437 0.111767
v 0.007336 -0.122956 0.080972
v -0.195451 0.118262 -0.149189
v -0.216726 0.118232 -0.042455
v -0.223780 0.118227 0.020126
v -0.220525 0.118227 0.069423
v -0.205338 0.118236 0.111558
v -0.192431 0.118243 0.129936
v -0.176334 0.118253 0.145601
v -0.133428 0.118277 0.169880
v -0.076882 0.118310 0.184486
v -0.000910 0.118368 0.190445
v -0.065128 -0.196607 -0.016624
v -0.075045 -0.180274 -0.016662
v -0.081934 -0.151294 -0.016682
v -0.235322 0.196111 -0.148726
v -0.227817 0.221236 -0.148703
v -0.212927 0.242116 -0.148634
v -0.191065 0.255769 -0.148557
v -0.170960 0.261120 -0.148484
v -0.139802 0.263160 -0.148370
v 0.000353 0.255013 -0.147967
v -0.156696 -0.249905 -0.316167
v -0.153431 -0.225271 -0.306135
v -0.148006 -0.210628 -0.289601
v -0.215152 0.124409 -0.148586
v -0.228507 0.133499 -0.148727
v -0.236655 0.146367 -0.148641
v -0.020499 0.075165 0.111671
v -0.012550 0.083266 0.081127
v -0.009011 0.091678 0.081208
v -0.000362 0.094475 0.081499
v -0.007367 -0.156922 0.096992
v -0.066371 0.199210 0.231637
v -0.069918 0.208454 0.231616
v -0.079043 0.212194 0.231579
v -0.088266 0.208320 0.231549
v -0.092134 0.199174 0.231542
v -0.000421 0.071542 0.080286
v -0.021824 0.071511 0.075614
v -0.043466 0.071175 0.061775
v -0.056956 0.071532 0.041797
v 0.001244 0.054274 0.063393
v -0.014213 0.054245 0.060901
v -0.027773 0.054297 0.051120
v -0.040395 0.054317 0.034939
v -0.044762 0.054412 0.018667
v -0.012222 0.083207 0.111703
v -0.077573 -0.117017 -0.049812
v -0.060584 -0.117008 -0.075146
v -0.032704 -0.116987 -0.094357
v 0.000419 -0.116900 -0.101384
v -0.057675 0.064627 0.018658
v -0.067341 0.198245 0.247004
v -0.006286 -0.170278 0.075678
v -0.070219 0.190092 0.231615
v -0.079223 0.186361 0.231577
v -0.088309 0.190133 0.231549
v -0.091825 0.198136 0.246940
v -0.086000 0.191770 0.247739
v -0.079772 0.190355 0.247969
v -0.073437 0.191960 0.247758
v -0.048566 -0.204687 -0.036733
v -0.036907 -0.204626 -0.053773
v -0.019780 -0.204706 -0.065250
v 0.000398 -0.204653 -0.069649
v -0.000341 0.071298 0.111737
v 0.001593 0.071379 0.111745
v -0.068618 0.206907 0.246509
v -0.080122 0.212381 0.246605
v -0.089608 0.208966 0.246433
v -0.007829 -0.134677 0.098014
v -0.000490 0.055181 0.111761
v -0.014849 0.060800 0.111710
v -0.009459 0.073444 0.080584
v -0.040280 0.054323 0.002429
v -0.027538 0.054256 -0.013681
v -0.013822 0.054416 -0.023283
v 0.001446 0.054729 -0.025539
v -0.000793 0.118324 0.080514
v -0.024577 0.118304 0.074871
v -0.045083 0.118314 0.059837
v -0.058232 0.118429 0.038323
v -0.008801 0.074923 0.111728
v -0.009488 0.091448 0.111782
v -0.000445 0.095144 0.112022
v -0.013696 0.089437 0.111767
v -0.007336 -0.122956 0.080972
l 1 2
l 3 4 5 6 7 8 9 10 11 12 13 14 15 16 17 18 19 20 21 22 23
l 24 25 26 27 28
l 29 30 31 32 33 34 35 36 37 38
l 39 40 41 42 43
l 44 45 46
l 47 48 49 50 51 52 53 54 55 56 57 58 59 60 61 62 63 64 65 66 67 68 69 70 71 72 73 74 75
l 76 77 78 79 80 81
l 82 83
l 84 85 86 87 88 89 90 91 92
l 93 94 1
l 23 95 96 97 98 99 100 101
l 102 103 104 105 75
l 29 106 107 108 23
l 109 110 111 112 113
l 114 115
l 116 117 118
l 119 120 109
l 23 121 122 123 124 125 126 127 128 129 130 131 132 133 134 135 3
l 136 137 138 139 140
l 141 142 143 144 145 146 147 148
l 75 149
l 149 150 151 152 153 154 155 156 157 158 159 160 161 162 163 164 165
l 29 149
l 166 167 168
l 169 170 171 172 61
l 173 174 175 176 177 178 179 180 43
l 181 182
l 183 184 119
l 185 186 187 188 189 190 191 192 193 194 195 196 197 198 199 200 201 202 203 204 205 206 207 208 209 210 211 212 102
l 75 213 214 215 216 217 218 219 220 221 222 47
l 223 224 225 226 227
l 102 185
l 228 229 230 231 46 232 233 234 114
l 75 235 236 237 238 239 240 241 47
l 242 243 244 245 246 247 248 249 242
l 28 250 251 252 253 254 255 81
l 256 257
l 258 259
l 184 260 111
l 261 262 263 264 256
l 265 266 267 268 269
l 270 116
l 28 88
l 43 271 272 273 274
l 182 275
l 269 276 256
l 277 278 279 280 281
l 282 184
l 283 136
l 284 285 286 287 288
l 168 148
l 289 2 290
l 257 291 292 293 148 294 295 296 297
l 298 299 300 301 302 303 304 305 298
l 119 306 1 307 183
l 289 308 119
l 136 309 310 311 140
l 312 313 314 315 288 316 317 318 39
l 319 320 321 322 323 324 325 326 319
l 279 327 93
l 281 328 277
l 329 330 331 332 283
l 333 334 335
l 92 336
l 329 140
l 290 282 289
l 336 337 338 339 340 341 342 343 344
l 345 346 347
l 39 348 349 350 351
l 347 352 284 353 345
l 346 279
l 256 354 355 356 168 357 358 359 360
l 361 362
l 111 363 328
l 364 365
l 283 366 367 368 329
l 281 369 109
l 370 340
l 371 372 333
l 114 373 374 375 258 376 377 378 228
l 344 379 380 381 28 382 383 384 336
l 385 279
l 149 386 387 388 389 390 391 392 165
l 393 394
l 395 396 115
l 328 284
l 82 397
l 113 398 93 399 109
l 259 82
l 116 400 261
l 401 402 397
l 403 397
l 269 404 405 406 407
l 408 409 410 411 257
l 92 412 413 414 370 415 416 417 84
l 361 418 270
l 270 419 420
l 115 421 420
l 347 422 281
l 423 424 425 426 427 428 429 430 431 432
l 312 433 434 435 173
l 3 436 437 438 439 440 441 442
l 185 443 444 445 47
l 423 446 447 448 3
l 228 449
l 450 451 452
l 183 453 113
l 454 455 456 457 458
l 47 165
l 423 165
l 360 297
l 459 460 461 462 360
l 463 464 465 466 467
l 468 450
l 173 469 470 471 472
l 467 473 360
l 474 454
l 290 475 183
l 454 476 477 478 458
l 479 480 481 482 474
l 84 344
l 479 458
l 312 483 484 485 486
l 487 488
l 474 489 490 491 479
l 277 492 113
l 493 494 449
l 450 495 459
l 467 496 497 498 499
l 500 501 502 503 297
l 487 504 468
l 468 505 506
l 449 507 506
l 345 508 277
