v 0.101226 -0.022597 0.403122
v 0.112927 -0.015393 0.400424
v 0.127339 -0.013955 0.398489
v 0.140525 -0.019580 0.398192
v 0.148652 -0.030835 0.400225
v 0.000000 -0.096894 0.443887
v 0.000000 -0.062576 0.438939
v 0.000000 -0.021800 0.420799
v 0.000000 0.004353 0.399548
v 0.000000 0.031670 0.363786
v 0.000000 0.045596 0.333115
v 0.000000 0.056166 0.289378
v 0.000000 0.061258 0.233190
v 0.000000 0.062109 0.165484
v 0.000000 0.068470 -0.319983
v 0.000000 0.036979 -0.362445
v 0.000000 -0.002183 -0.396541
v 0.000000 -0.048513 -0.420003
v 0.000000 -0.099038 -0.433880
v 0.154522 -0.016852 0.369692
v 0.161230 -0.009960 0.338154
v 0.170402 -0.011629 0.306523
v 0.177169 -0.020249 0.275456
v 0.134709 0.104963 -0.194454
v 0.135915 0.095466 -0.207084
v 0.138925 0.080846 -0.215203
v 0.142915 0.062406 -0.216819
v 0.147278 0.041299 -0.210927
v 0.125875 0.010417 0.271961
v 0.117767 0.008303 0.315056
v 0.112471 0.003814 0.340398
v 0.105536 -0.007652 0.372610
v -0.095215 0.069580 -0.296685
v -0.085452 0.093085 -0.276514
v -0.064631 0.113771 -0.259410
v -0.034603 0.127260 -0.250527
v 0.000000 0.131688 -0.248347
v 0.034603 0.127260 -0.250527
v 0.064631 0.113771 -0.259410
v 0.085452 0.093085 -0.276514
v 0.095215 0.069580 -0.296685
v 0.158747 0.043032 -0.073818
v 0.149514 0.090538 -0.069937
v 0.139000 0.126961 -0.072925
v 0.080189 0.064799 -0.307387
v 0.062320 0.063811 -0.313391
v -0.062320 0.063811 -0.313391
v -0.080189 0.064799 -0.307387
v 0.174969 -0.090533 -0.349789
v 0.170277 -0.101460 -0.364786
v 0.160909 -0.107444 -0.383753
v 0.144069 -0.109406 -0.404643
v 0.124416 -0.113204 -0.417958
v 0.138204 0.129640 -0.037121
v 0.149361 0.081358 -0.041817
v 0.156667 0.043290 -0.038621
v 0.084559 -0.061889 -0.395117
v 0.070211 -0.076753 -0.412502
v 0.050579 -0.088002 -0.424744
v 0.026397 -0.095998 -0.431637
v -0.026397 -0.095998 -0.431637
v -0.050579 -0.088002 -0.424744
v -0.070211 -0.076753 -0.412502
v -0.084559 -0.061889 -0.395117
v 0.176361 -0.122928 0.205697
v 0.164667 -0.115330 0.183286
v 0.144211 -0.110009 0.168194
v 0.132151 0.116692 0.093915
v 0.132639 0.124752 0.054777
v 0.000000 0.175394 -0.056048
v 0.000000 0.169256 0.027902
v 0.000000 0.150935 0.111372
v 0.168062 -0.125240 0.026588
v 0.170923 -0.124943 -0.152550
v 0.134300 0.103550 0.114214
v 0.137435 0.086251 0.126848
v 0.140967 0.067287 0.132548
v 0.143535 0.042782 0.133313
v 0.172062 -0.076962 0.396823
v 0.165861 -0.086042 0.404943
v 0.153791 -0.095151 0.414516
v 0.123056 -0.103575 0.428207
v 0.076918 -0.104236 0.437455
v 0.000000 -0.105093 0.442126
v -0.076918 -0.104236 0.437455
v -0.123056 -0.103575 0.428207
v -0.153791 -0.095151 0.414516
v -0.165861 -0.086042 0.404943
v -0.172062 -0.076962 0.396823
v 0.149090 0.039381 0.092427
v 0.138441 0.128126 -0.055563
v 0.139304 0.048032 0.147271
v 0.132989 0.054657 0.156159
v 0.123978 0.060653 0.161083
v 0.112480 0.064070 0.163631
v 0.158474 -0.107940 -0.143634
v 0.157136 -0.106428 0.012518
v 0.121139 0.082281 0.149775
v 0.121737 0.104628 0.131714
v 0.116814 0.123171 0.118093
v 0.105608 0.136248 0.111537
v 0.077887 -0.052448 0.410661
v 0.049158 -0.082779 0.435340
v 0.107666 0.149765 -0.055877
v 0.074050 0.165556 -0.056195
v 0.037835 0.173474 -0.056219
v -0.037835 0.173474 -0.056219
v -0.074050 0.165556 -0.056195
v -0.107666 0.149765 -0.055877
v -0.138441 0.128126 -0.055563
v -0.105608 0.136248 0.111537
v -0.075431 0.148067 0.110566
v -0.027414 0.151469 0.112145
v 0.066038 0.149605 0.111102
v 0.092436 0.143257 0.110112
v 0.095650 -0.033968 0.407021
v 0.097844 -0.047068 0.411858
v 0.106757 -0.058171 0.415758
v 0.119365 -0.064762 0.416909
v 0.138390 -0.039927 -0.363356
v 0.151630 -0.025008 -0.332723
v 0.163048 -0.017114 -0.301113
v 0.173252 -0.016721 -0.268427
v 0.179015 -0.023955 -0.235873
v 0.088344 -0.118050 -0.429084
v 0.000000 -0.119992 -0.439169
v -0.088344 -0.118050 -0.429084
v -0.124416 -0.113204 -0.417958
v 0.142302 -0.053340 0.195378
v 0.137661 -0.016307 0.220835
v 0.131649 0.003883 0.245755
v 0.000000 0.156903 -0.187195
v 0.000000 0.169496 -0.147438
v 0.000000 0.175416 -0.107038
v 0.176733 -0.016632 0.300878
v 0.178912 -0.025667 0.336976
v 0.179621 -0.046458 0.368225
v 0.164835 -0.069128 -0.163438
v 0.165139 -0.029982 -0.184048
v 0.161563 -0.008791 -0.199456
v 0.155632 0.006907 -0.219699
v 0.129506 -0.039723 -0.366508
v 0.121582 -0.044743 -0.372740
v 0.117146 -0.053065 -0.380151
v 0.117263 -0.062115 -0.386582
v 0.178535 -0.032135 0.254525
v 0.178849 -0.049700 0.238423
v 0.178388 -0.078003 0.223060
v 0.148292 0.014436 -0.244820
v 0.136970 0.012267 -0.281719
v 0.119416 -0.003118 -0.327050
v 0.107333 -0.021849 -0.355139
v 0.134068 -0.107778 -0.410132
v 0.140090 -0.098622 -0.400577
v 0.142584 -0.071196 -0.382048
v 0.127807 0.012732 0.256123
v 0.127469 0.018768 0.241996
v 0.122287 0.039995 0.208664
v 0.105991 0.077698 -0.281037
v 0.116525 0.089285 -0.255734
v 0.131451 0.098485 -0.215275
v 0.179790 -0.035726 -0.213617
v 0.179309 -0.053193 -0.195294
v 0.177065 -0.080773 -0.175926
v 0.121430 -0.069619 -0.390330
v 0.128184 -0.074104 -0.390644
v 0.135773 -0.074735 -0.387632
v 0.063051 -0.067706 0.423782
v 0.074654 -0.048077 0.407843
v 0.083819 -0.029569 0.389347
v 0.091964 -0.015297 0.368573
v 0.109859 0.002856 0.322036
v 0.134991 0.118613 -0.148522
v 0.056764 0.061123 0.166256
v -0.063875 0.061319 0.166337
v -0.112480 0.064070 0.163631
v 0.178351 -0.021676 -0.261037
v 0.178716 -0.030217 -0.286128
v 0.178876 -0.053095 -0.314899
v 0.147208 -0.063942 -0.375164
v 0.148366 -0.054522 -0.368630
v 0.145302 -0.045527 -0.364216
v 0.026764 -0.093700 0.442504
v -0.026764 -0.093700 0.442504
v -0.049158 -0.082779 0.435340
v 0.108897 -0.005210 -0.342442
v 0.100544 0.035336 -0.320441
v 0.100839 -0.070399 -0.394739
v 0.092603 -0.068273 -0.395909
v 0.132530 -0.064488 0.414693
v 0.143501 -0.056901 0.409964
v 0.149548 -0.044509 0.404526
v 0.121331 0.127649 0.103597
v 0.146467 -0.071289 0.410444
v 0.160948 -0.081548 -0.369203
v -0.101226 -0.022597 0.403122
v -0.112927 -0.015393 0.400424
v -0.127339 -0.013955 0.398489
v -0.140525 -0.019580 0.398192
v -0.148652 -0.030835 0.400225
v -0.154522 -0.016852 0.369692
v -0.161230 -0.009960 0.338154
v -0.170402 -0.011629 0.306523
v -0.177169 -0.020249 0.275456
v -0.134709 0.104963 -0.194454
v -0.135915 0.095466 -0.207084
v -0.138925 0.080846 -0.215203
v -0.142915 0.062406 -0.216819
v -0.147278 0.041299 -0.210927
v -0.125875 0.010417 0.271961
v -0.117767 0.008303 0.315056
v -0.112471 0.003814 0.340398
v -0.105536 -0.007652 0.372610
v -0.158747 0.043032 -0.073818
v -0.149514 0.090538 -0.069937
v -0.139000 0.126961 -0.072925
v -0.174969 -0.090533 -0.349789
v -0.170277 -0.101460 -0.364786
v -0.160909 -0.107444 -0.383753
v -0.144069 -0.109406 -0.404643
v -0.138204 0.129640 -0.037121
v -0.149361 0.081358 -0.041817
v -0.156667 0.043290 -0.038621
v -0.176361 -0.122928 0.205697
v -0.164667 -0.115330 0.183286
v -0.144211 -0.110009 0.168194
v -0.132151 0.116692 0.093915
v -0.132639 0.124752 0.054777
v -0.168062 -0.125240 0.026588
v -0.170923 -0.124943 -0.152550
v -0.134300 0.103550 0.114214
v -0.137435 0.086251 0.126848
v -0.140967 0.067287 0.132548
v -0.143535 0.042782 0.133313
v -0.149090 0.039381 0.092427
v -0.139304 0.048032 0.147271
v -0.132989 0.054657 0.156159
v -0.123978 0.060653 0.161083
v -0.158474 -0.107940 -0.143634
v -0.157136 -0.106428 0.012518
v -0.121139 0.082281 0.149775
v -0.121737 0.104628 0.131714
v -0.116814 0.123171 0.118093
v -0.077887 -0.052448 0.410661
v -0.095650 -0.033968 0.407021
v -0.097844 -0.047068 0.411858
v -0.106757 -0.058171 0.415758
v -0.119365 -0.064762 0.416909
v -0.138390 -0.039927 -0.363356
v -0.151630 -0.025008 -0.332723
v -0.163048 -0.017114 -0.301113
v -0.173252 -0.016721 -0.268427
v -0.179015 -0.023955 -0.235873
v -0.142302 -0.053340 0.195378
v -0.137661 -0.016307 0.220835
v -0.131649 0.003883 0.245755
v -0.176733 -0.016632 0.300878
v -0.178912 -0.025667 0.336976
v -0.179621 -0.046458 0.368225
v -0.164835 -0.069128 -0.163438
v -0.165139 -0.029982 -0.184048
v -0.161563 -0.008791 -0.199456
v -0.155632 0.006907 -0.219699
v -0.129506 -0.039723 -0.366508
v -0.121582 -0.044743 -0.372740
v -0.117146 -0.053065 -0.380151
v -0.117263 -0.062115 -0.386582
v -0.178535 -0.032135 0.254525
v -0.178849 -0.049700 0.238423
v -0.178388 -0.078003 0.223060
v -0.148292 0.014436 -0.244820
v -0.136970 0.012267 -0.281719
v -0.119416 -0.003118 -0.327050
v -0.107333 -0.021849 -0.355139
v -0.134068 -0.107778 -0.410132
v -0.140090 -0.098622 -0.400577
v -0.142584 -0.071196 -0.382048
v -0.127807 0.012732 0.256123
v -0.127469 0.018768 0.241996
v -0.122287 0.039995 0.208664
v -0.105991 0.077698 -0.281037
v -0.116525 0.089285 -0.255734
v -0.131451 0.098485 -0.215275
v -0.179790 -0.035726 -0.213617
v -0.179309 -0.053193 -0.195294
v -0.177065 -0.080773 -0.175926
v -0.121430 -0.069619 -0.390330
v -0.128184 -0.074104 -0.390644
v -0.135773 -0.074735 -0.387632
v -0.063051 -0.067706 0.423782
v -0.074654 -0.048077 0.407843
v -0.083819 -0.029569 0.389347
v -0.091964 -0.015297 0.368573
v -0.109859 0.002856 0.322036
v -0.134991 0.118613 -0.148522
v -0.178351 -0.021676 -0.261037
v -0.178716 -0.030217 -0.286128
v -0.178876 -0.053095 -0.314899
v -0.147208 -0.063942 -0.375164
v -0.148366 -0.054522 -0.368630
v -0.145302 -0.045527 -0.364216
v -0.108897 -0.005210 -0.342442
v -0.100544 0.035336 -0.320441
v -0.100839 -0.070399 -0.394739
v -0.092603 -0.068273 -0.395909
v -0.132530 -0.064488 0.414693
v -0.143501 -0.056901 0.409964
v -0.149548 -0.044509 0.404526
v -0.121331 0.127649 0.103597
v -0.146467 -0.071289 0.410444
v -0.160948 -0.081548 -0.369203
l 1 2 3 4 5
l 6 7 8 9 10 11 12 13 14
l 15 16 17 18 19
l 5 20 21 22 23
l 24 25 26 27 28
l 29 30 31 32 1
l 33 34 35 36 37 38 39 40 41
l 42 43 44
l 41 45 46 15 47 48 33
l 42 28
l 49 50 51 52 53
l 54 55 56
l 57 58 59 60 19 61 62 63 64
l 65 66 67
l 68 69 54
l 70 71 72
l 65 73 74
l 68 75 76 77 78
l 79 80 81 82 83 84 85 86 87 88 89
l 78 90 56
l 91 54
l 78 92 93 94 95
l 96 97 67
l 67 78
l 95 98 99 100 101
l 1 102 103
l 91 104 105 106 70 107 108 109 110
l 111 112 113 114 115 101
l 1 116 117 118 119
l 56 42
l 120 121 122 123 124
l 53 125 126 127 128
l 67 129 130 131 29
l 37 132 133 134 70
l 23 135 136 137 79
l 96 138 139 140 141
l 120 142 143 144 145
l 23 146 147 148 65
l 141 149 150 151 152
l 53 153 154 155
l 29 156 157 158 95
l 41 159 160 161 24
l 124 162 163 164 74
l 145 165 166 167 155
l 103 168 169 170 171 172 29
l 24 173 44
l 95 174 175 176
l 124 177 178 179 49
l 57 152
l 155 180 181 182 120
l 44 91
l 103 183 6 184 185
l 152 186 187 41
l 145 188 189 57
l 119 190 191 192 5
l 28 141
l 74 96
l 101 193 68
l 119 194 79
l 49 195 155
l 196 197 198 199 200
l 200 201 202 203 204
l 205 206 207 208 209
l 210 211 212 213 196
l 214 215 216
l 214 209
l 217 218 219 220 128
l 221 222 223
l 224 225 226
l 227 228 221
l 224 229 230
l 227 231 232 233 234
l 234 235 223
l 110 221
l 234 236 237 238 176
l 239 240 226
l 226 234
l 176 241 242 243 111
l 196 244 185
l 196 245 246 247 248
l 223 214
l 249 250 251 252 253
l 226 254 255 256 210
l 204 257 258 259 89
l 239 260 261 262 263
l 249 264 265 266 267
l 204 268 269 270 224
l 263 271 272 273 274
l 128 275 276 277
l 210 278 279 280 176
l 33 281 282 283 205
l 253 284 285 286 230
l 267 287 288 289 277
l 185 290 291 292 293 294 210
l 205 295 216
l 253 296 297 298 217
l 64 274
l 277 299 300 301 249
l 216 110
l 274 302 303 33
l 267 304 305 64
l 248 306 307 308 200
l 209 263
l 230 239
l 111 309 227
l 248 310 89
l 217 311 277
