v 0.000000 -0.347541 -0.105407
v 0.000000 -0.356190 0.198787
v 0.229895 -0.354695 0.070909
v 0.238118 -0.328653 0.070641
v 0.240613 -0.277886 0.070142
v 0.236773 -0.148503 0.068926
v 0.236190 0.295338 0.065348
v 0.232373 0.350635 0.065035
v 0.222380 0.381228 0.064824
v 0.202062 0.399544 0.064652
v 0.166397 0.408595 0.064509
v 0.106372 0.411007 0.064382
v -0.166397 0.408595 0.064509
v -0.189111 0.404423 0.064587
v -0.206072 0.397243 0.064677
v -0.216861 0.388642 0.064761
v -0.226462 0.372931 0.064886
v -0.233080 0.346069 0.065063
v -0.236100 0.299960 0.065324
v -0.236773 -0.148503 0.068926
v -0.240638 -0.268639 0.070052
v -0.238118 -0.328653 0.070641
v -0.229895 -0.354695 0.070909
v 0.000000 0.272859 -0.122463
v -0.225768 0.276001 -0.101325
v -0.241875 0.276211 -0.063062
v -0.249159 0.276222 -0.022186
v -0.246302 0.276014 0.037757
v -0.241646 0.276023 0.055623
v -0.234477 0.276045 0.067348
v -0.222273 0.276013 0.073507
v -0.199292 0.275874 0.075018
v -0.117135 0.275219 0.062069
v -0.089465 0.275004 0.061837
v -0.067223 0.274791 0.067759
v -0.031758 0.274494 0.089330
v 0.000000 0.274467 0.094543
v 0.031758 0.274494 0.089330
v 0.067223 0.274791 0.067759
v 0.089465 0.275004 0.061837
v 0.117135 0.275219 0.062069
v 0.199292 0.275874 0.075018
v 0.222273 0.276013 0.073507
v 0.234477 0.276045 0.067348
v 0.241646 0.276023 0.055623
v 0.246302 0.276014 0.037757
v 0.249159 0.276222 -0.022186
v 0.241875 0.276211 -0.063062
v 0.225768 0.276001 -0.101325
v -0.212282 -0.359818 0.071032
v -0.175378 -0.361818 0.071252
v 0.000000 -0.352154 0.072142
v 0.161508 -0.361735 0.071331
v 0.207696 -0.360387 0.071061
v 0.014376 -0.146144 0.196239
v -0.046599 -0.146241 0.192825
v -0.095199 -0.146568 0.178053
v -0.122006 -0.146867 0.160105
v -0.144233 -0.147172 0.130524
v -0.164406 -0.147431 0.111498
v -0.184179 -0.147676 0.099521
v -0.222786 -0.148182 0.083899
v -0.233267 -0.148363 0.074980
v -0.238940 -0.148515 0.062401
v -0.242230 -0.148726 0.039510
v -0.240773 -0.148923 -0.025284
v -0.232398 -0.149054 -0.080173
v -0.224958 -0.149038 -0.102065
v -0.218957 -0.148926 -0.109016
v -0.197943 -0.148595 -0.118257
v -0.156609 -0.148009 -0.123037
v -0.101060 -0.147273 -0.121764
v 0.000000 -0.146182 -0.112816
v 0.142715 -0.147820 -0.123245
v 0.193425 -0.148528 -0.119257
v 0.211059 -0.148796 -0.113766
v 0.222201 -0.148984 -0.105782
v 0.233481 -0.149036 -0.075669
v 0.241079 -0.148941 -0.020662
v 0.241881 -0.148688 0.044130
v 0.238940 -0.148515 0.062401
v 0.233267 -0.148363 0.074980
v 0.222786 -0.148182 0.083899
v 0.184179 -0.147676 0.099521
v 0.164406 -0.147431 0.111498
v 0.144233 -0.147172 0.130524
v 0.122006 -0.146867 0.160105
v 0.103438 -0.146649 0.173820
v 0.064713 -0.146335 0.188954
v 0.236900 -0.353623 -0.020617
v 0.249475 0.215142 -0.016546
v 0.248652 0.298384 -0.015792
v 0.240313 0.353154 -0.015225
v 0.230000 0.378863 -0.014905
v 0.219761 0.394214 -0.014686
v 0.203089 0.410150 -0.014418
v 0.178697 0.423255 -0.014137
v 0.152115 0.431135 -0.013907
v 0.115564 0.436758 -0.013663
v 0.000000 0.440440 -0.013164
v -0.115564 0.436758 -0.013663
v -0.152115 0.431135 -0.013907
v -0.178697 0.423255 -0.014137
v -0.203089 0.410150 -0.014418
v -0.219761 0.394214 -0.014686
v -0.230000 0.378863 -0.014905
v -0.240313 0.353154 -0.015225
v -0.248652 0.298384 -0.015792
v -0.249475 0.215142 -0.016546
v -0.236900 -0.353623 -0.020617
v -0.219828 -0.352280 -0.103752
v -0.225218 -0.125685 -0.102166
v -0.226840 0.151857 -0.101551
v -0.225020 0.295239 -0.101285
v -0.217598 0.340810 -0.101190
v -0.199075 0.377776 -0.101113
v -0.182355 0.393647 -0.101079
v -0.162246 0.404992 -0.101052
v -0.135873 0.413552 -0.101031
v -0.103983 0.419088 -0.101013
v -0.002361 0.423360 -0.100978
v 0.103983 0.419088 -0.101013
v 0.157921 0.406629 -0.101048
v 0.174603 0.398697 -0.101068
v 0.192941 0.384701 -0.101099
v 0.206982 0.366388 -0.101137
v 0.217598 0.340810 -0.101190
v 0.225020 0.295239 -0.101285
v 0.226840 0.151857 -0.101551
v 0.225218 -0.125685 -0.102166
v 0.219828 -0.352280 -0.103752
v 0.234180 -0.353270 -0.045520
v 0.238347 -0.353994 0.009673
v 0.235572 -0.354481 0.051037
v 0.224408 -0.354808 0.081122
v 0.211297 -0.354981 0.094008
v 0.162107 -0.355422 0.128222
v 0.146226 -0.355570 0.144936
v 0.124927 -0.355793 0.175019
v 0.113514 -0.355869 0.182736
v 0.069079 -0.356055 0.194557
v 0.000000 -0.356190 0.198785
v -0.069079 -0.356055 0.194557
v -0.113514 -0.355869 0.182736
v -0.124927 -0.355793 0.175019
v -0.146226 -0.355570 0.144936
v -0.162107 -0.355422 0.128222
v -0.211297 -0.354981 0.094008
v -0.224408 -0.354808 0.081122
v -0.235572 -0.354481 0.051037
v -0.238347 -0.353994 0.009673
v -0.234180 -0.353270 -0.045520
v 0.208556 0.275760 -0.107685
v 0.162477 0.275091 -0.113725
v -0.162477 0.275091 -0.113725
v -0.208556 0.275760 -0.107685
v 0.000000 -0.349746 -0.021940
v 0.000000 -0.310079 0.201974
v 0.000000 -0.249982 0.201275
v 0.000000 -0.116019 0.195447
v 0.000000 -0.042560 0.187008
v 0.000000 0.029278 0.169549
v 0.000000 0.155130 0.123335
v 0.000000 0.208137 0.106989
v 0.000000 0.271699 0.094943
v 0.000000 0.354558 0.087379
v 0.000000 0.394196 0.075287
v 0.000000 0.409519 0.065000
v 0.000000 0.421417 0.050945
v 0.000000 0.431301 0.030096
v 0.000000 0.438354 0.003299
v 0.000000 0.439479 -0.051984
v 0.000000 0.434197 -0.079185
v 0.000000 0.427035 -0.096180
v 0.000000 0.409670 -0.111049
v 0.000000 0.379004 -0.120950
v 0.000000 0.337564 -0.124241
v 0.000000 -0.347551 -0.105394
l 1 2
l 3 4 5 6 7 8 9 10 11 12 13 14 15 16 17 18 19 20 21 22 23
l 24 1
l 25 26 27 28 29 30 31 32 33 34 35 36 37 38 39 40 41 42 43 44 45 46 47 48 49
l 23 50 51 52 53 54 3
l 55 56 57 58 59 60 61 62 63 64 65 66 67 68 69 70 71 72 73 74 75 76 77 78 79 80 81 82 83 84 85 86 87 88 89 55
l 90 91 92 93 94 95 96 97 98 99 100 101 102 103 104 105 106 107 108 109 110
l 111 112 113 114 115 116 117 118 119 120 121 122 123 124 125 126 127 128 129 130 131
l 131 132 133 134 135 136 137 138 139 140 141 142 143 144 145 146 147 148 149 150 151 152 111
l 49 153 154 24 155 156 25
l 110 157 90
l 2 158 159 160 161 162 163 164 165 166 167 168 169 170 171 172 173 174 175 176 177 24
l 131 178 111
