v 0.125705 -0.103205 0.535138
v 0.127008 -0.044338 0.439172
v 0.129164 -0.002454 0.361686
v 0.131031 0.030822 0.285462
v 0.131739 0.049242 0.224595
v 0.131620 0.055277 0.190877
v 0.127935 0.062251 0.098216
v 0.119166 0.074394 0.021422
v 0.109998 0.088508 -0.019191
v 0.085876 0.127677 -0.088448
v 0.079153 0.136033 -0.120869
v 0.070076 0.136958 -0.213341
v 0.058833 0.123478 -0.359147
v 0.048432 -0.016722 -0.102184
v 0.048383 -0.017941 -0.141541
v 0.048363 -0.014415 -0.180837
v 0.048345 -0.006451 -0.209322
v 0.048332 0.002120 -0.227068
v 0.048315 0.017071 -0.246607
v 0.048303 0.036436 -0.261777
v 0.048304 0.058925 -0.271790
v 0.048391 0.092531 -0.279618
v 0.131367 0.056840 0.174006
v 0.151044 0.006212 0.171251
v 0.159700 -0.027310 0.169560
v 0.162643 -0.056840 0.168164
v 0.159833 -0.091326 0.166655
v -0.131367 0.056840 0.174006
v -0.114388 0.066367 0.174768
v -0.081437 0.075775 0.175556
v 0.000000 0.085345 0.176412
v 0.081437 0.075775 0.175556
v 0.114388 0.066367 0.174768
v 0.154013 -0.042128 0.142409
v 0.141348 -0.028483 -0.141938
v 0.140538 -0.025688 -0.166318
v 0.137471 -0.018067 -0.194572
v 0.130413 -0.002291 -0.224158
v 0.118365 0.023291 -0.251298
v 0.084930 0.091474 -0.296438
v 0.061651 0.127115 -0.320906
v 0.001266 0.133503 -0.028054
v 0.035392 0.129741 -0.028236
v 0.063592 0.121298 -0.028663
v 0.089754 0.107849 -0.029322
v 0.108440 0.092040 -0.030053
v 0.112162 0.083079 -0.030435
v 0.123195 -0.019368 -0.034411
v 0.000000 0.115566 -0.376123
v 0.000000 0.023301 -0.363347
v 0.000000 -0.042875 -0.345411
v 0.000000 -0.069420 -0.332816
v 0.000000 -0.085263 -0.321305
v 0.000000 -0.097427 -0.306036
v 0.000000 -0.102201 -0.292181
v 0.000000 -0.106504 -0.243394
v 0.000000 -0.110908 0.085122
v 0.000000 -0.109388 0.364635
v 0.000000 -0.103122 0.536140
v 0.000000 0.133540 -0.028054
v 0.000000 0.134694 -0.145926
v 0.147859 -0.079457 -0.145713
v 0.077026 -0.099681 -0.146301
v 0.000000 -0.107488 -0.146491
v -0.077026 -0.099681 -0.146301
v -0.147859 -0.079457 -0.145713
v 0.072251 0.137845 -0.187584
v 0.088478 0.117168 -0.174058
v 0.087724 0.100881 -0.163581
v 0.072764 0.090127 -0.157324
v 0.048518 0.085369 -0.155537
v 0.048628 0.080333 -0.087770
v 0.048383 -0.017943 -0.142325
v 0.112670 -0.020320 -0.142492
v 0.141040 -0.028231 -0.143071
v 0.147573 -0.035494 -0.143573
v 0.150156 -0.044975 -0.144132
v 0.143098 -0.102215 0.500403
v 0.155926 -0.100061 0.428262
v 0.161174 -0.096712 0.320808
v 0.159795 -0.091229 0.164312
v 0.146188 -0.078421 -0.172811
v 0.133372 -0.076114 -0.234978
v 0.111171 -0.074331 -0.283815
v 0.082219 0.079640 -0.060978
v 0.112603 0.078818 -0.030615
v 0.144281 -0.026147 0.143151
v 0.139898 -0.022068 0.036193
v 0.133075 -0.020602 -0.002142
v 0.123075 -0.019357 -0.034700
v 0.107699 -0.018195 -0.065063
v 0.092242 -0.017473 -0.083806
v 0.072130 -0.016940 -0.097310
v 0.048418 0.093227 -0.280630
v 0.048418 0.092368 -0.236039
v 0.119730 -0.036889 -0.290612
v 0.122183 0.000883 -0.299889
v 0.117562 0.032964 -0.310460
v 0.103816 0.066299 -0.325125
v 0.056665 0.124017 -0.360309
v 0.025056 0.118524 -0.371840
v 0.001277 0.115615 -0.376058
v 0.000000 -0.071111 0.498941
v 0.000000 -0.029707 0.432115
v 0.000000 0.012493 0.348805
v 0.000000 0.050456 0.263469
v 0.000000 0.088664 0.167570
v 0.000000 0.112291 0.097738
v 0.000000 0.125495 0.040271
v 0.046675 -0.094618 -0.291674
v 0.000000 -0.101212 -0.296463
v -0.046675 -0.094618 -0.291674
v -0.111171 -0.074331 -0.283815
v -0.072251 0.137845 -0.187584
v -0.037232 0.132291 -0.203894
v 0.000000 0.130010 -0.210509
v 0.037232 0.132291 -0.203894
v 0.077402 -0.105689 0.165724
v 0.000000 -0.110654 0.165346
v -0.077402 -0.105689 0.165724
v -0.159833 -0.091326 0.166655
v -0.125705 -0.103205 0.535138
v 0.073240 0.092371 -0.283790
v 0.084927 0.089438 -0.292529
v 0.090014 0.086863 -0.306344
v 0.089583 0.086635 -0.336529
v 0.151114 -0.032830 0.142824
v 0.156173 -0.051621 0.142018
v 0.158330 -0.090343 0.140691
v -0.127008 -0.044338 0.439172
v -0.129164 -0.002454 0.361686
v -0.131031 0.030822 0.285462
v -0.131739 0.049242 0.224595
v -0.131620 0.055277 0.190877
v -0.127935 0.062251 0.098216
v -0.119166 0.074394 0.021422
v -0.109998 0.088508 -0.019191
v -0.085876 0.127677 -0.088448
v -0.079153 0.136033 -0.120869
v -0.070076 0.136958 -0.213341
v -0.058833 0.123478 -0.359147
v -0.048432 -0.016722 -0.102184
v -0.048383 -0.017941 -0.141541
v -0.048363 -0.014415 -0.180837
v -0.048345 -0.006451 -0.209322
v -0.048332 0.002120 -0.227068
v -0.048315 0.017071 -0.246607
v -0.048303 0.036436 -0.261777
v -0.048304 0.058925 -0.271790
v -0.048391 0.092531 -0.279618
v -0.151044 0.006212 0.171251
v -0.159700 -0.027310 0.169560
v -0.162643 -0.056840 0.168164
v -0.154013 -0.042128 0.142409
v -0.141348 -0.028483 -0.141938
v -0.140538 -0.025688 -0.166318
v -0.137471 -0.018067 -0.194572
v -0.130413 -0.002291 -0.224158
v -0.118365 0.023291 -0.251298
v -0.084930 0.091474 -0.296438
v -0.061651 0.127115 -0.320906
v -0.001266 0.133503 -0.028054
v -0.035392 0.129741 -0.028236
v -0.063592 0.121298 -0.028663
v -0.089754 0.107849 -0.029322
v -0.108440 0.092040 -0.030053
v -0.112162 0.083079 -0.030435
v -0.123195 -0.019368 -0.034411
v -0.088478 0.117168 -0.174058
v -0.087724 0.100881 -0.163581
v -0.072764 0.090127 -0.157324
v -0.048518 0.085369 -0.155537
v -0.048628 0.080333 -0.087770
v -0.048383 -0.017943 -0.142325
v -0.112670 -0.020320 -0.142492
v -0.141040 -0.028231 -0.143071
v -0.147573 -0.035494 -0.143573
v -0.150156 -0.044975 -0.144132
v -0.143098 -0.102215 0.500403
v -0.155926 -0.100061 0.428262
v -0.161174 -0.096712 0.320808
v -0.159795 -0.091229 0.164312
v -0.146188 -0.078421 -0.172811
v -0.133372 -0.076114 -0.234978
v -0.082219 0.079640 -0.060978
v -0.112603 0.078818 -0.030615
v -0.144281 -0.026147 0.143151
v -0.139898 -0.022068 0.036193
v -0.133075 -0.020602 -0.002142
v -0.123075 -0.019357 -0.034700
v -0.107699 -0.018195 -0.065063
v -0.092242 -0.017473 -0.083806
v -0.072130 -0.016940 -0.097310
v -0.048418 0.093227 -0.280630
v -0.048418 0.092368 -0.236039
v -0.119730 -0.036889 -0.290612
v -0.122183 0.000883 -0.299889
v -0.117562 0.032964 -0.310460
v -0.103816 0.066299 -0.325125
v -0.056665 0.124017 -0.360309
v -0.025056 0.118524 -0.371840
v -0.001277 0.115615 -0.376058
v -0.073240 0.092371 -0.283790
v -0.084927 0.089438 -0.292529
v -0.090014 0.086863 -0.306344
v -0.089583 0.086635 -0.336529
v -0.151114 -0.032830 0.142824
v -0.156173 -0.051621 0.142018
v -0.158330 -0.090343 0.140691
l 1 2 3 4 5 6 7 8 9 10 11 12 13
l 14 15 16 17 18 19 20 21 22
l 23 24 25 26 27
l 28 29 30 31 32 33 23
l 34 35 36 37 38 39 40 41
l 42 43 44 45 46 47 48
l 49 50 51 52 53 54 55 56 57 58 59
l 60 61 49
l 62 63 64 65 66
l 67 68 69 70 71
l 72 14
l 73 74 75 76 77 62
l 1 78 79 80 81 82 83 84
l 72 85 86
l 87 88 89 90 91 92 93 14
l 94 95 72
l 84 96 97 98 99 100 101 102
l 59 103 104 105 106 107 108 109 60
l 84 110 111 112 113
l 114 115 116 117 67
l 27 118 119 120 121
l 122 1
l 94 123 124 125 126
l 87 127 128 129
l 22 94
l 122 130 131 132 133 134 135 136 137 138 139 140 141
l 142 143 144 145 146 147 148 149 150
l 28 151 152 153 121
l 154 155 156 157 158 159 160 161
l 162 163 164 165 166 167 168
l 114 169 170 171 172
l 173 142
l 174 175 176 177 178 66
l 122 179 180 181 182 183 184 113
l 173 185 186
l 187 188 189 190 191 192 193 142
l 194 195 173
l 113 196 197 198 199 200 201 202
l 194 203 204 205 206
l 187 207 208 209
l 150 194
