v -0.244467 -0.233286 -0.227901
v -0.238828 -0.269647 -0.227901
v -0.223422 -0.293335 -0.227901
v -0.198704 -0.307127 -0.227901
v -0.166329 -0.311424 -0.227901
v -0.244467 -0.233286 0.227901
v 0.000000 0.432342 0.227901
v 0.000000 0.432342 -0.227901
v 0.166329 -0.311424 -0.227901
v -0.244467 0.273710 0.227901
v -0.244467 -0.017679 0.227901
v 0.166355 0.060459 0.227901
v 0.202702 0.066111 0.227901
v 0.226391 0.081504 0.227901
v 0.240169 0.106235 0.227901
v 0.244467 0.138597 0.227901
v -0.244467 0.138597 0.227901
v -0.238828 0.102237 0.227901
v -0.223435 0.078548 0.227901
v -0.198717 0.064770 0.227901
v -0.166355 0.060459 0.227901
v 0.244467 -0.017679 0.227901
v 0.244467 -0.017679 -0.227901
v 0.244467 0.138597 -0.227901
v -0.244467 -0.017679 -0.227901
v -0.166355 0.060459 -0.227901
v 0.244467 -0.233286 0.227901
v 0.244467 -0.233286 -0.227901
v 0.238828 -0.269647 -0.227901
v 0.223422 -0.293335 -0.227901
v 0.198704 -0.307127 -0.227901
v -0.166329 -0.311424 0.227901
v 0.238828 0.018681 0.227901
v 0.223435 0.042370 0.227901
v 0.198717 0.056148 0.227901
v -0.244467 0.273710 -0.227901
v 0.238828 -0.269647 0.227901
v 0.223422 -0.293335 0.227901
v 0.198704 -0.307127 0.227901
v 0.166329 -0.311424 0.227901
v 0.244467 0.273710 0.227901
v 0.244467 0.273710 -0.227901
v -0.244467 0.138597 -0.227901
v -0.238828 0.018681 -0.227901
v -0.223435 0.042370 -0.227901
v -0.198717 0.056148 -0.227901
v -0.238828 -0.269647 0.227901
v -0.223422 -0.293335 0.227901
v -0.198704 -0.307127 0.227901
v 0.166355 0.060459 -0.227901
v 0.238828 0.018681 -0.227901
v 0.223435 0.042370 -0.227901
v 0.198717 0.056148 -0.227901
v 0.202702 0.066111 -0.227901
v 0.226391 0.081504 -0.227901
v 0.240169 0.106235 -0.227901
v -0.238828 0.102237 -0.227901
v -0.223435 0.078548 -0.227901
v -0.198717 0.064770 -0.227901
v -0.238828 0.018681 0.227901
v -0.223435 0.042370 0.227901
v -0.198717 0.056148 0.227901
l 1 2 3 4 5
l 6 1
l 7 8
l 9 5
l 10 7
l 11 6
l 12 13 14 15 16
l 17 18 19 20 21
l 22 23
l 16 24
l 11 25
l 21 26
l 27 28
l 28 29 30 31 9
l 32 5
l 22 33 34 35 12
l 10 36
l 25 1
l 23 28
l 27 37 38 39 40
l 41 42
l 40 32
l 17 43
l 25 44 45 46 26
l 40 9
l 36 8
l 36 43
l 7 41
l 6 47 48 49 32
l 12 50
l 23 51 52 53 50
l 22 27
l 50 54 55 56 24
l 43 57 58 59 26
l 10 17
l 11 60 61 62 21
l 8 42
l 42 24
l 41 16
