v 0.052196 0.000119 -0.016792
v 0.000000 0.000119 -0.016792
v 0.052196 0.000119 -0.013144
v 0.000000 0.000119 -0.013144
v 0.000000 0.003601 -0.016792
v 0.000000 0.003601 -0.013144
v 0.052196 0.003601 -0.016792
v 0.052196 0.003601 -0.013144
v 0.051909 0.000119 -0.002161
v 0.000000 0.000119 -0.002161
v 0.051909 0.000119 0.002413
v 0.000000 0.000119 0.002413
v 0.000000 0.003601 -0.002161
v 0.000000 0.003601 0.002413
v 0.051909 0.003601 -0.002161
v 0.051909 0.003601 0.002413
v 0.051639 0.000119 0.011556
v 0.000000 0.000119 0.011556
v 0.051639 0.000119 0.017056
v 0.046352 0.000119 0.295954
v 0.000000 0.000119 0.295954
v 0.000000 0.003601 0.126778
v 0.000000 0.003601 0.132239
v 0.046352 0.000119 0.304184
v 0.000000 0.000119 0.304184
v 0.046032 0.000119 0.313328
v 0.000000 0.000119 0.313328
v 0.046032 0.000119 0.321553
v 0.049518 0.003601 0.132239
v 0.049518 0.003601 0.126778
v 0.000000 0.000119 0.321553
v 0.045678 0.000119 0.330703
v 0.000000 0.000119 0.330703
v 0.045678 0.000119 0.340767
v 0.000000 0.000119 0.340767
v 0.045324 0.000119 0.349907
v 0.000000 0.000119 0.349907
v 0.045324 0.000119 0.359964
v 0.000000 0.003601 0.143238
v 0.000000 0.003601 0.148711
v 0.000000 0.000119 0.359964
v 0.049215 0.003601 0.148711
v 0.049215 0.003601 0.143238
v 0.044987 0.000119 0.370025
v 0.000000 0.000119 0.370025
v 0.044987 0.000119 0.378281
v 0.000000 0.000119 0.378281
v 0.000000 0.003601 0.370025
v 0.000000 0.003601 0.378281
v 0.044987 0.003601 0.370025
v 0.044987 0.003601 0.378281
v 0.044668 0.000119 0.395633
v 0.000000 0.000119 0.395633
v 0.000000 0.003601 0.159699
v 0.000000 0.003601 0.166097
v 0.044668 0.000119 0.387400
v 0.000000 0.000119 0.387400
v 0.044668 0.003601 0.395633
v 0.000000 0.003601 0.395633
v 0.044668 0.003601 0.387400
v 0.000000 0.003601 0.387400
v 0.044352 0.000119 0.404775
v 0.000000 0.000119 0.404775
v 0.048895 0.003601 0.166097
v 0.048895 0.003601 0.159699
v 0.044352 0.000119 0.412770
v 0.000000 0.000119 0.412770
v 0.000000 0.003601 0.404775
v 0.000000 0.003601 0.412770
v 0.044352 0.003601 0.404775
v 0.044352 0.003601 0.412770
v 0.051173 -0.013836 0.487627
v 0.049564 -0.008057 0.493178
v 0.047954 -0.013836 0.498728
v 0.049564 -0.019615 0.493178
v 0.000000 0.000119 0.166097
v 0.057212 -0.014240 0.466801
v 0.055746 -0.008977 0.471856
v 0.054281 -0.014240 0.476911
v 0.055746 -0.019503 0.471856
v 0.000000 0.003601 0.276750
v 0.000000 0.000119 0.276750
v 0.047429 0.000119 0.245662
v 0.047817 0.000119 0.224619
v 0.046032 0.003601 0.313328
v 0.046705 0.003601 0.276750
v 0.046705 0.000119 0.276750
v 0.047042 0.000119 0.266704
v 0.045678 0.003601 0.340767
v 0.000000 0.000119 0.048121
v 0.000000 0.000119 0.060937
v 0.000000 0.003601 0.330703
v 0.000000 0.003601 0.340767
v 0.065016 -0.014240 0.469064
v 0.063551 -0.008977 0.474119
v 0.062085 -0.014240 0.479174
v 0.063551 -0.019503 0.474119
v 0.000000 0.000119 0.176159
v 0.046352 0.003601 0.304184
v 0.000000 0.000119 0.148711
v 0.000000 0.000119 0.159699
v 0.046032 0.003601 0.321553
v 0.000000 0.003601 0.321553
v 0.061937 -0.013836 0.479682
v 0.060515 -0.008731 0.484586
v 0.059094 -0.013836 0.489490
v 0.060516 -0.018942 0.484586
v 0.000000 0.000119 0.132239
v 0.000000 0.000119 0.143238
v 0.046352 0.003601 0.295954
v 0.000000 0.003601 0.313328
v 0.045324 0.003601 0.349907
v 0.000000 0.003601 0.349907
v 0.063278 -0.014644 0.445882
v 0.061817 -0.009396 0.450922
v 0.060355 -0.014644 0.455962
v 0.061817 -0.019891 0.450922
v 0.044653 -0.026580 0.510112
v 0.063467 -0.026580 0.445230
v 0.048608 0.003601 0.176159
v 0.048608 0.000119 0.176159
v 0.000000 0.003601 0.295954
v 0.058977 -0.013836 0.489890
v 0.057368 -0.008057 0.495441
v 0.055758 -0.013836 0.500991
v 0.057368 -0.019615 0.495441
v 0.000000 0.003601 0.359964
v 0.000000 0.000119 0.103918
v 0.000000 0.000119 0.112147
v 0.000000 0.003601 0.304184
v 0.045324 0.003601 0.359964
v 0.000000 0.000119 0.117630
v 0.000000 0.000119 0.126778
v 0.000000 0.003601 0.284987
v 0.000000 0.000119 0.284987
v 0.046705 0.000119 0.284987
v 0.055642 -0.013836 0.501392
v 0.054220 -0.008731 0.506295
v 0.052799 -0.013836 0.511199
v 0.054220 -0.018942 0.506295
v 0.000000 0.000119 0.066421
v 0.000000 0.000119 0.080141
v 0.046705 0.003601 0.284987
v 0.000000 0.000119 0.086549
v 0.000000 0.000119 0.098430
v 0.045678 0.003601 0.330703
v 0.000000 0.000119 0.017056
v 0.000000 0.000119 0.028931
v 0.000000 0.003601 0.176159
v 0.063467 0.000119 0.445230
v 0.048895 0.000119 0.166097
v 0.044352 -0.026580 0.412770
v 0.048895 0.000119 0.159699
v 0.052529 -0.026580 -0.031233
v 0.052529 0.000119 -0.031233
v 0.000000 0.000119 -0.024994
v 0.000000 0.003601 0.011556
v 0.000000 0.003601 0.017056
v 0.000000 0.000119 0.032563
v 0.000000 0.000119 0.043562
v 0.000000 0.000119 0.181654
v 0.000000 0.000119 0.194000
v 0.068051 -0.014644 0.458597
v 0.066586 -0.009381 0.463652
v 0.065120 -0.014644 0.468706
v 0.066586 -0.019906 0.463652
v 0.000000 0.000119 0.202713
v 0.000000 0.000119 0.214567
v 0.000000 0.000119 0.224619
v 0.000000 0.000119 0.234685
v 0.071082 -0.014644 0.448145
v 0.069621 -0.009396 0.453185
v 0.068160 -0.014644 0.458224
v 0.069621 -0.019891 0.453185
v 0.000000 0.000119 0.245662
v 0.000000 0.000119 0.256632
v 0.000000 0.000119 0.266704
v 0.000000 0.000119 0.412995
v 0.049787 0.003601 0.117630
v 0.000000 0.003601 0.117630
v 0.049787 0.003601 0.112147
v 0.000000 0.003601 0.112147
v 0.048220 0.000119 0.202713
v 0.047042 0.003601 0.266704
v 0.000000 -0.026580 0.412995
v 0.048608 0.000119 0.181654
v 0.047042 0.003601 0.256632
v 0.047042 0.000119 0.256632
v -0.034440 -0.026580 0.438921
v -0.034440 0.000119 0.438921
v 0.049215 0.000119 0.148711
v 0.000000 0.003601 0.256632
v 0.000000 -0.026580 -0.024994
v 0.000000 0.003601 0.266704
v 0.049518 0.000119 0.132239
v 0.000000 -0.026580 0.526765
v 0.000000 0.000119 0.526765
v 0.047429 0.003601 0.245662
v 0.049787 0.000119 0.117630
v 0.050040 0.000119 0.103918
v 0.047429 0.003601 0.234685
v 0.047429 0.000119 0.234685
v 0.050360 0.000119 0.086549
v 0.000000 0.003601 0.234685
v 0.044653 0.000119 0.510112
v 0.000000 0.003601 0.245662
v 0.050040 0.003601 0.103918
v 0.000000 0.003601 0.103918
v 0.050730 0.000119 0.066421
v 0.047817 0.003601 0.224619
v 0.051067 0.000119 0.048121
v 0.051354 0.000119 0.032563
v 0.047817 0.003601 0.214567
v 0.047817 0.000119 0.214567
v -0.029213 0.000119 0.425439
v -0.034001 0.000119 0.430970
v 0.000000 0.003601 0.214567
v 0.000000 0.003601 0.224619
v 0.050040 0.003601 0.098430
v 0.000000 0.003601 0.098430
v -0.029213 -0.026580 0.425439
v -0.034001 -0.026580 0.430970
v 0.048220 0.003601 0.202713
v 0.048220 0.003601 0.194000
v 0.048220 0.000119 0.194000
v -0.001755 0.000119 0.538100
v 0.005298 0.000119 0.545703
v 0.022911 0.000119 0.550950
v 0.039382 0.000119 0.549260
v 0.047710 0.000119 0.542835
v 0.051463 0.000119 0.533857
v 0.050874 0.000119 0.523367
v 0.000000 0.003601 0.194000
v 0.000000 0.003601 0.202713
v 0.060247 -0.014644 0.456334
v 0.058781 -0.009381 0.461389
v 0.057316 -0.014644 0.466443
v 0.058782 -0.019906 0.461389
v 0.054133 -0.013836 0.477419
v 0.052711 -0.008731 0.482323
v 0.051289 -0.013836 0.487227
v 0.052711 -0.018942 0.482323
v -0.001755 -0.026580 0.538100
v 0.005298 -0.026580 0.545703
v 0.022911 -0.026580 0.550950
v 0.039382 -0.026580 0.549260
v 0.047710 -0.026580 0.542835
v 0.051463 -0.026580 0.533857
v 0.050874 -0.026580 0.523367
v 0.048608 0.003601 0.181654
v 0.000000 0.003601 0.181654
v 0.047838 -0.013836 0.499129
v 0.046416 -0.008731 0.504032
v 0.044994 -0.013836 0.508936
v 0.046416 -0.018942 0.504032
v 0.050360 0.003601 0.086549
v 0.000000 0.003601 0.086549
v 0.050360 0.003601 0.080141
v 0.000000 0.003601 0.080141
v 0.049215 0.000119 0.143238
v 0.049518 0.000119 0.126778
v 0.050730 0.003601 0.066421
v 0.000000 0.003601 0.066421
v 0.050730 0.003601 0.060937
v 0.000000 0.003601 0.060937
v 0.049787 0.000119 0.112147
v 0.050040 0.000119 0.098430
v 0.051067 0.003601 0.048121
v 0.000000 0.003601 0.048121
v 0.050360 0.000119 0.080141
v 0.051067 0.003601 0.043562
v 0.000000 0.003601 0.043562
v 0.050730 0.000119 0.060937
v 0.051067 0.000119 0.043562
v 0.051354 0.003601 0.032563
v 0.000000 0.003601 0.032563
v 0.051354 0.003601 0.028931
v 0.051354 0.000119 0.028931
v 0.000000 0.003601 0.028931
v 0.051639 0.003601 0.017056
v 0.051639 0.003601 0.011556
v -0.005206 0.013816 -0.260301
v -0.005206 0.013816 -0.263415
v 0.008995 0.013816 -0.260369
v 0.008995 0.013816 -0.263347
v 0.023857 0.013816 -0.260417
v 0.023857 0.013816 -0.263299
v 0.037067 0.013816 -0.260364
v 0.037067 0.013816 -0.263351
v 0.052259 0.013816 -0.259992
v 0.052259 0.013816 -0.263723
v 0.008995 0.011495 -0.255505
v 0.015348 0.011495 -0.261858
v 0.008995 0.011495 -0.268210
v 0.002643 0.011495 -0.261858
v -0.019407 0.011495 -0.255831
v -0.013380 0.011495 -0.261858
v -0.019407 0.011495 -0.267884
v -0.025434 0.011495 -0.261858
v -0.005206 0.011495 -0.255876
v 0.000775 0.011495 -0.261858
v -0.005206 0.011495 -0.267839
v -0.011187 0.011495 -0.261858
v 0.037067 0.011495 -0.255786
v 0.043139 0.011495 -0.261858
v 0.037067 0.011495 -0.267929
v 0.030995 0.011495 -0.261858
v 0.023857 0.011495 -0.255768
v 0.029947 0.011495 -0.261858
v 0.023857 0.011495 -0.267947
v 0.017767 0.011495 -0.261858
v 0.071501 0.000119 -0.242984
v 0.071501 0.000119 -0.278280
v -0.019407 0.013816 -0.260486
v -0.019407 0.013816 -0.263229
v -0.033752 0.000119 -0.242984
v -0.055650 0.016370 -0.201306
v -0.045452 0.016370 -0.205530
v -0.041228 0.016370 -0.215728
v -0.045452 0.016370 -0.225927
v -0.055650 0.016370 -0.230151
v -0.065849 0.016370 -0.225926
v -0.070073 0.016370 -0.215728
v -0.065848 0.016370 -0.205530
v 0.071501 0.009405 -0.242984
v -0.033752 0.000119 -0.278280
v -0.087497 0.009405 -0.251629
v -0.076904 0.009405 -0.247241
v -0.072516 0.009405 -0.236648
v -0.076903 0.009405 -0.226054
v -0.087497 0.009405 -0.221666
v -0.098090 0.009405 -0.226054
v -0.102478 0.009405 -0.236647
v -0.098090 0.009405 -0.247241
v -0.019407 0.009405 -0.267884
v -0.013380 0.009405 -0.261858
v -0.019407 0.009405 -0.255831
v -0.025434 0.009405 -0.261858
v 0.052259 0.009405 -0.267920
v 0.058322 0.009405 -0.261858
v 0.052259 0.009405 -0.255795
v 0.046196 0.009405 -0.261858
v -0.005206 0.009405 -0.267839
v 0.000775 0.009405 -0.261858
v -0.005206 0.009405 -0.255876
v -0.011187 0.009405 -0.261858
v -0.033752 0.009405 -0.278280
v -0.005206 0.011495 -0.260301
v -0.005206 0.011495 -0.263415
v -0.087497 0.016370 -0.221666
v -0.076903 0.016370 -0.226054
v -0.072516 0.016370 -0.236647
v -0.076904 0.016370 -0.247241
v -0.087497 0.016370 -0.251629
v -0.098091 0.016370 -0.247240
v -0.102478 0.016370 -0.236647
v -0.098090 0.016370 -0.226053
v 0.071501 0.009405 -0.278280
v -0.019407 0.011495 -0.260486
v -0.019407 0.011495 -0.263229
v 0.046654 0.009405 -0.133549
v 0.006344 0.009405 -0.136127
v -0.003062 0.009405 -0.133615
v -0.006440 0.009405 -0.128519
v -0.002981 0.009405 -0.124443
v 0.006317 0.009405 -0.121888
v 0.061472 0.009405 -0.118840
v 0.073957 0.009405 -0.121915
v 0.073859 0.009405 -0.127229
v 0.063875 0.009405 -0.132048
v -0.033752 0.009405 -0.242984
v 0.023857 0.009405 -0.255768
v 0.029947 0.009405 -0.261858
v 0.023857 0.009405 -0.267947
v 0.017767 0.009405 -0.261858
v 0.008995 0.011495 -0.260369
v 0.008995 0.011495 -0.263347
v 0.023857 0.011495 -0.260417
v 0.023857 0.011495 -0.263299
v 0.037067 0.011495 -0.260364
v 0.037067 0.011495 -0.263351
v 0.061727 0.009405 -0.109238
v 0.005794 0.009405 -0.111114
v -0.004520 0.009405 -0.108782
v -0.008048 0.009405 -0.104366
v 0.002948 0.009405 -0.096717
v 0.066275 0.009405 -0.093659
v 0.074417 0.009405 -0.096926
v 0.077579 0.009405 -0.102941
v 0.071707 0.009405 -0.108094
v 0.037067 0.009405 -0.267929
v 0.043139 0.009405 -0.261858
v 0.037067 0.009405 -0.255786
v 0.030995 0.009405 -0.261858
v 0.052259 0.011495 -0.259992
v 0.052259 0.011495 -0.263723
v -0.055650 0.009405 -0.201306
v -0.045452 0.009405 -0.205530
v -0.041228 0.009405 -0.215728
v -0.045452 0.009405 -0.225927
v -0.055650 0.009405 -0.230151
v -0.065849 0.009405 -0.225926
v -0.070073 0.009405 -0.215728
v -0.065848 0.009405 -0.205530
v 0.000000 -0.046314 -0.024994
v 0.052259 -0.046314 -0.031213
v 0.081360 -0.046314 -0.030998
v 0.104417 -0.046314 -0.024458
v 0.123385 -0.046314 -0.009511
v 0.132523 -0.046314 0.008663
v 0.133686 -0.046314 0.026904
v 0.125434 -0.046314 0.055321
v 0.105065 -0.046314 0.100568
v 0.104039 -0.046314 0.107514
v 0.106509 -0.046314 0.110380
v 0.125098 -0.046314 0.104967
v 0.159071 -0.046314 0.082596
v 0.186419 -0.046314 0.056914
v 0.200971 -0.046314 0.034614
v 0.207803 -0.046314 0.009143
v 0.204718 -0.046314 -0.024804
v 0.195018 -0.046314 -0.050610
v 0.156312 -0.046314 -0.119548
v 0.150401 -0.046314 -0.138126
v 0.148546 -0.046314 -0.157804
v 0.150827 -0.046314 -0.176839
v 0.158216 -0.046314 -0.197415
v 0.195530 -0.046314 -0.252861
v 0.200757 -0.046314 -0.273045
v 0.201129 -0.046314 -0.291802
v 0.197227 -0.046314 -0.309371
v 0.187221 -0.046314 -0.327311
v 0.171129 -0.046314 -0.342332
v 0.147833 -0.046314 -0.355786
v 0.115910 -0.046314 -0.367654
v 0.070496 -0.046314 -0.377181
v 0.046922 -0.046314 -0.378811
v -0.001899 -0.046314 -0.375501
v -0.061850 -0.046314 -0.367076
v -0.103300 -0.046314 -0.356469
v -0.131879 -0.046314 -0.341861
v -0.147191 -0.046314 -0.323341
v -0.153561 -0.046314 -0.291267
v -0.146759 -0.046314 -0.252734
v -0.136958 -0.046314 -0.230193
v -0.103724 -0.046314 -0.181928
v -0.095921 -0.046314 -0.157895
v -0.099860 -0.046314 -0.142023
v -0.134584 -0.046314 -0.071128
v -0.148428 -0.046314 -0.033262
v -0.150814 -0.046314 -0.012055
v -0.144264 -0.046314 0.011166
v -0.128650 -0.046314 0.036812
v -0.103639 -0.046314 0.068825
v -0.090506 -0.046314 0.081413
v -0.082316 -0.046314 0.084705
v -0.079054 -0.046314 0.075384
v -0.080492 -0.046314 0.025616
v -0.071809 -0.046314 0.000267
v -0.060174 -0.046314 -0.009914
v -0.046444 -0.046314 -0.016278
v 0.052259 0.000119 -0.031213
v 0.081360 0.000119 -0.030998
v 0.104417 0.000119 -0.024458
v 0.123385 0.000119 -0.009511
v 0.132523 0.000119 0.008663
v 0.133686 0.000119 0.026904
v 0.125434 0.000119 0.055321
v 0.105065 0.000119 0.100568
v 0.104039 0.000119 0.107514
v 0.106509 0.000119 0.110380
v 0.125098 0.000119 0.104967
v 0.159071 0.000119 0.082596
v 0.186419 0.000119 0.056914
v 0.200971 0.000119 0.034614
v 0.207803 0.000119 0.009143
v 0.204718 0.000119 -0.024804
v 0.195018 0.000119 -0.050610
v 0.156312 0.000119 -0.119548
v 0.150401 0.000119 -0.138126
v 0.148546 0.000119 -0.157804
v 0.150827 0.000119 -0.176839
v 0.158216 0.000119 -0.197415
v 0.195530 0.000119 -0.252861
v 0.200757 0.000119 -0.273045
v 0.201129 0.000119 -0.291802
v 0.197227 0.000119 -0.309371
v 0.187221 0.000119 -0.327311
v 0.171129 0.000119 -0.342332
v 0.147833 0.000119 -0.355786
v 0.115910 0.000119 -0.367654
v 0.070496 0.000119 -0.377181
v 0.046922 0.000119 -0.378811
v -0.001899 0.000119 -0.375501
v -0.061850 0.000119 -0.367076
v -0.103300 0.000119 -0.356469
v -0.131879 0.000119 -0.341861
v -0.147191 0.000119 -0.323341
v -0.153561 0.000119 -0.291267
v -0.146759 0.000119 -0.252734
v -0.136958 0.000119 -0.230193
v -0.103724 0.000119 -0.181928
v -0.095921 0.000119 -0.157895
v -0.099860 0.000119 -0.142023
v -0.134584 0.000119 -0.071128
v -0.148428 0.000119 -0.033262
v -0.150814 0.000119 -0.012055
v -0.144264 0.000119 0.011166
v -0.128650 0.000119 0.036812
v -0.103639 0.000119 0.068825
v -0.090506 0.000119 0.081413
v -0.082316 0.000119 0.084705
v -0.079054 0.000119 0.075384
v -0.080492 0.000119 0.025616
v -0.071809 0.000119 0.000267
v -0.060174 0.000119 -0.009914
v -0.046444 0.000119 -0.016278
v 0.052259 0.011495 -0.255795
v 0.058322 0.011495 -0.261858
v 0.052259 0.011495 -0.267920
v 0.046196 0.011495 -0.261858
v 0.061598 0.009405 -0.168839
v 0.011568 0.009405 -0.186780
v 0.002070 0.009405 -0.187973
v -0.001838 0.009405 -0.184650
v 0.000747 0.009405 -0.177701
v 0.010638 0.009405 -0.170981
v 0.058293 0.009405 -0.153544
v 0.068143 0.009405 -0.153735
v 0.076455 0.009405 -0.159938
v -0.096510 0.009405 -0.015328
v -0.106065 0.009405 -0.015359
v -0.112973 0.009405 -0.019508
v -0.116087 0.009405 -0.026546
v -0.115478 0.009405 -0.036832
v -0.101844 0.009405 -0.072555
v -0.071118 0.009405 -0.127211
v -0.067283 0.009405 -0.150196
v -0.076349 0.009405 -0.178978
v -0.112758 0.009405 -0.243290
v -0.116741 0.009405 -0.256335
v -0.114918 0.009405 -0.263337
v -0.107339 0.009405 -0.265211
v -0.094485 0.009405 -0.262766
v -0.021020 0.009405 -0.232116
v -0.005798 0.009405 -0.228716
v 0.062276 0.009405 -0.233435
v 0.132696 0.009405 -0.254380
v 0.145273 0.009405 -0.253052
v 0.148005 0.009405 -0.240349
v 0.143134 0.009405 -0.218071
v 0.134665 0.009405 -0.197922
v 0.114614 0.009405 -0.166767
v 0.110948 0.009405 -0.147079
v 0.116653 0.009405 -0.123457
v 0.141318 0.009405 -0.077720
v 0.144423 0.009405 -0.055305
v 0.139795 0.009405 -0.042737
v 0.125948 0.009405 -0.040417
v 0.050328 0.009405 -0.070819
v 0.013927 0.009405 -0.075030
v -0.011633 0.009405 -0.069784
v -0.045015 0.009405 -0.055315
v -0.096510 0.000119 -0.015328
v -0.106065 0.000119 -0.015359
v -0.112973 0.000119 -0.019508
v -0.116087 0.000119 -0.026546
v -0.115478 0.000119 -0.036832
v -0.101844 0.000119 -0.072555
v -0.071118 0.000119 -0.127211
v -0.067283 0.000119 -0.150196
v -0.076349 0.000119 -0.178978
v -0.112758 0.000119 -0.243290
v -0.116741 0.000119 -0.256335
v -0.114918 0.000119 -0.263337
v -0.107339 0.000119 -0.265211
v -0.094485 0.000119 -0.262766
v -0.021020 0.000119 -0.232116
v -0.005798 0.000119 -0.228716
v 0.062276 0.000119 -0.233435
v 0.132696 0.000119 -0.254380
v 0.145273 0.000119 -0.253052
v 0.148005 0.000119 -0.240349
v 0.143134 0.000119 -0.218071
v 0.134665 0.000119 -0.197922
v 0.114614 0.000119 -0.166767
v 0.110948 0.000119 -0.147079
v 0.116653 0.000119 -0.123457
v 0.141318 0.000119 -0.077720
v 0.144423 0.000119 -0.055305
v 0.139795 0.000119 -0.042737
v 0.125948 0.000119 -0.040417
v 0.050328 0.000119 -0.070819
v 0.013927 0.000119 -0.075030
v -0.011633 0.000119 -0.069784
v -0.045015 0.000119 -0.055315
v 0.061598 0.018692 -0.168839
v 0.011568 0.018692 -0.186780
v 0.002070 0.018692 -0.187973
v -0.001838 0.018692 -0.184650
v 0.000747 0.018692 -0.177701
v 0.010638 0.018692 -0.170981
v 0.058293 0.018692 -0.153544
v 0.068143 0.018692 -0.153735
v 0.076455 0.018692 -0.159938
v 0.046654 0.018692 -0.133549
v 0.006344 0.018692 -0.136127
v -0.003062 0.018692 -0.133615
v -0.006440 0.018692 -0.128519
v -0.002981 0.018692 -0.124443
v 0.006317 0.018692 -0.121888
v 0.061472 0.018692 -0.118840
v 0.073957 0.018692 -0.121915
v 0.073859 0.018692 -0.127229
v 0.063875 0.018692 -0.132048
v 0.061727 0.018692 -0.109238
v 0.005794 0.018692 -0.111114
v -0.004520 0.018692 -0.108782
v -0.008048 0.018692 -0.104366
v 0.002948 0.018692 -0.096717
v 0.066275 0.018692 -0.093659
v 0.074417 0.018692 -0.096926
v 0.077579 0.018692 -0.102941
v 0.071707 0.018692 -0.108094
v 0.008995 0.009405 -0.268210
v 0.015348 0.009405 -0.261858
v 0.008995 0.009405 -0.255505
v 0.002643 0.009405 -0.261858
l 1 2
l 3 1
l 3 4
l 5 6
l 7 5
l 8 7
l 8 6
l 6 4
l 5 2
l 7 1
l 8 3
l 9 10
l 11 9
l 11 12
l 13 14
l 15 13
l 16 15
l 16 14
l 14 12
l 13 10
l 15 9
l 16 11
l 17 18
l 19 17
l 20 21
l 22 23
l 24 20
l 24 25
l 26 27
l 28 26
l 29 30
l 28 31
l 30 22
l 32 33
l 29 23
l 34 32
l 34 35
l 36 37
l 38 36
l 39 40
l 38 41
l 42 43
l 44 45
l 43 39
l 46 44
l 46 47
l 48 49
l 50 48
l 51 50
l 51 49
l 52 53
l 54 55
l 52 56
l 42 40
l 56 57
l 58 59
l 58 60
l 60 61
l 61 59
l 62 63
l 64 65
l 66 62
l 66 67
l 68 69
l 70 68
l 71 70
l 71 69
l 72 73 74 75 72
l 55 76
l 77 78 79 80 77
l 81 82
l 83 84
l 85 26
l 66 52
l 86 87
l 88 83
l 89 34
l 90 91
l 92 93
l 94 95 96 97 94
l 49 47
l 76 98
l 99 24
l 46 38
l 50 44
l 100 101
l 102 103
l 104 105 106 107 104
l 48 45
l 108 109
l 99 110
l 111 27
l 52 46
l 112 113
l 114 115 116 117 114
l 118 119
l 120 121
l 122 21
l 28 24
l 85 111
l 123 124 125 126 123
l 127 41
l 128 129
l 122 130
l 130 25
l 38 34
l 131 112
l 110 20
l 34 28
l 131 38
l 132 133
l 134 135
l 136 88
l 102 85
l 137 138 139 140 137
l 113 37
l 141 142
l 143 136
l 24 136
l 112 36
l 144 145
l 146 32
l 147 148
l 102 28
l 4 10
l 149 98
l 150 66
l 113 127
l 64 151
l 119 152
l 65 153
l 152 154
l 54 101
l 155 156
l 146 92
l 110 122
l 103 31
l 3 155
l 131 127
l 156 2
l 157 158
l 99 130
l 92 33
l 12 18
l 111 103
l 93 35
l 159 160
l 51 46
l 161 162
l 89 146
l 163 164 165 166 163
l 61 57
l 167 168
l 60 56
l 169 170
l 171 172 173 174 171
l 59 53
l 175 176
l 58 52
l 177 82
l 89 93
l 68 63
l 135 21
l 70 62
l 25 27
l 69 67
l 31 33
l 71 66
l 35 37
l 41 45
l 47 57
l 53 63
l 67 178
l 143 134
l 143 86
l 86 81
l 81 134
l 136 135
l 179 180
l 136 87
l 181 182
l 87 82
l 84 183
l 184 88
l 185 178
l 186 151
l 187 188
l 189 190
l 151 191
l 192 176
l 193 156
l 183 186
l 194 177
l 184 194
l 184 187
l 187 192
l 192 194
l 88 177
l 88 188
l 188 176
l 179 181
l 191 195
l 196 197
l 198 83
l 199 200
l 119 150
l 201 202
l 152 66
l 200 203
l 204 170
l 118 205
l 195 199
l 206 175
l 198 206
l 198 201
l 201 204
l 204 206
l 83 175
l 182 180
l 83 202
l 207 208
l 202 170
l 203 209
l 154 155
l 210 84
l 193 185
l 211 212
l 213 214
l 178 215 216 190
l 212 19
l 217 168
l 209 211
l 218 169
l 210 218
l 210 213
l 213 217
l 217 218
l 84 169
l 84 214
l 214 168
l 219 220
l 185 221 222 189
l 19 11
l 223 183
l 189 196
l 224 225
l 197 226 227 228 229 230 231 232 205
l 233 162
l 11 3
l 190 197
l 234 167
l 223 234
l 223 224
l 224 233
l 233 234
l 183 167
l 235 236 237 238 235
l 207 219
l 183 225
l 239 240 241 242 239
l 220 208
l 225 162
l 196 243 244 245 246 247 248 249 118
l 250 186
l 205 150
l 251 161
l 250 251
l 250 120
l 120 149
l 149 251
l 186 161
l 186 121
l 121 98
l 252 253 254 255 252
l 256 257
l 64 55
l 65 54
l 151 76
l 258 259
l 151 153
l 256 258
l 153 101
l 154 193
l 42 191
l 43 260
l 39 109
l 40 100
l 191 100
l 191 260
l 260 109
l 259 257
l 29 195
l 30 261
l 22 133
l 23 108
l 195 108
l 262 263
l 195 261
l 264 265
l 261 133
l 179 199
l 181 266
l 182 129
l 180 132
l 199 132
l 199 266
l 266 129
l 262 264
l 207 200
l 219 267
l 220 145
l 208 128
l 200 128
l 265 263
l 200 267
l 268 269
l 267 145
l 256 203
l 258 270
l 259 142
l 257 144
l 203 144
l 203 270
l 270 142
l 271 272
l 262 209
l 264 273
l 265 91
l 263 141
l 209 141
l 268 271
l 209 273
l 272 269
l 273 91
l 268 211
l 271 274
l 272 160
l 269 90
l 211 90
l 211 274
l 274 160
l 275 276
l 275 212
l 277 278
l 279 148
l 276 159
l 275 277
l 212 278
l 277 279
l 212 159
l 279 276
l 278 148
l 280 19
l 281 17
l 157 18
l 158 147
l 280 158
l 280 281
l 281 157
l 19 147
l 282 283 282
l 284 285 284
l 286 287 286
l 288 289 288
l 290 291 290
l 292 293 294 295 292
l 296 297 298 299 296
l 300 301 302 303 300
l 304 305 306 307 304
l 308 309 310 311 308
l 312 313
l 314 315 314
l 312 316
l 317 318 319 320 321 322 323 324 317
l 325 312
l 316 326
l 327 328 329 330 331 332 333 334 327
l 335 336 337 338 335
l 339 340 341 342 339
l 343 344 345 346 343
l 347 326
l 348 349 348
l 350 351 352 353 354 355 356 357 350
l 325 358
l 359 360 359
l 361 362 363 364 365 366 367 368 369 370 361
l 371 316
l 372 373 374 375 372
l 313 326
l 376 377 376
l 378 379 378
l 380 381 380
l 382 383 384 385 386 387 388 389 390 382
l 358 313
l 391 392 393 394 391
l 395 396 395
l 397 398 399 400 401 402 403 404 397
l 405 406 407 408 409 410 411 412 413 414 415 416 417 418 419 420 421 422 423 424 425 426 427 428 429 430 431 432 433 434 435 436 437 438 439 440 441 442 443 444 445 446 447 448 449 450 451 452 453 454 455 456 457 458 459 460 461 405
l 156 462 463 464 465 466 467 468 469 470 471 472 473 474 475 476 477 478 479 480 481 482 483 484 485 486 487 488 489 490 491 492 493 494 495 496 497 498 499 500 501 502 503 504 505 506 507 508 509 510 511 512 513 514 515 516 517 156
l 518 519 520 521 518
l 522 523 524 525 526 527 528 529 530 522
l 531 532 533 534 535 536 537 538 539 540 541 542 543 544 545 546 547 548 549 550 551 552 553 554 555 556 557 558 559 560 561 562 563 531
l 371 347
l 564 565 566 567 568 569 570 571 572 573 574 575 576 577 578 579 580 581 582 583 584 585 586 587 588 589 590 591 592 593 594 595 596 564
l 597 598 599 600 601 602 603 604 605 597
l 606 607 608 609 610 611 612 613 614 615 606
l 616 617 618 619 620 621 622 623 624 616
l 358 347
l 625 626 627 628 625
l 325 371
