v -0.113316 0.009507 -0.185014
v -0.139725 0.009507 -0.058113
v -0.148360 0.009507 -0.000539
v -0.149909 0.009507 0.056012
v -0.141440 0.009507 0.105264
v -0.123008 0.009507 0.142872
v -0.107211 0.009507 0.160419
v -0.091520 0.009507 0.172126
v -0.050289 0.009507 0.188802
v 0.000000 0.009507 0.194496
v 0.000000 0.049007 -0.187002
v 0.000000 0.053849 -0.163749
v 0.000000 0.070316 -0.138054
v 0.000000 0.152550 -0.065568
v 0.000000 0.174917 -0.039996
v 0.000000 0.184769 -0.015817
v 0.000000 0.181612 0.010113
v 0.000000 0.062453 -0.271651
v 0.000000 0.062015 -0.310708
v 0.000000 0.055939 -0.332163
v 0.000000 0.045483 -0.351252
v 0.000000 0.031382 -0.367840
v 0.000000 0.010864 -0.384723
v -0.251756 -0.083647 0.051734
v -0.250726 0.053373 0.051734
v -0.245875 0.089148 0.051734
v -0.237162 0.112079 0.051734
v -0.232177 0.117880 0.051734
v -0.221897 0.122243 0.051734
v -0.202226 0.115880 0.051734
v -0.176300 0.093150 0.051734
v -0.146298 0.056389 0.051734
v -0.358728 -0.083647 0.051734
v -0.355391 -0.083647 0.033457
v -0.344655 -0.083647 0.017791
v -0.327583 -0.083647 0.007386
v -0.305469 -0.083647 0.003427
v -0.282138 -0.083647 0.007678
v -0.265186 -0.083647 0.018404
v -0.255111 -0.083647 0.033414
v -0.305216 -0.083647 0.098296
v -0.302919 -0.015892 0.098233
v -0.294822 0.040227 0.098013
v -0.281281 0.082111 0.097644
v -0.260844 0.112813 0.097088
v -0.238062 0.127830 0.096468
v -0.205079 0.131428 0.095571
v -0.170135 0.121504 0.094620
v -0.125621 0.096047 0.093408
v 0.000000 -0.175077 -0.187002
v 0.000000 -0.154778 -0.112436
v 0.000000 -0.151189 -0.086164
v 0.000000 -0.180157 0.026174
v 0.000000 -0.188089 0.107289
v -0.022019 0.026284 0.195253
v -0.044580 0.041458 0.192018
v -0.063289 0.054041 0.185698
v -0.084120 0.068051 0.173222
v -0.100691 0.079196 0.156738
v -0.113161 0.087583 0.136413
v -0.119968 0.092161 0.116740
v -0.122743 0.094027 0.093330
v -0.354885 -0.083647 0.071583
v -0.342805 -0.083647 0.087968
v -0.327681 -0.083647 0.096858
v -0.307796 -0.083647 0.100878
v -0.286840 -0.083647 0.098243
v -0.269248 -0.083647 0.089252
v -0.256959 -0.083647 0.074481
v -0.251894 -0.083647 0.055754
v -0.251756 -0.086146 0.051734
v -0.255094 -0.106844 0.051734
v -0.266609 -0.125302 0.051734
v -0.285346 -0.137115 0.051734
v -0.306904 -0.140518 0.051734
v -0.326903 -0.136376 0.051734
v -0.345233 -0.123935 0.051734
v -0.356319 -0.104491 0.051734
v -0.358676 -0.083510 0.051734
v -0.101486 0.134790 0.051734
v -0.092843 0.147855 0.051734
v -0.074704 0.157354 0.051734
v -0.049831 0.163075 0.051734
v -0.012994 0.165669 0.051734
v 0.034733 0.164762 0.051734
v 0.068040 0.159386 0.051734
v 0.090561 0.149609 0.051734
v 0.101486 0.134790 0.051734
v -0.144000 0.053264 0.051734
v -0.142309 0.056507 0.067352
v -0.137752 0.065244 0.079999
v -0.130945 0.078298 0.089580
v -0.123375 0.092815 0.093308
v -0.115364 0.108176 0.090302
v -0.109014 0.120355 0.082381
v -0.103291 0.131329 0.067814
v -0.101457 0.134847 0.052849
v -0.150065 0.009507 0.051734
v -0.354439 -0.005850 0.051734
v -0.341741 0.053592 0.051734
v -0.319870 0.101577 0.051734
v -0.290216 0.135958 0.051734
v -0.270792 0.149624 0.051734
v -0.249492 0.159648 0.051734
v -0.206192 0.167733 0.051734
v -0.156956 0.160803 0.051734
v -0.105327 0.137300 0.051734
v 0.000000 -0.172647 -0.240268
v 0.000000 -0.165189 -0.285749
v 0.000000 -0.151242 -0.326038
v 0.000000 -0.131545 -0.356330
v 0.000000 -0.108171 -0.376081
v 0.000000 -0.075544 -0.389147
v 0.000000 -0.039262 -0.392439
v 0.000000 0.003714 -0.386972
v 0.000000 -0.186144 0.131152
v 0.000000 -0.178617 0.149954
v 0.000000 -0.165676 0.165092
v 0.000000 -0.145401 0.177707
v 0.000000 -0.120817 0.185993
v 0.000000 -0.091085 0.191196
v 0.000000 0.001089 0.194503
v -0.122743 0.094027 0.010113
v -0.120520 0.094027 -0.013384
v -0.113850 0.094027 -0.036074
v -0.103250 0.094027 -0.056631
v -0.087476 0.094027 -0.076499
v -0.068174 0.094027 -0.092711
v -0.047753 0.094027 -0.104031
v -0.023088 0.094027 -0.111934
v 0.000000 0.094027 -0.114624
v -0.305216 -0.141029 0.051734
v -0.309356 -0.134263 0.028089
v -0.312286 -0.122689 0.011356
v -0.314004 -0.106163 0.001538
v -0.314585 -0.083647 -0.001777
v -0.143999 0.053265 0.051269
v -0.142645 0.055862 0.035078
v -0.137505 0.065719 0.019969
v -0.131333 0.077554 0.012903
v -0.123199 0.093152 0.010120
v -0.114050 0.110696 0.012976
v -0.107594 0.123077 0.020658
v -0.103300 0.131312 0.032770
v 0.000000 0.005774 0.194496
v 0.000000 -0.073817 0.194496
v -0.036897 -0.171941 -0.187002
v -0.069336 -0.162366 -0.187002
v -0.088364 -0.151076 -0.187002
v -0.107236 -0.130302 -0.187002
v -0.117456 -0.107347 -0.187002
v -0.122537 -0.076783 -0.187002
v -0.121584 -0.040851 -0.187002
v -0.113398 0.008948 -0.187002
v 0.000000 0.180901 0.011924
v 0.000000 0.147734 0.096413
v 0.000000 0.009507 -0.385661
v -0.038220 0.009507 -0.382475
v -0.071239 0.009507 -0.372944
v -0.095559 0.009507 -0.357699
v -0.111896 0.009507 -0.337522
v -0.121414 0.009507 -0.312305
v -0.124589 0.009507 -0.281669
v -0.113276 0.009507 -0.187002
v -0.107874 0.094027 -0.048792
v -0.106484 0.104928 -0.050147
v -0.100786 0.116107 -0.055700
v -0.091914 0.122974 -0.064349
v -0.081230 0.125344 -0.074763
v -0.072297 0.123751 -0.083471
v -0.062509 0.117183 -0.093012
v -0.056556 0.107128 -0.098815
v -0.054478 0.094027 -0.100840
v -0.305216 -0.140145 0.071653
v -0.305216 -0.131208 0.086703
v -0.305216 -0.114479 0.095375
v -0.305216 -0.086174 0.098294
v 0.000000 0.037624 0.192071
v 0.000000 0.063751 0.184510
v 0.000000 0.087340 0.171681
v 0.000000 0.107710 0.154276
v 0.000000 0.127380 0.129770
v 0.000000 0.143623 0.101970
v 0.000000 0.179994 0.014260
v -0.107870 0.093327 -0.048796
v -0.105751 0.079325 -0.050861
v -0.099670 0.068087 -0.056789
v -0.089510 0.060777 -0.066692
v -0.081388 0.059225 -0.074609
v -0.071693 0.061254 -0.084060
v -0.062129 0.068758 -0.093382
v -0.056182 0.080721 -0.099179
v -0.314581 -0.085695 -0.001756
v -0.312572 -0.004340 -0.001632
v -0.305026 0.057643 -0.001165
v -0.291048 0.103374 -0.000300
v -0.270940 0.132450 0.000944
v -0.245223 0.146031 0.002535
v -0.211554 0.144811 0.004618
v -0.173006 0.128832 0.007003
v -0.126654 0.097158 0.009871
v -0.094748 0.029059 -0.187002
v -0.071647 0.041635 -0.187002
v -0.045698 0.047441 -0.187002
v 0.000000 -0.184328 0.051734
v -0.041728 -0.181181 0.051734
v -0.076812 -0.172329 0.051734
v -0.104430 -0.158145 0.051734
v -0.126220 -0.137859 0.051734
v -0.141723 -0.111428 0.051734
v -0.150854 -0.079113 0.051734
v -0.153843 -0.039362 0.051734
v -0.151109 0.001462 0.051734
v 0.113316 0.009507 -0.185014
v 0.139725 0.009507 -0.058113
v 0.148360 0.009507 -0.000539
v 0.149909 0.009507 0.056012
v 0.141440 0.009507 0.105264
v 0.123008 0.009507 0.142872
v 0.107211 0.009507 0.160419
v 0.091520 0.009507 0.172126
v 0.050289 0.009507 0.188802
v 0.251756 -0.083647 0.051734
v 0.250726 0.053373 0.051734
v 0.245875 0.089148 0.051734
v 0.237162 0.112079 0.051734
v 0.232177 0.117880 0.051734
v 0.221897 0.122243 0.051734
v 0.202226 0.115880 0.051734
v 0.176300 0.093150 0.051734
v 0.146298 0.056389 0.051734
v 0.358728 -0.083647 0.051734
v 0.355391 -0.083647 0.033457
v 0.344655 -0.083647 0.017791
v 0.327583 -0.083647 0.007386
v 0.305469 -0.083647 0.003427
v 0.282138 -0.083647 0.007678
v 0.265186 -0.083647 0.018404
v 0.255111 -0.083647 0.033414
v 0.305216 -0.083647 0.098296
v 0.302919 -0.015892 0.098233
v 0.294822 0.040227 0.098013
v 0.281281 0.082111 0.097644
v 0.260844 0.112813 0.097088
v 0.238062 0.127830 0.096468
v 0.205079 0.131428 0.095571
v 0.170135 0.121504 0.094620
v 0.125621 0.096047 0.093408
v 0.000000 0.011029 0.194728
v 0.044580 0.041458 0.192018
v 0.063289 0.054041 0.185698
v 0.084120 0.068051 0.173222
v 0.100691 0.079196 0.156738
v 0.113161 0.087583 0.136413
v 0.119968 0.092161 0.116740
v 0.122743 0.094027 0.093330
v 0.354885 -0.083647 0.071583
v 0.342805 -0.083647 0.087968
v 0.327681 -0.083647 0.096858
v 0.307796 -0.083647 0.100878
v 0.286840 -0.083647 0.098243
v 0.269248 -0.083647 0.089252
v 0.256959 -0.083647 0.074481
v 0.251894 -0.083647 0.055754
v 0.251756 -0.086146 0.051734
v 0.255094 -0.106844 0.051734
v 0.266609 -0.125302 0.051734
v 0.285346 -0.137115 0.051734
v 0.306904 -0.140518 0.051734
v 0.326903 -0.136376 0.051734
v 0.345233 -0.123935 0.051734
v 0.356319 -0.104491 0.051734
v 0.358676 -0.083510 0.051734
v 0.144000 0.053264 0.051734
v 0.142309 0.056507 0.067352
v 0.137752 0.065244 0.079999
v 0.130945 0.078298 0.089580
v 0.123375 0.092815 0.093308
v 0.115364 0.108176 0.090302
v 0.109014 0.120355 0.082381
v 0.103291 0.131329 0.067814
v 0.101457 0.134847 0.052849
v 0.150065 0.009507 0.051734
v 0.354439 -0.005850 0.051734
v 0.341741 0.053592 0.051734
v 0.319870 0.101577 0.051734
v 0.290216 0.135958 0.051734
v 0.270792 0.149624 0.051734
v 0.249492 0.159648 0.051734
v 0.206192 0.167733 0.051734
v 0.156956 0.160803 0.051734
v 0.105327 0.137300 0.051734
v 0.122743 0.094027 0.010113
v 0.120520 0.094027 -0.013384
v 0.113850 0.094027 -0.036074
v 0.103250 0.094027 -0.056631
v 0.087476 0.094027 -0.076499
v 0.068174 0.094027 -0.092711
v 0.047753 0.094027 -0.104031
v 0.023088 0.094027 -0.111934
v 0.305216 -0.141029 0.051734
v 0.309356 -0.134263 0.028089
v 0.312286 -0.122689 0.011356
v 0.314004 -0.106163 0.001538
v 0.314585 -0.083647 -0.001777
v 0.143999 0.053265 0.051269
v 0.142645 0.055862 0.035078
v 0.137505 0.065719 0.019969
v 0.131333 0.077554 0.012903
v 0.123199 0.093152 0.010120
v 0.114050 0.110696 0.012976
v 0.107594 0.123077 0.020658
v 0.103300 0.131312 0.032770
v 0.000000 -0.175076 -0.187002
v 0.036897 -0.171941 -0.187002
v 0.069336 -0.162366 -0.187002
v 0.088364 -0.151076 -0.187002
v 0.107236 -0.130302 -0.187002
v 0.117456 -0.107347 -0.187002
v 0.122537 -0.076783 -0.187002
v 0.121584 -0.040851 -0.187002
v 0.113398 0.008948 -0.187002
v 0.000000 0.009507 -0.385657
v 0.038220 0.009507 -0.382475
v 0.071239 0.009507 -0.372944
v 0.095559 0.009507 -0.357699
v 0.111896 0.009507 -0.337522
v 0.121414 0.009507 -0.312305
v 0.124589 0.009507 -0.281669
v 0.113276 0.009507 -0.187002
v 0.107874 0.094027 -0.048792
v 0.106484 0.104928 -0.050147
v 0.100786 0.116107 -0.055700
v 0.091914 0.122974 -0.064349
v 0.081230 0.125344 -0.074763
v 0.072297 0.123751 -0.083471
v 0.062509 0.117183 -0.093012
v 0.056556 0.107128 -0.098815
v 0.054478 0.094027 -0.100840
v 0.305216 -0.140145 0.071653
v 0.305216 -0.131208 0.086703
v 0.305216 -0.114479 0.095375
v 0.305216 -0.086174 0.098294
v 0.107870 0.093327 -0.048796
v 0.105751 0.079325 -0.050861
v 0.099670 0.068087 -0.056789
v 0.089510 0.060777 -0.066692
v 0.081388 0.059225 -0.074609
v 0.071693 0.061254 -0.084060
v 0.062129 0.068758 -0.093382
v 0.056182 0.080721 -0.099179
v 0.314581 -0.085695 -0.001756
v 0.312572 -0.004340 -0.001632
v 0.305026 0.057643 -0.001165
v 0.291048 0.103374 -0.000300
v 0.270940 0.132450 0.000944
v 0.245223 0.146031 0.002535
v 0.211554 0.144811 0.004618
v 0.173006 0.128832 0.007003
v 0.126654 0.097158 0.009871
v 0.094748 0.029059 -0.187002
v 0.071647 0.041635 -0.187002
v 0.045698 0.047441 -0.187002
v 0.000000 0.049008 -0.187002
v 0.000000 -0.184327 0.051734
v 0.041728 -0.181181 0.051734
v 0.076812 -0.172329 0.051734
v 0.104430 -0.158145 0.051734
v 0.126220 -0.137859 0.051734
v 0.141723 -0.111428 0.051734
v 0.150854 -0.079113 0.051734
v 0.153843 -0.039362 0.051734
v 0.151109 0.001462 0.051734
l 1 2 3 4 5 6 7 8 9 10
l 11 12 13 14 15 16 17
l 11 18 19 20 21 22 23
l 24 25 26 27 28 29 30 31 32
l 33 34 35 36 37 38 39 40 24
l 41 42 43 44 45 46 47 48 49
l 50 51 52 53 54
l 10 55 56 57 58 59 60 61 62
l 33 63 64 65 66 67 68 69 70
l 71 72 73 74 75 76 77 78 79
l 80 81 82 83 84 85 86 87 88
l 89 90 91 92 93 94 95 96 97
l 89 98
l 33 99 100 101 102 103 104 105 106 107
l 50 108 109 110 111 112 113 114 115
l 54 116 117 118 119 120 121 122
l 123 124 125 126 127 128 129 130 131
l 132 133 134 135 136
l 137 138 139 140 141 142 143 144 80
l 145 146
l 50 147 148 149 150 151 152 153 154
l 155 156
l 157 158 159 160 161 162 163 164
l 165 166 167 168 169 170 171 172 173
l 132 174 175 176 177
l 10 178 179 180 181 182 183 184
l 185 186 187 188 189 190 191 192 173
l 193 194 195 196 197 198 199 200 201
l 164 202 203 204 11
l 205 206 207 208 209 210 211 212 213
l 214 215 216 217 218 219 220 221 222 10
l 223 224 225 226 227 228 229 230 231
l 232 233 234 235 236 237 238 239 223
l 240 241 242 243 244 245 246 247 248
l 249 250 251 252 253 254 255 256
l 232 257 258 259 260 261 262 263 264
l 265 266 267 268 269 270 271 272 273
l 274 275 276 277 278 279 280 281 282
l 274 283
l 232 284 285 286 287 288 289 290 291 292
l 293 294 295 296 297 298 299 300 131
l 301 302 303 304 305
l 306 307 308 309 310 311 312 313 88
l 314 315 316 317 318 319 320 321 322
l 323 324 325 326 327 328 329 330
l 331 332 333 334 335 336 337 338 339
l 301 340 341 342 343
l 344 345 346 347 348 349 350 351 339
l 352 353 354 355 356 357 358 359 360
l 330 361 362 363 364
l 365 366 367 368 369 370 371 372 373
