v 0.070992 0.032226 0.207997
v 0.070992 0.032226 0.134742
v 0.000489 0.094049 0.134743
v 0.033794 0.088940 0.140797
v 0.049566 0.082192 0.148791
v 0.062545 0.073138 0.159521
v 0.071623 0.062704 0.171883
v 0.076309 0.051398 0.185280
v 0.076042 0.041431 0.197090
v 0.070991 0.032972 0.134742
v 0.067293 0.062500 0.134742
v 0.054842 0.081592 0.134742
v 0.032885 0.091231 0.134742
v -0.000677 0.094049 0.134742
v 0.000000 0.033439 -0.343663
v 0.000000 0.078428 -0.337634
v 0.000000 0.089614 -0.332481
v 0.000000 0.094050 -0.325244
v 0.105115 -0.028326 -0.269791
v 0.100012 -0.022754 -0.269791
v 0.088421 -0.018448 -0.269791
v 0.043488 -0.013528 -0.269791
v 0.086523 -0.029598 0.134742
v 0.091205 -0.029595 0.193942
v 0.091522 -0.029594 0.248503
v 0.087383 -0.029595 0.292702
v 0.078616 -0.029596 0.330247
v 0.065421 -0.029597 0.359332
v 0.048125 -0.029597 0.379846
v 0.028475 -0.029598 0.391579
v 0.001994 -0.029598 0.396576
v -0.055786 -0.091422 0.134742
v -0.049230 -0.091422 0.188292
v -0.036768 -0.091422 0.231350
v -0.020160 -0.091422 0.257397
v -0.009343 -0.091422 0.264206
v 0.000000 -0.091422 0.265669
v 0.009343 -0.091422 0.264206
v 0.020160 -0.091422 0.257397
v 0.036768 -0.091422 0.231350
v 0.049230 -0.091422 0.188292
v 0.055786 -0.091422 0.134742
v 0.076077 -0.028827 0.036545
v 0.076077 -0.007725 0.036545
v 0.000000 0.032226 0.265672
v 0.000000 0.075140 0.260803
v 0.000000 0.088267 0.254031
v 0.000000 0.095776 0.244553
v 0.000000 0.099776 0.221534
v 0.000000 0.094050 0.134742
v 0.042436 0.032381 0.003812
v 0.038338 0.085610 0.003812
v 0.028826 0.129572 0.003812
v 0.016180 0.154576 0.003812
v 0.008382 0.161066 0.003812
v 0.000000 0.163156 0.003812
v -0.008382 0.161066 0.003812
v -0.016180 0.154576 0.003812
v -0.028826 0.129572 0.003812
v -0.038338 0.085610 0.003812
v -0.042436 0.032381 0.003812
v 0.000000 -0.091375 -0.269791
v 0.000000 -0.082175 -0.346703
v 0.000000 -0.073652 -0.378346
v 0.000000 -0.061430 -0.408226
v 0.000000 -0.048159 -0.429329
v 0.000000 -0.033634 -0.443887
v 0.000000 -0.016901 -0.452963
v 0.000000 0.001314 -0.455948
v 0.000000 0.032226 -0.269791
v 0.000000 0.054638 -0.273658
v 0.000000 0.075572 -0.285703
v 0.000000 0.088959 -0.302914
v 0.000000 0.094050 -0.325200
v 0.050060 -0.029598 -0.208014
v 0.049605 -0.035873 -0.212291
v 0.048203 -0.040962 -0.225474
v 0.043488 -0.045757 -0.269791
v 0.085919 -0.021693 0.129063
v 0.083701 -0.014400 0.108208
v 0.076272 -0.007706 0.038381
v 0.066134 0.032226 0.230770
v 0.051512 0.032226 0.249203
v 0.028756 0.032226 0.261269
v -0.000393 0.032226 0.265699
v 0.055452 -0.091422 0.134430
v 0.043488 -0.091422 -0.269791
v 0.000000 0.163156 0.069277
v -0.043488 0.032226 -0.269791
v -0.034673 0.032226 -0.326379
v -0.023436 0.032226 -0.374312
v -0.012101 0.032226 -0.402660
v 0.000000 0.032226 -0.412789
v 0.012101 0.032226 -0.402660
v 0.023436 0.032226 -0.374312
v 0.034673 0.032226 -0.326379
v 0.043488 0.032226 -0.269791
v 0.088309 -0.040837 -0.269791
v 0.100451 -0.036217 -0.269791
v 0.105268 -0.029598 -0.269791
v 0.090503 -0.029598 0.265672
v 0.089539 0.005362 0.265672
v 0.079133 0.020968 0.265672
v 0.052482 0.029437 0.265672
v -0.000409 0.032226 0.265672
v 0.228121 -0.029296 0.036545
v 0.214993 -0.014543 0.036545
v 0.189622 -0.007162 0.036545
v 0.076077 -0.007697 0.036545
v 0.000000 0.032226 0.275178
v 0.055461 -0.091422 0.134742
v 0.000517 -0.091422 0.134742
v 0.043698 0.032226 -0.266699
v 0.000000 0.094264 0.134742
v 0.000000 0.120797 0.129585
v 0.000000 0.142418 0.116014
v 0.000000 0.157950 0.094381
v 0.039657 -0.086572 -0.315110
v 0.031368 -0.073418 -0.360689
v 0.014884 -0.047281 -0.417627
v 0.004878 -0.033500 -0.440840
v -0.001270 -0.030069 -0.446175
v -0.009235 0.032226 -0.325200
v -0.007857 0.032226 -0.284614
v -0.004494 0.032226 -0.273404
v 0.004494 0.032226 -0.273404
v 0.007857 0.032226 -0.284614
v 0.009235 0.032226 -0.325200
v 0.000000 -0.029598 0.396597
v 0.000000 -0.051384 0.389273
v 0.000000 -0.071073 0.363782
v 0.000000 -0.084992 0.321252
v 0.076077 -0.051499 0.036545
v 0.076077 -0.029598 0.036545
v 0.055545 -0.091422 0.134742
v 0.067598 -0.087728 0.134742
v 0.077379 -0.075925 0.134742
v 0.084076 -0.055202 0.134742
v 0.000000 0.032239 -0.030330
v 0.000000 0.086855 -0.026903
v 0.000000 0.128650 -0.019652
v 0.000000 0.154602 -0.009216
v 0.000000 0.163153 0.003578
v -0.037014 0.094050 0.003812
v -0.036190 0.094050 0.055610
v -0.029277 0.094050 0.098114
v -0.016692 0.094050 0.125349
v -0.007958 0.094050 0.132573
v 0.007958 0.094050 0.132573
v 0.016692 0.094050 0.125349
v 0.029277 0.094050 0.098114
v 0.036190 0.094050 0.055610
v 0.037014 0.094050 0.003812
v 0.043604 -0.029642 -0.268420
v 0.018799 -0.029607 -0.405907
v 0.008200 -0.029600 -0.437916
v 0.003266 -0.029598 -0.445217
v -0.001856 -0.029598 -0.446380
v 0.188889 -0.044590 0.036545
v 0.218391 -0.037960 0.036545
v 0.228231 -0.029598 0.036545
v 0.000000 -0.016733 0.394377
v 0.000000 -0.006152 0.388557
v 0.000000 0.012940 0.364009
v 0.000000 0.026484 0.323707
v 0.000000 0.032223 0.275989
v 0.085853 -0.037884 0.128437
v 0.084026 -0.044091 0.111269
v 0.084257 0.017892 0.134742
v 0.079170 0.028709 0.134742
v 0.063080 0.032226 0.069412
v 0.048317 0.032226 0.016558
v 0.038185 0.032226 -0.004152
v 0.027187 0.032226 -0.018467
v 0.013080 0.032226 -0.028048
v 0.002812 0.032226 -0.030296
v 0.050060 -0.029635 -0.208014
v 0.072021 -0.029633 -0.214326
v 0.091313 -0.029625 -0.228567
v 0.102847 -0.029613 -0.247747
v 0.032821 -0.084412 0.265670
v 0.064567 -0.068455 0.265671
v 0.083389 -0.050541 0.265671
v 0.090488 -0.030577 0.265672
v 0.113154 -0.029598 0.134160
v 0.138553 -0.029598 0.129537
v 0.164413 -0.029598 0.120451
v 0.185712 -0.029598 0.108480
v 0.202288 -0.029598 0.094538
v 0.216449 -0.029598 0.075912
v 0.224404 -0.029598 0.057603
v -0.001467 -0.091377 -0.269791
v 0.045865 -0.091325 -0.269791
v 0.031847 0.094050 -0.008201
v 0.022251 0.094050 -0.018450
v 0.000373 0.094050 -0.026033
v 0.050057 -0.028993 -0.208048
v 0.049500 -0.022745 -0.213280
v 0.048267 -0.018441 -0.224873
v 0.001303 -0.091422 0.134742
v -0.001303 -0.091422 0.134742
v 0.000000 0.029927 -0.428663
v 0.000000 0.023189 -0.443306
v 0.000000 0.013896 -0.452399
v 0.000000 0.002132 -0.455935
v 0.043488 -0.015025 -0.269791
v -0.001539 -0.091409 0.265669
v -0.001475 0.032226 -0.343362
v -0.000628 0.032226 -0.343576
v 0.007062 0.032226 -0.337472
v 0.000000 0.032226 -0.343669
v -0.001205 0.094050 -0.026111
v 0.001205 0.094050 -0.026111
v -0.003629 0.032226 -0.029963
v -0.000026 0.032226 -0.030330
v -0.070992 0.032226 0.207997
v -0.070992 0.032226 0.134742
v -0.000489 0.094049 0.134743
v -0.033794 0.088940 0.140797
v -0.049566 0.082192 0.148791
v -0.062545 0.073138 0.159521
v -0.071623 0.062704 0.171883
v -0.076309 0.051398 0.185280
v -0.076042 0.041431 0.197090
v -0.070991 0.032972 0.134742
v -0.067293 0.062500 0.134742
v -0.054842 0.081592 0.134742
v -0.032885 0.091231 0.134742
v 0.000677 0.094049 0.134742
v -0.105115 -0.028326 -0.269791
v -0.100012 -0.022754 -0.269791
v -0.088421 -0.018448 -0.269791
v -0.043488 -0.013528 -0.269791
v -0.086523 -0.029598 0.134742
v -0.091205 -0.029595 0.193942
v -0.091522 -0.029594 0.248503
v -0.087383 -0.029595 0.292702
v -0.078616 -0.029596 0.330247
v -0.065421 -0.029597 0.359332
v -0.048125 -0.029597 0.379846
v -0.028475 -0.029598 0.391579
v -0.001994 -0.029598 0.396576
v -0.076077 -0.028827 0.036545
v -0.076077 -0.007725 0.036545
v -0.050060 -0.029598 -0.208014
v -0.049605 -0.035873 -0.212291
v -0.048203 -0.040962 -0.225474
v -0.043488 -0.045757 -0.269791
v -0.085919 -0.021693 0.129063
v -0.083701 -0.014400 0.108208
v -0.076272 -0.007706 0.038381
v -0.066134 0.032226 0.230770
v -0.051512 0.032226 0.249203
v -0.028756 0.032226 0.261269
v 0.000393 0.032226 0.265699
v -0.055452 -0.091422 0.134430
v -0.043488 -0.091422 -0.269791
v -0.088309 -0.040837 -0.269791
v -0.100451 -0.036217 -0.269791
v -0.105268 -0.029598 -0.269791
v -0.090503 -0.029598 0.265672
v -0.089539 0.005362 0.265672
v -0.079133 0.020968 0.265672
v -0.052482 0.029437 0.265672
v 0.000409 0.032226 0.265672
v -0.228121 -0.029296 0.036545
v -0.214993 -0.014543 0.036545
v -0.189622 -0.007162 0.036545
v -0.076077 -0.007697 0.036545
v -0.055461 -0.091422 0.134742
v -0.000517 -0.091422 0.134742
v -0.043698 0.032226 -0.266699
v -0.039657 -0.086572 -0.315110
v -0.031368 -0.073418 -0.360689
v -0.014884 -0.047281 -0.417627
v -0.004878 -0.033500 -0.440840
v 0.001270 -0.030069 -0.446175
v -0.076077 -0.051499 0.036545
v -0.076077 -0.029598 0.036545
v -0.055545 -0.091422 0.134742
v -0.067598 -0.087728 0.134742
v -0.077379 -0.075925 0.134742
v -0.084076 -0.055202 0.134742
v -0.043604 -0.029642 -0.268420
v -0.018799 -0.029607 -0.405907
v -0.008200 -0.029600 -0.437916
v -0.003266 -0.029598 -0.445217
v 0.001856 -0.029598 -0.446380
v -0.188889 -0.044590 0.036545
v -0.218391 -0.037960 0.036545
v -0.228231 -0.029598 0.036545
v -0.085853 -0.037884 0.128437
v -0.084026 -0.044091 0.111269
v -0.084257 0.017892 0.134742
v -0.079170 0.028709 0.134742
v -0.063080 0.032226 0.069412
v -0.048317 0.032226 0.016558
v -0.038185 0.032226 -0.004152
v -0.027187 0.032226 -0.018467
v -0.013080 0.032226 -0.028048
v -0.002812 0.032226 -0.030296
v -0.050060 -0.029635 -0.208014
v -0.072021 -0.029633 -0.214326
v -0.091313 -0.029625 -0.228567
v -0.102847 -0.029613 -0.247747
v -0.032821 -0.084412 0.265670
v -0.064567 -0.068455 0.265671
v -0.083389 -0.050541 0.265671
v -0.090488 -0.030577 0.265672
v -0.113154 -0.029598 0.134160
v -0.138553 -0.029598 0.129537
v -0.164413 -0.029598 0.120451
v -0.185712 -0.029598 0.108480
v -0.202288 -0.029598 0.094538
v -0.216449 -0.029598 0.075912
v -0.224404 -0.029598 0.057603
v 0.001467 -0.091377 -0.269791
v -0.045865 -0.091325 -0.269791
v -0.031847 0.094050 -0.008201
v -0.022251 0.094050 -0.018450
v -0.000373 0.094050 -0.026033
v -0.050057 -0.028993 -0.208048
v -0.049500 -0.022745 -0.213280
v -0.048267 -0.018441 -0.224873
v -0.043488 -0.015025 -0.269791
v 0.001475 0.032226 -0.343362
v 0.000628 0.032226 -0.343576
v 0.001539 -0.091409 0.265669
v -0.007062 0.032226 -0.337472
v 0.003629 0.032226 -0.029963
v 0.000026 0.032226 -0.030330
l 1 2
l 3 4 5 6 7 8 9 1
l 10 11 12 13 14
l 15 16 17 18
l 19 20 21 22
l 23 24 25 26 27 28 29 30 31
l 32 33 34 35 36 37 38 39 40 41 42
l 43 44
l 45 46 47 48 49 50
l 51 52 53 54 55 56 57 58 59 60 61
l 62 63 64 65 66 67 68 69
l 70 71 72 73 74
l 75 76 77 78
l 23 79 80 81
l 1 82 83 84 85
l 86 87
l 88 56
l 89 90 91 92 93 94 95 96 97
l 78 98 99 100
l 101 102 103 104 105
l 106 107 108 109
l 110 45
l 111 112
l 2 113
l 114 115 116 117 88
l 87 118 119 120 121 122
l 123 124 125 70 126 127 128
l 129 130 131 132 37
l 133 134
l 135 136 137 138 23
l 139 140 141 142 143
l 144 145 146 147 148 50 149 150 151 152 153
l 154 155 156 157 158
l 133 159 160 161
l 129 162 163 164 165 166
l 23 167 168 133
l 23 169 170 2
l 2 171 172 173 174 175 176
l 177 178 179 180 100
l 37 181 182 183 184
l 23 185 186 187 188 189 190 191 161
l 192 193
l 153 194 195 196
l 197 198 199 22
l 200 201
l 93 202 203 204 205
l 78 206
l 37 207
l 208 209
l 128 210 211
l 212 213
l 214 215
l 216 217
l 218 219 220 221 222 223 224 216
l 225 226 227 228 229
l 230 231 232 233
l 234 235 236 237 238 239 240 241 242
l 243 244
l 245 246 247 248
l 234 249 250 251
l 216 252 253 254 255
l 256 257
l 248 258 259 260
l 261 262 263 264 265
l 266 267 268 269
l 270 271
l 217 272
l 257 273 274 275 276 277
l 278 279
l 280 281 282 283 234
l 284 285 286 287 288
l 278 289 290 291
l 234 292 293 278
l 234 294 295 217
l 217 296 297 298 299 300 301
l 302 303 304 305 260
l 37 306 307 308 309
l 234 310 311 312 313 314 315 316 291
l 317 318
l 144 319 320 321
l 322 323 324 233
l 248 325
l 326 327
l 37 328
l 123 329 211
l 330 331
